<svg xmlns="http://www.w3.org/2000/svg" width="256" height="256"><path d="M37.36930086020246,5.606266440039997 44.68084816718287,6.646861188231462 45.216082307882445,6.646861188231462 46.24049555835404,6.567198432120684 46.994802277542135,6.5273670544362545 47.817569177359516,6.358083698405675 48.60299416053746,6.06432728619313 49.28635123768033,5.621203206903507 50.42527969970875,4.959006549125357 50.86715904836459,4.705081515116584 52.28615188637583,3.813854434669922 52.714339198801945,3.5748661670053163 52.937145968969254,3.450393111045926 53.54830867372986,3.395624966497986 53.615524123947935,3.3906460441112265 53.4176119649725,4.401367258649862 53.42383561777047,4.446177558721051 53.440017115045194,4.505924625581558 53.4599328039987,4.535798159086004 53.483582684705176,4.590566303411369 53.48856160694355,4.655292292881211 53.50847729589705,4.789723193317353 53.530882445969745,4.819596726599223 53.59685316562822,4.899259482487425 53.7636470606138,5.0436482271777425 54.08603227562281,5.242805116861152 54.26402874549636,5.327446794913537 54.40966222096885,5.382214939461477 54.49181443790204,5.402130628637555 54.53413527692824,5.407109550801739 54.57521138539484,5.412088473114306 54.62002168561441,5.427025239532666 55.007132889573924,5.53158260676113 55.24363169589677,5.606266440039997 55.27848415163959,5.626182129216074 55.3183155294724,5.6411188958570095 55.505025113411484,5.720781651522636 55.746502841972706,5.805423330020172 55.85728386177656,5.865170396658105 55.897115239683565,5.875128241134856 55.93819134815016,5.88010716329904 55.97428853437839,5.8900650077757915 58.29073210585684,7.782055458284337 60.84865340582232,9.88316064317562 61.28679856272518,11.566036359746581 61.24696718489237,12.307895772893591 61.324140479513,13.13937578714747 61.78344605600315,13.931024422975003 63.570879139654195,14.996513781987387 66.24207092054272,16.589768898193395 69.01284114612456,20.398644410253983 69.09250390193857,20.38868656599981 69.13606947159855,20.3936654880898 69.21697695789796,20.408602254730734 69.64516427054664,20.41358117734007 69.68997457061784,20.41358117734007 70.04970170241467,20.463370399723825 70.17915368053825,20.498222855095687 70.25383751403969,20.50818069957244 70.53265715938872,20.54801207777621 70.93719459125674,20.612738066578327 71.02432573050251,20.63265375553183 71.11519106127867,20.647590522172766 71.51972849314669,20.69737974485329 71.82966640248557,20.757126811491222 71.99770502803075,20.787000345218242 72.08234670615732,20.806916033949168 72.12342281462392,20.806916033949168 72.20433030092333,20.83181064528943 72.27652467337978,20.87164202297386 72.30888766792923,20.891557711927362 72.49061832970413,20.976199389979747 72.52671551585816,21.00109400132001 72.67359372196444,21.0658199903447 72.71093563867805,21.08075675720821 72.86901641974649,21.09071460168496 73.08684426767542,21.07577783482145 73.1702412152424,21.0658199903447 73.20882786251562,21.05586214586795 73.28351169609125,21.02598861266027 73.35695079918149,21.00109400132001 73.4353688244359,20.9861572344565 73.47520020226871,20.981178312589083 73.5175210413691,20.97122046803814 73.55859714976151,20.966241545725573 73.5971837972573,20.97122046803814 73.61958894718161,21.00109400132001 73.6619097862078,21.09071460168496 73.76522242265409,21.299829335622547 73.94570835379521,21.588606825522525 74.18220716019225,21.842531859753873 74.35522470790161,22.11139366070035 74.5805209391881,22.33544516127887 74.6427574671678,22.38523438344005 74.67138627003845,22.41510791716707 74.71619657025803,22.469876061492435 74.8058171704746,22.579412351033465 74.83195651222607,22.60430696192858 74.85311693173917,22.733758940497303 74.82324339830892,22.82835846295225 74.80083824823623,22.917979063094627 74.79461459551244,23.002620741147012 75.01244244344139,23.037473196964026 78.60597956898899,23.570217876396026 82.68496161270403,22.96278936338839 82.99365479155752,22.913000141004634 87.47841899770016,20.83181064528943 95.52560206547477,21.503965147247566 95.75836668019302,21.553754369705512 95.804421710898,21.55873329201808 96.19028818429791,21.60852251425345 96.48528932692167,21.648353892457223 96.89978460326644,21.698143114618407 97.30805622688744,21.772826948416615 98.10219432390835,22.091477971672656 99.82241195719294,22.76861139609174 99.94688501315233,22.793506007135235 100.32403837270928,22.903042296527882 100.56053717910632,22.97274720793933 100.78707814087822,23.012578585401187 101.1181764697302,23.11215703024289 101.39948557627261,23.331229608953993 101.66959210770449,23.570217876396026 101.8749726499633,23.769374765634282 101.89364360843139,23.804227221451296 101.9359644473834,23.858995365999235 101.98575366984134,23.908784588679758 102.02185085606956,23.928700277410687 102.0554585811044,23.943637044274197 102.08533211460885,23.96853165561446 102.1176951090841,23.993426266435378 102.14134498979058,24.053173333370076 102.15379229531233,24.112920400304777 102.16872906210165,24.207519922982296 102.2010920565769,24.456466034901077 102.30564942358278,24.73528568010173 102.29320211806103,24.82988520277925 102.19984732609149,24.92946364747257 102.13387660635883,25.01410532522819 102.11147145636032,25.073852392385465 102.04923492838063,25.287946048487232 102.06292696446197,25.382545571238946 102.0778637311771,25.41739802675919 102.1164503785987,25.4721661716039 102.1774421760188,25.551828927269526 102.2185182844112,25.636470605025142 102.20856044000865,25.785838272324796 102.15005810363354,25.90035348403001 102.13014241468004,25.930227017237687 102.04301127558266,26.049721151107086 101.98575366984134,26.12938390699529 101.96583798088784,26.19410989601998 101.92974079465961,26.42811924107525 101.92351714186164,26.48786630800995 101.79779935526847,26.79655948686343 101.88866468619301,26.926011464912815 102.03180870047213,27.234704643766293 102.13263187594761,27.394030155542698 102.4014936767457,27.637997344852145 102.67160020817758,27.88196453490351 102.74006038888106,27.92179591258794 102.77491284462387,27.93673267945145 102.86079925316166,27.96162729079171 102.92179105058176,27.976564057135878 103.00269853702956,27.98652190161263 103.14957674298745,28.086100346751103 103.45080153840918,28.30019400285287 103.71966333942984,28.54416119238489 103.84662585636003,28.66365532625429 103.88147831202866,28.683571015207793 104.18892676024836,28.803065149003 104.2835262828517,28.86281221549255 104.31962346907991,28.89268574914538 104.37563634418746,28.93749604943914 104.62209299513543,29.181463239045357 104.82124988452206,29.430409350964137 104.85112341795232,29.4553039623044 104.95194659327943,29.529987795583267 104.99053324062683,29.544924562446777 105.34030252787272,29.679355462882917 105.5718224119572,29.778933907502047 105.60543013706622,29.80382851884231 105.68509289295443,29.878512352121177 105.70874277351253,29.908385885848197 105.72990319302562,29.99800648621315 105.66766666504593,30.01792217494408 105.43365731984227,30.07766924210135 105.55315145356329,30.286783975816363 105.66891139567971,30.575561465938915 105.64899570680039,30.764760510700423 105.63405893993689,30.859360033452134 105.6514851677712,31.128221834324417 105.66766666504593,31.163074289918857 105.68882708463322,31.197926745735867 105.71621115694428,31.22780027872097 105.9788493049444,31.481725313249086 106.11576966664812,31.665945436068984 106.34728955065839,31.94974400335963 106.59125674033879,32.17877442632491 106.77796632427788,32.4675519161507 106.83024500778082,32.59202497211008 106.85638434953229,32.6268774279271 107.1215119587258,32.870844617755886 107.36050022624202,33.11481180706534 107.44514190414603,33.19945348534029 107.81358214978582,33.52308343076052 107.98286550603898,33.70730355365461 108.17579874262765,34.00105996564458 108.44963946588669,34.28485853338037 108.77077995018773,34.533804645299156 108.92886073118196,34.643340934395034 109.31348247409647,34.96199195750269 109.39563469102967,35.036675791449284 109.58109954440917,35.161148847408676 109.6769437975721,35.23085375837498 109.95078452060855,35.44494741469932 110.10886530175118,35.763598438029554 110.31300111345038,36.1569332950838 110.47481608619759,36.48554216266821 110.62791794517602,36.769340730404004 110.8196064512793,37.08301283142167 110.99386872954825,37.37676924341164 111.02498699353809,37.44149523243633 111.09842609662833,37.57094721048571 111.13950220509493,37.5958418216034 111.60876562598764,37.730272722262114 112.02077144121323,37.84478793352218 112.15644707228316,37.8746614672492 112.24606767264811,37.90453500045688 112.35062503950562,37.9742399120909 112.43277725658719,37.909513923066214 126.66378174435013,32.23354257087285 127.00110372600008,32.099111670436706 135.25989098883147,28.803065149003 140.75039748734858,30.490919787441378 149.8145254222372,33.27911624122849 150.02737434792775,33.34384223003061 150.40328297685093,33.42350498591882 150.46676423539023,33.43346283039556 150.68085789171457,33.49320989755284 150.8563649005431,33.567893730831706 150.97088011209993,33.627640797766404 151.044319215116,33.657514331419236 151.1650580793224,33.68738786492368 151.44387772474562,33.72224032051812 151.8446809648607,33.76705062058931 152.2853155829569,33.80190307640632 152.56413522838014,33.85169229834493 152.62388229516645,33.871607987521 152.9450227795417,34.1155751773498 153.14293493851713,34.259963922040114 153.2101503887352,34.28983745569294 153.58108009556835,34.38941590038626 154.0254489052692,34.454141889410955 154.46110460112706,34.573636022983585 154.85194999691373,34.70806692341973 154.97642305287314,34.75287722371349 155.05608580861295,34.79768752408145 155.09716191707955,34.8375189015433 155.18429305625114,34.98190764645619 155.23781647031367,35.071528246821146 155.44444174320626,35.325453281126684 155.4929862350304,35.39017927015138 155.55024384077174,35.449926337086076 155.90748151137518,35.6938935266181 156.23733510966758,35.86815580503544 156.54229409684226,36.05735485001952 156.85970038946454,36.23659605074943 157.3314532715506,36.410858328944194 157.54803638899415,36.43575294028445 157.6376569892107,36.43575294028445 158.1741358603957,36.51541569617265 158.5575128727506,36.64486767444461 158.69318850374634,36.69963581876998 158.7417329956447,36.719551508020245 158.86869551264908,36.769340730404004 158.9906791075635,36.82908779689355 159.09025755225682,36.883855941664066 159.4562083368516,37.08799175328908 159.61179965680086,37.17263343178662 159.89310876326905,37.356853554383946 160.18437571413986,37.55601044391897 160.52916607914736,37.77010410024331 160.85528548576096,37.96926098948157 161.18389435356795,38.15846003498499 161.22621519266832,38.18335464580591 161.5622924436845,38.377532613176754 161.75149148866856,38.502005669136146 161.91330646141577,38.606563036142035 162.21204179571833,38.8206566922438 162.24564952082736,38.84555130380664 162.28797035992775,38.870445914924325 162.3626541934292,38.805719925602865 162.9912431260241,39.44800089465009 163.24516816018127,39.72184161761236 163.5451482250434,40.040492640720025 164.01690110712948,40.56327947567527 164.21854745785788,40.76243636558125 164.4650041085833,41.05619277734865 164.70025818442073,41.33003350038512 164.88323357660684,41.529190390365294 164.9168413017159,41.554085001186216 165.10604034677417,41.64868452371535 168.9174053203249,45.59696985882141 169.93559491799851,47.08566760824411 170.7745433151648,48.32044032328707 171.24256200557213,48.972679136588475 172.07653148050002,50.132768017907416 172.54828436258612,50.88458527605052 172.941619219492,51.53184516718773 173.19429952301536,51.9500746351371 173.1084131144034,52.27868350294408 173.62124210503026,53.32425717300296 173.81044115001436,53.8121915521412 174.03947157297964,54.25531563120825 174.3270043323942,54.80299707772633 175.0203192540138,56.087559015004665 175.69247375612034,57.15304837409124 175.77089178137476,57.19785867416243 175.82690465655648,57.202837596771765 176.10199011022672,57.21279544124852 176.12190579918024,57.25760574131971 176.30612592200012,57.58621460912669 176.37583083333737,57.680814131581634 176.411928019714,57.71068766508608 176.46918562530692,57.77043473172401 176.66460832323736,58.09406467721843 176.8189549125528,58.44258923375634 176.947162160191,58.741324568355644 177.0878167134251,59.04503882482236 177.22224761386124,59.33879523681234 177.3380075559035,59.68731979335025 177.44505438402854,59.981076205340216 177.51102510376123,60.15533848398013 177.52720660096176,60.254916928821835 177.5595695955112,60.324621840233284 177.58570893726267,60.359474295827724 177.65043492643574,60.638293940954185 177.6641269625171,60.68310424102537 177.67532953755344,60.73289346370589 177.6554138486741,61.05154448696193 177.58446420670307,61.27061706522789 177.46372534249664,61.59424701064811 177.31809186702415,61.95770833404953 177.192374080431,62.15188630142037 177.1475637803598,62.20167552387832 177.77117379064217,65.14919748914508 178.39976272323707,67.28017620687308 178.6599114101922,67.36979680723803 179.45031531560852,67.64861645280963 182.580812672913,68.7638950341316 183.71227275158387,69.01284114605036 185.60924212440497,69.2966397135636 187.94311192364356,69.65014319271083 191.24538209824618,69.94887852656822 193.4722050693597,69.16220881335002 193.98876825159115,69.22693480215214 195.09159952746555,69.36634462497504 198.556929405375,68.62946413369545 198.60422916663956,68.61950628921869 198.66273150286628,68.71410581145106 198.82952539785188,68.94811515702568 198.87433569799725,68.92322054568541 199.11581342655847,69.21199803528863 199.3087466633697,69.5157122922005 199.46184852212556,69.70989025912618 199.5203508584265,69.78955301501439 199.74564708971297,70.04845697140992 199.79294685097756,70.09824619386787 200.1265346409487,70.35715015026341 200.2310920080288,70.43681290592903 200.2771470386596,70.47166536174605 200.62691632597966,70.69073794045714 200.8024233348824,70.91976836312566 202.64835875476015,71.82095328856842 205.04197562078505,74.06146829583744 205.53737838357762,74.6390232755632 211.92906980701815,74.25564626320829 214.0799642140706,73.59344960520757 214.1870110421215,73.55859714939055 214.06502744742966,73.90712170615103 214.03141972217225,78.31346788718766 214.4098178122888,80.05609067061913 214.62889039085152,80.25026863798996 214.81062105255222,80.21043726023134 214.88654961661325,80.19052157105527 214.9836386002616,80.19052157105527 215.25250040120807,80.18554264889109 215.41804956563405,80.18554264889109 215.60226968837975,80.15566911523825 215.86988675884083,80.1158377377764 216.1474616734819,80.06106959293169 216.32047922133964,79.97642791473092 216.57067006374382,79.83701809235318 216.77231641454642,79.79220779183683 217.03744402359155,79.8320391700406 217.33742408852785,79.87187054772504 217.55525193645678,79.82208132556386 217.8415399650892,79.65279796953328 218.12284907155743,79.67271365848677 218.30457973325812,79.72748180281214 218.6194965648354,79.86689162585762 218.8622190240304,79.92663869249554 219.16468854993752,79.94157545913649 219.9476240719221,79.9365965369723 220.2513383285372,79.97144899278932 220.66458887424818,79.991364681817 221.03178438932838,79.91170192592881 221.36537217929956,79.70258719169446 221.52718715212094,79.62292443580625 221.6641075136021,79.632882280283 221.99396111196867,79.68765042505352 222.2727807572435,79.74241856989823 222.5391530970708,79.6926293472177 222.79058867003457,79.60300874685275 223.0532268181089,79.38393616836423 223.2486495160393,79.24950526792809 225.16180038606097,80.73820301757335 226.26463166186116,82.30656352236491 228.3644921158961,81.37550506371447 230.10089124660377,80.40461522715704 232.23560415623314,79.22461065703297 234.30310161571862,77.94004871930949 237.01039058283536,76.4463720477968 238.01613287498725,77.6064609295609 239.46250978530955,79.56815629125832 240.94124969003292,81.77381884271033 243.01248134119717,84.50724715194951 243.1095703248455,84.61180451865863 243.40581619802884,84.85079278610066 243.65227284890264,85.15948596495414 243.84894027731846,85.44328453268993 244.03440513062378,85.71712525594899 244.2310725590396,86.03079735666988 244.40782429850194,86.31459592440567 244.58457603796427,86.64320479221266 244.7837329275735,86.93696120420262 245.14719425090072,87.22573869380584 245.4820267714315,87.45476911677112 245.5853394078778,87.53443187265931 245.71105719447095,87.66886277309546 245.79320941132997,87.79333582905485 245.8492222865117,87.86304074024372 245.9936110314246,88.13688146372535 246.11932881794357,88.460511408923 246.17160750144652,88.5999212317459 246.1965021126384,88.68954183188826 246.36454073825777,89.07789776685253 246.38570115777085,89.12768698879114 246.44420349399758,89.28701250056754 246.49648217750052,89.39156986757342 246.56867654995696,89.49612723480189 246.6047737361852,89.53097969039632 246.91720110664326,89.73511550224391 247.2383415910185,89.94423023595893 247.60678183665829,90.20313419235445 247.97397735173848,90.48693275986768 248.3847384364045,90.78068917208023 248.43203819766904,90.820520550284 248.51294568419104,90.87528869483194 248.60754520657179,90.94001468363405 248.90005688815054,91.14415049548164 249.100458508171,91.28356031830455 249.29214701434844,91.45284367433513 249.31330743386152,91.49765397462889 249.32824420057665,91.71174763073066 249.29339174490804,91.78643146445468 249.28343390043128,91.89596775362475 249.2909022839372,91.93579913130918 249.28592336155046,92.03039865406089 249.4825907900405,92.04035649853765 249.5386036652222,92.04533542085021 249.61826642096204,92.05031434279182 249.9319385219797,92.07023003174533 249.99044085835482,92.08018787622207 250.07881672808597,92.09014572069883 250.5269197294656,92.12499817651583 250.65388224661837,92.13993494315677 250.75843961362426,92.14989278763352 251.0609091395314,92.18972416583729 251.62228262190823,92.2395133877759 251.68327441932834,92.2395133877759 251.8525577755073,92.2395133877759 252.11146173190284,92.22457662143174 252.2160190989829,92.21461877665821 252.26829778233747,92.21461877665821 252.35542892158324,92.20466093218147 252.62304599182173,92.19968201009146 252.67159048372008,92.19968201009146 252.7773925812114,92.20466093218147 252.9939756987291,92.23453446590848 253.2030904325925,92.28432368829223 253.37984217205482,92.32913398814085 253.76819810664813,92.4436491996235 253.86279762917727,92.47850165521793 253.90885265988223,92.49841734439401 254.2822718277604,92.65276393385784 254.3619345836486,92.69259531154228 254.71170387082032,92.85689974570543 254.80505866278986,92.89175220129988 255.01541812743542,92.94652034584782 255.11126238044994,92.96643603457875 255.24942747263907,92.9763938790555 255.344026995094,92.98137280166483 255.38510310356062,92.98137280166483 255.6925515517803,92.9514992679378 255.91037939970923,92.91166789025338 256,92.88179435674893 255.96016862216717,92.99630956823157 255.91411359138803,93.07597232389719 255.88672951915115,93.11580370210098 255.86805856068304,93.15563508000797 255.8394297578866,93.22036106910686 255.80333257165836,93.31496059133923 255.78964053542862,93.35977089141042 255.7323829298357,93.50913855871006 255.68881736010152,93.59378023698503 255.6527201739475,93.75310574846466 255.6116440654809,93.89251557106499 255.60044149037034,93.93234694926876 255.58052580149104,93.98213617120737 255.54318388462903,94.07175677157232 255.48343681791692,94.27091366132993 255.43862651762313,94.41530240602025 255.31913238390214,94.69910097375603 255.0838783082131,95.28661379773598 255.0826335776535,95.33142409780716 255.07143100254294,95.37125547593675 255.0614731581404,95.4658549982433 255.06645208030457,95.79944278865962 255.04280219967228,95.91395800014226 255.03284435519552,95.94881045543994 254.98554459407936,96.08324135617285 254.9755867494542,96.13800950072078 254.96562890497745,96.2226511784764 254.95816052169408,96.28737716802044 254.95193686882192,96.42678699032399 254.95069213826233,96.50147082412221 254.94322375497896,96.56121789076013 254.937000102181,96.62096495769484 254.91210549098912,96.75539585813098 254.899658185319,96.80518508058893 254.7951008183131,97.09894149280147 254.78514297383634,97.1337939483959 254.77145093775502,97.18856209294385 254.75775890152528,97.32299299315741 254.6718724929133,97.65658078357373 254.61212542620117,97.95531611743112 254.59843338989725,98.00012641772489 254.57851770094376,98.03995779592866 254.5449099758347,98.07978917339051 254.486407639608,98.12459947368427 254.34201889469512,98.20924115195923 254.1229463162066,98.29886175210162 254.1192121245278,98.39346127477913 254.05573086598852,98.7071333757968 254.0171442185669,98.80173289802917 253.98976014640422,98.87641673182738 253.88769224036915,99.08553146554239 253.84412667085755,99.26477266649486 253.83790301805956,99.38426680014169 253.84537140134296,99.4440138670764 253.85906343757267,99.48384524476081 253.87897912652616,99.51869770035526 254.11547793277484,99.7925384236143 254.1826933829929,99.84232764599805 254.2673350610453,99.92199040166368 254.34450835574012,99.98671639098514 254.45528937561815,100.11118944694454 254.57602823982458,100.29043064745187 254.59718865933766,100.32030418065955 254.64199895955724,100.41988262550124 254.65693572627237,100.47962969243595 254.66564884011532,100.55431352593739 254.66938303179413,100.67878658189677 254.66315937907032,100.74351257121823 254.63204111508048,100.88292239396695 254.4465762616268,100.9426694604565 254.39927650043643,100.95760622754258 254.33579524189713,100.97254299410932 253.9175657737994,101.00739544992634 253.84039247910457,101.01735329447727 253.53916768368285,101.0422479052982 253.04998857383663,101.09203712775614 252.86701318150213,101.12191066140898 252.42762329403968,101.23642587266905 252.08781185119636,101.39077246235546 252.01063855650153,101.40570922869962 251.96084933419198,101.40570922869962 251.70443483884142,101.4007303068322 251.61854843030363,101.39077246235546 251.50901214105937,101.36089892862843 251.46046764916102,101.3459621619875 251.42063627132822,101.32604647281141 251.33226040152286,101.28621509512699 251.03352506736869,101.21651018371554 250.93892554476537,101.20157341685203 250.84930494440042,101.20157341685203 250.32900757049015,101.18165772789852 250.01782493059167,101.2214891060281 249.85849941896367,101.26132048378673 249.77883666314966,101.28123617274024 249.32699947009127,101.3459621619875 248.91748311605906,101.3459621619875 248.8502676656926,101.35094108415169 248.45693280886093,101.37085677332776 248.31254406394802,101.37583569549194 248.22914711645524,101.3808146178045 247.93663543502487,101.41566707317637 247.86070687081545,101.43060383981731 247.78228884556103,101.45549845138014 247.53085327259726,101.55009797361251 247.39019871928895,101.58992935159371 247.34538841921776,101.59490827390628 247.10888961282072,101.82393869664898 247.0503872766682,101.88866468619301 247.00557697637444,101.9334749862642 246.94334044839474,102.00815881954307 246.8885723038468,102.062926964091 246.61224211954274,102.27204169854794 246.48776906358336,102.33676768735006 246.34586977978967,102.43136721010177 246.09692366787087,102.69525008836472 245.68740731376448,102.91432266707582 245.3189670681247,103.08858494541897 245.12478910090223,103.1782055458581 244.97293197255757,103.23297369040606 244.48873178487554,103.45702519098457 244.32069315940456,103.52175118000926 244.2721486675062,103.53668794687277 244.22609363680124,103.54166686896276 244.12775992259333,103.54664579112695 244.05556555013686,103.53668794687277 244.01697890278945,103.52175118000926 243.97590279432285,103.50183549105576 243.91242153585776,103.46698303546133 243.83400351060334,103.43710950225365 243.7045515324056,103.35246782397869 243.63360189043453,103.31263644629425 243.59501524316133,103.29769967920816 243.45311595929343,103.27280506809048 243.29627990878458,103.27280506809048 243.16184900834844,103.28276291256724 242.91539235762303,103.35246782397869 242.76602469047177,103.41719381300338 242.48596031456316,103.49685656911414 241.7378772482472,103.60141393589747 241.33956346917716,103.71095022521592 240.52924387488153,103.92006495900512 240.13341955685647,103.98479094847497 240.03757530384192,103.96487525929888 239.98156242858602,103.96487525929888 239.81227907248123,103.97981202616239 239.41645475453038,104.06943262652734 239.00320420874522,104.13415861532947 238.42813869021282,104.21880029360443 238.35843377887556,104.23373706039375 238.2663237174656,104.25365274942143 238.15554269773594,104.26858951576561 237.9028623940642,104.30842089396938 237.76594203258304,104.33331550501288 237.58047717912936,104.35821011635313 237.47467508163808,104.37812580538083 237.41617274526297,104.38808364985758 237.16971609453756,104.42293610545202 236.94068567157228,104.45778856097226 236.50502997571442,104.52749347216114 236.42661195038582,104.54243023880207 236.18762368294378,104.5723037724549 236.00589302124308,104.58724053909583 235.91253822927354,104.60217730595934 235.52542702531403,104.65196652812052 235.13084743792274,104.71171359505523 234.57943179994845,104.78141850646668 234.10892364849616,104.84614449549137 233.62347873018035,104.91584940668025 233.10567081738927,104.97559647383753 232.49201865158366,105.05028030711638 232.2231568506372,105.04032246263964 232.10988636971416,104.98555431831427 231.94184774424318,104.8162709622837 231.79496953813688,104.68681898371497 231.5721627679696,104.5324723945479 231.29209839206095,104.45778856097226 230.50044975623342,104.35821011635313 230.6485726927509,107.62438310480174 228.6632274502728,107.93805520552263 227.22556365386765,108.66995677441547 226.78492903577143,108.8840504307398 226.3193998065575,109.06827055363391 225.61488230982732,109.23257498779707 225.1966528417296,109.28236420973568 224.80954163777008,109.29730097682176 221.8047620668362,109.61097307754265 221.6180524828971,109.67072014469993 221.4549927796645,109.77527751170581 220.9869740892572,110.13375991272048 220.56749989067404,110.37772710225249 220.3123301258831,110.4972212361219 219.99616856374624,110.72625165930975 219.67129388776644,111.00009238204946 218.8846241740289,111.60254197289291 218.40664763914484,111.83157239608076 216.6142356333296,112.7028837877965 216.57938317773517,112.72777839913675 216.491007308004,112.7676097765986 216.1275459846026,112.93689313285176 215.80640550022736,113.10617648888234 215.42551794891742,113.26550200043617 215.01475686425144,113.42980643459933 214.87659177213652,113.4746167348931 214.70730841610595,113.5244059568317 214.64507188812624,113.54432164600779 214.40483889005043,113.62398440167341 214.23431080346026,113.68871039099487 214.1782979282785,113.71858392420255 214.13846655029732,113.7434785355428 214.10610355582207,113.76339422427374 214.07498529183223,113.79326775792656 214.01523822489753,113.8828883583657 213.98660942210105,113.94263542522621 213.95424642755162,114.0322560253686 213.94428858307487,114.0671084811856 213.92935181635974,114.11689770342097 213.91441504964462,114.2363918369936 213.8969888217361,114.31605459310438 213.88329678565478,114.360864892953 213.84595486886695,114.50525363816266 213.77127103521713,114.84382035044639 213.6580005542941,115.21723951832456 213.4501305508419,115.43133317442634 213.42025701748582,115.46618563024334 213.39785186733894,115.5060170077052 213.03439054393752,115.25209197391901 211.5469375252228,114.12685554767515 210.32087792402282,112.5784107318371 208.78612514404352,111.85148808481169 206.38379516410149,111.15941789360328 205.59961491155732,110.72625165930975 203.65036685523327,107.04184920246664 202.64213510188802,106.34480008939082 201.74717382961418,105.88673924323768 200.65181093717155,105.329099952688 200.61446902030954,105.30918426351192 200.29830745817267,105.25441611896397 200.24602877466972,105.21458474135375 200.19872901340517,105.18471120755252 200.16014236613194,105.16479551859902 199.8402466122421,104.98057539615009 199.78921265929876,104.95568078480983 199.43073025813572,104.84116557340138 199.05233216801918,104.68681898371497 198.4760219189272,104.4129782606785 197.94950089229317,104.20386352674092 197.58355010769836,104.07441154861733 197.54247399923176,104.0594747820506 197.1615864480702,103.93002280348188 197.01346351140435,103.86529681467975 196.87529841928944,103.81052867013182 196.80434877746677,103.78563405879156 196.62012865457268,103.74580268103293 196.57407362386772,103.74082375872037 196.30147763139084,103.73584483655618 196.25542260061167,103.73086591424361 196.2106123004663,103.72090806976686 196.15584415591834,103.70597130290335 195.76873295181045,103.53668794687277 195.7388594183802,103.56158255821303 195.3305877949076,103.49187764680158 195.2509250390194,103.46698303546133 194.87003748785784,103.29272075704398 194.5352049672529,103.05871141176614 194.22277759679483,102.84461775566437 194.143114841055,102.80976529984736 194.0821230435607,102.77491284425292 193.9812998682336,102.70520793306405 193.68878818672903,102.4861353546497 193.6327753115473,102.44630397644593 193.37013716354718,102.22723139825418 192.8983842814611,101.8388754635125 190.64044304628356,100.35017771431237 189.08328511623156,97.20847778167477 185.5457608658657,94.29580827267019 183.85043784369878,90.58153228261939 182.28705626092304,87.16101270478114 181.9870761960609,86.29965915754217 181.65099894489637,85.98598705659869 181.48793924166375,85.74699878893408 181.37466876074072,85.46320022142086 181.2713561242944,85.11467566488295 181.24770624358794,85.0449707534715 180.8257425838856,84.97028692019263 180.44858922432866,84.8856452416951 179.97310215063797,84.7561932638683 179.5996829827598,84.58193098522838 179.29596872614468,84.39273194046687 178.28649224231404,83.66083037127727 177.58321947621766,83.09821215819244 177.0044197659323,82.60031993435489 176.86874413493658,82.76462436851804 176.76543149849027,82.83930820179691 176.52270903936946,82.92394987999768 176.15302406317008,83.01854940230425 175.92772783195778,83.14302245826363 175.34021500775526,83.52142054875114 175.12238715982633,83.62099899337026 174.64565535550184,83.83509264947203 174.34069636847553,83.90479756110607 174.06685564536488,83.86994510528905 173.8191542639315,83.79028234940084 173.5951027632788,83.66083037127727 173.70339432196346,83.60108330463933 173.8963275587005,83.41686318152267 174.00088492563222,83.08327539177408 173.9822139672383,82.56048855667045 172.52463448195383,80.5091725943855 172.4698663374059,80.48427798304523 171.72302800164957,78.91093855564435 171.3483641032118,78.46283555448731 171.225135777812,78.42300417628354 170.9612528991039,78.34832034300467 166.98931768343974,79.77727102549267 164.96663052409963,80.45938337215013 163.80031798976015,80.84276038450506 161.79754651937355,81.25601093014184 160.69471524357334,81.48504135332969 157.97746843197984,82.25677429990697 156.9667472176638,81.30082123021303 155.93984450599882,80.57887750579695 155.13201437282237,79.7573553362424 154.85194999691373,79.81710240317709 155.1880272480041,80.39465738268028 155.2465295842308,80.49921474990875 155.30129772885294,80.68343487272864 155.26769000374392,80.83778146219248 155.20545347576422,80.9821702068828 154.97393359167975,81.26098985223183 154.68266664073477,81.49002027519711 154.32418423957174,81.64934578675094 153.9681912995279,81.79373453188641 153.62340093452036,81.93314435448674 153.50266207031396,81.97795465455792 153.1441796691509,82.13230124394757 152.77076050127272,82.28664783363398 152.3687125304497,82.47086795652807 152.31892330806596,82.49576256734899 151.96666455977507,82.64015131255866 151.5758191639884,82.80445574620246 151.1625686182032,82.97373910223305 150.7953731031972,83.11812784714594 150.68708154451252,83.1629381474397 150.58252417750666,82.09246986604056 150.53895860784667,81.70909285390822 150.4929035771417,81.2460530856651 150.42568812692363,80.87761283987692 150.4095066296489,80.8328025400283 150.25018111809507,80.5440250502025 149.9987455449829,80.165626959715 149.80083338600747,79.88680731458855 149.58673972983152,79.59305090259858 149.33281469567436,79.27439987904577 148.97059810283253,79.0204748449628 148.52622929298332,78.74165519961377 148.15778904734353,78.52258262112524 147.6499389790292,78.17405806436476 147.33004322528777,77.98983794199 147.29145657786617,77.97490117512649 147.0798523827352,77.88030165237478 146.96160297957377,77.84047027469036 146.72136998157217,77.75084967454798 146.5670233921825,77.69608152970326 146.51349997811997,77.68114476313653 146.38653746111558,77.64131338493276 146.12638877408625,77.54173494009105 145.98448949029256,77.48696679554311 145.94839230406433,77.47203002912475 145.90109254279977,77.45211433994868 145.81396140362818,77.41726188413166 145.44054223575003,77.27287313944134 145.321048102029,77.2181049948934 145.27374834076443,77.2031682280299 145.199064507263,77.17329469482222 144.87916875337316,77.00899026065905 144.72606689454312,76.92434858290343 144.69619336118706,76.90443289365317 144.5480704245212,76.83472798253848 144.18585383167937,76.67540247098465 144.10494634537994,76.64055001516763 144.0327519729235,76.6056975595732 143.9717601754292,76.5857818706197 143.5423281323693,76.42645635906587 143.14650381456684,76.27708869176621 142.72329542415653,76.10282641357145 142.36730248418687,75.96839551291274 142.0150437358218,75.82400676799985 141.59681426772403,75.63978664510576 141.2395765971206,75.48544005593868 140.89478623218727,75.33109346647485 140.51140921983233,75.18172579947196 140.08695609893664,74.9975056763553 139.90273597611673,74.90290615382617 139.57537183894354,74.6838335756344 139.50566692775465,74.61910758653552 139.36376764388677,74.4796977637868 139.2791259657602,74.37016147461674 139.0911716512615,74.16602566254657 139.06129811783126,74.12619428463957 138.9928379370536,74.03657368449718 138.77998901136303,73.75775403937072 138.73891290289643,73.68307020534994 138.65427122491823,73.5685549938673 138.61568457749664,73.50880792745194 138.55095858847193,73.43412409343115 138.31445978207492,73.14036768144119 138.18625253443673,72.97606324779737 138.13521858156759,72.92129510295266 138.04559798120263,72.83665342497447 137.73068114969956,72.63251761312688 137.61492120758314,72.57774946880151 137.55268467960343,72.54787593507449 137.50165072666007,72.51800240164424 137.44065892931417,72.49310779074912 137.22034162019187,72.3835715012081 137.08466598919614,72.30888766792923 136.85439083574545,72.1794356893605 136.7062678990796,72.08483616705394 136.53573981241522,71.97529987773548 136.1722784890138,71.79107975484139 135.801348782329,71.62677532119757 135.4540689562023,71.46247088725698 135.3955666198272,71.43259735360415 135.16778092742152,71.31808214212151 134.82921421521198,71.1587566305677 134.6362809784749,71.07909387467949 134.54541564762457,71.04424141908505 134.17697540198475,70.89487375230473 134.0027131237158,70.81521099641654 133.62431503367344,70.61605410665894 133.58074946393927,70.59613841770543 133.44382910238394,70.53639135077074 133.27827993795796,70.47166536174605 133.1052623902486,70.39698152846718 133.01688652051743,70.35217122809922 132.91730807574993,70.30736092780546 132.52148375772487,70.10820403834462 132.13312782313156,69.92398391545053 131.6763117077606,69.70989025912618 131.2692848148476,69.52567013675144 130.8958656469694,69.32153432490385 130.52493594013623,69.09748282402856 130.1801455752029,68.8833891679268 129.8353552101212,68.68423227824339 129.48309646175613,68.50997000004863 129.13581663562945,68.3157920324552 128.76488692887045,68.10169837635344 128.68273471193726,68.05688807605968 128.47610943904468,67.92245717562353 128.4039150665882,67.8826257979391 128.0777956599746,67.69840567482244 128.0168038626287,67.66853214183733 127.96701464017076,67.63865860833289 127.90975703442945,67.60878507468006 127.74296313959225,67.52414339685025 127.6732582281066,67.48431201872067 127.4255568468216,67.34490219589777 127.33344678533746,67.30009189582658 126.94509085074417,67.12085069531925 126.57042695238059,66.93165165033517 126.17335790379595,66.75241044982783 125.72152071066336,66.53333787111673 125.39415657349015,66.35409667083198 125.08546339471087,66.1698765477153 124.74814141306092,65.95080396922678 124.64358404605503,65.88607798020209 124.52284518177443,65.81637306879064 124.0983920609529,65.54253234605095 123.88554313526234,65.41805929009155 123.5046555841008,65.19898671138044 123.14741791349735,64.96995628819259 123.10509707447116,64.9450616770749 122.90842964605531,64.84050431036579 122.54621305328769,64.68117879881196 122.19270957428883,64.5168743646488 122.08815220728293,64.47206406435502 121.65249651142507,64.26294933064003 121.4645421968522,64.18328657497439 121.13966752087238,64.03391890767475 120.9927893147661,63.9791507631268 120.59572026632983,63.81484632896364 120.20860906222194,63.69037327300425 120.06297558674946,63.64058405084307 119.78415594140041,63.55096345070069 119.39455527624753,63.37670117206078 119.00993353333301,63.182523204689936 118.62655652097808,62.96345062620141 118.31412915066839,62.76927265912733 117.98427555222763,62.565136847502316 117.41294422537403,62.291296124243274 117.05944074644935,62.11205492373594 116.75821595117601,61.912898034200914 116.4582358861655,61.68884653317725 116.16696893536891,61.474752876852904 115.8644994093134,61.25568029858695 115.55580623045992,61.03660772017262 115.26204981839575,60.832471908325026 114.9658039452124,60.61339932961392 114.6770264554608,60.39930567351215 114.38824896556083,60.19019093979714 114.07333213398357,59.96613943869928 113.7633942246447,59.771961471551016 113.58788721581614,59.67736194909607 113.49453242384661,59.657446260142564 113.455945776425,59.647488415591624 113.33645164270398,59.63753057111487 112.91075379132286,59.60765703746204 112.48879013169473,59.5479099709725 112.07305012479036,59.483183981502656 111.905011499171,59.4433526040408 111.8614459296594,59.42841583717729 111.81663562943982,59.41845799270054 111.72452556802988,59.41845799270054 111.68095999844408,59.41845799270054 111.34737220854711,59.48816290411199 111.09842609662833,59.49812074858874 110.97519777122854,59.47820505933847 110.76234884553797,59.45331044851755 110.80218022337078,59.50807859306549 110.62791794517602,59.657446260142564 99.9518639353907,68.7190847340604 98.87766146246116,71.86078466625284 96.73672489995964,73.2349672041929 95.9674814141306,73.73285942803047 92.66770070064716,75.85885922381685 97.31925880192378,79.632882280283 98.30384067456257,81.35558937476097 98.97101625443071,82.8343292798553 98.79177505392337,84.16868043959158 100.14479717220195,88.02236625202013 100.25184400025283,88.15181823029208 100.21823627521799,88.45055356444624 100.20827843074125,88.55013200951052 100.19085220283273,88.65468937629383 100.10621052478035,88.96836147723731 100.06637914687335,89.16253944460814 100.00787681057243,89.35173848959222 99.92821405483261,89.67038951314504 99.81867776558835,89.9840616141627 99.8087199211116,90.01891406968295 99.70416255410571,90.15334497019327 99.42534290883087,90.38735431524854 99.12536284382035,90.60144797135032 99.00088978786096,90.68608964984786 98.83907481518794,90.8006048612563 98.58390505047119,91.029635283999 98.39719546653211,91.28356031830455 98.27272241057271,91.56735888604034 98.18434654084155,91.85613637542097 98.1781228879694,91.93082020944176 98.090991748872,92.14491386554353 97.87440863150266,92.42871243327933 97.67276228077426,92.69757423392903 97.48605269683517,92.96643603457875 97.4599133550837,93.03116202404858 97.34913233535404,93.16559292448473 97.32174826296878,93.19048753537983 97.21968035715626,93.22533999097428 97.16117802078116,93.22533999097428 96.51018393818775,94.75884804069074 98.78057247888702,95.2617191866183 98.83409589302376,95.42104469817211 99.04072116584216,95.77952709963193 99.12038392158198,95.76956925515518 99.41538506420574,95.99859967789789 100.52692945392309,97.32299299315741 96.93837125061386,99.91203255718693 94.5173703122779,101.07710036089264 94.22983755293751,100.81321748262968 94.0667778497049,100.6439341265991 93.85268419338057,100.45473508109568 91.30347600748063,101.07212143902522 90.94125941449042,100.82815424897386 90.62136366067477,100.6140605928721 90.49440114374458,100.50950322608877 90.40727000442463,100.50452430377621 90.13093982026898,100.46967184795919 89.7400944244823,100.43481939214219 89.56458741565375,100.39498801468032 89.4301565152176,100.35017771431237 89.08910034181469,100.19085220283273 88.7380863240092,100.02654776866957 88.37586973116737,99.8722011795025 88.31363320318768,99.83734872390806 88.05597397742594,99.6979389008626 87.86179601005509,99.61827614519696 87.50206887833245,99.43405602230287 87.15354432172035,99.27970943291322 86.80875395663864,99.1004682324059 86.62951275613132,99.18510991038409 86.51499754464868,99.24983589970554 86.28223293000461,99.42409817782612 86.25609358825314,99.45397171155314 86.06067089032271,99.7327913566796 85.98598705682126,99.81245411234522 85.91877160660319,99.85228549047481 85.92623998988657,100.14604190276154 85.36113231583093,101.5749925847302 82.7123456850151,106.8825236909128 78.40184375714139,108.7346827639595 78.36201237930858,108.74464060843626 78.32093627084198,108.74961953030368 78.27737070118201,108.75459845269043 78.24127351495379,108.76953521925718 78.20642105935934,108.78447198589811 78.14293980074586,108.82430336410188 77.88279111379074,109.08320732049741 77.62015296579062,109.33215343241619 77.37494104547642,109.58109954433498 77.13844223922777,109.83004565625376 76.88700666611561,110.09392853496186 76.7861834908627,110.18852805726841 76.67540247098465,110.19848590174517 76.59573971517064,110.18852805726841 76.52603480390758,110.19848590174517 76.46628773697287,110.20346482413193 76.13269994707589,110.29308542449688 75.64974448995346,110.44245309157395 75.57008173406525,110.47232662478163 75.51904778112191,110.49224231373513 75.34603023333835,110.61173644782711 75.30121993319298,110.66650459237505 75.25889909416678,110.72625165930975 75.20910987185722,110.82085118154212 75.20288621898506,110.99511345995946 75.22031244689356,111.30878556090293 75.27881478312028,111.61747873975641 75.30619885543135,111.75688856228255 75.32113562214649,111.83157239608076 75.36221173061308,111.99587682972458 75.32735927494446,112.21992833082244 75.20910987185722,112.4041484531972 74.99501621553287,112.67798917645624 74.94647172370871,112.72777839913675 74.92655603475521,112.75765193212186 74.83071178174067,112.8223779215917 74.79959351775082,112.8422936106194 74.724909684101,112.86718822144032 74.68756776731318,112.87714606591706 74.64649165884659,112.88212498808124 74.25564626320829,112.95182989971528 74.00545542072992,112.99664019978647 73.91956901204374,113.01157696664997 73.83492733406554,113.02651373299415 73.76522242265409,113.04642942217022 74.16727039347712,117.01960936839397 75.17799160786737,120.52974954637459 76.82228067709092,121.0774309926701 76.86584624660252,121.09236775923685 79.993854142862,122.13296250720573 81.47134931709998,124.31373044761426 81.81862914322667,124.99584279427172 82.41734454246553,125.66799729630405 82.49202837596698,125.67297621891338 82.78080586586695,125.8173649636037 82.86046862160677,125.84723849681139 83.01481521107061,125.8970277194919 83.38450018719581,126.05635323104573 83.75542989402898,126.15095275372325 84.15000948142026,126.22065766468955 84.00437600594776,126.36006748751245 83.22641940620157,128.55079327232355 83.60730695736312,128.82961291796934 84.45870266012535,129.44202035328954 84.5296523020964,131.0103808580811 84.96032907571589,131.11991714762212 85.16944380965347,131.1746852919475 84.82589817520555,134.77942499267982 79.10262706219277,135.3121696723344 78.21264471215731,135.25242260517712 77.62637661858858,135.2125912274927 77.49816937087623,135.20263338294177 77.10607924460415,135.56609470634316 77.11105816684251,135.96440848533905 77.28034152294728,136.33284873112723 76.27459923079542,137.42821162364405 74.55562632807042,136.55192130931897 72.8030457001622,137.22407581179647 67.86768903129817,139.11606626252757 67.66853214183733,139.19075009580644 67.26897363220769,138.88703583933972 67.17810830128315,138.87707799486296 67.11587177330345,138.88703583933972 67.06234835938929,138.90695152807064 67.0026012923804,138.92686721724672 66.63913996897898,139.0762348843238 61.65648353899876,139.2156447071467 61.20838053747077,135.14786523817125 61.29053275440396,134.40102690241488 61.27061706545046,133.91309252305408 61.268127604405464,133.73883024493352 61.15610185396782,132.7231301083049 61.12249412893298,132.5687835186185 61.050299756476534,132.46920507399935 60.65198597748067,132.40447908497467 60.220064473227396,132.3546898625167 60.18396728699917,132.34473201803996 59.81801650240437,132.20034327334963 59.44086314284742,132.07089129478092 59.05250720825412,131.9414393169541 58.67659857925676,131.83190302756145 58.299445219699805,131.71738781607883 57.9322497046196,131.5580623045992 57.814000301532374,131.4584838596833 57.56131999786062,131.33401080372388 57.22773220796364,131.16472744747074 56.89912334015666,130.97552840248665 56.6041221975329,130.77139259063907 56.33028147449644,130.53240432319703 56.045238176349436,130.30337390023175 55.750237033725675,130.08928024412998 55.43780966326761,129.90506012153267 55.06065630371065,129.74573460975625 54.74200528038042,129.5963669424566 54.672300369043164,129.60134586476917 54.56649827155187,129.57645125372568 54.440780484958694,129.5615144866396 54.33871257914619,129.5615144866396 53.91674891936966,129.5615144866396 53.81468101355715,129.55155664238544 53.73501825766895,129.5117252646268 53.36782274258875,129.34742083053783 53.28815998677474,129.33248406367431 53.23090238103342,129.31754729733015 53.01058507205949,129.29763160807988 52.8861120161001,129.26277915270802 52.542566381577984,129.11341148548254 52.28615188637583,128.95906489579616 52.16043409985685,128.94412812945197 52.016045354943955,128.93417028467846 51.81315427373015,128.9242124402017 51.764609781831794,128.91425459572497 51.54802666453665,128.79973938424232 51.15718126874997,128.6304560284343 50.81239090381665,128.46615159456792 50.65679958386741,128.27695254958383 50.58958413364934,128.25205793824358 50.41781131642538,128.22218440473912 50.1078734070865,128.17737410444536 49.739433161446705,128.11762703780744 49.322448423908554,128.06783781512692 48.927868836517284,128.05290104848598 48.53204451856642,128.03796428214181 48.24326702874063,128.01804859311412 48.13622020068975,128.01306967080154 47.74164061329848,128.00809074863736 47.480247195709566,127.97821721498453 47.34332683422843,127.9583015262536 47.26739827001901,127.93838583700334 46.91140533004935,127.84876523686096 46.53923089273077,127.73425002537832 46.13220399966937,127.5799034357661 45.88699207942937,127.52015636927655 45.73264549003972,127.48032499114697 45.33184224985049,127.39070439100459 44.93477320134003,127.29610486825288 44.53023576947201,127.20648426788793 44.130677259842365,127.07703229006111 43.73111875021272,126.99736953417292 43.693776833424906,126.99239061178616 43.44234126046113,126.97247492305523 43.33404970177646,126.96251707857847 43.12493496769049,126.97247492305523 42.864786280735366,127.0471587563341 42.578498252028766,127.1417582790858 42.44157789054763,127.18158965677024 42.3258179484312,127.21644211236467 42.22872896485707,127.25129456818169 42.071892914274045,127.30108379063964 41.88891752201374,127.36580977966433 41.501806317980034,127.4504514579393 41.117184575065515,127.53011421382749 41.068640083241355,127.53509313569491 40.908069841053745,127.55500882464841 40.49481929526856,127.63467158075919 40.393996120089845,127.6595661916543 40.293172944614355,127.68943972508455 39.8550277876373,127.76910248119533 39.404435325064306,127.76412355888276 38.98371639592156,127.70437649172548 38.672533756023086,127.62969265844661 38.274219976953034,127.54007205830425 37.8721720062784,127.43551469107578 37.467634574410376,127.3259784019799 37.37427978244083,127.30606271272963 37.20499642626187,127.27618917929938 37.09297067589842,127.28614702377612 37.056873489670195,127.29610486825288 36.97223181161781,127.3259784019799 36.76685126935901,127.41062007973552 36.63615456052745,127.50521960248723 36.59632318269464,127.55998774703517 36.684699052425806,127.73425002537832 36.89879270860177,128.00809074863736 37.09421540653221,128.24210009376682 37.1564519345119,128.33172069413177 37.02575522568035,128.38648883867972 36.598812643739635,128.48606728329884 36.19054102019284,128.57568788344122 36.13203868389192,128.5956035726173 35.81214293007629,128.6553506393294 35.513407595847944,128.6852241727597 35.437479031638524,128.6951820175332 35.237077411618095,128.7200766285767 34.83751890198845,128.78978153976556 34.41431051165233,128.84952860670026 34.36576601990236,128.84952860670026 34.037157152095375,128.8843810625173 33.81808457360685,128.9042967512482 33.52806235322147,128.92919136258845 33.3762052250252,128.93417028467846 33.32392654152226,128.9242124402017 33.195719293809894,128.91923351811172 33.047596357218225,128.91425459572497 32.259681912995276,129.05864334063784 30.716216019247216,128.98893842952316 31.251450159724214,128.78480261789815 32.156369276623174,128.3466574606985 32.10906951528442,127.60479804710636 31.540227649624192,125.67297621891338 31.229045009725716,125.65306052988569 30.368936192972136,125.38419872879084 30.086382355944316,124.96596926061889 30.195918645262772,124.652297159898 30.118745350567952,124.48799272595741 29.852373010740664,124.49795057043416 29.68806857694846,124.19423631374487 29.500114262375586,124.07474218017224 28.673613170805233,123.68140732356314 26.924766734649985,122.85490623191859 26.546368644607632,122.67566503141126 26.029805462227777,122.70055964223218 25.916534981304732,122.82503269819156 25.714888630724708,122.77524347603038 25.601618149801663,122.80511700923806 25.419887488100954,123.2382832442735 25.411174374109603,123.51212396730998 26.679554814409986,124.37845643663896 26.535166069497095,124.49795057043416 25.915290250745137,124.10959463598924 25.585436652526944,124.2091730803858 25.286701318150214,125.07550554993735 25.50452916607915,125.16512615059906 26.379574749547857,125.29457812842588 26.487866308232526,125.33938842849706 26.443056008012952,125.49871394027348 26.279996304780344,125.49871394027348 25.245625209683613,125.30951489528938 24.91577161139123,126.15095275372325 25.050202511827372,126.27044688737007 26.348456485558007,126.91272785589796 26.465461158085642,127.01230630096224 26.465461158085642,127.06209552319761 26.319827682613155,127.22142103497401 26.212780854562272,127.26125241288102 25.657631024983388,127.03720091185734 25.284211857105216,126.93264354485146 24.848556161247352,126.86791755582676 23.42458440099773,126.9226857003747 23.219203858664734,127.0670744452876 23.000131280176205,127.3259784019799 22.842050499181973,127.57492451389868 21.932152460044634,129.0287698072076 21.696898384355578,129.27771591912636 21.313521371926463,129.82539736564448 20.892802442857914,130.65687737915644 20.62643010303063,130.94565486927897 20.371260338313878,131.6427039823548 20.262968779629208,131.68751428242598 20.15592195157832,131.68253536055857 19.787481705938525,131.53316769325892 19.631890385989287,131.35392649275158 19.69039272221601,131.01535978069043 20.53183058050149,130.3183106668727 21.008562384825957,129.79552383191745 21.82510563199375,128.42134129427416 22.74620624601905,127.21644211236467 22.759898282248773,126.92766462276147 22.90428702716167,126.70859204405036 23.15074367788707,126.13103706454717 23.610049254451415,124.60250793721747 23.60880452381763,124.31373044761426 23.545323265278338,123.9751637355531 22.981460321856492,120.94300009245654 22.678990795800978,120.02687840044705 22.416352647800856,119.41447096512684 22.322997855831314,119.0360728748619 22.186077494201793,118.92155766360185 21.014786037623924,117.94070998234508 20.768329386898525,117.67682710400794 20.615227527994282,117.43285991425334 20.580375072399843,117.37809176970539 20.29906596585743,116.78560002311612 20.179571832136414,115.89437294266946 19.981659673160983,115.0977453842326 19.216150379084922,113.4547010458654 19.216150379084922,113.10119756701492 18.959735883734385,113.10119756701492 18.490472462841677,113.10119756701492 18.490472462841677,112.78254654368469 18.402096593110507,112.73773624339093 18.128255869999848,112.73773624339093 18.128255869999848,112.59334749870061 18.128255869999848,112.3742749199895 17.719984246378853,112.3742749199895 17.405067414801596,112.3742749199895 17.391375378720255,112.20001264179474 17.378928073050126,112.01081359636551 16.67938949855835,112.01081359636551 16.67938949855835,111.65233119557342 16.315928175156927,111.65233119557342 16.315928175156927,111.288869872172 15.953711582315101,111.288869872172 15.953711582315101,109.47654217710651 16.315928175156927,109.45164756598882 16.315928175156927,105.4884254644644 15.953711582315101,105.4884254644644 15.953711582315101,104.39804149411175 15.953711582315101,104.03458017071033 15.432169477845255,104.03458017071033 15.228033666146045,104.01964340384683 15.228033666146045,103.67609776969567 15.033855698775204,103.67609776969567 14.864572342670433,103.67609776969567 14.864572342670433,103.46200411329714 14.864572342670433,102.22225247586742 13.121949559238963,102.22225247586742 13.053489378461299,102.22225247586742 13.053489378461299,102.10773726438478 12.902876980750436,101.858791152466 12.690028055059878,101.858791152466 12.690028055059878,101.58992935159371 12.690028055059878,101.32106755094401 12.690028055059878,101.13684742782733 12.49336062664404,101.13684742782733 12.327811462218051,101.13684742782733 12.270553856476733,100.66882873742003 12.23819086192729,100.4099247810245 11.96435013881663,100.4099247810245 11.96435013881663,99.62325506758373 11.96435013881663,98.96105840958299 11.735319715851352,98.96105840958299 11.602133545974803,98.96105840958299 11.602133545974803,98.57768139722808 11.602133545974803,97.8706744396755 10.878945090850744,97.8706744396755 10.878945090850744,96.05834674483258 11.238672222573383,96.05834674483258 11.238672222573383,95.69986434352116 11.602133545974803,95.69986434352116 11.602133545974803,95.50568637644707 11.602133545974803,94.7837426519568 11.602133545974803,94.60948037361366 11.96435013881663,94.60948037361366 11.96435013881663,93.88255772658825 12.327811462218051,93.88255772658825 12.327811462218051,91.34828630710666 11.96435013881663,91.34828630710666 11.96435013881663,90.62136366030383 11.602133545974803,90.62136366030383 11.602133545974803,90.25790233712497 11.238672222573383,90.25790233712497 11.238672222573383,89.53595861248631 11.101751861018053,89.53595861248631 10.878945090850744,89.53595861248631 10.878945090850744,89.22726543363284 10.878945090850744,88.80903596590605 10.515483767449323,88.75426782091296 10.515483767449323,88.44557464257882 10.153267174607496,88.44557464257882 10.153267174607496,88.28127020841566 10.153267174607496,88.0821133191774 9.997675854658258,88.0821133191774 9.789805851206076,88.0821133191774 9.789805851206076,87.80827259591835 9.789805851206076,87.36016959424198 9.427589258364248,87.34025390528848 9.427589258364248,86.99670827113732 9.130098654695496,86.93198228203845 9.062883204477426,86.6332469477359 8.882397273262118,86.6332469477359 8.700666611561408,86.6332469477359 8.700666611561408,86.40919544686062 8.63469589190293,86.31459592440567 8.342184210546746,86.26978562433449 8.342184210546746,85.88142968937022 8.342184210546746,85.54784189969583 8.133069476460777,85.54784189969583 7.978722887071133,85.54784189969583 7.978722887071133,85.3088536322538 7.978722887071133,85.1843805762944 7.616506294155115,85.1843805762944 7.616506294155115,84.82091925296717 7.2518002401941,84.82091925296717 7.22317143732344,84.09399660586757 6.888338916866871,84.09399660586757 6.888338916866871,83.56125192643556 6.888338916866871,83.37205288145148 6.526122324025044,83.37205288145148 6.526122324025044,82.97871802484238 6.526122324025044,82.64513023442606 6.162661000623624,82.64513023442606 6.162661000623624,82.46588903391874 6.162661000623624,81.9182075878458 5.8004444077817965,81.9182075878458 5.8004444077817965,81.19626386320715 5.440717275984966,81.19626386320715 5.440717275984966,80.8328025400283 5.074766491612741,80.8328025400283 5.074766491612741,80.46934121662687 4.71503935981591,80.41955199424312 4.71503935981591,80.10587989329964 4.490987859014815,80.10587989329964 4.351578036340298,80.10587989329964 4.351578036340298,79.91170192592881 4.351578036340298,79.74739749176564 4.214657674784968,79.74739749176564 3.9893614435726628,79.74739749176564 3.9893614435726628,79.51836706880036 3.923390723988377,79.43372539082218 3.625900120171242,79.38393616836423 3.625900120171242,79.09515867876101 3.263683527329415,79.0204748449628 3.227586341101192,78.65701352185815 2.9002222039279943,78.65701352185815 2.9002222039279943,78.29355219845672 2.5404950721311637,78.29355219845672 2.5380056110861675,77.93009087505531 2.1745442876847467,77.93009087505531 2.1745442876847467,77.57160847374388 1.8148171558879158,77.57160847374388 1.8148171558879158,77.06873732759375 1.8148171558879158,76.84468582701523 1.4513558324864952,76.84468582701523 1.4513558324864952,76.4812245036138 1.0891392396446684,76.4812245036138 1.0891392396446684,75.75928077919772 0.7256779162432476,75.75928077919772 0.653483543786801,74.49961345251774 0.6460151604292376,74.30543548514689 0.36346132340142073,74.30543548514689 0.36346132340142073,73.22003043732938 0,73.22003043732938 0,71.73631161029346 0,71.04424141908505 0.36346132340142073,71.04424141908505 0.36346132340142073,70.31731877257897 0.7256779162432476,70.31731877257897 0.7256779162432476,69.59537504786613 0.9484846864105568,69.59537504786613 1.0891392396446684,69.59537504786613 1.0891392396446684,69.2966397135636 1.0891392396446684,68.86845240113747 1.288296129253885,68.86845240113747 1.4513558324864952,68.86845240113747 1.4513558324864952,68.51992784452537 1.4513558324864952,67.78304735331997 1.8148171558879158,67.7432159751162 1.8148171558879158,67.05612470629455 2.1322234486585536,67.05612470629455 2.1745442876847467,66.32920205926914 2.5380056110861675,66.32920205926914 2.5380056110861675,66.18979223666881 2.5404950721311637,65.60725833507563 2.9002222039279943,65.60725833507563 2.9002222039279943,65.24379701145163 3.263683527329415,65.24379701145163 3.263683527329415,64.5168743646488 3.625900120171242,64.5168743646488 3.625900120171242,56.43608357198773 3.625900120171242,53.64290819588804 3.9893614435726628,53.64290819588804 3.9893614435726628,53.309320406213644 3.9893614435726628,51.46711917808885 4.351578036340298,51.46711917808885 4.351578036340298,50.740196531360205 4.548245464756135,50.740196531360205 4.71503935981591,50.740196531360205 4.71503935981591,50.21740969618238 4.71503935981591,49.654791483320125 4.909217327038368,49.654791483320125 5.074766491612741,49.654791483320125 5.074766491612741,49.17183602582673 5.074766491612741,48.56440751289329 5.286370686669513,48.56440751289329 5.440717275984966,48.56440751289329 5.440717275984966,48.121283433603665 5.440717275984966,47.842463788477204 5.8004444077817965,47.842463788477204 5.8004444077817965,47.09562545272086 5.8004444077817965,46.75207981805037 5.937364769262935,46.75207981805037 6.162661000623624,46.75207981805037 6.162661000623624,46.189461605410685 6.162661000623624,46.03013609363428 6.526122324025044,46.02515717124753 6.526122324025044,45.28329775787794 6.526122324025044,44.93975212320745 6.663042685506182,44.93975212320745 6.888338916866871,44.93975212320745 6.888338916866871,44.37215498840359 6.888338916866871,43.854347075389946 7.088740536887299,43.854347075389946 7.2518002401941,43.854347075389946 7.2518002401941,43.35147592946239 7.2518002401941,43.127424428809675 7.616506294155115,43.127424428809675 7.616506294155115,42.226239503441114 7.616506294155115,42.042019380547025 7.978722887071133,42.042019380547025 7.978722887071133,41.10100307764242 7.978722887071133,40.58817408723811 8.141782590303743,40.58817408723811 8.342184210546746,40.58817408723811 8.342184210546746,39.97576665169533 8.342184210546746,39.13930771579661 8.569969902878238,39.13930771579661 8.700666611561408,39.13930771579661 8.700666611561408,38.736015014413994 8.36334462991146,38.76090962575425 8.538851638888392,38.54183704733992 8.700666611561408,38.09871296805029 8.700666611561408,38.05390266775653 8.87617362053834,37.62073643294366 8.98197571802963,36.839045641370305 9.062883204477426,36.60005737392827 9.168685301968717,36.3262166508918 9.298137280166483,35.50469448163402 9.413897222282907,35.19600130278054 9.666577525806279,33.34882115263995 9.696451059236534,32.53227790547215 9.954110285146664,31.606198369208478 10.498057539689201,30.142395230903468 10.515483767449323,30.01792217494408 10.515483767449323,29.350746595075936 10.602614906695088,29.350746595075936 10.742024729369605,29.350746595075936 10.878945090850744,29.350746595075936 10.878945090850744,28.583992570588663 10.878945090850744,27.538418900233015 11.063165213744835,27.538418900233015 11.238672222573383,27.538418900233015 11.238672222573383,26.527697685916955 11.238672222573383,25.726091205390095 11.602133545974803,25.726091205390095 11.602133545974803,23.570217876396026 11.602133545974803,21.01105184579676 11.96435013881663,21.01105184579676 11.96435013881663,20.602780222101575 11.96435013881663,19.56218547435526 12.105004692050743,19.56218547435526 12.327811462218051,19.56218547435526 12.327811462218051,17.94901466919575 12.327811462218051,16.65947380930808 12.505807932314172,16.65947380930808 12.690028055059878,16.65947380930808 12.690028055059878,15.38486971628392 12.690028055059878,14.483684791360506 12.860556141724244,14.483684791360506 13.053489378461299,14.483684791360506 13.053489378461299,13.453047888090943 13.053489378461299,12.307895772893591 13.267583034785643,12.307895772893591 13.415705971303126,12.307895772893591 13.415705971303126,11.516247137066058 13.415705971303126,10.495568078273246 13.63228908882085,10.495568078273246 13.779167294704546,10.495568078273246 13.779167294704546,9.833371420791863 13.779167294704546,8.683240383430325 14.138894426501377,8.683240383430325 14.138894426501377,8.175390315116012 14.138894426501377,7.234374012211402 14.34676442995356,7.234374012211402 14.502355749902797,7.234374012211402 14.502355749902797,6.323231242588663 14.502355749902797,5.422046317665249 14.652968147613661,5.422046317665249 14.864572342670433,5.422046317665249 14.864572342670433,4.142463302254329 14.864572342670433,2.519334652395492 15.228033666146045,2.519334652395492 15.228033666146045,1.8670958393908599 15.228033666146045,0 16.812575668434896,0.921100614099491 18.3647546762485,1.409034993237727 23.53038649856321,3.2412783768115743 26.947171884648487,3.779001978852909 28.530469156451936,4.032927013084257 29.693047499186836,4.19723144680227 35.4212975343638,4.341620191492588 36.08473892262735,4.784744271004786 37.36930086020246,5.606266440039997Z"/></svg>