<svg xmlns="http://www.w3.org/2000/svg" width="256" height="256"><path d="M182.76957654400098,83.66389130130878 182.8039025387908,83.7031210093477 182.90524595197974,83.62466159288014 183.05399192940223,83.53966389130102 183.18966133728355,83.50697246808139 183.3792715942177,83.67042958612808 183.62936098482913,83.89273126628186 183.99387035817068,84.2065689329315 184.2586708893089,84.47463860691778 184.52510599182241,84.68386371762783 184.8471165143744,84.95847167623855 185.21489502997943,85.28538591233192 185.73632323645094,85.76268069702824 186.0975634673341,86.0830566482049 186.36399856984764,86.34458803698217 186.4081319916228,86.3903560302301 186.9835010472446,86.87418909984315 187.33166470868403,87.19456505072752 187.63242580588994,87.43648158553404 187.81549777810224,87.6260918424682 187.90866833529142,87.76993410683643 188.1113551616693,87.9595443634783 188.50038310262042,88.34530316226333 188.87306533176687,88.70490882186863 189.26045870163495,89.10374418980511 189.35689840118508,89.20835674545242 189.482760382081,89.31296930109973 189.6478520714056,89.45681156449368 189.750830055775,89.52219441210207 189.86198089594933,89.6071921133889 190.01889972927415,89.70526638441179 190.3082188283142,89.89487664144336 190.69397762680697,90.22179087753673 191.00618072227613,90.52909025926965 191.49001379169434,90.95407876580133 192.44623793236488,91.5490626755887 192.90064872043726,91.83020891901872 193.3027532308321,92.06558716861623 193.35015579506563,92.11135516186417 193.73918373601674,92.37942483526588 194.08571282627574,92.59518823147721 194.28022679694615,92.71941564080298 194.86049956581704,93.01363845377416 195.97527711099286,93.66746692596091 196.37901619247074,93.90284517585071 196.78602441650443,94.15783828010098 197.06553608836427,94.268989119983 197.55427287132386,94.54359707859372 197.68667313684426,94.6089799258124 197.92858967165077,94.74628390467933 198.9224089492772,95.30857639066251 199.28691832252133,95.52433978687385 199.4160494457782,95.58318434927322 200.09112734331103,95.94279000917079 200.73351381723452,96.26970424526418 201.39551514542103,96.70776932123958 201.7796393727333,96.94968585604612 202.17357102732325,97.19814067537965 202.2749144405122,97.27006180722276 202.37952699596465,97.32890636962215 202.48413955151455,97.40736578638197 202.83393778423186,97.62312918220361 203.73295193348866,98.13965367562085 203.78198906880522,98.1592685295916 203.84573734484343,98.21157480746396 204.38514583449495,98.63002502976092 204.8101343413189,98.95040098064528 204.94090003575624,99.0615518215016 205.11743372324668,99.23154722378301 205.15175971803646,99.27077693250392 205.71078306175613,99.78730142553147 205.7467436277264,99.8330694184871 206.06058129447348,100.03575624457271 206.33845839505543,100.23844307095061 206.50028094192163,100.34305562689019 206.7748889002401,100.55881902251697 206.88767431169228,100.65035500872054 207.46631250957756,101.11457322387571 208.60560862236298,102.0430096540886 209.29212851815907,102.59876385583705 209.40818307197222,102.69683812627535 209.7841344434796,103.03029064757774 210.1437401031823,103.35720488367112 210.42161720405653,103.54681514060528 211.00352454410788,103.97834193205367 211.2111150841246,104.1221841957399 211.37784134443478,104.24641160574767 211.77831128364917,104.5275578488854 212.08070695203554,104.730244674971 212.3389691985493,104.86754865413022 213.05164223323288,105.73714052243088 213.2772130561373,105.99867191130558 213.63028043111814,106.39096899461764 214.04055779741535,106.7374980844869 214.33968432344076,106.99902947355645 214.76467283045957,107.33248199427427 214.87255452827299,107.42401798047784 215.2811973233897,107.7770853551664 215.8582009500945,108.21515043211609 217.10864790324908,109.3855033970381 217.92593349348252,110.12432957051169 218.7595647954232,110.93507687621812 219.4951218266333,111.76543903589528 219.52617867915959,111.88312816098633 220.71451192726158,113.02732798731314 221.47622209735914,113.77923072993819 222.18562598968177,114.46575062563686 222.5043673698728,114.76651172313504 222.8247433212443,115.08034939007696 223.42136180221215,115.66225673003089 223.81038974316328,116.04147724370435 224.90391786279818,117.07452622975941 225.59697604331615,117.69566327882396 225.99254226898913,118.12065178535563 226.38157020994024,118.50641058384839 226.86213413709493,118.92486080614535 227.9981611075194,119.88598866006501 229.37610461255554,121.20672217417453 232.52428870613474,124.28625427788184 232.4817898554426,124.3777902640854 232.46544414373537,124.48240281973271 232.4687132859989,124.56740052101956 232.50630842324705,124.71124278538778 232.58313326872897,124.83547019471357 233.11436890238073,125.39122439616972 234.20462787984954,126.50273279869235 235.37498084496642,127.67962404882334 236.74148235173928,129.03304898644478 237.2089697093528,129.4776523473369 237.48521223894915,129.71956888204602 237.82847218674976,129.94840884711653 238.10961842979006,130.15763395811885 238.48720437257535,130.42570363181284 238.78796546978123,130.615313888747 238.99392143842263,130.7199264443943 239.16228227010816,130.83107728495833 239.39602594881748,131.0533789654044 239.94197272309341,131.71374572241044 240.1462941206518,131.93604740256424 240.75272002860498,132.41988047217728 241.26107166573019,132.83179240955752 241.76615416049447,133.3025489096294 242.2238340910252,133.7994585483939 243.05419625070235,134.74097154863512 243.044388823717,134.81289268047823 242.57199775246463,135.048270930368 241.4882770598151,135.62363998579494 241.0779996935179,135.83286509679726 240.70695203564935,136.02901363864814 239.97466414670276,136.30362159716142 239.42217908770496,136.49977013842775 239.5823670633907,136.78091638185776 239.6265004852633,136.86591408324205 239.1933391224396,136.94437349990446 238.50191551319955,137.08167747877138 238.24365326658835,137.14052204117075 238.16846299248172,137.16667518005823 238.01644787260088,137.21898145822288 237.54569137252898,137.44128313866895 237.3871379680237,137.5262808396635 237.2759871278494,137.565510548287 237.29723655309803,137.62435511107608 237.4361751034377,137.81396536771797 237.51626909128058,137.89242478438038 237.77453133779434,138.17357102761554 238.03442815548857,138.50048526370892 238.12759871297004,138.62471267303468 238.35643867804055,138.82739949980228 238.62777749399805,139.04316289533162 238.9922868673396,139.34392399282982 239.1835316953568,139.54661081891544 239.33718138632068,139.69045308289395 239.52842621453274,139.8669867704818 239.71967104264735,140.04352045797222 239.84062930990447,140.1742861522147 240.0416815651019,140.31812841590093 240.1086989835985,140.35735812462187 240.14465954947133,140.39658783266077 240.36369208765387,140.5535066663753 240.5908974818362,140.7365786381979 240.73637431680032,140.85426776328893 240.8115645911018,140.89349747200984 241.1074219747663,141.06349287429126 241.4474127803034,141.3119476939171 241.7449047351484,141.50809623547568 241.66317617612503,141.58655565223552 241.57981304601867,141.63232364548344 241.52914133932677,141.70424477703426 241.52914133932677,141.76962762464265 241.5618327629361,141.83501047156906 241.661541605042,141.92000817285592 242.04730040353476,142.28615211767018 242.39382949379373,142.63268120773432 242.776319150023,142.97267201336885 243.23726822291465,143.39766051990054 243.69985186698676,143.80303417304603 243.95974868468102,144.0318741380191 243.72927414823516,144.48955406903696 243.50370332533075,144.96684885363587 243.3157276396745,145.3787607911135 243.28467078714817,145.60760075637887 243.25688307708026,145.99335955457934 243.240537365373,146.4248863466123 243.2241916534709,146.79756857536904 243.16044337753013,147.22909536710975 243.0966951013945,147.5167798951642 243.04602339480002,147.74561986042954 242.94958369534734,148.0529192422599 242.83189457025628,148.3144506307449 242.727282014609,148.54329059639997 242.57526689482557,148.81789855432868 242.3970986362521,149.1251979367436 242.10451039494853,149.5959544365232 241.67952188792972,150.23670633926622 240.91781171792957,151.45936558225543 240.8606017265158,151.64897583928703 240.89165857904212,151.77974153352952 241.06982683781044,151.9758900753804 241.221841957399,152.19165347090973 241.51279562752208,152.68856310996654 241.61904275434986,152.9500944987438 241.7449047351484,153.29008530457318 241.86586300260038,153.66276753332994 241.90345813965368,153.86545436009754 242.15518210144558,154.7546610821741 242.23200694702496,155.14041988066683 242.30392807886807,155.5784849572268 242.34479235837972,155.8073249222973 242.39873320733514,156.12770087347397 242.4657506258317,156.64422536689122 242.55728661184042,157.1084435817541 243.70148643816725,156.91883332481993 243.73417786177657,156.98421617242832 244.947029677683,159.03723757519217 244.95193339141926,159.128773561006 245.80354497624765,159.27261582508194 245.79210297798437,159.3183838180376 245.8198906880523,159.71068090105737 245.88363896418795,160.35143280380038 245.97517495019665,161.27986923459784 246.08142207702443,162.23445880389306 246.10430607345353,162.95367012310365 246.2007457731011,163.88210655380368 246.30208918629003,164.84323440811306 245.34749961689738,164.86938754670825 244.82280226796752,164.97400010206326 244.44031261183568,165.17014864420645 244.008785820095,165.37937375520877 243.6344690197681,165.53629258833874 243.30918935495262,165.60821372018185 242.9348725546257,165.60167543565484 242.5981508913521,165.52975430381173 241.98028298523306,165.2943760535322 241.6451958931399,165.17668692873346 241.16463196618008,165.03938294967165 240.79685345057504,164.92823210910763 240.31628952342035,164.73862185246574 239.79649588803187,164.53593502599043 238.91873116412117,164.20248250507777 238.57383664504266,164.05864024139154 238.18153956182803,163.9082596927886 237.7630893395311,163.75787914418564 237.5996322214844,163.76441742900494 237.4525208153398,163.79057056798982 237.24493027532307,163.816723706585 237.0095520254333,163.86249169983293 236.79869234315305,163.90172140787186 236.54206466772231,163.90172140787186 236.41293354446543,163.90172140787186 236.14976758441028,163.88210655380368 235.91765847678397,163.85595341462394 235.54987996117893,163.79710885222454 235.3815191296883,163.77749399854608 235.24911886397302,163.76441742900494 235.1412371660622,163.76441742900494 235.03172089697094,163.77749399854608 234.90912805843593,163.78403228278083 234.7374980844869,163.80364713714127 234.5364458293869,163.816723706585 234.34520100127227,163.80364713714127 234.29452929458037,163.79710885222454 234.14905245961626,163.79710885222454 234.0133830516375,163.79057056798982 233.84502221995197,163.81018542166828 233.70935281197325,163.82326199111202 233.51974255503907,163.86902998435994 233.36282372171425,163.9213362622323 233.2467691679011,163.96710425518796 233.0947540481177,164.0194105326706 232.94437349961217,164.05864024139154 232.76620524094128,164.0913316650983 232.57496041282664,164.1174848040832 232.30689073913265,164.13056137323466 231.85901823568474,164.16979108127356 231.5206620014255,164.2155590745215 231.37681973754442,164.26132706747714 231.0858660673239,164.31363334525207 230.82270010726873,164.3201716298765 230.70501098227513,164.30709506072506 230.58078357265705,164.27440363692088 230.4402104510395,164.22863564396522 230.1999284877057,164.0913316650983 230.02176022893738,164.03248710240663 229.8615722531542,164.0063339632269 229.7389794146192,163.99979567899214 229.60167543545998,164.0063339632269 229.44639117331562,164.01287224843588 229.18812892680185,163.97364253971497 229.03284466475495,163.9213362622323 228.87265668897174,163.85595341462394 228.72554528272974,163.80364713714127 228.7026612862032,163.8494151303892 228.52776216989324,164.53593502599043 228.35776676712467,165.22899320660582 228.13383051549815,166.19012106052548 228.00633396342172,166.64126270662663 228.4999744598253,166.8635643870727 228.14690708484446,167.28855289360436 228.02921795985085,167.4781631508308 227.9981611075194,167.5370077136199 228.03902538703107,167.62854369943375 228.13383051549815,167.6743116926817 228.4264187567043,167.75930939406595 228.48689789038158,167.79200081748044 228.51795474281045,167.8508453801721 228.54737702405885,167.91622822690366 228.56699187822446,168.0143024982188 228.50978188700554,169.053889768606 228.46728303621597,169.79271594246933 228.42968789906524,170.61000153270277 228.40190018919216,171.0938346019261 228.38882361955356,171.47305511618413 228.43786075496757,171.68228022718645 228.49343617510343,171.89150533809138 228.59968330183378,172.07457731020622 228.77785156050467,172.27072585176484 228.92169382438576,172.3688001227877 229.11784236604177,172.4995658174199 229.2371660623133,172.6041783730672 229.46600602748123,172.82648005351328 229.65888542677632,173.04224344904262 229.82234254482302,173.2383919908935 230.01195280175716,173.5064616645875 230.16887163508198,173.73530162985287 230.40098074270827,174.0491392965025 230.58405271492057,174.36297696285985 230.70010726873372,174.60489349766638 230.94202380354025,175.20641569227305 231.00904122193938,175.40910251845608 231.03355978954897,175.454870511704 231.13980691647416,175.66409562270636 231.28691832252133,176.01062471306275 231.38008887980794,176.2525412472847 231.59421770454654,176.8671400117248 231.67594626356987,177.14174796965355 231.76257853603718,177.48827706010738 231.80834652909027,177.66481074730552 231.85084537978238,177.8282678653522 231.84430709506054,177.8871124277516 231.94074679470808,178.2336415184977 231.9946876436635,178.44940491402704 232.13199162292014,179.05746539296587 232.25131531899677,179.52168360821847 232.41640700822393,180.19512693505794 232.49977013852518,180.53511774059507 232.5455381314808,180.7704959901926 232.72043724779078,181.58124329609385 232.84956837104767,181.65970271226914 232.96398835377778,181.9212341017284 233.10619604647837,182.18930377503267 233.2876334474128,182.30699290022116 233.75675537620677,182.41160545586845 234.31087500638503,182.55544771955468 234.92220462787967,182.70582826815763 235.69208765387955,182.88890024046736 235.90785104970118,182.94774480257445 236.0075598918071,182.96735965664263 235.98794503764148,183.03928078907032 235.96833018347587,183.1700464833128 235.86044848546763,183.25504418469708 235.77708535536127,183.3269653165402 235.67083822853348,183.44465444133894 235.64631966092392,183.5427287126541 235.644685089646,183.65387955263355 235.67083822853348,183.79118353208506 235.72804821994725,183.95464065013175 235.790161924805,184.09848291352571 235.82121877713644,184.26194003157238 235.89150533799395,184.51693313611494 235.9454461868519,185.37998671930401 235.9895796087245,186.1188128927776 236.03371303059714,186.43265055942726 236.0941921642744,186.8576390662512 236.22495785880918,187.4264698371511 236.3655309802319,188.01491546202175 236.37206926495378,188.19798743413662 236.42601011390917,188.3941359759875 236.55023752362467,188.6098993721014 236.63850436736988,188.74066506644132 236.83628748020635,189.08719415679775 236.92128518168806,189.25718955946886 237.00628288297492,189.44679981611074 237.1157991520662,189.72140777472146 237.19262399764557,189.98947744841544 237.31685140736104,190.32292996874355 237.40838739336976,190.5386933649549 237.48030852540774,190.7479184762495 237.50319252183684,190.86560760104828 237.52607651846083,191.0159881495538 237.51953823373896,191.19252183714164 237.50319252183684,191.3494406702716 237.46559738478354,191.47366808027937 237.42309853399397,191.64366348256078 237.4018491086479,191.787505746929 237.3838688257602,191.9509628649757 237.37569596976044,192.10788169781338 237.38550339684323,192.2190325386697 237.36098482913624,192.42171936475532 237.31194769372223,192.63094447604993 237.28089084139077,192.7224804622535 237.1860857129237,193.01016498991825 237.10762629616386,193.35015579545535 237.04878173366706,193.6313020383008 237.00301374071142,193.97783112846236 236.99320631353118,194.1674413856888 236.93109260867345,194.3635899269551 236.8885937579813,194.5335853299185 236.7709046330851,194.664351024161 236.62215865566264,194.8081932884318 236.3606272666905,195.00434182969812 236.08275016610855,195.22010522590946 235.8669867701895,195.42279205199506 235.65122337436787,195.61240230892923 235.4681514021556,195.79547428133637 235.28671400122118,196.0046993923387 235.10037288655053,196.2400776422285 234.52336925994317,196.84159983654288 234.436736987281,196.9135209687757 234.34520100127227,196.99198038514584 234.284721867595,197.02467180865776 234.16866731378187,197.09005465626612 234.08203504131453,197.12274608007033 233.9790570568477,197.16851407263627 233.71916023915347,197.28620319811702 233.46580170608368,197.39735403799904 233.2582111661644,197.49542830872963 233.07840833641046,197.6196557184451 232.93783521498773,197.79618940593554 232.72043724779078,198.07733564936555 232.54226898921732,198.3846350311959 232.96398835377778,198.7507789753282 233.26638402206672,199.16269091270843 232.59457526689482,199.3588394545593 231.77892424793927,199.7642131074125 231.68575369055523,199.81651938489517 231.64162026878006,199.8622873781431 231.2689380396336,200.431118149043 230.97471522714957,200.699187822737 230.48434387300952,201.1830208922526 230.42713388159575,201.25494202380344 229.11130408131993,202.09838075331407 227.89845226541348,202.90258977410377 226.94876640965967,203.50411196812587 226.11023139398273,204.0598661698743 225.48909434540533,204.4652398226301 225.4155386422843,204.51754610021018 223.85288859375797,205.0733003015689 222.39975481442036,205.58982479469387 221.46804924155424,205.91020074587053 221.47622209735914,206.28942126012856 221.5268938039536,206.65556520396856 221.4778566685396,206.88440516962365 221.40757010777955,207.0740154265578 221.38141696889207,207.28977882208713 221.36670582826787,207.51861878744992 221.36180211472646,207.6428461974577 221.37814782662855,207.8455330235433 221.37651325535066,208.1136026972373 221.33891811829736,208.55166777379728 220.8371047657966,208.64320375941628 219.84328548807275,208.819737447199 219.85799662869695,209.00280941931385 219.80732492210248,209.2251110997599 219.75011493088354,209.43433621076227 219.6732900853042,209.66971446094433 219.60790723818295,209.89855442630713 219.53925524860333,210.07508811379756 219.41339326760996,210.18623895426416 219.26137814792395,210.31700464860407 219.08811360269704,210.52622975989868 218.89850334586032,210.7289165859843 218.83965878346095,210.8400674264509 218.79879450394927,210.9316034120699 218.76937222260344,211.04275425263396 218.73504622781363,211.160443377725 218.70725851764826,211.49389589863765 218.38688256627674,211.57889360002193 218.18419573999628,211.60504673861712 217.96843234407723,211.61812330806086 217.54344383725328,211.59850845399268 217.59901925738916,212.09541809275717 217.6398835369008,213.11539050966078 217.61046125555498,213.15462021808943 217.69055524339785,213.2069264952798 217.43883128160596,213.86075496746656 217.27700873473975,214.27266690543135 217.165857894468,214.63881084966107 217.05961076783507,214.93957194715927 216.66894825560607,214.84803596095568 216.53491341880778,215.16187362760533 216.48587628339376,215.37109873851023 216.53981713234919,215.60647698878975 216.55289370179293,215.71108954414476 216.5643357001536,215.8222403840268 216.574143127139,216.11646319660827 216.54798998825152,216.20799918281185 216.54308627480754,216.39760944003828 216.55779741543174,216.58068141186087 216.59212341031898,216.75721509935127 216.63625683199672,216.94682535628544 216.69837053685447,217.0972059048884 216.78009909587783,217.21489503027172 216.90269193441284,217.28027787700324 216.99422792051897,217.43065842589849 217.30152730244674,217.88833835623436 217.3783521479287,218.01910405106142 217.43065842570363,218.0779486131685 217.96352863053582,218.08448689808523 217.98150891371583,218.42447770333007 217.99948919660352,218.72523880082827 217.87199264452713,219.05869132144863 217.80824436839148,219.3463758492108 217.77882208714308,219.4902181134816 217.684016958676,219.63406037726526 217.56142412014097,219.79751749531195 217.42412014098176,219.9871277522461 217.26066302293506,220.21596771721917 217.17403075037032,220.36634826582213 217.03182305766973,220.57557337682448 216.96970935281198,220.60172651600422 216.8029830925018,221.0267150229256 216.4842417122133,220.9286407520976 216.2096337539923,220.89594932868312 215.92848751085458,220.8501813354352 215.83695152474843,221.13132757857292 215.7110895439499,221.51708637706568 215.66532155089683,221.64785207130817 215.54109414118136,221.98130459261054 215.2811973233897,222.48475251590207 215.1389896307865,222.8770495992141 214.95428308729632,223.4066506617828 214.85130510292691,223.71395004351572 214.78428768452775,223.85125402296723 214.6649639883537,224.22393625201624 214.60611942585686,224.41354650865813 214.56035143290123,224.48546764050124 214.46391173315627,224.609695050509 214.3821831741329,224.69469275179586 214.20074577319852,224.70123103671258 214.11084435827283,224.7143076061563 214.03075037042996,224.73392246041934 213.8002758338867,224.96276242519755 213.5583592991776,225.15891096734072 213.39817132349185,225.2831383766665 213.19058078357256,225.413904071591 213.03529652152562,225.51851662694602 212.87347397475685,225.6165908973843 212.71818971241763,225.71466516869947 212.60050058752145,225.79312458487473 212.49098431843018,225.8519691475664 212.3847371916024,225.8911988562873 212.27358635142807,225.93042856432623 212.22291464473616,226.07427082801246 212.1983960771266,226.17888338365978 212.1133983756449,226.34234050170645 211.99407467956823,226.51887418948917 211.90907697808652,226.6561781683561 211.81590642089733,226.8196352864028 211.75215814476172,226.94386269641055 211.70965929406958,227.0877049598045 211.6786024416407,227.19885580066082 211.67696787046023,227.37538948815123 211.67369872819674,227.5192317515452 211.69331358236232,228.01614139089426 211.6687950145579,228.1992133626194 211.66225672983603,228.25151964078404 211.7031210093477,228.41497675883073 211.74725443131774,228.62420186983306 211.72437043469378,228.9053481129708 211.72763957715213,229.10149665443197 211.75869642948356,229.4414874600665 211.84205955968739,229.89916739069466 211.8763855544772,229.9383970987336 211.60177759615877,230.0430096540886 211.74071614659587,230.58568728639332 211.83879041732646,230.8145272513664 212.0234969607192,231.01067579292499 212.26214435306738,231.20682433506815 212.44358175419663,231.16759462634724 212.6217500127701,231.4356643003335 212.82770598150893,231.6906574039992 212.8800122593813,231.80834652909027 212.89472339990806,231.93257393880575 212.88981968636665,232.0175716400926 212.88328140164478,232.2267967513872 212.78684170199725,232.80870409143856 212.7002094294325,233.2990754455786 212.6707871481841,233.49522398772177 212.58252030443887,234.03790161963678 212.54002145374673,234.48250498052892 212.4681003218062,234.84864892505092 212.38800633406075,234.86826377931396 212.42069775757267,235.077488890024 212.4141594728508,235.29979057076235 212.39454461878262,235.5220922515007 212.33243091382744,235.98631046646102 212.26214435306738,236.22168871635083 212.1624355110589,236.43745211256217 212.07089952495275,236.6532155083838 212.05455381324552,236.8297491958742 212.08234152331346,236.9866680291016 212.15426265515657,237.1174337233441 212.2866629208718,237.2874291263075 212.48281146252782,237.50973080704586 212.29647034785717,237.6601113556488 212.1836849365024,237.8235684736955 212.1133983756449,237.99356387597692 212.04801552852365,238.3270163972793 211.94340297287633,238.58200950113985 211.7570618583031,239.09199570934808 211.7031210093477,239.2292996885073 211.63283444868506,239.3273739592379 211.5233181795938,239.41237166091443 211.3206313533133,239.51044593135273 211.12938652510127,239.6412116258875 210.89564284619706,239.82428359829467 210.62920774378097,240.08581498736422 210.34479235847715,240.4061909386383 210.05874240189544,240.78541145221433 209.8184604382694,241.1450171118196 209.61413904071105,241.57000561922814 209.167901108541,241.5569290497844 209.0485774122695,241.59615875821305 209.09597997650303,241.8838432858778 209.77269244531377,242.14537467475247 209.93451499208254,242.23691066095606 210.0669152577978,242.3480615008381 210.16172038626488,242.47228891084586 210.21075752158146,242.6553608828633 210.2483526587322,242.81227971638296 210.32027379067273,242.94304541033318 210.4265209175005,243.0541962511895 210.52786433059202,243.23072993867993 210.5899780355472,243.453031619126 210.58507432210322,243.6557184452116 210.5098840477043,243.7995607091901 210.4592123410124,243.9303264038223 210.49190376462175,244.08724523665998 210.57690146610346,244.28339377880314 210.7191091588041,244.44031261164085 210.6586300251268,244.49915717462477 210.45103948511007,244.47954232036176 210.06364611533942,244.4599274660013 209.85932471778108,244.4664657508206 209.76451958931398,244.70838228533484 209.7269244523581,244.96337538958508 209.7269244523581,245.14644736199224 209.7301935945242,245.34913418807784 209.75634673341165,245.6695101399365 209.71875159635835,245.93757981324077 209.65336874904224,246.21218777126694 209.59779332890636,246.40179802820109 209.51933391224395,246.58487000060822 209.47029677682994,246.68948255625554 209.3738570771824,246.8398631048585 209.15809368136078,247.1406242023567 209.0632885528937,247.29100475086221 208.9995402768555,247.40869387566096 208.97011799570453,247.50676814648898 208.96357971098266,247.61138070213627 208.97829085150943,247.68330183368712 209.00934770403572,247.79445267454344 209.07636512233745,247.89906522980104 209.1335751137512,248.00367778515604 209.14992082545845,248.07559891738887 209.14665168319493,248.14098176431526 209.0878071206007,248.2521326048793 208.7134903202738,248.74250395901936 208.42253665015068,249.1609541813163 208.04004699392144,249.68401695887084 207.91908872656688,249.82785922294678 207.78505388986602,249.9978546252282 207.68044133421873,250.22015630625884 207.56765592286393,250.44245798641262 207.47775450793827,250.68437452121915 207.24401082903407,251.22051386831487 207.12305256177694,251.38397098636153 206.98411401133984,251.51473668089633 206.8533483169025,251.60627266680763 206.71440976666022,251.73050007710768 206.42182152535665,252.0051080350364 206.23874955314437,252.29933084761785 206.07202329263933,252.59355366029675 205.99356387607435,252.83547019500585 205.91346988813405,253.1623844310992 205.90529703232912,253.2146907086793 205.78597333605762,253.42391581997393 205.67482249578586,253.54814322929968 205.51953823364153,253.65929406986373 205.35117740205342,253.7508300560673 205.16974000111904,253.8292894727297 204.97522603054605,253.8815957503098 204.79705777187516,253.91428717411398 204.6041783726775,253.9208254583487 204.42274097154825,253.90121060467024 203.89313990907698,253.9862083059571 203.61526280849503,254.0188997297613 203.29325228584563,254.06466772271693 202.92710834142105,254.18889513204272 202.60182867660558,254.82964703478572 202.29126015221945,255.43116922948983 202.18174388312815,255.41155437512936 201.9774224855698,255.34617152781325 201.82540736588382,255.27425039597014 201.69791081370997,255.18271440976656 201.56060683464818,255.07156356988452 201.44945599437642,255.0257955766366 201.302344588037,254.96695101423722 201.08494662103487,254.9211830209893 200.6697655411963,254.8884915971851 200.50630842314962,254.8950298823941 200.22843132247024,254.90156816662883 199.99141850130255,254.90810645183785 199.7625785361346,254.90810645183785 199.59585227562957,254.8950298823941 199.4422025847631,254.87541502774135 199.3081677478674,254.84272360422946 199.16432548398632,254.80349389619053 199.0221177912857,254.80349389619053 198.8701026715997,254.81003218100983 198.7131838382749,254.8361853199947 198.53011186616,254.8884915971851 198.33396332430914,254.92772130580857 198.14925678091637,254.94079787534974 197.9956070899525,254.9211830209893 197.42677631934487,254.8623384585899 197.01486438167237,254.81657046534198 196.78765898758746,254.7969556115661 196.62093272727728,254.80349389619053 196.32017162997394,254.88195331295037 196.14527251376143,254.91464473636486 195.847780558819,254.90156816662883 195.64345916126067,254.87541502774135 195.4146191959953,254.84272360422946 195.15472237830107,254.85580017367317 195.0206875416002,254.84272360422946 194.55156561280623,254.75118761831817 194.48618276549013,254.73811104858214 194.4175307759105,254.94733615987676 194.31945650517991,254.97348929905652 193.64601317882756,255.09117842385527 193.35179036634352,255.20886754904373 193.22592838535016,255.28732696570614 193.04449098431834,255.43770751401684 192.77969045318014,255.745006896042 192.53450477611008,255.97384686111252 192.3399908055371,256 192.0637482760382,255.97384686111252 191.47039893752873,255.86923430546523 190.91301016498952,255.75154518066645 190.53542422230169,255.6665474793796 190.19216427450107,255.54232006937184 189.74265719987267,255.41155437512936 189.26372784389847,255.34617152781325 188.69653164427643,255.31348010469105 188.23231342921872,255.30040353514988 187.81876692036573,255.2350206879312 187.30551156979658,255.15656127087908 186.76283393778414,255.14348470143537 186.13679317566533,255.1957909792103 185.7101700976609,254.98002758338868 185.53200183889257,254.8884915971851 185.20181846043826,254.7577259029426 184.9876896357971,254.69888134054324 184.672217397967,254.67926648618277 184.3828982991218,254.6596516325043 183.6309955560096,254.56157736109174 183.48388414986502,254.54196250702356 183.52147928691832,254.39812024304504 182.67313684435345,254.31312254205048 181.81498697460833,254.23466312499835 181.15625478878275,254.17581856259898 179.74561986013728,254.07120600695166 179.09669510149192,254.03197629891275 178.57199775246463,254.06466772271693 177.96066813106745,254.03851458343976 177.73182816570466,254.06466772271693 177.53731419532653,254.05159115288347 177.0044439903969,254.03197629891275 176.6137814782653,253.97967002133265 176.00081728559024,254.03197629891275 175.43362108606564,254.03851458343976 174.81738775093223,253.96659345159662 174.6947949123972,254.07774429216067 174.6375849211783,254.05812943750792 173.89875874750985,253.86851918086606 173.6355927875521,253.97967002133265 173.48357766767126,254.00582316031756 173.09291515553966,254.06466772271693 172.97032231700464,254.06466772271693 172.79378862951424,254.05812943750792 172.44562496807478,253.9927465907764 172.1497675845077,254.01236144455228 171.85064105848227,254.04505286835646 171.43055626500484,254.0908208616044 171.10037288655053,254.16274199315524 170.92547377033802,254.20850998640316 170.5511569700111,254.34581396585466 170.40894927721305,254.37850538897686 170.2389538744445,254.35235225008938 169.967615058487,254.20850998640316 169.6472391071155,254.04505286835646 169.55079940746793,253.9927465907764 169.42820656893292,253.92736374355772 169.21407774429179,253.80313633354996 168.9574500690559,253.67890892422417 168.65341982939162,253.51545180617748 168.41150329477998,253.40430096532117 168.04045563671656,253.25392041671822 167.54191142667415,252.99238902823325 167.229708331205,252.83547019500585 166.78673954129846,252.67201307695916 166.50068958471675,252.58701537508773 165.8648413956126,252.38432854929442 165.68176942340028,252.31894570168603 165.45129488685703,252.22740971548245 165.3597589008483,252.18164172281908 165.27312662828356,252.1424120141956 165.15053378974855,252.09010573632324 165.0720743729887,252.05741431320104 164.92169382438576,251.9854931809682 164.65362415098406,251.8743423405016 164.58660673239004,251.8416509169897 164.49016703293736,251.79588292374177 164.34632476895885,251.72396179189866 164.2155590745215,251.671655514416 164.1109465188742,251.62588752146036 164.0324871023092,251.58665781273945 163.88864483842812,251.53435153525677 163.40481176900994,251.30551156960172 163.31327578280636,251.27935843071424 163.21847065433928,251.22705215352386 163.01578382796137,251.14859273676402 162.80982785922257,251.0701333197119 162.56464218215254,250.99167390324436 162.25897737140522,250.8674464936263 162.06119425856872,250.762833937979 162.00234969616935,250.72360422984264 161.7375491649337,250.57976196557183 161.64437860754967,250.5339939726162 161.4760177759616,250.46861112568982 161.3174643714563,250.40322827808143 161.134392399244,250.3313071465306 160.96603156765593,250.24630944524375 160.72901874658567,250.11554375031926 160.59988762332878,250.04362261847615 160.44296879000396,249.94554834774556 160.31874138019103,249.87362721590245 160.26316596005518,249.83439750718154 160.21739796709952,249.80170608366961 160.13076569453477,249.74939980589468 159.99509628665345,249.63824896562292 159.8626960208408,249.55325126433607 159.6812586199064,249.4290238550103 159.57501149307862,249.34402615304145 159.48837922051388,249.27864330640736 159.38703580742234,249.2197987437157 159.33799867191092,249.16749246555105 159.23828982999987,249.10864790315165 159.12223527618673,249.02365020215709 159.0437758594269,248.9582673545487 158.87541502783878,248.79481023650203 158.79859018235686,248.71635082003448 158.73811104867957,248.64442968789908 158.70705419634814,248.5921234104164 158.67109363028044,248.52674056280802 158.63676763549063,248.46789600040864 158.52398222423327,248.37636001449735 158.4161005261276,248.31097716727868 158.3049496859533,248.2586708896986 158.2134136997497,248.19982632671466 158.0957245747561,248.0886754868326 157.9240946009045,247.90560351442548 157.83092404352047,247.8467589517338 157.72304234560966,247.74214639637879 157.4239158195842,247.49369157704524 157.33237983347806,247.42177044520213 157.11498186647597,247.23216018817055 156.87306533176687,247.03601164670937 156.78970220156305,246.96409051476883 156.6213413700724,246.8464013893855 156.2584665679113,246.58487000060822 156.0328957450069,246.42795116738083 155.6324258057925,246.21218777126694 155.49675639781375,246.10103693128747 155.361086989835,245.97680952166942 155.03907646728302,246.25141747989042 154.76937222260344,246.2383409101544 154.4342851305103,246.2448791953634 154.2708280124636,246.2448791953634 153.9357409204679,246.23180262591967 153.5892118302089,246.2383409101544 153.34729529559726,246.2383409101544 153.08576390662512,246.15988149407656 152.97624763753385,246.12065178535565 152.9141339326761,246.09449864646817 152.6427951167186,245.97027123704498 152.1442509066762,245.82642897277418 151.77810696225163,245.69566327853167 151.57705470724906,245.6695101399365 151.4054247332026,245.6368187161323 151.1765847678398,245.6629718547275 150.5816008582473,245.78719926473525 149.95719466721152,245.74143127177962 148.99443224201397,245.68912499361497 148.0741686674111,245.78719926473525 147.90580783582303,245.8721969660221 147.29611278541145,245.8721969660221 146.64882259794658,245.81335240362273 145.9573989887065,245.81989068844203 144.7429126015222,245.71527813250242 141.1811819992849,245.5714358685239 138.39423813658885,245.27721305623473 138.16212902896257,245.25759820187426 137.51974255523393,245.2968279105952 136.80706952035553,245.3164427648582 136.67793839709864,245.32298104948265 136.49486642488634,245.3033661951222 133.09332379833478,245.10067936903658 129.74735659201653,245.26413648708328 127.10425499320158,245.42759360512997 123.40522041170762,245.83296725798317 120.74086938754661,246.16641977831128 120.56923941359759,246.18603463267175 119.25340961351661,246.34949175071844 117.36221075752158,246.57833171598378 114.76324258067667,246.78101854245912 112.54676405986616,246.83332481994177 111.02334371967105,246.8464013893855 109.76308933953108,246.78101854245912 108.15467129795168,246.66986770189507 105.93492363487766,246.53256372273586 104.10583848403266,246.40179802820109 103.32124431740856,246.36910660468916 99.1972212289932,246.13372835509165 97.16381468058984,246.2710323339586 96.15038054870038,245.93104152842147 95.96567400530762,245.8721969660221 95.79731317381696,245.81989068844203 92.00510803493896,244.68876743165637 90.03381519139333,244.093783521869 86.85620881646831,243.14573223700336 85.5240333043878,242.74035858453985 84.5596363081072,242.4461357715687 82.60305460499093,242.07345354290936 78.50028094192164,241.24962966746693 76.9278234663125,240.9161771470414 70.89625581048718,239.66082648024798 70.71645298053839,239.62159677220905 69.80763140439366,239.4385247998019 69.69157685048309,239.41237166091443 61.11007815303199,237.67972620932727 59.52290953679866,237.3593502581506 59.24993614966069,237.30704398057054 56.70490882157634,236.79705777216745 52.77703427491444,235.96669561239284 52.64953772293545,235.9405424732131 44.0451550288604,234.20135873768348 43.93400418858865,234.1752055985037 36.48689789038157,232.67140011227934 35.46529090258977,232.41640700861365 34.141288246411605,232.1548756192518 32.48710221177913,231.83449966836744 30.870511314394818,231.5141237165088 28.45788425202571,231.04336721702148 26.91157991530405,230.7426061195233 25.24758645349134,230.4156918834299 22.98860908218355,229.96455023791333 19.304285641411216,229.22572406385518 18.29738979424362,229.02957552229657 17.354242223016804,228.8465035505714 12.551872094805129,227.87229912652603 8.306890739327512,226.99616897389322 4.426418756704296,226.19849823802022 2.345609644067393,225.7538948768358 0,225.25698523777902 0.7339224600296266,224.00163457157018 0.9823772794605915,223.08627471050872 0.9398784287684527,221.71323491891656 1.1311232568830771,221.06594473096453 1.5250549113755938,220.13750830084905 2.1968636666449073,218.96715533553734 2.3374367880676306,218.5748582522253 2.8866527047045003,216.14915462012019 2.9749195484497113,215.09649077999694 3.501251468560045,214.1419012106043 3.511058895740274,212.83424426623077 3.7284568627423686,211.95157582907095 4.024314246309444,211.19313480152917 4.4100730449970555,210.50661490553824 4.746794708075803,209.43433621076227 5.451294886954454,208.53205291953427 5.547734586602,208.06129641965722 5.382642897374845,207.30285539153087 5.410430607442782,206.79940746794708 5.536292588241303,206.4659549473267 6.0282985135618326,205.65520764162028 6.232619911120192,205.20406599620114 6.982888082954488,203.0725851763852 7.030290647188027,203.06604689215044 7.188844051790742,202.64105838493677 7.597486846907461,201.07840833631303 7.800173673187925,199.35230116993486 8.391888440516933,196.80890841342068 8.704091535986105,196.25315421167224 10.059151044593145,194.57281503795744 10.304336721663176,194.134749961982 10.498850692236163,193.5593809061654 10.75057465402806,191.89211830257634 11.51065025284773,189.51218266371913 12.077846452567163,188.59682280265767 12.375338407314706,187.85799662859952 12.46197067987945,187.2237830110655 12.394953261480309,186.42611227480282 12.442355825713848,185.6545946778173 12.613985799662869,185.36037186494355 13.40348367982837,184.5300097052664 13.687899065229606,184.09848291352571 14.248556980129743,182.54890943493024 14.305766971543513,182.06507636541463 14.258364407309973,181.65970271226914 14.022986157225315,180.7704959901926 14.026255299683678,180.43050518494775 14.147213566940797,180.12974408744955 14.50191551310211,179.68514072626513 14.693160341314162,179.3124584972161 15.126321704040455,177.161362824014 15.834091025182612,176.03677785204763 16.283598099811,174.55912550441846 17.050211983547396,173.49338509514376 17.592889615364967,171.96342647032418 17.741635592787453,171.1526791643255 17.84951729069827,169.83848393571725 17.967206415691884,169.43964856739106 18.248352658829614,168.85120294222813 18.50171119180198,167.870460233948 18.552382898299026,167.21663176176125 18.45594319865148,166.07243193543445 18.686417735292164,164.352863053973 18.887469990294733,163.9540276860365 19.46283904601393,163.24789293568512 19.94667211523727,162.09715482483128 20.16570465341983,161.17525667924284 20.12157123164465,159.9852888596681 20.19022322122426,159.6910660473789 20.95520253358533,158.488021658263 21.39817132349185,157.53343208896777 21.548551872094805,156.74229963732952 21.501149307861265,155.71578893609376 21.568166726260408,155.00965418642434 21.754507840833632,154.58466567921067 22.08959493292677,154.25121315859028 22.37237574705011,153.63661439444246 22.437758594366212,152.79971395043313 22.714001123767687,151.98896664482413 22.839863104761065,151.02130050569545 23.43811615681194,149.75287326965315 23.60974613076096,149.14481279042207 23.868008377274727,147.03948511017558 25.05470705419625,145.00607856177223 25.154415896302158,144.5614752008801 25.07595647954232,143.91418501292807 25.12335904377586,143.4565050825922 25.340757010777953,142.96613372845212 25.752668948255607,142.3188435411821 25.690555243397863,141.4819430965882 26.231598304229827,140.435817540992 26.520917403075035,139.42892169382438 27.280993002089563,137.89896306900482 27.942994330081216,135.577871992547 28.091740307601132,135.2117280484147 28.22414057312152,135.048270930368 28.511825100981117,134.25060019449504 28.470960821469447,132.969096389009 28.73085763916368,131.8510497012774 29.095367012310366,131.0206875416002 29.868519180768622,129.6738008891878 30.02216887163508,129.2095826739352 30.06957143586862,128.35960565960528 29.951882310875007,127.30694181977432 29.97640087867944,126.84926188943847 30.14803085262846,126.47657966009716 30.810032180620116,125.46968381283213 31.337998671910917,123.65857894487483 31.99346171537556,122.31169229187785 32.0294222812484,121.97170148663302 31.937886295239686,121.35056443825047 32.148745977519916,120.57904684097268 32.508351637125195,118.55217857680404 33.353424937426574,116.32262348684208 34.02196455033495,115.09342595922841 34.21320937844958,114.6226694590591 34.65781273943914,112.08581498707194 34.88828727598239,111.55621392489296 35.819992848848514,109.92164274442608 35.993257393880576,109.36588854267764 36.212289932063136,108.05169331406941 36.84977269254264,106.80288093209529 37.111304081319915,105.6652193900032 37.31726005005874,104.28564131378658 38.31925218378237,102.12146907114072 38.37482760391824,102.00377994634196 38.68212698584601,100.15998365458049 38.85866067333643,99.61730602227577 39.751136537871346,96.89737957846603 39.81978852745095,96.74699902986308 40.321601879854285,95.62241405731216 40.50630842324704,94.6024416409931 41.343208867646084,93.13132757857292 41.4641671349032,92.16366143973653 41.81559993889844,90.98023190498108 42.100015324202246,89.46334984970268 42.87153292128518,87.96608264800531 43.911120192159544,85.3769218985355 44.3475506973442,83.70965929426443 44.80523062787492,81.25780252356411 45.62251621810836,78.30903611380703 45.95106502528477,77.64866935738554 46.698064054855564,76.51754610021018 47.10343770751392,75.17719773203248 47.389487664095626,74.52336925984574 47.616693058277946,73.35301629492373 47.83245645400215,72.64034326033762 48.36696123011224,71.60075598965811 48.939061143275644,70.10348878825302 49.45558563630318,69.10966951052916 49.98518669867702,67.59932573948548 50.25652551463452,66.42243448935449 50.81391428717372,65.66399346181271 51.64264187576786,63.375593809159085 51.69494815344537,62.5844613581054 51.812637278536414,62.24447055256829 51.863308985033456,61.1329621494611 52.278490064872045,60.26337028174501 53.03529652142821,59.0930173164333 53.112121367007575,58.84456249680748 53.06471880277404,57.92920263613574 53.118659651632015,57.22306788578434 53.29519333912244,56.71308167796582 53.85421668284211,56.105021198345 54.17295806303315,55.627726414038385 54.292281759304664,55.313888747388745 54.285743474582794,54.68621341379718 54.09776778873167,54.176227205296655 54.13372835479937,53.600858149869744 54.33151146763586,53.13663993461715 55.32696531654019,51.69821729570887 55.665321550799405,51.01823568492694 55.9186800838692,50.1355672473774 56.02819635296048,48.85406344218365 56.31751545180569,47.618327629750695 57.108647903151656,45.68299535207792 57.50584870010253,44.92455432424386 57.95208663227257,42.904224345284234 57.96679777289677,42.51846554649919 58.39832456463745,41.15850232454561 59.07503703325331,40.073147060325894 59.73376921907889,39.21663176176125 59.95280175716402,38.7981815394643 60.48240281973271,37.24206977604955 60.65239822250127,35.86249169983294 61.129693007197595,35.0125146857953 61.50074066506615,33.80293201244467 62.11697400019959,32.63257904693811 62.21341369984714,32.194513970962696 62.24610512345647,31.468764366543123 62.11207028656076,30.115339428921693 62.36869796199149,29.513817234607313 62.501098227511875,28.657301936334953 62.87704959901926,27.76155692934168 62.952239873320735,27.081575318267458 62.99146958165194,27.009654186034634 63.07319814067528,26.990039332063887 63.4475149410022,26.140062318026256 63.880676303923345,24.701639679410263 64.27624252959633,23.9758900753804 64.67180875526931,23.014762221363302 64.68488532471305,22.275936047305137 64.84180415803787,21.72018184643354 65.24227409725225,19.44485876332108 65.44005721008874,18.797568575369056 65.8568728611078,18.00643612402309 66.27695765439036,17.66644531848598 66.43714563007612,17.431067068596178 67.30510292690403,15.096899422694625 67.80201256576595,14.135771569067241 67.73009143392284,13.102722582622466 67.92460540430096,12.363896409148866 67.9736425398124,11.017009756736446 68.31199877407161,10.552791541191569 68.65035500842826,9.8597333609659 68.7974664147677,8.434387291403928 68.93640496500996,8.172855902334373 69.23553149123026,7.9244010832931195 69.37610461265298,7.721714256525515 69.5134085918122,7.401338305056579 69.80763140439366,6.257138478729767 70.23098533993972,4.047198243128265 70.78673954139589,3.007610972448761 71.01721407774428,1.7130305975189966 71.14634520100117,0.4772947846963273 71.38499259334934,0 74.23405016100052,1.968023701769257 76.51264238647393,3.543750319544468 79.69024876130153,5.649077999790946 82.78449200592532,7.695561117638045 86.58813914296917,9.800888798566518 87.02783879041732,10.049343617900055 88.11155948306687,10.663942381365889 90.21361802114727,11.853910200940629 91.65367523113858,12.671195791174066 91.93318690309584,12.828114624693743 92.20289114777545,12.978495173296695 92.85998876242056,13.351177402345714 93.11007815293456,13.488481381407503 94.09572457475609,14.031159013419934 94.27225826224651,14.129233283858234 94.97185472758376,14.50845379811626 98.50906676201666,16.476477499495807 99.85758798590183,17.234918526745297 100.6683352914134,17.672983603402702 101.67686570976146,18.490269193636138 101.72590284517545,18.522960617440333 101.77657455186736,18.555652040854813 101.85666853971024,18.621034887878633 104.03555192317515,20.281759207232977 109.48194309649078,24.459723144603736 111.8438984522654,26.277366297477755 112.7576237421464,26.97042447770343 113.96557184451142,27.866169484988987 115.33043878039611,28.938448179472683 116.13137865863003,29.526893804051046 117.63518414465955,30.72993819277724 118.36093374888426,31.253000970721494 119.83041324012399,32.36450937324411 120.96970935300683,33.2275629564332 122.2822700108243,34.23445880360079 123.05705675026817,34.83598099830488 123.70598150901095,35.31981406752822 124.43173111304081,35.869029984067666 125.7998671910916,36.9543852479951 126.68253562864113,37.60167543594712 127.63549062685331,38.34050160912843 129.13439239934144,39.49123972027454 130.28676508166802,40.40006129641927 131.4048117689125,41.27619144934437 132.45257189578663,42.086938755050795 133.34831690248762,42.76692036583273 133.46110231393982,42.858456352036306 133.86320682433467,43.19190887265669 134.80308525310312,43.87842876835535 135.69392654655502,44.545333810278116 135.82796138325585,44.64994636563314 137.35628543718724,45.83337590068087 139.89313990907698,47.86024416445979 140.51427695775183,48.30484752535193 142.00990958778158,49.45558563630318 145.43433621085967,52.11666751829811 146.7714154364816,53.12356336517342 148.21801093129218,54.22853348346131 149.30990447974665,55.07851049749894 150.47698830259998,55.96771721957549 151.00985850752963,56.39924401131618 151.68330183378455,56.948459927855616 151.78954896051488,57.01384277507429 151.8745466619966,57.066149052654374 152.40251315318997,57.445369566230404 153.311334729627,58.15150431658181 153.67420953169062,58.46534198323145 153.76084180425536,58.52418654592311 154.5879348214742,59.531082392798425 154.99984675895183,60.04760688553367 155.50002554036956,60.74720335096835 156.0672217397967,61.45987638555448 157.47131838381773,63.238289830292146 158.58446135781313,64.67671246900557 159.84144659549472,66.29166879511199 159.9362517239618,66.40935791991075 159.97711600347347,66.46166419797797 160.03759513715073,66.5270470450018 160.07028656076008,66.566276753333 160.4985442101398,67.05010982294604 160.5737344844413,67.1351075242329 160.9480512847682,67.56009603144656 161.17198753649217,67.8150891355994 161.35832865096796,68.02431424630944 161.4613066353374,68.13546508687348 161.59207232977474,68.2793073505597 161.65582060591038,68.35122848240282 161.75062573437745,68.46237932296685 162.73790672737945,69.60004086466923 162.95857383664503,69.84195739889118 163.15962609193988,70.07079736454625 163.4603871891458,70.41732645490266 164.00469939224126,71.03192521846591 164.48362874802064,71.58114113500537 166.08550850487816,72.3003524548005 166.19175563170595,72.34612044765872 166.25550390764673,72.37227358664362 166.93875466108187,72.67957296837653 168.4817898554426,73.38570771872793 168.81851151861878,73.53608826723345 168.8969709352812,73.56877969045308 168.96725749604127,73.59493282934055 169.1078306177563,73.66031567665665 170.22914644745913,74.18337845460091 170.87153292138262,74.45144812829491 171.43219083618533,74.68028809356026 174.0654850080149,75.9225621907151 175.2292996885073,76.47177810725454 175.44669765550938,76.56985237769284 175.63140419890215,76.6613883638964 175.85207130816775,76.75946263491927 176.29830924053263,76.98176431575506 176.57291719875363,77.08637687101265 177.18588139142872,77.3609848290388 177.9704755580528,77.71405220401965 178.43959748684682,77.93635388505028 179.21928794002693,78.28942126012856 179.88128926811603,78.58364407241774 179.9401338305154,78.60979721101292 179.9957092507487,78.6359503499004 180.05618838432855,78.77325432905961 180.07416866731367,78.81902232230755 180.1019563773816,78.90402002359438 180.12320580272768,78.98901772488124 180.13791694335188,79.11978341980573 180.1395515146298,79.20478112080029 180.13301322990793,79.28977882208714 180.11830208928373,79.34862338448652 180.09868723511812,79.4140062320949 180.08070695203554,79.4793890790213 180.05782295560644,79.53823364171296 180.03330438780202,79.60361648873678 180.008785820095,79.66246105113616 179.9793635388466,79.72130561382782 179.94994125769563,79.78015017622721 179.9303264034326,79.82591816918286 179.91234612044747,79.87168616243078 179.89926955100373,79.91745415538642 179.88782755283788,79.96976043316137 179.86494355621392,80.1136026972373 179.86003984276996,80.20513868344088 179.86003984276996,80.25744496092354 179.86494355621392,80.3489809471271 179.88946212392094,80.4797466413696 179.90253869346208,80.52551463461752 179.91561526290582,80.57128262757317 179.94994125769563,80.65628032886002 179.9908055372073,80.74127803082887 180.04965009960668,80.83281401664273 180.09378352147928,80.97011799550967 180.11339837574232,81.04857741256178 180.20983807529242,81.08126883636598 180.29156663431579,81.0878071206007 180.3536803391735,81.10742197496117 180.41252490176777,81.12049854411262 180.47136946416714,81.14011339876535 180.53021402666394,81.1597282527361 180.58742401798028,81.17934310680428 180.64463400939405,81.19895796116474 180.7002094294325,81.22511109975993 180.75578484956836,81.2512642386474 180.80809112744075,81.27741737753486 180.86203197639614,81.30357051681204 180.9437605354195,81.34933850976769 180.996066813097,81.37549164865516 181.0467385197889,81.40818307245935 181.09741022628594,81.44087449558155 181.1448127905195,81.47356591909346 181.19058078357256,81.50625734289765 181.2379833478061,81.54548705152114 181.28048219849825,81.57817847474077 181.3229810491904,81.61740818346169 181.38019104060413,81.67625274586106 181.43903560300353,81.72855902334372 181.4962455944173,81.78086530150837 181.5501864433727,81.83970986390776 181.60576186341115,81.89855442659942 181.65970271246397,81.95739898899879 181.70873984778055,82.01624355139818 181.75777698319456,82.07508811379755 181.79700669152578,82.1273943912802 181.92940695714358,82.30392807906291 182.04709608223462,82.4673851971096 182.18930377493524,82.6635337386682 182.3592991777038,82.86622056543581 182.45083516371253,83.01006282912203 182.58323542933033,83.24544107871955 182.70255912550442,83.47428104437462 182.76957654400098,83.66389130130878Z"/></svg>