<svg xmlns="http://www.w3.org/2000/svg" width="256" height="256"><path d="M15.982923129953111,1.9721858874469709 16.297240255835952,2.3542969032129086 16.62696508390373,2.835017213048132 16.841645735200196,3.1924759052202174 16.86013497783436,3.2951939201946026 16.91457552583201,3.4472165826015915 17.019347901044657,3.6608700535646386 17.25970805608472,4.038872348792825 17.38399685426495,4.256634540293623 17.450763563937073,4.3634612761731075 17.5257477149296,4.4908316145576705 17.651063693137125,4.729137409298245 17.769189410418893,4.963334483562292 17.894505388687644,5.160553072129438 18.103022959085646,5.411185028605713 18.18622455115367,5.509794323103572 18.324893871369092,5.649490823591186 18.493351415988307,5.842600691436906 18.689542824589385,6.048036721385676 18.830266505043067,6.200059383792665 19.044947156400756,6.405495413741436 19.171290314758025,6.520539590635196 19.233948303953625,6.615040164350406 19.31406835557242,6.730084340876819 19.403433028600137,6.898541885496035 19.54826542971402,7.3751534748547325 19.595515716602236,7.543611019473949 19.640711643252192,7.7572644906206705 19.729049136068937,8.205115035847765 19.785544044366073,8.468073154243417 19.829712790743837,8.743357434497218 19.884153338741484,8.981663229115341 19.9735180117692,9.224077744393666 20.151220177613663,9.548666671712724 20.394661873102955,9.97186489352964 20.50251578882606,10.189627085397786 20.717196440122525,10.530650894929071 20.95652941501284,10.925088072614384 21.07568231238313,11.109980499445827 21.155802364124373,11.27843804388137 21.256466018738045,11.471547912094438 21.356102493324425,11.709853707079912 21.50093489437708,12.04676879613467 21.586190846805824,12.231661222966114 21.70739810453682,12.412444929504707 21.82655100190711,12.613772238548377 22.00425316775157,12.913708842457256 22.199417396264128,13.197210563970234 22.274401547134204,13.324580902354796 22.344249797316785,13.423190196607758 22.429505749745523,13.542343094222943 22.529142224331903,13.669713432607507 22.610289456161667,13.772431447581893 22.769502379371964,13.965541315611286 22.850649611201728,14.07236805149077 22.940014284229445,14.183303507479433 23.046841019802805,14.314782566769095 23.15777647597514,14.470913949285261 23.24200524819291,14.590066846839223 23.304663237449734,14.684567420431982 23.4238161347588,14.840698803560397 23.586110598418326,15.037917392249991 23.63746960590552,15.111874362909099 23.722725558334258,15.218701098421235 23.807981510701772,15.325527834117045 23.90042772417872,15.424137128370006 24.14797814026699,15.617246996583074 24.35957725111422,15.773378379527815 24.581448163458894,15.917183600124606 24.83208012005762,16.06920626234792 25.024162808059717,16.171924277322304 25.120717742074415,16.213011483556958 25.227544477647776,16.245881248165087 25.37134969867314,16.266424851282412 25.66820476188789,16.319838218824195 25.863368990400446,16.352707983860896 26.148925071968012,16.410230072062877 26.48481298093425,16.463643440033234 26.890549140144298,16.521165528480115 27.334290964772418,16.562252734286194 27.483232086485277,16.57047017566782 28.126246860224928,16.57047017566782 28.51349377667836,16.562252734286194 28.823702181901,16.537600410876014 29.530402124985997,16.48829576344341 29.925866482576154,16.475969601891382 30.243265148847005,16.496513204641364 30.52779405038728,16.537600410876014 30.749664962670725,16.562252734286194 30.956128172830464,16.586905058124945 31.16464574316724,16.627992263747352 31.408087438656533,16.726601558428882 31.737812266724312,16.8950591030481 31.981253962213604,17.03475560335204 32.16922792961673,17.166234662396803 32.40650654426878,17.310039883238492 32.657138500745056,17.449736383542433 32.934477141298345,17.581215442832093 33.27447377074111,17.67571601660853 33.60419859880889,17.757890428465586 33.83634131271222,17.79897763470024 34.06951120664285,17.81130379655839 34.39820885468333,17.79897763470024 34.61494386621806,17.79076019350229 34.94055997368687,17.782542752243113 35.305208926845935,17.757890428465586 35.56816704511913,17.749672987267637 35.78695641701457,17.73323810505541 35.98931090657534,17.700368340386056 36.115654064932606,17.663389854689154 36.255350565358995,17.614085207868797 36.400182966472876,17.556563119421916 36.552205628573745,17.478497427857707 36.71758163274373,17.404540457014928 36.86241403385761,17.347018368568047 37.32669946148061,17.178560824132504 37.559869355533685,17.09638641209177 37.81871875320791,17.005994559220436 38.16693282397108,16.899167823340953 38.46892378799577,16.796449808366567 38.719555744594494,16.714275396509507 38.941426656877944,16.652644587524875 39.23109145910571,16.554035293088244 39.41187516546063,16.49240448434851 39.5464357651383,16.45131727811386 39.90903035793665,16.369142866256798 40.17507001678153,16.311620777626246 40.41132145122262,16.311620777626246 40.735910378541675,16.307512057088495 41.19505990541595,16.307512057088495 41.59360580351657,16.295185895414015 41.99317888176693,16.241772527627337 42.4071324821137,16.184250439425355 42.88066253120684,16.09385858594177 43.685971768544796,15.888422555993001 44.37315528878466,15.707638849882983 44.82511455461073,15.613138276106548 45.31302512573906,15.555616187475994 45.800935696867384,15.510420261132163 46.05156765346611,15.510420261132163 46.435733029409086,15.535072584542341 46.85687689086529,15.588485952267797 47.293428454506426,15.637790599516727 47.69300153269556,15.662442923355478 48.00320993797943,15.641899320238151 48.23329829146083,15.580268511069846 48.41100045736651,15.481659216816887 48.735589384746795,15.276223186868116 48.85474228211708,15.144744127578454 49.045797789908214,14.992721465355139 49.20911943371749,14.811937759245119 49.386821599623175,14.577740685164745 49.77817723667558,14.101129095622374 49.94868914153306,13.879258183216477 50.17056005387773,13.636843667754478 50.392430966222406,13.423190196607758 50.65847062500606,13.221862887380412 50.85055331300816,13.110927431208076 51.10221244975663,12.971230930904136 51.352844406232904,12.843860592274675 51.5541717155827,12.774012342153316 52.08008795225155,12.593228635614725 52.67174371850401,12.313835634823173 53.071316796815594,12.091964722662174 53.506841180306985,11.8454414868461 53.64756486076067,11.796136839658395 54.12006772976529,11.607135692105526 54.885316941263234,11.364721176643528 55.387608034426755,11.196263632207986 55.510869652457245,11.146958984775381 55.659810774170104,11.081219455130551 55.85908372315918,11.011371205192868 56.08917207670181,10.912761910695009 56.27920040440442,10.814152616442048 56.4497123092619,10.723760763325814 56.57708264783014,10.658021233497308 56.736295571040436,10.534759615834169 56.956112123146845,10.362193350309854 57.250912826062105,10.600499145295327 57.42553345151856,10.777174131112494 57.644322823414,10.908653190218482 57.88571015866503,10.949740396024563 58.189755482989206,10.93741423453376 58.4424417998262,10.925088072614384 58.65609527097292,10.892218307761356 58.854341039812255,10.847022381050177 59.114217617758676,10.756630527995167 59.205636651024655,10.711434601467662 59.33300698971534,10.625151468705505 59.433670644267785,10.547085777324972 59.51173633570954,10.481346247863815 59.65246001622445,10.415606718402659 59.81783602027199,10.370410791507805 59.98732074504095,10.358084630017002 60.35196969813879,10.358084630017002 60.51837288245852,10.362193350309854 60.933353662955035,10.353975909111904 61.07921324427989,10.345758468097626 61.84446245577783,10.296453820848697 62.023191801772036,10.280018938452795 62.26457913702307,10.24304045312324 62.525482895058005,10.17730092347841 62.673396836559895,10.136213717427431 63.00825756543762,9.959538731610264 63.17157920924689,9.869146878555254 63.45508093051497,9.737667819265592 63.60196769192834,9.68836317238401 63.64716361863952,9.684254451723811 63.74577291289248,9.684254451723811 63.84746374777834,9.696580613581961 64.07036184027277,9.745885260463544 64.24498246572921,9.778755025500246 64.45041849567798,9.807516069815522 64.63941964323085,9.819842231306325 64.78117050389551,9.815733511013473 65.10370507085385,9.791081187358396 65.26086363376466,9.78286374597677 65.45294632182798,9.815733511013473 65.59469718243142,9.852711996343027 65.81759527492582,9.897907922870532 66.12061341916149,9.906125363884808 66.18635294868388,9.902016643530732 66.37227255584874,9.869146878555254 66.56743678423884,9.828059672504276 66.74924767080472,9.758211422566593 66.83655798347174,9.67603701052586 66.93516727784714,9.556884113094348 67.10054328201713,9.404861451115933 67.2967346906182,9.26516495062832 67.40869732694028,9.207642862181439 67.46724659541445,9.178881818049836 67.54223074634575,9.154229494394759 67.65419338266783,9.12546845032438 67.73431343440907,9.11725100888153 67.92126022166246,9.113142288405005 68.1852455200854,9.113142288405005 68.24071324817157,9.12135972941928 68.34548562350668,9.146012053196808 68.47901904297338,9.174773097512086 69.01315272084018,9.310360877155825 69.21756157057797,9.376100406800655 69.30589906345595,9.392535289012883 69.38807347543546,9.404861451115933 69.546259218496,9.396644009917981 69.61508028852884,9.392535289012883 69.70855368215554,9.376100406800655 69.83386966042428,9.355556803683328 69.93145177464996,9.33090448027315 70.04136005079499,9.302143436141547 70.16564884879155,9.28159983302422 70.27042122406543,9.261056229906893 70.3793023199995,9.232295185591617 70.54673268434652,9.182990538710035 70.62890709632603,9.178881818049836 70.72238048995273,9.174773097512086 70.90932727726732,9.187099259064112 70.97814834730016,9.199425421167161 71.00177349068305,9.146012053196808 71.03258889517537,9.0720550825377 71.18872027793643,9.088489964994826 71.49584714277107,9.10903356768358 71.61294567978064,9.11725100888153 71.71874523526549,9.12546845032438 71.82557197083884,9.133685891522331 72.07312238692711,9.150120773734558 72.17070450109155,9.154229494394759 72.54973397634703,9.178881818049836 72.8527521205827,9.199425421167161 73.14755282355918,9.21586030337939 73.223564154579,9.219969023855915 73.52863665911414,9.244621347694666 73.73715422945092,9.261056229906893 74.47980547771573,9.310360877155825 75.11562999040717,9.355556803683328 76.04933674658557,9.408970171408784 77.28606164687716,9.491144583633192 78.9624196511979,9.593862598607576 81.15236773045179,9.733559098727842 81.31158065366209,9.741776540170692 81.57043005145876,9.76642886358087 81.94740516641475,9.786972466698195 82.65924101012602,9.8321683932257 83.32074502662229,9.877364319753205 83.6730678179232,9.897907922870532 84.89952091671736,9.97597361418984 85.02894561564631,9.97597361418984 85.2025390608918,9.930777687478662 86.0263375410476,9.696580613581961 87.05659923117945,9.413078892130208 88.23169332248642,9.092598685287678 88.67132642663802,8.969337067563314 89.11814979171537,8.825531846599175 89.9131872276171,8.599552213533078 90.5449030197708,8.418768506994486 91.77546483910271,8.069527256448925 92.44313193643622,7.880526108712382 93.058412846194,7.716177284753366 93.2504955341961,7.670981358042187 93.42614333980231,7.61345926977898 93.63979681094902,7.765481931818622 93.83906975993811,7.90517843212256 94.36087727600798,8.31194177172725 94.43277988649005,8.373572580466982 94.55706868460906,8.468073154243417 94.6258897546419,8.521486521968871 94.78304831761393,8.632421978324881 94.89706531417427,8.71459639042684 95.20830089954666,8.936467302771511 95.26890452838155,8.973445788101065 95.34799739997305,9.022750435349995 95.50721032312212,9.12135972941928 95.68799402947704,9.248730068171193 96.45016170058697,9.795189907896146 96.75009830431219,10.008843378859194 97.13734522082684,10.280018938452795 97.7269466267798,10.666238674940157 98.22821053985481,11.003153763933692 98.85992633188606,11.418134544368984 99.37967948771767,11.755049633423742 99.49061494389001,11.833115324987949 99.56046319401136,11.816680442530823 99.78336128650578,11.755049633423742 99.94976447076428,11.709853707079912 100.10075995277663,11.668766500845258 100.3503647292256,11.607135692105526 100.42021297946941,11.598918250907575 100.50752329207519,11.582483368266775 100.61024130704958,11.566048485870873 100.67084493588446,11.55372232438007 101.23271247785557,11.438678147486309 103.24701275144204,11.052458410998947 104.74566858997954,10.764847969009445 105.42258030866074,10.444367762350588 105.68861996744441,10.296453820848697 105.92898012242324,10.140322438148857 106.27205829243769,9.885581760951156 106.37580348756183,9.799298628556347 106.41689069355158,9.737667819265592 106.56788617556391,9.392535289012883 107.01060082016474,8.443420830833238 107.92787269382478,7.301196504195625 108.56267002636648,6.968390135862291 109.09988524480497,6.688997135009514 110.47527946518953,5.817948368026728 111.17684350746458,5.357771660880257 111.4511006074462,5.176987954709014 112.21634981900536,4.671615321096263 114.42067842035567,3.282867758275227 115.50743501878466,2.5802765360341064 116.02102509365659,2.2433614470405723 116.83763331276417,1.6845754455799171 117.10059143103737,1.5037917391025497 117.27623923664358,1.3887475622087888 117.6141815059093,1.1627679295100404 117.71587234073394,1.0970283996815349 117.83605241825397,1.207963855853871 118.7687319942214,2.0790126228978822 118.98854854626657,2.2803399323701266 119.1837127747179,2.4611236384801454 119.52679094473235,2.777495124784926 119.73119979465383,2.966496272154121 119.81748292710986,3.040453242996903 120.10098464843917,3.311628802590504 120.16056109712432,3.3691508908537107 120.1954852222156,3.3979119351689877 120.22630062676915,3.430781700144465 120.291012976203,3.4883037882239973 120.33312736234251,3.5252822739208995 120.63203678585674,3.800566554052252 120.76248866493543,3.9197194512388647 120.87239694095803,4.014220025015299 120.95251699257682,4.088176995674407 121.11994735698507,4.240199658081396 121.2216381918097,4.330591511136405 121.29970388319025,4.371678717371058 122.10295876028994,4.297721746528276 122.676125283847,4.248417099279346 123.23902000590664,4.1826775696345155 124.44698386206663,4.059415951542804 124.91126928968963,4.010111304477548 125.38993523947026,3.9608066574735177 125.8028616597285,3.9197194512388647 126.24557630420689,3.8745235247113596 126.73554123563471,3.8211101569859043 127.26762055326324,3.759479347817599 127.83667835622134,3.697848539077867 128.59268294637158,3.61978284751366 129.27267620550202,3.545825876670878 129.52125380174004,3.5211735532606996 129.8129729642673,3.517064832539275 129.96396844634086,3.512956112062749 129.9629412661911,3.545825876670878 129.9721858875388,3.718392142011519 129.9793761485258,3.93204561315824 129.98245768897502,4.1539165253192385 129.97732178834875,4.305939187726227 129.9752674279268,4.404548481795513 129.9701315271781,4.605875791451432 129.96807716693982,4.675724041389115 129.96704998672885,4.745572291755371 129.96499562642938,4.8318554242726295 129.97732178834875,4.897594953733787 129.99375667068344,5.008530409906123 130.01532745382804,5.074269939734628 130.04614285825915,5.135900748719259 130.09750186574632,5.1975315574589915 130.13345317098737,5.238618763693644 130.20741014183014,5.292032131235426 130.28855737365993,5.3495542196823065 130.3491610024948,5.390641425916959 130.4364713151618,5.448163514118941 130.63266272376288,5.5755338527484035 130.74154381963572,5.637164661488136 130.86891415820398,5.711121632330918 131.04969786455888,5.8138396473053024 131.35785190948204,6.002840794858171 131.75228908704491,6.253472751334447 131.90944764989447,6.360299487213931 132.0101113046306,6.413712854755712 132.07276929370377,6.5451919140453745 132.22890067646483,6.890324444298084 132.37681461808916,7.227239533536517 132.47850545285257,7.436784284145488 132.59765835022287,7.69152496097584 132.74043639103726,7.975026682488816 132.85856210825781,8.184571432914113 132.9376549798493,8.328376653939477 133.02085657191734,8.472181875148515 133.07940584051397,8.583117331320851 133.14411818994782,8.70637894898399 133.20883053932047,8.821423125694077 133.31360291459433,9.014532993907146 133.38345116483814,9.150120773734558 133.61764823891852,9.540449230514772 133.7686437209921,9.799298628556347 134.03673774001402,10.12799627622948 134.2544999317597,10.403280556544507 134.40549541383328,10.596390424573901 134.67153507261693,10.94563167573171 135.1419835811996,11.566048485870873 135.36077295309505,11.849550207383851 135.833275821916,12.474075738244439 136.17635399193045,12.926035004376631 136.28831662825252,13.069840225157098 136.47423623547863,13.320472181633372 136.7597923170462,13.694365756385032 137.00528837277375,13.998411080647989 137.22818646526815,14.281912801916066 137.33809474135197,14.41750058174348 137.44800301731334,14.55719708204742 137.5620200139349,14.705111023549309 137.62673236336877,14.779067994208416 137.7212329371452,14.865351126970575 137.9441310296396,15.070787156919344 138.20195324728655,15.300875510278294 138.29337228055252,15.378941201842501 138.33754102699152,15.420028407832255 138.40430773678608,15.47755049609546 138.60666222622442,15.658334202450378 138.69705407940185,15.740508614491112 138.78333721198035,15.818574306055318 138.84188648051574,15.8719876735971 138.97747426034314,15.995249291688811 139.19112773148987,16.184250439425355 139.39861812167692,16.369142866256798 139.55577668471017,16.50883936656074 139.9419964208914,16.853971896813448 140.15359553179988,17.047081764842844 140.52543474594592,17.379888133604748 140.83153443056958,17.638737531278974 141.1571505380384,17.914021811532777 141.47865792490822,18.185197370942703 141.88439408405702,18.522112460181138 141.91931820914832,18.546764783836213 142.0117644226865,18.62072175449532 142.06723215077267,18.661808960301403 142.34559797135324,18.916549637499102 142.59828428819023,19.154855432484574 143.21767391842457,19.746511198492133 143.3727781210971,19.890316419517497 143.7035301292534,20.20257918491718 144.021955975674,20.494298347444435 144.62799226402285,21.028432025433688 145.21143058907737,21.54613082078214 145.4908235898689,21.788545336244137 145.6428462519698,21.932350557085826 145.35112708944254,22.306244131653813 144.96696171343834,22.807508044790037 145.32031168501143,23.05403128060611 147.0182404724768,24.204473048441677 147.72391323535084,24.68519335864425 148.4727275645141,25.190565992134548 149.37356455590069,25.79865664078291 149.93132337715036,26.188985097563123 150.69040950781107,26.76009726088193 150.8383234493742,26.895685040893017 150.9204978613537,26.9819681732266 151.64260550662362,27.561297777927035 151.7288886392021,27.631146028109615 151.81311741154232,27.70921171924525 152.038069864275,27.918756469731772 152.21577203030316,28.07488785279896 152.4540778249825,28.28443260328548 152.71087286241846,28.50630351544648 152.87933040691522,28.654217456948366 153.10017413917137,28.851436045699188 153.25425116163296,28.987023825710274 153.2943111875342,29.0240023112235 153.42270870625217,29.134937767212165 153.45249693053353,29.163698811527443 153.48433951511436,29.192459855659045 153.57986726910175,29.278742988176305 153.68155810386517,29.373243561769065 153.75140635410898,29.438983091413895 153.8911028544129,29.562244709321934 154.2721866899679,29.903268519220568 154.4098288300948,30.022421416652076 154.5628786723454,30.15800919623459 154.72722749636563,30.305923137920157 154.82686397082958,30.392206270314965 154.91314710340805,30.470271961879174 155.00662049703473,30.548337653382156 155.50993877047046,30.85238297764511 155.5633521381959,30.864709139564486 156.0738606726186,30.84827425710736 156.35325367341017,30.840056815725735 156.81651192094463,30.823621933329832 156.8514360459747,30.81951321279208 157.07638849882983,30.83183937452778 157.68345196726722,30.811295771410457 158.16930817809606,30.774317286080905 158.35728214556042,30.7619911245901 158.53909303200385,30.757882403685002 158.92736712860702,30.70036031523812 159.13588469906625,30.67570799182794 159.6083875678872,30.622294624041263 159.9761180614955,30.58120741805151 160.42910450753254,30.536011491524004 161.31966969736047,30.43329347654962 161.65144888578894,30.392206270314965 161.92467880555958,30.35933650589051 162.22975131009474,30.334684182235435 162.36328472956143,30.322358020377283 162.64062336999228,30.28948825534058 162.85633120137726,30.256618490916125 163.04738670929083,30.21553128468147 163.13572420210758,30.199096402469245 163.18092012881877,30.182661520073342 163.28158378337122,30.14568303474379 163.33602433130764,30.12513943162646 163.3801930777466,30.104595828509137 163.41819874328715,30.084052225391808 163.4901013537692,30.042965019769404 163.54967780245437,30.00598653419495 163.67088506012414,29.90737723975832 163.78592923689544,29.825202827901258 163.85166876654029,29.79233306304823 163.88967443201958,29.775898180468655 163.92870727777105,29.759463298256428 164.01088168975056,29.7389196951391 164.1361976679581,29.710158651007497 164.26562236682582,29.68550632759732 164.43716145183305,29.644419121362667 164.5912384742946,29.603331915556588 164.7586688387641,29.53759238609543 164.92609920317236,29.45952669434755 165.03703465934467,29.356808679373163 165.1448885750678,29.241764502663077 165.22089990614882,29.13082904649074 165.3143732997143,28.987023825710274 165.36984102780048,28.90895813414607 165.50132008696767,28.67886978078712 165.59684784089384,28.535064559578082 165.68621251392156,28.53917328048318 165.72524535961185,28.54328200077603 165.77968590754827,28.551499441973984 165.84542543713187,28.56793432455356 165.9121921468652,28.584369207010685 166.00566554061436,28.609021530420865 166.02723632363652,28.756935471922752 166.07551379067448,28.913066855051166 166.154606662266,29.143155208410114 166.29430316256992,29.570462150519884 166.32203702667422,29.697832489271796 166.37853193484892,30.014203975454127 166.45146172548073,30.429184755828192 166.49563047191972,30.667490550813667 166.52850023671152,30.83183937452778 166.56547872216353,31.029057963278603 166.60143002734335,31.24682015514675 166.60862028845278,31.370081773177237 166.61170182884078,31.563191641267856 166.64149005318336,32.134303804586665 167.19924887455548,32.02336834816943 167.73954563325952,31.916541612718515 168.6845513710851,31.723431744689123 169.0872059898459,31.641257332587163 169.29264201979467,31.596061405875986 169.77541669011308,31.472799788151622 169.875053164577,31.452256185095518 170.6310577548497,31.27968991975488 171.46923675697946,31.09890621339996 171.61715069854256,31.066036448608155 171.81950518804211,31.020840522264326 172.23448596853862,30.926339948304218 172.96070233440753,30.757882403685002 173.46402060784325,30.642838227158588 174.0813558778393,30.49492428528935 174.3186344923689,30.441510917747568 174.4757930552797,30.400423711512918 174.53536950402608,30.392206270314965 175.4557229182578,30.21553128468147 175.8881657611775,30.129248152286664 176.51063693192228,30.022421416652076 176.6883390979504,29.985442931322524 177.00060186341133,29.919703401677694 178.3821591648168,29.632092959871862 178.7334547760292,29.558135988784183 178.96713826003375,29.50883134178015 179.20441687468676,29.45952669434755 179.56957941785947,29.38146100315069 179.75909415548722,29.344482517637463 180.0883053934801,29.278742988176305 180.22748830383162,29.249981943861027 180.61319444999828,29.17602497320192 180.6907465513049,29.159590090622345 180.8155489394997,29.13904648768869 181.43185702934508,29.036328472714306 181.61161355555024,29.003458708106177 181.66091820279917,28.995241266908227 181.68916565685592,28.92539301654197 181.7353887635944,28.802131398817608 181.76774493837254,28.71584826630035 181.81499522526076,28.58026048628926 181.86584064267308,28.428237824065945 181.94647428436673,28.19404075023047 181.96342275683847,28.140627382076442 181.98191199959413,28.091322735256085 182.02505356588338,27.95984367596642 182.0445699886673,27.906430307996068 182.06716795202288,27.836582058058386 182.0866843748068,27.78316869033293 182.25000601861606,27.339426865398686 182.32242221917204,27.142208276647867 182.3922704694168,26.94909840861847 182.48163514238234,26.714901334354426 182.6023288100394,26.37387752457824 182.70247887457822,26.053397317980608 182.90740131445213,25.408328184002695 183.11848683522447,24.74271544672378 183.34241210792987,23.89631900351852 183.3757954627353,23.78127482662476 183.3963390657302,23.666230650098345 183.44872525336712,23.33753300211909 183.48364937851963,23.091009765935667 183.53500838600684,22.799290603408412 183.5555519889405,22.67192026502385 184.98179162692105,21.669392438690174 185.5934774060935,21.237976775858982 186.52923852244894,20.609342524338196 187.15068251304396,20.21490534665288 187.66786771844,19.82046816915124 187.71717236568892,19.78348968382169 187.79472446705486,19.725967595558483 187.9369889176729,19.61914086010757 187.9749945832134,19.58627109507087 188.17734907271296,19.421922271173077 188.34734738749555,19.282225770869136 188.51015544122995,19.150746711579476 188.89483440730902,18.846701387561417 189.08640350529652,18.694678725338104 189.17474099811423,18.633047916353473 189.3673372761912,18.522112460181138 189.65597489833044,18.361872356576196 189.98569972639822,18.09069679716627 190.134127257975,17.967435179319455 190.27228298817772,17.84828228170427 190.4705287570161,17.6551724134912 190.69856275025924,17.42919278060878 191.08118735610003,17.04297304454999 191.1315191834375,16.997777118022487 191.22756052737637,16.899167823340953 191.36674343766856,16.759471323037012 191.47973325426187,16.644427146326926 191.62405206523968,16.500621925362786 191.81356680292865,16.303403336611968 191.93734201091155,16.171924277322304 191.9815107572893,16.130837071455 192.03132899461312,16.09385858594177 192.32099379677965,15.995249291688811 192.56546267247896,15.950053365161308 192.7518958695972,15.913074879831752 192.92600290504,15.880205114795052 193.0261529695788,15.859661512045072 193.3579321580073,15.798030702754318 193.4873568568138,15.773378379527815 193.65735517165763,15.736399894014585 194.1226677794313,15.493985378736262 194.61828220168272,15.239244701538562 194.6948071228377,15.202266216209008 194.7723592241424,15.165287730695779 195.0070698883598,15.046134833509166 195.08154044921625,15.009156347934715 195.28389493877702,14.857133685772624 195.85911582257233,14.425718022757756 196.1672698674955,14.187412228139632 196.29618097628835,14.06415061029282 196.76354794442182,13.497147167634214 196.8919454631398,13.31225474043542 197.01469349103417,13.127362313420303 197.1256289472065,12.934252445574582 197.2247518316568,12.769903621615567 197.25402646592448,12.568576312204547 197.24734979495116,12.424771090995508 197.21088489963526,12.29329203188952 197.087623281666,12.071421119544848 198.01516695700715,13.201319284263086 198.59911887201406,13.283493696487492 199.3874796370037,13.394429152659828 200.4429072408043,13.56288669709537 201.39869837014095,13.657387270688131 203.18753260091987,13.85460585943895 205.31893141163835,14.14632502214988 205.42883968766094,14.183303507479433 206.58441735612277,14.758524391274765 208.3845505686101,15.765160938329863 209.61100366734303,16.410230072062877 209.72861579454897,16.471860881231184 209.96743517936537,16.595122499322894 210.10661808959443,16.669079469982 210.26274947241674,16.759471323037012 210.32335310125163,16.796449808366567 210.88624782325098,17.178560824132504 211.11479540662927,17.338800927370094 211.25911421760705,17.44151894234448 211.75216068954532,17.782542752243113 211.99354802467388,17.951000296678657 212.12810862429035,18.041392149978563 212.57441839941526,18.337220032982344 212.87897731381338,18.522112460181138 213.5574298026589,18.945310681630705 213.82552382174205,19.11376822624992 214.27080641665603,19.38494378584352 214.5163024724448,19.53696644806684 214.72071132224383,19.6643367864514 215.02989254731673,19.84922921346652 215.23584216734037,19.976599552279655 215.3971094508511,20.062882684796914 215.87012590986745,20.297079758693613 216.12538017701854,20.42034137660165 216.37293059310585,20.53949427397194 216.62099459926995,20.6586471715259 216.79715599495103,20.744930303920707 217.01954049737057,20.855865760276718 217.41551844515806,21.06130179022549 217.68926195506478,21.20921573197228 218.07034579061974,21.41465176192105 218.46375578797165,21.60365290941269 218.81248344874845,21.768001733371708 219.0019981863762,21.854284865705292 219.4015712646878,22.03095985176736 220.0050396026623,22.298026690455863 220.44775424714067,22.491136558485255 220.72971519824537,22.61439817657697 221.05173617519006,22.754094676880907 221.25203630439012,22.844486530303264 221.61000858663706,23.00883535426228 222.27202619308576,23.300554516789536 222.57247638694705,23.427924855174098 222.76096394442504,23.514207987936256 223.09941980376564,23.666230650098345 223.2350075834706,23.727861459082977 223.49693852171652,23.84701435626959 223.69518429055586,23.933297489031748 223.80714692687795,23.98260213628068 224.0957845490172,24.015471900705133 224.24986157147876,24.036015504006134 225.94419522842003,24.257886416167132 226.11727508365186,24.278430019284457 226.62778361807455,24.352386989943565 226.73563753379767,24.368821872339467 226.91333969970336,24.393474196178218 226.99962283228183,24.405800357669023 227.3257525298255,24.45510500491795 227.50345469579145,24.479757328695477 227.65958607849225,24.504409652350553 228.5311484355499,24.631779990551443 228.6960108495838,24.652323593852444 228.86498198421666,24.676975917262624 229.09198879731005,24.775585211760482 229.2137096450547,24.824889858764514 229.32824023175115,24.874194506013442 229.4283902964124,24.915281712248095 229.62560888516322,24.997456124105152 229.81255567235536,25.079630535962213 230.06575557926723,25.18645727165802 230.39958912793398,25.33026249243849 230.4761140490899,25.36313225747519 230.63789492267455,25.432980507412875 230.9501576881967,25.56856828742396 231.17613732114035,25.667177581493245 231.42111978685423,25.75756943473193 231.79039105068716,25.889048494021594 231.8689703322038,25.91780953833687 231.95936218532003,25.950679303006225 232.08673252394948,25.99998395019393 232.29319573398678,26.073940921097936 232.41594376194237,26.094484523970362 232.59261874775956,26.11913684762544 232.68968727184912,26.135571729837668 233.06358084629466,26.188985097563123 233.15808142007108,26.201311259482498 233.24436455264959,26.213637421401874 233.33783794627627,26.225963583260025 233.46520828490574,26.24239846571715 233.5612496288446,26.254724627207956 233.71173152078302,26.275268230141606 233.81188158544427,26.287594392244657 233.9757168192672,26.312246715654837 234.0347796779387,26.31635543637626 233.9962604223233,26.79296702591863 233.9669857879944,27.133990835449918 233.90484138893487,27.910539028717494 233.91870832101765,28.29265004429976 234.01988556570618,28.670652339527944 234.15239180502314,29.028111031516353 234.34704244346082,29.51294006244035 234.51755434831927,29.94846444599297 234.71220498663354,30.363445226183362 234.82570839324146,30.61407718284331 234.86320046864589,30.69214287404017 234.9936523477858,30.901687624894038 235.11845473585723,31.11123237513566 235.24993379508567,31.271472478556927 235.45691059519783,31.538539317612777 235.6977843403118,31.834367200861458 235.7871490133405,31.95352009804807 235.90989704123487,32.13019508368156 236.0901671575149,32.38904448172314 236.2118880053208,32.56571946735663 236.3228234614319,32.71774212939627 236.41013377422135,32.849221188502256 236.54366719362682,33.07520082175203 236.75577989461016,33.41211591080679 236.9247510291818,33.695617632074864 237.26936996948209,34.287273398143654 237.56879298313243,34.74334138475237 237.96066221019848,35.39662795992824 238.14401386692776,35.66780351952184 238.37667017084473,35.98417500582662 238.636033158656,36.37039474194663 238.66530779298398,36.44024299206799 238.6781475448558,36.658005183752465 238.70074550808891,36.990811552453145 238.70279986844963,37.28663943570182 238.69098729672757,37.51261906858424 238.68122908524379,37.94403473153789 238.67712036470604,38.18644924663254 238.66941651358295,38.89314918977876 238.67198446389608,39.17254219057031 238.65965830209916,39.48069623549347 238.65041368075148,39.825828765746174 238.67506600434533,40.31476651720792 238.6827698555296,40.69276881206876 238.74080553392892,41.013249018911296 238.81476250477172,41.30496818137732 238.88152921444384,41.62133966755965 238.9590813157495,41.92538499176138 239.03149751630644,42.22943031614679 239.15321836411232,42.73891167035851 239.30267307590003,43.3839808045201 239.42439392358347,43.926331923523634 239.49372858369117,44.24270340964474 239.56768555453397,44.5508574545679 239.64883278636373,44.92885974979608 239.68940640221737,45.07677369135919 239.7274120677579,45.27810100040287 239.78133902568067,45.62323353083925 239.8414290644407,45.91084397264508 239.89124730164204,46.17380209104073 239.9739353037586,46.56002182752809 240.0201584104349,46.70382704830856 240.16036850087494,47.06950318167859 240.2820893486808,47.3694397854038 240.3390978469916,47.51735372690569 240.40894609711293,47.661158948114725 240.51371847244803,47.854268815960445 240.710423471124,48.23227111143353 240.81519584633665,48.429489700184355 240.8799081957705,48.585621082884195 240.98724852141777,48.737643745107505 241.1233498912598,48.910210010019576 241.36422363637567,49.23890765806006 241.44074855753064,49.32929951111507 241.44845240865374,49.43612624681088 241.39914776152725,49.752497732931985 241.3010520572267,50.31539245505284 241.24507073906565,50.582459293741344 241.1962796818916,51.00565751574193 241.1911437811429,51.08372320706124 240.83676662948125,51.25218075131311 240.74945631681425,51.301485398562036 240.87117716449865,51.52335631090671 241.20501071316443,52.25470857764678 241.39349827064243,52.488905651910834 241.6271817547704,52.76008121132076 241.71141052698815,52.86690794677167 241.9923442979431,53.29421488931001 242.15617953182723,53.49143347781593 242.34774862975542,53.6968695077647 242.42632791127014,53.79547880226256 242.47820050883317,53.94339274376445 242.58245929397094,54.27209039180493 242.70418014171653,54.633657804269866 242.822819449011,54.958246731772604 242.92091515331154,55.22942229118253 242.99641289437892,55.426640879933345 243.10940271078954,55.66905539521167 243.22239252732257,55.87038270486759 243.3333279834337,56.08403617601431 243.67281102298526,56.59351752998114 243.80069495162837,56.798953559929906 243.9172798986855,57.00849831078378 244.23262420459565,57.665893606619846 244.27679295109587,57.789155224344206 244.31325784628933,57.99048253400012 244.44576408560627,58.82044409480948 244.4837697511468,59.04642372787558 244.52331618691196,59.231316154707024 244.60754495919093,59.617535891133166 244.67328448883578,59.88460273006656 244.76059480150278,60.246170142531504 244.8586905058636,60.546106746256704 244.89310104094218,60.636498599679065 244.99735982601777,60.79673870273298 245.10829528219108,60.95697880615425 245.32246234341267,61.2815677334733 245.51454503141477,61.544525851868954 245.64807845088146,61.83624501457988 245.8894657861325,62.378596133583414 246.01118663381592,62.67031529604944 246.10568720759235,62.925055973063465 246.1606413456046,63.14281816493161 246.331666840536,63.40988500398746 246.41897715326422,63.57012510704138 246.8575830773273,64.25217272653252 247.0558288461054,64.45760875648129 247.32905876593728,64.71234943386267 247.69524848938218,65.06159068477558 248.07992745540002,65.41494065628746 248.20472984365514,65.53409355365775 248.2858770754849,65.62859412743418 248.48925874507393,65.82992143647786 248.0604110325549,65.98605281954504 247.92071453218972,66.06000979020415 247.61358766747756,66.24901093757335 247.327004405699,66.52429521788838 247.11951401538954,66.84888414502376 246.98700777607257,67.11184226360308 246.87607231989927,67.37890910229159 246.80262893919354,67.54325792661795 246.66344602896447,67.91304278028083 246.47290411112579,68.44717645827009 246.38816174877286,68.67726481162903 246.20070137144364,69.0470496657205 245.96907224767642,69.4086170783691 245.85813679150408,69.54831357867305 245.6470512707317,69.78251065293709 245.57360789014749,69.86879378551558 245.36046800895318,70.07012109474293 245.2700761557757,70.15640422750508 245.16427660035114,70.25501352157437 244.9013184820789,70.46044955152314 244.74313273901836,70.53440652236593 244.51920746637418,70.62479837584951 244.36102172331363,70.70286406716882 244.19513212913,70.77682103782792 243.50897578903988,70.99047450897464 243.12635118325935,71.15071461221223 242.90139873052763,71.25754134790805 242.65025318391525,71.39312912767423 242.4222191906721,71.52871690750165 242.16491056310005,71.75058781966264 241.8382672754815,72.00121977613891 241.3493295243259,72.3751133507069 240.86809562404844,72.66272379288009 240.65136061251278,72.76133308719426 240.03299816230668,72.99142144055321 239.43107059461803,73.21329235289788 238.18818261336673,73.59951208920158 237.76138926120842,73.73509986921266 236.88571818349152,74.08023239946537 236.39575325206468,74.26512482648049 235.64539815267582,74.59793119481382 235.26585508734547,74.77049746015446 234.95051078143533,74.92252012231656 234.19450619116265,75.23889160849889 233.90484138893487,75.38680555000077 233.6105542760945,75.55526309461999 233.38200669271527,75.70317703612189 232.9911646457377,76.01133108104504 232.66606212834378,76.26607175824273 232.32144318816594,76.51259499381392 231.85407621997126,76.80020543580342 231.79347259113638,76.84951008305235 231.4919952172478,76.98920658335629 230.89417637003564,77.16588156917345 230.66716955694224,77.21518621642238 229.7591423046299,77.29736062827943 228.35858217045418,77.53155770235982 227.6739666006499,77.60551467320259 226.58823718230943,77.72055885009635 226.01917937935133,77.78218965901976 225.72437867637484,77.81505942405647 225.29861250436724,77.8314943062687 224.99302640975722,77.82738558554728 224.63094540703372,77.84792918848092 224.47070530361248,77.87258151225845 224.3048157094298,77.91366871812575 224.16460561905004,77.96297336555835 224.00077038510466,78.02871289501951 223.82512257949847,78.11910474807452 223.68850761958254,78.18895299844078 223.49591134150555,78.28345357215599 223.3028014733537,78.38206286647018 223.12509930750926,78.46834599923233 223.00440563991435,78.50943320522208 222.89141582338226,78.5505204110894 222.82156757332118,78.58339017588119 222.5909656295812,78.64502098486582 222.46821760168683,78.70254307331271 222.26021362142492,78.79293492636772 221.99211960228055,78.92030526511962 221.67420734599605,79.06821920643785 221.1744842030835,79.30652500123963 220.9289881473569,79.42567789860993 220.7307423783951,79.52839591358432 220.63726898482963,79.59824416395057 220.4970588943896,79.7050708992178 220.44415911661656,79.77491914958406 220.4035855007017,79.82833251730952 220.30446261631263,80.02555110606033 220.22485615464626,80.14881272415205 220.16990201663495,80.247422018405 220.0579393803129,80.40355340110484 219.99117267064076,80.48161909248539 219.92954186159488,80.53914118093226 219.85096258020073,80.61720687249647 219.77751919949404,80.6829464021413 219.71640198052305,80.74046849034329 219.63782269906764,80.80620801980444 219.5900588221658,80.84729522585542 219.51147954064916,80.89659987328803 219.42776435844502,80.9500132408298 219.2896086283657,81.02807893239401 219.12936852494443,81.1266882264633 218.95680225990992,81.2211888004234 218.83097269144386,81.28692833006824 218.70257517272586,81.35266785971307 218.46683732835965,81.47592947762111 218.25883334809774,81.59097365445363 218.1273542888693,81.65260446343827 218.0287449944939,81.714235272178 218.2901623426037,81.98951955249304 218.43910346431656,82.1333247732735 218.8869540096661,82.60993636281587 219.1776459919824,82.88932936342374 219.7184563408828,83.4522240855446 220.31832954827294,84.05620601383889 220.99575485702903,84.75879723608 221.29517787067934,85.06284256046541 221.8303387286959,85.61341112091179 221.90070056901456,85.71612913588618 222.04296501969287,85.99141341577263 222.17290330863548,86.25437153416829 222.32698033109705,86.53787325568126 222.4081275629268,86.6940046383811 222.58788408913296,87.0391371686338 222.72141750859868,87.25279063959685 222.84621989685473,87.47466155194152 222.9540738125769,87.66777142039949 223.15745548216495,88.02112139185016 223.39781563726623,88.45253705462012 223.58424883438352,88.77301726127898 223.74140739735554,89.04008410039606 223.81895949859998,89.18388932117652 224.06548273459975,89.60297882245568 224.2431849004442,89.9152415879166 224.3443621452552,90.09191657355008 224.56828741783812,90.4863537512354 224.7829680691346,90.86024732580339 224.86668325139993,91.0122699877818 225.15429369326796,91.50942518007415 225.40441205972962,91.9531670050084 225.56722011346403,92.25721232921012 225.7675202426641,92.58590997725061 225.89232263085796,92.77901984528 225.98785038484536,92.93925994851759 226.15373997896776,93.18167446397959 226.34222753644576,93.46928490578541 226.64730004098092,93.94178777503494 226.86608941293758,94.2622679814489 227.08693314501005,94.59918307050366 227.21687143401388,94.79229293896162 227.5101313667045,95.22370860173159 227.58871064822117,95.31410045503151 227.7458692110698,95.43325335221812 228.00523219888106,95.65101554408626 228.14441510923257,95.75784227953717 228.70320111063202,96.20569282476427 229.1751903894393,96.58780384071387 229.32926741190087,96.73160906155557 229.85826518901897,97.21232937175814 230.59475335638533,97.87794210848604 230.8500076236579,98.1367915065276 231.1884634829985,98.43261938959262 231.66764302285398,98.85992633170238 231.84534518869845,98.98729667027062 232.02818325535284,99.15986293561126 232.23516005552625,99.34886408316413 232.63576031392634,99.71043149581274 233.0990185614608,100.13362971762966 233.81393594568254,100.8156773371208 234.0316981374292,101.01700464616447 234.2997921565726,101.25531044090505 234.66290033950708,101.56757320636595 234.8847712517905,101.76890051577696 235.10561498398545,101.98666270746143 235.38449439464088,102.2496208258571 236.28584497610234,103.13710447529701 236.5477759142258,103.34664922590598 237.23187789401643,103.86434802131565 237.4665885582329,104.06567533072668 238.07159766637082,104.56693924392412 238.41878455698424,104.86687584764933 238.89693691681245,105.28185662783972 239.40847263126244,105.70505484965663 239.76593132337328,106.00910017404203 240.40689173687468,106.57610361688432 240.49420204954072,106.84317045557282 240.63543932013147,107.31978204493151 240.707341930736,107.56219656039352 240.8691228042594,108.13741744418886 240.97646312990764,108.4907674158844 241.1952525018643,109.35770746220699 241.28564435491836,109.65353534521077 240.73969810533143,110.02332019924101 240.63749368049218,110.10549461134296 240.5696997906091,110.30682192038664 240.3842937735191,110.81630327496572 240.21737699918572,111.28058870258872 240.0915474308421,111.6051776297241 239.92103552598462,112.05713689585629 239.86197266737435,112.20094211682043 240.01040019901234,112.36529094077945 240.41664994823603,112.85011997133608 240.51885437319677,112.96516414798495 240.5943521141417,113.05144728056344 241.03603957859278,113.52805887010581 241.23428534743212,113.72938617957806 241.4582106200763,113.95947453293701 241.73709003073174,114.25941113684588 242.14077182964326,114.66617447620567 242.69236757005476,115.34000465413152 242.95943440892597,115.668702302172 243.40779854435135,116.26857550980608 243.61991124521222,116.52331618694255 244.1658574948011,117.20947252678778 244.5258841372863,117.66554051321282 245.03741985191996,118.35169685342538 245.1555455690793,118.4461974271406 245.64499691049346,118.83241716326062 246.03994767806998,119.13646248789091 246.25873704990417,119.30492003251013 247.50059785094354,120.29512169667953 247.61666920786556,120.39373099099372 247.96796481907796,120.68134143279954 248.4075979231683,121.04701756616959 248.9016715751951,121.46610706726507 249.36082110219184,121.8317832006351 250.41727588620338,122.71104940887707 250.7459735340602,122.98633368913087 250.91032235808044,123.13835635098684 251.12911172991465,123.26161796926222 251.6848161909873,123.57798945519966 252.08695721961203,123.8121865294637 252.39254331409958,123.98475279455944 252.60722396539606,124.11623185384911 252.96262829720743,124.32577660433563 253.2738638825798,124.50245158996913 253.69603492418577,124.7530835464454 254.19575806697492,125.04069398861857 254.8675338849074,125.41869628372432 255.17363356953106,125.59537126935781 255.64202771781427,125.85422066703204 255.87468402179246,126.01035204973188 255.95018176273743,126.09663518231035 256,126.19524447699189 255.86492581030868,126.2075706384827 255.6322695063917,126.24454912399592 255.45456734054724,126.26098400645304 255.26505260285828,126.25687528573162 254.9440588060633,126.1911357560868 254.73502764559043,126.14593982955928 254.53934982712548,126.11717878524401 254.32364199561803,126.10896134422973 254.1526165006857,126.1336136676399 253.98364536617527,126.18291831488884 253.73455417980117,126.29385377106118 253.60667025115805,126.37602818328558 253.42023705391833,126.48696363945791 253.2358582170393,126.59379037478638 253.0021747330338,126.7663566400658 252.84398898997324,126.90605314061463 252.671422724756,127.05396708211653 252.53686212519983,127.19777230308067 252.38483946297652,127.37033856823763 252.22459935973987,127.5305786716589 252.09620184102093,127.64151412764755 251.96164124128205,127.76066702483418 251.845569884361,127.84695015759632 251.6956015824984,127.92912456945339 251.49530145329834,127.97432049598089 251.18303868783744,128.01951642287574 251.28729747309765,128.28658326180914 251.70998210465604,129.16174074914602 252.14191135762331,130.16015985475826 252.335534815851,130.57514063537724 252.4259266689653,130.77235922406683 252.5065603107824,130.9490342099452 252.7330535338009,131.44208068169982 252.89123927686146,131.79543065315048 253.01963679557943,132.07893237466345 253.31135595810574,132.71989278791995 253.47416401184108,133.06091659781856 253.28773081460136,133.1225474068032 252.64266168062343,133.32387471584687 252.2954747899488,133.43070145172635 251.6776259298769,133.61970259927924 251.45010552671056,133.68955084921691 251.1229486490162,133.7963775850964 250.8902923450992,133.86211711455755 250.54875494530938,133.96483512953193 250.25138629201976,134.05933570324714 249.89290041969792,134.14561883564195 249.77323393225277,134.1702711594807 249.65562180516832,134.2154670860082 249.49332734150784,134.2935327775112 249.37879675475114,134.33872870409994 249.13997736993568,134.41679439523557 248.90064439504536,134.490751366262 248.6412814072953,134.56470833692111 248.38140482934986,134.64688274902306 248.02856844791285,134.74960076399745 247.70860183132885,134.83999261705247 247.48878527922244,134.8892972643014 247.35165672923165,134.91805830861668 247.1893622655721,134.96736295543704 246.99625239742028,135.0536460880155 246.81546869106631,135.13582050005624 246.617222922226,135.21799491228066 246.4739312912755,135.2796257212653 246.29982425595517,135.34947397120297 246.13290748162177,135.4275396625835 245.96701788743815,135.51793151600586 245.6049368845922,135.715150104573 245.21049970709058,135.93702101710136 244.7647035222242,136.179435532196 244.44935921613038,136.35200179735298 244.14223235135697,136.52045934197218 243.89776347571794,136.65604712192206 243.69849052672885,136.77109129844845 243.51205732948912,136.87380931342284 243.32254259186138,136.97652732839722 243.14689478637763,137.07102790217368 242.70623450201506,137.30522497643773 242.4643335767504,137.42437787362434 242.23167727283342,137.5435307711783 242.0678420390105,137.6339226244782 241.92455040805999,137.70377087441588 241.6651874203109,137.82703249232392 241.48080858343093,137.9174243455626 241.27742691372137,138.02425108125843 241.05863754182593,138.13929525815217 240.56199593942478,138.41868825894372 240.2851708890688,138.57892836212008 240.083843579719,138.69397253883017 239.75103721120297,138.88708240704324 239.20149583108903,139.1952364519664 238.42854276840583,139.62665211498128 238.2657347146724,139.7334788504934 238.0063717269233,139.9101538361269 237.79836774653896,140.05395905733593 237.50973012452215,140.2593950872847 237.27604664039418,140.44839623477634 236.9632702847972,140.7031369116067 236.64792597882584,140.96609503018604 236.53185462190478,141.0811392070798 236.45173457028503,141.22083570738374 236.39934838258782,141.32766244265096 236.28481779595165,141.55775079637726 236.11276512080929,141.9193182090871 235.91657371226944,142.32197282797037 235.76917336071998,142.60958326977618 235.61406915816985,142.88897627038406 235.43842135256367,143.19302159476948 235.3244043558809,143.39845762471825 235.25763764620876,143.5299366840079 235.15491963123438,143.74359015515464 235.05836469709723,143.9490261851034 234.9083963952346,144.26128895038065 234.8180045421184,144.44207265691924 234.65981879911905,144.7502267018424 234.5303941001901,145.00085865831866 234.3840209287904,145.2925778210296 234.19091106063757,145.69523243966796 233.97674399941695,146.1225393820226 233.76668565879433,146.55806376514667 233.5612496288446,146.97715326624214 233.17554348261675,147.77013634190564 232.9644579619056,148.19744328419907 232.56026257292018,149.00275252159824 232.41594376194237,149.3109065665214 232.31938882780523,149.5204513171916 231.8099074735323,150.59693611412317 231.7190020303412,150.79826342341173 231.37695104047648,151.50496336631306 231.189490663087,151.8994005438147 230.82330093970333,152.66362257534658 230.59988925713404,153.11147312057366 230.35439320134526,153.62095447515273 230.13509023943615,154.0811311820543 229.9204095881397,154.55363405093647 229.4607464710681,155.560270597563 229.313859709715,155.79035895110562 229.1685137185272,155.95470777524832 229.04062978982287,155.86842464248616 228.72939420444953,155.73694558338016 228.21631771965437,155.58081420068032 228.03656119344728,155.5191833916957 227.81828541162767,155.43290025917844 227.63698811519788,155.3178560822847 227.38481538843578,155.08776772892574 227.11672136935263,154.85357065484536 226.98318794988592,154.75907008088524 226.91333969970336,154.73441775741384 226.86711659296486,154.73852647776792 226.78186064053614,154.77139624255972 226.7443685650705,154.80426600741276 226.6709251843638,154.86178809585962 226.5923459029084,154.93163634616465 226.5224976527861,155.00559331682376 226.46754351477574,155.09598517012367 226.39974962483143,155.17815958198074 226.3566080586034,155.21102934677253 226.2831646778967,155.2397903910878 226.14654971798078,155.25622527354494 226.0181521992628,155.2315729497062 225.78755025570652,155.17815958198074 225.66582940783942,155.14939853766546 225.51740187626268,155.09187644921857 225.4182789918124,155.04668052269108 225.31042507602805,154.92752762550447 225.25906606854087,154.80426600741276 225.22362835337472,154.68511311022613 225.1686742153634,154.53719916872424 225.10807058652853,154.45502475643863 225.02640976462388,154.3481980209877 224.93344996107209,154.26602360913066 224.82046014459928,154.17974047655215 224.6458395191438,154.08934862325225 224.43269963807194,154.01539165259314 224.36079702765207,153.99484804953704 224.30789724987807,153.99895677001356 224.24986157147876,154.02771781414518 224.18206768159567,154.07291374067267 224.12146405276079,154.1098922263696 224.0331265598216,154.13454455002466 223.89086210914328,154.0811311820543 223.70494250197842,153.99484804953704 223.48615313008298,153.88802131384125 223.20367858890341,153.71956376922202 223.00029691931442,153.62095447515273 222.83440732519296,153.51823646017834 222.7157680177751,153.39908356274682 222.65465079898777,153.31280043022957 222.6027782013645,153.1607777678226 222.45229630942703,152.6841661782802 222.3572821455145,152.30205516269797 222.31105903883724,152.129488897541 222.27664850382084,152.0432057650237 222.20628666350214,151.97335751465747 222.11384045008643,151.87474822058817 222.05785913186415,151.79257380830256 222.03217962812056,151.69807323477102 222.01779910602414,151.61179010219254 222.0095816648262,151.5008546460202 221.97517112980978,151.41868023391825 221.9017277491031,151.34472326325914 221.4620946450127,151.03656921833598 221.3747843323457,150.958503526833 221.2941506905296,150.82291574718926 221.21557140913544,150.62980587879252 221.11747570483487,150.43258729004168 221.02194795084748,150.2887820692 220.97521125403415,150.23536870129087 220.90536300385156,150.16962917164605 220.76874804393563,150.07512859805328 220.54122764076737,149.93543209756567 220.31730236818441,149.8162792001954 220.1493584137013,149.73821350881485 220.03277346664416,149.7176699061261 219.91002543881098,149.713561185221 219.74105430411691,149.70534374402305 219.6095752449497,149.72177862641894 219.50839800026114,149.73821350881485 219.42673717835652,149.75053967055055 219.32966865414448,149.77930071486583 219.24235834147748,149.8203879211005 219.17559163168292,149.85325768552494 219.10214825103745,149.90256233295753 218.98813125435467,149.99295418601255 218.83713577234232,150.12443324511855 218.6825451598671,150.24358614248882 218.5865038158048,150.31754311351528 218.49611196262734,150.37506520159482 218.3754182950315,150.43258729004168 218.31481466632002,150.45313089315903 218.22134127257183,150.4654570550784 218.08472631265397,150.44080473123964 217.9388667313913,150.42436984884375 217.80430613183609,150.4038262459101 217.65587860013687,150.39560880471214 217.45557847093684,150.38328264297644 217.27787630509238,150.37095648130196 217.17002238930803,150.3463041574632 217.04213846072616,150.29289078973775 216.91374094200816,150.19017277476337 216.82129472847,150.0586937154737 216.75760955918588,149.90256233295753 216.71960389364537,149.7299960676169 216.67029924651888,149.65603909677412 216.59480150545147,149.623169332166 216.45150987462344,149.59851700869459 216.26867180796904,149.65193037648126 215.85163666711182,149.77108327366787 215.54245544203891,149.90667105361774 215.28206527407883,150.0299326713421 214.78336931143943,150.23536870129087 214.6411048606999,150.27234718662044 214.463402694733,150.30521695165714 214.30624413182218,150.3298692750673 214.11878375449393,150.36684776039687 213.7957355973995,150.45313089315903 213.69969425345965,150.46956577537125 213.64679447568662,150.46956577537125 213.46087486864423,150.32576055477446 213.3150152873806,150.20249893668276 213.10649771692135,149.997062906734 212.4526975516094,150.61337099658027 212.15943761891876,150.89276399737184 211.5734313434899,151.4515499985876 211.14920594164568,151.86242205848512 210.5806617287615,152.40477317767233 210.2411786892109,152.74168826691078 210.0840201263613,152.88549348787492 209.7137216823174,153.27993066519286 209.17907441437575,153.83871666659232 208.70862590579307,154.29067593254084 208.32856925044905,154.70154799243838 208.1097798784924,154.93574506670242 207.8555527914308,155.206920626296 207.64549445080817,155.4411177003764 207.36199272953914,155.73694558338016 206.9593381108405,156.15603508447566 206.59109402715734,156.53814610005793 206.46834599920172,156.66551643887107 206.28191280202225,156.86273502756066 205.31893141163835,157.8981326185637 204.87210804649976,158.382961649304 204.29688716270445,158.99105229795236 204.00516800011596,159.29509762197043 203.455626620003,159.87031850613312 203.1120348599749,160.24010336004088 202.60049914534028,160.44143066908455 202.37297874217202,160.52771380166305 201.30060266590164,160.95912946486158 200.78752618110457,161.17278293582464 200.19227528432802,161.3946538481693 199.6124320897364,161.62474220195682 198.95863192442442,161.87948287872595 197.9935961738013,162.25748517401536 197.0265060628787,162.65603107199354 195.78464526177714,163.1449688234553 195.36812371099478,163.3093176471694 194.87148210859363,163.49010135370798 194.56230088352072,163.6133629717997 193.5679904986299,163.99547398756565 193.09291967937338,164.17214897319914 192.03749207545033,164.56247742997934 191.64100053771045,164.693956489269 190.90143082989488,164.94047972502386 190.25071220503213,165.1870029610236 189.61540128235436,165.44585235869783 189.07048221291524,165.6636145503823 188.58000369141254,165.8937029041086 187.80448267835592,166.251161596097 187.39669215903007,166.45659762604578 186.49585516758228,166.90033945098003 185.96274866992644,167.16329756931447 185.1517899416434,167.56595218801405 184.28895861591883,167.9891504094636 183.86062449347563,168.23567364564704 183.74609390671796,168.3096306164898 183.23044947154656,168.667089308417 182.67885373119535,169.04920032399926 181.71381798044976,169.70659561989655 181.03639267175492,170.1462287239257 179.06112524373626,171.74452103717203 176.73764374501567,173.63453251270073 175.3232166788184,174.7973004420883 173.5287329572771,176.2682224165215 172.49538972657356,177.1310537421839 171.16519143265526,176.01759045986157 170.8888799724354,175.80393698871484 169.44980058264426,173.83175110145154 168.48527842197356,172.48819946540291 167.91108471826675,171.69521638973941 166.54288075880794,169.79698747313523 164.9209633023624,169.88737932643514 162.49784532911664,170.01885838554114 160.33049521327956,170.13390256237366 157.377352282766,170.29003394513472 156.67886978087895,171.6828902281874 156.54944508195,171.96639194933303 155.96497957686822,173.1373773202859 155.52637365280512,174.04129585193806 154.86589681651984,175.4136085319346 153.03032588892756,178.4581704958366 151.43922383697435,180.5823790454457 150.96363942764293,180.32352964758778 149.6385770345346,179.752417484269 148.44293934017153,179.25115357131642 147.8892892394596,179.02517393825033 147.04289279607065,179.1771966006573 146.04652805081912,179.3086756597633 145.61511238798792,179.15665299754 145.09844077260556,179.0087390560381 144.86629805882467,179.00052161484015 144.56841581533772,179.00052161484015 144.44515419736845,179.00463033531668 144.30237615655406,179.04571754136765 144.1411088730443,179.07858730634314 143.86993331363436,179.08269602669722 143.62443725778434,179.08269602669722 143.23616316118117,179.07858730634314 143.13652668665603,179.09502218880027 142.9485527192529,179.17308788011957 142.76160593193828,179.25526229197663 142.6188278911851,179.33743670407858 142.51610987621072,179.431937277855 142.46988676947225,179.51411168971208 142.39798415892895,179.69078667552924 142.33327180955632,179.8510267789505 142.21720045263527,179.9537447939249 141.9768402975952,180.10987617644105 141.76421400665944,180.20437675040117 141.59575646204024,180.27422500052253 141.38313017104326,180.33174708878573 141.35642348714993,180.43857382448155 141.2465152110661,180.57416160406405 141.10373717031294,180.68509706042008 140.8972739601532,180.80835867832812 140.69697383101436,180.9151854140239 140.55419579013875,181.00557726707893 140.385738245642,181.13294760583085 140.23474276362964,181.27675282648886 140.07963856095708,181.36714467972755 139.9368605201427,181.46986269470193 139.74272347190234,181.5150586214131 139.46435765132173,181.54792838608245 139.2126985146345,181.57668943039772 138.922006532257,181.58490687141202 138.61179812697313,181.58490687141202 138.42382415957,181.6013417538079 138.26152969591047,181.64242896004257 138.0930721513525,181.71227721016393 137.91845152589602,181.7780167396251 137.56304719408465,181.93825684304633 137.30419779641042,182.02453997562483 137.11622382906853,182.06973590215233 136.81217850468312,182.1313667112594 136.57387270988133,182.13547543179718 136.19895195528605,182.13958415251858 135.87436302796698,182.13958415251858 135.63503005307666,182.17245391712672 135.46040942755897,182.21354112336138 135.1964241290748,182.28338937329906 134.8862157239134,182.39021610899485 134.63866530776392,182.45184691791826 134.50615906844695,182.43952075618256 134.2544999317597,182.48471668295497 133.87341609620472,182.49293412396923 133.6145666985305,182.46417307983765 133.42659273112739,182.4313033149846 133.26532544755636,182.38610738827344 133.08351456111293,182.32858530001022 132.93560061948858,182.3080416971378 132.7085938063952,182.3080416971378 132.5278101001015,182.34091146174595 132.3727058974902,182.38199866798058 132.2309550367643,182.41486843240503 132.12104676080295,182.43952075618256 131.95977947723193,182.41486843240503 131.7009300795577,182.32858530001022 131.48214070760105,182.25462832935114 131.0681871073155,182.10671438748187 130.62239092232667,181.9546917256259 130.25466042871838,181.82321266633625 130.07387672230223,181.76569057813427 129.89925609690698,181.72871209262104 129.79551090172163,181.73282081309756 129.30349160999432,181.8889521957974 128.87721184791187,182.0327574168228 128.51461725499107,182.1313667112594 128.35334997148126,182.17245391712672 128.15715856294142,182.22586728503586 127.78840088912216,182.3080416971378 127.40012679258021,182.3532376236653 127.03855937980914,182.33680274120817 126.70883455174136,182.27106321180824 126.3791097236736,182.18888879952263 125.90044377389296,182.04508357874215 125.49984351555408,181.89716963724027 125.12492276083634,181.79445162226588 124.65961015300238,181.68351616584863 124.45931002386355,181.6136679157273 124.32577660433563,181.59723303351507 124.07411746770961,181.6876248863864 123.89333376129346,181.73282081309756 123.76390906242574,181.7821254603465 123.61496794071289,181.82321266633625 123.38898830783046,181.79445162226588 123.214367682374,181.72460337189963 123.07672554230832,181.6794074453721 122.95859982502657,181.6588638422548 122.75419097522753,181.72460337189963 122.47171643404798,181.7903429013608 122.23443781951838,181.8437562694536 121.99715920486632,181.87662603412295 121.75371750937703,181.9012783575331 121.33257364798204,181.95058300496572 121.08296887165551,181.97112660808304 120.86520667990982,181.98756149029526 120.70804811693779,181.9916702107718 120.50980234809845,182.01632253461054 120.18110470011919,182.12314927006148 119.99723945331503,182.19710624072056 119.77947726156934,182.29982425569494 119.61512843767154,182.3778899470755 119.41174676796105,182.476499241757 119.22069126016991,182.55045621241612 119.07483167890628,182.57099981547222 118.78619405676703,182.59976085942017 118.43592562570439,182.64084806547115 118.03429818715453,182.698370153918 117.71792670103343,182.73534863943124 117.51454503138415,182.7723271247608 117.35019620748636,182.82163177200974 117.12627093478098,182.92845850727696 116.7513501801857,183.11335093429207 116.45449511684849,183.2653735965154 116.0610851194966,183.44615730305398 115.8433229277509,183.53244043538757 115.56598428738128,183.61050612676812 115.23112355850357,183.69678925953028 114.81614277800705,183.78718111258527 114.50079847209692,183.85702936295152 114.18442698603702,183.92687761288923 113.89476218368681,183.9843997013361 113.62461380430418,184.02137818666566 113.38219928896463,184.05424795170237 113.22401354590407,184.0624653929003 113.07815396464045,184.14053108403593 112.76897273956756,184.50209849692945 112.50498744108339,184.8102525418526 112.24921958385839,185.0526670573146 112.03762047294992,185.22523332222667 111.77466235467674,185.4224519109775 111.6164766116774,185.54160480853145 111.4726713905908,185.61556177919056 111.11007679779246,185.74293211782003 110.79370531167135,185.85386757399235 110.35304502743124,185.99767279477283 109.72646513602626,186.19489138352364 109.24574482594615,186.3551314869449 108.94991694288113,186.4455233401836 108.47535971363826,186.6386332084579 107.95560655792909,186.82352563510565 107.54781603841955,186.9673308563147 107.17905836466151,187.07826631248702 106.80721915045423,187.19331048931957 106.41997223406203,187.31657210704392 106.1693402774633,187.39874651926834 106.0450514793443,187.45626860734788 105.88481137604548,187.54255173992635 105.73484307418288,187.63294359316504 105.63007069884779,187.674030799216 105.49756445953082,187.7069005641915 105.32705255467334,187.71511800545068 105.1431873078692,187.73566160813942 104.88639227043323,187.8219447407179 104.76107629216449,187.8548145057546 104.64295057500516,187.89179299108415 104.45805814799004,187.99861972653508 103.77395616826064,188.3026650509817 103.60344426346438,188.38483946302244 103.37232872977202,188.51631852212842 103.22852350874666,188.60260165464567 102.99124489421705,188.7217545520772 102.74780319872775,188.82036384633014 102.54133998856801,188.91075569956882 102.40986092946203,188.97649522902998 102.1397125500794,189.05045220011766 101.96303756426224,189.0956481266452 101.8171779829986,189.13262661197473 101.63331273619445,189.18603997951652 101.52135009987238,189.22301846502975 101.35700127597458,189.2641056712644 101.08685289659195,189.292866715396 100.8238947781963,189.31341031826844 100.6996059800773,189.31341031826844 100.55374639881367,189.33395392120207 100.42226733964645,189.36682368623877 100.26510877679686,189.40380217156834 100.09356969178964,189.40791089186118 99.81109515061009,189.47365042150602 99.60052321985137,189.51062890683556 99.38276102810568,189.52706378941514 99.11363982893401,189.53528123067431 98.989351030815,189.54349867187227 98.69557750792704,189.54760739253248 98.58361487166619,189.5558248337304 98.48603275737929,189.56815099528245 98.34017317623811,189.60923820151712 98.20253103611121,189.6544341280446 97.76906101285809,189.78180446642918 97.53178239826725,189.83932655487604 97.32121046763099,189.86397887865357 97.1106385369335,189.90506608433722 96.907256867223,189.92971840811472 96.72955470137853,189.95026201104838 96.51179250963283,189.96669689362795 96.33409034366592,189.99134921709935 96.1111922511715,190.0242189817075 95.90678340137248,190.06941490860234 95.5626780512083,190.13104571758697 95.37881280440413,190.16802420291654 95.00389204974763,190.25841605597154 94.71422724758109,190.3241555854327 94.44510604834821,190.38167767387958 94.27973004417822,190.40632999747342 94.10202787833376,190.3981125562755 93.87193952485237,190.41865615920912 93.57713882175342,190.4638520859203 93.34602328806106,190.49672185095702 93.10874467353145,190.53370033628656 92.85913989708247,190.59122242473344 92.54995867200957,190.65696195413338 92.2664569507415,190.7309189250374 92.04253167803611,190.78022357222508 91.84531308928528,190.81720205737096 91.5761918900524,190.89115902839742 91.15710238901814,190.9938770433718 90.73698570771167,191.08837761714824 90.44115782458545,191.1705520290053 90.08575349277407,191.2732700439797 89.76219174566599,191.35544445608164 89.31536838046618,191.47459735326825 88.90655068092936,191.5280107209937 88.4135042090523,191.56498920632328 87.80746792064221,191.59785897135998 87.60408625099292,191.62251129477016 87.4325471659857,191.62662001567526 87.27436142292515,191.65127233890175 87.0648166723774,191.68825082441498 86.86759808362659,191.70468570699455 86.66318923388879,191.7211205894517 86.49884040986854,191.68414210387724 86.36736135070133,191.58142408890285 86.24307255258232,191.51157583859782 86.16295250096353,191.45816247105603 86.11056631326537,191.42940142674075 86.0057939379915,191.42940142674075 85.80857534936312,191.4376188679387 85.46652435937597,191.4499450298581 85.16966929616122,191.4704886327305 84.85432499012863,191.49103223566416 84.76290595686265,191.49924967704578 84.12297272351101,191.58142408890285 83.72237246511091,191.63483745668952 83.47276768872315,191.64305489788748 83.24884241614022,191.67181594220276 83.04546074642971,191.67592466267928 82.80818213190011,191.70057698633437 82.48564756481932,191.73344675094248 82.12408015210947,191.77864267765366 81.88680153757987,191.80329500130875 81.61665315813602,191.83205604562403 81.31363501402281,191.86903453095357 81.0517040757769,191.87725197215153 80.78155569639426,191.87314325124643 80.4990811552147,191.9019042955617 80.24844919873843,191.9019042955617 80.02452392603304,191.91833917814128 79.78108223060498,191.95120894281064 79.3209055234585,191.99640486933814 79.09698025087557,192.02927463437484 78.90592474296199,192.0333833546677 78.69535281238694,192.04160079586563 78.41287827120739,192.0498182370636 78.21565968239534,192.05803567826155 78.01844109364453,192.05803567826155 77.8469020086373,192.07447056090234 77.63735725808955,192.1155577668921 77.37337195954416,192.1566449727594 77.10425076031127,192.1812972961696 76.84129264203807,192.21005834048486 76.56087246109678,192.23471066432361 76.27223483907997,192.27579786994602 75.87677048136737,192.30866763498273 75.5747795174039,192.34564612049596 75.18034233990227,192.37440716462754 74.8187749271312,192.39495076749998 74.5814963126016,192.427820532353 74.20041247704663,192.45247285576318 73.87068764897884,192.47712517960193 73.54199000106082,192.5141036649315 73.33141807036333,192.53053854732738 73.06126969091947,192.56751703265695 72.89897522732117,192.34153739959086 72.61855504637987,191.8156211631669 72.46242366368003,191.49924967704578 72.34943384714698,191.32668341176637 72.24157993142387,191.182878190741 72.11420959285564,191.05550785235644 72.03306236102587,190.98155088151367 71.92212690485354,190.85828926342197 71.7762673235899,190.718592763118 71.66841340786681,190.6240921891579 71.59856515774545,190.56246138041817 71.471194819116,190.48028696849988 71.35717782249442,190.38989511507754 71.22878030377643,190.2789596589052 71.09935560490871,190.17213292357673 70.94322422220887,190.03654514362688 70.79736464094525,189.91328352553515 70.65253223983136,189.80234806936284 70.53337934246107,189.69963005438845 70.38854694128597,189.5763684364804 70.26939404391568,189.46543298030807 70.1779750106497,189.35860624504082 70.08655597726127,189.23945334760933 69.95713127839355,189.0956481266452 69.86057634437886,188.98060394956775 69.78045629263761,188.90664697890864 69.67876545781297,188.78338536081694 69.53290587654934,188.59438421344774 69.4312150417247,188.4382528305642 69.3233611260016,188.2574691242093 69.20009950803234,188.01505460911466 69.09224559230923,187.8507057848495 68.99569065829454,187.6575959170038 68.85599415786814,187.4316162839377 68.75327614289375,187.23028897446545 68.64542222723188,187.04950526835543 68.57043807623936,186.89748260594843 68.46772006126497,186.73313378223432 68.3064527778164,186.47428438449887 68.23044144673536,186.33458788401126 68.02705977702485,186.36334892832653 67.99521719244402,186.30582683969598 67.93050484301016,186.2195437073624 67.8657924935763,186.14969545699614 67.78464526174653,186.0839559273513 67.67987288641143,185.97712919208408 67.61516053697757,185.89495477979844 67.53914920589652,185.71006235278332 67.51244252200318,185.59090945541303 67.45286607331803,185.40190830786017 67.4097245070288,185.29919029288578 67.37788192244797,185.21290716049097 67.37274602163802,185.14305891018594 67.34501215771738,185.0485583364095 67.33987625690744,184.962275203831 67.3511752384934,184.88831823298824 67.37788192244797,184.7650566150802 67.39431680478263,184.63768627651197 67.4045886063413,184.53907698244268 67.4045886063413,184.48566361447232 67.3789091025977,184.36651071691836 67.30392495160518,184.25968398165114 67.22277771977542,184.10355259889005 67.15806537034156,183.96385609821877 67.11492380405231,183.85702936295152 67.05534735536718,183.72144158294046 67.01836887003762,183.6146148476732 66.98549910530704,183.52833171491105 66.94235753895657,183.42150497921523 66.92078675581195,183.31467824376432 66.87764518952271,183.21196022878993 66.8406667040707,183.1297858169329 66.84580260481943,183.01885036051564 66.90537905350456,182.74356608044553 66.9639283221012,182.60386958014158 67.00706988832921,182.44773819744174 67.02864067147382,182.3203678586286 67.05021145461845,182.22586728503586 67.0676735171641,182.1313667112594 67.08410839956,182.0327574168228 67.08410839956,181.9546917256259 67.04610273401947,181.8601911519107 66.99782526704274,181.7780167396251 66.94338471904508,181.6794074453721 66.91154213446426,181.5890155923171 66.87867236961122,181.50684118021516 66.84169388422045,181.40823188577852 66.81498720032711,181.35481851823673 66.80368821867992,181.26442666475316 66.81498720032711,181.15349120858082 66.83655798347174,181.0630993555258 66.84682978496917,180.95627261983 66.84682978496917,180.73440170748532 66.82525900182455,180.65222729562828 66.79855231793121,180.56183544257325 66.75027485089325,180.45500870669377 66.70713328466523,180.3399645299837 66.6578286374163,180.20437675040117 66.59927936894212,180.03181048506053 66.53456701950826,179.8756791023607 66.48012647157184,179.6866779549915 66.42260438312496,179.5182204101886 66.36816383524976,179.40317623372343 66.31988636815058,179.2840233362919 66.28290788282102,179.16897915945935 66.2449022172805,179.02106521795747 66.22333143413587,178.8895861588515 66.19046166928284,178.77043326141998 66.18018986784664,178.70469373159148 66.15861908470201,178.5732146727304 66.14218420230611,178.4253007309836 66.14218420230611,178.15823389192775 66.15861908470201,178.02675483282175 66.20381501122952,177.8541885679097 66.30756020635364,177.67751358184762 66.37227255584874,177.5542519641845 66.42055002294792,177.4515339492101 66.46369158911472,177.36525081644794 66.49039827300805,177.29129384578883 66.51196905615267,177.21322815422462 66.51196905615267,177.11872758063186 66.45752850827748,176.94616131535244 66.4308218243229,176.81468225624647 66.42055002294792,176.69142063815474 66.38254435728494,176.57637646144465 66.32913098955949,176.43667996095704 66.2644186400644,176.2476788136491 66.22127707377516,176.08743871022781 66.1565647243413,175.93952476872593 66.10212417640487,175.8121544299128 66.05898261011563,175.70121897374045 66.03843900718198,175.58617479721403 66.00043334164145,175.46702189966007 65.95729177535222,175.3478690022898 65.93058509139765,175.2615858697113 65.87100864271251,175.13010681042164 65.8401932382202,175.0191713542493 65.82889425663423,174.94110566305244 65.74774702480447,174.75621323622101 65.70563263866497,174.65760394178437 65.66249107237573,174.56721208872935 65.59777872294187,174.44805919129786 65.53820227425672,174.34944989686122 65.45705504242696,174.2590580438062 65.37077190984847,174.13168770499306 65.29578775885595,174.02486096954215 65.22080360798587,173.91392551330858 65.15609125849079,173.83175110145154 65.09651480986687,173.7331418070149 65.06467222516359,173.64685867425274 65.03180246037178,173.5235970565284 65.02666655962307,173.44553136520906 65.0153675780371,173.31816102657962 65.01023167722715,173.2072255702236 65.0153675780371,173.08396395231557 65.02153065887434,172.97713721686466 65.0153675780371,172.88674536356476 64.99379679489249,172.79224478984955 64.96709011093792,172.68130933361599 64.95681830956293,172.58270003917934 64.9362747064456,172.4758733036672 64.9198398240497,172.39369889181015 64.9198398240497,172.32795936198164 64.93113880581933,172.28276343545414 64.97428037198613,172.19237158239912 65.01639475818685,172.11019717054208 65.03282964058275,172.0485663611901 65.01125885743812,171.96639194933303 64.9362747064456,171.88421753747596 64.89826904090508,171.77328208130365 64.88799723946886,171.6787815075272 64.9198398240497,171.56784605135488 64.96298139033894,171.4404757127254 65.01639475818685,171.28023560954904 65.05440042372737,170.9679728437208 64.96298139033894,170.68036240191495 64.89826904090508,170.2242944154899 64.85101875401686,169.7271392230139 64.79760538629141,169.16424450070934 64.43603797352034,167.4344731287244 64.0878239028184,165.84850697739742 63.69030518480631,164.01190886977787 63.609157952976545,163.66677633952514 63.35030855530232,162.92309791104938 61.27129593222077,160.7619108759271 60.82344538687122,160.30173416878063 59.39463779857752,158.82259475333316 58.09320054885206,157.85704541232903 57.75936700018531,157.60230473549868 56.94584032158818,157.0147576896003 56.043976150113075,156.29984030550102 54.84320255512374,155.28498631743165 54.62235882286759,155.10420261132163 54.49807002474858,155.00970203736154 54.55867365358347,154.93574506670242 54.61208702143137,154.80837472807295 54.592570598525015,154.63991718369863 54.55867365358347,154.47145963907943 54.49909720489833,154.33176313877547 54.42103151351779,154.20439279996233 54.282362193363596,154.06469629947472 54.160127755482854,153.89623875503918 54.05227383975975,153.79762946078623 53.92387632104177,153.68258528389248 53.801641883222246,153.5511062246028 53.68865206675042,153.42784460669478 53.58079815114977,153.29636554777244 53.48629757731211,153.16488648848278 53.40823188593158,153.01697254679723 53.38871546302522,152.87727604667697 53.427748308715486,152.74990570792505 53.48629757731211,152.6718400167282 53.634211518814,152.55679583989564 53.83143010756482,152.44996910419985 53.94852864469684,152.3883382954601 54.11185028844489,152.3061638831745 54.37172686639131,152.17879354460624 54.63776652517497,152.05553192688188 54.91818670599382,151.92405286759222 55.12464991615355,151.82544357315558 55.242775633312874,151.75970404351074 55.37014597188111,151.68985579332818 55.47799988760421,151.62411626386702 55.590989704137264,151.5583767344671 55.738903645639155,151.4844197633794 55.92585043295376,151.41457151325804 56.05424795167174,151.35704942481115 56.195998812275164,151.31185349828365 56.44149486806395,151.24611396863884 56.62844165531733,151.18859188019195 56.8544212883222,151.10230874779714 57.19441791782619,150.958503526833 57.44915859502389,150.84756807084435 57.621724860119635,150.7653936585587 57.80353574668552,150.6585669231078 57.96069430953511,150.5887186729252 58.31301710095847,150.42026112848967 58.5297521124932,150.29289078973775 58.627334226718865,150.2271512600929 58.55954033683577,150.0176065098513 58.14661391669997,149.0438397278329 57.93501480579151,148.46451012331616 56.828741784578604,146.5950422506599 56.49593541600037,146.04036496973697 55.76869186998172,143.65319830173226 55.60742458647194,143.11495590345018 55.36192853068316,142.30553794551324 55.28283565921411,142.00560134184926 54.55559211319546,139.3842375993356 54.315231958094174,138.58303708265785 53.99680611167358,137.45724763866104 53.50581400009602,135.75212858990255 53.20176867577184,134.6920786755506 53.157599929332854,134.53594729260584 53.000441366422045,134.01003105605943 52.72412990620217,133.1020038035022 52.31428502639315,131.6475167116486 52.26908909980442,131.5365812556599 52.01023970206897,130.64498888531492 51.75447184478275,129.84378836863715 52.30504040510668,129.61780873557106 54.56586391463168,128.70978148338116 53.793424442085524,128.04827746682366 52.23211061447487,126.72937815455256 50.900885140406835,125.66932824001691 50.43351817227338,125.4433486071345 48.07203100801227,125.31597826874993 46.8507138099056,125.24613001856734 46.939051302783575,123.85327373526978 47.03252469653271,121.85232680375243 47.07669344284925,121.3099756847489 47.151677593841775,119.86781475420241 47.21638994327564,118.30239220617646 46.97089388742563,116.33431503945091 46.916453339550436,115.85770344990854 46.8383876481699,115.27015640419383 46.73875117358352,114.45252100487528 46.40286326467851,114.40321635762635 45.575983244134704,114.32515066649071 43.479508558507504,114.13614951875417 39.66969738310756,113.79101698831779 37.82385465395663,113.63488560580161 37.58246731888928,113.4212321346549 37.23630760830315,113.51573270837011 37.23733478845289,113.46231934046098 37.14488857503717,112.9857077509186 37.0195725967072,112.3693996610723 36.95280588703507,112.05713689585629 36.75866883867226,111.09158755485217 36.43716145180243,109.47686035939361 36.25740492559726,108.62224647517407 36.15982281137159,108.12509128251438 35.65239581739813,105.7379246146321 35.886592891600955,103.3343230642315 36.21118181885878,100.07199890846135 36.554259988934454,96.72339162035762 36.848033511699974,94.34444239373452 36.916854581732814,93.70348198004947 37.03395311886484,92.5242791680823 37.09661110793799,92.00658037273385 37.1151003506946,91.82168794590241 37.042170560062786,90.7082246633964 36.986702831976615,89.0154317765573 36.95896896787231,88.67851668768621 36.88295763679126,88.3128405541325 36.89631097879916,87.72940222913923 36.900419699398135,87.66777142039949 36.94458844583712,86.71043952059333 37.06579570344567,85.12036464872861 37.127426512491525,83.89596591023394 37.13769831392774,83.49742001207211 36.828517088916065,82.30178231789272 36.42688965042744,80.88838243209007 35.9461693402861,79.22435058938258 36.07662121924234,77.6096233941077 36.559395889683174,73.8912312519125 37.16235063758282,69.314116504409 37.344161524026255,67.90482533908289 36.419699389256785,66.79547077748198 33.523051366979125,63.40988500398746 31.162591382990204,60.636498599679065 29.89915979874404,59.17379406626014 30.447673998707256,57.22626050240702 30.973590235376108,55.50059785095981 31.01775898175387,55.16368276172137 30.77637164662529,54.633657804269866 29.435901551148337,52.156099283148926 29.004485888317145,51.30559411946714 28.019420124651568,49.30875590818142 27.53561827412221,48.3925112146099 27.426737178249365,47.887138580997146 26.56390585246453,44.324877821501794 25.934244420671547,42.47184483167001 25.635334997096088,41.658318153072884 24.415044979200392,38.223427732145765 23.9415149302297,36.68676622806774 23.569675716022424,35.684238402101414 23.119770810434616,34.5379053548036 22.974938409320735,34.15579433903766 22.887628096531284,33.91748854448076 22.835241908894346,33.83120541190228 22.47881039693323,33.449094396136346 21.65295755653917,32.598589232209655 20.84970267943948,31.789171274333953 20.007414956649523,30.946883551421543 19.56470031210992,30.4867068440914 19.015158932058185,29.94435572508787 18.873408071393534,29.780006901373753 17.746591447063302,28.670652339527944 17.020375081255626,27.368187909530292 15.539181305263766,25.92602697953482 14.214118912216646,24.81667241756656 13.846388418485898,24.31951722509054 12.949660147759516,23.127988251448894 12.174139134702907,22.289809249441586 11.629733655338667,21.496826173778107 11.12127948121546,20.724386700987058 10.733005384673508,20.354601847140493 9.82703249259943,19.34385657997622 9.664738028878677,19.138420550027448 8.71870511108704,18.119457841481548 7.316604206564232,16.808775970285943 6.223684527236774,15.896639997190952 6.14151011531849,15.756943497070688 5.197531557642666,14.503783714321964 4.056334411338471,13.205428005168184 3.865278903547339,13.04107918084182 3.3465529278654693,12.478184459149537 2.2043286013503063,11.85365892804405 1.5109820002732062,11.492091515028092 0.8350974618029763,11.196263632207986 0.01643488239590163,10.834696219559374 0,10.234823011925291 0.09244621341572196,10.24304045312324 0.3317791883060394,10.234823011925291 0.5834383249932832,10.234823011925291 0.8915923699164388,10.238931732401817 1.2469967017278114,10.234823011925291 1.5007101987145428,10.222496850005914 1.757505236150506,10.201953247255936 2.149888053352657,10.160866041266182 2.3203999582101367,10.140322438148857 2.4847487821691527,10.115670114738679 3.231508751094158,10.049930585093847 3.629027469045029,10.017060820057145 3.947453315404398,9.938995128676611 4.178568849096765,9.88147304047463 4.301830467188476,9.8321683932257 4.405575662190156,9.795189907896146 4.578141927347123,9.749993981368641 4.668533780585807,9.70890677513399 4.858562108227194,9.593862598607576 4.965388843800556,9.491144583633192 5.011611950600253,9.437731215540387 5.102003803777712,9.261056229906893 5.200613098214347,9.043294038222422 5.2108848995893355,8.87072777312668 5.190341296594458,8.726922551917642 5.089677641919561,8.472181875148515 5.0167478512877475,8.31194177172725 4.8729426303236085,8.11061446207133 4.762007174151273,7.95448307937149 4.692158923968691,7.839438902845077 4.639772736392979,7.744938329068643 4.608957331900664,7.634002872896307 4.577114747197379,7.5518284606719 4.542190622106088,7.428566842947537 4.478505452821969,7.161500003891685 4.4363910666824715,7.046455826997925 4.403521301951893,6.927302929627638 4.360379735662651,6.824584914653253 4.314156628924178,6.738301782074769 4.273069422873199,6.639692487821809 4.213492974188056,6.54108319332395 4.14672626451593,6.426039016858762 4.051198510528527,6.30277739876705 3.813919896060147,5.961753588990867 3.6834680169202283,5.7645350002400475 3.593076163742769,5.649490823591186 3.469814545773507,5.497468161184196 3.3331995859187993,5.316684454829279 3.2109651480380563,5.127683307521308 3.1349538169570113,5.004421689429597 3.0260727211453875,4.770224615165549 2.859669536825659,4.457961849888317 2.775440764546663,4.305939187726227 2.6747771099329904,4.108720598975408 2.5895211575042505,3.9279368924368154 2.515564186722693,3.7348270244074206 2.472422620372227,3.611565406315709 2.4220907930960025,3.4389991414036407 2.3892210282429747,3.2376718317477224 2.3666230650098345,3.097975331443783 2.37073178560881,2.921300345626616 2.3779220465957924,2.851452095444034 2.407710270938364,2.76106024220535 2.4621508188747883,2.6419073450187374 2.525835988158907,2.547406771058629 2.6275268230447733,2.4611236384801454 2.717918676222232,2.3953841092026624 2.8278269521835995,2.3871666678210377 2.953142930513574,2.35840562350576 3.2664328761242243,2.325535858897631 3.5560976784132152,2.272122491110951 3.79337629294282,2.2187091232018212 3.9525892161531173,2.144752152359039 4.1374816431070105,2.0913387848172578 4.333673051708086,2.087230064279507 4.503157776415822,2.1077736670294853 4.696267644567666,2.120099828948861 4.944845240805678,2.1077736670294853 5.2406731239319075,2.083121343619307 5.489250720169919,2.0625777405019803 5.6803062280222765,2.0297079756489524 5.957644868514341,1.9721858874469709 6.298668678168075,1.8694678724725857 6.476370844073761,1.7914021809083789 6.713649458664591,1.6517056806044397 6.9899609189456875,1.4873568568903222 7.319685747013463,1.2819208269415518 7.5014966335181255,1.1709853707079911 7.812732218890512,1.014853987640802 8.251338142892362,0.8176353988899825 8.535867044310184,0.7231348252972223 8.777254379561214,0.6697214573880926 9.669873929627396,0.5300249570841534 10.169083482464133,0.4560679862413714 10.634396090236873,0.4108720598975407 11.905017935470019,0.20132730904367144 12.115589866228733,0.15613138251616665 12.344651039560388,0.08628313257848355 12.610690698344044,0.028761044131603145 12.814072368054552,0 13.058541243754814,0.004108720476525991 13.224944427952092,0.028761044131603145 13.405728134245786,0.0698482499376831 13.63478930769989,0.13147905910598834 13.872067922229494,0.21365347096304707 14.186385048051113,0.361567412464937 14.419554942165417,0.509481353966827 14.607528909507318,0.6409604132564894 14.810910579095376,0.8094179576920317 15.095439480635648,1.055941193875455 15.28444062812729,1.2326161796926223 15.520692062568378,1.4832481359852232 15.982923129953111,1.9721858874469709Z"/></svg>