<svg xmlns="http://www.w3.org/2000/svg" width="256" height="256"><path d="M102.59681672325704,3.9797100533250642 103.70018320264614,4.380934227104858 104.93367644093301,4.283339158335503 106.73647425113465,3.827895500739052 108.77512681210108,3.1881056013977016 111.14451821974387,2.2772182870127335 112.40241022538467,1.8543063193831035 112.97171479713786,1.7241795595158205 113.70638879190606,1.7783990428477172 114.34888966539785,2.016964767762927 115.23537821259048,2.8736325997855183 115.59322680060964,3.2097933946011907 115.83450349983687,3.166417808194212 116.233016699951,2.9386959795575733 116.70472620212688,2.6459107713104664 117.25505395482702,2.5157840114431833 117.65627812892998,2.483252321799536 118.10629983790238,2.548315702056351 118.80030922057563,2.8194131170999683 119.5024515255386,3.1013544279373972 120.07446707111905,3.1881056013977016 121.98028189887567,3.0471349450902605 122.49807796160898,3.0579788415304185 122.96165454133357,3.0579788415304185 124.6424585147656,3.274856773726899 126.30970761712226,3.47004691320465 127.57302157122551,4.511060986487381 127.9850896422534,6.0725820976233775 128.45408817011727,7.167815653591659 128.6086136970153,7.232879033848474 129.73366796912313,7.0810644812624615 130.27315182505993,7.037688895340243 131.5906852624951,7.167815653591659 133.604939055946,7.655791000831758 136.1830754730108,8.241361417972318 140.21158306055895,9.358282767628848 140.89203757231843,9.683599665519603 141.12789232340637,9.911321494156242 141.39898973845,10.204106702403347 142.76803168442027,12.080100814505181 144.8934354185238,14.780231068501198 145.25399498037024,15.582679417353479 145.39767661034335,16.504410628501777 145.48713875730775,16.536942317660667 145.98324702683757,16.558630110864154 146.11879573435937,16.471878938534957 146.20554690733493,16.42850335196639 147.01883915246577,16.092342556827546 147.7779119144263,15.79955734858044 148.55325052161265,15.420020968327309 149.20930626601822,15.14892355328369 149.51022439655503,15.083860173188462 150.3397824867501,14.964577310730858 151.27235759433856,14.877826138240072 152.1995107537877,14.801918861704687 153.12666391323688,14.769387172222626 155.4038821996033,15.810401245990118 156.93016064629884,17.94664887621065 157.92508815950893,19.584077262750927 158.95254736252423,20.84196926919966 160.61979646520408,22.110705171119026 162.79941968215476,23.94332369729864 164.61306138863497,24.73492814857966 165.20947570173092,24.995181667344703 168.5060202686613,26.469951605020395 172.24987557041368,27.04467812523604 172.3447596658405,27.782063094316264 171.94082451726393,28.270038440586845 171.0543359702329,28.627887028929177 170.88625557290587,29.19176965238149 171.23054928984968,29.788183965639035 180.07374696857246,35.82823437216449 180.18489690906353,36.42464868509886 180.29875782305868,37.1186580677721 180.2716480817159,37.378911586860326 180.44515042718223,37.38975548281572 180.61865277281015,37.44397496614762 181.35603774189036,37.79097965772662 182.2371043407821,37.953638106106446 182.31301161683274,37.97532589930994 183.10190509460966,38.11629655545579 183.7552498648648,38.25726721127847 184.40588366113107,38.61511579865129 184.47094704057994,38.6801791789081 184.51703360113737,38.74524255803381 184.53601042019042,38.8211498345692 184.51703360113737,39.55853480316466 184.53872139434085,39.775412735361144 184.62547256715482,39.88385170154017 184.8803041374574,40.198324702506014 184.95078946536873,40.350139255576785 184.96434433595934,40.51279770395661 184.98061018086196,40.68630004974611 185.01856381912964,40.76220732579674 185.07278330213836,40.83811460233212 185.53635988186295,41.33693384649714 185.61768910637602,41.38030943241936 185.70986222732927,41.423685019311094 185.8020353484441,41.45621670846998 186.18157172966676,41.57549957092759 186.2601899800294,41.62971905425948 186.3333862819296,41.70562633079487 186.39573868755122,41.7815336068455 186.64514830939135,42.25866505764544 186.70478974053935,42.32372843693273 186.78069701691314,42.38879181605844 186.8647372154151,42.43216740295018 187.5858563394311,42.83339157689156 187.68616238299725,42.865923267019966 188.45607904172113,43.191240165395484 188.72988743091517,43.31052302785309 188.91423367330643,43.386430304388476 189.7736124789947,43.6033082361002 190.5381071892561,43.73343499548272 191.44899450380265,43.70090330535431 191.94239179934362,43.08280119873169 191.9911893338899,43.01773781960598 192.08607342915516,42.790015990969344 192.22704408497785,42.02009933176071 192.46289883622737,41.3694655359792 192.48187565528042,40.66461225654262 192.3734366891014,40.31760756544838 192.3598818185108,39.873007804615256 192.36259279249964,39.75372494215765 197.5459753682952,40.599548877416915 199.6008937743258,41.31524605329365 201.3657379460982,42.59482585197635 204.37763022739435,43.47318147623291 206.65213753944872,43.3755864069788 209.65047494983114,43.32136692461642 212.56748313586203,44.72022958640307 212.97684023241632,44.503351653560244 213.7386239686889,44.13465916974727 214.44618822195272,43.76596668448002 215.03175863860852,43.5490887527683 215.12935370786263,43.50571316684608 215.23779267388008,43.48402537364259 215.75287776262456,43.47318147623291 215.9290910822413,43.4948692694364 216.02397517766818,43.51655706312465 216.116148298783,43.5490887527683 216.44959811912506,43.75512278868621 217.0839660704887,44.18887865210965 217.16800626899064,44.24309813544154 217.46079147756092,44.57925892961087 217.70749012508904,45.056390380572395 217.93250097957522,45.71786807311724 218.01654117807718,46.390189662587 218.19004352370507,47.06251125189517 218.22799716197278,47.75652063408366 218.2225752135103,48.37462274022151 218.64548718113994,48.41799832711325 219.57264034058912,48.43968612047833 220.1338119897294,48.4505300167569 220.9199944931943,48.68909574215687 221.11789560633775,48.765003018692255 221.9989622052295,49.00356874376905 222.85563003660573,49.22044667548077 223.75025150641127,49.404792917548846 224.66113882079622,49.55660747061962 225.5205176264845,49.632514746185485 226.37989643217276,49.632514746185485 227.29349472086977,49.62167085039167 228.1718503456111,49.57829526382311 229.02309622884803,49.36141733114187 229.8445213964302,49.06863212289476 230.6686575381628,48.765003018692255 231.5009266025083,48.47221781044515 232.32777371822974,48.17943260171328 233.1573318082632,47.897491290391095 233.97875697584536,47.593862185219066 234.77307240208475,47.311920873735296 235.5917865953549,47.05166735513183 236.42947760783966,46.78056994008822 237.23192595636877,46.49862862860444 238.00455358940468,46.23837511000098 238.7338056357104,45.90221431583166 239.2651565691959,45.479302348202026 239.52812106178823,45.73955586632073 240.02694030563006,46.27090680012939 240.5311814974496,46.802257733291704 241.0706653533864,47.32276477017545 241.63725895082757,47.90833518666967 242.0981245564017,48.46137391368182 242.60778769668372,49.00356874376905 243.12558375941703,49.54576357385629 243.65964566705296,50.055426713815116 244.21539536789237,50.63015323403076 244.75216824967873,51.19403585732148 245.3133398989806,51.75791848012745 245.86095667720713,52.300113310214684 246.41128442990725,52.896527623633816 246.94805731153204,53.49294193705295 247.4631424001149,54.013448973290345 247.99720430775082,54.566487699817735 248.50686744803284,55.09783863346482 249.0300854592286,55.70509684380887 249.56414736670294,56.31235505302181 250.06567758453363,56.832862089905554 250.58889559572938,57.37505691999279 251.16091114130984,57.97147123341192 251.6624413593021,58.51366606349915 252.14499475791817,59.05586089358639 252.6709237431028,59.65227520700552 252.9637089513499,59.95590431104644 253.49234891084654,60.47641134793019 254.01556692171914,61.02945007494234 254.4926983721959,61.560801008104654 254.9942285901882,62.12468363139538 255.48762588540598,62.677722358407536 256,63.21991718849477 254.89934449476132,63.11147822280049 253.14805519357955,63.23076108477334 251.22868549507075,63.30666836130872 251.16904406376116,63.15485380936906 250.73528819985296,62.558439495949926 250.42081519840235,61.940337389812065 250.15785070581003,61.30054748998595 249.98705933417097,61.02945007494234 249.7864472472003,60.8559477296376 249.6210778238621,60.75835265989872 249.52890470290885,60.72582096977031 249.33371456407744,60.6824453838481 249.22527559789842,60.67160148740793 248.80236363059197,60.61738200407604 248.69663563856335,60.58485031459398 247.9131641092489,60.22700172609006 247.08631699336587,59.890840931435974 246.25404792902037,59.565524033545216 245.4543105546417,59.196831548762724 244.82807552605252,58.925734133719104 244.2858806959653,58.93657803112878 243.3641494846554,58.93657803112878 242.43428535121737,58.9148902379253 241.50171024330575,58.8606707545934 240.66944117928344,58.73054399521087 239.7449989939847,58.62210502903184 238.8232677826748,58.54619775362756 237.95575605453524,58.49197827029567 237.02860289508607,58.45944658016726 236.11500460638908,58.42691489052361 235.39388548237304,58.26425644117427 234.4667323229239,58.12328578599793 233.6371742328904,58.00400292354033 232.79948322056723,57.86303226674813 231.96179220808244,57.6678421282399 231.04819391938545,57.656998231961325 230.1806821910843,57.73290550849671 229.29961559219254,57.76543719749401 229.2074424712393,57.76543719749401 228.81977316756533,57.6678421282399 227.94683949112488,57.429276403324685 227.07390581468442,57.353369126789296 226.19826116409354,57.26661795381376 225.3199055395138,57.190710678409474 224.44697186291177,57.09311560850901 223.57946013493378,57.01720833261997 222.54928995760645,58.37269540783806 221.93660979960788,59.294426618501596 221.17211508918487,60.47641134793019 220.7329372769758,61.27885969726723 220.05248276505475,62.84038080775688 219.2852770804813,64.98747233441756 216.36555792046153,69.4768455272167 216.24085310986464,69.71541125261668 205.15839078271998,77.47964122011221 185.99180353897464,81.14487827150192 177.4169923013066,83.16184303926485 171.6290624899638,84.63661297694054 167.8092999119992,87.04395802220469 167.6818841269287,87.14155309145882 163.20064385625773,89.77661996584436 159.12604970831373,91.95624318311822 155.95149897815298,93.65873494991531 153.92097933947628,97.11793796522552 153.20528216359955,99.40600014867842 152.66850928213634,100.26266798021625 152.54109349690427,100.47954591192797 152.8365896793018,100.8699261894292 153.058889559476,101.26030646741518 153.14292975846269,101.39043322631294 153.25950164660827,101.50971608877055 153.48451250109446,101.66153064135655 154.17309993530526,102.13866209231807 154.56076923881764,102.7350764057372 154.68005210143681,103.00617382078083 155.19513719018127,103.77609047934311 155.38761635486225,104.25322192933513 155.3767724582605,104.39419258499622 155.34966271659457,104.69782169016824 155.20869206093346,105.30507989938118 156.06807086662172,106.85575711359226 156.74310343008034,108.02689794722704 156.8298546027327,108.243775878454 156.49098283392817,108.4714977075754 156.4096536094151,108.5365610867011 155.74817591687025,109.03538033086612 155.46081265676244,109.32816553862847 155.4201480445059,109.46913619525908 155.35779563904586,109.89204816191919 155.38219440639978,110.40171130236278 155.5123211657823,110.93306223617144 155.53671993313623,111.07403289183253 155.58822844183294,111.16078406529284 155.63431500239037,111.46441316933375 155.6749796146469,111.74635448130229 155.6885344853991,111.89816903388831 155.72377714935476,112.18011034569525 155.7210661752043,112.8524319341955 155.57196259693032,113.18859272933435 155.19242621586926,113.81753873239713 154.80204593836802,114.39226525261276 154.38726689318972,114.9669917716973 154.1541231162522,115.50918660178453 154.20292065112164,115.72606453446578 154.26527305642009,116.1815081912543 154.53908144561413,116.86467367700261 154.8508434729143,117.52615137003222 154.91861782667522,117.65627812892998 155.17073842266578,118.35028751160323 155.42556999280677,119.03345299735156 155.64244792484166,119.70577458682132 155.6614247440563,119.84674524248241 155.62889305408947,120.35640838357234 155.4364138894085,120.66003748761327 154.73698255859597,120.95282269586038 154.65023138578204,120.95282269586038 153.91013544287452,120.9094471094534 153.86675985630598,121.01788607611718 153.62819413122918,121.13716893857479 153.45198081128925,121.19138842190668 153.3814954833779,121.2347640078289 152.76610435139048,121.63598818225505 152.7227287649835,121.70105156138075 152.36759115111477,122.32999756428195 152.13715834848927,122.80712901475871 152.02058646002052,122.83966070488712 152.0341413307727,122.96978746410805 152.00703158910676,123.09991422300583 151.93654626119542,123.30594825892373 151.83081826948998,123.98911374418729 151.8687719074345,124.32527453932614 151.96094502854933,124.34696233269122 152.43536550487568,124.48793298835231 152.7905031187444,124.59637195436976 153.65259289842152,124.7698742996745 154.44961929881134,125.12772288769366 155.01892387024134,125.60485433865519 155.49876629486855,126.20126865142798 156.03282820266605,126.7434634815152 156.55875718768908,127.27481441532387 157.0928190954866,127.82785314168969 157.75429678803144,128.29414069524154 158.43746227410296,128.7062087665926 159.0636973026921,129.12912073422223 159.6763774606907,129.58456439084915 160.2239942392404,130.07253973857402 160.343277101698,130.17013480734337 160.69570374141628,130.75570522448393 161.10506083813215,131.3521195372567 161.58490326259775,131.97022164387934 162.04847984232234,132.58832374953244 162.48494668054258,133.14136247654457 162.9078586480106,133.75946458316722 163.2385974945254,134.36672279238016 163.4988510129673,135.0065126917215 163.53409367692296,135.11495165838528 163.85398862651283,135.77642935093013 164.30943228378612,136.35115587114578 165.06037212345694,137.18613590948013 165.7326937127651,137.77170632548956 166.2667556205626,138.30305725865188 166.75744194163,138.91031546899595 167.54091347126763,140.0923001984245 168.19154726721072,141.07909478934488 168.7662737871032,141.94660651716129 169.13225529741206,142.4020501739498 170.01061092215338,143.29124969561605 171.33627728187827,144.5382978046551 171.44471624773414,144.46239052908922 172.90050936651835,144.5166100114516 176.21331977835135,144.4298588391224 178.79416716972818,144.55998559785857 179.53155213848524,144.6467367708341 179.72945325162866,144.7768635307014 179.94633118366355,145.9263165695168 180.3909309441735,146.75045271205735 180.89246116216577,147.33602312855157 181.86570088217238,147.9758130278929 182.63019559243378,148.33366161526573 183.47059757923057,148.3661933049094 184.0263472799084,148.34450551219066 184.34353125550945,148.26859823565528 184.72306763673208,148.19269095960465 185.148690578189,148.26859823565528 185.91860723691286,148.85416865214947 186.81322870671838,149.40720737916163 187.67802946054593,149.68914869048382 187.95183784974,149.87349493319823 188.06298778990788,150.00362169258077 188.03045610010264,150.6108799017937 188.01147928121117,152.29168387538732 187.96539272065377,153.1158200172815 187.62109900338677,153.74476601985953 186.83220552560985,154.75324840398335 186.25747900571739,155.77257468438577 185.56618059735615,156.26055003178746 184.96434433595934,155.98945261674385 184.5576982133939,155.78341858082592 184.22967034119114,155.76173078762244 183.8528449344421,155.77257468438577 183.39740127700722,155.96776482354036 183.17510139683304,156.21717444473413 182.80640891221213,156.61839861916027 181.8602789337099,157.75700776218187 181.7626838644558,158.3208903854726 181.944319132535,159.90409928981208 182.18830680591267,160.40291853349234 183.3946903028568,161.1294596051629 185.38725630342736,161.89937626437154 186.92437864688628,161.8017811951174 187.3310247694517,161.83431288524582 187.60483315864576,161.9752835409069 188.09823045386355,162.32228823200117 189.04436043236578,163.3958339952507 189.27750420946487,164.046467791517 188.98471900105616,165.15254524489492 188.6946447669595,166.15018373257863 186.3496521269938,166.15018373257863 186.3496521269938,166.93094428774265 184.77728711957923,166.93094428774265 184.77728711957923,167.72254873967 183.98568266765187,167.72254873967 183.98568266765187,168.51415319143578 183.32420497510702,168.51415319143578 181.6135802860202,168.51415319143578 181.6135802860202,169.2840698496749 181.6135802860202,170.09736209480576 180.03308235631593,170.09736209480576 180.03308235631593,170.8781226509393 178.05136025234708,170.8781226509393 176.8775084452082,170.8781226509393 176.8775084452082,171.40947358361686 176.8775084452082,171.66972710222032 176.25669536475834,171.66972710222032 175.29701051550393,171.66972710222032 175.29701051550393,172.1143268635382 175.29701051550393,172.46133155414768 174.38341222680694,172.46133155414768 173.7219345342621,172.46133155414768 173.7219345342621,173.25293600607506 172.2905401826702,173.25293600607506 168.98044074498765,173.25293600607506 168.98044074498765,174.04454045800242 168.18883629338345,174.04454045800242 168.18883629338345,174.8036132207709 166.60833836335598,174.83614490992977 166.54327498374553,175.421715326424 166.02547892101222,175.61690546590174 164.24436890433722,175.61690546590174 164.24436890433722,176.40850991734436 162.66387097463294,176.40850991734436 162.66387097463294,177.20011436927172 161.8722665227056,177.20011436927172 161.8722665227056,177.99171882119907 161.08337304492866,177.99171882119907 161.08337304492866,178.7833232736112 157.136194681732,178.7833232736112 157.136194681732,181.14729273246837 157.92779913365936,181.14729273246837 157.92779913365936,181.7870826318097 158.7166926114363,181.93889718439573 158.7166926114363,183.52210608873523 157.92779913365936,183.52210608873523 157.92779913365936,188.25004500693433 157.136194681732,188.25004500693433 157.136194681732,189.8332539101427 156.34730120411666,189.8332539101427 156.34730120411666,190.62485836207006 155.5556967520277,190.62485836207006 155.5556967520277,191.4164628139974 154.79662398990558,191.4164628139974 153.975198822485,191.4164628139974 153.975198822485,191.81768698842356 153.975198822485,192.98882782189676 153.19172729284736,192.98882782189676 153.19172729284736,193.78043227382412 151.61122936314308,193.78043227382412 151.61122936314308,194.5720367252667 147.66405100026958,194.5720367252667 147.66405100026958,195.36364117719407 146.87515752233108,195.36364117719407 146.87515752233108,194.92988531377063 146.87515752233108,194.5720367252667 146.08355307040372,194.5720367252667 146.08355307040372,195.2660461074552 144.50034416671056,195.36364117719407 144.50034416671056,195.8407726281556 144.50034416671056,196.15524562912145 143.71145068877206,196.15524562912145 143.71145068877206,196.9360061841239 141.21193252223148,196.9360061841239 140.55045482936347,196.9360061841239 140.55045482936347,197.72761063605125 138.9943556670131,197.72761063605125 137.39488091841736,197.72761063605125 137.39488091841736,196.9360061841239 135.81438298871308,196.9360061841239 135.81438298871308,198.5192150879786 135.0309114590754,198.5192150879786 135.0227785367857,199.18069278100822 134.66764092291697,199.23491226385536 134.23388505917038,199.31081954039072 134.23388505917038,198.5192150879786 132.65880907744378,198.5192150879786 132.65880907744378,199.31081954039072 130.28941767012415,199.31081954039072 130.28941767012415,198.5192150879786 128.70891974041984,198.5192150879786 128.70891974041984,197.72761063605125 127.91731528849249,197.72761063605125 127.91731528849249,194.5720367252667 126.34223930692748,194.5720367252667 126.34223930692748,193.78043227382412 124.7617413772232,193.78043227382412 124.7617413772232,194.5720367252667 123.18124344751891,194.5720367252667 123.18124344751891,193.78043227382412 122.39234996990356,193.78043227382412 122.39234996990356,192.98882782189676 121.6061674661155,192.98882782189676 121.6061674661155,192.2080672659248 120.81727398833856,192.2080672659248 120.81727398833856,191.4164628139974 118.44517160670691,191.4164628139974 118.44517160670691,190.62485836207006 117.65627812892998,190.62485836207006 117.65627812892998,189.8332539101427 116.86467367700261,189.8332539101427 116.86467367700261,189.04164945886168 116.07578019922569,189.04164945886168 116.07578019922569,188.25004500693433 115.28959769576079,188.25004500693433 115.28959769576079,187.46928445128552 112.92020628811798,187.46928445128552 112.92020628811798,186.67767999935816 112.12860183619063,186.67767999935816 112.12860183619063,185.88607554759238 110.45050883707063,185.88607554759238 109.75649945455896,185.88607554759238 109.64806048854152,185.09447109566503 108.9730279252445,185.09447109566503 108.9730279252445,184.73662250716112 108.9730279252445,184.30286664373767 108.17600152485468,184.30286664373767 108.17600152485468,183.52210608873523 107.39252999554022,183.52210608873523 107.39252999554022,182.73050163680784 105.02042761390855,182.63290656706897 105.02042761390855,181.93889718439573 104.2288231619812,181.93889718439573 104.2288231619812,181.14729273246837 103.43992968420427,181.14729273246837 103.43992968420427,180.35568828005626 102.6483252322769,180.35568828005626 102.6483252322769,179.56408382812887 100.28435577293497,179.56408382812887 100.28435577293497,180.35568828005626 98.70385784323068,180.35568828005626 98.70385784323068,179.56408382812887 97.12335991368798,179.56408382812887 97.12335991368798,178.7833232736112 93.96778600241869,178.7833232736112 93.96778600241869,179.56408382812887 90.01518569108275,179.56408382812887 90.01518569108275,180.35568828005626 89.23171416192986,180.35568828005626 89.23171416192986,181.14729273246837 88.44010970984091,181.14729273246837 88.43468776137846,181.93889718439573 85.27911385027075,181.93889718439573 85.27911385027075,181.14729273246837 84.49022037249382,181.14729273246837 84.49022037249382,180.35568828005626 82.91514439125199,180.35568828005626 82.91514439125199,179.8894007265044 82.91514439125199,179.56408382812887 82.11811799086217,179.56408382812887 82.11811799086217,178.7833232736112 77.38204615021176,178.7833232736112 77.38204615021176,179.56408382812887 76.59315267227325,179.56408382812887 76.59315267227325,178.7833232736112 75.95607374708233,178.7833232736112 74.22918321325449,178.7833232736112 74.22918321325449,177.99171882119907 73.43757876132712,177.99171882119907 73.43757876132712,177.20011436927172 70.27387192776811,177.20011436927172 70.27387192776811,177.99171882119907 68.70150692035354,177.99171882119907 68.70150692035354,178.7833232736112 65.53780008679452,178.7833232736112 65.53780008679452,177.99171882119907 64.7489066090176,177.99171882119907 64.7489066090176,177.20011436927172 63.95730215709023,177.20011436927172 63.95730215709023,176.40850991734436 62.38222617568682,176.40850991734436 62.38222617568682,175.61690546590174 61.59333269790989,175.61690546590174 61.59333269790989,174.83614490992977 60.801728245982524,174.83614490992977 60.801728245982524,174.04454045800242 59.22123031627824,174.04454045800242 59.22123031627824,174.83614490992977 60.0128347682056,174.83614490992977 60.0128347682056,177.20011436927172 60.801728245982524,177.20011436927172 60.801728245982524,179.08695237813689 60.801728245982524,180.35568828005626 61.59333269790989,180.35568828005626 61.59333269790989,184.30286664373767 60.0128347682056,184.30286664373767 60.0128347682056,185.09447109566503 58.43233683850131,185.09447109566503 58.43233683850131,185.88607554759238 56.06023445686966,185.88607554759238 56.06023445686966,186.67767999935816 52.904660546085125,186.67767999935816 52.904660546085125,187.46928445128552 50.540691086743195,187.46928445128552 50.53526913828073,188.25004500693433 49.74366468635337,188.25004500693433 49.74366468635337,189.04164945886168 48.16858870511154,189.04164945886168 48.16858870511154,188.25004500693433 46.58809077540725,188.25004500693433 46.58809077540725,187.46928445128552 43.427094915998666,187.46928445128552 43.427094915998666,185.88607554759238 44.218699367764444,185.88607554759238 44.218699367764444,185.09447109566503 43.427094915998666,185.09447109566503 43.427094915998666,184.30286664373767 42.64362338636103,184.30286664373767 42.64362338636103,183.576325570936 42.64362338636103,182.73050163680784 41.852018934433666,182.73050163680784 41.852018934433666,181.93889718439573 40.88691213687839,181.93889718439573 40.27152100472937,181.93889718439573 40.27152100472937,181.40754625058707 40.27152100472937,181.14729273246837 39.48262752711403,181.14729273246837 39.48262752711403,180.35568828005626 39.18442037040447,180.35568828005626 37.90212959740975,180.35568828005626 37.90212959740975,179.56408382812887 37.11594709362167,179.56408382812887 37.11594709362167,178.42547468510728 37.11594709362167,177.99171882119907 36.636104669156055,177.99171882119907 36.32705361584474,177.99171882119907 36.32705361584474,177.69893361343674 36.32705361584474,177.20011436927172 35.82010144971318,177.20011436927172 35.643888130096414,177.0591437136106 35.53544916391738,176.40850991734436 34.92547998006924,176.40850991734436 34.746555686140454,175.61690546590174 34.063390200553705,175.61690546590174 33.16605775643616,175.61690546590174 33.16605775643616,174.83614490992977 32.37174233035836,174.83614490992977 32.36089843375662,174.04454045800242 31.582848852581435,174.04454045800242 31.50694157653081,173.25293600607506 30.799377323105382,173.25293600607506 30.799377323105382,172.60230221045512 30.002350922877145,172.46133155414768 30.002350922877145,171.86491724185967 28.427274941473726,171.66972710222032 28.427274941473726,170.8781226509393 27.63567048970795,170.8781226509393 27.63567048970795,170.09736209480576 26.846777011769436,170.09736209480576 26.846777011769436,166.93094428774265 26.055172559842074,166.93094428774265 26.055172559842074,164.82722834651943 26.055172559842074,164.5669748288855 25.266279082065147,164.5669748288855 25.266279082065147,163.40667789217562 25.266279082065147,162.983765924546 24.48009657843866,162.983765924546 24.48009657843866,162.00781523038899 24.48009657843866,161.4114009176162 24.12495896473152,161.4114009176162 23.685781152360857,161.4114009176162 23.685781152360857,160.67401594853595 23.685781152360857,159.8281920132767 23.1869619086806,159.8281920132767 22.899598648895953,159.8281920132767 22.899598648895953,159.3510605632847 22.899598648895953,157.46422255441954 22.110705171119026,157.46422255441954 22.110705171119026,155.88101365008004 20.84196926855331,155.88101365008004 20.530207241414736,155.88101365008004 20.42719022369816,155.37135051012123 20.37568171467829,155.08940919815268 19.738602789487373,155.08940919815268 19.738602789487373,154.29780474622532 18.949709311872034,154.29780474622532 18.949709311872034,152.72543973881076 18.158104859783084,152.72543973881076 18.109307324913647,151.14223083544078 17.369211381844572,151.14223083544078 17.369211381844572,149.80843155342617 17.369211381844572,149.55902193174765 16.585739852530104,149.55902193174765 16.585739852530104,148.7782613765836 15.794135400602741,148.7782613765836 15.794135400602741,147.19505247289047 15.005241922825814,147.19505247289047 15.005241922825814,145.50340460237194 15.005241922825814,144.82023911662364 14.633838464216058,144.82023911662364 14.213637470898451,144.82023911662364 14.213637470898451,142.45626965776646 13.424743993121524,142.45626965776646 13.424743993121524,137.71748684215768 14.213637470898451,137.71748684215768 14.213637470898451,135.35351738281574 15.005241922825814,135.35351738281574 15.005241922825814,134.8113225527285 15.005241922825814,134.22575213671905 15.005241922825814,131.40633902010384 15.794135400602741,131.40633902010384 15.794135400602741,130.61473456866125 16.585739852530104,130.46292001559047 16.585739852530104,129.03152566496811 17.369211381844572,129.03152566496811 17.369211381844572,128.29414069524154 17.369211381844572,126.66755620497983 17.905984263630934,126.66755620497983 18.158104859783084,126.66755620497983 18.158104859783084,125.87595175369881 18.949709311872034,125.87595175369881 18.949709311872034,124.29274284984409 19.738602789487373,124.29274284984409 19.738602789487373,123.50113839743196 20.530207241414736,123.50113839743196 20.530207241414736,117.18999057489337 19.738602789487373,117.18999057489337 19.738602789487373,114.6416748742913 19.738602789487373,106.12921604192171 18.949709311872034,106.12921604192171 18.949709311872034,103.76524658257978 18.158104859783084,103.76524658257978 18.158104859783084,102.18203767824029 17.369211381844572,102.18203767824029 17.369211381844572,101.40127712372261 16.585739852530104,101.40127712372261 16.528809395370942,100.25182408377609 16.507121602167455,99.81806821938312 15.794135400602741,99.81806821938312 15.794135400602741,98.23485931504364 15.005241922825814,98.23485931504364 15.005241922825814,97.44325486311628 14.213637470898451,97.44325486311628 14.213637470898451,95.87088985618647 13.424743993121524,95.87088985618647 13.424743993121524,90.34050258913508 14.213637470898451,90.34050258913508 14.213637470898451,88.75729368592671 14.598595800260387,88.75729368592671 15.005241922825814,88.75729368592671 15.005241922825814,85.60171977465741 14.213637470898451,85.60171977465741 14.213637470898451,83.23775031580024 13.424743993121524,83.23775031580024 13.424743993121524,80.86293695904864 12.633139541194161,80.86293695904864 12.633139541194161,77.7073630482641 11.844246063417234,77.7073630482641 11.844246063417234,75.34339358892217 11.052641611489872,75.34339358892217 11.052641611489872,72.96858023314007 10.269170081852229,72.96858023314007 10.269170081852229,72.17697578121272 7.8970677002205765,72.17697578121272 7.8970677002205765,72.96858023314007 5.817750526836031,72.96858023314007 2.372102381631653,72.96858023314007 2.372102381631653,72.17697578121272 0.7916044519273631,72.17697578121272 0.7916044519273631,71.3853713299317 0,71.3853713299317 0,69.81300632235555 0.7916044519273631,69.81300632235555 0.7916044519273631,59.543836240341726 1.5804979297042898,59.543836240341726 1.5804979297042898,58.75223178841436 2.372102381631653,58.75223178841436 2.372102381631653,56.38826232907243 1.8841270345531413,56.38826232907243 1.5804979297042898,56.38826232907243 1.5804979297042898,46.11909224754338 2.372102381631653,46.11909224754338 2.372102381631653,45.479302348202026 2.372102381631653,42.17191388434672 3.1609958594085796,42.17191388434672 3.1609958594085796,39.80794442548955 4.456841503478658,39.80794442548955 4.7414937891128695,39.80794442548955 4.7414937891128695,39.43925194119181 4.7414937891128695,39.01633997307743 5.072232635466083,39.01633997307743 5.527676292900947,39.01633997307743 5.527676292900947,38.430769557067975 5.527676292900947,36.641526617295334 6.316569770516287,36.641526617295334 6.316569770516287,35.06916160988077 7.1081742226052365,35.06916160988077 7.1081742226052365,34.2775571579534 8.688672152147939,34.2775571579534 8.688672152147939,33.4859527065108 9.477565629924866,33.453421017028745 9.477565629924866,32.69434825458344 10.195973779790453,32.69434825458344 11.052641611489872,32.69434825458344 11.052641611489872,31.913587699096237 12.633139541194161,31.913587699096237 12.633139541194161,31.12198324765363 11.844246063417234,30.981012591023017 11.844246063417234,28.74716989203313 13.424743993121524,28.74716989203313 13.424743993121524,27.955565439621008 14.213637470898451,27.955565439621008 14.213637470898451,27.174804883972214 15.495928243893175,27.174804883972214 15.794135400602741,27.174804883972214 15.794135400602741,26.87117577944654 15.794135400602741,26.383200432691197 16.390549713537112,26.328980949359302 16.585739852530104,25.591595980763834 17.58337833972903,25.591595980763834 18.158104859783084,25.591595980763834 18.158104859783084,25.212059599056424 18.158104859783084,24.799991528836472 18.949709311872034,24.691552562172678 18.949709311872034,24.00838707642435 19.99885630792925,24.00838707642435 20.530207241414736,24.00838707642435 20.530207241414736,23.661382384845346 20.530207241414736,23.227626521421904 21.319100719191663,23.1408753479616 21.319100719191663,22.43602206949454 22.403490379366133,22.43602206949454 22.899598648895953,22.43602206949454 22.899598648895953,22.110705171119026 22.899598648895953,21.64441761756718 23.609873876148644,21.64441761756718 24.48009657843866,21.64441761756718 24.48009657843866,20.852813165155055 24.835234192145798,20.852813165155055 25.266279082065147,20.852813165155055 25.266279082065147,20.061208713227693 26.076860353207152,20.061208713227693 26.846777011769436,20.061208713227693 26.846777011769436,19.573233366472355 26.846777011769436,19.26960426130033 27.32119748809577,19.26960426130033 27.63567048970795,19.26960426130033 27.63567048970795,18.488843706297885 28.543846829942485,18.488843706297885 29.218879393401092,18.488843706297885 29.218879393401092,18.065931738668255 29.218879393401092,17.697239253885762 29.788183964992687,17.697239253885762 30.002350922877145,17.697239253885762 30.002350922877145,16.9056348019584 30.89155044422021,16.9056348019584 31.582848852581435,16.9056348019584 31.582848852581435,16.114030350031037 32.37174233035836,16.114030350031037 32.37174233035836,15.56099162414999 32.37174233035836,12.166851987803899 34.746555686140454,12.166851987803899 34.746555686140454,11.375247536038122 36.32705361584474,11.375247536038122 36.32705361584474,10.58364308411076 37.11594709362167,10.58364308411076 37.11594709362167,9.802882527977207 37.90212959740975,9.802882527977207 37.90212959740975,9.011278076049845 39.604621363722075,9.011278076049845 40.27152100472937,9.011278076049845 40.27152100472937,8.707648971524167 40.27152100472937,8.219673624768829 41.4426618377178,8.100390762149637 41.852018934433666,8.057015175257899 41.852018934433666,7.428069172841465 42.64362338636103,7.428069172841465 42.64362338636103,6.636464720914102 43.427094915998666,6.636464720914102 43.427094915998666,5.855704165265311 45.00759284570296,5.855704165265311 45.00759284570296,6.636464720914102 48.16858870511154,6.636464720914102 48.16858870511154,5.855704165265311 49.74366468635337,5.855704165265311 49.74366468635337,5.064099713499535 51.32416261605766,5.064099713499535 51.32416261605766,4.272495261572171 52.904660546085125,4.272495261572171 52.904660546085125,3.480890809644808 54.48515847562783,3.480890809644808 54.48515847562783,1.8976819053053222 57.591934852027684,3.686924844916371 64.4723872456731,6.90756213595772 67.0884773010056,7.037688895340243 73.26407641553762,7.059376688543733 74.69004881882863,7.276254620255453 77.17059016631615,8.284737003894536 79.12520252878063,9.08718535258523 80.50779934566467,9.53178511293359 81.88497421392465,9.661911872316113 83.36245512591238,9.69444356244452 84.40075822552943,9.304063284943298 87.09004458276212,6.701528100039811 88.26118541575055,4.662875539073394 89.95012231147227,1.6699600766686835 90.6116000041787,1.0410140742522511 91.1429509376642,0.672321589954518 92.20836377878561,0.14097065614585438 92.66109646190846,0 93.3469729219688,0.07590727605062624 94.18195296030315,0.3470046910942437 95.27989749122979,0.9976384878452722 97.139625758429,2.0494964578913346 98.35685315213644,2.580847391538412 100.4063496097046,3.3073884638553066 102.59681672325704,3.9797100533250642 M45.79919729763032,-76.06993466059272 45.79919729763032,-73.90115534024378 46.186866600981105,-73.90115534024378 46.58809077540725,-73.90115534024378 46.58809077540725,-68.37076807335399 45.79919729763032,-68.37076807335399 45.79919729763032,-66.09354978731076 45.79919729763032,-64.42358971112684 45.00759284570296,-64.42358971112684 45.00759284570296,-64.07658501954784 45.00759284570296,-61.26801579985755 44.218699367764444,-61.26801579985755 44.218699367764444,-60.47641134793019 43.427094915998666,-60.47641134793019 43.427094915998666,-60.03181158709707 43.427094915998666,-58.90404634051562 42.64362338636103,-58.8932024435907 42.64362338636103,-58.11244188858826 41.852018934433666,-58.11244188858826 41.852018934433666,-54.94602408039404 41.06312545681833,-54.94602408039404 41.06312545681833,-53.37365907346423 40.27152100472937,-53.37365907346423 40.27152100472937,-51.790450169124746 39.48262752711403,-51.790450169124746 39.48262752711403,-50.21808516219494 38.69102307518667,-50.21808516219494 38.69102307518667,-48.6348762585018 37.90212959740975,-48.6348762585018 37.90212959740975,-46.39018966161748 37.90212959740975,-45.479302347717265 37.11594709362167,-45.479302347717265 37.11594709362167,-44.6876978957899 36.32705361584474,-44.6876978957899 36.32705361584474,-43.89609344386254 35.53544916391738,-43.89609344386254 35.53544916391738,-43.10448899193518 34.746555686140454,-43.10448899193518 34.746555686140454,-37.36806768961223 34.746555686140454,-34.41852781312974 33.95495123421309,-34.41852781312974 33.95495123421309,-33.648611154567455 33.95495123421309,-32.846162806199935 33.64318920707451,-32.846162806199935 33.16605775643616,-32.846162806199935 33.16605775643616,-31.63164638664294 33.16605775643616,-29.67974499865207 32.37174233035836,-29.67974499865207 32.37174233035836,-28.888140547209463 31.582848852581435,-28.888140547209463 31.582848852581435,-27.586872954838515 31.582848852581435,-27.315775539794895 30.799377323105382,-27.315775539794895 30.799377323105382,-25.73256663594017 30.002350922877145,-25.73256663594017 30.002350922877145,-23.36859717611348 29.218879393401092,-23.36859717611348 29.218879393401092,-16.25500100520737 28.427274941473726,-16.25500100520737 28.427274941473726,-13.891031546350199 29.218879393401092,-13.891031546350199 29.218879393401092,-12.30782264265706 30.002350922877145,-12.30782264265706 30.002350922877145,-9.152248731872525 30.799377323105382,-9.152248731872525 30.799377323105382,-4.413465916748506 30.002350922877145,-4.413465916748506 30.002350922877145,-3.621861464821143 29.218879393401092,-3.621861464821143 29.218879393401092,-2.0494964578913346 28.725482098021708,-2.0494964578913346 28.427274941473726,-2.0494964578913346 28.427274941473726,-0.4662875540366087 29.218879393401092,-0.4662875540366087 29.218879393401092,1.1169213503028772 28.427274941473726,1.1169213503028772 28.427274941473726,3.480890809644808 27.63567048970795,3.480890809644808 27.63567048970795,4.272495261572171 26.846777011769436,4.272495261572171 26.846777011769436,5.064099713499535 26.055172559842074,5.064099713499535 26.055172559842074,8.219673624768829 25.266279082065147,8.219673624768829 25.266279082065147,9.011278076049845 24.48009657843866,9.011278076049845 24.48009657843866,9.802882527977207 22.899598648895953,9.802882527977207 22.899598648895953,10.58364308411076 22.002266204939993,10.58364308411076 20.530207241414736,10.58364308411076 20.530207241414736,11.375247536038122 19.738602789487373,11.375247536038122 19.738602789487373,12.015037435379472 18.949709311872034,12.166851987803899 18.949709311872034,12.513856678413383 18.949709311872034,13.750060891173865 17.00594084584771,13.750060891173865 15.794135400602741,13.750060891173865 15.794135400602741,14.519977549897739 15.005241922825814,14.541665343101227 15.005241922825814,15.018796794062755 15.005241922825814,15.322425898588433 14.517266575585715,15.322425898588433 14.213637470898451,15.322425898588433 14.213637470898451,16.114030350031037 13.215998983376352,16.114030350031037 12.633139541194161,16.114030350031037 12.633139541194161,16.45019114533147 12.633139541194161,16.9056348019584 11.844246063417234,16.9056348019584 11.844246063417234,17.697239253885762 10.44538340163058,17.697239253885762 7.8970677002205765,17.697239253885762 7.8970677002205765,18.488843706297885 6.316569770516287,18.488843706297885 6.316569770516287,19.26960426130033 5.527676292900947,19.26960426130033 5.527676292900947,20.061208713227693 4.7414937891128695,20.061208713227693 4.7414937891128695,20.852813165155055 3.9526003113359427,20.852813165155055 3.8306064745663146,21.492603064496407 3.6381273098853466,21.64441761756718 3.1609958594085796,21.64441761756718 3.1609958594085796,22.21914413778282 3.1609958594085796,22.43602206949454 2.372102381631653,22.43602206949454 2.372102381631653,23.09749976203938 1.5804979297042898,23.227626521421904 1.5804979297042898,23.965011490502132 0.7916044519273631,24.00838707642435 0.7916044519273631,24.799991528836472 0,24.799991528836472 0,25.71087884322144 0,26.383200432691197 -0.7888934777769269,26.383200432691197 -0.7888934777769269,27.174804883972214 -1.575075981241831,27.174804883972214 -1.575075981241831,27.955565439621008 -2.727239995177205,27.955565439621008 -3.1555739111077075,27.955565439621008 -3.1555739111077075,28.74716989203313 -4.527326831228412,28.74716989203313 -6.319280744505137,28.74716989203313 -6.319280744505137,29.538774343960494 -7.899778674371013,29.538774343960494 -7.899778674371013,30.232783725987392 -9.472143681462407,30.33037879572627 -9.472143681462407,31.12198324765363 -10.26374813338977,31.12198324765363 -10.26374813338977,32.69434825458344 -11.055352585317134,32.69434825458344 -11.055352585317134,34.3859961246172 -11.055352585317134,35.860766061808135 -11.84424606309406,35.860766061808135 -11.84424606309406,36.641526617295334 -12.635850515021424,36.641526617295334 -12.635850515021424,38.224735521150066 -13.568425622933054,38.224735521150066 -14.216348444725714,38.224735521150066 -14.216348444725714,39.01633997307743 -15.005241922341053,39.01633997307743 -15.005241922341053,40.11157353066157 -15.005241922341053,41.38030943241936 -15.791424426290718,41.38030943241936 -15.791424426290718,42.17191388434672 -16.566763033153876,42.17191388434672 -17.371922355995007,42.17191388434672 -17.371922355995007,42.963518336758845 -18.160815833610346,42.963518336758845 -18.160815833610346,44.26478592816027 -18.160815833610346,44.54672724061357 -18.952420285699297,44.54672724061357 -18.952420285699297,45.327487795616015 -19.741313763314636,45.327487795616015 -19.741313763314636,46.9106966999555 -20.532918215242,46.9106966999555 -20.532918215242,48.49390560364864 -21.316389744879643,48.49390560364864 -21.316389744879643,50.98800182140357 -21.316389744879643,51.649479514433175 -21.620018849728492,51.649479514433175 -22.107994196807006,51.649479514433175 -22.107994196807006,52.701337485125585 -22.107994196807006,54.80505342521771 -22.896887674583933,54.80505342521771 -22.896887674583933,55.59665787714507 -23.688492126511296,55.59665787714507 -23.688492126511296,56.38826232907243 -24.08158337832454,56.38826232907243 -24.477385604288223,56.38826232907243 -24.477385604288223,56.97383274556665 -24.477385604288223,57.179866780999795 -26.849487985919875,57.179866780999795 -26.849487985919875,57.97147123341192 -27.632959515395928,57.97147123341192 -27.632959515395928,59.543836240341726 -28.429985915624165,59.543836240341726 -28.429985915624165,61.12704514468121 -29.213457445100218,61.12704514468121 -29.213457445100218,62.69941015112626 -28.429985915624165,62.69941015112626 -28.429985915624165,63.03557094626511 -28.429985915624165,64.28261905546574 -27.632959515395928,64.28261905546574 -27.632959515395928,65.07422350787787 -28.429985915624165,65.07422350787787 -28.429985915624165,65.86582795980523 -29.213457445100218,65.86582795980523 -29.213457445100218,67.43819296673504 -30.00506189702758,67.43819296673504 -30.00506189702758,73.76018468506744 -30.793955374804508,73.76018468506744 -30.793955374804508,74.5517891369948 -32.3744533045088,74.5517891369948 -32.3744533045088,75.34339358892217 -33.515773421842425,75.34339358892217 -33.94952928575063,75.34339358892217 -33.95495123421309,76.10246635120588 -34.746555686140454,76.12415414489413 -34.746555686140454,76.91575859633673 -37.11052514532079,76.91575859633673 -37.11052514532079,78.49896750019145 -37.90212959708657,78.49896750019145 -37.90212959708657,80.86293695904864 -38.691023075025086,80.86293695904864 -38.691023075025086,82.07745337909039 -38.691023075025086,82.44614586338813 -38.98380828327219,82.44614586338813 -39.48262752695245,82.44614586338813 -39.48262752695245,83.07509186580455 -39.48262752695245,84.02935476772761 -40.27152100472937,84.02935476772761 -40.27152100472937,84.81011532273006 -40.74594148105571,84.81011532273006 -41.06583643064559,84.81011532273006 -41.06583643064559,85.29809066948539 -41.06583643064559,85.60171977465741 -41.8465969859712,85.60171977465741 -41.8465969859712,86.39332422658478 -42.635490463748134,86.39332422658478 -42.635490463748134,87.72712350843778 -42.635490463748134,87.97653313027791 -43.4270949156755,87.97653313027791 -43.4270949156755,88.94163992751002 -43.4270949156755,89.54889813785407 -43.822897141639174,89.54889813785407 -44.215988393290836,89.54889813785407 -44.215988393290836,90.32965869285651 -44.215988393290836,91.92371149298981 -44.96421725897281,91.92371149298981 -45.799197297307146,91.92371149298981 -45.799197297307146,93.70211053583753 -45.799197297307146,95.07928540425911 -46.590801749234515,95.07928540425911 -46.590801749234515,95.38291450943113 -46.590801749234515,95.87088985618647 -47.38240620116188,95.87088985618647 -47.38240620116188,97.06371848302473 -47.38240620116188,97.44325486311628 -48.16316675664908,97.44325486311628 -48.16316675664908,98.75536635192738 -48.16316675664908,99.81806821938312 -48.954771208576446,99.81806821938312 -48.954771208576446,101.40127712372261 -49.74637566050381,101.40127712372261 -49.74637566050381,102.97364213065242 -50.53526913828073,102.97364213065242 -50.53526913828073,115.60678167103865 -49.74637566050381,115.60678167103865 -49.74637566050381,117.18999057489337 -48.954771208576446,117.18999057489337 -48.954771208576446,117.9815950273055 -48.46950683564837,117.9815950273055 -48.16316675664908,117.9815950273055 -48.16316675664908,118.84910675576825 -48.16316675664908,119.5539600342353 -47.86767057408995,119.5539600342353 -47.38240620116188,119.5539600342353 -47.38240620116188,120.34556448616267 -46.590801749234515,120.34556448616267 -46.590801749234515,122.590251083047 -46.590801749234515,123.50113839743196 -46.20584341987257,123.50113839743196 -45.799197297307146,123.50113839743196 -45.799197297307146,125.03012781843955 -45.799197297307146,127.44831676062861 -45.164829345943495,127.45916065690719 -45.09705499218259,128.05557496984156 -45.01030381953022,129.03152566496811 -44.215988393290836,129.03152566496811 -44.215988393290836,130.4520761193119 -43.4270949156755,130.61473456866125 -43.4270949156755,132.62085543966083 -43.4270949156755,133.77030847896103 -43.015026844970784,133.77030847896103 -42.635490463748134,133.77030847896103 -42.635490463748134,134.80047865628836 -42.635490463748134,136.9258823902303 -41.946903029537346,136.9258823902303 -41.946903029537346,137.22951149540233 -41.8465969859712,142.45626965776646 -41.06583643064559,142.45626965776646 -41.06583643064559,144.82023911662364 -40.27152100472937,144.82023911662364 -40.27152100472937,146.4034480209631 -39.48262752695245,146.4034480209631 -39.48262752695245,147.19505247289047 -38.68017917842334,147.19505247289047 -37.90212959708657,147.19505247289047 -37.90212959708657,148.7782613765836 -37.11052514532079,148.7782613765836 -37.11052514532079,150.35062638351343 -36.31892069339343,150.35062638351343 -36.31892069339343,154.29780474622532 -35.53002721545492,154.29780474622532 -35.53002721545492,165.35857928081285 -36.31892069339343,165.35857928081285 -36.31892069339343,166.93094428774265 -36.796052143708614,166.93094428774265 -37.11052514532079,166.93094428774265 -37.11052514532079,169.30575764336317 -36.57917421183531,169.30575764336317 -36.31892069339343,169.30575764336317 -36.31892069339343,170.09736209480576 -35.53002721545492,170.09736209480576 -35.53002721545492,170.8781226509393 -36.31892069339343,170.8781226509393 -36.31892069339343,171.66972710222032 -37.11052514532079,171.66972710222032 -37.11052514532079,172.46133155414768 -37.90212959708657,172.46133155414768 -37.90212959708657,173.25293600607506 -38.691023075025086,173.25293600607506 -38.691023075025086,174.34816956317445 -38.691023075025086,175.61690546590174 -39.48262752695245,175.61690546590174 -39.48262752695245,175.98559794971473 -39.48262752695245,176.40850991734436 -40.27152100472937,176.40850991734436 -40.27152100472937,177.69893361343674 -40.27152100472937,177.99171882119907 -41.06583643064559,177.99171882119907 -41.06583643064559,180.35568828005626 -41.8465969859712,180.35568828005626 -41.8465969859712,183.34860374294573 -41.8465969859712,187.46928445128552 -43.0014719742186,187.46928445128552 -43.4270949156755,187.46928445128552 -43.4270949156755,189.00911776873326 -45.01030381953022,189.04164945886168 -45.01030381953022,190.62485836207006 -44.215988393290836,190.62485836207006 -44.215988393290836,191.4164628139974 -43.46233757963117,191.4164628139974 -42.635490463748134,191.4164628139974 -42.635490463748134,197.72761063605125 -43.4270949156755,197.72761063605125 -43.4270949156755,204.84120680728054 -42.96080736196206,204.84120680728054 -42.635490463748134,204.84120680728054 -42.635490463748134,205.62196736292933 -42.97978418101511,205.62196736292933 -43.4270949156755,205.62196736292933 -43.4270949156755,209.4607067594622 -42.635490463748134,209.5799896219198 -42.635490463748134,210.36075017805334 -41.8465969859712,210.36075017805334 -41.8465969859712,212.7355635331891 -44.215988393290836,212.7355635331891 -44.215988393290836,213.52716798511645 -45.799197297307146,213.52716798511645 -45.799197297307146,214.30792854060365 -47.38240620116188,214.30792854060365 -47.38240620116188,215.09953299204625 -48.954771208576446,215.09953299204625 -48.954771208576446,215.89113744397363 -49.74637566050381,215.89113744397363 -49.74637566050381,216.682741895901 -50.45122893929404,216.682741895901 -51.326873590208095,216.682741895901 -51.326873590208095,217.3225317957271 -52.115767067823434,217.4743463483131 -52.115767067823434,217.89725831594274 -52.115767067823434,218.26595080024046 -52.61458631166528,218.26595080024046 -52.90737151991239,218.26595080024046 -52.90737151991239,219.0467113552429 -53.69084304938844,219.0467113552429 -54.48786944945509,219.0467113552429 -54.512268216970604,219.63228177173713 -54.79149855430394,219.6648134613808 -56.06294543102009,219.8383158071703 -56.06294543102009,220.6299202595824 -56.85183890879702,220.6299202595824 -56.85183890879702,221.3564613317377 -57.64344336072438,221.42152471150976 -57.64344336072438,221.9311878514686 -57.64344336072438,222.21312916343712 -58.08804312123433,222.21312916343712 -58.43233683850131,222.21312916343712 -58.43233683850131,222.99388971843956 -59.22394129042867,222.99388971843956 -59.22394129042867,223.7854941708517 -60.305619976452704,223.7854941708517 -61.587910749609016,223.7854941708517 -61.587910749609016,224.57709862277906 -62.37951520121321,224.57709862277906 -62.37951520121321,225.22773241888373 -63.16840867931331,225.36870307470642 -63.16840867931331,225.78077114541114 -63.16840867931331,226.16030752598743 -63.721447406002284,226.16030752598743 -64.7489066090176,226.16030752598743 -64.7489066090176,226.9519119779148 -65.54051106094497,226.9519119779148 -65.54051106094497,227.73267253404836 -66.32940453872189,227.73267253404836 -66.32940453872189,228.52427698597572 -67.12100899064924,228.52427698597572 -67.12100899064924,229.6411983351475 -67.12100899064924,230.10748588966885 -67.55476485455745,230.10748588966885 -67.90448051996371,230.10748588966885 -67.90448051996371,230.48702227040675 -67.90448051996371,230.89909034111145 -68.29486079778812,230.89909034111145 -68.69608497189108,230.89909034111145 -68.69608497189108,231.2677828254092 -68.69608497189108,231.67985089659865 -69.1623725259277,231.67985089659865 -69.484978449668,231.67985089659865 -69.484978449668,232.47145534852604 -70.06241594371092,232.47145534852604 -71.06547637953388,232.47145534852604 -71.06547637953388,233.26305979996863 -71.85708083129965,233.26305979996863 -71.85708083129965,234.05466425189599 -72.64597430923817,234.05466425189599 -72.64597430923817,234.74867363456923 -73.43757876116554,234.84626870382337 -73.43757876116554,235.50774639685295 -74.22105029048001,235.6378731562355 -74.22105029048001,236.38610202224064 -75.01265474256896,236.41863371123793 -75.01265474256896,237.27530154277576 -75.01265474256896,238.00184261509264 -75.80154822018429,238.00184261509264 -75.80154822018429,239.58505151943214 -76.59315267211166,239.58505151943214 -76.59315267211166,240.3658120744346 -77.38204614988858,240.3658120744346 -77.38204614988858,241.15741652636194 -78.17365060181595,241.15741652636194 -78.17365060181595,241.94902097877406 -79.1902659082295,241.94902097877406 -79.74872658338096,241.94902097877406 -79.74872658338096,242.57796698167525 -81.32922451308524,242.74062543070144 -81.32922451308524,244.1828636782487 -82.11811799086217,244.32383433390982 -82.11811799086217,244.94193644053243 -82.90972244278953,245.1045948895586 -82.90972244278953,245.70100920297773 -83.7013268947169,245.8961993419707 -83.7013268947169,246.6878037938981 -83.96158041315877,246.6878037938981 -85.28182482442118,246.6878037938981 -85.28182482442118,247.97822748885935 -85.28182482442118,248.27101269759123 -85.57732100681872,248.27101269759123 -86.06529635389724,248.27101269759123 -86.06529635389724,248.73730025114307 -86.06529635389724,249.05177325275525 -86.39603520008886,249.05177325275525 -86.86232275412547,249.05177325275525 -86.86232275412547,249.49637301358837 -86.86232275412547,249.84337770452103 -87.21203841953174,249.84337770452103 -87.64850525759037,249.84337770452103 -87.64850525759037,250.25544577538733 -87.64850525759037,250.6349821564484 -88.43739873552889,250.6349821564484 -88.43739873552889,251.35067933184038 -89.22900318745626,251.426586607891 -89.22900318745626,252.4676006816585 -89.22900318745626,253.00979551174572 -89.6139615166566,253.00979551174572 -90.01789666523318,253.00979551174572 -90.01789666523318,253.57367813503646 -90.01789666523318,254.58216051916028 -90.80950111716055,254.58216051916028 -90.80950111716055,255.37376497108767 -91.29476549008862,255.37376497108767 -91.59839459493747,255.37376497108767 -91.59839459493747,255.7966769387173 -91.59839459493747,256.165369423015 -92.38999904686483,256.165369423015 -92.38999904686483,256.9135982890202 -93.17889252464177,256.95697387542714 -93.17889252464177,257.6726710513039 -93.95423113150493,257.4557931191074 -95.50219737140398,257.09794453060346 -97.82279124433893,256.5449058047224 -101.42296491611816,255.84005252512426 -102.23896813539946,255.70992576574173 -103.40468702008701,255.5906429037689 -105.26983723542551,255.15688703937593 -107.57958721175872,254.3869703801673 -110.02217492130171,253.74718048082596 -113.19943662545133,253.0857027882811 -116.11915578563267,252.58688354460085 -117.39331363617609,252.30494223327867 -118.73253486665314,251.87118636872412 -120.70883502232111,251.1880208829758 -124.31171966825079,250.2771335685908 -128.39444673864608,249.33371456407744 -138.99164469286268,247.20831083062023 -141.0845167369994,246.7203354828954 -142.1336637332182,246.5251453439024 -142.1336637332182,245.8961993419707 -141.34205928129083,245.75522868566327 -141.34205928129083,244.32383433390982 -140.5531658035139,244.32383433390982 -140.5531658035139,243.9117662632051 -140.5531658035139,243.5322298826288 -139.76156135158655,243.5322298826288 -139.76156135158655,242.06830384074692 -139.76156135158655,241.15741652636194 -139.37118107360058,241.15741652636194 -138.9780898219489,241.15741652636194 -138.9780898219489,240.23568531505205 -138.9780898219489,239.58505151943214 -138.18106342188227,239.58505151943214 -138.18106342188227,238.3705350993904 -138.18106342188227,237.2102381631653 -137.70664294555593,237.2102381631653 -137.3975918922446,237.2102381631653 -137.3975918922446,236.41863371123793 -136.60598744031725,236.41863371123793 -136.60598744031725,234.5209518059326 -136.60598744031725,233.26305979996863 -135.81709396254033,233.26305979996863 -135.81709396254033,232.5798943142203 -135.81709396254033,231.67985089659865 -135.51888680615394,231.67985089659865 -135.02548951061297,231.67985089659865 -135.02548951061297,230.07495419970203 -135.02548951061297,228.52427698597572 -134.54564708614734,228.52427698597572 -134.23659603299762,228.52427698597572 -134.23659603299762,227.51579460120553 -134.23659603299762,226.16030752598743 -133.8218169879809,226.16030752598743 -133.44499158090866,226.16030752598743 -133.44499158090866,224.96747890028027 -133.44499158090866,223.7854941708517 -132.97870402703364,223.7854941708517 -132.65609810329335,223.7854941708517 -132.65609810329335,222.9830458219994 -132.65609810329335,222.21312916343712 -132.34975802429406,222.21312916343712 -131.86991559966685,222.21312916343712 -131.86991559966685,221.0094566401587 -131.86991559966685,219.8383158071703 -131.39820609732936,219.8383158071703 -131.08102212172832,219.8383158071703 -131.08102212172832,219.0358674594491 -131.08102212172832,218.26595080024046 -130.76654912027774,218.26595080024046 -130.2894176696394,218.26595080024046 -130.2894176696394,217.06227827760839 -130.2894176696394,216.682741895901 -129.50052419202405,216.682741895901 -129.50052419202405,215.08868909625244 -129.50052419202405,214.30792854060365 -129.20773898377695,214.30792854060365 -128.7089197400967,214.30792854060365 -128.7089197400967,212.98497315502922 -128.7089197400967,211.15235462981911 -127.92002626231975,211.15235462981911 -127.92002626231975,210.36075017805334 -127.1284218103924,210.36075017805334 -127.1284218103924,208.76669737678895 -127.1284218103924,207.20517626678406 -126.33952833261546,207.20517626678406 -126.33952833261546,206.67382533249062 -126.33952833261546,204.84120680728054 -125.55334582915056,204.84120680728054 -125.55334582915056,204.04960235551476 -124.76445235137363,204.04960235551476 -124.76445235137363,202.52061293499193 -124.76445235137363,201.6747889992479 -124.42558058256911,201.6747889992479 -123.97284789944626,201.6747889992479 -123.97284789944626,200.50364816658265 -123.97284789944626,200.1024239923181 -123.18395442166934,200.1024239923181 -123.18395442166934,198.50837119153846 -123.18395442166934,196.9360061841239 -122.39234996974199,196.9360061841239 -122.39234996974199,196.50225032070045 -122.39234996974199,195.36364117719407 -121.94503923475843,195.36364117719407 -121.60074551781462,195.36364117719407 -121.60074551781462,194.506973346141 -121.60074551781462,193.78043227382412 -121.31609323201882,193.78043227382412 -120.80914106588725,193.78043227382412 -120.80914106588725,192.49000857837808 -120.80914106588725,191.4164628139974 -120.38894007256965,191.4164628139974 -120.02024758811032,191.4164628139974 -120.02024758811032,190.48388770640898 -120.02024758811032,189.04164945886168 -119.23677605863428,189.04164945886168 -119.23677605863428,188.46692293864604 -119.23677605863428,187.46928445128552 -118.84368480682103,187.46928445128552 -118.44788258085734,187.46928445128552 -118.43974965840604,186.46080206764645 -118.43974965840604,185.88607554759238 -117.65356715461796,185.88607554759238 -117.65356715461796,184.20527157448353 -117.65356715461796,183.52210608873523 -116.86467367700261,183.52210608873523 -116.86467367700261,181.93889718439573 -116.86467367700261,181.14729273246837 -116.07306922507526,181.14729273246837 -116.07306922507526,179.7050544847595 -116.07306922507526,178.7833232736112 -115.61762556764039,178.7833232736112 -115.28417574729833,178.7833232736112 -115.28417574729833,178.12184558106637 -115.28417574729833,176.40850991734436 -114.49257129537096,176.40850991734436 -114.49257129537096,174.83614490992977 -113.70367781759404,174.83614490992977 -113.70367781759404,174.04454045800242 -113.24281221201989,174.04454045800242 -112.91749531380596,174.04454045800242 -112.91749531380596,173.25293600607506 -112.12317988788975,173.25293600607506 -112.12317988788975,171.34441020497593 -112.12317988788975,170.8781226509393 -111.33699738410168,170.8781226509393 -111.33699738410168,169.13225529805842 -111.33699738410168,168.51415319143578 -110.54810390632474,168.51415319143578 -110.54810390632474,166.92010039081774 -110.54810390632474,165.35857928081285 -109.75649945439739,165.35857928081285 -109.75649945439739,164.7079454840618 -109.75649945439739,162.983765924546 -108.96760597678204,162.983765924546 -108.96760597678204,162.49579057779067 -108.96760597678204,161.4114009176162 -108.57722569911924,161.4114009176162 -108.17600152469309,161.4114009176162 -108.17600152469309,160.27279177410983 -108.17600152469309,158.24498310942198 -107.38710804707775,158.24498310942198 -107.38710804707775,156.67261810200742 -106.92082049304115,156.67261810200742 -106.59550359515039,156.67261810200742 -106.59550359515039,155.74004299490372 -106.59550359515039,153.50620029429797 -105.80661011737347,153.47366860481588 -105.80661011737347,151.14223083544078 -105.02042761374697,151.14223083544078 -105.02042761374697,149.55902193174765 -104.23153413580846,149.55902193174765 -104.23153413580846,148.9517637214036 -104.23153413580846,147.98665692465624 -103.83573190984478,147.98665692465624 -103.43992968388109,147.98665692465624 -103.43992968388109,147.03239402289478 -103.43992968388109,146.4034480209631 -102.65103620610417,146.4034480209631 -102.65103620610417,145.13471211758946 -102.65103620610417,144.82023911662364 -101.85943175417681,144.82023911662364 -101.85943175417681,143.2478741096938 -101.85943175417681,141.66466520535434 -101.07053827639987,141.66466520535434 -101.07053827639987,141.3501922043885 -101.07053827639987,140.0923001984245 -100.27893382447252,140.0923001984245 -100.27893382447252,139.45251029908317 -100.27893382447252,138.50909129408504 -99.89126452112173,138.50909129408504 -99.49546229515805,138.50909129408504 -99.49546229515805,137.57651618698134 -99.49546229515805,136.9258823902303 -98.70656881705794,136.9258823902303 -98.70656881705794,135.72220986759822 -98.70656881705794,135.35351738281574 -97.91496436545376,135.35351738281574 -97.91496436545376,133.85705965242133 -97.91496436545376,132.9787040275184 -97.54084993269356,132.9787040275184 -97.12607088751524,132.9787040275184 -97.12607088751524,131.99190943708282 -97.12607088751524,131.40633902010384 -96.3344664354263,131.40633902010384 -96.3344664354263,130.13760311834605 -96.3344664354263,129.8231301167339 -95.54557295781096,129.8231301167339 -95.54557295781096,128.16401393650534 -95.54557295781096,126.66755620497983 -94.98169033452022,126.66755620497983 -94.75396850588359,126.66755620497983 -94.75396850588359,125.87595175369881 -93.96507502810667,125.87595175369881 -93.96507502810667,123.9782698483935 -93.96507502810667,121.92877339050216 -93.17889252464177,121.89624170037375 -93.17889252464177,119.5539600342353 -92.38999904686483,119.5539600342353 -92.38999904686483,118.77319947923286 -91.99419682090115,118.77319947923286 -91.59839459493747,118.77319947923286 -91.59839459493747,117.9815950273055 -90.80950111716055,117.9815950273055 -90.80950111716055,115.60678167103865 -90.01789666523318,115.60678167103865 -90.01789666523318,113.66572417932635 -90.01789666523318,111.65960330881151 -89.22900318745626,111.6270716188447 -89.22900318745626,110.86799885704573 -88.93621797904756,110.86799885704573 -88.43739873552889,110.86799885704573 -88.43739873552889,109.29563384898482 -87.64850525759037,109.29563384898482 -87.64850525759037,107.71242494577643 -86.86232275412547,107.71242494577643 -86.86232275412547,104.65444610424602 -86.86232275412547,102.97364213065242 -86.31741694972622,102.97364213065242 -86.06529635389724,102.97364213065242 -86.06529635389724,102.18203767824029 -85.28182482442118,102.18203767824029 -85.28182482442118,99.65540977035695 -85.28182482442118,99.026463766971 -84.49293134664426,99.026463766971 -84.49293134664426,96.66249430811384 -85.28182482442118,96.66249430811384 -85.28182482442118,93.49607650088915 -84.49293134664426,93.49607650088915 -84.49293134664426,91.92371149298981 -83.7013268947169,91.92371149298981 -83.7013268947169,91.13210704106245 -82.90972244278953,91.13210704106245 -82.90972244278953,90.65497559123203 -82.90972244278953,90.34050258913508 -82.11811799086217,90.34050258913508 -82.11811799086217,88.2910061318901 -82.11811799086217,87.97653313027791 -81.32922451308524,87.97653313027791 -81.32922451308524,86.3716364332197 -81.32922451308524,85.60171977465741 -81.01204053748421,85.60171977465741 -80.53762006115788,85.60171977465741 -80.53762006115788,84.81011532273006 -79.74872658338096,84.81011532273006 -79.74872658338096,82.44614586338813 -78.96254407959287,82.44614586338813 -78.96254407959287,80.62437123461818 -78.96254407959287,80.07133250712127 -78.17365060181595,80.07133250712127 -78.17365060181595,78.54234308659844 -78.17365060181595,76.91575859633673 -77.38204614988858,76.91575859633673 -77.38204614988858,76.33018817984252 -77.38204614988858,73.76018468506744 -76.59315267211166,73.76018468506744 -76.59315267211166,72.96858023314007 -76.1783736272565,72.96858023314007 -75.80154822018429,72.96858023314007 -75.80154822018429,71.91672226260926 -75.80154822018429,71.3853713299317 -75.01265474256896,71.3853713299317 -75.01265474256896,69.02140187042818 -74.22105029048001,69.02140187042818 -74.22105029048001,65.83329626967682 -74.22105029048001,64.28261905546574 -73.81982611637704,64.28261905546574 -73.43757876116554,64.28261905546574 -73.43757876116554,62.77531742766165 -73.43757876116554,61.918649596608574 -72.64597430923817,61.918649596608574 -72.64597430923817,59.619743516392354 -72.64597430923817,57.97147123341192 -72.23119526405985,57.97147123341192 -71.85708083129965,57.97147123341192 -71.85708083129965,56.453325708682904 -71.85708083129965,54.80505342521771 -71.42332496739147,54.80505342521771 -71.06547637953388,54.80505342521771 -71.06547637953388,53.76403935209656 -71.06547637953388,52.44108396587578 -70.60461077379814,52.44108396587578 -70.27658290159538,52.44108396587578 -70.27658290159538,51.48682106508383 -70.27658290159538,50.066270610740034 -69.78860755467845,50.066270610740034 -69.484978449668,50.066270610740034 -69.484978449668,49.187914985352364 -69.484978449668,47.702301151882864 -68.69608497189108,47.702301151882864 -68.69608497189108,46.89985280254582 -68.69608497189108,45.327487795616015 -68.18913280575951,45.327487795616015 -67.90448051996371,45.327487795616015 -67.90448051996371,44.43828827394977 -67.90448051996371,43.75512278868621 -67.12100899064924,43.75512278868621 -67.12100899064924,41.97672374583849 -67.12100899064924,40.599548877416915 -66.6736982556657,40.599548877416915 -66.32940453872189,40.599548877416915 -66.32940453872189,39.55853480316466 -66.32940453872189,39.01633997307743 -65.54051106094497,39.01633997307743 -65.54051106094497,37.76929186452313 -65.54051106094497,36.641526617295334 -65.0335588948134,36.641526617295334 -64.7489066090176,36.641526617295334 -64.7489066090176,36.00173671843875 -64.7489066090176,34.2775571579534 -63.96001313124067,34.22333767510627 -63.96001313124067,32.69434825458344 -63.16840867931331,32.69434825458344 -63.16840867931331,31.12198324765363 -62.37951520121321,31.12198324765363 -62.37951520121321,30.417129968217054 -62.37951520121321,29.538774343960494 -62.048776355183165,29.538774343960494 -61.587910749609016,29.538774343960494 -61.587910749609016,28.313414026993822 -61.587910749609016,27.174804883972214 -61.15957683351693,27.174804883972214 -60.80443922013296,27.174804883972214 -60.80443922013296,26.209698086901696 -60.80443922013296,21.64441761756718 -60.00741281958155,21.64441761756718 -60.00741281958155,20.852813165155055 -59.22394129042867,20.852813165155055 -59.22394129042867,19.26960426130033 -58.43233683850131,19.26960426130033 -58.43233683850131,18.488843706297885 -57.90098590501582,18.488843706297885 -57.64344336072438,18.488843706297885 -57.64344336072438,17.697239253885762 -56.85183890879702,17.697239253885762 -56.85183890879702,16.114030350031037 -56.06294543102009,16.114030350031037 -56.06294543102009,14.541665343101227 -55.27134097909273,14.541665343101227 -55.27134097909273,11.255964672934171 -55.27134097909273,7.428069172841465 -54.48786944945509,7.428069172841465 -54.48786944945509,5.855704165265311 -53.69084304938844,5.855704165265311 -53.69084304938844,4.272495261572171 -52.90737151991239,4.272495261572171 -52.90737151991239,3.480890809644808 -52.44650591433824,3.480890809644808 -52.115767067823434,3.480890809644808 -52.115767067823434,2.6892863572326853 -51.326873590208095,2.6892863572326853 -51.326873590208095,1.1169213503028772 -50.53526913828073,1.1169213503028772 -50.53526913828073,-0.4662875540366087 -49.74637566050381,-0.4662875540366087 -49.74637566050381,-2.83025701289378 -48.954771208576446,-2.83025701289378 -48.954771208576446,-5.205070368191109 -48.16316675664908,-5.205070368191109 -48.16316675664908,-7.167815653591659 -48.16316675664908,-7.5690398280178 -47.38240620116188,-7.5690398280178 -47.38240620116188,-9.119717042228878 -47.38240620116188,-10.735457635080905 -46.997447871799935,-10.735457635080905 -46.590801749234515,-10.735457635080905 -46.590801749234515,-12.535544471132113 -46.590801749234515,-13.099427094422836 -45.799197297307146,-13.099427094422836 -45.799197297307146,-16.048966969935808 -45.799197297307146,-18.629814361958978 -45.01030381953022,-18.629814361958978 -45.01030381953022,-19.562389469062676 -45.01030381953022,-20.99378382081615 -44.568415033009124,-20.99378382081615 -44.215988393290836,-20.99378382081615 -44.215988393290836,-21.66610541028591 -44.215988393290836,-22.576992724670877 -43.73885694313724,-22.576992724670877 -43.4270949156755,-22.576992724670877 -43.4270949156755,-23.173407037605248 -43.4270949156755,-24.16020162804084 -42.635490463748134,-24.16020162804084 -42.635490463748134,-24.691552562172678 -42.635490463748134,-25.73256663594017 -41.8465969859712,-25.73256663594017 -41.8465969859712,-26.20969808577059 -41.8465969859712,-27.315775539794895 -41.298980207744684,-27.315775539794895 -41.06583643064559,-27.315775539794895 -41.06583643064559,-28.107379991075913 -40.27152100472937,-28.107379991075913 -40.27152100472937,-29.67974499865207 -39.48262752695245,-29.67974499865207 -39.48262752695245,-32.05455835427257 -38.691023075025086,-32.05455835427257 -38.691023075025086,-34.41852781312974 -39.48262752695245,-34.41852781312974 -39.48262752695245,-39.15731062873852 -37.90212959708657,-39.15731062873852 -37.90212959708657,-40.03566625299508 -37.90212959708657,-41.52128008759569 -37.11052514532079,-41.53212398403585 -37.11052514532079,-43.10448899193518 -36.31892069339343,-43.10448899193518 -36.31892069339343,-45.479302347717265 -35.53002721545492,-45.479302347717265 -35.53002721545492,-47.05166735513183 -36.31892069339343,-47.05166735513183 -36.31892069339343,-50.207241265431605 -35.53002721545492,-50.21808516219494 -35.53002721545492,-51.790450169124746 -34.746555686140454,-51.790450169124746 -34.746555686140454,-54.165263525391595 -33.94952928575063,-54.262858594645714 -33.94952928575063,-55.7376285323214 -33.48866368017648,-55.7376285323214 -33.16605775643616,-55.7376285323214 -33.16605775643616,-56.78948650301381 -33.16605775643616,-57.32083743666089 -32.3744533045088,-57.32083743666089 -32.3744533045088,-59.0667047893802 -32.3744533045088,-59.684806895518065 -31.58555982673187,-59.684806895518065 -31.58555982673187,-61.26801579985755 -30.793955374804508,-61.26801579985755 -30.793955374804508,-63.28498056762047 -30.793955374804508,-64.78143829801489 -29.49810973073443,-64.64046764283856 -24.485518526577945,-63.36088784415586 -24.293039361896973,-63.35004394674618 -24.200866240782144,-63.33920005095237 -24.11682604228021,-63.31751225774888 -23.582764134482698,-63.19822939432176 -23.205938727410484,-63.16569770516287 -23.113765606618827,-63.16569770516287 -22.419756224107164,-63.12232211875589 -22.129681990010493,-63.06810263590876 -21.94262477346881,-63.02472704901702 -21.061558174577055,-62.87291249691577 -20.250976903758225,-62.77531742766165 -19.39159809790837,-62.66687846099786 -18.572883904638232,-62.49337611520835 -17.66741853839255,-62.43915663236122 -16.824305577445312,-62.28734208042155 -15.943238978553557,-62.1680592173176 -15.056750431522515,-62.027088561656505 -14.227192341327457,-61.91864959563906 -13.370524509789627,-61.810210629944784 -12.535544471455285,-61.712615560690665 -11.627368131220754,-61.64755218059544 -10.789677118735975,-61.528269317491485 -9.897766623242473,-61.354766972186745 -9.057364636607259,-61.24632800665406 -8.19256388261812,-61.11620124727153 -7.341317999381161,-61.00776228060774 -6.503626986734797,-60.89932331555981 -5.625271362155062,-60.84510383222792 -4.784869375358261,-60.78004045213269 -3.9119356990794003,-60.66075759015985 -3.0444239707782375,-60.508943037089075 -2.2148658809063546,-60.37881627867607 -1.2931346695964687,-60.2812212089372 -0.4608656055741497,-60.15109444955467 0.35784858785757506,-59.988436000690086 1.2118054454065568,-59.858309241307566 2.0603403544930794,-59.73902637884996 2.979360591329356,-59.598055723188864 3.8360284231903603,-59.4787728602465 4.746915737575328,-59.348646101348734 5.573762853458362,-59.218519341966214 6.452118478038096,-59.11008037530242 7.28980949068446,-59.012485306048305 8.124789529018802,-58.88235854682737 8.496192987466971,-58.838982960258804 8.780845273424356,-58.8064512712615 8.867596446076728,-58.78476347805801 9.686310639670038,-58.60041723534359 10.456227298232326,-58.54619775201169 11.356270716338722,-58.42691488955409 11.66261079533801,-58.39438320007203 12.568076161422105,-58.28594423437776 13.419322044659065,-58.21003695832713 14.32749838521677,-58.10159799166334 15.186877190905037,-57.99315902613065 16.070654763785644,-57.88472005946686 16.252290031864867,-57.86303226674813 17.0791371477479,-57.722061611087035 17.971047643241402,-57.57024705850102 18.80060573343646,-57.450964196043415 19.69251622892996,-57.32083743666089 20.573582827821717,-57.179866780999795 21.384164098640547,-57.049740021617275 21.652550539533728,-57.006364435210294 22.552593957640124,-56.88708157275269 22.644767078593368,-56.854549883109044 22.856223062488976,-56.822018192495875 23.7562664802722,-56.74611091644525 24.62106723426134,-56.63767195091256 25.47502409181032,-56.48585739832655 25.960288464738397,-56.45332570819814 26.152767629419365,-56.45332570819814 26.57567959672582,-56.45332570819814 27.979964206651758,-56.626828053987644 28.825788141587847,-56.96298884831856 29.506242653347325,-57.34252522937962 30.037593586832816,-57.86303226674813 30.634007899928775,-58.35100761350346 31.260242928841116,-58.84982685766848 31.810570681218074,-59.435397273677935 32.282280183393965,-60.020967690333734 32.64826169386444,-60.66075759015985 32.97900054037924,-61.26801579985755 33.307028412258845,-61.88611790599541 33.64047823276249,-62.49337611520835 33.98748292401832,-63.15485380775319 34.34533151203748,-63.794643707579304 34.73300081538827,-64.45612140077048 35.09356037739628,-65.074223506262 35.475807732607784,-65.72485730301304 35.82010144971318,-66.31042771902248 36.18337198603321,-66.95021761836384 36.56290836693269,-67.61169531155502 36.918045980801416,-68.2297974175313 37.2758945684974,-68.83705562787534 37.62561023390367,-69.44431383708829 37.96719297685863,-70.05157204694758 38.32233059056576,-70.65883025713005 38.65849138538144,-71.26608846634299 39.00278510232525,-71.85165888235244 39.33894589697933,-72.44807319577157 39.68866156270877,-73.1095508883164 40.13326132305713,-73.69512130545698 40.18205885792657,-73.76018468506744 40.24712223737545,-73.99875040949789 40.466711143722364,-74.69275979217115 40.72967563615309,-75.35423748471598 41.04685961175412,-76.004871281467 41.1661424745349,-76.22174921317873 45.79919729763032,-76.06993466059272Z"/></svg>