<svg xmlns="http://www.w3.org/2000/svg" width="256" height="256"><path d="M216.58228626468744,0.34345960263147696 216.62235655166774,0.37017312722814866 216.66338089309997,0.38925421638012214 216.70774442517074,0.40070286991679904 216.791701216939,0.39307043407403824 216.878520172063,0.37017312722814866 216.91763640453453,0.3549082561681539 216.95484452821597,0.3472758205528574 216.98680535235502,0.3472758205528574 217.02973780269105,0.3472758205528574 217.06456079012898,0.3663569097048308 217.3150000837559,0.5113731863385985 217.3507771257026,0.5419029287997845 217.38273794984164,0.5762488888411545 217.47385014999836,0.8052219573569159 217.4800515040504,0.8395679175688842 217.49006907568176,0.8739138777808524 217.50294881083943,0.9044436204126367 217.51869070929598,0.9311571451799067 217.551128560661,0.9616868875273605 217.7929813642207,1.1448653422944768 218.0601166107561,1.2784329655621658 218.11211257844215,1.3013302724649214 218.3673221442149,1.3165951435249161 218.71221282863797,1.3127789259447322 218.82622233564146,1.297514054543541 219.16157247554543,1.2288221339490062 219.47259422675504,1.1372329068497786 219.5217280310294,1.1181518176978051 219.6767618794651,1.087622075179753 219.9209998191546,1.0799896393938582 220.23202157047703,1.083805857485837 220.55115278464163,1.087622075179753 220.6041028067796,1.091438292930535 220.76629206360465,1.1257842531425033 221.04630704518397,1.2440870051795994 221.34063284359885,1.3394924503708057 221.43222207098242,1.3509411037368844 221.73561138669044,1.4005519355206422 222.0394777296804,1.431081677868096 222.36290218882263,1.431081677868096 222.64911852439624,1.4997735984626308 222.89001727356091,1.6524223105410967 223.08321330001624,1.835600765308213 223.1080187158219,1.8546818544601864 223.13520926764545,1.87376294361216 223.1633538740337,1.8852115970919707 223.46912832581467,1.9615359531880696 223.76250006977762,2.041676527091817 223.81258792861675,2.056941398379276 223.89749877472318,2.0645738339945727 224.04060694250998,2.034044091305922 224.1837151102968,1.9653521708819859 224.333501659247,1.9081089038241281 224.60874636862363,1.8050710231882234 224.64881665560392,1.793622369480948 224.68459369755064,1.7898061519007642 224.72561803903972,1.7898061519007642 224.7609180537036,1.793622369480948 225.10390062922286,1.8127034586329216 225.2479628514047,1.8203358942482182 225.35481695007573,1.8279683296929163 225.40585886325303,1.8279683296929163 225.45213050411388,1.8241521119421342 225.49601700890096,1.8127034586329216 225.60096299866905,1.8088872407115413 225.657252211275,1.8127034586329216 225.83041309429703,1.8432332009235095 225.88431717083006,1.8546818544601864 226.1552686351731,1.984433259863361 226.38328764923693,2.1408981900338055 226.42860523564588,2.1714279326655896 226.5593106956147,2.224854981688335 226.82262972428558,2.331709080416218 226.88464326371673,2.3622388230480027 226.91040273386147,2.3813199118587796 226.94284058522737,2.3965847830893727 227.2385974653761,2.495806446031361 227.48188135055682,2.610292980545139 227.75808011438534,2.7362281681975316 228.01805995258826,2.915590405100134 228.10630998933325,2.9499363654827 228.14494919469254,2.9613850186213146 228.30904656036458,2.9804661076026897 228.33909927565665,2.9804661076026897 228.44643040149677,3.0033634146191774 228.63437912852345,3.0911364241950876 228.76413053392662,3.2132553941535638 228.8084940659974,3.247601354194934 228.83425353614217,3.2972121858649595 228.87527787757438,3.327741928155547 228.91630221906345,3.3430067993861403 229.07038201304726,3.446044680192643 229.2774118291113,3.5414501253838493 229.32272941552114,3.5681636501511194 229.3694780837217,3.591060957053875 229.4057321529512,3.602509610533686 229.68049983498815,3.6139582637291663 229.98388915069532,3.6101420462058487 230.00297023973442,3.6750177487084046 230.0578283707194,3.8085853722035576 230.0750013508538,3.923071906148675 230.08501892265573,3.9993962625859707 230.08978919485932,4.186390934876405 230.08883514046337,4.216920677565055 230.07977162311334,4.247450419855643 230.06593783356064,4.277980162544293 229.9676702250146,4.396282914410791 229.80500394096268,4.594726240237902 229.6647579365316,4.8275155266181775 229.62468764955042,5.060304812827855 229.63375116684446,5.571677999166454 229.6409065752338,5.804467285603596 229.6556944192962,6.55626219359657 229.65760252814314,6.781419044190951 229.64567684749338,6.869192053766861 229.6409065752338,6.899721796057449 229.63184305799751,6.983678588110041 229.61180791450735,7.071451597458486 229.573645736374,7.128694864743808 228.87623193208316,8.746771215243536 228.8452251624529,8.819279353418253 228.81135622929628,8.868890184860815 228.7684237790171,8.94139832337673 228.76126837062776,8.971928065667317 228.7555440438594,9.002457808355969 228.75315890778649,9.032987550817154 228.75315890778649,9.063517293164608 228.738371063725,9.277225490222312 228.51607637642948,9.494749905371995 228.43402769356592,9.593971568484582 228.36008847359872,9.677928360139111 228.1921748900622,9.85347437946153 228.1683235287644,9.8801879040582 228.14304108573188,9.90690142882547 228.04095725943415,10.07863123005591 227.97083425716173,10.204566417537704 227.81913959936549,10.406825961456795 227.65599628808764,10.578555762687234 227.50096243965191,10.731204475106896 227.414620511697,10.803712613281615 227.34163534618258,10.860955880737535 227.16561229974795,10.971626196988737 227.1207717405081,11.025053246352678 227.4026948310481,11.406675027117503 228.19503705336106,11.944761738052774 228.76413053392662,12.414156528166044 229.08135363918737,12.986589199313283 229.12762528010512,13.127789258253134 229.12762528010512,13.215562267829045 229.10138878267753,13.368210980078109 228.9592346693995,13.650611097957812 229.38665106379923,13.845238206034141 229.61467007780624,13.612448919995062 229.87178775259653,13.333865020036738 230.3569244413938,13.062913555750578 231.08009771594317,12.71945395272104 233.51341359554488,11.463918294004763 234.37063152064474,11.105193820256424 235.03608450079653,10.746469346394354 235.08283316894023,10.719755821797683 235.47017927641653,10.548026020396646 236.94085421403898,10.639615247666471 238.29608856298006,10.677777425970419 238.93864423634372,10.609085505375884 239.06553347856087,10.559474673876457 239.09654024819113,10.548026020396646 239.12945512672525,10.540393584724484 239.2305848986279,10.532761149109186 239.262545722767,10.528944931415271 239.50773771690837,10.46406922868525 239.78584458964073,10.372480001244826 239.81875946823172,10.36484756562953 240.11070013057366,10.299971862728912 240.24712991714023,10.254177249150864 240.27909074127928,10.246544813535568 240.44509621591197,10.238912377749672 240.76899770233612,10.231279942134377 241.09528432489006,10.21601507107438 241.4125074301508,10.200750200014387 241.73163864437225,10.16258802171044 241.8394467974383,10.143506932558466 241.94248467824482,10.10534475482318 242.19864829852634,9.987042002729218 242.46101327280218,9.872555468386038 242.49392815139313,9.857290596984846 242.7787134052889,9.754252716178344 243.047279733559,9.62450131077517 243.31298389835965,9.487117469756699 243.4169758336749,9.456587727238647 243.7093935231291,9.406976895796085 243.7461246195277,9.40316067810217 243.82340303018947,9.391712024565493 243.93264226487653,9.361182282047439 244.20073156592068,9.242879530010343 244.23269239005973,9.22761465895035 244.35481135984762,9.109311906856387 244.567565502624,8.937582105625948 244.65152229439227,8.823095571282767 244.70351826202148,8.700976601551757 244.73977233119413,8.605571156360549 244.77984261817443,8.548327889075228 244.86666157329844,8.437657572653428 245.00404541443064,8.323171038310248 245.0937265328535,8.220133157503746 245.1600333172614,8.105646623331163 245.17577521571795,8.07893309890509 245.22109280218376,7.865224901506189 245.2301563195338,7.83851137673892 245.25782389863926,7.788900545466957 245.27308876981297,7.766003238564201 245.38996044022906,7.758370802778306 246.42129330268915,7.857592466061491 247.0915165552711,7.9377330400221044 247.65393165455953,8.02550604937055 248.24019811531636,8.185787197291777 248.42623873343922,8.2773764249028 248.7272429129606,8.372781870094006 248.9442903007706,8.54069545345993 250.2060273134243,9.292490361623504 250.41210307503732,9.433690420392757 250.90105598164223,9.838209508003471 251.61468871172934,10.09007988353572 252.03781186109546,10.341950258726774 252.40559985236445,10.654880119067663 253.0128555109505,11.166253305065066 253.35536105924288,11.372329066905536 253.70025174355223,11.841723857018806 253.86434910933798,12.04016718324398 254.03846404675505,12.230978073626392 254.16726139782006,12.360729479029567 254.2307060188722,12.482848448988044 254.265529006367,12.524826844815308 254.2874722587041,12.543907933739817 254.53552641620124,12.666026903698294 254.80981707112596,12.799594526681652 255.08983205276215,12.921713496640129 255.34313350980167,13.04764868446312 255.36698487109948,13.062913555750578 255.39703758627783,13.070545991195276 255.43901598221794,13.093443297870568 255.53394440018408,13.211746050078263 255.60025118453513,13.295702841960257 255.62410254583293,13.314783930941632 255.8039418100752,13.444535336515404 255.86309318603688,13.486513732342669 255.98425810142973,13.589551612978573 256,13.616265137745843 255.99809189098244,13.746016543149018 255.95325133174256,13.845238206034141 255.90316347307407,13.959724740206722 255.90316347307407,13.990254482895372 255.90841077255956,14.020784225185961 255.91604320817487,14.051313967874611 255.95897565851092,14.303184343236262 255.98330404703466,14.551238500505935 255.970424311877,14.738233173137564 255.94609592335414,14.799292657946205 255.79821748330687,14.997735984171378 255.62696470918866,15.2076279634783 255.47813221474723,15.417519942842087 255.45380382616662,15.470946992035431 255.428044355965,15.53200647701467 255.29590781443292,15.749530892164353 255.1709266811738,15.98232017837403 255.16997262672277,16.01284992106268 255.17188073568346,16.260904078332352 255.20097939652365,16.508958235772624 255.2100429137031,16.54330419615519 255.13610369373586,16.764644829055655 255.05691717422806,16.985985461728657 254.9166711697401,17.165347698972454 254.863721147659,17.241672055011687 254.74494136839596,17.474461341050766 254.59849401002745,17.676720885140455 254.4196088002948,17.86371555743089 254.27363846920827,17.96675343823739 254.01031944042367,18.085056190501952 253.75320176569022,18.207175160460427 253.54808005847227,18.371272526075572 253.39495431899724,18.59642937684055 253.22990289875958,18.79487270266766 253.03289065443974,18.974234939513398 253.01094740204576,18.997132246359286 252.7390418833077,19.10398634491657 252.5506161289982,19.19557557258446 252.32498225112099,19.363489155893518 252.16183893984405,19.577197353349284 252.04258213335504,19.794721768271504 251.95337804210124,20.01606240100137 251.84556988909205,20.21450572699908 251.82744285444886,20.294646301130292 251.77544688681965,20.52361936941859 251.73966984487294,20.630473467975875 251.71247929299346,20.683900517339815 251.6924441495033,20.874711407722227 251.63663196406733,21.107500693931907 251.62232114734462,21.786787463977625 251.59560762263422,21.96996591874474 251.57461842474902,22.008128096821224 251.4863683878912,22.14932815541988 251.3384899478448,22.282895778915034 251.0751709191162,22.469890451376067 250.925384370166,22.60345807487122 250.7431599698508,22.706495955507123 250.67399102208716,22.74084191588969 250.59528152980442,22.794268965253632 250.47220850550778,22.889674410444837 250.43786254529581,22.912571716949532 250.41687334729687,22.9316528062721 250.3567679168273,22.985079855636044 250.11491511326759,23.1529934391157 249.90788529720177,23.317090804730846 249.8229744509816,23.370517853924188 249.79053659967346,23.381966507460866 249.72661495139536,23.41249624992205 249.66984871144973,23.4506584278848 249.64790545905575,23.469739517036775 249.6307324789782,23.496453041804045 249.57348921180662,23.568961179921896 249.4108229277556,23.775036941762366 249.3597810145783,23.82464777320493 249.30158369306852,23.862809951110812 249.2576971882806,23.870442386953574 249.19234445826774,23.885707258184166 249.16467687916227,23.893339693628864 249.13748632733964,23.904788347165542 248.94953760025612,24.030723534647336 248.91757677611707,24.030723534647336 248.86319567241495,24.09941545524187 248.86033350905922,24.12994519793052 248.8474537739584,24.22153442502975 248.81930916762698,24.27496147439369 248.732490212503,24.393264226601385 248.67238478203254,24.461956147025322 248.57220906452488,24.656583255158516 248.57316311903367,24.81304818532896 248.59033609911123,24.835945492004253 248.67810910868712,24.988594204651378 248.71913345011936,25.03820503592334 248.7835321256794,25.0954483029812 248.8703510807474,25.206118619630463 248.8803686526071,25.23283214417027 248.90135785043455,25.29007541128499 248.92950245676596,25.343502460648935 248.9395200285679,25.377848420860904 248.96623355316459,25.477070083746025 249.06259305286457,26.205967685234306 249.10743361204845,27.495849304219416 248.97148085270607,28.522411894249334 248.97148085270607,28.572022725862492 248.9633713898657,28.598736250629763 248.91948488507776,28.67124438880448 248.87655243468484,28.70559034901645 248.85031593725725,28.717039002553125 248.78734834343106,28.747568744843715 248.6914658710139,28.81626066543825 248.68431046268142,28.84297419003492 248.6771550542921,28.90021745749084 248.65616585629314,28.942195853318108 248.60512394317183,29.033785080417335 248.56314554723173,29.07194725872128 248.52212120585637,29.087212129781275 248.40906575324794,29.113925654377947 248.37615087465696,29.113925654377947 248.01694937356893,29.110109436627166 247.99118990331044,29.12919052560854 247.96590746039163,29.152087832681893 247.9129574383105,29.220779753276428 247.90389392096048,29.251309495567018 247.87574931462908,29.30473654476036 247.67301274359778,29.487914999698074 247.59001000628143,29.571871791352603 247.50605321451317,29.724520503829133 247.49603564282495,29.762682681735015 247.4650288731378,29.846639473787608 247.3338463859999,30.07179632438199 247.3157193513567,30.109958502287874 247.2007557899013,30.32366669974364 247.12586251548308,30.464866758285428 247.11870710709462,30.49539650097408 247.11775305258496,30.712920916123764 247.16259361188168,30.873202063817526 247.18262875537184,30.8922831527989 247.24893553972285,30.960975073393435 247.3037936707087,31.060196736506022 247.3538815295478,31.182315706464497 247.3548355838851,31.23192653790706 247.35197342052936,31.277721151655705 247.26086122037177,31.54485639807735 247.20981930725134,31.697505110155817 247.1506679312328,31.834888951515484 247.12252332490138,31.87686734717215 247.0566935676626,31.934110614457474 246.8534799694053,32.06767823755456 246.58062039615845,32.224143167895605 246.5386420003321,32.243224256706384 246.29440406058484,32.35389457312818 246.24240809295563,32.36915944458624 245.93901877724758,32.47982976083744 245.65089433277015,32.609581166240616 245.46389966019538,32.72025148266241 245.44291046225334,32.746965007259085 245.43098478160442,32.777494749947735 245.44004829889758,32.830921799084216 245.45292803405528,32.88816506636954 245.47391723194048,32.9301434620262 245.53926996189645,33.05226243198468 245.555011860353,33.349927421094975 245.56598348655086,33.37664094586225 245.6213186447609,33.49875991542266 245.6523254145049,33.68575458811116 245.60796188249097,33.84603573614611 245.5831564666844,33.872749260572185 245.5049240016845,33.97960335912947 245.4968145388432,34.010133101761255 245.51494157337268,34.10935476470325 245.53688482582353,34.13225207171973 245.71720111717804,34.27345213031839 245.74200653292687,34.296349437334875 245.83502684204603,34.38793866466157 246.04014854915027,34.5673009015073 246.2433621474644,34.739030702908344 246.4045973497807,34.933657811041535 246.607333920812,35.15881466180652 246.72468261845404,35.357257987804225 246.73565424459417,35.387787730492875 246.72659072730102,35.46411208653211 246.70369342045512,35.483193175684086 246.6354785271434,35.52898778920527 246.5214690201399,35.590047274013905 246.412229785396,35.643474323377845 246.3311351570403,35.71216624380178 246.31634731309256,35.74651220435495 246.2872486522515,35.78849060001161 246.11551885085223,35.9907501437601 246.05541342038086,36.177744816619196 246.0282228685014,36.238804301598435 246.01725124236214,36.26551782596764 245.96239311137631,36.33802596431296 245.9180295793624,36.414350320693394 245.86221739392644,36.55173416154126 245.79829574564744,36.86848023963294 245.97622690087218,38.402599798307534 245.84838360431596,38.63920530243859 245.59699025623712,38.913972984475535 245.53020644460327,39.15821092422189 245.53593077137162,39.27269745856507 245.57600105835192,39.31849207208625 245.61416323637155,39.543648922851226 245.5769551128607,39.5703624476185 245.53783888021945,39.7497246845211 245.54404023421287,39.77643820928837 245.5540578059002,39.803151733885045 245.56789159551067,39.89092474323349 245.541178070914,39.986330188424695 245.25877795309117,40.15424377196122 245.22013874773185,40.16950864319181 245.02503461231584,40.242016781537124 244.88478860794163,40.283995177364396 244.85664400161022,40.30689248438088 244.70256420756957,40.44427632562682 244.55277765861936,40.65035208706922 244.5065060177585,40.70377913643316 244.3514721693228,40.852611630988314 244.3266667535162,40.867876502218905 244.26846943200644,40.921303551582845 244.14444235325786,41.00526034306678 244.0275706828409,41.05868739260132 243.74421651068076,41.16935770885252 243.71416379538866,41.16935770885252 243.64451782045595,41.18462258025371 243.58632049883244,41.20370366906449 243.55006642965978,41.21896854029508 243.50713397932375,41.24186584736844 243.45322990284757,41.28002802544492 243.4002798807096,41.36780103485023 243.385015009479,41.409779430677496 243.49807046203057,41.833379607440186 243.54911237526474,42.07761754701594 243.5333704768082,42.184471645573225 243.51905965997264,42.21118517034049 243.48900694479428,42.256979784259734 243.45418395735635,42.35620144697426 243.61446510516475,42.55846099089335 243.78953409708973,42.745455663354385 243.88923278731542,42.89047194021562 243.90831387635276,42.924817900598185 243.9254868564872,42.993509821022116 243.94552199997824,43.04693687038606 244.04140447245138,43.15379096871588 244.0824288138267,43.18050449348315 244.13442478145592,43.23011532492571 244.1716329050805,43.25301263199906 244.36053568667282,43.43619108676618 244.38057083004924,43.478169482593444 244.4015600279913,43.569758710033874 244.4006059735394,43.60028845238133 244.3896343473424,43.680429026512535 244.35958163216404,43.77965068922706 244.361489741011,43.852158827742976 244.38438704797062,43.943748055012804 244.41253165418829,43.98572645084007 244.4988735821432,44.10021298501265 244.55182360416745,44.16508868808386 244.58760064611417,44.191802212680535 244.6357803959357,44.24522926198761 244.69683988085808,44.36353201391098 244.71258177931463,44.38642932058627 244.74978990299607,44.42840771675473 244.81561966012114,44.51236450846613 244.806556142828,44.561975339908685 244.74263449454986,44.645932131563214 244.7598074746843,44.69935918092715 244.7807966726832,44.726072705523826 244.83183858580364,44.77949975505837 244.92772105827768,44.83674302194563 244.98782648874814,44.84437545756092 245.03982245637735,44.84437545756092 245.12473330254065,44.855824110927 245.21012117604366,44.87490520024957 245.27118066090915,44.901618724846244 245.4328928905651,45.111510704380635 245.48918210322793,45.355748643899524 245.51207941007382,45.40535947556955 245.51207941007382,45.443521653304835 245.4758253408443,45.504581138284074 245.43623208108994,45.535110880972724 245.37183340558587,45.56564062326331 245.30791175730778,45.60380280139666 245.2888306682704,45.63051632616393 245.2430360546915,45.80987856283907 245.12568735699256,45.996873235470694 245.00881568663334,46.084646245046606 244.96158999126368,46.22966252190784 245.10374410465633,46.37467879854161 245.1056522135033,46.40520854100279 245.14906169106442,46.42810584790555 245.17577521571795,46.44337071896555 245.20201171320238,46.454819372672816 245.43480099941206,46.61510052036658 245.45483614290222,46.63799782743993 245.4701010141328,46.664711351809146 245.48107264038669,46.69142487657641 245.52400509072183,46.77538166845841 245.55691996931458,46.7906465395184 245.59317403842948,46.805911410749 245.8273944064885,46.920397944921575 245.9809971731886,47.07304665734124 246.14938778400793,47.21043049858717 246.17514725409583,47.22569536964717 246.2023378059762,47.23332780526246 246.47328927031836,47.32873325045367 246.59445418576806,47.4050576064929 246.6235528464945,47.44703600232017 246.66266907902377,47.53480901189608 246.66839340573438,47.56533875458473 246.66839340573438,47.599684714967296 246.65646772508546,47.79431182287303 246.56153930717707,48.01946867346741 246.51860685684105,48.10342546552 246.3774067979012,48.30568500904103 246.36834328060803,48.34766340520949 246.3664351717042,48.37819314755694 246.34735408272283,48.44306885040069 246.33256623866131,48.47359859274815 246.25814999141218,48.6224310873033 246.12649047704832,48.84758793789768 245.96239311137631,49.0498474815893 245.892270109103,49.14525292678051 245.88511470071455,49.19486375845054 245.8760511834214,49.2444745897225 245.86126333941675,49.29408542150625 245.84409035928235,49.51542605423612 245.8293025152777,49.54595579652671 245.78303087441685,49.64136124171792 245.75917951311905,49.86651809265349 245.75536329531138,50.09167494307728 245.7439146419453,50.156550645977894 245.70193624594745,50.381707496572275 245.6809470480045,50.51145890197545 245.66186595896716,50.553437297802716 245.63324432540978,50.64884274299392 245.53402266241093,50.75569684172181 244.8118034423135,52.54931921120275 244.19739237533898,54.926822905538216 243.23236629717306,56.17090991088841 242.28499022648126,57.0715373134934 241.45543988048686,57.42644556966155 239.05742401566275,58.54078116926738 240.9831829267904,64.10864295056932 240.9054274890164,65.82594096401104 238.05089656889552,70.2489374030185 237.70791399337537,70.24512118549518 225.89815096044055,70.1077373444767 222.45973871574856,69.96272106744487 221.6235099885899,70.0275967703455 220.24919455061146,70.0428616414055 218.18700585286038,70.09628869094003 217.2768379057354,70.1382670865967 215.9502251902957,70.27946714570714 213.42532008342414,70.37105637297698 210.99009609480487,70.6343754018753 210.37425394609562,70.70306732229923 208.92361415196333,73.19505755080728 207.80880152490408,75.08026914755806 206.98163631509632,76.62583735959873 206.45165906711605,77.5875242471261 205.38884240763002,80.35046594014776 203.88954583644934,83.0790616723888 201.82640308418948,85.70080330647062 201.1871866014084,87.12806876624674 200.91003378318482,87.71576630879517 199.84864820543265,89.95206994424764 199.46559534293309,90.33369172501247 193.36203198688253,96.4358239991577 187.28661323704964,103.31264848853985 186.83963872632884,104.42316787062236 186.7857346497958,104.59108145432948 186.54435887351892,105.67488731164472 187.0819685571145,107.68603409627535 187.20790374482377,108.23938567827062 187.31475784343792,108.72404533984195 187.29281459098706,109.0942184672407 187.1597239950022,109.47584024800553 186.55342239075523,110.63215424366608 186.46040208175066,110.78861917366592 186.04920461291968,111.47553837915635 185.42811516472494,112.73870647365851 185.36514757089873,112.86845787889109 184.03233350163356,115.62376713629746 183.72131175031112,116.13132410437348 183.22901965312448,117.02431907147691 182.5621355911811,118.1310222358655 182.16858812976736,118.96295771798968 181.84754880669897,119.40563898356315 181.41059186772324,119.89793108074977 180.69409697433727,120.42838535606975 180.35922386177302,120.7756611766226 179.621739770389,121.88618055853452 179.6327113965851,122.1304184980534 179.95279666525846,122.71048360504341 180.45701444303714,123.1340837816355 181.5875689686089,124.19499233221858 181.69442306722394,124.4735762321769 181.60235681261443,124.92007371567175 181.0504363121833,125.86267951387653 180.08684131569524,126.8968745399198 179.71666818835337,127.23651792485737 179.41184779102431,127.79368572471715 177.9001485119119,132.0106064022822 176.57639795988482,135.4757321715131 170.4943008289454,139.38735542435256 167.83725918042717,140.12006924353474 166.76871819422968,140.64670730099022 164.12646438965834,141.94422135536314 161.6964877006383,142.41361614587447 156.03846777363066,148.78288366678257 157.14898715559946,149.33241903091331 155.53138783238344,150.82456019376065 155.45506347622958,152.98072325519564 155.45029320402688,153.11810709644158 154.5949833878877,154.2400751318333 153.09902600723274,155.14833497005358 151.31732931828697,156.14818403565744 149.69972999507004,157.10223848756948 148.20424964169877,158.4150174132299 148.01009956073378,158.56003368986364 146.92581667613572,160.09415324853825 144.8660131144576,162.15872708270342 144.78301037714124,162.17780817151422 143.24316649175515,162.35335419083663 142.52810268004797,163.8035169578567 141.95567000889983,164.8224471122713 141.99574029588013,165.50173388214643 141.00543177479543,167.0778318364777 139.56862577027272,169.23017868004817 137.7072655345354,172.01220146182376 132.15800781498888,171.48556340442516 130.00900016211384,170.84443881285398 128.23732104485626,170.08119525132435 126.88971913152957,169.5011301445618 126.75472042658491,169.50494636242632 126.45037705648183,169.52021123371378 126.14651071349097,169.55455719392575 125.2019968061549,169.56600584706436 125.07510756405058,169.5240274512371 124.84518044113979,169.68430859932892 124.57995330345136,169.817876222426 124.28467345064145,169.90564923200193 124.06667200832267,169.9132816676172 123.41362173604573,169.92091410323252 123.30438250124493,169.92854653884783 123.06205267045927,170.00868711280842 122.52682812299436,170.2185790921722 122.26016990368404,170.3445142799952 121.99398871160058,170.47808190314916 121.72685346500833,170.60401709102902 121.46258038182958,170.69942253622023 121.30850058784489,170.76048202119946 121.0752342743524,170.90168207974125 120.13692172089688,171.29093629629196 118.59039945434832,170.825357723702 114.91824386899475,171.0505145742964 114.87388033692397,171.0276172676211 113.22813640737567,170.2987196663034 112.33991171264553,169.31413547204392 109.90087150633235,168.63103248430428 106.8059188643305,168.13874038728824 102.44827515527813,167.70750777508087 101.53381396312041,167.68842668592887 100.18525799528584,167.69605912154418 95.59816419054951,167.55485906243374 94.33499609621794,165.62003663401293 94.33595015061297,165.5513447134184 94.32163933383518,165.50173388214643 94.3097136531845,165.47502035737915 94.29587986363268,165.4444906148611 94.25199335895844,165.37961491218795 94.22384875257018,165.3223716453007 94.2028595546281,165.27276081346008 94.16183521313813,165.2078851109575 94.08264869363032,165.1201121013816 93.9624378326894,164.96364717121116 93.91378105569875,164.88350659707996 93.88038914982496,164.8262633301927 93.84842832568592,164.76902006290737 93.71247556628845,164.55531186567907 93.6533241902699,164.46372263857984 93.53454441100685,164.29199283695135 93.5006754780777,164.24619822343016 93.46251329988748,164.14697656031757 93.45058761923858,164.07065220427833 93.42530517626291,164.05538733304775 93.40860922341132,164.0324900259744 93.38762002541239,164.0095927192991 93.33848622113891,163.92181970955258 93.32560648609497,163.89510618495592 93.30127809757121,163.841679135592 93.26359294666382,163.72337638372548 93.24117266710076,163.66231689874624 93.1743888554669,163.42189517709187 93.13241045952591,163.25016537546335 93.11953072442509,163.00592743594447 93.10951315268002,162.97539769325581 93.0942482815063,162.95250038658054 93.07850638304974,162.92960307984836 93.05751718505081,162.8914409017719 92.8624130496348,162.8914409017719 88.90785734651615,162.19688926066618 88.59540451345809,162.1472784292236 88.27722735385915,162.12819734024225 87.95905019408961,162.12438112215025 87.35322561706857,162.10911625091967 87.03886467516355,162.08621894441498 86.79271862657025,162.01752702382043 86.68586452801296,161.97554862793632 86.65581181272086,161.967916192321 86.52462932558207,161.94501888530453 86.48551309305456,161.92593779615257 86.22267109155278,161.81908369759526 85.96841558011822,161.68933229236268 85.77235739030716,161.51378627326773 85.5782073092853,161.31534294727004 85.41029372580653,161.09018609644818 85.37117749327814,161.0596563538164 85.28817475590492,161.00241308692915 85.24524230556888,160.98333199794777 84.9852624674797,160.87266168152595 84.76582994353993,160.78870488947337 84.47293522685891,160.73146162258612 84.41998520472181,160.7161967513555 84.39184059833353,160.70856431568336 84.12565940630694,160.57499669241568 83.85947821422347,160.45669394054917 83.58948080433147,160.3460236240705 83.48453481456517,160.30786144599404 83.35049016412839,160.5253858609731 83.19545631569267,160.73909405803082 83.00226028912361,160.92990494841322 82.91305619786984,160.97951577985577 82.88109537373079,160.99096443339246 82.8500886041005,161.00241308692915 82.53906685272031,161.0291266116964 82.23710861869014,161.04820770045032 82.20896401235873,161.05584013606563 82.1817734605361,161.0672887894317 82.0439125922348,161.1550617990076 81.99382473345256,161.21230506640666 81.97188148111545,161.2504672441988 81.94373687478405,161.50615383765245 81.93896660246762,161.54813223347972 81.92274767678511,161.5862944115562 81.84403818455924,161.65880254973092 81.64368674960083,161.8572458757286 81.63271512340384,162.04805676611102 81.6408245862451,162.0900351619383 81.65465837579782,162.12438112215025 81.80587600642589,162.22741900312735 81.84594629340619,162.25031631003012 81.87886117199716,162.2770298347974 81.91893145897747,162.34190553729994 81.96472607266924,162.36098662628132 81.96281796376542,162.39151636874251 81.91797740452556,162.62812187287358 81.73670705872001,162.8647273770046 81.71380975187324,162.8799922480646 81.4638474854163,162.98303012887112 81.17238385041314,163.07843557406233 80.88521346033075,163.14712749465687 80.55844981055085,163.15094371257825 80.50216059788805,163.15475993027215 80.44730246690311,163.16620858363822 80.39435244493572,163.18147345503942 80.3681159473944,163.19673832632688 80.34331053164469,163.2120031975575 80.12292395330986,163.3913654344032 79.8462481621985,163.51730062228307 79.56575615333635,163.6241547206129 79.28669522615208,163.72337638372548 79.01860592522165,163.85312778912865 78.98092077431426,163.87984131389592 78.9508680591359,163.9065548384926 78.92987886113607,163.9447170165691 78.92272345280449,163.98669541262382 78.9327410244927,164.11263059993502 78.97281131147301,164.35686853985194 78.98092077431426,164.44464154942787 79.06487756608253,164.70414436040483 79.09063703628415,164.76520384521345 75.87356542449353,165.8490097026993 75.37602602776452,165.93296649418323 70.23414955918446,172.06944472910908 66.48757772658266,177.03052787905182 65.5821800517181,178.02656072679113 64.72305401777129,179.07220440597303 63.557676504703835,181.68631360443956 62.53636121398884,184.54847696017575 61.34856342135832,186.99085635684315 60.595337431516874,188.08611086769508 59.17761251603331,190.87194986739203 58.896643479887445,191.41003657832732 57.483211809379725,192.19617744653226 56.6946858048744,192.40988564393115 53.98374007976627,192.60451275189374 53.4895398737318,192.89072908746738 52.223986643214474,194.05085930099244 49.12283264727431,194.16534583516503 47.15795750356141,188.22349470871356 46.49775182283826,185.70479095577943 46.14045843059719,185.36133135297737 45.58233657628462,184.6133526626783 45.77123935770722,183.80049826970608 44.8782443907744,182.44192473035392 42.52125286732565,180.87345921146735 41.057733338035675,179.35078830593136 40.228182992155,178.11433373653765 39.69009628121973,174.1988942656062 35.41116206439413,170.63073061556884 34.91791591275559,170.5315089525131 34.651257693503034,170.52769273476233 34.505764389529574,170.48189812124113 34.539156295403366,169.86367083617466 34.25389401433941,168.35244858434595 34.326879179796066,167.94411327881386 34.200943992200536,167.566307716141 33.80882761240781,166.93663177787906 33.79690193175891,166.70765870942014 33.869887097330185,166.40236128452395 33.76875732548437,166.062717899757 33.51354775959789,165.72307451481944 33.273603064885144,165.4788365752437 33.12954084264642,165.1582742792875 33.07659082062217,164.8300795480572 32.949224551291906,164.4980685987918 32.84618667048541,164.3110739259327 32.69830823043904,164.14697656031757 32.42115541215858,164.00196028368381 32.22891344004143,163.98287919453182 32.0958228439997,163.98669541262382 31.824871379713542,163.83404669997668 31.503832056588266,163.67376555228293 31.279629260445798,163.52493305772776 31.127457575309844,163.3074086427487 30.97671697190685,163.05172204946567 30.94666425667162,162.49455424977648 30.948572365575444,162.14346221130225 30.995798060944203,161.90304048947726 31.208552203778346,161.60919171845896 31.564891541510637,161.30389429373335 31.862079503281247,161.0367590473117 31.94078899556399,160.5406507322037 31.936018723361297,160.1246829912269 31.874005183930148,159.7545098637713 31.95509981239954,159.24695289518348 31.795772718930223,158.9111257283379 31.629767244297526,158.58674721446033 31.61879561804367,158.22039030509669 31.803882181771478,157.93035775182915 31.957007921246497,157.73954686144674 32.26612156372287,157.46477917918233 32.408275677057766,157.3770061696633 32.61912171093034,157.26633585318464 32.35627970942856,157.01828169557376 32.20124586099285,156.8732654191106 31.24480627289503,156.93432490408983 27.09800859771522,157.20146015051148 21.600746845854772,157.7052009010642 12.761432348775768,158.25855248305945 11.036501899719646,157.38463860527858 6.053475497439801,154.843037545328 5.621288830665881,154.6255131303489 3.48277577670499,153.55315592634287 0,151.75190112107603 13.222717676274362,139.2461553654127 14.533111465976472,137.6242627971622 13.856686859627684,136.9182625026904 13.363440707989147,136.42597040550376 12.839187786663468,135.76576472478064 12.126986138311112,134.74301835227402 11.127614099876359,133.38826103061575 10.690657160900633,132.48381741037372 10.405394879835793,131.57174135428892 10.378204327956299,131.4687034734824 10.135397469944678,130.55662741739764 9.696055394782306,129.19042144220268 9.114082179172813,127.27468010276326 8.908960471954854,126.34733917544786 8.707654982658275,125.267349536054 8.56884005990507,124.54226815260084 8.441473790574808,123.66453805695546 8.30361292233127,122.16858067618675 8.247323709610704,120.47799618734172 8.19771287805441,119.11179021231737 8.041247948054563,117.68452475220005 7.985435762560842,116.7228378646727 8.106600677896807,115.65048066089413 8.366580516098823,113.4523392034044 8.487745431435677,112.06323592153417 11.045565417068786,108.67443450839939 13.875767948665924,104.88874644321231 14.954326506495647,103.23250791457924 14.980085976697273,103.24395656794532 17.729193879881887,104.42316787062236 18.257263019072077,105.19786008568869 18.592613158862303,106.8350175249992 20.28415170215926,107.53720160154961 21.309760237964728,107.94935312494621 22.507098575171234,108.37295330176578 30.370415367716735,111.51370055746028 32.926327244390045,110.39554873953502 35.600541873155535,109.55598082179553 35.782289246187915,109.50636999035298 37.0301924692889,109.17054282350739 37.724267083168655,108.7622075179753 38.232301078754965,108.13634779746411 38.63538908463183,105.90004416223911 38.84766620018138,105.23220604590065 39.93624232981215,104.7055679884452 43.53541274970817,103.5568864282862 43.4824627275693,99.9047659862531 43.14663556049625,99.00032236612479 41.830994471310404,97.4433055006043 38.810458076556806,93.2721794367879 37.53441024712442,91.81438423432313 35.84048656775455,90.41383229891622 33.19441654537644,88.41031794990089 32.7913285394436,88.04777725794683 32.832352880876705,87.00213357893554 32.85811235113431,86.54418744173341 32.86240559616791,86.46786308552359 34.14799397006255,85.19706255574732 35.103002476426525,84.2964351531992 35.443122888533175,83.89191606536102 35.5871851107719,83.61333216557328 35.76750140224014,82.96457513821622 35.98979608953566,82.30055323979916 36.320852984349145,81.68995839034797 36.396700313219284,81.18240142227195 36.725849099185815,80.78551477021966 36.79788021030517,80.65576336464589 37.21527903301671,80.38481190035974 37.60930352159952,80.2397956234985 37.86212795141308,80.19781722767124 38.353465994090044,80.12530908955338 38.91778920239692,80.03753607997747 39.45587591327532,80.03753607997747 40.03117074777829,80.02990364436218 40.570211513165475,79.98792524830745 41.20561177813891,79.93068198107899 41.52999029173215,79.86962249609975 42.3590636105006,79.56432507154476 42.94914628895134,79.28574117158644 43.40470728979622,79.2170492509919 43.907493985896124,79.17507085516463 44.43508609780438,79.19796816201053 45.02135255856121,79.26284386474055 45.49933383896916,79.33535200325646 46.229662521850976,79.35061687448706 46.54163832762622,79.27047630035584 46.82976277210366,79.23613034014387 47.16511291200673,79.24757899368055 47.56009145504235,79.27810873597114 47.85823347126487,79.36588174554704 48.1454038612904,79.3964114882357 48.58951620865546,79.320087131969 48.88861227932901,79.11019515266209 49.532122007145475,78.63316792670605 50.20234525966968,78.25154614594122 51.17261863720738,77.30512412964445 51.462651190702374,77.0532537542828 51.84665810748325,76.84717799261293 51.90676353801147,76.81283203223036 52.38903806339526,76.56096165703931 53.000109939901805,73.92395515212496 53.04828968972336,73.63773881655135 53.118412691882035,73.21413863973179 53.51052907161789,72.74474384939106 55.17201489962275,71.88227862480568 57.92732415674479,70.50462399630153 59.78200601131871,69.66123986064066 60.09922911652261,69.37883974315903 62.69330317127151,67.27991994895248 63.368296696056156,66.74564945571113 64.31281060339224,66.12360595312133 65.12805013260795,65.14665419453398 66.76377649035433,63.8376914862263 67.19500910261858,63.1049776672147 68.62752186222052,60.16648995543927 70.1749981831668,58.68579744590115 71.95287865430404,57.45697531178155 75.02827318004258,55.62519076416725 75.12510970691166,55.58702858626136 77.5169242178552,53.19044380294453 79.26379791930619,51.4960430965193 79.44077502013587,51.179297018313896 79.46367232703864,50.7785941483971 79.493725042217,49.9619235378447 79.8181035558671,48.256074177598464 80.31898214312093,46.70668974786387 80.4992984345323,46.30980309581159 80.66339580031716,45.95107862194952 81.27971497625325,44.783315972752284 81.43570287914088,44.15745625246857 81.4385650424966,42.997326038886634 81.08365678632845,41.947866141783365 80.60949172372815,41.25713071842843 80.12435503493087,40.528233117110744 80.05232392386837,39.89474096098427 80.23311724244884,39.15439470647111 80.33043079660074,38.913972984475535 80.9095418488536,38.15454564103786 80.98348106887768,37.98663205716014 81.45860018598675,37.490523742222734 82.17175588873417,36.99059920959141 82.80524804480378,36.51738820149989 83.24840633777379,35.841917649546154 84.70477045856158,33.43770043061402 84.9852624674797,32.97593807594544 86.43447117987726,30.651861431144525 86.71066994376356,30.31603426407148 87.7901825560443,29.71688806815697 88.17943677242442,29.44212038594943 88.46135986296444,29.18643379306446 88.55151800878386,28.976541813530073 88.60351397629934,28.50714702301874 88.61973290198185,27.65994667000516 88.62259506539445,27.362281680724262 89.08292633844202,25.255729451073023 89.20886152603755,24.847394145540928 89.60288601467722,24.179556029202484 90.04986052545489,23.656734189497808 90.54739992207017,23.271296191209665 90.98769605168445,22.958366330868774 91.36359350568094,22.794268965253632 91.4475502974492,22.66070134175848 91.28440698617224,21.393717029505524 91.25053805318623,21.229619663890382 91.16562720690919,20.901424932489498 90.76015406484656,20.390051746321497 90.36422146741678,19.890127213462712 89.83519827377468,19.22610531487505 89.52274544071662,18.550634762921305 89.9210631743899,18.60024559436387 92.67112513202643,19.56193248189123 93.55267144559318,19.844332599770933 94.89979633174987,18.226256249214337 94.91315309401978,17.2454882728762 97.67895695011285,15.459498338669354 98.66449519905086,14.639011510081843 99.55367394817692,12.562989022891792 101.66356536852358,12.788145873315575 103.65133781908237,12.475216013315881 104.90687347779864,12.036350965152002 105.12392086566551,11.18915061213842 106.29454567810474,8.185787197291777 108.64342773871225,7.151592171419099 110.90024354482397,6.747073083978983 112.75301729032346,4.964899367636649 113.01538226459928,4.800802001850908 114.03860566427497,4.155861192585817 117.520904413754,4.774088477254236 120.96360990347868,5.857894334740073 122.37274832906654,5.674715879972957 123.49042311936779,5.30454275257421 124.86473855740398,5.564045563380559 125.82451733597065,5.907505166410099 127.45022612202881,6.4341432236380935 127.8323249300196,6.560078411461085 130.49843009588784,7.445440942608015 131.89182662290455,6.250964768870977 134.71773590946896,5.407580633551311 135.30829561520252,5.377050891090125 137.3108559098228,5.274013010283622 137.41580189947626,5.300726534880294 138.08316298858875,5.449559029207977 138.61457131836065,5.777753760836326 139.16076749202344,6.247148551120195 139.73272313594472,6.67074872793975 141.1323210168997,7.159224607034396 145.40219171643216,7.197386785167745 147.38996416699095,6.560078411461085 151.434678015929,4.819883091002882 153.16819495505322,4.319958558371558 157.9480077590767,3.9459692132220288 171.79372299244963,3.1369310377731345 172.7258341920246,3.2247040473490443 173.0859897475654,3.247601354194934 174.37873352990536,3.5032879474779652 174.8939229339379,3.640671788325838 176.07122612759736,4.02992600470596 177.05771843087444,4.358120736448041 177.34298071199615,4.43062887462276 178.54556634868817,4.121515232373849 178.81270159522356,4.552747844581235 178.92050974823275,4.5336667554292625 179.19480040315747,4.434445092487273 179.4419005062027,4.297061251298204 179.71571413390234,4.186390934876405 179.8249533686454,4.167309846065628 180.15314810010312,4.140596321298358 180.20800623114494,4.132963885512463 180.5352469080948,4.041374658413235 180.59010503907885,4.026109787182643 180.75420240480773,4.007028698030669 181.07953497290976,4.003212480109289 181.38530942474668,3.9650503022034043 181.66961765141824,3.8810935104920086 181.70777982949383,3.873461074706114 181.8098636559053,3.858196203475521 181.7874433762285,3.8238502432635526 181.84087042559244,3.8124015897268757 181.89191233871287,3.8085853722035576 182.1886232732584,3.804769154111579 182.2639935749586,3.8009529365882613 182.33984090388557,3.7895042830515844 182.65515590024253,3.694098837860378 182.9690398149216,3.5452663431346316 183.0200817280989,3.514736601014642 183.0711236412762,3.488023076247372 183.11119392825648,3.488023076247372 183.1770236854953,3.4956555118626684 183.33730483335964,3.5452663431346316 183.39216296440145,3.5681636501511194 183.58249682755792,3.701731273305076 183.6721779459808,3.7589745405335324 183.71749553250348,3.781871847436288 183.9603023905151,3.8543799857247385 184.06954162520128,3.888725946107305 184.42683501744324,3.9345205595147537 184.75598380346574,3.9459692132220288 184.83803248627507,3.9459692132220288 184.94584063933937,3.9612340842820237 185.01310147820004,3.9879476088786956 185.056987982988,4.007028698030669 185.09896637881528,4.0375584403212565 185.30313403158132,4.2398179842403465 185.48297329576675,4.426812656871977 185.55595846128116,4.476423488542003 185.80115045547942,4.56801271564123 186.10215463505767,4.64433707202166 186.1574897932126,4.65578572521714 186.3225412133925,4.659601943309119 186.65168999935904,4.65578572521714 186.70654813034398,4.65578572521714 186.84345494413648,4.693947903521087 186.86969144162094,4.705396556659702 187.07481314872516,4.873310140366823 187.24272673226167,5.07938590180923 187.27802674698242,5.113731862191797 187.31380378892914,5.1404453867884685 187.35673623926516,5.151894040325145 187.40777815244246,5.151894040325145 187.57282957262325,5.117548080113178 187.9029324130417,5.067937248443152 188.01312570218067,5.064121030749236 188.0679838331656,5.064121030749236 188.12236493698148,5.071753466193934 188.20536767429783,5.090834555516506 188.3103136639513,5.151894040325145 188.507325908328,5.331256277170882 188.5321313240786,5.346521148401474 188.5574137669956,5.365602237382849 188.583173237255,5.377050891090125 188.69241247194208,5.3961319800715 188.74727060292702,5.3961319800715 188.80260576119477,5.3884995443993375 188.96765718131869,5.354153584016771 189.13270860161322,5.350337366322855 189.1866126780325,5.350337366322855 189.24051675456553,5.357969801767553 189.4055681748023,5.4228455048387705 189.65171422333964,5.564045563380559 189.92505082381246,5.701429404740226 189.9799089547974,5.7166942760276855 190.03285897687852,5.724326711472384 190.16213335516946,5.686164533339036 190.21603743164562,5.655634791048447 190.35389829994693,5.598391523933723 190.43594698286822,5.583126652532533 190.5733308238867,5.579310434781751 190.84714445158457,5.636553701896474 191.12143510651018,5.724326711472384 191.14814863127745,5.735775364781596 191.47872849875125,5.777753760836326 191.53263257534115,5.777753760836326 191.5855825973654,5.770121325164163 191.87179893293902,5.613656395221183 192.12653147159955,5.461007682574056 192.1508598601233,5.445742811514061 192.30303154520328,5.384683326534823 192.35407345838055,5.369418455474828 192.40511537155786,5.361786019859532 192.45806539363898,5.365602237382849 192.533912722566,5.3961319800715 192.81392770420217,5.556413127765262 192.84207231053358,5.567861781472538 192.9241209934549,5.59457530606921 193.1430764901687,5.602207741684506 193.22607922748506,5.6212888308364795 193.2804603311872,5.636553701896474 193.3901765932708,5.655634791048447 193.44551175142485,5.659451008571765 193.4984617734491,5.663267226663744 193.62916723336104,5.613656395221183 193.6802091465952,5.590759088147829 193.78038486398822,5.5296996031685905 193.80566730696478,5.514434731937998 193.83142677728014,5.502986078742517 193.88533085369943,5.487721207341326 193.98932278901472,5.48008877172603 194.0384565932313,5.48008877172603 194.08759039750478,5.483904989590544 194.32467292880494,5.613656395221183 194.5426743711237,5.770121325164163 194.7368244520878,5.964748433297358 194.93288264189889,6.1364782345277975 194.97581509229178,6.163191759295067 195.2439043932222,6.277678293467649 195.51724099369503,6.369267521078672 195.57209912473684,6.380716174274152 195.68133835942388,6.392164827810829 195.73619649040884,6.392164827810829 195.874057358767,6.3234729073868925 196.09539799155374,6.170824195080963 196.31149132496867,6.0181754826613 196.5285387127218,5.842629463338882 196.73175231097906,5.651818572956469 196.88964832276963,5.4342941579773845 197.04849838901387,5.201504871767707 197.25600523230386,5.025958852786485 197.49213370920984,4.854229051214849 197.709181096963,4.697764121044405 197.9281365936768,4.522218102063183 197.97917850685408,4.487872141680617 198.00589203150764,4.476423488542003 198.33647189909604,4.43062887462276 198.4180435547905,4.43062887462276 198.47147060404072,4.4382613102380555 198.51917332663632,4.457342399390029 198.61314769020652,4.5184018843692675 198.70235178140345,4.587093804793204 198.74957747677308,4.617623547254389 198.80061938995038,4.632888418541849 198.88123699113785,4.640520854157145 198.93657214934785,4.640520854157145 199.2118168587245,4.55656406244575 199.26667498970943,4.5374829733506425 199.32153312069437,4.526034319813966 199.376868279019,4.522218102063183 199.62492243640241,4.4229964391780605 199.65259001550785,4.411547785470786 199.73463869848604,4.388650478795494 199.844831987625,4.3733856077355 199.89969011855308,4.3733856077355 199.955025276764,4.377201825258817 199.98173880141752,4.388650478795494 200.22597674110702,4.526034319813966 200.27797270879307,4.548931626830453 200.38816599793205,4.560380280025933 200.4430241289179,4.55656406244575 200.49788226001567,4.548931626830453 200.63526610097728,4.510769448753971 200.66293368008274,4.499320795046696 200.8561297065949,4.381018043350796 201.29737989060425,4.068088183009907 201.53446242196128,3.896358381779468 201.55974486488006,3.873461074706114 201.7157327677668,3.743709669132341 201.85645579948158,3.6139582637291663 201.9065436581501,3.5681636501511194 202.0787504867771,3.3735365420747905 202.24093974354528,3.178909433600399 202.262882996053,3.159828344619024 202.2867343573508,3.140747255865113 202.31201680021275,3.125482384577654 202.36687493119769,3.1102175131764627 202.53192635143532,3.1064012954825464 202.86107513728814,3.114033731097843 202.97126842648396,3.125482384577654 203.02612655758264,3.1331148202498165 203.35527534343456,3.1331148202498165 203.41013347436353,3.1331148202498165 203.52032676355935,3.1178499489623572 203.5751848945443,3.1064012954825464 203.6305200527552,3.098768859810384 203.685378183797,3.1025850775611663 203.90433368051083,3.182725651692378 203.95537559368813,3.201806740673753 204.0035553435088,3.2132553941535638 204.04553373933786,3.2132553941535638 204.15047972910415,3.156012126925108 204.3474919733671,2.988098543217986 204.37372847090845,2.9613850186213146 204.3985338865444,2.934671494195241 204.42858660183563,2.915590405100134 204.52971637368233,2.888876880503462 204.5626312522733,2.885060662411483 204.7567813332374,2.8087363063722504 204.80400702860794,2.7820227816049803 204.83883001621558,2.7782065638541984 204.96094898600344,2.7056984257363457 204.99481791898947,2.6904335545057525 205.10882742604983,2.6560875942937843 205.1479436585782,2.648455158621622 205.22283693299644,2.6217416338543518 205.26004505667876,2.606476762453161 205.32301265050407,2.560682149102578 205.37882483594092,2.503438881646658 205.4250964768018,2.442379396838018 205.53815192941025,2.285914466667573 205.5930100603952,2.2286711997803135 205.67696685216345,2.083654923146546 205.76330878000462,1.9882494779553397 205.83438583667208,1.934822428591398 205.90641694779143,1.8852115970919707 205.93933182643926,1.8623142900754828 206.01231699195367,1.8279683296929163 206.04952511557823,1.8127034586329216 206.08625621203373,1.8050710231882234 206.12632649901403,1.8050710231882234 206.2183927535667,1.8241521119421342 206.49649962641277,1.9271899929761014 206.5413401855389,1.9462710819006106 206.7416916204973,1.980617042283177 206.8366200384057,1.9882494779553397 206.8847997882841,1.9882494779553397 207.18580396780553,1.9042926859027476 207.46772705834553,1.8661305079968633 207.5731500753378,1.8623142900754828 207.62276090678122,1.8623142900754828 207.67189471111246,1.8661305079968633 207.72007446093315,1.8775791614766741 207.86795290103638,1.9500872996513927 208.09692596938154,2.1065522298218373 208.1422435559611,2.137081972283023 208.18517600624025,2.1561630612643987 208.22906251102822,2.1637954970502933 208.2753341518891,2.1637954970502933 208.36501527036881,2.137081972283023 208.40937880238275,2.1256333189738106 208.45040314381495,2.1065522298218373 208.665542422778,1.9500872996513927 208.7022735191766,1.9310062104994192 208.73948164274432,1.9157413394394245 208.85349114980465,1.9081089038241281 208.93267766931336,1.9195575571333405 208.97370201068873,1.9271899929761014 209.06338312922531,1.9577197352666893 209.1115628790469,1.9768008244186628 209.29664944266185,2.0073305667092507 209.38871569727047,2.011146784630631 209.47553465239446,2.0035143490153344 209.51751304833547,1.995881913570636 209.56092252589747,1.995881913570636 209.64297120870503,1.9768008244186628 209.6825644684594,1.9577197352666893 209.72597394602138,1.9462710819006106 209.83998345302487,1.896660250287451 209.87194427716483,1.8813953792274563 209.91392267310493,1.8432332009235095 209.9296645715615,1.78598993403625 209.95303890557645,1.7134817955203347 210.00312676430184,1.625708785944425 210.12810789750233,1.3891032820408313 210.2569052485673,1.1563139956036894 210.30699310723583,1.083805857485837 210.37282286441777,1.0189301547558165 210.41098504255112,0.9922166299885465 210.4529634383784,0.9731355410640374 210.54598374749668,0.9502382339906836 210.68622975192775,0.9464220164673657 210.8302919741096,0.9578706696059801 210.87847172393117,0.9693193229720588 211.02635016397753,1.0227463725065986 211.31256649955114,1.1219680355623194 211.57874769163462,1.2593518766376566 211.73044234954548,1.3051464903294356 211.77957615387496,1.3127789259447322 211.82775590358366,1.3165951435249161 211.87450457178423,1.3127789259447322 211.92268432166264,1.3051464903294356 212.15881279839715,1.217373480753526 212.20365335769387,1.1982923916584185 212.2480168897078,1.1906599559862558 212.28999528553504,1.1906599559862558 212.3286344908375,1.194476173737038 212.36202639665441,1.2097410451382293 212.42785615383636,1.2669843122529532 212.6210521804054,1.4654276382506626 212.64204137834747,1.4845087272320376 212.68783599198326,1.507406033907329 212.73506168735204,1.522670905137922 212.82617388750876,1.5264871230593025 212.86624417449082,1.5264871230593025 212.9058374342443,1.534119558674599 213.07327399055487,1.6180763503291284 213.11525238655273,1.6409736574024822 213.1553226734193,1.6562385286330752 213.23021594795125,1.6638709640777736 213.26599298989797,1.6638709640777736 213.2950916506244,1.6562385286330752 213.44249306344483,1.5150384695226256 213.51834039237184,1.4005519355206422 213.6504769340185,1.1524977779097734 213.6814837036488,1.1181518176978051 213.71058236448897,1.091438292930535 213.78356753000338,1.0799896393938582 213.8264999803963,1.0799896393938582 213.87038648518424,1.0761734218705403 213.9123648810115,1.0647247681632652 213.95148111353993,1.04564367918189 214.05451899434553,0.9731355410640374 214.0817095462259,0.9502382339906836 214.13847578611467,0.8510165712761594 214.17234471921532,0.755611126084953 214.18570148148433,0.728897601317683 214.22147852343102,0.6869192054904183 214.2458069119548,0.6640218984170644 214.27681368164193,0.641124591741773 214.34073532992005,0.6067786315298048 214.4876597155145,0.5342704930138897 214.5115110768123,0.5190056217832968 214.60453138593147,0.4274163944566047 214.62170436606502,0.4045190874401169 214.64794086343574,0.3778055628434452 214.79391119457827,0.2976649888828318 214.83493553601048,0.2747676820369423 214.87595987749958,0.2595028109769475 214.91603016453675,0.2556865932261653 214.95371531527354,0.2595028109769475 215.08394374795952,0.31292986034088915 215.13116944332918,0.33201094926539826 215.22800597019827,0.34345960263147696 215.2718924749862,0.34345960263147696 215.3281816877059,0.301481206633614 215.392103335984,0.23278928620967754 215.42597226896913,0.1984433259977093 215.46318039265145,0.17172980123043938 215.50325067963175,0.14501627663376765 215.5480912389285,0.12975140557377285 215.59531693424125,0.12211896995847635 215.79805350527258,0.11448653434317983 215.8481413639411,0.11448653434317983 215.89632111376267,0.10685409850041902 215.97646168778013,0.061059484979238174 216.05946442509648,0.015264871059994795 216.10239687537654,0 216.14819148912432,0 216.1901698849516,0 216.22928611748085,0.0076324356152965124 216.3332780527384,0.08395679165452948 216.41723484456352,0.18699467246103238 216.54126192331208,0.31292986034088915 216.58228626468744,0.34345960263147696Z"/></svg>