<svg xmlns="http://www.w3.org/2000/svg" width="256" height="256"><path d="M187.63071553512674,0 188.10922218679585,0.021172860440923095 188.61948812950496,0.016938288617758653 188.88203160216526,0.021172860440923095 189.04294534337143,0.04658029327291101 189.31395796030904,0.16514831309242123 189.40288397522102,0.24560518391634975 189.55744585828228,0.47427207921494086 189.68660030844845,0.7791612732618959 189.68236573630978,1.2026184871283612 189.61672986816046,1.7022979997431904 189.61461258215425,2.096113208512803 189.7511775336262,2.583089004459238 189.97137528483674,2.938793064043969 190.3037891976588,3.184398248275819 190.63832039667642,3.370719422187763 191.17822834429307,3.6120900340285482 191.88963646365184,3.8661643626008275 192.8794677010016,4.082127541357225 193.19706061140144,4.1710535564584825 193.78143156653715,4.310794437034416 194.21970978295207,4.403955024211238 194.6590466422754,4.454769889875214 195.05603778027523,4.408189596034403 195.8415509119975,4.187991844823841 197.2940091556226,3.7094851934071356 198.43416770389496,3.252151402368253 199.7934653604063,2.7482373179302595 201.56034058526413,2.0410637705839623 202.96621853536388,1.5032731089735514 203.60987350044093,1.2873099302171545 203.7326760923991,1.2619024971327664 204.54359665695338,1.0882850393844155 205.2719430648037,0.9400750147204529 205.37674872523564,0.9146675816360648 205.97382339678737,0.7325809797996847 206.43115718776315,0.5462598059508402 206.84402797134604,0.24137061165148502 208.63313469986878,1.935199467117346 209.21538836893515,3.010780790338168 209.50651520346835,4.607214486867142 209.49063555801146,5.7039686707181865 209.67166351693936,6.394203929257425 209.8272840429722,7.080204615784199 209.85692604800596,7.304636939196525 209.8272840429722,7.761970730046108 209.82940132910463,8.575008580795922 209.85692604800596,8.714749461245654 209.9119754857455,8.989996650195756 210.01889843230987,9.404984719784894 210.4063617829346,10.082516262223638 210.70489911871044,10.41281288872398 210.63714596455492,10.46786232671592 211.29350464598483,12.280259202127493 211.68837849791532,12.919679595002755 212.2674562378777,14.084186933135534 212.30345010105634,17.344807479781117 211.66297106508333,18.86925344995279 211.79424280138193,21.549737613348917 211.43430416959544,23.69243111570253 210.83511221203747,24.399604662670228 209.73729938508868,24.933160752457475 207.9312543678851,25.415901976265243 207.77986841392783,25.432840264883 206.8175618954794,25.564112000803007 205.82667201496878,25.81395175711042 205.76527071895813,25.83935919013171 205.2370078446597,26.008742075678295 204.9776403012296,26.10190266241342 204.396445275261,26.394088140170577 203.6670402243129,26.7751996325873 202.86247151790351,27.495076896223388 202.38502350939527,28.104855284001797 201.9086341437955,29.032226582747956 201.78583155164802,29.811387856199154 201.88746128297598,30.302598224347353 202.1404769682612,30.77263573167603 203.11231127414783,32.83063779081465 203.06996555269808,33.16940356203402 202.98209818082077,33.73683622874129 202.86776473307683,34.09677486052778 202.77036957388756,34.397429482183675 202.95457346191947,34.719256964848384 202.97998089481456,34.753133541768406 203.4976573387032,35.12154131789533 204.23553153386553,35.69744312869062 204.9469396532243,36.053147188275354 205.77162257722924,36.32839437766715 206.59312957219328,36.53588841214622 207.16585545388457,36.74338244719319 207.4834483642844,36.85771589500023 207.82539006441849,37.05250621331571 208.51880125212483,37.40397570069867 208.6066686240021,37.45055599416089 208.7538200058838,37.50560543190043 209.1317555691965,37.65381545700609 209.8675124782895,38.02222323313301 209.98184592603346,38.068803526595225 210.23803754042265,38.12808753659963 210.78853191844908,38.30593956617115 210.92933144205966,38.344050715356026 210.95579751792633,38.39063100881824 211.28080092963194,38.43721130265905 211.7010822144575,38.50496445675149 212.09066285108844,38.62353247657099 212.1615919344111,38.66164362575588 213.28163626508788,38.83102651142866 213.55159023892776,38.843730227781556 213.8818868657436,38.87337223268911 217.6051344186645,40.19879331221735 218.71670960506395,40.60954680979402 219.53504067098712,40.91443600346237 220.32478837472186,41.100757177942214 220.73660051520702,41.083818889324455 222.2388149814614,41.27437463550127 222.19223468787297,40.9948928744756 222.17212047027743,40.87209028239123 222.34891385706666,40.88055942673166 222.55217331978568,40.85515199364727 223.29534072999513,40.8636211381139 224.36351155203639,40.7196456850838 226.8185047493641,40.35547248122174 227.93960772307557,40.33429962078082 229.43652897415663,40.71117654080647 230.4263602115064,41.23202891386222 232.16465207442823,42.392301679919434 234.70857128679413,45.0558475553919 235.20189894094855,45.38190961006908 235.92495213362554,45.92393484369195 236.24572097306628,46.139898022700756 236.55166881014793,46.343157485356656 236.86714443441534,46.6734541122987 237.2122620637165,47.071503893080774 237.7130002191136,47.60082541041386 238.36194839936397,52.767003419647835 238.7134178869362,54.24063452390313 238.98231321774142,54.587869439210536 239.48305137307543,54.93086978269477 244.62064602031032,57.01851384711954 248.04218030841446,58.28888548871894 248.45928566400983,58.46673751829046 248.7260637088088,58.55566353320241 249.25538522614187,58.61494754339612 249.56239170613196,58.87749101605643 249.80693824720294,58.98335531952304 250.180639238377,59.029935612985255 250.27379982549073,59.05110847355238 250.58504087761946,59.165441921359424 254.32099214695637,60.55861615498009 254.72962835840062,60.71106075171962 254.82173030241657,62.070358408420276 255.05463176998,65.53847299011282 256,67.09679553701523 255.82003068416986,68.64241436762782 255.80520968162142,68.76521695945979 255.55113535323844,70.02288488470629 253.47301907625186,73.15646826750744 249.61849978696927,77.17084265496153 247.43557784948763,79.43633874895781 244.8493129158613,82.12105748499741 236.90737286973265,82.97644105700766 235.4760874869271,83.12888565418889 233.59487881426222,83.09500907682718 232.3880257548059,83.13312022601205 231.64274105840093,83.31097225602527 231.15788254852382,79.72005508243765 230.01878264322303,76.99722519721318 228.79499129508585,75.56170524214276 226.61630392974288,73.00825824240178 226.05098854923114,72.3476649889594 222.95551631586727,68.36293260641285 221.75395647152118,66.81731377605266 218.89879620708965,62.57850706493383 217.67818078805647,60.76611018983776 216.57719203200367,59.13156534399771 216.41839557680373,58.69540441377835 215.81496904710713,57.01851384711954 214.04385925004752,52.11064473847031 212.91005255992008,48.96012306692521 211.74025200667705,51.780348111338974 211.46288753165763,52.2080398976596 211.33902629653858,52.75006513109317 192.86464669857938,65.58081871118397 193.80895628550158,66.15672052216857 194.52883354907456,66.83425206441801 195.6414673784456,68.11309285029473 196.911839020045,69.61636595964688 197.19449671030088,70.10757632779509 197.57454955974603,70.51409525304379 202.1775294745376,75.42619893357929 204.14978144805755,86.6859262504148 202.1489461125385,86.8891857130707 201.24063038879495,86.9865808724493 200.36830852829314,87.11361803654613 199.77229249977609,87.20677862347056 199.4928107385611,87.21101319567232 199.07888131200664,87.20677862347056 198.63107530840597,87.202544051395 197.99059627243292,87.21948234001275 197.4125771755052,87.28300092184031 196.94148102507876,87.43121094694598 196.54237260094652,87.76150757382493 194.5754138425368,89.73481819012716 194.14666341349698,89.95078136951454 193.86612300937355,90.00583080706478 193.48077694469197,89.94231222523722 192.4253098391298,89.62895388666054 191.81341416509275,89.46380557356811 191.21739813657572,89.31559554871485 190.58115367286754,89.12080523014697 189.86127640923146,88.90907662321375 189.28219866920597,88.77357031465027 188.5739664790774,88.69311344420494 187.7884533473551,88.51949598670899 186.80814989725425,88.22731050895183 186.5593687840446,88.13414992202742 186.09038991975058,88.08333505630034 185.76856243721207,88.08333505630034 184.76602748338323,88.13838449385058 183.72644002340414,88.16802649894743 183.3527390320408,88.19766850385498 183.2712235184346,88.20613764813231 182.93139910430676,88.20190307630915 182.42854366284033,88.12144620548521 181.9690925857321,88.0875696285021 181.52234522510298,88.04098933466129 181.13382323138052,88.03252019038396 180.73577345047224,88.0875696285021 180.26785322908668,88.13838449385058 179.90262138206376,88.18919935976696 179.64642976767456,88.26965623033848 179.388120867216,88.3755205338051 179.11393232123748,88.54913799136415 178.73070354268833,88.72699002118806 178.3464161211045,88.95142234485279 178.08598993457662,89.02764464322256 177.86367489735983,89.04458293158791 176.35087400082188,89.74328733459377 173.9223468792346,90.36576943910369 172.5175275722957,90.72570807089018 171.66531992938945,90.98401697109632 168.40469938255455,91.96643770739273 165.19701098751608,93.51629111001779 164.0483832949664,94.07102006043526 163.49894755991156,94.43519326429731 162.115301113666,96.90394882094951 161.37848556147523,97.98799928870005 160.40453396964546,99.41505009943005 160.03295026441455,99.6479515668042 160.02342247710254,99.68182814416592 159.93237917618436,99.94013704456137 159.806400654996,100.18150765640215 159.6751289186974,100.40170540761271 159.46975217003524,100.6303723029113 159.292958783246,100.85057005412186 159.14263147232342,101.07076780552173 159.02723938148168,101.3248421337154 158.9171405058764,101.57468188983351 158.87479478461597,101.68054619330013 158.7583440506765,101.81181792978803 158.58684387912368,102.03625025307417 158.38676034550866,102.23950971573007 158.24596082189805,102.36654688001622 158.07975386551857,102.52746062103307 157.93471976976932,102.64179406877702 157.77804060057562,102.75612751652096 157.55996013549748,102.91280668571464 157.3122376653856,103.07795499937497 157.14073749376968,103.15417729774474 156.9247743146978,103.23886874039182 156.69399013307748,103.33202932769485 156.48120288310957,103.40825162606461 156.308644068459,103.5056467852539 156.17313776002172,103.66232595425829 156.07785988696486,103.82323969565375 155.9296498620485,103.97144972038082 155.74862190312058,104.09848688466695 155.54642108349935,104.19588204404553 155.21718309978127,104.30174634751215 154.41579032247589,104.9792778893199 152.29532832403956,106.76203275969772 152.24874803057736,106.8128476256141 152.22016466857826,106.85095877479898 151.52992941003902,107.3506382872245 151.31396623096714,107.38451486414452 150.97096588767218,107.67670034171239 150.56656424842973,107.96465124720469 150.25849912540497,108.14673784904106 149.37664947752805,108.72263966021495 149.1500998680464,108.90472626205133 149.0685843544402,108.98518313249666 148.94684040539047,109.1122202969721 148.88226318033895,109.24349203308141 148.89496689669184,109.38323291390974 148.95742683580025,109.5314429383844 149.15115851108106,109.85327042123842 149.16280358446238,110.20050533654582 149.300427178969,114.73573209699256 149.0463528507122,116.48884496227352 146.82637840695415,118.91525479772837 146.8380234803355,118.97877337999765 147.00740636588208,119.86379895710475 147.96971288445673,120.83351597666966 150.1229928169677,124.0517908020548 151.89939582913752,126.03357056307605 151.8898680417624,126.14790401082 151.85387417858377,126.15637315509733 151.65802521723364,126.34692890102174 151.5902720629519,126.49937349813986 151.5119324784497,126.62217609035044 151.41983053443374,126.72380582161529 151.31925944607735,126.85931212998946 151.24091986151205,127.14726303548176 151.3213767321467,127.15996675202395 151.34360823593778,127.19384332875467 151.32878723338936,127.71893027401218 151.2716205095174,127.84173286628585 151.1742253503281,127.93912802547514 151.0704783329939,128.0407577564876 151.0514227583068,128.1381529158662 151.09165119362413,128.18896778159325 151.06941968989614,128.22707893096745 151.30973165882847,128.29906665707233 150.56550560539506,129.02741306498575 149.10457821755574,130.52221702987129 148.577373986292,131.5977983532814 148.27671936444682,132.49129307453964 147.20537261336466,136.32781543198053 147.13126760100113,136.5945934766533 146.83273026528835,137.30600159620136 146.74909746542355,137.37798932255865 146.65170230629735,137.5770142127604 146.61888437215958,137.76333538705094 146.66969923782358,137.8861379788829 146.73215917686886,138.04705172046766 146.72474867562622,138.1867926009174 146.67075788085825,138.52555837213677 146.6538195923036,138.84315128253664 146.6538195923036,139.0506453170157 146.7374523920422,139.27507764068042 146.88883834606256,139.46139881452928 146.94812235594077,139.6138434116474 146.9661192875301,139.66889284945003 146.8687241283408,139.791695441282 146.7882672577693,139.95260918286675 146.66652330871958,140.20668351106045 146.6093565848476,140.49039984447717 146.58924236725204,140.52427642146029 146.50772685351964,140.6555481575696 146.33834396803616,140.8969187695997 146.1615505812469,141.10864737653293 146.01757512846922,141.20180796364664 145.79737737725864,141.23568454062976 145.5835314843192,141.29920312283593 145.30510836620198,141.46435143611765 145.14419462486964,141.6252651775131 145.09973161741365,141.769240630417 145.07114825554078,141.85816664526587 144.94622837738706,141.98520380917338 144.6413391834032,142.21810527692617 144.27928326554738,142.46794503304426 143.9616903551475,142.6330933465153 143.7340821026943,142.7516613662717 143.3804953291158,142.9422171128271 143.07137156299328,143.06078513239422 142.88716767496138,143.10736542604573 142.57804390883885,143.0988962817684 142.228691707399,142.9887974062893 141.96508959176714,142.8956368191125 141.6750214003317,142.85329109772584 140.6216715808389,142.65003163488066 138.88655564695793,143.03114312767596 136.17113626310234,144.1151935950479 134.98863199338024,144.69532997804498 134.2952208056739,145.22888606745363 133.60180961790445,146.10120792820783 133.26727841901305,146.66017145025918 133.1751764749971,146.81685061945288 132.14935137434247,148.0364073953252 131.07059412208076,149.67942138531637 129.99183686969283,152.01690520585925 129.58531794444414,152.8976962105122 128.85167832135738,154.48566076251146 126.20507073469197,156.0609215984102 121.89215901152512,158.46192400078067 100.9966627932844,170.0900590937431 100.74470575097075,170.3653062825039 91.113171421578,164.26328783062505 91.05706334074068,164.22941125370502 87.82926072804355,162.1841129108562 85.01115296982533,160.17692571706604 84.32409364032699,160.6723706572267 81.1418126780574,162.96750875638295 79.86297189218068,163.89064548248564 76.52189447477427,166.30011702957512 75.39973285809124,166.58806793506744 74.20770080099403,166.8887225566602 71.44040790837668,167.9812421684988 70.66018799182773,168.09557561624274 70.05464417612488,167.69752583539756 65.75443616918473,164.86883164651718 64.1971722651908,163.2258176567784 62.93844569703583,161.70984083132575 60.814807769432406,160.17269114499047 60.74282004313821,160.12611085114966 60.47180742620057,159.9397896772377 60.23890595863711,159.75346850319957 60.14362808545406,159.6899499209303 59.828152461123544,159.55444361280854 59.70640851226313,159.52056703544682 58.873256443854665,159.0928752495048 58.35769728597224,159.0081838068577 55.327860920757686,158.12739280201546 55.18812004024485,158.08928165264126 54.73078624933217,157.95377534426711 51.60461336783679,157.67005901078727 51.420409479804874,157.65312072223261 49.76998498876033,157.78015788651877 48.83414454611544,157.50067612530378 46.790963489335944,156.7215148518526 45.846653902350624,156.34463793144835 45.23899280038915,156.12867475243954 44.81977015866135,155.95929186676676 44.51593960771216,155.94658815060316 44.10836203942878,155.9423535784014 43.79394505806984,155.908477001229 43.526108370362394,155.71792125492595 43.00419735420888,155.27752575250483 42.61038214531307,155.01074770802137 42.48122769514689,154.959932842105 42.46323076355757,154.7651425237264 42.31078616650254,154.44754961332657 42.01860068893468,154.2527592951373 41.73700164171348,154.227351862116 41.36541793667186,154.22311729004045 41.05100095531291,154.22311729004045 40.886911284876554,154.17230242437645 40.56402515930337,154.04526526009033 40.3628829827799,153.88858609089664 40.0812839355587,153.7615489267998 39.7308730910211,153.65991919540875 39.300005375975076,153.60910433006026 38.94112538716014,153.66838833968606 38.60130097303231,153.70226491704778 27.336280441149665,154.227351862116 24.455712743823035,154.36285817049017 20.420165495675622,154.55341391679318 17.240001819601567,154.705858513722 13.780356382249446,154.86677225518056 13.182223067726163,154.07914183719964 12.722771990617948,153.77001807132953 12.093938028152447,153.51594374275726 11.167625372819554,153.36349914601772 10.866970750911264,153.23646198154228 10.16720770493383,152.83417762868464 8.66922781088121,151.57650970337502 6.820837072354089,149.654013952232 6.0173270090424715,148.38787688308676 5.190526799031298,147.0031717937434 2.727064457300036,142.8829331028227 2.575678503342775,142.42136473958206 2.2083293703767164,141.29920312283593 1.4609273878393052,138.93207729719617 0,134.30368994957263 0.051873508824842075,134.20206021856018 0.4139294265544698,133.4779483826592 2.3194868889535636,130.3528341443878 3.41306514388991,128.57431384627483 3.4554108651503563,128.50232611972825 3.7592414160995453,127.79091800036949 7.4655506805288825,126.54171921958961 7.6338749230408025,126.48666978178697 14.245100674530992,123.36155554332626 16.782668028625785,121.86251700623897 17.744974547074225,121.25273861827127 18.78350336408173,120.59214536463958 20.545085373829327,119.01688452937182 21.549737613727515,116.87842559921998 22.5639176408746,115.4132636390527 22.542744780244377,115.03638671864844 22.134108568800137,114.53247263439975 21.24273113361123,113.93963253479741 18.906305956103008,112.1060627989449 17.596764522220962,111.08129634119877 15.209524479048765,108.98518313249666 12.83287086622323,106.62652645132356 12.684660841433066,106.48255099867205 12.043123162362273,105.62716742666179 12.205095546666195,105.28416708361925 12.406237723315865,105.10631505360604 12.609497185971769,104.91999387969409 13.786708240520543,104.09001774057893 14.347789048893608,103.75125196935954 15.267749845955404,103.16688101428693 15.989744395597727,102.69260893469338 16.614343786113864,102.28609000919228 17.147899875585612,101.90497851696486 18.100678606785156,101.21474325836252 18.647997055707563,100.7150637457477 19.292710663882357,100.18997680067947 19.8982544795852,99.79616159190986 20.60436938370753,99.34306237294655 21.29460464237297,98.84761743272279 22.06212084250594,98.36911078092747 22.832812971679807,97.8270855474308 23.430946286266188,97.36551718419015 24.077777180510314,96.81502280628995 25.024204053438766,96.19677527404491 25.926167919037436,95.6589846124345 26.89800222479787,95.13813223937875 27.93864832787471,94.5452921399657 28.827908477057388,94.01597062263261 29.6472981858259,93.56287140366929 30.305774153451353,93.27068592616453 30.416931672091298,93.11400675678155 32.71736298635777,89.895731931775 32.8041717152004,89.74328733459377 32.952381740116756,89.50191672256369 33.09423990676203,89.22243496153803 33.2202184278242,88.94295320057546 33.426653819584104,88.3755205338051 33.55686691291114,87.80385329508537 33.5738052014027,87.54554439468993 33.50287611808007,86.9484697230751 33.48805511559474,86.39374077303624 33.62038549492801,85.83901182268187 33.76330230460794,85.60611035492911 34.011024774782925,85.40708546453807 34.22592931075705,85.2122951461595 34.42283691520496,84.97515910658358 34.59116115771688,84.75072678291886 34.72878475222348,84.32303499722923 35.015677014618014,82.32008237564085 34.975448579300696,79.31353615693654 34.72243289414168,76.76008915757416 34.69808410421816,76.50601482925428 33.7897683804746,73.91869125259328 33.60027127726935,73.38090059098286 33.4330056778552,72.83464078503202 32.60938139688492,70.17109490962265 29.757397061431178,67.25347470601962 25.73984674487309,64.21728648284946 25.680562734931787,64.19187904976506 25.57787436063227,64.17494076121041 25.37884947011503,64.10295303510551 25.189352366909784,64.01402702019355 25.050670129305416,63.954743009999845 24.852703881822844,63.84464413464696 24.644151203993612,63.69219953733954 24.53405232838833,63.6371500996 24.395370090910163,63.59480437833955 24.254570567299563,63.51011293550316 24.15823405108184,63.450828925498755 24.05342839064989,63.41695234857873 23.91580479614329,63.391544915683646 23.726307692938047,63.40001406002408 23.59291867063321,63.391544915683646 23.50505129875592,63.370372055116526 23.45211914702261,63.31955718920015 23.351548058666225,63.12900144308644 20.644597819024845,60.6898878910894 20.53555758651733,60.592492731900116 19.429275615291193,59.656652289507626 19.103213560550913,59.24589879174165 18.51672531934586,58.45826837401313 18.13243789782514,57.85695913057515 18.043511882913183,57.43350191670868 18.78350336408173,57.37845247890604 19.999884210913155,57.090501573224444 20.83621220836252,56.72209379728682 21.68100934996302,56.362155165500326 22.74071102772695,55.86671022527656 23.72842497900738,55.25269726510709 24.836824236365953,54.52435085738296 25.76419553467041,54.12630107615919 26.364446135326126,53.931510757780615 27.217712421330155,53.812942738024205 28.118617643831058,53.75789330022156 28.932714137426238,53.66896728537271 29.242896546646524,53.635090708010985 29.943718235595522,53.55039926536389 30.720762223040488,53.46147325064124 31.438522200481046,53.36407809145195 32.21133161585045,53.266682932325764 32.599853609572925,53.22010263861115 33.374780310885455,53.19892977804403 34.19734594888417,53.17775691722451 35.51429788394577,53.17352234495964 36.763496664914946,53.17352234495964 37.533130151054145,53.0464851810521 38.16619868584761,52.76276884763537 38.98876432372012,52.30543505678579 39.43657032744701,51.90315070336025 39.7276971619802,51.43311319603157 40.02941042679696,50.840273096870916 40.331123691676815,49.984889524860655 40.49203743307228,49.45133343507341 40.612722738898015,49.053283654038935 40.86467978114856,48.62982644017247 41.31142714184078,47.97346775899495 41.709476922938364,47.21124477390911 41.98578275492313,46.52524408719304 42.13399277971329,45.801132251481384 42.12764092156839,45.01773640620702 41.94767160573825,44.145414545579 41.88203573746274,43.24345067972793 41.73382571260948,42.37536339136478 41.84604187434719,41.57502925728336 41.97943089665203,41.08805346121072 42.21762557945192,40.634954242436706 42.77764774479032,40.07175614818361 43.5324602285073,39.491619765123446 44.367729582921996,38.89454509350863 45.1310112109163,38.44568044699948 46.05626522315143,37.97987751149397 46.92329386866921,37.52677829253065 47.67493042315599,37.14566680030323 48.300588456643695,36.853481322546074 48.86802112328785,36.57399956133111 49.431219217667156,36.23523379030103 49.56990145533462,36.1674806360193 50.33212444023116,35.79907286033407 50.87309103088247,35.60851711377866 51.18644936914365,35.54923310396356 51.77717218248737,35.37138107401344 52.62832118235897,34.99026958178602 53.30902865371241,34.329676327901936 53.84046745705172,33.66061393018222 54.21628573435821,33.067773830579874 54.563520649728716,32.46223001468773 54.76254554024595,31.814340477787535 54.880054917157,30.992833482697293 54.96686364593652,30.315301940447846 55.17753360983509,29.557313527626874 55.34691649544477,29.25242433376922 55.754494063728146,28.845905408268113 56.054090042664875,28.613003940704658 56.24358714580701,28.464793916040694 56.73903208596768,28.1768430107377 57.219656023706115,27.948176115186705 57.25670852998253,27.931237826442747 57.957530218868435,27.711040075232187 59.3570563107602,27.37650887646698 61.26684834529796,26.95305166260051 63.57363151783553,26.326334986078145 66.0995537984859,25.597988578101624 67.01422138050056,25.343914249781744 67.61447198115627,25.16606221995783 68.63606250954602,24.768012438986453 69.78151427305481,24.268332926750222 70.20497148692128,24.043900603085497 70.7734627966001,23.74748055350517 72.03007207874884,23.23933189699161 73.17552384219452,22.83704754369227 74.61633701237517,22.48981262819557 75.65168990034178,22.31619517063652 76.85113245861855,22.066355414329102 77.74356853677902,21.83768851884121 78.65400154659193,21.46928074290359 79.81427431258604,20.85103321072165 81.24132512331603,19.855908757883054 82.42594667917056,18.80573486749422 82.87692861193834,18.399215942371715 83.1881696640671,18.149376186064302 83.49623478715495,17.933413007118602 83.87840492273254,17.708980683643176 84.305038065703,17.463375499789926 85.00374246851956,17.014510853028373 85.87606432914758,16.472485619405496 86.52607115236951,16.01938640044218 87.18878169207053,15.608632902865509 87.91924538611639,15.29103999246566 87.96370839344615,15.274101703911 89.36217584224016,14.770187619662307 90.29801628488505,14.600804733926422 90.82733780221812,14.579631873296199 91.8044653232781,14.558459012729076 92.76041998351855,14.638915883111304 94.16735657658988,14.702434465380573 95.21329589484004,14.723607326136996 96.40215202277015,14.732076470477425 98.07586666057735,14.655854171665963 99.86603203219784,14.367903266362966 100.71612238903477,14.156174659429734 100.82727990767471,14.130767226408445 101.7101881985863,13.919038619475213 102.3792505964953,13.728482873550803 102.46605932540103,13.703075440466415 103.0896000727563,13.609914853352693 104.06355166477537,13.364309669688744 104.82789193567814,13.021309326393807 105.58164577636045,12.62325954542243 106.30469896903743,12.356481500497257 106.93670886073313,12.1235800329969 107.69363863058254,11.873740276878786 108.142503277281,11.818690838697545 108.8835534015473,11.86950570442462 109.62777945485452,12.115110888467171 110.56891311273584,12.538568102333636 110.8738023067197,12.724889276434881 112.08383129528002,13.364309669688744 113.01649580888402,13.77929773927788 113.80941944178586,14.105359793955058 114.92628784342178,14.45259470926246 116.10032296886655,14.702434465380573 116.6772834226965,14.892990211683582 117.51467006311744,15.134360823524368 117.62794486782671,15.168237400444385 118.17208738764512,15.29103999246566 118.86973314755322,15.451953733924217 119.99189476423626,15.494299455121563 120.754117749259,15.350324002659365 121.33213684618673,15.147064540003463 121.59785624782482,15.058138525154604 122.61838813324302,14.600804733926422 123.60610208458654,13.931742336206707 124.34185899367952,13.27961822659995 124.83306936176463,12.847691868456156 125.66092821487356,11.852567416059262 126.33316654194968,11.090344430973424 127.45532815863271,10.179911421412925 127.50402573822736,10.137565699773878 128.75957637740453,9.023873227557475 128.8389746050045,8.964589217553069 129.50909564594818,8.486082565947063 130.15380925405987,8.10073650126548 130.76464628499915,7.922884471252265 130.91814952502574,7.910180754899371 131.42523953863082,7.8678350335127245 132.04666300004297,7.905946182886906 133.16670733071976,8.265884814673402 133.65262448369464,8.452205988585346 135.09449629684684,9.112799242406332 135.97740458769533,9.536256456272797 136.62529412497412,9.972417386302856 137.20331322190185,10.42128203300131 137.53784442085635,10.692294650128247 137.7389865973798,10.929430689956568 137.8681410476722,11.107282719528083 138.4715675773688,11.636604236861166 138.9225495101997,12.009246585000554 139.638192201634,12.390358077669672 140.45334733832695,12.784173286439286 141.1435825968662,13.046716759288895 141.70466340523927,13.15258106275551 142.49864568123888,13.228803361125275 143.19735008418166,13.186457639486228 144.45925258150373,12.93238331154495 146.3711619020477,11.988073724622732 147.889256013759,11.056467853801008 147.9538332388736,11.005652988326332 148.26507429112857,10.751578659754053 148.5837258445631,10.311183157522228 148.85367981833986,9.845380222395317 149.236908596889,8.918008924090858 149.48039649486222,7.723859580861226 149.55132557818487,7.016686033514929 149.6000231577795,6.487364516181848 149.6942423879279,6.085080162945605 149.8445696988505,5.720906959272845 150.0478291615064,5.386375760318338 150.32731092259516,5.085721138473148 150.85980836909533,4.679202212972041 151.78294509526114,4.154115268093124 152.43401056164393,3.9169792282648035 153.32115342469416,3.7814729197013346 154.35015445432657,3.7814729197013346 154.98004705995294,3.739127198314688 155.57076987335978,3.6967814768649414 156.3615762201923,3.7221889099493297 157.72722573497475,3.6629048999449245 159.10557896604698,3.5570405964783083 159.8625087358964,3.4257688599273037 160.53368841981165,3.264855118721147 161.0947692281847,3.180163676074054 162.25080742204017,3.171694531796725 163.08925270549577,3.307200840360194 164.61369867541504,3.493522014398338 165.21077334696676,3.6459666111378657 165.79937887430424,3.853460646058634 166.25247809307825,4.0016706709118965 166.8707256253864,4.187991844823841 167.34393906194526,4.251510427282411 167.45403793748744,4.251510427282411 168.39199566613857,4.281152431937564 169.66554323684196,4.162584412181153 170.75700420564587,3.8788680787013217 171.41759745921448,3.7137197656089 171.88128310846133,3.59515174566319 173.40149450617886,3.0742993726074377 174.22935335935088,2.7609410344093535 174.93970283567498,2.460286412627263 175.49443178577695,2.1596317905927727 176.3254665679268,1.668421422444573 176.8950165205772,1.3592976563220533 177.55031655909866,1.0544084624643983 178.2363172454992,0.8172724226360778 178.5094471484431,0.7495192685436435 179.0567655973655,0.6775315420601443 179.10228724791924,0.6775315420601443 179.87615530619712,0.6436549650770271 181.16981709455916,0.6521241094174566 181.81558934576861,0.7114081191694616 182.28668549613195,0.7833958455267607 182.65615191523045,0.804568706346284 183.1399517820729,0.7622229847072373 183.87253276206187,0.4996795122362289 184.66122182295126,0.16514831309242123 185.07832717854663,0.09739515899998688 185.58224126311083,0.0719877263572991 186.27988702295582,0.05928400962580493 186.83355733002313,0.04658029327291101 187.34911648790555,0.016938288617758653 187.63071553512674,0Z"/></svg>