<svg xmlns="http://www.w3.org/2000/svg" width="256" height="256"><path d="M134.01831554366836,4.9719940177434205 134.1035422344515,4.998217615039722 134.15467824879636,4.99297289522096 134.23859375964435,4.9772387370151145 134.27530679564035,4.95101514026588 134.3159533712855,4.95101514026588 134.49296265190233,5.071643687031713 134.89549486807942,5.386326852320915 135.19051033590438,5.548913154823353 135.39898793316738,5.617094507621802 137.85745016504208,6.246460838825424 137.97414517223692,6.251705558331576 138.05806068316306,6.283173874743268 138.25604884157002,6.351355227229107 138.64415807924198,6.49296265178509 139.0270225975641,6.629325357069379 139.25779025223977,6.697506709320762 139.67212308705172,6.760443342769364 140.09825654057667,6.818135256399205 140.53356825317877,6.833869414839508 140.96625760598872,6.8810718896133505 141.3714121817235,6.8810718896133505 141.4120587572905,6.8863166088850445 141.4985966278525,6.891561328469349 141.93653070009046,6.907295486831499 142.3705312329137,6.97023211957673 142.7783081683625,7.01743459458503 142.8176435640725,7.027924033675485 142.87009075827433,7.0541476305028725 142.91598205334748,7.080371227799175 142.95793980869334,7.117084263951475 143.09036897432847,7.1590420193754705 143.6803999099784,7.269181127129 144.54053389609214,7.221978652120701 145.65241441490616,7.1013501052767145 146.87574522148702,6.959742680720732 147.52084571113096,6.865337731173047 147.41070660306482,7.038413472531484 147.20878490508684,7.321628321721604 147.051443322325,7.4684804653148245 146.92425887611788,7.5891090121588105 146.80756386884488,7.720226997858795 146.6554670054329,7.945749933575378 146.47714654495908,8.255188379514733 146.39454221388993,8.412529962276562 146.25555714904795,8.627563458902689 146.16770809862896,8.790149761170671 146.01430005543813,8.968470221878954 145.8779373503883,9.12581180487524 145.706172788965,9.309376984698915 145.58947778169204,9.45098440902044 145.5160517097782,9.582102394720426 145.4347585586442,9.72895453909517 145.41115732114005,9.865317243832392 145.40853496142606,10.138042654322819 145.3796890046502,10.300628956668952 145.27610579594722,10.589088525365222 145.15547724910323,10.814611460612891 145.02567044333838,11.040134396095018 144.9142201553371,11.186986539922696 144.75425621278313,11.36530700063098 144.5772469321663,11.58034049702265 144.45661838532232,11.742926799368783 144.30583270168918,11.94222613732015 144.1589805577052,12.115301878678588 143.89543340644823,12.409006166724705 143.79316137760225,12.513900555128389 143.74858126246423,12.634529101972374 143.76693778046223,12.76564708767236 143.79447255753738,12.844317879014197 143.87838806846352,12.88103091493204 144.1432463994212,12.891520354022497 144.30452152198848,12.896765073372343 144.55364569466215,12.88103091493204 144.77523509049513,12.870541476076042 144.9233984143361,12.88103091493204 145.1200753928861,12.943967548146187 145.24725983901507,13.006904181594788 145.39935670242704,13.13277744747601 145.43606973842304,13.279629591850757 145.42951383921618,13.447460613468584 145.3744442852222,13.652004671238712 145.28528405486807,13.793612095794696 145.20661326344808,13.992911433746064 145.13187601159908,14.18696605289465 145.07025055832008,14.360041793784173 145.03353752232408,14.517383376546002 144.9548667309041,14.811087664513968 144.9011083567671,14.984163405950557 144.8866853783401,15.136260269128083 144.86701768056327,15.28311241326837 144.8683288603421,15.56108254303049 144.99420212661408,15.818073794924308 145.20267972387708,16.10128864380182 145.42951383921618,16.37925877364209 145.62094609833818,16.646739464313754 145.77435414152902,16.908975435713725 145.96840876036498,17.181700845969694 146.16770809862896,17.42820265924197 146.20966585413112,17.669459753164396 146.06936960935397,17.910716846774218 145.90416094745015,18.172952818174185 145.74550818475316,18.435188789574156 145.59210014148417,18.67644588302767 145.40460142185503,18.922947696221794 145.22759214123823,19.195673106477763 145.0650058388921,19.44741963902173 144.9220872344791,19.699166171331246 144.91684251505112,19.956157423693977 145.07549527774808,20.213148675275185 145.32330827072104,20.370490258271474 145.64716969547817,20.380979697127472 145.97496465972813,20.328532502769324 146.31587142246994,20.24461699207764 146.63317694786392,20.1187437257275 146.94392657397287,19.998115178883516 147.24287558144698,20.00335989846782 147.52609043055895,20.165946200501345 147.58115998455295,20.386224416711777 147.4408637397758,20.590768474169295 147.19567310651684,20.80580197102988 146.92688123598816,21.036569625627394 146.63317694786392,21.172932330911685 146.3355391204031,21.356497510657206 146.12443916334797,21.67118067664978 145.97365347979297,21.996353281263893 145.884493249517,22.23761037487371 145.963164040937,22.478867468327227 146.14279568134597,22.72536928152135 146.36831861682808,22.982360533649626 146.6384216672919,23.19214931045699 146.91639179697586,23.380959210021274 147.21534080445,23.517321915071104 147.54313576869995,23.664174059211394 147.86306365372977,23.80053676418307 148.1711909202029,23.900186433549518 148.47800700674085,23.9683677858009 148.80842433062665,24.005080821718742 149.12572985602063,24.041793857871046 149.45483600020572,24.083751613529497 149.77869742496284,24.130954088068883 150.0973141300575,24.17291184357103 150.40413021659546,24.246337915641174 150.71487984270442,24.340742865423316 151.03480772789055,24.44039253447715 151.35211325336266,24.58724467838298 151.37964803020336,24.797033455737413 151.32720083592335,25.033045829841083 151.29704369929053,25.279547642800747 151.32195611649536,25.541783614200718 151.40193808777235,25.767306549682843 151.4438958432745,26.008563643370817 151.4819200591275,26.249820737293245 151.52781135404433,26.506811988874453 151.59730388654347,26.758558521418422 151.7310442318793,26.98932617671931 151.9421441890126,27.21484911196698 152.21224723939827,27.4456167667208 152.52955276479221,27.681629141137076 152.6606707504922,27.75505521312907 152.7891663764782,27.828481284730298 153.05271352773516,27.907152076619205 153.29003708193028,27.791768248812456 153.4854028805451,27.566245313330327 153.68339103903023,27.314498781020816 153.97447296736235,27.06799696782669 154.27473315453716,26.842474032344565 154.60121693893012,26.6326852555372 154.92770072324493,26.543525025026753 155.2541845076379,26.564503902973208 155.54788879576216,26.69562188867319 155.661961443243,26.92638954327071 155.65409436402285,27.172891356230373 155.64753846473786,27.429882608593108 155.64360492516684,27.681629141137076 155.71965335687284,27.917641515240746 155.98057814841582,28.095961975949027 156.6112556597109,28.347708508493 156.9167605663137,28.505050091176678 157.22619901256567,28.615189198930207 157.5566163366078,28.767286062576645 157.87392186200174,28.94036180354432 158.19909446645954,29.108192825396607 158.5045993731405,29.302247444310737 158.8337055172475,29.5120362211181 159.1418327837206,29.73231443756299 159.1588781218616,29.805740509320525 159.27426194919943,29.842453545472825 159.42898117232542,29.968326811666657 159.68728360423253,30.214828624626325 159.93116305755635,30.477064596026295 160.07145930241165,30.723566409220417 160.2196226260963,30.980557661348694 160.3035381369443,31.221814755036664 160.10030525910932,31.42111409322249 159.80004507185637,31.473561287268026 159.6741718055844,31.646637028470156 159.74890905751153,31.830202208762746 160.02950154683134,31.851181086240285 160.3127163959433,31.76202085572984 160.59462006527642,31.630902870029853 160.88701317330924,31.53649792048217 161.18989572035437,31.557476798428624 161.45868759103934,31.678105345272613 161.54784782123716,31.87740468353659 161.36034910176434,32.09768289919995 161.1807174612772,32.33893999312238 161.12040318801152,32.58019708681035 161.3301919649752,32.753272827699874 161.60029501559532,32.952572166120156 161.84155210936143,33.18333982071768 161.93989059863642,33.424596914640105 162.01593903026426,33.66585400856253 161.9923377927601,33.9123558215222 161.9975825121881,34.174591792922165 162.0683862244661,34.468296080655676 162.1287004978881,34.62563766341751 162.37257995129008,34.636127102273505 162.63350474291119,34.46305136161844 162.90623015316717,34.46305136161844 163.17895556342313,34.49976439753628 163.43201327574596,34.68857429686611 163.44905861388693,34.887873634817474 163.27467169290597,35.071438815110064 163.06226055607198,35.27073815329589 162.86165003802915,35.485771649922015 162.69906373576117,35.727028743609985 162.64006064211804,35.94730695927335 162.68595193711303,36.17282989475548 162.869517117093,36.32492675816746 163.14617606699812,36.32492675816746 163.4031673189701,36.22003236952932 163.6745815492909,36.115137981125635 163.95517403876704,36.088914383829334 164.243633607307,36.12562741998163 164.500624859279,36.23576652796962 164.7484378521738,36.445555305011446 164.96216016886476,36.67107824072803 165.11556821213375,36.91233533418154 165.28602159354372,37.137858269429216 165.4656532339527,37.37911536311719 165.5587470037997,37.61512773745531 165.64397369466099,37.85638483114328 165.68593145000685,38.081907766625406 165.68855380964268,38.312675421691836 165.7016656082127,38.517219479461964 165.75804634214182,38.737497695125334 165.81704943570682,38.94204175289546 165.91276556518966,39.14134109108129 166.04388355088963,39.31966155155511 166.29431890357662,39.47175841496709 166.55262133540558,39.60287640066708 166.8069902277417,39.77595214186921 166.97482124935954,39.9700067610178 167.01940136457569,40.169306098969166 166.99973366664253,40.37909487601099 166.8935280983037,40.59937309222142 166.81485730680555,40.82489602746909 166.6640716233287,41.050418962716755 166.4831288029846,41.26020774022749 166.27858474529262,41.46999651734747 166.0805965869638,41.68503001373914 165.87080780976567,41.889574071509266 165.6636413923597,42.09936284831664 165.4918768310927,42.31964106476152 165.40402778067372,42.53467456107504 165.33584642810973,42.76544221567256 165.32273462953972,42.985720432117446 165.32666816918888,43.211243367365114 165.34633586696572,43.42627686399124 165.34371350725172,43.877322734721034 165.36469238504188,44.09760095061886 165.38304890296172,44.31263444701053 165.30175575182773,44.538157382727114 165.22046260069374,44.72696728213509 165.21521788126574,44.78990391527108 165.34764704690087,44.926266620320916 165.49712155052072,45.08885292235444 165.6243059966497,45.24094978576642 165.78164757948966,45.35633361333871 166.00454815533595,45.4192702464747 166.26678412673593,45.4874515990387 166.5185306591236,45.57661182947099 166.79256724923655,45.66577205974698 167.08627153736083,45.74968757043867 167.3983323431705,45.807379484068505 167.70121489013744,45.807379484068505 168.0014750773904,45.71821925402698 168.29911290508568,45.58185654882084 168.61772961018033,45.492696318310394 168.93765749536647,45.46122800174239 169.2588965603314,45.46122800174239 169.43721702080524,45.492696318310394 169.57620208572538,45.51891991537224 169.84892749598134,45.61856958473868 169.9013746901832,45.817868922924504 169.93022064703717,46.04863657799093 169.92628710754434,46.2898936713663 169.8305709779052,46.525906046017035 169.67454057500038,46.7461842616804 169.55128966836423,46.971707196928065 169.39919280495224,47.19723013241019 169.25102948111126,47.433242507060925 169.11204441634743,47.66401016158029 169.08975435877844,47.89477781664672 169.22611706390643,48.09407715459809 169.49622011437023,48.183237385108534 169.67716293463621,48.34057896802667 169.6443834382112,48.51889942826604 169.37034684809825,48.623793817216786 169.0228841859933,48.697219888974324 168.68328860303032,48.80735899672785 168.36204953806538,48.93847698242784 168.1325930630904,49.122042162720426 168.0591669910984,49.34232037861825 168.01458687603855,49.56259859459422 167.93198254504756,49.79336624966065 167.83626641540843,50.029378623764316 167.74972854484645,50.27588043672399 167.7143266887856,50.501403371971655 167.70383724985146,50.721681588416544 167.74710618521058,50.93147036522391 167.9070701276864,51.04685419271805 167.9686955809654,51.0888119482202 168.28468992650238,51.1150355455165 168.62953022889334,51.09930138684174 168.98092643064746,51.05734363157405 169.3362561718944,50.94720452366421 169.67454057500038,50.831820696326375 170.02069205717018,50.72692630745378 170.36028764013315,50.6167871994658 170.7090614820951,50.52238224991811 171.04603470542222,50.53287168877411 171.36202905095917,50.66923439382394 171.63999918056498,50.868533732009766 171.90747987139295,51.1150355455165 172.08055561251695,51.356292639126316 172.2339636557859,51.61328389102013 172.34410276377392,51.86503042356411 172.3755710803419,52.132511114470226 172.36901518113507,52.37901292750804 172.21298477807392,52.56782282683787 171.9087910513281,52.68320665409755 171.557394849574,52.81432463979754 171.21255454718303,52.903484870307985 170.89131548221806,53.02935813642367 170.6212124316761,53.20243387786025 170.48616090640513,53.43320153237962 170.44420315105927,53.67445862606759 170.42453545312614,53.93144987811771 170.41011247469913,54.188441130245984 170.42322427334727,54.45592182091765 170.45862612940812,54.712913073045925 170.5228739424011,54.97514904444589 170.69070496417524,55.20591669896526 170.94245149671923,55.378992440167394 171.25188994289303,55.46815267036523 171.588863166142,55.50486570651753 171.9363258283251,55.489131548389835 172.2942779292079,55.43668435379723 172.62469525325002,55.29507692924125 172.94331195842284,55.10102231032712 173.2566839442458,54.896478253025904 173.59365716749477,54.69193419533393 173.88473909574873,54.4873901375638 174.1745098441457,54.288090799065365 174.47739239119082,54.109770338825996 174.79338673672777,54.09928089997 174.9441724202046,54.298580238233974 175.00710905341876,54.54508205119364 175.07660158576158,54.80731802259361 175.20509721174759,55.074798713265274 175.36899469387257,55.316055806953244 175.59976234870453,55.546823462019674 175.86462067989666,55.767101677917495 176.07440945693847,55.997869332515016 176.17405912607046,56.23388170685314 176.26584171606044,56.42269160641742 176.34844604705143,56.53807543398971 176.40876032047342,56.61150150605986 176.44809571618342,56.65345926101494 176.5451230256014,56.679682858545696 176.80867017685839,56.663948699870936 177.30560734266132,56.569543750323255 177.59013337170845,56.5538095921174 177.76320911275428,56.6062567862411 177.85236934310842,56.64821454166509 177.9192395158154,56.774087808093384 177.93890721359224,56.9261846712709 177.94415193302027,56.99436602422566 177.89432709845426,57.65520067184097 177.8589252423934,58.08526766509323 177.80647804803527,58.36848251397074 177.5953780910583,59.092253795425414 177.4891725226413,59.44889471637307 177.43803650829648,59.81602507648933 177.44459240765963,60.03105857311546 177.4773719040846,60.16742127785268 177.55735387528344,60.29853926355266 177.63995820627443,60.36147589676681 177.81696748689126,60.42441253021541 178.2063879044202,60.48210444384525 178.73348220701232,60.461125566133255 179.72473417882605,60.32476286061451 180.25182848141813,60.256581508363126 180.73040912914493,60.23560263057298 181.02673577690504,60.256581508363126 181.30732826622486,60.34574173832651 181.36370900007586,60.413923091359415 181.38206551815202,60.62371186816678 181.38206551815202,60.8911925590729 181.421400913862,61.02755526412273 181.57349777727399,61.142939091616874 181.75312941768297,61.20063100555932 182.24875540355075,61.3002806743787 182.7522484686387,61.37370674621439 182.96072606597983,61.431398660078685 183.74874516003672,61.87195509195248 184.1630779948487,62.06076499151676 184.77277662827547,62.39642703475242 185.47688021148437,62.78453627281514 185.67355719003436,62.97859089141666 186.2845670033963,63.63418081991658 186.51402347837126,63.89641679131655 186.81428366562423,64.31599434547834 186.9781811477492,64.57823031687832 187.11323267309834,64.98731843241858 187.14732334945847,65.40689598681483 187.1433898097312,65.72157915202588 187.13945627016017,65.80024994391479 187.0516072197412,66.54500010237808 186.9690028887502,67.01178013131373 186.87722029876022,67.310729138866 186.75528057205923,67.61492286592443 186.51533465822826,68.06072401691361 186.0892012047033,68.78449529836828 185.95677203914633,69.19882813325839 185.93448198173363,69.4820429821359 185.99741861471333,69.62365040669188 186.15213783791745,69.76001311166357 186.35930425532342,69.80721558667186 186.75265821242337,69.78623670872541 187.11192149316318,69.8124603060217 187.64950523461127,69.94882301130599 188.10579582476907,70.05896211921583 188.60535535036416,70.15336706876352 188.70238265978216,70.24252729903951 188.98821986860813,70.38937944341426 189.16785150901708,70.41560304016349 189.44057691927307,70.41560304016349 189.62807563874588,70.38937944341426 189.965048862073,70.29497449363211 190.3230009629558,70.14812234949183 190.8671406036889,69.89113109736354 191.0690623016669,69.8229497448777 191.25393866150387,69.78099198968818 191.3771895679837,69.77574726986941 191.56468828753466,69.76525783101341 191.92132920871677,69.79672614781586 192.20192169803659,69.86490750061431 192.88897994318268,70.17434594678812 193.15514945415364,70.24777201885827 193.43311958375944,70.2635061767515 193.60095060545544,70.2530167378955 193.7818934257214,70.19008010491582 193.8592530372844,70.12714347201428 193.87760955536055,69.99078076649553 193.74649156966058,69.79148142854417 193.43836430318746,69.4872877014076 193.34133699384762,69.36141443529192 193.26791092177746,69.14638093866579 193.25611030306447,69.0152629529658 193.30724631748745,68.86841080882552 193.53670279246242,68.68484562931445 193.80418348329042,68.5379934849397 194.18573682167735,68.39114134126834 194.47812992986647,68.36491774397203 194.77314539769145,68.39638606061818 194.95933293738543,68.46981213268832 195.0511155273754,68.60617483742554 195.1114298007974,68.79498473722428 195.1822335130754,69.08868902503595 195.22943598784923,69.49253242099189 195.30155087998423,70.19532482426567 195.38546639091038,70.54672102586348 195.5900104485242,70.88238306956804 195.6280346643772,70.94007498296342 195.77095326879018,71.1970662350917 195.86142467892316,71.33342894006338 195.9794308661313,71.59042019219166 196.0135215424133,71.78447481110578 195.97811968619615,71.9837741492916 195.84044580121116,72.25649955931311 195.77488680836117,72.32992563161773 195.60312224717234,72.4400647396057 195.52051791618135,72.4610436173177 195.16256581514224,72.47677777575801 194.7259429227613,72.3981069838691 194.6276044334863,72.36139394795126 194.5358218434963,72.29845731497157 194.37585790094235,72.09391325751405 194.08477597276652,71.74776177518794 193.8146729221464,71.58517547260735 193.39509536790646,71.47503636493197 192.9414271373845,71.42783389015813 192.68312470555554,71.44356804805136 192.5166048637947,71.51174940077166 192.38024215866673,71.57468603375135 192.23863473411075,71.76349593331564 192.2084775973216,71.9890188685633 192.18356518011674,72.1411157322879 192.18880989954474,72.21978652339527 192.22421175560558,72.30370203432142 192.2740365901716,72.37188338680726 192.57429677742454,72.62362991935123 193.23382024549548,72.9435578046155 193.49736739675245,73.05369691236902 194.16213558440768,73.34740120057145 194.37716908079935,73.53096638039513 194.42043801608034,73.59390301384373 194.42174919593734,73.65683964705786 194.35750138302248,73.87187314337139 194.2106492390385,74.22851406463165 194.07953125333853,74.44354756125777 193.8684312962834,74.7267624101353 193.84351887907854,74.93655118717712 193.8907213538524,75.06766917287709 193.97594804463554,75.13060580609124 194.1503349656165,75.16731884224355 194.59220257742547,75.0991374897577 194.6892298867653,75.0834033313174 195.11929687986125,75.0624244536054 195.46282600239522,75.0099772590128 195.83257872214733,74.88934871216881 196.17741902453827,74.70578353265775 196.3491835857271,74.65333633806515 196.52619286650025,74.67955993536144 196.61535309669807,74.74774128761283 196.6848456291972,74.94704062626757 196.7241810249072,75.23025547545768 196.73991518319121,75.30368154721522 196.8316977731812,75.64458831003518 196.95101514009005,75.77046157615086 197.12671324100617,75.88060068413886 197.21587347128215,75.91731372029115 197.39026039226314,75.9382925977687 197.57251439230797,75.91731372029115 197.84523980256392,75.81241933188747 197.97766896812092,75.67605662636872 198.31464219136987,75.16731884224355 198.38282354393388,75.09389276993895 198.46673905486,75.05717973402109 198.55458810535717,75.05193501467124 198.65030423476185,75.06766917287709 198.74602036432282,75.12011636723524 198.9440085227298,75.3875970579069 199.0462805517321,75.65507774889117 199.1013501055698,75.9382925977687 199.1183954437108,76.3264018358314 199.0790600481571,76.99772592222456 199.07774886822193,77.06590727525747 199.0856159472858,77.2127594188507 199.15117494013577,77.43303763506113 199.34260719925777,77.7214972037574 200.38630636542965,78.82288828316835 200.7363913872486,79.08512425456833 200.82030689817475,79.21099752123106 200.87275409237657,79.34736022596829 200.7953944808136,79.62533035604302 200.08473499831968,80.6270717666346 200.03359898397483,80.75818975233459 200.02179836518368,80.9102866155121 200.11620331496582,81.24594865921668 200.36663866765278,81.63405789696678 200.8006392002416,82.0588801707129 201.14547950263255,82.31062670325686 201.6358607693068,82.55188379686668 201.95054393483045,82.64104402714267 203.88191186419124,83.34383643041643 205.21013705933208,83.75292454595669 205.38452398031305,83.86830837321638 205.4317264552432,83.93648972546775 205.54448792286703,84.23543873302003 205.58251213872003,84.45571694923046 205.57988977908417,84.78088955376641 205.24291655575706,86.05535637461396 205.15375632555924,86.12353772741241 204.9649464260731,86.33332650421978 204.83907315980113,86.53262584240561 204.78269242610642,86.80010653338988 204.78400360580713,86.86304316660403 204.86923029659027,87.28786544003752 204.99510356286225,87.41898342573751 205.09213087228025,87.46618590051135 205.26651779318306,87.52387781437564 205.96799901675612,87.55534613125624 206.14500829737295,87.58156972800549 206.63276720425506,87.74415603058607 206.9054926144329,87.95394480739344 208.21273893193987,89.27561410324928 208.28354264421787,89.49589231945971 208.2651861261417,89.77910716833723 208.20487185271972,90.44518653569315 207.6135297372128,92.02909180294897 207.44832107530897,92.7266394871855 207.28835713275498,93.08852512740484 207.184773924052,93.24062199112943 206.99858638427986,93.43467660996541 206.82551064323403,93.54481571771895 206.14369711751596,93.82803056706537 206.05978160674613,93.86474360274875 205.97979963539098,93.91719079734135 205.50646370701403,94.45739689826898 205.3110979083992,94.79305894150464 205.27045133275408,95.14445514341506 205.33601032560406,95.44864887000456 205.54448792286703,95.84200282710452 206.6917702977419,97.48360000830279 207.29884657153283,98.1077216199221 207.5322365860788,98.33324455540424 208.4775972629757,99.13044190846014 209.6393026163557,99.87519206723606 210.47714654490045,100.7720390896584 210.84558808479557,102.19335805456808 210.8639446027154,102.26153940713208 209.82942369562068,103.20558890432827 208.8617729611548,104.34369301989153 207.89412222661076,105.63913871892 207.5715719817888,106.73004035978755 207.24771055710983,108.27198787185384 207.18215156425984,109.21079264923127 206.53705107461593,110.45379115366713 205.826391592122,111.25098850680118 205.0527954764921,112.24224047845861 204.18348323130118,113.32265268093909 203.69703550435426,113.53244145774646 203.33383868404346,113.67404888230244 202.8801704535215,113.83663518488304 202.12361967595444,114.0464239616904 201.84958308584146,114.09362643646423 200.36532748771765,114.41355432196296 199.91165925719568,114.46075679650235 198.9099178464478,114.62858781812018 198.21368134238088,114.76495052363893 197.306344881337,114.88033435066414 196.09219233375515,115.13732560302688 195.6070557866652,115.2631988689081 195.30548441955523,115.27893302758287 194.20278215981836,115.56739259596652 193.8317182602874,115.62508450990897 193.5498145911106,115.72997889831267 193.2928233391386,115.90305463920218 192.8955358423895,116.2806744384089 192.64641166955954,116.62682592050055 192.34484030244957,117.10409538852664 192.17307574126076,117.32961832400878 191.84134723736165,117.75444059720782 191.67744975523667,117.88031386355794 191.60795722281566,118.01143184925793 191.15560017222887,118.65128761963017 190.65341828699792,119.41701665635253 190.36889225802895,119.80512589363373 190.20499477590397,119.98344635410756 190.03454139441584,120.16701153440015 189.5297371494709,120.68623875761578 189.41959804156107,120.81735674331576 189.42877630048193,120.87504865694561 189.44057691927307,121.3051156499634 189.51793653083607,121.60930937709998 189.5402265884832,121.67749072958581 189.74345946616188,122.34357009670728 189.91784638714284,123.10929913342964 190.037163754208,123.4869189320893 190.19450533704799,123.81733625620956 190.2784208478178,124.24215852995566 190.22597365353784,124.57257585360702 190.10796746648597,125.2334105019257 190.003073077926,125.51138063121891 189.78279486187188,125.93620290519947 189.5808731638939,126.21941775431144 189.04853414210825,126.61801643091754 188.841367724546,126.74388969711137 187.97467783906907,127.22640388440917 187.59312450068214,127.43619266152915 187.0843867161662,127.68269447448881 186.85099670169836,127.8295466186291 186.21245211133945,128.15471922316505 186.0249533917103,128.23339001458504 185.2684026142214,128.5900309355327 185.06779209610042,128.65821228801855 184.72295179370946,128.810309151665 184.3846673906035,128.92569297923728 184.12243141920354,129.02534264805666 183.92050972122556,129.1302370370074 183.55206818148676,129.2613550227074 183.21902849780878,129.4082071663006 182.35102743239673,129.80156112340057 181.49482698577583,130.13197844759898 181.22079039566287,130.26834115257066 180.5901128845241,130.57777959874448 179.68539878311606,130.98162299470042 179.3143348835851,131.1022515415444 178.80559709906916,131.33301919661085 178.17229722813823,131.61623404548834 177.8851488395334,131.78406506710618 177.80516686833457,131.83651226169877 177.39345639315846,132.1721743048563 177.27282784623634,132.31902644876212 177.19153469518048,132.45538915428085 177.14564340010736,132.60224129810854 177.09712974539835,132.78580647793223 177.07221732819352,133.1267132409085 176.96732293963353,133.81377148605455 176.95158878134953,134.04978386015821 176.96994529926937,134.31726455106434 176.95814468063452,134.41166950092463 176.93454344320853,135.20886685398054 176.91618692513237,135.8592120626617 176.93323226327337,135.9903300483617 177.03288193248352,136.2158529838438 177.36067689673348,136.6931224518699 177.83925754446025,137.21234967539814 178.2273667821322,137.54276699928397 178.86591137249115,137.92038679794362 179.2382864518791,138.0724836613556 179.36809325772208,138.13017557529804 179.981725430798,138.36618794963618 180.68058429457892,138.52352953239802 181.52236176277285,138.69660527328753 182.04945606536492,138.8277232589875 182.64604290022172,138.9431070867161 183.5153551454126,139.17911946089794 184.94716354925643,139.63541005089942 185.3457622257844,139.85044354776 186.08133412563944,140.40113908738732 186.1809837946933,140.49029931789778 186.74610231306022,141.0147712606977 187.37022392507032,141.48679600890506 187.94845424200724,141.97455491578714 188.2880498249702,142.19483313199757 188.52143983943802,142.3154616787634 188.78892053026598,142.4098666286237 189.1953862860141,142.48853741973107 189.4484439983369,142.49378213954984 189.84179795543687,142.46755854225353 190.2810432075318,142.41511134766094 191.2355821434277,142.20007785126927 191.93181864757278,142.03224682941698 192.71197066240953,141.80672389416932 193.17612833178748,141.65987175026348 193.88416545456738,141.49204072872382 194.49386408815047,141.34518858458352 195.38808875054622,141.0357501384097 195.8706029380003,140.8521849581171 196.23248857853227,140.73680113085743 196.26920161452827,141.0252606995537 196.27575751381326,141.11442092951708 196.29804757138226,141.61266927525517 196.25608981588013,142.04798098785727 196.14595070789213,143.01300936253102 196.09219233375515,143.50076826941313 195.99909856390815,143.93607998224968 195.9466513697063,144.18258179520933 195.78144270764616,144.70705373800928 195.50216139810522,145.3101964719166 195.23074716770623,145.6773268319547 194.89901866396343,146.10214910593527 194.2709635124605,146.6790682430152 194.00086046184038,146.89410173940686 192.90602528124552,147.67556493433509 192.32386142473757,148.03745057455444 191.83610251793363,148.310175985123 191.37456720834783,148.60388027285651 190.2967773658158,149.2280018850229 189.89162279000286,149.4220565038589 189.04722296217312,149.74198438865423 188.51619512001002,149.94652844665882 188.02712503334908,150.18778554011234 187.00440474496736,150.56016061973475 186.06953350692646,150.8800885045301 185.48605847056152,151.0426748067981 184.17487861356167,151.31015549778235 183.77365757724158,151.44651820275405 183.6923644261076,151.44651820275405 183.4773309295596,151.4989653971122 183.23082911644363,151.60385978551588 183.1036446703928,151.67204113854876 182.66439941821972,151.97623486490383 182.39691872739172,152.28042859196225 182.28022372011876,152.47972793022623 181.74263997882696,153.35559607485843 181.42795681306885,153.87482329815222 181.28503820873402,154.21048534162233 180.9152854889819,155.07061932781423 180.70156317229092,155.53215463747816 180.57831226573293,155.8887955584258 180.4157259635431,156.36082030686762 180.32394337347498,156.8118661775974 180.13382229421,157.67200016386747 179.90567699909204,158.44821863921138 179.56739259598606,159.27688430914787 179.17272745902912,160.20519964790378 178.75577226465947,161.06008891435508 178.5171375305292,161.53735838238117 178.2260556022752,162.0356067278848 178.0608469403714,162.4079818075072 178.01495564529824,162.4866525986146 177.94415193302027,162.57581282912506 177.90875007695942,162.64399418161088 177.83925754446025,162.70693081482503 177.42230235001247,163.70342750606676 177.3869004937953,163.8869926861249 177.26889430674348,164.243633607307 176.96601175969838,165.04607567994722 176.85062793228238,165.34502468695243 176.62903853652756,165.77509168020467 176.37204728455558,166.23662699010308 176.27764233477345,166.28382946487693 176.1478355290086,166.52508655825227 175.85413124104065,166.9761324292947 175.5210915573627,167.54780684710292 175.27065620459757,167.89920304846626 174.94679477999676,168.33451476130284 174.60064329767064,168.70688984061263 174.51672778682266,168.76458175432063 174.32398434792182,168.90618917887662 172.4267070947649,171.25582348262034 170.1780336400883,173.96734342658343 169.14220155298028,175.8554424209758 168.49710106333634,178.05297986099492 167.26459199783466,182.00225359020033 166.46214992535076,183.83790539000012 164.97789432714876,185.34838458565468 164.7235254348908,186.78019298926407 164.19511995259802,189.53891540854806 164.8218639241658,191.1333101144254 166.73749769524255,193.6665095981491 167.2082112639055,194.673495728325 165.85900719105265,196.3622953844534 164.88086701773076,197.49515478051052 161.14793796485222,200.40072934385663 158.86517383381548,202.4828829569287 157.2235766529298,204.49685521720232 156.67550347262573,205.16293458432378 156.07104955862695,205.88670586530955 154.31275737039016,207.75382598198993 152.90586138375116,208.3307451188354 151.8503615988663,208.556268054552 150.14976132441564,208.54053389618983 148.21314867554872,208.241584888872 147.27434389793683,208.22585073019727 145.79008829989115,208.60347052909137 144.57855811194514,209.3691995655793 142.4492020241774,210.8324762859911 141.6467599516935,211.19436192652307 139.63409887119872,211.24156440129693 136.7416361067352,210.9531048328351 135.45274630730435,211.04226506334555 133.8701522198274,211.49855565334704 132.5576611830487,212.2328163735014 131.75784147020065,213.05099260403486 131.36710987289283,214.10518120921904 131.56509803122165,219.12437770197076 130.99866833299774,220.07367191820418 129.69011083579002,221.2484890701542 127.73645284878211,221.76247157409816 126.1892606175223,221.79918461025045 125.11671549457456,221.8201634880406 123.51576488917775,221.48974616360772 120.25092704516997,220.00024584613405 118.21728708704137,218.3743828236887 116.5927352441404,217.36739669327835 112.85849501140484,216.00901436150465 109.88736145544318,214.8341972097891 107.1902644895945,213.7537850073086 105.35330150993772,213.23980250359915 104.10243592635986,213.0457478849976 103.3996435230861,213.31322857543483 102.5591772347492,214.14713896440858 100.17807461435932,217.4932699599411 100.17807461435932,218.6890659891342 100.17938579421632,219.55968941426025 100.57142857145928,220.26248181753402 101.35420294608818,221.1068816455982 102.38872385333921,221.72575853794584 103.58320870298792,222.50722173287406 104.44203150932282,223.27819548863366 104.83407428656578,223.9862326117262 104.89307738013078,224.43727848222153 104.19028497677886,225.37083854079617 103.3117944726671,226.0788756631072 101.18112720504236,227.16453258485936 99.85290200982335,227.76767531931375 98.32799983613253,228.0561348876974 96.64837843939388,228.32886029795338 94.401016164418,228.63305402462103 92.60469976040636,229.71871094637322 89.09073774356861,231.99491917804679 86.10255884954411,233.94071008606903 85.16506525171107,234.69594968338833 84.69697404276212,235.8865009935442 84.87529450347041,237.10327590099635 85.4430353814732,238.68718116825218 86.90893446152087,240.87422916949345 87.98672430397474,242.45288971771203 88.04572739753974,243.38644977550516 85.91768248970713,246.1451721950236 85.36960930940305,247.00530618129366 83.86699719328122,248.16963389391876 82.18868697632142,249.10319395249343 79.98197127699068,249.81123107480443 77.83425867122493,250.73430169452308 76.7604023684202,251.32171027053715 74.98375366210726,252.55946405546686 71.93919403415362,254.52098912114786 70.55327692530477,255.1241318558367 69.82819446446202,255.3496547910844 68.1289053697902,255.80070066181418 66.05855237558745,256 64.47595828811048,255.98426584179415 63.010059208062806,255.74825346745604 62.151236401649754,255.40210198512992 61.40779742273084,254.87238532329275 60.155620659295984,253.76050480424425 58.88377619800613,252.1765995372229 58.17967261479722,251.58919096097435 57.424433017165306,251.39513634229468 56.156522095446455,251.08045317661472 54.29071315901382,250.66087562221847 52.48390731598988,250.02626457143054 52.47735141678304,249.75878388099335 52.48390731598988,249.69584724754475 52.487840855639035,249.6329106143306 52.49177439513188,249.4231218375232 52.50488619378003,248.98781012468666 52.49177439513188,248.7675319090233 52.47472905699088,248.55249841239717 52.52979861098488,248.34270963504275 52.698940812537856,248.1486550164412 52.826125258744995,247.9441109586711 52.957243244444975,247.7343221815511 53.067382352432965,247.477330929501 52.97297740265083,247.28327631058687 52.712052611186,247.19411608062347 52.544221589411876,247.24656327490348 52.40523652464804,247.38292597971886 52.26494027994906,247.54026756271514 52.07744156039808,247.69236442589266 51.83225092713911,247.71334330360466 51.65655282622298,247.66089610979358 51.54116899880699,247.46159677129515 51.452008768531,247.24131855539733 51.42185163189816,247.01055090033088 51.41529573253501,246.78502796484878 51.41922927210601,246.5595050296011 51.42054045196301,246.33922681393773 51.441519329675,246.103214439287 51.466431747036154,245.87244678476765 51.507078322525,245.6469238492855 51.469054106672,245.42140091403783 51.37464915712432,245.17489910053112 51.175349818704035,244.93888672619298 50.92753682573106,244.70287435232376 50.78199586160408,244.47210669725735 50.73479338683024,244.22036016494783 50.729548667402234,243.98434779037524 50.75970580403508,243.75358013554327 50.78986294082423,243.52805720029562 50.79379648039523,243.2815553871015 50.79117412060308,243.04029829364796 50.823953617028074,242.8042859190754 50.905246768162066,242.5735182642434 50.982606379725055,242.33226117086804 51.01014115672205,242.10673823538593 51.00358525743705,241.8759705803195 50.95900514237721,241.58226629258598 50.931470365380214,241.3987011122934 50.86853373216607,241.1784228965519 50.83575423574107,241.06828378864205 50.99440699843805,240.78506893945192 51.28155538719918,240.69590870901962 51.517567761380995,240.5175882485458 51.623773329797984,240.29206531329814 51.73260125792897,240.0612976582317 51.80996086957011,239.82528528389358 51.91747761776595,239.59451762929606 52.11284341645892,239.36374997454223 52.289852697153904,239.13298231947581 52.44194956056589,238.88648050651614 52.57175636640887,238.65571285144972 52.69369609310986,238.4249451968522 52.87463891337583,238.19417754209837 53.09229476963781,237.95292044817595 53.30601708632879,237.7273975126938 53.515805863526914,237.50187457744616 53.70723812264889,237.27635164219848 53.83573374855672,237.04558398713206 53.79770953270373,236.83055049050594 53.54989653973076,236.6260064332047 53.39124377703377,236.41097293634414 53.467292208739764,236.174960562006 53.67052508657474,235.94943762675834 53.90653746083471,235.7239146912762 54.099280899891845,235.49314703644424 54.24613304379768,235.23615578439413 54.351027432435814,234.99489869070615 54.45461064113881,234.75364159725262 54.55557149004964,234.5071397840585 54.66177705854478,234.26063797109884 54.8938558931556,234.05609391309426 55.04857511628158,233.83057097784658 55.05906455513758,233.6732293948503 55.06299809470858,233.62078220103922 54.8794329147286,233.48966421533925 54.82567454066976,233.3113437545528 54.84796459823876,233.10679969709528 54.78371678532392,232.91274507794668 54.65915469875263,232.67148798425873 54.46378890005965,232.4354756099206 54.189752309946684,232.20470795508862 53.87375796440972,232.00016389755294 53.55251889952291,231.78513040123943 53.239146913621795,231.62778881824315 52.92053020844898,231.543873307317 52.63600417948002,231.5386285877327 52.41834832313989,231.73268320664684 52.376390567715895,231.9686955807505 52.2767408985839,232.1942185162326 51.99614840926409,232.27288930788708 51.82962856734696,232.4879228045132 51.52412366066599,232.5665935956206 51.177972178574336,232.5141464014969 50.848866034389225,232.45120976859536 50.496158652778114,232.36729425766922 50.163118969100154,232.2361762719692 49.878592940131185,232.06310053053264 49.7369855155752,231.84806703390652 49.7251848968622,231.596320501597 49.714695458006204,231.3550634079872 49.65044764501321,230.8568150624054 49.67273770258221,230.6103132489768 49.695027760151206,230.37430087487314 49.68060478180236,230.12779906191346 49.65569236444121,229.92325500414336 49.50621786089953,229.7711581406532 49.3305197599834,229.66626375224953 49.289873184338255,229.48269857226956 49.343631558475245,229.28864395312095 49.41312409097439,229.01591854309945 49.52981909816923,228.73794841325918 49.75665321350835,228.4757124418592 49.98217614883417,228.20298703160324 50.25227919937614,227.94599577978758 50.488291573714264,227.76767531931375 50.572207084484106,227.57362070039963 50.582696523340104,227.36907664239504 50.564340005420256,227.11733010985105 50.53156050899526,226.85509413845108 50.490913933350114,226.5718792895736 50.44108909878412,226.27817500184008 50.39257544407513,225.9844707135595 50.37684128579112,225.7065005839537 50.351928868586285,225.41804101557003 50.321771731797135,225.13482616614544 50.24703447994814,224.84636659799625 50.155251890036304,224.6575566983538 49.99922148697517,224.53168343200366 49.71862899765536,224.4425232020403 49.38427813412039,224.4005654463037 49.05517198993528,224.39532072695383 48.72213230625732,224.37434184900738 48.383847903151356,224.37958656882614 48.04556350012355,224.4425232020403 47.844952982002575,224.52643871265383 47.622052406234445,224.7100038924775 47.26278912541649,225.07713425275006 46.87730224753669,225.3655938209774 46.42887873644274,225.428530454426 46.05650365697663,225.1505603243513 45.88605027556665,224.86734547547377 45.8834279159308,224.53168343200366 45.84540370007781,224.16455307220002 45.71428571437782,223.82889102849543 45.61201368545368,223.4984737048441 45.31437585799287,223.14707750293368 45.02722746923175,222.79043658175158 44.848907008679774,222.4390403803882 44.758435598624935,222.09288889829656 44.675831267633946,221.73624797711446 44.67320890784179,221.3796070558542 44.763680318052934,221.02296613490654 44.970846735458906,220.67156993307427 45.178013152864885,220.3201737313983 45.4769621601827,219.97926696842205 45.77328880794281,219.6383602059147 46.002745282917786,219.31318760130057 46.02372416055164,218.97228083824618 45.96078752741564,218.5999057591708 45.78771178629166,218.2642437157007 45.4926963184667,217.91809223337458 45.0744299441619,217.67159042041493 44.62731761292495,217.36739669327835 44.210362418399,217.0946712830224 43.955993526062876,216.77998811749873 43.869455655500886,216.46530495181875 43.75800536773405,216.11390874990835 43.3541619717781,215.83593862061514 42.886070762751,215.61041568505487 42.813955870616006,215.5684579293964 42.4520702301622,215.3481797136549 42.058716273062245,215.04923070641524 41.70732007130814,214.75028169909743 41.30085431563818,214.43559853310484 40.80522832969224,214.22056503647872 40.27682284739946,214.02126569852734 39.765462703091366,213.80623220190122 39.259347278289425,213.54399623050125 38.77421073119948,213.23455778432745 38.315297781249534,212.92511933791917 38.16451209785085,212.5842125750992 38.13959968041155,212.2065927762051 38.026838212787716,211.82897297754545 37.873430169518734,211.45135317880766 37.55874700376062,211.19960664634183 37.08409989552668,211.22058552381938 36.74581549242072,211.14715945174922 36.44686648502475,210.90590235806127 36.45473356416675,210.59121919261574 36.705168916931875,210.2345782713555 37.011985003391686,209.888426789342 37.20341726251366,209.51080699013528 37.12736883080767,209.15416606895315 36.82186392412671,208.8394829037421 36.487513060591745,208.78179098979965 35.98401999558196,208.87619593934735 35.514617606776014,209.06500583898978 34.978345045263076,209.12269775261962 34.443383663607136,209.0964741553233 33.9176005409502,209.00206920577563 33.397062137643104,208.91815369484948 32.91979266985147,208.8027698675898 32.892257892776314,208.503820860272 33.006330540335306,208.13144578064959 33.182028641251435,207.75907070126163 32.88176845384216,207.39194034122352 32.49365921632651,207.09823605349 32.42416668374922,207.03005470069155 32.37040830961222,206.6786584993282 32.55003995002121,206.30103870035595 32.43858966225437,205.9339083405523 32.19471020877425,205.5720227000985 31.88920530209328,205.27831841205236 31.49847370478548,205.11573210954992 31.19952469731136,204.9321669294918 31.15494458225152,204.85349613814995 31.06185081240453,204.82727254085367 30.81010427986056,204.75909118860227 30.71963286964942,204.65944151923583 30.62260556023143,204.57028128927246 30.60424904223343,204.4339185837537 30.60424904223343,204.17168261235375 30.62391674016658,203.83602056935254 30.581958984664436,203.53707156180027 30.495421114102445,203.20665423768 30.516399991814442,202.8709921942099 30.631783819230428,202.53008543170253 30.863862653997554,202.25736002144657 31.23623773338551,202.25736002144657 31.621724611265314,202.51435127326224 32.04916924472541,202.57204318689207 32.12128413686041,202.25736002144657 31.82233512938629,201.91645325839215 31.476183647216484,201.5807912151565 31.29786318658635,201.23463973314298 31.086763229609375,200.8884882508169 30.64096207830758,200.67869947346244 30.155825531139484,200.44268709912433 29.68642314233354,200.16996168910282 29.404519473078572,199.8238102067767 29.26160086866559,199.46192456601028 29.130482882965605,199.08954948685678 28.984941918916775,198.72766384640298 28.81711089714264,198.35528876678057 28.65714695466681,197.97766896812092 28.422445760263837,197.6052938884985 27.972711069234737,197.34305791709855 27.52822109771179,197.070332507077 27.11126590326399,196.73991518319121 26.740202003733035,196.37278482330942 26.464854233684914,196.01614390189283 26.286533773211087,195.77488680851746 26.281289053783087,195.69621601686302 26.26162135584994,195.47069308138092 26.24850955735809,195.24517014589878 26.226219499789096,195.02489193015725 26.217041240711943,194.815103152881 26.1816393846511,194.6053143760736 26.16197168671795,194.3745467210072 26.15148224786195,194.15951322438104 26.101657413452262,193.9392350087177 26.06625555715696,193.8972772529811 25.41328798852734,193.1630165333738 24.987154535002393,192.71197066264398 24.561021081477442,192.49693716601786 23.618282764138247,192.15078568369174 22.609985454183516,191.9095285900038 22.438220892838384,191.67876093493734 22.24416627408056,191.60009014382996 22.11960418758742,191.53190879134414 21.820655180191455,191.49519575519182 21.592509885151635,191.47946159675152 21.327651553959512,191.41652496353737 21.064104402780696,191.32212001375524 20.834647927805722,191.25918338101002 20.552744258472604,191.25918338101002 20.289197107215635,191.248693942154 20.024338776101665,191.11233123694788 19.707033250707703,190.89205302073745 19.49593329380888,190.81338222963007 19.178627768414916,190.7871586320993 18.70398066018097,190.7976480709553 18.457478847065,190.77142447389346 18.36831861671086,190.77666919347774 18.35127327856986,190.66653008525532 18.26211304829387,190.32562332274796 18.174263997953034,190.2469525310935 17.73370756592293,190.11583454539354 17.48720575280696,190.052897912492 17.222347421771143,190.00045071789938 16.958800270436022,190.06338735134798 16.254696687227106,190.26268668929936 15.920345823692143,190.4095388336741 15.63844215451533,190.3833152363778 15.092991334003393,190.45149658886365 14.794042326529276,190.5144332220778 14.441334945074468,190.73995615732545 14.106984081461356,190.85533998505406 14.003400872758368,190.87107414302545 13.846059289996537,190.76093503503745 12.763024728036513,189.69625699154435 11.90944664112961,188.80989940797798 11.908135461428916,188.44276904817434 11.518715043821809,187.90256294669965 10.301940136604104,187.28368605435202 8.383684005735175,186.20851857145584 8.168650509109048,186.019708672126 7.992952408271068,185.7732068594008 7.817254307433089,185.67880190961867 7.6415562065951095,185.6001311179642 7.499948782039126,185.3746081824821 7.252135789144307,185.1018827722261 7.1105283645883235,184.79768904555846 7.1105283645883235,184.4410481246108 7.2154227530701585,184.17881215321083 7.497326422403278,183.76972403774872 7.585175472822268,183.58615885745613 7.636311487167109,183.1141341092488 7.810698408304394,182.04945606520863 7.827743746289087,181.95505111542647 7.898547458567079,181.8606461658788 8.108336235687055,181.7033045828825 8.23289832210204,181.50924996420284 8.373194566879176,181.2155456760004 8.442687099300167,180.99002274075275 8.425641761081017,180.5284874314014 8.405974063304173,180.00401548860148 8.33385917116918,179.77849255311935 8.264366638670037,179.54248017870307 8.1752064084722,179.1333920634754 8.104402696194207,178.86066665321945 8.15684989039605,178.4882915738315 8.190940566678044,178.22605560243153 8.173895228537047,177.84319108395312 7.9955747680632205,177.34494273844948 7.678269242669257,176.98830181750182 7.360963717275294,176.6106820182951 6.955809141384189,176.34844604689513 6.461494335295247,175.94984737052349 6.09043043576429,175.67712196050198 5.773124910370327,175.3257257583571 5.5974268096105,175.11593698154974 5.543668435395354,174.82747741285345 5.470242363403362,173.72084161362375 5.522689557683356,173.18588023220227 5.522689557683356,172.81350515257986 5.592182090182501,172.62993997275618 6.293663313599266,171.38694146832032 6.593923500852231,170.8362459282241 7.063325889658176,170.18065599972417 6.3461105079574125,168.21388621422437 5.680031140679643,166.77158837152456 5.4282846080575196,166.1055090044031 4.460633873591632,165.71215504730313 4.016143901990532,165.4341849172284 3.569031570753584,165.1509700683509 3.065538505665643,164.42719878705253 2.813791973121672,163.7820982977212 3.0052242322436498,163.65098031202123 3.180922333081629,163.45168097375725 3.2858167217197694,163.16322140506097 3.373665772138759,162.848538239381 3.4261129663406007,162.63874946226105 3.390711110279757,162.35028989387737 3.1953453115086274,161.86253098699527 3.070783225093642,161.45344287145502 2.99997951281565,161.08631251165136 3.08782856323464,160.67722439611111 3.08651738337764,160.42023314429545 2.9278646206806584,160.08981582009702 2.468951670730712,159.30310790589712 2.256540533896737,159.067095531559 2.07953125327991,158.9622011431553 1.7268238716687987,158.2908770562151 1.3072463174288476,157.46221138682563 1.0056749503188827,157.026899674458 0.900780561758895,156.68599291148172 0.5992091948052349,156.18249984615935 0.4051545758129528,155.87830611980428 0.12325090663613804,155.56362295381172 0.017045338140998012,155.42201552925573 0,155.31712114085204 0.034090676281996024,155.04964044986778 0.015734158283998167,154.88705414783425 1.8841654545087803,154.16852758588573 2.7246317428456823,153.81188666470362 3.0222695703846476,153.6335662042298 3.474626621049595,153.24545696694858 4.37016246338049,152.1440658867561 5.1450697588674,151.21575054823467 5.93571121271646,150.29792464833477 6.238593759605273,149.9622626046302 6.321198090596263,149.64233471983485 6.43527073815525,149.1860441292863 6.452316076296248,148.88185040269678 6.538853946858238,148.22626047419686 6.610968838993229,147.48675503500527 6.815512896763358,145.61439019905316 6.94531970252819,145.07418409781295 7.044969371738331,144.94306611211294 7.579930753394269,144.49202024138316 8.164716969616201,144.14586875905704 10.11706377661082,143.01825408234978 10.46321525885878,142.8189547436169 10.422568683291784,142.64587900272736 10.245559402674958,142.35217471491572 10.033148265840982,141.880149966005 9.997746409623835,141.68609534755979 10.050193603981981,141.23504947636107 10.208846366678962,140.9728135049611 10.467148798429779,140.60568314515746 10.872303374242732,140.3277130153172 11.294503288274836,139.918624900324 11.645899490028947,139.63016533162772 11.874044785068769,139.19485361926007 12.138903116104585,138.9431070867161 12.454897461641547,138.59695560415554 12.54012415242469,138.41863514391616 12.559791850201536,138.37667738825772 12.559791850201536,137.94136567565562 12.52307881420554,137.3067546251803 12.574214828706687,136.93962426506403 12.54012415242469,136.72983548778777 12.062854684398594,136.3994181641364 11.357439921332675,135.96935117088415 10.89852697138273,135.46585810556175 10.598266784129764,135.1144619041984 10.47501587764993,134.95712032143658 10.318985474588796,134.78928929958428 10.016102927699984,134.5427874866246 9.54670053889404,134.2962856731179 9.133678883860934,134.00782610465606 8.719346049048983,133.59873798942843 8.167339329252048,133.16867099641064 8.110958595479207,133.00083997455835 8.08211263862521,132.32427116858088 8.164716969616201,131.93091721148093 8.109647415622208,131.6634365202622 8.108336235687055,131.458892462961 7.944438753562074,131.04980434749888 7.969351170845071,130.63547151260877 8.051955501836062,130.3470119442251 8.244698940815038,130.12148900866484 8.575116264857153,129.83302944028117 8.850464034748969,129.77009280683257 9.09696584786494,129.60750650479903 9.538833459673889,129.33478109446492 9.78664645272501,129.17219479196248 10.081661920549976,128.92569297923728 10.149843273035817,128.75261723780068 10.259982381023804,128.38024215872534 10.286205978163801,127.99737764048137 10.328163733665948,127.47290569768144 10.367499129454096,127.17395669012917 10.381922107802941,127.02185982695164 10.187867488888813,126.78584745230091 10.014791747764832,126.66521890545692 10.017414107556984,126.60752699206154 10.089528999613824,125.55333838695552 9.263485689782073,123.13552273072595 8.699678351272139,121.2946262111074 8.824240437608971,120.59183380783364 9.082542869516093,120.4397369446561 9.666017905802873,120.28764008116597 9.957099834134992,120.1932351316183 10.451414640145781,120.1198090596263 10.616623302127762,120.00442523181955 10.850013316673735,119.75792341885989 10.98768720165872,119.52191104475622 11.097826309724859,119.32785642560764 11.070291532727861,119.04988629600182 11.070291532727861,118.78240560533015 11.109626928437857,118.51492491434588 11.261723791849839,118.2579336625302 11.357439921332675,118.07436848247208 11.579029317243803,117.9484952163564 12.100878900251589,117.76493003606382 12.403761447296706,117.5341623814663 12.69222101575852,117.07787179123035 12.844317879170502,116.77892278391253 13.022638339878787,116.57437872590795 13.366167462334595,116.38032410746274 13.642826412083409,116.181024768808 14.027002110262517,115.94501239493879 14.399377189728625,115.64606338738652 15.706623507001169,114.56565118537495 15.988527176334289,114.32963881080236 17.117453033133003,113.40656819163078 17.887115609191916,112.74573354354655 18.70004712053182,112.16881440670107 19.071111020062776,111.83839708250265 19.427751941166736,111.439798406131 19.482821495160728,111.31392513970272 19.634918358572712,111.17231771514673 20.074163610745813,110.6635799307871 20.32328778349763,110.52721722550281 20.804490791016573,110.36987564305359 21.410255884950505,110.196799901617 22.017332158741432,109.96078752751333 22.360861281275394,109.81393538337305 22.849931368014488,109.58841244789092 23.125279137906304,109.3628895124088 23.951322447816207,109.09540882165898 24.18471246236218,108.98002499416484 25.095982463055226,108.99051443302083 26.51467906825091,109.00624859146114 27.12044416218484,108.96953555530884 27.382680133584806,108.822683411403 27.429882608436802,108.77548093686362 30.290877056488622,108.73352318143962 32.925037389201314,108.61813935386733 36.903157075260694,107.51674827398746 39.336706889852415,106.94507385641369 40.80129479019939,106.88213722296508 42.858535985754,107.17059679166135 45.14523365643989,107.44856692150162 46.98744135552467,108.10940156927325 47.99704984541456,108.85415172828361 50.90393558838322,111.25098850680118 51.61852861044813,112.00622810412048 51.927967056621945,112.51496588902718 51.914855258130096,112.88734096810254 51.80864968963496,113.23873717001295 51.64737456730213,113.71600663803905 51.0573436316522,114.56565118537495 49.902194177557185,115.43627461026654 47.41750834862062,117.32437360419001 46.63735633370572,117.86457970543026 47.43193132696947,118.31038085681021 51.0507877323672,120.31386367846228 51.88469812134095,120.71770707441823 53.96947409404886,121.43098891662615 55.865440167348794,122.12329188096577 56.37286677192958,122.22818626968206 57.41132121867346,122.45370920492972 58.76970355044715,123.11454385270135 61.66216631498881,124.43621314855719 62.05158673251776,124.40474483198919 64.87193460492443,122.14427075875591 68.51045870809901,119.31736698698609 71.95099465286661,116.75794390620054 72.56856036551353,116.22822724381629 73.53358874042173,113.45377066663907 74.01610292764137,112.69853106877271 74.79494376277744,112.05343057936324 76.47587633937309,111.77546044960113 76.82858372090604,111.67056606111929 77.03312777859801,111.4450431254027 77.11573210966716,111.22476490973933 77.223248857863,110.94155006062736 77.22849357729099,110.67406936940864 77.17866874272501,110.47477003145727 77.05804019588102,110.27547069295883 76.92954456989503,110.13910798798716 76.65813033957421,109.98701112480964 76.2464198643981,109.88211673585889 75.4846243674812,109.88736145520873 74.84739095697927,109.98701112480964 74.49206121573232,110.07617135477301 74.21802462561935,110.08666079386347 73.99250169037168,110.02372416072748 73.56899059640442,109.8349142613195 73.29888754586246,109.65659380061122 72.80719509948752,109.29470816015741 72.60920694115869,109.09016410238728 72.51349081151955,108.82792813098732 72.47940013523755,108.68107598684702 72.37712810639157,108.4975108071015 72.23158714234273,108.38737169911352 72.11620331484859,108.30870090745907 71.87232386152478,108.28772202974707 71.69924812032264,108.28772202974707 71.61795496918865,108.1198910083637 71.41603327121068,107.45905636035762 73.91514207873054,106.8034664318577 77.61135809553495,105.49753129436401 80.23240662967764,104.68984450221764 83.10913523601346,104.1391489621214 85.39452172668604,103.55698510569162 87.83987216006891,102.83321382494032 91.3748130545405,101.39091598224049 93.33896048024812,100.59371862918458 95.11167564699007,99.4923275489921 96.71131507245173,98.12870049786856 98.40404826783853,96.41367724491276 99.4910163692914,95.11298682676892 100.26854602449231,93.69166786185923 100.96740488827322,91.99237876726558 100.96478252855923,91.60951424902163 101.02116326241023,91.46790682446564 101.14441416904636,91.15322365878568 101.1889942841062,90.77035914054173 101.2453750179572,90.31406854999317 101.41451721951017,89.81057548490523 101.52727868736847,89.48540288060371 101.52727868736847,89.1654749952613 101.50367744986431,89.05533588758593 101.2545532769562,88.85079182981579 100.96216016884523,88.53086394478598 100.55569441317527,88.14275470672327 100.4193317080473,87.9591895272122 100.30657024034531,87.80709266372207 100.21741001006932,87.67072995851593 100.14791747764832,87.55534613125624 100.10333736251033,87.30359959871228 100.05744606759349,87.06758722406154 100.10333736251033,86.64800967021236 100.0338448301675,86.29136874903024 99.78603183711637,86.02388805781152 99.44643625415341,85.62004466209002 99.1763332036896,85.16375407177591 98.90491897336878,84.75991067581997 98.86033885815263,84.487185265564 98.88131773586463,84.28788592761263 98.97178914591946,84.0518735529619 98.97178914591946,83.67949847388655 98.85902767821747,83.29138923582383 98.85247177893247,83.23369732219399 97.59898383571877,82.88230112083065 97.35641556209565,82.55188379686668 97.59767265586177,82.10608264548674 98.36340169234968,81.63930261631663 99.82930077239736,80.97846796846686 100.79695150686325,80.53266681708692 100.8428428019364,80.1760258959048 100.47046772247029,80.05015262947651 99.40185613909357,79.10610313251478 100.04171190923134,78.8543565999708 100.62125340602528,78.44002376492439 101.09590051425921,77.6847841676051 101.15621478768121,77.41730347662082 101.24668619789234,76.84562905881258 101.2453750179572,75.8176640509247 101.31224519074235,75.63409887141364 101.49318801100831,75.21452131701739 101.51547806857732,74.82641207942358 101.51547806857732,74.48550531621285 101.62692835634415,74.30194013662364 101.76197988169329,74.03445944571752 101.87474134931712,73.7145315606877 102.05568416966125,73.3578906395056 102.10026428479925,73.12187826532377 102.10026428479925,72.79670566078782 102.19073569485408,72.49251193365124 102.25891704749623,72.28796787611557 102.41494745040106,72.06768966021775 102.43854868790521,71.83167728611409 102.59720145060218,71.61664378948795 102.911884616204,71.29671590445814 103.20558890417196,71.07643768801326 103.3183503719521,70.85615947227174 103.56616336484693,70.63588125613946 103.83757759532405,70.43133719836933 104.08407940851816,70.21630370197767 104.28731228619684,69.92784413351585 104.42367499132483,69.77574726986941 104.40007375397698,69.38763803258821 104.35549363883898,69.0677101475584 104.196840876142,68.91561328406827 104.08407940851816,68.70057978720769 104.08276822858302,68.52750404631816 104.12865952349986,68.20757616128836 104.11161418535886,67.97680850622193 104.11161418535886,67.83520108166594 104.01065333636987,67.54674151296966 103.89658068888905,67.33170801657799 103.87429063124189,66.92786462062205 103.8401999549599,66.55548954146855 103.8401999549599,65.936612648652 103.80479809889906,65.32298047588868 103.92936018531404,65.03976562646412 104.187662617143,64.66739054738876 104.47087746625498,64.43137817297249 104.65050910666395,64.2897707484165 104.85374198449892,64.20061051821867 104.97830407091391,64.19536579886882 105.19202638760488,64.14291860458883 105.48573067549471,63.98557702159254 105.74534428718067,63.72858576946427 106.2973510069776,63.261805740606775 106.63563541008357,63.020548646918805 107.00932166932853,62.82124930873298 107.5849296266296,62.585236934316704 107.91272459087958,62.459363667966564 108.32312388612053,62.38593759589642 108.72958964171232,62.370203437925035 109.22652680751527,62.29153264611428 109.49794103799239,62.233840732718896 109.75755464960021,62.13943578293676 109.90309561372719,61.81426317832264 110.02765770022033,61.48384585443683 110.09583905270617,61.24783348033316 110.11681793041816,60.91217143686305 109.91358505258319,60.8439900840646 109.8008235848812,60.59224355183324 109.84540370001919,60.15168711995944 110.07092663550132,59.511831349352754 110.34102968596514,59.076519637063264 110.52197250623111,58.74085759359315 110.61244391644226,58.32128003919689 110.74749544171324,57.8964577657634 110.88254696690608,57.62897707477913 111.13035995995719,57.22513367882318 111.22083137001204,57.17268648446503 111.44635430541601,57.07303681564565 111.71776853581497,56.97338714627921 111.96951506835894,56.89996107420906 114.9668722216169,55.45766323150923 115.44938640883655,55.46815267036523 115.71948945945665,55.39997131787939 115.99090368977748,55.30032164906001 116.35278933038758,54.980393763717586 116.51013091314941,54.84403105874591 116.6228923808514,54.79158386415331 117.0739382517375,54.676200036893626 117.79770953272326,54.50836901504134 118.02323246812723,54.38774046819736 118.22515416610521,54.13599393565338 118.42838704394019,53.84753436742603 118.49525721672534,53.5643195180796 118.54114851164218,53.1919444389261 118.63030874191817,52.97166622279382 119.08266579258311,52.667472496126166 119.33047878563424,52.431460121553584 119.60189301595506,52.195447747215454 119.91788736149202,52.14824527244161 120.27846182216697,52.04859560330963 120.82129028296491,51.91223289833795 121.06910327601604,51.79160435149396 121.56604044181898,51.66048636579398 121.88203478735595,51.55559197739029 122.36061543508274,51.27237712796572 122.92966749302067,50.94195980407991 127.55813238830828,49.11679744337058 128.13111798573905,48.901763946509995 128.15734158287907,48.539878306290646 128.13505152531005,47.999672204815944 128.13505152531005,47.58009465065415 128.04458011525523,47.459466103810165 127.70498453221411,47.20771957126619 127.59222306459027,47.03988854996097 127.45586035954044,46.803876175310236 127.34309889168215,46.48394829028043 127.13986601384718,45.844092520220805 126.9589231935812,45.18325787237104 126.68750896318222,44.071377353635164 126.66390772575623,43.751449468527206 126.62063879047524,43.46823461918078 126.55114625805425,43.3161377557688 126.25875315002143,42.980475712298684 125.87326627198533,42.524185122219045 125.49040175374137,41.98397902129141 124.85710188281044,41.32838909279149 124.29198336452166,40.77244883311094 123.9300977239897,40.41580791192883 123.86191637134756,40.41580791192883 123.65999467336958,40.23224273241777 123.38726926311361,39.88084653027289 123.27450779548978,39.608121120016925 123.1394562702188,39.25148019906927 122.95851344995282,38.915818155599155 122.89164327716767,38.61162442900965 122.6870992194757,38.07141832776941 122.61891786698986,37.767224600867294 122.6648091619067,37.26373153609196 122.70807809726584,36.991006125835995 122.70807809726584,36.58716272956743 122.66349798212785,36.35115035522931 122.52713527699987,35.87912560702197 122.03282047083277,35.26549343371158 120.20241339046099,32.78998586361772 119.98606871413416,32.19208784898209 118.93581364859914,29.632664768196545 118.74438138947716,26.071500276819418 118.63555346134616,24.55053164223068 118.94499190759814,23.35998033207482 119.993935793198,21.713138432073773 121.01403372202205,19.914199667957373 121.18448710335387,19.117002314901466 121.26446907470901,18.749871955097813 121.53457212517283,17.837290774469615 121.55817336259882,17.333797709694284 121.57915224031082,17.02960398255771 121.57915224031082,16.725410255968203 121.55686218274182,16.489397881864534 121.55686218274182,16.190448874312263 121.60144229787983,16.033107291550436 121.69060252823397,15.629263895594482 121.62373235544882,15.30409129074591 121.57784106045382,15.183462743901925 121.57784106045382,14.931716211357955 121.66962365052197,14.71143799569459 121.84925529093094,14.596054168122299 121.98430681612378,14.391510110664779 122.16524963638976,14.176476614038652 122.34488127679873,14.040113908519906 122.42355206829689,13.693962426428252 122.6176066870547,13.56808916031257 122.6543197230507,13.536620843431965 122.75134703254685,13.457950052324584 123.01620536358266,13.200958800430765 123.23648357963678,12.938722829030796 123.43053819839461,12.660752699268675 123.50134191067261,12.550613591046233 123.65343877424088,12.340824814238866 123.82651451528672,12.05760996481429 123.84224867349256,12.020896929130902 123.85798283177655,11.968449734850909 123.85011575279087,11.638032410965101 123.77144496121457,11.333838683828526 123.75177726351588,10.998176640358412 123.74259900436057,10.662514597122756 123.65868349359073,10.300628956668952 123.63770461580059,10.132797935051123 123.62852635680159,9.797135891346553 123.49478601146575,9.4404949703989 123.4842965725316,9.340845301032454 123.4856077523886,9.015672696965407 123.50527545032175,8.690500092351291 123.44496117689975,8.360082768465482 123.35317858683162,8.029665444032606 123.27057425591877,7.699248120146797 123.23648357963678,7.368830796495446 123.22992768027363,7.0541476305028725 123.22599414078078,6.723730306851521 123.21288234213263,6.38806826314695 123.19321464435579,6.052406219676837 123.18403638527863,5.884575198059009 123.33351088897662,5.527934276876898 123.4751183135326,5.2132511116658495 123.5078978099576,4.9457704204471185 123.5236319682416,4.903812665179428 123.67048411222558,4.589129499499465 123.80946917706757,4.274446333975806 123.9209194649907,3.9754973264235365 124.00090143618954,3.64508000230327 124.09923992546453,3.3146626786519184 124.12415234274752,2.9790006349473477 124.12152998311169,2.8688615269593605 124.01139087504554,2.5751572392258524 123.9143635657057,2.2657187930520406 123.83307041457171,2.0349511379856104 123.76357788207257,1.8461412384213276 123.74784372378858,1.8094282025034842 123.59836922016873,1.5157239147699757 123.51052016974975,1.3269140154401502 123.48298539275275,1.2587326628761581 123.4580729753916,1.2272643460737045 123.28499723426762,0.9440494971961948 123.11323267300065,0.6608346477716182 122.91786687430766,0.3251726046141145 122.91393333481483,0.1835651799799786 122.86935321959868,0.052447194279993885 122.84575198217267,0 122.91131097502267,0.020978877477540327 123.10274323414465,0.08916023043229443 123.72293130658373,0.4720247486762498 124.80072114911576,1.1223699576700215 126.23515191251728,1.851385958240089 128.44317879178317,2.9317981601735057 129.935301469049,3.5821433693235822 131.09307328277987,4.006965643069686 131.18616705262687,4.085636434177067 131.25828194484,4.1013705928518265 131.64245764278465,4.201020261671205 132.04367867910474,4.33213824737119 132.4042531397797,4.452766794215176 132.8107188953715,4.578640060643466 133.21587347118447,4.699268607721909 133.6092274282844,4.814652434747134 133.7796808096944,4.867099629339737 133.8150826659897,4.89332322632343 133.85704042133554,4.909057384529275 133.8989981766814,4.93003626247573 134.01831554366836,4.9719940177434205Z"/></svg>