<svg xmlns="http://www.w3.org/2000/svg" width="256" height="256"><path d="M159.25505421565893,7.048523565826296 161.18547850682904,7.353431607536659 163.91381150507513,7.179198440920889 163.9603396802392,7.175238596339065 164.09893424479247,7.381150520553524 164.31177589734966,7.686058562440905 164.4652198794683,7.804853903554001 164.62658355104563,7.899890176409073 164.85823446598604,7.96324769131142 165.1760120031479,8.01076582776846 166.53720861871656,8.125601324063707 166.90052436992653,8.137480858281227 167.04010889559575,8.169159615879916 167.14405481896645,8.212717907755133 167.33511732567453,8.379031384912224 167.64893501813654,8.727497718438796 167.82712802962916,8.897771040767774 167.9350337977587,8.96508840048797 168.17559436321474,9.048245139361548 168.36368698651597,9.09576327575958 168.55078964864222,9.13536172246291 168.7517517670999,9.159120790838946 168.87153706926995,9.163080635479774 169.25762192744497,9.103682965218258 169.3873068414236,9.099723120223391 169.4912527648533,9.111602654617931 169.5922288045811,9.159120790838946 169.7615121654991,9.289795665992543 169.9595044004909,9.479868211584677 170.1050286932689,9.598663552697774 170.30005104467682,9.697659670193676 170.49507339614374,9.764977029854865 170.7257343499092,9.800615632094383 171.44246624057953,9.88377237096796 171.90774799286928,9.939210196824673 172.50568454254454,10.038206314320576 172.77198409854952,10.050085848302071 173.5649429996917,10.058005537701744 174.7024083897196,10.065925227160422 175.4785379508875,10.054045692942902 175.94876950899302,9.994648022681384 177.00010827679952,9.903571594585154 177.22383950239927,9.887732215726803 177.49310894198814,9.970888954246343 177.78910733330088,10.113443363381437 178.16133273508547,10.351034045430609 178.67116274013037,10.69950037895718 178.98300051024245,11.012328110244235 179.27701897920528,11.337035375748808 179.57598725410193,11.637983572877348 179.7452706150199,11.832015963228322 179.86010611131516,12.026048353638306 180.12343578379526,12.572506921979663 180.20362263896695,12.762579467571797 180.29568902823814,12.869495274467372 180.37290599988495,12.940772479123428 180.55604881725236,13.047688286196022 180.8639267426646,13.2021222291946 181.3767266312934,13.443672756179634 181.54304010874552,13.550588563075209 181.64104626500745,13.629785457012925 181.7321226931037,13.776299710729843 181.86081764590736,14.081207752617223 181.95783384099434,14.362356726305588 182.0043620162174,14.516790669658203 182.03703073499105,14.671224613010818 182.086528793739,14.80189948810541 182.18255502776904,14.976132654721178 182.33896889341258,15.20184380272985 182.49637272023105,15.356277746082466 182.7181240234219,15.50675184461723 182.9299757149221,15.677025166592172 183.17449612501898,15.898776469960012 183.28933162131423,16.009652121496416 183.33783971894624,16.461074417159722 183.35466905892054,16.762022614642298 183.25567294142462,17.221364599882293 182.8408792090578,18.761744187941524 182.84681897616656,18.860740305437425 182.92007610305453,20.638710575781854 182.80722052910917,20.610991662764988 182.7369332856871,20.670389333380545 182.6399170906001,20.805024052938947 182.60328852712664,20.87630125777202 182.55676035184456,21.070333648004983 182.54092097310422,21.181209299718407 182.4785534190228,21.521755943845307 182.46073411787353,21.616792216346344 182.42311559322508,21.866262432731048 182.39737660273516,22.080094046581205 182.5478507012699,23.272007300936846 182.36371792278655,23.794706801256204 182.111277823113,24.265928320713723 181.75489180012775,24.816346734049947 181.31633899967989,25.44992188584671 180.75008120754433,26.103296261496684 180.22738170722496,26.792309239150157 179.7551702267105,27.421924546365094 179.52549923417902,27.786230258927034 178.55038747678537,29.49292332437938 177.6990208663796,30.981824931812792 176.1507215886847,35.86431344635668 175.75968692463488,39.372735850529494 175.30331482291976,40.20034339273624 175.19936889960806,40.39041593832837 175.128091694952,41.63380717413592 175.39538121219093,42.77424244762971 175.68741975880386,43.8236012932633 176.48730838817076,45.49861560123497 176.82983495470657,45.69264799146793 177.20503024001604,45.8431220900027 177.54359696185202,45.93023867369413 177.82672585794933,46.06091354843468 178.2019211432588,46.278705007220694 178.42961221349938,46.409379882315285 178.55533728266016,46.496496465652676 178.59196584613363,46.63509102996992 178.58206623444306,46.72616745806615 178.62760444849118,46.888521090818436 178.85529551867273,47.14591099624878 179.06615724893902,47.36766229967563 179.19386224050874,47.51417655362857 179.26117960040594,47.688409720185334 179.35027610615225,47.9022413341535 179.45026218482312,48.1675509288655 179.56113783641854,48.333864406199616 179.7551702267105,48.47245897075288 180.25411065888986,48.599174001088635 180.89659546143827,48.76944732324059 181.55194975932014,48.88824266435369 182.33698897100365,48.856563906695996 183.10321892053994,48.67045120574469 184.07932063899054,48.55561570962646 184.56440161466145,48.63877244832302 184.83268109307537,48.89220250911253 185.06532196924974,48.98723878184959 185.2831134276817,48.97139940305025 185.88104997735698,49.06247583108747 186.29287382613992,49.18919086160024 186.5908521398026,49.33174527079434 186.8393323947763,49.41094216467305 187.0759331155325,49.49013905855176 186.9581277357124,49.604974554847004 186.798743986603,49.82672585827385 186.74429612198026,49.96136057800928 186.64431004325039,50.20687094922209 186.56907299395348,50.44842147603011 186.43938808009287,50.68601215790227 186.3522714966965,50.781048430993366 186.23248619452644,50.868165014271746 186.08894182415736,50.947361908150455 186.0325140371257,50.96716113176765 185.97608625015303,50.986960355384845 185.7305758788222,51.12951476451994 185.54347321669593,51.32750699951174 185.34548098170413,51.50570001070933 185.3197419911552,51.54529845794372 185.24846478655815,51.79476867397439 185.15441847493705,52.04423889000506 184.95147643407043,52.24223112499686 184.92969728828035,52.26203034843704 184.91286794830606,52.507540720062906 184.97721542461937,52.903525190046516 185.09304088208958,53.509381429003426 184.9356370552711,54.15087627025887 184.7950625684269,55.12103822195474 184.92078763770573,55.77045275243283 185.02968336689221,56.27335302931202 185.05542235744113,56.649538275855456 185.11778991146355,57.136599173935295 184.99800460929353,57.738495568310384 184.8782193071235,58.22555646639023 184.78417299550236,58.676978762230554 184.69012668394026,59.39767049754172 184.6138996734094,60.02332596035185 184.5871707217445,60.43118996413994 184.60795990641867,60.914291017814975 184.55549196408683,61.08456433996693 184.34364027270462,61.46074958633335 183.96745502616116,61.96364986303552 183.7328342277549,62.22103976864288 183.6110690031759,62.35567448855532 183.35565902003648,62.636823462066666 183.03788148287464,63.23476001185993 182.93789540426278,63.89605407649654 182.8676081608407,64.59694658854455 182.85968847144102,64.81869789179437 182.89037726780575,65.16716422514394 183.03293167705885,65.58294791892176 183.2586428249495,66.08980804038276 183.52791226453837,66.59270831732096 183.74372380062042,67.02829123412592 184.59212052761933,67.02433138972111 187.57586350888684,66.85801791197395 187.84117310383485,67.20252440109572 188.4579189157753,67.82422001891098 189.1350523594473,68.58451020139753 189.46371946965172,69.11512939093954 189.95969001818816,69.89521879710229 190.79224736632872,70.72282633930904 191.1525932340138,71.27324475264525 191.5782765393052,71.859301768162 188.99546783377806,74.95590032319781 189.10238364067365,75.06281613009338 189.27661680752544,75.54195733877356 189.5191572953314,76.10821513108614 189.5409364412395,76.15969311218402 189.65775185982565,76.642794165446 189.65775185982565,76.93978251793372 189.67656112214988,77.39516465853288 189.78644681257035,78.14753515150174 189.9082120371493,79.03454036397001 189.96760970758785,79.44636421292998 190.01314792163595,79.74335256541768 191.11200482584047,80.53136166080309 191.88318458113355,80.72539405080002 192.79988862920462,80.81647047889625 194.03932002019434,80.38484740667313 194.97681325288053,80.0324212283287 195.84698912566952,79.8344289933369 196.75874336780677,79.72751318644133 196.8329904559287,79.72751318644133 196.93297653465856,79.72751318644133 197.1834367118642,79.72751318644133 197.89719871900965,79.7314730314362 198.92972822455093,79.78691085729291 200.1820291108151,80.00470231548886 201.60658324164015,80.27397175531374 202.63119305766372,80.65015700173916 203.3033766954609,80.81647047889625 205.01501956696507,81.24017386189674 205.7634302152341,81.52924252498477 206.49996132940362,81.83019072223132 206.69300375857964,81.90938761634605 207.36518739637683,82.14301845357738 208.02450153889953,82.32517130971084 209.31244102758023,82.4875249422861 210.32913115414513,82.4954446319218 211.18841745406857,82.34893037796886 212.00117557870993,82.06778140410347 212.7872047515684,81.71535522575905 213.58412349741042,81.37084873722735 214.37411251502772,81.07782022914445 215.2442883878167,81.0263422482826 215.7303593247806,80.99862333526573 216.9965196675532,81.14117774440084 218.06765765879987,81.24017386189674 218.94971306568837,81.22829432785623 219.85156769607605,81.1490974338005 221.0246716884025,81.0501013163046 221.18999520462066,81.03426193750525 222.462095314502,80.75707280863473 223.55996225747256,80.40464663029032 224.80038360975522,79.89778650859328 226.16059026408993,79.31172949301754 227.00502714632998,78.86426704199506 227.0792742344519,78.83258828457339 227.91282154376742,78.49204164038748 228.8968429517357,78.26633049237881 230.05806740990363,77.92182400349307 231.01238998262312,79.36320747429242 231.3202679079764,79.79483054669258 233.02201116784897,81.84603010108967 236.2779934721712,85.11686182321331 236.03050317843145,86.72059892641091 236.02357345026573,86.75623752865043 234.70791504874518,90.13794490248749 234.16937616950847,91.57932837310982 232.96657334193324,94.2957818373154 232.3052792770606,94.909557765731 230.86191588397037,96.01039459240346 229.976890593616,96.94887778632362 229.8264164949632,97.43989852880826 228.4998685205771,100.6988507169504 228.24346857620372,102.15211372190828 228.21970950806372,102.28674844146667 228.45235038412008,102.54017850249221 228.9037726799014,102.88072514644209 229.52843818130054,103.33610728710026 229.831366300838,103.47866169605834 230.34515615064174,103.73209175708388 230.68867267835253,103.64101532881062 231.0321892060633,103.62517595018831 231.36382619979258,103.62121610537045 231.70239292151058,103.6489350182103 232.053829138621,103.73209175708388 232.14490556671726,103.75981066992372 232.4795124438534,103.9657225943152 232.51515104615194,103.9974013519139 232.7002737859873,104.21915265516371 232.9121254773105,104.42110473491437 233.15664588758438,104.59929774628898 233.1873346839491,104.61117728032949 233.31008986970303,104.67057495100404 233.46947361881243,104.71413324264323 233.62885736798083,104.76165137886424 233.81497006887312,104.76561122350508 234.13868737314374,104.75769153428243 234.50002320194477,104.7458120000649 234.56437067837612,104.7458120000649 234.62871815468947,104.75373168946457 234.69009574753693,104.76165137886424 234.7504833792094,104.77749075789961 234.8039412827752,104.79728998128078 235.03064239178184,104.97548299289141 235.05638138227175,105.01112159513094 235.07618060588896,105.04676019737046 235.08905010104542,105.08635864436881 235.09498986809515,105.12595709124916 235.09300994574525,105.16951538288836 235.16725703386717,105.6882550387439 235.3692091135588,105.85456851596001 235.606799795608,106.02880168310683 235.823601292865,106.18719547086425 236.10970007242815,106.32974987999934 237.20261720958294,106.27035220973784 237.39565963869995,106.14363717922507 237.60058160203448,105.92584572061607 238.41333972655784,105.72785348562425 238.66577982617238,105.84268898191951 238.9093102752123,105.99712292527212 239.15383068542718,106.13967733440721 239.4023109404009,106.29807112257768 239.63990162233205,106.43666568689493 239.87749230444024,106.59109963024754 240.0982536463381,106.7415737287823 240.30515553196352,106.90392736171161 240.4922581939718,107.12171881996657 240.66055159377382,107.33555043375772 240.85260406165688,107.56522142640722 241.04663645194884,107.79093257441589 241.2268093857914,107.98496496476687 241.43569119376676,108.17899735499984 241.65348265219873,108.36906990059197 241.92869185883734,108.5591424461251 242.20291110436,108.72149607870035 242.26131881368258,108.74129530214053 242.11678448213857,108.78089374937493 241.93166174248023,108.73733545773572 241.78415752729333,108.7571346811169 241.5693359523272,108.84029141963644 241.45252053374105,108.90760877971067 241.32976534798712,109.06996241246296 241.21591981286684,109.29171371547676 241.16246190941905,109.48178626106889 241.1367229188701,109.67581865159688 241.05356618017356,109.88569042045218 240.89418243100516,110.08368265544398 240.76449751708552,110.30543395863481 240.6872805454387,110.4994663490448 240.77637705124403,110.70933811825411 240.874383207565,110.89149097421056 240.91794149920418,111.0142461601415 240.9892187038012,111.14888087987691 241.06247583074818,111.2161982395381 241.12781326829548,111.32707389125153 241.164441831887,111.48546767918597 241.19612058942667,111.62010239909841 241.24759857046553,111.76661665287433 241.308976163313,111.91313090700429 241.26541787161477,112.08340422897923 241.12682330717954,112.20219957009233 240.92784111101275,112.31703506621056 240.76350755596957,112.41603118370647 240.63382264199092,112.55462574843675 240.56749524326867,112.69322031257698 240.5179971845207,112.83181487730727 240.43484044582416,112.91893146058565 240.33584432832825,112.91497161594482 240.23882813318227,112.89517239256365 240.1536914721948,112.91893146058565 240.1338922486366,113.02584726748123 240.12399263694604,113.1208835403953 240.05568531581486,113.22779934729088 240.0230165970412,113.3426348434091 240.0982536463381,113.5366672339371 240.09231387928833,113.6713019534955 239.94480966421943,113.8217760522663 239.62901204946652,114.03164782141661 239.43299973676562,114.17024238561585 239.2399573076486,114.34447555276267 239.12116196671255,114.51078902991976 238.99939674213357,114.68898204147139 238.8370431094993,114.85925536344634 238.81229408012533,114.95825148094224 238.9142600810871,115.03744837523399 239.12611177258734,115.02556884083945 239.31816424047037,114.96617117057794 239.51021670847143,114.96221132558307 239.52407616486187,115.06516728807384 239.4409194261653,115.23940045463061 239.3854816004266,115.46907144745713 239.39637117329215,115.65518414805439 239.5310058932046,115.80961809158403 239.7289981281964,115.93237327710193 239.79829541038453,116.09472690985422 239.7933456044507,116.28875930026419 239.88046218790612,116.60950672077391 239.858683041998,116.81541864516538 239.89927145017134,116.96193289929533 239.8903617995967,117.10448730825341 239.88343207137197,117.28268031980505 239.89531160547148,117.74202230486803 239.83987377973278,117.9479342292595 239.82205447852454,118.13008708545196 239.89234172194662,118.31223994182145 239.9170907513206,118.47063372975587 239.8685826538066,118.59734876009163 239.79433556568466,118.70822441180505 239.80027533267543,118.79534099508344 239.91907067367052,118.86265835515766 240.0566752769898,118.93393555981372 240.2239787156759,119.00521276429276 240.32396479422874,119.04877105593195 240.42593079530855,119.12796794981067 240.49720799984658,119.2190443779069 240.5189871456957,119.3180404954028 240.52195702922054,119.45267521531524 240.52690683509536,119.59126978004552 240.55660567040312,119.70610527616375 240.50314776695535,119.79718170425998 240.46651920348185,119.91597704537308 240.30416557072957,120.06249129926702 240.08043434518882,120.17732679562127 239.85967300323196,120.27632291311717 239.60426302009253,120.37531903061307 239.34093334755343,120.49807421613097 239.20827855010893,120.6327089358664 239.0568144902812,120.82674132621737 239.0033565868334,120.96929573558849 239.00434654800836,121.07225169748921 239.06077433509904,121.19896672782495 239.1172021220127,121.35340067135458 239.1221519278875,121.5632724405639 239.11423223848783,121.78898358815954 239.11423223848783,122.08201209606543 239.10136274321334,122.45027765303217 239.04988476205648,122.75914553991441 239.0013766644835,122.99673622155055 238.9241596928957,123.21848752497739 238.78556512834243,123.40856007051052 238.75388637074374,123.45211836238573 238.70834815669562,123.53131525626445 238.70042846735495,124.90538136698957 238.55787405810185,126.01809772787954 238.4648177076557,126.26360809891534 238.29850423026258,126.5328775385632 238.06190350950638,126.75066899699519 237.80847344865785,126.96054076638153 237.48673606679617,127.17041253535483 237.25013534598096,127.28524803170909 237.14222957796943,127.32484647853043 237.03333384866494,127.6297545204178 236.57399186348394,128.91670404786456 234.9227366237113,129.25725069222747 234.36736840450027,129.9106250674644 233.41601571536464,131.20549428431082 233.08338876063743,131.8826277281598 233.09031848880312,133.02702284647145 233.11605747941107,133.04682207008864 233.21109375220715,133.1972961686234 233.23188293688128,133.23689461562176 233.2358427815811,133.28045290731995 233.22198332507267,133.32401119895917 233.190304567533,133.39132855862036 233.1200173241109,133.6249593962057 233.0794289159376,133.8665099226597 233.0596296923794,134.11598013892637 232.9992420607069,134.3575306655574 232.900245943211,134.50404491951033 232.8349085057227,134.74163560132348 232.8349085057227,134.9752664385548 232.84579807858825,135.02278457501183 232.8616374573876,135.066342866651 232.8834166032367,135.1059413138854 233.00914167251548,135.24057603362084 233.16258565457514,135.39500997697345 233.89119707940398,135.83455273859624 235.1642871503423,136.50772633745038 235.98496496438332,137.22049838353888 240.5427462138947,139.51720830956185 241.74059923565412,140.0597070334394 243.30176800850552,140.84375628382992 245.43018453466743,142.0831876748196 245.95387399622075,142.34453742524482 247.30022119416503,143.27906077440616 246.77752169384567,143.28302061881095 246.19344460056084,143.306779687187 245.51433123453893,143.39785611528322 243.66508375971546,143.77404136188568 241.15652214236928,144.1264675401711 239.7666166527268,144.4274157371226 239.51021670847143,144.47889371816146 238.22227721984973,144.86695849874542 237.3629909199263,145.10850902573046 236.66803817516407,145.23918390070702 235.73351482594373,145.3896579992418 234.86828875902955,145.55993132121674 233.64568670795515,145.80148184820177 233.1873346839491,145.90839765509733 232.9626134972334,145.9638354806 232.16470479021643,146.11826942395263 230.5777970267571,146.34002072714344 228.60084456036392,146.32814119316194 226.1704898758985,147.07655184149 226.11901189474165,147.09635106504817 225.4943463933425,147.30226298949864 224.84493186256938,147.56757258415166 224.41033890676238,147.7299262167269 224.1024609813501,147.86456093663935 223.40156846953812,148.1298705317054 222.7224551034572,148.3635013689367 222.14233785493124,148.55753375911067 222.02552243628605,148.57733298272788 221.84930934714336,148.5298148460938 221.55529087818053,148.37538090309525 221.1840554375709,148.1338303761102 221.03754118367695,148.01503503517412 220.80292038527068,147.79724357697816 220.46930346930947,147.40521895139938 220.2416123990099,147.09635106504817 220.10796764039043,146.79144302316078 220.0119414064784,145.92423703395568 220.1376664756392,144.5699701462577 220.31288960366595,143.4057758046829 220.46237374102577,142.91079521720337 220.71085399594048,142.04754907275714 220.6910547724413,141.9564726447199 220.71184395711543,141.21994153037338 220.7969806181619,140.62596482539794 220.82964933693555,140.32501662832843 220.8623180557092,140.01218889704137 220.90191650276657,139.77063837035135 220.92468560973163,139.4934492411268 220.95735432850526,138.96283005140776 220.99596281432866,138.5034880661678 221.01279215430299,137.79863570989198 220.9563643673893,136.80867453493295 220.92171572620674,136.48000742461053 220.84647867690987,136.32953332607576 220.75540224881362,136.09590248884444 220.6722455102351,135.86623149601792 220.61482776196945,135.63656050360444 220.5118717997737,135.4227288899903 220.30793979779116,135.31185323827688 219.60209747998636,135.08614209026823 219.50112144014054,135.04258379862904 219.22096242762714,134.94358768113312 218.93090380342315,134.8445915636372 218.63193552852653,134.71391668866065 218.34583674908137,134.57532212416638 218.0983464553416,134.4248480255726 217.84392643325913,134.2506148586618 217.58554656665382,134.08826122608653 217.38458444813713,133.9100682145349 217.194511902545,133.71603582412493 217.15887330018748,133.69227675610293 217.1172949308392,133.6724775323087 217.0767065226659,133.6605979982682 217.0400779591924,133.65663815368637 216.91336292885666,133.64475861946886 216.86980463709943,133.64079877506407 216.7312100726052,133.64079877506407 216.68666181979103,133.64475861946886 216.64013364450895,133.64871846446374 216.32037618505618,133.7675138051638 215.6511624307839,133.76355396058196 215.3363547770879,133.70415629008443 215.28784667957393,133.68831691110805 215.23735865959202,133.68039722170838 214.9047317048648,133.65663815368637 214.5592352548631,133.6368389300692 214.2275982611338,133.6368389300692 214.0880137355236,133.6368389300692 214.0414855602415,133.64475861946886 213.99495738501844,133.65663815368637 213.7326176736543,133.79523271818064 213.5098764092885,133.98530526359576 213.29604479555636,134.15953843056556 213.2178378627346,134.1951770328051 213.17526953215236,134.20705656702262 213.12973131810423,134.2149762564223 212.81096381976744,134.19121718816427 212.47536698151532,134.18329749858756 212.15263963841969,134.2149762564223 211.8526814024661,134.31001252910033 211.806153227184,134.32585190807671 211.75962505196094,134.33773144194018 211.71309687685587,134.34169128693506 211.52005444762085,134.294173150301 211.23791551281653,134.31001252910033 211.18247768695983,134.32189206331785 210.8765796838975,134.4367275594361 210.7528345370276,134.50800476409214 210.71818589596305,134.53572367693198 210.68848706065526,134.56344258977182 210.66175810893137,134.5911615027887 210.61819981723318,134.65055917322724 210.60533032195872,134.68619777564376 210.59939055502696,134.71787653330148 210.59741063255905,134.753515135541 210.65284845841575,134.99902550698982 210.64393880784112,135.0544633326105 210.61127008906746,135.09802162448574 210.5865210596935,135.11782084804392 210.55682222444472,135.1297003819074 210.24498445427363,135.24453587820267 210.20340608504335,135.25641541224317 209.8885984313474,135.29601385947754 209.8470200619401,135.29601385947754 209.80742161505975,135.28809417001887 209.76386332324353,135.2722547910425 209.62625871992424,135.20889727614016 209.5302324860122,135.17721851854148 209.4797444660303,135.1732586735466 209.37282865919371,135.17721851854148 209.31739083333702,135.1851382077641 209.26096304636434,135.19701774198165 209.20849510415053,135.22077681000363 208.97288434451028,135.37521075353328 208.76796238135276,135.56132345413053 208.5323516216535,135.75931568912233 208.20962427861687,135.87811103023543 207.90471623672948,135.95334807970934 207.5730792430592,136.05630404161005 207.2810406964463,136.17905922748199 207.02167086866604,136.34141286005726 206.72864236081915,136.50772633745038 206.48313198942932,136.5829633869243 206.442543581256,136.5869232315061 206.1960432486912,136.57504369746562 206.055468761847,136.57504369746562 206.00696066433304,136.57900354210642 205.95944252787598,136.59088307632396 205.66839394243803,136.71363826184185 205.62780553432373,136.74531701967658 205.43872294990655,136.89183127357052 205.4110040369487,136.90767065242886 201.2254481892219,141.84955683776533 200.38398119050674,142.47917214480324 196.96663521460718,144.41157635850027 192.58011724830473,146.89835883005637 189.76169778319635,148.62881096358973 188.272796176058,149.51581617664803 188.1856795926616,149.61481229414395 188.00550665881906,149.87616204439212 187.9975869694194,150.04643536636706 188.06094448467576,150.22858822250052 188.0619344457917,150.39490169989364 188.0649043293756,150.84236415091613 187.92729972599727,151.17103126123854 187.82434376380155,151.6976906059627 187.52933533366377,152.30354684533268 187.23234698117605,152.54113752732283 187.2432365541596,152.6718124022994 187.28778480697375,152.73121007291496 187.330353137556,152.77872820901797 187.37985119630395,152.82228650083417 187.4174697209524,152.85792510307368 187.66298009228322,153.04007795926614 187.71841791813992,153.07967640650054 187.77979551098738,153.1113551639222 187.85107271552545,153.14303392175694 187.9174001142477,153.1667929897789 187.9946170859535,153.18659221339612 188.40446101232754,153.28162848589716 188.5212764309727,153.33310646729007 188.6371018884429,153.40042382701026 188.66977060721655,153.42022305062744 188.71530882126467,153.44398211864944 188.81727482228544,153.4954600998653 188.90142152221597,153.51921916812336 189.0142770961023,153.5469380811402 189.11030333007332,153.56673730434437 189.14891181595573,153.57465699398006 189.20632956404435,153.58653652778455 189.24097820528593,153.5904963727794 189.30037587566545,153.60633575140173 189.52212717885627,153.68157280087564 189.76664758907117,153.768689383977 189.79832634666985,153.77264922897186 189.83495491026133,153.78056891837153 190.08442512623301,153.8003681417527 190.14382279678955,153.8003681417527 190.17946139902907,153.8003681417527 190.22598957431114,153.80432798639353 190.25667837067587,153.80828783121137 190.3239957305731,153.82016736536988 190.35963433287162,153.83204689923338 190.45368064461073,153.84392643362793 190.56950610196293,153.85184612285056 190.90312301798312,153.87560519087256 190.93777165904768,153.87956503586744 191.25752911861846,153.88352488027223 191.57233677219642,153.90332410388945 191.62777459805315,153.91124379328912 191.67529273439217,153.91520363810696 191.88417454236753,153.9548020849283 192.01187953393725,153.99440053198566 192.04256833030198,154.00628006620317 192.15641386548126,154.0537982024242 192.19304242895475,154.07359742586436 192.2375906817689,154.09735649424042 192.26926943936758,154.11319587309876 192.29599839115048,154.1290352517211 192.40192423681208,154.19239276697746 192.45043233438508,154.21219199059468 192.49399062614228,154.22407152475319 192.59100682122926,154.2636699714565 192.62070565647804,154.27554950585105 192.66723383176011,154.29534872923222 192.7206917351489,154.3270274867129 192.77216971624676,154.3626660889524 192.82859750327844,154.39434484672813 192.89591486311664,154.445822827826 193.0493588452353,154.6556945967993 192.83651719267812,157.32462992460685 192.2059119242292,160.2469953130269 191.06250676709251,166.11944500311986 190.84174542507665,168.38051632666728 190.72888985119033,169.3189995202334 189.98245912527122,173.84114216780029 189.0677349996681,179.6106358954025 189.03704620312635,179.68587294446337 187.33431298225582,183.62987826550014 186.8403223560103,184.28721248573194 186.68687837383263,184.6752772664929 186.56016334337886,184.98810499760293 187.36104193392072,186.43740815762493 187.499636498474,186.69083821865047 187.51943572197317,186.71855713149031 187.30560410818202,188.08866339781065 187.25313616585018,188.42129035253785 186.34237188488788,190.99122956243647 186.0711225229491,191.75151974515904 186.00677504663577,192.24650033263856 185.95133722077907,192.30193815825925 185.78403378227,194.18682423532223 185.35538059357174,195.79848102827353 185.14649878553737,196.59044996824076 185.14550882436242,196.78448235859173 184.720815480305,197.96847592378373 184.54163250769642,198.13874924593568 184.2733530292825,198.28130365489378 183.52296245866356,198.40405884058868 181.62718680855804,198.54265340514195 180.4827916903644,198.64956921203753 179.40670389318393,198.70500703789423 178.22766013386672,198.5149344921251 177.57527571950973,198.28922334429345 176.95654998516034,197.75068446517474 176.83082491588152,197.64376865845617 176.00024749020892,197.02999272968654 175.93590001371857,197.08939040047912 175.8844220326797,197.1329486921773 175.7280081670952,197.2636235670949 175.5656545343429,197.35074015055028 175.37756191104168,197.41013782104784 173.3471515412597,197.86551996146997 172.8036628561482,198.01995390464558 172.6343794953482,198.15062877991718 172.42351776502295,198.32882179152782 172.252254481696,198.50701480290243 172.14731859720936,198.65352905685538 172.04337267383866,198.8436016023885 171.90873795398525,199.11287104209538 171.53354266867578,199.99987625456362 171.33852031726784,200.02363532293967 170.65940695118695,200.11075190645408 170.53170195961724,200.24142678137164 170.4287459974215,202.30054602534543 170.4119166574472,202.34014447222577 170.11591826613443,202.93808102219606 170.1070086155598,203.4251419202169 170.15155686843298,203.55185695037562 170.25748271421259,203.7656885644028 170.36538848228312,204.05871707189564 170.08423950859475,204.38738418215905 168.869557146861,205.31002799710288 168.24885149022072,205.60701634959057 166.8688456122688,206.11387647146464 165.62644433769523,206.43462389179732 164.56322603578926,206.48214202843138 163.73264861005762,206.49006171783105 163.21687883790398,206.35542699809562 163.0763043510598,206.35938684267745 162.82188432903632,206.4227443577568 161.597302355612,209.03228201506684 161.39832015956324,210.0974802391457 161.27160512905047,210.28359294009704 161.10628161283233,210.501384398529 160.85186159086786,210.74293492551405 160.75979520159666,210.9924051416037 160.7152469487235,211.2339556682347 160.69940756992415,211.5626227781441 160.66277900650968,211.87941035407198 160.50933502433202,212.10512150208064 160.22125632247796,212.17243886191886 160.00148494157804,212.34667202871165 159.59362093749493,212.6119816237777 159.16793763226255,212.8099738587695 158.85906974567533,213.1544803474782 158.69869603533195,213.60986248813637 158.54030224733853,213.9860477345028 158.41259725576882,214.23155810612866 158.25024362313454,214.62754257611226 158.15124750563862,214.88889232618345 158.24925366190055,215.03540657990035 158.7076056859656,215.17796098921247 159.53521322817235,215.0829247163574 159.9034787852571,215.61354390607644 160.11137063211652,215.72837940237167 160.6261504430362,216.01348822105493 161.13796037049002,216.24711905828624 162.58429364704614,216.70250119853137 163.46634905393464,217.00740924041875 163.6584015219357,217.28063852488447 163.97815898138848,217.68454268409073 164.11873346823265,217.89837429788187 164.23158904223698,218.07656730961054 164.29197667385048,218.12012560130873 164.33652492672363,218.13596498010807 164.38701294664654,218.1399248246899 164.71073025085815,218.15576420354824 164.762208231956,218.16368389294792 164.8087364072381,218.17952327157025 164.83348543661208,218.20328233976926 164.83150551420314,218.23496109760396 164.81467617422885,218.2705996998435 164.7919070672638,218.30227845726515 164.73745920258204,218.3695958173394 164.72557966854154,218.4052344195789 164.73052947441633,218.4487927112181 164.77309780488056,218.53194945009167 164.78695726133,218.57154789709003 164.7800275331643,218.61114634379337 164.7503286979155,218.64678494620992 164.71370013444204,218.68242354844944 164.67509164855963,218.71014246128928 164.63153335692041,218.73786137430614 164.57609553106371,218.78141966594532 164.5523364629237,218.81309842378005 164.54837661822387,218.8526968706014 164.56025615226437,218.89229531765875 164.6849912603682,219.11800646566743 164.78992714485486,219.27640025342484 164.83645532007793,219.30807901125957 165.11463441030043,219.4229145075548 165.20274095481278,219.4585531097943 165.25223901356074,219.48627202263418 165.28985753820916,219.54170984849088 165.28589769350933,219.58526814013007 165.25817878066948,219.62882643176926 165.2146204889123,219.66446503400877 165.0552367397439,219.72782254926517 165.00573868099593,219.73970208348268 164.95327073878212,219.7436619280645 164.70380052263343,219.72386270462434 164.6463827744858,219.731782394024 164.5186777829161,219.75554146228203 164.48501910296747,219.77138084090436 164.4533403454278,219.7872202197037 164.24346857633648,219.96541323149137 164.1613017988149,220.06836919339207 164.0959643613266,220.1158873300261 164.04745626363558,220.13172670864844 163.92866092264052,220.15152593226566 163.8979721263348,220.1594456214883 163.84649414511892,220.1792448451055 163.8059057370046,220.20300391312747 163.78016674639665,220.23072282614436 163.76630728994724,220.2782409626014 163.77125709582202,220.31387956501794 163.7890763969713,220.34555832261663 163.82372503821287,220.3772370800973 163.86530340744312,220.3970363037145 163.91381150507513,220.4207953717365 164.22267939166235,220.49207257621552 164.30484616918395,220.51187180000974 164.35038438323207,220.53167102344992 164.4315611995197,220.5950285387063 164.4632399571184,220.6306671409458 164.47808937480178,220.67818527716682 164.48798898649235,220.94349487223286 164.4988785594759,220.9712137850727 164.59193490986306,221.10980834956698 164.62559358981167,221.14940679644732 164.66321211446012,221.17712570946418 164.70776036733326,221.20484462248106 164.7552785037903,221.22464384592124 164.94733097167335,221.28008167154192 164.98098965162197,221.29592105057728 165.0116784481637,221.32759980799895 165.0186081763294,221.41075654669552 165.03444755506973,221.5374715772083 165.05424677856894,221.58102986867044 165.32450617939173,221.6523070733265 165.86502498091937,221.7592228802221 166.43326269534586,221.81070086143797 166.71837151373407,221.84633946391352 166.74213058187408,221.86217884253583 167.2638401211955,222.27796253613664 167.3212578692841,222.32152082777583 167.95780290472376,223.10161023352555 167.98156197304078,223.2639638661008 168.15876502329945,224.41627867381212 168.74581199999113,225.03401444698656 168.8972760598779,225.92893934926752 169.04973008076257,227.04165570974445 169.30316014149307,227.33468421782737 169.59024888234921,227.94846014618395 169.449674395446,228.5384770064005 169.48432303651057,229.1482930901753 169.21703351927164,229.59179569661595 168.66760506716938,230.07885659469576 168.58642825088174,230.72035143606922 168.5408900367746,231.17573357655039 168.47753252157725,231.44500301602122 168.52307073562537,231.65883462981236 168.46070318160295,231.9479032929004 167.9488932541491,232.5497996872755 167.37966557854767,233.21109375232516 166.90151433104248,233.69419480558713 164.29296663508444,237.28577394827948 163.3584432858641,238.89347089641296 162.97037850528017,239.78839579869393 162.8436634748854,240.60808365167802 162.83673374671972,240.65560178813504 163.0159167193283,241.44361088310743 164.64539281331085,244.90847499546402 164.66915188156887,245.0074711129599 164.83744528131191,245.09458769659233 164.9225819422994,245.2569413289906 164.97702980692213,245.35989729148136 164.9780197681561,245.5064115454343 164.93248155410797,245.58956828407185 164.88991322352572,245.7281628484481 165.02949774919495,245.99743228791894 164.9918792245465,246.26274188292598 165.03642747753767,246.33005924264617 165.17502204191393,246.59140899289437 165.173042119564,246.82107998548486 165.08790545851753,247.15766678502993 165.04137728329445,247.30022119416503 165.03147767160388,247.470494516494 165.0186081763294,247.85063960750125 165.01563829280454,248.0723909108691 161.90815016454914,248.76536373334042 161.5923525497372,248.86831969530013 160.7320762886978,249.12174975632567 160.50636514086617,249.22470571840338 159.7510247643724,249.66820832466703 159.5946108987289,249.7711642871578 159.13427895231393,249.97707621137226 158.75710374471356,250.09191170749048 158.48387446036585,250.14734953352422 157.85821899785074,250.21862673800325 157.5236121207146,250.27802440844178 157.1414871072394,250.33742207911635 156.8395489488179,250.39681974937787 156.67422543259974,250.44829773077075 156.30397995316508,250.6383702763629 156.12281705808857,250.69776794686044 155.92482482309677,250.7175671702416 155.7595013069376,250.7175671702416 155.27739021467355,250.79676406435635 154.9794119010699,250.92347909469208 154.69331312144774,251.069993348409 154.28247923389875,251.2996643412355 154.08844684360676,251.4303392163301 153.93698278377903,251.56497393588853 153.79442837458492,251.71544803465932 153.6093056349266,251.90552058019244 153.44101223518356,252.05203483396835 153.34300607880363,252.15895064086394 153.28855821423988,252.2421073795605 152.90049343365592,252.471778372387 152.79654751028525,252.46781852739215 152.6064749646341,252.47573821679183 152.42432210844163,252.495537440409 152.20851057230058,252.5351358876434 152.08872527013054,252.59849340266376 151.96102027856082,252.4598988381695 151.7610481212191,252.44801930395198 151.59077479912614,252.44405945954716 151.400702253534,252.471778372387 151.04431623060776,252.57077448988292 150.79088616975923,252.61829262628095 150.2483874459407,252.6935296754008 149.90883076287074,252.75292734583937 149.5237358658117,252.8360840845359 149.21585794039942,252.92716051263216 148.767405528202,253.06971492176723 148.44467818510634,253.18059057365767 148.39518012635838,253.19642995228 148.2258967654404,253.25186777813673 147.89821961652896,253.36274342985016 147.47352627247153,253.46569939175086 147.33097186327743,253.48549861536804 146.99735494737524,253.52113721760756 146.4330770776486,253.45381985771036 146.10539992867817,253.43006078951134 145.63417840939766,253.37066311924983 145.18176615244138,253.3389843614151 144.63629754503896,253.25186777813673 144.40563659127352,253.19642995228 143.98391313074097,253.13307243702363 143.6087178454315,253.15683150522264 143.32261906592734,253.20830948649754 142.94247397474308,253.20434964167967 142.59400764109847,253.26770715675903 142.21782239473205,253.3271048276106 141.82480780821433,253.3508638956326 141.5476186791668,253.43006078951134 141.25953997731273,253.56073566484196 141.08233692699505,253.60429395648114 141.11104580106885,253.6676514717375 141.16747358798253,253.80624603623178 141.20905195733081,253.93692091120838 141.2813191231618,254.04779656268576 142.1198162382931,256 142.05645872315475,255.95644170812477 141.8109483517059,255.74261009415662 141.6852232825451,255.47730049950363 141.55157852386662,255.21991059383726 141.51099011575232,255.1803121470159 141.46644186287915,255.1446735447764 141.41298395943136,255.10903494253688 141.35259632769987,255.07735618470215 141.14965428683325,255.02191835884545 141.08233692699505,255.01003882504097 141.01699948944776,255.0021191355823 140.6903123017113,255.0060789800461 140.6200250582892,255.0021191355823 140.54775789245818,254.98627975660594 140.47648068792012,254.96252068858394 140.41312317266375,254.93480177556705 140.35471546334117,254.8952033286867 140.1339541213843,254.66949218067805 139.9498213427829,254.4477408773102 139.83795573001254,254.30518646835213 139.35188479310767,254.1705517486167 138.91729183735967,254.13491314620018 137.90456155531757,254.11115407811917 136.6423610572448,253.5132175283849 136.00779594409607,252.82816439513624 135.31185323815888,251.37094154571457 135.647450076411,250.29386378747716 135.47222694850223,249.73948552932308 134.25457470324363,247.37941808839778 132.63994802700347,245.45097371957758 131.90836671864975,244.29073922246658 131.53317143334027,243.69280267267334 131.44110504401007,243.54232857413857 131.23222323615272,243.12258503607396 130.79862024146166,242.25537904669181 130.51450138430744,241.6851614097384 128.54645856842987,237.89163018764944 127.93367260113023,237.02838404302616 127.47037077130841,236.3750096673762 127.06052684481637,235.9790251973926 125.98146916417004,235.70975575774472 124.27972590435645,235.3573295794003 123.41746972096713,235.34149020060096 122.25030549569044,235.2900122197391 120.77823322852637,235.10389951890582 119.91597704513705,235.03262231407274 118.9774938513349,234.99698371201023 118.19245463953338,235.09597982950615 117.30742934917902,235.38504849241716 115.71359185743599,235.99882442083276 115.13248464773503,236.30373246272015 114.72165076024504,236.52152392132913 114.3236863677935,236.7274358455436 112.55363578696677,237.2659747248393 112.07350461722964,237.44020789180914 111.84581354693006,237.63028043740127 111.57852402975013,237.99458614955014 111.36964222171576,238.13318071428046 111.16670018084916,238.36285170687094 110.20643784113891,238.723197574261 108.84029141969545,239.1271017338213 108.43638726031216,239.41617039673233 108.33442125929137,239.48744760138837 106.5435814937905,240.77439712883512 105.41601571563018,242.03758758808283 104.83589846698618,242.98795031616152 104.76066141768929,243.19782208519382 104.66067533907743,243.22554099803367 104.4894120557505,243.2057417745935 104.27360051960945,243.15822363813646 104.05877894470234,243.11862519131512 103.89642531195005,243.12654488053775 103.66477439700964,243.17010317217697 103.49648099732562,243.22554099803367 103.3757057339216,243.30077804750758 103.25295054822669,243.39977416500346 103.17969342133873,243.50668997189905 103.12326563430706,243.5462884187204 103.0133799438866,243.55024826353824 102.92527339931524,243.53044903992105 102.76786957261477,243.49877028249938 102.64214450327697,243.48689074828187 102.54809819171487,243.4908505930407 102.36891521898828,243.54232857413857 102.16003341113093,243.62944515741694 102.04420795360171,243.68488298327367 101.97293074900466,243.75220034311187 101.96204117613912,243.92643350990465 101.97590063264755,244.112546211033 101.97491067141358,244.1917431049707 101.95016164203962,244.24718093059138 101.88680412678323,244.3144982904886 101.83631610686032,244.34221720350547 101.72247057174003,244.38181565050382 101.55912697793079,244.42537394237903 101.38291388872908,244.45309285521887 101.13542359498932,244.4926913020402 100.71568005680669,244.56396850651927 100.49293879244091,244.6114866429763 100.32662531504779,244.68672369245022 100.03953657430968,244.8411576355668 99.8969821652336,244.90847499546402 99.73858837712214,244.92431437426336 99.48317839404172,244.93223406366303 99.45644944225882,244.9480734426984 99.21588887680278,244.9520332871032 99.06145493345016,244.80155918874544 98.82188432911008,244.67088431359187 98.70704883281482,244.59168741953613 98.6328017446929,244.4570526996237 98.61498244354364,244.35409673772298 98.56251450127081,244.19570294955253 98.50113690842335,243.94623273352184 98.47440795669945,243.81555785854528 98.4348095097011,243.66508375965645 98.37739176155347,243.4037340095853 98.3813516062533,243.26909928967285 98.41402032502695,243.09090627829823 98.44569908262564,243.01566922917837 98.46054850030903,242.9839904715797 98.29126513939104,242.60780522503626 97.5963123945108,242.1009451033392 97.33793252784649,241.92671193672345 96.73306625000554,241.55052669000298 96.22026636137676,241.31689585277167 95.86487029950746,241.2297792694933 95.45205648954953,241.17038159881872 95.20060635110995,241.1109839283802 94.88876858105687,240.96050983002243 94.43932620762546,240.38633234825116 93.99186375648497,240.03786601472459 93.12465776722087,238.89347089641296 93.00982227092561,238.79447477891705 92.75144240432031,238.7311172638377 91.97036303721863,238.56480378650357 91.32985815702014,238.40640999833312 89.66276353844815,237.38081022131158 89.31528716603754,237.11946047088637 87.10965366822882,235.4523658524914 86.44142987513146,234.94550573061733 85.69499914921236,234.73563396158502 84.9881668702326,234.7514733406204 80.77390214849103,234.8425497684806 80.13735711293337,234.95342542001703 78.52570032015907,235.2385342384642 77.93469349864952,235.36128942439515 77.86836609992727,235.39296818199387 77.81292827412958,235.4088075608522 77.7010626614182,235.4088075608522 77.64661479679546,235.40088787139354 77.53573914520004,235.3692091136178 77.47733143587746,235.36128942439515 77.41694380414596,235.36524926897698 77.08332688818477,235.42464693947454 77.01798945063747,235.4325666288742 76.95760181902398,235.44444616309173 76.90018407087635,235.4642453864729 76.63586443716228,235.6186793296485 76.49528995031811,235.7137156027396 76.4448019303362,235.74143451557944 76.3913440268884,235.75727389437878 76.33788612344061,235.76915342836028 76.28343825881787,235.76915342836028 76.22899039419512,235.7612337389606 75.98051013933942,235.69787622388122 75.93893176999113,235.68995653448155 75.89339355594302,235.68995653448155 75.84587541948598,235.69787622388122 75.80132716661282,235.7137156027396 75.76271868078942,235.73351482594373 75.73103992319074,235.7612337389606 75.6498631069031,235.872109390497 75.63006388340392,235.89586845887305 75.60531485402994,235.9156676821362 75.5746260575472,235.93546690557636 75.5409673775986,235.95526612937059 75.5023588918342,235.96714566335208 75.46177048360188,235.97506535281076 75.41920215313765,235.97506535281076 75.37564386138044,235.96714566335208 75.33010564733233,235.95526612937059 75.2875373168681,235.93150706093553 75.0578663242186,235.76915342836028 75.02321768315403,235.7533140493839 74.9925288866713,235.74143451557944 74.93313121623277,235.72559513654406 74.8935327691754,235.72559513654406 74.85690420570191,235.7533140493839 74.77770731170519,235.82459125403997 74.7460285541065,235.848350322475 74.71236987415789,235.8602298564565 74.67673127191837,235.86418970109733 74.63911274726993,235.8602298564565 74.5549660473394,235.83251094343964 74.46883942511796,235.78895265197747 74.43122090046953,235.76519358360142 74.39756222052092,235.73747467058456 74.37083326879703,235.70579591333993 74.25995761726062,235.4761249205134 74.18967037383852,235.36128942439515 74.16096149976472,235.32961066656046 74.12631285858214,235.30189175389762 73.85308357429345,235.16329718940335 73.54619561011516,235.03262231407274 73.52243654191615,235.01282309086858 73.50758712423276,234.9732246436342 73.51253693010754,234.93362619657685 73.49075778425845,234.89798759451435 73.4363099196357,234.88214821553797 73.3709724820884,234.8742285261383 73.34127364695765,234.90590728391402 73.29771535514143,234.92570650717715 73.26207675290192,234.98114433303388 73.22643815054438,235.0524215375129 73.07695401318458,235.1910161022432 73.04923510022672,235.20685548086553 73.01953626509597,235.21873501526008 72.98686754620431,235.2266547044827 72.95221890513974,235.23061454906454 72.91658030278221,235.23061454906454 72.87797181701782,235.22269485966487 72.8373834088445,235.2147751702652 72.75917647602273,235.18705625742535 72.4701078129347,235.0405420034724 72.4047703753874,235.01282309086858 72.37309161772971,235.00094355665107 72.31171402488225,234.98510417785172 72.19786848982096,234.96926479899338 72.26518584965918,234.7395938064029 72.35131247199863,234.64059768890698 72.4047703753874,234.61683862088498 72.44238889997683,234.6089189314263 72.48495723050007,234.6089189314263 72.80966449588664,234.66435675692898 72.88094170048369,234.688115825364 72.91460038043229,234.69603551476368 72.94726909920594,234.69999535952255 72.97795789568868,234.69207566994584 73.05022506140168,234.64851737812964 73.12150226605773,234.5455614159929 73.15912079070618,234.5138826583942 73.21356865526992,234.49408343495404 73.24326749051869,234.48616374555436 73.29771535514143,234.46636452193718 73.33038407391508,234.4346857645155 73.3373138021398,234.39508731745812 73.33137403509005,234.3554888706368 73.30662500571607,234.31985026839726 73.26999644230159,234.2802518211629 73.24524741292761,234.26045259754568 73.21455861644488,234.2485730635052 73.17793005297139,234.2366935295237 73.13833160603204,234.23273368470583 73.09774319785872,234.2366935295237 73.06012467321028,234.2406533741055 72.94924902161486,234.26837228694538 72.91361041925734,234.27233213194023 72.87797181701782,234.27233213194023 72.84332317583525,234.26045259754568 72.81758418528631,234.24461321892338 72.80273476766193,234.19709508246632 72.81164441823655,234.16541632504465 72.89678107928303,234.03474144971403 72.9096505745575,233.9951430028927 72.91658030278221,233.9515847110175 72.91361041925734,233.76943185506104 72.90569072985767,233.7417129420442 72.86708224403426,233.66251604816546 72.85817259351863,233.6347971353256 72.85817259351863,233.58331915405074 72.86906216638418,233.55560024103386 72.88688146759245,233.52788132843006 73.04131541082705,233.32196940397958 73.09774319785872,233.21901344172483 73.10863277072427,233.18733468406714 73.11358257665806,233.15565592646843 73.10665284837435,233.00914167251548 73.09675323668377,232.9774629150938 73.08289378017533,232.9457841572591 72.98092777921356,232.76759114570748 72.97201812857992,232.73195254346797 72.97102816740495,232.69235409658762 72.97993781797959,232.65671549417107 72.99280731325406,232.61711704734972 73.03339572142738,232.54187999787584 73.20267908234537,232.33992791847922 73.36206283151378,232.1102569256527 73.40760104556189,231.8687063990217 73.41255085143669,231.8330677967822 73.4511593373191,231.57567789111582 73.44917941491018,231.32620767508516 73.41057092914578,231.16781388715071 73.3907717057056,231.1321752849112 73.36305279268873,231.09653668267168 73.26405667519283,231.00150040958056 73.22544818942843,230.97774134155858 73.18287985884619,230.95398227353658 72.96904824511405,230.870825534663 72.93538956510643,230.85498615604067 72.9047007686827,230.83518693242348 72.87599189460889,230.8153877088063 72.85223282640987,230.7916286407843 72.83342356414467,230.76786957234924 72.82253399116111,230.69263252328838 72.83540348643557,230.66491361044854 72.85223282640987,230.63719469743168 72.87500193349294,230.60947578459184 72.90173088515783,230.5896765607976 72.99577719677893,230.52631904571825 73.02250614856183,230.50255997769625 73.04032544965209,230.4748410646794 73.04824513911078,230.44316230719872 73.04923510022672,230.40752370460515 72.97993781797959,230.146173954711 72.93835944863132,230.07885659469576 72.88490154518352,230.02341876883906 72.82946371944483,229.97986047719988 72.8057046511868,229.95610140911887 72.78491546651266,229.928382496102 72.75323670891397,229.87690451488612 72.73442744664875,229.8491856022233 72.71165833956569,229.82542653384726 72.68492938790081,229.80958715522493 72.65325063024311,229.79770762083038 72.55326455163126,229.76206901859086 72.52554563867339,229.7501894847274 72.48594719173404,229.71455088213384 72.45426843413536,229.6749524354895 72.43347924946121,229.62347445421463 72.42258967647766,229.41756252964612 72.43941901645196,229.37400423800693 72.46317808465098,229.35024516998493 72.49188695872479,229.33044594636775 72.56316416332184,229.29480734412823 72.87302201108402,229.21165060525465 72.91262045808237,229.20373091585498 72.95221890513974,229.19977107121414 73.26405667519283,229.21165060525465 73.41354081261164,229.20769076084983 73.4580890654848,229.20373091585498 73.49966743483309,229.1839316924148 73.53926588194946,229.16413246915164 73.76299710737219,228.99781899164051 73.8590233413432,228.95822054476017 73.89565190481669,228.95030085518349 73.9342603906991,228.94238116578381 74.2797568407008,228.93446147638414 74.38667264759637,228.91070240836214 74.42528113347878,228.91070240836214 74.46487958041813,228.9186220977618 74.50249810506658,228.9305016317433 74.5381367073651,228.95426070000133 74.56882550378883,228.97801976802333 74.64604247543564,229.0532568174972 74.67277142721854,229.06909619611955 74.73216909765708,229.07305604111443 74.76384785531476,229.06513635165575 74.7945366516795,229.0532568174972 74.81928568105347,229.03345759388003 74.8400748657276,229.00573868086317 74.85690420570191,228.97010007862366 74.88858296330059,228.85922442726425 74.90442234215895,228.8196259802659 74.92620148794904,228.78398737802638 74.95095051732302,228.75626846500953 75.14894275231482,228.57411560864003 75.26971801565982,228.3840430630479 75.29644696750174,228.34444461616755 75.37564386138044,228.17021144943376 75.3815836284892,228.1306130021994 75.37960370608027,228.09893424477772 75.35782456029018,227.99201843805915 75.3548546767063,227.8653034075464 75.01529799375436,227.83362464971168 74.80146638002222,227.83362464971168 74.43815062875325,227.83362464971168 74.04216615876963,227.80590573687184 73.77388668035574,227.80194589229 73.63628207697742,227.75838760065082 71.91275967143277,227.20400934249673 70.86835063179198,226.59815310371684 70.36149051021296,226.49915698622095 69.24283438250926,226.2892852170116 67.8113505235185,225.8814212128105 64.46132190745715,225.04193413638623 64.0999860785971,224.99837584492406 62.445760955240566,224.78454423095587 61.69735030697154,224.49547556786786 60.88558214350514,224.47567634442768 60.07282401886378,224.33312193511557 58.97396711471826,224.1588887685588 58.62352085878276,224.12721001072407 58.57699268355969,224.09553125330243 58.38494021555863,223.52135377188517 57.632569722648775,222.43239647943025 58.01766461964883,221.84633946391352 58.5789726058506,221.09792881558548 59.030394901631915,220.00501167813567 58.65618957755641,217.47863075987627 57.938467725711114,216.33819548638246 57.93252795860236,215.59374468281328 57.287073272588074,214.7740568298292 54.972544045533866,213.29307491203147 56.094170056762444,211.6932976534747 55.94270599705272,210.57662144800292 56.075360794379215,209.3253105229727 56.094170056762444,207.2741109683986 55.65462729502163,205.54761867932905 55.64373772209708,204.1616730343864 55.068570279445886,203.10043465471233 55.0537208618215,201.31850453978606 55.39525746718237,199.6434902318144 55.310120806194895,197.88531918491014 55.25369301922223,197.82988135905345 54.41717582632285,196.98643443822436 53.17081470716744,196.3013813049757 51.713591857568744,195.80244087303237 50.28903772674369,195.56881003562404 48.871413324261376,195.52129189940302 47.48447771808477,194.99463255408878 46.67369951585233,194.37689678109138 46.05695370379385,193.90567526163386 44.76010456465653,191.49412983931566 44.93037788669047,190.5873254032302 45.602561524487655,190.37349378961608 46.8410029543614,189.99334869825478 49.80692663453865,188.63908181091082 50.01976828715484,188.54404553805577 50.42466240771308,188.44108957591902 52.65108509031395,188.393571439698 53.728162848551364,187.8669120943838 54.19443456195707,186.96406750288017 54.08949867747041,186.98386672649735 53.94298442351747,187.05910377561722 53.84596822843049,187.1660195825128 53.695494129777714,187.09078253339294 54.15879595965854,186.47700660485933 53.92417516125226,186.18397809695344 52.18481337684924,183.40020727302766 53.615307274665035,182.80623056805223 54.5874491484158,182.4062862533098 58.43938808018138,180.76295070311383 58.73538647149413,178.7751086637371 59.04425435814035,176.68827050692346 59.84909279332304,175.29836501722198 57.558322634526846,168.15480517865862 57.05839224111353,167.81029868977288 56.20900555299869,167.976612167284 54.67258580946228,166.70550201869563 54.23601293130534,165.2126405667984 52.51546040922655,163.0664047393692 52.4035947965742,162.27047595458413 51.688842828194765,161.71213785202525 50.44545159238722,161.55770390890868 48.17547061826517,161.49038654865743 46.8578322943357,161.30823369246497 46.516295689033846,158.54426209215637 46.371761357489824,158.1205587091559 45.555043388148626,158.14827762217274 44.74030534109834,158.23935405009198 44.067131742185204,158.3185509441477 41.263561694642235,158.4056675276621 39.43411344337695,157.7483333076073 35.542576064554005,156.35050812827015 35.388142121319405,155.2457114571929 34.095252826763904,153.4954600998653 34.408080558050955,152.560936750586 35.13966186640469,150.38302216567612 35.65345171614942,148.85452211159838 35.72967872668027,148.55357391446984 36.32068554813081,144.07498955877819 36.39889248095257,143.48497269879763 36.704790483955904,141.1645037047527 35.35151355790492,139.4380114154471 34.080403409198524,137.7788364862748 32.850871629899416,136.23053720857985 32.48359603398961,135.7632755341172 29.34937895406933,131.6173181332708 29.023681727507807,131.4866432581762 28.72570341384514,131.38368729586244 28.428715061357433,131.2648919551624 28.08717845599657,131.18569506087064 27.77732060823439,131.11441785621457 27.490231867437267,131.01146189431387 27.457563148663617,130.99166267069668 27.43281411928964,130.96790360267468 27.40410524521583,130.92038546621765 27.39222571111632,130.86890748517877 27.38925582765045,130.67487509459178 27.379356215841856,130.63923649235227 27.344707574777296,130.57983882209075 27.31896858422836,130.50856161743468 27.18235394202501,130.25909140134502 27.083357824529106,130.03734009797716 26.92001423071987,129.81954863936818 26.709152500453598,129.60571702575405 26.485421274853852,129.38792556714503 26.236941019939135,129.20973255577044 26.082507076704534,129.13449550629653 25.94688239579415,129.06717814663534 25.658803693763062,128.90482451388306 25.468731148170928,128.67515352141058 25.371714953024945,128.4415226838252 25.288558214328386,128.21581153599357 25.200451669757033,127.96634131996288 25.09650574644534,127.74063017195421 24.940091880801816,127.50699933472289 24.795557549257797,127.28128818689123 24.648053334129894,127.05953688387743 24.456000866187843,126.82986589105091 24.427291992114032,126.77838791001204 24.43917152621354,126.51307831535905 24.463920555587517,126.45764048950234 24.481739856795784,126.4338814210673 24.503519002585875,126.40616250840448 24.55994678961755,126.36260421641124 24.752989218675552,126.26756794391021 25.047997648813343,126.17253167099614 25.30439759312773,126.00621819366202 25.343996040185097,125.95474021262315 25.365775185975192,125.89930238676645 25.371714953024945,125.86762362893172 25.365775185975192,125.80822595867022 25.353895651875682,125.77654720101252 25.314297204936327,125.71318968593316 25.102445513436088,125.5349966742045 24.870794598495678,125.36472335205255 24.854955219696333,125.34096428403055 24.841095763305912,125.29740599239136 24.933162152518094,125.0716948445597 24.945041686617603,125.01625701870299 24.942071803092727,124.96873888206893 24.931182230227183,124.94101996922909 24.896533589044612,124.89350183294907 24.875744404370472,124.8737026095679 24.61142477065641,124.74302773423727 24.34512521465144,124.61631270407855 24.10456464907739,124.4381196923499 24.07189593030374,124.41832046908674 24.038237250355134,124.40248109011038 24.005568531581485,124.39060155606988 23.970919890516925,124.38664171148805 23.94023109403419,124.38268186649319 23.88380330712053,124.39852124546955 23.85707435533763,124.41040077951006 23.742238859042384,124.50147720760629 23.71649986849345,124.51731658658265 23.687790994419636,124.533155965441 23.658092159170867,124.54107565484067 23.626413401572176,124.54899534406333 23.59374468279853,124.55295518864514 23.56008600284992,124.54899534406333 23.525437361785364,124.54107565484067 23.49078872060279,124.52523627598232 23.391792603106886,124.47375829458942 23.176971028140777,124.29952512797365 22.985908521373688,124.08569351400548 22.822564927505447,123.879781589614 22.786926325265927,123.64615075238268 22.781976519391133,123.39668053652903 22.772076907582537,123.15908985430283 22.75920741230807,123.12741109688116 22.73841822763393,123.09969218404132 22.708719392444163,123.0680134262066 22.67605067361151,123.04821420300246 22.63546226543819,123.02841497938526 22.592893934973958,123.01257560052692 22.54438583734196,123.00465591112724 22.18601989200679,123.00861575576806 22.13553187220189,123.00465591112724 22.035545793472025,122.98485668774607 21.718758217485135,122.8700211912148 21.424739748522303,122.7155872480392 21.183189221773294,122.56115330492261 20.958468035116603,122.38692013777579 20.764435644765626,122.18496805814316 20.61891135204665,121.97509628916985 20.471407136977753,121.75730483056086 20.352611796041675,121.53555352754705 20.274404863219914,121.27420377747588 20.20807746449766,121.0168138716325 20.172438862140126,120.78318303440116 20.185308357414595,120.54163250777017 20.20411761979782,120.2921622917395 20.24965583384594,120.03477238625015 20.315983232568193,119.79322185944214 20.39617008768087,119.56355086702867 20.41299942765517,119.32200034039766 20.312023387868354,119.0408513667093 20.310043465459433,119.0091726088746 20.315983232568193,118.97749385145292 20.359541524207383,118.85473866569899 20.465467369928,118.63298736233115 20.471407136977753,118.37955730183667 20.42388900057972,118.12216739622932 20.399139971205745,118.06276972573177 20.255595600836685,117.83705857795913 20.07938251169398,117.6271868087498 19.859611130853075,117.4093953501408 19.601231264188765,117.21932280454867 19.333941747008836,117.05300932739156 19.105260715534293,116.89065569463928 18.99240514170698,116.83125802396472 18.83599127594544,116.74810128550419 18.537023001107812,116.60158703155125 18.446936534245545,116.52239013767253 18.341010688465925,116.36003650492025 18.320221503791785,116.11848597828926 18.22023542517993,115.95613234553697 17.99353431611431,115.78189917856716 17.739114294090832,115.63142508020941 17.46588500986115,115.51658958385516 17.161966929089722,115.45719191306259 16.847159275511757,115.40967377695958 16.535321505340654,115.31859734886335 16.271991832801554,115.16416340556974 16.0413308790361,114.97013101498274 16.008662160321457,114.95825148094224 15.754242138356988,114.78005846939061 15.71167380783375,114.72066079912909 15.709693885424825,114.59790561337516 15.742362604198473,114.52266856413729 15.758201983056825,114.49890949587926 15.778001206556004,114.47119058309842 15.82650930406999,114.42367244664139 15.953224334464746,114.34843539716748 16.228433541162364,114.19796129863272 16.25516249282725,114.18212192001039 16.27595167750139,114.15836285157535 16.292781017475694,114.13460378337633 16.31753004684967,114.08708564691929 16.33039954218314,114.03956751087529 16.32841961977422,113.98808952942339 16.30367059040024,113.94849108277906 16.0413308790361,113.78613745002677 15.750282293716158,113.6792216431312 15.675045244360266,113.6713019534955 15.531500873991206,113.62774366203332 15.268171201393098,113.4614301845222 15.066219121701456,113.2396788814494 14.769230769213749,112.77637705145055 14.616776748270057,112.53086668000171 14.417794552162299,112.3091153769879 14.210892666595862,112.10320345259643 14.087147519725983,111.87749230458776 14.007950625670254,111.63594177795676 13.965382295147016,111.39835109573056 13.925783848207661,111.1370013456594 13.883215517625418,110.90337050825106 13.783229438954555,110.65786013715625 13.646614796928223,110.42026945516608 13.477331435951221,110.19851815173924 13.46149205709287,110.1707992390764 13.414963881928804,110.1391204813007 13.229841142211464,109.92924871209136 13.019969373061144,109.72333678769989 12.88137480856688,109.63622020459853 12.610125446687112,109.46990672720541 12.334916240107509,109.30359324969429 12.100295441524207,109.14519946170084 11.8686445266428,108.95116707134986 11.655802873967604,108.86009064325363 11.609274698744528,108.84821110921312 11.42514192020215,108.83633157523164 11.38356355085387,108.84029141963644 11.232099491144146,108.87593002223 11.193491005261738,108.87988986687083 11.074695664266653,108.87593002223 11.035097217327298,108.8680103326533 10.997478692678856,108.8561307986128 10.959860168030412,108.83633157523164 10.928181410431723,108.81653235161444 10.737118903664632,108.59478104860064 10.35004408425565,108.19483673362215 10.330244860815476,108.17107766560017 10.262927500859256,108.03248310086987 10.15007192685492,107.53750251339035 10.09958390693201,107.29991183169523 10.040186236493474,107.04252192591085 9.927330662489139,106.78909186523934 9.770916796845613,106.54754133843133 9.61252300897018,106.34162941421687 9.492737706741131,106.12383795560787 9.32444430693909,105.90208665259406 9.15813082960498,105.67241565976755 9.04131541090081,105.43878482253622 8.891831273481996,105.20911383012275 8.863122399408184,105.1813949172829 8.736407369013428,105.09031848900965 8.500796609373179,104.92400501179355 8.251326393401516,104.73393246626043 7.955328001970754,104.59929774628898 7.685068601265946,104.44486380317238 7.37818063696964,104.32210861741846 7.096041702165324,104.2072731209462 6.804993116668363,104.07263840103376 6.7673745920199195,104.06075886699325 6.728766106255524,104.04887933318878 6.415938374909465,104.06867855639292 6.3822796950198635,104.06867855639292 6.352580859771093,104.05679902241143 6.244675091641553,103.98156197293753 6.112020294197043,103.81920834036225 5.973425729761785,103.59349719235358 5.86947980633208,103.35986635512226 5.758604154795676,103.11435598385043 5.58437098794388,102.88864483607779 5.423997277600518,102.65501399884647 5.228974926133589,102.44514222963714 4.971585020703248,102.31050750990171 4.8547696019990765,102.278828752067 4.564710977736081,102.17587278998927 4.53501214248731,102.15607356637209 4.448885520265875,102.09667589611057 4.211294838275708,101.90660335051844 4.0628006620318535,101.69277173649125 3.898467107047661,101.4551810546781 3.7093845226304865,101.24926913028663 3.5094123652297564,101.04335720589515 3.318349858462664,100.83348543668583 3.121347584645817,100.63153335705319 2.9401846896283153,100.43750096670222 2.8154495815834775,100.33850484920632 2.560039598444048,100.1603118378317 2.3036396541296598,99.97815898146222 2.0393200205336117,99.8237250381096 2.010611146341787,99.8118455040691 1.8066791443002272,99.76828721260694 1.7106529103292014,99.76432736784808 1.6423455893160348,99.76828721260694 1.6086869093084215,99.77224705724777 1.5770081517687389,99.76432736784808 1.5492892388108799,99.75244783363057 1.5235502483209513,99.73660845500824 1.4997911800629284,99.7207690762089 1.4453433155581943,99.6772107845107 1.4196043249502532,99.65741156095251 1.3889155284675172,99.64157218209417 1.352286964994033,99.6257328031178 1.313678479170631,99.6138532690773 1.2760599545811941,99.59801389027795 1.1988429828753837,99.57821466701479 1.1572646135271045,99.57029497761512 1.0077804761672975,99.53861622001644 0.897894785687839,99.53465637502157 0.8662160280891501,99.53861622001644 0.5434886850525067,99.57821466701479 0.5038902381131518,99.57029497761512 0.47221148045545663,99.55445559863877 0.4474624510814809,99.53069653061677 0.39994431468344754,99.46733901536038 0.33361691596119264,99.36834289786448 0.27916905133844605,99.26934678036858 0.15740382687749183,99.02383640874271 0.05840770938158897,98.79812526091106 0.003959844699836115,98.69516929901035 0,98.60805271531892 0.008909650633637542,98.48925737455987 0.026728951723893772,98.4496589275615 0.049498058747951434,98.41798016972679 0.07424708812192715,98.38234156766428 0.2177914584909863,98.23582731377036 0.3138176925210184,98.16059026429645 0.552398335627138,97.99823663154416 0.6513944531230409,97.9111200484428 0.7533604541438208,97.80024439655236 0.7860291729174688,97.75272626009532 0.8068183575916084,97.70520812405132 0.827607542265748,97.59037262769706 0.8295874646746723,97.52305526768184 0.8503766493488119,97.47157728658397 0.8701758727889861,97.44781821820794 0.9087843586713946,97.42009930536808 0.9374932327452064,97.40821977156361 0.9731318349847251,97.3963402373461 1.0127302819830863,97.38446070312857 1.0958870206796447,97.36862132432923 1.2839796439808664,97.2973441198502 1.51464059774632,97.1112314190759 1.721542483312757,96.8934399604669 1.8621169700979328,96.66772881263525 1.9036953394462122,96.51329486910562 1.9056752617961301,96.34302154713068 1.904685300621171,96.30738294489116 1.9225046018294398,96.13314977792135 1.833408096024121,95.7965629786123 2.0056613405259984,95.55897229638612 2.0521895156900665,95.32138161469098 2.1224767591121574,95.0521121748661 2.152175594360928,95.00459403864508 2.1828643908436645,94.95707590218804 2.341258178778103,94.73136475417937 2.4026357716255626,94.67988677331752 2.4372844127491287,94.65216786030066 2.561029559619007,94.57297096642195 2.59864808426745,94.55713158738658 2.701604046463189,94.51357329574739 2.7352627264708023,94.49773391694805 2.769911367535362,94.47793469333085 2.8896966697054047,94.39477795481132 2.9203854661291344,94.37497873143015 2.955034107370713,94.35913935239478 2.993642593076103,94.34329997359544 3.038190845949259,94.33538028419575 3.2629120327239645,94.29974168195623 3.3054803632472027,94.2957818373154 3.5895992204604443,94.16510696222082 3.82817986362557,93.97503441645166 3.846989125890785,93.94731550361182 3.871738155264761,93.89583752274997 3.8974771458136956,93.82456031809392 3.931135825821309,93.78100202645473 3.9548948939613195,93.76516264741936 3.9816238457442195,93.74932326862002 4.011322680933984,93.74140357922035 4.144967439553453,93.70972482173967 4.178626119561066,93.70576497698082 4.222184411200257,93.6938854427633 4.262772819373577,93.68200590895883 4.305341149896815,93.66616652992346 4.344939596954183,93.65428699611897 4.3795882380187425,93.63448777250179 4.41225695679239,93.61864839370244 4.444925675566038,93.5948893252674 4.482544200214481,93.56321056784573 4.505313307297546,93.53549165500588 4.5261024919716855,93.51173258674785 4.5439217930619415,93.48797351837182 4.559761171861286,93.46025460553197 4.577580473010548,93.4285758481103 4.639948027032967,93.3493789542316 4.663707095231984,93.32166004121473 4.714195115154895,93.24642299174083 4.728054571663327,93.21870407890098 4.745873872753584,93.16722609786211 4.751813639803338,93.13554734038144 4.760723290436975,93.0444709122852 4.773592785711442,92.8939968133964 4.7468638339285425,92.71184395738096 4.73894414452887,92.65640613176028 4.756763445737139,92.47029343057295 4.717164998679771,92.42277529429293 4.655787405832312,92.3752571578949 4.633018298867261,92.34753824505505 4.587480084819145,92.27230119558114 4.560751133036245,92.22082321454228 4.522142647271849,92.13766647584572 4.503333384888621,92.11390740782372 4.48056427792357,92.09410818402951 4.432056180291571,92.05450973732619 4.373648471027995,91.9832325324931 4.276632275823004,91.85651750233437 4.262772819373577,91.82879858931751 4.237033828883649,91.7496016954388 4.19545545953537,91.71396309284525 4.021222292683574,91.58724806250949 4.004392952709271,91.56348899431048 3.9935033798437276,91.51201101344863 4.075670157365328,91.28629986543996 4.092499497339631,91.26254079735895 4.112298720779805,91.2348218843421 4.134077866687909,91.21106281596606 4.231094061774888,91.1239462328647 4.2538631688579525,91.10414700907049 4.305341149896815,91.03682964935028 4.313260839296488,90.9853516681344 4.388497888593374,90.83091772495881 4.496403656722914,90.57748766434632 4.505313307297546,90.45077263383355 4.50432334606358,90.39137496315898 4.5063032684134985,90.35969620573732 4.517192841397054,90.33197729289746 4.5696607836108765,90.23694101998339 4.602329502384524,90.19734257298504 4.7726028245364835,90.01518971661555 4.795371931501535,89.98747080377571 4.9636653313035755,89.78947856878389 4.990394282968463,89.7657195007619 5.124039041646938,89.63900447042614 5.339850577729001,89.46477130345635 5.548732385704362,89.29845782629926 5.752664387686916,89.11630496992977 5.790282912335359,89.0648269888909 5.929867438004582,88.84307568546406 5.956596389787482,88.79555754942007 6.05361258487446,88.5817259355699 6.116970100071838,88.16198239721027 6.166468158819789,87.91647202576141 6.203096722293274,87.78579715084385 6.2100264505179865,87.69076087810679 6.213986295217823,87.65512227551322 6.261504431615856,87.42941112768158 6.333771597387865,87.18786060105057 6.341691286787538,87.1601416880337 6.433757676058727,86.92651085080239 6.541663444129261,86.70079970314775 6.602051075801762,86.56220513865348 6.618880415776065,86.47904839977991 6.657488901599468,86.30481523316413 6.668378474524017,86.05534501677944 6.658478862833433,85.82963386894778 6.617890454719119,85.5999628765343 6.629769988759621,85.34653281568579 6.657488901599468,85.1525004252758 6.6852078144983205,84.98618694811871 6.689167659198157,84.954508190284 6.694117465072952,84.7208773532297 6.699067271006753,84.47932682624466 6.715896610981057,84.22193692099134 6.731735989721395,83.98830608376001 6.776284242594551,83.7586350909335 6.789153737869018,83.72299648869398 6.878250243615331,83.50520503026199 6.975266438820322,83.2755340376715 6.993085739969585,83.24385528019083 7.114850964430539,83.02210397682299 7.197017741952138,82.77263376079232 7.201967547826933,82.6973967113184 7.189098052552466,82.63799904105689 7.177218518452958,82.61028012821704 7.163359062003531,82.58256121520019 7.030704264559021,82.36872960158605 7.025754458743233,82.33705084375134 7.025754458743233,82.30537208632967 7.03268418690894,82.2538941052318 7.054463332817044,82.18657674521657 7.069312750382424,82.1588578321997 7.088122012824657,82.12717907471902 7.112871042198633,82.09946016193818 7.284134325348533,81.89750808195151 7.301953626556801,81.86582932470687 7.423718851017756,81.63615833188034 7.440548190992059,81.60447957445868 7.538554347313003,81.38668811584968 7.5524138037624295,81.355009358369 7.642500270683701,81.16097696801802 7.6543798047832095,81.13325805500115 7.680118795332144,81.07386038473965 7.747436155288364,80.93922566476819 7.841482466909472,80.70955467200068 7.851382078600056,80.67787591475603 7.914739593797434,80.45216476674736 8.040464663076238,80.23041346332052 8.176089344045623,80.01262200488853 8.194898606310838,79.98094324728984 8.31171402501501,79.77107147843455 8.451298550625227,79.5136815728272 8.553264551646008,79.2840105803547 8.659190397425629,79.07413881120439 8.671069931525139,79.04246005336968 8.715618184339288,78.91970486785178 8.72353787373896,78.8880261103711 8.731457563138633,78.82070875035588 8.736407369013428,78.7890299928752 8.82550387475974,78.57915822372487 8.841343253559085,78.55143931088503 8.940339371054987,78.333647852099 8.95518878873838,78.30592893925916 9.081903819074128,78.09209732564503 9.146251295505472,77.9891413635083 9.210598771818802,77.88618540125356 9.329394112813885,77.6723537874034 9.344243530497277,77.64463487462255 9.414530773978376,77.52979937809128 9.454129220858723,77.41100403739124 9.468978638483108,77.38328512437437 9.700629553423521,77.0268991012121 9.717458893397826,76.88038484743618 9.679840368749382,76.40916332821469 9.758047301571144,76.25076954004422 9.872882797866392,75.89042367247714 9.960989342437745,75.68055190350384 10.08077464460779,75.43900137687285 10.295596219573898,75.06281613009338 10.650992281443195,74.63911274750595 11.056876363117391,74.30252594778386 11.377623783863122,74.06493526573469 11.783507865537318,73.79566582608682 11.846865380793702,73.74022800058415 12.040897771085671,73.57391452307301 12.241859889543347,73.35216322005921 12.35273554113876,73.14625129560874 12.38441429885546,72.99577719671993 12.397283794011916,72.94033937121725 12.232950238968717,72.57207381389647 11.578585902379805,71.57419294953777 10.907392225757583,70.55255301715707 10.25896765615942,69.45963587988429 9.826354622702324,68.3192006063905 9.684790174624178,67.64206716254151 9.667960834649874,66.77090132887258 9.76299710744594,65.81657875615308 9.65212145585053,64.55338829672834 9.537285959614287,63.31791675049748 9.253167102401047,61.03704620333288 9.471948522066992,59.12444121325303 9.813485127427857,58.27307460284727 10.196600102077994,57.72661603432889 10.86086405053451,56.855450200482956 11.501368930733001,56.2377144270725 12.439852124535154,55.410106884865755 12.954631935513849,52.76889047031109 16.34326903745761,49.87028414991305 18.04105245245334,49.56537610802567 20.870361490486243,48.78924654685778 21.47027796257042,48.62293306928765 21.587093381156578,48.57145508824879 21.896951228918756,47.84284366336093 22.096923386319485,47.26866618217972 22.096923386319485,47.225107890540535 22.096923386319485,47.16175037528415 22.118702532168584,46.409379882315285 22.129592105034128,46.092592306210385 22.12563226033429,45.94607805231645 22.12266237686842,45.70848737026728 22.12365233798437,45.56989280595003 22.11672260975966,45.264984763826625 22.100883230960314,45.11451066529186 22.146421445067435,44.78188371038761 22.27511639781211,44.572011941355306 22.402821389381824,44.42945753239723 22.48894801160326,44.30274250188446 22.678030595961427,44.06911166447612 22.878002753421164,43.81964144844545 22.966109297874507,43.69688626292755 23.212609630439303,43.39593806544497 23.271017339761887,43.229624588287884 23.265077572771137,42.841559807703945 23.260127766896343,42.69108570893315 23.266067533887092,42.39013751186362 23.256167922196507,42.132747606374274 23.240328543397162,41.96247428439933 23.195780290465,41.74864267043116 23.096784172969098,41.46353385216097 23.006697706047824,41.17842503389079 22.823554888739412,40.54089003704015 22.77999659698221,40.36665687030637 22.736438305343018,40.176584324714234 22.60576343030743,39.83207783559247 22.522606691551868,39.6697242030172 22.4008414669729,39.34897678250749 22.21373880496465,38.762919766754734 22.085043852219975,38.31941716031408 21.982087890024236,38.065987099642584 21.91279060783611,37.69376169791699 21.81181456787228,37.472010394667166 21.770236198524,37.39281350061144 21.597982954140132,36.818636019076195 21.448498816662315,36.38305310221223 21.433649399096936,36.28801682935716 21.415830097888666,36.15338210962174 21.36237219444088,36.02270723464516 21.291094989843828,35.919751272390414 21.218827824130827,35.781156707660124 21.20991817349719,35.6465219879247 21.195068755990814,35.507927423607455 21.183189221773294,35.34953363543699 21.190118950057013,35.084224040784 21.253476465195387,35.001067301910425 21.306934368643173,34.929790097431386 21.317823941626727,34.791195532701096 21.247536698204637,34.628841900302845 21.218827824130827,34.5258859380481 21.20892821232223,34.41501028633468 21.243576853504802,34.27245587719958 21.286145183969033,34.074463642207775 21.3207938250926,33.92794938825484 21.34158300976674,33.78935482393759 21.360392272090962,33.63888072534382 21.387121223814855,33.520085384230725 21.427709631988176,33.195378118962175 21.448498816662315,32.977586660353175 21.47126792374538,32.71227706528713 21.49898683664423,32.565762811747234 21.545515011867305,32.38756979995958 21.55541462355789,32.14205942874676 21.56135439066665,31.635199307049724 21.55442466238293,31.35801017817921 21.553434701266976,31.167937632587076 21.558384507082767,30.962025708195597 21.586103420040626,30.716515336569735 21.61679221640535,30.486844344333278 21.661340469278507,30.383888381842507 21.843493325470966,30.205695370467893 21.937539637210087,30.122538631594317 22.056334978146165,30.043341737892625 22.183050008481914,29.96810468841872 22.31768472827634,29.888907794362993 22.486968089194335,29.80179121126163 22.639422110138025,29.702795093765726 22.755247567608233,29.603798976269825 22.933440579100857,29.453324877499032 23.08193475534471,29.350368915421306 23.365063651382993,29.18801528266902 23.603644294607125,29.077139630955596 23.92439171529385,28.906866308803636 24.178811737199315,28.776191433886062 24.713390771736197,28.522761373037547 25.330136583676666,28.158455660475603 25.95579204625077,27.829788550566224 26.502250614887163,27.62783647075657 27.408065089915667,27.295209516029345 28.17033519463412,26.930903803880447 28.853408405414854,26.301288496488493 29.55430091722684,25.699392102054397 30.189855991609544,25.00245943482423 30.741264366002717,24.436201642865683 30.946186329337248,24.440161487624525 31.49858466490538,24.448081177083203 32.028213893449454,24.4718402451052 32.78454423117716,24.487679623727526 33.48840662651402,24.507478847344718 34.11604201143805,24.467880400287353 34.368482111111604,24.444121332088336 34.735757707021406,24.38472366182682 35.21291899329265,24.246129097096528 35.742548221954735,23.98873919184321 36.11477362368032,23.73134928617684 36.60579436646,23.26804745653204 36.78794722265246,23.11757335776125 36.95723058357046,22.990858327248482 37.1086946434572,22.907701588787948 37.20967068318501,22.852263762931237 37.34232548068852,22.77702671345733 37.471020433433196,22.705749508801276 37.57397639562894,22.6503116832986 37.73633002826321,22.495877739768968 37.68089220252451,22.31372488381253 37.583876007319525,22.206809076916954 37.51655864748131,22.111772803825858 37.468050549849316,21.989017618307958 37.468050549849316,21.87418212218973 37.504679113440815,21.719748178837115 37.54130767685529,21.581153614106825 37.55615709442067,21.490077186010595 37.568036628520176,21.35148262169335 37.585855929728446,21.22080774636273 37.583876007319525,20.999056443348927 37.56407678382034,20.87630125777202 37.54130767685529,20.698108246043372 37.537347832155454,20.630790886382183 37.518538569772225,20.452597874771545 37.486859812232545,20.317963154859104 37.470030472199234,20.203127658563858 37.454191093458896,20.084332317804797 37.4393416757755,19.830902257015286 37.52546829799694,19.593311574789094 37.781868242311326,19.375520116357116 38.079846555973994,19.209206639200023 38.179832634703864,19.137929434543967 38.36099552966236,19.003294714808543 38.44613219070884,18.924097820516792 38.5847267552621,18.698386672862156 38.63719469747593,18.551872418968223 38.72629120322224,18.1004501231279 38.74312054319655,17.993534316232324 38.744110504371505,17.87869881987807 38.71441166912273,17.72426487676148 38.688672678573795,17.55399155460952 38.67283329977445,17.28868195954348 38.67382326094941,17.15404723963104 38.696592368032476,16.952095159998407 38.95398227346282,16.607588671289683 39.09653668271592,16.520472087952296 39.239091091851016,16.401676746898204 39.29353895653277,16.215564046064912 39.36877600582966,16.049250568553784 39.54102925027253,15.89085678056034 39.94889325429664,15.910656004000515 40.33200822900579,15.946294606240032 40.63592630971821,15.855218178143803 40.8319386224191,15.562189670473943 41.00023202210313,15.269161162568057 41.089328527849446,15.03157048075491 41.34968831686367,14.762301041107047 41.58034927062912,14.532630048634566 41.785271233904645,14.326718124066069 42.08621943109219,14.08912744225292 42.35053906480625,13.851536760026729 42.62079846551106,13.64166499117144 42.87620844865049,13.451592445579307 43.11478909181562,13.233800987029314 43.29991183159196,13.012049683602466 43.479094804200535,12.810097604205856 44.745255146973136,12.358675308365532 49.12385342387593,14.437593775779492 49.24561864833688,14.445513465002145 49.389163018705936,14.473232378019011 49.54359696205855,14.493031601636204 49.754458692324825,14.500951291035877 49.98412968485631,14.512830825017373 50.254389085679136,14.5049111356177 50.4652508158864,14.46135284380149 51.103775773793984,14.2950393666444 51.54331853541679,14.168324336131631 51.69973240106031,14.104966821052265 51.79278875156547,14.009930548138186 55.698185586778834,11.911212857343058 57.02473356116493,13.491190892282637 59.48181719753125,15.324598988601789 63.44859162553307,16.659066652151527 68.9181271171817,22.309765038817662 73.78180636975542,22.622592770281734 75.99733947931372,23.1571718046416 80.54819100054137,26.9388234931031 89.82907701578226,18.219245464240995 97.42504911130189,9.26999644237535 99.33765410126372,8.842333214970068 99.9276709615393,9.103682965218258 100.03260684614398,9.060124673343042 100.22465931402702,8.937369487471104 100.46126003490123,8.751256786873839 100.52362758892365,8.699778805775969 100.65232254160932,8.644340979978264 100.93941128240644,8.533465328264839 101.0997849926908,8.478027502408127 101.20175099371158,8.458228278790934 101.33440579115609,8.446348744986457 101.52645825909813,8.462188123785802 101.70861111529061,8.470107813008456 101.86601494210909,8.466147968367626 101.99174001138789,8.446348744986457 102.1075654688581,8.41862983214661 102.22339092638731,8.371111695512553 102.31446735436553,8.315673869655841 102.46395149178434,8.165199771298093 102.70946186323319,7.8761311080330385 102.76885953367172,7.796934214154328 102.78469891247107,7.725657009675291 102.76093984427204,7.634580581402042 102.6728332997597,7.444508035809908 102.64016458092705,7.305913471433657 102.64016458092705,7.214837043337426 102.67580318328459,7.15939921753972 102.75104023258146,7.139599993922527 102.84805642766844,7.1475196833222 103.02921932268595,7.171278751344198 103.23117140237758,7.15939921753972 103.38758526802111,7.171278751344198 103.51925010429066,7.167318906939393 103.61824622178656,7.131680304699874 103.75585082510587,7.0643629444486225 103.83207783569573,6.9970455847874335 103.98354189540545,6.775294281360586 104.10134727516657,6.589181580586301 104.26172098550994,6.422868103370203 104.5359402310326,6.110040371906131 104.6082073967456,6.011044254410228 104.63889619316933,5.769493727602213 104.69433401896703,5.654658231483984 104.78541044706326,5.575461337605274 104.92994477860728,5.4804250645141765 105.03884050785277,5.361629723578099 105.09031848895064,5.2943123639169105 105.1734752276472,5.116119352365279 105.72290367974946,5.219075314443005 105.74567278683253,5.1834367120264675 105.81101022437983,5.215115469861182 105.90109669124209,5.226995004019696 106.02583179934594,5.215115469861182 106.10997849915844,5.19135640142614 106.21689430605402,5.120079196947103 106.46933440566858,4.922086961955297 106.64851737839516,4.791412087037724 106.73563396179155,4.743893950403665 106.8267103899468,4.708255348164147 106.91679685680906,4.692415969541821 107.04153196479488,4.712215192922989 107.30189175380912,4.7597333292030095 107.50186391120984,4.80329162101922 107.70678587436736,4.866649136098585 107.87903911881023,4.9260468067731455 107.92457733285835,4.85080975729924 108.27403362767788,4.8824885151339545 108.66308836937777,4.886448359538759 108.971956255965,4.898327893933299 109.23231604497921,4.894368048938431 109.51544494107651,4.870608980916433 109.696607836094,4.815171155059722 109.85500162402845,4.763693174020858 110.07477300486936,4.747853795398533 110.3034540363439,4.7597333292030095 110.5014462713357,4.783492397638051 110.83209330371301,4.779532552643184 111.33103373601037,4.763693174020858 111.74483750702524,4.755773484798205 112.08538415127015,4.739934105939854 112.34871382380925,4.771612863420531 112.61303345752331,4.834970378676915 112.83676468300504,4.890408204533626 113.01495769449767,4.914167272555624 113.19711055069013,4.930006651531988 113.40302247508161,4.930006651531988 113.60992436064804,4.922086961955297 113.90889263554467,4.874568825498257 114.16628254097502,4.799331776437396 114.27715819257043,4.7597333292030095 114.46723073816256,4.5815403176513785 115.06912713253766,4.712215192922989 116.16699407556722,4.862689291516761 116.89065569452127,4.97356494299416 117.74400222733595,5.2507540722777195 118.44588470038191,5.547742424765428 119.16855635804299,6.03480332284527 120.90791814250501,6.565422512564303 122.33643211791188,6.902009311873354 123.01455552275881,6.89804946729153 128.43855280035933,7.349471762895829 129.95022351458078,6.201116800002362 130.4135253444026,5.8486906216579415 134.44068740413593,0.2296709928265198 143.28401058004494,0 148.47635694270502,1.8967656112214988 154.40622438076863,6.224875868378398 157.50282293598144,6.7198564558579115 159.25505421565893,7.048523565826296Z"/></svg>