<svg xmlns="http://www.w3.org/2000/svg" width="256" height="256"><path d="M101.92146490393736,2.434994912569071 104.19043743700801,4.4663275682962045 105.75625635848827,5.924720243396878 105.8864699906164,6.067955238699018 107.31881993936906,4.804883010626343 108.80325534120583,4.830925736974356 109.23296032614208,4.85696846390447 109.83845371353935,4.909053916794529 111.02665310336148,5.065310273718408 112.09766022442354,5.260630722492708 112.65757884071178,5.4038657172127476 113.18168870865958,5.5731434376987 113.70254323542581,5.755442522328826 115.89013224865893,5.169481179886595 116.6095625640228,4.752797558512417 117.06205493451355,4.375178026466225 117.48199389687527,4.075686673464072 118.04516785395703,4.362156662322051 117.98331637907452,4.765818921298356 117.95076297094548,5.091353000648522 117.97029501590052,5.351780264516721 118.0028484236415,5.924720243396878 117.97355035649998,6.588809765659283 117.95076297094548,7.2398779243596145 117.89867751824944,7.539369277943867 117.88891149606297,7.825839266801846 117.88891149606297,8.021159714800012 117.87263479209547,8.411800609826177 117.94750763015197,8.659206510714403 118.06144455792453,9.114954221804634 118.14608341874961,9.388402847876673 118.24048830176116,9.596744658272712 118.49440488346025,9.844150559160939 118.88830111947395,10.15666327494903 119.05757884073604,9.987385553880978 119.69888097705586,9.375381485090733 120.15462868834013,8.893591047458456 120.60386571764933,8.385757883478163 120.98474059048901,7.877924719497872 121.40793489364424,7.3700915560996805 121.6878942020794,7.044557476749515 122.30315361185718,6.289318412657131 122.51149542283532,6.054933875913079 122.83377416119795,5.65127161674274 123.09094608388459,5.364801626720561 123.40020345926725,5.065310273718408 123.94710071257552,4.544455747534277 124.45493387655581,4.7788402842783295 124.66327568714588,4.752797558512417 124.89766022427801,4.7007121058163905 126.4406917603978,4.440284841948191 127.39776195388131,4.323092572994065 127.9674465927441,4.231943031552152 128.51759918665184,4.140793488946039 129.18494404951372,3.880366225853973 129.80996948186603,3.5938962352496935 130.3698880981543,3.3855544242715543 131.1576805701817,3.086063071269402 131.75015259479304,2.8516785345253495 131.94221770160962,2.8126144451973634 132.18636826112225,2.7865717182672496 133.04577823041265,2.8256358081773363 133.35178026519583,2.864699898087423 134.20142421210574,3.528789419573694 134.53021363244343,3.750152594113907 134.89481180131563,3.932451678744033 135.1226856566667,4.0626653093198986 135.2236012214593,4.049643947116059 135.2366225846333,4.401220752814238 135.2984740595158,4.830925736974356 135.50681587049394,5.169481179886595 135.97558494456413,5.4950152592367605 136.25879959359878,5.7033570702149 136.577822991556,6.015869785420891 136.93591047864712,6.289318412657131 137.2939979659323,6.49766022363527 137.58046795595448,6.64089521777321 138.2510681592218,6.901322481447376 138.38128179115589,6.966429297123375 138.56683621619146,7.213835198593701 138.74262461904055,7.474262461685767 138.91190234049665,7.747711088339906 139.0681586983907,8.060223804127999 139.2276703972723,8.320651067220064 139.38067141456688,8.568056968108289 139.54669379503545,8.802441504852341 139.69969481252406,9.062868768526508 139.8038657177221,9.23214648959456 139.9829094615587,9.336317395180647 140.18799593154932,9.42746693778676 140.34425228944335,9.518616479810772 140.50376398832495,9.753001017136926 140.64699898343304,10.039471006577005 140.7609359110116,10.234791454769203 140.82604272707565,10.338962359579156 140.9692777217957,10.56032553411937 141.1645981695998,10.768667345097509 141.56500508700648,11.016073244627501 141.33387589066785,11.15930823934754 141.2231943036888,11.22441505502354 141.09298067194874,11.484842318697705 140.79674465993412,11.836419124395885 139.0681586983907,13.42502543201276 139.12024415108675,14.766225838547374 139.14954221822825,15.052695828763587 139.1820956263573,15.391251270899692 139.1951169895313,16.17253306153412 139.21464903409827,16.758494403976353 139.22441505667283,17.292370294304657 139.20162767092427,17.878331637911092 139.19186164854378,18.46429298035332 139.13001017366128,19.753407934385944 139.10396744731327,19.896642929105983 138.94120040763818,20.977416073324665 138.8044760943111,21.771719226745038 138.72960325586655,22.266531026581156 138.635198372855,22.761342828163574 138.71658189269255,23.047812817797684 138.99003051934667,23.763987792562084 139.74201424303362,25.704170905295037 140.00244150612568,26.550559510829334 140.24008138424534,27.097456764719713 140.48748728455146,27.89175991814008 140.89114954294567,29.063682603606644 140.7576805704121,29.37619532017087 140.52329603308596,30.10539165733314 140.36378433439842,30.86063072220166 140.19776195373578,31.772126144576156 140.09033570774426,32.319023397108296 139.9829094615587,32.97009155580863 139.90152594172116,33.33468972448678 139.77131230978708,33.998779247331285 139.68992878994953,34.41546286851143 139.4718209567849,35.222787384911776 139.26022380520732,35.71759918591209 139.17884028536977,35.938962359288105 139.3481180068259,36.03011190189422 139.80061037692857,36.30356052913046 140.59491353073702,36.78535096656871 141.20691760010936,37.21505595092285 142.08911495476025,37.670803662013085 142.53509664366402,37.8270600197131 143.00386571773421,38.0223804679053 143.7265513740856,38.33489318369339 144.40366225913397,38.673448626605634 144.85940997003016,38.868769073439594 145.7285859618951,39.4026449637679 146.52288911570355,39.92349949111623 147.46693794562498,40.53550356068261 148.16358087562838,40.913123092146705 149.17599186221335,41.264699897844885 149.8628687696422,41.56419125084703 150.6408952192891,42.0199389627134 151.20406917656487,42.41057985696343 151.8356052905042,42.87934893161574 152.385757884606,43.21790437394588 153.1898270606009,43.64760935946423 153.7888097666052,43.921057985924335 154.41709053994504,44.15544252266839 154.73611393751418,44.2465920652745 154.95096642988528,44.3116988803684 155.26347914606146,44.3768056966265 155.68016276762967,44.454933875088436 156.13916581970742,44.52004069134654 156.61770091615813,44.55910478125662 157.0734486274424,44.58514750760464 157.4543235002821,44.59816887097268 157.7049847411877,44.61119023337055 157.92960325613333,44.62421159751472 158.14120040751692,44.66327568606658 158.36581892226852,44.74140386588675 158.65879959387772,44.88463886060679 159.29684638940404,45.223194303324995 159.75584944109374,45.47060020304902 160.12695829174694,45.67894201402716 161.31841302216856,46.34303153551343 161.71230925818224,46.56439470947154 162.14201424273045,46.81180061035977 162.67263479207122,47.16337741605795 162.9460834189194,47.358697862891916 163.0600203464979,47.4628687690601 163.19023397843202,47.63214649012815 163.222787386173,47.72329603273427 163.34974567711956,47.944659205916246 163.41485249298958,48.231129196714555 162.74099694873476,48.79104781280878 162.3894201432306,49.11658189215894 162.21363174038152,49.27283824966492 162.0899287900344,49.416073245161094 161.94669379512035,49.63743641834307 161.83275686754183,49.87182095566922 161.73184130274925,50.145269582323365 161.6244150565637,50.44476093590762 161.55930824069364,50.62706002053774 161.50071210641062,50.77029501525778 161.4128179051801,50.874465920067735 161.25656154689798,50.97863682623592 160.97009155706985,51.06978636825993 160.74872838330577,51.10885045797599 160.2799593088475,51.09582909460795 160.18555442583596,51.14791454672187 160.14323499552043,51.29114954144191 160.1334689731399,51.47344862607204 160.0944048836179,51.668769074070205 160.0716174982574,51.77293997907419 160.0195320455614,51.89013224744622 159.92512716274388,52.04638860631043 159.78514750842928,52.22868769094055 159.6744659212562,52.42400813777452 159.54099694891664,52.619328585772685 159.5116988815811,52.73652085472681 159.69074262541773,52.970905391470865 160.01302136378035,53.283418107452995 160.25066124209405,53.569888096893074 160.44272634852257,53.76520854566737 160.62502543295867,53.99959308241142 160.8821973556453,54.23397761973757 161.0970498480164,54.468362156481625 161.27934893264654,54.63763987754968 161.39328586022506,54.80691759861774 161.40956256419258,54.95015259411391 161.3737538156581,55.06734486306803 161.21424211658248,55.27568667346407 160.78453713184027,55.65330620551026 160.45249237109712,55.952797558512415 160.3320447619316,56.096032553232455 160.257171923293,56.161139369490556 160.18555442583596,56.239267547952494 160.15300101809495,56.369481180468696 160.13021363234643,56.564801627302664 160.11719226917242,57.13774160754105 160.14649033631392,57.29399796562913 160.1692777222565,57.723702949983284 160.18555442583596,58.101322481447376 160.12370295095346,58.37477110868362 160.0651068164764,58.63519837177568 160.0911495428244,59.064903357294035 160.11719226917242,59.3904374366442 160.13997965492095,59.481586978474176 160.257171923293,59.67690742608428 160.40040691820707,59.91129196282833 160.53062055014115,60.14567650015448 160.63479145533918,60.367039674694695 160.65432350029423,60.56236012152866 160.62177009216518,60.744659206740884 160.5110885051861,61.04415055974304 160.41342828176914,61.31759918562104 160.37761953265255,61.49989827083327 160.38087487344606,61.65615462795118 160.4362156671296,61.7473041705573 160.6152594107722,61.90356052942151 160.85615462949133,62.07283824990746 161.0514750769074,62.2160732446275 161.2728382508655,62.385350966277656 161.4356052905406,62.56765005032568 161.57232960386764,62.77599186130382 161.68626653183424,62.93224821958593 161.73835198453028,63.03641912497798 161.76113936989074,63.17965412047416 161.81648016338028,63.34893184154221 161.8718209568698,63.505188199824325 161.9076297055983,63.63540183040019 161.98901322543585,63.817700915030315 162.0443540189254,64.0390640893765 162.11597151638244,64.2604272627525 162.2592065112965,64.61200406845069 162.39593082462358,64.87243133212485 162.46103764068764,64.97660223829304 162.59776195382068,65.11983723243098 162.8191251277788,65.28911495349902 162.99165818983437,65.39328585966722 163.1934893192255,65.49745676447716 163.4083418115966,65.60162767064536 163.52553407996865,65.7057985754553 163.6329603261542,65.8360122073894 163.71108850519823,66.07039674471557 163.7859613436428,66.25269582934568 163.86408952249283,66.44801627617966 163.9650050872854,66.60427263504387 164.06917599248342,66.74750762918181 164.33611393755055,66.98189216650796 164.48911495484515,67.11210579902416 164.55422177071517,67.216276703252 164.57375381567022,67.35951169913625 164.5900305196377,67.51576805625416 164.57049847468267,67.68504577848641 164.54120040754117,67.84130213560432 164.64862665372672,68.11475076284057 164.87975585006532,68.42726347862866 165.0164801633924,68.5965412002788 165.17599186227397,68.7007121052828 165.34201424274258,68.7658189215409 165.6154628693967,68.80488301067486 165.86286876989686,68.83092573779899 166.07121058048693,68.83092573779899 166.35116988892213,68.77884028432683 166.65391658252375,68.7007121052828 166.96317395810044,68.60956256325879 167.41566632820312,68.46632756853874 167.80630722342332,68.37517802593263 168.20671414102404,68.31007121025664 168.62990844437329,68.24496439458063 168.9619532051164,68.21892166765052 169.4990844362382,68.15381485197452 170.12085452779704,68.04964394658246 170.8533062063349,67.94547304157848 170.87934893248888,68.07568667293049 171.14954221834952,68.83092573779899 171.47833163868722,69.46897253235515 171.8754832153004,70.15910478154767 172.20101729465057,70.69298067187597 172.44516785416317,71.07060020334006 172.63072227958682,71.5263479144303 172.73814852577237,71.91698881003856 172.80325534144836,72.33367243083065 172.8358087495774,72.71129196287684 172.8716174981119,73.33631739522916 172.94323499576296,73.98738555392949 173.0246185156005,74.35198372260764 173.1873855552756,74.72960325465382 173.39898270665915,75.18535096652019 173.56174974633424,75.51088504587037 173.8351983729884,75.86246185098643 174.09562563666256,76.22706002082879 174.53509664359123,76.65676500440681 174.994099695669,77.03438453703511 175.32614445641215,77.25574771099322 176.019532045428,77.76358087497351 176.3971515774742,78.03702950143361 176.71943031603087,78.2714140389538 176.91149542284745,78.42767039704188 177.2077314350561,78.66205493378592 177.46815869853623,78.88341810774405 177.8034588002669,79.13082400863227 178.1387589021916,79.37822990816225 178.48056968570333,79.59959308270247 178.80935910545892,79.83397761944653 179.10885045846106,80.04231943042467 179.2781281799172,80.17253306158263 179.41810783384372,80.31576805688476 179.4929806722883,80.40691759949088 179.5418107839968,80.52410986728081 179.6199389634289,80.74547304123892 179.66551373414984,81.00590030491308 179.7175991868459,81.1621566631952 179.85432350017294,81.5007121053313 179.912919634456,81.65696846361342 180.07243133333756,81.83926754766145 180.23194303221914,82.03458799624171 180.37843336812074,82.17782299115578 180.50213631807978,82.28199389596574 180.71698881064492,82.4512716170338 181.0685656163431,82.68565615494204 181.77171922773945,83.10233977573412 182.1037639884826,83.31068158729435 182.62461851544285,83.59715157692847 183.02502543304357,83.81851475011045 183.57517802714534,84.13102746725677 183.9332655148186,84.32634791409075 184.39552390710776,84.54771108843693 184.8870803669265,84.74303153604703 185.2939979661142,84.88626653076706 185.55116988880084,84.97741607279107 185.6618514757799,85.01648016328326 186.05900305278115,85.13367243165528 186.47568667415533,85.26388606339535 186.96398779318056,85.44618514686128 187.2374364198347,85.53733468946739 188.3833163791473,85.88891149516557 188.97253306277108,86.05818921623363 189.71475076368947,86.2925737543359 190.14445574862572,86.4488301112598 191.03316378505764,86.78738555475412 191.79816887172456,87.2040691761283 192.77477110977506,87.76398779280463 197.91495422271416,90.78494404898012 200.63641912588753,92.80325534133922 201.52838250330697,93.45432350003955 201.7464903364716,93.5975584947596 202.02644964490676,93.81892166794157 202.70681587055458,94.45696846443806 203.3188199397329,95.0429298068803 203.61505595194154,95.29033570699238 203.9340793497047,95.62889114932253 204.17171922763032,95.90233977655876 204.454933876859,96.20183112956092 205.4185147519295,97.30864699935148 205.63011190311906,97.53001017330959 205.80915564695567,97.77741607283959 205.9491353008822,97.9987792467977 206.0630722286548,98.23316378412385 206.32349949232895,98.85818921647616 206.58392675580907,99.26185147545247 206.77273652183217,99.58738555480264 207.08524923800832,100.08219735541489 207.29033570819297,100.3556459812929 207.472634792241,100.56398779285313 207.6516785360776,100.77232960266707 207.8502543242872,100.98067141364521 208.11393692875484,101.22807731453344 208.57945066203155,101.65778229869356 208.8431332663052,101.93123092534769 209.24354018429395,102.37395727306989 209.60162767119107,102.8427263483043 209.71881993975714,102.99898270542221 209.9857578850183,103.4026449643985 210.24618514849843,103.85839267510067 210.37314343925098,104.14486266570495 210.51312309337155,104.40528992879702 210.62706002153217,104.73082400814718 210.74099694891666,105.0433367241293 210.8516785358957,105.31678535136555 211.1934893194074,105.96785351006588 211.3562563590825,106.18921668324786 211.66876907525867,106.5928789424182 211.8543235002942,106.78819938925217 212.04964394809835,106.98351983725033 212.319837233959,107.23092573697436 212.54120040772307,107.4392675479525 212.9806714148458,107.9080366220227 213.35503560609848,108.42889115014717 213.53733469053458,108.72838250295528 213.84984740671072,109.21017293942336 214.03540183194033,109.52268565656969 214.51068158779157,110.2649033571 214.71251271698867,110.61648016299222 214.9729399804688,111.00712105840644 215.1194303161764,111.25452695813047 215.1747711096659,111.47589013267068 215.1747711096659,111.61912512739072 215.1650050872854,111.82746693836886 214.79715157761973,113.72858596099769 214.73530010273723,114.01505595121391 214.64740590111865,114.4838250252841 214.5757884036616,114.82238046800232 214.5269582917591,115.10885045821853 214.42604272716054,115.55157680594073 214.39348931941956,115.79898270605281 214.377212615258,116.04638860577684 214.37395727446452,116.68443540227334 214.44557477192154,117.38758901366968 214.50091556541108,117.66103764032383 214.63763987893216,118.06469989813593 214.78413021444572,118.36419125172019 214.9566632765013,118.62461851423015 215.43519837314605,119.22360122081655 215.62075279837563,119.41892166823261 215.82583926836625,119.60122075228064 216.37599186266206,120.16113936895697 216.6917599194377,120.52573753821721 216.86103764069978,120.78616480130928 216.97822990926582,120.99450661228742 217.06286876989688,121.17680569691754 217.20610376481093,121.54140386540166 217.31353001119052,121.90600203407982 217.38514750845354,122.2836215667081 217.64557477193367,123.20813835148049 217.8018311302158,123.68992878969486 218.1013224830239,124.49725330667731 218.22828077397045,124.84883011237548 218.45289928891611,125.42177009125564 218.47894201526412,125.51291963327965 218.8044760946143,125.43479145481771 219.16581892249894,125.38270600270378 219.94710071293935,125.35666327635577 220.79348931924977,125.3436419122116 222.02075279878795,125.36968463855962 222.84435401934985,125.38270600270378 223.58982706106173,125.3436419122116 224.88870803747486,125.14832146537763 226.87121058071736,124.82278738602747 229.25086470076707,124.4321464904192 229.98006103870546,124.3019328584851 230.22746693881757,124.26286876915712 230.26002034675258,124.64048830139734 230.22746693881757,124.87487283872349 230.11678535203254,125.69521871790978 229.8563580885524,127.24476093619866 229.61871821043275,128.85940996938743 229.5503560537692,129.26307222855775 229.49175991968022,129.47141403875978 229.35829094714666,129.58860630790792 229.11414038763402,129.66673448636988 228.70722278844633,129.73184130262797 225.96297049952443,130.0313326556301 223.92512716259836,130.2526958288121 223.45635808852816,130.3178026450702 223.17314343949351,130.3568667349803 222.95829094692837,130.44801627681025 222.77273652169876,130.57822990816226 222.56439471091466,130.7865717191404 222.46673448730365,130.90376398751243 222.32675483298905,130.96887080377053 220.48423194406115,131.61993896247085 217.87019328707333,132.55747711061127 215.6858596144397,133.32573753768364 214.92410986876033,133.61220752848195 214.50742624699808,133.71637843329188 214.08097660324339,133.8205493394601 213.70010173020967,133.92472024368791 213.29969481260895,133.98982706052814 213.09786368341184,134.08097660255214 212.85045778329976,134.2242115972722 211.58738555542112,135.0054933877126 210.46429298185708,135.721668362671 209.48443540281906,136.3336724316553 209.28911495501492,136.43784333646525 209.12309257454632,136.47690742637533 208.7552390652687,136.43784333646525 206.97131231004172,136.28158697876523 206.58067141501556,136.25554425183512 206.39837233038546,136.2295015254871 205.29481180158243,136.13835198346308 204.23031536191334,136.0472024420212 202.63519837329156,135.90396744613693 202.08830111978926,135.86490335680895 201.73021363250407,135.8909460839331 201.46002034664343,136.0081383523051 201.18657172037737,136.3336724316553 200.83173957369164,137.06286876881757 200.54852492465702,137.53163784288776 200.31088504653735,137.779043743776 199.90071210655614,137.96134282840612 199.40915564693142,138.16968463938426 199.09664293075528,138.27385554419422 198.71902339851505,138.2868769077563 198.36419125221738,138.1175991859121 198.1460834190528,138.03947100686804 197.8563580882371,138.01342828110214 197.524313327688,138.06551373321608 196.92858596208913,138.27385554419422 196.09847405994023,138.63845371345445 195.75340793563504,138.7816887081745 195.6069176001215,138.89888097654654 195.3920651077504,139.10722278752468 195.33021363247983,139.21139369291672 195.2585961352168,139.45879959264073 195.28138352077133,139.71922685631492 195.47995930898088,140.2531027466432 195.70783316452602,140.7609359100414 195.77619532118953,140.95625635862166 195.83153611467907,141.1385554420876 195.81851475150506,141.25574771162383 195.76642929880904,141.37293997941376 195.53530010247042,141.581281790974 195.45066124183938,141.65940997021207 195.03397762027117,141.88077314339404 193.80671414131507,142.54486266565644 192.1171922692937,143.48240081379686 192.00651068231463,143.57355035582086 191.91210579930308,143.6516785348649 191.87304170978106,143.76887080381903 192.14974567742274,144.30274669356524 192.70315361212397,145.3314343850879 192.92451678627611,145.761139369248 192.97985757976565,145.90437436396806 192.9277721268756,146.0736520856182 192.69664293053697,146.25595116966622 192.37110885118682,146.47731434420643 192.22787385627274,146.6075279753644 192.15300101841027,146.7116988809505 192.1855544259572,146.82889114932252 192.5208545276879,147.46693794562498 192.90172940052759,148.1700915572154 193.13936927864725,148.6258392671414 193.20122075352973,148.86022380446755 193.19145473114924,149.0034587997697 193.09379450734417,149.1727365210318 192.7780264503745,149.68056968501207 189.19389623692322,154.87609359105264 188.47446592155936,155.89175991901323 188.2400813842332,156.23031536173144 188.01546286967564,156.51678535136554 187.79084435472998,156.80325534080563 187.44577823081283,156.98555442543577 186.830518820647,157.29806714122384 184.86754832235954,158.27466937927434 184.4345879968238,158.5090539171826 183.87792472113503,158.76948118027465 184.15137334759513,159.0819938962568 184.4964394717063,159.4856561552331 185.15727365278715,160.37110885067747 185.65534079438694,161.0482197357258 186.31943031626128,161.8815869784742 186.77843336814502,162.5066124108265 187.12675483285565,162.9493387585487 187.71922685727296,163.71759918678524 188.31495422248375,164.44679552472365 188.87487283896604,165.18901322544798 189.1906408959357,165.5926754832601 190.25513733541075,166.9729399802869 191.08199389696017,168.0797558496894 191.3879959315493,168.4834181075015 191.7070193293125,168.87405900310978 192.26693794579475,169.6162767038341 192.9407934900496,170.51475076342265 193.25981688781278,170.93143438537894 193.98901322555713,171.86897253351935 194.63682604346397,172.72838250319782 195.4832146497744,173.82217700962036 195.93570702026517,174.4081383520626 196.674669380196,175.3717192271331 197.11414038751275,175.9446592062073 197.7945066133546,176.9473041706058 199.10315361214825,178.70518819987282 201.0107833171402,181.19226856630212 203.03886063149173,183.82258392686936 203.3188199397329,184.17416073256754 203.60528992956102,184.6559511701998 203.64435401908304,184.85127161761588 203.8852492379962,187.09094608373906 204.1489318420758,189.59104781256625 204.4516785360655,192.23438453785974 204.7121057995456,194.65635808803094 204.96927772223225,196.9090539171341 205.40549338836743,201.1540183120543 205.46734486344397,201.72695829112848 205.47385554503097,202.03947100749866 205.428280774116,202.3780264498288 204.97904374441873,203.06815869843922 203.66388606403808,205.11251271714633 203.06490335783974,206.0630722286548 202.36174974663743,207.19593082382318 201.7855544259936,208.08138351984968 201.06937945142323,209.22726347955032 200.4313326558969,210.16480162846688 199.37334689800886,211.8575788408937 198.653916582645,213.0164801627982 197.2541200414393,215.2170905392053 196.53143438547596,216.32390640977198 195.75340793563504,217.60000000082465 194.6921668369535,219.2406917597793 193.96622584019667,220.39959308245994 193.30539165911583,221.45432349955448 192.56642929879692,222.56113936953906 191.69399796613848,223.98046795531175 190.9517802652201,225.08728382587844 190.27141403937824,226.14201424239087 189.62685656245895,227.09257375467547 189.1971515775227,227.7696846391417 189.00183113010664,228.0821973555119 188.97904374474615,228.26449643955993 189.07344862756366,228.53794506621406 189.49664293052484,229.86612410996275 190.52858596206488,233.0563580883705 191.44984740662585,235.85595117078194 192.26368260500126,238.34303153721123 193.01892166928766,240.68687690756224 193.37700915637882,241.7416073254329 194.2526958300248,244.46307222860628 194.4577823000154,245.07507629739652 195.38880976676285,248.03092573847812 195.4767039681874,248.31739572811222 195.53855544326393,248.55178026543837 195.52878942107745,248.72105798592432 195.4181078340984,248.96846388681257 195.31068158791285,249.17680569779068 195.06327568741267,249.4242115973207 194.6791454737795,249.69766022397482 194.1224821980907,250.023194303325 193.1003051891252,250.64821973625942 192.25391658262075,251.14303153609552 191.60935910570146,251.5336724317038 190.684842320347,252.1066124119422 189.54872838360893,252.82278738612447 188.63723296123445,253.40874872934285 185.81485249326852,255.17965412081372 184.57782299154385,256 182.9338758908255,253.90356052976108 181.42665310343426,251.98942014357016 178.80610376505348,248.78616480218244 176.93428280879004,246.54649033586523 175.06571719293203,244.26775178041407 174.1639877933261,243.18697863697153 173.74404883096437,242.64008138366324 173.12553408000502,242.04109867843508 172.36703967511914,241.35096642924256 171.17558494469753,240.38738555533624 169.9385554431669,239.44984740583757 168.5452695835482,238.43418107923523 167.23987792535402,237.45757884118473 165.31271617560105,236.01220752887 164.02034588077493,235.06164801736156 162.36988809827557,233.82461851486076 160.4752797564576,232.39226856630214 158.8638860638683,231.1812817915076 157.06042726426838,229.80101729486884 156.23682604331844,229.14994913616852 154.68728382580568,228.00406917588577 153.37212614523102,226.96236012215928 151.69888097717714,225.71230925745462 150.6246185153216,224.86592065133823 149.02624618571227,223.60284842384766 147.93245167928976,222.7434384541692 146.500101729955,221.5975584948566 145.45839267603446,220.7772126145061 143.2024415061378,219.01932858659734 138.5473041716245,215.23011190334947 136.72431332706952,213.7066124108265 136.14486266602026,213.2378433367563 134.6994913535115,213.3940996956205 135.38962360173383,213.95401831171472 135.55239064140892,214.1753814860609 135.40915564649484,214.51393692839105 135.02502543286167,214.76134282850313 134.6148524932685,214.7483214651351 134.25350966480175,214.56602238050496 133.9149542222776,214.3316378431788 133.42990844423989,214.00610376382863 132.98392675553015,213.7326551371745 132.47609359154987,213.53733469034054 131.743641913012,213.3680569692725 130.43825025481783,213.2248219743584 128.57293998014137,213.00345880001223 127.76561546335296,212.93835198375413 125.87751780331604,212.82115971538212 123.62156663322536,212.70396744642798 120.00162767104555,212.50864699959402 117.86612411031443,212.37843336707783 115.27161749808765,212.24821973630793 113.30539165881264,212.1310274673538 110.46347914589167,211.96174974570363 109.67243133307076,211.98779247205167 108.89766022460543,212.10498474042367 108.26286876948454,212.31332655140181 106.9412004075169,212.76907426326818 105.70417090579225,213.14669379473227 104.57782299124068,213.38107833147632 107.08769074303045,211.3497456769134 106.65798575848227,211.29766022479947 106.34872838290558,211.2846388606553 105.9255340799444,211.3367243133513 105.46653102786662,211.45391658172335 104.48341810822913,211.6622583927015 103.82583926794179,211.87060020367963 103.16174974606746,212.07894201407566 102.73855544310628,212.14404883033376 102.4097660229626,212.17009155668177 102.05167853548339,212.11800610456785 101.66429298125072,211.9487283834998 100.76256358125673,211.49298067163343 99.88362156701129,211.11536114016934 98.74425228928571,210.60752797618906 95.20895218773694,209.14913529992418 92.35401831164197,207.83397762031967 91.39369277755897,207.40427263480132 90.39755849474746,207.16988809747517 89.05635808782478,206.98758901342714 87.76724313359813,206.81831129235908 86.74832146523211,206.54486266512285 86.1591047816083,206.51881993877484 85.5438453716365,206.662054934077 79.661444557779,208.34181078410595 78.03051882023468,208.823601220574 77.62360122104697,208.87568667385213 76.70885045826704,208.90172940020014 75.59552390688947,208.84964394692201 74.9346897256146,208.71943031634615 74.51475076325289,208.58921668382996 73.98087487331264,208.3157680577579 73.73997965478756,208.09440488341176 73.26144455794878,207.52146490317335 72.87080366272859,206.9745676506412 72.67222787413095,206.76622584024517 72.25554425256274,206.4016276704028 71.777009155918,206.01098677537664 71.31149542264129,205.60732451756454 70.97293998031115,205.42502543235233 70.3576805701453,205.16459816926024 69.8205493390235,204.99532044799815 69.32248219761775,204.87812817904404 68.81464903402552,204.74791454788607 68.48911495467536,204.69582909519005 68.11475076322863,204.65676500527996 67.60040691785537,204.6437436423 66.75727365233844,204.63072227951406 66.0801627672901,205.07344862723625 65.31190234021774,205.47711088504835 64.12695829118911,206.10213631740066 62.909460834419484,206.72716174975298 61.958901322717004,207.1308240081472 60.9692777214925,207.52146490317335 59.5825025434608,208.00325534138773 58.63194303175831,208.34181078410595 57.83112919655691,208.511088505368 57.44048830133671,208.58921668382996 56.93916581913745,208.706408952202 56.21648016298008,208.81057985837018 55.396134283017666,208.9277721267422 54.55625635848828,209.05798575790016 54.12329603295255,209.12309257357617 53.081586979032025,209.56581892188046 52.31983723335264,209.95645981748874 51.39532044799817,210.42522889097683 50.44801627708919,210.8809766028432 49.81648016295583,211.12838250237317 49.05147507667697,211.47995930865346 48.361342828454625,211.79247202521768 47.81119023415881,212.03987792474769 47.108036622762455,212.3263479149639 46.212817904549496,212.70396744642798 44.747914547473755,213.3029501530144 44.21729399813298,213.51129196399253 43.04862665326589,213.92797558594881 41.90274669414734,214.42278738578491 40.61688708090822,214.95666327611323 38.520447609505084,215.77700915588161 37.59267548335711,216.14160732514188 35.724109867887165,216.8577823001003 35.209766022513904,217.05310274693426 34.920040692280324,217.15727365310246 34.594506612930154,217.11820956319235 34.48708036635654,217.06612411049633 33.75137334721919,216.34994913612002 33.51373346909954,216.11556459879387 33.38351983755351,215.93326551416374 33.315157680889975,215.71190234020563 33.32166836228294,215.42543235018343 33.26307222819395,215.13896236074336 33.23702950184593,214.85249237110924 33.28911495454196,214.2404883011548 33.30539165850947,213.91495422180463 33.38351983755351,213.56337741610645 33.477924720565056,213.3029501530144 33.53977619544755,213.04252288992234 33.51047812830604,212.40447609342584 33.718819939090146,211.62319430414965 33.80671414070872,211.20651068219337 33.89786368292677,210.47731434367284 34.0280773144728,209.87833163825064 34.08667344875583,209.57884028544254 34.067141403994825,209.35747711090232 34.04435401844031,209.12309257357617 34.0183112920923,208.95381485309022 33.91739572749375,208.797558494226 33.76765005099267,208.58921668382996 33.58860630754411,208.48504577902 32.354832146806984,209.57884028544254 29.19064089532934,212.2872838250538 27.872227873961172,213.44618514773444 27.409969481283937,213.87589013305876 26.99654120070326,214.3316378431788 26.560325534374037,214.90457782399932 26.068769074361256,215.94628687694967 25.88646999031323,216.59735503565 25.779043743739606,217.1963377416543 25.792065106913615,218.13387589115294 26.01668362166523,219.04537131294535 26.7491353002031,220.76419125230228 26.90864699908468,221.36317395811255 26.8760935913437,221.7017293998606 26.654730417385586,222.02726347921075 26.485452695929467,222.1704984739308 26.140386572012325,222.31373346981505 25.733468972824618,222.3658189227051 25.489318413311995,222.35279755856092 25.199593082496314,222.24862665355693 24.91637843346167,222.06632756970293 24.590844354111503,221.46734486311655 23.685859613712076,219.26673448612732 22.959918616567176,217.49582909465644 22.71902339784805,216.98799593067616 22.520447609638484,216.7666327574942 22.27629705012586,216.64944048912216 21.960528992962168,216.51922685660597 21.755442522971563,216.31088504562783 21.70986775186254,216.14160732514188 21.755442522971563,215.90722278781573 22.1525940999728,215.1259409971813 22.673448626739027,214.12329603278278 23.95279755858518,211.62319430414965 24.320651068250868,211.07629704967715 24.509460834273963,210.64659206609915 24.496439471099954,210.2689725338589 24.349949135586414,209.9043743647927 24.03418107842272,209.5527975589005 23.76724313354962,209.38351983725033 23.36683621575488,209.2012207532023 22.924109867838656,209.05798575790016 22.49114954249697,208.94079348952815 21.914954221853144,208.60223804739204 20.515157681035497,207.52146490317335 19.418107833237375,206.63601220772895 18.867955239135593,206.2193285857727 18.669379450926026,206.11515768154484 18.226653102815767,206.01098677537664 17.582095625896475,205.7114954229566 17.12309257401274,205.43804679649648 15.58657171947996,203.8624618518596 14.183519837286712,202.40406917617682 13.216683621810754,201.41444557514635 12.331230925978304,200.54201424209984 12.00895218742164,200.2034588003518 11.693184130257945,200.08626653139768 10.863072227915023,199.94303153609553 9.235401831164197,199.77375381502748 8.737334689952476,199.7346897251174 8.447609359136795,199.77375381502748 8.131841302167135,199.87792472100162 7.920244150589527,200.00813835177152 7.0738555442790965,200.86754832145 6.2730417094657565,200.50295015335394 5.566632757081864,199.99511698879155 4.922075279774503,199.56541200404934 4.313326551389693,199.21383519893325 2.988402848628553,198.48463886099486 1.8653102746764485,197.75544252266837 0.9342828077349751,196.97416073339218 0.2181078331646109,196.03662258389355 0,195.3595116988452 0.09440488301154801,194.40895218714272 0.1302136317400662,193.88809766095858 0.2506612414876943,193.64069176007035 0.7780264498409291,193.10681586974206 2.0085452695905213,192.19532044736755 3.3009155648047117,191.16663275720313 3.492980671427276,191.03641912526905 4.140793489528139,191.3619532046192 5.980061037662541,191.80467955234138 6.494404883035802,191.77863682599337 7.8258392675779795,191.51820956290132 8.209969481405208,191.2708036620131 10.511495422216845,190.6718209565909 12.894404883060057,189.79938962354439 14.294201424265768,189.30457782370826 15.7330620549935,189.0701932863821 17.175178026708767,188.83580874963806 17.416073245233857,189.4478128184283 19.733875890207035,188.83580874963806 21.345269582990355,188.39308240113974 23.07060020354623,187.9243133264874 24.28158697892288,187.59877924713726 25.687894201521562,187.22115971509106 27.458799593380494,186.7393692780409 27.937334689831204,187.06490335739105 29.2362156666324,187.97639877995957 30.255137334804385,187.61180061069933 30.512309257491015,187.5206510680932 32.04883011202379,189.03112919647202 32.36785350998099,189.33062055005627 34.25269582941845,191.47914547299123 34.60752797591013,191.77863682599337 38.461851475222055,194.8516785348649 39.9137334691238,195.67202441599153 40.84150559527177,196.25798575843376 44.14893184146945,195.2032553411452 44.81627670413729,195.9584944054316 47.51820956293769,195.85432349984552 47.11454730434946,195.33346897249717 46.63275686691121,194.65635808803094 46.36256358105057,194.1355035604886 46.22909460871104,193.66673448700047 46.17049847423397,193.14587995965215 46.22258392693,192.69013224894996 46.31373346953612,192.07812817899554 46.49277721279064,191.2708036620131 46.59694811837672,190.4895218727369 46.66531027504026,190.11190234049667 46.73692777230326,189.10925737609816 46.75971515805181,188.52329603249171 46.818311292140805,188.1196337746796 47.560528993253214,187.84618514744338 48.64781281808874,187.5597151585854 49.015666327754424,187.88524923793557 50.55544252327474,187.4555442524172 50.649847406286284,187.06490335739105 53.81729399816936,185.9841302139485 53.973550356451476,184.82522889126787 54.79064089562039,183.5881993901253 55.64354018351783,182.84598168881888 56.447609359318704,182.31210579849056 57.31678535118365,181.73916581883427 57.463275687279285,181.71312309248626 57.753001017512865,182.5464903358167 57.93204476115546,183.11943031605512 58.42685656176771,184.77314343915396 59.27975584985918,185.71068158671227 60.1814852494651,184.74710071280595 59.68992878964635,183.67934893214934 58.76866734508538,180.970905392344 59.2537131237052,180.0333672430394 60.19450661263911,178.4838250253326 60.45167853532574,177.6765005091263 60.48423194345479,177.4160732458402 60.45167853532574,177.15564598158394 60.39633774183621,176.8561546285818 60.27589013247665,176.20508646988145 60.12614445597557,175.08524923711093 60.23031536175569,174.4732451683207 60.562360122304796,173.17110885092 60.68931841344539,172.32472024402747 61.23296032596017,171.0095625638409 61.40223804702822,170.6059003060288 61.47060020369175,170.1892166840725 61.451068159318815,169.90274669443838 61.509664293213774,169.31678535083196 61.40874872880926,168.78290946050365 61.17761953247064,168.2620549343195 60.97253306248004,167.96256358131737 60.53631739595678,167.49379450724717 60.35727365231419,167.35055951252713 60.1033570706151,166.1265513735884 60.00895218760355,165.33224822016803 59.96337741630049,163.60040691724902 58.34872838272367,163.261851475695 56.91963377457048,163.05350966471687 55.724923703355365,162.88423194287267 57.2256358089656,161.76439471068426 58.18596134304858,160.94404882975167 59.11047812840305,160.09766022421738 60.07731434426708,159.18616480223093 62.261648016706694,157.18087487285183 62.39186164825272,156.9985757882217 61.78311291986792,156.86836215706373 60.555849441105856,156.6209562561755 59.43275686695972,156.39959308299353 57.73672431354536,156.07405900364336 55.70864699938786,155.644354018125 55.819328586366915,152.76663275666954 55.903967446803925,150.29257375380232 55.98860630743497,148.58677517858956 56.08301119044651,146.81586978692465 56.2490335709151,143.63865717207898 56.40854526979668,140.33123092646338 58.29013224863467,138.41709053891424 57.2256358089656,138.2868769077563 57.049847406116506,138.24781281784618 57.26469989848762,137.89623601273013 57.76276703989337,136.9847405903556 58.0231943033735,136.2425228896313 58.013428280993,135.70864699930297 57.798575788815924,135.44821973621092 57.60651068180529,135.30498474071473 57.37863682645421,135.2528992874366 57.033570702149,135.2919633779288 56.66246185188385,135.35707019360478 56.265310275076644,135.3831129199528 55.99511698921601,135.33102746706274 55.53936927793174,135.18779247176062 54.99898270621046,134.8752797559725 54.54974567670724,134.5627670394083 54.32187182116212,134.10701932890015 54.019125127366465,132.97416073198545 53.86937945086539,132.32309257328512 53.96378433426501,131.828280773449 53.931230925941925,131.48972533111885 53.74242116011286,131.1641912517687 53.53082400834122,130.83865717241852 53.51454730456774,130.59125127230644 53.621973550753296,130.23967446660825 53.90518819978794,129.48443540173974 54.286063072627634,128.59898270571327 54.325127162149656,128.22136317424915 54.23397761993161,127.97395727336094 54.077721261649494,127.77863682652698 53.8758901324524,127.64842319401077 53.51454730456774,127.47914547352482 53.21505595156559,127.37497456735663 52.974160732652436,127.17965411994057 52.765818922062365,126.88016276693841 52.69420142441129,126.43743641863412 52.716988809965805,125.95564598216605 52.811393692977354,124.95300101718543 52.86998982726038,124.41912512685712 52.95462868789143,123.82014242085282 52.87650050904142,123.53367243083065 51.76317395766385,122.49196337710416 51.43438453732615,122.15340793496804 50.39267548359965,121.08565615489353 47.97070193304039,118.74181078318428 47.54750763007921,118.27304170911407 47.436826043100154,117.93448626620183 47.42054933893861,117.59593082406573 47.6028484233747,117.10111902345348 48.06185147545247,116.29379450666507 48.34832146547465,115.73387589057084 48.449237029685136,115.40834181122068 48.32227873873857,114.84842319454437 48.08138352001945,114.37965411969803 47.56703967464619,113.45513733511969 47.12105798593646,112.79104781227518 46.88992878959784,112.2832146494591 46.77599186182528,111.99674465885481 46.84109867788935,111.58006103748063 46.987589013596924,110.9940996950384 47.11129196374999,110.69460834145416 47.44984740627416,110.34303153633807 47.931637843518374,109.56174974512155 48.475279756033146,108.66327568689121 48.73570701951328,108.01220752819088 48.69664293018529,107.76480162730266 48.50132248238116,107.32207527958047 48.41993896254362,106.76215666348625 48.48179043781418,106.07202441487583 48.7096642933593,105.44699898310562 49.17192268603654,104.8219735507533 49.588606307410714,104.34018311331505 49.93692777231539,103.8453713127028 50.03133265532694,103.67609359047054 49.76765005124734,103.62400813835663 49.556052899475695,103.78026449663874 49.33143438472408,103.62400813835663 49.07100712124395,103.46775178007451 47.83072227911386,103.12919633793841 46.54486266548667,102.82970498493626 45.55849440505566,102.55625635770001 45.02461851511543,102.5041709055861 44.467955239426644,102.43906408932799 42.70356052934875,102.32187182095596 41.98413021398488,102.28280773104588 40.5224821975086,101.30620549299537 39.549135300251606,100.6421159720912 39.02828077348538,100.01709053915678 38.767853510005246,98.89725330638625 38.845981688855254,97.4909460828174 39.6663275690117,95.82421159673859 39.79003051897073,95.3814852495985 39.832349949286254,95.16012207525232 39.74771108884924,94.75645981744022 39.5393692778711,93.76683621524555 39.243133265856486,92.24333672388677 39.344048830261,91.60528992816641 40.6429298070622,90.14689725364784 40.6429298070622,89.91251271573958 40.424821973897586,89.44374364166939 40.66897253341021,88.8708036625952 40.68850457797719,88.66246185103495 40.711291963725735,88.20671414052681 40.74059003067322,87.90722278694257 40.942421160258384,87.39938962296227 41.11495422211994,87.19104781256624 41.24191251287247,86.68321464858595 41.336317395884016,86.21444557451574 41.32329603271001,85.83682604246954 41.391658189373544,85.28992878974337 41.48280773178563,84.80813835230512 41.391658189373544,84.44354018246277 41.35910478163256,84.17009155580863 41.336317395884016,83.89664292973659 41.46653102781812,83.21953204468825 41.51536113952661,82.85493387620413 41.61627670431919,82.49033570636178 41.743234995071724,82.11271617489768 41.95808748763687,81.72207527928941 42.03947100747441,81.6309257372654 42.163173957821506,81.6309257372654 42.28362156698703,81.6699898271755 42.77192268601228,81.90437436450165 42.91190233993882,81.91739572728758 43.04211597187292,81.07100712058909 43.05188199405939,80.9407934892371 43.204883011548,80.53713123026078 43.57599186181316,79.70376398751243 43.852695829260796,78.93550355985796 44.00244150576187,78.38860630732583 44.0642929808384,77.99796541229966 44.10010172976096,77.2297049846452 44.09359104797992,76.695829094899 44.012207528142376,76.08382502533262 43.88524923738985,75.15930824017218 43.81688708072631,74.58636825993379 43.75829094624925,74.2738555447278 43.70295015275972,74.0785350959535 43.68341810799871,73.59674465967946 43.79409969497777,73.42746693725317 44.106612411153925,73.02380467944106 44.52004069212267,72.59409969508691 44.93997965448438,72.1904374361106 45.37293998002011,71.6956256356924 45.98494404919842,71.10966429325016 46.463479145649124,70.5888097657078 46.71739572773629,70.26327568635763 46.92899287911986,69.92472024422152 47.05595117026046,69.50803662284734 47.18616480180649,69.19552390570102 47.30986775195956,69.03926754877713 47.49867751798265,68.92207527962898 47.87955239082235,68.80488301067486 48.27019328604254,68.68769074288493 48.618514751141255,68.49237029430466 49.38677517821361,67.86734486195235 49.959715158063936,67.34649033576821 50.242929807098584,67.00793489285597 50.44476093610165,66.70844354043592 50.721464903743325,66.1485249231775 50.82563580913538,65.91414038585135 50.87446592084387,65.43234994938327 50.82889114992888,64.96358087414886 50.880976602624905,64.66408952172881 51.134893184324,64.31251271544853 51.62970498513029,63.817700915030315 52.05940996967847,63.3228891151942 52.489114954420685,62.76297049851788 53.06856561605205,61.968667344321375 53.28341810822913,61.64313326497121 53.40712105838219,61.382706001297045 53.46897253326469,61.18738555446308 53.47222787425222,60.913936927226835 53.52105798596072,60.7055951162487 53.67731434424282,60.38006103689853 53.71963377475238,60.04150559534453 53.72288911515782,59.820142420804316 53.79776195360239,59.70295015185019 53.91495422197441,59.6638860625222 54.051678535301484,59.68992878887022 54.33814852512963,59.820142420804316 54.60508647019677,59.80712105782434 54.914343845579424,59.63784333617419 55.13245167874403,59.208138352014075 55.42868769134075,58.531027466965725 55.624008138562786,58.2185147504015 55.838860630933894,58.01017293942336 56.125330620762035,57.77578840209721 56.685249237438356,57.28097660226109 56.802441505810386,57.08565615406889 56.955442523104956,56.92939979656291 57.180061037856575,56.6429298069288 57.38840284864068,56.43458799536856 57.68138352005583,56.20020345862451 57.85391658230545,56.05696846332237 58.225025432570604,55.71841302176836 58.4170905393872,55.49704984664605 58.51149542239875,55.288708036250014 58.557070193701804,54.83296032574188 58.5440488305278,54.2860630718515 58.56032553449531,54.16887080289737 58.553814852714275,53.92146490317335 58.700305188421844,53.71312309277731 58.85330620571642,53.569888096893074 59.07141403888104,53.426653102173034 59.357884028903214,53.27039674447302 59.63133265555735,53.166225839080965 59.979654120267995,53.06205493407698 60.35401831152069,53.00996948079885 60.61444557500082,52.98392675445084 61.014852492795555,52.957884028102825 61.21993896278616,52.93184130233691 61.39898270623472,52.93184130233691 61.76032553450744,52.98392675445084 62.01749745719407,53.022990844360926 62.242115971751645,53.036012207728966 62.52858596157979,53.00996948079885 62.753204476719475,52.970905391470865 62.899694812233015,52.87975584964089 62.9973550362321,52.749542217124684 63.081993896475076,52.63234994875266 63.10152594143012,52.502136316818564 63.156866734919646,52.38494404902863 63.33591047856224,51.96826042707236 63.55076297093335,51.590640894444064 63.80142421183894,51.1999999994179 63.95116988834002,50.69216683601971 63.97070193329506,50.09318413020944 64.06836215710011,49.80671414057532 64.13346897297015,49.48118006122516 64.3190233980057,49.220752796968895 64.54364191314538,49.06449643926888 64.9017294000425,48.93428280752882 65.18819938987065,48.8431332649227 65.53001017338235,48.7780264492467 65.6895218720699,48.738962359918716 65.90762970523451,48.59572736461658 66.04109867776808,48.42644964354852 66.12248219760562,48.21810783257038 66.2103763992242,47.944659205916246 66.29175991906175,47.81444557475828 66.53265513778086,47.64516785291409 67.18046795549365,47.358697862891916 67.93245167898658,46.981078331427824 68.71698881022047,46.60345879996373 69.16297049873617,46.21281790435546 69.42339776241033,45.67894201402716 69.66429298093543,45.249237029673004 69.83031536159804,44.8455747706967 69.97680569711159,44.4419125128846 69.9670396749251,44.25961342825447 69.90193285886104,43.97314343881439 69.8140386574365,43.73875890071211 69.49501525967334,42.76215666266161 69.39084435428128,42.488708036783606 69.44944048875834,42.293387589173506 69.62848423240094,42.072024414827325 69.84333672477204,41.811597151735256 69.92472024460959,41.60325534075712 69.90518819965455,41.36887080401307 69.85635808794605,41.199593081586784 70.10050864745868,41.03031536051873 70.59206510727742,40.83499491368476 70.803662258661,40.795930823774675 70.96968463932362,40.795930823774675 71.16500508673968,40.926144455514745 71.36683621593679,41.13448626591078 71.51983723323137,41.30376398775497 71.718413021829,41.3558494398689 71.95279755876709,41.31678535112301 72.09603255387519,41.13448626591078 72.27182095672428,40.730824007516574 72.3011190238658,40.54852492288645 72.22950152640875,40.379247201818394 72.09603255387519,39.91047812833029 72.05045778257214,39.44170905426009 71.93977619559308,39.116174974909924 71.90396744705859,38.68646998939157 72.07650050892015,37.90518819953327 72.21973550402825,37.462461851811085 72.50620549366236,37.00671413994472 72.62665310321596,36.68118006059455 72.59084435429341,36.45981688721854 72.23275686720226,35.82177009091608 71.67609359151348,34.85818921700976 71.53936927818641,34.493591047749504 71.50356052926385,34.01180060953513 71.54913530037288,33.51698880969901 71.65981688754597,33.17843336736887 71.78677517868657,32.89196337676459 71.93001017321258,32.65757884002054 71.86490335753658,32.56642929741442 71.5881993898949,32.34506612345631 71.11291963404366,31.759104780431983 70.90132248266008,31.55076297061804 70.72878942079853,31.23825025424785 70.712512716637,31.04292980605565 70.80691759964854,30.79552390652566 70.95666327614961,30.496032552941404 71.07060020372813,30.17049847359124 71.10966429325016,29.72777212586905 70.97293998031115,29.363173956608797 70.82319430361605,28.920447608886604 70.75808748755198,28.55584944020845 70.86876907453103,28.152187181232147 71.00223804706461,27.813631739678144 70.99898270646513,27.605289928700003 70.87527975631207,27.240691759439752 70.5985757886704,26.732858595459458 70.43906408998285,26.407324516109295 70.41953204502781,26.225025431479168 70.52695829121336,25.93855544203909 70.86551373373753,25.28748728333876 70.96642929833608,24.88382502552665 71.04130213658662,24.24577822903016 71.07711088550917,23.38636825993379 71.1194303158247,22.9436419116295 71.25615462915177,22.435808748813407 71.27894201451224,22.14933875820913 71.30824008184779,21.537334690000986 71.25289928835826,20.87324516715648 70.97619532071658,19.49298067129388 70.98596134329112,19.206510681659765 71.01525941023861,18.9460834174035 71.22360122102272,18.477314343333294 71.37009155673029,18.00854526926309 71.42217700942632,17.52675483163081 71.38962360168533,17.08402848332652 71.07060020372813,16.133468971624037 70.94364191297561,15.755849439577844 71.31475076324077,15.703763987463917 71.20732451705521,14.831332654223374 71.27243133292524,14.037029500803003 71.45147507656783,13.542217700966885 71.75096642956998,13.047405900548668 71.98860630768964,12.656765004940402 72.00162767086364,12.37029501530629 71.93001017321258,11.95361139335001 71.71515768103549,11.549949134373705 71.53611393719888,11.094201424447675 71.47751780291584,10.443133265747344 71.50356052926385,9.687894200878826 71.58168870850193,8.893591047458456 71.70864699925446,8.242522888758124 71.90396744705859,7.6695829085197325 72.13835198419072,7.2398779243596145 72.3857578843028,6.966429297123375 72.71454730444647,6.71902339739935 73.45025432397188,6.289318412657131 73.97761953232512,5.898677517048865 74.31291963405579,5.5731434376987 74.66449643975396,5.104374363628495 75.08443540211567,4.557477110902317 75.40345880007287,4.153814851926012 75.69969481208749,3.802238046227833 76.00895218747014,3.5418107831357672 76.48097660252789,3.307426246391715 76.86510681616109,3.2032553402235284 77.4706002037524,3.1772126138755152 78.36907426275884,3.333468972157628 79.11454730447073,3.5027466932256806 79.61586978666998,3.528789419573694 80.52085452745747,3.4506612411117548 81.68952187213054,3.164191250895542 82.46103764038446,2.864699898087423 83.17721261495483,2.500101728827171 83.574364191568,2.2136317393870923 84.23194303185532,2.3698880968930713 85.02624618546973,2.578229908453311 85.52756866766899,2.6954221762432367 85.84333672463865,2.72146490259125 86.11678535129279,2.6303153613433707 86.7125127165036,2.2917599178490318 87.17802645016836,2.083418106870892 87.5230925740855,1.9792472026430399 87.92349949188024,1.966225838498866 88.3271617500804,2.1355035595669185 88.75361139422316,2.3959308232410845 89.16378433401033,2.6303153613433707 89.55116988863107,2.77355035606341 89.77904374398214,2.8126144451973634 90.05574771162382,2.7605289919192364 90.33245167887743,2.591251271433284 90.80773143472867,1.9922685648468792 91.30579857613442,1.354221770290722 91.7257375388842,0.9635808746824566 92.32472024450044,0.638046795332291 92.92370295050475,0.41668362079207816 93.44781281845255,0.2474058997240255 94.29745676536244,0.07812817865597287 94.6555442530357,0.026042726542046674 94.88667344898624,0 95.8990844359593,0.1041709050039861 96.59247202497515,0.20834181039603908 97.5495422180706,0.37761953224022543 98.48382502580557,0.5208545269602648 99.20976602295048,0.7031536115903909 99.98453713180388,0.8984740584243566 100.25798575826398,1.0286876909405565 100.6942014245932,1.315157679798535 101.44292980709858,1.9792472026430399 101.92146490393736,2.434994912569071Z"/></svg>