<svg xmlns="http://www.w3.org/2000/svg" width="256" height="256"><path d="M240.14954740679852,20.007587447151636 243.83869794686464,22.890974672328653 246.0232537568646,24.737751481698396 248.28580695261186,26.64491336362176 249.35827100553138,27.26386035960217 249.41362398898673,27.21857155509322 249.44130048060075,27.19341110795218 249.48092818468785,27.133026034873666 249.6048433860439,27.20850737629679 249.6406970230062,27.23869991246113 249.96652481154058,27.4299193095183 250.16969542099352,27.55572154447367 250.25146687378947,27.621138706575476 250.29109457772543,27.797261835587975 250.19611389033415,28.04886630549871 250.1590022310223,28.16460436165765 250.1256646388341,28.280342418041535 250.07848880072584,28.396080474200474 250.05710242078342,28.43633718916124 250.04137714141402,28.55207524532018 250.03634505201464,28.592331960805833 249.97281492328835,28.743294642377354 249.94388040924864,28.85903269853629 249.94388040924864,28.899289414021943 249.91871996225754,28.97477075469523 249.86902807952515,29.090508810854164 249.84764169958393,29.130765526039884 249.6086174530914,29.37733790670237 249.35827100553138,29.623910287064923 249.27020944106263,29.714487896532724 249.32933649156664,29.754744611568473 249.51929786627426,29.850354310359503 249.80927201784638,30.061702064784583 250.09987518066825,30.293178177327412 250.38859130989084,30.524654289645287 250.67353337198975,30.756130401663228 250.94526619949335,30.987606513981103 251.20378979232663,31.22411471599713 251.45413623988662,31.455590828090052 251.7088857657474,31.67700276183645 251.9950858501959,31.908478874154326 252.26807670004902,32.13995498617227 252.5700020639419,32.411687813975796 252.83796082439684,32.64316392599373 253.11409673019887,32.87464003831161 253.3958937364989,33.10611615085444 253.66888458635086,33.342624352420565 253.93810136908152,33.574100464738436 254.1966249619148,33.805576577281265 254.4840830687878,34.0370526892992 254.7746862316097,34.263496712593785 254.89482736591827,34.374202678979586 255.23071933332292,34.716384758133174 255.95534020666582,35.355460111706435 255.97609757543347,35.38565264839566 256,35.41584518456 255.93269580429887,35.612096671165354 255.92200261432768,35.65235338612612 255.90376129025915,35.72783472732429 255.72323508317317,36.03982426978865 255.5383057977138,36.361877991349374 255.21373603153012,36.89527946786007 255.12441644471065,36.98585707687796 255.04516103668877,37.08146677514411 254.99358212035708,37.20223692107618 254.8350713043133,37.49409810594768 254.7180752258798,37.816151827283456 254.60045013612037,38.13820554906913 254.55453232043664,38.31936076710492 254.47779295704007,38.55083687964775 254.4167788730867,38.62128613129774 254.36582896800476,38.69676747197102 254.35010368863416,38.731992097908496 254.33941049866414,38.782312992190576 254.26644520238887,39.074174176837126 254.2400267330494,39.255329395322825 254.12554669924,39.7786666929621 254.111079442144,39.874276391303226 254.10290229687305,39.924597285585314 254.08843503992819,39.984982358138936 254.06516162638644,40.030271162872836 254.0400011793942,40.0654957883604 254.00792160948177,40.100720414072924 253.97647105074293,40.130912950762145 253.72612460325672,40.377485331124696 253.56258169773977,40.5988972648711 253.48961640146564,40.91591889665869 253.50534168083507,40.976303969737195 253.56069466421542,41.11720247273724 253.5726458765362,41.20274799250689 253.63491798283908,41.50467335639977 245.5647046105273,48.826363430952114 245.78863258867284,51.48833872268267 245.71881234827262,51.61917304666133 245.65276617492106,51.971419304836296 245.58672000164563,52.28340884715068 245.4942553588773,52.59036630059175 245.4036777497844,52.90235584335604 245.29422980529824,53.214345386120335 245.1514442686989,53.526334928584696 245.07093083825248,53.767875219699 245.07218886067702,54.09496103080791 245.06589874885543,54.20063490809543 245.04891544713527,54.266052070497174 245.0023686202018,54.492496093266865 245.00614268725045,54.54281698702406 245.0105457655477,54.854806529788355 245.03004511196696,55.196988608716985 245.0457703913364,55.25234159247227 245.19924911798194,55.59955576072413 245.235731766119,55.911545303488424 245.29234277184773,56.21850275670454 245.43135424140078,56.4348826006778 245.51438371647015,56.74687214366705 245.51815778359378,57.05382959688316 245.54331823050987,57.365819139647456 245.5672206551514,57.67780868211182 245.6131384709851,57.98476613555288 245.66345936489108,58.19611389005294 245.67918464426168,58.256498963131456 245.67100749906456,58.29675567809222 245.6540241973456,58.33701239357787 245.49991645945028,58.63893775747076 245.30743903996972,58.91570267407263 245.08791414004526,59.192467591124405 244.8614701170506,59.46923250817618 244.62370389298613,59.74599742492802 244.47588626698857,59.947281000856606 244.47085417759035,60.10327577197631 244.47588626698857,60.15862875573159 244.46833813281742,60.28443099068696 244.45512889822092,60.31965561617453 244.43374251827854,60.34984815286375 244.40354998181425,60.380040689028085 244.36769634485196,60.41023322564233 244.08589933855194,60.64170933773525 243.88524477379815,60.84299291388879 243.85756828218294,60.89331380764598 243.75692649421865,61.07950111545491 243.558158962988,61.35626603250669 243.3298279064702,61.612902591440715 243.08073948133355,61.86450706135145 243.0436278220217,61.884635419169264 242.81907083262638,62.02553392224429 242.74547652517748,62.070822726753235 242.81403874322817,62.15133615719966 243.18704236979585,62.307330928844245 243.57514226463314,62.35765182237649 244.01419206470237,62.352619733353194 244.11734989729078,62.327459286212154 244.16452573539905,62.307330928844245 244.4815473676354,62.17146451501747 244.51991704914798,62.141271978403225 244.55514167493547,62.11107944223889 244.77969866440577,61.85947497232816 244.84826088245646,61.799089899249644 244.89292067579063,61.78399363135494 244.9419835474982,61.76889736308531 244.99041740788104,61.76386527353713 245.44141842019602,61.76386527353713 245.84524359440275,61.76386527353713 246.2421496457619,61.748769005417465 246.6528939428162,61.74373691616922 247.10515297748077,61.73870482639608 247.5033170511145,61.72360855857636 247.91406134831877,61.71857646880323 248.16440779580495,61.67831975406741 248.2040354998159,61.668255575196 248.27888782961435,61.62799885978533 248.31096739952795,61.60787050241742 248.60911869637218,61.391490658219205 248.86198118870746,61.13988618830847 249.08150608862957,60.858089181708515 249.2299527259519,60.697062321040626 249.5941501960727,60.96879514884416 249.8658830235763,61.200271260862095 249.78851464907873,61.336137674613894 249.73819375517158,61.67831975406741 249.74448386684438,62.00540556465143 249.76712826913632,62.070822726753235 249.87028610179973,62.297266749972835 249.88726940351754,62.644480918224694 249.8765762135475,62.94640628241751 249.77404739213387,63.25336373563363 249.71995243102808,63.585481635765824 249.77530541448343,63.90250326777837 249.81996520781757,64.07862639701582 249.86902807952515,64.31513459835699 249.9199779846071,64.41577638639626 249.92941315222876,64.45603310188191 250.04829626441153,64.7579584653249 250.15648618639818,65.05988382951772 250.2369996168446,65.37187337228201 250.23008049384705,65.68386291497131 250.22504840444884,65.74928007714811 250.22504840444884,66.37325916215181 250.2237903820243,66.67518452634464 250.16277629814596,66.97207780098927 250.04829626441153,67.28909943277685 250.02061977264637,67.32432405871432 249.9847661356841,67.35451659487866 249.6495031795292,67.54070390268758 249.29474087687893,67.68663449523581 249.1708256754479,67.77218001523042 249.13685907200994,67.80740464094293 248.96765506606997,68.09926582581444 248.9242532949342,68.40622327903054 248.94941374192643,68.68298819608232 249.08150608862957,68.9748493814787 249.13811709436067,69.17110086778413 249.27272548576173,69.49315458911991 249.39915673189188,69.77495159571987 249.62874581076042,70.06178069126813 249.91620391763342,70.30835307170567 250.08918199069822,70.46434784327528 250.1313257394071,70.48950828996641 250.29864271189774,70.60021425702708 250.33701239348414,70.62537470371821 250.3728660305214,70.63040679326639 250.46092759499015,70.76124111747001 250.48105595250803,70.82665827987175 250.5030713437002,70.85685081603609 250.54018300301203,70.9222679781379 250.5496181706337,70.95749260407537 250.5823267517221,71.27451423608791 250.57037553932636,71.60160004719681 250.4823139749314,71.90855750018797 250.3728660305214,72.22054704317722 250.2130971920531,72.497311960229 250.04389318603813,72.77407687675588 249.91620391763342,73.0307134362148 249.90802677228635,73.06593806215227 249.85581884477986,73.2571574589845 249.63818097838205,73.56914700197373 249.36770617315304,73.89623281255776 249.15887446312712,74.17299772938458 249.06640982050993,74.42963428906845 249.06640982050993,74.50008354064346 249.057603664138,74.82716935152742 249.04816849636524,74.86239397723993 248.89909284801928,75.15425516211143 248.73932400955098,75.45114843653111 248.69969630561502,75.75810589019713 248.69969630561502,76.07009543251152 248.6896321268186,76.20596184626332 248.56382989186324,76.51795138902762 248.4965256961621,76.82994093201685 248.49841272961146,77.14193047470617 248.51917009837908,77.2375401730473 248.5481046124938,77.38347076582048 248.5732650594099,77.42875957010448 248.61163474114628,77.48914464295802 248.62610199816612,77.54449762626341 248.61792485281904,77.59985060979373 248.60219957344844,77.67533195076696 248.55502373534136,77.85145507970446 248.53363735539895,77.90680806330978 248.5021867966601,77.99738567232768 248.48394547259159,78.03764238728844 248.46004304810003,78.09299537059383 248.41223819874202,78.238925963367 248.36380433828418,78.39995282425984 248.31348344422707,78.54085132710992 248.2990161872072,78.60626848943667 248.265678595019,78.73207072439205 248.23674408090312,78.81761624416168 248.18831022044648,78.87800131701525 248.12100602474536,78.93335430032063 248.08766843255717,78.95348265768854 248.04804072847242,78.97864310505453 247.95997916400248,79.04406026693138 247.74611536465335,79.47681995510287 247.66056984480872,79.50701249179208 247.6209421408716,79.52210876006171 247.5813144367868,79.53720502795642 247.5008010065642,79.56236547509747 247.37688580498434,79.60262219005823 247.26617983822362,79.64791099501709 246.93217490441714,79.80893785546002 246.7290042950392,79.92467591161895 246.50507631674367,80.1007990408564 246.28177734969788,80.36246768956357 246.05093024855478,80.62413633804579 245.8056158903918,80.8606445396119 245.6886198118833,80.98141468554398 245.42695116317617,81.22798706568157 245.12250975458417,81.4594631782244 244.80863317837054,81.69093929076723 244.76523140731092,81.71609973738339 244.4350005405531,81.93751167090483 244.17018683597203,82.17401987292085 244.1148338525917,82.26459748193875 244.1003665955718,82.29982210787622 244.05822284686175,82.435688521703 243.9896606288111,82.49607359403167 243.95254896949925,82.51620195184948 243.82737574571865,82.59168329282271 243.6506236056052,82.72754970634955 243.51853125890324,82.85838403107806 243.26629777781773,83.13011685858164 243.15936587818067,83.25591909353702 243.13860850941302,83.28611162970135 243.0977227831275,83.35152879180316 243.04991793376948,83.52765192081566 243.04865991141992,83.58300490412104 243.03419265440007,83.87989817854071 243.01846737503064,83.92015489402637 242.9958229726637,83.96041160898713 242.6806883741005,84.24220861558709 242.32341002682725,84.42839592332103 241.96424464610467,84.5994869625604 241.64785202511692,84.71522501871934 241.21635035922003,84.7756100915729 240.80875111796462,84.82593098585498 240.40366792140836,84.8661877005908 240.01368099312168,84.89638023720504 239.61362988588863,84.90141232652826 239.32491375666606,85.16811306478361 239.91303920508358,86.55193764929265 240.8420887103028,87.32687941661771 240.4829233294314,89.62654427152684 241.07670987841956,90.39645394930372 242.10136908220602,92.39419344054492 241.91706880799757,92.48980313926097 241.52393682376086,92.9175307377343 241.1150795601571,93.30500162139683 240.23257688186905,93.78305011430221 239.85517017700295,93.92898070715037 239.29031814212834,94.12020010420754 238.92926572780644,94.2963232329201 237.87252695410635,95.11152171550587 236.9176879909451,95.70027617532195 236.18426096100532,96.05755452229525 234.50731716905028,96.7872074854113 233.2926965905562,97.56718134175965 231.8510029779677,98.47295743336332 231.430194502042,98.70946563545432 227.4026359500209,98.60379175809182 225.56906837554644,98.69940145635796 220.2727942838505,98.64404847327754 219.8350025062058,98.6289522050079 218.45117792169677,98.57359922140259 218.07880330637886,98.35218728818109 217.81650564642192,98.05529401353645 217.81650564642192,97.98484476188646 217.90079314376703,97.61750223581679 217.91651842313647,97.40615448139171 217.95740414957194,96.69159778639532 217.96054920536966,96.56579555143995 217.90645424434004,96.48025003189525 215.35770096421928,94.48251054072904 214.034261452415,93.74279339934144 213.7788829155294,93.46099639296644 213.44613600399748,93.1188143140378 213.1467266848037,92.75147178804312 213.01589236045012,92.26335911604137 212.91210551661194,91.62428376246811 212.85234945508313,91.06068975001803 212.7749810805106,90.90972706822156 212.71522501898178,90.83424572702339 212.64540477850656,90.76882856492158 212.33404424699086,90.54238454215188 211.98620106741544,90.32600469795366 211.917009838115,90.29581216126445 211.69308185996942,90.19013828412689 211.56790863618883,90.14484947939299 211.1917599535973,89.99388679782146 211.1049564114781,89.93853381421616 210.99236341119305,89.84292411572505 210.96468691957784,89.80769948978758 210.93449438311475,89.75234650648221 210.9175110814696,89.69196143362865 208.32535603013926,86.05879288826762 208.02028561037133,85.621001110323 207.95864251524435,85.52035932273363 207.9139827219102,85.45997424965512 207.88190315199657,85.42474962394259 207.83975940328654,85.3744287301854 207.80453477749901,85.34423619349617 207.67621649776956,85.26372276304976 207.5881549333758,85.21340186951751 207.30447089347646,85.09263172358544 207.14470205508314,85.03224665095684 207.0906070941273,85.01715038291215 207.02330289842618,84.9970220253193 206.98493321668983,84.97689366742651 206.94027342328067,84.95676530983364 206.908822864543,84.91650859487288 206.8937265963472,84.88128396916036 206.8981296747206,84.81586680698356 206.89938769692134,84.76554591300142 206.90190374169427,84.6900645720282 206.9056778086691,84.6447757672943 206.93649935623083,84.48374890640146 206.96417584792218,84.34788249264966 206.9905943173378,84.2673690624282 207.06041455773803,83.97047578778357 207.14470205508314,83.72893549666927 207.159169312178,83.53771609961208 207.16294337915167,83.34649670255492 207.1038163287238,83.00934671287453 207.01135168603045,82.69735717041017 206.92203209921215,82.47594523643882 206.82264833359739,82.22434076652809 206.78302062958645,82.11363480014228 204.75697563563025,81.13237736734045 201.91699018158783,79.8592587497421 199.55945629852425,78.78742370799735 196.24456740737534,80.33227515287435 195.9376099542342,80.25679381197611 195.7923083727108,80.24672963317968 195.3765319862583,80.28698634859035 195.22368227078752,80.30711470625819 195.14694290738976,80.31214679528149 195.07460662229042,80.32221097407792 194.61794450940127,80.36749977881182 194.51415766556426,80.37756395760825 194.10655842438385,80.42285276241712 194.01031971456803,80.43794903023685 193.91408100490216,80.45807738782972 193.74487699888718,80.48826992451893 193.26494147245748,80.51846246068327 192.86363234294984,80.55871917616892 192.79507012489918,80.56375126519222 192.56170697913194,80.5687833547404 192.46924233636477,80.5536870863958 192.33714998966164,80.53859081850108 192.1239152014123,80.51846246068327 192.0364826481933,80.52349455023145 191.9849037318616,80.52852663970465 191.941501960802,80.54362290759936 191.84148918393748,80.56375126519222 191.77418498831136,80.56375126519222 191.6238513174647,80.56375126519222 191.57353042348257,80.56375126519222 191.50622622778144,80.57381544398865 191.45464731152472,80.57884753353683 191.39174619404588,80.58891171210831 191.29110440600775,80.62916842751898 191.1778823946229,80.66439305345645 191.13699666818744,80.66439305345645 191.0646603830881,80.65936096398325 191.00490432155928,80.65432887466002 190.93760012578318,80.6392326063904 190.88476318710192,80.61910424872255 190.82186206962425,80.60400798067788 190.75329985164853,80.59897589090474 190.68599565587243,80.59897589090474 190.62372354956955,80.60904006970117 190.57214463323783,80.6392326063904 190.40608568317174,80.73484230465654 190.36645797908582,80.74993857300115 190.31110499570545,80.76503484134577 190.25575201232508,80.78013110961538 190.18341572722457,80.80025946728323 190.13309483331858,80.80529155630653 189.95005258145852,80.81032364607967 189.77833253074328,80.80529155630653 189.72172152493954,80.79019528841182 189.63051490467188,80.76503484134577 189.53679223962897,80.76000275179757 189.48521332322346,80.76503484134577 189.4248282504437,80.81032364607967 189.3889746135576,80.84554827179218 189.35626603239422,80.87574080795652 189.3021710713634,80.90090125509755 189.23235083103816,80.90090125509755 189.02351912101224,80.89586916554937 188.98011734995265,80.89586916554937 188.94300569056583,80.92102961246546 188.89457183010802,80.96128632765118 188.8562021484466,80.98141468554398 188.78763993047093,80.99147886434041 188.74172211463724,80.99651095358865 188.69643331005332,80.99651095358865 188.63353219257561,81.00657513238508 188.5712600863477,81.02167140050474 188.5278583152131,81.05689602621726 188.50395589064658,81.08708856260655 188.47627939888142,81.12231318854401 188.40771718083073,81.17263408237619 188.36054134272248,81.19276243996906 188.3165105604881,81.19779452951724 188.16366084509232,81.22295497665829 187.89570208463854,81.24811542349939 187.6755481734655,81.27830795996366 187.62963035763178,81.28334004943686 187.56106813965494,81.30850049612799 187.46734547453937,81.3940460161226 187.42205666995545,81.42423855228694 187.36670368665006,81.44939899942797 187.3138667479688,81.46449526747264 187.22328913872713,81.4795915355923 187.02515061874624,81.49468780416187 186.92387981953217,81.49971989341012 186.82764110979133,81.51481616152978 186.7735461488355,81.52991242987439 186.73140240012663,81.56010496603872 186.68359755076744,81.58526541317977 186.3495926170359,81.78654898925832 186.19422685679106,81.86706241925484 186.135099806437,81.89725495594406 186.06087648781335,81.92241540301012 186.00049141495978,81.94757584970127 185.92626809633612,81.97273629661736 185.73001660988075,82.05324972706377 185.66774450357784,82.06834599563334 185.62308471009368,82.08847435300125 185.4645738941999,82.16395569412443 185.430607290612,82.17905196201913 185.31424022327826,82.24446912412094 185.2286947036586,82.29982210787622 185.1720836977787,82.3350467333638 185.08905422270814,82.39543180621735 185.02426607185612,82.435688521703 184.9487847307329,82.49607359403167 184.70598641726906,82.70238925943346 184.64182727744182,82.77283851108345 184.56886198116771,82.84328776273344 184.28266189664424,83.1250847688085 184.19585835460003,83.21566237805136 184.05747589607415,83.38675341774064 184.0241383038098,83.43204222247454 183.9713013651297,83.53771609961208 183.93733476176675,83.58803699366922 183.90148112480446,83.62829370862998 183.82662879493105,83.66351833456746 183.54797684450492,83.77925639072639 183.48444671585244,83.80441683786744 183.43475483312005,83.82957728500847 183.34480623505198,83.86983399974429 183.12591034630464,83.96041160898713 183.00576921192226,83.99060414567636 182.58244469122246,84.09124593349068 182.54784907660974,84.10634220153536 182.50318928320058,84.16169518514067 182.4503523445943,84.2220802576943 182.4176437635071,84.24724070461039 182.38304814881704,84.2673690624282 182.33587231070993,84.29252950934429 182.25410085798896,84.31768995626038 182.18553863993827,84.33781831385323 181.9163218571338,84.37304293956575 181.76473016401258,84.39317129738356 181.63137979503486,84.42336383384784 181.5414311969668,84.45355637001218 181.45085358779775,84.47871681715321 181.39235554854469,84.50387726429426 181.32819640879242,84.52903771113536 181.24894100077054,84.54413397925502 180.78284372026093,84.65483994609073 180.36643832248367,84.78567427036933 180.04941669047113,84.9114765053247 179.99280568466622,84.94166904193894 179.95758105887873,84.97689366742651 179.91669533251823,85.02721456148363 179.89279290787672,85.05740709809787 179.8663744386849,85.09766381313362 179.8305208015738,85.14798470711577 179.79089309756287,85.20333769072109 179.76636166182155,85.2435944054569 179.61854403574898,85.4448779817604 179.52859543768093,85.52035932273363 179.46254926440434,85.55558394844614 179.38643891218135,85.57068021671577 178.98512978274871,85.646161557689 178.86750469299048,85.66125782573367 178.72912223454074,85.67635409385333 178.27937924457413,85.72667498791046 178.18817262430647,85.7518354350515 178.01833960704175,85.79209215001227 177.7453487571886,85.83738095452121 177.6421909246002,85.85750931211408 177.47613197453407,85.88266975903016 177.05658152088293,85.94305483210867 176.63577304495723,85.99337572586587 175.926248439734,86.05879288826762 175.74383519904987,86.07388915653723 175.6777890257721,86.07892124563551 175.51864919847858,86.09401751420508 175.46707028222187,86.10408169277656 175.3959920193971,86.12421005014447 175.32994584604555,86.14937049751046 175.26389967276896,86.18459512322298 175.10161478975152,86.23994810652836 175.0292785045022,86.25001228509983 174.95002309648032,86.25001228509983 174.8493813085922,86.23994810652836 174.64809773258744,86.22485183818374 174.47134559255014,86.22988392773193 174.26691696074766,86.25001228509983 174.20212880967068,86.26510855366939 173.77062714377377,86.38084660982834 173.6794205235061,86.40097496742119 173.5794077466416,86.41607123546586 173.51084552859092,86.42613541433728 173.27056325990117,86.45632795050162 172.9925403206498,86.49658466568734 172.76546728648037,86.52174511260343 172.3528359558256,86.56703391756228 172.02386311149348,86.60729063259802 171.982977385058,86.62741898996593 171.93580154694973,86.65761152658018 171.84333690425754,86.7330928675534 171.6835680659392,86.84883092393729 171.6294731048334,86.87399137055344 171.57663616615216,86.8890876386731 171.4200123837077,86.90921599649091 171.32251565154232,86.90921599649091 171.01241314245115,86.934376443407 170.28967930270872,87.07024285738375 170.16261904532882,87.08533912527845 170.049397033794,87.10546748287132 169.64997493788454,87.16585255572488 169.23419855135822,87.2463659861713 169.1367018191928,87.26649434353921 168.93730527693853,87.31681523782129 168.84735667887045,87.3369435951892 168.67878168403027,87.38726448947128 168.5970102312343,87.4224891151088 168.544173292703,87.44261747277665 168.4661759068807,87.47281000894098 168.3900655547327,87.50803463465351 168.04851248682772,87.63383686960887 167.97806323540385,87.65396522720174 167.84093879922753,87.68415776389095 167.64971940202037,87.72441447885173 167.57864113934556,87.72944656862485 167.49812770889915,87.72944656862485 167.289925010123,87.72441447885173 167.23708807144175,87.73951074719633 167.19746036735583,87.754607015241 167.16286475274194,87.77473537313381 165.9589373642964,88.07666073702669 164.98019597626748,88.80631369961785 163.06611497149655,89.83789202640183 160.6161164456658,91.55886660059124 159.7770155385135,92.4495464238503 159.29708001223375,92.95778745314497 157.6717151366104,94.67876202710944 156.42375696585316,96.38967242287735 156.2602140603362,96.69159778639532 155.97275595353818,97.21996717358277 155.67900773491738,97.86910670572752 155.33556763341426,98.53837459599 154.913501135139,99.147257413099 154.6285590729651,99.53472829676153 154.28071589338848,100.17380365040978 153.98885470821705,100.67701259023126 153.67497813200342,100.89842452345276 152.97992078394998,100.96384168555457 150.96960106928825,100.9487454175099 150.59722645382035,100.95377750675814 150.5984844761699,101.33621630117243 150.5789851298268,102.1010938894761 150.33618681628795,102.61939909786715 150.11980697216472,103.08235132220295 149.89273393814528,103.52517518939581 149.51721426672853,103.9529027880941 149.15930690835432,104.39572665528695 148.88128396910412,104.72281246617091 148.33089919117438,105.05996245600126 147.90128455880182,105.20589304862447 147.25340304870667,105.32666319380671 146.4790902925564,105.53801094868169 145.7758557991559,105.70406989867281 145.34058006620916,105.88019302791025 144.67445723212165,106.18211839157819 144.09387991780264,106.42365868269249 143.5271408493287,106.70545568921746 142.90567780872416,107.02750941032829 142.50562670149114,107.22879298670678 141.80931133108814,107.61123178059617 141.44008177141916,107.88799669742299 141.04191769778544,108.18488997206764 140.73181518862046,108.73338771639806 140.51920941154705,109.08060188509981 139.78452435940653,109.69451679153204 139.71847818612994,109.70458097032846 139.4190688669362,109.84044738430522 139.34924862646096,109.89580036738565 138.80075088213056,110.40404139653035 138.53027607690152,110.6254533305017 138.31892832225148,110.94247496228928 138.11827375742268,111.22427196881425 137.97863327669722,111.42555554474285 137.95095678493206,111.45574808090718 137.84402488522,111.56645404774288 137.54713161072533,111.80799433863224 137.3030752749869,112.04953462974655 137.2137556881686,112.15520850733401 136.72564301654177,112.59300028505366 135.10279418554254,117.851533706263 132.92767354316425,119.40644933023636 131.09158992406563,120.84562689782582 131.1205244380304,120.90601197090433 131.13750773982434,120.97646122255432 131.1255565274286,121.0368462953329 131.02931781768774,121.14252017247046 130.9953512142498,121.1676806196115 130.95446548796428,121.18780897697941 130.90917668330536,121.20290524532402 130.87143601289375,121.21296942412044 130.83306633123237,121.22303360269193 130.71418321919953,121.24316196028478 130.44748248101916,121.32870748027939 130.41854796697945,121.35386792742042 130.39904862063634,121.52495896688474 130.41477390000577,121.56018359282221 130.43741830222274,121.59037612898655 130.49277128567925,121.68095373800445 130.52673788904107,121.75140298987938 130.53491503438815,121.78662761559191 130.53994712378636,121.85204477746876 130.51352865444574,122.04326417497583 130.47830402865821,122.06339253264368 130.43993434699567,122.0784888004634 130.39212949763882,122.07345671144012 130.31161606726738,122.06842462166698 130.27073034090688,122.05836044287055 130.23110263697092,122.04326417497583 130.15247624012383,122.0130716383616 130.10592941319035,122.0130716383616 129.84614779793253,122.0130716383616 129.79079481462713,122.02313581715802 129.7354418311718,122.03319999595446 129.34482589171037,122.1489380521134 129.11272076814274,122.24957983992772 129.07309306420677,122.27977237661695 128.99824073433334,122.33009327037414 128.97937039924,122.36531789608665 128.8170855159976,122.63201863456696 128.67241294579895,122.84839847854022 128.61014083949604,123.125163395592 128.52711136450048,123.40192831234384 128.45163002345228,123.51263427925453 128.43842078885694,123.55289099444025 128.38998692832413,123.70888576585989 128.34910120203864,123.82462382201882 128.32394075504757,123.8598484474314 128.29123217395917,123.89004098412063 128.25412051464733,123.91520143103672 128.0339666034766,124.10138873854571 127.91634151371719,124.24731933139387 127.7093968372906,124.57943723175103 127.67102715555305,124.62975812528327 127.60246493750354,124.71530364550283 127.57730449051247,124.7454961814422 127.53138667482875,124.83607379068505 127.50371018306241,124.90149095301182 127.40055235047517,125.13799915487787 127.21562306501579,125.38457153501547 127.1936076738986,125.41979616095294 127.17788239452918,125.5254700385404 127.15397996996265,125.83242749153156 127.15146392518855,125.87268420671728 127.14454480234099,125.91294092197798 127.1338516123698,125.95319763738866 127.14706084696512,126.50169538149412 127.66410803263167,131.68474746158026 128.2314761122792,133.93409142295715 126.11799856503022,144.06368738148834 124.3045593481486,146.83133655050642 124.06868015760728,147.31441713273503 123.97621551491508,147.51570070836368 123.94161990037735,147.58614996023863 123.91268538626262,147.61634249640295 124.03031047602087,147.72201637376546 124.04351971061621,147.7622730889512 124.04351971061621,147.8075618936851 124.05798696763608,147.93839621796369 124.09195357107403,148.02394173795827 124.12403314106263,148.06923054246724 124.16051578919968,148.109487257428 124.33097781748923,148.33089919117438 124.35047716398229,148.38122008493158 124.39262091269234,148.70830589604049 124.39576596849123,148.77372305791735 124.3693474991506,149.07564842211016 124.29952725875039,149.3926700541227 124.26115757716398,149.4782155740423 124.22530394012671,149.51847228907806 123.92589462100793,149.7700767589888 123.8887829616961,149.80530138492628 123.86928361520303,149.845558100112 123.85607438053388,149.890846904396 123.83091393361663,150.24812525166922 123.81141458712355,150.49972972157997 123.7912862295307,150.53998643706564 123.75543259256841,150.5903073308228 123.75165852559473,150.6456603141282 123.74662643619652,150.79662299599966 123.78185106190905,150.85197597975494 123.8428651458624,150.8922326947907 123.87683174930035,150.90732896283535 123.945393967426,150.9375214995246 124.06868015760728,150.992874482605 124.13535534220861,151.02306701899428 124.30204330352447,151.09854836019247 124.33852595166152,151.11364462846208 124.63164515903254,151.20925432680323 124.66183769542184,151.23441477394425 124.74927024886578,151.3149282043907 124.76751157278434,151.3501528301032 124.8612342378261,151.50111551219962 124.94048964584798,151.61182147881036 124.94929580229486,151.68227073046035 124.96816613761197,151.74265580323893 125.02855121031673,151.84832968037648 125.04427648968615,151.88858639586215 125.11283870773683,152.17038340171226 125.25939831145983,152.44211622921586 125.30468711611874,152.51256548086585 125.40092582578463,152.6685602522105 125.49968058022458,152.80945875528553 125.55125949670625,152.89500427550507 125.58145203302173,152.9553893480587 125.56950082062481,153.2925393377391 125.57327488767348,153.37305276818552 125.60912852463575,153.5340796288534 125.63554699397638,153.67497813185344 125.73430174849133,153.81587663492846 125.7078832791507,154.09767364145344 125.56824279827526,154.4096631839928 125.52987311668886,154.49520870398737 125.52358300494109,154.54049750849634 125.48143925623104,154.85248705118565 125.46256892091274,155.164476593725 125.47200408860938,155.24499002417141 125.49842255795001,155.28021464988393 125.53364718373751,155.30537509702498 125.38897461346504,155.64252508685533 124.98892350638077,155.98470716578396 124.20454657135907,156.5382369994376 123.57742243010775,156.97099668760907 123.27549706628868,157.24272951533763 123.19246759129312,157.32827503488232 122.97482972467036,157.61510413073051 122.7943035175094,157.90696531605192 122.54773113714685,158.1786981436305 122.49363617604106,158.21392276934301 122.43639615913638,158.24914739498055 122.37978515340646,158.2743078421216 122.31814205820335,158.2894041100163 122.25461192955089,158.29946828881273 122.05269934244753,158.29946828881273 121.94073535333725,158.27933993144484 121.8243682861535,158.43533470256455 121.59352118493541,158.70203544081988 121.34820682669746,158.99892871523957 121.2928538433171,159.09453841403058 121.11484368093025,159.38136750957887 120.89217372498426,159.643036158361 120.70472839490077,159.90973689654138 120.50533185249533,160.16637345577533 120.34053092477996,160.42804210425754 120.20969660042638,160.70480702130934 120.03860556081209,160.97653984858798 119.87065957714785,161.23317640827185 119.70460062700559,161.48981296720586 119.52281639757007,161.74644952688973 119.30895259807096,161.99302190702733 119.02526855839658,162.25972264550762 118.97243161964035,162.29997936069336 118.6258464623383,162.48616666805236 118.57300952365705,162.51635920466663 118.43148200933226,162.642161439622 118.22705337752978,162.923958445997 117.99494825396215,163.20575545207205 117.75529499644716,163.49761663746844 117.27724650354179,163.98069721939711 117.24453792245221,164.02598602413102 117.21811945311276,164.0763069179632 117.1193646986728,164.37320019238288 116.96462794975268,164.62480466229363 116.89229166457837,164.71538227153647 116.67339577575602,164.95692256265076 116.42933944001759,165.21355912233463 116.22239476344103,165.4953561284097 116.05067471272694,165.7570247768919 115.83303684640414,165.9985650682312 115.55752995170191,166.21997700197758 115.22604106259452,166.42126057760623 114.92159965400253,166.6074478856401 114.64609275945028,166.838923997883 114.40832653538463,167.08549637832053 114.14728689785224,167.31697249063842 113.79755668475131,167.50819188769557 113.47298691856646,167.67425083783667 113.14590110760753,167.8805665030135 113.00500260445752,168.03152918488496 112.81629925202328,168.30326201261352 112.65024030195836,168.5749948401921 112.4785202511693,168.87692020386 112.37284637388177,169.1939418360975 112.27912370891501,169.48580302104398 112.09482343463041,169.77766420614043 111.85076709874201,170.0141724080065 111.58532438306118,170.2708089671655 111.38466981823238,170.5677022418101 111.19219239882565,170.86962760555303 111.01669828098794,171.17155296974585 110.90096022482899,171.47851042296196 110.83743009625152,171.51373504889943 110.66067795606425,171.81062832331912 110.6424366320707,171.85591712782806 110.63048541967495,172.00184772015135 110.62796937512465,172.05720070345672 110.52103747526378,172.2635163688585 110.20967694374926,172.45976785546387 109.85051156302666,172.64595516349775 109.49323321567843,172.81704620296205 109.15419619254871,172.96297679528533 108.78999872227793,173.12400365617816 108.46039686669486,173.31019096398708 108.11632775416693,173.50141036104426 107.93517253575621,173.6171484172032 107.85465910545976,173.68256557908006 107.5741201214343,173.92913795966757 107.33761191971821,174.1807424295783 107.09670063977752,174.41725063144435 106.88032079565546,174.6688551013551 106.67589216385299,174.96071628622659 106.55952509659426,175.25257747162297 106.54631586184895,175.579663282207 106.53059058247953,175.87655655685163 106.4117074705217,176.18854609961593 106.27332501199581,176.4904714635088 106.14374870999178,176.7923968272517 106.04625197797635,177.07922592287497 105.93177194409199,177.3660550187232 105.79338948571606,177.67804456171243 105.76948706099957,177.92964903162317 105.78395431809442,178.22654230604283 105.80471168686205,178.52343558046252 105.85125851379554,178.8203288548822 105.91290160884868,179.11722212952685 105.97014162575337,179.4141154039465 106.05442912317348,179.7110086783662 106.06197725734577,180.00286986346265 106.05442912317348,180.2997631381073 106.0399618662286,180.59162432305376 105.91730468707212,180.87845341890198 105.78143827332032,181.18541087189314 105.75879387102836,181.49236832510925 105.73489144638684,181.78422951050564 105.65311999374083,182.08112278515028 105.59902503263504,182.37298396979682 105.59147689853772,182.66987724444147 105.5757516191683,182.96173842983785 105.5015283006946,183.25863170425754 105.39333837848302,183.55049288912903 105.32226011580822,183.84738616354872 105.16249127733992,184.1392473489451 104.97378792490687,184.39588390787912 104.71526433222355,184.64245628876657 104.42277413580236,184.85380404319164 104.13468701775457,185.09031224528266 103.88811463724205,185.31675626805236 103.83150363151213,185.377141340606 100.11027352153238,189.3474598760973 99.88320048743793,189.5839680777384 98.39936312613938,189.4128770382741 90.79084395603877,188.51213303569372 88.9440671468928,187.89821812903656 86.04684167587187,187.4252017258293 80.45933541033041,186.81631890872032 76.56135316031217,186.39865548836858 72.3438332333585,186.28794952198277 66.849420621684,186.4187838461864 64.47238739227615,186.66032413707575 63.798716424015176,186.59490697497392 61.14554728888147,186.96728159074175 59.65353278223582,186.73580547849886 58.29801370066673,186.67038831609713 57.79103069387158,186.60497115377035 57.17774479846417,186.59993906474708 56.67013278026929,186.5596823492614 56.32543465649159,186.59490697497392 55.97633345456543,186.7207092099293 55.38883701732386,186.89683233916676 54.567348423140295,187.37488083184718 54.34404945594455,187.48558679845794 54.13207269011974,187.58622858672217 53.830147326151874,187.75731962596151 53.663459364836015,187.8328009671597 53.216232419569685,188.0592449899294 52.708620401524776,188.32594572818473 52.25070026628724,188.59767855568833 51.82737574566126,188.85934720417055 51.37260066629878,189.10591958498298 50.91090646401375,189.4380374851152 50.47122765284474,189.64938523984023 49.97934091424424,189.89595762020278 49.632126745691274,190.11736955372422 49.388070409952846,190.3387814874706 49.337120504720936,190.41929491791703 48.82636343087713,190.76650908609392 48.42379627901995,191.1288195231403 48.10237156870899,191.39552026087074 47.90989414922728,191.64712473078148 47.54129360073307,192.0245314356476 47.42681356699867,192.22581501180113 47.37649267294154,192.23587919059756 47.22112691277166,192.53277246501725 47.05632598498013,192.7793448453798 46.850639330903086,193.25739333851013 46.60343793921579,193.58447914939407 46.27886817303094,193.98704630117626 46.04424700491417,194.19839405560134 45.83856035068715,194.4701268833299 45.57060159023222,194.8223731413549 45.516506629127605,194.88779030345668 45.45737957869741,194.96327164412997 45.37057603657821,195.01359253841207 45.31459404209805,195.07397761126563 44.749112995973675,195.66776416032994 44.55097447584399,195.8287910209978 44.26477439132053,196.1005238485014 44.07607103888748,196.2665827986425 43.91504417821959,196.38735294412467 43.808112278432546,196.48799473193898 43.62255398202335,196.64902159283184 43.229421997787824,197.03146038717114 42.474608588055624,197.69066409818728 41.85880664779913,198.11839169703555 41.679538462986564,198.25425811078733 41.5197696246694,198.19387303800875 41.04612420998746,197.8667872271248 40.787600617154176,197.63531111488192 40.61713858886464,197.4642200754176 40.130912950762145,196.8704335262783 40.07367293385745,196.80501636395152 39.65034841315766,196.3219357817229 39.3314397475458,196.00491414971037 39.022595260729204,195.58725072988352 38.89364796997611,195.2802932766674 38.738911220906026,194.8525656775192 38.62568920952118,194.43993434671566 38.32879593495153,193.57441497059764 38.1558178618879,193.07623811979946 38.046369917476724,192.93030752725124 37.997936057093895,192.85482618657795 37.70355882729834,192.38684187269396 37.33684531240344,191.8333120385904 36.90156957945787,191.17410832764924 36.76821921032902,190.91747176796537 36.294573795873205,190.13246582229377 35.96371391786678,189.44306957443843 35.75362418549014,189.01534197551518 35.65486943105018,188.76373750560447 35.208900508133404,187.72712708957224 35.1522895023285,187.62145321220973 34.78054389803539,187.03269875291855 34.555986908640065,186.74586965707033 34.39936312611946,186.63516369015966 33.76343282842125,186.06150549898814 33.15517902241205,185.49287939676492 32.8872202620321,185.26643537377026 32.27770843367335,184.8940607586773 31.870109192417956,184.71793762943986 31.486412375804086,184.55691076877196 31.310918257966364,184.5216861428345 31.226630760546268,184.48142942787373 30.945462765421023,184.39588390787912 29.859789477757374,184.13421525917195 28.956529430776666,183.89267496805766 28.490432150267033,183.7115197497969 28.323115177776394,183.64610258792007 28.163346339458062,183.57062124694684 27.796632824563165,183.41462647537725 27.55823758924776,183.26869588305397 27.287762784168706,183.10766902216113 27.08710821933991,183.00199514457367 26.744297129085364,182.80071156894502 26.693976235104387,182.73529440654326 26.513450028093406,182.60446008233964 26.262474569207477,182.45349740024324 26.03036944578981,182.25221382461459 25.8051834452197,182.10628323176644 25.529047539417686,182.0106735335003 25.21768700797814,181.99557726493072 24.629561559486813,181.9553205501949 24.249638809921603,181.92009592425745 23.75901009359567,181.8949354771164 23.24825301967805,181.86474294095206 22.96582700220208,181.85971085117893 22.69032010772481,181.82951831523954 22.60603261022973,181.85971085117893 22.446263771837586,181.78422951050564 20.359833705101646,181.4269511632324 19.025701003399977,181.2860526599324 18.74390399717494,181.25082803399496 17.391529971404744,181.0344481900217 17.206600685944196,181.00425565385734 14.404984913638136,181.05960863693778 14.338938740137772,181.08476908407883 13.030595496676938,180.99419147506092 11.320943123633496,181.19547505068957 10.627143797779663,181.19547505068957 9.543986554888935,181.30618101775022 9.159031715850526,181.3615340011306 7.4952971586407795,181.56281757675924 7.367607890086098,181.50243250390568 6.3001759265647905,181.79429368930207 5.481203376930366,181.9855130861343 5.404464013682576,182.02073771207176 4.545863760037211,182.34782352288073 3.967802490492282,182.61955635068426 3.2752611870641575,182.95167425104142 2.9840290130663267,183.10263693261294 2.0977522678057645,183.4599152798862 0,184.229824957963 0.5038379510712298,183.51526826319156 0.7202177950444933,183.2988884192183 1.6555574120114611,182.13144367868253 2.5210767885055594,181.01935192190203 3.1419108179353126,180.28466686983768 3.201666879614096,180.22428179675916 3.5627192938598444,179.90726016497158 17.578975301413255,159.37130333078244 21.685160250431426,153.93664678086054 23.23378576265701,151.91877893180154 23.521243869530025,151.54137222693544 24.17038340204969,143.892596342024 24.285492446958866,143.64602396136152 25.032128711343987,138.51329277510757 25.254798667289972,135.61480928188587 26.07502923912398,130.46698182751226 26.456839022213522,128.55981994551388 26.646800396996124,127.578562513012 27.093398331162664,125.24870512126367 27.22423265544009,124.61969394648683 27.367018192190585,124.3479611192082 27.486530315398184,123.96552232479391 27.599123315609425,123.6585648715778 27.7255545617384,123.17548428957414 27.906080768973162,122.27977237661695 27.8853234002067,121.98791119122056 27.831228439099736,121.75140298987938 28.415579820543574,119.72850305179708 29.53270366702222,117.21245835268974 31.84683577887623,114.6309964914056 33.45962043100404,112.57790401670906 34.27356089116526,110.78648019116957 35.820928381191266,107.84773998268719 37.67210826855949,103.21821773595475 37.24815473675991,102.87100356777788 36.608450372011866,100.14361111372055 36.74683283038778,100.04296932568128 37.63122254227398,98.85036413822941 38.89490599225068,97.60240596769712 39.08360934468373,97.41621866018814 40.456740739221566,96.2789664558167 40.93416022087718,95.47886424157554 41.35371067445333,94.85991724559514 41.5392689710125,94.4523180045647 41.679538462986564,94.19064935585753 41.710989021726576,94.05478294210573 41.81100179851609,93.79814638242186 41.82043696613774,93.52641355514322 41.81414685453994,93.1188143140378 41.857548625449574,92.8319852181896 41.929884910548914,92.48980313926097 42.05505813440449,92.14762105988244 42.34314525245228,91.64944420960914 42.47083452085699,91.44312854420737 42.6249422587523,91.06572183934126 42.90862629857666,90.59773752545726 43.00486500824135,90.29581216126445 43.102990751582695,90.02911142353399 43.209293640043825,89.63660845032327 43.355853243768,89.3598435332715 43.69363224462316,88.95224429224106 43.74143709398118,88.88179504059107 43.89931889885017,88.61509430233572 44.074813016537924,88.28297640197857 44.247791089601556,87.94582641259812 44.322643419399995,87.82002417764275 44.54342634182165,87.47784209871412 44.66859956552726,87.18094882406949 45.333464377266374,86.6626436159034 46.40341238556177,85.92292647451582 46.97455453225914,85.73673916670688 46.96511936471247,85.52539141198187 46.84875229730377,85.27378694207114 46.928007705325655,85.05740709809787 47.09972775603973,85.02218247216041 47.187789320508486,84.9970220253193 47.52179425438997,84.94670113103722 47.607339774084636,84.90644441600146 47.85139610997303,84.83599516465141 48.28415579814451,84.58942278376396 48.65653041361357,84.24220861558709 49.22767256030976,83.8144810164389 49.47424494082229,83.65848624531921 49.9648736572232,83.33643252375848 50.286927378633955,83.20559819925494 50.75491169274291,83.02444298099418 51.180752258068,82.78290268987988 51.99783777410194,82.17401987292085 52.01230503104682,78.04770656608487 53.67415255480722,76.21099393603645 53.77164928689763,76.09525587965256 54.46041652327826,75.44108425773469 54.98689887656648,75.01335665933634 56.14113438228314,73.78049475639882 56.539298455915706,73.38295969393985 56.7449851100689,72.3413171885844 57.003508702976,71.33489930894146 57.03810431751374,71.20406498473785 57.170196664216874,70.75620902822176 57.40984992180685,69.53844339362885 58.43262209199516,65.22594277943385 59.62208222349698,64.65731667751056 59.67240311755411,64.4660972804534 60.10767885049968,64.06353012844626 60.490117644764,63.66096297666407 60.75115728229639,63.38923014916047 61.141773221757816,62.99169508692646 61.30154206022612,62.88098912001577 61.47452013328975,62.82060404746215 61.878974318671254,62.56899957755141 62.20920518542909,62.24191376621755 62.267074213508565,62.17649660411575 62.458293610566905,61.89973168728892 62.587869912569765,61.542453340240634 62.716817203474,61.05937275808701 62.74197765039009,60.84299291388879 62.690398734133375,60.636677248487004 62.536290996238066,60.36997651023166 62.50987252689744,60.16366084482987 62.56899957732646,59.82147876590124 62.72876841587092,59.49439295501728 62.76147699680817,59.423943703667234 62.78286337675058,59.35852654126549 62.77783128735237,59.29310937893873 62.65517410834587,59.096857892333375 62.471502845311036,58.90060640617792 62.067677671104306,58.462814628533245 61.50848673665271,57.93947733081898 61.16315960170023,57.63251987782782 60.71341661173479,57.315498245365376 60.65114450550687,57.24504899394034 60.5284873263504,56.9431236302724 60.69077220944283,56.66635871322063 60.66183769547808,56.53049229969378 60.614032846120054,56.30908036572244 60.64737043845938,55.8109035156741 60.63101614791401,55.39324009532235 60.55867986288966,55.13157144661518 60.48382753301623,54.93531996000983 60.358025298060866,54.72900429483299 60.146048532086084,54.27108415952047 60.08629247055727,54.26101998072404 59.915201430942986,54.2308274445597 59.70007960916931,54.034575957954345 59.544084837824656,53.923869991343594 59.44910415043335,53.88361327585794 59.28178717794271,53.86851700796323 59.20127374757128,53.86851700796323 59.01382841748778,53.828260292552564 58.75844988052839,53.672265521432855 58.52886080180983,53.41059687242576 58.25272489600781,53.143896134470346 57.734419687991696,52.76648942960425 56.82801458513828,52.30856929451668 56.65440750089987,52.22302377474703 56.3757555506237,52.11231780768637 55.916577392886644,51.840584980407726 55.82159670549534,51.790264086125646 55.17937629612317,51.55375588478447 54.997592066537685,51.468210365014826 54.649119875711314,51.25183052059165 54.56357435594167,51.12099619661299 54.528978741403925,50.93480888857911 54.49060905966873,50.86939172670226 54.413240685171175,50.814038743096944 54.33272725479974,50.75365367031837 54.23585953395792,50.627851435363006 54.16352324885858,50.37121487590409 54.44594926633338,50.35108651831123 54.61326623882402,50.310829803275475 54.846629384590074,50.22025219425758 55.069928351712,50.05922533336474 55.162392994328044,49.93342309840938 55.213342899486136,49.79755668465758 55.22655213423143,49.53085594670217 55.28630819575908,49.26415520822187 55.35864448093457,49.052807453721805 55.67944017999577,48.56972687156818 55.7574375656681,48.54456642442714 55.919093437660734,48.54456642442714 56.16629482927304,48.59488731870922 56.506589874902296,48.599919407732514 57.340029681482775,48.549598513900335 57.605472397162444,48.54456642442714 57.85581884472363,48.56469478202 58.03508702953503,48.56972687156818 58.201774990850886,48.56469478202 58.5471021258022,48.549598513900335 58.709387008895796,48.509341798489665 58.871671891988214,48.44392463661281 59.02577962980854,48.323154491130644 59.11006712730362,48.26780150737536 59.19372561347396,48.24264106045927 59.45350722865679,48.217480613843115 59.615792111749215,48.15709554098956 59.649758715188334,48.09167837888775 59.6378075028664,47.96084405415925 59.557294072571125,47.779688836123455 59.53276263667867,47.64885451139495 59.56169715079339,47.58343734929315 59.86991262635905,47.37712168389136 60.20391756016673,47.19093437653234 60.34796111926443,47.06010005210377 60.594533499775785,46.92423363835198 60.67190187419952,46.889009012639455 60.74989925987185,46.86888065474666 61.177626858720096,46.843720208130506 61.341169764162075,46.76320677768409 61.49401947963285,46.702821704605576 61.656304362726445,46.62734036393229 61.73933383779581,46.612244095587684 62.22493046479851,46.59714782724307 62.40797271665858,46.60217991679125 62.4620676776144,46.61727618483593 62.64951300777288,46.6525008107734 63.11498127710774,46.68772543671087 63.20744591972495,46.722950062198436 63.327587054107326,46.76320677768409 63.38985916041023,46.768238866707385 63.77607202179819,46.773270956480516 63.87231073146406,46.783335135052 63.98616175417366,46.793399313848425 64.17738115123083,46.783335135052 64.21260577701834,46.768238866707385 64.2459433692815,46.743078419791296 64.47238739227615,46.58205155942334 64.54661071089981,46.58205155942334 64.9384846727108,46.58205155942334 65.12970406984296,46.6072120060395 65.4750312048716,46.677661257689486 65.52283605407848,46.6927575260341 65.7102813842358,46.788367224525196 65.87382428975393,46.8487522971538 66.02793202742428,46.86888065474666 66.16254041882652,46.838688118357375 66.2443118716225,46.80849558219304 66.513528654352,46.727982151746616 66.5701396601569,46.71791797317514 66.75066586724287,46.68772543671087 66.89722547096586,46.66256498956983 66.94062724202547,46.66256498956983 67.13310466150719,46.67262916844124 67.18342555556431,46.67262916844124 67.58284765147262,46.677661257689486 67.98415678098024,46.677661257689486 68.4169164692267,46.68772543671087 68.5037200114209,46.71288588340201 68.54083167073273,46.73804633054305 68.65153763749345,46.818559760989466 68.6936813862035,46.82359185046266 68.73582513498853,46.818559760989466 68.77671086127404,46.80849558219304 68.82074164343344,46.783335135052 68.86540143691758,46.75314259888766 69.10819975030645,46.541794843937694 69.15160152136605,46.51663439679665 69.19500329242565,46.496506039203794 69.24155011935913,46.48140977108413 69.28998397989076,46.476377681835885 69.43402753884085,46.44115305612336 69.56737790796852,46.380767983044855 69.60511857845513,46.355607536128765 69.8755933835342,46.10400306621803 70.15424533396033,45.89265531179295 70.22406557443554,45.83730232848757 70.26998339019426,45.81214188134653 70.44044541848379,45.72659636135193 70.49202433481548,45.7115000935322 70.69079186611995,45.676275467594735 70.73985473767756,45.66117919925012 70.8688020285818,45.605826215944745 71.25690192341911,45.43473517648043 71.68462952219237,45.243515779423255 71.95321729389823,45.032168024473286 72.01045731080175,44.96675086237148 72.23438528894616,44.65476131960718 72.45328117776967,44.34780386639107 72.61053397146387,44.066006860316 72.83320392740985,43.77414567491961 72.87786372074403,43.75904940679995 72.92315252540294,43.75904940679995 73.12758115720541,43.779177764467796 73.20809458750186,43.81440239040526 73.24772229158896,43.83956283702142 73.57480810239676,44.05091059197139 73.87924951098876,44.26729043594465 74.16985267381064,44.47863819059469 74.38182943963544,44.58934415750537 74.77370340159639,44.71011430291256 74.82654034027765,44.715146392460746 75.14985208411294,44.71011430291256 75.19073781039846,44.70005012411613 75.41089172157035,44.63463296223927 75.58638583940807,44.60444042555005 75.93045495193601,44.46354192255001 76.2864752768597,44.33773968759464 76.59657778609967,44.257226257373176 77.02807945199658,44.24212998880361 77.31805360349371,44.27735461474108 77.7206207553509,44.40818893924463 77.98983753815537,44.443413565182105 78.34334181845495,44.43838147540897 78.42133920412726,44.42831729683749 78.49870757854984,44.40315684969645 78.9937393731742,44.19684118429466 79.04091521128245,44.18174491639996 79.0887200604905,44.17168073760352 79.13212183155011,44.17168073760352 79.61520241377872,44.17168073760352 80.01588253218655,44.186777005498236 80.3379362535973,44.211937452639276 80.54236488539978,44.20187327406779 80.59079874593257,44.186777005498236 80.68326338854979,44.13645611166606 80.74679351720225,44.09116730693216 80.85749948396297,43.98549342986958 80.9593992943518,43.81943447942856 80.97386655137284,43.779177764467796 81.03676766884935,43.411835238398126 81.07262130573665,42.9337867457177 81.07513735043575,42.61173302415697 81.04997690344469,42.46077034206056 81.02670349005292,42.42554571612309 80.94870610438059,42.340000196353444 80.77698605359153,42.21419796139808 80.60841105890131,42.09845990553907 80.3511454883426,41.89717632938553 80.1938926946484,41.705956932328355 80.18319950467719,41.67073230639089 80.17942543755355,41.630475591355136 80.19829577287183,41.34867858483016 80.23352039858435,41.318486048665825 80.2863573372656,41.30338978032122 80.32598504127537,41.29835769129792 80.3668707677132,41.293325601524785 80.77195396419215,41.288293512426506 80.81409771290338,41.28326142295331 80.85372541698929,41.268165154608695 80.8946111432748,41.248036797015835 81.23868025587774,41.03165695304258 81.54060561984677,40.82534128764079 81.90354506761685,40.654250248176474 81.94694683867645,40.649218158853245 82.36020718050483,40.654250248176474 83.18421181946131,40.654250248176474 83.57923083729733,40.65928233764967 84.40575152087911,40.65928233764967 84.58250366099139,40.649218158853245 84.77435206937331,40.619025622239 85.18006427702939,40.488191297960405 85.46123227222962,40.41774204661035 85.54300372487562,40.40767786773894 86.07577618991161,40.327164437067566 86.3953138668482,40.27181145398714 86.44815080537832,40.27181145398714 87.03501823144627,40.40767786773894 87.09162923725118,40.43787040397826 87.30046094727709,40.563672638933625 87.61182147871664,40.80018084049975 87.64453005980504,40.830373376889035 87.87915122799679,41.08197784679977 88.12194954146065,41.34867858483016 88.3697799443977,41.62041141255871 88.5113074587225,41.76130991563374 88.8371352472569,41.937433044871185 89.20007469502815,42.1085240843355 89.54917589710428,42.23935840831417 89.88443885326033,42.395353179958754 90.25115236808024,42.571476308671315 90.59962455890661,42.73753525911234 90.81285934723094,42.81301659978562 91.04119040359994,42.86333749406771 91.08207612996044,42.86333749406771 91.38840457207677,42.80295242098919 91.45696679020242,42.76772779527668 91.79977788038082,42.571476308671315 92.13629885888642,42.3550964644731 92.46590071446948,42.133684531176606 92.74832673209424,41.957561402239094 92.8131148829463,41.93240095509805 93.17857037549163,41.81163080991582 93.55975114748138,41.68582857496045 93.60566896316512,41.680796485187315 93.99376885800241,41.62041141255871 94.40262612160736,41.6002830547409 94.78254887117257,41.56002634000509 94.97251024595518,41.4644166409891 95.00899289409223,41.4442882836212 95.11718281622883,41.37383903197121 95.15429447561564,41.34867858483016 95.17945492253173,41.318486048665825 95.19895426887483,41.27822933363008 95.21216350354514,41.23294052867123 95.23606592818666,41.17255545634255 95.26122637517656,41.07191366800334 95.21530855949284,40.7548920359908 95.07378104516923,40.473095029915726 94.91967330727392,40.1560733978282 94.88004560333796,40.015174894603206 94.87878758091342,39.97491817911755 94.88633571508574,39.81389131844967 94.91967330727392,39.78369878206038 94.95363991078685,39.76860251416567 94.9989287152958,39.75853833514429 95.05553972102571,39.75350624589604 95.59334427553489,39.69815326229073 96.03050704192981,39.65286445800673 96.44691243963207,39.577383116658595 96.54063510467383,39.54719058071921 96.94949236827877,39.3962278986228 97.1306475866145,39.30061819983177 97.2583368550942,39.210040590588925 97.32438302859573,39.14965551818526 97.57598749850646,38.84269806451925 97.59737387829891,38.802441349558485 97.60932509061968,38.76218463452273 97.61561520236744,38.67160702505493 97.64077564935852,38.43509882348881 97.6596459846768,38.08285256576375 97.66090400695137,37.76583093367623 97.64454971640717,37.68028541375661 97.5841646436286,37.50919437429229 97.52629561554913,37.40352049670483 97.36526875488124,37.07140259634768 97.36526875488124,36.995921255674396 97.38917117944777,36.84495857357798 97.4181056935625,36.76444514313157 97.59045475545018,36.58832201434402 97.64203367170806,36.55309738840655 97.91942759978465,36.44239142157084 98.0376817006427,36.3971026170619 98.12763029863578,36.3920705280386 98.51384316002374,36.41723097465475 98.57863131095077,36.43232724277441 98.63712935020502,36.457487690140404 98.68807925536194,36.49271231585293 99.11329080951108,36.84999066305119 99.55485665420443,37.2827503515226 99.79891299001784,37.55448317880124 100.01277678951695,37.82118391705659 100.2291566335652,38.09291674456018 100.27130038227524,38.1331734597459 100.54177518750544,38.39987419755134 100.69965699237441,38.52567643250671 100.74746184158131,38.54580479009957 100.80155680261211,38.56090105844418 100.86382890891502,38.56090105844418 101.2525578149271,38.56090105844418 101.37269894930948,38.55083687964775 101.42805193276483,38.53574061130314 101.4834049160702,38.510580164612 101.58530472646021,38.45019509183342 101.88471404572779,38.228783158087026 102.19859062186644,37.99730704576915 102.45711421462475,37.83628018487631 102.51120917565555,37.82118391705659 102.5640461143368,37.82118391705659 102.90685720474015,37.82621600607988 103.11002781411808,37.87150481081378 103.26539357421298,37.911761526299436 103.31823051289423,37.91679361532273 103.73274887707217,37.99730704576915 104.15481537534626,38.02246749268524 104.19192703465926,38.01240331411376 104.2365868281434,37.9922749565209 104.2667793644577,37.97214659885306 104.55297944898116,37.770863022774506 104.6957649856555,37.61990034090305 104.7259575220448,37.55951526804949 104.73539268974143,37.51925855286377 104.736650712016,37.453841390986916 104.7259575220448,37.33307124505484 104.69450696330595,37.24249363603695 104.63475090177714,37.15694811656723 104.57184978429946,37.09153095416549 104.31584223616528,36.84999066305119 104.27055343150637,36.7694772329047 104.23784485049295,36.69399589148158 104.12713888373223,36.35181381255295 104.08059205679875,36.03982426978865 104.09568832499339,35.91905412438147 104.2233775933981,35.627192939434984 104.24979606273872,35.491326525683185 104.22463561574766,35.18436907201717 104.18752395643583,35.16424071464926 104.14412218537622,35.14914444630465 104.06926985565276,35.14411235728136 103.82647154211392,35.154176535852834 103.62204291031145,35.21959369795464 103.38553470859536,35.3252675755421 103.32766568051589,35.3252675755421 103.26036148481477,35.31520339674567 103.21821773610472,35.30010712817611 103.19305728911364,35.23468996629925 103.21129861318218,35.02334221134928 103.23268499312458,34.993149675184945 103.43333955787722,34.736513115950984 103.65726753609896,34.459748198899206 103.94787069884585,34.162854924254574 104.18249186703761,33.961571348400966 104.24979606273872,33.9263467224635 104.3315675155347,33.891122096750976 104.3919525882383,33.88105791795455 104.43158029232421,33.88105791795455 104.69450696330595,33.86092956058664 104.74419884611332,33.845833292242034 105.09141301466512,33.69487061037057 105.43799817196715,33.46842658737593 105.740552546961,33.231918385809806 106.12173331887459,32.960185558306215 106.1733122352063,32.92999302161699 106.5368806942273,32.80922287643476 106.91302937674385,32.68845273072763 107.27345277989215,32.5274258698348 107.41560930538937,32.40162363487943 107.37975566842826,32.341238562325806 107.34704708733987,32.32111020465796 107.30867740575347,32.29594975781686 107.18098813719878,32.245628863534776 107.13318328791574,32.23556468473835 107.07783030461037,32.23556468473835 106.6727471079791,32.24059677451148 106.24690654265518,32.23556468473835 105.89340226250559,32.23053259564007 105.85125851379554,32.22046841684364 105.81037278743504,32.20034005902583 105.77074508334911,32.18021170165792 105.4556104847871,31.99402439362404 105.39208035613346,31.938671410318662 105.3776130991136,31.90344678438119 105.25621394238166,31.817901264836497 105.27760032232408,31.304628146218597 105.1926838137292,30.997670692777533 105.1360728079993,30.736002044070368 105.13229874095063,30.655488613623948 105.11657346158121,30.615231898888137 104.95303055613923,30.348531160407838 104.7693592931044,29.971124455541737 104.65991134869323,29.618878197816677 104.57184978429946,29.3421132807649 104.56493066130193,29.015027470180883 104.58757506366888,28.854000609512994 104.62405771173094,28.818775983575524 104.68003970628608,28.77851926808987 104.9976903496222,28.53194688795227 105.28263241172229,28.315567043754054 105.42227289259773,28.17970063000226 105.46064257418413,28.08409093121123 105.46064257418413,28.04383421617548 105.45435246258634,28.00357750076481 105.43422410484351,27.938160338887954 105.32226011580822,27.621138706575476 105.18765172433099,27.29908498531469 105.15179808736872,27.248764091032605 104.87377514811735,26.99715962112187 104.79200369547135,26.906582012103975 104.76558522605573,26.861293207595025 104.6391539799256,26.56943202264854 104.5265609797905,26.237314122066437 104.48064316388182,26.041062635761016 104.48064316388182,25.970613384111026 104.46994997391062,25.829714880811046 104.44730557169363,25.779393986978867 104.4158550129548,25.734105182244967 104.2258936381722,25.45734026571808 103.97680521288558,25.195671617010916 103.59562444097082,24.888714163494868 103.46982220601545,24.687430587416312 103.46101604964356,24.647173872380563 103.46101604964356,24.601885067646663 103.47925737363711,24.521371637425197 103.51133694355072,24.491179100810957 103.55348069226078,24.455954475098437 103.6006565303702,24.4257619389341 103.70758843015608,24.375441044652018 103.88182452564425,24.315055972323346 103.93466146417553,24.31002388255021 103.98749840285679,24.304991793451933 104.37874335364296,24.325120151119776 104.42906424755013,24.340216418939498 104.47372404103427,24.365376865855588 104.55738252727959,24.42072984961087 104.75866610313201,24.556596263362668 104.84735667877672,24.591820888850233 104.894532516885,24.601885067646663 104.94485341094212,24.601885067646663 105.13229874095063,24.596852978398417 105.17821655670934,24.586788799601987 105.22476338364282,24.571692531257376 105.26690713235287,24.551564173889467 105.30527681401426,24.526403726748427 105.32729220520643,24.49621119058409 105.35937177512005,24.42072984961087 105.36440386451827,24.380473134425152 105.38830628908481,24.189253737367977 105.42667597082118,24.113772395944853 105.480770931777,24.03829105527157 105.59021887626315,23.83700747911803 105.73111737941316,23.535082115450102 105.78647036271855,23.45960077425193 105.95567436880849,23.293541824335797 106.01857548628618,23.278445555991183 106.08336363736318,23.278445555991183 106.50920420253712,23.278445555991183 106.56329916356793,23.283477645539367 106.61487807989964,23.293541824335797 106.79854934293446,23.353926897189357 106.91302937674385,23.404247790946552 106.97655950539631,23.414311969967933 107.04512172344698,23.424376148764363 107.09355558397979,23.424376148764363 107.43573766313337,23.419344059291163 107.48417152344122,23.409279880494733 107.55839484206489,23.379087344030463 107.63073112716422,23.34386271809299 107.67413289822383,23.308638092680408 107.96159100509684,23.07716198013758 108.08047411727964,22.926199298041173 108.37485134692523,22.63937020241792 108.40630190566407,22.619241845050013 108.73338771654802,22.412926179648224 109.07934386267527,22.251899318755388 109.45926661224048,22.176417978082103 109.86686585357086,22.176417978082103 110.30717367591464,22.16635379921069 110.72798215176536,22.201578424698255 111.11042094602968,22.342476927773284 111.50732699738884,22.458214984157173 111.81239741715561,22.518600057010733 111.9017170040489,22.53369632528036 112.31623536807687,22.65949856023573 112.73704384400259,22.73497990120895 113.12199868304099,22.805429152858938 113.61262739929194,22.97148810255012 114.00324333890333,23.102322427278622 114.18439855716407,23.157675410583998 114.59577186554311,23.273413466742937 114.97695263745787,23.404247790946552 115.32668285055881,23.580370919959048 115.6959124102278,23.696108976342938 116.08904439446333,23.771590317016223 116.48217637869885,23.877264194603683 116.87279231816028,24.008098518807298 117.2659243023958,24.133900753762664 117.66408837602954,24.249638809696652 118.29435757315476,24.395569402469828 118.67428032272113,24.516339547951997 119.04539691591445,24.637109693584133 119.43538384420111,24.762911928539502 119.84172506318193,24.83839326951272 120.28895200837327,24.853489537557397 120.7311468642414,24.853489537557397 121.17711578715817,24.84845744830915 121.61364954252828,24.803168643800202 122.03949010777721,24.73271939192526 122.34959261694219,24.702526855985877 122.89557431664848,24.717623123805602 122.9553303783261,24.737751481698396 123.01319940640674,24.757879839291252 123.09497085905274,24.798136554476972 123.38871907767353,24.994388040632426 123.42583073698536,25.039676845366326 123.68309630746909,25.44727608692165 123.6963055421394,25.502629070227027 123.82713986649297,25.78945816585028 123.91645945331129,25.910228311257466 124.01835926362513,26.005838010048496 124.07874433640372,26.061190993353875 124.11333995109025,26.08131935072178 124.14730655445439,26.096415619066395 124.50395589055286,26.22221785402176 124.66875681841937,26.307763373941377 124.89708787478837,26.34802008897713 125.3361376748576,26.438597698219976 125.68146480981008,26.52414321791464 125.94942357026501,26.579496201519955 126.6337877283484,26.589560380316385 127.22505823263627,26.6751058997861 127.46093742317876,26.64491336362176 127.55591811057006,26.58452829054325 127.58107855756114,26.47885441318074 127.49553303786647,26.332923820632516 127.13007754524614,25.900164132461036 126.71870423701708,25.749201450364627 126.32808829740567,25.603270858041355 125.97080995013243,25.432179818577037 125.78588066482303,25.230896242423498 125.73304372614061,25.11012609679136 125.71731844677235,24.92897087875557 125.77267143007656,24.722655213353782 125.97961610665429,24.491179100810957 126.33437840915344,24.365376865855588 126.6249815719765,24.269767167514463 126.92942298056732,24.224478362780562 127.33828024417227,24.249638809696652 127.67102715555305,24.335184329691252 128.20505764293975,24.380473134425152 128.83972991828958,24.57672462103051 129.57567299285347,24.697494766212742 130.38583938589105,24.84845744830915 130.92804701862366,24.939035057327047 131.46333552835875,25.024580577246663 131.88162795958536,25.059805203184137 132.3408061170963,24.939035057327047 132.711293699116,24.772976107335932 133.09373249337915,24.611949246743027 133.49629964523632,24.4257619389341 133.8196113889978,24.184221647594843 134.22280755202974,23.84707165791446 134.49328235725878,23.519985847105488 134.633551849234,23.273413466742937 134.83923850338604,22.901038851125083 135.03423196749188,22.407894090324994 135.27828830338026,21.909717239826755 135.37075294599748,21.537342624433855 135.41163867235798,21.2001926346035 135.3204320520915,20.98381279063024 135.04240911283895,20.25919191706237 134.9273000678548,19.79120760295342 134.90780072151168,19.49934641808192 134.87760818497244,19.05149046156583 134.81533607866953,18.472800180771138 134.70714615668172,17.848821095317533 134.81785212344363,17.345612155496067 135.05813439220836,17.038654702279953 135.21224212995372,16.968205450629963 135.43679911942402,16.938012914465627 135.63745368410287,16.968205450629963 135.88528408696493,17.028590523708477 136.12493734455373,17.078911417240718 136.57782539039422,17.09903977505853 136.92189450299716,17.063815149420993 137.03826157033086,16.938012914465627 137.04077761510496,16.59583083523706 137.06342201732312,16.29390547134418 137.33515484482552,15.498835346576227 137.47856939267464,15.252262965763771 137.77923673429413,14.86982417179939 138.09185528808206,14.572930897154755 138.40573186429572,14.361583142504722 138.93095619523436,14.170363745447549 139.4190688669362,13.943919722377919 139.91913275080879,13.727539878404656 140.21350998060433,13.611801822245718 140.64752769135032,13.506127944958193 141.36208438574684,13.51619212352967 141.88982476153458,13.511160033981488 142.39114666775671,13.501095855185058 142.91511297627085,13.51619212352967 143.1799266808519,13.59670555397609 143.31705111695325,13.662122715852945 143.50701249173585,13.833213755542213 143.69068375477067,14.079786136129716 143.88693524145103,14.28610180130655 144.17565137052364,14.472289109115478 144.63357150576115,14.472289109115478 144.91348147861183,14.3716473210762 145.42675459722975,14.094882404249375 145.83938592780953,13.91372718576368 146.17590690638895,13.772828682688653 146.69924420372828,13.39542197782255 146.72188860609523,12.977758557995683 146.81435324871245,12.459453349829602 146.85775501984705,12.097142913308112 147.00808869054373,11.7046399400974 147.1980500654013,11.402714576429469 147.46852487048037,11.12091756982951 147.67169547993328,10.914601904427725 148.086842855286,10.582484004520476 148.44852428078266,10.315783266340112 148.84857538794074,10.003793723575818 149.02784357282712,9.883023577868697 149.11464711487133,9.832702684111503 149.22535308163208,9.822638505315073 149.5908085741774,9.827670594788271 150.0116170501031,9.883023577868697 150.493439609981,10.039018349513288 151.06709780145363,10.184948941836563 151.65773929449293,10.24030192514194 151.9017956303075,10.25036610393837 152.27417024577656,10.345975802504448 152.61446529147963,10.461713858888338 152.99313001854532,10.74351086496341 153.04974102427522,10.98001906705442 153.04156387900312,11.16620637433846 153.17743029275493,11.266848162377737 153.4768396119487,11.307104877638439 153.88066478615542,11.312136967111638 154.22662093228269,11.251751894333061 154.59207642482804,11.055500407727704 154.96130598449702,10.879377278715205 155.31606828699617,10.718350418272271 155.68026575726694,10.542227289334758 155.88343636671985,10.411392964606256 156.04949531678596,10.688157881658032 156.25266592623888,10.944794441116949 156.44891741276925,11.206463089824112 156.6697003351909,11.473163828004475 156.92633689442488,11.719736208442011 157.1867475207825,11.986436946697358 157.2288912694937,12.061918287370641 157.286760297572,12.268233952772428 157.28801831992155,12.519838422683163 157.29871150996775,12.585255584784969 157.3710477949921,12.711057819740336 157.42136868897424,12.776474981842144 157.498108052372,12.846924233717084 157.58994368381443,12.922405574690305 157.62705534312627,12.947566021531411 157.7157459187698,12.972726468672452 158.01515523796357,12.98782273656716 158.10887790300532,12.992854826340295 158.17052099820725,13.007951094160019 158.29317817721494,13.053239898668968 158.7366310555076,13.279683921663613 158.8775295586576,13.350133173538554 159.67448671709985,13.657090626529714 160.03742616486994,13.732571967727887 160.41986495913542,13.828181666218981 160.4777339872149,13.848310023886825 160.7022909766852,13.974112258842192 161.00799040755177,14.165331655674414 161.05013415626297,14.190492103040407 161.21241903935424,14.27603762251012 161.34451138605738,14.396807768217242 161.38288106779373,14.437064483178007 161.72569215797213,14.648412238127976 161.77035195145626,14.673572685269017 161.82318889013752,14.713829400229782 161.82822097953573,14.78931074112802 161.88671901879115,14.915112976083387 162.00560213074783,15.131492820581538 162.02384345481636,15.171749535317351 162.0490039018824,15.206974161254822 162.27733495825143,15.43845027379765 162.38363784686368,15.619605492058394 162.53019745058668,15.830953246708427 162.55535789750277,15.866177872645899 162.70191750122578,15.976883839331638 162.76230257407934,16.027204733088833 162.84407402672534,16.18823159375672 162.8667184290923,16.273777113976273 162.87300854076508,16.319065918485222 162.89062085365885,16.359322633445988 162.918297345424,16.404611437954934 163.16235368116241,16.6662800866621 163.19883632929947,16.701504712374618 163.5208900508602,16.912852467324587 163.56869490014324,16.948077093262057 163.60517754827913,16.988333808222823 163.63159601762092,17.028590523708477 163.63599909584437,17.124200222199573 163.63599909584437,17.174521116031748 163.64228920759214,17.219809920540698 163.65549844218745,17.27013081482278 163.67373976633098,17.315419619331728 163.88886158810465,17.567024089242462 163.9234572026424,17.602248714879998 166.76847474615803,19.37354418312655 166.85716532180157,19.42889716643193 168.60330034298207,20.546021012685625 169.00083540544102,20.81272175094097 169.49649621124016,21.08445457821961 170.41233648164024,21.567535160673174 171.2193578188789,21.904685150503525 171.54141154043964,21.980166491476744 172.00562178734995,22.00532693831785 172.57927997882143,22.00532693831785 172.96737987365873,21.970102312680318 173.42655803117083,21.84430007772495 173.56745653432085,21.76881873652678 173.69514580287552,21.81913963058391 174.2310633237854,21.990230670273174 174.71225687248966,22.16132170973749 175.12425919189351,22.347509017546418 175.50292391910918,22.50853587813932 175.8708954564286,22.674594828130438 176.33258965871363,22.916135119469693 176.67036865949498,23.08722615893401 176.86913619072445,23.17277167885363 177.07230680025236,23.238188841030418 179.09835179413358,23.46966495304836 180.6777988540732,23.660884350405468 181.73831169467195,23.811847032501877 182.27926130498003,23.902424641519772 183.9492859740875,24.093644038576947 184.3053062990112,24.164093290226937 184.44746282451078,24.229510452103792 184.67327783618066,24.335184329691252 184.9437526414097,24.4257619389341 185.19284106654632,24.466018653894867 185.523071933303,24.501243279607387 186.06339253243746,24.551564173889467 186.54395707004196,24.606917156969892 187.21007990420563,24.712591034557352 187.6107600223885,24.772976107335932 188.2479483425874,24.103708217148423 189.0329542886339,23.268381377194753 189.2612853450029,23.031873175628633 189.39463571413057,22.911103030146464 189.61227358052838,22.765172437373284 189.8072670447092,22.679626917903573 190.58409584563358,22.483375431298214 192.32834383321477,22.09087245786255 193.86879220024323,21.718497842769583 195.50862433288646,21.331026958807115 196.28167906676217,21.109615025585605 196.6100228999207,21.024069505815955 197.12455404088814,20.943556075144585 197.6875190423884,20.84794637687844 198.2007921610063,20.70201578403028 198.79206266522152,20.475571761035635 199.4279929629959,20.15855012902309 200.13751756806917,19.796239692726555 200.7508034634766,19.35844791478194 200.96215121820163,19.16722851794972 201.55279271131707,19.142068070808676 202.61204752964125,19.056522550814076 203.42095590047924,18.955880762774797 204.19778470132866,18.930720315858707 204.8374890660755,18.930720315858707 205.4614681514553,18.915624048038985 205.79547308526182,18.87536733255333 206.21879760581163,18.749565097597962 206.4993365898371,18.623762862642597 206.76603732794246,18.462736001749757 207.1075903958463,18.246356157776496 207.3032128711269,18.130618101842508 207.838501380862,18.613698683846167 208.4297718851522,19.142068070808676 209.0386547023362,19.625148653037286 209.52550935161463,20.07300460925344 209.7475502963097,20.324609079164176 209.99538069924674,20.641630711476655 210.3274985994551,21.07942248889638 210.53884635417896,21.346123226926775 211.09929531090512,21.27064188625349 213.20899879118159,20.988844879878485 214.43682860427216,20.863042644923116 216.6176103472223,20.54098892366233 218.7027823916075,20.37492997322131 219.15252538164793,20.289384453751595 219.53244813113815,20.133389682107 219.76895633285423,20.042812072864155 220.15139512711855,19.87172103339984 221.33330712459804,19.247741948171186 222.78820997178306,18.497960627687227 223.81349818667047,17.929334525763952 224.63624480342736,17.506639016388903 225.05076316745533,17.28019499361921 225.2444986092866,17.174521116031748 226.04900390182618,16.59583083523706 227.23343194393095,15.926562945049556 231.97491817939874,11.422842934022329 232.6712335499517,7.8248990142988255 233.01530266247963,6.6624863630862805 235.57223308794747,0 236.68117978915402,1.3133753328590498 239.04248773919127,9.027568380097216 238.8921540684946,12.152495896388539 238.31597983239902,14.588027165274415 237.97694280911932,16.867563662815638 240.14954740679852,20.007587447151636Z"/></svg>