<svg xmlns="http://www.w3.org/2000/svg" width="256" height="256"><path d="M136.1114105204573,0.4985394355069361 136.75270034632112,0.9217182583634471 136.9150155112855,1.2927243492787328 136.7374832996921,1.565181948043736 136.34836167645446,1.7506849935445696 135.5338873665438,1.9999547113412284 135.35490591240605,2.081112293823427 135.18461991336284,2.3999456532293952 135.32447181897524,2.8810941782908133 135.91213967061128,3.252100269724388 136.61429768333807,3.3506487623929604 137.79543035704933,3.3274608819429052 139.03235886863067,3.3216639113336974 139.63379452443917,3.391227553547678 140.03523470930355,3.588324539489493 140.15697108311323,3.785421525690453 140.0946536536209,3.9477366908276132 139.86929643789196,4.115848825710166 139.6736486944945,4.2433821699562895 139.44394375121897,4.376712483775043 139.319308892322,4.457870066084478 139.2736577522608,4.573809469716857 139.3164104073184,4.753515545558681 139.60336043100833,5.286836801524745 139.97726500744417,5.698421684372183 140.25551957595457,6.104209596610413 140.35914041787382,6.591155091417223 140.36203890304884,7.391136976057371 140.36203890304884,7.895473381309699 140.046104028386,8.457779488853316 139.4910441339109,9.014288625614961 138.75555354266461,9.750503838391193 138.51715314403677,10.028758406642444 138.40193836176294,10.324403885857503 138.41498154466186,10.741785738450332 138.43816942537242,10.88091302279191 138.55628269281857,11.03743121766539 138.9548243925093,11.29249790512106 139.76784945978923,11.704082787709352 140.60333778667896,11.959149476028838 142.4359049838915,12.521455582795019 143.41486832258303,12.79971015156456 143.9271755620019,12.822898032014614 144.22354566231635,12.724349539346042 144.4619460609442,12.538846493758827 144.5438282646122,12.370734358530749 144.5894794047584,11.715676728063952 144.632232059816,11.002649396256064 144.74889608463417,9.785285659541374 144.84961844146474,9.576594732899434 145.06048323166402,9.408482597498592 145.2517832476013,9.32152804518462 145.91915943917658,9.3273250154483 146.53291365678325,9.443264418907917 147.25318720122772,9.588188673340415 148.2212812208368,9.785285659541374 149.08937750488747,9.953397794423926 149.8415343854785,9.999773555842326 150.19370032366308,9.953397794423926 151.09078145868662,9.71572201706825 151.67555082523538,9.680940196263595 152.15162700104614,9.698331106363586 152.6697312106423,9.785285659541374 153.31391952168116,9.947600824073865 153.98854192597804,10.191073571779604 154.40954688510445,10.498312991349263 154.658816602727,10.973664545455946 154.79069767426057,11.518579742122137 154.86968139292762,12.277982835348423 154.862435180206,12.753334390059779 154.6827291047097,13.159122302643535 154.39432983847541,13.576504155236364 154.0110051854151,14.144607232611754 153.9508616198256,14.602567876359302 154.1189737549673,15.01415275920674 154.2943321028306,15.234437625857755 154.54650030562954,15.425737642054177 154.79577002316705,15.541677045427411 155.22691968019012,15.669210389155246 155.5674916780201,15.680804329509845 156.2464618100377,15.646022508705192 156.7667398835354,15.588052806586667 157.57976495081533,15.304001268071735 158.05511650552668,15.043137610266003 158.51742487699357,14.74169516070088 159.23262607279074,14.376486039617369 159.91377006853708,14.034464798983912 160.63114512789156,13.750413260728125 161.29199972810375,13.622879916654764 161.74198953811666,13.634473857009363 162.1673422250488,13.7040374989642 162.39849641069586,13.79678902188738 162.56515930337963,13.930119335965276 162.66298317503518,14.127216321907092 162.70790969390924,14.440252711481286 162.48617558471256,15.217046715412236 162.09270623392968,16.185140735021317 161.82532098441533,16.805416544165173 161.5746020243335,17.274971128267318 161.38909897857351,17.76191662307413 161.221711464704,18.138719684857765 160.91374742403494,18.486537895236616 160.64491293214903,18.608274268959914 160.3557890446426,18.730010642942357 160.10941781193458,18.834356106220135 159.96666742131856,18.90971671817951 159.8942052941023,19.054640972612006 159.8862344601085,19.25753492916303 159.9210162813451,19.42564706404558 160.07318674832644,19.558977378382625 160.3014424492304,19.60535313980102 160.71302733164592,19.582165258832678 161.2391023752359,19.524195556973297 161.74778650829396,19.489413735909498 161.9803899366581,19.466225855459445 162.17603768014197,19.5126016166187 162.37530852998665,19.582165258832678 162.57168089482772,19.73288648361524 162.71153280027005,19.92418649920699 162.7550100765998,20.074907724248696 162.7839949274863,20.289395620549648 162.63979529432598,20.996625982353 162.59124566909108,21.385022983886564 162.6079119584372,21.506759357609862 162.717329770446,21.640089671946907 162.9441362287206,21.744435134965542 163.37383664311295,21.889359389398038 164.11367496190448,22.028486673739618 164.6549670522949,22.06906546515348 165.17452050452312,22.0516745545352 165.59117773601656,22.022689703735082 165.69769706293806,22.179207898263034 165.71726183728643,22.23717760038156 165.74624668817293,22.29514730163627 165.75784062844116,22.33572609305013 165.82233192166362,22.434274586323372 165.85421525763877,22.480650347482626 165.8976925340549,22.50963519854189 165.9636330698217,22.544417019346547 166.00131337597415,22.567604900055745 166.06652929046876,22.596589750855863 166.1179774007059,22.619777631824206 166.17884558756757,22.637168542269727 166.30492968892383,22.68354430403365 166.42086909246984,22.72992006493376 166.6107198658628,22.816874618111548 166.72593464813662,22.85745340892074 166.82810624751153,22.909626140689202 166.93752405960808,22.973392812898645 166.98897216984523,23.019768573798757 167.01940626327604,23.048753424858017 167.0454926291603,23.08353524618096 167.08027445013636,23.17048979884046 167.10273770957474,23.22845950061346 167.1107085436549,23.274835261859096 167.10781005847988,23.344398903986693 167.0512895993376,23.431353456646193 167.01360929309874,23.50671406886471 166.98897216984523,23.541495890274035 166.91578542135682,23.674826204265553 166.89042367683112,23.75018681657045 166.88390208538166,23.90670501135755 166.88752519182887,24.011050474376184 166.919408527804,24.242929281640944 166.93607481706374,24.411041416869022 166.94621951478763,24.48060505847833 167.04042028034152,24.741468716543206 167.05781119078705,24.80523538875265 167.06940513114165,24.89798691167583 167.07737596504904,25.04870813585372 167.0723036161439,25.106677837972246 167.06215891833364,25.170444509836162 167.04984035670688,25.240008152050144 167.04404338652958,25.297977853563996 167.04259414398524,25.367541495777978 167.03462330999147,25.419714227287294 167.01940626327604,25.512465750210474 167.00853694428,25.564638481719793 167.00129073147198,25.611014243138193 167.0056384591063,25.692171825965918 167.01360929309874,25.750141527566154 167.02737709735487,25.790720318980014 167.0512895993376,25.877674871293987 167.0454926291603,26.034193066081084 167.04042028034152,26.092162767940465 167.0389710377108,26.173320350509044 167.04984035670688,26.266071873432224 167.0512895993376,26.6370779648658 167.0512895993376,26.753017368239036 167.0389710377108,26.857362831516816 166.9527411062371,27.11822648932255 166.93752405960808,27.158805280477264 166.88897443437318,27.23996286330499 166.64550168684022,27.483435610406058 166.58970584888368,27.535608342174523 166.53753311737438,27.587781073942985 166.42376757764487,27.674735626602484 166.26000317013614,27.80226897007117 166.20638119599613,27.837050791394116 166.1607300557635,27.87762958280798 166.12160050715312,27.912411403699014 166.08826792854725,27.95299019511288 166.03609519703792,28.010959896885876 165.98754557180305,28.07472656849065 165.91146033813962,28.184869001859347 165.86943230435418,28.248635673723264 165.84044745346768,28.28921446513713 165.69914630548237,28.561672063556603 165.66726296942085,28.63123570551144 165.6063947825592,28.76456601958934 165.5832069019364,28.805144810744054 165.559294399955,28.845723602157918 165.47378908975347,28.97905391649496 165.45277507286076,29.019632707649677 165.39190688617185,29.164556962082177 165.37234211173845,29.216729693591493 165.35567582256374,29.29209030581001 165.34480650330855,29.355856977673927 165.3223432438715,29.41962364979699 165.2643735421849,29.76744186026222 165.25060573792743,29.825411562380744 165.23683793375633,29.929757025658525 165.20785308286983,30.028305518327098 165.1911867936965,30.074681280091024 165.18683906597713,30.12685401160034 165.19263603632717,30.271778266032836 165.19408527869874,30.323950997542156 165.17741898943902,30.46307828162459 165.16582504908442,30.56162677489783 165.13176784937914,30.758723760839647 165.12307239402682,30.822490432703564 165.092638300596,30.909444985535828 165.04698716053613,31.01958741864538 165.00423450547856,31.094948030863897 164.96945268432836,31.19349652413714 164.92525078681285,31.28624804706032 164.8890197232047,31.34421774883332 164.8643825999512,31.390593510078954 164.77018183448368,31.494938973356735 164.71148751143718,31.558705644961506 164.6788795542776,31.59348746628445 164.64699621830246,31.634066257698315 164.6093159120636,31.674645048593888 164.54409999757036,31.73261475071241 164.46221779381463,31.836960213731047 164.0803423834714,32.115214782241445 163.99266320945333,32.1673875140099 163.91150562705752,32.21956024551922 163.87092683573005,32.24274812596928 163.8252756955838,32.27173297702854 163.77165372153016,32.306514797833195 163.65498969662562,32.381875410656384 163.58325219068155,32.42245420146558 163.46368968086244,32.5152057246479 163.3129684562513,32.63114512810751 163.25717261820841,32.677520889266766 163.21007223560423,32.74128756113069 163.15645026146422,32.79925726324921 163.12311768285835,32.845633024408464 163.10210366605202,32.886211815563186 163.0716695726212,32.949978487945394 163.03181540256588,33.042730010609425 163.0057290368544,33.09490274237789 162.97601956469575,33.147075473628064 162.95573016898882,33.18765426504192 162.93616539464043,33.25721790699676 162.9057313012096,33.39054822107466 162.87964493549813,33.57605126692102 162.8325445527212,33.78474219321743 162.81950136999504,33.83691492472675 162.79486424665512,33.906478567199876 162.73544530225277,34.02821494092317 162.69776499618536,34.09198161278709 162.63834605195441,34.20212404606941 162.59704263926838,34.27748465863345 162.56878240965406,34.376033151302025 162.55139149912216,34.422408913065944 162.53182672477243,34.462987704220666 162.50646498024807,34.51516043572998 162.48037861453662,34.5789271075939 162.4151626999556,34.741242272385534 162.39487330442142,34.816602884949575 162.38183012143614,34.86297864610883 162.34632367918655,34.932542288322814 162.3238604197495,34.99630896018673 162.27023844552312,35.17601503568303 162.253572156262,35.23978170789247 162.22313806283253,35.33833020056104 162.20502253102848,35.390502932329504 162.15212517816062,35.5122393060528 162.1021263103814,35.63397568003524 162.0731414594949,35.691945381808246 162.0369103958868,35.76150902350393 161.98618690700818,35.825275695627 161.95720205594893,35.865854486781714 161.89995697553445,35.97599692040956 161.87242136710591,36.02816965191887 161.85575507784617,36.06874844333274 161.82097325686874,36.14410905529211 161.7977853761609,36.19628178680143 161.76735128272873,36.254251488919955 161.64778877282058,36.439754534766315 161.5318493692759,36.607866669648864 161.4528656506102,36.7238060730221 161.41518534437137,36.78177577514062 161.38909897857351,36.82235456620896 161.36301261286206,36.886121238418404 161.34199859588296,36.94409093967312 161.31591223025788,37.0194515524963 161.30866601744987,37.14118792613322 161.31591223025788,37.24553338915185 161.31591223025788,37.29770612092032 161.30286904727257,37.384660673579816 161.26446411976158,37.47741219624385 161.2188129797017,37.63972736103548 161.18692964372656,37.749869794404184 161.17026335446684,37.8020425259135 166.01653042260315,42.914970222464774 166.13319444750772,42.89178234201472 166.2766694593095,42.86279749069631 166.47376644533634,42.8280156701508 166.54260546619312,42.822218699541594 166.60129978923828,42.822218699541594 166.7534702563924,42.833812639896195 166.81288920071108,42.83960961024626 166.85709109839803,42.845406580250796 166.91288693635454,42.85700052060539 166.96505966786387,42.85120355060086 167.0512895993376,42.822218699541594 167.11650551374584,42.86859446130552 167.21070627912695,42.926564162819375 167.38244152071584,43.03670659644722 167.43751273739883,43.06569144724733 167.54837979195466,43.12366114876119 167.60127714490892,43.15264599956131 167.6498267701438,43.18742782088425 167.73533208017258,43.25119449309369 167.78822943312684,43.297570253993804 167.8295328456401,43.33235207531675 167.8585176964402,43.36713389646693 167.8990964876813,43.401915717271585 167.9432983852832,43.4424945084263 168.00996354232217,43.50046421054483 168.04836846983315,43.53524603134948 168.09836733752599,43.57002785241328 168.183148026369,43.61640361417721 168.28097189811095,43.674373315950206 168.32010144689409,43.70335816649118 168.37010031458692,43.7381399879005 168.41140372710018,43.76712483861424 168.49183668831023,43.81350060011902 168.54400942007734,43.854079391273736 168.6193700322108,43.91204909304674 168.65922420217976,43.941033943846854 168.71357079759196,43.97581576525618 168.8382056564903,44.08016122827482 168.89472611563258,44.1091460792477 168.99472385127737,44.172912751198 169.08747537420055,44.21349154226633 169.13312651417402,44.236679423061915 169.18529924577106,44.25986730351197 169.3476144107341,44.35841579669883 169.42080115922252,44.40479155794446 169.52369737986962,44.46855822980838 169.56934852010224,44.49754308086764 169.62441973678523,44.52652793192691 169.75485156568945,44.61927945485009 169.81716899518315,44.677249156623084 169.86426937787235,44.723624917868726 170.01933833002875,44.84536129185117 170.06933719780795,44.885940082660355 170.15919023555745,44.94390978451974 170.2273046352244,44.996082516029055 170.26208645620318,45.01927039673826 170.32802699196998,45.05405221814758 170.3946921490089,45.088834038952236 170.43527094025,45.100427979306836 170.48237132311334,45.11202191992058 170.5280224630868,45.11202191992058 170.64686035172147,45.12941283010695 170.7214963427542,45.14680374107076 170.7714952106198,45.15260071081615 170.86859446108957,45.175788591525354 170.9280134054069,45.18738253222548 171.09685016182075,45.256946174353075 171.1410520593363,45.28013405514866 171.19974638246782,45.30911890560325 171.26351305433175,45.33810375640337 171.3142365434695,45.361291637371714 171.41423427894154,45.40187042878558 171.47220398079958,45.42505830958115 171.53886913783987,45.454043160035745 171.59176649070773,45.471434070481266 171.6830687710002,45.50041892179967 171.74538620031979,45.535200742604324 171.7895880979217,45.558388623572675 171.83523923806794,45.58157650436825 171.90335363764987,45.61056135482284 171.94175856516222,45.63374923587757 172.02509001137452,45.68012499703683 173.1373836642303,46.27721292547148 170.45411109332625,47.135164511711864 170.91134711606077,47.56993727500936 174.49459930690426,51.019134530330035 177.1249745248541,53.59878625905572 177.29381128144072,54.114716604921796 177.4090260635418,54.35239238227747 178.70537351952686,56.91465320055765 178.78435723819257,57.05378048498561 178.8343561058854,57.13493806755419 178.90319512674085,57.23928353083197 178.9502955094314,57.30884717304595 179.06406104916093,57.44797445686924 179.14449401037095,57.52913203969696 179.35463417929807,57.70883811493412 179.69665541984514,57.940716922285254 180.02273499231828,58.166798759199956 180.0669368898338,58.19578360974093 180.3951903261234,58.439256357446666 180.74518240057787,58.70591698551608 181.09734833893523,58.95518670331274 181.50893322143716,59.19865945041381 181.92124272529762,59.43053825767857 182.32558139516428,59.69140191582983 182.54079391308292,59.8131382892076 182.79006363062044,59.97545345408562 183.10817236918615,60.26530196295061 183.27048753415053,60.44500803870605 183.34005117619176,60.52616562101549 183.153823509246,60.8449989806806 182.52267838127884,61.76092026903951 182.03066053739414,62.43916577943807 181.0821312921321,63.2739294852284 166.60637213814343,72.20126355818387 165.49190462155752,73.03602726397419 165.26582278464284,73.20993636920682 164.01367722643243,74.83308801893716 158.86959081535093,75.38380018569427 158.62321958272932,75.51713049968579 158.26598129563823,75.70843051536393 158.07178279470003,75.83596385961005 158.0261316544674,75.85335476979643 157.98048051440622,75.86494871015103 157.6826611714624,75.92291841226954 157.21962817863695,75.91712144166034 156.77978306643433,75.89393356121028 156.30443151180936,75.88233962085569 155.8319784424458,75.87654265050561 155.41532121095236,75.9577002330742 155.01605488998948,76.1026244875067 154.75301736810945,76.20117298077994 154.70881547059392,76.20696995052533 154.31244763463468,76.28233056326214 153.95810783254723,76.44464572788101 153.64072371542642,76.55478816150885 153.588550983743,76.55478816150885 153.27913770053095,76.56058513177254 152.84436493723348,76.65333665417742 152.4204614931048,76.7692760578098 152.0248182784177,76.93159122268781 151.69873870594458,77.12868820888878 151.3929485291784,77.34317610553526 151.1132447180373,77.6156337036956 150.80310681355175,77.85330948105127 150.53137383649215,78.13736101991172 150.42775299465796,78.2417064831895 150.1212381964482,78.46199134958137 149.8292158238531,78.72865197799632 149.65603133971854,78.93154593394267 149.61327868483372,79.17501868164841 149.6821177055164,79.25617626421699 149.82631733867672,79.41849142900863 149.87921469154458,79.55761871343658 149.81110029204768,79.80688843088771 149.7183487691245,79.93442177461554 149.50893322155594,80.13731573116657 149.26256198902067,80.28223998559906 148.90822218684548,80.40397635932237 148.43287063230824,80.43875818012702 147.99954711164145,80.37499150826311 147.40535766838184,80.1547066415257 146.76841557023874,79.89963995381089 146.4437852402222,79.81268540089225 145.9553905027847,79.81268540089225 145.6307601728559,79.89384298371998 145.08512035491756,80.10253390975724 144.69020176167538,80.32861574701747 144.2249949049484,80.65324607703265 143.82790244780202,80.98947034679775 143.472838024356,81.32569461742666 143.22646679182077,81.65612191770553 142.92285047878468,82.15466135286694 142.88154706627142,82.25900681588557 142.91922737242388,82.64740381793743 142.95473381475983,83.2560856862084 142.9576322999349,83.4647766125048 142.86777926218673,83.71984330056515 142.69024705041917,83.91114331641604 142.37721066093272,84.08505242164865 142.1873598875411,84.11403727244878 141.9562057018063,84.07925545164412 141.72650075853082,83.99809786907554 141.1583976811554,83.71984330056515 140.83739045758745,83.56912207578259 140.09175516844584,83.15753719353982 138.55338420764488,82.27639772624471 138.25556486478612,82.15466135286694 138.03817848313736,82.11987953145761 137.75412694444967,82.13147347181221 137.27732614736675,82.27060075624017 136.9896515023196,82.53726138465511 136.93385566436174,82.78073413175618 137.2012409137897,83.33724326877697 137.53674056280093,83.70824936021054 137.8867326372554,83.98650392898008 138.25121713715313,84.2531645570495 138.85772514203953,84.64735852893313 139.3164104073184,84.93720703779813 139.58524489920427,85.22705554666312 139.77364642996653,85.45313738340505 139.93306310992864,85.78936165403397 139.8997305313228,86.519779896201 139.8439346933663,86.76904961365213 139.69176422629855,87.05310115251258 139.47147935947476,87.32555875067293 139.17076153161372,87.57482846864234 138.95917212014226,87.71395575281116 138.7345395256855,87.92264667910757 138.58671678625075,88.06757093354007 138.21281220972853,88.47335884577831 137.89542809252134,88.931319489785 137.7454314892701,89.22696496900005 137.72804057873822,89.66173773229754 137.72369285101885,90.1834650484273 137.85629854399735,90.49070446747866 138.30121600501872,90.86171055917139 138.9352596181609,91.25590453105501 139.73451688126974,91.45300151699684 140.24609949950283,91.69647426435705 140.58667149733284,91.99211974331295 140.73087113049317,92.19501369986398 141.0808632051204,92.49065917873351 141.48375263235638,92.74572586679385 141.6475170398651,92.84427435946243 142.41778945208745,93.12832589832288 143.54240166657002,93.41237743683782 144.27354453018197,93.48773804931548 145.1409161928727,93.58048957197951 145.79162609527597,93.71961685640747 146.58943411592554,94.00946536527246 147.31912773699452,94.4036593371561 148.54808541458343,94.95437150408597 149.07560970080274,95.16306243038238 149.4400942006141,95.26740789391931 150.5103598195981,95.4992867010113 151.21396707486787,95.66739883589386 151.52555422198412,95.7775412695217 151.8487353092822,95.96884128511346 152.71320848697206,96.39202010805634 153.33493353848746,96.64128982550747 153.61898507717518,96.73404134843065 153.9994112450605,96.74563528878525 154.39143135330173,96.79201105054918 154.95953443067577,97.02968682790485 155.87907882513636,97.42388079978849 156.73268268383148,97.9108262945953 157.57034487436223,98.22386268391035 158.17540363661928,98.36298996825192 158.75075292663126,98.43255361046592 159.18407644746947,98.38038087869745 159.4304476800047,98.36298996825192 159.6702973210041,98.39777178966125 160.11304091838176,98.62385362666234 160.526075043428,98.87892031437714 161.05649781465095,99.25572337590164 161.57750050933578,99.57455673548037 161.94705735814,99.84121736337703 162.4484952784751,100.01512646886879 162.96225176052465,100.2122234548106 163.50426847201584,100.42091438110701 164.1535291319598,100.6527931887173 164.7078644051641,100.86728108501825 165.2948076356157,101.1339417129149 165.43321029859874,101.19191141503343 165.9252281423107,101.4353841621345 166.53173614719842,101.68465387984477 167.05998505451714,101.99769026976449 167.2462127214629,101.96290844835517 167.41794796296543,101.83537510462733 167.7476506418007,101.56871447621239 167.85199610499075,101.562917506467 168.16213400956266,101.31364778867034 168.2548855323131,101.18611444468335 168.28676886828825,101.11655080246938 168.44473630561967,100.80931138324524 168.63313783646828,100.47888408322554 168.69255678069922,100.42671135171622 168.75342496764728,100.38613256030236 169.03747650633497,100.2354113355198 169.43239509957712,100.0904870810873 169.6954326214585,99.9223749459456 170.0468739384573,99.7136840196492 170.4186046509903,99.5223840037119 170.49468988456735,99.49339915325731 170.58019519468252,99.4760082422935 170.84758044411183,99.44702339149339 171.34467063690033,99.45282036184345 171.40698806621992,99.45861733210714 171.57510020144798,99.50499309335277 171.63162066059027,99.51658703370737 171.68161952836948,99.5223840037119 171.73016915369075,99.5223840037119 171.77437105129266,99.51658703370737 171.82002219135254,99.50499309335277 171.87002105921812,99.4876021826481 172.09827675986293,99.36006883892027 172.44319648549865,99.08761124041442 172.81420257675947,98.84993546331788 173.2286859445228,98.67022938756244 173.6996897714284,98.56008695445288 174.15692579407656,98.55428998418921 174.21634473839387,98.54849301409828 174.4569190007518,98.4905233123253 174.89603949176868,98.39197481905205 175.38370960793404,98.35139602789732 175.84674260075948,98.36298996825192 176.31339870011985,98.44414755107965 176.76338851004502,98.5021172526799 176.9155589771978,98.53689907348455 176.97135481515565,98.54269604409376 177.02787527447072,98.54269604409376 177.50032834383427,98.54269604409376 177.97640451964503,98.54269604409376 178.28726704540273,98.58327483524847 178.74667693195374,98.65283847711693 179.2024637121453,98.73399605994464 179.70100314747813,98.75138697013102 180.2096872805362,98.75138697013102 180.4792463936929,98.79196576154489 180.91691764225317,98.8673263737634 181.63864042915287,99.07601730005982 181.75530445405877,99.12819003182828 182.12920903049462,99.35427186857021 182.5183306535595,99.57455673548037 182.5683295213387,99.59774461627595 182.6234007380244,99.61513552689424 182.67484884834658,99.62093249672601 182.99513145064242,99.62672946733521 183.24005344071972,99.56875976521668 183.33425420601446,99.56296279512577 183.41468716731086,99.57455673548037 183.53932202603644,99.62672946733521 183.77627318203358,99.7136840196492 183.82699667117132,99.7252779600038 184.27988496627287,99.85860827408169 185.1349380673396,100.18903557436055 185.63347750258603,100.27019315692912 185.98636806212915,100.21802042541981 186.45447340394614,100.17744163400594 186.51171848444562,100.18323860426962 186.66243970905677,100.22961436551526 186.70954009174733,100.24120830586986 186.83997192082296,100.2354113355198 186.91170942676703,100.19483254462422 187.0863431533582,100.0672992003781 187.13199429341805,100.04411131992805 187.17909467610997,100.02672040922339 187.2290935438878,100.01512646886879 187.28054165429774,100.00932949877786 187.4421321979036,100.01512646886879 187.71676366005318,100.04411131992805 187.80081972779814,100.0672992003781 187.87183261238232,100.10787799153282 188.10008831302713,100.27599012667451 188.46602205546918,100.47888408322554 188.59717850581697,100.5542446951849 188.70949480291713,100.6411992483627 189.04789293701566,100.86728108501825 189.4102035730969,101.07597201166018 189.5145490363747,101.11075383246484 189.6167206357496,101.1339417129149 189.88845361281054,101.1397386835241 190.13047711771281,101.18031747467883 190.41742714140278,101.30205384831574 190.46597676663765,101.33103869911587 190.73988360760282,101.65566902939018 190.7623468669521,101.72523267099949 190.77466542857752,101.95711147860978 190.9768347635986,102.28174180802029 191.00871809948737,102.31072665933868 191.04349992072258,102.33391453978874 191.11668666903958,102.37449333094347 191.43841851388106,102.4962297049259 191.4768234413907,102.51362061554418 191.5326192794336,102.55999637678983 191.70942686966714,102.74549942263619 191.77754126925177,102.79187518405458 191.85652498800386,102.82086003459555 192.14057652669155,102.86143882575027 192.18767690929707,102.85564185565936 192.4412943545526,102.83245397495016 192.48839473724317,102.83825094530022 192.61158035359716,102.87882973671408 192.73041824214542,102.942596408578 193.03113607009286,103.23824188770666 193.06591789124303,103.26142976850225 193.17243721816453,103.30780552940236 193.24272548156432,103.30200855965697 193.3122891237783,103.2730237085977 193.3760557956422,103.23824188770666 193.72242476382226,102.95998731928266 193.76517741887983,102.93679943848707 193.81227780148402,102.91361155751873 193.86517515435187,102.8962206470732 193.91589864348964,102.89042367706868 194.02169334913899,102.88462670645947 194.0782138083663,102.89042367706868 194.1296619186912,102.90201761716413 194.26516609658557,102.96578428902805 194.68472181334042,103.18027218593367 194.76370553183338,103.19186612602913 194.8361676590496,103.19186612602913 194.89123887573396,103.15708430522447 195.19847829513222,102.84984488565482 195.48252983381855,102.56579334679435 195.524557867604,102.54840243643523 195.57165825038092,102.52521455598516 195.61730939044077,102.51941758537596 195.66948212203647,102.5078236452805 195.82889880191223,102.51362061554418 196.13106587240398,102.55419940643975 196.17961549763888,102.55419940643975 196.2252666377851,102.54260546608516 196.42888521534914,102.47883879422123 196.55062158915882,102.46724485386665 196.70713978385953,102.46724485386665 196.75424016654875,102.47304182413032 196.802789791785,102.48463576457131 197.2433595252598,102.652747899713 197.33900953309885,102.69332669086772 197.55639591474895,102.73970245202698 197.61001788888896,102.73970245202698 197.66291524175548,102.73390548228159 197.71001562461882,102.72231154192698 197.75711600722298,102.70492063122232 197.93174973381414,102.62376304865374 197.98029935904904,102.61216910829914 198.02957360555607,102.60057516820368 198.0795724732489,102.59477819759448 198.28608953581522,102.59477819759448 198.3360884036808,102.60057516820368 198.8041937454114,102.67593578016306 198.8527433706463,102.67013881041767 198.89839451088025,102.65854486997668 198.93824868076146,102.6411539593584 199.00201535279814,102.58898122784908 199.1672290027648,102.44405697341658 199.23751726625096,102.40347818200273 199.3085301509215,102.38029030155266 199.38461538441356,102.36869636111169 199.55055365582515,102.35710242075709 199.62301578304138,102.34550848014334 199.69185480381046,102.32232059943414 199.75851996084938,102.29913271898408 199.82373587534403,102.26435089757476 200.0606870313425,102.04406603092374 200.23097303029934,101.80059328382268 200.30560902141846,101.77160843276341 200.38749122508642,101.77160843276341 200.46212721620554,101.80639025356807 200.5229954030672,101.84696904472278 200.8266117160169,102.10203573304227 200.86211815852562,102.12522361349232 201.0758814336408,102.2179751364155 201.12153257387342,102.22956907651096 201.16863295656398,102.23536604712017 201.33167274280055,102.23536604712017 201.4026856273861,102.23536604712017 201.46500305687843,102.22377210667919 201.57442086897498,102.1947872557063 201.63673829829457,102.18899028535624 201.7034034553335,102.2063811960609 201.76137315719288,102.2179751364155 201.88166028837188,102.27014786792482 201.99832431310364,102.32811756969782 202.0591924999653,102.34550848014334 202.2599125923543,102.3397115101388 202.32078077921594,102.32232059943414 202.37077964708155,102.29333574837487 202.41208305959344,102.24695998747477 202.4454156380279,102.20058422571084 202.4997622334401,102.14841149394238 202.53526867577605,102.12522361349232 202.9896062134233,101.98609632906437 203.37075700257938,101.98609632906437 203.42582821926374,101.99189329915528 203.74900930664822,102.10783270278766 204.17146350831894,102.31072665933868 204.2917506395843,102.40927515200725 204.62145331833185,102.65854486997668 204.74463893468584,102.72810851167237 205.17144086398955,102.942596408578 205.522882180987,103.16867824557907 205.9083806977788,103.35418129116628 205.96924888464045,103.37157220178457 206.01490002470032,103.37157220178457 206.40836937548454,103.58606009791275 206.80980956034895,103.81214193517297 207.25182853628166,103.93967527890081 207.70471683138322,103.95706618960547 207.7626865332426,103.96286315986916 208.0344195103049,104.05561468253319 208.47354000114763,104.21213287732029 208.87642942846998,104.40343289299842 209.2655510517076,104.62371775964944 209.54670410522027,104.69328140186342 209.9126378477487,104.70487534221802 210.4003079638277,104.69328140186342 210.46262539332005,104.70487534221802 210.64378071136065,104.76864201408193 211.04522089605229,104.9541450599283 211.5205724505909,105.08167840391528 211.77418989584777,105.08747537400619 212.2408459951204,105.01211476178767 212.29446796926044,104.99472385108301 212.34591607967033,104.97153597063296 212.39301646227318,104.94834808992375 212.4357691174185,104.91936323912364 212.46910169585158,104.89037838780523 212.64518466498708,104.57734199849018 212.79083354069172,104.21213287732029 212.81691990657598,104.17155408625196 212.85025248500907,104.13097529509724 212.8901066550644,104.09619347394705 212.93213468884844,104.06720862288779 212.97633658636533,104.04402074191945 213.4053123794855,103.91648739819162 213.57197527216928,103.84112678623224 213.9886325036627,103.61504494923116 214.22123593194047,103.42374493303474 214.46905640702005,103.11070854346055 214.5052874706282,103.08172369291957 214.5415185342363,103.05853581195123 214.5842711892939,103.04114490150572 214.63427005715948,103.03534793150118 214.87629356206176,103.03534793150118 214.94150947647,103.02955096089197 215.06614433528193,103.01216005079198 215.12338941586916,103.00056611009185 215.17266366237754,102.97737822938265 215.2161409386196,102.95998731928266 215.25309662349986,102.9310024682234 215.30454473390844,102.87303276610487 215.33208034216557,102.7976721541455 215.34584814633666,102.75709336273164 215.36831140577505,102.71651457131777 215.69076787197238,102.43246303306198 215.72989742058277,102.37449333094347 215.75163605883404,102.32232059943414 215.75598378638063,102.27594483792936 215.7407667397516,102.18319331526533 215.73279590575916,102.07305088198301 215.77265007564037,102.04406603092374 215.82554742868098,102.00348723950988 216.10380199701862,101.84696904472278 216.14365616707394,101.81798419392267 216.18278571568433,101.7774054030271 216.239306174913,101.73682661161324 216.27698648115185,101.71363873064489 216.3182898935787,101.70204479029029 216.80596000974543,101.62668417833092 216.86392971160345,101.6324811485946 216.91972554947358,101.6440750889492 217.27551459410537,101.72523267099949 217.7675324379037,101.82957813427727 217.82840062485172,101.83537510462733 218.00955594289235,101.83537510462733 218.0689748871233,101.82957813427727 218.12766921016845,101.81798419392267 218.18563891202783,101.80059328382268 218.6175131901503,101.64987205878097 218.86823215040354,101.4875568941621 219.23271665021625,101.24988111654729 220.6341341905785,101.49335386425302 220.8906501210104,101.55712053585779 221.37687099454504,101.5861053871762 221.50440433844565,101.59190235718074 221.98917596960874,101.6324811485946 222.48336767713715,101.63827811868552 222.71742034804564,101.61509023797632 222.93770521486942,101.62088720798086 223.11886053291005,101.64987205878097 223.59855981499524,101.73682661161324 223.84348180507254,101.74262358170415 224.1941985007992,101.81798419392267 224.6398405831791,101.91653268719591 225.04417925304577,101.98609632906437 229.67740766725137,104.00344195076472 233.63311519207411,105.7193451232455 237.37143633498764,106.68164217276366 241.27062340058035,107.40626344492615 251.73342994924812,110.84386675989224 239.15255542196303,114.26987613476285 230.11652815818317,114.51334888246859 226.37965625764124,114.49016100167302 225.84778424387397,114.54233373344148 225.39634519131675,114.58291252433705 224.39636783564612,114.58291252433705 223.9195670385632,114.60610040539177 223.46522950091733,114.60030343478256 222.95726998913142,114.60030343478256 222.50728017911854,114.61189737513716 221.99859604606047,114.61189737513716 221.5319399469606,114.65247616655103 220.61891714394946,114.78000951053801 220.1370439980478,114.86116709284744 219.69647426440022,114.99449740692533 219.35300378139655,115.069858019403 219.26315074364706,115.2147822738355 219.2160503609565,115.25536106524936 219.0841692895093,115.33072167755427 218.97330223478207,115.40608228977278 218.87113063540716,115.49883381269596 218.63128099440777,115.81766717236107 218.5885283392638,115.86404293352032 218.41969158284994,115.99157627776646 218.36534498743774,116.02056112830742 218.31172301338276,116.04374900901662 218.27259346460096,116.06113991946214 218.1341908016179,116.08432780043049 217.66753470234528,116.15968841299453 217.21029867961073,116.20026720414924 217.15087973529342,116.20026720414924 216.69654219764755,116.32200357752701 216.25887094934777,116.47852177231411 216.20742283893784,116.50750662311424 216.15525010734217,116.54808541452809 216.10959896719592,116.59446117629201 215.9668485765799,116.8263399830385 215.9552546362253,116.86691877419321 215.94438531722926,117.20894001456752 215.94003758959627,117.39444306041388 215.9320667556025,117.44081882209143 215.9168497088007,117.48719458333706 215.79366409261945,117.70747944998807 215.76322999918864,117.7422612713974 215.72844817812484,117.77124612185199 215.68424628043655,117.80023097265212 215.63569665520032,117.81762188361591 215.58279930241883,117.82921582371138 215.1038246414344,117.92196734663455 214.93498788502052,117.97993704840755 214.5610833085847,118.1886279750495 214.46688254337766,118.21181585549955 214.38934806708218,118.2465976763042 214.35311700347404,118.26978555727254 213.9842847759447,118.53064921542381 213.93718439325278,118.55383709587386 213.8864609042878,118.57122800657852 213.45531124726475,118.6813704396017 213.4053123794855,118.70455832057004 213.2045922871829,118.84368560473885 212.94735173547883,119.13353411360384 212.9067729443241,119.1799098752814 212.84880324246473,119.27266139794543 212.8111229364,119.32483412971389 212.50823124463474,119.61468263857888 212.20896265914524,119.80018568390696 211.94592513735026,120.09583116312201 211.71042322389746,120.39727361208246 211.556803514199,120.74509182306599 211.3502864517191,121.08131609309024 211.03435157696987,121.34797672150518 210.75174928091286,121.53927673709693 210.31552727498467,121.72477978268414 210.26987613492483,121.74796766365249 209.93437648582722,122.0436131426084 209.86843595006042,122.08419193376312 209.79162609529757,122.10158284472692 209.29598514513845,122.10158284472692 209.07859876348968,122.10737981447231 208.9235298113333,122.13636466527244 208.83222753095444,122.15375557623624 208.78947487589684,122.17114648659538 208.74744684211143,122.1885373970409 208.5662915240708,122.31027377102333 208.2960077894678,122.62910713068845 207.97862367226065,122.86678290804413 207.82645320510653,122.9885192814219 207.74094789499136,123.05808292363588 207.68515205712123,123.1218495954998 207.6452978870659,123.15083444629991 207.61341455109076,123.19721020797746 207.59819750437535,123.27257082028235 207.55761871322062,123.33633749214627 207.5409524238745,123.40010416401019 207.54240166641884,123.48705871684245 207.70326758892529,123.63777994136588 207.7394986525334,123.69574964348439 207.73660016735838,123.78270419579837 207.62428387025957,124.10153755572263 207.43443309686526,124.41457394503767 207.1974819408695,124.73340730496193 206.8554607004088,125.17977400835488 206.76560766274702,125.41165281587878 206.5772061318984,125.72468920553936 206.40547089056867,125.86961345997186 206.01634926724464,126.07830438626827 205.61056135483364,126.29858925266015 205.1960779872431,126.5304680599249 205.07579085606412,126.62321958258894 204.80840560654977,126.9652408232224 204.6671044584781,127.34784085475142 204.59899005898254,127.68406512512121 204.59899005898254,128.09565000796863 204.58522225472373,128.44926518869755 204.50913702123304,128.7970833990764 204.41058852821894,129.14490160980077 204.2750843502382,129.4695319399887 204.0352347091524,129.80575621009933 203.70335816650197,130.07821380825968 203.29032404136936,130.29849867516984 202.8801884013254,130.44921989969325 202.7446842235174,130.4840017210162 202.67512058130342,130.48979869084798 202.15991485688227,130.44921989969325 201.86644324157007,130.38545322782934 201.79615497825668,130.37385928747474 201.7236928510418,130.37385928747474 201.64905685992133,130.37385928747474 201.17660379047138,130.4840017210162 201.02733180840457,130.51298657155718 200.9483480897402,130.51298657155718 200.45343176085322,130.4840017210162 200.31647834050088,130.46081384004785 199.85924231776636,130.29849867516984 199.53968433682908,130.17676230153293 199.41360023530004,130.14777745047365 198.96868277419227,130.10140168896888 198.47883879421045,130.0608228981597 198.01073345247985,130.0724168385143 197.72523267116145,130.1071986590598 197.27886596750938,130.2463259434014 196.82235456621976,130.34487443641547 196.6020696993096,130.4086411082794 196.5462738613531,130.420235048634 196.48540567449143,130.4260320192432 196.16149996583346,130.4260320192432 196.11295034059992,130.4086411082794 196.0629514728207,130.39125019783387 195.91875183966036,130.30429564526077 195.82600031699633,130.2637168538469 195.77745069167506,130.2463259434014 195.72817644516803,130.2347320030468 195.68107606256248,130.22893503304223 195.63252643724257,130.2347320030468 195.58397681200768,130.2463259434014 195.53832567177506,130.2637168538469 195.49629763798964,130.28690473481524 195.46079119565368,130.3216865559654 195.433980208585,130.35646837677007 195.41079232787447,130.39125019783387 195.34557641337986,130.5477683929665 195.27238966489142,130.65791082598966 195.2405063289163,130.6868956767898 195.1999275376752,130.7158805281082 195.1434070785329,130.73906840855824 195.07964040649622,130.7622562895266 195.0064536580078,130.7738502298812 194.5419714225503,130.73906840855824 194.46298770388594,130.73327143846734 193.99778084715763,130.5999411244758 193.60286225391545,130.4086411082794 193.4260546634214,130.28690473481524 193.38040352344794,130.2637168538469 193.33475238312894,130.2463259434014 193.24055161783556,130.21734109294678 193.1920019925993,130.20574715259218 193.1405538821894,130.20574715259218 192.9992527342041,130.20574715259218 192.9144720453611,130.18835624188753 192.71520119551639,130.14198048038273 192.60288489824484,130.14777745047365 192.5586830007293,130.21154412233759 192.31086252564972,130.63472294528046 192.12101175225678,131.02311994733233 191.94492878311993,131.43470482966148 191.8289893795753,131.73614727914023 191.77319354170515,132.2694685354518 191.76232422253634,132.52453522351215 191.7942075585115,132.9071352549548 192.03260795713933,133.31872013728395 192.2862254023962,133.65494440791286 192.68331785945352,133.94479291677786 193.17823418834183,134.3042050675113 193.76662666142417,134.62303842717643 194.3042956454551,134.8954960259414 194.73906840875262,135.12737483268788 195.2071737503968,135.39983243136652 195.57383211411104,135.7418536714817 195.93976585663947,136.356332510621 196.20135413580374,136.6345870791314 196.40352347082347,136.8432780054278 196.6114897758477,137.05196893172422 196.86655646364892,137.3881932020076 197.02452390098034,137.74180838308206 197.00206064162967,138.24034781824346 196.92162768033324,138.69830846199102 196.82597767240782,139.1446751656431 196.68250266060602,139.567853988586 196.53105681472405,140.0258146325927 196.30280111399287,140.44319648544467 196.04773442619168,140.95912683105158 195.81802948291616,141.85765720844668 195.75136432587723,142.32141482280343 195.83759425726592,142.7387966753963 195.89266547386254,142.99386336345663 195.90208555040064,143.29530581241707 195.86512986552034,143.60834220199126 195.88324539732307,144.02572405518876 196.05353139636898,144.53585743070477 196.29048255236475,144.9532392832976 196.48540567449143,145.3648241658859 196.6556916734496,145.65467267475088 196.93974321213733,146.05466361724373 197.1404633046127,146.25176060318555 197.23466406990744,146.33871515549953 197.2737936186906,146.40827879797263 197.28321369514234,146.47204546983656 197.1737958830458,146.65175154507372 196.9151060888838,146.91261520313859 196.56294015061283,147.10391521907587 196.1267181448574,147.26043341386296 195.68904689638487,147.30101220501768 195.18905821859275,147.32999705607693 195.010076764455,147.38796675784994 194.55863771181137,147.56767283343262 194.1738638162931,147.79375467043369 193.90213083923217,148.12997894045796 193.81807477166132,148.51257897198698 193.85140735035355,148.88938203394338 193.92459409866922,149.2719820654724 193.99488236215535,149.63139421629225 194.0963293401717,149.99080636763037 194.2238626841587,150.33862457826837 194.38545322776454,150.6574579376743 194.48545096349574,150.99947917804863 194.50791422284638,151.05165191007623 194.53834831627722,151.1038246413264 194.78761803381474,151.3936731501914 194.9383392585973,151.70670954011112 194.94268698614388,152.11249745234934 194.9173252415318,152.45451869298282 194.83181993141665,152.79653993335714 194.75283621275094,153.17334299453609 194.69993885988308,153.53855211622428 194.7086343152354,153.9037612373078 194.72095287694856,154.2457824776821 194.70428658751604,154.59360068806095 194.71515590659848,154.65157038992032 194.7941396252642,154.83127646567578 194.8303706888723,154.8776522269214 194.87747107164927,154.91823101833526 194.93254228824722,154.95301283913992 194.98978736874807,154.98199768994004 195.45209574038773,155.12112497454078 195.8955639589512,155.27184619880504 195.97599692024758,155.28344013915964 196.09773329405726,155.28923710976886 196.20135413580374,155.31242499021891 196.25714997376025,155.35300378163276 196.39410339419896,155.57328864802463 196.42743597271843,155.61966440978856 196.69192273705775,155.92110685900815 196.9882928373722,156.2341432483232 197.26002581443313,156.5297887274519 197.31074930356954,156.55877357851114 197.4013269625912,156.61094630976132 197.50349856196746,156.65152510091605 197.56001902110975,156.6689160116207 197.62668417814734,156.6805099519753 197.7027694118108,156.68630692232537 197.77885464530146,156.6689160116207 197.93537284008858,156.61094630976132 198.03681981819133,156.5935553996613 198.19768574069778,156.5935553996613 198.30275582507497,156.6051493397568 198.57303955967794,156.68630692232537 198.66144335479538,156.72688571373922 198.7404270735475,156.77905844524855 199.04766649285935,157.06890695411354 199.30128393811486,157.3645524327239 199.4469328139059,157.68918276291186 199.4744684221617,158.0312040036317 199.46504834570996,158.37322524400602 199.42157106929383,158.5297434387931 199.23606802370662,158.8891555897857 199.0882452840991,159.23117682990087 198.99114603362932,159.60797989168452 198.95781345519623,159.98478295286347 199.0491157354887,160.3383981341107 199.25853128305727,160.68621634431676 199.41215099284346,160.81954665865382 199.52156880502503,160.88331333051772 199.87083625812096,161.10359819716874 200.23604537920448,161.37025882532453 200.58821131756181,161.5905436922347 200.9425511195629,161.85140735038595 201.19471932227543,162.15864676935095 201.222254930704,162.21661647146948 201.222254930704,162.56443468184833 201.21718258180022,162.64559226467603 201.2708045559389,162.73254681733553 201.38167161049336,162.77312560849026 201.48674169495692,162.78471954884486 201.60050723468643,162.79051651910854 201.6671723917254,162.7789225784948 201.73746065521152,162.7615316680493 202.14469781008046,162.59921650325765 202.24179706055023,162.57602862254845 202.6685989898553,162.4890740696298 202.81642172946147,162.4890740696298 203.2504698714004,162.54124680113912 203.71567672812873,162.63979529441235 203.87074568037286,162.73254681733553 203.98740970518966,162.83689228035416 204.1272616108034,162.92964380327734 204.2533457120733,162.9876135047912 204.32073549047215,163.00500441523673 204.75188514732244,163.13833472957376 205.06347229443733,163.37021353683852 205.26709087182863,163.6890468962445 205.27796019091107,163.78759538951775 205.24172912730293,164.1470075402512 205.11999275357965,164.49482575097556 204.87652000621944,164.78467425984056 204.55913588892452,165.0513348882555 204.251896469529,165.3411833971205 203.9787142499237,165.62523493537628 203.6562577838978,165.90928647449587 203.2990194966353,166.14696225185156 202.92873802655893,166.37884105859803 202.5243993566936,166.63970471640377 202.16281334188452,166.86578655340483 201.75702542947354,167.09186839066507 201.3635560786893,167.31795022766613 201.00341930642455,167.538235094058 200.60342836419085,167.74692602035444 200.54111093487126,167.79330178211836 200.49111206700567,167.85127148363222 200.45125789712313,167.9092411854916 200.3802450123648,168.08894726072873 200.31647834050088,168.44256244197595 200.29981205124116,168.83095944385502 200.31792758304385,169.1845746243248 200.4229976674224,169.480220103799 200.45125789712313,169.56717465611297 200.73096170809146,169.8918049863009 201.01863635322636,170.18745046525683 201.11428636115178,170.2628110772162 201.5381898053682,170.47729897412182 201.96499173467055,170.63381716864978 202.3874459362549,170.81932021449614 202.51208079506685,170.95265052857403 202.69903308328477,171.2946717692075 202.81134938055632,171.6366930095818 202.8570005206162,172.00190213040617 202.83308801863484,172.08305971297474 202.81134938055632,172.12363850438862 202.71135164491287,172.2685627588211 202.49686374843782,172.63377187990463 202.48309594418168,172.69753855176853 202.481646701636,172.7555082536279 202.49106677826052,172.81347795574644 202.50918231006457,172.87144765700114 202.61570163698607,173.0685446432021 202.65990353467438,173.12071737471143 202.70845315990925,173.16709313647536 202.76424899795217,173.2076719276301 202.82946491235904,173.24245374843474 202.91207173730055,173.26564162914394 202.99250469859695,173.271438599494 203.1352550891266,173.2830325398486 203.19177554844165,173.28882950985312 203.24032517367652,173.30622042029864 203.39684336846497,173.38158103303545 203.4729286019543,173.44534770498575 203.69611195378036,173.72939924324155 203.9192953056064,174.11199927502972 204.11059532154368,174.45402051540404 204.2917506395843,174.82502660709676 204.54391884229685,175.1264690560572 204.65623513939565,175.451099385986 204.6779737776469,175.81630850741502 204.67145218619743,176.16992368814394 204.65768438193996,176.52353886887286 204.66275673084647,176.91193587066556 204.68087226264916,176.96990557252494 204.70623400717486,177.02207830403427 204.7402912069665,177.07425103554357 205.02144426065192,177.36989651501779 205.4467969473249,177.59597835201888 205.98446593126948,177.70612078504203 206.45112203054214,177.78727836735146 206.95400919350928,177.88582686088387 207.39457892698408,178.04814202541635 207.47211340310545,178.05973596577095 207.7337016823561,178.065532936121 207.8097869158468,178.05973596577095 207.8807998005187,178.04814202541635 208.37209302313127,177.95539050249317 208.85396616903293,177.85104503947454 209.304680600318,177.83945109911994 209.35178098309495,177.84524806947 209.3988813657855,177.8568420098246 209.44453250584536,177.87423292044286 209.48438667590068,177.89162383062924 209.5206177395088,177.91481171133844 209.59525373045517,177.9785783834615 209.85684200970718,178.28581780277202 209.9843753536928,178.61044813304633 209.98727383869507,179.0104390749345 209.9814768685164,179.34666334556343 209.98292611106208,179.445211838232 209.8836529969486,179.5669482119553 209.58583365400344,179.7756391382517 209.44308326330105,179.8509997507294 209.3916351529775,179.87418763152496 209.26265256653258,179.90896945232961 208.7713593440928,180.01911188595744 208.31557256381757,180.10606643827143 207.87210434533915,180.18722402109915 207.40254976089147,180.2104119015492 206.94821222333198,180.2104119015492 206.4554697581751,180.2046149318038 206.3735875545071,180.2046149318038 206.23373564889337,180.23939675260846 205.77505038361454,180.39591494713642 205.35259618203017,180.54663617217813 205.26129390165133,180.67416951590596 205.2279613233046,180.7089513367106 205.19897647224536,180.7495301281245 205.1323113152064,180.89445438255697 205.10042797931763,181.1495210706173 205.143905255561,181.52052716205088 205.29172799508214,181.8625484024252 205.53809922761738,182.19297570244493 205.81273068985337,182.5118090622828 206.04243563312886,182.8596272724889 206.28083603158393,183.1842576026768 206.55909060009435,183.508887932692 206.87212698966854,183.79293947120692 206.9148796447261,183.82192432200705 206.9605307849574,183.8509091730663 207.01052965265157,183.87409705351635 207.18081565160975,183.9204728151939 207.28661035743187,183.95525463634408 207.82065623492923,184.18133647334517 208.1010846673425,184.39002739964158 208.4431059077168,184.66248499780193 208.78802563326616,184.91755168586226 209.0829464910363,185.19000928376343 209.1561332395247,185.2827608066866 209.36554878717965,185.63057901767013 209.49163288853592,185.96100631768985 209.49163288853592,186.30302755832332 209.34453477037331,186.70881547056155 209.0343968658014,186.96388215827636 208.6380290300149,187.2073549054638 208.59092864732568,187.24793369687768 208.55107447727036,187.2827155182006 208.48296007768573,187.3754670406055 208.23803808769483,187.72328525158903 207.8735535877971,187.9609610289447 207.4786349945549,188.19283983569116 207.09241185649097,188.4537034940152 206.7395212968628,188.6913792711117 206.6532913654768,188.78992776412582 206.58010461707343,188.90007019775368 206.39605081385778,189.25948234822798 206.26127125723556,189.58990964850682 206.11344851780078,189.96091573968127 205.9967844928976,190.29714001022379 205.88156971062241,190.68553701184373 205.8641788000905,191.0681370436319 205.91635153185896,191.44494010532918 206.0286678288714,191.804352256149 206.16272276430783,192.14057652677792 206.26127125723556,192.49419170750684 206.27358981886232,192.86519779894041 206.30982088247043,193.0333099340821 206.32938565681883,193.39851905490647 206.33880573344334,194.63907067293505 206.34025497590127,194.88254342029526 206.3677905843298,195.26514345234258 206.35402278007234,195.63035257351245 206.34750118862289,195.98396775424138 206.34025497590127,196.34917687506575 206.30982088247043,196.50569506985283 206.30692239746818,196.58105568267604 206.24750345315084,198.01870428656002 206.55111976610056,198.70854373739957 206.69749326307738,198.9752043658145 206.8127080453512,199.22447408326565 207.06487624806377,199.78678019029095 207.33226149749171,200.1114105205653 207.4619687052952,200.37807114837557 207.48008423709925,200.66791965724056 207.52428613461478,200.93458028539635 207.511967572988,201.24181970496602 207.50906908798575,201.49108942267628 207.5271846197898,201.72296822942275 207.8474672220856,202.1229591719156 207.96920359580892,202.49396526334917 207.88732139196682,202.824392563628 207.67573198049672,203.12583501258848 207.42211453523987,203.45046534225813 207.1742940601603,203.6997350599684 206.89966259809708,203.9779896284788 206.15475193022766,204.30261995840758 205.54534544033902,204.49391997434486 204.86130295941763,204.64464119904105 204.22508548254535,204.85333212568298 203.6323452819178,205.1083988133978 203.2098910802457,205.42723217280377 202.84830506543662,205.75186250273256 202.04904780215503,206.21562011683017 201.57297162643064,206.4590928645359 201.01501324677915,206.77212925385098 200.61719616836328,207.03299291191584 200.05054233353087,207.44457779450414 199.5476551706501,207.90253843851082 199.02882633978177,208.31412332109912 198.58680736376266,208.7083172932419 198.16000543445895,209.07932338467546 197.64769819512645,209.51409614797296 197.0172776882587,210.17495074827153 196.49917347866253,210.65030230298288 196.11005185551127,211.06768415531658 195.75571205342382,211.4908629785186 195.524557867604,211.91983877172518 195.31804080512404,212.57489640176007 195.1296392743618,212.84735399992041 194.8731233439299,213.16039038923546 194.4108149723766,213.58936618278756 193.88546455005883,213.94877833378015 193.3970698126213,214.41833291822783 193.3854758722667,214.91107538278 194.14995131431175,215.6067118041424 194.46298770388594,215.79801182007967 195.0064536580078,216.05307850814 195.6919453815599,216.3023482258503 196.30714884162586,216.5110391521467 196.8498901743878,216.60958764481526 197.46581825572727,216.60379067481074 198.07667398824665,216.53422703259676 198.4969543260145,216.38930277816425 199.14911347096074,216.0588754778854 199.71141957815883,215.82119970078887 200.22517606012204,215.81540273078434 200.77226512060471,215.68207241670643 201.18674848836804,215.5951178637878 201.7171712595046,215.54874210262855 202.1519440228021,215.66468150600178 202.44396639556996,215.95453001486678 202.47150200382575,216.3545209573596 202.39976449796805,216.4994452117921 201.99542582810136,217.17189375244527 201.72514209358476,217.5660877243289 201.47877086096315,217.89651502460777 201.2780507686605,218.24433323472746 201.03530264248744,218.60374538580643 200.65197798942575,219.19503634389102 200.61284844081536,219.48488485275604 200.6584995808752,219.9312515564081 200.75849731652002,220.31964855854636 200.7418310271739,220.8007970830031 200.57589275584868,221.27614863745532 200.2664794726353,221.75150019216667 200.06720862279062,222.09352143254097 199.86214080276864,222.52829419583847 199.7983741309047,222.934082108595 199.79475102445753,223.32827608047862 199.7875048117359,223.82101854537635 199.6520006338415,224.24999433884207 199.36070288243218,224.64998528081662 198.95781345519623,225.20069744748736 198.49115735583857,225.72242476396264 198.1571069493703,226.1571975272601 197.80276714728285,226.54559452879369 197.39697923487185,226.9687733517366 197.04481329668727,227.3571703538748 196.67525644788438,227.83831887833156 196.41656665372238,228.2267158804698 196.14193519148643,228.63250379270804 195.83976812099465,229.19480989973337 195.67962681993313,229.502049319303 195.25282489054305,229.98899481436897 194.93399153079156,230.27884332323396 194.42603201900565,230.49333121988045 193.9593759198194,230.67883426512213 193.50866148844793,230.95708883363253 193.2579425283661,231.22954643239754 192.86085007122105,231.69330404614962 192.3565136657096,231.9831525550146 191.90942234078668,232.15706166024722 191.36740562929282,232.27879803397053 190.21525780655446,232.4758950201715 189.67396571616405,232.52227078193542 189.20441113180277,232.53386472229002 188.6073232035409,232.5628495727446 188.16385498497743,232.58024048319012 187.66531554972966,232.58603745379932 187.1609791443032,232.62661624495405 185.79579266763682,232.8642920223097 185.4269604401061,232.92226172382357 185.16537216076907,233.06138900825152 184.82335092039474,233.2526890238433 184.03786146137062,233.2758769045525 183.78424401611375,233.28167387490254 183.43135345648423,233.28167387490254 183.0777382757553,233.27007993454794 182.56688027879437,233.2237041733023 182.13065827312533,233.27007993454794 181.81182491320106,233.54253753270828 181.51690405543093,233.84397998192787 181.22633092529378,234.20339213300684 180.90459908054137,234.5975861048905 180.58504109943,234.9106224944647 180.2734539524001,235.22945585438893 179.97708385208566,235.58307103511785 179.58071601629916,236.01204682866995 179.21913000149007,236.50478929322216 178.94594778179842,236.91637417581043 178.68870723035351,237.39172573052178 178.3785693257816,237.90185910603782 178.0872715742859,238.37141369074462 177.80104617195445,238.84096827484677 177.62641244519054,239.16559860503472 177.40033060836222,239.5076198451499 176.94454382808564,239.76268653295108 176.48513394153463,239.8728289665789 176.04601345060416,240.01195625066134 175.52935848363867,240.24963202775788 175.1953080770854,240.56266841733208 174.87575009606175,240.88150177725635 174.80763569647846,240.94526844912025 173.5917212018762,241.81481397571523 173.42143520291802,241.97133217050234 173.24535223369614,242.1104594549303 172.92651887403102,242.30755644113125 172.77000067924394,242.40030796379529 172.63304725871885,242.51624736716852 172.50116618718528,242.77131405522886 172.2837798055365,243.46115350598203 172.16349267435754,243.93650506069338 172.07798736424238,244.20896265911287 171.9432078077052,244.53359298912804 171.75190779176924,244.95097484172086 171.57510020144798,245.2929960820952 170.7990308188756,246.78861438818407 169.5874640519063,248.94508729370773 168.96646362166302,250.0870904187222 168.3548832679579,251.15373293151814 167.78388170540748,251.85516632271228 167.50272865180844,252.37689363918756 167.21577862803073,253.5594755550976 167.11940399883449,253.97106043794503 166.75926722656837,254.4985847238202 166.43753538172956,255.51305450484767 166.0897171710916,256 165.95566223574153,255.93043635778602 165.51509250226673,255.7739181629989 165.12886936420276,255.55363329626152 164.75858789412908,255.3217544887376 164.3506261179016,255.08987568199115 164.2049772421956,255.04929689083644 163.7448427343724,255.05509386058182 163.31586694125357,255.21161205562808 163.10934987886003,255.35653631006056 162.76443015322295,255.6347908783118 162.70066348118763,255.68116664007573 162.62747673269922,255.71594846088038 162.54704377157555,255.73333937158506 162.4637123251905,255.73333937158506 161.99850546846218,255.5942120871571 161.92242023488512,255.55363329626152 161.71155544468718,255.36813025041516 161.66445506208166,255.3159575186467 161.62460089202634,255.25219084704193 161.40576526791963,254.91596657675854 161.360114127687,254.8695908149946 161.23547926896146,254.77683929233058 161.16156789911452,254.74205747100763 161.08693190808177,254.70727565046212 160.8601254498949,254.637712007989 160.39564321443876,254.52177260461576 159.9695659064072,254.27250288716462 159.68841285280817,253.97685740769043 159.39856434394318,253.67541495847084 159.03045673768463,253.45513009207897 158.98480559762478,253.44353615172437 158.74785444162765,253.4145513006651 158.41670252024937,253.44353615172437 157.9261339189954,253.44353615172437 157.84715020024328,253.42034827066965 157.77686193692992,253.39136342021504 157.71961685634133,253.3623785691558 157.66744412483337,253.31600280739187 157.62179298460075,253.22325128498696 157.6159960144221,253.14789067225016 157.67686420128646,252.76529064072113 157.69063200554257,252.41747242999676 157.67976268646012,252.35370575839198 157.6551255632066,252.28993908600978 157.61889449959847,252.23196938475508 157.5746926019102,252.17399968263655 157.5217952491287,252.12762392113177 157.45657933463409,252.09284210006797 157.38774031369093,252.063857249527 157.3138289439317,252.04066936855864 157.10658726017826,251.9884966367902 156.68920540741266,251.80299359120298 156.34718416686692,251.5653178138473 156.10226217687602,251.2754693049823 155.96530875652368,250.93344806460797 155.83922465508104,250.56823894378363 155.7740087405864,250.44070559971024 155.69357577946275,250.35954801748719 155.62183827343094,250.31317225572326 155.5464776611274,250.28418740492316 155.47184167009465,250.2783904349186 155.39285795142894,250.2783904349186 155.30880188385808,250.28418740492316 154.99793935818676,250.34795407713258 154.92040488206538,250.353751046878 154.84576889094626,250.34795407713258 154.77113289991354,250.33056316642794 154.70301850041665,250.30157831536866 154.63925182837994,250.2725934643094 154.58273136923765,250.23201467315468 154.47476279959906,250.13926315049065 154.4204162041869,250.10448132916773 154.3624465024139,250.08129344871764 154.3059260431852,250.0581055682676 154.25737641795033,250.04651162782662 154.1921605034557,250.04071465756294 154.0660764020994,249.97115101508982 154.0341930661243,249.9131813138351 153.9660786666274,249.71608432754778 153.91245669248735,249.5247843114377 153.83926994399894,249.44942369947836 143.47428726690035,242.43508978459994 133.82885351314414,232.1860465113065 133.14698489604058,231.11940399851053 132.75279092407055,231.04984035681485 131.92020108235587,231.38026765657543 131.06804646629277,231.9599646743054 130.75790856172085,232.244016213425 130.3608161046622,232.7077738271771 129.76662666140257,233.25848599445249 129.19272661384989,233.6700708769544 128.37680306139492,234.3367224473439 124.53051334875644,230.18609180031078 123.91820837386551,229.66436448409465 114.0206064173981,221.2355698463006 112.9720794364926,220.34283643899641 109.46491247922616,215.09078145862185 106.25484024363273,210.29089015164476 104.15054006918648,208.58078394951406 103.89185027502447,208.49962636694548 103.44983129900535,208.40107787393137 102.99259527626947,208.30832635126734 102.52014220682088,208.20977785808049 102.09261565624502,208.08224451435265 101.73537736906891,207.9663051106339 101.6368288761412,207.91413237886542 101.22017164464641,207.6938475122144 101.07742125394537,207.60689295990045 100.98829283746939,207.55472022813197 100.93322162078503,207.53732931742732 100.81655759596822,207.4735626455634 100.76800797073199,207.43878082467236 100.57018636343163,207.3402323314855 100.51366590428934,207.3286383911309 100.50207196402111,207.23588686846688 100.44265301953104,207.23588686846688 100.38033559021144,207.22429292811228 100.21294807625553,207.22429292811228 100.1629492085627,207.21849595750305 100.10932723442266,207.21269898775768 99.6549896967768,207.1431353455437 99.2281877673867,207.05618079262504 98.77529947228514,206.93444441924726 98.71008355779053,206.91705350828346 98.5441452865517,206.84748986658778 98.48979869113951,206.82430198561943 98.36806231732983,206.78372319420558 98.24994904996734,206.73734743330544 97.83763954619327,206.56343832781369 97.37098344683425,206.43010801347666 96.95939856424596,206.2735898189487 96.53259663502728,206.09968071345693 96.16593827131442,205.89678675716507 96.10507008445276,205.86200493610127 96.04782500386554,205.82722311529662 95.71812232511799,205.5431715766953 95.35146396131874,205.29390185872586 95.10871583522935,205.09100790277952 95.02683363138995,205.01564729021547 94.83770747944057,204.87652000613303 94.44931047756013,204.6852199904549 94.33192183138478,204.63884422877737 94.21670704911094,204.5982654373635 94.15728810479362,204.57507755691344 93.86236724702349,204.38957451132623 93.70005208205909,204.29682298840305 93.6515024568242,204.273635107953 93.38049410112181,204.20407146547987 93.33629220343352,204.19247752538442 93.28484409319636,204.16928964467522 93.17977400864642,204.1287108535205 92.79282624931164,204.0359593305973 92.74572586662109,204.0185684196335 92.62833722053077,204.00697447953806 92.57833835283793,204.00697447953806 92.4674712981107,203.983786599088 92.40225538370245,203.9721926587334 92.25298340163698,203.95480174802873 91.76241480038297,203.8678471951101 91.32474355191046,203.79248658289157 90.88417381843566,203.6823441498684 90.44505332750519,203.5548108055359 90.37041733647246,203.5374198954359 90.12259686139288,203.52002898473125 89.64217295794916,203.49104413367198 89.16971988849922,203.45626231286732 88.69436833396063,203.44466837251272 88.61393537275059,203.44466837251272 88.54074862426218,203.43887140190353 88.28205883010017,203.3577138195941 87.85525690088285,203.20119562480699 87.39802087814832,203.06206834072455 87.2291841217358,202.99250469851057 87.17121441987372,202.96931681806052 87.1125200969163,202.95192590709672 87.05165190996826,202.94033196700127 86.78426666054031,202.8359865037235 86.63499467847484,202.76062589141858 86.46760716469169,202.66207739823173 86.4270283733642,202.63888951778165 86.38427571830661,202.621498607077 86.33862457816038,202.6099046667224 86.24007608514627,202.59831072662695 85.77921695613732,202.459183442199 85.31908244831413,202.3432440385666 85.27198206562358,202.33744706856206 85.17488281515381,202.27947736644353 85.12923167492119,202.24469554589803 85.07416045823683,202.22150766510245 85.01981386282465,202.20411675448418 84.96329340368236,202.19252281412957 84.64156155875582,202.1809288736886 84.50315889577415,202.15194402297485 84.34374221589705,202.111365231561 83.84157967437483,202.03020764899242 83.4039084259023,201.94905006642384 82.94667240325415,201.85629854350066 82.4865378953446,201.77514096145035 82.00901247698951,201.6881864086181 81.54597948416406,201.63021670701787 81.07280179335558,201.5954348856949 80.16774982442463,201.57804397499027 79.90326306017171,201.5954348856949 79.70399221032702,201.64181064737247 79.2431330811453,201.7461561103911 78.74024591826453,201.81571975234593 78.56561219167337,201.81571975234593 78.50474400481173,201.81571975234593 78.45184665194387,201.80992278260055 78.36489209945712,201.75195308048202 78.30112542733407,201.6881864086181 78.07794207550802,201.64760761720424 78.03084169290383,201.64760761720424 77.67215416309702,201.87368945446445 77.61925681022916,201.90267430526458 77.50186816413884,201.95484703703303 77.44389846236584,201.97223794713304 77.243902991249,201.9780349174831 76.45913815349702,201.96064400677844 76.24972260592844,201.95484703703303 75.74393695795902,201.94325309667843 75.68596725609964,201.94325309667843 75.3606123048987,201.86209551410985 74.87149294618901,201.8331106630506 73.91136976057237,201.81571975234593 73.42152578059188,201.80412581199133 72.94907271114194,201.7461561103911 72.60705147068124,201.60702882604951 72.16938022246786,201.4563076015261 71.76649079497275,201.29399243673447 71.36287674637825,201.12588030159276 70.91578542145399,200.95776816610555 70.46144788380812,200.81284391167304 70.04841375876053,200.6737166275906 69.60132243383762,200.52879237315813 69.14553565356239,200.36068023827556 68.72887842206761,200.14619234136995 68.33540907128338,199.93750141507354 67.9194764610621,199.71721654833613 67.52383324654777,199.50272865177604 67.13471162331014,199.29983469548415 66.74631462151743,199.1027377092832 66.33400511765697,198.90564072334138 65.96154978376545,198.6505740355402 65.60286225395863,198.38391340772992 65.21736373725457,198.16362854099253 64.91012431785768,197.90856185301857 64.76447544215301,197.64769819521283 64.75215688052626,197.60711940405812 64.74780915289328,197.41002241785716 64.76737392715529,197.31727089519313 64.83548832673856,197.25350422298368 65.20069744799619,197.0274223863281 65.55431262872375,196.75496478756313 65.7659020401952,196.4013496068342 65.79778537625673,196.3723647560341 66.08763388512172,196.19265868027864 66.37530853008384,195.89701320132272 66.65501234122495,195.62455560290326 66.8492108421645,195.49122528882535 66.89631122485505,195.4564434680207 66.94196236491491,195.41586467660684 66.97384570089007,195.37528588545212 66.99993206677429,194.99848282427317 67.02384456875565,194.615882792485 67.03616313038242,194.2506736713151 67.05282941964215,193.804306967663 67.07384343644848,193.52025542888893 67.06659722381325,193.13185842675068 67.05572790464443,192.75505536531256 66.92964380328814,192.3898462444882 66.71877901308886,192.0420280335047 66.66878014530965,191.9724643912907 66.6042888520872,191.91449468977686 66.56660854593474,191.89130680898126 66.44632141475577,191.8275401368582 66.37385928753952,191.7927583157944 66.32313579857453,191.75797649498975 66.26154299044072,191.72899164418965 66.18038540787214,191.71739770383505 66.12314032745769,191.68841285277577 65.94053576678635,191.41015828400623 65.6840198366136,191.12610674575043 65.31301374509364,190.8942279383993 64.98476030880403,190.61597337014805 64.95867394309256,190.5811915488251 64.8695455265302,190.34351577146944 64.68259323831093,190.10004302402282 64.64128982579902,190.05366726260445 64.59708792836987,190.0188854417998 64.5543352732259,189.98410362039047 64.24129888356532,189.79860057480323 64.13985190546258,189.75222481364398 64.08188220377596,189.72903693293478 64.03043409336604,189.7058490521392 63.96811666404645,189.70005208213468 62.923937410860304,189.68845814178007 62.87683702808336,189.68845814178007 62.81596884122171,189.69425511152545 62.77828853515429,189.73483390293933 62.72321731847129,189.75222481364398 62.68118928468587,189.76961572434865 62.51235252827201,189.8043975451533 62.46380290303712,189.8043975451533 62.223228640679174,189.78700663444863 62.20366386633079,189.73483390293933 62.20511310887511,189.67686420142547 62.194968410978454,189.50875206593824 62.18120060689375,189.42179751336514 62.186997577071054,189.06238536228616 62.19786689615349,188.71456715190732 62.18409909189602,188.47689137481078 62.13410022411681,188.37834288127837 62.097144539409285,188.33776409012367 62.055116505451096,188.30298226931902 62.00584225903043,188.27399741825974 61.894975204303186,188.22762165710049 61.83917936634668,188.21023074639584 61.776861937027086,188.20443377604576 61.71599375016544,188.20443377604576 61.65802404830605,188.19863680604124 61.52759221940319,188.17544892559118 61.31962591420617,188.12327619373633 61.253685378439386,188.08849437241338 60.98195240137845,187.9609610289447 60.910214895434365,187.9435701179809 60.83268041931298,187.9319761776263 60.758769049553756,187.9319761776263 60.62181562920008,187.9319761776263 60.393559928468896,187.92038223753084 60.32399628625492,187.8971943570808 60.24936029539494,187.8740064762852 59.78777654485467,187.7870519231938 59.40445189188072,187.7290822218527 59.35735150919016,187.7174882814981 58.922578745892665,187.56097008645187 58.51679083348167,187.3696700708601 58.15375557621465,187.1667761143091 57.7436199360843,186.99866397942654 57.32116573441357,186.86533366508948 57.002332374663425,186.7667851720754 56.95523199197151,186.7667851720754 56.50089445432563,186.67983061950227 56.04800615922408,186.5870790965791 55.99003645753746,186.5812821268337 55.07483979070986,186.5754851562245 54.590068159719536,186.56389121612904 54.48717193907246,186.54070333541983 54.08283326920579,186.4421548421466 53.94153212104908,186.45954575285126 53.877765449185155,186.4827336333013 53.760376803007105,186.54070333541983 53.70892869276995,186.5812821268337 53.6712483866175,186.63925182808842 53.64371277818894,186.70301850047062 53.498063902570664,186.98127306872186 53.32777790361248,187.31749733935078 53.10894227933303,187.60154887760658 52.99300287578703,187.76386404274373 52.92923620392311,187.7986458635484 52.809673694016304,187.8566155656669 52.75170399215692,187.8566155656669 52.67416951603553,187.85081859531687 52.63141686097795,187.83922465496227 52.16983311078321,187.63633069867038 51.8046239894419,187.4276397726331 51.406806911109726,187.26532460758233 50.956817101010444,187.13779126376812 50.50247956345094,187.0160548901312 50.04379429817209,186.9464912479172 49.832204886699294,186.90591245650336 49.40685219985488,186.77837911277553 48.738026765735285,186.5928760671883 46.25185118094579,186.08853966141768 46.007653812142,185.67115780882486 45.76707954986909,185.47985779262842 45.37505944162918,185.12624261189953 44.747537419936464,184.56393650513334 43.81929757020994,183.73496976969307 41.62297049428544,181.4161816987731 38.19043952813812,178.46552387861385 34.36371458976299,176.98149951287954 29.104413396406308,174.8424175178014 29.179049387525424,167.7701139010636 28.092117479281693,156.03704626238138 26.92837571618874,151.3820792098368 26.916057154561976,151.33570344867755 26.92837571618874,149.86327302355699 26.87330449950439,147.83433346150204 26.74287267042876,146.7329091276423 26.592151445818963,145.95611512397048 33.3093906388516,145.44598174845447 36.89119358715078,145.16772717994408 36.234686714485186,139.93306310966952 36.166572314988294,139.22583274821167 36.04193745608996,138.01426598124237 36.011503362659134,137.46935078431704 35.88034691239773,136.46647494364416 35.865129865768694,136.25198704734322 35.80426167890705,135.36505061004357 35.47963134889187,131.52165938283926 35.39412603886308,131.2086229931787 35.26804193759319,130.54197142235728 34.90790516515567,128.68694096605324 34.92167296941314,127.2492923618237 34.86660175264106,125.56817101075227 34.81515364249164,124.08994361536803 34.52023278454874,120.39147664199155 33.70141074700513,114.97710649673897 30.902198772814202,114.87276103320204 30.781911641461114,114.84957315249284 20.45895699823567,115.00609134727993 20.37707479465272,114.98290346657075 20.337945245784535,114.76261860017887 20.350988428769842,114.3684246280361 20.346640701136867,114.00901247695712 20.308960394985768,113.64380335587362 20.261860012293855,113.39453363842247 20.102443332331728,113.0930911891165 19.937954303550843,112.75106994848304 19.92853422709911,112.65252145555533 19.915491044113804,112.55397296228209 19.89665089103758,112.49600326076823 19.711872466722525,112.14238808003931 19.483616765904962,111.8119607800196 19.304635311680826,111.46414256903608 19.15681257224606,111.13371526875723 19.12782772127318,110.98879101432473 19.14014628289994,110.64097280420502 19.22999932064809,110.28735762313059 19.480718280817662,109.96852426355186 19.770566789681308,109.66708181398673 19.960417563160643,109.33085754370335 19.982156201152755,109.24969996113475 20.00172097558752,109.16854237908447 20.127805076943794,108.86709992960573 20.15099295756661,108.73376961578697 20.144471366117152,108.39174837489438 20.11548651531703,108.27580897152114 20.053169085824678,108.0149453137154 19.99302552023519,107.66712710273188 20.003170218045465,107.26713616084372 20.041575145470077,106.13672697635663 20.0720092389009,105.76572088500943 20.093023255879995,105.38891782322578 20.108240302509024,105.02950567214681 20.082153936711176,104.65849958105876 20.024908856296722,104.30488439998433 20.030705826475373,103.88750254713236 20.019836507390234,103.84692375597763 20.00172097558752,103.80054799481837 19.91041869529505,103.6324358595903 19.816217929827545,103.45852675444407 19.585063744094093,103.15708430522447 19.345214102923276,102.84984488565482 19.091596657663708,102.54840243643523 18.7952265573506,102.24116301686556 18.523493580289667,101.9223296574596 18.354656823875807,101.59190235718074 18.28944090938118,101.39480537097978 18.272774620121446,101.28466293795661 18.185820067463297,100.93104775722769 18.076402255538174,100.57163560614872 18.00828785586852,100.2238173951652 17.937999592382376,99.85281130399076 17.91553633294534,99.73687190035838 17.889449967146138,99.38905368997953 17.793799959222042,99.05282941935062 17.71191775555541,98.6992142386217 17.688729874844864,98.58327483524847 17.59452910937736,98.23545662426496 17.529313194884082,97.89343538389063 17.462648037843785,97.53982020316172 17.418446140241873,97.15142320154177 17.407576821159434,97.04128076800032 17.22207377548584,96.69346255727594 16.929326781532193,96.4268019293793 16.593102511248798,96.16593827105527 16.39238241885979,95.90507461299039 16.385136206224548,95.8355109712947 16.398904010309252,95.43552002914738 16.458322954626578,95.0587169671046 16.793822603637807,94.32829872519673 16.807590407895276,93.94569869340854 16.795271846268516,93.8587441404899 16.73005593168616,93.68483503560282 16.538755915836614,93.31962591391463 16.34528203616923,92.97180770379494 16.10978012271642,92.65297434387067 15.85036570728225,92.3283440138555 15.62863159808691,92.00951065427677 15.529358483714267,91.78342881727569 15.498924390283443,91.73125608576638 15.290958085259192,91.41242272558297 15.04893458035692,91.09358936591785 14.956907678705903,91.01243178360842 14.75473834385895,90.79214691669826 14.535902719665879,90.46171961667855 14.46126672854541,90.29360748153685 14.4141663458562,90.18926201851822 14.347501188817251,89.9805710922218 14.271415955326571,89.80666198673003 14.261995878702077,89.44724983565106 14.257648151069102,89.31391952183232 14.195330721663128,88.96610131119432 14.14025950497743,88.60089219002442 14.035914041873763,88.23568306842262 13.964176536016058,87.8530830368936 13.955481080577345,87.49367088581462 13.938090170131828,87.37773148218224 13.81417993250566,87.02411630145333 13.690994316324419,86.65890718062896 13.612010597658708,86.45601322407794 13.599692036031945,86.41543443318237 13.56635945742609,86.34007382044555 13.541722334172565,86.30529199990005 13.430855279616736,86.11978895405369 13.432304522162411,86.07341319228976 13.393174973379255,85.70820407120625 13.364190122579137,85.64443739960147 13.017821154399087,84.93141006753444 12.883766219049026,84.4618554834323 12.717827947723817,83.94592513756622 12.62217793988475,83.1111614317759 12.581599148557268,82.36335227916335 12.60261316544863,81.53438554372309 12.648264305596218,81.04164307856621 12.728697266806254,80.4329612100361 12.753334390059779,80.0213763275342 12.704784764824891,79.62718235565056 12.563483616751856,79.2967550553717 12.423631711312229,79.05907927827518 12.169289644783195,78.60691560401388 11.962772582130505,78.21851860213478 11.891759697544963,78.00403070583383 11.899005910352969,77.84171554069667 11.946106292957149,77.67360340581412 11.977989628845917,77.54027309147708 12.061321075230985,77.36056701623993 12.113493806740301,77.22723670216202 12.134507823805777,77.08231244772952 12.172912751057627,76.85043364063753 12.220013133748187,76.63594574407743 12.283779805784869,76.28233056326214 12.338126401197055,75.96349720342427 12.380879056254642,75.72002445571852 12.45044269829586,75.23887593126177 12.469282851372084,74.94902742239678 12.417110119862766,74.39251828537598 12.22291161892322,73.91716673066463 12.108421457921546,73.68528792391817 11.954077126864554,73.26210910097527 11.88813659109777,73.05341817433333 11.814225221423577,72.88530603893248 11.67292407326551,72.5896605603221 11.490319512680562,72.29981205145711 11.289599420291553,71.74909988444085 11.133081225505807,71.44765743522126 11.014967958141971,70.98389982121003 10.972215303084385,70.50275129614862 10.946128937286534,70.36362401232532 10.906999388676143,70.1607300557743 10.750481193889044,69.37813908175244 10.680192930402901,68.41584203249342 10.785263014866462,67.96367835883679 10.87149294634018,67.52310862493009 10.94178120965356,66.81008129338134 11.009895609323216,66.0100994087412 11.376553972951053,65.2738841962241 11.559883154894543,64.77534476132183 11.722922941131102,64.32897805766974 11.94030932277985,63.986956817295436 12.116392292001715,63.801453771449076 12.701161658550461,63.44783859072016 13.359117773673999,63.20436584301442 13.976495097470057,62.82176581122624 14.315617852842102,62.653653676343694 14.865605398413429,62.36960213774238 15.081542537517851,62.23047485314166 15.26487171937496,62.108738479418356 15.40472362490232,61.95222028463126 15.411245216438164,61.76671723904405 15.31994293605931,61.55802631248849 15.234437625944135,61.47107176017452 14.517062566503274,61.18702022131406 13.605489006122864,60.984126265367706 11.645388465096099,60.63051108455241 10.912796358853441,60.60152623357953 10.242521682103142,60.61312017393413 9.775865582744117,60.73485654757105 9.128778786703016,61.04209596688156 8.297638187532643,61.627589954961614 7.770113901398353,62.08555059870916 7.273023708781268,62.27105364455552 7.121577862899308,62.31742940597392 6.9056407237071555,62.305835465360175 6.685355856971109,62.195693032337005 6.417970607543151,61.998596046395186 6.2976834763641785,61.61599601460701 6.373768710114002,60.94934444395838 6.531736147272661,60.43921106844237 6.546953194074455,60.0624080072634 6.55419940679608,59.6450261540659 6.55419940679608,59.378365525910105 6.360000905856534,58.85084123994858 6.168700889919255,58.49722605896052 6.19913498334873,58.416068476651084 6.422318335176126,58.17839269964094 6.565068725878517,58.07984420610855 6.753470256640765,58.01028056441286 7.185344534763225,57.859559339716675 7.5288150177682445,57.80158963759815 7.656348361668842,57.784198727152635 8.086048776061197,57.69724417457952 8.142569235376254,57.685650234224916 8.236770000670994,57.63927447272014 8.282421140817231,57.61028962226555 8.321550689514005,57.575507801115364 8.443287063323686,57.42478657641919 8.470822671579478,57.390004755269004 8.49473517356084,57.32044111340055 8.531690858441127,56.943638051357766 8.578791241133038,56.81030773753901 8.688209053228224,56.65958651310198 8.772989742071235,56.59581984123806 8.857045809643433,56.549444079474135 8.897624600969564,56.52625619876493 8.941826498485094,56.50886528806027 9.157763637589516,56.49727134770568 9.617898145412695,56.50306831831488 9.67441860464137,56.50306831831488 9.841806118510904,56.46248952690102 9.890355743745792,56.445098616196354 9.973687190045826,56.38712891459612 10.016439845103413,56.346550123527784 10.054120151254512,56.30597133237307 10.081655759596687,56.265392540959205 10.21860918012178,56.07409252476278 10.44324177449215,55.871198569075574 10.789610742499438,55.63931976146529 11.183080093285017,55.44801974587354 11.245397522776024,55.424831865423485 11.304816467006967,55.40744095471882 11.735241502757866,55.4016439846279 11.915672199526325,55.38425307400962 11.970743416210674,55.37845610365956 12.379429813623934,55.16396820701308 12.764928330414378,54.97266819142133 12.804782500556078,54.949480310712126 12.897534023220114,54.93208940000746 13.222888974421071,54.949480310712126 13.269989357112982,54.949480310712126 13.322886710065875,54.96687122133041 13.622155295382601,55.10020153514916 13.786644324163486,55.1871560880678 13.824324630402316,55.210343968777 13.922873123330033,55.250922759931726 14.020696995071969,55.29150155134558 14.061275786313068,55.30309549144104 14.116347002997417,55.31468943179564 14.362718235706776,55.320486401800174 14.412717103311875,55.320486401800174 14.464165213721794,55.31468943179564 14.803287969093837,55.27990761099098 15.23298838339981,55.16396820701308 15.678630465866123,55.08860759479456 15.725730848556683,55.08281062470364 15.901813817692169,55.01904395258058 15.950363442927054,54.99585607187138 16.017028599966004,54.937886370271144 16.158329747951306,54.79875908592957 16.259052104781894,54.70600756300639 16.482235456780703,54.41615905414139 16.52064038403255,54.387174203600416 16.682955548996947,54.288625710413555 16.769185480384284,54.25384388952252 17.188741197139127,54.06834084367616 17.46989425056541,53.90022870827532 17.514096148253703,53.8712438574752 17.593079866919414,53.801680215606744 17.821335567650596,53.56400443825107 17.85901587388943,53.535019587191805 18.190167795181303,53.29154683974521 18.57059396306661,53.059668032739594 18.609723511677,53.03068318168033 18.7372568555776,52.966916509816414 18.781458753265895,52.94952559963004 19.047394760149526,52.84518013609312 19.09884287038533,52.82778922599313 19.414053123777364,52.787210434579265 19.883607708137305,52.76402255378368 20.36620547539887,52.72344376271535 20.76474717508689,52.68286497156063 20.82271687694762,52.67706800095142 21.079232807206758,52.57851950828285 21.11908697726208,52.54373768687353 21.395167681869605,52.29446796916325 21.50748397905479,52.09157401347604 21.608206335971758,51.8365073254157 21.695885509815685,51.70897398168786 21.7082040714438,51.66839519053315 21.750956726501386,51.564049727255366 21.911822648921458,51.25101333733565 21.925590453092543,51.21043454644008 22.00747265702102,51.077104232448555 22.187178732429583,50.897398156606734 22.777020447884816,50.369873870386066 23.063970471746195,50.11480718293039 23.36034057197427,49.877131405574715 23.682072416814414,49.62206471751438 24.02409365736149,49.395982880513294 24.07409252505432,49.33801317925859 24.119743665286936,49.27424650704914 24.130612984282994,49.233667715635285 24.145830030998408,49.16990104403051 24.219016779486818,49.07135255084365 24.285681936524416,49.013382848984264 24.471184982372126,48.914834356315694 24.806684631209244,48.72353434011927 24.842191073545205,48.70034645941007 24.902334639136043,48.65976766799621 25.045809651025564,48.57281311568224 25.153053599390645,48.4974525031182 25.19000928418455,48.474264622408995 25.30667330900271,48.42209189089968 25.455945291066833,48.369919159131214 25.85376236957177,48.2191979346078 26.13056769553649,48.027897918756906 26.189986639855164,47.97572518724758 26.492153710346923,47.74384638050112 26.785625325486347,47.57573424527304 27.148660582839753,47.39602816951759 27.4993772785664,47.227916034635044 26.7356264578799,47.11197663091628 24.561038020032544,45.87142501323325 21.70530558644153,42.65410656465904 20.36837933921536,41.593261022126775 18.738706098208308,40.92081248173275 17.072077172234586,40.47444577808066 15.96413124701176,40.20778515001125 15.889495256065405,40.178800298951984 15.760512669534101,40.11503362708807 15.710513801754889,40.103439686387944 15.400375897355726,39.999094223369305 15.32573990623661,39.999094223369305 15.163424741272213,39.96431240204636 14.869953126219167,39.87735784973239 14.520685672864085,39.74982450591817 14.184461402580691,39.57591540042641 13.854758723833141,39.367224473870856 13.681574239699925,39.262879010593075 13.633024614465038,39.23389415979295 13.519259074735528,39.14693960721984 13.44752156879144,39.08896990536046 13.238106021221515,38.90346686011877 13.198251851167546,38.88027897932319 12.868549172333614,38.677385023117694 12.511310885157508,38.48608500692127 12.430877923947472,38.43970924576202 12.073639636857747,38.24840922956559 11.81567446388152,38.0860940650331 11.759154004739228,38.06870315432844 11.473653223420825,37.941169810600606 11.083082357811627,37.79624555616811 10.97076606054006,37.749869794404184 10.57729670975583,37.558569778812426 10.526573220790837,37.52958492801231 10.137451597553198,37.34408188216595 9.940354611611385,37.24553338915185 9.591087158429065,37.013654581887096 9.221530309539816,36.77597880453142 9.109214012527392,36.718009103190326 9.066461357383425,36.74119698398591 9.020810217150807,36.75279092408136 8.92805869448677,36.7585878940859 8.833857928932884,36.75279092408136 8.78240981869573,36.7354000133767 8.733860193460842,36.718009103190326 8.688209053228224,36.68902425221744 8.654876474795131,36.66003940141733 8.599805258110782,36.5904757589442 8.586037453854663,36.515115146984826 8.563574194502658,36.45134847512091 8.499807522465977,36.27743936962915 8.37517266365403,36.138312085460335 8.06358551671054,35.88324539748638 7.7005502593571356,35.63397568003524 7.3389642445480545,35.41369081329785 6.946219515035986,35.18181200577394 6.552750164251755,34.96732410964576 6.235366046958204,34.70646045132173 6.02450125676027,34.376033151302025 5.829578134633593,34.10357555314169 5.49987545571328,33.84271189533596 5.452775073022718,33.81952401454038 5.027422386263337,33.645614909135 4.59409886551152,33.442720952583976 4.546998482819609,33.413736101783854 4.4709132493289285,33.37315731088828 4.436131428178748,33.34996942991994 4.408595819837923,33.315187609115284 4.291931795018413,33.048526980700345 4.271642399484245,33.00794818928648 4.243382169783526,32.660129979080395 4.285410203568951,32.468829962970354 4.472362491786872,32.17898145410536 4.7716310772763615,31.871742034535703 5.057856479695512,31.587690496279915 5.32524172912077,31.292045016805712 5.373791354357007,31.234075315551003 4.235411335876121,31.21088743475542 4.20642648490324,31.10074500121396 4.16584769366079,31.077557120763906 4.1230950386032035,31.065963180322925 4.071646928367398,31.054369239968324 3.9665768438174562,31.036978329350042 3.920925703757601,31.013790448554463 3.7397703857169793,30.9384298360768 3.602092344092488,30.880460134476564 3.544122642146726,30.828287402708103 3.5180362763488766,30.758723760839647 3.509340821169308,30.677566178271068 3.5151377912602264,30.329747967805837 3.5397749146001325,30.16743280275506 3.5789044632105256,30.057290369127216 3.589773782379344,29.7152691287529 3.5803537057548502,29.54715699387035 3.5651366591258196,29.506578202456488 3.544122642146726,29.460202441210853 3.410067706796666,29.23412060395063 3.3752858857328665,29.205135753496037 3.299200652242187,29.152963021727576 3.2477525418322686,29.152963021727576 3.2006521591417068,29.15875999173211 3.103552908671934,29.193541813141437 3.053554040892722,29.21093272324143 2.999932066752698,29.216729693591493 2.9419623650660807,29.222526663596028 2.6687801453744413,29.228323633946093 2.6274767328611794,29.21093272324143 2.581825592713593,29.18774484253223 2.5441452866488747,29.152963021727576 2.506464980410044,29.123978170927458 2.4405244447296393,29.071805439158997 2.4137134575732455,29.03702361826796 2.3782070152372836,28.96745997614036 2.2571952627847987,28.706596317989103 2.1615452548607,28.341387196646444 2.0122732728816093,28.016756866976795 1.873870609898574,27.68632956669794 1.710106202389852,27.350105296328163 1.6919906705857897,27.30952650551897 1.6644550621572336,27.23996286330499 1.6630058196992903,27.089241638263285 1.6702520323345336,27.013881026044768 1.7064830959426578,26.909535563026132 1.7434387808229448,26.793596159652896 1.7419895383650013,26.590702203101873 1.678222866328321,26.480559769733176 0,23.344398903986693 2.58399945653143,23.535698919664828 5.4774121962762425,23.75018681657045 9.013564004429181,23.837141368884424 9.146894318507078,23.84293833949363 11.339598288070766,23.825547428529823 14.441701954198374,23.698014085061132 17.084395733861346,23.55888680037403 20.011141052039253,23.22266253034978 21.76762301576112,22.695138244129105 23.285704581027915,22.063268494889797 24.384230429539866,21.593713910442126 24.77335205269112,21.43139874565049 26.82185638909447,20.967641131293735 29.086297864602244,20.619822920828504 30.47394760079341,20.51547745729158 30.900749530183496,20.480695636486924 33.781843708301544,20.33577138205443 36.52815832979737,20.27200471019051 38.48825887091052,20.289395620549648 40.03677452960814,20.33577138205443 40.76646815058938,20.4111319940138 42.2222322864502,20.550259278700906 45.58664885310063,21.170535087499232 48.46919227367797,21.9183442404573 51.26695500549599,22.71832612457916 51.336518647796346,22.74151400528836 55.351645116762306,24.011050474376184 55.42338262270639,24.028441385080846 58.247956341509386,24.71828083583401 59.58705645246567,24.96755055380343 61.00441566081549,25.222617241345482 62.7130726207474,25.599420302783592 64.72969362109058,26.06897488749041 66.35574375573411,26.5153415911425 66.50574035907445,26.5617173525609 67.57890446323212,26.89214465232147 68.59699735053404,27.060256787463167 70.6817327506319,27.274744684109645 72.6592242022756,27.41966893854214 74.4410679105245,27.37909014712828 76.25551957610574,27.158805280477264 77.89388827255286,26.724032517179772 79.86630737529141,26.086365797849545 81.74452571273659,25.297977853563996 83.66259822006431,24.509589909537592 85.3632843459147,23.860329249593622 86.58789429587065,23.431353456646193 87.7654038631347,23.193677679290516 88.3081451959844,23.08353524618096 89.91607979891296,22.909626140689202 91.71241593251739,22.71832612457916 93.31817667162946,22.457462467032574 95.189148796353,22.10384728630366 96.64636217467311,21.773419986024802 97.91372477968395,21.408210864595766 98.92602069706771,20.99082901174379 99.73759652171692,20.457507755777726 100.31004732672665,19.814044065838292 100.9397432122345,19.043047032257405 101.41944249449244,18.09814089370305 101.92232965728549,16.614116527968747 102.46796947522519,15.69819524021451 103.24476347898337,14.94458911699276 104.27807341308707,14.092434501102437 105.36645456387514,13.27506170601677 106.54686261622783,12.666379837227517 107.89755666762508,12.202622223129907 109.93591630613177,11.506985801767536 111.58298045775847,10.79395846995965 114.11915491032447,9.54181291157649 116.23432440376811,8.451982518589634 118.48499807510481,7.020130884969323 121.26754376029514,5.072348905137412 123.46169697231677,3.7506397048857982 125.84642557900351,2.5042911167663195 127.35363782518787,1.547791037339073 128.2688344918427,0.7825909737627232 128.47100382686241,0.5739000477254532 129.54054482457425,0.614478838880171 130.46588618903937,0.6550576302940334 131.28978057548812,0.5623061073708534 132.0644007155162,0.3536151810744386 132.49627499363865,0.08695455265949849 133.51726636611562,0 134.94404565108994,0.22028486699654093 136.1114105204573,0.4985394355069361Z"/></svg>