<svg xmlns="http://www.w3.org/2000/svg" width="256" height="256"><path d="M124.76783181780262,18.804371402432107 126.14065237340452,18.84708434129026 130.75965629431886,18.41995495119713 132.5816300992742,18.345207307837352 133.79360974388922,16.124134479098498 135.2218236423587,13.57203637297581 136.5092183198465,12.045048803188012 137.3921748560941,11.324267956953365 139.04663385333987,10.357887711926338 142.02252440151446,8.991073663055504 146.01418203053308,6.727287895299381 146.70092600324966,6.449653791925811 148.1905397514769,5.606073246016518 148.96137482272462,5.120213564615527 150.45499290906554,3.59322599482773 151.7857679152415,2.605489279973832 152.56260949369764,2.7976975057902185 153.56903311929204,3.3529657130147115 155.75139734712604,4.7411362308372675 162.31650955209423,7.68298990557209 167.29390172687079,9.91474096930394 173.52798865437558,12.691082005744642 178.6448652707087,11.740719112530854 192.68140485525987,8.756152498778762 192.82422624509886,8.750813381003809 193.2313339451072,8.676065737882706 193.69183281888712,8.611996329277245 194.11762742979508,8.553266038446736 195.0706598816962,8.441144573605964 195.50446316859282,8.382414282218543 195.94360557278333,8.313005756156363 196.39743054976225,8.243597230571538 196.81855343288564,8.200884291236033 197.23700675732044,8.152832235159842 197.69750563110037,8.099441061388255 198.14665888045383,8.019354300730877 199.0549762242417,7.912571952869469 199.49345123884208,7.853841661800284 200.4658379911571,7.731041962125636 200.94635855510137,7.677650788274491 201.38817051814078,7.5922249103990715 201.83932593643112,7.501459914828258 202.3138399933261,7.442729623997749 202.7796779844832,7.373321098174247 203.2835571870321,7.277216984987597 203.77876032376355,7.207808459164094 204.29665470934793,7.154417285631186 204.79919913239343,7.085008759728124 205.2964044382209,7.004921998911627 205.74822724626293,6.924835238254248 205.9063985984817,6.892800533752619 205.98648535921862,6.882122298998302 206.41561691840775,6.876783181700703 206.8861266371903,6.791357303825284 207.27654959547456,6.673896721448235 207.7410528072078,6.5938099608704155 207.81112872286258,6.5938099608704155 208.250938516806,6.577792608579822 208.32635354967883,6.583131726354776 208.4017685827903,6.599149078088456 208.48585968132144,6.631183782669644 215.62425961466204,5.403186785764051 222.92883957620757,9.82397597421048 225.00575623592226,8.195545174017992 237.05080503879202,5.173604738705349 237.92575289897388,4.954700926162288 245.8416618003632,7.501459914828258 246.31484107791388,7.725702844828037 246.4730124301314,8.019354300730877 246.642529406937,8.350379577716915 246.88879619587888,8.654709268374072 246.94619170768456,8.6867439728757 246.99624593309417,8.713439559443257 247.03695670317458,8.734796028951891 247.07166096604655,8.761491615758125 247.1250521398977,8.825561024602266 247.18645198973377,9.03378660239101 247.3366146659676,9.354133645020525 247.50279469425212,9.658463335200327 247.66096604670955,9.97881037814808 247.81112872294213,10.293818303320876 247.94527404688412,10.635521815538585 248.08943021606618,10.961207975465701 248.21957120213565,11.302911487683408 248.38174689246685,11.628597647610524 248.4618336532821,11.708684407949667 248.92500208559272,12.221239676156891 249.10853424543257,12.520230249516448 250.10494702594477,13.913739885193518 253.91907900225243,15.963960957942856 252.14248769508248,20.149828981555633 251.32560273637722,21.63944272978288 246.58379911570867,30.304830232911268 246.22808042045548,31.34595812129807 246.03920914323726,31.463418703436442 245.93242679569533,31.554183699086817 245.95244848593924,31.666305164245824 246.04855259864854,31.831817802699064 246.25210644873226,32.01868691089961 246.44364728455952,32.13080837558127 246.4730124301314,32.33903395337001 246.46700592308335,32.72345040484367 246.4323016601318,33.262701259618446 246.42963210144322,33.41219654657668 246.42696254275342,33.72720447174948 246.42562776348993,34.09560357045519 246.45032118127972,34.52273296054832 246.4476516226707,34.80036706416056 246.4309668808683,35.07266205079345 246.3582214066033,35.34495703686942 246.29548677734087,35.54250437966517 246.24209560365009,35.72937348818395 246.18336531242178,35.846834070083645 246.0765829648786,36.044381413356746 245.9310920164306,36.22591140410058 245.77892717110203,36.40744139508309 245.6300992742933,36.60498873811752 245.5466755652752,36.727788437712604 245.38983899232116,36.946692250016994 245.27371318936795,37.181613414373295 245.07216150830067,37.64611662650432 244.94735963960957,37.950446317161486 244.8759489446901,38.1907065989745 244.78051222157336,38.393593058988294 244.66572119796447,38.68190539759353 244.54292149828981,39.06632184890807 244.44214565779595,39.34929506973835 244.3607241177943,39.60557270360329 244.27396346057458,39.85117210295259 244.17318762000113,40.1021106197586 244.091098690249,40.32635354983794 244.06840744139484,40.38508384066844 244.00367064319678,40.646700592228775 243.92959038958872,40.82823058321129 243.875531826145,40.97238675247413 243.7493951781892,41.40485525978529 243.72269959130338,41.61308083781272 242.8797864353049,44.010344539759124 242.44932009685107,44.90731625920133 242.24042712939018,45.69216651404144 241.59973304413114,47.60357053458686 241.28605989830263,48.927671644122185 240.91766079919913,49.54167014289322 240.91232168182196,49.717861016180336 240.90097605739552,49.7659130724952 240.88562609501574,49.81396512881007 240.780845916489,50.01685158906254 240.75948944690205,50.05956452839804 240.74881121214648,50.107616584712915 240.71077000083423,50.422624510124386 240.59731375664919,50.66822390947368 240.46984232934906,50.9939100694008 240.28230583131727,51.32493534654595 240.20822557778874,51.50646533752846 240.20288646049116,51.55985651114093 240.20422123967757,51.66129974154562 240.20956035705348,51.709351797860485 240.21089513639777,51.76274297163207 240.18887127721698,51.965629432202775 240.17619087344625,52.00834237074269 240.0794193710648,52.24326353557635 240.05272378425855,52.56894969550346 240.12013014098608,52.750479686247296 240.13681488278968,52.84124468181811 240.13814966213397,53.198965545849056 240.13681488278968,53.25235671993888 240.10744973729487,53.41786935839212 240.0894302160674,53.46592141470699 239.93659798114624,53.764911988066544 239.92124801868692,53.81296404462009 239.91323934270073,53.90906815724983 239.949278384917,54.277467256035095 239.95795445073443,54.59247518144657 239.94527404696368,54.651205472515755 239.92992408450436,54.859431050304494 239.94260448819554,54.89680487186505 239.96062400934346,54.9341786934256 239.9839826479481,54.96621339792723 240.01401518311505,54.99824810226974 240.0373738216401,55.03028280629401 240.0640694085259,55.099691332356194 240.07074330524736,55.174438975477294 240.0447151080337,55.313256027442534 240.04004338040824,55.36664720121412 240.0880954367231,55.71368983072943 240.20956035705348,56.06073246016518 240.31567531492325,56.37574038533798 240.3230166013181,56.4291315594278 240.31901226336478,56.53591390657318 240.30633185951447,56.59464419788104 240.28631016950925,56.648035371732185 240.12146492033037,56.9683824143617 240.02602819721363,57.11253858354498 239.97196963376993,57.26737298756214 239.8792024694201,57.44890297830597 239.84316342704597,57.59839826470729 239.81913739900787,57.91340619011877 239.74772670392926,58.24443146734348 239.73237674146992,58.29782264143331 239.73504630023805,58.61816968406282 239.74772670392926,58.959873195803176 239.77041795278342,59.290898473266566 239.7784266289275,59.35496788211071 239.7784266289275,59.41369817317989 239.77308751155033,59.4670893467128 239.7363810795028,59.55785434212449 239.72703762409276,59.600567281141764 239.71168766171175,59.739384332868326 239.71435722032203,59.782097272124275 239.74105280728736,59.91023608909652 239.74505714532023,59.952949028352464 239.59689663802453,60.310669892383416 239.52815550187316,60.40143488771555 239.48877951113707,60.44414782681238 239.3966797363811,60.51355635263588 239.34328856261072,60.545591057217074 239.16976724785184,60.62033870049729 238.76666388595592,60.73246016517894 238.6725619421835,60.764494869760135 238.62517727538167,60.77517310451445 238.41828647701678,60.85525986485359 238.36889964127806,60.881955451898506 238.27546508717654,60.94602486050397 237.877700842659,61.090181029687244 237.48327354650098,61.22365896411621 237.36114123633936,61.28238925518539 237.01409860690362,61.46925836314727 236.87594894476965,61.54934512404333 236.7905230666568,61.618753649628154 236.62100609001033,61.81096187560365 236.5842996579628,61.837657462171215 236.44614999582882,62.04588303995995 236.39275882213678,62.10461333102914 236.1618419954951,62.39292566939571 235.99566196713107,62.61182948217744 235.97163593893384,62.65454242103559 235.9536164178655,62.70259447758914 235.94360557270377,62.75064653390401 235.94093601409475,62.90548093760293 235.9476099108162,63.065654459076804 235.62459330949935,63.444731793093744 235.10936848252274,63.88253941794119 234.8070409611207,64.17085175630775 234.26111620930746,64.64069408517948 234.14899474430632,64.72611996329357 234.0121798615962,64.83290231067762 231.99265871368596,66.9632101445617 230.41761908734463,68.67172770509332 228.5789605406652,70.19337615758351 227.10069241678485,71.64561608432977 226.51605906398598,72.20622340885187 226.42929840660716,72.35037957803515 226.3365312422586,72.59063985984817 225.55702010511513,74.08559272561169 224.43847501459916,75.58054559137521 222.96621339792722,77.25702844756434 220.29732209902008,80.24693417861403 218.93251021940435,81.2346708937066 218.7396346042328,81.35747059306301 217.3341119546175,82.33986819061931 213.32977392174857,86.00784182856815 213.235004588304,86.09326770668224 221.65345791281837,92.98606824043486 224.51856177533608,95.3139234172738 225.77125218987237,96.0186869107405 229.77825978142988,98.81104529899444 230.66989238349618,100.30599816475797 231.03762409276717,100.69041461575426 231.20981062833965,100.87194460649809 232.12546925844404,101.84900308683635 232.36639693008706,102.24409777258697 232.43046633853464,102.25477600757996 232.49186618837072,102.26545424233429 232.5439225828776,102.28681071192247 232.58997247017604,102.32418453348302 232.6306832401756,102.3722365897979 232.82823058329083,102.65520981086686 232.96638024534403,102.99157420562784 233.08584299657963,103.30124301326437 233.115208142154,103.34395595259987 233.1499124051851,103.3813297738422 233.35146408609327,103.52014682556876 233.40752481855344,103.55752064736798 233.63443730716224,103.68565946449935 233.6844915325731,103.72303328629857 233.7725869692962,103.81379828171028 233.80929340118462,103.86718945548186 233.8626845751153,104.05405856328461 234.52406774013127,104.63068324025642 235.91557520647368,106.12563610601994 236.63235171451635,107.01726870800542 237.2536914992036,108.05305747885595 237.9324267957749,109.04079419370986 238.47701676824508,109.8790356218442 238.91749395186065,110.75998998923448 240.02335863860463,112.43113372852379 241.19796446157952,114.24109451914188 242.02219070659882,115.45307416383643 242.46333527988654,116.46750646517833 244.18853758246047,119.09435221521771 245.5406690582259,121.03245182304671 247.30991907908182,123.42971552499313 248.8329023109163,125.38383248511273 250.08559272553214,127.02294151982086 250.7783432051389,128.28831233852569 252.00033369483606,130.53074163677317 252.70843413698174,130.7923583883335 252.5949778927171,130.92583632276248 252.48152164853204,131.1660966048937 252.4421456578755,131.449069825724 252.4341369817302,131.69466922483463 252.42012179869474,131.97764244622184 252.3400350379578,132.21790272779617 252.18186368573902,132.37273713173377 251.9115708684408,132.54358888796196 251.6626345207308,132.72511887870579 251.39834821072057,132.94936180878514 251.13940101776925,133.19496120805488 250.88178860432134,133.44056060716548 250.70693251029897,133.69149912428972 250.31650955201468,134.36956703118886 250.15500125135563,134.6365229000468 249.94944523233502,134.8661049471055 249.70584800208172,134.97822641226452 249.37682489363476,135.05831317260365 248.99774755985652,135.09034787710527 248.68007007591558,135.10636522891852 248.37240343713637,135.1010261118596 248.12747142745923,135.10636522891852 247.861182948353,135.13306081596343 247.62759656310232,135.13306081596343 247.3813297740013,135.09034787710527 247.0409610411279,135.04229582031306 246.7306248436601,135.0262784685794 246.3622257445566,135.0262784685794 246.05722866446598,135.07433052489424 245.83298573454576,135.16509551998772 245.6594644197881,135.25586051587675 245.3758238091278,135.4106949195757 244.76382747976976,135.8057896053263 244.25460915992326,136.12613664803538 243.85017101868306,136.38241428237765 243.55785434220405,136.58530074239144 243.14073579711354,136.7935263201802 242.7903562192375,136.93234337206587 242.44331358980176,137.05514307174053 242.230416284308,137.10853424535298 241.85400850929665,137.1992992409238 241.57437223659088,137.30074247085113 241.3461249687161,137.44489864003444 241.07850171018603,137.63176774855322 240.81421540009623,137.82931509158763 240.47251188787854,138.0749144906187 240.1942103945929,138.2778009511894 240.00266955884769,138.4913656459575 239.83715691999666,138.6622174021857 239.63160090097605,138.83840827587062 239.23717360473847,139.02527738367337 238.79202469341786,139.2335029617008 238.0865938099608,139.5218152998287 237.66947526487027,139.6179194126971 237.2410110953533,139.74071911237175 236.87594894476965,139.79944940344092 236.5842996579628,139.78343205170725 236.31867856844914,139.65529323425764 236.14916159172438,139.51647618284932 235.96629682155668,139.35630266137542 235.7267039292567,139.21214649219215 235.1527488112917,139.0359556184277 234.9398515058775,138.99324267988777 234.64086093275662,138.98790356211282 234.40393759906564,139.05197297095697 234.15500125135563,139.18545090538592 233.9154083590544,139.38299824842034 233.74589138249,139.56986735614353 233.5770417953578,139.85284057753074 233.40752481855344,140.1304746809043 233.2520230249437,140.38141319747166 233.0898473346125,140.56294318869283 232.83356970058844,140.7604905312499 232.57061816976338,140.92066405296245 232.30766663885876,141.09151580895198 232.04004338032868,141.2463502126509 231.69700508884625,141.45457579067832 231.38333194293818,141.62542754666782 231.09368482522734,141.78560106814172 230.70793359480717,141.9457745890587 230.45566029865563,142.08993075824196 230.19003920922157,142.28747810127638 230.09193292749583,142.4583298572659 230.00050054225412,142.8160507217742 229.9437724201218,142.9655460084142 229.7976140819221,143.12038041243136 229.57937765921028,143.15241511645564 229.45924751814465,143.18978893825485 229.19295903895886,143.55284891974253 229.01409860682406,143.79310920155555 228.98339868198497,143.87853507966963 228.83056644698422,144.19354300484244 228.66171686001115,144.5138900477902 228.54692583632394,144.7274547425583 228.5309084841912,144.76482856411886 228.5188954700926,144.87695002927785 228.5329106532872,145.10119295927763 228.5649453574706,145.19729707190737 228.60098439984597,145.2560273632948 228.78184700091765,145.49094852757153 228.8752815550167,145.64578293174782 228.9580378743639,145.7845999832357 228.98339868198497,145.81663468749866 229.01142904821504,145.84866939207984 229.08684408108783,145.92341703543963 229.12888963051378,145.95545173946388 229.24368065404187,145.98748644348817 229.50262784683406,146.0996079084085 229.53466255117658,146.1263034956921 229.7402185701972,146.4252940685743 229.77825978142988,146.5000417116954 229.91974639192458,146.68691082021417 229.95578543422042,146.7509802285014 229.9811462417619,146.82038875464315 230.0538917160257,146.94852757153583 230.08325686160006,146.97522315858075 230.14065237348285,147.08734462350108 230.15867189471155,147.1247184453003 230.25811295578157,147.4771001919541 230.23875865520856,147.84016017375998 230.23608909659956,148.02169016450384 230.2834737632435,148.34737632443094 230.37290397931093,148.65704513206745 230.41094519062318,149.0094268790395 230.42095603570536,149.3404521565029 230.41761908734463,149.45257362166188 230.41227996996747,149.55935596904595 230.39292566947526,149.69817302069293 230.29348460832568,149.93843330306288 230.28480854266735,149.97580712462343 230.29214982914053,150.05055476790363 230.31417368824174,150.08258947200747 230.39826478685242,150.18403270233262 230.4336364394761,150.21606740643645 230.52573621438995,150.3228497538205 230.56644698423293,150.402936514637 230.57579043980206,150.44564945373384 230.57579043980206,150.49370151004868 230.50905147258757,150.7232835571074 230.42229081504965,150.85142237447744 230.35354967881872,150.9208309003805 230.29214982914053,151.00091766071964 230.26812380086375,151.04363060005514 230.25010427963628,151.09168265637 230.23875865520856,151.13973471292357 230.23742387586552,151.18778676923841 230.24409777258697,151.24117794301 230.3368649370151,151.4494035203214 230.3702344206211,151.49745557687496 230.62918161341454,151.79110703253912 230.65721197972417,151.83381997155638 230.67656628013683,151.8765329106532 230.7973638108746,152.21289730533465 230.94952865604404,152.53324434828238 231.04363059981648,152.7468090430505 231.0536414449782,152.79486109936536 231.05898056235534,152.92299991681497 231.0536414449782,153.1472428463374 231.0563110035872,153.2593643112577 231.07433052481468,153.29673813305695 231.1010261116209,153.3394510720742 231.15975640292754,153.40885959821597 231.2491866188371,153.4836072412575 231.27988654375574,153.5103028283024 231.32793860015016,153.5690331191329 231.36798198047885,153.6544589974857 231.40869275055925,153.73988487536113 231.47342954867773,153.86802369257205 231.49411862851548,153.9160757488869 231.51080337031783,153.9587886876655 231.52615333285672,154.001501627001 231.55284891974253,154.1456577959456 231.55418369908682,154.18837073520154 231.69433553015642,154.27379661307697 239.95928922999917,158.75865520989018 238.03053307750062,159.81580045080628 237.44990406289375,160.0720780849099 236.98339868190538,160.397764244837 236.4868607659092,160.83023275214816 233.79794777675815,167.5041294735964 227.80211896220905,178.33185951463312 225.22532743813744,189.14357220337928 221.78359889880704,194.1516643028358 220.3166763994327,196.20188537582382 219.12004671727706,198.0759155753656 209.04846917493953,209.82197380511448 206.72128138825008,212.1978810380296 203.50446316843247,215.74305497654248 203.90756653048751,220.32935680344215 202.84574956218464,226.80036706455834 204.32601985484274,242.4066071579929 203.95828814549094,244.78251439066938 203.47376324359337,247.48410778359116 204.84524901977142,248.83490448017142 206.63251856185482,249.91874530733682 206.64853591398506,250.04154500701145 206.66188370734963,250.2764661718451 206.7099357638236,250.4046049887378 206.8988070410406,250.71427379693122 207.0876783182576,251.0186034873497 207.2264953700637,251.25352465162646 207.3379494453119,251.49912405097575 207.4320513890843,251.7927755068786 207.63493784933678,252.42813047491958 207.63360307007204,252.61499958272233 207.574872778845,252.94068574288812 207.55084675080565,253.06348544256278 207.48944690088877,253.2450154333066 207.39000583965964,253.41586718929614 207.2545257362938,253.59205806298104 207.11837824309669,253.76824893626815 207.01626762333808,253.93910069249634 206.92550262784684,254.11529156594258 206.87478101276258,254.2434303831535 206.8273963461211,254.36623008282814 206.7179444398098,254.53708183881767 206.60315341620088,254.7025944772709 206.6018186368566,254.93751564210456 206.50571452406774,255.06031534169963 206.39359305922696,255.1724368063813 206.2481021106994,255.31125385858522 206.08993075832151,255.43939267523922 205.8336531242179,255.5995661967131 205.5466755652752,255.72236589638774 205.38983899224283,255.77041795270262 205.2289980812547,255.81313089171988 205.08751147076123,255.8451655963011 204.90998581796822,255.88253941786164 204.71977976148776,255.94660882614886 204.6190039209939,255.9733044129551 204.52757153583048,256 204.20989405188953,255.9733044129551 203.978977225407,255.94660882614886 203.7493951781096,255.9145741218859 203.4624176191669,255.86652206557105 203.25152248277038,255.81313089171988 203.03995995669922,255.75973971818698 202.71827813464586,255.66363560531858 202.3525485943105,255.5728706096682 202.01418203053308,255.49278384932904 201.83198465011586,255.4180362057306 201.66847418036207,255.31659297580325 201.4949528656044,255.19379327612862 201.36881621756902,254.99624593317375 201.21064486542983,254.82005505988664 201.16192541920412,254.69725536021198 201.11721031117042,254.5744556606169 201.02310836739676,254.42496037389733 200.89563694001836,254.29148243946838 200.63802452657046,254.10461333094958 200.35705347459748,253.94977892701198 199.99332610327855,253.7735880540431 199.62759656294318,253.59205806298104 199.36731459080795,253.46391924584967 199.10436305998041,253.33578042895698 198.81605072161508,253.21831984673906 198.5177275382459,253.12221573363198 198.14665888045383,252.99941603395732 197.77158588478798,252.88195545158027 197.43054976224244,252.8018686912411 197.08884625018385,252.72712104788135 196.74847751738997,252.64703428722396 196.42145657803903,252.54025193960123 196.25994827737998,252.45482606148713 196.10511387352193,252.36406106639367 195.9189121548344,252.2786351882796 195.73938433302746,252.18253107564985 195.51847835154751,252.04371402344592 195.37432218236424,251.95294902835246 195.23283557186951,251.86752315023838 195.0820055059648,251.72870609827314 194.96387753407473,251.5738716945742 194.85375823824913,251.40835905556406 194.7276215900559,251.18411612580294 194.6815717026779,251.0773337784189 194.56945023783712,250.98656878276853 194.4433135897222,250.84241261358525 194.31784433143977,250.71427379693122 194.18770334529074,250.58613497948164 194.032201551681,250.4793526318589 193.61241344798145,250.29782264111506 193.41353132560275,250.21773588077593 193.28605989822307,250.19637941094905 193.0004171186259,250.12163176782795 192.8102110619838,250.10027529808065 192.5879703011596,250.10027529808065 192.31767748410005,250.07357971127442 192.0780845917205,250.0041711854509 191.88787853515922,249.97747559864467 191.617585717861,249.97747559864467 191.2999082340792,249.92942354209111 191.044965379162,249.86001501626762 190.95019604571618,249.84399766421572 190.63251856193438,249.8226411944684 190.55243180111788,249.8226411944684 190.42496037381778,249.85467589897002 190.31484107791388,249.8653541338039 190.1706849087306,249.9240844248731 190.04321348127138,250.05222324176577 190.04187870200664,250.18570117619473 190.08926336864937,250.28714440659942 190.19137398856708,250.57011762774795 190.27679986652205,250.85309084833955 190.28547593225994,251.0186034873497 190.25878034545372,251.17877700850536 190.22340869275172,251.34428964727684 190.12997413872975,251.4831066991625 189.8736965045466,251.66997580720394 189.34645866363175,252.05973137573653 189.16826562116907,252.16117460606165 188.9640443815723,252.1985484273835 188.2359222491032,252.06507049295456 188.1031117043464,251.93693167606187 187.97163593893384,251.80879285885095 187.8595144740135,251.70201051122822 187.74939517811086,251.59522816384415 187.65529323441675,251.4777675817058 187.4023525485943,251.22148994760218 187.24418119637554,251.0559773088307 187.02260782522347,250.89046466990013 186.89513639792335,250.74630850071682 186.80170184366398,250.65554350554382 186.66889129890714,250.564778509973 186.51605906406553,250.4900308666132 186.17302077250355,250.35655293218426 185.8179694669225,250.2764661718451 185.5616918328189,250.2764661718451 185.30808375748342,250.32451822815997 185.08117126895417,250.38324851922917 184.86160006673896,250.45799616258896 184.5105530991908,250.60215233177223 184.1608409109869,250.74096938341924 183.89321765245683,250.85309084833955 183.61892049728488,250.94919496144666 183.2705430883457,251.0186034873497 182.91749395186065,251.06131642612831 182.6151664302995,251.1093684824432 182.3128389088179,251.15742053875803 181.97847668315288,251.15742053875803 181.64544923667307,251.1520814217787 181.0868440811674,251.22148994760218 180.53024109451906,251.290898473187 179.84683407032233,251.35496788203113 179.16275965637388,251.42437640761597 178.9471927922711,251.4884458164601 178.762325853087,251.59522816384415 178.4599983315258,251.89421873720372 178.276466171686,252.16651372312057 178.2023859182358,252.45482606148713 178.19838158004504,252.60966046542472 178.19971635938933,252.7591557519056 178.2177358806168,253.12221573363198 178.22774672562068,253.48527571559697 178.18169683824266,253.7468924669982 178.09760573955117,254.0031701011018 178.03019938266456,254.20605656135427 177.93676482856426,254.39826478685242 177.79527821814912,254.57979477759625 177.6484524901977,254.75064653358578 177.5543505464253,254.88946358578968 177.45490948527572,255.03361975497296 177.32209894059847,255.15641945464762 177.16793192641256,255.2632018020317 176.96371068657712,255.39134061892437 176.85425878034414,255.46074914498655 176.73145908067073,255.49812296678576 176.51856177525653,255.51947943637396 176.29164928672728,255.5301576708896 176.03737382171968,255.48744473203146 175.76708100442147,255.38066238417005 175.5882205723662,255.29523650605594 175.41870359556185,255.1884541586719 175.28255610260342,255.0709935765335 175.19713022448934,254.9321765245683 175.17243680654042,254.73996829907014 175.23116709776872,254.5530991910287 175.29523650621508,254.46233419545788 175.3599733044939,254.2968215569251 175.45607741720198,254.17936097430936 175.64828564285924,253.97113539652062 175.7937765913868,253.81096187528541 175.9225827980312,253.67748394085646 175.93926753983482,253.474597480604 175.91524151171842,253.3037457243758 175.84116125802953,253.15958955519253 175.61424876957986,252.9300075081338 175.5054642529407,252.80720780845917 175.40001668474181,252.67906899156648 175.27454742637858,252.513556352795 175.14841077842277,252.3480437138644 175.02694585801285,252.1985484273835 174.89480270292816,252.04371402344592 174.72862267456534,251.92091432377129 174.51572536914992,251.8301493286778 173.93242679569533,251.66463668966767 173.3397847669103,251.6165846335915 172.91065320764162,251.65929757244962 172.48085425878034,251.70734962900318 171.9696337699174,251.75006256802044 171.4617502295743,251.75006256802044 170.90648202219072,251.68599315949453 170.63485442562776,251.58988904654657 170.36589638783295,251.49378493391683 170.11228831233962,251.4350546423703 169.85801284733074,251.3763243513011 169.65045465921415,251.31759406023193 169.44489864019354,251.25886376916273 169.24735129731823,251.1734378912873 169.0644865271493,251.06665554366458 168.82355885550626,250.89580378767508 168.62200717443898,250.69291732734305 168.47918578467954,250.45799616258896 168.49587052648317,250.22307499775528 168.74947860181862,249.83865854699766 169.0097605739551,249.4489029782264 169.29073162600764,249.05914740969382 169.5556853257696,248.65337448910935 169.66446984240875,248.3757403854971 169.74989572036372,248.0927671646668 169.91073663135063,247.67097689155304 169.9541169601196,247.425377492522 169.9461082839743,247.17977809293401 169.91807791774423,247.01960457146015 169.8199716360185,246.87544840227685 169.67047634945806,246.77400517234952 169.50362893142184,246.7099357640623 169.23200133477934,246.6138316511939 168.9637106866567,246.5177275382459 168.42312505221938,246.32018019529104 167.8845415867985,246.11729373495902 167.29790606490366,245.88771168790032 166.70993576374406,245.66880787511857 166.33352798873395,245.56202552749585 165.94710936848253,245.4765996498591 165.55134729290063,245.39117377150632 165.15224826895803,245.3110870109285 164.7718361558355,245.24167848534367 164.3894218736965,245.18828731125384 164.07174438975557,245.25769583707736 163.82280804204555,245.3965128890426 163.62392591982595,245.56202552749585 163.09068157178223,246.21873696488635 162.5347459748856,246.84875281547062 162.4313005756236,246.93417869358473 162.09426879127003,247.19045632768834 161.66847418036207,247.4360557272763 161.1732710436306,247.61758571802014 160.61066155009084,247.62292483547685 160.19754734303442,247.38800367072275 160.19220822565728,246.64586635521815 160.74747643280222,245.80762492684514 160.96771502461,244.9800617334651 160.99841494960697,243.94961207959395 160.9143238508384,243.07933594743534 160.39642946525402,242.70559773119336 159.87720030032534,242.62017185307926 159.0135980646495,242.74831066973326 157.90639859856125,243.4477350463797 157.32176524568283,243.73604738482584 156.7377992825561,243.69333444549034 156.27196129147856,243.13272712096824 155.1153749896516,241.02377575691105 154.39926587136065,239.89722199041015 153.84199549519928,239.6729790608877 153.29473596396096,239.98798698606052 152.40043380336644,241.01843663993168 151.50613164269114,242.29448569315213 151.0649870693251,242.78034537423488 150.62717944447766,242.98857095178496 149.67948610995245,243.50646533776714 148.55960624009344,244.22190706622683 148.00300325368377,244.6703929258286 147.7046800700759,244.84124468205678 147.34362225744556,244.8092099777143 146.89179944940352,244.66505380829233 145.797280387086,244.0724117792686 145.10252773838326,243.6986735632653 144.31634270459665,243.33561358153895 143.25786268465453,243.1113706514596 142.54575790447598,243.07933594743534 142.17869358479635,243.14874447302017 142.29081504971666,242.8871277219372 142.37357136906263,242.7109368481727 142.594477350463,242.41728539274723 142.6198381580045,242.379911570948 142.65053808292316,242.33719863169205 142.8287311254654,242.2037206972631 143.19779761424104,241.995495119713 143.6316009011352,241.856678068066 143.69900725786144,241.83532159847783 144.09810628188484,241.63243513798668 144.14949528656044,241.6004004339624 144.44915324951134,241.3334445651045 144.52590306172968,241.2426795694541 144.60865938107563,241.0825060484576 144.65470926845364,240.72478518402883 144.65604404771835,240.66605489295966 144.6660548929584,240.60732460189047 144.68407441394845,240.55393342780064 144.7154417286188,240.50588137148577 144.75281555017935,240.46316843238895 145.13789939108648,240.27096020712946 145.47960290314506,240.06807374639965 145.52298323183447,240.03603904261405 145.59439392683353,239.96663051647232 145.91207141069492,239.705013764912 145.95411696004004,239.6729790608877 146.0128472511888,239.60890965228225 146.128973054142,239.4754317178533 146.16234253774923,239.43805789605406 146.22641194627514,239.29390172710944 146.23508801201302,239.14974555792617 146.16634687586165,238.8347376327534 146.11162092274577,238.5037123550513 146.092266622174,238.1780261951242 146.0715775424171,237.85234003519707 146.07691665979425,237.52131475773368 146.09627096020688,237.19562859780658 146.15233169266705,236.86994243787944 146.27579878201385,236.53357804311847 146.36122466012793,236.21323100048895 146.3472094769321,235.88754484056184 146.25911404021022,235.56185868031648 146.22507716693084,235.23083340317132 146.21706849094465,234.5794610827602 146.20839242512722,234.25377492283306 146.07958621840328,233.9387669974216 145.8686910820055,233.69316759831096 145.8179694669225,233.57570701593392 145.78593476265954,233.4742637860066 145.77725869700123,233.43688996420735 145.77058480020023,233.24468173847055 145.7732543588888,233.18595144740135 145.89204972053057,232.87628263976484 146.0235254859431,232.5666138315714 146.23375323274828,232.34771001902834 146.46200050062183,232.07541503319104 146.6942521065282,231.80312004655815 146.91649286735245,231.53082506072087 147.23016601318093,231.28522566137158 147.29290064236255,231.24785183957235 147.3589722199049,231.22115625252744 147.42904813555967,231.19979978325748 147.55518478351547,231.14106949218828 147.66263452081034,231.0609827315309 147.7020105114669,231.034287144486 147.83882539417704,230.95953950144445 147.88954700926004,230.92216567964522 148.1271377325436,230.6552098107873 148.32068073746558,230.3402018856145 148.49553683156753,230.07324601675657 146.4313005756236,227.01927087686275 139.33895052974054,209.2293317760112 129.33878368232251,197.819637941262 128.67806790689914,196.43680654065747 128.14816050737528,195.69466922515286 126.60382080587303,194.9311754401396 124.91198798698466,194.28514223726475 124.8138817051806,193.8473346124173 124.61233002419287,193.6070743306043 124.40944356394041,193.3080837577221 124.24593309418536,193.00909318428296 124.20522232418453,192.9503628929751 123.97964461499959,192.68874614189212 123.73738216409058,192.41645115525924 123.4230416284308,192.18152999090296 123.06465337456859,191.98398264818675 122.70359556185868,191.78643530491365 122.38725285726203,191.56219237531167 122.13898389922541,191.30057562351266 121.97013431217152,190.94285475924303 121.9674647535625,190.6171685995546 121.96879953290804,190.2968215569251 121.97680820889296,189.97647451397734 121.98948861274327,189.65612747150695 121.99082339208756,189.13289396862496 121.99082339208756,189.0100942689503 121.9921581713523,188.67906899124824 121.97146909151705,188.3587219490165 121.90539751397347,188.038374906387 121.80328689413531,187.71802786343926 121.68983064995025,187.39234170351213 121.57837657470206,187.07199466080306 121.49428547593226,186.75164761841222 121.39884875281555,186.42596145848512 121.35680320354999,186.3191791107828 121.22399265887273,185.99883206815332 121.04780178526737,185.6784850256829 120.84891966296821,185.39017268707767 120.63735713689707,185.10719946616783 120.40910986902477,184.8188871275626 120.17952782180696,184.5305747894347 119.96596312680018,184.24760156828617 119.72503545507634,183.96462834769457 119.42137315433,183.69767247883664 119.10636522899684,183.4574121964667 118.78868774505715,183.21181279743564 118.47101026127532,182.976891632602 118.15333277725483,182.75798782005893 117.84099441069105,182.52306665546394 117.5513472929802,182.2881454911872 117.51197130224409,182.2614499041423 117.47593225994828,182.2454325518517 117.25435888879619,182.09593726568906 116.93000750821336,181.8556769833191 116.60498873779929,181.62609493602176 116.33536331041189,181.36447818493878 116.14048552606604,181.03879202501165 116.04237924418119,180.71844498206391 115.9669642113084,180.39809793935484 115.88887961966745,180.07775089696398 115.77942771335614,179.74672561926192 115.58188037040127,179.46909151564967 114.33519646283474,178.6682239090759 113.11320597321712,177.93676482880295 111.29924084424793,176.97572370075528 109.18294819395626,175.7530658211473 108.26462000508498,175.18711937940716 106.65554350546425,174.29014766020364 105.63110035872195,173.61741887028387 104.89163260198548,173.17427212821838 103.18444982064027,172.3680654041083 101.73554684249217,171.82347543163814 99.98898807048917,169.92274964560835 99.06932510219404,169.15925586083378 97.92875615249854,168.02202385926034 96.86360223583496,166.99691332292545 95.09168265620966,165.21364811903405 93.52798865437681,163.54784349704232 92.8465837991157,162.84841912087322 91.67931926261397,161.6951697673274 91.12405105538947,160.58463335303753 90.18570117627429,159.16442813039512 90.05756235922249,158.6572119794855 89.9594560774172,158.3422040543127 89.8713606407724,158.0271961291399 89.78326520405052,157.71218820372843 89.6304329690498,157.4719279221541 89.25669475264995,157.2423458748567 88.9430216068202,157.00742471002306 88.82289146575582,156.93267706666327 88.46583799123664,156.6710603155803 88.23625594401882,156.37206974214118 88.04204554942469,156.06240093426598 87.86385250696077,155.7847668308924 87.69633769917411,155.49111537498956 87.62025527662915,155.3309418535157 87.60090097605739,155.27755068022145 87.58288145490948,155.22949862366792 87.52148160507217,155.0693251024327 87.39934929506965,154.75431717702125 87.24251272219519,154.47134395587273 87.19112371744004,154.34320513921872 87.0716609660453,154.02819721380723 87.03562192383029,153.92675398340253 87.01026111620922,153.80929340150286 86.69925752898973,153.9000583965963 86.23608909668035,153.86802369257205 85.7755902227413,153.61708517568647 85.59939934929507,153.28072078076636 85.54801034453992,153.07249520321628 85.38383248527185,152.81087845165595 85.27304579969581,152.63468757813015 84.45616084099055,151.79644615031407 83.87219487786382,150.89947443055362 82.95853841669631,150.30149328455053 82.30316175865134,149.62342537765142 81.23400350379578,148.83857512328865 80.4011011930386,148.3954283809845 78.8981396512889,147.94160340360776 76.75648619337616,147.28489196621726 77.5139734713401,146.33986819046018 77.66346875782098,146.20105113905186 77.84967047634937,145.92875615241897 78.79002252440144,144.78618503362748 79.14574121965462,144.09743889197404 79.59222491031952,143.483440393919 79.88187202803037,142.97622424316853 80.08342370909766,142.5704513224249 80.20288646033202,142.28747810127638 80.29365145574373,142.0472178192247 80.33302744640152,141.59873195962294 80.33436222582412,140.52023024967556 79.92391757737549,139.12138149654177 79.74038541753566,138.44865270741758 79.63560523900892,137.9894886127433 79.38533411195462,136.5639442731215 79.08968048719446,135.49612079768977 78.67589889054423,134.0545591060161 78.40961041135844,133.62209059838668 74.21106198389536,134.1186285143033 73.81596729798562,134.1239676316009 73.69850671568814,134.1239676316009 72.0874280472101,134.1239676316009 71.76708100442146,134.1346458663552 69.62008842913156,134.1239676316009 67.41836990072579,133.99048969717194 66.47534829406472,132.31400684066458 66.41461583397908,132.02569450253668 66.29982481021106,131.64661716851975 66.25978142988237,131.449069825724 66.25644448152165,131.31559189129504 66.25644448152165,130.97388837939556 66.19104029373102,130.78168015357917 66.04287978643531,130.53608075430944 65.95278218077532,130.3919245850466 65.78927171102028,130.20505547684607 65.68983064995025,130.11429048143435 65.52632018019521,129.9701343120124 65.30674897813913,129.83131726060407 65.14857762576123,129.6711437391302 65.09251689330108,129.55902227397118 64.71277217000979,129.23867523181903 64.53524651706014,129.11587553214437 64.31567531492574,128.90231083658068 64.15483440401715,128.74213731534547 63.77375490114291,128.36305998188547 63.3439559523612,127.96796529557793 63.17176941694783,127.83982647892392 62.97755902243325,127.7170267790106 62.708600984479325,127.57287061006599 62.35354967889828,127.35396679752293 61.78092934019802,126.96421122875168 61.561358137982815,126.82539417726379 61.239008926336865,126.56377742546478 60.741136230995146,126.15266538766225 60.63702344206224,126.05656127479384 60.44147826828292,125.88570951880432 60.24993743221824,125.70417952806048 59.68532576958371,125.19162425961458 59.525819637941105,125.05280720788802 58.93784933686107,124.53491282222407 58.46533744898254,124.09710519713795 57.28672728797478,123.38166346867825 57.12989071494243,123.25886376900361 56.42846416951698,123.1787770084258 55.795778760403245,123.01860348695192 55.48811212146492,122.92249937432219 55.023608909731685,122.82105614439484 54.459664636689745,122.7730040878413 54.330858429965794,122.76766497062326 53.610077584128945,122.67156085775484 53.20096771502461,122.58079586210448 51.411028614332196,122.07357971119485 50.730958538575734,121.97213648126751 50.68290648202219,121.94544089454084 50.27446400274912,121.76391090379701 50.1776925002098,121.71051972970719 50.130307833645396,121.68916326043723 49.72320013355749,121.53432885618139 49.56502878117961,121.43822474355166 49.48827896888296,121.40619003905003 49.22466004838451,121.32076416117461 49.1212146492033,121.28872945715032 49.08317343797061,121.27271210462106 49.0257779260866,121.2513556353511 48.932343371987564,121.16592975747568 48.890297822641195,121.1392341701921 48.530574789355136,120.97372153197753 48.46650538090879,120.94702594493262 48.24359723041242,120.88829565386344 48.164177859347625,120.87227830133416 48.085425878034535,120.87227830133416 48.00600650704931,120.87761741910911 47.924584967047636,120.89897388861776 47.77041795286174,120.93634771017831 47.6923333612208,120.94702594493262 47.618253107533164,120.95770417944826 47.39134061900516,120.95770417944826 47.314590806786825,120.94702594493262 47.234504046049885,120.93100859264203 47.15775423375323,120.90431300583579 46.78134645874311,120.71210478009897 46.453658129720004,120.5038792025489 46.15266538758269,120.2742971554902 45.8990573120881,120.02335863844552 45.73821640110119,119.83115041318604 45.67147743388671,119.75640276958758 45.6347710019983,119.72970718278134 45.58605155593173,119.70835071327271 45.49461917076833,119.18511721031118 44.81187953624374,116.40343705705023 44.65504296321014,113.64311337290012 44.250604821969944,109.60674063592734 43.9649620422124,105.79994994561547 43.938266455406165,105.11120380420068 43.85884708434137,102.99691332260721 22.71193793276049,89.05113873386678 20.199883206807375,87.34796029039407 15.759739718186982,82.85242345858786 11.743388671139874,78.19671310586469 11.793442896550737,73.7278718611034 4.554934512388421,70.94085259038573 0.8696087428842642,69.41920413805464 0.021356469508634353,69.12021356469509 0,69.02410945206535 0.14015183115041294,68.89063151763638 0.39109034795518255,68.6343538832941 0.48319012263285227,68.5435888878824 0.9143238509179673,68.37273713221111 1.388837907733378,68.1164594981075 1.7719195796240657,67.89221656778949 2.1503295237301807,67.67331275548511 2.3518812046383584,67.5344957038381 2.538082923246323,67.39567865187286 2.7296237590723282,67.18745307408412 2.886460332026362,66.82439309235778 3.0025861349783183,66.49336781537174 3.093351130391257,66.01818636880462 3.1367314590806705,65.79928255626156 3.1187119379327606,65.60707433044517 3.071327271210478,65.53232668740364 2.8991407357971135,65.36147493141412 2.6121631769339575,65.062484357975 2.5180612330024195,64.79552848911707 2.3879202470137377,64.30432969073672 2.3879202470137377,64.17085175630775 2.4973721531659296,64.06406940868501 2.670893467922341,63.9786435308096 2.904479853174272,63.951947943764694 3.083340285388644,63.9786435308096 3.286894135313256,64.04271293909683 3.5498456661383164,64.24026028189257 3.854842746308501,64.39509468583017 4.087094352216143,64.38441645107586 4.273296070822864,64.35772086450831 4.5909735547638,64.23492116491322 4.95803787444221,64.01601735237016 5.181613414691528,63.96262617828033 5.805622757987821,63.818470009335726 5.990489697171936,63.74906148351222 6.38091265545746,63.642279135809936 6.583799115708684,63.62626178383758 6.869441895386669,63.63160090081694 7.061650120964378,63.642279135809936 7.229164928672729,63.717026778931036 7.313256027362977,63.791774422290814 7.287895219901032,63.96262617828033 7.263201801952115,64.36839909934218 7.2251605906398595,64.56060732484033 7.296571285559356,64.74213731558416 7.397347126053225,64.89697171928309 7.594894469087651,64.97171936288154 7.7864353049124135,65.0197714191964 7.9419370985234,65.0090931844421 8.193543004921999,64.91832818879172 8.77617418870443,64.72611996329357 9.135897222149607,64.63001585042515 9.615750396262618,64.52857262025914 10.074914490777816,64.41645115565704 10.308500876028504,64.41111203788209 10.652873946855232,64.38975556861213 11.397680820968855,64.30966880795475 11.779427713356135,64.22424293007934 12.16184199549512,63.88787853492055 12.410778343284697,63.7650788352459 12.764494869441895,63.70634854417672 13.16492867272879,63.679652957609164 13.547342954867773,63.60490531401071 13.929089847414172,63.4660882623637 14.398264786852424,63.19913239350577 14.776007341286393,63.10302828087603 15.19579544506673,63.02294152021866 15.893217652614704,62.91615917235725 16.264953699921055,62.90548093760293 16.60932677074778,62.878785351035376 16.896304329690498,62.755985651360724 17.1732710436306,62.462334195537444 17.51897889380162,62.20605656143383 17.958788687743812,61.91774422298771 18.6568782848881,61.55468424150004 18.668223909314563,61.38917160256945 18.62217402193657,60.96204221223765 18.58279803120047,60.61499958304057 18.6094936180875,60.27863518835914 18.678234754396737,59.95828814541139 18.823725702924307,59.61124551621432 18.907816801534995,59.290898473266566 18.906482022270264,58.93317760899694 18.86977559022274,58.682239092190926 18.83373654800648,58.36189205003877 18.849086510385007,58.014849420046104 18.864436472845583,57.94544089446128 18.878451656040184,57.84399766405659 18.895136397843803,57.51831150412947 18.971886210060898,57.1712688749324 18.997247017603645,56.85092183198465 19.037957787603236,56.51989655452126 19.039292567027086,56.354383915829345 19.037957787603236,56.16751480778791 19.002586134979563,55.809793943597846 19.019938266454083,55.494786018425046 19.043296904980394,55.179778093013574 18.994577458993383,54.864770167840774 18.93718194710937,54.475014599308196 18.96521231333945,54.378910486439786 18.990573120960512,54.33085843012491 19.022607825223464,54.28814549078941 19.06465337448903,54.24543255201082 19.21548344039376,54.10661550004558 19.46441978810378,53.83432051420829 19.706682239171908,53.551347292821085 19.748727788437474,53.513973471260535 20.039709685492618,53.236339367648284 20.07374655885156,53.19362642855146 20.10444648369191,53.14557437247527 20.131142070735574,53.102861433219324 20.189872361726444,52.95870526427472 20.20255276557551,52.905314090184895 20.207891882952673,52.787853508046524 20.197881037950058,52.729123216977335 20.04438141319763,52.39275882197767 20.003670643196795,52.3500458829604 19.95762075589836,52.31267206139985 19.599232501877033,52.07775089704355 19.324935346625512,51.986985901472735 19.256194210474153,51.95495119744846 19.224159506209958,51.93359472786027 19.19345958121298,51.906899140815355 19.165429214982897,51.88020355408868 19.007257862764135,51.70401268032421 18.717610745053282,51.46375239827252 18.545424209639915,51.35163093335218 18.313172603653957,51.09001418226921 18.161675148156643,50.92984066055666 18.12363393676483,50.871110369726146 18.01618419962907,50.54008509202408 17.919412697089754,50.209059815038046 17.90673229331776,49.86735630289989 17.98548427463085,49.55234837772709 18.142320847584884,49.25869692182425 18.356552932422932,48.98640193543005 18.58279803120047,48.71944606657212 18.860432134812715,48.45249019771419 18.895136397843803,48.4097772589356 18.91916242596146,48.36172520262073 18.943855843830818,48.2389255027074 18.93584716776508,48.19621256384926 18.895136397843803,48.05739551196357 18.86310169366041,47.98264786860379 19.058646867439727,47.73170935203646 19.320263618920496,47.502127304659524 19.698673563026613,47.35797113547624 19.753399516142487,47.3526320182582 20.17452239934543,47.245849670635465 20.45549345123884,47.09101526661831 20.53558021197578,47.032284975310446 20.813881705260172,46.797363811033705 21.090848419120714,46.51439058988518 21.284391424042713,46.19938266471238 21.40318678576405,45.88437473953959 21.425878034616975,45.84700091774036 21.455243180111786,45.81496621371608 21.488612663719028,45.777592391916855 21.527988654375573,45.75089680511062 21.61474931183396,45.6975056310208 21.967131058645624,45.483940936252694 22.260115124796762,45.216985067394766 22.496371068658956,44.939350963782516 22.665888045462058,44.75248185526373 22.907483106698923,44.48018686942644 22.95820472178193,44.41077834304602 22.988904646780153,44.37340452148547 23.016935013010233,44.34670893499747 23.211812797276522,43.55118044540305 23.338616834984037,43.63660632351714 23.456744806953672,43.69533661458633 23.831817802619504,43.8715274883508 24.230249436889963,44.07441394836459 24.35905564361267,44.11712688738186 24.816884958705263,44.213231000568506 25.212647034366704,44.37340452148547 25.65512638691916,44.53891716049562 25.854008509377437,44.6136648038554 25.896054058563443,44.640360390343396 26.03019938274411,44.70442979894886 26.068240593976807,44.73646450345049 26.1029448570079,44.77383832477236 26.170351213894524,44.843246850914106 26.206390256110787,44.875281554938375 26.24576624676733,44.90197714198329 26.283807458079586,44.92333361125325 26.36055727037624,44.96070743305248 26.52473512972387,45.035455076412255 26.620839242592282,45.067489780436524 26.70226078251439,45.09952448493816 27.003253524731264,45.249019771419036 27.342954867851738,45.441227996917185 27.385000417118544,45.4572453489691 27.78009510302828,45.601401518152386 28.16050721623039,45.73487945258135 28.360724117873836,45.8256444484704 28.423458747135008,45.857679152256 28.480854258780344,45.88971385675762 28.530241094519063,45.932426795854454 28.562275798861574,45.975139734633046 28.596980061733543,46.32218236438703 28.60165178943856,46.658546758829786 28.62834737640391,46.813381162767385 28.671727705093325,46.95753733218935 28.89530324526184,47.32059731367701 28.92600317010094,47.363310252773836 29.04212897305414,47.47009260015789 29.085509301743556,47.502127304659524 29.13489613756183,47.523483774247715 29.234337198711412,47.56619671302631 29.290397931171576,47.5822140653169 29.474597480763105,47.619587887116126 29.775590222741304,47.667639943431 29.896387753479075,47.678318177946636 30.264119462832117,47.68365729572159 30.326854091932926,47.678318177946636 30.412279969967464,47.656961708676675 30.519062317590194,47.55017936129263 30.622507716693086,47.47009260015789 30.68857929423542,47.438057896133614 30.761324768499207,47.41136230908871 31.207808459243655,47.37398848752816 31.622924835238173,47.33661466572893 32.029365145574374,47.24051055309919 32.3737382164011,47.032284975310446 32.70342871444064,46.813381162767385 32.7861850337866,46.77066822398879 33.1932927338745,46.63719028955983 33.58838741978424,46.49303412061523 33.843330274464,46.42896471177109 33.88804538249771,46.423625594473485 34.317176941766384,46.45032118127972 34.7916909985818,46.498373237594585 34.86910820063016,46.503712355130865 34.94185367481438,46.52506882440082 35.005923083340285,46.55176441168441 35.05797947784714,46.59447735070168 35.14607491457026,46.67990322833842 35.19079002260396,46.71193793291961 35.2428464169517,46.73329440242824 35.30291148752429,46.74931175471884 35.37031784433136,46.76532910645252 35.43972637023442,46.77066822398879 35.51247184457777,46.759989989473155 35.732710436306,46.701259698085735 35.84016017352131,46.64786852431415 35.9048969717206,46.61049470251492 36.114457328852396,46.42896471177109 36.38475014599149,46.172687077667476 36.45215650287812,46.10327855184397 36.5849670476337,46.00183532143928 36.62234086927505,45.98581796938736 36.66572119812358,45.969800617415004 36.71110369567031,45.959122382899366 36.755818803702766,45.959122382899366 36.96804871944607,45.969800617415004 37.06615500141047,45.7829315091349 37.20630683240177,45.382497705848 37.405188954780485,44.97138566780679 37.47526487027489,44.84858596813214 37.58538416618003,44.73112538599377 37.67081004429412,44.656377742395314 37.770251105364146,44.602986569021525 37.92308334028531,44.56027362976558 38.05589388512169,44.59230833426721 38.129974138650205,44.619003920834764 38.22541086176692,44.67239509492459 38.33553015767081,44.720447151239455 38.443647284637834,44.74714273828437 38.538416618082394,44.73646450345049 38.64386418628128,44.66705597714963 38.698590139317595,44.602986569021525 38.75398348210562,44.50154333869639 38.78668557604071,44.426795695336615 38.81004421456578,44.32001334795256 38.788020355385,44.2399265870565 38.70926837407191,44.12246600467946 38.63785767915242,44.02636189204972 38.55576874955816,43.91424042712939 38.474347209478175,43.81279719728161 38.36956703095019,43.64728455827146 38.293484608405244,43.53516309358981 38.156669725536,43.3429548676143 38.05322432635355,43.19879869843102 37.99449403528436,43.10803370333756 37.87236172528186,42.88912989103318 37.84566613831651,42.73963460407494 37.87102694593757,42.547426378815466 37.9244181196296,42.429965796358864 38.01785267372988,42.3018269792275 38.12463502127304,42.20038374930016 38.266121631847305,42.12563610601994 38.40427129390173,42.072244931930115 38.534412280130326,42.01885375831765 38.61583382004995,41.96546258454607 38.70392925669475,41.90673229347688 38.80203553850004,41.80528906307219 38.93618086260115,41.63443730708267 38.994911153829456,41.549011428968576 39.07499791440728,41.46358555085448 39.14507383006328,41.37815967297906 39.25986485359139,41.25002085608637 39.32393426219685,41.175273212726594 39.42604488195545,41.057812630588224 39.50746642203668,40.94035204789294 39.589555351710494,40.7748394094397 39.63160090097606,40.65203970952638 39.64428130474681,40.53991824460604 39.64428130474681,40.42245766246767 39.63627262868107,40.32635354983794 39.665637774255444,40.219571202453885 39.77709184950363,40.05405856368241 39.83648953032452,39.979310920083954 39.891882873112536,39.93659798106668 40.089430216067406,39.81913739916699 40.154167014265454,39.771085342613446 40.35104696762774,39.60023358662393 40.638024526570454,39.34395595252032 40.70142654550377,39.27988654367618 40.894302160674066,39.08767831817803 41.087177776081795,38.906148327434195 41.384166180028366,38.649870693091906 41.68649370158953,38.38291482423397 42.06290147659965,38.180028364220185 42.48402435972303,38.05722866454553 42.908484191207144,37.93442896463221 43.083340285388644,37.83832485200247 43.42637857679152,37.66213397871536 43.818136314340535,37.475264870514806 44.172520230329,37.2937348795323 44.20855927254526,37.25636105797175 44.303995995661964,37.07483106722792 44.33736547926921,37.042796362646726 44.379411028693895,37.01076165838378 44.749144906982565,36.82389255034234 45.16025694502253,36.64236255935983 45.51731041962125,36.47684992066792 45.909068157329386,36.28464169516977 46.31217151914574,36.1511637607408 46.7306248436601,36.07107700040166 46.77267039292567,36.065737882626706 46.88212229923698,36.06039876556778 47.03161758579742,36.10845082164398 47.08167181120828,36.11378993894157 47.131058646947,36.11378993894157 47.17710853440455,36.10845082164398 47.224493200967714,36.09243346967162 47.45874697597011,36.001668474021244 47.500792525235674,35.97497288721501 47.53816634695534,35.95361641770638 47.57353799949946,35.926920831138816 47.62225744556603,35.873529657367236 47.64895303253138,35.83081671803173 47.73838324859879,35.60123467073435 47.76374405606073,35.56919996671007 47.797113539667976,35.537165262685804 48.02536080754026,35.376991741211924 48.37774255451353,35.19012263269314 48.82889797296299,35.088679402765806 48.890297822641195,35.083340285309085 48.95303245182281,35.0940185200634 49.265370818386586,35.15808792866886 49.32677066822391,35.163427045886905 49.384166180107925,35.163427045886905 49.440226912568086,35.15274881113259 49.49495286568396,35.13139234162395 49.54834403937599,35.09935763759968 49.5930591474097,35.06732293301849 49.633769917490085,35.03528822899422 49.66446984232919,34.99257529013607 49.77792608667337,34.78434971242688 49.84199549511971,34.69892383431279 50.16701426545424,34.458663552420205 50.46200050062181,34.22908150488415 50.55276549603475,34.1116209225071 50.57145240677401,34.063568866192234 50.58413281054476,34.02085592733408 50.592141486610494,33.97280387078054 50.627513139232924,33.636439476099106 50.64553266046164,33.593726537320514 50.674897806036014,33.556352715521285 50.71560857595729,33.52965712847638 50.758988904645456,33.50830065920642 51.10603153416201,33.300075081417674 51.16876616342318,33.230666555594176 51.35897221998446,32.93701509993001 51.49245015441466,32.595311587473624 51.49511971302368,32.54725953115876 51.48644364736412,32.50454659206193 51.41503295252418,32.30166013180946 51.407024276299325,32.25894719303087 51.407024276299325,32.210895136716 51.443063318595144,31.949278384837434 51.439058980561036,31.901226328522565 51.41503295252418,31.85317427196902 51.174772670472485,31.58621840311109 50.91115374989572,31.27654959571325 50.65554350546425,30.977559022512807 50.634187035954376,30.94018520071358 50.612163176854395,30.865437557672035 50.61883707357585,30.801368149066572 50.639526153332774,30.74797697497675 50.66221740226526,30.71060315365488 50.69158254783963,30.67322933185565 50.724952031446875,30.646533745128973 50.76299324276037,30.625177275302104 50.80637357136899,30.60382080579347 51.19145741227611,30.47568198913946 51.290898473425685,30.448986402094548 51.329607074410085,30.427629932585912 51.7080170185162,30.267456411350715 52.08842913155919,30.128639359146796 52.4861933761575,30.016517894465142 52.88329023124279,29.88303996003618 53.28372403452968,29.781596729949726 53.50196045716193,29.7282055558599 53.56069074839023,29.70684908635127 53.612747142737966,29.685492617081312 53.647451405689495,29.6587970300364 53.66747309601296,29.31709351781869 53.68816217576989,29.26904146150382 53.71485776257612,29.23166763994327 53.75556853265652,29.183615583389727 53.87302911495401,29.071494118708074 53.90906815717027,29.0447985319814 53.969800617335444,28.991407357891575 54.31951280553933,28.7564861932966 54.625844665053805,28.63902561091955 54.73062484358054,28.468173854930036 54.819387669975804,28.286643864186203 55.13239342621297,28.13180946048728 55.46008175523484,27.896888295653625 55.808459164173996,27.677984483110563 56.19220822565727,27.421706849006952 56.58396596312672,27.22415950629076 56.627346291817375,27.213481271456885 56.66939184124082,27.208142154000168 56.74614165345791,27.202803036702566 56.82622841419485,27.213481271456885 56.91165429214983,27.240176858501794 56.95770417952782,27.245515975799396 57.00508884625135,27.250855093256114 57.05180612330024,27.245515975799396 57.139901560024605,27.218820388754484 57.49361808633967,27.047968632526292 57.66713940101777,26.930508050626596 59.69533661474545,23.727037624331444 59.73738216401101,23.6789855677779 59.81880370401268,23.518812046304024 59.95027946950477,23.214482355885544 59.98765329106532,23.161091182034397 60.02836406114696,23.12371736079208 60.364061066155,22.88345707842215 60.446817385580516,22.79803120054673 60.47084341369818,22.733961792259507 60.47484775189016,22.675231500872084 60.47484775189016,22.568449153488032 60.506882456073555,22.499040627187174 60.561608409109866,22.445649453813385 60.627679986652204,22.413614749311755 60.7017602403386,22.392258280041798 60.77317093525934,22.38158004528748 60.83857512304997,22.36022357546061 60.89730541427827,22.333527988972612 60.944022691248854,22.290815049637107 60.977392174857336,22.226745641031645 63.871861183027754,19.162092266463056 64.17151914582202,18.927171102106755 64.41378159672979,18.660215233248827 64.73412863943886,18.398598481688495 64.97171936264286,18.11028614356061 65.16392758822057,17.81129557012149 65.19596229256308,17.784599983633495 65.58104613331109,17.54967881879984 65.94610828405386,17.35213147576541 66.2944856928339,17.175940602557855 68.17118545098471,16.166847418195324 73.43422040543922,12.199883206886934 73.77859347626595,12.029031450897419 74.10895136397764,11.820805872869997 74.41928756152498,11.607241178101889 74.77233669816916,11.399015600313145 75.1654292149829,11.217485609569312 75.5211479102361,11.03595561882548 75.86485359139067,10.817051806282418 76.19387669975806,10.598147993739357 76.58029532000948,10.416618002995524 76.76516225911404,10.341870359635745 76.88996412780513,10.267122716275965 77.21431550854706,10.064236256023499 77.60473846667223,9.8987236174907 78.06790689914074,9.834654208964798 78.11262200717444,9.82397597421048 78.15800450488028,9.807958621919886 78.19938266463282,9.786602152649928 78.54242095611527,9.573037457086231 78.86877450571453,9.375490114608718 79.4580795862184,8.473179277630239 79.53082506048219,8.152832235159842 79.5294902811379,8.030032535485194 79.70568115466244,7.736381079661912 79.73237674146992,7.68298990557209 79.74772670392926,7.624259614741582 79.75773754901019,7.5601902058974435 79.74505714532023,7.501459914828258 79.71302244097772,7.44806874121579 79.67631600900977,7.410694919416562 79.58087928589305,7.351964628586053 79.57287060990687,7.309251689568785 79.53215983982648,7.17577375513982 79.4847751731042,6.860765829728345 79.58421623433209,6.524401434967354 79.70434637523984,6.20939350955588 79.71102027204086,6.1666805705386105 79.71702677909015,5.851672645365813 79.57820972728403,5.520647367902422 79.34862767998665,5.221656795020218 79.32927337949445,5.17894385592339 79.31792775506798,5.130891799369844 79.31792775506798,5.088178860591253 79.32526904146158,5.040126804276385 79.44673396179194,4.698423291819998 79.81179611253472,4.084424793764997 80.07941937114435,3.8441645116337426 80.33703178443314,3.582547760073413 80.65470926837283,3.3583048304714294 80.9530324518228,3.0806707268591826 81.50830065912686,2.5520981064409236 81.73921748561065,2.3812463502127303 82.25577709184951,2.023525486181782 82.79636272628682,1.660465504216762 84.00700759155752,0.9770584803382579 86.11595895553516,0 90.39058980578187,1.7085175607703074 96.66605489280053,7.5174772673575285 97.45424209560481,9.829315091189843 99.95962292483524,11.281555017856538 111.44339701343122,12.920664052803343 123.57120213564696,18.25444231274389 124.03970968549261,18.409276716442815 124.76783181780262,18.804371402432107Z"/></svg>