<svg xmlns="http://www.w3.org/2000/svg" width="256" height="256"><path d="M68.31500694535566,0.3567605234389979 72.58686671704123,3.3035097799871553 76.55756500821461,8.427888204866619 76.87146793598508,8.849514277638935 79.28307640803064,10.619417133290996 79.86454972829407,11.008610431293093 82.90628068286193,16.49901588601808 83.4773291827794,17.18937066487758 83.66613426487939,17.661962526821103 83.85957260052784,17.958490753991963 85.16383347435196,19.404065860906204 85.98044441226908,19.95542303317365 87.0020768197058,20.84037446099968 88.39668613779405,21.956988566041883 89.1252652584284,22.809507219097693 89.51214192958722,23.48596223738084 90.36466058257399,24.37554691841013 90.60443145363806,24.917637583787766 90.76543701451628,25.371696431537423 91.23223730945519,25.93232011083276 91.64228024849442,26.682907185546156 92.15772970576126,27.975584925568146 92.87704231916058,29.203397116118733 93.53728094981697,30.2922116998011 94.68632782983653,31.83508513150929 97.137318956975,35.99574681823881 100.39681282832076,40.920895339981904 102.8732868499758,46.490066105237936 104.08604096635578,48.75109383702738 106.42235906816973,53.31484858212823 106.57293980842583,56.335729895728 107.4567329227957,63.45704059978915 107.47526593698956,66.03312957294332 107.6999787341592,66.90881449325818 107.78337729803158,67.76133314631399 107.91079177054536,68.23855826194405 108.2582857866803,68.69261710969371 108.05673925732204,69.0586441398154 107.9953486478739,69.4617371988081 108.0578975707782,69.92506255365468 110.8424829534062,70.41618742958495 112.62976050965788,70.33278886564352 113.71625846677314,70.3188891052743 114.63827592291787,70.05016039946327 115.96917800485278,69.91116279266409 118.1271158449127,69.61926781938689 120.20976331501717,69.33200609910585 121.42715068487658,68.75284940554761 122.61558021998906,67.84936496394197 122.9700241164467,68.15979295141301 123.39975838306691,68.46558768588793 124.07621340121197,68.77601567363514 124.7700431200257,69.02157811156576 125.4302817506821,69.23934102848173 126.04071290576152,69.49416997357832 126.50172163376483,69.73973241171605 127.4596468049792,70.09649293494793 127.72490057062888,70.64321685352883 127.97277963540276,70.78684771360031 128.0920859143448,71.3335716321812 129.01873662403798,72.20462329922375 129.6627588672057,72.68184841485383 130.5546601752854,73.28880462949574 132.618774631196,74.36371945287792 136.48869965748312,75.97609168774405 132.84117080152237,81.70279307357887 133.99485093509037,83.52829497188156 135.5319327997249,87.35999565625576 136.09139816570217,88.43491047963794 136.7944943917509,89.40326047119827 136.8188189729494,89.45885951405602 137.1605214220797,90.25577912404695 137.12345539362295,91.1870630876338 136.98909104071743,92.20637886815823 137.32500192305025,93.4388243121192 137.43967494837477,93.72145277850657 137.49643230427444,93.91141617406272 137.5427648398972,94.13381234438909 137.63427159741036,94.38400803579913 137.79875209831184,94.66200324898324 137.9470162119318,94.94463171537062 138.08022225138114,95.227260181758 138.17752057589894,95.47282261996477 138.3338928832287,95.60255371897662 138.62926279687437,95.7786173539564 138.85976716097957,95.98711376377545 139.06478863043017,96.24657596228242 139.19336141653818,96.5292044286698 139.27560166688536,96.70990131712901 139.37753324495162,96.9786300232162 139.4864147034096,97.26125848960358 139.5871879680197,97.54388695599096 139.6115125492182,97.57631973076118 139.68332797915036,97.66898480159242 139.80495088486663,97.88674771864648 139.82811715253993,97.91918049320958 140.03893018899512,98.17400943830616 140.24742659867607,98.428838383817 140.3644162508439,98.58636900439579 140.40379890600585,98.77169914605827 140.4142237264899,98.8041319210356 140.54395482584695,99.08676038742298 140.72117677400672,99.33232282542264 140.81500015850125,99.55471899595612 140.80225871110488,99.64738406678735 140.78835895045947,99.67981684155758 140.71306858036596,99.96244530815208 140.70148544642575,100.18484147847845 140.7061186999742,100.24507377453946 140.81615847175027,100.52770224113397 140.9655808986883,100.77326467913362 141.14743610053463,101.0188271173404 141.32697467546865,101.2551230483812 141.52504626466555,101.4914189790768 141.9061313690269,101.97327734811725 142.10304464490574,102.21420653263748 142.30227454742072,102.45050246374731 142.49223794290782,102.7099646622543 142.6462936233943,102.964793607558 142.69610109910937,103.01112614331882 142.72737556049248,103.03429241071595 142.7852912298483,103.08525819995619 142.80498255742927,103.11769097493354 142.89417268830627,103.2427888207421 142.92544714968938,103.27058834161866 143.05401993572835,103.38178642685088 143.07371126337839,103.41421920182823 143.11656885863263,103.50688427293564 143.1235187388863,103.56248331551723 143.1385768129188,103.61808235775361 143.15595151372557,103.79877924641994 143.22660863040872,103.937776853012 143.42583853299274,104.16480627654163 143.60306048122158,104.41963522184533 143.74784965461112,104.66983091325537 143.9053802751899,104.92465985855908 144.08839379035433,105.1841220574803 144.32353140800802,105.39261846702317 144.60268493430308,105.5779486089618 144.88647171407757,105.77254525813547 145.1007596908322,106.00884118883106 145.28608983263277,106.18953807749739 145.31620598076682,106.20807109148413 145.34748044214993,106.23123735936454 145.41118767844134,106.26367013413477 145.44825370696717,106.26367013413477 145.4841614218297,106.25903688044822 145.5617684187665,106.25440362724495 145.59883444715422,106.25903688044822 145.63474216222386,106.2729366412317 145.99613593893517,106.37950147284641 146.03551859416618,106.3841347262568 146.37027116297378,106.37950147284641 146.71892349249586,106.34243544459677 146.99228545192437,106.31000266961942 147.22742306950903,106.29146965521844 147.585341906128,106.30073616231537 147.9722185774249,106.38876797994335 148.34172054784602,106.48143305077458 148.4065860975936,106.51849907943847 148.47260996065924,106.52776558653541 150.92823434127712,106.04127396380841 153.01435675154295,106.51849907943847 152.9622326491227,107.28298591465918 153.61320477268217,108.45519906276627 154.11822940939592,109.56717991412192 154.71476080389897,111.35561578376073 155.54179656216206,113.81587341827229 156.3780988277292,114.64985905685806 157.45996353129598,115.9425367969491 158.58931908373455,117.36957888966948 159.44183773658324,118.88001954681457 160.075435159405,119.63523987493835 160.78084801215894,120.42289297803947 161.07853455257884,121.14104727818977 161.398229047492,121.67387143619432 162.05499273798705,122.61905516035752 162.27738890831344,123.59667165901479 162.66774051977168,124.55575514368532 163.04303405712838,125.1627113581201 163.526050739625,125.56117116342625 164.15038165521173,126.39979005597475 165.2658374470049,127.37277330073834 166.0673903108895,128.0492283190215 166.19480478354134,128.41988860303684 166.23187081186003,128.52645343465156 166.93380872452167,130.31488930429038 167.78516906398323,131.2878725492611 168.5369144522909,132.2932885694853 168.8913583486795,132.75198067085248 169.25043549875463,133.34503712477994 169.70912760005274,134.06319142493024 170.10642909176465,134.68404740056275 170.6137703553217,135.24467107992714 171.01686341410726,135.68019691320677 171.84042423227802,136.4076177202469 172.88869784761843,137.19063757014473 173.56631117921967,137.7836940242103 174.68524191110515,138.3535842106716 175.33158078111614,138.91884114392965 175.58756803966887,139.39606625907643 175.65590852950876,139.48873133039095 177.22542316898253,141.36519901717443 177.9748519304469,141.6246612161647 184.71855247030808,139.56749664043872 188.11936057481302,137.55666460026643 190.57614326888708,136.30568614252584 193.2981797286108,136.17132178962032 193.21593947812553,135.8840600695464 193.14875730167276,135.6848301668933 193.1441240481243,135.41610146122036 193.1302242874789,135.38366868624303 193.1082163331237,135.2910036152047 193.09663319932156,135.10104021964852 193.0746252448973,135.04080792358752 193.37926166570895,134.9944753880338 193.7557135165218,134.92960983849338 193.8043626787807,134.91571007798606 193.92946052458927,134.86474428902198 194.2422051392488,134.70258041454952 194.2804294809546,134.68404740056275 194.31981213604752,134.67478089346582 194.3568781645043,134.6655143863689 194.61170710960087,134.66088113247523 194.96730931944563,134.66088113247523 195.01595848170453,134.6562478789958 195.05997439041496,134.6516146255854 195.24530453242264,134.5728493152615 195.43063467429224,134.52188352609028 195.52909131226616,134.4987172586241 196.32137766905385,134.11879046751184 196.38045165172775,134.0585581712437 196.41635936672836,133.79909597273672 196.41288442663605,133.48403473137202 196.40014297930873,133.42380243524195 196.3596020108287,133.33113736441072 196.34570225018328,133.294071336023 196.34454393672712,132.97901009465826 196.4684834691486,132.69174837437723 196.48701648334244,132.659315599607 196.66771337173262,132.49715172554878 196.69203795286208,132.4739854579445 196.9468668980277,132.33498785135245 196.98045798625407,132.321088090569 197.2955192276188,132.18209048439118 197.4090339394872,132.09869192024263 197.45884141513318,132.0523593849651 197.47621611593993,132.01992661019486 197.4877992498111,131.98749383521752 197.55729805310713,131.87166249650588 197.58857251449024,131.78826393277157 197.6684961382703,131.66316608696297 197.69166240601263,131.63073331198564 197.75073638875557,131.58903403011848 198.03104822836872,131.3944373808758 198.1190800457896,131.3434715919117 198.4364579138595,131.16740795713906 198.75731072209075,130.99597757577678 198.7920601237733,130.98207781520043 198.82565121199966,130.97281130789636 198.86155892693125,130.9681780546931 199.17082860129133,130.85697996918472 199.2102112564533,130.84308020888452 199.2994013873303,130.82918044810103 199.4685151418493,130.7921144198514 199.54612213878613,130.76431489835346 199.58434648056095,130.74578188436672 199.66195347749778,130.72724887017287 207.08442566214015,128.22529195379414 207.20489025440028,128.33649003909542 207.4319196782751,128.5681527165187 207.67516548950053,128.77201587237505 207.94968576224713,128.96197926793118 208.24505567596182,129.13340964929347 208.53463402274096,129.30484003086286 208.8612783979078,129.4716371585386 209.19255602669216,129.62453452563798 209.22730542830564,129.6430675399009 209.26089651653203,129.666233807298 209.29912085830688,129.6894000749713 209.41495219701852,129.74499911782905 209.49719244750378,129.77743189259928 209.5377334159838,129.7866983996962 209.62460692001756,129.79596490658602 209.86901104476817,129.7913316531066 209.90607707308686,129.77743189259928 209.93387659437767,129.75889887861254 209.95935948889422,129.73573261073213 209.99410889057674,129.71256634285172 210.02769997880313,129.7032998359619 210.06244938041664,129.6894000749713 210.096040468643,129.66160055388764 210.1331064969617,129.61526801833392 210.2558877161341,129.69866658206823 210.58948197148558,129.84229744234685 210.7945034410052,129.91642949919134 210.87558537810335,129.9488622738925 210.9740420160773,129.99982806313275 211.0342743121383,130.0415273449999 211.1431557705963,130.1017596408538 211.38640158182173,130.19442471189217 211.48254159295237,130.24075724744586 211.7755948799619,130.3843881072412 212.10803082206434,130.52338571383325 212.44046676416676,130.6670165740428 212.50417400045816,130.69018284150897 212.55166484932994,130.7226156162792 212.5875725642615,130.74114863047308 212.79491066055536,130.84771346208777 213.03352321830135,130.9450117868127 213.069430933371,130.97281130789636 213.13545479643665,131.00987733656024 213.4007085620173,131.1257086752719 213.5234897810516,131.1627747034525 213.56634737644399,131.176674464236 213.6844953418608,131.21837374610314 213.71345317653874,131.236906760297 213.745885951378,131.25080652108048 214.32620095832334,131.50563546638418 214.35400047961414,131.52416848037092 214.3794833741307,131.54733474825133 214.43855735694268,131.58903403011848 214.720027510012,131.79289718618196 214.9331571731724,132.02919311708467 215.06520489930367,132.18209048439118 215.24474347437575,132.37205387974018 215.44976494382632,132.59445004985943 215.52737194076312,132.65004909251007 215.61424544479686,132.70101488147415 215.91309029867293,132.87707851666104 216.18876888480665,133.06240865859968 216.221201659784,133.08094167258642 216.25131780771093,133.10410794046683 216.64051110585112,133.35893688577056 216.69842677520694,133.39600291374404 216.9497807802112,133.61376583059098 216.96947210772313,133.64156535215793 217.17333526385565,133.9334603254351 217.35519046570198,134.16512300285842 217.55905362176543,134.38751917318478 217.77449991183815,134.60991534371826 218.01658740981452,134.85084452803136 218.23319201313626,135.0917737125516 218.44516336297858,135.32806964386856 218.66755953330494,135.55046581419492 218.8922723303365,135.76359547735532 219.10192705347362,135.99989140825804 219.304631896219,136.25008709966806 219.53397794679904,136.4910162841883 219.76216568413003,136.72731221529816 219.99498667494044,136.94507513193795 220.2278076656818,137.172104556158 220.3204727366511,137.27403613408617 220.34132237768824,137.30183565516984 220.37491346591463,137.3203686693637 220.42472094156065,137.3667012049174 220.50696119211494,137.4269335009784 220.5949930093977,137.48253254362905 220.62626747091892,137.50106555803004 220.65754193230202,137.51496531839928 220.69576627407685,137.52886507938987 220.77916483794925,137.552031346787 220.82433906011582,137.55666460026643 220.87067159553143,137.55666460026643 221.2448068196391,137.5612978541601 221.58650926883846,137.56593110736335 221.62936686409273,137.54739809337661 221.66064132554487,137.52886507938987 221.69075747360992,137.50569881150946 221.75678133674458,137.4686327830527 222.05099293707218,137.3203686693637 222.1540828284565,137.28793589486963 222.47609395021297,137.15820479537453 222.80621326540307,137.0053074282061 222.9069865300822,136.9543416390349 222.93826099160339,136.9404418787347 223.06799209096044,136.88484283608406 223.10505811927914,136.87557632898714 223.14907402798957,136.87557632898714 223.1861400563773,136.8663098218902 223.22668102492636,136.8663098218902 223.63324902387328,136.8663098218902 223.67031505219197,136.8663098218902 223.7432887955803,136.86167656799654 223.779196510719,136.87094307509346 223.84869531380792,136.88947608949445 223.88460302887756,136.88947608949445 224.2517883725935,136.89410934297388 224.4602847822054,136.88947608949445 224.50545900430296,136.87557632898714 224.5981240753413,136.8663098218902 225.00816701438055,136.86167656799654 225.14600630737837,136.87094307509346 225.23867137834768,136.88484283608406 225.37766898480166,136.9033758500708 225.46338417551732,136.93117537156874 225.61164828906823,136.9867744138051 225.6545058843225,136.99140766769878 225.87342711455656,137.023840442469 226.08539846439888,137.03774020318343 226.2232377573967,137.0609064706496 226.26262041255865,137.07943948484348 226.2950531873979,137.0979724993135 226.41551777965802,137.17673780936127 226.4491088678844,137.19527082355512 226.7572202288574,137.343534937037 227.0641732765123,137.52886507938987 227.2715113727371,137.6215301502211 227.44062512732515,137.7049287139554 227.73831166774505,137.88562560241462 227.90626710887693,138.01072344822322 227.9259584364579,138.03852296930688 228.01283194049165,138.14972105481527 228.2062702761401,138.43698277482014 228.26302763210882,138.4138165070088 228.28851052662537,138.45551578908305 228.3186266746904,138.47868205648018 228.60009682782874,138.68717846650634 228.87693372728054,138.89567487604924 229.12133785203116,139.1180710463756 229.3506839026112,139.3358339630154 229.50705620994094,139.49799783748787 229.76883503536024,139.70649424703078 230.01439747349798,139.93815692445406 230.13717869246327,140.09568754503286 230.40474908495622,140.3134504616727 230.49625584253843,140.3829492651068 230.7163353860215,140.60997868884354 230.8680744398028,140.8462746199534 231.47966390813127,141.29106696053708 231.8236829841739,141.3929985387414 232.1294777183036,141.47176384878915 232.2696336381447,141.4671305955859 232.4584387202447,141.44859758132299 232.7364339332217,141.46249734169223 232.84647370499775,141.49493011646246 232.88238141992932,141.5134631306563 233.18585952735384,141.61539470906777 233.2287171227462,141.61539470906777 233.59242752623172,141.62002796227102 233.63412680823697,141.60612820169467 233.67119283655563,141.60612820169467 233.74184995316975,141.61539470906777 233.78123260833172,141.62929446936795 233.81482369655808,141.64782748376894 233.88548081331027,141.6802602587463 233.99436227156116,141.72195954040632 234.03142829994889,141.74512580807962 234.16810927962862,141.82852437202104 234.43567967219062,142.0138545141668 234.73104958576724,142.22698417732718 234.88742189302795,142.39378130527908 235.0032532317396,142.50961264399072 238.84537873687398,143.2046006762606 241.88015981105013,144.57604372653748 244.78984303948673,147.76372216788204 246.05240463151273,148.5977078064678 247.23272597291538,149.23709679615612 247.765550131058,149.50119224855675 248.10841089364447,149.77918746146472 248.22424223235612,150.14521449186256 248.303007542611,151.0162661589051 248.392197673488,151.4100927105247 248.57173624849108,151.91975060051075 248.49644587825946,152.1884793065289 248.6122772169711,152.3135771524065 248.9041721905935,152.4757410263957 249.66402577247285,152.7305699714923 250.2999398219998,153.01783169177335 250.7841148178145,153.96764866934694 251.10380931265865,154.7506685187615 251.52543538563808,155.6402532002741 251.8972539829715,156.28890869678315 252.13354991387425,156.47423883885986 252.39996199284198,156.67810199478524 252.67448226558858,156.90513141900527 252.88877024220514,157.15996036403283 253.08105026446648,157.3916230414561 253.2802801670505,157.65571849385677 253.46908524921955,157.89201442475948 253.48877657680052,157.91981394584315 253.5768083942904,157.99394600268764 253.85596192051645,158.20707566591707 254.17681472867866,158.38777255437628 254.50809235746303,158.56383618914896 254.81157046488752,158.75843283839166 254.91697698311512,158.81866513445266 254.95172638472863,158.8371981484394 254.9505680713415,158.87889743030655 254.9216102366636,158.90669695180446 254.85558637359796,158.9344964731643 254.816203718436,158.9483962339478 254.76523792933384,158.99009551581494 254.73975503488631,159.0178950368986 254.92624349014304,159.23565795353844 255.11736519901726,159.4719538848554 255.31427847496514,159.73141608336238 255.4138934261881,159.93064598580833 255.5250915113513,160.20864119899244 255.59690694128346,160.39860459454857 255.6258647759614,160.46347014429614 255.66756405789758,160.52370244015003 255.92123468974512,160.73683210358658 256,160.79706439944047 255.98262529919324,160.90362923126233 255.0328083218268,165.06892417140222 255.7463293682215,167.05195668986946 255.7972951572546,167.1724212824748 255.6664057445795,167.34848491724745 255.54594115238842,167.5755143407771 255.4648592151522,167.6589129047185 255.40115197899885,167.7793774971167 255.17643918176017,168.0249399353235 254.9540430114338,168.24733610537368 254.7107972002084,168.49289854337331 254.45133500142526,168.66432892494274 254.28917112722897,168.82185954552153 254.2764296800397,168.85429232049887 254.14206532706518,169.10912126559546 253.9544185583523,169.36858346410241 253.81194601180601,169.5214808312018 253.79572962431735,169.55391360617915 253.71233106044497,169.6697449448908 253.6810565989928,169.82727556567673 253.65789033131952,170.02650546812268 253.52005103818362,170.30450068089255 253.48645994995724,170.35546646985662 253.46445199567108,170.4434982874846 253.39379487898793,170.66126120412443 253.3567288506002,170.71686024677504 253.3219794489867,170.76782603573912 253.2872300475113,170.81879182470323 253.19456497647292,170.9855889527932 253.08568351801495,171.28675043344347 253.06715050382107,171.34698272929737 253.04977580308338,171.43501454692534 252.79263023107447,171.77787530937374 252.6269914167168,172.04197076156726 252.5551759867156,172.24120066422034 252.4787273031659,172.53772889118406 252.4416612748472,172.63502721590896 252.43123645436316,172.66745999088633 252.42428657397144,172.76939156860738 252.3547877708135,172.96862147126043 252.31424680219536,173.08445280997208 252.3038219817113,173.1168855847423 252.08837569170765,173.34391500868617 251.8323884331549,173.56167792560217 251.59493418879603,173.77944084224197 251.3540050042758,174.006470266462 251.0760097914369,174.22423318310183 250.94627869207986,174.36786404289714 250.9034210966875,174.41419657865796 250.69492468707557,174.64585925608125 250.6752333594946,174.67365877716495 250.57446009481546,174.93775422935846 250.45283718916824,175.22038269574583 250.22580776529338,175.4659451339526 250.19684993061549,175.4937446554505 250.18758342351856,175.55397695158058 250.19569161715933,175.6188425012591 247.36245707227243,179.57564103171805 246.60492011709823,182.1100307223837 246.8400577346829,182.15636325814452 247.67520168679388,182.30462737155733 248.80108229907108,182.79111899428435 249.14162643488334,182.9903488967303 249.78680699157624,184.18572831230355 250.87098832184824,183.97259864886698 251.9864441136414,184.59345462429238 252.68954033962112,185.8166335611564 252.77409721694966,186.06682925277357 248.88216423616925,186.66451896052567 245.2647515282735,187.04444575163797 240.52029989464444,186.7386510175773 239.21140576713375,186.62745293213794 235.26155711706656,186.28922542309994 229.4885231957471,185.30234241755286 224.3062291017189,183.34247616634465 224.02360063533155,183.96796539566373 223.92398568410857,184.48688979267766 223.76413843661746,185.31624217806018 223.80931265864595,186.44675604367873 224.42553538066096,187.86453162971642 225.10430702544218,188.77264932500864 225.181914022448,188.89311391761396 225.36608585099953,189.12477659503725 225.5572075598047,189.36570577935035 225.7564374624578,189.61126821755713 225.94987579810623,189.85683065569486 226.12941437310928,190.1023930934874 226.3089529480433,190.33868902480435 226.51744935772427,190.57035170222764 226.73405396111505,190.80201437965096 226.91590916296138,190.92711222545952 227.12440557257332,191.0058775355073 223.80120446493615,193.6653650724648 223.79077964445207,193.70706435453909 224.1093158259091,193.8599617212242 224.43016863420942,194.0360253564111 224.69310577301582,194.23062200523955 224.7324884281778,194.2630547802169 224.7718710834088,194.27695454100038 224.7753460235011,194.36035310473468 224.77418771011398,194.652248078219 224.75681300930722,194.70784712086962 224.52167539179163,194.92561003750944 224.29232934107353,195.138739700946 224.25410499929868,195.1897054899101 224.1394319740432,195.46770070261093 223.99348448719746,195.74106266210848 223.96684327936282,195.796661704552 223.9459936383257,195.88469352217996 223.93904375800298,196.15805548147043 223.9367271312978,196.44995045495472 223.93788544468492,196.7325789213421 223.9680015926809,196.82524399265662 224.11626570630085,197.10787245904402 224.2181972843671,197.38123441833446 224.3120206686545,197.64996312393836 224.36530308446186,197.94649135110922 224.48576767672196,198.2152200571964 224.51820045156123,198.2615525922668 224.59580744849805,198.33568464911133 224.82167855912382,198.5719805804283 224.84021157324867,198.59978010130484 224.8645361543781,198.6553791441626 224.87380266147503,198.72951120100709 224.8645361543781,198.77121048287424 224.8158869921192,198.78974349686098 224.754496382533,198.7990100039579 224.6490898643054,198.80827651105483 224.28190452058948,198.80827651105483 224.24136355210945,198.80827651105483 224.20198089687844,198.8129097647414 224.12669052685393,198.8268095252487 223.8961861626797,198.93337435686342 223.83942880671097,198.96117387843037 223.63788227742174,199.13260425972362 223.61008275613096,199.15113727398654 223.5857581750015,199.17430354138364 223.38536995896132,199.42449923327698 223.16297378863496,199.65616191070026 223.0181846152454,199.92025736289378 222.85486242766197,200.17508630812844 222.70428168733682,200.42528199981464 222.5919252889246,200.71717697309182 222.5525426336936,201.00907194657614 222.53632624620494,201.31486668084395 222.51547660523684,201.61139490780766 222.47377732330065,201.90792313518565 222.41817828085715,202.1905516013659 222.3347797169157,202.45464705376656 222.3058218822378,202.51024609662431 222.10311703949242,202.74654202725085 222.0347765495835,202.89017288752947 222.02551004255562,202.92260566223067 222.019718475551,203.14036857914664 222.01624353545867,203.43226355242382 222.00813534167983,203.7148920188112 221.96643605974364,203.99752048561282 221.91431195732338,204.27088244469616 221.91199533054916,204.54424440419373 221.88882906280682,204.8361393777471 221.80890543916485,205.10950133724464 221.7069738610986,205.3874965501526 221.64905819174277,205.65622525582555 221.59577577586637,205.929587215116 221.5702928813498,206.2075824283001 221.56334300109614,206.52264366945772 221.56334300109614,206.56897620473524 221.76257290361113,206.8052721358451 221.81238037925715,206.87013768559265 221.83323002029428,206.89793720667632 221.8459714674835,206.93036998165366 221.8587129147418,207.0276683063786 221.85639628796756,207.31493002617634 221.87145436206913,207.58829198567392 221.94906135900592,207.7643556205156 222.12049174023014,208.00991805844623 222.16334933555342,208.0701503547834 222.27686404755988,208.32961255308325 222.39617032636386,208.59370800548388 222.43439466813868,208.64930704834165 222.49462696433778,208.70027283730573 222.69964843378835,208.81610417601738 223.0008099145077,208.96900154311675 223.3239793495132,209.14043192406479 223.63788227742174,209.31186230563418 223.95294351878647,209.48329268672032 224.25642162614196,209.65935632176914 224.53094189888856,209.84005321022835 224.5865409414011,209.8863857455059 224.61086552253056,209.91418526707284 224.6293985367244,209.9466180415669 224.65603974469713,210.00221708421753 224.65951468478946,210.1134151695188 224.65488143124097,210.67867210229355 224.67109781872966,210.98446683656135 224.72901348808549,211.26709530294872 224.79967060463053,211.5497237693361 224.90623543624525,211.83698548941004 225.07534919076426,212.10571419542816 225.3162783752845,212.3512766332207 225.5884820213259,212.55977304317784 225.8826936216535,212.7404699312228 226.1606888344924,212.93969983387586 226.42362597343688,213.17136251129918 226.70509612643716,213.39375868162554 226.81629421160034,213.45399097789368 227.15220509393313,213.6161548519519 227.44525838080457,213.81538475460496 227.47769115564384,213.8478175293752 227.50664899032174,213.875617050666 227.55066489903217,213.94048260041356 227.56688128652084,213.9729153751838 227.58078104716625,214.14897901016357 227.59583912119876,214.43624073003036 227.67576274484077,214.70033618222388 227.80781047104108,214.96443163462453 227.82981842532723,214.99686440960187 227.85645963329998,215.02466393068553 227.8831008411346,215.04783019835884 227.9143753026558,215.07099646644636 227.94912470433832,215.08489622695367 227.98850735936222,215.09879598753002 228.174995814757,215.1080624948341 228.543339471791,215.1080624948341 228.58735538050144,215.1080624948341 228.75415250831523,215.0663632125527 229.08543013696152,214.93663211354084 229.45493210758974,214.8115342674561 229.81400925745777,214.77446823906837 230.21941894294855,214.77446823906837 230.26690979182032,214.77446823906837 230.621353688347,214.86713331010674 230.66073634350897,214.88103307089023 230.70011899873995,214.90419933877064 230.8993489011859,215.117329001931 231.14027808570614,215.35362493262662 231.2051436354537,215.39532421449377 231.5398962043994,215.525055314196 231.6893186312684,215.54358832818275 232.08314518281895,215.54822158180028 232.12252783804996,215.54822158180028 232.2348842366693,215.57602110316012 232.2731085783751,215.5852876100499 232.58585319289654,215.77525100560607 232.86269009234834,215.9652144011622 233.14300193203053,216.0625127258871 233.52177040968667,216.1273782753585 233.89474732033815,216.13664478252448 233.9665627503394,216.1273782753585 234.00362877865808,216.122745021741 234.071969268567,216.09957875386058 234.36733918228168,215.90498210510117 234.5677273981838,215.654786413415 234.7055666913197,215.38142445391742 234.7530575401915,215.14049526939718 234.7912818819663,215.05246345225248 234.82718959689788,214.97369814172146 234.88394695293564,214.96443163462453 234.95228744270648,214.96443163462453 235.01946961922826,214.96906488824203 235.24070747616753,215.05246345225248 235.59515137255613,215.15439503018067 235.63916728126654,215.1729280441674 235.6750749963362,215.19609431204782 235.7040328310141,215.21926057992823 235.7920646483659,215.3582581865203 235.9785531037607,215.62235363843763 236.23917361586192,215.84938306245056 236.4638864128935,215.92351511929505 236.79748066838303,216.03471320452726 236.8391799504573,216.05324621879018 236.87277103861464,216.07177923277692 236.92605345449104,216.3451411922745 236.94921972216432,216.43317300941916 237.1820407129057,216.6602024334321 237.20984023426553,216.6833687013125 237.24111469564863,216.70190171529924 237.2781807241054,216.7204347294931 237.6743239024302,216.757500758157 238.05193406663017,216.757500758157 238.0924750352483,216.76213401136025 238.12838275017987,216.7714005184572 238.18282347937432,216.79920004002415 238.2129396275084,216.83626606820474 238.23610589518168,216.92429788583271 238.2569555362188,217.11426128118174 238.25811384967497,217.15596056325603 238.26622204331576,217.19765984512318 238.29517987799366,217.23009261989338 238.3368791598608,217.26252539487075 238.3913198890553,217.29032491595441 238.45039387186728,217.29495816964095 238.67626498235498,217.27642515537806 238.71796426422213,217.27642515537806 238.76082185954544,217.27179190196767 238.80136282809454,217.26252539487075 239.1685481718795,217.16522707014582 239.5067756809175,217.1605938166664 239.85079475696014,217.21619285910992 240.227246607773,217.33665745171524 240.31991167860423,217.35982371911237 240.4195266299653,217.3644569725918 241.192121659172,217.35982371911237 241.55699037604464,217.3644569725918 241.59868965798083,217.3644569725918 241.6357556864376,217.37372347968872 241.67745496830474,217.38762324067932 241.78633642669368,217.44322228332996 241.818769201602,217.4617552973167 241.92417571976054,217.58685314312527 242.07591477347282,217.86484835603324 242.0956061010538,217.91118089137981 242.11993068218325,217.9482469200437 242.35970155338538,218.05481175138223 242.49290759283474,218.12431055481636 242.7488948513875,218.35597323223965 242.81028546090465,218.45327155675744 242.8322934153289,218.52740361360193 242.92264185945496,218.82856509397604 242.93769993348747,218.98146246107544 242.94464981381017,219.254824420573 243.00024885639175,219.55135264753673 243.01414861703716,219.63475121168528 243.01530693049332,219.67645049334533 242.9458081271973,219.7969150855364 242.72457027025803,220.02394450948026 242.694454122193,220.06101053793702 242.67244616790683,220.0980765665319 242.65738809380528,220.1351425947815 242.6515965268697,220.25097393349316 242.68171267493474,220.39923804718217 242.694454122193,220.4363040755699 242.883259204293,220.66333349937568 243.05584789897335,220.9320622049796 243.13924646284573,221.2146906715741 243.1438797163942,221.49268588434396 243.14503802978132,221.5343851662111 243.1380881494586,221.57608444828537 243.12071344865188,221.6085172230556 243.09523055413533,221.64558325144333 242.93422499339516,221.75214808305805 242.78596087977522,221.8077471257087 242.43499192347892,221.92821171810687 242.13730538305902,222.09500884578262 241.84193546927528,222.27570573424182 241.52919085482287,222.43323635502773 241.20022985281275,222.5583342006292 240.8654772839361,222.66026577855737 240.52261652134962,222.75293084980285 240.1623810579564,222.8872952027774 240.11952346270212,222.9104614701745 239.9226101868923,223.10042486593778 239.74886317882485,223.3598870647209 239.65735642124264,223.62398251691442 239.65156485430705,223.8834447154214 239.65388148101226,224.18923944968918 239.67357280859324,224.46260140897965 239.74770486543773,224.65256480453579 239.76276293947024,224.68499757951312 239.96894272230793,224.86106121407866 240.12763165634288,225.03712484905844 240.35813602037908,225.28732054074464 240.5909570111895,225.54678273925163 240.6199148458674,225.71357986692735 240.6175982191622,225.75064589559125 240.60949002538337,225.78771192377187 240.58979869780237,225.81551144506264 240.56084086312447,225.83404445953266 240.21450516037663,225.84794422004 240.14500635721868,225.85721072713693 240.08245743438343,225.87574374139982 240.03149164521224,225.9035432624835 239.9897923633451,225.93134278377428 239.96083452866716,225.96377555875165 239.94577645463465,226.0054748408259 239.9388265742429,226.18153847566762 239.9446181411785,226.4873332099354 239.96199284198525,226.5475655057893 240.41721000312202,227.07575641038346 240.37782734796005,228.01167362717356 240.30137866441038,228.09970544480154 240.06044947989014,228.33136812222483 239.80098728124509,228.53986453176773 239.56584966366046,228.7622607020941 239.35040337358774,229.05415567557841 239.32260385229694,229.08195519666208 239.24847179552148,229.1329209860404 238.63804064058016,229.46188198777438 238.3368791598608,229.66111189022033 238.2569555362188,229.79084298971546 238.09131672179214,230.0642049490059 238.00328490437127,230.15687002004424 237.74729764581852,230.3746329368912 237.71370655759216,230.402432458251 237.68011546936577,230.4626647541049 237.58860871178356,230.54606331804635 237.5608091904928,230.5645963322402 237.53416798272718,230.59702910721757 237.51447665507717,230.6294618821949 237.49478532749617,230.68969417832494 237.4901520739477,230.95842288392885 237.4901520739477,230.99548891259275 237.50173520774985,231.03255494056623 237.52605978887928,231.06498771554357 237.83648777669555,231.2595843645101 238.10637479582465,231.47271402773953 238.4133278434105,231.65341091619874 238.74923872574334,231.80630828357428 239.05271683316784,231.97773866445328 239.35156168697486,232.1584355529125 239.61218219907607,232.35766545556555 239.89133572537114,232.54762885091458 240.13573985005272,232.7561252606646 240.18091407215024,232.79782454273885 240.3257032455398,233.07581975550875 240.3731940944116,233.2148173621008 240.4971336269021,233.41404726475386 240.56084086312447,233.4835460677047 240.7878702869993,233.6318101813937 240.83536113600914,233.67350946326084 240.87011053748455,233.715208745128 240.8921184919088,233.7569080274094 240.90485993909806,234.03490324017926 240.8921184919088,234.10440204354433 240.85852740368244,234.1646343396744 240.62223147271067,234.37776400262766 240.5909570111895,234.4055635241946 240.5249331481929,234.5306613700032 240.50987507409133,234.72062476535223 240.51914158118828,235.01251973883652 240.5689490569033,235.2071163880792 240.57474062390793,235.41097954393555 240.57474062390793,235.73067403898682 240.536516281995,235.7816398277438 240.50176688045056,235.8094393492417 240.35350276683062,235.86967164557888 240.35234445351253,235.93917044852972 240.35350276683062,236.21716566171384 240.35813602037908,236.4997941281012 240.39288542199256,236.77778934100917 240.39172710860547,237.0604178074656 240.40099361584046,237.33841302016643 240.44153458425146,237.60714172625362 240.4496427779613,237.6442077542271 240.61180665222662,237.91293646031428 240.75543751216003,238.20019818011204 240.80987824142355,238.46892688619923 240.87590210442013,238.74228884548967 240.88285198481188,239.00175104399665 240.89327680536496,239.27047975008384 240.96277560845388,239.52530869511136 241.05080742594376,239.64577328730243 241.2871033568465,239.85426969684534 241.5546737492704,240.05813285318496 241.80139450072622,240.2851622769217 242.03653211837988,240.53072471492135 242.2044875595118,240.80871992810546 242.2230205736366,240.88748523815323 242.2230205736366,241.17011370495484 242.2079624996041,241.43420915694125 242.15815502395807,241.69830460913477 242.1454135766998,241.9624000615354 241.89058463160322,242.5091239801163 239.64461497391534,243.5701390429221 239.33650361294235,243.7508359311742 239.02028405832857,243.9222663125365 238.72838908470618,244.08906344021221 238.4168027836409,244.2604938217816 238.09710828879676,244.4180244423604 237.8144798222713,244.56165530215574 237.76583066015047,244.6033545840229 235.77816488772052,245.2705430952091 235.49785304803834,245.06667993886947 235.1075014365801,244.8859830508245 234.69861681092797,244.6867531479643 234.54224450366723,244.5801883163496 234.3325897806682,244.39485817448 236.22411554176037,241.44347566403817 235.86967164530273,241.15621394424042 235.68202487658985,240.93381777391406 235.50827786852238,240.72532136437115 235.13298433109665,240.7577541388652 235.0878101089991,240.7577541388652 234.9511291293884,240.76238739234464 234.69977512438413,240.7670206462383 234.69977512438413,240.36392758745274 233.4221554584637,239.51140893460405 233.3514983417115,239.50677568071038 233.29705761251702,239.4558098917463 233.22408386919773,239.37241132780488 233.09782771000204,239.22878046821668 233.04917854774314,239.17781467897643 232.98315468460845,239.1036826224081 232.89743949396183,239.01101755109357 232.76075851435112,238.87665319818805 232.66346018983336,238.78398812735682 232.60438620702138,238.72838908470618 232.56268692515422,238.6913230565256 232.50824619595974,238.6403572675615 232.38430666353827,238.5337924359468 232.33334087443612,238.48745990018597 232.2603671310478,238.42722760412494 232.17928519394962,238.3669953079949 232.12368615143708,238.32992927940003 232.07735361588337,238.29749650462983 232.0078548127254,238.2418974621863 231.963838904015,238.20483143379857 231.90244829442878,238.14923239114796 231.82252467071774,238.06583382720652 231.73680948014018,237.97780200978568 231.62676970843313,237.84343765688016 231.59665356029907,237.7971051216026 231.57348729255673,237.75540583973546 231.5491627114273,237.7137065578683 231.52136319006746,237.68127378289097 231.49703860893803,237.65347426132402 231.46576414755492,237.62567474024036 231.4252231789368,237.5886087119907 231.34298292845153,237.52837641551542 231.2561094244178,237.4588776125646 231.15301953303347,237.38474555572012 231.0858373565807,237.32914651306947 230.76035129473195,237.12991661041642 230.50668066302248,236.97238598983762 230.35957486278963,236.55539317075184 230.09084615704765,235.81407260272113 229.9970227726222,235.5499771503205 229.84760034568416,235.1376175846451 229.53601404461887,234.34996448133685 229.16535376081063,234.7252580187626 229.13871255276888,234.7484242864359 228.42982475985357,233.715208745128 227.54718995893987,233.1453185588738 227.02942387482975,232.46886354086683 226.61127274214977,231.8294745509714 225.79929505771207,231.97773866445328 224.70816384704833,232.1074697639484 224.43364357430173,232.13990253892575 223.481509970092,232.11210301756591 222.23400645223657,232.0240712002141 221.83670496038658,232.1538022997092 221.55523480731728,232.20476808867332 221.44519503554122,232.20940134187657 221.36990466544768,232.20940134187657 221.31314730940994,232.17696856710634 220.33205587059132,231.8016750296806 220.29498984213456,231.78777526931137 220.0158363158395,231.66267742329566 219.5826271090579,231.42174823877545 218.99883716195123,231.07888747632705 218.7822325586295,230.9445231233525 218.71736700888192,230.93525661604843 218.628176878143,230.92135685574826 218.48107107791014,230.90745709496477 217.98878788838564,230.88429082708436 217.51967096660348,230.85185805231413 217.26947527498632,230.8425915452172 216.89881499110905,230.81479202413354 216.48298048513422,230.80089226314294 216.27448407545324,230.79625900966352 215.90845704512446,230.82869178464085 215.5667545959251,230.81479202413354 215.4277569894711,230.81479202413354 215.138178642692,230.8194252773368 214.76983498558894,230.81479202413354 214.05747225258136,230.79625900966352 213.61036328508536,230.7823592491562 212.87367597087928,230.7591929812758 212.6200053391698,230.75455972800347 212.27366963635293,230.66652791044453 211.8821597115766,230.54606331804635 211.59721461834596,230.46729800799858 211.23234590133524,230.37926619037063 210.83620272294138,230.27733461244244 210.49681690058532,230.19393604870814 210.30685350502915,230.1383370058504 210.1238399899338,230.08273796319975 209.74970476582612,229.97617313158503 209.5029840145084,229.89740782153729 209.3454533937225,229.86497504655995 209.2134056677293,229.8232757646928 209.0964160155615,229.78620973623603 208.9875345571035,229.7584102147381 208.85896177113355,229.73061069386156 208.7547135663621,229.70744442598115 208.6504653614526,229.68427815810074 208.525367515644,229.65647863701705 208.41185280377564,229.6286791154501 208.2774884508011,229.596246340887 208.1593404853152,229.56844681938907 208.02150119224834,229.53601404441173 207.93926094190115,229.517481030425 207.87092045199225,229.49431476254458 207.7516141730502,229.457248734364 207.65431584860147,229.42481595959376 207.53848450988983,229.38774993092986 207.42612811133952,229.3599504098462 207.35547099465637,229.33678414196578 207.20141531416988,229.2997181137852 207.10643361642633,229.2858183530017 207.00797697852144,229.2719185922182 206.9072037138423,229.25338557802436 206.82033020980856,229.23021931035106 206.77978924132853,229.2024197892674 206.70565718448404,229.17925352117987 206.63615838139512,229.1653537606035 206.5701345181914,229.15608725350657 206.47283619367363,229.1421874932064 206.3987041369672,229.1282877324229 206.31298894625155,229.1051214645425 206.24464845648072,229.09122170396614 206.1554583256037,229.0634221824682 206.10217590979636,229.04952242189185 205.99329445147643,229.02172290060105 205.91452914108348,229.0031898866143 205.8519802181792,228.98929012583085 205.74657370002063,228.96612385795044 205.6597001959869,228.94759084375656 205.56008524462584,228.92905782976982 205.5195442761458,228.92905782976982 205.4593119799467,228.91979132288 205.38981317678875,228.91515806898636 205.31568111994426,228.91515806898636 205.25776545058844,228.92905782976982 205.2195411088136,228.90125830861712 204.20370026845052,228.6417961096959 204.05196121460017,228.57229730674507 203.73110840636892,228.4101334322726 203.65002646927076,228.4471994609365 203.57589441256434,228.37306740409198 203.52029536991373,228.31283510796194 203.47975440150273,228.2665025724773 203.42415535878305,228.18773726194624 203.35349824223798,228.09507219090787 203.31295727361987,228.0302066411603 203.29210763265178,227.98850735929315 203.25504160426405,227.91900855634233 203.20291750191285,227.817076978138 203.16005990658954,227.73831166788312 203.12762713168124,227.70124563942636 203.05581170168,227.63638008995497 202.95967169054933,227.55298152573738 202.8473152920681,227.46494970859268 202.5670034523859,227.22865377727572 202.4581219939279,227.13135545296504 202.42221427899634,227.09892267826388 202.37124848989416,227.13135545296504 201.92529783592337,226.66803009811846 201.59865346068747,226.2186045038482 201.1075285845501,225.89891000928023 200.92451506938568,225.78307867056859 200.78551746300076,225.71357986692735 200.58744587380383,225.5977485282157 199.77430987597901,224.7591296361505 199.79631783040327,224.71743035428335 199.75230192169286,224.6757310724162 199.68975299878855,224.62013202955845 199.59824624120637,224.5645329869078 199.27623511951893,224.4301686340023 199.17777848168308,224.39773585923209 199.08627172410087,224.37456959176592 199.0387808752291,224.36993633814842 198.98202351919136,224.37456959176592 198.89746664193186,224.37920284524535 198.77121048273617,224.3931026060288 198.62757962280276,224.407002366329 198.58356371402328,224.407002366329 198.53028129821593,224.40236911312576 198.49205695644108,224.37456959176592 198.44109116754603,224.33287030948452 198.3808588712779,224.2958042813039 198.32178488853495,224.2680047601512 198.28587717360338,224.24483849233982 198.2268031907914,224.19387270309957 198.19668704272638,224.17070643570244 198.12718823956843,224.11047413936527 198.06348100327702,224.0548750969908 197.95807448504942,223.9668432791557 197.9105836361086,223.93441050438548 197.80633543126814,223.86954495463792 197.73683662804115,223.83247892645733 197.63258842320064,223.77224663032726 197.56888118690924,223.73518060173242 197.4727411757786,223.69811457375894 197.37080959771234,223.65641529161562 197.3140522417436,223.63788227721463 197.26308645277953,223.62398251691442 197.20864572358508,223.61471600954135 197.16231318803136,223.61471600954135 197.0847061911636,223.63324902401138 197.04184859577126,223.63788227721463 197.00130762729123,223.6471487845187 196.89358448222035,223.65641529161562 196.8414603798001,223.66104854509504 196.73721217502865,223.67958155949603 196.6642384316403,223.69348131986527 196.56346516696118,223.71664758774568 196.46153358889492,223.74444710882935 196.35844369737254,223.77687988380669 196.24377067211705,223.8139459124706 196.20091307679374,223.82784567277076 196.15921379478849,223.83711217986772 196.10593137898113,223.84637868696464 196.0167412482422,223.84174543355425 195.9541923253379,223.83247892645733 195.91596798356306,223.81857916567384 195.8302527928474,223.78151313749325 195.73758772194714,223.69348131986527 195.6194397563922,223.56375022078439 195.52329974526154,223.45718538916967 195.487392030399,223.41085285368501 195.46075082235726,223.3598870647209 195.42484310735665,223.30428802186316 195.38777707896892,223.25332223289908 195.3379696033229,223.2069896973454 195.27773730719287,223.16065716206785 195.19086380315912,223.1050581194172 195.0634493305763,223.03092606257272 195.02638330218858,223.01239304858598 194.98352570686527,222.98459352722614 194.89896882960576,222.9243612307509 194.72985507508676,222.78999687805248 194.65340639153706,222.7390310890884 194.58390758837913,222.68806529984815 194.5063005914423,222.62319975037676 194.45301817563495,222.5722339611365 194.36961961169354,222.49810190449915 194.34413671717698,222.47493563689488 194.29201261475674,222.437869608231 194.18197284298066,222.36837080528016 194.1286904271733,222.3174050163161 193.68042314635923,222.2571727199789 193.23099755215804,222.17840740972403 193.1580238087697,222.1737741562446 192.85917895489365,222.10427535287954 192.7028066476329,222.06720932462989 192.66226567915288,222.05330956391546 192.57886711521147,222.03940980313197 192.52905963956545,222.03940980313197 192.30434684246487,222.07647583179588 192.02403500278265,222.10427535287954 191.7900556986542,222.08110908499913 191.66959110639405,222.0486763102289 191.54912651420298,222.00234377495136 191.4668862636487,221.9606444930842 191.28155612164102,221.8772459288666 191.2155322586444,221.85407966146948 191.12518381438028,221.8401799004789 191.04526019066924,221.8355466472066 190.68039147386563,221.81238037939522 190.52286085307972,221.79848061861173 190.36533023250092,221.78921411172195 190.28540660872082,221.77531435073132 190.23559913314386,221.73361506886417 190.1707335833963,221.6872825335176 189.90200487765432,221.56218468770902 189.80702317984174,221.52048540563476 189.3668640928065,221.17762464318636 188.78191583231268,220.92279569788263 188.5039206193357,220.81159761306466 188.1900176915652,220.65870024568912 187.63518557899832,220.33900575112114 187.24830890777048,220.14440910167133 186.4444394170426,219.73204953599594 186.26258421533436,219.67181723993494 186.40853170211102,219.55135264753673 186.61934473849718,219.403088534262 186.72822619688614,219.35675599877732 186.79077511979042,219.32895647721037 186.83479102850083,219.29189044882264 186.94135586011555,219.16215934974176 187.17765179108733,219.08802729269016 187.4602802576128,219.0231617431497 187.7070010090686,218.91196365791748 187.86568994310355,218.78686581210889 187.93634705964863,218.67566772701477 187.91433910536244,218.58763590966294 187.8761147635876,218.43010528908414 187.72205908303206,218.3235404572623 187.40352290157503,218.12894380843386 187.22398432664102,218.0455452442853 187.0687703327674,217.96677993423756 186.88459850414685,217.8046160597651 186.81509970091986,217.66098519996976 186.7687671654352,217.53125410047463 186.72822619688614,217.23472587330377 186.72359294333765,217.0215962103505 186.70853486930514,216.9289311392431 186.69231848195454,216.8640655897717 186.61239485817447,216.7714005184572 186.52436304082266,216.67410219421558 186.4525476108905,216.609236644468 186.38304880752543,216.55363760161023 186.30080855704014,216.48413879865942 186.0934704607463,216.36830745994777 185.8872906779086,216.24784286754956 185.76798439896658,216.16907755750182 185.43670677025125,215.92351511929505 185.27338458273687,215.73818497714927 185.0104474437924,215.49262253921867 184.76951825927216,215.27949287578213 184.7370854844329,215.23779359391497 184.64094547337126,215.08489622695367 184.58766305749486,214.93663211354084 184.50889774717095,214.77446823906837 184.43939894401302,214.65863690035673 184.2563854288486,214.1258127425593 184.14055409013696,213.80611824750804 184.0837967340992,213.6439543732427 184.0490473326238,213.5466560490011 184.0200894979459,213.47252399215657 183.95985720167775,213.407658442409 183.84170923619186,213.29646035710775 183.71197813683483,213.0972304544547 183.57877209731643,212.86093452382812 183.52548968150907,212.7775359598867 183.474523892545,212.72193691723606 183.41544990980205,212.64780486039157 183.33900122625235,212.56440629665727 183.29035206399345,212.49490749322314 183.09807204173214,212.39297591508785 182.96718262898796,212.27251132317295 182.88030912495424,212.1474134770882 182.78648574052875,211.94355032123187 182.7042454900435,211.73042065779532 182.59999728527205,211.48022496638526 182.5918890914932,211.44779219140793 182.5918890914932,211.40609290954077 182.64864644753092,211.1744302321175 182.79806887446895,210.8779020047395 182.818918515368,210.67867210229355 183.15135445760853,210.41457664989292 183.41892484989435,210.21071349396755 183.50811498077135,210.16438095848287 183.64247933367687,210.0995154087353 183.703869943125,210.04854961977122 183.88688345828942,209.89565225280992 183.92279117335906,209.8585862244222 183.98186515603297,209.75202139260037 184.05136395925996,209.69178909674648 184.18341168546027,209.64545656098565 184.22163602723512,209.6315568004093 184.65137029385534,209.529625222274 185.00928913047431,209.4184271372489 185.36141640015774,209.27016302376703 185.07762962024515,209.04776685344066 184.91778237296114,208.8253706829072 184.8737664641817,208.56127523050654 184.96990647531234,208.25548049644587 185.3324585654798,207.8199546630972 185.72860174394268,207.61145825314009 185.81779187461257,207.57902547857697 186.13169480252114,207.51879318210172 186.65061919994932,207.2917637585721 186.8741736836628,207.13886639119656 187.0456040650251,206.83770491082242 187.1973431186683,206.66627452925303 187.2309342068947,206.4763111336969 187.44985543712875,205.5172276492335 187.44753881028547,205.07243530858076 187.5147209867382,204.89173842032866 187.73943378390786,204.845405884844 187.88074801713606,204.74347430691583 187.91665573206762,204.5905769395403 187.97572971481057,204.03458651386248 188.04175357787622,203.69635900461734 188.22013383949215,202.5009795895274 187.28074168254068,202.34808222215185 185.70311884935708,201.8893901209918 185.34404169928195,201.74112600750993 184.33978399265195,201.28706715976026 184.10580468852345,201.1480695529611 183.78611019361028,200.92104012943145 183.5474976358643,200.71717697309182 182.47953269301192,199.68396143178393 181.24824556250712,198.33568464911133 180.08993217539063,197.1681047548979 178.46945174681468,195.41673491385396 177.53585115672976,194.31402056897386 176.3242553538059,193.1325409141841 176.10996737718938,192.86381220858019 175.57714321918482,191.96959427386435 175.46826176072685,191.82133016017536 175.0292609870097,191.3441050445453 173.59179407359815,190.2738234750568 173.06823642269055,189.80123161311326 171.82652447163264,188.337123491729 171.1929270488799,187.74870029100478 170.38442430474166,186.914714652419 168.9029414826197,185.66836944767456 167.91605847672741,184.9085158656571 167.2685612933293,184.45445701790743 166.16121369531498,183.49074028003366 165.86352715489508,183.3054101378879 164.28706263489147,182.4621579924123 163.48435145761977,182.0127323978659 160.6534335395071,179.15864821194185 156.15686097078995,175.7810063751102 156.10242024152643,175.83660541796797 154.8410169629566,174.84508915852723 154.06147205349623,174.13620136547385 153.5599223568748,173.74237481406138 152.9645492758279,173.33001524817885 152.18500436636756,172.66282673699266 151.54561537661021,171.74080928119315 150.84483577740474,171.0041219670561 150.30737836585175,170.24890163844904 149.86142771174286,169.6512119304898 149.2498382434144,168.8867250952691 148.59539117962456,167.54308156600686 147.25869753089214,165.11062345306226 145.92663713570818,163.42411916155874 145.34516381544475,162.68743184721458 143.02737872775563,159.9677120144722 141.5725371136064,158.01247901708862 141.05013777601684,157.59085294390206 140.15939478125523,157.05802878589753 139.02888091549858,156.40937328938847 138.15435430822563,155.9645809485286 137.54739809337661,155.6541529607814 137.11418888652602,155.47345607259837 134.54852473406302,154.89893263224337 133.156232042749,154.71823574378416 132.1925153046681,154.70896923668724 130.94385347342558,154.8016343077256 129.68476682162995,154.96843143560844 128.49170403289997,155.1074290422005 126.92798096029274,155.32519195890936 126.43338114392496,155.4688228187047 125.71291021720755,155.68195248214124 124.23837727533923,156.00628023039576 123.08006388822275,156.31207496466357 121.89279266642836,156.74760079842648 121.05301546076892,157.16459361751225 120.3707688758954,157.52135414074414 119.7279049459767,157.81324911422843 119.19739741467737,158.0032125099917 118.9981675120243,158.07734456642194 118.4062693712768,158.22097542670056 117.21783983609531,158.5684694428355 114.42398794637036,159.19859192535782 113.2633579324106,159.53681943460296 110.63746148381755,160.06501033892096 109.6610032985474,160.2596069877494 105.92196768486636,160.8341304278282 102.0972168806768,161.3206220503481 101.12191700872472,161.36232133262948 97.68288456230685,161.51058544590424 97.15469365785079,161.5383849674712 96.3091248851867,161.56618448855488 95.62803661356222,161.54301822067447 94.34462538063717,161.51058544590424 93.19326187391242,161.40402061428952 92.24344489640787,161.21869047241992 91.13957223848587,160.9684947810099 90.06002416176236,160.73219884969294 88.80209582328482,160.39860459454857 87.5152096501984,159.96307876078566 84.81402283151182,158.90206369818696 84.4005049522422,158.72600006362143 82.54952015963006,157.40088954855304 81.66804367210347,156.53447113498993 81.04718769653999,155.88118238479433 80.42633172104556,155.2093606201977 80.39389894627534,155.1722945915338 79.64562849819809,154.3058761783159 78.93326576505241,153.26802738318338 78.30430159591721,152.21164557440932 77.9174249246203,151.3405939069525 77.46799933041912,150.27031233767113 76.9641330069544,149.09809918956407 76.51123247259186,148.0185511129096 76.0432738641968,147.0965336566958 75.53940754080114,146.06795136907448 75.1189397813469,144.81697291112675 74.97530892127541,144.02468655413196 74.96951735440886,143.75132459484152 74.9185515653067,143.60769373477004 74.85021107546683,143.32506526817554 74.82009492753988,142.56984493984461 74.80156191320793,141.9767884855029 74.76565419827637,141.43933107422606 74.66603924691532,141.0130717476291 74.49808380578342,140.48951409665247 73.92703530600404,139.43313228774034 73.50193429293229,138.73351100157677 73.28996294308998,138.2192198577661 73.13590726253445,137.68639569996867 73.0038595364722,137.19527082355512 72.96216025446697,137.03774020318343 72.80115469372683,136.6022143696967 72.53821755478234,136.03232418302827 72.24748089468514,135.41146820760287 71.9451611005787,134.71648017533298 71.6845405884775,134.03075865016004 71.49110225282905,133.55353353452995 71.29187235031405,132.95121057329843 70.9605947215297,132.11259168081898 70.70460746297695,131.52416848037092 70.40112935555244,130.8245471944145 70.38491296813281,130.78748116623387 70.04784377248191,130.0415273449999 69.78490663367552,129.44847089045106 69.38065526157186,128.72568333730464 69.04358606585193,127.9287637266233 68.78528218052494,127.29400799069059 68.46906262584216,126.64071924049497 68.22697512800384,126.16812737855145 67.98952088364497,125.7233350376916 67.65361000131215,125.3109754718091 67.21345091427693,124.8244838490821 66.66556868210179,124.30555945199912 66.15591079183959,123.82833433643809 65.63930302118564,123.46694055951966 65.09257910239762,123.02214821907405 64.92346534787862,122.87851735886449 64.50068096165013,122.51712358194607 63.66206206930877,121.89626760652068 62.62305496113433,121.10398124973301 62.56050603823004,121.05301546097604 61.73694521992118,120.51092479566745 60.883268253616336,120.00126690526716 59.90796838166426,119.473076000673 59.37977747720819,119.23678006983933 58.63961522277172,118.81978725047739 58.03729226154019,118.48155974143938 57.53690087830587,118.21283103542123 56.979752139033806,117.80047146974584 56.51179353063875,117.29544683282498 56.10870047192221,116.81822171740204 55.771631276271314,116.36416286992853 55.33842206948975,115.65527507687517 55.048843722710636,115.13635067937795 54.695558139640106,114.50622819664851 54.305206528181856,113.7788073896084 53.96813733253096,113.29694902077506 53.78628213082271,113.02358706148462 53.692458746397236,112.85678993380888 53.52450330526535,112.31469926822413 52.34302365047558,110.4567645956345 50.233734972536475,107.7185117484221 50.08547085891652,107.54708136705982 48.807851192927046,106.07370673878575 46.91285049167353,104.0721412057104 45.74411228400396,102.74239743723163 44.37382754704517,101.20415725900287 43.266479948961816,99.91147951898088 41.69696530948803,98.60026876517927 40.32668057246019,97.9284470003065 38.468745899525366,97.40952260308545 35.75713426028569,96.77013361319003 35.52778820970566,96.71916782422595 32.981815384754604,96.33924103311365 32.73972788684726,96.34387428700732 31.50612412956821,96.25584246937935 29.887960327766493,96.23267620170607 28.884860934523623,96.22804294829568 27.983693119347002,96.22340969440201 25.974019392699912,96.1909769196318 23.77090733047341,95.98248050988178 21.80988276601617,95.70448529738808 20.140753175181327,95.33845826699023 19.209469211939677,94.83343362986224 17.624896498364336,93.67512024274576 16.25113682131323,91.76158652729838 14.734904597508722,88.96773463784959 14.137214889825659,87.3090298674988 14.117523562175638,87.22563130355736 13.578907837235517,85.08970141778363 13.079674767319274,83.71362511354404 12.611716158924217,82.41631412004263 12.28159684359602,81.63329427062806 11.642207853976766,80.37768255878666 10.721348711219164,78.89040816993624 10.014777545009071,77.87572564289124 9.220174561516208,76.93980842610112 10.97617765638479,74.77144576507386 11.47541072616295,74.06255797229667 11.631783033423675,74.16448955022483 11.786997027366324,74.31738691760037 12.015184764628271,74.54904959502367 12.188931772695742,74.73437973668614 12.259588889240806,74.79461203274715 12.549167236019926,74.39151897444486 12.683531588925439,74.22472184649297 12.770405092959175,74.14132328275868 12.870020044251191,74.18765581810524 13.031025605060382,74.08109098628341 13.348403473130297,73.86796132305398 13.639140133296532,73.65483166003166 13.377361307808208,73.40000271500412 12.920985833353358,72.93204410626386 12.608241218831909,72.62624937220319 12.23873924827271,72.28802186337231 11.932944514143001,71.96369411470353 12.18661514585247,71.94516110071679 12.713647737059507,71.90346181884964 13.18276465884168,71.8802955507621 13.626398686107292,71.82469650852572 14.002850536920148,71.74129794437717 14.322545031695254,71.64399961985939 14.454592757826534,71.57450081670143 14.844944369284788,71.3335716321812 15.00247499000167,71.22700680056649 15.165797177585093,71.12970847625583 15.341860812357757,71.06484292630114 15.504024686623104,71.06020967289075 15.758853631788728,71.0926424478681 15.947658713888716,71.0926424478681 16.112139214859255,71.02777689791341 16.174688137763546,70.9443783341791 16.203645972441457,70.8609797704448 16.22217898663532,70.77294795281682 16.13067222905312,70.43935369746536 16.167738257371806,70.34668862663413 16.522182153898488,69.86019700390713 16.631063612218398,69.66560035466443 16.707512295768083,69.48953671989177 16.96234124107179,69.01694485794825 17.22180343971684,68.46558768588793 17.345742972069264,68.13199343012222 17.396708761240472,68.02079534530424 17.473157444721117,67.96056304875994 17.592463723525075,67.90959725979586 17.70134518191402,67.90033075269892 17.812543267077203,67.93276352767626 17.905208338046524,67.9883625703269 18.051155824823198,68.1968589800769 18.16582885014773,68.39145562883631 18.33725923151001,68.72968313787432 18.492473225314576,68.64165132072964 18.603671310477758,68.61385179916267 18.697494694834194,68.61848505284922 18.885141463547065,68.63701806683596 18.960431833847718,68.64165132072964 19.142287035555963,68.63701806683596 19.239585360073747,68.63238481335654 19.473564664202236,68.6601843349235 19.611403957338137,68.70651687040815 19.85001651501509,68.83624796948904 20.071254371954335,68.93817954783145 20.204460411541774,68.99377859006783 20.242684753316617,69.06327739370907 20.28206740847858,69.27640705686946 20.326083317189003,69.33663935299951 20.43959802905738,69.35053911329972 20.47782237083222,69.32273959221604 20.715276615191097,69.18837523951765 20.84964096809661,69.14204270375683 21.252734026882187,69.11887643587642 21.50872128550397,69.09107691479274 21.769341797605176,69.04011112582866 22.025329056019835,68.71578337757413 21.601386356335205,68.46558768588793 21.446172362461596,68.30342381169162 22.58363610867902,68.6231183062596 23.04001158313387,68.76211591264455 23.312215229175283,68.85014773027251 23.503336937980464,68.92891304073451 23.709516721025278,69.04011112582866 23.87283890853966,69.16984222525474 24.20064159709362,68.78528218052494 24.249290759352515,68.72504988467105 24.30373148847795,68.57678577098207 24.401029812995734,68.46095443227041 24.460103795738675,68.36365610754551 24.483270063481005,68.31269031878855 24.508752957997565,68.21539199406364 24.522652718642963,68.09029414825507 24.56319368726108,68.0254285985075 24.67207514558099,67.91423051368952 24.74389057558221,67.84936496394197 24.84698046710462,67.67330132916929 24.903737823004285,67.60843577942173 25.034627235748445,67.50187094780702 25.112234232754293,67.45090515884293 25.35200510381836,67.14047717068146 25.39254607243648,67.05707860694717 25.4110790865613,66.98294655010267 25.40528751962572,66.66788530873795 25.404129206238604,66.52425444914975 25.377487998334924,66.45012239230525 25.343896910177588,66.38062358907827 25.473628009465592,66.1767604330148 25.46088656227635,66.07019560119296 25.419187280271117,65.87559895195028 25.39949595269014,65.72270158505802 25.398337639372063,65.60223699265983 25.427295474049973,65.41690685099735 25.482894516562524,65.29644225839203 25.559343200112213,65.20841044124735 25.729615268018335,65.12501187751305 26.48136065625693,64.96748125665808 26.870553954397106,65.05087982066854 27.274805326500758,65.19451068046386 27.360520517078335,65.25937623021143 27.479826795951332,65.26864273730837 27.54353403224274,65.26400948362182 27.646623923765148,65.23157670905871 27.747397188444282,65.18061091968039 28.02423408803416,64.98601427092099 28.2408386913559,64.80531738246177 28.297596047324607,64.76361810059463 28.463234861682263,64.67095302976338 28.550108365716,64.6107207334262 28.649723316938974,64.51805566238785 28.741230074521177,64.43465709844642 28.84200333920031,64.3790580560029 28.958992991368117,64.34199202761518 29.06671613643899,64.32345901362844 29.245096397985886,64.30955925263784 29.33660315556809,64.30955925263784 29.518458357276334,64.30492599936554 29.604173547922954,64.2910262386511 29.92155141599287,64.16129513915597 29.97830877203062,64.11032935019189 30.12193963203306,63.9759649974935 30.26904543212781,63.86940016567166 30.403409785102365,63.735035812973265 30.58526498687965,63.50337313554997 30.626964268746804,63.45240734630973 30.918859242369198,62.96128246996522 31.076389862947998,62.83155137067721 31.157471800046153,62.757419314039836 31.436625326341222,62.55355615797638 31.53044871069766,62.42382505848125 31.584889439961174,62.34969300163676 31.823501997638125,62.13656333840733 31.928908515865725,62.016098746285294 32.06906443570682,61.93270018255099 32.16172950667614,61.84930161860956 32.218486862644845,61.798335829369314 32.34821796207093,61.66860473015035 32.49764038900896,61.5898394196193 32.70034523175434,61.52497387028599 32.84281777830063,61.48790784169114 33.067530575470265,61.35354348899275 33.15672070620919,61.316477460328855 33.296876626050285,61.26551167136478 34.074104908805445,61.09871454368904 34.493414354941606,61.177479854151045 34.68106112365448,60.91801765522983 34.74476835994589,60.8624186125792 34.80036740266556,60.47322531478422 34.814267163241915,59.37051096990413 34.83164186397962,59.31954518114717 35.10500382333911,59.09251575734138 35.24979299672867,58.75892150157567 35.22315178882499,58.37899471067051 35.12932840446856,58.0129676803417 35.0273968264023,57.63304088922941 34.87102451921062,57.29018012698814 34.82353367033885,56.970485631936874 34.82353367033885,56.627624869419435 34.85249150501676,56.32183013542781 34.735501852848955,56.09943396510145 34.60577075356095,55.867771287678146 34.80847559630633,55.66854138502507 35.05635466108022,55.46467822868545 35.08415418244005,55.195949522805385 35.150178045436654,54.904054549321074 35.70385184447833,54.86698852114047 36.662935329079815,54.82992249247658 37.324332273123325,54.788223210609424 36.55057893052952,53.99130360041137 36.395364936586866,52.54109523981058 35.47450579389831,52.81909045251141 35.0273968264023,52.96272131279002 34.74708498678916,53.0692861443357 34.494572668397765,53.2314500181868 33.99418128516345,53.560411020335 33.223902882661946,53.92180479697726 32.089914076674916,54.463895462147775 31.903425621418204,54.56119378687268 31.18758794811118,54.927220816994364 31.130830592211513,54.95502033828516 30.79955296342716,55.260815072760074 30.570206912778097,55.55271004631342 30.117306378484596,56.21526530381309 30.117306378484596,56.53032654497069 30.160163973738864,56.877820561105636 29.943559370417123,57.22994783085809 29.88911864115361,57.29481338019141 29.49645040292112,57.01218491380403 26.8068467181057,55.22838229778273 26.269389306414613,54.816022732176386 25.49447765050273,54.22759953145217 24.959336865654915,53.84767274033989 24.77400672364724,53.67624235904665 23.388663912655932,52.42526390109893 23.357389451203787,52.402097633218524 22.56278646764188,51.878539982241875 21.71490106834166,51.37351534532101 21.050029184136804,50.937989512041376 21.085936899068372,50.868490708814385 21.384781752944424,50.30786702951905 21.487871644466832,50.085470858985566 21.499454778268955,49.83990842077879 21.4786051373699,49.61287899724916 21.45428055624045,49.33025053058562 21.47165525697816,48.78352661200473 21.443855735687364,48.37580029939452 21.406789707368677,47.91247494454793 21.370881992299026,47.5140151394489 21.352348978105162,47.435249829124984 21.091728466003953,46.17500486387321 21.081303645519906,46.073073286152166 21.05466243768527,45.88774314421353 21.010646528974842,45.75337879110089 20.772033971159807,45.401251521555565 20.344616331382866,44.81282832083136 20.012180389280438,44.27537090941643 19.95194809308134,44.23367162727312 19.832641814277384,44.17807258469153 18.809851093453535,43.78887928668943 18.417182855152006,43.63598191931389 18.13687101546982,43.529417087906296 17.968915574337927,43.49235105951857 17.709453375692878,43.469184791638156 16.658863133509193,43.48308455242164 16.105189334467514,43.47845129873509 15.930284013012926,43.422852256291584 15.782019899462018,43.36725321370999 15.60363963784608,43.26995488898508 15.46232540461787,43.144857043383624 15.35691888639027,43.00585943679157 15.316377917910234,42.871495084093176 15.295528276942138,42.727864224021694 15.32448611162005,42.53790082874171 15.581631683559907,40.89772907251574 15.621014338652827,40.75873146592368 15.667346874206528,40.652166634378005 15.727579170267543,40.57803457774063 15.844568822366307,40.44367022476608 15.981249802115093,40.355638407207145 16.744578324224854,40.049843673146476 16.783960979317772,40.03131065895261 16.852301469157645,40.00351113738566 18.194786684825644,39.46605372569457 19.111012574034778,39.09539344188634 19.325300550651324,38.993461863751044 19.439973575975856,38.900796792919806 19.532638646945173,38.81739822918551 19.62877865807584,38.70620014409136 19.717968788952852,38.557936030402374 19.75735144404577,38.36333938122872 19.756193130727695,38.20580876064992 19.70870228178688,38.01121211182148 19.60677070378967,37.77028292730125 19.298659342747644,37.084561402128294 19.232635479682006,36.945563795605274 18.8596585690305,36.08841188886292 18.79826795951333,35.875282225633484 18.801742899674675,35.703851844754496 18.837650614675287,35.588020506042845 18.92915737225749,35.44438964576424 19.244218613622213,35.15249467227993 20.145386428729793,34.327775540514914 20.717593241965332,33.808851143224814 20.973580500518075,33.554022198197266 21.012963155680033,33.47525688766623 21.0175964092285,33.40575808450828 20.999063395034636,33.30845975978337 20.933039532038038,33.21579468915925 20.831107953902748,33.10922985733742 20.69906022777147,33.00729827940925 19.83727506782585,32.386442303983856 19.530322020170942,32.15014637266689 19.190936197814853,31.899950681256854 18.83996724144952,31.617322214869475 18.3859083937689,31.297627719818205 18.173937043857546,31.13546384575998 17.862350742723212,30.91770092891304 17.61910493142875,30.76017030812712 17.418716715457602,30.61190619464525 17.194003918495085,30.463642081163382 16.97855762835334,30.389510024318884 16.76195302496256,30.310744714271127 16.522182153898488,30.21807964316373 16.17237151092027,30.130047825811918 15.793603033402224,29.986416965740432 15.45653383782037,29.89838514838862 15.193596698806846,29.796453570460454 14.901701725253494,29.72695476681922 14.294745510404459,29.527724864373265 14.127948382728727,29.393360511674878 13.947251494269516,29.347027975914056 13.781612679980901,29.305328694046903 13.523308794584885,29.208030369736242 13.282379610064657,29.12926505927424 12.963843428607627,29.02733348134607 12.666156888187732,28.930035156828286 12.316346245209514,28.795670803922775 12.156498997787441,28.730805254175213 11.989701870111709,28.6613064507411 11.915569813267213,28.61960716908107 11.334096493003782,28.346245209376377 11.017876938251943,28.20724760299144 10.743356665505337,28.068249996882667 10.489686033795868,27.929252390290607 10.29508938469126,27.8319540655657 10.190841179919817,27.78098827660162 9.876938252011252,27.632724162912627 9.652225454841615,27.544692345698895 9.568826890969227,27.52615933129791 9.228282755156982,27.37326196461278 8.967662243055775,27.24353086491053 8.698933537313794,27.160132301176226 8.4533710992451,27.155499047489677 8.40356362359909,27.160132301176226 8.235608182467201,27.178665315162966 7.9900457443985085,27.20183158304338 7.717842098357095,27.215731343826857 7.428263751577976,27.22499785092379 7.028645633091831,27.26669713279094 6.625552574306257,27.317662921755026 6.188868427432385,27.36862871071911 5.819366456873187,27.40106148548933 5.403531950898372,27.43812751408418 4.984222504762206,27.479826796227496 4.626303668281296,27.52152607809465 4.193094461361651,27.553958852795827 3.7540936876445063,27.58639162777317 3.332467614803149,27.665156937889968 3.0278311939915152,27.692956459387887 2.842501051983838,27.692956459387887 2.504273542945826,27.753188755517943 2.0664310826157974,27.799521290795482 1.7073539326096892,27.725389233950985 1.5822560868011095,27.70222296648482 1.2764613526714,27.563225359961802 1.0482736154094539,27.465927035444018 0.8096610575944184,27.331562682538504 0.5096578903312505,27.20183158304338 0.27336195935948887,27.081366990852306 0.14710580023283362,26.997968427118 0.06254892290428983,26.960902398730273 0,26.928469623752928 0.6451805566238784,25.112234232754293 1.2197039966336518,23.555461040331664 1.5382401780906834,22.851206500964846 1.8301351517130766,22.146951961598024 2.0038821597805483,21.799457945463082 2.1463547063268344,21.604861296427515 2.327051594717005,21.368565365593835 2.515856676886032,21.13226943448399 2.742886100760862,20.858907475400667 2.884200333920031,20.645777812240272 3.002348299405912,20.40948188092331 3.1436625327031633,20.03418834370469 3.228219409893625,19.733026862847286 3.279185198995791,19.501364185423988 3.3035097801252373,19.246535240534527 3.308143033673703,18.9639067737329 3.2988765265767714,18.64421227916492 3.266443751668469,18.37085031987447 3.2143196492482273,17.87045893636399 3.1784119343856982,17.55076444151984 3.1760953074733838,17.263502721722077 3.215477962704385,17.04110655139571 3.5027396826402306,15.725262543700433 3.8166426105487963,14.553049395593353 3.8641334594205716,14.400152028908222 3.9695399777172122,14.07119102676002 4.196569401592042,13.556899882949345 4.458348227011325,12.991642950105543 4.491939315237703,12.917510893053926 4.623987041368982,12.639515680353094 4.747926573790445,12.45881879168676 4.853333092018044,12.338354199495686 5.002755519094152,12.213256353687107 5.115111917506368,12.111324775551816 5.7556592207198625,11.610933392731743 6.807407776152584,10.563818090433243 7.120152390674034,10.202424313929065 7.326332173511726,9.845663790490066 7.450271705933189,9.669600155717403 7.622860400682585,9.456470492280848 7.846414884327024,9.169208772621165 8.020161892394496,8.93754609519787 8.200858780853707,8.654917628396245 8.330589880141712,8.40008868329966 8.505495201665342,8.010895385504687 8.623643167082182,7.7467999331040485 8.81823981611775,7.793132468450626 8.915538140704575,7.825565243220846 9.051060806997203,7.867264525295121 9.207433114188886,7.950663089029426 9.293148304904546,8.001628878407756 9.415929523869853,8.034061652970854 11.27849745035315,8.075760934838005 11.791630280914791,8.02942839976759 12.411327942953065,7.978462610527344 14.556524335892783,8.075760934838005 14.98510028912588,8.14525973847924 15.397459855008387,8.205492034333133 16.22217898663532,8.27499083749108 17.074697639484008,8.349122894542699 17.657329273341677,8.40008868329966 18.35000067869925,8.46032097963684 18.95579858016117,8.539086289684597 19.481672858050132,8.61785160021564 19.929940138795168,8.682717149963203 20.326083317189003,8.858780784735867 20.378207419609243,8.877313798722609 20.496355385026085,8.9143798273865 20.64693612535123,8.919013080796883 20.857749161806424,8.919013080796883 20.999063395034636,8.919013080796883 21.191343417295972,8.905113320220526 21.511037912140118,8.858780784735867 21.79366637859654,8.784648727891373 21.909497717308188,8.76611571390463 22.051970263923515,8.789281981508879 22.29984932883548,8.928279588100938 22.41915560770848,9.002411644531188 22.607960689808465,9.06264394107549 23.217233531500774,9.118242983242835 23.95160421879454,9.164575519003659 24.999877834134953,9.146042504809795 25.15161688791625,9.146042504809795 25.620733809767465,9.108976476145903 26.20452375680513,9.108976476145903 26.657424291167676,9.12750949054689 26.770939003036048,9.104343222942642 26.949319264651987,9.053377433909517 27.143915913687554,9.016311405314667 27.434652573922833,8.9792453768579 27.831954065634744,8.93754609519787 28.1493319337737,8.881947052616278 28.47018474193592,8.858780784735867 28.769029595811972,8.863414038146251 29.077140956784955,8.877313798722609 29.521933297437684,8.90048006660302 30.00958323341372,8.895846813123594 30.448584007130865,8.88658030581954 30.88526815414282,8.868047291625677 31.15168023324865,8.826348009758524 31.36944314988847,8.770748967107892 31.601105827311763,8.701250164157067 31.906900561510515,8.580785571965995 32.129296731836874,8.492753754614183 32.33895145504304,8.376922415902534 32.63316305530159,8.205492034333133 32.867142359430076,8.01552863877699 33.277185298469306,7.617068833885084 33.696494744605474,7.079611422193998 33.81695933686559,6.912814294518266 34.18877793412997,7.005479365349502 34.28260131855545,7.047178647216654 34.31966734687414,7.181543000122166 34.30345095945451,7.580002805221193 34.29418445235758,7.8765310323920525 34.36020831549226,7.992362371103701 34.62777870784712,8.17305925935579 34.89419078688391,8.279624091177629 35.08994574944468,8.27499083749108 35.356357828343384,8.349122894542699 35.65056942867097,8.497387007817444 36.199609974233226,8.566885811251556 36.51698784230314,8.464954233254346 38.244033102424766,7.825565243220846 39.2795652705069,7.237142042772797 39.990769690196416,6.653352095528011 40.638266873594524,5.527471483181753 41.301980444412266,4.633253548465913 41.73055639771441,4.281126278920586 41.954110881358844,4.2162607291730225 42.28886345023551,3.6278375287249736 42.43017768353276,2.988448538829555 46.01863255675057,3.7622018814233624 46.76690300482782,3.3776418370387735 48.39896656727493,2.3119935208225724 48.91325771115465,1.9737660117845608 49.35110017155372,1.6587047706269604 49.72639370897946,1.4270420932036647 50.31713353633982,1.0610150628058168 50.779300577868334,1.0146825273211577 51.054979164002056,0.9173842025962509 51.27737533439746,0.7181542999431757 51.51482957861826,0.6301224825223234 51.877381668785716,0.6023229612315278 52.37777305215812,0.7181542999431757 52.58163620815254,0.6764550180760234 63.6782784567284,0.12509784601570223 63.40144155720756,0.6764550180760234 65.22694345530313,0.13436435311263406 66.75012555943034,0 68.04280329945233,0.060232296061016016 68.31500694535566,0.3567605234389979Z"/></svg>