<svg xmlns="http://www.w3.org/2000/svg" width="256" height="256"><path d="M215.33609565534434,0.5289882370598296 215.40015282456386,0.534498531029084 215.52413444264914,0.4904161779612923 215.69908628130483,0.42429264827749497 215.8044706566062,0.38572058942528703 215.96151403949364,0.42429264827749497 216.55869216620886,0.5510294133473961 216.6881840782634,0.5730705901276213 217.09732341775594,0.68327647296132 217.60289290450217,0.837564708288042 217.64904161787004,0.8596058850682672 217.91353573635888,0.936750002772683 218.03338463367984,0.9863426501381682 218.2062701121984,1.0469558858527113 218.32060871538718,1.0745073561095322 218.64433849564665,1.1626720625735545 218.67740026044748,1.1241000034750173 218.81584640055232,1.11307941496174 219.00388518793793,1.1185897095057629 219.30006349753006,1.157161768357971 219.4171572479485,1.1847132391895603 219.6396353735875,1.250836768298589 219.80287783720956,1.3114500041773516 219.84489382997728,1.3169602979823865 220.05152985998257,1.4712485341302062 220.18859842655274,1.570433828368518 220.2864061474219,1.6090058874670552 220.42416350075874,1.6310470637546217 220.48133280239352,1.6090058874670552 220.61013592784687,1.6365573577238761 220.6493967735466,1.6806397108737776 220.7416942002823,1.834927946775268 220.9855247156064,1.8239073584262102 221.0640464070905,1.7688044170914707 221.17080835584446,1.6806397108737776 221.27619273122926,1.7908455933790373 221.33405081963073,1.8679897113297825 221.40637343005176,1.9781955940813714 221.4194603786996,2.049829417734423 221.42359309921758,2.187586771071272 221.41739401831742,2.270241183319711 221.4049958565171,2.352895594993381 221.4842063346845,2.4355500074881493 221.59096828360396,2.5126941251104555 221.87543721816243,2.7000441258948995 221.9477598287464,2.733105890449414 222.23498391045374,2.617389713400131 222.79427876491923,2.402488242605196 222.96785303012365,2.7386161844186683 223.05464016280797,2.8378014792317483 223.12627398646103,2.8984147146178523 223.1813769278779,2.9424970674393145 223.2013517440296,3.1739294212915503 223.21306111906324,3.3557691274498618 223.17586663374442,3.5816911867580745 223.12076369232756,3.7139382463719985 223.0367317067921,3.9288397175774827 223.11800854534295,3.9949632467686214 223.48788703897026,4.24292648285706 223.34737453864878,4.303539718489493 223.11318703797613,4.386194130491602 222.94167913315388,4.446807365877706 222.7260888750175,4.562523542926988 222.49259016119365,4.667219131134554 222.31626074884036,4.744363249331629 222.11100229236845,4.810486778522768 222.00975063774797,4.832527955056664 222.41751240362635,5.124573544295003 222.52702949952786,5.190697074225129 222.4333544991767,5.251310309611234 222.3624094622082,5.3284544275619785 222.25564751337214,5.400088250968701 222.17574824843678,5.449680898087857 222.16886038076993,5.653561781354832 222.1488855646182,5.6976441341762945 221.99390854211424,5.918055899761582 221.82377821066112,6.044792664503045 221.63849457050517,6.188060311891258 221.36849015796494,6.35887943027528 221.09986331887598,6.524188254197389 221.0537146055094,6.573780901316545 220.9855247156064,6.661945607534238 220.93111056112045,6.728069137218036 220.67350431038054,6.854805902287937 220.52059364809455,6.94297060850563 220.64182011903097,7.064197079277837 220.77337839146765,7.047666196959525 220.8587879505365,7.108279432674068 221.20524769417867,7.328691197684587 221.48558390821916,7.505020610119973 221.41050615065058,7.571144139803771 221.36849015796494,7.598695610306921 221.2617282090468,7.6427779634568225 221.15358868667735,7.686860316278285 221.04958188490804,7.714411786863545 220.97450412733946,7.73645296364377 220.88289548737046,7.775025022742307 220.77062324448303,7.841148551933446 220.72171938396633,7.879720611031983 220.75202600170172,7.934823552695162 220.81401681070201,8.006457376348214 220.91802361247005,8.11115296455578 220.9552180979544,8.315033847576426 220.92215633307146,8.386667671229478 220.8587879505365,8.485852966042557 220.8153943842354,8.546466201428661 220.7444493472669,8.607079436814766 220.72171938396633,8.656672083933922 220.9338657081051,8.783408849003823 221.14463445879258,8.93218679060762 221.9291625859638,9.483216203955015 222.05176663051571,9.692607380944917 222.19778942497067,9.802813263696505 222.27699990313937,9.87995738140092 222.36516460927496,9.929550028520078 222.46090596984277,9.979142676131891 222.7997890590527,10.276698559421595 222.79152361793462,10.326291206540752 223.0401756406255,10.524661795263704 223.22201534711226,10.502620618647699 223.19033115576266,10.458538265333578 223.3459969650346,10.447517677312959 223.52094880385323,10.41996620648137 223.5092394288183,10.513641206996756 223.51337214933758,10.585275030649807 223.617378951189,10.634867677768964 223.67661461304175,10.6734397368675 223.74755965001023,10.772625031105813 223.7881980692446,10.827727972768992 223.83710192984339,10.915892678658246 223.87360762831344,10.970995619828765 223.94868538588202,11.048139737779511 224.1243260113865,11.21344856194795 224.17805137918788,11.257530914769411 224.38468740919316,11.444880915225417 224.5713486230467,11.544066209710058 224.7008405351012,11.643251504441027 224.89714476368835,11.803050034393882 225.11135744820925,11.97937944658294 225.35656553706673,12.18877062357284 225.55355855225758,12.343058859474331 225.6933822658932,12.486326506534105 225.80289936179602,12.624083859870954 225.84491535464585,12.712248566088647 225.88693134733148,12.805923566604033 225.93721278138025,12.872047096205721 225.9868054285007,12.927150037376242 226.06463833313603,12.993273567060038 226.18035450993898,13.097969155267604 226.25405469397418,13.164092684951402 226.39250083407774,13.24674709711773 226.50408429036267,13.30185003828825 226.62531076129912,13.35695297995143 226.65699495248447,13.38450445045458 226.69556701158302,13.362463273674354 226.7258736291529,13.390014744505944 227.10883907159356,13.726142686565746 227.65504697740994,14.20553827650642 228.09104900072109,14.525135336247908 228.35554311912782,14.756567689853815 228.8108311719061,15.153308867053392 228.85973503234197,15.186370632100564 229.07945801091296,15.329638279488778 229.1256067242808,15.461885338774263 229.88809367500028,16.128630928678284 229.95146205753394,16.172713282074515 230.07131095493827,16.255367693748184 230.15672051417135,16.327001517893894 230.2855236393771,16.44822798874821 230.8661708836919,16.668639753758733 231.30492805406976,16.9606853432434 231.583886694659,17.192117696520867 231.904861327853,17.379467697223202 232.54198908703466,17.754167698135213 232.776865374474,17.847842698404268 233.7597640906145,18.55867064162241 234.56702218108634,19.24194711458373 235.137337623983,19.781955939664176 235.67183615493,20.195227999674724 236.01829589849004,20.47625300007135 236.35511262748076,20.779319177576635 236.62373946648762,21.01075153134676 236.85654939354478,21.187080943289487 237.33456740962365,21.611373591566984 237.73475252106718,21.95852212222217 237.97307274242206,22.156892710945126 238.22723505924642,22.487510358953564 238.32848671403113,22.57016477095567 238.61020050160496,22.90078241896411 238.78170840650935,23.08262212520453 239.0145183335665,23.297523596738454 239.2989872682892,23.584058891432772 239.39748377592505,23.666713303352772 239.62960491621556,23.94773830432416 239.83073065208734,24.239783893562503 240.07593874102693,24.62550448274146 240.37211705078326,25.093879484086745 240.57048763950624,25.396945661345704 240.9183249567626,25.953485368990794 241.08845528805278,26.223489781366798 241.1132516117355,26.339205958169753 240.52847164681933,26.675333900229553 240.22471668263074,26.647782429890622 239.8982317552224,26.59818978227881 239.78595951225287,27.06105448990117 239.72259112971793,27.320038314092336 240.23367091059762,27.849026550823726 240.3652291830356,27.920660374805216 240.89490620669662,28.251278022320996 240.93967734644897,28.956595671569882 241.42113929636128,29.09435302490673 241.82821227547166,29.193538319145045 242.12714573221263,28.802307435668393 242.39577257121948,28.444138317321023 242.59827588062464,28.55985449412398 243.18443341915506,28.873941259896213 243.38969187554486,29.02271920150001 243.56739886134937,29.165986848559783 243.62250180284835,29.226600084192217 243.86633231809034,29.595789791134973 243.77816761195476,29.617830967422538 243.81742845773786,29.728036850174128 243.93452220799207,29.70599567364023 243.93176706100746,29.777629497539614 243.9427876492744,29.854773615244028 243.9462315830257,29.904366262363183 243.92694555355854,29.964979498241945 243.89801650952202,30.014572145114773 243.7898769869871,30.130288321917728 243.71893195010202,30.201922145817107 243.71617680295319,30.339679499153956 243.74235070016928,30.389272146601552 243.80158636202202,30.449885381987656 243.8635771711878,30.549070676225966 243.86770989170583,30.598663323591452 243.84497992840653,30.68131773526512 243.84360235478977,30.730910382384277 243.9111034579248,30.846626559187232 243.99375787000903,30.92928097159989 243.99100272286017,31.006425089057977 243.92281283295844,31.09458979527567 243.8911286417731,31.210305972078622 243.84497992840653,31.292960384244953 243.7685245972212,31.414186855345598 243.73959555302045,31.50235156156329 243.5935727585655,31.673170679208326 243.5412249642975,31.739294209138453 243.4530602580798,31.87154126817761 243.35938525781202,31.9817471509292 243.304282316476,32.0258295040791 243.24986816190793,32.075422151198254 243.1382847057872,32.16358685741595 243.06182937460315,32.240730975366695 243.0287676098023,32.29032362248585 242.96057771998267,32.406039799206695 242.87447937414714,32.52726627030734 242.8324633812973,32.57134862337513 242.65613396910823,32.73665744705091 242.58243378507302,32.813801565001654 242.5259532702049,32.85788391831578 242.41368102715327,32.912986859239965 242.28487790186415,32.96257950660545 242.17811595294725,33.006661860001685 242.02451650397666,33.08380597762399 241.95426025377486,33.12788833077389 241.85576374613902,33.171970683595355 241.81650290043675,33.194011860457685 241.70698580453524,33.24360450757684 241.6477501426825,33.27115597832632 241.6119332308149,33.298707448665255 241.4858852525117,33.359320684297685 241.35294940645952,33.4419750962998 241.18970694275535,33.56320156707201 241.15113488382104,33.590753037903596 241.11462918518805,33.63483539097138 241.00235694221726,33.72300009694275 240.88801833894766,33.8607574502796 240.81982844912804,33.95443245079498 240.79709848582746,34.00402509791414 240.7158216472766,34.103210392152455 240.6710505075255,34.163823627538555 240.64832054422365,34.19688539258573 240.61663635287408,34.26851921632089 240.6063045513738,34.30709127541943 240.60079425724032,34.373214805021114 240.61043727197392,34.46137951099248 240.64418782354144,34.53852362869689 240.69997955172497,34.62668833491459 240.78125639027581,34.703832452619004 240.8563341476802,34.81403833537059 240.92245767728187,34.87465157100303 241.00373451583272,34.918733924152924 241.0657253247522,34.9407751004405 241.07605712625246,35.00689863037062 241.09052164843493,35.11159421857819 241.1235834132358,35.19975892504221 241.17661999427048,35.29894421928052 241.2289677886206,35.38159863128263 241.29646889167353,35.45874274923337 241.38187845074236,35.56343833768727 241.46591043619574,35.70119569102412 241.5106815760302,35.750788338389604 241.6084892968994,35.87201480924392 241.75037937091844,36.0263030450633 241.81512532690465,36.07589569193613 241.97974536422302,36.180591280472136 242.11268121019435,36.25222510437152 242.29658727698117,36.334879516373626 242.4074819462531,36.36794128092814 242.49013635833734,36.37345157547216 242.61411797625837,36.40651334002668 242.6919508809771,36.41202363432437 242.82488672686375,36.41753392829362 242.95231227869905,36.428554516806905 243.08387055113704,36.46161628168986 243.21474003688914,36.527739811045215 243.2829299267909,36.58284275221573 243.30634867685816,36.626925105283526 243.31048139745826,36.693048634967326 243.56877643496486,36.78672363548271 243.73821797948708,36.841826576817446 243.92694555355854,36.92999128254248 244.21623599556594,37.06774863587933 244.28718103261653,37.10632069497787 244.50346007727327,37.277139813444 244.6246865482097,37.36530451933326 244.73902515147927,37.447958931335364 244.8905582402319,37.574695696405264 245.01178471108625,37.68490157891053 245.11303636586965,37.78408687339517 245.22737496905842,37.81714863844234 245.36995382976204,37.866741285315165 245.51873177136585,37.93837510929666 245.59380952893443,38.00449863865202 245.61034041133485,38.08164275684909 245.7184799337043,38.17531775711815 245.80388949277312,38.24695158052487 246.05185272878074,38.417770698662565 246.13037442026484,38.49491481685964 246.18616614836498,38.59961040514931 246.20063067038325,38.671244228802365 246.1978755233986,38.74287805270175 246.26606541321826,38.797980993872265 246.38453673708793,38.88614570008996 246.44032846527148,38.93573834720912 246.4795893109712,39.0073721711085 246.5126510756912,39.11206775939817 246.56775401702595,39.22778393644745 246.64007662760991,39.349010407219666 246.82191633393242,39.54187070221969 246.840513576715,39.59697364355443 246.81158453243216,39.70166923184411 246.86530990031565,39.83942658518095 246.91421376066813,39.911060408834004 247.10087497460378,39.977183938517804 247.13669188630715,40.01575599761634 247.14702368780613,40.065348644735494 247.17595273200814,40.1259618801216 247.2351883939417,40.214126586092966 247.24207626161112,40.28025011602309 247.2785819603262,40.329842763142246 247.38672148269563,40.41800746935994 247.50794795363205,40.517192763844584 247.57338269638495,40.588826587251305 247.68289979228902,40.75413541141974 247.8867806753071,41.04067070611406 247.9081330650756,41.101283941746495 247.92810788122733,41.20597953052883 247.9646135798616,41.23353100111409 248.1092588009474,41.29414423650019 248.17400475701572,41.31067511873639 248.20431137466772,41.343736883865674 248.21464317616798,41.42088100181642 248.23737313963278,41.453942766124605 248.32829299275298,41.52557659027032 248.45709611804082,41.663333943607164 248.54112810365714,41.707416296510736 248.6595994274473,41.7294574727983 248.84832700151748,41.7514986493322 248.93373656058634,41.7294574727983 248.9785077004208,41.71843688477769 249.03498821537102,41.740478061065254 249.08664722287233,41.80660159099538 249.1231529214245,41.85619423811453 249.2113176276422,41.88374570894612 249.32978895142978,41.900276591182326 249.39040218698008,41.93884865028086 249.42759667229893,42.01048247401602 249.4510154223662,42.07109570940213 249.49303141521605,42.120688356521285 249.5749970403681,42.208853062738974 249.66316174650368,42.313548651192875 249.71964226137305,42.346610416075826 249.7657909747409,42.346610416075826 249.8050518204419,42.313548651192875 249.84362387945833,42.29150747441265 249.98689152692864,42.2804868861457 250.18319575551706,42.29150747441265 250.25827351292014,42.31905894524424 250.39396450603903,42.41824423948255 250.68601009503104,42.56151188736342 250.92570788983716,42.68273835813563 251.0731082579076,42.7764133585689 251.16402811119204,42.848047182304065 251.25494796439435,42.94172218224468 251.32864814834744,43.040907476975654 251.43678767071816,43.28887071281776 251.4670942885331,43.39356630110744 251.5235748033191,43.498261889889775 251.58556561232066,43.652550125462824 251.60622921540332,43.71316336117737 251.65237792877116,43.79581777285104 251.80666616450713,43.98867806785107 251.977485282564,44.21460012740561 252.05807333434817,44.291744245274245 252.15519226836855,44.4515427752271 252.16690164340218,44.495625127802235 252.22889245240376,44.56174865773236 252.27228601878699,44.63338248113908 252.30397020997233,44.69399571701784 252.32945532042177,44.76011924620898 252.3618282983738,44.85930454069362 252.39075734257455,44.930938364593004 252.4238191073754,44.97502071774291 252.52644833561135,45.0797163061968 252.56502039462777,45.14032954191134 252.61323546821228,45.22849424788271 252.6373430050475,45.322169247823325 252.66627204924825,45.42686483660566 252.68831322578214,45.702379543279356 252.68073657134863,45.889729543981694 252.721374990583,45.98340454392231 252.8005854689159,46.09361042700234 252.88461745436928,46.2644295448937 252.96796065305594,46.50688248701289 253.05474778565818,46.909133958674374 253.04166083725667,47.19015895915311 253.17941819059223,47.37199866555775 253.20834723462875,47.47118396037083 253.30615495549793,47.73567807869547 253.3715896983329,47.873435432032316 253.37709999246638,47.934048667500534 253.40878418381598,48.13792955043907 253.46801984566872,48.23711484467738 253.56651635330456,48.325279550648744 253.75868786129158,48.463036903985596 253.99218657511543,48.61181484558939 254.04728951645018,48.672428081303934 254.12994392845226,48.78263396405552 254.23188436992154,48.99202514079909 254.31453878200577,49.20692661208669 254.32762573049067,49.273050142016814 254.33795753207303,49.344683965423535 254.3476005467245,49.46591043619574 254.37652959092395,49.73591484914652 254.38823896595886,49.84061043735409 254.44747462797582,50.110614850058525 254.53839448117813,50.44123249806697 254.58178804739714,50.50184573378151 254.6961266506667,50.73327808705898 254.76500532733516,50.83797367584131 254.8896757321871,51.06389573539585 254.91378326893894,51.118998676237936 254.92962536465478,51.21267367675332 254.94891139403984,51.31185897123796 254.96130955584016,51.39451338291163 255.02261157807504,51.57635308964471 255.08735753414337,51.68655897214997 255.18998676237933,51.807785442922174 255.36769374818385,52.02268691420977 255.42555183658533,52.07778985587295 255.55366617526943,52.17697515011126 255.64320845485756,52.24860897376431 255.60463639592325,52.39738691536811 255.5495334546706,52.52412368043801 255.50751746182075,52.667391328072554 255.46894540296728,52.84372074050794 255.4455266529013,52.99249868211174 255.4365724248523,53.163317799756776 255.45310330725272,53.31760603590459 255.4978744471693,53.466383977508386 255.56813069728898,53.631692801430496 255.67075992552492,53.87414574297491 255.72310771979292,54.01190309631176 255.8863501834971,54.35354133266926 256,54.62354574553792 255.9827803308329,54.78334427549078 255.8863501834971,55.202126629224246 255.6590505506555,56.18295898514683 255.5150941163364,56.83868398727656 255.48892021912158,56.926848693165816 255.0067694824413,57.22440457645552 253.46801984566872,58.18870604981346 252.45688087217624,58.82238987483453 252.12901837139876,58.938106051883814 251.7116135906239,59.191579582269945 250.2004154246829,60.1062884082624 249.57981854781826,60.48649870314367 248.1264784701145,61.42324870591635 247.58164813766598,61.781417824838485 246.82949298844807,62.266323708255754 245.78460346338935,62.96613106320695 243.86219959757236,64.22798842001882 243.01981338199963,64.77350753915063 242.3255163210177,65.19228989337675 242.24286190909768,65.74882960077552 242.10303819537867,66.71864136843115 241.95563782730952,67.7711075480068 241.90329003304024,68.13478696089818 241.8488758786364,68.53703843255967 241.77793084158583,68.88969725669146 241.6029790027672,69.0274546100283 237.77194700655025,72.12423991312278 237.35316465240624,72.39975461979648 232.72107364645467,73.34201491686686 231.9799390855037,73.49079285847066 231.9103716219852,73.51834432930224 228.46850414894615,76.98982963298029 228.42511058256292,77.05044286869483 229.19035268043123,79.56313699331263 229.68283521852837,81.19969435128283 229.81439349096505,81.65153846989926 229.78821959391317,81.71766199958306 229.5230366886576,82.53869582555278 229.01264569462543,84.0154546531596 228.46712657541278,85.67956348179716 227.70119569077778,87.85612966435515 226.84296737957132,90.357803200706 225.47848079476984,92.25334438311371 224.0161864890171,94.21500909413778 222.97749604485725,95.60911351031724 221.47249695965218,97.63690175127144 220.15966938235198,99.41121646208583 219.35378886541355,100.50225470051367 218.6512263633135,101.31777823251416 216.98298481448637,103.27393265006162 215.33609565534434,105.20253559677751 214.69621274901257,105.96846648108406 214.71067727127715,106.0290797167986 214.7644026389143,106.82807236598812 215.28443664784302,112.10693414560984 213.50185649558208,113.67736797373203 212.33918443350117,114.68024150618851 211.8232831452547,115.67209445037804 209.93945133837326,119.0994974009883 207.98536328120795,122.8960900592803 207.43915537522864,123.55732535488661 207.17672761712066,123.92651506232204 206.86470721181269,124.33978712233258 206.5540643801202,124.73101800572712 205.98030500355435,125.46939741928419 205.3783053693081,126.24634889243247 204.8754910296273,126.89105330604892 204.31068588094752,127.62392242580096 203.67080297477995,128.4118944867235 202.99785830364735,129.24394890079597 202.58320867010215,129.72885478445957 202.15133936747452,130.2137606683695 201.5748248436777,130.93009890588533 201.0024430406452,131.62990626083652 200.89981381240923,131.7566430259064 200.52442502448423,132.21399743882054 200.29919175177847,132.4950224394635 199.98441619940377,132.86972244086817 199.64208917644382,133.29401508922777 199.03113531431276,134.0379047967541 198.583423915968,134.5944445046455 198.2727810841934,134.61648568093307 196.9310244626925,134.74873274021857 196.13891968100563,134.83138715222069 195.187016369448,134.91404156414066 194.07806967508637,135.02975774094364 193.57525533548898,135.0628195059908 192.9918529440253,135.6303798014102 192.24176415510618,136.35773862719296 191.42417426305198,137.15122098265954 191.1038884165438,137.47081804190836 190.70370330510025,137.9006209847299 190.3338248113908,138.2918518678781 190.0156053252648,138.61695922191728 189.43082536034987,139.22860187097922 189.38743179396667,139.2781945180984 188.88943896165395,139.8126930486348 188.58430642401282,140.1322901086226 188.52231561501125,140.19290334433717 188.19858583466964,140.54005187441757 188.0139909812804,140.73842246314055 187.93409171642713,140.8376077576252 187.95337774573005,140.9202621698736 187.67579667892053,141.14067393488415 186.39740843979035,142.14354746734062 185.96829428414605,142.46865482113347 185.32703380444386,142.95907099909476 184.96335439155376,143.2456062940354 184.08928398463144,143.9399033546889 183.8640507120078,144.1162327671243 183.7800187263902,144.18786659110577 183.64019501283542,144.28705188534408 183.47213104176447,144.43031953289653 182.85979960618218,144.90420482804686 182.52780438455827,145.16869894645362 182.0408321405112,145.54339894785826 181.51804298459916,145.95116071365322 181.33620327819452,146.0999386550107 180.57440511432387,146.70056071547725 179.65762992778502,147.4168989532394 178.8097334179967,148.06711366082513 178.51768782892387,148.30405630840028 178.207044997148,148.55201954448873 178.0410473863771,148.67324601550726 177.97492385685752,148.78896219206388 177.7131848854354,149.16917248751992 177.43147109786153,149.5879548414997 176.9520755083314,150.29878278504628 176.80329756672762,150.5136842563339 176.5153846982536,150.9434871983343 176.34663194033385,151.1914504346691 175.91476263778705,151.9188092599592 175.5800122690964,152.49739014389186 175.53317476887975,152.563513673822 175.24044039303894,152.90515191017948 174.87469462001172,153.312913675646 174.8140813844614,153.4616916172498 174.72040638427575,153.7372063239235 174.58884811191987,154.12292691334878 174.50757127336902,154.37089014976567 174.33606336846464,154.88334750401452 174.26649590502953,155.07620779843978 174.09016649267625,155.59417544723266 173.97031759527192,155.93581368359017 173.8304938817184,156.32704456673838 173.6383223737314,156.8615430980959 173.44477329237523,157.40706221689928 173.4068900201255,157.5172680998972 173.3669403876591,157.6164533941355 173.0390778868816,158.21707545484838 172.69675086367403,158.84524898565385 172.43363431880064,159.31913428154317 172.15329810484099,159.85914310662363 171.9673256777554,160.1952710484371 171.71867365506452,160.6416048735769 171.5306348676776,160.97222252158537 171.22756869033654,161.50672105245022 170.91692585856194,162.05775046579762 170.74059644629077,162.3553063487589 170.66138596820548,162.66388282023343 170.54015949726778,163.17082988075936 170.5167407471184,163.25348429243303 170.4692144602172,163.40777252833453 170.37485067326355,163.7659416469282 170.23915968014464,164.27288870745414 170.13102015777523,164.6861607674647 169.9836197897869,165.23167988676073 169.84930637020136,165.7331166524963 169.57379166352766,166.73599018495278 169.43947824410634,167.20987548034944 169.3409817364705,167.55702401100464 169.71086023009784,167.60661665837011 169.6688442374122,167.69478136434148 169.5634598620274,167.95927548266613 169.43465673665744,168.2788725422434 169.3451144569872,168.31744460134192 168.8299019555908,168.49928430774656 168.77066629357384,168.52132548436256 168.50754974870173,168.67010342596637 168.00198026195423,168.95663872090702 168.06259349758665,169.13296813309609 167.98338301925375,169.34235931008598 168.2954034245617,169.5958328404721 168.30229129231066,169.65644607561188 168.24443320390918,170.0862490184334 168.21412658609296,170.28461960715634 168.16109000505827,170.675850490633 168.12596187995737,170.8852416676229 168.11149735785702,171.02850931517534 168.07430287245606,171.35912696277322 168.01506721060332,171.7999504938617 167.928280077919,172.37853137779436 167.88764165868463,172.62649461388278 167.92965765153448,172.71465931985415 168.01919993112003,173.09486961522808 168.14800305657337,173.6128372635283 168.2919594908104,174.2024387357279 168.36910360859693,174.54407697233174 168.52339184433418,174.55509756059868 169.07511004444828,174.58815932515319 169.07373247091363,174.654282854837 169.08544184594854,174.94632844407533 168.96077144117868,175.10612697394606 168.87122916159186,175.34306962152124 168.71831849930584,175.80042403459956 168.61982199167,175.80042403459956 168.55507603568378,175.8224652112156 168.49859552081566,175.84450638774948 168.2037947845927,176.69309168405812 168.29815857162845,176.72064315488973 168.19415176994124,176.88044168451412 167.54118191504375,177.8667843346523 167.46197143687377,177.98801080575296 167.21745213478297,178.35169021864434 167.0369900018296,178.61067404250707 166.73185746418847,179.07353874963678 166.64713669188632,179.18925492668606 166.54864018425047,179.37109463284438 166.43774551489642,179.5639549278444 166.1498326464224,180.0929431646579 166.0444482710376,180.2747828708162 165.9521508443019,180.45111228300527 165.83230194689884,180.6439725780053 165.61671168900878,180.8313225787076 165.44658135755566,180.9801005200651 164.94996609885843,180.99112110833204 164.9079501060086,181.07928581454973 164.66205323030104,181.09581669711437 164.6751401789514,181.17847110878805 164.6682523112846,181.37133140378808 164.64758870820194,181.75154169866934 164.63587933333253,181.9884843462445 164.44233025173003,181.99950493475777 163.89198962514934,182.06011817047232 163.92711775025023,182.42930787708664 163.82586609562975,182.46787993593884 163.67708815402594,182.40726670079906 163.6743330068771,182.7158431720273 164.0063282284189,183.05748140838477 163.9891085592518,183.17870787915697 164.31008319252666,183.59749023346524 164.31972620734234,183.63606229256376 164.13788650085561,183.6636137630669 164.1075798832036,183.6195314097528 163.61509734494226,183.7958608221882 163.1584317186306,183.9611696463566 163.42705855763745,184.31933876470399 163.43876793267108,184.4130137654657 163.4559876018382,184.66648729552338 163.2376421967993,185.0411872964354 163.24935157183293,185.45445935644594 163.26657124100004,185.87875200480556 163.25417307919972,186.02752994640935 163.23075432913245,186.44631230063547 163.10677271112928,186.49039465353906 162.7396493645687,186.6006005360443 162.70796517321912,186.8099917130342 162.70934274675247,186.89264612552898 162.8650085560244,186.95876965488435 162.77271112928742,187.079996125985 162.96488263727446,187.0855064197079 163.20182528493172,187.20122259651086 162.87809550467222,187.46571671516395 162.42900653271198,187.84041671607596 162.0577504655513,188.1489931875505 161.98542785496733,188.21511671723428 161.75881700881033,188.45205936480946 161.68236167762626,188.54022407102715 161.05418814657446,188.50165201217493 160.5713486230467,188.47961083564104 160.19733740873716,188.47410054158968 159.88118428282908,188.48512112985662 159.52301516407115,188.51818289473957 159.07323740550845,188.56777554185874 158.70955799261708,188.56777554185874 158.23291755007028,188.5512446592941 157.7893388723269,188.5512446592941 157.41670523155074,188.56777554185874 156.96141717885456,188.57879612987935 156.49510853780933,188.7661461305817 156.251278022321,188.94247554277075 156.07908133064993,189.15186671976065 155.88690982282586,189.36125789732532 155.7395094546746,189.44942260321457 155.61966055727154,189.49901525066215 155.46192838778296,189.49350495611813 155.2973083504633,189.42187113271143 155.1547294897597,189.33370642649373 154.94533831276976,189.1408461314937 154.7345695622452,189.1408461314937 154.56237287057544,189.15186671976065 154.3226750756051,189.15737701430467 154.19800467083527,189.14635642603773 154.1001969499661,189.10778436693917 153.83294768457472,189.0141093664238 153.53401422783375,188.93145495475014 153.2784743373118,188.89839318986716 153.07734860144,188.92594466069878 152.94028003486983,189.00859907270086 152.7942572404136,189.24003142597834 152.7191794828463,189.526566720919 152.61517268107698,189.86820495727648 152.44641992315724,190.19882260561334 152.2370287461673,190.54597113569378 151.93740650265968,190.8820990777536 151.84648664945735,191.06393878448665 151.71974988438745,191.2623093732096 151.52344565580034,191.28986084404121 151.3457386699958,191.20169613782352 151.06058094867063,191.09700054904118 150.74305024914707,191.00332554901846 150.4930206528407,191.02536672563446 150.2664098066016,191.12455201987277 150.0122474896951,191.29537113776414 149.69747193732042,191.4992520210311 149.05001237671934,191.95109613989385 148.9404952807344,192.1715079049044 148.97493461906862,192.30926525824123 149.31037377460808,192.4690637883583 149.6017305768334,192.58477996491493 150.07974859283016,192.77764025991496 150.2099292918156,192.88784614242022 150.24161348300095,193.0035623194695 150.15207120341412,193.17438143736086 150.08457010027905,193.26805643787625 149.79527965818957,193.5215299676876 148.99215428823572,193.91827114570827 148.51275869862351,194.02847702821353 145.7321265215192,194.48583144104555 143.7876814792517,194.568485853294 143.51905464016272,194.568485853294 143.34754673525836,194.6015476178485 143.0699656683667,194.57950644156094 142.55268680658685,194.55195497072935 141.74405114249953,194.4141976173925 141.0290904785992,194.23786820495712 140.2342305499264,194.02847702821353 138.86078973707717,193.71990055665688 136.13526050138972,193.2790770261432 133.90772409785077,193.17438143736086 133.5839943175079,193.0035623194695 133.28919358145043,192.8217226127364 133.05225093362893,192.579269671192 132.9530656392264,192.49661525894356 132.55976839553182,192.1715079049044 131.96741177610124,192.1494667286168 131.62646232659256,192.28171378765597 130.8956595672214,192.60682114169515 129.23155073891354,193.2956079083794 126.79324558476921,194.6897123240662 122.11018435808302,198.42018145242807 120.62860402294521,199.48917851456835 118.73719556163027,203.74863587974372 116.50277129050659,208.23952559819656 116.74384665884607,210.7963020762106 116.71836154856086,211.1158991361984 116.48830676848833,211.73305207873693 116.33264095921768,212.14081384502455 116.13289279687925,212.46041090451973 115.76645823708535,212.950827082481 115.22713819860736,213.55695943716316 114.0403585996104,214.65350796964236 112.33974407283122,216.58762121057381 110.33055307433118,218.44459033339032 108.77182862124262,217.99825650882528 108.45154277473443,217.93213297889514 108.31240784786422,217.81090650836927 108.21184498001043,217.4417168014265 108.14503266355995,217.28191827130942 107.75242420663076,217.11109915341808 107.23101262425207,216.90170797634607 106.98649332199705,216.8906873880791 106.97065122636332,216.79150209334813 106.98373817501242,216.27904473885295 107.01679993981327,216.03108150301085 107.1586900136681,215.93189620877254 107.75517935361539,215.50760356049503 107.76551115511822,215.39739767798977 107.53270122797765,214.670038852207 107.68010159604809,214.4551373809194 107.8894927732022,214.27880796873035 108.2214879946619,214.06941679174045 108.53213082651861,213.78839179052272 108.70432751818967,213.5018564958284 108.90063174669467,213.1271564949164 109.17201373268617,212.65327119951974 109.2615560124385,212.18489619784603 109.28015325513769,211.89836090290538 108.85310545971136,211.44651678379628 108.90338689367931,211.03875501832977 108.86619240836046,210.92303884152682 108.77940527575825,210.80181237042618 108.74909865794203,210.6199726637752 109.22298395358501,210.02486089785268 109.52742770429523,209.76036677944592 109.69824682251503,209.60056824949305 109.81465178600256,209.39668736655452 109.81602935953593,209.28648148372082 109.8484023376522,209.17627560121556 109.95516428640614,208.90627118859322 110.00406814684072,208.58116383480038 110.00820086752294,208.42687559865257 109.95378671287278,208.3166697161473 109.66725141793214,208.09625795113678 109.41033395404102,207.9419697152353 109.10244626941399,207.8538050090176 108.71741446675667,207.5176770669578 108.31998450237985,207.17603883035397 108.02793891330575,207.06032265355103 106.99820269703068,207.4570638315717 106.15443890784249,207.2476726544997 105.1219475445828,207.04379177156113 103.86077897486605,206.228268239807 103.67274018748043,206.3439844162815 103.51431923114177,206.48725206366973 103.30010654670298,206.51480353474764 102.91576353089316,206.36051529859984 102.61958522121894,206.23377853352991 102.43636794136305,206.15663441607182 101.35290635736872,206.27786088692616 101.17382179802954,206.15112412185624 99.95053650031748,206.1180623569733 99.09712969647782,205.10967853030124 98.64184164361743,205.15376088361535 97.97302969316702,205.29151823695221 97.75192914106009,204.9939623534983 98.04259715660213,204.17843882199045 98.80508410748581,203.44556970223843 97.5191192140042,203.25270940773106 96.41155009325806,202.7953549946527 95.29364917076659,202.56392264104682 94.31832710914041,202.68514911190113 94.1785033955869,202.93311234798958 93.97600008618045,203.4951623493576 92.80299622243507,204.39334029303174 92.447582250826,204.43742264642796 91.94683427144784,204.39334029303174 91.50050044663517,204.56966970522078 90.53688776004391,205.18682264849832 90.16425411926774,205.7598932381333 88.6923167988635,205.68825941472656 88.22394179751822,205.66070794364865 87.70390778875372,205.57805353197497 87.71974988438745,204.88926676529073 87.63778425906992,204.60273147026797 87.34160594947781,204.28864470482418 87.28099271392749,203.9414961744153 87.21555797117459,203.7045535263475 87.03371826468783,203.32434323146623 86.67141642541192,202.98270499510872 86.20028627716412,202.80637558267335 85.65889987846819,202.38759322861142 84.68633296382794,201.97432116860088 82.92992670878311,201.57206969685728 82.32035042026754,201.14226675461055 79.81729931021911,200.7455255768362 79.607908133065,200.73450498856923 79.0355263300325,200.3708255759242 78.61261125520626,200.13388292785635 76.1019834907243,199.48366822002433 75.88845959297007,199.24672557244915 75.58332705532895,198.66263439454724 75.39873220185629,197.92425498049752 74.42616528738024,198.59651086461713 73.9019985578527,200.16694469298565 72.72072925298923,201.01001969524293 72.73657134862296,205.11518882484526 71.7874231842963,205.23641529561746 71.28460884445258,205.37417264895433 70.86995921090866,205.5505020613897 70.6722774089511,205.68274912018254 70.30928678282768,205.99683588595477 69.93665314205151,206.25030941609455 69.3690928463858,206.2888814751931 69.18587556644779,206.31092265148067 69.05018457332889,206.0739800036592 69.02952097032836,205.81499617979645 68.98199468342715,205.58356382594422 68.90002905827383,205.3411108843998 68.66859670466792,204.9388594126562 68.47229247608081,204.72946823533786 68.26703401969101,204.6633447059825 67.33235037730176,204.7680402944364 66.27506269044017,204.89477705925998 65.84319338764833,204.70742705855764 63.5378240796357,205.269477060172 62.50808786336192,204.90028735355767 61.9846099206819,204.77355058848775 61.26276138919681,204.84518441189448 60.663516902345734,205.27498735471602 59.815620392393214,205.19784323651893 57.38282553246574,204.94436970637912 57.453770569515044,204.34925794021026 56.207066521734454,204.83416382362753 54.15999225123098,205.67723882645961 53.637203095317645,205.5945844144575 52.92086485788392,205.3962138252419 52.433892613838154,204.16741823347718 52.29544647373462,203.7872079385959 51.64523176606681,203.24719911351548 51.575664302631694,202.8559682297925 51.76508066346987,202.48677852284973 52.68667735721127,202.72372117099968 53.01453985815297,202.63004617023796 53.27352368242625,202.40412411092973 53.16951688065693,201.4453329318695 52.918109710817184,201.08165351922443 50.89858691098108,199.45611674943908 49.696654003034965,197.30710203746634 49.66772495883423,196.41994468205914 50.908918712399235,196.91036086002043 52.079856215762454,196.71199027129748 52.778974783946964,196.28769762269152 53.29625364572683,195.5768696794734 53.76876136775434,195.43911232613655 55.05403747438714,195.20216967831504 55.5540966669999,194.6566505595117 56.222908617366905,194.3480740877087 56.01076229322944,193.411324084936 55.69116523356878,192.1439564343191 56.014895013829545,191.48272113822014 56.12165696274643,191.21271672609046 55.91639850627581,191.05842848994263 55.35779243849489,190.83250643063442 55.76624299113865,189.9673902515148 56.14507571281498,189.36676819104824 56.213954389483405,188.79369760141327 56.200867440834294,187.74123142183765 55.54514243895089,187.38306230316184 55.24345383522402,187.00836230224982 55.50381523294984,186.39120935930075 55.69874188792148,186.1652872997462 56.14025420544819,185.60323729813186 56.799423141165015,184.89791964888298 57.52884832708363,184.12096817598103 57.9014819678598,183.78484023416755 58.08607682133118,183.15666670262308 58.79001689680165,181.3382696386588 58.85476285294951,179.8780416933703 59.157829030291865,177.62433139286156 59.655133075755785,177.03472992066196 59.60554042863663,176.96860639073182 59.698526642139,176.80880786110743 59.623448884570415,176.45614903623664 60.34667498958888,173.28221961543775 60.6029036667133,172.16914020047602 61.01273179297254,171.40871961013872 61.12982554322804,170.65380931377067 61.100896499026014,169.09990636845944 61.21661267582896,168.28989313051034 61.16013216095958,167.2429372454787 60.824693005586916,166.20149165417004 59.5449271930863,164.6641195909308 59.016627743039486,163.93676076539435 58.12120494634997,162.3553063487589 57.05496303152276,160.43772399030993 55.77795236617228,158.2666681017212 55.27927074709288,156.8670533918188 55.27376045304152,156.44827103808535 54.876330488582596,155.9413239773131 54.502319274190945,155.80907691852025 53.6516676173359,156.073571036927 53.55041596271543,156.04601956609542 53.04760162295382,155.03212544561833 52.69700915871154,154.0623136779627 51.19889794117331,150.9159357279954 50.807667057778765,150.09490190177934 50.38406319618584,148.74487983924243 50.342047203500215,147.38383718811014 49.37774573014227,145.27890482953364 48.80811907401229,143.1243798232632 48.724775875243495,142.0388518785583 48.73579646359256,141.47129158322102 48.89352863308114,140.22045481459398 48.98720363343102,139.21758128271227 48.26053359449831,137.92266216101746 47.798357674135296,136.9473400996389 46.39598781708278,135.72405480184347 45.994425132107146,135.784668037558 45.70375711664851,135.8618121551803 45.5598006824115,136.0601827442317 45.36487402743986,136.3136562742894 44.9777758644812,136.54508862764897 44.50113542193571,136.72692833429994 43.38736722020728,136.80958274630206 42.80465361567452,136.7930518634911 41.97742070880463,136.75447980463886 40.86365250707621,136.62774303956897 39.86697805576622,136.45141362762624 39.164415553666174,136.19794009756853 37.92184422664991,135.59731803685565 37.52785819602441,135.43200921293356 36.8597350324228,134.90302097587372 36.48916775186457,134.65505774003162 36.2646232659255,133.8340239142261 35.927117750250225,133.35462832461388 33.844226567797065,131.71256067283863 33.46814899318747,131.1339797884133 33.75055156752801,130.5443783162137 33.91999311221444,129.56905625458882 33.71473465582465,129.06761948836058 33.39927031651904,128.92435184097238 32.9556916388565,128.96843419412227 31.465157075669683,129.37619596008145 31.310868839932414,129.36517537156817 30.495345308178265,129.21088713624144 30.08207324816772,128.9463930178347 29.48696148175253,127.90494742652601 29.17149714261115,127.5633091899222 28.62046772926375,126.64309006996048 27.851781697644135,125.66776800825347 27.284221401978424,124.95142977106607 25.423119558315484,123.34793417814305 24.821119924233457,123.6895724141721 23.697019921086877,123.38650623724159 22.61837984445935,123.00078564748786 21.84005079802404,122.20179299805203 21.21463241387475,121.35871799604105 20.780696750945783,120.7085032881269 20.415639764521025,120.25665916934626 19.96379564557616,119.98114446267257 19.383837188028025,119.87644887389024 18.150908875663227,119.87644887389024 16.692058503825994,118.87357534143375 15.45637504439446,117.88723269178824 15.074787175651387,117.61171798511454 14.441103350301882,117.0055856303503 14.249620629245772,116.88986945379368 12.380253344382622,116.12393856924079 11.904990475370491,115.92556798043573 11.549576503761422,115.3359665079898 10.982016208013604,114.77942680042682 9.922662160935344,114.48738121118848 9.705005542581013,114.32758268131774 9.659545615979853,114.16778415169333 10.261545250226103,111.89203267456857 10.125165470258402,110.92222090699505 8.874328701959813,109.8366929628649 8.491363259683373,109.67689443291204 7.138586049997626,109.0707620782299 5.689378692811864,108.41503707610018 5.349118030069847,107.6546164860092 5.351873177218694,105.88030177519481 5.306413250617534,105.47254000890719 4.236038615108107,104.69007824228233 4.656198542785496,103.04250029596307 4.714056631186973,102.8110679426856 4.548747807264864,102.60167676536726 3.3158194949000657,101.74758117508934 3.3034213330997493,101.6098238217525 3.6326614074927086,100.56286793589979 4.27874339472464,99.89061205202651 4.328336041843796,99.62611793337342 3.8944003789148316,98.22650322371737 4.493644865848015,95.14624880318753 4.090015820653157,94.47399291849317 4.028025011733685,93.54275321026451 3.8820022170324053,92.57294144236253 4.01424927623578,92.13762820606442 4.302162144791905,91.80150026400462 4.843548543323611,91.74639732234145 5.603969133743018,91.58659879271703 5.393200383219749,91.019038496805 4.763649278388239,89.71309878733588 4.722322072469294,88.93063702021836 4.605228322050863,88.52287525475184 3.64919229005735,87.44285760434461 2.5788176544658135,87.30510025100776 2.3005478007253783,87.1067296622848 1.8487036817805138,86.6052928963029 1.6861500050072515,86.17548995348137 1.7081911814590376,85.62446054013398 0.6447044136164534,85.04036936223207 0.3154643391413842,84.63260759619078 0.2520959566064337,84.00994435919033 0.4077617658770731,83.6297340637343 0.520722795695399,83.31564729820839 0.5400088250804481,82.3788972954357 0,81.97113552996919 0.36092426574254444,80.09763552458804 0.4449562513601321,79.53558552272737 0.781084193419934,77.53534875235843 1.2467040476984836,77.60698257601148 1.8459485347958866,77.67861639966453 2.439682727595596,77.56290022319001 2.804739714020356,77.43616345812012 3.13811250909553,77.31493698701946 3.747000010762293,77.01738110356555 4.39721471851222,76.6922737497727 5.012990087927935,76.38920757276007 5.631520604410388,76.08614139533688 6.256938988559682,75.8051163943655 6.8740919315908755,75.568173746544 7.494000021606697,75.3202105107019 8.182786788290942,75.00061345112462 8.671825392554645,74.70856786196839 9.291733482570466,74.3063163902248 10.06317466125682,73.782838447709 11.008190105147605,73.00588697480705 11.611567312763004,72.5540428559443 12.115759225975872,72.16832226619057 12.666788639323267,71.75505020618003 13.164092684951402,71.35279873476486 13.661396730415317,70.89544432135808 14.033341584424809,70.48217226134754 14.26064121751272,70.16808549582163 14.864018425128119,69.68317961215804 14.959070998848434,69.59501490594035 15.296576514523714,69.28643843471212 15.599642692029002,68.9943928454738 15.92061732522175,68.68581637424558 16.621802253624203,68.09070460750195 16.912470269247063,67.85927225422448 17.259618799573815,67.63886048839287 17.660492697784044,67.37987666453014 18.148153728760708,67.12640313414401 18.624794171141986,66.9445634279857 19.200619908090015,66.77374430951957 19.37970446742792,66.73517225091369 19.885273954256267,66.62496636791577 20.52033535305703,66.49271930912295 20.58508130912535,66.48169872085599 21.396472120361498,66.3935340146383 22.40072322618713,66.30536930842061 23.420127640797702,66.27781783783534 24.436776908423646,66.2667972495684 25.447915881998227,66.22822519046986 26.85028573888524,66.18965313161766 28.21959383113563,66.07944724911239 30.111002292368457,65.94720018949847 31.70761001754254,65.881076660061 33.53565009640464,65.81495313045932 35.15154385096376,65.66066489455783 36.69718135540321,65.53392812948792 38.15052143318908,65.39617077615108 39.6355457020782,65.2308619524753 40.61982199183421,65.06555312838897 41.699839641830884,64.8065693041978 42.792255453792094,64.45391047932702 43.99969865587168,64.00757665451563 45.08453781339937,63.55022224168363 46.33950730221596,62.999192828336234 47.464984878978015,62.43714282663978 48.54706888943896,61.77039723657154 51.12382018376894,60.216494291013994 51.88768470785755,59.748119289340266 52.305089488550315,59.533217818299 52.41667294467105,59.483625170933514 53.024871659653236,59.23015164112215 53.803200706088546,58.95463693444845 54.790232142747065,58.71218399232927 55.76211027045643,58.56891634494106 56.61138435377811,58.5027928155857 57.47512295920015,58.44768987392252 58.345060645522345,58.34850457943788 59.335536016096405,58.21074722610103 60.288816901187396,58.08952075557515 61.24829686717855,57.91870163735535 62.01698289879817,57.77543398980291 63.072893012125114,57.53849134222776 64.11709375041843,57.32358987094016 64.91126489232326,57.19685310562393 66.78200975071978,56.93235898721718 67.64161563554171,56.79460163388033 68.49364486584801,56.65684428054348 69.50616141287385,56.48602516265212 70.23558659887458,56.36479869155147 70.89751068165813,56.21051045597842 71.51741877167396,55.995608984690826 72.13388292777425,55.72009427801713 72.68835627503718,55.38947662968025 72.85917539317487,55.284781041472684 73.60444267464511,54.81640603979896 73.90475370500155,54.618035451322335 75.10393146579882,53.76945015476735 76.5483173154523,52.91535456416099 77.6448658480149,52.27065015054454 79.14573221270197,51.55982220708007 80.69688001119279,50.96471044091121 83.83843645403962,50.19877955627622 84.3557153159016,50.13265602634609 84.62296458129298,50.13265602634609 84.74143590524349,50.13265602634609 84.90054564826673,50.13265602634609 85.12577892105459,50.15469720287999 85.33517009804449,50.19877955627622 85.63272598125337,50.27041337968294 85.97092028369406,50.35857808590064 86.1920208357997,50.45776338038528 86.43171863060581,50.57347955743456 86.73753995501362,50.71674720474066 87.09157635308932,50.88756632296047 87.37604528781074,51.118998676237936 87.85268573035752,51.4771677954064 88.1068480471819,51.69757956041692 88.25906992270122,51.87941926715 88.41611330542312,52.039217796774416 88.6792298503786,52.22656779747675 88.99951569688679,52.37534573883421 89.46513555116661,52.540654563002654 90.06713518524737,52.76106632801317 90.78967250341702,52.998008975834665 91.06863114392415,53.086173682052355 91.51152103490212,53.19637956480395 91.87313408741134,53.27352368250836 92.47237857450875,53.3561780947568 93.00274438477351,53.40026044757826 93.5269111142215,53.411281035845214 94.00217398323235,53.38372956550628 94.58144365401252,53.268013388785434 95.14624880269488,53.0806633880831 95.62013409817364,52.821679563891934 98.20239568663709,50.953689852315826 98.76857840876943,50.408170733019794 100.38240580311061,48.7771236695115 101.01815598867806,47.939558961223455 101.40938687223682,47.44914278375482 101.69798852755963,47.074442782350154 102.03067253578602,46.6060677812512 102.36266775732783,46.09361042700234 102.72083687592152,45.603194249041046 103.09484809023107,45.15135012993196 103.63692327569368,44.512156010613204 103.99233724730274,44.12092512689022 104.3877008512974,43.68010159604808 104.8946479116591,43.16764424179923 105.07442125768159,43.00784571192848 105.35544625848875,42.74886188781942 105.67504331831236,42.45130600452972 105.96088982648632,42.17028100388677 106.22676151850855,41.966400120619795 106.59388486506914,41.72394717874694 106.88386409376238,41.50353541349009 107.13389369006748,41.31067511873639 107.51272641174381,41.101283941746495 108.13194571507506,40.787197175974256 108.90614204082816,40.44004864564751 109.66725141793214,40.18657511550771 110.33812972868259,40.09841040929001 110.98765564966583,40.076369232756115 111.7935361667685,40.076369232756115 112.60148304400701,40.087389821023066 113.93910694498993,40.10943099780329 115.97309426709062,40.24167805717088 117.2845442706932,40.29127070429004 117.98641798602783,40.31331188057761 118.58428489950848,40.31331188057761 118.93832129750207,40.31331188057761 119.39498692381373,40.31331188057761 119.88471431492493,40.357394233973835 120.42059041948868,40.4014765867953 120.86348031054875,40.50066188103361 121.36491707653067,40.627398646103515 121.57912976105158,40.676991293468994 122.0240860122475,40.78168688225133 123.63860219335665,41.15638688316334 124.9169904323226,41.442922178103984 126.08861672245122,41.77905012016379 126.96268712937352,42.10415747395664 128.09918529440253,42.506408945700244 129.03111378980842,42.820495711472475 130.56504191913214,43.39356630110744 131.54449670143924,43.82887953789821 132.3751735419783,44.170517774009376 133.21273825026637,44.545217775167714 134.2700259372088,45.00808248229742 135.03595682167958,45.289107483268815 135.0951924836144,45.30563836550501 135.69305939709633,45.63625601359556 136.45279120083117,45.95034277912147 136.50445020833376,45.96687366193244 137.3509691445053,46.16524425065539 137.4873489243088,46.19830601520991 138.59078532453697,46.407697192199805 139.32572080458905,46.62259866373373 139.92840922543775,46.782397193686585 140.88031253699538,46.77137660533753 141.78124562781838,46.655660428616684 142.8605744912126,46.42973836906214 144.09281401697493,46.214836897774546 145.25548607897372,45.99442513218926 146.34927946446828,45.76299277866546 148.20969252128245,45.38278248370209 149.4880807603292,45.08522660024816 150.5205721235902,44.8537942469707 151.70666293573834,44.578279540297 152.60621845302796,44.330316303880124 153.27640797709384,44.203579538810224 153.56018812488438,44.14847659772181 155.47501533643208,44.14296630367045 156.53712453049496,44.14296630367045 157.25897306206215,44.14847659772181 158.11995652041747,44.14847659772181 158.1881464103192,44.14847659772181 159.50992821558626,44.082353067791686 160.5437971522972,43.9005133618797 160.61060946874898,43.89500306733568 161.52462950813768,43.83438983194958 162.71209789390133,43.872961891048114 164.03663484615302,43.92806483213652 165.15797970239836,43.92806483213652 166.08095396975398,44.005208950333596 166.57068136078436,44.098883950602655 167.13824165661558,44.24766189196012 167.58182033427553,44.297254539079276 167.8022320996979,44.31929571561317 168.21688173324182,44.36888836273233 168.4841309986332,44.390929539512555 168.77893173485614,44.43501189241613 168.9724808162123,44.44052218696015 169.28450122160112,44.47358395151466 169.57930195766113,44.50113542234625 169.84655122321672,44.53970748119846 170.05869754735548,44.556238363681 170.32594681274685,44.594810422286876 170.574598835602,44.638892775683104 170.8501135422757,44.66644424618625 171.1366488371342,44.71603689363385 171.38461207322266,44.765629540753004 171.60571262524618,44.82073248184142 171.88191611868658,44.89787659954583 172.14916538424217,44.991551600307545 172.41365950256682,45.08522660024816 172.80489038604347,45.25604571863219 173.01152641604872,45.34421042460355 173.27395417423753,45.45441630743725 173.51227439542816,45.542581013654946 173.6741392856811,45.5921736607741 173.87664259508625,45.630745719544194 174.15835638274223,45.68033836699179 174.41527384663462,45.71891042551556 174.66392586932423,45.768503072881046 174.9497723775803,45.81258542578462 175.23561888575298,45.85115748488315 175.5393738497799,45.88421924943767 175.81488855645233,45.90075013200231 176.1475725647621,45.922791308536205 176.43755179353616,45.9283016028339 176.5532679703391,45.922791308536205 176.78263396364497,45.922791308536205 177.0877665012861,45.91728101456695 177.38256723750905,45.889729543981694 177.56165179684697,45.87870895571474 177.77793084150372,45.85666777885241 177.95908176114168,45.834626602318515 178.24906098999784,45.801564837764 178.52526448343824,45.74646189610082 178.80215676356318,45.702379543279356 179.08800327182053,45.64727660186251 179.35525253721192,45.58666336623008 179.6500532734336,45.531560425305884 179.92212404619175,45.476457483971146 180.2307005177497,45.42135454230797 180.4848628345728,45.38278248370209 180.78448507808045,45.32767954236735 181.05586706423614,45.27257660070417 181.31829482226073,45.222983953585015 181.55868140383353,45.17339130621953 181.82593066938912,45.118288365295335 181.96024408881044,45.0797163061968 182.107644456963,45.030123658831315 182.33425530312,44.94746924691132 182.55053434785884,44.837263364406056 182.77645640733127,44.7270574819008 183.0257972169531,44.58930012856395 183.2427650484586,44.44052218696015 183.44664593131503,44.28623395105866 183.6546595348537,44.12092512689022 183.9129545723603,43.917044243869576 184.10650365379854,43.77377659656347 184.24081707330197,43.65806041951419 184.41301376497304,43.50928247815672 184.5858992434929,43.371525124819875 184.68852847164675,43.28887071281776 184.83730641325053,43.13458247724471 185.03705457558897,42.92519130025481 185.19823067899307,42.74335159352173 185.3414983264634,42.61110453448258 185.4151985104986,42.48987806362826 185.54537920948405,42.29701776895667 185.6562738788381,42.13721923875749 185.76303582775628,41.993951591451385 185.9021707547086,41.79007070843074 186.05094869623028,41.5421074723423 186.212813586319,41.31618541278776 186.33679520440424,41.101283941746495 186.46697590322546,40.89189276475659 186.601289322811,40.66597070520205 186.71218399216505,40.45106923391445 186.86096193376883,40.203105998072346 186.99527535327226,39.99371482108245 187.1295887728578,39.76228246723021 187.246682523112,39.50880893709041 187.38099594269755,39.28839717183356 187.47811487671794,39.145129524445345 187.62689281832172,38.891655994387655 187.76120623790726,38.65471334681249 187.86796818666122,38.49491481685964 188.02087884886512,38.224910404237306 188.1090435550007,38.0155192272474 188.20616248910318,37.78959716769286 188.27641873938708,37.59673687269283 188.35494043070827,37.348773637097054 188.4114209455751,37.12285157754251 188.45412572510952,36.90795010600859 188.48167719577688,36.75917216465112 188.49614171795935,36.626925105283526 188.50647351945963,36.47814716367973 188.50647351945963,36.323858928353005 188.4975192914106,36.10344716252139 188.4892538502925,35.954669220917594 188.494764144426,35.83344275039172 188.50371837231077,35.624051573401815 188.50922866644424,35.502825102054835 188.51956046810872,35.32649569011211 188.5422904313272,35.04547068922283 188.56295403424562,34.79750745338072 188.5725970489792,34.63219862921228 188.57741855634598,34.53301333497397 188.59188307844636,34.384235393370176 188.58292885047945,34.27953980458784 188.57879612987935,34.092189804131834 188.57397462251257,33.97096333335963 188.58430642401282,33.8607574502796 188.61185789468018,33.745041273805086 188.62632241678057,33.59626333187285 188.63665421828082,33.48605744912126 188.61736818881369,33.375851566616 188.5815512770282,33.27115597832632 188.54091285779384,33.105847154239996 188.494764144426,32.95706921255409 188.4630799530764,32.797270682437016 188.40522186467493,32.54379715254354 188.37353767340744,32.39501921093974 188.36458344560478,32.23522068082267 188.33772076153858,32.047870680366664 188.3198123056061,31.893582444957833 188.301215062989,31.794397150226864 188.25506634961988,31.66215009118771 188.19583068760292,31.535413325871477 188.13246230506797,31.39765597253463 188.0312106504475,31.23234714861252 187.87072333381005,30.99540450079103 187.69577149499014,30.769482441482815 187.58625439908735,30.598663323591452 187.5270187371525,30.433354499176684 187.49533454588504,30.34518979320532 187.47811487671794,30.207432439868473 187.46916064891525,30.05314420421331 187.45607370026613,29.766608909026335 187.45194097974814,29.5517074382314 187.4574512737995,29.34231626074884 187.46778307529976,29.07782214234209 187.4925793988183,28.818838318233034 187.51530936211887,28.57638537660651 187.53459539158604,28.400055964171123 187.56765715638687,28.069438316162685 187.5965862005876,27.909639786538268 187.65719943613794,27.683717726983726 187.73089962009234,27.501878020250647 187.78738013495916,27.386161843447695 187.96302076046365,27.07207507816812 188.05118546659924,26.928807430615684 188.19032039355156,26.74145743015968 188.37078252634072,26.510025076553774 188.60152609317993,26.273082428485953 188.76339098335075,26.10226331059459 188.92525587360365,25.936954486426153 189.0237523812395,25.870830956742356 189.13877977127703,25.777155956801735 189.21730146259566,25.72205301513856 189.34541580127976,25.639398603464887 189.49419374288482,25.54572360319583 189.6691455815405,25.43551772019791 190.0156053252648,25.226126543454342 190.2559919067555,25.066328013583597 190.48260275315883,24.923060365702725 190.69888179781557,24.774282424345255 190.93031415150358,24.62550448274146 191.15692499757847,24.46019565857302 191.44277150575243,24.2783559523326 191.59637095472175,24.17917065809429 191.64527481515762,24.146108893047113 191.71759742565945,24.091005951630265 191.8298696687111,24.030392716490493 191.92836617634694,23.991820657391955 192.02686268390067,23.94222801002647 192.14671158138586,23.89263536315364 192.25209595660644,23.843042715541827 192.37745514814296,23.782429480155724 192.4759516557788,23.743857421303517 192.60888750174888,23.67773389161972 192.70118492848457,23.633651538551927 192.77488511251977,23.578548597381406 192.86718253925545,23.52895595001592 192.9353724291572,23.479363303143096 193.02491470890826,23.424260361808354 193.10412518707696,23.380178008412123 193.18677959899568,23.325075067323713 193.27150037138122,23.275482420204558 193.34864448916775,23.225889773085402 193.4264773938852,23.18180741968917 193.4781364013865,23.143235360590634 193.52428511475435,23.115683890005375 193.55941323977314,23.09364271347148 193.60142923254088,23.077111831399495 193.64895551952418,23.044050066352323 193.74538566677788,23.005478007253785 193.8135755566796,22.98343683096622 193.86867849809647,22.96690594840158 193.9279141599492,22.939354478062647 194.0153900793181,22.911803007313168 194.07324816771958,22.88976183069716 194.1242183884542,22.878741242183885 194.30605809486013,22.851189771598623 194.3652937567937,22.84016918333168 194.40868732325774,22.834658889362423 194.48514265419675,22.82914859506473 194.58777188243272,22.823638301341802 194.6628496400013,22.81812800679778 194.74343769170463,22.823638301341802 194.81300515513846,22.81812800679778 194.9300989055569,22.823638301341802 195.00930938372557,22.823638301341802 195.07474412647846,22.82914859506473 195.13673493556217,22.834658889362423 195.1883939430635,22.84016918333168 195.24211931078275,22.84567947762937 195.32615129640033,22.85670006564999 195.38814210540062,22.87323094846096 195.44255625988785,22.88425153672791 195.57411453232584,22.9283338897957 195.63197262072603,22.950375066411706 195.66985589297576,22.96690594840158 195.75319909166245,23.005478007253785 195.85307317291378,23.05507065461927 196.01218291593574,23.132214772323685 196.10172519568678,23.19282800795612 196.17404780610653,23.258951537639916 196.27323310059245,23.330585361292968 196.35726508604324,23.39119859667907 196.41787832151275,23.435280950075303 196.50742060126382,23.484873597194458 196.59696288085064,23.545486832334234 196.65068824865202,23.589569185648354 196.69821453563534,23.617120656479944 196.74023052832098,23.6501824213629 196.81668585942293,23.70528536220498 196.8655897198575,23.760388303868158 196.91173843322534,23.787939774699748 196.9627086540421,23.84855301008585 196.99852556582758,23.881614774640365 197.09702207346342,23.964269186888803 197.17761012516547,24.035903010541855 197.22238126499994,24.06896477509637 197.316056265269,24.157129481314062 197.39182280968637,24.228763304967114 197.42763972155396,24.250804481829448 197.4999623319737,24.316928011431138 197.538534390908,24.355500070037017 197.6659599427446,24.46019565857302 197.7623900900804,24.548360364790714 197.8409117815645,24.608973600176817 197.92563255386668,24.65305595357305 198.0124196864689,24.71366918895915 198.11091619418684,24.763261836078307 198.2163005693253,24.81836477741305 198.3216849447101,24.87346771858357 198.45186564353133,24.939591248513693 198.54416307026702,24.989183895632852 198.78386086507314,25.104900072353693 198.90646490954293,25.148982425257266 199.0035838436454,25.187554484355804 199.07590645414726,25.215105955187394 199.13651968969756,25.231636837423594 199.19300020448358,25.242657425690542 199.31009395490202,25.275719190573497 199.42994285230506,25.297760366861063 199.53808237467447,25.30878095512801 199.69099303679627,25.330822131661908 199.76056050023138,25.330822131661908 199.84252612554891,25.330822131661908 199.91071601536856,25.325311837692652 200.00576858917097,25.31980154339496 200.0794687732883,25.314291249425704 200.12423991312278,25.297760366861063 200.26475241344426,25.27020889652213 200.37564708287914,25.220616248910318 200.45830149496464,25.176533896088856 200.55335406868497,25.13796183723665 200.64702906903614,25.093879484086745 200.74277042952312,25.044286836721263 200.8178481870917,25.011225071920418 200.90325774616056,24.95061183678064 200.98660094509356,24.90101918941516 201.07338807753155,24.856936836511586 201.17463973231625,24.790813306909897 201.24833991626934,24.75224124805769 201.34339249007178,24.6806074240762 201.43775627710752,24.62550448274146 201.50801252739143,24.575911835622303 201.6870970866472,24.443664776501038 201.80005811646555,24.349989776067762 201.87375830041864,24.294886834650914 201.9460809109205,24.239783893562503 202.02391381563794,24.173660363878703 202.09348127907305,24.118557422215527 202.21057502932726,24.030392716490493 202.2911630810293,23.958758892344783 202.40687925783098,23.837532421818903 202.48333458901632,23.754878009816792 202.575632015752,23.6501824213629 202.6768836703725,23.545486832334234 202.73887447937406,23.451811832311506 202.83254947964312,23.314054478974658 202.8993617960115,23.203848596469395 202.95102080351282,23.088132419748554 203.0047461713142,22.98343683096622 203.04262944348181,22.906292713015475 203.10875297316562,22.746494183391057 203.15765683351808,22.641798594608723 203.20380554688722,22.54261330012408 203.25477576762185,22.421386829351874 203.31263385602205,22.30567065230259 203.36911437089014,22.17893388723269 203.41801823132474,22.07974859299438 203.47863146679293,21.892398592292047 203.5192698860286,21.771172121766167 203.568173746544,21.644435356696267 203.6039906584937,21.484636826825522 203.65358330561284,21.346879473488674 203.69697687183185,21.198101531556436 203.7603452543668,21.027282413418742 203.7975397398486,20.91156623661579 203.81958091630165,20.82891182469579 203.83266786495076,20.768298589309687 203.86021933561813,20.696664765574525 203.88019415176987,20.625030941675146 203.90499047537048,20.547886823970728 203.92772043867106,20.459722117999366 203.96973643152091,20.332985353011573 203.99866547572165,20.20073829339765 204.01726271850424,20.129104469990928 204.03792632134184,20.013388292941645 204.06065628464114,19.892161822169438 204.0661665787746,19.815017704218693 204.07787595380825,19.74338388056564 204.08683018177513,19.64970888005025 204.1054274244756,19.5339927032473 204.1543312849923,19.252967702604348 204.16879580701055,19.148272113822014 204.19083698354444,19.03255593726539 204.20530150572694,18.916839760544548 204.21976602774518,18.834185348296106 204.2314754027788,18.7129588775239 204.25558293961276,18.305197111482606 204.27280260877987,18.150908875909554 204.27900168968003,18.084785346225758 204.28313441028016,17.969069169669133 204.2989765059126,17.902945640067447 204.3017316529806,17.80927063955206 204.31068588094752,17.715595639611443 204.34650279281382,17.53375593287836 204.36234488844883,17.423550050373102 204.39127393264957,17.252730932153302 204.4202029768503,17.0874221083133 204.44637687406643,16.955175048699378 204.49252558743427,16.663129460035805 204.5042349624679,16.536392694965905 204.53729672718663,16.387614753362108 204.54487338170227,16.30496034111367 204.56071547733728,16.172713282074515 204.57517999935428,16.056997105025232 204.60961933768849,15.886177987133868 204.62959415400442,15.770461810330914 204.65025775692285,15.6271941629427 204.66609985255658,15.5004573978728 204.70811584532433,15.258004455835726 204.73842246314055,15.09820592621131 204.77286180147476,14.954938278330438 204.80041327206,14.83371180780456 204.8279647427261,14.662892689584758 204.8568937869281,14.492073571200736 204.88582283113013,14.310233864713986 204.90304250029595,14.177986805428501 204.92439489006318,14.084311805405772 204.9491912136638,13.946554452068924 204.9719211769644,13.814307392783439 205.00085022116383,13.709611804493763 205.0325344125147,13.62144709802974 205.07455040520034,13.494710333288278 205.0979691552676,13.41205592103984 205.1241430524837,13.32940150911984 205.15858239081794,13.235726508604454 205.1902665820033,13.125520626099194 205.22470592033622,13.0373559198815 205.24399194988678,12.960211801930756 205.28118643520563,12.877557390257085 205.31562577353984,12.778372095772443 205.35350904578956,12.668166213267185 205.40379047967542,12.502857389098747 205.42858680335686,12.409182388583359 205.45476070041005,12.315507388642741 205.47749066371063,12.238363270691996 205.50228698739338,12.150198564474303 205.52708331091188,12.023461799404402 205.54430298007898,11.913255916899143 205.57323202427975,11.79753973984986 205.59320684051357,11.670802974779958 205.6235134583298,11.599169151126906 205.63797798034804,11.483452974323953 205.66690702454878,11.400798562403955 205.68274912018254,11.29610297362162 205.71718845851674,11.196917679383308 205.749561436633,11.092222091093632 205.792955002852,10.987526502393408 205.8329046353197,10.926913267007302 205.88387485605432,10.827727972768992 205.93277871657102,10.734052972007275 205.9720395621899,10.65690885430286 206.02232099615787,10.557723559818218 206.06984728305906,10.486089736411495 206.12770537154267,10.392414736142438 206.2041607027267,10.293229441411468 206.2516869894637,10.216085323707052 206.32538717349894,10.122410323520105 206.37153588686678,10.067307381856926 206.64360665970705,9.742200028064072 206.85850813107675,9.56036032190576 207.08098625663365,9.389541203685958 207.34410280142365,9.235252968112906 208.10658975214437,8.69524414303246 208.46338129728682,8.408708848091813 208.68585942292583,8.221358847635807 208.8408364454298,8.083601494298959 209.02956401950254,7.912782376079156 209.17834196110508,7.758494140259776 209.27959361588978,7.631757375189874 209.51653626354704,7.235016197661859 209.7459022568529,6.816233843435729 209.98284490459227,6.347858841762003 210.19430244196434,5.929076488028531 210.36994306755093,5.587438251424706 210.4711947221714,5.405598545184285 210.64752413444256,5.030898544272275 210.6764531786433,4.920692661274357 210.68678498022567,4.876610308452895 210.80525630401326,4.705791190233092 210.92372762788295,4.507420601263809 211.00844840034932,4.331091189321082 211.10281218722085,4.176802953501701 211.15584876833765,4.088638247530337 211.2453910479245,3.917819129310535 211.39692413667842,3.6643455992528424 211.53743663699862,3.427402951102913 211.76266990970564,3.025151479687753 211.89836090274116,2.760657361281003 212.01820980022632,2.534735301726461 212.1415026313807,2.2757514775352945 212.2592851685658,2.011257359210654 212.37500134528665,1.7357426525369564 212.4865848014895,1.4712485341302062 212.57612708115846,1.1847132391895603 212.7448798389961,0.7273588257827823 212.83855483934727,0.4463338250577202 212.97011311178267,0 213.7153803932542,0.14877794160379693 214.0783710193789,0.18183970673307984 214.39727929227033,0.26449411840675013 214.81606164641562,0.38021029545603263 215.20040466222542,0.48490588415625746 215.33609565534434,0.5289882370598296Z"/></svg>