<svg xmlns="http://www.w3.org/2000/svg" width="256" height="256"><path d="M198.928053919491,1.138509544551977 199.25163578374583,1.2548535859423027 199.52275895096912,1.1800609880427655 199.66974718144166,1.138509544551977 199.8832177210413,1.0637169468381893 200.105517942392,1.0138552148845257 200.4311773788719,1.018010359332671 200.71528537198387,1.0346309364441706 201.1687154963754,1.1094235343437078 202.04960609319153,1.2964050288139264 202.14205805446937,1.3171807505593207 202.48537685414186,1.3670424825129843 202.85258773380295,1.3878182042583787 203.13877329913996,1.3836630596244839 203.15071933907237,1.4169042144047315 203.2229149717692,1.7119194612451525 203.30342089299083,1.824108358187333 203.35587959008527,1.8989009559011207 203.6259639712275,2.048486151762112 203.94487129805557,2.3351911098919915 204.11834857359656,2.472310872841962 204.32818336197434,2.5886549139846218 204.83355279048075,2.729929820763573 205.18881763020943,2.8005672742768812 205.4666929068359,2.883670160825043 205.61471992339048,2.9501524698902064 205.75755300953776,3.0291002122378887 205.8219577465646,3.0831170883920316 205.97621747966662,3.307494882090643 206.04166100277453,3.4778557990778634 206.10502695365838,3.747940180529659 206.1408650735175,4.03048999445906 206.21513827825265,4.31303980857421 206.34914168283458,4.549883034998093 206.39225130513742,4.603899910966486 206.61662909865123,4.832432849113243 206.97864604784502,5.160689250548162 207.1168045966284,5.264567858655968 207.4055871271681,5.418308198717439 207.723455667978,5.526341951025724 208.1104034832415,5.588669116076158 208.50358401492954,5.596979404724782 208.84898038682607,5.5720485387169925 208.88689607878544,5.509721373728476 209.01103101559713,5.563738250068368 209.23748638114927,5.393377332895398 209.4000564028999,5.297809013498132 209.57509185749964,5.102517229945874 209.7090952619587,4.982018044540818 209.84517623864187,4.982018044540818 209.9184106573569,5.019414343397712 210.07526735560066,5.098362085931144 210.13395876911966,5.148223817637142 210.26900095972172,5.243792136910574 210.48039392715918,5.468169930609186 210.61335854553718,5.626065414933052 210.79982064709068,5.775650610546377 211.07717653073854,5.900304940399577 211.30259311033248,5.946011527905096 212.01416157593286,5.946011527905096 212.55121397985022,5.946011527905096 213.06281612471926,5.962632105016596 213.1687723049892,6.103907012167045 213.23629340025929,6.2451819191317455 213.2440842959912,6.295043651085409 213.16409776762436,6.411387692289986 212.85921405282795,6.7022477950537604 212.6535344087745,6.9266255883808725 212.4561650534316,7.259037134449686 212.2863235291763,7.741033876131826 212.23853936944573,8.06097998891812 212.12427290046523,8.347684947481415 212.10141960680534,8.459873844237846 212.11544321877605,8.684251637564959 212.37565913208613,8.875388276669073 212.5018716409371,8.975111740142985 212.69404706599846,9.195334389641117 212.760009982085,9.307523286211799 212.85194255026042,9.52774593552418 212.84622922681447,9.777054594797168 212.78442145505224,9.885088347353118 212.67950406080047,9.997277244109549 212.4660335211399,10.163483017205873 212.33099133059974,10.337999078826988 212.2276321155325,10.554066583505476 212.20685639391093,10.72027235641605 212.23750058330273,11.148252221758296 212.25360176755945,11.447422613170696 212.23282604593788,11.555456365726648 212.20010428444584,11.60531809768031 212.07285298945186,11.717506994436743 211.9378107989117,11.875402478512942 211.71135543329862,12.257675756721168 211.54878541154798,12.465432972936782 211.47918674411574,12.585932158156089 211.44854255472393,12.69812105491252 211.4454261964807,12.818620240131825 211.48593885370565,13.088704621583622 211.48490006756168,13.757682857735979 211.48490006756168,13.799234300979101 211.48697763972382,13.957129785302968 211.50204003789946,14.090094403557126 211.6033216808665,14.214748733410328 211.6687652039125,14.256300176529617 211.90405025127666,14.306161908483281 212.0666202730273,14.302006764035136 212.21880243384334,14.31031705268376 212.44421901343728,14.356023640189278 212.8290892564767,14.518074268899372 213.36042833701003,14.75907263995715 213.57389887660966,14.871261536527832 213.88086016356823,15.033312165237927 214.24495468498608,15.145501061994358 214.32961575065588,15.191207649499876 214.5321790364042,15.299241401808162 214.7482465412694,15.419740587460883 215.05209147004567,15.415585442826988 215.27854683565877,15.353258278209971 215.5714845105847,15.216138515259999 215.89922151910292,15.062398175631944 216.40043580322308,14.742452062597984 216.62481359673595,14.671814608960844 216.7468709612626,14.64688374320072 216.8185472009189,14.63441831010395 217.06370071599142,14.62195287700718 217.14005149295065,14.613642588358555 217.17329264760707,14.62195287700718 217.22886770294377,14.63441831010395 217.29171426078807,14.705055763555341 217.34469235092303,15.149656206380586 217.36754564476868,15.847720452741212 217.37637532645783,15.972374782408664 217.3820886498428,16.05963281321922 217.3919571176121,16.138580555566904 217.4049419436246,16.188442287458653 217.45272610335516,16.379578926191265 217.48440907888997,16.483457534299074 217.52699930815223,16.603956719889876 217.54881381585488,16.65381845147204 217.5877682938953,16.832489657479385 217.63659123976788,17.16905634774868 217.62568398585466,17.37681356396429 217.60958280159892,17.4308304403661 217.4797345414632,17.675983955438607 217.43662491916035,17.734155976040896 217.39039893855238,17.78817285219504 217.24341070814177,17.962688913939985 217.16290478673437,18.066567522047794 217.13226059734257,18.207842428826744 217.1270666669372,18.328341614479466 217.12810545301826,18.62335686125797 217.1270666669372,18.685684026308405 217.11823698524802,18.797872922879087 217.09330611930216,18.922527252732287 217.0714916115995,18.993164706369427 217.02786259619424,19.10535360312586 216.92346459504589,19.23000793260756 216.85023017633085,19.292335097657993 216.53859435200647,19.53748861291625 216.3297983497717,19.662142942336036 216.22747792072357,19.778486983354863 216.2046246270637,19.89898616894567 216.2108573434273,20.011175065702098 216.24254031896112,20.061036797470013 216.31110020025037,20.115053673809904 216.598843944709,20.314500601376892 216.68142743815565,20.422534353747096 216.71311041362756,20.497326951460884 216.72505645355997,20.754945899815908 216.70324194585734,20.995944270440273 216.7022031598372,21.1081331671967 216.7053195180814,21.36575211536598 216.70895526930326,21.49040644521918 216.70895526930326,21.689853372786168 216.71518798585166,21.810352558005473 216.71726555795286,22.01395463014444 216.71986252315457,22.130298670977517 216.72194009531674,22.192625835966034 216.77959272287848,22.338055887193132 216.87516104233768,22.50841680455185 216.98527236687002,22.620605701308282 217.13589634862635,22.6663122888138 217.41221344631694,22.712018876505066 217.85993024713775,22.80343205176377 218.0225002689503,22.857448927732165 218.10612254835326,22.886534937940432 218.20324904699694,22.940551814466076 218.6660282461172,23.19401561800146 218.97870285652075,23.339445669414303 219.14646680861486,23.405927978479465 219.3240992284792,23.60121976178406 219.39941121929448,23.642771205089097 219.5375697680798,23.646926349475326 219.71624097402426,23.60953005043268 220.14318205340928,23.44332427752211 220.29692239334594,23.418393411761986 220.53116865463,23.41423826712809 220.94460551489908,23.418393411761986 221.27286191658166,23.46825514365373 221.33934422570874,23.489030865027626 221.5559311236135,23.60121976178406 221.94391772502001,23.875459287436335 222.11375924915242,23.941941596315747 222.94374932805763,24.22864655487904 223.38886916373863,24.33668030718733 223.70050498806108,24.37823175049237 223.96331786651194,24.382386894940513 224.2702791534705,24.38654203914099 224.68735176508525,24.423938337997885 224.7569504325175,24.42809348244603 225.04677174913826,24.469644925689153 225.1179285956302,24.507041224731797 225.28309558252064,24.694022719263934 225.33036034921068,24.818677049055218 225.45657285806166,25.02643426527083 225.48565886833183,25.09707171859839 225.52721031163688,25.155243739200678 225.54279210279114,25.1967951824438 225.56097085927192,25.263277491508962 225.57863022265025,25.329759800945624 225.64043799441248,25.4461038417787 225.71367241319038,25.558292738535133 225.73548692095494,25.579068460280528 225.79210076225084,25.637240480882816 226.02946338183813,25.80344625360764 226.31720712623482,26.04028948021727 226.545740064072,26.18156438718197 226.69376708062563,26.231426119321384 226.77531178799026,26.277132706641154 227.0936997219026,26.493200211505393 227.52583473163108,26.858852912168704 227.63386848400128,26.983507241836154 227.66762903163632,27.01674839667832 227.8712311035276,27.187109313851288 227.90603043724371,27.220350468260037 228.0249714435891,27.345004798113237 228.0587319912241,27.34915994231372 228.49658032439854,27.403176818715526 228.96715041912688,27.544451725680226 229.75039512419784,27.797915529401358 230.15552169581827,27.802070673787586 230.43755211683097,27.89763899324677 230.57934641689812,27.939190436366058 231.20885078203145,28.084620487964653 231.522564178517,28.213429961832585 231.789532201416,28.35886001343118 232.00715788546376,28.570772373661523 232.29594041594154,29.023683104949644 232.54421028925728,29.580472444531317 232.59199444898687,29.78407451654645 232.66315129554073,30.004297165796917 232.85896247188586,30.199588948977677 233.0443857873583,30.419811598228144 233.24123574966066,30.56939679365572 233.3710840097964,30.615103381408904 233.9122915580371,30.793774587416248 234.19432197904882,30.951670071492448 234.6202242723537,31.24668531870437 234.7573440349941,31.292391906209886 234.90017712114332,31.309012483321386 235.48605247093326,31.608182874733785 235.87300028607194,31.915663554856724 236.09737807970865,32.140041348183836 236.21476090674662,32.25638538957416 236.50925676073226,32.426746306747134 236.59184025417798,32.597107224105855 236.66247770769127,32.705140976599886 236.7715502462664,33.00015622344031 236.87958399869754,33.17051714061328 236.9232130141038,33.232844305787545 237.05721641856286,33.369964068366016 237.27068695816249,33.50708383106832 237.56985734951297,33.606807294975646 238.01965172262075,33.79378878926012 238.10690975343033,33.82702994404036 238.17650842086255,33.851960810048155 238.83665697544959,34.092959180672516 239.5165424655152,34.379664139050064 239.62197925268268,34.48769789179176 239.7419590450472,34.703765396656 240.43690693328844,35.71346546734005 240.53143646666652,35.89629181754787 240.87267769430068,36.92676760979156 241.09134216442953,37.94477796930998 241.110040313827,38.03619114456868 241.2263843550316,38.67608337032702 241.22898132011045,39.34090646246465 241.22898132011045,39.98910897687161 241.2243067827456,40.649776924375345 241.22222921058344,41.0403604912322 241.20716681240782,41.87138935609465 241.16665415524577,42.124853159815785 241.05031011416503,42.49466100474149 240.88254616207092,42.80629682906491 240.68985134403093,43.06807092124892 240.28108902112672,43.67887713679899 240.08735541706758,43.91572036340862 239.95750715693282,44.09439156923021 239.772603234439,44.28968335278247 239.58302477464227,44.522371434758206 239.34566215511592,44.82154182598486 239.13842433194085,45.04591961968347 238.91612411059015,45.249521691512854 238.69174631707727,45.419882608871575 237.9318742988306,45.93512050496246 237.32833958566232,46.50437527745515 237.21511190282482,46.629029607308354 237.0473479507307,46.85340740063547 236.65416741910457,47.376955585808396 236.29215046991078,47.696901698594694 236.14723981147657,47.91712434765941 236.1171150151243,47.97945151270984 235.91091597809321,48.53624085210577 235.89793115207974,48.785549511564504 235.91974565978236,48.98499643913149 235.89793115207974,49.17197793384938 235.83820095235583,49.3714248611687 235.70939147830217,49.61657837642696 235.5909698651831,49.724612128797155 235.50163426208653,49.770318716302675 235.33075395181112,49.83264588135311 234.82174877202095,49.93236934501277 234.67060539722408,50.019627376009076 234.45609607154339,50.177522860085276 234.31845691586247,50.35619406609262 234.16263900370075,50.60134758116513 233.78400147702396,51.033482590893605 233.7029761627618,51.14151634326381 233.51235891688395,51.482238177981245 233.3544634324982,51.71077111594225 233.28382597904678,51.89359746615008 233.27967083478342,52.3091118985813 233.258895113039,52.43376622824875 233.19656794823624,52.58335142386208 233.1139844547905,52.5625757025501 233.03347853344602,52.60828229005562 232.892723019458,52.68307488776941 232.6615931164191,52.73293661966115 232.25438897263652,52.64983373329874 232.1728442652719,52.65398887756113 232.01702635311017,52.68307488776941 231.8700381226386,52.749557197020316 231.7370735042606,52.85759094951435 231.62488460756416,53.032107011135466 231.56515440790312,53.14429590770615 231.4649115510791,53.25232966020018 231.20573442385012,53.597206638994265 231.0779637358156,53.755102123256215 231.0660176958832,53.809118999843776 231.11068549743146,53.8672910201984 231.24572768790972,53.9753247725686 231.3470093308148,54.137375401278696 231.34597054473375,54.20385771052961 231.26442583736912,54.42823550385672 231.09977824351824,54.69416474086037 231.04420318818154,54.744026472814035 230.64894508433036,54.96840426614115 230.5190968241956,55.08474830709806 230.4552114802093,55.19278205946826 230.43755211683097,55.2467989359939 230.47910356013602,55.48779730668018 230.56064826750065,55.75372654349808 230.52896529196585,55.96979404836232 230.5149416798713,56.27727472823759 230.5575319091955,56.39361876944217 230.67283716425706,56.50165252193621 230.80787935479722,56.55566939815226 231.11276306953172,56.642927428715154 231.27065855391749,56.68447887202019 231.47893516317365,56.79666776877663 231.53243264628628,56.854839789193164 231.58593012952468,56.97118383058349 231.66851362297137,57.08337272733992 231.77758616148358,57.195561623910606 231.83627757500258,57.29944023201841 231.93444285966447,57.24126821141612 232.27516469431998,57.07921758270603 233.13008563898532,56.78420233586561 233.40692212959263,56.72603031551098 234.0135732009422,56.692789160668816 234.36779925458984,56.696944305116965 234.54387349533258,56.6803237277578 234.89498319073792,56.692789160668816 234.9754891120824,56.70940973815182 235.1988281194523,56.83406406763352 235.6179783031673,57.137389603308314 235.8096343351262,57.262043933161515 235.87715543039627,57.29112994355553 235.9524674212744,57.29944023201841 236.3555164207956,57.195561623910606 236.68429221539392,57.099993304451424 237.02293647788727,57.02935585118578 237.20732100721673,57.00442498499224 237.30081175451375,57.00026984079176 237.54492648356708,57.012735273826614 237.84565505410112,57.12076902619682 237.98381360288448,57.12492417058304 238.1931289981598,57.11661388193442 238.3312875469432,57.149855036405086 238.48502788700466,57.24126821141612 238.64603972957175,57.41578427322298 238.75926741247022,57.52797316997942 238.84029272673337,57.56952461303679 238.9903973153872,57.577834901685414 239.3986402453128,57.51550773688265 240.12838746720826,57.386698263014715 240.56675519342318,57.307750520667035 240.79113298693605,57.32021595376381 240.85865408220613,57.3409916755092 241.06848887058388,57.44902542763173 241.20145348896187,57.544593747090914 241.2601449026047,57.64847235519872 241.3692174411798,57.756506107940424 241.36817865503684,57.81052298409457 241.4305058198396,58.02243534451066 241.56295104523898,58.09722794222445 241.64293757342102,58.209416839228545 241.7842124805086,58.25927857112029 242.02157510003494,58.267588859768914 242.24283653530455,58.2218822718919 242.29529523239805,58.17202054037165 242.5118821303657,58.09722794222445 242.66562247024044,58.02243534451066 243.1045095895588,57.86453986006296 243.2535753921316,57.83129870565421 243.47379804132112,57.86038471604823 243.61091780408438,57.92686702505148 243.67636132713037,57.98088390126754 243.74284363631938,58.09722794222445 243.70700551652217,58.20526169459465 243.62286384401676,58.30914030270245 243.63480988388628,58.4670357873359 243.61870869969246,58.62493127165977 243.7537508902326,58.71218930222266 243.95423660381874,58.83268848787538 244.02591284347506,58.83684363189011 244.46064481834335,58.79944733303322 244.65541720854645,58.82437819897909 244.9265403757707,58.944877384631816 245.13170062672074,58.98227368348871 245.26466524522257,58.98227368348871 245.40282379394404,59.015514837897456 245.521245407125,59.136014023302515 245.64693852293547,59.352081528414416 245.72069233469202,59.40194326030616 245.79288796732595,59.41856383766533 246.19126242942036,59.3354609508695 246.4332995864354,59.23573748720984 246.5745744934001,59.15263460084743 246.72831483333772,58.99889426060021 246.89088485508836,58.71218930222266 246.97450713455322,58.4670357873359 247.0124228265745,58.41717405544416 247.0856572452905,58.367312323490495 247.2347230478633,58.3299160246336 247.3832694574565,58.3299160246336 247.67516834630135,58.39639833369876 247.95512119509092,58.491966653343695 248.3992022447518,58.48365636469507 248.5430741169811,58.525207807566694 248.61475035669932,58.57922468409234 248.6531854416373,58.6290864156745 248.6692866258321,58.74543045706483 248.6521466555572,58.978118539040565 248.60540128190772,59.214961765464444 248.6183861079212,59.27728893045296 248.67707752144017,59.3354609508695 248.8199106075884,59.37701239417454 249.0255902517038,59.40194326030616 249.1933542037979,59.44349470342545 249.4437016492758,59.48504614666857 249.75118232927395,59.543218167085115 250.1516343635305,59.73019966198875 250.36198854501072,59.692803362884185 250.58117240805626,59.70111365159473 250.6440189660244,59.72188937327821 250.72608306642857,59.75097538330073 250.86112525703064,59.85900913585668 250.88293976460946,59.913026012010825 250.87203251075812,60.025214908953004 251.07563458264846,60.195575825940224 251.35974257582427,60.39086760949248 251.65060267852613,60.685882856270986 251.83498720804133,60.972587814648534 251.88381015372914,61.08477671140496 251.9373076369656,61.292533927620575 251.91757070136322,61.40056768036228 251.86095686006828,61.504446288470085 251.8214829889254,61.5626183088247 251.82407995406618,61.61248004059262 253.78790504034427,64.72052799517819 249.5039512419783,69.13744641204596 248.92950253920407,69.32027276212995 248.7742040200829,69.34104848406109 248.63033214779168,69.39506536002948 248.1878092772524,69.67761517414463 247.69023074441506,70.0432678746222 247.46585295090316,70.18869792603505 246.7667499183376,70.57512634807225 246.68572460401353,70.62083293594927 246.5574345230623,70.70393582231168 246.57249692117603,70.82859015216488 245.80379522117826,72.95602404590318 245.74925895198356,73.12222981918525 245.6781021053678,73.2302635713697 245.65992334894798,73.33414217947751 245.6749857471865,73.38815905563165 245.85469573915108,73.54189939569312 245.90611565016445,73.56267511743852 246.13049344367826,73.64577800380093 246.80674318245912,73.91170724080457 247.09968085738507,74.05298214776927 247.45494569705087,74.14855046722846 250.03529032244975,74.83414928049231 250.2435669317059,74.85908014662394 251.41116248683764,75.12916452770423 252.27491311331596,75.35354232103136 252.86650178642802,75.52390323839006 255.10664397033477,76.50867244349973 256,76.90756629863371 253.72765544764172,83.38128115572647 251.05693643319003,89.70125567319117 243.3678418611121,92.13617024699049 241.17963898125925,94.56692967696083 241.46738272577977,94.58770539845855 241.68396962368456,94.68327371773199 241.72136592254145,94.74144573833428 241.72759863908888,94.8536346350907 241.69695444969707,94.96582353184714 241.38012469490732,95.21928733575402 241.23002010625345,95.36887253161501 241.16665415524577,95.47275113972282 241.17080929957007,95.58078489184535 241.24300493226693,95.69297378860178 241.38895437659647,95.80516268535821 241.54684986092033,95.84671412866325 241.70370655916312,95.86333470614625 241.77797976396022,95.90488614926554 242.04235082159457,96.29546971593665 242.0719562249053,96.34948659209078 242.0413120355135,96.46167548866147 242.05014171720265,96.56970924115551 242.09584830483104,96.62788126157204 242.2397201769994,96.71929443701649 242.33892424774237,96.84394876643628 242.5388905683499,97.02677511670602 242.62303224097914,97.1555845907597 242.61524134537106,97.21375661154774 242.54875903612015,97.31348007526931 242.56641839949847,97.42566897202575 242.46721432881742,97.65004676535285 242.48123794091197,97.75808051809456 242.56070507605253,97.98245831142167 242.55654993172823,98.03232004337534 242.48799005037708,98.19852581610016 242.21115355976977,98.49769620751256 242.15661729057507,98.60572996006852 242.14830700198837,98.72207400127309 242.17635422605366,99.0337098255965 242.25582136131803,99.25393247447548 242.23764260489918,99.35781108258328 242.16336940004018,99.46584483532499 242.1503845740267,99.5655682987989 242.14674882280485,99.61543003075256 242.09688709085117,99.84811811291404 242.10260041429711,100.13897821592548 242.14571003666185,100.37166629790121 242.1207791707779,100.88690419399211 242.13843853415622,100.99493794654806 242.41735259686376,101.27748776047746 242.48695126429598,101.51017584263894 242.55966628997146,101.6182095951949 242.6188770966548,101.67222647134903 242.75495807321414,101.75532935789721 242.79858708861843,101.8176565227619 242.87234090037595,101.9880174401206 242.84429367624875,102.1500680688307 242.8822093681462,102.36613557369493 242.8770154377408,102.69439197512986 242.82351795468912,102.91461462444224 242.7450896055058,103.1971644385574 242.79183497915432,103.36337021128222 242.78664104868702,103.4921796853359 242.71652298821425,104.05312416917997 242.6947084805116,104.1653130659364 242.74197324720066,104.33982912774326 242.7274302421265,104.39384600371166 242.59706258895122,104.48110403470797 242.56330204131714,104.54343119932498 242.56070507605253,104.60160321992727 242.5814807976741,104.77196413728599 242.68847576408706,105.16254770395709 242.70561573442484,105.22071972449746 242.82871188497066,105.54066583753142 242.90506266199182,105.66116502275072 242.97466132942407,105.72349218755349 243.3678418611121,105.98111113572277 243.4571774640229,106.08914488803106 243.50548101679303,106.19302349613886 243.50963616111832,106.3592292692971 236.12802226897662,110.67642422231945 236.0158333722202,110.73875138693647 231.06394012372104,109.47974265691752 228.52618572770925,109.4714323682689 225.77651897103271,108.9437290388955 223.5306634637429,107.8301503599179 223.46885569191878,107.81768492719263 222.83675436158276,107.68056516430457 222.55680151273222,107.65563429854444 222.1319380055713,107.6722548758417 221.70291935408605,107.71380631908482 221.50243364056183,107.69303059740135 221.43802890341115,107.66394458719307 221.236504403682,107.54760054580275 221.0993846410416,107.44372193769495 220.86306080753445,107.16532726815177 220.59609278469642,106.83707086634534 220.4968887140173,106.7290371142228 220.36184652341427,106.64593422761273 219.95568116577468,106.5212798980072 219.6923488942214,106.46726302179114 218.99376525463447,106.32183297044021 218.21103994254216,106.18471320749023 217.83292180902973,106.13485147578425 217.5431004924099,106.08083459938243 216.97436511308064,105.98111113572277 216.82841566862723,105.94786998125211 216.1251574917993,105.82321565146083 215.42449628011215,105.71518189890487 214.68799694856588,105.61545843524522 213.96811819437877,105.52820040443466 213.27420909228056,105.44925266208698 212.63847201059886,105.37861520882133 212.57302848755288,105.37446006418743 212.0053318942437,105.32459833260526 211.86509577323625,105.29551232221125 211.45010073384555,105.18332342545482 211.17741938756257,105.06697938449791 210.77800613938805,104.81767072479151 210.5011696487817,104.60575836456117 210.36820503040371,104.49356946774282 210.18849503837626,104.32320855019834 209.85868045769587,104.0614344578286 209.48575625458886,103.73317805620792 209.22242398303555,103.57112742749783 208.95233960189336,103.47140396402392 208.66771221573987,103.45478338666476 208.52539852263217,103.46724881939002 207.80655855452616,103.65007516984551 207.23210985175191,103.82459123121896 207.09706766114985,103.85367724161298 206.74439978656193,103.90353897356664 206.47067965419785,103.89522868491802 206.40575552413048,103.88691839645514 206.0504906845256,103.8121257985556 205.72275367582165,103.71655747909642 205.3129525668373,103.55450685038633 205.04079061365582,103.47140396402392 204.75512444135936,103.39661136612438 204.33389668542029,103.34259448990832 203.9962912090699,103.30935333531382 202.96997056096478,103.32597391242533 202.8982943214323,103.33012905687346 202.8624562015732,103.33012905687346 202.1664695273128,103.33012905687346 201.46684710176865,103.33843934552209 201.03471209191633,103.35921506726748 200.75787560130902,103.41323194342162 200.3994944033371,103.50048997423218 200.20316383401334,103.6002134377061 200.04215199150815,103.67500603560563 199.76116035657654,103.8121257985556 199.56275221502872,103.94924556107216 198.77535236557154,104.46032831296257 198.2221987773965,104.76780899302359 198.08040447733032,104.82598101344013 197.93445503300077,104.86753245693092 197.65346339806916,104.9257044775332 197.36831661875226,104.95894563175621 197.00006695313297,104.94648019884518 196.64480211334234,104.90908390017404 196.3690044087542,104.8716876011314 195.93686939902574,104.8218258694254 195.51979678759673,104.73872298262957 195.25178997855474,104.70963697266897 194.9770310601096,104.68470610647543 194.55216755294867,104.68055096227495 193.85721966476936,104.68470610647543 193.1492869504537,104.69301639530981 192.86310138511573,104.70548182803508 192.4938129333544,104.76780899302359 192.4273306241035,104.7802744259346 192.2117825123417,104.83429130208876 191.85444010038893,104.9797213535016 191.7116070142407,105.04204851830437 191.14546860005316,105.18332342545482 191.00159672782385,105.19994400281398 190.63646342038683,105.19163371410345 190.28587311802298,105.1542374150608 189.55508710998456,105.07944481734701 189.268382151607,105.050358806953 189.05802797012774,105.03789337410389 188.83936350005985,105.02542794100712 188.62485417444105,105.000497075247 188.1402604674943,104.95063534310758 187.43544411148284,104.87999788978003 187.02148785817323,104.8550670236484 186.74257379540379,104.8758427453938 186.3940610652021,104.95063534310758 186.05074226540577,105.05451395121538 185.35163923290216,105.32044318821904 184.85613827216602,105.48249381692914 184.63279926479615,105.56559670329155 183.92123079919574,105.8439913731443 183.57843139244,105.96033541397738 183.2340738065626,106.03928315632506 182.95619852987423,106.07667945518196 182.53600956007816,106.10576546557597 181.835348348391,106.10576546557597 181.14143924622988,106.10576546557597 180.50414398555137,106.09745517692735 180.43662289021938,106.09330003229346 179.86840690393063,106.09745517692735 179.73076774812685,106.09330003229346 179.04672711373692,106.09330003229346 178.33775561340116,106.09330003229346 177.6474822625867,106.10576546557597 177.36649062765508,106.12238604268747 176.94993740914276,106.18055806328977 172.3351302438925,106.99081120640682 172.02920774307597,107.07806923740313 171.9190964184198,107.11131039181187 171.70199012747446,107.19441327854578 171.6271975296978,107.24011986611322 171.1072850961192,107.57253141193436 170.88965941207144,107.6847203086908 170.17964912565554,108.10023474112202 169.959426476466,108.24150964833439 169.45821219240776,108.5739211939698 169.13722729329274,108.82738499787668 168.9803705950509,108.98112533775239 168.5207077541729,109.5420698217822 166.75684898856426,111.59055597354433 166.42599562167896,111.95205352982141 166.48780339350313,111.97698439558152 166.79320650134008,112.09748358098659 167.12509865430644,112.18889675643103 167.19729428687944,112.19305190044577 167.2591020587655,112.19305190044577 167.22534151113047,112.25953420969668 166.90643418417662,112.75399638447558 166.75373263032102,112.9783741778027 166.56207659836213,113.31909601252013 166.26550317215242,113.8634199188193 166.1896717882337,114.02962569197754 166.05878474201788,114.4118989695666 165.85310509802633,114.91051628854599 165.91075772546426,114.96868830914828 165.95646431309362,115.02270518530241 166.24264987843063,115.27616898927121 166.41508836788958,115.43406447353317 166.71789451052382,115.69168342170244 167.07627570843385,115.92437150367817 167.5084107181623,116.16536987448829 167.76654905937212,116.3814373796002 167.82783743809384,116.43545425575434 168.10779028700628,116.57672916271903 168.44643454949966,116.70138349257223 168.69054927842916,116.90083042013923 168.89311256423937,117.01717446091038 169.04996926248216,117.17506994560576 169.32109242964356,117.35374115142734 169.46392551579177,117.39529259448472 169.74387836470424,117.50748149124115 169.88878902295272,117.57396380067782 170.09654623916833,117.72770414036778 170.32975371437036,117.99778852175767 170.37026637153238,118.05180539797372 170.6574907230124,118.54626757231921 170.8210995307822,118.91607541724493 170.95146718395748,119.07397090150687 171.00392588105194,119.12798777790869 171.14675896720016,119.2069355200087 171.5004656277453,119.32743470547567 171.6412211417314,119.39391701472658 171.85053653706865,119.50195076684912 172.04219256908945,119.65153596283395 172.31019937800758,119.75541457094175 172.72727198949852,119.88422404505735 172.79375429868753,119.91746519928034 172.9386649570598,120.07120553952757 173.16927546699725,120.33297963171157 173.27938679159152,120.60306401316336 173.24666503003755,120.8191315180276 173.25549471172576,121.14323277501438 173.31522491145063,121.46733403224881 173.34898545908567,121.57121264035662 173.41650655429382,121.67924639309832 173.63984556178752,121.89115875332867 173.77696532442792,122.05320938203876 173.98939707807028,122.1695534234291 174.34673948989922,122.31082833039379 174.47866532225805,122.4105517938677 174.63240566219568,122.56844727850115 174.90976154584354,122.94241026768925 175.08635517962583,123.10446089639935 175.25983245516684,123.31637325662969 175.36215288421496,123.4742687410774 175.4348679098285,123.63216422540125 175.4722642087473,123.6861811015554 175.54082409009845,123.7235774004123 175.75325584367891,123.81499057579482 175.68677353455183,123.83992144161687 175.57458463779543,123.86069716336226 175.5984767175983,123.94795519392515 175.60730639928747,124.38009020390129 175.60159307584152,124.80391492498114 175.622368797525,125.8800973049161 175.64729966347087,126.10031995416657 175.7833806400302,126.56154097416523 175.9656875972594,126.88148708713727 176.2269422966515,127.16403690106668 176.35990691502948,127.30946695241761 176.61337071887252,127.50475873578412 176.92189018489174,127.75822253950524 177.25170476563403,128.01168634304062 177.94145872353178,128.43135592010574 178.0775397000911,128.5019933733714 178.6177084623136,128.7346814555329 179.0373780390682,128.88011150694572 179.31940846001993,128.96321439330814 179.72972896210769,129.07124814604984 180.01435634832308,129.16266132087512 180.7134593808267,129.37457368172463 180.99133465751507,129.4493662794384 181.40061637352176,129.53246916580082 181.62499416703363,129.60726176370036 181.60214087318897,129.64465806255726 181.51955737974328,129.91058729937515 181.48891319035147,130.05186220633988 181.55124035527805,130.3759634639458 181.55331792737832,130.52139351492522 181.56007003696723,130.9244425146931 181.54552703177117,131.02416597816702 181.41412059251385,131.34411209113907 181.20065005291326,131.65990306009638 180.8266870636642,131.99646975017993 180.54050149832622,132.18760638928404 180.26574257994395,132.32472615198634 179.1059379204203,132.79841260464835 178.8441638279267,132.9396875117988 178.75846397623778,133.05187640874098 178.71483496083346,133.12666900645476 178.70912163738657,133.17653073822268 178.63432903961086,133.2804093463305 178.47643355522507,133.4341496865777 178.44111482846745,133.49232170718 178.4369596841441,133.5962003152878 178.46760387353592,133.70423406741034 178.61874724833277,133.9618530155796 178.66237626373805,134.11974849984156 178.69198166704876,134.21947196393464 178.75742519015668,134.36905715954796 178.83014021583216,134.62667610771726 178.83117900191323,134.67653783923748 178.89766131116414,135.05050082879708 178.9075297789344,135.5906695906481 178.9173982466427,135.87321940501093 178.8441638279267,135.91061570386782 178.71016042346764,135.94385685827658 178.43176575386158,136.04358032212198 178.2276442888688,136.08513176524127 177.74512815414613,136.16407950758895 177.5436036544789,136.2513375383376 177.47867952441152,136.29288898145688 177.4121972151606,136.29288898145688 177.3457149059716,136.272113260083 177.1473067644847,136.1516140744922 177.07874688313453,136.12668320873206 177.01122578792638,136.12668320873206 176.88033874164861,136.19316551798298 176.68089181408163,136.31366470320228 176.5458496235415,136.35106100205917 176.47728974219035,136.3552161464454 176.27576524252214,136.3427507135963 176.2051277889479,136.4466293217041 176.17344481347502,136.5505079298119 176.24200469482616,136.6585416821202 176.50897271772513,136.84552317683807 176.72036568516359,137.04912524841978 176.7749019544192,137.1530038565276 176.7084196452921,137.2568824646354 176.30744821793408,137.48541540278217 176.07320195665096,137.64746603149226 175.55380891611193,137.97572243292717 175.2697009229371,138.15854878338266 174.8827531077355,138.40785744246992 174.55709367137945,138.6114595146708 174.08860114875134,138.93556077165755 173.35573756855075,139.4175575133397 173.0409853859841,139.704262471903 172.33824660213477,140.194569502048 172.0671234349734,140.42725758439525 171.97571025983854,140.53529133676545 171.87235104477224,140.6433250892595 171.73159553090903,140.73889340871867 171.66615200773919,140.81368600643245 171.58460730031265,140.86354773820037 171.52124134936687,140.99235721225403 171.50202380692983,141.06299466576735 171.50721773727233,141.10454610925814 171.61525148970446,141.20426957273204 171.65732232605004,141.2250452946632 171.72744038646087,141.2250452946632 171.93623638875854,141.18349385117241 172.29461758672952,141.32061361412238 172.57145407733682,141.44111279934168 172.6031370528097,141.5075951085926 172.5776867938233,141.60731857225227 172.45718760848015,141.7195074690087 172.3195484527373,141.819230932916 172.17931233172985,141.9314198294867 171.9123443089547,142.25136594245873 171.5399394988882,142.7832244162803 171.48851958787483,142.8871030243881 171.54201707098844,142.986826487862 171.55396311098275,143.0907050959698 171.64433750003656,143.36494462143634 171.7154943465285,143.55192611627805 171.7154943465285,143.7596833324937 171.6334302461233,143.99237141453133 171.52124134936687,144.12533603303316 171.33841499909715,144.28323151710936 170.9722429055181,144.48683358924833 170.7120269922071,144.59071219735614 170.58373691125584,144.6073327747153 170.16978065788433,144.75691797032863 170.03785482564933,144.8524862897878 170.00097791970913,144.9522097532617 170.10849227922455,145.37187933032683 170.1957503099113,146.09902958708147 170.24145689754062,146.3524933908026 170.2513253653728,146.51038887487883 167.31571590018424,149.0533372016056 167.1328895498526,149.136440087968 166.71581693829975,149.31095614977485 166.58181353383972,149.41067961324876 166.4997494334355,149.51871336599046 166.39327386018692,149.626747118113 166.25147956011978,149.7181602933098 165.81259244080238,149.9134520766763 165.47290939241466,150.07965784958688 165.12335787600708,150.17522616904606 164.89430554513035,150.2250879009997 164.67667986114353,150.34143194195664 164.54890917316996,150.44531055006445 164.41178941053053,150.532568580875 163.95680110701832,150.76110151865026 163.67996461641007,150.94392786929149 163.26393079093927,151.18492623973012 163.05565418162024,151.34282172436355 162.94450407100777,151.51733778579893 162.85776543323774,151.62537153829297 162.65364396830591,151.84559418741958 162.59495255466308,151.87052505361314 162.53314478290085,151.84974933186774 162.28435551642073,151.77911187816866 162.06776861851597,151.69600899162052 161.56343797621446,151.46332090983051 161.05910733378914,151.2555636936149 160.85966040622216,151.1225990751131 160.76616965892515,151.0187204670053 160.6680043743252,150.86913527139197 160.56464515931984,150.76110151865026 160.36208187338576,150.6904640653227 160.0068170336571,150.62813690033417 159.65934308959837,150.6156714676089 159.23032443811314,150.60736117896028 158.95348794750583,150.56165459108325 158.24347766108897,150.32481136465938 157.5781351762204,150.03395126189562 157.51269165305055,150.00486525168733 157.2270254807541,149.87190063337127 157.00836101062427,149.7472463037038 156.82086012299064,149.59766110790474 156.48637100494543,149.44392076802902 156.12279587656812,149.3608178816666 155.70208751366957,149.3275767270721 155.41797952055663,149.31926643842348 155.13594909954395,149.2984907166781 154.79366908582872,149.21538783031568 154.5911058000185,149.21123268568178 153.82448167218288,149.1572158097134 153.59127419698086,149.09904378892534 153.53985428602942,149.08657835601434 153.19393852090658,148.98685489235467 152.9212571746236,148.93283801620052 152.8516585073152,148.9286828717524 152.7207714610384,148.92037258310376 152.58053534003,148.88297628424687 152.13957064861233,148.7250807999849 151.93441039759944,148.61289190316657 151.7993682071212,148.56303017127482 151.59368856300583,148.43006555295875 151.46280151679,148.32618694485095 151.34853504793332,148.22230833674314 151.21245407125016,148.1308951617321 150.87121284361604,148.01870626491376 150.80628871354864,148.01870626491376 150.4608923416521,147.97715482167064 150.1908079605099,147.97715482167064 150.12120929307767,147.98962025451974 149.98824467469967,148.03532684227292 149.78672017503246,148.13920545038073 149.6568719148977,148.230618625206 149.48703039064142,148.39266925410186 148.87362720976483,148.81649397499595 148.80714490051392,148.85389027385284 148.397863184693,149.08242321181385 148.11323579835377,149.2610944178212 147.3892018999033,149.73893601486944 147.06665882166664,150.02564097343273 146.89110397402735,150.19600189079145 146.78462840065492,150.29988049889926 146.69737036984438,150.40375910700706 146.49792344227737,150.54503401397176 146.31301951984548,150.76110151865026 146.2693905044402,150.8151183951759 145.9826855461865,151.1309093637617 145.82686763402478,151.3469768684402 145.7302605284226,151.4550106211819 145.55158932241525,151.60875096080997 145.2815049414588,151.87468019762787 145.175548761065,151.9868690943843 145.0768640834245,152.0990579911407 144.93247281809272,152.26526376429896 144.7735385477497,152.43562468165769 144.6603108648503,152.54781357841412 144.4754069424803,152.7098642071242 144.23960250201367,152.97994858795684 144.05573736572475,153.18770580417245 143.8542128659337,153.5076519171445 143.8292819999878,153.55335850465002 143.76695483512313,153.66970254566883 143.765916049104,153.77358115377663 143.84070864687968,153.9314766384101 144.13572389390586,154.3719219368491 144.28011515923762,154.57967915306472 144.67069872572299,154.99103844086204 145.08413558593014,155.25281253341757 145.17347118890285,155.36084628578777 146.12136348788658,156.44533895437135 146.3545709631505,156.65309617058696 146.659454677885,157.06445545900345 146.80540412227649,157.47581474680078 146.86617310801955,157.6835719630164 146.86201796369426,157.89963946788063 146.73580545496807,158.4273427970683 146.69944794200651,158.5312214051761 146.6682843595742,158.6351000132839 146.66568739443437,158.84701237394768 146.70516126551436,158.95089098205548 146.918631805114,159.15449305382293 147.18196407666727,159.30407824962202 147.3138899089642,159.3497848373752 147.44997088570926,159.3664054144867 148.12310426612402,159.44535315677246 148.25295252625878,159.4910597443399 148.40980922456347,159.69466181592162 148.4368176627334,159.84840215616885 148.45759338429306,160.31377832030606 148.49343150402737,160.4135017842134 149.0076306142239,160.79161991778773 149.2049999695668,160.9910668453547 149.2527841292964,161.09079030901438 149.2538229154394,161.2943923810295 148.99776214639175,161.71821710210935 149.02165422625654,161.81794056576902 149.10164075449956,161.91766402967633 149.13540130213556,162.02154263778414 149.06216688341857,162.34148875075618 148.8637587419946,162.66143486372823 148.83778908996763,162.86919207994384 148.83882787604873,162.94398467765762 148.75728316862217,163.09772501790485 148.45136066774467,163.13512131676174 147.68006200254422,163.37196454318564 147.2365003459858,163.58387690360172 146.52233491524365,164.03263249087513 146.300034693832,164.24454485110547 146.0045000537653,164.68914529374496 145.96658436180596,164.79302390185276 145.95152196369224,165.00078111806837 146.0361830292372,165.3124169423918 146.24549842463733,165.86920628197348 146.25432810632648,166.44261619866666 146.199791837007,166.67945942527626 145.94736681936791,167.36921338298828 145.77908347423326,167.57281545500342 145.43628406747752,167.98417474298648 145.05297200349779,168.3373620108007 144.78496519457966,168.5160332166223 144.65303936234466,168.58251552587322 144.25414550721067,168.76949702034344 143.2527557249895,169.10190856641225 142.56507933931582,169.32213121572462 142.17034062850615,169.5839053080944 142.07684988120914,169.6836287715683 142.0498414431011,169.79581766851047 142.08204381167644,169.9994197405256 142.19527149451395,170.32352099769813 142.2627925897221,170.7722765846 142.2534435149924,170.8803103373417 142.1963102805331,171.10468813066885 142.01036757202013,171.5575988621427 141.78287342032596,171.99388901613358 141.623939149921,172.32630056214046 141.41929829194862,172.6587121078378 140.93106883384195,173.0700713962543 140.64540266154546,173.23212202471672 139.85904159810747,173.5811541481447 139.56610392324345,173.6850327562525 139.43729444925168,173.73073934375802 139.02593516114476,173.86370396207408 138.47330096594933,173.97173771438239 138.06298046392348,174.1337883429067 137.70044412162724,174.29168382754017 137.46360089520337,174.44542416723013 137.36907136182526,174.6905776824884 137.38361436689843,174.94404148620953 137.43035974054695,175.16010899107377 137.29323997784465,175.326314764232 137.0252331689265,175.9620518459137 136.7603427182516,177.0091482157023 136.7219076332517,177.42466264813353 136.67308468744105,177.53269640025607 136.45493961047657,177.73214332782305 136.21186366744237,177.92327996692717 135.6249495316952,178.1767437706483 135.35174879237167,178.27646723430797 134.66926633704145,178.37619069821528 134.11974850015116,178.4052767086093 133.7156607146737,178.33048411070976 133.3126117152154,178.12688203869465 132.52417307961525,177.76538448241755 131.98296553137357,177.59086842085836 131.30567700651068,177.44959351389366 130.60969033218836,177.35402519424872 129.91578123009015,177.22937086458128 129.64985199327225,177.13795768957024 129.53662431043472,177.03407908146244 129.41300876684835,176.82632186524683 129.22187212786807,176.29030824759627 129.2021351923276,176.08255103138066 129.234337560841,175.97867242327285 129.3486040298215,175.76676006242334 129.79112690029885,175.02714437294344 129.89085036408235,174.69888797113703 129.90747094150342,174.49113075492141 129.87111342854186,174.27090810579477 129.5428570269831,173.6434813127617 129.46494807090227,173.4315689522837 129.434823274551,173.21965659186762 129.4961116533346,172.58807465457215 129.5096158723267,171.84845896453498 129.45975414043494,171.52851285174867 129.40054333387542,171.42878938784136 129.28523807881385,171.32491077973356 129.15642860476015,171.25842847066838 129.0224252003011,171.22518731588815 128.88946058198502,171.22934246052205 128.75545717752593,171.25842847066838 128.49264429895126,171.41632395499227 128.3544857501679,171.62408117120788 128.10933223503346,172.15178450039554 127.80600669935868,172.65040181918917 127.3593286844951,173.07422654026902 126.99886991448484,173.60192986945668 126.93342639131501,173.7058084775645 126.78695755382108,174.0174443018879 126.68619530401844,174.33323527065946 126.59582091496465,175.10193697065722 126.46701144084905,175.80415636128026 126.27275844368745,176.88033874140095 126.24575000570324,177.53269640025607 126.27795237409283,177.96483140998455 126.35378375807345,178.80832570775803 126.4026067038222,179.03270350127087 126.51895074490295,179.5604068306443 126.52829981963265,180.08811015983196 126.42442121152484,180.61165834463338 126.18757798503904,181.12689624091 125.89360152415587,181.48423865298662 125.73882239807524,181.6836855805536 125.44380715104907,181.89559794078394 125.01686607166407,182.10335515699956 124.3624308406468,182.29033665184127 123.78798213774871,182.41083583730824 122.52793462140102,182.6892305067895 122.05632574059157,182.84297084685096 121.81324979768122,182.9177634447505 121.16193092478336,183.12136551670372 120.87314839430559,183.19200297021703 119.49156290640984,183.53687994913494 118.801808948574,183.69062028882493 118.10893863249493,183.79034375267034 117.58227408938835,183.83189519597536 117.17299237350551,183.77372317537308 116.91017949493084,183.7820334640217 116.77825366269585,183.79449889693274 115.39874574702418,184.06042813393637 115.12035107723334,184.11860015453865 114.84922791013388,184.1227552985534 114.70899178912643,184.06873842239926 114.63212161918857,183.96485981429146 114.50435093115405,183.53687994913494 114.4981182147295,183.33743302156796 114.55629023520795,183.22939926907392 114.77859045662058,183.0216420528583 115.18267824222185,182.80141940354594 115.46418927007018,182.6850753625271 115.88178127466357,182.53964531117617 116.42818275337254,182.29449179610367 116.82188267810113,182.02025227063714 116.88940377330928,181.9205288067298 116.96211879898475,181.70861644631373 117.00055388410847,180.9648456124476 117.03483382472213,180.43298713862603 117.20831110032408,179.9052838096241 117.30907335006482,179.48976937719289 117.29660791709189,179.0784100891479 117.23531953830827,178.86649772854605 117.11585913904622,178.65874051233044 116.75020643844482,178.34294954374462 116.35754529979731,178.13103718314278 116.08330577439271,178.03962400806984 115.79867838817732,177.98145198752945 115.66675255594232,177.97729684289556 115.4070560356728,178.02300343058684 115.1317777241252,178.11441660578362 114.72145722209936,178.318018677613 113.35233716723847,179.13242696536395 113.08952428872573,179.27370187232864 112.9627923868342,179.37342533598832 112.8828058586531,179.40666649083047 112.42470119689767,179.6019582737636 112.01853583919615,179.7266126036168 111.19373969075825,180.0174727061948 110.93300438440765,180.13797189159985 110.77510890014571,180.21276448968516 110.28584065595794,180.45376286037143 110.00225205576172,180.60750320037099 109.4911693038713,180.9648456124476 109.22627885325831,181.30141230234537 109.01956042306186,181.9246839509922 108.98839684069144,182.4606975688285 108.96346597468364,183.1172103723175 108.79622141563007,183.46208735104966 108.582231482928,184.467632277719 108.52925339285493,184.85821584414242 108.54275761190895,185.53134922455718 108.53652489536056,185.74741672942142 108.53340853717924,185.85545048197736 108.49081830785505,186.76542708912558 108.42329721252305,187.00227031536372 108.302798027118,187.22249296449036 108.13347589590228,187.43856046935457 107.52578603853352,188.11169385014082 107.20376235333741,188.53551857103494 106.8017521400221,189.15463507560514 106.53062897279882,189.6781832602208 106.41012978739376,190.08123225992676 106.38312134934765,190.18095572364834 106.22522586496187,190.7917619391984 106.2054889294833,191.00782944406265 106.13589026205106,191.20312122736723 105.92293911543007,191.74328998965166 105.62169115185552,192.28761389619848 105.18436221184548,193.34302055438806 104.99841950320867,193.91227532688075 104.77196413759557,194.419202934323 104.28061832118372,195.49123017018132 104.09675318489482,195.8194865718639 103.60436858246382,196.5591022612819 103.18989293605176,197.23639078633056 102.83878324064737,197.66437065179665 102.49494504787245,197.98847190884533 101.90595333983927,198.41645177455908 101.48005104659727,198.63251927923756 100.74355171523675,199.00232712416326 100.01744024443936,199.30565265977614 99.72034742525102,199.38875554638622 99.13862721984731,199.4677032883005 98.70960856836207,199.5882024739532 98.56417851701114,199.59235761796793 98.1590519454526,199.57573704085644 98.02920368531785,199.54249588638578 97.48903492309535,199.27656664962979 97.2355711193123,199.0563440003174 96.99561153458326,198.8485867841018 96.45128762809836,198.44969292878207 96.09290643012642,198.1089710942504 95.98383389161322,198.00093734212786 95.58909518080355,197.45661343558103 94.95647445748894,196.8541175083081 94.5742011796522,196.50508538512776 94.10363108492385,196.23500100429513 93.70369844364687,196.06048494230254 93.41387712702608,196.0480195093915 93.3567438925668,196.06048494230254 92.561033754461,196.22253557101263 92.28991058736153,196.23915614830986 92.00528320108424,196.26408701450342 91.57626454972282,196.39705163275755 90.85950215365513,196.78348005504245 90.28401466473788,197.0660298691576 89.85915115757695,197.3278039613416 89.77189312676639,197.40259655905538 89.63996729453139,197.31533852824484 89.59945463730743,197.23223564188243 89.42701614784848,196.97046154951266 89.37092169947026,196.8624277969567 89.17355234412734,196.38043105527456 88.85568380325554,195.89012402512955 88.7538827673718,195.77377998411072 88.52950497379703,195.44136843828957 88.15658077075192,194.76407991342668 87.85637159325844,194.1948251409959 87.49902918149142,193.65050123426332 87.2289448002873,193.09786703931556 86.98690764345801,192.5452328441201 86.87160238839644,192.2252867309623 86.70331904326179,191.88872004087875 86.38960564683813,191.43580930959064 86.21405079907402,191.09924261925943 86.03018566278512,190.5798495787204 85.92007433812893,190.35131664100706 85.82450601866975,190.13524913614282 85.6292142355509,189.87763018797355 85.25213488805765,189.50782234286208 85.03710616921258,189.42471945668544 84.57796272137607,189.19203137427627 81.8812740548974,188.48150169506656 79.69982328463347,187.31390613968713 79.48375577976924,186.9150122848008 79.45570855564205,186.85684026419852 79.27599856355363,186.59091102738063 79.04746562571644,186.30420606881734 78.90826829085199,186.1380002960925 78.64130026801493,185.75157187386955 78.42834912139392,185.41085003933787 78.26318213450251,185.19062739002547 78.14787687950285,185.0825936377172 78.0076407585573,184.91223272054424 77.79988354234169,184.64214833909244 77.53810944997194,184.36375366961119 77.40826118983718,184.14768616474694 77.31061529815392,183.63244826840838 77.27114142713488,183.37482932023912 77.1277889479461,182.8512811354996 76.34662181491348,181.00224191130448 75.85215964032032,179.8595772221186 75.57999768707786,178.61303392482492 75.54571774640229,178.34710468800702 75.51455416396995,178.30555324451623 75.3940549785649,178.135192327529 75.35042596315961,178.08117545100336 75.210189842276,177.86095280187675 75.04917799964697,177.5410066889047 74.88504979889856,177.21275028728402 74.8071408428177,176.99668278260555 74.69599073220427,176.7265984013395 74.64820657241276,176.68089181401973 74.60146119870232,176.5728580615257 74.4321390674866,176.1531884846463 74.40928577376481,176.09917160849218 74.34488103673796,175.90803496938807 74.12569717356857,175.376176495938 73.97922833613657,175.0645406716146 73.85145764822589,174.8526283111985 73.3289482493817,174.30830440489933 73.10560924194992,174.09639204404982 72.90200717005861,173.7681356426149 72.72333596411319,173.55206813775067 72.65789244100527,173.44818952964286 72.46571701606774,173.23627716897911 72.0990255295091,172.70441869552906 71.82374721789958,172.15178450039554 71.60352456871104,171.7653560783583 71.51938289614371,171.60330544946248 71.22332886309837,171.03405067696977 71.0747824534423,170.80551773919453 70.87845188424238,170.47726133757385 70.65095773236244,170.14484979187654 70.54188519384925,169.9329374312747 70.40164907296563,169.71686992641045 70.16168948817467,169.38445838034164 70.09416839296652,169.27642462797144 69.90303175404816,169.06035712292146 69.74721384188645,168.8401344740425 69.407530793312,168.35813773236035 69.36182420574457,168.29996571175806 68.93384434040232,167.75564180539698 68.67207024790874,167.4232302593901 68.50067054459277,167.21547304317448 68.36355078189047,167.04926727001623 68.12151362493736,166.65868370377854 67.83688623872197,166.1226700856946 67.65198231629007,165.90244743681563 67.52109527007424,165.81518940581932 67.32164834250725,165.715465941912 67.21984730662352,165.55341531344956 66.79706137156282,164.99247082941974 66.5519078564284,164.59357697428578 66.38258572521268,164.4107506242637 66.18937151419408,164.24038970709074 65.68452147885205,163.8788921506279 65.09552977081887,163.29717194547186 64.70702377643376,162.89412294570397 64.50342170454246,162.72376202834525 64.34137107595619,162.5492459669718 63.907158494003646,162.15035211165207 63.28284805927573,161.56447676186212 63.12391378887079,161.40658127778593 62.978483737581776,161.2528409375387 62.94524258292536,161.26946151483597 62.85486819387157,161.33178868007215 62.43312104501579,161.58940762799375 62.29496249623241,161.66835536996993 62.093437996441345,161.805475132858 62.02280054305187,161.83040599886579 61.81192696846919,161.85118172061118 61.74336708711804,161.87195744192317 61.63013940428053,161.97168090583048 61.458739700964564,162.12542124589194 61.302921788802855,162.2833167301539 61.11282393596557,162.43290192576723 60.900911575425646,162.5658665440833 60.83754562441796,162.6157282762227 60.70042586171566,162.7112965956819 60.49682378982436,162.83179578108695 60.20804125934657,163.04370814150306 60.14363652231973,163.09356987327095 59.790449254691275,163.35118882162598 59.5712653915838,163.50077401705357 59.49751157982726,163.550635749193 59.426874126313955,163.60049748108472 59.07680321699065,163.83318556312238 58.86592964259371,163.97030532563895 58.72673230766733,164.07833907838062 58.66959907320804,164.1282008103343 58.640513062937856,164.18221768648843 58.68102572016182,164.2320794184421 57.672364435435014,164.78471361320413 57.534205886651634,164.85535106708895 57.235035495301155,164.95922967519675 56.93586510395067,165.1171251594587 56.80497805767292,165.21684862293262 56.75511632584308,165.26671035488627 56.440364143214516,165.5201741586074 56.17755126470176,165.72377623080828 55.98018190935885,165.88582685945647 55.482603376522455,166.2390141267134 54.785577916119074,166.74178659014095 54.211129213220985,167.1448355894754 54.11763846592396,167.2487141975832 53.67303802328447,167.77641752677087 53.14429590801573,168.2916554232952 53.11624868376471,168.34567229926358 52.80149650119805,168.82766904094572 52.55114905572015,169.28473491662007 52.44934801971259,169.38861352472787 52.1740697082269,169.58806045229485 52.08888924964042,169.8041279571591 52.064997169713706,169.92047199817793 52.05253173674077,170.08667777133616 52.089928035659575,170.2653489773435 52.175108494369894,170.4938819148711 52.197961788091696,170.55620907992153 52.24782351998344,170.83044860538806 52.24055201747782,171.04651611006653 52.26132773909938,171.26673875937894 52.36624513328826,171.5949951609996 52.39844750173977,171.81937295432672 52.435843800658574,172.15178450039554 52.47116252741523,172.69195326267996 52.45869709444229,172.8041421594364 52.426494725990786,172.85815903540478 52.21977629579434,173.00358908700338 51.932032551397626,173.1282434166089 51.88528717774911,173.17810514837683 51.78971885828994,173.43987924093233 51.656754239850024,173.5354475603915 51.506130258093705,173.59361958080805 51.28798518112923,173.66841217889333 51.14671027404069,173.73489448777275 50.91921612234651,173.87616939510895 50.78625150396852,173.97173771438239 50.714575264312224,174.02159944633604 50.06948910796274,174.4620447445274 49.7349999898556,174.84016287810172 49.575026933369585,175.0022135068118 49.42128659337003,175.16010899107377 49.35376549816187,175.2598324549811 49.30598133843228,175.41357279498064 49.328834632154084,175.52991683599947 49.428558095937575,175.83739751612242 49.52932034580215,176.0493098765385 49.55736757011509,176.09917160849218 49.68202189978254,176.36510084531008 49.73811634816076,176.58116835017432 49.54697970918048,176.6185646490312 49.36207578681049,176.77646013329314 49.2945546914785,176.8180115765982 49.227033596270346,176.84709758699222 48.870729970398656,176.96344162794912 48.652584893434174,177.05069965857393 48.50299969769702,177.11302682381012 48.28693219283278,177.17950913281337 47.922318278374384,177.2916980296317 47.77273308276106,177.34571490578585 47.6324969617536,177.37895606038035 47.210749812897824,177.4745243796538 47.01026409918784,177.50776553449595 46.873144336547455,177.53685154488997 46.52515099932438,177.64904044146064 46.39218638100831,177.67397130722077 45.825009180739684,177.7030573176148 45.68373427365115,177.7238330393602 45.46974434094907,177.79447049281157 45.2599095525713,177.90250424518177 45.10928557081498,177.96483140998455 44.69792628270807,178.0728651625405 44.4216091851413,178.16427833755154 44.29176092500654,178.20167463640843 44.17853324216903,178.26815694565934 44.043491051628884,178.3595701211038 43.89909978642095,178.51746560536574 43.82950111898872,178.4218972857208 43.63317054960305,178.2099849252428 43.60512332547586,178.1933643477598 43.43476240811714,178.08117545100336 43.46696477669248,177.86510794632488 43.45449934378146,177.55347212200147 43.35893102426036,177.33740461713722 43.166755599199,177.01745850435094 43.03275219473993,176.70582268002752 42.75643509723508,176.5936337832711 42.72631030088382,176.4980654638119 42.71384486791088,176.28199795894767 42.63489712574894,176.0493098765385 42.523747015073596,175.87479381516505 42.46038106406591,175.70443289780633 42.41155811825524,175.37202135173752 42.35858002818218,175.16010899107377 42.23911962879629,174.898334898704 42.13212466244524,174.61994022922275 41.97942310852677,174.39971757991037 41.91501837149993,174.34570070375622 41.78413132528409,174.25844267294568 41.62727462710322,174.12547805444385 41.40705197791467,173.8927899724681 41.28863036460986,173.6850327562525 41.1348900246103,173.30275947804427 41.073601645888616,173.19472572567406 41.0175071975104,173.13655370531944 40.677824148935954,172.9329516333043 40.49292022656598,172.77505614904237 40.40462340961243,172.67117754093456 40.35060653345828,172.5631437883786 39.99741926582982,172.24319767540655 39.85614435886512,172.15178450039554 39.78758447751397,172.11854334592485 39.517500096371755,172.04375074783957 39.38453547805568,172.02713017054234 39.179894620021386,171.9357169955313 38.96486590130014,171.84845896453498 38.61687256407707,171.75704578970968 38.480791587517764,171.6988737691074 37.85024843624146,171.40385852189547 37.77649462448492,171.36646222303858 37.42330735691838,171.21687702742526 37.04934436773027,171.10053298622068 36.75536790678518,171.01743009967254 36.32531046928078,170.96341322370412 35.88174881259853,170.93017206886196 35.60750928719392,170.88446548135644 35.1732967053652,170.80551773919453 34.87724267219604,170.7972074505459 34.43783615996193,170.7972074505459 34.28721217826753,170.83044860538806 34.13035547996282,170.8803103373417 33.99115814503645,170.93848235769636 33.70964711706429,171.02989553295504 33.404244009351174,171.09222269757205 32.97522535780402,171.2044115943285 32.695791901932104,171.32491077973356 32.00396037193411,171.85676925318361 31.80035830004281,172.0229750265276 31.775427434158853,172.00635444916844 31.718294199637644,171.9564927172767 31.669471253826973,171.8733898306666 31.30589612544965,171.43709967673766 30.94647614139664,171.04651611006653 30.759494646864503,170.89277577000507 30.45513032510863,170.6310016776353 30.209976810036125,170.37338272946604 29.96482329477787,169.9952645958917 29.8505568259212,169.83321396755312 29.600209380319466,169.5049575657467 29.391413378084692,169.28889006088247 29.11405749443685,169.0104953914012 28.896951203491533,168.7445661545833 28.76087022680839,168.58251552587322 28.552074224573616,168.19608710365026 28.39210116814951,167.87198584623007 28.33600671964746,167.70578007350525 28.323541286674526,167.65176319728917 28.29861042072865,167.4980228572896 28.305881923296198,167.22378333182309 28.33185157532315,167.11159443506668 28.596742025998058,166.55896023968546 28.78060716241079,166.0312569104978 28.79930531180828,165.90244743681563 28.87617548186997,165.7487070965684 28.992519522950715,165.40798526185097 29.102630847483073,165.1711420354271 29.34051286004995,164.59773211891968 29.60955845504917,164.00770162486734 29.784074516670284,163.41767113069116 29.79134601923783,163.14343160541037 29.838091392886344,162.89827809015213 29.84951803984012,162.84841635819845 29.896263413426716,162.6115731315888 29.931582140245286,162.2625410084085 29.973133583426492,162.02985292643277 30.080128549901367,161.6849759472672 30.159076291939467,161.39411584468917 30.20893802389313,161.1157211752079 30.250489467074335,160.84148164974138 30.407346165317122,160.5506215469157 30.652499680451548,160.05615937238446 31.017113594909947,159.7362132594124 31.12722491956614,159.57831777490279 31.22279323908724,159.3580951260238 31.210327805990467,159.0423041570665 31.20097873132268,158.93427040494396 31.17500907929573,158.7763749202486 31.17397029321465,158.62263458062054 31.223832025044484,158.50629053941597 31.529235132943352,157.36778099461634 23.49941872614799,152.0242653932412 23.432936416958995,151.99933452748107 23.43916913350738,151.8414390432191 23.507729014796617,151.56719951793832 23.535776239109556,151.39683860057963 23.5368150250668,151.0062550339085 23.500457512290986,150.7860323847819 23.428781272634684,150.45777598297545 23.462022427291096,150.12951958154054 23.495263581885595,149.96331380856805 23.506690228715538,149.90514178821343 23.526427164317937,149.79710803547172 23.571094965742375,149.69322942736392 23.795472759379074,149.37328331439187 23.98037668174905,149.16552609817626 24.131000663443455,148.92452772749 24.33564152147775,148.3718935321707 24.49145943363946,148.03532684227292 24.578717464450015,147.81510419277478 24.749078381684903,147.30402144088438 24.76050502863868,147.25000456491597 24.763621386881912,147.13781566815956 24.73869052093604,146.98407532791234 24.73765173485496,146.68490493687142 24.750117167765982,146.52700945236182 24.821793407360367,146.14889131897323 24.84776305938732,145.92866866972275 24.844646701144086,145.59210197939154 24.833220054314143,145.0436229284585 24.793746183233175,144.55747104257588 24.785435894584552,144.50760931062223 24.758427456414605,144.3995755584997 24.522623016133718,143.95913026006068 24.439520129585556,143.80123477542722 24.376154178577877,143.62256356960563 24.35849481519955,143.40234092029326 24.43848134344256,142.8746375911056 24.470683712079815,142.71258696276698 24.597415613847506,142.33862397345504 24.650393703982488,142.18072848919311 24.722069943576873,142.06853959237475 25.127196515259236,141.88571324216693 25.402474826683004,141.76105891231373 25.61750354552808,141.67795602595132 25.831493478168248,141.58238770630638 25.972768385194865,141.5075951085926 26.178448029248322,141.34969962433064 26.28544299559936,141.2416658717747 26.376856170734232,141.08377038751274 26.685375636876334,140.58930821273384 27.025058685326943,140.32753412054984 27.296181852550234,140.02005344061266 27.42291375437984,139.8081410800108 27.6285933984333,139.3718509258342 27.70961871275739,139.04774966859975 27.700269638027684,138.74857927718733 27.614050393298207,138.4286331642153 27.39694410235289,138.1045319067951 27.01155446627293,137.651621175507 26.712384074984364,137.33167506253494 26.306218717220922,136.74164456873027 26.272977562626423,136.67931740367985 25.99562167897858,136.11837292008343 25.9000533595194,136.00618402307933 25.795135965454346,135.81504738440864 25.730731228303675,135.66130704416142 25.712033078906185,135.61144531220776 25.67775313823061,135.51172184873386 25.596727823844603,134.9923288081948 25.638279267149642,134.66822755058888 25.649705913979584,134.50202177786406 25.670481635601146,134.41891889150165 25.7161882232305,134.22778225239753 25.805523826141297,134.05326619059065 25.928100583770423,133.9369221498195 26.357119235255663,133.8247332528154 26.49008385357174,133.75825094375023 26.642785407552132,133.6460620469938 26.754974304308565,133.525562861403 26.851581409786906,133.29287477942725 26.86404684282176,133.03525583125798 26.873395917489546,132.83996404813914 26.904559499921888,132.71115457402354 26.99701146119975,132.53663851246435 27.114394288361574,132.42029447125978 27.64729154795462,132.0712623478937 27.830117898162445,131.90505657516889 27.879979630116107,131.85103969876707 27.973470377351216,131.73469565781016 28.050340547350995,131.55186930735468 28.029564825729434,131.34411209113907 27.942306794918874,131.18206146280048 27.885173560521498,131.11973429781196 27.66598969735211,130.96599395775047 27.461348839441648,130.87458078273943 27.313841215928562,130.83302933924867 26.9284515798486,130.82471905060004 26.7144616470846,130.7997881848399 26.54929466019319,130.76239188598302 26.386205245463934,130.68344414363534 26.16702138241838,130.52554865955912 26.025746475329846,130.351032597938 25.965496882627317,130.2180679794362 25.94575994714875,130.04355191787698 26.030940405735237,129.68620950604804 26.205456467418266,129.25822964033432 26.372701026409917,129.02554155854432 26.418407614101188,128.9715246821425 26.498394142220366,128.8510254965517 26.604350322552243,128.60171683746447 26.637591477146742,128.41473534256085 26.6261648303168,128.24852956965026 26.609544252895716,128.20697812634523 26.582535814849603,128.14880610592868 26.46723055978802,128.02830692033788 26.38828281762609,127.97844518881763 26.253240627147857,127.92858345686396 26.100539073167464,127.93273860106444 25.772282671608714,127.98675547746626 25.477267424520626,128.06985836382867 25.14277830641349,128.16542668328785 24.92255565722494,128.20697812634523 24.772970461611614,128.21528841499384 24.480032786685683,128.1612715388397 24.073867428984162,127.99091062148098 23.905584083849515,127.88703201337317 23.66458571310132,127.67927479715756 23.416315839661745,127.41334556052541 23.13688238391366,127.085089158719 23.01742198452777,126.9064179528974 22.989374760400576,126.79007391187858 23.014305626284536,126.54076525241985 23.07455521898706,126.42026606720053 23.168045966284087,126.29976688173356 23.416315839661745,126.02552735608128 23.48175936276966,126.0047516347693 24.188133897964665,125.99644134605876 24.33564152147775,125.97151047992715 24.46756735371275,125.88840759356474 24.510157583036946,125.8260804285143 24.50808001093671,125.5975474909867 24.459257065064122,125.4728931611335 24.328370018848286,125.37732484148857 24.16008667371364,125.29422195512616 23.78508489844446,125.15710219254768 23.421509770067136,125.06568901716516 23.147270244662526,125.00751699656287 22.85641014196067,125.00751699656287 22.715135234934053,125.02829271830826 22.001489197233422,125.20280877986745 21.716861811079948,125.29837709932664 21.507027022640262,125.3274631095349 21.30654130905411,125.38979027477109 21.02814663932519,125.44796229512572 20.76013983040705,125.5269100371019 20.449542792164706,125.68480552173534 20.31969453202995,125.74297754196614 19.906257671698963,125.99228620167254 19.756672476085637,126.01306192341794 19.476200234132644,125.96320019127852 19.335964113249023,125.8967178820276 19.20715463919534,125.78452898545693 19.136517185620118,125.6723400887005 19.107431175411847,125.56846148059269 19.11781903616071,125.46042772803673 19.213387355619894,125.227739646061 19.486588094943425,124.88701781134355 19.67149201737532,124.52967539951462 19.80341784973415,124.30945275020224 20.046493792706418,124.01028235897559 20.54095596723766,123.56983706053657 20.62717521209097,123.46595845242877 20.91284138438744,122.7180324741764 21.005293345479554,122.36900035099607 21.00840970372279,121.20140479561667 20.979323693452603,120.95625128035842 20.902453523452827,120.7110977652859 20.65418365007517,120.29142818883994 20.466163369461956,120.09198126127296 20.05168772304989,119.75956971520415 19.771215481158816,119.59336394204591 19.47100630378917,119.51026105549775 19.061724587782496,119.55596764337476 18.634783508521327,119.76372485959037 18.34184583371923,119.84267260156656 17.922176256839858,119.8468277460147 17.78090134981324,119.77619029231565 17.69468210508376,119.66400139555921 17.698837249408076,119.54765735472614 17.811026146164505,119.3357449941243 18.115390467982294,119.01995402535273 18.70957610635895,118.6210601704045 18.97446655697194,118.5005609848137 19.30064538643045,118.33435521190313 19.67460837568047,118.19723544932465 20.104665813184873,118.07258111947145 20.238669217643945,118.03933996469121 20.633407928453607,117.87728933616685 20.95854797183104,117.69861813015952 21.252524432776134,117.47424033683241 21.413536275405153,117.3329654298677 21.476902226289,117.12105306901819 21.45301014648612,116.91329585280258 21.324200672370523,116.69307320392362 21.0987840928385,116.47700569881171 20.6811920881832,116.1778353073993 20.01013627980677,115.63351140110015 19.82730992953703,115.41744389642166 19.721353749328983,115.20553153557216 19.692267739120716,114.89805085588263 19.813805710483017,114.58641503155921 19.921839462915134,114.38281295935833 20.23035892899532,113.97560881557573 20.63029157027229,113.54347380584726 20.893104448723125,113.2443034146206 20.940888608452717,113.12795937341603 20.919074100750077,113.01161533258295 20.77883797980454,112.7997029719811 20.640679431021155,112.69997950825953 20.360207189130076,112.61272147751089 20.059998011760435,112.52130830206644 19.478277806294802,112.25953420969668 19.221697644268517,112.05593213792922 19.028483433249914,111.8481749217136 18.899673959196235,111.51576337583053 18.922527252918034,111.2996958709663 19.066918518187887,110.9922151906576 19.299606600349374,110.77199254177864 19.85224079554482,110.35647810934742 20.326966034597497,109.9326533880199 20.45473672250818,109.70827559450704 20.495249379670227,109.59193155373588 20.469279727643276,109.27198544070191 20.315539387767554,108.80245413174505 20.166992978111473,108.5739211939698 19.719276177104913,108.09607959673579 18.997319850755655,107.45618737097746 18.634783508521327,107.15701697950314 18.075916596839413,106.60022763992147 17.921137470820696,106.396625568154 17.653130661902555,105.97280084707415 17.57314413359763,105.66947531139935 17.57210534751655,105.35368434262779 17.612618004678595,105.04620366275252 17.68013909994867,104.84675673499977 17.933602903793634,104.51019004510198 18.168368558117276,104.29412254023774 18.781252345891417,103.64592002539736 19.088733025890527,103.22209530431752 19.142749902106583,103.11821669620971 19.22585278859283,102.90214919134547 19.324537466295247,102.16668864612795 19.33804168534926,101.50186555399033 19.433610004808443,101.06973054426184 19.52606196602439,100.86612847268013 19.59981577784285,100.77887044168382 19.726547679734374,100.53787207099754 19.826271143517868,100.41737288540673 20.00494234940138,100.25947740114479 19.518790463518762,100.07249590667458 19.253900012843854,99.9893930200645 18.987970776025954,99.9353761437246 18.707498534134874,99.90629013351634 18.439491725216737,99.90213498931585 18.165252199812127,99.91044527796447 17.765319558658987,100.0226341747209 17.364348131300936,100.12651278282871 17.093224964139562,100.18883994744573 16.82521815522142,100.21377081363927 16.785744284140456,100.20546052492872 16.648624521500068,100.184684803431 16.36919106562815,100.17637451478238 16.158317491169303,100.15559879303699 15.740725486575922,100.11404734973195 15.466485961233229,100.07249590667458 15.249379670225997,100.02678931910714 14.96786864225384,99.95199672102184 14.74764599306529,99.8979798448677 14.602215941838196,99.85227325736219 14.3352479188773,99.7733255150145 14.191895439688526,99.76501522636588 14.05062053266191,99.7774806596484 13.844940888608452,99.83565268025069 13.63718367239284,99.96446215393287 13.529149919960721,100.02678931910714 13.07727797475368,100.22623624667412 12.948468500699999,100.24701196804801 12.660724756179459,100.35920086480445 12.24105517942392,100.56280293700533 11.80476502543305,100.74562928721316 11.535719430371914,100.86612847268013 11.250053258075447,100.9450762145944 10.962309513616821,100.98247251345128 10.668333052671729,100.95338650342877 10.389938383004724,100.89521448264074 10.245547117672956,100.85781818396958 9.822761182736102,100.77887044168382 9.543327726864185,100.74562928721316 9.304406928340063,100.76640500858706 8.766315738279708,100.85366303958335 8.201216110111325,101.00740337964483 8.068251491733331,101.00740337964483 7.936325659498334,101.00324823501093 7.803361041058426,100.92845563729715 7.648581914977794,100.79964616342922 7.224757193897943,100.43399346288973 6.898578364439431,100.13066792721494 6.361525960522071,99.50324113418188 6.158962674711849,99.15420901100156 6.0872864351793785,99.04202011424513 5.537768598289082,97.95337230102766 5.349748317552035,97.63342618824136 5.114982663228393,97.30932493082116 4.9113805913370925,97.1057228590537 4.619481702554156,96.97275824073762 4.189424264987837,96.81486275647568 3.1506381839097717,96.58632981851467 2.460884226135853,96.46167548866147 1.94356875769706,96.40350346805918 1.909288817021484,96.39934832404445 1.8937070258672293,95.92981701502566 1.705686745130183,95.45197541797742 1.5872651318872837,95.14449473804022 1.18109977418576,94.38410332650534 0.9743813440512251,93.96027860561124 0.2295717239182524,91.99489534002579 0,90.96441954759635 0.2607353063505944,89.85499601325265 0.48407431378237836,89.58491163180084 0.9733425579701471,88.82867536483792 0.979575274518532,88.79127906598103 1.1322768284370075,88.63338358171909 1.6984152426245531,88.18878313889384 1.8542331547862627,88.08905967541993 2.146132043507283,87.96025020111858 2.58761612796546,87.83144072725065 3.007285704720999,87.78573413974513 3.6264022090435257,87.78157899511123 3.961930113293657,87.8106650053195 4.5384563882919835,87.94778476820755 5.07343121998527,88.13061111829155 6.503839653691682,88.84529594213518 6.937013449439319,89.14031118916135 7.510423366194411,89.45610215793292 8.016312187679429,89.81344456976186 8.55232580551571,90.15832154886552 9.436332760513144,90.79405863023763 9.569297378891136,90.87300637258531 10.905176279219445,91.69156980435099 12.357399220504663,92.4478060713139 13.256987966718269,92.80514848314284 13.844940888608452,92.92564766873365 14.557548140289923,93.03368142110385 15.324172268125533,93.06692257588409 16.266351243601424,93.05861228723548 16.35984199089845,93.0503019984011 16.91663133041821,93.00459541070984 17.885818744064043,92.82592420488824 18.521555825621903,92.63894271041802 19.018095572377216,92.45611635996254 19.791991202780377,92.08630851503682 20.082851305482233,91.920102742312 20.492133021488907,91.66248379395697 21.469630723783368,90.97688498069311 21.891377872639147,90.67771458940454 22.860565286408814,89.90485774477288 24.070751070740926,88.80789964346403 24.762582600738916,88.15969712868556 25.258083561475072,87.73587240760573 25.7161882232305,87.27465138766898 26.229348547221147,86.85913695523774 26.46203662938263,86.62644887320009 27.81038096262196,85.5336459155964 28.235244469844805,85.20538951416147 28.60089717032237,84.84389195788438 29.11405749443685,84.39929151505915 30.079089763758372,83.45191860942553 30.334631139703575,83.23169596011314 30.45720789720887,83.13197249620582 30.983872440377368,82.66244118762044 31.720371771861714,82.11811728132129 32.11199412436623,81.79817116834924 32.695791901932104,81.4117427461263 33.09884090139039,81.08348634444371 33.65043631050476,80.67212705627487 34.38278049760288,79.99068338702575 34.59884800259095,79.79123645945876 34.86269966712286,79.44635948072658 35.38001513543782,78.92281129573941 36.2816814538755,77.82585319405906 36.987017202927504,77.12778894751268 37.27787730562936,76.93665230878007 37.60301734894488,76.78706711298099 38.14838004151087,76.40063869075804 38.28342223205102,76.33415638187863 38.41223170610469,76.21365719628783 38.55973932961778,75.92279709370979 39.042774857381,75.45742092913916 39.55801275359572,75.13747481616711 40.00988469880276,74.81752870338082 40.42851548953914,74.42278999269499 40.8793486486651,74.19841219893446 41.46003006798774,74.00312041562987 42.00747033277779,73.92832781791607 42.555949383525096,73.80367348806287 43.006782542712976,73.58345083918391 43.61862754452987,73.18871212825042 44.58573738595164,72.49895817053842 45.586088382029814,71.66377416128972 46.29557927540613,70.94908933763185 47.03727253735779,70.2593353797341 47.83194388932059,69.6900806072414 48.00334359276039,69.56958142183635 48.80944159161505,69.05018838129732 50.131816272889345,68.4352270212991 50.77482485701475,68.36043442358532 51.41991101336423,68.33550355757752 52.58023506592843,68.33550355757752 53.45177658801484,68.30226240298302 53.98467384760789,68.19422865024133 54.637031506462996,67.96154056826559 55.0203435703808,67.74547306340135 55.28315644895547,67.65405988814264 55.54389175524415,67.62497387818205 55.963561331999685,67.66237017703894 56.2429947878716,67.74962820760183 56.675129797538155,67.95323027961696 56.934826317807676,68.14021177408718 57.185173763347485,68.5391056294069 57.39604733780634,68.74270770117438 57.672364435435014,68.87982746412435 57.94660396077771,68.92968919583035 58.228114988749866,68.91306861834734 58.49819936989208,68.85489659811655 59.02590269901782,68.63882909306656 60.344122235905886,68.18176321757797 60.73366701631016,67.97400600136235 61.41303311333521,67.31333805385863 61.527299582253804,67.20114915704028 61.765181594820675,66.99754708490131 62.03111083163858,66.84796188947374 62.8247433975203,66.5944980857526 63.77107751744434,66.32025856028608 64.17204894467855,66.17067336467275 64.55639979467743,66.00031244731403 65.20148595102691,65.52662599428052 65.42378617243953,65.30640334496813 65.65335789635779,65.0861806958415 65.92759742170048,64.76623458268371 66.32753006291554,64.23437610948132 66.5851490110229,63.80224109950518 66.87704789980583,63.14988344083582 67.07961118561606,62.82578218347755 67.45772931919039,62.385336885038534 67.797412367641,62.05292533921739 68.17864685939665,61.74959980354259 68.71154411898969,61.43380883458528 68.97539578358352,61.23851705165218 69.09277861074536,61.130483298910484 69.3130012599339,60.798071753027415 69.38363871350913,60.482280784503516 69.3742896387175,60.05845606342367 69.32754426513091,59.543218167085115 69.40960836553607,59.015514837897456 69.57269778020341,58.27589914847945 69.67346003006799,57.955953035445496 69.83447187269701,57.32021595376381 70.05884966620987,56.888080943973414 70.19389185675001,56.67616858337157 70.58759178147861,56.23572328518022 71.03946372668564,55.795277986555455 71.2877336000633,55.591675914787984 71.94424640330463,55.1262997504031 72.34210147235754,54.91438738992509 72.74515047181583,54.69831988506085 73.02666149978798,54.58197584410394 73.66655372573207,54.30773631863742 74.21607156262236,54.14568568992732 74.90063159005281,54.054272514916285 75.03982892491727,54.045962226019995 75.3234175251135,54.058427658931016 75.73062166883419,54.19139227743284 75.86670264545542,54.27449516379525 76.06926593126563,54.46147665845122 76.2032693357247,54.66923387466683 76.2707904310567,54.76895733857416 76.49101308024525,54.96840426614115 76.91899294558749,55.21771292559988 77.33970130848603,55.400539275683876 77.48409257369396,55.46286644085814 78.87710470854348,55.93655289352016 79.57620774098518,56.15677554283254 80.27219441530748,56.33960189328803 80.958832014962,56.51827309929537 81.64546961449268,56.655392861626176 82.34665021922038,56.73849574817434 83.01147331111035,56.73849574817434 83.82692038475662,56.63461714006653 84.35462371394428,56.46425622289356 84.61847537853811,56.33129160439174 84.88128825705085,56.160930687218766 85.3819831481924,55.74126111040131 85.5814300757594,55.5293487499233 85.8795616810288,54.79804334896818 86.05615531481207,54.48225238001086 86.25664102846014,54.27034001978052 86.5080272600191,54.10413424680803 86.76980135245078,54.00856592734885 87.16765642150368,53.91715275196631 87.30477618420599,53.888066741758045 87.84806130467173,53.72601611304795 88.63338358190484,53.38529427870201 89.28470245474078,53.235709082717186 89.93394375541457,52.96977984627078 90.45645315419684,52.712160898163425 90.71095574406097,52.52517940344554 91.06414301168942,52.097199538165206 91.38928305506685,51.569496208977554 91.69364737676081,51.153981776546324 91.82661199520072,50.97531057053898 92.24316521365111,50.671985034864186 92.88097986743304,50.11519569546826 94.01325669580814,48.997461872042514 94.62717926978719,48.40327623360394 94.93985388012976,48.016847811566734 95.17669710667748,47.77584944088046 95.64311205701962,47.24399096730657 96.20613411302584,46.674736194628125 96.30585757680934,46.57501273115422 96.93847830018588,45.9725168040051 97.11195557572591,45.743983866291764 97.22206690025827,45.54038179409088 97.27920013471757,45.33677972250916 97.28854920950918,44.99605788779172 97.40073810626562,44.47666484725269 97.47449191802217,43.919875507856766 97.71445150268929,43.338155302267296 97.87234698707506,43.10546722010581 98.33252922099264,42.606849901312174 98.47276534187627,42.49881614875622 98.95268451133434,42.26197292251809 99.57491737402393,41.94202680936029 100.47658369227585,41.60546011927675 101.96308657436049,41.02373991387304 102.88345104213373,40.71625923362626 103.48075303875362,40.57913947104779 103.76434163894984,40.55420860491616 104.89142453685763,40.525122594707895 105.05866909597312,40.525122594707895 106.39247042401544,40.53343288335652 106.95757005218383,40.52927773915604 107.85092608184904,40.566674038198684 108.40356027704449,40.58329461531019 109.26783029643953,40.658087213023975 110.73044109859744,40.72041437826015 111.78480897095359,40.71625923362626 112.29173657845777,40.695483512066616 112.90669793845598,40.62069091416708 113.86238113310972,40.55420860491616 115.49743042472659,40.39215797657757 116.14147779493308,40.363071966183554 117.07430769574118,40.284124224083534 118.19411909120525,40.13453902847021 118.65118496681768,40.03481556437713 119.73983277984941,39.8187480595129 119.96524935944335,39.72733488468761 121.05078081416993,39.50295709092708 122.42717237159836,39.228717565646306 123.8357662974783,38.904616308473784 124.67926059531369,38.75503111286046 125.21423542713082,38.696859092258165 126.61659663658621,38.51818788625082 126.90537916706398,38.47248129874531 127.98467790536601,38.206552061927404 128.12595281233072,38.16915576307051 128.21424962928427,38.14006975267649 128.9652919658418,37.90322652625261 129.3870391148214,37.82843392835307 130.35934288664856,37.678848732739745 130.77589610522278,37.64976272253148 132.17825731467818,37.61236642367459 133.4829726324503,37.56250469153517 134.30465242264498,37.52926353687876 135.01102695771613,37.45862608342736 135.68416033831664,37.34643718685668 136.3718367239284,37.18438655796084 137.77731429162702,36.71070010492733 138.4784948963547,36.461391445840086 139.1474731326309,36.170531342828646 139.7011461138455,35.962774126613034 140.5020501823567,35.7259309003749 141.18557142370608,35.53894940553318 141.88259688410946,35.273020168901034 142.07477230904698,35.13174526175058 142.1464485487033,35.09434896307944 142.60559199653977,34.832574870338185 142.84035765092534,34.67052424181384 143.38675912944856,34.28825096422477 143.6184084255909,34.10542461358354 143.9082297422117,33.810409366557366 144.071319156879,33.58603157304451 144.1523444712031,33.4281360889683 144.18870198404085,33.15389656350178 144.14507296863556,32.72591669797378 144.125336033157,32.39350515227647 144.13364632180563,31.869956967351207 144.15857718768956,31.724526915752612 144.18870198404085,31.633113740927325 144.34763625444577,31.392115369869547 144.632263640785,31.084634689994274 144.79950819977665,30.95998036014107 144.99791634120066,30.856101752033265 145.67104972186306,30.602637948312136 146.25952203673188,30.419811598228144 146.85007192376284,30.2577609693323 148.01455112065136,29.9419700008084 148.73754623308167,29.78407451654645 149.2278532634134,29.70512677419877 150.24742180192865,29.630334176484983 151.27010669875,29.60124816609096 152.1426870068556,29.530610712577655 152.50314577698967,29.484904125257884 152.62052860415054,29.45997325912626 153.22198574509568,29.285457197690896 153.64373289413723,29.144182290540446 154.04002978394468,28.961355940332624 154.5355307446189,28.637254682912435 154.77445154326685,28.454428332828446 154.9759760430589,28.225895394929353 155.1925629409627,27.89348384904629 155.79817522623122,27.03336897378982 156.31860705291325,26.164943810070472 156.36794939164062,26.073530635059434 156.6162192650802,25.66217134664294 156.86448913839592,25.37962153252779 157.22287033642976,25.06798570820437 157.64305930628777,24.81452190466899 158.09181489325158,24.58598896670798 158.5551134854124,24.374076606229973 159.8110058574358,23.929476163652392 160.313258927637,23.688477792594615 161.3120517445936,23.131688453198688 161.4045037057476,23.09013700989365 161.9000046664228,22.923931236983076 162.33006210405009,22.844983495006893 162.84218364195965,22.836673206358267 163.15070310803983,22.865759216380788 163.33560703047172,22.899000371222954 163.60361383938988,22.97794811313722 163.8617521805997,23.10260244280467 164.15468985540178,23.30204937037166 164.37906764891466,23.41423826712809 164.70057194100832,23.497341153676253 165.33786720181163,23.505651442324876 165.95646431309362,23.435013988873486 166.8877360347801,23.343600813862448 167.0622520963393,23.331135380765677 167.57489302741322,23.21063619554637 167.73642426302087,23.148309030681688 168.43137215120018,22.570743969354616 168.79390849349642,22.279883866590843 169.19487992085448,22.047195784615106 169.27850220031934,22.00148919710959 169.71219538916944,21.768801114886184 170.07940626883052,21.623371063535256 170.53906910970758,21.47794101212241 171.05171004078153,21.32004552786046 172.00947080747358,21.037495713931058 172.9983951567218,20.85051421927509 173.54427724232835,20.763256188464535 174.0003043318597,20.667687868819602 174.43607509293386,20.480706374349385 174.71602794172247,20.285414590982874 174.8412016644924,20.202311704434713 174.99701957665505,20.098433096326907 175.18140410604545,19.91560674630483 175.3881225362419,19.691228952730054 175.881545924754,19.018095572377216 176.25654769996126,18.52363339741256 176.37081416894176,18.403134212193255 176.68244999326615,17.833879439700556 176.8813775277916,17.4308304403661 176.9000756771891,17.389278996875312 177.05900994765597,17.02778144096973 177.1067941073846,16.948833698683963 177.5145176441468,16.250769452323336 177.8225177171874,15.55270520577696 177.88692245421328,15.299241401808162 177.92172178792939,15.274310535862288 178.06871001840193,15.008381299044387 178.43903725636721,14.547160279107642 178.62549935792168,14.318627341518134 178.93609639610213,14.002836372808485 179.13086878630426,13.82832031100162 179.61130734880285,13.454357322061183 180.17121304656587,13.159342074849263 180.43662289021938,13.018067167698813 180.56231600602982,12.93911942572263 180.88433969122593,12.747982786866183 181.3684140049464,12.536070426202425 181.75484242716936,12.340778643083581 182.31682569697068,12.016677385663392 182.7011765469686,11.804765025185382 183.2766640358878,11.443267468970216 183.93421562520922,11.011132459427492 184.21105211581653,10.811685531860503 185.06181791628237,10.097000707769212 185.143362623646,10.026363254503568 185.45811480615075,9.731348007291649 185.7687118443931,9.340764440992047 185.91154493054134,9.116386647293433 186.00815203608158,8.875388276669073 186.05853316101292,8.584528173843381 186.04658712108147,8.164858597025926 186.07151798702733,8.031893978524101 186.1213797189191,7.90723964885665 186.24343708350767,7.736878731497931 186.49742028026935,7.537431804116691 186.66830059066862,7.358760598295097 186.8947559562827,7.134382804596486 187.29261102533462,6.801971258527672 187.7314981445901,6.398922259193216 187.95587593810393,6.24933706357989 188.32308681776405,6.0623555691096715 188.70639888174378,5.887839507302807 189.02322863641066,5.750719744786252 189.50055084066605,5.505566229713746 189.57690161768718,5.464014786222957 190.28795069012418,5.056810642440356 191.03639606153996,4.6080550556003805 191.32829495032288,4.408608128033392 191.73549909416644,4.076196581964578 192.06323610268564,3.7230093145218692 192.24086852255,3.4944763765608617 192.3686392105845,3.241012572653981 192.47511478383308,2.8753598721764186 192.6309326959948,2.2770190896612026 192.65378598984043,2.2230022131355605 192.9545145602506,1.6911437396855078 193.11916215410147,1.4501453688753967 193.45105430700593,1.1218889674404775 193.88266992375577,0.7687016996262693 194.15067673267393,0.5941856382528203 194.61657228997552,0.3698078446780418 194.94586747767727,0.2451535150725069 195.421631502811,0.09141317501103678 195.77689634253971,0.029086009960603447 195.86519315949423,0.016620577111499616 196.28018819888396,0 196.61987124733457,0.029086009960603447 197.09355770030615,0.10803375212253641 197.4103874550969,0.22022264887896745 197.5480266107778,0.28670495812988006 197.90952416699298,0.5609444834106564 198.1250722788786,0.6939091019124817 198.6979628025322,1.0554066581895647 198.7784687238767,1.0969581014326875 198.928053919491,1.138509544551977Z"/></svg>