<svg xmlns="http://www.w3.org/2000/svg" width="256" height="256"><path d="M2.4025228920795234,0.15995204166425703 4.2106294141958465,1.1239873182498876 5.4383694077594535,2.0880225945778457 6.799042516751952,3.298470475428121 7.781450663023028,5.0838811001638025 8.530415289210158,4.318705118235453 8.803846819452495,4.011770119925074 12.540023894804497,5.049296874737139 13.113905881138027,5.209248916208141 13.246838996695756,5.217894972500389 13.39274119656302,5.230864057067596 14.33732284655551,5.295709479001783 14.919850889181289,5.321647647878526 15.422402911232611,5.325970676153487 16.256747343370105,5.1919568038168995 19.826487835096337,4.616994060124748 25.65284901903483,3.0434118148712286 26.72495999927356,2.7537689293385994 27.718175715781108,2.373342452479696 28.738410358330768,1.9842699190064539 30.204997656838884,1.4222762600747645 33.02361200811167,1.054818867847487 34.00602015431833,0.9294510515454757 38.14207733312237,0.25073563247518643 38.71595931952032,0.19453626663999382 40.306833677358334,0.0432302817189116 42.96549598716012,0.3977185895722355 44.52827066198391,1.1845097122956223 45.07621447956953,1.4352453446419726 46.95348945202384,2.304174001884041 48.93019407183899,3.216332940909439 49.152830021299955,3.28550139131184 50.17954920600438,3.614051530095166 50.79990374503758,3.81291082501012 52.67285568934577,4.1890142737873175 55.51308518128475,4.41381173738576 56.2858264624044,4.729392792052805 58.00639166456171,5.434046379806584 60.31813096576589,7.154611581963898 62.25592833226593,8.684963545498505 62.45586838395974,8.741162911720208 64.0489042558064,9.164819669847095 64.67574333699437,9.294510514166394 66.35199750065391,9.640352765985144 66.90318358934913,9.752751497655527 69.99198719975466,9.419878330403987 70.92143825110688,9.320448683043137 72.59553090069336,8.957314319026402 72.77277505468444,8.918407065389196 73.75950622903721,8.6806405174168 77.8825943234029,7.682021015662178 80.1262459312412,7.439931439672494 82.81733095226775,7.14164249739669 83.59871828961522,7.145965525864905 84.48493905957062,7.249718201049787 85.4716702339234,7.46154658053195 86.55566954156397,8.03650932357992 87.56941964183004,8.442873969702076 87.95308838979852,8.697932630258968 88.59289655542487,9.147527557262599 90.10919867767782,9.990518045627924 91.17806738680696,10.375267550697371 94.18581421947266,9.951610792377227 95.75615419355218,9.419878330403987 95.79614220390383,9.406909246287707 97.058466422572,8.918407065389196 98.46669284117186,8.205107421536425 98.8827843002363,8.053801436164415 99.6436372539541,7.52206897438443 99.98947950564401,7.284302426476452 100.69089082235261,6.808769330145149 101.60953430340395,6.069531517157961 102.7518944910816,5.918225532236879 103.78293670393215,5.827441941168278 104.87990509594668,5.762596518783164 107.04682295419128,5.836087997267271 108.22809039518405,6.013332151322769 109.62550924335419,6.36349743135206 110.70950855105917,7.020597709562893 112.06477787486902,8.542303617062926 112.80617720186486,9.415555302579955 113.46543899421317,10.362298466516672 114.32464083825529,11.74999050122919 114.92121872235597,12.921531129022023 115.2292344777673,13.65212288545929 115.66586032052582,14.862570766309565 116.13166660333509,16.146510126030456 116.63421862525757,18.139426101329157 116.65259149494301,18.217240608023804 117.21026212572858,19.764884684336163 118.62497308661204,22.371670656191206 119.90675093187336,24.15708128047596 121.38522655784774,25.237838317006936 122.25415521521865,25.70904838525653 123.81152610485978,26.05056760886474 125.64124776777115,26.309949297245662 127.69684765118865,26.50448556388566 129.57196110956988,26.534746760844108 130.41279008399098,26.53906978931232 131.34872567762682,26.543392817329607 132.85854325766059,26.56500795799581 134.00954950156608,26.647145492965418 134.23542772220105,26.642822464497204 136.61093168856056,26.997310772608202 136.82492158172926,27.044864082151147 139.3549738042483,27.6414419665095 141.08850809084396,28.125621118682123 142.36704366512453,28.75246020019218 143.8314694495596,29.975877165158735 144.8646731764832,31.182002017927303 146.14320875069933,32.61724736256927 147.23369260062353,33.85795644057126 149.00181111232376,35.72550459982562 150.19388612361743,37.100227550164185 150.33222302435783,37.260179591635186 152.30028158788073,39.81508922605883 153.4026537650779,41.548623512332426 153.5593635353749,42.05441780581543 153.64690485539833,42.210046819011474 153.81658371006927,42.465105479568365 154.1310840076998,42.914700406571995 154.49529912901073,43.593415825449036 154.82493002515267,44.18134765345072 155.09511928428543,44.665526805881015 155.499322415948,45.32695011236681 155.8138227135785,45.75060687042928 156.1899261622913,46.19587876941562 156.6265520050498,46.667088837471965 157.14639613968563,47.051838342348155 157.613283179467,47.3025739750166 158.1752768383987,47.61815502968364 158.8658805848064,48.00722756283479 159.3587057934001,48.227701998158274 160.2687032181592,48.72052720688082 161.06522115408254,49.19606030301887 161.83363940712047,49.7018545962442 161.89200028709314,49.74940790559389 162.861439348797,50.488645718581076 163.64390744330984,51.067931490097266 164.03838376157924,51.40512768562377 164.19617428891277,51.53914155834686 164.7062916102198,51.9541522601815 165.1883092485126,52.291348455708004 165.66384234452184,52.73662035482318 166.1750404228654,53.22079950686697 166.58572809668274,53.67471746233881 166.89914763734114,54.05946696740826 167.12070282983,54.47447766962941 167.34658105040057,54.91542654053405 167.6416277213735,55.52497350900868 167.88263654051994,56.1172283648344 168.19713683821485,56.8607892062898 168.57432104396418,57.53518159669863 168.81965289119228,58.088529199724576 169.1341531888228,58.78453673118611 169.14928378733424,58.81912095616184 169.43244213090534,59.47189820635539 169.67128943597868,60.02092278071987 169.98038594849098,60.80339087536155 170.16627615870988,61.36538453429324 170.34676258381054,61.810656433472836 170.58993291703,62.45046459909918 170.872010503629,63.09891882101776 171.14328051973388,63.678204592533945 171.38861236709084,64.20993705470045 171.5388375951042,64.61630170037166 171.57774484848375,64.76328465708221 171.70095115058388,65.22152564082901 171.8446918365069,65.7186738773756 172.04247037419208,66.19853000153093 172.43910820659895,66.85130725191773 172.97192142554428,67.83695766910515 173.12863119584128,68.32545984961715 173.22157630104738,68.72317843918938 173.2550797691154,69.22464970381766 173.27237188182875,69.77799730665036 173.3004715646497,70.48265089440413 173.36423622980504,70.74635561144653 173.4117895394768,70.88036948404078 173.41719332459505,71.13542814459768 173.5512071971893,71.87466595777812 173.94352200138565,73.04188355710274 174.4136513122766,74.00159580541342 174.85027715503512,74.86187840655649 175.27285315631875,75.86914396447452 175.74298246727415,76.96287008576596 176.16231619744815,77.96148958713407 176.5232890476495,78.77421887892746 177.1101401184214,79.75986929598604 177.77480569595238,80.72822760097546 178.47297474155138,81.53663386397854 178.50323593850982,81.5712180894052 179.08252171009042,82.19805717065759 179.66180748173545,82.80760413913222 180.48426358647112,83.61601040245739 182.21131333084762,84.85239645244208 182.59714359295359,85.01667152173712 185.1174690020794,86.00664496719949 186.31819006966532,86.4130096131284 187.4918922114024,86.72426763932722 188.49915776938482,86.94474207510164 189.52911922519885,87.17818559479907 190.41533999521866,87.35110672057961 191.48961248946603,87.45053636794046 192.68709128594236,87.48079756489891 193.32257642342256,87.50241270575836 194.1115290601546,87.47647453707488 194.60435426874832,87.45053636794046 197.8131219102732,87.31219946752216 198.72311933503227,87.27329221388496 202.29177906959313,86.81937425860637 205.78046278357957,86.28331876842259 206.69154096531074,86.10175158647864 209.14161716712647,85.60892637801376 210.22453571779494,85.29334532315347 212.83132168990764,84.70541349534504 213.9401784093884,84.38118638438574 214.49244525499134,84.24717251159824 214.67833546533907,84.17800406158234 215.17332218807027,84.00075990733359 215.77314234340938,83.72840913419219 216.40970823779728,83.39553596694066 217.19325708928224,83.00646343404718 218.3010330517265,82.60009878811827 219.38179008825747,82.31477893040969 220.7575937958258,82.01216696030984 221.42982467248368,81.81330766539489 221.8913079271468,81.6792937930583 223.35032992646364,81.47611147025489 224.46350967409055,81.34642062574234 225.6382925727997,81.19079161235305 226.80334865811568,81.10433104936615 227.70253851250945,81.1129771056584 229.00160847041968,81.28157520342165 231.3954853063358,81.81763069386311 231.7996884380628,81.98622879136869 232.36600512520502,82.27587167715899 233.18197668778592,82.69088237938013 234.23679555537572,83.2961063195798 235.06789771653249,83.79325455631964 235.55531914000795,84.18665011787459 236.91274997782642,86.01096799547446 239.07534480798932,88.54858551705593 239.61788484026346,89.23594699241848 240.8607554322741,90.80952923747873 242.10794905243083,93.07911901419378 242.71857677813526,94.33279717676297 243.2892164933592,95.04609682061574 243.70530795248803,95.60376745165898 244.206779217374,96.30842103967043 244.86063722447523,96.99578251483972 245.45721510870476,97.85606511559628 246.18456459422566,98.47858116883138 246.74007371106703,98.86333067390082 247.20804150788493,99.2307880661281 247.93539099340586,99.8922113726139 249.1123354061881,100.81733939594882 249.16313098696946,100.76546305793767 253.3586298027183,103.916950576462 256,106.57993591453874 254.606904179976,108.2226866100014 254.5593508703042,108.2702399197376 254.45992122294336,108.30050111669605 254.38210671637754,108.33508534212271 254.324826593377,108.36966956709846 254.2340430023728,108.4388380173076 254.15839000975123,108.50800646771 254.1054329149612,108.5771749181124 254.05787960541826,108.68092759368379 253.97898434168707,108.85817174754604 253.90765437727603,108.95327836708285 253.8752316661801,109.00947773272479 253.86226258174173,109.05703104226774 253.84605122625817,109.10026132398664 253.8049824588056,109.15646068962859 253.75094460697903,109.21266005546377 253.69906826922556,109.2688594217499 253.6536764738201,109.32938181560237 253.61152694933097,109.38125815322702 253.5672159108332,109.45474963190439 253.54235849892856,109.52824111013082 253.46562474933486,109.81788399630763 253.4386058234216,109.90434455910128 253.41050614060063,109.95189786845097 253.39213327091517,110.01242026275438 253.34566071827993,110.07294265686453 253.28729983837167,110.1377880787987 253.22353517315193,110.19398744482716 253.15868975096006,110.22857167006056 253.04737177619737,110.27612497941026 252.9403768295808,110.33664737371366 252.88525822071773,110.37987765498166 252.85499702375927,110.42743096478226 252.80312068594137,110.51389152776916 252.7793440312021,110.57441392187931 252.7415175348591,110.70842779402265 252.70909482376317,110.81218046959404 252.6961257393248,110.88567194807814 252.68964119717003,110.97213251106504 252.7166601230833,111.04130096127419 252.73827526381393,111.06723913034419 252.74259829196006,111.13208455253604 252.7274676933842,111.17099180578674 252.66262227125677,111.22719117162194 252.54157748310087,111.28771356573209 252.50915477206937,111.30932870659154 252.46700524758023,111.38714321309294 252.40972512470853,111.54277222628897 252.39783679724226,111.5860025080079 252.4518746490688,111.67246307080153 252.6258765320147,111.87564539354052 252.75232510528883,111.98372109719362 252.8528355096218,112.07882771673043 252.91984244588673,112.15664222323183 252.99009165332566,112.29065609556841 253.01711057923893,112.37711665855531 253.01386830812933,112.44628510876446 252.98684938221606,112.56732989717801 252.93929607254427,112.68405165693011 252.94578061482787,112.73160496647306 252.96307272741237,112.80941947316771 252.95226515698263,113.09041630285901 252.9598304563028,113.17687686565266 252.97604181178633,113.34115193514094 252.96307272741237,113.4016743292511 252.9360538014991,113.44922763879404 252.8874197348552,113.50110397661194 252.84418945332956,113.54865728615489 252.6982872534623,113.66105601801853 252.55562732457577,113.76048566537938 252.43998632166696,113.83830017188077 252.2627421676759,113.94637587553387 252.11143618256156,114.05877460726867 251.99687593668926,114.16252728284006 251.93419202857046,114.25331087390867 251.90825385969373,114.30951023993711 251.90176931753896,114.37435566212898 251.90285007451106,114.42623199994688 251.8823156908814,114.48675439379936 251.85745827897676,114.52133861903276 251.8336816242375,114.59050706943516 251.81422799751553,114.66399854804811 251.80017815604063,114.72884397023996 251.7677554449447,114.86718087085151 251.73425197687666,114.9579644618557 251.66940655462037,115.07468622186546 251.6175302169313,115.14385467226786 251.50729299914073,115.22599220678654 251.30194916226426,115.30812974175616 251.00149870604423,115.42485150150824 250.82641606612623,115.48537389581165 250.69024067958773,115.5286041772729 250.5778419477885,115.56318840231305 250.43626277593853,115.60209565556374 250.3368331285777,115.62803382463375 250.2330804530707,115.64532593728265 250.1660735168058,115.65829502139894 250.04286721464126,115.6928792468256 249.93371075401606,115.72314044378405 249.81590823703417,115.74475558457908 249.69594420591483,115.770693753327 249.5522035200562,115.8009549504787 249.32416378534816,115.85715431612064 249.21500732465853,115.90038459783955 249.11449692039,115.96955304824195 249.02695560030213,116.03439847017613 248.92212216775863,116.0949208642863 248.83133857669003,116.12950508926203 248.7146168167447,116.15544325839645 248.5719568879226,116.18570445554815 248.42605468799093,116.20731959595668 248.39255121992286,116.36294860934596 248.39147046282193,116.52290065062371 248.30500989989946,116.85577381787526 248.28015248812366,116.96817254980331 248.2606988614017,117.02004888762121 248.21422630883086,117.210262125793 248.18936889699063,117.37453719573222 248.15046164373993,117.52152015263601 247.91485660971176,117.88033148857104 247.7592275964513,118.0229914176508 247.5841449565333,118.19591254323808 247.2945020708074,118.58066204830753 247.08699671979346,118.85301282144891 246.88381439692563,119.13833267896426 246.39639297338576,118.80113648363101 246.00732044036343,118.52013965419738 245.61824790708346,118.23481979648878 245.48423403461803,118.13971317759615 245.43019618279146,118.09215986779553 245.2594365710196,117.9711150798329 244.8563141963291,117.67714916583205 244.42401138171672,117.33130691401331 244.01008143672536,117.04166402841626 243.90092497603572,116.95952649351106 243.8576946946389,116.92494226847091 243.809060627995,116.89035804330192 243.76907261764336,116.86441987416751 243.59507073469746,116.73472903010588 242.91419380168296,116.23758079291513 243.29137800749666,115.99549121692544 242.28519320642192,115.4464666423677 241.6216083859919,115.0963013626605 240.66946143687252,114.59050706943516 240.298761773278,114.40029383081246 239.02671074134543,113.7561626373621 237.2812881272835,112.89155700813731 236.70956765495862,112.61488320652771 236.37453297369842,112.44628510876446 236.23619607295805,112.40305482768973 235.19866931795272,112.00101320977811 234.77609331666912,111.81944602770533 234.45835074786459,111.70272426795324 234.15033499251768,111.60761764860968 233.05877038555698,111.18396089035394 232.7561584153283,111.04994701756644 232.29575591776612,110.83811863872846 231.81157676540022,110.66952054077196 231.34901275382938,110.51389152776916 230.79566515118995,110.31935526112918 230.46711501195568,110.20695652920111 230.25312511872255,110.1377880787987 230.08236550695065,110.07726568468856 229.75813839599138,109.97351300950368 229.53442168949388,109.89137547453407 229.29017059923788,109.80059188365873 228.98107408672558,109.68819315179508 228.61469745140602,109.56714836357477 228.23535173151922,109.44610357554772 227.54907101332205,109.22130611194927 227.50043694667815,109.20833702763974 226.64339661677352,109.0527080144437 225.76474114607385,108.90572505728224 225.41025283802725,108.84520266342976 225.12493298044748,108.79332632541859 224.76828315832785,108.73280393130844 224.46134815995305,108.68092759368379 223.9771690076516,108.58149794632294 223.77398668478378,108.57285189003069 223.56323906266024,108.3307623136545 223.75237154405315,107.96330492155606 224.14360559127738,107.27162041817624 224.11226363721798,107.23271316473229 223.63456902707128,107.41860337508002 223.0887867235587,107.58287844437507 222.83913184812005,107.63907781059676 222.70295646158158,107.68663112020413 222.58731545860834,107.73850745795761 222.30956090021988,107.7860607673073 221.493589337639,107.9460128087783 221.47413571111028,107.88116738665087 221.4481975421047,107.84658316161071 221.41901710218278,107.82064499254072 221.38119060583978,107.79902985168125 221.33796032444295,107.78173773929002 221.2947300429173,107.77309168299777 221.21907705036014,107.7687686547228 221.18125055414598,107.76012259843057 221.1272127023194,107.74715351424986 221.09370923412254,107.73850745795761 221.0537212238353,107.72121534517987 221.02670229792204,107.70392323278863 220.99319882972515,107.66933900736196 220.96617990381188,107.64340083848522 220.94132249203608,107.60881661344506 220.8937691823643,107.54829421959258 220.86458874244238,107.50938696614863 220.8310852742455,107.46183365634802 220.78137045056508,107.39266520613887 220.74138244021344,107.35808098077662 220.68626383135035,107.32349675599414 220.6322259795238,107.31485069963747 220.554411472958,107.33646584011042 220.5090196774237,107.35375795269492 220.4614663677519,107.37969612182933 220.3814903470486,107.42292640329057 220.33285628040474,107.45318760005577 220.2863837278339,107.47047971289794 220.22910360489774,107.50074090979197 220.1826310523269,107.54397119112437 220.17290423899814,107.63907781059676 220.07131307756424,107.60449358523452 220.01187144055504,107.58720147284328 219.97188343020338,107.5699093600011 219.92216860652294,107.54829421959258 219.84651561396578,107.51803302244087 219.80652760367855,107.52235605065142 219.6898058437332,107.48777182548243 219.61631436518468,107.47912576919018 219.5536304570659,107.49209485349972 219.49310806302014,107.50938696614863 219.4217780986091,107.53964816330034 219.3061370957003,107.58720147284328 219.2434531876459,107.61313964152677 219.15050808256868,107.65636992324568 219.09106644549504,107.6779850636542 219.05972449143565,107.69095414802817 219.03162480842144,107.72121534517987 218.81006961593258,107.81199893644173 218.73982040862248,107.83361407710792 218.63174470496938,107.87252133055188 218.59932199380904,107.88981344294312 218.54096111390078,107.91142858380258 218.60040275090998,108.0065352026952 218.63714849021648,108.0757036530976 218.691186342043,108.27456294801256 218.44261222357648,108.13622604740101 218.3075175940101,108.06273456891691 218.23618762959904,108.0367963998469 218.077316345229,107.96330492155606 217.83846904015564,107.79470682385723 217.62664066093117,107.66069295106972 217.5336955558539,107.57423238808282 217.44507347879397,107.49209485349972 217.35537064476188,107.41428034699832 217.23972964191748,107.34943492467762 217.1262501530173,107.31917372752592 217.01168990714504,107.29323555884244 216.92090631614084,107.28458950248577 216.8149921264964,107.26729738970802 216.72312777845568,107.26297436188399 216.62910191621307,107.26297436188399 216.42483883637314,107.27162041817624 216.30811707642778,107.26297436188399 216.17518396087007,107.22839013645732 216.03468554612104,107.19380591148159 214.53135250830644,107.36240400924484 213.9963777752236,107.42724943117902 213.54029830580754,107.44021851593949 213.47004909843304,107.56126330370887 213.27551283185744,107.77741471101506 212.9977582735334,108.06705759699861 212.76215323950524,108.29617808887201 212.03588451095644,109.07000012683494 211.30421199722494,109.8308530804239 211.07184923449964,110.0686196283963 210.78869089079967,110.3539394861049 210.56389342720124,110.58738300599559 210.44068712510114,110.72139687878311 210.18778997855287,110.99807068019946 209.74792186474917,111.44334257892812 209.6171502632645,111.78053877445463 209.4571982217935,112.47222327783446 209.37397993004504,112.73160496647306 209.35236478925,112.80941947316771 209.2961654234148,112.96504848636374 209.68956098464767,113.04286299325165 209.4885401758529,113.47516580786404 209.2432083286248,114.06742066356092 207.79823617071847,115.8009549504787 207.57776173526614,116.32404135590201 207.4469901338459,116.58774607300883 207.38862925387323,116.73040600163766 207.5723579501479,117.02437191563851 208.0468102891206,117.70308733451554 208.56233139561027,118.40341789444528 208.51585884297504,118.44664817590653 208.23378125650487,118.87895099051892 207.6566569989329,119.95106197075765 207.37133714128873,120.40497992584298 207.3043302050238,120.46982534816368 207.2589384094895,120.4482102075619 206.7596286586122,121.54625935648411 206.6720873387176,121.68891928549945 206.62993781422847,121.75376470769132 206.54455800840697,121.8877785800279 206.49376242762557,121.9699161149975 206.40946337884057,122.12122210011185 206.31867978770757,122.28982019748858 206.76827471490444,122.47571040783633 207.1119554525857,122.6183703369161 209.4917824469625,123.36193117772731 209.6063426928348,123.40948448765677 209.63228086171154,123.39219237487902 209.7814253327528,123.29708575579313 209.85599756840227,123.26250153036646 209.89058179350687,123.27114758685197 209.95758872970737,123.52188321939157 210.19427452070764,123.60402075410352 210.3045117384338,123.64725103543591 210.51525936055734,123.72506554213057 210.6698076168457,123.78558793604746 210.75734893674027,123.81584913319917 210.82327511603307,123.84178730226915 211.0340227380922,123.92392483685227 211.31069653944414,123.99309328725467 211.6230353230016,124.09252293461552 212.06506495094277,124.22221377912807 212.3071545271257,124.2957052573545 212.48547943821774,124.34325856689745 212.72324598625454,124.43404215796605 212.77944535208974,124.45565729901875 212.9458819357155,124.52050272095295 213.07989580830977,124.5507639179114 213.68728126284017,124.74530018455138 214.32492791432904,124.88796011363115 214.9344748829969,125.05655821139439 215.10955752291494,125.13004968962083 215.2370868532256,125.17327997114648 215.7612540158787,125.39375440646997 215.8455530647281,125.44995377256284 216.0336047891489,125.54073736356702 216.02495873285667,125.73095060180322 216.01198964835388,125.99465531884562 216.16113411939517,125.9730401781794 216.28217890748664,125.94710200910941 216.8776760346152,125.74824271438771 216.94900599902624,125.76553482716547 217.00520536492584,125.85631841804081 217.05600094570724,125.91684081215097 217.07221230119077,125.95142503757762 217.1219271248712,126.0033013753311 217.1608343781863,126.05950074123072 217.22135677223204,126.03788560037127 217.3143018773737,125.98600926255337 217.36833972920027,125.94710200910941 217.4148122817711,125.90387172797027 217.8276614697259,126.3015903172204 218.0751548310915,126.47451144300095 218.2880639672881,126.63446348447195 218.33453651992338,126.64743256903915 218.3150828932014,126.67769376619086 218.27833715395934,126.79441552594295 218.27293336877668,126.8333227793869 218.27185261180458,126.93275242674775 218.2761756399507,127.01488996126643 218.33129424874937,127.22671834055534 218.42640086796408,127.49906911369673 218.53988035679984,127.57256059237409 218.66957120118354,127.62443693012757 218.92787213291444,127.68495932385122 219.2013036631568,127.72818960557014 219.39151690158624,127.67631326755897 219.4877042779019,127.64172904277649 219.60982982309434,127.63740601430827 219.714663255509,127.65037509906874 219.78923549109408,127.66334418318502 219.8530001563138,127.68495932385122 219.89082665246355,127.75412777425362 219.90487649393847,127.78871199968029 219.97080267316684,127.77574291511307 220.0561824790528,127.73683566186239 220.1999231649114,127.66766721145999 220.3188064389298,127.61146784562479 220.54360390252828,127.50339214197169 220.67545626104948,127.43854671958658 220.8905269112547,127.36073221289193 222.19067762620148,128.47175044657462 222.8412933621931,128.48904255935236 223.69401066408048,128.51065769982532 225.35945725737471,128.575503122146 225.39728375358888,128.57982615022772 225.4469985772693,128.58414917850266 225.34324590176234,128.8997302331053 225.25462382476678,129.23260340042125 225.11088313890818,129.54386142681332 224.94444655534681,129.86808853777262 225.01793803383092,131.00072191231476 225.07521815676708,131.10879761596786 225.15519417740595,131.25145754440345 225.17464780412791,131.29468782612236 225.2135550573786,131.3984405015005 225.24597776847455,131.4503168393184 225.28920804993578,131.4373477547512 225.41889889444835,131.36817930434879 225.55939730906852,131.2601036006957 225.64369635798235,131.1909351506798 225.7463682764528,131.0958285312074 225.8231020260465,131.03098310927322 226.0079114792933,130.94019951820462 226.18299411921132,130.88832318019345 226.31268496353061,130.87967712390122 226.45102186420658,130.9142613490702 226.54180545527518,130.9142613490702 226.66609251454068,130.90993832105292 226.79686411602532,130.92723043344415 227.04327672028998,130.95316860251415 227.3685845882858,130.96181465887082 227.74360727989762,131.00072191231476 228.11106467238258,131.052598249875 228.3769309033692,131.0828594470267 228.64387789132795,131.06989036252392 228.81571826013635,131.03530613709725 228.85246399937841,131.3033338824146 229.59602484051172,131.4892240925691 229.75813839599138,131.5454234584043 229.67816237535249,131.73995972523753 229.72679644199638,131.76589789398545 229.90187908184998,131.84803542889063 230.05750809511045,131.53677740211205 230.16018001364532,131.3508871917643 230.37633142095152,131.22984240373725 230.54168724747632,131.1347357844581 230.66597430667738,130.97046071516306 230.67137809186005,130.7888935328326 230.91346766804298,130.44305128140036 231.31550928563252,130.49060459100772 231.60731368549588,130.52518881598346 231.75537739950062,130.52951184425842 231.92829852534558,130.54680395684292 232.21577989706282,130.55545001294192 232.3584398258849,130.56841909770236 232.52487640963952,130.65487966049602 232.69887829245658,130.78024747654035 232.81668080943845,130.85373895521772 232.98960193521899,130.95316860251415 233.06633568481269,130.9877528275543 233.18197668778592,131.03962916556546 233.43163156316015,131.13905881292632 233.56672619272652,131.18661212246926 233.61968328751655,131.25145754440345 233.60671420307818,131.3292720510981 234.08981259840752,131.63188402158443 234.47996588859522,131.9517881043332 235.10140118460052,132.44461331305573 235.2019115889979,132.51378176345813 235.6050339637528,132.7904555646168 235.74337086436432,132.88123915549215 235.1705696349385,132.94608457807053 234.21950344279125,133.0498372532554 233.49431547127895,133.10171359126656 233.32571737364455,133.1190057036578 233.08903158257985,133.13629781643556 232.7734505279128,133.14926690061625 232.66969785240582,133.1449438727278 232.4351735754786,133.15358992908446 232.14877296079788,133.21411232293696 231.87317991648248,133.29192682943835 231.63109034029955,133.35677225182346 231.39116227818968,133.43026373024315 231.43763483076052,133.61183091238036 231.46249224260072,133.8106902072953 231.28308657453658,133.77178295385136 231.27660203238182,133.64641513754933 231.18365692717572,133.67667633470106 231.17501087088348,133.7415217568929 231.13610361756835,133.77178295385136 231.10368090647245,133.6031848560881 231.06477365322175,133.53833943389625 230.01968159889628,133.8193362633943 229.93430179301035,133.8452744320778 229.82838760336588,133.85824351683826 229.70301978712828,133.89282774200723 229.50307973543448,133.94902710790686 229.26639394436978,134.0268416146015 228.48500660702229,134.18679365581482 228.31424699525041,134.2386699934395 227.95003187387505,134.38565295034329 227.63012779106188,134.5239898511481 227.47449877780141,134.6061273861177 227.34480793348212,134.70555703347853 227.22592465939928,134.82660182124792 227.1708060505362,134.86983210296683 227.08434548767815,134.88712421535806 226.83577136927602,134.89577027165032 226.63799283159085,134.87415513117736 226.43156823761345,134.84821696210736 226.31268496353061,134.83524787773342 226.22082061542548,134.87415513117736 226.25000105541181,134.96061569403543 226.26188938281365,135.01681505987062 226.26297013985018,135.09462956637202 226.21109380216112,135.09462956637202 225.59073926312792,135.24161252327582 225.2167973284882,136.76764145917963 223.42706367605734,139.06316940457816 218.28482169624294,139.53437947244126 213.5284099784057,139.6900084856373 213.33927749701277,139.82402235842483 213.18905226893497,139.9061598929435 213.0399077978937,139.97965137162086 212.9307513372685,140.0228816530821 212.76647626765137,140.0531428502338 212.2898624145412,140.07475799070676 211.96347378963767,140.07475799070676 211.6089854815267,140.08772707527396 211.22639749059474,140.1612185538869 210.54660131461674,140.3384627075559 210.34125747774027,140.39898510166603 210.12402531333314,140.49409172113843 209.6765919002093,140.7318582689176 209.48637866184427,140.8269648884544 209.21402788857404,140.9307175636393 208.95572695684314,141.06473143616913 208.53423171259607,141.29385192784926 208.28889986543237,141.42786580057236 208.03059893363704,141.54458756051773 207.78634784331663,141.60510995443462 207.56695416496527,141.65698629225253 207.2546153813434,141.8212613617408 207.09250182586374,141.93798312168616 207.2157081280927,142.21897995137746 207.8339011529884,143.42078177612873 208.67581088444604,144.9684258520546 209.17620139229547,146.8402970395195 209.68631871353807,148.68190702970386 210.11429850000434,150.23387413409793 210.59199311015104,151.94147025207454 210.65467701826984,151.94147025207454 210.59955840940677,152.14032954660297 210.66224231752554,152.55101722035593 209.69820704100434,153.1346260203403 209.11135597016803,153.48911432825807 208.27809229493823,153.9949086214834 203.89670326890607,155.4258309379148 200.59390976520297,153.9430322837299 199.01816600594083,154.66497798387493 195.50894790845356,156.29475959496364 193.0534679213908,156.2904365671396 191.52851974278116,156.2861135386714 191.30480303621923,156.01376276572324 190.8217046408899,155.65062840132 186.28792887264245,152.83201405024047 186.12041153198015,152.72393834658737 183.9988854693987,151.34489236758736 180.59125853308768,149.3346842798974 177.25820383242615,144.2724183207863 174.60062227966088,139.10207665782886 173.3977396980019,137.23885152704273 172.4596425902286,136.4088301227937 172.43694669246145,136.3785689260285 172.34940537250245,136.2575241378726 172.17864576073055,136.00678850513972 172.0132899341413,135.7776680134596 171.8241574527484,135.53990146574486 171.59611771810478,135.27619674863806 171.40158145146478,135.06004534133186 171.20920669902668,134.84389393402566 171.04709314354704,134.61477344240993 170.91307927095278,134.37700689405102 170.7985190251449,134.12194823349412 170.7001701348206,133.86256654485553 170.58885215999348,133.6075078841054 170.56939853340035,133.55563154654516 170.50995689632674,133.40864858964136 170.3770237808334,133.17088204147572 170.23436385201134,132.92446943721106 170.06792726838557,132.68237986096372 169.90797522704338,132.453259369348 169.876633272984,132.36247577808612 169.7836881677779,132.1117401458042 169.72532728780524,131.99501838560118 169.68425852041707,131.9128808510825 169.66372413678738,131.8523584567791 169.5534869189968,131.58000768383096 169.4346036450428,131.32062599480585 169.3956963916633,131.20822726332872 169.26276327616998,130.96181465887082 169.1168610762383,130.71540205460616 169.04553111182724,130.61597240724532 168.84775257414208,130.36091374649519 168.77966488084064,130.27445318370152 168.60133996987744,130.0366866355359 168.4078844603384,129.7945970594818 168.22523652110024,129.5525074831056 168.04366933902747,129.31474093493992 167.87290972725557,129.08129741504925 167.74105736879878,128.8219157266039 167.61136652441508,128.58414917850266 167.3519848355832,128.06970882892065 167.23094004749174,127.81032714028207 167.21797096305338,127.77574291511307 167.06018043571984,127.54229939541564 167.02451545351434,127.48610002932277 166.8732094684644,127.23968742486488 166.719741969277,127.00192087715016 166.55114387151377,126.7771234135517 166.52952873084757,126.7511852444173 166.48197542117578,126.6690477098986 166.36633441826697,126.41398904908405 166.32310413687014,126.267006091987 166.26366249979654,125.99465531884562 166.2312397887006,125.73095060180322 166.19881707760467,125.45427680058012 166.13829468362334,125.18192602743873 166.1307293843032,125.05655821139439 166.1296486273311,124.79717652236928 166.12856787023014,124.5248257492279 166.11451802875524,124.269767088671 166.07561077550454,123.98012420268745 166.04426882144514,123.72506554213057 166.0053615680656,123.44406871269692 165.97510037104274,123.17171793949112 165.93403160365457,122.89072110986423 165.88107450892898,122.61404730844788 165.8378442274033,122.3460195637747 165.7989369740882,122.0736687901824 165.79245243193344,121.9742391430148 165.78380637557677,121.9093937206941 165.74489912226164,121.63704294774597 165.7113956541936,121.37333823089683 165.68653824228898,121.27390858353598 165.67789218599674,121.23067830181706 165.5060518171883,121.32146189307892 165.17101713592814,121.41224548414752 165.0737490025759,121.45115273739822 165.03700326333387,121.46412182190102 165.0002575240918,121.47276787819327 164.9645925418863,121.47276787819327 164.8597591094072,121.50735210323342 164.55498562504104,121.6197508349038 164.22643548593564,121.74079562293085 163.90112761800424,121.8575173828762 163.60175791882074,121.995854283681 163.3067112479122,122.13851421276075 163.0149068479844,122.28982019748858 162.72634471923064,122.43680315477889 162.43129804825767,122.57514005519718 162.10923245137144,122.64863153387455 161.7612286856729,122.72644604056919 161.65963752417457,122.75238420925268 161.62721481320747,122.76535329381989 161.59263058790964,122.78264540621113 161.47266655691914,122.86910596939128 161.25543439251197,123.07228829219468 161.07927099555744,123.22791730539073 161.03171768601447,123.26682455883468 160.7744975113201,123.47865293767266 160.52808490699104,123.66886617629537 160.29247987296287,123.8504333585614 160.26329943297654,123.87204849903435 160.23087672194504,123.89366363970056 160.1984540108491,123.91095575228505 160.0136445576023,123.95418603400397 159.64834867919043,124.02335448440637 159.55432281707664,124.05793870957535 159.37275563487503,124.15736835674295 159.11229318907107,124.36055067967519 159.08419350612124,124.3778427923241 158.7686124514542,124.46430335511775 158.45519291086023,124.58967117135533 158.2455260457732,124.81879166322875 158.09313930362234,125.05655821139439 157.92454120598794,125.31161687195129 157.74189326674977,125.53209130708152 157.53871094388197,125.75256574285592 157.4317159972654,125.86496447452632 156.74975830727877,125.9730401781794 156.21262206005844,125.88657961519252 154.55149849497477,125.56235250423322 152.6137011284103,125.21651025260772 150.65753089241807,124.83176074779595 150.56026275900143,124.81446863514704 150.62510818125773,125.03062004245324 150.6694192197555,125.27270961870059 150.73210312780986,125.54506039164872 150.78289870859123,125.72230454570422 150.81099839147663,125.81741116479012 150.8477441307187,126.09408496620647 150.89853971143563,126.3707587676228 150.90934728186537,126.47018841498365 150.63915802273263,126.4788344712759 150.26413533105637,126.5047726399594 149.93882746299613,126.586910174929 149.65999214757113,126.75550827269225 149.37143001881736,126.91546031390558 149.08070637605496,127.06244327100264 148.79538651834636,127.21374925598813 148.58463889628723,127.36073221289193 148.33282250677553,127.56823756390588 148.15341683871137,127.77141988683812 147.88106606544116,127.96163312526757 147.81838215732236,127.99189432241927 147.7913632314091,128.03944763196222 147.70382191145006,128.08700094150515 147.5535966834367,128.17346150468532 147.24558092796093,128.30747537708632 146.97431091179166,128.4674274184929 146.7203330082713,128.67060974148956 146.47500116091436,128.85649995164405 146.3442295594941,128.91702234575422 146.1972466025259,128.94728354290592 145.97785292417453,128.9559295990049 145.9594800545535,129.14181980935265 145.95083399826126,129.41417058230078 145.95839929745256,129.69084438371712 145.92381507234796,129.94590304427402 145.81465861159393,130.20096170502416 145.644979756923,130.44737430928882 145.4504434903474,130.69378691374672 145.2537457097632,130.92723043344415 145.04840187269346,131.1649969816098 144.85170409210926,131.3941174734832 144.66365236775286,131.6232379652922 144.46047004488503,131.83506634438785 144.22810728196646,132.03824866712682 143.9708871072721,132.21116979290736 143.66287135192516,132.37976789086386 143.37538998020793,132.51810479128216 143.0219824291979,132.63050352321022 142.69883607533953,132.71696408600386 142.36055912284093,132.83368584594922 142.32597489773636,132.85097795853372 141.46353078252022,132.90717732462656 140.80751126141033,132.90717732462656 140.74806962433672,132.96337669046176 138.6049284208958,134.8914472438263 138.2904281233297,135.35401125539713 137.12321052381182,136.19700174376246 135.70093426380146,137.20426730161606 135.87385538958202,137.47661807520836 135.90735885771446,137.5198483562831 136.10081436725352,137.75761490444876 136.26076640872452,138.00402750890666 136.37856892564199,138.24611708489633 136.44665661894342,138.4968527176292 136.47799857300282,138.66112778692423 136.4877253863316,138.7086810964672 136.56878216407142,138.76055743447833 136.5914780618386,138.78649560316182 136.62173925886145,138.83837194097973 136.6444351566286,138.8988943350899 136.6584849981035,139.1842141927985 136.67145408254186,139.45656496574662 136.67793862476105,139.71594665477173 136.65956575514002,139.9753283433459 136.660646512241,140.2563251730372 136.65632348409486,140.52002988988636 136.63903137151036,140.7837346067355 136.63254682922675,141.0128550986089 136.51582506928142,141.25062164671013 136.37424589749585,141.51864939144772 136.2423935391035,141.75641593961336 136.12891405026772,142.01579762863847 135.99273866360042,142.2751793170194 135.84359419255915,142.5345610060445 135.69661123565535,142.7896196666014 135.55719357794285,143.04467832735153 135.4220989483765,143.30406001611897 135.39291850832572,143.36458240984263 135.34752671279142,143.44671994481223 135.30213491725712,143.5072423389224 135.17892861515702,143.67584043668563 135.15947498843502,143.70177860536913 135.1119216788921,143.76230099947927 134.9238699544713,144.00439057546896 134.82768257828445,144.1038202228298 134.725010659814,144.21621895495113 134.70123400501032,144.2421571236346 134.51858606577215,144.4539855028591 134.34458418289069,144.68310599453926 134.15761321563522,144.89925740184543 134.111140663,144.93816465509613 134.01711480088622,145.00301007741683 133.97496527639709,145.028948246358 133.07037163682065,145.82438542518037 132.99688015833655,145.92813810055853 132.82828206070212,146.18319676130866 132.70183348742802,146.42960936576657 132.67805683255992,146.49445478795843 132.66292623417732,146.5463311257119 132.5861924845192,146.8186818989177 132.55701204446845,147.12129386901753 132.5818694564375,147.4239058391174 132.63158427998908,147.69193358443474 132.648876392638,147.7611020346439 132.66076471997542,147.80000928808784 132.73857922667005,148.07236006103597 132.77532496591212,148.22366604640797 132.8509779584693,148.5133089319406 132.91150035245062,148.7726906209657 132.96661896131369,149.0234262534409 133.01633378499412,149.2439006888288 133.0509180101631,149.3649454770491 133.064967851638,149.3995297018316 133.10819813316365,149.5378666026364 132.11822468763685,149.620004137606 129.98589105456125,149.81021737577777 128.74626273366022,150.10850631805357 125.80119980911331,150.82612899037457 123.22467503402346,151.51349046554387 120.56493196712073,151.5048444092516 115.74043255604646,151.4097377901013 109.57039063455554,151.67344250701487 104.08230640298682,151.90256299843733 102.65678787186688,151.9630853925475 100.547150136494,151.99334658950593 97.41835851573681,152.03657687122484 93.52763318422531,153.49343735627534 87.67749534548312,155.67224354217947 87.40622532944269,156.0310548781145 87.31111871016354,156.23423720104674 87.25924237234564,156.216945088269 87.08740200353722,156.1650687508376 86.5880922526599,156.0310548781145 85.55921155394684,156.25152931369564 84.86212326531994,156.3985122707927 83.9564488687714,156.63195579049014 83.13183124989827,157.02102832377014 82.93729498325827,157.444685081897 82.33639407094705,156.61034064963067 82.28667924726662,156.5454952276965 82.26398334949947,156.52388008683704 82.18941111397884,156.44606558033564 82.11375812148609,156.34663593278154 82.05323572737593,156.27314445449068 81.97974424895624,156.18668389131054 81.90517201337119,156.10454635679187 81.8046616089738,156.005116709431 81.68469757791887,155.90568706207017 81.62417518400197,155.81922649908327 81.54527992020637,155.7327659362252 81.46206162852232,155.65062840132 81.37452030843448,155.55552178197644 81.46422314246655,155.5468757256842 81.5874294446955,155.5339066415679 82.63035998488347,155.4388000220311 82.66818648122647,155.43015396573887 82.70601297744064,155.4215079094466 82.74600098779229,155.41286185315437 82.78382748407087,155.40421579705537 82.82273473738599,155.3955697407631 82.85731896261939,155.3955697407631 89.74282204235824,153.00061214774607 90.37938793681057,152.1922058844209 90.52204786569708,151.98902356142423 90.6344465974963,151.99766961797414 90.68416142117673,151.99766961797414 91.35747305487111,151.0293113129203 90.31238100054566,150.66185392088627 89.10193311963096,149.68052653165174 87.87851615434231,148.13288245514613 87.833124358808,148.14152851143837 87.78557104913622,148.15449759600557 87.7185641128713,148.14585153971333 87.69694897214069,148.11991337057893 87.67749534548312,148.09397520189543 87.65804171888999,148.06803703321194 87.63750733513149,148.03777583606023 87.61805370847392,148.01183766692583 87.5964385677433,147.98589949824233 87.56941964183004,147.96428435738287 87.54023920190811,147.94266921690993 87.51538179000349,147.91673104783993 87.48295907890756,147.8994389354487 87.45377863892122,147.87782379458923 87.42351744196277,147.85620865372977 87.39974078709467,147.8302704850463 87.38244867457459,147.80433231610513 87.36839883303527,147.77407111895343 87.35326823452384,147.74380992225264 87.32949157978457,147.71787175311823 87.30139189683477,147.69625661245203 87.27004994277537,147.67464147185024 87.23546571754196,147.66167238728303 87.19980073533644,147.6443802748918 87.16845878127704,147.62708816224287 87.13603607030994,147.60547302144784 87.10253260204865,147.58818090879893 87.0657868628066,147.5752118244894 87.02904112356454,147.56224273972893 86.99121462735037,147.54927365535497 86.95663040211697,147.5319815427705 86.92312693404892,147.51468943037924 86.89178497998952,147.4930742895198 86.86044302593012,147.47578217712854 86.8323433429159,147.45416703607583 86.80532441700264,147.4282288675856 86.77614397701629,147.40661372672614 86.73831748080212,147.37202950149273 86.70373325569756,147.34609133242273 86.67347205854585,147.32447619175653 86.64645313263257,147.29853802307304 86.61835344968277,147.2769228822136 86.59241528080602,147.25530774135413 86.5632348408841,147.22936957267063 86.53837742897949,147.2077544318112 86.52000455935845,147.1818162631277 86.49622790461919,147.12129386901753 86.48542033418946,147.09103267186583 86.47569352086069,147.0607714749074 86.4659667075319,147.0305102777557 86.417332640888,146.9483727431726 86.38166765868249,146.93540365886307 86.34708343357792,146.9224345741026 86.31466072241757,146.9008194334364 86.27575346916687,146.89217337714413 86.23792697282387,146.87920429302787 86.20550426172794,146.86191218037894 86.16551625137629,146.81003584262547 86.15038565286486,146.779774645667 86.13201278324384,146.71925225155687 86.14714338175527,146.65872985725346 86.15795095218499,146.628468660295 86.17740457877814,146.6025304916115 86.21198880401154,146.58523837876936 86.24873454325359,146.5722692944598 86.28007649731299,146.55065415360036 86.29953012390614,146.52471598491687 86.34167964833084,146.44690147841547 86.03366389291952,145.64281824304317 86.03042162180992,145.60391098959923 86.01421026632637,145.55635768005627 86.00016042485147,145.50880437032006 85.98286831226697,145.4698971170694 85.97097998480072,145.43963592011093 85.9558493863537,145.3488523292356 85.93747651673267,145.27968387863993 85.92234591815682,145.21916148472303 85.91694213297417,145.1845772593608 85.91261910482804,145.1499930345783 85.84993519670925,145.00733310549853 85.6564796871702,144.7306593040822 85.56353458209296,144.665813882148 85.45113585029374,144.5663842345939 85.30955667844376,144.4496624748418 85.24363049927979,144.39778613683066 83.76623563034194,143.51588839521463 83.22909938312164,143.07926255252053 82.49958838346322,142.4913307243256 82.24128745173232,142.2795023454876 80.01492795654293,139.96668228705366 78.68991982969153,138.80811074382802 78.30408956771439,138.44497637961803 78.22303278997457,138.3628388448417 78.09118043145337,138.22017891621286 77.97662018570992,138.04725779017463 77.94527823152168,137.96512025565596 77.88799810858555,137.97376631175496 77.8372025278686,137.99105842433946 77.7183192539146,138.04725779017463 69.99847174190943,141.73480079875392 69.29165664001816,142.05038185342096 68.80639673061576,142.26653326072716 68.70804784035586,142.1454884727001 68.57295321078948,142.0201206564625 68.58268002411826,141.8212613617408 68.52107687297158,141.83423044611476 68.48649264780259,141.842876502407 68.45190842269801,141.84719953087523 68.40003208488011,141.842876502407 68.3568018034833,141.83855347458297 68.3254598494239,141.83423044611476 68.27250275456946,141.83423044611476 68.22062641681596,141.83423044611476 68.18171916356528,141.84719953087523 68.13848888203961,141.8731376995587 68.09417784354184,141.89042981233646 68.03797847770664,141.93366009366886 67.97853684069744,141.96392129082056 67.95259867188513,141.9812134032118 67.89964157696626,142.02444368493073 67.81534252811686,142.05470488188917 67.78291981702093,142.06767396600546 67.72888196519438,142.09361213513986 67.69105546898021,142.10658121964266 67.65322897263721,142.12387333229157 67.63377534597964,142.14981150097506 67.63161383197101,142.18871875422576 67.62945231783353,142.23194903594467 67.62080626154128,142.28814840177986 67.60675642006638,142.3313786832411 67.57865673718099,142.4091931897425 67.55163781126771,142.47836163995163 67.52029585727273,142.56914523102023 66.67730536871416,143.0879086088128 66.63947887237114,143.1008776929935 66.57139117906969,143.1397849462442 66.50654575694226,143.18733825617363 66.44926563394169,143.2132764251148 66.38658172582291,143.24786064989726 66.30876721925709,143.28676790334123 66.22987195552591,143.32567515659193 66.17907637480896,143.35161332572633 66.12828079415641,143.37755149440983 66.07748521337504,143.40348966347983 66.00291297785441,143.44671994481223 65.95427891121051,143.47265811349573 65.87754516161681,143.5072423389224 65.83431488015557,143.5375035360741 65.76190415870799,143.58073381714883 65.71651236317369,143.61099501430053 65.64410164172612,143.65422529582617 65.5911445469361,143.67584043668563 65.50900701215974,143.71042466166136 65.42686947738339,143.74068585861983 65.36958935444726,143.75797797120433 65.31122847447458,143.77094705577153 65.22044488340597,143.77959311187053 65.15884173232371,143.78391614033873 65.06697738421857,143.78823916816276 65.01834331757469,143.79688522445502 64.94701335316364,143.82282339358943 64.89081398726402,143.84443853438447 64.83569537846537,143.86173064703337 64.78057676953787,143.87902275942463 64.72113513252867,143.89631487181586 64.63467456960619,143.91793001267533 64.60009034443719,143.92225304088586 64.5687483903778,143.93522212525983 64.51579129565219,143.93954515353477 64.45418814450552,143.9438681817453 64.39366575052419,143.95683726592603 64.33422411345057,143.96548332221826 64.27262096243273,143.9741293785105 64.18183737136413,143.98277543480276 64.12131497725397,143.991421491095 64.0316121432219,144.00439057546896 63.93974779518119,144.00006754764493 63.84247966182898,143.99574451917672 63.78519953889284,144.01735966022943 63.80249165147734,144.09085113845586 63.813299221907066,144.13840444819206 63.82842982035408,144.18163472952446 63.850044961149116,144.22486501124337 63.87166010187974,144.2680952927046 63.832752848500206,144.30267951774476 63.78411878185631,144.3156486020543 63.68901216264158,144.3372637427205 63.553917533075214,144.3502328272877 63.25779010506572,144.36320191185493 63.10432260587832,144.3675249398722 62.1608217130512,144.4885697280925 62.05058449526062,144.5015388126597 61.92629743612398,144.4756006435253 61.80417189099598,144.46695458723306 61.74364949688583,144.46263155915136 61.62152395175783,144.46263155915136 61.55992080067556,144.46263155915136 61.498317649657714,144.4583085309408 61.44103752678599,144.44101641854957 61.38375740372101,144.4237243057074 61.32647728078487,144.41075522139786 61.27027791488526,144.40210916529887 61.21083627794047,144.39346310900663 61.13410252834677,144.40210916529887 61.0616918068992,144.40210916529887 60.887689923953296,144.39778613683066 60.62506596414069,144.51018486895197 60.468356193908114,144.61826057260507 60.36244200419924,144.6874290228142 60.31705020866494,144.68310599453926 59.9549966015559,144.65716782585577 58.70780298127031,144.700398107317 58.706722224298204,144.73498233235716 58.698076168005954,144.8906113455532 58.69159162572235,145.0246252182763 58.684026326531054,145.11540880915163 58.6688957279552,145.2407766255825 58.64836134432553,145.37046746970853 58.62890771760355,145.49151225792883 58.60405030589218,145.62984915873363 58.57162759473183,145.7984472564969 58.53163958438019,146.00162957923587 58.377091328091836,145.96272232598517 58.160939920785644,145.90652296015 58.00098787937906,145.85896965034937 57.803209341693886,145.80277028432093 57.60218853289913,145.75954000298853 57.34064533005863,145.69901760913604 57.19474313012695,145.66875641198433 56.871596776204186,145.6082340178742 56.6522030977884,145.5693267646235 56.43821320455527,145.52177345508053 56.32581447275604,145.49583528594613 55.67087570868269,145.38343655427573 55.44715900212078,145.3488523292356 55.2072309400109,145.34452930102503 54.945687737105985,145.3618214134163 54.63442971058507,145.38343655427573 54.37612877885417,145.392082610568 54.219419008557175,145.4050516951352 53.969764133182935,145.4309898638187 53.45748529780283,145.49583528594613 53.371024734944776,145.50448134223836 53.11272380314945,145.54771162376403 52.895491638806725,145.6082340178742 52.72581278413578,145.65146429933543 52.472915637523116,145.71630972152727 52.3216096524732,145.75521697477797 52.08060083326237,145.81141634061316 51.91956803481926,145.8373545097476 51.719627983061024,145.86761570664163 51.665590131234474,145.87626176299827 51.59642168096091,145.89355387558277 51.0203781804899,145.99730655115417 50.7685617910426,146.04918288858556 50.16766087860254,146.20913493024983 49.96339779869819,146.26101126781006 49.84127225357019,146.273980352184 49.52352968483008,146.31288760562796 49.47597637528714,146.31721063390293 49.43166533672495,146.3301797184057 49.38735429822718,146.3431488025864 49.349527802013014,146.36908697146316 49.31602433381613,146.39502514059757 48.88264076216721,146.8446200676012 48.835087452624265,146.90946548972863 48.765919002221864,147.02618724993167 48.61028998902582,147.29853802307304 48.54868683787914,147.4239058391174 48.435207349107806,147.62276513403233 48.09693039667361,147.98157646996737 48.05261935817584,148.08100611732823 48.00938907665018,148.11559034275487 47.959674252969755,148.14152851143837 47.9358975982305,148.18908182098133 47.866729147828096,148.18475879315727 47.721907704932946,148.18043576468907 46.83244466393237,148.14152851143837 45.890024528077355,148.12855942706443 45.551747575578744,148.14585153971333 45.41881446021427,148.2063739335658 45.33991919641867,148.23231210270023 45.205905323953246,148.35335689066287 45.199420781669644,148.41387928457976 45.19185548241393,148.51763196021557 45.16375579946412,148.7294603392468 45.10107189134533,149.0234262534409 45.04487252551014,149.27416188578727 44.955169691413644,149.47734420852623 44.904374110761104,149.54218963084693 44.76063342490249,149.71078772841693 44.441810099061435,149.88370885445514 44.17270159696522,149.91829307943087 43.85495902828953,149.90964702313863 43.74472181049895,149.9053239953146 43.56747765657229,149.9010009668464 43.24649281665817,149.89667793895794 42.8736316391194,149.92261610770584 42.53427392958426,149.97881547354103 42.399179300017884,150.00907667049947 42.28245754007254,150.03069181135893 42.05657931943757,149.9701694172488 41.98416859798999,149.94855427638933 41.70425252552847,149.86641674180623 41.447032350962935,149.80589434795374 41.34111816125406,149.77995617901257 41.278434253135266,149.76266406623483 41.10551312729031,149.7237568127909 40.847212195623825,149.6416192782078 40.605122619376466,149.5335435745547 40.477593289130226,149.46437512434554 40.4386860357507,149.4427599835505 40.306833677358334,149.4211448428843 40.16309299149972,149.41249878659207 39.494104385822624,149.37359153334137 37.99617513325511,149.27848491380453 36.839765104166965,149.2439006888288 34.04925043577956,149.0925947034568 33.618028378203704,149.0666565347733 33.663420173738004,149.0277492815226 33.75096149376144,148.945611746553 33.83634129964738,148.78998273335696 33.940093975154355,148.6040925230092 34.04925043577956,148.3749720315223 34.04925043577956,147.4930742895198 34.33781256453334,147.4930742895198 34.36375073341008,147.4109367549367 34.36375073341008,145.08514761199993 34.34753937786211,144.9986870492063 34.282693955670254,144.86899620469373 34.257836543830045,144.70904416360924 34.22325231872547,144.5620612065122 34.18758733651995,144.39346310900663 34.16164916757879,144.311325574037 34.212444748295745,144.21621895495113 34.240544431309964,143.991421491095 34.195152635711246,143.74068585861983 34.15516462542402,143.46401205720346 34.0568157350997,143.16572311531417 34.027635295048945,142.5345610060445 33.92928640472463,142.08064305057266 33.88497536629127,141.70453960179546 33.817968430026355,141.41489671626283 33.68935834261475,141.11660777398703 33.52508327312646,140.8658721417051 33.40944227015323,140.6108134811482 33.31325489396639,140.32981665126363 33.20085616216717,139.97100531552186 33.09278045851407,139.73323876735623 32.957685828947696,139.53870250090947 32.835560283819696,139.37442743116353 32.715596252700344,139.24473658690863 32.70262716826197,139.1453069395478 32.83664104085623,138.98535489788352 33.01280443774636,138.79514165945406 33.219229031788196,138.6049284212823 33.37053501683811,138.54440602717213 33.565071283478105,138.5789902521479 33.73366938111252,138.50549877392143 33.73366938111252,138.41903821093456 33.68827758557822,138.41903821093456 33.44294573828569,138.43633032351903 33.17707950729907,138.51414483002043 32.98470475486097,138.67841989950873 32.80205681562282,138.79946468772903 32.62265114755868,138.71732715275942 32.50809090175081,138.5487290553827 32.602116763929004,138.43200729543733 32.789087731184445,138.280701310323 32.85933693862338,138.21585588813113 32.78476470303832,138.0904880717003 32.624812661696154,137.79652215769946 32.45513380689638,137.58469377886146 32.14603729444852,137.42474173739046 31.96987389749397,137.30801997744513 31.858555922795695,137.17400610465762 31.835860025028545,137.1523909642491 31.753722490187773,137.03134617602876 31.71697675094572,136.88004019065676 31.67806949769502,136.72873420592893 31.5970127199552,136.63362758639212 31.560266980648727,136.55581307969746 31.55162092435648,136.48232160147103 31.535409568872932,136.42612223537816 31.507309885923128,136.369922869543 31.527844269552798,136.2142938561537 31.592689691809074,136.0846030118344 31.615385589576224,136.0240806179175 31.654292842826923,135.9332970269133 31.704007666507348,135.87709766082043 31.743995676858994,135.79496012630176 31.68563479688632,135.66094625351425 31.62078937475888,135.5831317468196 31.58836666366295,135.5442244935689 31.538651839982528,135.46640998687425 31.507309885923128,135.3669803395134 31.530005783690278,135.19838224213666 31.550540167319948,135.07301442570582 31.554863195466073,134.93035449707696 31.539732597019057,134.79634062428946 31.582962878415877,134.75743337123203 31.615385589576224,134.69691097692862 31.614304832475277,134.58883527327552 31.602416505137853,134.4677904853129 31.668342684301823,134.3208075284091 31.698603881324694,134.1954397121071 31.637000730242427,134.07007189567622 31.647808300672153,133.89282774200723 31.61214331853105,133.71990661603346 31.646727543635624,133.5902157715209 31.646727543635624,133.4562018991843 31.611062561430103,133.37838739268292 31.57215530805057,133.36541830792245 31.530005783690278,133.33948013923896 31.46624111847053,133.31354197010455 31.351680872598248,133.11035964736556 31.393830397022956,133.04551422543136 31.435979921512082,132.97202274656075 31.390588125977782,132.93743852177826 31.180921260826356,133.00228394371246 31.083653127602986,132.93743852177826 31.013403920164052,132.83800887441743 30.982061966104656,132.75587133925455 31.027453761638956,132.63482655122752 31.11175281055279,132.53971993194835 31.18632504600901,132.39273697504456 31.229555327470248,132.25440007443302 31.294400749662106,132.1636164835577 31.272785608995907,131.92584993539202 31.318177404530207,131.82209725982062 31.299804534909182,131.68808338748406 31.447868248849506,131.4805780364701 31.42949537922848,131.41573261427823 31.36248844296356,131.17364303790205 31.316015890392727,130.9877528275543 31.388426611840302,130.8667080397205 31.460837333287877,130.7888935328326 31.501906100676056,130.87967712390122 31.52027897029708,131.0223370527233 31.517036699251907,131.2039042348605 31.539732597019057,131.32494902327406 31.611062561430103,131.4243786706349 31.668342684301823,131.47193198017786 31.67482722658543,131.36385627652476 31.67158495541142,131.3033338824146 31.669423441402774,131.0569212779567 31.683473282877678,130.81050867349882 31.669423441402774,130.53383487227572 31.602416505137853,130.27013015523332 31.546217139173823,130.16637748004842 31.485694745192507,130.11017811414882 31.387345854803772,130.00210241049572 31.252251225237398,129.81621219995472 31.113914324561435,129.61735290523302 31.05555344458876,129.418493610769 30.962608339511515,129.16775797803615 30.86642096319584,129.04671319026676 30.7107919499998,128.93863748661366 30.627573658122493,128.86082297966135 30.54543612334614,128.7916545294522 30.415745278962422,128.66196368519732 30.300104276118027,128.50201164353305 30.19959387165623,128.34205960206205 30.107729523615514,128.12158516693182 29.97803867916738,127.98324826612702 29.81592512368773,127.83626530922324 29.641923240806246,127.72818960557014 29.49494028390245,127.59417573297587 29.466840600888226,127.44286974786154 29.423610319555824,127.25697953770704 29.331745971321855,127.14458080558573 29.225831781741817,126.98462876450124 29.10154472254076,126.8160306668024 28.97077312112051,126.63446348447195 28.88431255819803,126.4874805273749 28.91565451225743,126.44425024623575 28.92754283972369,126.41398904908405 28.99887280413473,126.34482059893932 28.89295861449028,126.2194527826373 28.862697417467412,126.1027310224987 28.90700845596518,126.04220862838855 29.055072169969925,126.1113770789842 29.056152927006455,126.04653165666352 29.02481097294706,125.9730401781794 28.98374220555888,125.90819475585872 29.00859961746351,125.84334933392452 28.990226747842485,125.76985785524717 29.007518860362563,125.70501243331299 28.822709407115767,125.79579602431717 28.676807207184083,125.65745912351237 28.750298685668188,125.51479919449702 28.77299458343534,125.41104651931214 28.767590798252684,125.30729384348307 28.864858931604893,125.16895694287153 28.71679521753573,125.21651025260772 28.64978828127081,125.15598785875524 28.501724567266066,124.87066800104665 28.49415926801035,124.72800807196688 28.40986021922535,124.2957052573545 28.450928986677944,124.15736835674295 28.334207226603763,124.03200054050535 28.290976945142525,123.88934061161885 28.3179958710558,123.79855702080792 28.284492402923338,123.68183526086257 28.06726023864503,123.59537469781127 27.934327123087304,123.32302392447662 27.862997158676258,123.09822646087818 27.817605363141958,123.00311984198554 27.750598426877037,122.92098230682268 27.686833761721708,122.71347695580873 27.57767730103208,122.43680315477889 27.48257068188177,122.1947135784027 27.46635932626939,122.0823148466679 27.45987478411462,121.98720822738875 27.410159960434196,121.87480949565395 27.294518957460966,121.75376470769132 27.13888994426492,121.5419363284024 27.0578331665251,121.37333823089683 26.954080490953707,121.18744802029141 26.775755580054934,121.01020386642917 26.588784612606236,120.86322090933211 26.411540458615157,120.71623795262158 26.330483680875336,120.57357802360623 26.366148663080857,120.50008654531538 26.42775181422754,120.43524112280143 26.286172642377565,120.3790417571595 26.269961286894016,120.2579969689392 26.18350072390712,120.13695218091213 26.179177695761,119.96403105493835 26.116493787642202,119.8516323233968 26.094878646976,119.72194147894866 26.097040160984644,119.64412697244727 26.17053163946875,119.53605126879417 26.099201675122124,119.40203739600666 26.247265389126866,119.19885507326767 26.286172642377565,118.97838063787977 26.234296304688495,118.84436676515668 26.178096938724465,118.84436676515668 26.178096938724465,118.74926014607078 26.152158769847723,118.71035289282008 26.08190956253763,118.65847655500218 25.936007362541527,118.61524627328328 25.878727239669804,118.51581662611568 25.8268509018519,118.23049676860033 25.68311021599328,118.1310671213039 25.48641243540906,118.0489295863343 25.27242254211151,117.86736240419708 25.145973968837385,117.8198090944609 25.148135482910448,117.724702475375 25.088693845901243,117.64256494040539 24.994667983723048,117.46099775852586 24.88875379420743,117.18000092883454 24.76338597790542,116.96817254980331 24.762305220933307,116.86441987416751 24.906045906791924,116.81254353660728 24.805535502330127,116.75202114249711 24.693136770530906,116.67852966401301 24.671521629864703,116.58342304473388 24.698540555777978,116.47534734108078 24.61316074989203,116.37159466570263 24.532103972152207,116.30242621549348 24.49968126099186,116.25919593377458 24.449966437311435,116.11653600514575 24.34729451890541,115.92199973844133 24.36999041667256,115.8009549504787 24.363505874388956,115.63235685271545 24.23489578710619,115.3902672764681 24.153839009366365,115.18708495353584 24.01442135165387,114.87150389906206 23.852307796174223,114.61644523811866 23.717213166607852,114.37435566212898 23.74531284949324,114.24466481761642 23.773412532443043,114.15388122654782 23.753958905849906,113.98528312897783 23.55942263927433,113.85559228472295 23.37785545707271,113.66537904610024 23.052547589076884,113.33682890705924 22.952037184743922,113.3627670760004 22.818023312149663,113.3238598227497 22.781277572972026,113.2503683442656 22.88070722026846,113.16390778108544 22.914210688400917,112.97801757073769 22.92609901580276,112.87426489555281 22.83747693880722,112.84400369859436 22.701301552204317,112.79645038879374 22.718593664788813,112.69702074149731 22.818023312149663,112.61056017863926 22.858011322630144,112.51113053134283 22.743451076629025,112.47222327783446 22.642940672231642,112.53706870002631 22.505684528656626,112.49383841869391 22.391124282719925,112.27768701138771 22.332763402747254,112.15231919495687 22.233333755386404,112.01830532262028 21.991244179203466,111.89726053420672 21.886410746659962,111.74595454941448 21.825888352678643,111.62923278946913 21.926398757011608,111.57735645171564 21.970709795573796,111.48657286064704 21.872360905185058,111.43469652263589 21.6010908890802,111.27906750943984 21.484369129134855,111.10614638385256 21.436815819463074,110.81650349767574 21.41844294984205,110.51389152776916 21.39682780911143,110.38852371153158 21.43141203428042,110.28909406417073 21.42276597798817,110.17237230422538 21.393585538066255,110.03835843143786 21.453027175139876,109.90002153101958 21.487611400244447,109.79194582736648 21.42492749212565,109.56282533555749 21.22390668326647,109.11755343637789 21.180676401805233,109.00515470464309 21.039097230019674,108.71551181891721 20.920213956065687,108.53394463658674 20.843480206471988,108.44316104577581 20.845641720480632,108.2918550604038 20.77863478421571,108.15351815979226 20.82078430864042,107.95898189334552 20.78079629835319,107.71689231709816 20.764584942740807,107.45318760005577 20.80241143901939,107.42724943117902 20.860772318992066,107.36240400924484 20.895356544161054,107.18948288320662 20.844560963508517,106.92145513808252 20.787280840507957,106.70962675885804 20.728919960535286,106.36378450723254 20.76674645681387,106.13034098734185 20.771069484959995,106.07414162169991 20.77863478421571,106.03955739627325 20.761342671631215,105.94445077718736 20.72675844652664,105.81908296114302 20.69325497832976,105.62022366622807 20.697578006475887,105.41271831502087 20.69001270722017,105.23115113307692 20.686770436174996,105.10146028882204 20.600309873252517,104.90260099390709 20.53762596513372,104.75561803700329 20.552756563580736,104.56108177055654 20.565725648083525,104.41409881365276 20.56680640505564,104.31899219411594 20.46845751473132,104.19794740634656 20.472780542877445,104.03367233660059 20.452246159247775,103.90398149234571 20.4252272333345,103.76564459173417 20.4706190288688,103.6316307191399 20.427388747343144,103.39818719905597 20.365785596260878,103.19932790452752 20.40469284957599,103.07828311637162 20.33336288516495,102.82754748363877 20.245821565270358,102.57248882308188 20.173410843822783,102.42118283809637 20.06101211202356,102.31743016252499 19.971309277991487,102.14018600846948 19.820003292812736,102.01914122063569 19.747592571365157,101.88080431983089 19.691393205529966,101.68626805338415 19.65897049436962,101.49605481501912 19.580075230702857,101.3447488296471 19.59520582921429,101.20208890101827 19.63627459660247,101.04213685954727 19.669778064863763,100.88650784635122 19.74002727210944,100.68332552335457 19.769207712095778,100.45852805956287 19.811357236520486,100.16456214575528 19.81568026466661,99.87491926022265 19.78001528246109,99.60256848682359 19.74002727210944,99.36912496673965 19.68274714923772,99.2005268693629 19.588721287123942,98.94979123688772 19.633032325557295,98.78551616739942 19.688150934355956,98.67744046374634 19.803791937329187,98.54342659095882 19.95942095052523,98.42238180293177 20.079384981644587,98.29701398650091 20.19070295640728,98.20190736741503 20.247983079279,97.98575596010883 20.24690232224247,97.83444997493008 20.071819682324453,97.73502032756923 19.769207712095778,97.76095849670365 19.522795107766715,97.74366638411915 19.37581215086292,97.65288279305055 19.235313736049477,97.52751497681295 19.055908068049753,97.3978241323004 18.931621008784273,97.22490300645545 18.957559177725432,97.03468976809042 18.934863279958282,96.85744561403492 18.924055709528556,96.74072385428282 18.938105551003456,96.61103300977027 18.854887259190573,96.50728033432772 18.781395780770886,96.25654470165927 18.705742788213715,96.17008413886563 18.626847524482535,96.07930054760378 18.62360525343736,95.90205639354828 18.82138379105811,95.94528667526718 18.92945949471121,96.05336237892028 19.029969899173008,96.15711505429842 19.17262982793068,96.24357561709206 19.356358524140944,96.18305322336842 19.24179827833308,96.09226963236424 19.180195127186398,96.00580906911966 19.14236863097223,95.92367153460098 19.08725002210915,95.87611822505804 19.072119423533298,95.7983037183634 19.103461377592698,95.73778132425323 19.176952856076802,95.7593964651127 19.213698595383274,95.82424188704688 19.225586922720698,95.87611822505804 19.24071752129655,95.91070244984053 19.281786288684724,95.94096364699223 19.334743383410327,95.91070244984053 19.357439281241895,95.87611822505804 19.130480303505973,95.40058512872675 18.811656977729335,95.07203498968575 18.848402716971385,94.9596362578221 18.893794512570107,94.85588358237955 18.73276171412699,94.57488675275266 18.673320077117786,94.41925773955661 18.84516044592621,94.51004133081847 19.056988825086282,94.6224400622956 18.959720691734077,94.28524386722003 18.95107463544183,94.19013724768321 19.092653807291807,93.97398584037701 19.366085337469723,93.45089943488928 19.62006324111892,92.8197373256196 19.50442223814569,92.11940676568986 19.356358524140944,91.69575000736971 19.126157275359848,91.11646423585353 18.744650041464414,90.8786976880744 18.659270235578465,90.6755153649489 18.880825428131732,90.53285543625564 19.214779352419807,90.31238100073891 19.492533910808266,90.27347374748821 19.346631710812165,90.2302434661558 18.449603370491456,89.90601635519651 18.148072157299314,89.91033938327821 18.045400238828872,89.74174128532171 17.84329867299758,89.54720501906823 17.715769342686922,89.39589903369622 17.664973762034386,89.34402269607156 17.586078498303205,89.22297790810893 17.425045699860092,89.15380945770653 17.253205331051667,89.11057917598762 17.28238577110242,89.01547255690173 17.21213656366349,88.8901047408574 17.350473464403873,88.92468896583313 17.629308779828865,88.99385741604227 17.765484166367347,88.91171988145918 17.864913813728197,88.6739533335512 17.950293619614147,88.3713413631937 17.93408226406618,88.11628270244354 18.139426101007068,87.74450228213456 18.1999484950528,87.45053636794046 18.379354163116943,87.22573890434202 18.413938388285935,87.06146383504698 18.399888546939867,86.81072820231412 18.392323247555314,86.55134651373994 18.446361099381864,86.3049339094753 18.4085346031677,86.13201278363034 18.111326418121678,85.75590933491756 18.071338407705614,85.65647968755671 18.0562078092586,85.54840398390361 18.03351191149145,85.46626644893401 18.045400238828872,85.38845194223936 18.0464809958654,85.30199137944571 18.075661435980575,85.2025617318916 18.085388249180518,85.0901630001568 18.134022315888828,84.86536553655837 18.144829886189722,84.75728983290527 18.117810960276447,84.65353715752713 18.03459266852798,84.4590008910804 17.95785891893428,84.32066399027559 17.914628637408622,84.18232708966404 17.860590785582076,84.10451258296939 17.828168074486147,83.95320659779064 17.862752299719556,83.81054666916181 17.920032422591277,83.70247096550871 17.989200872993678,83.54684195231266 18.096195819545827,83.36095174170725 18.148072157299314,83.20099970049392 18.165364269948228,83.07130885598136 18.122133988422572,82.99349434947997 18.125376259532164,82.85083442059346 18.162121998774218,82.73843568892308 18.226967420966076,82.61306787268549 18.238855748367918,82.47040794360572 18.217240607637297,82.36233223995262 18.223725149920902,82.23696442390829 18.183737139633674,82.04675118528559 18.139426101007068,81.78304646843644 18.14374912915319,81.74413921499249 18.16644502692034,81.67064773670164 18.211836822454643,81.53663386397854 18.283166786865685,81.4112660479342 18.327477825427874,81.29886731600614 18.315589497961614,81.15188435929561 18.335043124619173,80.9659941487546 18.356658265349793,80.7671348540329 18.393404004591847,80.62879795367903 18.402050060884093,80.41696957419687 18.269116945455202,80.13164971648827 18.259390132126423,80.07112732276462 18.279924515756093,79.82471471830674 18.32855858239999,79.75554626809759 18.38043492021789,79.68205478948464 18.39772703273797,79.62153239537449 18.293974357230997,79.27569014355574 18.281005272792623,79.11141507406745 18.335043124619173,79.0119854267066 18.29829738537712,78.9730781734559 18.327477825427874,78.84338732894335 18.38691946237266,78.70937345660677 18.38043492021789,78.54942141513575 18.400969303847564,78.43702268346537 18.449603370491456,78.34191606431507 18.43123050093485,78.22519430417647 18.41826141643206,78.09118043183987 18.460410940856764,78.00039684057802 18.45500715567411,77.87502902453369 18.38800021940919,77.74533817982788 18.39664627570144,77.65023156093524 18.42042293050512,77.55944796967339 18.36746583577952,77.49027951927098 18.381515677254423,77.39949592820238 18.41934217346859,77.31303536521548 18.42150368760607,77.02771550770015 18.45500715567411,76.7683338188683 18.56632513050122,76.53921332725257 18.555517560071493,76.31441586384737 18.513368035646785,76.22363227258552 18.593344056414495,76.00315783700437 18.632251309665193,75.75242220472244 18.690612189637864,75.46710234701384 18.864614072519352,74.93969291331555 18.900279054724873,74.77541784376285 18.98565886061082,74.42092953565185 19.028889142136478,73.84164376394241 19.022404599852873,73.60820024405172 18.99862794511361,73.32720341481134 18.99646643097613,72.48853595427005 19.005112487268377,71.9265422951451 18.981335832464698,71.61960729696357 18.97593204734646,71.29970321408597 18.98782037468388,70.95386096226723 19.007274001405857,70.69015624541808 19.038615955465257,70.49994300698863 19.088330779145682,70.07628624892617 19.117511219067598,69.80825850380207 19.136964845789574,69.63966040584556 19.168306799848974,69.45809322390161 19.169387556885503,69.23761878838486 19.242879035305194,68.93500681828503 19.288270830839494,68.57187245407505 19.342308682666044,68.24332231464754 19.307724457497052,67.936387316466 19.36392382339666,67.581899008355 19.26017114788969,67.34413246064027 19.098057592410044,67.16256527811656 18.927297980638148,66.97235203988036 18.88406769917691,66.78213880151533 18.881906185103848,66.63083281614333 18.904602082870998,66.45791169055603 18.982416589501227,66.25472936781705 19.082926993963028,66.0558700729021 19.194244968661298,65.88294894705714 19.329339598227673,65.6927357086921 19.39526577745606,65.53710669549606 19.426607731644296,65.40309282270854 19.426607731644296,65.26043289407971 19.446061358173015,65.05725057127631 19.436334544844236,64.75031557296593 19.37365063672544,64.36988909591378 19.26989796121847,64.20993705470045 19.243959792341723,64.05863106932843 19.165064528739382,63.9159711406996 18.99646643097613,63.57012888888085 18.89919829775276,63.41017684740984 18.76842669633251,63.189702412021944 18.61063616899899,62.94328980782172 18.403130817985044,62.61041664031251 18.293974357230997,62.08733023488919 18.258309375025473,61.771749180222145 18.002169957432052,61.374030590778744 17.815198990047772,61.24001671805565 17.56122108652741,61.0843877048596 17.431530242143694,60.8725593255707 17.43585327028982,60.64343883414822 17.46179143916656,60.25868932907878 17.42396494282356,59.38976067138578 17.109464645193047,58.97474996955114 17.042457708928126,58.80615187204556 16.301058381932293,58.879643350272 16.32699655080904,58.577031379978905 16.44696058179956,58.278742437896355 16.547470986261356,57.98477652389551 16.654465932813505,57.863731736126134 16.632850792082884,57.77294814505753 16.467494965558064,57.54382765299087 16.432910740324655,57.42278286496382 16.36374229005109,57.22392357049979 16.375630617388513,57.076940613596 16.630689278009825,56.540885123154546 16.711746055749646,56.3809330818768 16.777672235042456,56.2728573782237 16.80469116095573,56.156135618278356 16.754976337275306,55.918369070370375 16.54963250027,55.80597033824906 16.323754279699443,55.654664353456816 16.213517061908867,55.54658864980372 16.055726534575346,55.455805058799534 15.86443253917378,55.38231357992892 15.659088702168477,55.25262273560962 15.521832558593461,55.09699372241358 15.077641416514812,54.86787323073343 15.074399145405218,54.65172182342724 14.984696311373147,54.379371050092594 14.95551587138681,54.24968020596655 14.778271717460148,54.119989361518414 14.409733568003086,54.04649788284105 13.819640226057173,53.52773450543502 13.507301442435303,53.01761718432124 13.37436832707083,52.41239324386389 13.29655382037618,52.21353394920661 13.480282516522028,52.10545824555351 13.506220685398771,51.949829232099795 13.491090086951756,51.69477057134965 13.420840879512825,51.49591127688562 13.043656673763515,51.27975986957943 13.015556990813709,51.15439205308416 13.253323538850523,51.07225451856548 13.408952552175402,50.89933339272052 13.398144981745673,50.66156684461929 13.173347518147231,50.345985789952245 13.21982007078248,50.177387692188994 13.366803027686275,49.90935994706489 13.535401125449527,49.7450848775766 13.800186599335197,49.54190255483762 13.748310261581711,49.066369458506315 13.542966424640825,48.80266474185043 12.872897062056039,48.63838967236214 12.798324826470983,48.703235094296325 12.655664897648894,48.74214234754702 12.470855444402098,48.651358756478416 12.24389646679501,48.47411460242292 12.003968404685134,48.188794745100836 11.941284496566336,48.08504206952944 11.838612578095894,47.91644397157294 11.48952805523197,47.82998340897255 11.331737527898447,47.67867742360054 11.237711665720253,47.59653988908186 11.010752688048749,47.63544714233256 10.792439766733908,47.53601749497171 10.756774784528387,47.43226481952915 10.640053024583041,47.41064967866969 10.558996246843218,47.35445031264125 10.695171633381703,47.267989749654355 10.62600318310814,47.2247594685152 10.483343254350467,47.24205158116412 10.3385218113909,47.15559101791955 10.310422128376675,47.04751531426645 10.453082057198765,46.99996200491676 10.664910436358836,47.021577145389706 10.863769731080536,47.09506862406707 10.994541332500784,47.28960489070706 11.253923021268218,47.28528186223885 11.450620801981273,47.23340552487187 11.791059268424112,47.18585221507125 12.108801837228638,46.952408694987305 12.190939371940575,46.80110271025948 12.24389646679501,46.63250461249623 12.240654195621,46.21749391027508 12.2093122415616,46.044572784687794 12.145547576406273,45.84139046149788 12.037471872753175,45.6900844765768 11.83212803581229,45.5820087729237 11.613815114433033,45.46528701291394 11.389017650834589,45.55174757596525 11.313364658277422,45.46528701291394 11.137201261322872,45.430702787551695 10.875658058482376,45.331273140190845 10.767582354829278,45.25345863368945 10.731917372623757,45.1540289863286 10.642214538591686,45.054599339161 10.560077003815332,44.97246180444907 10.443355243869986,44.8860012412045 10.368783008349348,44.816832790995356 10.194781125532279,44.61365046806311 10.225042322555147,44.38020694817242 10.680041034934687,43.71446061386259 10.637891510445561,43.13517484234641 11.227984852391474,42.11926322774962 11.795382296570237,40.835323868479655 11.939122982428856,39.47789303053233 12.046117929045423,38.19395367126237 12.144466819434161,37.186688112957825 11.995322348392886,36.49932663778854 12.439513490342698,35.64336706485601 12.67511852437087,34.679331788463635 12.632968999881744,34.597194253751695 12.407090779246769,34.35510467750434 12.248219494941134,34.16921446696334 12.070975340885635,33.95738608793211 11.95317282390376,33.758526793017154 11.729456117406265,33.6850353147263 11.508981681953946,33.54669841417917 11.374967809488524,33.49914510457181 11.351191154620423,33.442945738350105 11.394421436017245,33.317577922305766 11.373887052387575,33.23544038733616 11.570584832971793,33.161948909109725 11.701356434392041,33.23544038733616 11.865631504009169,33.08845743043236 11.624622684798343,32.83339876987547 11.480881998939722,32.70803095363788 11.212854254008876,32.418388068040834 11.0021066317565,32.34921961744518 10.88106184366503,32.3189584207444 10.822700963692359,32.12009912582945 10.675718006788564,32.0206694784686 10.67031422154149,31.89962469024829 10.716786774176741,31.8736865215648 10.850800646642163,31.92123983091449 10.84755837559699,31.78722595877116 10.820539449683714,31.648889057966358 10.751370999281313,31.56675152299675 10.62600318310814,31.523521241664348 10.461728113491013,31.5581054667045 10.3385218113909,31.424091594367916 10.279080174381695,31.264139552896914 10.122370404084704,31.04798814559072 10.099674506317553,31.017726948439012 9.181031025266224,31.017726948439012 9.181031025266224,30.70214589377197 8.550949672968665,30.70214589377197 8.550949672968665,30.390887867379885 7.920868320671105,30.390887867379885 7.920868320671105,30.07530681271284 7.290786968309129,30.07530681271284 7.290786968309129,29.88941660255835 7.290786968309129,29.444144703185493 6.9752059137065014,29.444144703185493 6.9752059137065014,29.13720970500395 6.9752059137065014,28.186143512792274 6.662867130084631,28.186143512792274 6.6553018308933325,26.992987744590913 6.512641902006826,26.9281423222058 6.347286075417586,26.91949626591355 6.347286075417586,26.50880859216062 6.347286075417586,25.933845848854975 6.347286075417586,25.354560077145536 6.1765264636456925,25.354560077145536 6.03278577785149,25.354560077145536 6.03278577785149,24.853088812324 6.03278577785149,23.465396777482642 5.717204723120028,23.465396777482642 5.717204723120028,22.8342346679553 5.402704425553932,22.8342346679553 5.402704425553932,22.704543823442744 5.402704425553932,22.203072558427955 5.2557214685213,22.203072558427955 5.087123370886887,22.203072558427955 5.069831258302391,21.576233477368824 4.772623073256372,21.576233477368824 4.772623073256372,20.945071368034736 4.459203532597971,20.945071368034736 4.459203532597971,19.509826023392762 4.459203532597971,19.05590806811417 4.340320258643982,19.05590806811417 4.144703234967457,19.05590806811417 4.144703234967457,15.593162523197758 3.829122180300412,15.593162523197758 3.829122180300412,14.966323442138629 3.514621882669898,14.966323442138629 3.514621882669898,14.335161332611285 3.829122180300412,14.335161332611285 3.829122180300412,14.01958027794424 4.144703234967457,14.01958027794424 4.144703234967457,13.703999223277195 4.459203532597971,13.703999223277195 4.459203532597971,13.07716014202481 4.772623073256372,13.07716014202481 4.772623073256372,12.761579087357765 4.960674797548344,12.761579087357765 5.087123370886887,12.761579087357765 5.087123370886887,12.44599803269072 5.402704425553932,12.44599803269072 5.402704425553932,11.81483592335663 5.717204723120028,11.81483592335663 5.717204723120028,11.503577896771292 6.03278577785149,11.503577896771292 6.03278577785149,10.872415787630455 6.347286075417586,10.872415787630455 6.347286075417586,10.556834732963411 6.662867130084631,10.556834732963411 6.662867130084631,9.929995651904282 6.9752059137065014,9.929995651904282 6.9752059137065014,9.29883354263461 7.290786968309129,9.29883354263461 7.290786968309129,8.983252487967563 6.9752059137065014,8.983252487967563 6.9752059137065014,8.35209037844022 6.662867130084631,8.35209037844022 6.662867130084631,7.72525129738109 6.347286075417586,7.72525129738109 6.347286075417586,7.094089187853745 6.03278577785149,7.094089187853745 6.03278577785149,6.7785081331867 5.717204723120028,6.7785081331867 5.717204723120028,6.467250106794615 5.402704425553932,6.467250106794615 5.402704425553932,6.15166905212757 5.087123370886887,6.15166905212757 5.087123370886887,5.836087997267271 4.934736628736019,5.836087997267271 4.772623073256372,5.836087997267271 4.772623073256372,5.5983214492948745 4.459203532597971,5.520506942600226 4.423538550392449,5.204925887933181 4.144703234967457,5.204925887933181 4.144703234967457,4.889344833266136 3.829122180300412,4.889344833266136 3.829122180300412,4.578086806680797 3.514621882669898,4.578086806680797 3.514621882669898,4.262505752013752 3.199040828002853,4.262505752013752 3.199040828002853,3.8258799095773277 3.199040828002853,3.631343642872916 3.026119702286733,3.631343642872916 2.884540530372339,3.631343642872916 2.884540530372339,3.471391601659586 2.884540530372339,3.315762588205871 2.744042115623312,3.315762588205871 2.567878718668763,3.315762588205871 2.567878718668763,3.1341954059398307 2.5073563246874464,3.0520578711634765 2.253378421038249,3.0045045616205317 2.253378421038249,2.7624149856308473 1.9410396374807968,2.688923507146741 1.887001785654248,2.373342452479696 1.6232970687406898,2.373342452479696 1.572501488023734,2.0577613978770692 1.3109582851832378,2.0577613978770692 1.256920433356689,1.7421803432100242 0.9953772305161926,1.7421803432100242 0.9380971075800509,1.4265992883497247 0.6797961759135658,1.4265992883497247 0.6290005951966099,1.1153412616999674 0.36529587821863363,1.1153412616999674 0.31125802639208483,0.7997602072905948 0.04971482355158862,0.7997602072905948 0,0.5101173213070389 0.6300813522331409,0.3458422518187486 1.0980491490510536,0.26370471684914004 1.614651012448442,0.20318232312549606 1.9205052537867082,0.17292112597379244 2.0393885278695336,0 2.4025228920795234,0.15995204166425703Z"/></svg>