<svg xmlns="http://www.w3.org/2000/svg" width="256" height="256"><path d="M79.12559590189574,11.875598369474027 79.15086313261969,11.971613845652753 79.50586772202465,11.971613845652753 79.64357412864939,11.976667292143935 79.93667400330024,11.966560399839292 79.98341837986094,11.916025938692595 80.03268947947896,11.814957016323897 80.06174679463832,11.78968978582585 80.28662514681643,11.52185714137184 80.47865609909857,11.228757267172805 80.70479781273005,10.925550499991408 80.72122151260272,10.890176377038115 80.77933614292144,10.77900056289189 80.80081328890877,10.748679885902662 81.01179466419624,10.490954134205106 81.14065754027092,10.34440419710559 81.2114057857257,10.298923181922957 81.25183335464305,10.288816289618314 81.3011044542611,10.283762843428343 81.68516635897599,10.233228382206342 82.11849936338423,10.15237324452223 82.1627170168123,10.15237324452223 82.20188122420097,10.15237324452223 82.31811048491369,10.157426690561598 82.36485486139908,10.167533582790938 82.4027557073344,10.177640475020278 82.43560310715506,10.197854259704863 82.46718714537175,10.218068044238844 82.63900431319522,10.309030074152297 83.01169596407682,10.44547311924838 83.38438761503372,10.581916164118558 83.77602968899592,10.718359209214643 84.1221907477755,10.854802254310728 84.47087852976303,11.02156597639604 84.81577622701393,11.20349003644885 85.19225796263214,11.339933081319028 85.55863280587039,11.461215788372312 85.93006109537393,11.627979510005812 86.00965287167998,11.658300186467924 86.57058539033302,11.799796677829283 87.95143954124184,12.092896552706037 89.19585064690398,12.572973933524366 89.56601557480354,12.694256640125836 89.97155462550579,12.845860023716535 90.37835703781201,13.133906452177412 91.11237008589251,13.654411401837796 91.32082473819793,13.760533770245862 91.42568374507734,13.79085444723509 91.51790913659475,13.932350938069334 91.6947797506835,14.089007767925306 91.85901674933497,14.220397366756115 92.11168905506845,14.483176564944852 92.29361311527187,14.685314409531644 92.48564406755402,14.978414283956585 92.8242249572369,15.443331326732114 93.14006533940376,15.933515599478573 93.37252386075387,16.241775812624034 93.50896690577466,16.35800507326144 93.61508927425803,16.41864642671278 93.75279568088277,16.474234333898846 93.88544864131755,16.484341226128187 94.06484597838833,16.479287780088818 94.33141526101247,16.504555010812773 94.56766386687327,16.560142917772932 94.84560340310482,16.706692855399563 95.01868393253226,16.807761777542353 95.11722613176832,16.9340979304091 95.24103556165304,17.131182328956523 95.29409674585706,17.353533957926693 95.32062733795908,17.596099371204936 95.30925708412578,17.72243552407168 95.37242516055915,17.727488970562863 95.45328029846917,17.742649308756267 95.72111294254665,17.828557892479747 96.08496106280289,17.939733707077785 96.46649624438516,18.025642291253078 96.82655428013068,18.131764659661144 96.94152017923942,18.167138782614437 97.00216153254016,18.202512905040614 97.05016927062951,18.253047366262614 97.10323045483355,18.247993920223248 97.90925511012338,18.63205582486285 98.9603719019747,18.995903945194378 99.87504564880524,19.162667667053782 100.92237235607055,19.32943138861198 100.98933051708993,19.334484834877255 101.87621031013917,19.597264032614177 102.85657885638511,19.738760524201442 103.68155393460496,19.541676125654018 104.00750120915177,19.60231747910536 104.90069780984435,19.88531046130096 105.6789285114282,20.21883790494447 106.70225134972414,20.65343427073077 108.77542761826741,21.522627002529276 108.6983625649434,21.608535586478663 108.63898457317133,21.734871739345408 108.63898457317133,21.891528568674264 108.75142374914743,22.16946810513171 109.04199690074095,22.689973055093304 109.37173425972315,23.306493480932414 109.53470789707185,23.589486463579828 109.68757464189001,23.746143292983987 109.9326667784515,23.907853568804025 110.49359929717984,24.175686212730923 110.55803073514188,24.195899997264902 111.07600896197084,24.372770611052438 111.54092600444517,24.54964122536709 112.2193511454902,24.726511839380535 112.86871897107466,24.741672177423336 114.10428654611142,24.6810308241979 115.3739648824222,24.645656701244608 115.8944698322332,24.62544291678593 116.2355774450487,24.60522913232725 117.78319531766634,24.372770611052438 117.99923013914378,24.35255682659376 119.52537086569875,24.18579310496026 120.69398027971614,24.01902938295025 121.45199719691661,23.741089846718715 122.59533938028535,23.245852127481076 122.75452293289744,23.159943543832895 122.92002329322818,23.0588746214642 124.25160634444367,22.027971613996257 125.77774707107396,20.7999842082821 126.92235261597136,19.87520356929753 128.31078693605218,18.788712654643522 128.3448976972509,18.768498869958936 129.1686094140174,17.88414579989172 131.5942635490589,16.534875687576093 131.7067027251856,16.55003602554359 132.60495277199286,16.686479070639674 132.9725909767598,16.86334968472842 133.34907271245328,17.00989962227975 133.72302772478824,17.171609897647976 134.07297886822911,17.373747742460676 134.15004392147785,17.41417531115213 134.51894548784873,17.57083214070689 134.86763326976094,17.707275186104184 135.23148139001717,17.858878569393674 135.591539425838,18.020588845213712 135.62944027154742,18.04585607548585 135.7772535704015,18.141871551890485 135.96296771511564,18.212619797571165 136.36092659664587,18.27831459698657 136.7601488398554,18.323795611943293 137.16947797506836,18.354116288405407 137.55480324131193,18.455185210774104 137.9514987612382,18.682590286310756 138.2193314053157,18.824086777145002 138.43157614213183,18.995903945194378 138.68172172480797,19.34964517337187 138.9369207535988,19.637691601757442 139.251497774237,19.839829446344233 139.28434517398236,19.860043230577006 139.33235291214703,19.88531046130096 139.48774638009783,19.910577692024912 139.57239160251854,19.920684584254253 139.65451010195721,19.940898368487026 140.0512056218835,20.127875875031016 140.43021408048372,20.27947925839581 140.4706416494764,20.289586150625148 140.51864938764106,20.314853381349103 140.54517997959246,20.779770423597515 140.56918384863715,21.082977190778912 140.5944510792105,21.335649496512403 140.60203124845782,21.436718418655193 140.60455797143985,21.64896315539602 140.6108747790832,21.729818293080136 140.6298252020132,22.033025060035623 140.58813427156716,22.710186839326077 140.6096114175545,23.78151741593728 140.56413040259778,25.29755125033822 140.5173860260371,26.515431764048945 140.51233257992243,26.576073117199076 140.4820119031591,27.202700435568737 140.54517997959246,29.08763583634057 140.58055410247047,30.128645735736644 140.49969896456045,31.0231056980332 140.54517997959246,32.751384269476176 140.4390576112597,34.616105885488125 140.27482061253295,36.15235350464895 137.53332609532458,36.79414116121201 133.4299278501374,38.861000622036656 132.56326184154682,40.36692756420826 131.63216439491893,41.200746172827564 131.1356633140773,41.26644097269479 131.186197775224,42.42368013302947 131.193777944396,42.76731446867641 131.1748275215413,43.27771252610746 131.12555642184796,43.970034643892525 131.04975473012792,44.566341285272955 130.93605219254786,45.17275481910863 130.73517770948973,46.026787212713735 130.5115627189909,46.79491102191764 130.07443963007196,47.98247085916625 129.6575303256117,48.90725149769901 129.26967833623547,49.61978739994275 129.67142730235173,49.75117699930068 129.7813397553458,49.79160456776623 129.81039707058045,50.34748364068111 129.65626696400773,53.16730657244095 129.53245753427362,54.23358370256098 129.45665584247826,54.885478251579286 129.33663649733018,56.41161897828487 129.22419732120346,57.16963589548534 129.09028099924,59.24154880227405 128.88940651618188,60.39878796253343 128.35500458948025,62.3292043784879 127.64878549495515,64.05748294970498 127.05879566106745,65.7099598289761 127.01836809215008,65.8110287513448 126.08095383787884,68.05981227267407 125.43158601221907,69.92958733502658 124.77590137876537,71.42035393892948 124.80116860933872,71.58711766071357 126.5635579419051,71.49110218461016 128.0732749686627,71.42035393892948 129.57667518770168,71.65281246020429 130.57094071076295,71.7993623975297 130.6517958485977,71.80946928953314 130.63663551032897,71.51131596884292 132.06928748383785,71.56185042998962 133.17725554440392,71.60733144524755 135.1417827214818,71.58711766071357 138.03109053754426,71.55679698379966 143.06937631387004,71.40014015447079 143.4736520030436,71.43551427712288 144.52855887955624,73.83590118159104 144.79260143904773,74.43726126901083 145.213300828094,75.95329510341178 145.27015209688403,76.03920368781297 145.40785850350878,76.30703633151396 145.5089274258775,76.90839641915967 145.6125230711529,78.30314754718505 145.6870614013443,78.41432336155718 146.49940286420215,78.76806458943345 148.30348312721458,79.4806004914513 153.14973795110762,81.0522222332642 155.53749124028909,81.81023915046467 161.09628196642586,83.57389184463504 162.99006089797368,84.28642774687879 166.71318732288137,86.01975976428582 168.2178509036749,86.60090606717165 168.52484775499047,86.66154742062298 168.7408825763926,86.5907991749423 169.02008547422813,86.4594095760362 169.57091110072713,85.74182022782838 170.90375751347128,83.98827442618857 172.3983142018849,82.1892476090649 173.07042253521126,81.44639103035905 173.31298794871543,81.26446697030624 173.57955723118894,81.06738257175881 173.86381357513912,80.93093952666274 174.26556254133067,80.79449648156665 174.6572046151423,80.71364134388254 175.07285055807387,80.68332066711922 175.52639734686548,80.71364134388254 177.5591460464914,81.01179466457275 178.04427687357503,81.1381308174395 178.52561761592202,81.37564278445247 179.28237117166913,81.81023915046467 179.9165786589849,82.21956828605414 180.5103585774586,82.46213369948299 181.37828794765312,82.6592180975786 182.49888962365645,82.84619560389667 184.24864534078557,82.84114215808322 185.4197814779356,82.6592180975786 186.68440636805641,82.4065457918451 187.74563005221236,82.18419416310084 188.77021625188635,81.96184253382947 190.29256689393063,81.46155136885366 191.26661863253324,81.06738257175881 191.97157436552968,80.59235863675396 192.42764787737863,80.14260193269894 192.51987326904666,78.8944007423002 192.6651598447681,77.73716158226672 192.7384348134308,77.30256521648042 192.88119466617025,77.1206411561264 193.1578708410237,77.05999980275037 193.68090251381673,77.05999980275037 195.0529131340249,77.03978601851759 195.22599366345233,77.03978601851759 197.4507733153604,76.9892515570697 200.1531036252554,76.94377054211296 201.8295843737218,76.90334297334621 203.84969945813634,76.98419811103032 205.58176811401472,77.02967912621295 206.58993061374073,77.04483946425576 208.16028899394968,77.05494635648509 210.2132514780343,76.99430500325965 210.88156972669938,75.06894203334456 211.28205533128695,73.41646515384754 211.49050998344177,72.1682639639006 211.76592279676657,70.59158877582242 212.00469812560942,69.84367875085128 212.0135416563854,69.78809084366522 212.0956601556735,69.30296001665693 212.2156795008969,69.31306690911217 212.60858493638779,69.33833413938432 212.71344394326718,69.34338758587549 212.86631068823593,69.36360137010826 213.03560113315268,69.38381515434104 213.26553293129484,69.39897549306156 213.67865215109381,69.39392204657038 214.10819507091603,69.39392204657038 214.16125625512007,69.39897549306156 214.20042046243347,69.40402893902562 214.40382166862423,69.4596168465129 214.6059595131357,69.46972373874223 214.7070284354291,69.46467029225106 214.94833048740458,69.40402893902562 214.98496797173595,69.39392204657038 215.14288816281936,69.33328069364615 215.32228549989014,69.29790657069286 215.56990435950897,69.21705143300875 215.638125882057,69.18673075624542 215.74930169657975,69.12103595637821 215.90974861087113,69.0401808186941 216.0297679560192,68.99469980351147 216.43025356060681,68.86836365064471 216.56543324409893,68.83298952791733 216.65513191263432,68.80266885145522 216.701876289195,68.79761540518994 217.1137321476159,68.79256195922588 217.52432464443282,68.79256195922588 217.72646248894432,68.80772229764518 217.77826031169496,68.80772229764518 218.0688334632132,68.85825675864129 218.1686390239779,68.86331020460534 218.21412003908526,68.86331020460534 218.48195268316275,68.80266885145522 218.52364361353347,68.7875085129606 218.58554832843816,68.77740162073127 218.62976598201683,68.76729472872783 218.91528568749567,68.6712792523232 219.28039716920526,68.53483620722712 219.39283634533197,68.47924830004105 219.67961941226417,68.25689667076966 219.91839474118234,68.00422436503618 220.0055666866604,67.92842267361735 220.03462400181974,67.9031554428934 220.08515846296643,67.8526209816714 220.3428842148146,67.60500212197726 220.37699497616393,67.57468144574106 220.59429315909472,67.3674901549643 220.62461383578275,67.332116032011 220.6574612355281,67.30179535547359 220.68146510449748,67.2664212325203 220.70925905820346,67.20072643287898 220.71431250431814,67.0642833877829 220.8507555494142,66.56904566854526 221.40663462195258,65.94747179644088 221.79322324980012,65.47750130770127 222.1166438010637,65.56340989187657 222.46027813686123,65.69985293697266 222.80012238814808,65.85145632056336 223.16397050832902,65.98789936565944 223.54045224387193,66.08391484153695 223.98136541737685,66.12434241052962 224.41596178331375,66.12434241052962 224.82908100311272,66.11423551852619 225.27125753814633,66.09907517980567 225.4468647907064,66.10412862629684 225.51508631325444,66.11423551852619 225.5630940513438,66.1293958567196 225.9471559560587,66.25573200958634 226.0254843708361,66.28605268634966 226.0570684090528,66.30626647058243 226.08738908566548,66.33153370130638 226.1151830393715,66.3618543777685 226.15055716209886,66.41744228540638 226.2453092767489,66.5943128990433 226.35016828362834,66.90257311218876 226.37290879121963,66.93794723491615 226.58262680490313,67.25631434029096 226.8327723875793,67.52920043055843 227.11071192396142,67.7515520593027 227.20293731547886,67.80713996694057 227.35833078358024,67.918315781388 227.6122664507671,68.19120187135427 227.81945774146857,68.47419485377577 228.0089619707687,68.76224128223664 228.18583258478213,69.00986014223199 228.26668772261684,69.11092906437477 228.509253136121,69.35349447787893 228.78340258784183,69.61627367584175 229.10808650070936,69.83862530511313 229.41381999064689,70.05087004162806 229.7385039035144,70.27827511663759 230.09350849306998,70.49051985367963 230.46620014402689,70.68760425222705 230.79846422606641,70.88468865047327 231.1092511621186,71.07166615679135 231.44530532874415,71.3142315702955 231.72956167269433,71.5315297530757 231.79399311065637,71.58711766071357 233.0699882546858,72.5169517455116 234.08194083907313,73.3709841388908 234.56201821996675,73.70956502872428 235.10905376187975,73.83084773540106 235.14442788483305,73.81568739690645 235.19748906888648,73.80558050467711 235.23665327627515,73.80052705893895 235.65229921920675,73.74493915167758 235.81653621800882,73.71461847476365 235.85822714837954,73.71461847476365 235.9807732167356,73.724725366993 236.14501021538706,73.76009948972039 236.22712871482574,73.77020638194972 236.39262907500589,73.80558050467711 236.79058795661143,73.81063395116828 236.88281334812885,73.83084773540106 236.99904260876625,73.87632875035779 237.07358093895763,73.91170287331109 237.2453981068564,74.06330625690178 237.50691394336587,74.30587167040593 237.5713453812526,74.361459577592 237.65093715755867,74.45242160773135 237.79117028731605,74.6596128982822 237.96930426285815,74.85669729682964 238.18786580724233,75.12452994098244 238.21060631475834,75.15485061774575 238.23587354533169,75.18517129398197 238.24977052222232,75.22054541693525 238.25987741445167,75.29129366261594 238.38116012120375,75.36709535426068 238.87134439440203,75.68040901344551 238.9762034012061,75.74105036689686 239.11769989241688,75.80674516631225 239.41964329769309,75.92297442694966 240.07406456954283,76.13016571772643 240.26356879884295,76.17059328641788 240.4202256283977,76.1857536249125 240.53898161216776,76.17059328641788 241.29068172164958,76.0493105798164 241.94889307816064,75.93813476514306 242.17756151477414,75.8673865197636 242.37211919018893,75.7814779355883 242.55783333490302,75.68040901344551 242.73596731044515,75.56923319907338 242.9431586011466,75.45300393843597 243.14403308428004,75.35698846203134 243.2387851989301,75.32161433907805 243.62537382662703,75.74105036689686 244.03596632344394,76.22112774786578 244.41118469745817,76.56981552947678 244.56026135791623,76.7719533742895 244.6196393498389,76.90334297334621 244.68407078765034,77.04483946425576 244.64490658033696,77.14590838685035 244.43518856657818,77.25708420129779 243.8287750328178,77.49964961472664 242.43528726662228,78.03531490295694 241.72148800292518,78.40421646932784 241.30078861387892,78.76806458943345 240.90282973242398,79.24308852443832 240.6223634730598,79.70800556668674 240.5326648044491,80.25883119311044 240.61351994235912,80.99158087981286 240.9255702398647,81.92141496506271 240.9824215086547,82.32063720819693 241.20729986083282,82.75018012771795 241.77833927171523,83.19993683199887 242.7726047947765,83.63453319778517 243.6847518184744,83.80635036583455 244.6044790113443,84.48856559116436 245.52673292727155,85.17583426268416 246.53615878867683,85.92374428765528 246.8254685787417,86.14609591715256 246.97454523912444,86.3229665307142 247.1034081151238,86.50994403703228 247.16910291453922,86.70702843580561 247.20700376039926,86.96980763354254 247.2398511602199,87.73287799693298 247.22342746034724,87.84910725757038 247.17289299912522,87.92996239525449 247.08951113823318,88.02597787143323 247.00107583122644,88.09672611733981 246.81030824039766,88.17758125502392 246.17483739147795,88.37971909953541 245.99291333142514,88.45552079148136 245.90574138587178,88.5161621448574 245.85647028632906,88.58691039008627 245.81856944046902,88.67281897448747 245.8160427173364,88.76883445059089 245.8968978552464,88.95581195645717 246.5993268651102,90.28486828499183 246.83557547104633,90.74473188105027 246.90758707818037,90.93676283385955 247.11098828422053,91.58360393616076 247.34976361321398,92.36183463781991 247.36618731308664,92.48311734472259 247.33586663647392,92.63977417405145 247.25248477543127,92.87223269532626 247.05161029252375,93.15522567797368 246.78125092531363,93.40284453774309 245.89942457822843,94.0395787480409 245.25763692166538,94.49438889836117 245.15025119180393,94.57019059000592 244.77755954092234,94.85318357272864 244.66006691868097,94.98962661782471 244.62974624199296,95.0755352014729 244.62090271121698,95.16649723138634 244.62848288046428,95.26756615375504 244.697967764541,95.58593325920515 244.93295300879785,96.6319966050924 245.16667489167662,97.69827373521242 245.3928166053081,98.68369572719652 245.4812519123148,98.91615424869724 245.58863764217625,99.09807830875006 246.00049350052183,99.66406427389428 246.44267003555544,100.28563814599866 246.54121223479152,100.39176051433144 246.73450654875293,100.52820355942751 247.31565285186466,100.86678444888449 248.54237689620075,101.55910656689545 249.1222598378591,101.93306157900452 249.37240542061056,102.15035976201061 249.8676431398482,102.6203302505243 249.9876624850716,102.771933634115 250.01798316168433,102.85784221829029 250.02429996940296,102.96901803266242 249.9914525695823,103.11556796976194 249.87016986283024,103.43898852117611 249.56948981900737,103.82810387200568 249.30797398264852,104.15152442341986 249.27512658282785,104.22227266910053 249.25996624448385,104.31828814542986 249.29028692117188,104.6113880199301 249.30671062104454,104.8640603256636 249.26375632906985,104.97018269429758 249.20311497576913,105.07630506263034 249.11594303021576,105.17232053858315 248.89611812422763,105.33908426066847 248.75967507913154,105.40983250604793 248.80641945569224,105.49068764373204 249.30923734417718,106.34472003711124 249.9068073471616,107.37056959876573 250.3173998439785,108.07299860847893 250.30729295174916,108.15385374616304 250.2870791673658,108.18417442315226 250.27191882902179,108.22460199206962 250.23149126002912,108.29535023729848 250.21759428321377,108.36104503716571 250.22264772932846,108.43179328239457 250.2441248753158,108.47222085161313 250.46394978130394,108.79058795653613 250.61934324940532,109.07358093918354 250.82527117857813,109.36162736787033 250.99582498487294,109.67494102660334 251.12216113773968,109.96298745529012 251.2889248595991,110.58456132762042 251.47211228125585,110.90798187903458 251.64013936456863,111.24150932245219 251.77784577119337,111.52450230464778 251.93071251616215,111.83781596405852 252.12021674546227,112.15618306898152 252.2932972748897,112.42906915917368 252.43858385061117,112.70700869540522 252.45500755048383,112.76765004908246 252.47648469647118,112.8636655251859 252.54470621901922,113.17192573840666 252.55102302673785,113.32352912147023 252.55860319583456,113.36395669068881 252.58260706495454,113.50039973555899 252.5649200034779,113.70253758007047 252.5143855424065,113.79349961043573 252.4726946119605,113.85919440992645 252.43858385061117,113.88951508638856 252.39183947405047,113.90467542488317 252.3716256896671,114.03101157774992 252.37036232806312,114.07143914644136 252.36530888194844,114.71828024926971 252.38046922029247,114.79913538717973 252.5687100880639,115.06191458491665 252.61040101866053,115.13266283082324 252.63314152602595,115.21351796850735 252.7076798562173,115.50661784293229 252.81380222470068,115.81487805630366 252.9414017390961,116.1079779308039 252.96540560806548,116.14840549972126 253.19281068330093,116.38591746726135 253.22186799838497,116.42129158998873 253.23829169825765,116.5425742965902 253.2433451443723,116.60321565004153 253.44548298903442,116.90136897095766 253.59708637239922,117.21973607588065 253.68931176406724,117.54315662729482 253.7259492483986,117.86152373244371 253.7562699250866,118.08387536171509 253.82575480916333,118.40729591312926 253.9167168391521,118.7003957875542 254.04557971515146,119.0036025545097 254.18581284475823,119.30175587542581 254.2805649594083,119.62517642683999 254.36142009731833,119.92838319326836 254.4713325502371,120.23158996044975 254.56987474947314,120.51963638891064 254.64314971813585,120.82284315579082 254.78464620934662,121.12099647670695 254.9564633773207,121.38882912048324 254.9943642231807,121.48989804307784 254.97288707719338,121.62634108817393 254.9564633773207,121.78805136354215 255.03605515362673,122.03567022331157 255.1851318139342,122.31360975976902 255.33420847431694,122.60670963419396 255.35947570489031,122.63703031110788 255.44285756578236,122.79874058647611 255.47317824254569,122.9857180927942 255.42896058896702,123.1373214763849 255.6235182643818,123.54665061144723 256,124.25918651369098 255.94946553877799,124.43605712777973 255.6033044799231,124.69378287947728 254.47385927344502,125.36589121302957 253.7259492483986,125.88639616268996 252.3514119052084,126.5332372652924 251.5125398500979,126.99815430806792 251.0122486847456,127.41253688939554 250.31108303633516,128.49902780374833 247.0806676075325,132.4356623270761 246.26327269848466,133.21389302896117 246.1685205838346,133.30485505917582 246.1571503300766,133.23410681349515 245.9234284473484,132.86520524712427 243.70370224155502,130.97016295412308 242.46434458178163,130.0150616381493 241.78086599484786,129.45412911972215 240.75375307196592,129.95947373118912 239.50428852011382,130.43955111193216 238.53529022762586,130.76802510931037 238.08174343898486,130.4344976658928 238.03499906227356,130.42944421970282 237.95540728611812,130.40417698897886 237.80633062566005,130.35364252828396 237.5486048738119,130.30310806683607 237.1177985925363,130.2980546207967 236.71225954183404,130.23235982115537 236.3143006602285,130.14139779101603 235.90876160952624,130.07570299182652 235.5221729818293,130.00495474614584 235.1191606541091,129.9443133926945 234.6997246265915,129.85335136255514 234.65929705774943,129.83819102451235 234.53043418175005,129.83313757832238 234.44073551321466,129.828084132283 234.26133817614388,129.83313757832238 234.2108037150725,129.83819102451235 234.11226151583642,129.83819102451235 234.06804386225778,129.85840480904633 234.0238262087544,129.87356514701384 233.89117324831963,129.9291530544258 233.63092077333883,130.0807564380165 233.54627555091812,130.12118400678324 233.49700445130009,130.13129089901258 233.44394326717136,130.13634434497666 233.19632440755254,130.12623745274732 233.15589683855987,130.11613056051797 232.80089224907962,129.95947373118912 232.5381130511168,129.8634582547845 232.3283950372827,129.828084132283 231.9367529634711,129.828084132283 231.5362673588082,129.8129237938637 230.706238834549,129.81797723982777 230.41061223684082,129.85335136255514 230.0379205858839,129.9796875154219 229.7233435651704,130.03527542260795 229.7549276033871,130.0807564380165 229.34054502198418,130.5658872647989 228.9476395866439,131.04596464554191 228.21994334605614,132.0212797457485 227.6122664507671,132.73381564821815 227.26736875344088,133.38065675059468 226.6533750505838,134.27511671289122 226.45881737524434,134.59853726430538 226.38806912948834,134.59853726430538 226.27436659198358,134.58843037230196 226.20488170790688,134.5783234800726 226.0987593394235,134.53789591085405 225.5163496747831,134.43682698848536 225.20935282331692,134.44188043497653 224.80760385712537,134.49241489589733 224.76843964981197,134.50252178835257 224.68505778884463,134.52273557288655 224.6395767738126,134.52273557288655 224.59156903572324,134.52273557288655 224.1266519932489,134.49241489589733 224.05590374756824,134.4772545576286 224.00410592496817,134.44693388071468 223.66047158909532,134.30543738957925 223.48360097515717,134.23974259016384 223.33705103783174,134.20942191370173 223.01742057100358,134.12351332975234 222.92519517948617,134.06792542211446 222.78875213439008,133.97696339220101 222.52976302093796,133.71923764042816 222.35162904547116,133.56763425713865 222.07116278603166,133.38571019708584 222.03957874781497,133.35538952009662 222.0079947095983,133.32001539714332 221.48117295214396,133.59795493360076 220.34920102245795,134.2801701593824 219.36630575322997,134.83604923154428 217.98039815620646,135.59406614874473 217.19964073148998,136.04887629951682 215.85416070345914,136.8725880159068 214.69692154319978,137.4587877652838 213.8062516654892,137.9792927152454 212.14493125536683,138.99503538391752 211.1873032166369,139.62166270251308 210.42423285332174,140.08657974476148 209.55251339846592,140.67783294040376 208.9284128033795,141.19328444410007 208.7035344512014,140.61213814068714 208.21714026273972,139.37404384251775 207.58419613680203,137.81758243965126 207.066217910199,136.67550361735937 206.3978996613833,134.86131646226823 206.12627693271978,134.36607874303058 205.6828370361575,134.05276508384574 205.0928472022698,133.85062723933427 204.8325947274396,133.63838250281933 204.31208977762864,133.02186207645312 203.76379087418695,132.37502097415188 203.50859184532084,132.07686765316046 203.3772022463394,131.74839365555633 203.3152975314347,131.69280574837026 203.28750357780402,131.66248507190815 203.25844626271999,131.6372178411842 203.09547262552186,131.6220575026896 202.9855601725278,131.6220575026896 202.93249898832377,131.62711094918075 202.88070116564842,131.6372178411842 202.72404433601835,131.7029126405996 202.687406851687,131.7231264252842 202.61160516004225,131.74839365555633 202.57370431410692,131.75850054778567 202.5168530453922,131.77366088628028 202.43726126908612,131.7888212247749 202.2717609087554,131.79892811700424 202.23259670144202,131.8039815627424 202.10373382544262,131.82419534742698 202.0658329795826,131.8343022397316 201.9230731269185,131.89999703914702 201.83969126595113,131.94042460806438 201.80052705863775,131.96063839259836 201.66029392888035,131.9707452848277 201.60091593710828,131.98085217705705 201.5112172685729,132.05665386847588 201.50616382245823,132.1071883299238 201.4101483462042,132.09708143769444 201.12968208684003,132.0364400840172 200.7430934591431,131.9555849463331 200.59022671417432,131.91010393115045 200.36408500054284,131.79892811700424 200.10888597167673,131.54120236477956 199.8966412350112,131.27336972077737 199.66165599052846,130.99037673835585 199.42919746925364,130.73770443262237 199.3647660313669,130.6821165254363 199.29022770117552,130.6517958489742 199.26117038594086,130.55578037256956 199.1588381021941,130.3132149590654 198.96301706525065,130.04032886909914 198.9061657964606,129.9948478539165 198.87079167358263,129.96958062319254 197.13366957166488,129.2974722900921 195.71112449046063,128.9437310622158 194.95058085012752,128.57988294165835 193.30063069376314,127.99368319228137 191.66331415261013,127.57424716521558 190.51744524603345,127.27609384422415 189.13280101061392,126.98804741583858 188.00588252704256,126.77074923275718 187.09373550341996,126.66968031061438 186.03882862690733,126.4978631423391 185.96176357373392,126.4827028043716 185.562541330675,126.30077874424349 185.3692470167136,125.99757197736331 185.19869321041878,125.5932962878132 184.91317350486463,125.16880681425624 184.51647798486306,124.85043970933326 184.03892732702676,124.67862254150978 183.35671210162164,124.54723294215187 182.70860763741524,124.35014854360443 182.2803280791217,124.0924227921328 181.92279676650878,123.81448325567534 181.55263183860922,123.68309365654332 181.14582942645362,123.69825399481203 179.60705508446134,123.8397504863993 178.37022414797121,123.88017805509075 178.0998647807611,123.92565907004747 178.22241084904184,124.26423995995626 178.35885389413792,124.5573398343812 178.510457277578,124.84538626284207 178.71133176063614,125.11321890729609 178.74038907587078,125.14859303002348 178.88441229006358,125.43663945871026 179.00948508140164,125.74489967162981 179.1623518263704,126.05315988432346 179.34301252496985,126.34625975897431 179.56536415409062,126.60398551074717 179.85214722102285,126.85665781648066 180.18441130306238,127.03858187675937 180.46487756242655,127.24577316731023 180.707442976006,127.48833858081439 180.90326401294945,127.76122467100654 181.10540185746095,128.01895042323122 181.3290168481104,128.3069968516921 181.51346763129584,128.61525706461165 181.54252494637987,128.6910587564823 181.5538952001379,128.83255524739184 181.53115469262187,128.99426552321188 181.5261012465072,129.13070856808207 180.7390270142227,130.62147517198497 180.0201743043356,131.92526426987098 179.49714263154257,132.9763810614964 179.2558405795671,133.48677911922863 179.42513102433324,133.60300837986605 180.0125941352389,134.03255129938708 180.54320597720394,134.45198732720587 181.13193244956295,134.88658369299216 181.64612059180592,135.18979045964645 182.11735444192357,135.46267655013983 182.67449687606592,135.55869202601735 183.62707146868118,135.60417304119997 184.17410701059418,135.70524196364397 184.27391257135892,135.89221946988675 184.3989853627723,136.31670894321783 184.4912107542897,137.03429829172683 184.62512707640377,137.3930929658684 184.90938342035395,137.62049804110384 185.33513625551487,137.90349102329944 185.8076334671612,138.25217880543755 186.71599040627308,138.85353889278207 186.98508641187925,139.07589052182752 186.91560152795316,139.34372316605564 186.3736194320042,140.32914515826565 185.84679767462518,141.07705518346268 185.46778921602495,141.59756013342428 185.15700227997277,141.76937730124774 184.99150191964202,141.88560656158393 184.82094811327192,142.04226339143992 184.19937424131814,142.68405104777707 183.8746903283,143.04284572214453 183.83299939785397,143.083273290836 183.80520544422328,143.12370086005456 183.76477787530592,143.22982322838732 183.77488476753527,143.3814266115262 183.8468963746693,144.02826771435454 183.95554546621003,144.90756733815647 184.10335876506412,144.96315524556846 184.2473819792569,145.01368970656455 184.38508838588166,145.0541172757831 184.48489394664637,145.06422416801246 184.89548644346328,145.06422416801246 185.03950965773137,145.05917072152127 185.42357156244628,145.1400258594313 185.91754592015525,145.291629243022 186.30160782487016,145.4230188418528 186.68945981417107,145.57967567170877 187.0760484419433,145.74138594730292 187.41336597009752,145.89804277663177 187.77974081341108,146.0597530522259 188.14990574131065,146.2265167742359 188.6640938834783,146.50445631069334 188.9900411578745,146.68132692455617 189.36525953188874,146.86830443087428 189.7000503370609,147.06033538315643 190.01589071922777,147.24225944320924 190.32036084763664,147.46966451821876 190.61851416832684,147.74255060863683 190.8572894973203,147.99522291437034 191.15165273349982,148.23778832787448 191.49023362310737,148.42981928045785 191.79344039006287,148.62185023251408 191.82123434369356,148.64711746323803 191.86545199712162,148.69259847819475 192.00063168083963,148.97053801465222 192.15476178718646,149.26869133534242 192.19013591013976,149.3242792425285 192.40617073139128,149.4910429640867 192.7700188516475,149.657806686172 193.1578708410237,149.81951696199204 193.569726699294,149.9559600068622 193.9310480965682,150.06208237549617 194.31384663967913,150.14799095914435 194.74338955942608,150.2086323125957 194.78255376681474,150.21368575855976 195.24873417089304,150.3400219114265 195.42307806184914,150.41582360337247 195.75407878236,150.58764077119594 195.87283476605475,150.67354935529593 196.19499195594025,150.89084753807612 196.54746982243847,151.08793193639764 196.90626449658004,151.23448187372307 196.94542870389344,151.24458876625363 197.38760523892702,151.25469565848294 197.78809084351462,151.25469565848294 197.82978177396063,151.2597491042211 197.95359120384535,151.2951232271744 198.1266717332728,151.39113870357903 198.17088938670085,151.42651282630644 198.1658359405862,151.52758174844922 198.0293928954901,151.75498682345875 197.43434961548772,152.4675227257025 197.23979194007293,152.81115706157536 197.3155936318683,153.10931038226556 197.54931551459646,153.26596721212152 197.85631236606267,153.4883188408658 198.63201634473978,153.84711351500735 200.4777875380476,154.79716138448998 202.2995548623861,155.45410937954765 203.04493816429988,155.75226270023788 203.88886366544972,156.32330211134615 204.7984839660903,157.23292241191143 204.90207961151634,157.82417560755368 205.30509193908594,159.37053011841675 205.65883316718813,160.04263845196903 205.7952762122089,160.3003642034407 206.51665564507803,160.4014331260353 207.60188319827867,160.38627278761598 208.6997443666154,160.37111244912137 208.93472961102282,160.4822882634935 209.23161957018436,161.05838112064114 209.7862352813447,162.357116772036 210.1816674398176,162.93320962940956 210.48613756822647,163.15556125837972 211.1835131319756,163.1959888271465 212.25105362377488,163.28189741124646 213.56115952900302,163.3981266718839 214.4594095758103,163.43350079483716 214.84852492663987,163.47898180956798 214.86115854200185,163.5143559322954 214.88642577249988,163.84282993020074 214.90158611084388,164.03486088225696 215.05066277130194,164.35322798740586 215.17447220103605,164.6665416465907 215.29954499237414,164.93942773678287 215.38924366090953,165.06576388964962 215.53832032129228,165.2527413959677 215.55474402116496,165.288115518921 215.5648509133943,165.32854308783834 215.61412201308764,165.54078782465447 215.78720254251508,165.86420837606863 215.8175232191278,165.88947560626548 216.15231402422467,166.1017203430816 216.44794062193284,166.30891163385837 216.690506035437,166.54642360109725 216.88759043398443,166.8243631375547 217.0442472634639,167.0770354432882 217.24006830048265,167.33476119528694 217.27544242321002,167.4257232254263 217.28554931543937,167.5571128240312 217.37903806856076,167.65818174639992 217.4156755528921,167.73398343834586 217.5053742214275,168.0422436510395 217.61149658983558,168.35555731045025 217.74920299646033,168.66887096933388 217.90712318754376,168.987238074784 218.0953640553152,169.28033794920893 218.28865836927662,169.56333093193163 218.42131132971141,169.84632391412723 218.6272392588842,170.15963757353796 218.4604755371001,170.31124095660155 218.40236090678138,170.36177541782357 218.11431447832052,170.4881115706903 218.1218946474172,170.5740201548656 218.38846393004135,171.2916095028475 218.45921217557142,171.6099766082223 218.33792946881937,171.68577829994234 218.1269480935319,171.7413662071284 217.60896986685353,171.83232823704188 217.39798849156608,171.9283437136724 217.4245190836681,172.10521432723402 217.49653069072684,172.36799352542278 217.70119525837097,173.22707936506723 217.90333310303305,174.21250135727723 217.88690940308507,174.46012021674545 217.75678316570762,174.5056012317022 216.70061292766633,174.60667015407088 215.12772782447536,174.738059752977 214.72724221988778,174.80375455284423 214.61353968238302,174.95030449024495 214.62870002072702,175.1423354425271 214.7929370194538,176.08227641955446 214.95464729504792,177.10812598120896 215.10246059397733,177.97731871255564 215.17447220103605,178.69996150702872 215.31217860766083,179.33669571762772 215.53074015227088,179.89762823628078 215.85037061894846,180.57479001579713 216.1245200706693,181.2519517950876 216.43151692206018,182.07566351147756 216.58059358244293,182.43445818584502 216.6980862046843,182.520366769945 216.65007846659495,182.5860615694357 216.57048669021358,182.66186326085455 216.53763929046823,182.68207704531324 216.46436432180553,182.7225046145318 216.0929360324526,182.85894765940196 215.7442482504651,183.020657935222 215.55853410575097,183.12678030363008 215.37661004569816,183.27838368714546 215.3551328997108,183.31881125591224 215.2818579310481,183.46536119301174 215.083510170972,183.5563232231511 214.73229566600244,183.75340762169853 214.38613460714757,183.925224789522 214.04881707899335,184.1071488495748 213.7557172044178,184.31434014035156 213.43482337613628,184.54679866162638 212.81956631167523,185.02182259663124 212.58205434428575,185.20374665668405 212.27884757733025,185.34018970178013 211.77223960448524,185.45136551615226 211.34648676917368,185.49684653110901 210.9384209954141,185.57264822328085 210.54425219854517,185.6838240374271 210.21830492414895,185.85058775921118 209.8797240343908,186.0173514810706 209.51082246801988,186.18916864889405 209.22782948567368,186.27507723299405 208.79323311973678,186.32561169399014 208.65931679777333,186.34582547844883 208.2563044700531,186.42162717039477 207.87350592686687,186.51764264649822 207.60567328278938,186.5681771074943 207.53871512184529,186.5681771074943 207.45785998393526,186.58839089195297 207.36563459241785,186.62376501468037 207.17992044762843,186.6844063683576 207.05990110248032,186.7046201525904 206.65183532864543,186.7703149522317 206.26398333934455,186.8562235361811 205.89129168846296,187.02298725796518 205.74726847411955,187.11394928787863 205.6360926595968,187.23523199478132 205.6095620674948,187.27565956369867 205.5906116446401,187.32619402469476 205.47943583004206,187.54854565396616 205.43269145355666,187.59908011488693 205.39858069220733,187.624347345385 205.27729798545525,187.68498869906225 205.23181697042324,187.70014903748154 205.0044118952631,187.75573694474292 204.922293395975,187.76584383697224 204.49275047615276,187.76584383697224 204.34620053882736,187.78100417516566 204.29566607775595,187.791111067395 204.24260489347662,187.81637829811896 203.8623330733477,187.9427144509857 203.76505423571564,187.9881954657165 203.51869873755018,188.08926438838643 203.41889317678545,187.82648519034828 203.22938894748532,187.31103368665197 203.06262522570123,186.72483393704906 202.90344167308913,186.03756526552928 202.764471905011,185.35535004027474 202.39304361550748,185.3654569325041 201.19158680189534,185.40588450119554 198.7975167049199,185.31492247105618 193.85019295865817,185.08751739604665 191.02910666514376,185.03192948886058 187.06973163429998,184.82473819808382 181.94932735861082,184.642814138031 181.68654816072328,184.6630279224897 180.2804267792411,184.77420373686184 178.5925757770167,184.9308605667178 175.3356297560367,184.66808136867965 173.70083993794103,184.4103556167562 171.68072485367708,183.89995755924986 169.74399163022989,183.23290267196285 168.70045500755057,182.84884076739854 167.46615079396716,182.33338926370223 166.79656918392402,182.0301824965208 165.45235251734655,181.45914308586435 164.40376244847727,180.9639053664008 163.10881688159313,180.31706426357246 162.2358340652839,179.83193343679005 161.0495375898652,179.27100091791112 160.61115113949288,179.2255199031803 159.67373688522164,179.07896996562897 158.53418478628828,178.92736658203827 157.98083243673196,178.8566183368094 157.89871393744386,178.93242002852944 157.6056140628683,178.7201752917133 157.1912314813148,178.50793055474657 157.07752894381002,178.4523426475605 157.00425397514732,178.44223575525587 156.81727646882922,178.4523426475605 156.5696576092104,178.4523426475605 157.00299061354335,184.55185210811757 156.94108589871394,184.67313481449312 156.7995894075032,184.98139502741267 156.76042520003918,185.12289151899995 156.74779158475252,185.45136551615226 156.73263124640852,185.5979154534777 156.65809291636774,185.84048086698184 156.65430283163113,185.88090843620043 156.64672266253442,186.18916864889405 156.64166921641976,186.49742886181363 156.63787913175844,186.81074252122437 156.65430283163113,187.07352171896127 156.65051274704513,187.39694227060136 156.63914249328712,187.65466802229892 156.58355458610106,187.81637829811896 156.44079473336163,188.12969195685196 156.28919134992154,188.4430056162627 156.07820997463406,188.74115893695293 155.8520682610026,189.0292053656397 155.6688808392705,189.30714490179594 155.3631473494836,189.65583268348223 155.1142651282608,190.2016048641678 154.84769584563668,190.87876664368414 154.78200104614595,190.90908731992036 154.60892051679383,191.085957934235 154.58744337080648,191.11627861069712 154.55838605557182,191.2072406408365 154.55080588647513,191.5357146382147 154.58744337080648,191.76817315948952 154.5950235399032,191.84902829739954 154.59376017844983,191.8894558666181 154.55838605557182,191.98041789653155 154.23875558881895,192.18255574081715 154.20843491220626,192.2078229715411 154.14147675118687,192.33415912440785 154.13136985903284,192.36953324736115 154.1212629666529,192.40490737008852 154.0227207674168,192.5767245381379 153.82058292290534,192.8395037358748 153.61718171671458,193.10228293383764 153.54769683263785,193.22356564066504 153.4453645488911,193.52677240739462 153.39735681072645,193.5975206530753 153.35440251875175,193.65816200675255 153.3139749499097,193.67332234472005 153.2710206578597,193.6783757909853 153.13836769734962,193.72385680594203 153.10046685148959,193.73396369817138 152.73535536978,193.76933782089876 152.69492780078733,193.7794447131281 152.52058390998184,193.73901714443664 152.4637326410412,193.71880335990267 152.35382018804714,193.68342923694937 152.24390773505306,193.63794822221857 152.19084655084902,193.60762754530464 152.15420906651767,193.59246720703592 152.1150448592043,193.68848268298873 151.8547923842235,194.14329283368554 151.42272274141922,194.62337021450386 150.75314113122548,195.1691423946623 149.8359406615635,195.719968021086 149.11582459007246,196.06865580322412 148.40707877249002,196.31122121695418 147.99016946802976,196.47293149254833 147.63642824000286,196.60937453764438 147.28016028891864,196.7407641362493 146.9137854456804,196.8569933968867 146.51456320254619,196.96311576552068 146.11534095948727,197.06418468766347 145.9940582527352,197.09450536435148 145.75401956228836,197.06923813415466 142.74342903954914,196.16467127955346 139.56860151793254,195.17924928689163 137.74051738595074,194.5526219688232 135.00281295332837,193.22861908670438 132.04907369930388,192.00063168076434 131.8229319856724,191.08090448796975 131.7218630634543,190.62104089145947 131.5791032107149,190.1005359419497 131.41865629649882,189.51938963838617 131.155877098536,188.59966244559155 130.91583840816446,187.59908011488693 130.61010491822694,186.50753575404295 130.1275008143513,184.99150191964202 129.65879368714036,183.82920931334326 129.2924188437515,182.84378732090735 128.8072880167432,181.32775348650642 128.58367302624436,180.50909521638172 128.23119515974614,179.38723017854852 127.85345006274987,178.21483068024634 127.47317824254567,177.40122585540797 127.21671585215088,176.95652259761826 126.97794052330804,176.7139571838882 126.76822250954923,176.46128487815471 126.57366483413445,176.20355912660776 126.45238212738238,175.90540580569163 126.40058430478231,175.58198525457865 126.40311102768904,175.2585647031645 126.34625975897431,174.99578550520167 126.17065250641423,174.71279252247896 125.97862155413208,174.45001332451614 125.86365565509864,174.3186237259112 125.71331563303661,174.31357027942005 125.66151781036125,174.30851683360657 125.4151623123464,174.2377685880012 125.24839859048699,174.19734101878262 124.48659158870052,173.92445492881637 124.10631976857162,173.78295843745502 123.69446391030134,173.66167573085355 123.29397830571375,173.62630160812614 122.87833236278216,173.62124816163498 122.4538428890746,173.58082059294352 122.1001016610477,173.45448444007678 121.74762379454948,173.3180413952066 121.36861533594926,173.24729314952592 121.2814433904712,173.24223970303473 120.43246444320667,173.23718625729657 119.99028790817307,173.23718625729657 119.56453507301214,173.23718625729657 119.4571493431507,173.2321328108054 119.402824797418,173.22202591857607 119.03013314646111,173.12601044262323 118.67386519530159,172.93903293660637 118.323914051936,172.747001984023 117.94995903945043,172.60045204647167 117.56337041160289,172.47916934009612 117.22099943733402,172.4286348786482 116.81293366364973,172.4286348786482 116.40739461287218,172.47916934009612 116.02459606976124,172.5650779237443 115.61653029592635,172.62066583115626 115.18951409923676,172.70152096884038 114.7763948794378,172.7975364450191 114.36201229795958,172.89355192142372 114.07143914644136,172.93397949011518 113.6393695036371,172.93903293660637 113.2123533069475,172.94408638234452 112.79165391790124,172.97440705933374 112.38106142108433,173.00978118198583 111.98057581649674,173.07042253521126 111.59525055017787,173.14117078089194 111.19855503017628,173.1815983501105 110.78796253335936,173.196758688078 110.39253037496175,173.2018121343433 109.56250185055194,173.196758688078 109.1683330536077,173.19170524233985 109.12411540025494,173.19170524233985 108.71857634947739,173.10074321220048 108.38378554430521,172.93903293660637 108.03762448545032,172.76721576855698 107.86328059449421,172.6964675228763 107.78874226430284,172.67625373864354 107.66872291907943,172.65098650791958 104.77562501850628,172.1102677737252 102.78835733383707,171.72115242289564 100.12645459301005,171.19054058070472 99.01848653229341,170.9227079364766 96.15949939291896,171.225914703658 90.91275896436305,171.70093863813574 89.4586298448668,171.80706100654382 88.47573457556354,171.85254202150054 84.88147102657994,172.15574878868193 82.32442729255702,172.3831538636915 80.76670252771005,172.50949001655823 78.78448828915553,172.6307727233856 75.27234323946001,172.57013137000956 72.26680616276016,172.53981069347213 71.72987751307649,172.5347572472822 70.4955732996437,170.4224167712749 69.1677803329389,168.88616915264117 68.24047297089699,167.8097851297647 66.80276755127343,164.46945724804328 65.78828824375347,162.70580455440003 65.24125270184047,161.65974120851277 64.04358597266372,159.3806370106461 63.60519952229142,158.58219252475416 63.12385877979382,157.65741188546838 62.384792285598664,156.29298143443222 61.26798069425664,154.15032028218874 60.81948735150439,153.26596721212152 59.69130550640436,151.1131991668957 58.33445522461552,148.5713157712921 56.6276537993858,145.49882053379875 56.04650749627407,144.29610035858263 50.52435425446865,137.33245161241706 50.20093370305448,136.73614497103662 49.43407325522864,134.94722504644352 48.42464739382335,133.54742047237878 46.04573763526724,128.41817266606424 44.79121963737576,126.28561840582418 43.89044286736057,125.18902059871492 43.08820829665674,124.50680537346041 41.509006385822424,124.02672799264208 39.76051403014667,123.84480393213745 38.9405923980415,123.96608663926604 38.05244924338828,124.09747623787095 37.24137114198378,124.22381239073769 35.443607686765304,124.18338482204624 32.24351293457535,124.38046922059367 29.738267023227795,124.30466752864771 27.116791851242837,124.33498820563693 24.12515175143362,124.3400416513751 20.8151445464002,124.66851564928045 18.024378929498504,122.97055775452549 15.71369069356574,121.63644798047856 15.051689252468693,121.2776533061111 12.524966195133794,119.67571088753488 11.596395471638521,118.78125092523831 8.362189958174547,115.83509184083763 5.830413454724978,113.1466585076827 5.374339942951331,111.47902128969106 4.96374744613441,109.1140085081762 4.642853617852878,106.91575944799364 4.637800171738208,106.8551180950694 4.601162687406852,106.66814058875133 4.5215709111008024,106.34472003711124 4.4470325808341205,106.051620162611 4.441979134719451,106.01119259346774 4.420501988732104,105.95055124046822 4.410395096502764,105.87980299456163 4.409131734974097,105.83937542564426 4.306799451227336,105.50079453596139 4.28532230523999,105.33908426066847 4.271425328349345,105.30371013771517 4.227207674921287,105.24306878426383 4.188043467457294,105.1824274308125 4.179199936831924,105.06114472421102 4.086974545163898,104.76804484925897 3.9909590690604735,104.4648380828306 3.9151573772651242,104.20711233060592 3.7938746705130493,103.92917279460029 3.702912640448993,103.64112636591351 3.604370441212932,103.28738513781131 3.430026550256824,102.99428526338637 3.2670529130587225,102.70623883469959 3.168510713897964,102.43335274473333 1.5488812342215956,95.43432987561445 1.3732739816615178,94.72179397337071 1.0852275531253393,94.79759566524136 0.01768706132604208,90.65376985113683 0,90.58807505172142 0.8616125624758985,89.62792028993415 1.126918483571365,89.56727893655811 1.8533513625551488,88.6829258664909 3.408549404269477,86.78283012722446 6.772881155110896,82.2751561932402 6.705922994166823,82.06796490246344 6.573270033581439,81.82539948895929 6.5442127184973895,81.76475813528204 6.534105826192747,81.5070323838104 6.376185635109317,81.22403940108768 6.143727113909808,81.01684811031092 5.94916943849502,80.73890857407937 5.854417323844962,80.44075525361507 5.848100516201624,80.3346328852823 5.853153962316294,80.29420531606374 5.927692292507674,79.98594510291828 5.931482377018374,79.66252455173002 5.920112123260367,79.60188319827867 5.803882862622961,79.28856953939506 5.625748887080851,78.98030932647549 5.476672226698092,78.86408006583808 5.445088188481406,78.83881283511414 5.418557596379389,78.81354560439019 5.227790005625907,78.5457129606139 5.0382857763257896,78.24755963969777 4.947323746186431,77.95445976504692 4.815934147280318,77.64619955212737 4.698441525038943,77.35309967717531 4.642853617852878,77.25708420129779 4.6226398333941985,77.22676352430857 4.606216133521522,77.16106872489316 4.601162687406852,77.11558770993643 5.96432977683903,77.59566509067946 7.575115725890028,78.15154416359434 8.431674842251256,78.47496471500851 8.74751522441812,78.5457129606139 9.089886198686997,78.63162154433738 9.770838062714056,78.75795769720412 11.034199591381505,78.96514898798088 11.674723886340601,79.08137824861828 12.089106467743523,79.14707304803369 12.494645518445775,79.2279281857178 12.93429533049735,79.22287473967843 13.264032689404251,79.19255406299041 13.694838970679852,79.07127135661486 14.383371003803612,78.75795769720412 15.140124559550717,78.38400268479386 15.951202661030521,78.11111659437577 16.76733420839909,77.84328395067479 16.805235054259114,77.8079098279474 16.860822961595783,77.75232192046013 16.88230010758313,77.7220012435462 17.046537106234595,77.44911515357994 17.278995627509406,77.1711756171225 17.289102519738748,77.105480817933 17.30299949662939,76.77700682047946 17.30299949662939,76.44853282264941 17.295419327382085,76.38283802345991 17.284049073624075,76.32219666978267 17.363640849930125,76.27166220901248 17.706011824199006,76.07963125627852 18.0205888448372,75.89770719622571 18.073650029041232,75.84717273522962 18.134291382492574,75.75115725912619 18.263154258341352,75.45805738417414 18.302318465805342,75.37214880052595 18.346536119233402,75.00830068034503 18.381910242111392,74.9779800034311 18.491822695105462,74.87185763524894 18.52593345630418,74.81626972761107 18.573941194393544,74.6949870212355 18.724281216380273,74.48779573045874 18.879674684331064,74.19469585550668 18.92768242242043,74.10373382559322 18.97190007599909,73.775259828215 18.97821688356713,73.70451158253432 19.052755213758505,73.41141170780817 19.126030182421218,73.10820494115389 19.25362969681663,72.81005162046367 19.347118449938023,72.50179140754412 19.335748196255317,72.35524147014338 19.210675404841936,72.0520347032632 19.09697286726187,71.80441584349377 19.093182782751168,71.75893482831114 19.05654529841981,71.51131596884292 18.975690160509792,71.2131626481527 18.955476376126416,71.15252129447546 18.90746863796175,71.0969333872894 18.812716523311693,71.02113169587057 18.75965533910766,70.99586446514661 18.62068557095424,70.93522311169527 18.547410602291528,70.88468865047327 18.500666225730832,70.82404729732313 18.49055933350149,70.75835249760652 18.477925718365423,70.5966422223136 18.4476050415268,70.53094742237109 18.428654618672088,70.46525262295567 18.428654618672088,70.16709930226546 18.446341680148734,70.07108382631264 18.49561277961616,70.0256028109041 18.544883879309495,69.97001490371804 18.563834302164203,69.93464078099065 18.57520455592221,69.8739994275393 18.634582547844882,69.54552543016108 18.699013985882225,69.22715832501218 18.712910962622264,68.90373777359801 18.744495000838953,68.7369740517386 18.85061736924702,68.44387417708775 18.945369483897075,68.13056051790292 18.960529822241085,67.99411747280683 18.951686291615715,67.92336922757798 18.915048807133754,67.8677813199401 18.70533079337496,67.61005556846844 18.58025800203688,67.30684880128705 18.534776987080154,67.10471095700147 18.51582656407484,67.06933683427408 18.376856795996723,66.87730588169072 18.341482673118733,66.8469852047768 18.052172883053885,66.6296870219966 17.805817384963735,66.39217505475773 17.548091633115575,66.13950274902423 17.31057966572609,65.89188388925481 17.064224167635942,65.61899779906264 16.82165875413179,65.35116515483453 16.547509302410955,65.07827906464236 16.337791288652156,64.91656878904824 16.3011538043208,64.90140845100544 15.857713907758527,64.69927060604213 15.83118331565651,64.67400337554409 15.813496254330468,64.61336202231865 15.780648854509812,64.55272066894261 15.599988155910367,64.2899414712057 15.553243779349671,64.14844497961843 15.577247648469655,64.08780362616709 15.612621771272343,64.03221571898102 15.688423462917088,63.91598645834362 15.760435070126436,63.62794003010865 15.73643120100645,63.44096252386586 15.708637247451069,63.410641846876636 15.67326312457308,63.385374616604494 15.490075702916299,63.24893157150841 15.437014518712266,63.22366434078446 15.079483206099377,63.08216784972431 14.71689844737182,62.95583169685756 14.36947402698827,62.79917486700159 14.196393497636132,62.68799905240355 13.918453961329293,62.450487085390584 13.629144171264448,62.23824234857445 13.347414550296303,62.00578382737494 13.04673450647345,61.77837875183829 12.728367401324556,61.57118746128743 12.623508394445157,61.49538576941678 12.492118795463742,61.333675493822646 12.490855433935074,61.26292724814197 12.043625452786799,61.14669798750457 12.199018920737592,60.73231540640285 12.214179259081602,60.691887837259586 15.323311981207498,60.156222549330494 17.660530809242278,59.78226753646842 19.33069475021595,59.56496935368822 19.493668387338747,59.509381446502154 19.73370707771026,59.539702122964265 20.02301686777511,59.56496935368822 20.212521097075225,59.54475556945545 20.605426532490803,59.494221108007544 20.788613954222885,59.48916766226938 20.837885053765614,59.47906077004004 21.227000404595188,59.39315218563884 21.623695924596767,59.292083263721956 21.98880740645696,59.15564021862588 22.34633871906985,59.01919717352979 22.620488170790686,58.902967912892386 22.68870969333873,58.86759378993909 23.044977644347647,58.690723175850344 23.37597836485852,58.50374566953226 23.749933377344085,58.35719573220683 24.111254774542974,58.22075268711075 24.48647314855721,58.06409585778189 24.850321268813435,57.877118351237904 25.187638797042943,57.669927060687044 25.22301291977033,57.65476672241834 25.542643386523196,57.46273576991028 25.86859066107,57.280811709857474 26.171797427799586,57.063513527077276 26.439630071877083,56.8411618978059 26.56091277862916,56.75525331415772 26.922234175828052,56.60364993056702 26.96771519093538,56.598596484301744 27.024566459650114,56.573329254104905 27.06878411330408,56.563222361800264 27.155956058631528,56.53795513115161 27.351777095650284,56.49247411619489 27.528647709588427,56.462153439205665 27.71941530041721,56.4065655320196 27.781320015321917,56.4065655320196 27.92028978355064,56.39140519375089 28.193175873667506,56.35097762483353 28.277821096163528,56.335817286338916 28.640405854815782,56.15894667255138 28.833700168701903,56.047770858103945 28.893078160549273,56.01239673515065 28.924662198765958,55.98712950472791 29.18365131221809,55.68392273754651 29.431270171836907,55.43125043181302 29.656148523864413,55.16341778803673 29.937878144757253,54.941066159066565 30.227187934972704,54.70860763756585 30.57713907826298,54.50141634678908 30.876555760557167,54.3649733019189 31.289674980506728,54.22347681033164 31.496866271132888,54.15778201114214 31.84681741464907,54.00112518151207 32.158867712229934,53.80909422900402 32.42038354866409,53.67265118390793 32.482288263493494,53.657490845865134 32.87140361432307,53.601902938227255 33.31863359547135,53.59684949248909 33.37674822579005,53.59179604599792 33.43612621763742,53.59179604599792 33.844191991397004,53.59684949248909 34.13602850451919,53.586742600259754 34.54156755522144,53.51599435457908 34.59715546248281,53.50588746234973 34.91046912166764,53.44019266263312 35.002694513185055,53.40481854013164 35.317271533898555,53.28353583307836 35.36780599496995,53.26332204884559 35.74555109204152,53.14709278820818 36.13087635828509,53.03086352734487 36.24078881127916,52.97527562038471 36.346911179687226,52.91968771319864 36.72339291523013,52.77313777579792 36.87120621408422,52.70238953019254 36.90531697543354,52.68217574543265 36.93690101365023,52.661961960973976 36.965958328734274,52.636694730701834 37.03796993594362,52.581106823063955 37.06829061255634,52.550786146601844 37.10745481994503,52.53057236236907 37.16809617332107,52.48509134711114 37.347493510467146,52.333487963821646 37.38665771778054,52.2728466101444 37.44224562511721,52.252632825911626 37.561001608736646,52.202098364463716 37.83767778359012,52.03533464313143 38.140884550395,51.84330369054807 38.488308970778554,51.656326184531196 38.79783254530208,51.45924178598377 39.097249227596265,51.24699704916764 39.397929271419116,51.02969886593563 39.68850242301263,50.80229379070018 39.99676263608279,50.55972837719604 40.31133965672098,50.35759053291045 40.3959848791417,50.31210951795372 41.21843323437952,49.40754266312662 41.574701185388435,49.59957361570998 41.938549305644656,49.771390783533455 42.340298271685604,49.907833828629535 42.71046319958517,50.06954410444958 42.75468085316383,50.08975788868235 43.11221216577672,50.26157505650582 43.17790696519213,50.302002625724384 43.3535142176769,50.46371290124321 43.38383489436492,50.51424736223931 43.434369355586924,50.534461146697986 43.49122062437696,50.539514592963265 44.39578747882755,50.458659455053244 44.46148227831826,50.44855256304981 44.868284690549174,50.44855256304981 45.18033498820534,50.52435425446865 45.42037367857685,50.64563696159723 45.65662228443766,50.711331760786734 45.84486315228441,50.711331760786734 46.15565008833661,50.62036973087328 46.19607765717866,50.61026283864394 46.456330132084155,50.534461146697986 46.69889554558831,50.54456803892733 46.77343387577969,50.54456803892733 47.22824402617527,50.584995607919986 47.58198525420216,50.61026283864394 48.451177986000665,50.65574385360067 49.137183295916486,50.630476622876714 49.45428703961202,49.77644422949752 50.56604518491467,47.06779711210981 51.02717214280299,45.57703050820692 51.69928047605407,44.10142424272333 51.99238035078022,43.454583140196206 53.12940572658093,40.604439531447134 53.44777283172982,40.31133965672098 53.51725771580654,39.361291787238365 53.96069761244411,37.32475300310174 54.344759517083716,36.33427756470176 53.97459458918415,35.31348144953846 53.43640257797182,33.86819586051699 53.22794792574169,32.872666975851736 56.11346565721814,34.5706248707573 55.94164848939467,34.15118884323971 55.70792660651589,33.36790469508938 55.325128063404954,32.34205513388671 55.486838338999085,31.472862402088204 55.54747969237513,31.10396083571731 55.67128912218453,30.942250560123178 57.52590384634365,29.567713217083597 57.85943128983656,29.360521926306834 58.046408796154644,29.294827127117333 58.738730913789105,29.360521926306834 58.82211277468115,29.355468480267465 58.82211277468115,29.25945300416404 58.73746755226043,29.133116851297295 58.61113139939369,29.06742205158068 58.296554378755495,28.971406575703163 58.0868363649967,28.81474974584719 57.85437784372189,28.541863655655025 57.81268691327586,28.430687841282893 57.78868304430648,28.14264141259611 57.72677832932648,28.026412151958702 57.66108352983577,27.657510585587808 57.57517494588638,27.369464157352837 57.532220653911686,27.030883267519357 57.50948014647098,26.904547114652612 57.465262492892315,26.56596622474383 57.375563824356924,26.13642330544871 57.33639961704354,25.97471302962867 57.23280397161751,25.590651124763163 57.12162815709477,24.979184145114026 57.03319285008805,24.337396488550958 57.02813940397338,23.826998430894008 57.007925619514694,23.51873821797445 57.004135535003996,22.892110899378885 57.14689538774342,22.41203351863586 57.3338728939109,22.058292290759578 57.431151731693596,20.805037654321467 57.34397978614024,20.274425812130534 56.89548644346329,18.909995361320295 56.34339745543562,17.50008389532742 55.902484281930676,17.32321328101277 55.73572056022188,17.24741158959393 55.69276626824718,17.181716789877317 55.64981197619719,16.974525499326457 55.793835190540584,16.686479070639674 56.22969491793085,15.943622491707913 56.498790923537015,15.554507140878338 56.65418439148781,15.251300374374662 56.6276537993858,14.462962780260266 56.60364993041642,13.821175123697202 56.537955130850406,13.406792542143673 56.53669176947234,13.245082266549543 56.68071498358983,12.906501377167874 56.99402864277466,12.699310086391112 57.57643830741505,12.163644797934904 57.99082088881797,11.617872617776472 58.115893680306655,11.314665850820981 57.944076512257276,10.511167918437879 57.90112222028259,10.33429730487625 58.08809972660067,10.091731891372099 58.083046280486,9.303394297408309 58.166428141302745,9.146737467627638 58.70588351404375,8.454415349842574 58.841063197686466,8.292705074474348 58.85622353603048,7.342657204539916 58.976242881178585,6.427983458236495 59.076048441943314,5.801356139640929 59.09373550341996,5.159568483077864 59.21501821017203,4.644116979381545 59.380518570352166,4.290375751505263 59.46263706979085,4.017489661539001 59.566232715066285,3.6485880951681056 59.647087852976306,3.2443124058439174 59.68625206028969,2.764235025100891 59.87196620500381,2.3801731200094753 60.036203203805876,1.9910577691799007 60.07536741111927,1.7030113407190244 60.160012633539985,1.4553924812508088 60.20044020260795,1.349270112842743 60.35583367048344,0.9955288849664614 60.68683439099431,0.5154515036963194 60.73357876755501,0.43459636601220714 60.97993426564516,0.005053446265274229 61.050682511250535,0 61.70636714462894,0.04548101518263262 62.489651292478065,0.23751196776599162 62.80549167464493,0.3486877819122161 63.11375188756448,0.46491704277552814 63.21355744832921,0.5609325188789521 63.45612286183336,0.7630703634657441 63.63173011439344,0.899513408335922 63.845238212662935,1.015742669199234 64.36826988560657,1.22798740616597 65.91462439662021,1.8495612782703552 66.78129040528609,2.23867662909993 67.81219341282933,2.7743419171043238 68.64095857548458,3.2089382828906245 69.16525360988156,3.471717480853454 69.31812035485032,3.577839849487426 69.69333872886456,3.7344966788162837 70.00412566491676,3.9265276310984336 70.32122940868759,4.143825814405746 70.61685600639576,4.340910212651962 70.92637958084399,4.558208395432159 71.22958634772418,4.75529279420549 71.5504801760057,4.927109961803054 71.88400761957392,5.078713345167846 71.96865284199464,5.129247806615752 72.20995489397012,5.392027004578582 72.39566903875954,5.654806202315505 72.41840954620025,5.685126879003524 72.45252030747427,5.745768232454863 72.57127629116901,5.872104385321609 72.69129563646771,5.968119861726241 73.05388039519528,6.139937029549712 73.21938075537541,6.215738720968551 73.42657204607687,6.337021428097136 73.76515293583505,6.513892041884673 73.84979815825577,6.544212718873901 73.8952791732125,6.5543196111032405 73.9963480955812,6.584640287339446 74.19469585550668,6.655388533246032 74.23386006297068,6.680655763969985 74.55980733736688,6.928274623212294 74.83522015054108,7.140519360254332 75.10431615614725,7.372977881453841 75.38351905398275,7.605436402502745 75.57934009092621,7.827788031774123 75.73726028200964,8.13099479865431 75.94571493423977,8.388720550427168 76.13648252506856,8.696980763346724 76.3285134775013,8.974920299804166 76.52433451436946,9.24780638977043 76.72394563597422,9.530799372417844 76.91218650374567,9.798632016420042 77.11811443291846,10.086678444880919 77.21665663207922,10.223121489977002 77.24318722418124,10.283762843428343 77.25708420099659,10.319136966381636 77.47817246851338,10.597076502839078 77.78516931997957,10.819428131809248 78.13133037883446,11.0114590841667 78.4560142918526,11.228757267172805 78.75164088941017,11.430895111458387 78.98662613381762,11.643139848500425 79.12559590189574,11.875598369474027Z"/></svg>