<svg xmlns="http://www.w3.org/2000/svg" width="256" height="256"><path d="M212.7909204562844,2.84838101700669 213.10526090139456,2.865941935678516 213.58116179887168,2.7992104446837085 214.0877943040114,2.644674359963421 214.65413393291794,2.486626091550637 215.0712057526168,2.4655529890293075 215.78593514463785,2.5322844800241153 216.2916896038937,2.5568697663426128 216.68856636705976,2.662235278792254 217.01432140939295,2.883502854507349 217.33919840584227,3.2733552501314027 217.43753955069758,3.5894517872709844 217.46739311252867,3.687792932073954 217.72729470964626,4.274327617617962 217.85724550815272,4.59042415444353 217.95383056118794,4.955691263906092 218.0837813596944,5.222617228618021 218.2778295115964,5.493055376813104 218.6027065079934,5.714322952999219 218.79851075182012,5.763493525165194 219.48163049013766,5.763493525165194 219.7090443876679,5.833737200114177 219.80650748653466,5.907493058755656 219.9364582851458,6.079590062514118 220.09801873740807,6.444857171819675 220.19460379033865,6.666124747691776 220.22709148997833,6.9084654262422145 220.33684723200435,7.0700258782951595 220.56952940515183,7.301830005663436 220.78904088920385,7.5020244789095365 220.95938180077587,7.765438259771962 220.99274754635178,7.856755037242274 221.01382064882077,8.004266754629903 221.0067962813311,8.172851574381855 221.02699133791623,8.28875363785665 221.089332599387,8.404655701279111 221.31147822124765,8.604850174839227 221.53098970529967,8.745337524789527 221.71625739778725,8.85772740451949 221.9076714118806,9.005239121645442 222.0376222104394,9.170311757704898 222.09206105858897,9.331872209967184 222.09118301260042,9.598798174836121 222.0499148535463,9.763870810581562 222.00250037299108,9.967577467781837 221.9673785355951,10.195869411352946 222.00776864866066,10.378502965927222 222.14474381465678,10.543575602143683 222.3642552987088,10.670014216748305 222.65225436578507,10.754306626728953 223.07020423142012,10.814013750495773 223.53030030199315,10.796452831719275 224.4153706056909,10.638404563254156 225.17049011082986,10.487380662017024 225.5541961849528,10.420649171074551 225.86326835455037,10.403088252245718 226.2197550045985,10.396063884756053 226.59116843566687,10.413624803584886 227.0161426687916,10.452258824725707 227.27692231179304,10.483868478376863 227.57897011390097,10.476844111044205 227.90121297248933,10.410112619578376 228.2173095094719,10.283674004973754 228.56677179213506,10.118601369071307 228.90394143163897,9.93947999782318 229.25340371419745,9.72874897323791 229.46676887674835,9.591773807346456 229.76179231126193,9.451286457239148 230.13320574233026,9.374018415114515 230.39310733944788,9.36699404762485 230.66178939587522,9.384554966244341 230.91466662550314,9.433725538567323 231.1069586855327,9.48289611104731 231.33261649119052,9.588261623339946 231.49066475970798,9.676066216960754 231.78568819422156,9.844651036869713 231.94988278429247,9.953528732802509 232.15446748742895,10.04484551027282 232.3748570174695,10.108064817732139 232.66197803855724,10.230991248644262 232.88851389009892,10.371478598594564 233.27397605609426,10.596258358316168 233.55319466386075,10.75079444287945 233.66734063556783,10.873720874000917 233.72792580511384,11.000159488762545 233.69192592178163,11.432158089376923 233.67348695706895,11.635864746577198 233.70860879451726,11.741230258869832 233.87455947646058,11.871181057480964 234.25036313715765,12.067863347191576 234.50324036678558,12.261033453105018 234.9141658649833,12.626300562724587 235.2451891828814,12.784348831346714 235.44713974820925,12.875665608450678 235.787821571458,12.97049456956115 235.98011363148757,12.942397099759498 236.10304006260904,12.889714343587013 236.1574789106016,12.819470668638031 236.16450327809127,12.710592972705236 236.1434301756746,12.570105622911942 236.09250351137453,12.285618739423516 235.97747949367894,12.02220495856109 235.92743087536743,11.871181057480964 235.92040650787777,11.776352096527498 236.06528408729974,11.656937849255534 236.33308809784322,11.593718541796216 236.54996544413896,11.537523601826564 236.7308429069455,11.491865213143743 236.88976922145147,11.435670273383433 237.01972001995796,11.432158089376923 237.11367093518456,11.453231191845916 237.29367035205487,11.551572336648887 237.61942539438806,11.772839912835002 238.12430180770772,12.110009552181898 238.5571784542583,12.42961827285697 238.9909331467451,12.682495502537234 239.27278589226788,12.85459250613869 239.48922421554238,12.991567672239487 239.5717605335999,13.033713877020467 239.66658949470954,13.054786979698804 239.75219897343752,13.051274795692294 239.8518571871971,13.016152958557985 240.01649080023614,12.942397099759498 240.49458681250144,12.717617340037894 240.7707322594389,12.506886315295617 241.0552191427703,12.257521269621863 241.22380396252225,12.110009552181898 241.3269743600267,12.001131856249103 241.38492539181644,11.934400364940283 241.48590067458503,11.899278527439623 241.55877848723796,11.927375997450618 241.69707072219074,11.98357093742027 241.8652165189746,12.064351163551414 242.0100940983966,12.141619205833054 242.03950863725956,12.159180124661887 242.0763865665795,12.23996035079303 242.05575248713174,12.32776494441384 242.04960616552594,12.401520803212325 242.05575248713174,12.471764478004301 242.07902070438894,12.556056887775606 242.11765472563442,12.626300562724587 242.18394719381814,12.707080788698725 242.29897121140823,12.801909749966205 242.40653183864688,12.868641240961013 242.57160447465318,12.910787446108342 242.68750653818114,12.93186054842033 242.89296928725383,12.942397099759498 243.0014079603747,12.93186054842033 243.06770042855922,12.90376307861868 243.15330990739184,12.85459250613869 243.24287059283273,12.801909749966205 243.30916306101645,12.791373198836379 243.37150432248723,12.801909749966205 243.48038201857702,12.847568138806032 243.67750333125574,12.93186054842033 243.81623458922897,12.991567672239487 243.88911240193423,13.012640774551475 244.02081929236545,13.040738244510132 244.14594083822277,13.051274795692294 244.290379394729,13.072347898318295 244.43964720388436,13.103957552178793 244.74257305187615,13.230396166940421 244.89096281514765,13.307664209065054 245.2101325129593,13.511370866422338 245.33920526552956,13.637809481393308 245.44676589276736,13.750199361175607 245.5398387619531,13.820443035967584 245.63466772316906,13.911759813228553 245.8647157584024,14.30512439270211 246.03417862403825,14.62824529738369 246.16237333072462,14.796830116926301 246.25720229183509,14.863561608078117 246.4275432035126,14.912732180558104 246.5939329083709,14.919756548047769 246.76163968218665,14.89868344573578 246.96051708673778,14.846000689563297 247.2792477615813,14.744147360806151 247.3389548852958,14.719562074487655 247.67875866260832,14.56151380607487 247.95578215542963,14.48775794743339 248.32587851754135,14.470197028761564 248.56734114999855,14.494782315080062 248.98792515344223,14.61419656219502 249.17187577713017,14.737122993316488 249.2860217487849,15.00404895797608 249.27153399083826,15.193706880249362 249.1314856640646,15.562486173561428 248.97782762522738,15.832924321913518 248.6740237313002,16.40189808841935 248.61782879133054,16.60560474567196 248.61958488325527,16.71799462545426 248.70695045390798,16.935750017633865 248.93173021352493,17.24131000332961 249.15080267460883,17.445016660739228 249.3975335826833,17.645211134142333 249.52572828936968,17.704918257595143 249.77245919754884,17.76813756505446 250.19479929276025,17.789210667732796 250.3827011231603,17.817308137534447 250.6799196725152,17.91916146629159 251.14308890391732,18.04911226458871 251.29806401171038,18.059648816084884 251.4367952695789,18.042087897256053 251.55006319534976,18.013990427402064 251.6431360645355,17.950771119785742 251.72040410692262,17.806771586352287 251.8191842747452,17.455553211869052 251.88811088073754,17.30452931094593 252.07776880295847,17.185115063359955 252.37059712268388,17.14296885873598 252.6568400978877,17.188627247366465 252.92025387875015,17.31506586197109 253.09322892823548,17.430967925550554 253.33249644579985,17.75057664653964 253.42952052175085,17.957795487275405 253.537081149041,18.273892024467322 253.6604466030259,18.57593982631356 253.85756791565228,18.870963260984148 254.04151853934022,19.162474512014576 254.2728836434795,19.35915680156818 254.6346385693011,19.496131967668976 255.16497831471844,19.671741154910592 255.29580715921344,19.69632644122909 255.58819645597075,19.847350342152208 255.7677568499253,20.044032631705814 255.80331771028938,20.058081366685144 255.92536609547466,20.328519515037232 256,20.584908928409995 255.98990247173361,20.893981098112246 255.8801467297076,21.210077634937814 255.7348301273175,21.455930497128413 255.51005036759588,21.743929564152328 255.253221931255,22.007343345014753 254.97049113984835,22.358561719497988 254.78654051616041,22.604414581688587 254.58019972115153,22.938072037709336 254.42741972825132,23.32792443333339 254.40546857984612,23.64753315416547 254.38790766112194,23.988214977152527 254.33610295088567,24.32538461681344 254.19912778488955,24.652017705135183 254.04239658522408,24.982162976940078 253.8685434898549,25.291235146642332 253.62708085739766,25.71620937971471 253.4145937408353,26.102549591541596 253.22405777267815,26.429182679863338 253.02869255187184,26.850644729295553 252.91015635053608,27.14918034750163 252.73059595652919,27.493374354652207 252.51415763325392,27.95698260891774 252.26918281705105,28.339810637209137 252.02728116162734,28.638346255519885 251.99040323230497,28.684004644202705 251.68089203984476,29.021174283497267 251.35864918120407,29.34078300448635 251.07065011418015,29.62878207135326 250.80548024139298,29.86058619872154 250.54118841459433,30.06078067196764 250.30279894296535,30.296096983028413 250.1579213634395,30.366340657820388 250.11226297480903,30.394438127936052 250.07055579278682,30.426047781430203 250.00250723278302,30.499803640071683 249.83655655078735,30.668388459823632 249.6728009837369,30.84399764706525 249.64426449081012,30.88614385221258 249.51431369219898,31.082826141766184 249.49719179649526,31.12848453039667 249.3975335826833,31.33570337144645 249.33211916048813,31.549946580038227 249.2328999696443,31.56750749850071 249.18021721347182,31.623702438627372 249.1442173300873,31.648287724631857 249.0985589414568,31.672873010793346 248.84436464287222,31.75365323692449 248.73285280902613,31.778238523242987 248.48260971715368,31.8414578305453 248.2108544998981,31.90818932185412 247.9623674999512,31.98545736413576 247.9298798003115,31.999506099115088 247.90134330738474,32.01355483430376 247.87675802122325,32.03111575292325 247.85436784984995,32.048676671595075 247.80475825440183,32.12243253023656 247.25422345245173,32.291017350145516 246.7857859454847,32.33667573861899 246.52325021055847,32.41394378121465 246.201885397854,32.51579710986712 245.80325254281553,32.67735756207707 245.4744243397056,32.87052766783351 245.13549860832927,33.09530742755511 244.84179224266765,33.36223339226704 244.46818369681114,33.60808625445764 244.04759969336828,33.973353363763195 243.83642964570942,34.1735478371663 243.65686925175484,34.45803472049773 243.6256986210718,34.74954597152815 243.70033252559716,35.0551059573809 243.78857614218606,35.29393445192483 243.78857614218606,35.32554410573299 243.86057590895513,35.462519271624444 243.87506366690258,35.53627513010892 243.8228199337505,35.761054889830525 243.79955171638866,35.79617672748819 243.62657666695569,35.964761547240144 243.41847978007354,36.1017367132886 243.1818464002663,36.26680934924339 242.97945681197032,36.44944290397467 242.84423773779426,36.63910082603861 242.76126239682262,36.835783115749216 242.7300917660872,37.064075059320324 242.71779912303265,37.30992792135392 242.6563359074981,37.55226859990436 242.60189705940084,37.75948744079713 242.55404355592984,37.98075501651223 242.4952144782039,38.18797385756201 242.4333122397004,38.40221706594444 242.33409304890972,38.63402119315571 242.21423977856497,38.820166931736495 242.053996395207,39.00631267031728 241.86258238116596,39.192458408531714 241.72429014616085,39.31187265580368 241.67204641300881,39.34348230976885 241.71902187059595,39.378604147112505 241.74755836347038,39.40670161707116 241.8559970365929,39.603383906834104 241.86433847298605,39.83167585003886 241.8458995083257,39.898407341347685 241.750192501279,40.0986018149078 241.72165600835223,40.31635720708741 241.7826802009187,40.52006386418301 241.78970456840835,40.58679535549183 241.78707043059973,40.61840500914299 241.76511928219372,40.68513650008546 241.70892434232957,40.78347764504544 241.52014446599247,40.96259901592721 241.2936086144508,41.11362291721668 241.0938531640158,41.2892321044583 240.9151708160498,41.46132910769341 240.4888795139161,41.95303483207461 240.39053836905995,42.149717121837554 240.38570911641165,42.36044814637049 240.44585526309422,42.56766698742026 240.4585869291169,42.788934563501705 240.43926991857268,42.845129503314354 240.343562911526,43.04532397687447 240.20439263063702,43.25254281776724 240.05819798225835,43.44571292362835 239.9677592507766,43.64941958088096 239.956783676574,43.88122370809223 239.96512511296797,43.91634554554055 239.9778567790953,43.954979566733705 240.01561275429992,44.02522324152568 240.1907829186781,44.190295877428134 240.44585526309422,44.32375885983643 240.729025077469,44.37995379964908 241.0218533971944,44.397514718320906 241.32302315331376,44.422100004639404 241.59916860030435,44.49936804707805 241.67555859675366,44.53800206842821 241.70980238821343,44.56258735438036 241.73833888124486,44.58717264069886 241.87443600125243,44.801415849290635 241.94160651537237,45.015659057673076 241.9969234094058,45.22990226605551 242.01711846588626,45.26151191970666 242.21072759482013,45.444145474280944 242.45350729618167,45.54951098688759 242.736238087693,45.6127302941899 243.00623721302466,45.66190086666989 243.27579731544054,45.71809580663954 243.57345488781507,45.795363848764175 243.87506366690258,45.886680626391495 244.04540457852775,45.87614407505232 244.38169617209462,46.086875099742265 244.4102326650214,46.10794820226359 244.4330618593628,46.12902130457558 244.45150082402319,46.15009440725392 244.46379346718243,46.174679693363075 244.45237887001173,46.413508188116346 244.4304277216057,46.441605657918 244.40759852721277,46.466190944079486 244.39354979228577,46.48726404654848 244.35403772515642,46.57155645652913 244.25569658024878,46.782287481219065 244.16262371106305,46.993018505804336 244.04847773930365,47.21428608167644 243.986575500801,47.42501710657572 243.98481940892776,47.55848008867001 244.05769722168617,47.79730858337094 244.15516032055294,48.015063975602885 244.23242836299158,48.23633155147498 244.2517453736405,48.450574760014426 244.2166235360875,48.562964639953734 244.17886756083055,48.619159579609374 244.15428227461675,48.64725704977737 244.05111187711228,48.72101290836652 243.80877119877118,48.86852462549247 243.55765006096334,48.99145105677094 243.483016156438,49.009011975547445 243.35130926600678,49.0195485265726 243.05013950983508,49.01252415908293 242.8973595169872,49.0195485265726 242.70243331909666,49.04413381273409 242.5105802820352,49.12491403902224 242.4341902855851,49.177596795299394 242.30160534927083,49.30754759359651 242.17648380336036,49.50422988346413 241.88672864435935,49.908131014119846 241.78970456840835,50.111837671163116 241.66194888469008,50.33310524740157 241.58907107198482,50.53681190428783 241.52672981051404,50.751055112827274 241.425315504882,50.96178613756955 241.3045841886534,51.161980611129664 241.15838954027475,51.38324818684476 241.1482920120607,51.41837002450242 241.09736534776061,51.541296455414546 241.04599966049244,51.860905176089624 241.05873132651513,52.07514838478607 241.0578532806836,52.16295297840688 241.0653166710367,52.19807481575053 241.1482920120607,52.40178147295081 241.2172186180007,52.62656123251541 241.25497459330998,52.854853176086515 241.32477924523852,53.083145119291274 241.41126676990268,53.31494924650254 241.4143399306794,53.353583267643366 241.39502292008282,53.458948780093 241.36341326637933,53.525680271401825 241.34146211797332,53.553777741203476 241.28614522399303,53.60294831368347 241.19614551558402,53.68021635596511 241.1434627593592,53.71533819362277 240.1907829186781,53.760996582096254 239.49185835340495,53.85582554320673 238.62742212920728,53.964703239505866 238.25513065225505,54.16138552905947 238.1102530727284,54.400214023603404 237.85035147561078,55.10967514005953 237.7247909067854,56.10713532369659 237.78801021414003,57.1397173448343 237.54479148986272,58.66751727383637 237.65805941563355,59.87219629820919 238.10059456748243,60.49385282109685 237.9047903236557,61.027704750311365 237.7107421717537,61.43863024824741 237.5307427548834,61.96545780997226 237.55532804109723,62.629260537797904 237.5807913731949,62.88564995117066 237.59484010817425,64.09735334319015 237.348987246036,65.99042038155011 237.3033288574055,66.1063224452866 237.28928012242616,66.17305393628139 237.00303714722233,66.74202770315358 236.91874473734634,66.97031964635833 236.84498887865254,67.18456285505479 236.7405014122961,67.32856238848824 236.71064785046502,67.38475732830089 236.6965991154857,67.43744008463038 236.69396497762474,67.49714720808319 236.71679417196614,67.7254391518113 236.77211106594726,67.82729248025443 236.91172036985668,68.0345113211472 236.99162254999928,68.23470579470732 237.0056712849786,68.45948555442892 236.97581772314754,68.70182623261302 236.97581772314754,69.15489793590572 236.87396439454741,69.46397010539864 236.75455014727544,70.53518614767717 236.62547739460052,71.11118428167266 236.6087945218649,71.66610931325151 236.55435567376767,72.21049779380519 236.34713683282254,73.1271777511541 236.27513706610583,73.34493314354305 236.21016166682642,73.53810324924714 238.18313088543366,77.85106488784892 236.84323278688478,77.27506675395809 231.9367120953017,79.23837746711003 231.79271256171123,79.28403585594985 231.7365176217939,79.34023079591951 231.7347615299738,79.36832826572116 231.5670547561581,79.42803538954031 231.51437199993325,79.45262067564947 231.45290878445104,79.48774251299312 231.37476269607617,79.5614983717916 231.31681166428643,79.61418112775475 231.17983649834264,79.72657100769406 231.11398305312704,79.77925376402355 231.0639344346585,79.83544870399321 231.02969064319873,79.88110709262368 230.98930053013316,79.94783858356615 230.94715432514283,80.02510662605714 230.91203248774684,80.10939903582845 230.89008133934163,80.17613052713726 230.86286191526685,80.26744730455525 230.83739858311682,80.35876408171154 230.8215937562651,80.42549557302036 230.79437433229495,80.53788545295967 230.7373013463891,80.67486061885113 230.6942770955149,80.79427486628009 230.63544801778897,80.89964037841573 230.5616921591475,81.02959117702686 230.48178997895255,81.18763944543964 230.42296090122662,81.26841967157078 230.3527172263823,81.35622426519159 230.2596443570919,81.45807759379173 230.18764459037519,81.5318334524332 230.0972058588934,81.62315023006053 230.04101091902842,81.67232080248817 229.90403575292763,81.79875941730214 229.82237748091262,81.86197872476146 229.72403633600499,81.94275895089261 229.6195488695962,82.03758791200308 229.55808565411397,82.10080721930538 229.48872002515355,82.1886118129262 229.43340313117244,82.2729042226975 229.3912569261821,82.34314789764649 229.3368180781372,82.43797685875695 229.30081819475268,82.50822053375828 229.26218417361184,82.58900075988942 229.1972087742801,82.70139063961938 229.15681866121454,82.77514649810385 229.1094041806593,82.84890235674533 229.04179464357128,82.92968258303348 228.9776972902281,82.99290189033579 228.88813660473488,83.07016993293145 228.80735637860374,83.12636487258709 228.7028689122473,83.18958418004641 228.64228374259662,83.23173038503673 228.5483328274747,83.29846187634556 228.39467478863827,83.40733957227835 228.20940709604602,83.54080255452963 228.1567243399259,83.57943657582747 228.06716365438032,83.64265588333912 227.99955411734464,83.69533863930226 227.93721285587387,83.74802139557941 227.85643262969037,83.80772851924156 227.65799424810734,83.9552402366292 227.47536069337608,84.06763011625449 227.37087322701964,84.13787379141282 226.41643729441378,84.4328972259264 223.35381306886765,85.795624518869 220.69684606590198,88.82663909044997 220.23850608714903,89.34995446869166 215.44700941331385,94.11247562652731 213.88320960087492,95.05725305404421 212.98409056219785,95.25042315990532 211.5344367215183,95.40495924452094 208.8590307539446,95.83695784529232 206.46020925617177,97.16807548442677 203.58285272327024,98.20065750556448 201.71173683315845,98.99441103179193 199.05916005987385,99.24728826168153 199.12325741326936,99.40533653009432 199.1206232754084,99.46855583739662 199.11359890791874,99.49665330751229 199.01613580899965,99.71089651594706 198.99594075246685,99.73899398574872 198.96872132844442,99.7635792719102 198.74920984439237,99.89001788667183 198.47438146635926,100.0094321341008 198.2162359611664,100.15343166753426 197.83428597886356,100.32552867129272 195.4161474705465,102.25722973095051 194.81117382049914,102.80864257878451 194.2000538488983,103.36005542682786 193.4185929656731,104.17839423926912 192.7258147220049,104.85624570191709 191.92854901192797,105.28473211899598 191.18308801208732,105.74131600561485 190.77128446805807,106.11360748256708 190.31557862711372,106.6298984931621 189.85021428092344,107.03731180761498 189.4392887828304,107.49038351054135 189.0099243199723,108.0382841747352 188.88260765927447,108.44920967303759 188.76231536601398,108.74072092370166 188.78426651441916,108.80745241485347 188.80446157089963,108.8917448249388 188.81763225999507,108.9865737861016 188.81763225999507,109.0673540121804 188.81675421405888,109.17623170816555 188.8149981221341,109.25701193445369 188.8123639843255,109.39047491654797 188.80621766282437,109.4572064078568 188.78865674404787,109.55905973645693 188.75792513633291,109.69954708604088 188.71753502321502,109.91379029458034 188.69031559919256,110.13857005414494 188.628852383658,110.52491026628583 188.6060231893166,110.7040316371676 188.61216951092237,110.77076312816241 188.6481693943069,110.91476266175287 188.6736327264046,110.9814941530617 188.69909605855466,111.07983529796934 188.6894375533087,111.15710334030331 188.6666083589673,111.22032264776263 188.59197445433728,111.30812724138345 188.47695043674634,111.38188309981558 188.3469996381352,111.43456585614507 188.2381219420454,111.49778516344738 188.1713904508936,111.5610044707497 188.1380247053177,111.61368722718386 188.0835858572728,111.72256492316899 188.0651468926124,111.77524767928914 188.04758597388826,111.83495480310829 187.99753735557672,111.95788123417742 187.9448545993519,112.02110054147974 187.85705000573108,112.11241731879304 187.8131477089207,112.16158789127303 187.77890391740857,112.21778283124267 187.7560747231195,112.30909960866066 187.74817230969364,112.38636765099463 187.73587966653437,112.46714787707344 187.71568461005393,112.56548902187642 187.6840749562981,112.67085453416904 187.65334334858315,112.75514694425436 187.6182215110825,112.86051245638998 187.54709979030198,113.00451198998046 187.43646600228743,113.14148715592424 187.30388106592,113.23982830104123 187.13002797060315,113.3346572621517 186.89207752189074,113.447047141934 186.75246821798132,113.5067542653868 186.5663224795052,113.59104667552445 186.45744478346774,113.63670506399794 186.24495766690538,113.73153402510842 186.11500686829424,113.79475333256772 185.92798308388194,113.88255792618854 185.717252059192,113.98441125494568 185.4187164409336,114.10382550206064 185.1640831193809,114.12841078837914 184.95949841624443,114.12138642073246 184.87784014417707,114.1424595234108 184.7830111830666,114.19865446338045 184.74086497818095,114.25484940335011 184.72242601346824,114.29348342449093 184.67501153296533,114.37075146661556 184.61003613368592,114.45504387654387 184.50467062128862,114.54987283786369 184.43442694644432,114.60255559382684 184.3378418934091,114.66577490128614 184.22457396763826,114.74304294372479 184.12359868502665,114.82733535370544 184.07355006661047,114.88001810966858 184.0120868510759,114.98538362196122 183.98662351892585,115.04509074593739 183.96730650832927,115.09074913456787 183.92428225745508,115.15396844187018 183.71706341656233,115.2804070566318 183.59764916918567,115.34362636393412 183.47472273811655,115.41035785524294 183.3544304449084,115.47708934649943 183.13052873112298,115.60001577730688 183.0128705756711,115.66674726877271 182.89170023647438,115.72294220858535 182.82848092911973,115.751039678387 182.61335967469643,116.00040472442711 182.32360451580007,116.89249939545752 182.6598961093678,117.57035085826249 182.88818805272956,118.05854439868952 182.96545609511585,118.56781104174254 182.97423655453028,118.62400598171219 183.08838252623733,119.0489802148369 183.0014559785004,119.30888181200683 182.26301934614938,119.61795398170908 181.7642892543832,119.74790478011087 181.10663284816334,119.97268453967547 180.74312183062554,120.3695613029462 180.44809839600728,120.67160910515878 179.85805152698012,120.98770564198435 179.1784439722504,121.41970424259873 178.34342228702118,122.96857727412213 178.24420309617733,123.63238000194778 178.0027404637201,124.61930363408865 177.8648872516831,124.9459367224104 178.10459379232023,125.3076916482328 178.51288515260467,125.61676381756871 178.92644478855868,125.88017759843113 179.29171189802125,126.29110309689052 180.3638059861313,127.04271041812764 181.3349247916298,128.09987772526983 182.52379898925554,128.84446067922664 182.77316403513862,129.04465515278673 182.97862678421131,129.24133744234035 182.64057909871886,130.2423098098269 182.54399404573599,130.50221140668282 182.53872577017106,130.63567438909112 182.5343355404377,130.74806426903044 182.54662818359694,130.86045414865572 182.54575013766072,130.9342100072972 182.54048186199114,130.96581966094834 182.52467703519173,131.000941498606 182.47023818719916,131.14845321567964 182.44828703879398,131.2081603396558 182.37101899635533,131.42240354803823 182.31043382670464,131.45752538548655 182.06721510242733,131.59098836779017 181.8257524699701,131.73147571737414 181.80204522964016,131.74552445235346 181.6659481095279,131.7911828411933 181.63521650181295,131.79820720868295 181.60272880217326,131.80171939248012 181.47629018730694,131.7876706573438 181.42185133926205,131.77362192252147 181.3955099611758,131.76308537102528 181.3639003074723,131.75606100353562 181.33141260788494,131.75254881984313 181.29892490824525,131.75254881984313 181.26643720860554,131.75957318754214 181.24097387650787,131.77010973851495 180.98985273864767,131.88601180230376 180.78965826524455,132.0124504170654 180.6105368942581,132.19157178794717 180.47180563633722,132.39527844519978 179.99502669292391,132.44796120131994 179.46117476370938,132.49010740631027 178.84829870034082,132.5568388976191 178.41190986999308,132.51469269247175 177.6155222058,131.9878651307469 177.29240130132777,131.8754752509646 178.00361850960397,131.22220907447812 178.37766607842863,130.6005525516428 178.35922711376824,130.3266022194412 178.1748374672169,129.905140170166 178.04400862266954,129.6768482267519 177.7112292128467,129.45206846723963 177.64274162982244,129.41694662958196 177.46186416696358,129.17460595134554 177.23269417761327,128.94982619167627 176.93942683491977,128.73207079944433 176.59698891985096,128.56348597953536 175.2676273723796,128.09636554157734 172.12334487487078,124.93540017122824 172.0223695921545,124.8335468424711 171.86344327775316,124.8370590264776 171.5851027159752,124.78788845384061 171.30412801638863,124.72818133017846 170.98715343336517,124.63335236906798 170.72286160656654,124.50691375430635 170.47261851479956,124.34886548573657 170.20481450420377,124.19784158481345 170.08101002719843,124.15569537982313 170.01603462797138,124.14515882864096 169.68237717221228,124.1205735425318 169.38471959978543,124.11706135852529 169.07476938430398,124.13111009350463 168.80959951156913,124.17325629849495 168.5189663067366,124.27159744361194 168.22482091805455,124.35237766974308 167.97721196404385,124.43667007935737 167.7287249641493,124.56310869411901 167.50745738817253,124.68954730919465 167.46970141296794,124.71764477904863 167.40999428925343,124.73871788136061 167.2282387805107,124.81598592379926 167.02189798544947,124.9740341925784 166.87789845191134,125.1672042982825 166.82784983354748,125.22339923840916 166.6566308759869,125.31822819957196 166.41955847326307,125.43413026283743 166.3633635332934,125.48681301927158 166.3115588230571,125.54652014277673 166.17809584080584,125.72915369750801 166.12716917650576,125.78183645362816 165.96560872424348,125.89422633356746 165.71360954055174,126.01012839719927 165.45370794343415,126.09442080712758 165.17975761133724,126.19978631926321 164.93039256545416,126.31920056653517 164.7512711944677,126.48427320259462 164.55810108855425,126.62476055254493 164.4641501732753,126.86007686339636 164.43517465738046,127.02163731550164 164.3324432828441,127.41851407892938 164.06551731823686,127.69948877830662 163.9057129578993,127.80134210690676 163.73010377065768,127.88563451688741 163.04171575661823,128.159584849089 162.63605853414242,128.25792599368262 162.20669407128432,128.2473894427098 160.89928367232284,127.86104923056891 160.70786965817712,127.74163498329693 160.50240690910445,127.59763544970647 160.309236803191,127.45012373242352 160.27587105756274,127.43256281396104 160.20211519892126,127.40797752764254 160.1617250858557,127.39744097630337 160.12221301872634,127.39744097630337 160.08094485972455,127.40095316015287 159.8034823438828,127.46066028360568 159.75255567958274,127.47822120243451 159.6147024676504,127.54495269374334 159.49528822027378,127.62573291966514 159.30914248179766,127.70300096215612 159.0097288175507,127.74163498329693 158.73402239358137,127.72056188098495 158.0921708142656,127.71704969697844 157.9253420863337,127.73109843195778 157.66719658108855,127.82241520958509 157.4915873938469,127.92075635433572 157.4011486624698,128.04017060181704 157.19305177558851,128.20875542151666 156.96212569436577,128.37382805747143 156.69871191350336,128.50729103956573 156.45373709730129,128.61265655217235 156.2974449206039,128.65480275716268 156.19734768392854,128.668851491985 155.87422677935163,128.66533930813551 155.61344713629782,128.6056321846827 155.52827668053797,128.57402253103155 155.44925254622692,128.55997379599987 155.41325266284238,128.5529494285102 155.3781308254464,128.55646161220272 155.30086278306007,128.57402253103155 155.1726680763737,128.63724183833386 154.94964440857686,128.8023144742363 154.75208407293002,128.9603627426491 154.71345005168453,128.97089929398825 154.3710121365634,129.53284869337077 154.2726709917604,130.2423098098269 154.2963782319857,131.55235434664937 152.92574852556487,133.32249495388785 151.96165408766075,133.71937171700156 150.93434034224495,134.010882968032 150.85092597830518,134.031956070344 147.49415636423402,134.86083143407208 146.76713432900138,134.91000200655208 146.1849898734001,134.89595327172975 146.02694160483028,134.85380706658242 145.49045553775483,134.71683190048162 144.4991416757759,134.53419834575035 143.6272420611736,134.4780034057807 142.73251325212522,134.50258869209918 142.03885696257316,134.5236617947252 141.3706640050665,134.66063696051197 140.95534827724006,134.77302684045128 140.282765090157,134.98375786535055 139.26335375816709,135.14180613376334 138.32999092803024,135.83370633139063 138.34403966300957,136.1287297659042 138.34579575482962,136.19194907352056 138.2878447230399,136.265704932005 138.17106461352424,136.3605338931155 137.9269678433107,136.59936238765943 137.57223728508265,136.8311665148707 137.36853062783004,136.99272696713297 137.1577996031401,137.15077523570278 136.9409222568967,137.29828695314274 136.52121629938924,137.56872510149483 136.364046076808,137.73379773724028 136.212144129844,137.90940692448189 136.06024218288,138.07799174423383 135.9065841440436,138.25360093147546 135.73097495680196,138.41164920004525 135.54395117238965,138.5837462038037 135.50882933499366,138.63642895976685 135.4166345116918,138.83311124963447 135.40609796045732,138.85769653563895 135.37185416889287,139.03330572288056 135.33761037738074,139.24403674762286 135.26912279435652,139.4617921400118 135.17692797105465,139.66901098090457 135.05400153998553,139.8586689029685 134.90912396056353,140.0342780902101 134.73175868139717,140.15720452148858 134.4736131762043,140.3047162385622 134.24707732466263,140.41710611834452 133.996834232791,140.5294959982838 133.75098137065274,140.65593461304545 133.4822993142254,140.77183667683425 133.3207388619631,140.86315345393822 133.0845445050708,141.00715298752868 132.92825232842577,141.1125184999783 132.6270825723064,141.30568860604876 132.37596143455087,141.4532003231224 132.1186939752419,141.57261457039434 131.86318260780536,141.68149226669348 131.8254266325484,141.70256536900547 131.61118342411362,141.83602835125677 131.44962297185134,141.94841823103908 131.41537918039157,141.96949133366508 131.28894056552525,142.0046131710087 131.0650388517922,141.99407661998356 130.78669829001424,141.9905644361864 130.7401618553952,141.9870522524939 130.64445484834852,141.96949133366508 130.59704036779328,141.95544259852875 130.5531380709829,141.9378816798569 130.43635796146722,141.86763800490792 130.22299279896865,141.72012628783432 130.0113837283425,141.58315112173352 129.97538384495797,141.56207801942153 129.93850591563722,141.54802928438986 129.77518937155486,141.50588307945188 129.64611661887994,141.50237089544535 129.48192202880904,141.52344399807137 129.22114238575523,141.607736408052 129.1833864105506,141.62529732672385 129.10524032217575,141.63934606170318 128.83568021981222,141.6533947965255 128.7935340148219,141.6533947965255 127.99890244255357,141.68851663418315 127.53880637198054,141.53749273310302 127.11822236853686,141.30217642204227 126.29373723443747,140.8385681677767 125.7756901320747,140.0623755603258 125.68876358444244,139.93242476176698 124.64740110404732,139.5250114473141 124.11793940451383,139.28267076876367 123.28467381105237,138.9174036594581 122.70516349315503,138.84715998466612 121.962336631123,138.8260868821448 119.9761967234203,138.28169840159111 118.44664070254582,137.96560186445154 117.76264291823972,137.71974900241796 116.79854848033558,137.3263844229444 115.85903932859293,136.79955686121954 115.11445637463615,136.74336192124989 114.65787248780794,136.97165386482098 114.24167871409765,137.23155546183392 114.08099630777156,137.4774083238675 114.04324033246228,137.7478464723766 113.93787482016964,138.0639430094115 113.736802300778,138.28872276913313 112.64802533982764,138.97359859942776 112.19495363674426,139.13164686768354 111.74627216339427,139.21945146130435 111.40822447790183,139.13515905169004 111.05612805748238,138.93496457828695 110.0340825877885,138.86120871948845 109.48266973990216,138.90686710811894 108.6906723053378,139.24403674762286 107.95838199454026,139.79896177946335 107.38940822792975,140.3293015247237 107.04170203719136,140.74022702297376 106.54999631286249,141.49885871175286 106.44199666276123,141.75173594148546 106.35770425288526,141.8746623725546 105.06434258879841,142.1240274182807 104.67009996344098,141.99407661998356 104.38473503417335,141.7657846763078 104.1037603346391,141.61124859169217 103.84298069153296,141.1230550513175 103.71654207677133,140.13613141881027 103.5558596704976,139.50393834479277 103.5418109354136,139.40559720004214 103.36356761036335,139.24403674762286 103.11683670239356,139.1035493980389 102.97020303099447,139.02979353924042 102.94122751515194,139.0052082530789 102.91839832075819,138.98062296676042 102.89908131010927,138.94901331310928 102.88415452919374,138.9174036594581 102.87537406993633,138.88228182180043 102.86220338078853,138.74530665601367 102.85605705928741,138.71018481856532 102.84464246206437,138.67857516475718 102.71381361762171,138.46433195637474 102.57859454344566,138.26413748297162 102.4345950098552,138.09204047921315 102.31079053290219,137.89887037329973 102.19840065306755,137.70921245107877 102.05703525728572,137.53360326383716 101.90513331037405,137.33340879059105 101.85332860013779,137.23506764568342 101.84454814072336,137.19994580802575 101.84103595697853,137.1648239708391 101.85859687570269,136.95760512978933 101.77342641994285,136.74687410509938 101.86737733506477,136.51155779403862 101.75762159303876,136.27975366714136 101.58464654360577,136.10765666359225 101.50386631747463,136.05497390726273 101.23694035286736,135.92151092501146 101.00425817977222,135.7810235752705 100.8172343953599,135.58785346920004 100.63284474875621,135.3946833632866 100.44933314814105,135.21907417604498 100.27987028240055,135.03644062131372 100.12533419762794,134.86083143407208 99.98572489377085,134.68522224683048 99.88474961110693,134.4990765084067 99.88738374891554,134.46746685459854 99.89704225426617,134.4323450173072 100.00591995035597,134.2918576673569 100.02260282309159,134.26376019755526 100.0348954661985,134.23566272754428 100.03928569593188,134.2075652575856 100.03840764994334,134.17595560393445 100.03313937432608,134.1443459502833 99.93831041321562,133.95117584405585 99.81362789027406,133.8106884944719 99.79255478780507,133.77907884082074 99.68455513770381,133.57888436741763 99.49665330730295,133.39625081268633 99.46416560766325,133.3786898938575 99.16562998945717,133.2873731163872 98.9908988480471,133.24171472775672 98.95226482690627,133.2241538089279 98.91626494352174,133.20659289041305 98.72924115910942,133.0415202541966 98.57733921209308,132.8202526784815 98.46494933225844,132.62005820492138 98.47285174573666,132.45147338516944 98.44914450540671,132.42688809885095 98.31216933941057,132.24776672807383 98.16816980582011,132.04406007071654 98.03382877763262,131.82981686233413 97.92231694368185,131.61206147010216 97.80202465042134,131.4083548130589 97.7712930427064,131.37674515940776 97.73880534311904,131.34864768923975 97.70368350556603,131.32406240292124 97.45870868936399,131.22923344181078 97.19178272475672,131.14845321567964 97.02583204281339,131.06064862205884 96.83617412059245,130.87450288363505 96.66056493335084,130.70591806409243 96.40680965783903,130.51977232551167 96.20134690876634,130.35821187309236 95.98885979220398,130.1755783183611 95.78778727281234,130.02455441743797 95.60164153433622,129.855969597686 95.46378832229921,129.64172638930356 95.34700821278354,129.41694662958196 95.28466695131277,129.1640694000587 95.23988660861849,129.0270942339579 95.08096029411249,128.84094849537712 94.86057076412426,128.689924594297 94.82457088073973,128.668851491985 94.76486375707758,128.61616873581252 94.74027847086376,128.59158344949404 94.7227175521396,128.55997379599987 94.71042490903268,128.5318763258842 94.70164444972293,128.49675448838354 94.66301042847745,128.27197472881895 94.4268160716898,127.67139130850497 94.44613308233872,127.50983085608567 94.3662309020391,127.12700282795127 94.37588940738974,126.71958951349839 94.58574238609113,126.49129757029364 94.93520466875428,126.21383505424254 94.99227765455548,126.1576401144299 95.1468137393281,125.8626166797593 95.17227707147813,125.82398265861848 95.30837419164273,125.6448612877367 95.46378832229921,125.47627646798475 95.62710486648625,125.3041794645403 95.91334784163776,124.74223006536712 96.01432312435402,123.57969724561828 96.01783530804651,122.90535796681982 95.90456738232801,122.27316489248832 95.7728604918968,121.65853273714266 95.57442211026144,121.37755803760841 95.23022810326786,120.98770564198435 94.69988835779819,120.65404818632996 93.86135448871946,119.72331949379237 93.72876955240437,119.19649193206753 93.53647749232248,118.70478620784334 93.46886795528678,118.39922622199059 93.45481922025512,118.19200738125483 93.47852646053273,117.94264233542405 93.91754942863678,117.524692469632 94.03257344633238,117.44040005965135 94.07559769720658,117.42283914118887 94.10281712117668,117.40176603866755 94.12213413177327,117.37718075234905 94.13793895867734,117.35259546603055 94.1475974639233,117.3244979960719 94.159012061094,117.20508374879992 94.1695486123285,117.1032304203568 94.18974366891362,117.06459639921597 94.27315803285339,116.966255254256 94.30915791618558,116.90303594679668 94.31969446742008,116.86088974180636 94.3223286052287,116.79415825081155 94.3583284887179,116.70284147339358 94.3662309020391,116.67825618707508 94.36710894797532,116.6325977986016 94.35745044272936,116.59045159345426 94.34779193737874,116.56586630713576 94.29949941093963,116.4956226325008 94.2626214816189,116.45347642735346 94.23715814946885,116.43240332504148 94.21081677138261,116.42537895755181 94.1827193014763,116.20762356531988 94.11071953460255,116.17250172797623 94.07208551346174,116.15845299283988 93.97989069010755,116.13035552303823 93.95003712827648,116.11981897169908 93.92281770430637,116.11279460420941 93.89911046397641,116.09523368538058 93.876281269635,116.07064839921908 93.84818379967633,116.0249900105886 93.83062288100452,116.00391690822427 93.81481805410043,115.97933162190577 93.72262323079859,115.77913714855501 93.67872093398817,115.5508452049839 93.67959897992439,115.43494314156143 93.70330622025435,115.29796797546064 93.82798874314355,114.87299374217892 93.82535460533494,114.70792110627647 93.78145230852452,114.52528755170219 93.76915966546994,114.4726047952157 93.76125725204408,114.3602149154334 93.8657447184005,114.18109354455162 94.10984148866635,114.12489860473897 94.27930435435451,114.10031331842048 94.48037687374617,114.07221584856649 94.61998617760325,114.03358182711166 94.80613191607937,113.95631378483002 95.04496041078029,113.90714321235002 95.61042199364597,113.86148482387655 95.85451876396415,113.91065539635653 96.26105403237615,113.99494780597084 96.4384193114902,113.99845998997735 96.66671125495662,113.99494780597084 96.81685711010054,113.98089907114851 97.0214418131847,113.95280160113752 97.1742218060849,113.91065539635653 97.34192857984831,113.83689953755805 97.55353765047445,113.69641218776476 97.76953695078164,113.52080300052314 98.06631647721997,113.33816944579186 98.1629015302552,113.2819745059792 98.22524279172598,113.27143795469237 98.54046128277234,113.00451198998046 98.50797358313264,112.77622004661869 98.23226715921564,112.66031798314388 98.10319440654072,112.39339201848429 98.10319440654072,112.33368489466514 98.08036521219931,112.13349042141904 98.05929210973031,111.90871066154043 98.04963360448436,111.69797963700749 98.04612142079186,111.47671206113539 98.10056026878443,111.24842011756428 98.16553566806382,111.11495713531299 98.22173060803348,111.05173782801067 98.24631589419496,111.03417690902484 98.27353531816509,111.02012817420251 98.3156815231554,111.00256725537368 98.55890024743272,110.90071392693055 98.60368059017932,110.87612864076907 98.7090461025243,110.79534841448091 98.89870402474524,110.6197392272393 99.03831332860233,110.43359348865852 99.18319090812899,110.24744775044407 99.35353181970103,110.07183856320246 99.52387273137774,109.88569282462167 99.69421364294976,109.69252271855122 99.85489604927585,109.50637698028446 100.0129443177933,109.30969469041683 100.18855350503492,109.14462205451439 100.35626027885066,108.98306160209509 100.50904027175086,108.80745241485347 100.70045428584423,108.62833104407636 100.70045428584423,108.36140507941677 100.5353816498371,107.60979775781331 100.4256259078111,107.08297019608845 100.37030901383,106.58775228817177 100.30357752267818,106.08199782907292 99.8786032896058,103.40571381551068 99.78553042031541,103.1106903809971 99.29031251229405,102.71381361767403 98.58524162551896,102.20805915847052 96.97314928669324,101.36513505955375 96.55344332923812,101.18601368867198 96.208371276256,101.03850197123201 95.20388672518162,100.65567394309763 94.00447597632137,100.36065050858404 92.90955269397458,100.11479764639344 91.43180138323169,99.79167674186887 90.24029304779732,99.69333559711824 88.57903013649162,99.55636043101744 85.34255281568096,99.07167907443991 78.69311094072481,99.17704458652321 76.47516690591551,99.29997101764467 75.47595063051072,99.55284824732493 75.17039064465797,99.77762800688953 74.66551423133832,99.98835903178882 74.53468538684332,99.95674937798066 74.38102734800691,99.92162754047999 74.05615035166225,99.77762800688953 74.02278460603401,99.7635792719102 72.78122765223577,99.21919079151353 72.65039880774077,99.24377607767502 72.2377172177753,99.38777561126548 71.08484290348176,99.85489604953753 70.17782145143114,100.17801695385276 69.81167629598004,100.29743120112472 69.75109112648634,100.3220164872862 69.62465251156772,100.3711870599232 68.53411945879726,100.47655257237285 66.26876094338041,100.69430796439545 63.30447786279426,100.91206335647038 61.6405808136276,101.08767254371199 60.01619583164264,101.25976954747046 55.25630881145862,101.69528033156799 53.95767887180686,101.81469457883995 52.93475535612444,100.69079578075528 52.63973192161086,100.36767487623071 51.930270805154734,98.82231402839982 51.57378415500191,97.4560745516077 51.72832023982687,96.79227182378204 52.94441386142273,95.49627602214825 52.96636500982793,95.0115946653614 52.566854108905595,93.94740299062487 52.54402491456418,93.54701404366163 52.96109673426302,92.30721318163116 52.882950645888165,90.35092683581188 51.77310058262582,87.22157111911393 49.97837468891182,83.27387659002706 55.0982605429935,80.79076268248292 56.576011853631705,80.01457007471797 56.69630414689221,79.95135076725866 56.92459609025398,79.82139996896153 57.05279079694036,79.74764411037239 57.26352182168264,79.48423032950997 57.444399284489165,79.30159677472635 57.494447902905364,79.25945056978836 57.51464295938581,79.23486528346986 57.532203878109975,79.21027999730838 57.57171594529167,79.12247540368756 57.722739846267125,78.95037840024311 57.80264202646206,78.85906162282514 58.09854350701652,77.8370161530266 57.98790971905431,76.6674589661021 57.97912925963989,76.57263000499162 57.899227079444955,75.6138038426524 56.88069379344358,73.24659199842606 55.84372154283416,73.03234879020063 55.05699238393938,72.55117961694926 53.31143706275771,70.9952822179362 52.78812168477769,70.91450199180505 51.78539322562806,70.75996590718944 50.43671466766478,70.12777283322428 47.81662559396752,66.96680746287518 45.574974318880614,63.80584209252608 44.98580549568499,63.10691752704277 43.07342144657145,60.83804682803808 36.34758957526986,61.86009229767962 34.8250579218327,62.08838424125073 30.672778689504675,62.713552947935554 29.364490244606962,65.92368889055531 28.505761318943122,66.29949255135703 24.668700577713793,65.74456751967352 23.01094985015293,68.38572969563045 16.5739950918638,67.59900053684034 12.584154357681928,67.07568515880797 12.126692424917517,67.01597803535518 5.978614779640846,60.620291435858476 4.389351635051878,57.97561707589506 4.061840500898598,57.466350432999036 1.9729692186595655,54.200019550200295 1.0694599503014468,51.93817321852827 0.2616576889376735,49.11788967153257 0,46.733116908948425 0.05882907772594165,44.32375885983643 0.2458528621382636,43.5897124570618 0.13258493636742072,43.12259201915611 0.2572674593089687,43.143665121468096 0.5443884803966766,43.19986006143775 0.7630219185124897,43.224445347599236 1.240678907862023,43.22795753160575 1.5040926887244483,43.22795753160575 1.7218480808517178,43.22795753160575 2.2548219641823604,43.196347877797585 2.5015528722044964,43.1471773053176 2.8264298686014877,43.06639707918646 3.1056484763156584,42.992641220387966 3.2478919179813683,42.95751938325366 3.570134776569735,42.92590972939316 3.87569476247482,42.94698283191449 4.1224256704446205,43.05586052784729 4.593058292252153,43.44571292362835 4.766033341685146,43.5897124570618 5.006617928206161,43.73722417450177 5.792469041164733,44.03575979265551 6.011980525216753,44.04629634383767 6.177931207107745,44.00415013916136 6.429930390799466,43.87771152408572 6.82241692428448,43.642395213391296 7.245635065536776,43.48434694497851 7.675877574331073,43.28064028756889 7.905047563629047,43.17878695912576 8.1605589310656,43.09800673283761 8.508265121804001,43.108543284176776 8.848946945052738,43.17527477511925 9.081629118200215,43.24903063376073 9.81918770456267,43.53702970094165 11.034403280326996,44.09546691631766 11.380353379140645,44.26053955253412 12.191667824196916,44.54853861940103 12.854592506034018,44.713611255669825 13.425322364569274,44.85409860525378 14.493904268934513,45.18775606090818 15.029512290073779,45.38092616697863 15.69068087998613,45.64082776414856 16.267557060074843,45.939363382354635 16.6284339399087,46.09389946728427 17.228139314338822,46.262484286983884 17.612723434397964,46.38892290195486 17.897210317677047,46.57506864016929 18.08774628588654,46.79984839989089 18.295843172715518,46.99653068981085 18.581208101983144,47.14755459073397 18.916621649614633,47.189700795514945 19.248523013553623,47.15106677437413 19.5321318508965,47.028140343462006 19.91847206282806,46.77175093008924 20.432128935509787,46.45916657674683 21.27768717207817,46.04121671095477 21.692124854020722,45.883168442384985 22.114464949284475,45.68297396898188 22.529780677163235,45.472242944396605 23.05221800915471,45.19478042839784 23.182168807713506,45.08590273246505 23.4341679915099,44.941903198874584 23.63963074047792,44.797903665284124 23.92236153193692,44.653904131693665 24.15416565914819,44.569611722079365 25.10069917832817,44.2254177150858 26.480987390099614,44.070881630156165 28.709467976195732,45.008634690183406 32.51316297179682,45.51087696574677 36.067492921567144,46.03419234346511 38.027291451235925,45.851558788733826 40.566600298749705,45.61624247783006 45.10082951327592,45.180731693418515 47.02550620544404,44.89975699388427 49.842277568799574,44.250003001247286 52.27358676621209,43.786394746981756 52.83729225725768,43.698590153360946 53.5924117623443,43.551078435920985 54.07884921100358,43.487859128461665 54.54509160318241,43.424639821002344 54.66187171264575,43.41059108618003 55.60489304813323,43.29468902270523 55.876209242421524,43.284152471418395 56.67259690656226,43.168250407629586 57.15464412559283,43.00668995552431 58.13542143628493,42.616837559743246 59.11268656328453,42.10757091669022 59.826537909421695,41.74932817487433 60.09434191996516,41.63342611139953 60.309463174336145,41.53859715028906 60.52370638282325,41.447280372871084 60.74058372901431,41.3735245140726 61.572971276591915,41.099574182185016 62.06906723049715,40.976647751115884 62.760089382292904,40.84318476881226 63.460770039439296,40.76240454273345 64.03413403573084,40.513039496693345 64.32125505692322,40.24962571583092 64.89374100727855,39.41372598456083 64.98066755496315,39.28026300215252 65.21247168212209,38.816654748044 65.9623229116438,37.64709756101483 66.32407783736153,37.099196896611645 66.46632127902723,36.9130511582402 67.36544031775665,36.06661487584028 67.56826892896838,35.96124936323363 68.26368131044518,35.585445702588906 68.77909427499932,35.33959284055531 68.91606944110012,35.258812614267164 69.3366534445438,34.92164297476326 69.44114091090022,34.81627746247062 69.5684575716504,34.647692642928014 69.87401755745081,34.04359703855518 69.91616376238879,33.65725682693763 69.90913939489913,33.15501455137427 69.90035893558938,32.48769963969912 69.89333456809972,32.28399298265585 69.8617249143439,32.0873106927359 69.68435963528219,31.458629802410908 69.59479894973664,31.110923611934187 69.6738230840477,30.58760823369249 69.96182215107162,30.102926876957962 70.37362569515321,29.6252698877131 71.26396427446821,28.645370623061886 71.6107924192704,28.0728846723402 71.75391390687231,27.447715966021722 71.74864563135974,26.80147415702491 71.7416212637654,26.172793266647584 71.89440125671794,25.589770764796075 72.30708284673574,25.03484573326957 72.98317821756363,24.49396943656539 73.7066880689991,24.016312447111186 74.43019792048689,23.682654991299778 75.18531742557352,23.422753394443863 75.54531625947116,23.387631556786197 76.3320454183136,23.37358282180687 76.65955655246688,23.387631556786197 77.12579894464571,23.401680291765526 77.9494060328089,23.485972701746174 78.73613519165134,23.62294786784697 79.43593780275684,23.73182556377977 80.02159444220764,23.598362581685482 80.21915477785446,23.0293888148133 80.23847178845104,22.411244475984486 80.34471534673222,21.61397876585521 80.52208062584624,20.929102935403563 80.84168934662598,20.149398144155455 81.38256564333017,19.524229437470627 81.958563777535,18.863938893494485 82.54158627912484,18.266867656977656 83.27914486559196,17.96481985497441 83.83758208096798,17.806771586352287 84.81572525395612,17.75760101408164 85.90625830672656,17.75408883007513 88.46137198103975,17.711942625084806 90.10595201960982,17.683845155283155 91.51082551754276,17.627650215470506 94.00096379257654,17.60657711279217 94.11949999401698,17.60306492915201 95.27676453788689,17.56794309180836 96.04681082394139,17.585504010323177 97.90739016276632,17.462577579358715 98.21909647012018,17.441504476732717 98.92241126502286,17.258870922001435 99.72933548039809,17.069212999937495 100.69079578059828,16.876042893867044 101.72776803120769,16.61614129701113 102.68659419354692,16.300044759662207 103.51195737368718,15.959362936675147 104.36980825325782,15.706485706942548 105.24873223545444,15.457120661111787 106.16804633071665,15.302584576182158 107.07945801239596,15.200731247739027 108.05584509356403,15.334194229833313 109.02871999083024,15.685412604316546 109.88305868670838,15.987460406633806 110.61447095156971,16.18414269639675 111.6953454990942,16.303556943668717 112.32841661910022,16.37028843461119 112.44958695829695,16.345703148606706 112.87368314548544,16.226288901177735 113.32148657289923,16.029606611310115 113.67972931487213,15.832924321913518 114.22060561157632,15.534388703393427 114.71318938184139,15.242877452729351 115.18996832525471,14.95839056918859 115.70450324382031,14.659854951034847 116.08820931789091,14.340246230359776 116.53425665348462,13.897711078249223 116.83542640965632,13.585126724906809 117.21913248377926,13.198786513289265 117.5756191338274,12.766787912517882 117.77932579108001,12.40854517070199 117.97864221854691,11.958985651101774 118.08839796057292,11.551572336648887 118.20342197826852,11.154695573692175 118.33776300645602,10.77889191304745 118.68371310537434,10.501429397205696 119.03317538793283,10.37499078239173 119.61092961395774,10.297722739796077 120.29580544420004,10.216942513664934 121.02809575504993,10.171284125034449 122.55238350025482,10.216942513664934 123.32418587818174,10.273137453634586 124.18993917138758,10.290698372306412 125.15491165522792,10.329332393447233 126.08915253130098,10.364454231104899 126.90222306822967,10.389039517423397 127.78904946385218,10.431185722204377 128.47743747783932,10.448746640876204 128.99987480988312,10.603282725805833 129.19743514552994,10.715672605588132 129.50562926913898,10.9193792626314 129.91216453755098,11.091476266389863 130.32484612762113,11.207378329655317 131.10455091902622,11.217914881151492 131.4074767669657,11.045817877550036 131.51196423332212,10.796452831719275 131.56552503553547,10.515478132185025 131.6814270990626,10.287186188770923 131.9571335229796,10.12211355255446 132.2556691413427,10.10455263403964 132.62357038856155,10.167771941341952 132.97478876304478,10.31528365862491 133.30229989730273,10.50494158068885 133.53937230002657,10.712160421738629 133.66054263927563,10.943964548792891 133.74834723289644,11.221427064791653 133.85546883711382,11.46025555933558 134.01439515151515,11.692059686703857 134.22951640588613,11.90630289513863 134.44112547661695,12.025717142410594 134.77478293227136,12.07488771468124 135.14531831735118,12.046790244722581 135.49917082964302,11.930888181247786 135.87848667413726,11.663962216588192 136.17526620062793,11.39703625203327 136.45272871641734,11.123085920041019 136.74950824285568,10.873720874000917 137.039263401752,10.645428930796157 137.26843339115464,10.455771008522875 137.4721400483026,10.23450343233676 137.88833382206522,9.756846443248904 138.0630649634753,9.546115418349622 138.29399104459335,9.324847842477519 138.5178927583264,9.145726471700414 138.85769653563895,9.005239121645442 139.19574422107905,9.019287856624771 139.5785722492658,9.082507164084088 139.91925407251452,9.173823941554401 140.29242359540297,9.293238188826365 140.6761296695259,9.444262089749484 140.98432379313493,9.63743219597694 141.30217642204227,9.897333792832855 141.5006148036253,10.065918612584808 141.79212605444636,10.325820209964078 141.9247109908138,10.483868478376863 142.0669544324795,10.694599503066803 142.16266143952618,10.806989383006108 142.16880776107965,10.835086852860096 142.5340748705422,10.905330527652072 142.86422014255643,10.849135587682419 143.1811947255799,10.733233524416965 143.4902668950728,10.582209623127497 143.90470457701537,10.35391767976573 144.28489846739345,10.174796308831617 144.64753143904738,9.911382527969192 144.84596982068277,9.700651503279252 145.04353015632958,9.51801794854797 145.31748048837417,9.317823475144863 145.6406013928464,9.159775206732078 145.9119175871347,9.09304371526625 146.25523354819205,9.07197061311127 146.6064519226753,9.145726471700414 146.921670413774,9.258116351325706 147.27640097200205,9.430213354927162 147.56879026875936,9.598798174836121 147.86381370337762,9.749822075759239 148.148300586709,9.813041383218557 148.50039700712847,9.809529199212047 148.8077130848013,9.742797708269574 149.24058973129954,9.507481397208801 149.50400351216197,9.335384393973696 149.83766096792104,9.13518992041358 150.1212698053686,8.973629467994286 150.53658553314267,8.836654301893489 150.98614505248122,8.706703503596371 151.4708264093204,8.5872892561674 151.95023949049002,8.485435927410256 152.32253096738992,8.439777538936777 152.49462797093904,8.41519225261828 152.96350450087417,8.380070415117622 153.40955183646787,8.358997312648627 153.829257793923,8.299290188986477 154.21647605179075,8.264168351695162 154.60457235559474,8.264168351695162 154.85393740147782,8.271192719027818 155.091009804254,8.17987594187152 155.64769092780995,8.078022613114376 156.42037135172538,7.983193652003902 157.35724636565942,7.856755037242274 158.19314609687717,7.782999178443788 158.84026595186253,7.775974810954123 159.5541172979997,7.681145850000657 160.23196876075235,7.477439192905053 160.80094252741517,7.203488860755795 161.35586755915102,6.817148648614896 161.87479270739766,6.437832804487017 162.30415717025576,6.093638797336441 162.800253124161,5.728371688030885 163.32005631839618,5.468470090651613 163.87673744200444,5.271787801098009 164.47644281643457,5.103202981346057 165.1209285336113,5.0715933276949015 165.88307240618758,5.0961786138563925 166.5468751339609,5.110227348678715 167.1184830384847,5.1137395326852255 167.67077393235957,5.124276083658044 168.5409174551418,5.14183700232987 169.39613419695613,5.03998367388674 170.17144875862786,4.797642995336301 170.68861781510677,4.748472423170327 171.07671411891073,4.84681356781629 171.52890777600555,5.236665963440344 171.72207788197133,5.573835603101255 172.17427153917083,5.91451742624532 172.8846107015632,6.350028210866208 173.78987606174138,6.641539461373279 175.2105543865784,7.077050245994166 176.82615890914894,7.709243319959316 177.32664509278754,7.839194118413441 178.117764481311,8.049925143312723 178.89307904298278,8.243095249173832 179.7342470498701,8.243095249173832 180.57365896488503,8.19743686038634 181.47892432511557,8.049925143312723 182.3833116394099,7.811096648611789 183.41852779819922,7.519585397581363 184.51696326439554,7.178903574594305 185.2931558720035,7.084074613483831 187.36095405182587,7.084074613483831 188.78251042249443,7.182415758234465 189.94592128797012,7.231586330557447 190.85030860226445,7.4282686204774 191.56152581064535,7.572268154067862 192.1427922204151,7.719779871141477 192.5949858775099,7.814608832251951 193.0471795346571,7.818121016101454 193.62932399036305,7.719779871141477 194.2764438453484,7.5266097650710275 194.79273485583875,7.333439659157585 195.23439196180377,7.048952775826165 195.6514637815026,6.623978542701453 196.0992672089164,5.998809836382975 196.6963384455379,5.4649579071684595 197.53048208493556,4.906520691583111 198.6622832967601,4.372668762368596 199.70452382303912,3.7931584443665884 200.450862868816,3.2136481266785957 201.07690962133236,2.6552109113025892 201.73193188974358,1.9176523246784563 202.17973531715737,1.1836059220608333 202.41856381180597,0.6708270951583052 202.71709943011672,0.3793158446512349 203.16402481164664,0.1580482685697908 203.93846132748683,0.024585286161490746 204.65319071945555,0 204.7287026700741,0.014048735136336197 205.39777367341233,0.13697516594378992 206.61737947875304,0.5373641130640189 207.8378633301346,0.9869236325072293 208.67025087760751,1.3451663744801277 209.1461517750323,1.6998969324465156 210.00927093032485,2.1283833495777387 210.75385388428165,2.3953093139233186 211.52741235402863,2.662235278792254 212.24214174615435,2.820283547205038 212.7909204562844,2.84838101700669Z"/></svg>