<svg xmlns="http://www.w3.org/2000/svg" width="256" height="256"><path d="M0,164.03883520028 86.9902912369659,49.70873814598196 186.4077669363555,0 256,69.59223306364451 134.21359219417596,183.92233011794255 0,164.03883520028 M0,164.03883520028 0,278.36893218050625 67.10679609708798,427.4951454333035 129.24271840920647,502.05825243006103 161.5533980855799,606.4466018403483 191.37864072132498,715.8058252578205 285.8252427098169,785.398058321465 429.98058239986,795.3398058914039 536.8543687767038,775.4563106774542 484.6601940345243,934.5242715001904 429.98058239986,1023.9999999259283 504.543689248474,1217.864077169379 638.75728144265,1337.1650483790054 937.0097084667469,1550.9126209845494 1053.8252424135296,1615.533980115081 1205.436892855099,1575.7669900575404 1287.4563103070952,1506.174756993896 1466.4077666400683,1252.660193812309 1538.4854365221258,1183.0679607486643 1700.038834533634,1153.2427180388474 1784.5436888040433,1222.8349513247074 1772.1165044156912,1327.2233008090666 1737.3203878468332,1436.5825239302515 1757.2038830607828,1535.9999994814975 1722.4077664919248,1700.0388346817774 1660.2718441798063,1809.3980578029625 1647.8446597914544,1903.844659939598 1724.8932034584814,2152.388349188072 1893.902912073372,2420.8155333542086 1963.4951451370164,2490.407766417853 2040.5436887299713,2545.0873779784456 2172.2718440316626,2569.9417470514363 2303.999999333354,2569.9417470514363 2557.5145623667972,2445.6699024271993 2661.902911851156,2430.7572809241474 2791.145630260363,2445.6699024271993 2907.961164207146,2480.4660187738423 3019.805824443031,2555.0291255483844 3044.6601932938065,2679.3009701726214 3071.99999918521,2778.7184457238673 3228.5825233376772,2873.165047860503 3332.970872822036,2937.786406768819 3457.242717446273,3032.23300912767 3598.9126203179035,3067.0291255483844 3641.165047564216,3176.3883486695695 3494.5242708335445,3429.902911554869 3350.3689310694294,3593.941746532934 3283.2621349723413,3688.3883486695695 3270.8349505099177,3936.9320379180435 3454.7572806278604,4145.7087365904745 3825.0873775340146,4329.631066930632 4240.155338578967,4419.10679491194 4670.135920978826,4558.291261039229 4757.126212215792,4617.941746458862 4854.058251096769,4662.6796102273 5030.524270389114,4717.359222010108 5420.737862509218,4796.893202421476 5589.74757119818,4861.514561848295 5907.883493436227,5134.91262016976 6096.776697339139,5318.8349497692 6335.378638943602,5438.135920978826 6636.116502934256,5617.087377163656 6844.8932019029735,5890.48543548512 6864.776697042852,6009.786405954029 6745.475726203584,6288.15533791232 6660.970871933175,6407.456308899731 6646.058250504195,6541.669900871691 6695.766988427961,6680.854367221196 6921.94174557,7013.902910517864 7118.291260076295,7282.330094906216 7187.88349313994,7481.1650465272105 7381.747570679678,7809.242716409268 7451.339803669251,7928.543686878176 7508.504852196399,8003.10679409715 7560.699027012651,8112.466016996119 7588.038832829982,8425.631065375124 7595.495143433365,8659.26213363905 7617.864075539799,8942.601939234166 7620.349512358212,9280.621356760234 7558.213590046094,9449.631065375124 7518.446599766338,9772.737861101854 7506.019415303915,9887.067958378368 7414.058250281979,10075.961162133135 7371.805823109738,10220.116502119467 7312.155337764177,10329.475725314722 7195.339803743322,10389.12621051214 7120.776697042852,10458.718443798001 6979.10679409715,10602.873783636187 6770.330095128432,10831.533977670711 6683.339803891466,10950.834948435908 6526.75727981307,11219.262132602043 6447.223299179487,11313.708734738679 6407.456308899731,11413.12621051214 6372.660192330873,11517.5145599965 6414.912619503114,11646.757278035348 6529.242716557412,11716.349511098992 6539.184464127351,11815.766986872453 6223.533978781788,11959.922326858783 5887.99999837042,12158.757278257563 5654.368930402783,12347.650481790117 5587.262134305695,12452.038831496691 5465.475726573943,12745.320384735818 5395.883493584371,13053.514559477997 5361.087377163656,13187.728151672174 5348.6601926271605,13505.864073984292 5368.543687767038,13610.252423172364 5502.757279961214,13699.728151598101 5748.815532391275,13799.145627223419 5835.805823554169,13863.76698635395 5835.805823554169,13973.126209475136 5736.38834785478,14037.747568827883 5636.97087215539,14112.310675602424 5579.805823628241,14226.640772656723 5547.495144100011,14321.087374719287 5535.067959563516,14559.689316397822 5557.4368916699505,14952.388345484482 5763.728153746184,15265.553393863487 5868.116503230543,15369.941743347847 6081.864075910158,15479.300966469033 6218.563104996819,15573.747568605668 6268.271842846514,15673.165044156913 6337.864075836087,15762.640772360435 6402.485435188833,15951.53397589299 6486.990289385171,16145.39805358087 6571.495143803724,16229.90290785128 6723.106794245293,16274.64077206415 6820.038833052198,16294.524267278099 6929.398056321526,16364.116500341743 6994.019415452058,16478.446597099755 7056.155337764177,16647.45630593686 7105.864075687943,16776.699024271995 7207.766988205745,16920.854364258324 7309.66990079762,17065.009704096512 7374.291260076295,17159.456305714644 7687.4563084553,17164.42717964776 7858.951454036747,17194.25242213536 8050.330094758073,17318.524266759596 8368.466017070192,17547.184461090408 8480.310677157933,17591.92232508106 8877.98057995549,17691.339800632308 9258.252424505656,17865.320383402526 9340.271841957652,17915.02912125222 9551.533977818855,17954.796111383832 9966.601938863807,18024.388344447478 10080.932035918106,18084.038829644895 10326.990288348166,18402.174751957013 10533.281550424399,18650.71844120549 10585.47572516658,18750.13591697895 10682.407763899411,18849.55339282648 10985.63106478255,19073.242713001964 11259.029123029943,19306.873780747388 11490.174753956953,19585.24271270568 11674.097084000823,19868.582518597083 11718.83494813962,19958.05824657839 11741.203880097912,20256.31067375063 11838.135918978887,20604.27183855035 12034.485433485183,20847.844654384215 12372.504850863106,21056.621353056646 12700.582520597021,21210.718440686986 13063.456306899792,21280.31067367656 13257.320384587674,21334.99028531122 13428.815530169122,21499.029119993 13518.2912582245,21722.718440168483 13563.029122363298,21832.07766380817 13545.631064041832,22020.970867562937 13331.883491288145,22289.398051729077 13162.873782599183,22587.65047912353 12978.951452555311,22851.10678957877 12824.854365221257,23000.23300305378 12591.223297327691,23104.621352538143 12223.37863723995,23253.74756623537 12121.475724648077,23288.5436828783 11997.203880023839,23378.019410859608 11905.242715075976,23442.640769767924 11524.97087045174,23457.55339149319 11273.941744384852,23527.145624556833 11189.436889966299,23571.88348854749 11164.582521115522,23671.300964098733 11174.52426861139,23765.7475661613 11410.640773397441,24108.737857101976 11544.854365591616,24287.689313286806 11723.80582192459,24595.883488028987 11880.388346151129,24914.019410341105 11987.262132453901,25252.0388277931 12250.718443057283,25570.17475010522 12471.922326488424,25843.572808130397 12653.359219639811,26002.640769397563 12959.067957415435,26211.417468144067 13314.485433114824,26395.339798484223 13625.165044675416,26564.349507099116 13915.961161022058,26793.009700911425 14005.43688915151,26882.485429411234 14022.834947472975,27011.72814745008 13886.135918312242,27175.766982650362 13784.233005720367,27260.271836698554 13674.873782451039,27319.922322414477 13558.058248578327,27329.8640697622 13441.242714557473,27354.718438835193 13354.252423320508,27419.339797743505 13411.417471847657,27657.94173964426 13560.54368539674,27951.223292883384 13717.126209697351,28269.3592151955 13771.805821257944,28408.543681026506 13828.970869785093,28726.67960356084 13846.368928032485,28855.922321895974 14087.456306603506,29139.26212756516 14293.747568827883,29412.660185886627 14288.77669489477,29601.553389641394 13993.009704763157,29914.718437798187 13930.873782451039,30217.941739051683 13968.155335764239,30426.7184380204 14047.68931632375,30724.97086511857 14107.339801891527,31023.22329184638 14191.844656087866,31316.50484530772 14214.2135881943,31425.864068651124 14296.233005572223,31739.029117326416 14326.058248282041,32111.844651199128 14385.708733775746,32449.86406842891 14395.650481345685,32767.999990741027 14517.436889003366,33096.07766062309 14485.126209475136,33309.82523322863 14472.69902493864,33409.24270900209 14537.320384143244,33503.68931062022 14517.436889003366,33608.07766010458 14333.514559033567,33737.320378661934 14005.43688915151,33886.446592359156 13928.388345484482,34025.63105796795 13928.388345484482,34338.796106865455 13950.757277590918,34438.2135824167 13970.640772656723,34602.252417098476 14005.43688915151,34756.349504728816 14050.174753290306,34850.79610634695 14077.514559033567,35129.16503860153 14117.281549387395,35243.49513535954 14181.902908517926,35327.99998970402 14241.553394011631,35437.359213269636 14253.980578399984,35646.13591223836 14236.582520226662,35775.37863049942 14194.330093054421,35899.65047512366 14030.291258076357,36182.99028101506 13995.49514158157,36337.087368423185 13918.446597914543,36451.41746547748 13719.611646515765,36714.873775710505 13647.533976633707,36839.14562033474 13704.699025160855,36968.388338892095 13794.174753290306,37047.92231952568 13876.194170742303,37346.17474640163 14169.475724203645,37659.33979507692 14420.504850196461,37897.94173668139 14629.281549239251,38141.51455207082 14756.0388306819,38230.99028005212 15153.70873347946,38330.40775582559 15561.32038392103,38434.79610530994 15911.766985687305,38593.864066577116 16001.242713890828,38628.66018322004 16212.504849677958,38713.165037268234 16508.271839957713,38897.08736738618 16799.06795637843,39135.68930906471 17007.844655273075,39284.81552276194 17360.77669400591,39448.85435744372 17753.4757230185,39602.95144507406 18108.893198717888,39747.10678483818 18320.155334505016,39747.10678483818 18389.74756749459,39652.66018270154 18399.689315138603,39538.33008586946 18471.76698502066,39404.11649345307 18635.80581985058,39269.90290125889 18946.485431411173,39140.660182923755 19172.660188627284,39130.71843535382 19294.446596433107,39155.572804204596 19383.922324488485,39225.16503704602 19436.116499230666,39324.582512819485 19453.514557478058,39433.94173645917 19535.533974930055,39548.271833439394 19687.145625371624,39707.33979426213 19910.834945769322,39980.73785236138 20062.44659613682,40154.7184351316 20139.49513987792,40298.8737746735 20281.16504267548,40457.941735940665 20375.6116445899,40651.80581362855 20410.407761084683,40751.2232891798 20470.05824657839,40835.72814345021 20564.50484841874,40915.262124306006 20840.388343484545,41094.2135805649 21091.417469699576,41173.747561198485 21210.718440538843,41183.68930876843 21541.281547239312,41173.747561198485 21722.718440390698,41163.80581355448 22189.98057617783,41268.194162816624 22398.757275072476,41372.58251230098 22527.99999348168,41650.951444481485 22744.233003276,41934.29124992846 22948.038828311604,42123.184453905444 23291.029119474497,42302.13591038656 23343.22329429075,42396.58251222691 23278.601935012073,42555.650473049645 23350.679604894132,42650.09707518628 23683.728148487087,42779.33979366956 23877.59222617497,42953.32037577313 24344.85436188803,43117.35921089934 24464.155332727296,43157.12620103095 24692.81552683589,43191.92231767388 24797.20387632025,43211.80581259154 24918.990284200147,43256.54367680442 25008.466012181452,43336.077657215785 25085.51455584848,43425.553385419305 25356.427177129317,43574.67959889432 25527.922322710765,43738.71843402053 25398.67960437563,43798.368919292014 24936.388342299397,43664.15532709784 24993.553390826546,43793.3980458774 25179.9611577629,43907.7281429317 25276.893196569803,44017.08736605289 25187.417468514424,44186.09707466778 25092.970866525935,44335.22328836501 24968.699021901695,44573.82523004354 24988.582517041574,44847.223288068715 25102.912614095872,45130.563093960125 25145.165041342185,45239.92231715538 25351.45630334435,45523.262123046785 25388.73785680569,45677.35921015862 25294.2912548172,45861.28154027656 25339.029118881925,45970.64076339775 25607.45630334435,46209.2427052985 25918.13591490494,46442.87377282171 26268.58251674529,46646.67959807953 26681.165040823682,46780.8931902737 26966.99028345943,46905.16503489794 27036.58251652307,46974.757267961584 27195.650477642095,47208.38833592922 27287.61164258996,47307.80581177676 27237.902904814335,47397.28153998028 27140.97086593336,47461.90289888859 27128.54368154501,47576.232996165105 27230.44659406281,47909.28153946177 27329.8640697622,48202.56309292312 27409.398050395783,48381.51454940424 27558.524263944866,48500.81551987314 27558.524263944866,48595.26212200978 27518.75727359104,48704.62134513096 27476.50484649287,48804.03882068221 27486.44659406281,48933.28153946177 27548.58251637493,49092.34950050672 27610.718438687047,49251.41746177389 27725.048535741345,49450.25241287638 27958.67960356084,49644.116490564265 28261.902904443978,49837.98056825215 28351.3786326475,49902.60192738268 28443.339797669436,49957.28153894327 28575.067952897054,50016.932024436974 28647.145622927255,50121.32037414355 28704.310671306263,50215.76697576168 28714.252418950273,50320.15532524604 28654.601933456564,50409.63105322735 28597.43688492942,50494.135908016266 28614.83494325088,50618.4077526405 28686.91261313294,50707.88348062181 28860.8931955328,50941.51454836723 28918.05824405995,51190.0582376157 29057.242710039092,51577.78639299147 29315.728146857506,51881.00969380053 29581.669894353374,52144.46600425577 29877.436884559058,52348.27182973581 30317.359214528857,52482.48542200406 30690.17474840157,52547.106781134586 30975.999991111385,52492.427169573995 31058.01940848931,52417.86406235502 31110.21358330556,52333.35920830683 31259.339796780572,52124.58250911589 31378.64076761984,52164.34949969193 31433.320379254506,52258.79610131007 31495.456301566624,52383.06794593431 31734.05824324516,52611.728140042906 31903.067952008194,52721.087363608516 32024.854359665875,52621.66988761284 31893.126204438253,52547.106781134586 31786.25241798734,52487.45629541866 31751.45630149255,52383.06794593431 31736.543680211715,52233.94173275558 31684.349505395465,52079.84464512524 31629.669893908944,51985.398043507106 31574.990282126135,51866.09707229748 31550.13591327536,51741.825227673246 31654.524262759718,51707.02911125253 31870.75727233182,51657.32037362505 31975.14562189025,51577.78639299147 32077.04853440805,51582.757266628294 32186.40775767738,51632.46600455206 32223.689311138725,51721.94173275558 32156.582515041635,51811.417460736884 32084.50484515958,51900.8931887182 32171.495136396545,51965.514548293155 32318.135913053145,51975.4562958631 32678.52426238936,52104.69901397602 32728.233000239055,52243.88348032552 32725.747563420642,52527.22328599471 32820.19416533506,52601.78639247296 32879.84465068062,52696.2329946096 32981.747563272496,52745.94173223708 33096.077660326795,52666.407751603496 33110.990281681705,52537.16503356465 33215.378631166066,52437.74755771711 33337.165038971885,52467.572800501 33391.84465053248,52626.640761545954 33513.6310583383,52750.91260617019 33538.48542726315,52850.33008172144 33508.66018455334,52979.572800501 33508.66018455334,53193.320373106544 33501.20387380181,53302.67959622773 33630.44659221102,53407.06794593431 33794.48542711501,53421.98056714107 33918.75727173925,53466.71843135394 34043.02911636348,53426.95144085197 34127.53397070796,53352.38833437371 34192.155329986635,53262.912605873906 34318.91261142929,53158.52425668583 34415.84465023619,53123.728140042906 34555.029116289414,53044.19415963154 34771.26212593558,52835.417460662815 34865.708727850004,52681.320373106544 34820.970863711205,52591.84464512524 34937.78639773206,52547.106781134586 34932.815523947094,52432.77668385807 35173.90290244404,52397.98056721514 35181.35921319557,52283.65047016084 35345.39804802548,52358.213577379815 35459.72814515386,52497.39804298861 35526.83494125094,52606.757266628294 35698.33008683239,52586.87377141434 35986.640766286546,52397.98056721514 36093.51455266339,52288.621344316176 36297.32037784714,52054.99027627446 36409.165038008956,52025.16503334243 36545.864067095616,51990.36891692172 36677.59222247138,51881.00969380053 36764.582513708345,51801.47571338916 37028.03882423766,51905.86406287352 37134.9126106145,51980.42716935178 37224.38833874395,51890.951441370475 37065.320377699,51746.79610182857 37157.28154264686,51607.611635479065 37241.786397065414,51503.22328599471 37549.98057165945,51224.854354258634 37659.339794928776,51120.46600455206 37860.66018322004,50971.33979129926 38109.20387246852,50777.47571338916 38191.22328992051,50881.86406287352 38181.281542350574,50981.2815388692 38094.29125111361,51080.699014494516 38004.81552298416,51274.56309188611 38007.30095995071,51433.63105315328 37967.53396974503,51547.96114998536 38280.69901804996,51841.24270366892 38370.174746253484,51871.06794645281 38489.475717092755,51841.24270366892 38593.864066577116,51716.97085904468 38685.82523159905,51597.66988813134 38765.35921208449,51542.99027657075 38857.3203771805,51518.13590749776 39324.582512893554,51443.57280072322 39409.08736723803,51373.98056795586 39585.55338660445,51274.56309188611 39640.23299823912,51130.407752121995 39744.62134772348,51060.81551928057 39856.46600795936,50986.252412357884 39993.16503697195,50911.68930587963 40119.92231856274,50886.834936806634 40241.70872622042,50911.68930587963 40520.07765825278,51050.87377148841 40420.660182553394,51185.08736390481 40281.47571657425,51219.88348054774 40333.66989131643,51324.27182980988 40515.10678454189,51369.00969380053 40641.864065910464,51349.12619888287 40733.8252309324,51259.65047067935 40798.446590211075,51185.08736390481 41181.20387165373,51195.029111474745 40885.43688137397,51354.09707274191 40870.52426009314,51473.398043507106 40877.98057069652,51567.84464534745 40860.58251252319,51672.2329946096 40594.640764953256,51736.854354258634 40400.77668741352,51816.388334595926 40097.55338645631,51866.09707229748 40296.38833792916,51960.54367443411 40428.11649315678,51955.572800501 40631.92231834053,51915.80581044346 40741.28154168393,51980.42716935178 40681.63105619022,52084.81551905835 40557.359211565985,52119.61163570128 40482.79610486551,52204.116489749475 40365.98057084466,52323.417460736884 40326.2135805649,52462.60192679011 40211.88348351061,52512.310664491655 40050.330085499096,52651.49513061895 39684.970862377915,52760.85435374013 39530.87377504386,52870.213576861315 39433.94173616288,52994.48542148555 39299.72814396871,53054.13590697926 39185.39804691441,53173.4368778926 39309.669891538644,53198.29124674337 39448.85435751779,53128.699013679725 39759.53396907839,53123.728140042906 39868.893192347714,53059.1067808383 39958.368920477165,52974.60192634568 40055.30095928407,52959.68930528705 40159.68930876843,52969.63105285699 40303.84464853254,52994.48542148555 40403.26212423193,52979.572800501 40798.446590211075,52905.00969328203 41046.990279459555,52850.33008172144 41171.26212408379,52785.70872281312 41298.01940552644,52775.76697524318 41213.51455125603,52885.12619836436 41111.61163859008,53039.223285476204 41355.18445405359,53178.407751603496 41481.94173564438,53243.02911073402 41653.436881225825,53312.62134379767 41792.62134720497,53218.17474210547 41864.699017087034,53143.611634960565 41916.89319182921,53064.0776545492 42190.29124992846,53103.84464512524 42351.84464801404,53098.87377096991 42269.82523056204,52939.80580992496 42254.91260928121,52805.59221773078 42319.533968337666,52731.02911125253 42478.60192945669,52890.09707200119 42590.446589692576,52939.80580992496 42754.48542452249,52909.98056743736 42861.35921089934,52984.543673915614 42806.67959926467,53153.5533825305 42896.1553274682,53277.82522715474 42843.96115272602,53367.30095535826 42729.63105567172,53546.25241176531 42953.32037599535,53730.17474166104 42925.980570103944,53824.62134379767 43097.475715759465,54073.16503304614 43104.93202636285,54237.20386772792 42995.57280309351,54291.88347951073 42834.019405156076,54321.70872229462 42834.019405156076,54426.097071704906 42863.844647791826,54530.48542096705 42796.737851768805,54674.64076095338 42739.57280316759,54764.116489230975 42602.87377408092,54793.94173171857 42548.19416252033,54903.30095483976 42585.4757159076,55012.66017847945 42615.30095854335,55161.78639188039 42615.30095854335,55295.999984074566 42399.06794897125,55474.951440555684 42274.79610434701,55534.6019257531 42292.19416252033,55638.99027501525 42386.64076443476,55718.52425564883 42428.89319160699,55827.88347921444 42232.54367717477,56180.81551772506 42075.96115287416,56141.04852766752 42066.01940530422,56265.32037229176 42148.03882275622,56414.4465856927 42252.427172240576,56474.09707096419 42274.79610434701,56643.10677957908 42426.40775471451,56727.611634145775 42587.96115272602,56797.20386720942 42602.87377408092,56901.592216619705 42575.533968337666,57015.92231345179 42650.09707503814,57334.05823576391 42702.29124978032,57438.44658547048 42620.27183232832,57607.45629408537 42525.8252304139,57483.184449461136 42525.8252304139,57786.407750270206 42727.145618705166,57885.82522582145 42843.96115272602,57970.33008038814 42836.50484197449,57816.23299320223 43060.19416229812,57855.999983333844 43162.09707488999,57726.7572647765 43231.68930795364,57657.16503193507 43321.16503608309,57597.514546515435 43373.35921089934,57686.990274718955 43380.81552142865,57791.37862420332 43403.18445353508,57900.7378473245 43485.20387091301,58029.98056580778 43634.33008446209,58054.83493488077 43644.271832032035,57950.44658547048 43726.29124948403,57811.26211934319 43825.70872518342,57895.7669736136 43905.242705817,57985.24270159491 43940.038822237715,58079.68930350933 43858.01940478572,58194.01940056363 43766.058239837854,58248.69901212422 43813.28154079507,58353.087361830796 43853.04853107482,58452.50483738204 43910.21357960197,58566.83493443634 43922.64076399033,58666.2524102098 43935.06794845275,58835.26211882469 44041.94173482959,58810.40775019613 44046.91260861456,58706.019400785844 44168.69901634631,58616.543672582324 44370.01940463758,58631.45629356687 44422.21357937976,58551.92231337772 44409.78639491733,58452.50483738204 44484.349501691875,58348.116487897685 44534.05823954157,58447.53396396743 44643.417462810896,58333.20386691313 44792.54367635998,58238.75726455428 44857.16503556458,58363.02910917852 44939.18445301658,58447.53396396743 45311.99998688929,58571.80580859167 45207.61163740493,58651.33978892896 45083.339792780695,58676.194158001956 45041.08736560846,58770.64075969416 44951.61163755308,58855.14561396457 44817.3980453589,58820.34949784014 44670.75726862823,58750.7572647765 44581.28154049878,58815.37862368481 44635.961152207514,58919.766973391386 44690.64076376811,58999.30095402497 44603.65047253114,59083.805808073164 44708.03882208957,59153.39804113681 44777.63105500508,59237.902895703504 44762.71843365017,59342.29124489158 44722.95144344448,59446.679594375935 44362.563093960125,59556.03881794155 44141.35921052898,59506.33008009186 44148.81552128051,59401.94173038528 44196.038822237715,59232.93202154818 44027.02911347468,59198.13590512746 43872.93202614063,59332.34949732164 43748.66018151639,59416.85435188834 43542.36891951423,59476.504837085755 43413.12620110502,59615.689302990824 43341.048531222965,59710.13590512746 43050.25241472818,59859.26211882469 42945.86406524382,59928.85435181426 42814.13591009027,60028.27182743958 42732.11649249013,60172.4271672037 42838.99027894105,60326.52425431553 42901.126201253166,60430.912603799894 43000.54367702663,60480.62134194587 43134.757269146736,60510.44658443348 43057.70872540563,60599.92231241478 42960.77668659873,60659.572798130706 42841.475715759465,60669.514545700644 42759.456298307465,60744.0776521789 42873.78639536176,60838.52425431553 42955.805812813756,60937.94172986678 42973.20387113522,61032.388332003415 43090.01940500794,61082.097069630894 43177.0096962449,61176.54367154532 43239.14561855702,61325.66988524255 43482.71843402053,61430.058234949116 43599.53396804138,61564.2718271433 43599.53396804138,61713.39804032202 43701.43688055918,61802.87376882183 43805.82523004354,61862.52425379703 43843.10678350488,61961.94172957049 43843.10678350488,62056.388331484915 44027.02911347468,62180.66017610915 44074.252414431896,62354.640758879366 43982.29124940996,62478.91260350361 43959.9223173776,62608.15532154246 43992.232996979896,62782.13590431267 44094.13590957177,63065.47570998186 44143.844647495534,63145.00969061544 44427.18445316472,63274.25240909872 44785.0873657566,63393.55337986392 44869.59222010108,63314.01939923034 44971.49513269296,63169.864059688436 45006.29124911367,63284.194156668666 45036.116491823486,63373.66988464997 45105.70872481306,63468.11648634217 45157.90289962931,63597.35920512174 45098.252414135604,63721.63104974598 45085.82522974725,63875.72813685782 44956.58251133805,63875.72813685782 44874.56309388605,63806.13590379417 44703.067948304604,63756.42716616669 44546.48542400399,63791.223282809624 44496.77668622837,63711.68930217604 44394.87377356242,63612.271826328506 44300.42717164801,63567.53396211564 44166.213579453826,63681.86405916994 44260.66018136825,63766.36891373663 44225.864064947535,63855.84464194015 44046.91260861456,63920.46600084847 44056.854356332646,64034.79609790277 44148.81552128051,64104.388331188624 44240.77668622837,64213.7475540876 44307.88348232546,64288.31066130657 44412.27183188389,64377.786389287874 44598.67959882024,64308.19415622423 44690.64076376811,64338.01939871183 44765.20387061672,64437.4368744853 44670.75726862823,64666.09706859389 44551.456297788965,64939.49512691535 44404.81552113236,65014.05823383804 44310.368919292014,65063.76697153959 44240.77668622837,65143.30095217317 44118.990278644764,65098.56308818252 43959.9223173776,65277.51454414514 43887.844647495534,65366.99027234866 43845.5922203233,65466.4077478999 43964.89319116256,65531.02910754894 44061.82523004354,65590.67959252415 44051.88348239953,65695.0679420085 43850.56309410826,65695.0679420085 43783.45629801118,65625.47570916708 43477.747560235555,65819.33978663274 43355.961152577875,65893.90289377765 43273.941735125874,65943.61163125698 43189.436880707326,66142.44658302612 43174.524259352416,66440.69900975392 43206.83493902879,66604.73784488013 43326.135909868055,66704.15532072766 43492.660181590465,66694.21357315773 43629.359210677125,66724.03881564533 43706.40775434415,66833.3980387665 43930.09707466778,67007.37862153673 44004.66018151639,67121.70871859103 43994.71843402053,67231.06794171222 44012.11649211977,67355.33978633645 43686.52425920427,67648.62133957558 43554.79610390258,67767.9223107852 43420.5825117084,67757.98056314119 43346.01940500794,67698.33007772156 43199.37862827726,67628.73784465791 43107.4174633294,67574.05823309733 43005.51455073753,67673.47570864856 42841.475715759465,67673.47570864856 42744.543676952555,67628.73784465791 42637.669890649784,67608.85434951803 42568.07765758614,67673.47570864856 42326.990279089194,67743.06794171222 42232.54367717477,67753.00968928215 42083.41746362569,67698.33007772156 42043.65047327186,67569.087358942 41857.242706335506,67623.76697094702 41730.48542489285,67673.47570864856 41658.4077550108,67753.00968928215 41471.99998807444,67748.03881557126 41255.7669783542,67966.7572618877 41233.39804639591,68165.59221321241 41243.339793965846,68274.95143685209 41223.456298825964,68414.13590246088 41183.68930847214,68603.02910651194 41158.83493954729,68717.35920349216 41283.10678417153,68995.72813552452 41288.0776579565,69105.0873586457 41437.20387150558,69219.41745570001 41519.22328903165,69274.0970672606 41469.51455110789,69378.48541674495 41521.70872585006,69552.46599951517 41568.93202680728,69656.85434870324 41621.12620154946,69865.63104789419 41601.242706483645,70039.6116301459 41501.82523071019,70153.9417272002 41320.3883375588,70472.07764951231 41320.3883375588,70576.46599899667 41385.00969691155,70695.76696991001 41325.35921134377,70894.60192130879 41325.35921134377,71013.90289199991 41407.37862879577,71133.20386320954 41417.32037636571,71252.50483367845 41310.44658998886,71307.18444523905 41186.174745364624,71252.50483367845 41084.271832846825,71192.85434840697 40786.01940567458,71058.64075599056 40661.747561050346,70998.99027101537 40549.9029009626,70964.19415437244 40361.00969705969,71083.49512506356 40296.38833792916,71172.97085304487 40269.048532037756,71282.33007638827 40109.980570992804,71212.73784362091 40080.15532835706,71113.32036799559 40122.40775538116,71018.87376593304 40077.66989131643,70914.48541622645 39794.33008564724,71003.96114442998 39667.57280405645,71048.69900842063 39560.69901775368,71103.37862042566 39493.59222165659,71197.82522211786 39496.077658475,71332.03881431204 39575.61163903451,71441.39803765544 39707.339794484345,71540.81551350297 39811.72814382056,71630.2912417065 39709.825231228686,71724.73784354684 39595.495134174394,71684.97085326708 39254.990279978054,71431.45628986329 39170.4854255595,71297.2426976691 39145.63105663465,71177.9417272002 39013.902901332964,71138.17473662415 38904.54367813771,71163.02910547493 38807.61163925673,71227.6504650499 38765.35921208449,71351.92230967413 38805.12620243832,71466.25240650622 38976.62134801976,71734.67959111677 39110.834940213936,71978.25240650622 39247.533969226526,72022.99027049687 39381.74756142071,72137.32036755116 39202.796105161804,72162.17473662415 38815.067950008255,72172.11648419409 38755.41746451455,72311.30095002509 38544.155328653345,72520.07764899381 38395.02911510426,72699.02910517865 38305.55338697481,72823.30094980288 38295.61163940487,72932.66017314627 38365.20387246852,73002.2524059877 38494.44659087772,73156.34949361805 38342.83494036208,73141.436872115 38188.7378531021,73066.87376534045 38047.0679501564,73116.58250304201 37885.51455214489,73061.90289148141 37885.51455214489,72947.57279442712 37922.796105532165,72833.24269737281 37823.37862983277,72818.33007609198 37525.1262027346,72778.56308559001 37124.97086304456,72718.91260054073 36995.72814463535,72753.70871673923 36794.40775634409,73086.75726055441 36801.864067095616,73196.11648367559 36888.85435833258,73399.92230871119 36943.53396989317,73494.36891107005 36906.2524165059,73593.78638662129 36588.11649426786,73573.90289148141 36210.33008668425,73345.24269737281 36009.00969839298,73191.14560996469 35909.592222619525,73171.26211460259 35718.2135818982,73250.79609523618 35641.16503830524,73325.35920223294 35601.398047951414,73424.7766780064 35663.53397026353,73549.04852263063 35529.32037806936,73643.49512424877 35432.38833926245,73673.32036725487 35295.689310323934,73737.94172616319 35186.33008698053,73787.65046430918 35004.89319382915,73882.0970659273 34721.55338801182,74016.31065812148 34477.98057254831,74021.28153183238 34341.281543535726,74066.01939604525 33978.40775715888,74254.91259980002 33309.82523308048,74647.6116291089 33036.42717498123,74846.44658021138 32772.97086437785,75000.54366754544 32638.757272183677,75085.04852211213 32392.699019753614,75119.84463853286 32333.04853440805,75249.08735679391 32141.66989368673,75383.3009489881 31995.029116956055,75418.09706563102 31619.72814619086,75437.98056084497 31483.029117178274,75477.74755090251 31092.815524984097,75651.72813367273 30859.18445709053,75805.82522078457 30657.864068799267,75880.38832748504 30282.56309810814,76014.6019199755 30123.495136915048,76109.04852159364 29812.815525354454,76347.65046327216 29559.300962321013,76581.28153146202 29514.563098256287,76690.64075465727 29499.65047697545,76804.97085171158 29382.834942954596,76874.56308447893 29280.93203036272,76904.38832748504 29059.72814700565,76919.3009486918 28895.68931217573,76914.33007483276 28776.38834126239,76924.2718224027 28679.456302381415,76969.00968639336 28587.495137359478,77073.39803609993 28582.52426357451,77207.61162807189 28632.233001424203,77336.85434685145 28781.35921504736,77530.71842424305 29042.330088684186,77749.43687055948 29044.81552565074,77863.766967836 28925.514554811474,77928.38832696654 28803.72814700565,77948.27182232862 28699.33979752129,77953.24269581732 28264.388341336464,77918.4465793966 28068.03882683017,77893.59221032361 27941.28154538752,77933.35920089965 27787.184458053463,77923.4174533297 27414.36892418075,77799.14560870547 27163.339797965724,77719.61162829411 27039.067953341484,77759.37861812943 26964.504846566942,77868.73784147283 26904.85436114731,77963.18444338725 26795.49513787798,78072.54366695287 26730.87377874745,78211.72813263572 26628.970866081505,78410.56308418265 26507.184458423824,78544.7766764509 26415.223293401887,78758.52424927865 26320.776691487466,79076.66017159077 26184.077662326734,79524.03881194173 26109.514555626265,79822.29123933619 26124.42717698117,79921.70871488744 26206.446594433168,80045.98055951168 26238.75727403547,80185.1650255649 26119.456303196202,80349.20386032075 25838.601934271355,80597.74754956922 25560.233002387136,80836.34949124775 25500.58251689343,80915.88347188133 25271.922322784834,81089.86405413305 25157.592225730536,81234.01939419346 24849.398051062428,81581.98055899318 24725.12620643819,81701.2815296843 24469.126206512265,81944.85434551816 24158.44659495167,82272.932015178 23894.99028434829,82541.35919956636 23651.417468884785,82779.96114124489 23318.368925365903,83058.33007298097 23089.708731257306,83202.48541274508 22870.990284644577,83326.75725736932 22647.30096432095,83545.47570390797 22455.922323599625,83873.55337379003 22393.786401287507,84082.33007268468 22378.873779932597,84405.43686892992 22286.912614984736,84798.13589772029 22175.06795474885,85031.76696591014 22095.53397426341,85121.24269389144 21976.233003424142,85210.71842216904 21834.56310047844,85300.19415037255 21645.66989672367,85489.08735390511 21551.22329473518,85543.76696546571 21156.038828830107,85777.39803365555 21056.621353130715,85812.19414985405 20765.825236784072,85876.81550928087 20634.097081408312,85906.64075176847 20542.135916460447,85986.17473240205 20271.223295105538,86299.33978078107 20206.601935975006,86428.58249933842 20201.631062190037,86632.38832459624 20057.47572235185,86846.135897424 19796.504848715023,87020.11647989793 19684.66018847914,87149.35919801085 19508.194169112725,87482.40774175194 19398.834945917468,87790.60191627192 19324.271839068853,88083.88346951104 19252.194169186794,88342.36890655167 19195.029120659645,88436.81550824388 19098.09708192681,88516.34948887746 18976.31067412099,88605.82521708097 18986.25242169093,88700.27181921761 18988.737858657485,89018.40774152974 18919.14562559384,89311.68929476886 18861.98057706669,89689.47570205618 18866.951450851662,89992.69900330968 18879.378635314086,90330.71842053946 18914.17475180887,90683.65045905007 18961.398052766082,90976.93201251142 19093.126208141843,91260.27181818061 19277.04853811164,91538.6407501389 19508.194169112725,91802.09706066821 19759.223295253683,92030.75725499901 20104.699023309062,92229.59220654595 20427.80581940615,92403.57278887174 20783.223294957395,92587.49511898967 21133.669896871816,92746.56308025683 21449.32038221738,92910.6019147164 21782.36892573626,93059.72812863585 21906.640770360496,93104.4659926265 22068.194168372007,93134.2912351141 22194.9514499628,93134.2912351141 22386.330090684125,93129.32036169949 22769.087372126774,93104.4659926265 22873.475721611132,93094.52424505656 23117.04853714871,93074.64074984261 23507.26212912067,93134.2912351141 23576.854362184313,93213.82521574768 23410.330090387837,93338.09706037192 23318.368925365903,93472.3106527883 23186.64076999014,93502.1358955722 23022.60193516022,93502.1358955722 22925.66989627924,93492.19414800227 22455.922323599625,93417.6310407833 21943.922323747767,93372.89317679264 21792.310673306198,93392.77667193252 21630.757275368764,93437.51453614538 21461.74756660573,93502.1358955722 21305.16504237919,93517.04851655675 21004.42717853668,93541.90288540753 20765.825236784072,93606.52424498249 20400.466013514746,93835.18443886888 20094.75727573912,94043.9611380598 19784.07766417853,94247.76696331763 19612.582518597083,94441.63104070922 19565.35921763987,94546.01938997136 19552.93203325152,94650.40773945572 19610.09708177867,94829.35919586277 19632.46601373696,95018.25239961753 19726.91261565138,95077.90288511124 19873.55339230798,95311.53395307888 19948.116499230666,95371.18443835036 20054.990285533437,95405.98055477109 20442.718440686986,95475.57278783472 20723.572809611833,95490.48540955999 20875.18445997933,95465.631040487 21034.252421172427,95415.92230234102 21399.61164429361,95256.85434129607 21762.48543059638,95097.78638047334 21909.126207327055,95072.93201147442 22070.679605338562,95072.93201147442 22189.98057617783,95092.8155066143 22319.223294587035,95137.55337060495 22617.475721611132,95296.62133187211 22719.378634203007,95331.41744829282 23228.89319716238,95351.30094321049 23450.09708059352,95415.92230234102 23559.45630386285,95500.42715690771 23696.15533302358,95679.37861309254 23872.621352389997,95818.56307921984 24031.68931350902,95898.09705985342 24180.815526984035,95922.95142863013 24513.86407065106,95932.89317620006 24881.708730738803,96002.48540904149 25319.145623742046,96206.29123452153 25455.84465290278,96300.73783621374 25505.5533906784,96395.18443835036 25475.728147968584,96519.4562829746 25356.427177129317,96797.82521471068 25289.320381032227,96917.12618562402 25160.07766262302,97155.72812708034 25033.3203811063,97473.86404939246 25155.106788838053,97856.62133083511 25341.514555774407,98194.64074850932 25426.01941019296,98308.9708453414 25580.116497527015,98453.12618532772 25709.35921593622,98537.63103945 26077.203876023963,98731.49511713788 26303.378633166,98880.62133083511 26440.077662326734,98994.95142759311 26601.631060338244,99154.01938886028 26611.572807908182,99253.43686470782 26539.495138026123,99392.6213303166 26395.33979818794,99591.45628215981 26370.48542926309,99685.90288400016 26377.941740014616,99795.26210719542 26457.475720500057,99884.73783539895 26556.893196199446,99994.0970582979 26768.155332060647,100237.66987383549 26835.262128157738,100356.97084482289 27049.009700911425,100600.54366013825 27287.61164258996,100834.17472840218 27565.98057454825,101033.00967950467 27660.427176462672,101062.83492243671 27747.417467699637,101157.2815241289 27702.67960363491,101346.17472788368 27782.213584268495,101475.41744644103 27854.29125415055,101540.03880557156 28043.18445790532,101579.8057961476 28309.12620547526,101679.22327169885 28724.19416652021,101728.93200932634 28915.572807241537,101743.84463060717 29019.961156799967,101788.58249482003 29114.40775856624,101972.50482493798 28992.62135090856,102012.27181521774 28845.98057417789,102032.15531043168 28706.796108198745,102066.95142707461 28614.83494325088,102161.39802869275 28502.990283015,102191.22327169885 28363.805817035853,102280.69899968016 28227.106788023262,102290.6407472501 28122.718438538905,102295.61162110914 27958.67960356084,102360.23298031374 27871.689312323873,102315.49511632309 27792.155331838432,102235.9611356895 27660.427176462672,102295.61162110914 27523.72814737601,102414.91259187434 27352.233001868633,102454.67958193188 27247.844652384276,102439.76696094732 27121.08737079348,102375.1456012983 26947.106788393623,102295.61162110914 26805.436885447918,102240.93200910412 26698.563099145147,102156.42715505592 26517.12620599376,102037.12618406852 26186.563099293293,101902.91259187434 26072.233002238994,101892.9708443044 25950.446594433168,101922.79608723643 25699.417468366282,101977.47569857481 25319.145623742046,101987.41744644103 25083.029119030067,101937.70870829505 24988.582517041574,101902.91259187434 24797.20387632025,101828.34948539609 24451.72814833894,101589.74754349532 24138.563099811792,101371.02909673446 24011.805818369143,101346.17472788368 23840.3106727877,101346.17472788368 23638.990284496434,101380.9708443044 23604.194167927573,101490.33006794409 23581.825235969285,101594.71841713216 23392.932032066372,101599.68929106527 22980.349507913907,101500.27181551402 22853.592226397184,101440.6213297981 22716.893197384594,101366.05822331985 22339.106789726913,101127.45628164131 22182.524265426302,101018.09705822384 21946.407760714326,100863.99997066757 21755.029119993,100913.70870881356 21608.3883433364,100983.3009415809 21379.728149153732,101097.63103863521 21203.262129787316,101097.63103863521 21051.650479345746,101107.57278620514 20673.864071688065,101167.22327169885 20320.932033103378,101326.29123274381 19843.728149672235,101455.53395152336 19562.873780747388,101584.77666956221 19239.76698472437,101773.6698735392 18936.543683915304,101907.88346580745 18834.64077132343,101957.59220343494 18638.291256743065,102096.77666956221 18528.932033547808,102136.54365984198 18148.66018892357,102275.72812574705 18056.699023975707,102305.55336867907 17753.4757230185,102484.50482493798 17639.1456259642,102544.15531035762 17519.844655124933,102643.57278590887 17415.456305714644,102613.74754297682 17321.009703800224,102534.21356256546 17214.135917497453,102504.38832007785 16809.009703948366,102449.70870851727 16699.65048067904,102399.99997037128 16570.40776226983,102395.02909666038 16237.359218602805,102429.82521330331 15817.320383772885,101634.4854077082 15367.456306233147,101281.55336875316 14651.650481197541,100903.76696116955 14112.310675602424,100580.66016499838 13732.038830978188,100242.64074754638 13346.796112643053,100088.54366065677 13145.475724351789,100272.46599047842 12857.16504482356,100481.24268944714 12429.669899464328,100580.66016499838 12059.339802335959,100640.31065071431 11537.398054988234,100859.02909695667 11005.5145599965,100973.35919401098 10090.873783488043,100779.49511654531 9633.553395418996,100625.39802898903 9081.786405139239,100804.3494856183 8703.999997481558,100988.27181529181 8261.592230619275,101033.00967950467 7381.747570679678,100883.88346580745 6887.145629075214,100784.4659902562 6710.679609708798,100769.55336897536 6057.009706985311,100769.55336897536 5435.650483864126,100854.05822331985 4955.961163688643,100938.56307781248 4804.349513173002,101261.66987383549 4672.621357945382,101589.74754349532 4347.02912495581,101887.9999705935 4001.5533969004314,102206.13589268341 3536.776698005785,102588.89317412605 3086.912620540119,102916.97084423032 2642.01941678535,102986.56307684953 1958.5242713520468,102807.61162066471 1275.0291259187434,102514.33006742559 241.08737857101977,102171.3397764849 -546.796116272571,101833.32035881068 -1478.8349509543484,101574.83492199228 -2527.6893196569804,101390.91259209655 -3390.1359212751136,101271.61162118321 -4041.320387180187,101137.39802921125 -4871.456309196018,101072.77667008073 -5557.4368915958785,100943.53395130116 -6166.368930180568,100600.54366013825 -6797.669900871691,100327.1456023353 -7585.553395863426,100009.00968002318 -8042.873784080618,99889.70870881356 -8629.436890632946,99621.2815244252 -9220.970871044314,99233.55336927166 -9432.233006905517,99193.78637921411 -10172.893200865969,99193.78637921411 -11022.91261809575,99144.07764106813 -11708.89320049561,99024.77667059923 -12501.747569198242,98865.70870933206 -12799.99999629641,98751.37861205555 -13237.436889373725,98587.33977759597 -13988.038830904115,98214.52424372327 -14206.7572773687,97826.7960883475 -14736.155335542022,97762.17472921697 -15675.650480901255,97831.76696220654 -16637.51455829285,97737.32036014399 -17467.650480382752,97702.52424372327 -18049.24271315011,97588.19414644675 -18553.786402398582,97299.88346706667 -19259.650479716107,97255.1456028538 -19985.39805239572,97225.32036014399 -20557.048537741284,96857.4757004266 -21014.368925958475,96713.32036058842 -21369.786401583795,96698.40773915943 -22023.45630430728,96763.02909806775 -22806.368925439972,96897.24269026192 -23320.854362110244,96941.9805544748 -23832.854361962098,96932.03880690485 -24501.436886040494,96763.02909806775 -25065.63106063453,96713.32036058842 -25945.475720574126,96857.4757004266 -26907.339798039793,97086.13589446113 -27225.475720277842,97061.28152546221 -27563.495137655766,97170.64074858339 -28271.844652013915,97155.72812708034 -28766.446593470235,97190.52424372327 -29303.300962395082,97354.56307892354 -30362.09707851951,97951.06793297174 -30687.689311435013,98224.46599129321 -31172.349505543607,98507.80579696239 -31445.74756371693,98786.17472869848 -31888.15533057921,98274.17472869848 -33078.679602079406,96892.27181684732 -33339.650475716226,96469.74754482863 -33496.23300001684,96181.43686544853 -33595.650475716226,95992.54366147156 -33670.2135824167,95729.08735123853 -33826.79610664324,95291.65045771678 -33988.349504728816,95023.22327332843 -50133.74755830969,84624.1553153945 -51933.203868394565,82735.22327725423 -63845.902894148,78485.12619095719 -67777.86405798479,76526.601919457 -73703.14560974248,73926.83493014018 -79516.5825011902,69582.29124200277 -87698.64075124997,63005.82522448816 -93944.5436621382,56205.66988657584 -95050.56307921984,55002.71843061322 -95333.90288503717,55087.223284957705 -95821.04851596418,55191.61163466428 -95950.29123437338,55236.349498654934 -96253.51453525652,55450.09707148269 -96494.60191367939,55624.077653734406 -96772.97084578584,55822.9126053554 -96907.18443798,55897.47571183366 -96994.17472921697,55942.21357626874 -97359.53395233816,56096.310663676864 -97595.65045719828,56215.611634145775 -97705.00968046761,56275.2621198617 -98072.85434055535,56389.592216916 -98246.83492302928,56429.35920697353 -98639.5339519678,56593.398042173816 -98753.8640490221,56623.2232844392 -98920.38832089264,56658.01940108213 -99114.25239850646,56643.10677957908 -99253.4368644856,56633.16503200914 -99387.65045667978,56633.16503200914 -99559.14560226123,56638.13590616447 -99656.07764106813,56667.961148652066 -99772.89317494084,56717.66988679805 -99902.13589335005,56802.17474084625 -100016.46599040435,56876.737847843004 -100389.28152427706,57005.98056588185 -100501.12618451295,57065.631051597775 -100709.90288340759,57165.04852714902 -100801.8640485036,57224.699012642726 -100906.25239783981,57319.14561470529 -101013.1261843648,57373.82522633995 -101042.95142707461,57463.300954543476 -101075.26210667692,57582.60192501238 -101187.10676676466,57691.961148578 -101356.1164755277,57806.291245632296 -101438.13589297968,57885.82522582145 -101545.00967928246,57975.30095402497 -101582.29123274381,58074.71843009472 -101830.83492199228,58248.69901212422 -101997.35919378875,58492.27182795808 -102188.73783451007,58770.64075969416 -102352.77666934,58974.44658495198 -102390.05822280134,59103.68930321304 -102439.76696057696,59222.990274200456 -102628.66016447988,59416.85435188834 -102820.0388052012,59809.553380678706 -102902.0582226532,59928.85435181426 -103068.58249444969,60107.805808073164 -103118.2912322253,60207.22328362441 -103212.7378342138,60251.96114783728 -103322.09705748312,60276.81551668805 -103411.57278561257,60311.611633330984 -103486.13589231305,60381.203866098345 -103573.12618355,60485.592215360484 -103679.99997000092,60664.54367198975 -103826.64074650938,60793.78639032488 -103940.97084363776,60927.99998229684 -104112.4659892192,61082.097069630894 -104370.95142603762,61290.87376882183 -104385.86404731845,61609.00969113395 -104433.08734834973,61693.514545182145 -104557.35919297396,61837.669884946255 -104723.88346477045,62001.70871992432 -104845.66987257627,62260.194156742735 -104959.99996963056,62419.262117787686 -105066.87375600741,62588.271826402575 -105146.40773656692,62742.368913958846 -105225.94171705237,62831.84464194015 -105310.44657147091,62916.34949628463 -105611.18443546156,63060.50483604875 -105911.92229945223,63174.83493310305 -106235.02909540116,63184.776680672985 -106349.35919245546,63274.25240909872 -106356.81550320699,63428.349496506846 -106322.0193867122,63522.7960983472 -106329.47569731559,63766.36891373663 -106406.52424098262,63870.757263146916 -106709.74754193983,64024.85435055504 -106940.89317294091,64268.42716609262 -107067.65045445763,64427.49512691535 -107278.91259031883,64541.82522396965 -107418.09705629798,64566.679593042645 -107631.84462905166,64586.563087960305 -107920.1553085799,64715.805806739874 -108024.54365806426,64775.456292159506 -108173.66987161334,64825.16502963884 -108270.60191034617,64845.04852477872 -108459.49511424908,64825.16502963884 -108566.36890055185,64790.368913218124 -108693.12618214265,64780.42716564819 -108909.35919178881,64785.39803980352 -109008.7766674882,64805.28153472118 -109108.19414303945,64850.01939893405 -109190.21356063959,64929.553379345416 -109282.17472566153,65038.912602466604 -109384.07763817933,65083.65046645726 -109602.79608479206,65033.94172905199 -109719.61161866477,64964.34949598835 -109841.39802647059,64919.61163199769 -109970.6407448798,64904.69901027242 -110067.57278361263,64929.553379345416 -110181.90288066694,65048.85435003654 -110253.980550549,65118.44658310019 -110455.30093884026,65138.33007846228 -110562.17472529117,65078.679593042645 -110716.27181262523,64994.17473847595 -110825.63103589455,64984.232990906006 -110922.56307470145,65009.087359979 -111230.75724936956,64994.17473847595 -111327.68928817647,64919.61163199769 -111417.16501630592,64884.81551535476 -111633.39802595209,64845.04852477872 -111812.34948213692,64840.07765136411 -111976.38831711498,64790.368913218124 -112339.26210326962,64646.21357367623 -112659.88346254829,64427.49512691535 -112965.59220032391,64208.776680672985 -113082.4077342707,64059.650466975756 -113171.88346240015,64004.970855415166 -113268.81550120705,63975.14561240906 -113373.20385069141,63905.553379789846 -113465.16501571334,63776.31066130657 -113467.65045260583,63468.11648634217 -113490.01938456412,63353.786389287874 -113569.5533651977,63259.33978766974 -113661.51453014556,63224.54367124903 -113793.24268552133,63184.776680672985 -113984.62132624266,63115.184447831554 -114081.55336504956,63045.5922150642 -114180.97084074895,63040.621340908874 -114290.33006401829,63065.47570998186 -114389.74753956952,63080.388331188624 -114697.94171438577,63075.4174575518 -114809.78637447352,63015.766972058096 -114866.95142300066,62886.52425379703 -114966.36889870005,62881.55337986392 -115108.03880164576,62861.669884946255 -115219.8834617335,62787.106778171714 -115306.87375297047,62677.747554606096 -115443.5727821312,62384.46600136697 -115602.64074317615,62165.747555050526 -115704.54365584209,62135.9223121185 -115856.15530620959,62091.18444790563 -115960.54365569395,62036.50483656725 -116052.50482071588,61976.85435085133 -116134.52423824195,61887.37862287003 -116228.9708400823,61867.49512795236 -116646.52423809381,61862.52425379703 -116793.16501467634,61792.93202117782 -116937.32035436638,61708.42716668519 -117054.13588846131,61604.03881697862 -117190.83491754797,61454.91260350361 -117295.22326695826,61435.02910836373 -117479.1455970762,61395.262118306186 -117645.66986887268,61365.43687530008 -117779.88346106686,61385.32037066218 -118035.8834609187,61370.407749455415 -118165.12617932791,61290.87376882183 -118279.45627638222,61201.398040618304 -118334.13588809095,61111.922312637 -118684.5824899313,60972.7378462875 -119002.71841216934,60714.2524096913 -119335.76695568823,60500.504837085755 -120063.99996526033,60306.64075917566 -120168.38831459655,60237.04852611201 -120292.66015922079,60152.54367206382 -120414.44656710068,60107.805808073164 -120575.99996511219,60063.06794408251 -120675.41744081158,60033.24270107641 -120958.75724655483,59963.65046801276 -121115.33977078137,59938.796099458275 -121202.33006201834,59879.14561396457 -121371.33977063323,59734.990274200456 -121498.09705222402,59516.27182743958 -121714.33006187019,59222.990274200456 -121788.89316864473,59163.33978870675 -121918.13588705394,59108.66017692394 -122154.25239184,59053.98056558556 -122273.55336267926,59014.21357523173 -122499.7281198213,58879.999982815345 -122770.6407411762,58810.40775019613 -123153.39802261886,58810.40775019613 -123327.37860501872,58785.55338119721 -123416.85433314818,58701.04852663051 -123327.37860501872,58566.83493443634 -123309.9805468454,58467.417458885095 -123309.9805468454,58174.13590564596 -123305.00967306043,57965.35920645503 -123277.6698672431,57860.97085697067 -123086.29122652177,57587.57279916771 -122889.94171201548,57393.70872147983 -122686.13588675766,57239.61163384949 -122556.89316834846,57165.04852714902 -122432.62132372422,57130.25241050609 -122298.40773153004,57075.5727989455 -122149.28151805502,56986.09707096419 -122017.55336267926,56896.62134298288 -121930.5630714423,56861.82522633995 -113678.91258846704,43564.73785154659 -115418.71841320636,39945.941735940665 -120894.13588727616,29681.087370274978 -120608.31064471448,27225.475720277842 -120747.49511069364,26897.398050395783 -120819.57278057569,26817.8640697622 -121080.54365421251,26499.72814789451 -121157.59219787954,26300.893196125373 -121209.78637262172,26057.320381032227 -121227.18443094319,25783.922322710765 -121284.34947947034,25689.475720574126 -121488.15530465408,25381.28154627638 -121577.63103270947,25078.058245022883 -121711.84462490364,24740.0388277931 -121704.38831430026,24630.679604671917 -121691.96112976376,24526.29125496534 -121739.18443072097,24143.53397352269 -121875.8834598817,23840.31067293584 -121938.01938219383,23601.70873103509 -121980.27180936607,23273.63106115303 -122062.29122681807,22950.524265426302 -122171.65045008739,22647.300964543167 -122271.0679257127,22508.116498489948 -123794.64074080586,19078.21358663879 -123896.54365332365,19003.650479938322 -123986.01938152718,18943.999994444617 -124169.94171164512,18894.291256817138 -124291.7281193028,18869.43688796636 -124490.56307077565,18774.990285829725 -124664.54365317551,18645.747567568662 -124763.96112894897,18635.80581992465 -124885.74753660665,18610.951451147946 -125052.27180840314,18610.951451147946 -125149.20384728411,18610.951451147946 -125335.61161422047,18615.922324562558 -125467.33976944808,18625.864072354714 -125730.79608005147,18620.893198717888 -125894.83491502953,18581.126208141843 -126029.0485072237,18541.359218084304 -126148.34947806297,18526.446596581252 -126272.6213226872,18481.70873236838 -126401.86404109641,18441.941742533058 -126752.31064293676,18243.106790689846 -126849.2426816696,18203.339800632308 -126946.17472055058,18163.572810500693 -127038.13588557251,18143.689315138603 -127147.49510884185,18049.242713446398 -127043.10675935748,18014.446596803467 -126938.71840987312,17939.88348988078 -126926.29122533662,17825.55339282648 -126978.4854000788,17696.310674787634 -127040.62132239093,17507.41747073658 -127072.93200206729,17373.20387832019 -127080.38831274475,17278.757276702054 -127038.13588557251,17179.339801076738 -127010.79607975518,16980.5048493076 -126956.11646812051,16866.1747522533 -126913.86404094828,16746.873781784394 -126903.92229337833,16587.805820517227 -126906.40773019675,16234.873781562177 -126809.47569146391,16105.631063227043 -126687.6892836581,16165.281548720748 -126526.13588572065,16334.291257335639 -126436.6601575912,16374.058247911682 -126163.26209941789,16388.970869118446 -125932.11646834273,16294.524267278099 -125763.10675972785,16150.368927439911 -125671.1455947059,16041.009704096512 -125651.26209956603,15862.058247689467 -125698.4854003751,15742.757277220559 -125748.19413837293,15648.310675083922 -125628.89316753366,15568.776694450338 -125703.4562743082,15479.300966469033 -125862.52423542723,15369.941743347847 -125951.99996355668,15245.66989872361 -126024.07763343873,15151.223296586975 -126006.67957519135,15056.77669489477 -125902.29122563291,15066.71844246471 -125678.60190530929,15071.68931595339 -125559.30093447001,14852.970869414734 -125507.10675972785,14738.640772360435 -125435.02908984578,14569.631063967761 -125248.62132290943,14271.378636869591 -125010.01938123089,13983.067957045076 -124890.71841031755,13893.592228841553 -124768.93200273394,13828.970869711022 -124622.29122600328,13774.291258372645 -124396.11646886123,13679.844656236008 -124256.93200288208,13585.398054617875 -124177.3980222485,13495.922326118065 -124080.46598351566,13411.417471847657 -123986.01938152718,13376.621355204727 -123804.58248837579,13436.271840920648 -123565.98054669726,13490.95145248124 -123357.20384780261,13505.864073984292 -123213.04850789036,13485.980578548128 -123031.61161488711,13297.087374793358 -122962.01938189754,13222.524268315103 -122738.33006149984,13093.281549535537 -122648.85433337039,13043.572811833987 -122507.18443057283,12874.56310299688 -122417.70870244337,12780.116501378749 -122300.8931684966,12730.407763232766 -122094.60190627222,12780.116501378749 -121793.8640424297,12819.883491658504 -121378.79608138476,12755.262132083542 -121038.2912269662,12750.291258372645 -120906.56307181266,12705.553394604205 -120822.05821739411,12626.019413748407 -120707.7281203398,12526.601937974945 -120595.88346025207,12397.359219936097 -120493.98054766019,12342.679608375505 -120270.29122733657,12327.766986872453 -120111.22326621754,12223.378637165879 -119800.54365465695,12223.378637165879 -119410.33006253684,12089.165044971704 -119064.85433448147,11964.893200347466 -118962.95142181552,11920.155336356813 -118873.47569376013,11850.563103293169 -118828.73782962134,11761.087375089646 -118726.83491710354,11676.58252096738 -118470.83491710354,11656.699025605287 -118299.33977152209,11646.757278035348 -118165.12617932791,11602.019414044695 -117966.2912280032,11398.213588786874 -117896.69899493956,11283.883491732575 -117929.00967461594,11154.640773693727 -117884.27181055122,11050.252423987153 -117623.30093684031,11005.5145599965 -117523.88346106686,10930.951453221958 -117307.65045149476,10975.689317508899 -117185.86404361486,11025.398054914163 -116996.97083993416,11025.398054914163 -116890.09705355731,10916.038832015192 -116716.11647100931,10627.728152190675 -116658.95142248216,10548.194171779307 -116589.35918956666,10483.57281242656 -116390.52423816788,10210.174754549527 -116199.14559744656,9901.98057988142 -116151.92229641527,9817.475725314722 -116141.98054891941,9534.13591942332 -116201.63103433905,9320.388346817774 -116400.46598566374,8992.310676935716 -116475.02909251237,8917.747570457463 -116631.6116167389,8753.708735257182 -116698.718412836,8669.203881208989 -116822.99025746023,8475.339803521107 -116835.41744184858,8241.708735775685 -116780.737830288,8018.019415081699 -116651.49511187879,7704.854366702693 -116479.99996629733,7386.718444390575 -116477.51452933077,7148.1165027120405 -116460.11647115745,7023.8446580878035 -116402.95142263031,6899.5728134635665 -116256.3106459737,6730.563105070891 -116072.38831592984,6417.398056247454 -116012.7378305102,6327.922328266148 -115913.32035473674,6258.330095202503 -115687.1455975947,6238.44660028484 -115269.59219965727,6233.475726573943 -115100.58249089423,6233.475726573943 -114700.42715113012,6213.59223121185 -114431.99996681584,6193.7087362941875 -114049.24268537319,6134.058250578266 -113668.97084089709,6084.349512876715 -113286.21355945444,5989.902911036366 -113102.29122933651,5885.514561329792 -112958.13588964645,5820.893202421476 -112744.3883168187,5721.475726648015 -112560.4659868489,5681.7087360719715 -112446.1358897946,5666.796114791136 -112048.46598699705,5587.262134379767 -111891.88346277051,5532.582522596959 -111775.06792874965,5492.815532539419 -111606.05822013476,5477.902911036366 -111220.81550165148,5433.1650468234975 -110793.32035629226,5403.339804335897 -110398.1358903131,5323.805823924528 -110032.77666719192,5184.6213575750235 -109669.90288088915,5020.582523115461 -109331.88346343715,4831.689319064406 -109006.29123052165,4632.854367517483 -108680.69899768021,4414.135920978826 -108370.01938611963,4195.417474736456 -108089.16501719478,3971.728154264686 -107825.7087065914,3748.038834089203 -107599.53394944935,3489.553397048575 -107383.30093980319,3241.009707800101 -107167.06793008294,2962.6407760640254 -106930.95142537096,2684.271843809447 -106704.77666815485,2395.9611642812174 -106466.17472647631,2052.970873118323 -106418.9514255191,1869.048543296668 -106369.24268759534,1685.1262131787255 -106210.17472647631,1411.7281548572605 -106105.78637699196,1237.7475725314723 -106053.59220224978,1023.9999999259283 -105926.83492080713,740.6601940345242 -105802.5630761829,432.46601936641656 -105698.17472669853,114.33009705429804 -105581.35919275176,-193.8640776878815 -105447.14560055757,-487.145630927009 -105340.27181410666,-755.5728153153609 -105238.36890158885,-1058.7961161244275 -105106.64074621309,-1436.5825239302515 -105034.56307633103,-1724.893203236266 -104977.39802780388,-1878.9902906443915 -104825.7863774364,-2192.1553392456126 -104644.349484285,-2505.3203874024025 -104510.13589194269,-2778.7184459460827 -104361.00967846767,-3012.3495134692894 -104296.38831933714,-3146.563105663465 -104229.28152324005,-3444.815533057921 -104117.43686300417,-3817.631066930632 -103978.25239702502,-3991.6116492564206 -103645.20385350614,-4235.184464793997 -103257.47569820445,-4344.543687915182 -102877.20385372835,-4434.019415896489 -102414.91259165212,-4603.029124807666 -102161.39802869275,-4682.563105144963 -101781.12618414259,-4891.339804558112 -101631.99997051942,-5085.203882023778 -101398.36890262587,-5279.06795971166 -101331.26210652877,-5378.48543548512 -101455.533951153,-5428.194172890385 -101823.37861124075,-5627.0291247335945 -101887.99997051942,-5711.533978781788 -102158.91259180027,-5950.135920460324 -102308.03880534935,-6094.291260298511 -102350.29123252159,-6193.7087358497565 -102330.40773730764,-6342.834949546985 -102365.20385387649,-6437.281551387333 -102561.5533683828,-6536.699026938579 -102608.77666934,-6631.14562929743 -102556.58249459782,-6715.650483419696 -102464.6213295759,-6740.504852196399 -102375.14560144643,-6680.854366776765 -102293.12618399443,-6601.320386365397 -101912.85433944427,-6571.495143581508 -101808.46598988584,-6526.757279590855 -101517.66987346513,-6233.475726129513 -101284.03880564563,-5994.873784450977 -101023.06793193474,-5726.44660028484 -100936.07764069777,-5656.854367221196 -100844.1164755277,-5617.087377163656 -100727.30094172906,-5577.320386587613 -100632.85433974056,-5567.378639017674 -100411.65045638349,-5646.912619651257 -100076.11647589804,-5840.776697339139 -99805.20385454314,-6059.49514365558 -99554.17472847625,-6313.009706763096 -99313.08734983117,-6561.55339601157 -99057.08734997931,-6820.038832829982 -98811.02909754925,-7088.466017292406 -98597.28152479556,-7337.00970654088 -98393.47569968588,-7605.4368911514475 -98212.0388065345,-7878.834949250697 -98070.3689035888,-8162.174754623598 -97888.9320104374,-8460.427182018055 -97722.40773864093,-8743.76698790946 -97578.25239887682,-9071.844657569301 -97540.97084548954,-9206.058249763477 -97371.96113687466,-9648.466016699833 -97354.56307855318,-10036.194171631165 -97309.82521456253,-10125.669900056902 -97006.60191367939,-10344.388346299273 -96758.05822443092,-10602.873783117686 -96616.3883215593,-10906.097084000823 -96529.39803032232,-11214.29125866893 -96390.21356434318,-11497.631064560335 -96350.44657398935,-11592.07766669697 -96355.41744777432,-11930.097083926752 -96432.46599136728,-12342.679607857002 -96482.17472936511,-12576.310676120927 -96462.29123422524,-12695.611646589836 -96310.67958378367,-12988.89320005118 -96101.90288474088,-13262.291258372645 -96054.67958378367,-13351.76698635395 -95999.99997222307,-13659.961161096131 -95823.53395285665,-14027.805821035729 -95823.53395285665,-14345.941743347847 -95955.26210815835,-14674.019413229904 -96086.99026338597,-14952.38834496598 -96188.89317605192,-15091.572811093269 -96305.7087099987,-15260.58251970816 -96504.54366139747,-15548.893199310462 -96598.99026323782,-15658.25242265386 -96787.88346714074,-15881.941742829344 -96966.83492332557,-16041.009704096512 -97371.96113687466,-16379.029121326292 -97918.75725314723,-16806.524266759596 -98246.83492302928,-16995.417470588436 -98371.10676765352,-17050.09708259346 -98748.89317523713,-17139.572810574766 -99029.74754416198,-17199.22329606847 -99154.01938878621,-17209.16504363841 -99250.95142751904,-17084.893199014175 -99327.99997118607,-16861.20387832019 -99362.79608775493,-16771.72815033888 -99447.30094202534,-16712.077665141464 -99566.60191286461,-16707.10679120835 -99668.50482553056,-16751.844655199002 -99718.21356338025,-16861.20387832019 -99857.39802935939,-16980.504849529814 -99835.02909725296,-17094.834946584113 -99705.78637884375,-17079.92232508106 -99670.99026242305,-17169.398053062367 -99675.961136208,-17263.844655199002 -99812.66016529467,-17547.184461090408 -99765.43686433746,-17641.63106270854 -99566.60191286461,-17567.067956230287 -99427.41744695953,-17532.271839587356 -99325.51453436766,-17601.864072651 -99375.22327214328,-17840.466014329533 -99380.19414592825,-18163.572810056263 -99554.17472847625,-18496.621353649218 -99805.20385454314,-18770.019411970683 -100018.9514273709,-19083.184460571905 -100200.3883205223,-19301.902906814274 -100476.2718155881,-19560.388343928975 -100605.5145339973,-19838.757275887267 -100729.78637862153,-20132.03882912639 -100794.40773782614,-20231.45630467764 -100958.44657265606,-20385.553392085763 -101249.24268907678,-20594.330091202628 -101507.72812589518,-20867.728149301875 -101592.23298031374,-21036.737858138982 -101602.17472788368,-21359.84465386571 -101545.00967928246,-21658.097081260166 -101490.33006772186,-21981.203876986896 -101465.47569864888,-22314.252420802066 -101472.93200947448,-22513.08737190456 -101371.0290968826,-22741.74756623537 -101189.59220373121,-22811.339799299014 -101062.83492214042,-22711.922323303337 -100871.4562814191,-22552.8543624806 -100764.58249511632,-22503.145624556833 -100573.203854395,-22488.23300305378 -98900.50482575277,-22662.213585824004 -98520.23298112853,-22701.980575659327 -98107.65045705014,-22741.74756623537 -97697.55336971609,-22781.51455629291 -97289.94171942266,-22791.456304159135 -96887.30094284013,-22751.68931380531 -96482.17472936511,-22672.155333171726 -96124.27181684732,-22642.330090684125 -95699.26210823242,-22642.330090684125 -95281.70871029499,-22647.300964098733 -94839.30094335863,-22697.009702244715 -94419.26210852871,-22706.951449814656 -94014.13589512777,-22711.922323303337 -93584.1553127279,-22751.68931380531 -93181.5145360713,-22781.51455629291 -92766.4465749523,-22781.51455629291 -92473.16502171315,-22741.74756623537 -92095.37861412956,-22721.86407087328 -91692.73783754703,-22726.834944732316 -91292.5824977829,-22726.834944732316 -90907.33977952185,-22726.834944732316 -90512.15531361678,-22687.067954674778 -90136.8543427775,-22607.533974041195 -89778.95143025971,-22448.466012996243 -89672.07764395693,-22413.669896575528 -89440.93201295585,-22408.699022420198 -89319.14560515003,-22433.55339149319 -88909.04851789004,-22587.6504786791 -88789.74754697671,-22607.533974041195 -88364.73783850996,-22612.50484767802 -87981.98055691917,-22612.50484767802 -87576.85434359229,-22657.242711668674 -87226.40774167787,-22662.213585824004 -87012.66016899826,-22592.621352538143 -86649.78638269549,-22433.55339149319 -86267.02910125283,-22363.961158429545 -85946.4077421223,-22314.252420802066 -85531.33978107736,-22299.339799299014 -85093.90288792597,-22299.339799299014 -84649.0096841712,-22304.31067323213 -84532.19415029848,-22289.39805195129 -84166.83492702917,-22209.86407131771 -83791.53395633804,-22120.388343114184 -83386.40774286303,-22085.592226693472 -82991.22327688387,-22060.73785762048 -82601.00968483785,-22015.99999340761 -82203.33978189214,-21996.116498489948 -81383.14560752032,-21996.116498489948 -80617.63104463503,-21986.17475092001 -80180.19415148364,-21901.669896353313 -79919.22327784682,-21891.728148783375 -79519.06793815678,-21891.728148783375 -79183.53395767133,-21926.524265426302 -79039.37861790722,-21941.436886929354 -78619.33978307729,-21946.407760343965 -78221.66988020566,-21881.78640143565 -77806.60191923479,-21832.077663289667 -77411.4174533297,-21837.048537444996 -77033.63104567202,-21866.873779932597 -76611.10677380148,-21936.466012996243 -76228.3494924329,-22015.99999340761 -75788.42716246311,-22070.6796049682 -75395.72813345051,-21996.116498489948 -75005.51454140448,-21911.61164392325 -74866.33007535126,-21886.75727514655 -74376.69900760584,-21896.6990229387 -74215.14560952026,-21911.61164392325 -73849.78638639908,-21946.407760343965 -73752.85434744402,-22001.087372200847 -73683.26211460259,-22095.533974041195 -73581.35920201072,-22035.88348854749 -73462.05823117145,-21996.116498489948 -73347.72813411716,-22050.79611005054 -73273.16502726855,-22125.359216825083 -73367.61162925704,-22194.95144959244 -73531.65046408695,-22284.427177795962 -73578.87376511825,-22393.78640143565 -73499.33978448466,-22458.40776056618 -73397.43687189279,-22478.291255483844 -73278.13590105351,-22473.320381624802 -73183.68929913909,-22408.699022420198 -73086.75726033219,-22334.135915941944 -72987.3397846328,-22264.543682656084 -72788.50483330809,-22279.45630438135 -72741.28153235088,-22378.873779932597 -72723.88347402941,-22577.70873103509 -72559.8446391995,-22607.533974041195 -72452.97085282265,-22557.825236117427 -72368.46599847818,-22428.582517856365 -72254.13590142387,-22373.902906073556 -72187.02910532679,-22279.45630438135 -72144.77667815455,-22189.98057617783 -72055.30094995102,-22130.330090684125 -71926.05823154181,-22095.533974041195 -71538.3300763142,-22040.854362702816 -71262.44658124838,-22035.88348854749 -71073.55337749362,-22055.766983983653 -70946.79609590283,-22070.6796049682 -70812.58250370865,-22140.271838031847 -70506.87376593304,-22314.252420802066 -70235.96114472626,-22478.291255483844 -69927.76696998409,-22697.009702244715 -69706.56308662702,-22950.524264907803 -69420.7378439172,-23209.009701800285 -69331.26211578774,-23298.485430226025 -69112.54366932316,-23586.79610953204 -68854.05823250474,-23845.281546350452 -68595.57279553819,-24024.233002535282 -68217.78638795458,-24237.980575437112 -68148.19415503908,-24327.456303418418 -68150.6795918575,-24571.02911917821 -68217.78638795458,-24680.38834207718 -68419.10677631992,-25058.17475010522 -68438.9902714598,-25301.747565198366 -68535.9223102667,-25455.84465260649 -68690.01939752669,-25609.94174016276 -68772.03881497867,-25679.533973226404 -68744.69900923542,-25793.864070280702 -68652.73784413941,-25828.660186479203 -68558.29124229906,-25843.572807908182 -68274.95143648173,-25853.514555552192 -67971.72813567266,-25808.77669126525 -67847.45629104842,-25798.834943695314 -67688.38832992941,-25828.660186479203 -67273.32036888445,-25853.514555552192 -67017.32036888445,-25893.281546054164 -66967.61163110883,-25992.699021383196 -66714.09706807538,-26221.359215714005 -66776.2329903875,-26315.80581740621 -66813.51454377477,-26410.252419468776 -66825.94172816313,-26564.349506654686 -66808.54366998981,-26663.766982650362 -66868.19415540944,-26788.0388272746 -67042.17473773523,-26902.368924328897 -67188.8155144659,-26976.932031029366 -67290.7184269837,-27031.61164258996 -67370.25240761728,-27145.94173964426 -67327.99998044505,-27250.33008935083 -67236.03881549719,-27270.213584268495 -67134.13590290531,-27275.184458201606 -67081.94172816313,-27364.66018640513 -67014.83493206603,-27434.252419024342 -66925.35920393659,-27464.077661956377 -66838.36891269962,-27379.57280738968 -66796.11648552738,-27260.271836920772 -66676.81551468812,-27240.388341780894 -66587.33978648459,-27329.8640697622 -66398.44658272983,-27334.834943399026 -66361.16502934255,-27240.388341780894 -66207.0679420085,-27175.76698213186 -66169.78638862123,-27305.009700911425 -66125.0485245565,-27409.398050395783 -65963.49512654499,-27513.786399880144 -65632.93201984452,-27662.912613058867 -65516.11648582367,-27722.56309877479 -65493.74755386538,-27628.116496638155 -65585.70871888731,-27558.524263648582 -65665.24269937276,-27444.194166594283 -65687.61163147919,-27334.834943399026 -65488.77667993227,-27111.14562300133 -65371.96114613363,-27051.495137507623 -65051.3397870031,-27031.61164258996 -64927.06794237886,-27061.436885151634 -64519.45629201136,-27160.85436114731 -64119.30095232132,-27260.271836920772 -63935.378622129305,-27280.155331838432 -63552.62134076073,-27285.126205771547 -63172.34949628463,-27260.271836920772 -62834.33007883264,-27170.796108717248 -62461.51454495993,-27036.58251652307 -62093.669884872186,-26892.427176758956 -61710.91260350361,-26743.300963283946 -61549.359205418026,-26658.796108717248 -61454.91260357768,-26604.116497156654 -61027.417458070304,-26390.368924551112 -60674.4854192634,-26146.796109013536 -60599.92231256293,-26047.378632943786 -60572.582506745595,-25903.223293401887 -60580.03881727491,-25609.94174016276 -60686.912603799894,-25381.28154583195 -60873.32037073625,-25122.796109013536 -60952.85435114762,-24774.834944436032 -60950.368914403276,-24471.611643404747 -61089.55338038242,-24272.776691783754 -61154.174739587026,-24198.2135853055 -61169.087360941936,-23984.46601247774 -61121.86405998472,-23855.22329392039 -61042.33007935114,-23671.300964098733 -61027.417458070304,-23576.854362184313 -61005.048525963866,-23278.60193478986 -60982.679594005574,-23179.18445923861 -60888.23299209116,-23030.058245541386 -60821.12619599407,-22955.49513906313 -60731.65046779055,-22851.106789356556 -60689.398040618304,-22697.009702244715 -60671.999982444984,-22602.56310010808 -60490.5630892936,-22527.999993629826 -60465.708720368755,-22373.902906073556 -60659.57279790849,-22289.39805195129 -61042.33007935114,-22254.60193530836 -61283.417457996235,-22130.330090684125 -61372.89318605161,-22045.825236413715 -61357.9805646967,-21906.640770508642 -61360.466001663255,-21802.252420802066 -61551.84464238458,-21677.98057617783 -61638.83493362155,-21598.446595544247 -61676.11648700882,-21503.9999937039 -61691.02910836373,-21240.543683174586 -61720.85435099947,-21111.300964617236 -61869.98056454856,-21046.67960570892 -62250.2524091728,-21081.475722129635 -62391.92231204442,-21131.184459831187 -62409.32037021775,-21275.339799817517 -62498.79609842127,-21359.84465386571 -62588.27182655072,-21429.436886929354 -62700.11648671253,-21489.087372423062 -62802.01939923034,-21503.9999937039 -62906.40774871469,-21513.941741273837 -63381.12619525335,-21508.970867562937 -63512.85435055504,-21474.17475092001 -63599.84464171794,-21225.631061671535 -63570.01939908219,-21116.27183855035 -63624.699010568715,-21031.766983983653 -63696.776680598916,-20912.466013514746 -63642.09706889018,-20718.601935826864 -63577.475709759645,-20619.184460053402 -63236.970855415166,-20504.854362999104 -63487.99998163019,-20435.262129935458 -63602.33007868449,-20390.524265944805 -63557.59221454569,-20296.07766380817 -63542.67959319079,-20092.27183855035 -63557.59221454569,-19704.54368369309 -63490.48541844861,-19530.56310092287 -63363.72813700596,-19416.233003868572 -63214.601923456874,-19376.466013811034 -63102.75726322099,-19336.69902323499 -63025.708719553964,-19073.242713001964 -62993.39803995166,-18953.941742014555 -62700.11648671253,-18784.932033177447 -62543.53396241192,-18665.63106270854 -62468.97085571145,-18566.21358693508 -62250.2524091728,-18377.320382884023 -62036.50483634503,-18352.466013811034 -61867.495127730144,-18332.58251889337 -61763.10677824578,-18272.932033473735 -61720.85435099947,-18163.572810056263 -61673.63105004226,-18004.50484901131 -61691.02910836373,-17905.087373460065 -61837.66988502033,-17775.844654976787 -62138.407749010985,-17572.038829941182 -62237.8252246363,-17462.67960652371 -62548.504836196895,-17278.75727647984 -62667.80580703616,-17229.04853877829 -62724.97085556331,-17154.485431855603 -62742.36891388478,-16821.436888484863 -62782.13590409046,-16637.514558144707 -62794.56308862695,-16508.271839661425 -62729.94172934828,-16408.854364110182 -62633.00969061544,-16364.11649982324 -62414.291244002714,-16349.20387883869 -62078.757263591346,-16433.708732886884 -61966.91260342953,-16443.650480456825 -61541.902894814644,-16448.62135461215 -61275.961147318776,-16493.359218602807 -61131.805807554665,-16483.417471032866 -61077.12619577185,-16354.1747522533 -61146.71842890957,-16214.990286644515 -61261.048525963866,-16120.543684730095 -61574.213574268804,-15906.796111902335 -61673.63105004226,-15852.116500341743 -61748.19415689088,-15777.553393344986 -61797.9028946665,-15653.281548720748 -61827.72813745039,-15563.805820517226 -61837.66988502033,-15444.504850048317 -61745.70871992432,-15290.407762492048 -61693.514545182145,-15210.87378208068 -61621.43687530008,-15141.28154879482 -61531.96114724471,-15081.631063745544 -61422.60192397538,-15031.922325599564 -61181.51454533028,-14977.24271403897 -60895.68930276861,-14972.271840402145 -60535.300953284255,-15021.980578029625 -60150.05823502319,-15091.572811093269 -59936.310662269505,-15101.514558663208 -59812.03881764527,-15096.543685026381 -59700.19415740938,-15056.776694450338 -59603.26211860248,-14922.563102478378 -59556.03881764527,-14838.058248207968 -59431.766973021025,-14773.43688878115 -59337.32037103254,-14758.52426735217 -59240.388332299706,-14763.495141211211 -59091.26211882469,-14813.203879357194 -58969.475711092935,-14847.999995777907 -58875.02910917852,-14833.08737449707 -58835.26211882469,-14728.699024790496 -58817.86406065137,-14559.68931595339 -58658.796099532345,-14316.116500860246 -58561.86406065137,-14241.553393641272 -58437.59221602713,-14191.844656236008 -58139.33978900303,-14132.194170742303 -58049.86406079951,-14092.427180462548 -57995.18444923892,-14002.951451962737 -57982.7572647765,-13650.019413303977 -58129.398041433094,-13361.70873392389 -58146.79609960642,-13242.407763232766 -58102.05823561576,-13147.961161096131 -58027.49512876715,-12988.89320005118 -58042.40775019613,-12849.708734220178 -58062.29124533601,-12730.407763232766 -58017.55338119721,-12630.99028768152 -57918.13590557189,-12566.368928328773 -57701.90289585165,-12466.95145248124 -57734.213575528025,-12268.116501378749 -57851.0291094748,-11920.155336356813 -57868.42716764813,-11790.912617799462 -57833.631051227414,-11671.611647108339 -57751.611633775414,-11616.932035547747 -57406.13590564596,-11552.310676120927 -57286.83493473263,-11512.543686063387 -57284.34949798828,-11393.24271485376 -57547.80580859167,-11209.320385254321 -57657.165031861,-11129.786404620738 -57672.07765321591,-10906.097084000823 -57644.7378473245,-10806.679608375505 -57537.864061021726,-10622.75727855385 -57485.669886279546,-10508.427181499552 -57510.52425513032,-10374.213589305376 -57517.98056588185,-9976.54368658189 -57585.08736197894,-9897.009705948307 -57843.57279879735,-9882.097084445253 -57890.79609975456,-9524.194172075595 -57890.79609975456,-9215.9999971112 -57818.718429872504,-8942.60193901195 -57704.388332818206,-8738.79611375413 -57438.44658524827,-8515.106793578647 -57356.427167870344,-8465.398055728952 -57259.495129063434,-8450.485434448115 -57095.45629408537,-8440.543686878176 -56996.03881846005,-8425.631065375124 -56933.902896147934,-8351.067958896869 -56983.61163399763,-8172.11650226761 -56831.99998348199,-8112.466017218335 -56702.75726507278,-8092.582521856241 -56598.36891558843,-8022.990289014812 -56538.718430242865,-7888.776696820636 -56496.46600299655,-7570.640774508518 -56464.15532339425,-7212.737861916643 -56411.961148652066,-7123.262133639049 -56397.048527297164,-6979.106793874934 -56449.24270203934,-6795.184463756992 -56491.49512928565,-6690.796114346705 -56484.0388186082,-6586.407765084561 -56377.16503215728,-6477.04854174116 -56252.893187533045,-6412.427182314342 -56121.16503230543,-6367.689318323688 -55743.37862464775,-6342.834949546985 -55218.95144033347,-6367.689318323688 -54910.75726559129,-6327.922328266148 -54448.4660036632,-6084.349512654499 -54234.71843090951,-6009.786406176245 -54078.1359066089,-5920.310677972722 -53966.291246521156,-5900.427182832845 -53725.203867876065,-5860.660192256802 -53600.93202325183,-5825.864075836087 -53521.39804276639,-5746.330095202503 -53454.2912466693,-5666.79611456892 -53285.28153790627,-5497.786405954029 -53046.67959622773,-5423.223299475774 -52909.98056721514,-5383.456308899731 -52765.82522745103,-5378.48543548512 -52571.96114983722,-5368.543687915182 -52353.24270322449,-5358.601940123028 -52199.14561596451,-5363.5728137598535 -52097.242703372634,-5368.543687915182 -51997.825227673246,-5323.805823480097 -51928.2329946096,-5234.330095498791 -51729.39804328489,-4886.368930402783 -51550.44658695192,-4752.155338208608 -51391.37862590697,-4692.504852788974 -51289.47571331509,-4682.563105144963 -51232.31066478795,-4841.63106641213 -51088.15532502383,-4851.5728140561405 -50829.66988820542,-4772.038833644772 -50583.611635849426,-4757.126212363935 -50364.893189236696,-4747.184464793997 -50203.33979115112,-4677.592231730352 -49992.07765536399,-4627.883493584371 -49599.3786263514,-4598.058251096769 -49323.49513128559,-4612.970872377606 -49204.19416044632,-4682.563105144963 -49104.77668482101,-4836.660192775304 -49166.91260713313,-4975.8446586803775 -49288.69901479081,-5105.087377163656 -49298.640762360745,-5264.155338430823 -49340.89318960706,-5448.077668104334 -49494.990276867036,-5622.058250578266 -49442.796102124856,-5746.330095202503 -49229.048529445245,-6044.582522596959 -49134.60192753082,-6094.291260298511 -49002.87377215506,-6134.058250800482 -48878.60192753082,-6148.970872081319 -48456.07765588249,-6153.941745718144 -48205.04852966746,-6228.504852492686 -48108.11649086056,-6278.213590342381 -47958.99027738554,-6313.009706763096 -47862.05823857863,-6293.126211845433 -47889.3980443219,-6173.825240635807 -47966.44658791485,-6069.4368912255195 -47916.7378502133,-5989.902911036366 -47770.097073482626,-6019.728153523968 -47698.01940360057,-6084.349512654499 -47529.00969498568,-6263.3009691356165 -47437.048529963744,-6317.9805804739935 -47337.631054264355,-6332.8932019029735 -47225.78639410254,-6317.9805804739935 -47158.679597857314,-6248.38834785478 -47248.155326060834,-6158.912619651257 -47220.81552016943,-6064.466017514622 -46989.66988924242,-6119.145629075214 -46708.81552039165,-6347.805823406025 -46437.90289918488,-6556.582522152528 -46281.32037495834,-6844.8932019029735 -46234.09707400113,-7093.4368911514475 -46196.815520539785,-7202.796114272633 -46017.86406435496,-7396.660191960515 -45853.82522930282,-7670.058250281979 -45786.718433279806,-7744.621356760234 -45615.22328777243,-7779.417473180949 -45307.02911310433,-7769.475725833225 -45207.61163733086,-7675.0291237706615 -45145.47571501874,-7565.669900575404 -45147.9611519853,-7346.951454110819 -45207.61163733086,-7207.766988205745 -45329.39804513669,-6914.485434966618 -45344.3106664916,-6750.446599766338 -45329.39804513669,-6551.611648663846 -45331.8834819551,-6412.427182314342 -45381.59221987887,-6317.9805804739935 -45493.43688004068,-6148.970872081319 -45543.14561774223,-5984.932036881039 -45503.37862753655,-5885.514561552008 -45396.50484123377,-5786.097085778546 -45309.514549996806,-5746.330095202503 -45172.815520910146,-5676.737862138859 -45093.28154027656,-5582.291260520726 -45018.71843357609,-5428.194172890385 -44996.34950154373,-5144.854367517483 -44969.00969565233,-5050.407765603063 -44971.49513261888,-4826.718444983149 -45172.815520910146,-4538.407765603063 -45307.02911310433,-4503.611648960134 -45672.38833629958,-4483.728154042471 -45751.92231678502,-4364.427183129132 -45744.46600618164,-4230.213590934955 -45667.417462366466,-4145.7087368126895 -45580.42717120357,-4105.941746310718 -45381.59221987887,-4021.436892188453 -45386.56309366383,-3812.660192775304 -45485.98056936322,-3668.5048532334044 -45577.94173438516,-3504.466018551627 -45622.67959837581,-3405.0485427781655 -45724.58251096769,-3315.572814278356 -45737.00969550418,-3206.213591157171 -45836.42717120357,-3141.592232248855 -46079.99998666708,-3131.6504846789157 -46253.98056906694,-3181.3592220841797 -46514.95144285191,-3385.1650473420004 -46614.3689185513,-3479.6116494786356 -46624.31066612124,-3579.029125029882 -46559.68930684256,-3713.2427172240577 -46646.67959807953,-3822.6019404193144 -46758.52425831541,-3733.1262124380073 -46855.45629712231,-3683.4174747364564 -46920.07765632692,-3588.9708725998207 -47044.34950095115,-3564.11650352683 -47136.31066597309,-3638.6796107458026 -47228.27183099503,-3683.4174747364564 -47345.08736479367,-3723.184464793997 -47541.436879448105,-3792.7766978576415 -47665.70872407234,-3782.834950287702 -47775.0679472676,-3728.1553387271097 -47884.427170536925,-3718.213591157171 -48016.15532591269,-3708.2718433650166 -48182.67959770917,-3668.5048532334044 -48483.41746169982,-3663.5339795965783 -48597.74755875412,-3633.7087365904745 -48689.70872377606,-3559.1456301122194 -48692.19416059447,-3310.6019408637453 -48774.21357797239,-3032.2330089054544 -48776.69901501302,-2833.39805728446 -48766.757267443085,-2719.067960230162 -48694.67959756102,-2579.8834941769446 -48709.59221891593,-2465.5533971226464 -48771.72814122805,-2291.5728147968584 -48774.21357797239,-1978.407766417853 -48756.81551987314,-1869.0485430744527 -48662.36891795872,-1714.9514556663269 -48572.8931897552,-1635.4174750327434 -48366.60192767897,-1441.5533973448619 -48180.19416074261,-1133.3592228989696 -48093.20386957972,-1009.0873782747326 -47832.232995794744,-755.5728153153609 -47767.611636664216,-656.155339764115 -47668.19416096483,-576.6213591305315 -47558.834937621425,-511.99999977778464 -47146.25241354303,-417.5533980855799 -47019.49513195224,-402.6407763603125 -46847.999986296716,-442.4077669363555 -46828.11649123091,-586.5631067004704 -46785.8640639846,-715.8058248133897 -46748.58251074547,-845.048543296668 -46646.67959807953,-1019.029126066887 -46403.10678261602,-1252.660193812309 -46278.834937991785,-1277.5145628853 -45963.18445264622,-1227.8058247393178 -45473.5533849008,-1128.388349188072 -45307.02911310433,-1098.5631062560396 -45165.35921015862,-1068.737863472151 -45051.029113178396,-1038.912621206765 -44889.47571516689,-979.2621354908439 -44447.067948230535,-835.1067959489444 -44081.70872510935,-725.7475723833287 -43721.320375624986,-586.5631067004704 -43597.04853100075,-511.99999977778464 -43477.747560161486,-323.10679572672905 -43293.82523019169,-178.95145618482948 -43164.58251178248,-124.27184462423699 -42930.95144388891,-84.50485404819399 -42759.456298307465,-79.53398063358347 -42503.456298381534,19.883495362093292 -42267.339793521416,109.35922334340034 -42053.59222076773,149.12621369722797 -41956.660181960826,178.95145618482948 -41611.18445397951,328.07766965984206 -41315.41746377383,432.46601936641656 -40957.51455125603,571.6504851974183 -40631.92231834053,740.6601940345242 -40445.51455140417,859.96116479972 -40174.60193004926,1098.5631067004704 -39965.82523115462,1332.194174223677 -39799.30095935814,1630.446601618133 -39727.22328947608,1709.9805822517164 -39595.49513410032,1809.3980578029625 -39471.22328947608,1854.135921793616 -39187.883483806894,1898.8737857842696 -38775.30095965443,1869.048543296668 -38623.68930921286,1819.339805150686 -38317.980571437234,1685.1262131787255 -38084.34950354367,1690.0970868155514 -37947.650474382935,1709.9805822517164 -37756.27183366161,1769.6310676713501 -37656.8543580363,1804.4271838698494 -37231.8446494214,1814.3689314397884 -36906.25241635776,1938.6407760640254 -36704.93202814057,1948.5825239302515 -36453.90290207368,1883.9611647256481 -36307.26212534301,1958.5242715001905 -36207.844649643615,2212.0388341632747 -35936.93202843685,2440.699028271871 -35698.33008675832,2574.912620466047 -35564.11649456414,2694.2135916756733 -35397.592222767664,2843.339805076614 -35308.11649456414,3017.3203874024025 -35283.262125713365,3241.009707800101 -35196.2718344764,3464.699028197799 -35121.70872762779,3653.592232248855 -35042.174746994206,3738.097086297049 -34559.99999000031,4195.417474736456 -34284.116494934504,4354.485435781407 -34023.14562114953,4548.349513173002 -33717.436883373906,4772.038833866988 -33451.495135952115,4995.728154042471 -33217.86406805855,5234.330095721006 -33051.33979626207,5398.368930402783 -32954.40775745516,5497.78640639846 -32648.69901967954,5756.271843290945 -32429.980573140885,6064.466017514622 -32231.145621668034,6238.44660028484 -32032.310670343326,6352.776697339139 -31885.66989368673,6387.5728139820685 -31753.941738385038,6392.543687396679 -31619.728146116788,6367.689318768119 -31500.42717520345,6337.864075836087 -31147.49513661876,6193.7087362941875 -30774.679602746048,6143.999998148205 -30553.475719240836,6124.1165030083275 -30143.378632054926,6114.174755660603 -29713.398049655065,6089.320386587613 -29397.747564309502,6054.524269944683 -29290.87377785859,6074.407765306776 -29211.339797373148,6139.0291247335945 -29131.805816813638,6258.330095202503 -29044.81552557667,6317.9805809184245 -28947.883486695693,6357.74757119818 -28808.699020716547,6372.660192256802 -28716.737855768686,6322.95145455525 -28652.116496564082,6243.417474143882 -28614.83494317681,6134.058250578266 -28552.699020864693,5830.8349497692 -28435.88348684384,5517.669901612409 -28371.262127713308,5204.504852937117 -28331.495137285405,4906.2524258389485 -28336.46601121852,4598.058251096769 -28343.922321895974,4279.922328784651 -28321.55338978954,4180.504853011189 -28184.85436077695,3887.223299772061 -28110.291253928335,3792.7766978576415 -27995.961156874037,3678.4466008033432 -27769.786399732,3429.902911554869 -27511.300962913585,3250.951455592255 -27411.883487214196,3236.0388341632747 -27367.14562314947,3136.621358537957 -27406.912613429227,2997.43689248474 -27372.11649693444,2873.165047860503 -27317.436885225703,2763.8058246652463 -27317.436885225703,2634.5631061819677 -27252.81552609517,2564.970872896108 -27016.69902123505,2286.601941382248 -26894.91261357737,2137.47572768502 -26745.786400028286,2047.9999994814975 -26397.82523508042,1878.990290866607 -26266.09707970466,1709.9805822517164 -26186.56309921922,1595.6504851974184 -26092.1164973048,1565.8252421913144 -26007.611642886248,1521.087378422876 -25813.747565346508,1391.844659939598 -25699.41746829221,1371.96116479972 -25495.61164303439,1396.815533798639 -25237.12620629005,1391.844659939598 -25115.339798558296,1352.0776695857703 -24886.679604449702,1267.572815315361 -24623.223293846317,1287.4563102330235 -24459.184458868254,1421.6699024271995 -24178.33009009155,1615.533980115081 -23922.330090165622,1878.990290866607 -23624.07766306745,2062.9126206882625 -23472.466012625882,2167.3009701726214 -23139.417468958858,2306.4854362999104 -22950.524265204087,2331.3398053729015 -22831.22329436482,2381.048543222596 -22619.96115850362,2555.0291255483844 -22545.398051729077,2684.271843809447 -22378.873779932597,2843.339805076614 -22115.417469329215,3062.058251393056 -21777.39805187722,3201.24271774256 -21702.83494517675,3295.6893193606934 -21608.38834326233,3375.223300216492 -21481.631061671535,3410.019416414991 -21407.067954971066,3330.485435781408 -21252.97086763701,3126.679610968018 -21143.611644367684,3076.970873118323 -21016.85436277689,3032.23300912767 -20905.00970268915,2952.699028494086 -20808.07766380817,2873.165047860503 -20721.087372571204,2838.3689314397884 -20619.184460053402,2823.456309714521 -20365.669897019958,2818.4854362999104 -20238.912615429166,2868.19417392739 -20042.56310092287,2982.524270981688 -20064.932033029305,3151.5339795965783 -20114.640770804926,3265.8640766508765 -20124.582518374868,3469.669901908697 -20199.145625223482,3723.184465016212 -20286.135916386374,3872.31067871344 -20502.368925958475,4205.359222306395 -20571.96115909619,4314.718445205365 -20706.174751216295,4593.087377385871 -20847.844654162,4891.339804335897 -21031.7669841318,5189.592231730352 -21235.572809389618,5448.077668548765 -21454.291255928274,5731.417474217954 -21481.631061671535,5840.776697339139 -21165.980576325972,6153.941745718144 -20795.65047941982,6313.009706763096 -20678.834945398965,6352.776697339139 -20591.844654162,6422.368930402783 -20306.019411526253,6551.611648441631 -20037.592227137902,6611.262134157551 -19846.213586416576,6621.203881505276 -19398.834945843395,6626.174755660603 -19204.970868229586,6680.854367221196 -19115.49514002606,6725.59223121185 -18752.62135372329,6844.8932019029735 -18660.660188701357,6894.60193982674 -18464.310674269134,7098.407765084561 -18300.27183936514,7366.834949250697 -18061.669897686606,7506.019415600202 -17544.69902404978,7530.87378415469 -17278.75727655391,7461.281551387333 -16990.446597025682,7441.398056173383 -16600.233004905578,7446.368929884281 -16142.912616614314,7441.398056173383 -15954.019412859545,7381.747570975965 -15822.291257483783,7341.980580399922 -15546.407762492048,7317.126211549146 -15138.796112050479,7192.854366924909 -14736.155335542022,7083.495143581508 -14306.174753068091,6989.048541889304 -13732.038830978188,6839.922328266148 -13473.553394159775,6680.854367221196 -13384.077665956253,6631.145629075214 -13192.699025234928,6571.495143803724 -12807.456306973865,6511.8446586063055 -12409.786404102235,6516.815532020916 -11992.23300623887,6511.8446586063055 -10819.106792986073,6511.8446586063055 -10421.436890114443,6501.902911036366 -10028.737861101854,6531.728153523968 -9641.009705948307,6526.757279590855 -9258.252424505656,6506.873784450977 -8877.98057988142,6392.543687396679 -8510.135919719605,6258.330095202503 -8164.660191738299,6119.145629519645 -7801.786405435527,5960.077668252478 -7406.601939604525,5736.388348076995 -7322.097085260044,5691.650483641911 -6971.650483419696,5572.349513173002 -6561.553396159713,5378.485435262905 -6377.631066041771,5264.155338208608 -6290.640774804805,5194.563105144963 -6106.718444835006,5010.640775545523 -5979.961163244212,4791.922328784651 -5880.543687544823,4757.12621214172 -5773.66990124205,4747.184464793997 -5577.320386735756,4627.883494028801 -5458.019415896489,4463.8446589025925 -5430.679610005085,4269.9805812147115 -5423.223299401702,4160.621358093526 -5316.349512950786,3956.815533057921 -5249.242716853699,3857.39805728446 -5211.961163466428,3569.0873774599427 -5279.067959489444,3340.427183573562 -5393.398056617813,3176.3883486695695 -5435.650483790055,3062.058251393056 -5448.077668326549,2957.669901908697 -5428.194173186672,2828.427183869849 -5413.281551831764,2714.0970868155514 -5356.1165033046145,2599.766989539038 -5249.242716853699,2520.2330089054544 -5035.495144174083,2535.145630630722 -4965.90291118451,2460.5825234117488 -5045.4368917440215,2386.019416933494 -4990.7572800352855,2291.5728147968584 -4831.689318990334,2231.9223295253682 -4759.611649108277,2092.7378636943663 -4685.048542259663,2028.116504563835 -4476.271843365016,2197.1262131787253 -4361.941746310718,2301.5145623667972 -4294.834950213631,2395.9611642812174 -4250.097086074833,2510.2912615577306 -4041.320387180187,2714.0970868155514 -3931.9611639108584,2758.8349508062047 -3815.145629890004,2783.689319879196 -3367.7669893168227,2788.6601932938065 -2910.4466010996302,2758.8349508062047 -2716.5825234117488,2689.242717520345 -2400.932038066187,2425.7864069910343 -2301.514562440869,2356.1941741496053 -2204.5825235598927,2291.5728147968584 -1946.0970867414796,2152.388349188072 -1861.5922323229265,2072.8543685544882 -1856.6213586120289,1973.4368927069552 -1732.3495139877919,1834.2524268759535 -1585.708737405264,1749.7475723092568 -1456.4660189960575,1615.533980115081 -1503.6893199532676,1491.262135490844 -1608.0776693635548,1386.8737862287003 -1647.8446597173825,1123.417475551246 -1739.8058247393178,994.1747569938959 -1836.737863472151,984.233009423957 -1936.1553392456124,969.320387920905 -2085.281552720625,790.3689317360755 -2062.912620762334,442.4077669363555 -1970.9514556663269,347.96116479972 -1901.3592227508261,248.54368924847398 -1767.14563055665,99.41747555124601 -1647.8446597173825,29.825242932032253 -1523.5728150931457,-9.94174756993896 -1401.7864072873215,-39.76699005754046 -1173.1262131787255,-198.83495110249203 -1101.048543296668,-283.33980589140396 -815.2233007349947,-561.7087376274794 -700.8932036806966,-591.5339801891528 -584.0776696598421,-576.6213591305315 -345.47572798130705,-452.34951450629444 -270.9126212808367,-328.0776698820575 -298.252427024097,-233.63106774542197 -208.77669896871814,-164.03883468177744 -77.04854359295514,-193.8640776878815 2.485437040628323,-114.33009705429804 -106.87378630277202,34.79611642071457 -171.49514558144705,134.21359219417596 0,164.03883520028Z"/></svg>