<svg xmlns="http://www.w3.org/2000/svg" width="256" height="256"><path d="M27.61991628663746,0.9195976760171707 28.043730867758416,0.9275941773094405 28.255638158199737,0.9116011738908009 28.55550696559664,0.9036046729560026 28.711438745562187,0.9036046729560026 28.979321546836754,0.9036046729560026 29.175235834216906,0.9435871803706086 29.335165864947747,0.959580183550934 29.615043418399033,1.1674892231078062 29.934903479741553,1.3194227525463753 30.130817767121705,1.3594052600801387 30.426688323872476,1.4393702750285082 30.570625351542144,1.5353282935146744 30.73455363279996,1.6552758163542787 33.18548135192399,7.172861872814774 33.34541138241651,7.396763915790286 33.52133441608936,7.884550509155916 33.653276691344,8.404323108167253 33.721246954353965,8.93209220930496 33.821203223486265,9.31592428313047 34.04110701569648,9.803710876019469 34.117073780237035,10.419441493874444 34.097082526291416,10.587368026374183 34.0850877741147,10.763291059808719 34.300993315440465,11.307053163650123 34.44493034287182,11.794839757611538 34.77278690562577,12.290622851911966 34.864746673227486,12.442556381350535 34.89273442870369,12.882363965770974 34.97669769477482,13.274192540173809 35.10064346849887,13.594052601992958 35.52045979873539,14.105828699354554 35.636409070928856,14.233772723963057 35.86031111378521,14.761541825100764 35.40051227589578,18.711813581566776 44.208658711715,35.2245892417463 47.00743424741943,41.046042356249835 33.733241706769,62.43668395056228 33.59330292998378,62.49265946151469 33.38139563930414,62.63659648882689 33.141500593505775,62.78053351613909 32.92559505218,62.86849503285635 32.7256825139154,62.92447054380876 32.51777347412021,63.04441806664836 32.18991691124711,63.2923096145731 31.87405510078904,63.60417317438503 31.56618979186155,64.04398075797137 31.52220903344334,64.21190729011364 31.514212531912754,64.54776035475564 31.514212531912754,65.01955394494095 31.486224776674867,65.17948397531431 31.342287749124353,65.39538951664008 31.486224776674867,65.53133004301749 31.766102330126152,65.57131255078956 32.38183294798113,65.57131255078956 32.81764228151712,65.68326357162195 33.18148310103954,65.89916911330519 33.37339913777355,65.96314112566903 33.753232960476296,66.05110264202882 33.96114200027149,66.13906415910357 34.08108952323025,66.23502217758973 34.42893733981066,66.70681576777503 34.63284812895971,67.0586618354782 34.90472918088041,67.29056037986514 35.04466795766563,67.38651839835131 35.29655775587903,67.42650090540845 35.752358343122324,67.53845192695577 35.91228837373401,67.58643093661591 36.17217467347799,67.65839945027201 36.36808896121561,67.73036796392812 36.56800149948022,67.86630848947141 36.73592803138417,67.97825951101875 37.907415505733894,68.29012307118815 38.44318110816387,68.63397263676495 38.95495720612125,69.04979071599786 39.51871056402743,69.27369275945 39.60667208098301,69.41762978676219 39.79059161618645,69.56156681443187 39.99850065598164,69.68951083904037 40.41032048468756,69.7135003433938 40.62622602601333,69.681514336914 40.894108827287894,69.72949334657413 41.189979384038665,69.79346535846133 41.357905916061775,69.82545136458367 41.577809708152834,70.06534641038203 41.76572749435987,70.23327294288177 41.99762603862766,70.36921346914002 42.23352283366073,70.48116448997241 42.90522896234895,70.48916099209877 43.05716249131089,70.52114699786364 43.189104766684686,70.66508402517584 43.33704004500049,70.76104204401948 43.50496657714276,70.84900356037927 43.748859873706415,70.92097207439285 43.91278815520255,70.96895108393383 44.16867620406208,71.32079715092206 44.3885799962723,71.79259074110736 44.52851877305752,71.96851377525684 44.70844005737651,72.0884612982156 44.93634035111731,72.12044730398047 45.09627038172899,72.12844380574936 45.18823014933071,72.33635284530624 45.36815143364969,72.4323108637924 45.86393452878422,72.44030736508468 46.02386455915759,72.41631786073123 46.19978759283044,72.37633535284 46.35971762344212,72.38433185496636 46.51564940328851,72.49628287603707 46.823514712216,72.60823389722694 47.035422002895636,72.67220590994823 47.183357281092285,72.72818142054317 47.31130130570079,72.88011494914764 47.34728556246926,73.06403448435107 47.35128381323455,73.55981757972391 47.49921909155036,73.76772661963825 47.66714562369262,73.87967764047065 47.82307740353901,73.92765665013079 47.967014431089524,74.01561816684806 48.15493221705825,74.2555132130039 48.64671706118917,74.60735927987297 49.16249141015016,74.95920534757613 49.746236021644485,75.1911038916056 50.01012057227292,75.27106890738807 50.29799462725479,75.27906540832286 50.6458424438352,75.34303742104417 50.789779471385714,75.39901293199657 50.9457112512321,75.5189604544787 51.441494346128316,75.54294995930877 51.59742612597471,75.50296745141753 51.77334915964755,75.5189604544787 52.02124070709566,75.6549009808561 52.193165490122375,75.75085899922311 52.517023802111034,75.7188729927433 52.6329730743045,75.60692197119597 52.81689260950794,75.41500593470026 52.972824389235164,75.37502342680904 53.180733429030354,75.39901293199657 53.37664771664882,75.47098144565267 53.56456550249839,75.58293246720001 53.916411569963245,75.6628974817909 54.08033985122106,75.5909289681348 54.22827512953687,75.41500593470026 54.36021740502982,75.28706191044924 54.52014743540319,75.21509339643566 54.68007746601487,75.1831073906708 55.02792528259528,75.17511088854442 55.23183607174433,75.1911038916056 55.403760854532734,75.24707940220053 55.70762791281408,75.27906540832286 55.863559692541315,75.24707940220053 56.103454738458844,75.16711438749047 56.271381270601104,75.07115636912347 56.735178359374984,74.8632473287325 57.0790279251901,74.83126132296763 57.302929968046456,74.7912788150764 57.64278128309628,74.60735927987297 57.846692072126174,74.3514712313709 58.21852939329833,73.95964265625312 58.70631598678312,73.71175110868586 58.83026176050717,73.54382457666274 58.84225651268389,73.15199600178329 58.786281001969805,73.00006247282134 58.79827575438484,72.75217092525408 58.98219528958827,72.60823389722694 59.50196788895708,72.59224089416577 59.98575623155742,72.40832135896234 60.46954457415775,72.17642281457539 60.60548510029684,72.04048228855547 60.73342912466703,71.89654526124326 60.86137314915638,71.64865371343768 61.03329793206393,71.37677266151698 61.21721746726737,71.12088461265745 61.41313175488583,70.70506653306708 61.6810145561604,70.44118198243865 61.880927094425004,70.20928343805171 61.95689385908471,70.07334291250841 61.980883363557304,69.56156681443187 62.39670144314768,69.22571374978986 62.67258074595283,68.97782220234176 62.85650028127542,68.76191666137346 63.092397076189336,68.55400762169744 63.264321859216054,68.26613356600062 63.404260636001275,68.09820703421582 63.52420815884088,67.98625601314512 63.66814518639139,67.93028050219272 63.844068220064244,67.89029799465895 63.996001749264494,67.81832948064537 64.07596676445118,67.65839945027201 64.34384956572575,67.37052539517099 64.47579184098039,67.17860935796034 64.78365714990787,66.54688573740167 65.08752420818922,66.23502217758973 65.16748922337591,66.0431061406174 65.22746298497445,65.83519710106053 65.49134753536457,65.50734053818742 65.79921284429206,65.05953645283218 66.06709564556662,64.66770787723777 66.46692072209582,64.38783032438228 66.52689448369436,64.22790029317481 66.69881926648276,64.08396326550513 66.8307615417374,63.95601924161158 67.10264259389642,63.77209970640814 67.2825638782154,63.596176672258665 67.3345411381642,63.40426063612043 67.3825201473477,63.26032360845076 67.55444493049357,63.17236209161434 67.72237146239753,63.020428562294924 67.87030674083249,62.92447054380876 68.20615980499787,62.76454051343539 68.38608108955516,62.66858249459175 68.98581870434897,62.46067345539235 69.1697382395524,62.34072593207612 69.3776472793476,62.20478540653282 69.56556506519716,62.12482039075035 69.72149684504355,62.07684138192432 69.9973761478487,62.06884487979794 70.21328168917448,62.06884487979794 70.43718373203083,62.08483788285911 70.74904729172361,62.10882738768918 71.01693009311732,62.052851876736774 71.20084962832077,62.004872868268215 71.83257324911776,61.74098831728231 72.1124508026882,61.677016305395114 72.70419191595141,61.49309677019168 72.88011494962427,61.39713875134804 73.25994877244617,61.20522271520981 73.84769163482494,60.95733116764254 73.98763041161017,60.8853626532715 74.20353595293594,60.765415130789364 74.65134003888696,60.44555506920853 75.03917036288198,60.16567751599556 75.5269569562476,59.821827950061284 75.73486599604279,59.74985943640519 76.51852314604002,59.58193290390545 76.97432373340249,59.44599237788552 78.75354532383828,61.38114574828687 88.80114949713635,72.32035984224507 101.96339101647777,82.89973136720782 111.31529955637671,89.88867370505747 120.84712938095211,94.07084400519548 127.17236209152497,97.22146560860308 146.33597800968892,104.0584744174908 149.2307115636412,107.09714499887444 175.20334853497832,123.8258262004989 175.46323483484147,124.25763728315043 175.71512463305487,124.96132941855679 175.83507215589447,125.38514399908195 175.99500218650616,125.68901105748246 176.2468919848387,126.15280814601802 176.66670831507523,126.8325107765943 178.5818704316501,129.0555382015009 179.29355906787208,129.87917785938936 179.7333666520542,129.43137377403414 180.51302555140532,128.97557318691 181.03679640165856,128.53576560248956 182.74005122755383,127.57618541905778 183.60367339309522,127.31230086807187 184.39932529515002,127.25632535711947 185.53882676325827,127.28031486194953 186.082588867338,127.104391828515 186.59436496529537,127.14437433628709 188.14168801158254,126.77653526599937 189.55706878249592,126.54463672149328 190.46467170621722,126.62460173620333 191.5402011620808,126.8964827884815 192.36384081973094,126.91247579154268 193.19147872802725,126.8405072775291 194.45092771909424,126.62460173620333 195.50246767036603,126.52064721678236 196.0742175298028,126.54463672149328 196.80989567061656,126.77653526599937 197.72949334675286,127.3682763786668 198.89698257033731,127.41625538785031 200.03248578744194,127.48822390186388 200.84413069291537,127.95202099039945 201.77972137187456,128.13594052596036 203.1151371274821,128.19191603655528 204.66246017365012,128.3438495658747 206.1737989629305,128.23189854444652 207.02542637605688,128.33585306422495 207.37727244328343,128.95958018384883 208.5847441744016,129.55931779864264 209.28843630909302,129.82320234843698 209.76822640092806,130.00712188399788 211.04366839505622,130.26300993321487 212.147185606396,130.4549259693531 213.51458736812586,130.53489098513558 214.7060660961829,130.53489098513558 215.04591741123272,130.5988629970228 215.99750109337222,131.22259011628918 216.941088273862,131.65440119894072 217.67676641467574,131.84631723627052 218.94421190739246,132.35809333434707 219.95976760177666,132.79790091793342 220.93933903915405,133.34965952354372 222.0428562504938,133.5575685639347 223.37827200598218,133.66152308371312 224.42581370660787,133.87742862468141 225.81320672204504,134.0693446615346 227.50046854511746,134.3652152179279 228.99981258210195,134.78103329751826 230.26725807458038,135.3247954020746 231.93053039306105,135.87655400732743 233.03004935351635,136.34834759751274 234.12956831397167,136.6362216524946 234.84525520095895,136.52427063166223 235.56893858935763,135.99650153016705 236.31661148246727,135.38077091231207 236.87236833884285,134.868994814593 237.39613918921526,134.38920472275797 237.6080464796566,133.8614356219777 237.85193977645855,133.34166302248974 238.62360217404077,133.20572249623152 239.62316486536378,133.06978197021158 240.6747048166356,133.06978197021158 240.95858062097133,133.09377147468416 241.75423252326445,133.25370150505753 243.16961329417782,133.4935965512134 243.88130193039981,133.4216280371998 244.4890360467242,133.125757481164 245.37664771685735,132.83788342546717 246.11232585743278,133.08577497327275 247.5836821391794,133.3976385327272 248.4393078029519,133.21371899752378 249.27894046354407,132.8618729306547 249.8746798278109,132.76591491181108 250.56237895920282,132.6059848814377 251.0261760479767,132.27013181715316 251.35003435996535,131.97426126087902 251.9697632285856,132.2221528076122 252.58149559579445,132.76591491181108 253.44911601174368,133.28568751153736 254.6006122321478,133.89342162774258 255.32429562066565,134.46117323677151 256,135.74061348166498 255.84406822027276,135.86855750591602 255.70412944348755,135.99650153016705 255.15636908852338,136.34834759751274 254.54463672155285,136.67620416038585 253.9409008558746,136.99606422149006 253.4211282565058,137.32392078472063 252.88136440319136,137.60379833805277 252.2696320359825,137.89966889480354 251.68588742424987,138.27550446650267 251.54594864758383,138.4434309990024 251.31005185231243,139.01118260719724 251.15811832323132,139.5709377149339 251.10214281251723,139.83482226472825 251.1101393140478,140.01074529852025 251.1781095770578,140.3465983628048 251.05016555256844,140.81039545157867 250.93821453125943,141.05029049737703 250.79827575447422,141.2182170295193 250.65433872680453,141.3301680514241 250.4984069470773,141.4181295677839 250.31848566252,141.53807709133844 249.7747235586786,142.0258636847041 249.55082151558392,142.17779721330854 249.21896670206468,142.68157680997365 249.05104016992243,142.87349284658853 248.7391766103488,143.1533704006356 248.19941275703437,143.50521646750465 248.0834634848409,143.66514649823552 248.07546698342946,143.9610170546288 248.3833322922378,144.51277566059656 248.4393078029519,144.6886986940311 248.44330605359804,144.85662522653084 248.42331479989073,145.1524957832816 248.44330605359804,145.72024739183394 248.3393515338196,146.19204098166176 248.20740925856495,146.7118135815072 248.09545823701762,147.27956519005951 248.01549322183095,147.75935528165624 247.99950021876978,148.31111388762403 247.91953520334476,148.60698444389817 247.783594677444,149.10276753891353 247.59967514224056,149.59055413216 247.6236646468323,149.75848066430225 247.89154744810688,150.3982007869873 247.9515212094671,150.79002936174763 247.8515649403348,151.30980196159305 247.81957893421247,151.79758855483954 247.8555631911001,152.03748360099536 248.05947398013,152.50128068941177 248.27937777222107,152.98906728265825 248.27937777222107,153.14899731386572 248.16342850002758,153.46885737461244 248.139438995555,153.67676641452678 248.21540576009554,153.82869994325043 248.42331479989073,154.01261947845384 248.61523083662476,154.1325670020084 249.0190541638001,154.31648653721183 249.6267882801245,154.54038857959156 250.15055913037773,154.69232210903013 250.4464296871285,154.72430811515247 251.10614106340168,154.7323046168022 251.48997313686974,154.7083151120913 251.67789092271929,154.71631161374103 251.933778971698,154.74030111785615 252.09370900230968,154.78828012703966 252.16967576685022,154.98819266530427 252.12969325931647,155.22808771110263 252.00174923470794,155.80383582142383 251.88180171186835,156.05972387064085 251.62991191365495,156.331604922919 251.39001686773742,156.25163990761317 251.318048353843,156.06772037205226 251.15412007246604,155.74786031130554 251.00218654338494,155.67589179717282 250.83426001124266,155.65989879411165 250.6623352283351,155.66789529552307 250.35446991940762,155.6998813016454 250.1665521334389,155.74786031130554 249.60679702641718,156.00374835968844 249.49484600486983,156.11569938159326 249.24295620665643,156.58749297142109 249.05104016992243,157.04329355854523 248.94308739925953,157.55506965662175 248.90310489160663,157.73099269077125 248.90310489160663,158.01886674587226 248.80714687335876,158.42668832333626 248.85512588242312,159.08240144908248 248.81914162553548,159.67414256246485 248.81914162553548,159.8260760911885 248.8711188854843,160.16192915618797 249.0670331729836,160.4817892169347 249.26694571124818,160.6257262442469 249.42287749121374,160.7136877616791 249.60279877553273,160.76166677098178 249.8706815768073,160.8176422815767 250.43843318559792,161.03354782290248 250.77028799899801,161.289435871762 251.16211657399663,161.84119447689568 251.30205535078184,161.93715249538184 251.49796963840032,162.0251140120991 251.74985943649455,162.15305803670762 251.80983319797394,162.32098456920735 251.7178734303722,162.44892859381585 251.64190666583167,162.58486911935915 251.61791716123992,162.78478165762377 251.70987692884162,163.15262072803063 251.66589617042342,163.66439682610715 251.52995564452266,164.1281939152385 251.35003435996535,164.6639595174302 251.33803960778863,164.8478790529911 251.4180046229753,165.1197601049118 251.73786468431783,165.63153620298831 251.9777597301162,166.15130880199965 252.04572999324532,166.30324233143824 252.2336477790949,166.7910289246847 252.31761104516602,167.39876304077077 252.32960579758105,167.89454613578616 252.36159180358425,168.1104516774694 252.43755856824396,168.67020678437197 252.68944836645736,169.18997938385994 252.82938714324257,169.44586743307693 252.88136440319136,170.06959455222417 252.8413818954193,170.2775035919002 252.73742737564083,170.57337414865097 252.61747985256292,170.6933216714906 252.34959705128836,170.8852377084629 252.11769850690143,171.11713625284986 251.94977197475916,171.20509776920966 251.79384019491278,171.34903479687932 251.577934653587,171.83682139012578 251.54994689822996,172.0687199348702 251.57393640306003,172.3246079840872 251.64590491671612,172.66046104801427 251.5699381520564,173.0362966197134 251.4180046229753,173.33216717646417 251.25407634159833,173.75598175818092 250.99019179120822,174.1797963387061 250.80227400512035,174.29974386202232 250.66633347910042,174.443680889692 250.4704191916011,174.54763540911296 249.82270256774294,174.81151996009885 249.6267882801245,175.0434185044858 249.4828512526931,175.21934153756285 249.3669019803805,175.37127506700142 249.34291247578875,175.6591491219833 249.38689323420695,175.99500218614867 249.34291247578875,176.1789217213521 249.2389579560103,176.37883425961672 248.85112763165782,176.8506278501595 248.42731305053687,177.35440744694375 248.37133753982278,177.49834447425596 248.33535328293516,177.7062535141703 248.25538826762931,178.2740051224843 248.1834197539732,178.80177422326454 248.05147747859942,179.31355032169856 248.00749672030037,179.4734803520719 247.89154744810688,179.68138939210542 247.83557193727364,180.37708502490875 247.62766289747844,181.01680514723634 247.54369963140732,181.18473167973607 247.2238395703031,181.68051477475143 247.0439182857458,182.01636783855935 246.93996376596738,182.49615793087102 246.87199350283825,182.6960704691356 246.73205472617218,183.21584306814697 246.58411944785638,183.75960517234583 246.37221215717676,184.3113637783136 246.1043293559022,184.85512588215502 245.88442556393028,185.3029299682252 245.65652527018946,185.67076903827459 245.48460048740108,185.82270256771315 245.35665646279259,186.07859061657268 245.30467920284377,186.32648216366331 245.16873867682384,186.4784156931019 244.24114449939526,187.2780658461603 244.14918473179353,187.39801336864244 244.14918473179353,187.57393640243444 244.08921097019498,187.74186293457672 243.9452739426445,187.8618104577738 243.74136315373374,187.98175798073254 243.29355906802104,188.34160054937053 243.21759230348047,188.55750609069628 243.20559755106544,188.7574186289609 243.37752233421133,189.21321921608504 243.45348909851356,189.47710376707093 243.2695695633101,189.59705128955306 242.60585993627166,189.83694633606638 242.35796838882354,190.03685887433096 242.38995439494587,190.26875741836045 242.38595614429974,190.4926594614551 242.21802961215747,190.63659648912477 241.75023427261831,190.81251952220185 241.28243893295996,191.1163865809598 240.8946086088458,191.42025363912202 240.48678703078602,191.78809270905225 240.00299868818567,192.21190729005406 239.10339226599496,192.9715749355787 238.77153745235657,193.22746298443823 238.41969138513002,193.40338601870687 237.93190479164525,193.72324607945362 237.43212344598373,194.02711313749666 236.92834384967608,194.3309801963738 236.4285625040146,194.6668332601817 236.16867620415144,194.83475979268144 236.01274442442423,194.90672830633753 235.43299806333772,195.19460236096194 235.04916598986966,195.42650090534886 234.48941088284795,195.79433997575575 234.06159805084255,195.97825951131665 233.54182545135458,196.0662210280339 233.0540388581081,196.23414756053364 232.534266258501,196.50602861245434 232.3063659649985,196.6099831318753 232.19041669280503,196.75392015954498 231.94252514523777,197.26569625762153 231.92253389153046,197.49759480236594 232.03448491283947,197.72949334687203 232.05047791590064,197.93740238607143 232.04248141437006,198.10532891857116 231.9545198976528,198.29724495542433 231.58668082712677,198.6890735303038 231.45873680263742,198.84900356067718 231.0988942338803,199.27281814203644 230.99493971386354,199.39276566451858 230.60710938974938,199.78459423963636 230.4391828576071,199.84056975058877 230.22727556692746,199.96851377483978 229.75148372585772,200.5042793777464 229.4396201662841,200.97607296793169 229.19572686948212,201.41588055235215 228.95583182368375,201.95164615442465 228.8318860499597,202.1195726865669 228.58799275315772,202.6313487850009 228.5320172425628,202.9352158426865 228.55600674715456,203.446991940763 228.50802773797105,203.6069219711364 228.43605922407664,203.79084150633983 228.5520084962701,203.95077153707066 229.0917723497037,204.2066595859302 229.21571812342773,204.3346036105387 229.3516586493285,204.5265196478685 229.7115012182048,204.86237271167641 229.78746798274534,205.03029924417615 229.51958518147077,205.03029924417615 229.36765165238967,204.9343412253325 229.00780908363254,204.71843568400675 228.7519210345347,204.76641469319026 228.62797526081064,204.9343412253325 228.6319735116951,205.23021178244076 228.59199100404217,205.42212781857899 228.6319735116951,205.70200537262605 228.91185106514638,206.2137814707026 229.0517898419316,206.38170800236824 229.14374960953333,206.5416380335757 229.27169363402268,206.66158555605784 229.45561316934527,206.757543574544 229.57156244141956,206.97344911586976 229.49959392776347,207.39726369722905 229.36765165238967,207.5491972258335 229.18373211742457,207.67714125044202 228.931842319092,207.81308177681942 228.59199100404217,208.00499781295764 228.47604173172954,208.18891734816108 228.38808021489314,208.40482288948684 228.37208721183197,208.60473542775145 228.4040732179543,208.81264446814242 228.57199975009655,209.35640657198383 228.66795776846357,209.54832260847954 229.05978634346218,210.01211969773004 229.4116324108079,210.27600424788184 229.5035921784096,210.41994127519405 229.7674767289189,210.86774536138338 230.02736302866288,211.30755294568465 230.22727556692746,211.81133254211147 230.23527206845804,212.07521709226327 230.13531579932575,212.4030736547789 230.16330355468278,212.67495470705708 230.12731929779517,212.82688823649565 229.81545573822154,213.38664334304073 229.58355719395377,213.81845442569227 229.52358343235522,213.97038795513086 229.4116324108079,214.25826201011273 229.27169363402268,214.4021990374249 229.12775660647216,214.46617105014622 228.96782657586047,214.52214656109862 228.69594552382063,214.682076591472 228.46804523019895,214.82601361914166 228.26013619040378,214.8500031234951 227.9962516398945,214.92197163762782 227.7963391016299,215.12188417589243 227.51646154817863,215.59367776607775 227.36852626974365,216.15343287298032 227.39651402510069,216.38533141700978 227.66839507714056,216.88911101403235 227.7163740864432,217.0730305488783 227.70038108338204,217.2249640783169 227.63640907101822,217.4408696192852 227.48847379270242,217.7687261821583 227.37652277127424,218.01661772924894 227.0246767040477,218.33647779118724 226.688823639644,218.55238333215553 226.2969950646454,218.72830636559007 225.66527144372924,218.8882363966784 225.10151808594222,219.00818391963713 224.64571749857978,219.34403698344505 224.4577997127302,219.47198100805355 224.249890672935,219.55194602347854 224.0379833822554,219.61591803536575 223.41425626286983,219.7918410696344 223.16236646465643,219.91978509424288 223.0224276878712,220.07171862284736 222.84250640355222,220.20765914922475 222.19079152869045,220.31961017077208 222.02286499654818,220.35159617653696 221.73099269068186,220.42356469055053 221.13125507588805,220.5994877236276 220.97532329604167,220.6634597363489 220.7554195039506,220.69544574247124 220.09570812779657,220.70344224412096 219.51196351606393,220.65546323458 218.87624164426336,220.6874492410598 218.19653901428285,220.69544574247124 217.80870868993037,220.73542825036247 217.66077341173371,220.78340725883103 217.18098331977953,220.95933029262304 217.01705503840253,221.02330230534434 216.63722121581895,221.1752358339488 216.29736990076913,221.24720434796237 216.0254888486101,221.2312113449012 215.69763228597532,221.22321484360893 215.39376522769396,221.30317985891477 215.19385268942938,221.38314487362484 215.02192790664097,221.48709939411822 214.8859873805019,221.57506091047802 214.4261885424933,221.9189104768889 214.02236521531796,222.23877053763565 213.5465733742482,222.5026550885024 213.04279377770226,222.7905291436034 212.49103517233027,223.1423752104725 212.34309989377616,223.29430873991106 212.14318735551154,223.38227025627086 211.9112888111246,223.43824576722326 211.75935528204351,223.51021428087935 211.21959142872907,223.7501093270352 210.85175235832222,223.96601486836096 210.7318048354826,224.10995189567316 210.79577684760812,224.35784344312128 210.69981882936028,224.5017804711484 210.5398887987486,224.56575248315477 210.37995876801776,224.7336790156545 210.25601299441286,224.96557755968396 209.98813019301912,225.22946211019325 209.83619666393804,225.29343412255707 209.3963890797559,225.4933466608217 209.22846254761365,225.65327669119506 209.03654651087962,226.0371087646631 208.72868120195213,226.50090585379445 208.39682638843288,226.86074842255155 208.15693134263452,227.13262947482974 208.05297682261778,227.33254201309435 208.14893484110394,227.5884300619539 208.34085087783797,227.89229711999693 208.34884737936855,228.07621665520034 208.10895233345101,228.00424814154425 207.92903104889373,227.89229711999693 207.7451115136903,228.10020615991127 207.41325670017105,228.1241956640264 207.28131442491642,228.34809770712104 207.05341413129477,228.3640907101822 206.79752608231607,228.3161117013562 206.50565377644975,228.38808021501228 206.07784094456352,228.46804522996067 205.82195289558481,228.56400324844682 205.658024614327,228.60398575633806 205.33416630233833,228.7719122880037 205.26619603932838,228.91584931615 205.09427125653997,229.01980383592843 204.9023552196868,229.3876429063353 204.75441994125183,229.90741550534662 204.73442868754452,230.49915661908648 204.75841819213628,230.8510026860747 204.83438495667684,231.01093271644808 205.09027300553637,231.01892921857444 205.25420128691334,230.97894671032574 205.61004560514348,231.00293621551327 205.8099581434081,231.0269257198667 205.96588992325448,231.00293621551327 206.52564503039537,231.00293621551327 206.72555756865998,231.08290123081912 206.74954707325173,231.32279627626002 206.4936590243922,231.36277878415126 206.30574123818516,231.3387892793212 206.1658024615191,231.27481726743397 206.0098706816727,231.2028487537779 205.85393890170715,231.23483475954274 205.69400887133378,231.37077528544353 205.80595989252365,231.50671581146347 206.02986193538,231.6746423439632 206.12581995386617,231.81857937163286 206.25376397823635,231.96251639894507 206.45367651650096,232.02648841118975 206.5936152935245,232.11444992838364 206.76953832695904,232.70619104105106 207.0654088837098,232.7301805462386 207.02142812517243,232.14643593414849 207.42125320170163,232.0984569252033 208.21690510411392,232.17042543850192 208.5887424251669,232.6422190290447 208.72068470042154,232.75417005023456 209.16049228460366,232.99406509603293 209.3444118198071,233.21796713948507 209.40838383217093,233.5618167050619 209.3444118198071,233.79371524909135 209.4443680889394,233.937652276761 209.57631036419406,234.08158930478817 209.51633660283383,234.2415193351615 209.39239082922893,234.3454738550591 209.24445555067481,234.6093584052109 209.1045167738896,234.76129193464948 208.76066720807447,234.6893234209934 208.4448053976164,234.5613793963849 208.10095583192043,234.30549134716787 207.90504154430198,234.377459860824 207.56918848001743,234.63334791004098 207.42924970323222,234.76129193464948 207.26132317108994,234.84125694995532 207.04141937911805,234.88123945784656 206.72155931777553,234.89723246090773 206.2577622291208,234.8332604483056 206.0378584369106,234.89723246090773 205.40613481599445,235.12113450328746 205.21821703014487,235.20909602000472 205.06628350106377,235.32904354367844 205.01030799034967,235.52095957981666 204.81839195361567,235.60092459559914 204.61847941535106,235.6888861123164 204.54251265081052,235.888798650581 204.39857562314086,236.02473917648177 204.1306928218663,236.20066221039295 203.81483101140822,236.31261323194028 203.50696570248073,236.34459923770515 203.49097269941956,236.12869369673683 203.41100768423286,235.94477416117593 203.21909164749886,235.92878115847225 203.00318610617308,235.9607671642371 202.4634222527395,236.00074967212834 202.14356219163528,236.00874617306314 201.963640907078,236.07271818578445 201.49184731677352,236.44055725607214 201.10401699265935,236.69644530528916 200.92409570810207,236.8243893295402 200.82413943896975,236.99231586132498 200.7921534328474,237.25620041231087 200.63222340223575,237.27219341537204 200.4363091148556,237.1842318986548 200.41631786090997,237.40813394091535 200.28837383642062,237.5600674703539 200.0964577999249,237.5920534761188 199.88854875989142,237.48809895669783 199.8285749985312,237.69600799661217 199.56469044790276,237.6560254888401 199.3927656649952,237.58405697518398 199.00493534088105,237.72799400285365 198.61710501652854,237.9678890481754 198.36521521831514,238.20778409397377 198.1892921846423,238.32773161752831 198.04535515721093,238.37571062611602 197.90941463107185,238.48766164802083 197.6135440745594,238.63159867533304 197.34566127328483,238.75954269994153 197.25370150568313,238.8954832261998 197.06578371959523,238.94346223514498 196.8778659336265,238.991441243971 196.55800587240316,239.11938526857952 195.84231898541586,239.3192978068441 195.7063784595151,239.4072593235614 195.0266758292963,239.81508090221695 194.79077903414407,239.90304241857675 194.53489098516536,240.06297244930758 194.3749609545537,240.16692696908603 194.10707815339828,240.2229024800384 193.85119010430043,240.294870994052 193.1594927219049,240.33485350122828 192.31986006119357,240.2628849875722 191.88804897854203,240.25488848627992 191.12038483160595,240.11894795990253 190.57662272752623,239.95102142776025 190.26475916795263,239.79109139702942 189.7369900668149,239.5112138441739 189.4890985193668,239.41525582568775 188.9173486600492,239.24732929318802 188.29761979130978,239.12738177070588 188.04173174245025,239.09539576446437 187.370025613762,239.0554132566923 186.7423002437303,239.03142375186223 185.93065533825688,238.95945523820615 185.43087399259537,238.9114762293801 185.1429999376135,238.96745173949842 184.98706815764797,238.991441243971 184.36733928914686,239.10339226551835 183.73161741734626,239.17536077917444 182.98794277500193,239.3192978068441 182.37621040803143,239.39926282262658 181.99237833444423,239.46323483451377 181.2487036920999,239.6471543697172 180.9288436309957,239.75110888949564 180.5410133066432,239.863059911043 179.88130193037003,240.01499344048156 179.71737364899303,240.0469794462464 178.9856937589446,240.294870994052 178.43793340421874,240.55075904255406 177.89417130001988,240.862622602366 177.39838820512367,241.21446867006918 177.21047041915494,241.30243018642898 176.59873805206524,241.5343287308159 175.96301618050296,241.71824826601934 175.2393327919851,241.83019928756667 174.5116511525828,241.83819578921643 173.64802898739887,241.6622727554244 173.39214093830103,241.71824826601934 172.71243830820137,242.05410133066135 171.9047916536124,242.25401386892594 171.72886861993953,242.31798588081315 171.22908727427802,242.49390891496262 171.00518523142168,242.62185293921365 170.7173111764398,242.70181795428118 170.12157181229213,242.83775848053943 169.4938464421413,243.00568501232422 168.80214905974574,243.30955207120135 168.3583432249175,243.38152058485747 167.71062660105935,243.39751358791864 167.03892047225196,243.43749609533324 166.79102892480387,243.49347160628562 166.19928781154064,243.64540513500927 165.53957643526743,243.71737364866536 164.99581433118772,243.79733866444784 164.84388080222578,243.83732117186244 164.6039857561891,243.94127569176004 164.34010120567984,244.0292372084773 164.07621665528973,244.11719872519456 163.38851752354032,244.29312175934405 162.76479040415478,244.34110076828924 162.16905104024542,244.33310426652034 161.5413256699754,244.25313925157198 160.88961079523278,244.20516024191184 160.59773848936646,244.2131567440382 159.8740551008486,244.62097832185967 159.40226151054415,244.6129818205674 158.64259386513868,244.46904479289773 158.05085275187545,244.33310426652034 157.4551133879661,244.29312175934405 156.947335540774,244.2851252576943 156.01974136310707,243.9492721930523 155.22009121004868,243.6853876429005 154.41244455545967,243.50946460946597 153.9886299744579,243.5014681073396 153.64877865940807,243.52545761252713 153.39289061031022,243.65340163677817 153.0930218029133,243.71737364866536 152.41331917281366,243.6134191292444 151.6976322858264,243.33354157519733 151.06990691567552,243.06965702504553 150.5581308178373,243.03767101880402 149.9224089460367,242.9976885113894 148.99481476848896,242.62185293921365 147.13162991186286,242.42993690236048 146.10407946518282,242.61385643792138 145.58830511646013,242.98169550832824 144.56075466989924,243.16561504305506 144.2488911100873,243.79733866444784 143.8010870243746,244.49303429760866 142.50165552565468,244.73292934304953 141.6900106203004,244.9808208909743 140.79840069964027,244.96482788743648 140.3346036108664,244.80489785670565 140.30261760474406,244.3490972695815 140.01874180040832,243.9012931838688 139.47098144568247,243.69338414455024 138.90722808765713,244.04523021153847 138.04760417323848,244.44505528806766 136.7321796714574,244.42106578359508 135.41675516955718,244.26913225463315 134.1932904353778,243.96526519611348 133.5655650653461,243.50946460946597 133.5375773098699,242.96570250479044 133.41762978691114,242.70181795428118 133.00181170732077,242.31798588081315 132.07421752989217,241.98213281700524 130.7228087711043,241.63828325095182 129.1914787281166,241.61429374659838 127.53220466040125,241.71025176508454 125.57306178540814,241.84619229062784 123.48997313669099,241.78222027874065 122.3024926595184,241.7342412690805 120.81514337471062,241.7422377708494 118.69607046922499,241.42237770962603 116.96882613849967,240.87861560578463 115.83332292139504,240.3268570002935 114.34597363646809,239.95102142776025 113.6302867494808,239.6471543697172 112.87461735495977,239.28731180107926 111.90304241887465,238.9114762293801 111.35928031491409,238.7835322047716 110.42368963571658,238.7675392012338 110.1638033359726,238.7915287057064 109.77597301185843,238.98344474303622 109.09627038163963,238.97544824090983 108.92034734796678,239.1913537822356 108.66445929898808,239.28731180107926 108.06871993507873,239.23933279177658 107.6489036046039,239.07940276140323 106.96920097462342,239.06340975798457 106.41744236889396,238.991441243971 106.08558755549387,238.70356718898913 105.70975198355642,238.5116511528509 105.28593740243547,238.43168613706843 104.81814206277714,238.4556756418985 104.21840444798333,238.5116511528509 103.75060910844415,238.53564065684688 103.15886799518094,238.52764415591207 101.9673892671239,238.47966514660942 100.99181608039265,238.3677141247046 100.47604173166997,238.61560567262933 100.46404697949325,239.09539576446437 100.37208721189154,239.3832698195654 100.06822015361018,239.57518585570364 99.56444055730255,239.3672768160276 98.80077466101261,239.35128381296644 98.24501780463702,239.47922783793243 97.24945336419844,240.1349409629637 96.1339414005628,242.23002436409587 94.5786218528642,244.32510776558553 94.26276004240613,244.66096082939345 93.7789716998058,245.05278940463037 93.15524458042023,245.50059348998562 92.6514649841126,245.82845005285873 92.48753670261647,245.92440807170235 92.20765914916518,246.01236958841963 91.73986380950686,246.1083276069058 91.10814018870987,246.3082401451704 90.56037983386486,246.54013868919986 89.96464046971718,246.81201974147803 89.19297807213498,247.0759042919873 88.53326669574263,247.29980633436705 87.89354657341507,247.49971887263163 87.7176235397422,247.57168738628775 87.51371275059316,247.66764540513137 87.36577747227736,247.82757543550474 86.85400137443912,247.85956144162708 86.69407134382745,247.85956144162708 86.51015180862402,247.93952645705207 86.34622352736619,248.02748797376935 86.1463109891016,248.02748797376935 85.70250515403502,248.04348097683052 85.00281127010891,248.0194914723579 84.29911913529835,248.05147747859942 83.61541825443341,248.02748797376935 82.91172611986117,248.05147747859942 82.69182232765095,248.0594739798917 82.50790279244751,248.08346348472176 82.22802523887707,248.17942150320792 82.07209345914984,248.21940401062253 81.91216342853816,248.16342849967012 81.58430686566506,248.13144249354778 80.84063222332074,248.07546698331032 80.62472668199496,248.1154494904866 80.37683513454685,248.1074529895518 80.15693134257495,248.07546698331032 79.55319547689669,248.09945648742544 79.32129693262891,248.17942150320792 79.021428125232,248.21140750933026 78.53364153174722,248.08346348472176 78.10183044909569,248.02748797376935 77.39813831452344,247.98750546587812 77.02230274258598,248.02748797376935 76.84637970879398,248.0594739798917 76.59448991058058,248.03548447541908 76.23464734170429,247.86755794339598 75.69088523774373,247.5636908848763 75.07115636900431,247.19585181494608 74.36746423443206,246.81201974147803 73.75573186722323,246.50015618130863 73.09602049095004,246.13231711090177 72.5122758792174,245.78047104403268 71.80858374464516,245.32467045690856 71.5846817017888,245.2127194353612 71.26082338980015,245.00481039497024 70.81301930396828,244.6129818205674 70.26525894912326,244.2131567440382 69.78546885740738,243.83732117186244 69.31767351786822,243.4854751046359 68.70993940154382,243.1736115444665 68.57000062475859,243.10164303081038 68.33010557872191,242.93371649866813 67.9382770037233,242.52589492120413 67.46248516277271,242.15805585043978 66.97469856928791,241.75023427214168 66.49890672821816,241.42237770962603 66.07909039798166,241.21446867006918 65.69525832451362,241.11851065122553 65.41937902170847,241.08652464546066 64.73567814072437,241.22246517136145 64.48778659339541,241.25445117760293 64.33985131496046,241.198475667008 64.07596676445118,241.01455613180457 63.692134690983146,240.8386330978934 63.44424314353504,240.79065408835243 63.11638658078109,240.52676953855809 62.76454051355455,240.28687449240226 62.59661398141228,240.1829199726238 61.93690260501994,240.01499344048156 61.68501280680654,239.96701443082142 61.009308427472185,239.991003935294 60.38158305744049,240.00699693835517 59.69788217657555,240.03098644318524 59.01817954635674,240.038982944835 58.29449615783888,239.97501093223286 57.66677078780719,239.85506340975073 57.43487224330109,239.7830948960946 57.1070156806663,239.5911788587648 56.89111013934053,239.4552383332215 56.24339351524406,239.2233397887154 55.967514212558065,239.12738177070588 55.74761042034785,239.1353782716407 55.459736365485135,239.1353782716407 55.287811582339266,239.12738177070588 54.87999000427947,238.99943774609739 54.71206347213721,238.95945523820615 54.20028737429898,238.98344474303622 54.04035734356815,238.991441243971 53.764478040762995,238.95945523820615 53.084775410782505,238.7915287057064 52.808896107977354,238.7195601920503 52.549009808114214,238.54363715861578 52.31311301296198,238.17579808785143 52.093209220990076,237.95189604511424 51.56144186932539,237.56806397164618 51.3975135877101,237.48010245528639 51.10564128184378,237.35215843032043 50.63384769165848,237.25620041231087 49.87418004613383,237.2242144060694 49.19447741615334,237.2881864184332 48.40682201527165,237.424126944334 48.09895670634416,237.552070968585 47.647154369866165,237.680014993551 47.35128381323455,237.70400449766612 47.1033922659056,237.72799400285365 46.91147622917158,237.83194852227462 46.98744299371213,238.0558505653693 47.15137127496995,238.52764415591207 47.171362528915566,238.70356718898913 47.16336602750414,238.8555007184277 46.88348847369538,239.27931529966781 46.55963016170673,239.6391578683058 46.37171237585716,239.79109139702942 46.091834822167556,239.81508090221695 46.007871556096426,239.66314737277838 46.04385581298405,239.43124882839143 46.05185231451463,239.12738177070588 46.09983132369814,238.80752170876758 46.30374211284719,238.23177359880384 46.41169488351008,238.0558505653693 46.35571937267683,237.90391703593073 46.18379458976927,238.00787155570916 45.94389954385175,237.9838820517132 45.81195726871627,237.84794152533578 45.6160429810978,237.9199100389919 45.45211469972083,238.09583307314136 45.36015493211911,238.2797526083448 45.22421440609918,238.3677141247046 45.02430186783458,238.37571062611602 44.86837008798819,238.35172112164344 44.532517023703655,238.4556756418985 44.128693696528316,238.5916161674418 43.988754919743094,238.66358468145538 43.804835384539665,239.09539576446437 43.71287561693794,239.29530830272898 43.38102080341871,239.4472418314526 43.1811082651541,239.3672768160276 43.24907852804491,239.19935028436197 43.36102954947309,238.95145873643725 43.117136252790274,238.86349721971996 42.94121321911742,238.80752170876758 42.521396888880915,238.3837071282424 42.125570062997845,237.99987505477435 41.71375023429192,237.69600799661217 41.525832448204035,237.47210595363666 41.40188667447998,237.1122633849987 41.31392515776272,236.63247329268702 41.26594614869837,236.45655025925248 40.82613856427793,236.0327356778932 40.65421378137037,235.9767601669408 40.43031173863317,236.09670769049535 40.27038170790234,236.20066221039295 40.0344849127501,236.2246517147464 39.834572374485504,236.20865871132773 39.662647591577944,236.2326482161578 39.118885487498225,236.25663772098787 38.56312863112263,236.45655025925248 38.20328606224635,236.44055725607214 38.491160117466535,236.06472168401555 38.58311988506825,235.84881614268977 38.60311113877555,235.59292809347278 38.41519335292598,235.3050540384909 38.35921784209274,235.1531205094098 38.38720559744978,234.9532079711452 38.40319860051095,234.79327794041436 38.56312863112263,234.54538639332372 38.78303242333285,234.38545636295035 39.15087149362056,234.28150184305275 39.442743799486884,234.08158930478817 39.630661585574764,233.59380271082674 39.84656712678138,233.30592865584487 39.95052164667897,233.16199162853266 40.07046916963773,232.65021553045614 40.146435934178285,232.1304429314448 40.05447616657656,231.63465983607196 39.73061785470707,231.2988067721449 39.63865808710535,231.14687324282548 39.61866683315973,230.97894671032574 39.61067033162915,230.78703067418752 39.410757793364546,230.28325107776072 39.27881551810991,230.13931404973357 39.08290123072975,230.04335603160487 38.91097644770304,230.03535952995514 38.671081401785514,230.0833385394961 38.2272755668381,230.59511463685772 38.079340288522296,230.73905166452738 37.84344349337006,230.77903417206113 37.53157993379644,230.75504466758855 37.33166739553184,230.7230586614662 37.119760104852205,230.5871181359229 37.119760104852205,230.43518460648434 37.21571812333837,230.21128256338966 37.41962891224911,230.00337352419027 37.5715624413302,229.93140501053418 37.73149247206104,229.87542949958177 37.871431248727106,229.74748547497327 38.159305303828134,229.56356593976983 38.51115137117384,229.5955519455347 38.946960704590666,229.57955894247354 39.14287499208998,229.5235834318786 39.26682076605235,229.36365340150522 39.22683825816111,229.19572686900548 39.12688198902881,228.9958143307409 39.00293621530476,228.86787030648986 38.831011432516355,228.82788779895608 38.671081401785514,228.78790529154148 38.33123008685485,228.4840382333793 38.03935778098853,228.30011869817585 37.819453988778314,228.0362341473091 37.703504716584845,227.52445804923258 37.60754669833699,227.34053851402913 37.31567439247067,227.1086399696422 37.119760104852205,227.04466795763585 36.731929780738035,227.02067845328241 36.43206097334113,226.8927344286739 36.20016242895419,226.78877990889546 35.81633035548615,226.708814893113 35.640407321813306,226.6368463794569 35.528456300265965,226.52489535790957 35.30055600676348,226.41294433636222 35.08065221455326,226.46092334602235 34.84075716875489,226.52489535790957 34.556881364300004,226.64484288110663 34.37696007998102,226.59686387156566 34.78478165804081,226.2370213029277 34.99269069783599,225.94914724794583 35.07665396390713,225.68526269767486 35.06465921149209,225.50134316247141 34.9607046915945,225.34940963315202 34.78478165804081,225.21346910677462 34.58087086889175,225.08552508288105 34.29299681390988,224.96557755968396 34.0531017678732,224.93359155391911 33.88517523585009,224.9495845566228 33.72924345588455,224.9575810579151 33.565315174507575,224.98157056238767 33.28543762105629,225.22146560890098 33.153495345682494,225.3334166304483 32.95758105818318,225.42937464845787 32.80164927845595,225.43737114986928 32.525769975650796,225.23745861160467 32.41781720498791,225.12550759005734 32.437808458695216,224.90160554767763 32.38982944951171,224.7416755165893 32.28987318037941,224.61373149198081 32.145936152828895,224.445804960196 31.85406384696258,224.1419379017955 31.73811457476911,223.97401136965323 31.68613731493947,223.52620728394052 31.666146060993853,223.37427375485942 31.438245767372205,222.81451864759939 31.242331479992053,222.5026550885024 31.034422440196867,222.3747110635364 30.722558880384927,222.3907040670742 30.426688323872476,222.22277753493194 30.050852751815864,222.2547635406968 29.782969950541297,221.990878990545 29.714999687531332,221.85493846416762 29.563066158450233,221.70300493544397 29.435122134080046,221.830948959695 29.20322358969311,221.655025925903 29.11126382209139,221.51108889823334 29.01130755295909,221.3271693630299 28.875367026820005,220.83938276978344 28.703442244031603,220.70344224412096 28.447554194933755,220.82338976707973 28.191666145955065,221.08727431758902 27.99575185857491,221.24720434796237 27.727869057300342,221.30317985891477 27.579933778984536,221.1752358339488 27.53995127121246,220.89535828073582 27.232085962284973,221.47110639069956 27.13612794403712,221.61504341801177 26.88823639658901,221.7909664522804 26.620353595314445,221.75098394438916 26.736302867507916,221.51108889823334 26.708315112031713,221.35115886785997 26.5723745862501,221.20722184054776 26.420441057049842,221.27919035420388 26.364465546216596,221.4631098894073 26.304491784856374,221.6630224276719 26.04060723422794,221.7909664522804 25.760729680657498,221.75098394438916 25.648778659229322,221.62303992013815 25.696757668531983,221.4311238831658 25.796713937664283,221.2312113449012 25.77272443319169,220.98331979709562 25.744736677715487,220.58349472056642 25.836696445317205,220.39957518536298 26.032610732697357,220.22365215228592 26.240519772492544,220.17567314262578 26.552383332185325,220.14368713650344 26.712313362916163,220.1596801395646 26.89223464723515,220.19166614616358 27.491972262028955,219.96776410306893 28.159680139832727,219.7998375705692 28.407571687280832,219.75985506303542 28.6034859748993,219.7918410696344 28.691447491616568,219.93577809730405 28.79140376074887,219.80783407269556 28.859374023758836,219.655900543257 29.087274317499638,219.1601174482416 29.411132629488293,218.6963203598252 29.587055663161145,218.53639032945185 29.7309926905925,218.47241831673054 29.89891922273477,218.46442181543827 30.13881426865229,218.4404323106082 30.382707565335103,218.296495283296 30.618604360606493,218.12856875079626 30.834509901932265,217.92865621253165 31.018429437135698,217.60879615178493 31.006434684720663,217.43287311787375 30.914474917118948,217.25695008408175 30.626600862137078,216.97707253039215 30.57862185295357,216.66520897105684 30.366714562273938,216.20141188180634 30.230774036254008,216.02548884872928 29.998875491867068,215.82557631046467 29.842943712139835,215.68963578444473 29.675017179878413,215.6176672700737 29.53507840321235,215.7056287875059 29.25919910028804,215.66564627973383 29.283188604879793,215.51371275029527 29.459111638552642,215.1458736798884 29.39913787707326,214.99394015128394 29.19922533880866,214.937964640689 28.855375772993543,214.72205909936324 28.595489473368715,214.85799962490654 28.347597925801452,214.92197163762782 28.175673142893896,214.91397513550146 28.03573436622783,214.82601361914166 27.947772849272248,214.53014306203343 27.751858561772938,214.49016055485714 27.57593552810009,214.682076591472 27.412007246842272,214.79402761301932 27.300056225294938,214.682076591472 27.320047479240554,214.26625851188163 27.244080714700004,214.05834947184812 27.080152433323033,214.02636346608324 26.736302867507916,213.96239145336196 26.556381582950618,214.04235646878695 26.356469044686015,214.04235646878695 25.92065971138834,213.8664334353524 25.59680139939968,213.76247891509735 25.46885737479118,213.66652089708782 25.31292559506395,213.56256637683273 25.16099206586369,213.54657337377157 24.90110576611971,213.6025488843665 24.741175735508026,213.6345348908463 24.517273692651674,213.57056287860163 24.409320921988787,213.42662585128946 24.233397888315938,213.29068532526952 24.041481851581917,213.33866433457217 23.817579808725565,213.29868182668093 23.717623539593262,213.07477978358628 23.9295308302729,212.97082526380782 23.9295308302729,212.81889173436926 23.76560254877677,212.6909477104757 23.541700505920414,212.6669582057648 23.37777222454344,212.6589617039959 23.22983694634679,212.5230211784526 23.18585618780942,212.33910164324917 23.28981070782617,212.15518210768826 23.62166552134541,211.93927656671997 23.661648028879174,211.7233710253942 23.497719747621357,211.6034235017205 23.38177047542789,211.42750046864342 23.73361654265443,211.4035109634559 23.905541325681146,211.4594864744083 24.093459111530716,211.54744799112555 24.2014118821936,211.65939901267288 24.297369900679765,211.8273255451726 24.361341912805283,212.05122758779066 24.365340163570576,212.29911913535793 24.513275442005536,212.41107015690525 24.68919847567839,212.36309114724514 24.953083026068505,212.29911913535793 25.240957081169533,212.25114012605528 25.400887111781216,212.1791716120417 25.564815393158188,212.01924158131087 25.700755919178118,211.70737802221387 25.704754170062568,211.49946898229953 25.720747173123737,211.3315424497998 25.760729680657498,210.80377334866208 25.72474542376987,210.48391328791533 25.636783907052603,210.27600424788184 25.6887611670014,209.98013369113107 25.580808396338515,209.81220715946543 25.400887111781216,209.7882176542779 25.10501655526876,209.78022115286646 25.10101830438431,209.60429811907446 25.10501655526876,209.43637158728967 25.00106203525201,209.3004310613889 24.92909352159591,209.12450802795436 24.881114512412406,208.94058849275092 24.741175735508026,208.86861997873734 24.629224714199008,208.76466545848228 24.657212469436892,208.43680889596666 24.741175735508026,208.26088586217466 24.97307428013328,208.04498032084888 25.093021802853727,207.8850502904755 25.121009558329927,207.70912725692182 24.91310051853474,207.1493721493043 24.861123258466787,206.98144561716202 24.91709876918088,206.83750858984985 25.152995564333107,206.38170800236824 25.208971075047195,206.18979196551504 25.19297807198603,205.94989691971668 25.10501655526876,205.77397388628216 24.965077778364382,205.41413131764418 24.781158243280103,205.23820828373303 24.50927719112109,205.30218029609685 24.309364652856488,205.14225026572348 24.14143812071422,205.2941837946854 23.9015430747967,205.19022927419203 23.789592053487677,205.00630973898862 23.65365152734859,205.110264259482 23.405759980019642,205.08627475477107 23.017929655667157,204.95833073016257 22.662085337556164,204.87036921344531 22.322234022625494,204.88636221650648 22.010370462813558,204.71843568400675 21.83444742914071,204.5345161488033 21.570562878631435,204.51852314574214 21.478603111029717,204.31861060747752 21.5145873680365,204.0707190603869 21.866433435263044,203.65490098067738 21.958393202864762,203.50296745171542 21.82245267696399,203.3830199283992 22.006372212167424,202.95120884574766 21.89841944150454,202.83126132326552 21.51858561868264,203.19110389154602 21.346660835894237,203.3350409192157 21.190729056047847,203.3830199283992 20.98282001625266,203.399012931937 20.83088648717156,203.25507590414816 20.90685325171211,203.05516336588357 21.142750046745185,202.71131380030675 21.114762291507297,202.36746423401502 20.98282001625266,202.21553070541054 20.790903979518642,201.81570562888135 20.790903979518642,201.6317860936779 20.902855000827664,201.447866558117 21.038795526966748,201.26394702291356 21.102767539092266,201.08002748771014 21.2866870742957,200.9200974569793 21.810457924548956,200.86412194638436 22.27025676255754,200.91210095592535 22.53414131306682,200.97607296793169 22.738052102215867,201.04004498017636 22.91397513588872,201.07203098641787 23.16586493398296,201.1200099952439 23.389766976958473,201.15199600136623 23.66964453040976,201.1040169925402 23.81358155807943,200.97607296793169 24.089460860884582,200.5042793777464 24.233397888315938,200.3203598421855 24.349347160509407,200.21640532276453 24.53726494659729,200.11245080286693 25.049041044435516,200.05647529191452 25.304929093533364,200.0324857875611 25.652776909994614,199.76060473528293 26.15655650642141,199.3527831569848 26.452427063053022,199.00893359105055 26.616355344429998,198.52914349993043 26.752295870449927,198.0573499092685 26.748297619684635,197.76147935263688 26.624351845960582,197.32167176821645 26.480414818529223,197.16973823913534 26.29649528332579,197.08177672241808 26.15255825565612,197.02580121146568 25.988629974398304,196.8578746796809 25.924657962034473,196.64996563976655 25.892671955912135,196.3381020799546 25.756731429892206,196.16217904652007 25.43287311790355,196.05022802497274 25.564815393158188,195.8743049915382 25.62878740552202,195.6663959515047 25.544824139450885,195.49047291807017 25.528831136389716,195.26657087497549 25.55282064086231,195.0106828257585 25.480852127206212,194.85874929703488 25.17698506892486,194.57887174346442 25.017055038313178,194.53888923557318 24.92909352159591,194.6668332601817 25.021053289197628,194.90672830633753 25.025051539843762,195.29056037980556 24.87311801100098,195.35453239169277 24.66920722173277,195.2425813705029 24.35734366203999,195.09064784154097 24.165427625305973,195.01867932788485 23.769600799542058,194.75479477689896 23.52170925221311,194.6108577492293 22.977947148014234,194.44293121744448 22.690073093032364,194.35496970036976 22.39020428563546,194.23502217788763 21.806459673902822,193.93915162077937 21.51858561868264,193.62728806096746 21.4865996125603,193.4353720248292 21.46660835873384,193.05153995100372 21.462610107968548,192.89960642228007 21.498594364975336,192.69169738236573 21.17873430363281,192.73967639119178 21.110764040622847,192.5717498590495 20.99881301931383,192.07596676451075 20.886861997766495,192.67570437930456 20.87886549623591,192.86762041580027 20.726931967154812,192.88361341886144 20.479040419706706,192.7076903854269 20.29512088450327,192.3718373207849 20.37108764904382,192.04398075826927 20.23914537390834,191.95601924119453 20.19916286625542,191.80408571259005 20.219154119962724,191.60417317432547 20.37108764904382,191.50821515583928 20.523021178244075,191.44424314347546 20.650965202614262,191.36427812816962 20.730930218039262,191.18035859296617 20.782907477988058,190.9804460547016 20.98282001625266,190.7565440116069 21.17073780210223,190.71656150443062 21.54257512327439,190.86049853174282 21.830449178494575,190.78853001772924 21.80246142301837,190.61260698393724 21.670519147763734,190.52464546721998 21.386643343428,190.40469794473785 21.278690572765115,190.25276441529928 21.27469232223814,190.03685887433096 21.002811269959963,190.1568063968131 20.794902230164777,190.13281689281715 20.658961704144847,189.98887986467085 20.447054413703526,189.80496032994404 20.207159367786005,189.78896732640624 20.027238083228703,189.70100581004644 19.7273692758318,189.54107577895812 19.867308052617023,189.39713875128845 20.039232835643737,189.4291247574108 20.267133129146227,189.5490722810845 20.507028175182906,189.421128256476 20.738926719569847,189.19722621302387 20.910851502358245,189.14125070242892 21.090772786915547,189.1172611983138 21.354657337305664,189.18123321032016 21.482601361914167,189.07727869054173 21.50259261562147,188.87736615227712 21.382645092781864,188.74942212802608 21.52658212021322,188.61348160129123 21.594552383223185,188.43755856821414 21.702505153886072,188.30161804219424 21.990379209106255,188.2696320357144 22.05035297046648,188.03773349168495 22.27025676255754,187.84581745471263 22.334228774802217,187.6698944209206 22.51814831000565,187.53395389537732 22.574123820958054,187.390016867231 22.722059099154702,186.91022677575344 22.778034609749632,186.7343037423189 22.961954144953065,186.55038420711546 23.16586493398296,186.57437371111143 23.21384394328562,186.38245767461572 23.24183169852351,186.214531142116 23.409758230665776,186.15855563152107 23.721621790477712,186.18254513635114 23.949522083980202,186.15855563152107 24.089460860884582,186.214531142116 24.301368151325903,186.19853813905482 24.49728243894437,186.03860810903893 24.501280689590505,185.88667457960037 24.473292934471775,185.57481101978843 24.621228212668424,185.42287749118395 24.793152995456822,185.4468669955374 25.184981570455445,185.56681451849616 25.344911601186283,185.46285999859856 25.556818891627604,185.28693696480656 25.808708689841005,185.15899294019806 25.940650965095642,185.06303492206936 25.84469294684779,184.91909789475716 25.692759417647533,184.74317486060767 25.704754170062568,184.53526582140827 25.848691197493924,184.43930780292212 25.9606422189221,184.27937777219128 25.984631723513854,184.06347223074633 26.01661772963619,183.79159117846817 26.15655650642141,183.68763665868974 26.796276628987297,183.42375210853794 27.040169925550952,183.47173111736396 27.356031736009026,183.48772412042513 27.54394952209691,183.43174860947272 27.77584806636469,183.36777659758553 28.079715124646043,183.31180108699058 28.247641656669153,183.36777659758553 28.407571687280832,183.43174860947272 28.743424751684522,183.47173111736396 28.98731804836734,183.47972761913286 29.44311863561063,183.49572062219403 29.65502592605195,183.4557381143028 29.830948959724804,183.43174860947272 30.018866745812687,183.42375210853794 30.21478103319284,183.44774161289138 30.43068657451861,183.47173111736396 31.038420690843,183.39176610193897 31.326294746063184,183.33579059182065 31.666146060993853,183.1758605606132 32.061972886757765,182.80002498855657 32.27388017731824,182.59211594888055 32.5457612293581,182.40019991202738 33.053539076550194,182.04835384503914 33.21346910716187,181.91241331913838 33.413381645426476,181.71250078087377 33.62129068522166,181.59255325755754 33.81720497284013,181.6245392641565 34.02111576175087,181.66452177157112 34.265009058433684,181.70450427946236 34.504904104351205,181.68051477475143 34.84075716875489,181.58455675626527 35.15661897909381,181.2966827012834 35.18060848368556,180.92884363051905 35.35653151735841,180.40107452938136 35.292559505232894,180.08921096992688 35.12463297309063,180.0252389580397 34.93271693635661,179.9372774413224 34.832760667224306,179.76935090882267 34.768788655098795,179.5614418687892 34.868744924231095,179.40950834018471 35.00468545001271,179.22558880498127 35.0406697070195,179.00968326365552 34.85275192093161,178.88973574033926 34.62085337654467,178.75379521479599 34.59686387195292,178.60186168499993 34.64884113190172,178.44193165498405 34.696820141085226,178.26600862107287 34.40094958457277,178.3379771352056 34.3329793215628,178.1460610978758 34.39695133368832,177.9941275687947 35.06465921149209,177.14649840655278 35.088648716083846,176.95458237041456 35.052664459196215,176.77865933614592 35.02067845307388,176.5787467978813 35.14462422679793,176.42681326927683 35.392515774365194,176.24289373407342 35.460486037256004,176.05097769710108 35.40850877742636,175.79508964788408 35.444493034194835,175.50721559325967 35.252576997460814,175.14737302390677 35.12463297309063,175.0434185044858 34.83675891787045,174.8435059662212 34.504904104351205,174.6355969258302 34.36096707680069,174.5316424060518 34.300993315440465,174.29174736025342 34.149059786240215,174.17179983741383 33.921159492618564,174.06784531751623 33.805210220425096,173.96389079738032 33.705253951292796,173.7239957519394 33.53732741915053,173.38814268741658 33.40538514389589,173.18023364738306 33.257449865580085,173.11626163549587 33.00556006736669,173.18023364738306 32.84163178610887,173.2282126570432 32.677703504731895,173.1722371460908 32.73767726609212,173.00431061359106 32.949584556652596,172.6924470541366 32.99356531518997,172.51652402070206 32.76966327245277,172.28462547631514 32.63372274631369,172.18866745782896 32.23389766978448,171.91678640590825 32.05797463599247,171.81283188612983 31.85406384696258,171.93277940861196 31.502217779736036,171.87680389801702 31.258324482934064,171.93277940861196 31.07040669720365,171.9567689137995 30.954457424771867,171.83682139012578 30.778534391218173,171.84481789225217 30.47466733293682,171.83682139012578 30.362716311508645,171.68488786152133 30.53464109453536,171.54095083420913 30.64659211584438,171.4210033105354 30.598613106660874,171.25307677875062 30.174798525539916,170.925220216235 30.0828387579382,170.6853251701983 29.974885987275314,170.40544761615124 29.854938464316554,170.23752108400896 29.49909414620556,170.1095770601154 29.291185106410374,170.07759105363562 29.099269069676357,170.02961204480957 28.635471981021638,169.95764353115348 28.395576935104113,170.03760854574438 28.279627662910645,170.35746860768268 28.06772037223101,170.4854126319337 27.699881301824142,170.42943712133876 27.535953020566325,170.38145811167865 27.204098207047085,170.4214406192124 26.908227650296315,170.43743362227357 26.636346598375614,170.4134441182776 26.456425313818315,170.2855000936691 26.372462047985497,170.1095770601154 26.260511026319005,169.89367151843217 25.908664958973304,169.85368901089842 25.72474542376987,169.877678515371 25.364902854893586,169.9096645218508 25.17298681839788,169.91766102326224 25.069032298261973,169.73374148770134 25.0570375459661,169.51783594673304 24.985069032190843,169.29393390363836 25.1569938150984,169.1420003750339 25.404885362665663,168.99006684559532 25.528831136389716,168.798150808623 25.46885737479118,168.58224526729722 25.35290810259771,168.43830823962756 25.20097457351661,168.37433622774034 24.685200224793938,168.10245517581964 24.513275442005536,168.04647966522472 24.257387392907688,168.00649715697602 23.957518585510787,167.92653214226596 23.801586805664396,167.85456362825238 23.8495658148479,167.6546510899878 24.181420628486297,167.50271756102583 24.3533454112747,167.42275254524338 24.545261448127874,167.23883301003994 24.59324045719222,167.0629099766054 24.47729118499875,166.90297994623202 24.313362903740934,166.82301493044957 23.997501093282864,166.85500093692937 23.845567564201765,166.88698694317085 23.35378271995169,166.91097644788178 23.30180546000289,166.74304991585868 23.52170925221311,166.55913038065523 23.769600799542058,166.41519335298557 24.093459111530716,166.37521084509433 24.197413631547466,166.1912913098909 24.15743112377539,165.94339976280025 24.06147310540838,165.7834697315928 23.881551821089396,165.64752920604948 23.625663771991547,165.75148372547045 23.389766976958473,165.7914662333617 23.20584744175504,165.60754669780079 23.18585618780942,165.4476166677849 23.333791466125227,165.2477041295203 23.373773974016462,165.08777409878945 23.645655025937163,164.85587555428336 23.9015430747967,164.7599175362738 24.18941713001688,164.72793153003232 24.49728243894437,164.79990004333095 24.653214218671604,164.8958580618171 24.84113200464033,164.99981258159553 25.121009558329927,164.99981258159553 25.424876616372966,165.01580558513334 25.604797900930265,164.95183357241206 25.896670206796585,164.7599175362738 25.99662647592889,164.5759980007129 26.024614231166773,164.37608546244832 25.9606422189221,164.20815892994855 25.756731429892206,164.02423939474514 25.5088398824441,163.88030236743293 25.344911601186283,163.7763478476545 25.224964078108364,163.59242831245106 25.10501655526876,163.48847379267264 24.845130255524776,163.44849128513886 24.625226463314558,163.4324982820777 24.513275442005536,163.28856125440802 24.661210720202185,162.87274317469848 24.81314424940244,162.53689011017565 24.957081276833797,162.37696007980227 25.196976322870476,162.30499156614619 25.372899356662483,162.28100206131612 25.39688886113508,162.10507902788157 25.436871368788,161.92915599432789 25.532829387035854,161.76122946230478 25.84469294684779,161.51333791473752 26.02061598052064,161.34541138271442 26.000624726575023,161.18548135150692 25.85668769902451,161.04954082596365 25.680764665470814,160.96957581018117 24.921097020065325,160.80964577945034 24.761166989334487,160.72168426309054 24.653214218671604,160.59374023848204 24.3533454112747,160.12194664829673 24.209408383724185,159.954020115797 23.73761479353888,159.60217404845127 23.545698756804864,159.50621603044175 23.36577747224756,159.4182545137245 23.161866683217667,159.28231398734707 23.021927906551603,159.07440494767104 22.95395764342248,158.87449240940646 22.566127319189153,158.54663584700998 22.342225276332798,158.27475479461265 22.162303991894657,158.15480727141556 21.798463172372237,158.05884925328687 21.614543637168804,157.94689823221617 21.57855938016202,157.7949647027776 21.566564627866143,157.39513962624838 21.378646841897417,156.93134253771282 21.278690572765115,156.77940900839343 21.262697569703946,156.53151746118363 21.398638095843033,156.39557693492537 21.51858561868264,156.25963640890544 21.318673080418034,155.75585681224032 21.022802523905582,155.61991628669705 20.84288123934828,155.58793028009808 20.610982694961343,155.643905790693 20.343099893686777,155.68388829858424 20.01924158169812,155.67589179717282 19.799337789726213,155.5719372770369 19.639407759114533,155.42000374843244 19.595427000577164,155.236084213229 19.535453239097784,154.98819266530427 19.559442743689534,154.82826263457343 19.53945148998223,154.5723745857139 19.347535453248213,154.42044105710943 18.999687636667804,154.1645530082499 18.81176985057992,153.9726369709201 18.467920284764805,153.45286437190876 18.028112700582682,153.1649903169269 17.660273630175812,152.8051477474548 17.472355844207087,152.59723870789793 17.036546510790252,152.27737864667458 16.764665458750393,152.14143812041632 16.15293309166071,151.98950459133522 15.853064284263807,151.8615605670842 15.513212969213983,151.77359905000947 15.309302180303247,151.7576060469483 15.149372149691564,151.77359905000947 14.941463109896379,151.79758855483954 14.74954707316236,151.77359905000947 14.505653776360388,151.67764103188077 14.321734241156953,151.65365152752733 14.061847941412971,151.6056725178672 13.885924907859279,151.64565502540097 13.749984381839347,151.55769350868368 13.678015868183248,151.41375648101402 13.77797213731555,151.09389642026727 13.949896920103951,150.90997688506386 14.121821702892351,150.83800837140774 14.329730742687538,150.69407134373807 14.385706253520784,150.46217279923198 14.133816455307384,150.1423127377703 13.80995814331873,149.71849815712596 13.67001936641435,149.58255763086774 13.406134815905075,149.43862060355553 13.22621353158609,149.27869057270553 13.122259011569339,149.11876054233218 12.638470668969003,148.5430124316535 12.454551133765568,148.43106141010614 12.274629849327425,148.33510339233493 12.09470856500844,147.97526082298202 12.07871556206643,147.7753482847174 12.198663084786878,147.43949522090952 12.258636846266258,147.15961766686243 12.170675329429832,146.9037296180029 11.946773286573478,146.60785906125213 11.842818766795041,146.43993252958649 11.806834509788256,146.26400949567534 11.874804772798221,146.01611794786976 12.022740051114027,145.74423689594906 12.290622852388594,145.32841881671615 12.410570375466513,145.06453426608772 12.530517898306117,144.92859374018695 12.634472418322867,144.72068470051093 12.606484662846666,144.52876866365773 12.39857562305148,144.40082463904923 12.246642093970381,144.32885612539314 11.99475229587614,144.19291559901575 11.81483101131884,144.07296807617612 11.690885237594786,143.96901355675516 11.682888736064204,143.73711501224906 11.550946460928722,143.65714999694325 11.263072405708538,143.67314299964693 11.099144124331564,143.68113950129668 10.923221090658714,143.64115699388208 10.74329980633973,143.49721996621238 10.543387268075127,143.18535640640044 10.615355781731227,143.0094333724893 11.115137127392732,143.0174298739007 11.746860748308876,143.04941588002305 11.966764540399938,143.04141937908827 12.038733054175195,142.6895733113851 12.022740051114027,142.52964328101172 11.682888736064204,142.0178671825777 11.430998937850804,141.50609108485864 11.323046167187918,141.32217155001268 11.079152870743417,140.84238145817764 10.947210595250466,140.49053539047446 10.859249078414042,140.21865433819627 10.887236833890244,139.7148747422461 10.903229836951411,139.23508464993444 10.951208846134916,138.8432560755316 11.01518085826043,138.23552195861143 10.991191353668679,137.85968638726976 10.891235084536378,137.307927781302 10.795277066288525,136.7641656771031 10.619354032615675,136.28437558550638 10.339476478926075,135.78859249061017 10.007621665406836,135.34878490618974 9.615793090408214,134.83700880811318 9.267945273827808,134.4131942271114 9.032048478675575,133.94140063728355 8.900106203420938,133.46960704674078 8.700193665156336,132.92584494289937 8.628225151500237,132.70993940121613 8.624226900615787,132.45405135199914 8.632223402146371,131.88629974368513 8.540263634544655,131.38252014702002 8.480289873303589,130.6468420066829 8.568251389901699,130.12706940719494 8.544261885429103,129.70325482595484 8.436309114766217,129.19947522917056 8.484288123830567,128.62372711884936 8.560254888371114,128.48778659318688 8.92809395889714,128.09595801806913 9.307927781480727,127.77609795732238 9.519835072160364,127.58418191999257 9.879677641155805,127.12838133322592 10.0755919284168,126.6725807457443 10.211532454555886,126.40069969346614 10.403448491289906,126.19279065390926 10.783282313873492,125.80895858044123 11.123133628923316,125.40913350391202 11.42700068720467,125.06528393833521 11.634909726999856,124.90535390760438 12.198663084786878,124.63347285568368 12.406572124582063,124.59349034779244 12.682451427387214,124.37758480682415 13.146248516161092,123.98575623122973 13.578059599050947,123.63391016436066 14.069844442943555,123.20209908123249 14.433685262704287,122.81826700776446 14.869494596001964,122.35446991899057 15.317298681833831,121.93865183975768 15.429249703142851,121.81870431644144 15.709127256832451,121.37090023072874 15.94102580121939,120.89910664054344 16.040982070351692,120.68320109921765 16.208908602493956,120.22740051173605 16.316861373156843,119.97151246287652 16.73667770339335,119.40376085420505 16.816642718818347,119.21984131900162 16.860623477117404,118.95595676849234 17.012557006198502,118.42818766735463 17.24445555058544,117.9084150683433 17.34441181971774,117.59655150853136 17.532329605805625,117.100768413516 17.688261385532858,116.58899231543946 17.824201911671942,115.94927219346935 17.9681389391033,115.27756606466197 18.072093459000893,114.77378646799686 18.168051477367904,114.26201036992032 18.244018241908453,113.67826575854515 18.26400949573491,113.35840569708347 18.276004248269103,113.1185106512851 18.299993752741695,112.5267695382602 18.35596926333663,112.03098644288735 18.391953520343414,111.31929780690369 18.343974511040752,110.79152870576598 18.252014743439034,110.25576310369348 18.18804273119436,109.767976510447 18.124070719068847,109.15224589247288 18.00812144687538,108.59249078485536 17.85218966690983,107.99275317006155 17.73624039471636,107.4090085583289 17.64028237646851,106.95320797156225 17.528331354921175,106.37745986088356 17.34841007060219,105.66577122454242 17.36840132430949,105.16199162823477 17.288436309003654,104.53826450932586 17.184481789225217,104.05047791536444 17.008558755552365,103.57068782424433 16.800649715757178,103.02692571956882 16.484787905299108,102.54713562809125 16.07296807635487,102.19528956038808 15.82107827814147,102.00337352389238 15.405260198551098,101.6275379517166 14.901480602243458,101.0517898413954 14.389704504166918,100.69994377440717 14.08183919523943,100.42006622083673 13.8459424000872,99.95626913230116 13.59005435110851,99.48447554175839 13.29818204524219,98.892734428376 13.26219778835456,98.61285687468641 13.326169800718391,98.2929968135822 13.366152308252154,98.02911226295377 13.342162803779559,97.6772661960847 13.202224026994339,97.15749359659674 12.942337727250354,96.72568251358771 12.570500405959038,96.19791341245 12.302617604803627,95.73411632403361 12.21065783720191,95.48622477646634 12.114699818715744,95.01443118592357 11.990754044991691,94.45467607866352 11.866808271267637,93.87093146693088 11.81882926220329,93.27919035426345 11.63890797764599,92.55150871486114 11.558942962340149,92.3835821823614 11.271068907239123,91.75985506345246 11.143124882868934,91.49597051258573 10.923221090658714,91.00018741757034 10.751296307870312,90.48841131985128 10.643343537207429,89.8806772037652 10.615355781731227,89.66477166243943 10.315486974334323,88.59324045746033 10.187542949964135,88.33735240824332 10.039607671529172,88.21740488492709 9.76372836872402,88.00949584537021 9.655775598061135,87.81757980839788 9.315924283011311,87.32979321515141 8.892109701890355,86.88198912979617 8.452302117827386,86.34622352724703 8.196414068848695,85.89841944117686 7.836571499972411,85.40263634616149 7.620665958646641,84.95483226080624 7.480727181980576,84.58699319004191 7.368776160314084,84.37108764871614 7.1168863621006855,84.26713312929517 6.79302805011203,84.21915411963504 6.5771225087862595,84.21915411963504 6.377209970521657,84.22715062140394 5.917411132513072,84.10720309844518 5.697507340541167,84.0592240889042 5.453614043858352,84.15518210774783 4.945836196666262,84.29112263364861 4.6819516462761435,84.20316111657387 4.426063597059138,84.0592240889042 4.1301930405466845,83.87530455370077 3.8942962452752963,83.84331854757843 3.6703942024189415,83.84331854757843 3.51046417180726,83.7793465360487 3.262572624359153,83.41150746528436 2.666833260330638,83.10764040712216 2.279002936097309,82.99568938605145 2.1150746548394928,82.91572437026899 2.063097394771539,82.73980133683446 2.1950396700261763,82.55588180163102 2.310988942219646,82.36396576501616 2.2750046853320174,82.21203223569675 2.0231148872377758,81.87617917105474 1.911163865690441,81.67626663279015 1.911163865690441,81.39638907993464 1.6752670705382104,81.33241706721334 1.539326544637438,81.220466045666 1.3434122570189704,80.8846129818581 1.2114699817643328,80.7726619599533 0.963578434316226,80.70868994794694 0.7476728931096127,80.66071093840596 0.3678390702877111,80.18891734822066 0.24389329656365769,79.86106078534755 0.24389329656365769,79.62116573954918 0.11594927219346934,79.50121821670959 0,79.37327419210108 0.007996501530584094,79.22134066301999 0.12394577372405344,79.09339663876895 0.26788280115540997,79.04541762922797 0.9116011743674295,78.98944211863304 0.9715749358468102,78.82151558649078 1.2034734802337488,78.7335540697735 1.3434122570189704,78.64559255269877 1.1794839756419966,78.5336415315089 1.1514962202849524,78.32573249195204 1.2674454924784215,78.22177797169697 1.4113825200289354,78.10183044885737 1.659274067477042,77.94989692013374 1.9551446242278108,77.82195289516777 0.9875679389079783,77.68601236962446 0.8756169174798011,77.46211032617232 0.8796151682450931,76.9663272318719 0.9195976758980136,76.68644967830146 0.9715749358468102,76.47854063791048 1.0555382020371002,76.26263509658472 1.2154682326487822,76.03073655255524 1.3434122570189704,75.88679952524305 1.4953457861000683,75.7188729927433 1.6272880613547058,75.60692197119597 1.8471918535649254,75.47098144565267 2.0191166363533264,75.3830199289354 2.179046666965008,75.36702692575508 2.594864746555381,75.28706191044924 2.6868245141570983,75.07915287005827 2.5388892359604496,74.99918785546737 2.239020428563546,74.91922283968489 2.394952208290779,74.63934528599529 2.4549259698893167,74.45542575126849 2.5428874866065843,74.26350971393869 2.7068157681027154,74.14356219145655 2.8627475478299482,74.09558318215389 3.1306303492236727,74.05560067473928 3.2305866183559737,74.19154120028259 3.094646092216887,74.27150621606506 2.858749297064656,74.3194852248911 2.7827825327624214,74.5273942649246 2.9107265570134526,74.63934528599529 3.17860935828802,74.71131380000887 3.3265446366038254,74.82326482119873 3.4824764166885296,74.8392578242599 3.930280502282082,74.91922283968489 4.070219278948146,74.68732429565543 4.006247266822631,74.50340476009453 3.878303242214128,74.12756918839538 3.922284000751498,73.96763915790287 4.110201786601067,73.87967764047065 4.35009683251859,73.89567064388929 4.526019866191439,73.9836321610832 4.809895670527175,74.04760417261292 5.301680514658097,73.91966014836188 5.281689261069951,73.66377209914488 5.0977697257473595,73.79171612375339 4.633972636854325,73.79971262587975 4.581995377143842,73.65577559821008 4.546011120137057,73.3039295305069 4.673955144507246,73.17598550589841 4.841881676649511,73.16798900484446 4.9538326981968455,73.01605547552504 5.133753982515831,72.87211844821285 5.285687511596929,72.97607296763381 5.413631536205431,73.08002748741224 5.513587805337732,72.92009745703888 5.557568563636788,72.7601674266655 5.701505591187301,72.5762478911046 5.897419878805769,72.5042793774485 6.033360404706541,72.35234584872488 6.22527644144056,72.20840882069773 6.377209970521657,72.17642281457539 6.705066533394762,72.0484787899669 6.5491347534292155,71.94452427054593 6.653089273445966,71.8245767472297 6.8370088086494,71.60067470496912 6.569126007255675,71.43274817246939 6.113325420131539,71.16886362219843 6.0653464108288775,70.80902105284551 6.181295683260661,70.67308052730222 6.413194227528443,70.54513650269371 6.541138251898631,70.43318548114638 6.753045542578267,70.44118198243865 6.936965077781701,70.49715749339106 7.076903854447766,70.64109452070325 7.424751671028173,71.00093709017531 7.876554007506175,71.20084962843993 8.064471793474901,71.28081464303082 8.308365090157716,71.28881114515718 8.2443930780322,71.12888111442635 8.056475291944317,70.81701755461441 8.04048228888315,70.64909102211467 7.900543512097927,70.56112950575488 7.676641469241572,70.46517148691125 7.512713187983755,70.33722746266021 7.364777909548793,70.13731492439561 7.324795401895872,69.96139189096107 7.300805897304119,69.80146186058771 7.176860123580067,69.60154932232311 6.9329668268972515,69.32966827004493 6.9449615793122845,69.12175923001143 6.8609983131219945,68.7699131630232 6.705066533394762,68.7459236583123 6.50115574424571,68.70594115042105 6.32923096145731,68.65796214159502 6.169300930726471,68.52202161521762 6.097332417070371,68.35409508343282 6.177297432257054,68.19416505234452 6.089335915539787,68.05822452680121 6.161304429195886,67.88230149253258 5.9094146309824875,67.74636096698929 5.929405884928105,67.50646592083345 6.241269444501728,67.16261635525665 6.529143499721912,67.13063034913431 6.853001811710568,67.2585743737428 7.16486537128419,67.30655338256884 7.3287936527803215,67.3305428873989 7.464734178681094,67.40251140141248 7.588679952524305,67.55444493037442 7.812581995380659,67.86630848947141 8.080464796774383,68.3141125755416 8.16042981184191,68.44205659979262 8.384331854698264,68.58599362793892 8.624226900615787,68.66595864252982 8.776160429696885,68.67395514465619 8.856125445002727,68.45005310120405 8.972074717196195,68.33010557872191 8.772162178931593,68.08221403079719 8.70819016668692,67.84231898499881 8.600237396024035,67.67439245333318 8.168426313372494,67.33853938869117 8.036484038237013,67.1866058600867 7.940526019750847,66.97070031864178 7.512713187983755,66.57887174316653 7.492721934038138,66.37096270384798 7.140875866692438,66.16305366393362 6.829012307118815,65.8671831068254 6.928968576251116,65.68326357162195 6.161304429195886,65.61129505796586 6.001374398584205,65.5553195477284 5.797463609673468,65.33941400604516 5.677516086595549,65.07552945589335 5.665521334299672,64.88361341856354 5.601549322055,64.6517148741766 5.565565065167371,64.27587930283494 5.857437371033691,64.25988629977377 5.9214093833975205,64.08396326550513 5.841444367972523,63.91603673372034 6.269257199858772,63.636159180149896 6.473167988888666,63.54819766343263 6.705066533394762,63.54020116166373 6.857000062356703,63.50021865412997 7.172861872814774,63.4282501401164 7.18485662511065,63.11638658066193 7.636658961707809,63.2923096145731 7.832573249087962,63.40426063612043 7.888548759921208,63.580183669197496 8.072468295005486,63.8360717184145 8.136440307369314,64.0279877549102 8.180421065906684,64.1799212839913 8.424314362351184,64.1799212839913 8.640219903676956,64.1799212839913 8.692197163625751,64.33185481342987 8.584244392962868,64.61173236664284 8.540263634544655,64.87561691762875 8.628225151500237,65.08352595682815 8.760167426635716,65.2994314985114 8.796151683642503,65.53932654430976 9.088023989508821,65.51533703983716 9.347910289133647,65.39538951664008 9.79971262561165,65.38739301570529 10.051602423944205,65.44336852582359 10.27150621591611,65.40338601876645 10.103579683893003,65.21946648320555 9.78771787343493,65.07552945589335 9.667770350357012,64.94758543128485 9.66377209959172,64.73167988995908 9.775723121019897,64.55575685640538 9.759730117958728,64.39582682531707 9.575810582755294,64.17192478293735 9.591803585816463,63.99600174878787 9.263947023062515,63.57218716814354 9.016055475614408,63.11638658066193 8.972074717196195,62.76454051343539 8.75217092522429,62.62060348576572 8.868120197298602,62.45267695326598 9.084025738624373,62.31673642760352 9.283938276888975,62.26076091712775 9.507840319745329,62.12482039075035 9.719747610424966,62.07684138192432 9.89966889474395,62.10882738768918 10.04360592241362,62.26076091712775 10.319485225218772,62.28475042112372 10.423439744997209,62.09283438498548 10.339476478926075,61.932904354254646 10.311488723688187,61.72499531422115 10.491410008007174,61.573061785497515 10.587368026493339,61.30917723463077 10.747298056985864,61.30118073321935 10.959205347546343,61.325170237691935 11.127131879807765,61.429124757470376 11.275067158004415,61.56506528384777 11.355032173310255,61.693009308456276 11.510963953275802,61.884925344594514 11.65889923147245,62.02086587097191 11.746860748308876,62.26076091712775 11.982757543461107,62.276753920188916 12.22265258937863,62.12482039075035 12.50253014306823,62.004872868268215 13.102267757862037,61.99687636614185 13.254201286823978,62.196788904406446 13.438120822027411,62.052851876736774 13.773973886311943,62.06084837886315 14.117823452246217,62.156806397230156 14.253763978146988,62.31673642760352 14.02186543376005,62.63659648882689 13.881926656974828,62.82051602403032 13.829949397026033,63.076404073247325 13.969888173811254,63.14837258690343 14.121821702892351,63.2283376018518 14.305741238095786,63.27631661151193 14.661585556206777,63.076404073247325 14.829512088349043,63.10839007901219 14.997438620491309,63.268320109385556 15.1533704003377,63.364278128229195 15.357281189367594,63.42025363882413 15.697132504417418,63.364278128229195 15.989004810283737,63.23633410362069 16.132941837953407,63.284313112446725 16.184919097902206,63.60417317438503 16.400824639227974,63.71612419545574 16.58074592354696,63.74811020169723 16.68470044356371,63.964015743023005 16.95258324471912,64.09195976763151 17.472355844207087,63.924033235131766 17.984131942283625,63.660148684979966 18.507902792536882,63.32429562033796 19.015680639728973,62.93246704557765 19.407509214727593,62.57262447682053 19.763353532719428,62.18879240347165 20.175173361782825,61.72499531422115 20.54301243195138,61.29318423192707 20.886861997766495,60.85337664714916 21.182732554517262,60.34959705119899 21.43062410196537,59.84581745441472 21.65452614470257,59.310051851984745 21.84644218155574,58.86224776662951 22.042356468935896,58.40644717950537 22.24626725808495,57.95864309367351 22.48616230388331,57.42287749088606 22.710064346739667,56.93509089763958 22.92596988806544,56.41531829779415 23.10988942326887,55.87955269572164 23.269819453880555,55.3837696003488 23.41775473219636,54.81601799167733 23.573686512281064,54.33622790019975 23.73761479353888,53.86443431001445 23.781595551957093,53.68851127574582 23.857562316378484,53.11276316578208 23.877553570204945,52.94483663363981 23.877553570204945,52.385081526379764 23.845567564201765,51.873305428303226 23.693634035001512,51.393515337183125 23.589679515223075,50.88973574004138 23.49372149673691,50.36996314103005 23.373773974016462,49.858187042596036 23.21384394328562,49.354407446645865 23.077903417146537,48.82663834550816 22.965952395718357,48.33085525049279 22.873992628354955,47.81907915241625 22.722059099154702,47.331292559169775 22.526144811536234,47.00343599629667 22.346223527217248,46.835509464154406 22.16630224265995,46.61160742189384 21.974386206164244,46.39570188056807 21.790466670841653,46.235771849360596 21.60654713563822,45.90791528684496 21.570562878631435,45.70800274858036 21.670519147763734,45.32417067511233 21.686512150824903,44.89235959210331 21.97038795516064,44.308614980728144 22.086337227354107,44.19666395965744 22.58212032236948,43.99675142139284 22.746048603746452,43.92478290726011 23.04991566178949,43.588929842737265 23.161866683217667,43.357031298707795 23.181857937163286,42.853251701923526 23.069906915615952,42.429437121040884 22.857999625055474,41.917661022964346 22.590116823900065,41.413881427014175 22.494158805413896,41.2699443993445 22.410195539342762,41.12600737155568 22.40219903781218,40.678203285485495 22.358218279393967,40.486287249347264 22.26226026102696,40.27837820895629 22.234272505669914,39.90254263761462 22.238270756554364,39.36677703506549 22.250265508731083,39.21484350610355 22.410195539342762,38.68707440496584 22.50615355782893,38.20728431265417 22.51814831000565,37.67951521151646 22.27025676255754,37.11176360320246 22.18629349648641,36.93584056941045 22.162303991894657,36.775910539037085 22.234272505669914,36.59199100347618 22.398200787166044,36.120197413290875 22.538139563951265,35.65640032439784 22.5941150745462,35.4324982817798 22.694071343678498,35.08065221407663 22.81002061587197,34.5848691197762 22.95395764342248,34.06509651969245 23.12988067721449,33.569313425392025 23.193852689340005,33.40938339430371 23.20584744175504,33.11351283791041 23.349784469186396,32.92159680105724 23.35778097071698,32.745673767622705 23.249828200054093,32.49778221969797 23.309801961533474,32.32185918626343 23.409758230665776,32.19391516165493 23.497719747621357,31.69813206663956 23.545698756804864,31.210345473393087 23.541700505920414,30.714562378735188 23.525707502859245,30.210782782070076 23.325794964594643,29.571062660099976 22.945961142011054,29.139251577090963 22.826013618933136,29.035297057312526 22.386206034751012,28.627475479014425 22.03435996740531,28.235646904254118 21.71849815694724,27.81982882502122 21.5145873680365,27.332042231298114 21.410632848019752,26.812269631571837 21.322671331302484,26.34047604138653 21.234709814346903,25.868682450843757 21.15074654827577,25.388892359604494 21.12275879303788,24.909102267769452 21.114762291507297,24.421315674522976 21.130755294568466,23.909539576446438 21.186730805163396,23.389766976958473 21.23870806523135,22.885987379935887 21.338664334363653,22.36621478092455 21.454613606437963,21.854438682848013 21.47460486050274,21.342662584771475 21.554569875570266,20.854875991525 21.658524395467857,20.35909289650963 21.64652964329114,19.367526706955516 21.64652964329114,18.78378209522288 21.81845442607954,18.295995501976407 22.054351221231773,17.816205409664732 22.294246267149294,17.344411819479426 22.550134316127984,16.88061473106302 22.746048603746452,16.416817641812514 22.92996813894989,15.961017054688378 23.037920909612772,15.489223464145603 23.077903417146537,15.00143687089913 23.073905166619557,14.521646779302399 22.945961142011054,13.897919660155154 22.86999437735135,13.42612606996985 22.722059099154702,12.91434997189331 22.674080090090353,12.594489910669946 22.634097582199118,12.394577372405344 22.65808708679087,11.786843255961797 22.89798213282755,11.331042668480189 22.95395764342248,11.187105641167989 22.977947148014234,10.771287561577616 23.053913912554783,10.347472980218345 23.16586493398296,9.859686386971873 23.369775723012854,9.355906790664232 23.37777222454344,8.772162178931593 23.437745986141977,8.532267132775756 23.45773723984928,8.124445554835125 23.529705753743695,7.628662460296382 23.565690010512164,7.116886362219843 23.545698756804864,6.437183731643566 23.47373024314876,6.221278190317796 23.433747735257526,5.853439119910927 23.425751233726945,5.269694508178289 23.285812456941724,4.837883425526748 23.22583869546234,4.32610732780768 23.21384394328562,3.9662647588122386 23.14187542939121,3.7183732117216035 23.12588242633004,3.526457174749271 23.093896420207702,3.3265446364846682 23.021927906551603,3.134628599631493 23.073905166619557,2.7987755357044324 23.16986318474825,2.6468420063850204 23.181857937163286,2.215030924090951 23.045917411143357,1.9991253826460234 22.993940151075403,1.8232023484965445 22.993940151075403,1.2794402442976691 23.061910414085368,1.0875242081594367 23.197850940224455,0.9116011738908009 23.313800212417924,0.8076466541123648 23.817579808725565,0.4558005867666647 24.097457362415163,0.3118635590969938 24.41731742351937,0.19991253826460234 24.693196726324523,0.11994752295876139 25.340913350301832,0 25.516836383974685,0.15193352872362628 25.66477166229049,0.18391953520343415 25.820703442256036,0.24789154720979256 25.97663522198327,0.3118635590969938 26.54038857988945,0.6317236210353006 26.748297619684635,0.6956956325650303 26.948210157949237,0.7676641465786015 27.140126194683255,0.7916536514086681 27.356031736009026,0.8556256632958693 27.61991628663746,0.9195976760171707Z"/></svg>