<svg xmlns="http://www.w3.org/2000/svg" width="256" height="256"><path d="M168.78792307644264,8.384792669520788 171.43415341000244,8.410375560962137 174.2146939234387,8.212108152577596 174.29304152857313,8.205712429812563 175.81202570790322,7.866739118119391 176.90409538630578,7.617305926470937 178.86118658147365,7.348685566050866 180.38496755294898,7.028899423034009 181.884764563698,6.824236291598524 183.80667928332466,6.657947497420365 187.00294178268283,6.664343220090095 190.8307819145946,7.035295146370864 193.23877157151156,7.239958277806349 197.5990556315464,7.035295146370864 198.3409594833455,6.932963580510166 200.4195694129551,7.105648097453359 203.30084256163227,7.163209603101089 205.56812631552648,7.2271668320856755 208.8235492515334,7.00331653159266 211.1340041348302,6.498054425911937 212.425940152523,6.37653569127962 214.4102131699426,6.191059728615754 218.54504799915057,5.8073163571861315 222.46082932048728,5.4043858165083725 224.77288313449918,5.11657828826972 226.4677496923932,4.835166482128974 227.13290486986827,7.770803274928422 228.86454683449517,11.070996270957695 229.88306569990854,14.19210902670692 230.58019949159,17.172515880005246 230.8536166438694,19.212751472166886 231.2085792627134,21.873372181876533 230.76887331606525,22.858313502368453 229.78073413404786,25.04565072088967 232.1039804630653,28.659234136884855 234.57592734858562,33.11705297063515 235.19951032756381,34.191534411362404 236.46906131524543,35.61138488616664 238.24067654755882,36.903320903668835 240.28251107081675,38.073738187396444 242.67131355905738,39.46800577114055 247.6455870136846,44.539813999483215 249.99281730342832,44.43108671028566 250.19748043495912,44.58458405941027 251.80280687290374,46.24107628014229 253.88141680251331,50.16165439343366 254.64090889217835,52.60482052627305 255.3300480303797,55.34858563307178 255.86089302778765,57.452778454408616 256,59.595345612430954 254.82478592450835,61.92338873368898 254.56416021785432,62.36469361095694 254.28274841199948,63.496736557236616 254.01892484410587,64.85902552648842 254.22358797554136,66.45156051852177 254.6185238622625,67.46208473083625 254.97988220387154,68.53656617118229 255.2964704853629,69.3808015889374 255.64983417339653,69.95641664598652 255.76815504631278,70.28899423472406 255.89287164218464,71.55534736107082 255.89606950351953,72.20131537044138 255.7025988869943,73.29498397946374 255.55389833049148,74.19038517991093 255.21012822674837,75.23928372910153 252.95563591847952,80.8483326773313 251.79960901147356,82.43447194698082 250.79228266097047,85.83699650858489 250.26943231723322,88.90694348135611 249.3148706802326,90.99194913373071 248.4498491634673,92.58448412604997 248.39548551905912,94.59274110400523 247.9589774338411,98.23190741182297 247.52566721005329,100.22097722100662 247.50807897218735,104.85148057198602 247.48889180360635,104.93462496945631 247.10354950136633,107.83188742528434 246.17616968652214,111.35593072094889 245.8851642964721,113.51128932526373 245.8739717813712,113.58803799958777 245.5190091627178,116.21668009518635 244.9194101445612,120.43146146005323 245.32234068466713,126.13644625109275 245.27597169392968,126.3858794427412 244.8986240452651,134.15028699557172 244.4381319992255,138.73602028605222 232.9210340585687,131.9629497773364 230.85841343601467,130.73497098796108 228.46641308624856,129.78840400463116 221.3703585727045,127.8504999777584 216.5287963674293,126.8335800430601 212.67857120550633,125.03638191959128 211.96225024524387,124.57588987345639 210.56158693883003,125.38814667681451 206.31642589018594,127.8504999777584 204.90776793019668,130.19133454473712 204.46966091426359,134.11191265802847 202.3334894790063,134.22703566999107 201.91616856227398,134.88579512412926 196.96747799908812,142.70136845993778 171.76832992945504,164.15262293322266 126.9774838077989,176.86731997947763 123.93631758761329,177.73074256600435 115.15019330822513,181.48503188473634 112.67824642270482,185.82772770700058 111.76685591510677,186.64638023321905 111.22801626421867,188.002273479134 111.50782913935842,188.48834841699613 110.51968995734103,189.14710787113435 110.30223538018487,189.30700094264276 109.98244923716801,189.50526835169444 109.5555347362405,189.74830582029193 108.98471647105072,190.2024021436618 106.79098352985977,192.47288375860495 105.64295127633395,193.08687315319733 104.6516142329817,193.61771815098652 99.06974710671776,196.70045656957373 98.31505180910266,197.99878831031748 95.31545778760454,200.94082082588196 93.12332377722399,201.0559438371774 87.59102350312764,204.1514737014853 87.43113043161922,204.07472502763775 87.26644056787023,203.96599773882141 87.14971862566908,203.94681057004982 86.31347786168,204.0811207504028 86.2527184946021,204.29857532755895 86.18556340456857,204.46486412173712 86.13279869097079,204.63754863934744 86.08962756156821,204.73988020520812 86.06724253155703,204.8550032165036 86.00328530295366,204.9637305047481 85.81141361723884,205.08524923938043 85.49802319708232,204.68231869917918 85.07750441891984,204.69511014499517 84.99755788316563,204.7142973136715 84.81368085102625,204.72708875939216 84.41874496440043,204.8230246022972 84.36757918151773,204.88058610794494 83.59529564603672,205.72482152541414 83.44659508962918,205.72482152541414 82.81661638779066,205.54574128513408 82.41048798615925,205.15560219074882 82.12907618039972,205.1492064679838 81.57904401431543,205.18118508219018 77.39304340222476,205.8527359824303 75.34641208701218,207.3685223007114 72.36760416481015,209.82447987898556 71.88152922742452,211.27630896828208 72.22849719259781,214.10961419522084 71.67686609579843,217.46736869689784 68.48859824992037,214.90268382999795 64.96135709244443,214.03926124385245 61.17988595127009,213.35491889789168 57.16656985640853,212.9328011890141 50.44146726885932,212.6066193229463 49.4964992162445,212.4339348057172 45.82695322522137,211.5705122198576 43.8186962468849,211.1419987879291 37.43896269379389,209.84366704766188 32.35116515830039,207.84180579189982 30.21979051509303,206.88244736284926 27.848576264623034,205.30909953949222 26.056174933013548,204.45846839906739 25.630859362801125,195.7155152489865 23.49308899682874,191.45596382419257 22.832730611403623,186.67196312475568 21.937329410956423,181.58736345031113 21.91334545023016,181.41467893308203 22.194757256180296,180.19309586666233 22.247521969778077,179.9436626755857 23.133329585934774,176.24053913916458 23.413142461074525,173.45839969520384 23.585826978208324,171.71876307671562 23.910409913370433,168.40577863525158 23.939190666337254,168.20751122686704 24.666704141700606,164.56834491904928 24.820201490348698,162.1443659549815 24.75624426165002,161.51118939190343 25.005677453298475,159.92505012263513 25.939452990907697,153.29908123903994 25.40860799340441,153.30547696180494 25.063238958946204,153.31187268514182 15.376916686965592,153.3630384677386 14.666991449563472,153.01127371022946 14.651002142317326,152.93452503647723 14.419157188725407,151.776899198375 11.633819882953276,132.36588031753766 11.774525785975996,131.45768767108385 12.677921639903314,125.69514137401539 2.320048467587301,120.62972886843777 1.819583153765919,120.23319405100156 1.49180235717364,119.15231688798579 1.3415028700510208,117.82200653265446 0.278213944424666,115.24453022003388 0.03037968368190516,114.00375998550969 0,111.15126758951341 1.9411018882076285,110.88904295214428 3.213850737414721,110.56925680912742 5.437963362001661,109.8913101862176 7.017706908600241,109.02149187730706 7.700450323845928,108.64414422864246 8.15614557764495,108.16446501411717 9.15227941314246,107.10277501920591 11.034220864796668,105.10730948668541 15.642339185669583,99.94596113820272 16.86072439056381,98.69879518062758 19.36944668262636,96.83763982817418 26.18728725165046,94.04910466116247 27.46003610085755,93.55663400082122 27.672693885963763,93.47988532649717 29.554635337617967,92.75716864327907 33.0722829108034,91.08148925387074 34.456956910066395,89.78955323636855 35.30119232763089,88.24178830359513 35.98073788154172,86.4765687946186 36.47800533402824,84.07177699865531 36.8681444284135,82.21062164648781 38.95634794240888,74.04328355383727 39.3304977297386,72.58505874148979 40.15074918667215,68.63889773704298 41.006177119051635,65.56895076389054 41.222032765683316,64.44969926333154 41.386722629241696,63.132180354388005 41.12449799196787,60.49074681306876 40.79192040323034,59.294746638185714 40.7151717290016,59.1412492890611 39.36407527475537,56.37190129110694 39.33849238321872,56.21840394198233 38.85081851521332,55.31660701857949 38.289593834218735,53.4554516666979 38.13929434690551,52.69436064641308 38.14409113914606,51.760585108517944 38.42230508347543,50.59656354774597 38.59658853151492,49.86745114157224 39.089059191760875,48.313290486700915 39.58952450558226,47.12368603477351 39.95408070852617,46.24747200281202 40.7247653131968,44.88518303365551 40.913439137576745,44.629354119242024 41.861605051717035,43.36300099299057 42.873728194365384,42.24374949243157 44.35593696715322,41.098915100335915 44.7652632303101,40.81750329457638 46.754333039779645,39.45521432503866 47.21642401643901,39.2185725794921 49.470916324803156,38.38712860745766 49.929809440032344,38.21444409051447 51.99402899320616,37.70278626121098 53.482633488854326,37.255085661463895 56.03292797950907,36.07827265497125 58.07796036410188,35.05495699722201 58.623195737945615,34.7095879627638 59.47222794756007,34.13397290571467 60.61226554741516,32.96355562189176 61.22945280353301,32.311191890137366 61.443709519258995,32.08734158993026 62.08168287467293,31.30706340087383 63.06342633363938,30.16222900915939 63.99400400991374,29.190079134674054 65.94789734365143,26.375961075553885 66.4499615881879,23.945586388721072 67.14549644934486,22.500153022475484 68.12564097759623,21.163446944760324 69.29605826113324,19.99302966122332 70.46807447529002,18.899361052200973 73.16387166082683,17.134141542557312 75.66619823002904,15.733478236429388 77.09084549716914,15.087510227440031 78.59064250791819,14.486312278282428 80.23594221373993,14.019424509477817 81.98197455461197,13.354269332002753 84.20288931776874,12.260600722885101 86.88749398839526,11.262867956672505 89.78955323636855,10.476194044851036 94.52238815292273,9.536022784572083 100.39526066952263,8.22489959801236 106.07466256940671,7.6045144810361744 111.05852960832443,7.137626711945652 118.57030610788571,6.095123885710696 122.30380932751223,5.442760153956307 126.87675117265329,5.148556902476102 126.9774838077989,5.142161179425157 130.93963411968247,4.739230639319221 135.749217710656,3.83743371620229 138.1524105754277,3.12750847880017 139.86486537128295,2.174545772133416 141.1615981813116,1.176813006206732 143.28657710165862,0.4221177085916445 145.11895170114522,0 147.10322471846953,0.09593584252384245 148.47350834129676,0.37734764866458814 150.79195787816897,0.8570268631898743 152.4068779004994,1.7140537263797486 154.68215630796905,3.4472946218170275 155.24338098896362,4.106054075955235 155.87335969089744,4.84795792813556 157.8640284310821,6.037562379777055 159.8866757855684,7.156813880336055 161.22657972480903,7.534161529286555 162.34423229465295,7.681263155074309 166.18166601085525,8.039423635348493 168.78792307644264,8.384792669520788Z"/></svg>