<svg xmlns="http://www.w3.org/2000/svg" width="256" height="256"><path d="M149.03054997301894,11.523795177400416 149.26380994717078,11.546368723123319 149.4472200075359,11.520032919471591 149.68142054621197,11.433500993555754 150.0585868754195,11.211527792349452 150.28056007673794,10.93688298400788 150.65960753476972,10.470363035704187 150.93143064993097,10.368782079362477 151.43087035271523,10.331159502653081 151.71868306288266,10.353733048712355 152.11183898709638,10.507985612189334 152.2087171216017,10.613328826291681 152.19931147742435,10.745007844213943 151.6820010507536,11.369542613755254 151.41676188658937,11.802202243110191 151.08944547111253,12.223575099968082 150.64361793976354,12.62989892583948 150.215661132245,13.235622407362465 149.40489460899008,13.954213618116642 149.97017382073548,14.371824217213893 150.05670574665132,14.503503234799782 150.0520029245346,14.612608706606707 149.84131649627386,15.097939943489347 149.8544843979876,15.229618961019174 149.92220503566085,15.282290567986255 150.35580522965216,15.410207328147878 150.7423772030931,15.462878935283145 151.09320772876103,15.684852136489448 151.35656576415707,15.793957608296374 151.6857633084021,15.831580184837582 151.9886250491636,16.00840629420565 152.174856802709,16.17018337314784 152.54073635902705,16.614129775560446 152.61504094758521,16.98659328304371 152.28208114569168,17.438064200753345 151.4694334936125,18.17922895739861 151.2004320717437,18.42753796225664 150.7799997795222,18.62693761774004 150.6962895468988,18.69465825530118 150.62668778034524,18.860197592004013 150.64549906864386,18.973065321347327 150.82044404924372,19.195038522721816 150.92860895663853,19.240185614223684 151.12706804765372,19.322955282547067 151.37913931004815,19.469683331063386 151.5230456651599,19.684132016804476 151.67729822869293,20.158176480629447 151.6246266216698,20.331240332629307 151.43463261036374,20.50806644199737 150.67559712983197,21.046069285622846 150.1977904084706,21.43358182353198 149.84319762504205,21.870003710815745 149.36068808162003,22.144648518933064 149.13495262270916,22.3327614013588 148.85466442800694,22.780470061532043 148.6176421960384,22.979869717015443 148.35710585387875,23.141646795957637 147.62158448359415,23.416291604299207 147.33095008024637,23.660838351228414 147.16447017935567,23.845188976285943 146.84467827917587,24.533682125795938 146.78166046356324,24.834662737789237 146.93873472038874,25.2936581707959 147.0544241431366,25.790276180343774 147.072294866911,26.256796129039902 147.00739592253018,26.753414138363528 146.9923468919361,27.7504124153881 147.1381343758721,28.028819481434248 147.1456588911131,28.529199748574573 147.3121387920038,29.003244212175296 147.3554047549617,29.488575449057937 147.42876877910777,29.70302413491115 147.44663950299426,30.19211762933018 147.54633933062385,30.89942206725094 147.53693368655863,31.429900395747566 147.61970335482593,31.779790356947306 147.61029771064858,32.20116321341276 147.62440617683052,32.336604488871416 147.75232293693608,32.671445419477095 147.8134596236684,33.721115303636935 148.15394394085897,34.05971849177901 148.7794192749806,35.150773209960384 149.1095573835817,35.56085929376061 149.1330714938849,35.6323421889142 149.09827061063615,35.703825084404166 148.89134643996783,35.827979586636964 148.84902104142205,35.88817570890107 148.86595120089643,36.087575364552656 148.70699581519062,36.99051719997193 148.27245505678718,37.41941457195866 148.20567498352602,37.622576485146645 148.18968538851985,38.115432237158124 148.23577304471416,38.20948867837099 148.32230497063,38.280971573636705 148.71075807283913,38.43898639487433 148.75684572903344,38.51423154756431 148.44928116626735,38.9995627842227 148.39472843041997,39.26292081967479 148.47091414774633,39.43598467150646 149.00797642707178,39.85359527060371 149.53469249786383,40.1282400787771 149.81968351473884,40.34268876485456 149.84884101157087,40.410409402415695 149.81968351473884,40.73772581789254 150.09338775866826,41.33968704187913 150.3144203955185,41.554135727732344 151.1016728084702,42.11847437500954 151.13083030530225,42.14481017866127 151.34716012014792,42.32916080338242 151.44027599689258,42.50974917051113 151.58230122318008,43.559419054278536 151.50235324803702,43.87921095462653 151.5512625974677,44.10118415583283 151.65660581168217,44.36077993335609 151.70175290340828,44.65423603005236 151.6895255660506,44.70690763718763 151.5841823518922,45.154616297473 151.57195501453452,45.73024171747149 151.6236860572016,45.90330556947136 152.09678995650233,46.50150453552912 152.19648978424402,46.62942129552256 152.19931147742435,46.779911601407086 152.1729756739408,46.83258320854235 152.05352399354442,47.06960544034271 151.9688731965089,47.363061536870795 152.02624762559267,47.50602732779466 152.26138872862484,47.78819665143327 152.2604481642127,48.50302560465105 152.48148080106296,48.89806265768903 152.49370813842063,49.02221715992182 152.44950161105058,49.17270746597454 152.23787461832163,49.5677445191807 152.20589542830925,49.80476675103712 152.2482208269111,50.06812478632103 152.40435451932447,50.33900733690196 153.0975504910633,50.914632757236824 153.24898136135994,51.28709626432765 153.22828894440525,51.4940204349399 153.204774834102,51.738567182373664 153.49070641533308,52.69794288252065 153.5170422188727,52.91991608372695 153.49729036621798,53.05159510164922 153.36373021963965,53.29990410650725 153.34021610933644,53.52187730771355 153.4775385135072,53.781473085405 153.47001399826624,54.21413271498419 153.93559338221388,54.92519941060952 154.03247151666312,55.030542624823994 154.29865124529553,55.32399872118389 154.3108785826532,55.46320225440318 154.14063642411398,55.69646222866715 154.08890538139084,55.873288338035216 154.1161817493426,55.997442840268015 154.18860520907648,56.33980828650709 154.148160939411,56.44138924301699 154.06915352873614,56.531683426525284 154.01083853524023,56.603166321791 153.54808084441686,56.907909191376746 153.32422651433023,57.24275012215062 153.29318788873,57.547492991512115 153.31576143462107,57.85223586120999 153.25932756994942,58.100544865899835 153.07779863835253,58.35261612835032 153.02794872456576,58.51439320712432 153.11071839288917,59.052396050917984 153.04676001280833,59.3232786016671 152.77117463999858,59.61673469819518 152.62350602735043,59.831183384104456 152.54355805226345,60.12840173833712 152.47959967229477,60.696502643374956 152.45796669075975,60.80184585742124 152.38836492431827,60.89214004109772 152.29336791863722,61.07649066576281 152.35920742748624,61.31727515532381 152.76459068916975,61.99071927457612 153.36467078410783,62.31803568971659 153.4765979490951,62.596442755986985 153.5386752002956,62.746933061703324 153.85940766483145,63.28117364790453 153.92242548044408,63.465524272625686 153.84906145629805,63.736406823206615 153.7427776777275,63.90947067503829 153.66282970275262,64.26688515170325 153.65812688069198,64.60172608247711 153.760648401614,64.8613218603928 153.77945968985657,65.05319700018674 153.72772864713343,65.22249859442597 153.53115068499855,65.59872435927744 153.48882528645277,65.67773176989624 153.4032339250051,65.94485206294078 153.4568460964404,66.10286688429052 153.7013928436499,66.30602879736638 153.86505105130422,66.44523233019324 153.96663200781413,66.76502423037304 154.02400643695395,67.33312513541088 154.2657314909271,67.60400768599182 154.35038228796262,67.82221862977386 154.36355018978847,68.26240277448188 154.89402851817297,68.74397175360389 155.04263769534538,69.23306524796685 155.22886944889078,69.59047972451968 155.24862130154548,70.0005658083199 155.171495019807,70.27897287402968 154.94481899654005,70.74925508009402 154.81031828554958,70.90350764373918 154.7124995866882,71.01637537330674 154.01648192165695,71.49794435242875 153.67035421804965,71.89674366300311 153.66565139593294,72.00961139257068 153.80673605775223,72.13376589480347 153.85752653600719,72.22406007847995 153.78322194744902,72.70562905754589 153.7597078371458,73.37907317668608 153.91960378720768,74.07509084132491 154.24221738062388,75.06832686058884 154.43691421387845,75.37683198787917 154.5874045198751,75.52732229393189 154.72284579516557,75.7643445257883 154.75388442076581,76.47917347878185 154.77081458018412,76.85163698620904 154.7378948257596,77.01341406498305 154.5732960536371,77.14885534049776 154.32028422683055,77.32568144969764 153.9892055537052,77.46864724028514 153.42298577765982,77.97655202305887 153.1605683066759,78.20981199732284 152.39306774637893,78.68385646075538 152.25104252014748,78.80424870561997 152.13253140416322,79.0111728764004 152.10337390744328,79.2105725318838 152.1259474533344,79.34225154924545 152.2322312319049,79.50026637081943 152.56048821168176,79.8388695589615 152.92824889682407,80.0834163060589 153.75782670832155,80.34677434173523 154.03717433872376,80.6026078617221 154.56577153834007,81.47168937836081 154.76705232259167,81.70494935279297 154.93635391677483,82.0548393139927 155.07367632094562,82.5364082931147 155.3520833869357,82.9201585732632 155.36713241752977,83.17222983548943 155.20065251652693,83.35281820261814 155.20159308093906,83.43935012853397 155.20253364540724,83.49578399337382 155.33515322746132,83.52211979702554 155.43015023314237,83.53716882767567 155.54960191342667,83.55974237339856 155.58158110343905,83.57102914645624 155.65212343434868,83.58231591912147 155.82706841500462,83.6688478450373 156.0951292724613,83.90587007717404 156.1873045848499,84.05636038311462 156.1873045848499,84.20685068883097 155.88820510184905,84.50783130065608 155.78474301645883,84.75614030551411 155.79885148269682,84.86524577732104 155.8628098626655,84.98187576464923 156.35566561473306,85.25652057276656 156.3848231113969,85.33552798338536 156.3443788416754,85.55373892722346 156.45066262024594,85.79076115885564 156.7610488762484,86.15946240857826 157.11376053079664,86.31747722975982 157.2144009228944,86.42282044386216 157.37617800178054,87.04359295581102 157.64800111694177,87.2956642182615 157.71854344785143,87.4950638739131 157.72230570549993,87.6568409526871 157.96120906618063,87.97663285264267 158.08348243975735,88.0631647785585 158.4042149042932,88.01049317159142 158.68638422793182,87.93148576102867 158.86415090176808,87.8825764114298 159.0654316859636,87.80356900103523 159.24413892426807,87.68317675633882 160.05490544757905,87.5552599961772 160.90329454726302,87.6154561186095 161.27481749005386,87.72456159041643 161.74321856735,87.6681277256887 162.1363744915637,87.5552599961772 162.3310713249304,87.5552599961772 162.68566410824684,87.6568409526871 162.9066967450971,87.66060321039167 163.43153168706488,87.58159579982893 163.58766537947824,87.58159579982893 163.94507985608715,87.74713513613932 164.28086135121706,87.77347093962287 164.49813173047485,87.7809954549199 164.5743174478012,87.75089739389996 164.62510792605616,87.72832384795282 164.79158782700293,87.64555417962943 167.15992901679897,86.8705291042036 168.12965092564758,86.4265827016228 169.59034745768338,85.80957244721034 174.35994959158785,81.58079485016773 175.15002369783198,80.8433923512831 180.19709233325835,77.46112272498812 186.4659541400959,75.19624362058228 187.31058098224352,74.87268946303426 190.04009890618485,73.96598536968618 192.0416199752507,74.39864499937748 193.9631930691735,75.08337589118291 195.86219261731736,75.69286163029834 201.55448843946397,77.4423114368016 215.831315651165,72.14129041026868 216.06175393219257,71.95693978543541 217.0352380986897,71.1743901944883 217.70774165341774,70.63638735086282 217.8243716405217,70.5460931672424 220.55953295099187,71.01637537330674 220.8859088020005,71.17815245208075 221.17748376970434,71.32488050042888 225.61036384406674,73.53332574010699 233.19601582788442,77.31439467697635 235.29065277369497,78.07813297940058 240.39039301631266,80.0984653368772 242.3561726376055,80.92616201943831 242.8593745981504,82.11127317883255 243.48955275422054,83.33024465689523 243.57702524460458,83.80052686295957 243.97770568411534,84.6733706375271 245.70834420248815,88.45067731646763 246.73732166930083,89.80509006993292 247.64308519818073,91.0052502596409 248.99937908047028,92.49886654615729 250.66229696116983,95.39580493579389 251.41568905522882,98.51471652624436 251.6263754836017,99.38756030081188 254.33426042612012,105.50875349477705 254.31733026664574,107.74729679553116 254.51578935760492,109.85039882116298 254.56187701385528,110.6028503508659 254.68791264502445,111.69014281117452 254.92117261923235,114.10174996392848 255.02463470462257,115.6818981763607 255.1384429985462,117.42006121003054 255.25601355006228,119.25604294244964 255.2804682246655,119.5683103275006 255.97366419640434,124.15826465857637 256,124.33509076794444 255.7770862343255,125.04239520580913 254.33708211930045,129.60225147586496 254.18941350665233,130.23054850333511 252.77574519516688,135.92660658324237 252.66005577247503,136.03194979712046 252.089133174369,136.55114135272763 249.68975335902877,138.2516818099123 248.37202261758046,139.037993658564 246.3676798554464,140.23439159067954 245.7685403248083,140.5918060671763 244.2946758910027,141.1373334260988 240.95096940594135,142.37887845022075 239.32003071531022,142.98083967420735 231.70051841259985,144.36535048874862 228.792293250298,144.98988525845812 224.17882480880692,147.393967895859 218.05010709937653,146.43082993767106 214.62269038163572,145.65956711961343 214.28596832209365,145.84015548674213 211.67402094955628,146.67161442723207 211.50942217743378,146.7092370037172 209.06865752795989,148.66937323842515 208.66609595962487,149.35034187303057 207.6183072044575,150.6746565653077 207.41044246937705,151.13741425607503 206.57710240028712,152.33381218835876 206.05414858708752,152.98092050362297 203.24374212364705,157.08930585613734 202.3257512575216,158.37976022946575 201.503697961209,159.4858639779048 200.69199087354198,160.68602416794917 198.81274317810892,163.34217806763235 196.94666338444563,164.19621055401336 196.20455806327612,164.51976471195383 186.17061691474356,166.81850413514022 184.76447311861122,167.14582055056098 183.33951803418023,167.45056341997855 183.2906086848056,167.46185019281197 178.34794269906945,168.7786403697921 177.27099644718214,169.12476807345544 176.84774246172424,169.26020934874592 176.85150471937274,169.41822417031992 176.79883311223747,169.6251483407079 176.7038361066125,169.82831025395194 176.69537102701545,170.03523442450813 176.7113606219095,171.1714362344156 176.6615107080667,171.5100394225577 176.63705603335134,171.6003336061781 176.47716008328948,172.16843451104776 176.46775443922425,172.41298125848152 176.33513485705805,173.17295730353754 176.33889711470655,173.4212663081713 176.42636960503452,173.64323950960187 176.73017191020816,174.0382765624156 176.84586133284392,174.32797040135122 176.83927738201507,174.51984554136942 176.76403222898873,174.74934325804094 176.70853892867314,174.9224071098726 176.76967561551757,175.31368190531813 176.79036803252833,175.36259125469277 177.03115252208931,175.9081186140077 177.06407227645778,176.1112805268593 177.03115252208931,176.22038599849805 176.73205303897635,176.68314368926534 176.2645925261484,177.83815678747146 175.5347145423926,179.40701822684602 175.11992563669995,180.03155299672372 174.89795243532546,180.72380840382615 174.6402377864022,181.212901898077 173.72600917781313,182.20990017526975 173.41750405063493,182.6801823813341 173.27359769563532,182.93601590132096 173.18518464083914,183.3047171508754 173.03563489931068,183.70351646144977 172.8559870965941,183.85400676750248 172.71960525683545,183.88786708645125 172.3518445717492,183.9819235276641 172.1863052351585,184.10231577219233 172.0452205733392,184.3167644581016 171.91824437770182,184.8171447255783 170.9579281130306,185.29495144693968 170.80461611379755,185.39653240328138 170.69739177075883,185.52444916327482 170.5591288021759,186.0699765223655 170.391708336817,186.35967036130114 170.40581680299894,186.6343151696427 170.68892669104966,187.57487958177137 170.68046161134052,187.657649250319 170.6343739551462,188.09783339497096 170.53279299863632,188.51544399390002 170.4481422016008,188.64336075389346 170.04934289080217,188.86533395543614 169.89979314938586,188.92553007753207 169.63549454946556,188.9706771693703 169.04293896982452,188.92176782016386 168.64319909466982,188.91800556223504 168.5246879787416,188.91800556223504 167.82302692729363,189.01582426137674 167.59823203285094,189.07602038380904 167.43645495390874,189.12116747542302 167.2314119120647,189.13245424831248 166.64826197654492,189.17007682502188 166.36703321731844,189.25284649300892 165.8581878704129,189.62531000043612 165.75942860708332,189.8773812627184 165.6954702270586,190.22350896632568 165.63151184708988,190.94210017741625 165.56755346700908,191.19417143969852 165.35968873192866,191.6080197812594 165.24870213129748,191.71712525289814 164.82168588819104,191.87514007424787 164.56114954608748,192.02563038018846 163.98270243257227,192.52601064727273 163.8030546298557,192.74422159111083 163.6779595630426,192.98876833804002 163.68360294957142,193.32737152635028 163.78236221278888,193.60201633469185 163.94696098491139,193.8691366277364 164.16517192858132,194.09487208687153 164.41536206215147,194.24160013521967 164.55268446632226,194.38456592580715 164.61758341075912,194.5312939741553 164.5254080984266,194.81346329779387 164.55832785279503,195.06553456002013 165.03707513856853,195.89699350034186 165.13395327307384,196.122728959477 165.16687302744228,196.43499634396733 165.06341094216418,196.6193469688006 164.89975273439774,196.75478824431534 164.51129963218858,196.96923693039278 164.1491823335751,197.05953111367683 163.71558213963988,197.10844046305147 163.41648265652688,197.17992335854143 162.92644859780785,197.33041366459415 162.43735510350095,197.54862460809585 162.1721159392246,197.6163452458252 161.67737905850097,197.66901685296045 160.63899594751095,197.6389187915481 160.33049082027668,197.68406588338632 160.2919276793794,197.70287717174102 160.2496022808336,197.72545071746393 159.9702546504314,197.87217876581207 159.82258603778325,198.05276713310894 159.76897386629193,198.11672551290945 159.6626900877214,198.4929512777609 159.65798726566075,198.9481844532312 159.60249396528909,199.18520668519974 159.42848954904528,199.38460634051495 159.23567384461498,199.5350966463995 158.45688651131636,199.90003563841753 157.84928190108124,200.38912913283656 157.01500126752313,200.75783038216676 156.06973403333382,201.10019582840582 155.43673418397123,201.60057609554616 155.00595568321629,202.06333378631345 154.3842426068553,202.79321177023743 154.08890538139084,202.9963736833133 153.49823093063011,203.3312146138629 153.09096654017839,203.47794266204284 152.73073037027706,203.5607123305905 152.63949562235663,203.5719991032557 151.68011992198538,203.6923913479521 151.13365199848258,203.9294135801449 150.88346186491242,204.27930354134466 150.87405622073507,204.65929156373252 150.66336979241825,204.99789475226703 150.3802599043675,205.26501504508732 149.7942882756674,205.71648596318937 149.62404611701606,205.889549814965 149.59865087794466,205.93469690646685 149.41147855987498,206.2507265490542 149.2318307571584,207.00317807875714 148.9393152249864,207.50732060360207 148.47279527657057,207.97384055229819 148.05236298434906,208.28987019471737 147.5491610239163,208.500556622866 146.9283885118553,208.61342435243355 146.42142429371796,208.741341112427 146.01698159655868,209.03855946649145 144.04461802432488,211.15294826518095 143.4859227634644,211.4689779076001 142.76733155265416,211.67213982045172 142.45976698983202,211.8263923840969 142.2791786227033,212.0784636466595 142.2725946718184,212.21766717954242 142.32056345689304,212.53369682196157 142.60649503818016,213.52693284122552 142.56887246163893,213.78652861914122 141.61890240544506,214.516406602897 141.0827806905317,215.16351491855363 140.42062334439314,216.06645675397291 139.25432347329752,217.3155262932237 138.83671287436846,217.90996300185722 138.57523596774064,218.3651961771593 138.37771744124967,218.53073551386214 138.1209433566825,218.66241453156016 138.0786179581367,218.69251259263615 137.8462985483409,218.85805192933898 137.75224210712804,219.01230449298416 137.63467155561196,219.30199833191978 137.68828372715936,219.41862831885555 137.8566447569304,219.794854083707 138.09931037520352,220.35166821568717 138.09931037520352,220.90848234783553 138.04005481723942,221.3637155233058 137.8754560451169,221.55559066309974 137.371313520272,221.72112999980257 136.9856821112432,222.1349783411392 136.87187381737562,222.8385205212993 136.07239406706626,224.21174456311928 135.44503760417643,225.03944124590464 134.82426509222756,225.43447829888655 134.42170352378042,225.72040988011761 133.95894583301313,226.21702788966547 133.67771707378665,226.41266528738825 133.57049273091613,226.4879104405828 133.37485533308123,226.62335171570507 132.6722537172772,227.1049206946589 131.947078555526,227.30055809238164 130.880478512116,227.375803245408 130.3001502698326,227.54134258194264 130.2239645524502,227.19145262057472 130.22020229480168,227.16135455972298 130.08758271269156,226.93561910058784 130.00951586648486,226.7098836416209 129.93427071351456,226.48038592511756 129.9182811185084,226.22831466289134 129.98600175618165,226.08911112967203 129.9991696580075,226.05901306842787 130.00669417330454,226.03267726516856 130.0151592530137,225.80694180603345 130.00857530207273,225.77684374478926 129.97847724088462,225.68654956116885 129.86278781824885,225.50596119404014 129.74521726673277,225.31784831161443 129.63611179486978,225.10339962570515 129.55710438430702,224.9152867432794 129.48750261775345,224.71588708818845 129.46681020074269,224.55034775148562 129.4226036733166,224.31708777722164 129.3059736862687,224.10263909114417 129.16677015321758,223.90700169342142 129.0078147676239,223.72641332629271 128.92880735694902,223.60978333935694 128.73693221693085,223.0604937225056 127.50103057933771,220.63759979703036 127.05614361245692,219.11764770686224 127.04015401745073,219.08378738808167 127.06554925652213,219.0499270693011 127.07307377181917,219.00854223505533 127.06366812775394,218.96339514355344 127.0382728885704,218.9182480517713 126.9065938708724,218.7414219420108 126.78902331935632,218.53073551386214 126.65264147965372,218.3162868277847 126.57739632662737,218.14322297595302 126.47205311252502,217.93629880550895 126.35260143212861,217.7293746347846 126.24537708920201,217.49611466052062 126.23785257390497,217.32681306644957 126.25666386214755,217.08602857688857 126.30275151828579,216.89791569446285 126.36953159154693,216.68346700838538 126.38081836449247,216.65713120473364 126.38740231537737,216.6307954012501 126.39398626631834,216.57436153674664 126.36200707630596,215.46825778791515 126.37799667131215,215.2387600714118 126.33849296600275,215.00173783961145 126.24537708920201,214.78352689577335 126.1127575070358,214.55779143719886 125.99800864881216,214.34710500865776 125.87009188870661,214.1288940652121 125.75722415925117,213.92196989443167 125.66222715362618,213.6887099201677 125.57569522782245,213.4441631730703 125.49292555949907,213.19961642591687 125.43367000153496,212.95130742122703 125.23427034616368,212.7105229317221 125.2135779290408,212.67666261294153 125.09506681311258,212.49607424581282 125.08095834698672,212.4321158654517 125.09318568434439,212.37568200094822 125.12234318106431,212.31924813605232 125.31045606349005,212.12361073832955 125.33114848055688,212.09727493501418 125.36594936380564,212.04460332771075 125.47693596449288,211.83015464202572 125.50891515450526,211.649566274897 125.51361797650983,211.408781785336 125.46000580501851,211.17175955353565 125.37817670116331,210.91968829074878 125.23521091051975,210.70147734747133 125.17219309490713,210.64880574033606 124.96432835993882,210.49079091893026 124.75834475357053,210.32525158261984 124.73953346538401,210.30267803650452 124.57117243561298,210.09199160835587 124.40845479225865,209.88882969533609 124.27301351691213,209.68566778209205 124.10841474478961,209.44488329269922 123.99366588650992,209.23419686421423 123.87985759264235,208.9934123749896 123.73407010876241,208.75639014285287 123.61649955724631,208.50808113816302 123.53467045339113,208.27105890636267 123.45472247841626,208.0453234473957 123.35220095749423,207.81582573072419 123.2224030685644,207.60513930274374 123.09824856621948,207.39445287437087 123.0446363946721,207.23643805302112 122.97127237052605,207.0069403365178 122.91107624814983,206.1830059113249 122.91577907021046,205.95727045252613 122.89696778196789,205.73153499361527 122.8875621378466,205.4869882464618 122.87909705819351,205.44936566997666 122.86686972083584,205.4155053511961 122.85652351224635,205.38540728978373 122.88474044461022,205.28758859120265 122.97879688582309,205.06937764736455 123.17537484795798,204.8699779922736 123.3108161233045,204.7721592931319 123.3804178898581,204.67810285191902 123.42838667482059,204.55771060722262 123.42180272393568,203.78644778916498 123.3446764421972,203.54566329994037 123.33903305566837,203.38764847859062 123.29670765712257,203.1468639890296 123.27131241810723,202.92112853006267 123.25814451628136,202.69163081372753 123.24591717886763,202.4546085815908 123.22616532621292,202.21758634995862 123.21393798885525,201.973039602637 123.20641347355823,201.73225511324418 123.19230500743235,201.49899513903625 123.21958137538408,201.26573516477228 123.28353975535278,201.02871293297193 123.35314152190635,200.78040392828208 123.39734804922034,200.54338169648173 123.41615933751898,200.31012172221776 123.45754417159658,200.05805045976726 123.48387997513618,199.75706984777398 123.4857611040165,199.48242503948848 123.49046392607714,199.21906700414849 123.52150255167739,198.997093802774 123.56664964340351,198.72244899443243 123.62778633024793,198.4816645050957 123.70961543410311,198.2521667883681 123.79802848878715,198.02266907169658 123.89114436558789,197.80445812825093 124.00213096621907,197.57496041174758 124.13569111274134,197.28150431488314 124.40469253461015,196.72092792553477 124.64547702417114,196.09639315582527 124.70661371090344,195.802937059129 124.74799854509317,195.27245873063237 124.87967756273513,194.82098781292274 125.04991972138647,194.41842624458772 125.26719010053213,194.0083401609557 125.60391216007419,193.5493447277248 125.89266543465375,193.2333150851374 126.17577532264842,192.92480995823954 126.48051819223417,192.5561087086851 126.83981379761126,192.1347358518272 126.98466071707908,191.942860711809 127.1492594892016,191.72464976819515 127.29692810190579,191.50643882469345 127.44929953667064,191.28070336578256 127.60355210025973,191.06249242194446 127.77097256561864,190.85933050892467 127.95908544804438,190.6335950501259 128.10863518957282,190.4417199099956 128.3174404890654,190.238557997144 128.5422353836202,190.0767809182018 128.75480294070522,189.918766096796 128.99840912344655,189.77580030637668 129.22038232482103,189.61026096967385 129.34829908481447,189.39957454152523 129.4291876242015,189.18136359768712 129.56086664195556,188.9706771693703 129.6511608255199,188.8879075013833 129.84491709436236,188.7261304224411 129.96248764587844,188.6471230118223 130.0010507867757,188.62831172329942 130.04996013626246,188.59445140451885 130.07817706862633,188.58692688938999 130.12990811123734,188.56435334344283 130.16282786566182,188.54554205531238 130.19668818449847,188.52296850919706 130.22772681009872,188.50039496330598 130.24935979157766,188.47405915982242 132.12484522936222,187.08578608768872 132.34305617303215,186.90895997798427 132.58666235577348,186.7358961261526 132.84343644022854,186.58916807797266 133.11620011974586,186.42739099919865 133.36262799577963,186.26185166255186 133.58648232581018,186.1075990990749 133.81315834918925,185.9571087931343 134.053002274226,185.7878071987269 134.2665103957792,185.6072188315982 134.51670052940543,185.43791723735896 134.7527821969058,185.28742693164264 134.98039878464093,185.1218875949398 135.21365875879277,184.9601105159976 135.4375130888794,184.80962021028128 135.64631838842803,184.65160538887548 136.01031681586576,184.24151930524343 136.4015916113113,183.6508448543145 136.523864984888,183.44015842616588 136.76088721674444,182.9661139623409 137.18226007337807,182.3114811316115 137.65066115061813,181.7584292571677 137.7174412238793,181.6229879820454 137.87357491640478,181.4123015535604 138.02594635111356,181.19409060989048 138.16703101293285,180.95706837809013 138.31564019004918,180.71628388852912 138.4397946923941,180.4830239144894 138.53667282684336,180.2610507132831 138.62226418834706,180.02402848142668 138.73325078897824,179.79453076458697 138.90725520527812,179.58760659397473 139.09348695882352,179.38068242358673 139.2881837921902,179.16999599504567 139.4433769201354,178.96683408202588 139.58069932430618,178.7523853959484 139.68698310293277,178.53417445267092 139.75282261172572,178.30843899353582 139.82336494263538,178.07894127703247 139.89861009566172,177.83063227234263 139.95786565362582,177.5823232674846 139.9785580706366,177.49579134140058 140.0161806471778,177.26629362506543 140.0613277389039,177.01798462020741 140.12528611892867,176.79977367653748 140.1685520818866,176.5439401565506 140.23062933308708,176.29939340928505 140.33126972518485,176.051084404427 140.4968090617195,175.82911120322072 140.79873023801278,175.4152628619962 140.96803183219595,175.21962546410526 141.1683720520354,175.0465616124418 141.37529622264768,174.86973550273734 141.52578652864432,174.6590490745887 141.6292486139224,174.44836264621583 141.7449380366703,174.23015170260197 141.77127384015384,174.20757815687907 141.92176414615048,174.01194075910024 142.05908655037732,173.78244304226055 142.1531429915902,173.56046984105424 142.2359126597454,173.31968535166143 142.29798991100193,173.09394989275054 142.36006716220243,172.1195251618413 142.42778779981964,171.8937897027062 142.4917461798444,171.67181650149988 142.56040738198584,171.4460810427011 142.61025729582866,171.22034558379025 142.6328308416637,170.99837238258394 142.66386946726394,170.7651124081518 142.68926470644746,170.49422985773904 142.70055147939303,170.46413179632668 142.80495412908323,170.23839633758396 142.8435172699805,170.03147216680355 142.84445783439264,169.99761184802298 142.84916065645328,169.96375152924242 142.9385142756055,169.72672929744203 143.014699993044,169.48970706558563 143.04385748976392,169.24139806055942 143.0344518456987,168.98932679833317 142.99306701150897,168.75982908182985 142.99024531827257,168.5115200769718 143.000591526806,168.2820223604685 143.1002913545477,168.05628690133335 143.25924674014138,167.85688724584995 143.45864639551266,167.65372533283016 143.63735363387318,167.45056341997855 143.77373547357575,167.23987699177385 143.96561061365,167.04047733634653 144.1330310790089,166.82226639250842 144.29857041554357,166.62286673741744 144.491386120086,166.4309915970629 144.65974714980098,166.24287871463716 144.84033551698573,166.05100357461896 144.92122405637272,165.9719961642244 145.1751764476475,165.81021908528223 145.39056569802494,165.61081942979882 145.57491632280215,165.41518203224425 145.7611480764597,165.2270691498185 145.90035160939868,165.03143175209576 146.04143627121798,164.81698306601828 146.2032133501041,164.602534380109 146.3508819628083,164.4031347246256 146.50043170433676,164.20749732690285 146.68760402235037,163.9968108987542 146.88136029124888,163.79364898551017 147.0657109160261,163.6092983606769 147.24535871874266,163.42118547825115 147.4137197485137,163.21802356539956 147.7363333419299,162.88694489233026 147.8708340528643,162.7665526476899 148.54615930071662,162.262410122845 148.41259915419434,162.10063304367858 148.17181466474545,161.94261822249703 148.13607321708457,161.93133144943934 148.02790830963372,161.9049956459558 147.74856067928758,161.81093920474294 147.7137597960388,161.7921279167807 147.68366173479464,161.773316628426 147.65732593125503,161.75074308247883 147.63475238542,161.72816953641956 147.55574497474512,161.57015471535013 147.4757969997142,161.35570602949693 147.46827248441716,161.32184571071636 147.4532234538231,161.07729896322653 147.56421005451034,160.84027673159434 147.68836455685528,160.61830353038803 147.6930673789159,160.56939418101342 147.58678360034537,160.35118323717532 147.4400555520533,160.14425906639488 147.36763209231938,159.87713877351854 147.39490846027113,159.82822942397573 147.41277918410157,159.80565587825282 147.64792028713373,159.64011654155 147.67237496184907,159.62506751095592 147.6930673789159,159.602493965233 147.71093810274635,159.57992041911768 147.78336156253633,159.41061882504664 147.80029172195464,159.29022658018206 147.88118026134165,159.12092498611102 147.91033775811763,159.04191757549222 147.8633095375112,158.8199443741177 147.84637937814895,158.78232179796896 147.80217285072283,158.71836341760783 147.6385146430685,158.51520150475622 147.5087167541387,158.30827733397578 147.48614320830367,158.23303218111764 147.4795592573627,158.0938286480665 147.4692130488293,158.05996832911777 147.4532234538231,158.0261080103372 147.42876877910777,157.9960099492612 147.39961128238784,157.9659118879049 147.1654107437678,157.78908577870502 147.11273913663254,157.7288896562727 147.0506618854881,157.62354644200218 146.9349724627402,157.39404872549886 146.77695764155865,157.18712455471842 146.60013153207848,156.98020038427435 146.399791312239,156.77327621349394 146.18063980426908,156.60773687701536 146.11291916653977,156.5738765582348 145.84579887349523,156.45348431337018 145.66897276401502,156.33309206850558 145.76491033405216,156.1525037013769 145.77525654258557,156.09606983687343 145.77337541381738,156.0396359721457 145.7009519540274,155.8139005132348 145.58902478904014,155.5919273120285 145.57303519403396,155.43767474838336 145.58526253139163,155.3850031412481 145.61065777046304,155.33609379187345 145.62852849434955,155.31352024575813 145.69248687431823,155.25708638125465 146.0884644918244,152.99973179214584 148.483141485104,144.69642916176187 147.71281923162667,143.5978499283956 147.76078801664525,142.22838814450444 147.4108980552773,141.38564243095684 146.59260701678144,136.9649896939521 146.28692358283962,135.07633635439774 140.50433357701652,136.53609232196536 136.43357080132364,133.76330843534643 133.69558779767317,134.89574798726903 130.88424076976452,136.40817556197194 128.01928157042062,138.05604441213347 117.74549649685132,145.43006940311008 110.00088912732781,141.21257857912516 104.28790088800223,138.10119150380353 93.93228671052168,139.73401132320282 91.93640902792859,139.9672712974668 90.05151794602274,140.18548224108065 89.21065336163578,140.501511883668 88.64819584312677,140.82882829897667 87.89856600666023,141.22762760994345 87.48377710091148,141.63018917822242 87.15175786343006,142.0026526853693 86.84795555842463,142.29987103960195 86.53286648024941,142.6046139093559 86.31653666545981,142.8679719446398 86.13406716956291,143.06737160006713 85.98169573479807,143.26677125521417 85.82744317115291,143.48874445642048 85.63933028872717,143.72952894598146 85.46720700136369,143.93269085900127 85.30448935800936,144.13209051448467 85.05712091761953,144.44435789931137 84.89816553196978,144.65504432768427 84.70440926307128,144.91464010537572 84.56520573007623,145.05760589618745 84.46456533803453,145.1441378221033 84.34699478651845,145.2457187786132 84.14571400226686,145.40373359962655 83.94725491136376,145.60313325510995 83.414895454155,146.80329344493006 82.48938007256433,148.19909103236083 81.06348442383333,150.2231856475981 79.3206185680468,151.88234127042486 79.18329616387601,152.0591673800172 78.81177322108519,152.54073635891493 78.19946578878942,153.5527836661972 77.85992203601097,154.22999004304197 77.09712429783069,154.81690223637844 76.87609166092439,155.25708638125465 76.79238142824494,156.050922744867 76.80648989448294,156.6340726804989 76.84787472856053,157.06673231002202 77.30498903291112,158.38352248700215 77.73012414713722,159.2638907766985 76.17913343159312,162.5483417038518 76.214874879254,163.7673131822509 75.37683198804736,166.48366320436634 75.31757643008325,166.69434963251499 75.37212916598672,166.89751154553477 75.38153481005195,166.96523218348835 75.38435650334439,167.0517641093481 75.37965368128374,167.11948474690925 75.36648577945788,167.19096764206284 75.32792263856061,167.30007311403796 75.30346796384526,167.36403149406271 75.17649176826396,167.62362727197842 75.08337589140716,167.80421563905105 75.0128335604975,167.98104174847518 74.97615154848054,168.07886044739263 74.94981574499701,168.15786785784326 74.93382614993476,168.2218262380362 74.91783655492857,168.36479202862367 74.91501486163612,168.4513239545395 74.91971768369676,168.53785588045534 75.02223920461878,169.14357936181014 75.2291633752871,169.98632507496532 75.39564327628993,170.75006337772592 75.41163287129612,170.82530853058407 75.44079036801605,170.92688948709397 75.27619159589354,171.06985527784965 74.91313373286792,171.47617910377713 74.25097638672935,171.95774808306732 72.67082817429713,172.6989128395444 72.15822056974307,173.2933495480097 71.99832461968118,173.35730792803446 71.78575706254011,173.35354567061017 71.52992354238505,173.42502856576377 71.29760413258927,173.50027371862194 71.06904698049807,173.57551887164828 70.91291328808471,173.58304338716957 70.59970533890193,173.756107238777 70.40877076312768,173.8877862565311 70.30624924220565,173.9780804401515 70.16046175838177,174.16243106504083 69.94225081471187,174.3806420086547 69.63938907406249,174.58756617909873 69.46350352893838,174.7041961662027 68.72704159424163,175.22714997957047 68.3301234123794,175.63723606303432 67.97459006453869,175.94574119015647 67.72063767326395,176.1112805268593 67.41683536820246,176.26929534820906 67.16194241251559,176.4084988809238 66.92397961619098,176.55146467184764 66.75938084406846,176.6342343400589 62.404567615968794,179.0646527809433 62.13368506527574,178.8953511868723 61.94275048955756,178.7900079726578 61.63330479796723,178.6921892736843 61.33044305731786,178.54546122533617 61.061441635393,178.4514047841233 61.02664075214424,178.44388026882626 60.88837778367345,178.44388026882626 60.57705096314674,178.47021607230982 60.536606693425206,178.47021607230982 60.20458745594379,178.45516704188395 60.15755923533735,178.44388026882626 60.11147157919911,178.4288312384004 60.026820782051466,178.39497091961982 59.98543594791781,178.3723973735045 59.78227403495408,178.18052223354238 59.66658461220619,177.9547867747436 59.51797543508986,177.74410034625862 59.2809532032895,177.6011345558393 59.2057080503192,177.56727423689054 59.12764120411252,177.54470069077522 59.08813749880312,177.54470069077522 58.76176164773841,177.59361004054227 58.72037681366081,177.59737229791048 58.39682265583249,177.59361004054227 58.35825951493521,177.5860855251892 58.28489549084524,177.56727423689054 58.249154043128286,177.55598746383288 57.96604415507756,177.43559521896827 57.86728489180405,177.4017349001877 57.8099104626642,177.39797264276345 57.77981240153215,177.39421038505887 57.41205171638984,177.2098597603377 57.17314835576522,177.06313171204565 56.931423301736025,176.89006786021397 56.459259966903495,176.77343787288575 56.433864727719964,176.7583888422917 56.417875132713775,176.73205303897635 56.39247989364236,176.70195497778823 56.2777310353066,176.61918530940878 56.25139523182306,176.60789853657536 56.22223773499101,176.60037402127833 56.19025854497864,176.5966117633495 55.88363454668075,176.5890872480525 55.77452907481777,176.5890872480525 55.729381983035594,176.5890872480525 55.65037457241679,176.58532499046004 55.513052168246,176.57403821762662 55.46696451210776,176.56651370249776 55.418055162621,176.55898918720075 55.11425285755951,176.44612145763318 54.9882172262782,176.36335178942193 54.9552974718537,176.3370159857702 54.90168530036237,176.28434437885917 54.88193344770767,176.25800857520744 54.861241030640834,176.2316727717239 54.837726920337616,176.20533696807217 54.77659023354925,176.16018987623394 54.748373301185396,176.130091815214 54.71921580446546,176.10375601156227 54.61575371907525,176.0322731160723 54.59223960877203,176.00217505522056 54.49253978119852,175.87425829505895 54.43234365876622,175.81782443016303 54.40036446869779,175.7914886268477 54.36932584309754,175.75762830773076 54.22730061686611,175.55446639471094 54.083394261810426,175.35130448185933 53.921617182924294,175.15190482637595 53.74855333109262,174.9826032323049 53.597122460739904,174.79449034987917 53.41183127155056,174.59509069439576 53.22465895353695,174.4182645850277 53.067584696711464,174.22638944484135 52.908629311117785,173.99312947080162 52.83338415814749,173.8764994834734 52.62175716541854,173.549183068389 52.47314798830221,173.3309721245509 52.494780969725106,173.0864253776217 52.62740055183525,172.57475833725553 52.632103373895895,172.3414983630476 52.60764869918055,172.10071387348663 52.35839912996645,171.5175639378547 52.25963986669294,171.2880662213514 52.261520995573264,171.06233076255262 52.31889542465705,170.8215462732159 52.35087461466942,170.68234274016476 52.28315397699616,170.45660728102965 52.26622381763391,170.39264890122914 52.17498906965743,170.166913442094 52.064943033382306,169.94870249864834 51.96524320569667,169.73049155481024 51.86742450683529,169.51980512666162 51.78559540298009,169.38812610890753 51.57773066789966,169.22258677259714 51.45451672996687,169.1210058160312 51.33694617845078,168.8877458418233 51.246651994886435,168.65072360996686 51.15541724685389,168.4137013778301 51.01621371391491,168.18796591925562 50.93062235235514,168.01866432479213 50.93344404564758,167.7891666082888 50.945671383005255,167.56343114954612 50.95601759148261,167.33393343298673 50.946611947361326,167.28502408327572 50.94096856094461,167.19849215735988 50.934384610003654,167.16839409633994 50.922157272702044,167.13829603526395 50.79988389912531,166.92760960677896 50.79047825494796,166.88998703023773 50.75003398522643,166.66425157149504 50.7161736663898,166.42346708193404 50.68983786290626,166.17515807707602 50.64280964229983,165.92684907221798 50.60518706575862,165.686064582657 50.57038618250986,165.45656686615365 50.57226731139018,165.23459366494734 50.57038618250986,164.98252240266504 50.5619211028007,164.75302468582535 50.58449464874785,164.52728922725083 50.63434456253461,164.2940292528187 50.645631335480154,164.06453153631534 50.649393593128664,163.83127156205137 50.62493891841332,163.59424933025102 50.59107859957669,163.3572270983946 50.55063432985516,163.12772938172307 50.47162691934847,162.88694489233026 50.3531158033642,162.67625846384524 50.18099251594465,162.4806210661225 49.98159286057338,162.27745915327088 49.80664787986138,162.0818217557163 49.65897926721324,161.8636108118782 49.52541912063491,161.6341130952067 49.41255139123553,161.40461537887154 49.33448454502885,161.17887991973643 49.218795122280966,160.96066897629075 49.10874908606191,160.73869577508444 49.03444449750375,160.52048483124636 49.007168129552014,160.39633032901355 48.89053814244806,160.1894061582331 48.84445048630982,160.12544777820838 48.81529298947777,160.09158745959598 48.63188292911268,159.98248198762087 48.58109245085773,159.95238392660096 48.551934954081744,159.9410971533751 48.646931959706734,159.75674652887818 48.75321573827728,159.5422978429689 48.77202702651985,159.51596203931717 48.79554113682307,159.49338849337005 48.82469863365512,159.47081494731077 48.85573725925536,159.44824140175604 49.12850093871661,159.29022658018206 49.22161681551735,159.20369465426623 49.32319777208331,159.07954015203342 49.33824680267737,159.03439306019519 49.35047414003504,158.90647630003357 49.36082034851239,158.66192955310436 49.425719292949275,158.42114506354335 49.502845574799885,158.19164734704003 49.51789460539394,157.9659118879049 49.59972370919308,157.75146320199562 49.76338191690346,157.53325225854996 49.87060625994219,157.1683132667001 49.93080238237449,157.0629700524856 49.964662701155056,157.02910973370504 50.000404148815946,156.99901167229268 50.038967289657165,156.97643812656978 50.07941155943476,156.95762683821508 50.404846846031276,156.88990620065394 50.448112809045256,156.87861942759628 50.49231933630318,156.86357039700223 50.61835496752842,156.81089878986697 50.65597754401357,156.78832524414406 50.68889729843807,156.7582271827317 50.71335197320948,156.7243668639511 50.729341568215666,156.67921977228107 50.73874721228089,156.64159719579592 50.763201886996235,156.52872946622836 50.83844703996653,156.41209947929258 50.870426230034965,156.378239160512 51.04537121063483,156.1562659593057 51.06418249887741,156.11864338259633 51.07452870746688,156.07725854851873 51.07735040064721,156.0283491991441 51.09710225330191,155.88162115079595 51.17422853509646,155.65964794958964 51.25793876783197,155.43391249045453 51.26170102542443,155.38124088365564 51.22219732011502,155.25332412332583 51.15071442479324,155.02006414945427 51.14977386038112,154.7792796598933 51.04819290387122,154.55354420075815 50.93062235235514,154.32404648425484 50.79988389912531,154.09831102528787 50.61929553199661,153.91019814286216 50.60518706575862,153.88010008184222 50.60518706575862,153.84623976306165 50.61929553199661,153.80861718635225 50.63716625577099,153.77475686757168 50.64375020671196,153.7408965486229 50.64375020671196,153.6618891381723 50.63998794906344,153.6205043039265 50.63622569147099,153.5001120593983 50.66444262372273,153.3496217533456 50.671967139019756,153.2141804780551 50.68043221872891,153.18032015927454 50.695481249322974,153.15022209786218 50.71805479527012,153.12388629454682 50.745331163221856,153.09755049089512 50.779191482002425,153.07873920276467 50.816814058487566,153.06369017194635 50.85913945708942,153.0524033992811 50.946611947361326,153.0335921109264 51.11779467042481,153.01101856497928 51.161060633382725,153.00349404968225 51.20338603192851,152.995969534217 51.24288973723792,152.98092050362297 51.42441866872269,152.905675350933 51.459219552083574,152.88310180481764 51.49119874198382,152.86052825892656 51.54669204229941,152.80033213649426 51.62381832420609,152.65736634607495 51.64827299880931,152.57835893528795 51.68119275328988,152.33381218835876 51.69436065511574,152.29618961164937 51.73292379595695,152.2209444587912 51.91445272744172,152.00273351528946 52.045191180727606,151.7958093445651 52.07340811314753,151.72056419165085 52.13266367111164,151.47225518662464 52.13642592876015,151.30671585031425 52.12137689816609,151.22770843952725 52.10820899634023,151.19008586298605 52.0875165792734,151.15246328666908 51.90974990543714,150.9605881466509 51.73574548913727,150.74613946057343 51.71693420095077,150.70851688408828 51.64357017674867,150.47901916758497 51.60970985791204,150.20813661694797 51.59842308496649,150.03883502254055 51.55515712200857,149.79428827561136 51.53540526935387,149.5497415284579 51.441348828141,149.06064803403888 51.4422893926092,148.98164062347612 51.547632606711545,148.74461839145152 51.57490897466327,148.62798840434755 51.57584953913146,148.39472843025177 51.57208728148295,148.16899297134088 51.52411849640833,147.9282084817799 51.439467699372805,147.7062352805736 51.33600561398259,147.49178659449612 51.21373224040587,147.25852662023215 51.09898338212617,147.03655341902586 50.9390874320643,146.82210473328476 50.73968777669302,146.62270507785743 50.51113062454575,146.45340348373034 50.28821685887126,146.29162640461996 50.108569056154685,146.10351352219422 49.944910848444295,145.89658935180623 49.736105548951734,145.70847646938049 49.509429525628725,145.52788810225178 49.29498083971945,145.34353747719425 49.10404626400127,145.17423588295503 48.914052252751276,144.98236074293686 48.79554113682307,144.86573075583289 48.659159297064406,144.8017723760324 48.34312965464524,144.73405173824702 48.02145662569723,144.7039536768907 47.601964897887854,144.70019141929825 47.45617741395184,144.71147819218774 47.189997685375495,144.71524045011657 46.921936827862766,144.74910076889714 46.63506468216352,144.77919882991705 46.27012569031366,144.77543657254884 45.93528475953979,144.73781399583945 45.62019568147669,144.70019141929825 45.29476039488017,144.63623303932957 45.04833251890246,144.53088982505903 44.853635685591826,144.33901468526508 43.99301924855016,142.97707741627855 43.98267303996068,142.93945483990552 43.973267395895455,142.89054549036268 43.96574288059843,142.84539839869265 43.95633723642108,142.75886647277682 43.94128820588308,142.67609680445344 43.93282312611786,142.6083761667241 43.91401183793135,142.49927069508536 43.89896280733729,142.46164811837596 43.8848543410993,142.41273876900132 43.87074587497343,142.37511619262833 43.84252894255351,142.3036332973626 43.82936104078371,142.25848620535618 43.81149031695326,142.20957685614974 43.796441286415266,142.17571653736917 43.76728378958322,142.10799589963983 43.69109807225686,141.91612075945346 43.67604904171886,141.8822604405047 43.63466420747307,141.750581423087 43.62902082111243,141.71672110413826 43.603625581872826,141.6226646629254 43.58575485809845,141.53613273700955 43.58575485809845,141.4796988721697 43.57823034274536,141.44960081114976 43.56035961891491,141.39316694625387 43.5565973612664,141.3480198545838 43.54813228155724,141.3179217932275 43.52555873566615,141.22386535201463 43.515212527188794,141.19000503323406 43.50392575418719,141.1561447144535 43.475708821879394,141.10347310731822 43.46254092005353,141.0771373038347 43.42679947239264,141.02070343916304 43.41269100626677,140.96426957443532 43.40610705532581,140.90031119446664 43.35813827036331,140.70467379674386 43.332743031179774,140.54665897533806 43.309228920876556,140.49398736837097 43.289477068221856,140.43755350353115 43.26878465115502,140.39993092715812 43.18225272535131,140.1704332104866 43.16814425905726,140.0876635423314 43.143689584341914,139.95222226704092 43.15121409963894,139.87321485625392 43.14933297081468,139.8280677644157 43.13710563345701,139.77163389991222 43.12487829609934,139.73401132320282 43.11453208762198,139.7076755197193 43.06938499578375,139.63995488198998 43.04963314312904,139.60985682097004 43.0120105666439,139.53837392548007 42.964982346037466,139.4029326501896 42.96122008838895,139.36531007381657 42.95557670191618,139.33144975486783 42.94428992897063,139.3013516938479 42.920775818667416,139.25620460184146 42.90666735254155,139.21858202569268 42.90008340171271,139.19224622204098 42.8906777574793,139.1621481606286 42.867163647176085,139.04928043122922 42.86340138958363,139.0003710818546 42.860579696347244,138.92136367140398 42.858698567466924,138.88750335228704 42.85211461663809,138.83483174548815 42.84270897246074,138.7783978804801 42.83424389275158,138.74829981962836 42.78157228572844,138.5188021029008 42.779691156848116,138.4172211462227 42.76558269072225,138.15762536869943 42.75053366012819,138.11624053439758 42.733603500653814,138.07485570048817 42.72325729217646,138.029708608706 42.71855447011582,137.99584828992542 42.71291108358698,137.91684087913845 42.69880261746111,137.83030895322258 42.69221866657622,137.8002108921466 42.65271496126681,137.6497205859257 42.63766593061669,137.59328672142223 42.5943999677709,137.47289447672583 42.57464811506013,137.4277473847194 42.51351142821571,137.31111739778365 42.473067158494175,137.2433967602225 42.451434177015216,137.19448741045542 42.4345040175969,137.13805354595195 42.42133611588316,137.10419322717138 42.41475216494219,137.06657065046198 42.40628708534516,137.02142355879195 42.37618902404492,136.9838009823068 42.343269269676476,136.9537029212308 42.3065872575474,136.89726905622277 42.205946865505695,136.74677875050645 42.184313883970674,136.70915617379706 42.14386961424914,136.65272230929358 42.12599889041869,136.63014876317823 42.05733768838937,136.5624281256171 42.02065567626028,136.5022320031848 41.9896170507161,136.378077500952 41.96422181153257,136.32540589381674 41.88521440091375,136.24263622566153 41.85699746860596,136.17115333017156 41.82031545647688,136.07333463136624 41.774227800338636,135.9980894783399 41.75353538321574,135.94165561366825 41.74507030350659,135.91155755259226 41.67923079465758,135.68582209368137 41.66512232853171,135.61810145595203 41.660419506471065,135.5541430757591 41.65195442670585,135.46008663454623 41.63690539616785,135.4111772853398 41.6209158011056,135.38860373922446 41.47606888169385,135.16286828048177 41.41587275926155,135.06128732397187 41.382012440480985,135.01990248989426 41.33780591305487,134.97099314046358 41.23058157018433,134.8694121837855 41.1976618156477,134.83555186483673 41.13464400003508,134.76030671197856 40.93336321583955,134.59476737561212 40.83554451697817,134.5082354496963 40.79133798966418,134.47437513074752 40.73396356046827,134.43675255426237 40.66624292290713,134.39536772018477 40.632382603958376,134.3464583705859 40.62485808866134,134.30883579426893 40.67752969579661,134.06052678941091 40.73866638252891,133.91003648347032 40.784754038723214,133.797168754127 40.802624762609724,133.75202166228877 40.832722823741776,133.65044070577886 40.77534839465799,133.5375729762113 40.76218049283213,133.4999503996701 40.7546559775351,133.46232782335312 40.74619089782594,133.3983694431602 40.72361735199092,133.34193557865672 40.69257872639067,133.2967884866503 40.67282687373597,133.2742149409274 40.64743163455243,133.236592364218 40.62203639548102,133.18392075741912 40.607927929243026,133.15758495376738 40.59099776988077,133.11996237728223 40.5590185798684,133.0560039970893 40.54491011363041,133.02590593606936 40.51575261685442,132.86036659936653 40.506346972733134,132.78135918891593 40.51669318132261,132.7136385513548 40.52892051868028,132.67601597486964 40.545850678042534,132.63463114079204 40.679410824564805,132.49542760774094 40.708568321396854,132.28097892166346 40.709508885752925,132.2283073145282 40.711390014577184,132.18316022268996 40.71421170781357,132.14929990407757 40.750893719886584,131.97623605230197 40.75183428435478,131.94237573329715 40.749012591062325,131.8859418684573 40.7414880757653,131.79564768517326 40.73302299605614,131.6526818943615 40.715152272225694,131.6000102874505 40.69916267721951,131.5623877107411 40.669064616087454,131.50971610360583 40.59946284958993,131.38932385890942 40.51104979479378,131.29526741769658 40.468724396247985,131.25388258345077 40.43110181987496,131.19368646118667 40.4113499671642,131.16735065753494 40.299422802064825,131.06953195895386 40.23922667968859,131.03190938224446 40.17620886413203,130.99428680587144 40.03512420231273,130.89270584919336 39.99938275465184,130.86637004570983 39.801864228048764,130.6970684514706 39.77458786009703,130.66320813269004 39.71345117336473,130.49766879615538 39.572366511545425,130.35094074803152 39.516873211229836,130.29826914089625 39.28549436584618,130.06124690903982 39.12559841578431,129.8693717689095 39.090797532591615,129.8317491923683 39.06352116452776,129.7978888737559 38.91679311623569,129.68502114418834 38.84342909214571,129.6173005066272 38.78887635624225,129.56086664161919 38.7663028102951,129.53453083813565 38.73150192704634,129.48562148892918 38.68259257767171,129.42166310890445 38.657197338488174,129.38780278978751 38.601704038172585,129.25612377242587 38.58947670081491,129.21850119571647 38.565962590511695,129.09810895085187 38.52645888531441,129.01157702493603 38.450273167819866,128.8836602649426 38.43146187963335,128.7632680204144 38.41923454227568,128.69554738251688 38.424877928692396,128.63535126008458 38.43146187963335,128.40961580151006 38.42111567104388,128.37575548256132 38.361860113191895,128.24783872256788 38.26686310751084,128.16506905402025 38.15493594241147,128.06725035543917 38.08721530479426,127.89794876114388 38.08721530479426,127.8151790928205 38.075928531792655,127.76250748568523 38.01102958735578,127.7324094246653 37.96400136674935,127.69854910588474 37.9197948393793,127.67973781736185 37.87746944083351,127.65716427180713 37.805045981155665,127.63835298345244 37.74108760107485,127.61577943750528 37.47396730803031,127.49538719286494 37.40436554158885,127.46528913145258 37.371445787108286,127.44647784343425 37.289616683253094,127.39756849372324 37.2472912847073,127.37123269023971 37.19650080650842,127.33737237145914 37.125958475598765,127.26965173372982 37.03754542080261,127.19816883840804 36.943488979589745,127.12292368538168 36.905866403104596,127.10411239719517 36.638746110060055,126.98748241009122 36.51271047883482,126.92352403006646 36.428059681743235,126.86332790780236 36.210789302541514,126.67145276767204 36.182572370233714,126.64887922194914 36.12049511897716,126.5849208417562 36.08381310696021,126.52848697725274 36.07064520513434,126.48710214295089 36.07722915601924,126.43066827811104 36.091337622257235,126.38928344403344 36.14589035810464,126.33661183689817 36.20232422288842,126.26136668404001 36.25405526549943,126.21621959220177 36.39043710531415,126.0393934828337 36.45157379204645,125.96414832997553 36.599242404750655,125.8813786614279 36.660379091595075,125.85128060040797 36.75819779045646,125.80613350840154 36.79487980247342,125.78732222021503 36.824037299249404,125.7760354475498 36.859778746966356,125.76098641689968 36.92467769134717,125.74217512860105 36.99051720019618,125.73465061324795 37.34793167680507,125.79484673551207 37.40436554158885,125.80989576633037 37.494659725153205,125.82118253916379 37.584013344249364,125.8174202816274 37.874647747653185,125.74969964389807 37.99692112122991,125.68574126370514 38.11919449475058,125.62178288390464 38.33740543842049,125.46376806249883 38.35339503342668,125.43743225884711 38.355276162194876,125.34337581763424 38.33458374512804,125.29822872618844 38.33176205189166,125.26436840718362 38.3232969721825,125.2116968002726 38.32894035865527,125.14021390461446 38.30824794158844,125.08378004011098 38.286614960165544,125.04239520580913 38.26874423627903,125.00101037189972 38.225478273321116,124.95210102218871 38.07498796743659,124.61349783404664 37.92920048350059,124.30499270692451 37.8981618579564,124.17331368900224 37.87935056971383,124.13569111262922 37.8718260544168,124.09430627838344 37.872766618772864,124.0453969290088 37.897221293488215,123.92500468414421 37.90474580878524,123.85352178899062 37.8934590358397,123.80837469720845 37.884993956130536,123.77827663613245 37.87935056971383,123.7444163170155 37.88405339171841,123.71055599823494 37.910389195314075,123.66917116415733 37.936724998797615,123.64283536050561 37.97246644651457,123.58640149600214 38.006326765295135,123.52244311580921 38.022316360301325,123.4810582817316 38.04300877742422,123.44719796278285 38.05617667925008,123.40205087128099 38.077809660616914,123.36066603686702 38.08345304714575,123.31928120278941 38.06746345213956,123.27413411095118 38.04959272825305,123.22522476157654 37.98751547705256,122.96939124158968 37.93578443438549,122.74741804038337 37.90192411560492,122.70227094837695 37.869004361124354,122.65712385687509 37.785294128500965,122.55930515795764 37.75425550290072,122.52920709671346 37.692178251644165,122.4539619436871 37.66960470575307,122.41633936737014 37.658317932807535,122.35990550247423 37.651733981978694,122.31852066822846 37.63950664462102,122.27713583431904 37.622576485146645,122.23575100024144 37.569904878123495,122.13793230109975 37.520995528636746,122.04011360251867 37.4702050503818,121.97991748008639 37.42035513659504,121.90091006946757 37.39401933299938,121.8294271739776 37.3752080447568,121.74289524806177 37.378970302405314,121.70903492944939 37.409068363649496,121.63378977625484 37.46079940626051,121.53973333504197 37.50688706251088,121.46448818218381 37.51817383545642,121.43439012110781 37.512530448927585,121.38548077139681 37.49936254721385,121.29894884548098 37.48337295220766,121.2613262693322 37.441047553605806,121.17855660078457 37.403424977120665,121.11836047852046 37.37238635152042,121.08073790203531 37.26422144418168,121.00173049124832 37.24258846264666,120.96787017246776 37.21154983704641,120.82490438204844 37.18897629121139,120.71203665248088 37.15605653673082,120.70074987942321 37.122196217950254,120.69322536412618 37.029080341149516,120.67065181840327 36.889876808098414,120.64055375699091 36.82591842807366,120.62550472639685 36.76384117687317,120.58411989248744 36.72151577832738,120.55402183124326 36.67730925095733,120.51263699699747 36.682952637430105,120.47125216291988 36.69988279690448,120.43362958637867 36.76384117687317,120.38472023700403 36.81180996189173,120.3546221759841 36.915272047281945,120.30195056884884 36.96794365430509,120.26809025006827 36.98863607137192,120.22670541599066 36.90116358104395,120.03859253356494 36.89740132339544,119.97839641113264 36.87859003515287,119.93701157705505 36.85507592484965,119.88810222728797 36.80898826871141,119.79028352870691 36.779830771879354,119.74137417927622 36.752554403927626,119.71127611791991 36.72245634279557,119.66989128384232 36.688596023902875,119.62474419200407 36.66226022036327,119.59464613098415 36.63968667447219,119.55702355427475 36.54845192649571,119.48177840141658 36.499542577121076,119.44791808263601 36.447811534397935,119.39900873303714 36.31613251681205,119.21465810820385 36.260639216440396,119.15446198593975 36.205145916124806,119.07921683308157 36.15059318022134,119.01149619535225 36.11579229697258,118.97387361881104 36.07440746278286,118.93625104249408 36.048071659243256,118.90991523901054 36.02737924217642,118.88734169306339 36.003865131873205,118.85348137394645 35.97282650627296,118.80457202457181 35.95119352485006,118.78199847884892 35.86466159893423,118.66160623415252 35.653975170561345,118.47725560909498 35.629520495902064,118.45468206337208 35.52417728174365,118.3643878796956 35.440467049008134,118.28914272666924 35.38591431316073,118.24399563522344 35.31725311101928,118.20261080092159 35.283392792182646,118.18756177015935 35.23636457157622,118.16875048197284 35.163941111954436,118.14241467865749 35.03226209414429,118.08598081364946 34.94008678181175,117.99192437243659 34.89870194762202,117.95806405365602 34.85919824231262,117.92796599258003 34.78865591140297,117.85648309731431 34.70306454989926,117.78876245958499 34.678609875183916,117.76618891380602 34.59489964256053,117.71351730672681 34.541287471013135,117.68718150324327 34.49049699275818,117.64955892653387 34.46039893157007,117.62698538081098 34.40866788890299,117.57055151608326 34.33248217157663,117.46897055940518 34.31649257657044,117.41253669473352 34.29956241709606,117.37115186065591 34.27322661361252,117.29966896516595 34.133082516205356,117.10779382531595 34.11615235678703,117.08145802166422 34.07852978024583,117.03254867212141 33.84338867721366,116.63751161925163 33.824577388971086,116.60741355789531 33.74745110717654,116.50959485909 33.673146518618374,116.3892026142254 33.65621635920006,116.34029326485077 33.64492958625451,116.29514617301254 33.55181370950984,116.03555039548927 33.516072261792885,115.95654298470228 33.496320409138185,115.87377331654707 33.496320409138185,115.8399129977665 33.50102323125489,115.79100364833582 33.532061856799075,115.71575849514127 33.55181370950984,115.66308688817419 33.573446690932734,115.53893238577321 33.565922175635706,115.50130980940018 33.53676467891578,115.44863820209673 33.36934421350082,115.24547628907695 33.3392461523127,115.21537822805702 33.0749475525606,114.98964276892188 32.874607332777195,114.82034117485085 32.78525371356891,114.72252247604553 32.69025670799998,114.57203216999282 32.721295333600224,114.56826991256855 32.83040080535109,114.51183604756052 32.861439430951336,114.47421347135568 32.8604988665392,114.39144380286412 32.83698475623599,114.28986284635423 32.75515565238079,114.04907835679322 32.60184365320382,113.69166388029645 32.42689867254789,113.2966268270903 32.36011859928676,113.08594039894164 32.31685263632884,112.97307266937409 32.26135933601324,112.89782751651592 32.154134993142705,112.80377107530305 32.05067290769642,112.7210014069236 31.96131928860026,112.62318270817435 31.993298478612637,112.60060916245145 32.305565863439355,112.54041304001915 32.62347663473884,112.49526594818091 33.268703821403044,112.47269240223376 33.88759520458371,112.46516788693673 34.466982882454964,112.48021691758686 35.09904216740543,112.46893014452918 36.08287254249201,112.46140562940035 36.52587838060462,112.50655272123858 36.770425127814136,112.51783949390381 36.859778746966356,112.39368499167101 36.89834188780757,112.23190791289701 37.04224824286325,112.08894212208527 37.266102572949876,111.991123423336 37.48337295220766,111.93845181603255 37.59341898842671,111.90082923965953 37.60376519690407,111.83687085969085 37.48337295220766,111.72024087253082 37.45609658425593,111.70142958440037 37.40154384835247,111.66380700769099 37.3291203885625,111.61865991602093 37.29996289178651,111.59608636996165 36.951954059298906,111.3853999419812 36.915272047281945,111.35530188056885 36.857897618086035,111.29134350076835 36.83250237901463,111.24619640876192 36.79958262453406,111.13709093712318 36.7497327107473,111.03174772268446 36.70834787655758,110.97155160042036 36.67919037983765,110.94145353940041 36.61429143534471,110.88878193226515 36.36974468824732,110.74957839904586 36.33212211170611,110.72700485349114 36.21361099583396,110.64047292740712 36.13272245633483,110.5840390626794 35.99634061657618,110.50126939435602 35.94272844514091,110.4636468178148 35.89758135330267,110.44859778722075 35.83174184445366,110.41849972620082 35.691597747102556,110.36582811906555 35.633282753550574,110.33196780028499 35.58343283965169,110.29434522357559 35.52229615286333,110.24919813212978 35.46868398142806,110.21910007071742 35.38779544192893,110.15890394828511 35.12537797094503,109.98960235421409 35.06330071974454,109.95574203543352 35.01251024148959,109.92940623178178 34.960779198822515,109.91059494342709 34.66167971582166,109.82030076014304 34.59960246467723,109.79020269873068 34.36258023270869,109.64723690814319 34.0710052649488,109.48545982936918 34.013630835808954,109.45912402571746 33.925217781124914,109.42150144917625 33.605425880945106,109.29734694694345 33.32513768618683,109.18447921737588 32.99029675541296,109.03775116902774 32.711889689422875,108.87597409008556 32.594319137906794,108.80072893722739 32.38833553170668,108.63895185845338 32.37328650111262,108.60132928174399 32.361999728111016,108.57499347826044 32.35071295516547,108.54865767494509 32.341307311100245,108.52232187129336 32.318733765265215,108.49222380993706 32.28581401072859,108.4470767184352 32.207747164577974,108.31915995810539 32.19175756951572,108.28153738195661 32.17670853897773,108.24391480524721 32.17953023215805,108.21005448629846 32.15131329979419,108.16866965238904 30.43290211889118,106.99484526582822 30.22785907699107,107.17919589088575 29.801783398352846,107.55542165573722 29.499862222059544,107.81501743326048 29.16125903363716,108.14233384873732 28.808547379088914,108.41697865724707 28.431381049825315,108.6088537972092 27.999661984714322,108.72172152660858 27.38641398795037,108.78944216416971 26.97632790431833,108.78191764887269 26.67346616355684,108.70667249601452 26.411048692572944,108.57875573602108 26.21164903725773,108.40192962665301 25.9830918850544,108.13480933360847 25.77052432791332,107.75858356875702 25.57488693019056,107.4199803803907 25.33410244074168,107.15286008740222 25.187374392393547,107.02118106947995 24.982331350661624,106.86692850583479 24.89015603816089,106.89702656724715 24.772585486644807,106.9873207505312 24.648430984299885,107.13404879904752 24.514870837777615,107.38235780390555 23.878108730710444,106.94217365902934 23.29778048842706,106.61861950097676 22.68265136289491,106.22358244793878 22.31771237098899,105.99784698919609 21.94336773496178,105.73825121128039 21.61887301283345,105.44103285721592 21.1664615305435,104.98579968157746 20.565440871249344,104.52680424857078 20.15817648074157,104.18820106020448 20.097039793953208,104.12048042264333 20.070703990469667,104.04899752737761 20.01709181892227,103.96246560129359 19.785712973650742,103.73296788479026 19.715170642741093,103.65772273187602 19.565620901156574,103.48089662217158 19.556215256979225,103.4094137268498 19.619233072591847,103.22130084442408 19.644628311831443,103.12348214567483 19.655915084720924,103.07081053853955 19.655915084720924,103.01061441610726 19.62957928112526,102.97299183973423 19.465921073414872,102.91655797489439 19.433001319102495,102.91279571752618 19.39067592044458,102.89398442917148 19.346469393130594,102.87141088322434 19.228898841614512,102.8036902456632 19.06618119826019,102.70963380445033 19.0106878979446,102.49894737596533 19.00504451152789,102.22430256762375 18.947670082331978,102.22430256762375 18.723815752245354,102.20549127926905 18.67114414516615,102.19420450660382 18.43035965566121,102.04371420049505 18.389915385995742,101.99480485112042 18.34006547209686,101.91955969826225 18.26199862589018,101.67125069340422 18.225316613873225,101.60729231321129 18.022154700909493,101.44175297690089 17.88859455433116,101.35898330835326 17.863199315147625,101.3439342777592 17.60454410181224,101.17839494139274 17.431480249980567,101.0918630154769 17.392917109083292,101.07305172734645 17.354353968186018,101.05800269652815 17.00822626452267,101.07681398471466 16.89723966394755,101.08433850017987 16.77496629037082,101.06928946941763 16.671504204980607,101.00909334715352 16.580269457004125,100.92632367899832 16.559577039993357,100.90375013305118 16.511608254918734,100.86988981410241 16.48056962937455,100.85484078350835 16.448590439306113,100.8397917529143 16.229438931280132,100.68177693167668 16.008406294429896,100.44851695763695 15.983951619770613,100.43346792698684 15.840985829070993,100.34693600112706 15.784551964343274,100.32436245501172 15.693317216422855,100.3130756823465 15.575746664906772,100.3168379397147 15.475106272752942,100.32060019764351 15.381049831540075,100.32060019764351 15.226797268007036,100.3130756823465 14.844928116626736,100.28673987886295 14.701962326039242,100.25664181745059 14.564639921868455,100.23406827172768 14.464940094126755,100.19644569501828 14.372764781794208,100.15129860334824 14.337023334133319,100.12872505728896 14.142326500878747,99.86912927970964 14.121634083755854,99.82398218792746 14.064259654559944,99.70358994323105 14.03228046460363,99.65844285122463 13.933521201330121,99.60953350201818 13.900601446849555,99.60200898672116 13.815950649814038,99.57191092530879 13.689915018532734,99.49666577245063 13.620313252091275,99.447756423076 13.38329102017879,99.22202096410905 15.857915988545372,97.2092131223219 16.284932231651787,96.89694573727093 16.95743578626772,96.31755805956786 18.03814429580356,95.53124621108435 22.450331953155192,92.51015331904676 23.773706080964164,91.6072114836275 24.417052138916233,91.19336314206663 24.516751966545808,91.14069153526773 24.978569092900983,90.90366930313101 24.731200652567207,90.8246618925122 23.21124856251122,90.59892643393769 20.77048391303733,90.30547033707323 13.565760516187812,89.8577616769 13.258195953365677,89.85023716160296 12.634601748124371,89.83142587358464 11.986552868223782,89.7524184630219 11.490875422975913,89.6922223405896 10.933120726583613,89.50787171553206 10.701741881199963,89.44391333573157 10.565360041441306,89.410053016951 10.512688434418163,89.37995495553862 10.486352630822498,89.36114366752031 10.455314005222252,89.34609463675805 10.42051312197349,89.31975883310633 10.2173512089537,89.16174401209297 10.015129860402098,89.01125370598419 9.803502867673147,88.849476627042 9.628557886961154,88.68017503297096 9.461137421602253,88.49958666584226 9.322874453019338,88.31899829888174 9.198719950618354,88.11583638569377 9.135702135005733,87.90138769961631 9.128177619708705,87.67188998311298 9.09055504327962,87.46120355496434 9.058575853267245,87.22418132293973 8.962638283174059,86.98715909113936 8.8065045907607,86.77647266299073 8.633440738929025,86.60717106869545 8.618391708334967,86.58459752263617 8.571363487728533,86.45668076264273 8.608045499857614,86.23846981919706 8.684231217183974,86.01649661799077 8.67294444423843,85.79452341678446 8.613688886274323,85.58007473070701 8.541265426596478,85.35057701397942 8.409586408842403,85.1361283282944 8.265680053786717,84.92544189975332 8.118011441138579,84.7335667597912 7.954353233372129,84.53792936201238 7.860296792159262,84.31971841823034 7.824555344554435,84.09022070189519 7.811387442728572,83.87200975822529 7.8142091359649575,83.65379881461143 7.86311848545171,83.4355878711097 7.893216546583766,83.34905594524993 8.031479515222742,83.14965628976653 8.181969821107266,82.97659243776667 8.281669648792905,82.9013472849085 8.310827145681017,82.8712492238325 8.329638433867528,82.83738890488375 8.336222384696367,82.7809550400439 8.326816740575081,82.73580794820568 8.315529967629537,82.70947214472213 8.159396275216178,82.5213592622964 7.956234362196386,82.3370086376313 7.740845111818921,82.15265801274195 7.30536378900335,81.79900579400582 7.280909114288004,81.7726699903541 7.251751617568077,81.70871161032936 7.246108231039243,81.47168937836081 7.245167666627115,81.24219166185748 7.318531690829213,80.93744879249597 7.316650561948893,80.75686042536726 7.41070700316176,80.51983819351084 7.413528696398146,80.47845335909687 7.421053211751237,80.24143112729651 7.455854094999998,80.01193341096136 7.457735223768193,79.78996020958688 7.4332805490528475,79.55293797773045 7.466200303477351,79.33848929187724 7.548029407332545,79.10899157531784 7.654313185903084,78.88701837394335 7.749310191584142,78.64999614197481 7.807625185080057,78.42426068317604 7.801981798607285,78.19100070896815 7.7427262406431785,77.9426917042783 7.648669799430312,77.70190721454911 7.549910536212864,77.44983595209862 7.4370428067013625,77.2165759780589 7.284671371936518,76.98331600362675 7.121013164226131,76.76510506034927 6.942305925977746,76.55818088956885 6.787112797920454,76.35878123408544 6.697759178768231,76.11799674452443 6.635681927567739,75.87721225513162 6.53033871346539,75.63642776579488 6.4588558180875495,75.49722423274376 6.293316481552904,75.29406231972398 6.1127281144242005,75.10971169466644 5.939664262648588,74.91031203935123 5.7299183986878335,74.72596141451795 5.597298816577692,74.57170885104097 5.520172534839203,74.61685594287921 5.431759480043047,74.66200303466138 5.315129492939092,74.70338786896323 5.148649591992318,74.72596141451795 5.059295972840094,74.70715012633144 4.905043409307056,74.62438045817623 4.819452047747284,74.54161079002104 4.658615533273283,74.34597339207403 4.607825055018335,74.2744904969765 4.541985546169328,74.16162276724074 4.416890479356216,73.96222311192554 4.32941798902825,73.77034797196342 4.218431388453129,73.59352186237109 4.100860836937046,73.44303155648657 3.9099262612188648,73.30006576589908 3.7302784585022897,73.2097715822226 3.5750853305010595,73.16086223284798 3.334300840996121,73.09314159511865 2.7868923531372376,72.95017580469934 2.508485287147152,72.91631548591877 2.2065641108538507,72.92384000104761 1.8726637445481742,72.95770031999636 1.487032335631483,73.02165869979687 1.2707025207858278,73.12323965630677 1.1672404354516746,73.20224706692558 1.0656594789417786,73.30382802343547 1.0007605345609627,73.37531091875725 0.8935361915222327,73.47312961789893 0.7129478243935289,73.58975960483471 0.4486492246414357,73.69510281910524 0.24266561832919584,73.75529894153753 0.20974586396075454,73.75906119890574 0.09499700562499527,73.72520088012517 0.014108466237991998,73.57094831648001 0.01787072388650666,73.51451445197654 0.02163298153502133,73.48065413319597 0.039503705309403975,73.40917123753782 0.04514709183823798,73.17967352120267 0.04420652742610931,72.95017580469934 0.03386031894875599,72.72067808819601 0.009405644177348668,72.49118037146843 0,72.25415813949988 0.014108466237991998,72.00208687727364 0.030098061188117312,71.93812849708071 0.1307384533419466,71.71239303811376 0.2934560965841438,71.49418209449992 0.518250991082895,71.26844663570115 0.7411647567573888,71.10666955692716 0.940564412128666,70.9486547355774 1.1324395522029138,70.75301733802284 1.3421854161636684,70.57995348602297 1.5481690223637843,70.3880783458366 1.7466281133229329,70.2225390095262 1.9714230078216841,70.04947515752635 2.183050000550634,69.88017356345532 2.3081450673637467,69.78987937994702 2.52447488215334,69.61681552817141 2.7520914698884766,69.45880070659742 2.7756055801916935,69.44375167617154 2.855553555334754,69.19168041355287 3.1104465109094988,69.26316330904284 3.362517773359981,69.28573685476574 3.7895340164663955,69.27445008210051 4.489313939146185,69.22177847496525 5.297258769108647,69.39108006903628 6.920672944442725,69.59800423981672 7.231999764913375,69.59047972451968 7.954353233372129,69.49642328330681 8.762298063390652,69.3158349161781 9.051051337970215,69.28197459739754 9.456434599541609,69.3158349161781 9.816670769386887,69.40612909963033 9.983150670389723,69.51523457160545 10.299180312808893,69.50771005630843 10.407345220259751,69.46632522189445 10.521153514183382,69.35721975025571 10.628377857053927,69.17286912536636 11.504043324801776,68.33388566997185 11.667701532456102,68.08557666511382 11.946108598446187,67.78459605328871 12.121053579102119,67.64163026270121 12.567821674863236,67.37827222702488 12.841525918792678,67.11115193420459 13.049390653873113,66.7951222917854 13.096418874479546,66.71987713853481 13.419032467839678,66.36998717716688 13.707785742363178,66.16306300655464 13.993717323650293,65.8846559405085 14.592856854232316,65.40308696155468 15.259717022375478,64.8613218603928 15.914349853217029,64.44747351883196 16.624475984374172,64.05996098125918 16.83798410598344,63.90194615990945 17.615830874757787,62.17506989929728 17.68919489890382,62.02081733565211 17.803003192771392,61.89666283336326 17.865080444027946,61.74241026954991 17.883891732270516,61.51667481080721 17.801122063947133,61.23826774487319 17.801122063947133,60.80560811501369 17.844388026961113,60.53096330667212 17.721174088916197,60.064443358536614 17.512368789479694,59.725840170170294 17.46628113322933,59.556538575762886 17.307325747579583,58.958339609705114 17.26688147785805,58.33380483999562 17.289455023749138,57.916194241066556 17.30262292551894,57.641549432724986 17.223615514900132,56.8853356454296 17.280989944096042,56.54297019958295 17.602662973044048,55.647552878900086 17.857555928786976,55.34281000953859 18.059777277282517,55.00796907876472 18.282691042957012,54.05235563621018 18.30996741090874,53.60464697586875 18.390855950351806,53.288617333281394 18.629759311032487,52.863482219223485 19.202563038018845,52.18627584237872 19.24488843667676,52.137366493004095 19.691656532437875,51.86648394219891 20.084812456595536,51.768665243449654 20.657616183581894,51.738567182373664 20.952012844578164,51.68589557529446 21.458036498359448,51.51283172346278 22.345929303352847,51.56550333059805 22.637504271168797,51.463922374088156 22.850071828309876,51.28333400695945 23.419113297591657,50.55721828074006 23.866821957764902,50.19227928855383 24.178148778235553,49.79347997797946 24.57130470244927,49.36458260599272 24.711448799912507,49.25171487642516 24.871344749974376,49.12003585906352 25.209947938284635,48.965783295418355 25.464840893971505,48.94697200706366 25.900322216787078,49.12379811643172 26.33016015318594,49.38715615205199 26.587874802109194,49.6693254756906 26.968803389021303,50.0831738167469 27.467302527393436,50.346531852198986 28.144508904182135,50.58355408416754 28.510388460444126,50.64375020643165 28.881911403234948,50.639987948895254 29.17160524222664,50.54969376521878 30.207166659924237,50.53464473462472 30.917292791081383,50.46316183952719 32.692137836768175,50.13584542405035 34.180110736811784,50.04555124054206 35.55333477846358,49.78219320492179 36.1853940634701,49.737046113251736 36.83438350778282,49.90258544961819 37.22847999652079,49.89129867672872 37.90380524437311,49.737046113251736 38.43334300840155,49.473688077967836 38.95253456395264,49.14637166254706 39.96646300017128,48.75885912463792 40.518574310090806,48.49550108935402 40.563721401929044,48.47292754323868 40.91267079882878,48.23590531143832 41.16097980357468,48.066603717367286 41.97268689124172,47.79948342415456 42.12129606835805,47.75057407494812 44.17172648679854,46.44507067080141 44.75769811566683,46.2832935920274 45.4151526396887,45.84687170457545 45.7791510671825,45.47064593972398 45.98325354461441,45.27124628446483 46.1619607828628,45.07560888691025 46.3848745485373,44.5902776501958 46.658578792466734,43.78515451341366 46.67739008076537,43.24715166956394 46.67174669423654,43.175668774298224 46.644470326284804,42.84082784335617 46.78931724575262,42.596281096426964 47.130742127355326,42.44955304807883 47.76468254113005,42.48717562456398 48.042149042708004,42.645190445801596 48.3440702190013,42.81449203987263 49.13038206759693,42.76934494820258 50.00886922852511,42.34044757644009 50.29480080981222,42.20124404338899 50.90710824205192,41.85511633972564 51.29556134426106,41.48265283246663 51.84955378300484,40.67376743786779 52.074348677559655,39.755776571854454 52.47691024595073,39.293018880918964 53.54633198248496,38.67224636913829 54.365563585449024,38.115432237158124 55.1095500354428,37.69405938030023 56.02848146614857,37.07704912588777 57.47789122523884,36.32083533881663 58.897202923141,35.58343283953957 60.54319064436616,34.65039294270793 60.80842980853039,34.499902636767345 62.357539395362366,33.040146669031536 63.78437560856155,32.1447293487411 66.02668116702023,31.12139526845724 66.79512229172934,30.636064031742787 67.16946692781262,30.180830856328573 67.73380557508982,29.823416379775743 68.47308920296689,29.680450588851876 68.92832237843716,29.687975104148904 69.29796419245979,29.721835423265848 69.82279913442758,29.9889557161422 71.66818651102403,30.54953210582695 72.34727401658093,30.432902118554807 72.87869290937756,30.49686049891593 73.34615342226157,30.60596597055467 73.77128853648766,30.835463687058002 74.45037604204457,31.298221377825307 75.32039812326357,31.986714527671676 75.58845898077631,32.25383482054803 76.83094456925434,32.6300605853995 78.18159506501505,32.97618828923103 79.65357836994035,32.94985248557931 80.21885758162966,32.9084676515017 81.18857949059039,32.84450927130877 81.7228200766234,32.65639638888304 82.07082890911101,32.53224188665024 82.55145732376482,32.219974501599275 82.89194164089933,31.9415674358895 82.99728485505774,31.79860164524594 83.33494747901194,31.3358439545347 83.6321658332446,30.959618189683233 83.65097712148717,30.937044643567898 83.77513162394422,30.77902982255453 84.42882389037364,29.71054865026424 84.81727699258278,28.73988617672321 85.25558000863474,27.90090272110444 85.433346682471,27.2048850564656 85.5480955407507,26.689455758394843 85.40701087893139,25.82037424175614 85.43522781129525,24.45843697293777 85.33082516160503,24.195078937653868 84.9480154458126,23.20936743351878 84.68653853924083,22.893337791099608 84.48243606180891,22.155935291822548 84.39496357148094,21.523876006984207 84.71663660042896,20.376387424075112 84.81163360605395,20.034021978340586 84.92356077115332,19.736803623939743 85.04959640232249,19.39820043579767 85.62804351583769,19.006925640296082 85.88199590705636,18.93544274486218 86.32312061634471,18.811288242573323 86.95141764364666,18.036263166811114 87.48001484326298,17.38539259361808 87.76782755343041,17.35153227466932 88.15910234881987,17.302622925462877 88.86828791556488,17.043027147547182 88.99620467561438,16.967781994689012 89.70727137118365,16.553933653464522 90.31581654588696,16.320673679256615 92.02670321149294,15.861678245857513 93.11023341432123,15.605844725870641 94.75998339319491,14.684091601928486 95.48421799053398,14.337963898265137 96.01939914097913,14.228858426458212 97.09164257086188,14.34172615585759 97.53558897333053,14.420733566644584 99.94625556161631,14.849630938631318 100.38832083531679,14.894778030245307 100.80028804782914,15.007645759644685 101.84337398087983,15.545648603438345 102.54409446791568,15.982070490722107 102.78770065065702,16.700661701476285 103.25422059907282,17.344007759540478 104.4948250587266,17.953493498655916 105.49652615758757,18.608126329385343 106.64683643373306,19.642747182726875 107.26478725244553,20.113029388791208 107.42938602456805,20.240946148784644 107.60621213404823,20.301142271216943 108.52044074258123,20.60964739833908 109.99524574079898,21.110027665591534 110.77685476733396,21.226657652919734 111.15684278983395,21.211608622325677 112.03438938634999,21.17774830354511 115.01315687956148,21.14765024213274 115.75620276508705,21.004684451545245 116.83785183903503,20.699941582127682 117.95994518276059,20.267281952268185 118.75566267542143,19.96253908307487 119.1535214216958,19.477207846360418 120.07809623881828,18.352292809230285 120.65466222345316,17.769142873766572 121.7682904874135,16.28305110254722 121.96769014278478,16.015930809502677 122.73519070308176,15.455354419986117 123.96450838978998,15.124275746916826 126.95456265594702,14.428258081941614 128.1208625269305,14.289054548890508 128.92504509935657,14.17242456195474 129.97283385452397,14.28153003359348 130.2615871289914,14.311628095005844 130.97453495332888,14.217571653792978 131.87371453132388,13.976787164231977 132.85002039111345,13.626897202864052 133.85454318326686,13.111467904961481 134.6907049457053,12.061798021194075 134.93807338609514,11.437263251484579 135.5748354930502,10.850351058092043 135.63691274425068,10.778868162994513 136.6263865058661,9.60504377643369 136.6517817449375,9.574945715357696 136.7834607626916,9.420693151936781 137.98644264580415,7.923314607827945 138.41345888891055,7.584711419125253 138.79720916905904,7.189674366087275 140.04251645066134,5.406364240635263 140.09424749338447,5.097859113513122 139.80549421886099,4.127196640364525 139.64747939762336,3.3183112457656856 138.9486400393557,1.9676607500049834 138.99378713119395,1.3694617837790277 139.2731347615401,1.0797679448433986 139.81960268498685,0.6207725120049196 140.31528013017865,0.3875125375727624 140.69997097473927,0.2069241704440585 140.8429367654389,0.17306385166348853 141.52108370658368,0.01881128801832529 141.60855619685557,0 141.6631089328151,0.02633580331535462 142.086362918273,0.2182109435017265 142.5914460075861,0.42513511428215706 142.9215841161872,0.6132479967078902 143.33731358634807,1.132439552146852 143.9486804542317,1.5650991815017903 144.04085576667637,1.8021214136945862 144.02486617161412,2.046668160623791 143.94962101864382,2.321312969133548 143.9872435952411,2.4605165021846522 144.04273689544456,2.5395239127473985 144.5299492609272,2.8931761315395907 144.72464609423784,3.077526756372871 144.91746179872422,3.3559338224750803 144.98424187198535,4.247588885229118 144.7933072963793,4.72539560659048 144.7434573825365,4.988753641874383 144.81399971344612,5.387552952448751 144.92686744290157,6.027136752920492 145.20809620207197,6.4898944436877954 145.6360530096466,6.83225988942232 145.72916888639125,6.881169239189383 145.76208864087184,6.888693754486412 146.3508819628083,7.039184060202751 146.6866634579943,7.148289532177862 146.9265073831432,7.302542095486653 147.06288922284577,7.5207530393247515 147.0704137381428,8.0625181406548 147.14001550458426,8.393596813892279 147.34223685319193,8.64943033387915 147.67237496184907,8.837543216304883 147.90939719376158,9.04070512915649 149.01267924913245,10.586993022639955 149.05594521209036,10.850351058092043 148.92708788762872,11.076086517058986 148.7455589560879,11.286772945543992 148.74085613408332,11.39587841740698 148.79634943434283,11.444787766781609 148.9205039367999,11.486172600691022 149.03054997301894,11.523795177400416Z"/></svg>