<svg xmlns="http://www.w3.org/2000/svg" width="256" height="256"><path d="M107.3678271397083,5.432462458337033 107.04787107879062,5.662543221516455 106.9867558760867,5.745627941229404 106.95999300956476,5.835103793579602 107.02110821226793,6.001273233338823 107.05625943989115,6.256918525733948 107.05306387373994,6.653168728339267 107.05306387373994,6.678733257745441 106.99274756262163,6.758622411544516 106.6448302978743,7.03663666662244 106.60648350400311,7.081374592940392 106.3392542845452,7.50638489105623 106.26655515458805,7.64059866953391 106.05684612586549,7.944177453875156 105.99093757398124,8.155084819809476 105.96737027361053,8.37557888429492 105.94300408179704,8.46185917039792 105.89786670980533,8.551335022748118 105.76964461800543,8.711113330346267 105.72530613759933,8.794198050202068 105.70413551184258,8.877282770105488 105.71771666798841,8.957171923904562 105.89347280634638,9.20323051760571 105.9597808039996,9.324662031618391 105.96577249058215,9.532373831495983 105.94060740708784,9.615458551351784 105.79640748452812,9.839148182084427 105.77284018415739,9.919037335883502 105.76964461800543,10.043664415810056 105.78482355717964,10.216224988063674 105.85073210906387,10.382394427822895 105.91704010671711,10.468674713925896 105.99652981474718,10.558150566276094 106.36002546453297,10.896880578241314 106.41315175180935,10.973574165936043 106.43152625723076,11.09500567985349 106.3927800175906,11.174894833652562 106.29571469577233,11.309108611844536 106.22860780658111,11.392193331890809 106.04526219861224,11.68618541768093 106.0216948982415,11.724532211552104 105.95818302092363,11.855550423830202 105.97655752629741,11.976981937557177 106.0224937897795,12.063262223660178 106.09359513661306,12.149542509763178 106.1507158815794,12.232627229666598 106.17588096507372,12.354058743679278 106.0752206312869,12.555379411252945 106.0208960066559,12.67681092497992 105.83755039868703,12.922869518538214 105.81917589336086,12.964411878466114 105.73369449874824,13.386226610620461 105.69175269300372,13.820823607239806 105.67577486229152,13.990188613246225 105.60627129848632,14.156358053148299 105.53676773468113,14.242638339251299 105.26434572017867,14.405612213239499 105.11215688219143,14.523848160909745 105.06662006457432,14.60373731470882 105.06662006457432,14.648475240693449 105.10856187027048,14.77310232052477 105.11215688219143,14.852991474323842 105.029871053826,15.01276978192199 104.90005117890252,15.220481581942437 104.85731048162,15.348304227830484 104.85890826464836,15.434584513933483 104.88846725155403,15.524060366426536 104.98313589885355,15.690229806185757 105.03306661997722,15.862790378391756 105.03905830646528,15.904332738319656 104.99791539225876,15.990613024613127 104.71231166742781,16.278213978099323 104.57849733481288,16.441187852087523 104.45626692950104,16.693637577949744 104.30287975420681,16.94289173770762 104.20821110700253,17.11225674371404 104.10355631547813,17.326359676181262 104.0104854513022,17.450986755964966 103.96175306753238,17.54046260817231 103.72887618420809,17.91434384809483 103.71209946191028,17.955886207879878 103.64539201848805,18.115664515478027 103.56390508156612,18.3713098077303 103.3470060290009,18.78673340758072 103.25473405636296,18.949707281092742 103.13849533758531,19.192570308880015 103.09974909804038,19.317197388854186 103.02625107654524,19.607993908539964 102.7973686509585,19.847661369937185 102.66834766747776,20.176804683541754 102.6399870179267,20.3397785573871 102.63079976523981,20.384516483562198 102.54771504533565,20.640161775624 102.45384528957486,20.803135649326492 102.40391456845119,20.927762729300667 102.35757885924698,21.189799153856864 102.36956223226922,21.234537080031963 102.45744030149582,21.39431538763011 102.55290784023809,21.653156245796257 102.5796707067608,21.777783325770432 102.6048357902075,22.033428618022704 102.60803135635871,22.07816654400733 102.61482193443238,22.330616270060023 102.54531837062719,22.490394577658172 102.45983697606218,22.70449750964922 102.34160102843954,22.8259290236619 102.23215288773481,22.873862515941344 102.0687795682157,22.899427045157047 101.95733419871362,22.95055610335037 101.92018574214943,22.995294029525468 101.88583340601583,23.15187677120974 101.83390545604644,23.23815705731274 101.78796919265959,23.276503850993443 101.68411329267317,23.31165507880789 101.42766910897814,23.372370835504714 101.32740822096031,23.442673290895517 101.20917227338529,23.560909238422912 100.95272808969027,23.81016339837126 100.79374867358248,23.87407472131528 100.75500243398994,23.915617081386035 100.64195928136425,24.126524447320357 100.62198699291523,24.168066807438727 100.49536268414295,24.37577860712585 100.29364257084791,24.577099274937602 100.22334011550471,24.660183994841024 100.02122055644068,24.982936176236898 99.85704834533597,25.184256843810566 99.75838524034648,25.391968643497687 99.67370273731947,25.564529215703686 99.62417146201166,25.73069865560576 99.62776647393262,25.813783375509182 99.65612712348367,25.979952815411256 99.61098975163482,26.06303753560038 99.48276765973968,26.219620276808477 99.37371896480394,26.277140467591426 99.26986306486515,26.35383405547663 99.18677834491412,26.47526556906075 99.13245372042599,26.59989264903492 99.12646203379582,26.762866522689798 99.0545617953759,27.008925116390945 98.9207474627632,27.386001922560663 98.90876408974096,27.430739848545294 98.80091373206385,27.71514523597476 98.7741508655419,27.839772315948935 98.77295252833015,28.00274618979428 98.64313265340665,28.2424136511915 98.53767897029664,28.44373431871755 98.50252774267267,28.677010647810846 98.48734880340322,28.772877632464972 98.46338205735948,28.868744616928623 98.38109622885045,29.034914056830697 98.3259727127767,29.09882537996519 98.24887967931299,29.14356330614029 98.04276566255899,29.35766623813134 97.95808315948436,29.48548888416224 97.74118410691987,29.77948097014283 97.67927001272558,29.907303616316586 97.52827951204534,30.19810013604998 97.48234324861087,30.322727216024155 97.41763303408123,30.571981375972502 97.33055385644025,30.747737514425697 97.25346082297652,30.827626668224774 97.14401268231941,30.88834242506445 97.03256731272208,30.92668921864992 96.80688045323896,30.974622711167452 96.58998140067521,31.012969504752917 96.36229731239547,31.10244535724597 96.11504038133972,31.17913894465499 95.91411915953431,31.28778819405982 95.6696583489575,31.44117536921119 95.61493427855751,31.485913295243435 95.55302018441085,31.521064523010264 95.50269001746982,31.55621575063424 95.17514448689361,31.74475415369529 95.00697781819417,31.862990101222685 94.66425334839614,32.17296001815356 94.33151502282301,32.419018611902324 94.14577274024016,32.59157918396547 93.97081549337257,32.75455305762035 93.95803322876472,32.79609541773872 93.79306212621725,33.003807217425845 93.41278975413366,33.451186478938745 93.18151065383772,33.722809601617506 93.08284754889587,33.86021894619953 91.17948845968054,35.43243749310816 89.8976669869744,36.44543196308995 89.77543658170943,36.669121593774975 89.74427981168017,36.902397922868275 89.74028535394261,37.2571057658314 89.86930633732811,37.755614085585236 90.01909850070138,38.017650510141436 90.13653555678528,38.132690891564486 90.2747437929529,38.28927363277258 90.47806168927706,38.44905194037073 90.58790927575077,38.4873987342419 90.77245322102664,38.519354395952 90.96258940711606,38.51615882956195 91.22382693999141,38.474616469776905 91.43393541448297,38.45544307281751 91.64604111786713,38.3883361836739 91.96439939570882,38.30844702987483 92.48967058193774,38.19979778075571 92.68739623763732,38.15186428833341 92.81961278712791,38.13588645762121 93.1020209458069,38.08795296524653 93.4075969590891,38.078366266981114 93.80744217385346,38.142277589925136 94.26400868781518,38.26051353745253 94.51246395613029,38.31803372837834 94.77410093486988,38.3563805219638 95.25583253223067,38.43626967576288 95.5674002321423,38.442660808066805 95.78509817614955,38.41390071274675 95.92730086991189,38.36916278657166 96.14020546478568,38.31803372837834 96.3423250239457,38.241340140683604 96.54244735421238,38.12310419287051 96.86240341513006,38.04001947315756 96.90913857010177,38.03043277460643 98.7565752517061,38.59285241725668 98.97746876196054,38.68232826946402 99.1875772364521,38.80375978347671 99.60739473971385,39.005080451050375 99.71404676003561,39.07218734005112 100.11668809518295,39.36937499242177 100.47459150415519,39.67934490906694 100.58004518721758,39.746451798258164 101.19399333411585,40.158679831861384 101.41608518167727,40.27691577953163 101.61900363242216,40.41432512411365 102.3475927150221,40.5868856961768 102.67274157093671,40.6444058868169 103.0881651706919,40.698730511495505 103.73167230459106,40.69233937919158 104.15268814506456,40.65399258551088 104.56851119058874,40.59327682833788 104.77262797854537,40.574103431711805 104.977943103809,40.55173446855283 105.60187739497975,40.452671917794355 105.8323576037377,40.31845813945953 106.1383330627889,40.29289361019621 106.53937661481189,40.11713747193348 107.0570583314775,39.85190548113009 107.57074559045317,39.666562644459084 107.8847099647883,39.55471782894991 108.19308209850034,39.47482867515084 108.27936238460335,39.385352822943496 108.29933467305311,39.19042328772137 108.44033902946086,39.126511964634496 108.83658923230426,38.890040069627325 109.2400294589896,38.68552383585408 109.95064348207997,38.353184955859454 110.14836913768507,38.27968693455478 110.25142614608586,38.28288250046865 110.35368426294868,38.337207125337734 110.41120445368476,38.34679382355553 110.4815069090272,38.40750958044283 110.62810350624851,38.50337656509695 110.82942417386978,38.64717704184005 111.10424286289098,38.861279974116805 111.37227097388687,39.03064498012322 111.72498158800502,39.27989914007157 112.18234699340948,39.54513113054164 112.75435333461085,39.84551434882616 113.0483454205922,39.97014142894319 113.36510591545165,40.07879067806231 113.7429816128744,40.15228869955746 113.7881189848185,40.161875398060964 114.21952041528587,40.15548426575704 114.42643332362547,40.133115302598064 114.73280822844492,40.043639450438334 114.83346856227938,39.989314825712114 115.11427893783551,39.76242962906559 115.21294204282498,39.73366953360269 115.41745827650298,39.83912321666509 115.5221130680274,39.82634095205724 115.58322827063607,39.746451798258164 115.60999113715876,39.513175469164864 115.69387474864779,39.35020159531952 115.90997490967428,39.11372970016949 116.16362297298635,38.86447554022115 116.32459961793909,38.7078927988702 116.83628964797454,38.32122929448268 117.03561308670324,38.18062438365346 117.2333387424043,38.10393079610158 117.33399907614277,38.09753966394051 117.4027037484576,38.126299759260554 117.58525046484087,38.38514061742671 117.74542821825563,38.704697232623 117.87524809317912,38.762217423263095 118.39532648441109,38.75582629095917 118.81434509608648,38.80056421727713 118.91540487559544,38.81973761404605 119.22657312964284,38.94116912791588 119.36198524533226,38.96353809107485 119.40911984607372,38.9699292234264 119.5916665625046,38.88364893727578 120.29708779055044,38.461834205121434 120.6102532734428,38.337207125337734 121.11794884588353,38.25412240514861 121.22100585428434,38.215775611420284 121.31647339302661,38.11990862695663 121.45468162914663,38.225362309828554 121.75107038978881,38.53213666055986 121.89606920383889,38.832519878653905 122.00511789877463,38.989102620195325 122.16689343526538,39.21918338304142 122.43052764275545,39.666562644459084 122.84954625452608,40.06920397951119 123.38480358493226,40.43669408712978 123.70036574239099,40.58369012992961 124.39500193467468,40.67316598213695 127.00937449279624,40.74985956983168 127.27660371225414,40.75625070232608 127.39883411756674,40.8169664590229 127.73996080424041,40.99272259733325 128.7861092732393,41.529577710910644 130.27883811202335,42.18466877215828 131.73561683150186,42.82058643630368 133.50396325089196,43.645042503700594 135.64179700660281,44.8274019796888 136.1011596409475,45.04150491215602 136.34961490921424,45.12778519825902 136.42511015950748,45.11180736740397 136.5273682763703,45.07985170569387 136.68155434320252,44.990375853677 136.7862091347262,44.8977044350796 137.02427881300054,44.78905518610333 137.18086155444672,44.66762367209065 137.2871141289995,44.616494613754476 137.39256781206188,44.619690180001676 137.49921983243127,44.65484140762565 137.5559411315334,44.66762367209065 137.72091223412846,44.689992635249624 137.7720412926075,44.705970466104674 137.9278251425157,44.907291133487874 137.9773564178711,44.94883349370148 138.42633346217428,45.34827926269685 138.57892174593053,45.62948908406959 138.64602863512175,46.00656589004884 138.67279150164444,46.04810824983389 139.04986830762368,46.00656589004884 139.16011533986642,45.987392493089445 139.2699629263409,45.95863239748369 139.49365255692993,45.85956984691569 139.57074559034604,45.750920597796565 139.67380259874685,45.68381370846249 139.98217473245887,45.469710776471445 140.18828874926123,45.36106152735232 140.39000886255553,45.30034577032217 140.49386476254196,45.32271473348115 140.65564029893747,45.47610190877537 141.3207175043155,46.025739286674906 141.62549462605895,46.24623335144606 141.70418544255105,46.32292693885508 141.79885408985058,46.39962052674028 142.12080737961247,46.60094119426633 142.6500730235321,46.86617318487926 142.85938260648493,46.96204016924767 143.10663953749304,47.0451248894368 143.54483154608172,47.22727216005107 144.91013718450714,48.04533709481073 150.88145198521894,52.40408932613583 152.24915429825907,53.401105965548275 150.25911547712414,55.61882887486772 150.93497771826506,57.10157156942615 153.7930121954738,61.95563655440074 154.1457228094967,62.821634981535084 154.65861117688678,63.89214964234744 154.9565977205097,64.6111520265391 155.0420791150747,64.75495250342506 156.3554568035791,65.1032692139414 156.38661357351313,65.11285591249253 156.72933804331115,65.20233176484273 157.4059991759893,65.54745290911187 158.4441587296083,65.86381395820382 159.3664790102186,66.11945925045609 160.33313777123576,66.35593114565374 161.34333612097666,66.45818926261178 162.62915205137276,66.42942916714888 164.62198699289067,66.4390158656524 166.76581243508883,66.65950992999498 168.3324387411363,66.81928823759313 169.19843716831824,66.82248380379271 169.74128396833532,66.90237295759178 170.4950381344296,67.05895569899036 171.11497796795803,67.1612138159484 171.63106190150006,67.28903646183645 172.0057420327701,67.4328369387224 172.5929273132409,67.63415760643892 172.6867970689548,67.7523935539187 172.76628677698488,67.91856299401124 172.78865574000176,68.12307922773687 172.874137134566,68.34996442438339 172.95202905952013,68.42665801212574 173.0570832967659,68.50015603357326 173.2152638213357,68.57684962117276 173.47889802887263,68.61200084879674 173.58035725414985,68.65354320886749 173.63228520416686,68.67591217202646 173.70778045450697,68.75260575962596 173.74373057366896,68.87084170710574 173.73214664641569,69.04020671311216 173.7313477548777,69.12329143330128 173.7461272482829,69.16483379308633 173.8987155321344,69.36615446061238 173.92827451899242,69.4492391808015 173.9574340601291,69.5323239006573 173.98100136049982,69.57067069438563 174.12560072882852,69.68571107580867 174.2833818075817,69.75281796499989 174.33251363716812,69.79116475901392 174.3848410329065,69.8231204203907 174.58895782086316,70.06278788178791 174.63848909621856,70.1011346756591 174.74234499615736,70.10752580796301 174.90132441221752,70.09154797725083 175.0095742156629,70.09474354335516 175.1118323324781,70.142677035587 175.15297524673224,70.18421939570537 175.1905231489702,70.26410854950444 175.22727215971776,70.30245534318514 175.33272584278015,70.33441100475238 175.54722822068302,70.37275779876641 175.65028522908383,70.40790902639039 175.70141428751526,70.43666912171044 175.8739748597205,70.67633658310766 175.96025514582425,70.82972375840188 176.20511540226602,71.02145772737681 176.46954850129336,71.18443160122216 176.5326609327946,71.26432075502123 176.6021644965998,71.38255670269147 176.6908414573644,71.45925029024335 176.84822309030096,71.53913944404242 176.9548751106227,71.59985520107257 177.05034264945948,71.6765487884816 177.1130556351925,71.7532423763668 177.12743568287635,71.83313153016587 177.1130556351925,71.91621624987881 177.08269775670124,72.0376477638915 176.99641747059823,72.24535956376909 176.95727178528432,72.32524871756817 176.94289173755286,72.36679107735321 176.9564728936987,72.53296051725529 176.97644518214847,72.57130731112646 177.11904732167983,72.72469448656354 177.24607107622035,72.84293043423378 177.40185492612855,72.94199298480179 177.5009174768394,73.09857572615273 177.5520465352708,73.26474516605481 177.56123378795695,73.5139993258603 177.5636304626669,73.67377763345844 177.60157781062622,73.79520914747113 177.61236284643672,73.91344509485567 177.598781690244,74.16269925494687 177.58400219679044,74.24258840874595 177.52847923490006,74.32247756254502 177.44659285230364,74.40556228240082 177.42901723842022,74.4854514361999 177.46057345417086,74.72831446370147 177.47894795954466,74.92643956531363 177.46816292378176,75.0446755127934 177.4374055995684,75.12456466659249 177.3954637938246,75.24280061411987 177.32835690463338,75.32268976791896 177.27802673773996,75.40577448810808 177.2412777269924,75.44731684789312 177.15260076627544,75.52401043558785 177.06592103440343,75.59750845694015 176.9396961714009,75.76687346308942 176.88337431802017,75.92665177068757 176.84822309030096,76.08643007828572 176.84063362073766,76.33248867198687 176.84822309030096,76.57215613338408 176.8717903906717,76.61369849331199 176.92531612371707,76.64884972107882 177.02677534909026,76.68080538250321 177.3451336269312,76.75430340399836 177.39786046843858,76.78625906570846 177.43540837072342,76.82460585953201 177.47175793570273,76.90769057943544 177.54605484878348,77.06427332092923 177.67667361524497,77.2208560623278 177.78132840667413,77.28796295147141 177.83245746515317,77.31672304698193 177.85282919937194,77.35506984051977 177.87599705397366,77.67462645571608 177.86041866893524,77.75132004360127 177.84084582625445,77.83120919740034 177.77813284052218,77.94944514502298 177.77973062364578,77.9909875049985 177.85961977744486,78.07087665879757 177.91034939005965,78.09644118787043 178.01620251889105,78.15715694490056 178.10647726263636,78.23704609869965 178.19635256066033,78.3552820463699 178.22031930680006,78.43517120016897 178.23070489679392,78.55979827995267 178.11087116609534,78.84100810146826 178.0437642769041,78.96243961505239 177.9842468573238,79.24684500262471 177.90955049856927,79.37147208259887 177.759758335196,79.48331689777473 177.6934503375904,79.5632060515738 177.6423212791121,79.64629077162007 177.50491193452936,79.84441587304178 177.41303940770803,80.00419418063993 177.4046510465115,80.04573654061545 177.40624882963436,80.16397248823807 177.4374055995684,80.24066607583757 177.5252836687481,80.3173596635323 177.6886569882672,80.4228133465947 177.74457939592656,80.44837787566755 177.79810512897194,80.48033353723478 177.97905406237447,80.63372071267186 178.1819725130241,80.78710788796609 178.33456079673275,80.89895270328479 178.5446692712719,81.02357978297326 178.71123815694298,81.10027337085846 179.07673103552614,81.2824206414251 179.12786009400514,81.31118073693563 179.21653705467452,81.38467875838316 179.25408495700768,81.42622111835868 179.3587397484376,81.4773501768377 179.5205152849276,81.5156969705184 179.573242126435,81.55404376424673 179.68069303834235,81.67227971205983 179.81730349124354,81.78412452737852 179.9778806903797,81.93751170267275 180.11209446876214,82.05255208395295 180.1831958156909,82.13244123775202 180.30782289556987,82.33695747166813 180.3305913044026,82.45519341905266 180.36933754404276,82.65331852066484 180.40089375974503,82.69166531434554 180.55667760965397,82.74279437296742 180.61060278846836,82.77475003424895 180.65334348575087,82.80990126201579 180.68729637611546,82.89618154826164 180.68929360505567,82.97926626816506 180.6161950292343,83.10389334813924 180.5986194154461,83.18378250193831 180.62058893269324,83.21893372956228 180.64735179921593,83.26047608934734 180.64295789575698,83.37871203716043 180.5391019958658,83.50014355074455 180.49476351545968,83.58322827093367 180.47319344393395,83.6599218583427 180.48038346777585,83.70146421855631 180.5526831520109,83.78135337235538 180.60461110193341,83.81011346753257 180.7076681103335,83.8356779967959 180.8155184680106,83.88680705527493 181.02762417134713,83.98586960584292 181.08474491631347,84.06256319372812 181.17501966010641,84.13606121522326 181.2001847435055,84.21914593493622 181.20098363509112,84.2990350887353 181.16822908203426,84.54189811652256 181.1155022404785,84.62178727032163 180.88861704373676,84.87423699618385 180.70407309841326,85.03721086998159 180.65334348575087,85.06277539910205 180.49995631045664,85.22574927309026 180.38331814591072,85.4270699406163 180.3657425321218,85.51015466047211 180.30462732941865,85.63478174030342 180.25429716252447,85.83929797407667 180.2199448264861,85.92238269412294 180.1923830683778,86.04381420784992 180.28465504096812,86.25152600782275 180.32380072632967,86.45923780770035 180.41447491589162,86.6637540414736 180.46280785398767,86.7404476288826 180.47399233547193,86.86187914260958 180.55188426047366,87.07598207493396 180.62618117345917,87.18782689025267 180.69089138803642,87.44027661630535 180.71525757999277,87.47862340998606 180.75040880761674,87.51697020385723 180.91218434410746,87.58407709319131 181.00006241323882,87.6671618130471 181.01404301515367,87.70550860677542 181.0192358101506,87.82694012064525 181.00685299131175,87.9579583327805 180.99726629285587,88.07938984669795 180.96571007710523,88.19762579417772 181.2696883073107,88.41492429270167 181.38712536344298,88.57150703410024 181.44544444566867,88.73448090789798 181.63158617402053,88.9741483692952 181.66274294400216,89.05723308905576 181.7378387486685,89.22020696304396 181.83849908236087,89.37998527064211 181.86965585234177,89.42152763057001 181.98349789655305,89.57491480586422 181.9942829322683,89.61326159968779 181.9531400181094,89.77623547324743 181.87884310502864,89.98394727322025 181.8333062874108,90.06383642701933 181.72945038742438,90.18846350685065 181.67951966629997,90.44091323285572 181.72385814670608,90.60069154045387 181.75541436240908,90.84355456795544 181.77059330167853,90.87231466341834 181.8057445293025,90.91705258959344 181.81573067352738,90.95539938346461 181.81932568544835,90.99374617714531 181.8341051789488,91.03209297101648 181.87045474392735,91.07043976488767 182.0318308345539,91.12476438956627 182.08655490495312,91.15352448474346 182.18961191335467,91.22702250623861 182.24074097173846,91.25897816794871 182.44845277161605,91.45390770302798 182.48280510779728,91.53379685682705 182.5495125512195,91.65203280464016 182.797568373718,91.9683938534464 182.82792625216166,92.04828300724547 182.84789854061142,92.12817216104455 182.91260875523628,92.24960367505723 183.08756600200863,92.40299085035144 183.14029284351528,92.42216424731085 183.19461746814702,92.43814207783257 183.2984733680858,92.68100510533414 183.33122792114344,92.80882775165074 183.35639300454253,92.93665039772927 183.37916141337527,93.06127747770344 183.37996030491325,93.22744691746266 183.35399632992855,93.35207399743683 183.31964399379495,93.47989664332488 183.2481432011924,93.64606608322696 183.22976869577099,93.68760844344055 183.15706956581383,93.81862665557581 183.0671942677899,93.90171137547922 183.59366379132578,93.95603600001498 183.81455730162784,94.03592515381405 183.86169190232167,94.05190298452625 183.86328968539766,94.09664091070135 183.86249079385965,94.21487685851444 183.82973624080205,94.4577398859684 183.83812460199857,94.63349602427874 183.86648525154962,94.75173197194898 183.98232452455827,94.94985707341831 183.99231066878315,95.11283094707319 183.91521763536704,95.27580482091854 183.8916503349963,95.35888954091719 183.89604423845526,95.39723633450265 184.03824693221762,95.55381907599646 184.07020259378487,95.6432949282038 184.47044725431823,96.22808353420349 184.91463094939346,96.99501941048413 184.9805395012777,96.97904157977194 185.0308696681711,96.95667261689867 185.08279761818812,96.92471695537904 185.20502802345234,96.80008987540486 185.3088839234395,96.73617855246084 185.48144449564552,96.54124901704824 185.72550586050167,96.30477712175538 185.76904544927456,96.2664303278842 185.89966421573604,96.237670232707 186.24718203480964,96.10345645422932 187.05046747630695,95.94048258038397 187.46189661827694,95.9085269190072 187.87412465188015,95.9500692789351 188.18808902635814,95.98522050655907 188.23921808474194,96.0075894695752 188.40179251277067,96.04274069719918 188.50325173804788,96.04593626358923 188.7253435856093,96.08428305741278 188.78286377634464,96.09067418976433 188.9498321077847,96.09067418976433 189.00096116626372,96.07789192510886 189.1056159576929,96.02037173418304 189.14396275156406,95.98202494045474 189.17591841303607,95.90213578665566 189.19868682186882,95.8637889928321 189.35087565985603,95.74555304516186 189.51664565403675,95.63370822979553 189.67762229889425,95.56340577440473 189.7347430438606,95.53784124547474 190.21287962934807,95.27580482091854 190.30075769852704,95.24065359329455 190.82363221014197,94.97222603657728 191.22227908759936,94.82203442719694 191.47632659668116,94.76451423641399 191.81785272917145,94.72616744282853 192.03075732404523,94.7069940457739 192.3918562992654,94.7069940457739 192.68824505985998,94.70060291346996 193.53267341546857,94.81883886128307 194.57083296908755,95.22148019619232 194.79532149131055,95.29497821768746 194.854838910844,95.36847623918261 194.96029259385801,95.4419742608206 195.06494738538242,95.4867121869957 195.37491730212284,95.51866784851534 195.4292419266586,95.51866784851534 195.5834279934908,95.52186341461969 195.6880827850152,95.55062350993973 195.7903409018304,95.61773039927381 195.81031319028017,95.63690379589988 195.87821897110462,95.63690379589988 197.33260101596915,95.55062350993973 199.67974435453831,94.84759895660311 201.87949220444418,94.35548176901035 203.00792650185537,94.07746751393242 205.40779668197956,93.82182222168015 206.53463319626786,93.61411042199303 207.9135199908399,94.79646989812409 209.19773813816,95.73596634675359 210.0002246880717,96.59557364148877 210.67608692921186,97.65330603793136 210.58261661926696,99.29263147403121 211.1913719712159,101.22594899573072 211.33557189387085,101.93856024761845 211.60040443866714,102.462633096588 211.89759209079972,103.12411528999671 212.3373818824636,103.65777483751738 212.47079676935567,103.74725068981996 212.70447254421796,103.82074871117226 212.86345196027813,103.85589993879623 213.15664515472074,103.9357890925953 213.45063724065372,103.99011371732153 213.72984983322908,104.03485164349662 213.8317085042753,104.07319843732019 214.03462695492493,104.12113192959963 214.64378175264287,104.447079676957 215.76103156852292,105.87869331317926 215.88246308229677,107.44771629369784 216.0837837498712,108.70676935766647 216.789604423686,110.05210270750003 217.4910311940895,112.1739586323082 217.65999675432693,112.72998714279737 217.640823357462,113.03676149338581 216.95137996017675,114.4044638065212 217.91044925153463,116.39530151919412 219.14353834037573,118.14327620422263 219.1639100745945,118.98690566838847 219.1219682688976,119.64838786194004 218.90506921633312,120.88507196279733 218.89508307210824,121.63922557461296 218.77924379909956,122.52759296490628 218.1469211467799,123.60130319196584 218.15690729100479,123.89529527775596 219.41596035483056,123.91127310861101 222.65466664984504,123.93683763782671 221.85218010002856,124.72933804337067 221.29055934872585,125.48668722143351 221.2026812795945,125.55059854452038 221.60891762666276,127.28259539902717 221.87814407496563,127.50308946332214 220.70257517681227,130.44301032336617 219.71993858503603,132.3092209560649 219.20305575995604,133.44684250602086 218.1788768082519,134.7506334961646 216.70931582421318,136.3899589321216 215.99990013842978,137.98774200810308 215.6288150189847,139.2723596011922 215.66316735516668,139.42255121009637 215.67634906554278,139.6078940471007 215.56170812979423,140.1767048221977 215.4814195302269,140.4834791726433 215.40991873762363,140.67840870786543 215.3340240415145,140.92127173550986 215.24334985190418,141.093832307573 215.1602651320015,141.49327807656837 214.87665863596717,142.9728252051653 214.75602601373058,143.59596060470284 214.5135624319504,144.80708017634444 213.99268514922804,148.07614434980255 213.85128134695606,149.91679045323798 213.37713921920619,153.1762679282878 213.30404064352766,153.3328506698292 212.89181260982917,158.19011122057483 212.7092658933983,158.42977868197207 211.72583041017933,159.7112007091473 209.11824843012994,163.16241215317206 200.21739835960534,176.2035176193805 199.98811648825037,176.40483828676372 199.95016914014818,176.44318508077774 199.55591616619736,176.9097377389167 199.006278788059,177.6159578583577 198.41230292951602,178.3573292057083 198.27489358507685,178.4947385501475 197.95493752406392,178.9485089438691 197.95413863252594,179.0028335685477 197.90141179101855,180.27466889688608 197.810737601409,181.1662318534266 197.76560022960774,182.07696820649798 197.58305351308164,183.47343061509625 197.48159428780443,183.87607195029122 197.4807953962188,183.98791676551468 197.23034289905945,184.60466103274828 196.88961565815328,185.0648225587738 196.57285516333997,185.49622398914596 196.48058319070202,185.6591978629913 196.20736228470918,186.00112344134658 195.17799053800812,187.05566027139912 194.0771179986569,187.8130094493191 193.82426882688281,187.9855700215251 193.47754989939483,188.2476064460813 193.00820112082528,188.88032854402712 192.88437293238982,189.12638713787112 192.8080787905586,189.3309033715015 192.81486936863152,189.4619215837796 192.82165994670368,189.5450063038259 192.85441449971444,189.75591366990307 192.89595685968996,189.84858508816714 192.93110808740917,189.94445207282126 192.94708591812136,190.0403190574754 193.01099724120823,190.20009736507353 193.06691964881998,190.35987567267168 193.0896880576527,190.66025889076573 193.10366865956755,190.75612587527698 193.0912858407763,190.84560172777003 193.06292519113,190.94146871209085 193.066120757282,191.06609579220788 193.0988753103396,191.3249366505645 193.09647863572562,191.53903958255555 193.1232415022483,191.67964449338476 193.11405424956143,191.80427157335893 193.14401268223608,191.93528978549418 193.12963263455225,192.09826365914904 193.1555966095362,192.21969517287602 193.19953564412643,192.35071338529698 193.24227634140968,192.3794734804742 193.3501266990377,192.45616706821653 193.47395488747387,192.64150990503038 193.53347230700658,192.77252811716562 193.53347230700658,192.8204616095879 193.5051116574079,192.9099374618905 193.53626842738953,193.085693600058 193.60297587081175,193.31896992915128 193.74238244419115,193.5586373905485 193.8158804656863,193.65130880895543 193.94649923219464,193.7791314551768 194.05554792708352,193.9229319319199 194.1434259963101,194.03158118103903 194.2924192680985,194.22331515034728 194.36951230156149,194.3415510979699 194.3755039880488,194.4278313840729 194.36192283190297,194.4725693099623 194.3243749296174,194.62276091934265 194.2640586184991,194.98385989446683 194.25726804042617,195.07972687912095 194.19974784973846,195.28104754650417 194.17098775432316,195.47917264811633 194.1753816577821,195.7827514324576 194.1677921881712,195.81151152777764 194.15780604394632,195.93613860775181 194.17618054936773,195.9904632321447 194.2129295601153,196.07354795233383 194.1969517293555,196.23652182598872 194.1602027186079,196.27167305380314 194.1030819736416,196.28765088432488 193.7815281295527,196.5432961764343 193.73119796275452,196.61998976431948 193.6800689042755,196.70946561633636 193.56223240237424,196.8916128870935 193.34093944639915,197.18560497321693 193.0729113353549,197.50835715432711 192.94628702658338,197.6393753666052 192.8492217047175,197.70967782218648 192.57440301564867,197.79595810828948 192.3810712634549,197.86945612978462 192.13381433244678,198.00047434187226 191.85979453496358,198.12190585564684 191.72917576845447,198.20818614174985 191.51986618554778,198.3264220894201 191.12681154880946,198.49259152932217 190.46413101804615,198.73865012302332 189.87015515955002,199.0262510765095 189.54021295440748,199.18602938410766 189.17352173846973,199.384154485577 188.89271136281835,199.58227958718916 188.4848772327217,199.83472931305138 188.3063249739339,199.9433785621705 187.89569472345428,200.22458838349561 187.78265157082785,200.29808640499078 187.59770817973538,200.3843666910938 187.2677659745452,200.51858046961908 186.91904981821224,200.66238094636216 186.78004269064945,200.7135100048412 186.58071925192078,200.79339915864026 186.37380634358118,200.87967944474326 186.09139818490144,200.98513312794853 185.91404426341987,201.05863114939604 185.66838511553536,201.18964936153128 185.50101733827867,201.3142764413626 184.83394290405639,201.60187739518213 184.56591479305976,201.72650447496585 184.3098700551821,201.82556702586714 183.9459749595797,201.97575863477132 183.8772702873601,202.00771429648142 183.58527543027137,202.15790590552845 183.40512538840758,202.29211968405374 183.2908838984273,202.43911572685357 183.1862291069505,202.60848073286 183.06080313548594,202.74589007744203 182.96174058482347,202.88329942202404 182.8770580817481,203.10698905270908 182.99529402941832,203.81001360623617 183.07917764090735,204.0592677658512 183.16306125234877,204.41717117491865 183.18303354079853,204.59931844567578 183.06160202707156,204.85496373792805 182.8938348040459,205.11380459609418 182.7220731234255,205.29275630074696 182.57228096005147,205.46531687300057 182.21557588829174,205.74013556202178 182.0378225210888,205.88393603862204 181.73624096549804,206.07567000793028 181.57806044107036,206.18751482310614 181.49936962448305,206.24503501403194 181.19099749086624,206.47511577692566 180.93974610211978,206.6189162538116 180.68250302693588,206.7595211643075 180.52312416505836,206.85858371520882 179.96030507663912,207.26761618256484 179.68708417059867,207.48491468099357 179.22412652433303,207.7341688406086 178.81709128567914,207.90672941295745 178.57223102938022,208.0665077205556 178.34374804941962,208.2071126310991 177.97585849622251,208.42121556356634 177.40784661266272,208.66407859087744 177.29400456859503,208.70881651705253 177.0511415409506,208.77272783999655 176.79709403191717,208.86539925854632 176.74117162425782,208.88137708940138 176.6465029769583,208.96126624320044 176.50589806627193,209.04754652930345 176.21430265495292,209.19773813839808 175.9059305213361,209.35751644599625 175.78010510400733,209.4054499380852 175.60954176069393,209.48853465827435 175.22647326822738,209.7026375902654 174.96283906069044,209.80809127347064 174.59894396508804,209.9327183534448 174.3712598768083,210.00621637489235 174.25582004952102,210.04136760256392 174.20469099113723,210.0573454332285 173.44055123500146,210.5718315838374 173.16653143747064,210.75717442036554 172.96800689027992,210.81789017753854 172.843379810401,210.87221480193145 172.53420878515095,211.06394877109685 172.30732358840922,211.18218471871947 172.25339840959484,211.21414038014387 172.13955636538353,211.29722510033298 172.06086554893906,211.38670095234986 171.99056309359662,211.52730586303625 171.92105952979068,211.67430190616938 171.8172036298519,211.85964474284037 171.71414662145108,212.15044126271664 171.54637939842542,212.66492741313505 171.47527805159112,212.88861704401054 171.37461771780502,213.13787120362556 171.35384653776964,213.1890002621046 171.1852804233012,213.51494800974766 171.07223727067628,213.66513961884232 170.94761019070134,213.79296226473036 170.86612325387392,213.87285141852942 170.79422301540714,213.8952203816884 170.29331802113455,214.11251887992665 169.33664540434302,214.45124889217757 168.81816479623464,214.59824493502504 168.61125188784743,214.65896069205516 168.34402266838953,214.77080550737386 168.06001672668143,214.9433660796275 167.9317946347863,215.03284193193008 167.71170001606987,215.22777146700935 167.66696208999,215.26931382712772 167.52396050468965,215.43228770092546 167.40332788245306,215.57289261146897 167.2791002482479,215.66236846381915 167.13769644607112,215.74864874992215 166.95834529583982,215.81895120517012 166.69271385936267,215.89884035896918 166.43587022989865,215.9979029098229 166.31923206544724,216.06181423281453 166.06119009858025,216.2631349003406 165.81752817949382,216.5028023617378 165.60901748812586,216.678558500191 165.5435083820106,216.70092746320714 165.41968019362204,216.81596784463017 165.17681716607285,216.88946586626818 164.94473917423892,216.9054436967899 164.753804096706,216.9437904906611 164.33238881036903,217.0684175704924 164.0523773263985,217.18026238600157 163.76677360147158,217.31128059827967 163.52990226045733,217.42312541345552 163.1512276714497,217.6500106102449 163.07733020418559,217.69474853641998 162.8756100908429,217.84813571185705 162.68707168792545,218.0334785483852 162.62515759368281,218.11017213627042 162.5748274267894,218.3082972376921 162.5161088987471,218.37859969298768 162.50931832067417,218.54476913288974 162.49014492381,218.66939621286392 162.42663304649213,218.8547390495349 162.3511377961996,218.9921483939741 162.2840309070084,219.0784286800771 162.12984484012856,219.22222915696304 161.95808315950816,219.353247369384 161.89776684838986,219.38520303066554 161.84863501880344,219.40118086166345 161.81987492338814,219.42035425843235 161.7639525157288,219.42035425843235 161.53347230701846,219.50983011078256 161.30379098984614,219.5641547353183 161.24627079920603,219.57693699997378 160.81047546513685,219.69836851370076 160.67066944598847,219.73351974132473 160.54484402875494,219.76227983664478 160.1178365017941,219.82938672597885 159.92929809873306,219.88051578445788 159.71559461232053,219.9636005043137 159.51627117359186,220.0786408859272 159.34890339647802,220.1585300397263 159.23506135226674,220.20646353181525 159.07728027346593,220.2991349502222 158.97342437352714,220.38221967026846 158.73215912910155,220.5451935440662 158.54362072608814,220.68260288850536 158.3478922992804,220.83918563004679 158.13498770440586,220.99257280534098 157.67842119044414,221.27378262652326 157.50905618439012,221.3824318756424 157.34847898525396,221.44953876497647 157.10202094587908,221.55818801423845 157.0377101770232,221.58375254345415 156.79205102909106,221.64766386639818 156.62228657726726,221.70518405722873 156.56276915773532,221.7371397186055 156.51164009925628,221.76589981392556 156.45451935424234,221.77868207853342 156.34227509320226,221.7946599092456 156.2408158678298,221.7946599092456 156.14454943750192,221.79785547563566 154.9138570232748,221.84578896772464 154.81080001487402,221.82342000485136 154.7404975594832,221.80744217399632 154.1724856760194,221.65085943250253 153.8533285065445,221.56138358029517 153.62724220129311,221.48468999260044 153.35162462068556,221.37923630953804 153.0424535954839,221.29934715573899 152.8087778206216,221.24182696509888 152.492416771578,221.1938934727242 152.25354820171802,221.1619378112998 152.07339815990036,221.11719988531516 151.97713172957398,221.1044176206597 151.92520377965144,221.0948309221562 151.4626455791548,221.01494176835712 151.24135262308377,220.98298610664702 150.5646914904056,220.91907478384584 149.93236883808592,220.906292519238 149.72265980936336,220.90309695284796 149.2393304289266,220.85516346075897 148.88342424879932,220.82640336543892 148.50395076825373,220.82640336543892 148.1480445879836,220.8583590268157 147.78534782973583,220.93185704831086 147.52450974262945,220.97659497448595 147.16381021317903,221.05328856203784 146.7915267564761,221.1140043189251 146.35093807327272,221.20987130357923 145.87439927086197,221.3249116850023 145.83924804319037,221.3313028173062 145.7002409156276,221.38562744203244 145.5947872325652,221.4207786696564 145.5025152599273,221.44634319872927 145.268839485065,221.51664565431054 145.1657824766642,221.53581905107947 144.8266530187871,221.66683726335756 144.4755401878878,221.7946599092456 144.33293804835645,221.87135349713083 144.15198911495392,221.9576337832338 143.80527018746596,222.0630874662486 143.57159441260367,222.15895445061702 143.51527255917458,222.18132341363312 143.250839460148,222.2899726628951 142.99679195101933,222.3602751182859 142.4415623321634,222.53922682284346 142.09204728429242,222.6414849398015 141.81003857133408,222.7117873949066 141.63667910763772,222.74693862253056 141.22924442321482,222.80445881331352 141.0047559010394,222.8428056071847 140.71435882702738,222.82682777632965 140.6624308770104,222.82043664402573 140.54259714631178,222.80445881331352 140.37163435722937,222.75013418892064 140.2050654715583,222.66385390281764 140.0916228731636,222.60633371198705 139.97778082895232,222.53922682284346 139.86913157983318,222.46253323524397 139.83877370138956,222.41140417662209 139.78365018522055,222.3922307797103 139.4608980038723,222.17173671522485 139.11577685950792,222.01834953993063 138.94840908225126,221.96082934929055 138.76666125740596,221.91928698921978 138.63923805704883,221.90970029095436 138.53378437408168,221.89052689389973 138.32407534535986,221.88094019549146 138.09479347395575,221.89052689389973 138.00172260977985,221.90011359245085 137.9094506370943,221.90970029095436 137.8359526155984,221.9256781215237 137.64581642955736,221.98639387855386 137.49003257964915,222.03113180472897 137.31227921249382,222.07906529681793 137.243574540179,222.10782539213798 137.15729425407602,222.14297662004768 136.9795408869207,222.21967020764717 136.83214539811377,222.29636379519903 136.65399258514185,222.42099087503036 136.50739598792055,222.52005342588407 136.17985045739195,222.7437430566167 135.917414587162,222.92589032718337 135.37656501589464,223.25183807473118 135.32623484900122,223.28059817019408 135.0062787880367,223.51067893289735 134.88285004551085,223.59376365308646 134.52175107024456,223.8078665850775 134.36197276264642,223.9101247018927 134.25452185078666,223.99320942208183 133.7847736264481,224.2935926401759 133.46401867399243,224.48532660934129 133.41368850709975,224.52367340316482 133.1824094068031,224.64830048299615 132.92356854849407,224.74736303389747 132.54249728491936,224.93909700301526 132.38311842304336,224.9998127597597 131.96529814867418,225.16917776590898 131.75838524033458,225.220306824388 131.54627953704565,225.30339154410095 131.1963650433581,225.4759521164498 130.96668372618575,225.59418806397719 130.8009137321003,225.70283731309632 129.80549487576383,226.12784761149786 128.1881389571016,226.7062450848603 126.80925216248195,226.99704160473655 125.42876758488157,227.39009624157086 122.85633683250377,227.9684937149333 120.50479959042802,228.58204241625302 118.87546029869591,229.24352460966173 118.3945275928731,229.4320630127228 117.9890901373428,229.62379698155488 117.71666812293557,229.7324462309597 117.41189100109612,229.83470434763203 117.04400144789976,229.95613586150188 116.80193731184094,230.05519841226032 116.69169027959822,230.1255008675083 116.65613960615764,230.16384766137946 115.11228170899052,232.3528104754741 114.23030545109637,233.7269039209134 114.1568074295536,233.84513986829793 113.79570845438178,234.4618841356744 113.16897804287566,235.21284218157618 113.12224288790321,235.2895357689852 113.10107226209884,235.32788256299924 112.58339054552846,235.77845739047362 112.07569497308772,236.32170363606923 111.73057382872334,236.53580656853646 111.3694748535039,236.81382082347153 110.98161301185702,236.9576213003575 109.28556627665506,237.67981925065348 108.34367315336398,238.15915417344794 108.28455517955267,238.18791426891084 107.54398272388286,238.66405362560093 107.446517956248,238.76950730852047 107.27475627553237,238.86856985923134 107.10579071524732,238.94526344697368 107.00033703228017,239.02515260077274 106.81020084619075,239.18812647442763 106.68836988669479,239.2712111944739 106.58051952901916,239.30316685599354 106.54616719288481,239.30636242209786 106.42233900459148,239.37666487748868 106.32247756234264,239.46294516359168 106.0736228481633,239.64189686814922 105.68256544036444,239.9071288586193 105.41293954629256,240.0509293356957 105.07420953423211,240.26822783393396 104.99551871764552,240.36409481854048 104.89405949236757,240.59737114763377 104.80777920626458,240.71880266140835 104.75185679855761,240.7571494552319 104.63441974252059,240.78910511665632 104.33563430726444,240.81147407981527 104.23816953967719,240.8817765349204 104.07559511174368,240.94888342425446 103.86628552869487,241.11505286401368 103.76402741183206,241.2141154148674 103.63580532003216,241.30359126707472 103.51637103515017,241.37389372246554 103.38894783479303,241.4282183470489 103.14328868686013,241.536867596168 103.0294466426972,241.61356118386274 102.92798741732476,241.69664590376618 102.75382906208964,241.83405524820535 102.47901037297396,242.05774487889036 102.3719589068832,242.14722073124057 102.216175056975,242.32297686969378 102.11910973510912,242.4859507432058 101.96492366832453,242.83426745400783 101.92378075407113,242.92054774011083 101.85068217834424,243.12825953998842 101.71247394227184,243.3871003981546 101.47120869779863,243.64913682256793 101.30304202905158,243.80252399786215 101.10291969883252,243.98467126861928 100.87403727315056,244.17001410543313 100.7837625293576,244.26268552388765 100.71905231482798,244.36174807445565 100.60760694523064,244.5950244036918 100.58084407870795,244.71645591727594 100.4126774099609,245.0168391357033 100.32639712390552,245.18300857560538 100.28165919772968,245.3779381108275 100.199772815134,245.63997453524084 100.11748698672095,245.86685973217305 99.99365879833238,246.09374492891482 99.73561683151375,246.42608380876658 99.46998539513183,246.80955174690692 99.3002209433088,246.97891675305618 99.1124814319762,247.20580194979794 98.9207474627632,247.40712261751446 98.76216749251965,247.50938073432965 98.61557089529835,247.55092309425754 98.57562631839882,247.59566102043266 98.51011721223595,247.7234836663207 98.42982861271551,247.8608930109027 98.160602164365,248.32744566908931 97.5222878255104,249.27013768382315 97.50151664552264,249.29889777928605 97.15799328423425,249.75905930531158 97.07011521500765,249.84214402516739 96.73258354020656,250.16170064036368 96.37068567349675,250.20643856639592 96.03634956489451,250.24798092646668 95.76752256231374,250.2767410219772 95.53544457052743,250.30550111729724 95.24544694223606,250.37899913860193 95.07128858700243,250.42373706491986 94.87795683480867,250.49723508627216 94.68422563684592,250.56753754166297 94.43297424810021,250.669795658621 94.27719039819202,250.7464892462205 94.08785310368822,250.81679170146845 93.77548651238145,250.86152962750072 93.5130506421515,250.88709415685926 93.22345245962985,250.87431189210855 92.88751856790475,250.8775074584986 92.54838910998006,250.86792075980463 92.44533210157925,250.86792075980463 92.21245521825495,250.8775074584986 91.94842156499664,250.85513849533965 91.42155259564412,250.95100547999377 91.26137484227623,250.97017887676267 90.87950468716502,251.0149168029378 90.71013968111099,251.05006803056176 90.54956248192796,251.12037048595255 90.48844727927019,251.13634831666477 90.25277427556367,251.20025963975164 89.99473230884027,251.23221530117604 89.68675962089722,251.19706407369492 89.04325248704643,251.0181123689945 88.92861155134402,250.9925478397788 88.4944140004453,250.88709415685926 87.81695397627752,250.67618679097257 86.69610914847651,250.54836414460834 86.5930521400757,250.5291907478394 86.27868831982873,250.40775923406483 86.05859370111229,250.35982574169014 85.84249354008578,250.3406523449212 85.63637952328418,250.37899913860193 84.59861941548182,250.6282532984074 84.48357903396354,250.65062226156638 84.14604735921006,250.69536018774147 83.91996105395869,250.74329368011615 83.40307822887868,250.9350276491387 82.97647014754325,251.10119708889792 82.31059405062872,251.25777983039174 81.87679594549975,251.33447341813408 81.22929435395825,251.38879804281268 80.88417320959387,251.3664290796537 80.24665776222965,251.18747737500092 80.14679631998155,251.19386850730484 78.97681966264098,251.32488671958296 77.89751719481549,251.45270936580434 76.78625906546962,251.62207437190597 75.68618541760951,251.78824381180806 75.03708604299203,251.90967532558264 74.83576537546598,251.92884872235157 74.32407534533529,251.8521551347997 74.17428318196202,251.85535070085643 73.65460423649905,251.85535070085643 72.83534096433716,251.77546154705735 72.46705196527581,251.70196352570505 71.96614697100324,251.58053201169238 71.06859232802303,251.34086455029515 70.73865012283285,251.254584264335 70.31803372812834,251.17149954428874 70.00926214869492,251.1107837875919 69.90101234524955,251.09161039048965 69.27028747605274,250.9925478397788 68.93675025894235,250.92863651683479 68.6135986318251,250.86472519389076 68.40309071151692,250.8040094368606 68.20296838125024,250.72412028306152 67.877819525288,250.53558188014333 67.24150241527839,250.21602526494704 66.92234524585109,250.07861592050787 66.71023954256216,249.99233563440487 66.50492441725092,249.92842431127036 66.40466352923309,249.90925091421573 66.18496835628564,249.89966421580746 66.07951467327085,249.9124464806058 65.86261562070636,249.97955336960655 65.6529065919838,250.07222478820395 65.235086317663,250.20643856639592 64.80847823632759,250.34704347722513 64.48772328382431,250.51001735102287 64.02037173414733,250.76566264298944 63.66766112012368,250.96378774445876 63.01177116743403,251.22582416901494 62.7972687894359,251.31530002136515 62.59474978455524,251.37601577806197 62.11062151253285,251.6636167318815 62.072674164525914,251.68918126095434 61.51065396754943,252.07264919909466 60.858758472548985,252.47848610053683 60.15773114791449,252.93545206017228 59.50863177329701,253.398809152445 58.5711325535125,254.13378936715839 58.10457989527829,254.44695485005076 56.05142864268896,255.93289311085638 55.985120645036474,256 55.985120645036474,255.913719713897 55.92240765935182,255.5110783788449 55.84851019204005,255.2969754466634 55.74145872594929,254.99339666203645 55.600853815216055,254.53323513615376 55.32923069234607,254.02833568414363 55.13070614510776,253.62249878298718 54.95734668136377,253.1815106540639 54.7991661568416,252.87793186953218 54.772003844549914,252.79804271573312 54.65057233082294,252.63826440813497 54.53832806968762,252.47848610053683 54.358178027870714,252.2388186391396 54.00906242576876,251.67000786418544 53.81133677016367,251.33447341813408 53.75341713361172,251.16191284607092 53.592839934475585,250.83276953218066 53.37594088200633,250.43651932957533 53.181410792410354,250.18087403732306 53.04480033941393,250.0115090311738 52.93015940371227,249.85173072357566 52.713260351195395,249.59928099771344 52.53790365855881,249.34683127170834 52.40329043445499,249.17746626555908 51.969092883509404,248.6693712474446 51.685086941753696,248.33703236764043 51.510129694933724,248.16447179538682 51.449813383815425,248.08458264158776 51.31759683432557,247.91521763562895 51.005230242971194,247.50938073432965 50.96248954568869,247.42629601414052 50.829074658844235,247.18023742058222 50.69446143464592,246.9373743929378 50.61057782315615,246.86387637144267 48.935302268037184,245.23094206798007 47.297574615156165,243.70985257959808 45.294354083596026,241.8915754389883 43.63984970841795,240.51748199383468 41.58190510660067,238.4435595611631 40.33882987344095,237.05029271895486 39.19281996219249,235.5068342673663 39.063000087268996,235.1904732184172 39.02665052229042,235.10419293245704 38.914406261202714,234.92843679400386 38.75542684519018,234.6791826340555 38.64717704174481,234.51620876040064 38.570084008328706,234.42673290805044 38.43866635032923,234.27015016665186 38.3208298484756,234.1039807267498 38.16824156471937,233.94420241915165 38.07357291751508,233.88348666231195 37.670532136598005,233.69814382530765 37.45602975860062,233.62784137005968 37.24991574179901,233.60547240690073 36.85046997280364,233.54475665015627 36.23053013932282,233.5383655177095 35.80911485308033,233.51280098863666 35.38290621751465,233.47764976101266 35.170001622687735,233.50960542238946 34.74698855327402,233.65979703176978 34.64393154487321,233.70773052385877 34.119459250182295,233.96337581611104 33.91614135381127,234.0464605361097 33.71082622850003,234.10717629285415 33.284218147212975,234.23819450513224 33.07171299810744,234.28293243130733 32.7701314425643,234.29251912981084 32.661881639118185,234.29251912981084 32.23127910018954,234.343648188147 31.918113617296427,234.41395064358542 31.505086692155214,234.42673290805044 31.48830996980979,234.4075595112815 31.153973861160665,234.3947772464832 30.97502215665074,234.4075595112815 30.872764039835545,234.3947772464832 30.769707031434738,234.3756038495714 30.401817478142384,234.37879941596145 30.085056983329057,234.3532348865553 29.332900600310776,234.2733457327562 28.981787769363844,234.23499893888504 28.731335272203747,234.20623884370784 28.247207000228975,234.20623884370784 27.695971838967747,234.18386988054885 27.169901761200844,234.1870654466532 26.863526856381394,234.16789204988427 26.64822558689289,234.16469648349423 26.49324062861718,234.1615009173899 26.1229544007116,234.15510978508595 25.81298448397119,234.1039807267498 25.54056246951635,234.08480732969517 25.255757636175776,234.04326496991013 24.971751694466942,233.9921359114311 24.43849159285812,233.8898777946159 24.03784748650815,233.79720637620898 23.628415573287892,233.69814382530765 23.521763552966128,233.68216599459544 23.320842331209075,233.6470147671143 23.11992110935679,233.5831034438846 22.80395950612907,233.4361074008943 22.479609541657208,233.26674239507835 22.280286102928518,233.116550785698 21.90999987506981,232.8001897367489 21.611214439861275,232.48063312155261 21.048794797115793,231.8319331926089 20.970902872256932,231.67854601731466 20.838686322624227,231.43887855591746 20.745615458448306,231.11612637466442 20.710464230824332,230.87645891326721 20.709665339238725,230.46742644572072 20.718053700387628,230.06478511081147 20.69129083396017,229.74522849561515 20.535506983956743,229.24672017571848 20.38451648332411,228.73862515746112 20.332588533307096,228.6555404377482 20.1164883722806,228.41587297635095 20.023816953873673,228.2465079702017 19.77815780598914,227.58183021068862 19.66351687023985,227.2431001984377 19.578834367261194,226.83406773103405 19.578834367261194,226.754178577235 19.571244897601918,226.67748498954026 19.572842680773135,226.51131554978105 19.63675400371716,226.12465204525066 19.63755289525515,225.9680693038997 19.678296363740294,225.8210732609094 19.74979715634285,225.65809938720693 19.846063586670734,225.52388560872924 19.97828013625582,225.34493390431456 20.0302080861776,225.26504475051547 20.142452347265298,225.10846200887883 20.273071113726786,224.95187926767073 20.632572305823363,224.6355182183883 20.877432562264396,224.52686896926917 20.984484028308284,224.49810887380627 21.300445631678112,224.402241889295 21.501366853387548,224.36709066167103 21.819725131372092,224.31915716958207 22.037423075379333,224.3063749049266 22.469623397432326,224.28400594176762 23.117923880607044,224.19133452321785 23.336820161969634,224.17855225860998 23.64239617520273,224.1593788619839 23.85609966166287,224.130618766521 23.96315112775363,224.1146409358088 24.1712623733526,224.04114291417082 24.58508819007942,223.87497347441158 25.13592390547642,223.55861242527203 25.249366503871105,223.4819188375773 25.57251813098836,223.27101147150012 25.771042678179803,223.11442873029202 25.932019323084194,222.9610415549978 26.12455218373996,222.70220069664117 26.178077916786084,222.6127248443386 26.45649161782273,222.18771454593707 26.65301893621607,221.86496236482688 26.77964324489237,221.71477075544655 26.93143263715748,221.48149442649608 27.01092234514069,221.2482180974028 27.0444757897363,221.16513337740415 27.10199598051925,221.005355069806 27.131554967424908,220.44293542710813 27.138345545497828,220.11059654716112 27.15751894236199,219.8453645568339 27.169901761200844,219.60250152904663 27.183482917346687,219.3404651046333 27.264570408500365,218.72691640364687 27.272159878158895,218.48085780994572 27.28414325113352,217.89926477019324 27.268165420421322,217.72350863188288 27.21424024155933,217.47425447179168 27.184281808884677,217.31128059827967 27.17189899009344,217.0684175704924 27.174295664659795,216.96935502006724 27.10798766705418,216.8223589769341 27.097202631243686,216.5858870815936 27.08202369206948,216.43249990648985 27.036087428587397,216.0969654604385 27.006528441681738,215.95316498369542 26.918650372550374,215.45146109788485 26.856736278308475,215.11273108572914 26.84435345946962,214.96573504278646 26.825579508374453,214.67174295652018 26.78883049762688,214.50876908281768 26.72771529492297,214.24353709220475 26.69336295878937,214.06458538783767 26.641435008819972,213.7865711325693 26.571132553476787,213.6076194282022 26.510017350820494,213.431863289749 26.455293280468872,213.34877856970274 26.39337918636908,213.17941356369633 26.310693912091804,212.92376827163451 26.226810300650392,212.75120769923805 26.207636903690997,212.71286090555733 26.034277439947008,212.3230018350655 26.01470459726549,212.2431126812664 26.08420816107143,212.20796145335672 26.148119484110687,212.16961465981888 26.519204603555004,211.93953389663946 28.683002334202925,211.2524871741579 29.81223552310522,210.67408970046213 29.890127448059314,210.61976507592638 30.035126262204635,210.5175069589683 30.834017800195376,209.56522824568336 30.923094206728962,209.4853390918843 31.584576400137674,208.62892736325344 32.111445369490184,207.92270724381248 32.1174370559775,207.88755601590282 32.69383730068544,206.84899701651486 33.10446755116506,206.04051878011583 33.82147270651175,204.826203642608 34.27044975086255,203.9026850246431 35.308209858712516,201.49322814606302 35.521114453587046,199.42250127959102 35.477574864765806,198.76741021834337 34.7845364556072,198.08675462802287 34.95390146166124,197.85667386512915 35.12326646766766,197.75761131427547 35.424848023259166,197.5339216837333 35.56705071706914,197.4220768682241 35.73042403663586,197.24312516385703 35.827489358406496,197.1248892161868 36.002047159457476,196.87243949032458 36.04119284481902,196.69348778562417 36.051178989043905,196.37712673653223 36.03520115828409,196.23652182598872 36.027212242904184,196.19178390000408 36.01043552060563,195.90098738012782 36.00004993070773,195.82429379224263 35.9868682202349,195.69008001405066 36.015228869834324,195.6485376539323 36.04119284481902,195.55586623552537 36.05956735024042,195.33856773714425 36.08233575907316,195.2395051867191 36.25050242777334,194.79851705760538 36.278463631649885,194.6706944114316 36.25809189738351,194.58760969167105 36.00684050868542,194.38309345794542 35.8462633095969,194.11786146714203 35.827489358406496,194.02519004887796 35.84186940609033,193.96127872593394 35.94252973992478,193.87180287344088 36.25569522281715,193.58100635356462 36.49456379262877,193.33494776000634 36.626780342166235,193.1751694524082 36.767385252852606,192.96426208633102 36.905593488925,192.74696358809277 37.02223165347165,192.56481631733564 37.21077005648508,192.29319319437118 37.35736665370638,192.05672129922115 37.387325086380294,191.97683214542207 37.440850819426416,191.84261836703962 37.49118098631983,191.70520902260046 37.50795770866525,191.5646041119617 37.5355194666307,191.38565240740417 37.54231004470362,191.20350513664704 37.55069840590089,191.06290022600828 37.5818551758349,190.94466427819518 37.66813546193716,190.92549088156912 37.86825779220384,190.88075295539403 37.982099836367524,190.83601502907607 38.15066595088357,190.75932144166705 38.26291021201889,190.6858234201719 38.72946287020548,190.3343111432655 38.85608717902463,190.24483529105817 39.091360736915284,190.06588358640536 39.32663429480594,189.89332301434223 39.5890701650359,189.73034914049688 39.63660421154635,189.70478461142403 39.774013556128374,189.63448215612846 39.95496248943566,189.51624620850583 40.1327158566386,189.40759695938672 40.25894071964113,189.36925016537268 40.325248717294365,189.36605459926835 40.55133502254574,189.4139880915478 40.83893597627003,189.53861517152197 41.17127485602656,189.66324225130566 41.44928911124734,189.739935839048 41.81398309834011,189.79106489752704 42.20583939772457,189.8453895220628 42.470671942616114,189.9029097127029 42.79901636468269,189.99877669721414 42.95639799771448,190.0594924542443 43.07303616226113,190.07866585101323 43.466490244673956,190.15855500481229 43.63745303380397,190.16494613725908 43.75329230681263,190.15855500481229 43.999350900513775,190.12659934357836 44.26578122843369,190.0722747187093 44.4583140891847,190.03073235892424 44.681204828237234,189.9604299036763 44.84897205116693,189.92527867586185 44.90928836228523,189.91888754341508 45.032317659135806,189.90610527880722 45.26080063900116,189.89332301434223 45.426171187412855,189.86775848522177 45.60112843418447,189.83260725731208 46.086055597840826,189.8166294265999 46.27299621763542,189.80065159607815 46.53942654555534,189.79106489752704 46.89693050880619,189.75591366990307 46.94047009767431,189.71756687588902 47.366279287375754,188.68859457519505 47.37027374511332,188.55118523061302 47.403028298170945,188.37223352591263 47.44497010386784,188.29234437211355 47.48930858422633,188.25719314448958 47.528454269587876,188.2092596524006 47.76652394795599,188.01113455078843 47.881164883610786,187.88331190490038 47.99420803623647,187.76507595723012 48.21230542615557,187.44871490809055 48.45157344178379,186.97896668370439 48.54744042629506,186.8032105452512 48.71041430004517,186.60828101002906 48.817865211952544,186.53478298853392 48.9920235672814,186.40696034264587 49.36989926465653,186.12894608723462 49.68825754254584,185.87330079526805 49.838848597457094,185.71032692147034 49.95029396705442,185.63363333387085 50.06613324006308,185.59209097365724 50.392879879101294,185.56333087833718 50.66929635124609,185.48983285684204 50.96568511184065,185.3811836077229 51.31839572586356,185.2501653954448 51.55446817533983,185.1415161463257 51.60719501684796,185.11595161725285 51.86044363439028,184.9561733096547 52.14924292532631,184.79959056797043 52.392105952875504,184.71331028186742 52.74561545848402,184.55033640816492 53.03481419518905,184.42570932838123 53.32720849809366,184.272322153087 53.67073185942968,184.12532610995385 53.911997103902884,183.98791676551468 54.09014991687482,183.8952453472506 54.32981737827204,183.74824930411745 54.512364094702924,183.65557788585338 55.102345495556705,183.4446705197762 55.34081461959932,183.367976931891 55.682740197954594,183.22098088904357 56.0294591253466,183.04522475078085 56.26672991213059,182.89183757548662 56.43569547241563,182.78957945852858 56.856311867167754,182.55630312929242 57.054037522868086,182.48280510779728 57.089188750492056,182.47641397549333 57.11874773739771,182.43806718190788 57.2166119508492,182.36137359421315 57.61965273176553,182.1696396249049 57.74427981164372,182.128097264977 58.1205577260381,182.01944801585788 58.24039145673672,181.98749235429062 58.53158742238195,181.91399433279548 58.821585050672596,181.8468874437947 58.94541323901354,181.82451848063576 59.066045861250146,181.8149317820846 59.24899202345002,181.85647414215538 59.41156645143114,181.91718989889984 59.46589107601451,181.94914556060994 59.68039345401264,182.1121194342648 59.94922045654653,182.27189774186294 60.0011484064683,182.31344010179086 60.17211119564594,182.52754303397236 60.28435545668602,182.58506322475532 60.374630200478975,182.67453907710552 60.5104417619374,182.84070851700758 60.64785110647181,182.96533559698176 60.78166543913288,183.0931582428698 60.98298610665893,183.281696645788 61.152750558481955,183.40632372576218 61.52303678634067,183.62362222414328 61.691602900856715,183.700315811838 61.812235523093314,183.74505373787025 62.142976619869096,183.84731185468544 62.271997603206984,183.8856586485566 62.447354295795954,183.93678770703565 62.67743505873729,183.97513450104967 62.789679319824984,183.98152563321074 62.84440339017735,183.98791676551468 63.01696396238335,184.01348129473038 63.07728027350165,184.02306799313865 63.19791289578587,184.04224139019328 63.40882026176781,184.0837837501688 63.58377750858778,184.12213054399234 63.743955262002544,184.1700640362718 63.967644892639946,184.2148019624469 64.22888242551531,184.272322153087 64.49691053655881,184.34262460833494 64.60076643644999,184.36179800538957 64.77093033404202,184.36179800538957 65.05174070964502,184.33303790992667 65.27862590648276,184.31386451287204 65.44519479215383,184.30427781446377 65.61695647277422,184.31386451287204 65.67247943466457,184.33303790992667 65.70603287926018,184.35860243919 66.1797755612887,184.28829998394204 66.30040818357291,184.2691265868398 66.47057208116493,184.2691265868398 66.58561246258725,184.25953988843153 66.75298023984466,184.2403664913769 66.983460448555,184.21160639605685 67.31659821994475,184.1413039408089 67.47437929860268,184.11254384548886 67.59061801738108,184.1061527131849 67.83787494838847,184.06780591931374 68.47618928724307,183.9527655378907 69.00465603962395,183.83772515646766 69.5870479708192,183.73227147326241 70.15066595087167,183.6012532609843 70.27968693425717,183.55331976889534 70.39712399034181,183.47662618129584 70.45224750655841,183.3935414612972 70.52614497372731,183.19861192607505 70.63479422294166,182.9078154061988 70.70949058169693,182.7128858707862 70.83691378200571,182.4156982187489 70.89443397278866,182.2910711389652 70.96753254851481,182.12170613281592 71.05780729230702,181.8628652744593 71.1392942291352,181.66793573909433 71.17364656531643,181.58165545299133 71.19521663679531,181.53372196090237 71.25792962252683,181.3867259177692 71.36458164284859,181.1087116625008 71.53354720318126,180.65174570272248 71.72727840109638,180.19477974308703 71.86109273370984,179.9135699217619 71.92061015329016,179.74420491561264 72.05722060628656,179.34475914661726 72.11354245971566,179.19137197132304 72.23577286507437,178.92933554705255 72.26093794847345,178.88459762092506 72.2869019234589,178.84305526094954 72.2884997065825,178.81109959942992 72.46026138720289,178.4595873225235 72.59407571981635,178.159204104239 72.66557651251414,177.96107900296016 72.8529165781246,177.4913307786692 72.92082235885455,177.27722784639246 73.01708878918244,177.05673378176417 73.03746052344883,177.0183869882263 73.1153524483553,176.86819537884597 73.16967707293867,176.71161263749502 73.20003495138232,176.62533235153487 73.22759670949061,176.58698555752085 73.23918063674387,176.5039008376174 73.2451723232788,176.32814469935468 73.26873962364952,176.27062450852412 73.25835403375088,176.0693038408552 73.28631523748533,176.01178365007226 73.29270636978924,175.8200496812402 73.3414387536543,175.657075807252 73.43450961783022,175.3375191920557 73.43770518398219,175.25763003825662 73.60946686460258,174.79746851237397 73.77363907570803,174.11361735594912 73.8659110482976,173.63747799925903 73.90026338447882,173.10701401798556 76.24141503651308,170.68797044099722 76.21744829042096,170.67838374258895 75.68378874304315,169.1413164233519 75.4716830397066,168.4255096055503 75.37941106702105,168.169864313298 75.41655952353763,168.07080176273 75.4365318119874,168.01647713786093 75.37102270591977,167.90463232278032 74.60208960060369,167.25912796008382 74.12874636429656,167.09615408628608 73.94779743094165,167.05780729227206 73.70253772877923,167.051416160111 73.53237383118646,167.07378512326997 73.24157731140545,167.13769644607112 73.21681167368087,167.1408920124612 73.15969092871305,167.115327483055 72.87728277003406,166.97791813847297 72.55253335988844,166.80216200016264 72.34202543962863,166.71588171405963 72.23896843122708,166.68392605263523 72.21300445624237,166.68073048643566 72.1235286039398,166.6647526555806 71.76722297799593,166.66794822197068 71.11333025415051,166.6519703911156 70.86926888929433,166.6487748248684 70.4949882037933,166.69031718498678 69.90420791140153,166.7574240741304 69.53831558700176,166.78937973555477 69.28027362027836,166.79257530194482 69.0222316534605,166.81174869871376 68.65873600367395,166.87885558804783 68.37473006196586,166.9140068156718 68.01043552059447,167.06419842457598 67.8362771653125,167.08656738773496 67.781553095007,167.09934965248567 67.55946124744706,167.18243437238908 67.26746639026308,167.25912796008382 66.6031880764714,167.42529739998588 66.48814769495311,167.45405749516308 66.43462196190774,167.44127523055522 66.36831396425451,167.35499494445222 66.22850794510613,167.12810974766285 66.05355069828616,166.85329105864167 65.97286265294909,166.6775349203313 65.9460997864264,166.5081699143725 65.93970865412247,166.33241377591932 65.91773913687534,166.25572018817698 65.87579733108396,166.03522612388198 65.86261562070636,165.6293892225827 65.89776684842631,165.46002421629058 65.93211918451156,165.35776609947538 65.89017737876705,165.27468137976243 65.85582504263344,165.23633458589126 65.75117025120427,165.1692276965572 65.57860967899828,165.0765562782931 65.36250951797179,164.97110259508787 65.20073398148104,164.8560622136648 65.05333849272175,164.73463069993784 64.8244560670874,164.56526569378858 64.65788718141633,164.46620314322055 64.55323238998716,164.43105191559658 64.39065796205367,164.3959006879726 64.23487411205024,164.39270512158257 64.1258254171145,164.41826965079827 63.90053800344872,164.4757898417717 63.66925890315279,164.53650559846852 63.56140854557166,164.56207012787468 63.29657600068011,164.6323725829798 62.999388348547555,164.77617305986573 62.577973062256696,165.01264495520624 62.39942080356487,165.13088090268602 62.048307972569575,165.3961128934894 61.941256506478815,165.4791976133452 61.859769569651384,165.56228233324862 61.423574789908436,165.93616357298066 61.36805182801808,165.98090149929862 60.778469872980914,166.48260538496635 60.55917414580246,166.68073048643566 60.27157319207817,166.9715270063119 60.10420541486985,167.1472831447651 59.966796070429936,167.27510579065316 59.8118111119645,167.16645654153402 59.64923668398338,167.03543832925592 59.43633208915647,166.90761568336788 59.2857410341976,166.8309220954827 59.15991561696406,166.74783737576973 59.08721648705452,166.71907728044968 59.065246969712156,166.70949058175572 58.8643257479551,166.5561034064615 58.81239779793808,166.50177878206858 58.60788156425933,166.3451960403843 58.504025664273655,166.2876758497442 58.20084632560617,166.13109310839326 57.902859781983246,166.0192482928841 57.3616107649469,165.8275143240044 57.09278376241301,165.74762517020534 56.80438391724598,165.68051828106172 56.4468799539475,165.56867346555256 56.18963687871448,165.4408508196645 55.87287638390116,165.1692276965572 55.80576949475755,164.99666712449402 55.66196901791922,164.73782626599456 55.53694249217605,164.55567899557076 55.37636529308753,164.37353172481363 55.00687795676681,164.12747313106487 54.83431738451319,163.97408595581828 54.67933242614299,163.77276528810174 53.08993771131041,159.3501017339755 53.08993771131041,159.3149505060658 53.074359326319595,159.2702125801764 52.96371284830713,159.10084757407475 52.80193731186475,158.97302492785337 52.61100223428496,158.86757124498146 52.497959081659275,158.81963775255915 52.28106002909479,158.76211756177622 52.014629701174876,158.73335746645617 51.81410792518682,158.73016190054227 38.03163111172295,156.18968680949365 37.970515909114276,156.1769045448858 36.99546878694896,155.9979528405187 37.20477836995015,152.47004780875162 37.4148868443941,148.93255607857623 37.410892386751016,148.81432013076312 37.44604361437499,148.73443097696406 37.78037972307248,148.53630587549475 38.02084607596007,148.4212654940717 38.64557925871645,148.16881576820947 39.20360499795537,147.95151726982837 39.77241577300403,147.7725655654137 40.02606383631609,147.67350301455997 40.39635006422316,147.50094244249684 40.77502465318315,147.3443597009554 41.015491006165234,147.20055922406945 41.33065371785571,146.99604299029622 41.68416322341661,146.80111345507407 42.13314026776741,146.55825042762012 42.42353734187392,146.42084108318096 42.80660583434122,146.20673815071373 42.99754091187413,146.0821110708824 43.05625943996333,146.04376427701123 43.26636791445489,145.89357266782136 43.522812098149174,145.65070964051026 43.688582092283,145.36949981913753 43.750496186429665,145.22889490849877 43.90068779557192,144.82305800719948 44.00254646666574,144.37567874563896 44.11079627006349,143.94427731540966 44.17271036425777,143.70141428762238 44.248205614645514,143.49370248793528 44.27736515578217,143.39144437112006 44.284155733855094,143.3690754079611 44.20786159197698,143.0495187927648 44.100810125839345,142.53183707595633 44.035301019770976,142.29856074686305 43.91466839753438,142.0812622486248 43.857947098337036,141.9949819625218 43.7604823306538,141.7840745964446 43.64184693731054,141.64986081806217 43.40976894557185,141.44854015053613 43.20125825406103,141.22804608624114 43.143338617603575,141.17052589526773 42.86412602502894,140.8925116401898 42.685973212057,140.6720175755615 42.2118310842595,140.11598906535804 42.08760345014956,139.96579745597768 41.7888180148934,139.6526319730853 41.55753891464508,139.33627092399337 41.55833780622994,139.21803497660883 41.57591342001887,138.997540912171 41.617855225811,138.77065571523877 41.7201133426262,138.5597483491616 41.89826615564575,138.35523211538836 42.1027823893245,138.19545380779022 42.3752044037786,137.94619964812756 42.5509605422318,137.80559473734596 43.02430377839608,137.47325585768468 43.47407971428487,137.17606820531404 43.649036961152454,137.03546329481813 43.9458251674684,136.78620913472693 44.13276578735823,136.60086629819878 44.16711812349183,136.5593239380804 44.33528479223889,136.32285204278753 44.50864425598287,136.0704023169253 44.65044750402385,135.84671268619266 44.697182658996304,135.72528117232284 44.707168803221194,135.64219645260988 44.704772128559604,135.60384965859586 44.658835865125134,135.51437380624566 44.502652569447946,135.31944427102354 44.40918225950303,135.13090586810534 44.326097539551995,134.9295852005793 44.25419730118044,134.7538290621261 44.16112643700452,134.60363745322192 44.141154148554754,134.38633895484082 44.0680555728286,134.28408083802563 43.97578360014305,134.07636903786232 43.94822184212999,134.00606658261438 43.96180299827583,133.97730648729433 43.97498470865268,133.89422176724807 43.97019135937712,133.75361685675216 43.970990250915854,133.70568336447272 43.95900687794048,133.44684250602086 43.93304290286055,133.3126287277813 43.881114952891146,133.0889390969534 43.89988890403393,132.89400956173128 43.996954225899806,132.44663030064694 44.0680555728286,132.18778944229032 44.057270537018105,131.9992510390864 44.04129270630591,131.78195254084815 43.99096253936487,131.54228507945095 43.97658249168104,131.50074271952303 43.835178689504296,131.13644817815165 43.70695659760917,130.89358515065007 43.59471233652147,130.6698955201079 43.57793561422366,130.45898815388787 43.46928636510454,130.37909900008881 43.305913045585434,130.2864275816819 43.151726978705604,130.1745827664584 43.021907103782105,130.03397785581967 42.91885009538205,129.86141728361366 42.8844977592477,129.81667935743857 42.83816205004349,129.76235473271234 42.81818976159447,129.7399857696962 42.73710227053603,129.65370548359323 42.64163473169926,129.5226872713151 42.60528516671994,129.43960255160218 42.596097914033045,129.35651783141304 42.58770955288414,129.142414899422 42.63324637059723,128.91552970263263 42.69915492243385,128.64071101361142 42.76466402854909,128.49691053667786 42.688369886670976,128.48093270601328 42.66480258630025,128.45217261069322 42.68437542898102,128.39465241991027 42.75387899283309,128.2157007152099 42.771454606622754,128.04633570939393 42.75787345047617,127.82584164476563 42.74469174009932,127.64369437400852 42.55695222871911,126.36546791322333 42.58691066139451,126.32712111935216 42.48385365299296,125.2470197600363 42.42633346221001,124.63666662496375 42.271348503935045,122.95260326302213 43.20445382021299,118.85908302250041 43.37541660939137,117.95473780130443 43.37461771780502,116.57744878995125 43.36263434478278,116.52951529767181 43.209247169488556,115.90637989784855 43.05106664491877,114.97327458166585 42.8844977592477,113.64072349615444 42.786234100122456,112.8737876198738 43.60909238425292,109.29475352943719 43.41815730662552,109.24362447110101 43.13974360568336,109.12219295723119 42.85933267584861,109.06147720053437 42.3064997315114,108.97200134818416 41.98973923669807,108.933654554313 41.736091173386015,108.84098313590607 41.56912284194595,108.81541860664275 41.24437343175271,108.81222304058602 41.18885046990997,108.78985407742704 41.0825978953572,108.6716181297568 41.05303890849916,108.63007576982889 41.00310818737474,108.60131567450884 40.8916628177298,108.57575114524552 40.558924492156656,108.59492454234777 40.164272072484465,108.63966246852287 40.0028959817151,108.63646690213282 39.70610777535154,108.61090237305997 39.431289086330345,108.62368463766782 33.64531712238479,108.69079152685904 33.61935314744771,108.68120482830793 23.864488022764156,110.09364506742793 20.968506197547725,110.48669970411937 18.717629289258813,110.82542971641791 17.754964986027588,110.10642733222625 14.457939608692186,107.64903696122389 12.777471258528664,106.39637502984488 3.4328369386509756,101.7244573156274 3.422850794426091,101.68930608800343 3.3030170637274803,98.49693550195434 3.2806481006637394,95.66566389136278 3.1540237918922074,93.38083409289973 3.1340515034424388,93.36166069594034 2.572830198051561,92.85995680998691 0.23647189515002381,90.68377626035729 0.10745091176451926,90.56234474677316 0,90.4632821960147 0.031955661424394315,90.43132653449507 0.33753167470585244,90.12774775015382 0.3886607331848775,90.09259652248222 0.45097427310053756,90.00631623637923 0.5696096664921625,89.71871528260732 0.7505585998470652,89.42152763057001 0.8320455367689943,89.34163847677094 0.8871690528434817,89.30968281506084 1.1244398396743491,89.18186016917278 1.4344097564147564,88.99012619986453 1.7040356504866312,88.84952128936864 1.912546341854597,88.71850307709053 2.021595036791077,88.67376515091544 2.2285079451299348,88.56511590179632 2.7529802398201118,88.25834155106502 3.3122043164143737,87.96115389902769 3.577036861259048,87.75983323150164 3.7723658422970403,87.55851256378513 3.809114853045358,87.51377463775289 4.053575663717399,87.24854264699711 4.21615009165164,87.17504462550195 4.526918899976912,86.96733282581484 4.746614072924365,86.79477225356122 4.84048382859066,86.71168753356257 5.263496897956757,86.4017176169174 5.376540050582446,86.23235261076812 5.453633083998553,85.97351175260196 5.491979877869726,85.81373344500382 5.582654067384057,85.64756400491127 5.694099436933766,85.59323938037552 5.910998489545869,85.53571918973543 6.262910211983173,85.48778569731313 6.870067780903753,85.42067880831237 7.437280772830305,85.3407896545133 7.66776098153989,85.27687833137881 7.849508806432783,85.16822908211684 8.020072149793807,85.04360200233313 8.252949033118107,84.8934103932385 8.574103431437258,84.75919661476081 8.927612937046522,84.62498283623552 9.165283169503532,84.55787594718714 9.408146197052718,84.50035575654705 9.754465678771703,84.36614197806936 10.107975184332606,84.18079914135075 10.219021108160936,84.14884347983111 10.338854838859547,84.14564791344107 10.565340589927539,84.14564791344107 10.89767946968407,84.17440800904683 10.95040631119146,84.18079914135075 11.117374642631523,84.19997253816729 11.3007202506004,84.17121244284725 11.464892461609878,84.10410555351316 12.062862777844309,83.86124252615446 12.399595561059044,83.66950855703668 12.609304589781614,83.50653468304847 12.856162075020752,83.2540849570434 12.981987492349528,83.08471995103699 13.016339828387895,83.04637315735629 13.231641097971636,82.96648400355721 13.514049256603,82.89937711436599 13.802848547540524,82.82907465911804 14.076868345118221,82.82587909272799 14.196702075816832,82.80351012971187 14.309745228442521,82.76516333584068 14.397623297573885,82.67568748382381 14.497484739822728,82.50951804392174 14.560197725555001,82.42643332373261 14.703199310855343,82.31139294245241 14.980814120307869,82.15161463485427 15.148980789149412,82.05255208395295 15.56360549727137,81.86401368117761 15.86958095632108,81.72660433645272 16.149192994618584,81.56363046279785 16.427207249934597,81.43580781671933 16.696433698189857,81.36230979522418 16.852217548098054,81.29520290608058 17.244073847434894,81.05873101088294 17.782926189808904,80.71680543252766 17.83405524828867,80.68165420476083 18.004618591649695,80.51548476485877 18.139631261522513,80.30777296517164 18.262660558373085,80.17995031909312 18.316585737187463,80.14799465757349 18.37410592797041,80.13201682671844 18.48475240593451,80.13840795887951 18.66250577313745,80.18314588519748 18.833069116546092,80.21829711267858 18.93892224528225,80.20871041427031 19.045174819835015,80.14479909118344 19.161812984381665,80.0169764452954 19.270462233548404,79.88276266677009 19.389497072756644,79.66865973477906 19.46339453997317,79.58877058097998 19.571244897601918,79.53444595625375 19.821697394809632,79.49290359632585 19.887206500878,79.49290359632585 20.095717192293584,79.50568586079085 20.30942067870536,79.55681491926988 20.5219258278109,79.67185530069293 20.728838736151246,79.80606907921822 20.835490756472264,79.8412203068422 21.06077817028089,79.85400257145005 21.174620214349336,79.80287351297102 21.39231815845181,79.6494863376768 21.4450449999592,79.6207262424996 21.668734630644224,79.54083708870053 21.9543383554283,79.48012133186086 22.124502253020324,79.44816567015076 22.538328069746402,79.34271198727883 23.086367664761177,79.1893248119846 23.634007814053827,79.01037310728421 23.917214864271546,78.89533272586117 24.209609167223775,78.81544357206208 24.314263958652944,78.79627017529316 24.434896580937163,78.79307460890311 24.485226747831323,78.80905243975816 24.605060478528447,78.93367951973234 24.654591753884617,79.01037310728421 24.70292469188544,79.04232876885146 24.811174495330803,79.03593763669038 24.992123428637342,78.96883074735631 25.09757711170048,78.95285291650126 25.54735304758927,78.94646178419734 25.66558899516428,78.96883074735631 25.71831583667167,78.98161301210702 25.829761206268994,79.01356867353141 25.99393341737371,79.01676423958814 26.21682415642551,78.96563518125197 26.611476576145318,78.89852829210835 26.785634931474917,78.89213715980443 27.07363533087296,78.94326621828345 27.351649586141356,79.01676423958814 27.455505486032536,79.05191546740258 27.670806755567913,79.21488934105746 27.83178340042543,79.31714745787265 28.054674139525588,79.42899227338182 28.39060803134593,79.5632060515738 28.668622286471475,79.70381096240303 28.841182858677474,79.8284380423772 28.929859819490424,79.91471832848019 29.132778270091713,80.22149267906865 29.23663416998289,80.2885995680694 29.29375491494923,80.30138183286772 29.519042328757852,80.26942617115762 29.69919237047953,80.26942617115762 29.87934241229644,80.29818626647767 30.048307972676717,80.33972862669127 30.433773139708887,80.47074683868367 30.638289373387643,80.54744042656887 30.807254933767922,80.5793960880885 30.97302492785338,80.56341825723344 31.325735541876295,80.48352910343436 31.563805220149916,80.44518230961081 31.728776322792623,80.4355956110597 31.850207836519598,80.43879117744974 31.96165320611692,80.47074683868367 32.1310182121717,80.56980938958499 32.15099050062073,80.48352910343436 32.26643032781277,80.33972862669127 37.71566950844761,73.48204366462637 38.75862241134214,72.02806106538799 41.876696084073124,68.13586149239234 43.79483466683577,65.41963026322382 42.34484652533496,64.40344022685198 38.14627204747224,60.73493028439851 38.00047434178893,60.57834754271423 37.857472756536204,60.428155933667206 37.833106564579865,60.40578697050823 37.755214639578156,60.33228894901308 33.2558574976143,57.507408470725444 30.035925153742625,55.40153037662947 29.987192769972808,55.38555254577442 26.193256856054784,50.09689056432334 23.36358302849158,48.30098238706301 18.37091036181845,44.98718028728695 17.734193806040572,41.18765213269822 16.998814145319354,34.486549912127124 17.036362047651792,34.4482031181131 17.313577411240086,31.795883212031463 17.342337506655372,31.549824618330312 17.399857697343087,31.306961591019217 17.470959044224262,31.140792151117143 17.518093645013334,30.97142714496787 17.871603150574238,30.968231578863524 18.48235573132054,30.95864488036002 18.749584950826062,30.95544931411282 19.10868669710528,30.92668921864992 19.5209147307085,30.88834242506445 19.87202756170305,30.830822234138648 20.285054486844263,30.696608455946674 20.869843092653486,30.47291882521403 21.15864238358952,30.3994208037665 21.515746901118256,30.319531649967427 21.90161151392091,30.20768683445825 22.1696396249168,30.09903758533913 22.31463843910974,29.980801637668883 22.41929323053891,29.84978342567649 22.41609766438769,29.744329742661712 22.446056097061597,29.37683963518597 22.48640011973013,29.24262585670829 22.476413975505245,29.14036773975024 22.392530364016963,28.6865973461715 22.280286102928518,28.424560921948625 22.251925453377467,28.379822995773527 22.111320542644222,28.098613174400786 21.927575488905607,27.900488072979083 21.844091323185577,27.788643257469907 21.783775012067274,27.708754103670834 21.67712299174551,27.52980239930376 21.670731859440842,27.392393054864588 21.65555292026738,27.267765974890416 21.690704147891353,27.1399433288119 21.705883087160796,27.056858608813243 21.77019385592143,26.96099162415912 21.90999987506981,26.657412839817873 21.949545006295587,26.44970103979743 21.997877944248792,26.241989239967452 22.1021332900042,26.01829960942528 22.304652294884853,25.58689817871981 22.32901848684119,25.538964686630838 22.6717429565916,25.088389859156443 22.665751270008307,24.79120220711912 22.638988403486362,24.529165782562924 22.55430590050696,24.33743181354038 22.49918238433798,24.225586998221676 22.300657837147284,24.053026425825205 22.133689505707217,23.164659035674738 22.192408033797154,22.95055610335037 22.34739299211974,22.886644780406343 22.41609766438769,22.80675562660727 22.670944065053607,22.586261562264678 22.83591516760108,22.496785709962097 23.081973761302226,22.4105054238591 23.449064423008974,22.39772315920363 23.625619452904925,22.39772315920363 23.749847087110105,22.416896556163024 24.04623584770467,22.52235023903495 24.284305525979036,22.611826091385147 24.65339341653001,22.611826091385147 24.76244211146575,22.615021657441876 25.028872439385662,22.69491081124095 25.201433011639278,22.698106377345294 25.325261199980226,22.67573741432917 25.447891051109423,22.61821722354622 25.781827713941933,22.38174532853905 26.040668572250933,22.20918475614258 26.394178077811837,22.052602014791628 26.60788156422436,21.972712860992555 27.0284979590241,21.793761156625482 27.326484502647773,21.68511190731589 27.6827901285909,21.59563605515616 28.25998926483683,21.486986805894183 28.51443621963926,21.461422276773717 28.91068642248267,21.45183557827021 29.029721261738523,21.455031144326938 29.18031231655454,21.480595673733113 29.35207399727017,21.560484827532186 29.520640111738597,21.69150303966743 30.029933467207695,22.119708904125705 30.20648849710365,22.23794485160548 30.6422838310776,22.4776123130027 30.952253747818006,22.611826091385147 31.257030869561472,22.698106377345294 31.505086692155214,22.746039869862827 31.873775136890323,22.816342325158395 32.19453008944122,22.857884684943443 32.52966508958072,22.902622611261393 32.73577910638233,22.91540487572639 32.95787095394376,22.918600442116443 33.43201308174126,22.92179600803032 33.65130880891972,22.93138270658144 34.169789417074966,22.976120632756544 34.756175805960915,23.056009786555617 35.038583964640644,23.084769881875665 35.36692838680245,23.110334410948514 35.741209072304244,23.132703374107493 36.274868619681314,23.16146346942754 36.887218983551215,23.148681204819688 37.04979341153233,23.145485638858197 37.66054599237387,23.132703374107493 37.77518692802792,23.13589894035469 37.899414562185484,23.164659035674738 38.030832220184955,23.212592527906565 38.2964636566145,23.378761967951494 38.41270237539215,23.452259989303787 38.698306100176225,23.58966933374296 38.93797356157344,23.65358065682984 39.17843991455627,23.69831858314779 39.587871827775786,23.730274244572183 40.303279200047236,23.727078678324986 40.96436194768695,23.704709715451713 41.17806543409948,23.656776222934184 41.48723645930264,23.528953577046135 41.60107850351319,23.46504225405449 41.76604960606066,23.38195753405584 42.00132316404655,23.218983660353345 42.13553694238138,23.167854601731467 42.20184494003461,23.15187677120974 42.25177566115904,23.142290072658618 42.36921271724367,23.113529977338565 42.82817590581935,23.097552146340664 43.420553981239486,23.084769881875665 43.6266679980411,23.10394327864459 44.105603475066545,23.20620139560264 44.47788693181785,23.330828475576812 45.46132241503683,23.567300370726837 45.774487897929205,23.570495936974034 46.20988378613416,23.583278201439033 46.28697681955026,23.58008263552516 46.51745702825985,23.58008263552516 46.870167642283505,23.60564716459801 47.5536193530822,23.701514149252134 48.25145111146949,23.688731884644284 48.66367914507271,23.672754053932085 49.02477812029215,23.60564716459801 49.671480820248036,23.433086592534863 50.038172036185784,23.324437343272887 50.31498795409958,23.31165507880789 50.387687084057475,23.308459512417837 50.710039819635256,23.31165507880789 50.96408732871705,23.356393004792515 51.29163285934087,23.433086592534863 51.618379498426705,23.433086592534863 52.19278251414607,23.40432649707196 52.3745303390397,23.401130930824763 52.500355756320864,23.42030432792701 52.69049194231579,23.50338904763996 52.80033952878877,23.583278201439033 52.84627579227085,23.62162499545306 53.018037472891244,23.755838773787886 53.20817365893304,23.842119059890887 53.26689218697536,23.858096890745937 53.40430153151051,23.867683589011357 53.81732845665098,23.858096890745937 53.97870454732511,23.842119059890887 54.41449988139429,23.752643207731158 54.67653630580764,23.672754053932085 54.95734668136377,23.576887069135108 55.23775761119852,23.445868856999862 55.669558487481765,23.17424573403539 55.820149542393764,23.06559648505912 56.01188351155916,22.918600442116443 56.23916815406991,22.768408832736096 56.43569547241563,22.656564017560246 56.61584551423255,22.560697032906123 56.96536056210349,22.3945275931469 57.37918637883031,22.15486013174968 57.570920347900476,22.062188713342753 58.14492391799444,21.768196627219307 58.40376477625582,21.665938510261256 58.76646153450362,21.471008975039133 59.13674776240994,21.244123778249765 59.377214115345154,21.068367640082272 59.63845164822051,20.83189574464654 59.878918001155725,20.58903271728783 60.129370498363436,20.32380072653205 60.3211044674336,20.084133265134827 60.36224738168774,20.03939533895973 60.47608942589903,19.905181560767755 60.750908114872615,19.64314513635441 61.237433061556594,19.154223514865986 61.53222403902756,18.873013693683717 61.69999126205323,18.681279724375468 62.068679706789084,18.262660558611174 62.1321915840586,18.221118198492803 62.43976482623266,17.888779318688655 62.70100235910801,17.60117836520246 62.86956847362406,17.466964586820016 63.01496673358599,17.297599580718362 63.36128621530498,16.818264657923915 63.66925890315279,16.34851643363298 63.90892636455001,15.87237707694288 63.93249366492074,15.629514049441312 63.95685985687782,15.370673190989459 64.02716231222026,15.115027898737187 64.10425534563562,15.028747612634188 64.18773951130878,14.932880628122916 64.35710451741043,14.84020920971599 64.52646952346447,14.728364394492523 64.67466390371413,14.584563917606571 64.79010373104903,14.546217123735397 65.08329692539566,14.539825991431472 65.51989115090909,14.530239293213672 65.58020746202664,14.520652594519694 65.70084008426399,14.453545705328473 65.93890976258449,14.322527493050373 66.10188363633385,14.21387824393125 66.29321815968338,14.124402391914376 66.35073835046633,14.105228994812128 66.7142340002045,14.04131767172525 66.89198736740744,14.038122105763758 67.21114453683548,14.082860031653151 67.46239592558044,14.130793524218301 67.79832981730554,14.220269376235176 68.14864375671449,14.335309757801078 68.65953489521195,14.55899938853372 68.9335546927904,14.632497410028869 69.2694885845155,14.661257505348917 69.46042366204766,14.654866372997374 69.82711487798541,14.619715145230547 69.96452422251983,14.57178165299872 70.14826927630531,14.511065896254276 70.24773127273754,14.466327969936325 70.5696845625478,14.293767397730324 70.94476413968208,14.002970877854077 71.09575464031471,13.855974835006634 71.25633183945085,13.606720675248758 71.34940270362677,13.466115764419536 71.40292843667216,13.41498670594051 71.53274831159564,13.360662081547611 71.67015765617766,13.322315287533584 71.89224950369147,13.252012832428488 72.12912084475334,13.168928112239362 72.43669408683216,12.874936026449241 72.63601752556086,12.683202057140992 72.92002346731657,12.331689780520302 73.06662006453787,12.203867134346547 73.281122442536,12.012133165324006 73.40335284780096,11.925852879078153 73.55674002314281,11.826790328510153 73.80199972525834,11.663816454664808 73.95618579213817,11.494451448848858 74.01011097095255,11.392193331890809 74.03767272896562,11.302717479540611 74.13993084587604,10.99594312909502 74.24019173389388,10.689168778554192 74.26895182921393,10.561346132189968 74.34165095917183,10.366416596967845 74.48145697831947,10.072424510987252 74.56853615596046,9.922232901797376 74.8066058342817,9.599480720687206 75.0211082122322,9.299097502259833 75.15851755681423,9.161688157820661 75.54278438654016,8.89006503471334 75.67699816492261,8.755851256521366 75.76008288487365,8.669570970418366 75.96579745590627,8.512988228876946 76.01213316510973,8.442685773628996 76.03530101971145,8.340427656670945 75.99775311747426,8.231778407551822 75.94262960130453,8.0911734967226 75.86553656788769,7.915417358412254 75.78844353447232,7.762030183308503 75.74130893377848,7.592665177159231 75.75728676453829,7.503189324809032 75.76487623419683,7.429691303313884 75.7992285702352,7.3114553558341076 75.88151439864824,7.22517506968349 75.97857972051412,7.186828275859934 76.08842730698784,7.1516770482359595 76.20466602576549,7.116525820421514 76.42236396986797,7.100547989899788 76.78945463162233,7.065396762085342 77.39581330895656,7.062201195885762 77.5515971588655,7.081374592940392 77.76969454868936,7.081374592940392 77.95623572281019,7.100547989899788 78.12480183737385,7.110134688117588 78.4839035837007,7.180437143698861 79.72977493714889,7.167654879043392 80.23507383497639,7.1516770482359595 80.41402553948632,7.148481481988761 80.77352673158215,7.22517506968349 80.94009561725322,7.231566202035034 81.21012095709409,7.244348466642886 81.5156969703748,7.276304128019662 81.84244360941376,7.3561932818187366 82.04695984309178,7.397735641937108 82.33735691715067,7.480820361935762 82.84025914031659,7.531949420129082 83.03598756712431,7.531949420129082 83.53529477836852,7.563905081839182 84.11409169764282,7.6374031033343295 84.40848322944076,7.710901124829478 84.75759883149436,7.746052352453453 85.12948284242906,7.7652257492223775 85.3759408818992,7.7812035800774275 85.78377501209108,7.848310469411503 85.98749235423111,7.864288300076082 86.19160914218774,7.886657263235058 86.46163448202861,7.947373019979501 86.74444208647733,7.982524247603476 87.11832332630536,8.02406660767423 87.22697257542374,8.0368488723297 87.5153724206384,8.02087104147465 87.67634906554278,7.9250040568205256 87.89125088931065,7.7971814109324775 87.99710401809443,7.659772066493305 88.06221367839305,7.525558287825155 88.1017588095236,7.330628752603032 88.12093220648299,7.2794996941240075 88.17206126486752,7.20919723901891 88.19882413138947,7.148481481988761 88.48602563934476,6.816142602327466 88.63941281463899,6.649973162425392 88.93340490057196,6.397523436229847 89.12114441199978,6.234549562574972 89.36480633113457,5.972513138018774 89.58530039562002,5.758410205837255 89.6899551870492,5.678521052038182 89.84813571161898,5.582654067717381 89.90285978192372,5.560285104558405 90.01510404310666,5.531525009238356 90.40016976437057,5.470809252208206 90.67498845339178,5.467613686103862 90.97417333436856,5.419680193729182 91.2070502176936,5.403702363159837 91.53779131442177,5.397311230713059 92.10660208947118,5.4260713260331075 92.66902173221666,5.442049156745305 92.93704984325943,5.4484402890492305 93.2090724118984,5.432462458337033 93.48229331789123,5.403702363159837 93.75791089849804,5.339791039930108 93.9196864350364,5.2886619814510825 94.31074384278763,5.090536880267467 94.86797069058379,4.822109323407344 95.13759658465491,4.687895545072517 95.41561083982883,4.598419692722318 95.79108986268447,4.4865748775464676 96.02796120369872,4.4322502528202445 96.5316623184495,4.3267965699483195 96.85880840325672,4.2564941143670465 97.07171299813125,4.192582791423022 97.44279811748032,4.042391182375998 97.59938085892577,3.9625020285769246 98.13823320130201,3.601403053262257 98.7138345544236,3.294628702864283 98.83846163439777,3.205152850371232 98.94151864279857,3.122068130467813 99.0513662292723,3.058156807380936 99.21274231989881,3.0198100138430863 99.27665364293807,3.010223315291962 99.33017937598345,2.984658786028641 99.44242363707114,2.959094256812937 99.77436307115393,2.891987367478862 100.35315999042821,2.8184893459837137 100.56167068179617,2.792924816910863 100.89520789890656,2.7673602877903947 101.47640149279557,2.697057832256739 102.05679619514585,2.6075819801922466 102.27968693424602,2.5788218845864916 102.60883024789744,2.502128297177469 102.7078927986083,2.460585937249568 103.55072337118854,2.233700740317345 103.73646565377138,2.2081362111968765 103.9349902010097,2.147420454357198 104.45786471262464,1.827863839160902 104.65798704289132,1.7319968545067779 105.33744429590482,1.4539825990955295 105.64661532115412,1.3293555194070623 106.1331402677436,1.1727727779132595 106.37120994611246,1.0673190948508642 106.54097439793549,0.9426920150671617 106.7906280035576,0.5975708704646914 106.87131604889466,0.4377925628665433 107.1257630036971,0.1917339691653953 107.32109198483107,0 107.52880378461343,0.07030245558127338 107.80761693137293,0.210907366220026 107.90827726515903,0.23327632909329615 108.00773926163887,0.3003832182845183 108.19068542383876,0.5336595475206675 108.37922382685218,0.8532161627169635 108.50305201519313,1.0864924918102596 108.5174320628777,1.3229643869602834 108.48307972674337,1.4028535407593574 108.26338455379592,1.6329343037483084 108.13955636545496,1.7895170451468758 108.09401954774187,1.9524909189446045 108.08603063240959,2.1186603588942963 108.17710426769291,2.4286302755394678 108.28615296267627,2.904769632229567 108.29933467305311,3.2211306813691354 108.12757299233748,3.9369374991707504 108.0061414786105,4.598419692722318 107.96859357627733,4.809327058656638 107.90228557862409,4.975496498558712 107.85794709826561,5.017038858819937 107.47248193118507,5.355768870785158 107.3678271397083,5.432462458337033Z"/></svg>