<svg xmlns="http://www.w3.org/2000/svg" width="256" height="256"><path d="M83.65309849569104,15.989570426172044 84.75644692791074,16.000915911619185 85.67354031216799,15.902588373237526 86.30888748137247,15.891242888297567 90.5161715635312,13.735600706651493 99.19499498649215,12.96788954407643 101.5316922020102,12.790143609537168 102.47336747073606,12.877125662471686 103.065223613586,13.16454462027621 103.76722550819338,13.493563689902933 104.47111831693864,13.83771007313984 105.5186847805413,14.567602952337513 105.85999479259958,14.919312992351335 106.9921796663931,16.061425165721793 107.8842184375777,16.851827299022077 108.55549297647252,17.54012006566495 109.11662176366623,18.281358429577168 109.91647846782494,19.083106047986465 111.04771788457859,20.043690458823683 111.33939139892566,20.293291132180094 111.85702915959574,20.807619793292055 112.88474102415901,21.8740953986116 113.09321431407272,22.222023610518733 113.11968711284828,22.26740555123657 113.44114252580991,22.76660689840023 113.7555070106013,23.10318962486022 114.02779865457023,23.28471738750617 114.37903596620455,23.462463322045434 114.94394658167401,23.511627091039024 115.16329262826089,23.49271794881497 115.46347525659469,23.29606287278425 115.71827594421065,23.10318962486022 115.96220387526614,22.921661862214272 116.28129564554223,22.785516040455224 116.66420576992988,22.740134099793735 117.15158890343596,22.66449753191188 117.49478982968846,22.59642462103236 117.85879081213471,22.44515148538136 118.22042815178006,22.240932752573727 118.51777440876616,22.082095959920398 118.69930217141211,22.01024122070877 119.18006710529474,21.790895174009187 119.87497807173013,21.329512110899163 120.76039864312045,20.792492479569166 121.13527238218352,20.561800947760563 121.48509150805947,20.550455462651545 122.18803885982032,20.747110538851324 122.91462263889633,20.974020242215115 123.65822464577674,21.121511549421303 124.22455344700458,21.32573028222894 124.82728234641496,21.49591255976587 125.84506691140217,21.817367972841094 126.68794191347871,22.07075047481138 127.24008885819435,22.1274779008073 127.60787166902819,22.101005101975392 128.67671091725958,21.90813185422042 129.67085905487528,21.802240659456324 131.62322796052908,21.666094837528217 133.31748707844525,21.503476216542783 134.79050923586206,21.42027599194037 135.60123869658125,21.367330394783735 136.0791672591162,21.424057820610596 136.8525511645557,21.454312447549192 137.5517166879281,21.620712896810375 138.1402637308254,21.953513794769204 138.8748838953396,22.562388165254475 139.4251399258029,22.951916489378284 140.01321424026523,23.4775906354302 140.78517996005908,23.893591758160504 141.6677641602153,24.33606567961001 142.62362128534153,24.755848630672414 143.8002426427003,25.19832255229098 144.42566251249778,25.447923225985516 145.05013692508544,25.644578302185295 146.1775945133943,25.920651774542677 146.8644690945042,26.090834051910548 147.64258028537293,26.370689352543682 148.8631653977475,26.801817788715105 150.45815152057938,27.31992827815917 151.53975443973454,27.633820034232066 151.99310111780085,27.788874998215167 152.12971966827752,27.962839104084203 152.49466610776363,28.375058398369696 152.93383092937324,28.692731982943755 153.20423165914795,28.772150379270418 153.88165166923037,28.76080489399234 154.69427204420012,28.68895015461165 155.29038274398707,28.620877243732128 156.20653067103447,28.658695527503994 157.76369851003813,28.9688054554702 159.7335583718767,29.282697211712154 161.88683691049735,29.596588968010465 162.27163794907923,29.619279938172145 163.216622317645,29.6684437073348 165.2337550343384,29.60415262461832 167.11332374345804,29.22975161444281 169.27274775315445,28.133021381452075 171.3853716366564,26.930399954035362 172.96853954577435,24.763412287449327 173.17795829278518,24.680212063015976 173.63508679923993,24.302029224170244 174.04021516535343,24.112937804747382 174.4963982147111,23.84442798899785 174.7502534452863,23.655336569574988 174.90199930937314,23.541881718146684 175.30712767554297,23.466245150152123 175.76331072490063,23.352790298723818 176.0965843515771,23.24689910379066 176.55465831518532,23.37169944044069 177.12855077307736,23.727191309124738 177.3256785778257,23.867118959328597 177.89106192195644,24.1999198576819 178.29855393075636,24.464647844761203 178.87528276005156,24.831485198328853 179.66663035028077,25.26261363466934 180.57379643501832,25.897960803986518 180.88296090571836,26.189161590066792 181.44598060704993,26.832072415991824 182.0108912226321,27.51658335435895 182.61598376472892,27.993093731360922 183.5831863751332,28.50364056352089 183.8947144886324,28.545240675906626 184.51020705879745,28.63600455734231 185.13279055724723,28.65113187089614 186.04610211317328,28.62465907206423 186.89464985771892,28.537677019129713 187.2288689415497,28.488513250136123 187.88690708114126,28.344803771374742 188.85174604874643,27.98931190291611 190.75589664233468,27.036291149024873 191.59168071624097,26.559780771966544 191.9627726268575,26.30639827016532 192.4563012314948,25.966033714866043 193.0571392167673,25.50465065158696 194.29332437118794,24.559193554472635 195.49689125581446,24.14319243168598 196.46456659476735,23.787700563396406 197.34856898051288,23.375481269110914 198.16544391241965,22.891407235106612 199.69141166721852,22.066968646535628 200.48843200003043,21.628276553418228 201.21028849367633,21.174457146916062 201.71894441192384,20.210090907746743 201.7028716412729,19.824344412293158 201.72556261160364,19.518016312602704 202.0172361260634,19.10201519004146 202.10232726486007,18.76165063491124 202.54669210044744,18.251103802638568 203.05818438998628,17.695175029648052 203.94171404729596,17.17706454037305 204.26553310305763,17.143028084764225 204.9604440693803,17.143028084764225 205.98059227716666,17.04091871844494 206.9553585443479,16.798881701527318 207.79019716109983,16.560626513110865 208.48699904161674,16.17866184559491 209.09067339818057,15.830733633856836 209.74114788099524,15.27480486069726 210.06827603659679,14.756694371760378 210.4422043185055,14.026801492562706 210.95653297928024,13.01705331307002 211.28460659203438,12.21530569449166 211.5186072235138,11.625340466061381 211.93791744608401,11.103448148285214 212.59217375728713,9.715517129777739 213.2464300685466,8.497768388807195 213.62035835039896,7.767875509947644 214.2292327209406,6.413980946654517 214.59701553171806,5.778633777337338 215.07588955140733,4.912595076549677 215.25789004260096,4.281029735508247 215.5259271296329,3.4565911467682024 215.90647361127776,2.3485154290629215 216.11069234425443,1.73964105857765 216.177347069601,1.7547683719624183 216.6013845776004,1.9173869927224358 216.85051252269005,2.0005872175502644 217.15258606521806,2.0875692704284288 217.39935036762125,2.1707694949181358 217.72647852322282,2.284224346684562 218.08338857732713,2.3938973697807624 218.22142531350582,2.43927931044225 218.3939712337292,2.5035703928769633 218.5348443411992,2.5527341622086763 218.60717180912846,2.579206960702463 218.83597242663012,2.6624071855302915 218.9948092190017,2.7077891258536573 219.11251862759244,2.7304800964098157 219.26237357748505,2.7418255816315416 219.3607011155858,2.745607409963645 219.44579225426887,2.7418255816315416 219.56255620587518,2.7380437531867305 219.80459322262377,2.7569528952417244 219.9048116749742,2.7909893506814862 219.98092097123558,2.8288076343969983 220.07026666696925,2.8779714033905894 220.1317213782253,2.904444202222498 220.27448539994592,2.904444202222498 220.38463115175887,2.9120078589994125 220.51132240277306,2.942262485994364 220.5628498145658,2.9649534563251074 220.6980501793968,3.036808195705796 220.77699584700585,3.0632809945377044 220.99350552224502,3.127572077254186 221.1164149448699,3.1653903608569904 221.30834273558497,3.2296814437988863 221.50499781178388,3.2864088694003315 221.64067090521976,3.3317908102872336 221.86474423723587,3.4149910345515258 222.08787211215574,3.498191259323001 222.18478146466543,3.536009543094867 222.31478181551864,3.585173312088458 222.50623687762794,3.6570280516382074 222.6627100272567,3.717537305740817 222.81823771967566,3.7818283884572983 222.92932892864295,3.8272103288370176 223.18318415916178,3.925537867218676 223.3684937501962,4.001174434875114 223.5660942834931,4.076811002531553 223.79205852975977,4.1486657420813025 223.9504225935264,4.194047682573729 224.13289581321314,4.254556937014461 224.3460963886124,4.3491026467258935 224.49689679560214,4.409611900659442 224.67511545846455,4.489030296817045 224.84482500739657,4.55710320786563 225.008389085141,4.625176118914215 225.11238936587992,4.67812171623991 225.26035340152197,4.765103769343488 225.36529913941348,4.821831195283055 225.55060873033605,4.927722389934445 225.66784541043458,4.984449815874012 225.81533671752808,5.041177241700871 225.96613712451781,5.105468324417353 226.10275567505082,5.181104892073791 226.23464694015462,5.256741459955645 226.32966537841463,5.321032542334004 226.4308292877495,5.404232767161833 226.54381141085466,5.476087506317107 226.74330285840213,5.55550590247471 226.86999410941544,5.589542357914472 227.07752194223204,5.653833440630954 227.30159527419178,5.744597321897575 227.38054094180083,5.7937610908911665 227.52472314911077,5.9072159424885315 227.64148710066075,6.047143593086867 227.73177825343427,6.175725758238061 227.7970147930797,6.285398781334262 227.84381491938686,6.345908035605932 227.91992421570367,6.455581058871194 228.0210881250958,6.580381395915699 228.09341559302504,6.682490762404046 228.16810670369708,6.758127329891424 228.33167078161057,6.879145838434765 228.49807123058997,6.988818861700026 228.62712612445878,7.060673601249776 228.7538173753594,7.132528340405051 228.91359962482807,7.215728565063818 229.07480005988694,7.276237819335488 229.18825491148343,7.325401588160019 229.32770983336414,7.389692671101915 229.48040115449174,7.472892895535268 229.5867650779171,7.522056664359798 229.7479655129751,7.609038717294316 229.85007487946345,7.677111628342901 229.94840241756333,7.737620882614571 230.04058448458923,7.805693793494096 230.13276655150062,7.892675846428614 230.15876662172764,8.00991252663985 230.1597120787684,8.123367378237216 230.18145759200203,8.217913087948649 230.22494861846928,8.297331484106252 230.27458511606778,8.376749880432916 230.31051248575812,8.459950104697208 230.33793074157444,8.56584129985578 230.39654908159554,8.75115089060842 230.43342190838212,8.872169399151762 230.45422196457585,8.955369623754175 230.52749488954586,9.133115558124375 230.55538587391075,9.223879439165582 230.56909500187524,9.382716231818911 230.56909500187524,9.435661829088252 230.5728768302637,9.537771195632953 230.5870586866632,9.598280449904623 230.6187314994174,9.696607987722745 230.74069546494601,9.893263063922525 230.79789561932057,9.987808773633956 230.89244132903198,10.093699968623469 231.00447799504005,10.195809335111816 231.13211470320772,10.331955157039925 231.2063330853303,10.407591725034486 231.3415334501613,10.521046576462789 231.42757004605417,10.589119487680435 231.5755340816971,10.710137995885654 231.64360699274567,10.76308359338041 231.89368039487607,10.929484042641592 231.98964429023317,10.982429640136349 232.0997900420461,11.042938894182605 232.21088125101429,11.114793633394232 232.29124510421263,11.179084716336128 232.4349545829749,11.288757739432329 232.5261911929028,11.356830650311853 232.7086644125886,11.504321957687102 232.80273739380783,11.587522181951394 232.89586491781813,11.65181326489329 232.98521061349456,11.697195205385716 233.10481093633587,11.750140802711412 233.1776111327573,11.791740915097149 233.31706605458257,11.878722967862606 233.43004817768684,11.94679587891119 233.52033933046127,11.999741476405946 233.61961232565915,12.056468902401868 233.72644897763217,12.135887298334056 233.794049160075,12.177487410719793 233.96659508029921,12.272033120431226 234.05688623307364,12.328760546258085 234.17648655591495,12.385487972197652 234.26394133739802,12.476251853464273 234.29939597853894,12.548106592788608 234.35234157592186,12.661561444385974 234.40575990196518,12.756107154097407 234.4520872997238,12.827961893647156 234.52677841033946,12.937634916743358 234.582087650577,13.005707827622881 234.655360575547,13.081344395448381 234.72910622917829,13.145635478221216 234.78441546941582,13.198581075715971 234.84303380938056,13.255308501317415 234.89550667821405,13.296908613534093 234.96877960329675,13.34607238292216 235.0373252427812,13.383890666468611 235.271325874317,13.54272745912194 235.39234438274764,13.63727316883337 235.48547190686975,13.686436937657902 235.6320177568661,13.765855333984566 235.7213634525989,13.811237274646054 235.81070914822072,13.852837386919084 235.92652764267356,13.902001155912675 236.1236554474219,13.981419552070278 236.27634676860586,14.023019664286956 236.3737288495523,14.034365149339619 236.53729292740942,14.060837948171528 236.66303872132562,14.083528918558626 236.7821663155057,14.128910859051052 236.9197303231367,14.21589291198557 237.0019850906411,14.265056681204577 237.12820361310588,14.348256905637928 237.1934401527504,14.389857017854606 237.3182404895695,14.476839070789124 237.44634992628485,14.665930490211988 237.54136836454396,14.839894596250085 237.66853234405036,15.025204187171786 237.7120233705176,15.123531725384384 237.76544169656094,15.27480486069726 237.80325998038916,15.376914227185607 237.86849652014638,15.53196919116871 237.921914846077,15.656769528213216 237.96067858705868,15.736187924145405 238.00842417046297,15.834515462188941 238.06373341064415,15.940406657347513 238.1261335790537,16.050079680443712 238.1828610049369,16.15218904693206 238.21169744645525,16.216480129704895 238.25235210151845,16.318589496193244 238.41969800776405,16.571971997994467 238.4735890622432,16.655172222822294 238.5288983024244,16.73837244725565 238.63478949730032,16.882081925791613 238.70617150813334,16.98040946417327 238.75675346282895,17.063609688437563 238.81726271710062,17.158155398148995 238.88769927077928,17.267828421414258 238.996899565496,17.426665213898524 239.04039059196325,17.49851995339192 239.11271805994883,17.619538461597138 239.2219183546092,17.77081159730449 239.28526398011584,17.838884508353075 239.3467186914283,17.922084732617368 239.37460967579315,17.967466673504273 239.41337341677485,18.039321412828606 239.44173712968828,18.10361249526332 240.00617501666554,18.63306846992911 240.31817585876962,19.08688787648763 240.67224954158257,19.46885254360911 241.5028336013975,20.096636055980316 242.2733811355457,20.66012848614222 242.8047280241803,21.276566513404408 243.53556636019331,22.33547846228516 243.79225796205984,22.94435283277043 244.04469500704573,23.454899665212164 244.32927759327714,24.52137527053171 244.45124155880487,24.782321429335262 244.72211501712815,25.451705054092205 244.76087875805348,25.542468935696945 244.84975172518222,25.716433041509628 244.9679338623215,25.818542407997978 245.14615252512755,25.939560916203195 245.3645531146173,26.02654296913771 245.7829178800904,26.166470619566986 245.95120924337675,26.238325359116736 246.1634643616217,26.36690752426793 246.38139222256376,26.50683517447179 246.5638654422496,26.68836293711774 246.72175677746858,26.89636349842654 246.78604786007236,27.032509320523708 246.8096842875002,27.180000627560837 246.79881153093976,27.437164958032284 246.75815687570747,27.58087443690637 246.6631384374475,27.75862037127657 246.52746534406793,28.129239553345386 246.50146527384095,28.325894629545164 246.50051981674383,28.567931646462785 246.5147016732569,28.67382284105782 246.6087746543634,28.74945940905238 246.76619326103295,28.7948413494321 246.95481195190638,28.80618683487924 247.36088577511785,28.828877805040925 247.73386859992945,28.862914260480686 248.07612406908484,28.904514372866423 248.47227059277662,28.980150940748278 248.7748168638532,29.06713299345738 249.25463634063786,29.256224412880247 249.5510371405832,29.38102474975569 250.12823869842785,29.60415262461832 250.46813052478407,29.75920758860142 250.7924223090934,29.997462777017876 250.99947741336234,30.190336024941907 251.14507780631794,30.432373041859528 251.25522355813177,30.629028118059306 251.39515120850467,30.84459233631408 251.50907878870697,30.988301814850043 251.62206091181213,31.154702264111226 251.62300636890924,31.392957452527682 251.34551471096253,31.71063103710174 251.1067867938857,31.854340515806765 250.85482247750386,32.013177308291034 250.62365821731575,32.258996153315344 250.41045764186012,32.542633282449636 250.13816599789118,32.83005224025416 249.88809259581714,33.034270973061794 249.60256455237592,33.24605336264634 249.35201842169698,33.442708439015185 248.97099921150357,33.696090941041824 248.7223439949625,33.85114590502492 248.32288837148803,34.13478303415922 248.03546941396527,34.323874453582086 247.73197768579158,34.57725695555237 247.46441332730822,34.81929397230093 247.1916489547344,35.068894645995464 246.9647392514833,35.303368006136175 246.82764797234537,35.65129621798695 246.72742952010762,35.98409711617119 246.7723387321642,36.2299159611955 246.9912120502025,36.57028051626937 247.19732169737432,36.759371935692236 247.62797740505266,36.96359066872528 248.0293239427777,37.118645632708386 248.32099745723835,37.20940951374959 248.58761635868004,37.2358823125815 248.89158081534595,37.228318655804586 249.10572684784233,37.167809401532914 249.53307345579438,37.01653626622004 250.0526021306587,36.77828107774722 250.1518751258557,36.668608054312905 250.26202087766953,36.47951663489004 250.23412989330464,36.08998831093529 250.2052934517863,35.80635118180099 250.1679478964503,35.511368567614035 250.1887479525868,35.34496811835285 250.2776209197719,35.265549722364305 250.49602150914896,35.24664058030931 250.61278546069894,35.30714983441192 251.03020476907403,35.57944147849356 251.60929724105742,35.93115151867644 252.26260809516342,36.28286155869026 252.80671865455272,36.558935031216706 252.8733733798984,36.60053514326432 253.40661118261542,36.92577238461529 253.9043943442461,37.330428022292935 254.2083588010247,37.67079257719774 254.5397415135624,37.996029818774126 254.5685779549689,38.91879594533229 254.66737822161647,39.31588792623301 254.9212334522489,39.724325392411814 255.15050679829912,40.04956263376279 255.30792540496955,40.46556375649309 255.2001432958413,40.96854693204521 255.05217926019924,41.395893539884526 255.12876128500915,41.82702197622501 255.4724349398102,42.24302309895531 255.85723597833572,42.6968425056829 256,43.105279971467226 255.72250834199696,43.55531754986271 255.22283426617201,44.00157329958796 254.78650581585376,44.51212013202969 254.3790138071102,45.15881278628683 254.1483222753016,45.763905328665416 254.04904928010458,46.03619697252163 253.9152671008629,46.406816154590445 253.74177572354245,47.057290637461456 253.55646613250804,47.67372866494906 253.43119306714038,48.324203147481946 253.2974108878987,49.07300516856555 253.19246515017537,49.71591599449059 253.1258104248288,50.45337253012705 252.9187553205044,51.054683244173525 252.58359077957738,51.48959350884612 252.0971531031684,51.89046731785353 251.4674786764903,52.113595192716154 250.70402207051322,52.23083187275834 250.03889300269418,52.28377747042215 249.1931816293254,52.28377747042215 248.47652514976912,52.4690870614002 248.12434238103768,52.73381504847951 247.5050679824278,53.27461650791619 247.01815757741392,53.68305397403864 246.65604750921912,54.29571017285602 246.46601063269827,54.874329916402694 246.24571912907152,55.55505902643771 245.8183725212322,56.08073317248963 245.33666213025245,56.52320709371372 244.95186109172693,56.98080832888611 244.70226041803238,57.3892457948395 244.70604224642082,57.427064078611366 244.74386053030452,57.6728829239738 244.9310610355904,57.89222897039161 245.2941165608823,58.11535684542331 245.67371758531735,58.38764848911046 246.0036821122666,58.70154024557783 246.23011908696913,59.064595770813376 246.35397396674745,59.36336021355786 246.35681033798332,59.61296088725239 246.2981919980177,59.828525105281756 246.01360941172996,60.08190760713933 245.69640855570444,60.225617086182474 245.29033473249385,60.35419925116461 244.819024369526,60.395799363550346 244.24040462609204,60.38445387849768 243.84945811643524,60.38067204982746 243.71567593719357,60.37310839305054 243.40840238063143,60.361762907941525 242.63123664686069,60.3466355943877 242.15047171297718,60.331508280833866 241.63283395225073,60.27856268333911 241.17665090295029,60.221835257737666 240.66846771325046,60.13485320480315 240.29832125973022,60.089471263916245 239.8960292648517,60.0327438383148 239.48853725599542,59.987361897427895 239.20490012686025,59.96845275554197 238.7439897920179,59.94197995704818 238.69624420872634,59.94197995704818 238.39511612318185,59.93819812860337 237.61700493225763,59.92685264332529 237.3442405597965,59.88903435938436 236.76136625942553,59.83230693361386 236.083000792246,59.699942939961495 235.42779902388853,59.529760662424565 235.15928920830893,59.48816055020789 234.68703338830034,59.416305810827204 234.30270507837972,59.40496032577454 234.02710433457003,59.44277860965911 233.63426691066354,59.54110614770264 233.24190221536108,59.699942939961495 232.7332462971136,59.945761785380284 232.3408816018675,60.142416861411 231.94993509215436,60.3466355943877 231.4502610163858,60.52438152892696 231.07255090608862,60.649181865407925 230.6376406413597,60.80801865806126 230.25189414573617,60.95172813676628 229.75032915571788,61.201328810291756 229.20480041073927,61.549257022142534 228.58647146922652,61.99551277186779 228.19363404537552,62.328313670221085 227.78897840775423,62.75187844955924 227.61548703043374,62.95987901086804 227.5422141054074,63.17922505762398 227.5563959618641,63.25486162528042 227.58475967477753,63.41369841753927 227.6712689991635,63.53849875441472 227.83199670567294,63.64817177751092 227.9823243841141,63.72002651706067 228.3226889391316,63.867517824266855 228.77839925988437,64.03013644502687 229.02469083373902,64.15115495340115 229.25538236537855,64.40453745520237 229.47047385497206,64.84701137682094 229.5451649656441,65.19115776022691 229.51916489547344,65.45588574730621 229.36552811719235,65.68279545061365 229.164145755507,66.13283302867102 228.9797816215697,66.57530695045864 228.8649085842712,66.91188967686227 228.8341812286141,67.15014486550415 228.9589815654332,67.4716002781849 229.253491451297,68.08047464900828 229.3329098473419,68.34142080764278 229.41989190027644,68.57967599605924 229.60047420582526,68.82927666992283 229.7838928827218,68.96920432001399 230.01789351420123,69.10535014211115 230.20131219104144,69.150732082829 230.40033090998398,69.131822940774 230.63527699867325,69.05618637311755 230.8394957315936,68.9843316335678 231.00920528058197,68.91247689441253 231.2857514814888,68.72338547498967 231.68520710496236,68.4510938310771 232.00760797507834,68.1939295004366 232.38011807139773,67.83087397514468 232.6855007137093,67.53589136095773 232.96535601445515,67.33167262815009 233.19037480356837,67.24090874654534 233.36055708104894,67.24469057521557 233.46503009028007,67.28250885876203 233.61346685458338,67.38083639714368 233.77135818980148,67.53967318923348 234.1925593265659,68.09182013394825 234.78063364091466,68.91625872268828 235.22972576204396,69.66506074360284 235.30772597261225,69.93735238762811 235.2235802909127,70.118880150105 235.06899805553454,70.21342585981644 234.71303345852735,70.31175339819809 234.18783204102397,70.46302653351097 233.56288489988776,70.6861544083736 232.98521061349456,70.8109547454181 232.69731892742325,70.86390034291286 232.32953611670212,70.90550045512953 231.44742464509446,70.97357336617812 230.29727608645487,71.11350101660739 229.93752966100288,71.2042648976486 229.68178351623345,71.30637426413695 229.4893829969707,71.44252008606506 229.36032810315822,71.624047848711 229.10363650134803,71.95684874717702 228.83039940022564,72.32746792924583 228.42668921975783,72.630014200097 227.86366951842626,72.98550606878105 227.3739227421774,73.28048868313707 227.33704991533358,73.28427051130011 226.80192119842323,73.55278032704965 225.92264609805054,73.86667208312254 225.63995442606972,74.05198167443871 225.330789955257,74.3280551467961 225.17478953428946,74.52471022299588 225.14831673557026,74.75540175463541 225.19889869026588,74.86885660623278 225.33268086950756,75.02769339832257 225.59646339960247,75.21678481774543 226.14435578738022,75.5306765742128 226.8723577521019,75.90507758455738 227.26992246143845,76.0487870632624 227.83483307702062,76.21518751235452 228.62476248160328,76.52151561181957 228.94196333774062,76.6916978895819 229.10363650134803,76.82784371151001 229.2426186945675,77.04718975787148 229.428873742699,77.37242699922245 229.68556534462192,77.7581734948451 229.7867292539568,77.94726491426796 229.95454788875182,78.30653861145318 230.02262079968682,78.60530305397224 230.0358571990464,79.01752234825773 229.95454788875182,79.41839615760327 229.83069300897174,79.65286951740585 229.5914923634599,79.8003608247811 229.3385825899246,79.81926996683609 229.03225449051592,79.74363339878518 228.8398539713095,79.65286951740585 228.45458020412272,79.47512358343013 228.2106522730672,79.39192335877136 227.35784997152643,79.25199570856749 226.82744853998895,79.17635914051658 226.608575222007,79.16501365546392 226.4161747028006,79.1877046256256 226.01057360813854,79.30494130583683 225.85599137270398,79.36923238827156 225.5269723029082,79.5469783225854 225.1728986200389,79.7625425406711 224.9152615611316,79.93650664654015 224.769661168176,80.0839979539154 224.38958741508054,80.54159918891872 224.06245925947812,80.95760031147998 223.4937668156202,81.68749319067764 223.09903847757496,82.09214882801716 222.9127834293871,82.22829465011434 222.43863669518427,82.51571360758074 221.39768843131773,82.76909610955101 220.60066809839313,82.84095084893171 220.15441234855606,82.95440570069813 219.6202290887428,83.275861113717 219.12339138415288,83.48007984675004 218.20440708575777,83.60866201190125 217.45324142210043,83.54058910102172 217.0722222120197,83.47629801824888 216.7413122280297,83.43847973453337 216.5309480238654,83.47629801824888 216.41891135797007,83.59731652662316 216.20901988235434,84.34990037620794 216.11872872957903,85.0041566873547 215.84596435700607,85.7643041932092 215.68050936501106,86.42234233302618 215.4800724604792,86.8988527097464 214.9893802270205,87.71950947015434 214.70101581245697,88.20358350382051 214.25286914836843,88.78220324736718 214.23112363519115,88.80111238942217 214.16541436694172,88.85405798669152 214.12806881154935,88.88809444235669 213.45490335840395,88.91834906912624 212.44137335029828,88.84271250163886 211.9757357299677,88.83514884486193 210.9726057499303,88.84271250163886 210.32874946679544,88.92591272590315 209.41071062561014,89.31922287847176 208.29176215111897,90.158788780822 207.43990530661898,90.56722624660632 206.9624494725199,90.59748087393939 206.6528122732713,90.58235356032921 205.4355362607366,90.21551620642344 204.91884395716363,90.272243632363 204.62149770006482,90.37057117040654 204.28066041661145,90.56722624660632 203.6670587606406,91.03617296688773 203.13240277210974,91.59966539665517 204.16767829344994,96.89422514049538 204.6503341415268,98.22921056173351 205.58302756783007,100.79707203732696 205.75982804499046,104.13642650433475 202.22240031613723,105.31257513331404 195.53660045389327,106.27315954398219 178.76230063689093,106.93119768363012 178.73346419548616,106.93119768363012 176.15803906294587,106.5076329041229 174.6353804079869,105.25206587921143 175.02774510328933,102.1887848843356 175.0215996321581,102.11693014512397 173.93810579886508,102.28333059404703 173.09239442555267,102.72202268699537 172.6447204900118,103.11911466806515 172.5383565665873,103.34980619953564 172.26559219412619,103.71664355344141 171.41137170682617,104.73017356143525 171.2596258427402,104.8852285252493 171.0818799084827,105.19155662493975 171.02467975416366,105.57352129189218 170.97787962791284,106.06894081100549 170.90744307406513,106.34123245486171 170.72307894012783,106.72319712215226 170.50798745059066,107.12785275982989 170.12649551190503,107.95229134840088 169.784240042806,108.655711428823 169.54929395406037,109.13978546226376 169.453330058816,109.48393184583878 169.48216650016616,110.12306084331901 169.6684215482968,110.91724480512046 170.26595043367305,111.29542764396619 171.08282536563618,111.63201037036983 172.39984710191644,112.82328631273387 172.89053933526242,113.3754332576177 173.23326753296635,114.10910796475301 173.30654045799272,114.97514666587878 173.11035811034236,115.56133006586425 172.91417576269026,115.90169462099448 172.4958109972163,116.3555140276657 171.200062045622,117.36904403565954 170.19693206564094,118.60192009018392 169.81685831254373,119.15406703489869 169.22122034136171,120.11843327389894 168.51260024707452,120.83319883954279 167.92547138976653,121.56309171840233 167.87772580636226,121.66898291339184 167.3804153733365,122.75436766071003 167.3326697899322,122.96615005068905 167.2452150083928,123.23465986604411 167.0688872598373,123.49560602484766 166.90721409623077,123.66578830255365 166.6027769109036,123.92295263285605 166.46237653203846,124.0515347981763 166.291721525953,124.21415341876725 166.18252123129264,124.3086991284787 166.0785209505537,124.38811752446723 165.969320655837,124.47888140607198 165.74052003833532,124.7322639078732 165.63746521475076,124.86462790169462 165.55615590445439,124.97430092479082 165.42426463935058,125.13691954538177 165.23800959127541,125.40921118940706 165.1741912372202,125.56426615355922 165.13590022473073,125.7155392890975 165.09997285509672,125.84790328269352 165.07539097057176,125.93110350718322 165.02386355872267,126.08994029927302 164.98982710328292,126.19583149426253 164.93546332014247,126.32441365941372 164.88677227969745,126.40005022723922 164.8234266541908,126.46055948134183 164.66269894768223,126.49459593695066 164.48542574197242,126.49459593695066 164.34738900579373,126.49459593695066 163.98669712318826,126.56266884783018 163.70495090830454,126.6912510133195 163.28469522858086,126.78201489458611 163.18778587612667,126.81605135002587 163.09938563754648,126.8500878056347 162.93393064555147,126.93706985856922 162.76327563957867,127.05052471011024 162.4578929971544,127.2169251590333 162.29763801919265,127.3001253836357 162.09105564347405,127.37954377979331 161.79465484358505,127.48543497478282 161.58476336796932,127.51947143022258 161.38054463504898,127.56107154243927 161.16025313142134,127.58376251277001 160.9858162969474,127.59132616977233 160.70927009604145,127.58376251277001 160.5338878045831,127.56863519921617 160.3036690013794,127.5459442290545 160.07155928403785,127.51190777361472 159.90137700655725,127.48165314628166 159.2589389090681,127.40979840712639 158.935592581855,127.42114389217905 158.71435562118657,127.41358023523307 158.5271551159016,127.39845292167924 158.30686361227396,127.37576195168663 158.07711753767518,127.34550732435355 157.46918862428703,127.22827064448043 157.0957330708705,127.06943385216523 156.59605899504558,126.81983317830164 156.24813078336388,126.60048713194017 156.08031214856973,126.47946862339683 155.7503476216768,126.19961332270734 155.4449649793089,125.94244899240495 155.210018890676,125.7079756323206 154.55765349372433,125.03481017889344 154.26219815087524,124.74739122142704 154.0589248749393,124.5961180859451 153.88259712632748,124.48266323417866 153.4056140208333,124.21037159032245 153.28695915514544,124.14608050788773 153.04397668118708,124.04775296973149 152.77310322292016,123.96455274529814 152.52728437761408,123.95698908846487 152.07913771363914,123.9985892007379 151.83851888236632,124.04018931295458 151.71135490280443,124.05909845500958 151.5487362822126,124.085571253447 150.87273445766402,124.25575353120935 149.97833204379387,124.46375409229273 149.16240256898422,124.63771819816176 149.02200219006272,124.69822745243344 148.7549105601843,124.85706424491771 148.24058189929775,125.09910126183533 147.15188805202695,125.46593861540298 146.07264877567096,125.72688477415018 145.90010285539122,125.73444843098345 145.57581107113737,125.82521231219371 145.25435565806214,125.95757630601513 144.56369924867647,126.22230429309444 143.74446067402693,126.57023250477616 143.60169665236265,126.60805078854803 143.1956228290957,126.6723418712645 142.8453309746712,126.7252874685902 142.65434864099774,126.75932392419902 142.46762086437403,126.8047058647478 142.33572959927022,126.84630597696447 142.1017289677908,126.91816071651422 141.98591047333792,126.96354265723207 141.78547356880517,127.06187019521926 141.66067323198695,127.13750676304475 141.30470863486704,127.3681982949097 141.11136265850718,127.51568960189049 140.98939869297942,127.61779896837882 140.91423485375884,127.67452639420569 140.73176163401578,127.8106722161338 140.60507038311516,127.8938724407362 140.3583060806556,128.101873002045 140.19048744597418,128.30987356335382 140.10114175024052,128.40441927306523 139.99903238375217,128.51031046822382 139.8652502045105,128.63511080470477 139.65204962911122,128.81285673901863 139.51921290696666,128.9527843894479 139.43317631112924,129.0813665545991 139.3627397574497,129.2137305484205 139.30033958904104,129.34609454201652 139.23888487767226,129.48224036400097 139.15048463914843,129.64864081286768 139.01386608855904,129.83773223229056 138.8900112088934,129.98144171116465 138.79073821364005,130.09489656293107 138.70233797517258,130.2045695862527 138.5893558519547,130.34449723628748 138.46833734352407,130.4768612301089 138.3704825340291,130.5978797384832 138.2050275420341,130.78318932940488 138.11048183232265,130.90042600967246 138.01829976529766,131.0214445179904 137.90720855638673,131.17271765352868 137.8093537468354,131.32399078917967 137.70535346620917,131.4828275814949 137.6117532135385,131.60384608986917 137.48128013413674,131.76646471062918 137.35837071156823,131.92530150271898 137.26713410169668,132.0501018397635 137.1470610503068,132.19759314696967 136.99342427202572,132.3337389688978 136.80575103824853,132.5001394177645 136.63036874673384,132.67032169552684 136.44884098414423,132.8442858013395 136.26069502176213,133.0295953923176 136.10705824348105,133.18086852763045 135.9515305510621,133.31701434989668 135.8286211283809,133.41534188777115 135.6707297931628,133.52123308292974 135.51992938617306,133.63846976263378 135.33272888100078,133.79352472661688 135.13229197641255,133.95992517587808 134.95218239935502,134.09607099780618 134.72905452443692,134.25112596178928 134.59621780234872,134.34188984299956 134.38585359818444,134.47047200815075 134.19865309301304,134.60283600197215 134.0487981431195,134.72385451034646 133.92305234920332,134.83352753344263 133.61388787839059,135.12851014802408 133.3973782031514,135.3554198509934 133.2560323671328,135.49156567325963 133.12981384466804,135.60502052468794 132.8991223130285,135.7827664592272 132.71759455038256,135.90756679570816 132.58948511366722,136.01345799086673 132.43915743522604,136.13069467073984 132.1801021906167,136.27818597794604 131.98013801457702,136.39920448648937 131.5854096765318,136.5769504204651 131.39206370017192,136.65636881679177 131.1608994399838,136.7773873253351 130.63144346554344,137.11397005196417 130.28966072493662,137.40517083770632 129.9852235396658,137.68502613833945 129.78715027787672,137.8665539009854 129.6751136118123,138.05186349230158 129.58387700194078,138.26742771016188 129.55220418918745,138.61913775057016 129.54511326095908,138.65317420600994 129.47562216437754,138.97462961885975 129.39951286800348,139.24692126288502 129.30827625813194,139.53055839201932 129.30733080103482,139.83688649154072 129.39053102558088,140.10917813539692 129.52998594746072,140.3474333238134 129.65336809863416,140.47979731746574 129.76729567883643,140.597033997677 129.90202331511887,140.74452530454505 130.1034056768051,140.96387135130098 130.21733325700737,141.10758082983696 130.36293364996385,141.57274572178625 130.3988610196533,142.2194383763815 130.43951567482836,142.61653035688778 130.52649772776374,143.16489547349585 130.63758893673105,143.5922420811661 130.7567165309111,143.8985701808002 130.79311662915,144.26162570592305 130.7425346744544,144.59442660405094 130.6078070381156,144.95370030123615 130.30147893865055,145.36970142362833 130.16155128833398,145.50206541744976 130.08827836325216,145.600392955606 130.0060235958023,145.77813888980714 129.95544164116305,146.08068516094008 129.94456888454624,146.35297680485263 129.94078705615777,147.44214338050293 129.70962279585697,148.38381864928513 129.4368584234522,149.55618544976326 129.41227653887088,150.7436795637952 129.55220418918745,151.99546476020552 129.6311498567965,152.30179285989595 129.73656832312474,152.7064484975736 129.66518631234896,153.45903234659485 129.35791275578768,154.24565265139395 129.05347557051599,154.8356178802187 127.978490851097,155.91343897092904 127.27979805627317,156.27649449605187 126.6742327856278,156.82485961243455 126.30030450371908,157.43373398314523 125.97128543386782,158.12959040656503 125.51226601327429,158.7649375758822 124.97288273937056,159.37381194636748 124.61408177101568,159.94864986124392 124.44957223617413,160.59912434394587 124.26095354518712,161.4084356191321 124.04775296990056,162.14211032666185 123.97637095901207,162.82283943669688 124.34604468398376,163.53004134500028 124.96390089689163,164.2107704550353 125.60444808018659,164.914190535232 126.32110455979924,165.67055621292346 126.85859691950873,166.38153995006613 127.47692586102062,167.06605088843327 128.1500913141669,167.59172503448517 128.79867488290003,168.14387197897452 129.08609384036643,168.31783608484358 128.55049239490666,168.37834533911524 127.57619885627486,168.35565436895357 126.76641485254008,168.412381794555 125.73208478829702,168.52583664615236 123.99149827256589,168.5787822438162 122.06702035133334,168.71492806557524 121.21232713554198,168.68089161013546 119.61261372722454,168.46532739204974 118.50501073806782,167.8148529093478 115.70929410178806,166.49499480183258 115.4814389413835,166.34372166618155 113.95263481534964,165.34153714324037 112.73204970297505,164.78939019858197 111.5436101319587,164.2712797091379 110.0256787624853,163.69644179426146 109.81342364424036,163.62836888338194 108.08938262759516,162.88713051907524 101.5482377012097,160.70879736738019 98.09164655415974,159.2943935500408 98.04106459946412,159.2754844079858 86.08670506360608,156.3218764367697 84.33004577716854,156.11009404718519 83.92444468250649,156.04202113591117 82.8924782610062,155.87183885837425 81.51967455593986,155.39154665304017 78.26872032751224,154.2343071663413 77.25046303397647,153.70863302028937 76.56831573835214,153.36070480872036 74.9487477309953,152.1543015526898 74.90289306184161,152.12026509725 73.66576245026751,151.23531725440736 72.35914074199916,150.7247704217402 70.93150052541377,150.3919695237814 69.97091611474472,150.14236885008685 68.57494871079908,149.83225892212064 67.5330549898918,149.54862179298635 65.73006830558208,148.92462010911632 64.96519351401659,148.12665431898276 63.9563907913956,146.6782140462036 63.41275296055486,145.91806654001098 61.22685615202655,143.99311589051163 62.86911512971413,141.13405362866885 63.1177703462552,140.10539630712117 63.126279460129226,140.06757802301118 62.96744266781402,139.62510410173076 62.61289625639615,138.97462961885975 61.9463490029869,138.34684610631948 61.71660292833177,138.10480908957092 61.74118481291309,137.90437218509538 61.8867852058687,137.7077171088956 61.97282180164975,137.58669860052132 61.97565817294109,137.5375348313023 61.95769448815227,137.465680091978 61.942567174598445,137.4429891215909 61.92460348969692,137.4202981510911 61.71943929962311,137.23877038844515 61.50482053863451,137.08749725313226 61.27412900688226,136.94000594592606 60.95645542225185,136.78495098194296 60.77209128837091,136.8757148633223 60.73143663313864,136.8870603484313 60.68889106382485,136.8984058337094 60.3853993355948,136.8870603484313 60.080962150323984,136.84546023621465 60.01761652481733,136.8378965794377 59.77652496505317,136.80764195244276 59.47397869397659,136.79629646722105 59.14212325300217,136.74713269800205 58.837686067675,136.72065989950826 58.534194339501305,136.73578721311844 58.23164806842472,136.75469635477896 57.92815634025102,136.7698236685582 57.623719154923855,136.78116915361085 56.7160803416941,136.82276926605294 56.42298864164502,136.86058754959942 56.233897222222154,136.95135143120416 56.211206251947765,136.97026057303373 56.09869685727845,137.09127908157706 55.89920540984368,137.25767953050013 55.64865927905203,137.39760718109846 55.60895008097323,137.40895266598207 55.56829542585367,137.4202981510911 55.44160417484035,137.427861807868 55.39811314831674,137.427861807868 55.15702158855258,137.39760718109846 54.86203897425291,137.41651632275898 54.72967498071326,137.45811643520108 54.47251065029817,137.5791349437444 53.974254760062564,137.85899024420848 53.69912674480229,137.95731778259014 53.39941684501705,138.05186349230158 53.11577971588276,138.127500059958 52.97963389395465,138.17666382878255 52.84632444326153,138.22582759811425 52.80945161641772,138.23339125489116 52.73097867735723,138.24095491172443 52.692214936431895,138.24095491172443 52.61468745441216,138.22960942644636 52.35185038141438,138.10480908957092 52.19395904619629,137.95353595391992 52.14384982004923,137.9119358418723 52.11737702138638,137.89680852831847 52.08995876557007,137.8854630430404 51.96515842869462,137.8665539009854 51.92355831642159,137.8665539009854 51.88290366124568,137.8665539009854 51.841303549029,137.8741175577623 51.8015943509502,137.8854630430404 51.776067009271756,137.89680852831847 51.75148512480314,137.9119358418723 51.56523007667162,138.06699080568634 51.34966585852955,138.23339125489116 51.32413851685111,138.24851856850137 51.12275615516576,138.29768233732588 51.083992414184074,138.30902782260395 50.831555369254545,138.47542827147066 50.58006378142214,138.62291957867686 50.55453643980005,138.63426506395493 50.514827241833956,138.6493923773397 50.4751180436988,138.66073786278685 50.270899310665754,138.6720833478395 50.23119011269966,138.6720833478395 50.1120625184069,138.65317420600994 49.839770874437974,138.6456105490076 49.801952590497045,138.6493923773397 49.578824715578065,138.74771991572138 49.34435135555007,138.89899305103424 49.12027802359033,139.05026618668523 48.93402297540245,139.25070309121713 48.78085892566993,139.45492182436288 48.737367899202674,139.49274010813474 48.682531387570045,139.53055839201932 48.60122207716186,139.57972216106927 48.56907653585997,139.59106764612193 48.53693099461444,139.60997678800786 48.511403652935996,139.62888593006286 48.4688580836222,139.67426787078068 48.45089439872068,139.7007406696126 48.43765799941743,139.72721346827544 48.428203428389935,139.8104136927088 48.44805802742933,139.88605026036524 48.4688580836222,139.93521402969697 48.47453082614854,139.9881596268536 48.453730770068375,140.03732339624165 48.19845735390386,140.15456007611476 48.16631181254562,140.16968738949953 48.14078447086718,140.18481470322243 48.11714804343932,140.28692406971078 48.11147530091299,140.33986966703648 48.08122067374898,140.3549969808157 48.053802417932665,140.37012429436953 48.018820505339434,140.3776879509774 47.78245623106085,140.38146977942222 47.46478264648679,140.37390612264528 47.3863097074263,140.3776879509774 47.06958157983665,140.3776879509774 46.75285345230335,140.36256063759262 46.71503516841878,140.36634246569932 46.67910779872843,140.37012429436953 46.57794388939355,140.41172440641716 46.54579834803531,140.43063354847214 46.44368898154697,140.5062701161286 46.19692467925648,140.6613250801117 46.16005185241267,140.67645239366553 46.12317902562521,140.6877978789436 46.08346982754641,140.69157970738843 45.762959871681005,140.6802342221667 45.72230521644874,140.67267056538978 45.682596018369935,140.6613250801117 45.64572319169518,140.6499795948336 45.387613404070265,140.51005194479882 45.34979512024205,140.49492463118864 45.31197683630112,140.4835791459669 45.273213095319434,140.47601548913363 45.079394390411,140.46467000408097 45.04157610658278,140.46467000408097 45.00470327973896,140.46845183235672 44.96783045300786,140.47601548913363 44.93568491170598,140.49114280274384 44.86383017226893,140.52896108645933 44.67568420999953,140.7180525058822 44.65204778257168,140.73317981966144 44.61422949863075,140.752088961491 44.57546575764906,140.76721627510122 44.53670201666738,140.77477993187813 44.25495580178366,140.77477993187813 44.215246603704855,140.77099810337697 44.178373776861044,140.76343444660003 44.141500950073585,140.74830713321526 44.10840995173094,140.72939799099123 44.086664438440955,140.71048884910527 44.06586438236079,140.6651069085565 44.10651903748035,140.52896108645933 44.11313723721651,140.4835791459669 44.111246322965926,140.43819720524908 44.09233718108,140.4079425782541 44.06208255402869,140.3852516077543 43.840845593247586,140.3776879509774 43.52411746565793,140.3474333238134 43.485353724676244,140.33986966703648 43.44658998375091,140.32474235348263 43.393644386256156,140.30205138332096 43.16106194036603,140.15456007611476 42.93226132286436,139.9919414555238 42.67887882089408,139.8482319768188 42.48789648722063,139.73855895349718 42.323386952379096,139.54190387712833 42.30920509586603,139.31499417398996 42.21749575750229,139.08052081384926 42.02273159544038,138.89899305103424 41.98964059709774,138.87630208087256 41.92534951443761,138.8498292822097 41.7296398953913,138.74393808705113 41.69182161145037,138.72881077366637 41.488548335627144,138.7212471170585 41.44883913754835,138.7212471170585 41.410075396566654,138.7174652883883 41.24272949032107,138.63048323545377 41.041347128635714,138.44895547280782 40.883455793417625,138.24473673983113 40.71894625851973,138.04808166363134 40.59130955046565,137.84386293082372 40.579018608203164,137.81360830349064 40.56861858007856,137.6888079668406 40.56105492330164,137.65855333984567 40.54876398103915,137.628298712738 40.53080029619398,137.59804408540492 40.50527295457189,137.5753531150742 40.475018327464234,137.55266214491252 40.44287278616235,137.5375348313023 40.29159965068041,137.50728020419467 40.25567228099007,137.49971654741773 40.221635825437595,137.4921528908099 40.18665391284437,137.4732437487549 39.97865335147922,137.30306147138702 39.8916712985447,137.1858247912885 39.87559852789376,137.1366610219568 39.87276215660241,137.08749725313226 39.92854412538851,136.86436937826963 39.92287138274947,136.80386012399796 39.9115258975841,136.77360549666489 39.8916712985447,136.74713269800205 39.861416671493394,136.7244417276713 39.758361847851575,136.67905978695345 39.645852453351324,136.641241503407 39.329124325761676,136.58829590591225 39.21756038830218,136.55047762180226 39.18068756157108,136.53913213691865 39.11072373632827,136.50131385280866 39.07574182373504,136.48240471075368 38.964177886331896,136.43702277037394 38.92541414529386,136.42567728515223 38.76846826717288,136.41433179987416 38.45835833931938,136.440804598537 38.38177631445312,136.4445864272072 38.06883001536463,136.440804598537 37.75115643079057,136.43702277037394 37.71239268969618,136.43324094192914 37.601774209333804,136.38785900104224 37.52991947000947,136.34247706066253 37.491155729084134,136.32734974693963 37.45239198798974,136.31978609016272 37.29071882438319,136.3122224333858 36.96453612587875,136.31978609016272 36.63457159898585,136.3311315754408 36.30366161499584,136.3613862023794 36.01435174327885,136.41054997154205 35.91886057652666,136.45971374059198 35.82336940971811,136.50887750958557 35.70045998703689,136.6525869882906 35.67398718837405,136.69796892900845 35.663587160249435,136.7433508697263 35.64845984669561,136.85680572149272 35.64278710416928,136.89084217693247 35.63144161900391,136.91731497576438 35.43573199984488,137.09506090990917 35.1984222685819,137.25011587389227 34.964894365538306,137.4202981510911 34.72096643448281,137.57157128691114 34.453402075999456,137.6888079668406 34.16220129008824,137.7530990495571 33.870055047079916,137.79848098993682 33.570345147294674,137.90437218509538 33.39732649852276,138.0405180070235 33.172307709409544,138.2182639411683 32.9151433789381,138.34684610631948 32.88772512312178,138.3619734198733 32.64285173496917,138.4035735323154 32.60219707984961,138.40735536059114 32.466996714962264,138.44895547280782 32.169177729314896,138.53593752574233 31.84583140215815,138.58888312323708 31.694558266563504,138.6456105490076 31.46481219196472,138.81957465487665 31.44873942131378,138.8422656254328 31.435503022010533,138.8687384240393 31.422266622594577,138.9595023053059 31.40524839484652,139.05404801501734 31.377830139030205,139.114557269289 31.238847945810754,139.33768514415164 31.218047889617885,139.36415794298355 31.194411462190025,139.3906307416464 31.166993206430064,139.4095398837014 31.13579312222529,139.420885368585 31.10364758086705,139.43223085386308 31.068665668330173,139.43601268230788 31.034629212777705,139.43601268230788 30.866337849491355,139.3906307416464 30.67346460168003,139.37928525636832 30.63942814624027,139.37928525636832 30.605391690687803,139.36793977142835 30.57040977809457,139.36037611465144 30.527864208724427,139.34146697259646 30.26408167862953,139.2166666356083 29.988953663369262,139.07673898551715 29.72422567617725,138.91790219308925 29.482188659372337,138.74393808705113 29.456661317693897,138.7212471170585 29.378188378633407,138.59644678001402 29.345097380234407,138.55106483929617 29.283642668921974,138.50946472724854 29.235424356969144,138.4792101001409 28.98771459752519,138.3165914793809 28.727713895818752,138.20691845605927 28.547131590269917,138.19557297100658 28.39680391182874,138.19557297100658 28.247421690484675,138.19935479928236 28.203930664017417,138.19557297100658 28.173676036966114,138.19179114233637 28.14531232399633,138.18422748555946 28.1169486110829,138.17288200045044 28.08858489816947,138.15397285878993 27.918402620801597,137.96488143936705 27.781311341607314,137.7682263631673 27.61207452122385,137.56778945846634 27.4106921595385,137.39004352432156 27.20552796946469,137.21229758978228 27.00320015073858,137.0345516556375 26.80276324615034,136.85302389282248 26.588144485049035,136.69418710067634 26.303561898817623,136.603423219297 26.014252027156996,136.52400482330847 25.7211603269952,136.46349556886773 25.427123169792647,136.36516803088057 25.18508615293138,136.3500407174958 24.884430796105377,136.3576043742727 24.83999431248465,136.3576043742727 24.810685142474107,136.35382254560247 24.697230290820386,136.2933132913308 24.550684440767668,136.12691284240776 24.510975242688865,136.0021125054196 24.426829561102043,135.77898463055698 24.272720054216055,135.58232955452624 24.090246834472993,135.38567447832648 23.860500759930563,135.20792854412534 23.693154853684973,135.01127346792555 23.537154432717465,134.76923645083886 23.429372323590076,134.57636320314026 23.315917471992712,134.35323532827763 23.179771649951896,134.130107453415 23.01337120091613,133.93723420532191 22.772279641151975,133.7708337564552 22.57089727941027,133.70654267368238 22.542533566496843,133.70276084557568 22.280641950652527,133.6876335319655 21.97715022247883,133.6876335319655 21.934604653052332,133.68385170352067 21.819258887260737,133.64981524808093 21.655694809403606,133.54014222459026 21.508203502310124,133.34348714839047 21.40609413582178,133.1203592736969 21.23496640118773,132.92370419732805 21.211329973759874,132.90479505544212 21.18580263219414,132.88966774171925 21.1602752905157,132.87832225661023 21.119620635339782,132.86319494305639 20.993874841423576,132.85563128627948 20.95132927205343,132.85563128627948 20.907838245586174,132.85941311494972 20.85205627685643,132.87832225661023 20.601510146177485,133.01068625026258 20.39256412765887,133.18086852763045 20.20441816538947,133.35861446216973 19.968999348151648,133.5174512542595 19.71088956063944,133.63846976263378 19.455616144474924,133.77461558473095 19.23154281245883,133.929670548545 18.959251168489907,134.0544708855895 18.924269255896675,134.06581637081123 18.894014628732663,134.07338002758814 18.800414376118344,134.0809436844214 18.74652332163918,134.0809436844214 18.64630486928871,134.14145293846767 15.955533970901342,134.71250902506836 14.563821124061763,134.39483544032524 12.861052892102512,133.967488832655 10.757410851023138,132.8367221445626 7.746129996657661,131.65679168736392 5.652887983759254,129.85285954584438 2.588661531899021,127.80689038780169 2.56880693285962,127.77663576052497 2.3286608301925815,127.61779896837882 2.9536079714415036,126.49459593695066 4.068301888939293,124.92513715579723 4.996740758249206,123.79058863926004 6.284453324518916,122.24003899993619 6.556744968487841,121.91101993008405 7.279074190739538,120.70461667439159 7.499365694367176,120.12221510256917 8.048676267734246,118.32584661805195 8.129985578142431,118.06111863074723 8.143221977445677,118.0195185183615 9.671080646495133,117.33500758021978 10.90395670107586,116.82067891944595 11.57617669706779,116.29878660183884 12.831743722035613,114.89194644110731 12.661561444555035,114.63100028230376 12.182214696318072,113.88976191839154 11.694358834207081,111.6963014529736 11.568613040347229,110.15709729875877 11.376685249633022,108.3342560155787 11.229193942426834,103.20231489232945 12.2465057789782,99.22004959934027 13.359308782225407,93.3809065677876 13.469927262587783,91.81144778657783 13.522872860082538,90.00373381683889 13.552182030036729,88.1771107049886 13.595673056503987,85.5563036319004 13.206144732492886,84.64110116211914 12.33916057443905,81.15803721618092 11.747304431645484,79.99701590081182 8.98751516516877,75.22813030319259 7.021909860268089,72.18754027887292 6.743945473772831,71.75641184253243 5.464742021320796,70.30418974142118 4.746194627570263,69.5932060043912 1.7386956015932429,66.96483527418796 1.1837122855871345,66.04963280440671 0.7781111909250892,65.38403100775646 0.4245102366606854,65.08904839351315 0.055781968729745154,64.43857391064213 0.044436483564373255,64.03391827313357 0.23636427427858114,63.05064289230373 0.1266912510133195,62.66489639662473 0.01701822774805784,61.57951164913748 0,61.15216504124181 0.08981842428221447,60.77020037395127 0.8613114155275033,60.4260539905453 1.0986211469031988,60.10459857763914 0.9946208661642695,59.662124656245986 0.8348386168083023,59.4843787221012 0.3838555814284158,59.18939610768882 1.873895966536945,58.7923041267881 2.2218241782186627,58.91332263516238 3.079353765357709,59.48059689343098 3.5492459426798817,59.525978834317876 4.209174996352973,59.454124094768126 4.784012911398483,59.40874215405029 5.297396115187914,59.35201472827978 5.4467783365319775,59.132668681692905 5.6396515843433,58.93979543399429 5.855215802429012,58.80364961206618 6.125616532316417,58.678849275021676 6.153034788076378,58.66750379013807 6.188016700669608,58.65994013313574 6.222998613262838,58.65994013313574 6.257980525799715,58.66372196146784 6.29201698129583,58.67128561824476 6.32038069420926,58.6826311036919 6.378999034230348,58.69775841707667 6.5151448562711645,58.712885730799556 6.550126768864394,58.70910390235475 6.583217767207042,58.70154024557783 6.729763617259763,58.652376476358825 6.755290958938203,58.637249162805 7.0152916606446425,58.48597602749212 7.277183276488956,58.34226654873074 7.342419816246198,58.30444826484617 7.425620040848613,58.07375673320663 7.449256468276471,58.00946565026473 7.507874808241206,57.85062885817494 7.52489303593291,57.812810574064954 7.530565778571949,57.77877411862519 7.531511235669063,57.69935572246759 7.518274836253109,57.57833721426237 7.5230021217950345,57.457318705719025 7.528674864321367,57.313609226844946 7.632675145003942,57.03375392638087 7.9966761274493114,55.955932835445125 7.775439166724559,55.744150445860576 7.506929351144091,55.52858622760581 6.226780441651296,54.726838609196506 5.181104892186498,53.58850826432721 4.026701776609908,52.77919698936641 3.6333916242103492,52.33672306757878 3.1880813314695025,52.05308593844449 2.7484437813676954,51.720285040485656 2.490333993799131,51.33075671636185 2.6387707581024338,50.97904667617897 2.8987714598088727,49.91635289919153 3.005608111839145,49.201587333716745 3.9047378110821604,47.53380101435072 4.636521604361355,47.068636122570474 5.271868773509474,46.72827156783473 5.5895423581962405,46.40303432625834 5.980961596345217,45.975687718249965 6.689108962083846,45.7336507015014 7.226128593244783,45.593723051297545 8.02125801191793,45.26092215294424 8.114858264588602,44.98106685214205 7.9919488419637394,44.52346561713871 7.982494270936242,44.46295636286704 7.899294046390182,43.91459124648438 7.6534752011968115,43.388917100601525 7.291365133002025,42.65902422157291 7.603365974993398,41.69843981107382 7.835002963842761,41.42992999532429 7.903075874778639,41.399675368385694 8.033548954180416,41.33916611428308 8.160240205193736,41.26731137456427 8.401331765014241,41.134947381250036 8.53085938726255,41.06309264175664 8.663223380858556,40.99123790220689 8.791805546122458,40.92316499132737 9.014933420985084,40.78701916939926 9.061260818743687,40.71894625851973 9.082060874880202,40.66978248952614 9.109479130696517,40.60549140658424 9.17566112749452,40.49203655498688 9.22955218208639,40.43530912938544 9.338279748198184,40.34454524794975 9.460243713725932,40.26134502334734 9.564243994464862,40.19327211229875 9.639880562177654,40.136544686697306 9.753335413887726,40.034435319983544 9.823299239074187,39.94367143860422 9.874353922262006,39.860471214339924 9.894208521357761,39.818871102123246 9.939590461962894,39.758361847851575 10.041699828451241,39.69785259357991 10.129627338482873,39.67516162302375 10.349918842110512,39.68272527996972 10.62410140033002,39.65625248113782 10.945556813292535,39.527670316155685 11.172466516599973,39.41799729272136 11.373848878285324,39.32345158300993 11.5137765287146,39.255378671961346 11.742577146216265,39.153269305472996 11.859813826202087,39.10410553664847 12.060250730790324,39.013341655043725 12.210578409287855,38.949050572665364 12.466797282605837,38.82803206429108 12.65399778777812,38.72592269780274 12.796761809442383,38.62003150264416 12.915889403735141,38.47254019560704 12.992471428545048,38.317485231623934 13.030289712485976,38.204030380195626 13.063380710828623,38.11326649864724 13.097417166381092,37.999811647049874 13.119162679558368,37.89392045222942 13.132399078974322,37.80693839935126 13.140908192848352,37.72373817486155 13.16549007731697,37.62541063670531 13.20236290410443,37.56490138243364 13.249635758960144,37.511955784938884 13.344181468671577,37.41362824689534 13.40090889455479,37.34555533601582 13.454799949033953,37.21319134241982 13.47370909097624,37.14890025964698 13.493563690015641,37.092172833876475 13.552182030036729,36.974936153947006 13.588109399727074,36.918208727838376 13.659964139107762,36.850135816958854 13.777200819149938,36.78206290607933 13.917128469579211,36.72533548008341 14.040983349244835,36.64591708415122 14.121347202555906,36.55137137443979 14.145929087080878,36.4832984633912 14.156329115092783,36.4000982389015 14.128910859276466,36.29420704396834 14.101492603516505,36.22235230441859 14.062728862534819,36.06729734043549 14.056110662798664,35.99544260122386 14.080692547323636,35.80256935352524 14.146874544121639,35.38656823056952 14.176183714132183,35.14453121382097 14.219674740655796,34.913839682012366 14.252765738998443,34.76256654669949 14.271674880997084,34.65289352343422 14.27829308062053,34.58103878388447 14.281129451911873,34.43732930534851 14.283020366162456,34.35034725224494 14.28396582325957,34.23311057231547 14.28396582325957,34.1461285194373 14.269783966746502,34.0440191528926 14.248038453569226,33.95325527134421 14.224402026141368,33.88140053196352 14.35392964844603,33.56750877589063 14.491020927471252,33.12503485427206 14.953349448016512,32.535069625672726 15.395823369409662,32.047213763730795 15.896915630880255,31.608521670613392 16.387607864338943,31.052592897397464 16.831027242829208,30.65171908822099 17.633720318279266,30.160081397946954 18.492195362459075,29.698698334329748 19.238161012082276,28.9688054554702 20.079617828514024,28.087639441072355 20.737655968105596,27.49389238397185 21.389075908017364,26.900145327096762 23.992864753470215,24.82013971344525 24.4041385907713,24.634830122129074 24.68210297726656,24.479775158315032 24.978031048663343,24.351192992994775 25.21439532294192,24.21504717106667 25.243704492952467,24.18857437240382 25.265450006186096,24.15831974546522 25.370395743965787,23.927628213769328 25.3779594007427,23.89737358649261 25.380795772090398,23.829300675613084 25.3117774039447,23.659118398245212 28.16800329432707,23.38682675399452 30.182772368334053,22.532133538315875 33.28103527552134,21.42027599194037 35.86402406489403,19.986963032884116 38.744831839745025,19.521798140934806 40.30578150708077,19.355397692011746 41.27392957452584,19.147397130759302 42.957788664542804,18.130085294095228 48.11714804343932,13.001925999516192 48.610676648189354,12.438433569354286 51.4716298240573,9.174715670341053 54.76938417884842,7.707366255675974 55.79709604335533,7.389692671101915 55.90960543785558,7.3140561030510005 56.106260514055364,7.193037594845782 56.3199338180032,7.0342008024178675 56.40691587099408,6.969909719814094 56.47404332488919,6.913182293874527 56.54684352131064,6.856454868273082 56.643280145272655,6.788381957168143 56.70000757104316,6.746781844782406 56.89949901859064,6.603072366077382 57.064954010585645,6.4858356862042665 57.166117919920524,6.413980946654517 57.23135445967777,6.368599005936676 57.34386385417802,6.300526094888091 57.430845907112534,6.240016840954542 57.527282531018194,6.156816616183067 57.59630089910754,6.088743705303544 57.66910109558534,6.001761652199964 57.720155778829515,5.922343256042361 57.76364680529677,5.842924860053818 57.83361063053959,5.721906351735893 57.875210742756266,5.634924298801375 57.91397448373795,5.559287730919522 57.972592823759044,5.457178364431174 58.01797476447688,5.381541796605675 58.077538561595084,5.290777915395407 58.15222967226712,5.196232205683974 58.218411669008766,5.12815929480445 58.33092106356537,5.0260499283161035 58.43681225849853,4.9390678753815855 58.52473976847381,4.870994964333001 58.672231075679996,4.734849142348538 58.73274032983896,4.681903544910136 58.830122410898085,4.583576006528477 58.90764989280511,4.504157610370874 59.00786834515558,4.394484587105612 59.08350491286837,4.2999388773941805 59.146850538375034,4.2129568244596625 59.23288713421243,4.042774547091791 59.31230553037004,3.9028468966625174 59.375651155876696,3.789392045234213 59.4219785536353,3.6608098799139577 59.48343326500409,3.513318572933184 59.51274243495828,3.392300064389843 59.52976066270634,3.3204453248400934 59.55717891852265,3.2221177869656183 59.58648808858955,3.123790248809375 59.61012451601741,3.0519355092596254 59.64794279984562,2.961171628049357 59.69332474056347,2.8779714033905894 59.73681576703073,2.8061166642353155 59.77368859376183,2.7569528952417244 59.82757964841005,2.696443640970054 59.89848893069363,2.6397162149741336 60.04598023773075,2.5186977064307925 60.1083804061403,2.4619702808293478 60.19252608783983,2.3825518845026834 60.25870808458148,2.3447336007308177 60.31543551046469,2.318260802124324 60.49601781601353,2.253969719351489 60.4979087301514,2.2237150924128914 60.55841798436672,2.163205838141221 60.713472948349825,2.1140420689222155 65.99668720708102,0 67.43945473716478,0.6202198554252287 67.8866559441562,1.2782579952985669 68.35276629297721,5.377759968329925 68.27523881101384,6.084961876802379 68.46007567349969,6.829982069610234 68.53523951272028,7.544747634859603 68.60473060935819,8.074203609243625 68.69076720525193,8.649041524120074 69.14411388331737,9.798717354211092 69.74589732563152,10.868974788369922 70.46255380524418,12.128323641557142 70.75091821986405,12.767452639375486 71.07237363282657,13.240181187932649 71.57772045129053,13.561636600782457 71.67321161809907,13.622145855223188 72.24899499018534,13.754509848537426 73.26110681264623,13.943601267960291 73.99998153404107,14.087310747003437 76.00056875153498,14.33691142035985 78.67337596513353,14.79829448403341 79.11443170093736,15.074367956165377 79.69919691544622,15.388259712463686 80.35156231251146,15.72484243909274 81.2062555283028,15.902588373237526 81.57498379612105,15.90637020190775 82.16494902472127,15.917715686791354 82.32331308848703,15.921497515292518 83.65309849569104,15.989570426172044Z"/></svg>