<svg xmlns="http://www.w3.org/2000/svg" width="256" height="256"><path d="M131.7408479221298,0.804776763512204 131.9923406608449,2.226776383672416 131.85380652516798,3.4475818133483855 131.8734144335006,3.96591261006704 132.40964810328995,6.901983768608423 132.80820015521124,7.638559111581321 133.1338619387201,7.884084225939496 133.3597791446448,7.918184936158335 133.6440938169925,7.8261130184455165 134.18331129888406,7.716990745318395 134.78305754164526,7.515796554478454 137.53455860557793,6.329091835173766 137.93396317525642,6.830372276935442 139.11512652893077,7.89090436800359 140.7455667411281,8.388774738529964 141.3517068671252,8.535407792958786 141.52604674863778,8.620659568759953 142.15989370166946,9.104889655463024 142.38836846086738,9.466357184707531 143.18845637676134,10.762184176834458 143.718722422193,11.638572432172085 144.375587354741,13.381118729497127 144.56697759151703,13.534571926142483 144.829979319762,13.681204980418864 145.07465191636138,13.793737324527218 145.3252921371668,13.89262938430413 146.4301551515499,14.127924285667794 147.60748217541484,14.366629257809432 159.10965176645752,16.93100267390854 165.30702960837417,17.599376596342132 169.2912713503909,20.22854136205013 174.4545451518394,19.676109854807752 178.00826542605944,19.12367834741293 178.9903658833405,27.78184869783028 182.22396573942797,33.74947300391198 182.92558785432237,34.57130012268605 190.14129815808235,43.007815856020365 198.8429469141583,49.80408742278778 199.03050082087006,49.95072047741986 202.31482548361,51.4750222286431 198.18395068716447,61.63021376217976 195.14301984433683,61.71205546669481 194.78368360938572,61.991681291424264 194.62000019984748,62.24402654769409 194.20184023949193,62.891940043935406 194.08802911879738,63.0794939507996 194.0228115103603,63.297738496698145 194.06202732722883,63.55690389508288 194.11232587495152,63.83652971981234 194.27686180219698,64.12297568645344 194.46612074447555,64.40260151118291 194.6511170980149,64.63107627012677 194.91752889739357,64.85614095844511 195.88769410601083,65.30627033447202 195.98402861266615,65.4085724653826 196.044131114606,65.62681701163685 196.68948705737,68.50150689155058 196.88769743610771,68.58675866735175 198.90560696932133,69.4529167094916 199.99427214635307,70.2201826917021 200.13536383525317,69.98829786147212 200.2402235194886,69.80415402589404 200.52070186187444,69.8587151624576 200.70953454527404,69.95419715125328 201.0795272522511,70.22359276283578 201.19930599725174,70.85445590361198 201.39325378725022,71.29776513772723 201.88387775698592,72.19802389023837 202.1157625871143,72.52880078055016 202.34338482850342,72.96528987244888 202.4964117660665,73.30288690482475 202.72062393642358,73.68822493144603 205.76539110916227,76.320799767932 206.51901680729617,77.08124560823086 206.79438004308236,77.23810887585745 208.53479504606318,78.49301501554899 217.00754278406217,84.18783363896533 219.91462833893277,86.08042306185287 220.55827924628161,86.469171159557 219.44446479533852,87.65246580757558 218.7266448430927,88.31742965872306 216.95767049521848,89.56892572763662 216.21811134014337,90.09066659559059 215.67633630497775,90.5032851903158 215.2833256185852,90.96023470855924 214.87923220118603,91.55699713916741 214.12645902086172,92.77780256884337 213.9644806468911,92.99945718572316 213.89500044956156,93.29954343649246 213.80633860272835,93.60985990045951 213.74453106532332,93.95768714572827 213.62475232027185,94.16229140770189 212.7283298977726,94.88181639541293 212.30207101876755,95.16144221998994 211.77351000879952,95.60134138312397 211.21383210061484,96.2083340269299 210.34596902295897,97.59623293707453 209.86855907852325,98.47944133432381 208.57784719284277,100.54594437959166 207.59532047678513,102.21005904353532 207.23044287635693,103.00460559369732 206.77903472348893,103.84348306773325 206.5288207614617,104.33453329644959 206.3476607378842,104.81194324093613 206.21893055642445,105.28935318521941 206.1319737451581,105.6474106435335 206.02668780199284,105.98159760482652 206.03478672069394,106.46582769147878 206.25558882001897,109.59286282771315 205.99684968051324,112.49824334701692 205.94271480282868,113.08477556457977 205.90861409255902,113.23140861885615 205.8574630270275,113.45306323609162 205.79863930177552,113.72586891875699 205.80588570271863,114.0430055246357 205.9235331532734,114.32263134936515 206.0245565075978,114.5545161794427 206.80077392636906,116.24250134020419 207.07954723313725,116.63806957997241 207.27178998756887,117.01658746447877 207.39412628584356,117.29280321822701 207.52029891402927,117.59629953982508 207.60086184216138,117.97822749546513 207.60171435991938,118.3260547407339 207.63283125808601,118.6056805653109 207.73470713022002,118.85461575080276 207.92780240235885,119.07286029690457 208.13624299424353,119.3183854111103 208.32038682997404,119.48888896271262 208.78884533800147,119.87422698928309 209.13113121779233,120.15726288514622 209.44741530601468,120.45734913576307 209.8148504597177,120.72333467636435 210.17418669477044,120.97567993263416 210.56506608681877,121.1086727029348 211.11025119301723,121.26553597056139 211.56336438145044,121.37465824353608 212.04631569136328,121.48719058744118 212.6183551069899,121.56903229246436 213.16908157866465,121.6645142811076 215.5774442450484,122.06008252102828 216.04846030629903,122.1760249359146 216.58298894062318,122.2715069247611 217.11197620946942,122.36016877184838 217.57617212865594,122.44542054764955 218.11879968163038,122.57500324681651 228.62053968374798,126.89897331535008 228.88268889428574,126.8887431021523 233.54894484276264,126.7045992664218 234.28978277452558,126.6773186984703 238.205396837124,124.85634076720493 243.57242238263566,122.37039898469045 247.42963897875947,115.66278926485788 249.24251799112048,111.75143779115113 249.24337050887848,111.70369679670249 249.24464928556634,111.58775438166371 248.0536819775732,110.2032655424495 247.25615161500411,109.58945275673192 248.54728975946196,109.68834481671207 251.84951729512017,108.02423015292085 251.84738600072515,107.98330930068873 251.7762007679312,107.77188489665103 251.71354071276812,107.56728063482986 251.65897957620456,107.36608644368503 251.5374957956879,107.17171239490918 251.398961660011,106.97392827520292 251.29239694026035,106.7829642973575 251.17517574853295,106.59882046147453 251.06733225219529,106.41467662574401 251.05283945030908,106.35670541835165 251.0545444857743,106.14187094323108 251.03749413061405,105.93385661032706 250.9526686136919,105.73948256139876 250.78813268639564,105.5587487967511 250.60697266281818,105.3984754581941 250.43433781687082,105.24502226185362 250.2357011792549,105.08133885231538 250.02939188181688,104.9278856559749 249.8119998534723,104.78125260154609 249.79239194508884,104.76079217545544 249.69222110852246,104.57323826864204 249.6146419925434,104.37204407780212 249.56349092701188,104.15720960278317 249.5046672017591,103.95260534086037 249.4974208008168,103.73436079475857 249.5063722372251,103.62182845065021 249.61165818033953,103.42063425965783 249.67815456551526,103.3115119868356 249.69392614398765,103.27741127651512 249.75147109265345,103.05916673026088 249.76553763566065,102.8375121133811 249.76553763566065,102.67041863255675 249.70373009830644,102.53401579147813 254.75361903783775,105.01995757368772 254.87723411269863,104.97221657918826 254.9394679090843,105.12907984681485 254.99317652778822,105.27571290109123 255.00937436524126,105.32345389574314 255.0417700400457,105.41552581345596 255.10954520180763,105.57579915186052 255.12190670924798,105.60307972032015 255.22847142899943,105.79745376924843 255.3213958646219,105.99523788880227 255.41900914796585,106.18961193773055 255.43478072643904,106.22030257696815 255.5187537256032,106.40785648383235 255.54219796399934,106.46582769147878 255.60826809019363,106.59541039069654 255.63000729302374,106.64315138519602 255.66453426222242,106.77955422627463 255.68328965289865,106.90913692544159 255.68328965289865,106.95005777787696 255.68328965289865,106.97733834628578 255.68414217065668,107.20240303429924 255.7156853277031,107.41041736740652 255.76854142870062,107.62866191330507 255.8175611997855,107.84008631719034 255.8682860063872,108.05151072138048 255.89599283352257,108.26975526748228 255.89599283352257,108.29703583543377 255.88363132608222,108.40274803757967 255.87851621948334,108.4300286057344 255.85848205222086,108.49481995549574 255.78260797170702,108.71647457237552 255.67519073419754,108.93812918971263 255.6261709631119,109.0302011076287 255.60826809019363,109.0608917468663 255.5681997556179,109.10863274131496 255.39641742732775,109.2723161508532 255.23017646456628,109.43940963137267 255.2041746728961,109.47010027061027 255.1739102925375,109.53148154923794 255.17220525697067,109.5724024016733 255.17945165791377,109.62014339612196 255.1892556121301,109.64742396427671 255.24978437294973,109.71562538481601 255.2536207028608,109.76677645039834 255.25148940851656,109.81451744474536 255.24466926645246,109.84520808413541 255.20161711967287,109.90999943359186 255.17817288127674,109.93045985993658 255.09974124753967,109.98843106748137 255.03537615686062,110.02253177780185 254.85464239211132,110.11460369571792 254.82608304721794,110.13506412175775 254.74125753029577,110.2032655424495 254.5822629684266,110.37376909405184 254.5588187301321,110.40445973328944 254.35506698591647,110.57496328489178 254.33290152420818,110.59883378206528 254.31585116904793,110.62611435052492 254.30306340272858,110.65680498991496 254.27748786993743,110.87504953581352 254.26640513908328,111.09329408176288 254.2612900325352,111.12739479213415 254.260437514828,111.16149550265787 254.2979482961297,111.38656019062051 254.30604721488083,111.41043068794647 254.3103098036709,111.43771125610121 254.30050584940372,111.46499182435758 254.92540136612712,112.21520745150949 256,114.17599829493633 254.13511740434947,120.67559368186487 248.84396593930083,124.82224005688445 246.94540889215804,126.309031026806 246.92281717157073,126.4761245074271 249.27576618368374,128.4607858481799 253.14662306393492,131.7242238256453 250.8571866248454,137.00983392531768 250.59588993196402,137.20420797409352 250.32692057931052,137.34402088645825 250.0775591350929,137.44632301736885 250.0255555518542,137.46678344371358 249.8354440918176,137.45996330149703 249.79793331046508,137.31674031835433 249.718222900091,137.14964683783487 249.6295610532578,136.93822243384795 249.50807727279192,136.65177646720684 249.39980751747365,136.39261106851723 249.37210069038906,136.228927658979 249.33544242674375,136.0447838234009 249.31967084827136,135.84358963256096 249.3580341473819,135.611704802331 249.37678953805894,135.37299983018934 249.39724996425042,134.84784889120334 242.7412175685735,128.64833975473923 242.4999550431078,128.0311168980912 240.88528640933208,127.99360611678951 231.66701189195106,127.4820954619825 231.5659885376783,127.4718652486323 231.4274544020014,127.51619617230297 231.237342941914,127.58439759284228 231.19684834845924,127.60144794810414 230.98670272110937,127.76172128655952 230.7569491852744,127.88789391459281 230.52634313173226,127.97655576152765 230.26973528662074,128.1061384606946 230.06086843585788,128.2459513729069 229.87459330578315,128.39599449846938 229.71474622615594,128.57331819213582 229.68874443448578,128.61082897343752 229.56299806528148,128.82566344840563 229.54765274558565,128.85294401686528 229.48243513704696,128.94160586359686 225.93809255811263,135.34571926172973 226.93212826395504,136.9893734991254 225.15676003289573,139.71402025393397 222.78335059459124,143.3696164002372 221.9824101609901,145.33040724366404 220.53952385555533,148.05505399816772 218.97430125179508,150.35003180273515 218.9457419069017,150.38413251325886 215.81060785181378,153.95106681272887 214.65459377205158,155.540159913561 214.22279352751704,156.02097992897797 214.1771838274634,156.01756985804755 214.10685111247827,156.0039295740718 214.0352396208053,155.9902892898928 213.99687632169477,155.9902892898928 213.9474302917301,156.0107497161359 213.92185475898972,156.01756985804755 213.8903116019433,156.01756985804755 213.86430981027314,156.01415978691386 213.79823968407806,156.0005195027857 213.7671227858598,155.99369936087402 213.73941595872444,155.98005907674585 213.57573254918617,155.88798715882976 213.5250077426861,155.86411666170707 213.44785488548365,155.84365623531153 213.41034410418195,155.84024616453357 213.37539087610426,155.8470663064452 213.34427397788602,155.86070659042096 213.07061577756426,156.0346202133094 213.03779384393164,156.04826049743758 212.9410330783465,156.0789511366752 212.7061644360143,156.2460446172963 212.64520941631645,156.4472388079838 212.61920762479872,156.51544022887882 212.49857636193843,156.6961739933232 212.3553533786433,156.8155264796481 212.28672569907255,156.86667754492555 212.11323833531796,157.0269508836858 212.0578246810972,157.10538251737208 212.04077432588616,157.12584294346271 212.0139200165088,157.15653358285277 211.9917545548005,157.17017386682852 211.8459740181805,157.23496521658984 211.63753342639745,157.38159827086622 211.5241485645819,157.49754068605745 211.50795072712887,157.52141118323095 211.49558921968853,157.5452816805569 211.48919533650343,157.5725622485084 211.4874903009366,157.60325288789844 211.51178705703992,157.8214974338478 211.4636198037631,157.937439849039 211.44571693084484,157.96472041749865 211.311445383958,158.13863403987895 211.19337167442256,158.3364181599409 211.06293645749759,158.53761235078085 210.95850303209036,158.74221661255123 210.94486274801298,158.77290725178884 210.89840053015052,158.91613023528723 210.87879262171626,158.9502309456077 210.73855345052334,159.12073449721004 210.56122975690772,159.27077762246765 210.3702657791131,159.44810131613406 210.26370105936167,159.56063366039487 210.25133955181968,159.58450415772083 210.24238811541136,159.61519479695843 210.2466507041506,159.8436695559023 210.24494566863459,159.93574147376756 210.24068307984453,159.96302204222718 210.23258416114342,159.99030261033113 210.1439223143102,160.19831694323514 210.05909679738804,160.3244895714717 209.98407523468302,160.52227369153366 209.97128746831282,160.55296433077126 209.82763822608786,160.7405182374322 209.80675154101658,160.76438873475817 209.79183248025137,160.78484916100126 209.78288104379226,160.81212972895275 209.78117600827622,160.83941029741237 209.7790447138812,160.87010093680243 206.98747531527198,161.2349785371806 207.6963438310587,163.36968300298776 207.951246640755,165.89654563778515 207.8080236573582,166.27506352229153 207.79395711435103,166.30916423281525 207.76070892178856,166.53081884969504 207.75005244981344,166.56491956021875 207.73939597783829,166.5922001283227 207.72319814048686,166.6160706254962 207.70103267872776,166.63994112282217 207.51475754870384,166.81385474555816 207.439735985948,166.9161568766212 207.42183311302975,166.95025758663678 207.3898636971051,166.99799858113624 207.34766406808274,167.06620000182798 207.2001784958959,167.25034383771094 207.0821047864113,167.44812795746805 206.95976848818742,167.649322148308 206.91160123480896,167.71752356884727 206.7764771701641,167.83005591310808 206.7470653075635,167.84369619723626 206.71466963275907,167.85392641043404 206.5066552997534,167.92212783097335 206.243653571406,168.01078967785736 206.14561402923545,168.05171052998787 205.93802595515962,168.19834358441668 205.8979576205839,168.2392644370045 205.86811949900346,168.28018528943986 205.85916806259436,168.30405578641012 205.81654217469378,168.5257104036456 205.7538821194291,168.7405448784613 205.70400983058542,168.94173906945366 205.672466673539,169.05427141371447 205.66266271932184,169.27933610172792 205.59574007536875,169.48735043463196 205.5134721116706,169.68854462562433 205.40775990972716,169.88632874548304 205.28286605817766,170.08752293617056 205.25132290113203,170.12162364654182 205.22361607404747,170.15913442784353 205.08337690275292,170.33645812150996 205.0612114410446,170.35009840563814 204.93589133071853,170.41147968446904 204.91159457451357,170.4285300393752 204.869821204371,170.4626307497465 204.8536233670196,170.48309117609122 204.72404066775098,170.6842853667787 204.61790220687854,170.7865874976893 204.52668280682212,170.83432849218877 204.5040910861848,170.84796877631695 204.30374941305124,170.98437161775126 204.0739958772671,171.0934938908784 203.84168478825973,171.20943630591717 203.6728862721226,171.29468808171833 203.642621891764,171.2980981524963 203.3723737624743,171.3390190050841 203.11874972941501,171.40040028355932 203.0953054911205,171.41404056768752 203.07484506487742,171.43109092279693 202.98192062930497,171.51975276988424 202.86469943757837,171.7107167475264 202.73511673831055,171.9050907964547 202.5045106847676,172.30747917813457 202.45421213704492,172.39273095393574 202.40263481273604,172.46434244576116 202.3578776303896,172.51208344005735 202.2990539051376,172.57687478951382 202.1451744497657,172.74055819905206 202.12727157684745,172.78488912272272 202.1166151048723,172.8326301169173 202.1004172675209,172.95198260324221 202.01175542068768,173.14635665217048 201.9849011112595,173.1838674334722 201.80629864100686,173.3373206296602 201.76623030638032,173.37824148224803 201.74917995122007,173.402111979574 201.73937599695213,173.4259824767475 201.7346871493339,173.45326304485144 201.7069803222493,173.67150759095324 201.7018652155996,173.88975213705504 201.69802888568856,174.11140675393483 201.68012601277033,174.33306137132274 201.64005767814376,174.55130591722127 201.59444797809016,174.77296053430433 201.52752533408622,174.99461515133655 201.42351816760961,175.1855791293344 201.2977717983521,175.379953177907 201.21720887017,175.5743272268353 201.15625385052297,175.79598184391833 201.143892342981,175.89487390369524 201.0803797700091,176.10970837896824 200.9989643241698,176.31772271171985 200.91499132495485,176.52573704482714 200.78626114354591,176.73375137773115 200.62002018078445,176.914485142328 200.46273065438126,177.07816855186624 200.049685800573,177.52488785726763 199.71635135719043,177.7670029003397 198.28497404153967,178.23077256085048 197.3395318478539,178.65362136872264 196.96655532872379,178.77979399695917 196.7491633004308,178.96393783253725 196.07610053053142,179.42770749299723 195.16902163595617,180.05175049206503 194.86595157298302,180.55644100480794 194.86680409074106,180.59736185688763 194.86765660849827,180.80537619009652 194.86850912630788,180.95882938648782 194.87277171504712,181.00316030985363 194.86296776083,181.12251279597524 194.78069979718185,181.2998364896925 194.7755846906846,181.50785082259654 194.7968976346349,181.6033328113922 194.79604511682606,181.63743352176348 194.7691908074995,181.62720330871815 194.74148398031332,181.62379323778774 194.71292463541994,181.62379323778774 194.51471425668223,181.62379323778774 194.48785994735567,181.63061337969938 194.4618581556855,181.64084359289717 194.43670888182416,181.6510738060441 194.41539593787385,181.6681241610011 194.22400570120024,181.81475721542992 193.98956331774704,181.9579801989283 193.78581157358224,182.11825353718044 193.60166773785173,182.27511680480703 193.41922893768805,182.44562035640936 193.36935664884436,182.47972106672984 193.25938185806086,182.5547426295365 193.25426675146196,182.7286562519168 193.24403653836583,182.75593682037643 193.22911747760062,182.7798073177024 193.2120671224412,182.8036778148759 193.18777036638787,182.84459866726044 193.15835850368566,182.90939001671688 193.1549484326536,182.9366705851257 193.1477020317105,182.96395115328045 193.02621825119385,183.16855541520326 192.87958519686666,183.36292946413155 192.71590178732842,183.54025315784878 192.56671117967636,183.71757685151522 192.39578136919502,183.88467033183144 192.2043911325214,184.02789331532983 191.9648336424693,184.16088608542722 191.7431790254879,184.27682850061842 191.56713410835687,184.3416198500749 191.53431217467343,184.3416198500749 191.50106398216178,184.3416198500749 191.30626367450694,184.35185006342508 191.25596512673343,184.36549034740082 190.98614325632272,184.44392198113792 190.75809475605462,184.54622411220095 190.65877643724625,184.59737517747837 190.50532324075334,184.67580681121547 190.36678910507644,184.730367947779 190.3122279685637,184.7474183030409 190.28537365918632,184.7508283739713 190.25766683210256,184.75423844510496 190.2299600050172,184.7474183030409 190.20395821334702,184.7371880898431 190.04411113371984,184.68262695327954 190.01555178882643,184.68262695327954 189.76874789783125,184.68944709534364 189.74189358845388,184.69626723756016 189.71759683240137,184.7064974506055 189.6557892948947,184.72354780586736 189.6255249145361,184.7746988711448 189.39491886099395,184.93838228068304 189.165165325159,185.0679649801549 188.95501969780912,185.1736771820467 188.75382550691836,185.30666995234733 188.53430218428116,185.43966272244472 188.30625368396224,185.56583535068125 188.071811300509,185.69200797891781 187.85996063769392,185.81818060715435 187.64896249253601,185.97163380364725 187.43284924087928,186.11485678678997 187.22440864909623,186.26148984137123 187.0189518693646,186.3978926826531 186.97504720487782,186.41835310869294 186.7785418616053,186.25466969930713 186.58970917820574,186.08075607662195 186.53088545295373,186.0534755081623 186.50488366128357,186.04324529532025 186.4771768341482,186.0296050109888 186.41835310889618,186.00232444288488 186.3689070788807,185.985274087623 186.3458890994144,185.97163380364725 186.2521121460331,185.91707266708372 186.19925604503638,185.90002231182183 186.16771288798995,185.90002231182183 186.14000606085378,185.90684245388593 186.11528304592383,185.92048273816656 186.06967334586943,185.94435323518763 186.04367155419925,185.95117337725173 185.83182089138336,185.9920942296871 185.6527921621509,186.04324529532025 185.45884437225405,186.0943963605977 185.43113754506786,186.11144671585956 185.39277424595733,186.13872728396348 185.3258516019542,186.21033877563647 185.31519512997826,186.25466969930713 185.3186052010103,186.47291424510405 185.33011419074427,186.6843386492942 185.32755663752027,186.80028106433298 185.31604764778712,186.82415156165894 185.26873291216666,186.8957630533319 185.07990022876706,187.0594464626669 185.0547509549057,187.10036731510226 185.05048836616646,187.1481083094493 185.0389793764333,187.19243923311998 185.01212506700512,187.32202193233775 184.8181772770575,187.29815143516424 184.60249028433134,187.22312987220513 184.4891054225158,187.18220901997302 184.53130505153737,186.8036911352634 184.58458741141308,186.52406531088965 184.66856041052642,186.3092308355658 184.69115213116456,185.96822373236114 184.59822769549046,185.77043961265488 184.43113421492018,185.56583535068125 183.9221811133872,185.1498066848732 183.74698871416663,184.98271320435373 183.52917042694384,184.611015461759 183.3369276725122,184.2154472221432 182.98185402630114,183.63573514649204 182.82712205327203,183.29813811442102 182.65917605494374,183.00146193458215 182.47076963042315,182.87528930634562 182.18091359264838,182.70819582587697 182.03087046728913,182.57179298459508 181.84374281935476,182.20691538426772 181.66769790232533,182.15576431863457 181.53726268540038,182.172814673744 181.28960627664716,182.28875708878277 180.86974128087724,182.49677142183924 180.48355073644714,182.5035915640558 180.2188439726353,182.3569585094745 179.99974690887714,182.13189382130864 179.7299250383648,181.89659892030065 179.40341073704633,181.59992274046178 179.1084395927743,181.40895876281962 178.64722748569,181.31688684490354 178.31005671239637,181.11569265391117 178.12250280563381,180.88039775275075 177.99206758870884,180.6416927806091 177.89360178760768,180.39957773718135 177.75677268744678,180.08926127336673 177.56921878073504,179.89147715330478 177.29939691032516,179.68687289153442 176.9963268473004,179.58798083155423 176.71201217500348,179.57775061855972 175.97714186759742,179.59139090253547 175.68131820556738,179.47544848734427 175.34158987905056,179.21628308895953 175.19921941341178,178.8445853466697 175.1484946068101,178.29215383947812 175.15744604332002,177.96137694926796 175.0483237702437,177.480556933851 174.9008381981077,177.1224994754353 174.8773939598132,176.86674414803178 174.95625185237844,176.65190967286043 175.2307625704582,176.3620536352889 175.48012401472744,176.1062983078854 175.68643331216626,175.7243703520929 175.92599080211673,175.1889892001124 175.96733791343112,174.90936337553538 175.96264906571125,174.7183993978932 175.9012677871344,174.5990469115683 175.70007359624444,174.40808293392612 175.46733624830645,174.24439952423546 175.27637227051184,174.02615497813366 175.00015651691606,173.81473057440084 174.5521584350817,173.60330617041393 174.04277907476978,173.29980984851096 173.68514787518305,173.03041423697928 173.4383439842895,172.92811210606868 173.11651853058927,172.8155797618079 172.66766793104694,172.76783876746086 171.83561059922755,172.73032798600673 171.17022048904863,172.7337380571404 170.83347597463322,172.9144718219405 170.13441141311526,173.1770472914081 169.74182698550007,173.1940976464667 169.20218324467868,172.9894933845439 168.91317972476352,172.76783876746086 168.84710959846683,172.76783876746086 168.3189748474294,172.75078841240227 168.02826629194823,172.6553064232509 167.64378078303255,172.4063712379115 167.39996070429282,172.14379576844388 166.98691585053618,171.64592539776507 166.50396454062255,171.22648666097575 166.12587291489356,171.02188239905297 165.70131907145458,170.9127601260783 165.13183720905116,170.82750835027713 164.30318994826462,170.76953714257988 163.59815776243897,170.55129259663053 163.14120824419632,170.34327826357404 162.21580021777302,169.88291867440017 161.9566348193375,169.5794223524972 161.85390642949707,169.34753752241966 161.77078594809095,169.1531634734914 161.54529500114768,168.85307722272208 161.3811853326796,168.53253054555725 161.23710983162644,168.39953777525662 160.9779444332417,168.19493351363872 160.95450019479478,168.17788315837683 160.69789234963324,167.94599832829928 160.44682586989882,167.74139406617323 160.20812089765553,167.55384015930903 159.8244879065503,167.29467476112757 159.7234645522767,167.2026028432623 159.52951676227826,167.04914964671858 159.2106751207819,167.01845900732852 158.92081908310874,166.9468475158588 158.8172381755103,166.81385474555816 158.81468062228709,166.67063176205977 158.81468062228709,166.5922001283227 158.76097200348156,166.39100593763519 158.66975260332347,166.1761714623622 158.5516788938897,166.02271826617414 158.4067508749769,165.8488046432857 158.3577311038912,165.72263201540486 158.41953864139788,165.4191356935019 158.41314475821278,165.15997029481227 158.4007832506708,164.98605667243197 158.43829403202332,164.78486248159203 158.62073283223782,164.61094885870358 158.78228494743183,164.46090573329352 159.03249890935746,164.21879069022145 159.26438373953582,163.9493950784865 159.3722272359759,163.78571166894827 159.38203119019306,163.39355350031371 159.23539813576423,163.14802838610797 158.9843316560806,162.93660398191784 158.73497021181137,162.7456400044281 158.4374415143161,162.5273954583263 158.16293079618555,162.39440268787322 157.88586252483253,162.26823005963666 157.5755460609155,162.09090636597026 157.31638066247996,161.93745316962978 157.1070875528881,161.78058990215564 156.84706963669532,161.6032662084892 156.6548268823137,161.42253244384153 156.57255891866558,161.2417986792447 156.43231974742184,160.8871512917086 156.32959135758145,160.61434560939892 156.12029824798958,160.3551802107093 155.86283788517167,160.19149680117107 155.59088472026434,160.04486374674224 155.33726068725585,159.93915154490122 155.0985557150634,159.78569834856077 154.92592086901521,159.5879142284988 154.71407020614933,159.47197181346002 154.44765840677067,159.31851861711954 154.2017070335843,159.09345392895366 154.10793008025385,158.89225973811372 154.0124480913057,158.66378497881414 153.85686360046859,158.50351164025713 153.58405791790486,158.37051887010895 153.26947886525016,158.29549730750554 152.89778112270545,158.21706567361602 152.39095931556753,158.12158368492197 151.88754757951244,157.9613103462125 151.5414253697089,157.7805765817173 151.31977075262586,157.5827924618586 151.15438230757158,157.36795798689047 151.0141431364803,157.15653358285277 150.92548128954544,156.96215953392448 150.8253104530299,156.7711955562823 150.53119182646506,156.29378561149088 150.39180517308097,156.01415978691386 150.29078181870577,155.87434687454913 150.19061098214019,155.76863467270815 150.0665696483487,155.6561023287522 149.93528191361492,155.58449083713006 149.81976575745514,155.56403041088697 149.70467586007274,155.5674404818682 149.58915970391297,155.5981311211058 149.43741154293608,155.64587211560527 149.25412022496357,155.71066346516335 148.87773363480142,155.86411666170707 148.70850885988693,155.92549794033474 148.58190997277137,155.95277850828623 148.435276918495,155.93231808224638 148.32530212760986,155.88798715882976 148.1454208806694,155.8027353830286 148.03715112545274,155.72430374934234 147.91225727390403,155.62200161843177 147.78267457463542,155.5196994872163 147.6466979923342,155.44808799554332 147.5162627752568,155.4173973563057 147.29972326472182,155.3730664329399 147.13902366733663,155.31850529637634 146.9842916942575,155.21961323659943 146.92163163909447,155.16846217096628 146.8295597212292,155.0832103951651 146.74558672201422,154.9672679802788 146.69997702196062,154.9024766307207 146.66971264160202,154.8240449968312 146.63475941347272,154.71151265287529 146.61685654055526,154.61603066392718 146.6113151751274,154.4762177517149 146.61685654055526,154.34322498141424 146.65990868733405,154.2204624243114 146.73024140247165,154.08405958272462 146.8001478585778,153.9578869548438 146.8073942595209,153.85217475264707 146.76903096041036,153.76010283478183 146.70338709299264,153.6441604195906 146.6185615760705,153.52480793372305 146.5597378508693,153.42250580271082 146.5371461302312,153.31679360051413 146.57039432284446,153.22472168264886 146.6403007789514,153.11900948080788 146.75624319398938,152.98942678159008 146.95019098398785,152.73026138310374 147.03885283082028,152.5870383999102 147.2183078188317,152.28354207805805 147.28011535633837,152.15736944982152 147.325725056392,152.0141464663231 147.35257936571855,151.8675134118943 147.38668007608982,151.7174702866875 147.4224858219263,151.58106744525318 147.43996243596555,151.43784446211046 147.3990415835302,151.31167183372148 147.31037973669697,151.1650387794451 147.23535817399193,151.0252258670804 147.14499129169351,150.88541295471566 147.020097440094,150.7592403264791 146.8977611418193,150.64329791144033 146.76348959493248,150.5512259935751 146.62495545925557,150.45233393379817 146.50347167873812,150.3466217317539 146.35214977669185,150.2170390324345 146.22725592514314,150.11473690167637 146.08659049512204,149.97151391822877 145.97064807998163,149.83170100586403 145.86664091355502,149.6680175963258 145.76604381805882,149.51115432900409 145.65692154508415,149.33383063518522 145.57976868793327,149.17355729678067 145.52009244487246,149.03374438441594 145.4420870700144,148.9007516141153 145.35811407090185,148.78139912794285 145.2877813558651,148.69273728121127 145.04353501814393,148.54269415564877 144.86280125344547,148.45403230906962 144.82529047214376,148.43357188267407 144.6607545447967,148.38583088832706 144.5145477492977,148.32103953876899 144.3679146949705,148.25965826014132 144.2506935032439,148.18463669733467 144.19698488448915,148.089154708539 144.12452087500733,147.9800324355643 144.06484463199735,147.898190730846 143.96978890197906,147.81634902587365 143.85469900459665,147.72086703717957 143.60448504262024,147.60151455105796 143.58274583984254,147.5844641957961 143.56143289589144,147.56059369847014 143.51028183035993,147.47534192266897 143.48172248546734,147.44124121245014 143.45060558734994,147.41396064419376 143.41394732370463,147.39350021815392 143.37174769468305,147.386680076039 143.32528547687141,147.386680076039 143.27967577681778,147.39350021815392 143.19740781316966,147.42419085739152 143.16629091505305,147.43783114151972 143.11002474302427,147.48216206473307 142.8657784053031,147.60151455105796 142.82315251740252,147.62197497709778 142.77839533510692,147.62879511916188 142.58956265170733,147.6458454742713 142.53159144426337,147.63902533235964 142.25537569056675,147.60151455105796 141.97574986593892,147.59128433770775 141.82528048164988,147.61856490611655 141.67054850856996,147.66971597159727 141.37685614098655,147.70722675289895 141.09595153972091,147.7242771081608 140.80737427858392,147.70722675289895 140.5124031343119,147.68676632685913 140.24684385274207,147.66630590046358 139.9569878149673,147.67653611350892 139.9267234346087,147.67312604252768 139.74343211658538,147.62879511916188 139.71402025398478,147.61856490611655 139.66286918845327,147.59128433770775 139.64155624450297,147.577644053732 139.62194833611952,147.56059369847014 139.5183674285211,147.4276009281695 139.50216959106805,147.36280957871307 139.42075414517794,147.15479524565657 139.3589466077729,147.0763636119195 139.3222883441268,147.04908304366313 139.20250959917777,146.98770176518792 139.05076143820088,146.95019098388622 138.766446765904,146.9092701312984 138.46763929177172,146.892219776189 138.43993246458552,146.888809705411 138.41435693189598,146.8819895633469 138.38920765803465,146.87175935014915 138.14496132031348,146.74558672176016 138.0200674688156,146.6296443067214 137.83677615079228,146.46255082640516 137.6615837516225,146.31250770069025 137.44163416995386,146.1897451437398 137.38366296245908,146.1692847174967 137.1973878322835,146.12836386511216 137.1671234519249,146.12495379397848 136.88664510953907,146.12154372320052 136.59508403629908,146.14882429115198 136.47615780900563,146.16587464641384 135.70931808567414,146.32273791404043 135.22807181132737,146.27840699062384 135.04392797554604,146.2579465642791 134.3333544242433,145.76007619375275 133.8785362004457,145.3815583089415 133.6914085524605,145.1292130528241 132.85849870293393,144.0072996830775 130.8640334080148,141.29970328383567 130.98210711749942,136.47104270240675 130.59932664420379,136.36874057134372 129.0788612227892,135.9663521895114 126.3354590774568,135.31843869362578 121.3533452996874,134.1453742584493 117.36143089774615,133.15645365935902 106.11842670519144,133.38492841830288 102.16700689670492,133.47018019410405 94.31489208653842,133.01323067570814 94.06894071340287,133.01664074699428 93.97345872450556,133.0507414571623 93.68743901664183,133.1121227356375 93.64523938762025,133.1121227356375 93.49860633324225,133.10189252279545 93.21173410767132,133.0439213150982 92.92571439996003,132.98936017853464 92.64310476307753,132.9484393262517 92.36944656275578,132.9382091132572 92.07447541848295,132.95184939723293 91.64651150401271,132.98595010775668 91.5740474945309,132.98936017853464 91.30038929420915,133.02687095983634 91.22792528477815,133.05415152829596 91.02886238838406,133.12235294883527 90.76245058900541,133.22806515098117 90.50200641388203,133.33377735302543 90.24752986306474,133.4428996260001 89.97216662722697,133.52474133051516 89.6976559091472,133.60317296440468 89.41504627241716,133.68160459814175 89.171226193575,133.75662616074516 88.89415792222121,133.83505779448222 88.63371374719945,133.9271297123475 88.40950157679157,134.0567124116669 88.1993559494417,134.2067555369245 87.96704486038351,134.30564759685385 87.69892802548884,134.40453965693564 87.45553420557651,134.49320150371804 87.20702527911611,134.5716331374551 86.94785988067977,134.65347484227505 86.84257393756612,134.69439569455798 86.80293186181858,134.72167626301763 86.67889052802788,134.81715825166086 86.57616213818747,134.90582009874814 86.4832377025642,134.9876618032632 86.42313520062437,135.05245315302452 86.24623776583695,135.2468272019528 86.11921261994324,135.3525394037938 86.04248602167216,135.485532173942 85.90906699259415,135.7071867912791 85.73131704004872,136.02091332607498 85.6712145381089,136.11980538600432 85.60429189410497,136.23915787217678 85.10556900561734,136.79158937936833 84.40991451513062,138.13174729506432 81.02840282797813,139.3082218010188 79.25559215014125,140.23576112163386 78.99898430497973,140.3687538919345 77.03520964939985,141.28265292842138 75.77902473302046,141.8691851459842 75.4090320260434,142.01922827139427 74.86043684871129,142.3329548064442 74.51985600438641,142.70124247780362 73.0714283335754,144.2187240871152 72.38770909159922,144.95870950122176 69.26792035620632,148.1266654898407 67.47081292231772,150.3261613054092 66.64046062596354,151.41056389365085 66.06117480939461,152.31423271729565 64.9430977697623,153.8078438292813 64.76492155833786,154.33981491012813 64.56926873287418,155.06274996897284 63.408992064221096,159.34920925635717 63.197993919112406,160.33812985575233 62.824164882275106,162.35689190672397 62.44266318551407,164.58366829054881 62.45886102301792,166.44215700311588 62.50958582951799,167.240113624564 61.99381258592092,171.45496142012288 61.9034457036225,171.70730667639273 56.8565405761934,169.03040091638852 52.19284218099135,166.0295384080858 50.384225757368796,164.84624376006724 47.76145487479507,161.7839999732893 46.598620652867154,160.2187773696307 45.724363692077,156.98944010218085 43.47243803428917,151.8709234831804 43.155301428308825,151.2468804841126 41.39314722244789,147.77542817343826 40.25546227438131,145.8589682537329 39.32920173030163,144.41991827795513 36.98904048460961,141.26219250253396 36.73072760388285,141.0064371751305 33.521424503847115,137.8009704047017 32.50223952419498,137.03029435171322 31.47708692013513,136.3005391508044 30.578533203190826,135.62534508630674 29.347497560621974,134.7387266180762 28.392677671699715,134.111273548078 27.01074638596359,133.12917309089937 26.316370672011477,132.54946101555308 25.500937436524126,132.04136043182893 24.85472897595128,131.59805119761205 24.62923802890638,131.59805119761205 24.369220112712817,131.6662526183038 24.18976512465136,131.727633896779 23.97407813192443,131.81629574351058 22.340227848695854,132.84272712410583 21.47406980660681,133.38833848943653 20.44849094361714,133.96464049364917 17.425462973707752,134.86148917538233 14.23747281767392,135.87769034288144 11.913083150404285,134.2135756789886 11.323140861860207,133.78049665791866 11.167556371023078,133.6986549534036 10.580597894632042,133.63727367472515 10.105745503419541,133.65773410096824 9.559707879463879,133.65091395890414 8.34913266303649,133.64068374570638 3.403250889982593,133.42925934166865 2.4467259654426834,133.23829536387404 1.1040104965743007,132.87682783462955 0.924129249683858,132.85295733745605 0,132.7199645671554 0.1287301814597624,132.644943004552 0.490623969735717,132.44033874242595 0.9778378684393872,132.26642511984238 2.3393087279332128,131.5332598478507 3.1287401718520207,131.08313047167135 4.171795648779301,130.585260101145 5.194390699565115,130.08738973051697 5.870437281617556,129.783893408614 6.394309443966542,129.50767765481498 7.20590634954284,128.89386486930064 7.494483610629791,128.54603762398108 7.660724573442066,128.33461321999417 8.260897075082283,127.82310256518717 8.622790863358238,127.65600908436281 9.317166577258744,127.46504510672064 10.104892985662323,126.92625388375889 10.427570957068946,126.40792308688779 10.606173427372392,126.13511740422243 10.708475558333792,125.88959228986425 10.795858628580802,125.5417650445955 10.81930286687531,125.33375071169147 10.831664374417294,125.14619680482727 10.83805825760238,124.96546304033205 10.939081611875949,124.5869451555208 11.042662519474367,124.25275819453266 11.081878336342905,124.05838414560438 11.085714666253956,123.88788059400204 11.026464682123754,123.79580867613677 11.032858565257234,123.6696360481035 11.03115352974121,123.59120441436642 11.023054611090913,123.48890228330339 10.974461098833434,123.27747787926569 10.978297428744487,123.20927645857394 11.014103174580976,123.11379446972744 11.12578300093132,122.96716141529862 11.21700240098696,122.86826935536926 11.370455597479875,122.61933417002986 11.397309906807223,122.51362196818886 11.384095881558043,122.30560763528482 11.385800917124879,122.04644223674764 11.38324336380003,121.99188110018409 11.358094089938685,121.93731996362052 11.300122882444706,121.86570847209998 11.017513245613022,121.75658619897285 10.870027673527819,121.68497470750313 10.800547476199053,121.62018335774181 10.7216895836846,121.5519819372025 10.672669812497302,121.4837805166632 10.644110467603117,121.4087589537041 10.612567310556685,121.30304675171065 10.614272346124316,121.14277341345853 10.63601154895282,120.98591014583194 10.580597894632042,120.91770872529263 10.523052945966255,120.83927709155556 10.447178865553235,120.79835623896774 10.354254429879942,120.76084545766604 10.25877244103345,120.72333467636435 10.150502685715153,120.65854332660301 10.060988321225556,120.55965126682611 9.991508123845183,120.42324842554423 9.870450602208319,120.23228444759718 9.81716824233259,120.1095218904943 9.802675440447185,119.97993919147979 9.792018968471245,119.89468741567863 9.783920049871762,119.8298960659173 9.764312141335866,119.65257237225087 9.792018968471245,119.45478825234134 9.886648439661355,119.30133505584843 9.992360641654802,119.06945022577088 10.034986529555386,118.9807883790393 10.085285077278074,118.89894667416856 10.153060239040002,118.81028482743696 10.28008538498374,118.66365177316058 10.42117707388386,118.53747914492405 10.503445037531192,118.47950793737925 10.71273814712385,118.3635655220356 10.861928754775894,118.33287488279798 11.013250656822965,118.3567453799715 11.154342345823917,118.38402594843113 11.269858501984478,118.39084609049522 11.477020317232128,118.38743601936154 11.67352566045382,118.37038566425213 11.920329551347383,118.23057275203985 12.017942834690533,118.12145047891272 12.095521950669596,118.04301884522646 12.127065107716028,117.91002607492582 12.103620869319892,117.78385344668928 12.034993189850768,117.66791103149806 11.95443026166785,117.49399740891451 11.915214444900942,117.30303343111989 11.910525597181064,117.10524931141362 11.972333134586096,116.97907668317708 12.001744997237498,116.94156590187538 12.02135290572258,116.92451554661352 12.099358280580649,116.87677455211406 12.163723371309736,116.83926377081235 12.260057877915829,116.80175298951065 12.413084815477335,116.64829979317018 12.48171249499807,116.5766883014972 12.555029022187073,116.45392574439434 12.673102731671689,116.2766020507279 12.943777119840394,115.9151345211277 13.357674491355061,115.47182528701245 13.760915390894583,115.35247280089081 14.187600528830238,115.21265988867853 15.774136076439145,114.69432909180743 17.555898190734354,114.07369616387331 19.685061291317687,113.51444451456683 21.913542710811804,112.64146633051533 22.490270974055885,112.37207071878038 23.517554872459158,111.65254573106934 24.593858541948894,110.73523662365204 24.919094066681158,110.53063236152599 25.155241485598783,110.31920795748827 25.218327799693235,110.03276199084716 25.288234255900214,109.94410014411558 25.4480813355274,109.76336637931549 25.593861872147396,109.58604268580149 25.775448154603883,109.40189885007098 26.01330060908914,109.23821544053273 26.145440861530133,109.15978380679566 26.17059013539148,109.14955359344545 26.343224981439658,109.09499245703432 26.411000143201584,109.0677118889304 26.43785445252814,109.06430181764428 26.471955162950234,109.05407160459896 26.503072061066845,109.04725146253486 26.532483923667435,109.03702124969278 26.62285080601667,108.97222989977902 26.651410150910063,108.94494933182753 26.725579195857076,108.8358270587004 26.836406504398596,108.64486308070254 26.857293189470674,108.61076237068696 26.91526439706549,108.49140988436207 26.93657734101578,108.44707896099627 26.9463812951821,108.4061581085609 26.955332731641224,108.38228761123494 26.967267980253386,108.35841711406142 26.99369603080256,108.2936257646558 27.009041350395957,108.24588477015634 27.032485588792092,108.22542434391323 27.05294601493356,108.1879135624591 27.074258958883853,108.16404306543802 27.179971160877297,107.96966901650974 27.285257104042554,107.77529496758144 27.39182182379401,107.58433098978684 27.50179661457831,107.39336701214467 27.654397293261606,107.21604331847823 27.83939364675014,107.05918005100409 28.038882802074056,106.90913692544159 28.205976282644343,106.72158301888227 28.31765610894308,106.52720896995399 28.434024782912466,106.31578456596709 28.54570460926281,106.10777023306306 28.636071491561232,105.88611561582758 28.723454561808243,105.67128114085945 28.84792215447795,105.47690709193117 28.97025845270181,105.27571290109123 29.056362746260195,105.15636041507122 29.10538251734666,105.13248991774526 29.138204451029313,105.1154395628391 29.286968799803144,105.07110863927005 29.379893235476437,105.03018778703793 29.46727630562261,105.0029072185783 29.592596416050327,104.97562665047437 29.67742193297249,104.94152593995065 29.949375097829027,104.86991444827767 30.22814840464803,104.7846626724765 30.506921711569454,104.71305118100678 30.608797583600243,104.68918068383327 30.890554702673914,104.63120947598358 30.9272129662176,104.62097926293826 30.96131367658888,104.60733897881008 31.05935321870941,104.55277784224651 31.091748893513852,104.53913755811833 31.11945572064923,104.52549727414258 31.145457512319403,104.51867713223093 31.173164339403968,104.51185699016683 31.193624765596248,104.49821670598784 31.218774039457593,104.47775627964312 31.240086983407885,104.46411599566737 31.266088775078053,104.45047571133593 31.28995927225157,104.43683542720774 31.30956718073665,104.41296493018667 31.32491250032925,104.38909443286072 31.42593585470445,104.17767002902626 31.480496991268804,104.08900818193898 31.5018099352183,104.06513768476546 31.596865665186584,103.97647583803388 31.625425010080768,103.95942548292446 31.882885372948685,103.8605334229951 32.129689263943874,103.76846150492659 32.18126658825277,103.74459100795633 32.20300579108207,103.73095072377734 32.221761181809136,103.71390036851547 32.260124480868846,103.67638958706134 32.27887987159592,103.65251909004026 32.29593022670534,103.62523852163145 32.3074392164901,103.59795795332425 32.31639065289762,103.57067738506788 32.348360068823055,103.43086447270315 32.359442799676415,103.36948319422794 32.362852870709254,103.28764148950964 32.43148055028001,103.08644729851726 32.43616939789826,103.05916673026088 32.435316880190264,103.02847609102328 32.422529113770864,102.80341140285738 32.425512925923115,102.76931069263854 32.483484133467904,102.537425862561 32.57214598030112,102.32941152935207 32.63267474111995,102.13162740979826 32.6872358776843,101.9202030056081 32.739239460870614,101.70536853079241 32.78016031330678,101.57919590240343 32.911874306919586,101.39505206682536 33.05552354909374,101.20749815996116 33.178286106299026,101.01312411103287 33.194057684770634,100.99266368499303 33.26140658765356,100.94151261935988 33.29678607461104,100.90059176707696 33.315541465287296,100.88354141201835 33.338985703632616,100.8699011276869 33.39184180462855,100.83921048860174 33.41656481961168,100.81875006225702 33.575133122652666,100.65506665271879 33.73412768447103,100.47092281698826 33.867120454771666,100.27313869707874 34.01758983900991,100.07876464850615 34.158681528011655,99.88780067050827 34.28400163838856,99.69342662157999 34.443848718015744,99.51610292791356 34.61648356406392,99.35923966059185 34.77803567915632,99.18873610898952 34.96345829152386,99.01823255738718 35.517594834231446,98.84431893485443 35.66039155874922,98.78293765622678 35.78741670464214,98.74883694570306 35.94385371323728,98.71132616440136 36.17829609669049,98.66358516990189 36.46047947464317,98.60561396256035 36.81640563856223,98.56810318105539 37.12757462028651,98.5237722576896 38.456649805027496,98.39759962945305 38.784016624053166,98.31916799591924 39.850516339325765,97.98157096349254 39.89953611041144,97.97816089271457 41.171492605364854,97.87926883258196 41.52187740395767,97.81447748317633 42.07814524101026,97.68489478395855 42.20218657480096,97.63715378950991 42.321112802094405,97.57918258181267 42.72861629037317,97.37116824890863 43.72563580836782,96.81191659960217 44.995034750047196,96.2765354474692 46.324962452647036,95.72069386944885 47.18344783491397,95.352406197937 47.353098868707484,95.29443499044302 47.622068221360166,95.21941342783961 47.82326241230173,95.14439186488052 50.68388574925908,93.9269965066431 53.61228424802918,92.8562342023772 55.578190198054905,91.93551502367377 57.16131567468258,91.32852238022353 59.6472574569938,90.58853696611696 61.191167116752936,90.33278163871346 62.69117211197368,90.13158744772107 63.96312860692788,89.947443612143 73.06077186160026,89.947443612143 74.1029748207195,89.96108389611875 76.58294897877465,89.85878176520816 79.23854179503184,89.06423521489373 80.23897138400851,88.76414896392117 81.44485775276604,88.42996200298386 82.3327549977352,88.38222100848438 83.03778718356003,88.33106994285124 83.73855678069644,88.31401958794508 84.77479211550882,88.2628685221595 85.02585859524325,88.25263830911418 85.59832426974809,88.21512752796491 86.07743924975064,88.18443688842243 88.59194037705689,86.5885236455262 89.36176391254142,86.18613526369387 90.22792195463126,85.8826389417909 92.34728110104669,85.0096607577394 92.59152743876864,84.89712841378349 92.8379050707832,84.7914162116376 93.1009067991298,84.6857040097966 93.35751464429131,84.59363209193133 93.39417290793664,84.57999180759988 93.55657754078705,84.52543067118877 93.98582023194592,84.41289832713123 94.24967447810134,84.33446669324171 94.52759526721314,84.25262498872667 94.8012534675865,84.17078328370347 95.07448540897764,84.0855315079023 95.35368497467564,84.01050994545135 95.38949072051213,83.99686966132316 95.4231651719536,83.97640923492763 95.453003293484,83.95253873790655 95.47516875524312,83.92525816965018 95.49307162816136,83.89797760119055 95.50287558232769,83.87069703308661 95.51736838421388,83.7240639786578 95.53399248049512,83.52286978781785 95.5476327646241,83.4785388642488 95.56169930763049,83.45807843805653 95.58173347499458,83.44102808309955 95.74072803681374,83.3250856677559 95.76928738170633,83.30803531264647 95.92742942581829,83.26370438928068 96.16442936259556,83.13071161898004 96.39759296936093,82.98407856455123 96.44235015175818,82.9602080673777 96.4896648872262,82.93292749927377 96.53442206957263,82.89882678875006 96.62990405846993,82.83062536821075 96.82214681290156,82.6635318877421 96.84729608681451,82.64989160356309 96.90100470546604,82.63284124850449 97.00458561306525,82.60897075133097 97.03229244020062,82.59533046715197 97.05488416078794,82.58169018287134 97.07150825706915,82.55781968554538 97.08344350568133,82.51689883346572 97.0804596935791,82.43164705766455 97.03143992249264,82.2270427955385 97.02163596822548,82.19635215630088 96.97687878592987,81.97810761019907 96.95897591301161,81.7564529933193 97.00543813082325,81.5313883051534 97.06383559729787,81.31655383013447 97.132463276767,81.11194956821167 97.15121866744325,81.0266977924105 97.15676003287032,80.99941722395087 97.16571146938027,80.97213665584694 97.17722045911343,80.94826615852098 97.27483374235494,80.81527338822035 97.3221484779754,80.77435253593741 97.34687149295775,80.75730218087881 97.3745783200423,80.74366189654737 97.40441644162354,80.73002161241918 97.4389434107722,80.71638132844343 97.47858548657135,80.70956118637935 97.7680152653647,80.6652302628103 97.8038210112012,80.6584101207462 97.83493790936782,80.64476983661801 98.04337850125329,80.51518713760349 98.18574896684203,80.40265479334269 98.33834964552531,80.2219210288983 98.45642335506075,80.02072683790591 98.49052406527959,79.97639591433686 98.51439456250391,79.95593548814458 98.64781359168356,79.8468132151699 98.6887344440173,79.81612257577986 98.72795026088583,79.78884200782836 98.77270744318145,79.7513312263234 98.93894840604455,79.65584923752773 99.17253827168892,79.5228564672271 99.19939258106629,79.50580611196523 99.22496811380664,79.48193561463928 99.25651127085308,79.44101476250879 99.32343391485699,79.29438170792753 99.4398025888764,79.09659758822126 99.53528457777371,78.90222353929298 99.55574500391596,78.87153290005536 99.69172158636884,78.68397899319116 99.83494456966399,78.49642508663186 99.95003446699558,78.3122812507489 100.0467952325807,78.09744677578077 100.08686356725808,77.981504360742 100.17893548507251,77.77007995655184 100.19428080466591,77.74620945937833 100.21133115982614,77.72574903333849 100.23093906826041,77.7052886070954 100.2513994944527,77.68482818075067 100.27015488512895,77.66095768357717 100.28550020482398,77.63708718640365 100.29700919450632,77.61321668907769 100.3379300469417,77.52796491327652 100.36222680299421,77.5006843451726 100.42019801058981,77.45635342175599 100.56086344061013,77.39156207219791 100.6009317752883,77.38133185900014 100.74287598199724,77.36769157487196 100.90570687372666,76.89028163058867 100.77356662123485,75.83997975251505 100.0681081765318,75.09658426747805 99.62906153110337,74.84423901136067 99.1857522969381,74.5646131866312 98.82215347319695,74.3531887825935 97.82087136636142,73.71550549954996 97.41848298463073,73.48362066931998 97.05488416078794,73.19376463169763 96.7151558342711,72.96869994373499 96.41379080681396,72.76409568160894 96.2125966158724,72.58677198809495 96.06340600822035,72.33442673162186 95.96579272497884,72.12982246969906 95.92828194357551,71.95931891809673 95.99520458757942,71.7513045851927 95.9338233090534,71.10680116008506 95.43211660841192,70.5202689424714 94.71344413840887,69.78369359965095 93.51224661737044,68.54924788605004 92.90056512604787,67.53645678943055 91.91718589213139,65.05392507820218 91.7321895387437,64.06500447890865 92.73773423421763,61.8689187343214 93.7803634522651,60.235494709920225 95.35539001029329,56.818603535809444 96.96536979619671,55.884244072977836 98.54039635417487,55.19199965337073 98.5787596532338,55.17494929826131 99.64184929752517,54.711179638106216 100.0250560297006,54.33948189535906 100.46793900498766,53.452863427331806 104.19344160749947,53.555165558039135 107.98117800634373,53.98142443704497 108.57580914260848,54.04962585793998 108.79277491202245,54.04621578665386 109.00675686923256,53.882532377115616 108.79192239426443,49.360778188875784 109.0591867114011,48.310476310802144 109.67172072048167,41.60627666174755 110.58519349819117,37.51419142329152 111.376329977626,33.99158804733974 112.20497723841335,31.74094116598567 112.22288011133159,31.478365696518075 112.23438910111557,31.314682286979835 112.09414992987183,30.75202056689539 112.09073985883978,30.694049359198154 112.13890711221826,30.62243786752517 112.22458514694924,30.537186091724006 112.3098369227504,30.465574600254282 112.37590704889469,30.404193321626625 112.49994838268539,30.298481119429923 112.64231884827333,30.158668207370077 112.73524328394743,30.05636607630705 112.81196988211845,29.957474016225255 112.95220905336139,29.783560393844944 113.10694102638969,29.56531584774314 113.14914065541127,29.44937343270437 113.17215863492841,29.289100094096547 113.18494640124777,29.183387891950655 113.20284927416601,29.1083663294997 113.25186904525168,28.982193701110717 113.32518557249149,28.80487000744429 113.37804167348823,28.641186597906046 113.39381325196062,28.528654254000948 113.37335282576835,28.313819778829565 113.33754707993185,28.201287434924467 113.28383846117711,28.08875509081611 113.23226113686823,27.948942178603826 113.1883564722798,27.78184869783028 113.16064964514443,27.62157535957816 113.14359929003501,27.52268329959799 113.13848418343613,27.434021452713964 113.15084569097812,27.31807903767519 113.17684748254665,27.21577690645972 113.20540682744004,27.13052513065855 113.23481869009144,27.02140285768387 113.31282406494951,26.823618737977604 113.37079527254512,26.60878426280622 113.42152007914682,26.451920995535332 113.40191217066173,26.31551815410102 113.27787083687183,26.117734034394754 113.13550037128309,25.96769090883226 113.05877377311285,25.858568635705137 112.99526120014099,25.73239600777348 112.93558495702935,25.59599316623754 112.88443389159947,25.456180254025256 112.83328282606794,25.309547199596434 112.76295011103198,25.06061201425703 112.73780083717064,24.913978959828206 112.72330803528445,24.763935834570592 112.72245551752643,24.569561785642303 112.70114257357613,24.409288447085295 112.65127028473246,24.153533119681793 112.63123611741918,24.027360491750137 112.6393350361711,23.90118786356441 112.70029005586895,23.68635338854547 112.73865335497946,23.529490121122134 112.76209759327398,23.38285706669331 112.76721269987286,23.280554935630285 112.73865335497946,23.188483017917466 112.6896335838938,23.116871526092044 112.61631705665398,23.05890031854725 112.5455580827398,23.014569395029014 112.41512286581404,23.004339182136132 112.35161029284217,23.03843989220253 112.23822543102662,23.062310389528484 111.98588017465516,23.062310389528484 111.82432805946114,23.052080176330715 111.62398638637922,23.024799608226783 111.32091632335525,22.922497477163756 110.97394159589452,22.71789321534258 110.75782834418854,22.520109095483875 110.5216809252193,22.339375330683772 110.44580684475626,22.20297248960516 110.38868815496949,22.10067035838969 110.31878169881253,21.81422439174858 110.27402451656772,21.4118360100687 110.31537162778048,21.21064181922876 110.47521870740766,21.07423897779445 110.59243989913428,21.036728196645193 110.84904774434659,21.02649798349824 111.1359199698667,21.043548338709286 111.38272386091272,21.08787926212589 111.64274177700464,21.224282103204505 111.83754208471032,21.251562671664136 111.94836939325184,21.244742529396785 112.08903482337458,21.217461961140412 112.1870743654951,21.186771321902807 112.3034430394637,21.142440398689455 112.39977754611901,21.09128933290387 112.49653831165334,21.03331812556233 112.53831168179592,20.965116705023025 112.5813638285755,20.855994431895905 112.63421992957223,20.750282229699202 112.62441597535509,20.637749885794104 112.58392138184954,20.50816718657633 112.26124341044212,20.4195053396923 111.97096111383914,20.3308434929099 111.755274121113,20.204670864876615 111.63847918831623,20.078498236487633 111.6303802695643,19.850023477492947 111.66703853310798,19.720440778021104 111.71179571545441,19.597678220918237 111.75101153232295,19.498786161141325 111.79022734919069,19.38284374610255 111.81793417627605,19.29077182823729 111.84478848565341,19.188469697174263 111.88059423148991,19.048656784961974 111.91725249508441,18.908843872597245 112.01273448398172,18.601937479560604 112.06004921960218,18.472354780393644 112.11674165050995,18.332541868028915 112.1568099851365,18.213189382059724 112.20582975622138,18.09724696702095 112.33839626754218,17.909693060156755 112.56090340243404,17.65734780368367 112.84862814576297,17.261779564067883 113.06857772727918,16.978743668408008 113.1883564722798,16.80141997474158 113.31538161822355,16.641146636133758 113.49313157076898,16.48428336886287 113.59159737187015,16.422902090235212 113.76593725338353,16.375161095735745 113.83541745061068,16.378571166666163 113.93473576941983,16.416081948120304 114.04215300697932,16.474053155512657 114.11887960514954,16.53543443414031 114.29492452222978,16.579765357658545 114.41214571395638,16.593405641837546 114.54897481406644,16.6036358549845 114.66321219364,16.586585499722638 114.81453409568708,16.528614292076217 114.94241175938883,16.402441663839678 115.06304302214748,16.228528041459366 115.05920669233805,16.071664773832776 115.04514014922923,15.80226916245353 115.02979482963583,15.659046178955126 115.02979482963583,15.5192332665904 115.06815812869554,15.396470709487533 115.14445846813922,15.256657797122804 115.2621059186432,15.058873677416539 115.47694039366215,14.850859344309248 115.8533269838243,14.57123351993549 116.0579312457471,14.284787553091126 116.2471901880249,13.688025122482957 116.45904085089158,13.37770865871915 116.51573328179857,13.135593615291393 116.68453179788568,12.439939124906312 116.84992024293994,12.133032731717226 117.18581223964735,11.720414136992018 117.54557473352828,11.0929610669938 117.91087859283628,10.421177073629789 118.62358343848322,9.152630649962491 119.08010669794929,8.27283232349119 119.1841138643759,8.07163813265125 119.29664620848345,7.8261130184455165 119.37593035992852,7.635149040600088 119.42622890765121,7.4748757020430805 119.49698788156618,7.195249877313624 119.62486554526794,6.789451424703324 119.702444661247,6.639408299140828 119.78300758942991,6.571206878601522 119.87507950729517,6.516645742190403 120.06263341400692,6.400703326999188 120.16621432165616,6.3188616221284395 120.26638515822253,6.226789704263179 120.9816475571435,5.715279049456176 121.02171589177006,5.677768268154477 121.20969605741163,5.49021436129028 121.40620140068414,5.306070525559759 121.71012398136448,5.166257613347473 121.96843686204201,5.084415908679981 122.23868499133172,5.019624558918652 122.5068018262772,4.869581433508598 122.63979459647621,4.668387242821099 122.74252298641824,4.477423264874043 122.91089524352392,4.201207511430703 123.08225131293509,3.9249917576316657 123.26469011320039,3.6249055068623712 123.41601201514584,3.345279682132915 123.57671161258185,3.1031646388576 123.78941479320576,2.813308601438516 124.02257839997114,2.560963344812991 124.19691828148453,2.3529490119089576 124.38020959945703,2.1653951050447615 124.56818976515022,1.9812512693142406 124.7574487073772,1.7493664392366939 124.92837851785853,1.5379420351989854 125.10186588161392,1.3606183415325577 125.28941978847811,1.2003450031279914 125.546027633538,1.173064434973246 125.84654014328792,1.2003450031279914 126.05455447619195,1.2071651451920848 126.26214255031861,1.2071651451920848 126.41133315797066,1.2037550740584102 126.87339778281299,1.1901147899302233 127.07459197365293,1.0775824460251249 127.22847142902485,0.9957407411543763 127.44543719843881,0.9616400309863515 128.2485089264342,0.8218271186216234 128.54518510622304,0.7979566214481105 128.83845121497907,0.7945465501619938 129.09932164893064,0.7843163371166677 129.45055896523147,0.7672659822105043 129.72677471882724,0.760445840146411 130.04519010149463,0.7331652716867815 130.7229417191139,0.6172228564955661 131.04178336056103,0.5456113648225857 131.30478508890684,0.4433092339119991 131.6014612687457,0.2728056823096648 131.8350511344409,0 131.77239107917623,0.49787037062800216 131.7408479221298,0.804776763512204Z"/></svg>