<svg xmlns="http://www.w3.org/2000/svg" width="256" height="256"><path d="M0,0 79.23809524458282,243.80952409497735 35.047619101141585,256 0,0 M0,0 -476.9523804447278,79.23809569871345 -466.28571369858827,121.90476186583642 -444.9523804787876,182.8571428441677 -460.19047560983773,249.90476172959723 -504.38095175327896,256 -557.7142851206721,201.14285729207148 -583.6190469978618,103.61904778123713 -1019.4285703435236,182.8571428441677 -963.0476180225813,377.90476159335805 -1005.7142845530088,390.09523777085906 -1071.238094097903,188.95238111457047 -1656.3809506179525,292.57142826002473 -2147.0476165807167,384.0000001362392 -2200.3809500389357,579.047618522125 -2270.476188059567,572.9523806150268 -2256.761902269052,481.523809283769 -2331.428568856246,475.42857110419243 -2316.1904737251957,365.7142856883354 -2655.999997082211,219.42857164914915 -2716.952378060542,316.95238088750517 -2866.2857111441035,475.42857110419243 -2907.4285683339954,444.9523804787876 -2814.476187389724,298.66666680290587 -2876.952377890243,274.2857140845993 -2802.2857112122233,158.476190761644 -3338.6666631130947,-60.952380342548395 -3446.857139188416,48.76190507330862 -3548.9523771749873,195.04761902166874 -3605.3333294959293,176.7619048462433 -3510.857139120297,30.476190625404826 -3576.3809484835383,6.095238542881141 -3492.571424854045,-121.90476159335805 -3713.523805571251,-213.33333256131127 -4054.85713854128,-353.5238088750515 -4545.523804685697,-560.7619038017428 -4729.9047568704,-633.9047612300535 -4929.523804186153,-329.1428567925278 -5065.142851751678,-383.9999995004563 -4854.857137689785,-682.666665395101 -5385.142851229428,-902.0952368625979 -5465.904756087024,-780.1904749059353 -5612.190470217037,-609.5238088750515 -5674.666660626729,-633.9047612300535 -5746.285708169547,-664.38095158298 -5615.238089170586,-847.2380938821909 -5641.142851047775,-883.8095226871724 -6258.285707624591,-1133.7142844167697 -6383.2380883531505,-950.8571415726019 -6302.476183768033,-920.3809509471971 -6343.619040867098,-828.9523799792439 -6544.7618977958655,-908.190474769696 -6637.714278558485,-981.3333321980068 -6843.42856414464,-1066.6666655313402 -6905.9047545543335,-1060.571426988459 -7011.047611494454,-1097.1428558842665 -8009.14284852735,-914.2857133125772 -8909.71427614024,-743.6190466459105 -10076.952370226789,-536.3809517192192 -10913.523797907797,-390.09523722590234 -11465.142844939719,-286.47618998962196 -14003.809508904307,170.66666666666666 -15477.333316859746,426.66666630336215 -16051.809506542828,524.190476086675 -16323.04760167388,877.7142850525526 -16127.99998265221,1535.999998637608 -15990.857125836976,1999.238093291821 -17340.95236240439,2243.0476167510155 -17411.04760042502,2005.3333314713977 -17764.571409663375,835.0476182496467 -19743.999978985106,1188.5714273971764 -19224.380931919124,1980.9523788439174 -20038.095216767317,2139.4285696055613 -20377.904740124333,2200.3809504930664 -22646.857118752538,2608.7619021668725 -22927.23807083506,3913.1428532503087 -26063.2380674972,3870.4761867198813 -26364.952352799526,4126.476186356577 -27126.85711389334,4120.380948449479 -27140.571399683857,4620.190471636195 -26582.857114563183,4626.285709815771 -26537.142828897555,4644.5714237187185 -26133.333305517834,4991.99999495915 -26072.380924539502,5010.285709407054 -26011.428543742823,5022.4761855845545 -24432.761878574787,4924.95237607372 -23017.142832553305,4827.428566562886 -22936.380927877362,4827.428566562886 -22573.714261596706,4790.857138212035 -22125.71426216437,4735.999995231628 -21164.19045357315,4626.285709815771 -20516.57140664341,4553.142852750765 -19629.714264821032,4449.523804969528 -19562.666645844776,4449.523804969528 -19506.28569343301,4449.523804969528 -19436.19045541238,4479.999995594933 -19388.952360315387,4540.95237620996 -19381.33331270445,4589.71428101079 -19395.047598404137,4638.476185993272 -19423.999979234875,4675.047614344123 -19475.809502989257,4705.523804969528 -19846.095216971677,4778.666662034534 -23905.52378407952,5503.999994323367 -23905.52378407952,5558.857137031296 -24199.619021770905,5558.857137031296 -25679.23806781509,5820.952374938394 -25935.23806763344,5863.619041468822 -26698.666638249444,6003.809517782562 -27455.99997068587,6143.999993823823 -27929.904732177045,6229.333327157156 -28294.095207889062,6296.380946042586 -28257.523779447387,6442.666659990947 -28208.76187473738,6619.42856483719 -28341.333303167707,6698.666659990947 -28621.71425525023,6863.23808838721 -28664.380921871485,6887.619040469734 -28892.952350199626,7021.714278513072 -29395.809492521545,7399.619039833951 -29196.19044502414,7765.333325522287 -35887.23805695002,8972.190467094888 -46448.7618553233,10886.09522696255 -47736.38090148102,11117.71427433507 -49030.09518581832,11391.99998814719 -48931.04756696695,10965.333322116307 -49129.14280485134,10203.428561022492 -49650.285661439506,10221.714275107091 -54000.76184728519,10770.285703094638 -54654.47613230368,11007.999988646734 -54748.95232267931,11020.190464824236 -54819.047560699946,11038.476179181313 -54940.952322384124,11056.76189308426 -55030.857084193194,11068.95236926176 -54951.618989130264,11123.80951196969 -54924.19041773089,11221.333321480524 -55184.76184602497,11270.095226553833 -55203.0475602004,11190.857131400076 -55149.71422701466,11081.142845439263 -55280.761845922796,11081.142845439263 -55558.09517887012,11081.142845439263 -55798.85708337576,11087.238083709664 -55955.80946425191,11105.523798157568 -56089.90470202277,11117.71427433507 -56178.28565449131,11129.90475051257 -56309.33327339945,11148.19046459717 -56583.618987393216,11190.857131400076 -56719.23803477709,11221.333321480524 -56838.09517759855,11239.619035928428 -56949.333272627424,11263.999988010952 -57051.42851070482,11282.285702731333 -57170.285653344625,11312.76189308426 -57283.04755807734,11337.142845439263 -57412.57136737246,11361.523797521786 -57523.80946258298,11391.99998814719 -57621.33327191217,11416.380940229714 -57741.714224164985,11440.761892857196 -57915.428509785204,11471.23808321012 -57988.57136675939,11477.333321480524 -58101.3332714921,11501.714273563048 -58220.19041422273,11519.999988283429 -58355.80946169743,11544.380940365954 -58419.80946162931,11568.761892448478 -58474.666604428065,11574.857130991359 -58558.47612814838,11587.047607168859 -58637.71422321131,11599.238083073882 -58706.28565170976,11605.333321253458 -58791.61898504309,11611.428559251382 -58892.19041341665,11623.619035428885 -58995.80946101623,11635.809511878864 -59361.52374625044,11696.761892584716 -59420.95231770658,11702.857130491815 -59500.19041276951,11721.14284466724 -59574.85707944753,11733.33332084474 -59658.66660307703,11751.619035292644 -59713.52374596661,11763.809511470146 -59835.42850774161,11788.190464097626 -59913.14279328236,11800.380940275127 -60050.285650370075,11824.761892720955 -60156.952316923205,11843.047606533077 -60466.28564983647,11891.809511606385 -60543.999935558866,11910.095225690984 -60630.85707823273,11922.285701959312 -60720.7618400418,11940.571416316388 -60784.76184006451,11952.76189249389 -60839.61898277244,11964.952368762217 -60914.28564945046,11977.142844939719 -60973.71422072495,11989.33332084474 -61072.76183975797,12013.714272927265 -61156.571363296636,12031.999987647647 -61202.28564905309,12044.190463825147 -61247.99993480955,12050.285701732246 -61334.857077483415,12062.476177909748 -61392.761839326544,12074.666654178074 -61452.19041078269,12086.857130355576 -61511.61898214801,12099.047606533077 -61581.71422016864,12111.2380824381 -61685.333267586575,12123.4285586156 -61729.52374373002,12129.523797158481 -61840.76183894054,12147.809510970603 -61892.571362694915,12159.999987148103 -61977.9046958466,12172.190463688908 -62125.71421958962,12196.571416043911 -62204.95231465255,12214.85713012851 -62290.28564798589,12227.047606396838 -62552.38088580216,12269.714273199743 -62595.04755242341,12281.904749377245 -62663.61898083103,12294.095225282266 -62748.952314164366,12306.285701459768 -62817.52374266281,12318.47617736479 -62983.61898058126,12342.857129719792 -63171.04755171951,12379.4285586156 -63231.99993269784,12391.6190347931 -63369.14278969473,12415.999986875624 -63428.57136106004,12428.190463053126 -63494.09517042329,12440.380939230627 -63594.666598796844,12464.76189158563 -63710.47612257393,12483.047605761054 -63788.19040829632,12501.333320481437 -63855.23802718175,12513.52379638646 -63987.8094557029,12531.809510834362 -64065.52374124365,12550.09522519144 -64222.4761221198,12568.380939094388 -64287.99993148304,12580.571415271888 -64377.90469329211,12592.76189144939 -64425.14278857075,12598.857129719792 -64533.33326464608,12617.142843804391 -64641.5237407214,12635.428557979818 -64705.523740653276,12647.619034157318 -64763.42850240558,12659.809510607298 -64806.09516911766,12671.999986784798 -64906.66659758204,12690.285700960225 -65039.23802601237,12714.666653587705 -65101.71421633124,12726.857129856031 -65179.42850205363,12739.047606033533 -65263.23802577395,12757.333319845653 -65407.999930381775,12787.80951019858 -65481.14278735595,12806.095224918963 -65548.19040642303,12818.285700823984 -65769.14278714024,12867.047605806467 -65816.38088232806,12879.238082074795 -65923.0475488812,12897.523795886915 -65982.47612015568,12909.714272064417 -66049.52373922277,12921.904748241917 -66118.09516772121,12934.095224782723 -66230.85707227227,12952.380938594844 -66288.7618341154,12964.571415044824 -66380.19040553748,12976.761891222324 -66582.85707198843,13007.238081847729 -66803.80945270564,13049.904748105679 -66957.71421444659,13074.285700460681 -67148.19040472005,13104.761890813606 -67196.95230933922,13116.952367263586 -67263.99992840631,13129.142843441088 -67320.38088072724,13141.333319709414 -67414.85707110289,13159.619034066493 -67535.2380233557,13183.99998651232 -67669.33326130822,13208.380938594844 -67768.38088015959,13226.666652679443 -67852.19040397073,13244.952366854868 -67920.76183237835,13257.14284303237 -67989.3332608768,13269.33331948235 -68056.38087994387,13281.52379565985 -68094.47611799857,13104.761890813606 -68454.09516514401,13104.761890813606 -75690.66658601307,14524.952365855781 -75666.28563365806,14604.190460646234 -77686.85706016968,14969.904746334569 -77628.95229832656,15171.047602990857 -77811.80944089824,15207.61903152336 -77831.61896468668,15140.571412910409 -77779.80944093231,15128.38093646043 -77816.38086955564,14994.285698689571 -78942.47610636147,15189.33331743876 -78942.47610636147,15323.42855520962 -79542.85705819422,15323.42855520962 -79689.14277232424,15323.42855520962 -79832.38086740987,15347.809507564623 -79905.52372447487,15359.999983742124 -79875.04753394029,15737.904745335481 -79923.80943874113,15743.999983605885 -80063.99991478238,15756.190459783385 -80091.42848609094,15402.66665054503 -80658.28562843557,15506.285698053789 -80624.76181885661,15585.52379311672 -80585.14277118891,15628.190459647147 -80569.90467614868,15768.380935688408 -80646.09515225806,15786.66665040879 -80838.0951520537,15823.238078396336 -80850.2856282312,15768.380935688408 -80891.42848523945,15743.999983605885 -80905.14277102996,15683.047602355075 -80889.90467562643,15622.095222012525 -80909.7141995057,15542.857126313813 -81526.85705599168,15658.666650272551 -82576.76181686978,15841.52379311672 -82508.19038837134,16079.238078668815 -82442.66657891727,16134.095221376743 -82419.80943608446,16207.23807844175 -82494.47610267166,16219.428554619251 -82598.09515008959,16243.80950706508 -82617.90467387803,16164.571411638844 -82599.61895961178,16085.333316303435 -82666.66657867885,15853.71426929422 -84344.38086251661,16158.476173731746 -84321.52371977462,16231.619030887578 -84542.476100401,16274.2856970547 -84565.33324332464,16195.04760199177 -85505.5237185144,16371.809506838013 -85481.14276606859,16444.95236344889 -85525.33324221203,16457.14283962639 -85456.76181371359,16700.952363721368 -85599.99990889004,16700.952363721368 -85612.19038506754,16652.19045864806 -85662.47609929973,16475.428554074293 -85708.19038496536,16463.23807816927 -85726.47609923162,16408.380935188863 -86674.2856219415,16572.95236358513 -86651.4284791995,16652.19045864806 -86863.23800278359,16707.04760135599 -86878.47609791464,16652.19045864806 -87006.4760977784,16652.19045864806 -87483.42847831396,16743.619030251793 -87922.28562070399,16816.7618873168 -88511.9999057906,16926.47617273266 -88999.61895279982,17011.809505793513 -89411.04752379048,17091.04760112892 -89831.61895191426,17164.190458012275 -90329.90466576045,17255.619029616013 -90802.28561754778,17340.952362586042 -91309.71418843626,17432.380934189776 -91367.61895027939,17444.5714100948 -91367.61895027939,17542.095219605635 -91916.19037835776,17542.095219605635 -92461.71418730094,17645.714267023566 -92700.95228219357,17688.380933826473 -92944.76180583441,17731.04760062938 -93395.80942440194,17816.380933417757 -93703.61894779303,17877.333314668565 -94325.33323284557,17987.0476003569 -94697.1427563502,18054.09521896985 -95204.57132723866,18145.523790482763 -95363.04751754618,18175.999980835688 -95987.8094216431,18285.714266251543 -96752.7618017813,18425.904742292805 -96835.0475158886,18444.19045701319 -97139.80942032613,18492.952361723193 -97549.71418188543,18559.999980336142 -98025.14275280797,18651.42855193988 -98262.85703817841,18694.09521847031 -99090.28560881712,18840.380932418666 -99801.90465567874,18962.285694556984 -100545.52370250631,19102.476170598246 -100690.28560711413,19126.857123044072 -101254.09513023273,19224.3809321916 -101711.23798688901,19315.80950352286 -102250.66655774343,19419.42855121327 -102873.90465240901,19535.238074627054 -103192.38084254622,19596.190455877862 -105037.71417382461,19931.42855030501 -105569.52369706809,20028.952360088322 -106265.90464879866,20156.952359679606 -106529.5236960463,20205.714264752914 -107289.9046475271,20345.904740794176 -107699.80940917722,20419.047597314224 -107792.76178993985,20437.33331176213 -108959.99988393557,20650.6666452317 -109566.47607385706,20760.38093064756 -109715.80940694064,20784.76188300256 -110197.33321604275,20876.190453970514 -110131.80940658868,21089.523787440085 -110105.90464471148,21174.85712077342 -110207.99988269806,21199.238072855944 -110239.999882664,21089.523787440085 -110297.90464450713,20888.38093042049 -111375.23797669378,21089.523787440085 -111509.33321464629,21113.904739522608 -112022.85702362352,21235.809501660926 -112100.57130925509,21241.90473965885 -112170.66654727573,21247.999977838426 -112242.2855946369,21254.09521556387 -112295.61892809511,21254.09521556387 -113019.42845113424,21296.761882366776 -113197.71416523018,21357.714263254282 -113290.6665459928,21644.19045360721 -113456.76178391126,21735.61902457516 -113638.09511714241,21717.333310763042 -113775.2379741393,21613.714262709327 -113692.95225994117,21229.714263481346 -113820.95225980492,21126.095215700112 -114028.19035473162,20949.333311126346 -114410.66654489154,21199.238072855944 -114779.42844926094,21223.619025210945 -115184.76178216285,21223.619025210945 -115501.71416268706,21162.66664459592 -115809.52368625978,21046.85712063718 -116556.19035213171,20687.238073491724 -117167.23797052896,20351.999978428794 -117493.33320818629,20163.047597950008 -117744.76177943806,20004.57140746084 -117923.04749353402,19864.38093169206 -118002.28558859695,19760.761884001648 -118156.19035042873,19559.619027254532 -118250.66654071354,19175.61902720912 -118211.04749313666,18864.76188477367 -118300.95225494573,18852.57140859617 -118492.9522548322,18822.095218606548 -118634.66654039564,18797.714266160718 -118692.57130223878,18840.380932418666 -119273.14273010143,19126.857123044072 -119719.61892019324,19315.80950352286 -119772.95225337897,19340.190455605385 -119905.52368190013,19395.047598585792 -120281.90463378964,19541.333312897455 -121048.38082354085,19797.33331226167 -121394.28558507744,19900.952360315387 -122070.8570127471,20083.80950252377 -122500.57129818566,20163.047597950008 -122860.19034533111,20242.28569274046 -123364.57129726604,20297.142835720868 -123811.0474871762,20345.904740794176 -124167.6189153681,20370.2856928767 -124515.04748651771,20376.3809307838 -124671.99986730303,20376.3809307838 -124676.5712958696,20425.142835857107 -124958.47605747431,20419.047597314224 -125121.52367634838,20419.047597314224 -125315.0474856662,20406.857121136723 -125610.66653297062,20382.4761690542 -125923.04748501908,20345.904740794176 -126239.9998656341,20297.142835720868 -126556.95224624913,20230.095216835438 -126847.99986498697,20156.952359679606 -127187.8093884348,20059.42855016877 -127410.2855786742,19986.285693285416 -127538.28557844713,19937.523788302933 -127612.95224512515,19907.047597950008 -129063.61891015695,19181.714265752 -129156.57129091957,19126.857123044072 -130119.6189091238,18590.47617068907 -131091.8093842795,18047.999981244404 -131242.6665269761,17956.57140945902 -131989.33319275719,17542.095219605635 -132202.6665259543,17542.095219605635 -132202.6665259543,17426.28569619185 -132783.23795381695,17097.142839126846 -133091.0474773897,17097.142839126846 -133091.0474773897,16926.47617273266 -133581.7141435341,16652.19045864806 -133787.4284289386,16536.380935325105 -134124.1903334329,16347.428554210534 -134207.99985715322,16280.380935052624 -134273.52366660727,16262.0952208772 -134809.90461841732,15969.523792617176 -135388.95223684862,15646.47617409505 -135445.33318916956,15615.999983469645 -135503.2379510127,15579.42855520962 -135719.61890316333,15457.523793525437 -135497.14271292393,15085.714269657525 -135294.476046473,14695.619032431621 -135167.9998561314,14488.380937232452 -133880.38080970122,12202.66665395101 -133407.9998580047,12342.857129719792 -132868.5712871503,12531.809510834362 -132647.61890643308,12611.047605897294 -132254.47604970867,12769.523796023155 -131899.4284308573,12921.904748241917 -131798.85700248374,12976.761891222324 -131635.80938370049,13062.095224283179 -131568.76176472424,13092.571414636106 -130854.09509872741,12403.809510970603 -130239.99986137662,11861.333320708502 -130534.09509915883,11708.95236848974 -131033.90462243638,11452.952369034696 -131526.09509801216,11221.333321480524 -131583.99985985528,11190.857131400076 -131451.4284315158,10764.190464824236 -131635.80938370049,10642.2857029584 -131742.4760501628,10550.857131990446 -131829.33319301833,10422.857132126685 -131902.47605008332,10282.666655812945 -131919.23795473657,10130.285703594182 -131878.09509772834,10026.666656085423 -131817.14271675,9953.523799292896 -131687.61890745486,9819.42856143121 -131564.19033606685,9734.095228188702 -131401.1427172836,9557.333323251634 -131283.80938398433,9356.190466595344 -131209.14271739713,9136.761895491152 -131166.4760508667,9008.761895354914 -131114.66652711233,8734.476181542792 -130954.6665271918,7862.857135033121 -130886.09509878418,7491.047611346861 -130762.66652748699,6820.5714215843045 -130718.4760511619,6570.666659854707 -130595.04748004634,5924.571422719631 -130518.85700393697,5510.095232502944 -130320.76176596174,4479.999995594933 -130197.33319475537,3876.571424899458 -130131.8093853013,3468.1904727715214 -130020.57129009078,2907.428568606474 -129916.95224267285,2431.999997865586 -129817.90462363983,1810.2857128130336 -129778.28557615378,1584.7619034384384 -129702.09510004439,1298.2857134488165 -129497.90462407125,999.6190466459105 -129311.99986236436,804.5714278967203 -129095.61891021371,633.9047615025319 -128842.66652953057,469.333333106268 -128469.3331965946,262.09523790709824 -128205.71414916532,97.52380951083437 -127332.57129304262,-438.8571422083848 -127132.95224554522,-554.6666656221662 -126617.9046270458,-871.6190465096714 -126243.04748458765,-1091.047617886342 -125916.95224693032,-1261.7142842805304 -125386.6665331182,-1529.9047598222487 -124883.80939079629,-1767.6190453743448 -124597.33320071583,-1913.904759413531 -124201.14272494706,-2108.9523784352 -123937.52367742694,-2236.9523782081346 -123740.95224915557,-2364.9523783443738 -123588.5712969368,-2505.1428543856355 -123501.7141541721,-2651.428568061517 -123439.23796385324,-2803.80952028028 -123413.33320197606,-2974.476187219425 -123457.5236781195,-3132.952377163634 -123500.19034464992,-3267.0476154794496 -123516.9522494848,-3315.8095199169757 -123646.47605877992,-3565.7142813740943 -123896.38082050953,-3998.4761859478594 -124120.38082027111,-4443.428566699125 -124342.8570105105,-4815.238089749602 -124595.80939119364,-5278.476184403815 -124696.38081965804,-5455.238089250059 -124816.76177191085,-5656.380945906347 -124918.85700989743,-5875.809517101366 -124958.47605747431,-6009.904755417181 -125033.1427240615,-6271.99999332428 -125095.6189144712,-6637.71427819518 -125179.4284381915,-7149.714277831876 -125228.19034281069,-7460.5714201764995 -125281.52367617808,-7759.238086706927 -125307.42843805527,-7960.380943635694 -125325.71415232153,-8106.6666579473585 -125319.61891423278,-8271.238086343623 -125302.85700939788,-8460.190467094888 -125264.7617713432,-8728.380942999911 -125214.476057111,-9014.857133262012 -125190.095104756,-9173.333323478699 -125109.33320017088,-9411.04760866749 -124972.19034317399,-9910.857131854207 -124947.80939072817,-10008.380941365042 -124882.28558136492,-10307.04760762299 -124781.71415290055,-10733.71427419883 -124716.19034344648,-11026.285702458856 -124611.0474863247,-11495.619035292644 -124525.71415317302,-11800.38093973017 -124409.90462948676,-12275.809510289406 -124361.14272477676,-12470.857129311074 -124283.42843914518,-12781.714271928178 -124185.90462963434,-13244.95236658239 -124123.42843922466,-13476.571414136562 -124025.90462989548,-13756.952366219086 -123900.95224898527,-13994.666651498705 -123740.95224915557,-14256.761889133324 -123652.57129686869,-14384.761888906258 -123497.14272569637,-14561.52379357085 -123175.61891633313,-14957.714269793763 -122849.52367876662,-15353.904745199243 -122465.52367908452,-15774.476173595507 -122235.42844132501,-16067.047601855531 -121598.47606105059,-16835.047600583966 -121284.5712993891,-17206.857124270224 -120860.95225231178,-17688.380933553995 -120155.42844344808,-18553.904741793263 -119948.19034852138,-18785.52378943826 -119850.66653901055,-18943.999979564123 -118782.47606395702,-20236.190454470056 -117872.76177930183,-21302.857120001398 -117656.3808271512,-21436.952357772258 -117475.04749392004,-21564.952357908496 -116801.5236851131,-21979.42854776188 -116358.0951141565,-22229.333309491474 -115486.47606755601,-22735.238070948595 -115000.38082997815,-23015.61902266781 -114399.99987823622,-23369.142832178648 -114061.71416431057,-23570.285688834938 -113243.42845089582,-24051.809497937054 -112746.66654666264,-24332.190449928752 -112155.42845196302,-24673.523782989607 -111803.4284524285,-24880.761878188776 -111408.76178618192,-25069.714258940043 -111026.28559611282,-25252.57140151173 -110413.71416801173,-25478.095210886328 -109340.95226448248,-25880.380924562207 -108437.33321791604,-26221.714257804713 -107820.19036143004,-26453.33330481393 -107332.57131433001,-26636.190447658097 -106742.85702924339,-26855.61901876229 -106232.38083931054,-27050.666637783957 -105959.61893483895,-27148.190447294794 -105380.57131631683,-27532.19044652277 -104059.42846058015,-28361.142826502015 -103632.76179427678,-28635.42854067744 -103100.95227112413,-28970.666635377067 -102668.19036682285,-29238.857111554567 -102366.47608152052,-29421.714254398736 -101970.28560566092,-29653.33330140795 -101491.80941578482,-29945.904729940452 -101231.23798749073,-30098.285682159218 -101051.4284638726,-30226.285682022975 -100935.61894009552,-30342.095205345933 -100885.33322586332,-30439.619014856766 -100833.52370210894,-30555.428538815504 -100828.9522736332,-30634.666633605957 -100857.90465455478,-30744.380919294294 -100899.04751165383,-30878.47615715598 -101334.85703490867,-32262.095203574823 -101430.8570348065,-32548.571393564445 -101840.76179636578,-33822.47615402248 -102008.3808437156,-34316.19043957457 -102361.90465295396,-35413.33329509554 -102742.85703350087,-36577.52377013771 -103174.09512827997,-37887.99995921907 -103657.14274681345,-39381.33329132625 -103855.23798460701,-40003.047576378805 -103899.42846065962,-40131.04757624256 -103888.76179409513,-40216.38090930342 -103797.33322285471,-40362.66662352426 -103596.19036583511,-40679.61900386681 -103294.47608053278,-41124.57138461807 -102975.99989039557,-41618.28566953439 -102628.5713193368,-42136.38090744148 -102220.1903673905,-42800.76185902446 -101874.28560576309,-43318.857096659085 -101564.95227275901,-43812.571381847876 -101225.14274940199,-44355.047571837495 -100728.38084516882,-45123.047570565934 -100364.19036927515,-45720.38090326348 -100025.90465544032,-46238.47614117058 -99370.66656089964,-47268.571378169414 -99033.90465649618,-47811.04756779574 -98538.6665617852,-48603.42851924247 -98239.99989543643,-49042.28566181417 -97904.76180055515,-49578.666613805864 -97635.0475150371,-49993.142803931725 -97305.9046583354,-50523.42851719889 -97025.52370616206,-50968.380897586845 -96409.90465928908,-51925.33327770233 -96199.61894513636,-52248.38089658776 -96178.28561191657,-52406.85708680445 -96181.33323096094,-52553.142801025286 -96210.2856118825,-52821.33327665783 -96414.47608776482,-54808.38089368132 -96534.85704001764,-55862.85708303517 -96656.76180179266,-56996.571367451936 -96798.47608744692,-58233.904699922416 -96921.9046586533,-59404.19041269004 -97034.66656338601,-60452.57136404595 -97052.95227765226,-60543.99993528639 -97187.04751560478,-60769.52374466098 -97318.09513451291,-60934.09517305724 -98267.4284668358,-62165.33326671237 -99160.38084683775,-63329.52374175454 -99772.95227466636,-64152.38088409917 -100091.42846480357,-64621.71421693296 -100297.14275038973,-64889.904692565506 -100643.04751183548,-65340.95231122387 -100854.85703551039,-65615.23802503599 -101251.04751127918,-66127.2380244002 -101554.28560619452,-66529.52373834857 -101895.61893916455,-66968.38088055696 -102044.95227233894,-67163.42849957861 -102360.38084343178,-67583.99992797489 -102622.47608124804,-67931.42849894284 -102771.80941442243,-68114.285641787 -102915.04750950806,-68303.2380222658 -103302.09512814373,-68821.33325962794 -103800.38084189908,-69467.42849730796 -103948.19036555129,-69656.38087778675 -104210.28560336755,-70003.8094487547 -104489.1427459279,-70345.14278181556 -104766.47607896604,-70704.76182950597 -104929.52369774929,-70911.99992443266 -105144.38084037774,-71204.57135269268 -105455.23798290401,-71594.66659019107 -105688.38083988955,-71911.6189708061 -105997.71417289364,-72326.09516065948 -106159.23798224553,-72515.04754168322 -106287.23798201846,-72661.3332557224 -106026.66655372438,-72783.23801731577 -105823.99988727343,-72892.95230327659 -104905.14274548511,-73350.09515993287 -104617.14274570082,-73496.38087388124 -104455.61893643976,-73581.71420721457 -104350.47607931799,-73715.80944498543 -104245.33322237787,-73849.9046828471 -104135.61893668953,-74008.38087324545 -103798.85703228606,-74483.80944434964 -102121.14274844831,-76915.80944157945 -101973.33322479611,-77153.52372713154 -101927.61893913048,-77232.76182228529 -101923.04751056392,-77299.8094414432 -101951.99989139466,-77409.52372713154 -102063.23798660518,-77622.85705969285 -102241.52370070113,-77951.9999165762 -102398.47608148646,-78250.66658328829 -102413.71417652669,-78305.52372599622 -102378.66655769802,-78354.28563079704 -102311.61893872176,-78415.23801141208 -102159.23798650301,-78518.85705919331 -102051.04751042768,-78604.19039225417 -102026.66655798185,-78683.42848758957 -102052.57131985904,-78750.476106475 -102156.19036745864,-78951.61896313129 -102415.2379861397,-79433.14277250589 -102544.76179561648,-79683.047533963 -102526.47608135022,-79737.9046769434 -102482.28560520678,-79774.47610547591 -102430.4760814524,-79817.14277200634 -101639.6189393462,-80255.99991421473 -101065.14274957229,-80566.85705692266 -100870.09513073227,-80670.4761040681 -100830.47608315539,-80707.04753269143 -100722.28560708008,-80804.57134247475 -100697.90465472506,-80859.4284849102 -100691.80941663632,-80914.28562816308 -100717.7141785135,-80999.61896095145 -100749.71417847945,-81091.04753273685 -100856.38084503259,-81328.76181801647 -100949.3332257952,-81578.66657974606 -100959.99989245052,-81700.5713416119 -100926.47608305322,-81816.38086502568 -100897.52370204082,-81865.14276973568 -100796.95227357643,-81962.66657924652 -100728.38084516882,-82017.52372195445 -100566.8570357261,-82084.57134083987 -100178.28560765908,-82255.23800750654 -99899.4284649171,-82352.76181701738 -99743.99989383561,-82377.1427690999 -99608.38084627008,-82364.95229319487 -99506.28560828352,-82328.38086466238 -99340.1903704559,-82249.14276923615 -99163.4284657913,-82255.23800750654 -99017.14275166129,-82303.99991194408 -98787.04751390178,-82401.52372145491 -98595.04751410615,-82486.85705478824 -98483.80941889562,-82602.66657874698 -98351.23799046529,-82822.09514985117 -98185.14275245601,-83163.42848254873 -98057.14275277391,-83315.80943476748 -97930.66656243234,-83370.66657747541 -97763.04751499169,-83382.85705401622 -97507.04751517334,-83364.5713398408 -96760.38084939224,-83297.5237204104 -96262.09513554606,-83254.85705415245 -95745.52370761527,-83212.19038762203 -95660.19037428194,-83199.99991144452 -95477.33323171025,-83187.80943499455 -94642.28561336978,-83114.6665781112 -94470.09513754422,-83096.38086366329 -94392.38085191266,-83114.6665781112 -94300.95228049057,-83163.42848254873 -93842.28561422127,-83449.90467262917 -93316.57132915736,-83785.1427676921 -92725.33323454857,-84150.85705301713 -92609.52371095313,-84217.90467190256 -92515.0475205775,-84260.57133843299 -92327.61894934843,-84291.04752933087 -92149.33323516164,-84339.80943349592 -91949.7141878459,-84388.57133856922 -91754.66656891505,-84437.33324300675 -91398.09514072315,-84571.4284814134 -90375.61895124443,-84931.04752855885 -89151.99990501857,-85369.90467076724 -88289.52371555121,-85674.66657520476 -88223.99990600631,-85705.14276583017 -88178.28562043152,-85759.9999085381 -88080.7618110115,-85857.52371804892 -87993.9046682468,-85918.47609875478 -87893.3332396916,-85961.14276519438 -87760.76181126127,-85979.42847964229 -87541.33324015708,-86009.90467026769 -86587.4284791768,-86113.52371741315 -85302.85705197263,-86253.7141934544 -85112.38086169917,-86284.1903840798 -84998.0951475351,-86320.76181233983 -84935.6189571254,-86375.61895541106 -84908.19038581687,-86473.1427645586 -84876.19038585092,-86662.09514567317 -84764.9522906404,-87417.90466849657 -84643.04752886538,-88143.23800133036 -84591.23800520183,-88527.23800055834 -84575.99990997996,-88636.95228624668 -84591.23800520183,-88813.71419091127 -84707.04752879727,-88795.42847673585 -85048.38086185812,-88734.47609575752 -85062.09514746699,-88807.61895291336 -85132.19038548761,-89404.9522856109 -86288.76181282803,-90355.8094271835 -87169.52371665247,-90203.42847496473 -89010.28561954596,-90965.33323605855 -89167.23800033129,-91020.19037903896 -89107.80942887515,-91178.66656952813 -88751.23800068324,-92050.28561631027 -88703.99990558624,-92092.9522828407 -88614.09514377717,-92141.71418727822 -87719.61895425303,-92355.0475207478 -86506.66657459168,-92946.28561490247 -85881.90467040392,-93275.42847169499 -85685.33324204173,-93318.09513822543 -85552.76181370222,-93318.09513822543 -85453.71419476003,-93330.28561440292 -85331.80943298501,-93318.09513822543 -85182.4760997198,-93305.9046623204 -85062.09514746699,-93281.52371023787 -84940.1903857828,-93257.14275788287 -84591.23800520183,-93220.57132898708 -84484.57133855787,-93226.66656725747 -84402.28562435973,-93251.04751933999 -84342.85705308524,-93287.6189482358 -84268.19038640722,-93275.42847169499 -84213.33324369931,-93561.9046623204 -84146.28562472305,-93842.28561413045 -84071.61895804503,-94098.28561403962 -84006.09514868178,-94354.28561376715 -83967.9999106271,-94439.61894673717 -83868.95229159408,-94604.19037522427 -84362.66657687369,-94854.09513659055 -84609.52371946808,-95207.61894610139 -84940.1903857828,-95695.23799338308 -85307.42848063001,-96255.99989718483 -85494.85705176827,-96548.57132544485 -85689.90467051746,-96883.80942050778 -85732.57133732036,-97103.23799161197 -85732.57133732036,-97615.2379909762 -85700.57133735443,-98425.90465687083 -85741.71419436266,-98541.71418046627 -85915.42847998289,-98956.19037031966 -85927.61895616038,-99120.76179871592 -85842.28562273622,-99084.1903704559 -85546.66657561348,-98980.57132276548 -85240.38086156294,-98858.66656108129 -84862.47610015124,-98681.90465650753 -84609.52371946808,-98956.19037031966 -84403.80943397275,-99181.71417996673 -84077.71419613378,-99541.33322711218 -83739.42848229894,-99900.95227425764 -83478.85705400487,-100181.33322661264 -83299.04753038673,-100358.09513091392 -83172.57134004515,-100473.90465487266 -83288.3808637314,-100638.47608326892 -83337.14276844141,-100729.90465423687 -83363.04753031861,-100857.90465437312 -83340.1903874858,-100985.90465423687 -83262.47610185422,-101119.99989200773 -83093.33324480057,-101278.47608222443 -82851.04753086357,-101485.71417769608 -82520.38086454885,-101759.9998915082 -82265.90467434352,-101997.71417706029 -82086.09515072538,-102186.66655753908 -81735.61896053138,-102558.47608086203 -81636.57134168001,-102698.66655690329 -81619.80943693596,-102765.71417578873 -81621.33324636731,-102820.57131876913 -81691.42848438794,-102966.8570330808 -81721.9046748317,-103058.28560432122 -81714.28562731159,-103119.23798529955 -81624.38086550252,-103198.4760803625 -81517.71419894938,-103277.71417542543 -81412.57134182761,-103326.47608049873 -81252.57134199791,-103381.33322320666 -81036.19038984727,-103423.99988973708 -80900.5713424634,-103484.9522703521 -80668.95229500005,-103637.33322257087 -80524.19039048305,-103722.6665559042 -80437.33324771836,-103771.42846097752 -80344.38086677408,-103850.66655604045 -80132.57134328083,-104063.99988896506 -79858.28562928706,-104362.66655540466 -79303.61896311994,-105057.52369761305 -79123.80943959262,-105252.57131636224 -78780.9522971004,-105478.09512573683 -78425.90467843068,-105648.7617920402 -78299.42848790745,-105721.90464919603 -77988.57134547201,-105953.52369647773 -77746.285631535,-106118.0951246015 -77456.76182222852,-106288.76179154066 -77124.57134648245,-106495.99988646734 -76961.52372751755,-106593.52369597818 -76844.19039439994,-106636.19036250861 -76882.28563245462,-106751.99988592239 -77150.47610826882,-107331.04750471699 -77196.19039393445,-107422.47607568494 -77144.38087018006,-107489.52369457038 -77040.76182276213,-107501.71417074787 -76707.04753731222,-107513.9046470162 -76370.28563290875,-107538.28559964368 -76245.3332521802,-107538.28559964368 -76188.95229985924,-107507.80940929076 -75974.0951572308,-107318.8570285395 -75734.85706215652,-107135.9998859678 -75640.38087178087,-107087.2379808945 -75585.52372907294,-107087.2379808945 -75507.80944335055,-107117.71417124741 -75239.61896744552,-107270.09512346618 -74905.90468217726,-107483.42845693576 -74819.04753941257,-107556.5713138191 -74665.14277767162,-107654.09512296664 -74410.66658746629,-107782.09512310287 -73875.80944508761,-108068.5713134558 -73187.04754114962,-108373.33321789333 -72667.42849408364,-108604.95226517502 -72600.38087510738,-108781.71416974878 -72539.42849421987,-108836.57131245671 -71897.90468537889,-109165.71416897676 -71809.523733092,-109208.38083577967 -71657.14278087324,-109232.7617882255 -71519.99992378552,-109244.952264403 -71375.23801926852,-109519.2379784876 -71204.57135278352,-109860.57131118515 -71067.42849578663,-110287.2379774885 -70905.90468643473,-110494.4760724152 -70671.23802001784,-110774.85702449773 -70614.8570676969,-110829.71416747813 -70556.95230585377,-110866.28559582899 -70058.66659200759,-110927.23797671648 -69412.57135460003,-111000.3808341448 -69246.47611668159,-111030.85702422525 -69187.0475454071,-111103.99988129025 -69075.80945019657,-111286.85702413443 -68754.2856411058,-111999.99988079071 -68519.61897468891,-112298.66654668536 -68391.61897482515,-112475.42845125913 -68213.3332607292,-112676.5713085512 -68155.42849879524,-112737.52368925704 -67998.47611810075,-112865.52368902999 -67870.47611823698,-112926.47607028078 -66896.76183346826,-113036.19035569664 -66593.52373855292,-113084.95226013417 -65732.57135860773,-113255.61892680083 -65475.047549267205,-113249.52368889374 -65261.71421625176,-113334.85702186378 -65158.09516865218,-113798.09511679046 -64391.618979082625,-114194.28559219594 -63992.38088426947,-114462.47606864592 -63893.33326523645,-114602.66654468718 -62349.714219351205,-115913.14273340524 -61883.42850556179,-116351.99987570445 -61616.76183917896,-116681.14273276945 -61409.52374416144,-116961.5236845795 -61252.571363285286,-117180.95225622864 -61066.66660166922,-117503.9998744783 -60671.999935422624,-117558.85701718622 -59183.238032154484,-117814.85701745871 -58841.904699275285,-118131.80939780125 -58727.618985111214,-118223.2379691325 -58559.99993757975,-118259.80939793748 -58360.380890263994,-118278.09511211292 -57906.28565256125,-118308.57130210253 -57703.6189861103,-118339.04749272794 -57234.28565327651,-118418.28558779087 -56792.380891932924,-118497.52368294462 -56513.52374937259,-118576.76177855252 -56016.76184513942,-118735.2379687692 -55593.14279797126,-118893.71415889506 -55388.95232199811,-118960.7617777805 -55324.95232206624,-119039.99987320673 -55065.90470329434,-119576.38082492595 -55009.5237509734,-119606.85701527887 -54779.428513123064,-119637.33320554097 -54512.76184674023,-119576.38082492595 -54162.285656637076,-119734.8570150518 -53723.428514156214,-119911.6189197164 -53592.3808953389,-119954.28558651931 -52961.5237530624,-120191.9998717081 -52364.190420364845,-120131.04749109306 -51972.57137325345,-119942.0951099785 -51227.42851681288,-119783.61892012511 -50410.66661301113,-119612.95225318597 -50119.618994273296,-119875.04749109306 -49525.333280529296,-120411.4284431756 -49191.61899526103,-120484.57129996813 -48927.999947740915,-120399.23796663478 -48309.33328191439,-120204.19034797643 -46509.71423611998,-120722.28558552022 -46355.809474469854,-120740.57129996813 -46345.142807723714,-120831.99987093608 -46075.42852238733,-121734.09510834364 -45706.66661801792,-121868.19034611448 -45770.666617949806,-122435.04748818664 -45836.19042731304,-123020.19034497916 -45310.47614215832,-123135.9998689379 -45267.80947562789,-122910.47605929083 -45030.095190075794,-123044.57129706169 -44799.999952316284,-123160.38082102043 -44609.52376204283,-123270.09510643629 -44426.66661928949,-123428.57129719792 -44309.333286171866,-123568.76177296671 -43943.61900084684,-123995.42843927006 -43763.80947722869,-124141.71415321843 -43622.09519157442,-124202.66653446924 -43388.95233477054,-124245.33320099967 -42939.42852572519,-124312.3808198851 -42646.85709746517,-124336.76177196762 -42334.4761454167,-124391.61891494803 -42019.047574323864,-124434.28558147846 -41897.14281254885,-124653.71415258264 -41915.4285268151,-124836.57129542681 -41866.6666221051,-124964.57129556306 -41741.71424119489,-125165.71415194687 -41651.80947929499,-125269.33320000058 -41487.23805098955,-125415.61891367646 -41337.90471790599,-125500.9522470098 -41190.09519416297,-125574.0951044381 -40865.523765937,-125689.9046278519 -40691.809480498436,-125708.19034193648 -40483.047575958735,-125695.99986603146 -40306.28567129414,-126061.71415144732 -40163.04757629933,-126360.38081761445 -40027.428528733806,-126628.57129379195 -39882.66662412598,-126902.85700760406 -39689.14281489898,-127274.66653092702 -39521.52376745834,-127622.09510216746 -39437.71424364719,-127823.23795891457 -39559.61900551303,-128249.90462494545 -39480.38091017762,-128310.85700583296 -39343.23805336239,-128487.61891077003 -39140.57138691143,-128670.47605297841 -38918.09519667204,-128731.42843422922 -38567.61900647805,-129048.38081484425 -38270.476149742295,-129048.38081484425 -37974.8571024379,-129328.76176692678 -36624.76186568883,-129414.0951002601 -35777.52377144333,-129481.14271914553 -35733.33329529989,-129627.4284330939 -35643.42853349082,-129962.66652815683 -35594.66662859917,-129993.14271878223 -35529.14281932675,-130005.33319495973 -35388.95234328549,-129974.85700406185 -34922.66662940525,-129865.14271864599 -34730.666629700434,-129822.47605184308 -34590.47615365917,-129804.19033775848 -34511.23805841459,-129791.99986149016 -34398.47615386353,-129791.99986149016 -34313.1428205302,-129804.19033775848 -34142.47615404518,-129834.66652802059 -33834.66663065411,-129889.52367072852 -33740.19044027848,-129901.71414690602 -33676.190440346596,-129895.61890927139 -33616.76186898128,-129871.23795691639 -33546.666630960644,-129816.38081393599 -33389.71425017532,-129566.47605247887 -33231.23805986781,-129584.76176629099 -32911.238060117576,-129724.95224260473 -32877.71425062945,-129761.52367095558 -32801.52377452007,-130078.4760515706 -32748.19044133433,-130328.38081357269 -32682.666631789434,-130383.23795600813 -32537.904727272435,-130383.23795600813 -32298.66663228898,-130371.04747983064 -31274.666633378893,-131090.2855746665 -30908.952347872208,-131352.3808125736 -30439.619015129247,-131675.42843082323 -30291.80949156787,-131772.95224033407 -30276.571396345997,-131833.9046215849 -30303.99996774537,-131907.04747819577 -30363.428539019864,-132059.42843041453 -30407.619015163305,-132217.90462081286 -30407.619015163305,-132351.99985867454 -30403.047586596742,-132412.95223956206 -30355.809491499753,-132479.9998584475 -30230.85711058954,-132595.8093826787 -30005.333301396597,-132778.6665252504 -29904.761872932213,-132827.42842968792 -29810.28568255658,-132839.6189058654 -29711.238063523557,-132839.6189058654 -29581.714254228435,-132815.23795351043 -29255.619016480283,-132760.38081080248 -29116.952349961208,-132748.19033489746 -28982.8571120087,-132851.80938213374 -28425.142826888026,-133284.5712863442 -28120.380922450502,-133528.3808101667 -27975.61901766102,-133631.99985731216 -27923.809494088295,-133644.19033348965 -27580.95235159608,-133680.76176238546 -27231.999971015113,-133723.4284286434 -27017.14282829583,-133741.71414300048 -26959.238066543527,-133759.9998574484 -26875.428542823207,-133827.04747633383 -26479.238066963597,-134198.85699965677 -25727.99997243427,-134924.19033249057 -25516.19044903184,-135131.42842741727 -25427.80949674496,-135747.04747429024 -25401.90473486777,-135868.9522358836 -25337.90473493589,-135875.04747406318 -25228.190449247555,-135856.7617597061 -24781.714259337405,-136246.85699738612 -24379.42854547987,-136582.09509244905 -24327.61902172549,-136618.66652079992 -24254.476164660486,-136661.3331876028 -24114.285688619224,-136703.99985404243 -23774.476165080556,-136807.61890182365 -23640.380927128044,-136868.57128280198 -23593.142832031055,-136905.14271133448 -23434.666641723543,-137289.14271056248 -23131.42854671738,-137990.09509076877 -22947.04759444185,-138422.85699497923 -22907.428547046624,-138453.33318560463 -22759.61902339442,-138538.66651921044 -22121.142833597805,-138855.618899553 -21805.71426241414,-139014.09509004216 -21598.47616748745,-139129.90461336513 -21715.80950060507,-139245.71413732387 -21689.904738637055,-139373.71413691514 -21589.333310263497,-139465.14270842806 -21482.666643710363,-139477.33318460555 -21360.761881935352,-139495.61889905346 -21252.57140586003,-139526.09508913392 -21165.714263186164,-139580.9522323868 -21075.809501286265,-139830.85699357142 -20973.714263299695,-140172.19032681393 -20908.190453936455,-140355.0474696581 -20809.142834903432,-140415.99985000066 -20714.666644618625,-140434.28556444857 -20396.190454390584,-140452.57127889647 -20047.238073809618,-140476.95223125146 -19907.047597768356,-140501.33318333398 -19838.47616936074,-140531.8093739594 -19701.33331236385,-140617.14270729272 -19518.476169519683,-140793.90461159401 -19166.476170075995,-141177.90461109448 -18840.380932237014,-141604.57127776113 -18590.47617068907,-141915.42842010575 -18518.857123146252,-141994.6665152595 -18448.76188512562,-142037.33318169913 -18345.142837526037,-142049.52365823992 -17727.999980949222,-141817.90461059494 -17392.76188615877,-141683.80937282406 -17310.476171960636,-141665.52365837616 -16892.952362972053,-141695.99984900156 -16533.33331573577,-141708.19032490658 -16391.61903017232,-141726.47603962698 -16316.952363585127,-141756.95222997988 -16252.952363653249,-141823.99984886532 -16201.142839898868,-142000.7617534391 -16140.190459011363,-142195.80937246076 -16060.952363857607,-142317.71413378164 -15917.71426877197,-142567.61889551123 -15850.666649704888,-142665.14270502207 -15760.761887895818,-142762.6665145329 -15661.714269044447,-142847.99984786625 -15446.857126415993,-143000.380800085 -15352.38093604036,-143055.23794279294 -15254.85712662035,-143073.52365696835 -14837.33331754094,-143116.19032377127 -14559.999984411967,-143140.57127612625 -14431.999984639031,-143152.76175230378 -14310.095222864022,-143146.6665137609 -14223.238079917674,-143055.23794279294 -14108.952365753603,-142896.76175230378 -12806.095224464832,-142951.6188950117 -12623.238081620664,-142689.52365710458 -12044.190463371018,-142921.1427047496 -11958.857130037684,-143085.71413341834 -11910.095225418507,-143445.3331805638 -11875.047606317365,-143548.95222770923 -11766.857130242042,-143622.09508513755 -10913.523797907797,-144036.57127499094 -10473.142845904746,-144274.28556054304 -10450.285703162757,-144767.99984545936 -10399.999988930565,-144847.2379406131 -9944.380941705638,-144908.19032150062 -8914.285704797629,-145036.19032163685 -7975.619038948396,-145164.19032122812 -7850.666658219837,-145060.57127371937 -7628.190467980443,-144828.95222671016 -7280.76189701249,-144207.2379416576 -7100.952373303524,-144030.47603708383 -5941.3333270095645,-143445.3331805638 -5695.9999939373565,-143372.19032340797 -5470.476184653587,-143329.52365660504 -5379.047613231503,-143341.71413278257 -5219.047613492628,-143414.85699021086 -5080.380946791902,-143439.23794229337 -4903.619042308963,-143420.9522282088 -4746.666661614463,-143372.19032340797 -4548.571423639246,-143256.38079944922 -4182.857138405041,-143122.28556167835 -3702.8571388251116,-142969.9046094596 -3247.2380916910106,-142811.42841933374 -2540.190473486777,-142604.19032413457 -2012.9523788098575,-142372.57127676206 -1926.0952359543367,-142384.76175266708 -1805.714283701514,-142134.85699120996 -1612.1904744745111,-141665.52365837616 -1283.0476176819834,-140806.0950877715 -1101.7142844508294,-140208.76175507397 -1030.095236908011,-139861.33318419685 -998.0952369420706,-139593.1427085643 -990.4761894219587,-139288.38080412676 -967.6190464983181,-139087.2379468347 -885.3333323001862,-138873.9046140009 -796.9523800133037,-138745.90461413714 -790.8571420153793,-138593.52366191839 -819.8095229369443,-138422.85699497923 -911.2380941773758,-138361.90461463667 -1138.2857129833326,-138349.7141381867 -1744.7619029048349,-138410.6665190742 -1766.0952360338094,-138349.7141381867 -1769.142855259837,-138258.28556685545 -1639.6190457830623,-137551.23794846956 -1555.8095221535689,-137081.90461563578 -1522.285712665441,-136892.952235157 -1353.1428557026143,-136082.28556898987 -1289.1428557707338,-135747.04747429024 -1191.6190463507257,-135216.76176075058 -991.9999988533202,-134290.28557126052 -891.4285703889367,-133979.42842855258 -638.4761897966164,-133388.19033412545 -452.5714279988996,-133040.7617631575 -312.38095195763776,-132845.71414413583 -208.76190453970514,-132839.6189058654 0,-132870.09509621834 656.761904062868,-133004.19033435252 1467.4285698666865,-133150.47604857336 2150.09523589757,-133266.28557198713 2835.809520882003,-133375.99985794793 3230.476187128599,-133449.14271474048 3373.71428212341,-133479.6189050934 3687.6190437848877,-133461.3331910088 3789.7142816806327,-133443.04747683337 3839.9999960036503,-133406.47604793755 4086.8571385980463,-133254.0950957188 4327.619043103692,-133034.66652461461 4496.761899975692,-132857.90462031332 4764.952375971541,-132601.90462067662 4985.904756597921,-132382.47604920913 5084.952375540117,-132315.4284303237 5130.666661205746,-132297.1427162391 5036.190470830113,-132181.33319255285 5382.095232457531,-131846.09509748992 5592.380946519424,-131644.95224056114 5802.66666049049,-131468.19033589656 5987.047612675193,-131340.1903361236 6235.428564791777,-131260.95224069737 6511.238088398563,-131169.52366972942 7238.095230391236,-130931.80938417734 7361.523801688434,-130950.09509862523 7459.047611199268,-130925.71414627023 7977.142848652236,-130767.23795605355 8543.999990996861,-130578.2855750298 9499.428561317678,-130273.52367059227 10965.333321662176,-129779.80938531266 11343.238083255534,-129645.7141475418 11558.095225793164,-129554.28557630136 11881.14284449694,-129383.61890990718 12339.809510766243,-129182.47605261511 12515.047605726995,-129115.42843372968 13113.904747946734,-128737.52367222715 13337.90474779914,-128609.52367263587 13549.714271292394,-128499.80938694753 13884.952366173673,-128371.80938708376 14307.047603819647,-128207.2379586875 14779.428555788638,-128030.47605411374 15161.904745766906,-127957.3331969579 15861.333316451028,-127817.14272091664 16355.047601639819,-127756.19033966583 16937.14283920632,-127683.04748287331 17522.28569572637,-127579.42843536455 17764.571409663375,-127615.99986362457 21581.714262743386,-126780.95224601071 24152.380926673915,-126214.09510366608 24400.761878790498,-126268.95224610153 24705.523783228025,-126262.85700810362 25214.476163638694,-126238.47605602109 25764.571401148427,-126171.42843713566 26527.999971764428,-125994.66653228941 27980.190446409237,-125494.85700883022 29304.380921190288,-125098.66653306143 29817.90473016752,-124909.71415258264 30160.761872659736,-124714.66653383346 30415.238062865068,-124617.14272432262 32021.33329925083,-124348.95224814513 33034.666631505606,-124062.47605842799 33500.952345295016,-123830.85701060134 33723.42853553441,-123763.80939198838 34459.42853475104,-123654.09510593674 34808.380915332,-123611.42843976962 35423.999962295806,-123526.0951061638 35964.95234276324,-123556.5712967892 36461.71424699641,-123580.95224941669 36690.28567532455,-123587.04748705131 37706.6666266237,-123708.95224900797 39670.857100632726,-123227.42843990585 40877.71424220533,-123446.85701101004 41202.285670431294,-123428.57129719792 41397.33328927131,-123379.80939212462 41859.04757458498,-123038.47605942706 42367.99995490483,-122605.7141548533 42445.7142405364,-122514.28558388534 43067.42852558895,-122337.5236790391 43999.99995316778,-122111.99986993699 44856.380904637226,-121849.90463175741 45668.57138005406,-121551.23796549946 46563.04756957819,-121301.33320376987 47515.42852094547,-120996.57129933234 47940.57137763581,-120850.28558565646 48902.09518604538,-120728.38082379062 49243.42851919706,-120588.19034774936 50012.95232772016,-120271.23796713434 50802.285660213354,-119954.28558651931 51236.571374127656,-119673.90463443678 51622.09518324112,-119417.90463443678 52187.42851597274,-119131.42844444716 52816.761848636226,-118783.9998734792 53234.28565762481,-118448.76177841627 53569.52375250609,-118211.04749286418 53839.23803802412,-118058.66654064541 54189.71422803645,-117717.33320794787 54512.761846831054,-117211.42844658157 54883.04756063182,-116620.19035179113 55265.523750700915,-116016.76178118648 55454.47613145218,-115718.09511438357 55673.90470273803,-115401.14273404102 57948.95231927333,-113974.85702109175 58229.333271355856,-113791.99987852006 59178.666603769576,-112993.52368916622 59765.333269720984,-112572.95226076995 60618.666602146055,-111999.99988079071 61113.90469685704,-111646.47607127987 61386.66660132862,-111555.04750031192 61770.6666009199,-111530.66654768444 63911.61897959352,-111683.0474999032 69944.38087793435,-112073.14273731076 70514.28563923252,-112115.80940411366 72827.42849391334,-112182.8570233624 73153.52373175231,-112201.142737447 72999.61896992054,-113255.61892680083 72521.14277995363,-116412.95225659195 72236.19039930454,-118424.38082633376 79280.76182046878,-120149.3332049052 82570.66657878103,-120911.23796599901 86308.57133679812,-122118.09510757161 86610.28562210045,-122233.90463180283 86610.28562210045,-118058.66654064541 86610.28562210045,-116498.28559019776 86166.85705114384,-116498.28559019776 86166.85705114384,-115614.47606723811 86451.80943179292,-115614.47606723811 86610.28562210045,-115614.47606723811 86610.28562210045,-114279.61892552927 86166.85705114384,-114279.61892552927 86166.85705114384,-113261.71416507124 86166.85705114384,-111615.99988065448 86026.66657510257,-111615.99988065448 86136.38086079092,-111555.04750031192 86182.09514645654,-111548.95226176904 86271.99990835643,-111524.57130968652 86346.6665748528,-111500.19035733152 86389.33324138324,-111481.90464288362 86428.95228905094,-111457.52369080108 86465.52371749262,-111420.95226226859 86465.52371749262,-111372.19035746776 86425.90466991573,-111335.61892866278 86349.71419380636,-111305.14273858232 86270.47609874343,-111286.85702413443 86150.09514649061,-111262.4760720519 86047.99990850403,-111256.38083350901 85962.6665751707,-111250.2855958744 85822.47609912943,-111244.19035733152 85825.52371826464,-111189.33321462359 85721.90467066506,-111195.42845289399 85721.90467066506,-109659.42845425638 85721.90467066506,-108952.38083641545 85278.47609970845,-108952.38083641545 85278.47609970845,-105892.57131559022 85278.47609970845,-104959.99988810222 84905.14276686331,-104959.99988810222 84891.4284810728,-104783.23798325597 84874.66657641956,-104575.99988860176 84857.90467158466,-104380.95226985257 84839.61895731841,-104179.8094125605 84836.57133836487,-102296.38084322741 85278.47609970845,-102296.38084322741 85278.47609970845,-101851.42846247615 85721.90467066506,-101851.42846247615 85721.90467066506,-101406.47608199736 86166.85705114384,-101406.47608199736 86166.85705114384,-100522.6665593102 86610.28562210045,-100522.6665593102 86610.28562210045,-99187.80941796464 86166.85705114384,-99187.80941796464 86166.85705114384,-98742.85703775834 85278.47609970845,-98742.85703775834 85278.47609970845,-98303.99989491417 84836.57133836487,-98303.99989491417 84836.57133836487,-97414.0951343199 84696.38086232361,-97414.0951343199 84393.14276731745,-97414.0951343199 84393.14276731745,-96969.14275384111 83059.80943540327,-96969.14275384111 83059.80943540327,-97414.0951343199 82616.38086444666,-97414.0951343199 82616.38086444666,-97859.04751479869 82171.42848396787,-97859.04751479869 82171.42848396787,-98303.99989491417 81727.99991301128,-98303.99989491417 81727.99991301128,-98742.85703775834 81287.61896118987,-98742.85703775834 81287.61896118987,-98303.99989491417 80839.61896157589,-98303.99989491417 80839.61896157589,-95640.3808501302 80399.23800966366,-95640.3808501302 80399.23800966366,-94750.4760894451 80839.61896157589,-94750.4760894451 80839.61896157589,-94305.52370896631 83948.19038702031,-94305.52370896631 83948.19038702031,-94750.4760894451 84531.80943392734,-94750.4760894451 84746.6665765558,-94750.4760894451 85278.47609970845,-94750.4760894451 85278.47609970845,-94305.52370896631 85721.90467066506,-94305.52370896631 85721.90467066506,-93860.57132821505 86166.85705114384,-93860.57132821505 86166.85705114384,-92531.80942504908 86610.28562210045,-92531.80942504908 86610.28562210045,-89868.19038017429 86524.95228894876,-89868.19038017429 86567.61895547919,-89770.66657066345 86610.28562210045,-89660.95228497512 86662.09514585482,-89520.76180893385 86718.47609817576,-89307.42847637254 86741.3332410994,-89136.7618094334 86765.7141934544,-88953.90466686171 86782.47609810764,-88740.57133402792 86794.66657428515,-88551.61895291336 86800.7618123739,-88411.42847723539 86802.28562189608,-88252.9522870187 86797.71419342034,-88070.09514390206 86788.57133619639,-87807.99990626743 86753.5237172769,-87448.38085912199 86697.14276495596,-87113.14276405906 86643.80943158857,-86838.85705024694 86517.33324133782,-86332.95228860817 86652.95228890334,-86314.66657470522 86649.90466967731,-86131.80943186105 86083.04752742352,-84077.71419586129 85807.23800399838,-83078.09514957869 85703.6189563988,-82712.38086416283 85659.42848025536,-82627.0475308295 85613.71419458973,-82584.38086402659 85229.71419508927,-82651.42848291203 85225.14276643189,-82815.99991130829 85721.90467066506,-84626.28562412132 85756.9522897662,-84748.19038598715 85721.90467066506,-84784.7618139747 85503.99990899222,-84937.14276619347 84793.90467165278,-85059.04752842261 83772.95229178708,-85229.71419472597 82622.47610253542,-85424.76181347517 82238.47610303496,-84022.85705288089 82460.95229327436,-83986.28562489334 82345.14276949727,-83565.7141962246 82119.61896039515,-83602.28562484794 81051.4284852508,-79719.61896276799 81272.38086587717,-79683.047533963 81171.80943750362,-79256.38086756882 81475.04753232813,-79171.04753432631 81263.23800874405,-78939.42848695378 81540.57134187303,-77939.80944030787 81741.71419871096,-78092.19039252664 81872.7618176191,-77933.71420267326 81641.1427703374,-77817.90467871452 81731.04753214648,-77708.19039302619 81287.61896118987,-77482.66658365159 80580.57134280399,-77129.14277504901 80339.80943838917,-77171.80944157945 80217.90467652334,-76732.9522988261 80161.5237242024,-76519.61896617396 80057.90467669364,-76129.52372813063 79954.2856292757,-75751.61896653727 79954.2856292757,-75666.28563329476 79885.71420068643,-75495.61896717305 79600.76182003735,-74459.42849172215 79347.8094393542,-73532.95230223208 79183.23801095794,-72935.61896953452 79065.9046777495,-72496.76182723531 79027.8094396948,-72350.47611328696 79017.1427730395,-72307.80944675654 78997.33324925105,-72252.95230404861 78962.28563033156,-72149.33325599489 78908.95229696417,-71954.285637609 78622.47610679289,-70918.09516206729 78462.47610714484,-70339.04754381764 78177.5237263141,-69308.95230690963 77971.8094409096,-68565.3332599004 77737.1427744927,-67718.09516547326 77724.9522983152,-67675.42849894284 77292.19039401392,-66115.04754849519 76914.28563242056,-64743.61897852632 76830.47610879106,-64444.952312086716 76396.19039487677,-62860.19040919323 76533.33325187366,-62829.71421856783 76498.28563295417,-62689.52374225409 76403.80944257852,-62707.80945697447 76356.57134729989,-62719.999932879495 76269.71420462601,-62415.23802844197 76131.04753810694,-61909.33326734816 76089.90468091705,-61756.95231512939 76010.66658585412,-61470.476124503984 75960.38087162194,-61281.52374429768 75881.14277637735,-60988.95231576517 75960.38087162194,-60976.76183986015 76345.9046807354,-60921.90469687974 76326.09515685613,-60854.85707799431 76408.38087105427,-60842.66660181681 76391.61896640103,-60763.42850639058 75960.38087162194,-60836.57136354641 75849.1427764114,-60854.85707799431 75765.33325269108,-60611.04755417182 75713.5237289367,-60464.76184022346 75651.04753852701,-60287.999935377215 75513.90468153013,-59946.666602316356 75363.04753892438,-59599.2380313484 75417.90468163231,-59574.8570789934 73571.0475407409,-56582.09517759855 73400.38087434671,-56301.71422524355 73298.28563636015,-56137.142796847285 72978.28563660991,-55619.04755984845 71981.7142090992,-53967.23803779706 71410.28563827884,-52931.047562618645 71337.14278130466,-52796.952324212005 70494.47611544408,-51218.28565931645 69889.52373522642,-50102.85708934758 69823.99992568152,-49980.952327754225 69715.8094496062,-49785.90470873255 69561.90468786524,-49505.52375665003 69447.61897370117,-49292.19042318046 69302.85706909336,-49036.19042381624 69177.9046883648,-48804.57137653455 69060.57135506552,-48591.23804333745 68932.57135520176,-48353.523757785355 68859.42849813675,-48225.52375764912 68766.47611737413,-48054.857091618236 68589.71421270954,-47731.809472732806 68460.19040341442,-47494.095187180705 68414.47611765796,-47408.761853847376 68414.47611765796,-47262.47614017149 68330.66659393764,-47262.47614017149 68306.28564158264,-47219.80947336859 68274.2856416167,-47158.857092117774 68211.80945120701,-47079.618997054844 68085.33326086545,-46817.523759420226 67969.52373717917,-46610.28566449354 67882.66659450531,-46451.80947409519 67839.99992788406,-46372.57137894144 67719.61897572206,-46153.14280783725 67647.99992808842,-46019.04757006639 67555.04754714415,-45854.476141397645 67390.47611874789,-45555.809474867216 67196.95230952087,-45220.57138007676 67032.38088112461,-44934.095190087144 66840.38088123815,-44604.95233329461 66640.76183383157,-44275.80947622961 66640.76183383157,-44153.904714545424 66567.61897676656,-44153.904714545424 66407.61897693686,-43891.80947663833 66194.28564392142,-43544.380905670376 66043.42850131566,-43294.476143940774 65894.09516795963,-43062.857096659085 65750.85707296482,-42837.33328728449 65654.857073067,-42678.85709743111 65439.99993043854,-42349.7142403661 65244.952311507695,-42044.952335928574 64953.90469276986,-41612.19043189976 64671.9999313468,-41191.6190035035 64415.99993152845,-40825.90471817847 64056.380884201346,-40344.38090907635 63824.76183682883,-39984.76186165842 63340.19040877316,-39314.28567244082 62928.761837782506,-38777.90472008582 62666.66659996623,-38436.57138738827 62514.28564774747,-38223.238054282 61750.857077222296,-37247.99996026357 61084.95231593547,-36437.33329409645 60569.90469752688,-35821.71424758677 60504.380887981984,-35742.47615197889 59980.19041234944,-35132.95234310384 59841.52374583037,-34968.38091461675 59722.66660309973,-34834.28567684589 59484.95231763846,-34572.19043921127 59466.666603372214,-34474.666629700434 59367.61898443002,-34389.3332963671 59323.428508286575,-34389.3332963671 59189.333270334064,-34236.95234414834 59032.380889639564,-34072.38091575207 58919.618985088506,-33944.380915888316 58692.57136610089,-33694.476154158714 58576.76184259629,-33572.571392565354 58040.38089060459,-33005.714250220735 56966.09517746231,-31902.47615642937 55652.571369336576,-30616.380919521358 55099.42851278247,-30073.904729804213 55099.42851278247,-29951.9999676659 54975.9999415761,-29951.9999676659 54745.90470372576,-29726.47615883626 54655.99994182587,-29641.142825502928 54655.99994182587,-29507.047587187113 54521.904703873355,-29507.047587187113 54211.04756134708,-29208.38092092916 54031.23803772894,-29025.523778084997 53557.33327632859,-28562.285683794085 53443.04756216452,-28458.66663601285 50259.809470314554,-25343.99997275216 50209.523756082366,-25319.619020669637 50160.761851372365,-25276.952353866734 48478.47613887722,-23600.76187946034 47210.66661650794,-22357.333309355236 45878.85709402512,-21065.1428344493 44940.19042835755,-20144.761883229625 44095.9999530656,-19303.619026709577 43663.23804876432,-19011.04759844955 42790.095192550805,-18407.619027844903 42671.23804991099,-18328.380932781973 41458.28567024964,-17493.333314532327 40508.95233783592,-16835.047600583966 40190.476147698704,-16530.28569614644 39835.42852902899,-16188.952363448889 39570.28567216834,-15932.952363539714 39666.285672066166,-15871.999983106341 39684.57138633241,-15786.666649500528 39699.80948164512,-15701.333316167196 39652.57138636647,-15658.666649636769 39492.57138653677,-15500.190459510906 39329.5237676627,-15347.809507292144 39167.99995831081,-15189.333316802979 39120.76186321382,-15146.666650000072 39001.90472048318,-15030.857126404639 38823.61900638723,-14860.190460282929 38678.857101688576,-14726.095221967113 38515.809482814504,-14567.619031750426 38357.33329250699,-14415.238079531664 38188.19043563499,-14256.761889133324 37703.619007488494,-13787.428556208708 37540.57138870525,-13628.952366355325 37375.99996030898,-13476.571414136562 37215.99996047928,-13318.095223374918 37051.42853208302,-13159.619033521536 36889.904722640305,-13007.238081302772 36725.33329424404,-12848.761890813606 36563.80948498298,-12696.380938594844 36400.761866018074,-12537.904748468984 36265.1428186342,-12409.904748605222 36012.19043786023,-12580.571414726932 35137.52377212453,-11751.619034656862 34665.14282033719,-11306.66665454138 34550.85710617312,-11209.142844758066 34252.19043982434,-10965.333321208045 34130.28567804933,-10867.80951196969 33796.57139259942,-10593.523798157568 33584.761869106165,-10422.857131218423 33526.85710726304,-10374.095227053376 33348.57139307626,-10227.809512469234 33113.90472665936,-10038.857131990446 33033.14282207424,-9977.904750739635 32909.714250686215,-9880.380941592106 32751.238060378702,-9764.571418178324 32598.85710815994,-9654.85713248999 32461.71425125388,-9551.238084708752 32359.61901326731,-9478.095227916225 32236.190441879284,-9392.761894310413 32095.999965838022,-9289.142846801655 31896.38091852227,-9148.952370760393 31811.04758518894,-9087.999989872887 31721.142823379865,-9027.047609167033 31669.333299625487,-8990.47618090701 31570.285680683293,-8923.428561476623 31498.666633140474,-8874.666656948271 31443.80949034172,-8831.999990145365 31309.714252389207,-8740.571419177411 31218.28568105795,-8685.714276469484 31126.857109817516,-8618.666657039097 30963.80949094344,-8515.047609802818 30811.42853872468,-8411.428562384885 30686.476157814468,-8338.285705229053 30610.285681705085,-8289.523800155743 30246.095205993068,-8051.809514966952 30151.61901552661,-7984.761895718218 29793.52377790334,-7759.238086706927 29537.523778084997,-7600.761896490239 28583.61901719554,-7015.619039697712 28042.66663690976,-6692.571421175587 27804.95235135766,-6558.476183041424 27587.04758968483,-6430.476183540967 27012.57139991092,-6119.619041105517 26692.571400160694,-5948.952374166372 26207.999972195852,-5699.047612436774 25889.523782058637,-5540.571422583392 25849.904734390933,-5516.19047022839 25807.238067860508,-5497.904756052964 25342.47616350245,-5278.476184403815 25183.999973285765,-5205.33332779294 24943.23806878012,-5095.619042104604 24472.380926333317,-4882.285708635031 23960.3809269691,-4656.761899351262 23395.04759423749,-4400.76189989622 23288.38092759353,-4358.095233093313 23242.66664201873,-4345.904757188291 22499.047595191165,-4028.9523765732642 22459.42854752346,-4004.571424218262 21810.28569107153,-3760.761900395763 20387.047597348286,-3212.1904727715214 20228.57140704077,-3157.3333297911145 19910.09521708521,-3084.1904726352823 19888.761883683757,-3035.428567925278 19260.952360542455,-2828.190472726108 19055.238074956298,-2761.1428537498527 18439.619027992496,-2566.0952350914886 18154.66664734341,-2480.7619020306333 18057.1428379234,-2444.190473134826 16662.85712512172,-2054.095235363967 16457.14283962639,-1993.1428550214184 16086.857125825623,-1889.523806967703 15774.476173777159,-1816.380950175175 15754.666649897894,-1926.0952355910322 15722.666649931953,-1987.0476164785373 14969.904746062091,-3425.5238053328326 14901.333317472821,-3401.1428532503087 14537.142841760804,-3321.9047581873783 14040.38093743681,-3193.904758051139 13697.523794944595,-3108.5714247178057 13212.952366888929,-2980.571424944871 12725.333319788888,-2773.333330290658 12350.476177330731,-2444.190473134826 10075.4285607046,-1901.7142831452038 9802.666656233016,-1840.7619028026554 9507.047608928615,-1773.7142833722692 9383.619037631417,-1743.238093291821 9244.952371112344,-1712.7619026664163 9008.76189517326,-1651.8095217789112 8783.238085889492,-1603.0476172505594 8612.571419495303,-1560.3809504476535 8422.09522922185,-1523.8095221876288 8211.809515069132,-1475.04761711432 7913.142848720356,-1401.9047603217923 7580.952372883453,-1328.76190316596 7204.571420993935,-1243.428570105105 6601.142850207633,-1103.238093791365 6310.095231560623,-1042.2857129038596 6067.809517441964,-981.3333321980068 5773.714279568925,-920.3809509471971 5446.095232389411,-841.1428561567449 5279.99999447096,-804.5714276242419 4813.714280590719,-694.857141663428 4714.666661739349,-676.571427760481 4926.476185232604,-237.71428500713947 5315.0476133904485,-341.3333326975505 5365.33332762264,-219.4285711041924 4845.714280556659,-79.23809506293057 4795.428566324467,-201.14285665628861 4845.714280556659,-213.33333256131127 4627.809518883829,-664.38095158298 4562.285709520586,-646.0952371350762 3922.2857102017824,-432.7619040288082 4021.3333290531523,-219.4285711041924 4112.761900475236,-24.38095235500206 4301.714281226502,-85.33333278837658 4377.904757335883,73.1428571558323 3859.8095197012635,219.42857164914915 3794.2857103380215,67.04761943038629 3981.7142814762738,6.095238542881141 3876.5714245361537,-213.33333256131127 3775.99999607177,-420.571427760481 3295.999996491841,-280.3809518100453 3178.6666633742198,-243.8095231867161 3122.2857110532773,-231.61904728169344 3073.5238062524472,-225.5238087388123 2988.190473100766,-225.5238087388123 2939.4285682999357,-237.71428500713947 2895.2380921564945,-243.8095231867161 2805.3333305290766,-243.8095231867161 2759.6190447726217,-237.71428500713947 2692.57142570554,-219.4285711041924 2474.666664123535,-134.0952377708591 2354.2857118707125,-85.33333278837658 2214.0952358294508,-24.38095235500206 1784.3809504817132,115.80952395873815 1724.9523792072218,158.476190761644 1616.7619031319002,-48.76190443752574 1532.9523793207545,-213.33333256131127 1347.0476176138638,-213.33333256131127 537.9047614230591,-54.85714270792851 598.8571422197381,152.38095221876287 554.6666660762969,164.57142866874227 478.4761899669154,-85.33333278837658 252.9523808647986,-48.76190443752574 0,0Z"/></svg>