<svg xmlns="http://www.w3.org/2000/svg" width="256" height="256"><path d="M102.4680505671557,43.2510703920856 103.09660924088391,43.33418558876646 103.3225786814391,43.33418558876646 103.59530042004018,43.41730078575695 104.02516182707573,43.40691138603638 104.45891925894361,43.42769018470345 105.0381282848893,43.44846898383496 105.47448306649622,43.46924778296647 105.89135772422698,43.50041598197336 106.34069925529109,43.53158418098026 106.71601631475882,43.583531178499406 106.85757188399705,43.61469937704186 107.30691341490635,43.70820397297885 107.55755767958502,43.74976157124187 107.91988798928593,43.801708568915835 108.30689312326514,43.8432661676433 108.75623465433168,43.86404496677481 109.1783040116905,43.895213165317266 109.3471317546316,43.895213165317266 109.69517664008441,43.96793896212274 109.94582090460827,44.009496560385756 110.25100951685233,44.03027535951727 110.61333982670806,44.03027535951727 110.92632048878126,44.07183295839955 111.20683427705666,44.13416935532964 111.59903411050912,44.25884215027352 112.07305046585154,44.43546194320099 112.3457722042978,44.54974533780505 112.60680586838741,44.63286053448591 112.9262799051892,44.75753332989423 113.10030234791562,44.809480326948936 113.56003327854549,45.017268319038116 113.8548324912238,45.12116231376679 114.01846553453926,45.21466691063266 114.12106085509629,45.27700330818201 114.35352367053488,45.370507904118995 114.78857977735089,45.515959498194384 115.1509100870518,45.651021692394394 115.48077352341936,45.81725208513686 115.57297944441062,45.85880968293544 115.73141778794322,45.96270367921225 116.09634544769038,46.23282806761227 116.34698971221422,46.39905846035472 116.67035977369837,46.565288853561626 116.98074308557051,46.71074044763702 117.20411517623425,46.845802641837025 117.33528134575191,46.97047543678091 117.47423956525353,47.06398003271789 117.6677421320109,47.13670582998781 117.83916722484587,47.219821026513856 117.92098374627139,47.27176802418782 118.02747509182038,47.44838781727011 118.10539558856354,47.583450011005674 118.14955053671801,47.739291004801636 118.17422536084149,47.86396379928107 118.17422536084149,47.988636594689396 118.47941397308556,47.988636594689396 118.54175037048009,48.14447758755647 118.6235668919056,48.27953978222092 118.73525293723748,48.30031858150725 119.92483918751648,48.30031858150725 119.82224386695947,48.13408818876479 119.76510216934781,48.00941539335646 119.76510216934781,47.9055213975441 119.83523061626184,47.812016802071554 120.07288813133093,47.67695460694266 120.70404415494815,47.396440819131705 120.98975264316125,47.739291004801636 121.25727968182464,47.645786408400205 122.54556522797833,48.549664170775756 122.80919624211418,48.35226557949084 123.05464580685516,48.15486698743186 123.24814837361255,48.030194192487976 123.43645624089426,47.93668959608655 123.64814025689414,47.853574400489386 123.80917595016335,47.812016802071554 123.92345934554147,47.812016802071554 124.0455347902843,47.822406201482494 124.26371218116516,47.89513199828797 124.48968162172034,47.96785779555788 124.70266431297556,47.96785779555788 124.88188145532762,47.95746839521806 125.44550638176985,47.853574400489386 125.77536981798018,47.7912380024756 126.21951664941864,47.65617580827559 126.75586940215558,47.500334814789255 127.08313548847688,47.396440819131705 127.26235263083136,47.28215742406321 127.46364724742028,47.157484628654885 127.62468294084431,47.04320123405083 127.98961060058906,46.96008603736997 128.41167995794788,46.876970840843924 128.64284409844075,46.85619204171241 128.80647714129418,46.908139039850816 128.92335788656135,46.96008603736997 129.161015401628,47.1159270308563 129.47919076317444,47.313325622915286 129.74671780230227,47.44838781727011 129.9506097686254,47.52111361407558 130.22073415733507,47.57306061205917 130.5311174692072,47.61461821047701 130.7570869097624,47.60422881013719 131.36097075952193,47.52111361407558 132.51029808648363,47.354883221333125 133.2024918325521,47.230210425924795 133.50508309490232,47.14709522924394 133.71676711121182,47.04320123405083 134.05442259694405,46.77307684549599 134.24273046407336,46.58606765269314 134.3102615614056,46.48217365750003 134.33493638537428,46.357500862556144 134.29987216183986,46.23282806761227 134.19338081629084,45.973093078468374 134.28948276227408,45.78608388612996 134.577788600069,45.370507904118995 135.14920557618555,44.56013473721599 135.3920577911899,44.227673951266624 135.53101601022706,44.05105415926804 135.6946490533877,43.936770764044724 136.3076236277673,43.67703577490084 136.83228830599276,43.479637182841856 137.03747894741645,43.42769018470345 137.1816318665461,43.45885838417478 137.66084292120453,43.63547817617337 138.0179785312798,43.66664637518027 138.09070432854972,43.68742517384734 138.25433737140074,43.718593373318676 138.91666159371766,43.63547817617337 139.58677786570888,43.61469937704186 140.39844970678354,43.61469937704186 140.59974432352487,43.60430997763092 140.7361051926682,43.61469937704186 140.93739980925713,43.67703577490084 141.12570767638644,43.801708568915835 141.29063939464763,43.95754956333105 141.51790751014852,44.09261175753106 141.88543251978712,44.25884215027352 142.2776323533944,44.40429374434891 142.60879446439804,44.51857713941741 142.92307380126456,44.5809135363475 143.2334571132891,44.61208173581884 143.64383839613643,44.72636513042289 144.12954282614515,44.944542521768206 144.3282400925306,45.06921531609283 144.66070087863477,45.28739270697369 145.01394046402527,45.5886852943806 145.12562650920233,45.74452628833138 145.10354903543472,45.889977882406775 144.9892656399018,46.04581887527385 144.8775795945699,46.19127046934924 144.8568007954384,46.30555386441774 144.87238489494186,46.419837259486236 144.9762788904446,46.53412065548362 145.15289868306243,46.638014650367104 145.50743694324385,46.77307684549599 145.70093951015605,46.835413243045345 145.904831476634,46.845802641837025 146.1113207930034,46.793855644627506 146.34118625839574,46.65879344949862 146.48014447758771,46.523731255763046 146.639881496066,46.39905846035472 146.7541648911345,46.347111462680765 146.8476694872263,46.32633266354925 147.02428927984417,46.32633266354925 147.37233416545178,46.284775065286226 147.63726385422373,46.212049268480754 147.80349424727584,46.13932347121084 148.01517826342808,46.00426127747527 148.28010795235485,45.889977882406775 148.66061971160548,45.77569448733828 148.9359387999432,45.682189890782034 149.12684401711874,45.609464094131376 149.26320488626448,45.50557009785456 149.33333333348816,45.39128670325051 149.50475842632312,45.23544570976417 149.62553519627502,45.2562245090505 149.8644913862874,45.29778210684908 150.19695217239158,45.370507904118995 150.55668513235585,45.50557009785456 150.96187171526552,45.64063229205457 151.31121527566646,45.70296869006836 151.50471784257624,45.71335808932449 151.78003693122358,45.66141109165052 152.03327854548405,45.5679064952491 152.43846512870334,45.29778210684908 152.73326434153648,45.03804711770519 153.10078935102027,44.76792272868592 153.77610032263956,44.25884215027352 153.91505854183154,44.20689515213512 154.1189505083095,44.15494815446115 154.65270591100017,44.175726954057104 155.22412288711917,44.23806335160645 155.57866114745295,44.34195734633512 155.8968365089994,44.456240742332504 156.29812706722913,44.51857713941741 156.64097725289665,44.68480753262431 156.8916215174205,44.78870152781742 157.12538300780483,44.975710720620285 157.18901808014508,45.131551714106614 157.26174387695056,45.38089730291068 157.33057364922848,45.48479129918749 157.42797427015745,45.547127696117585 157.8201741036099,45.63024289326288 158.55262677315048,45.827641484392984 158.92274913268054,45.98348247834376 159.5902680546255,46.30555386441774 159.91233944116394,46.44061605908219 160.09934863350236,46.492563056756154 160.41622532025548,46.50295245663154 160.96296747225097,46.72112984735759 161.76944461369757,47.06398003271789 162.07723057567824,47.261378624931695 162.2538503684509,47.33410442220161 163.09798908316856,47.4276090181386 164.2096548365496,47.55228181292766 164.88236845843227,47.63539700914408 165.13041537306466,47.61461821047701 165.30703516583733,47.57306061205917 165.67975487510398,47.4276090181386 166.0485785596883,47.219821026513856 166.37714332111014,47.09514823218923 166.55246443878227,46.99125423591242 166.6148008361768,46.88736024010005 166.68233193335664,46.71074044763702 166.82648485217427,46.58606765269314 166.99790994500924,46.492563056756154 167.15375093849556,46.45100545849313 167.36024025486495,46.44061605908219 167.7095838154183,46.513341856352106 168.29528621593778,46.835413243045345 168.69527809921937,47.06398003271789 168.96799983766564,47.188652828126216 169.18228120386658,47.25098922505631 169.45760029220187,47.25098922505631 169.83681337635193,47.17826342778639 170.08745764087578,47.14709522924394 170.2471946591993,47.188652828126216 170.62640774334938,47.29254682378377 171.10561879847467,47.37566202000019 171.27704389115482,47.34449382099329 171.577037803616,47.10553763098092 171.87313569124004,46.918528438642504 172.1484547800422,46.793855644627506 172.53805726375802,46.731519246768535 173.0198656683103,46.58606765269314 173.19129076114527,46.419837259486236 173.40946815202614,46.05620827561368 173.5016740731722,45.75491568805195 173.52634889714088,45.47440189977655 173.5860879447988,45.32895030523672 173.77959051171098,45.11077291497511 174.1367261217814,44.705586331755825 174.3678902619671,44.40429374434891 174.55100342962317,44.321178547203615 175.06527870781844,44.19650575318862 175.27306669928836,44.13416935532964 175.44449179196852,44.009496560385756 175.61591688480348,43.85365556705424 175.85876909980783,43.55236298011177 176.00811671856556,43.45885838417478 176.16915241168238,43.44846898383496 176.3977192022814,43.44846898383496 176.7730362614395,43.50041598197336 177.04835535008684,43.55236298011177 177.219780442767,43.49002658209798 177.41588035972543,43.34457498848703 177.43795783380267,43.21990219369796 177.40549096015968,42.94977780467869 177.38341348608245,42.575759420466305 177.43276313386497,42.27446683352384 177.57172135305697,41.94200604711003 177.7678212698606,41.51604066475924 177.93924636269557,41.13163288067147 178.1353462794992,40.94462368833305 178.39897729348024,40.861508492735894 178.6742963822824,40.861508492735894 179.27947890683285,40.85111909239607 179.6924575394168,40.788782695465976 179.85349323284083,40.66410990005765 179.8911548061119,40.52904770632209 180.07686532334978,40.39398551150282 180.21582354253934,40.34203851444811 180.34439236216798,40.22775511876036 180.56646577804082,40.05113532583289 180.80672064284408,39.97840952902742 181.2612568738459,39.97840952902742 181.5015117388064,40.05113532583289 181.76514275278504,40.1861975200329 182.05474726568048,40.445932509176785 182.29110610580142,40.74722509704814 182.48720602260505,40.92384488920154 182.68590328945496,41.01734948560297 182.9638197276841,41.058907084330436 183.2365414662852,41.058907084330436 183.40796655912015,41.04851768460986 183.6040664759238,40.98618128706052 183.82743856658752,40.85111909239607 184.232625149652,40.61216290238369 184.54560581157037,40.39398551150282 185.09624398855541,40.05113532583289 185.48584647227125,39.86412613395892 185.75207483645337,39.791400336689 186.1040157464337,39.80178973702883 186.38712688475778,39.843347334827406 186.94295976136848,39.988798928902796 187.866317647775,40.24853391804669 188.85980398124795,40.508268907190576 189.43251963231265,40.70566749832068 190.34678679409916,40.94462368833305 190.7117144538463,41.100464682748274 191.245469856537,41.349810271552336 191.43377772397594,41.5056512653483 191.56754124307542,41.68227105796614 191.61689089117,41.8381120517621 191.62208559079323,42.00434244404012 191.4805300217122,42.284856232779966 191.1727440597315,42.89783080746917 190.88054219694465,43.521194780640435 190.80781639982956,43.81209796925566 190.7727521764475,44.082222357191235 190.74807735248126,44.47701954161883 190.684442280141,44.851037925831214 190.5844443091658,45.16271991249425 190.39873379192792,45.52634889698607 190.20263387512188,45.931535480205355 189.90004261277164,46.40944786069455 189.49745337959862,47.03281183463989 189.24421176533815,47.469166616401615 189.0753840222398,47.80162740235098 189.02083967451958,48.11330938963328 189.0403197988626,48.58083236978265 189.14940849430064,49.017187150925125 189.29875611305837,49.349647937338936 189.5416083277531,49.671719324496614 189.73381221987438,49.848339116495204 190.01172865810352,49.99379071057059 190.24159412365069,50.08729530650758 190.6221058829013,50.22235750070759 191.1727440597315,50.34703029565147 191.7792252593825,50.45092429192828 192.19869726685232,50.56520768699678 192.5402487774193,50.63793348380225 192.87141088873256,50.71065928107217 193.2727014469623,50.84572147527218 193.6999655039492,50.97039427021606 193.8817799963475,51.02234126727077 194.11684016167993,51.09506706407624 194.65579026415108,51.27168685715853 194.9713682759609,51.32363385529693 195.13759866885817,51.32363385529693 195.26097278885393,51.29246565629004 195.41551510739694,51.20935046007362 195.62330309855724,51.08467766528456 195.9064142367241,50.88727907307076 196.09082607901382,50.71065928107217 196.29861407033135,50.544428887865266 196.64406160589274,50.31586209664457 197.0960004870031,50.024958909577485 197.38430632510764,49.85872851637058 197.60767841561656,49.7652239204336 197.83105050628032,49.682108723288295 198.03624114770398,49.65094052521029 198.32454698580852,49.65094052521029 198.65441042186643,49.69249812362813 198.80895274040705,49.73405572142671 199.14141352651123,49.82756031736369 199.4297193646182,49.9626225115637 199.75698545078225,50.160021103777495 199.91282644426857,50.2431362998391 200.03490188932102,50.36780909478298 200.26606602950184,50.679491082065276 200.3258050771622,50.74182747899537 200.57125464174834,51.02234126727077 200.6803433371888,51.11584586367219 200.9413770012784,51.240518658151636 201.2089040400966,51.385970252227025 201.4699377041862,51.61453704236402 201.58941579918996,51.801546234702435 201.77772366647653,52.050891824590195 201.93356465980804,52.196343418665585 202.0777175787829,52.31062681373408 202.25433737155555,52.383352611004 202.4309571640186,52.43529960852315 202.72056167706884,52.528804205079396 203.10367078590127,52.62230880101638 203.54262291770925,52.79892859301497 203.87508370365862,52.97554838609725 204.20234979013472,53.172946977227355 204.62961384712162,53.484628964509646 205.01012560621982,53.692416955515135 205.3244049430815,53.80670035151251 205.7166047768436,53.85864734872204 206.20101053144214,53.87942614785354 206.87372415347963,53.93137314552751 207.52436030128507,53.96254134499885 207.78279661548325,54.04565654152489 207.9490270083805,54.180718735879715 208.10486800186683,54.43006432468378 208.18928187333862,54.637852316153705 208.29837056877903,54.80408270936061 208.42044601367667,55.0014813015744 208.48537976096264,55.1469328956498 208.64641545423186,55.448225482592264 208.82303524700453,55.67679227272926 208.97887624033604,55.81185446739371 209.08796493577645,55.936527261873145 209.24250725431466,56.12353645467601 209.4632819952442,56.43521844102941 209.64120046265296,56.74690042831171 209.80093748097644,56.975467218448706 210.011322822183,57.224812808800905 210.11781416773198,57.39104320154337 210.37625048193016,57.26637040659949 210.46326170329337,57.224812808800905 210.85805888694688,57.08975061398164 211.59830360585215,56.798847426450116 212.2476410787143,56.57028063569386 212.6632170614969,56.38327144381989 212.99308049755484,56.217041050148545 213.23853006245062,56.0715894565376 213.42034455469653,55.95730606100466 213.64371664536029,55.73912867074305 213.79696028895518,55.48978308039084 213.97358008172785,55.261216290718295 214.186562772671,55.022260100241475 214.37097461496316,54.82486150895656 214.69044865176255,54.533958320960586 215.04628558689208,54.180718735879715 215.28654045169537,54.01448834267281 215.46575759420466,53.941762545867334 215.86704815258437,53.80670035151251 216.27742943527932,53.598912359578144 216.8306649623106,53.29761977217123 217.29948661756052,53.00671658494934 217.5449361824563,52.809317993354796 217.98518698890038,52.41452080939164 218.2254418538609,52.22751161751767 218.55530529007123,52.050891824590195 219.05529514417321,51.811935634577814 219.21633083744,51.74959923764773 219.39295063006026,51.64570524137091 219.83969481154256,51.47947484816401 220.60851037940847,51.15740346209003 221.52927091592358,50.762606278126874 221.9513402732824,50.58598648612829 222.21237393752682,50.49248188972686 222.56950954759967,50.38858789391449 222.79288163810858,50.28469389872138 222.95261865627728,50.2119681019159 223.09157687546926,50.149631704366556 223.29936486678437,50.06651650784051 223.60195612913458,49.90028611463361 224.14610093154826,49.640551125489715 224.27986445080012,49.57821472794037 224.7097258579905,49.360037337214315 224.9980316957854,49.23536454180599 225.504514924616,48.975629552662106 226.23566891921084,48.59122176950322 226.7421521478866,48.32109738063876 227.12266390713722,48.11330938963328 227.8304417523995,47.66656520753172 228.4979606746541,47.354883221333125 229.2602828676342,47.03281183463989 229.83040116895984,46.81463444391383 230.20312087822893,46.66918284983844 230.29013209959456,46.638014650367104 230.44597309323328,46.61723585170004 230.74856435558593,46.627625250956164 231.09920659077534,46.61723585170004 231.57322294611777,46.58606765269314 232.55372252998112,46.48217365750003 232.87449524157384,46.45100545849313 233.25630567561294,46.37827966122322 234.19914368620766,46.212049268480754 235.25756376697143,46.035429476482165 235.43028753475213,46.00426127747527 235.68612649936605,46.00426127747527 236.44065664267424,46.076987074280744 236.59519896136968,46.076987074280744 236.86012864998682,46.04581887527385 237.5458290214815,45.95231427933686 237.42115622653762,46.27438566633973 237.23804305919117,46.72112984735759 236.87571274949025,47.7912380024756 236.8679206996611,47.95746839521806 236.9133743227589,48.102919989293454 237.23804305919117,48.49771717263735 237.586087944644,48.975629552662106 238.04971490026583,49.598993527226696 238.66788417442828,50.430145492641955 239.15488727907308,51.09506706407624 239.15488727907308,51.18857166094211 238.9756701367186,51.19896106035305 238.58606765300277,51.562590044690054 238.10945394792373,51.9366084295217 237.82894015980315,52.2171222177971 237.75881171242466,52.32101621299021 237.80426533567967,52.39374200979569 237.9133540311201,52.45607840780948 238.47178425762465,52.5807512021341 239.3431951463572,52.79892859301497 239.52371096365738,52.88204379016027 239.97305249487633,53.16255757843567 240.400316552018,53.41190316723973 240.4847304234898,53.43268196637124 241.14575597085857,53.53657596264806 241.73795174610905,53.67163815638362 242.21976015112577,53.67163815638362 243.0911710395487,53.67163815638362 243.17558491102048,53.692416955515135 243.5781741441935,53.900204946985056 244.4171181592831,54.357338527878305 245.2339846999858,54.772914510818154 245.80670035104566,55.126154096518285 246.25863923231324,55.41705728358537 246.7378502871289,55.70796047173615 247.43783608302408,56.18587285222535 248.274182747915,56.7261216291802 248.49106146385017,56.902741422107674 248.6936547555372,57.297538605606384 248.8871573224494,57.69233578895028 249.0611797651758,58.097522372169564 249.23260485801077,58.47154075638195 249.33260282883117,58.61699235045734 249.4715610480256,58.720886346114895 249.71960796265557,58.88711673839291 249.98453765142753,59.042957732808134 250.34037458655465,59.3754185187575 250.76893731879446,59.635153507901386 251.2390576489925,59.915667296176785 251.5338568616708,60.154623486189166 251.67541243075425,60.28968568038917 252.44292932367202,60.518252470526164 252.9585032774347,60.653314664726174 253.11304559566568,60.622146466338535 253.10525354599136,60.77798745967006 253.04291714875163,60.92343905328101 252.87668675554474,61.16239524375783 252.74292323613562,61.339015036685296 252.66370406460155,61.48446662983181 252.5792901931298,61.6818652220456 252.54162861954913,61.827316816121 252.51175909595239,61.983157808988075 252.49747367139466,62.20133520033338 252.48448692193747,62.58574298442115 252.53123921998335,62.79353097589108 252.5520180191173,62.95976136863354 252.5818875428664,63.12599176184044 252.67539213911303,63.41689494983641 252.7130537123841,63.624682940996706 252.73772853635276,63.95714372741052 252.75071528596476,64.2168787165544 252.76500071021286,64.37271970942147 252.80785698342402,64.6116758998983 252.84421988190175,64.73634869484218 252.9338284533112,64.92335788671616 253.03122907424017,65.07919887958323 253.20914754164892,65.31815507006006 253.41823420790973,65.598668857871 253.71043607069663,65.92074024487387 253.88705586346927,66.06619183848483 254.19484182544755,66.31553742883703 254.42600596578802,66.53371481956309 254.60652178324304,66.6687770139179 254.86495809744122,66.98045900058094 255.00911101641606,67.1466893933234 255.1636533351115,67.34408798507276 255.29222215473771,67.58304417508513 255.34416915241167,67.77005336742356 255.4987114711071,68.50770073705664 255.53507436943244,68.6947099289306 255.55325581882732,69.0063919162129 255.55585316887357,69.203790507343 255.57793064264118,69.40118909909236 255.5649438933388,69.55703009288833 255.54806111888962,69.87910147958156 255.5259836448124,70.17000466757753 255.51039954561858,70.37779265873783 255.5259836448124,70.56480185107624 255.5922160670441,70.8349262390118 255.62208559079565,71.05310362989268 255.67662993851584,71.39595381602706 255.6922140378645,71.70763580330936 255.72857693649945,72.07126478780117 255.74416103569328,72.35177857561213 255.79870538341348,72.6946287617465 255.8948073293967,73.06864714657814 255.98701325069763,73.67123232046308 256,73.8582415128015 255.95454637705706,74.0244719060084 255.8207828574907,74.31537509415918 255.6142935411189,74.69978287824695 255.51559424524666,74.93873906764007 255.44156977333822,75.21925285653474 255.39092145061238,75.4685984453388 255.32988372800875,75.8010592317526 255.28962480469147,76.0607942208965 255.23248310707982,76.37247620817878 255.1727440595767,76.58026419918427 255.0363831905858,76.88155678659118 254.94157991923865,77.11012357719262 254.88703557151842,77.28674336934603 254.74158397775267,77.5464783584899 254.6298979322684,77.76465574983521 254.46756356405106,78.09711653624902 254.25458087310787,78.42957732219838 254.13250542805542,78.60619711419697 254.01432600799498,78.84515330420936 253.95198961075525,79.0737200948108 253.86238103934338,79.25033988789308 253.67147582247742,79.58280067384244 253.27408128893248,80.35161624139873 253.0286317241939,80.76719222449339 252.79487023411923,81.23471520510721 252.56890079371885,81.73340638426347 252.3857876260652,82.10742476847585 252.07800166408208,82.75156754170752 251.93125139506097,83.14636472505141 251.792293175869,83.4372679132022 251.69229520535822,83.59310890606928 251.56372638542237,83.68661350200627 251.47671516405916,83.8320650965461 251.34295164480488,84.05024248742696 251.14944907789268,84.38270327322151 250.95334916108905,84.71516405963531 250.7897161177736,85.03723544586411 250.56114932732697,85.36969623227792 250.35725736100383,85.6398206202135 250.19102696779692,85.84760861168343 249.94038270327306,86.0865648016958 249.71960796265557,86.3670785899712 249.3936405511276,86.68914997712888 249.28455185568234,86.83460157120427 249.18325520991863,86.99044256407134 249.09624398855541,87.25017755321524 248.94949371968912,87.64497473655913 248.8404050242487,87.88393092657151 248.68196668102573,88.08132951878531 248.51833363786267,88.27872811037984 248.33392179557293,88.45534790253325 248.17028875225745,88.5696312980662 248.02094113365453,88.72547229201697 247.78328361858547,88.97481788082104 247.48718573080905,89.25533166909644 247.38848643493435,89.38000446450475 247.37290233574055,89.82674864552261 247.35342221139993,90.21115643007482 247.31186461313692,90.42933382080088 247.2040745926422,90.66829001081325 247.07550577301598,90.9072462003612 246.89239260566953,91.21892818717905 246.76512246114385,91.38515858038595 246.6313589415775,91.54099957371747 246.375519977428,91.82151336199287 245.95085327002292,92.47604553509991 245.695014305871,92.82928512018078 245.34047604553479,93.33836569859318 245.1067145553053,93.68121588488238 244.84438221626996,94.13834946515637 244.71711207158947,94.4292526528427 244.47685720662895,95.01105902898945 244.33530163754793,95.28118341754428 244.20153811829366,95.48897140854977 244.08725472291795,95.63442300262516 243.9132322801891,95.83182159483896 243.74959923702846,96.06038838497595 243.63791319185142,96.23700817743898 243.37687952776182,96.41362797005682 243.16779286134616,96.62141596152675 242.88987642311702,96.84998275212818 242.27949919847407,97.45256792663238 241.88989671475824,97.82658631084477 241.42107505950833,98.26294109353539 241.16523609504918,98.50189728354776 240.71589456398266,98.94864146456563 240.32888943031307,99.33304924803414 239.7925366774213,99.84212982706579 239.4990361396887,100.0914754163343 239.36007792049674,100.1745906134796 238.94580061281223,100.59016659549057 238.60814512723482,100.96418497970295 238.25360686674378,101.34859276379072 237.86400438302795,101.75377934747445 237.6328402428447,102.01351433661833 237.40167610235181,102.30441752414987 237.1731093119052,102.57454191270469 236.95752927091576,102.77194050491849 236.71467705606622,102.9901178951801 236.30949047300177,103.24985288432399 236.06923560804125,103.42647267694184 235.64716625068485,103.73815466422413 235.18483797016353,104.04983665150642 234.77835271200095,104.28879284089955 234.53420182220327,104.42385503571882 234.10563909027067,104.63164302672429 233.85499482574681,104.76670522092431 233.68097238302042,104.87059921720112 233.30565532355268,105.10955540721349 232.87449524157384,105.36929039635739 232.40047888638622,105.66019358388891 232.13425052266857,105.79525577870818 231.63555934351228,106.01343316943422 231.50179582394838,106.05499076785206 231.35764290497593,106.09654836565065 231.18362046240193,106.2004423613082 230.81869280249995,106.41861975172462 230.5875286623167,106.53290314772201 229.8329985186989,106.93808973001241 229.21482924453645,107.26016111717009 228.7382155397646,107.51989610631396 228.37328787971023,107.71729469744407 228.50055802439073,107.81079929430994 228.6966579411944,107.82118869372088 229.08366307517358,107.86274629151946 229.38885168726284,107.88352509065098 229.3719689129685,107.98741908692779 229.30703516568252,108.22637527694016 229.1330127229561,108.37182687101556 228.84990158478928,108.57961486202103 228.5304275482971,108.90168624809502 228.22913496089018,109.18220003637042 227.2486353767172,109.75361701233216 227.12526125702865,109.80556401093502 226.92396664028732,109.79517461059518 226.65124490168625,109.77439581146368 226.5213774071143,109.73283821366509 226.2590450682338,109.69128061586652 226.11489214910654,109.68089121552669 225.77463931332562,109.82634280960208 225.34997260623018,110.01335200147605 224.9850449463282,110.27308699061994 224.56297558896938,110.53282197976382 224.31233132444552,110.66788417489272 224.1512956311763,110.69905237297073 224.20843732878797,110.85489336676669 224.28246180069397,111.35358454545852 224.3422008483519,111.8418863258231 224.34739554797994,111.96655912061216 224.14610093154826,112.02889551816152 223.8551977437071,112.13278951289018 223.22534039488076,112.37174570290256 222.5941843712587,112.600312493504 222.31107323309428,112.69381708990542 221.78770723012417,112.78732168646167 221.37862462222253,112.84965808339176 221.4383636695684,113.11978247179178 221.54225766522595,113.46263265761652 221.58900996327185,113.71197824734948 221.61368478739533,114.31456342231812 221.45264909412612,114.38728921912359 221.45524644386273,114.73013940432908 221.45005174407987,115.74830056177312 221.40070209645216,116.56906312793225 221.38771534684014,117.14048010389399 221.3981047464059,117.35865749477486 220.68513220120593,117.37943629390638 220.03579472834863,117.37943629390638 219.74229419061362,117.49371968897488 219.39944400478888,117.69111828118866 219.23061626184534,117.81579107613256 219.12412491645117,117.93007447120105 218.95010247356993,118.15864126133805 218.8059495545951,118.36642925234352 218.64751121121972,118.52227024675874 218.5111503422264,118.6053854423559 218.51634504169965,118.73005823776423 218.56569468963698,119.04174022504652 218.69686085915464,119.76899819433979 218.7747813558978,120.37158336868916 219.11893021651346,120.78715935178383 219.2682778354236,121.0261155417962 219.37217183092875,121.26507173165376 219.4942472759812,121.4728597232785 219.63840019480367,121.71181591329089 219.7552809400708,121.8988251056293 219.8487855360078,122.08583429750327 219.8968365089994,122.49102088072256 219.60593332115826,122.66764067272115 218.76958665626734,123.11438485420345 217.92285059166068,123.60268663394878 217.41377001278383,123.86242162309266 217.26052636918894,124.018262616579 217.04624500330004,124.20527180845296 216.8774172602017,124.39228100079139 216.7761206145904,124.53773259486677 216.63456504535216,124.68318418894216 216.52287900002028,124.89097217994765 216.45794525273433,125.08837077216144 216.36444065679734,125.30654816242306 216.29431220957125,125.56628315156695 216.17743146445892,125.78446054244782 215.9813315476577,126.127310728737 215.88522960166964,126.75067470221789 215.76315415677442,126.75067470221789 215.40342119696496,126.75067470221789 215.37614902295002,127.49871147110711 215.70341510927133,127.49871147110711 215.515107242142,127.72727826186336 215.54237941615693,127.8103934583894 215.815101154758,128.53765142768268 215.9073070757493,128.79738641682655 215.9073070757493,130.1480083606844 215.8969176761835,130.8233193324585 215.91250177568696,131.4259045068079 215.8826322517806,131.97654268410258 215.77094620660114,132.5064020621109 215.76315415677442,133.62845721490288 215.6618575111631,133.597289015896 214.73070757508228,133.39989042476589 214.1670826484852,133.32716462796043 213.10216919299526,133.0778190376082 212.50607739291004,132.95314624312877 211.30999776790244,132.58951725832733 210.2723564864274,132.30900347005195 208.85420344570178,132.01810028190116 207.88928796087743,131.8207016901518 207.29839086072988,131.62330309902168 206.7594407581015,131.48824090482168 205.46596051216494,131.17655891753938 204.39195633205495,130.937602727527 202.91406424398346,130.59475254170226 200.47385402081937,130.03372496468702 199.6998437533254,129.87788397181995 199.36998031695785,129.77398997554315 199.0518049554114,129.68048537960615 198.58817799963475,129.55581258512672 197.6648201133806,129.36880339325273 197.08561108743734,129.25451999725536 196.2869259958199,129.17140480165818 194.5168320449591,129.18179420044987 193.8090541993872,129.18179420044987 192.106491345549,129.30646699539375 191.57273594301313,129.25451999725536 190.7259998782492,129.06751080538137 189.57926990133376,128.828554615369 188.97408737662852,128.75582881809908 188.3260485787145,128.70388182042512 187.78450112634948,128.68310302129362 187.4195734664475,128.63115602423892 187.16113715224935,128.599987825232 186.8040015421765,128.68310302129362 186.47154075607233,128.81816521611287 185.8884357054443,129.12984720324036 185.67155698950913,129.24413059846367 185.37935512672226,129.33763519440066 184.61443558384832,129.35841399353217 183.43523873313507,129.38958219238424 182.4430510744506,129.35841399353217 181.54696536190417,129.23374119812385 180.96515898637426,129.17140480165818 179.7768714110434,128.9012804121745 179.0223412674256,128.70388182042512 178.3093687222256,128.4960938289552 177.00420040193237,128.23635883981132 175.7574724538869,128.04934964793733 175.10943365597288,128.0181814493949 174.4613948582137,128.04934964793733 173.9549116293831,128.04934964793733 173.225056309734,127.94545565274423 172.66662608323185,127.87272985593876 172.67441813274894,127.95584505153592 172.1601428542416,127.92467685299346 171.609504677259,127.86234045559893 170.91211623156246,127.74805706053043 170.2471946591993,127.60260546645503 169.20176132804994,127.28053408038106 168.44723118474175,127.02079909123717 168.123861122948,126.89612629582885 167.336864105842,126.53249731180146 166.38363669568395,125.88835453872463 165.54469268090398,125.17148596822305 164.99665185365558,124.82863578301756 164.12004626529495,124.43383859951885 163.54473326465086,124.1844930097859 162.66553032624398,123.8728110225036 162.09411335012743,123.71697002963653 161.01231712050034,123.49879263829122 159.8759765429934,123.24944704840345 159.21235364557597,123.12477425407883 158.4461354276015,122.95854386087193 157.56693248934943,122.71958767085955 156.82019439556075,122.50141027951423 155.79943588807288,122.29362228850876 154.83581907834662,122.07544489762789 153.92025324176922,121.85726750721146 153.08910127650879,121.65986891515249 152.71638156693248,121.54558552008399 152.19301556380756,121.33779752892369 151.18004910614638,120.89105334697695 150.43460968730344,120.60015015990986 149.88656886036705,120.43391976670296 149.04762484527262,120.26768937349605 148.38270327337634,120.10145898028915 147.8606359450423,119.97678618534526 147.2528560702908,119.88328158894383 146.746372841615,119.87289218953289 145.40873764736918,119.95600738621376 144.18668452344718,120.07029078128225 143.42955703009272,120.16379537721923 142.66333881211827,120.33002577042615 141.79842129826912,120.61053955870155 141.11401960187496,120.87027454784543 139.43093687237737,121.60792191701407 138.8322477222459,121.80532050922787 137.6686349711909,122.12739189530186 136.2608713298762,122.48063148038273 135.25569692173454,122.63647247464313 134.30766421135934,122.72997707011568 133.07652036297213,122.79231346812946 131.99602280813355,122.79231346812946 130.88955175422578,122.79231346812946 129.6350317568156,122.70919827098416 128.54544347751178,122.66764067272115 127.49871147095229,122.64686187358963 126.75067470221789,122.64686187358963 126.04549420700187,122.64686187358963 124.8870761552653,122.64686187358963 123.43256021590472,122.64686187358963 121.56246829422352,122.67803007306097 120.46508796493578,122.68841947185265 119.44303078280939,122.64686187358963 118.52746494592236,122.62608307492256 118.08721413947829,122.66764067272115 117.00541790969399,122.83387106592805 115.10156043926928,123.10399545494732 113.81067754306933,123.31178344641724 112.30811063102675,123.50918203754735 111.04969460846979,123.7065806292967 109.99517055270042,123.85203222337209 108.9107769730271,124.0909884138489 108.0640409082608,124.27799760572289 107.03159432641382,124.62084779139282 106.5744607456754,124.81824638267773 105.9666808710787,125.00525557501615 105.34851159675901,125.14031776968059 104.8589111422252,125.27537996449986 104.41736166068058,125.44161035724233 103.96022807978734,125.68056654709989 103.25245023452264,126.13770012752869 102.75116170532255,126.5221079120809 102.04208518495972,127.16625068531256 100.6563990181867,128.599987825232 99.7226517320596,129.51425498639924 98.74734684766949,130.42852214895981 98.28631724224871,130.8233193324585 97.67723869254905,131.47785150448186 96.98504494648301,132.38172926732184 96.4512895436375,133.01548264067813 95.96688378903897,133.53495261896592 95.37209066389946,134.04403319784274 95.01625372877234,134.44921978013315 94.57989894685579,135.22842474756482 94.51756254961607,135.45699153816625 93.47472656804854,136.75566648388568 91.19425336351759,141.0360991051318 93.34875509846614,141.46206448701815 93.10070818383615,142.30360585230878 92.92408839106349,142.8334652300075 92.60591302936223,143.69578539458448 92.43708528641871,144.23603417200377 92.22669994521215,144.73472535116002 92.00852255448609,145.2541953294478 91.78644913861326,145.75288650844925 91.5539863234843,146.24118828788497 91.32801688277429,146.66715367023576 91.07217791846998,147.16584484939202 90.6475112112173,147.92427101707293 90.38258152244777,148.37101519917448 90.09687303423226,148.8489275790444 89.92804529144355,149.17099896573765 89.82804732046833,149.33722935848013 89.6501288532144,149.62813254647608 89.49039183458127,149.960593331961 89.26701974391753,150.33461171663785 89.0436476534086,150.6566831033311 89.024167529068,150.73979829939267 88.96962318134779,150.94758629132704 88.6371623952436,151.65406546148878 88.44625717837766,151.9969156468491 88.11509506706439,152.6410584205452 87.71640185872852,153.43065278676855 87.26965767740103,154.31375175047702 86.83719892047645,155.1033461176293 86.39045473930378,155.85138288620885 86.19954952212821,156.09033907622123 85.91903573385522,156.3812422642172 85.56319879872568,156.70331365091045 85.2709969359388,156.96304864005432 84.85152492847142,157.3162882251352 84.17881130658874,157.8565370025545 82.74117814167491,158.87469815999853 82.2450843125673,159.16560134753007 81.82561230525474,159.4876727342233 81.42042572188065,159.8305229194288 80.90744911832147,160.44349749365355 80.82043789695825,160.54739148993036 80.68147967776628,160.7240112823934 80.59187110682126,160.86946287600435 80.44771818769159,161.0564720688072 80.33862949209635,161.23309186142507 80.2490209208417,161.36815405516063 80.15421764980418,161.55516324749902 80.080193178053,161.70061484111 79.98798725675209,161.8772346346567 79.89188531076886,162.06424382653069 79.81656216391713,162.17852722159918 79.73474564249162,162.37592581365817 79.67370791988799,162.5733244049431 79.60877417260201,162.76033359681705 79.57890464885047,162.95773218903085 79.52436030113026,163.11357318236236 79.49708812742496,163.33175057324323 79.43994642965849,163.46681276744326 79.40228485623263,163.70576895745563 79.3477405085124,163.92394634880094 79.31527363486943,164.13173433980643 79.26852133697834,164.3706905298188 79.22176903877762,164.5369209230257 79.17891276556888,164.6823725171011 79.12956311778393,164.85899230909968 79.08281081958565,165.03561210218197 78.98800754870294,165.34729408946427 78.91658042653356,165.55508208046973 78.85164667924758,165.74209127280815 78.78151823233354,165.89793226567522 78.74515533369616,166.04338385975063 78.68022158641261,166.20961425295752 78.62048253906433,166.417402243963 78.55554879177836,166.5940220370453 78.5061991436862,166.74986303037682 78.46204419553175,166.9057040243276 78.38282502399767,167.14466021372073 78.32308597633735,167.31089060739205 78.26854162861954,167.50828919867698 78.2256853554108,167.75763478840992 78.1789330573649,168.01736977755382 78.1386741340476,168.1939895697072 78.10620726040703,168.44333515944015 78.0516629126844,168.7861853452649 77.99711856496177,169.10825673226776 77.9451715671354,169.430328118961 77.89322456946144,169.65889490863356 77.82829082217548,169.92901929811728 77.771149124409,170.23031188505973 77.69192995272012,170.68744546626263 77.66206042896857,170.926401656275 77.6231001807518,171.19652604482982 77.58543860717113,171.4147034357107 77.52050485988515,171.73677482178468 77.49323268618227,171.95495221312999 77.46336316242831,172.2042978023985 77.44907773787058,172.36013879634928 77.38674134063086,172.64065258462466 77.36466386655363,172.87960877463703 77.27765264519043,173.43024695084802 77.22830299709827,173.67959254120024 77.17375864937806,173.99127452786325 77.11921430165783,174.3133459145565 77.08934477790388,174.52113390556198 77.02181368072888,174.86398409185117 77.00493090643452,175.04060388384977 76.99973620664923,175.21722367693204 76.9698666829001,175.3418964717211 76.96207463322578,175.56007386213753 76.95038655871431,175.6847466570814 76.91791968507133,175.97564984461295 76.87246606197114,176.7444654127885 76.85038858789392,176.97303220292548 76.82311641418862,177.12887319687627 76.7958442401737,177.3470505876023 76.75428664191068,177.56522797801873 76.72701446820538,177.76262657023253 76.63480854690448,178.29248594777644 76.59974432337006,178.5106633386573 76.5828615490757,178.6872831317396 76.56078407499848,178.8223453259396 76.55039467543273,178.967796920015 76.5075384022264,179.19636371015199 76.46857815416203,179.4145411014973 76.43351393047278,179.54960329523286 76.37896958275257,179.79894888558508 76.29975041090887,180.03790507544264 76.25689413770013,180.2041354681851 76.21014183965423,180.34958706179603 76.17248026638318,180.4846492564605 76.1205332685544,180.61971145081532 76.09585844443092,180.7339948458838 76.05430084632029,180.88983583921532 75.98417239909904,181.1080132300962 75.86469430409285,181.43008461663462 75.78287778266734,181.71059840552928 75.68937318673036,181.97033339467316 75.62184208939813,182.27162598208008 75.52963616809966,182.51058217209246 75.4530143462998,182.739148961765 75.33873095107649,183.09238854731032 75.2465250299304,183.2793977391843 75.14003368438141,183.51835392919668 75.03094498894339,183.73653132054199 74.93484304296015,183.96509811067898 74.84783182159453,184.1521073030174 74.75562590060326,184.34950589523118 74.63095310565939,184.65079848217366 74.55952598364482,184.79625007624904 74.45822933787869,184.99364866846284 74.36082871694974,185.2118260591889 74.23485724721495,185.41961405019438 74.0582374545971,185.67934903933826 73.94135670948236,185.85596883149168 73.7504514926164,186.05336742416992 73.57642904989001,186.25076601576447 73.43227613075791,186.4066070092508 73.21409873987946,186.63517379892335 73.06215377123029,186.77023599405223 72.8413790306128,186.93646638633027 72.71021286109513,187.04036038260708 72.56346259207402,187.16503317755095 72.42710172277349,187.26892717274407 72.28814350373632,187.37282116855644 72.07516081248352,187.5494409614839 71.73750532675128,187.7987865509072 71.60504048213308,187.8922911468442 71.4271220145695,187.99618514250176 71.24790487206023,188.131247337321 71.10894665302305,188.2039731341265 70.91804143584748,188.32864592891556 70.75440839299647,188.411761125132 70.59726872425479,188.50526572153342 70.43623303098558,188.61954911613748 70.29467746190215,188.681885513532 70.11416164460196,188.77539010993343 69.93754185182931,188.8585053066143 69.75832470947483,188.93123110341978 69.60248371583127,189.01434629948136 69.39339704957285,189.10785089634723 69.12846736080091,189.15979789355677 69.04405348932914,189.19096609256366 68.90509526998234,189.20135549181978 68.72587812747307,189.21174489169516 68.59730930800166,189.2221342909513 68.44276698930622,189.2221342909513 68.31160081978857,189.2221342909513 68.02329498199366,189.18057669268828 67.8194030155157,189.15979789355677 67.59343357496051,189.11824029575817 67.3726588340334,189.05590389820884 67.26616748863923,189.03512509907733 67.15188409326109,189.00395690068967 67.01552322396056,188.95200990255128 66.83241005661411,188.87928410528136 66.60124591627606,188.79616890906493 66.14930703516568,188.57799151833888 65.97528459243928,188.4844869224019 65.72983502785311,188.35981412699357 65.53113776100322,188.25592013164567 65.33244049461779,188.1520261359881 65.14672997722508,188.05852154005112 64.98309693406443,187.94423814498262 64.82335991574094,187.86112294783732 64.67531097177411,187.74683955276882 64.49349647937339,187.5806091595619 64.25324161441529,187.38321056781257 64.180515817455,187.31048477147152 64.04415494830927,187.18581197668246 63.97662385113186,187.14425437780017 63.83376960694791,187.00919218360016 63.65714981433007,186.84296179039328 63.5727359428583,186.78062539346317 63.420790974209126,186.64556319926317 63.23508045697125,186.4897222053124 63.16754935994865,186.4273858083823 63.071447413810596,186.3131024133138 62.98443619244739,186.2611554151754 62.892230271301315,186.1572614188986 62.748077352326455,186.05336742416992 62.668858180792384,185.99103102662056 62.57924960938293,185.93908402848217 62.47795296361681,185.85596883149168 62.30912522082809,185.74168543688762 62.14029747772975,185.64818084095063 62.02601408250403,185.56506564380533 61.867575739285904,185.45078224873683 61.68056654694507,185.31572005453683 61.54420567779934,185.19104725959295 61.375377934701,185.07676386406 61.07538402239462,184.93131227044907 60.88707615511049,184.83780767404764 60.72993648683325,184.76508187724215 60.658509364663864,184.73391367931896 60.54942066922585,184.69235608090113 60.30137375459102,184.60924088437508 60.19877843403158,184.58846208524358 60.08189768891925,184.55729388577222 59.92345934538666,184.53651508710516 59.822162699775355,184.52612568722978 59.724762078846396,184.51573628797365 59.607881333576834,184.50534688809827 59.4845072138883,184.49495748930659 59.33515959513056,184.49495748930659 59.11438485420344,184.48456808896677 58.983218684688204,184.49495748930659 58.831273716036605,184.48456808896677 58.68971814695319,184.49495748930659 58.49621558004099,184.50534688809827 58.35206266137334,184.51573628797365 58.270246139485806,184.52612568722978 58.15856009415635,184.54690448636129 57.815709908484,184.59885148403527 57.71960796250076,184.6196302836312 57.610519267060326,184.66118788204903 57.44558754895396,184.71313488003264 57.3339015037769,184.76508187724215 57.23000750796453,184.79625007624904 57.101438688338305,184.83780767404764 56.9196241960924,184.91053347131754 56.83001562468294,184.97286986917652 56.75079645299405,185.00403806725453 56.68456403091718,185.04559566551757 56.597552809553974,185.09754266319152 56.500152188625016,185.17026846046144 56.353401919603904,185.25338365760675 56.20795032583814,185.3468882535437 56.048213307357415,185.4403928494807 55.892372314028314,185.54428684467382 55.74302469527058,185.62740204181912 55.57419695217224,185.73129603747668 55.44562813254601,185.82480063294923 55.27160568981961,185.91830522935064 55.132647470627624,186.02219922469857 54.95862502790122,186.10531442122462 54.707980763377364,186.2299872161685 54.522270246139485,186.30271301297398 54.28591140601855,186.41699640804248 54.087214139478284,186.51050100490835 53.86124469876829,186.6040056003809 53.67553418168522,186.6975101967823 53.48982366444734,186.77023599405223 53.278139648140254,186.8845193886563 53.141778778839715,186.98841338446866 53.04957285769122,187.05074978232764 52.759968344798196,187.2377589742016 52.221018242324625,187.5806091595619 51.79375418549256,187.8922911468442 51.35739940357601,188.17280493511961 50.949615470774916,188.45331872293056 50.52235141332359,188.7234431124143 50.06911385742232,189.02473569982118 49.41588035957063,189.41953288270065 49.0860169235127,189.62732087463502 48.80550313523488,189.80394066725285 48.56394959517867,189.95978166011994 48.415900651523884,190.06367565639675 48.199021935586316,190.24029544839533 48.01331141834844,190.3649682433392 47.70812280594956,190.6766502306215 47.402934193705484,190.9987216166955 46.96787808688947,191.44546579864223 46.62762525126579,191.88182058040397 46.365292912075645,192.23506016548484 46.199062519023556,192.5051845543493 45.8679004078651,193.09738032897812 45.76140906231853,193.315557719859 45.62245084327894,193.65840790614817 45.50816744790082,194.08437328849897 45.4536231001806,194.38566587544145 45.39128670278606,195.00902984938676 45.35492380430592,195.34149063580057 45.31206753109718,195.79862421622937 45.26531523320609,196.28692599551027 45.2458351090203,196.78561717466653 45.23544570960936,197.18041435893932 45.24323775912886,197.5856009412297 45.26791258325235,198.12584971911343 45.284795357237066,198.4167529067998 45.317262230880054,198.67648789594367 45.37700127838315,198.84271828868614 45.48868732371502,199.15440027643288 45.69517664008441,199.47647166250684 46.025040076451965,199.9024370443932 46.3276313388046,200.3491812258755 46.51853655567054,200.66086321269336 46.63801465067673,200.92059820183724 46.749700696163416,201.15955439231408 46.83671191752904,201.40889998158258 46.871776140906235,201.59590917438544 46.905541689492516,201.88681236160733 46.95619001268762,202.2400519466882 46.97307278667235,202.54134453455956 47.03281183417544,202.82185832283494 47.141900529615874,203.29977070239528 47.20163957727379,203.6010632902666 47.288650798636986,203.88157707869684 47.36527262043443,204.19325906582432 47.432803717457034,204.39065765710924 47.469166615937176,204.5984456481147 47.449686491751386,204.80623363958463 47.422414317891274,205.0867474284793 47.370467320062495,205.30492481874091 47.350987195876705,205.5127128108301 47.36007792049674,205.7412796009671 47.36786997017106,206.09451918604796 47.384752744465416,206.29191777826176 47.357480570605304,206.57243156653715 47.34838984598527,206.75944075841113 47.3302083967452,207.07112274569343 47.291248148528425,207.5386457258428 47.248391875474496,208.06850510385115 47.22891175097908,208.40096588933608 47.21852235141333,208.62953268055676 47.20163957727379,209.02432986390065 47.19125017770803,209.2528966535732 47.20683427690185,209.53341044184862 47.22371705135102,209.94898642540772 47.22371705135102,210.2398896124748 47.204236927165226,210.5204034007502 47.1769647531503,210.76974899063796 47.12501775532152,211.0502627784489 47.044499908686916,211.45544936213264 46.93800856314034,211.88141474448344 46.78995961948072,212.34893772416837 46.65749477486252,212.71256670958905 46.47438160751608,213.13853209193985 46.30815121446399,213.53332927528376 46.019845376514276,214.04240985416058 45.81855076008257,214.34370244172231 45.56530914551247,214.79044662274018 45.284795357237066,215.2683590026101 45.101682190045445,215.53848339116496 44.84844057547534,215.95405937364035 44.627665834857844,216.43197175366512 44.374424220287736,216.8683265358913 44.12118260587245,217.26312371923518 43.84066881759705,217.73064669938455 43.63158215149103,218.13583328260384 43.37834053692092,218.56179866495464 43.13289097233476,218.95659584829852 42.899129481950446,219.36178243105337 42.59394086986119,219.78774781340417 42.313427081740606,220.25527079401797 42.05109474255046,220.63967857810576 41.84980012580913,220.90980296650577 41.64071345970312,221.21109555453194 41.39526389480733,221.57472453933337 41.25630567561535,221.80329132962518 40.986181286905705,222.05263691889368 40.682291349607354,222.3954871051829 40.30567561534871,222.79028428852678 40.02516182707331,223.08118747605832 39.83165926031593,223.23702846954464 39.50569184878554,223.49676345868852 39.181023112355675,223.7772772464995 38.92778149794038,223.9954546378448 38.56285383819322,224.2655790262448 38.07585073354843,224.6499868103326 37.683650899941156,224.9616687976149 37.29924311616301,225.25257198576566 36.89016050826139,225.53308577404107 36.420040177756135,225.79282076318495 35.99407479556015,226.00060875419044 35.58629086260425,226.20839674519593 35.159026805617366,226.36423773852744 34.88111036707859,226.45774233492887 34.62786875281811,226.5304681321988 34.12398287372415,226.63436212708226 33.670745317668064,226.7278667234837 33.17595016350377,226.82137131942068 32.6642722347355,226.9252653156975 32.09934863334754,227.02915931135504 31.620137578534294,227.1018851076961 31.03833120269475,227.2057791039729 30.525354599290385,227.30967309963046 29.969521722370065,227.41356709451392 29.465635843585734,227.5278504900469 28.92668574095493,227.63174448585926 28.404618412930528,227.71485968192084 27.883849759697032,227.81875367819765 27.33710760739433,227.88109007512776 26.995556096670118,227.92264767339077 26.587772163869026,227.96420527227306 26.250116677981968,227.98498407140457 25.694283801059232,228.03693106907852 25.11897080010552,228.04732046833465 24.686512043180944,228.04732046833465 24.468334652300076,228.05770986821003 23.921592500152187,228.04732046833465 23.294332501367276,228.00576287007164 22.774862523081918,227.97459467106472 22.202146872172037,227.91225827413464 21.663196769700885,227.83953247686472 21.1242466670725,227.75641728064832 20.655425011825017,227.6629126842469 20.171019257224057,227.59018688806066 19.63986120426999,227.4966822915044 19.258050770228472,227.42395649485377 18.95286215782959,227.33045189891678 18.503520626765475,227.16422150570986 18.00872547229155,226.95643351408512 17.619122988575718,226.79020312134267 16.881475619407073,226.4681317343398 16.382784440405622,226.29151194234123 15.878898561311662,226.1148921487945 15.358129908078164,225.96944055518355 14.941255250657036,225.86554655999043 14.473732270043222,225.77204196405344 13.933483492778747,225.6785373674972 13.414013514490968,225.62659036997806 12.945191858931434,225.54347517283276 12.441305980147103,225.4707493764917 12.041314096865515,225.43958117763964 11.537428217771556,225.36685538083415 10.981595341156027,225.31490838269576 10.393295590592723,225.25257198576566 10.028367931000373,225.24218258542584 9.472535054077637,225.1590673892094 8.968649175293306,225.11750979048196 8.186846857970199,225.02400519454497 7.7712708751827435,224.98244759628196 6.934924210299073,224.88894300034497 6.957001684528699,223.87078184290093 6.937521560033279,223.48637405881314 6.940118909922298,222.67600089345828 6.902457336651248,222.17730971383756 6.890769262142193,221.9487429230813 6.964793734048201,221.76173373120736 6.989468558171684,221.55394573973743 7.029727481334174,221.16953795564964 7.073882429488634,220.76435137304964 7.081674479008137,220.58773157996734 7.111544002759684,220.35916478983034 7.101154603193929,220.01631460447004 7.094661228622565,219.64229621932878 7.08427182905439,219.35139303164243 7.103751953085368,218.83192305335464 7.158296300805584,218.59296686396152 7.201152574014326,218.41634707087925 7.22582739813781,218.32284247447782 7.22582739813781,218.21894847959433 7.1764777500432375,218.15661208173535 7.106349303131621,218.07349688567376 7.076479779225259,217.99038168852846 7.171283050415174,217.91765589172297 7.2401128223859095,217.84493009445305 7.2855664454885085,217.67869970217504 7.345305493143998,217.47091171024067 7.299851870043818,217.2111767210968 7.228424747874435,216.8891053350228 7.141413526511231,216.44236115400494 7.089466528682454,216.17223676452122 6.719344169152412,216.1202897673117 5.570016842345517,215.91250177537734 5.50768044479375,215.46575759389503 5.4011890992471745,214.7592784237333 5.324567277449727,214.21902964677844 5.749233984699986,214.1463038495085 6.441427730766032,214.13591444963313 6.67648789594367,213.62683387122075 6.880379862576437,213.1800896902029 6.689474645400864,213.1800896902029 6.172602017002106,213.20086848886996 5.425863923215844,213.20086848886996 5.480408270936061,212.99308049786447 5.659625413445344,212.4632211197013 5.73884458513423,212.22426493015337 5.773908808823469,212.07881333561355 5.7804021833972525,211.922972342282 5.776506158714908,211.30999776759282 6.314157586087945,210.94636878356545 6.2674052880420446,210.5931291980201 6.220652990150959,210.17755321508028 6.24013311433675,210.09443801886385 6.436233031142805,209.75158783272948 6.6050607739291,209.43990584591162 6.719344169152412,209.2321178544417 6.811550090298493,209.08666626083075 6.763499117306873,208.40096588933608 6.907652036281731,208.09967330192916 7.046610255473712,207.80877011470724 7.034922180962237,207.4451411299058 7.014143381830726,206.9776181491372 7.179075099937095,206.66593616247414 7.359590917392098,206.34386477531646 7.479069012398288,206.15685558297804 7.724518577294076,205.80361599789717 7.92841054377203,205.52310220962178 8.037499239212464,205.48154461182318 8.775146608535922,205.40881881455329 9.46214565451188,205.33609301728336 9.325784785363734,205.1698626245409 8.920598202146872,204.65039264625312 8.606318865282766,204.2555954629092 8.492035470214269,204.13092266796534 8.143990584761458,203.77768308242003 7.814127148393904,203.89196647795296 7.40244719060084,204.04780747190375 7.237515472649284,204.04780747190375 7.029727481334174,203.7672936830091 6.76869381708975,203.35171770053367 6.607658123975353,203.05042511359122 6.431038331202695,202.6764067293788 6.379091333373917,202.5517339339705 6.229743714770994,202.3231671438335 5.9972808993324,201.92836995987034 5.8102717071488,201.61668797367176 5.755727359738211,201.53357277652646 5.559627442779761,201.32578478552097 5.286905704178677,201.02449219811405 5.237556056086524,200.92059820183724 5.202491832706913,200.78553600810167 5.120675310971774,200.55696921780986 4.973925042260291,200.11022503586312 4.832369473176871,199.67387025472064 4.524583510886549,199.39335646644525 4.172642600748974,199.06089568003145 3.9271930358556038,198.82193949001905 3.7349891438891256,198.64531969740122 3.5544733264341226,198.45831050552724 3.4427872810998315,198.31285891098742 3.8739473630811063,198.1050709195175 4.05056715570137,198.02195572345587 4.396014691260324,197.81416773245041 5.183011708366307,197.59599034156955 5.3115805281473465,197.30508715295431 4.214200198859601,197.2635295551557 3.470059455117173,197.22197195735714 2.958381526348897,197.20119315822564 3.333698585661817,197.1076885616694 3.750573243390154,197.01418396526796 4.209005499076723,196.88951117094334 4.597309308001652,196.80639597379803 4.973925042260291,196.71289137786104 5.2843083541348435,196.62977618179946 5.415474523650088,196.5674397842501 5.5297579188734,196.46354578859254 5.589496966531308,196.38043059237614 5.634950589631488,196.27653659671859 5.629755889696216,196.17264260044178 5.584302266593617,196.0375804067062 5.534952618656277,195.86096061408836 5.518069844361924,195.7362878192993 5.512875144579047,195.63239382302248 5.532355268764839,195.5388892270855 5.572614192082141,195.43499523127312 5.627158539802358,195.34149063580057 5.662222763336783,195.2168178410115 5.65702806370872,195.1233132450745 5.621963840174295,195.0194192487977 5.592094316420328,194.91552525298533 5.520667194250945,194.81163125779221 5.408981149076305,194.64540086458533 5.272620279620949,194.45839167271134 5.172622308800552,194.28177187962908 5.107688561514579,194.13632028555367 5.088208437328788,194.02203689048517 5.096000487003105,193.90775349495223 5.172622308800552,193.74152310220978 5.246646780858955,193.57529270900287 5.299892453635872,193.4402305152673 5.3115805281473465,193.34672591886587 5.299892453635872,193.23244252379737 5.229764006412208,193.09738032897812 5.170024959061508,193.0142651329165 5.003794565857024,192.85842413896574 4.8427588727426265,192.69219374622327 4.701203303504393,192.53635275242732 4.616789432187443,192.4324587570794 4.576530508715327,192.33895416067796 4.564842434358665,192.18311316734645 4.579127858606765,192.01688277413953 4.631074856435543,191.80909478313404 4.668736429861407,191.64286438992715 4.688216554047199,191.49741279585177 4.708995353181129,191.39351880050384 4.718086077798746,191.22728840791618 4.701203303504393,191.07144741350098 4.646658955784177,190.91560642063388 4.581725208498204,190.79093362522556 4.492116637243562,190.6766502306215 4.440169639412366,190.6039244333516 4.631074856435543,190.46886223961604 4.881719120961815,190.2922424460693 5.066130963251557,189.87666646405833 5.368722225604189,189.1701872938966 5.0583389135772405,189.07668269749516 5.076520362817313,188.97278870121835 4.742760901767415,188.86889470633486 4.772630425516544,188.7442219115458 4.815486698727704,188.55721271920737 4.5895172581725205,188.2870883301881 4.1752399506428315,187.78839715103183 3.931089060692762,187.50788336275644 3.698626245563795,187.19620137547415 3.450579331086195,186.75984659433166 3.380450883707717,186.56244800211786 3.203831091089872,186.074146222837 2.8687729550942556,186.18842961790548 2.2311235567460077,186.4273858083823 1.6350317566607822,186.6975101967823 1.0025770582502262,186.97802398505772 0.6519348227511617,186.3650494103685 0.27272173860108356,185.6689596396177 0,185.19104725959295 0.6753109717741117,184.83780767404764 1.1830928755504149,184.56768328611204 1.5934741583977599,184.31833769575985 1.9285322943933767,184.05860270661597 2.1986566831030214,183.85081471561048 2.389561900278594,183.5703009277995 2.62332339035328,183.2170613422542 2.9090318785663722,182.77031716123633 3.2765568882049756,182.21967898347722 3.581745500294231,181.77293480245936 3.9414784602560986,181.20151782603318 3.58434285018567,180.95217223722912 3.5440839270231814,180.85866764129213 3.5440839270231814,180.7339948458838 3.74797589334632,179.86128528251515 3.827195065187601,179.5911608934959 4.080436679450498,178.9366287210081 4.373937217183093,178.2509283495134 4.549258334857637,177.85613116663396 4.64925630583043,177.59639617749008 4.753150301333171,177.28471418974334 4.823278748556835,177.12887319687627 4.892108520525151,176.8795276069885 4.946652868245368,176.7548548120446 5.031066739717132,176.56784562017063 5.088208437328788,176.40161522742818 5.17781700858343,176.18343783670213 5.262230880055194,175.98603924402389 5.314177877883972,175.8821452491404 5.35183945146465,175.77825125348284 5.393397049572858,175.66396785841434 5.499888395121852,175.30033887299365 5.542744668330594,175.11332968065523 5.559627442779761,175.01982508471824 5.540147318441574,174.92632048878127 5.510277794687608,174.84320529256485 5.472616221416558,174.69775369864428 5.453136097075952,174.5419127046935 5.45833079685883,174.40685051049348 5.4959923705943226,174.27178831629348 5.53754996870253,174.1782837203565 5.627158539802358,174.06400032513318 5.711572411428936,173.9808851281427 5.850530630620916,173.8562123331988 6.044033197533114,173.71076073958787 6.234938414399059,173.5445303468454 6.41935025669122,173.37829995317406 6.52324425250359,173.27440595798095 6.689474645400864,173.11856496403016 6.831030214484284,172.9315557721562 6.9699884336762645,172.78610417870007 7.106349303131621,172.5990949857424 7.212840648680615,172.43286459299992 7.26738499640325,172.2354660014054 7.321929344121049,172.0068992112684 7.40244719060084,171.7471642221245 7.4842637123335605,171.5185974309038 7.585560357944863,171.25886244175993 7.68296097887624,171.03029565162294 7.814127148393904,170.71861366434064 7.95048801784926,170.53160447200221 8.173860108355772,170.27186948285834 8.305026277875855,170.11602848999124 8.530995718431038,169.90824049883096 8.789432032629207,169.7004525068966 9.13487956819058,169.4718857167596 9.454353604992379,169.29526592414175 9.869929587467787,169.05630973412937 10.093301678288764,168.9524157384718 10.249142671617864,168.84852174312388 10.360828716952156,168.77579594585396 10.464722712607292,168.66151255032102 10.633550455705635,168.44333515944015 10.884194720229488,168.07970617510315 11.0906840366013,167.78880298695236 11.167305858241512,167.69529839055096 11.25171972986809,167.72646659002228 11.360808425308525,167.65374079275236 11.475091820377022,167.58101499548246 11.575089791352234,167.50828919867698 11.686775836529291,167.44595280174687 11.7932671822331,167.37322700447697 11.894563827844403,167.3005012076715 12.003652523282417,167.22777541040156 12.108845193888111,167.15504961313167 12.23741401366915,167.0719344175345 12.384164282380633,166.97842982097825 12.252998112860551,166.88492522457682 12.101053144213795,166.77064182997276 12.349100058848627,166.6148008361768 12.572472149664767,166.4797386419768 12.714027718748186,166.3758446457 12.793246890282258,166.31350824923433 12.847791238004895,166.251171851685 12.947789208822872,166.10572025714515 13.089344778061106,165.8563746674122 13.185446723889532,165.70053367454514 13.299730119112843,165.5862502788574 13.446480388133955,165.46157748453277 13.582841257277263,165.30573649058198 13.729591526300794,165.1291166985834 13.801018648160548,165.0148333035149 13.893224569461443,164.80704531142572 13.98283314056127,164.55769972169276 14.051662912684401,164.3395223308119 14.143868833830483,164.1213449403955 14.208802581116455,163.9966721456064 14.334774051006056,163.85122055153101 14.511393843469085,163.67460075937763 14.633469288366713,163.5187597651172 14.764635457884378,163.37330817150627 14.933463200827905,163.18629897916784 15.19189951518089,162.91617459123228 15.278910736544091,162.82266999467603 15.682798644508026,162.62527140308148 16.13993222540127,162.38631521260467 16.33603214235972,162.28242121725674 16.53992410868286,162.1369696238006 16.763296199346605,161.98112862938538 17.052900712396855,161.79411943751143 17.474970069755674,161.53438444836752 18.17495586534364,161.12919786514826 18.545078225026078,160.9110204742674 18.991822406203593,160.63050668599197 19.39181428979239,160.38116109672347 19.748949899865238,160.15259430658648 20.00219151397332,159.9967533126357 20.19829143077454,159.8616911184357 20.40218339725249,159.70585012494936 20.674905135853574,159.4876727342233 21.004768572066315,159.2383271448 21.38787768105355,158.95781335606014 21.660599419809447,158.76041476493003 21.97358008157302,158.56301617271626 22.25149651995698,158.39678577950934 22.45279113669831,158.27211298456547 22.65148840323857,158.12666139095452 23.14758223250582,157.76303240615306 23.324202025121245,157.63835961120918 23.6540654614888,157.45135041887076 23.93717659981045,157.2955094260037 24.14236724107931,157.16044723164887 24.354051257076765,157.02538503652 24.631967695460727,156.82798644523507 24.85014508634159,156.6721454514391 25.056634402710984,156.5059150582322 25.28779854320386,156.3292952660788 25.46571701061261,156.18384367262266 25.683894401493475,156.05917087721434 25.967005539657897,155.90332988434727 26.33453054929892,155.7163206913896 27.007244171336406,155.37347050571967 27.394249305005985,155.18646131384568 27.704632617032935,155.03062032035936 27.846188186116354,154.9578945237087 27.987743755202192,154.8643899277717 28.142286073740387,154.77088533121545 28.240985369769877,154.75010653208395 28.363060814667506,154.729327732488 28.695521600771684,154.594265538288 29.259146527213925,154.37608814740713 29.43966234451411,154.40725634641402 29.601996712729044,154.43842454542093 29.83445952816764,154.37608814740713 30.024066070087862,154.24102595320713 30.15782958965178,154.15791075652626 30.353929506453,154.03323796220164 30.527951949339055,153.91895456713314 30.666910168373803,153.81506057085633 30.787686938480526,153.74233477405085 30.931839857145757,153.63844077823848 31.048720602260506,153.55532558171242 31.26170329351089,153.40987398763704 31.41624561189911,153.30597999290836 31.500659483525688,153.25403299476997 31.672084576360653,153.1916965972206 31.843509669040806,153.12936019936166 31.960390414155558,153.07741320168768 32.06947910959599,153.03585560342466 32.58245571330998,152.67222661893285 32.79413972930744,152.50599622619038 32.99803169578539,152.3605446322698 33.109717741117265,152.26704003633282 33.24867596030925,152.163146040056 33.43178912765569,152.01769444598062 33.586331446196304,151.90341105091213 33.72009496576022,151.80990645497513 33.840871735557315,151.71640185903814 33.96294718045494,151.62289726310115 34.02788092774092,151.57095026449832 34.205799395459294,151.42549867088735 34.290213266931055,151.36316227395727 34.3798218381857,151.29043647668735 34.561636330586424,151.15537428248734 34.69799719973215,151.05148028621053 35.13954668127676,150.79174529706665 35.40058034536637,150.61512550491324 35.53953856455835,150.53201030792275 35.68369148353321,150.43850571198575 35.907063574196954,150.31383291704188 35.83433777723666,150.16838132389537 35.70836630765669,150.08526612690488 35.63174448570443,150.0333191287665 35.4694101174895,149.919035733698 35.36032142204907,149.83592053748157 35.26681682611208,149.732026541824 35.16941620518312,149.58657494774863 35.02266593616201,149.29567176006228 34.89929181647348,149.06710496946084 34.83695541892413,148.9736003730594 34.72786672348369,148.73464418304704 34.621375377934704,148.48529859424298 34.523974757005746,148.23595300389078 34.45904100971977,148.05933321189218 34.38241918792232,147.83076642160037 34.330472190093545,147.61258903087432 34.27592784237333,147.40480103878514 34.208396745198336,147.1970130473152 34.1473590227471,146.93727805817133 34.11748949915037,146.79182646502483 34.082425275461134,146.60481727222196 34.06684117642212,146.44897627889046 34.04736105192671,146.26196708701647 33.698017491685405,146.27235648673704 33.64736916864511,146.12690489281647 33.52918974858465,145.83600170466568 33.39412755438464,145.5139303185917 33.34218055640105,145.3892575236478 33.611006270319784,145.22302713044093 33.82398896126296,145.10874373537243 34.107100099587036,145.04640733735863 34.22398084454455,145.0360179381025 34.578519104725956,144.70355715215314 34.790203121033045,144.51654795981472 34.872019642458554,144.41265396400235 35.04734076013068,144.23603417200377 35.46291674307053,143.82045818844466 35.81485765305087,143.47760800323917 36.09017674169821,143.2178730140953 36.29406870817616,143.0100850230898 36.41354680318235,142.88541222814592 36.59665997052879,142.6984030358075 36.80314928689818,142.490615044802 36.96937967979546,142.32438465159512 37.108337898987436,142.16854365764434 37.277165642085784,141.97114506651423 37.51092713216047,141.71141007737035 37.84338791841946,141.30622349415106 38.26285992588926,140.82831111366187 38.31740427360706,140.7140277190578 38.407012844706884,140.50623972758788 38.53558166448792,140.20494714002618 38.71220145695096,139.82053935655765 38.890119924669335,139.39457397420685 38.91089872364603,139.28029057913835 38.87843185000305,139.11406018593146 38.87323715022016,138.82315699778067 38.84856232640631,138.62575840556687 38.82648485232908,138.5426432095053 38.639475659990666,138.1062884272791 38.486232016395775,137.74265944340652 38.329092348118536,137.35825165885433 38.23299040213529,137.22318946511876 38.1329924313149,137.07773787104335 38.014813011254425,136.94267567684335 37.87975081674479,136.75566648388568 37.61482112797284,136.39203749954868 37.440798685246435,136.16347070941168 37.27197094214809,136.00762971499648 37.13301272295611,135.934903918191 36.8576936346184,135.7686735249841 36.69406059145775,135.66477953025543 36.54211562280857,135.571274933854 36.28108195856415,135.40504454111152 35.896674174631194,135.1660883506347 35.435644568898375,134.88557456282376 34.990199062519025,134.61545017334004 34.64605020190337,134.38688338320304 34.38241918792232,134.18948479098924 33.92788295692052,133.86741340491528 33.804508837231985,133.7739088089783 33.70970556634928,133.8881922040468 33.5928248209249,134.0232543982468 33.40191960390414,133.90897100271386 33.0720561676914,133.7011830121728 32.803230453927476,133.52456321955498 32.5110285911406,133.3479434266275 32.396745196072104,133.2544388306905 32.240904202430954,133.09859783673974 32.13571153182768,132.98431444167124 31.92013149099065,132.79730524933282 31.775978571863394,132.66224305559726 31.443517785759216,132.39211866611353 31.146121223191884,132.12199427817797 30.90456768344046,131.89342748742172 30.651326068870357,131.66486069682028 30.527951949339055,131.52979850262028 30.403279154237943,131.39473630826544 30.20198453780624,131.166169517664 30.053935593839412,130.98954972566543 29.73576023229296,130.63631014012012 29.482518617722853,130.32462815330226 29.303301475368386,130.12722956108846 29.182524705416476,129.97138856775695 29.112396258190394,129.86749457194458 29.251354477384794,129.82593697368154 29.39550739635965,129.76360057675146 29.55394574004705,129.68048537960615 29.70848805827804,129.56620198453766 29.792901929749803,129.4830867878568 29.986404496816814,129.30646699539375 30.133154765528296,129.16101540131837 30.283801059231752,129.01556380724298 30.450031452441074,128.828554615369 30.59678172115014,128.63115602423892 30.666910168373803,128.54804082709362 30.7734015139228,128.44414683128124 30.94222925671151,128.27791643853877 31.04092855258619,128.19480124154828 31.1409265235614,128.1012966456113 31.294170167158715,127.92467685299346 31.405856212333354,127.85195105680724 31.56559323081166,127.70649946273184 31.773381221971956,127.55065846924552 32.04480428562732,127.34287047731115 32.13571153182768,127.25975528124954 32.46427629324952,127.05196729008925 32.639597410766825,126.91690509496036 32.87855360078162,126.76106410209327 33.15387268942654,126.63639130668496 33.3993222540127,126.5221079120809 33.51620299912745,126.44938211481099 33.73438039000832,126.355877518874 33.957752480826876,126.3247093198671 34.18112457133581,126.30393052073559 34.44475558547167,126.30393052073559 34.594103204229405,126.27276232265758 34.709685274243625,126.27276232265758 34.88630506701628,126.27276232265758 35.107079807633774,126.3247093198671 35.283699600251616,126.39743511667258 35.479799517055255,126.53249731180146 35.64343256037072,126.65717010581646 35.839532477171936,126.80262169989186 35.98628274588584,126.91690509496036 36.06550191772954,126.97924149281933 36.18757736262717,127.05196729008925 36.32393823177289,127.10391428729876 36.46289645096488,127.12469308643028 36.675879142060445,127.15586128497273 36.966782330058834,127.18702948444407 37.30184046605445,127.16625068531256 37.571964854761674,127.12469308643028 37.82260911913313,127.05196729008925 38.29272944948357,126.86495809728639 38.55506178867372,126.74028530296177 38.851159676142935,126.58444430901099 38.93817089750614,126.53249731180146 39.00180597015602,126.490939713074 39.21868468578154,126.37665631754106 39.5212759484438,126.1480895278685 39.68490899129482,126.01302733351369 39.957630729895904,125.86757573959311 40.26541669218623,125.69095594651083 40.561514579655444,125.52472555330392 40.86670319189952,125.37927395922853 41.11475010653193,125.24421176502852 41.39786124469877,125.10914957129296 41.69006310748564,124.95330857780662 41.827722651731904,124.82863578301756 41.951096771577674,124.77668878487916 42.147196688533704,124.64162659052433 42.38095817860839,124.50656439585988 42.59394086986119,124.3507234029928 42.8004301863854,124.2156612087928 43.018607576959056,124.05982021437758 43.192630019683044,123.94553681930908 43.364055112520425,123.789695826442 43.497818631924694,123.6234654332351 43.656256975304885,123.48840323841583 44.00430186075769,123.03126965814184 44.132870680383924,122.85464986505956 44.38611229479921,122.53257847898557 44.55753738763418,122.36634808577867 44.619873785028716,122.30401168822932 44.74584525492073,122.06505549837176 44.813376352250536,121.9299933035525 44.935451796838535,121.72220531208256 45.01726831857368,121.44169152380717 45.09648749011017,121.3066293300716 45.09129279048211,121.21312473413462 45.056228566790445,121.0780625397798 45.04194314238753,120.96377914378242 45.004281569116486,120.84949574871392 44.788701528127056,120.51703496276455 44.54065461349464,120.21574237535765 44.45624074217769,120.12223777942066 44.39909904441122,120.02873318348367 44.40169639430266,119.87289218953289 44.48091556583673,119.76899819433979 44.57571883687425,119.68588299765892 44.74194922992634,119.59237840125749 44.902984923195554,119.54043140420279 45.101682190045445,119.5092632051959 45.31206753109718,119.49887380578495 45.45622045007204,119.5092632051959 45.627645542907004,119.53004200386296 45.70686471459589,119.55082080299448 45.861407033291314,119.61315720038901 45.97049572873175,119.66510419806296 46.1068565978799,119.73782999533289 46.262697591518624,119.84172399114526 46.49126438181043,120.02873318348367 46.6159371765995,120.12223777942066 46.79385564447269,120.2053529759467 47.038006533958324,120.27807877321662 47.30293622288509,120.40275156723162 47.628903634260666,120.53781376236051 47.86915849921876,120.62092895857693 48.14188023781985,120.6624865563755 48.34057750466974,120.69365475584684 48.735374688013636,120.72482295423448 48.92887725492584,120.70404415463852 49.12757452177572,120.67287595671533 49.31588238874781,120.63131835783305 49.508086280871524,120.57937136077834 49.7950934437207,120.4858667642221 50.066516507376065,120.40275156723162 50.34703029565147,120.29885757234813 50.6366348085469,120.18457417635075 50.96000487018344,120.03912258320425 51.222337209066374,119.91444978841517 51.50804569712465,119.78977699300685 51.752196586922324,119.69627239706986 51.87297335687182,119.61315720038901 52.09374809779894,119.478095006189 52.22881029199895,119.35342221124512 52.398936710045426,119.20797061778899 52.62750350033482,119.05212962383821 52.88334246479636,118.8858992306313 53.139181428945854,118.74044763748479 53.46904486531583,118.59499604356422 53.69761165576245,118.4911020472874 53.9703333942063,118.38720805193948 54.19370548502728,118.29370345553805 54.424869625210526,118.20019886006551 54.76771981103528,118.02357906713803 55.07290842343416,117.89890627219415 55.415758608949275,117.74306527932707 55.76769951908443,117.64956068292565 56.10016030534343,117.54566668664883 56.336519145464365,117.50410908885026 56.74819910325743,117.37943629390638 56.92481889572046,117.35865749477486 57.12871086235323,117.31709989697629 57.5351961202086,117.27554229809401 58.07414622268217,117.19242710156796 58.31959578773277,117.10931190535155 58.53647450335829,117.03658610870089 58.736470444999085,116.9638603118954 58.836468415974295,116.87035571549399 58.91049288772549,116.776851119557 58.95075181104038,116.67295712328018 58.94555711141231,116.55867372867613 58.92088228729125,116.4651691322747 58.841663115602366,116.3508857372062 58.771534668688325,116.25738114126922 58.62997909960491,116.10154014731845 58.446865932256046,115.90414155618834 58.19881901762605,115.68596416484303 58.011809825287635,115.49895497296906 57.845579432235546,115.30155638075526 57.798827134344464,115.16649418655525 57.785840384887265,115.01065319306892 57.76376291081004,114.6262454096004 57.766360260701475,114.30417402290716 57.80661918386154,114.00288143503582 57.82609930805217,113.70158884809335 57.82609930805217,113.37951746093567 57.83389135772407,113.02627787631923 57.82869665809601,112.81848988438486 57.861163531738995,112.48602909889995 57.878046305878534,112.19512591090397 57.91570787945921,111.88344392408612 57.96765487713318,111.57176193633939 58.05206874860494,111.29124814852842 58.12609322050853,111.07307075718312 58.1962216675798,110.91722976431603 58.28323288909782,110.80294636924755 58.41959375824354,110.67827357430366 58.583226801404194,110.52243258035288 58.83906576602055,110.35620218761042 59.19360402604715,110.22113999294598 59.36243176883586,110.20036119381446 59.575414459933846,110.23152939282136 59.735151478412156,110.29386578975145 59.90138187130943,110.39775978602826 60.02735334119903,110.52243258035288 60.20916783344494,110.63671597604063 60.35072340268317,110.75099937110913 60.50656439601469,110.91722976431603 60.68318418863254,111.11462835591058 60.81175300826118,111.22891175159833 60.93123110326495,111.34319514666683 61.10785089603761,111.51981493866542 61.27408128924693,111.65487713332988 61.40524745845255,111.73799232954629 61.53511495302449,111.76916052901763 61.72861752024632,111.80032872694082 61.84290091516,111.80032872694082 61.9688723848972,111.77954992780931 62.192244475713345,111.73799232954629 62.36107221850206,111.65487713332988 62.50522513763173,111.54059373779693 62.63379395725796,111.40553154359692 62.731194578186916,111.27046934939692 62.80521904993811,111.13540715504209 62.87275014727034,111.02112375950915 62.916905095424795,110.84450396751056 62.96885209309876,110.68866297402423 63.02599379086523,110.51204318109676 63.240275156908936,110.24191879207748 63.38183072599236,110.11724599775286 63.496114121060856,110.01335200147605 63.65455246459344,109.90945800659256 63.78571863395629,109.81595341019114 63.942858302388345,109.72244881378971 64.07662182195226,109.61855481859659 64.27531908849252,109.5042714235281 64.37661573441345,109.4731032245212 64.52336600312493,109.41076682759112 64.65193482275116,109.34843042957732 64.84154136498101,109.23414703404438 65.00257705809541,109.14064243810739 65.22335179902254,109.00558024437183 65.41165966599704,108.84973925088549 65.59866885818063,108.72506645609643 65.86100119737078,108.60039366115255 66.04801038940198,108.5380572636032 66.18956595848299,108.49649966487574 66.3973539497981,108.41338446881413 66.60644061621375,108.31987987287715 66.77267100911102,108.22637527694016 66.92591465270591,108.12248128066335 67.08954769586656,107.97702968658795 67.43499523142552,107.60301130237558 67.79472819139222,107.11470952309469 67.88953146242974,106.97964732873987 67.91160893650697,106.80302753581239 67.89472616236743,106.71991233959598 67.75576794317303,106.62640774319455 67.57914815040279,106.53290314772201 67.38045088370772,106.43939855132058 67.17006554265598,106.37706215346161 66.90643452852012,106.31472575699595 66.68825713763925,106.27316815857812 66.41683407398389,106.24199995972603 66.16618980946004,106.21083176071915 65.97268724254783,106.2004423613082 65.74931515188409,106.2004423613082 65.54412451046042,106.19005296158763 65.33763519409104,106.14849536378905 65.1220551531016,106.11732716431771 64.93504596091559,106.09654836565065 64.67920699676608,106.07576956651913 64.4610296057304,106.04460136751224 64.19350256706701,105.97187557070676 64.0272721738577,105.93031797244375 63.88571660477669,105.87837097430534 63.56754124323024,105.75369818029034 62.94157991923865,105.48357379142588 62.358474868608205,105.22383880228199 61.97926178446054,105.06799780833121 61.837706215377125,104.995272012145 61.61693147475963,104.89137801586818 61.345508410949456,104.69397942458328 61.001359550488615,104.47580203385722 60.675392139113036,104.29918224031049 60.51695379558045,104.22645644350501 60.26890688094803,104.17450944629549 59.97800369310688,104.15373064669954 59.8195653497291,104.20567764437351 59.60528398384021,104.37190803758041 59.34814634443295,104.54852783004344 59.00269880887157,104.76670522092431 58.70270489641038,104.89137801586818 58.40141230900589,105.04721900919971 58.19881901762605,105.07838720774215 57.861163531738995,105.14072360560114 57.65986891500008,105.14072360560114 57.368965727156514,105.13033420634501 57.101438688338305,105.08877660808199 56.73131632880826,104.995272012145 56.40405024279659,104.83943101772978 56.20275562590045,104.59008542892572 56.072888131328504,104.38229743730098 55.91444978810554,104.02905785175565 55.68588299765892,103.41608327799534 55.65341612401593,103.13556948971994 55.62614394999859,102.67843590898151 55.60146912618716,102.29402812442929 55.576794302063675,101.97195673835532 55.54952212820115,101.73300054834293 55.47290030656094,101.47326555919905 55.44562813254601,101.36937156292224 55.33913678699702,101.18236237058382 55.224853391773706,101.04730017684825 55.05862299887885,100.94340618057144 54.71577281336131,100.73561818956595 54.38071467705607,100.57977719669888 54.06253931550962,100.33043160634668 53.7352732290335,100.11225421546581 53.43657799167284,99.9252450231274 52.915809338439345,99.69667823299041 52.56386842799214,99.50966904111642 52.253485115967614,99.36421744657659 51.88336275643757,99.19798705383414 51.54051257076764,99.06292485963412 51.21324648444634,98.87591566776015 50.91455124708568,98.69929587467787 50.579493111090066,98.48111848426144 50.25222702461395,98.28371989220246 49.94444106247844,98.07593190119698 49.66392727420304,97.83697571118459 49.34575191265659,97.67074531797769 48.93926665449159,97.42139972855438 48.612000568479914,97.19283293748849 48.356161603863555,97.07854954288445 48.21460603478014,97.04738134341311 47.986039244331096,96.94348734868443 47.67825328235282,96.75647815572677 47.38735009451167,96.56946896385278 47.09514823172479,96.42401737039665 46.93800856314034,96.37207037225825 46.602950427142304,96.3097339747089 46.335423388478915,96.34090217325135 45.96530102879406,96.33051277384041 45.59517866926644,96.29934457545278 45.25752318337696,96.27856577632126 44.91467299770703,96.21622937830747 44.560134737525615,96.14350358196644 44.19001237799558,96.03960958630888 44.06663825846186,95.99805198804586 43.88222641601488,95.89415799176905 43.71339867291654,95.72792759856215 43.644568901103035,95.59286540482658 43.590024553228005,95.37468801348128 43.557557679585024,95.15651062260041 43.577037803770814,94.86560743553332 43.656256975304885,94.5643148479716 43.79781254438831,94.26302226010024 43.914693289660285,94.05523426909475 44.099105132104846,93.82666747895776 44.347152046582444,93.61887948686858 44.657535358454574,93.44225969486999 44.98480144493069,93.33836569859318 45.39388405283232,93.28641870138367 45.791278586067655,93.27602930166309 46.054909600203516,93.2448611026562 46.50684848115907,93.06824131065761 46.85099734177472,93.00590491310827 47.1769647531503,93.00590491310827 47.53929506316084,93.02668371223977 48.08733589009963,93.16174590659459 48.56394959517867,93.29680810033015 49.04316065030396,93.46303849353707 49.8002881436584,93.71238408327001 50.16261845335931,93.79549927995087 50.58728516060957,93.90978267455492 50.9846796939973,93.94095087402626 51.17039021124002,93.92017207489475 51.2574014326008,93.87861447601247 51.35480205352976,93.72277348268095 51.391164952164715,93.50459609180008 51.45609869945069,93.20330350439318 51.436618575419715,92.88123211831919 51.42103447576145,92.62149712917531 51.36908747808506,92.42409853696151 51.237921308569824,92.2266999456766 51.12363791319169,92.05008015274912 50.87559099855928,91.75917696459834 50.661309632515575,91.44749497824492 50.380795844240176,91.01114019617356 50.11586615546822,90.6475112112173 49.96392118681904,90.47089141921872 49.819768267689376,90.13843063280491 49.75873054539537,89.70207585057874 49.67691402366023,89.13065887508144 49.56522797832594,88.74625109114848 49.3808161360362,88.32028570879768 49.211988393092675,87.91509912557841 48.96394147846026,87.55147014108658 48.666544915890505,87.12550475827135 48.41070595158377,86.84499096999595 48.250968933415095,86.64759237886585 48.174347111462836,86.41902558764517 48.03798624231711,86.13851179936977 47.92889754687668,85.93072380836428 47.689941356864296,85.6398206202135 47.400336843814046,85.40086443066556 47.06787605770987,85.21385523879158 46.736713946706224,85.08918244400252 46.44451208391935,84.92295205079562 46.18088106978349,84.75672165805315 45.90036728150809,84.69438526050381 45.77179846188186,84.71516405963531 45.43674032588624,84.86061565278183 45.26531523320609,84.9748990487792 44.88090744911832,85.10996124313404 44.530265213928885,85.22424463820253 44.265335524849725,85.33852803280658 43.9913151113005,85.34891743314641 43.81339664373694,85.2450234368696 43.56534972925934,84.99567784806554 43.30951076479779,84.59049126484625 42.95367382967066,84.07102128655848 42.70822426492969,83.7177817014776 42.55498062133479,83.36454211593228 42.47965747448307,83.05286012911444 42.487449524157384,82.79312513997054 42.634199793178496,82.37754915734031 42.849779834013106,81.88924737713054 42.91990828108196,81.57756539077714 42.852377184059364,81.31783040163324 42.6757573912867,81.07887421162087 42.46017735029727,80.850307420555 42.375763478980325,80.7879710236249 42.07836691625334,80.6840770273481 42.097847040443966,80.5905724314111 42.22381851033115,80.52823603448101 42.22901320995921,80.4035632390727 42.27446683305939,80.23733284633023 42.29914165718288,80.08149185346315 42.343296605337336,79.89448266112474 42.378360829026576,79.78019926590143 42.465372050080155,79.61396887223007 42.56666869584627,79.43734907976705 42.65887461714716,79.27111868656014 42.80562488585865,78.99060489874918 42.85497453379599,78.87632150368069 42.89003875733041,78.76203810861219 42.92380430591912,78.6269759133285 42.95367382967066,78.419187922323 42.944583105050626,78.26334692945593 42.91990828108196,78.11789533538054 42.92640165596537,77.9724437408407 42.98614070331365,77.73348755082833 43.048477100862996,77.53608895907897 43.06795722504879,77.42180556447491 43.058866500428756,77.0893447780611 43.06146385016538,76.78805219018976 43.07574927456587,76.59065359890484 43.13029362228851,76.4763702033719 43.173149895497254,76.3932550073103 43.20431809419452,76.2270246141034 43.28223859093768,76.07118362061706 43.38353523685861,75.9361214259526 43.55496032969358,75.8010592317526 43.74846289645097,75.69716523594023 43.90949858972018,75.61405003987863 44.07313163287841,75.55171364232929 44.19520707793327,75.51015604360182 44.331567947078995,75.47898784567862 44.491304965402485,75.43743024679634 44.622471134920154,75.42704084754021 44.805584302266595,75.42704084754021 44.98480144493069,75.4685984453388 45.23284835956311,75.53093484319777 45.44453237556056,75.6036606404677 45.63803494247276,75.6867758366841 45.836732209167835,75.75950163395402 46.00555995211136,75.8010592317526 46.13153142200096,75.82183803088411 46.280879040603885,75.8322274307595 46.40425316075686,75.82183803088411 46.499056431639566,75.8010592317526 46.59775572751424,75.7491122336142 46.684766948877446,75.69716523594023 46.752298045902464,75.6348288385457 46.82632251811568,75.55171364232929 46.89385361498346,75.43743024679634 46.97047543678091,75.31275745247171 47.04969460862461,75.2088634561949 47.17177005352224,75.0841906621799 47.27306669913354,74.94912846705101 47.38994744424829,74.76211927517704 47.47176396598343,74.62705708144148 47.569164586912386,74.49199488662221 47.70552545605812,74.35693269195777 47.80941945187048,74.24264929688927 47.89643067323369,74.1387553010769 47.96396177025628,74.01408250675227 48.032791542379414,73.91018851047546 48.11980276374262,73.78551571646047 48.22369675940018,73.6608429216714 48.28083845701183,73.56733832573441 48.34836955434405,73.39071853218768 48.39771920212658,73.19331994090277 48.43278342566101,73.0270895481603 48.476938373815464,72.88163795423974 48.482133073907974,72.7465757598849 48.50031452299323,72.66346056335887 48.54187212110144,72.54917716829037 48.62888334246464,72.4141149734711 48.69121973985917,72.29983157793816 48.770438911702875,72.20632698200117 48.87693025709706,72.09204358646824 48.98342160264363,71.98814959158476 49.20679369346461,71.81152979865728 49.36133601185041,71.73880400138736 49.514579655447726,71.65568880517094 49.639252450389186,71.58296300852028 49.75093849556866,71.53101601038188 49.85223514133236,71.46867961329697 49.94444106247844,71.39595381602706 50.07300988241429,71.30244921962563 50.187293277327974,71.20894462415309 50.28988859803981,71.13621882688317 50.42105476755748,71.06349303023251 50.52235141332359,71.00115663221872 50.61455733446967,70.93882023528863 50.69377650615856,70.87648383773927 50.76909965301029,70.78297924133786 50.815851951211,70.6894746458653 50.84052677517967,70.59597004946387 50.86520159899353,70.48168665393094 50.883383048385994,70.36740325886244 50.93273269617094,70.27389866246101 51.00156246844888,70.18039406652403 51.08857368981209,70.0765000711761 51.22493455895781,69.96221667564316 51.324932529935445,69.86871207970617 51.44830664962156,69.73364988550617 51.55349932037965,69.60897709056229 51.6651853655567,69.47391489636227 51.68726283963394,69.35963150129378 51.70154826403685,69.23495870588546 51.73661248772609,69.13106471100197 51.78596213550861,69.0167813150046 51.85868793277853,68.91288732027591 51.927517704592034,68.7882145248676 52.096345447690375,68.6115947327142 52.256082466013865,68.5284795357237 52.42491020880258,68.4557537384538 52.55607637832024,68.39341734198814 52.69243724762079,68.32069154471823 52.82879811707614,68.26874454657982 52.932692112578884,68.23757634757293 53.040482133073596,68.20640814964973 53.144376128885966,68.18562934989896 53.28593169796939,68.15446115151133 53.43917534140947,68.08173535470584 53.585925610275766,67.99862015802499 53.7352732290335,67.89472616236743 53.88202349805219,67.78044276729894 54.00799496763459,67.65576997235506 54.10020088878066,67.55187597700713 54.20669223448447,67.42720318221807 54.30539153020434,67.33369858628107 54.427466975101964,67.22980459000426 54.58850266837118,67.0947423962687 54.74564233695804,66.93890140185347 54.86252308191798,66.8142286079933 54.966417077575535,66.68955581304941 55.02096142529575,66.5856618167726 55.067713723341654,66.4817678215795 55.08849252247317,66.34670562676023 55.09498589720176,66.10774943674785 55.11316734659665,65.81684624921631 55.15472494470485,65.64022645613403 55.197581217913594,65.53633246140537 55.23394411654856,65.4012702665861 55.25861894036241,65.21426107471213 55.29628051394309,64.97530488469975 55.30666991335161,64.8090744910284 55.32615003754224,64.68440169670377 55.37549968563198,64.53895010262839 55.44562813254601,64.35194091075441 55.47290030656094,64.23765751568591 55.48458838091759,64.07142712247901 55.51965260445202,63.93636492812419 55.576794302063675,63.79091333420361 55.641728049349645,63.61429354112133 55.68068829772123,63.51039954530896 55.728739270715266,63.41689494983641 55.840425316199536,63.271443355915835 55.952111361376595,63.13638116156101 56.050810657251276,63.02209776556363 56.17548345219515,62.89742497154863 56.2793774476979,62.76236277641974 56.353401919603904,62.66885818048275 56.44041314096711,62.52340658640736 56.581968710050525,62.30522919599094 56.69884945516527,62.190945800457996 56.83521032462063,62.03510480712648 56.998843367781284,61.900042613390916 57.14559363649277,61.78575921770316 57.28974655562002,61.65069702303871 57.42351007487673,61.53641362797021 57.55727359428825,61.44290903156878 57.698829163521644,61.30784683783322 57.753373511244284,61.20395284155641 57.78843773477629,61.06889064782084 57.815709908484,60.944217852412514 57.8702542562018,60.87149205560704 57.93778535353644,60.78837685954544 58.022199224853395,60.70526166240014 58.12349587077432,60.611757066463156 58.26505143985774,60.476694872263145 58.39491893442969,60.34163267852758 58.49361823014955,60.237738682250765 58.570240051946996,60.133844686438394 58.6429658490621,59.99878249223839 58.72737972053387,59.853330898162994 58.77932671820783,59.707879304552044 58.85854589005153,59.572817109887595 58.95075181104038,59.41697611702052 59.029970982886496,59.31308212074371 59.111787504312005,59.15724112787663 59.191006676000896,59.042957732808134 59.26762849779834,58.9494531364067 59.40009334241654,58.84555914012989 59.6507376070952,58.71049694639433 59.80138390064385,58.627381749249025 60.040340090811036,58.51309835418053 60.26371218131997,58.41959375824354 60.51955114547189,58.27414216416815 60.79227288407055,58.11830117130107 61.137720419636764,57.91051317983115 61.41823420790974,57.744282787088686 61.64680099835636,57.578052393881784 61.870173089020106,57.42221140039545 62.02601408250403,57.30792800439807 62.16237495180698,57.224812808800905 62.32860534485907,57.14169761165561 62.4974330878026,57.0378036164625 62.63379395725796,56.92352022123918 62.79353097542422,56.78845802611029 62.98183884271077,56.632617033243214 63.13378381135995,56.51833363817472 63.2844301050634,56.41443964189791 63.43897242344678,56.30015624729385 63.580527992532616,56.13392585408695 63.69221403786449,55.98847425954711 63.8610417808056,55.82224386680465 64.02207747422963,55.66640287393757 64.15843834337777,55.52095127986218 64.29479921267831,55.39627848445386 64.39869320849068,55.261216290718295 64.54024877757652,55.04303889937298 64.65193482275116,54.89758730529759 64.77401026764879,54.720967513299 64.92985126128752,54.502790121953694 65.1090684036444,54.26383393194131 65.24023457316207,54.076824739602905 65.3947768918575,53.84825794993035 65.52334571148373,53.661248757591935 65.64801850611798,53.45346076596719 65.71944562828736,53.318398571302744 65.7765873257442,53.18333637756718 65.81424889917007,53.06905298249868 65.84152107303018,52.892433188951955 65.86100119737078,52.715813396953365 65.87139059693654,52.53919360387108 65.88567602118464,52.43529960852315 65.92074024471906,52.34179501212172 65.85840384732452,51.83271443324489 65.78178202552708,51.25090805849146 65.53892981067754,50.669101682654336 65.0402386318309,49.463931332407434 64.90517643716646,49.12108114720194 64.86621618895211,48.94446135411965 64.91556583673221,48.57044296990727 65.05712140581805,47.76006980393315 65.19867697505629,46.80424504357401 65.34023254413728,45.98348247834376 65.6025648831726,44.54974533780505 65.72983502785311,43.936770764044724 65.83892372329355,43.63547817617337 66.11943751157136,42.89783080746917 66.82981270672268,41.87966965017994 67.02850997357257,41.65110285895925 68.48822061240641,40.082303525304226 68.66873642986141,39.884904932625986 68.89470587041659,39.874515533215046 71.11673870254256,39.68750634134107 71.19595787438627,39.61478054407115 71.50374383636695,39.1680363630533 71.70244110306203,38.731681581446374 71.39725249081796,38.48233599202305 71.61023518191837,37.18366104630361 71.97776019155455,36.44601367728978 72.05178466361538,36.41484547781844 71.72711592718552,35.68758750852518 71.4595888882125,35.095391733431924 71.20374992390576,34.523974757005746 71.1258294271626,34.191513970591934 71.03232483122561,33.77593798858097 70.92583348567662,33.381140804617814 70.84791298893344,33.29802560809177 70.68687729566425,32.643493436068425 70.57519125017755,32.18635985471074 70.46869990462856,31.729226274281938 70.33493638521945,31.19936689627359 70.2102635905852,30.617560520436463 69.9972808993324,29.77601915514582 69.77131145877722,28.79941559642924 69.65183336377103,28.26955621842089 69.52066719456299,27.708528642334535 69.3544368013585,26.981270672422017 69.17521965869199,26.20206570499035 69.05054686390292,25.672206326982 68.96483431764025,25.35013494090802 68.89730322030803,25.131957550027153 68.74276090176741,24.654045169537955 68.57653050887014,24.165743390257074 68.35835311783445,23.46965361888701 68.12329295281405,22.763174448260816 67.94407581014995,22.212536271430583 67.65057527241736,21.329437308805804 67.45057933093138,20.6852945351097 67.2856476126702,20.196992756293263 67.0583794971693,19.490513585667067 66.81942330715691,18.804813214172388 66.64540086443051,18.254175036877715 66.63111544033723,18.098334044010638 66.64799821432194,17.651589862528333 66.6635823139778,16.882774294352792 66.67267303844544,16.332136117522563 66.68825713763925,15.708772143577228 66.71033461171648,15.168523366157938 66.73241208579371,14.649053387870161 66.74799618529715,14.13997280883851 66.77007365937439,13.57894523228771 66.78695643351394,12.862076662250576 66.81682595726548,11.968588300214853 66.84150078123415,11.272498528999602 66.86227958036565,10.628355755767943 66.8596822304718,10.254337371555557 66.79734583307969,9.817982589793823 66.74020413546803,9.350459609180009 66.66098496393396,8.83098963089223 66.60644061621375,8.456971246215401 66.53631216899008,7.875164871461974 66.4843651711613,7.449199489111183 66.38566587528662,6.7011627200671535 66.34540695196932,6.368701933653347 66.26099308065237,5.776506159179351 66.19605933336882,5.277814980023083 66.1298269111347,4.7687344005269905 66.06489316384874,4.228485623107701 65.98567399200503,3.6259004487583204 65.94022036890485,3.262271463337619 65.87398794667315,2.7220226863827723 65.81684624921631,2.275278505364911 65.77139262596133,1.9012601211525249 65.71944562828736,1.4856841375934176 65.65970658062945,0.9766035596454654 65.59866885818063,0.46752298061381453 65.56360463464621,0 66.99864044982101,0.831151965105631 69.33625535211601,2.0882693130264967 71.48686106222742,3.251882063926678 72.99851869889004,4.0622552299007975 74.70627625251112,4.986911791407857 76.76857206646841,6.088188145377947 78.53606866743776,7.06479170455897 80.621740630418,8.186846857660571 82.27495383616404,9.080335220779991 83.33207524197967,10.576408757629537 84.38919664795011,12.0309246977642 85.62813254601164,13.745175625494612 86.15669324891947,14.4828229951277 87.16186765690631,15.843834337777237 87.86185345280391,16.758101499408912 88.92936425803047,18.17105984081611 89.76441224812808,19.27233619432176 90.8591952275244,20.58140054038103 91.29555000912889,22.34759846624985 91.5539863234843,23.417706621677485 91.73969684056736,24.14496459112556 92.0033278545484,25.204683346832628 92.32280189135021,26.47219009354518 92.7578579980114,28.238388019413996 93.0033075629072,29.194212779927952 93.23187435335382,30.098090542148686 93.40329944618878,30.80456971292969 93.58900996342666,31.562995880610593 93.66822913496074,31.90584606643534 93.77082445582496,32.56037823892313 93.88510785089831,33.24607861041781 94.00848197089404,34.01489417859335 94.14744018993363,34.61747935294273 94.33185203222337,35.45902071776893 94.48769302601691,36.15511048867455 94.62924859479313,36.78886386203083 95.29936486709398,37.75507802180091 95.80325074572592,38.492725390969554 96.38635579635154,39.46932895061502 96.41362797036646,40.03035652716582 96.44349749412042,40.45632190951661 97.07465351758285,40.5186583064467 98.16424179719627,41.00696008619203 98.24605831862178,41.058907084330436 98.81487794500171,42.06667884205391 98.89669446642722,42.1186258400375 100.16549988854993,42.94977780467869 101.37586493780564,43.105618798629465 101.8732574420162,43.199123395030895 102.4680505671557,43.2510703920856Z"/></svg>