<svg xmlns="http://www.w3.org/2000/svg" width="256" height="256"><path d="M107.79658981614806,2.0779105259295036 108.28048678790036,2.0836034313946996 108.34168552256314,2.0779105259295036 109.88730937956512,4.189978484735014 110.32281665397252,4.833276812397046 111.23368154197684,5.687212644901091 111.94956441497756,6.267889011003842 115.56740589201969,8.197783992208489 118.78816720694745,9.171270841008607 120.63409183145886,9.478687740964556 123.69402856459836,9.467301929864503 124.75433222329087,9.786104640750843 125.16706787575266,10.321237762368547 125.3506640796562,10.970228994901959 126.03096629288443,11.482590494658877 126.69988269501259,11.64768475560966 127.32325585274054,11.733078338520741 127.39441717211588,11.744464149875288 127.4413836429036,11.744464149875288 127.48977334007883,11.738771244494922 127.72175924124244,11.65907056645522 128.16722910053204,11.49966921139379 128.6240847709217,11.40288981687367 129.0823636677837,11.40288981687367 129.54064256447606,11.419968533354089 130.01315372521313,11.459818872373939 130.11277957233858,11.488283400039244 130.3504583790522,11.528133738804602 131.65698020269858,11.824164827406003 132.98200396946734,12.091731388681424 134.0024572893097,12.245439838532153 134.61017495677507,12.199896593792614 135.08837902306215,12.091731388681424 135.86830708333102,11.858322261045489 136.1842633413575,11.727385433394868 136.4319047327837,11.619220227689864 136.59415254095944,11.624913133409551 139.9444274571503,12.13158172710746 143.79567806191324,12.848887826326026 147.97000105638566,14.220878063967355 148.88086594430516,14.579531113534223 149.18543639131641,14.869869297009751 149.29075514399193,14.921105446875163 149.6081346283211,15.205750724376513 149.84296698234454,15.52455343492353 150.0721064306483,15.849049051190235 150.3909091414498,16.133694328691583 150.76948736069625,16.378489267427575 151.15802816431594,16.6175913007832 151.54229928894276,16.86238623951919 151.92087750801954,17.11287408338105 152.29660927432133,17.36336192758224 152.67945717256063,17.60815686631823 153.070844429125,17.813101466034368 153.4665013649367,18.000967349524583 153.86215830057876,18.18883323267547 154.25923846269313,18.359620398836956 154.65774185127984,18.530407565507428 155.04628265498434,18.75812378767817 155.42913055330848,18.9972258207793 155.7721281126128,19.247713664641164 156.0268856359765,19.532358942142512 156.20336570802732,19.81700421964386 156.2432160468775,19.85685455866371 156.57198134239158,20.095956591764843 156.9790240892185,20.300901191480982 157.25513000847965,20.431838019131604 157.2864409890048,20.4603025470514 157.42449394850811,20.574160657882278 157.4828462303959,20.60831809143693 157.56254690809627,20.596932280082385 158.02509548403597,20.50584579119712 158.21296136718684,20.50015288607125 158.52891762521335,20.34075153024634 158.6000789445887,20.306594097200673 158.72247641391425,20.249665041361077 158.76090352637695,20.221200513695774 158.8363345249148,20.158578552730308 158.86906873191228,20.118728213710458 158.8961100331901,20.0788778749451 158.94734618314033,19.99348429203402 158.99288942762539,19.91378361399432 159.02420040823534,19.87393327522896 159.35723538274226,19.63483124246715 159.66749873521874,19.36726468119173 159.97776208778004,19.116776837329866 160.02615178495526,19.094005214790435 160.12720085855307,19.048461970644713 160.18128346110868,19.037076159544657 160.6239068677081,19.008611631624863 161.07791608523792,19.002918726159667 161.52765562369004,19.01430453725972 161.9802416149172,19.025690348444606 162.43994373825154,19.025690348444606 162.49687279358213,19.019997442724915 162.55380184908242,19.008611631624863 163.00069493475954,18.87767480397424 163.36077121079873,18.7011947321779 163.40204477603643,18.667037298538414 163.43193253017407,18.627186960027547 163.44901124682414,18.581643715372838 163.5173261135093,18.28561262702593 163.5443674147871,18.251455193386445 163.57710162178458,18.217297760086282 163.61695196054995,18.183140327040615 163.66107197864747,18.154675799120817 163.70946167573788,18.1319041771752 163.7578513729131,18.10913255463577 164.19051219471515,17.961117010504733 164.56766718748926,17.778944032734206 165.00602091484134,17.670778827283694 165.45006754765862,17.539841999633076 165.89838385972325,17.437369699902252 166.3495466245629,17.36905483355642 166.80070938940253,17.243810911031673 167.16647857099176,17.05025212267008 167.44258449016806,16.74852812843382 167.675993617804,16.429725417292985 168.05884151595848,16.219087912450973 168.43315005595758,16.088151084800355 168.4815397531328,16.05399365141536 168.8458857082497,15.79211999619895 169.24865877591412,15.592868301608684 169.64431571172582,15.399309512992598 170.06986040159035,15.228522346322126 170.1979507763811,15.137435857436865 170.4683637900922,14.830018957989902 170.8312865188216,14.59091692488877 171.21271119067342,14.397358136018191 171.57136424040996,14.141177386182147 171.9243243844268,13.8793037311354 172.3000561508134,13.674359131164767 172.67436469072769,13.497879059368422 173.07998421108226,13.315706081597899 173.481334052444,13.173383442847225 173.5468024662693,13.156304726027482 173.60515474815708,13.156304726027482 173.68200897308245,13.139226009801556 174.03069943793676,12.888738165345876 174.34380924318825,12.643943226864378 174.63699387909946,12.37068376020859 174.94583400518843,12.091731388681424 175.27886897978019,11.824164827406003 175.63325235035418,11.550905361004709 175.97767313613082,11.294724611168665 176.30786165794754,11.038543861587113 176.60958565209899,10.78805601764042 176.93835094769787,10.509103645604267 177.31977561946485,10.270001612248642 177.74247385655434,10.10490735129786 178.13101466051336,9.894269846116524 178.50816965303298,9.69501815186558 178.72165361115898,9.569774229595325 178.99206662478525,9.302207668659227 179.32083192038417,9.02325529713206 179.601207518723,8.755688736111132 179.7164888560262,8.607673191980092 179.8374630990491,8.231941425593481 179.97551605855242,7.861902564587236 180.01394317101511,7.622800531570935 181.17814235608046,7.514635326374916 185.5446009128663,7.059202882203096 188.30708333118653,6.76886469906689 189.0172732984676,6.694856927255864 189.07277912749552,6.945344771372219 189.26349146342142,7.491863703920314 189.4072373285596,7.850516753487183 189.7772761893962,8.163626558653835 190.18147248336325,8.414114403109513 191.290165839231,8.937861713881656 192.07578680513473,9.330672196579025 192.62515219071233,9.672246529919965 193.1019330305271,9.86011241256187 193.41788928863843,10.008127957286725 193.90890239232826,10.116293162397914 194.6233620387718,10.287080328813891 195.40044364635048,10.6571191899898 195.7690592807147,10.867756694916642 196.3340801565549,11.175173594872591 197.04569335030828,11.442740155893521 197.97790663421003,11.698920905475072 198.53723460441535,11.829857733125692 198.95850961511732,12.029109427376635 199.3940168896944,12.353605043897835 199.93341969055945,12.865966543400262 200.77739293843578,13.697130753364874 201.21290021292802,14.101327047416788 201.59005520570213,14.499830436258 201.82488755955592,14.818633146889848 201.89889533187593,15.097585518671508 201.8376965971283,16.6175913007832 201.78361399431822,17.949731199404678 201.74661010824303,18.71258054327795 201.73664752361532,19.65190995869308 201.74803333463055,20.187043080650106 201.7138759014152,20.58554646898233 201.4662345099042,20.972664046214504 201.24278796706565,21.26300222969003 200.65499546902538,21.62734818497659 199.3755149466568,22.418662056175844 198.0917647452954,23.084732005529 197.48120062488533,23.506007016061332 197.14389597104625,23.819116821227983 196.90621716433262,24.194848587614594 196.74823903531936,24.50795839303574 196.56179637872563,24.73567461520648 196.34973564681746,24.952005026107503 195.8032167140149,25.270807736654522 194.84111567614517,25.80594085861155 194.2533231781049,26.09627904123877 194.06830374764417,26.2499874910895 193.96440822152584,26.39800303581435 193.91317207140594,26.568790202230332 193.9074791658559,26.916057440697145 193.84770365758064,27.610591917630774 193.84628043119312,27.923701723051916 193.76088684802755,28.242504433598935 193.5872532286669,28.561307144739768 193.53886353149167,28.817487894575812 193.4591628538761,29.124904794022775 193.26560406509037,29.455093316263664 192.98095878758903,29.916218665561356 192.85856131826344,30.200863943062703 192.77316773501303,30.417194353878898 192.77174450871036,30.616446048214673 192.90410456266366,30.838469364750555 193.70965069799246,31.794877497239913 194.87669633583283,33.24656841232713 196.7496622617917,35.02275494376588 197.10119917950587,35.45541576573759 197.57798001923578,36.08732828170575 198.01206406742534,36.39474518140721 198.6482462627257,36.84448472011383 199.3342413814191,37.470704330192646 199.663006677018,37.84074319136855 199.9903487460597,38.108309752134986 200.3418856637739,38.26201820198571 200.91971557718645,38.558049290332626 201.5416655085269,38.97932430137394 201.71529912771788,39.09318241228965 202.07252895098208,39.36644187860612 204.12197494907662,40.7555108325582 205.32744769921,41.56390342117101 206.0362144402732,42.03641458131427 206.84887670753955,42.50323283658614 207.93337521473484,43.10668082514349 209.26124543427864,43.69874300243113 209.61135912560528,43.86953016850778 209.91592957261656,44.03462442979789 210.10948836123265,44.17694706854856 210.6204266344324,44.70638728453141 211.91271619428852,46.032834277433196 212.09631239819205,46.20362144410367 212.77661461142029,46.85830558227194 213.10964958609685,47.17710829341277 213.46545618297355,47.62115492614521 213.73444597029714,47.83748533704624 214.2581932808148,48.2246029145329 214.74066702617958,48.70280698065034 215.36973308945755,49.3062549686987 215.79243132663188,49.625057679839536 216.9552072852249,50.313899251307966 217.74794438306617,50.757945884125235 218.72570091119846,51.26461447816247 219.11851139423516,51.51510232261815 219.4131192563642,51.7371256388147 219.71342002412814,51.873755372185016 220.09484469597993,51.9876134827614 220.4364190291512,52.12424321604688 220.71679462732038,52.2836445713628 221.08967994084716,52.61952599898405 221.3558232753109,52.824470598700195 221.62338983616218,52.932635804150706 222.11582616623951,52.94402161525076 222.56556570469164,52.921249993305146 222.89717745306555,52.938328710124885 223.28144857769237,53.10911587620154 224.05995341157373,53.4734618314881 224.42002968769776,53.67840643120424 224.69044270123922,53.917508464559866 224.92669828156534,54.13383887512156 225.09890867445364,54.25908279730699 225.34512683957715,54.29324023094647 225.66819922945635,54.25908279730699 226.0510471277805,54.17368921414142 226.42677889399744,54.09398853635621 226.72423320898633,54.11676015855632 227.1782424266858,54.22492536400683 227.54828128735275,54.33878347534669 227.93397563836706,54.424177058597095 228.34671129082886,54.39001962495761 228.66978368070806,54.27616151387224 229.12379289840754,54.16230340304136 229.60911309654733,54.12814596999569 230.12432104882478,54.07690982013028 230.66941675515503,53.86627231469445 230.85870586469343,53.72964258132414 231.22589827267015,53.61578447023877 231.6443268307668,53.57593413121892 232.2876251577502,53.66132771497831 232.9679273709784,53.7182567699696 233.49736758713092,53.68979224230429 234.0011897283083,53.66132771497831 234.28441177942216,53.68979224230429 234.59325190551112,53.76949292034399 235.06860951893836,53.95166589760553 235.42299288942755,53.99720914234507 236.29116098580664,53.95166589760553 236.59003852735273,53.99720914234507 236.79071344790634,54.071216914156096 236.98854191568495,54.20215374206121 237.10524647954534,54.384326719577246 237.28599623067387,54.57788550844782 237.70015510943833,54.73728686367892 238.12854625207785,54.930845652634325 238.62240580862752,55.374892285112274 238.90989753881905,55.613994318467896 239.05648985681708,55.69369499625311 239.28989898428335,55.8246318235644 239.75244756022303,55.98972608485451 240.14810449611957,56.126355817631 240.37012781240097,56.25159973981643 240.60638339272708,56.45654433987189 240.88533576467842,56.71272508970793 241.09597327011423,56.84366191735855 241.4076598488934,57.008756178054846 241.63110639173195,57.116921383759845 241.87732455677062,57.22508658887104 242.08653883581894,57.35602341652166 242.31283183134767,57.549582205137746 242.591784203299,57.78868423874786 242.7426462003747,57.89684944411354 243.16676766385172,58.130258571240496 243.42437163999043,58.25550249376524 243.52684393997575,58.312431549011016 243.67912916335413,58.39782513251591 243.84991632985495,58.528761959827214 244.11463643801605,58.78494271000258 244.60564954170587,59.12651704249521 244.90595030938496,59.308690020265736 245.31014660343686,59.51363461998188 245.65314416282598,59.70150050347209 245.89509264870213,59.84382314222276 246.04453141939035,59.98614578097344 246.21104890672865,60.21955490835488 246.34056250799176,60.39034207502535 246.4771922411924,60.54974343000195 246.64655618139054,60.64082991888721 246.99097696716717,60.703451880107174 247.16461058635815,60.72622350239211 247.29839386686862,60.743302219127024 247.48056684438464,60.8343887075033 247.65135401088546,61.03933330772843 247.98865866472457,61.5403089961308 248.30319169636354,62.10959955113349 248.49959693783947,62.36008739499536 248.62911053910258,62.64473267249671 248.59352987941492,63.01477153350295 248.60206923773995,63.270952283084505 248.79420480022304,63.60114080524056 249.01338166381424,63.811778310167405 249.23825143304032,64.06226615462309 249.3905366564187,64.26721075433922 249.4375031272064,64.47784826002955 249.4118850522313,64.7283361041459 249.38484375086867,64.79095806485687 249.35495599673104,64.9788239480926 249.32649146906573,65.50257125861025 249.48304637160663,65.87261011961648 249.6623728964325,66.02631856921272 249.90574460869612,66.08324762505231 250.36117705269828,66.05478309713251 250.5476197095465,66.10032634127825 250.77533593146276,66.30527094150337 251.06425088821146,66.74931757406614 251.28769743096518,67.25029326263818 251.2521167712775,67.54632435123958 250.99024311597628,68.01314260651145 250.93616051325102,68.38318146726321 250.84507402453542,68.70198417781023 250.70417461208743,68.91262168324606 250.10214985017205,69.35666831631782 249.53001284239434,69.72670717673024 249.28237145096818,70.0568956986318 248.97353132487922,70.87098119270982 248.70311831133776,71.46304336965814 248.5024433906993,71.83308223032506 248.57787438915236,72.21450690243135 248.72162025437535,72.68132515744874 248.6945789529279,72.94319881266514 248.4825182211894,73.5011035563133 248.15802260492268,74.36642520017189 248.16940841602275,74.67384209995818 248.35869752547632,74.99264481050518 248.3572742990888,75.21466812729557 248.39285495877647,75.9376671318945 248.47255563656168,76.5581938367626 248.57787438915236,76.85422492536401 248.68746282116004,76.99654756411468 248.85824998757602,77.0990198641 248.9407971180514,77.09332695871963 248.99914939985433,77.07624824189989 249.12297009556744,76.99085465898881 249.48304637160663,76.63789451480231 249.666642575595,76.5525009315519 249.80327230879564,76.51834349799725 249.87016394900846,76.52403640371693 249.9825988336215,76.5866583646824 250.05518337946918,76.6663590424676 250.14342341540976,76.79160296439854 250.19465956536,76.89407526412937 250.2558583000228,77.14456310883953 250.37825576934839,77.696774946768 250.5419268039965,77.9643415079586 250.7511410830448,78.08389252425467 250.98312698403873,78.07819961878947 251.44852201275344,77.99849894134358 251.95234415393082,77.93587698003878 252.4718217853708,78.00988475218914 252.97564392654817,78.24898678545993 253.3385666553624,78.47101010148684 253.49654478446047,78.63610436269211 253.52643253868294,78.74996247386231 253.4225370122253,79.16554457867495 253.2545962984995,79.74622094511703 253.15781690423387,80.00240169469858 253.29302341104702,80.12195271150364 253.56485965097596,80.20734629441472 253.9306288325652,80.26427535025431 254.1113785838634,80.37813346108518 254.21527411006656,80.4806057610705 254.2181205629264,80.63431421066674 254.17400054482886,80.92465239380294 254.09287664074097,81.63626558755632 254.10710890470088,81.93798958162292 254.18396312962622,82.10877674803889 254.32913222106708,82.20555614255902 255.01797379262035,82.58698081415633 255.62426823378306,83.0993423140829 255.92172254877195,83.39537340276914 256,83.54908185261986 255.98007483065973,83.69140449137055 255.88756511538696,83.8621916574472 255.60576629074546,84.02159301276312 255.29123325902165,84.11837240762257 255.0620938107179,84.19807308506846 254.807336287439,84.2208447073534 254.35617352251455,84.1866872739684 253.91924302146515,84.12975821846813 253.71002874258647,84.14114402956818 253.50935382186321,84.26638795149911 253.4424621817352,84.43717511791509 253.50366091631318,84.68197005665108 253.56485965097596,84.8413714122215 253.70148938417663,85.12032378400316 253.7427629494143,85.34234710053904 253.74418617588665,85.6782285279058 253.67871776206132,85.98564542760725 253.63317451774594,86.25890489400855 253.62036548017355,86.43538496639871 253.5335486704508,86.52647145528397 253.40545829557522,86.55493598260995 253.31010212761225,86.58340051027525 253.15212399868383,86.59478632137531 252.69242187543432,86.59478632137531 252.05623968021882,86.54924307722959 251.86837379706793,86.53785726638402 251.53676204877885,86.53785726638402 251.40297876843806,86.56062888832965 251.27915807264014,86.61186503819505 251.21226643251217,86.6801799051347 251.2037270741023,86.85665997667655 251.22934514916224,87.04452586008193 251.3118922795528,87.15269106527795 251.4969117100135,87.31778532648323 251.55241753904144,87.39748600401394 251.57518916132636,87.47149377633396 251.55811044459145,87.55119445386467 251.44425233367576,87.63658803736956 251.30477614761526,87.70490290371539 245.1820562286461,86.67448699916052 234.80815909002462,84.93245790110676 227.51697030699725,87.90415459805118 226.1819839554311,88.45067353110825 223.6529106647468,89.53232558527405 222.5797979685667,89.98775802919138 219.16405463855054,91.45083475571798 212.82073462951783,94.29159462526626 212.22013309390513,94.56485409141305 206.9541954601302,96.65415042852744 202.89800025573598,98.26524269893059 195.38621138256025,101.20847486854902 192.48140632565898,104.1061637936824 189.87974848921183,106.21253884676823 187.47591912079778,107.72685172316022 184.40459657655822,109.087456149956 182.56578808389952,109.78199062663514 182.40638672849877,109.72506157164385 182.1430898467252,109.7364473827439 181.39589599328414,110.0097068491452 180.9760442090545,110.12925786561094 180.51491885958714,110.14064367671098 179.44607584248476,110.10079333769113 177.83071389257975,110.12356495997608 177.30554335567462,109.9527777933056 176.15842288725935,109.55996731060823 175.58770910586915,109.31517237161775 174.14882722809983,109.37779433283771 172.44522524225425,109.52011697158838 166.47763699952333,110.5448399705084 165.48280175457128,110.53914706512805 164.8964324829185,110.24880888190701 164.27305932519056,109.96416360440566 163.65822552578763,109.9243132653858 163.1572498374701,110.22603725996139 162.22503655365318,111.50124810274328 161.6642853568907,111.67772817513344 160.9199379563095,111.51263391409782 156.25744831075258,109.58273893289318 153.30567678314844,107.26003346814285 153.2629799914384,107.2429547515776 152.8132404530711,106.9810810963612 152.70222879484558,106.82737264642563 152.4930145158821,106.51426284134381 152.25533570908362,106.21253884676823 151.98634592184484,105.91081485270163 151.76716905816883,105.61478376410022 151.5309134778427,105.31305977037294 151.24342174765118,105.03410739799747 150.8961545090147,104.78361955379629 150.52896210103796,104.5957536706454 150.35817493462199,104.51036008773431 149.9198212072699,104.27125805437869 149.5455126672708,104.01507730479715 149.49996942295542,103.99230568259703 149.3348751619198,103.92399081591188 149.063038921906,103.87844757168132 148.5919509877261,103.87844757168132 148.22618180605204,103.84429013812667 148.09951465764877,103.82721142156142 148.03262301735114,103.82151851618106 147.90310941617284,103.93537662675745 147.38932469036774,104.19725028231318 147.12887426128435,104.31110839314405 146.57239274376923,104.5672891429801 146.2279719579926,104.71530468745046 146.12976933725463,104.7551550264703 145.96894475546637,104.81208408146159 145.89066730415348,104.90886347606654 145.78250209870296,105.05687902019758 145.67576011963996,105.14796550933734 145.34699482412591,105.31875267549883 145.16055216736254,105.42691788120383 145.01822952861184,105.47246112534955 144.3550060320337,105.55216180313477 143.7188238368182,105.60909085897435 143.49110761490195,105.63755538630033 143.30324173175106,105.72864187544009 143.09687390547776,105.90512194732126 142.89619898483932,106.15560979169211 142.71544923371079,106.47441250232396 142.43649686175945,106.81029392994522 142.29702067569897,106.99815981309611 142.25574711046127,107.09493920744656 142.18458579108594,107.51052131259853 142.1134244717106,107.77239496756044 141.99529668154753,108.25059903393237 141.9426373052098,108.49539397275319 141.8970940608944,108.69464566674965 141.7903520818314,109.06468452775589 141.71919076245607,109.3265581827178 141.65941525418077,109.4404162941425 141.47297259733256,109.79337643773519 141.4203132209948,109.91292745428575 141.0488511339404,110.32281665397252 140.70585357455127,110.5448399705084 140.0952894543957,110.79532781496408 139.69393961294912,111.00596532039991 139.41214078830762,111.23368154206167 139.14457422745636,111.54679134748281 138.92255091092048,111.93390892496947 138.70195082085695,112.44627042413258 138.33902809212756,112.90170286804991 137.47797612768596,113.78979613410861 137.0680869279992,114.0915201281752 136.69662484094476,114.3078505389914 135.70036636969004,114.87144818861373 135.20366036036538,115.26995157694596 134.9602886481017,115.52043942140163 134.69841499288532,115.93032862083392 134.47639167634944,116.19220227638965 134.25436835989836,116.3971468761058 133.8957153102467,116.56793404277626 133.78612687840865,116.687485059242 133.44028286632934,117.42186987528031 133.3036531331287,118.1790263129249 133.2808815109286,118.30427023511032 133.3278479817163,119.37453647876988 133.29796022757867,119.40300100668969 133.2211060026533,119.44854425058092 133.17698598455576,119.48270168413558 132.90372651815449,119.76734696163692 132.64185286285323,120.06337805023833 132.4041740561396,120.2626297443196 132.01136357327258,120.41633819417034 131.55308467641058,120.53019630551019 131.1645438727909,120.71806218849142 130.85997342577963,120.98562874917303 130.59667654400604,121.17349463266324 130.02738598900336,121.27027402667437 129.81674848373717,121.31581727141392 129.62176646864876,121.38982504322495 129.1649107982591,121.54353349307567 128.69239963752202,121.69154903780053 128.5671557155911,121.74278518766593 128.45329760450574,121.79402133753135 128.39921500178048,121.82248586545114 128.35509498368293,121.82248586545114 128.0021348396661,121.93065107056233 127.57232047055422,122.08435952066756 127.17097062927732,122.24376087572898 126.76819756169775,122.38608351447967 126.38107998421108,122.58533520906992 126.03523597204695,122.81874433670586 125.98969272764673,122.84720886403184 125.9413030304715,122.8642875805971 125.84452363620588,122.89275210877139 125.7932874861708,122.89844501415175 125.59545901839219,122.90413791961694 125.15568206465261,122.90413791961694 124.87388323984145,122.95537406948236 124.4568779083868,123.11477542530727 124.41275789028926,123.12616123615283 124.04698870878485,123.1318541415332 123.59297949108537,123.06353927518737 123.5075859079198,123.05215346400247 123.42361555105691,123.02938184154787 123.38376521220671,123.01799603044782 123.02368893608268,122.77320109196633 122.702039772591,122.66503588677031 122.22383570630389,122.63087845321566 121.75701745120168,122.63657135893534 121.71432065957647,122.6422642643157 121.50368315431031,122.6991933199008 121.4638328153753,122.71627203638123 121.41971279744742,122.72765784782061 121.23896304614922,122.73335075294648 121.05963652149303,122.71627203638123 120.60989698287125,122.68780750905525 120.15731099172893,122.69350041418112 119.94382703360293,122.71627203638123 119.50831975894103,122.87567339169715 119.1240486343142,123.06923218056772 118.70562007638723,123.22863353613815 118.24591795322254,123.26279096918381 117.82037326344286,123.39942070280861 117.7477887175952,123.42219232475423 117.60404285245701,123.43357813559979 117.53999766501921,123.43357813559979 117.47310602480638,123.42219232475423 117.39767502626853,123.38803489170856 117.18988397369255,123.22294063067295 116.82553801866048,122.98953150278251 116.54800887292701,122.88136629767133 116.16800742746271,122.71627203638123 116.06126544839971,122.65934298113545 116.03422414703708,122.55687068115013 116.03280092064956,122.49994162556503 116.0114525249218,122.45439838141931 115.75100209600807,122.30638283669445 115.37527032962146,122.11282404807837 115.3226109532837,122.00465884262785 115.29699287830859,121.9705014093277 115.21302252144568,121.81679295947697 115.0892018257326,121.45813991016459 115.03084954384482,121.36136051555964 115.00238501609469,121.32720308251398 114.93122369671936,121.28735274349413 114.77609202048112,121.2645811215485 114.69212166361822,121.2645811215485 114.60672808045264,121.25888821557432 114.3903976694668,121.20765206570891 114.25519116265365,121.19626625460886 113.80118194520867,121.19626625460886 113.35286563297437,121.13933719902376 112.91878158478482,121.02547908793838 112.83481122792192,121.00270746599277 112.74941764475635,120.99701456027309 112.54162659209554,121.00840037137314 112.54731949764556,121.11087267169778 112.50462270602036,121.65739160441554 112.37083942567956,122.38608351447967 112.29113874789435,123.25140515808376 112.3025245589944,123.77515246894073 112.35233748264197,124.23058491302773 112.41638266999495,124.56077343475962 112.35518393533215,125.46594541712908 112.32102650203198,126.02954306666658 112.24274905071911,126.38250321059859 112.09757995927826,126.76392788270489 111.83997598305471,127.36737587075325 111.76027530543917,127.7317218262943 111.80012564420453,128.35794143679726 111.7318107776042,128.8190667861798 111.59802749717856,129.39405024656284 111.57525587506329,129.74701039074935 112.0292650925931,129.72993167418412 113.04117905419523,131.4947323945228 113.55496378000034,132.78702195437893 113.52222957317251,132.87810844326418 113.73713675760119,133.2026040595309 113.95916007413707,133.49863514813228 114.18972274882834,133.8174378589338 114.42170865007677,134.12485475897458 114.5540687041149,134.23871286980545 114.82448171765634,134.7624601805776 114.86433205650654,134.88770410259337 114.41743897091425,135.08126289120946 114.0986362600279,135.18942809682963 114.01466590333467,135.21789262424045 113.97481556431482,135.23497134106017 113.73855998398871,135.29759330202563 113.4638772911999,135.43422303531113 113.15788361788596,135.69609669035788 112.86469898205956,135.96366325163328 112.5202781964526,136.20845819036927 112.13031416610609,136.42478860093098 111.70476947624157,136.57849705078172 111.25502993787427,136.7208196895324 110.79959749387211,136.86314232828306 110.37547603031028,136.9826933450881 110.29435212630722,136.99977206156854 110.22603725962206,137.00546496703373 110.1506062610842,137.01115787275342 109.74214028786977,137.13640179468436 109.28101493840242,137.2559528114894 108.85262379567806,137.37550382770067 108.43704169052609,137.49505484425123 108.01007377427408,137.65445619982165 107.94318213406126,137.68861363286732 107.89479243705568,137.72846397188715 107.83074724944822,137.82524336649212 107.77097174117294,137.92771566622292 107.73112140232276,137.97895181634283 107.68273170514752,138.03018796620825 107.58025940533187,138.10419573801929 107.18175601682998,138.25221128274413 106.75905777965565,138.35468358247496 106.32497373146609,138.47992750440588 105.88946645697386,138.6393288599763 105.45253595592446,138.81580893177264 105.0768041897075,138.99798190954317 104.70818855534327,139.1858477930334 104.30683871406636,139.41356401469514 103.94960889080217,139.66405185915082 103.65215457572843,139.95439004177803 103.36466284545207,140.2390353192794 103.09851951098831,140.5122947856807 102.85087811956214,140.80832587428208 102.63739416143612,141.12143567970324 102.44098891996019,141.4516242018593 102.24600690487178,141.78750562897156 102.08091264392098,142.129079962058 101.92151128860506,142.4592684842989 101.65109827489395,142.76099247802617 101.32802588501475,143.00578741701665 100.98502832562563,143.22781073304355 100.6277985022766,143.4270624276338 100.23071834016223,143.62631412163026 100.18517509584684,143.66047155526974 100.14390153060914,143.67755027175016 100.10689764453397,143.7003218940351 99.98023049596104,143.74586513818082 99.87775819606055,143.76863676038093 99.78240202826727,143.8027941940204 99.63154003102188,143.8597232495207 99.33408571603297,144.0305104156822 98.95550749695619,144.22976211027245 98.53138603347918,144.38916346550354 98.27947496289049,144.4574783319342 97.81834961342314,144.52579319887386 97.37430298052102,144.55425772653916 96.90036859356611,144.55995063191952 96.6498807492801,144.58272225437412 96.57018007149489,144.594108065559 96.4178948481165,144.64534421542442 96.23287541765579,144.71365908202475 96.18021604131805,144.7250448931248 95.98665725270196,144.73643070430967 95.55114997804006,144.80474557040102 95.11137302430048,144.9470682091517 94.73706448438621,145.1292411869222 94.376988208347,145.36265031430366 94.1023055155582,145.56190200889392 93.93863448099492,145.53343748097413 93.43908201898006,145.44235099208888 92.98507280145024,145.36265031430366 92.53675648930079,145.33418578663836 92.0528595175485,145.33987869235804 91.6116593374214,145.36265031430366 91.17188238385148,145.43665808687817 90.73068220355474,145.47081552000867 90.28948202342764,145.4822013311087 89.84685861691304,145.48789423648907 89.40423521048328,145.49358714195427 88.9644582567437,145.54482329207417 88.47202192666636,145.57898072562884 88.01089657711418,145.69283883654455 87.70347967732789,145.85793309749533 87.3818305138362,146.11411384707688 87.12564976408498,146.4101449356783 86.83531158103361,146.67771149661436 86.58197728414224,146.64355406305972 85.93725573043203,146.76879798524516 85.4604748907021,146.84849866328486 81.85401922476002,146.91112062399583 81.78855081093471,146.91681352946102 81.48398036392344,146.7574121741451 81.31888610297266,146.5410817633289 80.9417311103682,145.647295591805 80.70689875634476,143.6490857441697 80.6030032301416,142.81222862789159 80.440755421881,142.22585935666297 78.99191095939914,140.43259410814997 78.10666414645478,139.6128157092854 77.00793337521473,138.94105285395807 76.39594602858683,138.59378561574576 75.04388096045544,137.88786532745758 74.01915796145057,137.4210470721857 73.78005592834944,137.204716661624 73.77720947565926,136.91437847814848 74.1529412418762,136.07752136246418 74.3393838986396,135.40575850773064 74.23691159873911,134.9617118744044 73.67189072298376,133.0659743267544 73.28904282465962,131.78507057799834 73.0527872443335,130.9026702175745 72.6870180628291,129.53067997993315 72.53615606566855,128.72228739157484 72.29563080626475,128.34086272006235 72.14049913002651,128.2156187980466 71.86581643715289,127.99928838672142 70.20633446932003,126.95179376560128 69.90318724878108,126.7810065994398 69.53030193525431,126.64437686615432 69.44775480486376,126.61021943276933 69.39082574927866,126.58744781031473 69.30543216611308,126.54759747154937 68.9083520039987,126.35973158865298 68.52977378492191,126.2174089499023 67.76692444113347,125.90999205020084 66.55433555906255,125.71074035561058 65.16953628393367,125.55133900029465 63.70076665202671,125.42040217264403 62.324506735307686,125.38624473934387 61.70682648312977,125.50010285068373 61.137535928127065,125.6481183948996 60.73333963407515,125.59118933906001 60.606672485671886,125.45455960628352 60.18824392766007,125.01051297295726 59.51363461998188,124.48107275697441 59.37842811325357,124.3786004569891 59.1948319092652,124.2419707242126 58.800598199841,124.01425450170254 58.16299277832281,123.62713692447036 57.96231785768436,123.3481845526887 57.6961745232206,123.49620009681975 57.471304753909706,123.57590077435046 57.425761509509485,123.58728658545051 57.139693005620636,123.76376665775585 56.80381157816904,124.01425450170254 56.430926264642274,124.25335653531266 56.038115781690415,124.46399404040916 55.94702929305964,124.51523019052907 55.91714153883717,124.54938762365957 55.67234660018601,124.62908830144478 55.2325696463616,124.7030960735103 55.134367025708464,124.72017479033003 55.0845541020609,124.72586769545592 55.03616440488567,124.73156060143009 54.915190162117256,124.79418256239556 54.873916596709904,124.82264709031536 54.78425333438181,124.85680452310653 54.35301573888243,124.96496972906603 53.91323878514285,124.993434256392 53.45495988845051,124.95358391796597 53.301251438599785,124.9478910119918 52.38184719227043,124.95927682309186 51.943493464918355,124.98204844529195 51.89368054127078,124.98204844529195 51.84386761770805,124.98204844529195 51.79690114692033,124.9706626341919 51.421169380703375,124.78848965693037 50.98423887965398,124.68601735669056 50.74371362016534,124.64616701817968 50.440566399626405,124.64616701817968 50.38933024976099,124.64616701817968 50.338094099725915,124.65185992364488 50.2911276289382,124.66324573449045 50.06768108609964,124.80556837324112 50.02071461539675,124.83403290116091 49.56955185047228,124.91373357894612 49.10558004814508,124.95358391796597 49.057190350969854,124.95927682309186 48.9134444859165,125.01051297295726 48.867901241431454,125.03897750087705 48.82662767619376,125.06744202879685 48.79104701650609,125.10159946184253 48.76115926236845,125.14144980060787 48.727001829068286,125.26100081741293 48.63591534026786,125.50579575614893 48.61172049168024,125.54564609491429 48.53771271952989,125.6196538669798 48.49359270151718,125.65950420574516 48.448049457116966,125.68796873366496 48.39823653355423,125.71074035561058 47.979807975627246,125.82459846669595 47.6254246052229,125.97830691654667 47.58130458712536,126.00107853908611 47.52437553170992,126.02954306666658 47.339356101249216,126.12062955529736 46.90384882667215,126.37681030547272 46.8013765268565,126.31988124963313 46.604971285380564,126.25156638294797 46.185119501066076,126.12632246101704 45.80227160274193,125.9213778613009 45.513356646078066,125.65950420574516 45.27283138675909,125.35778021193306 45.1191229367387,125.00482006783139 45.01095773137302,124.64616701817968 44.93125705358781,124.52092309573978 44.76473956624952,124.20781329057311 44.719196321934135,124.08256936864218 44.491480099848225,124.1338055185076 44.03177797676838,124.1622700464274 43.6204655506941,124.30459268517806 43.23192474698959,124.49815147379415 42.88750396121296,124.74294641253015 42.533120590808615,124.9478910119918 42.15454237156216,125.12437108404264 41.75176930389775,125.25530791169325 41.55536406242182,125.30085115643278 41.504127912471574,125.30085115643278 41.27214201130798,125.29515825045861 40.976110922706575,125.21545757318239 40.62599723137992,125.08452074553176 40.285846124765804,124.90804067322644 39.87311047238885,124.71448188435586 39.5229967810622,124.57215924560518 39.07325724261006,124.44122241795456 38.23355367406592,124.11672680168786 37.815125116054105,123.98009706865687 37.35257654011441,123.98009706865687 36.89287441703457,124.05979774644209 36.48156199096029,124.20781329057311 36.25242254265653,124.27612815725827 36.20545607186881,124.28751396810384 36.159912827383764,124.28751396810384 36.021859867965276,124.27612815725827 35.9763166233954,124.26474234615822 35.92792692622017,124.24766362933848 35.55361838630589,124.05410484072239 35.325902164389646,123.93455382442632 35.28320537267961,123.9174751076914 35.186425978329154,123.90039639087166 35.14515241309146,123.866238957826 35.03983366041596,123.70683760225558 34.83204260783997,123.38803489170856 34.662678667811505,123.06353927518737 34.59578702751386,122.77889399768601 34.5972102539862,122.57394939763056 34.60717283861391,122.53409905920452 34.84058196624985,122.23806797051829 35.07256786741345,122.08435952066756 35.11526465895382,122.03312337029315 35.129496922828885,121.9705014093277 35.12095756450385,121.89649363751667 35.08964658406353,121.81110005426626 34.962979435490595,121.4524470041904 34.96013298280042,121.09379395487804 35.03556398133827,120.72944799933698 35.00852267989081,120.35940913892455 34.95017039800304,120.19431487788894 34.92312909672524,120.15446453886909 34.89039488972775,120.11461420044306 34.849121324490056,120.08045676680356 34.48192891651332,119.81858311175682 34.06207713219883,119.63071722835144 33.643648574356675,119.51685911752057 33.17967677202948,119.40869391181556 32.715704969617455,119.32899323403035 32.251733167290254,119.23221384001921 31.833304609448103,119.11835572918834 31.416299277823796,119.00449761776365 30.99787071998165,118.89633241265246 30.53389891756962,118.85078916791292 30.072773568102264,118.86217497901298 29.611648218465252,118.86786788473266 29.150522868913068,118.8564820736326 28.730671084598576,118.73123815136235 28.35778577107181,118.55475807931151 27.984900457629877,118.32134895167557 27.66040484136317,118.03670367417423 27.28894275405425,117.80898745251247 26.89613227110239,117.59834994682215 26.61575667284839,117.44464149722592 26.203021020386608,117.32509048042085 25.740472444446915,117.3137046693208 25.27934709489473,117.31939757529499 24.81679851895504,117.30231885847525 24.35424994301535,117.22261818069003 24.120840815464245,117.16568912510493 23.75222518118483,116.94935871428873 23.303908869035375,117.14861040862452 21.186148004425345,118.85078916791292 19.46831375470471,119.6648746619061 19.30606594652894,119.38022938440474 18.992956141277457,119.0955841069034 18.618647601363183,118.85078916791292 18.321193286374275,118.55475807931151 18.049357046360488,118.24164827439935 17.85152857858188,117.92284556334336 17.840142767566658,117.63250738037681 17.946884746629664,117.30231885847525 18.086360932435664,116.97782324195404 18.11767191304564,116.60778438154162 18.086360932435664,116.23774552053537 17.968233142272602,115.86770665986845 17.818794371584396,115.54321104360174 17.73909369396885,115.1731721825955 17.702089807893675,114.80882622764827 17.68501109124359,114.43878736664202 17.571152980243053,114.0687485062296 17.396096134494893,113.74425288970839 17.265159306844275,113.41975727318719 17.17549604451618,113.04971841277477 17.11856698893108,112.68537245748821 17.00897855717789,112.31533359648196 16.86096301287719,111.99083798046975 16.767030071216915,111.63218493039389 16.63467001726362,111.27353188108152 16.470998982615512,111.02873694234553 16.408377021565215,110.99457950921503 16.22762727035186,110.88072139787516 16.184930478811488,110.86364268164924 16.09242076353872,110.86933558677511 15.632718640458872,110.90349302007527 15.400732739295274,110.89780011469492 15.355189494895058,110.89210720897522 15.30679979771983,110.8750284927493 14.888371239708016,110.68146970387872 14.522602058118784,110.48221800928845 14.102750273889127,110.28865922067236 13.682898489574638,110.15202948789587 13.218926687247441,110.08371462121072 12.757801337695255,110.07802171523653 12.295252761755565,110.06663590413648 11.83412741211855,110.01539975427107 11.371578836178859,110.0097068491452 10.909030260239168,109.9812423212254 10.507680418962268,109.86169130442035 10.089251861120117,109.74214028786977 9.714943321205844,109.55427440497338 9.340634781291572,109.3322510884375 8.966326241292467,109.1102277719016 8.749995830391443,108.88820445536572 8.683104190263457,108.72880310038913 8.667448699916052,108.35876423912839 8.643253851328437,107.98872537871597 8.512317023677817,107.66422976244925 8.344376310036852,107.33973414592806 8.155087200498457,107.00954562419615 7.950142600612654,106.68505000767496 7.681152813458711,106.377633107719 7.378005592919775,106.13283816923752 7.003697053005503,105.92789356926689 6.673508531103939,105.7571064028509 6.6308117394787365,105.7343347806508 6.267889010579687,105.52369727521496 6.010285034440967,105.2732094313531 5.813879793134698,104.96579253156682 5.711407493149382,104.85762732620114 5.361293801822724,104.5957536706454 5.068109165911504,104.32249420424411 4.827583906507696,103.99230568259703 4.605560589971813,103.69058168827594 4.2767952945425876,103.4287080329747 4.137319108482096,103.36608607175475 4.090352637694373,103.35470026090918 4.044809393378989,103.35470026090918 3.8697525476308283,103.32623573298939 3.8299022087806396,103.30346411104377 3.7928983227054642,103.27499958312397 3.761587342265147,103.24084215007831 3.7331228144301813,103.20668471643882 3.50682981890144,102.8935749116115 3.394394934373239,102.74555936688664 3.3573910482132328,102.71709483922133 3.3146942565031994,102.69432321702122 3.2677277858003078,102.67155159507561 3.2207613150125853,102.65447287800137 3.173794844224863,102.63739416143612 2.756789512600557,102.52922895632494 2.2942409366608665,102.47799280645953 2.10922150628499,102.47799280645953 2.0622550354972673,102.46660699535947 1.6424032511827789,102.2901269229693 1.2225514669531212,102.12503266201853 1.1300417516803523,102.11364685117297 1.0830752808926298,102.11364685117297 0.9464455476919826,102.11933975655333 0.6731860812906885,102.11364685117297 0.6276428368904727,102.10226104007292 0.5820995925750879,102.07948941753348 0.22913944838858527,101.83469447905199 0.1850194304607072,101.81192285659738 0.13805295967298475,101.80053704549734 0,101.73222217932116 0.3202259371890167,101.44757690181982 0.5920621772028042,101.15154581296392 0.9250971518793816,100.87828634681712 1.2723643904310262,100.67334174659199 1.636710345632752,100.45701133603029 1.998209848059464,100.21790930267467 2.3141661061707914,99.98450017529322 2.6329688168874705,99.75109104791177 2.9958915457865203,99.51768192002135 3.4072039716911378,99.3468947539447 3.8683293213281527,99.30704441492485 4.329454670880336,99.27288698153986 4.787733567657507,99.17041468180902 5.170581465811989,98.99962751513856 5.2573982754499005,98.9370055539186 5.419646083625669,98.84591906528783 5.832381736002624,98.67513189895668 6.243694161992072,98.53850216533188 6.6564298143690275,98.38479371548115 7.0193525431832455,98.1456916826345 7.272686840329108,97.95782579922913 5.519271930751141,97.00141766699426 3.7985912282554914,94.63316895809821 2.8151417944883335,92.65773073266301 2.0551389035597336,91.3028192115021 3.651998910342297,90.01622255736567 6.040172788578608,88.83779110834043 6.632234965951074,87.94400493681653 8.347222762727036,85.62699237804038 9.470148382469853,82.56990209759108 9.629549737870608,81.5394861930362 9.958315033469496,78.60763983511164 7.04354739177086,76.93961850878408 9.669400076720798,76.41017829280123 9.771872376621284,76.27354855926126 12.177124971507675,73.09121435688101 12.360721175665706,72.85780522924507 15.080506802106257,73.01720658506999 15.608523791871258,70.42693455963806 16.779839108704476,65.27485503669399 16.67309712964147,64.31844690420463 16.623284206163564,64.22166750985417 16.495193831203128,63.897171893926796 16.330099570252344,63.57267627740559 16.143656913573793,63.22540903859946 16.08672785798869,63.08308639984878 15.977139426235503,62.93507085571774 15.824854202687451,62.61057523919654 15.6384115460089,62.28607962292984 15.414965003085511,61.96727691238282 15.150244895009257,61.659860012342044 14.844251221780139,61.369521829460325 14.543950453931386,61.07349074085893 14.286346477877496,60.76607384141196 14.111289632129335,60.44157822489076 13.988892162803756,60.11708260862406 13.840876618503055,59.79258699210286 13.855108882547784,59.4282410368163 13.884996636515764,59.058202176403874 13.936232786550837,58.68247041001726 13.981776030866222,58.30673864363065 13.990315389276093,57.93669978262441 13.983199257253728,57.560968016237794 13.929116654528473,57.190929155825366 13.840876618503055,56.81519738943876 13.765445620050029,56.43946562305214 13.717055922874799,56.069426762639715 13.684321715877314,55.69369499625311 13.579002963201814,55.323656135246864 13.445219682861012,54.99916051872567 13.302897044110338,54.67466490245896 13.157727952499819,54.344476380811884 13.03960016233676,54.019980764290686 12.994056918021375,53.64994190387826 12.98694078599901,53.27421013749165 12.865966543060937,52.9041712764854 12.73929939465767,52.57398275483833 12.631134189122324,52.20394389408658 12.504467040634225,51.87944827756538 12.359297949193369,51.56064556650938 12.158623028554919,51.2304570451168 11.902442278803704,50.91165433397597 11.68184218865533,50.60423743427451 11.417122080663907,50.29112762885337 11.173750368400253,50.05202559609155 11.067008389337248,49.68198673508531 11.072701294887274,49.53966409633463 11.203638122537894,49.209475574687566 11.419968533354089,48.88497995842086 11.654800887377531,48.56048434189966 11.825588053878342,48.23029582016776 11.858322260706165,47.860256958991855 11.822741601018496,47.484525192859735 11.704613810855436,47.16002957633854 11.525287286029588,46.83553396007183 11.347383987591245,46.511038344059614 11.213600707165611,46.23208597202346 11.205061348840571,46.186542727538416 11.163787783602876,46.08976333327279 10.97876835331183,45.782346433571334 10.792325696463616,45.457850817304625 10.709778565988225,45.08211905091802 10.694123075810483,44.712080189911774 10.770977300735845,44.336348423779654 10.920416071339222,44.00615990187809 11.05704580453987,43.67597138014619 11.059892257399714,43.63042813549148 11.010079333752147,43.26038927507905 10.86064056306394,42.93589365855785 10.627231435597665,42.61139804229114 10.416593930161836,42.29259533115031 10.403784892843937,42.24705208700459 10.398091987124248,42.201508842519544 10.405208119061783,42.01364295936865 10.420863609409187,41.96240680950324 10.445058457996803,41.9168635650182 10.47636943843712,41.871320320617976 10.778093432588548,41.56959632629689 11.112551633652632,41.29633685989559 11.414275627804061,41.04584901603373 11.700344131777747,40.7555108325582 11.767235771990565,40.66442434392743 11.791430620663009,40.613188193807524 11.819895148328314,40.52210170517676 11.962217787078988,40.191913183529685 12.189934008995236,39.86741756700849 12.477425739356429,39.565693572687394 12.777726507035519,39.26396957887529 13.096529217837029,38.97932430137394 13.43668032445114,38.75730098492289 13.856532108765629,38.597899629352476 14.34469875968044,38.558049290332626 14.790168619054882,38.53527766838701 15.235638478344493,38.39864793527119 15.618486376498975,38.19370333504607 15.997064595575768,38.00014454642998 16.35856409800248,37.76673541879404 16.539313849300665,37.60733406347812 16.570624829825814,37.561790819077906 16.697291978229085,37.2372952028112 16.695868751841576,37.16898033612605 16.658864865851232,36.798941475459124 16.60335903665364,36.428902615046695 16.658864865851232,36.05317084866008 16.841037843367264,35.72867523239338 16.880888182217454,35.68882489337353 17.269428986091626,35.44402995489203 17.640891073146054,35.25616407140181 18.0237389714702,35.05691237740537 18.390931379446936,34.81781034404974 18.711157316635955,34.53316506654839 19.024267121887437,34.248519789047045 19.353032417316662,33.96956741726538 19.67610480728069,33.68492213976403 19.9949075180822,33.400276862262686 20.24966504144591,33.1440961125963 20.286668927521085,33.08716705709603 20.342174756718677,32.97900185139103 20.55850516753487,32.671584951689574 20.75633363548314,32.36416805224261 20.9171582172714,32.01120790780161 21.102177647562446,31.65255485848924 21.318508058463472,31.350830863913657 21.617385599924717,31.07757139751236 22.03154447868918,30.884012608896278 22.452819489391175,30.67906800918014 22.73319508764517,30.400115637313647 22.89686612229328,30.132549076377547 23.225631417722504,29.882061232515685 23.57716833543667,29.65434501000562 24.233275700077275,29.238762904853655 24.52361388312865,28.959810533326486 24.76556236908963,28.663779444725083 25.203916096441706,28.060331456082903 25.427362639195433,27.758607462355627 25.58961044745603,27.496733806799895 25.605265937633774,27.41134022354949 25.605265937633774,27.36579697889478 25.599573032083747,27.22916724611829 25.52414203363072,26.876207101931787 25.526988486320903,26.654183785141413 25.54264397666831,26.608640541250182 25.74189567083442,26.30691654692909 26.072084192735986,26.05642870247341 26.400849488250042,25.800247952637367 26.705419935261318,25.526988486236075 27.054110400200468,25.270807736654522 27.278980169426532,25.151256720103955 27.325946640129423,25.134178003538704 27.6945622745785,24.94061921466813 27.842577818879203,24.80398948138265 27.86534944099448,24.75844623749142 28.048945644982847,24.45672224317033 28.137185681008265,24.274549265399802 28.137185681008265,23.9215891212133 28.141455360170788,23.784959388182315 28.155687624045854,23.745109049416957 28.369171582171866,23.443385055095867 28.717862047111016,23.21566883317962 29.1576390008506,23.027802950198392 29.597415954675014,22.93102355567827 30.04003936110478,22.868401594712804 30.479816314844363,22.822858349973266 30.967982965844005,22.805779633408015 31.45472639037131,22.731771861342494 31.57712385961206,22.714693144777247 31.803416855310463,22.657764089276977 31.84753687323834,22.640685372457234 32.20049701734001,22.4300478672759 32.446715182378675,22.253567794970568 32.446715182378675,22.731771861342494 33.556831764633934,23.187204305259822 33.99233903929583,24.029754326918304 34.027919698983496,24.058218854838103 34.05923067942381,24.09806919360346 34.30687207093482,24.416871904150476 34.553090235888654,24.701517181651827 34.87189294669017,24.94061921466813 35.21916018532664,25.191107058869314 35.49811255727796,25.46436652527061 35.744330722231794,25.788862141791807 35.91369466242993,26.107664852338825 36.14141088434618,26.432160468860022 36.401861313259914,26.711112840981006 36.68650659076126,26.97867940166261 36.932724755799924,27.263324679163958 37.124860318283,27.51950542874551 37.11916741256331,27.593513201320015 37.13339967643837,27.67890678457042 37.3283816915268,28.060331456082903 37.49489917886509,28.40190578916935 37.64006827047561,28.749173027636164 37.77385155081641,29.10213317207716 37.901941925692014,29.460786221389537 38.03572520611765,29.819439271210896 38.16381558099326,30.138241982097238 38.28621305040367,30.49689503140961 38.38299244466929,30.855548081485466 38.52673830980748,31.174350792371808 38.69325579714577,31.40775991975325 38.74022226793349,31.470381880718715 39.01205850794727,31.76641296932012 39.288164427208415,32.039672435721414 39.56996325184991,32.307238996403015 39.754982682225794,32.5577268408587 39.86314788776114,32.68297076278963 40.147793165262485,32.990387662745576 40.177680919400125,33.03023800125644 40.21753125816549,33.1213244901417 40.284422898463134,33.468591728608516 40.35843067052865,33.815858967329824 40.45805651765412,34.16312620613596 40.466595875979166,34.51039344460278 40.43955457470137,34.86335358878928 40.374086160876054,35.21062082725609 40.27872999291311,35.563580971357766 40.26734418181305,35.91084820990941 40.26876740811573,36.21257220363668 40.32285001084098,36.7249337036481 40.47655846069171,37.5048617637473 40.866522490953386,39.44614255613683 41.18959488083259,41.25648652138473 41.54682470418161,42.79926392518754 41.723304776147614,43.52795583576066 41.6436040986169,43.77844367987701 41.91828679123604,43.94353794091263 43.6204655506941,44.9227176953476 44.495749779095576,45.497701156069986 44.22960644454699,45.65710251155557 43.993350864220865,45.907590355502265 43.825410150579906,46.17515691618387 43.62900490910397,46.67043969912105 43.475296459253244,47.330816743009 43.415520950977964,47.76347756489589 43.45110161066563,48.042429936762375 43.52368615634364,48.41816170314899 43.5137235716311,48.73127150857013 43.50518421339088,48.941909013921126 44.29222840568212,49.038688408017094 45.80369482912944,49.226554291422474 45.72114769865405,49.68198673508531 47.54572392743769,50.0918759351114 51.221917686367604,52.926942898940005 51.48663779452869,52.83585640980025 51.912182484308374,52.67076214884947 52.33203426862286,52.46581754913333 52.7561557321847,52.32349491038265 53.18881655398675,52.17547936616678 53.61293801737893,51.99899929386145 54.051291744731,51.89652699413063 54.50387773604298,51.885141183030576 54.95504050088262,51.87944827756538 55.074591517433184,51.86806246621083 55.34642775744697,51.83959793854553 55.78335825832671,51.720046922334284 56.21601908012876,51.611881716629284 56.64583344924063,51.4752519835983 57.01587230990754,51.293079006082266 57.373102133171734,51.08813440636612 57.71752291894837,50.86041818385606 58.05625079925981,50.632701962194304 58.38643932107654,50.39359992883868 58.69954912632802,50.137419179002634 58.9642692344891,49.85277390150129 59.10659187323978,49.664908018859386 59.26883968133072,49.3347194966185 59.470937828356675,49.0329955025519 59.7513134266955,48.759736036150606 60.025996119569136,48.47509075864926 60.26652137897294,48.253067442452696 60.31348784976066,48.21321710343285 60.636560239809526,47.951343447877115 60.97813457272631,47.72932013134123 61.32397858497528,47.46175357091412 61.551694806891526,47.13725795439292 61.72817487902719,46.82414814897177 61.76375553871486,46.7899907159261 61.84630266919026,46.73306166008651 61.893269139977974,46.7102900381409 61.9402356107657,46.69321132132115 62.08825115498157,46.65336098281029 62.13948730493181,46.65336098281029 62.6219610502966,46.64197517145574 63.0645844568112,46.630589360355685 63.50293818416327,46.56796739939022 63.93275255327514,46.43703057148511 64.08219132396334,46.402873138693934 64.20885847236661,46.39148732759388 64.6301334830686,46.24916468884321 65.08841237984578,46.11253495521841 65.50684093777276,45.97021231646773 65.86834044019947,45.77665352785164 66.21276122597611,45.54893730618989 66.55291233259021,45.315528178553954 66.91014215593924,45.10489067286363 67.27875779030349,44.917024789882404 67.70572570655551,44.72346600101182 68.14550266021025,44.64376532356594 68.59239574588737,44.63807241784625 69.0335959260993,44.63237951238106 69.5189161242391,44.68930856771166 69.99000405841899,44.79747377341667 70.42551133299605,44.951182223267395 70.7514301757351,45.00811127851318 71.23390392118472,45.002418373132805 71.68791313871453,44.97964675118719 72.13338299800415,44.84301701756239 72.52619348104083,44.67792275661161 72.75533292934459,44.58683626772635 72.84499619175752,44.569757551161096 72.93181300139543,44.56406464578073 73.06986596098358,44.569757551161096 73.2420763538719,44.3818916682647 72.96881688747061,43.34578285799013 72.9588543028429,42.43491796990099 73.12964146925887,41.780233831732716 73.86402628521235,41.4614311211857 74.68949758996625,41.43865949864627 75.32425655879426,41.552517610070964 75.44950048097968,41.649297004082094 75.80815353054655,41.854241603798236 76.17392271222062,42.047800392414324 76.40448538699671,42.15596559811932 76.4500286313121,42.16735140896489 76.49414864940964,42.16735140896489 76.5382686673375,42.17304431493907 76.81579781290132,42.161658503499694 76.86418751007655,42.15596559811932 77.26126767219094,42.0534932983885 77.70246785240286,42.047800392414324 78.15220739077016,42.05918620376887 78.64322049445998,42.0534932983885 79.11715488149973,42.03072167618839 79.5469692506116,42.03641458131427 79.6394789657147,42.01364295936865 79.68502221019975,41.99656424254891 80.06787010835423,41.79161964283277 80.3724405553655,41.51836017643148 80.61296581476931,41.188171654784405 80.8435284895454,40.892140566183 81.09116988097158,40.601802382707476 81.32315578213517,40.30577129436056 81.56795072078633,40.02681892223958 81.85544245114752,39.71940202253813 82.08315867306378,39.43475674503678 82.35357168677488,39.150111467535424 82.63679373788872,38.88254490685382 82.87731899729253,38.592206723632785 83.08511004986852,38.24493948516597 83.25589721636933,37.897672246444664 83.35836951626982,37.550405008232346 83.3996430815075,37.2088306748914 83.41102889260756,37.12912999761518 83.42953083564515,37.08927965859533 83.45087923162741,37.0494293199148 83.68998126455888,36.7249337036481 83.85934520475702,36.37766646484196 84.00736074905771,36.03039922612065 84.20234276414614,35.68882489337353 84.47844868323762,35.37002218248718 84.84279463852417,35.11384143265114 85.21425672557861,34.874739399889336 85.58998849196522,34.68687351639912 85.96572025818216,34.48192891642849 86.26886747872109,34.23144107248179 86.63463666039516,33.980953228365436 87.01606133216214,33.758929911829554 87.4046021360363,33.49136335114795 87.56827317051476,33.18394645110717 87.70205645102521,32.819600496075104 87.77037131754071,32.46094744625375 87.81876101471593,32.10229439668688 87.83726295783836,31.743641347374503 87.83583973136602,31.38498829746831 87.83299327867584,31.02633524764695 87.82872359942849,30.309029148767706 87.84153263691604,29.94468319348115 87.84010941052854,29.586030143829454 87.6821312815153,29.2273770937536 87.43306666370161,28.931346005152196 87.23239174314799,28.623929105705233 87.15696074461013,28.265276056053537 87.13276589602252,27.906623006232174 87.06302780294986,27.54796995666531 86.98902003088433,27.36579697889478 86.98902003088433,27.32025373500355 87.0018290683719,27.189316907352932 87.16265365016017,26.83066385744674 87.42737375815159,26.528939863464974 87.75044614811561,26.26706620790924 88.08775080203954,26.022271269427744 88.38947479619097,25.749011802771957 88.54745292511939,25.43020909222494 88.66131103620476,25.077248948038434 88.68835233748256,24.72998170957162 88.72677945003007,24.576273259720892 88.98580665247147,24.263163454554242 89.20640674253501,23.92728202693299 89.38573326744569,23.574321882746485 89.6077565838119,23.232747549660036 89.85397474893541,22.94810227215869 90.09307678195171,22.640685372457234 90.2368226470899,22.282032322890366 90.3022910609152,21.92337927357799 90.36348979566282,21.564726223671798 90.3592201165003,21.200380268724565 90.3165233248751,21.023900196334406 90.1130019513768,20.710790391167755 89.93082897386077,20.397680586085933 89.82408699479777,20.101649497145207 89.6831875824346,19.737303542197974 89.6077565838119,19.378650492291783 89.6077565838119,19.019997442724915 89.70026629908467,18.65565148743836 89.8582444280131,18.29699843787149 90.01052965147632,17.961117010504733 90.0617658015114,17.813101466034368 90.08169097085165,17.75617241078859 90.24536200549976,17.448755511002304 90.46738532186599,17.129952799946302 90.613977639864,16.79407137257954 90.71787316606716,16.435418323267168 90.72641252447704,16.0767652737003 90.71787316606716,15.854741957164418 90.70079444941709,15.809198712424877 90.680869279992,15.763655468279154 90.49869630239114,15.45054566285801 90.45884596362578,15.359459173972747 90.4488833788284,15.313915929742194 90.44034402058819,15.228522346322126 90.44461369966588,15.114664235491249 90.46026919009812,15.057735180160641 90.46596209556331,15.000806124660372 90.51862147190106,15.012191935760427 90.56416471621644,15.012191935760427 91.01248102828106,15.04065646342573 91.48214573615829,15.052042274525784 91.94469431209798,15.012191935760427 92.09270985639868,14.972341596740575 92.13682987449621,14.94956997479496 92.17668021326158,14.921105446875163 92.21368409942158,14.886948013490171 92.46559516992545,14.562452397308297 92.49975260331044,14.471365908423033 92.50402228247296,14.425822663683494 92.49405969776042,14.06716961437112 92.44282354772534,13.70851656480425 92.39728030340996,13.349863515152553 92.39585707693762,12.985517559611504 92.42147515199757,12.763494243414945 92.60507135598594,12.450384438248292 92.81428563494943,12.142967538546836 92.96514763194031,11.784314488895138 92.97368699035019,11.738771244494922 92.9964586125503,11.391504006028109 93.01069087634053,11.271952989223049 93.05765734729792,11.215023933892441 93.09181478051325,11.19225231143784 93.39780845374236,10.964536089776086 93.48889494262762,10.822213451025412 93.50170398011518,10.782363112005562 93.51308979121524,10.42371006209937 93.5202059232376,10.309851951014 93.53159173425283,10.270001612248642 93.63833371331583,9.89996275158172 93.67818405216602,9.547002607395218 93.68387695763121,9.18834955782835 93.72515052286892,8.886625563507259 93.73226665489128,8.829696508515974 93.7237272964814,8.607673191980092 93.61271563825588,8.254713047539097 93.50597365919288,7.901752903607087 93.4419284718399,7.554485664885781 93.43765879259256,7.1958326153189125 93.45046783008011,7.01935254352257 93.46754654673019,6.9738092987830305 93.64402661886587,6.6151562494706555 93.76784731457894,6.256503199903787 93.89309123667954,5.903543055717285 93.91870931156983,5.863692716697434 93.94717383948962,5.829535283651765 94.23181911699098,5.561968722376343 94.49938567767258,5.271630539749123 94.7157160885736,4.93574911212787 94.93631617872198,4.6055605898869825 95.13699109936043,4.269679162520222 95.33054988797652,3.9394906408731516 95.52410867676227,3.620687929732318 95.63369710851545,3.273420691265504 95.63512033498779,2.9147676419531288 95.65362227802538,2.567500403486315 95.69062616418539,2.2885480311108393 95.78313587920366,1.9469736983637143 95.89699399028903,1.5997064595575767 96.04927921366742,1.2581321268104517 96.25137736069338,0.9450223213893069 96.50471165766957,0.6205267048681081 96.56875684510739,0.552211838691939 96.95587442250921,0.31880271080150996 97.38995847069877,0.22771622217074033 97.8539302731108,0.22202331653588248 98.33071111284073,0.13662973362480163 98.811761631818,0.05692905583959325 99.30277473550782,0.017078716819742698 99.79663429197267,0.00569290597418148 100.29049384852235,0 100.76015855639956,0.017078716819742698 101.21986067947941,0.10816520570500501 101.6809860290316,0.2334091276359364 102.13357202025874,0.34726723846681384 102.54488444633301,0.489589877217488 102.9647362306475,0.6148337997422356 103.38458801487717,0.7457706270535323 103.8030165729738,0.8994790772435839 104.19867350861585,1.0588804322201844 104.50039750268245,1.1784314487707506 104.60429302897045,1.223974693425459 105.01418222857238,1.383376048741383 105.93500970128925,1.6338638931970622 106.40325118277896,1.7534149097476284 106.87006943788117,1.8786588316785597 107.33404124020836,2.0095956593291797 107.79658981614806,2.0779105259295036Z"/></svg>