<svg xmlns="http://www.w3.org/2000/svg" width="256" height="256"><path d="M140.94142548707256,2.557579691642505 142.0612697022926,2.6370525068085287 143.20278832178587,2.5070060820305473 145.35216673476188,2.6948509179166606 147.04096405943528,3.995315167741976 147.54850635687092,4.522725669103681 147.88807202213118,4.797268121759651 148.37935851665796,5.180182595243369 152.1001312316363,8.221823980131797 152.53723171564155,8.5108160355648 153.10799102533437,8.80703289227866 153.704037139887,8.987652926991574 154.25312204541424,9.096024948465269 154.30550185548097,9.096024948465269 156.2796788348931,9.067125742803544 157.1520736025565,8.886505708090631 157.60181748899163,8.792583289501627 159.37370002963297,8.279622390916954 163.56589103531968,7.463219834122246 167.56120620306166,7.412646224510288 172.65288498161868,7.1742277790122175 179.5236711020979,6.776863702428493 179.68984153403377,6.755189298047627 180.20280243261843,6.690166085658636 181.16008861659688,6.567344462484487 186.0115427489857,6.133856378742865 190.1856717513088,6.422848434175868 190.63722183809108,6.661266880427545 190.70766365152144,6.625142872946673 190.77629926471235,6.610693270492613 190.9280200938712,6.545670058103622 191.02736111307095,6.502321249664865 191.1393455344853,6.466197242937598 191.37053917891785,6.401174030548607 191.90517448166807,6.1916547901739705 192.0009031000659,6.177205187396938 192.10024411915802,6.177205187396938 192.1616549309604,6.184429988677796 194.78787023568614,5.425825842668246 195.27554432941102,5.216306602724241 195.62594719686172,5.107934581896493 195.67832700692847,5.09348497911946 195.7451564196646,5.06458577324242 195.8264354352854,5.021236965234295 195.87700904500502,4.999562560530456 195.94022605715455,4.970663355299363 195.9998306686098,4.941764150068272 196.46583035816911,4.631097689823771 196.85958203395091,4.2698576203979455 197.2063725005997,3.995315167741976 197.72836440081238,3.7279975162592067 198.02458125774154,3.5618270847539586 198.49058094730086,3.287284631990331 198.96741783905063,2.991067774630522 199.1028828650853,2.8971453566874654 199.45147953197358,2.680401314816654 199.5526267514128,2.5937036988004034 199.597781760091,2.5648044931386793 199.7007351798774,2.5214556844846063 199.7729831938702,2.5214556844846063 199.98972723541806,2.5792540959157124 200.0511380473281,2.6009284996506303 200.10351785739485,2.6370525068085287 200.20647127707355,2.7237501235783848 200.31303709755417,2.795998137140576 200.35999830668717,2.8248973426946424 200.42682771953096,2.85379654867934 200.49726953317665,2.875470952629574 200.6941453707984,2.9838429734573215 200.86934680446993,3.063315788623345 201.1764008634819,3.1789126109472674 201.23239307435054,3.193362213401327 201.48345492249385,3.229486220882199 201.55570293648665,3.2367110220553994 201.6767183597443,3.2656102277171235 201.86095079504383,3.301734234767364 201.9205554064991,3.316183837652055 202.35584969026488,3.4462302624300363 202.42448530334812,3.467904666703244 202.64303554535073,3.547377481546294 203.2878490693835,3.677423907077881 203.87305798174566,3.7279975162592067 204.18011204075762,3.7279975162592067 204.57747611712603,3.785795927474997 204.79602635912866,3.80024553025203 204.9025921796093,3.7930207289711713 205.80569235317384,3.9230671541797846 206.79910254409486,3.80024553025203 207.3752804549367,3.7279975162592067 208.493318469702,3.699098310705141 209.1345195930405,3.7930207289711713 209.85699973189213,3.9591911609070514 210.5126504579,4.132586394446763 211.27125460358658,3.988090366568775 212.15809897402698,3.96641596218791 213.0124317383267,3.894167948195087 213.47120662649752,4.2698576203979455 222.67199119466565,10.634907644111628 223.1470218859606,11.37183738541734 223.78280440815007,12.397759182479026 224.30299010812325,13.214161739704368 224.6317185714084,13.770471446620139 227.1911044632904,15.95958626755596 227.94429000793556,15.95958626755596 228.3922276940236,16.501446371694698 231.30382265359574,18.589413972653 234.77714592123274,21.060296047525647 237.49367124331494,23.018217224136595 238.07707395532998,23.49505411556337 238.28117459455558,26.002060197163285 238.66047666756035,30.93659954584304 238.75439908550342,31.572382068032496 238.2324071851831,32.93064472864297 237.90909732304698,33.747047285437674 237.74112069087164,34.16608576640227 237.72847728833406,34.2166593763372 237.75557029364867,34.28168258872619 237.87477951645153,34.32503139673431 238.24143818691874,34.368380205388384 238.54487984523644,34.39727941105011 238.90431371431512,34.39727941105011 239.1788561671864,34.38282980827308 239.71349146993663,34.33225619833814 241.20180055597103,34.33225619833814 241.54136622123133,34.339480999511345 241.09342853503563,36.210704559029466 240.9976999166378,36.61529343721703 241.10426573722606,36.86093668431893 241.00131231754736,37.15715354135576 241.70934285340667,37.58341682317058 241.79423426972173,37.648440035882544 242.38847418392723,38.19752494087151 242.66301663679852,38.370920174734195 242.85266767335472,38.45761779107342 244.19648073140348,38.37814497558442 245.41747216617043,39.55578760212793 245.96113847054863,39.758082040898735 248.1936020997079,38.68158663422509 250.8324608067559,37.142703938148095 254.02762922093498,37.93020728971171 254.36177628504623,38.00968010530837 254.9632410006402,38.161400934359555 255.4418840927371,38.27699775636051 256,38.414268982419344 253.81810998056037,42.66967700068621 251.09616605743676,47.98713082220373 248.41034614125573,53.21788702759735 248.3362919271311,53.37683265836003 247.9389278507627,53.66582471379303 247.67161019927994,53.875343954382984 247.3067577292675,54.135436804369576 244.76182144016255,56.035559569441766 243.87678326996163,56.700241297077625 242.9140784849418,57.42994623721013 240.4161034048622,59.554037845756966 238.83387190099242,60.90507570540955 236.48761764985636,62.89912088853245 233.93003795832152,65.10268531224531 232.6404109104713,66.17918071859597 229.92569178873623,68.41886914946673 227.65349175204778,70.26841830460398 224.72564098935146,72.66705236548381 223.954393441235,73.27393568201154 227.5559569333028,74.19871026027994 229.05329702107286,74.581624733656 232.39838006406367,75.4413760985665 234.35268883954973,75.9471121958703 235.57729267490328,76.27222825878418 237.97773293623789,77.30537485712674 239.24387937957542,77.84723496126547 239.90314250627753,78.11455261242527 240.33301818889427,78.29517264713817 240.62742884547632,78.4035446682889 240.9019712983476,78.50469188740516 241.1096843381598,78.60583910727502 243.7070004373315,79.80515613723047 245.03275149223194,80.4553882628429 244.21996133602383,81.32958923074574 241.12774634173874,84.63854826647099 237.3401442137013,88.68443704404025 234.9866651614997,91.22756713290572 233.77109232777414,92.53525618390424 231.44470628067182,94.96278945033812 229.2050178502317,95.38182793130271 229.41273089015155,95.8442152198448 230.5127069015532,98.07667884911172 230.7294509432087,98.42346931576051 230.3013814609391,100.56201052643843 229.89137398224844,102.46213329215655 229.815513567669,102.85227256724411 229.591544724625,103.88541916558665 228.54756092387672,105.87946434892487 227.24709667394373,108.29977281386259 227.1206626496447,108.56709046534536 227.03035263228824,108.76938490433147 226.89669380670833,108.97167934277931 226.86960080139374,109.1161753706573 226.84973259757533,109.44851623452905 226.87140700174086,110.09152355821469 226.86418220035236,110.16377157209985 226.82625199306264,110.25769399047354 226.70523656980498,110.46721323041754 226.50294213092653,110.85735250507446 226.33677169899065,111.36308860237827 226.09835325327725,112.3239871874816 225.78588059311627,112.72135126374235 225.502307138617,113.08259133316818 225.18983447856365,113.39325779298204 225.08146245784357,113.66057544435716 224.8719432175766,113.61000183442222 224.67867978032612,114.13018753461073 224.54140855405197,114.26745876056191 223.99412984876417,114.70094684398056 223.67804478801656,114.93936529023225 223.4721379485515,115.27170615399635 223.21023889832546,115.65462062715709 223.34751012449195,115.83524066187 223.47755654948523,115.98696149135182 223.6166339764295,116.16758152606474 223.66178898510773,116.24705434123075 223.67804478801656,116.30485275233889 223.70875019391778,116.58662000627572 223.70694399378596,116.76724004098863 223.69971919218213,116.96230967847858 223.68888199009936,117.05623209685227 223.6437269814211,117.21517772718431 223.58231616961874,117.3235497479044 223.5498045633704,117.48972017984028 223.49381235271707,117.94488266753214 223.44865734403882,118.29167313418093 223.40169613490582,118.6167891968795 223.3384791227563,119.05750208147134 223.27345591025966,119.46209095890529 223.21565749925918,119.86667983666221 223.20843269787065,119.93170304937418 223.15785908804338,120.04729987137513 222.9664018512477,120.67585759228372 222.79661901861755,121.31886491564637 222.32158832743025,123.18286367420662 221.73276701426616,125.37197849481946 221.66955000200898,125.72599376307208 221.6081391902066,126.00776101690126 221.5539531799004,126.2389546615491 221.54492217816474,126.49904751185866 221.5539531799004,126.8458379783998 221.5413097773628,127.31545006865338 221.47628656486617,127.40214768542323 221.55937178094177,127.62611652814427 221.72915461346423,128.00180620002416 221.7761158224896,128.06682941273613 221.92964285210323,128.15352702950597 222.10845668636136,128.28357345460694 222.26920851736352,128.377495872227 222.43176654849748,128.521991900105 222.55820057279652,128.69538713364472 222.70992140195537,128.90490637358872 222.92485924326374,129.2516968405605 222.98988245586804,129.38174326533846 223.05129326767042,129.54068889631645 223.0603242692984,129.6201617111595 223.0603242692984,129.79355694469922 223.0783862727697,129.9236033694772 223.2264947012343,130.34986665129202 223.35473492588045,130.6966571182638 223.40530853570775,130.72555632349489 224.16210648104718,131.0651219888628 225.00018344222275,131.4335868595695 225.63596596430455,131.7153541141523 226.1128028560543,131.9609973612542 226.71607377199544,132.1994158070752 227.24348427335713,132.5028574653929 227.9731892135973,132.92912074720775 228.57284772873652,133.12419038469767 229.36938208182045,133.3770584337264 228.97201800545204,133.91891853786512 228.72637475835015,134.2584842025871 228.30011147632,135.24828199324452 228.04001862644108,135.81181650133348 227.77450717530544,136.40425021540716 228.27663087180733,136.5126222362349 228.1628402499382,136.69324227094782 227.96235201140686,137.02558313438894 227.25432147533226,138.1671017538822 226.9870038240648,138.6222642412511 226.59867074932438,139.21469795500178 226.4632057232897,139.42421719559175 226.38373290812368,139.57593802442761 226.215756275733,139.90827888862236 226.11822145698804,140.09612372450846 226.05861684553275,140.19727094437832 225.95927582644066,140.36344137599124 225.86715960873707,140.56573581508502 225.77143099033924,140.86195267212184 225.6883457743713,141.064247110785 225.4734079331706,141.29544075543285 225.31446230251558,141.4616111873687 225.10494306235626,141.6928048313706 224.97309043690817,141.96734728434956 224.82498200844358,142.22744013465913 224.7364781915419,142.37916096371032 224.8322068098321,142.53810659415 224.85568741445243,142.74040103313615 224.93877263042037,143.36173395254855 224.97309043690817,143.5857027952696 225.059788053678,143.81689643991743 225.16635387415863,144.14201250218537 225.23498948724188,144.45990376360308 225.27111349429214,144.59717498955425 225.45534592959163,145.22573271046284 225.4842451351457,145.40635274517575 225.5149505410469,146.14328248680445 225.52036914219593,146.74294100248196 225.50772573965838,147.08250666720394 225.46257073098016,147.22700269508192 225.42283432355862,147.5015451477379 225.40115991917776,148.49856773967613 225.35239250991293,151.27289147275883 225.2945940988048,152.81899897000903 225.2909816980029,152.90569658634826 225.25485769116796,154.28563365198553 225.23498948724188,155.23930743483908 225.31988090355696,155.62944670981898 226.05681064518564,158.10755358661842 226.16879506670764,158.4109952445055 226.16337646566626,158.4832432588213 226.14531446241028,158.60606488199542 226.12183385778994,158.95285534864422 226.12183385778994,159.09735137619924 226.13808966080646,159.16959939051503 226.1742136678567,159.26352180813512 226.28077948844498,159.47304104872507 226.2699422861469,159.71868429614995 226.22659347792344,159.8198315150509 224.8051138047328,160.61455966821833 222.82009962313023,161.66938067094176 222.53833236908577,161.65493106805707 222.61599898390466,160.64345887344945 220.75561262646931,160.37614122228965 220.69058941386498,159.47304104872507 220.52622518227625,158.9962041572983 220.14150450833773,157.9197087499787 219.93740386911216,157.35617424210506 219.82180704700355,157.05995738474525 219.7784582387801,156.91546135686727 219.45876077712293,156.0123611833027 219.33593915351815,155.65112111387685 219.1282261135983,155.05868740012616 219.05778430006026,154.89251696819028 217.4376225887931,155.30433064722808 217.0944445227309,154.8202689546281 218.06076170855263,154.56740090559938 217.30035136241128,153.49090549924873 216.44963099891345,152.2626892629856 215.8264918791539,151.39571309657893 215.70547645589625,151.27289147275883 215.28101937421326,151.3812634934789 213.8342528961628,151.67748035019278 213.56332284409345,151.15006984883107 213.38631521018246,150.86830259521722 213.29781139317313,150.75270577257032 213.22736957952742,150.68045775900814 213.16415256737793,150.64433375185024 213.1099665570717,150.63710895056937 212.99798213544204,150.62265934779234 212.85348610777936,150.5720857378574 212.64938546855376,150.48538812151818 212.25743999322674,150.30476808680527 212.43083522655115,150.12414805209235 212.92392792120975,149.6762103655737 213.30684239480112,149.37276870757898 213.5109430340267,149.2210478785278 212.26827719520188,149.2571718856857 211.94316113282628,149.26439668653592 211.04728576065023,149.3366447008517 210.3284180223852,149.38721831046368 209.2790156208108,149.40889271473688 208.6089152920259,149.28607109091678 207.5884120957903,149.06210224808808 207.3102572423324,148.78755979478618 206.73046693090396,149.41611751601775 206.38548266460228,148.88148221337516 205.7153823358174,147.84833561438668 205.3252430608375,147.28480110662068 205.25841364810137,147.22700269508192 204.9025921796093,146.99580905043408 203.7809417640421,147.19810348952785 203.31674827493757,147.34982431900968 203.07110502783564,147.4292971341757 202.98260121061102,147.45097153855656 202.90674079603158,147.45819633940678 202.4100357005711,147.47987074378767 202.3377876866859,147.48709554496085 202.25831487162753,147.5232195517958 201.99460962083904,147.6749403812776 202.01267162420268,147.96393243703358 202.00725302326893,148.0217308479264 201.19807526764743,148.04340525187664 200.80251739162614,148.0217308479264 199.91025442035968,147.94225803276038 199.62487476529796,147.92780842987568 199.1642936768877,147.9494828339336 198.94935583547166,147.97115723831445 198.89336362481833,147.9856068407685 198.32260431501786,148.15177727302736 198.16365868457817,148.18790128018526 197.8620232266076,148.0578548550843 196.64103179184065,147.51599475094557 196.29243512484473,147.68938998373167 196.06124148041218,147.66771557967377 195.91674545264186,147.6388163741197 194.87095545165408,147.5232195517958 194.0274598895448,147.42207233289483 193.31762315333836,147.34982431900968 192.73783284180226,147.27757630469387 192.2736393524824,147.2197778939087 191.00749290914487,146.98135944765704 189.60226903907844,146.69236739254703 187.10790635980075,146.87298742725994 186.37820141956058,146.91633623526806 185.6828142858082,146.85131302287905 185.3956284306147,147.23422749668575 184.95130314522092,147.76886279922067 184.6171560811097,147.7977620050977 183.77546671923986,147.82666121075943 182.5779558892009,147.76886279922067 181.76697193323227,147.71828918928574 181.3912822610294,147.7038395865087 180.79162374578254,147.81943640883262 180.05108160345958,147.9494828339336 179.37556267363328,148.04340525187664 178.99987300143044,148.1228780674733 178.7054623448484,148.22402528658955 178.32074167090988,148.40464532130247 177.6939901506714,148.5491413496111 177.14490524492882,148.69363737716608 176.07202223873412,148.939280624268 175.194208870137,149.10545105620386 174.68847277294086,149.20659827575076 174.51868994020307,149.2210478785278 174.29291489681194,149.02597824103785 173.59391536247296,149.28607109091678 173.41510152810716,149.34386950170196 173.06469866087178,149.54616394079574 172.04058306404957,150.10969844931532 171.5601337717132,150.37701610036746 170.87197143934935,150.73103136862008 170.58117318356923,150.89720180087895 170.09530529008381,151.15006984883107 169.64014280271493,151.3379146854708 169.557057586747,151.28011627393204 169.32405774196735,151.33068988354398 168.9989416794841,151.41016269935596 168.7424612300841,151.48241071270283 168.5618411953712,151.53298432263776 168.40831416586522,151.60523233695358 168.0813919031425,151.7714027687818 167.57023720490497,151.44628670586792 166.75383464789493,151.69192995296982 166.68881143550595,151.72082915884684 166.29686596007127,151.28011627393204 166.07289711713491,151.04892262993013 165.35222317852273,151.20786826036985 164.26308436920388,151.46796111024878 163.96325511158042,151.49686031547986 163.56589103531968,151.53298432263776 163.40875160511945,151.53298432263776 162.54538783908407,151.42461230224066 159.46581624733656,151.04169782843397 154.7317651375111,150.47093851874115 151.9773096081392,150.11692325048853 151.66122454739158,150.12414805209235 151.47337971129016,150.29031848402823 151.09769003919496,150.6298841490732 150.63891515080886,151.0200234240531 150.22529527131627,151.345139486644 149.53171433812636,152.1398676391655 149.33845090087587,152.3638364822095 149.19214867286607,152.5300069141454 149.08377665193066,152.70340214800808 149.00069143596272,152.8767973807942 148.95011782635078,152.9923942031181 148.883288413507,153.25971185460088 148.86161400934145,153.50535510202576 148.86703261027517,153.6570759311846 148.68460637521514,153.88104477390564 148.51121114189073,154.16281202816543 148.19512608114314,154.6613233241884 147.7309325920386,155.29710584637783 147.45277773858072,155.64389631302663 145.06136847898176,157.2116782139041 144.15104350402868,157.65239109849594 144.36417514488224,157.93415835275573 144.88797324565735,158.61328968359928 145.16432189866046,158.9384057458672 144.41836115529614,158.96008015024807 143.97584207035715,159.0467777665873 143.23529992792655,159.155149787738 142.98604428002272,159.21294819852318 142.81264904669834,159.2562970072849 142.54533139532322,159.31409541807005 142.17867272496366,159.35021942522795 142.02514569535003,159.37911863045903 141.96915348458901,159.42246743879014 141.89148686977012,159.44414184284804 141.8065954533474,159.49471545278297 141.64042502141152,159.639211480338 141.4959289936412,159.77648270704276 141.37310737014408,159.87040512498584 141.02270450269336,160.15939718084945 139.87034868122498,160.8529781137164 139.5849690263786,161.02637334725614 138.48679921532406,161.82110149999295 137.24232717625975,162.73142647483837 136.6011260530289,163.2010385649843 136.47107962792796,163.32386018891205 135.8605839105983,163.93796830661296 135.28079359916987,164.48705321203258 135.17061537810264,164.6098748362833 134.9285845314797,165.02168851489046 134.81840631041246,165.20230854960334 134.71364669027898,165.36125418036605 134.64501107708807,165.48407580418615 134.59804986795504,165.68637024263396 134.59624366760792,165.78029266057703 134.6323676745505,165.86699027734687 134.71725909086558,165.9536878944397 133.47820565284266,166.88568727323536 131.66297430387021,168.23672513331857 130.72916872440445,168.9375308674664 130.09519240256213,169.39269335483527 129.53165789425785,169.80450703419604 128.2221626425892,170.5992351870405 127.51413210651461,170.83765363253858 127.18179124264284,170.93880085208548 126.79526436846487,170.9532504548625 125.9228696008015,171.0254984691783 125.20038946194985,171.06162247601324 124.41649851129581,171.1194208867984 123.65428196469966,171.1988937019644 123.25149928739752,171.20611850389122 121.45974854304542,171.3361649286692 121.02626045962677,171.3361649286692 120.69753199644927,171.32171532589217 120.2279199061957,171.39396333977734 118.26999873012304,171.70462979926822 117.06887549906685,171.892474635262 116.2416357400817,172.03697066313998 115.42162078248509,172.18869149229883 114.28010216320713,172.7161019939835 113.96582330269901,172.9906444463165 113.82313347527581,173.0845668649055 112.37094839618399,173.95154303141985 111.09577095121848,174.58732555350164 107.39847884053749,176.2996034826877 106.46828566187365,176.71141716204846 105.05222458972442,177.26050206703744 102.80711755813525,178.9149815850077 101.10928923194153,178.5031679062929 98.56796534342318,177.85293578078813 96.37885052270268,177.2821764714183 94.21682870729677,177.55671892407426 91.110164110127,177.91073419221922 89.78441305544189,178.08412942543598 87.89693369258428,178.29364866570293 87.4417712052154,178.42369509048092 86.70664766404151,178.61153992712065 83.26222360185093,179.47851609320435 83.23874299733826,179.18229923649048 83.01477415429424,179.1750744352096 83.07257256540238,178.82828396866847 83.05270436158396,178.46704389924267 83.0328361578732,178.12025343259387 82.92988273797918,177.80958697310297 82.89737113183851,177.7084397535561 82.90820833381363,177.59284293123216 82.96961914561602,177.4338973009001 83.07257256540238,177.3038508753685 83.36698322198443,177.0582076285896 83.64333187520285,176.85591318960348 83.75892869731145,176.79088997721448 84.26285859416048,176.55969633256663 84.47057163418799,176.4513243117389 84.67647847365305,176.34295229069582 84.85709850836597,176.18400666068675 84.98172633242552,176.046735433659 85.08648595255902,175.89501460450015 85.1135789576583,175.81554178933413 85.1135789576583,175.71439456978723 85.0810673516253,175.64214655654803 84.97269533058223,175.54822413817433 84.65841647028941,175.30980569235328 84.34775001047555,175.12196085603654 84.1960291813167,174.99913923286238 84.14184317090283,174.94134082132362 84.03888975111647,174.76794558821453 83.9539983348014,174.6089999578825 83.92871153004924,174.52952714260883 83.95580453514853,174.40670551878873 84.02082774764517,174.2911086964648 84.1653237754155,174.07436465459398 84.25202139218536,173.944318229816 84.31162600364063,173.8720702158232 84.3784554164844,173.82149660664186 84.50308324032865,173.78537259948396 84.72163348233127,173.76369819510307 84.88057911287864,173.75647339382223 85.09551695429467,173.7781477978801 85.22917577998221,173.79259740098013 85.3989586125047,173.77092299670693 85.52178023610948,173.71312458516815 85.66627626398747,173.590302961994 85.86495830206401,173.37355892044616 85.97694272358602,173.2651868996184 86.17381856142309,173.0990164677902 86.45377961522811,172.9111716311505 86.66149265536328,172.73055159643758 86.91436070374604,172.52825715798974 87.00105832040823,172.4776835480548 87.18348455546828,172.40543553416964 87.42190300128932,172.32596271900363 87.66212764756516,172.22481549945672 87.80662367522783,172.15979228706775 87.91499569605558,172.09476907467874 87.99446851132926,172.01529625951272 88.07574752705773,171.8635754300309 88.10103433180988,171.7190794024759 88.0775537272972,171.60348258015196 87.96556930577519,171.40118814105819 87.83552288099722,171.2711417162802 87.77591826932664,171.1988937019644 87.74521286364076,171.1194208867984 87.73618186179745,171.0543976744094 87.73979426238405,170.93880085208548 87.77772446967376,170.79430482453046 87.88248408980725,170.64980879697544 87.95292590334529,170.57756078265965 88.12632113677735,170.48363836503955 88.44240619752495,170.32469273427688 88.95717329634908,170.06459988407497 89.12695612897922,169.97790226773574 89.2335219495675,169.87675504818887 89.338281569701,169.7539334242611 89.41775438486701,169.63111180108694 89.51167680302538,169.501065376309 89.58392481680289,169.42159256071233 89.64533562860528,169.38546855398505 89.70855264086246,169.37824375205824 89.79705645787179,169.38546855398505 89.94155248564212,169.43604216359702 90.107722917578,169.52273977993624 90.38407157068876,169.73225902063385 90.86813326371936,170.20187111045678 91.12641991325117,170.40416554987354 91.25285393755021,170.32469273427688 91.3792879619569,169.96345266485105 91.80555124377172,168.85083325069655 91.91934186574852,168.46069397571665 92.28961293690999,166.95071048562434 90.46535058620191,166.22100554581482 89.78802545602848,165.96813749721673 86.98841491797833,164.92776609694738 85.54345464027503,164.3570067872546 84.90044731691238,164.11136354015267 84.79026909552218,164.06078993021774 84.7234396826784,164.03189072498665 84.61326146161119,163.95241790982064 84.48863363755162,163.87294509454696 84.43806002783201,163.822371484612 84.4073546219308,163.77179787510772 84.39832362019516,163.71399946356897 84.36400581370737,163.62730184712208 84.26285859416048,163.54782903163309 84.17435477715115,163.4611314151862 83.99554094289303,163.32386018891205 83.88536272161049,163.21548816776132 83.8058899063368,163.09989134576037 83.71016128804662,162.9915193247173 83.64513807544232,162.94817051670918 83.58011486294566,162.93372091393215 83.52051025159807,162.94817051670918 83.41033203053084,162.96262011948622 83.32363441365334,162.97706972194027 83.25138639987583,162.96984492098238 83.18997558807344,162.93372091393215 83.12314617522965,162.8542480983355 83.0797973667909,162.7820000847733 83.04547956019545,162.65195365967233 83.05631676238588,162.52190723489437 83.08521596793994,162.40631041257043 83.11230897303922,162.26903918586567 83.10869657245263,162.18956637069962 83.07257256540238,162.13176795948385 82.97323154641794,162.00172153470587 82.87930912825956,161.91502391836664 82.7167510971256,161.80665189689293 82.4963946546682,161.67660547211494 82.04303836753878,161.49598543740206 81.68360449846008,161.33703980707 81.58606967971511,161.3009157999121 81.37113183840674,161.25034218997718 81.22844201098354,161.20699338196903 81.0369847742955,161.14197016958005 80.83830273600366,161.10584616242215 80.55834168219863,161.0841717580413 80.11943499795392,161.05527255248722 79.82863674195846,161.02637334725614 79.59021829613742,160.96857493636332 79.12421860657811,160.8746525177743 78.99055978099821,160.83852851093937 78.93095516954294,160.76628049737718 78.8135521468719,160.54231165390254 78.75936613667334,160.36169161918963 78.75214133506951,160.24609479751166 78.75575373576376,160.09437396846047 78.82438934906233,159.77648270704276 78.87315675832716,159.61753707671073 78.8785753594762,159.45859144562507 78.86773815728577,159.3429946239471 78.82438934906233,159.23462260290404 78.68350572198625,159.010653760183 78.59138950428267,158.88060733465142 78.4288314729334,158.6999872999385 78.31504085117191,158.54826647121027 78.19402542791426,158.4109952445055 78.1380332170456,158.29539842218156 78.10190921021068,158.1942512026347 78.13080841565709,158.07142957946053 78.12538981472335,157.97750716108683 78.08384720663173,157.86913514036675 78.00979299239943,157.69573990725766 77.97186278510972,157.52234467371795 77.94296357955565,157.35617424210506 77.91406437410924,157.26947662544285 77.8038861528267,157.13943020023424 77.644940522387,156.9660349668022 77.56185530641906,156.84321334362804 77.5672739073528,156.70594211692324 77.5763049091961,156.56144608936825 77.55463050503054,156.4458492670443 77.46432048767409,156.34470204749744 77.34149886396166,156.2724540338276 77.29634385528342,156.2363300266697 77.28008805215927,156.14240760840366 77.25299504705998,155.86786515574767 77.23132064289443,155.74504353246587 77.26925085029181,155.5210746890989 77.30176245632481,155.210408229285 77.29273145458917,155.08758660568023 77.32704926129227,155.0297881945721 77.51308789693893,154.80581935185106 77.68287072967672,154.62519931713814 77.71538233581738,154.56740090559938 77.72983193859442,154.5023776932104 77.72080093707409,154.44457928242525 77.68106452932959,154.30730805572045 77.63771572099849,154.17726163094247 77.5492119038815,153.98219199345252 77.43000268097099,153.8087967599128 77.26925085029181,153.5776031159109 77.11933622126477,153.3753086769248 77.05792540957005,153.2813862585511 77.0181890019332,153.16578943655017 76.93149138516334,152.91292138795208 76.88994877717937,152.74675095569322 76.85382477034445,152.60225492846118 76.81589456305474,152.53723171574921 76.76170855253321,152.51555731136835 76.6244373261514,152.48665810613727 76.56844511549805,152.45053409897938 76.51787150567077,152.3927356881942 76.49077850046383,152.3277124758052 76.44201109109135,152.25546446148942 76.35170107373489,152.16876684471956 76.23971665221289,152.09651883115737 76.08077102166553,152.0387204196186 76.00310440684663,151.98814681000664 75.92905019261434,151.90144919355976 75.86402698001002,151.8581003849057 75.76829836161218,151.80752677529372 75.67979454471052,151.78585237166646 75.6039341301311,151.77862756973968 75.54794191926243,151.74972836450857 75.47930630607152,151.6847051521196 75.33300407806172,151.64135634335787 75.20476385341556,151.61968193973058 75.06568642657895,151.61968193973058 74.9320276008914,151.6485811449617 74.74418276478997,151.7280539601277 74.42267910310863,151.90144919355976 74.17342345520483,152.0387204196186 73.96751661552445,152.10374363233058 73.84469499202731,152.1326428382076 73.72006716796776,152.1326428382076 73.41120690860868,152.1326428382076 73.03551723640581,152.1398676391655 72.73568797878238,152.15431724194252 72.54423074198668,152.1832164474966 72.37625410981134,152.23379005710856 72.20285887648694,152.30603807142435 71.85245600903623,152.50110770859132 71.79104519723384,152.53723171574921 71.79104519723384,152.65282853807315 71.7386653871671,152.70340214800808 71.60320036113241,152.71785175046213 71.52553374631351,152.7828749631741 71.27447189795491,153.028518210276 71.17693707920994,153.11521582704586 71.12094486844893,153.15133983377314 70.91323182852908,153.2813862585511 70.81930941058603,153.35363427254393 70.72899939322957,153.44755669048698 70.58811576604585,153.5920527187956 70.48516234625949,153.71487434196976 70.45084453987934,153.77267275350852 70.42917013549848,153.8376959658975 70.43278253619273,153.89549437668268 70.46890654313532,154.00386639740276 70.57547236361594,154.10501361727262 70.61882117194703,154.14113762378457 70.59172816684776,154.19893603532333 70.32260431512552,154.2350600420506 70.09502307138725,154.26395924771234 69.78255041122625,154.27840885048937 69.52787616228105,154.27118404888552 69.19372909816981,154.2928584532664 69.0546516713332,154.27840885048937 68.54530317355045,154.20616083617355 68.35926453768849,154.17726163094247 68.24547391592702,154.16281202816543 68.10639648909041,154.1555872265616 67.90771445090621,154.1555872265616 67.78669902786388,154.14113762378457 67.71083861317679,154.08333921299942 67.65484640230814,153.98219199345252 67.58259838853063,153.9243935825597 67.53202477870336,153.86659517145156 67.4688077666615,153.8087967599128 67.429071358917,153.77267275350852 67.35682334513949,153.6570759311846 67.27012572836963,153.4403318893138 67.22677692003853,153.303060662609 67.18884671274881,153.19468864221187 67.17800951066604,153.13689023067312 67.1906529132036,153.07186701828414 67.21232731736916,153.00684380589513 67.22316451934428,152.94182059318317 67.21413351771629,152.8767973807942 67.17981571101318,152.77565016124728 67.10214909608662,152.63837893529612 66.97752127213471,152.3927356881942 66.89804845696868,152.29881327014348 66.82580044297586,152.24101485903535 66.75174622874357,152.19766605027363 66.68311061555266,152.1832164474966 66.5928005981962,152.19044124910042 66.4808161766742,152.21934045433153 66.33632014890387,152.2843636670435 66.02565368941298,152.4433092976985 65.85225845598092,152.51555731136835 65.74749883573978,152.54445651692242 65.61384001005221,152.5733557229071 65.51088659026586,152.59503012653437 65.45489437950485,152.58780532568414 65.38445256607447,152.5661309209803 64.96541408543285,152.4649837017564 64.85704206471277,152.43608449620234 64.66919722861134,152.39996048904445 64.59875541496565,152.37828608498654 64.5463756048989,152.3566116810363 64.45425938719532,152.3277124758052 64.4036857774757,152.3566116810363 64.32421296230967,152.39996048904445 64.00090310017356,152.53723171574921 63.798608661187444,152.65282853807315 63.63063202901209,152.80454936712434 63.36512057787645,153.0574174155071 63.22243075045325,153.15133983377314 63.12308973136115,153.2452622521468 63.068903720947276,153.33195986848602 63.01471771064106,153.462006293264 62.96956270196283,153.54870391003388 62.93343869491259,153.59927751964582 62.85215967929178,153.6570759311846 62.675152045380784,153.7654479515817 62.41325299515472,153.88104477390564 62.299462373177924,153.95329278822143 62.02311371995951,154.2206104389506 61.688966655848276,154.51682729598744 61.224773166528436,154.87084256456302 60.84547109373898,155.0731370029032 60.54925423670214,155.20318342832712 60.419207811708844,155.27543144167402 60.26929318289712,155.32600505160894 60.09409174933326,155.3332298531051 59.806905894139724,155.3332298531051 59.647960263484705,155.3476794559898 59.575712249707195,155.40547786677496 59.51791383849141,155.48495068194097 59.485402232350744,155.5571986962568 59.44385962425911,155.70891952541564 59.34451860516701,156.12795800562662 59.250596187223955,156.7781901308084 59.20363497809094,157.19722861112706 59.18015437357826,157.29837583099692 59.06455755136199,157.48622066688304 58.936317326931146,157.64516629764572 58.82613910554095,157.73186391430792 58.701511281696696,157.79688712637392 58.34027121227087,157.84023593513567 57.951938137530455,157.86913514036675 57.39562843061468,157.85468553758972 57.27461300735703,157.86191033908588 57.122892178198185,157.8908095447476 56.97658995008072,157.94860795553276 56.77790791189652,158.0569799766835 56.51962126236471,158.17980159985765 56.21798580439415,158.30262322410837 56.0662649752353,158.36764643649735 55.912737945621664,158.45434405315956 55.665288498064974,158.60606488199542 55.390746045409,158.7722353139313 55.21735081208461,158.85170812909735 55.09452918837217,158.89505693785907 54.91571535411404,158.92395614341314 54.733289118946345,158.94563054736338 54.59240549197793,158.93118094458634 54.48403347104252,158.88783213593226 54.40636685611597,158.80113451980836 54.42262265924013,158.75056090987343 54.42623506004205,158.6566384916074 54.377467650561904,158.6277392863763 54.274514230775544,158.62051448509544 54.05054538783919,158.62051448509544 53.85186334954733,158.60606488199542 53.5339720884526,158.53381686843323 53.254011034755244,158.4471192516634 53.07700340062893,158.39654564172847 52.90722056810645,158.36764643649735 52.80787954901435,158.36764643649735 52.722988132591624,158.3820960392744 52.67963932436818,158.4109952445055 52.65615871974784,158.46156885411744 52.64893391835933,158.52659206650645 52.603778909681104,158.59884008082224 52.549592899267225,158.6277392863763 52.179321828105756,158.72888650592319 52.060112605195236,158.74333610870022 51.94812818367323,158.74333610870022 51.9120041768383,158.6999872999385 51.922841378813416,158.63496408787248 51.98605839096294,158.5627160739873 52.03121339964117,158.50491766244855 52.004120394541886,158.43266964888636 51.92103517857395,158.40377044322463 51.827112760415574,158.4109952445055 51.71512833889357,158.43266964888636 51.59411291563592,158.46879365604426 51.51644630070937,158.52659206650645 51.489353295502426,158.58439047793755 51.46406649064262,158.6638632935342 51.38639987582373,158.71443690314615 51.308733260789516,158.70721210121934 51.1678496338211,158.6277392863763 50.95833039355412,158.46156885411744 50.89872578220652,158.43989445038252 50.82467156775891,158.4471192516634 50.61695852783906,158.4904680596715 50.55735391649146,158.52659206650645 50.53026091117686,158.6277392863763 50.62418332922758,158.78668491670834 50.642245332806525,158.85893293070117 50.61153992690533,158.92395614341314 50.48871830319289,158.92395614341314 50.38757108375366,158.88060733465142 50.252106057718976,158.8300337254701 50.149152637932616,158.78668491670834 50.04439301779912,158.77946011553516 49.966726402872574,158.78668491670834 49.82042417486277,158.80835932108923 49.693990150563735,158.85170812909735 49.645222741083586,158.89505693785907 49.648835141885506,158.96730495142126 49.674121946637655,159.03232816381026 49.68676534917522,159.09735137619924 49.6524475424721,159.155149787738 49.589230530537904,159.16959939051503 49.48085850949484,159.16959939051503 49.16116104805298,159.14792498613417 48.94622320674461,159.14070018496096 48.78005277480874,159.155149787738 48.68432415651855,159.22739780130019 48.50370412180563,159.2490722053581 48.26528567587693,159.2562970072849 47.974487419989146,159.28519621283897 47.81192938885518,159.29242101401218 47.66020855969633,159.29242101401218 47.49584432810758,159.29964581529302 47.179759267359984,159.32132021967388 46.96120902535736,159.30687061678918 46.80226339481,159.27797141091216 46.56384494909661,159.20572339767293 46.40128691763967,159.155149787738 46.350713308027714,159.1262505820763 46.28388389518393,159.06122736936433 46.105070060710496,158.86615773187438 45.975023635824854,158.7722353139313 45.83955860979017,158.6999872999385 45.729380388507636,158.6638632935342 45.559597555877495,158.6277392863763 45.35910931745382,158.60606488199542 44.95813284039116,158.58439047793755 44.58063696773351,158.5554912720605 43.908730438601474,158.49769286127534 43.38854473862828,158.47601845689448 43.04717287312854,158.47601845689448 42.61007238912329,158.42544484728253 42.28495632653239,158.3893208404476 42.04111927966996,158.62051448509544 41.70155361451734,158.9022817387093 41.30780193873553,159.155149787738 40.53113578947,159.68978509027292 40.33787235243484,159.7548083026619 40.16267091865566,159.77648270704276 39.99469428637265,159.7548083026619 39.32640015793487,159.55251386432172 38.986834492674596,159.46581624755188 38.88929967392962,159.48026585000594 38.76467185008537,159.54528906239491 38.34021476840237,159.86318032381263 37.80738566599928,160.23164519441164 37.14270393825576,160.67958288060734 36.060789930325406,161.41651262191306 35.70135606135437,161.66215586933794 35.48099961889696,161.9005743155896 35.03667433350319,162.20401597347666 34.18053536896398,162.73142647483837 33.7687216899262,163.00596892749434 33.20338098127478,163.30218578453116 31.34480082407891,164.55930122634837 30.59161527932606,165.14451013849524 27.60957850610821,168.03443069390184 27.11467961110249,168.4823683804205 26.86000536215728,168.9736548746243 25.819633962103243,171.5240097645553 25.250680852972884,173.14236527579834 24.58238672431979,174.7534959854375 23.870743787658572,175.3531545003614 23.475185911529636,175.63492175462122 23.395713096255953,175.6999449670102 22.561248535989954,175.93836341326187 18.876599827738872,176.2273554683719 15.20640072237248,176.50189792167382 8.387994411960019,177.0509828270934 5.371639832254372,177.33997488220345 0.5761779106265343,177.8168117739532 0.5707593096928049,177.47724610890825 0.572565510039934,177.02930842271255 0.726092539438252,176.7258667648255 0.8507203634978199,176.25625467392598 0.9012939731097775,175.72884417288725 1.0096659940451833,175.2086584728064 1.033146598450204,174.65234876589062 1.074689206434174,174.2549846893069 1.0530148023762824,174.009341442205 0.8633637658200658,173.51805494767822 0.5400539036839517,172.8461484187615 0.07224801377750724,171.971947450751 0,171.7985522176419 0,171.73352900525293 0.08669761655454027,171.4589865524893 0.377495872549988,171.07607207879025 0.22577504339114116,170.5414367761477 0.30886025935908107,170.23799511761467 0.5346353027502222,169.35656934800036 0.9861853895325046,167.47089618602817 1.4883090859267445,165.37570378314308 1.5858439046717174,164.91331649417035 1.674347721681045,164.6026500343565 2.1963396221090212,162.96984492098238 2.570223093857093,161.75607828728099 3.101245996020715,159.96432754292888 3.314377636874294,159.26352180813512 3.536540279678835,158.53381686843323 4.049501178263507,156.90101175409023 4.36016763786206,155.91121396440175 4.437834252788613,155.60777230586874 4.511888467020907,155.1526098183922 4.600392284030234,154.4734784879793 4.665415496634541,153.9027191782865 4.77017511676803,153.396983081198 4.907446343149844,152.76120055847025 5.093484978796487,151.92312359761766 5.247012008517778,151.17174425321195 5.503492457594799,149.9941016273144 5.87015112816967,148.4118701225833 6.188042389156739,146.7212665977781 6.047158762080667,146.4394993435183 5.131415186193856,144.60439979115807 4.259020418530486,142.906571465072 4.033245375139345,142.41528497022227 4.63109768993143,141.77950244814048 5.505298657941928,140.8475030693448 7.779304894977502,138.4199698029109 10.194194759089147,135.81181650133348 10.483186814737467,135.47947563756938 12.415821186057975,133.3048104194106 15.388826957432522,130.01030098657003 15.69949341724639,129.72130893102937 16.449066561197323,128.99882879217773 17.69895720141068,127.76338775484906 19.62436677145033,125.8126913794113 27.250144637137172,119.55601337717133 31.538064261114066,115.68351983271116 35.33108499008524,112.23006476953854 35.569503435906284,111.76767748056584 37.084905527147626,108.71158649322335 38.04038551077893,106.93428535132531 39.80504325003175,103.45193108184503 39.93328347467792,103.20628783474312 41.78102642968336,99.6733599556509 43.599870179242394,96.03928485776538 43.924986241725634,95.33125432169075 43.9845908531809,94.93389024510704 44.38737353069835,92.36908575196836 44.53548195905528,91.6466056131167 44.656497382312935,90.96747428259614 44.45962154447586,89.3274443674029 44.13269928175314,85.87398930423029 43.81300182020363,82.63727828185192 43.21334330506441,77.5293437002784 42.740118814116585,74.33598148623112 46.68486037213894,73.20891246962255 57.3595044236721,67.811985832939 59.642541662550975,66.65601761034573 62.032144721695154,66.35980075330889 67.73973781873086,65.54339819683716 72.17215347058574,62.06826872853008 81.47950385923448,58.86768171363258 83.02561135648469,60.47881242294879 86.91255450339891,59.00495293969142 89.3491187716761,57.971806341348874 91.38651276334542,56.54852046802644 92.75200022566739,56.41124924132165 93.28121692737622,56.19450519977381 93.83210803335827,55.90551314434081 94.34145653114102,55.61652108880015 95.45046354438597,54.612273696119324 95.87672682620078,54.344956044636554 96.47819154179479,54.04873918759972 96.93696642996558,53.85366955010977 97.46798933212919,53.69472391967007 98.04958584379712,53.521328685915044 98.52281033474495,53.412956665517925 99.31753848758943,53.13118941125812 99.7907629784296,52.82052295176723 100.47170050929728,52.401484470802636 101.64573073493122,51.729577941562944 102.74209434574625,51.043221809869195 103.19183823207375,50.78312895999026 103.5422410994168,50.54471051373858 103.9847601845711,50.154571238758685 104.35322505538544,49.80778077210989 104.55010089322252,49.55491272415776 104.6855659192572,49.33816868228695 104.96913937375648,48.803533379644385 105.16240281079163,48.55066533104631 105.31592984040526,48.276122878282685 105.5073870770933,48.0232548296846 105.78554193055118,47.654789958331975 105.96616196526409,47.30077469083295 106.88913034275474,46.10145766023155 107.33887422908224,43.81842042135268 107.70553289954944,41.8532744438915 108.43162543920302,39.519663595400665 108.88498172633243,38.64546262706719 109.39794262480945,38.35647057195716 110.85012770390126,37.50394400757392 110.902507513968,37.258300760794995 112.36914219594452,35.6543948521137 112.9976999166378,34.83076749371516 113.20541295655765,34.65014745900224 113.40409499474185,34.38282980827308 113.56123442494209,34.187760170675475 113.89899388985523,33.783171292595576 114.09406352734517,33.49417923748555 114.23675335476838,33.28465999711091 114.28371456379374,33.140163968909945 114.33248197327389,32.822272708245855 114.36679977976168,32.51160624832433 114.43001679201885,32.24428859694922 114.74429565231166,30.539235469366975 114.82376846758534,30.033499372278477 114.43543539295258,29.46996486386653 114.03084651530331,28.84140714263496 111.83089449239237,27.05688120020967 111.3143211932211,26.370525068085286 110.06984915394148,24.585999125014048 108.5580594633944,22.418558708459095 108.51471065517096,22.38243470162417 108.37021462729297,22.302961886135172 108.24378060310158,22.21626426968829 108.17875739049728,22.16569066018399 108.12818378077766,22.107892248645225 108.08844737314082,22.0284194334792 108.07399777036379,21.941721816709347 108.0776101711657,21.840574597485432 108.09386597428987,21.73220257644237 108.16611398806738,21.52268333649836 108.20223799500995,21.41431131534764 108.23113720056402,21.29871449334669 108.23474960125829,21.16866806856871 108.207656596159,21.01694723951752 108.18417599164633,20.8291024028778 108.14985818494321,20.662931970941923 108.09567217452934,20.532885545840966 108.0342613628346,20.388389518608925 107.9258893418992,20.229443887846248 107.84461032638605,20.14274627118405 107.45447105140616,19.846529414470186 106.66877390029732,19.60811096821851 106.21722381351505,19.48528934504436 106.02034797567796,19.43471573510943 105.69342571295526,19.398591727951533 105.61575909792104,19.376917324216613 105.20575161912274,19.21797169323862 104.83909294865552,19.080700466856804 104.73794572932394,19.015677254790788 104.64944191220695,18.936204438978816 104.42908546996486,18.596638773933858 104.33155065121989,18.430468341997976 104.18524842299477,18.27152271166593 104.04797719661296,18.004205059860187 103.94141137613234,17.903057840636272 103.6777061254515,17.736887409023364 102.92632678104577,17.3106241265626 102.64997812793501,17.050531276683664 101.71617254846926,16.48699676881001 99.74380176940424,15.2660053339354 100.39042149367647,15.107059703172721 101.5265215120207,14.82529244934355 102.43684648697378,14.608548407795713 103.12139641853571,14.442377975536859 103.65061312024456,14.13893631754214 104.11119420887013,13.893293070117261 104.99623237885575,13.409231377194313 105.58324749167272,13.091340115776612 105.88127054905668,12.917944882667532 106.13594479800189,12.73732484795462 106.39603764788083,12.62172802595367 106.91441714750688,12.383309579701994 107.89879633679992,11.949821496713977 108.24016820229967,11.7114030504623 108.62669507669295,11.335713378259442 109.3022140064116,10.757729267285777 111.26374758339384,9.023776934149472 110.9892051306302,8.792583289501627 110.1150041626197,7.9978551373031 109.2281597921793,7.203126984566283 109.54785725362116,7.036956552307429 110.51236823898812,6.574569263334714 110.74898048456969,6.690166085658636 111.05242214288738,6.820212510436618 111.17163136579791,6.87078612037155 111.3486389997089,6.971933339918439 111.45881722099143,6.986382942372498 111.5346776354632,6.9574837371414056 111.70265426774621,6.87078612037155 111.91397970836032,6.70461568843567 112.20658416459524,6.451747640160566 112.36733599559739,6.314476413455778 112.47028941527608,6.213329193908889 115.34214796731906,4.65999689580847 116.16396912515516,4.717795306593628 116.97675928136327,4.840616930521382 117.8220610438197,4.999562560530456 119.62826139094882,4.89841534130654 122.07205046061453,2.8176725415214414 124.47068452170969,1.6472547164741078 129.2065418317746,0 130.4347580678224,0.057798410892816274 132.88938433957088,0.6935809329746119 136.10261475711363,1.1126194139392016 136.59209505118562,1.257115441494216 140.94142548707256,2.557579691642505Z"/></svg>