<svg xmlns="http://www.w3.org/2000/svg" width="256" height="256"><path d="M50.72420137143519,0.41746111405788916 50.5716675027359,1.0811172433665537 50.17561465124822,1.123933768506968 50.16223448718171,1.2202709484778607 50.052517143144314,1.7982940287817282 50.07660143833642,2.1729386188157305 49.68054858652973,2.2585716673420158 50.16758655290402,2.3549088473129083 50.77236996134089,2.4084295032599146 50.80983442028049,2.504766683230807 51.155042649081075,2.5903997327141157 51.43335005834667,2.6332162573760183 51.57517979576086,2.5796956014290124 51.746445893770456,2.526174945482006 51.992640909659244,2.6225121254528987 52.11841445054455,2.783074092655901 52.24418799111084,3.0827897640131865 52.31911690914954,3.296872386684683 52.18531527007954,3.478842615819876 52.683057367260425,3.318280648935882 52.964040809466916,3.4681384843752685 54.15219936424897,4.206723532041642 54.47332329801696,4.44221441744285 54.928248871014446,4.848971400215635 55.20655628028004,5.191503595915815 55.44472319766513,5.319953169104003 56.0602107373871,5.651781234635607 56.2020404748013,5.9300886431036774 56.2207727044306,6.486703461634858 56.317109884401496,7.032614149837958 56.46161565459709,7.407258739233945 56.68105034267188,7.59993309917573 57.00752634200267,7.696270279784638 57.21358086632996,7.653453755122736 57.26977755473936,7.492891787919733 57.60160561963295,7.375146345697642 58.471316273587924,7.107543067557652 58.875397223579306,6.968389362446344 58.9931426658014,6.882756313441547 59.38384345188578,6.818531527166462 59.74778391015617,6.872052182953963 60.98678708794433,7.12895132980885 61.31326308727512,7.24669677155243 61.471149021537215,7.343033952001835 62.26057869189068,7.396554607948841 62.76367285479387,7.51430004969242 63.44873724683224,7.760495066059724 64.20605452412792,8.049506605972402 65.32731225937498,8.413447064561797 65.62435189811036,8.48837598228149 66.28265596233474,8.648937949484493 66.95701622340702,8.820204047175078 67.2888442881411,8.937949489875683 67.4226459272111,9.05569493273579 67.5323632712485,9.344706472648468 67.5832078942546,9.58019735709265 67.73038969707208,9.740759324295654 67.98461281146459,9.87991302892845 68.32714500732426,9.965546077454734 68.60545241658986,9.99765847115054 69.15136310399544,9.944137815203534 69.51797959504722,9.89061715973504 69.47248703776343,10.072587389348746 69.31995316922364,10.853988961517517 68.75531025250775,13.786920889612805 68.83291520316835,13.883258069583698 69.18347549737224,13.75480849639551 69.64107710299162,13.637063053694908 70.2378324134033,13.594246529192509 70.63923733061328,13.594246529192509 71.17176785411186,13.647767185139514 71.72570663970214,13.70128784108652 71.94514132777694,13.765512627361607 72.75330322775972,13.97959524955459 73.28850978403969,14.161565479168296 73.95751797938966,14.41846462586368 74.43652784726025,14.504097675506491 74.90483358400523,14.504097675506491 75.6541227629567,14.64325137950127 76.27763840086338,14.803813346704274 76.92523833412166,15.039304231786474 77.27847466110694,15.22127446028365 77.48720521805615,15.339019902984255 77.80832915198363,15.574510788066455 78.01705970877332,15.810001672032126 78.10269275777812,16.056196688399428 78.37564810164041,16.430841277795416 79.07676869036719,16.869710653625994 80.05084462295626,17.53336678357267 80.78942967030362,18.07927747129726 81.26041143983001,18.432513797963537 81.62970396366319,18.65730055160113 82.45927412621617,19.21391537013231 83.15771868200204,19.6206723532241 83.92574009010431,19.931092156025993 84.2870045157528,19.9846128118135 84.99882923560517,20.220103696417183 87.62134136137709,20.99080113714135 88.23950493372095,21.194179629006253 89.00217427657944,21.493895300204034 90.42047165088088,22.018397725677424 91.39454758299145,22.36092992153711 92.10637230284382,22.596420805981293 92.91988626838939,22.735574510454583 93.80565311903275,22.885432346372482 93.91804649601106,23.003177788594574 94.54691419948054,22.682053855624105 95.5477504598836,22.08262251195251 96.34788426136267,21.53671182486594 96.72252885075865,21.25840441528134 97.67252048815563,20.509115236808373 97.85984278285362,20.337849138639278 98.06857333996231,20.241511958668383 98.1782906839997,20.220103696417183 98.86870714160088,20.487706974557174 99.10687405898597,20.56263589275538 99.40123766493996,20.60545241677927 99.78658638578055,20.72319785900136 99.88024753281054,20.78742264623347 100.08362602435643,20.99080113714135 100.13447064704353,21.183475497083133 100.20672353230084,21.311925071228345 100.30841277799404,21.461782907146244 100.38601772865464,21.67586552933923 100.43686235134173,21.82572336525713 100.55728382650472,21.996989463426225 100.79277471126791,22.264592741566215 101.2423482185431,22.660645593213403 101.55812008690779,22.992473657787983 101.76417461091607,23.238668674155285 101.94614484021078,23.516976082623355 102.12543903656457,23.709650443522165 102.29938116719606,23.998661983913355 102.40374644583015,24.116407426294952 102.58839270758725,24.255561130768243 103.02726208389633,24.533868540193335 103.22796454250133,24.619501588879125 103.16106372296633,24.68372637515421 103.00050175592283,24.865696604767916 102.86134805144954,24.929921391043003 102.52149188805225,24.940625522966123 102.09332664318777,24.96203378521732 101.68924569319638,24.908513128791803 101.49121926737278,25.079779226960902 102.34487372447985,25.529352734555093 102.60980096983845,25.689914701439086 102.78106706784804,25.796956012695084 102.96303729714273,25.968222110385668 103.17979595227662,26.171600601772063 103.35641411584902,26.353570831385767 103.6962702792463,26.94229804345325 103.87021240987781,27.231309584003945 104.0173942128548,27.445392206196928 104.12711155689219,27.648770697423817 104.29570162212039,27.8200367951144 104.54457267095009,28.01271115601321 105.12794781713576,28.36594748283899 105.33667837424446,28.558621842780777 105.46780398037355,28.68707141692599 105.56414116050394,28.836929252843888 105.61766181629145,29.018899481341062 105.70061883235533,29.27579862851496 105.90132129096033,29.89663823348073 106.11540391347232,30.645927412432208 106.26793778201211,31.063388526011583 106.41779561793001,31.27747114868308 106.5623013881256,31.480849640547984 106.8646930924238,32.05887272085185 106.7603278137897,32.06957685277497 106.57300551925121,32.283659474967955 106.4552600767101,32.56196688439305 106.26526174923072,33.20421475113151 105.90132129096033,33.76082956966269 105.67118247191944,34.09265763503479 105.66047834079384,34.32814852011699 106.08061548731412,35.49489881264784 106.38568322455322,36.415454088811394 106.36962702770532,37.15403913743479 106.23850142157622,37.71065395548746 106.02174276612332,38.33149356029372 105.51062050487594,39.4982438537816 104.65161398204657,41.55343702989673 103.78457936087301,43.56581368087144 103.50894798454831,44.22946981129663 103.41528683703982,44.56129787571171 103.35641411584902,45.01087138346541 103.34303395210152,45.83508948013658 103.47415955839013,46.35959190449344 103.66415788586951,46.81986954305373 103.9959859506036,47.387188492551005 104.0682388360204,47.644087639724894 104.0468305734502,47.943803311082185 103.9157049671616,48.18999832697097 103.69359424630541,48.38267268739127 103.05402241155083,48.96069576817365 102.69008195328044,49.37815688223154 102.48135139649075,49.763505602593625 102.35825388854636,50.07392540587403 102.30740926554026,50.427161732540306 102.29670513441465,50.758989797912406 102.33416959335426,51.64743268101817 102.35290182282405,52.73925405535081 102.56430841255465,52.707141662133516 102.66332162578546,52.69643753132693 102.82655962529134,52.835591235800216 104.1217594914889,52.91052015351991 107.34370296029438,53.07108212072291 108.87171767847373,53.10319451394021 110.29804315095988,53.09249038297411 110.09466465941398,53.46713497205109 110.55226626503337,53.3386853988629 111.09550091965754,53.30657300580511 112.5111222610181,53.09249038297411 115.44405418943239,52.69643753132693 116.22277972881976,52.65362100730304 116.68305736722054,52.193343368104735 117.60628867680352,51.444054189153256 118.1388192004616,50.96236828882029 118.58304064217398,50.69476501068029 119.15571165723406,50.43786586398491 119.94781736052843,49.99899648815433 120.04147850787743,49.99899648815433 119.73908680357924,48.71450075228486 119.73641077079783,47.91169091786489 119.68289011516984,47.5584545907201 120.20471650754283,47.547750460232514 120.9058370962696,47.644087639724894 121.21893293169339,47.70831242711651 121.47048001330448,47.804649607087406 121.76751965188036,48.04014049153159 122.27061381478354,48.14718180294709 122.61582204358413,48.36126442514007 123.3838434518459,48.93928750592245 123.9752466965353,49.32463622676305 124.69242348210996,49.77420973403823 125.32129118557944,50.24519150404313 125.48452918540434,50.45927412623611 125.85114567629662,51.28349222290728 125.95818698755262,51.49757484510027 126.4425489211455,51.454758321076376 127.42465295191927,50.866031108370876 128.62351563782693,50.127446061183015 129.7849138649545,49.42097340721245 131.40658973064234,48.660980097454384 132.42348218741478,48.275631376454285 133.28248871024417,47.900986787058294 134.8934604446469,47.30155544450323 135.85950827873228,46.89479846077342 136.00669008170925,46.851981936271024 136.94865362092153,46.59508279005415 137.5989295866422,46.48804147816014 139.91102190977173,45.91001839785627 140.1170764339395,45.83508948013658 140.2134136142294,45.770864692744965 141.86184980741226,45.321291185629285 143.1222612474516,44.90383007157139 144.82421809642196,44.34721525304022 145.83040642222832,44.079611974900224 147.64208061539554,43.58722194312264 148.5733400231632,43.31961866498265 148.6830573672006,43.28750627240337 149.00685733375,43.769192172736346 149.1433350056014,44.16524502390502 149.30389697264488,44.85030941658141 149.33065730029938,45.0643920387744 149.61966884069057,45.26777052968228 150.21374811816136,45.57819033280318 151.04331828055484,45.92072252914137 152.85499247340306,46.59508279005415 152.96203378465907,46.77705301855133 153.31794614474475,47.226626526305026 153.59892958663224,47.50493393525161 154.2518815854533,48.07225288522739 154.8513129283274,48.500418129613365 155.35975915679336,48.82154206370036 155.44806823889857,48.72520488325095 155.97792272929675,48.52182639234307 156.67904331802353,48.479009867362166 157.20889780890022,48.511122261536485 157.95818698753268,48.55393878556037 158.12945308554228,48.59675531054128 159.72436862325662,48.36126442514007 162.67335674867832,51.47616658284907 163.44940625496528,51.572503762819956 164.51179126934056,52.428834253186935 165.9755812006068,53.47783910397421 167.05134637888906,54.48402742962107 168.7586552934222,56.01471818026281 170.03779896277186,57.26710152195796 171.91637397547407,59.52567318929998 172.30975079418036,60.08228800783116 172.90383007165116,60.44622846594204 172.99481518637825,60.38200367966696 173.34002341517885,60.606790433304546 173.61297875872214,60.87439371144454 173.74678039779212,61.08847633411604 173.9126944305579,61.25974243180662 174.0759324300638,61.377487874028716 174.3836761997653,61.5915704962217 174.50142164230638,61.8270613811444 174.59775882227729,62.073256397033184 174.82522160885577,62.38367620031359 174.96705134611048,62.608462953313165 175.40056865669726,63.068740592351965 175.74042482009455,63.47549757512475 175.82605786893984,63.62535541104265 176.18732229474784,64.08563304912443 176.57267101495043,64.6636561299068 177.0597089811652,65.30590399696428 177.3781568823113,65.69125271796437 177.73406924223747,66.08730556913304 178.00434855315888,66.71884930586242 178.08998160216368,66.92222779677031 178.32012042120456,67.22194346908462 178.67068071572746,67.63940458314251 179.01321291158712,68.03545743383268 179.47081451720652,68.54925572786145 179.5858839269662,68.68840943329177 179.67686904153382,68.77404248197756 179.8213748117294,68.82756313792456 180.0515136307703,68.89178792419965 180.1933433681845,68.98812510417054 180.39136979400809,69.20220772732054 180.59742431817588,69.37347382453262 180.68840943290297,69.43769861192423 180.85699949813116,69.46981100546054 180.97742097313466,69.52333166045052 181.07375815326506,69.63037297234453 181.12727880889307,69.76952667633931 181.14333500558146,69.97290516820422 181.16206723505124,70.14417126637332 181.23967218571184,70.2298043148996 181.36812175937854,70.3582538885663 181.50727546385184,70.47599933078838 181.57150025076496,70.61515303526168 181.62502090639293,70.74360260892838 181.68389362758373,70.82923565841169 181.79896303702444,70.96838936304448 181.92206054496882,71.26810503424227 182.13079110191802,71.72838267232405 182.31008529827182,71.94246529563355 182.4867034620037,72.04950660593252 182.866700116803,72.02809834368132 183.05937447706378,72.08161899962833 183.37514634542848,72.28499749149324 183.62401739409867,72.45626358966234 183.91838099989315,72.49908011368622 184.03077437671195,72.54189663771011 184.21809667140994,72.61682555590832 184.43485532686285,72.59541729413563 184.55260076908493,72.61682555590832 185.1225957515231,73.0449908007728 185.32329821012812,73.3554106040532 185.5427328982029,73.63371801252127 185.7728717175628,73.94413781564216 185.89061715978488,74.22244522474826 186.0565311922317,74.37230306066616 186.2973741427172,74.49004850288824 186.49807660132217,74.77906004327944 186.71483525645607,74.93962201000393 187.04398728872775,75.16440876364152 187.23398561620715,75.37849138679152 187.51229302547273,75.62468640268033 187.798628532923,75.75313597539 188.0635557782816,75.9458103358103 188.2829904665159,76.25623013845268 188.3043987287671,76.44890449935149 188.3659474825798,76.65228299025937 188.5184813512791,76.80214082617726 188.75664826866418,76.95199866209516 188.949322628925,77.30523498876144 188.87439371120527,77.54072587432215 188.81819702279589,77.77621675876634 188.90115403885977,78.01170764321053 189.0777722024322,78.30071918408022 189.26777052991156,78.5469141994905 189.46312092311325,78.70747616685301 189.54340190655526,78.81451747763049 189.40157216898157,79.53169426352417 189.62635892261915,79.73507275427255 189.82438534844275,79.98126777016135 190.30607124909474,80.45224954016625 190.6405753467697,80.62351563833533 191.29620337821268,80.90182304728192 191.71366449211106,81.05168088272131 192.63957183447545,81.11590567011292 193.2068907841322,81.13731393236412 193.40759324273722,81.20153871863921 193.54674694752953,81.37280481632979 193.8089981599472,81.54407091449889 194.0605452415583,81.68322461897219 194.23181133940838,81.8009700621513 194.4753303225158,82.0471650780401 194.64659642052538,82.27195183119917 194.6733567484989,82.43251379792366 194.70546914187568,82.60377989657127 194.78842615793957,82.68941294525706 194.94096002663886,82.75363773153215 195.25940792746596,82.81786251892376 195.51630707448035,82.95701622339705 195.68222110692713,83.10687405931495 195.85883927049954,83.28884428781213 196.08362602413712,83.36377320601034 196.39404582677952,83.40658973099124 196.7339019901768,83.40658973099124 197.0336176615341,83.54574343562403 197.25305234960888,83.72771366412121 197.48319116896877,84.0167252045124 197.64910520141558,84.1665830404303 197.81769526664377,84.2201036958988 198.13079110222705,84.19869543412611 198.35022579014233,84.1451747781791 198.59106874030883,84.17728717187491 198.85331995304554,84.15587890962371 199.1530356245623,84.15587890962371 199.2119083457531,84.23080782782192 199.36444221429292,84.3913697940679 199.308245525724,83.94179628727122 199.3590901485706,83.65278474688003 199.38852650932552,83.48151864823242 199.5062719515476,83.24602776330973 199.5410603777058,82.62518815898197 199.5330322795211,82.41110553567246 199.5785248368049,80.71985281830624 199.5651446728979,80.25957517974595 199.4928917876406,79.93845124565895 199.4634554270452,79.62803144349508 199.45007526313822,79.34972403391048 199.3510620502264,78.87874226502211 199.1717678538726,78.11874895462603 198.97909349361183,77.20889780879055 198.76501087125934,75.10018397736643 198.83726375619761,74.98243853514434 198.75965880553701,74.85398896099913 198.69275798600202,74.77906004327944 198.65529352706244,74.69342699475315 198.63388526481123,74.56497742108645 198.65261749444053,74.46864024111557 198.66064559262523,74.26526174925066 198.65529352706244,74.07258738883036 198.75163070735232,73.92272955291246 198.73825054328583,73.80498411069037 198.64458939593683,73.70864693071948 198.55360428152875,73.60160561930398 198.44121090470995,73.3982271285556 198.35022579014233,73.1734403744395 198.30473323269905,72.9272453585507 198.39839438036705,72.35992640905343 198.51346378964823,72.19936444185042 198.60444890421584,71.84612811518414 198.63120923218935,71.77119919746445 199.094162903212,70.69008195298137 199.5464124434281,69.96220103675961 199.7390868035294,69.64107710267261 199.7257066396224,69.35206556228142 201.01555444041665,68.11038635203087 201.74343535711694,67.08278976445182 202.5275129617481,66.25857166778066 203.70764341834544,65.38083291516247 204.45960862991882,64.87773875209979 205.2142498742736,64.4816859002931 205.97424318419118,64.29971567179592 206.12945308551235,64.29971567179592 206.32480347871407,64.29971567179592 207.17310587041783,64.27830740954472 209.37280481656904,64.36394045807101 210.8606790431869,64.49239003173771 214.33684562606587,64.6422478676556 215.73908680351943,64.8349222280759 215.84345208199403,64.85633048984859 218.46061214220313,65.39153704612858 218.64793443690112,65.47717009561188 219.1349724032754,66.15153035652466 219.5925740088948,66.46195015868854 220.00200702428947,66.65462451863031 220.74594413751865,66.79377822406063 221.32931928386384,66.69744104313271 222.5736745272148,66.26927579874675 223.72436862321675,66.18364274958245 224.28901154041114,66.03378491430256 225.1747783907355,65.54139488204648 226.72420137116603,66.83659474872253 228.0568656964627,65.80899816018646 228.76869041631505,66.23716340505094 229.08713831714215,66.26927579874675 228.91587221929205,66.35490884727304 228.84094330125336,66.49406255238434 228.84897139975706,66.63321625685764 228.90249205538507,66.76166583052434 229.04967385836204,66.89011540355301 229.21558789080885,66.95434019094462 229.40558621828825,66.93293192869342 229.68121759461292,66.78307409277554 229.80699113549824,66.47265428997363 230.5830406419447,66.52617494592064 230.7462786416101,66.61180799460644 230.6633216255462,66.69744104313271 231.00317778862447,66.90081953499762 231.06740257553759,67.35039304259182 232.26626526144523,68.12109048347548 232.53119250680382,67.8748954675867 233.1734403744993,68.37798963017086 233.2002007021538,68.57066399011265 234.80314433837185,68.54925572786145 234.59708981404455,70.95768523112136 234.35089479815576,73.75146345570039 234.49540056835136,75.8280648935882 234.40441545378377,76.48101689209027 234.23314935593368,77.79762502053903 234.0565311925208,78.5040976749881 233.703294865057,79.05000836255319 233.1787924399026,79.69225622977015 231.73373473810616,81.35139655455711 230.5536042815088,82.97842448516974 229.96487706944131,84.0167252045124 229.99966549559952,84.2629202204012 230.6579695598239,85.25840441571998 231.39655460749026,86.40374644552112 231.68021408247816,86.48937949516393 231.98795785217965,86.48937949516393 232.34654624504674,86.43585883921692 232.63020571971563,86.41445057696572 233.2430172266562,86.47867536324081 233.96554607779368,86.60712493738602 234.35357083109668,86.73557451105272 235.03328315741274,86.85331995327482 235.46947650094043,86.88543234681111 235.8173607625224,86.88543234681111 236.1438367616937,86.79979929732781 236.6817193507551,86.55360428143902 237.39086803782607,86.18966382284962 238.04114400370622,85.76149857846366 238.48804147820002,85.33333333296116 238.942967051038,84.70178959671028 239.19183809970818,84.17728717187491 239.67887606592296,83.18180297751316 239.88493059025026,82.63589228931005 239.95183140978526,82.20772704492408 240.02943636044586,81.7046328817019 240.19535039273316,80.82689412908371 240.36661649090226,80.15253386833045 240.58337514603613,79.53169426352417 240.63154373626085,79.43535708355328 240.91520321092972,79.46746947613256 241.4450577018064,79.77788927941297 242.0605452415284,80.09901321286195 242.48603445393047,80.30239170376983 242.99448068207747,80.47365780193893 243.80531861484164,80.66633216235923 244.4475664825371,80.86971065422414 245.1085465793834,81.18013045638801 245.80431510254735,81.5975915704459 246.55628031412073,82.01505268450379 247.4072587386059,82.64659642123317 247.74711490200318,82.87138317471126 248.83358421109205,83.58855995964792 249.54540893094443,84.17728717187491 250.238501421327,84.72319785943999 250.5515972567508,84.92657635034787 251.08947984581218,85.18347549752177 251.83341695904133,85.45107877566176 252.5773540722705,85.57952834884995 253.1607292186157,85.66516139849276 252.9600267600107,85.86853988924113 251.83876902476365,86.30740926555022 249.7461113895494,87.0138819195208 249.57752132464023,87.09951496916361 249.41160729187442,87.2386686736369 249.21358086605085,87.45275129582988 248.76133132615377,88.03077437661226 249.07977922698083,88.18063221253016 250.6880749286022,88.69443050655894 250.3375146342388,89.16541227656384 249.5641411605737,89.7434353568677 248.81485198162224,90.50342866726379 248.48034788394725,91.04933935387184 249.29386184949283,91.65947482835004 248.27429335977948,92.7191838101034 249.38217093127903,93.32931928458159 251.56046161549804,94.17494564302545 251.50961699249194,94.37832413473085 251.59525004165624,94.39973239714155 251.81736076251244,94.44254892116544 251.97524669645554,94.49606957711245 252.19468138468983,94.62451915061965 252.36059541697713,94.68874393753275 252.48369292508102,94.76367285525244 252.6790433179637,94.90282655972572 252.7727044653127,94.98845960825201 252.85566148185512,95.09550091966751 253.0081953502354,95.18113396915082 253.1232647599951,95.3095835418605 253.24903830040188,95.41662485375451 254.65663154341823,96.39070078634359 254.88409432999674,96.39070078634359 256,97.30055193201954 254.35156380633865,97.52533868517862 252.5425656462718,97.75012543929473 251.74243184447374,97.85716675055073 251.65412276268754,97.99632045518352 251.61398227112605,98.86335507587859 250.84060879714198,99.28081618993647 249.34203043971752,100.00869710615824 249.15203211223815,100.13714668030345 249.09048335810644,100.31911690880062 249.00485030926114,100.9506606450515 248.85499247334326,101.2396721859212 247.8381000167303,101.64642916917249 247.51697608264328,101.18615153061221 245.2289680548654,101.2824887105831 245.02826559626038,101.00418130099851 244.8757317274016,100.84361933475253 244.6616491048896,100.83291520282941 244.43686235141152,100.85432346508061 243.94982438503723,100.89713998958301 243.21659140293366,100.9720689077812 243.04532530492406,101.00418130099851 242.87941127247726,101.1005184809694 242.50209065029986,101.36812175910939 242.3281485196684,101.51797959502728 242.17026258556578,101.68924569319638 242.0525171430247,101.86051179136548 241.8009700615731,102.29938116767457 241.6618163569403,102.51346378938904 241.5547750456843,102.85599598572723 241.4637899311167,103.16641578836963 241.3513965542979,103.28416123059172 241.22027094800933,103.33768188606021 240.97139989933913,103.36979428023453 240.33985616292875,103.39120254200722 239.60662318098468,103.44472319795423 239.4621174107891,103.41261080425842 238.8733901990406,103.17711991981423 237.78959692241415,102.77036293656293 237.60762669311944,102.79177119945216 237.48452918517506,102.86670011701234 237.35875564444925,103.00585382164513 236.91988626845918,103.55176450873171 236.3472152530801,104.3010536883212 235.7290516808957,104.97541394907448 235.40792774680872,105.28583375123836 235.16708479648273,105.43569158715626 235.04666332147923,105.48921224310325 234.80046830559044,105.53202876712714 234.18765679864987,105.57484529162954 233.6283659471778,105.60695768532536 233.4624519148905,105.63907007902115 233.28850978394,105.74611138932013 233.1734403744993,106.06723532340712 232.9941461781455,106.66666666691921 232.8362602438834,107.10553604227128 232.6837263755031,107.2018732231992 232.49372804802374,107.25539387818918 232.27964542551175,107.28750627188498 232.09232313081375,107.30891453413618 231.91570496740087,107.46947650133919 231.87021240995756,107.69426325449827 232.07626693396585,107.89764174636318 231.71232647585495,108.10102023711154 231.15838768994567,108.37932764669614 230.03712995453913,108.93594246474882 229.77755477474332,109.08580030114523 229.70797792274593,109.13932095709222 229.38417795603704,109.8993142668503 228.85164743237897,111.13028934629426 228.57334002311336,111.80464960656901 228.49038300704947,111.86887439332261 228.2548921222863,111.97591570473811 227.6581368118746,112.15788593435182 227.4119417959858,112.23281485191201 227.2834922224786,112.3077437701102 227.192507107911,112.3719685565448 226.48603445362144,112.96069576877179 225.70195684883078,113.64576016081017 225.50928248841046,113.61364776727386 225.3968891115917,113.62435189855897 225.35139655430788,113.83843452075195 225.19618665298668,114.91955176427801 224.8242180966911,115.28349222238889 223.50493393530144,116.55728382681376 222.80916541197797,117.21023582531583 222.66198360900097,117.32798126753792 222.56029436346728,117.36009366123373 222.18297374113038,117.39220605477003 221.5701622341898,117.46713497201121 220.96805485837484,117.53135975940283 220.87706974412626,117.55276802165403 220.62284662957424,117.73473825015121 220.08764007329427,118.16290349565371 219.1082120753019,118.92289680541177 218.87272119053873,119.10486703406845 218.62920220743132,119.08345877229577 218.05653119221174,118.98712159232487 217.82906840595226,118.94430506782247 217.65512627500175,118.94430506782247 217.48921224255497,118.96571333007367 217.31259407898256,119.05134637859996 216.9165412274949,119.37247031220845 216.6971065392606,119.57584880455185 216.6141495231967,119.69359424677396 216.6061214248525,119.80063555802995 216.6061214248525,120.03612644263363 216.6837263755131,120.31443385205873 216.7880916538282,120.58203713019871 216.83626024389338,120.7104867029084 216.80949991607937,120.8175280148024 216.5499247364431,120.9887941129715 215.72570663993145,121.55611306183077 215.08345877207645,122.01639070039106 213.28516474297572,123.27947817384982 212.86502759629593,123.25806991159862 212.61080448222245,123.25806991159862 212.49573507246274,123.354407091091 212.40207392527324,123.7932764678786 212.26827228620326,124.34989128640979 212.20939956501246,124.41411607284438 211.64743268075898,124.66031108921167 211.36912527149337,124.69242348179095 211.09349389500917,124.25355410596038 210.9703963870648,124.15721692551098 210.8660311085902,124.11440040100858 210.7536377317714,124.1036962706805 210.5877236993246,124.1251045329317 210.04716507764132,124.22144171290259 209.74744940612453,124.27496236821158 209.59759157020665,124.29637063062228 209.39956514454255,124.29637063062228 209.26041143975024,124.27496236821158 209.01421642386146,124.24284997515379 208.67703629356458,124.16792105695558 207.8581702622967,123.9752466970138 207.61197524640792,123.92172604058828 207.49690583712672,123.94313430283948 207.41127278780291,123.9966549587865 207.25338685370033,124.58538217101348 207.17578190303973,124.84228131770885 205.68790767674088,124.96002675993095 203.31694263226106,125.10988459584885 202.79779227266948,125.60227462762643 202.275965880456,125.60227462762643 201.6604783405745,126.15888944615762 201.26977755449013,126.26593075805162 200.91386519456395,126.58705469102209 200.67302224455696,126.8974744943025 200.53386853960515,127.0045158055585 200.74795116227665,127.75380498403146 200.60076935914017,128.10704131085723 200.30640575318617,128.71717678533543 199.9665495901079,129.3701287838375 199.7123264758749,129.85181468417048 199.4741595581708,130.32279645417537 199.2226124768787,130.84729887901074 198.91219267407683,131.48954674670622 198.54557618302505,131.46813848493352 198.24050844610494,131.50025087799133 197.67051346366677,131.70362936889921 197.4109382837115,131.83207894304442 197.14868707129378,131.9819367789623 196.8596755310621,132.2388359251792 196.7017895968,132.4208061552714 196.4823549085657,132.77404248145916 196.3967218595609,132.99882923557527 196.42883425293772,133.31995316966226 196.21475163042572,133.70530189002434 195.66081284467595,133.78023080774403 195.11222612448896,133.87656798819344 194.59842783046017,133.91938451221733 193.8089981599472,134.03712995443942 193.39956514455253,134.1120588721591 193.15069409572283,134.21910018405313 192.83492222751764,134.47599933074852 192.19267435998165,135.2252885097 191.98661983597339,135.47148352511027 191.66549590204588,135.7497909351734 191.33099180437088,135.94246529511517 190.92691085453902,136.14584378698007 190.50944974048113,136.38133467142424 190.4345208227614,135.98528181913906 189.51128951317847,136.18866031100396 189.62635892261915,137.21625689954004 189.73875229943795,138.2117410939018 189.09115236633917,138.44723197834597 188.6174945641909,140.03144338541324 188.5987623345616,140.19200535165922 188.3284830237997,140.22411774535502 185.16808830880692,141.13396889103097 184.08161899987755,140.7914366953308 183.61866532837635,140.6415788594129 183.03261414940928,140.7700284324416 181.98896136450384,141.71199197197288 181.47783910325643,142.17226961053316 180.0434855325856,141.87255393821883 178.73490550232154,141.59424652975076 178.04716507766128,141.26241846421917 176.9981602273525,141.1553771534417 175.89028265569345,141.57283826686157 175.66014383665257,141.64776718505976 174.88944639544988,141.95818698786167 174.2739588557279,142.23649439680824 173.80565311898292,142.12945308603076 173.40157216899152,142.18297374133974 173.30255895607974,142.23649439680824 172.84763338324174,143.1784579357015 172.73524000642294,143.3176116408128 172.37665161371535,143.4353570830349 171.6327145004862,143.7136644919815 170.76032781374983,143.99197190108757 170.27061381475363,144.13112560651788 169.49456430830716,144.2702793111507 168.670346211636,144.40943301562396 168.31443385170982,144.46295367157097 167.51697608269313,144.51647432640146 167.16641578848925,144.54858671961875 166.87205218237577,144.61281150685085 166.67134972377076,144.77337347373486 166.0719183808967,145.32998829178752 163.45743435330948,145.77956180001974 162.7643418629269,145.8758989799906 162.43786586375563,146.4432179288499 162.16223448711193,146.828566650169 161.79829402884155,147.32095668146806 161.32998829209657,147.89897976272894 160.5111222609882,148.66967720361262 157.80030105358958,150.97106539497852 157.6263589226391,151.2172604108673 156.92523833391232,151.68824218135072 155.57919384502767,152.38401070387667 155.39722361573297,153.19752466974126 155.0225790264965,153.34738250502113 154.5703294862804,153.33667837421456 153.05837096494895,153.63639404605036 152.52584044145038,153.72202709457662 150.81585549397633,153.91470145451842 150.59106874033873,154.02174276641242 150.31543736401406,154.24652951989052 150.21374811816136,154.3535708308275 149.90065228273755,154.7068071586103 149.67586552909998,155.0172269612527 149.26375648076439,155.54172938560956 148.6991135640485,156.79411272778322 148.5037631708468,157.11523666187023 148.3993978925317,157.24368623537742 148.10771031935914,157.2972068903674 146.97307242004558,157.4256564645126 146.0980097003683,157.5326977757686 145.9963204546751,157.5969225622032 145.89730724176331,157.6932597426526 145.48519819342772,158.18564977443017 145.20153871859932,158.54959023254108 144.96069576827335,159.29887941149255 144.66098009675656,159.8983107540476 144.40675698268308,160.3799966548591 144.16591403219758,160.40140491711028 143.89831075405758,160.44422144177219 143.74310085273638,160.5191503599704 142.616491051767,161.09717344027428 142.50944974051103,161.19351062024518 142.39170429812944,161.50393042288755 141.47917711967207,161.91068740550082 140.26961030263882,162.44589396178083 139.33032279620795,162.948988125003 138.88342532171416,163.17377487911912 138.61314601079278,163.34504097665018 138.46061214225298,163.47349054983837 137.8745609632859,163.84813513987237 137.40357919375953,164.11573841801237 137.26710152174863,164.16925907348087 137.17076434177773,164.16925907348087 137.00485030933092,164.08362602383806 136.58471316249165,163.76250209022956 136.20739254031426,163.43067402533597 136.10837932740245,163.3771533698675 135.88894463948716,163.3771533698675 135.29754139479778,163.4199698948484 134.7114902155117,163.4413781572591 134.529519986536,163.4627864195103 134.43853487196841,163.5805318617324 134.51881585541042,163.74109382797837 134.98979762477728,164.75798628554836 135.0566984443123,164.96136477645624 134.850643920304,165.03629369417592 134.5643084125347,165.20755979234502 133.98093326634904,165.5715002504559 133.47248703772354,165.8712159227702 133.04699782564046,166.16022746268288 132.50108713839438,166.56698444529619 132.27897641721918,166.69543401896289 131.655460779153,166.99514969016064 131.05335340333804,167.39120254196735 130.73758153529235,167.73373473782704 129.76350560270328,168.9540056863049 129.2818197020513,169.47850811161877 128.9098511455962,169.85315270069574 128.7466131457713,169.99230640516905 128.59407927723151,170.07793945481185 128.33985616315803,170.22779729072977 127.93309918022575,170.49540056886974 127.69493226284065,170.60244187964722 127.31493560788188,170.67737079736693 127.03395216583488,170.7737079773378 126.84930590375879,170.85934102698062 126.6619836090608,170.99849473145392 126.5040976749582,171.13764843592722 126.4907175112107,171.2446897473427 126.5442381668387,171.4052517140672 126.66733567478309,171.6621508614006 126.670011707405,171.75848804185 126.6405753468096,171.8762334840721 126.4666332161781,172.12242849996088 125.85114567629662,172.77538049846297 125.53537380809144,173.10720856287804 125.08847633359765,173.52466967693593 124.50777722003387,174.0063555772689 124.0822880079508,174.3702960363368 123.78524836905589,174.6486034454429 123.6487706972045,174.88409432988706 123.6086302054835,175.10888108352466 123.6541227627673,175.33366783764077 123.7397558117721,175.49422980388675 123.94313430315849,175.78324134427794 123.7210235823023,175.98661983614284 123.4052517140971,176.29703963830673 122.94765010847772,176.7894296705628 122.35357083116645,177.4209734068137 121.78089981578736,178.05251714306456 121.41963539029838,178.44856999534977 120.975413948586,178.93025589568273 120.31175781895833,178.61983609304036 119.77387522973744,178.40575347068787 119.25472487046487,178.22378324123366 119.10486703438745,178.15955845495859 119.12627529663865,178.44856999534977 119.43134303387775,179.17645091157152 119.50359591881605,179.3798294027984 119.44739923040665,180.80347884266268 119.44739923040665,181.70262585705353 119.52232814860486,182.08797457741562 119.86486034446453,182.6767017896426 120.19401237641722,183.1905000836714 120.8389362767346,184.17528014658853 121.41963539029838,185.03161063695552 121.85315270088516,185.6524502428783 122.72018732221824,186.0913196185494 122.54624519126774,186.38033115910008 122.47934437173274,186.53018899437996 122.36427496229204,186.97976250165513 122.23314935584395,187.42933600924934 122.11540391346236,187.9217260405484 122.01906673349146,188.4248202042491 121.88794112704336,188.4034119413599 121.78357584872828,188.4676367287515 121.63907007853267,188.5104532527754 121.45174778367517,188.52115738422 120.8389362767346,188.45693259682838 120.62485365438211,188.41411607232598 120.41344706465152,188.3712995483021 120.15119585191482,188.3498912865294 119.93711322940283,188.32848302427823 119.76317109861183,188.3498912865294 119.53035624678955,188.3498912865294 119.18514801798896,188.4248202042491 118.0879745774555,189.00284328503147 115.95785248346117,190.04114400341712 114.38702124077943,190.41578859345114 114.22913530667684,190.50142164197743 114.14617829061294,190.57635055969712 113.51998661976536,192.10704131081735 113.41562134113126,192.38534872040196 113.69125271761546,192.48168590085137 116.92390031770604,193.81970229155132 118.47064726535518,193.55209901341132 120.50175614643771,195.22194346852635 120.62485365438211,196.2709483188351 120.6489379492552,196.3993978925018 118.69275798605187,196.72052182658882 117.06305402217933,196.9881251047288 115.99531694256028,197.14868707097477 115.38250543561969,197.1807994651491 114.70546914208502,197.170095333226 113.69660478317826,197.14868707097477 113.00083626001428,197.1593912028979 112.3585883924783,197.1807994651491 112.06154875390241,197.223615989173 111.79394547576243,197.28784077544807 111.77253721351123,197.2129118577284 111.58789095143513,196.74193008884 111.48352567296052,196.45291854844882 111.23733065723124,195.78926241850215 111.10888108356454,195.39320956621694 110.89479846105255,194.63321625677787 110.83592574002125,194.322796453657 110.74761665807556,194.0230807822997 110.62987121569397,193.7233651111019 110.56029436337757,193.573507275184 110.46395718324717,193.4022411770149 110.32480347861437,193.18815855482194 110.06522829897808,192.88844288298614 109.612978758762,192.42816524442586 109.44438869353381,192.27830740898645 109.291854824994,192.11774544226196 108.89847800612823,191.62535541000588 108.75664826871403,191.4112727882914 108.63622679371053,191.1650777719241 108.52383341673223,190.83324970750903 108.47834085944844,190.60846295387142 108.41946813825764,190.03043987308905 108.42214417103904,189.50593744713714 108.43552433510554,189.30255895622926 108.46228466276004,189.09918046500238 108.54524167898343,188.7352400068915 108.58538217070443,188.4997491218093 108.64425489189523,188.2214417123842 108.71650777715253,187.83609299202212 108.76735239983962,187.60060210693993 109.06974410413781,186.0377989632404 109.07777220248202,185.8665328650713 109.07777220248202,185.7487874228492 109.03227964519822,185.5668171932355 108.91185817003522,185.3634387023276 108.69777554752324,185.04231476840013 108.53186151507644,184.75330322784944 108.14116072899205,184.14316775400926 107.98862686045226,183.88626860619735 107.73172771343786,183.4902157553477 107.58186987767947,183.2440207396184 107.27412610781847,182.8158554936374 106.91286168232949,182.4305067732753 106.7308914533538,182.2592406751062 106.50878073249761,182.05586218419833 106.34821876545412,181.8953002169953 106.19568489707382,181.73473825074936 105.93878575005944,181.40291018521773 105.80498411098944,181.22093995672057 105.52400066878295,180.68573340044057 105.43301555421534,180.4609466463245 105.33935440718535,180.2040474994696 105.24569325951735,179.9364442213296 105.13062384991716,179.7223615991366 105.02625857160207,179.4868707137354 104.81217594909008,179.11222612465843 104.59274126085577,178.78039805928634 104.49640408072538,178.65194848657666 104.2020404750904,178.26659976525755 103.8728884426592,177.90265930714668 103.65612978736581,177.67787255350908 103.27345709978513,177.32463622684278 103.05669844433223,177.1212577349779 102.89346044482635,176.9499916368088 102.74627864168984,176.77872553959673 102.59642080625045,176.6074594409491 102.42783074086276,176.38267268794954 102.17093159384837,175.97591570517676 102.01572169252717,175.70831242703676 101.80163907001518,175.37648436166467 101.58755644734369,174.86268606763588 101.49389529999469,174.6700117072156 101.378825890554,174.4880414780804 101.2316440874175,174.284662987332 101.05770195694551,174.1026927581968 100.26559625349164,173.19284161252085 100.03278140135033,172.94664659663206 99.83743100830814,172.72185984251595 99.57517979573096,172.44355243340988 99.33166081262357,172.240173942183 98.82856664972039,171.75848804185 98.2692757985673,171.2339856158981 98.03913697920741,171.05201538740093 97.85984278285362,170.93426994517884 97.12660980075005,170.39906338889884 94.88944639565922,168.7399230641119 90.66399063382877,166.2565646431323 89.8611807994088,165.796287004572 89.23231309562033,165.45375480871232 88.50175614645765,165.17544739864923 88.14851981915336,165.04699782609904 87.53838434499418,164.85432346504072 87.0540224115608,164.71516976056745 86.11205887250803,164.42615822017626 85.88727211887044,164.35122930197804 85.48586720166045,164.20137146701717 85.14333500580078,164.09433015576118 84.81685900631048,163.99799297579028 84.72587389174288,163.96588058161595 84.51446730201229,163.89095166389626 84.1799632043373,163.77320622167417 83.77588225434592,163.61264425479018 83.39588559970613,163.43067402533597 83.10152199343314,163.27011205909 82.64927245337655,163.0132129112781 82.32012042126436,162.83124268278092 81.89195517624039,162.59575179817722 81.6189998326971,162.4244856995296 81.04097675191471,162.08195350414843 80.75196521152353,161.88927914324964 80.57534704779162,161.75012543877634 80.47365780225793,161.66449239025005 80.35323632693544,161.54674694786846 80.22211072064684,161.38618498018695 80.09098511435825,161.23632714474755 80.04281652429304,161.10787757108085 79.93042314747426,160.82957016213427 79.88760662297186,160.70112058846757 79.85014216435127,160.48703796579608 79.78591737727866,160.3050677366609 79.74577688571716,160.2087305571685 79.68422813158546,160.1338016389703 79.56915872214476,160.0160561962697 79.43000501735247,159.9090148854922 79.18381000146368,159.7377487873231 78.9135306908613,159.54507442738134 78.6325472486548,159.36310419776763 78.35691587201111,159.15972570701925 78.08128449552692,158.95634721515435 77.86720187301492,158.77437698601915 77.62368288990754,158.58170262607737 77.46579695580495,158.45325305257018 77.20086971044636,158.26057869199036 76.89044990780395,158.0357919385123 76.32045492536578,157.6183308244544 76.04749958182249,157.4363605953192 75.67017895948561,157.1259407921983 75.30891453415612,156.77270446601054 75.09483191148462,156.47298879369623 74.87004515784703,156.18397725378355 74.73624351877704,155.91637397564355 74.56230138814554,155.54172938560956 74.42849974907556,155.23130958296716 74.36159892954056,154.9315939116099 74.30272620819025,154.3963873553299 74.27328984775436,153.88258906130113 74.24652951978085,153.57216925865873 74.19300886431236,153.22963706327755 74.10469978252617,152.90851312919057 73.95216591382686,152.53386853979458 73.75146345522187,152.2234487376307 73.48386017708188,151.78457936132162 73.1573841779106,151.2172604108673 72.8871048668297,150.69275798651046 72.66499414597351,150.07191838058765 72.64358588388181,149.96487706965067 72.04147850806683,150.05051011833646 71.53035624681945,150.13614316734126 71.08881083772897,150.18966382280973 70.81585549418568,150.21107208553946 70.46797123244419,150.26459274100796 70.13881920033201,150.31811339647643 69.81769526656402,150.39304231467466 69.44572671010893,150.51078775689675 69.19150359571644,150.58571667461644 68.94263254720575,150.64994146137005 68.71249372784585,150.69275798651046 68.54122762999576,150.69275798651046 68.33784913844987,150.67134972362123 68.11306238481227,150.63923733056345 67.97658471296087,150.58571667461644 67.84545910667228,150.50008362593064 67.7330657298535,150.36092992097883 67.54306740237409,150.10403077428347 67.4547583205879,149.87924402016736 67.4788426156205,149.75079444745768 67.4948988124684,149.61164074202736 67.4815186485614,149.48319116931768 67.46546245171349,149.36544572613857 67.4119417960855,149.2798126780908 67.2861682553597,149.1727713661968 67.06673356728491,148.98009700577649 66.98110051843962,148.8623515640329 66.89814350205671,148.7339019898877 66.83391871546263,148.57334002364172 66.77236996133092,148.42348218772383 66.70814517457733,148.23080782730352 66.61983609279113,148.12376651588804 66.52349891282023,148.03813346736175 66.34688074924784,147.95250041771894 66.18096671664155,147.86686736919265 66.03913697922735,147.78123431954984 65.85716675009215,147.64208061507654 65.74477337343286,147.52433517333296 65.69125271764536,147.43870212369015 65.57885934082657,147.22461950101865 65.46111389844496,146.93560796062746 65.40224117725417,146.75363773197077 65.35674861997038,146.5716675025166 65.28984780043537,146.42180966659868 65.26041143983997,146.3147683562997 65.21491888255618,146.186318782633 65.16942632527238,146.0471650781597 65.15069409596208,145.9294196352996 65.10787757145968,145.8437865862948 65.01421642395118,145.7153370126281 64.90182304713238,145.544070914459 64.7680214080624,145.39421307901964 64.58605117892719,145.25505937406783 64.4254892122027,145.13731393184574 64.22746278637912,144.99816022785095 64.08028098340212,144.86971065370574 64.03478842595882,144.79478173550754 64.03211239317741,144.66633216279786 64.06154875409183,144.51647432640146 64.14182973721482,144.29168757340187 64.23281485178241,144.04549255751309 64.25957517975591,143.89563472111666 64.24351898290801,143.73507275487069 64.15788593406272,143.553102525257 64.05084462264722,143.3604281648367 63.93309918026562,143.16775380489491 63.83676200029473,143.00719183801093 63.818029770665426,142.9322629204507 63.796621508414226,142.66465964231074 63.77521324616303,142.31142331452793 63.82338183638773,142.09734069233494 63.874226459074826,141.87255393821883 63.86084629548683,141.56213413605496 63.84211406569803,141.2088978092292 63.818029770665426,141.080448235722 63.828733901791026,140.6094664657171 63.847466131420326,140.44890449947113 63.874226459074826,140.3418631875771 63.93309918026562,140.27763840130203 63.99464793455683,140.22411774535502 64.09366114730912,140.10637230313293 64.36661649085241,139.86017728724414 64.7198528179972,139.54975748460174 64.85097842444529,139.37849138691115 64.88041478488118,139.28215420646174 64.8670346209742,139.16440876360164 64.7733734737847,139.02525505912834 64.6235156378668,138.88610135465507 64.4468974742944,138.69342699471326 64.23549088456382,138.50075263429298 64.08563304880542,138.3080782743512 63.92774711502183,138.14751630651017 63.73239672166063,137.912025422066 63.467469476461545,137.6551262752111 63.32028767332505,137.46245191526933 63.344371968517144,137.36611473481992 63.45408931239504,137.20555276761692 63.54507442712214,137.04499080137094 63.66014383688184,136.89513296545303 63.737748787382934,136.76668339130782 63.78056531188533,136.67034621133692 63.79929754119563,136.58471316265116 63.83140993457243,136.42415119544813 63.839438032916625,136.27429335953025 63.874226459074826,136.15654791730816 63.95183140973542,136.11373139328427 64.33718013041651,136.12443552456938 64.5191503593922,136.09232313103306 64.7546412441554,136.01739421331337 64.8830908178221,135.93176116367056 64.95534370276039,135.84612811514427 65.00351229282559,135.72838267292218 65.05703294845358,135.5785248370043 65.14534203023977,135.33232982063697 65.22829904662268,135.1075430669994 65.32196019381217,134.91486870657909 65.43970563619376,134.73289847808192 65.54139488204648,134.6151530352218 65.68590065224207,134.48670346219313 65.97491219247375,134.21910018405313 66.52885097822353,133.75882254597136 66.47533032259552,133.52333166041063 66.37096504412094,133.34136143191347 66.34420471646644,133.26643251371527 66.23716340505094,133.12727880924197 66.14350225786144,133.04164575959916 65.91871550406435,132.88108379335318 65.48252216069616,132.592072252962 65.12928583371088,132.38869376109707 64.8054858671615,132.2067235319619 63.826057869169134,131.66081284487532 63.520990131930034,131.48954674670622 63.14366950991216,131.28616825579834 62.61916708475777,131.00786084637323 62.378324134272276,130.89011540415115 62.193677872355686,130.82589061675955 62.0197357417242,130.79377822418027 61.8350894796481,130.78307409225715 61.62903495563981,130.77236996176956 61.31593912021602,130.76166583048445 60.94129453066053,130.74025756823326 60.54791771195425,130.70814517453744 60.17059708961736,130.65462451859045 59.82806489359817,130.59039973231535 59.57116574658378,130.53687907636834 59.39454758301138,130.48335842137837 59.1322963705937,130.40842950318017 58.615822043624014,130.21575514323837 58.12343201184643,129.9909683897603 57.46245191484065,129.6377320619775 57.01020237478407,129.3594246528714 56.49105201519249,128.97407593203081 56.0280983440103,128.65295199906035 55.388526509255726,128.27830740902633 54.82388359238035,128.03211239313754 53.99163739752448,127.74310085274635 53.4189663821454,127.43268105058247 52.64291687569893,126.92958688736029 51.98996487687785,126.50142164201729 51.275464124244074,126.0625522657082 50.90081953500759,125.90199029946223 50.34420471647641,125.62368288987763 49.750125438846126,125.36678374318224 49.364776718484045,125.20622177581974 48.998160227272756,125.07777220263155 48.272955343832386,124.70312761323557 47.7698611807697,124.34989128640979 47.11690918194862,123.9538384347626 46.74494062549354,123.72905168064649 46.60578692070124,123.6541227624483 46.672687740236235,123.47215253379161 46.84662987102723,123.06539555069982 47.02592406738103,122.40173942123165 47.09282488691602,122.05920722553147 47.19986619833152,121.51329653732837 47.26676701786652,121.21358086597108 47.35507609965271,120.6783743096911 47.44338518127941,120.22880080305393 47.57986285329031,119.47951162410246 47.7109884594194,118.85867201817966 47.903662819839695,118.2592406756246 48.013380163877095,118.0023415282912 47.6815520989835,117.03896972714674 47.478173607597114,116.38601772864466 47.282823214395414,115.93644422089096 47.06874059220243,115.24067569836501 46.45057701938004,113.64576016081017 46.225790265742454,113.05703294874269 46.15888944620745,112.821542064139 46.23649439686805,112.41478508056869 46.29804315099975,112.00802809843393 46.41043652781855,111.35507609993185 46.54423816688855,110.46663321586907 46.56564642913975,110.34888777364696 46.61649105182684,109.28917879237211 46.62451915017104,108.80749289203914 46.64325137980034,108.32580699074914 46.63522328129664,107.88693761444006 46.61916708476774,107.40525171410708 46.608462953642146,106.76300384641159 46.58170262566864,106.48469643746502 46.55761833063604,106.24920555238282 46.51480180613364,105.14668004676506 47.935775213216495,103.8407760491229 48.179294196164385,103.55176450873171 48.28633550742038,103.33768188606021 48.37732062198798,103.28416123059172 48.56731894946737,103.16641578836963 48.23816691751468,102.96303729762126 48.07760495047118,102.79177119945216 47.959859508249096,102.60980096983845 47.906338852461595,102.52416792131216 47.8126777052721,102.36360595394966 47.694932262731,102.12811506950547 47.5638066564424,101.93544070908517 47.435357083094715,101.86051179136548 47.26676701786652,101.78558287316727 47.11958521473002,101.69994982400297 47.03395216588473,101.56079611952968 46.90817862499943,101.34671349685819 46.771700953148034,101.15403913691641 46.64592741242224,100.9506606450515 46.51480180613364,100.73657802285851 46.38635223278595,100.47967887616313 46.24719852799365,100.25489212252553 46.10269275779805,100.04080950033256 45.950158889417764,99.83743100798914 46.46128115050564,99.52701120582526 47.44873724684221,98.80983441993158 47.48352567300041,98.43518983149261 47.628031443196,97.9856163232604 47.7484529185185,97.64308412740073 47.761833082265994,97.34336845668145 47.88760662299179,96.97942799793255 48.01070413093619,96.80816190040147 48.47633383489977,96.26225121219836 48.864358588202755,95.79126944267199 49.57083124249233,94.92423482149842 50.512794781704606,94.00367954533486 50.98912861663428,93.48988125082757 51.34504097656047,93.16875731674058 51.92038802456145,92.6977755476927 52.58939621991143,92.21608964735972 53.61164074256569,91.56313764790063 54.133467134779174,91.28483023943257 55.06740257548774,90.79244020765498 55.50359591885592,90.58906171579008 55.843452082253215,90.46061214212338 56.2127446059269,90.33216256909469 56.41612309731329,90.24652951945188 56.98076601434818,89.9147014550368 57.325974243148764,89.70061883284382 56.828232145648876,89.34738250506102 56.1913363436757,88.90851312875192 55.38049841091153,88.36260244214387 54.941629034761945,88.00936611436106 54.68740592052895,87.85950827892168 54.08262251193257,87.51697608258348 53.4055862182384,87.088810837719 52.22277972885964,86.36092992101872 51.51630707472957,85.98628533194174 51.23799966546398,85.84713162698993 50.98110051844959,85.82572336473874 50.6680046830258,85.88994815149233 50.17293861830731,86.01839772515903 49.59491553752493,86.31811339699483 49.31125606269654,85.36544572665696 48.931259407737755,83.79193845151283 48.87238668670646,83.38518146874004 48.90449908008326,83.12828232156615 48.95801973555176,83.01053687934406 49.07576517825236,82.83927078117496 49.287171767823445,82.67870881381245 49.822378324103425,82.63589228931005 50.05786920870712,82.50744271612187 50.34420471647641,82.29336009345037 50.686736912336094,82.0471650780401 51.002508780700786,81.81167419263888 51.208563304709074,81.52266265272621 51.361097173408375,81.1480180626922 51.52433517291426,80.67703629380384 51.70630540220896,80.17394213106016 51.842783073900854,79.90633885292017 52.08897808978964,79.52099013160105 52.20404749938984,79.31761164069317 52.26292022074014,79.1463455431621 52.254892122236434,78.98578357532108 52.23348385998524,78.87874226502211 52.23080782736334,78.77170095312809 52.29503261411694,78.64325137946139 52.34855326958544,78.51480180627321 52.399397892432034,78.4184646258238 52.50108713812523,78.30071918408022 52.62953671179193,78.17226961057303 52.672353236134825,78.10804482318142 52.72052182635952,78.03311590594024 52.73390199010702,77.75480849651514 52.78742264589452,77.46579695612395 52.832915203178324,77.24101020248635 52.95066064540041,77.00551931804218 53.04699782553081,76.80214082617726 53.11122261244391,76.64157885929328 53.1700953334752,76.43820036806639 53.218263923540405,76.2027094836222 53.293192841419604,75.9993309917573 53.410938283960704,75.8708814180906 53.14333500582071,75.20722528814392 53.07911021890761,74.90750961694614 52.54657969540903,73.38752299663248 52.09433015551195,72.06021073785564 51.88559959872226,71.41796286968166 51.80531861512076,71.27880916520836 51.722361598737855,71.18247198523747 51.34236494377907,70.81853152712658 50.79913028915489,70.4117745445133 50.555611306207005,70.16557952862452 50.29068406084841,69.95149690579352 50.04716507758152,69.67318949636842 49.72336511103213,69.26643251423364 49.68054858652973,69.10587054639264 49.80097006169272,68.94530858014666 49.33801639051054,68.57066399011265 48.85900652263996,68.15320287701178 48.04281652431299,67.33968891130671 47.7992975412056,67.0934938949394 47.59324301703781,66.38702124049033 46.172269610114455,67.10419802686252 45.907342364915365,67.33968891130671 45.69058370946247,67.45743435305029 45.44171266079228,67.48954674722461 44.9225623012007,67.35039304259182 44.25623013879163,67.0934938949394 43.92975413930133,66.9650443212727 43.38384345189575,66.79377822406063 42.82722863336457,66.54758320817184 42.51948486382259,66.38702124049033 42.1635725035774,66.11941796235034 42.2492055527417,65.81970229099305 42.1608964709555,65.65914032426856 41.09315939101744,66.05519317655376 40.073590901463575,66.41913363466465 39.06740257549771,66.67603278088151 38.034453922036846,67.16842281313761 37.15671516957818,67.16842281313761 36.97206890766158,67.20053520683342 36.31644087637811,67.45743435305029 36.038133467112516,67.5644756649443 35.353069074914636,67.7785582876158 34.916875731546455,67.84278307389089 34.69476501069026,67.86419133662059 34.34152868354548,67.8320789430843 33.99364442196349,67.79996654938849 33.5574510785953,67.7357417631134 33.09717344035402,67.63940458314251 32.20070245842555,67.3825054353306 31.876902491876162,67.27546412439361 31.67084796770837,67.1898310749103 31.41662485347538,67.06138150220062 31.19719016540059,66.93293192869342 30.9081786251689,66.82589061679941 30.62987121590331,66.75096169907972 30.236494396878022,66.67603278088151 29.69861180781664,66.57969560091063 29.44706472636505,66.53687907688673 29.214249874542762,66.49406255238434 29.026927579844767,66.47265428997363 28.0876400735734,66.46195015868854 27.630038467954016,66.50476668319094 26.821876567811742,66.59039973283375 26.607793945459253,66.63321625685764 25.711322963530783,66.9650443212727 25.457099849457293,67.2326475994127 24.945977588209914,66.83659474872253 23.96387355743615,66.11941796235034 23.321625689740667,65.62702793057275 22.558956347201196,65.04900484979038 21.638401070240125,64.32112393356861 21.544739923050635,64.32112393356861 21.39755812007364,64.35323632726441 21.27178457918834,64.42816524546262 21.079110218927546,64.56731894993591 20.881083793103954,64.68506439167949 20.707141662472463,64.7385850476265 20.525171433177768,64.7921057035735 20.367285499075173,64.8135139658247 20.18799130272138,64.80280983390158 20.043485532525782,64.7599933098777 19.84545910670219,64.6101354739598 19.652784746441398,64.4388693757907 19.524335173093707,64.37464458951561 19.430674025585205,64.33182806485371 19.270112058860715,64.35323632726441 18.93025589546342,64.5030941625443 17.525338685228473,65.12393376798858 17.28181970212108,65.1881585552207 16.984780063545195,64.54591068768471 16.401404917040512,63.272119083259845 15.879578524827036,62.09466465928438 15.33901990282475,60.89580197369574 14.75564475679858,59.589897976532086 13.489881250877417,59.86820538515966 12.357919384504761,60.092992139275765 11.921726041136576,60.178625187802055 11.806656631376876,60.167921057473976 11.506940960019591,59.643418631522074 10.795116240167216,58.29469811049404 10.618498076594822,57.92005352046004 10.30005017544873,57.23498912826216 9.85850476667725,56.132463623122916 9.577521324470755,55.618665329094135 7.324301722532035,55.72570663939311 7.233316607964439,55.72570663939311 7.161063723026145,55.672185983924614 7.169091821210841,55.554440542181034 7.20120421458764,55.458103361253116 7.286837263592437,55.233316608094036 7.359090148849738,55.083458772814154 7.377822378160034,54.96571332995404 7.273457099844942,54.54825221653417 7.02726208395615,53.649105201664796 6.936276969388554,53.30657300580511 6.938953002169953,53.21023582583422 6.965713329824449,53.113898645384815 7.03796621508175,53.0068573334908 7.174443886773641,52.89981602303233 7.460779394542935,52.79277471177633 7.693594246524726,52.62150861360723 7.955845458942413,52.278976417269035 8.017394213074114,52.193343368104735 8.030774376981114,52.03278140138025 7.998661983763819,51.79729051693606 7.971901655630813,51.52968723879607 7.939789262413518,51.37982940287817 8.04683057351001,51.14433851843399 8.287673523995505,50.69476501068029 8.5338685400438,50.24519150404313 8.58471316257139,50.148854323434215 8.755979260740489,49.93477170124123 8.96470981768968,49.720689078091226 9.307242013549365,49.36745275142495 9.491888275625463,49.185482521811245 9.424987456090465,48.586051179256174 9.47583207877756,48.093661147000084 9.47315604599616,47.23733065711161 9.411607292183465,47.02324803444012 9.325974243019164,46.87339019852222 9.25639739086227,46.72353236356135 9.27780565311347,46.59508279005415 9.339354406926164,46.38100016722315 9.384846964209963,46.22043820002015 9.45442381652636,45.877906004160465 9.43836761983796,45.2998829238566 9.366114734899666,44.98946312121421 9.368790767681066,44.679043317933804 9.344706472648468,44.40073590898722 9.41963539036816,44.27228633532052 9.47315604599616,44.12242849940262 9.41963539036816,43.88693761495844 9.336678374463771,43.69426325501665 9.309918046330765,43.415955844953544 9.253721357921368,43.191169091794464 9.095835423818773,42.64525840422938 8.900485030936084,42.23850142209461 8.747951162236784,41.87456096350522 8.643585883921693,41.64977420986762 8.375982605781703,41.28583375175674 8.298377655121104,41.157384177611526 8.702458604952987,41.01823047361675 8.643585883921693,40.84696437544765 8.014718180133212,40.44020739283437 7.789931426495619,40.44020739283437 7.2654290013412375,40.472319785413646 6.955009198698849,40.483023917336766 6.783743100689255,40.18330824502246 6.63120923214946,39.937113229133665 6.532196019237664,39.79795952466038 6.454591068577066,39.72303060694068 6.149523331497478,39.530356246520384 5.576852316437401,39.305569492882796 5.22361598913311,39.1878240506607 4.420806154713139,38.93092490396532 4.09968222094515,38.78106706804742 3.7437698610189627,38.58839270810564 3.3343368456242812,38.40642247849193 4.054189663661352,38.31008529804252 4.046161565317152,38.10670680713464 3.960528516471859,37.74276634854525 3.8989797623401574,37.485867201371356 3.8641913361819586,37.32530523512538 3.9203880245913565,36.768690416434694 3.995316942630058,36.436862351062594 4.059541729383656,36.05151363070051 4.09968222094515,35.84813513931412 4.123766515977749,35.54841946859485 4.094330155541854,35.37715337042575 3.987288844126354,35.10955009228576 3.850811172593967,34.64927245372547 3.5832078944539765,34.09265763503479 2.817862518654596,33.289847800614815 2.2960361262816145,32.76534537530093 1.5842114065887436,32.00535206586187 0.9740759325890693,31.330991804151573 0.6288677034694736,30.97775547796381 0.5325305233390771,30.806489379794712 0,30.217762167567724 1.4825221607360433,29.286502759481053 2.41645760144461,28.751296203201072 3.1657467802365833,28.323130958815106 3.826726877401864,27.937782237815007 4.452918548408945,27.638066566617226 5.025589563309517,27.316942632051717 5.4216424151162075,27.102860010337245 6.087974577684784,26.89948151847234 6.992473657797952,26.67469476531326 8.03345040960301,26.38568322492207 9.036962702627974,26.107375815496976 10.31343033935573,25.743435357386094 11.258069911189896,25.475832079246103 11.501588894297287,25.400903161047896 12.408764007191854,25.144004013714497 12.804816858839041,25.454423816994904 13.10988459591863,25.711322963211774 13.599598594914813,26.107375815496976 13.990299380999199,26.46061214216325 14.570998494562978,26.931593912168147 14.881418297205366,27.18849305934204 15.159725706470956,27.402575681535026 15.68422813162534,27.852149188331698 16.16591403227732,28.2482020406169 16.59140324467941,28.580030105031977 17.123933768018485,29.00819535037497 17.734069242177664,29.50058538167404 18.659976584542033,30.239170429818923 19.931092155706988,31.266767018355 20.672353236314265,31.887606622682753 21.044321793088354,32.198026425803654 21.448402742760734,31.951831409914863 22.625857166736196,31.213246362407993 23.690918213573852,30.53888610165472 25.467803980582893,29.45776885717164 26.68807492874175,28.66566315467479 27.442716173256024,28.162568990974087 27.72637564792491,27.9698946310323 28.24820204029789,27.54172938616782 28.89044990799337,27.20990132159324 29.33467134954625,27.01722696069443 29.45776885749065,26.92088978120205 29.521993644244247,26.792440207694856 29.564810168746643,26.514132797631746 29.385515972392852,25.936109717327877 29.139320956823067,25.475832079246103 28.962702792931665,25.22963706335731 28.652282990289276,24.908513128791803 28.261582204204892,24.587389195183317 28.058203712818496,24.40541896668614 27.806656631366906,24.14851981887423 27.66750292705312,23.998661983913355 27.53102525504222,23.827395885265744 27.41595584528252,23.58120087001497 27.11356414098433,22.553604281957405 26.875397223599244,21.85783575879343 26.73891955174785,21.493895300204034 26.583709650426655,21.15136310386584 26.374979093317958,20.808830908644172 26.12610804480727,20.43418631861017 25.925405586202277,20.155878909504082 25.75146345525178,19.92038802458139 25.620337848963185,19.781234320108098 25.144004014033506,19.417293861997212 24.967385850461113,19.29954841977512 24.38133467117503,18.710821207548136 24.062886770347944,18.432513797963537 23.471483525658567,17.83308245540847 22.845291854651485,17.180130456906397 22.21107208561921,16.580699113234804 21.82037129937532,16.19535039287272 21.437698611635135,15.756481016563631 21.167419300713743,15.488877738423641 21.11925071080805,15.381836427646157 20.99080113714135,14.621843117728584 20.870379661978355,13.883258069583698 20.822211071913156,13.230306071081625 21.01220939939255,13.15537715288342 21.362769693755936,12.919886268917748 21.683893627523926,12.662987121584349 21.954172938445314,12.373975580714648 22.277972905154208,11.935106205362583 22.604448904484997,11.528349221792277 22.855995985777085,11.164408763681395 23.07275464122998,10.875397223768717 23.193176116392976,10.725539387372306 23.31627362433737,10.650610469652614 23.41261080430826,10.629202207401415 23.404582706123566,9.944137815203534 23.64007359088676,9.91202542198624 23.859508278802046,9.89061715973504 24.437531359584426,9.79427998024266 25.221608964694102,9.612309750788459 25.41963539035819,9.59090148901577 26.06188325821318,9.708646931237862 26.179628700275764,9.740759324295654 26.93426994463054,9.441043653097871 27.20187322277053,9.376818865706259 27.48285666481752,9.33400234120386 28.42482020402979,9.33400234120386 28.72453587554658,9.33400234120386 29.433684562458048,9.259073423962679 30.22311423297102,9.173440374957881 31.250710821028584,8.991470145822689 32.14182973723475,8.852316440392373 32.48703796603534,8.745275129933898 32.83492222761733,8.563304900479695 33.158722194166714,8.402742933595702 33.31928416121021,8.381334671344502 34.13547415937768,8.413447064561797 34.31209232310958,8.456263589542708 34.44321792939817,8.392038802310598 34.41913363420607,8.167252048673005 34.742933600755464,8.060210737895522 35.71433350056313,7.9317611642288215 36.399397892442,7.685566147861519 36.760662317930986,7.4821876564751255 37.19685566145868,7.3537380834464425 37.46178290665777,7.321625689750635 37.75882254539315,7.31092155878454 38.591068740568026,7.51430004969242 38.69543401888312,7.460779394223927 39.080782739404704,7.2788091657267495 39.67753804965688,7.096838936113044 40.68105034268185,6.797123264755759 41.22696103008743,6.604448904813973 41.83977253702801,6.433182806166363 41.91737748800762,6.422478675359772 42.20906506086119,6.283324970886481 41.69526676683241,5.887272119079791 41.88258906168991,5.673189496886806 41.98427830754261,5.630372971746392 42.1261080447973,5.523331660968908 43.07877571481617,5.148687070934905 44.25087807306932,4.66700117060193 44.35256731876252,4.624184646578043 45.331995316754885,4.27094831879524 46.41846462616275,3.907007861162869 46.648603445203634,3.7892624179837533 47.05803646075782,3.5644756648246734 47.197190165390616,3.457434353568677 47.301555444024714,3.4681384843752685 47.328315771679215,3.328984779901978 47.34437196852711,3.125606288994097 47.218598427641815,3.061381501761987 47.328315771679215,2.858003010854106 47.6842281316054,2.836594748602907 47.8153537380535,2.4405418969557213 47.8715504266224,2.1301220936753165 47.900986787058294,1.8839270777865251 48.77069744101327,0.674360260753272 48.86971065376556,0.7171767857341824 48.94463957164476,0.6208396052847779 49.11858170259525,0.5245024248353733 50.33082455240991,0 50.5181468471079,0.16056196720300225 50.72420137143519,0.41746111405788916Z"/></svg>