<svg xmlns="http://www.w3.org/2000/svg" width="256" height="256"><path d="M206.01775221926582,7.408926114810677 214.25878234779347,15.969996249531192 215.21490186273283,16.75409426059048 217.91523940492561,18.930366295786975 219.90348793623045,20.546568320801683 225.37217152167864,23.810976371092714 225.61620202525316,24.00300037504688 226.14026753368012,24.43505438108238 226.55631954018094,24.803100387548444 226.90036254531816,25.04313039034512 227.61645205650706,26.067258406585566 227.8484810601325,26.595324415790394 227.86448306038255,26.723340416359953 227.88448556069508,26.851356419075547 227.94049256180864,27.075384422099088 228.0085010628713,27.33141642705338 228.06450806350793,27.667458431588692 228.10851356443396,27.779472433100462 228.1725215654341,27.923490435112296 228.2245280662467,28.099512438339538 228.28453556694586,28.27553444085143 228.2965370671334,28.41955244357861 229.4366795849481,31.395924490799768 229.2806600825103,31.683960494823435 229.20865108162363,31.779972495608277 229.0926365798109,31.85998249733533 228.95661957768564,31.907988497608528 228.82860357544692,31.971996499562444 228.75659457456024,32.06800850034729 228.71658957369672,32.18002250185906 228.6605825728216,32.40405050631329 228.72859107388425,32.62807851005218 228.78459807475934,32.740092511563944 228.93261657707214,32.93211651456432 229.05263157894737,32.9961245158029 229.1926490813736,33.04413051536075 229.33666708338544,33.07613451586081 229.4566820854991,33.156144516872516 229.5846980872609,33.20415051881485 229.71671458932366,33.25215651908805 229.8967370921365,33.556194523123295 229.93274159269907,33.668208525350416 229.96874609326167,33.78022252686218 230.0087510941252,33.892236529089296 230.0967620952619,34.11626453282818 230.16477059632453,34.21227653361303 230.25678209800066,34.29228653534008 230.36479559944993,34.38829853612492 230.46080760095012,34.468308537851975 230.5648206025753,34.54831853957903 230.664833104138,34.644330540363875 230.77684710636512,34.72434054137558 230.90486310812693,34.82035254359111 231.04488061007626,34.94836854582981 231.15289411176397,35.02837854755686 231.25290661332667,35.12439054762636 231.35691961519032,35.20440055006876 231.47293411700304,35.26840855035354 231.58894861881578,35.34841855208059 231.71296412051507,35.412426552365375 231.84098012275376,35.47643455336549 231.9809976247031,35.52444055387714 232.11701462682836,35.572446555819475 232.2530316289536,35.62045255609267 232.37704713136827,35.68446055733125 232.4970621327666,35.76447055881985 232.61307663457933,35.82847856005843 232.74509313664208,35.89248656034321 232.87310913888078,35.940492561570196 232.9891236406935,36.02050256234345 233.0931366423187,36.10051256335517 233.18114764345543,36.19652456580914 233.23715464433053,36.30853856636712 233.2891611453816,36.42055256859424 233.35316914614327,36.516564570332875 233.44118014775688,36.612576571117714 233.55319414926865,36.69258657284477 233.66120765095636,36.77259657457182 233.78122265283162,36.8366045748566 233.87323415450774,36.93261657707213 233.981247655957,37.01262657736849 234.0812601575197,37.09263657909555 234.16127015876984,37.18864857988039 234.23327915989498,37.284660582334375 234.3092886613211,37.39667458456149 234.38129766220777,37.492686585346334 234.4533066633329,37.58869858613117 234.53331666458308,37.684710588585155 234.78134766845855,37.716714589085214 234.95736967144734,37.66870858785823 235.1253906740727,37.63670458735817 239.65395674459307,43.3654206775847 244.13451681460182,46.99787473458024 248.0030003750469,48.35804475440221 245.51068883634295,51.94249281160145 245.32666583346762,51.94249281160145 244.9106138269668,51.91048881014759 244.38254781847732,52.66258282237596 242.02625328189865,55.6549568691318 216.53906738366138,64.52006500788757 216.41105138142268,64.52006500788757 216.2670333791724,64.55206900838763 216.12701587698461,64.58407300817235 215.97899737467182,64.6160770086724 215.83897987272252,64.64808100917247 215.6989623702963,64.68008500967254 211.8384798102147,65.03212901636546 211.38242280285036,65.08013501592332 211.0503812976622,65.11213901642338 211.37442180320224,65.46418302240096 211.68246030753843,65.76822102762846 211.97449681257842,66.08826103239063 212.19852481560196,66.4083010376297 212.6425803225403,66.77634704338043 213.01462682835356,67.14439304913114 213.29066133290505,67.44843105292794 213.5626953369171,67.76847105888235 213.786723340656,68.04050506241755 214.0667583447931,68.40855106888361 214.34279284910613,68.69658707290728 214.4268033504188,68.77659707463432 214.61082635329416,69.01662707743101 216.8351043880485,72.10501312592548 216.96312039004874,72.28103512843738 216.94711838979873,72.53706713339167 217.06713339167396,72.84110513742692 217.06713339167396,73.113139141439 216.92311538966212,73.16114514195066 216.607075884724,73.25715714416619 216.32304038028596,73.27315914417777 215.67895986998374,73.52919114770137 215.5229403677844,73.5931991487015 215.51493936742094,73.94524315539442 215.5709463685345,74.05725715666775 215.63095386923365,74.16927115889486 215.72696587073384,74.37729716214527 215.72296537090978,74.71333916644213 215.71096387048382,74.95336917090795 215.74296787098388,75.17739717464683 215.77897237154644,75.40142517838572 215.8109763720465,75.62545318117081 215.8109763720465,75.7534691834095 215.82297787247248,75.97749718714839 215.77497187196084,76.20152519088728 215.72296537090978,76.31353919144526 215.69496187023378,76.42555319367237 215.66695836979622,76.53756719589948 215.61895236928459,76.64958119669592 215.5229403677844,76.85760720042322 215.47493436727274,76.96962120265033 215.37892236529567,77.19364920495853 215.2709088638464,77.40167520963962 215.19889986248282,77.49768721042446 215.1468933616702,77.60970121265159 215.0948868608576,77.72171521416335 214.99887485935741,77.92974121645996 214.9468683585448,78.04175521868709 214.90686335815818,78.1537692209142 214.87485935789658,78.26578322242597 213.46668333541692,84.41055131891487 213.88673584221868,85.11463932896244 215.4429303662958,87.80297537215993 215.54294286785847,88.0910113761836 215.9629953744218,88.8271033874466 216.21102637829728,88.97112139017378 216.39104888134858,89.24315539370896 216.51506438304787,89.33916739592449 217.41117639704964,90.98737342072391 217.7232154021637,91.43542942891703 217.93924240553912,91.80347543466775 218.06725840730093,92.01150143767971 218.30728841128982,92.41155144393049 218.39929991248906,92.55556944594233 217.8872359047265,92.98762345197783 217.12314039278752,93.83572946642172 217.05113139142392,93.93174146649122 216.89911238904864,94.12376547044539 216.57107138416143,94.52381547669617 215.69496187023378,95.5639454919944 214.9188648583457,96.50806350722314 214.07875984498062,97.43617952267876 213.41067633454182,98.25228153423811 212.754594324529,99.08438554723973 211.98249781222654,99.96449556075301 211.20240030027594,100.8126015751969 210.78634829377515,101.34066758344792 210.82635329416178,101.50068758547134 211.58244780597576,105.3731716464558 211.65045630703838,105.78922365200283 211.19439929991248,107.40542567844822 211.12639079884985,107.69346168247189 211.0343792974122,108.31753969150776 210.87435929538876,109.34166770846356 210.7183397927125,110.71783972901245 210.6983372921615,111.40592574095604 210.75834479309913,111.94999374921865 210.81435179397425,112.5100637572544 210.88236029503688,112.67008375999316 211.0463807975997,113.03812976645922 211.13039129891237,113.23015376874426 211.21440180022503,113.40617577220995 211.41042630328792,113.75821977723373 211.56644580572572,113.9982497800304 211.94249281160145,114.59032378952001 212.19452431553944,114.95836979598607 212.41055131891486,115.26240780049822 212.55056882110264,115.4544318030217 212.65858232279035,115.61445180647581 213.21865233177988,116.2225278150232 212.73859232427895,116.23852981646547 211.99849981247655,116.33454181653498 212.04650581322664,116.52656582048914 212.29053631727808,117.00662582846698 212.64658082260283,117.47068383500253 212.99862482810352,117.95074384298037 213.31466433304163,118.35079384923115 213.72671583947994,118.86285785675526 213.09863732966622,118.9588698584939 212.04250531316416,119.10288786050573 211.55444430577663,119.18289786223278 211.63845480708932,120.11101387601924 211.57044630602667,120.22302787753102 211.48243530441306,120.71908988528199 211.43042880360045,121.02312789003258 210.91036379547444,122.19127390828486 210.95436929640047,122.52731591425086 210.93836729615043,122.75134391798974 210.81435179397425,122.71933991653589 210.66633329166146,122.73534191654747 210.52631578947367,122.76734591704754 210.3302912864108,122.8473559187746 209.19014876883452,123.26340792551385 209.84223027878485,124.47955994427778 210.03825478208617,126.7358419790553 209.8382297789608,127.5839479934992 211.6864608078394,134.43280410003567 212.69058632352886,137.07313414129084 212.91461432679085,137.6492061500535 213.0946368296037,138.08126015680435 213.27465933289344,138.57732216527066 213.4386798352178,138.99337417081767 213.514689336167,139.2814101755567 213.66670833854232,139.74546818352295 213.7627203400425,139.93749218533108 213.76672084010502,140.06550818804666 213.75871983998,140.2095261910123 213.73471683960494,140.64158019776315 213.77072134040597,142.49781222628988 211.30241280183864,142.84985623131365 208.918114764584,143.42592824007633 209.46618327290912,147.63445430631145 210.32229028652424,150.54681835229403 210.39829978747343,150.77084635460224 211.20240030027594,153.0271283900951 210.4303037879735,153.0911363910952 210.05025628203526,153.0111263910373 209.38217277159646,153.1871483935492 209.04613076634578,153.25115639383398 208.6700837607085,153.3471683960495 207.90998874859358,153.55519439929992 207.22990373796725,153.73121640181182 206.5938242280285,154.067258406824 205.1616452056507,154.6433304165405 203.4094261782723,155.363420427315 201.21715214425646,156.2435304415436 198.8608576072009,157.26765845683028 197.53669208674927,158.2437804727975 197.1726465812995,158.70783847933308 195.84448056007,158.40380047386714 194.7603450431304,158.16377047107048 194.6723340422321,158.85185648134492 194.59232404050508,161.23615451883802 194.06425803225403,166.74084260413343 194.0442555319415,166.94886860857608 193.80822602825353,168.10101262633987 193.6962120265033,168.32504062912497 192.40805100637579,170.72534066662965 192.32404050506312,170.86935866935684 191.8159769973631,171.81347668482402 191.50793849231155,171.68546068186998 191.04388048506064,171.4614326781311 190.9118639829979,171.39742467713097 189.83572946642172,170.9333666705954 188.27553444180523,170.24528066032096 187.22740342542818,169.8292286526279 185.87523440430053,169.33316664559229 185.30316289560037,169.09313664112648 184.6270783847981,168.82110263782974 184.2750343792974,168.6930866348757 183.2909113639205,168.32504062912497 182.51081385173146,168.0050006238859 181.91873984271876,167.7809726215777 181.72271533941742,167.71696461986224 181.32266533316664,167.55694461807727 180.79859982521657,167.3809226153269 180.02650331291412,167.1408926103842 178.80635079384922,166.8848606068606 178.11826478333634,166.86885860684902 176.88611076408392,167.02887860887245 174.38179772495403,167.5249406166234 172.73759219902487,167.8129766223162 171.50143767994842,167.9889986248281 170.14926865882077,168.1970246271247 168.89711213925582,168.30903862935182 168.45705713214153,168.32504062912497 168.62907863482934,168.66108263437562 169.2971621455066,170.2132766598209 169.58919864983122,170.94936867108387 169.70921365170648,171.25340667511912 169.90923865483185,171.76547068359704 169.95724465558195,171.8774846851088 170.1292661582698,172.8376047001107 170.19727465957087,173.23765470636147 170.40130016275876,174.64583072907956 170.54931866507155,175.82997874638963 170.71333916763436,177.3341667706079 170.8533566695837,178.87035879437246 170.92136517064634,179.8624828093975 171.06938367343602,181.41467683484277 171.24540567570946,182.74284285416468 171.32941617702213,183.15889486185773 171.68146018276127,184.4550568813949 171.84548068508565,185.0791348913846 172.05750718839855,185.78322290286286 172.2415301912739,186.35929491186397 172.40155019401266,186.77534691717256 172.45355669458684,186.93536692062665 172.57757219652456,187.22340292536566 172.9576197024628,188.3115389418909 173.08163520463899,188.61557694735683 173.27765970746344,189.09563695366555 173.43367921013967,189.575696960928 173.63770471308914,190.03975496889427 173.97374671833978,190.77584697968038 174.46180772596574,191.7519689961245 174.66983372969304,192.1680210023869 175.03787973496688,192.90411301388832 175.45393174146767,193.73621702688993 175.8219777472184,194.50431303889144 176.0300037504688,194.85635704391524 176.2500312541452,195.35241905238155 176.60607575946995,196.36054506813352 176.87810976372046,197.08063507890802 177.0821352671468,197.64070508765911 177.22615326915866,198.20077509593332 177.3581697712214,198.64883110412643 177.44618077259656,199.17689711094678 177.56619577471025,199.81697712237872 177.74621827728467,200.79309913739218 177.79422427803476,201.20915114270073 177.81422677858575,201.72121515117865 177.83822977872234,202.3292911604414 177.8262282785348,202.84135516891928 177.78222277808567,203.35341917739717 177.81422677858575,203.9934991873984 177.84223027878485,204.45755719393398 177.83422927889828,205.01762720363888 177.81822727864824,205.48168521017445 177.79022377797224,205.91373921692528 177.7582197774722,206.55381922740344 177.68621077658548,207.92999124795233 177.662207775972,208.31403925442996 177.59819977521033,209.33816727067043 177.59419927490936,210.01025128021794 177.53819227403426,211.51443930443622 177.4621827728466,213.2586573314512 177.46618327314755,214.15476934616828 177.53019127390922,215.1948993624203 177.6102012751594,216.12301537620678 177.6502062760229,216.93911738943527 177.67420927615953,217.59519939992498 177.6702087765739,217.99524940617576 177.7102137767221,218.39529941242657 177.81822727864824,219.035379421474 175.9299912489061,221.00362545222785 175.5099387423428,221.35566945868234 175.18989873734216,221.62770346293286 175.06188273534192,221.54769346049048 173.80572571571446,222.13976747069543 172.72959119889987,222.71583947945808 171.69746218301128,223.45193149167488 170.8573571696462,224.17202150244938 169.93724215526942,225.052131516678 169.67320915114388,225.2921615194747 168.6810851358804,226.07625953196467 167.70896362045255,226.7643455431929 166.91286410825194,227.2924115507286 166.00875109388673,227.98049756100303 165.77272159019878,228.1725215649572 165.65670708838604,228.28453556646897 165.65670708838604,228.5565695711964 162.22027753469183,231.32491561373647 160.9961245158029,231.98099762351086 158.5798224780482,232.95711963995498 155.9794974374181,233.59719964995625 153.26715839527625,233.88523565397992 152.13501687710965,233.72521565124114 151.91098887384766,233.6772096507295 151.7309663710348,233.70921365146802 151.59894986897203,233.72521565124114 151.46693336714773,233.74121765196807 151.33891736467058,233.77322165246815 151.2029003625453,233.78922365295662 151.07488436054507,233.80522565225286 150.94286785848232,233.8372296527529 150.81885235654457,233.869233653253 150.30678834854356,233.98124765476476 150.1067633454182,234.0132516552648 149.11863982997875,234.12526565749192 147.86248281058974,234.2852856602307 147.41442680358887,234.34929366051549 146.49831228927457,234.5253156637427 145.37017127140894,234.66933366575455 144.60607575946995,234.74934366676626 143.23390423802977,235.10138767250538 142.40580072509064,235.32541567624426 140.84560570095104,236.06150768774572 137.5211901487686,238.3337917230117 135.48893611701462,239.9499937480264 134.30478809851232,240.70208776001633 133.32866608349886,241.1021377662671 132.24453056655923,241.4061757710177 130.9563695461933,241.66220777525666 129.00412551568945,242.12626578250755 127.92399049881236,242.2702837845194 127.62795349442523,242.3502937855311 127.07188398549819,242.4303037879735 125.35166895861983,242.52631578875835 123.35141892736593,242.57432178998533 123.22340292536568,242.5903237904738 122.94336792122857,242.60632578977004 122.66333291709148,242.6223277912123 122.38329791223903,242.6543317917124 122.09926240780098,242.6543317917124 121.2871608951119,242.6543317917124 120.60707588472401,242.6543317917124 117.63470433804225,242.0942617820075 114.07425928264875,241.45418177296003 113.41817727215901,241.64620577524508 101.07663457956086,245.5026878350257 100.9406175774356,245.53469183552576 94.85185648206026,247.43892986527948 94.63982997898579,247.45493186672175 87.33491686460808,248.11101387649614 74.54131766470809,249.2631578940215 73.24115514439305,249.3911738967371 73.04513064133016,249.40717589603332 56.179022377797224,250.92736592002476 51.690461307663455,251.32741592627553 40.17702212776597,252.3675459432429 12.561570196512983,254.86385798153245 6.996874609564614,255.37592199001034 0.6400800100012501,255.95199399805767 0,256 0.34004250531316416,255.3119139890102 0.3280410053640891,255.18389798605617 0.23202900362545317,255.0718839845444 0.16002000273876094,254.87985998202092 0.21602700337542194,254.47980997577014 0.26003250430145625,254.33579197304294 0.32004000500062507,254.2077759710427 0.4160520065008126,253.9997499687461 0.45605700712589076,253.887735966519 0.536067008376047,253.63170396299537 0.5840730091261408,253.47168395954128 0.6480810106031626,253.32766595752943 0.7160895111888986,253.21565195530232 0.8201025128141017,253.0556319542327 0.924115514439305,252.8956119507786 1.0001250156269534,252.7835979485515 1.008126015751969,252.63957994653964 1.0961370173655893,252.47955994451624 1.2401550193774222,252.3835479423007 1.3841730216277035,252.28753594151584 1.6602075261791909,252.14351793950402 1.7762220279919176,252.06350793777696 1.888236029503688,251.9834979360499 2.036254531816477,251.8234779349803 2.1562695336917113,251.6154519302992 2.23227903487936,251.51943992951436 2.316289536192024,251.4394299277873 2.4163020377547193,251.32741592627553 2.4923115391808164,251.2314039254907 2.5683210401300163,251.1353919230367 2.6683335416927116,251.02337792247872 2.852356544568071,250.79934991873984 2.928366045994168,250.6713339157858 3.0603825480569258,250.52731591377398 3.160395049619621,250.43130391298914 3.2884110513814226,250.28728591026194 3.4124265535576135,250.1272659075232 3.5204400550068757,250.01525190529608 3.6004500562570323,249.91923990451122 3.7004625578197277,249.74321790199934 3.752469058632329,249.63120390048755 3.8244780597574697,249.47118389703346 3.896487061121059,249.3271658950216 4.000500062507814,249.11913989200966 4.048506063734804,249.00712588978254 4.080510063996418,248.86310788777072 4.100512564070509,248.70308788503195 4.196524565809145,248.54306788324698 4.288536067008376,248.46305788151994 4.380547568684504,248.3670458807351 4.496562070497231,248.23902987778104 4.572571571446431,248.1430178769962 4.660582573060051,247.9669958744843 4.732591573946744,247.79097387173397 4.780597574935285,247.66295786901838 4.8206025753219155,247.51893986700654 4.840605075634454,247.3909238654832 4.856607075884486,247.2149018615406 4.876609576435473,247.0388798590287 4.912614076998043,246.8788598570053 4.932616577072134,246.670833853278 4.9286160772480745,246.52681585126615 4.944618077498106,246.27078384702722 4.976622077998169,246.1427678457423 5.052631578947368,245.9827478422882 5.112639080123434,245.8707338407764 5.200650081260157,245.71071383899147 5.272659082385299,245.55069383553734 5.388673584198025,245.3106638327407 5.444680585311582,245.18264782978662 5.48868608576072,245.05463182921707 5.536692086510814,244.89461182576295 5.568696087010876,244.78259782353584 5.628703588186942,244.67058382202407 5.660707588687004,244.44655581900054 5.636704588073509,244.22252781621543 5.59669958768688,244.0945118132614 5.532691586448306,243.99849981247655 5.476684585811645,243.77447180873767 5.532691586448306,243.43842980277168 5.580697587436848,243.102387797521 5.59669958768688,242.87835979449747 5.6207025878234775,242.63832979027012 5.644705588436973,242.4143017865312 5.612701587936911,242.30228778501944 5.592699087624371,242.06225778150744 5.564695587186817,241.95024377928033 5.536692086510814,241.83822977776856 5.500687585948244,241.72621577625677 5.432679084885611,241.63020377547193 5.392674084498981,241.5181897732448 5.428678585061551,241.18214776727882 5.464683085624122,241.05413176670925 5.512689086374215,240.83010376297037 5.544693086874278,240.71808976074325 5.584698087260907,240.60607575851614 5.6207025878234775,240.49406175700437 5.656707088386049,240.38204775477726 5.684710588823603,240.2700337532655 5.720715089386173,240.15801975246904 5.808726090761345,239.93399174801482 5.852731591448931,239.82197774745686 5.904738092261533,239.70996374522974 5.9447430931250596,239.59794974371798 6.068758594824353,239.38992374046757 6.176772096750512,239.16589573696712 6.260782598063177,239.06988373451313 6.3527940992624075,238.9898737342168 6.4328041005125645,238.87785973198967 6.508813601700212,238.78184772977414 6.584823102887861,238.68583572898928 6.6488311043648824,238.589823727966 6.704838104763096,238.4778097257389 6.740842605325666,238.36579572446556 6.792849106376716,238.14176772072668 6.820852606575822,238.0297537192149 6.876859607689379,237.9177397169878 6.9408676084510565,237.82172771620296 6.98887360920115,237.70971371397582 7.1088886110763845,237.5016877100101 7.176897112377466,237.26165770649806 7.204900612576572,237.14964370427094 7.252906613326666,237.03762970275918 7.308913614201775,236.9256157012474 7.4769346170655515,236.6215776974506 7.540942617827229,236.50956369522348 7.6049506188273535,236.36554569321166 7.656957119639955,236.2535316916999 7.72096512064008,236.1095136889727 7.776972121753638,235.99749968746093 7.86498312312881,235.8694836845069 7.952994124265533,235.75746968371047 8.02900362569163,235.6294536817102 8.125015626953369,235.5174396794831 8.19302412825445,235.40542567725598 8.26503312937959,235.30941367647114 8.329041130379716,235.19739967495937 8.369046130766346,235.08538567273226 8.41305163169238,234.74934366676626 8.441055131891487,234.63732966525447 8.493061632942537,234.5253156637427 8.545068133755137,234.4133016615156 8.601075134391799,234.30128766000382 8.641080135016876,234.1892736592074 8.681085135880403,234.0772596569803 8.733091636454557,233.96524565570695 8.79709963769313,233.869233653253 8.861107638693255,233.75721965245657 8.921115139392423,233.64520565022943 8.985123140392549,233.5491936480139 9.033129141142643,233.43717964650213 9.065133141881153,233.32516564499036 9.105138142267784,233.10113764125148 9.14514314313131,232.98912364045506 9.20115014376797,232.87710963822795 9.261157644944037,232.7650956369546 9.317164645580698,232.65308163544285 9.433179147393425,232.4450556314771 9.469183647955994,232.33304162924998 9.509188648581073,232.221027628692 9.545193149382092,232.1090136264649 9.589198649831228,231.9969996249531 9.697212151757387,231.78897362170272 9.745218152507482,231.6769596194756 9.785223152894112,231.56494561820227 9.82522815351919,231.4529316166905 9.861232654320208,231.3409176144634 9.91323915513281,231.22890361295163 9.973246655831979,231.1168896107245 10.037254656832104,231.0048756084974 10.145268158758263,230.82885360670085 10.201275159394925,230.71683960447373 10.257282160270034,230.58882360295036 10.285285660707588,230.46080760023477 10.273284160520065,230.33279159799608 10.217277159644956,230.18877359669958 10.149268659059219,230.060757593984 10.1132641582582,229.80472558974503 10.17327165895737,229.69271158823327 10.201275159394925,229.58069758600615 10.217277159644956,229.4526815854366 10.233279159894987,229.2286535816977 10.265283160633498,229.00462557724347 10.32129016127016,228.7805975735046 10.34929366218461,228.66858357199283 10.37329666208276,228.5405675707079 10.48531066383298,228.46055756898087 10.585323165395675,228.3805475672538 10.713339167634373,228.2045255647419 10.75734466808351,227.98049756100303 10.801350168771096,227.75646955869485 10.817352169021127,227.5324415542406 10.8293536694471,227.40442555224035 10.833354169271159,227.18039754850147 10.8293536694471,226.9563695461933 10.817352169021127,226.82835354419302 10.825353169146144,226.6043255397388 10.837354669333667,226.38029753599992 10.841355169396175,226.25228153543034 10.853356669583698,226.0122515302492 10.86935866983373,225.788223527941 10.929366171009795,225.56419552444055 10.945368171259826,225.4361795214865 10.973371671458933,225.32416551997474 11.053381672709088,225.1161395169628 11.101387673459183,224.87610951321233 11.161395174635247,224.764095511939 11.225403175396925,224.5400675082001 11.285410676334541,224.31603950446123 11.30541317664708,224.18802350293788 11.337417177147143,224.07600950071074 11.365420677823147,223.96399549943743 11.4174271783973,223.73996749569855 11.461432679323334,223.3879234904363 11.533441680210027,223.0518814854241 11.561445180886029,222.92386548247006 11.57744718113606,222.58782347793473 11.605450681335167,222.23577947148027 11.63745468183523,222.01175146774136 11.645455682198694,221.88373546645647 11.725465683210402,221.67570946320606 11.79747468457399,221.56369546193275 11.869483685460683,221.33966745819384 11.897487186136686,221.22765345668208 11.917489686210777,221.00362545222785 11.885485685710714,220.89161145071608 11.913489186386716,220.55556944618078 11.96149518713681,220.44355544395367 12.049506188750431,220.3475434417381 12.157519689961244,220.26753344072642 12.285535691961496,220.12351543871458 12.257532191523941,220.01150143648746 12.217527190898862,219.8994874349757 12.089511188898612,219.69146143196375 12.061507688699505,219.35541942742842 11.993499187636873,219.25940742521288 11.773471683960494,219.29141142571297 11.561445180886029,219.22740342542818 11.45343167895987,219.14739342298577 11.30541317664708,219.17939742348585 11.157394674334292,219.19539942492813 11.001375171896488,219.17939742348585 10.853356669583698,219.16339542442805 10.709338667333416,219.11538942320107 10.573321665208152,219.083385422701 10.353294161770222,219.083385422701 10.217277159644956,219.09938742247414 10.073259157394673,219.1313914229742 9.933241655206901,219.083385422701 9.801225153144143,219.01937742241623 9.661207651194818,218.97137142118922 9.521190148768596,218.93936742068917 9.381172646819271,218.89136141946219 9.249156144994961,218.8273534191774 9.101137642205275,218.84335541895052 8.953119139892486,218.81135141773512 8.80110013751719,218.8273534191774 8.657082135266908,218.81135141773512 8.513064133255076,218.76334541817727 8.37704713112981,218.81135141773512 8.229028628817021,218.79534941867735 8.077009626441724,218.79534941867735 7.8529816227028375,218.747343416735 7.7129641207535125,218.747343416735 7.364920615315333,218.66733341572328 7.212901612940036,218.6513314166655 7.072884110513814,218.60332541472317 6.924865608201025,218.58732341542694 6.776847106126684,218.57132141493844 6.6248281035129395,218.58732341542694 6.492811601688629,218.5393174144384 6.336792099012377,218.52331541371146 6.192774097000544,218.4913114132114 6.03675459432429,218.47530941319982 5.824728091011377,218.50731341393833 5.70871358919865,218.42730341292662 5.504688086010751,218.3792974109843 5.352669083635455,218.3792974109843 5.208651081385173,218.3792974109843 5.060632579310832,218.3632954119265 4.908613576697087,218.3472934104842 4.772596574571821,218.29928740997258 4.632579072384048,218.25128141041472 4.492561570434723,218.2032754084724 4.352544068008501,218.17127140868766 4.204525565695712,218.15526940867608 4.000500062507814,218.2032754084724 3.8684835604450556,218.1392674081876 3.7244655581947743,218.12326540746068 3.6084510563820476,218.09126140696063 3.432429053631704,218.05925740646055 3.2884110513814226,218.02725340667584 3.148393549670546,217.99524940617576 2.9643705465567383,218.01125140523357 2.8123515441814413,218.01125140523357 2.664333041868652,218.04325540644896 2.388298537317165,218.02725340667584 2.3082885360670082,217.93124140422185 2.168271033879235,217.88323540394865 2.0482560324808974,217.77122140243688 1.9202400300037505,217.83522940272167 1.7842230278784847,217.91523940444873 1.632204025503188,217.8992374037218 1.4561820227528441,217.88323540394865 1.5321915239404926,217.77122140243688 1.4321790223777973,217.69121140070985 1.5081885235654457,217.5791973984827 1.4321790223777973,217.48318539769787 1.524190523815477,217.3871733966746 1.592199025116558,217.211151392732 1.7682210276284536,217.32316539495912 1.9442430306172458,217.32316539495912 2.0762595326800035,217.3711713961861 2.2242780347543443,217.259157393959 2.3002875359419925,217.16314539317415 2.4283035381806912,217.11513939194717 2.5683210401300163,217.14714339173187 2.6123265410560506,217.259157393959 2.780347543681379,217.14714339173187 2.9123640457441367,217.17914739223193 3.0443805478068944,217.1311413917203 3.1843980497562194,217.14714339173187 3.320415051881485,217.211151392732 3.560445055870402,217.29116139445904 3.780472559308332,217.32316539495912 4.000500062507814,217.3711713961861 4.124515564445556,217.4351793964709 4.276534567059301,217.4351793964709 4.424553069133641,217.46718339697094 4.564570571559863,217.4351793964709 4.768596074509314,217.49918739747102 4.956619577447181,217.51518939819795 5.100637579697462,217.48318539769787 5.252656582072759,217.46718339697094 5.392674084498981,217.51518939819795 5.5606950871243095,217.59519939992498 5.704713089136142,217.6112013989828 5.852731591448931,217.62720340042506 6.008751093886736,217.62720340042506 6.160770096500481,217.64320540019818 6.368796099512439,217.67520940069824 6.572821602700338,217.73921740193683 6.724840605075634,217.7552194024253 6.8728591073884235,217.78722340292538 7.016877109638705,217.73921740193683 7.1608951121274345,217.7232154012099 7.288911113889236,217.78722340292538 7.428928616315458,217.8192274036639 7.572946618327291,217.85123140416394 7.732966620827604,217.65920740020977 7.8529816227028375,217.45118139791316 7.924990623827979,217.33916739568605 8.0890111263908,217.14714339173187 8.19302412825445,217.06713339072016 8.28903612951619,216.97112138993532 8.369046130766346,216.87510938819668 8.445055632192442,216.77909738598115 8.517064633079135,216.6830853851963 8.589073634204276,216.57107138368454 8.669083635454431,216.4750593819459 8.753094136767096,216.37904737973037 8.833104138017251,216.2670333782186 8.901112639079885,216.17102137743376 8.989123640455057,216.07500937569512 9.069133641705212,215.9789973734796 9.137142142767846,215.7549693711714 9.177147143631373,215.64295536894429 9.245155644694005,215.53094136671717 9.329166146006669,215.434929365217 9.40517564695587,215.33891736443215 9.465183148131935,215.22690336292035 9.561195149632123,215.00287535846613 9.633204150518814,214.9068633576813 9.757219652456557,214.69883735371553 9.805225653206652,214.5868233529191 9.861232654320208,214.474809350692 9.933241655206901,214.37879734847647 10.005250656332041,214.2667833469647 10.081260157758138,214.17077134617986 10.149268659059219,214.05875734395275 10.253281660207525,213.85073134165611 10.269283660457557,213.72271533870207 10.325290661332666,213.4986873349632 10.357294661832729,213.38667333416677 10.417302162770346,213.14664332922405 10.49731216425895,212.93861732692744 10.53731716464558,212.8106013239734 10.605325665708213,212.71458932318856 10.729341167884405,212.5065633201766 10.865358170009669,212.29853731621085 10.925365670708839,212.07450931318732 10.94136767095887,211.9464933104717 10.961370171509857,211.72246530744818 10.977372171759889,211.59444930616328 11.037379672459057,211.25840730019726 11.049381173123477,211.13039129795857 11.077384673322584,211.0183772974006 11.129391174135186,210.9063632951735 11.173396674584323,210.7943492936617 11.201400175021877,210.68233529143458 11.229403675697881,210.4583072876957 11.25340667583448,210.21827728489902 11.26540817626045,209.99424928116014 11.313414177010545,209.88223527893302 11.357419677459683,209.77022127742126 11.357419677459683,209.54619327296703 11.301412676584572,209.43417927145526 11.217402175271909,209.33816727067043 11.185398174771846,209.1781472672163 11.229403675697881,209.06613326570454 11.273409176147018,208.95411926490812 11.321415176897112,208.7940992624078 11.349418677811563,208.68208526018068 11.441430178772347,208.47405925693027 11.501437679709964,208.36204525565697 11.569446180772596,208.2500312541452 11.653456682085261,208.17002125241814 11.677459682698755,207.9459932479639 11.64945618249965,207.81797724739434 11.645455682198694,207.48193524142835 11.681460182761263,207.36992123991658 11.729466183511358,207.14589323546235 11.769471183897988,207.03387923395056 11.80147518439805,206.9218652324388 11.829478685074053,206.80985123021168 11.85748218527316,206.6978372286999 11.889486185773222,206.5858232279035 11.933491686460808,206.47380922567638 11.965495687199319,206.36179522440304 11.997499687699381,206.24978122289127 12.033504188023503,206.13776722066416 12.093511689199568,205.91373921692528 12.113514189512108,205.78572321540193 12.245530691574865,205.46568320944752 12.301537692211527,205.35366920865107 12.341542692836605,205.24165520642396 12.393549193887655,205.12964120419684 12.433554194274285,205.01762720363888 12.473559194899362,204.90561320141177 12.505563195399425,204.7935991999 12.545568196262952,204.5695711961611 12.55356919614952,204.32954119169528 12.60557569696212,203.9934991873984 12.641580197524691,203.8814851851713 12.693586698575741,203.76947118365953 12.797599700200944,203.56144518064758 12.849606201251994,203.20940117395466 12.885610701337667,203.0973871724429 12.94961870281469,202.8893611694309 12.981622703076303,202.76134516814602 13.001625203150393,202.63332916519198 13.06163270432646,202.42530316289537 13.129641205389092,202.18527315914488 13.157644705588199,202.07325915691777 13.201650206275785,201.8492311541327 13.233654206775848,201.73721715190558 13.265658207514358,201.6252031503938 13.369671208901112,201.33716714565477 13.421677709713714,201.19314914364296 13.465683210639748,201.04913114163114 13.509688711088886,200.90511313890394 13.55769471183898,200.71308913566511 13.585698212276535,200.5530691336417 13.597699712702507,200.42505313164145 13.621702712839104,200.24903112912955 13.653706713339167,200.0570071251754 13.689711213901738,199.91298912316356 13.741717714714339,199.73696712065166 13.801725215651956,199.48093511641272 13.841730216277035,199.2729091131623 13.861732716828023,199.1448931104467 13.885735716964621,198.96887110865018 13.925740717589699,198.63282910268416 13.949743718441642,198.50481310139926 13.985748218527316,198.37679709844522 14.03375421927741,198.24878109787565 13.997749718953287,198.07275909440997 13.985748218527316,197.92874109168278 13.989748718589825,197.75271908988623 14.013751719203318,197.5926990873859 14.057757219652457,197.4806850851588 14.125765720715089,197.38467308413553 14.309788723590449,197.24065508140833 14.449806226255118,197.12864107918122 14.593824228266952,196.96862107739625 14.681835229642124,196.82460307538443 14.78584823102888,196.72859107293044 14.833854231778972,196.6005750709302 14.8498562325059,196.44055506890678 14.873859232404051,196.2965370661796 14.925865733216652,196.1525190648831 14.993874234517733,196.05650706266758 15.077884735830397,195.94449306044046 15.165895737205568,195.8324790589287 15.301912739092387,195.592449056132 15.34591824001842,195.46443305317797 15.397924740831023,195.22440305038128 15.397924740831023,195.08038504765412 15.401925240655082,194.90436304514222 15.429928741331086,194.55231903988 15.445930741581115,194.26428303442563 15.477934742081178,194.12026503241378 15.505938242280285,193.9922490311289 15.517939742467808,193.86423302817485 15.521940242530317,193.5281910229242 15.505938242280285,193.3041630201391 15.477934742081178,193.19214901862733 15.413926741081054,192.93611701438837 15.397924740831023,192.77609701093428 15.401925240655082,192.61607700986465 15.409926240780097,192.4880610069106 15.429928741331086,192.34404300418342 15.429928741331086,192.21602700361387 15.409926240780097,192.07200900064825 15.393924240768515,191.94399299793264 15.445930741581115,191.68796099440905 15.51393924264375,191.55994499312413 15.589948743592949,191.4319289901701 15.661957744956538,191.28791098815827 15.693961745456601,191.14389298543108 15.685960745093137,190.99987498341926 15.665958245019047,190.8238529816227 15.661957744956538,190.59982497716848 15.67795974520657,190.37579697342957 15.693961745456601,190.1997749709177 15.709963745468183,190.07175896939432 15.761970246519233,189.87973496639395 15.801975246905863,189.7517189648706 15.873984248031004,189.5916989623703 15.921990248781098,189.44768096035847 15.8979872486445,189.27165895689276 15.861982748081928,189.1276409541656 15.821977747218403,188.9836229528691 15.7699712464058,188.85560695015351 15.737967245905738,188.7435929479264 15.713964245769139,188.61557694735683 15.761970246519233,188.37554694217567 15.801975246905863,188.24753094160613 15.861982748081928,188.07150893814043 15.881985248394468,187.9114889356401 15.87798474833196,187.7674709336283 15.873984248031004,187.62345293161644 15.765970746581742,187.4154269286045 15.693961745456601,187.3194149261505 15.60595074384298,187.17539692342334 15.545943243143812,187.06338292191157 15.509938742342793,186.91936491989972 15.489936242030254,186.75934491811478 15.477934742081178,186.6313289151607 15.445930741581115,186.50331291387582 15.357919739967496,186.40730091142183 15.225903237904738,186.34329291042172 14.98187273433021,186.29528690991006 14.841855231903988,186.27928491013694 14.725840730091262,186.26328290941 14.52581572696587,186.23127890890993 14.385798224778098,186.21527690985215 14.273784223027878,186.18327290911364 14.157769721215152,186.16727090862517 13.945743218140686,186.1352669081251 13.785723215401925,186.10326290762504 13.621702712839104,186.10326290762504 13.48168521088978,186.0872609068981 13.269658707338417,186.03925490638647 12.993624203263826,186.00725090517105 12.837604700587573,185.975246904671 12.601575196899612,185.9592449056132 12.489561195149394,185.92724090415933 12.229528691324834,185.87923490388616 12.081510189012045,185.87923490388616 11.84948118562504,185.86323290315923 11.697462183011295,185.84723090410142 11.581447681198568,185.81522690360137 11.469433679209901,185.78322290286286 11.277409676447975,185.7352169018743 11.061382673072552,185.71921490114738 10.945368171259826,185.70321290137426 10.8293536694471,185.68721090064733 10.605325665708213,185.67120890063575 10.381297662446224,185.63920490013567 10.201275159394925,185.62320290036254 10.049256157496524,185.60720089892027 9.821227653456683,185.57519689842022 9.601200150018752,185.5591948993624 9.373171646455807,185.54319289792014 9.257157144643081,185.52719089790855 9.041130141267658,185.51118889813543 8.921115139392423,185.51118889813543 8.80110013751719,185.51118889813543 8.605075634454307,185.47918489763538 8.373046630828854,185.4151768973506 8.237029628703588,185.39917489590832 7.7929741220036695,185.33516689562353 7.676959620190942,185.3191648948966 7.464933116878028,185.28716089439655 7.3489186153037505,185.28716089439655 7.132891611451432,185.27115889438497 6.996874609564614,185.25515689389647 6.860857607439349,185.25515689389647 6.668833604200525,185.27115889438497 6.5488186028021875,185.28716089439655 6.376797099875903,185.25515689389647 6.196774597063052,185.22315289411176 6.084760595074385,185.1911488936117 5.968746093261657,185.17514689216944 5.816727090886361,185.12714089165777 5.676709588937036,185.09513689115772 5.528691086624247,185.04713089159986 5.420677584698088,184.99912488965754 5.284660582572822,184.9831228903613 5.172646580822603,184.95111888986122 5.0646330793733405,184.8711088881342 4.932616577072134,184.8391048876341 4.796599575185317,184.82310288786098 4.660582573060051,184.82310288786098 4.512564070747262,184.727090885407 4.452556569571197,184.61507688484903 4.440555069383673,184.4710588818834 4.440555069383673,184.3430428791678 4.46055756993466,184.16702087737124 4.484560570071259,184.03900487513255 4.548568571548281,183.92699087290544 4.6165770721340165,183.83097887140525 4.784598074759345,183.70296287012036 5.080635079623372,183.63895486888177 5.2446555821861915,183.62295286910864 5.544693086874278,183.63895486888177 5.672709088636079,183.65495686889335 5.788723590448806,183.67095886938185 5.90873859232404,183.67095886938185 6.076759595187817,183.68696086939343 6.36479559968838,183.71896486989348 6.580822603063802,183.75096887110888 6.71283910512656,183.7989748709052 6.928866108501981,183.84698087284752 7.14889361217836,183.87898487263223 7.400925115639455,183.94299287291702 7.620952619077385,184.05500687514413 7.760970121503607,184.1350168768712 7.976997124879029,184.15101887735966 8.317039629953744,184.19902487715598 8.553069133641705,184.21502687859825 8.793099137630623,184.2470308790983 8.905113139142394,184.279034878883 9.017127140892612,184.3110388793831 9.177147143631373,184.35904488061007 9.297162145506606,184.37504687966788 9.429178647569366,184.39104888111015 9.545193149382092,184.40705088016793 9.657207150893862,184.43905488138333 9.873234154269284,184.487060881895 10.089261157644705,184.51906488239504 10.313289161383592,184.55106888361044 10.44530566344635,184.56707088362202 10.569321165145643,184.58307288411052 10.769346168271033,184.58307288411052 10.885360670083761,184.61507688484903 11.005375671958994,184.6630828844069 11.19339917513531,184.71108888563387 11.389423677959744,184.727090885407 11.545443180635997,184.727090885407 11.713464183261326,184.74309288541858 11.877484685824147,184.75909488686085 11.989498687335917,184.79109888736093 12.105513189148644,184.82310288786098 12.233529191148893,184.8551068876457 12.397549693950163,184.88711088814577 12.725590698837355,184.9031128888727 12.845605700951037,184.9031128888727 12.969621202650332,184.9031128888727 13.117639704963121,184.91911488864582 13.30166270783848,184.9671208898728 13.437679709963746,185.0151268910998 13.573696712089012,185.04713089159986 13.701712714089261,185.0791348913846 13.841730216277035,185.11113889188465 14.049756220004337,185.11113889188465 14.19377422201617,185.12714089165777 14.425803225403175,185.12714089165777 14.573821727715965,185.0791348913846 14.78584823102888,184.91911488864582 15.305913239154894,184.51906488239504 15.461932741831147,184.23102887765603 15.49393674233121,184.10301287637114 15.573946743342917,183.87898487263223 15.713964245769139,183.68696086939343 15.8979872486445,183.4949368661546 16.062007751207318,183.30291286386955 16.062007751207318,183.14289286041546 15.933991748968621,182.6788348538799 15.957994749343667,182.48681085064106 16.038004750593824,182.23077884640213 16.28603575446931,182.00675084266325 16.538067258407303,181.87873484137833 16.70608826103263,181.78272284035504 16.910113764220526,181.33466683311573 17.206150768846104,180.95061882735342 17.37817227177239,180.51856481988722 17.502187773471682,179.97449681090927 17.56619577471026,179.79847480839737 17.770221277659708,179.04638079783814 17.870233779222403,178.72634079164527 17.96624578096104,178.53431678936025 18.05025628251215,178.27828478512131 18.13026628352386,178.10226278260942 18.282285285899157,177.83022877764353 18.350293787200236,177.71821477613176 18.5343167895987,177.22215276909614 18.662332791837397,176.93411676435713 18.78234779371263,176.74209276040295 18.86235779496279,176.42205275659458 18.97037129641205,176.08601075062856 18.994374297025548,175.89398674738976 19.226403300412553,175.57394674215067 19.294411801713633,175.42992874013885 19.342417802225278,174.70983872936432 19.35041880282719,174.5658207273525 19.398424803338838,174.37379672339833 19.510438804850605,174.13376672060167 19.602450306288286,173.90973871686276 19.68646080760095,173.74971871483936 19.73846730841355,173.49368670988505 19.810476309538693,173.09363670363427 19.910488811101388,172.78959869983748 20.12651581447681,172.32554069163277 20.186523315414426,172.16552068984782 20.23052881634046,172.05350668762068 20.198524815840397,171.81347668482402 20.226528316039506,171.57344667964287 20.386548318539816,171.2854106756192 20.386548318539816,171.07738467260725 20.334541817727217,170.91736466986848 20.23052881634046,170.7733466671413 20.08651081385173,170.61332666607169 20.08651081385173,170.46930866310606 20.186523315414426,170.34129266039045 20.330541317903158,170.2132766598209 20.298537317403095,170.05325665636678 20.226528316039506,169.95724465558195 20.146518315027798,169.78122265283162 20.146518315027798,169.6212026503313 20.334541817727217,169.07713464135333 20.39854981896579,168.94911863982998 20.51056382047756,168.72509063537575 20.686585823227905,168.34104262913655 20.762595324654,168.14901862732842 20.810601325165646,167.7809726215777 20.87460932616577,167.57294661713505 20.98662332791599,167.3009126138383 21.03862982872859,167.1408926103842 21.07463432929116,166.8848606068606 21.03462932866608,166.69283660362177 20.966620827841897,166.46880860059824 20.966620827841897,166.292786597371 21.018627328416052,166.06875859434746 21.0426303287911,165.8927365911202 21.37067133391674,165.2686585818459 21.40667583447931,164.94861857732218 21.446680835342836,164.75659457432178 21.57069633704213,164.56457057108295 21.62270283785473,164.43655456884426 21.698712339280828,164.21252656605918 21.73471683960495,163.97249656087803 21.770721340167523,163.79647455836613 21.806725840730092,163.58844855606952 21.798724840843523,163.46043255311545 21.770721340167523,163.33241655183056 21.778722340530987,163.17239654837644 21.802725340667582,163.02837854636462 21.806725840730092,162.90036254507973 21.802725340667582,162.77234654212566 21.814726841093556,162.64433054155612 21.870733841730218,162.51631453860207 21.922740342542816,162.27628453509004 21.962745343406343,162.10026253257814 21.990748843605452,161.94024252912405 22.02675334416802,161.7642205273275 22.086760845105637,161.57219652337332 22.09876234553161,161.44418052280378 22.09876234553161,161.23615451883802 22.146768346281704,161.044130516553 22.186773346668332,160.8201025128141 22.222777847230905,160.66008250936 22.270783847980997,160.51606450734818 22.290786348293537,160.37204650462098 22.334791848981123,160.1320165018243 22.354794349293662,159.98799849981248 22.398799850219696,159.84398049780066 22.406800850106265,159.68396049434654 22.374796849606202,159.44393049154985 22.406800850106265,159.29991248882268 22.41080135016877,159.1398924853686 22.4268033504188,158.99587448335674 22.434804350543818,158.67583447883302 22.46280785121982,158.53181647682118 22.450806351270746,158.37179647336708 22.434804350543818,158.19577447085518 22.41080135016877,158.05175646884334 22.382797849969666,157.8917364661046 22.390798849856232,157.7477184648081 22.386798349793725,157.5876984623078 22.39479935015719,157.44368046029595 22.402800350043755,157.28366045684186 22.442805350668834,157.12364045410308 22.47880985146985,156.9796224528066 22.490811351418927,156.80360044886402 22.494811851719884,156.65958244685217 22.490811351418927,156.49956244506723 22.44680585096979,156.35554444305538 22.438804850606324,156.1955244396013 22.46280785121982,156.05150643758944 22.438804850606324,155.8914864348507 22.458807350918864,155.7474684335542 22.49881235178239,155.58744843105387 22.458807350918864,155.42742842759978 22.442805350668834,155.2354044250763 22.50281285160645,155.09138642234913 22.526815851981496,154.93136642056416 22.490811351418927,154.7873484185523 22.442805350668834,154.62732841509822 22.374796849606202,154.48331041308637 22.306788348543567,154.38729841230153 22.238779847480934,154.21127640978963 22.13876734591824,154.1312664080626 21.95474434304288,154.067258406824 21.758719839979996,154.03525440632396 21.562695337155564,154.00325040510856 21.414676834842773,153.97124640460848 21.222652831603952,153.93924240410843 20.926615826978374,153.8592324030967 20.79859982521657,153.84323040403893 20.590573821727716,153.82722840259666 20.282535317153062,153.81122640353885 20.078509813965166,153.77922240280034 19.73846730841355,153.69921240131174 19.49043630453807,153.66720840057323 19.290411301412675,153.65120640008476 19.170396299537444,153.65120640008476 19.034379297412176,153.63520440007318 18.830353794462727,153.61920240030003 18.630328791337337,153.60320039885775 18.39829978771188,153.53919239785765 18.090261282660332,153.49118639734598 17.894236779835897,153.45918239684593 17.694211776710507,153.42717839634588 17.3821727718349,153.3951743958458 17.26615827002217,153.3631703960611 17.0501312668852,153.31516439483408 16.86210776370888,153.26715839432245 16.714089261396094,153.28316039433403 16.382047756207946,153.26715839432245 16.26203275433271,153.2351543938224 16.070008751093887,153.1871483935492 15.881985248394468,153.13914239160687 15.701962745343168,153.05913239059515 15.509938742342793,153.0271283900951 15.393924240768515,153.0111263910373 15.197899737705631,152.9631203898103 15.005875734466809,152.93111638931023 14.753844230528816,152.9151143885833 14.629828728829523,152.88311038808325 14.425803225403175,152.86710838807167 14.229778722578741,152.86710838807167 14.045755719703381,152.83510438757162 13.741717714714339,152.75509438679836 13.605700712589073,152.7390923853561 13.409676209526191,152.70708838557135 13.265658207514358,152.69108638484443 13.149643705940079,152.53106638305945 13.189648706088262,152.37104637960536 13.229653706951787,152.2270283775935 13.229653706951787,152.0830103755817 13.333666708338543,151.95499437429677 13.417677209651206,151.82697837134273 13.54969371219086,151.77897237154644 13.713714214515234,151.63495436881925 13.841730216277035,151.7469683710464 14.025753219152394,151.77897237154644 14.321790223777972,151.79497437084268 14.477809726454225,151.69896237005784 14.665833229392092,151.71496436983097 14.861857732454975,151.66695836931933 15.105888236029504,151.69896237005784 15.229903738205694,151.842980372785 15.309913739217402,151.9389923728545 15.429928741331086,151.98699837479685 15.62595324415552,152.0190023752969 15.829978747581867,152.03500437507006 16.0260032504063,152.0670083755701 16.15801975246906,152.11501437608175 16.39004875609451,152.17902237779722 16.582072759333336,152.2270283775935 16.762095262146186,152.29103637859365 16.950118765322504,152.32304037909373 17.094136767334334,152.32304037909373 17.294161770459727,152.35504438054758 17.49018627328416,152.37104637960536 17.686210776347043,152.4190523815477 17.87423427928491,152.4670583818209 18.070258782347793,152.51506438233253 18.262282785586617,152.54706838354795 18.458307288411053,152.579072384048 18.60632579072384,152.59507438334424 18.82635329416177,152.6750843850713 19.030378797588117,152.6750843850713 19.226403300412553,152.69108638484443 19.438429803725466,152.7230903853445 19.570446305788224,152.7390923853561 19.766470809089554,152.77109638585614 20.06650831377764,152.7390923853561 20.25853231653957,152.69108638484443 20.502562820352544,152.65908238434437 20.618577322165272,152.579072384048 20.77859732490403,152.4990623825594 20.922615326915864,152.38704838104763 21.0426303287911,152.2590323780936 21.218652331541442,152.0830103755817 21.326665833229153,151.95499437429677 21.446680835342836,151.82697837134273 21.57069633704213,151.71496436983097 21.666708338780765,151.5709463671038 21.84273034129266,151.29891236380706 21.93074134290628,151.17089636085302 22.04275534441805,151.04288036028345 22.130766346031674,150.89886235755628 22.21077634704338,150.75484435554444 22.282785348406968,150.6268283525904 22.362795349657127,150.48281035057857 22.458807350918864,150.33879234785138 22.570821352669082,150.21077634728184 22.68283535465775,150.0827603443278 22.77884735615794,149.95474434304288 22.88286035778314,149.82672834008883 22.986873359169895,149.74671833979247 23.08288536090853,149.60270033634995 23.17889736240872,149.47468433506504 23.278909863971414,149.3466683335417 23.390923865483185,149.21865233154145 23.486935866983373,149.07463432881426 23.574946868358545,148.9466183272909 23.686960870108763,148.81860232529067 23.786973371671458,148.67458432256348 23.866983373160064,148.53056632055166 23.926990873859232,148.3865483185398 24.011001375171897,148.25853231558577 24.075009376172023,148.11451431357395 24.143017877234655,147.95449431178898 24.227028378547317,147.81047630977713 24.319039879985,147.6824603068231 24.40305038129766,147.58644830603825 24.50306288286036,147.4584323030842 24.603075384423054,147.33041630179932 24.691086385798226,147.18639829978747 24.78709838729841,146.9623702960486 24.835104388048507,146.81835229403674 24.891111388923616,146.67433429130958 25.007125890736344,146.4503062875707 25.0631328918499,146.30628828555885 25.111138892361545,146.16227028354703 25.203150393799223,145.9382422790928 25.28716089511189,145.79422427708096 25.33916739592449,145.65020627506914 25.391173896737094,145.42617827133023 25.419177397174646,145.26615826930683 25.46318289810068,145.12214026657963 25.49118639829979,144.97812226528316 25.50718839854982,144.81810226278284 25.51118889861233,144.65808225932875 25.50718839854982,144.5140642573169 25.52319039879985,144.35404425553193 25.531191399163315,144.2100262535201 25.531191399163315,144.050006250066 25.53919239904988,143.88998624732724 25.563195399663375,143.6499562438152 25.583197899975914,143.42592824007633 25.55919489936242,143.20190023633745 25.563195399663375,143.04188023526783 25.611201400175023,142.65783222807482 25.619202400300036,142.513814226063 25.615201900475977,142.35379422427803 25.603200400050007,142.19377422082394 25.579197399913408,141.95374421802725 25.579197399913408,141.72971621428837 25.615201900475977,141.48968620982257 25.7032129016127,141.23365420629895 25.751218902839693,140.97762220277534 25.763220402788768,140.7055881980479 25.823227903487936,140.44955619380897 25.887235904488062,140.32154019157028 25.963245405914158,140.12951618928525 26.139267408426054,139.8094761847615 26.243280410051256,139.6014501800804 26.295286911102306,139.47343417879551 26.303287910988875,139.32941617678367 26.339292411551444,139.07338417254473 26.37929741241497,138.91336416980596 26.41530191297754,138.78534816852107 26.443305413176645,138.67333416629396 26.503312914114264,138.51331416355518 26.631328916352963,138.12926615803133 26.707338417302164,137.6972121512805 26.71533941766563,137.50518814804167 26.71533941766563,137.23315414379113 26.791348918614826,136.96112013977904 26.82335291911489,136.68908613481318 26.82335291911489,136.30503812928933 26.867358420040922,135.90498812303855 26.89536192047848,135.74496812101512 27.047380922853776,135.28091011304886 27.119389923740467,135.08888610981006 27.195399425166563,134.67283410378613 27.247405925979166,134.40080009882027 27.323415426928367,134.2887860973085 27.379422428041924,133.95274409301163 27.379422428041924,133.68071008804574 27.3674209278544,133.50468808553384 27.42742842855357,133.23265408128333 27.583447931229824,132.94461807725966 27.603450431303912,132.7525940742593 27.56744593097979,132.4805600692934 27.487435929491188,132.1285160642696 27.49543692985465,131.8884860598038 27.53144143041722,131.7604700585189 27.491436429553694,131.44043005399516 27.435429428678585,131.0243780463021 27.41142642830354,130.75234404300537 27.447430929104556,130.60832604099355 27.587448431053883,130.3362920353123 27.57144643080385,130.08026003178873 27.543442930366297,129.93624202906153 27.46343292935459,129.72821602676493 27.415426928604493,129.55219402425303 27.38342292810443,129.42417802129899 27.41142642830354,129.2961620200141 27.38342292810443,129.08813601604834 27.395424428291957,128.94411801475184 27.523440430053757,128.6400800102397 27.599449931479853,128.464058006774 27.671458932366544,128.20802600348887 27.707463432929117,128.03200400002316 27.747468433792644,127.67995999428403 27.82347793474184,127.42392799004509 27.887485935741967,127.3119139885333 28.13951743967996,126.86385798177088 28.191523940492562,126.70383797927057 28.211526440805102,126.55981997725874 28.31553944266875,126.39979997380463 28.391548943617952,126.17577197149643 28.451556445032466,125.77572196524565 28.451556445032466,125.59969996130307 28.439554944368044,125.47168396001817 28.407550943867985,125.15164395549444 28.291536442055257,124.92761595175556 28.235529441180148,124.81560195024377 28.187523440430052,124.62357794628961 28.06750843879327,124.43155394376613 27.963495437168064,124.36754594205067 27.82347793474184,124.30353794176588 27.62745343167896,124.28753594103895 27.471433929241154,124.31953994153902 27.29541192672926,124.36754594205067 26.795349418915784,124.43155394376613 26.279284910852276,124.43155394376613 26.083260407789393,124.39954994255072 25.931241405414095,124.35154394299288 25.763220402788768,124.27153394126582 25.65520690086261,124.15951993975405 25.695211901726136,124.01550193774221 25.811226403300413,123.91948993528824 25.639204900612576,123.45543192803733 25.407175896987123,123.32741592675242 25.367170896600495,123.21540192524066 25.443180397549693,123.08738592228661 25.66720840128858,122.92736592050164 25.783222903101308,122.76734591704754 25.79522440328883,122.63932991647798 25.779222403038798,122.27128391001192 25.72321540192524,121.88723590353426 25.66720840128858,121.69521190124924 25.63520440055007,121.47118389751036 25.695211901726136,121.29516189499846 25.799224903351337,121.02312789003258 25.779222403038798,120.89511188874768 25.763220402788768,120.68708588478192 25.711213901737718,120.47905988176997 25.651206401276998,120.30303787925807 25.51918989873734,120.03100387500754 25.46718339816319,119.90298787300729 25.343167895986998,119.56694586704128 25.29916239553786,119.37492186523315 25.163145393412595,119.00687585972088 25.07913489209993,118.81485185648206 25.043130391298913,118.70283785425494 24.931116389787142,118.49481185124299 24.87910988897454,118.33479184778888 24.819102387798473,118.19077384577704 24.707088386048255,117.96674584203816 24.619077384673083,117.8547318405264 24.57107138392299,117.74271783972996 24.459057382172773,117.56669583578739 24.395049381411095,117.4546818342756 24.179022378035672,117.11863982902496 24.155019377422178,116.97462182772847 24.035004375546944,116.75059382422803 23.842980372546567,116.47855981926214 23.666958370034674,116.2705338162502 23.522940367545942,116.11051381351143 23.406925865733218,115.98249781222653 23.302912864108013,115.88648580977255 23.114889361408594,115.69446180748751 23.0148768598459,115.63045380624894 22.930866358533237,115.5344418040334 22.8348543567946,115.43842980396391 22.69883735490778,115.34241780222528 22.46280785121982,115.18239779972497 22.154769346168273,115.02237779627086 21.814726841093556,114.86235779424744 21.53469183647956,114.76634579203191 21.090636329541194,114.59032378952001 20.69058632329041,114.46230778799666 20.39854981896579,114.36629578578113 20.150518815328752,114.30228778549635 19.878484810839772,114.25428178426935 19.678459807714383,114.28628578476942 19.48643580447556,114.33429178528107 19.362420302776265,114.36629578578113 19.19039879984998,114.46230778799666 19.122390298787348,114.5583197897353 18.95436929616202,114.6863357910202 18.742342792849104,114.73434179153185 18.542317789723715,114.78234779347419 18.40230028753594,114.81435179397425 17.958244780597575,114.9903737957708 17.73421677709714,115.05438179677093 17.394174272022422,115.18239779972497 17.2541567695962,115.23040379999816 17.058132266533317,115.3264158017368 16.94211776472059,115.42242780252164 16.838104763095387,115.48643580352177 16.450056257509026,115.59844980503354 16.110013751718967,115.71046380726065 15.82597824728091,115.96649581078425 15.53394174271784,116.2705338162502 15.29391173920582,116.41455181897737 14.969871233904238,116.49456181998907 14.63782972871609,116.57457182147769 14.257782222777847,116.57457182147769 14.101762720340043,116.5585698209892 13.877734717078054,116.51056381976221 13.693711714202694,116.43055381875051 13.505688211026378,116.3985498175351 13.381672709327084,116.36654581703503 13.037629703712964,116.28653581602333 12.865608201263576,116.25453181552326 12.52956619601292,116.20652581596542 12.329541192887529,116.15851981473843 12.149518690313126,116.15851981473843 11.697462183011295,116.03050381249973 11.553444180522565,115.96649581078425 11.317414676834604,115.90248781049948 11.181397674947787,115.87048380999941 10.949368671560782,115.82247780877242 10.733341667708464,115.80647580971463 10.589323665458183,115.72646580798758 10.437304663082886,115.64645580626053 10.253281660207525,115.59844980503354 10.093261657945662,115.67845980676059 9.757219652456557,115.59844980503354 9.601200150018752,115.5024378042487 9.505188148518565,115.43842980396391 9.269158644830604,115.39042380202157 8.865108138755764,115.40642580346385 8.705088136017002,115.3264158017368 8.601075134391799,115.1023877979979 8.41705213151644,114.95836979598607 8.321040130016252,114.89436179498595 8.153019127390923,114.79834979253198 8.025003125390674,114.62232779002008 8.101012626578322,114.49431178873517 8.23302912864108,114.36629578578113 8.293036629817145,114.25428178426935 8.47305913239155,114.174271783973 8.633079134891862,114.07825978175747 8.753094136767096,113.9982497800304 8.933116639579948,113.93424177903029 9.229153644443974,113.82222777751852 9.357169646205776,113.82222777751852 9.521190148768596,113.82222777751852 9.821227653456683,113.8702337787455 10.121265158144768,113.95024378047256 10.33729216152019,114.03025378124582 10.51731466433304,114.07825978175747 10.737342167770972,114.14226778347293 10.865358170009669,114.19027378326923 11.045380672822521,114.27028378499628 11.237404675584449,114.38229778722341 11.349418677811563,114.41430178772346 11.537442180272533,114.44630578750818 11.749468684062345,114.46230778799666 11.993499187636873,114.51031378850831 12.157519689961244,114.54231778972371 12.297537192387468,114.57432179022378 12.429553694450226,114.62232779002008 12.593574197013044,114.67033379124707 12.813601700450976,114.73434179153185 12.985623202900362,114.76634579203191 13.149643705940079,114.78234779347419 13.541692711588949,114.79834979253198 13.801725215651956,114.84635579375896 13.953744218027254,114.87835979425903 14.301787723465432,114.84635579375896 14.481810226516734,114.81435179397425 14.609826228278536,114.81435179397425 14.805850731341417,114.86235779424744 14.997874734580241,114.83035379374738 15.24190523815477,114.73434179153185 15.505938242280285,114.62232779002008 15.67795974520657,114.57432179022378 15.821977747218403,114.51031378850831 15.981997749957163,114.41430178772346 16.146018252519983,114.35029378672334 16.55006875907172,114.23827978521157 16.64608076033346,114.174271783973 16.786098262282785,114.06225778174588 16.958119764970622,113.96624577953035 17.166145768459476,113.8382297789608 17.3821727718349,113.74221777722215 17.61420177546035,113.64620577500662 17.810226278284787,113.55019377422178 17.98624828103513,113.40617577220995 18.350293787200236,113.24615576875584 18.982372796838025,112.95811976473217 19.226403300412553,112.89411176373204 19.494436804839022,112.87810976300511 20.118514814351794,112.79809976127807 20.358544818102263,112.71808976026635 21.03862982872859,112.54206775846981 21.210651331416425,112.46205775674275 21.486685835729467,112.35004375546943 21.84673084159362,112.15801975223062 21.93474184273034,111.99799974877651 22.01075134391799,111.6939617449797 22.02675334416802,111.54994374296787 22.01075134391799,111.24590573750193 21.990748843605452,111.08588573476317 21.982747843718883,110.94186773346668 22.018752344043005,110.78184773096638 22.11476434578164,110.47780972550044 22.15876984623078,110.31778972276167 22.21077634704338,110.17377172146519 22.250781348145356,110.02975371873801 22.306788348543567,109.86973371623769 22.386798349793725,109.6937117137258 22.52281535191899,109.58169771221402 22.650831354396136,109.45368170925998 22.68683585448181,109.34166770846356 22.754844355544442,109.16564570452097 22.842855356919614,109.00562570345134 22.92686585823228,108.82960369998565 23.018877359669958,108.65358169675842 23.0908863607951,108.541567695962 23.174896862107765,108.41355169396175 23.25490686335792,108.25353169050764 23.306913364170523,108.12551568922274 23.366920865346586,107.9974996862687 23.41892736592074,107.86948368498379 23.482935367159314,107.75746968347201 23.550943868460394,107.62945368123331 23.646955869722134,107.42142767750602 23.706963370421303,107.2614076754826 23.738967370921365,107.10138767298228 23.790973871733968,106.90936366974346 23.83897987248406,106.76534566701629 23.87498437304663,106.62132766500446 23.926990873859232,106.41330166270784 23.970996374546818,106.23727966019594 24.011001375171897,106.09326165746876 24.063007876222947,105.98124765595699 24.175021877734718,105.78922365200283 24.24303037879735,105.67720965049105 24.2950368798484,105.56519564826394 24.343042880360045,105.45318164675217 24.44305538192274,105.27715964424027 24.49506188297379,105.14914364295537 24.543067883485435,105.00512564094353 24.579072384286455,104.87710963798949 24.611076384548067,104.76509563576238 24.707088386048255,104.47705963173871 24.775096887110887,104.31703962899995 24.979122390537235,103.82097762124899 25.195149393912658,103.32491561421335 25.46318289810068,102.73284160400841 25.731216402288705,102.15676959596108 25.879234904601493,101.82072758999507 26.043255406925866,101.43667958518657 26.223277909738716,100.90861357598175 26.25528191023878,100.70058757296978 26.283285410914782,100.4765595692309 26.375296912114013,99.93249156025294 26.4713089136142,99.34041755219403 26.499312414290205,99.22840354996691 26.543317914739344,99.00437554718182 26.571321415176897,98.78034754344293 26.567320915352838,98.55631953970405 26.551318915341255,98.34829353669208 26.543317914739344,98.22027753373804 26.52731591448931,97.98024753094137 26.50731341417677,97.67620952547543 26.503312914114264,97.54819352419052 26.503312914114264,97.30816351972472 26.51131391423928,97.06813351621268 26.519314914364294,96.82810351246222 26.551318915341255,96.49206150745002 26.57932241554036,96.31603950398433 26.607325915739466,96.14001750218777 26.679334917103056,95.69196149494844 26.76334541841572,95.13189148524356 26.831353919478353,94.74784348043505 26.87535941992749,94.55581947719624 26.899362420540985,94.37979747468434 26.919364920615077,94.20377547217244 26.967370921603617,94.01175146893361 27.015376922353713,93.88373546597957 27.05138142315473,93.75571946469466 27.063382923103806,93.62770346245597 27.139392424053007,93.19564945498978 27.159394924365547,93.06763345370487 27.195399425166563,92.85960745045448 27.24340542567821,92.60357544716932 27.283410426541735,92.23552944141859 27.29941242679177,92.09151143869141 27.339417427178397,91.9314914352373 27.375421927740966,91.78747343322547 27.391423927991,91.64345543121365 27.339417427178397,91.49943742920182 27.203400425053132,91.41942742747476 26.959369921240157,91.43542942891703 26.831353919478353,91.37142142767846 26.67133391673959,91.35541942718999 26.543317914739344,91.38742342697469 26.347293411914908,91.32341542668992 26.159269908738594,91.27540942546293 26.047255907226823,91.24340542496286 25.843230403800476,91.16339542323581 25.679209901476103,91.13139142273575 25.50718839854982,91.0833854222241 25.31916489561195,90.97137142142768 25.21115139392424,90.87535941921215 25.27115889486186,90.68333541597332 25.459182397799726,90.6193274149732 25.599199900225948,90.63532941641547 25.851231404402387,90.6033254159154 26.079259907726886,90.63532941641547 26.199274909602117,90.63532941641547 26.387298412301536,90.65133141547327 26.583322915602867,90.6673334162002 26.791348918614826,90.6673334162002 26.991373921740216,90.6673334162002 27.19139892486561,90.68333541597332 27.363420427791894,90.6193274149732 27.415426928604493,90.50731341346143 27.507438429803724,90.37929741217653 27.62745343167896,90.25128140922247 27.711463932991624,90.10726340721065 27.743467933491686,89.96324540448347 27.787473434179272,89.81922740247164 27.859482435304415,89.6752094004598 27.931491436668,89.53119139773263 27.971496437054633,89.37117139642456 27.9554944368046,89.22715339369738 27.971496437054633,89.06713339119706 28.04350543817977,88.93911738967371 28.09951243929333,88.7790973871734 28.127515939492437,88.63507938516156 28.135516939617453,88.47505938170745 28.13951743967996,88.33104137898027 28.171521440180022,88.1710213776722 28.191523940492562,88.02700337494502 28.207525940742592,87.86698337244472 28.327540942617826,87.65895736919431 28.41155144393049,87.53094136647871 28.49956244554411,87.38692336446688 28.575571946493312,87.24290536245505 28.603575446930865,87.08288535971629 28.575571946493312,86.9388673584198 28.563570446544237,86.79484935497727 28.591573946743342,86.5548193521806 28.591573946743342,86.41080135016877 28.583572946856776,86.25078134671466 28.583572946856776,86.10676334470283 28.623577947243405,85.99474934247571 28.739592449056133,85.86673334119081 28.819602450306288,85.73871733966746 28.843605450681334,85.57869733716714 28.87160895111889,85.41867733371303 28.879609951482355,85.2746593317012 28.843605450681334,85.11463932896244 28.77959744991966,84.9866233269622 28.77959744991966,84.84260532495037 28.88361045154486,84.74659332416552 28.875609451181397,84.1705213151644 28.839604950618828,84.02650331243721 28.787598449806225,83.88248530971003 28.739592449056133,83.72246530792508 28.719589948743593,83.57844730591324 28.7235904488061,83.41842730245914 28.735591948993623,83.2744093004473 28.791598949868735,82.93836729591199 28.647580947856902,82.77834729341167 28.55156894659516,82.65033129045763 28.55156894659516,82.49031128867267 28.731591449169564,82.31428928520698 28.731591449169564,82.15426928342201 28.731591449169564,82.01025128141018 28.747593449419597,81.85023127795607 28.775596949618702,81.62620327493254 28.787598449806225,81.46618327243222 28.81560195048223,81.24215526869332 28.827603450431305,81.08213526595458 28.84760595098229,80.93811726465809 28.879609951482355,80.69808726043071 28.88361045154486,80.45805725668025 28.819602450306288,80.33004125396465 28.715589448919534,80.20202525339509 28.639579947493438,80.05800725042947 28.599574947106806,79.91398924770229 28.583572946856776,79.75396924591732 28.61557694735684,79.60995124390548 28.679584948356965,79.51393924145151 28.651581448157856,79.40192524089353 28.607575946993375,79.25790723792791 28.627578447305915,79.11388923520073 28.691586448306037,78.96987123390424 28.735591948993623,78.80985123140393 28.7235904488061,78.66583322867675 28.61157644705588,78.45780722542634 28.567570946606743,78.31378922269916 28.55956994624328,78.1537692209142 28.547568446294207,77.99374921746009 28.50356294536817,77.84973121544826 28.467558445044048,77.70571321343643 28.471558944868107,77.54569321165145 28.491561445180647,77.40167520963962 28.41955244405551,77.2096512064008 28.407550943867985,77.06563320367363 28.443555444430555,76.9216152016618 28.515564445794144,76.77759719964996 28.603575446930865,76.63357919763813 28.619577447180898,76.45755719417244 28.579572446794266,76.23352919138735 28.531566446044174,76.08951118866017 28.527565945743216,75.92949118520606 28.48356044529408,75.78547318319423 28.42755344418052,75.6414551811824 28.363545443418847,75.54544318039756 28.22752844105513,75.49743717917056 28.083510439043298,75.38542317694345 28.003500437554695,75.2894111761586 28.01150143767971,75.14539317414676 27.9554944368046,75.00137517213494 27.859482435304415,74.8573571691693 27.779472434292707,74.71333916644213 27.711463932991624,74.56932116514564 27.655456932116515,74.42530316241846 27.579447431167313,74.2812851596913 27.515439430167188,74.1372671583948 27.4434304288036,73.99324915495228 27.363420427791894,73.84923115294045 27.287410926365794,73.70521315092861 27.235404425553195,73.56119514820143 27.1633954246665,73.4171771461896 27.07938492335384,73.27315914417777 26.98737342167771,73.14514314289286 26.815351919228323,72.93711713964245 26.707338417302164,72.79309913619993 26.6233279159895,72.69708713541509 26.535316914614327,72.61707713368804 26.371296412051507,72.42505313116456 26.28728591073884,72.31303912893745 26.187273409176147,72.16902112764096 26.059257407175895,72.00900112514064 25.9592449056132,71.91298912268667 25.855231903988,71.80097512212869 25.75921990248781,71.68896111990156 25.66720840128858,71.59294911744759 25.555194399299914,71.43292911637796 25.427178397299663,71.28891111365078 25.147143393162565,70.9688711088886 25.015126891099808,70.8088511063883 24.90311288911114,70.6488311029342 24.795099387661875,70.4728091004223 24.67908488584915,70.31278909768353 24.53506688336042,70.16877109638705 24.379047381161065,70.02475309365987 24.211026378297287,69.89673709165962 24.031003875722885,69.76872109013627 23.842980372546567,69.65670708790915 23.6549568696087,69.54469308663583 23.27090886360795,69.30466308217001 23.134891861482686,69.22465308115831 22.99887485959587,69.14464308038505 22.782847856220446,69.06463307865799 22.582822853095056,69.14464308038505 22.406800850106265,69.25665708165837 22.21077634704338,69.352669083397 21.986748343542942,69.400675084624 21.762720340280953,69.44868108418184 21.646705838468225,69.46468308490877 21.5306913366555,69.48068508468191 21.414676834842773,69.51268908518198 21.302662832854107,69.54469308663583 21.07863482959212,69.60870108763595 20.85460682585323,69.65670708790915 20.618577322165272,69.72071508914773 20.374546818352293,69.75271908964778 20.21452681609043,69.7847230894325 19.998499812715007,69.84873109043264 19.778472309277078,69.94474309288661 19.566445805964165,70.04075509367145 19.426428303537943,70.10476309467158 19.242405300662583,70.21677709618335 19.054381797724716,70.32879109769512 18.882360295275326,70.44080509992223 18.710338792349045,70.56882110263783 18.526315789473685,70.68083510343425 18.31828978622328,70.76084510444596 18.138267283410425,70.87285910667308 17.978247281148562,71.00087510962712 17.826228278534817,71.14489311163895 17.67420927615952,71.27290911292386 17.506188273534192,71.4009251158779 17.346168271272326,71.54494311788973 17.058132266533317,71.83297912262874 16.878109763958914,71.9609951231983 16.69808726114606,72.08901112615236 16.586073259157395,72.24903112793731 16.4620577574581,72.39304912994915 16.32204025503188,72.53706713339167 16.050006251258246,72.72909113519981 15.857982247780972,72.79309913619993 15.657957244655583,73.00112514088103 15.445930741581115,73.04913114043887 15.285910738842356,72.93711713964245 15.157894736842104,72.96912114014252 15.013876734830273,73.00112514088103 14.717839729966245,73.00112514088103 14.581822728079429,72.95311913965404 14.409801225153144,72.84110513742692 14.26578322314131,72.69708713541509 14.185773221652706,72.53706713339167 14.129766221016046,72.37704713089136 14.149768721567034,72.20102512837947 14.185773221652706,72.02500312491378 14.369796224528066,71.80097512212869 14.569821227653456,71.5769471183898 14.833854231778972,71.41692711493569 15.109888736092012,71.2409051124238 15.281910239018297,71.09688711041197 15.433929241155145,70.9688711088886 15.785973246655832,70.71283910393431 15.941992749093636,70.58482310193406 16.07800975145735,70.45680710041071 16.15801975246906,70.36079509819518 16.274034254281784,70.21677709618335 16.366045755957913,70.12076509539851 16.518064758094763,69.97674709338668 16.626078259782474,69.83272909137484 16.69808726114606,69.7047130884208 16.898112264271454,69.54469308663583 17.07013376672084,69.43267908512406 17.16214526839697,69.352669083397 17.2301537694596,69.24065508116989 17.334166770846355,69.16064507944284 17.43017877258499,69.09663707915806 17.538192274034255,69.00062507837322 17.65020627626137,68.90461307591923 17.774221777722214,68.79259907369212 17.96624578096104,68.68058507218035 18.13026628352386,68.63257907262249 18.490311288911116,68.47255906916838 18.630328791337337,68.44055506866833 18.78234779371263,68.40855106888361 18.97037129641205,68.37654706838354 19.13839229903738,68.36054506694127 19.254406800850106,68.36054506694127 19.550443805952582,68.32854106644122 19.730466308526985,68.34454306788349 19.850481310640667,68.32854106644122 20.002500312539066,68.34454306788349 20.28653581697712,68.32854106644122 20.530566321028548,68.40855106888361 20.65858232279035,68.39254906744134 20.818602325290662,68.32854106644122 21.046630829092056,68.2965370666565 21.18664833104138,68.28053506592957 21.39067383422928,68.28053506592957 21.538692336542066,68.26453306615643 21.834729341167645,68.18452306442938 21.95874484310539,68.15251906464466 22.13876734591824,68.13651706463308 22.490811351418927,68.02450306240597 22.678834854595245,67.92849106019042 22.8868608576072,67.86448305990565 23.08288536090853,67.78447305817859 23.222902862857858,67.68846105739375 23.410926365795724,67.52844105393964 23.550943868460394,67.41642705242788 23.6549568696087,67.33641705213152 23.862982873097558,67.20840105013127 24.02300287535942,67.11238904767728 24.151018877836567,67.04838104667716 24.271033879234903,66.98437304567703 24.391048881110137,66.90436304466533 24.659082385298163,66.74434304288036 24.78709838729841,66.66433304115331 24.919114889361172,66.56832104013002 25.051131391900824,66.48831103864141 25.1911488936117,66.39229903618742 25.31916489561195,66.29628703540259 25.423177897237153,66.20027503461775 25.571196399549944,66.20027503461775 25.7032129016127,66.26428303490252 25.855231903988,66.28028503467566 25.991248906113263,66.23227903511781 26.10326290786348,66.20027503461775 26.283285410914782,66.10426303216377 26.339292411551444,65.92824102893653 26.367295912227448,65.80022502836697 26.463307913727636,65.27215901916215 26.49131141392674,65.08013501592332 26.499312414290205,64.90411301341142 26.499312414290205,64.64808100917247 26.50731341417677,64.50406300716064 26.519314914364294,64.37604700587573 26.547318415040298,64.20002500336383 26.567320915352838,64.00800100012502 26.591323915489436,63.83197899761312 26.65933241655207,63.47993499092019 26.69133641705213,63.30391298840829 26.723340417552194,62.91986498288444 26.719339917489688,62.50381297590673 26.831353919478353,62.15176897088294 27.063382923103806,61.63970496240505 27.41142642830354,60.983622951915315 27.56744593097979,60.5675709463683 27.75546943367921,59.9274909351748 27.911488936117014,59.52744092892402 28.135516939617453,58.61532691491069 28.32354044255532,57.78322290190906 28.587573446680835,56.215026877406004 28.659582447805978,55.3189148641196 28.695586948606994,55.01487685865366 28.843605450681334,53.862732841128306 29.03562945368171,53.23865483113864 29.07163395424428,52.758594823160806 29.223652956619578,51.9904988111593 29.411676459557444,51.366420802600324 29.60370046255782,50.88636079486094 29.871733966745843,50.18227278314422 30.103762970371296,49.558194773154554 30.13576697087136,49.14214276784598 30.33179147417269,48.45405675661774 30.31578947392266,46.70983872888743 30.195774472047425,46.19777472207868 30.267783473172564,45.669708712873856 30.379797474922785,44.83760469987223 30.563820477798142,43.65345668160836 30.987873484185524,42.58132266437937 31.06388298561162,42.13326665833229 31.095886986111683,41.74921865209309 31.251906488787935,41.38117264562703 31.407925990748844,41.17314664333042 31.407925990748844,40.94911863959153 34.276284535566944,41.093136641603365 35.87248406050757,41.189148642388204 46.20177522214119,41.74921865209309 50.48231028902455,41.877234653378 56.02700337542193,42.229278660070925 58.50331291435271,42.37329666208276 59.03537942266625,42.405300662582825 59.52344043005375,42.48531066359453 59.66745843254249,42.565320665083135 60.13951743967996,42.821352668606735 61.03562945392016,43.22140267485752 61.991748968621074,43.52544067889277 62.63182897862233,43.66945868161994 62.86385798224778,43.733466683335415 63.25590698885044,43.82947868507405 64.20802600325041,44.05350668785915 65.24415551943993,44.3575446918944 65.51218902362795,44.43755469362144 66.34829353669208,44.66158269736033 66.78034754344293,44.58157269563328 67.28041005125641,44.46955869412151 68.5365670711223,44.26153269110955 69.91673959244906,44.16552069008626 71.10488811125232,44.1815226893825 71.76097012126516,44.19752469082477 72.1690211278794,44.21352668988256 73.34516814601825,44.24553069038262 74.3412926615827,44.11751468909772 75.52144018026095,43.47743467838112 76.05350668857449,42.8533566691068 76.24153019127391,42.61332666487944 76.57357169670051,41.861232653604866 76.78159769971246,40.93311663957995 77.01362670333792,39.84498062162403 77.11763970496312,39.06088260984939 77.14564320540067,38.676834603371745 77.16964620601416,38.452806600348204 77.66570821352668,38.00475059382423 77.95774471856666,37.908738591370245 78.44980622577822,37.684710588585155 79.70196274558161,37.62070258734658 83.19039880008843,37.66870858785823 86.4828103512939,37.81272658987006 87.01887735966996,37.828728591312334 87.2749093639089,37.84473059037012 87.36292036504562,37.66870858785823 87.54694336792099,37.57269658707338 87.70696337065975,37.44468058411934 87.87098387322257,37.07663457836862 89.12314039278752,35.748468558331375 89.54319289911238,35.01237654611459 89.77122140291378,34.54831853957903 90.34729341167646,33.54019252406551 90.6033254159154,33.10813851636087 90.7793474184273,32.86810851284885 92.38354794349294,31.203900487560944 92.50756344566912,31.107888485106965 92.64758094761845,31.011876483606777 92.81160145018127,30.963870483810478 92.97562195298254,30.915864482821934 93.15164395549444,30.899862482095006 94.32779097387173,30.755844479367827 94.77984748093512,30.707838478856182 95.53594199274909,30.51581447657115 97.76022002798034,29.9237404663662 98.69233654230621,29.73171646455807 100.82460307562287,29.34766845831887 101.08063507938492,29.283660457318746 101.28066008251031,29.251656456580235 102.02075259407425,29.139642455306912 102.61682710338792,29.04363045285293 103.50893861756562,28.835604449840975 104.06900862607826,28.691586447829142 105.00512564094353,28.451556444078673 105.63320415051882,28.29153644157836 106.43730466308288,28.067508437839475 107.3934241782607,27.907488435100714 107.71346418302288,27.87548443460065 109.60970121289003,27.63545443108863 110.53381672709088,27.539442430303787 111.11388923615452,27.4914364290768 112.07000875109388,27.459432428576736 113.22215276909614,27.379422426849683 114.19027378446148,27.315414426564903 115.0783847983382,27.33141642705338 115.90648831127733,27.459432428576736 118.33079134891861,27.87548443460065 118.74684335541943,27.971496437054633 119.53894236779597,28.14751843956653 120.35104388048507,28.29153644157836 121.5471933991749,28.515564445317246 122.08726090761346,28.627578447544362 123.05538192274034,28.851606450329452 123.7994749343668,29.01162645235287 124.53156644580572,29.219652456080173 125.12364045505689,29.395674459545862 125.92374046755845,29.60370046255782 126.49581197673551,29.74771846456965 126.6438304790483,28.99562445329508 126.76384548116198,28.371546443305412 126.85585698212276,27.859482434827516 126.92786598348636,27.411426427349745 127.00387548443555,26.9313664208026 127.05988248554911,26.46730841283635 127.08788598574822,26.131266408301038 127.11188898636172,25.635204399834723 127.14389298686177,25.059132391072048 127.14789348668583,24.931116389548695 131.76447055929674,24.77109638704838 133.10463807975998,24.867108387833223 133.2726590823853,24.88311038856015 133.66470808898796,24.627078385036548 134.24478059781313,24.227028378785768 135.2169021127641,23.810976371092714 135.8609826230663,23.826978372534985 136.12901612725432,23.826978372534985 136.41305163169238,23.794974372034922 136.63307913489186,23.826978372534985 136.84110513814227,23.8589823723197 137.0531316414552,23.9069883725929 137.26515814524498,23.970996374546818 137.47718464831945,24.035004374831598 137.70521315164396,24.05100637532008 137.9332416552069,24.05100637532008 138.3852981622703,24.05100637532008 138.60932616600917,24.06700837533166 139.06138267307256,24.099012375831723 139.5214401800225,24.195024378285705 139.92949118663674,24.147018377058714 143.42192774096762,23.698962369580943 143.98999874984372,23.68296036980781 145.08613576697087,23.634954368580818 145.58619827478435,23.586948367353827 145.93824228028504,23.50693836634212 146.11826478309789,23.45893236606892 146.26228278558662,23.33091636454557 146.18227278433645,23.170896362045255 146.10226278284784,23.01087635859115 146.0462557822112,22.850856356567732 146.00625078134766,22.674834353340493 145.94224278034756,22.402800350043755 146.15426928366045,22.32279034760136 146.5143142895246,22.33879234904363 146.8543567945993,22.35479434810142 147.18639829978747,22.306788347589773 147.41042630352635,22.27478434708971 147.74646830877703,22.24278034658965 147.9744968121015,22.210776346089588 148.1945243157779,22.178772345589525 148.4185523190399,22.130766345793223 148.6465808228413,22.114764345304746 148.84260532566572,22.098762344577818 148.95861982747843,22.050756344066173 149.0866358294787,22.034754343577692 149.4066758344793,21.95474434185064 149.62670333791723,21.89073634156586 149.83072884134359,21.82672834128108 150.03475434429305,21.762720340042506 150.24278034754343,21.6827103385539 150.50681335166897,21.586698336099918 150.6868358544818,21.55469433559986 151.02687835979498,21.538692336542066 151.25490686335792,21.522690335099796 151.59094886860856,21.49068633531508 151.806975871984,21.442680334088088 152.0190023752969,21.378672333087962 152.3230403800475,21.266658331576192 152.6270783847981,21.138642330291287 152.82310288786098,21.058632328564233 153.091136392049,20.89861232582547 153.25915739467433,20.78659832359836 153.52719089886236,20.626578322528733 153.68721090136268,20.51456432030162 153.9712464058007,20.386548317347575 154.1512689086136,20.290536316562733 154.42730341292662,20.130516314539317 154.61532691610293,20.034504312323786 154.80335041880235,19.938492311538944 154.9913739217402,19.842480309084962 155.28341042654174,19.69846230707313 155.57144643080386,19.55444430434595 155.80347543442932,19.42642830377639 156.01550193798067,19.330416302037754 156.25553194149268,19.15439429809517 156.5075634454307,19.010376296083336 156.6475809478569,18.962370296287038 159.76797099685143,17.04213026532949 159.88398549842572,16.706088260078836 159.98399799998842,16.450056256555232 160.08801100137518,16.162020252531565 160.14001750218776,16.002000250031255 160.17202150268784,15.793974247019296 160.1800225030513,15.63395424356519 160.18802350293788,15.489936241553357 160.26003250406302,15.393924240768515 160.40005000648924,15.329916239529942 160.54006750843857,15.2819102385414 160.74009251156394,15.185898236087418 160.86010751343917,15.137892236529567 161.17214651831478,15.025878235017796 161.36817102185458,14.86585823156369 161.4641830231163,14.80185023127891 161.68421052655424,14.689836229051794 161.8922365295662,14.529816227028379 162.05625703212903,14.465808225312909 162.21627703486777,14.369796224528066 162.36029503687962,14.321790222585731 162.55231903988,14.321790222585731 162.7483435431813,14.321790222585731 162.86435804499405,14.337792224028004 163.0243780472559,14.353794223085792 163.21640205049474,14.369796224528066 163.34441805225654,14.353794223085792 163.47243405425678,14.321790222585731 163.70046255805818,14.273784222074084 163.6644580574956,15.009876233575522 164.1645205653091,15.473934240826429 164.52856607075884,15.921990247588855 166.32479059882485,15.121890235087292 168.94111763970497,13.95374421683501 197.5166895864367,0.3040380037968003 197.95674459307412,0.09601200078484237 198.144768096012,0.03200399978471735 198.35679459932493,0 198.47280910161453,0.3040380037968003 198.89686210776347,0.9441180145133956 199.38492311562788,1.4721840220490818 199.68496062031596,1.7762220267996756 201.1131391423928,3.1203900475638524 206.01775221926582,7.408926114810677Z"/></svg>