<svg xmlns="http://www.w3.org/2000/svg" width="256" height="256"><path d="M149.63344051417073,202.92390139294966 148.80171489788086,203.79849946419853 147.90996784536387,204.69024651671552 146.0750267949924,206.35369774878419 145.16613076069626,207.12540192935802 144.16291532661467,207.82851018255965 143.16827438367818,208.49732047118076 140.94748124301978,209.8349410504673 139.8499464094083,210.40085744943553 138.8038585206232,211.0353697744983 137.68917470523255,211.70418006414158 137.0546623791476,212.1157556273528 136.81457663475027,213.12754555206845 136.65166130759258,213.4362272243491 135.83708467282634,214.3108252945758 134.8595927114135,214.9796355842191 133.74490889576728,215.64844587309574 133.4276527328526,215.8370846731777 132.2872454445376,216.45444801697238 131.90139335476178,216.62593783501967 130.72668810263292,217.2261521972907 129.64630225080057,217.9121114684576 129.38906752385745,218.15219721362155 128.8403001069239,218.23794212200633 128.19721329020496,218.4780278671703 127.04823151100038,219.0096463025802 125.71918542337004,219.28403001053587 124.14147909943063,219.4555198283276 123.72990353673048,219.57556270052626 122.72668810264888,220.0728831721223 121.62915326903737,220.7759914253239 120.55734190783909,221.53054662360748 119.51125401905401,222.19935691325077 118.55948553030993,223.03965701991913 118.18220793142368,223.84565916405134 117.2304394426796,224.77170418012665 116.85316184328225,225.4062165062116 115.78992497297355,225.9892818864479 115.48124330120399,226.19506966779798 115.24115755604002,226.46945337575366 114.14362272242852,227.3097534834442 113.61200428701864,227.8070739550402 113.27759914232476,227.99571275435557 113.43193997833731,229.1961414791532 113.51768488748871,229.71061093227283 113.20900321520807,229.98499464099513 112.94319399788644,229.50482315066722 112.72025723450166,229.21329046067683 112.49732047162794,228.8531618433142 112.12004287223061,228.83601286204612 111.71704180042005,228.95605573398925 111.15969989285249,229.24758842423518 110.67952840303565,229.45337620584078 109.3933547695977,229.86495176802984 108.07288317234587,230.27652733124106 107.45551982829566,230.55091103996335 107.08681672029898,230.7052518757204 106.39228295824249,231.03108252926913 105.27759914234073,231.68274383662214 104.8660235796406,231.99142550915832 104.5659163987606,232.21436227203202 103.86280814555899,232.78027867074474 103.33976420129423,232.91747052523365 101.70203644138324,233.56913183258666 100.37299035400845,233.98070739579788 99.29260450140949,234.32368703087027 97.96355841352361,234.94105037466494 96.78885316165028,235.43837084626094 95.6741693462596,235.6784565914249 94.43086816701405,236.21007502657926 93.45337620585676,236.33011789877793 91.8928188636965,236.6559485525822 90.50375133958352,236.9303322613045 90.08360128650487,236.9817792071531 88.7631296889975,237.03322615197953 87.83708467292217,237.23901393358514 86.67095391219398,237.80493033229786 85.55627009629222,238.43944265761615 85.19614147892959,238.66237942125647 84.46730975331475,239.14255091081776 83.32690246525532,239.7770632369027 82.72668810272873,240.205787781382 82.30653804939455,240.51446945289604 82.04072883181738,240.75455519806 81.84351554135688,241.13183279745735 81.20042872463792,242.092175777091 80.96891747061908,242.46945337597725 80.81457663435098,242.8981779204566 80.79742765257181,244.06430868169585 81.0546623792594,244.37299035320987 81.54340836022136,244.63022508040856 83.12111468364971,244.23579849948757 83.51554126457067,244.18435155389452 83.67845659147281,244.56162915329185 82.84673097543849,244.6988210077808 81.98928188647986,244.9389067519226 81.74919614131589,245.3504823151338 80.83172561613016,246.0707395496035 80.54019292613977,246.53376205764118 80.33440514453416,246.79099678432877 80.06859592695697,247.1682743837261 79.81136120052493,247.42550911041369 79.54555198269222,247.6484458732874 79.38263665604562,247.95712754556803 79.01393354753786,248.26580921708208 78.78242229351903,248.52304394428074 78.48231511238352,248.98606645257394 78.26795284014385,249.27759914256433 77.65058949660472,249.68917470475338 77.18756698805598,250.06645230440628 77.11897106093929,250.66666666667732 77.06752411560177,251.09539121115662 77.28188638784142,251.52411575563593 76.7416934617975,251.64415862783463 76.69024651645996,252.1757770632445 76.51018220777866,252.5359056803516 76.31296891731817,252.9646302248309 75.93569131868746,253.06752411576147 75.64415862818598,253.25616291507683 75.23258306548584,253.53054662379915 75.00107181146701,253.9935691318368 74.67524115740719,254.43944265783975 74.26366559470705,254.45659163987446 73.92068595912359,254.61093247563147 73.44908896045189,254.7481243301204 73.1489817795719,254.4908896034328 73.02036441597257,254.95391211147046 72.43729903522517,255.21114683815807 72.01714898189097,255.27974276527476 71.62272240071447,255.09110396519276 71.32261521983447,255.34833869239145 71.031082529333,255.15969989230948 71.09110396581565,254.66237942071345 71.21972132941498,253.73633440540476 71.65702036427281,253.29046087863517 71.31404072868935,253.10182207931982 70.83386923887252,252.93033226127255 70.13076098592644,253.7706323681965 69.56484458721374,254.01071811336044 69.34190782434004,252.8960342977142 68.76741693473775,253.46195069668246 68.35584137203762,253.89067524116177 67.37834941062478,254.61093247563147 66.46945337607309,255.41693461976368 66.24651661294385,255.86280814551108 65.88638799558122,256 65.44908896046786,255.845659164243 65.57770632355611,255.33118971035674 65.75777063223742,254.93676312943575 65.8349410502437,254.37084673046752 65.40621650576439,254.59378349436338 65.16613076085596,254.85101822079542 64.37727759926956,254.88531618435377 63.84565916385968,254.79957127494683 63.48553054649705,254.4737406213981 62.99678456604617,254.31939978564108 62.61093247575925,254.59378349436338 62.37084673110637,254.85101822079542 62.13933547708754,255.10825294722747 61.916398713702755,254.76527331138848 62.18220793127993,254.28510182208274 62.39657020351959,253.7877813502312 62.18220793127993,253.4448017143922 61.78778135087004,253.3762057872755 61.37620578791436,253.32475884219352 60.95605573406909,253.5648445873575 60.63879957140993,253.90782422242987 60.40728831739111,254.18220793115216 60.00428724532501,254.45659163987446 59.52411575550818,254.71382636656205 59.81564844575411,254.04501607691878 60.038585208883354,253.66773847803253 60.28724544519244,253.42765273312412 60.17577706337227,252.9474812427962 60.124330118034756,251.72990353647495 59.98713826354584,251.33547695555396 59.65273311885197,251.1468381562386 58.426580921896665,251.23258306487892 57.0632368701969,251.54126473715957 55.948553054550686,252.09003215383757 55.554126473629715,252.41586280840846 55.40836012876228,252.72454447992249 54.53376205802448,253.58199356888113 54.10503751354516,253.9935691318368 53.75348338681659,254.18220793115216 53.3333333334824,254.18220793115216 52.775991425403745,254.50803858495644 51.48124330107621,254.9024651658774 51.07824222926566,254.98821007528434 50.88102893880517,254.64523043918982 51.06109324748648,254.13076098632573 51.052518756596896,253.75348338667285 50.70953912126899,253.5648445873575 50.30653804920289,253.53054662379915 49.96355841361944,253.68488745955617 48.94319399801421,254.43944265783975 47.81136120033327,255.0568060016344 47.365487674330325,255.00535905655244 47.62272240076238,254.43944265783975 47.31404072899281,254.11361200403547 46.96248660226423,253.9421221859882 46.5423365486745,253.9421221859882 46.14790996775353,253.85637727760343 45.74490889619851,253.83922829531318 43.89281886379233,254.07931404047713 43.549839228208874,254.23365487623414 42.89817792060032,254.26795283979249 42.50375133967935,254.1993569126758 42.31511254036399,253.92497320472012 42.289389067439686,253.39335476931024 41.98070739541458,252.9474812427962 41.76634512317492,252.50160771679325 40.97749196133298,251.43837084648453 40.437299035544584,251.09539121115662 39.091103965623994,251.04394426556357 38.713826366482195,250.941050374633 37.21329046080459,250.75241157531764 36.46730975341058,250.47802786659534 35.44694533754981,249.92926044991736 35.069667738408015,249.6205787776367 34.186495177036164,248.71168274385164 33.98928188657568,248.45444801716405 33.586280814509585,248.43729903512934 33.18327974295457,248.38585209004736 32.72025723491691,247.99142550912637 32.325830653995936,247.88853161845134 31.674169346131837,248.02572347268472 31.485530546816477,248.4715969986877 31.228295819873345,248.81457663452667 31.374062164996314,249.27759914256433 31.065380492971208,249.46623794187968 30.628081457857846,249.27759914256433 30.508038585403636,248.79742765223642 30.12218649511671,248.6945337615614 29.57341907843873,248.67738478003776 29.9421221864354,249.31189710612267 30.165058949820185,249.65487674119504 29.856377277539536,249.77491961416032 29.599142550851948,249.53483386899637 28.913183279940583,248.38585209004736 29.324758842640726,247.97427652683612 29.54769560551443,247.73419078269433 29.3419078244199,247.47695605524012 29.204715970442056,247.08252947431916 28.9389067523538,246.84244373017737 28.681672025921753,246.36227223984943 28.561629153723082,245.93354769537012 28.218649517884092,245.74490889605477 27.66130760980544,246.0535905675688 27.301178992442818,246.20793140409242 27.232583065326125,244.9217577706545 27.12968917490663,244.5959271168502 26.94105037508019,244.3043944268598 26.85530546618433,243.8756698823805 26.529474812380048,243.68703108204298 26.555198285304346,243.1725616291789 26.50375133996683,242.74383708469955 26.632368703566165,242.41800643089528 26.94105037508019,242.60664523021063 27.24115755621571,242.81243301181624 27.78135048225965,242.84673097537458 28.43301179012375,242.58949624894254 28.295819935634828,242.19506966725496 28.235798499663264,241.69774919642558 28.715969989480097,241.90353697700903 28.981779206801733,242.2293676308133 29.04180064328438,243.0696677382483 29.350482315053945,243.41264737434284 29.513397641956086,243.80707395500826 29.984994641138872,244.16720257237088 30.448017148920993,243.99571275457916 30.585209003154375,243.58413719136794 30.73097534827734,243.08681671977195 30.68810289382941,242.5723472666523 30.77384780298081,241.86923901345068 31.15112540212261,242.14362272217298 31.61414791016027,242.2808145766619 31.991425509557608,241.98928188641597 32.351554126409155,241.42336548770328 32.394426580857086,241.0289389067823 32.20578778179727,240.68595927068776 31.914255091295793,240.4801714893377 31.69131832791101,240.205787781382 31.725616291469354,239.69131832749576 31.80278670947563,239.1768488743761 31.562700965078292,238.78242229345514 31.185423365680954,238.49088960346475 30.80814576653916,238.38799571253418 30.43086816739736,238.28510182185914 30.165058949820185,238.06216505898544 29.92497320465623,237.80493033229786 29.54769560551443,237.53054662357553 28.192926044959794,237.66773847806448 27.73847802806726,237.03322615197953 27.47266881023454,236.79314040681558 26.683815648648142,236.07288317234588 26.160771704127836,236.0042872452292 25.672025723421417,235.8327974271819 24.54876741688561,234.88960342958296 23.717041800851277,234.649517684419 23.631296892210955,234.04930332214795 23.185423365441387,233.63772775970335 22.842443730113473,233.46623794191163 22.628081457873815,233.1747052516657 22.533762057832828,232.66023579854607 22.550911039612,232.1972132905084 22.92818863900934,232.5230439443127 24.23151125397092,233.56913183258666 24.565916398664783,233.8778135048673 24.960342979585754,234.2207931399397 25.251875670087227,234.39228295798696 25.603429796304727,234.06645230418266 25.354769560506725,233.8263665590187 24.960342979585754,233.55198285131857 24.59163987158908,233.41479099682965 24.437299035320986,233.106109324549 24.454448017100162,232.78027867074474 24.205787781302156,232.5230439443127 23.948553054870107,232.18006430847367 23.905680600166637,231.80278670958742 24.102893890627122,231.4255091101901 24.437299035320986,231.2025723473164 24.90032154335865,230.84244372995377 25.097534833819132,230.51661307614947 25.483386924106057,230.3108252947994 26.177920685907008,230.39657020318418 26.555198285304346,230.49946409411476 26.863879957329456,230.6538049298718 27.146838156685803,230.82529474766352 27.6870310824742,231.01393354800103 28.115755626953515,231.16827438375805 28.484458735461267,231.39121114663175 28.836012861678768,231.71704180043602 31.03965702055799,231.9228295817861 31.519828510119282,232.02572347271666 32.488745980898074,232.21436227203202 33.020364415796884,232.09431939983335 33.43193997875257,231.8542336546694 33.51768488739289,231.49410503730678 33.526259378538015,231.1511254014678 33.371918542269924,230.6709539119065 33.483386923834544,230.2593783489508 33.612004287433884,229.95069667743678 33.93783494123816,229.59056806007416 34.0150053589889,229.26473740652543 33.740621650777676,228.95605573398925 33.42336548760744,228.8017148982322 33.15755627003027,228.5101822074752 32.86602358003987,228.20150053596117 32.54876741686964,227.72132904563327 32.377277599077914,227.3269024647123 32.05144694527363,226.84673097540653 32.12004287239032,226.36655948507862 32.54019292623559,226.10932475839104 32.908896034232264,225.81779206840065 33.063236870755894,225.44051446976994 33.346195069856705,225.11468381519902 33.68060021429503,224.92604501588366 35.17256162908305,224.89174705232531 35.575562701149146,224.84030010724334 36.7931404074704,224.37727759920568 37.4876741695269,224.06859592692504 37.82207931396522,223.91425509116803 38.319399785561224,223.39978563728175 38.47374062182932,223.0053590563608 38.55091103958006,222.57663451188148 38.576634512504356,221.42765273293244 38.47374062182932,220.6902465169391 38.26795284022371,220.31296891728624 37.787781350406874,219.33547695612893 37.62486602350474,218.83815648453293 37.539121114608875,218.203644158448 37.68488745998738,217.82636655905065 37.89067524108191,217.363344051013 37.762057877738116,216.96891747009204 37.94212218641943,216.36870310833206 37.82207931396522,215.99142550893473 37.59056805994639,215.71704180021243 37.43622722418937,215.33976420158172 37.64201500528391,215.06538049285942 38.10503751332157,214.89389067481216 38.40514469445709,214.70525187549677 39.42550911031786,213.96784565873682 39.768488745901315,213.62486602366445 40.085744908816004,213.29903536986018 41.003215434001746,212.51018220801822 41.5948553053832,211.54983922838457 42.27224008566051,210.50375133934395 42.52090032145852,210.14362272198133 42.86387995729751,209.76634512335062 43.6870310826978,210.00643086851457 44.758842443896086,210.50375133934395 45.15326902481706,210.57234726646064 46.55948553045367,210.60664523001898 47.93140407278748,210.60664523001898 49.286173633342116,210.50375133934395 51.952840300003466,209.0803858521837 52.03858520889933,208.61736334414604 51.429796355738695,208.36012861694738 50.760986066606506,207.93140407246807 50.52090032144255,207.67416934578046 50.8038585207989,207.27974276511503 51.052518756596896,206.9882100748691 51.33547695620879,206.6966773848787 51.78992497310132,206.13076098591048 51.781350482467275,205.47909967855745 51.644158627978356,204.98177920696145 51.26688102883656,203.86709539131522 51.163987138161524,203.45551982835954 50.675241157710644,202.803858520751 50.03215434099167,201.8435155411173 49.78349410544921,201.260450160881 49.74919614137978,200.93461950707672 49.68917470540821,200.523043944121 49.15755627025386,200.12861736320005 48.83172561644958,200.47159699903904 48.54876741709324,200.69453376216828 47.897106109229135,200.71168274343637 47.90568060037426,200.3001071812473 47.939978563932605,199.8885316180361 47.94855305456665,199.40836012873035 47.53697749186651,199.27116827424143 47.519828510087336,198.53376205748145 47.31404072899281,198.2765273310494 47.082529474973974,197.88210075012844 46.79957127561763,198.10503751300215 46.18220793131187,198.10503751300215 46.07931404089238,197.71061093208118 46.71382636646623,197.67631296852284 46.5423365486745,197.29903536989212 46.75669882091416,196.71596998965578 46.525187566895326,196.45873526220157 46.91961414807184,196.25294748161812 47.26259378365529,195.92711682704723 47.53697749186651,195.5669882096846 47.61414790987279,194.94962486588992 47.605573418983205,194.41800643073557 47.38263665585396,193.9378349411743 47.17684887450389,193.66345123245196 46.833869239175975,193.52625937796304 46.71382636646623,193.0460878886573 46.327974276434844,192.96034297925036 45.950696677293045,192.85744908934194 45.556270096372074,192.926045015692 45.17041800659623,192.87459807061003 45.273311897015724,192.51446945324741 45.667738477936695,192.24008574452512 45.77063236861173,191.89710610945272 46.24222936779452,191.63987138225406 46.04501607733403,191.1768488742164 46.439442658255004,190.78242229329544 46.33654876732443,190.47374062178142 46.43086816710988,189.63344051409086 46.29367631313204,189.2390139331699 46.23365487664939,188.1757770628612 45.93354769551387,187.2668810288206 45.45337620569704,186.3751339763036 45.376205787690765,185.43193997870466 45.0418006429969,184.96891747066698 44.86173633431558,184.69453376194468 44.61307609851758,184.43729903551264 44.33011789941677,184.0943193994181 44.13290460895629,183.7856377279041 43.91854233671663,183.52840300070542 43.73847802777978,183.25401929274975 43.369774919783104,183.56270096426377 43.086816720171214,183.32261521986644 42.86387995729751,183.08252947470245 42.49517684930084,182.65380493022315 42.26366559477093,182.3965702037911 41.90353697766385,182.1221864950688 41.54340836030122,181.9678456593118 41.02036441578092,181.9163987134632 40.82315112532043,181.55627009635612 40.480171489736975,181.3676312967852 39.54555198302761,180.61307609875715 38.66237942114468,179.78992497335688 37.94212218641943,179.0696677386316 37.75348338684853,178.7781350478746 36.80171489810445,178.02357984959102 35.94426580914582,177.20042872419072 34.96677384773298,176.42872454463904 33.86066452323188,175.5198285098318 33.11468381583788,174.2508038586841 32.377277599077914,173.51339764192414 31.511254019229696,172.69024651652384 30.636655948491892,172.1757770634042 30.10503751333754,171.4726688102026 29.830653804870778,171.12968917436362 29.3161843514956,170.6323687027676 28.9389067523538,170.20364415828828 28.364415863007057,169.6548767416103 28.115755626953515,169.41479099644636 27.76420150048048,168.96891747069893 27.112540193127458,168.04287245436808 26.272240085948,166.96248660253573 25.980707395446526,166.75669882093013 25.749196141427692,166.36227224000916 25.637727759863072,166.05359056772852 25.397642015210195,165.67631296909778 25.020364416068396,165.00750267945452 24.583065380443955,164.76741693429057 24.265809217529263,164.5787781349752 24.000000000207628,164.3043944262529 23.22829581988932,163.41264737373592 22.473740621605724,162.48660235766062 22.1736334404702,162.17792068614656 21.822079314252704,162.10932475902987 20.750267953054415,160.77170417974335 19.789924973420746,160.00000000019165 18.5037513399828,159.2625937834317 18.400857449052225,158.8338692389524 18.169346195033395,158.4394426580314 17.817792068560355,157.80493033194648 17.59485530543111,157.51339764170055 17.55198285123872,157.15326902459347 17.371918542301866,156.8617363343475 17.080385852055933,156.38156484504177 16.926045016298918,156.09003215402922 16.445873526482085,155.07824222931356 16.351554126441098,154.6666666671245 15.78563772798394,153.483386923595 14.327974276498727,151.47695605543177 13.950696677356929,151.73419078211938 13.307609860637955,152.33440514439042 12.004287245420837,152.24866023600563 12.055734191269433,151.83708467279442 12.244372990329254,151.42550911060533 12.330117899225117,151.09967845680106 12.458735262568911,150.73954983943844 12.62165058972659,150.4137191858897 12.9046087888274,150.1564844584355 12.733118971291212,149.79635584107285 11.60128617361028,149.1103965701615 11.481243301411611,148.73311897076417 10.94962486600172,148.57877813500716 10.555198285591828,148.8188638801711 10.143622722636147,148.7674169343225 9.78349410527352,148.78456591635722 9.294748124311562,148.59592711704187 9.466237942103287,148.25294748120288 9.27759914253239,147.89281886384023 9.011789924955213,147.37834941097614 8.677384780516887,147.06966773843996 8.30010718137509,146.67524115777454 8.102893890914604,146.17792068592297 7.819935691558256,145.37191854204633 7.605573419318598,144.99464094341562 7.588424437539426,144.48017148952934 7.768488746476278,143.91425509132773 7.494105037753976,143.70846730997766 7.031082529716315,143.742765273536 6.6623794212085645,143.6055734190471 6.465166130748079,143.3140407290567 6.593783494091873,142.8681672022871 7.314040728817123,142.1479099678174 7.331189710596297,141.7877813504548 6.636655948795345,141.06752411572953 6.465166130748079,140.72454447989054 6.1650589496125585,140.45016077193486 6.336548767659824,140.07288317253753 6.199356913170903,139.33547695577755 6.130760986054213,138.97534833841493 5.993569132076372,138.58092175749397 5.847802786697865,138.28938906750358 5.787781350470761,137.86066452302427 5.196141479600384,136.60878885314466 4.870310825540565,135.99142550935 4.493033226398767,135.3226152197067 4.287245444793156,134.945337621076 3.7642015007839307,134.49946409430643 2.9924973207211627,133.40192926018383 2.7867095391155514,132.83601286223777 2.9667738477968637,132.47588424410853 2.958199357162817,131.9099678459069 3.0182207931343816,131.3440514471942 3.2926045016011436,131.05251875694827 3.4383708467241108,130.67524115755094 3.635584137440136,130.38370846756052 3.7213290460804593,129.886387995709 3.824222936755495,129.44051446919497 3.9528403000992895,129.1146838153907 4.330117899241087,128.84030010743498 4.5016077170328135,128.41157556295568 4.7245444801620575,128 4.878885316174611,127.53697749196233 5.041800643076751,127.21114683815806 5.144694533751787,126.69667738503843 5.093247588414269,126.18220793115216 5.23043944290319,125.80493033252145 5.307609860653927,125.4276527331241 5.410503751840042,124.87888531644612 5.427652733363675,124.48445873552515 5.264737406461535,124.12433011816253 5.350482315357398,123.72990353724155 5.410503751840042,122.85530546624821 5.401929260439377,121.80921757797422 5.307609860653927,121.397642014763 5.144694533751787,120.78027867096833 5.06752411600105,120.38585209004735 4.733118971051644,119.699892819136 4.458735262840422,119.37406216533171 4.34726688102026,119.01393354796909 4.235798499455638,118.653804930862 4.218649517676465,118.13933547697575 3.9614147912444158,117.59056806029776 3.6441586280741824,117.26473740649348 3.386923901642133,116.80171489845581 3.4297963558345246,116.47588424465154 3.3954983922761794,115.96141479102081 3.635584137440136,115.70418006433323 3.7384780278596317,115.29260450137754 3.5326902467651,114.81243301181625 2.923901393604472,114.29796355869661 2.546623794462674,114.24651661310355 2.4523043944216854,113.74919614125201 2.1950696682451754,113.54340836066856 1.6720257237248706,113.5262593783783 1.6291532690213992,112.97749196170032 1.4833869238984319,112.58306538077935 1.2433011792455548,111.98285101850831 0.9774919616683793,111.65702036470402 0.8488745983245846,111.34833869242338 1.1747052521288643,111.05680600217745 1.3118971061067057,110.7481243298968 1.3461950696650509,110.3022508041494 1.1661307609837384,109.92497320449651 0.8231511254002859,109.17041800646847 0.7202572347252502,108.82743837139608 0.4372990353689019,108.55305466267379 0.1457663451229673,108.36441586335843 0.3344051449494059,108.07288317234587 0.5916398713814555,107.83279742794853 0,107.36977491991087 0.3601286173626251,106.95819935695519 0.8660235798482174,106.9753483389899 1.1661307609837384,106.80385852119818 1.0803858520878753,106.4265809215453 1.8863879959645282,106.47802786739389 2.512325830904329,106.4094319402772 2.906752411825299,106.15219721358962 3.4555198285032835,105.9807073957979 4.02143622721598,105.9807073957979 4.450160771695296,105.79206859648254 4.810289389057921,105.55198285131857 5.058949624855924,105.19185423395595 5.410503751840042,104.74598070718638 5.830653804918692,104.23151125432229 6.002143622710419,103.95712754559999 6.370846731218169,103.51125401959703 6.722400857435669,102.92818863859408 7.125401929757304,102.1736334403105 7.314040728817123,101.77920685938952 7.699892818848508,100.80171489848776 7.5455519828359545,100.39013933527653 7.6741693464352885,99.99571275435557 7.897106109308993,99.61843515572485 8.077170417990306,99.12111468412884 8.222936763113273,98.60664523024258 8.36870310823624,97.7834941048423 8.317256163154262,97.25187567045457 8.128617363327823,96.96034297944202 8.04287245443196,96.58306538081129 8.334405144933434,96.39442658149594 8.36870310823624,95.9828510182847 8.162915326886168,95.62272240092209 8.394426580905,95.21114683796641 8.574490889586311,94.86816720289403 8.53161843539392,94.50803858553141 8.660235798737714,94.19935691325075 8.797427652715555,93.75348338724781 8.848874598053074,93.42765273293246 8.95176848872811,93.11897106141842 8.968917470507282,92.7588424440558 9.011789924955213,92.43301179025151 9.08896034321703,91.67845659222347 9.140407288554547,91.26688102901224 9.140407288554547,90.23794212226188 9.166130760967768,89.91211146845761 9.011789924955213,89.4147909968616 8.831725616273902,88.91747052501005 8.814576634494728,88.42015005341405 8.694533762296059,88.11146838190002 8.617363344034244,87.6827438374207 8.385852090015414,87.30546623802337 8.565916398952265,86.87674169354405 8.883172561611419,86.6366559483801 9.131832797409421,86.36227224042442 9.166130760967768,85.96784565950344 9.140407288554547,85.41907824205883 9.34619506964908,85.07609860698646 9.50911039655122,84.6816720260655 9.826366559465914,83.90996784574719 10.126473741112514,82.84673097518294 10.803858521134293,80.7888531621933 11.138263665828159,79.69131832807072 11.232583065613609,79.33118971070809 11.524115755604003,78.7652733119954 11.558413719162347,77.83922829592008 11.566988210307475,77.41050375144076 11.73847802784366,76.77599142535584 12.67309753480857,74.76956055719263 13.101822079287885,73.70632368688393 14.422293676284177,71.90568060032635 15.116827438340668,70.9624866027274 15.665594855274191,69.91639871368679 16.068595927340287,68.9217577712614 16.514469453343235,67.85852090069714 17.003215434305197,67.10396570241356 17.517684887680375,66.04072883184931 17.912111468601346,65.01178992509895 18.32368703130149,63.93140407326662 18.778135048194024,62.902465166260725 19.48124330139564,62.045016077302094 20.312968917429973,61.23901393419206 21.256162915284467,60.41586280802515 22.1736334404702,59.55841371906652 22.94533762053297,58.68381564858426 24.411575562907768,56.60878885330437 25.397642015210195,55.528403001472036 26.092175777266686,54.77384780344398 26.863879957329456,53.91639871448535 27.54983922824082,53.04180064323646 28.10718113606393,52.09860664563751 28.750267952782902,51.22400857464417 29.35905680619907,50.26366559475496 29.9678456593597,49.32047159715601 30.833869238952378,48.137191854648634 31.03965702055799,47.86280814592633 31.794212218841583,47.19399785628306 32.12004287239032,46.971061093409354 32.54019292623559,46.66237942189533 32.86602358003987,46.40514469444112 33.75777063255685,45.58199356904083 34.075026795471544,45.34190782489903 34.44372990346822,44.94748124397807 34.70096463041134,44.63879957169742 35.5155412646665,43.69560557333185 36.441586280741824,42.598070739975874 36.741693462132886,42.23794212261325 37.53054662371929,41.4319399787366 37.77920686002837,41.12325830645595 38.05359056798405,40.81457663494192 38.85101822122666,39.81993569149437 39.08252947498995,39.528403001503975 40.04287245462361,38.43086816738139 40.274383708642446,38.03644158646042 40.583065380667556,37.72775991417977 41.34619506984073,36.66452304438215 41.886387995884675,35.51554126543312 42.35798499455638,34.24651661326327 42.50375133967935,33.66345123302694 42.86387995729751,32.29153269018205 43.0953912110608,31.24544480190806 43.129689174619145,30.885316184545434 43.26688102885253,30.54233654870644 43.678456591552674,29.290460878826842 43.73847802777978,28.947481243754467 43.92711682735067,28.004287245388895 44.09003215425282,27.369774920326126 43.832797427820765,27.163987138720515 43.91854233671663,26.80385852135789 43.79849946426242,26.47802786780915 43.70418006447697,26.066452304597927 43.6870310826978,25.55198285147829 43.832797427820765,25.17470525208095 44.012861736502074,24.814576634718325 44.16720257225909,24.437299035320986 44.45016077161544,23.85423365508466 44.535905680511306,23.459807074163688 44.54448017165643,22.585209003681424 44.44158628098139,22.190782423015992 44.2872454447133,21.607717041757507 44.48445873517378,21.007502679486464 44.65594855322105,20.698821007972438 44.69882100741344,20.218649517644522 44.61307609851758,19.807073955455458 44.38156484449875,19.566988210291502 44.17577706314868,19.241157556487224 44.0643086818396,18.795284030739815 44.10718113603199,18.43515541261057 44.10718113603199,18.0407288316896 44.16720257225909,17.560557342128305 44.3129689176376,17.114683815614278 44.45873526276056,16.685959271134962 44.493033226318914,16.240085745132014 44.45873526276056,15.897106109293022 44.38156484449875,15.451232583290073 44.115755627177116,15.125401929741333 43.832797427820765,14.851018221019032 43.369774919783104,14.782422293902341 42.64951768505785,14.679528402971766 42.18649517702019,14.593783494331442 41.714898177837405,14.525187567214752 41.37191854225395,14.405144695016084 40.73740621642457,14.422293676539717 40.6173633442259,14.079314041467343 40.300107181055665,13.78778135045479 39.84565916416313,13.59914255113943 39.485530546544965,13.66773847825612 39.08252947498995,13.547695606057452 38.82529474804682,13.324758842417129 38.52518756716684,13.13612004310177 38.225080386031316,12.827438370821122 38.25937834958966,12.450160771934865 37.96784565908819,12.210075027026447 37.830653805110344,11.884244373222169 37.50482315130607,11.695605573906809 37.31618435147963,11.404072883660874 37.05894962504758,11.078242230112133 36.595927117009914,10.85530546621627 36.150053590751426,10.906752412064868 35.78992497338881,10.78670953909958 35.506966774032456,10.615219722074473 35.16398713819346,10.323687031061919 34.76956055727249,10.186495177595157 34.366559485717474,10.100750268188214 33.95498392301733,9.809217577942281 33.53483386917206,9.792068596674188 33.1404072882511,9.723472669301957 32.745980707330126,9.792068596674188 32.23151125395495,9.689174705743612 31.854233654813147,9.397642014986598 32.05144694527363,9.123258307030914 32.67738478021344,9.08896034347257 32.29153269043759,8.608788853144658 31.554126473677627,8.30010718163063 31.31404072876921,7.888531618419407 31.519828510119282,7.614147910719264 32.16291532683825,7.116827438867718 32.7631296891093,6.945337621075992 33.526259378538015,6.928188638785739 33.6377277598471,6.619506967271712 33.60342979628876,6.225080386350742 34.2893890677112,6.070739549827109 34.915326902651,6.122186495675706 35.36120042890949,6.053590568559016 35.60986066445195,5.813504823395059 35.309753483571974,5.6077170417894475 34.94962486595381,5.316184351543513 34.40085744927582,5.2647374067170745 34.08360128610559,5.058949625111463 33.43193997875257,4.990353697994773 33.28617363337406,4.595927117073803 33.50053590561372,3.6527331194748482 33.29474812451919,3.292604502112223 33.809217577894366,3.1554126478788422 34.20364415881534,3.2411575565191657 34.40085744927582,2.8981779214467926 34.55519828503284,2.6066452304342387 35.10396570196636,2.932475885005138 35.49839228288733,3.2240085749955325 35.93569131851177,3.292604502112223 36.17577706316465,3.0525187572038064 36.69024651653983,2.9667738477968637 36.81886387988362,2.5723472668758935 37.1361200433094,2.177920685954923 37.3933547694859,2.41800643111888 37.88210075044786,2.469453376967477 38.69667738470302,2.555198285352261 38.782422293598884,3.0696677384718996 38.09646302268752,3.5155412652414673 37.98499464086736,3.8413719187902076 37.99356913226803,4.372990354200098 38.43086816712585,4.6473740629224 38.85959271160517,4.698821007748839 39.339764201422,4.870310825796104 39.922829582424946,4.613076099364055 40.47159699910293,4.613076099364055 40.99464094362324,4.6473740629224 41.35476956047478,4.287245444793156 41.90353697766385,3.7041800645568266 42.306538049218865,3.789924973963769 42.57234726679604,4.030010718105567 42.72668810306413,4.681672025714126 42.838156484373215,5.23043944315873 43.018220793054525,5.5219721331491245 43.39549839219632,5.676312968906139 43.987138263577776,5.727759914754736 45.29903536994002,5.539121114672757 45.753483386832556,5.55627009670747 46.70525187583218,6.190782422792396 47.785637727664515,7.511254019788688 48.531618435314066,8.128617363583363 48.908896034200325,8.30010718163063 51.88424437288677,8.557341908062678 52.441586280965424,8.471596999677896 52.69024651676342,8.231511254513938 53.00750267942258,8.43729903586401 53.47052518746024,8.488745980945989 53.967845659056245,8.385852090270953 54.28510182248202,8.523043944504334 56.00857449077779,8.488745980945989 57.07181136159757,8.471596999677896 57.6291532689096,8.50589496323624 60.390139335611934,8.831725616784981 60.97320471584826,8.780278671191923 63.84565916385968,7.939978564268004 64.54876741680576,7.837084673592968 65.23472668822819,7.785637727744371 65.56055734177694,7.734190782662393 66.109324758966,7.5627009648706665 66.43515541251475,7.5627009648706665 70.01929260461736,6.430868167189733 71.125401929374,5.967845659152073 71.87138263651246,5.487674169590779 72.96891747063505,4.544480171991824 75.46409431924913,3.824222936755495 76.01286173618266,3.669882100998481 76.86173633450724,2.932475885005138 77.19614147894556,2.8295819940745623 78.24222936747509,3.2240085749955325 78.69667738462317,3.0353697749135544 79.35691318312132,3.121114684320497 79.78563772760063,3.275455520077511 80.19721329030077,3.344051447194201 80.7031082530419,3.3612004294844535 83.65273311931513,2.7266881033995265 85.10182207914414,2.0921757773146 86.07931404081252,1.7491961414756076 91.34405144676298,0.806002143876653 91.90139335484163,0.668810289643272 92.93890675248157,0.3601286181292443 93.35905680581575,0 93.81350482321938,0.48017149032791295 94.19935691299521,0.6516613081196392 94.66237942103288,0.7031082532016173 96.10289389073893,0.6173633445612939 97.4919614148519,0.49732047159600606 97.9378349411104,0.5144694538862582 98.33226152203136,0.6345123260849268 98.67524115761482,0.7888531626085599 100.01286173639028,0.8917470525169764 100.43301178972447,0.9088960348072285 101.75348338672076,0.9603429796336669 103.06538049308301,1.0460878890406096 103.92282958204164,0.9088960348072285 104.34297963537583,1.3033226154726592 105.10610932480455,1.457663451229673 105.49196141458039,1.2861736334379468 107.8670953909958,1.646302251567191 109.2132904609164,1.8520900321506433 110.21650589474245,2.0750267960465067 110.64523043922176,2.126473740872945 111.24544480174835,2.2636655953618656 113.3118971058831,2.6923901398411814 113.72347266858326,2.778135048481505 114.19506966776603,2.8981779214467926 116.86173633417184,3.5326902465095604 117.94212218625972,4.304394426827868 119.03108252923718,4.8874598070641975 120.29153269000636,5.350482315357398 121.56055734166515,5.69346195119639 124.56162915302035,6.67095391235369 125.92497320446458,7.168274383949696 127.29689174679838,7.476956056230343 127.8542336546215,7.596998928429012 132.70739549812734,9.894962486582603 133.9506966773729,10.443729904027206 135.21972132903167,10.838156484948177 136.42015005357376,11.198285102310802 137.14040728804346,11.798499464581845 137.42336548739982,12.055734191269433 138.25509110394523,12.707395498622454 138.6923901390586,13.410503751824072 139.77277599114646,14.010718114095113 140.65594855277385,14.370846731457737 142.405144694505,14.8338692394954 143.18542336545735,14.8338692394954 143.64844587323947,15.056806002624644 144.6688102893558,15.75991425582626 145.2261521971789,16.171489818015324 145.78349410474647,16.34297963606259 146.2722400854529,16.651661308343236 146.46087888553487,17.286173633406005 146.9067524115378,17.629153269500538 147.93569131803264,18.606645230402297 148.83601286169474,19.464094319360928 149.80493033196245,20.27009646349312 150.83386923896836,21.007502679486464 151.99999999969654,21.727759914722792 153.04608788848162,22.3622722400411 154.35798499433278,22.996784566126028 155.59271168243322,23.511254020012284 155.96141479094095,23.699892819327644 156.30439442626889,23.9399785644916 156.64737406185233,24.231511254481997 156.9646302252781,24.437299035320986 158.18220793108827,25.414790997244907 159.7341907821034,26.838156484916237 160.37727759882236,27.078242229313574 160.72883172555095,27.31832797447753 161.05466237935522,27.815648446073535 161.25187567007126,28.141479099877813 161.73204715963254,28.553054662833496 162.03215434076807,28.77599142596274 162.40943193990987,28.9646302252781 163.42979635577063,29.290460878826842 164.03001071778615,29.667738478479716 164.68167202590578,29.61629153263112 165.1875669878803,29.667738478479716 165.60771704172555,29.787781350678387 165.9335476952743,29.856377277795076 166.2593783490786,29.907824223643676 166.55091103958006,30.147909967785473 167.02250803825177,30.525187567438348 167.5798499460749,30.628081458113385 168.1200428721188,30.782422293870397 168.47159699859185,30.971061093185757 168.7888531617621,31.142550911233023 169.14898177886917,31.279742765466406 169.68060021427905,31.416934619955324 169.92926045007707,31.69131832791101 170.35798499455638,31.69131832791101 170.98392282949618,31.948553055109677 171.71275455485548,31.89710610926108 172.17577706289313,32.01714898222637 172.16720257200356,32.531618435346005 172.60450160737244,32.63451232627658 172.99892818829343,32.703108253393275 173.85637727725205,32.73740621695162 174.28510182173136,32.7888531620336 174.67095391176275,32.94319399855723 175.06538049268372,32.82315112559194 175.45123258297065,32.94319399855723 177.92068595891595,32.96034297982532 179.27545551972614,32.89174705270863 180.16720257224313,32.80600214406831 180.5273311893502,32.63451232627658 180.79314040718293,32.36012861755428 181.08467309717332,31.176848874791368 181.5048231510186,31.091103966151046 181.9335476954979,30.902465166069067 182.44801714861754,31.091103966151046 182.85959271131767,31.211146838349713 183.17684887423238,31.468381564781765 183.3654876740588,31.77706323731795 183.59699892807765,32.068595927308344 183.52840300070542,32.44587352670568 183.97427652747498,32.80600214406831 184.31725616254735,32.97749196134895 184.38585208966404,33.35476956074629 184.66881028927594,33.74919614166726 184.76312968880583,34.19506966843683 185.53483386886862,35.309753483827514 185.92926044978958,35.65273311889988 186.19506966736677,36.09860664566945 186.27224008562857,36.458735262776536 186.34941050363486,36.80171489887107 186.49517684850227,37.830653804854805 186.8124330116725,38.225080385775776 186.9239013929816,38.5852090031384 187.258306537931,38.85959271186071 187.42979635546718,39.18542336540944 187.1725616287796,39.442658092097034 186.9753483388302,40.162915327333366 187.14683815611085,40.59163987181268 187.24115755615182,40.93461950714059 187.54983922792138,41.32904608780602 187.7299035366027,41.72347266872699 187.96998928176666,41.96355841389095 188.12433011752367,42.289389067695225 188.34726688090845,42.58092175768562 188.6302250802648,42.838156484373215 188.75884244360861,43.19828510250246 188.87888531580728,43.592711683167884 188.56162915314812,43.918542336972166 188.79314040716696,44.24437299077645 188.75884244360861,44.62165058940717 188.58735262556135,44.96463022524616 188.50160771666546,45.290460879050435 188.69024651674746,45.56484458777274 188.6730975344572,45.89067524132148 188.6730975344572,46.47374062155781 188.7331189706843,46.833869238920435 188.6302250802648,47.17684887475943 188.65594855267804,47.58842443720403 188.72454448005027,48.05144694524169 188.87888531580728,48.5487674168377 188.91318327936563,48.994640943607266 189.04180064296494,49.33762057867964 189.11897106122677,49.92068595968259 189.35048231499005,50.5723472670356 189.2561629152046,50.93247588439823 189.1618435151636,51.27545552023722 189.22186495164627,51.669882101158194 189.23901393342544,52.047159699788914 189.44480171451997,52.32154340851121 189.28188638761782,52.71596998943218 189.46195069629914,53.09324758908506 189.5562700960846,53.47052518771578 189.5819935690089,53.81350482355477 189.68488745968392,54.122186495068796 189.89067524077845,54.41371918531473 190.10503751301812,54.68810289403704 190.27652733106538,55.08252947495801 190.5251875668634,55.39121114723865 190.91103965663922,56.282958199755626 191.42550911001442,57.55198285090332 191.8713826362729,58.32368703122163 192.0685959267334,58.598070739943935 192.28295819897303,59.00964630238854 192.54019292566062,59.24973204755249 192.86602357972043,59.506966773984544 193.1832797423796,59.40407288330951 193.40621650601992,59.71275455559015 193.68917470512073,60.05573419066253 194.01500535866947,60.2443729907445 194.2465166126883,60.53590568099044 194.52090032115507,60.84458735250447 194.79528402987737,61.08467309766842 195.36977491947965,61.564844587740794 195.63558413705684,61.78778135087004 195.91854233641317,62.045016077302094 196.31296891733413,62.37084673110637 196.69882100710998,62.799571275585684 196.93033226112883,63.09110396557608 197.09324758803095,63.38263665658864 197.29903536963658,63.725616291661005 197.4533762053936,64.03429796394165 197.6420150049645,64.30868167189733 197.71918542297075,64.66881029002658 197.96784565876877,64.97749196154061 198.3108252943522,65.23472668797265 198.55948553015023,65.52625937898522 199.01393354755382,65.59485530533529 199.09110396530457,65.92068595990618 199.3483386922477,66.21221864989658 199.579849946011,66.52090032141061 199.92282958184998,66.7952840301329 200.22293676272997,67.08681672037885 200.75455519788432,67.08681672037885 200.65166130720928,67.41264737392758 201.05466237901985,67.63558413782344 201.36334405104495,67.92711682781383 201.14898177880528,68.30439442644456 201.14040728817125,68.68167202609743 201.45766345108592,68.93890675252949 201.65487674154642,69.29903536989211 201.68060021395965,69.69346195081307 201.6034297962089,70.08788853173405 201.86066452264095,70.29367631308412 202.2293676311487,70.5509110397717 202.17792068555565,70.99678456628574 202.56377277584258,71.27116827424142 202.70953912096553,71.6484458738943 202.74383708452388,72.06002143608336 202.5723472664766,72.60878885352797 202.7695605569371,72.93461950733224 203.0267952836247,73.26045016088099 203.48981779166235,73.60342979671998 203.4983922828075,74.08360128628128 203.7299035368263,74.4437299036439 203.8499464092805,74.88960343015792 203.9528402997,75.21543408396221 203.67845659123324,75.43837084683591 203.94426580906597,75.6956055735235 203.96998928147917,76.12433011800282 203.99571275440348,76.50160771740015 204.63879957112246,78.19935691302716 205.08467309738094,79.29689174714974 205.2475884242831,79.63987138324428 205.44480171474356,79.96570203679302 205.7706323682923,80.41157556279597 206.05359056815973,80.60021436211133 206.55948553013425,80.9946409430323 206.98821007461356,81.23472668819626 207.30546623752826,81.45766345106996 207.50267952798873,81.73204715979226 207.70846730959434,82.14362272274795 207.8456591635722,82.58949624875089 207.88853161827566,82.91532690229964 208.00857449047433,83.24115755610391 208.13719185407368,83.60128617346653 208.1972132905563,83.92711682803744 208.46302250787795,84.40728831734319 208.72025723431,84.81886388055442 208.89174705235726,85.1789924976615 209.0375133972247,85.59056806010611 209.13183279701013,86.05359056814376 209.24330117857477,86.37942122194805 209.1918542334928,86.79099678490373 209.18327974234765,87.23687031090668 209.36334405102897,87.56270096445542 209.36334405102897,87.92282958181804 208.9946409430323,88.06002143605141 208.42015005317447,88.19721329054035 207.6484458731117,88.18006430901671 207.45123258265122,88.45444801697239 207.3740621649005,88.81457663433501 207.54555198243668,89.1404072881393 207.66559485489088,89.56913183261861 207.63129689133254,89.89496248693398 207.53697749154708,90.35798499522717 207.83708467293815,90.6838156487759 207.93140407246807,91.04394426613854 208.05144694517782,91.4383708470595 207.90568060005484,91.81564844569023 207.99142550869516,92.19292604508756 208.1972132905563,92.5530546624502 208.2915326898307,92.93033226210306 208.4544480167328,93.23901393361709 208.54019292562867,93.58199356945609 208.73740621608917,93.9592711680868 208.31725616275497,93.99356913164515 208.03429796339864,94.33654876748415 207.89710610890972,94.76527331196345 207.85423365471732,95.14255091084972 207.8027867093798,95.57127545532903 207.57127545536096,95.91425509116802 207.45980707379636,96.5144694536946 207.331189710197,96.85744908876697 207.35691318312132,97.21757770689622 207.2197213286324,97.56055734196859 206.9710610928344,98.26366559517021 206.91103965711838,98.72668810320788 206.8938906748281,99.05251875675661 206.7738478023739,99.46409431920121 206.5509110395002,99.73847802792352 206.41371918501127,100.0814576637625 206.35369774903972,100.51018220824183 206.15648445857923,100.87031082560445 206.24222936721955,101.24758842423516 206.31939978548138,101.6248660236325 206.4651661303488,102.19078242260075 206.49946409416268,102.55091103996337 206.6538049299197,103.06538049282747 206.64523043903012,103.45980707374844 206.85959271126976,103.9742765276347 207.0225080381719,104.28295819914872 207.2883172557491,104.54019292660293 207.5198285097679,104.81457663455862 207.79421221823466,105.27759914259627 208.01714898161947,105.51768488776023 208.28295819919663,105.87781350486732 208.2915326898307,106.23794212222994 208.27438370805152,106.58092175806894 208.41157556279597,106.95819935695519 208.62593783503561,107.26688102923583 208.75455519786834,107.62700964634293 208.89174705235726,108.1757770630209 209.00321543366636,108.48445873530156 208.82315112498503,108.77599142554749 208.73740621608917,109.11897106138647 208.66881028897248,109.47909967874911 208.53161843499464,109.82207931382148 208.5487674167738,110.14790996762576 208.62593783503561,111.02250803861911 208.78027867079265,111.39978563827198 208.70310825253082,111.72561629182071 208.62593783503561,112.20578778138201 208.58306538007662,112.548767417221 208.4030010713953,112.97749196170032 208.21436227207994,113.38906752414492 208.16291532648688,113.88638799574093 208.20578778093483,114.22936763157992 208.07717041759102,114.60664523021065 207.93997856335764,115.0696677382483 207.7170418002284,115.49839228272762 207.69989281844923,115.8242229365319 207.974276526916,116.0814576639861 207.69131832781517,116.4415862810932 207.425509110238,116.68167202549053 207.81993569115897,116.8703108255725 207.47695605557553,117.17899249708654 207.32261521930744,117.48767416936718 207.43408360087204,117.91639871384649 207.36548767375535,118.24222936765078 207.3997856373137,118.58520900348977 207.4941050373547,118.96248660237603 207.48553054620956,119.32261521948311 207.39121114667967,119.71704180040409 207.45123258265122,120.07717041776671 207.69131832781517,120.55734190809463 207.70846730959434,120.96891747028369 207.66559485489088,121.31189710612267 207.66559485489088,121.6720257234853 207.45123258265122,122.08360128669652 207.54555198243668,122.49517684888559 207.674169346036,122.88960342980656 207.26259378333586,122.95819935692325 207.30546623752826,123.28403001072753 207.05680600173025,123.55841371944983 207.01393354753787,124.00428724519723 206.95391211105522,124.45016077196681 206.97963558397953,124.86173633415586 206.85959271126976,125.17041800643652 206.8938906748281,125.77063236896309 206.7052518752572,126.13076098632573 206.7052518752572,126.55948553080503 206.51661307594185,126.93676312943576 206.55948553013425,127.36548767391507 206.58520900305854,127.81136120068464 206.5251875665759,128.154340835757 206.2765273307779,128.5659163987127 206.06216505853826,128.9088960345517 205.89067524100204,129.35476956055464 205.7020364411756,129.8006430873242 205.79635584096107,130.16077170443128 205.7449088958791,130.48660235823556 205.56484458719777,130.9153269027149 205.29046087847547,131.37834941075255 205.09324758801498,131.75562700938326 204.87031082514127,132.03001071810556 204.73311897065236,132.3729903542001 204.60450160756412,132.78456591638917 204.65594855290163,133.21329046086848 204.51875669841272,133.55627009670746 204.4244372988828,133.88210075051174 204.33011789884182,134.43086816718974 204.4673097530752,134.80814576658707 204.201500535498,135.1168274381011 204.18435155371884,135.44265809190537 203.90996784576316,135.76848874622073 203.81564844572216,136.19721329070006 203.6184351552617,136.47159699865574 203.38692390124285,136.81457663475027 203.13826366544484,137.10610932474066 202.44372990338834,138.032154340816 201.69774919573882,138.8896034297746 201.4748124328651,139.19828510205525 200.66881028898845,140.2443729905848 200.0085744904903,141.1189710608115 199.37406216466093,142.04501607688684 198.61950696663285,143.0396570203344 197.93354769521042,144.10289389089863 197.2561629149331,145.14898177917263 196.6559485529176,146.14362272236463 196.13290460865284,147.24115755648722 195.51554126434706,148.2357984999348 194.9324758838552,149.24758842465042 194.3065380489154,150.2079314042841 193.5091103964394,151.04823151095246 192.79742765260374,151.9056805999111 192.01714898139588,152.76312968886972 191.69131832810265,153.07181136115037 191.51982850979985,153.3633440513963 191.27974276514698,153.84351554172423 191.1768488742164,154.16934619527296 190.76527331151627,155.16398713795388 190.31082529462373,156.2100750269945 189.60771704142212,157.2561629152685 189.0075026794066,158.2336548764258 188.3558413715425,159.2625937834317 187.9957127541799,160.3944265811126 187.73847802774785,161.21757770625737 187.78135048194022,162.5551982847773 187.82422293638817,163.6012861738179 187.8585208999465,164.71596998946413 187.90139335464997,165.81350482358673 187.9957127541799,166.7052518761037 188.34726688090845,167.59699892785406 188.69882100712596,168.6259378346044 189.05894962474412,169.6548767416103 189.21329046050113,170.66666666632594 189.18756698808792,171.76420150044854 188.9303322611448,172.34726688068486 188.7759914253878,172.6559485529655 188.37299035332168,173.42765273328382 187.90996784528403,174.5251875666398 187.6098606641485,175.0225080382358 187.18971061106984,176.37727759879044 187.14683815611085,176.977491961317 186.93247588387118,177.474812432913 186.84673097523086,178.43515541280223 186.41800643075155,178.81243301143294 186.1093247584709,179.15541264727193 185.68917470539225,179.7041800639499 185.20042872443028,180.0300107177542 184.7545551981718,180.20150053554593 184.34297963547166,180.44158628070988 183.6998928187527,180.75026795299053 183.04823151088857,181.12754555187678 181.55627009635612,181.47052518771577 180.17577706287716,181.81350482278816 179.7127545548395,181.98499464083542 178.10932475874242,182.0535905679521 177.62057877778045,182.27652733082581 177.2347266880046,182.58520900310646 175.82851018236798,183.35691318342478 175.5369774918665,183.7856377279041 175.51125401894222,184.11146838170836 175.2111468378067,184.24866023619728 174.86816720222325,184.30010718102372 174.19935691309104,184.4201500532224 174.2165058948702,184.76312968906137 174.42229367596474,185.05466237930733 173.9421221861479,185.2433011786227 173.6420150050124,185.39764201514632 173.18756698786433,185.48338692378664 172.78456591605377,185.672025723102 172.48445873517377,185.98070739538264 172.17577706289313,186.28938906766328 171.65273311862836,186.61521972146755 171.01822079305452,186.90675241145797 169.85209003181524,187.30117899237894 169.2604501604338,187.64415862821792 168.7031082526107,187.79849946397493 167.8885316181,187.93569131846385 167.53697749188248,188.14147910006946 167.21114683782267,188.22722400845424 166.78242229334336,188.4673097536182 165.6162915323596,188.96463022546976 164.38156484425917,189.37620578765882 163.618435155086,189.75348338705615 163.09539121082125,190.02786709501183 162.03215434076807,190.66237942109677 160.9603429795698,191.2454448013331 159.7942122183305,191.93140407301107 158.8338692389524,192.66881028900443 157.83065380461525,193.61200428736998 157.52197213259012,194.0235798498146 156.51875669850853,195.0182207930066 155.57556270065405,195.92711682704723 154.97534833863853,196.92175777023922 154.32368703077444,197.62486602344086 153.65487674164225,198.25937834952578 153.36334405114076,198.4994640939231 153.08038585178443,199.03108252907748 152.57449088929883,199.40836012873035 151.91425509080068,199.78563772736106 151.29689174700601,200.3858520896321 150.66237942092107,201.27759914240463 150.05359056776047,201.87781350467566 149.7706323684041,202.23794212203828 149.60771704150196,202.52947481202867 149.63344051417073,202.92390139294966 M149.63344051417073,202.92390139294966 150.02786709534723,202.88960342939131 150.41371918512309,202.958199356508 150.70525187536902,203.1639871381136 150.748124330328,203.55841371903458 150.36227223978557,203.59271168259292 150.07073954953964,203.74705251834993 149.70203644128742,203.4383708468359 149.63344051417073,202.92390139294966Z"/></svg>