<svg xmlns="http://www.w3.org/2000/svg" width="256" height="256"><path d="M181.41418472304449,6.036903759439133 190.826266493122,11.572038894262729 192.70267207717632,11.362968634278852 199.83196794536028,13.65751473853457 214.00039813199865,18.220473164616166 216.89340785544752,17.27443023775881 217.9047852384963,15.73776382638275 224.57020646709032,16.035688946892876 226.67658933721256,16.67335323992548 235.79858612161019,19.098568256719794 236.92364545848966,19.495801750915028 242.1765357425414,22.401878365851395 247.91551438123676,22.663216190928598 243.48322486792742,26.238317637906835 238.8797590791925,30.127024474744058 238.68114233213385,34.5174999362747 235.1282546002093,38.40098001699981 234.7336344843427,39.42542429130244 233.95223438736187,41.42204527473649 233.74839088380165,47.093076078756006 230.0922747109716,50.595002935102045 229.35922211170794,52.42959446706612 229.44023683748185,52.43482122364555 229.47290406561652,52.61775770081017 229.5852793303218,52.94704336079686 229.71856162118908,53.31814307217284 230.01910011994997,54.086476277977695 230.13147538481107,54.415761937808625 230.24646402784504,54.71368705831875 230.43462726182273,55.29385702991225 230.73647244986478,55.98378888827183 230.7822065691754,56.14059158292873 230.80703366263563,56.27126049546733 230.80703366263563,56.38624913865707 230.76652629967077,56.49601102542315 230.67636475009704,56.72076155483377 230.4908148942922,57.065727484013564 230.46860117916066,57.14412883122519 230.46860117916066,57.274797743763784 230.48036138128913,57.426373682308565 230.57182962006615,58.14243932309798 230.61233698287523,58.487405252277775 230.59535002440097,58.665114973252386 230.5587627287344,58.82714442503391 230.38627976418346,59.3602735881914 230.2216369343848,59.89862950753889 230.13016869560778,60.149513819613006 230.02694025470228,60.358584079830536 229.83224357509766,60.6826429827705 229.75122884932372,60.89693999941169 229.67674756909884,61.17395809414929 229.62317331495802,61.38302835389952 229.62448000416128,61.53460429267795 229.6610672995942,61.66004644887077 229.71856162118908,61.75935482208857 229.81917668376593,61.84820968261482 229.96421917668377,61.942291299720495 230.34577240129647,62.0886404819195 230.92724906217114,62.26635020289411 231.14285276778196,62.349978306996704 231.30880228670597,62.43360641109929 231.47475180563,62.54336829732018 231.6145675420463,62.66358369685569 231.92947962126433,62.99286935668662 232.43124824541255,63.51554500684102 232.80757471352373,63.9127785008026 233.0244851083378,64.15320929987362 233.28974300086904,64.4040936121814 233.54977413682087,64.59748360281641 233.864686215961,64.81178061914606 234.09074343480856,64.95290304476563 234.20311869951385,65.06266493122017 234.27890666870837,65.17242681751894 234.36122808368557,65.35013653872721 234.55984483066635,66.04006839685314 234.70358063445883,66.5679708038985 234.83424954699743,67.07496618415885 234.96491845953602,67.50878697378701 235.0237194701784,67.65513615575236 235.14654824804256,67.90079371140281 235.47191384026368,68.44437638787494 236.0220299620512,69.44268687974773 236.23632697853662,69.7667457826098 236.3212617717646,69.86082739948183 236.43886379297143,69.99149631202043 236.58913304246872,70.10648495521016 237.10788862516907,70.4305438583059 238.08006533453414,71.02639409932615 238.627568077993,71.35567975915708 239.04440190906902,71.55429650613786 239.67945282392876,71.8260878439845 239.87676288193992,71.92539621798115 240.16554117865022,72.11878620830463 240.50005359467116,72.38012403338182 240.79667202621167,72.57874078067415 241.7479417094148,73.111869943598 242.23533675326166,73.38366128167827 242.4640073502042,73.54046397688037 242.61166322129495,73.67113288941897 242.76323915991762,73.87497639305707 243.01151009366308,74.25130286101248 243.5511727024475,75.0980374143405 243.88307174029555,75.65207360327051 244.23979787152592,76.22179006186091 244.4188142817817,76.4465405915052 244.61612433963708,76.62425031247982 245.13357323328995,76.96921624165961 246.28084628545676,77.73232269111868 246.78392159865248,78.0877421330679 247.0308858434283,78.3020391497091 247.733884592886,79.02855830350161 247.97562208100453,79.26898910226109 248.43688334234366,79.73417043121006 248.84195697113543,80.15753770791301 249.37247275612003,80.7063471401857 249.46524768402244,80.82656253972122 249.50575504683152,80.91019064405747 249.51228849245845,80.98336523468966 249.51098180333307,81.08790036479841 249.50183497945537,81.16107495589792 249.38292626912315,81.43809305063553 249.1255085113442,82.00258275256863 248.8537171732639,82.63502028925545 248.7139014369255,82.95907919266273 248.35848199474262,83.74831942424011 248.27354720167043,83.96784319730496 248.22911977140728,84.08283184018315 248.2212796365771,84.15600643128265 248.15986524768394,84.66300181201031 248.163785315138,84.96092693275409 248.18599903026956,85.16999719281586 248.2487201082102,85.415654747999 248.29706760584946,85.55677717354068 248.4068294923819,85.81288824250576 248.53357833762223,86.10558660635859 248.6498736697037,86.38260470109618 248.715208125973,86.57076793507389 248.74918204323305,86.76415792563101 248.77662251486615,86.96800142903547 248.82497001250542,87.1248041240039 248.88769109060183,87.28160681920599 249.06278743340357,87.50635734861662 249.31759181285383,87.8460965216064 249.62727713549242,88.28514406742455 249.87946813676982,88.56216216192851 250.28062169818543,88.9646224125474 250.55763979276728,89.24686726386443 250.600760533905,89.30436158561507 250.6282010055381,89.3566291501632 250.71444248781359,89.51343184536529 250.79937728104156,89.72250210534916 250.91436592415343,90.07792154784359 251.0411147691601,90.45947477237841 251.14826327751965,90.77308016208164 251.21229104466354,91.00305744861689 251.22535793583953,91.18599392570361 251.2266646249649,91.47869229010162 251.20314422070797,91.72957660209785 251.14826327751965,91.92819334915652 251.0594084169934,92.09022280047073 250.91959268057707,92.28883954791883 250.75494985077844,92.48222953808654 250.70529566393589,92.58153791184952 250.67524181405201,92.67561952895521 250.6843886380076,92.76447438940357 250.72620268994206,92.83764898026942 250.86732511548377,93.02581221448077 250.96271342171482,93.16170788344303 251.05679503866472,93.26624301331815 251.1704769925733,93.36555138708113 251.26194523142823,93.41781895209657 251.36386698313044,93.44917949118373 251.5363499476814,93.49099354296241 251.81336804226322,93.52758083839534 252.43273868777408,93.57984840372232 252.53596712867957,93.59552867330484 252.63135543475488,93.65302299482182 252.70845009315263,93.71574407284035 252.80906515596314,93.84641298537895 252.93842737929847,94.05548324544071 253.13835081540464,94.40567593073263 253.20237858254856,94.47885052183213 253.34350100809024,94.60429267794707 253.59177194199148,94.78200239923322 253.90929739938238,94.97539238932305 254.409759334561,95.18446264985211 255.09315774698211,95.45102723104144 255.40153638057322,95.57124263057695 255.55572569736876,95.63396370890702 255.67724778610753,95.71236505611864 255.73343541842127,95.78553964721813 255.75956920100685,95.83780721254512 255.8118367659444,95.95802261208063 255.82882372465232,96.08346476772826 255.82882372465232,96.27685475859693 255.8026899421446,96.56432636602608 255.74911568808164,97.02950769450773 255.7086083250389,97.51559604946287 255.62890028846826,97.92850981316273 255.47471097159482,98.45118546331713 255.37801597639415,98.86409922670546 255.24473368552688,99.14111732144306 255.05787714059667,99.39722838962929 254.84096674578262,99.60107189350106 254.5260546665646,99.88331674435078 253.95764489709956,100.37463185572958 253.5447311333997,100.74573156726132 253.31606053645714,100.97048209698347 253.22720567600877,101.06979047020127 253.1396575046079,101.20568613939719 252.9070668403671,101.65518719845208 252.66271597376414,102.2092233878494 252.59215476099328,102.4235204040233 252.54250057422863,102.5437358035588 252.52943368305264,102.6430441773218 252.54250057422863,102.73189903800382 252.62090192175177,102.83643416787892 252.97762805306004,103.12390577561962 253.0847765613417,103.22844090549474 253.1697113544139,103.35910981803333 253.22981905418166,103.5002322436529 253.27555317364806,103.72498277329719 253.31867391470792,104.14312329326494 253.35787458854736,104.5299032743013 253.35918127759487,104.7389735342852 253.38008830367895,104.8591889338207 253.41928897736264,104.93759028157751 253.49115687925885,105.03689865479531 253.6923870045683,105.2093816196578 254.02428604241635,105.423678636299 254.37578541722309,105.63274889604922 254.5796289207054,105.76341780858782 254.66717709210627,105.84181915626675 254.80960620677334,106.02475563366502 255.01606308858433,106.35926804984172 255.13366510994697,106.59447209225543 255.18331929663375,106.78786208312411 255.2042263227178,107.1641885510795 255.23036010522551,107.69731771447066 255.27217415715998,108.32452849450017 255.26433402248557,108.61722685866452 255.31137483092158,108.61200010224086 256,111.08425592723754 254.83704667840644,114.05828037684974 253.54734451165046,117.3511369727446 250.05456447949365,121.03600030641104 242.52672842814485,128.24892427823028 241.84725008302203,129.0956588315583 241.84855677214742,129.2001939614334 241.7962892070541,129.52947962142008 241.7479417094148,129.73854988148184 241.71135441398187,129.9946609496681 241.72703468340862,130.24031850563009 241.7374881964117,130.3030395836486 241.78191562675272,130.35530714850827 241.85639690682183,130.42848173960778 242.06546716696147,131.92333409897148 242.03149324962357,132.0383227418497 241.19129214200035,133.9826761608135 241.03448944695404,134.07675777768551 240.95870147768164,134.0819845340313 239.95908429683922,134.05585075160147 238.92157313120487,133.7213383357363 238.86669218793864,133.6952045530728 238.80919786649955,133.6795242834124 238.75431692315544,133.67429752698874 238.69943597988924,133.68475104006973 238.66284868445632,133.6952045530728 238.6184212541153,133.7056580660759 237.65931143608196,133.862460761278 237.54954954954954,133.8885945433963 237.49074853890718,133.89382129981993 237.4332542174681,133.87814103039318 237.35746624827357,133.862460761278 237.10266186866752,133.81541995260832 236.99420667126049,133.78928617017849 236.83217721971263,133.76837914417231 236.55123905783253,133.76837914417231 236.41142332133833,133.90427481282302 235.7423984891407,134.6935150449456 235.42225965342112,134.94962611313184 234.61733915226122,135.0384809741254 234.5467779394904,135.0384809741254 234.36645484018712,134.9914401654557 234.20834545593752,134.94962611313184 234.0606895847689,134.90781206158678 233.94439425260956,134.89213179169275 233.80457851619326,134.88690503550274 233.69873669719274,134.9182655743562 233.5850547431284,134.96007962613493 233.36814434831433,135.00189367845883 233.19174131646508,135.02280070423134 232.98267105632544,135.0384809741254 232.81018809185238,135.0280274611223 232.67559911185973,135.0280274611223 232.5201031059388,135.0280274611223 232.38551412610192,135.0384809741254 232.27705892869488,135.0541612432406 232.20257764847,135.06461475624369 232.1385498813261,135.08029502567044 232.02748130566826,135.10642880833393 231.8628384759475,135.19005691243652 231.74131638720874,135.27891177311852 231.6158742311717,135.3782201464142 231.4054972820624,135.54024959819574 231.22909425005741,135.7075058059336 231.1284791874806,135.83294796212644 231.0161039226195,135.93748309200154 230.63716407633544,136.11519281297615 230.48558813779067,136.19882091707873 230.34577240129647,136.2719955084119 230.28958476898276,136.31380956042426 230.2046499757548,136.38698415105645 230.15238241081724,136.43925171638344 230.10534160238123,136.52287982048603 230.04784728070848,136.64309522002154 230.0164867417771,136.72672332412412 229.97336600063934,136.88352601878103 229.9433121506776,136.98283439231034 229.88712451836386,137.129183574743 229.83485695327056,137.25462573039064 229.782589388333,137.34870734749632 229.75122884932372,137.39052139982022 229.69242783860346,137.46892274703183 229.72248168856524,137.55255085090076 229.76298905137432,137.6100451725735 229.81264323813897,137.63617895500334 229.97597937881224,137.74594084176942 230.19027639537555,137.9027435369715 230.32355868616492,138.02295893642915 230.48689482683818,138.13272082272792 230.58881657869617,138.25816297892075 230.66329785876528,138.39405864780514 230.69073833039837,138.51427404734065 230.69335170880493,138.66062322953965 230.6802848173953,138.77561187241784 230.64369752196237,138.94286808038936 230.63847076546082,139.04217645415235 230.64500421100988,139.13625807125803 230.67244468264298,139.28783400956917 230.7377791389123,139.5439450782227 230.7351657607394,139.72165479943098 230.70380522173014,139.89413776382614 230.64761758926065,140.04048694602514 230.56006941785978,140.22342342334554 230.40588010106424,140.50566827466258 230.23862389301482,140.89244825569895 230.05830079371157,141.18514661955174 229.89104458574005,141.4726182270588 229.71464155373505,141.733956052136 229.58397264119643,141.88030523456865 229.3801291377141,142.09982900732197 229.17236556677773,142.2566317022904 228.92801470033055,142.4186611540719 228.62747620141388,142.63295817047947 228.4275527653077,142.7793073524448 228.18189520973513,142.94133680422632 227.9715182604701,143.0510986905251 227.5403108491706,143.26539570716628 227.19273154174005,143.40651813270796 227.15353086805635,143.49014623681057 227.10126330296302,143.58945461057354 227.0372355358191,143.66785595778518 226.95752749924844,143.72012352311216 226.8686726386443,143.7776178443176 226.7589107521119,143.8037516269811 226.6282418395733,143.8351121657567 226.4962662379093,143.9030600006662 226.40871806650844,143.97623459129838 226.27804915396985,144.05986269540097 226.1682872675153,144.15394431274032 226.06897889398596,144.26893295569639 225.9918842355103,144.3682413289142 225.88212234897787,144.5145905111132 225.79718755590568,144.59299185855846 225.63254472602915,144.6870734758978 225.45483500505452,144.7916086058508 225.33984636202055,144.85432968363568 225.2614450144195,144.89614373595955 225.1595232626394,144.9745450831712 225.0484546869816,145.09998723959765 224.98573360904095,145.20452236947278 224.94261286790322,145.20452236947278 224.88250516813545,145.22020263913316 224.7740499707284,145.21497588224221 224.61202051910269,145.1679350738062 224.45260444588345,145.08953372659457 224.26966796825153,145.00590562249198 224.04361074963765,144.87523670995338 223.95344919990814,144.79683536219656 223.8358471786234,144.7445677974148 223.6189367838872,144.6766199628947 223.47650766914222,144.6138988848762 223.38111936306694,144.5877651022127 223.28965112421204,144.55117780677978 223.19295612893347,144.53549753711937 223.10932802490876,144.5407242937767 223.02831329913482,144.5564045633592 222.93292499305954,144.60344537156155 222.7761222980132,144.6504861802312 222.53961156624047,144.78638184919348 222.28742056504097,144.91182400530843 222.07573692672844,145.02681264849815 221.965975040196,145.1104407523671 221.8718934232461,145.18884209981238 221.77911849534368,145.26201669067822 221.70202383686802,145.36655182078698 221.65628971747952,145.4292728988834 221.53215425056786,145.55471505499835 221.40540540540542,145.6749304543002 221.2368425082306,145.7742388280632 221.10094683919047,145.8787739579383 220.98203812878035,145.97285557504398 220.87619630970195,146.0826174615764 220.8343822576117,146.15056529601858 220.71024679070004,146.265553939442 220.68411300819233,146.32827501699322 220.64621902363402,146.40144960809272 220.58611132378837,146.4850777121953 220.5168568002208,146.5739325729552 220.45805578950055,146.65233392016683 220.40186815718684,146.7150549984969 220.3208534314129,146.82481688471776 220.27119924464824,146.91367174524402 220.25159890768956,147.012980119007 220.23330526001203,147.1488757878914 220.26205242069264,147.25341091800016 220.2960263379527,147.32135875275387 220.39010795498046,147.425893882629 220.4410688309484,147.4886149607254 222.3566750887643,156.78701477697226 219.9196998698415,158.3341347014293 216.07803384120663,161.4388280630349 212.30562233629513,168.51585636612552 208.81676237151447,171.0978740778883 208.54889110081035,172.692034811015 208.6259857592081,173.5335426076857 208.65865298734278,175.57720439963364 208.59462522012097,174.98135415861339 208.4430492815762,174.83500497664804 208.1202970677616,174.5423066123279 207.84066559485112,174.3175560829173 207.54796723076467,174.11893933593652 207.3402036598283,173.9150958322984 207.1337467780173,173.61717071155462 207.00699793277698,173.38719342572034 206.94166347650767,173.21471046116937 206.89854273536994,173.01086695753128 206.8371283464768,172.80702345389318 206.70907281226684,172.43592374228356 206.53920322588877,172.03346349166466 206.41898782635326,171.84007350134118 206.28962560301792,171.7355383713882 206.0701018298752,171.5944159458465 205.39323686292525,171.2755837988629 204.9868565449302,171.0717402956921 204.74511905673378,170.93061786991674 204.64319730495367,170.83653625281107 204.52167521629278,170.6954138272694 204.4158333971365,170.44452951519528 204.0682540898617,169.72323711829372 203.91667815131694,169.4671260495623 203.69323431087594,169.21101498090877 203.29861419493147,168.81378148686932 202.91052752469184,168.38518745358692 202.49892045019524,167.97227368996494 201.82597555069933,167.51231911790697 201.3346604395542,167.19871372773642 200.94396039106377,167.01055049375873 200.58854094895878,166.90078860745996 200.29322920654366,166.921695633544 198.9055253553837,167.04191103307954 198.28484802082536,167.12031238029115 197.26040374652274,167.13599264995156 195.7590179414542,167.12553913687057 194.71235995202,167.1150856238675 194.36086057736907,167.09940535451864 193.57162034563592,166.96873644198004 192.9574764566266,166.89556185088054 192.01143352984712,166.78579996411446 191.70697496363218,166.73875915567845 191.44955720593114,166.64990429546373 191.19213944830798,166.51923538292513 191.00005614679836,166.36243268772304 190.73871832172117,166.11154837564894 190.51527448128016,165.9390654110201 190.38199219064654,165.8763443332352 190.24478983240311,165.86066406334115 190.0736135568997,165.86589082023212 189.564004798077,165.94429216744373 189.4058954139053,165.9390654110201 189.14063752152984,165.90770487177716 188.893673276754,165.85543730715116 188.64540234285278,165.79271622913262 188.32787688546185,165.68295434236654 188.1854477707169,165.59409948207394 187.9502437281474,165.36934895219602 187.53602327540005,164.90939438013802 187.28383227427844,164.6898706073847 187.1466299161129,164.63237628563408 186.96238674943348,164.5905622336217 186.4828318404168,164.57488196396133 184.68613429301104,164.42330602541654 184.26668708376212,164.36058494732012 183.96092182842182,164.27695684368484 183.747931500906,164.15151468756991 183.54539468647118,163.99471199236783 183.26445652459105,163.59225174174892 183.08152004695913,163.3204604039023 183.02010565814388,163.32568716024807 179.41887042850215,163.55566444608235 176.87082663399943,163.1532041956971 174.5579868820662,162.71938340622472 170.47066329793665,162.06603884353171 162.64359543679657,156.35319398703254 155.79001097414695,153.84957762279296 144.11735701707374,154.15272950019406 138.80174565500346,161.56949697557351 138.19021514440067,162.0346783042888 136.19490084985836,163.55043768965868 129.0355511318684,162.95458744871632 128.140469080979,162.9598142050621 126.25491667312487,162.5155399026645 123.95906387974377,161.81515453153548 123.00518081828986,161.1722634818456 122.07873822839119,160.78025674422977 120.95237220230844,160.41438378873227 119.99718245157338,160.2680346068448 118.5480642115203,160.06941785978614 117.75359722328561,159.89693489500152 117.50271291121149,160.1321389376489 117.35636372916827,160.18440650297586 117.01662455664578,160.28371487619367 116.62200444070132,160.3464359542901 116.34890641349565,160.35688946752683 116.07711507541536,160.35688946752683 115.83668427634433,160.335982441287 115.60148023377485,160.30462190251137 115.30616849151549,160.23144731141187 114.95728249503743,160.14781920730928 114.60970318768476,160.10600515545272 114.16020212847408,160.12691218153677 113.6140060742185,160.1373656943062 112.95543475486818,160.1582727200787 112.51900058706714,160.1634994769697 112.25766276198993,160.1321389376489 111.95581757394788,160.11645866853368 111.66573258811219,160.1373656943062 111.45666232812832,160.2053135287484 111.21753821818268,160.2784881198479 110.84382512824439,160.3098486586235 110.50016588826787,160.31507541551446 110.09247888114744,160.29939514562042 109.57895005494862,160.2941683895083 109.11768879360947,160.2523543371844 109.05758109384172,160.3516627109474 108.83021718602456,160.27326136319058 108.55973253714754,160.18963325932165 108.29578133374167,160.1321389376489 107.95212209376515,160.06941785978614 107.7874792640444,160.04328407743418 107.66857055371216,160.0641911032067 107.54835515409876,160.1112319116427 107.43336651106479,160.17395298997278 107.19685577929204,160.3464359542901 106.8636500523186,160.60777377936728 106.72252762677692,160.7018553962393 106.61145905119699,160.7332159355601 106.44681622132047,160.74889620514261 106.32790751098823,160.7332159355601 106.24166602871276,160.6914018832362 106.21161217875098,160.73844269190587 105.48639971416175,160.60254702302151 105.37663782762932,160.83775106566887 105.30868999310925,160.9266059258836 105.1649541893168,161.08340862085203 104.97417757701044,161.2088507772785 104.85396217747493,161.31338590715362 104.78078758645331,161.46496184546473 104.74028022356634,161.7837939922147 104.64489191749105,161.9144629047533 104.28293902968124,162.32737666860893 104.07125539136871,162.54690044144013 103.91575938552566,162.7925579968569 103.71583594941949,163.08525636125492 103.615220886609,163.17411122146964 103.43359109818033,163.26296608246318 103.30292218564173,163.31000689089922 103.1291325319654,163.31523364701133 102.9226756501544,163.2995533778961 102.65611106857565,163.31523364701133 102.41698695863002,163.28387310823572 102.28893142442007,163.27341959523264 102.18962305089073,163.2995533778961 102.14258224229896,163.37272796891773 102.14258224229896,163.49294336845324 102.18570298351457,163.6758798458515 102.30199831559605,163.92676415792562 102.33335885460531,164.0469795576948 102.31245182859914,164.14106117456683 102.23405048115386,164.24559630444193 101.90999157798025,164.6271495292883 101.71268152004696,164.82576627603544 101.59246612066721,164.89894086713494 101.43958349291917,164.961661945465 101.286700865249,164.99824924089793 101.12075134624709,165.02438302324987 100.91298777531073,165.02960977967354 100.67255697623969,165.0191562669041 100.41905928591481,164.99824924089793 100.24396294311309,165.01392951001313 100.10937396319832,165.04006329267662 99.89769032496368,165.11323788377612 99.51875047852386,165.25958706597513 99.34888089230155,165.33276165699675 99.26655947740224,165.4007094915168 98.95426077635709,165.64636704669996 98.70076308611009,165.80839649848147 98.56225403874129,165.86589082023212 97.78346732001123,165.52092489105235 95.25894392984334,166.08541459298544 85.23271827067862,177.8978842867865 72.98250772018477,189.40720210295282 66.97565781086317,184.4156496438225 64.05128754824929,183.7100375162698 57.63152387522782,183.29712375241417 50.41206645747012,175.83854222471084 45.17616313212627,174.07712528407993 41.932960722762424,171.6571370234756 40.181997294823056,169.57166117974896 35.02710869517525,172.34184212541152 34.90427991731108,172.46728428160435 34.697823035500086,172.55091238547328 34.11765306390659,172.71816859367848 33.274838577954725,172.93769236643178 32.99651379432539,172.99518668810452 32.639787663017124,173.0056402011076 32.33663578600545,172.98995993175876 32.05831100229823,172.97950641875568 31.85446749866013,172.95337263609218 31.664997575479163,172.9167853404256 31.50427481313457,172.90633182765617 25.724788811474365,170.16228466434555 25.83716407641333,164.28741035668793 23.055222928310748,160.9213791695378 23.234239338566514,156.63543883842746 15.31047648214787,148.10014547109452 9.280106168569322,141.24786769764816 4.902697598526191,133.0157262077163 0.6637980756960927,130.39712120052064 0,129.94762014123208 0.40246025061889085,129.7333231245909 0.6964653038307429,129.50857259518025 0.9342827246509966,129.41449097807458 1.13289947170967,129.35176990021182 1.3511165557270184,129.34654314386606 1.5876272873440012,129.39358395230207 1.994007605416935,129.53993313450107 2.55719061838042,129.84308501112332 2.876022765052491,130.03124824533467 3.0733328229857784,130.12010310609458 3.375178010872062,130.19850445330619 3.703156981421835,130.22986499231544 4.011535614935048,130.26122553163626 4.274180129137636,130.2350917487391 4.595625653982594,130.1566904015275 4.915764489702167,130.03124824533467 5.203236097287089,129.8535385241264 5.281637444810249,129.8064977156904 5.463267233316789,129.56084016027359 5.663190669500849,129.18451369200665 5.860500727434136,128.92317586692945 6.0826378787497575,128.76637317227255 6.5386723834315905,128.6043437206468 6.990786820815149,128.56775642498022 7.4128474084706,128.52594237296788 7.614077533702161,128.52071561631055 7.713385907153612,128.5468493987404 7.867575223949162,128.65138452884915 8.093632442640942,128.86045478914457 8.25566189426669,129.1270193708012 8.477799045504428,129.5817471860461 8.599321134243212,129.90057933279607 8.710389709823138,130.0573820277645 8.93906030676569,130.1880509403031 9.209544955876362,130.26645228798202 9.874649720542072,130.33962687884787 10.23660260835188,130.38144093117177 10.555434754868182,130.47552254804378 10.870346834086211,130.63232524324587 11.219232830564275,130.8413955029961 11.35512849960442,130.99297144154087 11.416542888497563,131.1863614321759 11.51715795123017,131.29612331894197 11.760202128474083,131.39543169215978 12.01631319704974,131.4163387184775 12.359972437104146,131.39543169215978 12.84606079174774,131.29612331894197 13.1034785493709,131.243855753615 13.303401985632846,131.2281754844219 13.494178597939202,131.2699895362785 13.707168925299237,131.4320189875927 13.914932496235613,131.71426383890974 14.14490978230355,131.90242707319896 14.40363422928575,131.9808284204106 14.999484470306,131.9808284204106 15.64760227649746,131.9128805859684 15.871046116938468,131.9181073423142 16.04614245981808,132.03309598573756 16.63676594441467,132.5766786616645 17.22738942916703,132.9843656689407 17.56059515614046,133.0889007988158 17.919934665621614,133.14116836383124 18.170818977695728,133.1150345814793 18.97443278973024,133.01049945129265 19.316785340581376,132.9530051296199 19.745379373707987,132.74916162621545 19.737539239033556,132.58713217443392 19.686578363065614,131.9546946377471 19.964903146772834,131.93378761174094 20.189653676417112,131.87629329053547 20.36475001921884,131.79266518643288 20.437924610162572,131.7403976215732 20.464058392670292,131.6776765435547 20.474511905673378,131.44247250082944 20.500645688258984,131.31180358829084 20.610407574869292,130.93547712010178 20.654835004976647,130.79958145113952 20.691422300565343,130.7054998342675 20.711022637368245,130.62187172993126 20.701875813568428,130.5486971391433 20.6875022331113,130.4702957913865 20.654835004976647,130.41280146994737 20.58688717053446,130.3448536355052 19.50756195288773,129.05907153589172 20.73584973075058,126.18958221693346 22.073899395223737,123.30963938419326 22.66060281244417,118.18219125664588 25.34846234336319,116.38418701964741 25.09365796391292,114.3771125231324 26.03055406681469,112.91362070277795 26.03970089069239,112.71500395579716 26.103728657914193,112.53729423482254 26.17167649235638,112.35435775695696 26.26967817676033,112.18187479263966 26.332399254856742,112.04597912344376 26.425174182837033,111.87872291570588 26.578056810351427,111.71669346392436 26.668218360080946,111.54421049929552 26.753153153153153,111.28809943064198 26.81326085292091,111.07902917089176 26.941316387286623,110.76542378048758 27.05238496286655,110.49885919898672 27.237934818671363,110.21661434790333 27.53716662838476,109.77756680185152 27.66130209529643,109.59985708064326 27.786744251333488,109.36987979480897 27.844238572928354,109.16080953459144 27.870372355358192,109.00400683985666 27.956613837633668,108.84197738807514 28.02194829390297,108.70608171911289 28.042855319909144,108.59631983265834 28.02978842873317,108.4395171376899 28.032401806906055,108.36634254635675 28.05069545466146,108.31930173792074 28.100349641504014,108.26180741648163 28.129096802262506,108.16772579960961 28.129096802262506,108.10500472127954 31.942015670060997,108.34020876392691 37.25762703213128,108.66426766710053 37.76070234556067,108.67994793676093 41.564474389481454,104.62398489117334 48.06917285557512,102.95664956741444 50.45388050940459,100.73005129791245 51.006610009520756,99.38154812020255 51.79062348475236,95.46148074404452 49.64111987341449,75.91341142834771 50.09192762175055,73.16936426503709 49.80837608154179,70.85391113500884 50.20560957565913,69.66743740915835 52.63997141625327,67.66036291264332 54.312533496669474,66.42162162146585 57.73344562693005,65.87281218888161 58.18294668614072,65.84667840645177 58.41292397213077,65.85190516287544 58.744823009978816,66.17073730939174 59.25965852545879,66.31708649159074 59.3811806140418,66.31708649159074 60.01231146168113,65.62715463346481 60.054125513693485,65.5801138250288 60.376877727663825,65.50171247750563 60.52714697700534,65.49125896450255 60.592481433274635,65.47557869492003 60.93614067332904,65.46512518183906 61.1922517419047,65.79441084143633 61.34905443687313,65.69510246767335 61.40132200188857,65.60624760745864 61.41961564964398,65.51216599058661 61.45489625610728,65.42853788648402 61.498016997245024,65.2874154606308 61.55289794051124,65.15151979174642 61.60255212719802,64.9738100707718 62.2859505397749,64.86404818400572 62.381338845928084,64.87972845366613 62.51592782592073,64.96858331434815 62.64659673845932,65.03130439197726 67.16774111221703,62.50155424530782 68.95921190312126,62.4074726284358 71.4105607023454,60.00316463788131 72.02731796960549,58.94213306798999 76.58896970625015,56.42283643432365 77.39911696398948,55.989015644383954 78.33731975609453,55.48724702023573 80.13009723620202,53.631748462577015 80.59658525388693,53.260648750733736 80.945471250365,53.06203200375295 81.2068090754422,52.90000255189354 81.38451879641681,52.76933363935494 82.19205267598325,52.23097772008533 81.9633820790407,51.83374422557856 82.4037363142179,50.72567184764065 83.14854911568793,50.05664701536513 85.16869050353469,46.50767935073884 92.34894724753082,43.439573284566144 94.8342699640929,42.73396115654616 131.43855243353116,32.3431692315545 152.0319730495368,14.812627925609455 156.0761758926065,8.425531480333218 156.41722175441012,7.887175561063606 158.16295842584793,7.793093943646389 158.52099124620372,4.58909220827778 159.67218436566878,2.6760993286347774 163.14144399364653,0.6637980757739774 164.28610366748467,0 164.87150039557972,0.37632646826694016 168.01800780950921,1.8450450449671603 171.97466248117806,2.6760993286347774 177.77374881964118,4.25980654875839 179.72855575121864,5.033366510986908 181.41418472304449,6.036903759439133Z"/></svg>