<svg xmlns="http://www.w3.org/2000/svg" width="256" height="256"><path d="M132.3181622062547,1.8070705302086016 132.87441354248475,2.0299690980113074 133.50032068103823,2.372277612755855 134.14115406290014,2.7742911004968303 134.52426097606454,3.0648553047219784 134.93921054168743,3.367360503937868 135.16559189937203,3.5225934347843277 135.44322002601274,3.737531339338954 135.6427341456938,3.9405282490214617 135.9158843993242,4.19924980090672 136.28456261050619,4.434089363166364 136.75175402797547,4.6569879306132 137.2298913571291,4.836102851085274 137.68563932129047,4.971434124226716 138.17920043531768,5.035119429321677 138.74689522473608,4.983375119039524 139.2235399296123,4.788338872249225 139.60863700855901,4.557479641494998 139.96736439077083,4.350502400307074 140.36490000579803,4.167407148151649 140.66342487315265,4.103721843056689 141.00672847061045,3.952469243834269 141.45053544007763,3.665885371292472 141.80528249084333,3.3474588459956047 142.17246807763016,2.9136027054995584 142.3321788817242,2.730507453344133 142.8630556041698,2.7902124267557427 146.79164285849708,3.2360095620645963 147.54691077290423,3.3434785143122534 148.57881173105997,3.562396750312985 149.20372378672226,3.645983713350209 149.68683653044954,3.653944376479665 150.0555147415741,3.5424950925486565 150.56250947469064,3.395222824594407 150.94312868056775,3.3593998407491004 151.43668979459403,3.403183487961109 151.95114764933513,3.478809787453696 152.32579635780584,3.4549277982432622 152.84970750001318,3.411144151090565 153.3517268186145,3.435026140300999 154.0587332127984,3.4628884611947837 154.71648300392994,3.4071638192292792 155.31403028008475,3.4071638192292792 156.2115950478716,3.423085145666126 157.01064660949078,3.4151244823587357 157.74750549047036,3.403183487961109 158.3913241210058,3.435026140300999 159.11325675855835,3.4907507822665034 159.521240743943,3.526573766289744 160.069033875598,3.665885371292472 160.6929508483098,3.856941286340107 161.29298583175188,4.016154548929229 161.78953219445077,4.191289137540018 162.16119565424887,4.354482731931114 162.58261325872377,4.5335976522845645 162.99905544862412,4.700771577765897 163.38315744462037,4.780378209119769 163.8637824811206,4.7923192037546425 164.3001263288446,4.752515888403919 164.6717897887604,4.7405748936504235 164.9524031640144,4.796299535615928 165.4185994985925,5.003276776981787 166.40472664375386,5.409270596584048 166.99331817388804,5.580424853748731 167.5804170796261,5.7555594427747 167.97596252893027,5.867008726290528 168.35359648613385,5.97049734709208 167.74958117112706,7.932800808562323 165.81912036223395,12.008660330903162 165.35839698361667,12.85249062232895 164.69766194387182,14.201823023009007 164.24688939416637,15.200886245815061 163.34235904608192,17.167170038612785 163.1672244572932,17.672672147333248 162.46071560449465,25.1397741628817 162.43335082504646,25.609453287578923 162.25523098758418,27.181684255349946 160.6043884710539,27.145861271326705 159.5933842536723,27.161782597585617 158.4977979904216,27.181684255349946 156.10213592990183,27.010529998185262 154.70503955074065,26.966746351032565 154.38362777677025,26.950825024951587 152.84025421254694,27.157802266317447 152.06060676730584,27.43244514422437 151.9909509649231,27.444386138681306 151.5774940236963,27.746891337897196 150.9998484053058,28.316078751534686 150.24109770077953,29.056420422514794 149.86943424098234,29.402709268646134 149.5669290420621,29.697253804376697 149.05694906033224,30.286342876134384 148.67931510312866,30.78388432172539 148.23053271914628,31.357052066808986 145.67217460591732,34.155225156753495 145.22737255355895,34.89158649646543 143.58299807588068,37.52656599213747 139.52405496274923,41.8412454084213 144.71191961598598,43.75180455960939 147.127483334271,44.69912347201467 147.79617903720464,44.981727012873115 148.2066507298172,45.164822264850606 148.72309875028137,45.49120945309899 149.0494859386484,45.75789166829164 149.76345791301216,46.33902007668262 150.29532971834894,46.85646317986003 150.46349872707734,47.04353876363949 151.10831244044465,47.56098186681689 151.6819777272704,48.12618894918621 152.03771986086795,48.763041999364766 152.07006005477206,48.79886498356594 152.94473791612106,49.82181019581967 153.99206265909012,49.44367869693326 154.1318718053605,49.39989504978056 155.31651798725338,48.98992089849495 155.81704468151793,48.830707636143075 156.00412026506015,48.77100266249422 156.53798223617932,48.54014343173999 157.45196587172998,48.197834917410624 158.08036071751144,47.9391133657033 158.4579946747141,47.791841097808366 158.74408100592984,47.70825413477114 159.1600256544439,47.53709987760646 160.22575943089984,47.05946008995772 160.65115736688017,46.896266495744555 161.36711950714493,46.61764328609497 162.1766194390622,46.38280372365739 162.44180902968083,46.299216761035346 162.58808621456595,46.25145278202136 163.26076224900498,46.024573882891175 163.87224068575497,45.85739995740984 164.16031718263446,45.753911336430356 165.24943540703225,45.31209453298279 165.77036130062535,45.19268458574439 166.03654597407584,45.11705828619249 166.80325734167226,44.93396303427431 167.4605095912387,44.89017938688437 168.0615396575126,44.941923697403766 168.942188016268,45.240448564758374 169.51286805430158,45.54295376373702 169.7173575884988,45.65440304731215 170.02832099199318,45.75789166829164 170.83085534367217,46.15194449290316 171.81051445004084,46.72909256984804 172.69564068174725,47.29429965221736 173.13695994398648,47.529139214477 173.24243873051108,47.58088352458122 179.03630886435903,49.03370454600352 179.3975239538581,49.16505548752092 179.5965405320936,49.23272112423992 179.90252852113298,49.34417040781506 180.79263016735462,49.582990301935986 181.14936738390267,49.642695275169665 183.21316930015485,49.52726565997048 183.47288593469403,49.51532466515768 184.09779799035636,49.51532466515768 184.5037918099586,49.455619691746065 184.54160495982353,49.44367869693326 185.69739373799075,49.25262278182631 186.73775290072155,49.09340951947444 188.61995218939234,48.80284531507136 189.13341496124224,48.67149437337602 189.78469671352087,48.46053680056406 190.48075719584338,48.11026762286799 190.84893786558072,47.9391133657033 191.58778691228338,47.61670650878239 192.56844110154324,47.381866946344815 193.83319145623557,47.369925951709945 195.33228383186153,47.32216197311114 196.6368375021409,47.361965288580485 199.57730744558376,47.73611645584286 200.73956426254367,47.915231376137 202.41627893412604,48.22967756992845 202.57698482105192,48.261520222327654 202.54862495865325,48.31724486429316 202.42274697297802,48.635671389530714 202.32124851801817,48.89439294123804 202.263036168884,49.14515382957865 202.22870580913823,49.41581637603947 202.21278448287933,49.463580354875525 201.90381124522662,50.2795483257634 201.87246613409508,50.33925329899707 201.84659397898363,50.394977940962576 201.80380541460352,50.44274191997656 201.75803160160913,50.49448623008078 201.72320370041777,50.546230540362934 201.70379958403973,50.60195518232844 201.69434629657349,50.65767982429394 201.68986842356315,50.709424134576096 201.68986842356315,50.90048004968304 201.68986842356315,50.96018502309465 201.69534137946374,51.01988999674351 201.71723320312998,51.13133928067451 201.71922336885305,51.17910325909538 201.72021845174422,51.230847569792715 201.72021845174422,51.286572211520976 201.71922336885305,51.33831652204037 201.71424795445643,51.394041163768634 201.71176024716917,51.441805142426745 201.70131187687107,51.56121508930927 201.6993217110294,51.62092006307675 201.69434629657349,51.680625036547674 201.68588809199844,51.73236934665189 201.6838979262754,51.78013332566587 201.68290284332488,51.83585796763138 201.67543972164103,51.89158260935964 201.66499135128362,51.93536625674958 201.65752822959976,52.00303189311271 201.65653314670857,52.05079587194876 201.6381241132217,52.15030416106696 201.6381241132217,52.202048471349116 201.62966590864664,52.257773113136686 201.61722737250687,52.30951742377471 201.6057839193176,52.373202728513796 201.59832079769396,52.44086836529211 201.5928478417313,52.51649466514056 201.59533554890086,52.58416030156301 201.61075933383282,52.643865274974615 201.6381241132217,52.69560958549402 201.67543972164103,52.759294890588976 201.65653314670857,52.84686218489437 201.64110936189525,52.92248848480214 201.62319786997259,52.99811478429472 201.60329621203033,53.0777214156486 201.58140438848363,53.16130837832995 201.51771908338867,53.380226614508615 201.50130021568418,53.44789225104968 201.48537888948456,53.51555788765006 201.46995510461102,53.58720385587448 201.45303869552117,53.66681048705041 201.43562474492546,53.750397449909705 201.41671816993372,53.833984412946926 201.39482634638702,53.91359104412287 201.37193943983053,53.985237012347284 201.35203778200687,54.06086331225505 201.33512137285678,54.12852894861818 201.3187025051523,54.20017491702053 201.30377626184293,54.271820885067015 201.27044098498925,54.42307348470462 201.25402211728476,54.498699784375134 201.23710570813466,54.570345752421616 201.2181991331429,54.638011389022 201.19531222670503,54.701696694116954 201.17043515442546,54.76936233065802 201.14307037485864,54.83304763557505 201.11620313685606,54.89673294084794 201.08784327445736,54.964398577448314 201.0564981633258,55.036044545494796 201.02764075948153,55.10769051354128 201.00226614575732,55.179336481765695 200.9848521951607,55.25098244981218 200.95549724993015,55.39029405481491 200.9400734650575,55.45795969117804 200.92116689018437,55.52562532795635 200.89827998362787,55.59329096467535 200.87091520412037,55.66493693272183 200.8415602588305,55.73658290076831 200.8127028549862,55.80822886922998 200.78334790969635,55.87589450559311 200.75399296440648,55.94754047363959 200.72812080923575,56.01918644186401 200.70523390273857,56.09083241026636 200.68533224497423,56.16247837831284 200.64652401215884,56.32169164090196 200.62562727144402,56.4012982720779 200.60274036500613,56.48090490343177 200.58632149730255,56.56051153478565 200.57338541971626,56.63613783433754 200.56194196640837,56.71176413442325 200.54850834743672,56.78341010246972 200.53606981129693,56.85505607069414 200.52263619220668,56.92670203874062 200.5111927390174,56.998348006787104 200.50173945149186,57.0660136435061 200.4942763298673,57.125718616977025 200.4932812469168,57.18542359056657 200.498256661432,57.24512856403749 200.51318290474043,57.300853206003 200.5370648941288,57.36055817923667 200.56940508815154,57.416282821202174 200.60572561362036,57.46802713148433 200.64552892926764,57.52773210489594 200.68533224497423,57.58345674703938 200.71866752182882,57.64714205177847 200.7415544282667,57.706847025605256 200.75498804729767,57.76257166733352 200.75498804729767,57.85411929332226 200.7261306435127,57.925765261368745 200.66344042130893,57.97352924020479 200.5808485413399,58.01731288735749 200.49626649559033,58.05711620306408 200.4106893669487,58.08895885575984 200.32959011143598,58.12478183960515 200.24301789978546,58.16856548699509 200.15296289813256,58.22429012872335 200.08131692996838,58.303896760314466 200.04151361432017,58.391464054441926 200.0280799952892,58.43922803345591 200.0166365420406,58.48699201223265 200.0071832545744,58.534755990712824 199.99872504999934,58.586500301350846 199.99225701126596,58.638244611692315 199.98180864084924,58.74969389538607 199.9738479777198,58.81735953198645 199.96339960742168,58.885025168705454 199.94946844688582,58.95667113675193 199.93304957918133,59.024336773174376 199.9141430043082,59.08802207826933 199.87533477149276,59.2114123567759 199.85792082089708,59.27111733042476 199.84000932891513,59.33082230365844 199.82110275392336,59.390527277485226 199.80020601320854,59.45819291384836 199.77532894092897,59.52983888189484 199.7345305423905,59.669150486897564 199.71363380167568,59.72885546013124 199.68776164650495,59.78458010209675 199.65840670121509,59.840304744240186 199.62805667309334,59.892049054344405 199.59820418629857,59.939813033358384 199.5708394069097,59.99553767532389 199.5424795443933,60.05524264855757 199.51561230638978,60.11892795347459 199.48924260971415,60.18659359043084 199.46635570327626,60.25027889528855 199.4479466697301,60.31794453171099 199.43103026058,60.37764950547847 199.41859172444023,60.437354478949395 199.40814335414305,60.4930791209149 199.40167531529013,60.54482343101911 199.39869006661658,60.600548072984616 199.39968514956706,60.66423337807958 199.39570481800143,60.72393835131325 199.38525644758562,60.7916039882695 199.3693351213267,60.85528929318652 199.3474432977207,60.91897459828149 199.32356130833233,60.97867957151516 199.26932929076293,61.0901288556241 199.24196451131473,61.14187316572832 199.21410219036164,61.19361747601047 199.18773249368598,61.24934211797598 199.16385050435693,61.30506675994148 199.1429537636421,61.356811070223635 199.12404718865034,61.40855538050579 199.10762832094585,61.46428002264923 199.093199619083,61.52000466425886 199.06185450795147,61.631453948367806 199.04394301596952,61.68717859033331 199.02503644097774,61.74290323206157 199.00662740755018,61.79862787384914 198.9877208325584,61.858332847498 198.9708044234083,61.9140574894635 198.95836588726854,61.97774279455846 198.94692243401994,62.04142809941617 198.93647406378116,62.101133072887094 198.9220453617404,62.16481837798206 198.90711911843198,62.22452335121573 198.87577400730044,62.34393329827619 198.85736497387288,62.403638271687804 198.81457640949273,62.531008881877725 198.7717878451719,62.66235982357306 198.74890093873404,62.72604512866802 198.72551649073196,62.7857501019017 198.70362466718527,62.845455075550554 198.68521563363907,62.90117971727881 198.66630905876593,62.956904359422246 198.64839756666626,63.01660933289317 198.62650574305934,63.07631430612685 198.60262375367097,63.136019279716386 198.58272209590663,63.199704584633416 198.56928847681638,63.26338988990631 198.55684994067659,63.32707519482334 198.54739665321037,63.39076049974036 198.53794336580344,63.450465473389215 198.53048024406027,63.510170446622894 198.52351466382294,63.57385575171785 198.51505645924695,63.641521388496166 198.50013021593853,63.7091870248593 198.48172118239142,63.77685266181554 198.45535148583534,63.84849862986202 198.42301129181354,63.92014459808644 198.38768584923497,63.98781023444957 198.34987269931074,64.05945620285192 198.3125570908914,64.12314150776895 198.2772316483731,64.18682681268598 198.24489145429104,64.25051211795886 198.21255126032761,64.31021709142979 198.17772335925488,64.37390239652476 198.1433929994498,64.43360736975842 198.11204788831824,64.49331234317003 198.08617573320683,64.56097797977041 198.06527899249198,64.62864361648941 198.0473675003914,64.69232892140643 198.02995354979572,64.75601422667933 198.01005189197207,64.81571920015026 197.98816006836608,64.87940450506727 197.96825841054243,64.93910947847888 197.9493518356693,64.99881445212775 197.92845509495353,65.0624997572227 197.90656327128914,65.12618506208041 197.8876566963567,65.18987036699744 197.87422307738504,65.25753600359782 197.86377470696831,65.32918197182224 197.85879929251243,65.39286727673927 197.85332633667022,65.4605329136955 197.8493460051055,65.52421821855322 197.84486813209517,65.58790352347025 197.83790255179758,65.72323479678963 197.82745418144017,65.87050706456594 197.8209861427068,65.94613336447371 197.81153285524059,66.01777933252019 197.78566070001054,66.14913027433415 197.7772024954355,66.21281557925117 197.77421724682034,66.28048121585155 197.77620741254339,66.34814685257055 197.77521232971245,66.41979282061703 197.76376887640453,66.48745845703948 197.74486230147207,66.55512409399572 197.720980312143,66.62278973035885 197.69461061546738,66.68249470377046 197.6667482945736,66.74618000904336 197.63540318344207,66.80588498251427 197.59759003357806,66.86558995574795 197.55380638636512,66.92131459771346 197.49957436879663,66.97703923967896 197.4393718539385,67.03276388164447 197.36921851016947,67.09246885487813 197.2950848346578,67.15217382870493 197.2179659105921,67.2078984704332 197.14283715230695,67.26760344390411 197.0706936428149,67.32332808586962 197.0020329232047,67.37905272759787 196.93436728660433,67.43079703811728 196.8652090256681,67.47856101671607 196.79953355484918,67.53030532723547 196.7358482498135,67.58602996920098 196.67216294483717,67.64573494243466 196.60449730817749,67.70942024752961 196.5388218374188,67.77708588407067 196.40946106150489,67.9044564942606 196.35075117092515,67.96416146773151 196.29751423624785,68.02386644114313 196.24875517463923,68.08755174606016 196.20397644453604,68.14327638802565 196.11392144282476,68.27064699821558 196.06914271272248,68.33831263493458 196.027349231291,68.40995860298106 195.9890385399814,68.4776242394035 195.94824014144294,68.54130954449846 195.90097370417112,68.60101451808801 195.85022447672083,68.65673915987557 195.7477309389291,68.76420811212323 195.6964841699739,68.81595242264264 195.64324723535404,68.86769673292478 195.59150292495514,68.9234213748903 195.5402561561167,68.9791460168558 195.491994635836,69.03885099008947 195.4462208228416,69.09855596367902 195.40144209273842,69.16224126859603 195.35865352841668,69.22592657386893 195.2760616484495,69.34931685243481 195.23426816701985,69.41300215735184 195.19247468570885,69.4766874624468 195.1496861213287,69.54833343067122 195.1113754299598,69.6199793987177 195.07804015310427,69.68764503508083 195.02380813553486,69.8189959769541 194.99743843897784,69.87870095018778 194.9715662838071,69.9304452608258 194.94221133851724,69.98218957116727 194.9118613102769,70.03393388127148 194.84320059084465,70.13742250225097 194.80887023103955,70.19314714397923 194.7775251200266,70.2488717857668 194.74817017473674,70.30857675941566 194.72428818528815,70.37226206451061 194.68647503548348,70.49167201133383 194.67105125061084,70.5473966531214 194.6576176316985,70.60312129508691 194.65015450989603,70.65486560536905 194.64468155405382,70.71059024733457 194.6407012224891,70.76631488912213 194.63672089092438,70.81805919976016 194.63124793502286,70.87378384136979 194.62527743761646,70.9295084833353 194.6178143159326,70.98125279361744 194.6008979067825,71.09270207754845 194.58547412196918,71.21211202460893 194.57801100034462,71.27579732970388 194.56855771281909,71.34346296606701 194.55611917667932,71.41510893446936 194.54169047475716,71.48675490251584 194.52377898277427,71.56636153392903 194.49790682754517,71.64994849655108 194.46108876057144,71.7295551281422 194.41730511335942,71.80916175931813 194.36605834452286,71.88478805898865 194.31083124400294,71.96041435854055 194.19540162862583,72.10370629498938 194.13967698671965,72.17933259489715 194.04365148777896,72.31864419966263 193.9978776747855,72.38232950457966 193.95608419335588,72.43805414636722 193.91777350198606,72.49775912001608 193.87996035212115,72.55348376174435 193.84662507526653,72.60920840388778 193.81727012997666,72.6689133773587 193.7933881405883,72.73259868245366 193.77249139987347,72.79628398737069 193.75258974210914,72.85598896060436 193.73517579145414,72.91569393437184 193.72024954814574,72.97141857598147 193.70980117772902,73.0231628866788 193.70383068044123,73.07888752840707 193.70034789026187,73.13461217019464 193.6983577245388,73.19033681216014 193.68492410544945,73.3097467592206 193.6764659008744,73.36945173245428 193.66303228184344,73.43313703754924 193.64611587269337,73.50080267432756 193.6277068392065,73.56846831069069 193.6097953471643,73.63613394746899 193.59287893801513,73.70777991569341 193.57546498753806,73.78340621536394 193.55954366116052,73.85903251491582 193.5451149592977,73.93465881482359 193.52620838430593,74.01028511467206 193.50332147780875,74.08591141422396 193.4739665325189,74.15755738227044 193.44262142150595,74.22522301922668 193.4127689347705,74.28492799246035 193.38142382363895,74.34463296587197 193.3470934639525,74.40433793952081 193.31475326992975,74.47200357606188 193.28639340753014,74.53170854953281 193.2684819155491,74.59539385462777 193.2615163352515,74.65509882786144 193.26649174970743,74.72276446481769 193.28539832463989,74.78246943805136 193.31574835282095,74.8461547429684 193.35306396124025,74.90187938511183 193.39286727694684,74.95362369521605 193.43018288536618,74.99740734272461 193.4670009523399,75.04119098969937 193.50133131202637,75.07701397390055 193.56800186573557,75.15662060531373 193.62024371758193,75.23224690480632 193.63367733655357,75.30787320453615 193.6117855130069,75.39544049919742 193.5953666453024,75.4432044776776 193.57347482163706,75.49892911982104 193.54710512502075,75.55067342992525 193.51775017973088,75.60241774056328 193.48540998576746,75.65416205090474 193.44908946023932,75.70988669287024 193.4063008959185,75.7656113345985 193.30529998252283,75.88900161316438 193.2465900919431,75.9646279128349 193.18937282570013,76.04423454424808 193.1306629351204,76.12384117542403 193.07742600044216,76.19946747527248 193.30828523113706,76.2591724487434 193.48789769305472,76.35072007473215 193.8486152411082,76.37062173243717 194.04812936084952,76.3865430587554 194.22127378385588,76.40644471669765 194.67702174801724,76.41838571109528 195.46164460771425,76.45022836385036 196.20248382013995,76.56565797904953 197.05079198487263,76.74875323120496 197.95880512307622,76.93582881445062 198.6016286707798,77.11494373492269 199.1648455871888,77.35376362904363 199.83702408018226,77.680150817292 200.10221367068226,77.79956076435248 200.61318873530422,77.49705556513658 200.77190445650706,77.3816259499374 200.73409130658285,77.49705556513658 200.64751909511025,77.75577711696253 200.47536975487552,78.26923988887177 200.2668998892322,78.77076166590888 200.05295706756877,79.188696480146 199.83702408018226,79.58274930529133 199.496705731398,80.15989738211759 199.1046430722723,80.97188502132211 198.76233455782432,81.8395973023142 198.51406137635578,82.28937476906916 198.48570151395708,82.36500106897692 198.45236623710156,82.44062736864745 198.41903096024788,82.52023400006064 198.38370551767025,82.60780129418809 198.34589236774602,82.69934892035478 198.31056692510904,82.79885720947297 198.2772316483731,82.88642450377837 198.24489145429104,82.96603113531017 198.210063553159,83.04165743486207 198.17374302757153,83.11728373476984 198.13592987776593,83.19689036594578 198.0986142693466,83.28445766025118 198.0632888266503,83.37600528623992 198.02746584262707,83.47153324408995 197.99612073149552,83.55113987526589 197.96378053753213,83.6227858434903 197.9314403435687,83.69443181153679 197.90059277394207,83.77005811144456 197.86825257997864,83.84966474262049 197.8334246788466,83.93325170542047 197.80108448482386,84.02081899996311 197.76874429086044,84.10042563096111 197.73640409689702,84.17207159918553 197.70306882004243,84.23973723596384 197.66973354318785,84.30342254105881 197.6344081006102,84.37108817742194 197.56325967389066,84.49845878743392 197.50902765632125,84.5900064136006 197.48066779392255,84.6337900607533 197.49111616422067,84.69747536567033 197.69162536685315,84.93629525979125 197.72943851671806,84.99201990151951 197.70953685883512,85.05570520679241 197.70854177600324,85.11939051170943 197.70306882004243,85.3741317317334 197.69063028390357,85.48956134711051 197.66973354318785,85.62489262042989 197.65829008999856,85.77614521988956 197.65530484138432,85.92739781928991 197.64386138801711,86.24980467621081 197.6344081006102,86.41299827024605 197.61749169145915,86.72346413223552 197.61251627700327,86.8985987212615 197.6105261111625,87.0538316523452 197.6060482381522,87.33245486175754 197.59062445333888,87.48768779284124 197.56972771262403,87.63496006073618 197.5339047286008,87.83397663897259 197.49260878861767,88.02901288558495 197.44633743411748,88.24395078990233 197.4120070743717,88.3673410684089 197.36523817848612,88.55839698351585 197.33687831608745,88.69372825665728 197.31498649254075,88.83702019328406 197.32543486283885,88.95244980872047 197.34931685222722,89.00021378731928 197.44036693677037,89.08778108186192 197.56972771262403,89.17534837598939 197.83690746896573,89.346502633332 197.9921403999308,89.41814860155641 198.2309602938738,89.51765689067462 198.40858258994885,89.58134219559165 198.66929430738017,89.66890949007497 198.92801585914773,89.76443744774707 199.1036479893811,89.84802441078429 199.29122111436894,89.9475326999025 199.37878840885224,90.00723767313617 199.5365090471046,90.13062795182067 199.67731327620686,90.25003789852526 199.82110275392336,90.34954618764347 200.02459720517007,90.49681845559772 200.1445046935575,90.60826773952873 200.2614269332714,90.72767768652989 200.3922803334609,90.83514663883685 200.5097001146213,90.9426155910845 200.60174528211493,91.05008454315423 200.68632732780702,91.1655141583534 200.75399296440648,91.30880609480224 200.79578644583614,91.44811769962703 200.82912172269073,91.58344897294641 200.87191028707088,91.71479991458244 200.9137037685005,91.83022953001887 200.95350708408847,91.93769848226653 201.01520222334176,92.08895108148894 201.12764659004532,92.36757429090129 201.17242532014853,92.51882689065751 201.21222863585513,92.67405982138534 201.25402211728476,92.81735175801211 201.3062639690125,92.94472236784615 201.39482634638702,93.14771927776592 201.46050181720503,93.2870308825314 201.565980603611,93.48206712914376 201.65155773231197,93.60147707620422 201.7441004411326,93.73282801766231 201.84261364741891,93.88010028561656 201.9540629312313,94.0194118906193 202.07944337546093,94.14280216894792 202.32572639102847,94.38162206283161 202.47051095169545,94.53287466229128 202.5511126659405,94.6045206305157 202.71281363575758,94.73189124052767 202.85660311347408,94.85528151885632 202.9944220939621,94.97867179754081 203.13124599150055,95.11002273905822 203.3427011058758,95.30505898596714 203.4869881250379,95.42446893267174 203.60988086209886,95.53591821660275 203.780040036491,95.69115114768645 203.88551882301468,95.7826987736752 204.02085009615703,95.90608905200384 204.1004567274516,95.99763667817051 204.27559131635894,96.20063358803095 204.35917827921824,96.31606320346738 204.43530212033434,96.43945348161807 204.55023419432518,96.61856840209015 204.61292441641032,96.73001768602116 204.66914659982143,96.84942763308163 204.71691057853886,96.98077857453971 204.77761063496027,97.16785415814125 204.8452762715004,97.38677239431992 204.87861154835593,97.49822167789506 204.90050337196195,97.62559228808497 204.93284356592534,97.80470720837911 204.98011000331581,98.07536975483994 205.0248887333597,98.26244533844147 205.06469204900696,98.38981594863138 205.100017491643,98.50922589533597 205.13832818301375,98.6763998212325 205.15325442632218,98.79182943643167 205.174151167037,98.99084601466808 205.20549627822786,99.24956756649402 205.20649136100042,99.36897751337655 205.19902823931653,99.49634812338854 205.1970380735935,99.69536470162494 205.1950479077518,99.94214525887533 205.191565117692,100.13320117398227 205.19057003474148,100.27251277874775 205.1801216644434,100.46356869367676 205.16569296246195,100.65064427727829 205.14877655331185,100.85762151870347 205.13235768560733,101.10838240722202 205.1114609448925,101.33526130653014 205.08956912128653,101.53029755290527 205.08210599960265,101.66164849477853 205.06021417605595,101.85270440988548 205.03832235244997,101.9800750200754 205.01046003149685,102.19103259270943 204.99851903674337,102.3223835345827 204.98956329078203,102.50945911782836 204.97165179868145,102.71643635919422 204.95473538953135,102.93137426386747 204.95374030664019,103.07466620037562 204.94677472640188,103.2935844361391 204.94229685339158,103.5761879772348 204.9413017705004,103.8309291974367 204.93931160477734,104.08965074908471 204.94329193634206,104.29264765900446 204.94975997507544,104.39613627956876 204.9696616328991,104.59117252635907 204.99752395391056,104.79018910459547 205.02289856763664,104.90561871979465 205.04976580563923,105.07677297713727 205.0761355023158,105.2718092241055 205.09354945296894,105.39121917075079 205.12091423235876,105.56237342833064 205.13733310006324,105.71362602773101 205.1418109731329,105.83701630605964 205.15424950927266,105.96438691607162 205.17813149860172,106.07981653144874 205.21047169256605,106.23504946253244 205.24828484243005,106.41018405155842 205.3005266942764,106.66094493989904 205.34082755136927,106.83209919724165 205.37316774527338,107.01121411771372 205.38908907153137,107.14256505940907 205.41396614381185,107.31371931657375 205.4443161719929,107.42914893195086 205.4662079956582,107.52865722106907 205.47267603439158,107.6202048470578 205.48163178041224,107.70777214154114 205.49556294094808,107.81126076216475 205.52690805196102,107.91474938290699 205.56969661634116,108.02619866666006 205.6373622528822,108.19735292382475 205.7209492157415,108.36850718116737 205.8055312615513,108.48393679678173 205.85876819617022,108.53568110706388 205.96474452408017,108.62722873305263 206.08266184668616,108.72673702217082 206.12147007950156,108.77848133227505 206.14535206888993,108.83818630604253 206.19112588188432,108.94565525834949 206.22595378301637,109.04914387873586 206.27919071775392,109.15661283098352 206.35083668585972,109.25612112010172 206.49910403676446,109.45911803002147 206.5732377120982,109.57056731371524 206.6389131829162,109.69793792390516 206.73095835035056,109.88899383883417 206.83743221964772,110.12383340144969 206.92300934828938,110.33877130600432 206.98022661453234,110.47410257914575 207.03147338342822,110.60545352060385 207.07326686485786,110.73282413061584 207.1483956231421,110.94378170384297 207.21307601106892,111.09105397155999 207.27427360893594,111.2184245817499 207.34741220137852,111.3378345284545 207.43945736887216,111.46520513846649 207.52801974612805,111.60849707491532 207.6404641128316,111.79955299002226 207.7116125395511,111.91100227395327 207.79072162940008,112.02643188915245 207.9295356928386,112.21748780443733 208.03600956213577,112.3368977514978 208.1623850892566,112.43640604061599 208.238508930432,112.4841700192148 208.40120498319956,112.57969797688689 208.56290595301664,112.66328493974619 208.73406021024064,112.74289157092213 208.9042193846337,112.79861621288762 209.1505024002003,112.8782228442415 209.37190834354763,112.9578294752395 209.61470856893672,113.04539676972283 209.68386682987386,113.08520008542942 209.82865139054087,113.16878704846665 209.98338678011964,113.25237401108869 210.08836802519866,113.30809865323214 210.24608866345102,113.37974462127862 210.356542864312,113.43546926306618 210.46301673366938,113.5031348998445 210.58192913922494,113.57080053620763 210.71576778814824,113.63448584130258 210.8346801935861,113.69419081495144 210.92871552674256,113.7578761200464 211.1152935688392,113.87330573542351 211.21728956524467,113.94097137178665 211.29391094780638,114.00863700856496 211.38346840801276,114.08028297661144 211.5003906477257,114.14794861315251 211.62129321900525,114.21163391842539 211.7402056245015,114.27929955484784 211.86956640035515,114.35890618602377 212.01882883403246,114.43453248593154 212.2377470700916,114.53802110649585 212.39049229394826,114.61364740622568 212.6094105300083,114.71713602720517 212.74076147158502,114.76888033748733 212.87111733038918,114.80470332151057 213.05819291393138,114.86042796347607 213.23780537573043,114.92411326857103 213.42537850071824,114.99575923661752 213.56220239825578,115.03954288377021 213.6990262957933,115.07536586779345 213.82938215459745,115.11516918367798 213.96172817912466,115.15895283083067 214.11099061280197,115.20273647798338 214.24433172016103,115.24253979345272 214.37468757890588,115.27040211452444 214.43041222087047,115.29428410397212 214.7483412045438,115.3539890772058 214.89760363822202,115.35796940906708 215.15732027282053,115.3818513982775 215.4966435387136,115.40573338784381 215.64789613817328,115.40573338784381 215.87228733019413,115.39379239309032 216.0111013934547,115.3818513982775 216.23101471240594,115.35000874593761 216.37729189740875,115.31816609318255 216.6768118477148,115.25846111994888 216.80517754067728,115.24652012495814 216.9300604435206,115.24652012495814 217.11912619278587,115.23059879887715 217.25346238315475,115.21467747279618 217.58631761019583,115.17885448853569 218.02912949683113,115.16691349396014 218.10724350378894,115.15099216770122 218.26496414204126,115.13109050975895 218.49333566556754,115.10322818886517 218.61324315395498,115.10322818886517 218.93067459618274,115.09924785735976 219.1097895165955,115.09128719405237 219.33865858162667,115.07138553628803 219.50533496589966,115.05148387858301 219.6869375935413,115.03954288377021 219.82276640812742,115.03954288377021 220.01979282070008,115.0276018889574 220.17552329305144,115.007700231371 220.3441898431068,114.98381824180471 220.38896857320998,114.9798379102993 220.4820088235355,114.99575923661752 220.6093794336068,115.01168056269849 220.77506073498859,115.01964122582795 220.99945192695105,115.03556255208686 221.16662585266872,115.03556255208686 221.26563660034134,115.02362155768924 221.38753425457043,115.04352321521631 221.57560492094453,115.05148387858301 221.76118788026858,115.07138553628803 221.92836180586855,115.09526752573572 222.28907935392203,115.14701183583993 222.42789341730216,115.15099216770122 222.58959438711923,115.15099216770122 222.79109867252336,115.14303150433452 222.8891143373048,115.13109050975895 223.10206207601775,115.09526752573572 223.31401473183857,115.05148387858301 223.5244747633245,115.01168056269849 223.65831341218848,114.9798379102993 224.0046022583198,114.88430995268651 224.1518745262157,114.83256564240435 224.2842205507429,114.77684100043885 224.47826171452246,114.68927370613345 224.67329796119412,114.6096670748982 225.0011777738386,114.47831613308425 225.28278623204312,114.36288651788506 225.38080189694315,114.3111422075436 225.53752745224503,114.21561424975287 225.6614152721972,114.15192894465793 225.9256097797467,114.01659767151648 226.12711406532966,113.92505004552773 226.39926923600865,113.80564009882313 226.55251200119136,113.74593512523359 226.84805161993174,113.63050551003441 227.0430878666034,113.54293821531384 227.30728237421224,113.43546926306618 227.45505218349345,113.38770528440807 227.58690066657508,113.34790196876078 227.6689950051569,113.32401997955036 227.73914834898522,113.26829533758485 227.82572056051805,113.18072804304221 227.97150020407622,113.01753444900699 228.1670339922528,112.80657687601709 228.26504965697492,112.68716692895661 228.34963170266607,112.57173731375744 228.54466794933776,112.32097642517957 228.64566886279272,112.22146813606138 228.79891162803477,112.05429421022417 228.91483878485747,111.95080558942261 229.30441373675524,111.6920840377746 229.53975084051976,111.54481176982036 229.6546829145106,111.48908712803279 229.79349697777118,111.44132314943398 229.88653722815602,111.39355917042 230.07858822609484,111.27812955522083 230.32138845154324,111.12687695576116 230.58259771047852,110.97562435600493 230.77962412293255,110.87611606688674 230.9811284084553,110.78854877275927 231.28960410466428,110.64923716775654 231.49956659476206,110.56166987345115 231.80505704229563,110.43031893193374 232.1025868267581,110.3109089849326 232.30409111228272,110.23528268502483 232.50957572925248,110.159656385295 232.85486949255196,110.03626610678842 233.01756554526023,109.9845217966842 233.19070996832681,109.93675781767023 233.49022991857169,109.84919052354276 233.57481196426377,109.8292888656005 233.63451693779305,109.78152488658651 233.73949818287207,109.70987891854003 233.88677045064838,109.62231162423464 234.0693681611803,109.52678366674049 234.34998153649363,109.387472061975 234.51417021359796,109.31184576206724 234.6713933104047,109.24816045697227 234.84553281636158,109.18049482060914 234.94603618843027,109.14069150472461 235.07340679844225,109.13671117339713 235.3520300079732,109.12477017864363 235.53860805006985,109.11282918383083 235.86947311138786,109.08098653149094 236.03216916409613,109.06506520499478 236.1988455483098,109.03322255265489 236.34711289915523,108.99341923677036 236.5466270187779,108.92973393203127 236.75012147002465,108.87002895844172 236.8625658367282,108.81828464815958 236.9526208384395,108.76256000619406 237.09939556482954,108.66305171707587 237.1516374166759,108.60732707511036 237.22378092622728,108.54762210187668 237.29691951884777,108.52374011225108 237.49195576540083,108.46403513883946 237.58698618156802,108.47995646492045 237.6934600509245,108.47597613341503 237.82779624117475,108.47995646492045 237.98452179659523,108.49587779117935 238.14522768346183,108.53170077555846 238.40295415233635,108.59538608029756 238.6512273336872,108.65111072226306 238.81790371796018,108.67101238020533 238.97562435621253,108.67499271165143 239.23235574213749,108.67499271165143 239.47764367481386,108.67897304315684 239.63287660577893,108.68295337501813 239.85229238328458,108.69489436941576 240.01896876755754,108.71877635904137 240.19111810773205,108.75061901138126 240.3364002098446,108.76256000619406 240.46874623449045,108.74265834825181 240.57522010378761,108.70285503272315 240.67423085140092,108.65111072226306 240.827473616642,108.57946475403864 240.94539093930732,108.5436417700154 241.06131809613004,108.52772044393443 241.18470837463659,108.53568110706388 241.32451752078836,108.55558276500615 241.60513089610168,108.5874254171681 241.85738440907562,108.62324840136928 242.02654850057658,108.65111072226306 242.25292985826118,108.69489436941576 242.40517754061202,108.72673702217082 242.578321963737,108.75857967451071 242.82808776936437,108.79838299039524 242.97088216424993,108.80236332184136 243.0927798184781,108.7864419954045 243.21617009698375,108.75459934324255 243.36642761355316,108.73867801692433 243.446531786234,108.73867801692433 243.59280897123776,108.76256000619406 243.71371154257568,108.79838299039524 243.82018541187284,108.83818630604253 243.9609896409751,108.89391094765216 244.1271684838025,108.96157658443047 244.25951450832972,109.01730122639597 244.38041707960832,109.0849668627591 244.4819155345682,109.16059316266687 244.5694828289329,109.24816045697227 244.64759683595,109.33970808296101 244.73217888164115,109.4312557091277 244.8635298233365,109.55862631913968 244.96701844401943,109.63823295031561 245.0909062639716,109.70987891854003 245.2202670398855,109.76958389195164 245.33718927947982,109.8292888656005 245.5501370181937,109.94471848079968 245.71084290511868,110.02432511233148 245.8591102559048,110.10393174350742 246.00737760675023,110.19149903805007 246.035239927644,110.21140069581439 246.06558995588438,110.28702699530697 246.10937360303706,110.40643694236745 246.16559578650654,110.5537092103217 246.21485238956168,110.6970011465926 246.28898606495474,110.9079587196418 246.3277942976515,110.97164402473676 246.38401648106262,111.02736866664296 246.4516821177223,111.07115231385497 246.54123957781005,111.09105397155999 246.64771344716652,111.08309330825259 246.7447340291161,111.07115231385497 246.82931607480725,111.07115231385497 246.90643499893318,111.0950343030654 246.9830563814958,111.13483761894993 247.1581909703429,111.2383262393363 247.29999028233635,111.34579519158396 247.16664917491704,111.55675276463316 247.10196878705042,111.66024138519747 247.02236215575587,111.76771033768237 246.94225798295642,111.88313995305948 246.8556857714245,111.99458923675324 246.55168794816748,112.35679940902487 246.42680504544276,112.4841700192148 246.28998114790522,112.60756029778068 246.09195965244137,112.79463588120427 245.9655841253206,112.92598682307755 245.8372184323581,113.04539676972283 245.67850271115526,113.20859036411393 245.60536411871269,113.32401997955036 245.5491419353016,113.44741025787899 245.5043632051984,113.57876119951501 245.48645171315806,113.87728606686962 245.46356480671926,114.01659767151648 245.4491361047378,114.16386993964866 245.4426680660035,114.30318154441414 245.42376149101267,114.86042796347607 245.41132295487287,115.05148387858301 245.39788933590123,115.24652012495814 245.37500242934473,115.45349736632399 245.35311060573875,115.61669096053716 245.31878024605226,115.68435659731547 245.26952364293876,115.75998289680805 245.20981866940852,115.86347151778754 245.15160632027437,115.98686179611617 245.10483742438882,116.11025207485999 245.02523079315358,116.28538666347077 244.94910695191885,116.48440324170718 244.9292052941545,116.56002954161495 244.8670126134547,116.78690844074514 244.81676092745093,116.92622004533268 244.75954366120797,117.07747264497029 244.70083377062824,117.24464657045162 244.6197345149376,117.47550580144309 244.51176802124434,117.7780110002438 244.47146716415148,117.94518492614031 244.4421122188616,118.0844965309058 244.40778185911583,118.21982780386931 244.35255475871455,118.43078537674057 244.32319981342374,118.5740773131894 244.27394321031116,118.7452315703541 244.231154645931,118.8447398594723 244.19781936907643,118.94424814859049 244.18538083293663,119.02783511144979 244.1833906672136,119.11540240593311 243.9560142265192,119.58508153080827 243.9296445299622,119.67662915679702 243.89033875570118,119.75225545634892 243.86496414197697,119.76817678260782 243.85799856173776,119.81992109288998 243.73361320034002,120.06670164996243 243.65947952494696,120.20601325478722 243.5793753522068,120.33736419624532 243.44454162051093,120.52045944822281 243.34354070699666,120.65977105322554 243.2027364778944,120.87470895772086 243.0917847355869,121.04586321488553 243.0201387673625,121.15333216713319 242.98978873918145,121.2130371405448 242.9206304782443,121.5075816764533 242.89475832307357,121.63097195478193 242.84152138839534,121.74242123871294 242.705692573749,121.93745748544393 242.59125804132236,122.0926904163497 242.44697102204165,122.28374633145664 242.3186053290792,122.46286125210665 242.22805278598162,122.59421219362406 242.13202728698255,122.73750412989496 242.06635181616454,122.85691407695542 242.01809029600153,122.95642236607362 241.98674518487,123.05195032350846 241.99520338944504,123.18330126538174 242.0141099644368,123.28678988576812 242.03898703671635,123.52162944802775 242.04545507544972,123.56939342686381 242.02157308606135,123.63705906358281 241.95540007379776,123.72860668957155 241.75240316399663,123.9714069151979 241.6548850406608,124.08683653039708 241.5717956192471,124.17838415656375 241.50711523132026,124.26197111936374 241.46333158416755,124.34953841372844 241.45586846242438,124.44904670284664 241.48920373927896,124.55253532358888 241.53497755227335,124.65204361270709 241.58522923827803,124.7435912385179 241.6270227197077,124.94658814843764 241.64592929469944,125.07395875862757 241.68623015179233,125.27297533686396 241.70712689250715,125.38044428893369 241.69767360498162,125.47597224636854 241.67478669854373,125.52373622520459 241.5872194041188,125.61926418281737 241.47577012030735,125.7108118086282 241.36730608516848,125.81828076105378 241.20311740806414,125.9655530288301 241.10510174328272,126.04913999186732 241.02051969753225,126.14466794948011 240.94887372942645,126.26009756491653 240.8851884243315,126.45115347996416 240.84040969428762,126.57852408979821 240.8035916273148,126.67803237891641 240.73990632221893,126.77754066803462 240.64935377912136,126.87704895715282 240.55133811439924,126.97655724627101 240.47272656599495,127.08004586707257 240.44784949371632,127.13577050903808 240.4364060404084,127.22333780334347 240.45630769835068,127.25518045609854 240.49063805797783,127.2870231082605 240.71602433288987,127.37459040274382 240.86429168361573,127.42633471326323 241.0011155811542,127.49798068148765 241.06032301323884,127.53778399713492 241.2125706955304,127.68903659659459 241.31406915049024,127.7885448857128 241.55189396142345,128.01144345315961 241.56731774629608,128.09503041619686 241.56234233184017,128.2024993684445 241.52701688914388,128.3179289836437 241.45885371115725,128.44529959365568 241.38173478703132,128.55276854590332 241.30163061435047,128.64829650375336 241.17077721410072,128.80352943459982 241.07723942238894,128.91895905003625 240.98817950356883,129.04632966022618 240.89464171185705,129.16573960687145 240.79961129574914,129.26524789598966 240.63442753581202,129.41650049562725 240.5742250208371,129.4682448059094 240.41650438258478,129.65134005806482 240.324956756596,129.766769673264 240.19858122947613,129.94190426228997 240.0995704818026,130.08519619856088 240.00852039731876,130.24042912964458 239.93637688758943,130.38372106591547 239.8791596214058,130.51109167592747 239.80005053155682,130.73000991204682 239.81348415058778,130.85340019043477 239.83637105702564,130.96882980563396 239.85925796364145,131.0802790897429 239.89806619627893,131.24347268395604 239.92493343440017,131.39074495167304 239.94085476065908,131.50617456710947 239.97120478889943,131.74499446081524 239.98563349070295,131.85644374474623 240.0055351485266,131.99973568101714 240.03240238664782,132.15496861210084 240.05777700037297,132.32612286926553 240.09210736005943,133.34906808151925 240.1110139350512,133.44061570750802 240.12743280275478,133.54808465975566 240.13390084148907,133.65555361182538 240.13688609022194,133.76302256407305 240.13489592438026,133.91825549515676 240.13191067576602,134.00980312132342 240.1284278856469,134.1411540627815 240.1214623053493,134.28842633073577 240.11897459818064,134.38793461985398 240.08563932126674,134.80188910276362 240.04832371284743,134.99692534937597 240.0284220550831,135.09643363849418 239.994091695278,135.2397255747651 239.95428837969004,135.42680115818868 239.94184984355024,135.5501914369325 239.93786951198553,135.67358171526112 239.93538180469827,135.75318834643707 239.9284162245193,135.96016558780292 240.0274269721326,135.96414591966422 240.12544263691402,135.98006724574518 240.25679357860938,136.0039492353115 240.3936174761469,136.0397722191568 240.5314364565163,136.08753619799285 240.66378248104348,136.139280508275 240.75035469263565,136.18306415566494 240.86628184945835,136.25072979202807 240.99365245947033,136.31839542898433 241.12201815243282,136.38606106534746 241.24839367961292,136.4457660389963 241.4494004236317,136.54527432811452 241.60612597899285,136.61293996447765 241.7419547936392,136.65672361163033 241.84693603865892,136.68458593270205 241.99968126245534,136.71642858545712 242.18227897298726,136.7482712376191 242.42607428132683,136.8000155482571 242.5668785104291,136.8199172058435 242.79126970239065,136.85574018986674 243.05098633704847,136.8995238373753 243.2704021145541,136.9353468212206 243.57390239636553,136.98709113174002 243.79928867115802,137.0189337840799 243.91322566225767,137.0308747788927 244.0988086214038,137.05873709996442 244.53614755219692,137.12640273632755 244.72471575995823,137.15426505722135 244.9729889413072,137.1980487047299 245.19041455308886,137.2298913571291 245.2332031173513,137.23387168857522 245.34166715249015,137.28959633071867 245.60237886997982,137.4169669405527 245.73571997739822,137.48065224564766 245.93324393135717,137.56423920850696 246.07603832618247,137.6159835187891 246.28251802610367,137.6995704816484 246.5725846888823,137.85082308104876 246.68453151414028,137.91848871782707 246.94126290006432,138.05381999114644 247.4303461410812,138.31652187429987 247.60597827137482,138.42399082654754 248.00202126212457,138.65883038880716 248.2935805491825,138.83396497783315 248.4771733426056,138.93347326695135 248.93192622387485,139.18025382396448 249.07173537014523,139.24791946056484 249.2782150700655,139.35140808112916 249.60609488270998,139.50664101203495 249.7812294714987,139.59420830675552 249.96581734781296,139.68973626401242 250.1464248925625,139.7932248849919 250.34494392947192,139.9086545001911 250.52604901560775,140.01612345243873 250.69123277548465,140.1076710784275 251.08230035177849,140.33853030900377 251.20121275721542,140.40221561409874 251.3435096107147,140.47784191400652 251.45495889452616,140.53356655597202 251.54799914479236,140.55744854518244 251.94453967698772,140.88781606529213 251.99877169455712,140.9475210385258 252.09230948626893,141.02314733843357 252.1833595708121,141.08285231166724 252.31371542961622,141.16643927470446 252.44705653709394,141.25002623750444 252.59333372197906,141.32963286891763 252.74458632149896,141.42118049490637 252.9013118767999,141.50874778921178 253.06301284661697,141.60029541520052 253.1391366878517,141.65203972548267 253.26202942485338,141.72766602539042 253.38740986920163,141.7993119934369 253.54712067317703,141.88289895647415 253.7610634948414,141.9983285716733 254.03719899708418,142.14560083956826 254.28248692981984,142.27695178108567 254.38050259454195,142.32073542823835 254.56757817808418,142.40034205959222 254.67902746189563,142.4361650437934 254.8407284317127,142.49985034871042 254.97357199768643,142.55955532235927 255.1696033273086,142.65508327979413 255.3178706780354,142.714788253443 255.48156181369419,142.79041455293557 255.62137095984593,142.8580801897139 255.75172681859078,142.90982449981811 255.88208267733563,142.9695294735856 255.98109342500823,143.0133131207976 256,143.0570967679503 255.94974831399531,143.11680174118396 255.82486541115196,143.26407400931615 255.6402775347784,143.4829922454948 255.55669057203679,143.57055953962228 255.45519211701853,143.6859891549994 255.31538297086678,143.8372417545777 255.14970166948405,144.02431733823852 255.0442228829613,144.12382562735672 255.01287777194744,144.1397469534377 254.9720793734683,144.19945192684932 254.88053174742024,144.32284220559313 254.8148562765429,144.39448817363962 254.66012088702342,144.57360309393374 254.60389870361232,144.65320972546556 254.48100596655135,144.83232464575968 254.3506501078065,145.01541989755924 254.1794958505825,145.2622004546317 254.101879385011,145.38559073313826 253.9914251840898,145.54878432752938 253.8799759002774,145.70003692698904 253.7610634948414,145.86721085247035 253.67001341029732,146.0065224574731 253.57398791129825,146.17369638295443 253.5321944298686,146.26524400894317 253.49189357283413,146.36873262992265 253.4386566380382,146.48416224512184 253.43019843346315,146.56774920815906 253.43766155520538,146.65531650228652 253.47000174916974,146.73094280219428 253.52075097662,146.85433308052293 253.56453462377178,146.91801838561787 253.62324451441177,146.9737430275834 253.7088216429941,147.0453889958078 253.9143062600825,147.22450391610195 254.11033758958604,147.40361883639608 254.21183604454592,147.49516646238482 254.3118418751097,147.57875342542204 254.3785124288189,147.65437972532982 254.44617806536,147.74592735125924 254.46110430878701,147.78573066660996 254.454636269935,147.8414553087534 254.39841408664256,147.95290459268443 254.36607389268005,148.08425553396458 254.3516451906977,148.20764581264908 254.4118477056735,148.58179697955558 254.5830019628975,148.74101024244126 254.78152099968833,148.94400715200516 254.83973334882245,149.04749577298463 254.8661030454388,149.09924008326678 254.92730064324647,149.2067090353365 255.0974598176386,149.43756826626867 255.15467708388158,149.51319456582058 255.18403202917145,149.56493887610273 255.18204186344838,149.6166831866221 255.1696033273086,149.71221114405697 255.26761899203072,149.96297203257552 255.34921578916698,150.12218529534258 255.4512117854538,150.38886750994212 255.57758731263394,150.63962839887586 255.65868656826527,150.83864497711227 255.65570131965103,150.99785823946414 255.62236604279641,151.1491108388645 255.55669057203679,151.3043437699482 255.42086175727275,151.5590849901501 255.40643305540993,151.65461294758495 255.40344780667706,151.702376926421 255.4019551823996,151.75412123670316 255.41986667450018,151.8615901889508 255.36165432530674,151.95711814662292 255.3522010378405,152.14021339877834 255.01387285477932,152.62183351805112 254.43622723650748,153.27858822623125 253.96555302891906,153.75622801370204 253.70583639432056,153.92738227104468 253.57498299413012,153.99106757613964 252.92071599317794,154.492589353414 252.85305035663688,154.52443200575388 251.38281538485614,155.71057081204285 251.2972382562738,155.7742561171378 251.08677822478882,155.9294890482215 250.82457388296234,156.13646628958736 250.4165898975184,156.40712883587025 250.08920762631953,156.7653586768144 249.92103861776909,156.93253260253297 249.66629739756718,157.15145083871164 249.51106446660208,157.33454609045188 249.33991020925947,157.5375430001937 248.76624492249397,158.13459273490292 248.66673663337485,158.24604201901187 248.6095193671328,158.34555030813007 248.60106116255682,158.37341262902385 248.53986356480846,158.5246652284242 248.50404058078522,158.5803898703897 248.33388140633377,158.81920976409546 248.04281966066304,159.12967562608492 247.90400559728477,159.308790546557 247.8229063417118,159.40431850440703 247.74429479330843,159.5078071247934 247.5681651215099,159.66702038756046 247.14475735131288,160.06903387547936 246.93379977838137,160.2322274695146 246.65418148601853,160.47502769525957 246.50889938390597,160.57453598437777 245.78796182924367,160.8292772042238 245.69442403741417,160.8850018461893 245.27599168167214,161.01237245637924 245.00035372087402,161.14372339801525 244.79884943535035,161.22333002942844 244.43912697018806,161.3029366606044 244.2699628787464,161.3268186498148 243.85650593740098,161.39050395490978 243.57390239636553,161.45418926000474 243.3067226400229,161.51389423341635 242.82062464768052,161.62534351716943 242.56488834464673,161.67708782780744 242.4618972654687,161.67708782780744 240.81603016345366,162.0591996578434 240.5916389714921,162.11492429963096 240.40108059783077,162.13880628919728 240.3373952927358,162.13880628919728 240.1443492119058,162.14676695232671 239.95229821384837,162.23831457831548 239.88861290881272,162.24627524144492 239.68710862334837,162.22239325187863 239.55874293038494,162.1985112626682 239.4910772937855,162.1985112626682 239.43386002754346,162.19453093098485 239.17364585155775,162.23831457831548 239.04030474408003,162.23433424686937 238.78158319237272,162.2024915941143 238.52186655777422,162.2024915941143 238.45818125273857,162.2024915941143 238.3954910306534,162.2303539150081 238.1427399763525,162.3975278409046 237.36060482376482,162.64430839791774 237.26955473922166,162.6562493925526 237.1411890462601,162.7278953605991 236.09983480063718,162.8990496179417 235.97047402478447,162.94681359677776 235.91524692438225,162.9985579070599 235.8455911219995,163.094085864732 235.78190581690453,163.12990884893318 235.65354012400138,163.1935941538502 235.58985481890642,163.24135813262694 234.8490156064214,163.81850620963112 234.79030571584167,163.8344275357121 234.69875808985293,163.93393582483031 234.67587118341504,163.9816998038443 234.67487610046456,164.0772277611012 234.70472858725932,164.1767360502194 234.70472858725932,164.32002798649032 234.53805220292702,164.46730025444455 234.47436689789137,164.48322158070346 233.54694964330974,164.53496589116355 233.3618642256092,164.53496589116355 232.98721551701985,164.43545760204535 232.76083415933525,164.41157561247906 232.55335937652382,164.47526091757402 232.45235846300952,164.4872019123868 232.38867315797387,164.53098555953952 231.9010825412947,164.83747109002357 231.7194799137133,164.8613530795899 231.5413600761917,164.9011563949406 231.36821565306673,164.93299904763637 230.9383398440761,165.91216061238154 230.77315608413988,166.31815443216172 230.77315608413988,166.36591841081983 230.79604299063706,166.46542669993804 230.83385614050104,166.51319067895201 231.0373505917487,166.93112549318917 231.03635550885753,167.07839776090617 230.96719724792035,167.17392571857826 230.72439702253126,167.50429323827277 230.6796182924874,167.60380152739094 230.65125842997008,167.75505412720648 230.26516626819145,169.23175713766128 230.2079490019485,169.37504907375424 230.07958330898694,169.47853769437788 229.86962081900592,169.593967309755 229.6984665616633,169.7890035567232 229.26560550405844,170.4258566070797 229.2571472994834,170.47362058555987 229.21535381805376,170.62089285369206 229.20938332064733,170.78010611604395 229.20838823775617,171.373175519485 229.20838823775617,171.4687034767419 229.29147765916986,171.5920937554264 229.6715993236607,171.97420558546236 229.74672808200424,172.07371387458056 229.76215186675827,172.19312382164102 229.71190018069424,172.81803587742195 229.66115095324398,172.9653081453762 229.6034361455554,173.04889510799825 229.33675393071863,173.49867257499045 229.3158571900038,173.64196451126134 229.3342662234907,173.76933512145126 229.533780343232,174.43803082420695 229.54124346485654,174.69277204440885 229.3835228266042,175.47291703103625 229.41387285484456,175.7157172566626 229.58154432194942,176.30878665951053 229.5576623325601,176.53964589026475 229.44173517573833,176.89389539976278 229.37008920757324,177.1247546303984 229.3551629642055,177.49094513447199 229.34919246685843,177.6541387283293 229.34919246685843,178.06809321123893 229.31884243873668,178.30293277373582 229.18848657993252,178.66514294594816 229.00489378650943,179.0154121236442 228.9193166578678,179.26219268065736 228.86259693313065,179.51295356923524 228.85115347994045,179.83934075766155 228.84319281669235,180.16970827735605 228.83274444633588,180.3846461820293 228.8023944181539,180.5717217655122 228.70089596331357,180.8702466328668 228.69393038301504,180.97373525360905 228.69393038301504,181.6105883038469 228.68746234422238,181.64641128787014 228.68845742717195,181.70611626128175 228.68945251012337,181.9250344972825 228.66258527194282,182.23152002776655 228.57601306047022,182.51412356886223 228.57899830908354,182.70119915246377 228.6914426757871,183.1191339667009 228.7103492507205,183.23854391376136 228.6914426757871,183.3659145239513 228.57899830908354,183.5967737545276 228.5426777835554,183.7201640332714 228.55163352963535,184.3729384099461 228.51730316983026,184.6475812876751 228.40485880312667,184.95008648671305 228.36704565326175,185.02173245493748 228.06553553723361,185.54713622142228 227.84313451111376,185.85362175190633 227.81079431709102,185.9809923619183 227.80780906841747,186.15612695088498 227.72024177399345,186.43873049180272 227.5252055273218,186.74123569084068 227.49386041630885,186.79696033280618 227.4699784269205,186.97209492141698 227.47694400709946,187.33828542554988 227.4794317143274,187.39799039878358 227.50032845504316,187.65671195084676 227.50032845504316,187.96717781259898 227.49485549920004,188.2338600276137 227.4187316579653,188.52442423183885 227.40629312182554,188.73936213633417 227.3465881483546,189.0458476666403 227.29136104795333,189.19710026604065 227.2381241132751,189.35631352898562 227.1221969565117,189.57921209625454 227.10130021573664,189.62697607526852 227.0704526460516,189.7344450275162 227.10876333742235,189.9891862477181 227.14757157011914,190.10063553141185 227.2978290866867,190.3394554251769 227.36051930883022,190.56633432448504 227.35902668449438,190.66584261360322 227.2152372067186,191.05591510694657 227.17792159829926,191.20318737484152 227.1754338911306,191.45792859486548 227.17891668124975,191.8798437409639 227.18389209570566,191.98731269321158 227.24359706911727,192.09080131377587 227.37295784497186,192.2539949078111 227.44460381319536,192.41320817057817 227.4520669348199,192.69979204311994 227.45405710060226,192.91074961616917 227.4530620177704,193.11374652602962 227.42619477964917,193.2331564727342 227.40728820477602,193.2809204517482 227.24359706911727,193.53964200321826 227.07343789472515,193.76254057108028 227.05254115401033,193.86602919146665 227.04507803232647,194.16455405882127 226.97940256150844,194.33570831616387 226.9052688861738,194.45113793154098 226.88536722835107,194.5148232368139 226.92019512948312,194.66607583627354 227.06398460731822,194.8730530776394 227.1003051328464,194.92081705647544 227.2142421238274,195.10391230839363 227.31524303728239,195.41835850206647 227.32270615896624,195.943762268314 227.3028045011426,196.182582162257 227.11622645904598,196.47314636648215 227.06099935858538,196.5806153187298 227.03562474486023,196.7239072550007 227.0376149106426,197.0065107960964 227.03064933046363,197.21348803746227 226.98139272729082,197.3209569897099 226.8550172001107,197.42046527882812 226.70724739082948,197.48415058392308 226.29180028376098,197.62744252019397 226.0101918255565,197.75083279893778 225.68430217863505,197.93790838218345 225.6156414592028,197.98965269282147 225.56986764614913,198.09712164506914 225.5887742210816,198.22051192345708 225.72012516277692,198.59864342198762 225.77236701450465,198.76581734782482 225.83157444658931,198.9409519364949 225.9037179561407,199.04842088874258 226.2853322449099,199.2752997880507 226.33856917970584,199.32704409833286 226.37837249523542,199.4424737139472 226.3296134336259,199.8046838863968 226.29826832249435,199.9161331699126 226.19577478470262,200.06340543786686 225.95695489087825,200.32212698951486 225.9086933705966,200.3778516316583 225.6763415155056,200.58482887302418 225.329555127988,200.79180611444934 225.11610984777013,200.9430587138497 224.7976833225919,201.2455639126504 224.66633238101517,201.32915087533175 224.44592152055904,201.40477717523953 224.30710745723914,201.48040347508797 224.19118030041645,201.58787242739496 224.08271626533693,201.735144694934 224.05385886149264,201.78290867377007 223.96479894267253,201.94610226798324 223.79513730972602,202.10133519906694 223.58616990257778,202.20880415131458 223.30157619569974,202.3321944296432 222.8672225137581,202.519270013482 222.73587157206276,202.62275863386836 222.61596408367438,202.83769653854162 222.45724836259203,203.03671311677803 222.3174392163207,203.14418206902567 222.18409810902094,203.19194604768379 222.03583075811622,203.19194604768379 221.71939439877963,203.12030007945938 221.17906438880848,202.95710648542416 220.96114123563964,202.9093425065881 220.8138689677447,202.9133228380935 220.68351310900078,202.94516549078926 220.60291139487248,202.98496880631794 220.54370396278784,203.03273278533192 220.51434901749798,203.09243775856558 220.51235885177493,203.15214273221446 220.5476842943535,203.26757234759157 220.58350727849628,203.38300196279073 220.60539910204207,203.5740578778977 220.66062620250267,203.73725147211084 220.6312712572128,203.83675976122905 220.56659086934528,203.88452374024303 219.93819602350453,204.09548131287707 219.72475074340528,204.20693059663014 219.4406545779135,204.47759314309096 219.31228888495104,204.56118010612818 219.18093794337432,204.66466872687042 219.11725263827935,204.77213767917738 219.08391736142383,204.9393116046587 219.14959283224277,205.10250519869396 219.4575709870636,205.69955493340316 219.5849415971349,205.9423551589702 219.5859366800261,206.26078168408912 219.5680251879848,206.32048665767866 219.51478825330656,206.37621129946623 219.4481176995974,206.41203428348948 219.38542747757154,206.42795560992633 219.1610362855507,206.4239752783023 218.90231473378404,206.37621129946623 218.43910364799814,206.21301770525307 218.28685596558796,206.21699803711437 218.12913532745424,206.27272267907986 217.99579421997655,206.37223096819807 217.96942452329998,206.4239752783023 217.9873360154015,206.58716887251543 218.02067129225608,206.70259848771462 218.08236643150937,206.81802810326968 218.1918255494801,206.9215167238933 218.76051542178968,207.26382523840059 218.9605270829182,207.40313684340333 219.0545624161358,207.51060579565097 219.06799603516586,207.68176005281566 219.04759683589663,207.73748469478116 218.99734514989194,207.78922900488539 218.85305813067055,207.8608749731098 218.71474160879623,207.89271762586486 218.28884613137032,207.9165996150753 217.98932618112454,207.96834392535746 217.85797523948852,208.0121275726881 217.82563504558442,208.0598915513462 217.81518667516863,208.2111441509245 217.82215225546528,208.36637708183025 217.84752686913112,208.4698657026318 217.82961537714914,208.71664625964496 217.82364487974274,208.89576118017635 217.8037432219191,208.95944648527131 217.4947699843257,209.07089576878712 217.38730103195942,209.1823450525402 217.34749771631215,209.34155831542589 217.29227061585155,209.6599848403669 217.28630011856376,209.8749227448622 217.28182224555346,210.20927059641798 217.24550172002532,210.42818883259665 217.21515169178588,210.62720541083306 217.21614677473542,210.92971060969307 216.87682350884236,210.8103006626326 216.4942141371829,210.7545760206671 216.27579344262773,210.74661535753765 216.12255067726616,210.71875303664385 215.33295240311415,210.54759877930124 214.8214797970466,210.4242085009726 214.49807785741245,210.31673954872494 213.73634190421262,210.05005733371024 213.6602180630372,210.01821468137035 212.8566886284077,209.69580782439013 212.0606223154621,209.39728295703551 211.52725788584786,209.19030571566967 211.32625114176977,209.09079742655146 210.98792295882723,208.88780051704688 210.53914057484482,208.64101995997444 210.17295007089075,208.44996404468955 210.1356344624705,208.43006238692521 209.9246768895399,208.33453442949036 209.84108992668064,208.3146327715481 209.34852389554553,208.1036751984989 209.03059491181287,207.9285406098881 208.7967504323851,207.76534701585288 208.55146249982735,207.62603541085016 208.25841058825563,207.4429401590506 208.22706547724272,207.42303850110835 208.10914815457835,207.3195498803661 207.9504324334348,207.23994324919016 207.73151419737476,207.16431694928238 206.68717470307925,206.7782247876224 206.21003245675746,206.57522787770264 205.66671719817208,206.3801916311496 205.36620216509442,206.2687423472186 204.636806405858,206.06176510585271 203.56211688338144,205.85080753315938 203.13622140595552,205.79906322252137 202.49339785825197,205.68363360732218 201.43562474492546,205.44879404506253 200.77687987096297,205.30550210879164 200.36193030534008,205.18211183004783 200.0166365420406,205.05872155171917 199.30813752357832,204.76417701598862 198.3125570908914,204.3422618699495 197.8324295959554,204.1432452917131 197.2836413814092,203.9561697082895 196.72340971367373,203.76511379318256 196.20596661025908,203.55415622013336 195.83330806751144,203.41882494681397 195.13326725362418,203.16806405847336 194.1083318756474,202.76605057049514 193.64760849703015,202.6108176392335 193.11125881868304,202.47548636627 192.06045128559484,202.26054846159673 191.10566925150567,202.08939420425412 190.47627932283305,201.95804326279602 190.30612014844093,201.92222027877278 190.1414339300096,201.92222027877278 188.89758031603304,201.91027928396 188.17365751263787,201.9182399469115 188.0841000524315,201.92620061004095 187.29698948556583,201.99386624699721 186.55316502434798,202.02968923102046 185.80187744150555,202.03366956228862 185.30632616169783,202.08143354112465 184.8699823139136,202.17696149891538 183.97789050196891,202.34015509295062 183.13157250301862,202.47150603464596 182.62258760417902,202.47946669759747 182.4743202533929,202.51130935011528 182.3981964122175,202.52325034475018 181.6105883038469,202.65858161806955 181.20956989870055,202.73022758611603 180.97522787794583,202.74216858092885 180.8384039804083,202.7779915649521 180.3781781432366,202.8456572016711 179.95029249996904,202.9332244962137 178.98754980269112,203.12428041132065 178.41040172580554,203.2357296950144 178.00739315487684,203.31135599456633 177.1237595475072,203.48251025190893 177.01828076110124,203.49843157816787 176.53964589038245,203.58201854102714 176.01125687522503,203.63376285148723 175.0221444813308,203.73725147211084 174.42011933228432,203.8168581032868 174.06139194989456,203.8885040715112 173.09815171122946,204.05965832903175 172.1165024390793,204.26265523877356 171.16918352673335,204.47759314309096 170.33530406392282,204.69253104758627 170.24226381353893,204.71641303721188 169.36161545490123,205.02289856769593 169.0322430178616,205.15822984083738 168.49241054939444,205.34530542426097 167.65355567224663,205.6438302916156 166.87440576833248,205.9503158222776 166.12510835127242,206.29262433660693 165.4300429518411,206.55930655144374 164.82702271972548,206.78618545075184 164.70711523133804,206.82996909790455 164.44839367969004,206.9374380501522 164.12399665716563,207.11655297062427 163.68466756070785,207.32751054349555 163.47171982193558,207.42701883261375 163.2547917516579,207.58225176369746 163.10751948376296,207.66583872673468 162.9667152546607,207.74544535791063 162.5522632305427,208.0041669093807 162.27264493806126,208.15143917733494 161.55917050508376,208.6091773073973 161.2959710804254,208.79227255919685 160.92978057641113,209.11467941611775 160.5864769789524,209.42514527810724 160.35412512386233,209.6838668299925 159.73816881428,210.3366412066079 159.47098905793828,210.59934308976133 159.10081822241858,210.79437933655163 158.58238003611277,211.06106155115117 158.36296425860712,211.19639282447054 157.6683964006214,211.5665636598716 157.39375352259583,211.68597360675415 156.94944901168307,211.81334421694407 156.74247177031722,211.83722620656968 156.23149670569617,211.84518686969915 155.47573124990183,211.84120653783785 154.73091170579278,211.69393427006153 153.9452937632639,211.57054399137704 153.69801566474584,211.5187996812728 153.14823236736777,211.37550774500193 152.39147182874154,211.21231415078876 152.00040425244865,211.136687850881 151.63918916289026,211.04514022489224 151.2625502886372,210.9376712726446 150.9182516082882,210.8222416574454 150.2266689989167,210.61924474752564 149.49826832251216,210.44809049018303 148.85843002354144,210.29285755909933 148.7877791382675,210.27693623284043 148.49522476820067,210.21325092792338 148.0966940702823,210.12170330193464 147.77528229648982,210.03413600762926 147.3548597749061,209.8948244026265 147.01603405045861,209.78735545037887 146.5140147318573,209.59629953527192 146.04035527565466,209.42116494666112 145.75974190034134,209.2977746679173 145.19005694513962,209.1027384215422 145.0875634073479,208.9873088061651 144.55967193357583,208.80421355418758 143.7969408974848,208.5375313393508 142.95510077154483,208.32259343467757 142.08042291019584,208.1036751984989 141.25599673485155,207.84893397865287 140.95796940894252,207.79320933674666 140.8221405943555,207.79320933674666 140.51316735658418,207.75738635272342 139.91761024621172,207.68176005281566 139.65242065571172,207.6737993896862 138.75386080503367,207.68574038426178 137.9612772822072,207.69370104762848 137.62095893336365,207.69768137889665 137.10451091295786,207.74544535791063 136.24376421196774,207.81311099445168 135.48003809298555,207.82505198908655 135.38600275976884,207.82505198908655 134.56356675020692,207.8051503311443 133.7510815695568,207.81311099445168 133.41076322077254,207.77728801025052 132.92118243831098,207.65787806360524 132.84505859719488,207.6339960739796 132.59280508428023,207.55040911129825 132.17238256269653,207.3314908751789 131.836044545477,207.1205333021297 131.5325442636665,206.86977241378906 131.14346685321433,206.3642703050686 131.10664878624058,206.30058499997364 130.92554370010478,205.92643383271127 130.83648378128467,205.67965327563883 130.7310049948787,205.34928575594432 130.6593590266552,205.04678055690638 130.52452529501772,204.40594717486653 130.4389481662584,203.77705478799538 130.4036227236798,203.13224107445012 130.36282432520065,202.47946669759747 130.33894233569367,201.85853497367782 130.26381357740942,201.55204944313445 130.13942821601168,201.2933278913085 129.93842147205223,201.0226653448477 129.7349270207462,200.8395700928702 129.5582998076207,200.7121994828582 129.12245350128296,200.4813402522819 128.83338192133527,200.34998931058658 128.0641828464516,200.05942510636143 127.7542145259077,199.9798184751855 127.26164849471328,199.9121528384665 126.94471459387182,199.89623151238553 126.45762151863822,199.9002118436537 125.90435543120033,199.90817250678316 125.68444211224912,199.93205449640877 125.41178940006525,199.99573980150373 124.97146522071719,200.13903173777462 124.68587643094796,200.27436301091606 124.15997512295827,200.58880920435163 123.31564728973102,201.12615396582717 122.78228286011584,201.4445804908868 120.417965910609,202.47946669759747 118.07952111633126,203.18796571641562 117.32624336776578,203.38300196279073 116.982939770308,203.46658892582798 116.63267059255261,203.52231356779347 116.20478494934434,203.58599887288844 115.91372320367269,203.59793986728604 115.56743435754227,203.59793986728604 115.2669193244053,203.55415622013336 115.19776106346815,203.53823489387446 114.49125221084755,203.3033953316148 114.27979709647137,203.25165102133266 114.13152974556662,203.19194604768379 113.74941791535272,202.90138184345864 113.42900122445143,202.66654228137693 113.07126892501219,202.34015509295062 112.75085223405158,202.0376498941499 112.51103725727671,201.77096767931312 112.16872874276942,201.38089518596976 112.0413581326388,201.237603249343 111.99259907097088,201.18983927092214 111.71795619300558,200.95898003993068 111.39753950210336,200.73608147248382 111.24230657101965,200.65647484107063 110.55022642020256,200.38979262611525 110.17607525311811,200.28232367404553 109.82729869975883,200.20669737413775 109.41732454859184,200.14699240090408 109.12427263713873,200.13107107464518 107.56945561966684,200.1549530638556 107.18236837499703,200.1708743901145 106.74403436143136,200.23854002689282 105.95294346300096,200.41367461550362 105.64645793251691,200.4972615783629 105.1708083104726,200.66443550425942 104.4349445124435,200.98286202949697 103.72147007946599,201.3410918703225 103.05128175231421,201.62767574268636 102.98560628155552,201.65951839544144 102.28556546749034,202.0376498941499 101.49447456900064,202.46752570314052 101.23376285151096,202.59091598170642 100.68497463702407,202.79789322289434 99.84910500843118,203.05263444309625 99.61227528032987,203.1043787533784 99.01870833573979,203.19990671081325 98.8779041066366,203.2198083685776 98.53559559213024,203.22378870043886 97.68629234450638,203.2038870424966 96.88475307559996,203.2198083685776 96.7897226595514,203.2198083685776 95.88917264297235,203.18398538455435 94.98364721199673,203.09243775856558 94.03185042658113,202.92128350122297 93.07308806092726,202.65460128662343 92.80690338753608,202.57897498671568 92.20288807258859,202.4356830506227 91.86256972380434,202.35607641926885 91.47349231335218,202.3083124404328 90.76101296326586,202.1172565251479 90.2987969603118,201.9660039259255 89.84702932771518,201.85853497367782 88.89324237651722,201.65951839544144 88.23499504400031,201.50030513267438 87.93846034248739,201.42865916444995 87.08069889028849,201.25352457577986 86.55479758223856,201.15003595503762 86.3159776883558,201.09033098180393 86.11248323710907,201.07838998699114 85.57911880749484,200.97888169787294 85.1377995451963,200.851511087683 84.81887547857247,200.77588478813112 84.08400676343454,200.58482887302418 83.87006394183041,200.51716323630515 83.37550774491388,200.29426466885832 82.63815132254615,200.02758245366567 81.85104075568142,199.8046838863968 81.02462441449545,199.6693526130774 80.2086564437262,199.55392299764097 79.46085165100291,199.42655238745107 79.37925485392599,199.41063106119213 78.96281266396632,199.3190834352034 78.60309019880401,199.21161448295575 78.08315938822072,199.05638155204997 77.88215264414265,198.98075525237945 77.61397780502841,198.83746331610854 77.3154529376738,198.59864342198762 77.28709307527511,198.5668007695884 77.14230851460813,198.3996268437512 76.94926243365951,198.1448856235493 76.76119176722611,197.78665578296102 76.70944745688465,197.63938351482884 76.46913493866418,197.24135035835604 76.38355781008184,197.0502944432491 76.25519211717868,196.6761432763426 76.08204769399438,196.1268575202915 75.9422385477833,195.5536897752079 75.84521796589307,194.9765416982037 75.71187685853398,194.41133461607166 75.62629972983302,194.12873107479803 75.5884865799681,193.89389151253837 75.58351116563082,193.83816687057288 75.54370784986492,193.4998386877489 75.48300779356212,193.2849007831943 75.29941500007973,192.76745767989826 75.19542883795121,192.52465745444985 75.05213690168031,192.27787689743673 74.72276446463975,191.67684683086622 74.40234777367914,191.10367908572331 74.32821409828608,191.00019046498107 74.32174605955271,190.94844615487685 74.27597224655834,190.86883952328574 74.06302450778608,190.39916039876644 74.03167939677316,190.3434357570382 73.74061765104311,189.82599265350493 73.46398460735382,189.49562513339524 73.21272617727013,189.27670689739452 72.84653567337539,189.0299263405593 72.5186558607309,188.87867374092173 72.29973762473017,188.79906710956783 71.83005850003295,188.59208986820198 71.49222785841735,188.46471925819 71.12802752024473,188.3811322953307 70.62302295296986,188.31346665878965 70.39863176100832,188.29754533270867 69.64336384660116,188.27366334308306 68.86670165015222,188.29356500084737 68.08854682912835,188.31346665878965 67.33427399761331,188.34132897986137 66.60985365289211,188.35725030594233 65.92523662369958,188.39307328996557 65.24012205312076,188.42491594272065 64.61720016324081,188.42889627416676 64.54704681941249,188.4328766058501 63.9106913105609,188.42889627416676 63.45792859501377,188.4328766058501 63.18527588289014,188.4169552795319 62.91312071209162,188.3890929586974 62.476776864367615,188.3811322953307 62.11158144330382,188.3492896428129 61.74539093928953,188.28560433771793 61.39611684448464,188.2338600276137 61.12893708826158,188.17415505396485 60.89310244305144,188.11445008055324 59.79552601401837,187.7920432239882 59.36963053659247,187.09946553142896 59.27260995470222,186.0486579986373 59.48854294208779,184.91824383395797 59.45222241656057,184.19780382092014 59.58854877265251,183.5649311021877 59.78507764372027,182.7449827997944 59.95623190100358,182.24346102257937 60.32242240489924,181.61854896679844 60.57169066914034,181.24837813139735 61.02246321884579,180.42444949738 61.46179231530265,179.54081589030693 61.636926904150684,179.06317610242095 61.793652459511854,178.354677084018 61.86977630068728,177.71782403342425 61.84887955997245,177.27202689829332 61.526472703288796,176.7824461158911 61.054803412868516,176.0341437815443 60.685627660239994,175.40923172611923 60.48213320899327,175.02313956410336 60.38511262704464,174.39026684537092 60.13982469436735,173.7613744583218 59.77761452203641,173.18820671282305 59.23927467796625,172.70658659349095 58.50490350421461,172.29661244238326 57.5929100344463,171.9702252541942 57.511313237310056,171.9662449223329 56.90381513230275,171.6876217130985 56.255021087192766,171.32143120914353 55.577867179802716,170.87563407389396 54.92758051035596,170.30246632839518 54.21609624316082,169.77706256173246 53.74890482581018,169.43873437902715 52.99562707712608,168.92925193868265 52.52047499658667,168.4476318191726 52.04681554038403,168.03367733661884 51.559722465209745,167.51623423308556 51.41444036309717,167.2973159969069 51.08705809189829,166.71220725718842 50.93779565822099,166.3579577476904 50.57906827589056,165.64945872940604 50.21685810355962,164.94494004227124 49.82778069304814,164.28420500246708 49.41332866887083,163.4960993526509 49.133710376508,163.0542825490254 48.890412609673305,162.7995413288235 48.38789574956708,162.47315414075305 48.049567566505885,162.08706197873718 47.73760908017963,161.61340252253456 47.54356791633983,161.1079004138141 47.43062600824998,160.42328338462156 47.30574310540664,159.87399762892633 47.154490505887665,159.15753794715664 46.978858375653346,158.4370979341188 46.81317707433085,157.72461858379523 46.680831049685025,157.06786387567442 46.49176530035952,156.482755135778 46.23602899738597,155.73843313311457 46.03153946318876,155.08167842493444 45.832522884952354,154.34929741690584 45.6588809204411,153.70846403522188 45.5598701728278,153.20694225800682 45.43349464558837,152.70940081241582 45.303138786902835,152.31932831907247 45.181241132673726,151.961098478069 44.96928847685196,151.6267506268691 44.61653159192794,151.12124851814863 44.282681281995686,150.5679824304142 43.86026859468892,150.0505393272961 43.151769576167325,149.4057256135729 42.5109361941868,148.91614483111135 42.10643499898062,148.64150195332306 41.02428235482018,148.10017686022348 40.763570637330496,147.9728062502115 39.49782519974697,147.36779585237284 37.498703671303,146.7030804813005 34.79406837307028,146.04632577312037 31.71378928341636,145.27016111776115 29.04248926209663,144.5656424308043 26.597073056958447,143.8969467280486 25.845785474175337,143.65812683428354 24.29494878826817,143.16456572019794 24.262608594245442,143.14466406225569 21.894311313291563,141.7873709986241 17.77665830958039,140.00418245762594 16.366128311270575,139.52256233829385 9.480652245795945,137.08659942085822 5.880939886945011,135.76910967287392 2.665827065476614,134.48346257746675 0,133.26150078721386 1.8050803646634839,131.69723048215712 2.2737644064102125,131.02455444777738 2.6160729209175133,130.5508949913968 3.124062736925243,130.1369405086651 4.124618583949446,129.61949740530977 4.972926748741424,129.2254445805203 5.32170330210072,129.06225098630713 6.162548345149521,128.6761588244099 6.766563660037692,128.12289273709064 7.376051930886675,127.47011836041592 8.20346335496383,126.53474044264551 9.033860027595908,125.61926418281737 9.667230287892572,124.94658814843764 10.123475793499525,124.36147940848194 10.503099916426152,123.84403630500798 10.873768293450764,123.38231784361814 11.127016889315897,122.86089440857945 11.23796863162338,122.30762832084501 11.259860455170074,121.77824422273618 11.227520261206658,121.07770586758129 11.18771694561869,120.32940353311587 11.218066973800667,119.81594076144387 11.290708024796716,119.36218296300557 11.582267311972357,118.681546265615 12.02458165704345,118.04071288339723 12.327086855961856,117.32823353348884 12.458437797598808,116.65953783073316 12.467891085065038,116.27742600034132 11.772825685633713,114.96391658386244 10.333935824984522,112.96180980710079 9.682156531200992,111.75974967431567 9.414976774918621,110.97562435600493 9.331389812118642,110.38653528442518 9.230388898604357,110.06810875930624 9.166703593568707,109.72181991335285 9.205014284879216,109.41533438286878 9.318951275978867,109.15263249971535 9.507519483798548,108.82226497960568 9.840374710958242,108.25705789765153 10.073224107494834,107.8192214252942 10.244378364718829,107.51273589481015 10.41851787067568,107.18236837487841 10.634450858062177,106.8838435075238 10.934965891258457,106.54153499319443 11.110598021492772,106.2509707889693 11.196175150193735,105.87681962176623 11.19368744290647,105.55839309646936 11.047907799407616,105.29967154499928 10.68470254406687,104.92950070936095 10.218506209606481,104.42399860064049 9.914508386292917,104.22498202240409 9.538864594930093,104.01004411773084 9.170683925133435,103.70753891910806 9.126900277921427,103.50056167750496 9.222925776979803,103.1463121684221 9.429405476839833,102.80798398518297 9.683151614151484,102.4218918237009 10.107554467181302,102.00395700928583 10.537430276231243,101.63776650533086 11.103134899808905,101.2476940119875 11.549927118068252,100.98897246016156 12.153942432956423,100.63074261957328 12.708701144731085,100.29639476819543 13.196291761410272,99.98592890585009 13.58536917192175,99.683423707168 13.9028006141495,99.36499718193045 14.368996948727586,98.85949507315067 14.850119526614089,98.21866169111084 15.175511631971297,97.756943229721 15.497918488714268,97.26736244725944 15.732758051092535,96.90117194318584 16.00640584616759,96.56284376030258 16.359660272477893,96.1926729249015 16.689530250903804,95.8702660679806 16.948251802730677,95.55183954268372 17.180106116316775,95.2851573280842 17.34678250053045,95.07021942352957 17.572168775383176,94.76373389286756 17.786111596987308,94.55675665150171 18.031399529663673,94.38560239433703 18.19608574821361,94.28609410521882 18.284150584022978,94.20250714253747 18.413511359877567,94.06319553777199 18.51351719044136,93.99951023267703 18.67621324320893,93.95572658552433 19.143902202004238,93.92786426463054 19.568305055153605,93.97164791178325 19.84792334751644,94.02737255374875 20.190231862141438,94.17066449001965 20.8017102987144,94.54879598837225 21.178349173026792,94.93886848189354 21.579865119618734,95.46029191669498 21.771916117616865,95.70309214243994 22.023672089085913,95.97773502022825 22.500316793962096,96.36382718206619 22.86252696635235,96.63050939690297 23.1535887120824,96.81758498032656 23.441665209020282,96.96883757990484 23.858107398979953,97.17581482133002 24.531778516310176,97.54200532504775 25.12584300234584,97.82460886632138 25.605472956014193,97.94401881338185 25.914446193607585,98.01566478142833 26.582146813590715,98.15099605474771 27.340897518117,98.19876003358375 28.623061823464337,98.2067206967132 29.082292577685525,98.21866169111084 29.29325015061611,98.23060268574571 29.55097661943225,98.22264202279418 30.034089363100193,98.11517307054653 30.341569976476364,98.03954677063876 30.756022000653672,97.99576312348606 31.08589197913982,97.98780246053454 31.51128991506082,98.01168444974498 31.95161409440886,98.05944842858102 32.350144792386565,98.13507472848879 32.604886012469855,98.2067206967132 32.8292772044314,98.29030765951319 33.12879715467718,98.4057372749496 33.532303267109874,98.60077352132473 34.010440596264445,98.8316327523162 34.332847453066734,98.9749246885871 34.76869375934514,99.11025596172854 35.590134686015894,99.29733154515213 36.178726216150054,99.38887917114089 36.88722523479027,99.45654480785988 37.475319223419525,99.4724661341781 37.958431967029085,99.4724661341781 38.108689483597566,99.47644646580214 38.502244767060056,99.504308786518 39.04804773287246,99.57595475492035 39.969494490107934,99.66750238073115 40.55659339602394,99.74312868063892 41.48102540187272,99.87845995378036 42.485064039016066,100.04961421094505 43.344815656997326,100.12524051085282 43.962264590975764,100.14514216855784 44.34238625540729,100.09339785809775 44.68469477003414,99.99786990084083 45.13297961251072,99.70730569643774 45.696694070365325,99.05453131976303 46.1181116747216,98.53708821622976 46.445991487366065,98.09925174446555 46.55644568828727,97.82062853463803 46.56042601985107,97.49424134656758 46.43206032688952,97.1081491845517 45.995218937719926,96.15286960925422 45.43249956281581,94.9030454978703 45.0299885332743,94.12688084286695 44.874258060744076,93.83233630678052 44.66479311220957,93.62535906541466 44.34338133829847,93.43828348199106 44.06077779720278,93.30693254047365 43.61697082773561,93.15169960921202 43.040320292295625,92.9487026995295 42.55173459272526,92.75366645273921 42.16663751383782,92.61833517977571 41.84224049131248,92.54270887992725 41.61983946513238,92.47902357501023 41.34270887993911,92.3198103124211 41.08498241112297,92.2083610285494 40.73521077487249,92.08099041853743 40.11427905077492,91.897895166382 38.46492915864073,91.32074708961505 38.24352321535273,91.21725846899143 38.079832079812604,91.01426155913099 38.07634928969347,90.93067459609377 38.06490583638556,90.61224807097483 38.17237478869253,90.32168386692761 38.42910617461749,90.03908032589123 39.002273919879016,89.47387324334399 39.7500787126023,88.73751190416586 40.47250889165975,88.09269819067991 41.17653003711079,87.31653353543932 41.35912774764362,87.10557596262736 41.45813849531623,86.88267739476534 41.48351310904137,86.57221153283517 41.318329349164465,86.20204069743409 41.05463238294192,85.78012555133566 40.35757681778754,85.07162653311063 39.85854274780045,84.25167823071733 39.307764367531206,83.39988727562829 38.83908032578448,82.36500106897692 38.617176840991576,81.77193166589176 38.380347112890256,81.21468524653328 38.2728781606426,80.81665209006047 38.21018793849814,80.48628457054392 38.25098633709591,80.10815307159818 38.29277981858486,79.84943151995017 38.38233727867262,79.6305132837715 38.52314150777488,79.4354770373964 38.84654344740903,79.22849979603053 39.34856276606967,79.0334635490623 39.82520747088654,78.88221094983989 40.49639088098881,78.69911569768446 41.016819233195626,78.55582376141356 41.57506073508942,78.3647678463066 42.12633665674495,78.18565292601247 42.3168950304063,78.11400695778805 43.00151205959884,77.75975744846795 43.049276038316265,77.73189512739623 43.16719336098065,77.67219015416255 43.4512895263538,77.52889821765442 43.75578489105457,77.33386197092342 43.92992439701235,77.2263930188537 44.2642722484495,76.96369113552234 44.47672244571687,76.72487124157934 44.57075777893356,76.54575632110726 44.68369968708272,76.18752648051898 44.748380075128175,75.90492293924537 44.836942452324756,75.57455541949156 44.917046625124215,75.25612889443194 44.99118030045796,74.84217441146298 45.04143198652197,74.49190523382622 45.05387052266175,74.21328202423594 45.040436903571475,73.9784424619763 45.02700328453959,73.76350455765892 45.0225254115302,73.52070433226982 45.02451557731256,73.30576642771518 45.03496394766997,73.08684819153652 45.093673838249714,72.76444133461561 45.17079276237563,72.51368044627499 45.27179367577129,72.28680154696687 45.415085612160816,71.98429634810685 45.58922511811767,71.71761413332939 45.82704992905086,71.35938429232593 45.98775581603699,71.09270207754845 46.13055021086137,70.88572483636054 46.24548228479289,70.6986492526997 46.34548811535669,70.42400637479277 46.408178337501155,70.15732415977806 46.50320875360904,69.8309369717076 46.5395292792558,69.6637630458704 46.62759411500679,69.38115950459677 46.724614696956344,69.04681165321892 46.79128525066554,68.72042446497053 46.84551726823496,68.35025362939152 46.873877130633645,67.99998445193269 46.84452218528354,67.66563660037691 46.752477017850126,67.38303305910328 46.451961984772474,66.95315725046852 46.19125026734117,66.70637669339608 45.979297611461014,66.42377315212245 45.78227119894767,66.22873690556939 45.49966765785197,65.96205469055468 45.30960682563621,65.69537247595515 44.92450974674877,65.36102462457731 44.5593143256859,65.06648008849088 44.347361669863204,64.91920782071456 44.00306298951423,64.7082502479026 43.59408392123749,64.49331234317003 43.24679999227613,64.33807941232357 42.35968359478644,64.00373156094572 41.41136959943067,63.60967873574109 40.957611801110986,63.36289817902451 40.72675257029745,63.17980292710633 40.49191300797849,62.956904359422246 40.30633004883236,62.71410413367728 40.23418653916235,62.586733523665295 40.15905778087811,62.38771694542889 40.13119545992501,62.21656268808627 40.14761432762951,62.09317240975764 40.22473325175543,61.86629351062745 40.284438225167044,61.726981905624726 40.36603502224396,61.49612267504843 40.45260723383611,61.22147979690426 40.547637649943994,60.899072940339224 40.57549997083778,60.755781004068325 40.607840164801196,60.56870542058542 40.66505743104416,60.23833790071299 40.7018754980179,60.015439332850974 40.732225526198945,59.693032476108 40.775014090579084,59.50993722413051 40.880492876985066,59.20345169364645 40.93870522611922,58.968612131386806 40.98348395628079,58.78949721091473 41.08498241112297,58.55465764865509 41.59396730996257,57.093875964577826 41.748205158095786,56.33363263547752 41.88204380701907,55.98336345784077 41.99896604673296,55.66095660127573 42.11340057915958,55.30670709177768 42.24276135507255,54.98430023521264 42.4338172701795,54.618109731079734 42.697016694837835,54.21211591147747 42.759209375536706,54.104646959407745 42.8825996541619,53.88970905491243 43.08062114944781,53.61506617676826 43.31745087754913,53.30460031495672 43.64931102175833,53.0697607523412 44.001072823790246,52.910547489989334 44.3204944318606,52.82696052695211 44.79813421968728,52.77521621684789 45.16979767948445,52.75531455872769 45.63300876527036,52.731432569695194 46.50121858788598,52.723471906565734 46.90273453441861,52.723471906565734 47.363955454540786,52.63590461184516 47.868960021816584,52.51251433351653 48.174948010794814,52.41300604439832 48.5630303383558,52.301556760467314 48.91230443316069,52.09059918759604 49.20485880322751,51.92740559362012 49.71782403357346,51.7124676890655 50.08948749342901,51.5015101160756 50.604940431061294,51.27065088508412 50.98157930537276,51.09153596478998 51.46170680036808,50.856696402530346 51.86521291274332,50.7213651293889 52.41002079572385,50.550210872046286 52.83691135604186,50.41487959890484 53.26678716497318,50.30741064665718 53.6369580005522,50.267607330772655 54.042951820154464,50.215863020668436 54.46785221462987,50.07655141566571 54.806677939136655,49.95714146878318 55.186799603508874,49.78996754330185 55.877387129989195,49.44367869693326 56.23412434647794,49.248642450558144 56.55553612038904,49.06952752984883 56.8948593862228,48.866530620166316 57.353592599057706,48.66353371024656 57.815808602071066,48.51626144252956 58.29295084839284,48.38491050065629 59.75472761547991,48.01075933374978 60.806530231577916,47.61670650878239 61.28964297512816,47.449532583301064 61.73942044206105,47.23459467874644 61.81355411739573,47.17488970515689 62.18472003574639,46.86840417467283 62.41955959806534,46.56589897563488 62.765848444195754,46.0126328882563 62.99222980194059,45.276271548781615 63.17482751247249,44.41651993091897 63.4400171029725,42.74876100511999 63.74451246767419,41.431271257372934 63.9106913105609,40.81431986454353 64.1723981109427,40.2132897983289 64.39778438573518,39.90680426784484 64.72964452994438,39.5684760850209 65.37246807764797,39.078895302559346 65.9078226731039,38.748527782627605 66.5899519950694,38.386317610355974 67.79549491773548,37.841012185988234 68.82490816866327,37.482782345162704 69.48962353991261,37.255903445854585 69.73690163843159,37.13251316717008 70.04886012475784,36.92951625742826 70.38818339071021,36.678755368909705 70.70213204287813,36.54740442745161 71.18972265949802,36.43993547520395 71.77682156535471,36.376250170108996 72.38929508481793,36.340427186085755 72.6783666647063,36.17723359187259 72.79528890442019,35.95831535587186 72.76692904208082,35.691633141035084 72.46143859454632,35.273698326620014 72.06887839385826,34.85974384371036 71.42008434886503,34.32637941409611 70.75536897749707,33.80097564778926 70.38619322486946,33.49449011712726 70.1170233028038,33.12431928154824 69.98766252695015,32.849676403582 69.69958603001226,32.352134957991 69.27468563541822,31.914298486048846 68.6069850154351,31.440639029668272 67.70743008180656,30.843589294959067 66.96808349365833,30.457497133299068 66.04116378052228,30.10324762397896 65.08240141486841,29.86044739858986 64.04502750081116,29.56590286268136 63.44947039043873,29.370866615950373 62.917101043656345,29.255437000751193 62.29865702684604,29.143987716820188 61.84340660407096,29.02855810162101 61.581699803749395,28.877305502220654 61.2100363438336,28.662367597488092 60.86822537077189,28.43548869853584 60.19704196072894,27.989691563286296 59.49700114666376,27.472248459753025 59.19001807473411,27.145861271326705 59.07558354224818,26.90306104611554 59.002444949805614,26.68414280975894 58.85616776474255,26.477165568571014 58.70790041401574,26.24232600631137 58.64769789903992,25.955742133769572 58.6989446679951,25.61741395053044 58.84920218456359,25.20743979924483 58.97109983867407,25.012403552869714 59.1472295104726,24.841249295527096 59.34574854726341,24.71387868551511 59.46366586980917,24.63825238560734 59.748259576746534,24.415353818160504 59.922896624148976,24.212356908062816 60.158233727913526,24.029261656263262 60.60602102894636,23.77850076756677 61.02146813601392,23.571523526200913 61.41900375104021,23.33668396394127 61.78718442071917,23.141647717388217 62.23497172175107,22.95457213390531 62.371795619288605,22.91476881825803 62.90068217595277,22.727693234597186 63.60271315568075,22.476932345900696 64.01915534569974,22.313738751687534 64.61471245601287,21.983371232170974 65.1326531008731,21.593298738649693 65.60531747418456,21.079835966977708 66.09738596387406,20.594235515784327 66.61632169162455,20.108635065006126 67.0755524460246,19.762346218815477 67.45418148600166,19.543427982814745 67.88704254372422,19.324509746873325 68.47264882518483,18.970260237553216 69.08711251043042,18.448836802514528 70.14936349676722,17.56520319508559 70.6991467942046,17.051740423413605 70.92950848345392,16.777097545269434 71.17678658191265,16.5342973197024 71.33351213733313,16.223831457712922 71.47033603487066,15.937247584993193 71.65989932564082,15.73823100675679 72.00668571315845,15.511352107626603 72.28182613262959,15.268551882237503 72.37287621717181,15.13322060909606 72.5241288165731,14.914302372917394 72.86096437523821,14.444623248220173 73.25750490749193,13.895337492524947 73.60727654362472,13.529146988392032 74.14362622203113,12.999762890461135 74.87152935687146,12.207676909139565 75.70043340522608,11.26035799643773 76.26912327753661,10.428468699468878 76.71939828585577,9.767733659664708 77.16420033815483,9.138841272793545 77.53884904668485,8.557712864165316 77.87866985402351,8.111915728856461 78.2776980934468,7.837272851068161 79.08421277669052,7.4949643362049905 79.68524284296446,7.367593726193005 80.17134083530686,7.40341671039418 80.97984568439132,7.534767652089517 81.65401434316807,7.666118593547608 82.18190581694013,7.757666219536354 82.70034400324596,7.841253182395643 82.87249334353906,7.920859813749516 83.11181077880903,8.028328766175107 83.51034147672742,8.239286338868448 84.04967640374808,8.40247993308161 85.02087730548241,8.458204575047114 86.35478592117121,8.370637280504473 87.3896721279412,8.25520766512736 88.54993877905942,8.044250092493332 89.6519930810435,7.753685888268183 92.22577497914602,6.989462227484528 94.97220375874814,6.054084310129304 96.05087361278945,5.648090490467731 96.61856840220878,5.437132917477833 99.14259615569289,4.08382018529236 99.76153771400716,3.74549200246841 100.08394457075013,3.566377082174271 101.09693895397344,2.9693273474650628 101.7959846850288,2.599156511648796 102.59951411971758,2.217044681672149 103.36523040442191,1.918519814317545 104.0090490350769,1.743385225291576 104.65286766561235,1.7035819095849838 105.40316016556267,1.8070705302086016 106.41316930017264,1.9424018035279786 107.36198083685538,1.9065788193268032 108.21028900158713,1.7075622410904003 109.39941305660987,1.3572930636315779 110.74476512542864,0.9194565912742457 111.632379064363,0.7164596817696728 112.51850037896058,0.601030066155313 113.62652517829176,0.4776397876487433 115.90028958470197,0.2826035412736265 117.22126212268678,0.15921326252981058 118.17355644954796,0.09950828911820134 119.32038948169455,0.047763978776736646 120.55976522266174,0 121.75585485780321,0.08358696303722382 122.2772782928419,0.13533127331937694 122.78676073312708,0.18309525215542516 123.65696072146577,0.3582298407662133 124.5122344664367,0.5731677454394629 124.99037179559035,0.7284006761672992 125.46602141763466,0.8597516180405712 125.64364371371065,0.9712009019122683 125.88345869048644,1.0707091910304696 126.39393621366189,1.1821584746056089 127.04671059021797,1.2776864324556398 128.0840845042752,1.3931160476548188 128.9886148523597,1.4329193633020993 129.82448448095258,1.4647620158792354 130.6802557673691,1.5204866578447396 131.69623539926593,1.6677589257396777 132.3181622062547,1.8070705302086016Z"/></svg>