<svg xmlns="http://www.w3.org/2000/svg" width="256" height="256"><path d="M44.04557857079557,7.95227589702273 44.136325262782286,7.961828180382261 44.14110140446205,7.914066763299928 44.225877919277885,7.842424638388128 44.281997583943955,7.832872355028598 44.414535515628614,7.823320071669067 44.45155061357562,7.804215504878836 44.53035695136292,7.766006371440714 44.66528295374512,7.703916529674935 44.70110401634336,7.694364246244234 44.82289562924854,7.6752596793116625 44.859910727195555,7.670483537987748 45.01632936727904,7.660931254628217 45.091553598735345,7.646602829446581 45.14528519256153,7.632274404264945 45.181106255230944,7.622722120905415 45.25274838035625,7.598841412791268 45.28737540753455,7.579736845858697 45.435435799678444,7.517647004092918 45.484391251896035,7.508094720946898 45.534540739533576,7.503318578911283 45.63842182106847,7.503318578911283 45.7924523902409,7.517647004092918 45.81991520482838,7.5415277126340845 45.84618398406709,7.570184562499167 45.90469171964421,7.622722120905415 46.028871403318114,7.933171330232499 46.27006655821743,8.214963689552162 46.78827793047196,8.82630982420627 47.28022052348779,9.408999109493486 47.526191819924534,9.609597059758949 48.083806361037134,9.80064272687839 48.502912793436536,10.09676351109501 48.75963040872392,10.564825395712008 49.391275146015225,12.279460258676579 49.880829668048825,13.358868278659386 50.4790414135106,14.829919915600078 50.938745050116836,16.000074627213746 51.15128335493756,16.549330920600266 51.74113685231741,16.062164469264204 52.56502129214809,15.503355892518156 53.286218685792655,15.063950858264429 54.19129753410817,14.471709289617682 55.761454111259845,13.511704812340707 56.603249082318484,13.01976221918254 57.69698552698473,12.465729784258595 58.96863324922224,11.687218690741533 59.70654713874598,11.257365939135635 61.016403994492784,10.54094468717084 61.94536355113597,10.01556910282368 63.01521928740339,9.370789975770684 63.51313205751892,9.108102183241252 63.542982943017456,9.14153517514195 63.57283382851599,9.170192025505221 63.83790969181413,9.342133125905603 64.0062686859547,9.48541737615622 64.25104594711384,9.72900060175308 64.3800017724675,9.814971151846516 64.46716635805204,9.867508710679784 64.76925731936836,9.948703119235795 64.90776542808156,9.977359969100876 65.07493038680218,10.039449810866655 65.39970802109738,10.173181777828914 65.44866347324381,10.201838628121015 65.5155294568317,10.21616705308914 65.95493449129893,10.244823903452414 66.0003078372567,10.244823903452414 66.04329311237458,10.244823903452414 66.12209945016188,10.225719336662182 66.1591145481089,10.21616705308914 66.53881781172142,10.168405636504998 66.82896841876715,10.163629494469383 67.37941874728894,10.259152328135858 67.47971772263517,10.297361461858662 67.54538967073195,10.306913745218193 67.6528528584555,10.316466028364212 67.71971884211455,10.316466028364212 67.90360029671434,10.010792960788063 68.48390151073465,9.165415883469606 68.80987318037864,8.554069748744327 69.38420421737041,7.88063377161274 70.07196861932779,6.958838427346868 70.44331363485837,6.505104967911505 70.83495725259912,6.046595366867547 70.80510636710059,6.003610091393809 71.10242118673715,5.951072532987561 71.45466163561984,5.831668990993428 71.7340659238861,5.798235999306241 72.51854719471639,5.793459857768816 72.89705642290896,5.807788282879282 73.2672074030196,5.807788282879282 73.46541728280103,5.841221274352959 73.71377665014883,5.931967966482009 74.04930060308116,6.080028358341224 74.08750973659046,6.0895806417007545 74.32154067889897,6.099132925060284 74.37169016646533,6.094356783522859 74.41825754784304,6.084804500163329 74.49825792097911,6.046595366867547 74.74422921755819,5.903311116332247 74.86960293658086,5.85077355771249 74.9113941762788,5.836445133029044 74.95318541604793,5.817340566238813 75.04632017880334,5.817340566238813 75.09408159552983,5.812564424487877 75.2636346251615,5.807788282879282 75.34841113997733,5.812564424487877 75.47020275288251,5.817340566238813 75.50841188624948,5.831668990993428 75.90483164566999,5.917639541300374 76.28572894470244,5.974953241528727 76.65110378313332,6.041819225116611 77.03438915293448,6.10390906666888 77.41051031028717,6.1898796169758254 77.79379568008834,6.251969458955115 78.20096175828833,6.256745600563709 78.44454498395636,6.304507017646043 78.5854411635806,6.3522684340166755 78.66066539489456,6.376149142557842 78.70484470557473,6.380925284308778 79.13350342119134,6.696150635030947 80.04932858828633,6.3857014259173726 81.23022961860829,5.931967966482009 82.20098041509176,5.45435379850548 82.84695357720885,5.984505524674748 84.01830232431362,6.887196302435069 86.11622255707937,8.678249432347055 86.33711910969734,9.026907774969922 86.34786542847681,9.093773758557807 86.3598057827474,9.174968166829137 86.36816403061582,9.46631280922365 86.36935806603576,9.771985876799798 86.45891072253136,10.058554377870397 86.50786617474895,10.101539652917115 86.7204044794985,10.35945130341093 86.9687638468463,10.61258681279434 87.1884663641155,10.83706547138746 87.2087649662545,10.865722321466052 87.23622778098432,10.923036021694406 87.24339199343281,10.980349721922758 88.02667922898549,11.457963889899288 88.63205518682456,11.572591290071315 89.21235640105839,11.496173023123902 91.42848614032715,10.908707596726279 92.73834299607395,10.502735553946229 94.0792447725969,10.072882802767353 95.31865353849598,9.604820918150352 96.5616444106549,9.055564624835004 97.20522950200328,8.883623524434624 97.88821776228089,8.845414390925331 98.11269642122986,8.85496667456954 98.47687722424078,9.098549899881721 99.45956837492366,10.254376186811944 100.85061963908414,12.312893250363766 101.84286307312655,13.707526621282254 102.74435981518225,14.724844799001092 104.0864556271963,16.3821659615238 105.2876552595861,17.87709830764619 105.39511844745199,18.01560641643055 106.82318480970181,18.00605413307102 108.42438630777195,18.044263266082122 109.13125527644839,18.0681439748368 110.73723291619831,18.12068153302954 110.92230840636037,18.1397860997486 110.96648771682703,18.144562241570704 111.00111474400533,18.15889066646766 111.08947336508099,18.197099799976954 111.22081726134572,18.28307035007039 111.26499657181238,18.31172720036249 111.33186255547142,18.345160192263187 111.43813170770386,18.397697750455926 111.73425249192047,18.612624126401215 111.91574587568039,18.784565226801593 111.93365640705068,18.822774360239716 112.00768660308704,19.080686011018212 112.04708977194511,19.109342860883295 112.14619471180023,19.252627111418594 112.44470356678556,19.768450412619735 112.88649667209269,20.537409222990778 113.32351363579122,21.292039608678376 113.82262044139786,22.17084967768402 114.24769705082579,22.925480062873426 114.75993824598062,23.780409423836097 115.03456639256713,24.004888082642726 115.47635949794542,24.26279973313654 115.95636173676183,24.410860125422776 116.5199464550453,24.468173825437617 117.00711290638137,24.48727839215668 117.60771272254068,24.539815950847608 118.07935671341751,24.544592092385034 118.52353788963568,24.439516975572538 118.74801654865581,24.28190430006911 119.30204898357977,23.89981296583023 120.34682997602842,22.696225262244692 120.8817578440198,21.99890857728364 121.64713454820219,21.167859924648628 123.33908273825904,21.23950205027213 123.49311330743147,21.40189086731298 124.11759383213196,22.31413392821932 124.76476102981132,23.083092738590363 125.46327175033466,24.15294847450194 125.73789989692116,24.482502250619255 126.10327473542321,24.745190043148686 126.43641061772918,24.845489018139077 126.47581378651607,24.835936734779548 127.0919360632058,25.251461060990298 127.66029692316903,25.42340216139068 128.24776234963784,25.46161129511348 129.08836328527653,25.394745311525597 129.94568071679439,25.39952145327653 130.43881734523015,25.40907373670723 130.70389320852829,25.46161129511348 130.81732657335155,25.581014837107613 130.86628202556915,26.09206199677133 130.79583393579261,26.9040060824026 130.83762517556173,27.94042882662699 130.9319539736659,28.43714756160726 131.02508873642134,28.80491047094919 131.32837373308644,29.105807396489723 131.5385239669961,29.387599755524704 131.7092710321189,29.655063689805072 131.92300337228838,29.912975340583568 132.31464698995796,30.285514391676433 132.5236031884477,30.533873759024228 132.75524605991632,30.791785409802724 132.8495748580917,30.858651393105927 132.92599312496793,30.89686052640171 133.07763562337166,30.95895036816749 133.1588300318565,30.96850265174053 133.24360654667234,30.96850265174053 133.29375603430987,30.96850265174053 133.36181605338885,30.96850265174053 133.40480132843558,30.978054935100058 133.46689117020136,30.992383360068185 133.51465258707017,30.99715950189029 133.59465296020625,30.99715950189029 133.59345892471512,31.07835391016162 133.60539927898571,31.317160994149884 133.86211689420193,31.570296503319785 134.26211875995344,31.938059412661715 134.91883824092116,32.33447917236691 135.28301904393211,32.58283853971471 135.81317077045722,32.84552633174595 136.1033213774318,32.960153732202656 136.6454134582275,33.198960816190926 137.6842242735053,34.01090490160868 138.32422725852265,34.37866781095061 138.94273760612344,34.84672969556761 139.41915773860885,35.30523929703859 139.78333854176213,35.553598664172874 139.94811542971402,35.76374889829606 140.0221456257504,35.94524228205597 140.04960844033786,36.184049366044235 140.0018470236114,36.50882700012593 139.643636397629,36.761962509509345 139.48841179296545,36.895694476186925 139.41676966776896,37.110620852132215 139.34751561341238,37.368532502626024 139.15885801706165,37.755399978473505 139.02990219170798,38.07062532940918 138.90572250803407,38.347641547120254 138.643034715647,38.873017131680925 138.4316904463174,39.26943689138613 138.117659130944,39.665856650379624 137.74512007985112,40.07182869344435 137.13974412194088,40.487353019370424 136.66451802487538,40.673622545165955 136.21794877774616,40.754816953721964 136.06153013780502,40.68317482852548 135.81197673496612,40.47302459447347 135.59346825311684,40.1243662518506 135.45615417989478,39.9094398764035 135.27943693767227,39.77570790901423 134.98451018894679,39.747051059362654 134.66689676724238,39.75182720068657 134.3230145662993,40.043171843294594 134.2059990952162,40.28675506889145 134.17256610345785,40.888548920613054 134.07584923437142,41.452133638967695 134.06032677391218,42.015718357251174 134.11883450948932,42.58885535868067 134.4770451354717,42.521989374879276 134.5080900563902,42.50288480837372 134.59644867746584,42.47422795843747 134.72659853823944,42.43601882478584 134.82570347809457,42.42646654163982 135.1767498916285,42.37392898323357 135.4657064632543,42.364376699874036 135.51943805715166,42.364376699874036 135.56719947387813,42.37392898323357 135.75585707022887,42.407361974920754 135.79048409740716,42.4216903996042 135.82749919542536,42.431242683177246 136.20720245903786,42.44079496653677 136.57018922670002,42.41213811624467 136.91168335673208,42.354824416443336 137.320043470352,42.31183914118311 137.35944663921006,42.30228685761007 137.40243191432796,42.28795843292662 137.49556667715456,42.268853865922885 137.57317897937958,42.24974929920382 137.71168708809276,42.24019701584429 137.8800460823045,42.2067640241571 138.0913903517053,42.17333103225641 138.18094300820087,42.15422646575085 138.5678104841907,42.073032057194844 138.60243751136898,42.06347977362181 138.99766323544074,42.03959906529415 139.38691878227044,42.03482292375672 139.4645310846378,42.02527064039719 139.5767704140411,42.001389931856025 139.93736911093455,41.87243410671587 139.97796631521257,41.853329539996814 140.26095270973866,41.83422497320658 140.62990965450052,41.829448831669154 140.67647703580707,41.829448831669154 140.80304479039202,41.79601583976846 140.8448360300188,41.786463556408926 140.8854332342968,41.76735898990338 140.9678216783439,41.748254423113146 141.04185187438028,41.74347828136221 141.10274768079728,41.690940722955965 141.33080844600607,41.48556663058371 141.46573444845944,41.289744821926845 141.50991375899727,41.21810269630335 141.6484218676393,40.941086479303976 141.7045415324477,40.778697662049616 141.89916930596934,40.65451797823338 142.11528971683637,40.458696169291834 142.28842485272787,40.31063577743262 142.36603715509523,40.23899365202263 142.41976874899257,40.19123223543849 142.4496196344911,40.162575385288726 142.4806645554096,40.14347081835616 142.51648561793664,40.1195901100285 142.57021721190517,40.110037826668965 142.66454601008056,40.1243662518506 143.0000699630129,40.25809821902637 143.3594746244152,40.363173335838866 143.7236554275685,40.38227790234442 143.77022280887505,40.38227790234442 143.8155961548328,40.38227790234442 144.0412688492017,40.45392002796792 144.39589736899546,40.55421900317182 144.77440659711687,40.649741836624784 145.13261722309926,40.711831678461735 145.49321591985037,40.754816953721964 145.8550086520926,40.77392152022752 146.24307016357352,40.831235220455866 146.57620604573717,40.8407875038154 146.96546159263804,40.83601136199329 147.33680660831095,40.8073545119147 147.70815162384153,40.79302608716009 148.10576541868198,40.78824994540915 148.50934939069333,40.77392152022752 148.58457362214963,40.821682937309845 148.90338107927397,41.00317632085625 149.20308396960806,41.18466970461616 149.45860754947552,41.39959608049028 149.56129459559045,41.48556663058371 149.67592199590484,41.561984897317615 149.70816095224325,41.57631332228574 149.78696728995936,41.59064174768089 150.2299544307576,41.96795694016884 150.72309105919337,42.4216903996042 151.1051823935746,42.72258732585644 151.44190038199804,42.8181101593094 152.57384596010243,42.82766244266893 154.06639023502908,42.93751370130354 154.8472893996707,42.99482740124721 155.47176992430002,43.07124566840813 156.39237123307478,43.343485743870076 157.38819677330585,43.73990550357527 157.957751668689,44.01214557925073 158.44491812002508,44.327370930186405 158.79835260432773,44.63782013908647 158.91178596915097,44.74289525632599 159.0085028382374,44.87185108175082 159.27238466611558,45.225285565697604 159.5338784229404,46.022901226360744 159.84552166754509,46.89693515361545 160.02343294518752,47.67544624734603 160.15955298298965,47.94291018169756 161.1255276377222,48.11007514027584 162.0389647339773,48.25813553263325 163.0479246638989,48.420524349674096 163.80374908472174,48.54948017502776 164.34345309446405,48.48261419143987 164.4079310071409,48.473061908080346 164.47837909691742,48.4873903329773 164.70166372044645,48.56858474153331 164.78882830617334,48.611570016580025 164.92733641488653,48.65455529184025 165.0276353901616,48.683212142132355 165.17211367597451,48.74052584193369 165.2210691281921,48.759630408866265 165.27002458033851,48.77873497565649 165.32017406797607,48.78828725901602 165.58763800204292,48.78828725901602 165.6951011899088,48.773958833834385 165.91241563633812,48.73574970060977 166.074804453379,48.72619741696556 166.3171936437694,48.773958833834385 166.67898637594047,48.87425780932297 167.0145103288728,49.07485575958843 167.21510827942294,49.27067756874349 167.49331853226929,49.499932369158714 167.5434680199068,49.52858921952198 167.79540949351443,49.60978362779331 167.84555898115195,49.62411205297495 167.98287305451638,49.62888819472589 168.3506359638583,49.66709732802167 168.40914369936428,49.65754504487565 168.4592931870018,49.68142575291862 168.49511424967122,49.69097803656283 168.53332338303818,49.7100826032819 168.81033960046454,49.753067878328615 168.87481751314138,49.767396303510246 168.9213848945191,49.77694858686978 169.30586429981136,49.781724728193694 169.69631388206102,49.77694858686978 170.06288275605417,49.77217244483416 170.4676607633431,49.77217244483416 170.836617708105,49.767396303510246 171.21393290080644,49.753067878328615 171.60557651861836,49.714858744819324 171.9936380300993,49.6766496113812 172.18468369721873,49.65276890284003 172.2969230267644,49.647992761516115 172.56558099625119,49.6432166194805 173.39901771929905,49.638440478085414 173.77633291200053,49.65754504487565 174.14170775057374,49.71963488642792 174.51902294320402,49.877247562073684 174.8342482941397,50.05396480386915 175.15902592829258,50.23068204630514 175.1924589201221,50.24501047148678 175.25574279737899,50.25933889617023 175.37992248098172,50.26889117952975 175.76917802795376,50.26411503799233 176.14649322065523,50.26411503799233 176.53336069664505,50.249786612810695 176.60261475100162,50.24023432945116 176.73037654093537,50.20202519615538 176.79246638277232,50.1781444878989 176.8497800829295,50.144711495998195 177.22590124028218,49.98709882070828 177.5578430869547,49.85336685360368 177.76918735635547,49.77217244483416 177.82769509186144,49.753067878328615 178.16680115119595,49.753067878328615 178.22650292219302,49.757844020079546 178.5715791584849,49.84381457017298 178.62292268154235,49.85814299514111 179.0181484056141,49.86769527871415 179.42770255458282,49.925008978515486 179.77994300360785,49.996651104067816 180.0259142999734,50.07306937080172 180.38770703221564,50.12560692949265 180.77576854369656,50.24501047148678 180.94651560874817,50.330981021580214 181.01696369859587,50.37874243816436 181.16263601982874,50.54113125520521 181.2868157035026,50.80381904773464 181.3357711557202,50.88501345650416 181.62472772734603,51.22411951548281 181.8635348113343,51.46770274129319 182.14413313494933,51.66830069198567 182.21458122472586,51.71606210842747 182.36502968763847,51.792480375374886 182.61697116124608,51.85934635917628 182.99070424768772,51.88322706750394 183.7883199082797,51.87845092568183 183.97220136295067,51.88800320904136 184.32921795344194,51.95964533445135 184.72205560660265,51.997854467675964 185.10175887021515,52.05516816790432 185.46593967329727,52.09815344316454 185.87310575149726,52.09815344316454 186.1716146064826,52.131586434851734 186.52863119697386,52.255766118596796 186.9166927084548,52.31307981839813 186.98952886907122,52.33696052715281 187.24385841351872,52.34173666869023 187.35848581383308,52.33696052715281 187.71430836904676,52.2605422602054 188.08565338457734,52.14113871821126 188.23848991832983,52.12681029302963 188.2886394059674,52.12681029302963 188.3364008228362,52.136362576602664 188.38058013337402,52.1554671433929 188.6886412717189,52.33696052715281 189.00147855167234,52.523230052734824 189.31073372550833,52.70472343628123 189.6068545095826,52.91964981172833 189.89939318761057,53.16323303775221 190.15611080275562,53.3733832713772 190.43670912658416,53.55487665542179 190.65999375004202,53.664727913985224 190.72088955638785,53.68860862252639 190.98596541961484,53.72681775582217 191.12686159923908,53.755474605687255 191.19253354733584,53.77457917261982 191.25581742459275,53.80323602276959 191.57343084622596,54.01816239821668 191.67253578608108,54.089804523341996 191.97701481816614,54.280850190746115 192.27313560231158,54.467119716328135 192.3292552670488,54.50055270794415 192.71015256608126,54.629508533368984 193.08985582955145,54.696374516672186 193.40746925125583,54.71547908367593 193.80150093983647,54.725031367035456 194.08926347604233,54.777568925228195 194.15612945955905,54.79667349194726 194.47135481049472,54.95428616766419 194.77822191341966,55.10712270134551 195.02896935153615,55.33637750190307 195.25225397513634,55.59428915268157 195.52449405088296,55.842648520029364 195.5591210779901,55.866529228570535 195.59136003432852,55.88563379507608 195.66658426578482,55.919066786976785 195.7764355244194,55.96682820377443 195.81703272869743,55.98115662852905 196.0438994584863,56.06235103729857 196.12031772536253,56.081455604017634 196.20509424017837,56.1053363125588 196.33166199476332,56.15787387096505 196.60390207043875,56.34891953787098 196.86061968572614,56.59250276368135 197.06002360085634,56.859966697534695 197.22241241803954,57.13220677342366 197.40151773103074,57.41877527449426 197.5448019814237,57.68623920813409 197.64987709837854,57.958479284023056 197.69883255059614,58.111315817917884 197.70241465678478,58.21161479319296 197.68092201922585,58.80385636134151 197.67375780677736,59.009230453429076 197.6713697358663,59.104753287095555 197.7059967630446,59.319679663040844 197.72032518822624,59.357888796051945 197.77644485282113,59.43430706299936 198.01764000772047,59.63968115530044 198.29346218965574,59.854607530747536 198.56450823005358,60.059981623048614 198.84988269534838,60.2749079989939 198.97525641444224,60.384759257557334 199.19137682552278,60.54714807438467 199.37525828019375,60.661775474841384 199.64272221418943,60.76207445032996 200.01048512353137,60.90058255882965 200.1095900633865,60.9483439756273 200.24929220751963,61.0295383839698 200.33168065156676,61.0916282261626 200.58839826678297,61.31133074321829 200.64810003778004,61.373420584984075 200.67675688785863,61.402077435347344 200.8176530674117,61.50237641033773 200.90481765306743,61.57879467749866 200.92989239688617,61.602675385612805 201.07795278903006,61.72685506942904 201.33944654592605,61.95610987027129 201.49108904432978,62.05163270372425 201.79795614718353,62.233126087270655 202.1215397460588,62.3573057713004 202.23497311088204,62.39073876298759 202.29348084645918,62.40029104634712 202.55975074517727,62.49581387980009 202.63855708282222,62.52447073009219 202.9764691066656,62.65820269684094 203.02303648811449,62.6820834053821 203.37408290150606,62.839696080600845 203.73468159839953,62.96865190616802 203.86124935284212,63.00686103967731 203.9412497259782,63.03074174821848 204.14781785369922,63.06895088122958 204.22184804973557,63.08327930662473 204.3233410603594,63.097607731521684 204.36393826463743,63.10238387313028 204.4093116105952,63.10238387313028 204.77229837825737,63.16924985671816 204.823641901386,63.1835782818998 204.8714033181125,63.20268284861886 205.02782195819597,63.31253410725346 205.06961319782275,63.34119095711854 205.2009570940163,63.470146782472206 205.3752862653989,63.737610716823745 205.49349577190193,64.00029850885498 205.56394386167847,64.17701575107748 214.97413700637838,65.49045471301292 223.5079081525567,69.02002341443065 227.29538850461057,70.55794103517273 230.19689457513914,72.68332408295298 231.73958833770334,73.37586462644778 232.66138368182686,73.79138895237385 235.0673650530798,74.03497217818422 234.97900643200416,74.12571887031326 234.52766104319517,74.51258634616075 234.0894500440767,74.95199138084149 233.6619853637377,75.39139641516638 233.59989552197192,75.54900909081215 233.5007905821168,75.83080144963363 233.48765619242627,76.07438467523049 233.46377548402745,76.52334199355545 233.32765544615413,77.28274852056695 233.32884948157408,77.70304898810163 233.41720810264974,77.95618449748504 233.43034249234026,78.18543929811376 233.48049197997778,78.519769215555 233.5664625301424,78.78245700808444 233.01959430780929,79.3078325924316 233.03750483917955,79.40813156792018 233.0124300953608,79.61350566000775 232.92407147428514,79.7806706190842 232.77481704679246,79.96694014459506 232.48586047516667,80.22962793669747 231.59630408723922,81.02724359743178 230.8595842332066,81.72933642421494 230.61003083043886,81.9729196500253 230.15749140628108,82.37411555126793 229.76942989480017,82.69411704352753 229.21897956613603,83.23859719487844 228.64106642288442,83.7878534884073 228.3664382763691,83.96934687223838 227.8637493645738,84.45651332357444 227.35031413392787,84.8768137911091 226.8106101241144,85.03920260814995 226.3341899915578,85.21591985058595 225.9819495426751,85.29233811753336 225.45537992255214,85.39263709280843 225.05298998603192,85.4881599262614 224.5514951095854,85.59323504307389 223.98671635595315,85.69831016031341 223.52223657759598,85.88457968546841 223.22014561635083,86.03741621936324 222.78193461723237,86.50547810398024 222.6195458001915,86.71562833810341 222.5562619230058,86.87324101332216 222.46909733720773,87.0690628220502 222.44521662888008,87.36995974823127 222.34611168902495,87.96220131645099 222.27208149298858,88.58787587628673 222.18611094268164,89.34728240329825 222.16103619886286,89.5813133459626 222.08700600289768,90.18310719725717 221.92700525655437,91.03803655814868 221.91387086700618,91.36281419251506 221.81476592715106,91.77833851865464 221.8040196083716,92.29416181992694 221.69178027882592,92.77177598790348 221.60461569324139,93.2780470057451 221.5174511075145,93.57894393192615 221.41834616765937,93.90372156600785 221.20700189840093,94.56760525935289 221.11983731267404,94.94969659366295 223.9628356476255,97.64344050112175 226.6613556966217,100.26076614184663 227.96882448152863,101.3974878613461 228.22793016772707,101.83689289631153 228.4547968973736,102.02793856321745 228.67569345020507,102.3001786388929 228.8142015588471,102.61062784821999 228.93957527786978,102.85421107381686 228.97778441137905,103.05958516590442 229.05420267818414,103.39391508355916 229.1688300784985,103.79988712662389 229.2953978330123,104.10556019420004 229.43390594172547,104.71690632885415 229.52226456280113,105.03213168000333 229.5473393066199,105.14198293842443 229.66196670693427,105.32825246379294 230.11450613109204,105.8440757654211 230.74495683289223,106.84706551802947 231.14973484018117,107.72587558703512 231.36346718035065,108.24169888873445 231.4769005452451,108.4757298309006 231.66675217701575,108.6906562063477 231.9927238467309,108.98200084916924 232.5300397857045,109.42140588349413 233.51153690096743,110.04230430200596 235.1975149138534,111.1646975965373 236.21483309157225,111.79037215687123 236.932448378957,112.27276246617167 237.51752573472825,112.83157104291773 238.0452893903423,113.42858875288839 238.4237986184637,113.56232071977948 238.83812890925452,113.748590245575 239.17723496851787,114.08769630462483 239.49126628396243,114.507996772373 239.55574419663924,114.69426629795502 239.69544634077238,115.49188195868933 239.822014095215,115.9790484100254 239.94858184979995,116.24173620234131 240.15873208363845,116.45666257800193 240.28410580273228,116.54263312809536 240.6112715077962,116.66203667008949 241.03873618820637,116.82442548713034 241.6285896855862,116.97248587941658 242.50859379008298,117.22084524676437 243.06859640210664,117.50263760558585 243.65009165161806,117.79398224826504 244.5921855978806,118.30502940814226 245.5354735797054,118.76353900932857 246.12532707708525,118.98801766820637 246.55279175742425,119.25070546066462 246.75338970797438,119.36055671929923 247.26921300938903,119.42742270246009 247.74563314194563,119.5038409694075 248.04772410326194,119.56593081138679 248.39877051665354,119.58503537817703 248.6375776006418,119.6423490781207 249.01489279334325,119.80951403698366 249.3408644630584,119.94802214569685 250.84415505676452,120.01011198746262 253.1975988694689,119.98145513738403 254.5528290710311,119.95279828751896 255.104473435044,119.89548458707709 255.1355183559625,119.96235057087848 255.18566784360002,120.03399269579029 255.35283280239182,120.25847135509511 255.36238508589366,120.34444190540205 255.36238508589366,120.5068307224429 255.31223559818497,120.8316083565246 255.17850363108036,121.0417585905766 254.97312953892163,121.2280281157316 254.6041725940886,121.38564079144854 254.23402161390678,121.48593976665245 253.90446783807414,121.64355244194236 253.6895414624847,121.8393742508839 253.6895414624847,121.95400165126945 253.66088461247728,122.36952597726669 253.5999888059891,122.99042439577852 253.517600361942,123.34385887993881 253.4256596346777,123.51102383880176 253.11879253168158,123.86445832317557 252.7808805078382,124.17490753236031 252.44177444864602,124.48535674147388 252.35460986291915,124.65729784187427 252.33550529620007,124.75282067582542 252.34983372123938,124.83879122591885 252.37610250054925,124.91043335083066 252.40595338604777,124.97252319302345 252.49908814873203,125.02983689282479 252.71043241813283,125.07759830990712 252.848940526846,125.07759830990712 253.05431461900474,125.04894145954384 253.24297221549782,125.00118004317322 253.71461620630348,124.84834350927838 253.98088610487923,124.8149105175912 254.39282832475897,124.80058209219605 254.84536774891674,124.86744807578394 255.16417520604108,124.97729933463205 255.34925069613197,125.07282216808501 255.535520221714,125.25909169366703 255.74089431387273,125.52655562752038 255.93193998106335,125.98506522877784 256,126.30506672174914 256,126.65850120569593 255.87223821006629,127.03104025707347 255.67283429493608,127.26984734106173 255.28238471268642,127.46566914978976 254.7080536756235,127.54686355806109 253.86625870456484,127.5802965499618 253.2143153652769,127.56596812499367 252.45729690903408,127.47999757490024 252.05729504342492,127.45134072460813 251.74445776340028,127.51343056637391 251.57490473376862,127.5755204083532 251.5068447147608,127.6567148166957 251.47699382926226,127.78089450072545 251.4638594396429,128.3731360686605 251.4172920582652,128.57373401963767 251.24535095779365,128.86030251999657 251.06027546770275,128.99403448738585 250.12176362770003,129.25672227970176 249.7814635329456,129.31403597964544 249.64295542423238,129.29970755496197 249.46265607582126,129.25672227970176 249.2883269045098,129.15642330442668 249.0566840330412,129.00358677053185 248.8895190743206,128.94149692897957 248.73548850521934,128.92716850358443 248.53966669627778,128.93194464562006 248.26384451420017,129.04657204557856 247.8924994985984,129.28537912956685 247.2250336988512,129.71045573935064 246.89786799385845,129.96359124823584 246.6936879369773,130.14986077360436 246.42502996749053,130.33135415764895 246.05607302272864,130.57971352499675 245.8101017263631,130.78508761729782 245.5342795442143,131.26270178527434 245.4112938960315,131.61136012789723 245.38144301053296,131.97912303723913 245.43278653351928,132.24658697109248 245.5975634214712,132.51405090544404 245.79338523041272,132.7146488557095 246.0512968810489,132.8579331062448 246.37965662153275,132.89136609793198 246.98622661486294,132.92957523115658 247.38145233893468,132.91047066443753 248.06085849281013,132.87226153142643 248.50384563360836,132.7528579894323 248.87877275554112,132.63823058876207 249.7886277455364,132.23703468773297 250.19937592992505,132.07942201251421 250.423854588874,132.04598902082702 250.53848198918837,132.08419815383812 250.64594517712544,132.14151185428 250.70206484172036,132.26569153802507 250.76773678981712,132.56658846385028 250.77012486072817,133.50748837440818 250.831020667074,133.6937579002037 251.01729019265602,133.99943096777986 251.47102365223373,134.56779182738725 251.80057742806636,134.90212174532667 252.05848907884487,135.25555622927345 252.27938563146284,135.53734858830845 252.65073064713576,135.8716785059632 253.05789672533575,136.26332212363278 253.19640483404893,136.40183023255946 253.27043503001414,136.50690534965665 253.41491331582702,136.77436928351 253.48774947644344,137.05138550122106 253.50804807858245,137.33317786025603 253.5092421140024,137.48123825211525 253.4065550679586,137.65795549455126 253.20118097565754,137.7869113196914 252.82028367669625,137.92541942819108 252.66744714294376,138.09736052880498 252.5444614946898,138.2501970624863 252.47281936949332,138.4269143049223 252.36535618169862,138.73736351382237 252.28535580856254,139.28184366538676 252.21371368336605,139.77856240029587 252.15162384160027,140.10334003437757 252.03938451205462,140.1845344429336 251.91639886380068,140.24184814316195 251.75281601126872,140.2275197179803 251.53669560025932,140.12722074270522 251.0626635386138,139.89796594229 250.569526910178,139.69736799159753 249.83877723317394,139.40124720738092 249.61310453873386,139.3296050824691 249.46862625292096,139.35348579051208 249.30384936496904,139.429904057673 249.2536998773315,139.50154618286948 249.2536998773315,139.64005429136918 249.31459568374854,139.74512940839517 249.38743184436495,139.87408523374884 249.38743184436495,139.9696080674865 249.36713324229711,140.20363900943914 249.29668515252058,140.552297352062 249.14384861869692,141.00125467038697 249.02086297044295,141.31648002110913 248.72235411545762,141.72722820549777 248.40593472924434,142.14275253163737 248.0584704220414,142.53439614952046 247.6321997770512,142.9976818923865 247.35040741794504,143.39887779341564 247.18682456548424,143.61858031089835 246.94562941058493,144.04365692018393 246.68652372445766,144.53082337152 246.5635380762037,144.67410762205532 246.34264152351457,144.79351116404945 246.11099865204596,144.80783958880406 245.8901020993568,144.72664518024806 245.66442940505905,144.5690325048158 245.23696472472008,144.30634471249988 244.89785866545674,144.13917975392158 244.71278317529467,144.10097062019878 244.583827349941,144.10097062019878 244.46561784343797,144.12485132873996 244.31158727426555,144.15828432064066 244.1169595008151,144.2490310122715 243.9426303295037,144.3541061293687 243.82442082292948,144.55948022166976 243.7635250165125,144.76963045550826 243.75397273315295,144.96545226423632 243.75516676857288,145.2520207650934 243.708599387124,145.538589266164 243.61188251810876,145.74396335825156 243.37068736335178,146.05441256715162 243.16053712937094,146.28366736778037 243.1247160667727,146.53680287716378 243.10441746463368,146.80904295283923 243.1414325626519,147.13382058713444 243.27994067136507,147.32009011271646 243.61546462443977,147.56367333802862 244.1969598739512,147.81203270537642 244.81905232774062,148.11770577295258 245.2190541933498,148.43770726571037 245.81129576164068,149.17800922593165 246.089506014487,149.43592087671013 246.1826407773136,149.66995181887629 246.2339843002999,149.78457921926184 246.24950676075915,149.86099748599574 246.24950676075915,149.97562488645244 246.23517833571984,150.08070000326495 246.06562530608818,150.48189590429405 245.79099715950167,151.05980904754566 245.55099604016465,151.49443794047548 245.156964351584,151.87175313317692 244.44890134748763,152.4066810013818 244.28412445953572,152.48309926832923 244.156362669602,152.50697997687038 243.97606332119085,152.42100942656344 243.74919659147318,152.27294903420605 243.50203125947417,151.85264856645787 243.38859789457973,151.78578258286998 243.00889463110957,151.70458817459865 242.85008792018618,151.69503589116795 242.55157906520085,151.7189165997091 242.28530916655396,151.84787242506277 242.1253084202818,151.96249982530597 242.05963647218505,152.09623179248175 242.03933787004604,152.19175462593472 242.0130690908785,152.3302627344344 242.03456172836627,152.6072789518608 242.08232314523508,153.0466839863992 242.06680068470467,153.19952052029402 242.0465020825657,153.32847634543418 241.9438150365219,153.57205957145806 241.8673967695745,153.86340421385256 241.8673967695745,153.9780316140246 241.95575539065015,154.25504783173565 242.03694979920616,154.38877979841322 242.12411438486188,154.47952649032877 242.28530916655396,154.57027318245784 242.4954594005348,154.59893003232293 242.73665455529178,154.5846016075683 242.93247636416214,154.53684019077065 243.22262697127906,154.4508696404637 243.35158279663273,154.29803310678238 243.32531401732285,154.20728641465334 243.24292557348923,154.04967373943458 243.24770171509783,153.88728492239375 243.35516490282137,153.73922453003632 243.53427021581257,153.5816118548176 243.81725661033866,153.40489461238158 244.1503924925023,153.25683422052236 244.4333788870284,153.20429666183145 244.5921855978806,153.2234012288352 245.20950190999025,153.40489461238158 245.38860722298145,153.50041744604806 245.54383182757383,153.70579153813563 245.62144412987,153.88728492239375 245.71935503437638,154.17385342275264 245.74084767186415,154.36967523169417 245.74084767186415,154.63236302422362 245.72054906986747,154.8186325498056 245.61905605903013,155.42042640152724 245.50801076497558,155.73087561071196 245.3217412395359,156.0986385200539 244.89785866545674,156.6240141048281 244.79039547759083,156.79595520529963 244.5086031184847,157.22103181479875 244.33427394717327,157.36909220672914 244.1647209175416,157.46939118221772 243.92710786897328,157.24013638158897 241.4172454162566,154.8425132583468 240.41664373441694,153.81564279677022 236.95513505193588,149.8848781943234 234.0548230168984,148.48069254075708 230.69241927434362,147.0191931864642 230.3533132150803,146.78516224451155 229.5736080858586,146.48904146008144 228.87032122351317,146.09262170087442 228.26733333651396,145.81560548316335 227.86494339992257,145.59112682457024 227.26314954827214,145.38575273226917 226.55866865050677,145.2138116318688 225.78015755684737,145.05142281482793 225.00164646290327,144.8460487222422 224.37358383201413,144.67410762205532 223.745521201125,144.4687335295407 223.1425333141258,144.30156857096244 222.33894747643413,143.96723865345004 221.53536163888478,143.7045508609918 220.11684755999448,142.84006921666958 211.27859738151764,139.41079949074043 210.1251591658543,138.89020004750367 209.76097836277222,138.84243863113304 209.585455156112,138.6896020972382 209.03142272118808,138.33616761279325 208.5788832970303,137.79646360305094 208.35201656731263,137.44302911860598 207.64634163405614,136.5260099161622 207.31798189357227,135.8525739392441 207.01469689690717,134.8782410367855 206.96215933842976,134.20480505986743 206.9346965237711,133.28778585713897 206.80693473383738,132.55703618049074 206.85589018605498,131.6447931195844 206.62782942084618,130.914043442438 206.4988735954925,129.50985778880047 206.21946930722623,128.4400020524619 206.16693174882,127.7665660755438 206.0152892504163,127.33671332436494 205.68812354535237,126.75402403936239 205.05767284369452,125.83700483713214 204.85349278688454,125.32118153543281 204.44632670868455,123.90744359843579 203.6260243751137,120.74086166439555 201.27138652706057,120.77907079811835 199.2116754276618,123.11938022091867 198.01047579512965,123.69251722256168 194.64329591089512,125.6077500362899 194.0044869612265,126.30984286307306 193.70239599998135,126.94984584809043 193.7047840708924,127.88596961753794 194.57165378569863,129.6579181809444 195.18658202703958,131.1432982432802 195.3059855690337,131.76897280311596 195.15553710604993,138.3648244631565 194.09045751146226,138.77079650550954 193.70597810624116,138.88542390617977 193.0576168732842,139.07169343169062 191.90656672838958,139.24841067348606 192.17044855619662,139.46333704914667 192.38776300262595,139.67348728305635 192.5752265636279,139.95050350048274 192.77821258501794,140.27528113506264 192.97403439395947,140.5570734940976 193.18299059244922,140.8722988450333 193.32746887811976,141.23528561233962 193.45761873889336,141.5552871050974 193.60209702470627,141.88961702275213 193.65344054776375,142.09976725637713 193.6665749373831,142.16663324017853 193.76209777097841,142.54394843295114 193.70597810624116,142.62991898304458 193.60448509561732,142.6537996915146 193.24508043414383,142.6203666996139 192.9991091376359,142.57738142435366 192.79851118715692,142.3529027653335 192.63851044081363,142.22394693997987 192.49522619049182,142.13320024827783 192.2934342044506,142.14275253163737 192.13582152901833,142.20961851501173 191.90537269296965,142.32424591546842 191.70477474249068,142.53439614952046 191.50298275644943,142.7349940998571 191.36089254154757,142.94514433398027 191.17462301596555,143.0311148842872 190.92865171952883,143.0215626009277 190.65641164371104,142.88783063375192 190.51193335789813,142.83529307534567 190.29581294695993,142.634695124582 190.02118480030225,142.40066418241585 189.96387110021624,142.38155961562563 189.70476541408897,142.32424591546842 189.4456597279617,142.1618570984276 189.2283452814612,142.07111040629854 189.01938908297146,141.9851398559916 188.93341853280685,141.89439316428957 188.67431284667958,141.99469213935112 188.47371489605828,142.0949911148397 188.35550538955528,142.15708095660548 188.18595235985242,142.2621560736315 187.8683389382192,142.14275253163737 187.5519195518636,141.90872158925768 187.47191917872752,141.81797489755564 187.45042654123975,141.78454190565495 187.39550091192243,141.71767592235176 187.31550053878638,141.61737694686317 187.28206754702802,141.5552871050974 187.2199777051199,141.4884211215095 187.1184846944249,141.39767442938046 186.9549018418929,141.1875241956843 186.84385654790955,140.81498514480495 186.77102038722197,140.56184963542154 186.76982635187318,139.92662279243976 186.6969901911856,139.84065224213282 186.5966912159105,139.92662279243976 186.48206381559615,140.14154916788686 186.38176484039226,140.28483341842215 186.28146586511718,140.33737097682842 186.179972854351,140.35169940172537 186.0641514186167,140.36125168515608 185.97937490380085,140.40423696041628 185.92206120364366,140.5045359356202 185.93638962868297,140.6143871942548 185.89340435363624,140.74811916100356 185.7931053783612,140.9391648283365 185.66414955300752,141.10632978698595 185.6366867382777,141.22573332898008 185.67967201346676,141.43588356310326 185.7811650240906,141.689019072202 185.88265803485677,141.96603528948603 185.95549419540203,142.4197687489214 186.01400193097916,142.66335197494527 186.0008675413598,143.0645478759744 185.8504190784472,143.40843007677515 185.75012010331446,143.570818893816 185.63191059659792,143.74275999421639 185.3310136708439,143.9242533781898 184.9739970803526,144.04843306179254 184.4725022038349,144.16306046217807 184.08205262158526,144.2060457374383 183.82414097087795,144.239478728912 183.6808567204138,144.2824640041722 183.60802055979738,144.36365841272823 183.56622932009944,144.5403756549507 183.53757247002085,144.85082486385076 183.58175178055868,145.09440808987466 183.66891636628557,145.2567969069155 183.81339465209845,145.4669471405405 184.1608589592302,145.8251577665229 184.4342930703968,146.17859225118139 184.59309978124898,146.44128004342613 184.86772792790666,146.81859523619875 185.0993707993041,147.10516373677115 185.2295206600777,147.3726276711227 185.3310136708439,147.5923301881072 185.37519298138173,147.89322711414596 185.43370071688767,148.3135275816806 185.43370071688767,148.54278238252286 185.46355160238622,148.8436793082769 185.57937303819168,149.12069552598797 185.65220919873693,149.46457772657521 185.69638850927475,149.79413150269252 185.6689256946873,150.37204464587296 185.64146287995746,150.7589121220051 185.5853432152914,151.22219786480002 185.57220882560085,151.82876785813022 185.2557894393876,152.01981352553432 184.65996576483687,152.44966627642853 182.23249175609615,153.118326111738 179.91725707675874,154.04489759739897 177.67724662894884,154.7374381410361 175.62350570664975,155.51594923498018 175.59007271496256,156.52371512962418 175.55902779397292,158.88790526096565 175.5124604125952,159.13148848670485 175.4635049603776,159.21268289504735 175.4635049603776,159.39417627880727 175.43484811037018,159.85268588006474 175.45037057082942,160.0532838307572 175.29872807242572,160.34940461476032 175.1924589201221,160.57865941538907 175.2055933096703,160.65985382415857 175.01454764247967,160.7601527993625 174.702904397875,161.0085121667103 174.60021735183122,161.07060200854724 174.28738007187775,161.21866240040643 173.6628995471061,161.48612633468682 172.87006002826504,161.9255313690117 172.62408873182832,162.09269632808818 172.4366251709687,162.2407567199474 172.25513178699526,162.48911608729517 172.12617596164162,162.7804607296897 172.06169804903595,163.01926781367797 171.99960820712784,163.6019570989652 171.96259310918083,163.73568906564276 171.84199553169557,163.94106315794383 171.75363691069109,164.03180984985937 171.6378154748856,164.11300425855774 170.96915563971848,164.37091590933622 170.3434810796692,164.64315598522518 169.95064342650852,164.71957425195907 169.87064305337245,164.7243503934965 169.17810250980648,164.6861412602719 169.03362422413593,164.6861412602719 168.6992943064812,164.71957425195907 168.4664573996638,164.76733566854324 168.1225751986495,164.84375393549064 167.67242384526048,165.0109188943536 167.54227398448685,165.0777848779415 167.50525888653985,165.0825610194789 167.17928721682472,165.24972597834187 166.90943521191795,165.39301022887716 166.4962989567606,165.6604741627305 166.25749187277233,165.82763912180698 165.9016693174875,166.11420762216588 165.7786836693047,166.23838730619562 165.44554778714107,166.61570249868356 165.2437558010998,166.81152430762512 165.17808385300305,166.8736141493909 164.54763315127403,167.3416760340079 164.2419600838402,167.58048311799615 163.9673319372537,167.86705161906676 163.47419530874677,168.38287492005438 163.28673174788716,168.58347287103155 163.0264320262688,168.8222799550198 162.9894169282506,168.8461606630628 162.6777736836459,169.09452003069526 162.4174739620987,169.40974538163096 162.27180164093704,169.56735805663618 161.83120257090752,170.15959962499826 161.79538150830928,170.18825647536153 161.72254534769286,170.20258490025847 161.62702251409755,170.25989860027332 161.46821580324536,170.43183970088722 161.1923936213101,170.64198993458336 161.06224376053646,170.73751276824984 160.97388513953197,170.78527418533218 160.89507880167352,170.83303560212983 160.53328606943128,171.0766188275132 160.1619410539007,171.35841118654818 159.3285043307105,171.88856291314445 159.29268326811226,171.9028913383261 159.21268289511852,171.95542889651884 159.1613393719899,171.98408574681093 159.0455179361844,172.08916086390812 158.85686033983367,172.3040872393552 158.74939715211013,172.45214763121442 158.3374549321592,172.97274707466468 158.16312576084778,173.14946431646015 158.0687969626724,173.2354348667671 157.84312426837465,173.4121521092031 157.68431755752246,173.50767494244255 157.5314810236988,173.57454092624394 157.3356592148996,173.61752620129067 156.63714849416274,173.68439218487856 156.367296489256,173.7369297432848 156.14162379495826,173.80857186862363 155.98998129655456,173.89931856032564 155.90281671097,173.99961753581422 155.85147318784135,174.1285733611679 155.83117458570237,174.26708146966757 155.78460720439583,174.87842760481988 155.76311456683686,174.926189021404 155.71177104370824,174.9787265800238 155.33445585100677,175.18410067239603 155.14579825465603,175.33693720600618 154.9714690833446,175.49454988129608 154.94281223333718,175.51365444801516 154.21206255633308,176.2205234166204 154.1165397227378,176.2778371170623 154.07952462464843,176.29694168356784 154.03653934953056,176.31127010874945 153.74758277790474,176.52619648419656 153.50041744604806,176.78888427672598 153.4431037458197,176.9273923852257 153.44549181673077,177.256946161343 153.40847671864142,177.31903600310878 153.31534195595717,177.38112584487456 152.99414642792178,177.37634970333713 152.7613095210332,177.3572451365469 152.52727857872472,177.30948371974924 152.2001128736608,177.17575175257346 152.03175387952024,177.1423187608863 151.88488752279628,177.13754261934886 151.74757344950302,177.16142332781885 151.60190112827019,177.2235131696558 151.5302590031449,177.2903791532437 151.3129445566444,177.5387385205915 151.1887648729705,177.6151567873254 151.0586150121969,177.65814206258563 150.8030914324006,177.68679891223718 150.51891100238342,177.67724662909117 150.32308919351303,177.63426135404444 150.00189366561997,177.5053055286908 149.81204203377814,177.4718725370036 149.4908465058851,177.4814248201496 149.3463682200722,177.51008167044174 149.28905451984383,177.5387385205915 149.14935237571072,177.62470907068493 149.04188918798715,177.7250080458888 148.7015890932327,178.1500846552456 148.6442753931467,178.20262221386534 148.25979598785443,178.56083283984776 147.87651061805326,179.00023787417265 147.57919579855903,179.31546322510832 147.31292589984096,179.65456928458516 146.97262580522883,180.04621290246826 146.82098330682513,180.32322911946764 146.53322077061927,180.82950013773626 146.41739933488495,181.04920265479197 146.37322002434712,181.17815848035914 146.17501014463687,181.94711729101485 145.95172552110785,182.34353705000836 145.81560548323452,182.72562838474542 145.79411284574675,182.8307035013444 145.67232123284157,183.37518365290882 145.68306755162104,183.98652978827462 145.63172402856355,184.22056073022728 145.60306717848496,184.3351881308975 145.5314250532885,184.60742820628826 145.5314250532885,184.89877284896747 145.59112682428557,185.19011749136197 145.59112682428557,185.41937229220423 145.4621709989319,186.00206157677974 145.27351340258116,186.43191432810096 145.17082635646622,186.5704224368853 145.02395999981343,186.72803511210407 144.76246624284627,186.95251377133772 144.61559988633584,187.1005741632681 144.45440510450143,187.2104254221162 144.38634508563592,187.25818683848684 144.3529120938064,187.28206754702802 144.13440361195714,187.29161983038753 143.69261050657886,187.23908227176778 143.41559428922363,187.25818683848684 143.26872793249967,187.3155005387152 143.1517124614166,187.37281423915707 142.97738329010517,187.52087463101628 142.78633762284338,187.563859906063 142.72782988726627,187.58774061460417 142.02573706034076,187.64505431483252 141.55767517572377,187.7835624235457 141.4979734047267,187.7835624235457 141.23409157691967,187.79311470669174 140.09259371552693,187.740577148499 139.21378364637894,187.7740101401862 138.846020737037,187.78833856529664 138.40661570264095,187.740577148499 138.1725847602613,187.73102486513946 138.02571840353733,187.68803959009276 136.99526583612797,187.98416037402467 135.0836151288019,188.676700917733 132.8268881851128,189.49819728651028 130.87225220266885,190.2337231049806 129.55045499286499,190.52506774780215 127.47880353919561,190.8593976652434 126.6955163037141,190.95492049898104 126.51402291988302,191.33701183321992 126.44238079468654,191.54238592559216 126.42088815719877,191.8050737178369 126.47700782186485,192.01522395153307 126.46387343224549,192.24925489391276 126.45551518437706,192.58358481185218 126.44715693636631,192.83672032052388 126.44357483010648,193.21403551351003 126.4447688655976,193.4146334637755 126.45432114888595,193.58179842285196 126.45551518437706,193.74896338164373 126.43282851132702,193.86359078188693 126.42566429887853,194.09284558251568 126.41252990918801,194.47493691696806 126.40894780292818,194.66120644212305 126.40058955505977,194.81881911783998 126.41014183841929,195.02896935167848 126.42566429887853,195.2104627357231 126.416112015519,195.45882210285737 126.41252990918801,195.63076320325774 126.40417166124843,195.70718147020517 126.3814849883407,195.85046572074046 126.36476849239035,196.09404894605265 126.36118638620171,196.3997220136288 126.36596252788146,196.62420067286246 126.35402217361089,196.82957476495002 126.3408877840627,197.03017271528665 126.34208181941148,197.17345696603545 126.32536532360346,197.45047318346184 126.31700707573505,197.7322655422833 126.32775339437218,197.96152034291205 126.34446989025136,198.14778986849407 126.35879831529066,198.23853656062312 126.43641061772918,198.40092537766395 126.62865032026856,198.6588370281578 126.87103951044548,198.90719639550557 127.07880167351527,199.169884188035 127.15044379871175,199.33227300507585 127.18626486138116,199.43257198056443 127.20536942802904,199.637946072652 127.28656383665623,199.8146633148033 127.31760875750354,199.8863054399998 127.43940037033755,200.04391811543206 127.60537129378056,200.2779490578829 127.69134184394517,200.38302417448187 127.70805833982435,200.54541299173624 127.72238676486364,200.66004039219294 127.74149133158271,200.83198149259334 127.9038801487659,201.19019211857574 128.03761211579933,201.4385514859235 128.0829854617571,201.51496975287094 128.17850829528123,201.73467227014015 128.0077612303008,201.73944841167756 127.78089450044077,201.7633291200052 127.64477446263862,201.7872098285464 127.51581863728497,201.81586667841148 127.4179077327786,201.86840423724473 127.28895190742494,201.91616565390007 127.10745852366503,201.9687032123063 126.9331293523536,202.0021362039935 126.71462087050433,202.02601691253466 126.41850008628772,202.05944990443535 126.24536495039622,202.08333061269184 126.13909579802144,202.0785544709409 126.02566243312702,202.05944990443535 125.95640837877042,202.0355691958942 125.82028834089711,201.97825549566582 125.62327249660679,201.92094179543747 125.10028498267249,201.79198597008383 124.17610156770908,201.59138801981834 123.58505403483812,201.4385514859235 123.11579811473001,201.28571495202868 122.89131945578104,201.20929668508128 122.79340855141703,201.16153526863948 122.75519941790773,201.1042215684823 122.74803520545926,200.97048960109302 122.72415449706043,200.90839975954074 122.64773623011301,200.8176530674117 122.33012280847979,200.6027266919646 122.0638529097617,200.4689947247888 121.90504619890952,200.41645716638257 121.36653622458714,200.33526275811124 121.16235616777718,200.29705362438844 121.0262361298327,200.26362063248774 120.95698207554727,200.22541149947665 120.89011609195938,200.1680977990348 120.8136978251543,200.04869425704067 120.72533920400748,199.78600646451122 120.6489209372024,199.6713790645527 120.31459101954766,199.3800344221582 120.22384432763212,199.28451158820704 119.75458840766636,198.95973395391184 119.6017518738427,198.82122584519863 119.41070620672325,198.6588370281578 119.32831776267614,198.56331419470482 119.3271237272562,198.42480608620514 119.29369073549783,198.25286498552006 119.20175000823352,198.13346144352593 119.1336899892257,197.97584876809367 118.9724952076048,197.81823609280377 118.95816678256548,197.7656985339705 119.03339101409297,197.67017570051755 119.0477194390611,197.63196656729292 118.88174851561807,197.52689144998223 118.71458355689747,197.46002546682138 118.52473192512679,197.43136861652926 118.35040275381536,197.45047318346184 118.18562586579229,197.52211530865833 117.9874159861532,197.5459960169148 117.77607171675241,197.58420515021058 117.52651831398467,197.59853357560573 117.26860666327735,197.59375743357012 116.92114235607443,197.63674270861685 116.73964897231451,197.64629499197636 116.58084226139114,197.66539955890894 116.44352818809789,197.68450412569916 116.28830358350552,197.7274894007459 116.18322846655069,197.79435538433378 116.07815334973819,197.9471919182286 115.92770488675441,198.24808884398266 115.77009221125098,198.56809033624225 115.62680796085803,198.67794159487684 115.2793436536551,198.9215248206872 115.06799938439666,199.088689779479 115.01546182584806,199.15077962152947 114.84471476079646,199.28928773002914 114.58083293298942,199.4469004054614 114.42202622213723,199.54242323919905 114.33127953029286,199.62361764747038 114.2942644322035,199.72391662295894 114.22023423616714,200.11078409880642 114.13068157967155,200.32093433292962 114.03277067530753,200.502427716476 113.91814327499316,200.61227897511063 113.79396359131927,200.67914495891202 113.6650077659656,200.66481653373037 113.60530599496853,200.68869724205803 113.49903684252259,200.69824952541757 113.34023013174156,200.67436881730342 113.18858763333785,200.6361596838653 112.96769108071987,200.55018913355835 112.85545175117421,200.55018913355835 112.71933171337207,200.59795055014249 112.56052500251988,200.70302566745318 112.44709163755428,200.76033936739685 112.3706733707492,200.7889962175466 112.28828492670209,200.8463099174903 112.24291158074432,200.92272818465122 112.2058964827973,200.96093731794699 112.12947821584989,200.97048960109302 112.0614181969844,200.97526574312863 111.93246237163073,200.94183275144144 111.80350654627708,200.91317590129168 111.64469983542487,200.98481802648817 111.53962471847004,201.19974440193525 111.35216115746809,201.5388504614121 111.26141446562372,201.81109053708755 111.22439936753436,201.88750880403498 111.05723440881374,201.83974738695264 109.15155387858739,201.40511849402282 108.21304203844234,201.19974440193525 107.94319003360677,201.147206843529 107.45960568853054,201.09944542644666 106.88288658069888,201.09944542644666 106.59990018617279,201.1281022767388 106.41840680227054,201.147206843529 106.23571938309068,201.1042215684823 106.11631584109655,201.00392259299372 105.94795684688482,200.91317590129168 105.6375076376289,200.84153377595285 105.33422264096382,200.7507870838238 104.98556429834095,200.61705511714624 104.7360108955732,200.54541299173624 104.6297417432696,200.54541299173624 104.47809924486589,200.4928754331165 104.14376932728231,200.36391960797633 103.95511173093158,200.32571047468056 103.71152850526354,200.33048661607563 102.78973316106885,200.34003889943517 102.56286643128,200.3543673246168 102.33122355988255,200.36391960797633 102.01241610275822,200.30660590774798 101.72465356655236,200.22541149947665 101.55868264310935,200.22063535744104 101.33898012584014,200.20630693268643 101.2482334339246,200.2015307909355 101.14912849406947,200.1728739407857 100.72405188464153,200.06779882375972 100.49002094233303,200.01048512353137 100.29300509797154,199.97227599009324 100.07330258070233,199.92451457343793 99.78912215082747,199.8863054399998 99.50852382707009,199.8433201649531 99.19091040543687,199.79555874787076 98.94016296717803,199.76690189800567 98.74434115837882,199.73824504814058 98.19747293611685,199.61884150614645 97.91926268312818,199.5615278059181 97.43329026721207,199.43257198056443 97.1192589517675,199.37048213872748 97.00582558687307,199.35137757179493 96.92104907205724,199.3418252884354 96.60462968584396,199.3083922965347 96.22731449321367,199.2797354466696 95.94432809854524,199.26063088016406 95.2386531653599,199.1985410379001 95.10372716290654,199.18898875454056 94.70611336806608,199.16033190467547 94.14730479160471,199.1221227713797 93.81297487402114,199.09346592108759 93.6923772965359,199.08391363794158 93.64700395057812,199.07913749590597 93.60043656934276,199.04570450421878 93.33774877681333,198.78301671218753 93.2183452348192,198.620627894862 93.15267328686475,198.48211978593528 93.08700133869682,198.19077514354078 93.02849360304852,197.9042066428972 93.01655324892027,197.837340659594 93.00580693006964,197.78957924251168 92.90550795479457,197.660623417158 92.6667008708063,197.3740549163009 92.62013348949976,197.34062192482725 92.4852074870464,197.24509909094726 92.15087756946282,197.06360570718735 91.9299810167025,196.96330673191227 91.78669676630955,196.92987374001157 91.42370999864738,196.90599303168392 90.90072248471309,196.90599303168392 90.40877989169725,196.91076917329252 90.21295808282687,196.90599303168392 90.08400225747322,196.88688846496487 89.95027029043979,196.84390318991814 89.6851944272128,196.7627087816468 89.45713366200403,196.64330523965268 89.00340020256866,196.35673673858207 88.56996534505879,196.09404894605265 88.25115788793445,195.9030032791467 88.02429115807443,195.79792816233422 87.62906543414502,195.6450916284394 87.40936291680465,195.5782256448515 86.66309077934132,195.33941856086324 85.06308331676229,194.8570282510646 84.5675586173443,194.76150541739813 84.2786020457185,194.71852014235142 84.3048708249572,194.279115107813 84.36696066679416,193.90179991511155 84.41949822534275,193.6725451144828 84.42546840244245,193.40030503902088 84.5257673777887,193.027765987928 84.58546914878576,192.7364213455335 84.67382776979025,192.1585082022819 84.71442497406825,191.91970111829363 84.72517129277655,191.8432828513462 83.62546467101059,191.97223867648637 82.63560930787924,191.99134324320542 82.59381806825246,191.99134324320542 82.28814500067631,192.00567166838707 82.3024734257156,191.89104426793034 82.31560781540612,191.78119300958042 82.38486186976273,191.31790726628734 82.45650399488804,190.8355169569869 82.53531033267534,190.3674550723699 82.62844509543076,190.04745357982563 82.69292300803642,189.74655665364457 82.82068479797015,189.5746155534577 83.01650660691169,189.55073484491652 83.3974039058018,189.51730185301582 83.79859980697326,189.47909272000473 84.10307883898712,189.4313313029224 84.37770698557362,189.354913035975 84.33949785213551,189.27371862770366 84.31681117929897,189.18774807732552 84.36218452511439,189.08267296029953 84.49711052756776,188.80088060105103 84.53531966107705,188.47132682536073 84.87084361400939,188.49520753390192 86.02308779432394,188.47132682536073 88.81354857072682,188.48565525032888 90.08042015121339,188.46177454200122 91.34729173177114,188.4331176917091 93.10252379915606,188.29938572474686 94.13775250831635,188.00804108235235 94.71208354516578,187.83132384012984 96.09477656145785,187.6020690397858 97.73299315768851,187.22475384679967 98.99628263191526,186.5990792867504 100.00166045557702,185.97818086845209 101.40942821561667,185.21877434122706 101.92644555245127,184.9513104073737 102.1843572031586,184.66474190651664 102.12226736139282,184.06772419654595 102.28585021392477,183.6426475869757 102.39570147255938,182.87846491842674 102.44585096019692,182.59189641735614 102.58794117509876,181.65577264833567 102.60704574181783,181.44084627267506 102.68943418586495,181.05397879682758 102.69779243373337,180.55248392009636 102.66555347739495,180.3375575448628 102.97361461588216,179.84083881016718 102.93062934062192,179.25337338355607 102.87689774672457,178.7709830735439 102.79212123190874,178.33157803929018 102.68824015044501,177.87784457978364 102.64406083990718,177.36679741990642 102.54973204173182,177.1136619110212 102.44585096019692,176.9369446685852 102.44346288928587,176.13932900834908 102.59629942303836,175.77156609872247 102.67749383159436,175.56141586509747 103.24346662064656,174.56320225388419 103.478691598375,173.96140840209142 103.49540809432534,173.6652876180883 103.50734844845358,173.4455851008903 103.5348112631834,172.6193125902909 103.59690110494918,172.23244511415874 103.7485436033529,171.51602386219395 103.82854397648897,170.86169245206608 103.76526009916091,170.55601938448993 103.6924239385445,170.3601975755484 103.60884145921976,170.25512245894942 103.41301965027822,170.12616663359574 103.11212272452417,169.9685539578788 102.89480827802369,169.82526970734352 102.7909271964888,169.59123876539087 103.15988414125066,169.47183522339674 103.8583948619875,169.1279530223113 104.94735516497398,168.28257594499283 105.40825283700018,167.7285435102824 105.69362730243732,167.7285435102824 106.00407651155089,167.75242421839653 106.52109384838549,167.7715287851156 106.91512553696613,167.74287193503702 107.24467931286993,167.68078209348474 107.67930820579974,167.6712298101252 108.25841538440011,167.69033437663077 108.51752107052738,167.64734910158404 108.70259656061829,167.6282445350785 109.23991249959188,167.49928870972482 109.67454139252169,167.4180943007418 110.20111101271581,167.3416760340079 110.73365081000965,167.21749635040516 110.99156246064581,167.18406335878916 111.79873040459731,167.22227249201376 112.48171866473258,167.29869075874765 113.61963442000783,167.39421359241413 114.74560982094133,167.4467511510339 115.44531457709812,167.49928870972482 115.67098727139586,167.5231694177678 116.17845232487092,167.5900354013557 116.68591737834598,167.54227398477155 116.8196493453794,167.48973642629414 117.06681467737843,167.4849602845432 117.27577087586816,167.54227398477155 117.25427823823806,167.40376587577367 117.13845680250374,167.11719737520127 117.17905400678175,166.6204786404345 117.39278634695124,165.88495282153713 117.48472707435789,165.59838432117823 117.57666780162221,165.38823408684155 117.64830992681868,164.98226204441735 117.65786221017822,164.8246493687716 117.76054925629317,164.60972299332448 118.08532689051721,164.3995727592013 118.14622269700538,164.09389969162515 118.28473080564741,163.7118083573151 118.53547824390627,163.10046222244748 118.55577684611643,162.4938922293308 118.47219436657821,162.41747396238338 118.32652204541652,162.29329427835364 118.24293956594947,161.98284506945356 117.78681803553188,161.7058288517425 117.22681542365058,161.1374679921351 116.91517217897471,160.71716752410225 116.60233489895009,160.07238839754746 116.47815521527619,159.82402903019965 116.22860181250846,159.60910265468138 115.79277888430104,159.34641486222313 115.44053843541835,159.0837270699072 115.29486611411434,158.73029258546222 115.14919379288149,158.46760479321748 115.00232743629988,158.2526784174857 114.81605791071787,158.0377520418251 114.54739994123106,157.80372109965893 114.29784653846333,157.66521299087458 114.11157701302366,157.5744662990302 113.82142640590675,157.249688664735 113.6960526868129,156.88192575560657 113.40948418602699,156.3183410373231 112.99276582453864,155.7165471853168 112.34798669769916,154.82340869155655 112.09962733035135,154.69922900781148 111.99574624881646,154.49863105704785 111.68410300428295,154.1929579896852 111.18380216325636,153.35713319572628 110.89365155628178,152.89384745271786 110.54021707197916,152.43056170992298 110.1449913479074,151.86220084981738 109.85484074086166,151.24130243173258 109.50021222121026,150.54398574655804 109.35453989990624,150.37682078748156 109.10618053262962,150.03771472821822 108.93304539673814,149.75114622764582 108.77304465046599,149.47890615197036 108.64767093130098,149.22099450119185 108.33602768676747,148.75770875796997 107.77483103932387,148.07949663972795 107.54557623876632,147.80248042201688 107.25542563172057,147.64486774679816 106.98557362674266,147.53979262991447 106.86019990764882,147.32486625404036 106.6631840633585,146.91411806965172 106.41243662517083,146.4508323268568 106.28825694149693,146.20724910104644 105.87273261542852,145.86814304199663 105.50019356440683,145.59112682457024 105.39631248287193,145.3570958821194 105.12526644247409,145.06575123951137 104.75153335603244,144.63112234658158 104.56406979517283,144.30634471249988 104.2309339130092,143.8144021195552 104.04347035200723,143.5230574769472 103.89899206633667,143.21260826783362 103.54555758196288,142.93559205033606 103.0870479807054,142.19051394829268 102.87928581756445,141.95648300634002 102.69182225663366,141.65080993876387 102.42197025172692,141.31170387928702 102.35988040996114,141.1875241956843 102.29659653270426,141.07767293712087 102.17241684903036,140.92483640343954 101.9849532880284,140.8006567194098 101.69480268105383,140.43289381006787 101.50733912005187,140.17020601775195 101.21599447765735,139.78333854190447 100.7168876720507,139.15288784003312 99.8643463822126,138.1355696625278 99.25897042430235,137.72482147785445 98.90792401091078,137.58153722760383 98.45538458675301,137.45258140225016 98.11866659825839,137.32362557661182 97.72463490974891,137.1039230596273 97.35209585865606,136.8412352670979 96.80164553006311,136.3827256656269 96.68463005898003,136.29675511553347 96.38492716857475,136.14869472367425 96.10671691572843,136.0531718899366 95.50253499316695,135.96720133984317 94.9843236209124,135.8048125225888 94.61059053447077,135.64719984715654 94.24163358978008,135.46093032157452 94.16879742909249,135.41794504631432 94.08521494969659,135.24600394612744 93.65894430484872,134.97854001198942 93.43685371666845,134.75406135296927 93.06192659487805,134.4436121438557 92.66908894171735,134.3671938771218 91.98490664601981,134.17137206818023 91.40221736108843,133.89913199229127 90.99146917662863,133.7224147500688 90.86609545753478,133.64122034179746 90.63803469232599,133.49315994944007 90.14131595770156,133.42151782431475 90.13892788679051,132.84838082288525 90.28340617260342,132.69554428920395 90.5496760713215,131.98389917877657 90.89833441394437,131.47285201889935 91.27684364206577,131.10986525137952 91.679233578586,130.31224959085873 92.1090863296937,128.8077649615903 92.1078922944161,128.60716701104016 92.49834187659458,127.88119347571583 92.88879145898656,127.23163820733893 92.8255075816585,126.8304423060963 92.98789639884168,125.96118452045019 93.27446489955643,125.37371909383906 93.5825260379013,124.63341713383129 93.97297562029328,124.06983241526314 94.17715567710324,123.34385887993881 94.52581401979728,122.3360929855795 94.75029267860391,121.40952149998971 94.59984421576247,121.18026669936097 94.37297748590245,120.53548757230799 93.8655124324274,119.71876734528162 93.38551019368215,118.57726948353304 92.8744630338761,116.9820381627761 92.5604317185027,115.38680684159216 92.32878884696291,114.7611322813294 92.40043097223055,114.01127803767741 92.57356610805088,113.30440906907215 92.76580581066143,112.49246498344088 92.7275966772233,112.18201577454082 92.56878996644228,111.84290971527749 91.80460729760867,110.27633524417212 91.67803954309488,109.67931753420146 91.62311391377759,109.00110541595947 91.33893348383155,108.43274455564038 91.09296218746597,108.13662377185078 91.02012602670722,107.89304054611158 90.9831109287602,107.53960606188012 90.78848315530976,106.99990205171079 90.75027402180048,106.67034827602049 90.66072136530488,105.9252701737636 90.60579573598757,105.4954174228694 90.48161605231368,105.33302860582855 90.39445146665796,105.22317734719395 90.19982369320752,105.11810223009677 89.6529554708744,104.87451900457108 88.99862406074655,104.56406979538633 88.7514587288187,104.34914341951222 88.66190607232309,104.12944090224302 88.36220318191782,103.72346885967647 88.23682946289516,103.45600492553845 88.05891818525274,102.99271918253004 87.81055881790493,102.4768958813289 87.66846860300309,102.04704313015003 87.68279702797122,101.66495179562646 87.77115564904688,101.20644219444016 87.80220056996535,100.33718440879404 87.870260588902,99.7831519738701 87.85115602218293,99.45837433957489 87.81652899500465,99.36285150612193 87.6398117529245,99.25300024748732 87.49772153788031,99.25777638881124 87.28757130397064,99.3103139476445 87.09413756594014,99.40583678116865 86.81353924232509,99.58255402310645 86.39085070366588,99.84046567409845 86.21771556770321,99.87867480732307 86.19383485930437,99.83091339045424 86.08637167158084,99.81180882373519 85.54905573260723,99.61598701479363 85.21591985044361,99.45837433957489 84.98785908523482,99.29120938071193 84.8421867639308,99.09061143044647 84.54845405062524,98.22135364458686 84.4027817293924,97.9109044351886 84.19382553090266,97.4762755424723 84.18666131845418,97.03687050800505 84.28337818739826,96.9079146826514 84.77412674506532,96.43030051467487 85.05353103326041,96.02432847161013 85.17651668158554,95.67089398766335 85.17532264609443,95.46551989536228 85.10368052089795,95.31745950300487 85.0153218998223,95.19805596101074 84.8577092244612,95.13118997784987 84.6630814509396,95.11686155273941 84.31084100212809,95.10253312755778 84.04576513882994,94.98312958556365 83.41053829549233,94.64402352651382 82.95083465874374,94.37655959223345 82.80993847919066,94.26670833359884 82.74904267284484,94.12820022509916 82.79322198338267,93.99446825770988 82.99979011096134,93.82252715730951 83.1633729634933,93.46909267336272 83.14068629051441,93.03923992175682 82.97471536714257,92.79088055440903 82.29053307158736,92.54729732881216 81.94545683515315,92.46132677871873 81.1908264498214,93.09655362219868 80.57589820848045,93.54551094002545 80.24992653883646,93.65536219866006 80.90425794896431,94.15685707496424 81.61470902390057,94.87805446875115 81.79739644308043,95.24104123648448 81.8523220724689,95.49417674522735 81.89053120583584,95.68999855416891 81.9096357725549,95.95268634669833 81.9096357725549,96.10552288059317 81.8379936474296,96.17716500550496 81.71142589284464,96.23447870573332 81.31142402723547,96.17716500550496 80.62127155443822,96.05298532190224 80.11500053638309,95.95746248844927 79.76873026467129,95.87626807975091 79.60514741213932,95.76164067929422 79.53231125145173,95.62313257058102 79.51320668473267,95.4702960368997 79.16693641302086,94.96880116059552 78.91260686857335,94.80163620180373 78.34902215028988,94.51029155940921 78.36573864624023,94.0374535329701 78.36335057532918,93.55028708163405 78.34305197319017,93.08700133883916 78.10663296011296,92.75267142139792 77.86901991161581,92.40401307877507 77.35916678715853,91.89296591889783 77.04871757797378,91.47266545086498 76.82901506077575,91.01415584989219 76.46483425769364,90.62251223200909 75.95617516872747,90.30728688128693 75.86542847681193,90.12579349752701 75.30064972325084,89.70549302928065 74.95557348681663,89.36161082847988 74.64631831305184,89.06549004426327 74.31915260798792,88.83145910209711 74.24034627034295,88.76936926026016 73.3424316344759,88.81713067691547 72.75377217251601,88.62608501000953 72.6403388075504,88.19145611707972 72.58302510739323,87.80458864094757 72.46720367165892,87.13592880563809 72.77287673923506,86.40517912891868 73.42840218471169,85.18726300043619 73.42004393684326,85.14905386678456 73.38183480333397,85.04875489150947 73.35676005951521,84.95800819987862 73.34720777615567,84.91024678279629 73.33287935111638,84.85293308299495 73.31019267820867,84.73830568260942 73.30183443034024,84.65233513230247 73.29705828851813,84.53770773184577 73.2875060051586,84.27501993981453 73.26959547385948,84.20337781419103 73.19078913621453,83.9454661636972 73.0713855942204,83.56337482917364 73.00690768154357,83.37710530359163 72.67018969304894,83.33889617036701 72.38003908607438,83.28158247013866 72.15078428544564,83.22904491173242 71.95138037024427,83.15740278653594 71.719737498918,83.05710381133203 71.57048307142531,82.97113326123859 71.4439153167692,82.88516271093165 71.37346722699266,82.8278490107033 71.28272053507712,82.74665460193378 71.15376470972346,82.6129226352562 71.10480925750586,82.56993735999598 71.06660012413892,82.52217594291363 70.9758534321522,82.44575767617974 70.88868884656766,82.37411555126793 70.72271792312465,82.23560744248357 70.40988064317118,81.95859122484367 70.30002938453659,81.9729196500253 70.05167001718878,81.94903894169765 69.843907854119,81.89650138329141 69.47136880302614,81.82485925766791 69.18241223154267,81.76276941590213 68.89106758893465,81.63381359076197 68.61046926524844,81.48097705686715 68.47673729821501,81.44754406496645 68.26897513514523,81.44754406496645 68.00986944901796,81.40455878991973 67.68986795661601,81.352021231727 67.17165658429032,81.25172225623841 67.17165658429032,80.97948218034945 67.08449199856342,80.43977817082065 66.92807335862229,79.97649242802575 66.62598239730596,78.41469409867133 66.54120588249012,77.98484134713661 66.50060867828329,77.85110938017435 66.27135387765455,77.688720563347 65.96090466839864,77.5454363128117 65.7841874263185,77.42125662906665 65.7316498677699,77.32095765379157 65.61702246745554,77.23021096216071 65.50358910256111,77.16812111989674 65.3364241438405,77.02006072803752 65.22179674352613,76.83379120245552 65.10716934321177,76.55677498524263 64.8886608613625,76.25110191766649 64.60806253760512,76.05528010872493 64.3274642139189,75.91199585818964 64.0588062444321,75.88811514986197 63.65522227249194,75.95020499162776 63.122682475340454,75.89289129168408 62.894621709989316,75.83080144963363 62.60208303210369,75.47736696525982 62.311932425057954,75.20035074826046 62.186558706035285,75.12393248131305 61.81401965501359,74.99975279728329 61.503570445757674,74.81348327191479 61.33640548703706,74.63198988815488 61.20983773245211,74.33586910393826 61.10595665098838,73.99676304488844 60.959090294264435,73.60989556861394 60.81341797310276,73.40929761834848 60.58535720796514,73.36631234301707 60.27490799863806,73.35198391812011 59.96445878945331,73.30422250103778 59.61102430515068,73.19914738422528 59.239679289548924,73.22780423409037 58.92923008036418,73.22780423409037 58.679676677667615,73.30899864285989 58.43370538108853,73.58601486007277 58.310719732905746,73.9872107615289 58.33340640581346,74.24989855363131 58.16265934076185,74.41228737067216 57.977583850742114,74.48870563761957 57.33399875932257,74.57945232974863 56.54832345300118,74.64631831333651 55.99070891188858,74.9949766556747 55.40443752076856,75.81169688291456 55.127421303342174,76.57110340992608 54.43010461809644,77.34483836211922 54.039655035704456,77.75558654650787 52.39188615618543,79.03559251675614 51.5250164413792,79.40335542609807 50.43247403206172,79.59917723525312 49.619335911152845,79.62305794336727 49.40679760633212,79.79022290244374 49.71008260299722,80.66903297144938 49.82948614499135,81.12276643088475 49.88799388063964,81.20873698097819 50.01336759966231,81.33291666500793 50.08859183111861,81.61948516558034 50.24381643571099,81.92993437497859 50.27366732120952,82.00157649989039 50.28918978166876,82.06844248369178 50.29038381715987,82.2547120092738 50.24739854197081,82.41232468427904 50.16142799180621,82.55560893481433 49.878441597280116,82.75620688529331 49.675455575818916,82.91381956079674 49.573962565195075,83.02844696118227 49.47366358984883,83.24337333691405 49.41754392511159,83.6541215213027 49.28142388730945,83.95024230523464 48.690376354367324,84.87203764978518 48.38589732235346,85.26368126717009 48.19007551341191,85.47383150107976 47.727983805965785,85.96577409423793 47.56201288252277,86.18547661172065 47.35305668403304,86.49592582062071 47.23723524829873,86.7777181796557 47.215742610810956,86.87801715514426 47.212160504622304,87.26488463099174 47.25036963798926,87.47025872329283 47.37693739243187,87.86667848299803 47.7542525852045,88.67862256841579 47.79246171864262,88.79324996880132 47.852163489639686,89.1132514613456 47.86410384376793,89.70549302928065 47.89395472926646,89.83922499645641 47.94649228774388,89.99683767210217 48.034850908819536,90.1878833392928 48.285598347078384,90.59863152346793 48.728585487876614,90.407585856562 49.368588472894,90.13056963885093 49.63724644238079,90.06847979729866 49.88560580972859,90.06847979729866 50.135159212496326,90.12579349752701 50.323816808847056,90.18310719725717 51.185910382115864,90.43624270642708 51.44143396191214,90.52221325652052 51.53695679550744,90.56519853178074 51.61934523955456,90.59385538207285 51.77098773781594,90.71803506546206 51.79845055254576,90.74669191554065 51.88083899645054,90.93296144112267 51.939346732027666,91.07146955004937 52.36322930610684,91.91207048540339 54.27607404892401,93.50252566476523 55.6539909235363,94.40521644252554 55.599065294218995,94.55327683466945 55.0963763824237,95.17895139429167 54.651001170714416,95.69955083752843 54.70831487094277,96.08641831380294 54.82294227125713,96.60701775661268 55.048614965554876,97.07985578305177 55.16204833052047,97.3377674335456 55.66712531308448,97.49060396744042 56.78951860782933,97.78672475165703 57.49161143475482,98.28344348613912 57.91191190264534,98.25956277781147 58.46952644375794,97.62911207636712 58.6928110672158,97.37120042544629 58.88624480524629,96.85537712424515 59.02594694937943,96.50671878162228 59.94893632899407,96.46373350657557 61.12625525312739,96.31089697268074 61.742377529745944,96.22015028055168 61.91193055944878,96.41597208949322 62.13760325388886,97.04164664975599 62.279693468719536,97.29955830053449 62.395514904525015,97.9156805770107 62.35491770024701,98.16403994414499 62.16984221008494,98.25956277781147 61.92148284273714,98.46016072857512 61.550137827206555,98.68463938738175 61.48804798529844,98.79449064601634 61.282673893068534,99.14792513039015 61.159688244814575,99.48703118943997 61.09879243839757,99.65897229026737 60.85043307104977,99.87389866571448 60.74774602500599,100.01240677449884 60.56267053484391,100.2130047247643 60.31669923847834,100.7431564515741 60.09102654403826,101.08226251062392 59.92624965601519,101.28286046138757 59.781771370202286,101.40704014470562 59.409232319180596,101.59330967028764 59.079678543276785,101.73181777900083 58.74893073202421,101.88943045471777 58.64624368583809,101.9754010048112 58.55072085224278,102.01838627985792 57.40325281367917,102.51510501455351 57.09757974624536,102.61540398982858 56.887429512335686,102.6583892648753 56.5805624093396,102.68226997341647 55.88085765325398,102.6870461149539 55.55488598368117,102.71092682328155 51.73994281689747,102.95451004930543 51.41038904106483,102.90197249089918 51.376956049235304,102.82555422395177 51.140537036086926,102.37182076423173 50.935162943857016,102.14734210521159 50.64023619513151,101.92286344640496 50.40620525296535,101.79390762105129 50.15068167302673,101.71271321228177 49.50112640450748,101.59808581232326 49.289782135177866,101.53121982873537 49.05575119286937,101.42136856988726 48.58649527283243,101.06793408565579 48.40261381816146,100.90076912686402 48.2330607885298,100.55211078402763 48.203209903031265,100.51867779234045 48.15903059249344,100.47091637568514 48.04917933385883,100.39449810902241 47.9990298462213,100.37539354223217 47.852163489639686,100.2512138584871 47.80679014361075,100.19390015804524 47.70410309756696,99.9980783493172 47.563206917942715,99.68285299838152 47.39365388831104,99.43449363103373 47.31365351517498,99.37240378948145 47.2169366462309,99.33897079758076 46.912457614145865,99.34374693911819 46.82409899314138,99.32941851443474 46.7082775573359,99.28165709735241 46.65693403420725,99.23867182209219 46.588874015341766,99.10493985512993 46.55782909435212,98.78493836287032 46.483798898315754,98.66075867884058 46.36678342716151,98.59389269567971 46.32379815204362,98.58434041232019 46.141110732863766,98.61299726246995 45.97394577400081,98.69896781256338 45.74110886711225,98.7085200959229 45.55125723534158,98.70374395431432 45.462898614265924,98.69896781256338 45.391256489211784,98.65598253751666 45.33155471821472,98.57001198720972 45.24319609699672,98.37419017848168 45.11782237790288,98.20224907779662 44.96379180873045,98.08762167741108 44.7512535039809,97.98254656059859 44.53155098671169,97.84881459342282 44.5028941366331,97.82493388488164 44.42169972807709,97.76762018515149 44.35483374463155,97.67687349302244 44.179310537829004,97.39030499237886 44.111250518963516,97.18970704168638 44.05154874796645,96.8697055489286 44.05035471247534,96.74074972357494 43.96796626857056,96.5831370485697 43.89513010788296,96.47328578972159 43.79960727428766,96.41119594788464 43.39005312531896,96.24880713063027 43.14885797041964,96.11029902191709 42.8646775404736,95.98611933859904 42.76199049435865,95.9383579215167 42.519601304181734,95.75208839593468 42.39422758501672,95.62313257058102 42.13631593438056,95.2983549362858 42.12198750934127,95.20760824458378 42.170942961558865,94.87327832692904 42.14706225316004,94.69178494316913 42.080196269572156,94.58670982635662 41.94168816093013,94.46253014232688 41.79959794588594,94.15208093342682 41.748254422899635,94.08999109137636 41.60258210159562,93.97058754938223 41.53571611807891,93.93715455790856 41.448551532423195,93.8893931411109 41.26586411324334,93.80819873255489 41.046161595974134,93.65536219866006 40.94347454993035,93.58849621535686 40.77750362648734,93.57416779017522 40.673622544952444,93.57416779017522 39.4724229124203,93.48342109804616 38.2306260757525,93.45476424818108 37.60853362196306,93.22550944733884 36.79897760724285,92.95326937166338 35.763748898153715,92.76699984608138 35.01747676069039,92.70968614606653 34.458668184086676,92.70968614606653 34.40016044858073,92.66192472926888 34.231801454369,92.0219217442515 33.461648608435674,89.30907327007364 33.09746780542474,89.18011744493349 32.28313564895359,89.0750423276228 31.13327953955009,88.94608650226914 30.292678603911398,88.62608501000953 29.250285682373793,87.83324549109733 28.520730040718473,87.4893632902254 27.511770110868053,87.4272734480326 26.250868707481185,87.40816888152705 25.015042047770745,87.30309376471455 24.398919771081022,87.26010848966783 23.86518593836725,87.13592880563809 23.16070504067304,86.2762233033515 22.090849304405612,85.00576961646276 21.442488071306304,84.40397576516818 21.020993568067016,84.29412450632007 19.029342487604886,83.86904789674979 17.570231204578928,83.50128498762137 17.588141735735707,83.40098601213279 17.78873968635702,82.85172971924446 17.98456149515623,81.90605366643743 18.00247202652652,81.87262067475024 18.028740805694056,81.72456028260635 18.506354973670586,79.8809695940746 18.999491602106353,77.37827135401993 18.65441536581448,75.74005475800277 18.650833259483488,74.98542437231517 17.560678921077056,75.63497964090558 14.880069403308784,77.60275001282655 12.924239385444896,79.1215630672766 11.44244142929771,79.98604471138529 10.742736673283265,80.11977667806286 9.733776743432847,80.01470156103686 8.27585949568449,79.7806706190842 6.8430169917549,79.20275747583261 5.717041590679061,78.31917126479135 3.269268979799346,76.36572931783851 1.5247832313362413,75.05706649772516 0.9038848128955825,74.2833315453185 0.6495552685192505,73.8534787944243 0.5874654266111315,72.60212967425463 0.5958236745507208,71.71376732188945 0.6388089497397785,70.02778930878996 0.6208984183694887,69.05345640633135 0.5946296392019496,68.70479806349498 0.5528383994328332,68.48031940468834 0.4561215304175859,68.06479507847759 0.2447772610879715,66.63195257454801 0.13134389626471574,65.122691803671 0,63.613431032794 0.03820913343812238,63.50835591619501 0.2901506071169119,62.86835293096412 0.5253755849165228,62.35252962926479 0.8143321563999832,62.02297585357449 0.9874672923626453,61.76028806132974 1.2011996325321423,61.48804798544078 1.4006035476623435,61.2062556264058 1.5438877980553025,60.91013484197567 1.6788138005086721,60.61401405818607 1.7313513589149203,60.46117752429124 1.7420976776943922,60.21759429876555 1.7456797839542162,59.91192123097589 1.730157323494979,59.66356186384161 1.733739429825973,59.36744107941148 1.7385155715057383,59.076096437016965 1.7456797839542162,58.78475179483596 1.7492618903563804,58.74654266111316 1.8197099799905783,58.51728786048442 1.8340384050298741,58.37877975177123 1.8459787592292876,58.068330542871166 1.8829938573186387,57.934598575481886 2.0167258243520667,57.64325393308737 2.0752335598580216,57.52862653312886 1.6656794108181474,51.76382352550981 1.899710353126647,51.76382352550981 2.076427595349133,51.754271242079106 2.14568164970573,51.76382352550981 2.253144837429279,51.81636108391605 2.6447884553123737,52.01695903460853 2.921804672667591,52.21755698515868 2.9994169748926067,52.1459148599622 3.522404488826907,52.21278084312306 4.599424437685151,52.35606509365836 5.485398719281614,52.494573202585066 5.899729009930083,52.53755847741827 7.020928269254987,53.06771020401456 7.846006744434442,53.52621980505852 9.0698930498743,54.13756594021081 10.06094244849677,54.605627825041324 11.331396135385509,55.14533183457012 11.96423490781207,55.43190033564072 13.130807513165914,55.919066786976785 14.117080770037449,56.282053554496606 15.947537068807499,56.91250425636797 17.856799705222507,57.39489456595309 19.40188153862658,57.63847779169229 22.480104851306482,57.88683715911125 24.075336172276923,57.73877676675385 25.404297594742786,57.63370164994135 25.652656962019414,57.61459708322229 30.4920825190416,57.786538183622675 34.23418952513771,57.98235999256422 36.90047061786669,58.03489755097047 41.57631332235692,58.24982392641757 43.83901044328806,58.335794476724516 44.97453812750992,58.297585343499904 45.325584541043845,58.28803306014037 45.45692843716622,58.93281218669517 45.607376900078826,59.58236745507209 45.76498957551108,60.13639989020954 45.94409488850228,60.6235663415456 46.038423686677646,60.87192570896457 46.27126059363737,60.77640287501341 46.36320132090168,60.7334176001802 46.722605982304025,60.61401405818607 46.772755470012726,60.5901333496449 46.82051688673921,60.580581066285376 46.9590249954524,60.56625264138842 47.36499703830363,60.56625264138842 47.44260934052864,60.556700358028884 47.657535716118076,60.504162799551466 47.70052099123597,60.489834374441 47.81514839155033,60.432520673999136 47.847387347959916,60.40863996567148 47.89156665842658,60.36087854908734 47.99664177545259,60.150728314964155 48.014552306680535,60.10296689830884 48.039627050499305,60.06475776487072 48.14470216745414,59.950130364414015 48.28082220539862,59.86415981432058 48.63306265421014,59.706547138888325 48.99963152813213,59.62535273033231 49.385304968844345,59.56326288835302 49.4987383336676,59.544158321847476 49.67426154047015,59.48684462140561 49.761426126054694,59.453411629718424 49.83784439300211,59.43430706299936 49.901128270187826,59.43430706299936 50.15426377921539,59.38654564634405 50.516056511457606,59.29579895449968 50.89695381049006,59.22415682908969 51.02352156493267,59.20505226237063 51.43426974946366,59.157290845715316 51.701733683459345,59.076096437016965 52.050392026082214,58.913707619976115 52.370393518697654,58.756094944472686 52.678454657042515,58.59848226904043 53.050993707993044,58.49340715244145 53.436667148634086,58.42176502681795 53.83905708529665,58.37877975177123 54.317865288550784,58.27370463495873 54.60443378940787,58.14474880960507 54.828912448356846,57.97280770920469 55.410407697868266,57.52385039109324 55.713692694533364,57.304147873824036 55.99070891188858,57.10832606488249 56.30951636901292,56.93638496448211 56.63668207407684,56.77399614744126 56.96862392082053,56.58772662185925 57.15608748182248,56.5017560715523 57.22534153617908,56.363247963052615 57.24564013831808,56.325038829756835 57.41758123871846,56.1817545792927 57.59310444544984,56.081455604017634 57.92265822142481,55.9286190701228 58.2737046348164,55.799663244982646 58.34295868917299,55.761454111259845 58.374003610091464,55.74234954454079 58.449227841618935,55.67070741962899 58.494601187576706,55.60861757779204 58.383555893450996,55.52742316909369 58.24265971389792,55.18831710961684 57.952509106923344,54.40980601609978 57.69340342079608,53.7698030310824 57.39131245962209,53.12980004585151 57.184744331829904,52.59964831946873 57.054594471056305,51.997854467675964 56.98653445219082,51.31486620739835 56.84683230798651,50.493369838834575 56.69399577430519,49.523813077486366 56.53877116971282,48.63545072533471 56.52444274467352,48.45395734157479 56.631905932397075,48.31544923279043 57.01041516051847,48.25335939059763 58.49698925834542,48.129179706994904 59.495202869487535,48.033656873328425 59.618188517670326,47.99067159828171 59.63371097820073,47.75664065611555 59.44266531093895,46.825293028703655 59.24923157290846,46.01334894300121 59.18117155404297,45.76498957543991 59.156096810224206,45.59782461707515 59.3555007253544,45.507077924732585 59.84505524745918,45.42110737463915 60.044459162589376,45.3685698162329 60.159086562903745,45.29692769103642 60.0922205794582,44.996030765068866 59.84027910577941,44.31781864682687 59.83311489333094,44.23662423805735 60.105354969006385,44.11722069606322 60.16028059832369,44.0694592791944 60.31789327375594,43.92617502915729 60.12326550030551,43.63005424472716 59.99789178128284,43.36259031087381 59.815204361960646,43.09512637652228 59.637293084389384,42.8181101593094 59.48803865689672,42.51721323327068 59.35788879612311,42.22109244933874 59.25758982084805,41.92497166490861 59.17281330603221,41.63362702272761 59.138186278853915,41.561984897317615 59.04982765777825,41.46646206365114 59.04027537441873,41.342282380333096 59.006842382731534,41.25631183002615 58.821766892569464,41.01272860421578 58.67370650056791,40.77392152022752 58.48743697498589,40.511233727698084 58.25818217435716,40.28675506889145 57.97877788609089,40.09093325994991 57.66235849980644,39.89033530939977 57.633701649799015,39.866454601356786 57.470118797267055,39.56078153378064 57.42355141581817,39.360183583230494 57.41399913245864,39.32197444979237 57.398476671999404,39.288541457891675 57.25758049244633,39.11182421566919 57.172803977630494,38.992420673675056 57.054594471056305,38.734509022967735 56.93757899997322,38.438388238751116 56.79668282034898,38.13749131299707 56.78235439530968,37.95599792945067 56.75847368698202,37.64554871983891 56.74653333271144,37.612115728151714 56.37877042336951,37.56913045331851 55.5298112398624,37.53569746141781 54.29159650938325,37.42584620278321 53.28263657946166,37.34465179408486 52.62352902772522,37.30644266078908 52.33576649151936,37.096292426950576 51.962033405077726,36.55181227517265 51.43785185565231,35.32434386354414 51.157253532037274,34.77986371197973 50.935162943857016,34.67478859516723 49.89754616399917,34.68911702034887 48.871869738198406,34.70344544545933 48.19007551341191,34.60792261157935 48.061119688129416,34.36433938626717 47.726789770474674,33.7291125425737 47.34589247158456,32.26761318877903 47.247981567078206,31.708804612032978 46.38827606472045,30.849099109746398 45.590660404199646,30.309395099790578 44.88617950643427,30.027602740755594 43.16438043087888,29.406704322243765 41.41989468241577,28.50878968651906 40.68675693450063,28.169683627255726 40.39660632745488,27.959533393630732 40.17570977483691,27.811473001273328 40.10406764956926,27.529680642238343 40.28794910424023,27.204903007943134 40.85033978703259,26.531467031025056 40.97929561238625,26.31654065557796 40.984071754066015,26.221017822124992 40.94228051443924,26.187584830437807 40.77869766190728,26.096838138308755 40.66168219068186,26.06340514640806 40.62227902182379,26.058629005084143 40.2437697937024,26.058629005084143 39.82585739672293,26.049076721724614 39.78884229877592,26.039524438080402 39.44973623951258,25.90101632936721 39.11660035734896,25.7147468039987 38.81212132519275,25.509372711911134 38.699881995718265,25.428178303212782 38.387044715693634,25.265789486171933 38.22226782774173,25.194147360761942 37.781668757783386,25.07474381876781 37.744653659765206,25.069967677230387 37.338681616985156,25.01265397700203 36.9768888848141,24.931459568730702 36.63539475463971,24.83116059324212 36.24613920781001,24.702204768101968 35.87957033381686,24.54936823420714 35.53568813287375,24.391755558490203 35.33150807620613,24.23414288327146 35.29807508430543,24.18160532486521 35.15240276321493,23.89981296583023 35.024640973138865,23.6371251733008 34.98284973351209,23.59413989825408 34.956580954273385,23.570259189712914 34.67001245341629,23.38876580616651 34.35001096094319,23.20727242212192 34.07180070809686,22.978017621493187 33.84612801365678,22.73921053750492 33.5643356546218,22.481298886584085 33.27657311841594,22.266372511136986 32.97806426343061,22.094431410736608 32.661644877074984,21.912938026976693 32.30701635735241,21.73622078475421 31.998955219007552,21.569055826104762 31.512982803091433,21.306368033575332 31.163130425048625,21.148755357929566 30.81686015326564,20.995918824248246 30.498052696141308,20.84785843238903 30.132677857639262,20.695021898707715 29.766108983717274,20.54696150635031 29.403122216055113,20.422781822818752 28.936254366858055,20.279497572283454 28.57326759919589,20.203079305336036 28.43714756132258,20.207855447371653 28.04908604984165,20.207855447371653 27.954757251666287,20.198303164012124 27.82460739089268,20.160094030289322 27.68848735309054,20.112332613634006 27.548785208957405,20.05979505501425 27.446098162771282,19.228746402877427 27.378038143834626,18.61740026772513 27.368485860475097,18.47411601761685 27.406694993913217,18.37381704241295 27.432963773151926,18.335607908690147 27.47236694200999,18.297398775465535 27.779234045077253,17.958292715988687 28.366699471546042,17.351722722872005 28.52789425323812,17.2036623305146 28.684312893321604,17.09381107216468 28.97804560662717,16.93142225512383 29.336256232609568,16.439479661965663 29.83416900265393,15.73261069314689 30.346410197951098,14.801263065734997 30.412082145905533,14.548127556565095 30.15775260145803,14.337977322655423 29.299241134520216,13.769616463048033 28.852671887533333,13.440062686930718 28.450281951013107,13.17259875307737 28.181623981526307,12.957672377416761 28.055056226941357,12.618566318153427 27.96789164135681,11.940354199413244 27.84968213471145,11.53915829859764 27.755353336536086,11.362441056446324 27.23833599970149,11.266918222708677 26.33803329306573,11.223932947448448 25.811463672871607,11.133186255817588 25.366088461304663,10.875274604825583 24.880116045317376,10.588706104253175 24.32369553962472,10.177957919864529 23.822200663320533,9.781538160159329 23.266974192976647,9.37556611759279 23.10697344677568,9.265714858958187 23.33503421198447,8.783324549159552 23.82936487576901,7.78988707998188 24.508771029786793,6.557642526317753 25.25265509633907,5.148680730715821 25.257431238018835,5.019724905575668 25.278923875577778,4.866888371680838 25.268177556798307,4.73315640493209 25.240714742210827,4.661514279593271 25.066385570899392,4.3701696371987575 24.85504130149861,4.097929561523306 24.663995634379166,3.8543463354994247 24.47892014428826,3.596434684792099 24.249665343588358,3.3671798841633644 23.984589480361382,3.1713580754353274 23.670558164916812,2.9994169748214365 23.399512124661303,2.7606098908331718 23.18936189068046,2.517026665236312 23.018614825628852,2.2400104478099245 22.87413653981595,1.9486658056289217 22.75592703324176,1.6573211632344085 22.619806995439617,1.3850810873454464 22.592344180709798,1.3516480956582595 22.402492548939126,1.0985125862748484 22.25920829854617,0.8262725105993964 22.130252473192506,0.5492562933865194 22.0144310374582,0.22925480062873427 22.26995461739681,0.18626952558201665 23.438915293448197,0.14806039235740445 24.8932504350079,0.014328424968125836 25.277729840157836,0 25.627582218200644,0.12417968381623784 25.965494242044038,0.3868674763456693 26.370272249475317,0.6304507016578492 26.98281241990522,0.8167202272398658 27.627591546602364,0.9408999112696139 28.078936935340185,1.103288728310464 28.45386405720176,1.4041856538509974 28.72371606217967,1.8053815548801124 28.884910843800576,2.1874728896171862 29.067598263122772,2.4740413904031042 29.444913455824228,2.645982490874655 29.51774961636948,2.6603109155581004 30.514769192091656,2.822699733025971 31.37686276521812,2.9182225664789367 32.441942359805786,3.1235966588511848 33.75060518006148,3.3958367344554667 34.833595306019426,3.6776290937751295 36.38106521026338,4.0740488527686285 37.94047546863558,4.628081287692573 38.65928479151143,4.971963488920355 40.00376867429419,5.306293406361585 41.64556737671351,5.94152024962803 41.679000368543036,5.965400958169196 41.7327319624404,6.008386233429424 41.9178074525313,6.26629788392324 42.01452432147538,6.495552684551974 42.0419871362052,6.586299376681025 42.11243522598174,6.614956226546107 42.173331032327575,6.667493784952355 42.39303354959678,6.90630086894062 42.615124137848206,7.173764803007477 42.81572208825601,7.426900311963867 43.056917243155326,7.670483537987748 43.270649583324825,7.775558654586734 43.41512786913772,7.818543929846962 43.7805027075686,7.894962196580867 44.04557857079557,7.95227589702273Z"/></svg>