<svg xmlns="http://www.w3.org/2000/svg" width="256" height="256"><path d="M221.8406148818283,5.428133590219462 221.82535016428673,9.28705420790559 221.77650306777164,13.884787158369388 222.0329503239982,14.306093365300232 224.2875491184142,16.369883188854658 225.7300649346885,18.122272773433302 228.3998640485274,21.004251462273423 228.50213765666538,21.120263316553626 228.90359973049195,21.303439928053027 230.3674861514518,21.590416619362664 231.10477201310312,21.828546214521154 231.7031489442984,22.26817008215611 232.18856696492193,22.909288222904436 232.46180541054426,23.35501797777438 232.98233228190458,23.703053539978086 233.97606539969144,24.66778369408117 231.94585795474663,25.681360944699342 230.0515064963674,26.505655697220025 229.5950914391547,26.69493819559047 229.28369119945103,26.969703113339992 229.27911178425225,27.482597625429136 229.72331506726795,28.551127859706398 230.65904225823317,30.614917683897716 231.158198524726,31.451424209887527 232.94722343125878,33.16107258464016 231.2818427375495,33.13664903670106 230.0286094199186,33.31982564847342 229.2134734983414,33.912096692160745 228.7585849129829,34.97452103947598 228.66699660709673,36.01862772554119 229.1340969667432,37.20927570124264 229.68362680142337,38.38771190229216 229.77216216369206,38.863971092336186 229.6530973661583,39.54172455512963 228.64104658712142,41.43454954165462 227.70684586801045,43.699833638595365 227.61220461877974,44.6462461316304 227.378654439002,45.60487039913539 226.11473581893733,46.19714144318666 225.48888239609448,46.307047410231874 224.44935512522807,46.34978861951198 223.10148055827545,46.39863571566313 221.2590291401198,46.648977084927644 221.26513502717282,46.75277716510182 222.26497403210368,47.88847215687124 222.90151275747127,49.18902609879905 223.4953102731948,50.22092101103118 224.23412260660936,51.52758084046693 224.75617594964194,52.79760534722066 225.61405308059028,54.37292420726193 227.45650449883692,55.795595890340984 229.4088618840378,57.212161686548995 229.7111032932529,57.54187958741169 229.7736886354553,58.34175079172032 230.10188006455476,59.11109255994503 231.0299748967947,59.87432844157164 233.768465239889,61.248153028499544 235.14534277034343,62.1762478605575 235.88873451913872,63.5073312382053 237.24576791657987,64.87504993826217 238.91725449734216,66.40152170151539 240.79023535085386,67.89135814263251 243.14558128164458,69.74144191933149 244.9040767528213,71.28012545669074 245.5665654980732,72.27538504651382 246.04893057526124,74.79101051217316 246.3954396656107,77.3188477522115 247.11593433777523,79.57192007504621 247.39222572692407,80.02986160402217 247.7402612889458,80.60381498664145 248.54776485170675,81.73340409153982 249.4300655309581,82.61875771404473 249.7765746211256,82.69813424618881 249.9063247210931,82.82025198715809 250.20703965836302,83.1011227915057 250.5245457851197,83.37588770907325 250.81915483542755,83.66286440038289 251.11986977287944,83.94984109169253 251.43279648434634,84.23071189613113 251.78541146156687,84.5237944749487 252.09986464488802,84.79855939215231 252.42500313046094,85.07332430935591 252.76693280533868,85.32977156585541 253.0661212710273,85.61064237056696 253.3179891118731,85.94646615802775 253.40652447414178,86.06858389954293 253.70265999630388,86.4105135742387 253.98811021594125,86.75854913644241 254.23845158520578,87.10658469837315 254.52695474836966,87.45462026057686 254.7543990410944,87.80265582250762 254.81393143986125,88.11405606175634 254.82003732691427,88.5109387207481 254.85056676217934,88.90782137883 254.8643050080486,89.31080992441983 254.87956972577214,89.70769258304765 254.92231093505222,90.10457524149348 255.05358750669203,90.45871669029528 255.18486407842278,90.81285813973396 255.32987889584084,91.16089370166472 255.5038966769427,91.5150351504665 255.73744685672045,91.86917659990519 255.96336467759093,92.22331804843404 255.9847352822765,92.2660592579871 256,92.30880046754015 255.98931469756624,92.42481232145641 255.77408217894754,92.64462425563784 255.43978486288606,92.89496562462939 255.10090813135287,93.16973054210597 254.87651678215465,93.37122481485538 254.61854305425584,93.67651916750603 254.37736051566182,93.98181352015668 254.15144269460936,94.31153142111036 253.94689547833343,94.65956698267718 253.79577477377134,95.0137084318429 253.71029235512015,95.19077915638027 253.67823644809184,95.23352036566038 253.45995098585564,95.55713237965203 253.10275659325438,95.8563208450677 252.69671510422904,96.12497987567322 252.341047183482,96.39363890591481 251.99301162146028,96.65619204937633 251.6922966840994,96.95538051451904 251.37479055734272,97.24235720610163 251.05881090225833,97.5598633328583 250.7367253602119,97.87736945997891 250.36426625006908,98.1704520381596 249.95059240222747,98.36584042403797 249.62240097303703,98.50627582598432 249.5155479496093,98.56733469687839 249.17514474649482,98.71387598624169 249.1201917629267,98.7444054211428 248.772156200905,99.04969977379345 248.74773265278392,99.09244098307356 248.73094146329714,99.13518219262662 248.66530317756823,99.3977353357242 248.64240610102846,99.64197081829964 248.62256196828812,99.6847120273068 248.57676781529955,99.76408855926891 248.54471190827124,99.79461799462497 248.50960305762544,99.8251474295261 248.46991479196282,99.84957097773814 248.41954122359348,99.87399452631414 247.98754971459283,100.06938291191956 247.5708229233157,100.28308895850206 247.120513753156,100.44794790893341 246.2717954526962,100.78987758426607 245.84133041554978,100.92420709897743 245.6963155980407,100.92420709897743 245.63678319918284,100.92420709897743 245.5207713451756,100.95473653469742 245.04298568327735,101.08906604940879 244.75448252011347,101.20507790368897 244.37897046635317,101.43099572465046 244.12710262532542,101.69965475471007 244.11641732298264,101.74850185149812 244.1148908512194,101.79734894764927 244.1179437948369,101.8461960444373 244.14389381481217,101.88893725362642 244.0156701866989,102.02937265584572 243.9668230903658,102.10874918780785 243.95613778784104,102.15149039708795 243.95003190078805,102.23086692868614 243.9210289373772,102.31024346001136 243.89049950220314,102.35298466956442 243.85691712332059,102.38961999215546 243.8202818010025,102.42625531429157 243.7882258939742,102.46899652384462 243.75922293038138,102.50563184588974 243.7378523258778,102.57890249061688 243.76380234567114,102.62164370016994 243.80501708327898,102.64606724810905 243.8599700667561,102.66438490945005 243.9225554090495,102.67659668355607 243.98514075143385,102.6888084576621 244.24006153589713,103.40930312973566 245.09641219499122,105.39982230910884 245.40475949116836,107.40865914964108 245.48260955109427,108.10473027377553 245.4093389065491,108.57488357685753 245.01398271986653,110.62646162657889 244.75600899178573,112.94059281939782 244.8445443542364,113.68551104022934 244.59115004135438,113.7648875719185 244.4995617356502,113.7954170070016 244.3820234097887,113.87479353869077 244.25837919705617,114.05186426295519 244.20800562886882,114.32052329383366 244.1805291370393,114.69908829084751 244.18816149594653,115.07765328795234 244.17442325007724,115.45621828560309 244.13320851237842,115.62107723576148 243.96834956194706,115.99353634590427 243.79585825269947,116.36599545604707 243.77754059154043,116.40873666560014 243.75159057156512,116.70181924414476 243.74701115627536,117.08038424152255 243.74853762812958,117.19639609571176 243.73327291040607,117.269666739893 243.68747875750847,117.33683149793106 243.5714669035922,117.41620802962022 243.1638989428036,117.6421258505817 242.77159569955654,117.88636133270222 242.6983250549204,117.94742020323235 242.33502477526613,118.20386745945889 241.93203622976728,118.43589116710945 241.51225649487264,118.6679148753059 241.086370872925,118.88162092197939 240.68032938389962,119.11975051741082 240.33382029373212,119.38840954737945 239.99189061867241,119.65706857771202 239.66675213319047,119.93183349546155 239.37061661102837,120.25544550890729 239.07295461719397,120.55463397486886 238.729498470462,120.82329300492847 238.3768834931505,121.09805792213209 238.26087163923424,121.23849332435138 238.0838009146059,121.4827288070178 237.8059830536938,121.78191727216051 237.54648285394074,122.08721162481116 237.2869826542787,122.38640009077274 237.02595598276238,122.69169444342337 236.7939322746569,123.00309468276309 236.7710351982991,123.04583589231616 236.5878585867087,123.29007137461865 236.3573613503665,123.60757750137532 236.11465234000923,123.96782483713913 235.8643109708357,124.32196628630487 235.60175782764713,124.62115475199349 235.33157232546031,124.9203432177731 235.04306916229643,125.25616700559782 235.00643383988736,125.29280232764295 234.73624833788253,125.54314369690745 234.42942751337765,125.8484380495581 234.1134478584752,126.16594417631477 233.80052114691733,126.48955619030643 233.5242297577685,126.78874465572208 233.2235148204986,127.08182723426671 232.90142927836118,127.36269803897825 232.5579731316292,127.60082763413675 232.1855140214864,127.8511690031283 232.14582575555082,127.87559255134036 232.0908727721647,127.88169843848435 231.78557841951405,128.10151037239282 231.43296344211157,128.3579576282554 231.06966316245732,128.61440488475492 230.7170481852368,128.88306391472355 230.37664498194033,129.16393471916214 230.06066532694692,129.43869963663872 229.7584239178228,129.74399398928935 229.7248415391222,129.78062931197135 229.66225619682882,129.84779406946353 229.34780301350767,130.14698253487919 229.06387926563355,130.45838277476483 228.7631643281817,130.76367712741546 228.5006111849021,131.0750773672101 228.2853786662834,131.4170070422698 228.07625203471773,131.75283082973058 227.854913629137,132.08865461755533 227.6427340539538,132.41837251869097 227.46566332941643,132.74809041964465 227.3328602861044,133.12054952978747 227.21684843200615,133.49911452716523 227.19089841203086,133.6883970255357 227.1695278073453,133.85325597596704 227.17868663792484,133.99369137818633 227.13136601326397,134.04253847461044 227.17410722272606,134.14633855451166 227.21074254495315,134.24403274745086 227.2931720201688,134.63480951893467 227.3359132295399,135.00116274211544 227.3359132295399,135.37362185262216 227.36033677775197,135.49573959350047 227.42597506357185,135.99642233202948 227.48703393419297,136.2528695878921 227.4961927646815,136.3322461194903 227.55877810697487,136.71081111686806 227.5969399010562,137.07105845290485 227.6625781868761,137.4435175633206 227.73432235983998,137.81597667382735 227.79843417389662,138.20675344494722 227.87933717734904,138.573106667946 227.92513133024664,138.96998932657382 227.93123721729967,139.2874954533305 227.9144460278129,140.07515488326015 227.8869695361653,140.21559028547944 227.86559893138877,140.2583314950325 227.84880774208398,140.3865551230548 227.96481959600024,140.7284847981145 227.97855784186953,140.7712260073946 227.9861902006858,141.0887321341513 227.9922960877388,141.2047439877946 227.99840197479182,141.52225011455124 228.01214022066108,141.91302688630802 228.08541086529723,142.2671683352008 228.12815207475933,142.6396274453436 228.14799620768162,143.00598066888833 228.17852564294668,143.3662280049251 228.19379036048824,143.7386871150679 228.204475662922,144.1111462252107 228.23805804162257,144.5080288838385 228.24416392885755,144.86827621960234 228.29148455333643,145.26515887832113 228.30522279920572,145.64372387533496 228.30369632744245,146.0161829858417 228.30064338400695,146.37643032215144 228.29148455333643,146.7549953191653 228.18463152999968,147.00533668815686 227.89612836665384,147.31673692804247 227.5969399010562,147.64034894203414 227.33438675786763,147.93953740717683 227.17105427910857,148.17766700260827 226.92376585346153,148.495173129092 226.6871627301573,148.8187851433566 226.42155664335124,149.14239715671135 226.18190057661147,149.49043271864213 225.94529745321623,149.83846828084583 225.6980090276602,150.1803979561785 225.45377354544868,150.51011585676824 225.21411747861794,150.85815141897194 225.00804379057874,151.19397520670566 224.74549064739017,151.52979899480334 224.46767278638708,151.835093347454 224.22954319141058,152.1648112484077 223.99599301154186,152.5128468099745 223.7303869247358,152.85477648530716 223.46783378145622,153.16617672482883 223.19917475121466,153.4836828515855 222.93204219264533,153.8195066396832 222.70612437159286,154.1614363147429 222.56721544113682,154.3018717169622 222.53515953410852,154.3385070390073 222.50768304236996,154.37514236105244 222.3947241318892,154.47283655399164 222.37945941434768,154.5338954248857 222.36724764033264,154.57663663416582 222.2741328625922,154.71096614915012 222.0879033074753,154.97962517975566 221.86351195836806,155.32155485445142 221.59027351274574,155.62074332014004 221.32924684122943,155.92603767279067 221.30024387763666,155.96267299519974 221.2758203294246,156.00541420447985 221.19491732606315,156.11532017152507 220.90794063448058,156.45114395962275 220.61943747122572,156.76865008610645 220.4728961819534,156.90908548859872 220.19355184927807,157.15332097035528 219.93557812137925,157.37923879140774 219.5890690310298,157.67842725682343 219.4806895358388,157.7761214497626 219.37231004064782,157.86770975583076 219.0929657079725,158.16079233401143 218.82583314940317,158.49661612183615 218.56480647788686,158.81412224886577 218.5312240991863,158.85075757127484 218.41521224517902,158.9972988603652 218.15113263004525,159.32701676150083 217.88247359980366,159.6445228883485 217.60618221056384,159.93760546680213 217.31615257563672,160.2551115936498 217.0139111664216,160.57261772040647 216.71472270082396,160.86570029895108 216.41095481993656,161.17099465160172 216.07207808849435,161.45797134291135 216.02323099207024,161.49460666495648 215.83242202166358,161.74494803422098 215.61108361608285,162.06245416125063 215.57597476543705,162.10519537025777 215.40500992795268,162.28226609479515 215.1653538612129,162.59977222191577 214.89516835902612,162.9050665745664 214.611244611061,163.21646681381515 214.37006207255797,163.54007882807974 214.19146487616638,163.8942202771545 213.9976029622332,164.2422558388123 213.81747929426032,164.57197373967497 213.6159850214199,164.92611518884073 213.57477028381206,164.99327994633288 213.39464661574817,165.3901626049607 213.37938189820665,165.43900970120282 213.36717012410062,165.7137746186794 213.39617308751144,166.08623372882218 213.44196724050002,166.47090461343495 213.44807312755304,166.8494696104488 213.43433488159278,166.92274025517594 213.35648482166684,167.08149331873625 213.15804349244394,167.423422993432 212.93212567148245,167.74703500769664 212.62988426235833,168.05232936034727 212.34138109919445,168.33930605138394 212.02845438763654,168.6201768560955 211.6193599550847,168.85220056374607 211.29422146951174,168.9743183048973 211.00724477811113,169.1330713684576 210.64852391365562,169.40173039897215 210.3127001258309,169.70091886447878 210.05014698246038,170.04895442640955 209.85017918165616,170.40309587521133 209.8165968027736,170.58016660002167 209.80896444386636,170.93430804891443 209.80438502866758,171.3250848206712 209.8013320850501,171.7219674787531 209.90360569318804,172.09442658916888 209.99519399907422,172.4485680383346 209.99519399907422,172.7233329555382 209.98908811202122,173.2118039199612 210.02114401904953,173.58426302983105 210.12494409885977,173.94451036614078 210.20432063063993,174.30475770217757 210.2974354081074,174.70164036080538 210.38749724213932,175.09241713201624 210.53709147512012,175.4343468073489 210.79811814645444,175.77017059508265 211.08204189451052,176.08767672193028 211.38580977530694,176.40518284868696 211.530824592816,176.57004179911831 211.64988939044073,177.30885413253287 211.79337773609555,177.73016033882683 212.01929555705703,178.26137251252993 212.26658398279503,178.94523186283132 212.53524301303662,179.61687943866275 213.0191345619879,180.44728007750857 213.18246704074696,180.99680991255266 213.16262290782467,181.9126929705046 213.07866696075476,182.7430936093504 212.69399607641495,183.58570602312113 211.87428073954797,185.37473092947195 205.52873761970432,191.99351249511992 203.69086561674743,194.387020219628 202.23003213940507,196.10888036875963 200.6913486021368,197.70862277674 199.601447763083,198.9847531707287 197.64298449082912,201.14623718749527 196.9194368750471,201.95832016527302 196.21725986385962,203.05737983472437 195.55324464684446,204.49226329254634 195.1868914236637,205.27992272211205 194.6968939876594,206.21412344167797 194.31222310331958,207.48414794815872 193.62073139456587,209.44413769244883 193.13378690217908,210.54319736217312 192.7384307154055,211.10493897068636 191.9492448138036,211.97197493248717 191.05625883230044,212.96723452176434 189.77096960764123,214.6219299134038 188.62916872872782,215.9102720814985 188.06742711985063,216.42316659386063 187.60948559087467,216.56970788349687 187.56674438150358,216.600237318398 187.18817938430777,216.84447280079146 186.7851908387179,217.07039062148 186.35930521686126,217.29630844253245 185.96547550194194,217.52833215045595 185.57622520222137,217.7420381974024 185.17476312848578,217.93742658328077 184.75650986544537,218.10228553343916 184.27567125992962,218.24272093593143 183.79177971106932,218.3587327898477 183.31399404917107,218.4808505310899 182.87742312478966,218.60907415883923 182.41337570876067,218.76172133516457 181.92643121637389,218.8777331891718 181.43338083675212,218.98763915621703 180.96170106208882,219.1952393159285 180.5846625364743,219.42115713698095 180.23662697454355,219.70202794169248 179.5894029467422,220.2515577760997 179.256632102444,220.50800503259921 178.89333182278972,220.78276995007576 178.55140214773002,221.04532309317335 178.21405188823303,221.30787623627094 177.87822810013535,221.5948529281265 177.5668278604317,221.89404139363313 177.28137764070334,222.21765340753382 177.06309217855812,222.55347719508558 176.85549201875568,222.88319509594828 176.72268897535264,223.237336545114 176.59904476252913,223.5914779944617 176.48761232381165,223.9822547653996 176.46166230383633,224.36692565028534 176.35633575226285,224.7577024214052 176.2113209346628,225.10573798360892 176.18689738645077,225.15458507985105 176.12736498777488,225.27059693404027 176.04035609717846,225.3194440302824 175.66637051518143,225.594208947486 175.25422313919404,225.86286797809154 175.03746414872109,225.94224450941675 174.95961408879518,225.96056217103072 174.8039139690343,225.97277394513674 174.5642579021126,225.98498571896982 174.48030195522463,226.00330338031083 173.98419863216733,226.11320934735605 173.45145998670097,226.19258587868129 172.96604196607743,226.24753886206742 172.77675946734306,226.25975063617344 172.48215041712618,226.25975063617344 172.0043647552279,226.2780682977874 171.95704413047608,226.3208095070675 171.89903820347246,226.38797426455966 171.87919407073213,226.4307154741127 171.86545582477186,226.4734566833928 171.8257675588363,226.56504498882407 171.59527032258507,226.93139821236878 171.34798189693802,227.26111611295852 171.05337284663017,227.58472812722314 170.745025550544,227.88391659236584 170.39698998852225,228.15868151011537 170.3344046461379,228.17699917091048 170.280978134515,228.18310505841842 169.98331614068064,228.19531683252444 169.7268688843631,228.89138795629495 169.18649788026244,230.94296600638023 168.92241826512867,231.79779019343812 168.8064064112124,231.99317857904353 168.60185919493645,232.34732002811828 168.60033272308223,232.43280244722442 168.484320869075,232.58544962354972 168.3530442974352,232.71367325139005 168.1378117789075,232.87242631495036 167.95310869555385,233.01286171707866 167.76687914034596,233.165508893404 167.60965254882186,233.33647373079737 167.47684950541884,233.49522679435768 167.33030821614653,233.67840340613003 167.2142963620483,233.82494469494742 166.9273196705567,234.18519203098418 166.7960430990079,234.32562743347643 166.60828707203677,234.45385106186265 166.08928667262165,234.83852194583855 165.71682756229688,235.1010750889361 165.2298830698191,235.47964008658687 164.95359168067026,235.68113435906332 164.4529089423232,236.06580524358512 164.488017792969,236.16349943625136 164.6559296868359,236.44437024068995 164.6452443845841,236.6641821747804 164.7490444644853,237.19539434821053 165.01312407943715,238.34940700132097 165.24820073097814,239.2408665113338 165.3504743391161,239.82092578118807 165.33826256501007,240.1384319076718 165.30925960150827,240.43151448648936 164.53839136115636,244.26601155596342 164.46359424466598,244.44918816737183 164.37047946710754,244.61404711780318 164.26515291553403,244.79111784243156 164.11555868264423,244.92544735741586 163.95375267583037,245.03535332418812 163.36300810336041,245.38338888639183 162.94322836846575,245.59709493361123 162.81347826868023,245.64594202948942 161.97086585527344,245.25516525855153 160.54208828486844,244.36370574890262 159.29496085429054,243.66763462476817 156.47098809227208,241.72596254181906 152.3510408033426,239.35077247810605 149.45074445316146,237.3541474120438 146.35353324552068,234.6797688825512 145.97038883285313,234.42942751355963 145.68951802841454,234.13023904759805 133.63039109871403,226.71158627855132 130.31794737245454,224.22649024806603 129.86305878718704,223.95783121718756 129.48296731795503,223.72580750953702 129.11203467957546,223.4754661402725 128.72889026699892,223.21291299717493 128.35948410020063,222.92593630550132 127.98702498996686,222.7061243714109 127.57945702926922,222.52905364687354 127.10930372609624,222.3580888097531 126.64830925359378,222.22986518173082 126.20715891401359,222.07721800540548 125.75837621570813,221.9367826031862 125.58893785007801,221.8818296195271 125.40118182301589,221.83298252273906 125.35233472668277,221.82687663614098 125.3126464607472,221.802453087565 125.21342579622673,221.7658177652469 125.05772567628391,221.70475889489876 125.00429916457004,221.68033534641376 124.94934618109293,221.6620176853457 124.89897261290558,221.65591179847465 124.80127842005737,221.64980591123967 124.28685743584103,221.64980591123967 123.72053641167409,221.63759413713365 123.31754786626621,221.55821760553545 123.24580369330234,221.55821760553545 123.09163004521375,221.55821760553545 122.68711502804264,221.48494696080832 121.78344374419672,221.32008801037696 121.58500241488282,221.31398212377889 121.38808755742315,221.31398212377889 121.16369620822493,221.3261938978849 120.96067546371225,221.35672333269505 120.75154883214655,221.3994645422481 120.52563101127606,221.4483116387632 120.27986905730131,221.4910528480433 120.07990125640612,221.53379405759637 119.82345400008859,221.56432349267945 119.6112744249964,221.56432349267945 119.13196229142586,221.56432349267945 118.94115332101921,221.56432349267945 118.66333546001614,221.56432349267945 118.41452056278784,221.56432349267945 118.16112624990583,221.56432349267945 117.54137871411601,221.55821760553545 117.26661379663943,221.55821760553545 116.91094587580143,221.55211171857343 116.52932793498813,221.53989994419445 116.30951600107967,221.50937050902039 116.08817759540794,221.47884107421024 115.82104503683863,221.42388809055115 115.59207427235064,221.36282921965707 114.90821492250419,221.2284997049457 114.35715861587879,221.2223938174378 113.9221141634426,221.24071147905175 113.36189902623768,221.29566446243788 113.11003118548287,221.338405671718 112.25062758268032,221.4727351867023 111.99875974165255,221.47884107421024 111.78810663832361,221.4727351867023 111.6018770832977,221.43609986465717 111.36985337519222,221.36282921965707 111.20346795299761,221.3261938978849 110.98365601918015,221.28345268833183 110.8187970687488,221.28345268833183 110.65393811831744,221.3261938978849 110.49976447013788,221.38725276786914 110.2082083634475,221.56432349267945 109.4083371595938,222.0100532475494 109.29232530549557,222.05890034406448 109.13204577026299,222.1260651012837 108.99008389628044,222.14438276289766 108.896969118722,222.14438276289766 108.83896319171836,222.15048864949574 108.70616014831533,222.15048864949574 108.57183063314906,222.1260651012837 108.43902758974602,222.06500623120849 107.63762991403809,221.6620176853457 101.88741078186317,217.38789674823667 101.23255439542754,217.12534360513908 100.93183945806665,217.09481417005597 100.58380389604491,216.99101408988182 100.20523889875811,216.88721401034454 99.79309152267975,216.77730804293537 99.04817330221216,216.67961385026913 98.56122880973439,216.5269666739438 97.97048423744637,216.3193665139594 97.43011323325473,216.11787224120997 97.1019218040643,215.97743683899068 96.76915095976608,215.8308955501733 96.53254783637085,215.69046014768105 96.26846822132804,215.4889658751136 96.17382697200634,215.40348345600745 94.67788464420015,214.64024757438085 92.9377068339095,213.2358935526428 90.36865485635431,211.34306856584487 89.92903098853739,210.8057505052707 79.16129917054913,194.71063223361966 76.9982886820193,194.3076436883028 74.74216341593103,193.98403167403816 73.6950037864303,193.82527861102378 72.8920796389591,193.6237843380014 71.61747571655167,193.0925721642983 71.04046939004195,192.81780724682173 70.37340122959128,192.469771684891 70.04978921578159,192.32933628267168 69.88950968064,192.24385386411146 69.46057111507486,192.06067725270304 68.9949972274646,191.93245362458978 68.51110567842234,191.84086531879458 68.4576791666175,191.82865354468856 68.25618489395904,191.7553829000524 67.84556398955294,191.57220628828006 67.4196783676053,191.41955911195473 67.20291937722334,191.3646061285686 66.69918369534977,191.28522959660646 66.64881012716242,191.27301782250044 66.14202150176234,191.27301782250044 65.63675934830749,191.31575903178054 65.46579451064116,191.3462884672276 64.95442647004232,191.43177088606075 64.44763784455127,191.49282975659088 64.33773187768801,191.51114741765892 64.1072346413458,191.541676852833 64.05991401668494,191.55388862693903 64.00038161800906,191.55999451444697 63.50122535133426,191.5233591920379 63.39742527152403,191.50504153078788 62.93490432716732,191.38292378981862 62.65403352272872,191.30965314518247 62.51665106403593,191.2913354835685 62.041918345755164,191.2913354835685 61.9823859468973,191.30354725767452 61.921327076458155,191.31575903178054 61.43896199936112,191.45008854740175 60.955070450318864,191.541676852833 60.474231844803114,191.6393710457722 59.95675791715125,191.66990048121923 59.53850465392888,191.6576887071132 59.3553280423385,191.6210533844312 58.90043945698002,191.42566499882577 58.45318323025584,191.23638250018237 58.012032890675655,191.08373532385704 57.580041381674995,190.87002927718356 57.38923241126834,190.71738210085823 57.106835135157475,190.41819363516962 56.79085548007308,190.13732283073102 56.74811427070198,190.11289928251898 56.70384658956764,190.09458162117798 56.52524939326701,190.0274168636858 56.47487582507966,190.01520508957978 56.332913951097105,189.97856976753465 56.28864626996276,189.96025210619365 56.12226084776816,189.86255791325445 56.07799316663382,189.84424025245937 55.9512960102838,189.78928726852732 55.52083097304639,189.58168710881586 55.42161030852591,189.55115767391473 55.35597202261504,189.44125170659657 48.27619598464657,185.1854484305556 48.14949882829655,185.11217778637436 47.51753951830972,184.48327141982304 44.74241385280634,181.4181161191196 44.18677813089118,180.88690394550744 43.28615979066276,180.23967991807007 42.637409291280136,179.8427972591693 42.39775322435839,179.80005604988918 42.32600905157648,179.78784427578316 41.858908691930004,179.70846774445792 41.40402010666251,179.57413822910968 40.979660956296144,179.42149105278435 40.692684264804534,179.36653806912526 40.19963388536473,179.35432629501923 39.71421586455922,179.3237968601181 39.20437429563264,179.25663210208006 38.95555939822236,179.232208553868 38.45640313163856,179.244420327974 38.40908250697771,179.25663210208006 38.3632883541711,179.26884387645904 38.16637349671143,179.33600863431514 38.12057934381384,179.34822040842116 38.02593809449213,179.35432629501923 37.51151711036678,179.3787498432313 37.015413787309484,179.39706750429934 36.704013547423855,179.38485573019332 36.6139517134829,179.35432629501923 36.461304537157574,179.3115850860121 35.985045347113555,179.1650437966488 35.51947145923033,178.98797307211143 35.082900534848925,178.85364355703612 34.98367987023747,178.8353258957861 34.823400335095876,178.84753766989212 34.774553238762756,178.87196121783123 34.73486497282719,178.90249065327825 34.65854138466453,178.95744363693734 34.61427370353019,178.9757612979144 34.44178239428257,179.03682016826258 34.339508786144606,179.0490319423686 34.19602044048979,179.0673496037096 34.09985271931385,179.05513782960358 34.05405856641625,179.0490319423686 34.0128438288994,179.02460839415656 33.97773497825359,178.99407895898247 33.854090765521065,178.85364355703612 33.84187899132405,178.77426702489203 33.76097598787163,178.38349025368117 33.73197302446081,178.34685493163605 33.59459056567703,178.2247371904848 33.548796412870416,178.20031364218178 33.49842284459208,178.17589009369678 33.44346986111496,178.16367831959073 33.38088451882158,178.1453606585227 33.31524623300169,178.13925477165165 33.258766777761316,178.13925477165165 33.203813794375186,178.1453606585227 33.14733433913482,178.16367831959073 33.089328412131195,178.1881018678028 33.03895484394384,178.2125254162878 32.9946871628095,178.24916073869687 32.91836357464683,178.304113722083 32.832881155813666,178.3407490441281 32.77945464428178,178.34685493163605 32.7306075476757,178.34685493163605 32.4985838397522,178.33464315753002 31.99026874258887,178.27358428663595 31.510956608836374,178.23084307735584 31.014853285779076,178.2125254162878 30.527908793483267,178.20031364218178 30.03638488562474,178.1881018678028 29.53417567551443,178.13925477165165 29.025860578351104,178.10261944951554 28.53891608578234,178.07819590103054 28.02296862980275,178.00492525630338 27.844371433502122,177.97439582149326 27.786365506589483,177.9499722731902 27.496335871480387,177.85227807997808 27.383376960999648,177.84617219310704 27.20477976469902,177.833960419001 27.108612043614066,177.833960419001 26.937647206129704,177.85227807997808 26.882694222743574,177.86448985444804 26.771261783935103,177.87670162855406 26.298055537417586,177.87059574104612 25.79584632739826,177.79121920972088 25.742419815502426,177.77900743561486 25.481393143986125,177.77290154837988 25.334851854713815,177.79121920972088 24.876910325737846,177.87670162855406 24.441865873210677,177.88280751515214 23.932024304375084,177.90112517649317 23.434394509554533,177.90112517649317 23.264956143742438,177.89501928953112 23.205423745066547,177.89501928953112 23.158103120314713,177.88280751515214 23.115361910943623,177.8583839669401 22.941344129932755,177.63857203339558 22.626890946793576,177.3271717937829 22.326176009341705,176.9852421185412 22.288014215260375,176.905865587216 22.26817008233808,176.86312437766293 22.358231916370023,176.7715360715948 23.22832082142436,175.95945309381702 24.655571920157115,175.17179366397835 24.71968373421375,175.05578180969815 24.889122099843874,174.88481697257774 24.968498631624026,174.7504874570475 24.97765746211256,174.36581657307164 24.954760385754746,174.22538117085233 24.78226907650713,173.8651338345426 24.75937199996735,173.81628673830048 24.74105433880831,173.76743964187636 24.73342198008303,173.6208983524221 24.820430870588464,173.50488649850584 25.003607482087865,173.24843924200633 25.733260984922907,172.64395642394 26.049240640007312,172.22875610451712 26.08434949047115,172.1982266690701 26.08434949047115,171.27013183701212 26.079770075272375,170.87324917856628 25.965284693028384,170.4824724074464 25.754631589608454,170.14054273211374 25.591299111031343,169.78640128331196 25.485972559275886,169.4078362856612 25.406596027677704,169.02927128828344 25.357748931162615,168.6446004040346 25.287531230052966,168.2477177459527 25.25394885135238,167.86304686161287 25.25394885135238,166.7090342082295 25.23715766186561,166.33046921121567 25.171519376136704,165.9457983266029 25.0677192961445,165.56723332958904 24.904386817567392,165.21309188015036 24.66473075064565,164.89558575339368 24.28005986639682,164.62082083619006 23.925918417413058,164.35216180613045 23.530562230639486,164.08960866248697 23.48018866245213,164.07129100178284 23.417603320067762,164.06518511427493 23.335173844852086,164.04076156633582 23.1977913861593,164.31552648353943 23.00240300055387,164.6513502716371 22.78869695360743,164.98106817222686 22.50629967749657,165.2863625248775 22.217796514150727,165.518386232801 22.02698754374407,165.58555099083907 21.929293350895865,165.60386865163417 21.440822386654833,165.60386865163417 21.248486944484927,165.58555099083907 21.163004525742746,165.55502155548302 21.08515446581683,165.518386232801 20.67758650502822,165.31078607308956 20.239489108974542,165.17645655810523 19.770862277746787,165.02991526865097 19.31139427691658,164.87726809232564 18.874823352717144,164.66356204574313 18.458096561258028,164.45596188603167 18.04136976998088,164.18730285542617 17.63227533733803,163.91864382545754 17.26897505768376,163.649984794852 16.930098326241545,163.3874316517544 16.60343336899634,163.08824318597482 16.266083109317375,162.8073723816272 15.919574018967909,162.5326074643326 15.553220795787134,162.2944778692651 15.133441060892498,162.06856004821265 14.727399571958124,161.86095988850118 14.33356985703879,161.62283029306974 13.982481351490549,161.36027714997218 13.677186998839902,161.07330045866252 13.445163290734428,160.83517086350403 13.385630892058536,160.76800610601188 13.37494558962478,160.68252368717873 13.382577948441044,160.3711234472931 13.407001496653097,160.316170463634 13.463480951893466,160.0963585298165 13.439057403681414,159.7238994199467 13.368839702571766,159.54072280790137 13.239089602786226,159.37586385774298 13.109339502818717,159.16826369803152 0.1053265517554575,141.58941487240736 0,141.44897947018805 0.07327064472713972,141.34517939001387 0.31903259851992455,141.29022640662774 0.5632680807314258,141.22916753637057 1.041053742629686,141.07041447253732 1.2471274305778868,140.97882616710606 1.5524217832285323,140.79564955560664 1.6546953913664986,140.72237891060655 2.0714221828256143,140.48424931544807 2.4530401236389214,140.22169617235048 2.866713971480546,140.01409601236608 3.2849672346119303,139.81260174016256 3.7505411224041647,139.59889569294316 4.153529667812032,139.34855432367866 4.564150572218135,139.15927182530822 5.041936234116395,138.96998932657382 5.466295384300793,138.8051303758695 5.937975159146039,138.6402714254382 6.412707877426809,138.4937301366208 6.525666787907547,138.44488303983275 7.797217766697486,138.23728288012128 8.093353288859596,138.11516513897004 8.928333343450097,137.3702469189574 10.932590768419615,135.1477040315697 14.46331995682433,130.01875890703886 15.223502895015422,127.74736892295412 16.423309700841475,125.72632030867982 18.18180517220018,124.04109548186628 22.67115862792792,120.39588091139954 23.616044649290682,119.35177422506138 31.697186164044254,105.83334028959982 29.987537789109652,101.8523019310354 30.08828492557535,99.15349985396763 30.39968516527901,96.48522721171 30.401211636951277,96.31426237404366 29.93869069268555,94.3420608559205 28.99685761475831,93.00487159167461 27.343688695155063,91.06319950872552 26.026343563467528,88.61473880028538 25.966811164791636,88.55978581662629 25.556190260385534,88.18732670675644 25.85690519774642,87.96751477293896 26.09961420819467,87.7843381611666 26.3438496902242,87.56452622734912 26.51328805603629,87.36303195423577 26.606402833503754,87.25923187469847 26.829267710938726,86.89898453866171 26.887273637942346,86.84403155527556 26.923908960260427,86.8012903457225 27.01702373800084,86.61200784698812 27.168144442471927,86.36777236468564 27.259732748176134,86.08079567364895 27.69019778550453,85.42746575879461 27.9527509286931,85.22597148568124 28.44122189302512,85.0122654393717 28.609133786891988,84.89625358481854 28.76025449145406,84.71918286055413 28.871686930171546,84.53600624878176 29.05944295705169,83.90099399554138 29.11592241247403,83.6811820617239 29.245672512168586,83.52242899789064 29.639502227087917,83.24766408095998 29.77077879881868,83.10722867846773 29.883737709299417,82.91794618009729 29.95700835384459,82.67371069770381 29.975326015003628,82.27072215211398 30.050123131494022,82.0936514275766 30.124920247893428,82.00816900874344 30.2928321417603,81.87994538090312 30.463796979335644,81.70287465609279 30.575229417962145,81.50138038388927 30.668344195520593,81.20219191783671 30.666817723848325,80.71372095395962 30.721770707234455,80.56717966432338 30.816411956556156,80.39621482720295 31.040803305845365,80.13366168355945 31.11560042215379,80.07870870017332 31.811671546288245,79.65740249387937 32.26045424459371,79.33989636703171 32.44821027156484,79.13840209400934 32.50468972680521,79.0651314492822 32.50316325495097,78.38737798648874 32.40852200572026,78.25915435864843 32.38867787270698,77.95386000599778 32.48331912202868,77.79510694252846 32.59475156083715,77.67909508824827 33.15649316962335,77.30663597810546 33.47857871176077,77.18451823722718 33.77624070559515,77.07461227045492 33.89072608783914,76.98912985162175 34.07695564304702,76.67162372486507 34.339508786144606,76.49455299996376 34.67838551758682,76.39685880729753 34.826453278713366,76.32358816266137 34.95772985026216,76.2197880824872 35.070688760742904,76.04882324545775 35.27676244887307,75.48708163630762 35.3317154322592,75.24284615455105 35.481309665149006,74.56509269139366 35.479783193294764,74.17431592027378 35.40498607698634,73.91786866350134 35.12106232893026,73.38055060320013 35.04626521253085,73.22179753991279 34.96994162436819,73.02030326716336 34.96841515260493,72.84933842922408 35.008103418449515,72.55014996408137 35.061529930254366,72.47687931908126 35.13632704656279,72.40360867435413 35.38056252877429,72.09831432170348 35.39888018993333,72.04336133831735 35.4553596451737,71.98230246806018 35.55000089440441,71.75027875977273 35.56831855556345,71.5793139227433 35.473677306241754,71.42056085891004 35.43704198401466,71.3656078755239 35.2660771465303,71.2373842476836 34.79592384335732,71.06031352287326 34.60816781647717,70.97483110404009 34.289135217957245,70.74891328326059 34.21281162979459,70.7183838481775 33.76250245963489,70.44361893060994 33.57321996108247,70.24212465758755 33.403781595270374,70.02841861118704 33.17786377439988,69.57658296890014 33.15801964138661,69.53384175962003 33.139701980318556,69.28960627786346 33.196181435467935,69.20412385903029 33.345775668266754,69.11864143992418 33.55184935630594,69.08811200475009 33.66480826678668,69.07590023064407 33.94567907122527,69.11864143992418 34.30439993568076,69.23465329420436 34.64175019535973,69.36287692222666 35.29965952523089,69.72312425853639 35.67669805075443,69.93683030493692 35.93314530707196,70.05284215949007 35.99725712112859,70.0833715943002 36.072054237528,70.12611280385327 36.54068106875576,70.09558336877018 36.690275301645556,69.15527676224225 36.690275301645556,68.86830007065966 36.650587035800974,68.74007644254638 36.61242524171964,68.67901757256216 36.38650742066718,68.4775232994488 36.10563661631957,68.34929967160848 36.01099536690689,68.31877023625243 35.76828635664061,68.1478053985861 35.65380097439662,67.9463111257457 35.614112708552035,67.41509895240652 35.295080109941125,67.11591048689988 35.18212119955137,66.98158097136965 35.10732408324295,66.82282790835525 35.08747995022967,66.75566315031719 35.10427113953447,66.59080419988584 35.33018896049595,66.13286267090987 35.348506621745976,66.0290625913726 35.348506621745976,65.68713291603993 35.40498607698634,65.55280340105561 35.554580309694174,65.44289743428335 35.611059764934545,65.41236799883632 36.38040153361417,65.30856791929904 36.53152223826722,65.25361493554897 36.58647522165336,65.21087372635985 36.6795899992118,65.03380300145854 36.73606945445217,64.75903808398196 36.79254890978353,64.51480260222539 36.84750189316966,64.34383776455905 37.227593362219714,63.934743332371134 37.261175741102264,63.879790348621064 36.3529250419666,63.4157429325011 35.30729188404715,62.98222495173718 33.858670180810826,62.530389309996195 32.87714883694801,62.21288318323952 32.75503109588775,62.17014197395942 31.733821486271346,61.63892979998335 31.1217063092068,61.27257657698455 30.56912353090913,60.82074093497061 29.99517014792592,60.197940455836246 28.435116005972105,58.79969232069629 27.392535791579167,58.054774099773795 25.40354308406021,57.00456152683754 24.77158377416436,56.59546709455863 23.463397472965358,55.70400758490973 23.478662190688876,55.61241927856863 23.387073884802696,52.76097002517554 22.500193790443557,51.59474559795909 20.99203968834937,50.318615203970374 19.16485298764427,48.963108278292495 17.3330868717404,45.36063491655995 15.026588037555756,41.87417340928958 14.208399172361041,40.811749062520256 16.800348226456006,41.44676131576065 22.909288222904436,43.82195137947365 27.815368470000312,44.6462461316304 31.570489007694235,44.579081373865286 33.87546137011562,44.05397508739716 34.496735377941654,43.138092029445225 35.44925375812068,41.49560841254869 35.722492203743016,38.320547144527055 36.10105720093883,36.50709868969123 36.07968659634427,34.87682684680974 36.45519865010456,33.948732014751776 37.50083180784204,32.397836703013546 38.01525279205838,31.95821283565154 39.32954498031039,31.213294615001995 45.33621136862085,29.992117204399413 50.503318287324014,29.08844592064449 54.56373317748662,29.06402237234145 57.006087998691775,29.399846160166177 57.63346789347984,29.21056366179573 59.810216627878944,29.31436374133301 60.99781165968995,29.491434466234324 62.19761846551601,29.668505190771697 63.51038418200476,29.747881722096928 67.80587572370837,31.164447518304936 67.85166987660595,31.176659292410964 77.55697734736998,33.41141395390467 77.66840978617844,33.42973161524568 82.53938118262852,34.26013225436445 84.78024173117524,36.26286320793466 85.12980376496023,36.59868699594135 85.88388081591634,37.319181668014906 86.67611966113574,37.84428795484697 87.67443219430335,38.87618286671517 88.75212125906916,40.420972290763494 88.81165365792701,40.506454709869615 88.79333599676798,40.60414890253585 88.85744781082461,40.7445843050281 88.88187135903667,40.78732551430821 88.92003315311798,40.817854949391304 88.96735377768786,40.83617261045936 89.35049819026442,40.854490271800366 89.41003058912227,40.854490271800366 89.46345710074516,40.86670204590639 89.50925125364274,40.89723148135342 89.6084719183452,41.12925518900398 89.7290631876422,41.489502525040756 89.89544860974581,41.83143220000947 90.13052526128682,42.17336187534214 90.41292253748867,42.49086800209881 90.45261080342424,42.533609211378916 90.68463451134774,42.83890356402956 90.73348160786283,42.906068321521715 90.84491404648932,42.99155074035488 90.93039646532249,43.034291949907946 90.9822965052731,43.05871549784704 91.35017620021713,43.32737452845256 91.39444388135148,43.3579039632627 91.42802626005206,43.39453928594472 91.45702922355387,43.431174607989846 91.59441168224666,43.62656299359527 91.75927063267801,43.97459855579898 91.78980006803405,44.05397508739716 91.83712069260392,44.12113984488931 91.95923843366418,44.19441048961646 92.38054464041306,44.365375327282784 92.68431252120946,44.50581072950209 93.16973054201497,44.652352018592424 93.652095619203,44.77446975947071 93.89480462956026,44.92101104919794 94.26268432450429,45.17745830506055 94.39548736781633,45.23851717595462 94.43975504895067,45.25072894978769 94.88090538862184,45.287364272378724 95.31900278467552,45.40337612611301 95.79831491824605,45.45832910949915 96.13261223448949,45.433905561560046 96.26541527780154,45.40948201325701 96.32952709194916,45.391164352279944 96.38905949062504,45.37284669066598 96.44859188939192,45.34842314272688 96.51117723168531,45.33010548138587 96.57528904574194,45.323999594787786 96.64398027508834,45.323999594787786 96.84852749136427,45.37284669066598 97.12023946540532,45.42169378745402 97.6529781106897,45.49496443181722 97.6987722635873,45.507176205923244 98.1231314137717,45.70867047876366 98.55206997915487,45.92237652598305 98.83446725535671,46.00175305758123 99.31835880430799,46.123870798186566 99.80530329678577,46.24598853933781 100.29377426111779,46.343682732277 100.34109488568765,46.35589450665598 100.40215375639976,46.37421216745108 100.45252732449612,46.40474160289811 100.56701270674012,46.49632990860232 100.60517450082145,46.53296523128434 100.65249512539131,46.56349466609448 100.982213026254,46.65508297216263 101.07990721910221,46.679506520101725 101.56532523990772,46.819941922593976 102.05226973229452,46.96037732481327 102.1499639252337,46.9725890989193 102.20033749342107,46.978694986063296 102.29803168617829,47.00311853436634 102.93914982683563,47.02143619507045 103.90082703759418,47.161871597289746 104.08400364927554,47.22293046818381 104.51141574289547,47.216824580675876 105.50362238901006,47.13134216238862 106.95224409242837,46.71003595554876 107.53230336237361,46.30094152272394 107.89713011379114,46.11165902435349 108.1551038418719,46.068917814800436 108.70463367655209,46.068917814800436 108.87254557060092,46.032282492755314 109.29995766431183,45.830788219641946 109.77316391082934,45.5987645119914 110.1532553798794,45.47054088360517 110.94702069686207,45.24462306282566 111.31337391995186,45.1530347568485 111.40496222583803,45.104187660606364 111.61866827260249,44.75004621125866 111.86137728305074,44.530234277714136 112.10561276508028,44.45696363271404 112.65514259985144,44.31652823049475 112.8520574573111,44.32874000487372 113.23520186997865,44.43254008477494 113.64734924596604,44.62182258314539 113.86105529282149,44.658457905827404 114.25793795126732,44.658457905827404 114.42584984531616,44.548551939055145 114.82120603190776,44.40811653683585 115.06544151402828,44.34095177897975 115.82867739565489,44.30431645638872 116.14923646602907,44.21883403810146 116.34615132348873,44.09061041007918 116.62091624096529,43.82195137947365 117.06359305212676,43.33348041505065 117.36736093301415,43.07092727168011 117.74897887382745,42.99155074035488 118.06190558529437,42.979338966248854 118.22981747934321,43.01597428829398 118.596170702433,43.32737452845256 118.76408259648184,43.443386382095866 119.00831807851137,43.504445252716984 119.25255356072287,43.541080574762105 119.67996565443377,43.49223347888391 120.1821748645441,43.31516275425555 121.21864919179303,42.9854448531199 121.67506424900574,43.01597428829398 123.41066264373367,42.95491541794582 124.43645166873084,42.88775066018071 126.43765615026483,42.59466808163609 128.17630748870124,42.34432671264453 129.21736123114897,41.758161555646275 129.98365005639306,41.32464357488236 130.5667622699558,40.99492567401966 131.9375339132662,40.43928995237746 133.618179324608,39.425712701486326 134.12496795000808,39.35854794399417 134.41347111326294,39.29138318613808 134.84088320706482,39.08988891338865 135.45147191236612,38.91281818912423 135.97047231178124,38.74795923869288 136.2452372291668,38.60752383647358 136.41162265136143,38.42434722470123 136.82224355567652,37.84428795484697 137.0054201673579,37.41687586068114 137.2206526859766,37.08715795981844 137.58547943730315,36.71469884967564 137.92130322530986,36.592581108797354 138.63569201042137,36.3849809490859 138.85092452904007,36.287286756146706 138.94251283483527,36.22012199865455 139.3851896461787,36.091898370268325 139.70574871646187,36.043051273753235 139.97898716208422,36.030839499647215 140.33160213948668,35.97588651653403 140.89487022003615,35.749968695572555 145.84521814835736,34.144120400630165 148.23719940137516,31.47584775846352 149.37289439314458,31.109494534918806 151.4473695194057,29.576916884976505 152.057958224707,29.418163821507186 153.69738889844098,29.161716565007687 161.4045448311065,29.32046962856799 162.98291663431036,28.72209269709977 167.6188113793104,25.669149170593318 170.4641547460144,23.245112011002117 173.1736421257889,19.905191792822087 174.37192246003366,18.158908095478424 175.11684068041026,17.792554872570605 175.6343146081531,17.62769592204827 176.3716004698044,17.62769592204827 176.58835946018635,17.58495471285915 177.134836351431,17.3101897952916 177.8431192496715,16.931624798277753 178.49797563610713,16.63854221946018 179.48102345155124,16.052377062097985 179.78021191714888,15.99131819202278 180.57245076236828,15.93025932149265 181.6089250896172,15.637176742675077 182.20882849248474,15.594435533122017 182.70035240025229,15.783718032038372 182.9934349787969,15.777612145167328 183.13692332472468,15.759294483553365 183.43611179014033,15.57001198518292 183.73682672750124,15.405153035024526 183.86962977090425,15.154811665760011 183.73530025573797,14.757929007314173 183.73530025573797,14.104599092459821 184.06196521307416,13.50011627412056 183.98869456852898,12.981115874523477 183.94290041563139,12.681927409107814 184.09554759195672,12.443797813949326 184.7946716595267,11.99196217220834 185.47089865064788,11.540126530103414 186.56232596128297,10.856267180074983 186.8676203139336,10.770784761605757 187.5652179097403,10.233466700667668 188.0613212327976,10.01976065408517 188.39867149247658,9.903748799804971 188.5513186688019,9.622877995366377 188.58184810406698,9.512972028321158 188.6200098981483,9.250418885223574 188.51315687472058,8.926806871504875 190.06405218618585,8.590983083771134 191.4623003214168,8.310112279059586 193.68789615224,7.870488411424626 202.6406530436292,6.148628262565969 202.69407955543406,6.154734149164058 203.55958904519863,6.020404634179744 203.16117991489855,5.403710041916425 202.68339425300027,4.7503801270620745 205.8355584442092,3.2483319123848378 213.6297232672892,1.6424836174424424 214.44638566072064,1.3677186996929223 215.86753087221842,0.8120829777777626 217.09786711340053,0.5434239478091337 217.95879718796633,0.3968826583548543 219.2135569772695,0.22591782096147767 220.67744339822934,0 220.68965517233536,0.09158830570420884 221.71239125371503,0.6838593499374459 221.91083258293793,1.257812732647705 221.94288848996626,1.3432951514808706 221.74444716074333,1.6302718433364165 221.8406148818283,5.428133590219462Z"/></svg>