<svg xmlns="http://www.w3.org/2000/svg" width="256" height="256"><path d="M253.89569497989885,6.297629551985825 253.4880814165623,6.657688199712829 253.19935514260393,6.915843456327305 252.86647073262841,7.201172950895731 252.4486668303122,7.540850920258505 251.6877881790408,8.193032621333797 251.23092131014667,8.580265506609823 250.45985231969317,9.273208564211114 249.94014502677058,9.538157380010382 248.79712865966238,10.156371284048166 247.74752373433142,10.720236713595298 250.74688020400717,14.028700135289947 250.15923731690833,14.361584544759305 249.50365883593696,14.73523031126082 248.7257962860962,15.170018112146403 247.74073017494416,15.774644897308443 247.1819599153424,16.127909985850657 246.63337999492273,16.487968632869038 246.0389435485379,16.94993067130364 245.469982949754,17.43227338779878 244.904419130765,17.94179034184294 244.52397980517992,18.32902322681527 244.05352581751126,18.838540180859432 243.37247148904012,19.572244594986717 242.61838639695353,20.414645958905165 241.8999674918525,21.1823181695638 241.29703909623356,21.827706311758 240.94037722830143,22.140210043268056 240.58881053001096,22.452713775081808 239.92983526944718,23.023372763510036 239.42201670535107,23.417399207970853 238.96005466691645,23.770664296513065 238.3961892378755,24.18507141903442 237.98687728479334,24.456813794119707 237.70154779042738,24.674207694714347 237.42640863534476,24.92556939214403 236.95085947813564,25.34677007415387 236.49229421959714,25.76117719708015 236.07618870712773,26.13482296287304 235.59044921083773,26.569610764062322 235.11659844357666,27.03836636147925 234.5034797089781,27.602231790925153 233.87677385540255,28.349523323017095 233.4776522415025,29.01529214327183 232.99870630480225,29.878074185149575 232.85943833716104,30.224545714405767 232.55372816473454,31.365863691565917 231.8879593447835,33.77757727353545 231.1848259483038,36.28440068743272 230.551326535341,38.34284918197359 230.1980614472037,39.504547837497974 230.09445966654806,40.61869157670418 229.88046254584953,42.09968752292341 229.71232195101493,43.28176685650833 229.41170694812888,45.55760925123891 229.2911212690051,46.85517909400224 229.30640677762642,47.8062774085217 229.31999389640094,48.15954249635529 229.57814915321788,49.20575064199264 229.98915949614684,50.700333707593764 230.66002348553707,53.33623474984889 231.25785671181802,55.48979307520395 231.38863272982022,55.96534223271676 231.5448845957271,56.45447850849792 231.80473824228963,57.799603267174504 231.94060943003473,58.66238530935595 232.0594967193117,59.48440599511263 232.21914536501345,60.40833007208307 232.36181011224704,61.386602623746626 232.439936044998,61.88253245871258 232.48239579116836,62.56868195702785 232.5995846905985,63.15972162341538 232.94945299904217,63.86625180009487 233.33498749426892,64.58636909484026 233.37235207100005,64.66109824799884 233.783362413929,65.36083486508862 234.12643716288417,66.06736504105949 234.6274621676943,67.02525691476374 235.18793081714284,67.93559387255475 235.49194259972253,68.46549150526683 235.97598370616572,69.23316371562177 236.48550066020988,70.02121660464464 237.07993710659474,70.98590203793862 237.50283617835015,71.67205153554525 238.06670160749235,72.54162713762011 238.58301212092377,73.526693248266 238.9124997513069,74.20604918699155 239.07554517660103,74.66801122542616 239.2317970425079,75.12997326386076 239.42541348494345,75.89085191533461 239.55958628284176,76.6177627699734 239.62412509702068,77.351467183797 239.65809289395696,78.08517159741812 239.65469611426332,78.54713363585273 239.56977662192264,78.92757296123534 239.44919094279885,79.55258042516654 239.33539882306232,80.11644585400504 239.2080195845513,80.8229760302796 239.09422746481476,81.50233196900516 238.93797559890788,82.22244926445917 238.77662856346055,83.11240554388594 238.63056703673578,83.75100012659165 238.51677491699928,84.3488333522652 238.41996669562965,84.72927267795151 238.2535244906419,85.16406047914079 238.0344322004029,85.75510014532586 237.75589626552542,86.5159787971034 237.53170880574598,87.14098626032597 237.39583761800088,87.5418062646802 237.17165015832268,88.10567169361994 236.8540512569685,88.91410526090581 236.6536412549432,89.43720933382572 236.4158666764905,90.02145544102845 236.0693951477405,90.8842374832099 235.83671573862574,91.40054799643885 235.60573471945906,92.01876190047663 235.31870683544875,92.69132428001738 235.13528073199285,93.19404767447183 234.9212836112943,93.75791310401897 234.6427476763156,94.4440626016256 234.44913123388005,94.91961175883472 234.17908724823664,95.49027074756664 234.05170800972562,95.8027744790767 233.72731554898417,96.50930465565497 233.44708122415864,97.12072500050796 233.11080003459074,97.84084229525334 232.72017036982353,98.64927586264044 232.39068273944042,99.22672841055716 232.00514824421367,99.84494231459495 231.5703604434293,100.47674333811585 231.24087281314743,100.94549893543156 230.81118018200473,101.57729995824386 230.27279060056475,102.2430687781949 229.97896915696472,102.60992098541038 229.7632736465206,102.87486980131088 229.63929118760194,103.09226370160182 229.51530872888577,103.37079963658053 229.38453271057986,103.60178065564598 229.02956923259578,104.28793015426496 228.65932024609157,104.980873211765 228.23981795382733,105.74175186323885 227.96977396818392,106.21050746055455 227.5213990488275,107.02573458712644 227.34306811481082,107.35861899730442 227.0492466712108,107.86813595134858 226.80128175357598,108.28254307356625 226.6076653111404,108.75129867159056 226.3987633598811,109.22005426890627 226.1066403062291,109.96734580190929 225.99114979674698,110.22550105822008 225.6905347937597,110.8097471660302 225.3100954680734,111.48910310475576 224.62224758011376,112.50813701284407 224.3420132554907,112.976892610261 223.93949486179582,113.7038034648998 223.53018290881494,114.4171272007641 223.2431550245009,114.85870856053077 222.66230569689057,115.78263263709628 222.15958230223367,116.69296959488729 221.8742528081714,117.12775739577287 221.4802263635081,117.90222316602123 221.15413551291985,118.56799198627596 220.85352051013504,119.09788961827942 220.52063610015952,119.6142001316096 219.91600931459254,120.57209200501016 219.05662405220596,121.985152357863 218.8477221009466,122.35200456487603 218.33650675705564,123.18081880991873 217.78792683653478,124.17947203994652 217.26991793325655,125.11018967579805 216.97609648985897,125.55856459545814 216.62622818131408,126.11563646511186 216.27805826271725,126.66591477547955 215.88403181825643,127.39961918970808 215.3660229149782,128.39147886024736 215.04163045423675,128.93496361102535 214.53041511034576,129.83171345034555 214.1058176486423,130.53824362672134 213.3551293363506,131.82901990989495 212.64180560068874,132.882021615122 211.62786686214088,134.36981112082972 211.10815956911705,135.0967219754685 210.7837671083756,135.5111290976862 210.5646748181366,135.72172943909604 210.18593388219588,136.07499452692963 209.89890599818557,136.46222741220564 209.2399307376218,137.18913826654074 208.65058946067614,137.90925556128613 208.14616767617244,138.5274694656276 207.62646038314864,139.1660640483333 206.93691410524096,140.00167185296576 206.27793884467718,140.7965183008697 205.8040880774161,141.35359017082712 205.57140866840263,141.66609390294457 205.13831925746507,142.3114820442277 204.49632789536943,143.18105764630255 204.05474653529907,143.75851019421927 203.14780635710045,144.954176646275 202.44297457057147,145.864513604066 202.06083685503836,146.3264756421969 201.76701541164078,146.6118051366641 199.10903530127584,148.51400176529808 198.89164140088366,148.67704719049098 198.47213910872065,149.00993160026405 198.21228546215812,149.27488041616454 197.76221215285366,149.66890686092904 197.50066011644435,149.8659200832607 196.9741592638308,150.19201093384896 196.45615036055258,150.47734042770875 195.93983984712116,150.6879407690174 195.13480305973138,151.0751736542934 194.30598881448623,151.4216451826385 193.03898998876306,151.99909773096016 191.62762802616197,152.66486655050625 190.4472470825251,153.1404157081203 189.4299115642836,153.59558418666148 188.91360105085218,153.83335876531666 188.44484545313156,154.0575462247924 187.7298233276229,154.34287571936082 186.980833405178,154.66217301035937 186.1944789061032,154.99505742084105 185.60343923941195,155.239625558681 184.71348295978274,155.66082624069085 183.77087659469979,156.14316895688228 183.19851921642476,156.4352920103318 182.73485878814333,156.67986014877917 182.43594217520533,156.82931845519755 182.1200416635967,156.99915743987896 181.62411182832707,157.30486761210298 180.82077343088534,157.84155880369616 180.2942725782718,158.18803033264865 179.96818172768354,158.37824999559302 179.72191519989553,158.49374050487268 178.8489428186332,159.01684457769136 177.96068492874954,159.53994865051004 177.1930127179897,160.0562591641439 176.3862775407531,160.58615679645106 175.8190153320185,160.99377035918025 175.2806257505785,161.37420968517023 174.90018642479095,161.63236494218964 174.4789857427811,161.8633459612551 173.35974683373078,162.48155986559658 172.3305225866628,163.0522188540248 171.61210368135932,163.45983241726015 171.04823825231833,163.7791297083599 170.18375782018884,164.26826598403983 169.1358512847047,164.83892497246808 168.33421127700854,165.30768057049238 167.71260059307465,165.66773921811816 166.8837863478295,166.12970125624906 166.1110189675292,166.59166329437997 164.9866848889384,167.2166707580075 164.19014005088394,167.74656839071957 163.13204317621765,168.38516297302036 161.90920248651167,169.1392480646008 160.73901188215817,169.83898468138688 159.9152928063522,170.3281209573705 159.50428246342324,170.57268909561537 159.23593686762666,170.72214740193255 158.77227643944647,171.0686189307838 157.77362320962115,171.70041995400103 156.90065082825757,172.243904704779 156.16354963474035,172.71266030219593 155.31095793174103,173.19500301899475 154.61461809444612,173.6026165822301 153.8775169009289,173.99664302679213 153.0690833338455,174.4246372677843 152.30310951303366,174.87980574733783 151.87002010209613,175.1379610036486 151.27388526576323,175.59312948249348 150.1682334754874,176.37438881233155 148.81801354727037,177.35945492328113 148.06902362482546,177.88935255568953 147.03979937765627,178.64343764757365 145.19364961416957,179.93421393135466 144.45145325111193,180.45052444468485 143.81965222809717,180.87172512679592 142.3284659425946,181.8771719157048 141.2992416955266,182.56332141371638 139.6212325268745,183.67067159434518 138.87903616381686,184.18018854838934 137.92454106980622,184.82557668997615 136.67452614255123,185.65439093542378 135.83212477853155,186.20466924548776 134.9200894307925,186.81608959064445 134.0641009479983,187.38674857907267 133.41022085697497,187.82153637955332 132.80729246145728,188.2427370616644 131.76787787510594,188.94926723824267 131.07663320745272,189.37046791974635 130.33104006490387,190.01585606163687 129.4342902255837,190.68162488158788 128.85683767776823,191.18434827675097 128.30316258760567,191.72103946804043 127.69004385300708,192.3324598130959 127.17033655978081,192.8487703264261 126.5691065540087,193.4058421960798 126.13092197353072,193.82704287808963 125.43118535664341,194.5267794948757 124.78749560480219,195.1381998400324 124.13531390352442,195.7835879816192 123.49332254153002,196.4018018859607 122.86831507780128,196.99284155234824 122.54731939675347,197.28496460650638 121.82380532211198,198.00508190125174 121.28201896087712,198.52818597376674 120.82515209218543,198.99694157209476 120.40564979992116,199.39096801594818 119.75176970889783,200.01597548018307 119.04014436308282,200.74288633451818 118.42193045884257,201.34751311998392 118.17056876151412,201.6668104110837 117.74427290996384,202.1491531274776 117.00377493685423,202.95079313537622 116.57917747515076,203.42634229228162 116.21232526823896,203.82716229633215 115.85056823086761,204.2143951813045 115.53976288890067,204.588040947806 115.13724449520578,205.1111450206247 114.81964559375035,205.47120366764307 114.32711253817433,206.02827553729676 113.82608753346547,206.55137961041913 113.22995269713257,207.16279995527213 112.8766876089953,207.590794196568 112.43850302851732,208.07993047255164 111.87293920962952,208.7660799705632 111.42116751037703,209.3299454000091 111.1765993723346,209.65603625059737 110.67217758803335,210.30142439218417 110.29173826214458,210.73621219276606 109.93167961462004,211.17099999365163 109.67692113759796,211.4970908442399 109.15381706477929,212.16965322367943 108.72921960307582,212.69275729659932 108.428604600291,213.0460223847366 107.81378747564315,213.70499764509793 107.50128374393063,214.09902408996368 107.09876535013451,214.61533460288894 105.61267423417237,216.2389952965442 105.28998016327775,216.57867326590699 105.02163456748114,216.8640027600705 104.62930651286715,217.34634547656563 104.29981888258526,217.74037192143138 103.67650980880457,218.40614074138242 103.34362539882905,218.779786507479 102.9920587006398,219.146638714492 102.61331776469908,219.58822007425871 102.31779793135347,219.92789804362147 102.00019902999928,220.26757601298425 101.61466453477253,220.70236381417354 101.30895436244727,221.00128042711154 100.85038910370629,221.51759094044172 100.39691901480944,221.99314009734715 100.03516197733686,222.4075472204759 99.50696273487652,222.9714126494156 99.10784112097649,223.4265811285642 98.73249696483063,223.82060757282255 98.33167696088132,224.25539537370815 98.11258467064233,224.4863763927736 97.74063729429133,224.87360927804963 97.4841804273212,225.10459029711507 97.23281873009398,225.36274555342587 96.93050533725987,225.70242352278862 96.61969999529295,226.06248217081932 96.28681558531743,226.53123776813504 95.96412151442279,226.97961268809883 95.61425320597913,227.40760692949593 95.42233515328917,227.68614286447462 94.9807537932188,228.27718253055846 94.64107582385601,228.73914456899305 94.24535098954838,229.2079001667137 93.85302293483315,229.77855915514192 93.38426733711252,230.3424245845878 92.83059224715244,230.89949645454521 92.2055847834237,231.54488459623326 91.72154367708174,231.99325951589336 90.97595053443169,232.75413816726598 89.64780967412202,233.97697885656703 85.70075167012658,237.19033244673886 85.08933132537481,237.5911524504857 84.87193742488141,237.78816567271613 84.62906767688825,237.97838533576174 84.28938970752549,238.24333415196594 84.12124911258968,238.37241178052625 83.90895038173795,238.52866364643313 83.56587563268154,238.7664382247846 83.33319622376928,238.92948364987626 83.11070715373543,239.08573551578314 82.90690037211776,239.23519382280892 82.68441130218515,239.37785856984007 82.52815943637951,239.4933490794234 82.30057519690645,239.6496009453303 81.11679747357594,240.45124095282395 79.87357610580943,241.2189131634826 78.9428584696542,241.8575077461883 78.13102812287717,242.33305690309373 77.4822432014955,242.65235419409228 76.46830446294761,243.19583894497148 75.70063225208652,243.61024606779654 74.64593215721511,244.15373081867574 73.95638587950991,244.50699590681302 73.22607824527871,244.82629319841894 71.92850840231291,245.3358101524631 71.25934280266826,245.68907524070164 70.42883016757627,246.1985921947458 69.48112863305414,246.6945220299142 68.7661065075455,246.95947084551102 67.30718962913238,247.44181356200616 66.21002978809062,247.82904644728217 65.35743808499006,248.17551797613345 63.98004391932525,248.65786069232487 62.64001433008787,249.0450935776009 59.863146930547195,249.71086239755195 58.42121395060222,250.05733392650444 57.1813893624281,250.3222827423037 55.539046380559085,250.61440579646185 53.79310161803443,250.9540837658246 52.228884569118854,251.26658749753713 50.399718704201554,251.5790912290472 47.96422766387047,251.9391498767742 46.1350617987507,252.19730513308497 44.63368517416723,252.4894281868382 43.53822372297229,252.64568005274506 42.21517803230429,252.5913315778495 41.129906920291454,252.46904750908135 39.681180380857995,252.21768581175292 38.660448083125324,252.03425970829701 38.45833969115201,250.62119935534295 38.33605562218141,249.79917866948503 38.25113612984072,249.1198227307595 38.33775401202823,249.06547425596514 39.95631953604184,248.14834373828072 40.25014097964187,247.96491763482481 41.92815014829397,246.96626440540442 43.777696691373045,245.8521206654896 44.667652971204745,245.3018423554256 45.47948331788054,244.7855318417917 46.40850256418896,244.26922132846153 47.41394935350277,243.71894301779014 48.52129953352418,243.1075226733421 47.92856147708737,242.7678447039793 47.145603757604945,242.34664402156454 46.86197265328826,242.17001147759714 45.8293516263242,241.60614604845492 45.76141603245164,241.5789718112096 45.22812162055209,241.29364231664118 44.74747729390376,241.02869350074067 44.19550059368926,240.72298332821293 43.409146094614435,240.2949890869171 43.320829822580116,240.233847052533 43.13230854968501,240.13194366142048 43.0456906674975,240.08438874621586 42.7671547325188,239.92813688030898 42.57693506967564,239.80585281123714 42.46314294993911,239.69036230135012 42.330668541988864,239.50693619789422 42.24065388010773,239.41861992626482 42.01306964063467,239.23519382280892 41.89588074110328,239.11970331261819 41.760009553560636,238.99741924385006 41.66150294224297,238.89551585344614 41.56299633112776,238.80040602192335 41.40674446522088,238.62377347734855 41.33371370190912,238.53545720571915 41.221619972019404,238.5014894085804 41.10952624202846,238.35882466175173 40.96855988474291,238.18898567707035 40.79192734067426,238.01914669238897 40.71380140772083,237.97159177647572 40.40639284554875,237.6930558418007 40.17031665674039,237.47566194120606 39.7762902123808,237.14277753112933 41.21822319222455,236.38869243924518 44.018868049620615,234.91449005221074 50.02437454805569,231.7826591744835 50.16024573569956,231.71472358091467 50.26554590630325,231.6671686653051 50.3572589580312,231.61282018980214 53.22074423965815,229.81932051176915 53.42455102127582,229.69024288351252 54.99386323973184,228.63044761899943 55.837962993598325,228.05978863026752 56.04176977521599,227.92391744242116 56.45787528778662,227.63858794856137 57.1202473279428,227.19021302920498 56.74660156174498,226.99319980687332 56.98097936060529,226.748631668426 57.19497648120261,226.53803132772475 57.63825623132226,226.08286284877863 56.789061307915325,225.80432691410363 56.65488851001703,225.7635655574764 56.55808028864741,225.72280420145657 56.45278011814495,225.70242352278862 56.350876727437345,225.66166216707248 55.83116943421107,225.45106182596635 55.23163781838701,225.25404860343224 56.362765456263816,224.39126656125077 57.49389309424185,223.54886519733233 59.04452302438291,222.3871665422129 59.616880402759186,221.9523787413273 59.90220989712515,221.75536551940058 61.564933557155925,220.47817635429286 62.63322077070062,219.64936210894646 62.44639788755109,219.64256854966044 62.00311813753267,219.60860075292663 61.556441607820624,219.64936210894646 60.86010177062693,219.6018071930332 60.265665324242086,219.5814265149727 60.11960379741609,219.58822007425871 59.52686574097928,219.49311024303958 58.16645547358014,219.29609702080919 58.06625047261812,219.27571634244495 56.90625020724425,218.93603837308217 56.8145371555163,218.91565769542657 55.46771400699291,218.52842481045425 55.15521027528038,218.44010853811622 54.52680603185802,218.2430953155821 54.22109585953275,218.14119192517822 53.670817549063834,217.94417870284659 53.06958754329172,217.71999124276346 53.196966781802765,217.5093909023659 53.606278735087365,216.65340241906557 53.97822611133714,215.87214308993612 54.16335060474108,215.48491020466008 54.55058348971342,214.65609595921245 54.8053419667355,214.59495392513207 55.04651332498307,214.0582627332352 55.38109612490663,213.3109712009408 55.45242849847281,213.15471933503392 55.63245782213385,212.7742800089427 55.88381951956353,212.224001698575 55.3080653613924,212.10171762980687 55.51526892280492,211.62616847290144 55.44563493908556,211.5922006757627 54.93951476463379,211.33404541914823 54.95819705294874,210.88567049979184 54.99216484998625,210.5867538861452 55.00575196876076,210.35577286707974 55.02952942651493,209.98212710088194 55.03632298590218,209.79190743814002 55.06010044375758,209.39108743408946 55.0753859523789,209.1465192965532 55.11105213926322,208.54868606996857 55.1365279868642,208.2293887792737 55.1365279868642,208.13427894775091 54.43679136997689,208.16824674488964 53.565517378561374,208.22259521938028 53.008445508806425,208.27694369488327 52.833511354685825,208.29732437314627 52.29512177324583,208.37205352600114 51.53763990156684,208.4943375954779 50.91433082768492,208.5758603075176 50.1398650575378,208.6777636989338 49.53014310273408,208.71852505464994 49.14460860730487,208.71852505464994 49.035911657108784,208.6777636989338 48.98665835155118,208.63020878302055 48.925516317065885,208.47395691711367 48.67415461973743,207.5092714838197 48.584139957856294,206.8706769018226 48.482236567148696,206.19132096309707 48.368444447412166,205.2198419706183 48.33277826062908,204.7918477289175 48.324286311293775,204.3095050128273 48.334476650374654,203.65052975175735 48.3276830909874,202.61111516601343 48.324286311293775,201.5173521046653 48.329381480834215,200.52549243422723 48.303905633233235,199.72385242642986 48.28862012451068,199.56760056052298 48.20879580171043,199.43852293186143 48.154447326612384,199.4249358130869 48.035560037436646,199.4317293725754 47.89799045974349,199.44531649145114 47.68739011873857,199.5064585261389 47.295062064124565,199.62874259490704 46.91632112838631,199.74423310408545 46.50870756504975,199.83934293560827 46.12147467997618,199.89369141111123 45.684988489446255,199.94124632661956 45.22302645101165,200.00238836140855 44.650669072635374,200.0703239546737 44.13775533910005,200.15184666772572 43.56030279098087,200.24695649924854 43.2664813475833,200.28771785526837 42.852074224859486,200.34206633077133 42.1268617603712,200.41679548392992 41.45260099108486,200.45755683994975 40.00387445185386,200.5051117555593 38.84557257622557,200.55266667147256 37.77728536257965,200.5934280274924 36.78033052249991,200.63418938422086 36.23684577151947,200.66815718125838 35.91754848031846,200.72250565615394 35.55748983279392,200.83120260645126 34.72697719770194,201.10294498153655 33.067650317466025,201.67360397057217 32.10636166416937,202.00648838044646 31.381149199478617,202.25105651828642 30.457225122913105,202.57714736887468 29.66068028465617,202.8760639821164 29.04076799067034,203.16818703556592 28.870929005988952,203.25650330760024 28.366507221384,203.53503924257893 28.310460356439144,203.49427788615418 25.5862430421497,201.6803975298582 23.480239632201734,200.28092429598235 21.829404700997422,199.11243208127317 20.922464522798816,200.1994015833353 20.7696094366868,200.28771785526837 20.68638833409169,200.20619514252007 20.365392653145097,199.79858157958844 20.294060279578915,199.69667818847591 20.231219855246803,199.57439411940408 19.877954767109518,198.72519919599713 19.524689678972234,198.01866901972258 19.164631031346463,197.27817104661295 18.79438204484227,196.49011815759008 18.626241450007697,196.17761442577634 18.473386363693216,195.92625272905528 18.250897293861833,195.56619408132826 17.955377460414987,195.12461272085298 17.523986439324265,194.37732118855857 17.3201796577066,193.99688186277103 17.10957931680291,193.59606185872047 17.038246943135498,193.45339711199304 16.803869144275183,192.98464151396874 16.695172194079095,192.74686693531356 16.586475243984243,192.49550523828879 16.545713887660707,192.38001472840176 16.503254141490363,192.2169693033101 16.46928634445285,192.12185947178727 16.42852498812932,192.01995608138338 16.34020871619623,191.90446557119265 16.255289223855538,191.80935573997354 16.12111642595724,191.69386523079513 16.017514645200364,191.72783302722524 15.961467780255505,191.6802781120206 15.579330064722384,191.3270130237821 14.826943362583842,190.55254725363497 14.553502597246808,190.246837081006 14.507646071484066,189.98188826520675 14.298744120224727,188.9696479159995 14.096635728555109,188.05251739892248 13.981145218870534,187.35957434142242 13.468231485132746,186.7889153526905 11.985537148864239,184.4315502452116 11.119358326989166,183.12718684316226 10.801759425634973,182.66522480503136 10.059563062577311,182.2236434443536 8.612534913193128,181.36086140247585 8.06055821297862,181.02797699229785 7.428757189963862,180.65433122650498 6.7069415050679675,180.2467176628647 6.137980906284089,179.92742037186616 5.696399546213716,179.67605867413278 5.575813867089931,179.6013295212779 5.224247168698228,179.4043162990475 4.533002501044983,179.00349629530066 3.996311309451801,178.7045796819577 3.2490197770561626,178.28337899984666 3.07748240242673,178.18826916862753 2.792152908060768,178.02522374323217 2.3200005307477447,177.76027492702798 2.083924341939385,177.63119729867012 1.925974086185695,177.55646814581524 1.681405948244498,177.44777119521422 1.5047734041758556,177.35945492328113 1.3790925556128613,177.3186935672613 1.1277308581831769,177.2371708542093 0.9918596704380673,177.17602881982523 0.4670572078738139,175.73579422962584 0,174.45181150563704 1.4674088275459505,175.5184003296386 2.1043050201011515,175.98036236776952 4.339386058508202,173.95588167036738 5.246326236706809,173.0387511530879 6.520118621817209,171.75476842879536 7.29288600211752,170.98709621813674 8.065653382519063,170.3960565513443 9.371715174617695,169.41778399988317 9.68082212683905,169.2275643369388 10.859504680426644,168.48706636382917 11.37921197365292,168.1677690724257 12.07385342089856,167.73298127194505 12.428816898882658,167.51558737135042 12.695464104933668,167.3389548270793 13.018158175727072,167.09438668923934 13.796020725567823,166.46937922561185 14.755610989220122,165.69491345576841 15.475728284167971,165.11746090744677 15.68123345563245,164.9476219227654 15.920706424033204,164.75740225971975 15.992038797599387,164.66908598778667 16.11771964616238,164.6894666664546 16.75121905922642,164.75060870083868 17.128261605016633,164.77098937879796 18.960824249728798,164.859305651136 20.637135028534086,164.93403480429458 21.457457324545185,164.98838327939262 22.259097332241332,165.02235107592395 22.707472251901425,165.03593819469847 22.936754881120063,164.99517683867865 22.931659711579623,164.90006700685214 23.08281640804729,162.35248223663132 23.12697454406445,161.53725511066682 23.155847171359053,161.03453171580747 22.862025727860253,159.90000729823703 22.541030046812434,158.75868932107687 22.44422182554404,157.65133914095424 22.52744292803792,157.30486761210298 22.690488353332054,156.66627303000465 22.710869031493818,156.57116319817814 22.889199965409276,155.8578394630225 23.01318242432792,155.35511606785943 23.055642170498267,155.2192448800131 23.335876495121322,154.37684351649958 23.539683276738987,153.73145537450782 23.86917090712211,152.73280214448005 24.07637446833217,152.0942075623817 24.164690740366492,151.87681366178708 24.213944045924094,151.72735535516622 24.247911842860372,151.6186584048689 24.463607353506962,150.9868573817529 24.548526845847658,150.7830506002365 24.767619136086648,150.1512495771205 25.11578905478472,149.17297702576064 25.19901015717737,148.92161532833094 25.280532869723203,148.69742786875398 25.33997651446292,148.51400176529808 25.49452999042175,148.10638820206276 25.647385076634997,147.67839396066566 25.761177196371527,147.33871599130288 25.890254824729382,147.00583158092243 26.207853726083574,146.1294624202702 26.522055847845373,145.28026749686325 26.72756101930985,144.7028149485416 27.063842208877766,143.7041617191212 27.350870093090542,142.91610883009835 27.57505755276874,142.27751424739265 27.89095806427612,141.36717728960164 28.011543743399905,141.04108643931707 28.011543743399905,140.92559592953126 28.028527641868042,140.266620668765 28.004750184012646,139.8046586306341 28.064193828752366,138.8671474349904 28.11514552415678,137.5152291174327 28.14741493114501,136.72038266851644 28.166097219459964,136.60489215933802 28.266302220421984,135.81683927061883 28.34442815337542,135.29373519780017 28.46161705290681,134.45812739316773 28.52275908729088,134.2611141708361 28.653535105596777,133.11979619337225 29.047561549956363,131.0953154959701 29.94091460948169,128.83985377990746 30.808791821102346,126.94445071076196 32.011251832646565,124.13871068331929 32.301676496451734,123.50690966050699 32.66852870336353,122.69847609372728 32.77382887386599,122.44711439639883 32.70249650029981,121.04764116221928 32.734765907490505,119.50550318131228 32.72967073795006,118.73103741106392 32.7381626870829,117.65086146859154 32.98273082512533,117.29080282157315 33.230695742760155,116.93753773333464 33.6773722724722,116.28535603225934 34.65224804444213,114.77718584778248 35.00041796314021,114.22690753741477 35.79356602160228,112.93613125424116 36.30138458579963,112.14128480562859 36.396494417119975,112.03938141522468 36.82788543821069,111.2445349663084 37.30513298516539,110.3477851272919 37.68727070069851,109.62766783254652 38.10677299296277,108.86678918076898 38.92879367882068,108.7920600276104 40.91590979959291,108.30292375223416 42.43766710233813,107.93607154522114 43.10513431203476,107.77302611952209 43.40744770486886,107.7866132382966 43.62823838505589,107.79340679819 43.842235505551976,107.8002003570711 44.23456356026721,107.81378747584561 44.475734918514775,107.81378747584561 44.764461192371904,107.82737459462012 45.022616449087614,107.83416815390615 45.260391027742784,107.84096171379956 45.42003967324206,107.84775527268066 45.678194930059,107.85454883257407 45.95673086483524,107.86134239145517 46.3320750209811,107.8817230698194 46.61400773565344,107.89531018859391 46.94689214562896,107.91569086695814 47.23561841958731,107.92927798573265 47.55151893099346,107.92927798573265 47.750230543070685,107.93607154522114 48.0338616474886,107.94286510420346 48.31069919262049,107.95645222297797 48.54168021168595,107.9632457828714 48.864374282681815,107.97003934175248 49.24990877780733,107.99042002011672 49.64393522226815,107.99721357930152 50.07532624335887,108.01080069848095 50.44897200975915,108.02438781725546 50.83790328467953,108.03797493602997 51.08926498190675,108.03797493602997 51.4629107482058,108.05156205450079 51.802588717568575,108.0651491732753 52.31889923099999,108.07873629204981 52.684053048166206,108.09232341112802 53.1646973747133,108.10591052990253 53.49928017463686,108.11270408888485 53.97992450128519,108.13987832643387 54.09371662102171,108.1466718860236 54.51831408272518,108.16705256398289 54.968387392029626,108.18743324204343 55.27749434414975,108.20781392071136 55.547538329793156,108.21460747989615 56.27954435387117,108.2417817175464 56.67696757802561,108.25536883632091 57.008153598154315,108.2621623958094 57.617875553160495,108.28933663345965 57.93887123410708,108.30292375223416 58.57916420645714,108.32330442988977 58.86279531087506,108.3300979894795 59.134537686264046,108.34368510795031 59.32305895936162,108.35047866784372 59.53705607995893,108.35727222672482 59.81219523524401,108.37085934549933 60.082239220786185,108.37765290539275 60.36077515566366,108.39124002386356 60.705548294566874,108.39803358335205 61.05881338270416,108.4116207022278 61.37980906375198,108.4252078210023 61.67702728694441,108.43879493977681 61.98103906952409,108.45238205824762 62.19503619032387,108.45917561814105 62.358081615618,108.46596917702213 62.49565119310869,108.47955629579666 62.67737890681901,108.50673053334567 62.896471197058,108.54069833018072 63.15462645367247,108.58825324609397 63.54695450838771,108.67656951802705 64.04628112324976,108.77847290913958 64.23310400650051,108.82602782474915 64.48276731398215,108.88037629954349 64.78508070671502,108.94831189382097 65.15532969342168,109.02983460656927 65.40669139054766,109.09777020013813 65.69881444430088,109.17929291288642 66.13190385533964,109.30157698165456 66.45629631597987,109.38989325358764 66.76370487815194,109.47820952622936 67.17301683123408,109.59370003540778 67.9559745507165,109.81109393569872 68.36868328339105,109.92658444548452 68.75761455831143,110.03528139547815 69.1176732059372,110.13718478659068 69.40639947989555,110.21870749933898 69.78344202598947,110.33419800851739 69.95328101067085,110.37495936484093 70.06877152005173,110.40213360279488 70.3710849127846,110.48365631544195 70.59357398271722,110.54479834952231 70.78888881510082,110.6263210622706 70.94683907085451,110.68746309665468 71.24066051445453,110.8097471660302 71.3765317020984,110.85050852245497 71.51749805938397,110.89806343806453 71.98625365710458,111.03393462560717 72.22402823575976,111.10187021947972 72.48048510252742,111.16980581314982 72.6554192568505,111.21736072906307 72.79978239372844,111.2581220850829 72.94584392065566,111.29888344181137 73.09360383732846,111.33285123884887 73.1632378209466,111.29888344181137 73.38063172133877,111.18339293192433 73.70502418208022,111.01355394724294 74.11263774541679,110.8097471660302 74.76481944659331,110.4293078400402 75.10619580570166,110.23229461811349 75.87726479615516,109.77033257967888 76.32903649550889,109.50538376347468 77.66227252515654,108.7241244339403 77.99006176569284,108.53390477129962 79.04306347061622,107.91569086695814 79.40651889793561,107.6982969666672 80.44083831474649,107.09367018079654 80.9894182350649,106.78116644898277 82.03392799085543,106.16974610453471 82.30906714624174,106.01349423832414 83.03597800057685,105.58549999733198 83.41132215672272,105.36810609673734 84.13653462121101,104.94011185503655 84.65114674489683,104.64798880158702 85.90286006199867,103.92107794694823 87.06625710696493,103.24172200822268 87.45688677173212,103.01074098946091 88.40798508604912,102.47404979756404 88.8020115304087,102.2498623380883 89.83802933706639,101.65882267099215 91.210328333292,100.87076978196929 92.06801520583177,100.38163350659305 92.50789817615656,100.12347824987734 93.5727886102101,99.48488366727287 94.2963026849528,99.05009586638728 95.19305252407052,98.50661111520438 96.1577379570608,97.92236500800165 97.09694754234887,97.3584995790619 98.097299162021,96.75387279389986 99.3948690049868,96.04054905803557 99.66830977032383,95.87750363284268 99.81267290730301,95.8027744790767 101.0185296986421,95.13700565942936 103.0820733624197,93.97530700430991 103.24342039786703,93.94133920747485 103.40137065362072,93.94133920747485 103.58989192661706,93.94813276665965 103.82766650527223,93.96171988543416 104.0858217618867,93.96171988543416 104.86198592198188,94.01606836032974 105.51246923331159,94.04324259787876 105.76552932048685,94.06362327624299 106.40752068248126,94.05003615746848 107.18198645272962,94.02286192022316 107.84945366242624,94.00927480134742 108.41671587126207,93.9821005634947 108.82093265480377,93.96171988543416 108.99416841928002,93.96851344472019 109.29987859160528,93.95492632594568 109.67692113759796,93.94813276665965 109.9214892756404,93.89378429156162 110.18473970179531,93.83943581666603 110.68916148629903,93.63562903494713 111.03733140489587,93.51334496617899 111.45343691736527,93.36388665915322 112.02749268558836,93.10573140253874 112.64230981013498,92.77964055195048 113.36412549503088,92.38561410779336 114.22690753721231,91.93723918813326 114.84342305160575,91.611148337545 115.39370136197344,91.30543816532096 116.32611738797549,90.80950833005132 117.0292507844552,90.4358625635498 117.51838706033759,90.17091374704191 118.48986605281635,89.64780967452694 119.22357046653872,89.2605767892509 120.60605980194644,88.51328525685527 121.4705402339747,88.05132321872436 122.69338092368068,87.39914151764907 123.50181449076409,86.96435371676348 124.63633890833452,86.35972693119652 124.76711492664042,86.28499777803795 124.88260543612253,86.2510299808992 124.99979433565392,86.21706218376046 125.06942831927205,86.21026862487936 125.16963332033531,86.24423642130948 125.3564562033836,86.23064930253497 125.5330887476547,86.12195235223766 125.91692485283217,85.87738421439768 126.50286934998296,85.54449980492832 126.8918006251058,85.32031234474397 128.3320352150015,84.49829165918975 129.1642462399403,83.99556826412793 129.42749666619645,83.85290351699555 130.28688192878548,83.3433865629514 130.91868295169903,82.95615367828276 131.42310473620273,82.623269268206 132.00904923335352,82.20886214568466 132.55762915397563,81.86918417632188 133.23528670275314,81.44798349390712 133.52910814635317,81.25776383146889 133.66328094425145,81.16944755892841 134.2475270514542,80.86373738700807 134.40717569725717,80.78221467395608 134.5294597660253,80.70069196151148 134.95915239747168,80.3610139921487 135.346385282444,80.09606517634944 135.6028421493129,79.9126390727923 135.61812765783299,78.6082756702368 135.6147308782406,77.86098413784116 135.6198260476798,77.43978345583132 135.6198260476798,76.73325327915181 135.6147308782406,76.30525903785595 135.62831799691386,75.75498072779196 135.64530189548324,75.46965123322353 136.77303275366643,74.21284274688496 137.7597972547665,73.09869900727384 138.09607844433444,72.7182596814863 138.8348780277997,71.89623899572962 139.22550769256688,71.46145119484403 140.0628138869449,70.53752711827852 140.30398524519245,70.2657847424846 141.243194830683,69.24675083439628 142.04993000791958,68.33641387660528 142.5118920460505,67.82010336337633 143.2472948497209,67.01846335588264 143.67189231142436,66.5429141982686 144.3376611313754,65.80241622546268 144.63657774441464,65.47632537487442 144.9083201200061,65.16382164316191 145.2904578355392,64.75620807952164 145.65391326265615,64.39614943209834 145.82375224733752,64.19913620956423 146.1651286065471,63.81869688418163 146.5132985252452,63.42467043992327 146.89373785083026,62.98988263873399 147.11962370045651,62.731727382119516 147.26738361712933,62.58226907580236 147.91107336907177,62.0727521217582 148.55136634142184,61.57682228618485 148.82990227619808,61.35942838589391 149.67739880985943,60.69365956594287 149.9219669476994,60.50343990320095 150.7439876335573,59.87163888038866 151.04120585674974,59.640657861019506 151.87341688168854,58.995269719129006 152.77356350049988,58.28873954285444 153.30515952255263,57.867538860743366 153.66861494987202,57.59579648565807 154.17473512412133,57.20856360038205 154.79125063851475,56.80095003734918 156.04296395561659,55.9857229104736 156.91933311657255,55.42185748163509 157.43224685041156,55.088973071457104 157.91289117695865,54.78326289892938 158.85889432163398,54.17863611336241 159.38369678429945,53.83895814399963 159.6571375496365,53.66232560043715 159.67581983805266,53.56042220932463 159.67072466861347,53.4313445813717 159.6588359394833,53.356615427808194 159.64864560050364,53.234331359040056 159.64015365126957,53.00335033936721 159.65204238009605,52.75878220152725 159.66393110902374,52.66367237000444 159.66902627866543,52.58214965796476 159.66732788871738,52.50062694521647 159.68770856687914,52.256058807376505 159.69959729580683,52.12018761912523 159.70978763488773,52.02507778800735 159.71488280442816,51.87561948158896 159.71997797406982,51.7125740561936 159.7301683130495,51.48159303712814 159.74375543182398,51.393276765195054 159.75904094044532,51.18946998337493 159.7811200084539,51.03321811746805 159.79640551717645,50.80903065758739 159.82527814457228,50.59843031627877 159.84396043278602,50.50332048505966 159.83716687339876,50.272339465690514 159.95265738308333,50.02097776886822 160.25497077571498,49.334828270654185 160.83242332363167,48.04405198677195 161.09397536004101,47.45301232038442 161.73256994244304,46.019571289774746 161.9635509618122,45.48967365736635 162.50873410243696,44.31438788306746 162.81274588521913,43.62823838505589 163.26281919442232,42.60920447696757 163.52437123083166,42.05213260771878 163.80970072519762,41.304841074715746 164.64700691957563,39.463786480769514 164.9866848889384,38.7232885073562 165.10217539852175,38.46513325104542 165.4231710796708,37.7314288371206 165.6065971831267,37.31702171429556 165.97005261024364,36.52217526639159 166.0736543910005,36.28440068743272 166.2333030364998,35.88358068368588 166.38785651255984,35.876787124399854 166.77339100788782,35.75450305563172 167.45954050600062,35.46917356116453 167.9843429686661,35.258573220463305 168.58217619464338,35.047972879053454 169.18170781077112,34.83057897845882 169.56894069574346,34.69470779091617 169.95447519086898,34.579217281737755 170.48097604338128,34.45013965307621 170.80536850412273,34.37541049991763 171.2928063901583,34.33464914349286 171.71910224170858,34.24633287125608 172.35430004441696,34.090081005349205 172.69227962393293,33.9881776149453 173.09140123793418,33.87948066464798 173.40220657990113,33.77078371435066 174.16478362112056,33.512628457736184 174.62674565945392,33.390344388968046 175.0768189688596,33.25447320071678 175.68993770366063,33.12539557276385 176.35061135397,32.98952438481628 176.9382542409676,32.846859637785144 177.58873755249977,32.704194890349086 178.21374501592481,32.6294657374942 178.74873781777242,32.55473658433563 178.9338623109739,32.54114946556111 179.9087380831463,32.398484718125054 180.45222283412673,32.30337488660224 180.93966072006108,32.20826505507944 181.19441919708316,32.14712302069537 181.18422885800229,32.22864573344366 181.53409716644592,32.16071013946988 181.93321878054843,32.10636166467553 182.3221500554688,31.997664714378214 182.72127166936883,31.902554882855405 183.1068061646968,31.793857932558083 183.58745049134512,31.664780304503925 183.8557960870405,31.576464031963447 184.2481241416545,31.454179963195312 184.6998958410082,31.297928097288434 185.09052550567418,31.18243758811002 185.37245822034652,31.066947077919284 185.60343923941195,30.971837246700172 185.85819771643403,30.883520974767084 186.10276585437524,30.76123690599895 186.31506458522696,30.652539955701627 186.45942772220616,30.56422368376854 186.63945704606965,30.428352495820967 186.78891535248803,30.299274867564343 186.95026238803658,30.136229442371445 187.08103840614004,30.03432605136015 187.25427417061627,29.844106388314533 187.5158262070256,29.606331810064287 187.7705846840477,29.402525028547853 187.98967697428668,29.232686043866465 188.2019757051384,29.090021296430404 188.35143401165803,29.00849858368211 188.53825689470634,28.87942095572918 188.67582647239948,28.79789824267719 188.91869622039263,28.6280592579958 189.21251766389142,28.417458917294578 189.4672761409135,28.2612070513877 189.7356217367101,28.104955185480826 190.02944318041136,27.941909760287928 190.29609038625992,27.778864334588867 190.57802310072978,27.588644672150643 191.1062223430889,27.255760262073892 191.41872607490265,27.05874703984348 191.6004537887142,26.936462971075347 191.6904684504941,27.065540599028274 192.01655930108237,26.82097246088461 192.3664276094248,26.596785001712576 192.59401184889785,26.447326694686794 192.9370865980555,26.21634567562134 193.03559320917068,26.15520364093358 193.1171159217165,26.11444228491374 193.3854615175131,26.005745334920118 193.60795058754695,25.727209399941408 194.23125966132764,25.088614817235698 195.01421738060762,24.300561928212833 196.10967883180254,23.166037510946097 196.86885909332835,22.418745977943065 196.95377858566906,22.459507334570294 197.66710232133087,22.085861568473707 198.06112876589293,21.868467667879067 198.5027101259633,21.61031241116336 199.80197835887714,20.86981443775005 200.9976448110341,20.1904584990245 202.40730838378838,19.38881849153082 203.1444095773056,18.967617809824677 204.47255043761527,18.220326276821645 205.1451128170548,17.839886951439034 205.54423443085358,17.60890593237358 206.44268265981813,16.85482084008453 209.0208384473828,14.68088183636524 209.56941836780246,14.246094035175963 210.14517252587237,13.76375131908575 210.72941863317632,13.288202161775404 210.97908194065798,13.057221142406254 211.57351838704284,12.554497747648117 211.80449940620952,12.330310288476078 212.27835017367303,12.221613338178758 212.68766212665395,12.153677743901277 213.07999018116672,12.058567912378468 213.88842374825012,11.868348249636545 214.66968307788574,11.691715705770367 216.60584750315232,11.250134345598761 217.40578912100165,11.053121123064656 218.57767811530323,10.781378747979366 220.59876203311296,10.326210268729554 223.21937756664553,9.714789923977792 224.90078351509248,9.368318395328995 226.39027141064702,9.00825974800692 227.8033317632974,8.69575601588947 228.56590880441559,8.532710590696572 229.66306864555858,8.254174656122792 230.38997949989368,8.077542111547992 231.59923307082514,7.8057997364627 232.30576324709972,7.615580073417083 233.0683402884204,7.391392613840116 234.5900975911656,6.94981125316235 235.59554438047942,6.657688199712829 237.86629160566955,5.985125820475769 238.60848796872722,5.760938360392642 239.95021594760894,5.373705475420312 239.89247069281728,5.584305816425232 240.3578295109455,5.726970563557597 240.56503307215556,5.788112597941664 240.61768315750803,5.733764123147316 240.95905951671762,5.801699717019871 241.21042121394484,5.611480054379181 241.0830419754338,5.482402425717631 241.66049452355298,5.149518015944578 241.71144621875493,5.115550219109532 241.87449164404904,5.000059709526189 242.34494563171774,5.923983785788006 242.68122682128563,6.49464277451993 242.969953095244,6.30442311187924 243.1465856395151,6.17534548321769 243.3402020818494,6.039474295371349 243.52702496510017,5.9783322609872815 243.74951403493156,5.917190226603214 243.99238378302596,5.876428870583377 244.23525353122156,5.801699717019871 244.4475522620733,5.7541448011066185 244.69042201006644,5.672622088763249 244.98764023325887,5.543544460101699 245.17276472656158,5.43484750980438 245.4037457458295,5.258214966241897 245.60075896805992,5.129137337580347 245.86061261452122,4.9525047936129365 246.074609735321,4.789459368217574 246.34295533111757,4.640001061900417 246.81680609837863,4.347878008450895 247.1327066097848,4.130484107856256 247.20743576314584,4.028580716743728 247.1700711864147,3.9198837664464086 247.05627906667817,3.7908061384934824 246.83209160699997,3.539444441063798 246.63507838476957,3.2473213876142766 246.48562007824995,3.0299274870196373 246.31578109356855,2.8125335864249985 246.23255999097344,2.683455958067144 246.29709880515236,2.6426946017436115 246.69791880910168,2.4796491769556397 247.07835813468674,2.2690488355457923 247.35689406966546,2.139971207592866 247.88849009161697,1.8682288314952555 248.2213745015925,1.6915962879327728 248.4931168770827,1.576105778045734 249.03320484847075,1.3111569618415384 249.4238345131367,1.1141437396111298 249.79408349974213,0.937511195947415 250.29680689439903,0.6657688199510365 250.56515249019563,0.5502783106713892 250.92011596817972,0.36005864803069976 251.39396673544078,0.1290776286615498 251.5790912287435,0.006793559893415092 251.69967690796852,0 252.19560674323816,0.25815525722186766 252.86647073262841,0.563865429547132 253.7530302327665,0.9443047549297429 253.99759837060645,1.5421379809069926 254.2999117633393,2.303016632380838 254.60222515617343,3.709283425745185 256,4.313910211312154 255.8522400833272,4.497336314768051 255.70448016665438,4.687555977813669 255.51935567335167,4.9117434369857085 255.2510100775551,5.135930897068834 254.11818404973025,6.080235651694881 253.89569497989885,6.297629551985825Z"/></svg>