<svg xmlns="http://www.w3.org/2000/svg" width="256" height="256"><path d="M215.70020895643069,2.5772012270429867 215.75946867600965,2.580382957190325 215.79208140754264,2.580382957190325 215.8521365596466,2.570837767222425 215.89628306219913,2.5612925775389943 215.9662811201305,2.5422021980773093 216.03548374577394,2.523111818757859 216.08559599176604,2.5008397094333046 216.12457218321438,2.4753858699614124 216.1587757797025,2.446750300958531 216.17905930788052,2.424478191491742 216.20053598482232,2.3862974327106072 216.2279784052511,2.354480133418153 216.2633751505504,2.3290262942781412 216.30553307181418,2.306754184953587 216.3508727230357,2.2876638054444904 216.39143977939176,2.2781186156662367 216.43677943061329,2.2717551557982634 216.46422185108943,2.2749368856611327 216.5616623296392,2.2813003454816942 216.62688779275254,2.2844820754867983 216.7712587875271,2.2781186156662367 216.83767739930866,2.2749368856611327 216.88540334796286,2.268573425840571 216.9430722026341,2.2558465063416824 216.98125296151008,2.249483046521121 217.05204645206123,2.249483046521121 217.09380665708628,2.30993591462681 217.24891599021245,2.5167483589372974 217.34834504990872,2.497657979285967 217.44339923102578,2.4849310596448433 217.2783469919781,2.624927175981668 217.53169223598866,2.7871954011689315 217.70509651614637,2.901737678033864 218.06741600963218,3.1371856914894667 218.24400201965278,3.254909698217268 218.59279916106732,3.4362683028662167 218.78608925316428,3.541265389952895 219.08318328348935,3.69080669564127 218.8437581077407,3.926254709239107 218.65205888064628,4.120340233718825 218.46433681598714,4.333516137660228 218.20741212568456,4.6294170192215205 218.07656348317167,4.775776595094437 218.32990872723036,5.043041907510614 218.46115508607684,5.179856293700101 218.75466967025284,5.488484095234396 218.98136792640702,5.727113838505457 219.03466190240496,5.784384976795689 219.4443096283062,6.210736784725905 219.6670307220733,6.4461847979918625 219.6877119664901,6.462093447495855 219.79628849967844,6.573453994545329 219.94742067036935,6.73254049005937 220.1641760205554,7.006169262296108 220.29184293315726,7.165255757810148 220.4775764166699,7.400703771076105 220.58018720627646,7.527972967629572 220.77984075814658,7.776147900678887 220.91745057686106,7.947961315881462 221.12824018332233,8.208863168287431 221.16602322610174,8.119774730894392 221.2332372703616,7.938416126055796 221.31675768050647,7.906598826763343 221.52874043577893,7.83023730915366 221.8656060900299,7.715695032430963 221.96742144720704,7.912962286726138 222.13923486236146,8.243862197442754 222.3094574126089,8.568398648291398 222.35042218510895,8.714758224116903 222.38263720045055,8.91202547845949 222.44706723113373,9.332013826569145 222.52859906008467,9.882453101047725 222.72984347695734,9.85381753190261 222.76881966831087,9.85381753190261 222.88495281008352,9.83472715258316 223.13273002679924,9.771092554424953 223.21267099079503,9.739275255322147 223.3526671068948,9.742456985137604 223.69231677476986,9.758365634641597 223.94088942401058,10.066993435986246 224.0391253350379,10.146536683743268 224.1667922476405,10.251533770687711 224.29605002524565,10.404256806523424 224.41616032940618,10.547434652391237 224.70967491358218,10.87197110323988 225.16625315575487,11.011967219434469 225.46374490236613,11.097873926869818 225.52220918942012,11.120146036336607 225.28874975730068,11.19014409426796 225.4522111313932,11.466954596509803 225.333691692236,11.559224763765712 225.1761960617245,11.963304462371374 225.06085835242942,12.256023614259444 224.91569192527285,12.621922553894326 224.89739697833613,12.663285042680565 225.06006291999924,12.991003223392076 225.23863751121377,13.000548413359976 225.21676311803316,13.360083893032062 225.2084110770661,13.515988658872878 225.19011613003457,13.815071270249629 225.70834038917155,13.977339495768772 225.7874859206898,13.999611605235561 226.19792907911602,14.060064473483486 226.57218005981204,14.117335611773717 226.54831708553309,14.270058647324962 226.75314094850742,14.37187400454877 226.75155008350487,14.44505379248523 226.75433409717562,14.747318133867083 226.86171748164836,14.80140754248409 227.5032337748087,15.13230745301106 227.96697090932622,15.37411892642946 228.29985940109526,15.549114071400082 228.3237223754698,15.558659261083513 228.3098023070649,15.59365829004919 228.31457490197772,15.638202508840532 228.3205406455595,15.676383267811314 228.31377946950016,15.698655377278103 228.35553967452518,15.705018837098663 228.61922554088713,16.077281236411874 228.84512836451705,16.401817687260515 229.0062034411776,16.6754464596869 229.56579018914826,16.952256961739096 229.7650460247796,17.050890589147446 229.93685943993475,17.346791470708737 230.11543403114925,17.65223754223793 230.41173262909157,17.38815395949498 230.55093331266636,17.260884763273392 230.62093137069255,17.05407231882067 230.7100198081804,16.799533926045616 230.4324138735084,16.640447430531577 230.36241581548222,16.599084941745335 230.80427855672505,16.293638870500615 230.89535557540685,16.20455043296534 231.11807666917392,15.98501106901373 231.27994717831203,15.829106303647027 231.63828950950483,16.140915834854546 231.56988231638638,16.249094651756682 231.63113061715927,16.300002330368585 231.87015807671654,16.494087854848306 231.76675185458427,16.716808948473137 231.60766535907095,17.05407231882067 231.46090806695926,17.369063580175528 231.22625548607604,17.83359614688688 231.03057909659304,18.224948925851418 231.66175476759315,18.57175748616685 232.09725404901542,18.613119975142734 232.37326911873228,18.648119004108413 232.2957144521692,19.084016001864295 232.2364547325902,19.408552452712936 232.27224919417569,19.430824562037493 232.29412358721405,19.675817765129114 232.43491513574398,19.510367809794513 232.66439740552298,19.23673903751036 232.87638016079543,18.985382374455945 233.07126111780013,18.797660309654553 233.26494892608846,18.606756515322175 233.47573853264458,18.47948731862647 233.56283838893853,18.44130655994016 233.58670136326563,18.425397910341346 233.64954052899367,18.39039888118602 233.70044820760558,18.364945041903773 233.7394243990065,18.32994601308033 233.77521886044977,18.310855633429 233.8380580261778,18.279038334468428 233.85873927064205,18.29812871378788 234.2739550239337,18.699026682578083 234.15225385481804,18.80720549962245 233.53340738726843,19.274919796196674 233.4033541771857,19.36718996373705 233.42522857036627,19.83808599031638 233.5660201188488,19.904902318432274 233.99793995421683,20.121259952378782 233.7795937391238,20.242165689064276 233.00484250592302,20.652608847537913 233.53698683341747,20.884875130940998 233.5234644812988,21.358952887525426 233.5099421291801,21.68348933837407 233.4960220608226,21.88393832267435 233.7620942245706,22.065296927512943 233.82055851167127,22.106659416631064 234.106516487357,22.345289159902123 234.28588651104982,22.4948304655905 234.37338408362996,22.57437371334752 234.44099584417603,22.568010253526957 234.52849341675616,22.529829494413942 234.64701285586597,22.424832407659146 234.81206509496252,22.27529110163889 234.85979104366413,22.25938245227713 234.9890488212693,22.338925700034153 235.16086223637706,22.20211131370243 235.27898395929623,22.364379539221574 235.5927820717451,22.778004427652903 235.77692469025519,23.026179360559983 235.94396551059234,23.242536994364254 236.16430030683188,23.392078300242275 236.49758651498044,23.640253233149355 236.57514118149686,23.831157027813617 236.6562752942572,24.092058880409233 236.8022371538906,24.11433098987602 236.95058531091001,23.646616693159565 236.9724597040432,23.582982094859126 237.24927020628502,23.640253233149355 237.44534431200682,23.62116285368767 237.7913574397017,23.589345554679685 237.99578358648466,23.407986949888503 238.28333242712702,23.182084126258566 238.3592962286861,23.1248129878261 238.30361595530434,23.299808132986367 238.23441332975648,23.500257117286647 238.1365751349672,23.77388588938115 238.007317357362,24.13660309934281 238.0049310599767,24.190692507627936 237.99657901891482,24.53431933812791 238.04072552141997,24.588408746413037 238.10992814696857,24.62658950538382 238.22606128869384,24.683860643674052 238.05504330606365,24.935217306728468 238.41179477220646,25.081576882459153 238.6520153804801,25.16430186036351 239.1026278790236,25.326570085550774 239.51227560492484,25.380659494167784 239.8022107430466,25.41565852313346 239.95732007617204,25.44111236255794 240.22856255097682,25.507928690531603 240.4962255796792,25.50156523071104 240.42702295413133,25.69883248519586 240.31367382607684,26.007460286398278 239.7966427156562,26.198364081204772 239.6737483978716,26.382904415858825 239.81056278401368,26.421085174829607 240.1358946673873,26.51017361241229 240.15498504680156,26.774257194823367 240.34867285513732,26.863345632406052 240.29179943299104,26.95561579966196 240.2444712005282,26.987433098954416 240.17009826392282,27.009705208231555 240.1032819358069,27.31515127947628 240.0742486503282,27.464692585496536 240.01936380937585,27.71923097822418 239.94817260272814,27.79559249616574 239.9139690061452,28.021495319795676 239.87817454465454,28.26330679273996 240.16095079038334,28.301487551852976 240.5045776207411,28.352395230464882 240.59406377446774,28.3619404201009 240.83309123402498,28.46375577732471 240.96234901163015,28.454210587546456 241.3847236571251,28.419211558580777 241.7184075814658,28.403302908934553 241.9160725521894,28.393757719108887 242.01589932812448,28.374667339789436 242.40884297199673,28.295124092032417 242.7166753408164,28.393757719108887 242.66139278367342,28.546480754802364 242.57071348118228,28.791473957893988 242.52378296500564,28.83919990664302 242.23265467821494,29.1764632771802 242.07436361517847,29.361003611834253 241.9232314444883,29.535998756852283 241.78562162582048,29.698266982513665 242.20282596030532,29.873262127484285 242.8073546433068,30.13098225026444 243.04837068396319,30.232797607346015 243.49898318250595,30.41733794200007 243.53557307647492,30.433246591646295 243.47631335689596,30.480972540253095 243.40631529886977,30.54142540854843 243.4321668543908,30.560515788010118 243.34546471433566,30.643240765630008 243.32398803744127,30.671876334917357 243.2229681127891,30.805508991291386 243.17683302909077,30.885052239048406 243.10842583601973,30.99323105595054 243.00621276269936,30.980504136262006 242.96166854390802,31.01550316541733 243.44807550403704,31.31458577679408 243.63659300117376,31.37185691508431 243.85175748635575,31.36549345526375 244.0545927681843,31.36867518541109 244.56168097263532,31.37185691508431 244.7450281586204,31.38458383486767 244.92280731740402,31.403674214376768 244.9753058609244,31.413219404202433 244.9753058609244,31.502307841453238 244.98127160445804,32.00820289714047 244.98127160445804,32.27864993970399 244.98683963180176,32.51409795311218 245.01428205227793,32.53318833262128 245.06598516332,32.574550821265284 245.3829650056784,32.85454305332258 245.86619023575489,33.26816794161167 246.20544218748674,33.56088709364198 246.59162465529965,33.888605274163844 246.67156561929545,33.964966792247644 247.05695265472488,34.11450809779378 247.63761836330445,34.340410921565955 248.3499281470634,34.610857963797585 248.44180059817535,34.64903872276837 248.59333048510507,34.69358294155971 249.14894007068784,34.859032896752076 249.7053450887956,35.03084631190724 250.30231716316464,35.20902318707262 250.84281353167358,35.371291412402115 251.17331572615143,35.473106769483685 251.6704610246328,35.61310288567827 252.0299965044464,35.72128170258041 252.3243065211481,35.807188410158 252.75781722147127,35.93127587670636 253.1682603798975,36.05536334325472 253.99590787276261,36.306720006166906 254.13590398886166,36.34490076513769 254.56941468909,36.211268108621425 255.28530391890317,36.81897852153247 255.5271153920845,37.073516914449755 255.70728084830156,37.31851011754138 255.80472132675652,37.52214083184676 255.8456860993988,37.604865809561474 256,38.30484638972843 255.97096671456868,38.68029051923639 255.62813531683076,39.704807550251985 255.59790888263566,39.84480366644657 255.56370528605274,40.00707189163384 255.52274051345788,40.19797568644034 255.49211636311958,40.67205344283512 255.31354177185617,40.9297735657101 255.1699662097029,41.203402338136485 255.05184448673631,41.48975802987211 254.96911950906903,41.84293004986587 254.72054685982832,42.390187594671225 254.49026915761917,43.042442226041736 254.2735138074339,43.46879403411418 254.0682922282215,43.97468908994365 253.75369868334175,44.53785528411077 253.44109371965666,45.01193304050555 252.82463354953975,45.98236066323602 252.61623024041637,46.27826154493955 252.1159032120247,46.4150759309868 249.9348273585272,46.40553074116114 249.0805328776168,46.30689711408466 248.53168446814078,46.24962597579444 248.47322018099197,46.243262515973875 247.85357828096403,46.26553462529843 247.58511981978484,46.31962403358355 247.43557851400163,46.389622091657145 246.92689944464288,46.62825183492821 246.65525925355269,46.8764267678827 246.69025828251836,47.321868955606476 247.16871091777682,47.78003806249727 248.20396628738186,48.67728589714905 248.60685283722376,49.12590981454605 248.8661638249583,49.555443352623605 248.91190119237191,49.73043849745199 248.96559288465534,49.930887481941916 248.9047423000738,50.85358915573371 248.67088515171557,51.72220142124037 248.63867013632657,51.97673981429989 248.32169029401558,52.96625781620758 248.2990204684515,53.373519244960576 248.0814696858842,53.723509534807 247.9255649202323,54.13713442323833 247.05774808715577,55.269830271440526 246.67912222787905,55.70890899905928 245.89760981861892,56.345254981115446 244.98445333436905,56.9816009631716 244.47656969744048,57.188413407150215 243.33194236226436,57.65294597419344 242.93422612347928,57.82475938920637 242.193678486814,58.146114110381795 240.8275232065872,58.60428321741482 240.80127393482735,58.61701013710335 240.10845224686372,58.941546587952 239.65903289708396,59.259719578980075 239.19251174903644,59.72107041587597 238.95507515438692,60.144240493801085 238.8647935681827,60.599227871160885 238.9240532878565,60.94603643119185 239.25097603609044,61.366024779443734 239.30029284965238,61.4837487860293 239.4470501418115,61.8401025361704 239.45381131787084,62.09145919894035 239.11416164990095,62.785076319286745 238.61463005403428,63.341879053585885 237.95004621897624,63.79368470113023 236.61610595413916,64.85320076096927 234.92978910169032,65.64226977871891 233.99953081912454,66.43133879661079 232.84297199673748,67.16950013589076 231.68840175559174,67.78357400848013 230.71081524065798,68.46446420932763 229.7535122538548,69.09126500155813 227.22523012389792,70.06805608396692 225.82248494975028,70.43077329392858 224.82421719039968,70.53895211083072 223.9301510856582,70.73940109498876 223.52965083310752,70.82848953271369 222.765637938448,71.12439041427498 221.10318406027886,72.20936031372814 220.4028057638257,72.66752942076117 219.37351613780245,73.75886278008231 218.9746067503484,74.09930788038754 218.95511865464795,74.12476171957496 218.57529964656075,74.65292888472898 218.0940629976308,75.20654988916526 217.43663805496718,75.80471511244028 215.55106536688552,77.41467044675791 214.97795626679692,78.02238085966896 214.08468559443818,79.32052666306352 213.51396279178158,80.41504175220012 213.22720938366493,81.29319920767468 212.67080436560383,82.42589505545018 212.4556398804218,82.86497378330598 212.17882937817998,83.27859867145285 211.79503320775237,83.66995145041739 211.10857497960927,84.0963032583476 209.90826737095583,84.37311376073168 209.15857226084592,84.44629354866814 208.8523307570288,84.47492911795548 208.25854041247524,84.72628578072543 207.53549229036392,85.28945197470291 206.60881345404206,86.51759972016612 206.14070144094532,87.03940342535735 205.26691886438113,87.79029168427844 205.00402843049676,88.10846467530652 204.69540062919953,88.48390880462485 204.0391688352041,88.87526158358938 202.21404901546668,90.11613624888336 201.47827397371424,90.58703227555752 200.97635608032004,90.84157066819033 200.4899491202866,90.9688398647438 199.7259362255797,90.93065910577302 199.12061211014876,90.80338990936178 198.5375601040898,90.6824841726763 197.70514001631258,90.70157455232763 197.1920860682798,90.85747931769433 196.57085330329747,91.21383306783542 195.44293005015032,91.69109255437755 194.05927525536956,92.4547077326553 192.46721715156022,93.47604303399767 190.32193575955338,94.37329086879167 189.6004785023972,94.88554938415724 188.91481570668427,95.81779624791693 188.8181706607069,95.9737010135681 188.17904066493185,96.98549112513223 186.93737056744476,98.82134928336424 186.9095304307298,99.36224336801716 187.1048091040207,100.56493727419813 187.15173962014993,101.34764283193756 186.87134967180643,101.95535324499085 186.90316697090924,103.04032314415954 187.0240727074999,103.40622208412631 187.19429525774734,103.91529886948676 188.04739658989396,104.58028042097251 189.32605429758806,105.6907041596131 190.10080553078885,106.68976735148868 190.53630481221114,107.1383912688857 191.63042218510896,108.51608031975282 191.81655338486038,108.97743115679094 192.55391929156795,110.00512991781164 193.37122616231875,110.71147395808363 194.2871666601934,111.50372470569614 195.06629277197416,112.37870043102336 195.64496989945317,113.58139433720433 195.7101953625665,114.5900027185737 195.82831708548568,115.69406299748856 196.04785644929507,116.77266943697893 196.4622767701084,117.45674136783154 197.03021555914168,118.04854313109635 198.2229665592108,118.6530718140023 199.04783003845108,118.98397172481374 200.13637938405333,119.30532644556246 200.21830892919564,119.34350720467548 200.7643733250476,119.59486386744541 201.02129801535017,119.89712820882727 201.03959296228686,120.27575406829293 201.02965005631725,120.36802423554883 201.00817337947026,120.55574630035022 200.70431817299104,121.1698201729396 199.61258709757334,122.91340816377348 198.60596729716084,124.38018565250776 197.2573115314413,125.74196605420276 196.4288686060512,126.25104283970546 195.0460092438902,126.75375616557724 194.3786413951614,127.08465607624645 194.00279954946208,127.41873771677852 193.86081485221578,127.87690682400118 194.00916300928264,128.6882479511702 194.09785373057912,129.17823435740087 194.00598127937235,129.79548995994793 193.3561129451975,130.58455897755533 193.333443119586,130.60364935720668 192.5236928574677,131.2749943682285 192.05438769565387,131.62816638822227 190.4869879986018,132.47768827421982 189.4270742222869,132.97721987022874 188.46619178938136,133.50220530542506 187.67791820411003,134.63171942347992 187.0379927759048,135.90122965763456 186.90873499829962,136.29894589641967 186.65698061914793,137.07528799467042 186.20080009321475,138.42752320653977 185.72871091782423,139.9961160523556 184.92293781804563,141.4883473802299 184.88634792403,141.5710723578498 184.20744630447123,143.07284887540752 183.07196644269234,144.43462927710252 182.39226939060936,145.24915213399217 181.0929304384977,146.87183438842504 180.12687769448942,148.34815706684273 179.97256379393488,148.5867868101138 179.94591680588886,148.63769448858346 179.43326057404747,149.60175865144598 178.6449869887754,151.24034955524058 177.43712277167913,152.48758767988102 176.52714801724474,153.42937973332414 174.6061785839601,154.87706684259672 173.7331914397794,155.89203868407114 172.5937344157075,157.43517769032027 171.26257816454117,159.33467044680532 171.245476366226,159.35376082645664 170.48027032280345,160.203282712312 169.8896617082076,160.6932691184952 168.95144910091352,161.4664294869305 167.42740047388904,162.44640229901253 166.9978669359537,162.6723051227847 165.90772672544375,163.24501650673008 165.42251291417332,163.75091156241731 163.9684623451276,165.2622332698007 162.87354953979963,165.92721482114422 161.43819163402492,166.93900493251869 159.46551908960268,167.8712517962784 159.31200062143162,167.93488639424694 158.53724938827824,168.25942284509557 157.4578475162629,168.68259292335256 156.88394298369673,168.93713131622243 156.0507274633938,169.36984658402062 155.3233044627025,170.04437332500018 154.9991657280934,170.57572222001707 154.929565386306,171.590694061207 155.40284771046026,172.26203907241847 156.01413756942483,172.75202547860172 156.26827824605667,173.15610517706514 156.37287761680972,173.32155513239977 156.39117256384125,173.45518778877377 156.48861304229618,174.17425874840242 156.36174156212374,175.5742199090682 155.7647694877547,176.3791975761322 155.68124907760983,176.4873763933188 155.3527354643726,176.90736474128622 154.30316231021874,177.30508098007132 152.79621548141532,177.5787097524503 151.45511632427937,177.9955163707445 150.39003223676545,178.46641239746606 150.01538353982988,178.71776906037823 149.0087637394648,179.3954775310784 147.66567600108752,180.13682060036348 144.42707266866043,180.91634442842968 142.19588456912342,181.36178661567936 141.09739231755157,181.60996154877608 140.1727020623762,181.72450382549877 139.93049287295608,181.7531393946439 137.80549500912727,182.4213026759925 136.35422845380043,182.80629199494686 135.65862275216531,183.10219287684 135.38658484483628,183.22309861338329 134.63171942366958,183.5953610126965 133.93293199212417,183.67172253063805 132.83086029440324,183.86898978507546 131.63413213189887,183.9326243833759 129.18181380354991,184.05989357959749 127.70986600380627,184.2412521844361 125.42538392827205,184.40352041009746 123.5310614828912,184.64533188304173 122.10803278056478,184.61033285407606 120.88227133258243,184.6357866933583 119.82553928613042,184.66124053268797 118.7051726414728,184.51488095681506 118.52262088786969,184.50215403717394 117.27140560069992,184.43215597924257 116.49148405639492,184.32715889201367 115.9227498349789,184.38761176045122 115.30788052977046,184.51806268682014 114.45994950868136,184.57215209510528 113.74167398148288,184.57215209510528 112.45466423272615,184.49260884734827 111.572131898862,184.49260884734827 110.25927059467979,184.49260884734827 109.44116829145143,184.5371530661396 108.47710412863634,184.7280568609461 107.35355575406844,184.90305200591672 107.26247873543406,184.91896065556296 105.646159940964,184.93805103507205 104.41522818197151,184.72487513079875 103.0164601701169,184.34943100148044 102.11364430807473,184.21261661529095 101.67933817532139,184.14580028717506 101.60576067119356,184.14580028717506 98.88498388161727,184.12034644803506 97.7765487241232,184.1108012582094 96.1828997553587,183.78944653731844 94.98179671418103,183.29946013099297 93.10338291839825,182.67584106872016 90.83878665475663,182.0872210353182 89.1516743698295,181.6417788478789 88.23573387195482,181.3936039149718 86.4873732862081,180.9067992384618 83.9702272109846,180.30545228565578 82.36464675496174,179.89819085709243 80.78094069216688,179.62456208466602 77.64972074421178,179.20775546641926 76.34441604847167,178.88958247539117 75.35688662756752,178.46641239746606 74.26992814696858,177.93188177263372 73.28239872606517,177.27326368111076 71.98544607143363,176.481012933356 69.7852798385226,175.71739775493603 68.41474967957431,175.48194974148043 66.8803604303414,175.32286324596637 66.111972657056,175.33240843564982 65.95010214787045,175.33240843564982 65.09183050457221,175.56467471924256 63.13944148837689,176.49373985313937 61.88902163358838,177.314626169897 61.19580222938595,177.9541538817686 60.00742610794348,178.94049015400307 59.96487047039347,178.96912572314818 58.02799238746262,180.24181768726052 56.33491435900185,181.1581559015162 54.817626908036694,182.0076777875612 53.82095001359308,182.56448052186033 53.240682021206354,182.81901891477762 51.05801530275372,182.88583524270388 50.61336854779198,182.92083427185918 49.996112945197495,182.96856022032375 49.533171243251644,183.00992270939446 48.6566046530641,183.09264768701436 47.25465491134662,183.10855633666057 46.090937196614,183.07355730750527 44.86557346486969,182.936742921458 43.887986949935915,182.8349275642342 42.01235716782464,182.62175166015055 41.79043150658329,182.59629782096314 40.25166737872374,182.54220841239353 40.10729638404548,182.53266322285234 34.18888103473106,182.0840393053131 32.46478113955024,181.83586437254826 30.97652697401639,181.56859905998985 29.773833067977655,181.25997125874002 28.47210781843402,180.77316658241963 27.475430923991144,180.06045908242191 27.09839592962361,179.66592457364192 26.283475356352195,178.66049792194576 25.88138423894046,178.24687303351445 25.35997824993986,177.8014308462648 24.65959995339263,177.35917038868834 23.975528022682255,177.1491762145624 22.57437371344234,176.97736279954947 21.827860333242707,177.02827047797172 21.144583835104726,177.0855416164516 20.32210665325047,177.19053870334864 19.491675146619766,177.42280498679912 18.80362605356821,177.72188759850775 17.880128947061053,178.18005670539856 16.89498582363851,178.74322289951826 16.022794111982783,179.31593428332138 15.061116246552997,180.0477321627808 14.34880646288888,180.79543869188643 13.644848720239251,181.61632500845442 12.820780673477262,182.60584301064657 11.03304618013675,184.38443003044614 10.530332854313125,184.83941740780594 9.68876529304385,185.4471278204325 8.847197731774576,185.95302287640422 7.865634054452946,186.42073717316808 6.484365557199701,186.79936303230184 5.151220724743889,186.87890628005889 3.890062531604486,186.78981784280808 2.686573193041511,186.49073523109945 1.627454849108634,186.02938439420353 1.1394570242141377,185.6507585347379 0.5174288266594166,185.01441255268173 0.1085765332357441,184.36533965112667 0,183.70353982974086 0.2620950013586409,182.94946984114654 0.7198663922010331,181.8676816713666 0.8992364158931138,180.96725210689937 0.6848673632353557,180.4040859129219 0.3778304268458461,179.76137647104517 1.0853676156919525,179.5672909463758 1.7073958131044393,179.45911212933143 2.170337515050297,179.3572967723921 2.5099871829735143,179.1886650870998 2.630892919658267,178.97230745329554 2.6424266904882123,178.9341266941825 2.6523695964578398,178.88958247539117 2.6591307725171864,178.84821998674715 2.661517069949897,178.78458538849415 2.67185769215831,178.61913543311212 2.700890977589622,178.57459121451043 2.7502077912937977,178.5300469957191 2.806683497106459,178.49504796675342 2.869522662929328,178.4695941272815 2.9502590593078803,178.43777682832095 3.0254274284382645,178.40595952902848 3.0930391890317317,178.37732395988337 3.1586623684312736,178.34550666073315 3.240591913667675,178.30732590195203 3.2863292811287024,178.28505379262745 3.335646094738055,178.25959995315557 3.37740629976382,178.23732784397325 3.4314957082378528,178.2023288147231 3.5233681593972115,178.13869421661232 3.6140474618876257,178.09096826814775 3.658193964392772,178.06869615868095 3.724214860030358,178.04324231920907 3.783474579610079,178.0241519398896 3.847904610245854,178.00506156052276 3.929436439244211,177.98278945105596 3.9843212801484027,177.97324426141995 4.158123276545644,177.94779042194804 4.217382996124624,177.9446086921326 4.327152678029313,177.94142696212748 4.6182809648200065,177.9573356116315 4.687483590321203,177.9573356116315 4.738391268932366,177.9541538817686 4.809582475628228,177.94779042194804 4.869637627684779,177.92870004248635 4.967873538664699,177.87142890419614 5.033894434303766,177.8268846854048 5.084006680389948,177.78552219661856 5.119005709450449,177.7505231676529 5.155595603419419,177.71552413849756 5.250649784440906,177.62643570110453 5.281671651113555,177.5946184019543 5.333374762108948,177.55643764298352 5.3858733056278405,177.5118934243818 5.489279527711966,177.42598671675682 5.527460286682007,177.394169417654 5.561663883170855,177.3655338485089 5.632457373722015,177.3114444398919 5.686944498388161,177.2669002212428 5.772851206060566,177.20644735299487 5.828531479443069,177.16190313406128 5.885404901589339,177.11735891541218 5.966141298015303,177.05690604730648 6.03534392356391,177.00599836869458 6.098183089291957,176.95509069008267 6.129602672203391,176.92327339079023 6.164601701169068,176.89145609192448 6.260849030955063,176.81509457388808 6.304995533460209,176.7737320852441 6.365846118041741,176.72282440663218 6.420730958946673,176.6814619176563 6.5360686681943525,176.57646483061703 6.567488251105787,176.54464753160903 6.612827902279877,176.49692158286 6.6525995261583875,176.45237736406867 6.704302637200451,176.39510622577842 6.752824018379644,176.33783508734595 6.826003806316103,176.2551101098683 6.878900066074522,176.1978389712936 6.923046568532256,176.14374956300847 6.958841030071068,176.1087505340428 7.018100749649307,176.05466112528356 7.069803860643958,176.0101169067767 7.2205383151909235,175.88602944008608 7.298092981706606,175.81921311215984 7.363318444914775,175.76512370354283 7.431725637938401,175.70785256511036 7.474281275488407,175.6728535361447 7.5753012001872335,175.59012855852478 7.645299258213411,175.53285742023456 7.723649357206665,175.47558628165987 7.800408591339601,175.42149687337474 7.891485609973977,175.35149881525373 7.962279100477725,175.3037728665047 8.094718607993164,175.19877577956026 8.165512098544324,175.15104983081122 8.211647182243395,175.11923253180325 8.258179982181252,175.08423350269533 8.31346253932571,175.0396892840462 8.359995339262827,175.00150852512286 8.421641356274517,174.94741911650584 8.486071387005856,174.8901479782156 8.629646949206537,174.73106148270156 8.733848603720823,174.48925000961503 8.79310832329906,174.2092577773681 8.816175865149338,173.97062803409705 8.840436555715229,173.73199829082597 8.919582087233463,173.41064356998245 8.971285198274787,173.16565036703307 8.98242125296151,172.91429370407346 9.009863673485093,172.7106629898155 9.039692391393976,172.57703033344146 9.05639647342295,172.53566784465522 9.091395502388627,172.36703615931552 9.187245115935838,172.20476793412826 9.318491474782332,172.04249970846686 9.54598516332,171.7529622865839 9.680413252124186,171.6225113603572 9.833931720200411,171.49524216413562 9.975518701207907,171.40297199669007 10.115117101021479,171.2947931796457 10.23602283765956,171.18343263278587 10.283351070074987,171.0020740279473 10.310793490503748,170.83662407261266 10.383575562201422,170.70935487605922 10.525162543256329,170.57572222001707 10.679476443857537,170.4929972421127 10.839756088135344,170.42618091413905 11.037421058764128,170.37527323571678 11.175826309861343,170.35300112625 11.25417640894942,170.34027420656145 11.413660620702245,170.27982133831352 11.581099157183361,170.18118771104741 11.674562473345272,170.1239165727572 11.872227443974054,169.97755699693167 11.999894356671485,169.8439243404154 12.09017594282829,169.67847438522304 12.174889501736187,169.44302637176744 12.227785761447935,169.31893890540874 12.297783819521525,169.19485143886035 12.423462150976876,169.06121878248635 12.727317357362022,168.85758806846542 12.874870081998706,168.74940925142104 12.868108905940101,168.6412304343767 12.83470074188067,168.49168912854608 12.786577076941002,168.32942090316917 12.739646560764362,168.1289719188689 12.712999572860582,167.9667036935394 12.709817842855479,167.7598912492289 12.702261234365972,167.61989513336619 12.636240338727646,167.5021711266384 12.565446848176487,167.40990095924025 12.48471045170311,167.29217695251245 12.45965432865965,167.21899716443374 12.478744708121335,167.06627412874028 12.48471045170311,166.97082223147925 12.504596263642366,166.84355303511543 12.516925467092115,166.72901075839275 12.528856954208257,166.5571973433798 12.526868373061744,166.43947333665201 12.553913077346541,166.29311376063686 12.611979648114344,166.15311764472673 12.668853070308025,166.05130228750292 12.709817842855479,165.96539557992534 12.742430574483269,165.89539752185175 12.805667456450099,165.75858313566226 12.876460946906436,165.59949664014823 12.918221152026282,165.4690457137793 12.98424204766461,165.34495824737317 13.073330485152471,165.21132559133102 13.180316153433075,165.07451120514153 13.197815667844797,165.04587563599642 13.253495941275453,164.97905930773828 13.366049636850896,164.8486083815116 13.516386375111663,164.70861226531702 13.628940070687847,164.61634209791887 13.781663106381327,164.52089020051562 13.914898046421746,164.4413469527586 13.994839010417552,164.4031661940723 14.161084398229724,164.35544024518103 14.272047228803356,164.30453256671134 14.432724589319948,164.1931720198041 14.536528527595449,164.09772012273274 14.624026100127429,164.0054499552872 14.732204917077718,163.9004528681057 14.797430380285887,163.80818270084978 14.869814735744773,163.71273080344653 14.950153416026776,163.60137025668152 15.027708082495048,163.46137414067658 15.106058181535714,163.28637899551632 15.15020468404086,163.19729055793363 15.160147590010487,163.16865498864627 16.251878665523,162.872754107085 16.36284149609663,162.76139356017774 20.071943139006486,161.03689594885296 20.385741251407932,160.8841729131595 20.51897619140094,160.81417485522812 20.57505418106964,160.7759940961151 20.617609818714467,160.75054025711734 20.69834621509302,160.6964508483581 20.843512642249582,160.6296345202422 21.022882665941662,160.54690954281196 21.3665094962994,160.39736823693394 21.611104983152238,160.298734609573 21.80598594011027,160.21282790213763 21.898653823746457,160.18101060312966 22.087171320930594,160.10146735537265 22.125749796092748,160.0823769757687 22.218815395968463,160.0219241076156 22.37750417533854,159.92329048025468 22.44233192216643,159.8564741521388 22.373129296664494,159.7069328464504 22.322221618052588,159.49375694231935 22.290006602710996,159.2583089290534 22.219610828446033,159.03558783542857 22.136488134539945,158.88286479973507 22.055354021875196,158.77150425268562 21.970242746727774,158.67287062560914 21.858484483629162,158.54560142905567 21.783713830784972,158.4628764514832 21.713715772758796,158.3896966634045 21.675932730026798,158.33560725507198 21.648490309550628,158.25924573717782 21.648490309550628,158.1447034604551 21.667580689059722,158.05561502287244 21.681898473608577,157.99834388443998 21.720079232578616,157.8869833378646 21.76860061366373,157.76289587131623 21.82945119824526,157.66108051409245 21.895472093836176,157.5751738066571 21.96467471938478,157.50517574839384 22.038649939846223,157.45744979978704 22.110636579018916,157.41608731114306 22.235519477997435,157.33654406338601 22.364777255602593,157.23154697615712 22.47653551874862,157.1297316189333 22.600225268963374,157.0120076125374 22.700052044898435,156.91655571513414 22.781981590088165,156.81792208786803 22.878626636112944,156.66838078203742 22.941465801840252,156.55065677530962 22.97885112828753,156.44247795854972 23.000327805228597,156.28339146303566 22.996350642840746,156.05748863945314 22.983623723199624,155.87931176428776 22.95538587019847,155.71704353895828 22.923568571143072,155.49114071532833 22.887774109652415,155.29387346070126 22.86470656785029,155.18569464379914 22.85635452674098,155.1156965858678 22.83050297126736,154.96615527998978 22.79629937468443,154.71479861707758 22.781186157658006,154.46980541398597 22.77760671150894,154.29799199897303 22.76209577814891,154.06890744552763 22.730278479046103,153.86527673122225 22.690904571405635,153.6298287176244 22.636815162931605,153.39756243431614 22.613349904843282,153.23529420898666 22.5942595253816,153.15575096122964 22.564430807472714,153.06348079383147 22.5274431972657,152.9871192757477 22.482501262330395,152.88530391866612 22.398980852138113,152.77712510176397 22.43676389487085,152.75803472244453 22.474149221268497,152.7166722336583 22.502387074269652,152.65621936522072 22.544147279295416,152.55122227827627 22.576760010875052,152.41758962194967 22.569998834815706,152.32850118436698 22.550113022876452,152.2107771777814 22.513523128908222,152.06759933191358 22.478524099895132,151.959420514727 22.43835475977858,151.85124169782486 22.39579912222783,151.73988115110726 22.37909504019886,151.6635196331657 22.424832407659146,151.60306676506002 22.46102458538859,151.60306676506002 21.874393133179822,148.7808723345935 21.86365479478078,148.6917838968686 21.81791742727308,148.59633199960757 21.805190507631956,148.4436089639141 21.761044005221635,148.28452246840007 21.711727191517458,148.17634365164017 21.64769487712121,148.10634559342435 21.54985668233192,148.02998407581467 21.43253039193773,147.9472590979103 21.349805414270428,147.88998795947782 21.25316036824565,147.81680817154137 21.150549578639094,147.76908222307682 20.928623917397005,147.66726686599523 20.76675340825814,147.58772361823821 20.578235910979178,147.49227172069274 20.42988775391308,147.40318328325228 20.229836485898993,147.28227754670903 20.017058298101553,147.18364391963254 19.83689284188449,147.11364586151154 19.60661513967533,147.0500112632585 19.249863673437684,146.96092282581807 18.982598361021505,146.90046995757015 18.74595719889696,146.84638054895314 18.514884064162814,146.76365557138067 18.300515011505055,146.6777488639453 18.08216879645945,146.61411426550265 17.840755039422067,146.56638831689585 17.692406882355225,146.51229890861072 17.56553540218278,146.4359373905269 17.495537344251424,146.35321241309668 17.440652503204255,146.26730570547167 17.40565347423858,146.2195797565804 17.336450848736643,146.1527634284645 17.293895211092554,146.10185575013708 17.234635491513576,146.0350394220686 17.175375771935336,145.96504136380537 17.09463937546122,145.85686254690322 17.021061871333387,145.74550200018564 16.964983881664686,145.64686837277728 16.944302637247862,145.57368858484082 16.936746028663535,145.52278090637114 16.966177030333633,145.46550976808092 17.060435778973112,145.39869344001244 17.210374800995094,145.3032415426092 17.359518390539506,145.22369829485217 17.579057754301473,145.11233774780268 17.74570085835243,145.03915795986623 17.91950285474893,144.96279644225655 18.069441876723502,144.8959801139984 18.237278129538225,144.81325513637853 18.386421719082637,144.72734842880095 18.51050918553618,144.6382599914079 18.62664232726143,144.533262904179 18.754309239958857,144.4059937079574 18.867658368060763,144.28826970108736 18.981802928496524,144.1705456945018 19.0704936497456,144.07191206714086 19.17787703421758,143.9605515205181 19.30713481182274,143.82691886419147 19.393041519400317,143.73146696678822 19.498038606439586,143.62010642002323 19.630080397716238,143.4769285741554 19.766099351380742,143.3401141878237 19.854392356438446,143.24148056074722 19.934333320433513,143.13330174384507 20.018649163009282,143.03148638662128 20.08467005864761,142.93603448921803 20.151486386764248,142.82467394245302 20.205575795285693,142.73876723487544 20.237393094341087,142.68785955640575 20.287107624189225,142.60831630864874 20.33244727545814,142.5351365207597 20.37898007544341,142.4492298131347 20.39647958985513,142.36014137559943 20.398865887382662,142.2837798578001 20.364662290799732,142.20741833990596 20.29466423272614,142.10878471263985 20.222279877315408,142.02287800506227 20.13279372358802,141.92742610784865 20.02938750145648,141.806520371258 19.956207713520023,141.70788674389703 19.9060954674331,141.59334446717435 19.829336233347576,141.45334835097975 19.776042257350372,141.39289548282665 19.734282052277194,141.3515329938982 19.552525731199815,141.19562822838924 19.3648036665414,141.04926865237408 19.210489765797956,140.92518118596797 18.967087427756297,140.72155047166257 18.715730764749292,140.48928418821208 18.421420748048316,140.26019963462446 18.239664426923525,140.07565930011265 18.035238280236136,139.8433930165199 17.82763040354216,139.6429440321722 17.736553384907783,139.54749213495862 17.60053443124402,139.4170412085897 17.51661630481221,139.33431623082757 17.472469802307064,139.3056806615402 17.28713403503321,139.19113838481752 17.147137919028264,139.11477686720784 17.03458422345134,139.03205188930346 16.931973433845524,138.91114615290246 16.812658562209993,138.73933273755765 16.73072901697211,138.5961548915476 16.6440268769177,138.43070493621298 16.58238085990601,138.22707422219207 16.554938439429836,137.84526663276873 16.558915601817688,137.55572921088577 16.565676777877034,137.3266446575826 16.618970753874237,137.0561976150191 16.7526034101527,136.6871169453791 16.949472948304656,136.33712665553267 17.207193071131485,135.9966815550378 17.391335689594904,135.78032392123353 17.488776168143925,135.64350953504405 17.660589583299828,135.46851438988378 17.40485804176101,135.13443274920948 17.308610711927603,134.9467106845503 17.22111313939488,134.73353478070374 17.149524216413564,134.4821781176493 17.151115081368705,134.2371849145577 17.163842001056498,133.9794647919672 17.22389715306638,133.6453831512929 17.222704004397432,133.41311686770015 17.222704004397432,133.11721598613886 17.182136947993943,132.8658593233689 17.145149337786926,132.75449877631942 17.10776401143595,132.5858670912642 17.12287722841496,132.45541616475305 17.176966636937145,132.33451042820977 17.2262834505465,132.20724123184596 17.29031576494349,132.1308797139044 17.342018876032224,132.0704268457987 17.89921932657089,131.34499242601763 17.860243135122538,131.32272031669308 17.810130889083027,131.2368136091155 17.783483901084427,131.1827242006407 17.76677981905545,131.14454344185958 17.73018992508722,131.084090573422 17.68485027381831,131.02681943498953 17.627579135480666,130.94409445736966 17.577466889393744,130.88045985911663 17.52496834587411,130.77546277221958 17.512241426185575,130.67682914509572 17.519798034721752,130.60046762705932 17.543263292810813,130.5113791897611 17.569910280809413,130.40638210272184 17.58820522784094,130.3077484753135 17.58820522784094,130.22184176773592 17.579057754301473,130.13275333048512 17.55638792869072,130.06275527222186 17.534115819366168,129.99593894429563 17.43389132714491,129.80821687963646 17.37144987765565,129.7095832522281 17.334462267448636,129.64276692425446 17.29111119742106,129.54095156703065 17.258100749601894,129.41050064085135 17.23702178904111,129.30550355362246 17.210374800995094,129.14323532824554 17.198841030023654,129.05096516070518 17.198841030023654,128.96187672345437 17.1885004078145,128.86006136637278 17.18969355657827,128.80597195761354 17.165432865964227,128.74233735950276 17.137990445488054,128.68188449134965 17.098616537849068,128.58961432380926 17.066799238793674,128.51325280605735 17.02623218239018,128.42734609843237 16.98168796369292,128.3414393908548 16.94112090733758,128.2491692233144 16.898565269787575,128.15053559623792 16.865952538160528,128.0646288888026 16.832544374149247,127.97554045107766 16.79515904770345,127.87372509399609 16.778454965674474,127.77827319659283 16.750614828912106,127.66054919019692 16.734308463121916,127.57464248257192 16.70567289397606,127.47282712534812 16.692548258096892,127.38692041777053 16.70010486668048,127.30737717001351 16.543006952266282,127.12601856503268 16.483747232734714,127.05920223710643 16.412158309705987,126.98920417898543 16.338580805578154,126.91284266109128 16.264605585116712,126.83966287315482 16.089212723859895,126.68375810764589 16.00171515127976,126.62648696935565 15.873252806152914,126.5342168019101 15.736438420010098,126.43240144468629 15.61632811599182,126.34013127714591 15.526444245978976,126.26376975953623 15.411106536683144,126.16513613212788 15.27270128558667,126.06968423505651 15.133500602011885,125.97741406761095 14.985152444945042,125.87559871038715 14.826463665717199,125.76423816352732 14.704762496648957,125.69742183526918 14.597379112129568,125.64969588680462 14.475280226869954,125.60515166801328 14.331306948382336,125.57969782882586 14.127676234171776,125.55742571935906 13.955862819064023,125.55424398954361 13.779674525234812,125.56060744922193 13.582009554511206,125.56060744922193 13.381958286449711,125.54788052972305 13.238382724200878,125.54151706990248 13.118272420087036,125.53833533975515 13.059012700508797,125.54151706990248 12.937311531487968,125.53515360989228 12.815610362419728,125.53515360989228 12.650558123276499,125.53833533975515 12.206706800792325,125.55742571935906 12.012621276312608,125.5669709090425 11.825694644036199,125.57333436886306 11.691266555373504,125.57651609886817 11.500362760709985,125.56060744922193 11.292754884064163,125.50015458106884 11.09986250825339,125.43015652285301 10.890663766652425,125.3410680855548 10.693794228501211,125.26788829761834 10.509253893657514,125.20743542922818 10.285737367507698,125.13743737110718 9.9890410533266,125.04516720370903 9.777853730531712,124.99425952509714 9.6637091700478,124.97835087559314 9.52092904032395,124.9624422262788 9.382523789180063,124.95289703631089 9.222641861235124,124.96880568595712 9.020602011933033,125.00698644488048 8.862310948848409,125.04516720370903 8.70799704819979,125.08334796267981 8.601806812444169,125.1088018021043 8.423629937515855,125.15652775075851 8.26732745567331,125.20425369922307 8.093127743038023,125.24561618815154 7.966256262912988,125.27425175748631 7.892281042451548,125.29016040680065 7.835407620305278,125.30606905630465 7.7093315726104015,125.33152289577654 7.593596147123937,125.35379500524333 7.519223210518534,125.36015846506389 7.406669514942351,125.31561424627255 7.21497028779978,125.28061521730687 6.980317706917311,125.13425564129172 6.674473919291568,124.84153648954589 6.390106808560221,124.54881733784747 6.061990911562512,124.28791548510961 4.558225812716045,121.68526041859474 4.424990872723035,121.6184440903366 4.269881539596846,121.54526430240014 4.118749368905919,121.47526624446878 4.029660931370645,121.47208451446369 3.977957820328582,121.47208451446369 3.800974094069212,121.52617392308069 3.6502396395696586,121.61208063051605 3.486380549190197,121.67253349895361 3.361497650211675,121.5516277622207 3.339623257125906,121.51662873325503 3.3129762691265636,121.4625393249699 3.3038287955878354,121.37981434706555 3.3205328776160687,121.34163358823699 3.366270245124508,121.28436244994677 3.4139961937313084,121.21754612187827 3.467290169728512,121.15391152343561 3.5098458072785177,121.11254903464936 3.5631397832757212,121.05209616649627 3.6056954208257275,120.99800675792666 3.6426830310327416,120.95028080927246 3.724214860030358,120.88346448120397 3.7751225385481804,120.84528372209095 3.829211947022954,120.81346642322521 3.884494504214824,120.78801258380072 3.9560834272428127,120.7561952846505 4.001025362178118,120.72437798568993 4.078580028787883,120.6416530079278 4.157327844020663,120.53665592103077 4.195508602944033,120.46029440294697 4.231303064481362,120.40620499466185 4.273063269507127,120.3584790458654 4.333913854088659,120.27257233828782 4.463171631693817,120.17075698134848 4.5626006913900925,120.08803200363377 4.6318033169387,120.04985124452075 4.869637627684779,119.92576377811463 5.005258865110498,119.84303880054215 5.024746960810968,119.83031188085361 5.153209305937815,119.7284965236298 5.244684040906541,119.65213500573564 5.344908533080386,119.5662282983003 5.454280498746289,119.49623024036894 5.581947411348154,119.41350526246458 5.663479240394664,119.34987066449602 5.7601242863238795,119.26396395691845 5.806259370023692,119.21305627830654 5.828531479443069,119.1812389790141 5.869496251990523,119.12396784072386 5.9204039305550165,119.03806113314627 5.991197421106175,118.92033712641847 6.1005693867720785,118.6785256534742 6.548397871691514,118.14081329835227 8.151592030186846,117.32629044160485 11.583087738377287,115.59542937012762 11.999098924146503,115.34725443717312 12.388463121917116,115.11180642390717 12.61794539169612,115.0131727968307 12.80248572658723,114.97499203785992 12.965947100633084,114.97499203785992 13.01327533304851,115.02271798632448 13.045092632151318,115.0513535554696 13.097591175670951,115.09589777426095 13.147703421757134,115.13089680322662 13.213326601204828,115.18498621184362 13.253495941275453,115.21362178113098 13.303608187361634,115.24862080995442 13.357697595836408,115.2836198389201 13.41775274794037,115.32180059803312 13.519568105021945,115.3854351961439 13.56291917504952,115.40770730546846 13.604679380121956,115.42997941493525 13.682234046685792,115.45225152440204 13.751436672233659,115.46816017390603 13.827400473841612,115.47770536368428 13.889841923331614,115.48088709354715 13.994839010417552,115.48725055322548 14.05250786499398,115.49043228337283 14.219548685283723,115.50634093268717 14.26926321513186,115.50634093268717 14.333693245909869,115.50634093268717 14.413634209810851,115.50952266269228 14.528176486628372,115.52224958219117 14.73140948469497,115.57315726080306 14.806577853777943,115.59861110027495 14.851519788713247,115.6177014795944 14.940210510057149,115.65270050856009 14.99270905352937,115.67179088802177 15.161738455013039,115.7322437563171 15.207873538712851,115.75133413577879 15.260372082185073,115.77042451543012 15.325199829106303,115.79906008457523 15.369744047850235,115.81815046389468 15.413890550402792,115.84042257321924 15.476331999892054,115.87860333233226 15.594056006525031,115.94223793044304 15.943250864225762,116.12041480556101 16.219663650133995,116.2508657317877 16.440396162707138,116.34631762904871 16.638061133335924,116.36540800870004 17.027823047392733,116.30177341025737 17.313781023031808,116.25404746165057 17.49633277663343,116.2667743812917 17.94853614018024,116.37813492819893 18.422216180525886,116.47995028542275 18.68908377675069,116.52449450421409 19.03788091816522,116.58494737231977 19.296396473375538,116.63267332111621 19.52309472953046,116.70267137904757 20.151486386764248,117.01129918024999 20.70669825615492,117.18947605541535 21.003792286479978,117.28492795262896 21.61587757797025,117.40583368936187 21.991321707383385,117.47583174715099 22.09631879442265,117.49174039679721 23.313330485105062,117.82582203747153 24.969818619645007,118.39535169141179 26.479549462120662,118.58625548602863 27.882294636315713,118.60852759521096 29.46639841539677,118.5926189458966 30.704886782925424,118.50353050831393 31.889285742075607,118.1376315684894 33.66667961315881,117.37083466020654 34.63233464092904,116.7694877073057 34.8952250748134,116.75357905765948 34.95925738921039,117.28492795262896 35.24799937856838,117.54901153522968 36.02712549034839,117.8576393364321 37.01028003262516,118.39535169141179 37.4473701790974,118.57671029625038 37.84349555287995,118.62761797486229 38.646882355272524,118.74534198154268 39.75452208024236,118.24899211539663 40.45847982289199,117.88945663558232 40.81801530280113,118.10263253966595 41.102382413532474,118.47807666898427 42.37030178273197,119.55350137880141 42.78313123863831,120.11666757277888 43.50617936079704,120.68301549671405 44.23757952387543,120.7721039341545 45.717083932108594,121.4625393249699 46.39717870043112,121.79343923549686 47.1242039849777,122.31524294083033 47.938329125723385,122.51251019512551 48.82245232454267,122.14342952562775 49.74077911989746,121.6693517689485 50.266957703857564,121.51344700343957 53.05534625393176,120.23120984950158 55.25909193304074,119.56304656829519 57.00983881617276,119.7284965236298 58.66553151828255,119.49941197004217 59.185744358613455,119.23214665762599 59.955722996854,118.98078999485604 60.659680739503635,118.87897463763224 61.48374878626636,118.8853380974528 62.112538159833015,118.87579290776937 62.528151629315296,118.89170155727336 63.22852992586401,118.89488328727846 63.80243445843091,118.8853380974528 64.16594710063309,118.9330640460596 64.79513419039111,119.1812389790141 65.31455159824445,119.4739581310444 65.73175593277819,119.61713597691221 66.42815706684274,119.82394842089082 66.83422534664233,119.89394647915405 67.44829921937394,119.96394453708541 68.28986678064321,120.07212335398754 68.72337748087156,120.14848487188169 69.3473942595728,120.46347613309432 69.86124364008315,120.79437604362128 70.49321474346452,121.1284576842956 71.01700702999264,121.35436050792553 71.58176408902008,121.42435856585688 72.15646405406456,121.42435856585688 72.57605468598284,121.30345282945586 72.90456829921932,121.13482114397392 74.42861692633866,120.38393288533729 74.98581737678177,120.0784868138081 75.35688662756752,119.85894745014096 75.97811939255058,119.40396007278116 76.99507981512409,118.56080164660416 78.07010680860763,117.78127781868018 78.48532256194669,117.61264613334048 78.75219015807667,117.59991921384159 79.06519283804795,117.66673554195748 79.30859517613703,117.70809803074373 81.11263603531366,118.28717287436741 82.21271915179325,118.57034683642982 83.19229424787353,118.46534974920091 84.58748281353168,118.40807861091068 85.8068808016468,118.4908035886728 86.54941701945857,117.96581815333423 87.44507398920263,117.44719617800587 89.50365324115431,116.73767040801326 89.59592340855245,116.71221656887325 89.56848098807627,116.48631374524331 89.53944770264496,115.9740552297355 89.522743620616,115.61133801991608 89.83296228691579,114.72363537494773 89.86637045097373,114.66954596633073 89.89142657396978,114.62818347754448 89.9164826970125,114.58682098871084 89.9582429021331,114.51682293063725 89.99483279610132,114.45637006253156 90.02983182506699,114.39909892390945 90.05250165067775,114.36091816512831 90.07835320624619,114.31637394633697 90.13085174976582,114.22092204893372 90.15312385909039,114.17955956028972 90.18096399585275,114.12865188167781 90.20482697013244,114.07456247306081 90.26766613595605,113.9091125177262 90.28238163669553,113.86775002893997 90.29908571872451,113.80729716078686 90.31658523327847,113.75320775221726 90.33328931530744,113.7023000737476 90.38260612891679,113.53366838826565 90.40249194085605,113.45412514050864 90.41840059036004,113.38412708271952 90.42675263146936,113.33321940410761 90.43271837500372,113.28549345531115 90.42913892885466,113.1645877187679 90.41084398182312,113.05640890172353 90.42436633394182,112.98322911378708 90.4541950518507,112.8973224062095 90.49515982449297,112.80187050894848 90.54686293548689,112.73505418102222 90.57788480211286,112.70641861187711 90.62282673709558,112.66823785290633 90.66538237474042,112.63005709379331 90.70952887715147,112.59505806482764 90.79384471982058,112.53778692653741 90.86384277784677,112.49324270760383 90.93662484954444,112.45188021895983 90.97560104089797,112.42642637948794 91.03167903056666,112.38506389070169 91.15815279454701,112.28961199344069 91.27349050374801,112.20052355600023 91.3275799122702,112.15916106707175 91.40513457878588,112.10507165878663 91.47354177190432,112.05098225016962 91.54433526236066,112.00325630156281 91.69546743314642,111.90780440415958 91.78813531678334,111.85689672554767 91.87404202436092,111.805989047078 91.9822208412638,111.73917271910433 92.03591253349904,111.70735542000152 92.08682021211095,111.67871985085641 92.13176214704626,111.65008428156906 92.24670214005515,111.59599487295205 92.3361882937818,111.53236027484125 92.39942517574863,111.46554394658313 92.42368586631453,111.43054491761745 92.46186662523715,111.37009204932211 92.48453645089606,111.33509302035644 92.5744203209089,111.21100555380808 92.6328846079629,111.14418922588182 92.69731463859867,111.0741911676186 92.72555249155242,111.04237386880025 92.76373325047578,110.99146619018835 92.79077795471242,110.95646716122266 92.85560570168255,110.87692391346565 92.94151240926014,110.77510855624183 93.01230589971647,110.71465568780427 93.07912222783237,110.68283838879628 93.17855128752939,110.67647492883349 93.26366256267606,110.68283838879628 93.34598982410458,110.70192876830538 93.46212296582983,110.76556336641617 93.55717714685206,110.83874315449486 93.6255843399231,110.87692391346565 93.69637783042684,110.90237775246342 93.77552336194508,110.93419505175588 93.88171359770071,110.98510273036779 93.97239290019112,111.03601040897969 94.08574202829303,111.11237192658938 94.14500174782385,111.13782576587161 94.20943177845963,111.16327960520127 94.30766768948696,111.19509690449372 94.37687031503556,111.21418728381317 94.69146385991458,111.2905488015651 94.78055229740244,111.30963918121643 94.83503942206933,111.32236610071531 94.89509457412514,111.33827475036153 94.95833145609271,111.35100166986042 95.03349982526977,111.36372858950155 95.09435040975647,111.37963723900555 95.27928846079155,111.42099972807625 95.32701440944577,111.43372664776479 95.38110381796794,111.44963529707914 95.43638637511167,111.46872567673047 95.48729405372431,111.49099778605502 95.54655377330255,111.50690643565383 95.63047189963879,111.53236027484125 95.72313978327573,111.5578141141235 95.7772291917505,111.57054103381203 95.84086378995612,111.59599487295205 95.96773527017596,111.62463044209717 96.01426807011383,111.63735736188053 96.09341360163207,111.65644774138963 96.1562527673601,111.66599293116788 96.25846584068121,111.68826504035019 96.33045247990057,111.70099196018097 96.458119392598,111.72962752932608 96.52056084208726,111.7455361789249 96.59055890011344,111.76462655829175 96.65976152566205,111.79008039743177 96.75402027420671,111.81235250689856 96.8343589544413,111.83462461622311 96.91509535096208,111.860078455695 97.02605818153572,111.89189575465558 97.0884996311198,111.91098613430691 97.16207713520022,111.93007651362636 97.22054142234904,111.94598516327258 97.27025595219718,111.95234862309314 97.32553850934164,111.95871208277147 97.37962791786308,111.96189381272917 97.44485338097569,111.96189381272917 97.49576105958833,111.95234862309314 97.57729288849187,111.93962170345202 97.6723470695615,111.93007651362636 97.73478851914558,111.92053132380069 97.82666097025754,111.91734959412747 97.90421563677322,111.92053132380069 97.99091777682837,111.93643997330469 98.04620033406691,111.94916689294581 98.0943239989125,111.95553035290861 98.20966170816017,111.96825727259714 98.2597739542471,111.9746207324177 98.32977201227328,111.9778024623754 98.38982716437724,111.98098419223827 98.46579096593779,111.98098419223827 98.57754922903639,111.9778024623754 98.819360702217,111.96507554259203 98.9350961277042,111.95553035290861 99.02537771390841,111.95234862309314 99.08702373101492,111.95553035290861 99.1729304385451,111.96507554259203 99.24809880762807,111.98098419223827 99.30974482463976,112.00007457155772 99.35707305705519,112.01916495120905 99.74007379500524,112.03189187085017 100.92844991649513,112.05098225016962 101.25974754340311,112.04143706048619 101.45900337908186,112.06689089967361 101.89012778192492,110.51420670364622 102.17210859522355,108.73243795369932 102.27153765491983,108.48108129092937 102.40397716243527,107.88609779751722 102.69271915179398,106.5497712352941 102.78538703543018,106.40977511938398 103.2407721287917,106.07251174875198 103.99881928001093,105.65888686032065 104.55005398687226,104.790274594814 105.12077678952888,104.37346797670943 105.32321435507049,104.39574008617623 106.1456915369255,104.4466477646459 106.52034023386106,104.30028818863074 107.13401639030647,103.9789334677398 108.14660193420593,103.09123082277145 108.70062065488098,102.27988969583949 108.85572998795976,102.05080514210962 108.82073095899409,101.17901114692974 109.32781916344508,101.23628228521997 109.92837068396318,101.28082650401132 110.43267487474269,101.30946207315642 110.95408086378995,101.32218899279755 111.4679302443003,101.40173224055458 111.97422301627374,101.49718413795782 112.59744436244999,101.62127160431653 112.9633433021797,101.73899561090211 113.2994135239057,101.81217539883856 113.80570629592654,101.85353788776703 114.2070019808133,101.90126383642125 114.70255641433879,101.89171864659558 115.24225735037092,101.7549042604061 115.90843205033596,101.66263409315019 116.38211209072902,101.6721792827862 116.85618984736085,101.70399658193642 117.3521419972207,101.72626869126098 118.2537647104517,101.71990523158266 118.72187672350177,101.71990523158266 119.1028888802579,101.71990523158266 119.45327688667498,101.72945042140832 119.61753369324582,101.48763894798992 119.87962869460594,101.04219676074025 120.39268264263798,100.52039305540679 120.68182234828215,100.2658546624895 121.11334446736325,99.9826807004271 121.540093991533,99.79495863576794 122.11081679423702,99.5181481335261 122.5009764244378,99.27633666043958 122.93050996232571,98.81498582354368 123.29322717209772,98.24227443959832 123.47617664198629,97.32593622543745 123.46702916854163,97.02685361391846 123.74065794073022,96.72140754238927 124.03258166004663,96.42868839083307 124.55716937900418,95.95461063396418 125.23527556608536,95.76052510948446 125.9825843788574,95.72870781047648 127.09101953625665,95.31826465190802 127.36862547092865,95.21644929482645 127.50543985707073,95.15917815639398 128.46234512758767,94.62464753156162 128.98693284654522,94.33192838000544 129.7032197925972,93.84194197377478 130.61239911450735,93.20559599171862 131.48061366377522,92.61379422816933 132.23309278755664,92.28607604745783 132.64075193231136,92.20016933988023 133.40913970564418,92.05062803404962 134.51240455203404,91.82472521041969 135.27482658178508,91.58291373747541 136.20230085058452,91.37610129330716 136.2114483240766,91.23292344715487 136.26832174622285,90.5043072978428 136.40593156488993,89.85523439614552 136.46837301437918,89.35570280027883 136.803647803675,88.79253660615913 137.18744397410265,88.52208956359563 137.43760748825105,88.6334501106451 137.5533429137375,88.69390297875078 137.57203557700782,88.71617508807535 137.6026597273469,88.74799238736779 137.66947605546278,88.81480871543629 137.7195883015497,88.86571639390596 137.77964345360624,88.94844137152585 137.79555210315766,88.97071348099263 137.88981085179714,88.96116829116696 138.01708004816095,88.9420779118475 138.1125319455168,88.9134423427024 138.18093913854116,88.88798850337274 138.27837961709017,88.85298947426483 138.33008272808482,88.83708082490307 138.42195517924418,88.81480871543629 138.51104361673205,88.7893548760118 138.5687124713559,88.77662795651291 138.62876762345985,88.76708276668724 138.69717481648348,88.75117411732549 138.8073422146262,88.72572027804324 138.89483978720708,88.70026643857135 138.9715990212452,88.67163086956846 139.0781869732396,88.6334501106451 139.15494620732514,88.59526935167432 139.19988814235526,88.57617897216522 139.2842039849303,88.54436167306241 139.43175670956697,88.4934539944505 139.5701619606642,88.44572804598594 139.6413531673593,88.42027420651405 139.75788402532334,88.38845690736383 139.87322173457102,88.35982133836094 139.93049287295608,88.34709441857758 140.04304656853225,88.32164057943757 140.12895327610983,88.31209538946968 140.21605313240377,88.30255019978625 140.3202547870603,88.29618673996569 140.4077523594982,88.28982328014513 140.46701207907716,88.2866415504719 140.5576913815676,88.2866415504719 140.6085990601795,88.2866415504719 140.81143434186507,88.29300501029246 140.9013182118305,88.29300501029246 140.97807744591603,88.29618673996569 141.05245038261626,88.29618673996569 141.22108206786115,88.31527711961702 141.2727851788558,88.31209538946968 141.45215520254786,88.3089136596068 141.58896958873734,88.30573192979135 141.6812397561355,88.31209538946968 141.78981628927642,88.3248223091108 142.14259059312622,88.34391268876213 142.78490231876415,88.33436749893647 143.8965192061211,88.27709636064624 144.8709239911446,88.19437138302635 145.74510428404167,88.54436167306241 146.541332194042,88.89117023323561 147.09296461723696,89.06298364839077 147.4023878510592,89.10116440736155 147.91583951533076,89.21252495422138 147.98186041096906,89.21888841408935 148.05543791514432,89.23161533373047 148.1536738260768,89.25070571304992 148.24395541232846,89.26343263269105 148.32628267370956,89.27297782237449 148.4241208684507,89.26661436255392 148.57167359308738,89.25070571304992 148.64246708363854,89.23479706368816 148.7418961433348,89.20934322426369 148.87592651571057,89.174344195298 149.1129653940739,89.11389132686044 149.2473934827351,89.08843748786266 149.3098349322251,89.0820740280421 149.3957416398027,89.07252883821644 149.4975569970265,89.06298364839077 149.58664543446696,89.05343845870733 149.67096127704198,89.04389326907132 149.79942362216957,89.0311663494302 149.91515904775085,89.00889424010565 149.99032741683382,88.99934905013774 150.07225696197617,88.98980386059655 150.14066415504718,88.98344040063375 150.2556041481035,88.97071348099263 150.31804559754534,88.9643500213143 150.43974676661284,88.93253272202185 150.52843748786267,88.91026061283952 150.7567266089727,88.8593529340854 150.87126888569543,88.83389909494538 151.07132015385173,88.78299141633347 151.1357501844875,88.76390103701402 151.21728201348586,88.7289020078587 151.30000699115317,88.69072124907757 151.3950611721754,88.64935876010168 151.47579756869618,88.61754146099886 151.549375072824,88.58890589185376 151.59749873771702,88.57299724220752 151.7152227443974,88.52527129374296 151.77766419393407,88.49981745427107 151.82936730492872,88.48072707495162 151.94311414926867,88.43936458611796 152.02146424826194,88.40436555686782 152.11214355075234,88.36936652790214 152.1614603643617,88.34391268876213 152.20998174544607,88.32164057943757 152.33645550937973,88.261187711 152.4092375810774,88.22937041184979 152.4708835980891,88.20391657256754 152.58423272614286,88.16255408392354 152.77632966947604,88.08937429598708 152.9489385171088,88.0289214275495 153.05473103662564,87.98755893876327 153.14660348787982,87.95574163975529 153.22574901935064,87.9271060703257 153.41188021905464,87.85074455271602 153.46994678991726,87.83165417306469 153.5494900376743,87.79665514424124 153.6485213811318,87.75529265517054 153.77459742882667,87.70756670670598 153.8839693944933,87.66302248791463 153.96470579101336,87.63120518876441 154.05896453955802,87.58666096997307 154.12498543519632,87.55802540097018 154.19577892570007,87.5293898315406 154.25742494271176,87.50075426239549 154.373558084437,87.44984658378358 154.45588534586554,87.41166582514468 154.53184914752092,87.37666679598935 154.62133530124754,87.33848603720821 154.69888996776322,87.3034870080529 154.77644463437375,87.26848797894499 154.8520107196955,87.23667067998441 154.97570047000508,81.76727696406947 155.62119392555329,81.76727696406947 155.9839111352779,81.76727696406947 156.86047772556026,81.59864527901422 157.15598089102426,81.54455587044463 157.41767817614559,81.51273857143664 157.86550666101763,81.42046840389627 158.54719229424788,81.22320114941145 159.31438691891174,81.0672963839025 160.23271371421913,80.88593777892169 161.0400776790003,80.7332147432282 161.62551598244457,80.66003495529174 162.0435157494077,80.5550378683947 162.126240727075,80.56140132821527 162.2252720705325,80.49140327028391 162.338621198587,80.4118600225269 162.3879380121956,80.38004272323444 162.44043655571596,80.34504369426877 162.49134423428046,80.31004466530308 162.58321668543834,80.24004660732432 162.65401017594283,80.18595719875472 162.6973612460178,80.14777643978394 162.74747349210475,80.10959568081316 162.79400629204258,80.07141492203203 162.82741445610054,80.04277935288691 162.87354953979963,80.00778032387382 162.96263797728747,79.937782265658 163.06445333436906,79.86142074804832 163.11615644541112,79.82960344875586 163.2020631530361,79.77233231032339 163.24700508797068,79.75006020099885 163.3245597545819,79.7055159822075 163.41205732706723,79.65779003374293 163.46574901930322,79.63233619427105 163.52142929273313,79.60688235513103 163.5942113644308,79.56870159601802 163.73500291300815,79.31416320324296 164.28981706606595,78.81781333723916 164.2798741600963,78.71917971016268 164.28981706606595,78.54100283499731 164.32481609512644,78.30873655168905 164.22896648157925,78.00965394017007 163.94101992469882,77.72966170792311 163.76920650949626,77.60875597137986 163.52063386025557,77.43376082636182 162.9169006098272,77.06149842690638 162.4996962752942,76.7433254358783 162.23879442265118,76.39015341588454 162.07692391346563,76.00834582655602 161.84346448129878,75.43245271265296 161.71579756864804,75.00610090472274 161.6489812405329,74.63702023508276 161.70307064905506,74.3347558937009 161.7873864916301,74.06112712146417 161.91266710689482,73.80022526886854 162.10675263137452,73.45023497854801 162.26225968074024,73.12251679802615 162.3422006447353,72.78843515735184 162.1636260535682,72.36844680924219 162.04669747931723,71.8211892647687 161.9842560298287,71.22302404135145 161.9293711889238,70.9207596999696 161.87925894283686,70.89530586082958 161.816817493395,70.82530780256634 161.77585272075274,70.78712704392744 161.72574047461913,70.74258282513611 161.68398026959338,70.71076552584366 161.62472054996698,70.66940303719964 161.5674494116301,70.63758573790719 161.49983765098847,70.58985978944263 161.44614595875248,70.55486076047696 161.39643142890435,70.51986173132163 161.33120596574358,70.4721357825726 161.27552569236107,70.43395502374405 161.2429129607807,70.39895599463613 161.2162659727821,70.35123004617157 161.1951870120791,70.2939589077391 161.1784829300501,70.24305122912719 161.1359272925001,70.14123587204563 161.11365518317555,70.10623684307994 161.0878036276071,70.07441954378749 161.02615761059542,70.01714840535503 160.9493983765099,69.96624072688536 160.8957066842739,69.92805996791458 160.82173146390727,69.88351574926547 160.7732100827281,69.85169845016266 160.721506971686,69.81988115115468 160.679746766661,69.79442731187243 160.63042995300424,69.76261001257997 160.59065832912572,69.74033790339764 160.52821687963646,69.70852060429485 160.48804753951916,69.68943022464352 160.43276498232805,69.6639763855035 160.37469841151284,69.64488600599441 160.30947294830466,69.63852254617385 160.25259952615838,69.63534081635838 160.18180603570204,69.61943216656992 160.12930749218242,69.60670524707103 160.0760135161852,69.58761486770418 160.00999262054688,69.56534275823738 159.9535169146394,69.53352545913458 159.90658639846276,69.49216297034833 159.87596224802888,69.45716394119302 159.82585000194197,69.39034761326675 159.8039756088562,69.34580339447542 159.7797149182429,69.28853225604296 159.76301083621394,69.2471697672093 159.74073872684195,69.19944381846027 159.7216483474277,69.15808132981626 159.69738765681439,69.09444673156324 159.6814790073104,69.0499025127719 159.65801374922208,68.99899483430222 159.60631063813258,68.92263331636066 159.58801569114848,68.87490736761163 159.57210704164376,68.83354487896761 159.54864178355544,68.77945547035061 159.5112564570637,68.70945741241925 159.4671099545578,68.62991416466224 159.45199673748397,68.57582475604522 159.42853147939564,68.4962815082882 159.3979073290092,68.44855555968141 159.3637037325211,68.39446615134887 159.31120518904888,68.30219598380849 159.29291024196993,68.2640152248377 159.27938788985125,68.22901619601427 159.23683225230124,68.10174699950821 159.19865149337787,67.99674991256377 159.1803565463945,67.94584223380963 159.17081135670958,67.90129801520793 159.15609585582786,67.83129995722916 159.14018720627647,67.76766535883391 159.12944886783,67.7263028701899 159.1151310832804,67.68812211107688 159.0642234046685,67.59585194382097 159.03320153804327,67.5513077248874 159.0057591176145,67.5099452362434 158.95843088515167,67.43994717826463 158.91587524764907,67.3604039305076 158.88485338097644,67.28086068275059 158.8725241776215,67.23313473385932 158.86894473142428,67.19813570503587 158.86974016395,67.1535914861023 158.86974016395,67.11541072741598 158.85422923058997,67.02950401969616 158.8347411348895,66.96905115159048 158.82917310754652,66.90859828315291 158.80650328198317,66.80996465607643 158.7814471588923,66.72723967817208 158.75877733328156,66.66678680987674 158.72457373684085,66.58724356211972 158.69872218122575,66.53633588365005 158.65815512491633,66.4599743657559 158.634689866828,66.4186118771119 158.61202004116984,66.38361284795657 158.57781644468173,66.33270516953432 158.53526080713172,66.27543403091221 158.4871371421906,66.21179943265918 158.4286728551366,66.1354379150495 158.32844836291608,66.02089563832679 158.29106303647026,65.98271487921377 158.24850739892025,65.94453412024299 158.21032664004431,65.90953509127732 158.1761230434614,65.87453606231165 158.0874323222597,65.7695389753672 158.05998990173612,65.73135821644384 158.02499087277045,65.68363226778962 157.99317357362023,65.63272458903548 157.96891288314842,65.58818037038637 157.92556181307492,65.51500058249732 157.86232493110734,65.42273041505177 157.83567794310875,65.38136792612329 157.77880452096247,65.31773332801251 157.74221462694683,65.28591602900451 157.7056247329786,65.25409872990171 157.6471604459246,65.2000093212847 157.55528799471784,65.11410261370712 157.51631180331688,65.0886487745671 157.45188177272854,65.0377410959552 157.38705402571173,64.99637860697932 157.27768206004583,64.93592573887362 157.19257078499322,64.90410843958118 157.13251563293593,64.88819979021942 157.06410843991304,64.87229114057318 156.97581543480794,64.84683730114871 156.8755909426341,64.8022930824996 156.79286596496678,64.77047578353903 156.6755396745726,64.71638637492202 156.61946168490317,64.68775080563466 156.57054258748593,64.66229696663689 156.49020390729873,64.63047966734443 156.43173962014993,64.61457101769821 156.3577643997833,64.60502582801477 156.31839049219172,64.60502582801477 156.2786188683125,64.59866236819421 155.47761836330446,64.45866625233151 155.41517691381594,64.43957587268018 155.6076715733872,63.60278090632374 155.5885811939729,63.090522390815934 155.32688390885232,62.931435895301895 155.15427506121958,62.839165728045984 155.02501728361443,62.76916766978275 154.94388317085486,62.724623451133645 154.86473763933662,62.67371577271138 154.81900027187635,62.63871674355606 154.7696834583144,62.59735425462759 154.73388899682374,62.56871868548247 154.69292422418147,62.52735619669623 154.6595160601235,62.49235716773055 154.60542665164874,62.42872256957235 154.57122305516063,62.38099662068108 154.54099662101297,62.34917932181533 154.50281586204218,62.31418029256518 154.42605662795665,62.25690915427495 154.3767398143473,62.23145531513494 154.31986639229586,62.20600147566305 154.26935642992274,62.183729366480726 154.18901774964073,62.15191206737792 154.14328038222786,62.13282168772659 154.09157727113913,62.110549578544266 154.05220336349865,62.08191400925692 154.00407969865307,62.05964189979013 153.91459354492642,62.02464287096669 153.81476676894397,61.98964384171654 153.7411892647687,61.96737173239199 153.67119120674252,61.941917893251976 153.61193148716356,61.91964578392742 153.52443391472565,61.8814650248144 153.3860286635336,61.82419388638194 153.32995067386491,61.80192177705739 153.20148832873733,61.74465063862492 153.10961587762537,61.709651609801476 152.9998461957207,61.687379500334686 152.90717831208303,61.67147085068846 152.8638272420562,61.655562201184466 152.73934205926903,61.58556414311088 152.25890084281738,60.51968462340386 152.1471425797173,59.57789257000815 151.03632112479124,58.32429098507305 151.0295599487319,58.29565541592793 151.00728783935992,58.235202547632596 150.98541344627415,58.20020351866692 150.95280071464563,58.16838621970635 150.91382452324544,58.133387190693256 150.85933739857927,58.09202470162255 150.78854390802812,58.04748048311568 150.72848875597157,58.00611799404497 150.67758107740707,57.98384588472042 150.62667339889,57.964755505400966 150.55508447586126,57.93611993625585 150.47156406576454,57.89793917714283 150.3733281547372,57.856576688498826 150.2174233891327,57.796123820061254 150.0631094885315,57.73885268162879 149.96129413140252,57.69430846283745 149.80777566318406,57.637037324547215 149.7159032120721,57.59885656557643 149.64073484289432,57.57340272643642 149.56835048743542,57.55113061696964 149.50829533537888,57.532040237650186 149.44744475089144,57.51613158800396 149.34045908261157,57.493859478679404 148.81030333635843,57.293410494379124 148.5875822425921,57.20114032679133 148.3354301472016,57.01023653231672 148.1620258670913,56.9816009631716 148.0443018604109,56.921148094734036 147.98862158702843,56.90842117523515 147.93095273235716,56.902057715414585 147.87527245892724,56.90842117523515 147.74999184375736,56.91796636487116 147.57658756359965,56.914784634913474 147.47556763899564,56.89569425559402 147.39045636384822,56.87024041612213 147.3431281314802,56.844786576982116 147.30136792636034,56.816151007837 147.26477803239212,56.78433370854455 147.236142463247,56.723880840249215 147.22977900342644,56.660246241996184 147.2337561658143,56.60297510370595 147.2496648153657,56.54252223555285 147.28625470933392,56.47252417733703 147.28864100671922,56.43434341850848 147.252051112751,56.37707228021825 147.19637083936848,56.28162038281501 147.19637083936848,56.21798578470421 147.21864294869306,56.163896376134616 147.24807395036314,56.112988697664946 147.2814821144211,56.06526274901073 147.3081291024197,56.02708199008736 147.3061405212732,55.91890317318523 147.36062764593933,55.85526857474255 147.42068279799662,55.82026954591911 147.46403386802345,55.79481570663686 147.51891870907062,55.762998407344405 147.58653046956928,55.68981861940795 147.5781784286022,55.63572921112282 147.51891870907062,55.58800326246861 147.465624733026,55.55936769318126 147.40875131087975,55.533913853899016 147.32801491435896,55.4861879052448 147.29142502039147,55.45755233595745 147.27710723579446,55.41300811735575 147.28625470933392,55.34301005937699 147.29062958791314,55.29210238062285 147.30057249388278,55.25392162184171 147.31290169733253,55.19028702368351 147.33318522551056,55.12028896546769 147.37454771429682,54.9930197692461 147.40556958096946,54.91347652148908 147.42903483905778,54.862568842877174 147.45130694838232,54.827569813911495 147.47556763899564,54.78620732507785 147.50658950557346,54.7098458071837 147.57141725254286,54.525305472339994 147.59567794306133,54.448943954445845 147.6147683225697,54.388491086292746 147.63982444556572,54.30894783853572 147.68078921820876,54.21985940100045 147.7567530198167,54.038500796161856 147.79493377869267,53.95259408858428 147.82516021284033,53.88259603032104 147.85936380942326,53.803052782564016 147.88441993241932,53.745781644273784 147.90788519050764,53.66305666670131 147.9142486503282,53.62169417772542 147.9226006913901,53.577149959076316 147.93095273235716,53.535787470147845 147.9385093408941,53.48806152168328 147.93930477341905,53.44669903289704 147.95600885544803,53.32261156634868 148.11469763472329,52.95989435652925 148.30798772672546,51.693565852095254 148.5016755350138,50.885406455026164 148.86200644735308,50.30951334121792 149.37068551680665,49.914978832295695 149.16983881617276,48.96364158916914 149.48483007729055,48.578652270072574 149.9947022955079,47.96139666733586 150.47752980934558,47.5064092901183 150.76428321746224,47.232780518023795 151.2614285159436,46.82551908941303 152.17060783780562,46.31007884390012 153.047969860567,45.89327222565334 153.36335883792287,46.007814502376036 153.42858430108362,45.963270283869164 153.60039771628695,45.87418184633389 153.84141375698997,45.75645783946385 154.0430558900066,45.73100400046607 154.22998252228302,45.56555404508406 154.33935448794892,45.501919446688795 154.5529281081291,45.37146852031987 154.7346844292539,45.29192527256286 154.95462150930206,45.19647337530184 155.0723455159817,45.09147628826258 155.15427506121958,45.008751310784916 155.27518079776286,44.674669670158025 155.48119780945353,44.51876490445944 155.7011348895491,44.35331494912484 155.76317862275218,44.29922554083971 156.1549291180029,44.02559676841332 156.2810051656978,43.98423427948485 156.51685089529735,43.971507359985964 156.61627995499362,43.97468908994365 157.03746145186705,43.888782382366074 157.73386258593234,43.73924107639323 158.17413446231413,43.64060744931676 158.2477119664427,43.62788052962822 158.73889152134228,43.634243989448784 159.01769060472992,43.634243989448784 159.20262865576572,43.5674276613803 160.22953198430886,43.20471045156088 160.84599215442577,42.981989357936044 161.17450576766225,42.86744708121334 161.5849489260885,42.69563366601077 161.7500011652317,42.63199906761551 162.49890084286406,42.19928379986473 162.63253349904844,42.11655882224484 162.87076552617552,41.9574723267308 162.98769410028353,41.88429253879434 163.09030488988935,41.70611566367638 163.8109667146161,41.88747426865721 164.16612731585118,41.970199246419334 164.18879714146195,41.96065405659367 164.2420911174599,41.94156367727422 164.29538509345636,41.94474540694744 164.3530539480328,41.93201848744855 164.46640307608652,41.919291567949664 164.65094341088357,41.89065599866231 165.01445605317983,41.833384860372085 165.16041791281395,41.811112750905295 165.29643686647844,41.78247718176018 165.47898862008083,41.72838777314317 165.6225641822348,41.699752203855816 165.81187711189654,41.66157144516951 165.93198741605704,41.64248106556559 166.06044976113722,41.62657241591936 166.21476366183325,41.60430030659481 166.35316891293047,41.582028197412484 166.49236959650526,41.55657435813024 166.63912688866438,41.53748397847891 166.81451974992117,41.515211869344 166.9302551754069,41.49293975987721 167.04280887098383,41.470667650552656 167.28979065522196,41.11431390041156 168.0331223055113,40.89795626660729 168.67782032858196,40.843866858132515 168.78440828057637,40.85023031795308 168.95781256068668,40.859775507636506 169.2055897774498,40.86932069746217 169.52177418733137,40.92022837607408 169.68046296660663,40.95522740489752 169.66017943838116,41.060224491936786 169.98710218666253,41.10158698091267 170.29851400163125,41.041134112475106 170.50850817570978,41.00613508350943 170.70100283528103,40.9902264338632 171.28405484134075,40.98704470418998 171.95897929855906,40.98704470418998 172.26840253233385,41.00613508350943 172.65299413523906,40.95204567517688 172.8387276187517,40.8852293471084 172.9341795160601,40.840685128317055 173.05906241503865,40.78023225987949 173.27184060278793,40.602055385046 173.37007651381526,40.474786188634766 173.54387851011768,40.25842855454602 173.68785178860531,39.92116518405626 173.85409717641747,39.485268186300374 174.43635374995145,39.383452829218804 174.8491832058104,39.52981240509172 175.90989241465024,39.57753835384075 176.13937468442924,39.55526624456361 176.68901852643026,39.48844991644771 176.9793513807908,39.46299607697582 177.2752522623995,39.43754223783581 177.33053481963805,39.42481531819469 177.6650141764563,39.20527595424308 178.1462508253863,38.89028469336233 178.22778265428983,38.839377014750426 178.29459898245312,38.791651065953985 178.66169107080435,38.441660775965325 178.78021050996233,38.21575795233539 178.5622620111081,38.10757913529102 178.40715267802932,37.958037829413 178.13431933817532,37.75122538529216 178.0277313861809,37.69395424685969 178.0810253621781,37.41396201494462 178.08022992970055,37.385326445799514 178.32880257894124,37.060789994950866 178.34948382335807,36.40535363324337 178.33118887642135,36.11581621136041 178.3327797413291,36.04581815342905 178.33874548491087,35.959911445851475 178.3295980114188,35.874004738416126 178.33954091738843,35.81991532965689 178.337154619955,35.476288499631025 178.3470975259261,35.26311259535774 178.33874548491087,35.2312952965394 178.33397289004543,35.19629626738408 178.6207262982095,34.90039538582279 178.8959459354488,34.61403969380269 179.10514467704976,34.327684001877415 179.27377636229463,34.09541771847433 179.40979531595914,33.894968733984406 179.66234512758768,33.63406688153103 179.88785023497883,33.31589389050294 179.84330601632973,33.03908338830851 179.71762768477808,32.83545267400313 179.6567771002921,32.75590942624611 179.62416436871172,32.74318250660499 179.59592651571057,32.71136520731253 179.54820056710378,32.67954790844678 179.43803316896103,32.609549850230955 179.38553462544067,32.561823901766395 179.3521264613827,32.51091622315449 179.31116168874044,32.440918165175724 179.27815124092126,32.3709201069599 179.25309511792523,32.33592107799422 179.22048238629742,32.307285508849105 179.22525498116286,32.27228647988343 179.42729483046568,31.709120285763724 179.51916728162504,31.161862741242835 179.96858663150036,31.17140793078403 180.00279022798773,31.114136792493802 180.37982522240415,30.436428321651398 180.6017508836455,29.994167864074956 180.7835072047703,29.618723734756642 180.9250941857304,29.329186312873677 180.96287722846236,29.182826736858527 181.15059929312153,29.077829649914083 181.2504260690566,29.02055851162385 181.54672466699964,28.813746067218542 181.7042202975104,28.72465762977809 182.2240354216025,28.422393288254003 182.33062337359692,28.241034683415407 182.68419310987687,27.60787043136435 182.72197615256147,27.496509884457108 182.82697323960147,27.191063813212384 182.96696935565308,26.891981201551168 183.1455439468676,26.519718801906077 183.46252378927414,26.096548723980966 183.20798539635686,25.597017128114288 183.09622713325825,25.42202198295402 183.02384277784677,25.32020662573021 183.05208063075384,25.17066532018407 182.830154969511,24.80476638050178 182.73868023459045,24.655225074528936 182.75697518157455,24.531137607980572 182.90373247368626,24.2670540255695 182.883846661747,24.158875208667364 182.7903833456325,24.002970443111014 182.68180681244417,23.83433875781872 182.6885679885035,23.761158969882263 182.7800427234241,23.68161572212524 182.88782382413484,23.70070610144469 182.91964112323765,23.668888802436708 182.9446972463278,23.646616693159565 183.0711710102622,23.541619605930652 183.11810152639143,23.493893657466085 183.1554868528372,23.442985978854182 183.18213384083583,23.38253311041661 183.21912145104284,23.312535052485256 183.28554006291995,23.191629315894584 183.35553812099354,23.07072357920909 183.3933211636307,23.019815900597187 183.45576261316813,22.940272652840168 183.54087388826738,22.832093835938032 183.57348661980038,22.77164096783234 183.57945236338213,22.73027847899869 183.567520876266,22.666643880603427 183.5536008078611,22.58073717302585 183.52257894123588,22.478921815944272 183.4716712627188,22.33574397007646 183.4342859362256,22.198929583886972 183.41400240804754,22.113022876451627 183.40326406960034,22.01757097904838 183.39570746111085,21.960299840615914 183.36746960810967,21.887120052679453 183.33923175520334,21.83303064420468 183.33803860644034,21.80121334510187 183.35474268846855,21.772577775956755 183.4040595020779,21.72167009734485 183.42155901663187,21.686671068379173 183.41837728672158,21.642126849587832 183.43508136875056,21.57212879146683 183.45735347807437,21.511675923361143 183.4824096012134,21.457586514886366 183.50746572416205,21.41304229595279 183.57746378223564,21.317590398881425 183.60609935138,21.27304618009008 183.61922398726065,21.231683691303843 183.62598516332,21.180776012691936 183.62678059579756,21.136231793900595 183.61683768982795,21.10441449460814 183.5917815668793,21.0725971957898 183.60928108129102,21.01214432735223 183.94216957320157,21.056688546143572 184.0336443080747,21.069415465642464 184.08137025677635,20.824422262693076 184.08375655416165,20.79260496340062 184.11636928574202,20.786241503580058 184.17960616770887,20.75760593443494 184.25000194197384,20.719425175606396 184.30250048549345,20.687607876503588 184.34346525813572,20.65897230735847 184.40829300501028,20.60806462874657 184.4743139006486,20.547611760309 184.539141647618,20.499885811844432 184.60436711073135,20.452159863047985 184.66362683031033,20.429887753865664 184.83623567794305,20.410797374261747 184.97225463160757,20.404433914441185 185.05060473064822,20.401252184578315 185.1206027886744,20.39488872461552 185.20730492872957,20.382161804974395 185.20969122616154,20.356707965976618 185.31429059701017,19.99717248583042 185.49763778304342,19.354463043953693 185.884615683428,19.44991494135694 185.9562046063619,19.201740008260217 186.13477919757642,18.55903056638349 186.20000466078457,18.31403736329187 186.25568493421525,18.279038334468428 186.28591136836218,18.25994795495933 186.5460177884802,17.979955722759797 186.62874276614752,17.89723074532955 186.69953625669868,17.84950479639087 187.09247990057094,17.579057754301473 187.62462422811282,17.219522274297507 188.377501068133,16.700900298826912 188.8766349477609,16.360455198474277 189.25088592845768,16.102735075883764 189.29105526857498,16.102735075883764 189.32446343268035,16.090008156242643 189.34275837961704,15.981829339340505 189.3837231522119,15.895922631715512 189.41792674879483,15.81001592413793 189.4592892375811,15.746381325742668 189.49468598283295,15.663656348312426 189.509401483668,15.542750611437285 189.50184487513107,15.475934283463623 189.4720161572222,15.41229968535283 189.45292577776053,15.36139200659869 189.42786965476446,15.269121839200547 189.75240610561312,15.189578591443526 190.00058103861502,15.148216102799521 190.11074843675848,15.129125723148192 190.16245154775314,15.12276226332763 190.30085679885036,15.14185264297896 190.90737406299763,15.297757408345662 191.1193568182701,15.345483357284344 191.55127665359072,15.447298714176272 191.81973511477065,15.501388122651045 191.64155823984234,15.291393948525101 191.53695886899445,15.176851671944638 191.21361556690957,14.59141336850038 190.91174894162427,14.101426962317136 190.8015815434808,13.757800131817163 190.74311725642679,13.560532877474575 190.7987975298093,13.28054064527504 191.2335013788488,12.653739853044545 191.77002058492252,12.707829261614142 191.82649629083,12.720556181302676 191.87342680705405,12.672830232363996 191.88496057793142,12.637831203398317 191.87819940187205,12.609195634253203 191.82570085835243,12.513743736849955 191.77996349089213,12.421473569594045 191.75570280032625,12.338748591831921 191.72468093374843,12.236933234892582 191.82410999344395,12.122390957885415 191.94064085136134,11.995121761663828 192.3252324542665,11.31423156067409 192.45727424559058,10.728793257229832 192.46125140793103,10.700157688084715 192.53284033095974,10.696975958221847 192.52210199246514,10.601524061008245 192.4322181224997,10.60470579068147 192.34790227992468,10.17199052293069 192.30614207480482,9.94290596962753 192.78061754767546,9.647005087924002 193.0093043849769,9.491100322083186 193.14373247368624,9.376558045360488 193.29367149570822,9.233380199492675 193.62496912261622,8.8515726103538 193.69059230201577,8.918388938280051 194.01433332043425,8.698849574660322 194.4903996582126,8.39022177326826 194.85271915179325,8.196136248646308 195.3689548296889,7.912962286726138 195.78576144793567,7.693422922964174 196.00848254165533,7.5693354564158115 196.18387540295956,7.461156639513675 196.49568493416783,7.267071115033957 196.85840214398652,7.018896181794997 197.37662640307533,6.821628927594644 197.88689633743738,6.6243616731572335 198.40671146162433,6.427094418672412 198.76187206276458,6.296643492303487 198.806018565269,6.283916572804599 199.21407542626326,6.159829106256235 199.7259362255797,5.997560880594857 199.79951372975492,5.972107041454845 200.0186553773255,5.857564764732147 200.2163203480958,5.7652945972865925 200.73534003961626,5.558482153023517 201.13066998101607,5.393032197831149 201.3482207635841,5.284853380929013 201.56099895138155,5.176674563884642 201.9972936652814,4.9507717401124705 202.4085322561852,4.74077756612876 203.07152522623994,4.454421874393133 203.35430147206358,4.349424787164221 203.38850506855167,4.40033246563389 203.45532139666759,4.378060356309336 203.41912921893888,4.314425758056308 203.92462655848215,4.218973860795296 204.2081982366885,4.1553392625422685 204.61545966520444,4.066250825101817 204.94715500835048,3.983525847529339 205.4701518623529,3.8244393520152986 206.1291676700198,3.5317202001272294 206.54796286946126,3.3662702447926276 206.9090892142774,3.2008202894580253 207.32191867018375,3.0099164950782344 208.12172602633316,2.4149330018557227 208.48722724977668,2.1444859592922083 208.73818619645007,1.9885811939255058 209.19118499247372,1.7435879908338836 209.37890705713286,1.638590903604971 209.42981473574477,1.57813803545187 209.67242164135627,1.5590476558479507 209.77821416087312,1.5495024661645198 210.8615931953704,1.1804217966667687 211.27720666485416,1.0595160598390407 211.60333398070534,0.9704276223985895 211.67253660620653,0.9449737831163431 212.09212723812482,0.776342098061106 212.3037122771585,0.728616149312071 212.52722880335574,0.6840719305207281 212.8076187516985,0.6108921425842695 213.0510210898357,0.5536210041518035 213.10471278211912,0.5377123547900453 213.25544723657126,0.5058950556872372 213.43998757141495,0.4613508368958944 213.46822542432128,0.4390787274291058 215.08136248883366,0.04772594846456626 215.3708999106692,0 215.48265817376782,0.14635957582550577 215.58845069328464,0.2895374217407307 215.79367227249776,0.5599844639723651 216.13371965670643,1.0117901113744745 216.3190554239329,1.2536015846032273 216.2975787470385,1.336326562223117 216.2697386103717,1.4540505689509184 216.20212684973006,1.6608630129295252 216.12377675073682,2.039488872395176 215.96389482269706,2.1603946089384354 215.9794057560104,2.214484017508032 215.90622596816877,2.297208994985687 215.79128597506505,2.430841651312304 215.7610595409174,2.4753858699614124 215.70020895643069,2.5772012270429867Z"/></svg>