<svg xmlns="http://www.w3.org/2000/svg" width="256" height="256"><path d="M214.3001522071112,2.7908675796207376 209.4636225267418,15.084322678710901 207.82648401837017,16.71598173502888 207.2468797565725,17.446575342335436 206.91993911737538,17.870319634428082 206.76834094385927,18.40608828007654 206.52054794545256,18.815220700095633 206.2240487063433,18.971080669581784 205.79117199401304,19.10745814280052 205.17199391182186,19.21948249592086 204.2398782344999,19.32663622535538 203.89893455109018,19.467884322550244 204.01765601235007,19.711415524985764 204.02435312048965,19.852663622180632 204.0487062406606,20.169254185782275 204.08280060892787,20.461491628269428 204.12237442932476,20.773211567459473 204.1211567733126,20.83165905633431 204.09802130908122,21.099543378868223 204.08036529690466,21.196955859987586 204.04444444461913,21.26027397233051 203.95920852369298,21.343074581303743 203.9105022832059,21.401522069743113 203.56347031973527,21.786301369591232 203.5391171994917,21.82039573807736 203.51476407924815,21.893455098808015 203.4983257230849,21.956773211368674 203.36255707772597,22.22952815831419 203.34124809751285,22.268493150558715 203.26088280070914,22.370776255799367 203.23105022848335,22.39512937568003 203.13302891943047,22.599695585725865 203.11659056326607,22.633789954211995 203.0934550990347,22.77990867581846 203.0983257230834,22.848097412572987 203.10502283122298,22.950380517523325 203.1025875191249,23.247488584204348 203.09223744302253,23.315677321176604 203.0563165906633,23.37412480939824 203.00273972620005,23.432572298273076 202.7573820396737,23.656621004441174 202.72694063936925,23.685844748806016 202.5455098935548,23.943987823532822 202.32876712345976,24.19238964965416 202.3007610351071,24.221613393946424 202.26605783876002,24.280060882603525 202.14611872163312,24.450532724380967 201.95859969575775,24.713546422793595 201.75281582962717,24.99117199371524 201.56529680375183,25.2541856923456 201.32480974141933,25.4879756466837 201.15007610359928,25.765601217387616 200.96621004576045,25.95068493116603 200.67031963487386,26.199086758013152 200.60091324210717,26.247792998500255 200.3153729073241,26.457229832449645 200.02130898045579,26.671537290375166 199.74977168959504,26.915068492810686 199.4904109590012,27.13424657507523 199.18782344004765,27.35342465763009 198.83896499255877,27.514155250802066 198.48158295291208,27.635920852019822 198.1509893456047,27.777168949432426 197.79238965009213,27.942770167451467 197.48066971090208,28.147336377497304 197.23287671242394,28.381126331835404 197.137290715468,28.566210045396083 197.112937595297,28.62952815795674 196.00974124819155,30.05175038039791 193.5184170472762,33.139726027425446 191.57686453585902,34.30380517513981 184.3220700153786,37.606088279802556 183.36803652983633,38.54611872149397 182.1576864536592,39.78325722993899 180.62831050243673,41.0934550989695 178.69101978706217,42.98325722986913 175.8770167428472,45.384474885955925 173.79056316605343,46.680060882767734 172.17838660585772,47.629832572338834 169.2785388128568,48.672146118835435 165.89649923917867,51.092846270681605 163.80091324214845,52.354337899225015 164.85722983263994,52.982648401508655 171.21826484032826,56.78173515964791 178.35007610357988,61.75464231359895 180.72511415540373,63.1476407912398 187.30167427717603,69.19208523576197 187.49710806705798,70.22465753437888 187.34672754962662,71.69071537267781 187.37351598182195,71.75890410943234 187.4234398783938,71.87579908667396 187.45022831058913,71.93424657511333 187.4678843228383,71.96834094338173 187.51537290724065,72.01704718415914 187.62130898037267,72.12420091308562 187.66940639277996,72.20700152213143 187.67975646888462,72.24109589032724 187.69619482512158,72.28006088257177 187.66575342481715,72.33363774703501 187.63774733646449,72.362861491545 187.49954337915491,72.5235920850073 187.48066971089244,72.55768645349342 187.45388127869825,72.82557077631765 187.4362252664491,72.89375951307217 187.3936073060229,72.94246575312381 187.3595129376819,72.99604261802251 187.27123287687047,73.27853881270256 187.24444444460482,73.35159817336063 187.23165905640326,73.41978690989743 187.22800608836673,73.49284627099097 187.23835616447025,73.5512937592126 187.28401826492689,73.59999999999002 187.31202435335214,73.62435312037873 187.38630137002238,73.7315068493052 187.47031963479006,73.8922374426949 187.4855403349423,73.9263318109633 187.4958904110458,73.96042617944943 187.493455099094,74.22343987829753 187.4855403349423,74.28675799093077 187.5585996956718,74.3939117196395 187.6042617961296,74.44748858432047 187.6353120245127,74.5010654487837 187.65540334871363,74.55951293744081 187.65662100472582,74.62283105000147 187.63287671241577,74.67640791468244 187.53789954346593,74.7738203958018 187.45996955868657,74.84687975624215 187.48858447504531,74.90532724511698 188.59665144605435,75.50441400310835 190.97534246584328,76.7951293757263 191.18599695595,77.710806697029 191.15920852368208,77.73515981719999 191.22678843235795,77.87640791483031 191.25844748874715,77.96407914756195 191.24200913251016,78.15890410951036 191.2280060884427,78.4754946728217 191.24444444453454,78.51445966506621 191.25601217665022,78.57290715365075 191.2602739726917,78.6946727548685 191.25601217665022,78.76286149140529 191.30228310511183,78.8213089800624 191.34063926949656,78.87488584452564 191.3430745815209,79.06971080669179 191.39908675808107,79.22557077639567 191.41856925427592,79.2547945204702 191.4301369864642,79.3132420091273 191.45022831066512,79.37168949749409 191.50380517512835,79.42526636217507 191.60487062413796,79.47397260251701 191.64079147649832,79.48858447480829 191.8063926942282,79.50319634680928 191.84474885853695,79.50319634680928 191.88310502299424,79.5080669707854 191.9829528159928,79.56651445966024 192.17777777786864,79.67366818858672 192.21491628624005,79.69802130897541 192.2940639271042,79.76621004572995 192.32389649940254,79.79056316582835 192.3555555556466,79.8490106542677 192.4730593608217,80.01461187185129 192.5394216134854,80.09741248089709 192.5929984780938,80.13637747306905 192.62343987839822,80.15585996948163 192.64901065465395,80.18021308987032 192.67884322695232,80.19969558613775 192.71415525130547,80.21430745792098 192.79208523601338,80.21917808211485 192.83409436843237,80.21917808211485 192.94916286158315,80.24353120250356 193.03378995450208,80.25327245060099 193.07701674286182,80.25327245060099 193.19695586013273,80.28249619467552 193.35403348570478,80.34581430723617 193.52511415534318,80.40426179589328 193.63592085245133,80.4578386603565 193.66940639278621,80.47732115655134 193.9245053273374,80.53576864520845 194.00487062414115,80.55525114162103 194.0432267885973,80.56012176537942 194.07914764095653,80.56986301347685 194.16499238981507,80.63805175023137 194.20578386622302,80.69162861469461 194.21978691029048,80.72572298296299 194.31902587528296,80.83287671210721 194.34459665153983,80.85722983227818 194.40365296820187,80.89619482495817 194.43409436850632,80.91567732115301 194.47366818882952,80.93028919344431 194.55403348563323,80.93515981713013 194.5990867580838,80.93515981713013 194.63987823449176,80.94003044154172 194.69589041105192,80.98386605790753 194.7470319635634,81.03744292237077 194.77260273981912,81.06179604275948 194.88888888898208,81.16894977146822 194.91689497733472,81.19817351576049 194.98082191790147,81.28097412480629 195.02039573829725,81.39786910204792 194.98691019803493,81.51963470326568 194.93820395747525,81.61217655997345 194.88340943692728,81.69984779270507 194.83896499248166,81.75342465738605 194.80974124826423,81.77777777755702 194.78417047200736,81.87519025860381 194.87732115686637,82.18691019757611 194.95646879772937,82.41582952793809 195.0532724506986,82.44505327252065 201.68767123297567,83.46301369862854 205.65844748868682,82.82983257215103 208.03348554043922,81.96286149133543 208.99604261813818,81.69497716872894 210.38417047194807,81.78264840196861 210.79269406403364,82.04566210038125 210.91750380535441,83.16590563172979 210.34033485558226,83.97929984757411 209.63957382057404,84.52968036522354 210.14672754964488,85.12876712299719 212.13942161350093,85.77168949757211 213.93972602750665,85.99573820381279 214.33850837156737,86.85783866043452 215.01369863039244,87.70532724498271 215.519025875301,88.34337899543635 216.03652968047646,88.99604261789096 216.14490106563284,89.41491628600748 216.18812785399257,89.62435311995687 216.39634703207494,91.24140030427387 216.28919330300332,91.41187214626905 215.80943683427793,91.62130898021844 215.24748858458537,92.02070015235785 214.61248097430735,92.5126331809147 214.04200913252956,93.1799086756606 213.53911719950023,94.03226788418492 213.37838660596535,94.5534246575421 212.79086758008967,97.24200913221249 212.78721461198054,97.62191780837479 212.76651445977353,98.7031963468256 212.700152207255,99.30228310503472 212.58508371395908,99.57016742785893 212.2252663623606,99.89649923883222 211.72846270939212,100.24718417041194 210.35068493168689,101.01187214620464 209.99817351608777,101.44048706249114 208.14855403366258,104.4066971080832 207.7905631660109,104.99604261790458 205.93181126349327,108.06453576873727 205.36621004576418,108.926636225359 204.55768645367826,109.53059360732652 203.6474885846481,110.16864535748984 203.04109589051106,110.80182648374961 202.94672754956616,111.01613394232834 202.20761035024807,111.98538812765882 202.08340943693338,112.29223744287273 201.85266362269832,113.2371385081048 201.94459665154514,114.04566210026331 202.56377473373746,114.97595129363957 203.16894977178973,115.85753424667388 203.62191780839237,117.19695586006924 203.61826484035583,118.67762557094977 203.4191780823648,119.47640791472054 202.63257229849694,120.9668188736985 202.42313546433095,121.4246575342047 202.19299847802938,121.93120243534315 201.55372907163613,123.90867579890184 201.13972602749575,126.08584474896568 201.10136986318474,127.12815829502682 201.0721461188199,127.63957382028657 200.84627092856095,128.04383561654726 198.61674277026378,130.20639269395693 195.56407914773453,133.2651445966922 195.4404870624985,133.3138508369616 191.51537290724403,135.65175038027 189.24627092855224,137.22009132402732 187.27123287687047,139.1098934551447 185.44292237451438,142.86027397250652 184.8925418570101,143.79543378978633 182.8048706242042,145.46605783885687 181.76438356172585,146.712937595109 180.5589041097426,147.50684931497622 179.69741248105439,148.1887366820134 176.3866057839435,150.86757990880412 175.98173515996703,151.2280060880458 173.61461187222122,152.3044140030285 170.0980213090523,154.0627092845404 167.97747336384504,155.16347031962152 167.47701674284002,155.76255707761288 167.38751902601757,156.30319634723747 167.32602739740258,156.66849315089075 166.54611872153026,160.0340943683319 165.9305936074482,160.35555555540162 165.8538812786073,160.39939117198517 165.36377473385096,160.6624048706881 164.99360730600384,160.98386605797558 163.7552511416918,162.19178082205576 162.8998477930656,162.6788432269268 162.07853881284953,163.2876712330156 161.696803653033,163.55555555554952 161.12998477936432,163.65296803666888 160.76347031969885,163.61400304398887 160.38295281589336,163.50197869086853 159.87884322692327,163.46301369869659 159.45083713857142,163.4484018264053 159.0831050228938,163.4922374427711 158.6849315069117,163.59452054801176 157.75281582966232,163.57503805181693 157.14277016756137,163.4824961946737 156.39452054800566,163.39969558584562 155.7211567732703,163.37047184155335 155.0794520549264,163.4240487060166 154.49802130903905,163.51171993896597 153.74490106557977,163.8672754945218 152.68675799092486,164.25692541834607 152.27275494685705,164.33485540319802 151.46179604274678,164.40791476407384 150.77382039579388,164.46149162882736 150.03957382045078,164.4712328769248 149.3528158295826,164.4712328769248 148.63257229837842,164.58325723004512 148.00547945218068,164.6757990866803 147.68280060888102,164.72937595114357 147.17990867592425,164.9144596652123 146.64718417059657,165.26027397259813 146.55525114167716,165.42587519039944 146.13515981740332,165.93242009153792 146.03835616450777,166.58021308958092 145.61582952828215,167.3595129376649 145.33211567744476,168.20700152199535 145.10197869107063,169.03500761034869 144.9181126332318,169.3905631656868 144.4840182648905,169.90684931514042 143.2651445967007,171.05631659056348 141.624353120364,172.67823439856633 141.6188736683092,172.7756468796131 141.58599695590894,173.36012176582125 141.53363774738418,174.694672754805 142.04809741252922,175.1573820397228 145.42526636230377,177.71445966529575 147.5872146119251,179.50197869117247 149.21582952821262,181.36255707770724 153.0709284627669,186.68614916302027 154.75007610355865,188.6733637748941 155.1786910198452,189.82770167407557 155.24627092859475,194.48888888883658 150.65266362258106,195.95494672757098 149.26331811268756,196.627092846293 148.99238964997917,197.47945205481733 148.4779299849056,200.33363774728903 147.8295281584936,201.1324200913501 146.94368340948924,201.65357686470728 145.35098934556095,202.08219178070348 145.1190258753137,202.14550989326415 141.70593607310843,203.217047184053 138.44383561648354,204.64414003068802 128.40791476426094,200.63561643859938 126.87975646890548,200.0949771689748 125.57077625581456,199.56894977149634 123.41187214615111,198.6727549466062 122.98386605794326,196.5832572299272 122.30989345513038,195.59452054789384 118.80121765604065,194.08949771669717 118.76834094371185,194.07488584462362 117.39178082201765,196.18873668190906 113.77960426189281,201.02039573822978 110.51506849317211,205.34550989341201 110.36042617969699,207.11841704699745 110.02861491630715,209.9238964994175 109.87397260283318,211.2925418568874 109.94520547961814,212.5199391171624 110.14490106547011,214.34155251145268 110.20821917817592,216.08523592074584 110.28006088296812,218.2429223743971 110.45601217665407,220.15220700170931 110.61856925427978,221.27245053276755 110.79573820405162,222.1978691020225 111.05266362254851,223.57625570758984 111.31445966523927,224.75981735149904 112.05722983259503,227.20487062395165 112.61796042627539,228.94855403346253 112.92785388137459,230.1126331811769 112.96255707772164,230.24414003049208 113.32663622529017,231.40821917820642 113.8843226788675,232.56255707753306 115.15981735169612,234.29162861475265 116.06879756478669,235.5969558598796 116.73789954347828,236.43957382030652 117.3674277017741,237.06788432259017 118.23074581433544,237.96894977167418 116.55829528160838,240.03896499237607 99.68219178083412,256 98.24474885853105,255.53729071529995 89.85753424665177,254.11993911705264 86.70867579908793,252.444444444514 78.2654490107222,244.52480974145607 77.85022831049592,244.2471841705344 73.02648401825438,241.9531202433741 69.31750380516142,240.52115677327097 67.08919330287641,239.69315068513538 66.47914764084801,239.46910197896727 65.94703196352641,239.2499238964124 65.4051750380348,238.99178082219365 64.98934550987615,238.75312024344396 64.58691019792404,238.4852359210552 64.24231354647777,238.22709284640098 64.09802130896215,238.0614916288174 64.04566210043964,237.74490106565122 64.0888888889434,237.48188736680314 64.14490106550244,237.23348554039148 64.19238964990478,237.0386605782979 64.20882800607032,236.5710806696217 64.22404870622253,236.16681887379647 64.26118721466653,235.16347031968957 64.32024353118456,234.88584474905824 64.4237442922911,234.6374429222111 64.6264840183198,234.25753424648428 64.96133942166864,233.78021308971066 65.28158295287135,233.32724505332575 65.66818873681146,232.79634703187116 65.81248097410821,232.5820395740182 66.27762557076005,231.9196347034662 67.14581430744268,231.27184170469738 67.69619482501953,230.9406392693125 68.155859969544,230.71659056307183 68.5345509894038,230.5071537289047 68.96255707761165,230.36590563170984 70.16803652974005,230.19056316602882 71.1445966514339,229.98112633207944 72.00000000013381,229.77656012159815 72.37929984785455,229.6791476407691 72.95768645363891,229.46484018284357 73.39299847791983,229.24079147667547 73.66088280059776,228.98751902606995 73.85936073058384,228.51506849305474 73.99573820394774,228.15951293749887 74.23439878233455,227.6578386608446 74.63561643834707,226.99543379000224 75.00943683408559,226.2453576862831 75.14337899542512,225.8070015221895 75.1829528158209,225.31019786922104 75.21887366818014,224.87184170461936 75.22557077631969,224.67214611854965 75.10624048705371,223.87336377492406 74.98386605782986,223.23531202432525 74.83835616437463,222.66057838650485 74.71963470318732,222.18812785414283 74.54063926946979,221.62800608810568 74.4109589041003,221.04840182659945 74.32511415524178,220.66362252667875 74.27640791482726,220.11811263344092 74.28919330288254,219.48493150696342 74.36955859968626,218.97838660589753 74.48340943682487,218.59360730597683 74.64718417053533,218.1162861492032 75.41917808225593,216.5382039573485 81.62313546430077,208.36529680368503 73.3509893454997,206.53881278541863 73.88066971086954,204.9509893456842 73.91415525113185,204.92663622507777 73.9421613394845,204.89741248122098 73.9652968036433,204.86331811273485 74.14246575341514,204.5710806695219 74.285540334846,204.29832572301186 74.42070015219772,204.0012176561131 74.54490106543983,203.71872146099759 74.5564687976281,203.60669710787727 74.54246575341548,203.5433789953166 74.56621004572553,203.27062404880655 74.59178082198125,203.19756468785815 74.71841704724773,202.9004566209594 74.86636225272616,202.58873668176935 74.98751902593897,202.30136986296802 75.10502283118669,201.9993911718754 75.22557077631969,201.69254185687922 75.30289193316554,201.38569254188306 75.37351598179927,201.07884322688687 75.46301369862174,200.7719939116004 75.59025875196689,200.4797564688955 75.73455098933735,200.19726027378 75.88554033492107,199.91476407917253 76.0359208523513,199.6371385084686 76.20334855402572,199.35464231357082 76.37564687974886,199.0818873666253 76.5363774733563,198.8188736682127 76.71537290714754,198.52176560131392 76.87975646886295,198.229528158101 77.0307458143004,197.95677321180867 77.10319634709754,197.79117199400736 77.14824961954811,197.79117199400736 77.14581430745118,197.49893455079444 77.14824961954811,197.17260273974858 77.1555555555486,197.13363774714117 77.17138508370691,197.09467275518693 77.19147640790784,197.05570776250696 77.38325722982582,196.7829528159969 77.56164383560983,196.52968036546395 77.7418569254847,196.26179604263973 77.93850837137879,195.99391171981551 78.07366818873051,195.70654490101415 78.1339421614796,195.40456620992154 78.18630136985693,195.10258751904666 78.2654490107222,194.8152207000276 78.34824961947656,194.527853881444 78.39695586003624,194.23074581410975 78.4237442922327,193.92876712352518 78.48097412480391,193.7388127855529 78.64170471841136,193.4709284627287 78.80913242008577,193.19817351621865 78.96864535768104,192.92541856920053 79.1287671232824,192.65266362269048 79.25479452061535,192.3799086756724 79.31506849321815,192.07792998487008 79.31385083713225,191.79056316606875 79.25722983256713,191.77595129355973 78.85662100456071,191.70776255702293 78.76955859969,191.75159817338877 78.63439878241087,191.76133942148618 78.32146118728123,191.76621004568005 77.66027397266879,191.76621004568005 76.65144596657966,191.91719939097234 76.16012176566599,192.01461187201912 75.62374429222919,192.20456621020912 75.26210045668616,192.3652968036714 74.54246575341548,192.59421613381565 73.9652968036433,192.62831050208405 73.0240487063026,192.75981735139922 71.94642313545171,192.96925418556634 71.2237442923706,193.1445966514651 70.20213089808102,193.71933028906776 69.7582952815697,194.04079147657296 68.69954337898129,194.84931506851373 67.63348554032093,195.50684931494447 66.72450532722922,196.0913242008623 66.46757990866088,196.29589041112587 66.31415525112537,196.37869101966362 66.12298325728607,196.44200913244202 65.88188736680233,196.44687975641816 65.3875190259308,196.45175038061203 64.91141552516936,196.44200913244202 64.21308980211293,196.46149162870944 63.993302891987454,196.49071537278397 63.801522069996906,196.53455098914978 63.54642313551828,196.641704718294 63.33698630135115,196.77321156789947 63.15433789952451,196.92420091319175 62.69832572303658,197.37716894957669 62.41765601215707,197.55738203966928 62.21613394214168,197.64992389652218 62.05357686451597,197.67914764088704 61.79299847790996,197.7278538811564 61.41796042615926,197.8009132421048 61.11537290720571,197.8447488584706 60.866362252642816,197.90319634705511 60.638051750359516,197.98112633168935 60.47184170476985,198.068797564929 60.30684931504721,198.2003044142442 60.14246575347581,198.3707762555136 59.84901065446843,198.72146118738362 59.693150684909696,198.92115677345333 59.16834094373373,199.61278538807989 58.70319634700932,200.19726027378 58.52054794518268,200.42617960443226 58.330593607355546,200.52846270916487 58.163165905681126,200.57716894972455 57.7856925418335,200.62100456609036 57.51841704723309,200.62100456609036 57.15190258749619,200.52846270916487 56.64292237440482,200.3531202434839 56.277625570751546,200.17777777758513 55.7308980212838,199.91963470307607 54.945509893429254,199.671232876737 54.321461187188234,199.52511415513052 53.38691019784193,199.38873668205696 52.7726027396972,199.38386605793568 52.238660578358456,199.38873668205696 51.85327245050425,199.43257229820503 51.5458143074294,199.52024353137213 51.31567732112784,199.6517503807599 51.196955860013105,199.76377473380765 51.07823439875321,199.95372907134447 51.02587519037473,200.1144596652422 50.97351598177851,200.2800608828258 50.91263318116963,200.58203957384583 50.852359208566845,200.8109589042804 50.70806697105122,201.0885844749843 50.582648401869506,201.2200913242995 50.078538812755404,201.69254185687922 49.7528158294979,201.99452054797186 49.4593607305631,202.18447488594413 49.19512937592056,202.35494672743127 48.96133942158246,202.43774733647706 48.69345509890452,202.515677321329 48.426179604230406,202.64718417042647 48.269101978732074,202.78843226783906 48.0103500761432,202.95403348542263 47.675494672795494,203.24627092863557 47.27366818870431,203.5872146116824 47.07153729068283,203.6992389650205 46.86331811260046,203.76255707758114 46.47184170468537,203.78203957399373 46.20456621008496,203.79665144584953 45.90502283108927,203.81126331814082 45.74794520551836,203.85996955862794 45.57503805178914,204.08401826465087 45.55494672758821,204.1619482495028 45.53181126328426,204.26910197886477 45.52450532728377,204.43957382020673 45.46910197872969,204.67336377476255 45.32663622530492,204.88767123312354 45.28645357690305,204.92176560110164 45.18356164380033,205.00456620992972 45.03805175041882,205.1019786909765 44.89984779296409,205.1750380519249 44.69284627096648,205.28219178085135 44.484627092884104,205.38447488609202 44.27031963466827,205.46727549462977 44.00730593611049,205.56955859965268 43.77899543382719,205.64748858450463 43.397260273938066,205.77412480962596 43.18782343984239,205.87640791464887 43.02161339418015,205.9786910196718 42.87123287674879,206.07123287681503 42.65936073062989,206.2027397261302 42.482800608791564,206.3196347031541 42.233789954301244,206.50958904090865 42.06636225262569,206.636225266538 41.852054794556146,206.78234398785415 41.655403348516884,206.92359208533932 41.38508371388603,207.07945205504322 41.16407914760209,207.19634703184937 40.631354642275525,207.43013698640522 40.18873668199413,207.61035007628007 39.63713850833252,207.88310502279012 39.0824961948582,208.13637747332308 38.72146118724755,208.29710806722082 38.31659056327107,208.47732115658764 37.872146118681094,208.66727549455993 37.473972602771596,208.82800608845767 37.14581430741716,208.96438356145867 36.622222222180795,209.2079147638942 36.18325722979077,209.41735159806132 35.79908675802132,209.6073059360336 35.559817351629555,209.7339421614452 35.2140030440974,209.90928462712623 34.82617960421884,210.09436834090465 34.42252663618196,210.30380517485403 34.1162861491193,210.45479452065436 33.910502283061284,210.56681887370212 33.63226788435015,210.78112633162766 33.50684931516844,210.94672754942897 33.39178082187363,211.22435312013286 33.335768645313465,211.29741248100868 33.21217656015001,211.40943683412902 33.04961948252431,211.5263318114432 32.89680365299601,211.62861491646615 32.655098934506185,211.76986301387873 32.38599695581494,211.90624048709748 32.22404870619532,211.98904109570782 31.956773211522336,212.1010654490459 31.83318112628631,212.21308980216622 31.67853881281233,212.39817351594465 31.5945205478995,212.510197869065 31.51902587514449,212.63196347028276 31.428310502237256,212.82191780825502 31.342465753378736,213.02161339432473 31.206088280014846,213.4697108065158 31.13850837133899,213.90319634692358 31.114155251094303,214.21491628611363 31.05022831052869,214.53637747340107 30.93942161342053,214.89193302895694 30.83957382034939,215.08675799083278 30.64170471837053,215.43744292241252 30.45540334850736,215.76864535786996 30.22161339416926,216.04627092850131 29.999391172019426,216.3969558601536 29.889802130850864,216.6794520549788 29.69923896494507,217.0593607304879 29.43135464233858,217.5756468796512 29.210350076055768,218.0578386606187 29.072754946679698,218.725114155292 28.94003044142492,219.1683409435795 28.71111111113553,219.76255707766734 28.283713850788615,220.3275494673903 27.66453576859631,220.9022831052107 27.444748858398253,221.06301369881817 27.206088280011443,221.17503805172075 26.946727549562773,221.25783866076657 26.760426179554443,221.31141552522982 26.543074581380743,221.35525114159563 26.130898021258627,221.43318112644758 25.707153729093402,221.52572298330048 25.472146118670548,221.67184170490697 25.304718416996128,221.84231354646667 25.263926940588178,221.954337899587 25.195129375973856,222.1199391173883 25.10076103495638,222.25144596648576 24.79147640786327,222.5436834096987 24.673972602688135,222.67519025901387 24.392085235869022,223.00639269418102 24.194216133890162,223.1963470321533 23.874581430693542,223.47884322676077 23.799695586017197,223.585996955905 23.760121765621427,223.746727549585 23.719939117292142,223.93668188755728 23.593911719885472,224.24353120233573 23.468493150632312,224.51628614906352 23.14703196341743,224.92054794539678 22.489497716841527,225.66575342470432 22.311719939063597,225.8167427702869 22.093759512883807,225.9774733636766 21.917199391190636,226.08462709311115 21.730898021327462,226.22100456611213 21.64140030435983,226.3427701673299 21.493455098880254,226.53759512949605 21.400304414020113,226.66910197881123 21.340030441418456,226.790867580029 20.94307458144856,227.41430745840907 20.82070015215213,227.52633181145683 20.682496194769975,227.57503805158106 20.585692541801855,227.5945205477759 19.886149162804692,227.54581430772424 19.58112633175534,227.51171993923813 19.26149162855872,227.51171993923813 18.99360730587965,227.51171993923813 18.84687975641225,227.54094368331266 18.67458143068912,227.71141552530784 18.60273972597064,227.8964992388685 18.41522070009529,228.3105022832992 18.173515981750615,228.6027397260041 17.632267884263964,229.00700152233736 16.686149162875683,229.5038051750881 16.49619482490227,229.6694063928894 16.305631659070183,229.9275494673259 16.074885844689952,230.1808219179314 15.880669710820204,230.2879756468579 15.050837138448594,230.76042617943764 14.67762557078874,230.9065449010441 14.387823439890472,230.97473363779864 14.14550989346713,231.05266362265058 13.808219178021359,231.1695585998922 13.475190258763364,231.46666666657322 12.734855403359385,232.5674277015092 12.012176560059403,233.46849315081093 11.52146118722441,233.8240487062942 11.332724505264306,233.71202435324645 10.983866057848003,233.57077625576127 10.634398782353033,233.45388127851965 10.255098934487133,233.33211567730189 9.860578386541592,233.22009132418154 9.490410958839604,233.08858447486637 9.14398782337621,232.96194824967247 8.74703196347776,232.87427701694082 8.58508371385814,232.86940639281954 8.38721461187928,232.89375951320827 8.031050228317334,233.0350076104031 7.680974124816274,233.1470319637412 7.359512937528811,233.16164383552444 7.287671232810332,233.151902587427 7.217656012110121,233.13242009123218 7.15251141545862,233.10319634715765 6.935159817357497,232.9716894977699 6.611263318118256,232.78660578377372 6.570471841710307,232.7719939119905 6.387823439883667,232.73789954350437 5.968949771621997,232.7427701674079 5.542161339353749,232.7427701674079 5.2675799086077015,232.69893455082436 4.849315068424697,232.62587519038402 4.415220700083384,232.5674277015092 4.002435312027758,232.55281582943564 3.6079147640822162,232.528462709555 3.569558599626044,232.51385083726367 3.5342465752728938,232.4992389649724 3.5019786909501875,232.47975646877757 3.4544901065478393,232.43105022821788 3.4356164383590864,232.3823439879485 3.5098934550293417,232.0657534245646 3.5439878233703146,231.7735159818597 3.499543378925832,231.60791476427613 3.464840182651349,231.5494672754013 3.238964992319827,231.2961948250861 3.044748858448944,231.02831050226186 3.0319634702496354,230.96499238970122 3.028310502285681,230.86270928446055 3.0027397260299513,230.79939117211762 2.977168949701644,230.7701674277528 2.945509893383892,230.7409436832428 2.9083713850136097,230.71659056307183 2.8687975646178376,230.69710806687698 2.7372907153026573,230.65327245051117 2.3232876712348527,230.62404870643664 2.190563165834917,230.6435312026315 2.147336377402612,230.65327245051117 2.1101978691037733,230.66788432280245 2.0742770167445346,230.68249619502117 2.041400304343161,230.7019786912886 1.8715372907169647,230.86270928446055 1.786301369864533,230.92115677333538 1.7388127853170288,230.9455098937241 1.6901065449013688,230.9503805174099 1.587823439879585,230.9503805174099 1.542161339422925,230.93089802143282 1.503805174967887,230.8968036529467 1.473363774662313,230.848097412387 1.4538812784674713,230.79452054792378 1.4210045662112543,230.49741248080727 1.397869101907302,230.19056316602882 1.316286149091403,229.9031963472275 1.3138508371396258,229.85936073086168 1.3187214611883362,229.8203957381817 1.428310502211742,229.62557077630586 1.6456621003854428,229.34794520560195 1.6913242008421026,229.06057838680061 1.6852359208537926,229.01674277021706 1.6724505326533499,228.97777777797253 1.6572298325011299,228.93881278558285 1.6353120242819332,228.90471841709672 1.6109589040383812,228.8754946730222 1.3327245052558006,228.65144596656378 1.0672754946010847,228.4371385082028 0.8742770166698017,228.14977168940146 0.834703196275164,228.1010654490595 0.810350076031612,228.0621004564521 0.7890410958185041,227.97929984784173 0.7123287670513155,227.8380517502114 0.6112633180405751,227.52146118733555 0.6100456620283975,227.48249619487328 0.6277016742049727,227.42404870650648 0.6624048705520341,227.3753424657291 0.843835616366496,227.2243531204368 1.153729071465694,227.0343987824645 1.3503805175049537,226.94672754951515 1.5050228309789304,226.83957382029837 1.6888888888903253,226.68858447478834 1.7339421612683183,226.65936073071381 1.774733637676268,226.63013698634896 1.8112633181141737,226.6106544899364 1.8459665144601012,226.60091324183898 1.8843226787711174,226.56681887357058 2.0042617960443225,226.4255707763757 2.0310502282396516,226.36225266381504 2.045053272452272,226.21126331801472 2.0079147640082775,226.08949771679696 1.8879756468824962,225.8070015221895 1.8039573819685302,225.50989345529072 1.708371385012589,225.2176560120778 1.6085235920866041,224.93028919327648 1.4898021308267104,224.608828005989 1.481887366820134,224.53576864554867 1.491019786911466,224.22404870635862 1.4691019786196913,224.136377473627 1.4386605783152515,224.08767123284957 1.3954337899555247,224.04383561626602 1.289497716896074,223.96103500765568 0.9649923897233226,223.81004566192792 0.5984779299852884,223.68340943702435 0.5357686452866982,223.64931506875595 0.20517503797934694,223.48371385095464 0.15281582952828826,223.44474885827464 0.11445966507211605,223.40091324190882 0.0992389649198961,223.357077625543 0.0955859969570753,223.18660578376557 0.05966514452412424,222.85540334859843 0,222.55829528148192 0.05479452047541385,222.22709284609704 0.03287671225621713,221.99330289175896 0.08280060875549856,221.8374429222728 0.2331811263320096,221.564687975545 0.3549467275497692,221.29193302903496 0.36347031956243436,221.06301369881817 0.3378995433078389,220.93150684928526 0.3391171993914604,220.6295281581926 0.3226788431544849,220.33729071548774 0.33181126324468285,220.29832572302547 0.3458143074584372,220.26423135453933 0.3646879756471899,220.23013698656126 0.3890410958181639,220.19604261807513 0.44931506842095487,220.13759512941803 0.7068493149965164,219.8940639269825 0.9570776254990123,219.64566210035312 0.9869101977973634,219.60669710818118 1.0082191780104715,219.5677321157189 1.0313546422418456,219.4898021310847 1.045357686454466,219.37290715362533 1.0581430745097529,219.3339421613808 1.2511415524399017,219.05631659074947 1.4898021308267104,218.8322678845088 1.7704718417062242,218.59847792995296 2.0401826484035617,218.33546423154033 2.283713850840215,218.11141552508192 2.5114155251174255,217.8337899541603 2.668493150687201,217.54642313535894 2.7001522070763966,217.50258751899312 2.7397260273995903,217.46362252653088 2.867579908750816,217.35159817370084 3.0654490107296755,217.08858447478016 3.1792998477219907,216.80121765619657 3.4124809740551343,216.5235920852749 3.5951293758817737,216.22648401815843 3.675494672685495,216.12907153711166 3.8873668189495523,215.86605783869902 4.104718417050675,215.57382039570382 4.1479452054104025,215.48614916275446 4.1595129375986675,215.44231354638865 4.152207001453023,215.1305936071986 4.158295281513912,215.09162861502665 4.172298325653954,215.05266362234664 4.191780821993952,215.0136986301747 4.242313546426744,214.94063926944406 4.41765601210774,214.67275494691015 4.57229832579945,214.39025875179462 4.693455098939677,214.08340943701617 4.880974124813893,213.78630137011743 5.094063926944972,213.5232876714145 5.375342465685419,213.27975646897897 5.699238964924659,213.0703196345941 5.730289193235188,213.04109589030185 5.752815829533051,213.01187214622732 5.775951293691848,212.94855403337635 5.779604261800959,212.85601217674116 5.76864535769136,212.79756468786633 5.745509893387408,212.73911719920923 5.5859969558647204,212.51506849318628 5.304718416979118,212.28127853892076 5.040487062335446,212.02800608831524 4.79695585990106,211.78934550985585 4.578386605715182,211.52146118703163 4.431659056247782,211.24870624052159 4.3305936072370415,210.96133942172025 4.247792998408965,210.72267884340602 4.227092846274524,210.66423135482148 4.166210045665644,210.5814307457757 4.108371385013496,210.53759512919214 4.426179604191849,210.36225266351113 4.672754946731524,210.12846270917302 4.885844748862603,209.85570776266297 4.977777777782012,209.66088280049684 5.161643835548251,209.38325723001066 5.1951293759557124,209.34916286152452 5.352207001526622,209.25662100467162 5.691933028924171,209.12024353116257 6.0797564687301575,208.97412480977383 6.443835616442703,208.81826484006993 6.778082191786587,208.6526636227041 7.296803653046821,208.58934550970798 7.332724505260904,208.57960426161054 7.383257229766274,208.5747336376344 7.617047184104372,208.428614916536 7.654185692474655,208.4042617961473 7.872754946661668,208.31171993900406 7.915981735093972,208.29710806722082 8.02800608821431,208.21917808236887 8.339726027331775,207.9951293761282 8.44322678843945,207.93181126356754 8.666666666746616,207.7954337900585 8.714155251076386,207.72237442911012 8.736681887373116,207.4203957383078 8.735464231289495,207.11841704699745 8.800608827940996,206.86027397248836 8.922374429158754,206.54855403351607 9.04596651446736,206.261187214497 9.185388127789116,205.9786910196718 9.343683409372202,205.7108066970653 9.569558599703726,205.45753424653236 9.783866057774404,205.2091324201207 9.987214611808062,204.92663622507777 10.002435311960282,204.89254185680937 10.01887366812468,204.62952815839674 10.026788432203835,204.5710806695219 10.26666666660282,204.03044140018764 10.456621004575103,203.69436834082663 10.518112633190071,203.59208523609402 10.536986301378825,203.5433789953166 10.542465753433625,203.217047184053 10.542465753433625,203.10015220681137 10.534550989280758,203.06605783854297 10.496194824898298,203.03683409446845 10.403044139966712,202.9783866055936 10.229528158231403,202.72511415527842 10.200304413939142,202.6861491630339 10.128462709220663,202.6082191779642 10.045662100465165,202.53028919333 9.903805175046475,202.43774733647706 9.838660578467552,202.37442922391642 9.8057838659936,202.3062404871619 9.804566209981424,202.2672754944819 9.860578386541592,202.0968036532125 10.006088280141972,201.88736681904538 10.076103500769605,201.79482496190215 10.110806697116667,201.7120243532918 10.127245053281063,201.64383561660986 10.14550989339115,201.60974124834146 10.504109588977451,201.3808219176892 10.602130897957748,201.3321156774198 10.705631659065421,201.30289193305498 11.11293759506625,201.22496194842077 11.165296803589886,201.21035007620205 11.220091324137877,201.18599695581335 11.26392694064885,201.14703196335108 11.358295281520036,200.89375951281815 11.363165905568746,200.57716894972455 11.363165905568746,200.53333333335874 11.27549467269196,200.2800608828258 11.136073059370203,199.96347031965962 11.035007610359461,199.6566210044457 11.027701674213818,199.36925418564437 11.05205479445737,199.30593607308373 11.2243531201805,199.03805175025948 11.24200913235594,198.99908675801495 11.253576864545341,198.96499238981914 11.27366818874627,198.6289193302404 11.324809741257729,198.5022831050465 11.43074581431718,198.2100456621239 11.533028919340099,198.02496194827287 11.589041095972846,197.92267884332256 11.637747336315927,197.83987823427674 11.666971080607055,197.60608827993863 11.672450532661856,197.54764079157184 11.713242009069804,197.46484018252605 11.728462709222024,197.24566210047922 11.736377473301179,197.2066971082347 11.810045662037924,197.07519025891952 11.82952815823163,197.0459665144095 11.85631659057325,197.016742770335 12.164992389587692,196.802435311974 12.207001522080397,196.77321156789947 12.244140030379237,196.7342465752195 12.282496194834275,196.641704718294 12.34520547939111,196.32998477939427 12.353120243469132,196.28127853861685 12.36955859970724,196.24231354666261 12.823744292175771,195.82343987825578 13.036225266300763,195.5847792997964 13.130593607317104,195.50684931494447 13.172602739664653,195.41917808221282 13.187823439816873,195.34611872148218 13.200608828017316,195.29741248099506 13.203044139969093,195.09771689492538 13.187823439816873,194.79086758014694 13.185388127865096,194.42070015208205 13.191476407925984,194.3525114153275 13.32420091332592,194.06514459652618 13.517199391110912,193.74368340923874 13.562252663634062,193.6998477928729 13.637138508382984,193.64627092840968 13.706544901004529,193.60730593623774 13.900152206940767,193.41248097407157 14.131506849255643,193.16894977163605 14.339726027336878,192.896194825126 14.376864535708295,192.85722983244602 14.508371385023475,192.77442922390824 14.542465753364448,192.75494672771342 14.578386605723688,192.7305936073247 14.608828006028126,192.7013698631776 14.670319634643096,192.55038051744984 14.684322678783138,192.41400304415853 14.728767123300198,192.34094368328272 14.76834094369597,192.2873668190372 14.792694063866945,192.22891933016237 14.80913242010392,192.16560121781944 14.841400304354048,192.08767123296752 14.859056316530623,191.95129375945845 14.859056316530623,191.9025875191891 15.016133942101533,191.74185692529133 15.073972602752546,191.6882800608281 15.201217656025106,191.483713851 15.220700152219948,191.44961948251387 15.239573820336123,191.17686453556834 15.238356164323944,190.8748858449112 15.256012176574231,190.55829528138213 15.312633181139356,190.23196347033627 15.421004566150584,189.92511415512237 15.552511415465764,189.6280060882236 15.632876712269486,189.3357686452284 15.74672754940809,189.0532724504032 15.902587518966822,188.78538812779672 16.069406392635152,188.51263318128667 16.227701674218242,188.23987823426856 16.392694063940883,187.95251141568497 16.46027397254303,187.66027397276235 16.497412480915578,187.36316590586358 16.584474885786275,187.06118721455323 16.736073059301255,186.76894977155803 16.81400304415433,186.5595129373909 16.929071537232534,186.35007610344152 16.947945205421288,186.30624048685797 16.964383561585688,186.22343987832022 16.977168949858708,186.15525114156569 17.009436834036258,186.1211567732973 17.042313546436496,186.05296803632504 17.06301369864465,185.99939117207953 17.25053272452,185.75098934566788 17.480669710748987,185.48310502284366 17.756468797507214,185.21522070030974 17.936073059449697,184.94246575329166 17.948858447431274,184.89863013714356 17.956773211510427,184.85479452034227 17.957990867522604,184.53333333349028 17.95555555557083,184.2118721459851 17.953120243475027,183.8952815828915 17.95007610351603,183.5592085237482 17.956773211510427,183.52024353135852 18.05114155252677,183.36438356165465 18.26423135465785,183.10624048692782 18.488888888904615,182.82861491644164 18.609436834110195,182.51202435313033 18.68188736690734,182.2100456620377 18.698325722926583,182.1515981733806 18.935768645301213,181.8447488583844 18.95890410953259,181.79604261811505 18.985692541873075,181.6158295282402 19.115981735104633,181.37229832580468 19.36377473358164,181.11902587527172 19.45449010648887,180.97777777778654 19.494063926884643,180.91445966500817 19.57564687970054,180.88523592093364 19.618873668205424,180.8608828005449 19.77473363769158,180.68554033486393 20.01522070016923,180.46149162840553 20.072450532669,180.40304414018388 20.124809741192635,180.32024353121065 20.13394216128397,180.00365296804446 20.219178082281555,179.79908675785347 20.32511415526843,179.67245053287732 20.563774733655237,179.4337899542002 20.586910197814035,179.3996955859318 20.652054794465535,179.25357686432534 20.828006088370355,179.01004566188982 20.854794520493105,178.9564687974266 20.867579908693546,178.91263318106076 20.873059360748346,178.81522070023172 20.857838660594993,178.4304414003836 20.778691019732005,178.29893455099582 20.733637747281435,178.2210045664342 20.667275494617755,177.95799086773127 20.636834094313315,177.69497716888318 20.635616438300005,177.29071537305794 20.746423135481876,177.0374429222347 20.778691019732005,176.97412480967404 20.783561643780715,176.91080669711337 20.925418569199405,176.75981735182108 20.959512937612956,176.74033485555367 21.319939117217523,176.48219178089946 21.475799086776256,176.3506849315117 21.62617960420761,176.01461187222324 21.77412480968719,175.69315068493577 21.922678843245436,175.42039573842573 22.03896499240953,175.29863013720797 22.0669710806159,175.27427701681927 22.232572298344632,175.05509893477245 22.459056316537087,174.78234398775436 22.712937595076117,174.4998477931469 22.928462709376706,174.20273972624813 22.970471841650543,174.15403348547073 23.02161339416427,174.10532724491105 23.355251141499796,173.8910197870581 23.726636225213966,173.72054794506292 24.063926940659737,173.55494672747935 24.119939117219907,173.5208523589932 24.168645357634432,173.4867579907248 24.317808219198763,173.2821917809693 24.344596651394095,173.2432267882893 24.378082191801557,173.21400304421476 24.415829528106485,173.18964992382607 24.46210045656923,173.16529680343737 24.74581430740661,173.1019786908767 24.79939117201614,173.08736681902087 24.852968036479375,173.0678843226083 25.175646879777883,172.877929984636 25.316286149184393,172.75616438341825 25.529375951315473,172.4736681888108 25.786301369812367,172.28371385083852 25.83439878236596,172.244748858594 25.91111111113315,172.16194824962076 26.04809741250313,171.8843226786991 26.156468797514357,171.61156773218906 26.365905631608904,171.33881278517097 26.391476407864634,171.314459665 26.432267884271447,171.26575342473063 26.465144596601377,171.21217656026738 26.48828006090533,171.15859969580416 26.511415525064127,171.05631659056348 26.515068493173235,170.74946727549474 26.50471841706859,170.71537290729893 26.455403348503957,170.63744292244698 26.429832572248227,170.58873668166956 26.411567732066697,170.54003044154535 26.3975646879981,170.45722983257212 26.39634703191221,170.18447488606208 26.393911719888987,170.01887366818818 26.409132420041207,169.8240487060946 26.425570776205607,169.78995433782623 26.439573820345647,169.54155251148714 26.44383561646085,169.47823439863618 26.441400304365047,169.16164383554258 26.52420091326457,168.9765601219819 26.630136986250307,168.6940639268664 26.760426179554443,168.38234398767634 26.9838660577879,168.13394216133727 27.232876712279353,167.87579908661047 27.420395738154703,167.60304414010042 27.60304413998134,167.35464231347103 27.794824961899312,167.02831050249773 27.817351598124596,166.99421613401162 27.870928462660412,166.94063926954837 27.891628614867432,166.88706240501256 28.046270928486564,166.63866057845576 28.108371385106487,166.4925418568493 28.19908675801485,166.30745814307087 28.29771689492866,166.17595129397344 28.382952815781092,166.08340943661247 28.60152206996697,165.8934550988579 28.651445966612542,165.85936073037178 28.74033485535408,165.78630136993144 28.991171993936376,165.46971080654754 29.007610350028198,165.42587519039944 29.178691019811726,164.85114155236133 29.327853881232038,164.549162861559 29.48736681889875,164.26666666644348 29.721156773236846,163.8964992391044 29.808219178178987,163.71628614922952 29.837442922399806,163.54094368354853 29.84657534241856,163.1805175035811 29.865449010607314,162.8785388129965 29.874581430698644,162.83470319634037 29.875799086710824,162.79573820373295 30.34824961943573,162.4888888889545 30.96621004561586,162.07975646893541 31.503805174991136,161.78751902572247 32.09741248092998,161.2468797563882 32.588736681841375,160.80365296788298 33.341248097369395,160.1850837139145 33.680365296759724,159.71750380502056 33.82587519028752,159.14277016720015 34.03835616441251,158.79695585974173 34.3013698629703,158.27092846269875 34.41095890406628,157.89101978675419 34.61126331814207,157.248097412397 35.217656012135066,156.04992389663195 35.11415525117142,155.38751902564445 34.941856925448285,154.75920852336083 34.74277016738467,154.18934550987944 34.46575342475943,153.7120243531784 33.46605783868904,152.2410958903953 33.19695585999779,151.88066971071814 32.46027397263035,151.07701674297124 32.390867579863645,150.9990867581193 32.888888888844285,149.84474885828462 33.34490106540479,148.81217655988544 33.46362252659211,148.50045662113087 32.99847793001285,147.96468797577273 32.53028919325798,147.04414003027614 32.37442922377183,146.76651445957225 31.899543378951122,146.0894977167289 31.26879756471457,145.39299847769075 30.75799086753349,144.6721461184816 30.072450532677504,144.03896499222185 30.0213089803112,143.97564687966118 31.195738203911336,143.17199391169655 32.25449010649976,142.4170471840013 33.03074581426297,141.79847793003282 33.52876712324361,141.01917808194884 35.582952815787216,138.80304413985817 36.37564687971483,138.3549467274494 37.85205479447903,137.64870624053157 39.4697108066581,136.78173515971596 41.1385083713475,135.98782343984874 42.6818873667826,135.2523592083483 43.69315068496867,134.81887366815826 45.38995433786557,134.1662100454859 46.86757990864308,133.68888888871228 49.05692541861098,133.10441400279447 49.67366818870749,132.77808219182117 50.44627092850561,132.13515981746397 51.58782343992211,131.3899543376484 53.80821917805538,130.24048706222533 55.96834094365843,128.93028919312223 58.80304414008045,127.01126331822066 60.33911719944249,126.02739726038116 56.979604261771925,123.35829528168787 55.33515981732609,122.09680365314446 46.590563165945255,115.36560121768156 49.08249619486671,110.79695585977348 48.47488584471751,103.4130898020737 49.16164383558567,103.23287671227142 49.205479452024065,103.2133942162943 49.330289193344846,103.16468797551688 49.477016742812246,102.99908675793331 49.660882800651066,102.76042617940135 49.761948249661806,102.6045662102055 49.793607305905844,102.39025875184451 49.81917808216158,102.06392694058093 49.799086757960644,101.81065448983024 49.793607305905844,101.55251141561149 49.93302891930018,101.27488584490757 50.0949771689198,101.10441400291239 50.801217656055385,100.53942161318942 51.5683409437284,99.88188736675868 52.2569254186137,99.33150684910925 52.814611872117325,99.10258751896501 53.51841704715711,98.83957382055239 54.04444444449041,98.57168949772816 54.825570776302335,98.06514459666228 55.13242009129851,97.88493150678741 55.699238964967186,97.52450532703769 56.00547945202985,97.24687975662408 56.18143074578951,97.00334855418856 56.36834094380393,96.61856925426787 56.375646879732976,95.77108066971968 56.42313546427934,95.50319634689546 56.60334855401018,94.93820395717248 56.65936073056922,94.72389649902922 56.637442922350026,94.49010654498143 56.48706240484609,94.26118721432915 56.30684931511638,93.97869101972168 56.211263318087866,93.57442922382388 56.207001522045246,93.23348554012384 56.284931506824606,93.05814307444284 56.484627092894314,92.82435312010475 56.86879756473635,92.56133942169213 57.324200913218185,92.42496194796534 57.987214611848884,92.49315068471986 58.448097412530686,92.82922374429862 58.66666666678914,93.11659056331769 58.997260273950204,93.62800608806938 59.43500761032805,94.07610350055074 59.79908675796915,93.88614916257845 59.93911719944215,93.95920852374458 61.047792998457275,93.93972602747716 61.77534246580596,93.89101978699006 62.53881278536874,93.65722983265195 63.09162861489737,93.84231354621264 64.02130898019496,94.45601217671303 65.42039573818703,92.85357686461474 66.3117199391736,89.85327245031884 66.59299847791405,89.43926940639619 69.19391171999797,86.55585996934191 76.25083713857322,81.22252663593146 86.27092846278266,75.33394216111319 87.11719939117351,74.83713850814472 98.89619482497348,74.75920852329278 101.6779299847932,73.66331811233295 106.91933028921166,72.93272450502639 115.46240487064968,74.55951293744081 121.69436834104718,76.54185692519336 122.81156773222013,76.89741248096695 122.89497716898173,76.8000000001379 122.95464231357728,76.75129375936048 122.98569254188895,76.72694063897177 123.03805175041259,76.68797564679983 123.12694063930155,76.6197869100453 123.29436834097596,76.51750380502239 123.3302891933352,76.50289193294883 123.67001522073276,76.36164383531849 123.97625570779542,76.23013698600332 124.01948249622772,76.22039573790589 124.06149162864786,76.2106544900262 124.10106544904363,76.20091324192879 124.46514459675731,76.07914764071103 124.81522070025837,75.96225266339682 125.07701674280398,75.85996955866422 125.15068493168587,75.83561643827551 125.18904109592431,75.82587519039582 125.26697108077626,75.8161339422984 125.56834094371877,75.8112633178868 125.9452054794866,75.66027397259451 126.10471841708073,75.60669710784096 126.14429223754908,75.60182648393742 126.18630136989776,75.60182648393742 126.35007610353564,75.6115677318171 126.39208523602835,75.6164383562287 126.47853881289296,75.63105022801194 126.52237442925878,75.63592085242354 126.57838660581781,75.63592085242354 126.64109589051867,75.63592085242354 126.72024353123764,75.62130897991452 127.0940639269773,75.62617960432611 127.21826484021827,75.63592085242354 127.62800608831603,75.64566210030323 127.66879756472399,75.64566210030323 127.89589041099511,75.59695585974355 127.93302891936652,75.5823439879603 127.96773211571359,75.57260273986289 128.094977168985,75.48980213059934 128.18691019790555,75.42648401825642 128.27275494676408,75.35342465730803 128.30197869105746,75.32420091301576 128.33546423146493,75.29984779284479 128.37990867583684,75.25114155257542 128.4066971081762,75.22678843218671 128.43592085239587,75.202435311798 128.47853881289467,75.1975646880396 128.6800608829112,75.19269406391831 128.71963470323325,75.18782343994218 128.9047184171557,75.10502283096895 128.99786910201584,75.04170471833572 129.2133942162427,74.81765601216762 129.28888888899886,74.73485540312181 129.31567732126675,74.70563165904727 129.57260273976252,74.57899543385338 129.6298325724086,74.5351598170521 129.68584474896875,74.4913242006863 129.71445966518235,74.46697108073305 129.7649923896877,74.41339421583434 129.81369863017483,74.36955859946853 129.85996955863757,74.3159817350053 129.94277016746565,74.25266362244463 129.9719939117579,74.23318112646753 130.00547945216536,74.21856925417624 130.0474885845129,74.20395738188495 130.09193302902997,74.19421613378753 130.17656012180373,74.18447488569011 130.4980213090912,74.09193302898235 130.60821917819328,74.03348554039782 130.72694063930803,73.9701674277646 130.76894977172813,73.95555555554589 130.84809741259227,73.92146118727749 131.00761035011496,73.85327245052297 131.04596651457112,73.83866057823167 131.0855403349669,73.82891933013426 131.32907153740243,73.71202435311037 131.57990867583842,73.60974124808745 131.61643835620376,73.5902587518926 131.64748858451426,73.57077625562518 131.68036529698824,73.5512937592126 131.71385083717794,73.5318112632355 131.90745814318677,73.36621004565193 131.9409436834491,73.34672754945709 132.00243531206405,73.30289193309126 133.34916286160504,72.09497716901109 138.4170471842882,70.41948249603699 143.22557077630609,65.72420091300759 150.75738203962948,59.78203957350835 149.0270928463251,56.50898021313787 146.85175038056983,52.398173515808566 146.05357686466,51.01491628582966 145.88006088292468,50.649619482176384 145.44718417052297,49.73881278543043 144.63744292249746,47.873363774774354 143.95068493155557,46.68493150667129 143.74611872151087,45.87640791451279 143.74611872151087,45.32602739708109 143.7485540336078,44.3080669709732 143.7485540336078,43.97686453580605 143.74368340955908,43.27062404867046 143.71811263330335,42.44261796046228 143.64018264845143,41.8484018262293 143.47701674281961,41.03500761038498 143.36560121770538,40.30441400307842 143.22922374434148,40.02191780796291 143.17199391191429,39.92450532713385 142.8907153729561,39.335159817022166 142.44627092858386,38.56073059334979 142.3098934551474,38.20030441410811 142.04444444456524,37.73272450521418 141.77351598178316,37.1969558600012 141.4660578387809,36.787823439546635 141.22070015225452,36.1254185689946 141.21582952820583,36.01826484006813 141.31141552516178,36.05235920855426 141.3637747336854,36.071841704531366 141.57321156785252,36.081582952628786 141.94703196351847,36.037747336045236 142.32024353124976,35.954946727434894 142.68249619487375,35.833181126217134 143.03135464236263,35.706544900878086 143.38873668200932,35.589649923781614 143.76133942166308,35.487366818831276 144.1345509894681,35.385083713590625 144.57899543384033,35.248706240517045 144.98630136991375,35.126940639299285 145.14581430750903,35.058751902327025 145.48919330301567,34.85418569235377 145.71506849320204,34.664231354381485 145.99452054799679,34.38173515977402 146.2258751903831,34.152815829557206 146.48888888901348,33.836225266245876 146.51933028931794,33.777777777588774 146.53881278544017,33.612176559787464 146.54003044152495,33.027701674087375 146.54490106557364,32.983866057721556 146.7171993912968,32.70136986304151 146.82983257242321,32.58447488558215 147.0916286149688,32.36529680353534 147.34550989350785,32.141248097076925 147.5908675800342,31.926940639151404 147.63896499244265,31.91719939083625 147.8855403349086,31.69802130878944 147.95190258757228,31.639573820132338 148.07184170484436,31.561643835498128 148.42191780834543,31.376560121501974 148.78964992395046,31.206088279942268 149.1305936073602,31.123287670969034 149.4958904110146,31.040487062140958 149.8636225267637,30.943074581094173 150.2502283105575,30.8359208521677 150.64231354647868,30.68493150687541 150.76468797570254,30.62648401821831 151.12998477935582,30.446270928125713 151.48127853894164,30.2563165905889 151.5385083714414,30.227092846078904 151.76194824967712,30.037138508106622 151.98295281595878,29.78386605757368 152.2295281583533,29.530593607258474 152.4785388128425,29.335768645092326 152.628919330419,29.087366818753253 152.76407914769814,28.770776255587077 152.8474885845323,28.48828006054414 152.92663622539644,28.205783866154405 153.0197869104006,27.91841704706276 153.1245053273753,27.635920852019822 153.24322678849003,27.35829528131591 153.3412480974692,27.051445966537468 153.3528158296586,26.73485540337129 153.3528158296586,26.447488584352225 153.37838660591433,26.111415525063787 153.42709284632883,25.82891932994827 153.4794520548525,25.536681887461118 153.55616438369225,25.24444444424818 153.6724505328552,24.947336377349426 153.71933028932403,24.849923896520373 153.87031963483406,24.684322678936798 153.93789954350993,24.606392694084857 153.96468797570412,24.56742770140486 153.9823439879544,24.275190258699972 153.99269406405793,24.16803652970092 154.08949771702603,23.866057838680877 154.10654490112395,23.81735159790346 154.12176560127617,23.656621004441174 154.12298325728835,22.999086757865275 154.11933028932438,22.68736681867523 153.99634703202187,22.239269406484187 153.9951293760097,21.922678842882544 153.9987823441188,21.87884322651673 154.0103500761619,21.844748858248334 154.0639269407703,21.791171993567364 154.08340943696516,21.75707762529897 154.27884322684707,21.542770167155712 154.31537290721127,21.51354642286345 154.36042617966183,21.48919330291021 154.50471841717746,21.435616438011508 154.6258751903177,21.377168949789873 154.66057838666475,21.357686453377294 154.69101978696918,21.338203957182454 154.87001522083187,21.15312024362177 154.91811263324144,21.08493150686725 154.9808219178663,20.91933028906594 155.00639269412318,20.880365296821413 155.03805175051238,20.856012176432703 155.19391171999854,20.77808219187107 155.23774733643694,20.763470319579785 155.3345509894039,20.753729071482365 155.38569254191765,20.753729071482365 155.5914764080471,20.690410958631396 155.62800608833984,20.67579908663042 155.6639269406991,20.661187214339133 155.69863013719132,20.636834094385893 155.7302891933639,20.617351597973318 155.87579908689057,20.41278538821779 155.89649923917017,20.378691019731665 155.94337899549384,20.183866057565517 155.95129375964558,20.144901065393565 156.13759512943616,20.00852359188452 156.16803652974062,19.984170471495812 156.19360730599635,19.959817351324837 156.22709284633123,19.90136986295805 156.23500761048297,19.687062404597057 156.2386605784469,19.643226788231242 156.25266362258697,19.60426179605929 156.308675799146,19.54581430740219 156.34094368346982,19.521461187013482 156.4541856926749,19.48249619484153 156.49497716908175,19.4727549464538 156.5333333333939,19.458143074452824 156.56925418575312,19.433789954064117 156.62404870630112,19.385083713722167 156.8298325724317,19.112328766776653 156.9942161340031,18.84444444417016 157.01369863019795,18.810350076119498 157.02404870630147,18.68858447490174 157.13850837151872,18.55220700146527 157.3631659056929,18.308675799029754 157.45814307471537,18.201522070030702 157.47945205500105,18.16742770154457 157.49223744298374,17.967732115692602 157.4934550990685,17.923896499109055 157.50258751908726,17.880060882525505 157.6085235921467,17.694977168747087 157.7972602741068,17.431963470334463 157.83074581436912,17.392998477654466 157.87031963476375,17.363774733362202 157.91476407928195,17.33942161319123 157.96590563179342,17.319939116996387 158.07184170485286,17.29558599660768 158.12663622532827,17.28584474851026 158.53698630143214,17.28584474851026 158.94916286162683,17.28584474851026 159.12694063940475,17.280974124534126 159.36133942174894,17.276103500630573 159.77412480980456,17.198173515778628 160.11750380531123,17.071537290584736 160.4712328768488,16.95464231334311 160.7074581431387,16.905936072783426 161.1196347032608,16.876712328491166 161.2371385085085,16.862100456635346 161.64809741261845,16.750076103515006 162.026179604327,16.5844748857137 162.13333333339867,16.506544901079486 162.33120243537752,16.67214611844533 162.5382039574477,16.949771689366976 162.7171993912378,17.203044139899916 162.89193302905787,17.466057838602854 163.04901065462877,17.733942161427084 163.22374429230368,18.016438355816817 163.4130898021973,18.303805174835887 163.50076103514667,18.425570776053647 167.99634703210634,17.90928462710808 171.55251141567103,17.519634703066092 173.81126331833303,17.261491628339286 177.17564687983457,16.9302891929544 179.1178082193304,16.68675799051888 180.28736681895444,16.52602739734691 180.32267884330759,16.511415524837886 180.3598173517516,16.501674276958198 180.6100456621815,16.389649923620127 180.97168949779822,16.258143074522682 181.3327245054089,16.13150684932879 181.37777777785948,16.121765601013635 181.55616438364348,16.121765601013635 181.60121765609406,16.121765601013635 181.96103500769254,16.03896499247587 182.3226788433093,15.91232876684651 182.68371385099252,15.771080669651642 183.04535768653668,15.605479452068067 183.36194824970286,15.439878234266759 183.68828006103902,15.245053272318343 183.9847792999317,15.055098934636373 184.07427701689932,15.021004566150243 184.43531202458257,14.889497716762484 184.7458143075427,14.723896498961176 185.05083713859318,14.548554033497915 185.4124809742088,14.402435311891447 185.77351598189315,14.24657534247787 186.13515981743734,14.076103500482695 186.17960426195438,14.061491628626875 186.22587519041713,14.046879756408167 186.35981735168522,14.0420091322143 186.4042617961286,14.0420091322143 186.53942161355286,14.012785388139772 186.62891933037534,13.983561643557199 186.6751902588381,13.968949771773957 186.88584474908998,13.954337899264935 186.929071537376,13.954337899264935 187.14642313555083,13.895890410607834 187.23044140046366,13.866666666533305 187.2736681888234,13.842313546144597 187.31750380526177,13.827701674288777 187.36316590571843,13.813089802070069 187.40639269415075,13.803348553972647 187.44901065472212,13.803348553972647 187.52937595145326,13.808219177876202 187.5701674278612,13.817960426191357 187.87519025898428,13.822831050167489 187.91963470335617,13.827701674288777 187.96468797580675,13.817960426191357 188.0079147641665,13.808219177876202 188.27884322687598,13.671841704584889 188.3208523593687,13.652359208172314 188.36407914772843,13.632876711977472 188.41035007619118,13.623135464097786 188.49680365305466,13.618264839903919 188.53942161355457,13.618264839903919 188.67092846286977,13.637747336389072 188.75981735168614,13.647488584486494 188.8048706241367,13.647488584486494 188.84687975655683,13.642617960074894 188.88888888904955,13.632876711977472 188.96194824970763,13.603652968120677 189.17990867588742,13.472146118805497 189.35525114171355,13.394216133953554 189.50928462718144,13.30654490093161 189.5452054795407,13.277321156421614 189.60121765610086,13.189649923689984 191.2292237443823,12.600304414013761 192.2356164384471,12.254490106627902 194.94977168959096,11.036834094450306 196.5010654491052,10.242922374075047 197.7820395739886,9.371080669355887 198.76894977178597,8.470015220707356 199.95494672771954,7.500761034723678 200.41095890428005,7.296194824677842 201.55616438366164,6.731202435172594 202.43713850846984,6.214916285791559 202.88888888898887,5.981126331453461 202.9826484019991,5.9226788433044035 203.088584474986,5.859360730235701 203.42283105032874,5.713242008846968 203.61704718434365,5.635312024212757 204.1534246576353,5.338203957096268 204.45053272475178,5.123896499243323 204.77382039591237,4.929071537294908 205.8806697109818,4.300761034793535 206.63683409454296,3.750380517361839 207.17260273982964,3.4776255707792134 208.7726027399036,2.0651445962903128 209.42770167452773,1.2176560121775957 209.90928462727138,0.6234398778720392 210.36894977179585,0.14611872131615558 210.49741248115203,0 214.60761035025862,1.0715372905711285 214.3001522071112,2.7908675796207376Z"/></svg>