<svg xmlns="http://www.w3.org/2000/svg" width="256" height="256"><path d="M99.38233881038049,0 109.50014413380856,9.390602479097243 110.13971365432337,9.273758047189817 110.77774574801454,9.187662150105801 110.93917555487525,9.132314787845196 112.04304794854774,8.677236475354473 112.89324493125584,8.535793216009852 113.37753435183797,8.498894974716602 113.93408282891605,8.455847026037139 114.23388104165736,8.36360142184182 114.52137984054262,8.025367541166885 114.65974824633159,7.570289228126335 114.836552320604,7.20745651946438 115.29470548665037,6.838474103691121 116.0203709042492,6.328048428939793 116.30786970304283,6.075910444799048 116.75526088205679,5.786874219365054 117.04429710767407,5.706928029300703 117.45632747194351,5.713077736137092 118.05131161723013,5.719227443156757 118.58479869323646,5.749975977430341 119.35197463250783,6.057461323831691 119.57336408182518,6.106658979622458 119.80397809162618,6.125108100223264 120.11607571840683,6.075910444799048 120.40972422412848,5.891419236774962 120.98933410200338,5.44249063102899 121.25069664644454,5.301047371684369 121.7349860671183,5.171903526562353 122.13932929763608,5.110406456915531 122.9034303833518,5.042759681073786 123.48457768814198,5.0673585085109805 123.95810512160007,5.098107043334391 124.5146535985865,5.178053233032191 124.82675122509224,5.239550302679012 125.29720380517794,5.467089458741098 125.55549149606344,5.596233304229665 125.73690785044025,5.645430960020433 134.98145478999683,8.160661093491841 135.97770731233723,8.732583837889992 136.94474872676946,9.568943979735113 138.30690881141908,11.530700490050643 138.98645142696608,12.877486306922007 139.79206303444596,16.124531565103545 140.21946766594385,17.077736139131005 140.73604304798977,17.90794657413974 140.94359565671903,18.602863457281703 141.06044008835156,18.873450561748342 141.54780436239767,19.18708561553591 141.65388680690614,19.217834150084407 141.79379263970205,19.660613048719075 141.6769482079779,19.660613048719075 141.4278850773928,19.679062169686432 141.33563947338075,19.685211876431183 141.26645527053208,19.679062169686432 139.64139521489258,20.404727587285254 139.60603439987315,20.460074949545863 139.4369174593524,20.72451234754266 139.57682329205667,21.14269241846522 139.52916306327282,21.161141539432577 139.50763908902474,21.253387142986433 138.85115787454947,22.477178822030357 138.84654559435344,22.58787354655157 138.89728067650967,23.11059863525059 138.9080426635421,23.172095704897412 138.50523685984797,23.614874603257167 137.94715095603786,24.205246468622672 137.79648313648448,24.525031228880078 137.76265974828868,24.752570385308715 137.9871240511617,24.79561833398818 138.21158835403466,24.93706159324116 138.3192082251835,25.078504852585784 138.50984913995234,25.392139905823523 138.51907370043602,25.730373787048283 138.03170942638988,25.945613528979404 137.93946382237783,25.99481118477017 137.7903334293732,26.056308253775526 135.31046411073794,26.486787739195606 133.95752858657198,26.51753627337755 133.8683578361156,26.5052368595215 133.64389353324262,26.5113865666328 133.51628711448603,26.5113865666328 133.45325261856541,26.523685980488857 133.3932929759255,26.54213510145621 133.22725088886878,26.597482463716815 133.1719035264249,26.622081291428927 132.67685211881036,26.775823964629602 131.76823292019438,27.464591140660264 131.5483808975174,27.53223791677692 131.5053329490212,27.544537330632977 131.1701739213521,27.562986451600334 131.21014701647593,27.606034399638332 131.25319496488046,27.642932641573047 131.43768617272127,27.790525607387504 131.4884212548775,27.845872970197938 131.602190833046,28.005765350235002 131.69136158359404,28.39934659372037 131.62678966084974,28.62688575005737 131.49610838853755,28.9958681652808 131.35005284908854,29.364850581328973 131.2485826847761,29.721533582879626 131.10867685225512,30.072066877685526 130.89189968285888,30.453348707589754 130.64898625920182,30.803882002670566 130.4352839435445,31.0252714519879 131.66215047559427,31.7201883344884 131.82358028245497,31.76938599027917 132.00038435663575,31.892380128656434 131.97271067555127,32.04612280185711 131.88661477846725,32.261362544338056 131.85586624391874,32.513500528203885 131.85586624391874,32.765638512619546 131.8727779378792,32.950129720093805 131.92505044676741,33.05467473814518 132.14643989635968,33.54665129247898 132.07110598630805,33.55280099904045 131.66215047559427,33.694244258659985 131.29778034010866,33.909484000866016 130.8995868165189,34.14932257142562 130.56135293547743,34.33381377889988 130.44143365047253,34.38301143469065 131.03795522249115,34.727395022385245 131.33314115494483,34.88113769558592 131.54069376376574,34.96723359266994 131.8189680023506,35.2378206976864 132.01883347741983,35.52070721610073 132.15412702983642,35.76669549349673 132.30018256956035,36.03728259796336 132.35706735855297,36.31401941009113 132.29557028918106,36.55385797982599 132.12337849519628,36.77524742969316 131.87739021825848,36.95358893069758 131.64985106173822,37.13193043133545 131.4192370519372,37.31642163935953 131.3977130776891,37.43326607062549 131.42384933213322,37.67925434802149 131.49457096180552,37.98673969442284 131.12712597294757,38.08513500536291 130.43067166325685,38.245027385033424 130.009416738687,38.35572210982955 129.65734601705745,38.45411742104453 129.10540982026703,38.58941097336949 128.61189583929286,38.69395599077939 128.05534736230643,38.81080042268682 127.5941193427044,39.11213606197687 127.45421351009179,39.3396752184055 127.3681176130994,39.524166426429595 127.28355914293067,39.70250792706746 127.17132699140254,39.93619679024085 127.1544152974421,40.05919092889303 127.06831940035809,40.102238877572496 127.26664744878696,40.335927741112435 127.42192754871964,40.8094551742956 127.50802344580366,40.98779667493347 127.58950706260002,41.18458729681361 127.66176611900433,41.436725280954356 127.6986643605725,41.57201883318767 127.76784856342117,41.79955798961631 127.87700586139364,41.95945036983665 127.99077543956214,42.057845680501806 128.13068127217477,42.16854040566448 128.30748534644718,42.248486595637196 128.69645430955325,42.27923513018569 129.23147881238322,42.371480733739546 129.48669164989636,42.54367252818249 129.59123666758117,42.70356490785301 129.3206495628396,43.19554146227844 129.37292207163622,43.22628999710185 127.86931872773361,46.055155183719364 117.87450754295772,64.8609589697176 117.79148649942934,65.01470164291827 127.01297203809749,71.94542135080471 128.54886134328058,72.96627270067393 132.6491784375426,75.68444316341169 139.5199385028808,80.73335255123023 139.48304026131262,83.91275103302019 139.08945901801053,87.72556932793874 138.9280292111498,92.64533487036034 138.2930719707394,95.86778130073814 137.95791294316192,97.7065436724015 137.12923993470193,100.01268377041163 136.91707504568498,100.48621120359479 136.62957624679973,101.62390698564634 135.6579225520798,104.52656865549181 135.5795137888391,105.27683290052784 136.66032478143987,111.82012107204021 135.3673488998222,114.93187277762188 135.3120015373783,115.15326222730576 134.80157586235205,120.89093879088004 134.97991736326483,121.06928029179282 135.23666762750997,121.38906505205023 135.45190737017418,121.71499951914403 135.66407225900784,122.0839819351922 135.72556932837975,122.45911405771021 135.68405880652392,122.82194676637216 135.59950033626356,123.19092918242033 135.59181320269516,123.43691745917486 135.64716056495575,123.80589987522303 135.7378687422358,124.17488229035483 135.89314884216847,124.543864706403 136.11453829148581,124.9128471218097 136.31440376673834,125.28182953758296 136.4727587200434,125.63851253968345 136.69568559618438,125.91524935135303 137.02469491683382,126.20428557678702 137.4228884405152,126.45027385381646 137.827231671033,126.6839627173564 138.21927548778635,126.93610070149714 138.33150763903956,126.99759777050251 138.43144037662,127.05294513276311 138.76198712409308,127.15134044370318 138.8173344863537,127.15134044370318 138.92649178432617,127.16363985783414 138.98183914667842,127.18208897825167 139.2970116267398,127.2927837030478 139.69213029695717,127.5633708081559 140.03805131165868,127.82165849876648 140.39934659358863,128.10454501745573 139.9996156433585,128.67031805501747 139.2970116267398,130.1277985967766 138.69587777452514,130.72432016925342 138.50523685984797,131.32084174108877 138.60055731714073,131.37003939623807 138.64514269236892,131.43768617262964 138.63130585178087,131.5975785526667 138.46065148461977,131.978860382296 138.29460939756302,132.34784279797765 138.21158835403466,132.73527433471824 138.14394157773472,133.13500528467347 138.09474392231053,133.5347362349036 138.1024310560622,133.6577303739223 138.1331795906107,133.73152685678372 138.1577784183228,133.76842509844352 138.206976073747,133.83607187456016 138.25463630243922,133.95906601293743 138.26078600936725,134.03901220318508 138.2515614489752,134.15585663454266 138.21312578067503,134.22965311804555 138.00096089174974,134.58633611959618 137.9240895551494,134.69088113764758 137.62582876904847,134.99221677693762 137.3875276255874,135.34889977912974 137.31373114254274,135.69328336654942 137.2045738444786,136.07456519645365 136.5880657249439,137.64889016975366 136.5158066685396,137.80878255034054 136.4988949744875,137.8518304987451 136.4773710002394,138.2269626212631 136.5081195349712,138.34995675964035 136.53733064278768,138.41760353575702 136.56961660415982,138.49754972600465 136.61881425958404,138.60824445052586 136.59882771206796,138.68204093375383 136.42663591808318,139.04487364241578 136.4020370903711,139.0817718843505 136.383587969587,139.1248198326634 136.3728259825546,139.20476602272777 136.383587969587,139.27856250586407 136.33439031425442,139.33390986849125 136.14067454592993,139.38310752336562 136.09147689059736,139.38310752336562 135.5072547324348,139.38310752336562 134.75545306039186,139.91198231935923 133.80686076674368,140.04112616484778 132.06341885264803,140.21946766576056 127.86470644753759,140.61304890897102 127.37734217349144,140.7913904098838 126.85000480441313,141.33871432656986 125.24800614966209,145.08388584564668 125.1957336408655,145.20687998429884 124.59613721529124,147.43307389233627 124.74526760838752,157.83837801483287 128.57653502454835,157.43249735749146 128.7518016719055,157.2787546842908 128.7963870471337,157.25415585648702 128.84865955602191,157.23570673588623 128.948592293694,157.21110790780756 128.99778994902655,157.1988084939515 129.05006245800644,157.1988084939515 129.53896415878458,157.23570673588623 130.0263284327391,157.31565292558403 130.48601902570073,157.47554530617091 130.6412991255418,157.51859325420892 130.69510906116201,157.5247429610453 130.75045642351427,157.5247429610453 131.24704525795244,157.58624003069212 131.76362063990672,157.62928797937158 132.24944748722083,157.62928797937158 133.31180935912914,157.62928797937158 133.82838474099177,157.62928797937158 134.2619390794177,157.62313827198537 134.75545306039186,157.55549149614362 135.23513020077795,157.5247429610453 135.7470933025362,157.46324589222323 136.26981839151014,157.42634765038014 136.7633323724843,157.38329970170068 137.2629960603865,157.30335351200287 137.61199192846038,157.21725761464396 138.1024310560622,157.10656289012275 138.14855385802238,157.0881137691554 138.57288363596462,156.92822138948486 138.62208129148047,156.9097722682426 138.67435380027706,156.89747285466146 138.72047660223726,156.89132314755017 139.02949937537062,156.8790237336941 139.08023445752684,156.8790237336941 139.12481983275504,156.89747285466146 139.1632555010552,156.92207168209865 139.2693379456553,156.98971845876514 139.6383203612453,156.792927836885 139.90583261261446,156.6453348705207 140.8021523973744,156.39319688637997 140.86211203992266,156.36244835183146 140.9266839627586,156.33784952411938 141.1772845200757,156.2087056786308 141.40021139612503,156.2702027480027 141.44633419817688,156.27635245474747 143.25896031521285,156.5284904391631 146.21235706739782,156.1779571440823 152.62957624670236,155.12635725948132 154.87268184879184,160.6918420294374 155.28317478623765,162.06322667438744 155.70289228398386,162.99798212744753 156.53156529262714,164.72604977403984 158.26117036613473,169.44902469485623 159.32353223785975,172.9359085229559 159.4511386566163,173.3725377145709 159.93235322373442,174.36879023727784 160.6303449600655,175.1867012584305 161.91870856148716,176.84097242206977 160.93168059953882,177.7142308060329 160.370519842448,178.3292014988356 160.16911694046348,178.54444124113326 159.77092341687373,179.18401076164807 159.59104448922892,180.3770539056853 159.604881329817,181.39790525582944 160.62419525313746,183.18132026486563 163.5699048716624,185.81954453735577 164.5246468722386,186.9449409049098 164.62611703655105,186.99413856070055 164.73834918807918,187.04333621557495 164.8259825117119,187.0863841642544 164.92284039582836,187.13558181995356 165.01201114628475,187.17862976808317 165.11194388386517,187.22782742387395 165.1934275007532,187.2647256651672 165.34717017395386,187.33852214839516 165.54088594209506,187.3508215619763 166.3234361486865,187.4184683383679 166.64937061587193,187.44921687291637 166.81695012966065,187.46151628677242 166.99682905730546,187.47996540773977 167.26280388203426,187.50456423517699 167.38733544723516,187.5107139425632 167.55645238784754,187.5291630628891 168.10838858463796,187.46766599415864 168.23753243021818,187.41231863162312 168.95858556734606,187.57836071867985 170.11473046981516,188.1195349279797 170.84654559425036,188.48851734402785 171.6290958008418,189.84145286828542 171.64139521469787,189.90909964412717 171.71211684437017,190.00134524823085 171.7336408187099,190.0443931969103 171.7613144997944,190.08129143857013 171.8289612760943,190.17353704212397 171.8935331988386,190.2534832320967 171.91813202645906,190.2903814740314 171.982703949295,190.35802825014807 172.0088402037391,190.3949264914413 172.24714134720014,191.20668780584924 172.37167291240107,191.58181992891707 172.4577688094851,191.96310175799655 172.48851734403357,192.35668300175683 172.54847698667348,192.7748630726794 172.59613721527404,193.14999519519742 172.669933698502,193.5189776112456 172.7145190737302,193.88181031990754 172.75141731529837,194.2753915633929 172.8574997597152,195.8189680018695 174.45488613427023,197.19035264681952 174.48563466891034,197.22725088866258 174.7270106658354,197.56548476961245 174.97299894295648,197.9283174782744 175.14057845674523,198.3095993079037 175.35274334585378,198.65398289614814 175.42039012197046,198.7216296719899 175.65407898532712,198.9553185355298 175.9431152109444,199.2812530028069 176.00307485340102,199.3919477273281 176.0322859614008,199.54569040052877 175.98001345251254,199.90852310955728 175.86624387434404,200.28980493854513 175.71557605451574,200.6833861820305 175.57567022190312,201.08311713253553 175.4772749110547,201.4828480828573 175.1528778706013,203.29701162644199 175.02065917174033,205.1726722396735 175.46497549719865,207.22052464670648 175.41885269523846,207.66945325217753 175.4173152685981,207.7678485631176 175.33429422506973,208.08148361663027 175.20668780631314,208.48736427397168 175.0590948400405,208.60420870551255 174.3841645045979,210.26462957626313 172.23637935998448,213.646968386678 170.05323340053488,216.05765350209802 167.80090323823663,218.54213510102093 164.60151820883894,222.6624387432572 164.52618429906224,222.7300855193739 159.08676852113072,223.41270298829323 157.79686749297704,223.54799654052655 157.43249735749146,223.58489478246128 152.01768040754695,224.16296723332925 151.35197463240473,222.71778610551783 150.7416162198897,220.65148457770076 150.02978764297058,219.5014893821597 145.47592966276656,215.19054482515457 142.68088786388665,212.53387143233854 140.12568463529144,210.0124915921224 136.55577976357176,211.71596041118588 135.09368694143333,212.65686557126563 132.513884885126,213.7576631114741 132.15258960319605,213.81916018020456 127.21591236663073,214.6924185642593 126.12587681363794,214.82156241002278 124.33938695104611,215.15979629060607 123.64908234837507,215.17824541129852 123.38618237720192,215.3565869122113 123.26472566537339,216.8509656958135 122.86038243485561,218.15470356464687 122.2915345440131,219.2063034496144 121.9855866244354,220.15335831625563 121.91332756793945,220.14720860941927 121.86412991260687,220.15335831625563 121.83953108480313,220.26405304077684 121.76880945531408,220.40549630012148 121.76112232156241,220.485442490644 121.73191121356265,220.55308926648576 121.65350245041358,220.74373018162115 121.52435860483338,221.13731142510653 121.44748726823305,221.28490439092099 121.33986739690093,221.5739406169048 121.30758143571207,221.65388680696915 121.29835687513675,221.73998270405318 121.26607091376461,221.7707312382351 121.15537618906012,221.89372537725384 121.10002882670787,221.96752185984033 120.9401364466708,222.15816277497572 120.68646103579806,222.4902469490892 120.63726338037384,222.55789372493092 120.52964350913336,222.75468434681108 120.40664937057284,222.77313346777842 120.16834822711178,222.8407802438951 119.7163447679018,222.97607379612842 119.22436821375128,223.12981646932909 118.93994426823839,223.2159123664131 118.850773517782,223.2466609012365 118.37724608432391,223.38810416058112 118.33266070909572,223.40655328145684 118.23119054487492,223.43115210926058 118.17891803589505,223.44345152311664 118.01441337566196,223.44960122958648 118.01441337566196,223.5049485918471 117.96982800043376,223.7447871621318 117.939079465702,223.87393100789527 117.92216777164992,223.92927837015586 117.87758239642173,224.126068992036 117.7515134044888,224.48275199386157 117.60392043821616,224.83328528839257 117.52089939468779,224.93168059933262 117.4763140194596,224.99317766870453 117.26414913044266,225.2699144802825 117.04890938787008,225.614298068252 116.84750648606884,225.82953781082458 116.67377726535207,225.9894301910449 116.59536850192809,226.09397520854645 116.45546266931548,226.4937061593264 116.34784279816664,226.72739502259142 116.30633227631083,226.93033535094142 116.31709426352651,226.985682713202 116.29095800908239,227.04103007546263 114.05092726045692,228.344767944296 112.95935428082376,229.32872105314686 110.1304890938397,232.0345921011122 110.01518208893918,232.18833477431286 110.01210723556682,232.2744306716718 109.98904583449507,232.3543768613696 109.91986163155477,232.76640722582232 109.826078600994,233.1538387621964 109.73229557024995,233.5289708847144 109.61391371188543,233.89180359337635 109.50321898718094,234.15624099137315 109.43710963779628,234.26078600942452 109.39098683583609,234.3591813203646 109.19265878740721,234.39607956138292 109.10195061021882,234.7896608051432 109.04045354084691,234.94340347834387 109.01892956669046,235.05409820286508 108.85903718656175,235.44152973923914 108.72989334098155,235.78591332757523 108.68377053902134,235.84741039658059 108.6422600173488,235.86585951754793 108.62381089665635,236.01345248391223 108.57153838767648,236.08724896659035 108.51772845196462,236.19179398491664 108.4823676372201,236.26559046750313 108.30556356294768,236.50542903778782 108.11492264817885,236.85596233259372 107.89968290578953,237.20649562767454 107.7567022197129,237.55702892275536 107.62294609402832,237.87681368273786 107.58912270583254,237.95675987271056 107.5014893821998,238.35649082358213 107.48611511478808,238.3995387719867 107.39694436433169,238.64552704874123 107.2770250793268,239.0391082925015 107.19092918224278,239.40194100116346 107.07869703089793,239.77707312340655 106.95109061214137,240.14605553945472 106.79427308538504,240.50273854100539 106.59133275685178,240.8471221289749 106.40684154901098,241.21610454474816 106.2361871816666,241.59123666726617 106.0563082540218,241.94176996207207 105.88257903330503,242.3230517919763 105.73959834732005,242.55059094840493 105.68732583834019,242.75968098386622 105.67656385130778,242.80272893254568 105.64274046320362,242.87037570866232 105.61660420866787,242.9072739499556 105.57201883343967,242.98107043318353 105.54434515226356,243.05486691631987 105.59661766115178,243.46074757338639 105.63812818300761,243.6636879021029 105.13231478817738,244.31555683674867 105.2122609781501,244.34015566455244 105.43672528102309,244.44470068196233 105.52435860474746,244.48159892380542 105.66580186409209,244.52464687193506 105.76880945513653,244.55539540648354 105.70884981267992,244.598443355163 105.63197847607958,244.73373690767124 105.57355626026332,244.80138368415444 105.59661766115178,245.133467857993 105.62890362252392,245.3241087724869 105.645815316576,245.40405496300946 105.67656385130778,245.68079177467905 105.67656385130778,245.8283847407684 106.03170942630969,246.89228403931708 105.92870183526524,248.15912366676557 104.00691842025681,250.41606610935148 103.96694532522463,250.44066493678866 103.90544825594435,250.5021620064355 103.85625060061177,250.56980878255214 103.81012779855993,250.63130585183242 103.75170558274368,250.69280292065451 103.67329681941133,250.67435379996206 103.6333237244708,250.74200057635363 103.3919477274541,251.97809166879543 103.30892668392573,251.98424137590672 102.55405015851042,252.0518881520234 102.27885077348121,252.20563082522406 101.74997597776253,252.50081675804427 99.99730950318319,253.6016142978862 99.4515230133208,253.9152493510323 98.04477755353462,254.7331603725515 97.20073027775454,255.28048428923756 96.23061400976665,255.64331699817444 95.21437494000182,255.8524070336357 94.2826943403141,255.90160468878503 93.01739213996417,256 92.35629864510963,256 83.32545402139361,254.71471125158416 81.738829633871,253.70000960882626 80.9193811857114,253.15268569186532 73.84414336510797,252.97434419122743 72.40818679732202,252.77140386278583 70.45257999420943,252.4577688093648 66.23234361485089,251.79360046077133 59.85202267702287,249.53050831144068 57.93485154221045,248.92783703276893 55.9777073124575,247.79014125108395 55.9777073124575,247.3227635240957 56.42509849137982,247.3227635240957 56.42509849137982,246.85538579802383 56.42509849137982,245.9759777071327 56.87402709712579,245.9759777071327 56.87402709712579,245.08427020275207 56.42509849137982,245.08427020275207 56.42509849137982,243.2885557795849 55.9777073124575,243.2885557795849 55.9777073124575,242.9933698470396 55.9777073124575,241.4989910637123 55.719419621388724,241.4989910637123 55.52877870661988,241.4989910637123 55.4626693571436,240.36744498877206 55.422696262111415,239.7094263475648 55.08138752769756,239.7094263475648 55.08138752769756,237.66772364727657 55.08138752769756,236.5730758139045 54.88613433264106,236.5730758139045 54.63245892195159,236.5730758139045 54.63245892195159,235.86585951754793 54.63245892195159,232.096089170759 54.188142596309994,232.096089170759 54.188142596309994,229.85759584886554 53.29182281155006,229.85759584886554 53.29182281155006,229.40866724311957 52.395503026790124,229.40866724311957 52.395503026790124,228.9597386370987 51.7297972518312,228.9597386370987 51.499183242030185,228.9597386370987 51.499183242030185,228.79369655031687 51.499183242030185,228.51081003135272 51.050254636284215,228.48006149707913 51.050254636284215,228.06803113271803 50.4691073316773,228.06803113271803 50.15700970498829,228.06803113271803 50.15700970498829,227.84664168340072 50.15700970498829,227.61910252697209 49.837224944730885,227.61910252697209 49.26068992022835,227.61910252697209 49.205342557876115,227.17017392095119 48.9977899490552,227.17017392095119 48.81329874121439,227.17017392095119 48.81329874121439,226.89343710964818 48.81329874121439,226.7212453152052 48.570385317557324,226.7212453152052 48.36283270882805,226.7212453152052 48.36283270882805,226.5060055732741 48.36283270882805,226.27231670945923 48.19832804841169,226.27231670945923 47.91544152972244,226.27231670945923 47.883155568350304,225.82953781082458 47.47266263108778,225.82953781082458 47.47266263108778,225.24531565284528 47.47266263108778,224.77793792613195 47.47266263108778,224.0338233881156 47.02373402525017,224.0338233881156 47.02373402525017,223.58489478246128 46.57634284614456,223.58489478246128 46.57634284614456,223.14211588318514 45.979821274217585,223.14211588318514 45.676948208012256,223.14211588318514 45.64927452674449,222.69318727743916 45.229557028998286,222.69318727743916 45.229557028998286,222.20121072365518 45.229557028998286,221.79533006631377 44.88517344093714,221.79533006631377 44.333237244238354,221.79533006631377 44.333237244238354,221.3464014605678 43.88892091859676,221.3464014605678 43.88892091859676,220.62073604296899 43.88892091859676,220.00576535016629 43.36004612296971,220.00576535016629 42.99260113392846,220.00576535016629 42.99260113392846,219.56913615827636 42.99260113392846,219.10790813867433 42.59594503707072,219.10790813867433 42.09628134916853,219.10790813867433 42.09628134916853,218.65897953265343 41.64735274342255,218.65897953265343 41.64735274342255,217.7672720282728 41.19996156440859,217.7672720282728 41.19996156440859,216.42048621075998 40.75103295866262,216.42048621075998 40.75103295866262,214.6309214948874 40.306716633021026,214.6309214948874 40.30364177964865,213.29028538448586 39.85471317390268,213.29028538448586 39.85471317390268,211.77745748019123 39.85471317390268,211.49457096186853 40.30364177964865,211.49457096186853 40.30364177964865,208.8071490342291 39.85471317390268,208.8071490342291 39.85471317390268,208.3643701355944 39.410396848261094,208.3643701355944 39.410396848261094,207.91544152984844 38.96146824251512,207.91544152984844 38.96146824251512,207.0175843180816 38.514077063501155,207.0175843180816 38.514077063501155,206.56865571206072 38.065148457755186,206.56865571206072 38.065148457755186,206.12587681370096 37.85913327566628,206.12587681370096 37.617757278741216,206.12587681370096 37.617757278741216,205.7876429324762 37.16882867299525,205.67694820795498 37.16882867299525,205.2280196019341 36.72143749407292,205.2280196019341 36.72143749407292,204.5331027194336 36.72143749407292,204.33016239044215 36.27250888823531,204.33016239044215 36.25405976754287,203.8812337849711 35.82819256268536,203.8812337849711 35.82819256268536,202.54059767429465 35.37926395693939,202.54059767429465 35.37926395693939,200.43124819788974 35.37926395693939,199.85317574693013 34.93187277792542,199.85317574693013 34.93187277792542,198.75237820653837 34.93187277792542,198.51253963680352 34.48294417217945,198.51253963680352 34.48294417217945,196.27404631500167 34.93187277792542,196.27404631500167 34.93187277792542,193.58662438736224 35.37926395693939,193.58662438736224 35.37926395693939,192.2398385698494 35.617565100400434,192.2398385698494 35.82819256268536,192.2398385698494 35.82819256268536,191.34813106519385 36.27250888823531,191.34813106519385 36.27250888823531,189.39252426226454 36.27250888823531,188.21178053235826 36.540021139604484,188.21178053235826 36.72143749407292,188.21178053235826 36.72143749407292,186.85269530135594 36.72143749407292,183.73479388866298 37.16882867299525,183.73479388866298 37.16882867299525,183.48880561126697 37.16882867299525,183.285865282917 37.617757278741216,183.285865282917 37.617757278741216,180.14951474925667 38.065148457755186,180.14951474925667 38.065148457755186,178.80887863913006 37.81608532717009,178.80887863913006 37.617757278741216,178.80887863913006 37.617757278741216,178.37839915407653 37.617757278741216,177.46209282225868 37.16882867299525,177.46209282225868 37.16882867299525,176.5703853172366 36.72143749407292,176.5703853172366 36.72143749407292,176.12145671149062 36.43701354856003,176.12145671149062 36.27250888823531,176.12145671149062 36.27250888823531,175.80782165834452 36.27250888823531,175.6725281061112 35.82819256268536,175.6725281061112 35.82819256268536,174.77467089461925 35.37926395693939,174.77467089461925 35.37926395693939,173.43403478421772 34.93187277792542,173.43403478421772 34.93187277792542,171.74901508602997 34.93187277792542,171.19554146232426 34.762755837496314,171.19554146232426 34.48294417217945,171.19554146232426 34.48294417217945,170.31613337179968 34.48294417217945,168.9570481404308 34.03555299316549,168.9017007778953 34.03555299316549,168.05919092921377 33.76189103495992,168.05919092921377 33.58662438741951,168.05919092921377 33.58662438741951,167.64101085774138 33.58662438741951,167.16133371781345 33.38368405888626,167.16133371781345 33.13923320840555,167.16133371781345 33.13923320840555,166.5771115591927 33.13923320840555,166.26962621279134 32.69030460265958,166.26962621279134 32.69030460265958,165.51321226064402 32.69030460265958,165.37176900166597 32.245988277109625,165.37176900166597 32.19064091475738,163.8773902179721 32.17987892772497,163.58220428551846 31.79705967145529,163.58220428551846 31.720188334854953,161.82338810382782 31.697126933783213,161.343710963625 31.34966849234969,161.343710963625 31.34966849234969,158.65628903598554 30.900739886603716,158.65628903598554 30.900739886603716,152.83251657532725 31.34966849234969,152.83251657532725 31.34966849234969,151.9408090709466 31.79705967145529,151.9408090709466 31.79705967145529,152.38358796958127 32.245988277109625,152.38358796958127 32.245988277109625,152.83251657532725 32.69030460265958,152.83251657532725 32.69030460265958,153.28144518107322 33.13923320840555,153.28144518107322 33.13923320840555,156.86672431983806 33.58662438741951,156.86672431983806 33.58662438741951,158.2073604302396 34.03555299316549,158.2073604302396 34.03555299316549,159.38195445330945 34.03555299316549,159.5541462477524 34.48294417217945,159.5541462477524 34.48294417217945,159.88623042159094 34.48294417217945,160.44585375185812 34.93187277792542,160.44585375185812 34.93187277792542,160.89478235787902 35.376189103567015,160.89478235787902 35.37926395693939,161.343710963625 35.772845200333116,161.343710963625 35.82819256268536,162.23541846800563 36.27250888823531,162.23541846800563 36.27250888823531,162.6843470740265 36.72143749407292,162.6843470740265 36.72143749407292,163.13327567977248 37.16882867299525,163.13327567977248 37.16882867299525,163.58220428551846 38.065148457755186,163.58220428551846 38.065148457755186,162.6843470740265 38.514077063501155,162.6843470740265 38.514077063501155,154.21005092702202 38.514077063501155,153.28144518107322 38.789276448530366,153.28144518107322 38.96146824251512,153.28144518107322 38.96146824251512,151.51032958552653 38.96146824251512,148.3555299315403 39.26587873554409,148.3555299315403 39.410396848261094,148.3555299315403 39.410396848261094,144.7764004992453 38.96146824251512,144.7764004992453 38.96146824251512,144.25367541091285 38.96146824251512,143.4296146822823 38.75237820705384,143.4296146822823 38.514077063501155,143.4296146822823 38.514077063501155,142.60555395374342 38.514077063501155,141.1911213607554 38.065148457755186,141.1911213607554 38.065148457755186,140.29326414898853 37.83760930150982,140.29326414898853 37.617757278741216,140.29326414898853 37.617757278741216,139.89353319866677 37.617757278741216,139.4015566446079 37.16882867299525,139.4015566446079 37.16882867299525,139.1371192466111 37.16882867299525,138.05477082709507 36.72143749407292,138.05477082709507 36.72143749407292,137.16306332271444 36.27250888823531,137.16306332271444 36.27250888823531,136.93552416601088 36.27250888823531,136.26520611094756 35.82819256268536,136.26520611094756 35.82819256268536,135.36734889945564 35.37926395693939,135.36734889945564 35.37926395693939,134.92457000054605 34.93187277792542,134.92457000054605 34.93187277792542,134.0267127890541 34.48294417217945,134.0267127890541 34.48294417217945,133.57778418358305 34.03555299316549,133.57778418358305 34.03555299316549,133.12885557783707 32.69030460265958,133.12885557783707 32.69030460265958,134.0267127890541 32.245988277109625,134.0267127890541 32.245988277109625,134.52483905059083 32.245988277109625,134.92457000054605 31.497261458622337,134.92457000054605 30.900739886603716,134.92457000054605 30.900739886603716,134.47564139480008 30.244258672036835,134.47564139480008 30.00442010184378,134.47564139480008 29.959834726615586,134.0267127890541 29.557028922829815,134.0267127890541 29.557028922829815,133.57778418358305 28.659171711337873,133.57778418358305 28.659171711337873,133.12885557783707 28.21485538587956,133.12885557783707 28.21485538587956,127.31123282401515 28.659171711337873,127.31123282401515 28.659171711337873,125.51551840075635 29.111175170639495,125.51551840075635 29.111175170639495,124.36552320539857 29.111175170639495,123.72595368460885 29.557028922829815,123.72595368460885 29.557028922829815,121.48746036326521 29.111175170639495,121.48746036326521 29.111175170639495,119.24896704146339 28.659171711337873,119.24896704146339 28.659171711337873,117.45940232531589 28.457768809536624,117.45940232531589 28.21485538587956,117.45940232531589 28.21485538587956,116.61689247608454 28.21485538587956,115.66368790205709 27.935043720562692,115.66368790205709 27.767464206865593,115.66368790205709 27.767464206865593,115.07331603696649 27.767464206865593,113.87412318590958 27.31853560111962,113.87412318590958 27.31853560111962,113.53588930495974 27.31853560111962,112.53348707578297 26.871144422197293,112.53348707578297 26.871144422197293,111.90621696912422 26.871144422197293,111.18670125881998 26.68972806772886,111.18670125881998 26.42067838962768,111.18670125881998 26.42067838962768,110.11665225297672 26.42067838962768,109.39713654239756 26.242336888714895,109.39713654239756 25.973287210613712,109.39713654239756 25.973287210613712,108.44393196901157 25.973287210613712,108.0503507255262 25.811857403753006,108.0503507255262 25.528970884972125,108.0503507255262 25.528970884972125,107.35543384275078 25.528970884972125,106.70971461512467 25.264533487066963,106.70971461512467 25.076967425853777,106.70971461512467 25.076967425853777,106.25463630254231 25.076967425853777,105.81185740335782 24.897088498208987,105.81185740335782 24.632651100212186,105.81185740335782 24.632651100212186,105.15998846926186 24.632651100212186,104.47122129323121 24.360526568646993,104.47122129323121 24.183722494466217,104.47122129323121 24.183722494466217,104.02844239459654 24.183722494466217,103.57336408146435 24.003843566821427,103.57336408146435 23.734793888720244,103.57336408146435 23.734793888720244,102.88459690598351 23.734793888720244,102.23272797133774 23.479581051207123,102.23272797133774 23.287402709706278,102.23272797133774 23.287402709706278,101.74690112429852 23.287402709706278,101.33487076012071 23.12597290284557,101.33487076012071 22.83847410396031,101.33487076012071 22.83847410396031,100.60305563577712 22.83847410396031,99.99423464944427 22.597098107126886,99.99423464944427 22.39108292503798,99.99423464944427 22.39108292503798,99.47150956083688 22.39108292503798,99.09637743795233 21.94215431920037,99.09637743795233 21.94215431920037,98.32766407194894 21.94215431920037,97.7557413278257 21.71922744315103,97.7557413278257 21.494763140278042,97.7557413278257 21.494763140278042,97.19611799755853 21.494763140278042,96.40895551067943 21.048909387904448,96.40895551067943 21.048909387904448,96.05842221587353 21.048909387904448,95.51724800629879 20.836744499070793,95.51724800629879 20.601518208890482,95.51724800629879 20.601518208890482,94.89612760610987 20.601518208890482,94.17046218878596 20.337080811168597,94.17046218878596 20.15258960314451,94.17046218878596 20.15258960314451,93.660036513943 20.15258960314451,92.82982607865935 19.705198424130547,92.82982607865935 19.705198424130547,92.4300951283376 19.705198424130547,91.48304026114653 19.256269818384574,91.48304026114653 19.256269818384574,91.2001537427322 19.256269818384574,90.83117132705057 19.256269818384574,90.59133275649097 19.036417795799245,90.59133275649097 18.808878639370608,90.59133275649097 18.808878639370608,89.96406265010712 18.808878639370608,89.24454693925306 18.35995003362464,89.24454693925306 18.35995003362464,88.92476217899565 18.35995003362464,88.3528394345975 18.113961756595195,88.3528394345975 17.912558854610673,88.3528394345975 17.912558854610673,87.88546170852564 17.912558854610673,84.76756029610758 17.466705102420352,84.76756029610758 17.466705102420352,83.42692418570606 16.570385317752052,83.42692418570606 16.570385317752052,82.97799557996008 16.122994138554812,82.97799557996008 16.122994138554812,82.5290669742141 15.604881329868537,82.5290669742141 15.226674353794877,82.5290669742141 15.226674353794877,82.08013836819322 14.777745748048904,82.08013836819322 14.777745748048904,81.18228115670128 14.33342942259059,81.18228115670128 14.33342942259059,80.73950225806661 13.886038243576627,80.73950225806661 13.881425963288967,79.84164504629976 13.437109637830654,79.84164504629976 13.437109637830654,78.05208033015225 12.98971845872505,78.05208033015225 12.98971845872505,77.08657634254365 12.98971845872505,75.81358700880861 12.540789853070718,75.81358700880861 12.540789853070718,75.36465840306265 12.37474776592235,75.36465840306265 12.14720860958535,75.36465840306265 12.093398673965115,74.9157297974083 11.927356586908385,74.9157297974083 11.644470068219142,74.9157297974083 11.644470068219142,74.34995675948 11.636782934650746,74.01787258564146 11.459978860378333,74.01787258564146 11.197078889205178,74.01787258564146 11.197078889205178,73.57509368664023 10.75122513692322,73.57509368664023 10.722014029015092,72.67723647551485 10.299221677713234,72.67723647551485 10.299221677713234,72.24060728335 10.299221677713234,71.90852310951146 10.299221677713234,71.77937926374798 9.85490535225492,71.77937926374798 9.791870856242644,71.07216296739142 9.774959162098932,70.88767175936734 9.407514173240957,70.88767175936734 9.407514173240957,70.0697607375732 9.407514173240957,69.54088594185451 9.167675602956265,69.54088594185451 8.958585567494984,69.54088594185451 8.958585567494984,69.07350821578265 8.958585567494984,68.64917843747388 8.76640722599414,68.64917843747388 8.51119438848102,68.64917843747388 8.51119438848102,68.07725569335064 8.51119438848102,67.30239261996104 8.322090900352551,67.30239261996104 8.062265782735048,67.30239261996104 8.062265782735048,66.40453540874401 7.61487460381272,66.40453540874401 7.539540693761114,64.11684443142633 7.528778706637067,63.723263187940965 7.165945997975111,63.723263187940965 7.165945997975111,56.552704910044746 7.61487460381272,56.552704910044746 7.61487460381272,54.959930815502474 7.61487460381272,54.76314019417216 8.062265782735048,54.76314019417216 8.062265782735048,52.97357547774975 8.51119438848102,52.97357547774975 8.51119438848102,52.07571826662436 8.062265782735048,52.07571826662436 8.062265782735048,51.817430575372306 8.062265782735048,51.62678966087839 7.61487460381272,51.62678966087839 7.61487460381272,51.18401076187716 7.165945997975111,51.18401076187716 7.150571730563406,50.2861535505685 6.717017392229139,50.2861535505685 6.717017392229139,49.837224944730885 6.27270106658755,49.837224944730885 6.27270106658755,49.38829633871 5.825309887665223,49.38829633871 5.825309887665223,47.598731622562504 5.376381281827613,47.598731622562504 5.376381281827613,44.46238108972692 4.928990102905286,44.46238108972692 4.928990102905286,41.25223407293027 4.928990102905286,39.98539444603162 4.707600653404676,39.98539444603162 4.47852407033567,39.98539444603162 4.47852407033567,38.68165657692334 4.47852407033567,37.322571345829374 4.47852407033567,36.40626501401154 4.031132891321705,36.40626501401154 4.031132891321705,36.10492937435494 4.031132891321705,34.610550591027646 3.7590083597565096,34.610550591027646 3.5822042855757332,34.610550591027646 3.5822042855757332,33.872585759297856 3.5822042855757332,33.26991448035121 3.134813106653406,33.26991448035121 3.134813106653406,31.990775439596504 3.134813106653406,31.480349764203712 2.6904967810118166,31.480349764203712 2.6904967810118166,30.379552224086876 2.6904967810118166,29.684635341586375 2.481406745550536,29.684635341586375 2.241568175265845,29.684635341586375 2.241568175265845,28.88517344075959 2.241568175265845,28.343999231459765 2.0770635149411225,28.343999231459765 1.7926395695198734,28.343999231459765 1.7926395695198734,27.30469876007337 1.7926395695198734,26.554434515312266 1.5912366677186265,26.554434515312266 1.3452483905059083,26.554434515312266 1.3452483905059083,25.638128182578054 1.3452483905059083,24.758720092053466 1.1115595273325198,24.758720092053466 0.8963197847599367,24.758720092053466 0.8963197847599367,23.977707312194035 0.8963197847599367,23.41808398165194 0.4489286057459717,23.41808398165194 0.4489286057459717,22.354184683103266 0.4489286057459717,21.62851926550444 0.2506005573171006,21.62851926550444 0,21.62851926550444 0,20.73066205428741 0,20.644566157569948 0.44431632564158924,20.029595464767247 0.8440472758717071,19.80205630833861 1.0946478331888077,19.50072066868201 0.9639665610598716,19.045642355916375 0.8963197847599367,18.676659940143114 1.0454501777645917,18.41837224953253 1.3990583262177825,18.172383972411453 1.9217834150084405,18.086288075419073 2.458345344478797,18.22158162765239 3.28548092629843,18.738157009515024 3.663687902372091,19.562217737779005 3.4699721342308782,21.081195349368226 3.7467089459004557,23.27664072230732 5.33025847986741,25.39828961284319 7.664072259145299,26.246949168910916 10.81118477956312,28.694532526265665 13.593927164403706,29.752282117703036 14.710098971840607,29.91217449764846 15.760161429801219,29.73998270384698 15.978476025746177,29.161910252337528 16.33208417419937,28.774478716238377 16.5980589987449,28.47929278341817 18.18007110597985,27.839723263178275 20.59690592869446,26.683578360434282 21.590083597570825,25.804170269909694 22.498702796186816,25.293744594883453 23.768617276916032,24.90631305850939 24.595752858735665,24.758720092053466 25.292207168243085,24.820217161425372 25.733448640329023,24.79561833398818 30.542519458046144,23.20899394619066 32.64879408098703,22.434130873350895 33.557413279603026,21.862208129227657 34.183145959438136,21.265686556842486 34.59210147015193,20.263284327940635 34.89497453635726,19.91275103285982 35.22859613729436,19.63601422128188 35.43614874602364,19.556068031217528 35.7697703468691,19.57451715163506 36.57384452780027,19.69751129056215 37.670029787721084,19.968098395120425 39.222830786956266,20.712212933686608 39.90237340250325,21.019698280087958 40.55731719033813,21.167291245902415 42.07168252145642,21.413279523573323 43.0095128278889,21.33948304034536 43.95964254826907,21.001249158845688 44.5961372154115,20.56461996695577 44.75910444891258,20.1218410683211 44.75141731525255,19.80820601508336 44.723743634168066,18.52906697405374 44.73604304802412,17.987892764479003 45.251081003154745,17.748054194194314 47.70635149416953,17.071586432019703 50.15239742479227,16.21062746218756 51.00566926105602,15.915441529642264 51.6990487172827,15.76784856318634 52.89055443458793,15.60180647612961 53.59469587784703,15.398866147779632 53.76842509856379,15.325069664276757 53.880657249908644,15.202075525899492 54.06053617755344,14.716248678860271 54.12203324701698,14.593254540116456 54.254251945877925,14.494859229542937 54.458729701143184,14.433362159896117 54.68473143083982,14.427212453059727 55.00451619109722,14.482559815595247 55.637936004684,14.728548092716327 56.11453829151446,14.98683578332691 56.50965696173183,15.411165561360773 56.598827712188225,15.780147977408944 56.56654175072444,16.24137599701097 56.4343230518635,16.831747861735014 56.27904295193082,17.237628519351347 56.16834822713469,17.483616796472425 56.172960507330714,17.649658883529156 56.36206399545918,17.92024598799579 56.823292015061206,18.153934851535734 57.34294225047949,18.246180455089586 57.65657730380887,18.252330162475804 58.234649755135045,18.21543192054109 58.61900643813673,18.135485730568377 59.16633035454786,17.91409628125104 59.5614490246736,17.60046122773839 59.976554242407055,17.12693379428031 60.716056500410666,16.155280099926955 61.04814067452413,15.183626404932136 61.31565292598494,14.660901316599666 61.68924762177094,14.310368021518851 61.98904583451226,14.16277505533784 62.264245219541465,14.144325934462122 62.502546363002516,14.193523589611425 62.9330258479644,14.390314211216651 63.12520418946525,14.55635629827338 63.4557509368467,14.931488421341218 64.28442394539834,16.413567790537538 64.40126837712249,16.671855481789585 64.44892860572307,16.95474200075374 64.42279235146222,17.243778226187736 64.2536754107582,17.569712693556443 64.13221869902131,17.88334774642763 64.1383684058577,18.04938983348436 64.40126837712249,18.375324300853066 64.83174786208438,18.51676756019769 65.25761506675862,18.590564043334012 65.7572787546608,18.602863457281703 66.06168924768978,18.5475160950211 66.65052368604837,18.332276352173604 67.022580955194,18.11088690313118 67.24858268470736,17.994042471223754 67.63293936770904,17.828000384167026 68.07110598633098,17.74190448708301 68.50773517831253,17.74190448708301 68.67531469210127,17.78495243548756 69.41942923048417,17.963293936675257 70.42029403283729,18.252330162475804 70.79850100891095,18.38147400759782 71.52724127988215,18.535216680798495 72.16681080048859,18.61516287113776 73.0646680118889,18.71355818207783 73.58739310086284,18.72585759593388 74.03785913334082,18.652061112431007 74.42836552327053,18.535216680798495 74.66359181326756,18.430671663113674 74.84347074091235,18.313827231756072 75.0356490824132,18.09243778188891 75.17094263482979,17.864898626010103 75.45382915361067,16.930143172949997 75.58758527920362,16.45046603247225 75.71365427113653,16.19832804860642 75.83818583661235,16.07533390958769 75.97501681557769,15.995387719614977 76.1610454501505,15.96463918506648 76.48390506396356,15.93389065060962 76.71298164694093,15.93389065060962 77.09118862301459,15.927740943223403 77.7015470357129,15.952339770935513 78.0520803305188,15.995387719614977 78.68550014410559,16.155280099926955 78.9899106372262,16.235226289624755 79.8708561544828,16.641106946966175 80.42586720473723,16.930143172949997 80.93168059956746,17.12693379428031 81.27452676089659,17.176131450071075 81.54818871910216,17.19458057067188 81.96021908337161,17.23147881233168 82.54136638797853,17.19458057067188 82.7550687038191,17.182281156540913 83.85740367066795,17.1023349665682 85.54857307587537,17.010089363014348 85.64696838663217,11.745940232256675 85.2241760353303,6.057461323831691 85.69155376186036,5.491688286819757 86.47871624864781,5.159604112339748 94.98991063712884,1.5497261458628064 99.38233881038049,0Z"/></svg>