<svg xmlns="http://www.w3.org/2000/svg" width="256" height="256"><path d="M149.58887061647184,0 153.32521445380752,2.6056269162432066 157.6454064623412,5.245388683517635 158.7761233830906,5.9337748342675365 158.9560424906926,6.024801102186437 159.84212631655564,6.457175873974662 160.59522645433955,6.627850126333198 160.74741099595948,6.639228409812463 163.8095915373169,7.299168851440327 166.1940530690253,8.016000711057943 167.0111560512966,8.044446419586558 167.51962309427498,8.016000711057943 167.8062136093242,7.987555002190229 168.02666785173497,7.9647984354860215 168.33388150567384,7.947731009843249 168.754877994408,7.913596159659776 173.2827236764383,7.862393884087855 174.29539090609296,8.351660073611507 175.53917951900496,8.886439397052223 177.01977865674442,9.540690697110003 179.671629850046,10.780923596434745 180.92893017450487,11.611538290421143 182.65131783617872,12.015467353850303 182.95853149020368,12.043913062463693 182.85399351065314,12.499044401549547 182.7736343836656,12.749366638347718 182.7601226719492,13.067958575512835 182.82270323116995,13.363793945973743 182.93150806685566,13.972532112029686 183.17614116165987,14.38783945927721 183.34183741482667,14.740566247219224 183.54735766017092,15.275345570405614 183.5566025155826,15.6451397839904 183.55518023006292,15.906840303928737 183.3119694206936,16.379039068148714 183.10644917543414,16.629361304946887 182.767945241926,17.15276234465401 182.68971954292127,17.289301746489976 182.42588559491534,18.097159873263518 182.42019645300616,18.42713009441655 182.38748388800326,18.597804346775085 182.368283034632,18.95622027637196 182.45433130352873,19.33739277258826 182.53326814508134,19.638917284958353 182.58873727704278,19.98595493099118 182.61078270128385,20.270412017972827 182.6434952663715,20.583314813822184 182.647050979874,20.867771900803827 182.68260811574672,21.271700964232988 182.58731499160785,21.470820924950587 182.4472198762694,21.80648028750415 182.30499133277857,22.181963642404696 182.21112049415942,22.705364682705245 181.90248455478434,23.837503888722637 181.7204320191161,24.946886527781498 181.4459309301788,26.613805057578706 181.50922263194744,26.767411884548793 181.60593804160598,26.90395128646953 181.95653140131085,27.26805635789081 182.0994710875191,27.427352326685305 182.2068536377699,27.552513444872453 182.35477132316993,27.632161429312088 182.46784301507557,27.899551090905284 182.50340015094827,28.263656162326562 182.4799324412723,28.57655895817592 182.40952931224433,29.23649939971901 182.34125961145352,29.623361038183592 182.31281390275535,29.947642117173118 182.26232276973133,30.220720920675493 182.20543135241846,30.48811058260779 182.20543135241846,30.63033912609861 182.2068536377699,30.840837370465028 182.18907506983356,31.09684874866373 182.10089337286925,31.352860127031985 182.10089337286925,31.46095381974591 182.1293390816522,31.876261166739113 182.18623049896374,32.046935418843326 182.19049735526846,32.217609671201856 182.19049735526846,32.741010711163305 182.1961864970081,32.9515089556145 182.2530779144892,33.167696341635775 182.12009422624052,33.40664029470035 182.21396506494446,33.57162540514971 182.45859815974868,33.80488021655943 182.63069469737258,34.100715587274664 182.66767411876629,34.36810524895263 182.68687497205144,34.61273834384162 182.6456286944391,34.93133028100674 182.53966842953844,35.22147650989756 182.4735321568152,35.34094848634508 182.32134761528002,35.47748788826582 182.19334192622307,35.63678385680599 182.073869949606,35.79607982543094 181.94444197511413,35.96106493613461 181.84772656545425,36.1317391879845 181.87403884608617,36.2796568733845 181.9963553934035,36.4560202670588 182.18267478546124,36.67220765358872 182.50340015094827,37.01355615754282 182.57522556541113,37.17854126799217 182.6022489887592,37.39472865460687 182.60793813049747,37.55402462289272 182.6349615536773,37.71900973334207 182.76581181368886,37.88399484413053 182.86608293684986,38.122938796856005 182.86466065141497,38.36757189199932 182.82270323116995,38.54962442732847 182.6918529711584,38.73167696291195 182.57522556541113,39.095782034333226 182.57522556541113,39.38592826347838 182.442241877332,40.125516689206776 182.87177207858952,41.22921018669555 183.17614116165987,42.09395973111975 183.20032001413807,42.53202364507148 182.97773234349017,42.924574425360476 182.53469043051626,43.76656740282614 182.40241788506978,44.08515933999126 182.2530779144892,44.41512956122906 181.51775634464167,45.93413040537194 181.40610693800136,46.258411484446235 181.21338726148653,46.77043424143707 181.11382728104294,47.145917596083294 181.10031556941132,47.51571180915943 181.06760300449187,48.01635628216235 180.92110760461287,48.52837903864453 180.86777190080383,48.86403840145242 180.7888350592512,49.25658918123276 180.68856393609016,49.91084048179919 180.47095426446444,51.73705498013657 180.35006000258335,51.89066180710665 180.24409973768135,52.21494288592663 180.20569803085272,52.83505933571616 179.9802657894211,53.99564425068604 178.1981421394811,59.51411173821471 177.7920796478148,60.57798124361083 177.347615449406,61.26067825219722 177.32130316894495,61.32325881124841 177.12147206534036,61.6247833236185 177.08662607210033,61.664607315626384 176.9187963908646,61.988888394955005 176.86617182977432,62.04577981192746 176.82919240838194,62.0742255210495 176.78723498805215,62.14249522200987 176.76518956389586,62.18231921376342 176.62153873488535,62.33023689890911 176.32641450722667,62.5805591359616 175.99999999991522,62.859327080779735 175.96088715037047,62.89346193121753 175.8968843057996,63.00155562427056 175.7909240408976,63.16085159314983 175.77030090217755,63.2006755854968 175.7489666205678,63.28032356993644 175.73901062260825,63.37134983751624 175.6700297791013,63.58184808171311 175.61313836153542,63.68994177502046 175.34219298627016,63.96302057852284 175.07053646820404,64.19058624776905 174.756211387088,64.45797590961658 174.65736254927708,64.5660696026696 174.37575003316527,64.79932441407932 174.00311124930408,65.03257922523471 173.6788301702298,65.29427974551216 173.3957953685135,65.59011511597306 173.08289257283369,65.86319391947544 173.03524601076427,65.92577447852663 173.01533401467555,65.97128761269802 172.90652917898984,66.31832525881562 172.8901728964884,66.59709320363376 172.8901728964884,66.64829547946 173.00324458864839,66.92137428296238 173.06013600587383,67.04084625974899 173.0871594291384,67.10911596062459 173.09427085631296,67.22289879533247 173.04662429424354,67.33099248804639 173.02173429913395,67.3651273388233 172.99186630499958,67.39926218900676 172.94706431379996,67.50735588231412 172.95133117010468,67.71216498485613 172.9783545934527,69.24823325438746 173.21800968914997,69.82283657051424 173.5927819012483,70.43157473623108 174.08204809085672,71.47837681649308 175.0556024710514,74.32863682796437 175.96728743482757,76.54171296476635 176.08178141233898,78.23138806126775 176.2083648161306,79.68780834695288 176.2531668072428,80.18845281995578 176.29227965687363,80.416018489202 176.58882616988245,81.04182408090072 176.40250677790948,83.38575047771424 176.43095248660765,83.50522245390744 175.97297657656586,83.6986532732245 175.9324414416723,83.72709898183788 175.77883461470222,83.78967954088907 175.64798435469066,83.85794924184944 175.33010356007347,84.11396061996338 175.0321347613754,84.38135028215 174.83017022961843,84.64305080183401 174.70643139678143,84.78527934532482 174.6722965464284,84.81941419610172 174.64740655123273,84.8535490462852 174.627494555144,85.11524956656262 174.65309569297105,85.41108493676921 174.658784834712,85.4736654958204 174.66518511916908,85.66709631488315 174.6722965464284,85.73536601609784 174.68438597262514,85.77519000819049 174.68723054341015,85.9231076932514 174.6801191163204,85.9799991107325 174.55780256883352,86.33272589892884 174.3814391749049,86.6683852614824 174.19369749758178,86.99835548212678 173.9490644026928,87.29419085284202 173.66602960123083,87.55020223095595 173.4704653539323,87.66967420723391 173.42424107721035,87.69243077444678 173.35526023361862,87.75501133383706 173.1604071290362,88.06222498752291 173.07364771759157,88.15894039726622 173.00324458864839,88.21583181423867 172.9363971731229,88.2727232319741 172.9214631759716,88.34668207450456 172.81834748202553,88.67665229540326 172.69603093453733,89.03506822525445 172.6889195074489,89.28539046171353 172.91861860518657,89.41624072147076 173.31543624152596,89.60398239921774 173.69091959625695,89.79741321828048 174.06995866482956,90.0591137379645 174.2726343391344,90.16720743101752 174.68438597262514,90.29805769102909 175.10182674768592,90.4232188096401 175.52709009280824,90.55975821130652 175.89403973501456,90.76456731384853 176.26098937722088,90.99213298360338 176.61087159420964,91.20832036970944 176.98706609165674,91.43588603895566 177.355438019298,91.66914085036538 177.71456509178185,91.89670651986592 178.05306902512046,92.11858304779638 178.07440330673018,92.15840703988903 178.12347215431797,92.20960931546095 178.10711587164698,92.27218987502079 178.10427130086194,92.33477043381765 178.1206275832786,92.72732121385232 178.15191786293136,92.85817147386388 178.34748211023256,93.21658740337597 178.3652606781676,93.2791679629358 178.37877238971444,93.41001822294736 178.3439263965592,93.66602960106128 178.08933730371064,93.99031068038991 177.7920796478148,94.24632205858862 177.57446997627386,94.57060313791725 177.5360682696161,94.63318369696843 177.26014489515913,94.8778167916031 177.05391350709743,95.07124761092015 176.70047557660752,95.30450242207556 176.60091559607918,95.3557046979018 176.21120938691564,95.54913551696454 175.80870260883663,95.75394461925222 175.5406018043551,95.86203831281391 175.09471532059482,95.96444286395774 174.8273256588334,96.03271256457901 174.4696208718692,96.23752166746013 174.1595626470579,96.52766789601185 173.86586070475067,96.78936841603496 173.5074447751538,97.03400151066963 173.32894795315758,97.15916262902633 172.9278634604287,97.35828258999825 172.52464553963355,97.51757855887752 172.1235610469881,97.70532023603108 171.81208053691276,97.96133161465366 171.65207342548558,98.12062758302427 171.71820969803926,98.1718298585962 171.8092359658734,98.26854526867861 171.95644250838637,98.38232810330172 172.3233921505927,98.57006978045527 172.66687408312305,98.81470287559858 172.71096493168997,98.8374594426419 173.0871594291384,99.07640339536738 173.25285568230655,99.13898395441856 173.2976576735896,99.14467309632775 173.35383794818372,99.14467309632775 173.72078759039002,99.15036223789782 173.76701186710932,99.17311880519546 173.91492955233846,99.23001022233747 173.96968754149896,99.24138850607106 174.03297924343715,99.24138850607106 174.32668118566093,99.24707764772592 174.37717231868362,99.26414507311436 174.42481888075437,99.29827992329783 174.61611627166477,99.41775190008445 174.879950219925,99.49171074236058 174.9425307789762,99.49739988418499 175.17791901853826,99.50877816774903 175.29454642420208,99.5258455930527 175.3542824124669,99.54291301793249 175.53562380533424,99.60549357698369 175.99075514450487,99.73634383699525 176.04622427646495,99.7477221204745 176.10382683657875,99.7477221204745 176.43806391378217,99.7249655537703 176.8021689851187,99.73065469534038 176.8455486908834,99.73634383699525 177.0588915061196,99.76478954611729 177.2139206185246,99.79323525473067 177.3035246010086,99.78185697116663 177.347615449406,99.78185697116663 177.4450420016972,99.78754611282149 177.49268856376796,99.79892439630075 177.5360682696161,99.8159918216892 177.734477087701,99.87857238048606 177.81910307116283,99.9013289474446 177.85963820597294,99.91270723117819 178.04737988338084,100.01511178232202 178.12489443958333,100.06062491632386 178.48259922646275,100.24836659398608 178.57718120788414,100.37352771217323 178.58713720592849,100.41904084583597 178.56366949625118,100.57264767280604 178.52740121766234,100.6466065156756 178.3368149695542,100.95382016961577 178.2863238364454,101.06760300423888 178.2770789812033,101.3349926660864 178.2443664161156,101.66496288706988 178.25930041326694,101.70478687916254 178.29201297818506,101.73892172934602 178.33112582764502,101.77305658003813 178.20880928024292,102.33059247052215 178.16045157545602,102.52402328983922 177.7181208051996,103.7130539130834 177.45997599876372,105.16378505660501 177.19258633708577,105.86354949057984 176.8604826880347,106.81363616160718 176.50846704281014,107.46788746132586 176.34845993138296,108.53744610829207 176.14436197147364,110.5229565755935 174.91266278484312,114.45984265958899 174.8529267965783,114.47122094306826 174.79745766470165,114.49397751011156 174.64313969501146,114.56793635238769 174.68580825806004,114.63620605360238 174.69647539882183,114.7101648958785 174.68865282884508,114.81825858918586 174.64882883675241,114.89221743171632 174.4681985864343,115.24494421965832 174.2655229121281,115.546468731435 174.0877372327659,115.8764389526728 173.8935952707327,116.20072003200143 173.68665273995222,116.52500111107572 173.61624961092429,116.68429707936157 173.06653629041702,117.2133872612322 171.30219120841338,119.35819369707379 170.1074714430057,120.16605182410166 167.5153562379716,122.33930396881097 165.91670740904863,123.72745455353571 163.2065425129158,125.16680741323896 161.94213076119763,125.86088270589804 159.72621005361063,127.97155429121706 159.88550602232033,130.09929330175498 159.81225832242123,131.56140272901018 159.7902128981815,132.12462776080997 159.1622738786695,134.12151651184496 158.70003111232433,135.9818658604506 156.84181519170153,138.14373972168065 155.20263122788504,140.5274901102477 154.54624649967488,141.3125916704866 151.00760033762324,143.99217742959937 149.54904662412486,145.30068002988446 148.4197519888925,146.0914707317782 148.217076314332,146.21663184988057 146.8267923017953,147.7299435527077 143.9623094358054,150.25592248535904 142.1737855014931,152.2528112358006 140.29210187102473,154.3919285298178 139.66416285151408,155.12582781423043 139.3270812034395,155.4102849012121 139.14218409690145,155.62647228723336 136.119116405004,157.94764211708835 134.3711276055018,159.67145206436666 134.33059247060692,159.7226543401929 133.5341126271431,160.7296324278536 133.3790835147381,160.80359127038403 133.09320414223677,161.0311569398846 132.83932619219044,161.3554380192132 132.63025023317417,161.67402995671742 132.58402595653965,161.80488021672898 132.50366682963687,162.06089159509725 132.36499399956378,162.23725498877153 132.1907640337875,162.47050979992693 131.97173207681166,162.72652117829517 131.76407840331504,162.84599315482748 131.54931330272737,162.94270856465556 131.41988532806727,162.98822169831828 131.30468020792446,163.07355882458234 131.27623449922498,163.15889595067682 131.24352193413864,163.25561136042015 131.20796479826595,163.34663762808472 131.13756166923798,163.46610960436269 131.0749811101868,163.58558158114928 131.01382283640098,163.6993644157724 130.9064402860654,164.01226721162175 130.79905773572983,164.3934397083467 130.754255744615,164.52997911001313 130.64118405253978,164.67220765350396 130.5978043466903,164.78599048812706 130.54873549918597,164.89977332275015 130.46979865763333,165.04200186624098 130.3204586868832,165.22974354398798 130.2415218452458,165.3776612293032 130.12773901045315,165.51988977279402 129.8759944884744,165.81003600143052 129.5182897015963,166.22534334842373 129.33197030970678,166.48135472653766 129.27507889222568,166.59513756116075 129.22245433113406,166.7430552468151 129.1321392060174,166.87390550682665 129.0098226586153,166.99337748301983 128.8441264054485,167.15267345164477 128.66918529703955,167.23801057816314 128.29654651300882,167.44850882210568 127.6671852081467,167.78985732682276 127.28103471256912,167.96622072049706 126.53504600195976,167.9832881458855 126.10267122974766,168.21085381538603 125.80754700191943,168.41566291792805 125.30192452989434,168.91061824936088 124.99044401956466,169.21783190355538 124.86030490227056,169.2064536198218 124.68180808018958,169.1495622026798 124.56233610374206,169.06422507633098 124.41584070386175,168.97888795032125 124.28214587306515,168.86510511569816 124.14489532851172,168.7854571312585 123.80923596595817,168.63753944585852 123.59304857976734,168.51806746958056 123.34983777039803,168.29619094173486 123.17987466101127,168.1312058309464 123.06964753972112,168.04586870493668 122.94377527881518,167.9263967284044 122.72332103640706,167.76710075977945 122.4146850969472,167.61349393280938 122.08969287515545,167.49402195636185 121.6736743853587,167.43144139697156 121.3664607315033,167.391617405218 120.93550824472611,167.35179341287102 120.53229032392963,167.32334770425763 120.29974665532214,167.33472598748259 120.03306813627684,167.32334770425763 119.74789990649298,167.33472598748259 119.56940308441199,167.34610427096186 119.38735054882851,167.39730654653377 119.0161340502327,167.5167785233204 118.61149384408608,167.56229165698312 118.35334903756413,167.60211564907578 117.88826170043393,167.72158762560807 117.63651717837172,167.897951019791 117.5142006310544,168.04586870493668 117.35561580506211,168.37583892608973 117.27952353420976,168.4554869100207 117.14867327428297,168.69443086333962 116.90546246491367,168.92768567474934 116.57762567208255,169.1495622026798 116.2391217385744,169.3031690296499 115.79750211112017,169.4681541398449 115.46326503383196,169.6843415258662 115.1233388148889,169.9289746210095 114.89648428810581,170.17360771564415 114.62696119810593,170.44099737757645 114.56580292440488,170.56046935376963 114.33752611210211,170.91888528362085 114.10000444447243,171.32281434705 113.89875105543292,171.62433885916576 113.71669851984944,171.80639139474926 113.23098804382829,172.21600960034192 112.50277790124005,172.67114093917345 112.40037334984189,172.72234321474537 112.04337970559516,172.78492377430518 111.8691497398189,172.84750433344115 111.73474376622006,172.91577403431674 111.64229521303581,173.0181785854606 111.52637895000468,173.33108138105564 111.25045557571727,173.74069958639396 111.06058047015834,173.86017156267195 110.84581536940243,173.95119783059084 110.60900484449022,174.01377838989634 110.38641717401185,174.03653495693965 110.10622694325016,174.03653495693965 109.88292813005434,174.03653495693965 109.60060447114029,174.04791324041892 109.15471798729656,174.03653495693965 108.94137517206033,174.03084581503046 108.00977821228022,173.97395439754936 107.66060713801025,174.01377838989634 107.40388461692454,174.16169607504202 107.19694208623017,174.3778834610633 107.0419129737404,174.5258011464633 106.82857015850416,174.74767767439377 106.52420107543381,175.16867416295705 106.35139339526201,175.28814613974367 106.11813858385361,175.40761811627596 105.64238410579071,175.5953597934295 105.26974532184477,175.8741277387563 104.44197519881295,176.5454464642025 104.16036268261503,176.79576870040728 103.84532645878551,177.43864171715535 103.68460820480911,177.7686119378845 103.55304680199532,177.9506644737223 103.35321569830595,178.20098671052045 103.1697408772041,178.42855237976667 102.66767411868018,178.77559002579952 102.45859815974868,178.94057513624887 102.24809991538226,179.33312591628354 101.87972798774102,179.62896128674444 101.72754344628929,179.98737721651088 101.38619494182787,180.21494288609617 101.20129783537458,180.3002800121059 100.93604160168074,180.40837370541325 100.55131339153675,180.49371083116864 100.29743544140563,180.5107782565571 100.11396062030248,180.48802168985287 99.93048579919932,180.41975198863818 99.77118983057437,180.2945908705358 99.63393928602095,180.19787546070773 99.50877816774903,180.15805146861507 99.25987821664009,180.07840348417545 99.01951197822537,180.01582292512427 98.3361038266672,179.97030979146152 97.75296679835483,180.01013378355418 97.42797457647963,179.9816880749408 97.14493977493157,180.01013378355418 96.86901640064414,179.97030979146152 96.66491844065004,179.95324236581874 96.46508733713021,179.97030979146152 96.29796879844372,179.98737721651088 95.97226543384974,179.98737721651088 95.66078492360484,179.8508378146749 95.29525756683343,179.6460287121329 94.92830792462843,179.45828703489457 94.61256055807749,179.4184630425476 94.34232632544492,179.42415218420243 94.18018578586539,179.45828703489457 93.9533312590823,179.5493133023048 93.47615449558582,179.92479665720535 92.3945064224229,180.89195075328203 91.35694919765734,181.5234454863813 91.19551980071049,181.66567402987212 90.98715498449644,181.80221343119942 90.73469931988633,181.94444197469025 90.59318191911163,181.9956442505165 90.4545090891233,182.0582248095677 90.36774967767869,182.1378727940073 90.23832170301726,182.2345882038354 90.96582070305759,182.86608293684986 91.4031734742071,183.17329659053573 92.12925018872774,183.63980621335517 93.09284857096283,184.62971687588174 93.49962220526048,184.99382194730302 94.05004666857128,185.50015556196078 94.58695942033391,186.02924574383144 95.25543357474078,186.50144450856004 96.53620160887563,187.23534379297269 96.90599582186698,187.52549002152443 97.22245433113406,187.78150139997746 97.39099515534024,187.99199964434388 97.7551002265072,188.45850926665466 98.07226987857649,188.70883150345284 98.35601582284069,189.01604515713868 98.6603849058276,189.27205653576127 99.10769367518968,189.7556335834605 99.15249566630452,189.86372727676786 99.71145384222345,190.66020711997737 99.80248011014234,190.79674652181333 99.82665896262056,191.0356904748779 99.83803724601505,191.34290412856376 99.94257522539603,191.67287434980156 102.1094270854787,194.61416062885266 102.79994666421142,195.71785412659577 103.46557624766369,196.73621049773573 104.2556558067552,197.5156229164045 104.59131516956309,197.82283657009037 106.60171563163631,199.4499311075406 107.73527712325816,200.17245210847398 107.77510111543559,200.20089781734168 107.81848082120028,200.22365438455455 107.89883994827261,200.27485665987214 108.11218276350884,200.42846348684222 108.18258589270634,200.4682874791892 108.21814302857905,200.4910440462325 108.36890528450976,200.60482688110994 108.6953197918212,200.86083825896955 109.02955686910941,201.09409307037927 109.0700920040043,201.12253877924698 109.10991599609694,201.14529534595118 109.1447619892522,201.16805191290973 109.17747455433987,201.19649762177744 109.25214453958777,201.24769989734935 109.33819280856927,201.2989021729213 109.3773056578597,201.3330370236134 109.49037735001967,201.4183741497079 109.8096804300718,201.66300724434257 109.89430641353361,201.71989866207798 109.9319969774739,201.73696608687303 109.96755411334661,201.75972265408586 110.00311124921932,201.78247922112917 110.04506866954911,201.80523578783337 110.0884483753138,201.82230321347615 110.26267834125962,201.85074892175044 110.3672163206406,201.9531534734877 110.46250944477944,201.981599181762 110.51513400578627,201.99297746524127 110.56562513872551,202.01004489037538 110.71780968034547,202.0157340325389 110.7640339568952,202.0157340325389 110.85648251016424,201.97022089828275 110.91052935669076,201.94177518992367 110.96955420223945,201.93608604809927 111.2831681406367,202.0384905992431 111.32654784640141,202.04986888272236 111.44388639478133,202.06124716620164 111.59749322175142,202.0384905992431 111.65011778284303,202.02142317385466 111.88550602240511,202.01004489037538 111.93173029903963,202.01004489037538 111.975110004803,202.0157340325389 112.01848971048426,202.02142317385466 112.0704031288584,202.03280145758825 112.11804969092651,202.04986888272236 112.51486732726723,202.12382772525282 112.62082759225267,202.23192141830586 112.66705186888719,202.2205431350809 112.72252100076382,202.2205431350809 112.81781412490268,202.2262322769053 113.28005689124785,202.32863682804916 113.56166940744446,202.37414996179666 113.75438908378973,202.39121738743944 113.85394906440287,202.4025956706644 114.19743099684842,202.45379794649062 114.28987955003268,202.4594870880607 114.55371349820815,202.50500022206256 114.61060491568927,202.50500022206256 114.77559002605516,202.5163785052875 114.81896973190331,202.52775678876677 115.27125650011935,202.65291790737777 115.31605849140374,202.66429619094183 115.35872705445098,202.68136361573684 115.57349215503602,202.7894573090442 115.74345526459365,202.86910529348384 115.82594781981834,202.9032401436673 115.86719409743067,202.92599671088016 116.22987688333227,203.15356238046547 116.64162851665475,203.3242366324849 116.85354904645475,203.3242366324849 116.94599759980855,203.3185474906605 117.14298413262811,203.32992577413975 117.1920529799629,203.34130405761903 117.2304546867902,203.3583714830075 117.36628294582393,203.39250633319097 117.7943908617313,203.39819547510012 117.84630428010414,203.4152629001495 117.98853282359627,203.46646517597574 118.31494733090771,203.60300457764214 118.61149384408608,203.69403084556106 118.70252011183543,203.71678741226526 119.18751944530868,203.77367883000068 119.45277567883429,203.80781368018415 119.89723987724311,203.87608338139884 119.95270900911976,203.8874616646238 120.43699719978945,203.9329747987952 120.58918174124118,203.9557313658385 121.06066936291326,203.95004222367498 121.40344015281224,203.91021823158232 121.54069069719478,203.8874616646238 121.58833725926287,203.8874616646238 121.85359349295936,203.8931508064482 121.90195119766146,203.89883994810305 122.08684830419953,203.95004222367498 122.12951686724678,203.9557313658385 122.57895906467778,203.9727987906335 122.67994133055626,203.96142050715423 122.78305702467188,203.9443530823592 123.08102582337125,203.9159073734915 123.25098893275668,203.91021823158232 123.35837148309226,203.89883994810305 123.57669229735066,203.90452909001223 123.74807769217233,203.90452909001223 123.80141339598138,203.9215965153159 123.85403795707299,203.9329747987952 123.90452909009701,203.95004222367498 124.34614871755124,204.075203342286 124.80270234215678,204.20605360229754 125.2300991154328,204.3881061376267 125.57927018961666,204.64411751624928 125.71936530495512,204.76927863443643 126.06142495213533,204.99684430368265 126.29681319161263,205.11631628046928 126.55638028339993,205.28130139066428 126.76830081319993,205.46904306841128 126.8024356637225,205.4974887771942 127.06911418276779,205.69091959600263 127.43890839575916,205.91279612418742 127.52709009272347,205.95830925793493 127.86274945544525,206.12329436812996 128.09244855318425,206.2655229116208 128.1372505442991,206.28259033726354 128.23254366843796,206.31103604579218 128.27592337420265,206.3281034709263 128.31432508094517,206.34517089631473 128.53691275159306,206.46464287284704 128.86901640064414,206.6808302588683 129.04680208000767,206.84581536906333 129.26725632241846,207.14733988168774 129.40948486590926,207.4829992442413 129.5303791277917,207.687808346529 129.78923507702976,207.96088715028569 130.11493844162374,208.21120938708387 130.49611093809438,208.41032934746238 130.77985688235856,208.53549046581907 130.83532601431997,208.54686874963744 130.94555313552536,208.55824703311671 131.1048491043212,208.56962531659596 131.36157162523602,208.61513845051303 131.68087470537293,208.70047557660752 131.7733232587254,208.71754300165688 131.81812524984156,208.734610426791 132.21138717267846,208.922352104538 132.57264767314516,209.12147206491647 132.86777190080383,209.29783545909942 133.25534468190108,209.46850971145795 133.64149517756346,209.6334948219921 134.04613538362528,209.79279079027793 134.47210987137896,209.9520867591572 134.85754922424042,210.11707186935223 135.26147828775436,210.30481354709923 135.6554513533087,210.4641095158937 136.09920440900007,210.60633805938454 136.5472243209114,210.6973643267948 136.6439397305699,210.71443175218323 136.7733677050618,210.7542557445302 136.81248055452178,210.77701231123442 136.87079425743644,210.8737277210625 136.96466509614172,211.16387394961424 136.9931108047551,211.2321436505746 137.04360193769435,211.28903506797093 137.08058135900197,211.31748077683864 137.11969420854672,211.33454820171843 137.1616516289613,211.35730476867698 137.20645361999266,211.36868305215623 137.66229610187943,211.50522245407697 137.71349837753613,211.52228987912633 137.7490555134075,211.54504644642395 137.8983954840742,211.63607271434287 137.98302146745124,211.6758967064355 138.31868083008956,211.80105782453788 138.35423796596228,211.8295035334056 138.60527134522357,212.06844748613108 138.67069647531414,212.16516289595916 138.77025645567292,212.26756744735732 138.8136361615224,212.2960131559707 138.86270500894196,212.31876972292926 138.91959642642308,212.34152628963346 138.97364327294957,212.34721543179697 139.02271212036914,212.34721543179697 139.2168540823189,212.34721543179697 139.5269123070441,212.3130805812744 139.5774034400681,212.3130805812744 139.62362771661788,212.31876972292926 139.66558513694767,212.3358371483177 139.69971998738546,212.3585937150219 139.74309969315016,212.4211742740731 139.7950131115243,212.4894439752878 140.05031334709034,212.7852793454944 140.3824169961414,213.05266900708756 140.68963065008157,213.29161296040647 140.91932974781926,213.46228721268022 141.2912573891325,213.6386506064393 141.37019423068514,213.68985288226554 141.6340281789454,214.03689052804407 141.83385928246523,214.34410418198422 142.02017867452298,214.6001155606068 142.0322681007197,214.66269611974278 142.02657895898008,214.7707898124567 141.95902040073716,215.0097337657756 141.96826525606406,215.15765145109083 141.98888839487157,215.19747544292917 142.0187563890033,215.23161029370607 142.2128983508696,215.4022845457255 142.58411484954888,215.64122849879007 142.8835059334275,215.84034845967722 143.18929730193275,216.01671185369062 143.2369438640022,216.084981554651 143.13453931277357,216.27841237371373 143.06698075452934,216.36374949946912 143.02573447691833,216.38650606642767 142.98519934210822,216.4035734918161 142.85363793929574,216.45477576738804 142.4290857370591,216.56286946069537 142.3871283167293,216.58562602765392 142.30961376052682,216.63113916131664 141.98888839487157,216.8643939729807 141.6297613226407,217.09764878388177 141.4341970753408,217.23418818605683 141.08218143011757,217.45037557182377 140.9043957507527,217.5470909815671 140.81194719756846,217.58691497391408 140.42152984560138,217.74621094228468 140.21103160123496,217.80310236002012 139.8163473931327,217.9510200448267 139.42379661309803,218.1387617225737 139.20903151234344,218.2809902660645 139.11658295915785,218.3663273918199 138.8883061467703,218.61664962861806 138.79301302263147,218.7531890301997 138.5128227921241,219.01488955022282 138.219120849646,219.21400951144906 138.0683585937153,219.265211787021 137.7056758077289,219.3789946218984 137.65376238926999,219.39037290512337 137.5520689807588,219.43019689747035 137.39988443913887,219.48708831461235 137.20929819086118,219.58949286634962 137.17800791137796,219.6179385746239 137.0613805056307,219.7430996933197 136.9824436640781,219.83981510255435 136.862971687461,219.96497622091107 136.55860260438934,220.22667674067984 136.36517178524315,220.41441841842683 136.34241521836938,220.4485532686103 136.24001066696988,220.68180808002003 136.20374238838104,220.80128005680663 136.15467354087673,220.869549757767 136.02524556630007,220.99471087586937 135.64762878333195,221.23934397050405 135.5089559534284,221.33605937999303 135.4762433884255,221.36450508860642 135.40868483026736,221.42708564816627 135.38806169154597,221.49535534861798 135.39872883222301,221.6546513177516 135.52104537962512,221.93910840473322 135.5523356591931,222.06426952258127 135.5523356591931,222.46819858634953 135.55660251549781,222.58767056313613 135.5907373660204,222.8038579489031 135.60282679221712,222.88350593334272 135.61776078919885,222.92901906700547 135.65829592409375,223.05418018570126 135.67180763572537,223.09400417770914 135.69527534540137,223.12813902823171 135.8652384548729,223.33863727268292 135.88799502183141,223.37846126469077 135.89368416357237,223.4239743984383 135.87732788106962,223.7880794701139 135.85812702769834,223.82790346220656 135.7144761988574,224.09529312379976 135.7102093424679,224.1408062580559 135.7208764833145,224.24321080919975 135.73865505125084,224.3569936440772 135.66825192230766,224.7324769987234 135.61207164745923,224.99417751900086 135.60709364852315,225.27294546381898 135.9626650072489,225.87599448822007 135.9576870082267,226.0808035910164 135.93279701311582,226.17182985868098 135.7564336191872,226.50748922148887 135.64620649789703,226.71798746568572 135.57722565438877,226.80332459203456 135.48477710103495,226.91710742691197 135.40299568852774,226.94555313552536 134.95568691933255,227.0536468282393 134.79923552140917,227.082092537107 134.7316769633345,227.09915996249546 134.46784301507557,227.13329481267894 133.89963998382973,227.17311880477158 133.5063780610776,227.16742966311674 132.97088759492078,227.13898395484244 132.7426107825306,227.16742966311674 132.47095426446444,227.33241477390519 132.08907062519157,227.34379305738446 132.05209120396873,227.3779279075679 131.57633672590717,227.51446730948865 131.4227298989384,227.5941152935892 131.37935019317237,227.6225610022026 131.31819191955478,227.6851415617624 131.27765678457644,227.74772212089837 131.21507622544047,227.81599182177396 131.09773767714665,227.91270723134772 131.05578025681686,227.9468420815312 131.0166674072721,227.9752877901446 130.9782657005296,227.99235521578737 130.92564113952142,227.99804435710314 130.8794168628869,228.0037334990123 130.77559002605383,228.0094226405824 130.67674118841248,227.99804435710314 130.230854704484,227.9752877901446 129.77643450811559,227.9752877901446 129.723809947024,227.9752877901446 129.38530601351582,228.07200319988792 128.98564380622184,228.2540557357257 128.6201164495352,228.46455397966824 128.293701942139,228.70918707455724 128.01066714067704,229.01071158692733 127.91750744460577,229.09604871319138 127.54202408987477,229.38619494182788 127.32156984737924,229.48291035131686 127.2689452863724,229.49997777645098 126.92901906734456,229.53980176854364 126.56491399609283,229.65358460342108 126.4013511709936,229.71047602090218 126.00453353465421,229.85839370596307 125.94479754638807,229.88115027326072 125.84168185244201,229.90959598178932 125.78194586417585,229.9209742652686 125.4512645005597,230.09164851762714 125.40646250927531,230.12009422598618 125.35597137641952,230.1883639272009 125.30334681541402,230.3533490373959 125.19169740860417,230.46144273070325 125.00964487293592,230.49557758088673 124.95773145464655,230.49557758088673 124.78279034606805,230.44437530506048 124.7337214986485,230.43299702183555 124.57727010072382,230.46713187201902 124.38455042437853,230.54677985645864 124.07306991404886,230.71745410881718 123.90310680466078,230.91088492787992 123.61224943322337,231.58789279515057 123.45864260625461,231.91217387414008 123.34841548496313,232.3161029373997 123.32281434721955,232.55504689071861 123.314280634524,232.8963953950966 123.27374549963044,233.24912218278428 123.24387750549737,233.57340326185857 123.2140095113643,233.64736210489767 123.20192008516757,234.00577803449454 123.19196408720799,234.3585048223518 123.25738921721377,234.7226098932644 123.27516778515013,235.06395839798148 123.25098893275668,235.17774123260457 123.34841548496313,235.28014578374842 123.31996977626495,235.47926574497467 123.21969865310261,235.80923596561905 123.10947153198332,236.14489532817262 123.09027067852595,236.1904084624288 122.792301879914,236.4634872658464 122.69060847131807,238.13040579572836 122.59531534717922,238.71638739448667 122.37557224757067,239.4844215296762 122.18214142833838,240.07040312902797 121.24841104040591,240.28090137288572 120.0878261255208,240.56535845986735 119.16760744913519,240.74172185413508 117.85270456456254,240.9237743899729 115.25134450411541,241.73163251666165 114.34605982471156,242.22658784809448 113.56451397822948,242.56224721090237 112.92377438980334,242.77274545535357 112.59522645433954,242.6191386282987 112.26596737615829,242.44846437602496 111.87839459523057,242.28916840714567 111.83359260394619,242.27779012392074 111.79021289826626,242.27210098175723 111.7262100536954,242.27210098175723 111.60247122077361,242.28916840714567 111.16227387875429,242.47122094298348 110.73843281906686,242.63051691186274 110.68225254447276,242.64189519534202 110.42979687969178,242.77274545535357 110.05004666857128,242.9604871322528 109.7307435884344,243.19374194366253 109.43846393164553,243.44975332203077 109.28627939002557,243.6431841410935 109.2564113958925,243.68300813318618 109.22014311730234,243.7171429838783 109.17747455433987,243.73989955092162 109.01888972826282,243.75127783440087 108.96555402445377,243.74558869274603 108.91292946336216,243.73989955092162 108.8638606159426,243.72852126744235 108.81763633922331,243.70576470039904 108.77923463256556,243.68869727534968 108.68038579492422,243.55784701533813 108.44499755527735,243.2335659360095 108.40944041940466,243.19943108582603 108.37032757002945,243.17667451878273 108.32837014961488,243.15960709347905 108.13493933055214,243.15391795156987 108.08373705481067,243.14822880991503 108.03182363643653,243.15960709347905 107.97848793262746,243.17098537695833 107.69047513214332,243.3245922039284 107.38041690733333,243.5919818655216 106.99995555341062,243.78541268458434 106.9459087068841,243.8081692515429 106.48508822597516,243.8991955197161 105.99937774995267,243.99022178738068 105.94106404720621,244.0072892125148 105.51864527295237,244.1722743232185 105.47882128086104,244.1893417480983 105.27899017717166,244.20640917374106 104.80608027006468,244.217787456966 104.348104360109,244.33157029158912 103.9562647227918,244.52500111065186 103.76212276084205,244.63309480421353 103.4605982486415,244.7241210718781 103.31623627708309,244.76394506422508 103.02111204925487,244.86066047345975 102.6719409749849,244.94030845789936 102.56882528103883,244.9687541667671 102.18409707089616,244.98013245024634 101.97075425565993,245.1337392769621 101.85626027806504,245.27596782045293 101.6429174628288,245.48077692299495 101.2852126759494,245.7310991597931 100.83861504947431,245.95866482903932 100.63025023317415,246.05538023912175 100.57975910023491,246.07244766391676 100.47664340628884,246.08951508905088 100.37494999760813,246.09520423121438 100.32019200836416,246.09520423121438 100.02933463692676,246.03262367207844 99.56353615699432,245.9074625534674 99.13613938380307,245.73678830161754 99.08209253727657,245.71972087631386 98.97328770167563,245.69127516770047 98.71372060963533,245.6798968842212 98.66749633300081,245.68558602553696 98.49611093809438,245.90177341215164 98.18463042793293,246.1577847902656 97.88737277203843,246.41379616837952 97.5865594026388,246.66411840517767 97.29072403200966,246.93719720834096 97.00911151589783,247.22734343697746 96.91097382106004,247.39801768959032 96.88821725393063,247.4435308235074 96.86261611618706,247.4833548153457 96.677719009649,247.60282679187802 96.46793190791526,247.6710964930927 96.15929596854016,247.84745988676698 95.94595315330393,248.10347126488094 95.91608515917086,248.1432952572279 95.87981688075025,248.18311924932055 95.78452375652662,248.25138895053524 95.402640117169,248.46188719498645 95.06555846909575,248.6780745810077 95.03000133322304,248.70083114771194 94.98946619841294,248.71789857310037 94.75834481524035,248.72358771492478 94.42624116618929,248.64962887188568 94.28756833620228,248.58135917143395 94.24134405956644,248.5586026042211 94.1951197830167,248.5358460375169 94.14747322094728,248.51877861187413 93.84737099409686,248.50171118674 93.80256900289726,248.50740032839485 93.7563447263475,248.51877861187413 93.57571447602939,248.59273745491322 93.5330459131517,248.60980487979302 93.42708564808149,248.6837637225778 93.24503311241322,248.8828836832954 93.1959642649089,248.9454642423466 92.95133117018946,249.22423218801248 92.86883861496479,249.30956931376787 92.48553269017225,249.60540468422877 92.0922707675049,249.85003777911777 92.02613449478166,249.88417262989466 91.56673629922153,250.020712031222 91.52406773634384,250.03209031470124 91.47784345953977,250.0434685981805 91.43304146842493,250.0491577400897 90.80225787795837,250.1913862835805 90.73327703436532,250.22552113376398 90.63656162479155,250.2994799768031 90.23049913321137,250.73185474867608 89.9595537579448,251.05044668609554 89.6893195251427,251.34059291498636 89.56273612143586,251.42024089942598 89.52077870119084,251.4486866082937 89.40130672465855,251.52264545082414 89.32094759750146,251.5681585847412 89.24983332575604,251.625050001968 88.94546424276913,251.87537223876618 88.86652740104829,251.96639850634597 88.57851460056415,252.2167207426355 87.91146273150741,252.8425263343342 87.60424907756857,253.10422685427255 87.2870794255827,253.3431708070828 86.7039423973551,253.74709987085106 86.34694875310838,253.9462198317382 85.99208853709878,254.1567180759351 85.63722832117527,254.3899728873448 85.60167118530124,254.41272945455765 85.56255833575649,254.43548602160095 85.32005866910464,254.52082314735637 84.90048446580671,254.65167340762224 84.84857104743257,254.66874083267157 84.42615227326482,254.73701053337763 83.95039779545758,254.81665851781727 83.89706209164852,254.8337259432057 83.84941552949432,254.8564825099099 83.49455531339994,255.0840481796648 83.4525978932397,255.11249388827818 83.14680652456488,255.2262767231556 82.69665318441643,255.34005955811782 82.2400995598109,255.4879772429244 81.81056935855472,255.65865149528292 81.74016622944066,255.68709720415063 81.20040890697776,255.77812347206955 81.14849548851883,255.77812347206955 80.97355438010858,255.7553669047719 80.46508733713021,255.65865149528292 80.2204542422399,255.60744921971101 79.31232499205233,255.3798835501257 79.11391617396741,255.34574869943356 79.05773589920375,255.32868127429944 78.97808791493235,255.32299213272935 78.50873372141396,255.34574869943356 78.02515667345907,255.36281612507634 77.96257611432443,255.3741944083013 77.9028401260596,255.38557269178054 77.56575847806981,255.4083292589934 77.5166896304807,255.4083292589934 77.47046535384618,255.41970754247268 77.42708564808149,255.4310858260367 77.38086137144697,255.44815325083175 77.269211964808,255.48228810160865 77.16965198444787,255.4936663850879 76.72518778603906,255.49935552640366 76.24161073808548,255.46522067622018 75.94364193955698,255.38557269178054 75.53615716237233,255.20920929810626 75.49135517117139,255.19783101462698 75.44655317997179,255.1864527308086 75.39606204703122,255.17507444732937 74.98928841273357,255.0783590380947 74.89968443033436,255.05560247113615 74.85630472448489,255.0442241873178 74.47584337064693,255.0442241873178 74.37130539118118,255.04991332897265 74.08827058971922,255.1295613136666 73.65731810285725,255.24334414828974 73.60184897098061,255.25472243176898 73.19649762194699,255.31730299082017 72.74136628277635,255.459531534311 72.1646295389224,255.62451664509945 71.71234277070504,255.76674518859028 71.36672740993757,255.93173029903963 71.30699142167275,255.96017600765302 71.26218943055659,255.9772434329567 71.19463087231367,256 70.86537179430196,256 70.41806302485378,255.9715542911323 69.79723543260113,255.89190630669265 69.31863638383928,255.79519089711889 68.88057246971668,255.66434063710733 68.43255255772324,255.5790035108433 68.25121116485721,255.54486866065983 67.95679807974511,255.49935552640366 67.66309613752134,255.4083292589934 67.60549357740756,255.38557269178054 67.13827281195543,255.32299213272935 66.62269434180253,255.32299213272935 66.53593493027181,255.31730299082017 66.39868438580316,255.2888572825459 65.86461620499513,255.06698075461543 65.75154451291992,254.99871105340074 65.68398595484656,254.96457620321726 65.31774745535769,254.95319791965323 64.73247699880818,254.95319791965323 64.21974309952377,254.94750877782883 64.08818169679476,254.93613049460387 63.87839459531535,254.9247522111246 63.67358549251902,254.8963065022569 63.59322636553147,254.87923907686846 62.62962798329638,254.8906173603477 62.57486999405241,254.8963065022569 62.36579403520436,254.9247522111246 61.83385928263478,254.9247522111246 61.225121116324516,254.93044135244037 60.78634605965666,254.93044135244037 60.33903729046147,254.9190630689611 60.28854615743745,254.9190630689611 60.18827503427642,254.90199564382698 60.13778390142196,254.8963065022569 59.993421929694,254.88492821877765 59.55180230223977,254.88492821877765 59.50131116921443,254.88492821877765 59.132939241574526,254.78821280894954 59.05542468537203,254.78821280894954 58.68349704414353,254.73701053337763 58.497177652254,254.72563224989835 58.00648917712589,254.7142539664191 57.53571269825737,254.68011911623563 57.06422507650053,254.57771456509178 56.60909373732989,254.46393172987524 56.16747410987567,254.37290546221067 56.11413840606661,254.36721632064058 55.94986443824993,254.33877061151856 55.89510644909075,254.3273923282936 55.83963731704455,254.31601404481435 55.548779945604494,254.2818791945461 55.0609360414323,254.2648117692424 54.99977776781734,254.2648117692424 54.88528379022114,254.28756833594664 54.824125516518755,254.3046357615894 54.39317302974289,254.34445975368206 53.11027156754045,254.35014889499783 52.209964887158776,254.61184941527526 52.169429752263895,254.6289168406637 52.1068491932127,254.68011911623563 52.0499577757316,254.75976710033615 51.97102093417897,254.95888706130808 51.88426152256479,254.95888706130808 51.63393928610572,254.93044135244037 51.53295702022724,254.90768478548185 51.19089737304704,254.7825236676338 51.06004711320503,254.73701053337763 50.64829547962955,254.57202542292828 50.25432241415998,254.41841859621252 49.798479932271896,254.25343348576317 49.75510022659064,254.2420552021991 49.57162540548881,254.1851637848028 49.16129605743301,254.01448953244426 48.75736699391908,253.84950442224923 48.35912707214477,253.65607360318648 47.9402640115643,253.45695364196024 47.547713231529634,253.28627939011034 47.388417262819914,253.14405084661954 44.20676474493023,251.0049335524328 42.82003644589472,250.24827770097684 42.40828481248879,250.03777945686474 42.04275745571738,249.7988355032915 41.677941241748194,249.5428241251776 39.70878705703299,248.43344148611874 39.51820080875529,248.46188719498645 39.45277567874951,248.43913062794314 39.07373661034647,248.42206320263946 38.83834837095394,248.39930663559616 38.396728743330165,248.28552380071872 38.228187919378314,248.22863238357672 37.810747144147975,248.06364727278827 37.50495577572748,247.9669318635536 37.388328370149786,247.91004044581817 37.01995644242378,247.6938530597969 36.969465309399766,247.6710964930927 36.88412818339005,247.60282679187802 36.84430419112784,247.56300279978535 36.79452420099215,247.53455709091764 36.68429707970067,247.5174896661226 36.62313880608439,247.5118005239591 36.58047024303714,247.50611138230425 36.52357882555604,247.4890439572549 36.436819414025315,247.4321525397738 36.39699542193398,247.4037068311604 36.34721543162742,247.3695719804683 36.308813724969674,247.35250455533415 36.26685630463988,247.3411262718549 36.12249433291192,247.30130228001656 35.69865327339272,247.13062802765802 35.40352904556582,247.045290901394 34.927774567673794,246.93719720834096 34.6475843369121,246.88030579119896 34.38659495960644,246.81772523214778 33.953509044676885,246.69256411370628 33.49411084928631,246.5958487042173 33.31134717081583,246.56171385369473 32.84554869088338,246.52188986168687 32.78723498805215,246.52188986168687 32.32214765083716,246.41948531020392 31.892617449579653,246.3057024755808 31.442464109431203,246.2089870658375 31.05489132833394,246.20329792392832 30.95035334895296,246.2146762074076 30.810258233699276,246.2374327747052 30.343037468162375,246.24312191602098 30.031556957917477,246.24312191602098 29.94977554549503,246.19760878261255 29.57642561883162,246.02124538859917 29.171074269798005,245.8847059867632 28.839681763465713,245.76523400997658 28.356815858482598,245.52629005725112 27.949331081211845,245.3499266629834 27.542557446828095,245.19063069469755 27.13507266981034,245.01426730042982 26.72829903534314,244.83790390675554 26.320814258241935,244.7013645048348 25.91404062394296,244.5363793941311 25.506555846755656,244.37708342550616 25.10689363954777,244.1893417480983 25.06635850473766,244.1608960394849 24.780479132236334,243.8991955197161 24.51522289871073,243.6261167162985 24.21512067186032,243.3473487706326 24.174585536965434,243.3245922039284 23.774923329841,243.17667451878273 22.81203609032336,242.67603004527118 22.19547535429065,242.44846437602496 21.855549135431033,242.26072269827796 21.448775500963833,242.07298102137872 21.280234677011986,241.97626561129633 20.881994755237685,241.7543890838745 20.83861504938821,241.7259433750068 20.544913107164437,241.57802568969157 20.480910262678343,241.6007822566501 20.227032312376352,241.43579714620074 20.19289746193988,241.41304057949654 20.153784612564678,241.39028401219892 19.948264367135664,241.28219031948498 19.89279523525902,241.242366327138 18.52100093320527,241.037557224596 17.74869994213488,239.01222276520193 17.407351437672133,237.7947464331748 17.438641717324888,237.464776211937 17.688963953868733,236.5772701008086 17.873861060322028,236.32125872235557 18.322592115120344,235.70114227256605 18.379483532431898,235.58167029637283 18.455575803198165,235.42237432723925 18.586426063211047,235.14929552373687 18.796924307662238,234.4836659405389 18.949108849111315,233.49375527767324 19.436952753370935,232.0259567091023 20.807324769820227,228.66936308271892 21.612338326063053,226.877283434565 21.627272323044817,226.58144806410408 21.623005466824864,224.4309524863533 21.57678119019035,222.97453220126164 21.557580336819086,221.06298057682974 20.411929418915744,219.66345170888007 19.283345926400848,218.76456731367898 19.02093426366028,218.33788168320652 18.845993155081796,218.1899639981456 18.533090359401985,217.9225743362133 18.22587670546181,217.6438063908865 18.004711320333584,217.31383617049647 17.932174763238038,216.9497310990752 17.842570780838823,216.6197608778374 17.669763100497473,216.29547979901741 17.468509711457962,215.98257700316805 17.294990888314384,215.63553935688088 17.174096626516736,215.29419085275725 17.029734654788776,214.96990977368296 16.8220809812074,214.63993955244516 16.600204453363045,214.3213476150257 16.388283923560394,214.03120138664352 16.54189075053048,212.73407706992245 18.07511444936154,198.12436108271478 16.733188141526963,195.21152051168366 15.580425796532525,192.60020445327694 14.78679052385374,190.3757500329957 14.008089248326266,187.1500066668782 14.197253211169059,184.19165296193 13.51455620232834,182.54749099934565 14.952486777020548,179.0202231206885 15.750388906088833,176.80714698388653 15.923196586430182,176.29512422740436 16.86403840162197,174.7931908080565 17.845415351623863,172.69389750613198 17.45357571430665,171.78363482804502 17.79776878955444,169.47953242332417 17.866038490514807,168.94475310005302 17.884528201168614,168.8082136979627 17.84114849531914,168.27343437443724 17.794924218769395,168.1596515395598 17.76647851006991,168.11982754746714 17.68256366941297,167.96622072049706 17.681141383891966,167.91501844492512 17.676874527672016,167.5679807988923 17.676874527672016,167.45988710558495 17.678296813020822,167.10147117607286 17.688963953868733,166.7430552468151 17.711009378025036,166.53255700210957 17.781412507052995,166.16276278937252 17.79776878955444,165.82141428465548 17.843993066188954,165.47437663887695 17.80061336050903,164.0008889281425 15.092581892443782,161.77643450811559 16.55682474768179,157.17391884058304 16.489977332156332,153.3792612999936 18.19885328228333,152.15609582631163 19.237121649681555,151.04102404508927 19.36512733890807,150.8248366593223 19.62896128699877,150.5290012888614 19.836614960495368,150.35263789459367 19.985243788443277,150.26730076858397 20.36286057141141,150.01128939047004 20.725543357313004,149.76665629583536 20.974443308421943,149.64149517713957 21.394728654437323,149.5390906257414 21.80079114618839,149.39117294093484 21.84417085186832,149.3627272320671 22.045424241078706,149.1977421218721 22.29574647745168,148.89052846784713 22.347659895995378,148.82225876697154 22.364016178412047,148.78243477462456 22.40170674235234,148.64589537270382 23.150540023832843,147.72425441113762 23.1740077335075,147.59909329295047 23.398017689505547,146.3873061019848 21.63509489302026,138.79799102139933 20.9580870259205,133.35348237665542 20.93888617254924,133.20556469150975 20.448197697505904,133.18849726646042 20.731232499051313,132.76181163598795 21.162184985914603,132.0904929106265 21.39188408365228,131.7889683982564 21.623005466824864,131.48744388614062 21.818569714124745,131.18591937410963 21.891817413937744,130.84457086939256 22.919418640660258,125.23507711419933 22.914440641721527,125.16680741323896 22.915862927156436,124.81408062555127 22.92937463870329,124.52962353856962 23.00262233860106,124.2053424595801 23.011867193927966,124.16551846748744 23.016134050317465,123.7900351125869 23.03391261825382,123.42024089951076 23.065202897737024,123.06751411165352 23.00546690964043,122.78874616598765 22.987688341704075,122.70340904023224 22.990532912404344,122.35068225203591 22.99337748335761,122.00933374808181 23.001200053166155,121.66798524370384 23.028223476514185,121.37783901455869 23.053113471540303,121.33801502246604 23.092226321085054,121.24698875480145 23.10076003360973,121.16165162853741 23.13987288315448,120.82599226598384 23.15622916557115,120.4505089110833 23.141295168589387,120.1319169739182 23.06378061238689,119.8360816033725 23.068047468606842,119.10218231870554 23.05809147064726,119.02822347617509 23.105738032716683,118.90306235832703 25.402017867291228,112.58811502699545 20.519311969251312,112.04764656189988 0.7452775678071315,109.08360371529683 0,108.71380950255978 0.024889994941344182,108.66829636830363 0.5930930261871773,107.74665540665265 1.8489710653806837,106.87052757849486 3.6687852791761992,105.73838837273179 4.415485132503013,105.48237699436353 5.8427485665181855,105.20929819086116 6.23814391742267,105.18085248199345 7.855993599630768,105.06138050546116 9.42690786248557,104.6915862924698 10.714076181078832,104.0999155518023 12.014045068500169,103.24654429085737 12.989732876931981,102.5524689981983 14.303213475984947,101.24396639842182 16.09315969581694,99.50308902583984 16.595937597056995,98.8829725760503 17.74727765669997,97.09658206997514 18.48259922654752,95.82221432046693 19.478199030983273,95.378461264606 21.13871727632339,94.76403395697999 21.670652028894292,94.67869683063117 22.445086448117042,94.54215742904952 23.59358193680543,94.1040935150978 24.40570692013802,93.86514956177889 25.325925596523636,93.81963642811616 26.546246499674886,93.89928441221669 28.070225343263818,93.83670385341982 29.743544157518112,93.79687986107285 31.2212987242182,93.83101471159542 32.60376016703244,93.8480821368991 33.89732877008279,93.87652784525815 34.81114716192654,93.66602960106128 35.43624161056871,93.38157251407965 36.487310547050654,93.08004800204866 37.765945153033144,92.77283434810847 38.471398728746294,92.48837726112683 39.161918307310785,92.18116360684756 40.53371260936586,91.191252944321 41.37357215859306,90.48011022686688 42.61593848598407,89.36503844564452 43.50273345473544,88.62545001957702 44.18045246438443,87.766389617062 44.77852348976334,86.71389839514515 45.05444686413553,85.7182985907094 45.36166051807571,84.79096848723401 45.26281168043436,84.17654117952321 45.18956398045181,82.86234943741368 45.36166051807571,81.64487310504748 45.61056046918464,81.19543090761648 45.774123294200415,80.9564869545519 46.76332281426253,80.17707453647652 48.26170051993834,79.31232499205233 49.77145650900864,78.73772167617986 51.32530334673064,78.19725321108429 52.849282190234796,77.79901328947953 53.18209698191722,77.56575847806981 54.056091381669646,77.30974709961679 54.68829725748635,76.80341348504378 55.74292190747079,75.35268234126785 56.19307524762056,75.07391439611061 56.86866082919932,74.61878305685521 57.411973865421686,74.24329970220899 58.17645228668353,73.91901862288036 59.64567314094504,73.35010444891708 60.275034445890604,73.04857993654699 60.84892661887607,72.6901640070349 61.363793946312846,72.18951953394719 61.74994444189043,71.71163162764849 62.665896261886544,70.56242499624264 63.23836614960665,70.01057824741348 63.635183785861265,69.78870171973735 64.22116538504345,69.61233832606305 64.69407529215177,69.46442064040872 66.08364816197098,69.16289612863206 66.73718831931131,68.97515445088507 66.99391084039702,68.86706075783205 67.15747366532669,68.71345393086196 67.28619049718588,68.60536023814804 67.3800613359746,68.48019911970657 67.4632650339154,68.2583225921152 67.53651273372974,67.8373261029585 67.57420329783957,67.59838215023302 67.6232721453439,67.39357304760624 67.80674696644707,66.58571492040882 67.9987555000749,66.34677096734424 68.09902662323593,66.2329881324668 68.33299257736311,66.05662473879251 68.48517711881485,65.90301791182242 68.61460509339149,65.62993910832004 68.66225165545958,65.50477798987858 68.63451708947888,65.03257922523471 68.49726654501023,64.79932441407932 68.17938575039302,64.29299079916721 67.78399039940376,63.889061735653286 67.15960709356384,63.32014756169 66.54020178657653,62.38143917473535 66.12987243869028,61.81252500077206 65.94070847593227,61.03311258235758 65.91866305152031,60.53815725126385 65.92435219326127,60.48126583352842 65.99617760772414,60.06026934521946 66.07653673488123,59.77581225823782 66.18818614152151,59.491355171256174 66.36597182088505,59.1500066665391 66.4477532333075,58.98502155634407 66.72083203689465,58.467309657952704 67.12333881489022,57.68789723953823 67.27267878563903,57.30672474332192 67.3274367749691,57.02795679765604 67.3096582070301,56.806080269725584 67.26485621566226,56.413529490030015 67.2100982264183,56.106315836005066 67.21294279737289,55.49188852812471 67.24138850598628,55.18467487443886 67.30396906512225,55.05382461417298 67.4533090357876,54.820569803017584 67.87501666723789,54.46784301482125 68.78812391644897,53.694119738315955 69.74816658501202,53.69980888014036 70.271567625143,53.796524289459796 70.60438241691153,53.83634828180677 70.85328236802047,53.864793990674485 71.39943997494045,53.96150939990915 71.72300991146685,53.944441975114124 71.87377216748234,53.92737454972568 72.10773812160953,53.72256544718367 72.62545002000088,53.00573358782037 73.13533934824594,52.33441486245892 73.33659273745499,52.015822925293804 73.51722298751879,51.42415218428721 73.51580070208388,50.77559002622339 73.5136672740163,50.673185474825225 73.38423929935487,50.46268723037403 73.12182763669908,49.98479932432964 72.9902662338853,49.76292279614486 72.95613138353228,49.52397884308028 72.8267034089543,49.26796746471203 72.53584603751689,48.994888661463975 72.13120583120073,48.659229298656086 71.94630872466267,48.48855504689097 71.84248188799914,48.25530023548125 71.75003333464534,47.834303746324544 71.75003333464534,47.561224942822165 71.78416818508313,47.3165918481875 71.77634561527591,47.066269611982754 71.63056135811304,46.702164540561476 71.43357482546435,46.32099204375175 71.2173874392722,45.973954397464595 70.99622205414397,45.54157962533727 70.88315036223833,45.09213742790627 70.87888350576405,44.6938975060472 70.98199919988099,44.36392728565714 71.20245344229177,44.06809191511146 71.34254855754412,43.68123027647732 71.98542157429219,42.97008755902321 72.07644784195676,42.770967598390385 72.03591270706188,42.60598248785626 71.94204186844271,42.264633983478284 71.86310502672053,42.03706831389297 71.82399217734533,41.8777723453528 71.84817102973878,41.553491266024174 71.93777501213931,41.09267078536824 71.89866216259456,40.81959198186586 71.87946130922198,40.62616116254879 72.03164585084193,40.16534068129943 72.03591270706188,39.85812702735926 72.02880127988735,39.687452775255046 72.15396239815794,39.41437397175267 72.568558602435,38.81132494735158 72.91417396320249,38.39032845904262 73.18440819575027,37.849859993353625 73.28112360540881,37.21267611876907 73.3977510109865,36.42757455844541 73.40201786729122,35.11338281659022 73.41695186435776,34.52171207592272 73.43970843131629,34.100715587274664 73.61251611165764,33.82194764194788 73.90337348318114,33.548868838191176 74.37486110476844,33.23027690102606 74.65078447922409,33.042535223279074 74.85772701000457,32.90599582195176 75.20192008525235,32.55326903375542 75.70754255727613,31.961598293087928 76.02542335206421,31.52922352070628 76.19965331775569,30.988755055356382 76.2970798700469,30.545002000004118 76.35966042918287,30.186586069983374 76.42366327383851,29.703009022538453 76.53389039496045,29.469754210874406 76.71025378888774,29.242188541373867 77.32325881141796,28.87239432863683 77.40930708014646,28.639139517227104 77.38441708503424,28.28641272903077 77.24076625619328,27.910929374130223 77.03666829619918,27.637850570627847 76.64553980159941,27.45010889372861 76.16125161109794,27.125827814399987 75.72887683888585,26.74465531759026 75.42450775573072,26.2326325613624 75.11302724556926,25.487354993131394 75.0575581135244,24.83310369315839 75.1457398104887,24.42917462989878 75.38112805013556,23.98542157412264 75.57242544096117,23.809058179854922 75.9898662161915,23.51891195155752 76.53246810952422,23.26858971475935 77.35454909107071,22.984132627777704 78.95035334886819,22.483488154774786 79.95804257950198,22.068180807781587 80.30010222659608,21.869060847063988 81.0126672294851,21.271700964232988 83.96248722148475,18.142673007434905 84.94386417165487,17.175518911866867 85.2603226808385,16.976398950979718 85.79225743357894,16.828481265325387 86.5802035645181,16.70332014747734 87.72229876866461,16.42455220206578 88.30685808241189,16.26525623352561 88.71576514494801,16.123027690034785 89.11044935321982,15.935286012287802 89.47739899542614,15.724787768090936 89.75190008436343,15.51428952372452 90.04275745571738,15.292412995794063 90.26534512628051,15.059158184384339 91.12440552896508,14.171652073255936 92.22027645656186,12.9883105910732 93.56220276448254,11.452242321541874 94.2036534955427,10.71265389522005 94.73203253460845,10.115294012643373 95.04209075950455,9.847904350795854 95.9637317212403,9.256233610128358 96.71540957375883,8.829547979655894 97.68896395378395,8.010311568894435 98.52313436135763,7.890839592616469 98.93630828028324,7.833948175220141 99.2876127826208,7.748611049125648 99.55073558807882,7.720165340597033 99.90061780506623,7.777056757739038 100.35290457345182,7.913596159659776 100.79096848740356,8.07858127010913 101.2446775410545,8.22649895542436 101.63865060660886,8.33459264822306 101.94088626152686,8.357349215435915 102.2303213474459,8.328903506568201 102.65842926343805,8.26632294726269 103.04457975909908,8.16960753802803 103.32050313330305,8.095648695497578 103.63198364354795,7.936352726618308 103.91715187324705,7.748611049125648 104.14685097115428,7.458464820573921 104.2336103825989,7.139872882815381 104.39006178035403,6.724565536161281 104.51806746958187,6.354771322830819 104.83452597876284,5.660696030765158 105.15169563074738,4.943864171656191 105.35508244802404,4.437530556489767 105.42975243327194,4.07911462697767 105.47384328184019,3.948264367220439 105.9154629092931,4.050668918364281 106.02426774514835,4.050668918364281 106.14658429246568,4.07911462697767 106.65647362087896,4.141695186028858 108.51682296974022,5.2567669669969 108.89657318086071,5.484332636751764 110.07635894911708,6.0703142358491755 113.24094404178787,8.499577758926737 114.45059780426209,9.990132894286676 114.71158718156774,10.507844792678041 115.66949642189365,11.25881150247913 115.90915151776046,11.765145117391231 116.10187119410575,12.12925018881251 116.34010400445288,12.436463842752685 116.58971509836404,12.766434063651392 117.59598204347684,13.705142450690815 118.63282812552492,14.73487710531004 119.5658473709095,15.650828925306158 119.78985732690754,15.958042579246333 119.92853015672631,16.014933996727436 120.06720298662987,16.20267567447442 120.27130094662397,16.390417351373657 120.62047202089394,16.66349615513036 120.66811858296204,16.71469843070228 120.80963598373673,16.8569269741931 120.9170185340723,16.94226410020282 120.97248766594895,16.982088092295477 121.12324992213267,17.101560068827766 121.21712076075184,17.181208053521726 121.26618960834227,17.2153429037052 121.32308102565382,17.249477754482093 121.47242099631919,17.31205831353328 121.54211298262969,17.340504022400996 121.58264811752457,17.35757144719602 121.7184763765583,17.391706297972917 121.93750833353417,17.471354282327777 122.09538201689375,17.511178274166106 122.50144450847527,17.664785101136196 122.84990444019867,17.94924218811784 123.20476465612217,18.17111871630262 123.25738921721377,18.18818614118242 123.30788035006825,18.193875283345925 123.43161918290525,18.182496999781886 123.4956220275609,18.165429574478214 123.77510111543559,18.040268456291063 123.85688252802758,18.017511889078207 123.93297479879517,17.994755322119676 124.0119116403478,17.989066180464818 124.08515934024558,17.983377038894737 124.15485132655608,17.989066180464818 124.62491666279325,18.068714164650128 125.05160229326572,18.154051290998947 125.51953420135052,18.24507755891785 125.94053069008335,18.36454953511104 126.24134405956777,18.495399795122594 126.49237743891251,18.67176318939031 126.60118227476777,18.728654606532317 126.65309569305714,18.768478598624974 126.77541224037448,18.882261433756728 126.82021423165885,18.910707142115793 126.87354993546792,18.9163962842793 126.92901906734456,18.9163962842793 127.05275790018158,18.89932885863653 127.14662873888552,18.882261433756728 127.21063158354116,18.865194008453056 127.41686297160285,18.80261344906277 127.48371038704354,18.791235165583505 127.60318236349238,18.779856882104237 127.6629183517572,18.774167740788478 127.76887861665786,18.762789457309214 127.81368060785748,18.762789457309214 128.27734565972233,18.853815724889014 128.32356993635685,18.859504866543872 128.48428819050147,18.876572291932323 128.68625272225844,18.882261433756728 128.73389928432786,18.87088315002314 128.78154584639728,18.859504866543872 128.82919240846803,18.836748299839666 129.03471265381094,18.717276323053053 129.12573892172986,18.654695764001865 129.2736566068742,18.546602070694515 129.61784968203855,18.307658117969034 129.79705764683698,18.182496999781886 129.89235077097584,18.1369838656105 130.11920529792846,18.068714164650128 130.17254100173753,18.045957597691597 130.33681496938465,17.943553046547756 130.65896262047613,17.710298235138033 130.7158540377877,17.67047424279105 131.00031112476933,17.53393484146374 131.16742966337105,17.46566514050337 131.22005422446264,17.437219431635654 131.3075247787095,17.37463887258447 131.3523267699939,17.340504022400996 131.39570647567382,17.31205831353328 131.67589670635073,16.993466376029065 131.75341126255324,16.86261611601751 131.8031912528598,16.80572469862118 131.84159295951756,16.777278989753466 131.89848437699865,16.760211564873668 132.00444464189798,16.7488332813944 132.17156318050104,16.75452242304926 132.2220543133555,16.75452242304926 132.26827858999002,16.7488332813944 132.31450286662454,16.737454997660812 132.36357171412885,16.726076714181545 132.4638428372899,16.6748744383553 132.51291168479423,16.64642872974191 132.56198053238333,16.60660473790358 132.60536023806327,16.56109160398652 132.67362993902364,16.50420018625109 132.90048446589148,16.373349926239534 133.09320414223677,16.282323658574956 133.50922263203222,16.15716254021826 133.69411973857027,16.09458198116707 133.7524334414015,16.066136272299357 134.09804880199943,15.827192319573877 134.14569536406887,15.781679185317714 134.2011644960303,15.741855193225058 134.2637450553358,15.70203120087808 134.63496155376205,15.502911240499579 134.7679452418412,15.44601982276415 134.82768123010734,15.411884972580676 135.15125116663376,15.167251877691688 135.20316458492312,15.127427885599033 135.25081114699253,15.087603893252053 135.29987999458166,15.053469042983807 135.3581936974129,15.019334192291684 135.47766567394518,14.956753633240497 135.6014045067822,14.911240499492985 135.69243077453154,14.871416507146005 135.74789990649296,14.837281656453882 136.07431441380442,14.581270278339954 136.1845415350098,14.490244010421053 136.3516600736115,14.382150317368028 136.4647317656867,14.308191474837574 136.7797679895189,14.057869238548053 137.0272456551929,13.875816702710251 137.09693764150342,13.847370994181636 137.53855726904243,13.739277300874289 137.82941464056591,13.705142450690815 137.90408462581382,13.688075025048043 138.0470243120221,13.642561891639629 138.28739055060637,13.528779056423097 138.34570425343762,13.506022489464565 138.51140050660442,13.443441930413378 138.69487532770626,13.358104804657986 139.04049068830548,13.136228276727527 139.35837148309224,12.846082047582378 139.4330414683415,12.73229921295927 139.4493977508416,12.69247522061229 139.47286546068713,12.567314102764241 139.47571003138742,12.408018133630646 139.48353260136417,12.271478732303331 139.48779945758412,12.22027645673141 139.49704431291104,12.134939330128269 139.5055780255205,12.083737054556348 139.60869371963742,11.702564558340043 139.68763056118874,11.35552691222244 139.6940308456458,11.29863549482611 139.68336370488402,11.236054935774924 139.65207342531602,11.179163518039495 139.3505489131155,10.9117738564463 139.19267522992544,10.809369305302457 139.14360638233634,10.769545312955477 139.11231610276835,10.724032178699316 139.09595982026693,10.672829903127395 139.09098182124472,10.30872483196044 139.00351126708264,9.95030890219402 138.9572869905329,9.711364949468539 139.05542468537203,9.375705586914973 139.27730121338726,9.07987021636929 139.54611316041536,8.812480554267445 139.5852260099601,8.78403484590838 139.6193608603979,8.749899995216259 139.8995510911596,8.488199475193147 140.17974132166697,8.209431530120685 140.46633183688442,7.953420152006756 140.78421263150298,7.6917196317293195 140.96270945358395,7.5608693717177635 141.28485710467544,7.3276145603080405 141.61340504005446,7.094359748898318 141.9412418328008,6.826970087559447 142.26907862563192,6.5652695672820105 142.55140228437642,6.2921907635253085 142.82874794418353,5.996355393318723 143.18360816019313,5.728965731725528 143.5726032267253,5.5526023374578095 143.7589226186135,5.45588692822315 143.85777145642442,5.398995510487722 144.22756566941575,5.1998755497701215 144.58242588542538,5.000755588882971 144.93159695969533,4.778879060952514 145.02973465478877,4.676474509554347 145.1968531933905,4.323747721612334 145.36397173190744,3.9767100755795037 145.6249611092131,3.675185563718061 145.88595048651874,3.3736610514327436 146.02035646020235,3.0152451215815486 146.1782301433924,2.679585759282308 146.45984265967377,2.3951286723006646 146.70589803974335,2.2016978529835973 146.78554602418166,2.1789412857707413 146.82963687258035,2.1789412857707413 146.92066314049924,2.1789412857707413 146.96688741704898,2.1846304279342483 147.01666740735422,2.1789412857707413 147.06573625477512,2.1732521444549824 147.1105382460595,2.1618738606366175 147.15391795173943,2.139117293678086 147.19089737304705,2.1163607267195546 147.2221876526998,2.0879150181061648 147.24636650509322,2.0537801679226924 147.2641450730296,2.0139561755757125 147.28050135544626,1.9741321832287326 147.4561536066574,1.610027111807454 147.48459931544036,1.5758922616239812 147.67376327828316,1.3995288678649118 147.73492155189942,1.36539401717279 147.80390239557727,1.3312591669893175 148.07698119907963,1.2516111825496823 148.15165118432753,1.2231654736819684 148.2142317434635,1.1776523400192298 148.42899684413464,1.0183563711399597 148.4823325479437,0.9443975286095072 148.50153340131496,0.9045735365168519 148.52428996827348,0.847682118781424 148.6643850837815,0.6201164495352083 148.8151473397122,0.3868616381254857 148.95097559874597,0.25601137811392966 149.10742699667063,0.1479176848065806 149.16574069941578,0.11378283462310781 149.25961153812105,0.06258055905118678 149.42530779128785,0.005689141315758782 149.58887061647184,0Z"/></svg>