<svg xmlns="http://www.w3.org/2000/svg" width="256" height="256"><path d="M203.636362808795,0 197.81818101425802,256 0,186.18181777197466 203.636362808795,0 M-24564.363536188426,-52898.908874543245 -24930.908989244257,-52805.817965830654 -24669.09080883688,-53085.090693355596 -24564.363536188426,-52898.908874543245 M-24564.363536188426,-52898.908874543245 -24285.09081039744,-52829.09069474276 -24110.54535656133,-52805.817965830654 -23918.54535734161,-52689.4543302867 -23738.18172136417,-52735.99978498979 -23575.272631117135,-52852.36342018695 -23668.363539829727,-53015.272511127565 -23714.908994186022,-53201.454327859174 -23557.818086080315,-53294.54523761213 -23231.999905239452,-53131.63614771189 -22975.999906626614,-53178.18160102781 -22795.63627064918,-53085.090693355596 -22813.09081637958,-52898.908874543245 -22661.818089721615,-52782.54523934609 -22481.45445374418,-53038.54523899929 -22126.545364624213,-52991.999784643 -22068.363546332053,-53178.18160102781 -21870.545364971003,-53061.81796444349 -21620.363548499496,-52991.999784643 -21381.818094923477,-53038.54523899929 -21160.72718673107,-53131.63614771189 -20869.81809700422,-53294.54523761213 -20677.8180977845,-53480.72705399695 -20654.545370606353,-53690.18159825349 -20637.09082487595,-53876.36341706583 -20922.181733155056,-54062.54523345065 -21108.363550580238,-54225.45432335089 -21213.090822881903,-54411.63614216324 -21335.272640567182,-54597.81795854805 -21393.45445816576,-54807.27250280459 -21364.363549193076,-55109.817957160885 -21666.90900285579,-55202.90886691385 -21800.72718378335,-55482.181591317676 -21626.181730294033,-55528.72704567397 -21317.81809483678,-55598.5452275552 -20957.090823575487,-55551.999773198906 -20712.72718820493,-55319.2725024578 -20474.181734975704,-55505.45431884261 -20247.272644641973,-55319.2725024578 -19799.27264680941,-55063.27250280459 -19543.272647156202,-54853.817957160885 -19444.363557342655,-54714.18159513237 -19357.09083007781,-54551.27250419175 -19165.09083120488,-54434.908868647806 -18984.727195574233,-54527.999777707184 -18763.636287381825,-54737.4543230041 -18559.999924573032,-54946.90886622027 -18391.272652531457,-55086.54523032953 -18036.3635630647,-55272.72704810151 -17803.636290936432,-55482.181591317676 -17693.090837187017,-55621.81795542694 -17582.545382744025,-55854.5452275552 -17320.72720198986,-55994.181590624095 -17111.27265773332,-56110.54522512767 -16698.181750321193,-56110.54522512767 -16325.818115124033,-56343.27249690915 -16040.72720753851,-56506.181587849765 -15965.09084420953,-56692.36340458137 -15778.909026784346,-56855.27249552199 -15726.545390633511,-57018.181586462604 -15412.363573728515,-57320.72703943174 -15127.272665796201,-57669.81794675717 -15039.999938531355,-58042.18158091395 -15022.545393494534,-58251.63612621087 -15039.999938531355,-58507.63612482371 -15080.727211439906,-58810.18157918 -15179.636301253453,-58949.81794224889 -15179.636301253453,-59182.54521333679 -15138.909029038485,-59647.999757246536 -15167.99993835796,-60299.636117887894 -15202.909029125183,-60625.454297341596 -15208.727210572928,-60927.99975169789 -15197.090847330644,-61230.54520570739 -15191.272665536108,-61509.817931151585 -15266.90902886509,-62207.999745802445 -15319.272665015922,-62533.81792664331 -15394.909028344904,-63185.45428832503 -15470.545390980304,-63487.99974129417 -15586.909027564625,-63720.72701342244 -15650.909027304531,-63999.999739907005 -15645.090845163204,-64279.27246500441 -15639.272663715457,-64581.81791936071 -15685.818118071753,-64884.36337232984 -15743.999935670332,-65140.36337198305 -15837.090844382925,-65396.36336955551 -15935.999934890055,-65629.09064272416 -16017.454480360362,-65838.5451869807 -15906.909025570578,-66164.3633667812 -15941.818117031382,-66397.09063856267 -15994.181753182214,-66629.81791069094 -16081.454479753478,-66839.27245598786 -16244.363570347305,-67188.36336227291 -16407.272660594343,-67490.9088166292 -16564.36356870005,-67746.90881420167 -16634.181749887703,-67909.81790514229 -16709.818113563473,-68095.99972256747 -16779.63629475113,-68328.72699365538 -16849.454476979154,-68584.72699434895 -16936.727203897208,-68817.4542640497 -17047.27265764662,-69050.18153721833 -17186.9090210623,-69282.9088093466 -17378.90902028202,-69492.36335256277 -17646.54538283072,-69794.90880761265 -17803.636290936432,-70027.63607766018 -17995.63629015615,-70237.09062295708 -18065.454471690595,-70469.81789473857 -18158.54538074998,-70702.54516686684 -18356.363561417445,-70888.72698325165 -18623.99992396615,-71051.63607419227 -18763.636287381825,-71307.63607280511 -18932.3635594234,-71726.5451613182 -18996.363559163306,-72005.81788780275 -19071.999922492287,-72238.5451609714 -19141.81810402673,-72447.99970522794 -19153.454467615808,-72680.72697596905 -19211.636285214387,-72959.99970245361 -19327.999921105125,-73169.45424671016 -19549.090829297533,-73402.1815198788 -19775.999919631264,-73588.36333626362 -19933.090827736974,-73681.454245323 -19845.818101165707,-73914.18151710447 -19915.636282353364,-74170.18151571731 -20072.72719115265,-74263.27242477669 -20247.272644641973,-74309.81787913298 -20421.81809847808,-74309.81787913298 -20747.636279318944,-74379.63605997385 -21032.727187251257,-74449.45424324225 -21172.363549973354,-74542.54515091446 -21108.363550580238,-74728.72696764607 -21317.81809483678,-74891.6360585867 -21602.90900311588,-75194.18151259619 -21631.999911741776,-75403.63605685273 -21457.454458252458,-75403.63605685273 -21172.363549973354,-75543.27241888126 -21253.81809544366,-75775.9996920499 -21457.454458252458,-76125.09059833495 -21631.999911741776,-76311.2724171473 -21800.72718378335,-76357.81787150359 -22068.363546332053,-76520.72696140384 -22015.999909834427,-76683.63605234446 -21725.09082010758,-76660.36332343235 -21637.818093883106,-76823.27241437297 -21567.99991234866,-77032.72695862952 -21608.727184563628,-77288.72695724235 -21626.181730294033,-77567.99968476729 -21730.909002248907,-77800.72695585519 -21754.181729427055,-78056.7269555084 -21794.909002335604,-78335.99968095259 -21963.636274377175,-78429.09059070556 -22231.272636925878,-78591.9996806058 -22405.8180904152,-78591.9996806058 -22778.181725612358,-78615.27240709036 -22830.54536176319,-78871.2724057032 -23010.908997047045,-78871.2724057032 -23156.363541910472,-79057.45422451556 -18321.454470997014,-79173.8178600595 1634.909084264897,-79778.90876599777 12706.909039268809,-80523.63603535171 16797.09084082832,-79359.99967644432 21090.909005196627,-77358.54514051075 39359.9998403896,-68817.4542640497 42757.818008399205,-67537.4542709855 43624.72709578522,-67444.36336088575 45498.18163362613,-67374.54518108525 60119.27248295083,-69515.63608008772 64302.54519356972,-70190.54516860079 66862.54518281922,-71005.09061983597 73332.36333834435,-75589.81787323755 80884.36330800017,-81384.72694233035 85399.27238056088,-84293.81783959885 90903.27235819289,-88110.54509508118 94516.36325260036,-93486.54507427373 95773.09052022036,-94789.81779520964 97012.36324245673,-95534.5450645636 100991.99958957326,-96744.72687782728 104866.90866508169,-97791.99960257791 107432.7268364725,-98536.72687089148 108794.18137639416,-99258.18141445443 110289.45409724338,-100445.0905001932 113343.9995393753,-105448.7268441886 116264.72680023288,-110615.27227704387 117794.90861219612,-112360.72681540497 119761.45405874962,-113826.90862762829 121617.45405155371,-114385.45408025064 125981.09039745646,-115060.36316737656 129890.90856303854,-114618.18135237892 135627.6358127988,-113268.36317569953 146042.18122467326,-103074.9086720175 147956.36303507592,-101399.2723134569 149282.90848423037,-100747.6359542027 151144.726658829,-100514.90868103405 153727.99937525662,-100701.09049984641 174056.72656606248,-103656.7268514712 185274.18106558305,-106612.363203096 197573.81737888747,-110266.18136971844 202885.81735729973,-112011.63590807954 206853.81734152077,-114222.54499035039 210495.99914455414,-116270.54498064026 215912.72639526808,-119295.99951449307 233733.81723228173,-129908.3631066882 251828.362612945,-139124.36307027517 262184.72620722087,-144034.9085045176 266490.18073552503,-145640.7266808502 269346.9079966427,-145687.27213416612 271761.4534410288,-145361.45395332525 274495.9988844611,-144011.63577803306 319947.6350640778,-118853.81769706789 327330.90776065167,-114757.8177154478 328907.63502697117,-114478.54498792285 331549.089561691,-114641.45407886348 345768.7258675394,-116130.90861861173 356747.63491452433,-117387.63588519135 381119.99845114624,-120063.99951067838 388206.54387723905,-120831.99950859764 393477.8165827428,-121437.0904148827 396241.45293514786,-122530.90859260244 414458.1801338432,-133096.72673044127 412049.45287090493,-134958.54490642707 416750.5437608908,-137797.81762042714 425821.089178574,-140683.63579225147 422609.45282833633,-142778.18123689762 428642.90734927123,-145245.0903181281 433192.72551225236,-145757.09031639414 433716.3618741075,-145268.36304565304 436322.90731771325,-146431.99940456043 437003.6345876741,-146082.908497235 439080.72548832383,-147199.9994017861 440098.9073023678,-148107.63576069352 441262.5436612752,-148410.18121504982 442699.63456452586,-148642.90848579092 443746.9072878893,-148270.54485059375 446161.45273227536,-148061.09030633722 446405.8163676459,-149247.99939311633 448058.1799972944,-149015.27212098808 453079.2708863266,-149294.54484747263 453213.0890672542,-148968.7266666318 456209.45269178756,-150551.27211405226 456087.27087410225,-151947.6357461283 458472.72540951567,-152226.9084715725 461434.17994293495,-152436.3630168694 462143.99812186847,-150993.45393147744 466501.8162859767,-151645.0902921188 467252.36173747195,-151807.99938167224 469661.0890007571,-148200.72666975288 473448.72534900066,-150318.54484227079 473361.4526217358,-152343.27210676967 482996.3616738359,-153413.81755800484 491269.8161853207,-154251.6357360714 493341.0889041759,-155042.9084597816 497605.8161595715,-155415.27209497878 501236.3615993626,-155508.363002651 505076.36158375704,-155019.6357322567 512157.08882805536,-151389.0902921188 512645.81609879644,-151621.81756528743 513885.08882103284,-150295.27211647978 515537.45245033456,-151714.90847295965 521797.81606125634,-147455.99939935858 528762.1796693171,-143802.1812337765 532794.1796532781,-141754.1812414059 537565.0887247984,-142196.36305744393 545599.9977827072,-142196.36305744393 545925.8159632013,-140683.63579225147 547345.4523210683,-137821.09034933927 548474.1795895552,-135517.09035696866 548794.1795882548,-134539.6358168736 549591.2704941063,-132957.09036841276 550330.1795816658,-131653.8176450493 550626.9068531872,-131118.54492029868 551389.0886686184,-130909.09037708251 554065.4522937585,-130117.8176523319 560698.1795398776,-127953.45402407055 568639.9976890738,-124741.81767383292 569192.7249595547,-124509.09040309182 580398.543095833,-119854.5449674622 585908.3612556064,-118527.9995176142 588555.6339717739,-118109.09042910111 589911.2703305946,-117969.45406464506 590516.3612368796,-117853.09042910111 592977.452135622,-117690.18133816049 594571.6339473252,-117457.45406845976 596689.4521205366,-117224.72679529112 598871.270293488,-117131.63588761889 599325.0884734619,-117108.3631587068 600971.6339213159,-117038.5449789063 602629.8157331056,-117154.90861340988 604765.0884517008,-117364.3631587068 604974.5429959573,-117434.18133954765 608197.8157101308,-118388.36315419851 609460.3611595454,-119086.54497023653 609826.9066126011,-119226.18133226506 610996.3611536499,-120017.4540559753 612247.2702391286,-120878.54496191356 614801.4520472771,-122251.63586611787 616186.1793143769,-123135.9994988875 617460.3611270337,-124020.3631323507 618734.5429403841,-124834.90858254551 619793.4520269899,-125509.8176710586 620922.1792947833,-126207.99948570946 621690.1792920089,-126789.81766516315 622580.3611062262,-127301.81766481636 623528.7247390826,-127604.3631177855 624762.1792791777,-127581.09038887339 625890.9065473179,-127255.2722094197 626135.2701826884,-127138.90857387574 628200.7247197491,-126277.81766793747 628514.906536654,-126114.90857699687 628939.633808002,-125928.72675957167 629573.8156232598,-125509.8176710586 630760.7247093453,-124904.72676477354 632267.6337941304,-124253.09040309182 633466.1792441518,-123578.18131492552 634612.3610576756,-123089.45404418441 636148.3610510866,-122391.27222849318 636776.7246848965,-122274.9085939896 638580.361041203,-121902.54495879244 640779.6337595381,-122135.27222953356 642478.5428435429,-122437.81768284948 643409.4519310155,-122437.81768284948 644939.6337429788,-122577.45404695874 647057.4519158434,-122973.09040794687 649262.5428159729,-123135.9994988875 651438.5428078234,-123298.90858844096 653236.3609816417,-123508.36313269749 655342.5427912641,-123717.81767834119 657431.2700555029,-123903.99949680675 659287.270048307,-124066.908586707 661480.7245845007,-124322.90858531983 663505.4518493463,-124578.90858393267 665512.7245681148,-124788.36312818922 666967.270016749,-124834.90858254551 668334.542738812,-124904.72676477354 669567.9972792539,-125021.09040135785 670411.6336394617,-125114.18130903007 670661.8154566268,-125137.4540369018 671895.2699970687,-125114.18130903007 673245.0881730545,-124695.272220517 674554.1790768253,-124043.6358577949 676264.7245244192,-123275.63586299676 676683.6336136259,-123182.54495324379 677812.3608821128,-122740.36313789936 679389.0881484323,-121995.63586750504 679912.7245095939,-121739.6358688922 680890.1790514229,-121250.90859711071 682164.3608640797,-120552.72678107269 683543.269949385,-119854.5449674622 685131.6335796404,-119156.36315246456 688052.3608401511,-117783.27224721988 688424.7244753483,-117573.81770400371 689262.5426534149,-117224.72679529112 690065.4517410609,-116898.90861445025 691822.5426433579,-116223.99952628397 693317.8153642071,-115735.27225554285 694917.8153577048,-115223.27225831717 696127.9971709684,-114827.63589559509 697425.451711497,-114338.90862589434 698257.4517077691,-114129.4540816378 699165.0880680636,-113896.72680846916 700002.9062461301,-113221.81772134324 703051.6335064676,-112221.09045337646 704517.8153186908,-111871.99954362349 705838.5425867443,-111359.99954639781 707531.6334886078,-110917.81773035979 709434.1789350746,-110196.36318749042 711191.2698373715,-109754.1813714524 712395.6334684939,-109288.72682719586 713483.6334640724,-108893.0904665545 714565.8152785498,-108520.72683135734 715694.5425459965,-107775.9995620034 716701.0879964513,-107031.27229264945 717922.9061733041,-106239.99956789883 719487.9970760345,-105146.18139017909 720552.7243447816,-104331.63593963749 722833.4516078933,-102725.8177633049 724596.3606919849,-101306.18140578468 726301.0879574374,-100049.45413920505 727842.9061333365,-98862.54505138555 732171.6333881252,-95743.9996098605 732834.9061127024,-95231.99961263483 733346.9061109684,-94696.72688649705 733678.5424729103,-94231.27234466805 733771.6333816228,-93742.54507288657 733748.3606544448,-93393.45416556114 733550.5424734305,-92997.81780249225 732264.7242968378,-91717.8178083877 729390.5424903366,-89111.2723651287 724863.9970545336,-84968.72692672478 723281.4516060727,-83502.54511484824 722821.8152443042,-82781.0905709385 722641.4516086737,-82199.27239148479 722623.99706329,-81338.18148797406 722932.3606984004,-80267.63603777924 724805.8152362413,-75962.1815084347 725137.4515985299,-75263.99969274347 726685.0879562236,-71819.63607037757 727197.087953796,-70609.45425711387 727435.6334077189,-69631.99971667203 727441.4515891667,-68840.72699296179 727243.6334084992,-67863.272450786 726795.633409973,-67118.54518039168 726312.7243210265,-66559.99972846292 725847.2697774635,-66141.09063994983 725271.2697798043,-65675.63609708045 724194.9061478149,-65163.63609881441 719592.7243483362,-63301.81792490936 712849.4516484678,-60602.181571897396 712506.1789225901,-60462.54520744135 712308.3607419226,-60369.45429872876 708474.1789393228,-58833.45430566457 707787.6334872206,-58391.272488586175 707199.9971259724,-57716.36340007309 706897.4516730033,-57343.999765916305 706664.724400875,-56808.727041165694 706466.9062202076,-56110.54522512767 705175.2698618203,-47871.999803716484 705029.815316957,-46917.81799045279 705134.5425892585,-46196.36344758341 705338.1789517206,-45521.454360457494 705867.6334950235,-44823.27254441947 706577.4516739569,-44194.90891164984 707473.4516703157,-43706.181639868366 708218.1789400164,-43426.90891373059 709096.7243909915,-43147.63618828639 711877.8152887801,-43124.363460414665 717154.906176772,-43194.18164264269 718458.1788984016,-43077.81800605837 719301.8152586094,-42891.63618863319 720709.8152528873,-42356.363464576156 722682.1788815821,-41588.36346631011 727819.6334061583,-39633.454383692464 728418.9061306488,-39354.18165755469 728721.4515843116,-39144.72711191099 730391.2697593437,-36445.09076028619 732538.1788411811,-33489.4544083146 733736.7242912025,-31720.727143468936 733957.8151993948,-31045.818054262272 734091.6333803225,-30114.90896713635 734143.9970164732,-29602.908970951048 735453.0879202441,-23272.727178148 735546.1788289567,-22877.090816119486 735726.5424649342,-20875.636279145547 735912.7242820126,-18548.36356133075 736052.3606450814,-16500.363567919772 735965.0879185101,-13754.181761591888 736087.2697361954,-12334.545402684487 736191.9970081503,-11194.18177268919 736133.8151905517,-9960.727231553763 735615.9970104911,-8843.636325962287 734114.9061075005,-6027.63633775317 733934.5424722168,-5678.54543008095 737274.178822281,-3490.9090767222 741533.0878955353,-954.1818136104868 745524.3606065876,1675.6363575202374 745681.4515150401,1791.9999941045587 752639.9969413064,8075.636331510938 753570.9060287791,8936.727237102414 756258.9060178552,10845.09086640413 760151.2696380536,13800.727218375718 762850.9059910657,15871.99993619052 776360.7241176338,24831.99989908392 778333.0877459818,26251.636256604157 778606.5422906718,25925.818077844036 779694.5422859035,24157.090811957998 779479.2695598523,22411.636273596898 779479.2695598523,20829.090826176416 781754.1786411696,17501.09083935446 782906.1786364878,16034.909027131136 784570.1786300723,14498.909031986206 784855.2695376577,14359.272668917318 788450.9058870284,12520.727222883997 789387.633155602,12031.999951102516 795083.6331324538,9309.0908712592 798952.7240261676,7493.818152057238 801466.1785614077,5841.454521368358 802734.5421926167,5026.909071867131 804142.5421865479,4491.636347116518 806388.360359586,3770.181803206767 811013.8148858962,2373.818173558259 811793.4512467108,9658.181779971794 815679.9966854616,13661.090853919668 812357.814880781,13870.54539817621 807540.3603545575,14056.727216988556 804759.2694567689,14242.909033373367 804427.6330948271,15709.0908452499 804287.9967314113,17058.909021929278 803042.9058277272,18082.90901880816 802024.7240136833,19083.636287815316 802676.3603743246,20247.272646722715 803263.9967359196,21364.36355127382 803118.5421910562,22900.363543991214 803118.5421910562,24622.545354827376 803357.0876446322,26228.36353115996 804142.5421865479,27950.54534060896 804654.5421844672,29858.908969910677 805125.8149098246,31697.45441698437 805259.633091099,33605.818045245716 804532.3603667819,35281.45440345953 803159.2694632711,36421.81803484199 803071.9967367,36677.81803241446 803002.1785555122,42216.72710254764 802722.9058286808,44171.63618412491 802402.9058299813,44450.908910609476 801460.3603792663,45754.18163362613 799354.178569644,45358.54527090404 795450.1785855097,46196.36344897057 794746.1785883707,46452.36344758341 794298.1785905381,46638.54526639576 793169.4513220511,47313.45435352168 792453.8149616699,47499.63617198724 791435.633147626,47825.45435074735 790685.0876961306,48221.090713816244 790033.4513347957,48872.72707411081 789748.3604268634,49128.72707411081 789282.9058833005,49547.63616366426 788578.9058861615,49966.54525217734 788049.4513428586,50571.63615811561 786850.9058935307,51642.18160831041 786577.4513488407,52014.54524350758 786106.1786234832,52666.181605189304 784703.9968109998,53690.18160068102 784296.7240853822,54062.54523483781 783505.451361672,54714.18159547916 782039.2695491018,57181.09067740322 781829.8150048453,57437.09067740322 780916.360463103,58600.72703631062 780241.4513745899,59275.63612343654 779502.5422870305,59810.90884957432 778781.0877445079,60485.81793670024 778495.9968362288,60741.817935313076 776901.8150245256,61393.4542969948 776471.2695717299,61463.27247887604 775557.8150303344,61486.54520466702 775098.178668566,61486.54520466702 774202.1786725541,61556.36338793542 773661.0877653153,61649.45429560764 773073.4514037203,61835.63611303282 772567.2695875956,62114.908838477015 772107.6332258272,62533.817928030476 771607.2695918438,62999.272471940225 771170.9059572535,63301.81792629652 770338.9059606347,63767.272469165895 770053.8150527024,63976.72701342244 768965.8150574708,64884.363373717 767575.2696082296,65861.81791381206 767069.0877921049,66117.81791450563 766551.2696120443,66280.72700336551 766231.2696133448,66303.99973123724 765631.9968885075,66257.45427688095 765201.4514360586,65931.63609604008 763170.9059897652,65210.181554557865 761215.996906454,64791.27246465762 757439.9969217994,65582.54518975502 756584.7241980025,66001.45427826811 756200.724199563,66443.63609326576 755921.4514737721,67048.72700163156 755775.9969289086,67979.63608737031 755781.8151103563,68584.72699469574 755880.7242008635,69352.72699053425 756090.1787458137,70330.18153305685 756154.1787452067,70865.45425919462 755502.5423845653,71889.45425468634 755671.2696562601,72238.54516235855 755805.0878375345,72610.90879755572 755810.9060193291,73332.36333799757 755839.9969283018,74914.90878645841 755746.906019936,75287.27242165558 755543.2696567803,75706.18151016867 754338.906025658,77265.45423318532 753949.0878450772,77521.45423179815 753291.6333022945,78056.72695689557 753006.542394709,78382.54513773642 752488.7242146485,79266.90877015925 752127.9969433871,79592.72695100012 751581.0878550474,80151.27240154172 751377.4514918919,80477.09058238259 751307.6333103575,81105.45421619258 751179.6333108776,81594.18148797406 751063.2696749868,81850.18148554652 750766.5424034655,82338.908757328 750277.8151327244,82920.7269367817 750004.3605887279,83665.45420717602 749759.9969533574,83967.99965910478 748113.4515055034,85899.63601593144 747293.0878728204,85247.9996545965 746257.4515126992,84689.45420266774 745297.4515169475,84293.81783994565 743930.1787948845,83851.63602252046 741637.8151681838,83153.45420752281 735924.3606456016,81547.63603361776 736703.9970060695,82362.18148485295 738833.4515428701,83618.90875281973 737547.633366971,85247.9996545965 736238.5424632002,85503.99965320934 734952.7242862607,85643.63601523786 732927.997021415,85759.99965182217 732253.0879332487,85992.72692499083 731060.3606653686,86667.63601211674 730868.360666149,86807.27237414525 730298.1788506311,86737.45419434477 730077.0879424387,86434.90874102885 729879.2697614244,85364.36329118082 729687.2697622047,85015.27238142786 729018.1788554862,84735.99965702403 727906.9061327296,84223.99965771762 726708.3606834018,83572.36329811664 726015.9970495051,83339.63602633515 724840.7243273554,83199.9996618791 724351.9970566143,83223.27238871047 723438.5425152187,83246.54511762256 723060.3606978803,83223.27238871047 722117.8152471653,83130.18148103825 721646.5425218078,83106.90875316651 721087.9970695323,83246.54511762256 720308.3607094111,83688.72693262022 719447.2698034728,81989.8178486154 718871.2698058137,81012.36330852036 718138.1788997019,79965.09058515691 717672.724356139,79685.81785867234 717114.1789038634,79522.90876773173 716567.269815177,79569.45422208802 715967.9970906865,79825.45422070086 715583.9970925938,80127.99967609752 715327.9970929406,80686.54512663912 714705.4516412719,82362.18148485295 713402.1789196425,85131.63601801218 712122.1789241508,87505.45419018329 711738.1789257113,88389.81782260611 711191.2698373715,89367.2723651287 709410.9062078964,91810.90871952783 709224.724390818,92276.3632623972 709684.3607525865,93951.99961853027 709591.2698438739,94394.18143595546 709445.8152990105,94813.09052446854 709131.6334821054,95231.99961298163 708305.4516672812,95557.81779486286 707357.0880347717,95557.81779486286 706077.0880399735,95394.90870392224 705262.5425883916,95418.18143040681 704378.1789559687,95743.99961228804 703557.8153229391,96232.72688198878 702766.5425985352,96767.99960708618 700805.8153337763,97978.18142034988 700142.5426091991,98327.27232767531 698536.7244342536,98815.99959841641 696645.815351029,99234.90868901025 694417.4517237215,99514.18141341407 692061.0880969339,99630.54505103876 689413.8153800728,99839.9995952953 688139.633567416,99933.09050296752 689675.633560827,101562.18140682504 691531.633553631,103261.09048978948 693102.5426381561,104797.09048285366 695394.9062648568,107147.63592958056 696709.8153504222,108427.63592368513 695249.4517199934,109498.18137283956 693655.2699082902,110568.72682303436 692846.5426388496,111103.99954917215 692346.1790045195,110871.27227808425 691909.8153699292,111290.18136659733 691234.9062817629,112127.99954605103 689780.3608331287,114152.72680846916 689425.4517440087,113850.18135550003 688552.7244748281,112919.27226976126 687406.5426613044,111755.63591085387 686626.9063004896,110987.63591258782 685841.4517582271,110475.63591536215 683333.8154051284,114036.36317292521 674513.4518046103,124927.99949403242 667217.451834261,116735.99952697754 661381.8154939936,113198.54499589905 653858.906434004,111313.45409342868 647499.6337322283,110359.27227877783 635834.1792341815,109963.6359167493 629928.7247130733,110312.7268254619 624378.179281085,110801.45409620302 618228.3611239126,111615.99954639781 613282.9065985562,115595.63589386112 609506.9066139016,118155.63588484457 607645.0884396498,119435.63587894914 603549.0884562958,122298.18132082096 601309.088465399,123112.7267734433 593727.9975871173,126952.72675645056 586932.3612510981,129582.54492966204 586717.0885247003,129652.36310946252 578263.2703772379,132514.90855237472 562071.2704430415,134795.63581583323 556317.0886482444,132724.36309663128 548154.1795905089,128186.18129758598 544709.815968143,125765.81767209897 542644.3614310825,124392.72676893503 537186.9069078068,122205.09041210837 531351.2705678861,119109.81769949543 526039.2705894738,117969.45406603222 521268.3615179535,117410.90861549063 517061.81608085,117387.63588657853 502574.5434121061,118993.4540629111 490495.9980066473,120296.72678384703 468299.6344604886,125672.7267619992 462987.63448207633,126952.72675645056 462033.4526677723,127162.18130278785 453021.0890680345,129117.09038436512 448017.45272507943,129652.36310946252 431389.08915629267,131444.36310217992 428421.81644073204,130839.27219624165 419397.81647740514,128977.45402129623 416023.2710365737,128279.27220629858 407447.27107142616,125998.54494388045 406370.90743978356,125695.99948883057 395938.90748217877,117457.45406880655 383493.8166233173,108194.90865190365 374231.2712064144,104401.45412221231 370071.27122332045,102702.5450382075 354781.089467624,101492.36322494381 344698.18041769136,99467.63596009814 341358.54406728037,98397.09050886297 335831.27136247023,96628.36324505767 334632.7259131424,96255.9996098605 323991.2714109342,91345.45417423091 313885.08963382343,86667.63601211674 310935.2714636464,85317.81783647774 302522.18058874586,81082.18148936122 288209.45337453164,79173.81786144666 279645.0897726264,79988.36331164147 276555.6352397273,80290.9087646106 254289.45351203415,83944.72693227342 249000.7262608,84619.63602078651 233826.90814064752,86597.81782988872 225931.6354458076,89623.27236270116 220439.27183141786,91717.81781046843 215092.36276258517,93765.81780214547 209320.72642240446,95325.09052169422 177954.90836805548,103796.36321488688 158737.453900353,106891.63593096772 154245.81755531722,107613.09047244994 151540.3630205107,107589.81774457822 148404.36303360207,107450.18138150932 143319.27214482994,107101.09047522426 142533.81760291423,107031.27229299625 141818.1812418394,106984.72683863995 138728.72670928703,106123.63593270168 118615.27224522583,100538.18141133332 117143.27225120796,102190.54504063504 113111.27226828742,106309.81775151403 107822.54501670648,96698.18142485816 100497.4541373844,90181.8178153235 93887.99961844357,84991.99965598367 84154.18147618318,79802.18149525666 82199.27239356554,78941.09058827802 81559.27239581967,79871.99967609752 79912.7269479657,80034.90876703814 77131.63605052381,80360.72694579826 74612.36333348928,80802.90876322344 71220.36334762101,81687.27239564627 70702.54516756043,81547.63603361776 69794.90880726586,81547.63603361776 69503.999717539,79848.72694961296 68107.63608685012,79848.72694961296 67839.99972430142,78335.99968303334 67805.0906335342,78149.81786456778 67362.90881749618,78149.81786456778 66402.90882105079,78149.81786456778 66402.90882105079,76474.1815084347 64715.63610098185,76474.1815084347 64715.63610098185,74239.9996993325 64715.63610098185,73076.3633404251 63802.18155958633,73076.3633404251 63022.54519877158,73076.3633404251 63022.54519877158,72075.63607141795 63022.54519877158,71377.45425537993 61323.63611476678,71377.45425537993 61131.63611554706,69678.54517137512 59630.545212556506,69678.54517137512 59630.545212556506,67770.18154311377 59630.545212556506,66303.99973123724 57931.636128551705,66303.99973123724 57931.636128551705,65605.81791519922 57931.636128551705,64605.09064619206 57140.36340414788,64605.09064619206 56238.54522668823,64605.09064619206 55976.727045240485,63534.545195997256 55807.999773198906,62906.18156218726 54539.63614233663,62906.18156218726 54539.63614233663,61300.36338793542 54539.63614233663,59508.363395218024 52846.545239779574,59508.363395218024 52846.545239779574,57832.72703804458 52107.636151873376,57832.72703804458 51165.09070150517,57832.72703804458 50926.545247929156,56133.81795403977 49466.18161750037,56133.81795403977 49466.18161750037,54039.27250835324 49466.18161750037,52735.999787070534 48564.36343900034,52735.999787070534 47773.090715290105,52735.999787070534 47773.090715290105,51595.63615395412 47773.090715290105,49338.18161940772 46074.1816312853,49151.99980059537 46074.1816312853,47662.54526084711 45032.72709006318,47662.54526084711 44381.09072907503,47662.54526084711 44381.09072907503,46731.63617406798 44381.09072907503,45963.6361768423 42682.181645070224,45963.6361768423 42501.818009092785,44264.72709422466 40989.09074285996,44264.72709422466 40989.09074285996,42565.81801021986 39290.18165885515,42565.81801021986 39290.18165885515,40075.63620146444 38836.36347853448,39191.27256869482 38621.09075213661,39191.27256869482 37608.727119887175,39191.27256869482 37608.727119887175,37841.45439132186 35909.81803588237,37492.3634850368 35909.81803588237,35607.27258221965 35909.81803588237,34094.545317027194 34216.7271336721,34094.545317027194 34216.7271336721,33349.81804663288 34216.7271336721,32744.72714034782 33780.363499081825,32395.63623198202 33751.27259010914,32116.36350549745 33896.72713497256,31953.454415597207 33966.54531650701,31743.99987238104 33937.45440753432,31487.999871687458 33768.72713549275,31487.999871687458 33693.09077285735,31301.818056343018 33437.090773204145,31231.99987307462 33378.90895525877,31022.545328818076 33134.54532023501,31185.454419758695 32773.81804862693,31325.09078178721 32773.81804862693,31069.09078317437 32831.999866572296,30836.363511046104 32488.72714069461,30999.27260198672 32366.545323009334,30789.818056689808 32465.45441351646,30557.090785948698 32407.272595917882,30394.181696048454 32232.727142081774,30231.272605107835 32069.818051487946,30463.999876889317 31871.99987082048,30673.45442253302 31633.45441689767,30836.363511046104 31645.090780486746,30580.363513473636 31656.7271447694,30370.90896713635 31423.99987229434,30510.545331592402 31266.90896418863,30603.636240304993 30929.454420452275,30626.908967829935 30795.636238484345,30394.181696048454 31080.727146416655,30324.363512780055 31336.727145723074,30161.45442287981 31639.27259869221,30068.36351416722 31784.727143555632,29882.181697435615 31627.636235449925,29695.99987897006 31301.818054609063,29882.181697435615 31133.09078256749,29765.818062238457 30964.363510525916,29719.27260788216 30795.636238484345,29672.7271521387 30621.090784648233,29463.272608922533 30679.272602940393,29230.545337141055 30731.63623909123,29021.09079184414 30475.63623978481,29021.09079184414 30213.818059030644,29160.727153872656 29951.999878623268,29300.363517981918 29800.727151618517,29207.272608228952 29789.090788376234,29021.09079184414 29847.272605974813,28858.181701943893 30079.999878103084,28718.545338528216 30033.454423399995,28509.090793231302 29998.545332632773,28253.090795658838 29748.363515467685,28113.454431549577 29655.27260675509,27903.999887293037 29573.818061631573,27671.272616205137 29364.363517028243,27461.81806986785 29125.818063452225,27368.72716115526 28939.63624637383,27275.63625348304 28957.09079175744,27042.90898135477 28829.090791930837,26926.54534581082 28788.36351971587,26740.363528385635 28805.81806475269,26484.3635297728 28701.090792451025,26251.636256604157 28567.27261117667,26042.181712347614 28392.727157340563,25972.363532200332 28154.181703764545,25786.181713734775 27979.636249928437,25809.454441259717 27560.72716072177,25902.5453503191 27514.181706365474,25623.27262279416 27403.636252269273,25367.272625221693 27194.18170801273,25181.09080744972 27037.09079921344,24971.636262152806 26903.272618285882,24738.9089914117 26705.454437271623,24529.454447155156 26612.36352855903,24296.727173986514 26525.090801294184,24063.999902898617 26333.090802074465,23877.81808443306 26193.45443935237,23784.72717676084 25954.90898577635,23575.272632504297 25838.5453502324,23342.545359335654 25722.18171364808,23109.81808963492 25477.818078277523,22923.63627082257 25053.090807276323,22714.18172552566 24750.5453539604,22644.363544338004 24587.636263713364,22574.545364537516 24436.363537055404,22481.45445547813 24273.454446808366,22411.636273596898 24081.454447588647,22388.36354572517 23912.727175547072,22388.36354572517 23738.181721710964,22411.636273596898 23447.272631984113,22481.45445547813 23255.27263276439,22295.27263701258 23138.908997220442,22062.545364884307 22946.90899800072,21829.818094143197 22661.81809006841,21527.2726397869 22359.272636405694,21410.909005630114 22190.54536436412,21387.636276718014 22225.45445547813,21131.636278105176 22074.18172882017,21038.545370432956 21911.272638919927,20968.72718716456 21684.363548586192,20782.54537182012 21858.9090024223,20549.818098651478 21940.363547199027,20317.090826523206 21841.4544566919,20177.454463454316 21602.90900311588,19991.272646722715 21533.090821581438,19735.272647069505 21201.45445963962,19642.181738356914 20974.545369305888,19455.999921972103 20747.636280012524,19269.818103159756 20613.818098044594,19153.454467615808 20322.909008317743,19037.09083345902 20159.999918417496,18990.54537875593 19967.999919197777,18990.54537875593 19682.909010918673,18874.1817425184 19531.636284607503,18757.818106974453 19549.090829644323,18292.3635630647 19287.272649236947,18036.3635630647 19031.272649930528,17896.727199995814 18856.727196788,17850.18174563952 18536.727197741675,17687.27265573927 18443.636289029084,17501.09083935446 18239.999925873497,17291.63629509792 17908.363563931678,17291.63629509792 17733.81811009557,17314.909020542113 17262.54538439128,17361.454474898408 17285.818111569428,17617.454474551618 17309.090838747576,17850.18174563952 17076.363566966098,17873.454474551618 17058.909021929278,18129.454473164456 16733.090841088415,18106.181744252353 16430.54538811928,18199.27265400532 16104.727207278418,18269.090835192972 15930.181753442308,18222.545380836676 15586.909027564625,18315.636289549268 15418.181755523052,18292.3635630647 15069.090848197622,18501.818108361615 14795.636303507592,18501.818108361615 14650.181758644167,18362.181744945938 14411.63630541494,18618.1817425184 14225.454487989757,18641.45446934976 14056.727216294974,18571.636288162106 13789.090853399483,18408.727199302233 13620.3635817047,18478.545379449515 13434.181763585933,18431.999925093216 13259.636309749823,18478.545379449515 12834.909038748623,18501.818108361615 13026.909037968344,18245.818108361615 13154.909037794949,18129.454473164456 13323.636309836522,18106.181744252353 13690.181762892353,18036.3635630647 13864.727216381672,18059.636289896058 14050.909034153647,17896.727199995814 13818.181762025377,17780.363565492236 13701.818126134636,17640.727201382975 13765.818126568125,17407.999929254707 13899.636307148894,17291.63629509792 14167.272669697597,17128.7272041573 14335.99994173917,17082.181749454216 14527.99994095889,17058.909021929278 14871.272666836574,17058.909021929278 15226.181756303331,17058.909021929278 15534.545391760583,17058.909021929278 15703.272663802156,17058.909021929278 15895.272663021877,17035.63629509792 16139.63629839243,16989.09083970125 16110.545389419745,16733.090841088415 16250.181752141842,16639.999933416195 16506.18175110147,16570.181751188167 16698.181750667984,16523.63629683187 16692.363568873447,16267.636298219035 16628.363568786746,16104.727207278418 16575.999932982704,15941.818117378172 16430.54538811928,15685.818118765335 16261.818116077708,15429.818120152497 16122.181752662029,15173.81812153966 15895.272663021877,14987.636302727313 15615.99993653731,14801.454486342502 15476.363573468421,14685.090850798551 15226.181756303331,14452.363577629909 15057.454484261758,14335.999943126331 14795.636303507592,14219.6363068888 14516.363577716607,14079.99994243275 14382.545396095466,13963.6363068888 14207.999942259356,13847.272672732015 13934.545398262906,13684.363581791396 13661.090853919668,13474.909037534855 13445.8181275218,13288.72721872251 13242.181764366213,13102.545402337697 13108.363583438653,12962.909038922018 12875.636311310382,12799.999947981401 12677.818130296124,12613.818130556218 12602.181767660724,12381.090859468319 12392.727222363812,12148.363587686837 12264.727222883997,12031.999951102516 11880.727224444556,11799.27268001462 11630.545407626254,11613.090862589434 11473.454498826964,11519.999954917213 11182.545409100116,11473.454500560918 10612.36359358228,12078.545405458814 10449.454502988452,12264.72722427116 10274.909049845925,12450.909040655972 10082.909049932621,12660.363584912513 9826.909050972994,12823.272674812759 9640.7272338946,12916.36358352535 9343.999962026423,13149.090856693992 9151.999963153492,13311.999946594238 8785.45450975087,13567.999945207075 8349.090875160597,13893.818126047938 8023.272694666523,14149.818124660776 7581.090878628503,14498.909031986206 7080.72724395153,14894.545395055093 6190.545429387368,15662.545390893605 5370.181796704442,16500.363570000514 5015.272706890894,16872.7272041573 4852.363616643858,17012.363568613353 4602.181800172349,17012.363568613353 4462.54543640988,16779.63629544471 4584.727254095156,16616.727206584837 4677.818162807748,16477.090842475576 4957.090889292315,16174.545390546815 5172.363615343394,15918.545390546815 5492.363614389719,15569.454482181014 5742.545431208019,15266.909030252253 6143.999975031073,14824.727212827069 6440.7272468992505,14475.636305501639 6504.7272462923665,14312.727215601393 6661.818155091656,14149.818124660776 6900.363608667673,13940.363580404235 7162.181789075048,13684.363581791396 7377.454515472917,13498.181762979051 7610.181787254397,13125.818129862635 7330.90906111662,12939.636312437451 7336.727243257948,12683.636313824614 7051.636334978844,12637.090859468319 6871.272699348197,12660.363584912513 6591.999973210422,12450.909040655972 6737.454518073847,12311.272678627456 6865.4545175536605,12078.545405458814 7039.9999713897705,11869.090861202272 6906.18179011542,11706.181770261654 6737.454518073847,11799.27268001462 6458.181791936071,11659.636315905358 6539.636337406379,11426.909045857832 6615.272700388569,11170.90904516425 6731.6363366261,10961.454500907708 6411.636337926565,10845.09086640413 6295.272702035825,10565.818140266356 6132.363611441999,10333.090867097713 6184.727247592831,10077.090868484876 6382.54542860709,9890.9090507129 6551.272700648663,9681.454507496732 6667.636336539403,9448.72723571525 6778.181790982397,9215.999962546608 6702.545427653416,9006.545418290067 6405.818155785238,8890.181782746118 6237.090883743665,8843.63632734945 5963.636339400426,8750.545418636859 5678.545431468113,8657.454510964639 5509.81815942654,8587.636328736613 5230.545433635554,8424.727238836367 4991.999979712747,8285.090876807852 4852.363616643858,8191.99996809526 4677.818162807748,8145.454512351801 4334.545437276856,8122.181785867234 4171.636346683029,8075.636331510938 3927.272711312475,7935.9999691356315 3647.99998552149,7819.636332898101 3322.1818046806275,7796.363605026371 3037.090896748314,7703.272697354151 2891.6363518848893,7610.181788641559 2623.9999893361874,7470.545424185509 2443.6363540523307,7423.999969829212 2210.90908192406,7284.363607800697 843.6363605546558,3514.1818035535575 517.818179713793,3444.363622365904 226.90908998694303,3327.9999882091174 29.090908972685003,3118.5454425654134 58.18181794537001,2839.2727164276375 127.99999947981401,2583.2727178148 267.63636254870204,2373.818173558259 127.99999947981401,2141.0909003896163 -174.54545348931936,2234.1818091022083 -442.1818160380214,2094.5454470736922 -622.5454520154591,2071.272720242335 -773.818178673421,1978.181810489371 -942.5454507149941,1908.3636293017175 -1000.7272683135734,1698.909084004804 -674.909088166292,1675.6363575202374 -447.9999978325584,1535.9999951449308 -442.1818160380214,1326.5454498480174 -215.272726397869,1140.3636324228335 58.18181794537001,1279.9999944513495 430.5454531425287,1163.6363589074 488.72727074110804,930.909088166292 453.8181803206767,721.4545439097507 616.727270220922,674.9090895534547 727.272724317125,395.63636202851603 587.6363612482371,-23.272726484566682 866.9090877328038,-93.09090871259201 872.72726918055,-325.81817945370005 925.090905331383,-605.0909059382667 1023.9999958385121,-767.9999968788841 1128.7272684869688,-1023.9999944513495 1053.090904811197,-1303.272721976288 936.7272692672477,-1722.1818115297428 959.9999964453957,-1978.1818091022083 930.9090871259201,-2257.454536627147 890.1818149109517,-2490.181806327883 1006.5454508016918,-2746.181806327883 1076.363631989345,-2955.636351624796 983.2727236235437,-3095.272714693684 756.3636332898101,-3258.1818045939294 500.3636346769727,-3327.999985781583 308.3636354572517,-3537.4545310784965 651.636360988144,-3490.9090767222 703.999997138977,-3723.6363474633085 651.636360988144,-4072.7272561759005 674.9090888598733,-4351.999981273304 709.8181789335141,-4631.272708798243 773.818178673421,-4887.272706370709 826.181814824254,-5143.272704983546 738.9090882529897,-5399.2727035963835 634.1818156045331,-5631.999976765026 517.818179713793,-5864.727248893297 372.36363485036804,-6074.181792109466 302.5454536627147,-6353.454518247242 349.09090767222006,-6632.727244731808 395.63636202851603,-7005.090879928967 465.45454356296005,-7284.363606413534 465.45454356296005,-7563.636332898101 546.9090890332687,-7842.909057995505 558.5454522755521,-8122.181785520444 570.1818162114167,-8378.181783092909 680.7272699608291,-8610.909056261551 779.6363604679581,-8820.363600518092 936.7272692672477,-9053.0908712592 1076.363631989345,-9262.545415515742 1367.272721716195,-9448.72723432809 1314.9090855653621,-9681.454505415988 1274.1818133503937,-9937.454505069198 1338.1818127435101,-10146.909048285366 1355.6363581271212,-10426.181774423143 1303.2727223230788,-11380.363589074 1355.6363581271212,-11636.363589074 1332.3636309489732,-11915.636314171405 1233.454540441844,-12194.909041696345 1064.727268400271,-12427.63631174387 936.7272692672477,-12660.36358352535 837.8181787601187,-12893.090856693992 773.818178673421,-13149.090855306831 727.272724317125,-13381.8181274351 715.6363610748417,-13637.818125007567 651.636360988144,-13847.272671344852 517.818179713793,-14079.999941045588 413.090907412127,-14289.454486342502 366.54545305583105,-14522.181759511144 308.3636354572517,-14754.90902955867 145.454544863425,-14847.999939311634 -17.454545383611002,-14917.818120499289 -122.18181768527701,-15173.818120152497 -191.99999921972102,-15406.545390893605 -378.18181664490504,-15639.272664062248 -622.5454520154591,-15802.181753962494 -779.6363597743767,-15965.090842822367 -1018.1818140439751,-15755.636299606198 -1157.8181771128632,-15662.545389506442 -1320.7272670131085,-15453.0908452499 -1512.7272662328294,-15220.363574508794 -1832.727265279155,-15127.272665796201 -1815.2727198955442,-15383.272663368667 -2001.4545373207282,-15429.818118765335 -2181.8181729513753,-15383.272663368667 -2484.3636259205086,-15266.90902886509 -2653.0908979620817,-15336.727209012372 -2699.6363523183777,-15546.181754309284 -2792.7272610309697,-15709.0908452499 -2664.7272618979464,-15918.545388466071 -2495.9999898563733,-15941.81811599101 -2321.4545360202633,-16151.27266024755 -2170.1818090155107,-16267.636297872245 -1966.5454465535063,-16267.636297872245 -1774.5454469869944,-16430.54538777249 -1861.8181742518402,-16663.272658860387 -2106.181809622394,-16802.90902296965 -2338.9090810570838,-16663.272658860387 -2542.5454442126693,-16500.363567919772 -2763.6363524050753,-16686.545386385325 -2751.9999884692106,-17151.999929254707 -2909.0908972685,-17384.72720242335 -3106.909077589177,-17407.999927867542 -3275.6363503243315,-17361.454473511247 -3595.6363486770756,-17245.09083831409 -3677.0908941473845,-17454.545383611003 -3566.5454400511812,-17687.27265435211 -3828.3636208053463,-17873.454472124085 -4113.4545287376595,-17826.90901776779 -4462.54543640988,-17919.999927520752 -4555.6363451224715,-18152.727197221488 -4922.181798178302,-18036.3635630647 -5172.363614996603,-17919.999927520752 -5375.999978152188,-17780.3635630647 -5684.3636129158585,-17687.27265435211 -5911.272703249592,-17826.90901776779 -6056.727248113018,-18036.3635630647 -5975.272702642709,-18292.363560637168 -5730.909067272155,-18478.54537806235 -5474.909068659317,-18664.727196874697 -5294.54543268188,-18711.272651230993 -5294.54543268188,-18990.54537667519 -5300.363614823207,-19223.27264845667 -5341.090887038175,-19502.545374941234 -5597.090886344595,-19595.63628365383 -5835.636339920611,-19618.909010485186 -5725.090885130827,-19805.090827910368 -5946.181793670024,-19967.999918850986 -6010.181793756721,-20154.181735582588 -6237.090883396874,-20014.54537216691 -6475.636337319682,-19851.636282266663 -6655.999972950329,-20037.81809899827 -6917.818153357703,-20200.727189938883 -7086.545425399276,-20177.454463107526 -7249.454515993103,-20130.90900875123 -7575.272696140384,-20130.90900875123 -7796.363604679581,-20293.81809969185 -7953.45451313208,-20386.90900736407 -8139.636330557264,-20410.181735235798 -8395.636329170102,-20596.36355162061 -8267.636330037078,-20852.363550233447 -8395.636329170102,-21108.363548846286 -8779.636327262753,-21271.2726397869 -8977.454508623801,-21457.454458599248 -8954.181781445654,-21666.90900285579 -8959.99996358698,-21899.636273943688 -9221.818143994355,-22085.818092409245 -9192.72723502167,-22341.81808998171 -9565.090870218828,-22411.636272209736 -9762.909051233088,-22574.54536315035 -9780.363596269906,-22853.818087207386 -9954.909050452809,-22923.63626943541 -9908.363596096511,-23202.90899696035 -9844.363596356605,-23435.636266661084 -9803.636323448056,-23668.363539829727 -9704.727232940926,-23924.363538442565 -9605.818142433796,-24180.363537055404 -9908.363596096511,-24133.818082699105 -10047.99995881861,-23877.81808408627 -10239.99995803833,-23645.09081230479 -10641.454502208175,-23482.18172136417 -10775.272683135734,-23365.818086860592 -11159.272681575176,-23319.272632504297 -11287.27268140178,-23575.272631117135 -11438.545408059743,-23482.18172136417 -11583.999952923168,-23668.363539829727 -11461.81813523789,-23924.363538442565 -11374.545407973046,-24180.363537055404 -11211.63631772601,-24366.545355867747 -10903.272682962339,-24366.545355867747 -10862.54541040058,-24529.454445767995 -10519.272684522897,-24622.545354480586 -10525.090865623853,-24831.99989873713 -10909.090864756876,-24831.99989873713 -11269.81813601817,-24855.272625568487 -11444.36358985428,-24878.54535205305 -11746.909043170204,-24925.09080640935 -12031.999950755726,-25018.1817165091 -12159.99995058233,-25204.363533934287 -11979.636314258103,-25460.36353150675 -11787.636315385173,-25693.090804675394 -11613.090861895853,-25623.27262244737 -11444.36358985428,-25576.727169131445 -11316.363590374465,-25762.908984475886 -11549.090861809156,-25972.36353011959 -11723.636315992057,-26205.090801901068 -11909.81813307045,-26437.81807298897 -11787.636315385173,-26647.272619326253 -11607.272680101316,-26693.81807368255 -11380.363589767583,-26903.272617939092 -11351.272680794897,-27229.090798779955 -11560.72722574502,-27461.81806848069 -11688.727224531252,-27694.545341649333 -11770.181770001562,-27973.8180681339 -11746.909043170204,-28229.818066746735 -11781.818133937426,-28462.545337487845 -11956.363587426746,-28648.727156300192 -12078.545405112023,-28881.45442738809 -12084.36358690656,-29137.4544270413 -12346.181767660724,-29323.63624342611 -12538.181766880445,-29393.454425654138 -12741.818130036032,-29416.7271521387 -13079.272673772386,-29486.54533436673 -13370.181763499237,-29649.454425307344 -13550.545399476674,-29695.999878623268 -13626.181762805656,-29951.999877236107 -13661.090853226087,-30231.272604761045 -13474.909036147694,-30301.090785948698 -13666.909035367415,-30510.545329164866 -13742.545398696395,-30766.54532985845 -13812.36358023084,-31022.545328471286 -14004.36357945056,-31162.1816904998 -14248.727214821114,-31371.636234756344 -14417.454486862687,-31371.636234756344 -14824.727212133486,-31115.636236143506 -15022.545393494534,-31208.72714520289 -15313.454483221385,-31371.636234756344 -15231.999937751078,-31627.636233715974 -15138.909029038485,-31906.908959853747 -14888.727211526602,-32093.090778666094 -14993.45448417506,-32232.72714069461 -15290.181756043237,-32162.908958466585 -15493.818118852032,-32302.545322922637 -15883.63629873922,-32255.999867525967 -15854.545390113326,-32511.99986821955 -15528.727209619254,-32674.908958119795 -15592.727209012372,-32954.18168356399 -15871.999935496937,-33023.999864404854 -16174.545388466071,-32861.090774504606 -16628.363568786746,-32767.999866832386 -16529.45447827962,-33047.27259331696 -16471.27265998746,-33303.27259192979 -16884.363567399585,-33396.36349960201 -17349.818111309334,-33210.1816832172 -17233.454475418595,-33466.181681830036 -16925.090839614553,-33582.54531737399 -16762.18174971431,-33768.72713479917 -16919.272658513597,-34047.99986128374 -17105.454475938783,-33954.90895153077 -17204.36356644591,-33815.272589155466 -17349.818111309334,-33722.18168148325 -17576.72720129628,-33722.18168148325 -17588.363564538562,-33908.36349682769 -17687.27265539248,-34047.99986128374 -17658.181746073005,-34234.18167766855 -17826.90901811458,-34280.72713202485 -18042.181744512447,-34443.63622192509 -18082.909017420996,-34606.54531286571 -17978.18174511933,-34839.27258603435 -17885.09083640674,-35071.999855735085 -18175.99992613359,-35165.09076479447 -18321.454470997014,-34955.6362215783 -18344.727198175162,-34699.63622192509 -18519.272652011274,-34513.454405193486 -18804.363559943587,-34397.09076860917 -19124.36355864312,-34350.54531425287 -19304.727193926978,-34327.272587768304 -19490.90901169895,-34303.99986093694 -19682.909010918673,-34327.272587768304 -19537.45446605525,-34559.999858509414 -19839.99991902438,-34536.72713098447 -20148.36355448163,-34559.999858509414 -20328.72719011228,-34559.999858509414 -20509.090825742926,-34513.454405193486 -20823.272642647924,-34466.90895083719 -21259.636277238198,-34676.363495093734 -21096.727186644373,-34885.818040390644 -20945.454460333203,-35048.72713029089 -20741.818097524407,-35165.09076479447 -20602.18173445552,-35374.545311131755 -20765.090824702555,-35607.27258083249 -20735.99991538308,-35863.27258083249 -20543.999916163357,-36026.181670385944 -20346.1817351491,-35839.99985400113 -20043.636282179967,-35863.27258083249 -19863.272646202528,-36026.181670385944 -19851.636282960244,-36305.45439687051 -19892.363555522006,-36584.72712439545 -20066.909009358114,-36794.18166865199 -20229.81809925836,-36887.27257632421 -20497.45446180706,-36794.18166865199 -20805.818096917523,-36724.363486423965 -20974.545368959098,-36701.0907599394 -21271.27264048048,-36584.72712439545 -21428.363549279773,-36514.908941127054 -21725.09082010758,-36398.5453055831 -22143.999909661034,-36235.63621464249 -22149.81809180236,-36538.18167003916 -22289.454454524457,-36747.63621429569 -22458.181726566032,-36701.0907599394 -22853.818088941338,-36863.99984879927 -22801.454452790505,-37073.45439409619 -22621.090817159857,-37306.181665877666 -22405.8180904152,-37492.36348260927 -22149.81809180236,-37655.27257354988 -21887.999911048195,-37794.908937659144 -21730.909002248907,-37887.99984533137 -21847.272638139646,-38050.908935231615 -22254.545364104026,-37818.181664490505 -22603.636271429456,-37771.63620874705 -22772.36354347103,-37841.45439097507 -22935.272634064855,-37887.99984533137 -23144.72717866819,-37887.99984533137 -23313.45445070976,-37678.54530003445 -23482.181722751335,-37469.090755777914 -23656.727176587443,-37515.63621013421 -23941.818084519757,-37585.45439236223 -24110.54535656133,-37608.72711919359 -24221.090810657533,-37469.090755777914 -24349.090809790556,-37352.72711919359 -24523.636263973458,-37329.454393749395 -24773.818081138546,-37469.090755777914 -24866.90898985114,-37701.81802894655 -24820.363535494846,-37911.272573203096 -25093.81807983808,-38074.18166206297 -25309.090806235952,-38237.090753003584 -25198.54535179296,-38493.0907526568 -25611.636259205086,-38562.908932457285 -25448.72716930484,-38749.090751269636 -25384.727169564932,-38911.99984221025 -25349.81807879771,-39191.272566614076 -25192.727169998423,-39400.72711191099 -25006.545352573237,-39377.454385079625 -24529.454445767995,-39377.454385079625 -24273.454446461576,-39517.090747108145 -24069.81808399957,-39726.54529136469 -23935.99990237843,-39982.54529136469 -24063.999902205032,-40191.9998366616 -24110.54535656133,-40424.72710740271 -24279.272628256113,-40424.72710740271 -24517.81808183213,-40261.81801646209 -24837.818080878456,-40308.36347081839 -25099.63626128583,-40494.54528963073 -24959.999898563732,-40727.272561759004 -24762.181717202682,-40936.72710497517 -24663.272626695554,-41192.72710566875 -24587.636263366574,-41425.45437536949 -24529.454445767995,-41681.45437536949 -24302.54535543426,-41914.181647150974 -24168.7271745067,-42146.90891823887 -24029.09081109102,-42356.363464576156 -23784.72717606726,-42705.45437086121 -23703.27263094374,-42984.72709838615 -23610.181722231147,-43380.3634590275 -23534.545358902167,-43636.3634590275 -23528.72717710763,-43892.36345659997 -23633.454449409295,-44264.7270928375 -23714.908994186022,-44497.45436357861 -23918.54535734161,-44683.636182390954 -24319.99990081787,-44683.636182390954 -24564.363536188426,-44730.18163674725 -24634.18171737608,-44567.272545806634 -24831.99989873713,-44543.999817934906 -24965.81808035827,-44660.36345347885 -25140.36353419438,-44683.636182390954 -25384.727169564932,-44683.636182390954 -25588.36353202694,-44637.09072699428 -25780.363531246658,-44753.45436219144 -25943.272621146905,-44846.5452722912 -26135.272621060205,-44799.999817934906 -26315.636256344063,-44916.36345209169 -26175.999893621964,-45288.72708728885 -25931.636258251412,-45474.9089061012 -26263.27262019323,-45498.18163154539 -26327.272620279928,-45661.090722486006 -26565.818073855946,-45730.90890471404 -26513.45443770511,-45893.81799565465 -26437.81807437613,-46103.272539911195 -26740.363527692054,-46103.272539911195 -26559.99989206141,-46289.454356296 -26251.636256950947,-46382.54526535539 -26088.72716601033,-46452.36344619625 -25931.636258251412,-46522.18162946465 -25605.81807741055,-46615.272537136865 -25413.818078190827,-46638.54526500859 -25256.72717008512,-46568.72708278057 -24930.908989244257,-46591.9998106523 -24773.818081138546,-46661.81799045279 -24471.272627475835,-46661.81799045279 -24133.81808339269,-46685.09071936489 -24087.272629383184,-46987.636171293656 -24063.999902205032,-47243.63616990649 -24087.272629383184,-47476.36344307513 -24279.272628256113,-47709.090715203405 -24459.63626423355,-47778.90889604427 -25157.81807957799,-47755.6361695597 -25448.72716930484,-47662.54525945995 -25879.27262175379,-47709.090715203405 -26053.818075936688,-47662.54525945995 -26239.999893015083,-47662.54525945995 -26367.999892841686,-47778.90889604427 -26536.72716488326,-47848.72707827229 -26728.72716410298,-47848.72707827229 -26763.6362548702,-47592.72707965945 -26943.99989015406,-47546.18162426279 -27101.090798953348,-47615.99980510365 -27240.72716202224,-47709.090715203405 -27438.545343036494,-47802.181623915996 -27735.27261455788,-47685.817988372044 -28020.363522490195,-47988.36344030081 -28177.454430595903,-48221.09071346945 -28328.727157600657,-48570.181619754505 -28555.636247587598,-48639.999801982536 -28293.818066833435,-48779.63616401105 -28194.908976326304,-48919.2725284671 -28282.181703244358,-49151.999799208206 -28270.545338961703,-49407.999797821045 -28276.36352110303,-49663.99979678067 -28334.545339395194,-49896.727068562155 -28561.454428688554,-50013.09070618685 -28770.908973985468,-49850.18161524623 -29015.272609356023,-49710.54525113697 -29195.636244639878,-49663.99979678067 -29381.818062411854,-49826.90888772129 -29253.818062932038,-50036.3634330182 -29207.272608575742,-50385.45434034363 -29143.272608142255,-50618.181612471904 -29597.09078880972,-50641.45433895647 -29783.272606234907,-50618.181612471904 -30074.181695961757,-50571.63615672845 -30347.636240304993,-50664.7270668282 -30289.454422012834,-50920.72706544104 -30027.636241605458,-51060.36342746955 -29713.454424700463,-51199.999791925606 -29544.72715265889,-51246.5452462819 -29183.999881397594,-51060.36342746955 -28980.363518242008,-51060.36342746955 -28776.727155780005,-51153.45433618215 -28619.636247327504,-51269.81797276647 -28794.181701163616,-51386.18160935079 -29079.27260874914,-51386.18160935079 -29317.818062325154,-51432.727062666716 -29591.272607015184,-51665.454335835355 -29480.727152918982,-51874.9088800919 -29329.454426261018,-52014.54524212041 -29154.90897242491,-52130.90887870474 -28945.454427821576,-52503.272513901895 -28770.908973985468,-52619.63614840547 -28567.27261082988,-52735.99978498979 -28200.72715777405,-52875.63614909905 -28264.727157860747,-53038.54523899929 -28119.272612997323,-53224.72705538411 -27909.8180680472,-53364.36341879979 -27700.36352379066,-53434.18159964065 -27432.727161241957,-53480.72705399695 -27217.454434844087,-53527.2725097404 -27019.63625382983,-53643.636143897194 -26856.727163582793,-53713.454327165586 -26420.36352899252,-53922.90887142213 -26205.090802594652,-53969.45432473806 -25995.636257644528,-53969.45432473806 -25576.727168784655,-53876.36341706583 -25431.272623921228,-53690.18159825349 -25396.363533154006,-53457.454328552754 -25274.18171546873,-53201.454327859174 -25250.908988290583,-52689.4543302867 -25245.090806149256,-52479.99978498979 -25035.636261892712,-52363.636150833 -24779.636262239503,-52410.181605189304 -24820.363535494846,-52596.36342157411 -24564.363536188426,-52898.908874543245Z"/></svg>