<svg xmlns="http://www.w3.org/2000/svg" width="256" height="256"><path d="M173.93837619609377,9.225834449287706 175.49855657685788,9.617087114648813 176.97903734057599,10.100115096309523 178.2977037305097,10.587973357714864 179.63086095989328,11.013037981504313 181.01594369730535,11.457423724848097 182.13415347492187,11.887318628598106 183.21975886363236,12.399328288942527 183.79335459185444,12.80990207364204 184.70748504714734,13.660031321005006 185.33783656321455,14.181701541486479 185.08183173293438,14.32660993584074 184.64710654943974,14.597105605642714 184.8777524107547,14.89175267416784 185.17481461947605,15.181569463452172 184.67729579829356,15.510028491053433 184.3995547089106,15.741881922250574 184.465971056317,15.886790316604833 184.34400649101963,16.00271703234736 183.6617294668519,16.63548368810696 183.32481744964355,16.930130756848015 183.3260250195977,17.04122719262998 183.583237419904,17.210286986499135 183.63516292793253,17.331043981914313 183.43953659528796,17.495273495606977 183.1002094382433,17.73678748643733 182.6691069646111,18.11354931227664 182.02547217897623,18.669031490898547 181.6873525918857,19.007151077917094 181.24175927873173,19.470857940527303 180.90363969156925,19.900752844277314 180.6210683223697,20.38861110582661 180.14649333031608,21.166286156012443 179.8627143910904,21.663804977050997 179.46783901615476,22.43181946803548 180.22015509751935,22.919677729656755 180.04022717435072,23.175682560008905 179.92067774896168,23.475159908278663 179.65138964911387,23.3640634724967 179.29757165261935,23.267457876308512 178.87733730850258,23.214324798397808 178.61167191858917,23.228815637991584 178.26751448165592,23.306100115129276 177.84244985786646,23.47032962882194 177.5816147477697,23.663540821198318 177.31353421787603,23.866412573639767 177.15775769379044,24.088605444987763 177.12998358484495,24.30113775713441 177.16500311351535,24.571633426648475 177.18673937269008,24.755184060111407 177.17949395303714,25.030510009298126 177.13360629477938,25.214060642545128 177.0683975172552,25.37345987627723 176.9778297706938,25.561840789196886 176.86552576488572,25.72607030288955 176.7701277385077,25.861318137898504 176.67714485203803,25.909620936064574 176.51895318811611,26.218758844183476 176.46098983024487,26.28638276168795 176.3474782545546,26.32985527996544 175.8185626146361,26.41197003706369 174.85854450115744,26.624502348706493 173.82486462033154,26.875676899385994 172.4506500125068,27.353874601374052 171.28534500675036,27.537425234117215 170.78903375566594,27.812751183591843 170.51974565581813,28.020453215777923 170.02826468455032,28.13637993173638 169.2807788828584,28.464838959121707 168.67337119592005,28.571105114943112 168.05509537939434,28.783637427089754 167.988679031916,28.7015226699915 167.7411271913149,28.44068756011065 167.01417007891553,28.604917073803314 166.4224608015251,28.72084378947386 165.81263797460647,29.058963376492404 165.55301043439187,29.203871771134573 165.1665880490633,29.339119605711662 164.70650389660346,29.48402800035383 164.32128908115706,29.551651917858305 164.18604124629206,29.575803317013317 164.05200098145318,29.61444555540222 163.72716466371438,29.773844789350257 161.0185852566959,31.015226702362234 159.41734749741866,32.08271854161647 159.11666257890687,32.27592973420878 158.18924885404633,32.725145757513125 157.215947470928,33.19368289958006 156.57110511541097,33.4448574498277 155.89124323129548,33.61874752315358 153.45919734356184,34.1887205415852 153.13798373582944,34.28532613820524 153.01601917038812,34.47853733086953 152.84212909706224,34.60412460595736 152.6211437953805,34.66691824378918 152.35789354544738,34.66691824378918 152.11517198459092,34.62827600496842 151.8712428539962,34.541330968197514 150.95469725872303,34.69106964251233 150.0369440934957,34.69589992225696 148.2714768205258,34.637936564817565 147.54814241806088,34.5316704085643 146.0893979134455,34.20804166085163 145.6776165590078,34.314307816960934 145.26583520464203,34.33845921618792 144.89269608880915,34.20804166085163 144.605294439793,34.42540425295883 144.0546425406278,34.642766844562196 143.56316156936,34.7490330003836 143.1199833961863,34.77801467957114 142.07785052568136,34.768354119865954 141.94501783072465,34.81665691767214 141.84841223453645,34.88911111528113 142.32660993623662,35.6184833673009 142.98594313120347,36.570048491460405 143.69720183419886,37.44432913833827 144.56906734116845,38.62774769326305 145.6365591806386,40.06717107861197 146.10751146268584,40.85450668843102 146.83205343517687,42.10071888133159 148.11570029644022,44.48204683106284 148.67842789507495,45.496405592334405 149.1542104571547,46.44797071627798 149.5635766714682,47.206324647629245 149.84856318079198,47.80044906507192 150.16615407858993,48.413894601781024 150.51272665557545,49.104624615411886 150.83031755337342,49.727730711826176 151.02232117608355,50.16245589503291 151.5790109250195,51.53425536309328 152.0729070361956,52.587256362969676 153.37345987681707,55.35017641842882 154.1837393160529,57.15670106947999 154.6993716864757,58.57197305581786 154.8792996097163,59.35930866606876 155.0193777243979,59.9051302855613 155.1727391085032,60.35917658825039 155.27900526446857,60.61035113871396 155.45531047777473,60.83737429002252 155.8308647335879,61.0450763222086 157.7895431991501,62.098077322085 159.33523274046436,62.96752768921822 160.7541274365927,63.71139078075979 161.93513085175314,64.50838695042799 162.58601105704096,64.91413045516694 163.47719768327696,65.4744429137494 165.04703862367424,66.45498971644867 166.41159267186575,67.3051189645314 168.4221966454565,68.56099171663332 169.3580633599241,69.15028585433136 170.72503254802393,69.9859242626044 171.50753787838624,70.53174588209693 172.27192965929234,71.01477386375764 173.48070718347026,71.68135247816151 174.16056906765772,72.09192626286102 174.47695239564547,72.29479801487061 175.2171927775405,72.78748655616454 175.531160965548,72.83578935440258 175.8789411123437,73.10145474445993 176.25449536808492,73.37678069386259 176.51895318811611,73.53617992766667 176.74839147933298,73.68591860198148 176.923489122685,73.88396007475028 177.19760750227744,74.27038245979094 177.4354987833173,74.61816260687456 177.6697673543508,75.27025038175664 178.1298515069546,76.74831600585433 178.35445951835484,77.6998811298699 179.25530670415208,81.68486197857075 179.62120040026005,83.34164795552303 180.04505745416733,85.21096624454998 180.38438461135596,86.70352270809751 180.65729542092228,87.90143210254409 181.75980678906285,90.42766844662961 182.65582369504347,92.2100416987417 182.98186758266445,92.23419309796869 182.94926319397433,92.57714296487582 182.84661974779945,92.7172210796294 179.4750844358077,95.40768693762351 179.23357044497735,95.67335232717701 179.11885129933293,95.9535085566122 178.90390384756589,97.72139096956238 178.77710900230798,98.6681258138333 178.23732523280214,98.91447008412038 177.9825279724761,99.02556651990234 177.51761354012766,99.21877771271059 176.85465763529834,99.49893394192985 175.90550765140702,99.90467744645287 175.40436612036206,100.11237947863894 174.95515009748956,100.3007603915586 174.5614822923641,100.45532934583397 173.0496047097661,103.25206135943357 172.96628238292962,103.42112115330272 172.55329345860972,104.13117228598408 172.36370497587987,104.48861299248499 172.1608332235104,104.86054453865164 172.08596388635297,104.98130153406682 171.32157210544688,106.42072491912782 170.8482046833474,107.2080605294507 170.7226174081876,107.4447442403205 170.58616200329647,107.72007018979514 170.5257835055889,107.87946942403107 170.42917790925674,108.07751089658395 170.29030736460126,108.31419460723781 170.15264438975598,108.58952055692836 170.08019019257884,108.75375007062102 169.7964112532812,109.17398441495375 169.63218173958853,109.48795260274531 169.51746259387215,109.73912715320888 169.37134662941978,110.03377422194994 169.19866412604804,110.20283401560316 168.90160191732673,110.36223324976713 168.48861299300683,110.55061416225492 168.1335874264142,110.70035283685765 167.74233476126903,110.87424291018353 167.40904545392314,111.0191513048257 167.02020792875825,111.12058718068653 166.6736353519167,111.31379837356675 166.310156795717,111.49251872656528 165.9853204779782,111.65674824047387 165.6399554710908,111.84995943313817 165.36100681168173,111.98037698797062 164.96613143667412,112.14460650187922 164.33940263061328,112.35230853384937 162.54374610864565,113.26040113973139 164.1546444274841,115.17319194689188 165.02288722459122,116.38076190104364 167.82927979796796,120.28362799315009 169.0320194723751,121.95490480962418 169.49814147460572,122.70842846087093 169.7142964963989,123.4136493143115 169.5355761432564,124.24928772251255 169.33632710074937,125.08975641053021 169.4908960549528,125.82878922261504 169.60440763057107,126.64510651133374 169.5090096041931,127.44693296074657 169.22523066496743,128.4226494837012 169.73241004578315,128.9588105437045 169.62735145977194,129.2776090114566 169.52229287368877,129.68335251619555 169.5790486615339,129.89588482791032 169.68772995747952,130.08909602050264 169.83263835197775,130.31128889206656 170.13573841054182,130.73152323618336 170.4823109873114,131.21455121784408 170.81680786453947,131.6879186400875 171.04986886576273,132.0405290666998 171.47734862953246,132.39313949331213 171.78044868802456,133.49927357131514 172.01954753887463,133.784260080423 172.7102775527214,134.61506820873547 173.1667389953188,135.16088982794008 173.5918036192522,135.34927074107569 174.00841525343458,135.54731221319668 174.2487216742388,135.66323892915514 174.544576313006,135.8467895618983 174.73657993571612,135.95305571815157 174.96722579695913,136.00618879584633 175.31138323396434,136.07381271356675 175.65312553091732,136.17041830975492 176.16392762152353,136.3877809016462 176.48031094958327,136.49887733742815 176.67593728215584,136.53751957574508 177.31715692773847,136.73556104808202 177.62750240602745,136.84182720411937 177.84244985786646,136.9674144794951 178.15521047599177,137.22341930991922 178.3327232591801,137.38281854365133 178.69257910558932,137.5422177778873 179.12247400919537,137.5905205756215 179.7999207535465,137.78373176871764 180.30830770424438,137.96245212150023 183.15575765613428,134.75031604374442 184.26189173406533,135.00632087416855 184.86326157123293,135.38791297946457 185.42357402995935,136.02067963522418 185.55036887514527,136.21389082832033 185.80637370542544,136.65827657116026 186.2700805678917,137.08334119494972 186.88111096462055,137.19926791069224 187.42572501394298,137.20892847032545 187.72399479261847,137.25723126849152 187.9691314933113,137.22341930991922 188.2239287537093,137.14130455282097 188.50287741304638,137.14613483278154 189.06318987184477,137.24274042918566 189.37715805985226,137.23307986955245 189.84207249220069,137.117153153594 190.2526462766123,137.0736806353165 190.61974754267445,137.12681371344314 191.125719353536,137.3683277042735 191.67757882251138,137.32485518578008 191.91063982373467,137.3683277042735 192.1328326952986,137.29587350688044 192.46974471250692,137.0205475574058 193.09888865862,136.67276741075403 193.520330572547,136.43608369981226 194.45378214710632,136.04483103445116 195.40413970116774,135.96271627778478 196.54046302795257,135.7695050847606 197.3265910680334,135.41206437869155 202.05060472874712,140.8944319703247 206.72752316110498,142.42563067240508 209.92999867958747,143.36753523649952 214.38593181033553,144.86975225939236 216.89405460510878,145.74403290641416 217.3408554882169,148.07705805769143 217.5316515409729,148.2992509294713 217.93981018547618,148.46831072262069 217.9072057966421,149.01896262178587 217.79369422102383,149.3812336080314 217.57753919923064,150.02849110338477 217.4108945455577,150.83514783319004 217.3118738092453,151.5790109247316 217.19956980358114,152.0089058284816 217.1959470936467,152.28906205762888 217.19473952376455,152.5740485667367 217.17300326451783,153.1150399062687 217.19353195373841,153.42417781481944 217.13919130587357,153.77678824143177 217.08968093775334,154.61242664970482 217.15005943546092,154.83461952098082 217.17300326451783,155.10511519099873 217.17541840449812,155.1727391085032 217.07881280816596,155.41908337879028 216.94235740334682,155.64610653045872 216.72499481152752,155.74271212671889 216.66582388384606,155.91177192008422 216.70929640212356,156.09532255325922 216.7406932209315,156.2257401083796 216.75276892054498,156.4286118603892 216.68635257306664,156.53487801642652 216.59578482650525,156.58318081466456 216.386875224365,156.60733221389157 216.24679710968343,156.67012585121955 216.11154927481843,156.80537368644443 216.03788750768715,156.8585067641392 215.95818789064114,156.87782788340562 215.90867752252092,156.94062152116547 215.86037472435484,157.05654823669207 215.75773127825195,157.15315383288026 215.63214400302016,157.24492914961172 215.3374969342791,157.4816128604815 215.1406630316804,157.64584237417418 214.94382912915364,157.81490216804335 214.84360082295905,157.92116832386475 214.79288288488468,158.003283080963 214.76390120605703,158.09988867715117 214.76027849619456,158.67952225500008 214.7590709262404,158.83892148923601 214.6793713092664,158.9693390442844 214.59484141240378,159.0466235214221 214.44872544795143,159.17704107625457 214.2591369651496,159.25432555339225 214.07196362225608,159.38474310844063 214.0067548447319,159.44753674576862 213.9608671864741,159.51999094344959 213.88962055925114,159.6648993375879 213.73867431498215,159.77599577336989 213.56840695137478,159.94505556723905 213.49836789403398,160.01267948474353 213.25564633332144,160.2155512367531 213.037076171548,160.40876242963333 212.7931470409533,160.50053774586095 212.69171116473257,160.5826525029592 212.7194852736061,160.8096756541958 212.71344742383533,160.88696013111755 212.68929602475228,161.03186852597565 212.6663521956954,161.20092831955688 212.66755976557755,161.30719447545027 212.65669163606216,161.37964867241146 212.5854450087672,161.78056189747778 212.5504254800968,162.02690616798077 212.55163305012294,162.13800260376274 212.60476612796165,162.31672295704917 212.64220079668434,162.40849827370866 212.65186135624555,162.45197079177024 212.59993584814507,162.51959470949063 212.49608483216,162.58238834710653 212.4586501635093,162.61137002579022 212.49970754202243,162.7128059021549 212.49487726220582,162.81424177801577 212.47193343300498,162.89152625536937 212.44174418415116,162.9929621313022 212.47434857298526,163.08473744803365 212.41880035502228,163.1620219249554 212.3560067174064,163.16685220462807 212.2956282196988,163.15236136553813 212.31857204889968,163.3214211586875 212.35479914752423,163.44700843427918 212.37049755700016,163.58225626900025 212.41034736541522,163.67403158529984 212.39706409584755,163.7271646636424 212.33427045830365,163.81410970019738 212.30891148926645,163.8624124982195 212.30287363942372,163.9300364159399 212.3149493390372,164.04113285172187 212.32944017848703,164.07494481036613 212.31132662910278,164.248834883692 210.34661031376982,166.7895620670834 210.76442951790634,166.90548878282593 211.11945508435497,167.0359063378743 210.95401800063618,167.2339478104272 210.81997773579732,167.43681956265272 210.7451083986399,167.7411271913149 210.7885809169174,168.09856789738393 210.85258212448744,168.7265042736868 210.85499726446773,168.9245457462397 210.64850280230777,168.99216966374414 210.53136851668307,169.50417932408857 210.30072265551206,169.56214268195984 210.00849072653534,169.56214268195984 209.7718070155216,169.59595464082003 209.6087850717111,169.7939961133729 209.0895299914978,170.44125360872627 208.68620162681114,170.89529991119943 208.4157059571531,171.12715334239658 207.80709070011665,171.4507820903252 207.58369025867057,171.57153908574037 207.45810298343878,171.66814468192857 207.4194607449779,171.8323741956212 207.45206513359605,172.03524594806268 207.63440819674494,172.53276476910122 207.72135323351583,173.11722862691067 207.53780260034083,173.63889884732018 207.06443517831332,174.33445914069569 206.75771240995877,174.7208815261682 207.1199833962043,175.37779958093887 207.12360610606675,175.7642219666273 206.93884790308152,176.3003830259828 206.99198098106422,176.83171380609747 206.99681126102476,177.2905903885312 207.0753033079007,178.0103020810617 207.4206683147881,179.09228476034158 207.6935791244264,180.06317100311972 208.1089831886546,181.01956640680794 208.40846053728424,181.927659012474 208.4591784754306,182.29959055835278 208.55336893178244,182.50246231043434 208.80333591229189,182.99998113190475 209.0545104628274,183.49749995287132 209.23443838599604,184.06264269141437 210.02660427584763,186.56955791644938 210.26570312684166,187.24096681074184 210.4552916095715,187.83992150814507 210.70525859008092,188.59344515931986 210.83929885506376,188.99918866384286 211.03613275759048,189.67059755842322 211.12670050415187,189.8879601500266 211.11462480453838,189.99905658580855 211.13515349375896,190.1391347007061 211.19673956149268,190.36132757205408 211.35251608557826,190.62699296211144 208.96635785610238,190.39996981087486 207.74912734231737,190.2792128154597 205.66365403149726,190.01837770529093 204.85458216221556,190.46276344841877 203.24972169314785,191.2017962605036 202.10011509686734,191.74761787970823 201.46131059112105,191.88286571471718 200.5918602240598,192.08573746672678 200.23683465753916,192.17751278345824 199.4676125967445,192.3465725770395 198.9109228479525,192.63638936589197 198.22743825383063,192.9600181137486 197.50772656115618,193.3657616180557 196.89428102444705,193.78116568249982 196.34845940524244,194.18207890706228 195.77003339720375,194.72307024681018 195.21092850835947,195.43795165966804 194.43687616782017,196.30740202651336 193.894677258478,196.90152644395604 193.4176871264441,197.47632974191635 193.1037189384366,197.8192796091114 193.00107549226175,197.93037604510928 192.883941206709,198.08977527862547 192.37193154614866,198.58729410009587 192.0301892491237,198.97854676502513 191.58701107595002,199.37945999009142 191.14624804275658,199.95426328819568 190.8359025644676,200.504915186929 190.51831166659767,200.96862204953922 187.0924357065971,204.75073114594258 186.9922074004025,204.8569973020519 185.651804751366,206.25777844858004 184.70144719744854,207.41221532482112 183.62791750813565,209.29119417355327 182.9130360952778,210.66299364161364 182.4046491445799,211.7304854810838 178.30494915023462,210.85620483399 174.17989018692413,210.01573614604433 174.27649578325628,209.24772165527577 174.16419177752016,208.5473310820117 173.89490367767235,207.86143134762162 173.39376214669934,207.20451329285098 172.7887695996693,206.64420083405258 172.0799260365822,206.18532425161885 170.92790430032142,205.73127794864186 169.80365667315007,205.3351950035361 167.29432630827873,204.52370799449008 166.72073058005662,204.44642351735237 166.41159267186575,204.91496065985118 166.3536293139945,205.02122681574457 166.29808109610352,205.16613521038673 166.22441932897223,205.4366308799008 166.17249382087172,205.51391535703848 166.09883205374044,205.71195682959134 166.039661125987,205.77958074709582 165.88871488171804,205.9486405402452 165.75346704678105,206.07422781583688 165.39964905028657,206.39785656326166 165.3223645731489,206.46548048076613 165.148474499823,206.62487971500207 164.78741108345963,206.79393950815145 164.74997641488093,206.8132606276338 164.55435008238032,206.9291873431604 164.201739655768,207.35425196694985 163.9396969756451,207.586105398147 163.7766750318346,207.83727994861056 163.56052001004144,208.0546425406458 163.31176059955814,208.23336289350038 163.15598407547256,208.5231796827847 163.1233796866385,208.60529443937912 163.1100964172148,208.63910639823933 162.9700183025332,208.99171682485164 162.5171795697263,209.72108907730328 162.3372516464857,209.94328194879523 162.2418536201077,210.19928677900342 162.1766448425835,210.5035944073777 162.17785241253765,210.5953697238932 162.23340063042863,210.76442951776238 162.32396837699002,211.03492518727646 162.51597199970016,211.41168701311577 162.48699032087248,211.54693484805273 162.3444970662106,211.6338798846077 162.27083529907932,211.64837072398555 162.09573765565534,211.6870129628063 161.90011132308274,211.7642974396561 161.8711296441831,211.7932791186277 161.75037264876792,211.92369667346017 161.66946546183976,212.15555010487324 161.5728598655076,213.16507858647216 161.50885865793757,213.3776108986188 161.13692711205883,213.71090020567678 160.81329836434614,214.39679993985092 159.77358063382147,216.7539764900673 156.94665937122414,222.5358214308339 153.7828260913465,223.66127662795938 152.14898394330714,224.2360799262796 150.25913696505964,222.96088605469532 149.25806147313978,222.0817751281448 147.05303873678668,222.71937206386497 146.7439008285958,222.80631710063588 146.94798015077546,223.87863921956276 147.03734032738268,224.20709824716403 147.08322798564046,224.3809883204899 147.32836468633326,225.2842506462674 147.38391290422425,225.57406743555174 147.41893243289465,225.74795750887762 147.52157587899754,226.08607709589617 147.59403007631863,226.33242136639916 148.06015207854924,227.96022566466775 148.12294571616513,228.10030377956528 148.29200550981835,228.6461253988419 148.48763184231896,229.28372233456204 148.60597369782585,229.6749749994913 148.8148832998941,230.35604445370487 148.89941319668472,230.6313704033954 148.9199418859053,230.69899432089989 148.9718673940058,230.86805411448114 149.33776109004182,232.06113322911114 149.41263042719922,232.30747749961412 150.2772505143719,235.13319119240126 150.38110153050093,235.4761410595963 150.3967999399049,235.5244438573305 150.44389516804486,235.751467008783 150.45234815786787,235.85773316489232 149.2157965246725,237.75120285314628 148.78952433085692,238.39363006861106 148.69533387450505,238.54336874270996 148.4514047436944,238.91047000913198 148.40310194560033,238.98292420609317 148.33910073810225,239.08436008245786 147.3223268366345,240.63004962362817 146.80910960612,241.40772467402994 145.75248589623718,243.03552897229852 145.50251891565577,243.42195135777104 145.416781448911,243.55236891281942 144.34204418971592,245.20432461002707 144.18747523565648,245.44100832118477 143.72739108305268,246.15105945386614 143.59214324818768,246.29113756876367 143.46897111286418,246.3442706469623 143.38202607623725,246.3829128850633 142.9605841621663,246.49400932106118 142.5850299064251,246.57612407808745 142.23483461979305,246.6534085550092 141.99694333875317,246.70171135303133 140.81835506350103,246.96254646312812 140.229060925875,247.0929640181765 138.75703315176395,247.4165927661051 137.87309194539685,247.61463423865797 137.6665974832369,247.65810675693547 137.44078190188247,247.71123983463022 137.28500537765294,247.749882073379 136.68605068053762,247.88512990817205 136.4397064097467,247.9430932660433 135.86731825147876,248.05901998149793 135.81177003358778,248.07351082087575 135.20919262646603,248.23774033478435 134.97854676529502,248.30053397232828 134.86865789946722,248.32468537133934 134.8553746298996,248.44061208729778 134.91213041774472,248.53721768348598 135.05341610238045,248.79805279336682 135.1802109476384,249.01541538518612 135.22609860589614,249.11202098180618 135.26353327440287,249.20862657806634 133.80599633974168,249.9331685505574 133.27104285005245,250.1940036606542 132.83994037642026,250.55627464689974 132.42212117228374,250.91371535340062 131.99826411837648,251.27115605975757 132.10936055415843,251.43055529348968 132.2228721299207,251.60927564677613 132.30377931677688,251.72037208277402 132.41608332251297,251.8604501972397 132.57185984659856,252.04400083019877 132.80854355761232,252.2806845413565 132.89307345440295,252.3531387385336 133.05247268842294,252.51736825222628 133.31089265853944,252.7250702846283 133.42681937413803,252.81201532118325 133.63089869646166,252.97141455520327 133.777014660914,253.09217155061845 134.15860676642598,253.3964791787768 134.56797298081145,253.65248400941687 134.7189192250804,253.73942904597183 134.82156267118333,253.8118832433649 134.87711088907432,253.85535576142644 134.9640559258452,253.9374705185247 135.01598143380176,253.99060359621947 135.15847468839166,254.10170003221737 135.2478348649989,254.1596633900886 135.33961018151444,254.22245702763254 135.41689465865213,254.27075982579862 135.4724428765431,254.3045717846588 135.5581803432879,254.3577048626415 135.66203135927296,254.4301590596027 135.77916564489766,254.50261325699574 135.90475292012945,254.5702371742843 136.02671748549878,254.62820053215555 136.20181512885077,254.70065472933268 136.28272231577895,254.73929696815344 136.39864903137752,254.79243004584822 136.54114228589546,254.85522368339213 136.82492122512113,254.9711503993506 136.98190531923282,255.0242834772613 136.84424234438754,255.20300383054774 136.7500518880357,255.27062774798023 136.27547689598205,255.4638389406445 135.81418517356806,255.64738957338767 135.74414611622726,255.6763712522873 135.63667239023576,255.71501349089215 135.5581803432879,255.74882544975236 135.4651974567462,255.77780712843608 135.35772373097066,255.80195852744714 135.28647710360374,255.82127964671355 134.87348817928384,255.89856412385126 134.6947678259974,255.93720636267201 134.18758844525365,255.9951697204713 134.06200117002186,256 133.89897922621137,255.9806788809495 133.72508915281352,255.96618804135574 133.5475763695532,255.96135776161108 133.39179984546763,255.94686692230522 132.9836412009643,255.8840732847613 132.69261684201373,255.82610992689004 132.58031283642157,255.79229796802986 132.41487575255883,255.73916489011916 132.2071737205167,255.66188041298145 131.94150833053135,255.56044453661679 131.564746504836,255.3672333442404 131.1457197308173,255.14504047267647 130.33785543141778,254.70548500929326 129.96833902551933,254.53159493596738 129.43942338560083,254.2949112250256 129.30900583055245,254.24177814668303 128.8163172892585,254.02924583496826 128.74748580179988,253.99543387639596 128.30793033856062,253.77324100483204 128.07969961715395,253.6573142890895 127.79229796806584,253.51240589473525 127.67274854267679,253.4737636559145 127.14624804273859,253.29987358258862 126.72359855878547,253.23707994526063 125.94833864814805,253.18394686706202 125.86501632123961,253.12115322930217 125.82033623293599,253.08734127087382 125.77565614463236,253.03903847270774 125.72252306664969,252.97624483509185 125.60538878116894,252.80235476133413 125.56795411251827,252.7395611237902 125.4991226252036,252.60914356895773 125.45323496687385,252.50770769259307 125.3735353499718,252.51253797276956 125.2467405047139,252.54634993141383 125.02696277313025,252.59465272936396 124.90862091755139,252.61880412837502 124.76733523291564,252.64295552760203 124.64416309766413,252.66227664665251 124.55842563091936,252.67193720628572 124.45698975469863,252.68159776591895 124.35434630859574,252.7250702846283 124.11887016753613,252.81201532118325 123.88097888656823,252.93277231659843 123.70950395315066,253.02454763289805 123.20715485215155,253.2757221833616 122.91492292324682,252.95209343593686 122.94994245206117,252.7733730826504 122.80141134755655,252.6574463669079 122.62993641406699,252.6043132892131 122.55506707690958,252.38212041772115 122.2555897284239,252.43525349563186 121.40063020074048,252.58982244969133 120.98884884637474,252.66227664665251 120.37178059980317,252.75888224305663 120.27155229368056,252.7830336420677 120.2232494954425,252.7975244818774 119.69071114566157,252.88446951843238 119.0011887018409,252.7926942017009 118.92269665482104,252.8941300780656 118.8611105871593,253.01488707348076 118.80676993922248,253.08734127087382 118.76450499082716,253.15496518794643 118.71982490252354,253.24191022471734 118.60510575687913,252.90379063748287 118.56767108830041,252.7637125230172 118.54231211940719,252.65261608723523 118.52057586016048,252.55118021087054 118.46502764226949,252.3869506971779 118.33219494724082,252.04883111015934 118.20781524196319,251.6768995642806 118.0846431066397,251.37742221557897 117.26953338758726,251.5706334081713 117.52795335777574,252.16475782561395 116.92537595072598,252.2468725827122 116.87465801257963,252.10196418807004 116.76114643703332,251.7686748809401 116.65850299078646,251.4402158531229 116.52446272594759,251.00549066970024 116.48099020752615,250.85575199560134 116.38196947135768,250.57559576595023 116.29019415477018,250.32442121548667 116.22860808710843,250.160191701794 116.18272042885066,250.06841638549437 116.13683277066487,249.97664106905083 115.90618690934991,250.12154946318915 115.6707107682903,250.27611841746455 115.53908564328776,250.3534028943863 115.26858997355777,250.5272929679281 115.00171701369023,250.6963527613654 114.39430932675188,251.07794486687737 114.3085718600071,251.03930262856042 114.26872205159208,251.0006603899556 114.25181607216197,250.9668484310954 114.22645710312479,250.93303647273902 114.18177701482117,250.89439423391826 114.1479650561769,250.86058227505808 114.09845468805668,250.81710975678058 114.04290647016569,250.77363723850308 113.95475386344063,250.7060133209986 113.9004132155038,250.66737108268168 113.82312873843809,250.61423800477098 113.74101398162775,250.55627464689974 113.59489801717538,250.45966905071154 113.45481990249378,250.38238457357386 113.2447027303994,250.27611841746455 113.09858676594703,250.20849450024798 113.03217041854066,250.17951282106043 112.93677239216267,250.16502198168257 112.82326081640042,250.16502198168257 112.7387309196098,250.16502198168257 112.6409177533235,250.16502198168257 112.47306552976839,250.17468254138777 112.26415592762815,250.18917338090955 112.12649295292682,250.18917338090955 111.97796184849418,250.17468254138777 111.62052114206526,250.04909526601202 111.55772750452134,249.8703749127256 111.50459442646668,249.73029679804398 111.39953584045548,249.48878280721362 111.3258740733242,249.36802581179845 111.26428800559049,249.25692937601647 111.14956886001804,249.08786958265117 111.0710768129262,248.92847034841523 111.00466046551982,248.76424083472256 110.93341383822487,248.5806902019794 110.86699749067455,248.4164606880708 110.79816600335987,248.26189173401136 110.74141021544276,248.1266438990024 110.69552255718499,248.03003830259829 110.6472197590909,247.9189418668163 110.59529425099039,247.8126757109949 110.52042491390496,247.68225815616245 110.47695239548352,247.60497367902477 110.43468744716019,247.5228589219265 110.40812090809688,247.45040472474938 110.39604520862733,247.40210192651134 110.35861053997665,247.2910054909453 110.3320440009853,247.21855129355225 110.26804279341526,247.0929640181765 110.20766429570767,246.9770373027219 110.14970093805235,246.8466197476735 110.11105869937553,246.72103247229776 110.05671805143871,246.6002754768826 110.03498179226398,246.52782127992137 109.97943357437299,246.41189456417885 109.92630049639031,246.31045868810207 109.88645068797528,246.19936225232013 109.85263872925903,246.09792637595544 109.8260721902677,245.9964904998067 109.788637521617,245.80810958710296 109.77173154233085,245.70184343106564 109.76690126251425,245.62455895392793 109.75482556290076,245.45549916049066 109.7536179929466,245.32508160544225 109.76690126251425,245.2429668486319 109.788637521617,245.12220985321673 109.8188267704708,244.98213173853512 109.8260721902677,244.90484726161336 109.71256061450545,244.96764089894134 109.42274382550902,245.14153097226722 109.0471895698398,245.3637238440471 108.70906998267729,245.57142587601723 108.28642049872418,245.8370912660746 107.95796147112291,246.02064189881776 107.68384309160244,246.1800411329817 107.29742070620189,246.4263854035567 107.08971867415977,246.08343553679353 106.94118756972712,245.8370912660746 106.83492141376176,245.64871035315494 106.73590067752131,245.42651748137507 106.6175588221584,245.21881544940493 106.24200456627324,244.54257627536782 105.98358459622872,244.06437857316385 105.78554312367585,243.7069378668789 105.46795222566196,243.1128134494362 105.10205852962595,242.44140455485584 104.72891941379305,241.76033510064227 104.52000981165281,241.3884035547635 104.28453367059322,240.94884809138028 104.14807826577406,240.7025038208053 104.07924677838741,240.66386158227243 103.98747146187188,240.6397101832614 103.77373158005899,240.6058982244012 103.43561199282452,240.54793486703375 103.19289043204002,240.51895318784622 103.06126530703746,240.50446234846837 102.80767561673757,240.485141228986 102.72918356964573,240.4754806693528 102.57582218554043,240.4803109495293 102.47800901918215,240.485141228986 102.18698466023157,240.53344402744 102.09762448369632,240.5527651464905 101.85248778300351,240.6058982244012 101.67980527955982,240.64937074311052 101.57595426357473,240.67835242208216 101.30183588383832,240.75563689900392 101.12311553076782,240.8329213761416 100.97096171647271,240.8763938944191 100.85141229108368,240.9295269723298 100.57729391134727,241.06960508679546 100.35751617976362,241.18553180246602 100.13532330819969,241.30145851820853 99.85637464871866,241.4222155136237 99.7223343838078,241.4753485915344 99.63659691706303,241.50433027065 99.45425385398612,241.5429725090389 99.2260231327234,241.60093586691016 99.06783146865754,241.64440838540358 99.00383026115948,241.67822034404784 98.8661672863142,241.5767844678991 98.7478254308793,241.4753485915344 98.69589992277879,241.4367063532175 98.64276684479611,241.3884035547635 98.57635049738975,241.32560991743551 98.4966508804877,241.2531557201864 98.43385724272787,241.19519236238713 98.379516594863,241.15171984410964 98.33604407644157,241.11790788524945 98.27928828866841,241.07926564642867 98.22132493079715,241.0406234083277 98.13800260403265,240.9826600502405 98.04743485747127,240.9295269723298 97.96894281037943,240.8860544540523 97.88803562345126,240.8425819357748 97.7564104985207,240.77978829815893 97.63444593315137,240.72665521981637 97.53904790677338,240.67352214190566 97.44968773016615,240.5527651464905 97.37240325302845,240.47065038989606 97.24319326800618,240.3354025548871 97.03428366586596,240.1566822016007 96.94371591930457,240.0890582840962 96.77344855576916,239.98279212805886 96.68288080920779,239.9393196097814 96.51623615553484,239.87169569227692 96.44257438840356,239.84754429326586 96.36045963144926,239.81856261436621 96.25177833564757,239.746108417405 96.05977471293744,239.61086058239604 95.77116549382319,239.37417687123835 95.61297382990129,239.27274099537752 95.55380290207587,239.22926847710002 95.48376384473507,239.1664748392682 95.44753674625447,239.12783260073533 95.40044151797058,239.08919036234644 95.35093114985035,239.05537840348623 95.31228891124552,239.03122700454716 95.26519368310558,238.99741504568695 95.1927394857845,238.93462140807105 95.16858808670146,238.9056397289555 95.10941715902,238.83801581188285 94.93311194571383,238.6592954586684 94.87997886765919,238.60616238068573 94.84375176917858,238.57718070157014 94.78820355121563,238.5192173436989 94.76767486199505,238.4660842657882 94.74352346284003,238.39846034828372 94.71695692392068,238.35498783022217 94.67589954547951,238.33083643099516 94.59136964868888,238.29702447242286 94.54789713026744,238.27287307319588 94.51529274157733,238.23906111455162 94.4838959226974,238.21007943557998 94.44525368423652,238.17626747700768 94.39695088599848,238.13279495873022 94.28464688033434,238.05068020141601 94.19045642383853,237.96856544474963 94.07211456840362,237.88645068772337 93.82456272773054,237.67391837579265 93.78712805929578,237.644936696893 93.7376176910316,237.5966338988709 93.70139059247903,237.55799166033802 93.63738938483701,237.50002830246677 93.59391686648755,237.46138606414985 93.53957621862268,237.40825298623915 93.49127342038464,237.36478046767374 93.35723315547379,237.2488537520032 93.32100605684924,237.2198720733195 93.2920243779496,237.18606011445928 93.26545783895826,237.13775731622124 93.25217456953456,237.10394535736103 93.2292307403337,237.03149116039984 93.20387177129652,236.93488556421164 93.17489009239688,236.8382799675196 93.13745542389015,236.6885412932048 93.12658729430278,236.6160870962436 93.11451159468929,236.5146512198789 93.11088888482684,236.47600898127408 93.11209645485296,236.43736674274123 93.14228570370676,236.29728862827557 93.15194626333997,236.25864638945478 93.17247495256055,236.18136191274897 93.18575822198424,236.1089077153559 93.18213551219377,236.04611407781198 93.19058850180085,235.95433876108052 93.20266420141435,235.9156965226916 93.21232476104755,235.86739372452556 93.23889129996692,235.80943036665428 93.26666540891242,235.77561840779407 93.30772278742555,235.6886733712391 93.3439498860501,235.6017283344682 93.34998773574888,235.55825581619072 93.36327100531653,235.5244438573305 93.36930885508728,235.4664804998911 93.3741391349039,235.40368686191533 93.36930885508728,235.33606294484272 93.36930885508728,235.18632427031196 93.36085586533625,235.099379233757 93.34878016586671,234.9834525182304 93.3294590465283,234.86752580234392 93.31255306724215,234.78058076578895 93.31134549721602,234.73227796776683 93.30651521739942,234.65016321074054 93.2920243779496,234.58736957312468 93.26062755914165,234.5583878940091 93.20990962106728,234.52940621532537 93.17609766235103,234.5052548160984 93.13866299377233,234.47627313741467 93.10968131487267,234.4424611787704 93.09036019560625,234.40381893994964 93.07586935622841,234.36517670163272 93.06862393643152,234.32170418335522 93.05775580684416,234.27823166507773 93.02756655799035,234.21060774757325 93.00341515890733,234.16713522907983 92.96718806028277,234.1091718712086 92.90560199269301,234.00773599527577 92.84522349498542,233.91113039865573 92.79933583672765,233.8290156420613 92.76793901784772,233.75656144459626 92.74982546860743,233.698598086725 92.73412705920346,233.63097416950842 92.70393781034966,233.5585199720434 92.67495613145002,233.50055661438807 92.64476688259623,233.46674465581577 92.58559595477081,233.43776297662822 92.51434932747586,233.42327213753828 92.40083775178559,233.3894601786781 92.36702579314131,233.36047849949054 92.34166682410412,233.33149682080682 92.32476084467403,233.2976848619466 92.30785486545986,233.25421234366914 92.28974131600363,233.20590954543107 92.27645804657993,233.15760674748094 92.2680050568289,233.11413422920344 92.25713692731351,233.05134059158755 92.26317477701228,232.98371667415506 92.2680050568289,232.90643219701738 92.2728353366455,232.85329911881877 92.28128832639653,232.8098266007572 92.28611860621315,232.76635408226377 92.28128832639653,232.6987301650472 92.2728353366455,232.66008792622645 92.26679748694671,232.62144568790953 92.26679748694671,232.58280344908877 92.27645804657993,232.54899149044448 92.29577916577438,232.5151795315843 92.31389271508667,232.47653729326737 92.32838355453649,232.43306477498987 92.3356289742614,232.35095001789162 92.32476084467403,232.3026472199415 92.29940187563685,232.2543444214875 92.27404290659965,232.2060416236813 92.24626879772613,232.14807826588202 92.2354006680668,232.09977546742806 92.22574010850556,232.05630294915056 92.21245683893791,231.95969735296237 92.20158870942252,231.90173399487517 92.1919281497893,231.85343119714096 92.17502217035921,231.81961923828078 92.15328591118447,231.77614672000328 92.13154965208172,231.74233476135902 92.09894526324764,231.70369252253823 92.07479386423658,231.66988056367805 92.01683050636532,231.60225664660544 91.98543368762935,231.57327496748985 91.9274703297581,231.50565104998537 91.89245080108769,231.44768769233005 91.86950697203078,231.40904545358126 91.82603445360934,231.33659125662007 91.79101492493893,231.2593067796983 91.75116511645193,231.19168286219383 91.71252287799105,231.11922866494473 91.6787109192748,231.05643502696893 91.64127625062412,231.00330194905823 91.58814317271342,230.93084775209704 91.5229343952612,230.84390271525416 91.489122436401,230.80526047650537 91.44323477814324,230.7569576786992 91.39613955000328,230.71348516020578 91.35266703158184,230.65552180262242 91.33213834236126,230.60721900416843 91.3285156324988,230.51544368786884 91.35025189174551,230.46231060952627 91.36715787103167,230.41883809124877 91.3707805809661,230.37053529329864 91.37561086078271,230.3318930544779 91.3840638503898,230.2787599765672 91.39493197997716,230.2111360590627 91.40821524947283,230.1724938209617 91.42753636873925,230.12419102250772 91.45168776789427,230.0807185040143 91.48066944672193,230.03241570620813 91.50844355566743,229.99860374734791 91.53984037447538,229.95996150859912 91.60021887218296,229.89716787127114 91.59055831254975,229.83920451318394 91.55191607408887,229.7860714354892 91.52655710505168,229.728108077402 91.51931168525479,229.6701447199626 91.49153757638128,229.5976905223536 91.43598935849029,229.57353912334253 91.34542161192891,229.51074548579862 91.33334591231542,229.42863072913224 91.35508217156213,229.36100681169972 91.37923357057319,229.32719485305546 91.42029094901434,229.29338289419525 91.44444234809738,229.2547406553745 91.45168776789427,229.20643785764028 91.45168776789427,229.16296533914687 91.44202720826105,229.10983226094825 91.42270608892265,229.06152946299812 91.40459253961038,228.9987358254542 91.38768656025225,228.9117907886113 91.40459253961038,228.85382743081203 91.4239136588768,228.77654295389027 91.42753636873925,228.67027679778096 91.43115907867369,228.4915564445665 91.4190833790602,228.40944168746825 91.39010170016056,228.34664804992434 91.34783675176524,228.24521217377557 91.33093077247909,228.19690937582544 91.25847657515801,228.0520009813992 91.19326779763381,227.9070925865411 91.13651200978867,227.81048699056885 91.08217136185185,227.75252363248165 91.00005660496953,227.68489971497718 90.92397969792994,227.53999132055094 90.88292231948878,227.44338572414682 90.79476971276372,227.26466537136423 90.7452593446435,227.14390837594905 90.71748523576998,227.09560557749506 90.69091869677865,227.04247249958436 90.67159757751222,226.99899998130687 90.64986131826551,226.8975641049422 90.63174776902521,226.79129794933672 90.61967206941172,226.6946923526447 90.61363421964096,226.63672899506136 90.61725692964737,226.4724994813687 90.62087963943785,226.4290269630912 90.59793581023699,226.395215004231 90.56774656138319,226.3517424859535 90.53272703271278,226.31310024713275 90.49408479417994,226.26962772885526 90.45181984578463,226.22615521036184 90.40472461764467,226.17785241262763 90.36487480915767,226.13437989406222 90.31657201091963,226.08607709589617 90.271891922616,226.03777429787405 90.1970225854586,225.965320100481 90.16804090663094,225.93150814162078 90.12336081832731,225.88803562334328 90.07143531022682,225.8590539446596 90.02796279194932,225.84939338473845 89.98086756366543,225.83007226547204 89.93981018522427,225.8107511462056 89.8939225269665,225.78659974719454 89.83716673919335,225.74795750887762 89.79490179072606,225.71897582969007 89.74780656251414,225.68999415079043 89.67897507512748,225.6416913527683 89.6403328366666,225.61270967365274 89.59444517840883,225.57889771500845 89.5485575200791,225.53542519673098 89.50387743184746,225.49195267823757 89.47610332282999,225.46297099976977 89.38432800638643,225.3373837241781 89.35534632741481,225.27942036652277 89.32998735837762,225.23594784802935 89.30583595929458,225.202135889601 89.27443914048663,225.16349365085222 89.22975905218303,225.11519085261418 89.17300326440987,225.06688805466405 89.1452291553924,225.03790637569242 89.09813392718048,224.98960357752634 89.05345383887686,224.93647049961564 88.99066020133294,224.85435574251738 88.96892394208624,224.8253740638337 88.92907413359923,224.7867318250129 88.89405460492883,224.74808958669598 88.86024264628456,224.69495650878528 88.82401554758803,224.63699315091404 88.79865657855085,224.58386007300334 88.77329760951365,224.52106643517152 88.74310836065986,224.4582727976276 88.71291911180606,224.40513971950097 88.68031472304396,224.34717636206156 88.65133304414432,224.29887356389548 88.62476650529693,224.255401045618 88.6018226760241,224.22641936664638 88.55955772762879,224.1781165684803 88.50883978962639,224.11049265097583 88.47382026102797,224.06702013269833 88.433970452397,224.01388705478763 88.38325251446658,223.9414328571067 88.34219513595345,223.8979603388292 88.29872261753201,223.83999698117387 88.26491065881575,223.80618502260157 88.23834411982442,223.77237306395728 88.21660786072167,223.74339138498567 88.18279590193343,223.71440970587008 88.15019151324331,223.6709371875926 88.04754806706843,223.57916187086116 87.988377139315,223.51153795378852 87.96060303051347,223.45357459598924 87.9400743412209,223.41493235716848 87.91230023220344,223.37629011885156 87.89177154298285,223.34730843987992 87.8507141645417,223.27968452266336 87.8108643560547,223.22172116479211 87.77705239733844,223.15892752724818 87.71305118984037,223.0285099721278 87.70097549022688,222.98986773337904 87.68286194098658,222.92224381587457 87.6756165211897,222.8642804582192 87.65388026201495,222.76284458214246 87.64301213249956,222.70005094431062 87.62610615306947,222.6275967471335 87.61040774366549,222.5551425501723 87.5971244742418,222.50683975171833 87.58867148449076,222.45853695348026 87.57538821499509,222.39574331593636 87.55968980559112,222.35710107761943 87.55365195582036,222.30879827916544 87.53795354656035,222.2556652014707 87.53070812669148,222.18321100422156 87.51863242714995,222.11558708678908 87.50051887783768,222.0479631692846 87.48965074825031,221.98516953145278 87.48119775864323,221.91271533427565 87.47757504885276,221.84992169673174 87.47757504885276,221.81127945834282 87.49448102806693,221.7678069396335 87.51621728731364,221.72916470131656 87.55244438593819,221.6808619030785 87.61644559343625,221.5987471464841 87.66474839160232,221.55527462799068 87.71305118984037,221.5166323891699 87.76014641798031,221.47799015106892 87.79878865658515,221.4441781922087 87.8507141645417,221.4007056739312 87.97509386989131,221.31859091683296 88.03184965766447,221.27028811888283 88.10913413473018,221.21232476101156 88.2286835601912,221.10605860519016 88.3289118663858,220.99979244886492 88.4665748411591,220.87420517399303 88.55110473794973,220.78726013722212 88.63321949490403,220.69065454074604 88.67427687334518,220.61820034335295 88.70446612219898,220.5602369854817 88.70929640201558,220.4781222288873 88.69601313244794,220.40566803142227 88.67306930331905,220.32355327482784 88.63925734467479,220.20762655908533 88.62235136524468,220.10619068300855 88.47744297081844,220.0820392839975 88.3289118663858,220.06271816473105 88.10913413473018,220.09169984341477 88.0233966679854,220.09169984341477 87.92799864160742,220.03856676550407 87.86762014389983,219.99026396726603 87.80603407623808,219.9709428479996 87.75410856828154,219.93713088913938 87.7251268893099,219.9178097700889 87.69252250061979,219.8743372518114 87.6719938113992,219.82603445335744 87.64301213249956,219.76324081602945 87.61765316346238,219.71010773811875 87.57901092485754,219.64248382061427 87.55606709572866,219.61350214164264 87.51742485726778,219.59418102216029 87.48240532859738,219.57485990289385 87.4449706599467,219.56519934347656 87.41719655114517,219.53621766479287 87.37855431246835,219.48791486633888 87.36406347301853,219.45410290747867 87.2674578766864,219.51206626556586 87.20345666911635,219.56036906351602 87.16602200053764,219.59418102216029 87.13341761177554,219.61833242138727 87.06458612446087,219.71493801757546 86.99816977698252,219.77773165562323 86.9438291290457,219.83569501299064 86.89552633080764,219.85984641221762 86.85567652232064,219.8743372518114 86.80858129410872,219.81154361397958 86.76027849594264,219.71493801757546 86.7059378480778,219.61833242138727 86.64797449020652,219.52655710508768 86.6105398216998,219.4444423480614 86.5706900132128,219.3333459120635 86.56465216337006,219.28021283436874 86.56706730327836,219.22707975645804 86.57914300281988,219.15945583895356 86.58397328263648,219.06768052222208 86.59484141222384,218.96624464607333 86.60570954188319,218.8406573709855 86.60691711183735,218.76337289384782 86.5936338422697,218.69574897634334 86.57310515304911,218.61363421974892 86.53325534456211,218.31415687104732 86.50065095587199,218.15958791677193 86.4583860074047,217.9905281231187 86.38351667024729,217.6717296553666 86.35695013125596,217.58961489855625 86.34728957162274,217.48334874273485 86.28691107391515,217.26115587095498 86.24464612559181,217.14522915521246 86.20721145694112,216.98099964173574 86.15287080907628,216.807109567978 86.09611502115916,216.58491669663 86.08283175173547,216.51729277941342 86.08766203155209,216.42551746268197 86.08886960157821,216.31925130686056 86.08403932161765,216.1550217931679 86.05385007276385,216.03909507720942 86.0272835338445,215.90384724263234 86.0272835338445,215.83622332519985 86.01520783423099,215.73478744905108 85.98139587558673,215.6092001734594 85.94879148675265,215.52708541686502 85.89324326886167,215.44014038031003 85.86426158996203,215.36768618262906 85.85460103032881,215.27591086640143 85.83890262092484,215.15998415065891 85.80750580211689,215.03439687557108 85.74954244431761,214.88948848114484 85.68554123681955,214.77839204514694 85.63965357856178,214.67212588932554 85.61670974936091,214.59484141240378 85.60101133995694,214.4837449764059 85.57927508085419,214.33400630223503 85.5720296610573,214.21324930681985 85.56236910142408,214.0731711919223 85.54425555218378,213.88479027900266 85.52493443291735,213.78335440314183 85.51165116334971,213.72056076552593 85.47663163467931,213.62878544908236 85.39934715768557,213.44040453616273 85.2761750222901,213.13609690778844 85.23994792366555,213.04432159105698 85.19406026540778,212.91873431568123 85.1336817677002,212.76899564136642 85.0153399122653,212.25215570106144 84.9634144041648,212.10724730641928 84.91752674590704,211.9526783523598 84.85714824819945,211.77878827903393 84.83299684911641,211.67252212321253 84.83661955897887,211.57108624684787 84.83661955897887,211.42617785263755 84.83420441914254,211.3440630956113 84.80280760026261,211.2522877788798 84.74725938237164,211.16534274232484 84.67118247526007,211.05424630654286 84.5854450085153,210.98179210936576 84.59269042831218,210.91416819186128 84.59389799826633,210.82239287556166 84.61925696730353,210.74510839820806 84.64823864620317,210.6774844809195 84.6880884546182,210.5953697238932 84.72914583313133,210.51808524675553 84.77624106127128,210.46978244894936 84.85714824819945,210.38766769192307 84.9356402952913,210.3200437744186 85.02620804185267,210.21860789848577 85.11194550859744,210.12683258204223 85.18681484575485,210.06886922395503 85.2484009134166,209.99158474681732 85.31119455096051,209.91430026967964 85.38485631816377,209.79354327426447 85.4234985567686,209.72591935697594 85.46214079522949,209.64380460038151 85.55150097183672,209.48440536614558 85.62395516908582,209.33466669204668 85.66138983766453,209.233230815682 85.67829581702266,209.1607766187208 85.67346553720604,209.08349214158312 85.66863525738944,209.02552878349593 85.68312609683926,208.95790486599145 85.70606992604012,208.88545066903023 85.75920300395082,208.76469367361506 85.79301496266707,208.68740919647738 85.82561935150115,208.58114304036806 85.86426158996203,208.43623464622974 85.89565840876998,208.31547765081456 85.94758391687047,208.15124813690596 86.00192456480731,208.03049114149078 86.07317119210227,207.9193947057088 86.1021528710019,207.81795882934415 86.0900771713884,207.73584407246182 86.06592577230538,207.60542651741343 86.05747278269828,207.4798392423256 86.05988792253461,207.31077944867238 86.05747278269828,207.12239853575272 86.04056680326819,207.00164154033754 86.00916998446024,206.9291873431604 85.93067793744038,206.79393950815145 85.87392214959524,206.7069944715965 85.4464423858255,207.2431555311679 85.23994792366555,207.51848148064252 84.68688088466405,208.25751429272736 84.41880035484235,208.62461555886148 83.96233891217298,209.1994188568218 83.55538783762383,209.73074963693648 83.2583256289025,210.10268118281525 82.75839166788366,210.75476895784126 82.59899243393562,210.9866223890384 82.44321590985004,211.1991547009691 82.33453461404837,211.35855393491715 82.21981546833197,211.51795316893717 82.1135493124386,211.67252212321253 81.98916960708898,211.83192135694463 81.84184607275444,212.01064171023108 81.62448348100712,212.31494933860535 81.34794996150636,212.70137172386194 81.02552878374783,213.13126662761195 80.90718692816898,213.26651446283685 80.85043114039583,213.33896865979804 80.79971320232146,213.41142285697518 80.73450442479727,213.50802845366718 80.6982773261727,213.5611615315779 80.42053623664582,213.92826279749607 79.88558274695659,214.62865337104807 79.3445914074966,215.35319534353914 79.00043397056334,215.77342968758396 78.69129606237246,216.16951263225783 78.4147625428717,216.51729277941342 78.31574180655927,216.6428800542853 78.0597369762791,216.98099964173574 78.00418875838811,217.0679446782907 77.86411064370651,217.2466650313612 77.56342572512271,217.6475782564275 77.27843921601487,218.0001886827519 76.84009132265778,218.5411800222839 76.46574463679876,218.9807354854512 76.14815373885683,219.34783675187322 76.03947244305516,219.4782543069216 75.82814770107859,219.71010773811875 75.38617709785905,220.2607596372839 75.1374176872318,220.54574614639176 74.75824072162814,220.9708107701812 74.3609502067122,221.33791203631534 73.63640823422114,222.01415121064034 73.35262929506746,222.27981660048175 72.94205551058387,222.65657842624907 72.90341327205101,222.6903903846774 72.86235589360986,222.71937206386497 72.82492122510313,222.75318402243727 72.76212758741525,222.83046849935903 72.71020207938673,222.87394101785245 72.33706296362581,223.21689088461562 71.9590935679763,223.57433159140442 71.71033415734907,223.80135474242508 71.43017792805783,224.06702013269833 71.15002169869462,224.3278552425792 70.2419290931005,224.8785071417444 70.1368705070893,224.9413007792883 70.08132228919831,224.92680993991047 70.04509519057376,224.92680993991047 69.95815015387484,224.96062189877065 69.88448838667158,224.97994301810905 69.79150550027387,225.0040944168322 69.69489990394172,225.02341553638655 69.5958791676293,225.05722749503082 69.4908205816181,225.08620917371454 69.38334685577057,225.10553029298097 69.26983528000832,225.12968169199203 69.00054718030445,225.177984490446 68.86288420545917,225.202135889601 68.40883790269811,225.29874148586117 68.29170361721737,225.3180626051276 68.18906017104248,225.3373837241781 68.02241551736954,225.3711956828224 67.96807486943271,225.37602596299888 67.91614936140418,225.3808562424556 67.87629955291717,225.3905168020888 67.72776844862848,225.42915904090958 67.524896696259,225.4678012792265 67.10345478233201,225.54991603632476 66.88367705060442,225.59338855460223 66.6687295987654,225.6416913527683 66.57695428224986,225.6610124721067 66.32336459194997,225.7141455500174 66.09030359072669,225.76244834818348 65.88260155861259,225.80109058678832 65.4684050644105,225.89286590323186 65.01677390162972,225.88320534359866 64.84409139811405,225.84939338473845 64.73661767212255,225.878375063926 64.61223796684492,225.76244834818348 64.54461404941242,225.71897582969007 64.41540406431818,225.69482443096692 64.10022830635654,225.6416913527683 63.92271552302426,225.57889771500845 63.66067284297332,225.53542519673098 63.43606483157307,225.49678295841406 63.15953131207231,225.44848015996007 62.918017321241955,225.42915904090958 62.47604671795043,225.3711956828224 62.03890639454749,225.29391120590063 61.44478197710481,225.18281477011865 61.104247250034014,225.12485141224738 60.716617294751295,225.06688805466405 60.3181192098812,225.01375497675335 59.737278062006176,224.91231910060458 58.97650899081858,224.74325930673544 58.41498896220998,224.61284175168703 56.58431291164391,224.2409102058083 55.76678805268316,224.071850412371 55.60376610887268,224.04769901343192 55.185946904736156,224.03320817383815 53.71995698046788,223.70957942612546 52.9060548312976,223.50670767389994 52.43631011920454,223.3376478800308 52.171852299173324,223.21689088461562 51.187682786539625,222.7580143021819 50.53197230143522,222.43921583421385 50.02720806067175,222.17838072433298 49.78690163972357,222.15905960506657 49.62387969598505,222.14939904536138 49.551425498663974,222.1010962471953 49.500707560589596,222.05279344917318 49.48742429109393,221.9899998111974 49.563501198277464,221.8644125360376 48.84982735537377,221.38621483412152 48.547934866835824,221.18334308203995 48.22672125895947,220.96598049043658 47.643464971104166,220.56989754533086 47.07228438279038,220.18830543960297 46.5783882715423,219.855016132473 45.90577180715174,219.43478178842818 45.37685616723326,219.09183192123314 44.61125681622906,218.58465254056136 43.94830091147171,218.14509707717815 42.77695805594448,217.36742202677638 42.01256627503839,216.86024264632056 41.15398403749252,216.290269627673 40.69510745491485,215.9811317195541 39.211003981262316,214.98609407711712 38.58427517512952,214.5610294535436 37.654446310432654,213.9572444764677 37.191947017992526,213.65776712755016 35.859997358491135,212.74001396268272 35.39749806605101,212.4308760543479 34.048642427263474,211.53244400853094 33.314439895139195,211.06390686639202 32.39064888028506,210.47944300865453 31.344893299989625,209.78388271484718 30.81839279990747,209.4167814486411 29.28236381829839,208.36861072872526 28.33321383426312,207.74067435220644 27.763240816047432,207.35425196694985 26.958999226438397,206.81809090737846 26.53272703262282,206.53793467823115 25.729693013183866,206.01626445774968 25.38795071615891,205.77958074709582 24.817977697799275,205.38832808187868 23.754108568119584,204.66378610938762 22.97160323790121,204.16143700824455 22.16615407841,203.64459706772362 21.195267835343948,203.00700013200347 20.938055435037644,202.83794033863813 20.740013962556752,202.7026925036292 20.341515877758642,202.43219683411513 19.61093605549682,201.93467801286064 19.282477027895556,201.70765486162406 18.2536274271022,201.0265854074105 17.292401743525406,200.39381875114705 16.7622785335808,200.036378045078 15.735844072551792,199.35530859086444 15.406177475068358,199.13794599926106 15.124813675750993,198.95439536601407 14.285552557615508,198.4085737465935 13.5996528236573,197.94486688419923 12.945149908579014,197.50531142103193 12.21457008631719,197.01745315969856 11.96098039587334,196.83390252673948 11.759316213529994,196.6889941320973 11.394630087448133,196.45231042115554 11.261797392419462,196.3653653841687 11.121719277737856,196.2687597877646 10.85967659768692,196.07071831542765 10.765486141335058,195.99343383828995 10.60125662749844,195.87267684287477 10.542085699745003,195.81954376496407 10.399592445155093,195.6987867695489 10.276420309831613,195.61184173299392 10.199135832765899,195.54904809545002 10.146002754855198,195.50074529699603 10.003509500193312,195.37515802205215 9.917772033448536,195.30753410461966 9.760787939408804,195.17711654928334 9.588105436037077,195.03703843460175 9.449234891237646,194.92594199881978 9.328477895822468,194.82450612295895 9.17390894169104,194.69408856762263 9.083341195129659,194.61680409070087 8.99639615843073,194.5443498933078 8.90341327203302,194.46223513671342 8.686050680213723,194.30283590247745 8.544764995577966,194.19656974665605 8.393818751308995,194.0854733108741 8.236834657269263,193.9695465951316 8.025509915292703,193.78599596217248 7.846789562150216,193.65074812737947 7.59078473187004,193.4430460954093 7.404818958930667,193.29330742087856 7.267155984085387,193.18704126505716 7.14398384890586,193.08077510916377 6.974924055180658,192.94069699426623 6.842091360367916,192.83443083844483 6.6923526859091425,192.70884356328503 6.566765410677357,192.60740768720825 6.40495103682102,192.48182041161658 6.260042642322806,192.3610634162014 6.12237966762148,192.25479726059595 5.908639785664639,192.10505858620914 5.692484763871471,191.93599879262788 5.517387120591441,191.800750957403 5.360403026479733,191.67033340257055 5.271042849944479,191.59304892543287 5.181682673409224,191.4916130492841 5.105605766225685,191.4046680125132 4.995716900325897,191.25009905845374 4.897903734039603,191.11002094377216 4.858053925624572,191.03756674681094 4.717975810942965,190.90231891180198 4.645521613621882,190.83952527425808 4.459555840682508,190.6752957605654 4.302571746642777,190.53521764581183 4.216834279898001,190.448272608825 4.131096813153225,190.3758184118638 4.0260382271420205,190.2888733750929 3.6915413499139555,190.52072680629004 3.431913809699347,190.69944715928855 3.340138493327766,190.61250212251767 3.2519858865307323,190.52072680629004 3.198852808620031,190.45310288878557 3.1565878601527424,190.39030925116967 3.047906564351059,190.2647219758659 2.9513009680189173,190.15362554008394 2.8691862110646196,190.04735938426253 2.8329591124400664,189.9749051867975 2.7617124851451114,189.87346931093666 2.7001264175553477,189.7816939942052 2.61801166060105,189.65127643937274 2.5383120436990096,189.50636804451463 2.4972546651858725,189.41459272821504 2.3982339290174037,189.2407026546732 2.3414781411002936,189.1489273384456 1.8041095115747299,189.4049321683659 1.468405064392513,189.56433140260182 1.2280986433723562,189.37595048968217 0.7511085114824047,189.04266118212036 0,188.97986754457645 0,188.62725711796412 0,188.1297382971415 0.0990207363124224,188.1297382971415 0.35261042661231856,188.1297382971415 0.35261042661231856,187.42934772344555 0.7040132832704854,187.42934772344555 0.7040132832704854,186.8352233060029 0.7040132832704854,186.7241268702209 0.7607690711156189,186.7241268702209 1.056623709882804,186.7241268702209 1.056623709882804,186.13483273252288 1.056623709882804,186.0189060172842 1.1157946377082177,186.0189060172842 1.4056114266326671,186.0189060172842 1.4056114266326671,186.3715164438965 1.6543708372599097,186.3715164438965 2.1096247099031524,186.3715164438965 2.1096247099031524,186.0189060172842 2.462235136515471,186.0189060172842 2.462235136515471,185.3185154437322 2.813637993173638,185.3185154437322 2.813637993173638,184.96590501719186 3.1662484197859566,184.96590501719186 3.1662484197859566,183.91290401731547 3.517651276444123,183.90807373713898 3.517651276444123,182.94684805399405 3.517651276444123,182.50246231043434 3.8702617030564417,182.50246231043434 3.8702617030564417,182.2850997190469 3.8702617030564417,182.149851883822 4.22287212966876,182.149851883822 4.22287212966876,181.8020717373862 4.5718598464906,181.8020717373862 4.5718598464906,180.75390101718244 4.5718598464906,179.69123945724098 4.923262703148767,179.69123945724098 4.923262703148767,179.33862903062865 5.275873129761086,179.33862903062865 5.275873129761086,179.18406007678513 5.275873129761086,178.98601860401635 5.627275986347276,178.98601860401635 5.627275986347276,178.2807977510796 5.981093982985723,178.2807977510796 5.981093982985723,177.69633389327015 5.981093982985723,177.2277967509153 6.332496839643889,177.2277967509153 6.332496839643889,176.87518632437497 6.680276986439601,176.87518632437497 6.680276986439601,176.2907224665655 6.683899696230079,174.88511103986087 6.6851072662562085,174.7643540444457 6.757561463433338,174.7643540444457 7.036510122914375,174.7643540444457 7.036510122914375,174.41174361761745 7.385497839736215,174.41174361761745 7.385497839736215,174.0639634711816 7.794864054049714,174.0639634711816 8.090718692816898,174.0639634711816 8.090718692816898,173.71135304456928 8.442121549619019,173.71135304456928 8.442121549619019,173.35874261774103 8.794731976087384,173.35874261774103 8.794731976087384,173.00613219112873 9.146134832817527,173.00613219112873 9.146134832817527,172.30574161786464 9.498745259501822,172.30574161786464 9.498745259501822,171.24791033781176 9.850148116088013,171.24791033781176 9.850148116088013,170.19490933771942 9.498745259501822,170.19490933771942 9.498745259501822,169.84229891110712 9.332100605756901,169.84229891110712 9.29104322731574,169.84229891110712 9.146134832817527,169.84229891110712 9.146134832817527,169.48968848471074 8.442121549619019,169.48968848471074 8.442121549619019,167.73146663168168 8.794731976087384,167.73146663168168 8.794731976087384,166.32585520497702 9.146134832817527,166.32585520497702 9.146134832817527,165.26802392492414 9.29104322731574,165.26802392492414 9.498745259501822,165.26802392492414 9.498745259501822,164.09426592963257 9.498745259501822,163.8624124982195 9.797015038033358,163.8624124982195 9.850148116088013,163.8624124982195 9.850148116088013,163.4759901129629 9.850148116088013,162.45680107151486 10.106152946368189,162.45680107151486 10.199135832765899,162.45680107151486 10.199135832765899,162.34087435627617 10.199135832765899,161.39896979189382 10.551746259378218,161.39896979189382 10.551746259378218,161.26372195717278 10.551746259378218,160.88696013111755 10.551746259378218,160.34596879201743 10.288496009445108,160.34596879201743 10.117021075955556,160.34596879201743 9.850148116088013,160.34596879201743 9.850148116088013,159.64074793886476 10.199135832765899,159.64074793886476 10.199135832765899,159.28813751225246 10.551746259378218,159.28813751225246 10.551746259378218,157.5299156589355 10.903149116036385,157.5299156589355 10.903149116036385,157.17730523210724 11.255759542648704,157.17730523210724 11.255759542648704,156.47691465884316 11.608369969261021,156.47691465884316 11.608369969261021,156.33683654408958 11.608369969261021,156.12430423223086 11.77259948309764,156.12430423223086 11.959772825919188,156.12430423223086 11.959772825919188,155.7716938054026 12.312383252531507,155.7716938054026 12.312383252531507,155.41908337879028 12.663786109189674,155.41908337879028 12.663786109189674,154.97469763595035 12.663786109189674,154.71869280552622 12.860620011716414,154.71869280552622 13.012773825939536,154.71869280552622 13.012773825939536,154.5158210532287 13.012773825939536,154.36608237869797 13.367799392532136,154.36608237869797 13.367799392532136,154.23083454390493 13.337610143678342,154.05694447057905 13.352100983128162,153.80093964037084 13.367799392532136,153.75746712187743 13.367799392532136,153.6608615254733 13.407649201019145,153.6512009658401 13.579124134508696,153.1778335438126 13.907583161966002,152.70446612200104 14.274684428028143,152.43397045205512 14.717862601201844,151.92196079192664 15.459310553123013,150.76752391568556 16.676541066836027,149.188022415655 17.253759504920573,148.08671861710872 17.47715994651063,147.8210532272673 17.823732523280214,147.28006188795126 18.479443008456602,146.04834053486042 18.704051019856855,145.81648710366326 18.857412404178085,145.5749731128329 18.975754259541006,145.27549576391536 19.488971490055512,144.34808203941472 19.50829260932194,144.18868280517876 19.671314553204407,143.88437517702042 19.729277910931714,143.43032887404343 19.790863978593457,143.2902507593618 21.342591369750465,141.32915715403527 21.668635257371445,140.69156021831512 22.15890865868509,140.13607803897344 22.59967169202246,139.0879073190576 22.861714372073397,138.6869940939913 22.861714372073397,138.18464499306415 23.193796109465136,138.18464499306415 23.215532368567892,138.15566331459638 23.215532368567892,137.83203456645185 23.43651767017767,137.83203456645185 23.566935225370013,137.65814449312597 23.566935225370013,137.48425442001601 23.722711749383613,137.4504424611558 23.919545651838376,137.18477707109847 23.919545651838376,137.13164399318777 23.95818789044321,137.13164399318777 24.2419668295969,136.75005188789174 24.86145021607676,135.46519745660225 26.036415781538416,133.77942980067837 26.53151946266867,132.91480971328977 27.102700051054434,132.26755221772046 27.30074152346335,131.39810185080316 27.705277458104195,130.31128889206656 28.089284703596437,129.60606803884193 28.515556897340037,129.00711334151066 29.050510387101248,128.06037849745567 29.39346025415233,127.2633823280034 29.550444348048106,126.75137266737107 29.649465084360532,126.2828355250882 29.719504141701332,125.55829355259715 29.822147587732257,125.26364648364016 29.99362252122181,124.98832053416552 30.384875186366987,124.54393479132558 30.971754184156726,123.61652106632108 31.051453801058766,123.58753938763738 31.44149889624979,123.19145644253165 31.81584558203684,122.73741013955464 32.742051736871254,121.3897620709372 33.571652295373525,119.72814581380841 33.81075114636755,119.16300307555329 34.25634445937758,118.35634634596397 34.28411856846702,118.17762599289347 34.48095247084981,117.70425857093795 34.45800864172092,116.4483858183322 34.48095247084981,116.24068378636204 34.67778637337655,115.70935300646329 34.98813185166553,115.23115530476313 35.428894884858956,114.8302420801287 37.045831053540155,112.588992245223 37.73776863719715,110.941866827688 39.32089284709013,108.46876356151319 40.30143964993334,106.62842695160181 40.604539708353464,106.22268344679088 40.856921828771185,105.77346742399038 41.918375818470594,103.64331402457874 42.39415838047837,102.18456951996339 43.080058114364604,101.09292628155414 43.31432668554203,100.55193494202217 43.54376497675889,100.15585199691644 44.31177946767139,99.19945659322822 44.60763410643858,98.5038962999247 45.081001528466075,97.81799656575058 45.512104002026284,97.04515179523739 46.10985112933141,95.8472424007908 46.223362705093656,95.30142078129828 46.39121492864877,94.9053378366244 46.991377195862206,94.06969942842335 47.45266891834819,93.29202437773367 48.191701730289076,92.34045925379009 48.55880299635121,91.73667427671421 48.675937281903934,91.09907734077811 48.911413422963534,90.3600445289092 48.97541463060555,90.23445725382138 49.044246117920224,90.23445725382138 49.044246117920224,90.07988829954598 49.236249740702334,89.79490179043815 49.49225457091053,89.18145625394497 49.69512632328001,88.9737542217589 49.81467574874104,88.72740995096798 49.9088662050929,87.9593954599835 50.02720806067175,87.66474839124244 50.88458272804753,86.38955451958618 51.43523462721272,85.30757184102607 51.46300873608623,85.2592690425721 53.43376290133391,81.91671540976789 53.89022434400328,80.99413196472396 54.29476027857215,80.40000754728129 54.754844431103976,79.56436913900826 55.373120247629686,78.64661597363698 55.62912507790986,78.11528519402613 55.964829525236034,77.22168342766591 56.24860846438972,76.67103152893257 56.252231174252174,76.1397007491058 56.323477801547135,75.878865639009 57.07700145308179,74.18343742302004 57.88848846212783,72.14022906059523 58.00200003789008,71.92286646899187 58.24713673851091,71.61855884083353 58.40291326259649,71.3094209324987 58.6251061342324,70.74910847370029 58.96684843118537,69.60916243705299 59.496971641129974,68.64310647373158 59.69380554358474,68.21804184987015 59.84958206767032,67.87992226241974 60.26498613189853,67.42104567977009 60.44370648511299,67.15538028992867 60.84944998977996,66.07822789082529 61.1815317271717,65.71112662490711 61.35421423054343,65.45029151502625 61.429083567772814,65.27640144141247 61.487046925500124,64.82718541861196 61.56312383261169,64.62914394584317 62.05339723399731,63.943244212172864 62.418083360151144,63.083454404456916 63.01341534761995,62.2043434779064 63.21387196000914,61.72131549624569 63.461423800610255,60.629672258052366 63.692069661853246,60.016226721343266 63.76090114916792,59.69259797319872 63.85267646575543,59.52353817997736 64.10022830635654,59.286854468675706 64.38883752532685,58.90526236337968 64.61586067670737,58.48019773930232 64.7305798223518,58.13724787261112 64.69797543366167,57.504481216347685 64.78612804024277,57.374063661299296 65.20636238435956,57.13254967046894 65.58674691984541,56.84273288168844 66.54676503339607,55.91531915668395 66.76895790495999,55.62067208794289 67.16866355985621,54.83333647812384 67.39810185107306,54.24887262009845 67.39689428111892,53.572633445773455 67.6021811733967,52.60657748245203 68.36657295437477,51.51976452371544 68.77714673871439,50.83386478961327 68.94258382243319,50.432951564978836 69.10802090615198,49.75671239050989 69.45097077313109,49.10945489515652 69.44010264354372,48.97420706036349 69.24085360110868,48.98386761999671 68.82665710683462,49.404101963897574 68.62982320430788,49.50553784004632 68.49940564925949,49.4572350420242 68.5465008774714,49.16258797306722 68.76869374910731,48.65540859261138 70.08011471924416,46.481782675138184 70.90005471811322,45.43844223446314 71.33236476169955,44.723560821893194 71.60527557133786,44.09079416562976 71.8069397536812,43.25998603731729 72.29359044520437,42.58857714273692 72.53993471585133,42.12004000066999 72.78507141661612,41.88818656947285 73.07971848535718,41.429309987039126 73.23549500944276,40.95111228483514 73.32606275600413,40.30385478948177 73.3997245232074,40.17343723443337 73.69557916204656,39.85463876646533 74.16049359432301,39.511688899486224 74.67371082483751,39.0190003581923 74.96111247392564,38.61325685366928 75.36081812882186,37.48297137643927 75.83539312073152,36.69080548687558 75.91026245788893,36.28989226209719 76.07449197172555,35.82618539948698 76.36430876065,35.20790958303325 76.8775259911645,34.386762014138064 76.96567859788956,33.9133945923265 77.2458348271808,33.222664578263775 77.36417668283163,32.78310911488055 78.2626087285766,31.498254684022946 78.35438404516411,31.20360761485003 78.51378327904017,30.894469706947056 78.5717466369834,30.44525368371469 78.82533632721132,29.909092624143277 79.093416857105,29.029981697376833 79.50519821139878,28.10739825254883 79.73463650268761,27.841732862707413 79.89524330658979,27.53259495466049 80.1681541162281,27.155833128821182 80.60891714956547,26.779071302981876 81.00258495454698,26.344346119559212 81.24530651533148,26.00622653254067 81.85512934217813,25.09330364712995 82.09543576305434,24.624766504991037 82.25121228713991,24.441215871600082 82.55551991565814,23.818109775473697 82.88760165304987,23.339912073485642 83.19915470122103,22.70714541751011 83.31870412661009,22.55740674341122 83.6664842734058,21.528557142257977 83.93094209336503,21.14213475728929 84.29321307961057,20.378950545977464 85.00447178260596,18.3115907845416 85.41625313697172,17.669163568716925 86.00071699478117,16.973603275341432 86.41370591910109,16.080001509269117 86.46804656703792,15.814336119211774 86.43061189853118,15.47138625223267 86.19996603721621,15.123606105580912 85.99830185501682,14.964206871776831 85.744712164501,14.877261834789996 85.52251929293708,14.804807637612866 85.46576350509194,14.350761335067729 85.54063284224935,13.983660068933611 85.96932017597322,13.476480688045912 86.52238721497474,12.68431479805037 87.14066303150045,11.500896243125583 87.63938942256513,10.67974867444633 88.5969923962075,9.568784316482741 88.58008641684937,9.53497235762254 88.67789958313567,9.486669559600422 89.30462838934044,8.631710031845033 89.76712768178056,7.535236513475221 89.95792373460853,6.631974188129576 90.3588369593869,5.849468857839225 90.58827525060377,5.612785146465594 91.08337893187797,5.298816958674039 91.13409686995236,5.255344440396552 92.11343610269746,5.221532481536348 100.42514009712414,4.931715692683876 119.21492858379774,4.086416724777633 131.61425687310017,9.573614596155396 131.92097964138273,8.989150738633843 132.68416385240667,8.04241589436292 133.17805996365473,7.438630917287033 134.48948093379158,6.16343704563078 135.2478348649989,5.366440876178515 135.55697277326175,4.8592614952908155 135.81177003358778,4.15887092202674 136.09071869306882,3.1010396419738533 136.28272231577895,2.560048302441881 136.37087492236006,2.120492839274588 136.41434744085348,1.5601803806921177 136.5097454671595,0.9032623252736677 136.712617219385,0.26083510988085323 136.79231683635902,0 138.64955942584444,0.1449083941383292 161.71414555014337,1.946602765732779 168.0224909907762,2.6711447382238442 171.4797637693688,8.810430385131474 172.64748391503355,8.984320458457352 173.93837619609377,9.225834449287706Z"/></svg>