<svg xmlns="http://www.w3.org/2000/svg" width="256" height="256"><path d="M241.97260273972603,0 256,203.39726058750935 22.794520547945204,133.2602742861395 0,14.027397260273972 241.97260273972603,0 M148478.24657534246,-23902.68493119331 148490.52054815422,-23685.260273972603 148969.20547945207,-23720.328767332314 149006.02739726027,-23474.849314859468 148960.43835616438,-23404.712328871636 148811.3972603785,-23299.506849106045 148481.75342476205,-23187.28767091934 148502.79452065245,-22822.575342152217 148983.23287671234,-22745.42465763876 148999.01369863015,-22640.21917797768 148679.89041106342,-22619.178082191782 148686.90410969354,-22563.068492732637 148532.60273983053,-22549.041095472363 148546.6301370908,-21616.219178291216 148548.38356174834,-21525.041095576875 148667.61643835617,-21532.054794311523 148667.61643835617,-21616.219178291216 148671.12328777576,-21826.630137090815 150291.2876712329,-21202.41095890411 150233.42465753425,-21167.342465857935 148837.698630137,-21665.31506859766 148828.9315068493,-21419.83561612482 148825.42465763877,-21300.60273983054 147636.60273972602,-21293.589040991377 147175.45205500355,-21202.41095890411 147196.49315078944,-21097.205479138516 147576.9863014744,-21013.041095576875 148828.9315068493,-21055.12328767123 148920.1095891456,-21062.136986196856 149875.72602739726,-20900.821918017245 149949.36986311822,-20900.821918017245 149975.67123287672,-20571.178081878243 149873.97260273973,-20578.191781030942 149819.61643846068,-20311.671232563174 149493.4794520548,-19785.6438353029 148955.1780821918,-18915.94520527043 148913.09589051548,-18831.78082202232 149621.4794521593,-18544.219177768657 151646.68493171586,-17723.616438356163 151813.26027407713,-17709.58904109589 151906.19178082192,-17625.424657429736 151920.2191780822,-17471.123287775747 149851.1780821918,-14293.917808114666 148590.46575352916,-12365.150684826995 147643.61643835617,-10906.301370072038 148515.0684931507,-10485.47945184577 149272.54794520547,-10071.6712327722 149563.61643846068,-9952.438355850847 150519.23287681685,-9454.465753424658 152281.42465763877,-8661.917808323691 153258.08219178082,-8163.945205583965 154413.5890412004,-9545.643835511926 154671.34246596246,-9335.232876398792 153629.80821917808,-8023.671232563175 155321.86301369863,-7259.178082296293 156344.1095891456,-8500.60273983054 156412.49315068492,-8514.630137090813 156691.2876712329,-8353.315068597663 155342.90410969354,-6803.287671023852 155171.0684931507,-6606.904109170992 152332.27397270725,-2945.7534244485096 151860.60273972602,-2356.602739621515 151555.50684931508,-2489.8630139076545 152311.23287681685,-3429.6986302414984 151892.16438356164,-3619.068493255197 150855.89041106342,-4103.01369873465 150584.1095890411,-4243.287671441901 150473.64383561644,-4096.000000209025 146703.7808219178,497.9726030532628 146458.30136996752,378.739726340934 146363.61643846068,441.8630135941179 146205.80821917808,350.6849315068493 146030.46575342465,294.57534277929017 145827.0684931507,378.739726340934 145208.1095891456,1150.246575446978 144655.7808219178,1851.6164384606766 144475.1780821918,2083.068493255197 144234.95890410958,2342.5753423612414 143598.46575342465,3121.0958902019343 143293.36986311822,3408.657534142063 143212.7123287671,3485.8082192825946 143253.04109589042,3527.8904111679285 143254.79452054793,3668.1643835616437 142179.94520547945,3780.383561748348 142295.67123287672,4432.657534142063 142360.54794530998,4790.35616480161 143484.49315078944,4629.04109630846 144594.41095900862,4467.7260275017725 149130.5205479452,3850.520548049718 149200.65753424657,4208.219178082192 141802.9589042141,5218.191781135454 141680.2191781867,5274.301369863014 140000.4383562689,6059.835616542869 141047.23287671234,7490.630136777277 141680.2191781867,7217.095890724496 142739.2876713374,6754.191780717406 142833.97260284424,6894.465753842706 141680.2191781867,7420.493151102981 141040.2191780822,7715.068493150685 141143.67123287672,7834.30137017655 141252.38356164383,7792.2191779776795 141680.2191781867,8402.410958904109 142001.09589051548,8858.301369758501 145362.41095900862,7385.424657743271 145462.35616438356,7546.739726236422 142179.94520547945,9005.589040991377 142190.46575352916,9117.808219178081 142488.54794520547,9538.63013740435 142702.46575352916,9840.219178291216 142849.75342476205,10050.63013740435 143244.27397270725,10611.726027292749 143354.7397260274,10562.630137299839 147413.9178083237,8774.136986510395 147545.42465763877,8914.410959217646 143724.71232887162,10618.73972613191 143367.01369873466,10780.05479462506 143724.71232887162,11278.027397678323 143940.38356164383,11579.616438565188 144231.45205479453,11986.410958799597 144671.56164383562,12603.616438460676 144746.95890410958,12603.616438460676 144746.95890410958,12708.821917912732 144881.97260273973,12898.19178092643 149886.24657534246,10709.917808219177 150008.9863014744,10878.24657555149 144985.42465753425,13073.534246679854 145742.90410969354,14132.602739621516 146256.65753424657,14848.000000313537 149072.65753435108,13606.57534236124 149225.20547945207,13795.945205792988 147170.19178082192,15668.602739621516 146875.61643846068,15935.123287775745 147142.13698630137,16362.958904527639 147569.97260294875,16748.712328662612 147810.19178092643,16594.410958695084 148148.60273972602,16369.972602635215 148229.2602739726,16447.123287462207 147903.12328767125,16692.602739935053 147692.71232887162,16853.917808428203 148302.90410958903,17351.890411063418 148508.05479452055,17197.58904109589 149893.26027418164,16173.589041409426 150014.24657534246,16278.794520861482 148762.301369863,17197.58904109589 148402.8493152775,17457.09589051547 149339.1780821918,18207.561644149155 149400.54794520547,18221.58904109589 149770.5205479452,18088.328767436826 150361.42465753425,18081.315068702173 151858.84931506848,18067.2876714419 151841.31506859767,17197.58904109589 151825.53424657535,16391.01369873465 151967.56164394013,16398.02739715576 151986.84931506848,17197.58904109589 152009.64383572096,18053.260274077114 153507.0684932552,18039.23287681684 153457.97260284424,16180.602739621516 153443.94520568848,15682.63013688179 153543.89041106342,15675.616438774214 153563.1780821918,16180.602739621516 153626.30136996752,18004.16438387518 154129.53424667986,18004.16438387518 154313.64383561644,18144.438356268896 154844.9315069538,18130.41095932216 154808.1095891456,16222.684931402337 154858.9589042141,16215.671232981225 154913.31506849316,18088.328767436826 156030.2465755515,18102.3561646971 156521.20547945207,18004.16438387518 156396.7123287671,16215.671232981225 156152.9863014744,16201.643836034487 156161.75342486656,16117.479452054795 156463.34246575343,16131.506849315068 156482.6301370908,15977.20547966108 156824.54794530998,15956.164383561643 156712.32876712328,12344.109589459145 156833.31506859767,12351.123287566721 156915.72602739726,14013.369863013699 157771.39726027398,14006.356164488074 157748.60273972602,12091.616438460676 157738.08219188533,11137.753424553022 157825.75342476205,11095.6712327722 157729.31506849316,7806.246575237954 157843.2876712329,7799.232876816841 157925.698630137,11067.616438565188 158027.39726027398,11144.767123392183 158071.23287671234,12603.616438460676 158134.35616459258,14644.602739621516 158195.72602739726,16692.602739935053 158237.80821917808,18144.438356268896 158890.08219178082,18845.808219282593 158741.04109589042,19014.136986196856 159200.4383562689,19505.095890724497 159400.32876712328,19470.027397469297 160459.39726027398,20592.21917797768 160273.53424667986,20802.630136777276 160592.65753424657,21055.12328767123 160810.08219178082,20921.86301411668 161006.46575342465,21104.21917797768 160396.27397260274,21511.013698943672 160931.0684932552,22121.20547976559 161146.7397260274,22044.054794311523 161248.43835616438,22261.479452159307 161600.87671232875,22668.273972498228 161600.87671232875,22990.904109798066 161600.87671232875,23839.561643940127 161986.6301369863,23888.657534560112 162109.3698630137,24183.23287671233 162109.3698630137,27416.547945100967 162619.61643846068,27416.547945100967 162619.61643846068,27928.547945100967 162826.5205479452,27928.547945100967 163131.6164385652,27928.547945100967 163131.6164385652,28433.534246888878 163641.86301380314,28433.534246888878 163641.86301380314,28945.534246575342 164644.8219178082,28945.534246575342 164664.1095891456,29457.534246575342 165709.15068503603,29457.534246575342 166194.84931506848,29457.534246575342 166194.84931506848,29688.98630178791 166194.84931506848,29969.534246575342 166771.72602739726,29969.534246575342 167217.09589041097,29969.534246575342 167217.09589041097,30179.945205688477 167217.09589041097,30481.534246888878 167836.05479462506,30481.534246888878 168239.34246575343,30481.534246888878 168239.34246575343,30677.91780832369 168239.34246575343,30909.369862909185 168440.9863014744,30986.52054773618 168884.60273972602,30986.52054773618 169768.32876712328,30986.52054773618 169768.32876712328,31351.232876503305 169768.32876712328,31491.506849210557 170127.7808219178,31498.52054773618 170278.57534246575,31498.52054773618 170278.57534246575,31687.89041074988 170278.57534246575,32010.520548049717 171125.4794520548,32010.520548049717 171386.7397261319,32010.520548049717 172323.0684931507,32010.520548049717 172323.0684931507,32396.273972916275 172650.9589042141,32438.35616438356 173345.31506870218,32522.520548049717 173345.31506870218,32810.082191989844 173345.31506870218,33034.52054836325 173795.94520558396,33034.52054836325 173895.8904109589,33034.52054836325 174364.05479452055,33034.52054836325 174364.05479452055,33251.94520527043 174364.05479452055,33546.52054836325 175133.8082192826,33546.52054836325 175370.5205479452,33546.52054836325 175898.301369863,33546.52054836325 175898.301369863,33841.09589041096 175898.301369863,34051.50684952409 176459.39726027398,34051.50684952409 176827.61643846068,34051.50684952409 177939.2876713374,34051.50684952409 177939.2876713374,34437.260274390654 178321.53424657535,34486.3561646971 178961.53424667986,34563.50684952409 178961.53424667986,34808.98630126535 178961.53424667986,34879.12328767123 179661.15068493152,35012.38356195737 181121.75342465754,32620.712328976148 181109.4794521593,32543.561643731104 181028.82191791272,32473.42465774327 181095.45205489904,32382.246575656 181465.42465753425,32515.506849210557 181404.05479452055,32620.712328976148 181284.82191791272,32606.684931611362 181200.65753424657,32662.794520443433 179775.12328767125,35033.424657325224 179936.43835616438,35089.534246784366 179764.60273983053,35468.273972498224 179983.78082202232,35587.50684941958 180120.54794520547,35657.643835511924 180139.83561664738,35741.80821949162 179987.2876712329,36036.383561539325 179969.75342476205,36162.630137299835 179982.02739726027,36267.835616751894 180018.84931506848,36366.02739767832 180108.27397270725,36541.36986343175 180124.05479462506,36590.46575373819 180069.698630137,36639.56164394013 179975.01369863015,36674.630137299835 179813.698630137,36709.69863003247 179587.50684931508,36723.726027292745 179463.01369863015,36744.76712339219 179394.63013719532,36779.835616751894 179350.79452075696,36828.93150705834 179308.7123287671,36920.109589145606 179243.83561643836,36990.24657544698 179136.87671243327,37025.31506880669 178982.57534246575,37046.35616427905 178847.56164383562,37053.36986343175 178502.13698640588,37060.383561539325 178386.41095911313,37067.39726069202 178244.38356164383,37095.45205489903 178109.3698630137,37123.506849106045 177997.15068503603,37109.47945184577 177849.86301369863,37067.39726069202 177781.4794520548,37025.31506880669 177744.65753424657,36920.109589145606 177692.05479462506,36807.890410958906 177634.19178082192,36723.726027292745 177541.2602739726,36660.602739726026 177350.13698630137,36618.52054825874 177183.56164383562,36562.4109587996 177020.49315068492,36499.287671546415 176860.9315068493,36415.12328798477 176775.01369863015,36394.08219188533 176650.5205479452,36373.0410957859 176487.45205479453,36373.0410957859 176361.20547955658,36352.00000041805 176241.97260273973,36309.91780821918 176156.05479462506,36239.78082223135 176038.57534257026,36169.643835511924 175964.9315068493,36148.60274003956 175868.49315068492,36141.58904130491 175787.83561643836,36162.630137299835 175642.301369863,36218.73972613191 175473.97260273973,36323.94520579299 175175.8904109589,36527.342466171474 174963.72602739726,36688.65753456011 174863.78082202232,36793.86301401217 174751.56164383562,37018.30137007204 174635.83561654287,37228.712329185175 174511.34246575343,37446.13698640588 174428.9315068493,37558.35616459259 174327.23287671234,37663.56164362659 174246.57534246575,37775.7808218133 174162.41095900862,37873.97260273973 174048.43835616438,38007.23287702587 173859.0684931507,38189.589040886865 173608.3287673323,38385.97260273973 173420.7123287671,38575.34246575343 173310.24657534246,38701.589040886865 173210.301369863,38876.93150664029 173071.7808219178,39136.43835637341 172831.56164394013,39459.06849335971 172707.0684932552,39578.301369653986 172547.5068494196,39662.46575363368 172321.31506859767,39725.5890412004 172224.87671243327,39725.5890412004 172033.75342465754,39774.68493182039 171921.53424657535,39816.767123287675 171714.6301370908,39964.05479452055 171414.79452065245,40188.493150893955 171128.9863014744,40426.9589042141 170744.98630136985,40749.58904151394 170531.0684932552,40924.93150726736 170350.46575342465,41107.28767112837 170222.46575342465,41261.58904151394 170175.12328767125,41352.76712360121 170164.60273983053,41429.91780811467 170176.87671232875,41570.191780821915 170199.67123287672,41906.849315068495 170201.42465763877,42187.39726016946 170148.8219178082,42474.958904423125 170094.46575342465,42566.1369866149 169955.94520547945,42713.424657429736 169801.64383572096,42818.63013719532 169729.75342465754,42902.794520861484 169650.84931506848,43043.068493255196 169538.6301370908,43155.2876714419 169254.57534246575,43421.80821896906 169170.4109589041,43512.9863016834 169056.4383562689,43765.47945195028 168912.65753424657,44060.054794416035 168851.2876713374,44207.34246596245 168800.4383562689,44410.73972592288 168714.5205479452,44621.15068503602 168607.56164383562,44866.63013709081 168440.9863014744,45098.082191989844 168170.9589042141,45371.6164386697 167793.97260273973,45708.27397291628 167474.84931506848,46781.36986280468 167341.5890410959,47244.273972498224 167288.98630136985,47482.73972581837 167204.8219178082,47784.32876701878 167120.6575344556,48001.75342497107 167031.23287681685,48156.05479431152 166904.98630136985,48310.35616427905 166729.64383561644,48520.76712307864 166431.56164394013,48836.383561539325 166189.5890410959,49088.87671243328 165986.19178092643,49271.232876712325 165803.83561654287,49460.602739726026 165581.15068493152,49720.109589145606 165330.41095900862,49909.47945184577 165176.1095891456,49972.602739726026 165030.57534257026,49979.61643856519 164876.27397270725,49979.61643856519 164299.3972603785,49916.49315099847 162840.54794520547,49776.2191781867 162460.05479452055,49734.136986092344 161855.12328767125,49671.013698525625 161223.89041106342,49607.890410958906 160910.02739736479,49586.84931485947 160696.1095891456,49320.32876701878 160538.301369863,49144.98630126535 160319.12328767125,48976.65753466463 160110.46575342465,48829.36986311821 159882.5205479452,48640.00000041805 159772.05479452055,48513.75342497107 159696.65753435108,48366.46575373819 159644.05479462506,48191.12328798477 159577.42465753425,47994.73972581837 159452.9315068493,47763.28767165093 159358.24657534246,47545.86301401217 159256.54794520547,47286.3561646971 159121.53424657535,46795.397260378486 159058.4109589041,46620.05479462506 158893.5890412004,46213.26027407712 158674.41095900862,45869.58904099138 158534.13698640588,45764.38356164384 158537.64383561644,45638.136986196856 158572.71232897614,45063.01369863014 158607.78082202232,43716.383562061885 159212.7123287671,43260.49315047591 160867.94520547945,42671.342465648915 161353.64383572096,42467.94520568848 162051.50684931508,41633.31506838864 162354.849315173,41240.5479454145 161607.8904109589,40553.20547934754 161336.1095890411,40398.90411000709 160745.20547945207,40069.26027386809 158884.82191791272,39094.356164488076 158274.6301369863,38792.76712360121 157696.00000020902,38491.17808208727 156135.45205479453,38456.10958945914 155449.86301369863,38428.05479483408 154529.31506849316,38364.93150664029 153985.75342465754,38350.90410938002 153244.05479462506,38350.90410938002 152712.76712339217,38343.89041127244 152540.9315068493,38280.76712370572 151871.12328777576,38021.26027428614 150741.91780821918,37579.39726069202 150017.75342465754,37277.80821907357 148806.13698630137,36786.84931485947 148306.41095900862,36583.4520545855 147338.5205479452,36618.52054825874 146598.57534246575,36646.57534246575 146040.9863014744,36653.58904130491 146225.09589051548,37228.712329185175 146375.8904109589,37656.547945519014 146456.54794520547,37958.13698640588 146586.301369863,38280.76712370572 146751.12328777576,38638.465753320146 146952.76712328766,38624.43835605987 147114.08219178082,38610.410959113135 147350.79452075696,38575.34246575343 147512.1095890411,38568.3287672278 147589.26027407713,38589.3698630137 147692.71232887162,38638.465753320146 147776.87671232875,38701.589040886865 147845.26027407713,38757.698630346014 148050.41095900862,38771.72602760629 148267.83561643836,38806.794520965996 148341.4794520548,38827.83561633385 148409.86301380314,38883.94520579299 148439.67123287672,38933.041096099434 148444.9315069538,39017.20547934754 148425.64383561644,39122.410959113135 148385.31506849316,39199.56164394013 148283.61643846068,39297.75342486656 148124.05479462506,39424.000000313536 147932.9315069538,39578.301369653986 147787.3972603785,39718.57534236124 147708.49315078944,39823.780822126835 147620.82191791272,39971.068493255196 147461.2602739726,40195.506849628604 147319.23287681685,40384.876712746816 147580.49315068492,40560.21917850024 147806.68493150684,40721.53424688888 148083.72602739726,40854.79452054795 148232.76712339217,40910.90411000709 148353.75342465754,40967.01369842111 148553.64383572096,41093.26027386809 148751.78082202232,41219.50684931507 148916.60273972602,41275.61643877421 149170.84931506848,41338.73972634094 149286.57534257026,41380.82191780822 149346.19178082192,41401.863013907656 149409.31506859767,41464.986301474375 149430.35616448807,41514.082192094356 149453.15068503603,41612.27397302079 149468.9315069538,41773.589041409425 149489.97260284424,41906.849315068495 149532.05479452055,41991.01369873465 149610.95890410958,42082.191780821915 149709.15068503603,42201.42465784778 149819.61643846068,42334.684931402335 149912.54794530998,42439.89041116793 150115.94520547945,42615.23287692136 150317.5890410959,42797.58904109589 150405.2602739726,42881.75342476205 150487.67123287672,42993.97260294875 150606.90410969354,43127.232876816845 150861.15068493152,43428.82191812176 150966.35616448807,43555.06849356873 151087.34246575343,43660.27397260274 151211.83561643836,43772.49315047591 151299.50684931508,43877.698630450526 151366.13698630137,43982.90410990258 151422.24657534246,44081.095890829005 151511.67123287672,44256.43835658243 151580.05479462506,44354.63013709081 151753.64383572096,44565.041096203946 151536.2191781867,44691.28767133739 151322.301369863,44845.589041409425 150542.02739736479,45427.72602739726 150189.5890410959,45701.260273763575 149726.68493150684,46023.89041106342 149468.9315069538,46213.26027407712 148928.87671253778,46591.999999790976 148634.30136996752,46795.397260378486 148143.34246575343,47139.06849346422 147922.4109589041,47279.3424655444 147336.76712328766,47672.109589145606 146910.68493161135,47952.657534351085 146645.91780821918,48156.05479431152 146347.83561654287,48008.76712307864 145269.4794520548,47601.97260284424 144871.45205489904,47433.643835511924 144206.90410969354,47146.08219188533 143745.75342465754,46998.79452075697 143310.90410958903,46858.52054825874 143060.16438366615,46795.397260378486 142672.65753435108,46753.31506828413 142258.84931506848,46697.20547987011 141859.0684931507,46648.10958925012 141573.2602739726,46591.999999790976 141171.72602739726,46514.84931496398 140942.02739736479,46479.78082191781 140563.2876713374,46444.71232887163 140238.90410958903,46451.72602739726 139479.67123298123,46472.7671234967 139572.60273972602,46809.42465763876 139742.68493161135,47335.45205489903 139921.53424657535,47959.6712327722 140035.5068494196,48387.50684941958 139791.7808219178,48864.43835647792 139418.301369863,49593.86301401217 139241.2054796611,49937.53424636632 139078.13698640588,50190.02739757381 138883.50684931508,50414.465753320146 138511.7808219178,50765.15068482699 138126.02739726027,51066.73972634094 137817.42465753425,51298.19178092643 137096.76712328766,51185.97260273973 136698.7397262364,51129.86301359412 136214.79452065245,51045.698630346014 136018.41095900862,50863.34246575343 134796.27397260274,51157.917808532715 134263.23287681685,51319.23287702587 133598.68493161135,51487.56164362659 132786.84931506848,51690.958903900566 132267.83561643836,51824.2191781867 131896.1095891456,51908.38356185286 131720.76712339217,51761.09589061998 131410.4109589041,51466.52054784069 131079.01369873466,51157.917808532715 130977.31506859766,51024.65753424657 130433.75342465754,51403.39726058751 130125.1506849315,51592.76712360121 129711.34246575342,51810.19178092643 129323.83561643836,52034.630137299835 129185.31506849315,52118.794520861484 128890.7397260274,52378.301369653986 128478.68493161137,52757.04109599492 128306.8493150685,52918.35616417454 128187.61643835617,52967.45205479452 127747.50684941959,53128.767123287675 127314.4109589041,53255.01369842111 126425.42465763875,53465.42465753425 125981.80821917808,53563.616438460675 125366.35616448807,53689.863013907656 124743.89041106342,53837.15068514053 124074.08219198984,54019.50684931507 124184.54794520549,54257.972602635215 124375.67123287672,54524.49315078944 124510.68493161137,54685.8082192826 124680.76712328767,54840.10958935463 124780.71232887164,54931.28767112837 124375.67123287672,55415.23287692136 124112.65753424658,55730.84931538203 123858.4109589041,56032.438356268896 123025.53424657535,55955.2876714419 122499.50684931508,55892.16438387518 121934.90410958904,55836.054794416035 121533.3698630137,55786.958904423125 121244.05479462506,56137.64383592997 120817.97260273973,56656.6575344556 120388.38356164383,57168.6575344556 120116.60273972603,57477.260273763575 119867.61643835617,57771.83561654287 119185.53424667986,57547.397260483 118634.95890410959,57407.12328808928 118184.3287672278,57266.84931496398 117977.42465753424,57196.71232897615 117866.95890410959,57140.60273983054 117710.90410958904,57056.43835658243 117365.47945215931,56846.0273974693 116751.78082202232,56446.24657534246 116046.90410958904,56032.438356268896 115724.27397260274,55822.02739715576 115303.45205479451,55555.506849628604 114777.42465753424,55218.849315068495 114398.68493161137,56291.94520568848 114358.35616438356,56425.20547924303 114351.34246575342,56523.39726016946 114356.60273983055,56691.72602781531 114368.87671232877,56923.178081982755 114344.32876712328,57133.589041409425 114321.53424657535,57231.78082233586 114268.93150695383,57308.93150716285 114160.21917808219,57400.10958893658 113977.86301369863,57512.32876712329 113742.90410969355,57652.602739517 113558.79452065246,57806.90410990258 113499.17808219178,57898.082191989844 113471.12328777574,57996.27397291628 113458.8493150685,58199.67123287671 113479.89041106342,58459.17808260983 113548.27397260274,58915.068493150684 113597.36986322272,59293.80821949162 113683.28767133738,59833.86301401217 113779.72602750178,60380.931506744804 113927.01369863014,60963.06849346422 113700.82191780822,60984.10958883207 113348.38356174834,61054.24657555149 112971.39726027397,61131.39726006495 112841.64383561644,61173.47945215931 112939.83561664738,61545.20547945205 113087.12328767123,62092.27397281177 113150.24657544697,62344.76712339219 111530.08219178082,62499.06849304617 110732.27397270725,62555.17808250532 109781.91780832369,62632.328767332314 109517.1506849315,62618.30137007204 109276.93150695383,62583.232876712325 108957.8082192826,62478.02739767832 108649.20547955656,62330.73972613191 108221.3698630137,62113.31506880669 107640.98630147438,62632.328767332314 106687.12328767123,63382.79452065246 106375.01369863014,63621.26027428614 106089.20547945205,63845.698630346014 106543.34246575342,64266.52054784069 106797.5890410959,64497.97260305326 107181.58904120041,64708.38356185286 107544.54794520549,64883.72602760629 107611.17808229629,64925.80821907357 107658.52054794521,64995.94520579299 107683.06849315068,65094.1369866149 107679.56164404465,65185.31506880669 107591.89041116793,65500.93150695383 107474.41095900862,65914.7397260274 107455.12328767123,66174.24657576051 107407.78082202232,66574.02739757381 107407.78082202232,66826.52054815424 107511.23287681684,67289.42465784779 107583.12328777574,67576.98630178791 107283.28767133738,67605.04109599492 107104.43835616438,67647.12328746221 106836.16438356164,67745.31506838863 106404.82191780822,67878.57534267478 106208.43835626889,67927.67123329476 105901.58904120041,67990.79452086148 105512.32876712328,68060.93150716285 105231.78082202232,68131.0684932552 104928.43835616438,68229.26027418162 104356.82191780822,68411.6164386697 104374.35616438356,68467.72602750178 104835.50684941959,69042.84931538203 105282.63013709082,69610.95890410959 105405.3698631182,69751.2328765033 105456.2191781867,69954.63013709082 105454.46575342465,70017.75342507559 105435.17808229629,70087.89041074988 105352.76712328767,70333.36986322272 105251.06849315068,70663.01369863014 105233.53424657535,70754.1917807174 105228.27397260274,70838.35616438356 105230.02739736479,70964.60273951701 105273.86301380314,71111.89041106342 105310.68493161137,71196.05479472957 105426.4109589041,71329.31506828412 105561.42465753424,71455.56164373111 105829.6986302415,71743.12328798477 105961.20547955656,71890.4109589041 105982.24657544697,72858.3013697585 105982.24657544697,73103.78082191781 105975.23287681684,73307.17808219178 105957.69863013699,73447.45205489903 105933.15068503602,73643.83561643836 105917.3698631182,73980.49315068492 105913.86301369863,74148.82191791273 105889.31506859766,74471.45205458549 105838.46575363369,74906.30137007203 105780.60273972603,75397.2602739726 105717.47945205479,75649.75342455303 105610.52054804972,76000.43835605987 105410.6301369863,76617.64383572096 105226.52054794521,77101.58904088687 105636.82191780822,77045.47945247285 106026.08219188533,76982.35616459258 106443.39726037848,76891.17808208727 106753.75342465754,76828.05479483408 107155.28767123287,77227.83561633385 108021.47945215931,78055.45205510806 108405.47945205479,78441.20547934754 109575.01369863014,79605.47945205479 109745.09589051547,79766.79452054795 109880.1095890411,79921.09589020193 109980.05479462506,80054.35616448807 110590.24657534246,80061.36986290918 110891.83561654287,80068.3835614348 111135.56164383562,80068.3835614348 111419.61643846068,80033.31506838863 111780.82191780822,79991.23287692135 112008.76712328767,79956.16438356164 112398.02739736479,79850.95890452764 112845.1506849315,79731.72602718824 113085.3698631182,79661.58904151394 113351.8904109589,79605.47945205479 113737.64383561644,79521.31506838863 114318.02739736479,79409.09589051547 114468.82191780822,79780.82191780822 114537.20547955656,79907.06849294166 114624.87671243328,80061.36986290918 114726.57534246576,80313.86301390766 114824.7671234967,80524.27397291627 114873.86301380314,80650.52054804972 114898.4109589041,80762.73972592289 114931.72602750178,80959.12328746221 114956.27397281176,81106.41095900862 114984.3287672278,81197.5890410959 114968.54794531,81281.75342476205 114926.46575352916,81344.87671232877 114821.2602739726,81450.08219167631 114631.8904109589,81618.41095900862 114507.39726027397,81709.5890410959 114400.43835626889,81730.63013719533 114275.94520558396,81709.5890410959 114062.02739726027,81674.52054773617 113890.19178082192,81660.4931504759 113730.6301369863,81653.47945236834 113616.65753435109,81660.4931504759 113437.80821917808,81681.53424688888 113225.64383561644,81695.56164383562 113066.08219178082,81688.54794531 112969.64383561644,81681.53424688888 112852.16438377067,81653.47945236834 112718.90410969355,81618.41095900862 112547.06849315068,81597.36986290918 112457.64383582547,81604.38356206188 112312.1095890411,81646.46575321563 112206.90410969355,81688.54794531 112017.53424667986,81765.69863055504 111914.08219178082,81807.78082202232 111722.95890410959,81828.82191812176 111509.04109589041,81842.84931538203 111258.30136996752,81884.93150684932 111125.04109589041,81934.02739715576 111368.76712339219,82228.60273983055 110884.82191791273,82607.34246596244 110281.64383561644,83084.27397291627 109415.45205479451,83778.63013677728 109005.1506849315,84115.28767102385 108184.54794520549,84781.58904099138 107770.7397260274,85111.23287713037 106778.30136996752,85917.80821917808 106345.20547945205,86268.49315068492 105543.89041106342,86913.75342497107 105203.72602739726,87187.28767154641 104765.3698630137,87530.95890431861 104623.34246585793,87643.17808250531 104577.75342465754,87720.32876701877 104405.91780832369,88071.01369852562 104053.47945215931,88821.47945215931 103857.09589051547,89242.30136996752 103588.82191780822,89810.41095911313 103508.16438356164,89971.72602760629 103397.6986302415,90210.19178092643 103318.79452054795,90350.46575332014 103281.97260273973,90476.71232876713 103271.45205489903,90624.00000031354 103301.26027407711,90995.72602750178 103315.28767133738,91220.16438387518 103343.34246575342,91535.78082212684 103357.3698630137,91802.30136996752 103320.54794520549,91879.45205479451 103218.8493150685,91935.56164425367 103101.3698630137,91956.60273962152 102866.4109589041,91977.64383572096 102536.76712328767,92005.69862992797 102286.02739736479,92019.72602718824 102128.21917808219,92047.78082202232 102019.50684931508,92082.84931538203 101956.38356174834,92145.97260263521 101847.67123298123,92279.23287660781 101740.71232876713,92454.57534236125 101661.80821917808,92622.90410990258 101558.35616438356,92721.09589020193 101393.53424657535,92833.31506838863 101230.46575342465,92959.56164414916 100976.21917808219,93183.99999989549 100842.95890410959,93352.32876754133 100623.78082191781,93555.72602750178 100429.1506849315,93773.15068472248 100227.5068495241,94018.63013719533 100080.2191781867,94179.94520568848 99962.73972613191,94306.19178113545 99855.78082191781,94467.50684962861 99747.06849315068,94677.91780832369 99538.41095900862,95042.63013719533 99475.28767123287,95161.86301348961 99342.02739736479,95435.39726016945 99214.02739726027,95687.89041074988 99061.47945205479,95975.45205469 98958.02739726027,96115.7260277108 98679.23287671233,96340.16438345713 98386.41095911313,96543.56164373111 98009.42465753424,96796.05479472957 97756.93150695383,96971.39726048299 97613.1506849315,97062.57534257027 97528.98630147438,97125.69863013699 97476.38356164383,97167.78082223135 97372.93150684932,97279.99999979098 97204.60273972603,97483.39726037848 97088.87671232877,97609.64383592998 96918.79452054795,97777.9726025307 96832.87671232877,97897.2054798701 96806.57534257027,97981.36986280467 96794.30136986301,98121.64383551193 96834.6301369863,98282.95890400508 96864.43835626889,98444.27397249822 96860.93150684932,98773.91780863723 96860.93150684932,99194.73972581838 96846.90410958904,99734.79452033892 96878.46575342465,99896.10958883207 96899.50684931508,100029.3698631182 97009.97260273973,100246.79452033892 97122.19178092643,100387.06849304617 97253.6986302415,100527.34246617147 97386.95890410959,100639.56164394013 97516.71232887164,100730.73972613191 97779.72602750178,100927.12328756672 98239.12328777574,101179.6164385652 98989.5890410959,101551.34246606696 99424.43835616438,101754.73972644545 99589.26027407711,101859.94520547945 99762.8493150685,102028.27397270725 99953.97260273973,102357.91780853271 100201.20547945205,102757.69863034601 100309.91780821918,103017.20547934754 100337.97260273973,103311.78082212684 100330.95890410959,103452.05479452055 100078.46575342465,103816.76712328767 99854.02739736479,104090.30136965399 99757.58904120041,104342.79452054795 99696.21917808219,104567.23287660781 99627.83561654287,104945.97260263521 99489.31506859766,105345.75342444851 99261.3698631182,105703.45205510806 99108.82191791273,106054.1369866149 99015.8904109589,106376.76712360121 98777.42465753424,106755.50684962861 98493.3698631182,107267.50684962861 98219.83561643836,107625.20547924303 97984.87671232877,107884.71232866262 97607.8904109589,108214.35616469709 97302.79452065246,108487.89041074988 97074.8493150685,108705.31506859766 96636.49315068492,109210.30137017654 96434.849315173,109462.79452044344 96334.90410958904,109659.17808260983 96194.63013719533,109939.72602739726 96005.2602739726,110402.63013677728 95770.30136996752,110830.46575342465 95372.27397260274,111461.69863045053 95165.3698630137,111735.23287702586 95086.46575342465,111931.61643825166 94925.1506849315,112618.95890400508 94823.45205479451,112941.58904130492 94697.20547945205,113362.41095879959 94560.43835616438,113783.23287671233 94464,113951.56164394013 94328.98630147438,114133.91780821918 94146.63013709082,114295.23287702586 93866.08219178082,114547.72602729275 93506.6301369863,114912.43835605987 93301.47945226383,115115.83561633385 92913.97260284424,115410.41095911313 92231.8904109589,115887.34246575342 91909.2602739726,116125.80821907357 91705.86301369863,116287.12328788025 91256.98630136986,116658.84931548654 90659.06849315068,117093.69862992797 90169.86301369863,117423.34246606696 89729.75342465754,117675.83561664738 89806.90410969355,117752.98630147438 90224.2191781867,118068.60273962152 90787.0684932552,118496.43835595535 91120.21917808219,118727.89041116793 91414.79452065246,118917.26027418162 91832.1095891456,119120.65753414207 92535.23287671233,119429.26027418162 93003.39726027397,119674.73972592289 93578.52054804972,119955.2876714419 94125.58904120041,120256.8767126423 94963.72602739726,120726.79452044344 95696.65753435109,121112.54794499645 96547.06849315068,121582.46575384271 97278.24657534246,122003.28767102385 98004.16438366615,122262.79452044344 99059.72602739726,122641.53424647084 101107.72602739726,123427.06849315068 102003.72602739726,123735.67123319025 102764.71232876713,124016.21917797768 102850.6301369863,124114.41095921764 102890.95890410959,124373.91780863723 102964.60273983055,124668.49315068492 102999.67123287672,124871.89041127244 102997.91780821918,125040.21917829121 102966.35616448807,125243.61643825166 102985.64383561644,125909.91780821918 103031.23287681684,126793.64383582547 103104.87671243328,127417.86301401217 103225.86301369863,127754.52054784069 103537.97260273973,128547.06849335971 104155.17808219178,129970.84931538203 104486.57534257027,130707.28767112836 104148.16438366615,130784.43835626889 103723.83561643836,130910.68493140234 103145.20547945205,131107.06849294167 102799.78082191781,131261.3698629092 102310.57534246576,131548.93150716287 101674.08219198984,131906.63013688178 100569.42465763875,132229.26027418164 99706.73972613191,132383.56164383562 98510.90410958904,132678.1369866149 97655.23287681684,132881.53424688888 96128.00000010451,133295.34246596246 95216.21917808219,133519.78082202232 94334.24657534246,133744.21917839572 94153.64383572096,133814.3561646971 94020.38356164383,133989.69863045053 93985.31506849315,134122.95890410958 94016.87671243328,134291.2876713374 94074.73972613191,134775.23287650332 94057.20547945205,135069.80821959613 94034.4109589041,135420.49315110297 93978.30136996752,135792.21917797768 93939.72602739726,136072.76712349668 93873.09589041096,136416.43835616438 93797.6986302415,136598.79452075696 93674.95890410959,136682.95890400506 93511.89041106342,136802.19178103094 93308.49315078945,136921.42465763877 93050.73972613191,137026.6301370908 93850.30136986301,138155.83561643836 95021.5890410959,139684.82191759918 95452.93150684932,140238.90410938 97802.52054794521,142286.90410969354 98300.49315068492,142728.76712328766 98907.17808219178,143584.4383562689 99719.01369863014,144734.68493140233 100087.23287681684,145260.7123286626 102012.49315068492,146537.20547924304 103064.54794520549,147448.98630136985 105251.06849315068,149321.64383551193 106215.45205479451,150128.2191782912 108575.56164394013,152295.45205489904 110919.8904109589,154420.60274003955 111480.98630136986,154960.6575345601 112466.4109589041,156300.27397302078 113593.86301369863,157724.05479441604 114940.49315078945,159512.54794499645 115736.54794531,160599.67123287672 116245.04109589041,161728.87671222424 117197.15068503602,163748.82191791272 118017.75342465754,165530.30137007203 119055.78082191781,167655.45205510806 119544.98630136986,168630.35616417453 120418.19178082192,170524.05479441604 120979.28767123287,171737.42465742974 121359.78082191781,172684.27397291627 121826.19178082192,173827.50684921056 122185.64383561644,174521.86301411668 122725.69863013699,175419.61643825166 123285.04109609943,176317.36986311822 123600.65753424658,176913.53424667986 124147.72602739726,178042.73972644543 124428.27397260274,178723.0684930462 124559.78082191781,179017.64383572096 124871.8904109589,179515.61643814715 125131.39726037848,180055.67123298123 125340.05479452055,180679.8904108544 125620.60273983055,181395.28767112838 125955.50684931508,182131.72602718824 126588.49315068492,183162.73972592287 127060.16438366615,183892.16438387518 127614.24657534246,184719.78082202232 127943.89041106342,185322.95890410958 128212.16438356164,185561.42465742974 128480.43835616438,185813.91780801016 129045.04109589041,186339.94520527043 129488.65753424658,186753.75342465754 128883.72602739726,186943.12328798478 127168.87671232877,187490.1917807174 126562.19178082192,187686.5753428838 124046.02739726027,188331.83561643836 122785.31506849315,188633.42465732523 121608.76712328767,188878.90410979805 119706.30136986301,189285.69863003248 118312.32876712328,189573.26027428615 116067.94520547945,190471.0136985256 114044.49315068492,191270.57534277928 113509.69863034601,191516.05479483408 112227.94520547945,192070.13698671942 109980.05479462506,193073.09589062 108305.53424667986,193823.56164425367 105166.90410958904,195156.16438356164 103860.60273972603,195703.23287692136 101100.71232876713,196958.68493140233 99773.3698631182,197568.8767126423 97280,198627.94520527043 95722.95890410959,199294.24657523795 93475.0684932552,200213.04109620396 92093.3698631182,200774.1369865104 89550.90410969355,201875.28767165093 88379.61643835617,202352.2191782912 85405.80821917808,203593.64383582547 83927.67123298123,204238.90410938 81848.1095890411,205073.53424667986 81756.93150695383,205508.38356185285 81634.19178082192,206181.6986302415 81237.91780832369,208222.68493140233 81055.56164394013,209239.67123329476 80755.72602750178,210859.83561654287 80617.20547955656,211448.98630136985 79386.30136986301,211982.02739736479 78576.21917808219,212283.6164386697 78265.86301390766,212977.9726025307 77909.91780821918,213167.3424655444 76386.19178092643,213896.76712339217 75276.27397270725,214422.79452065245 74622.24657534246,214745.42465732523 74820.38356164383,215362.63013729983 75174.57534257027,216400.6575345601 75258.7397260274,216660.16438335262 75570.8493150685,217607.01369883918 75847.8904109589,218371.50684973312 76002.19178082192,218792.32876691426 76179.28767123287,219283.28767112838 76326.57534246576,219788.27397270725 76771.94520547945,221085.8082192826 77234.849315173,222404.38356206188 77496.1095891456,223189.9178083237 77978.30136996752,224592.65753435108 78393.86301369863,225799.0136989437 78790.13698640588,226928.2191782912 79118.02739736479,227868.05479462506 79347.72602739726,228485.2602739726 79119.78082202232,228520.32876701877 77617.09589041096,228835.94520547945 76966.57534246576,228955.17808250533 75562.08219188533,229228.71232918516 74834.4109589041,229354.95890431863 74350.46575342465,229453.150684827 74197.91780821918,229481.2054797656 73619.2876714419,229586.4109587996 72886.35616448807,229726.68493182037 72730.30136986301,229761.75342455303 72388.38356164383,229831.89041127244 72307.72602739726,229502.24657544697 72223.56164394013,229151.56164394013 72195.50684931508,228948.16438335262 72093.80821917808,228471.23287671234 72009.64383572096,228127.56164404465 71911.45205479451,227720.76712307864 71825.53424657535,227363.06849346423 71704.54794531,226682.73972581836 71469.58904120041,225602.63013677727 71371.39726027397,225062.57534257026 71297.75342465754,224655.78082223135 71201.31506849315,224199.89041074988 71082.08219188533,223638.79452044342 71055.78082191781,223533.58904140943 70820.82191791273,222586.73972592287 70689.31506859766,222102.79452086147 70599.89041106342,221766.1369866149 70529.75342465754,221485.58904140943 70421.04109589041,221036.7123286626 70033.53424657535,219718.13698630137 69856.43835626889,219248.21917850024 69603.94520547945,218680.10958935463 69298.849315173,218069.91780853271 69058.63013709082,217635.06849335972 68837.69863013699,217080.9863015789 68637.80821917808,216646.13698640588 68395.83561643836,216141.15068524505 68283.61643846068,215867.6164385652 68245.04109589041,215769.42465763877 68138.08219188533,215446.7945203389 68120.54794520549,215397.69863003248 68038.13698630137,215103.12328798478 67980.27397260274,214850.63013740434 67762.8493150685,213938.8493152775 67626.08219188533,213384.76712339217 67371.83561654287,212346.7397262364 67357.8082192826,212297.64383592998 67142.13698630137,211470.0273974693 67061.47945205479,211266.6301370908 66965.04109589041,211056.21917839572 66824.7671234967,210831.78082233586 66603.83561654287,210446.0273974693 66491.61643835617,210249.64383561644 66347.83561654287,209997.1506847225 66198.79452054795,209674.52054773617 66093.58904120041,209407.9999998955 66014.68493150685,209204.60273993504 65695.56164383562,208433.09589020195 65416.767123287675,207773.8082192826 65155.50684931507,207219.72602718824 64855.67123287671,206602.5205478407 64310.356164488076,205522.41095911313 64163.068493255196,205199.7808218133 64052.602739726026,204919.23287702588 64017.534246679854,204828.05479483408 63735.232876712325,204189.80821907357 63705.42465753425,204126.68493182037 63510.79452054795,203691.8356167519 63472.21917808219,203614.68493182037 63314.41095890411,203299.0684930462 63030.356164488076,202723.945205793 63002.30136996753,202674.849315173 62819.945205583965,202268.05479462506 62558.68493150685,201742.02739736479 62004.602739726026,200598.79452075696 61739.83561664738,200086.79452075696 61071.78082191781,198824.32876712328 60501.91780821918,197765.26027407713 60244.16438356164,197239.23287681685 59870.68493150685,196404.60273993504 59553.315068597665,195661.15068503603 59335.89041106342,195198.246575656 59144.76712339219,194770.41095869508 58936.109589041094,194363.61643846068 58204.931506849316,192932.82191822625 57019.616438460675,190723.50684910605 56896.87671232877,190492.0547949386 56775.890410958906,190204.49315099846 56688.21917808219,190015.12328798478 56469.04109589041,189587.28767154642 56237.5890412004,189180.49315068492 55985.09589041096,188633.42465732523 55839.561643835616,188338.8493152775 55699.28767123288,188114.41095921764 55515.1780824008,187847.89041137695 55281.97260273973,187532.27397249822 55143.45205479452,187321.86301411668 54934.79452054795,186978.1917807174 54750.68493150685,186592.4383564779 54578.84931517301,186248.76712349668 54349.150684931505,185792.87671222424 54312.32876712329,185736.76712318315 54149.260273972606,185470.246575656 53861.698630241495,185028.38356195737 53835.397260273974,184972.27397260274 53495.232876712325,184235.83561622933 53123.50684941958,183450.30137017654 52842.95890410959,182734.90410990256 52604.49315068493,182201.86301390766 52506.30136986302,182194.84931506848 52443.17808219178,182152.7671236012 52245.04109589041,181921.31506838865 51918.904109693554,181493.4794520548 51755.83561643836,181283.0684932552 51654.13698630137,181114.7397260274 51517.36986311821,180827.17808208728 51377.09589041096,180469.47945236834 51229.808219178085,180139.83561633385 51121.09589041096,179908.38356185285 51001.86301369863,179683.945205793 50951.01369863014,179606.79452096598 50824.7671234967,179424.43835605987 50772.16438366615,179340.2739723937 50621.3698630137,179080.7671237057 50395.17808219178,178723.0684930462 50261.91780832369,178589.80821907357 50261.91780832369,178533.698630346 50181.26027407712,178421.4794521593 49998.904109693554,178190.0273975738 49916.49315078944,178056.76712339217 49811.28767123288,177839.34246606697 49749.91780832369,177692.0547949386 49700.82191780822,177572.82191759918 49634.191780821915,177495.6712327722 49486.904109693554,177369.42465763877 49376.438356268896,177271.23287671234 49301.04109589041,177166.02739767832 49222.13698640588,177053.80821949162 49104.65753424657,176843.3972603785 48938.08219188533,176513.75342497107 48725.91780832369,176036.82191791272 48661.04109599492,175854.46575342465 48624.2191781867,175700.16438377067 48590.90410958904,175573.91780863723 48569.86301369863,175524.82191801723 48534.79452054795,175468.7123285581 48455.89041106342,175377.53424678437 48326.13698651039,175223.2328771304 48217.42465753425,175068.9315067448 48187.61643835616,175012.82191801723 48143.78082191781,174935.67123319025 47938.63013709081,174620.05479462506 47852.71232876712,174409.64383592998 47756.27397281177,174157.15068524505 47705.42465753425,174058.95890442314 47652.82191791273,173953.75342465754 47198.68493161136,173154.1917807174 46942.68493161136,172705.31506859767 46804.16438366615,172459.83561654287 46686.68493150685,172242.41095932215 46611.28767123288,172109.15068503603 46388.60273983054,171681.31506870218 46176.438356268896,171239.45205469002 45994.08219188533,170867.72602750178 45913.42465763876,170734.46575321563 45729.31506849315,170524.05479441604 45483.83561654287,170250.5205480497 45205.04109599492,169962.95890452765 44952.54794520548,169717.4794520548 44836.82191780822,169577.2054796611 44749.150684931505,169436.93150726738 44586.08219178082,169149.36986332724 44394.9589042141,168735.56164425367 44244.16438356164,168349.8082193871 44149.479452054795,168090.301369654 44019.72602739726,167830.79452086147 43916.27397260274,167627.39726027398 43793.53424657534,167360.87671243327 43616.438356164384,166926.02739726027 43476.16438356164,166687.5616436266 43388.49315068493,166484.16438366615 43307.83561643836,166252.71232908065 43272.767123287675,166133.4794521593 43207.890410958906,166007.23287702588 43114.9589042141,165831.89041127244 43006.24657544698,165586.4109587996 42816.87671243328,165228.71232918516 42606.46575342466,164856.9863015789 42536.32876712329,164709.69863003248 42459.17808229629,164527.34246617148 42338.191780821915,164120.54794520547 42020.82191791273,163159.6712327722 41906.849315068495,162794.95890400506 41801.64383572095,162619.61643825166 41696.438356164384,162458.3013697585 41638.575342570264,162318.02739705125 41533.3698630137,161890.1917807174 41422.90410958904,161553.53424647084 41201.97260284424,160950.35616438356 41030.13698630137,160557.58904140943 40958.24657534246,160375.23287650332 40919.67123287671,160234.95890442314 40842.52054804972,160010.5205480497 40791.67123298122,159744.00000020902 40779.397260273974,159694.90410990256 40556.71232876712,159694.90410990256 40556.71232876712,159098.73972592287 40502.356164383564,158979.5068496286 40135.89041106342,158348.27397260274 39960.54794530999,158039.67123329476 39830.79452054795,157794.19178082192 39732.60273983054,157597.80821896906 39688.76712339219,157401.4246578478 39620.38356164384,157092.8219178082 39559.01369883916,156784.21917839572 39511.67123287671,156601.86301390766 39427.50684952409,156356.3835614348 39308.273972707255,156054.79452054793 39215.34246585794,155760.21917850024 39171.50684941958,155514.7397260274 39090.84931517301,155269.2602738681 38996.16438366615,155051.83561633385 38854.13698630137,154792.32876691426 38733.15068503602,154553.86301359412 38647.232876712325,154336.4383563734 38570.08219188533,154062.90410938 38529.75342465754,153782.35616459258 38452.602739726026,153592.9863014744 38303.561643835616,153256.3287673323 38217.643835616436,153059.94520547945 38151.01369863014,152835.50684910605 38089.64383572095,152540.9315069538 37954.6301369863,151860.60273972602 37831.890410958906,151243.3972603785 37744.21917808219,150934.7945203389 37644.273972707255,150633.20547945207 37470.68493150685,150191.34246585795 37283.068493150684,149665.31506859767 37232.21917808219,149468.9315067448 37212.93150695383,149286.5753428838 37193.643835616436,149118.24657523795 37137.53424657534,148977.9726025307 37074.41095900862,148837.69863045053 36879.78082191781,148444.9315067448 36793.86301369863,148227.50684921056 36685.15068503602,147939.94520527043 36586.95890410959,147589.2602737636 36399.34246575343,147091.2876713374 36220.49315068493,146628.38356195737 36069.69863013698,146130.41095932215 36034.6301369863,145912.9863016834 36067.94520547945,145842.84931538202 36034.6301369863,145653.47945236834 35936.438356164384,145309.80821896906 35861.04109599492,144987.1780822963 35496.3287672278,144236.7123286626 35413.91780832369,143977.2054796611 35263.123287880255,143570.41095869508 35094.79452065246,143156.6027396215 34884.38356164384,142686.68493182037 34738.849315068495,142343.0136984211 34663.45205489903,142181.6986302415 34616.109589041094,141999.34246606697 34567.01369873465,141859.06849335972 34526.68493150685,141669.6986302415 34414.46575352917,141473.3150688067 34368.87671232877,141326.02739726027 34309.260273972606,141150.68493150684 34218.08219188533,140933.26027428615 34072.54794520548,140645.698630346 33842.849315068495,140203.83561633385 33672.767123287675,139846.13698640588 33541.260273972606,139551.56164394013 33450.08219188533,139278.02739767832 33355.397260378486,139046.57534246575 33209.863013803144,138752.00000041805 32978.41095890411,138345.20547945207 32785.534246679854,138071.6712327722 32641.753424657534,137861.26027428615 32559.342465857935,137742.02739736479 32529.534246679854,137664.87671253778 32406.794520547945,137300.16438377067 32278.794520547945,136970.52054825873 32029.80821917808,136458.52054825873 31838.68493150685,136037.69863045053 31573.91780821918,135441.53424647084 31295.123287775747,134824.32876712328 31184.65753435109,134508.71232897614 31060.164383666157,134305.31506859767 30816.438356164384,133653.04109620396 30667.397260378486,133246.24657534246 30558.68493150685,133007.78082202232 30334.246575342466,132586.95890442314 30043.178082191782,132004.82191812174 29892.38356174835,131647.12328746222 29809.972602739726,131450.73972634092 29673.205479556567,131205.2602738681 29503.12328767123,130917.69862992797 29336.54794530999,130595.06849294166 29233.09589051547,130391.6712326677 29155.945205479453,130223.34246606696 29082.301370072037,129998.90411000709 28994.630137195327,129746.41095900862 28901.698630136987,129493.91780811467 28796.493150789443,129255.45205510806 28621.15068503602,128939.83561633385 28286.246575342466,128490.95890390057 28114.41095890411,128252.49315058041 28084.602739726026,128161.31506849315 28070.575342465752,128049.09589030645 28063.561643835616,127943.89041127244 28044.27397270725,127873.75342455303 27963.61643846068,127768.54794551902 27863.671232876713,127698.41095879959 27749.698630136987,127600.21917787316 27674.301369863013,127466.9589042141 27525.260274077114,127137.31506849315 27446.35616438356,126983.01369883916 27278.027397260274,126723.50684910604 27078.136986405883,126414.90410969355 27016.76712328767,126295.6712327722 26908.054794520547,126029.15068524504 26764.27397270725,125755.6164385652 26655.561643940127,125559.23287671233 26341.6986302415,125047.23287702586 26054.13698630137,124577.31506859766 25838.46575363368,124233.64383551193 25370.301369967525,123420.05479462506 25075.72602739726,122908.05479462506 24914.41095890411,122613.47945195028 24802.19178082192,122438.13698619686 24647.890410958906,122227.72602739726 24419.945205583965,121919.12328808928 24328.76712328767,121764.82191770371 24234.08219178082,121596.49315078945 24099.068493255196,121379.06849346422 23897.424657534248,121126.57534225674 23646.684931715874,120867.06849356873 23420.49315068493,120642.63013719533 23245.15068493151,120509.36986290918 23075.068493255196,120397.15068472248 22733.15068503602,120137.64383592998 22424.54794530999,119871.12328746221 22256.219178186704,119688.76712318316 22149.260273972603,119548.4931504759 22026.520547945205,119359.12328746221 21665.31506859766,118706.8493150685 21532.054794520547,118510.46575352916 21363.72602739726,118300.05479483408 21251.50684931507,118166.79452054795 21007.78082202232,117886.24657576051 20839.452054899033,117675.83561664738 20707.945205583965,117479.45205479451 20418.630136986303,116974.46575363369 20215.23287671233,116616.76712328767 20027.61643846068,116238.02739726027 19815.45205479452,115803.17808208727 19755.835616438355,115697.97260305326 19606.794520547945,115501.58904088687 19142.13698630137,114821.26027428613 18789.698630136987,114337.31506849315 18626.630137090815,114084.8219175992 18481.09589051547,113832.3287673323 18300.49315068493,113558.79452033892 17730.630136986303,112135.01369852562 17450.082191885333,111987.7260277108 17194.082191885333,111721.20547976559 17272.986301369863,111391.56164373111 16985.424657534248,110914.63013709082 16782.027397260274,110346.52054836326 16296.3287672278,109539.94520527043 16010.520548049717,109034.95890442313 15495.013698630137,108319.56164414916 15119.78082202232,107555.06849356873 14693.698630136987,107036.05479441604 14464,106622.24657534246 13985.315068493152,106341.6986302415 13171.72602739726,105044.16438356164 12394.958904214101,103921.97260305326 11278.027397260274,102610.41095911313 10513.534246575342,101740.71232908066 9898.082191780823,100786.84931485947 9256.328767123288,99377.0958907245 8228.821917912732,98416.21917797768 7371.397260273972,97672.7671234967 6880.438356164384,96817.0958907245 6450.8493150684935,96270.0273974693 5754.739726027397,95905.31506859766 4692.164383561644,95400.32876712328 4262.575342570266,94944.43835626889 4059.1780822962933,94481.53424688888 3938.1917808219177,93976.54794531 3564.7123287671234,93408.43835595535 2993.095890410959,92854.35616448807 2496.876712328767,91732.16438387518 2202.301369967526,91213.15068514053 1802.5205479452054,90595.94520579299 1455.3424657534247,89845.47945247285 1136.219178186704,89277.36986332723 927.5616438356165,88526.90410969355 519.013698630137,87643.17808250531 203.3972602739726,87229.3698631182 -354.19178071740555,86731.39726006494 -1162.5205479452054,85539.06849346422 -1499.1780821917807,85216.43835616438 -1714.849314963981,85020.05479462506 -1776.2191780821918,84816.65753403756 -2000.6575342465753,84634.30137017654 -2365.3698630136987,84206.4657537382 -2554.739725922885,83996.05479472957 -2831.780821813296,83659.39726048299 -3049.2054792430304,83470.0273974693 -3238.5753424657532,83217.53424647084 -3533.1506848269946,82901.91780801016 -4139.835616333844,82151.45205469 -4443.178082191781,81800.76712318316 -4634.301369863014,81534.24657534246 -4783.342465648912,81260.71232866262 -4999.013698630137,80966.1369866149 -5219.94520537494,80447.12328746221 -5553.095890410959,79843.94520537494 -5724.931506744802,79808.8767126423 -5930.08219167631,79696.65753414207 -6101.917808219178,79542.35616417453 -6275.506849315068,79352.98630147438 -6492.931506744802,78981.26027386809 -6657.753424657534,78749.80821938711 -6813.8082190735695,78588.49315089396 -6987.39726016946,78364.05479452055 -7329.315068493151,77746.84931548654 -7422.246575342466,77753.86301359412 -7578.301369863014,77585.53424667986 -8323.506849315068,76575.5616436266 -8542.684931506848,76182.79452065246 -8839.013698630137,75818.08219219887 -9186.191780612893,75306.08219188533 -9457.972602635215,74702.90410979807 -9817.424657534246,74604.71232887164 -10024.328767123288,74457.42465732522 -10369.75342444851,74036.60274003957 -10545.095890201934,73812.16438366615 -10715.178082087268,73664.87671253779 -10932.602739621516,73405.36986280467 -11235.945205479453,73089.75342497107 -11502.465753320146,72823.23287713037 -11728.657534037551,72493.58904099138 -11953.09589041096,72290.1917807174 -12170.520547945205,71995.61643825166 -12375.671232876712,71925.47945226383 -12547.506849210557,71869.3698631182 -12763.17808219178,71764.16438345713 -13275.17808219178,72037.69863045053 -14171.178082087268,72472.54794562353 -14357.04109589041,72633.86301401217 -14613.04109589041,72689.97260284424 -14795.397260273972,72830.24657523795 -14974.246575237954,72809.20547976559 -15054.904109484529,72711.01369894367 -14900.602739621516,72598.79452075697 -14746.301369758501,72479.56164373111 -14509.589041095891,72360.32876743682 -13887.123287671233,72114.84931496398 -13557.479451950283,71960.54794562353 -13229.589041095891,71743.12328798477 -13304.986301369863,71574.79452075697 -13399.671232876712,71441.53424647084 -13466.301369863013,71231.12328798477 -13873.09589041096,70817.31506859766 -14020.383561643835,70536.76712318316 -14193.972602739726,70305.31506859766 -14402.630136777278,70073.86301348961 -14693.698630136987,69751.2328765033 -14893.589040991377,69526.79452044344 -15058.410958904109,69295.34246596244 -15112.76712318316,69295.34246596244 -15112.76712318316,69225.20547924303 -15430.13698630137,68783.34246564891 -15624.76712318316,68783.34246564891 -15624.76712318316,68516.82191812176 -15658.082191780823,68467.72602750178 -16322.630136986301,67759.34246564891 -16694.35616438356,67464.76712360121 -16959.12328767123,67394.6301368818 -17635.945205479453,67717.26027418162 -17967.342465753423,67871.56164383562 -18258.41095890411,67976.76712360121 -18556.49315068493,68081.97260263521 -18672.219178082192,68046.90410958904 -18721.315068388638,67948.71232866262 -18668.712328767124,67885.58904140943 -17958.575342465752,67591.01369873465 -17627.17808208727,67422.68493140234 -17444.821917808218,67310.46575352916 -17558.79452033892,66938.73972634094 -17886.68493150685,66447.78082202232 -18218.08219167631,65823.56164425367 -18559.999999895488,65269.47945236833 -18980.821917808218,64694.356164488076 -19200,64694.356164488076 -19200,64420.82191822627 -19431.45205469001,64189.3698630137 -19710.246575342466,64189.3698630137 -19710.246575342466,63915.83561633385 -19790.904109589042,63831.67123308573 -20059.17808208727,63663.34246575343 -20579.945205479453,63887.7808218133 -21365.479451950283,64224.43835605987 -21926.575342465752,64512 -22156.273972498228,64575.12328756672 -22279.013698525625,64512 -22273.753424553022,64406.794520965996 -21660.054794416035,64147.287671546415 -20429.15068493151,63565.15068482699 -20472.986301369863,63326.68493182039 -20837.698630136987,62646.35616427905 -21304.109589041094,61987.06849304617 -21553.095890410958,61804.71232887163 -21793.31506849315,61615.342466171474 -21980.931506744804,61376.87671253779 -22107.178082191782,60991.12328798477 -22268.49315068493,60766.68493161136 -22403.506849210557,60430.02739705125 -22741.91780821918,60016.21917797768 -22994.410958695084,59602.41095890411 -23160.986301369863,59406.02739705125 -23807.999999895488,59356.931506744804 -24095.561643835616,59293.80821949162 -24225.31506849315,59160.547945623526 -24691.72602729275,58613.47945195028 -25002.08219178082,58318.90410948453 -25170.41095890411,58290.84931496398 -25698.191780717407,58501.260273763575 -27009.753424657534,59167.561643731104 -27118.465753424658,59202.630136777276 -27234.191780717407,59167.561643731104 -27344.657534246577,59034.30137017655 -27211.39726016946,58872.9863016834 -26259.287671232876,58431.12328798477 -25473.753424553022,58059.397260483 -25682.41095890411,57856.00000010451 -25822.68493140234,57645.589041409425 -26059.397260273974,57287.89041074988 -26299.616438356163,57063.45205469001 -26322.41095890411,56944.21917839573 -26399.561643731104,56824.98630136986 -26455.671232876713,56677.698630450526 -26536.328767123287,56621.58904109589 -26541.58904109589,56488.328767436826 -26631.013698630137,56305.97260294875 -26843.178082191782,55885.15068472248 -27051.835616333843,55569.53424657534 -27293.80821917808,55190.794520861484 -27551.561643835616,54854.1369866149 -28258.19178082192,54145.75342444851 -28451.068493150684,53970.41095869509 -28547.506849210557,53914.30136996753 -28738.630136881788,53914.30136996753 -29148.931506849316,54089.64383572095 -29650.4109587996,54342.13698630137 -30109.80821917808,54566.575342674776 -30779.616438356163,54847.12328746221 -30993.534246575342,54917.26027418163 -31137.31506849315,54889.20547966108 -31267.068493046172,54833.095890201934 -31277.58904109589,54692.82191780822 -31239.013698630137,54608.65753414206 -31109.260273972603,54552.5479454145 -30995.287671128364,54489.42465784778 -30862.027397260274,54433.31506838864 -30453.479452054795,54300.05479483408 -30115.068493150684,54173.8082192826 -29797.698630032475,54026.52054815423 -28777.205479452055,53556.602739621514 -28766.68493140234,53318.13698630137 -28763.178082191782,53114.739726027394 -28821.04109589041,52960.43835637341 -29034.95890410959,52616.767123287675 -29173.479452054795,52532.602739621514 -29329.53424647083,52132.82191822627 -29462.794520443433,51936.43835637341 -29659.17808208727,51831.23287660781 -29773.15068493151,51662.90410938002 -29848.547945100967,51557.698630346014 -30036.164383561645,51319.23287702587 -30230.794520547945,51031.67123308573 -30364.054794520547,50835.28767123288 -30570.958904005078,50617.86301401217 -30697.205479347544,50421.47945215931 -30828.712328662612,50246.13698640588 -31070.68493150685,50042.73972644545 -31093.479452054795,49895.45205489903 -31116.27397260274,49755.17808250532 -31165.369863013697,49664.000000313536 -31293.369863013697,49537.75342455302 -31668.602739621514,49236.16438335262 -31866.739726027397,49109.91780821918 -32094.68493150685,48962.630137299835 -32399.780821813296,48997.69863003247 -32615.45205479452,49116.93150705834 -32790.79452054795,49257.20547945205 -33136.21917797768,49411.506849106045 -33444.82191780822,49600.87671243328 -33835.83561643836,49874.4109587996 -34226.849315068495,50098.84931485947 -34382.90410958904,50140.93150695383 -34533.69863013698,50133.91780821918 -34607.34246575343,50007.67123308573 -34612.602739621514,49860.383561539325 -34456.54794520548,49727.12328756672 -34288.21917808219,49642.95890431861 -34037.479452054795,49551.7808218133 -33732.38356164384,49404.49315099847 -33476.38356164384,49306.30137007204 -33111.67123287671,49194.08219188533 -32789.04109589041,49004.71232887163 -32673.31506849315,48941.58904130491 -32457.643835511924,48843.397260378486 -32315.616438356163,48752.21917829122 -32398.02739715576,48682.0821915718 -32448.876712224253,48548.82191791273 -32526.027397260274,48422.57534277929 -32741.698630032475,47959.6712327722 -32874.95890410959,47756.273972498224 -33115.17808208727,47587.9452058975 -33151.99999989549,47447.6712327722 -33262.46575342466,47335.45205489903 -33497.42465753425,47111.01369894367 -33555.28767123288,46956.7123285581 -33669.26027386809,46584.9863016834 -33748.16438356164,46353.53424647083 -33914.739726027394,46108.05479462506 -34142.68493150685,45848.54794530999 -34342.57534236124,45624.10958925012 -34630.13698630137,45238.356164383564 -35249.095890306446,44677.260273763575 -35743.561643731104,44361.643835616436 -35939.94520547945,44277.47945195028 -36134.57534246575,44347.61643835616 -36308.16438345713,44459.83561654287 -36555.39726016946,44579.06849346422 -36793.86301369863,44656.21917839573 -37009.53424647083,44803.50684921056 -37258.520547945205,44950.794520443436 -37689.86301369863,45147.17808229629 -37993.20547945205,45287.45205469001 -38212.38356164384,45217.315068597665 -38214.136986196856,45048.98630136986 -37724.931506744804,44859.6164386697 -37493.479452054795,44803.50684921056 -37291.83561643836,44733.369863222724 -37156.82191780822,44635.17808229629 -37042.849315068495,44536.98630136986 -36874.520547945205,44438.794520443436 -36590.46575342466,44354.63013709081 -36439.6712327722,44305.53424688888 -36269.58904099138,44200.32876712329 -36095.99999989549,44074.08219167631 -35934.684931402335,43968.876712642304 -35904.87671222426,43723.39726016946 -36071.45205479452,43505.97260294875 -36248.54794510097,43330.63013719532 -36495.78082170878,42965.9178084282 -36727.232876712325,42657.31506838864 -36828.931506849316,42439.89041116793 -37016.54794510097,42278.575342674776 -37218.191780821915,41983.99999989549 -37318.13698630137,41752.5479454145 -37518.02739726027,41584.21917839573 -37660.054794416035,41457.972602635215 -37882.739726027394,41163.39726058751 -38103.6712327722,40917.91780811467 -38203.61643835616,40840.767123287675 -38294.794520443436,40588.273972707255 -38538.520547945205,40363.83561664738 -39303.013698525625,39662.46575363368 -39457.31506838864,39648.43835637341 -39602.84931496398,39522.19178123997 -39776.43835605987,39360.87671243328 -40027.17808208727,39122.410959113135 -40260.383561539325,38947.06849335971 -40791.671232667686,38568.3287672278 -40907.397260273974,38477.15068482699 -40947.726027292745,38350.90410938002 -41170.41095890411,38161.53424636632 -41540.38356164384,37733.698630346014 -42204.931506849316,37193.64383582546 -42576.65753414206,36765.80821949162 -42848.438356164384,36394.08219188533 -43411.28767123288,35889.09589072449 -43712.87671232877,35461.26027428614 -44116.16438345713,35040.43835647792 -44792.98630136986,34311.01369894367 -45543.45205479452,33953.31506828413 -46076.49315058042,33420.273972498224 -46663.890410958906,33034.52054836325 -46667.39726016946,32725.917808010152 -46704.21917797768,32683.835616856406 -47007.561643835616,32375.232876503305 -47316.16438345713,32066.630137090815 -47628.27397260274,31772.05479472957 -48119.232876712325,31358.246575656 -48860.931506849316,30846.246575342466 -49195.83561633385,30600.76712318316 -49788.49315068493,30299.178081982755 -49976.10958893658,30222.02739715576 -50263.67123287671,30039.67123329476 -50740.602739726026,29717.041095994922 -51200,29352.328767541338 -52320.43835595536,28503.671232981225 -53300.602739621514,27788.27397270725 -53668.82191780822,27472.657534560112 -54389.47945195028,27325.369863327236 -54705.09589041096,27023.78082212683 -55210.08219178082,26666.08219178082 -55562.520547945205,26532.82191822627 -57773.58904109589,27416.547945100967 -58036.602739726026,27500.71232908066 -58159.342465648915,27325.369863327236 -57933.15068482699,27107.94520537494 -58127.78082191781,26729.205479347544 -58513.53424657534,26287.342465753423 -58855.45205479452,25943.671232981225 -59323.61643835616,25508.82191791273 -59642.73972592288,24975.780821813296 -59944.32876712329,24604.0547949386 -60165.260273972606,24372.602739726026 -60426.520547945205,24106.082191885333 -60551.01369863014,23846.575342465752 -60540.49315058042,23741.369863431748 -60691.28767123288,23594.082191885333 -60978.84931496398,23271.452054585498 -61252.38356164384,23222.35616427905 -65125.69863013698,23418.73972613191 -65786.73972592289,23425.753424553022 -65777.9726025307,23166.24657555149 -65374.68493150685,23082.082191571797 -64985.42465753425,23082.082191571797 -63740.49315058042,23018.958904005078 -63417.86301369863,22934.79452033892 -63037.3698630137,23011.94520579299 -60552.767123287675,22885.698630032475 -59744.43835605987,22801.534246784366 -59476.16438356164,22717.369863118212 -59162.30136986302,22787.50684941958 -58827.397260273974,22752.43835647792 -58560.87671222426,22506.958904005078 -58362.73972592288,22058.082191571797 -57969.972602635215,21300.60273983054 -57864.767123287675,20690.41095890411 -57549.150684931505,20262.575342570264 -57244.05479452055,19939.94520527043 -56940.71232876712,19554.191780717407 -56714.520547945205,19385.863013803144 -55995.61643825165,18908.93150716285 -55671.232876712325,18754.630137090815 -55509.91780821918,18712.547944996455 -55392.438356164384,18628.383561957373 -54922.52054784069,18516.164383457133 -54643.72602718823,18509.15068503602 -54335.12328767123,18467.068493568735 -54079.12328767123,18396.931506849316 -53924.82191780822,18354.84931538203 -53924.82191780822,18221.58904109589 -53418.08219167631,18228.60273983054 -53195.397260273974,18179.506849628604 -52430.90410948453,18011.178081982755 -51841.75342465754,17807.78082202232 -51082.520547945205,17541.260274181626 -50039.232876712325,17071.34246564891 -49879.67123287671,17099.39726016946 -49849.86301369863,17190.57534267478 -50274.191780821915,17450.08219167631 -50738.849315068495,17674.52054773618 -50986.08219167631,17744.6575344556 -51433.20547945205,17927.013698943672 -51764.602739726026,18053.260274077114 -52143.34246575343,18172.493150475908 -52337.97260273973,18207.561644149155 -52534.35616427905,18256.6575344556 -52721.97260273973,18270.684931715874 -52800.87671232877,18319.78082202232 -52830.68493150685,18516.164383457133 -52846.465753215634,18733.58904140943 -52757.04109589041,18775.671232876713 -52725.479452054795,18894.904109902578 -52485.260273972606,19007.123288089282 -52373.0410957859,18979.068493464223 -52285.36986290919,18979.068493464223 -52202.95890410959,19140.383561957373 -51736.54794510097,19182.465753842705 -51485.808219178085,19161.424657429736 -51147.397260273974,19154.410959217646 -50972.05479452055,19196.493150789443 -50502.136986196856,19252.602739517002 -50177.75342465754,19266.630137090815 -49572.82191780822,19196.493150789443 -48981.91780811467,19126.35616438356 -48859.17808208727,19252.602739517002 -48669.80821907357,19280.65753435109 -48306.849315068495,19378.84931496398 -45662.68493150685,18894.904109902578 -43756.71232876712,18530.191781135454 -41438.68493150685,17927.013698943672 -40947.726027292745,17155.506849628604 -40640.87671222426,16727.67123329476 -40328.767123287675,16236.71232866261 -39701.04109589041,15156.602739621516 -39625.643835616436,15121.53424688888 -38985.643835616436,14812.931506953828 -38603.397260273974,14637.589041200403 -37702.136986196856,14223.780822126833 -37759.99999989549,14132.602739621516 -42189.15068482699,6978.630136777277 -43221.91780821918,5344.438356268895 -44207.34246575343,5519.7808220223205 -44254.68493129782,5239.232876816841 -42096.21917808219,4769.315068702175 -41987.50684931507,5070.904109589041 -42950.13698630137,5309.369862909186 -37596.931506849316,14132.602739621516 -37284.8219175992,14041.424657534246 -36797.36986290919,14300.931506953828 -35873.31506849315,14188.712328767124 -35057.972602635215,13922.191781239966 -34370.63013688179,13417.205479347542 -33874.4109587996,13248.876712433279 -33400.98630136986,13220.821918226267 -32925.80821907357,13080.547945100967 -32229.698630032475,13080.547945100967 -31864.98630126535,12603.616438460676 -31638.794520443433,12302.027397573811 -30094.027397260274,10254.027397364785 -29066.520547840693,8675.945205583965 -27276.273972498228,5512.767123183159 -26376.76712328767,4166.136986614907 -24821.479451950283,2840.547945414504 -24568.986301369863,2595.06849294166 -24546.19178082192,2321.5342468888794 -24597.0410957859,1977.8630135941178 -24725.04109589041,1851.6164384606766 -24823.232876607817,1788.493150893956 -24951.23287671233,1781.4794523683313 -25258.08219178082,1753.4246575342465 -25314.19178082192,1486.9041096935534 -25226.520547945205,1444.821918121756 -25235.287671232876,1339.61643814714 -25119.561643835616,1339.61643814714 -25072.219178082192,1451.835616333844 -24334.02739715576,1437.8082193871066 -24321.753424657534,1136.219178186704 -24563.72602739726,1136.219178186704 -24586.520547945205,911.7808221268327 -24139.397260273974,911.7808221268327 -21991.45205479452,960.8767124332794 -19761.095890410958,701.3698630136986 -18658.19178082192,939.8356163338439 -16908.27397260274,1353.643835407414 -15365.260273972603,1697.3150688066873 -15356.493150684932,2293.4794520547944 -15065.424657534246,2391.671232667688 -14497.315068493152,2581.0410956813867 -14057.205479452055,3338.52054815423 -13846.794520547945,3401.6438360344873 -13322.520547840693,3464.767123601208 -12663.232876712329,3422.684931402337 -12163.506849315068,3282.410958695085 -11486.684931506848,3050.958904527638 -11064.109588936584,2896.657534142063 -10360.986301369863,2644.1643835616437 -9768.328767123288,2377.6438357209504 -8996.821917703706,2153.2054793475427 -8470.794520443433,2048.000000313537 -7974.575342361241,1942.7945205479452 -6699.835616438356,1753.4246575342465 -6792.767123287671,1395.7260275017725 -6873.424657534247,1402.7397260273972 -6896.219178082192,1290.5205478406933 -6769.972602635214,1262.465753633682 -6803.287671232877,1052.054794520548 -6941.808219178082,1073.0958906199835 -7227.6164383561645,1122.1917812399668 -7255.671232876713,967.8904108543918 -6941.808219178082,918.7945208614819 -6941.808219178082,855.6712329812245 -6468.383561434811,855.6712329812245 -6314.082191780822,834.6301372998381 -6294.794520443433,967.8904108543918 -6687.561643626592,1024.0000003135367 -6617.424657534247,1241.4246575342465 -6485.917808219178,1234.4109591131341 -6463.123287566721,1332.6027396215152 -6568.328767123287,1360.657534560112 -6489.424657534247,1704.3287669142633 -6382.465753320145,1704.3287669142633 -6343.890410958904,1907.7260275017725 -5553.095890410959,1816.5479451009671 -5525.041095890411,1725.3698633272354 -5402.301369758501,1662.246575446978 -5353.205479347543,1599.1232878802573 -5302.356164383562,1409.7534248665588 -5204.164383561644,1402.7397260273972 -4927.123287566721,1255.4520551080573 -4864,1311.5616439401288 -4697.424657534247,1304.5479451009671 -4558.904109589041,1339.61643814714 -4413.369863013699,1269.4794523683313 -4343.232876607816,1185.3150688066873 -4213.479451950282,1150.246575446978 -4090.7397260273974,1115.1780820872686 -3957.479451950282,1059.0684933597095 -3801.4246575342468,1002.9589039005646 -3661.150684931507,974.9041096935533 -3527.890410958904,925.80821907357 -3399.8904107498797,918.7945208614819 -3221.041095890411,925.80821907357 -3075.5068493150684,890.7397260273973 -2972.054794520548,890.7397260273973 -2808.986301265351,911.7808221268327 -2633.643835511926,883.7260276062848 -2472.3287670187756,820.6027400395642 -2247.890410854392,729.4246578477834 -2139.178082191781,708.3835618528601 -2042.739725922885,701.3698630136986 -1904.2191779776795,638.2465751334413 -1834.0821917808219,589.1506848269946 -1737.6438356164383,554.0821920943587 -1627.1780820872686,547.0684933597095 -1485.150684931507,540.054794520548 -1344.876712328767,504.9863014743753 -1206.3561643835617,483.9452057929888 -1092.3835615393234,469.91780853271484 -980.1643835616438,434.8493151730054 -820.6027397260274,490.9589039005645 -561.0958904109589,469.91780853271484 -578.6301369863014,238.46575332014527 -1450.0821916763098,301.5890408868659 -1450.0821916763098,119.23287702586553 -1316.8219178082193,105.20547934754254 -1304.5479451009671,224.4383560598713 -883.7260273972603,203.39726058750935 -918.7945205479452,126.24657513344124 -355.9452053749398,91.17808208726856 -341.9178082191781,168.32876722779991 -315.6164383561644,526.027397260274 -77.15068482699459,504.9863014743753 310.3561644880739,497.9726030532628 482.1917808219178,434.8493151730054 690.8493151730054,392.76712360120797 906.5205479452055,364.71232876712327 1041.5342466798547,336.6575342465753 1213.3698630136987,371.7260276062848 1418.5205479452054,483.9452057929888 1504.4383561643835,638.2465751334413 1685.0410960994354,666.3013696539892 1855.123287671233,638.2465751334413 2011.178082296293,547.0684933597095 2186.520548049718,434.8493151730054 2384.6575343510876,343.6712329812246 2584.5479452054797,308.60274003956414 2838.7945206524573,273.53424667985473 3040.4383561643835,203.39726058750935 3257.8630136986303,126.24657513344124 3389.3698630136987,77.15068482699459 3522.6301369863013,147.28767154641346 3673.4246575342468,98.19178092643006 3889.095890515471,70.13698671941887 4099.506849315068,-14.027397260273972 4330.958904109589,-56.10958872755913 4529.095890410959,-119.23287629427975 4769.315068493151,-140.2739723937152 5007.7808220223205,-182.35616427904938 5239.232876712329,-217.4246572207098 5493.479452054795,-252.49315058041924 5665.3150685976625,-252.49315058041924 5826.630137090814,-245.4794521593068 5896.767123287671,-245.4794521593068 6072.109589041096,-252.49315058041924 6303.561643835616,-294.5753420477044 6435.068493150685,-329.64383540741386 6492.931506849315,-350.6849315068493 6727.890410958904,-455.8904105408551 6938.301369863014,-490.9589039005645 7094.356164383562,-547.0684930461726 7125.91780832369,-1101.1506851405313 10503.013698734649,-1002.9589042141013 10490.739726027397,-778.5205478406932 10850.191780821919,-764.493150893956 10936.109589041096,-715.3972602739726 11000.986301369863,-680.3287669142632 11234.191780821919,-582.1369859878331 11330.630136986301,-476.9315069538273 11481.42465763876,-371.72602729274803 11481.42465763876,-203.39725996043583 11679.561644044641,-14.027397260273972 11767.232876921353,77.15068482699459 11881.205479452055,161.31506849315068 12035.50684941958,238.46575332014527 12282.739726027397,343.6712329812246 12437.041095994924,533.0410960994354 12556.273972811765,645.2602742861395 12780.712328871636,624.2191781867041 12971.835616542869,568.1095893546327 13294.465753424658,469.91780853271484 13501.369863013699,378.739726340934 13662.684931506848,287.56164362659194 13813.479452054795,196.3835618528601 13930.95890410959,63.12328756672062 13878.356164488074,-63.12328788025739 13780.164383561643,-196.38356153932335 13916.931506849314,-301.5890412004027 14101.04109589041,-336.6575342465753 14222.0273974693,-406.7945202344084 14369.315068493152,-406.7945202344084 14502.575342465754,-462.9041096935533 14509.589041095891,-701.3698630136986 14628.821917912732,-869.6986299279617 14883.068493150686,-1052.054794520548 15082.958904214101,-1150.246575446978 15230.24657555149,-1150.246575446978 15452.931506849314,-1122.19178092643 15586.19178092643,-1080.1095887275592 15793.09589041096,-1094.1369859878332 15942.13698630137,-1122.19178092643 16170.082191885334,-1185.315068179614 16326.136986510395,-1143.2328766078165 16592.657534246577,-1178.301369967526 16813.5890412004,-1248.4383560598712 16946.849315173007,-1178.301369967526 17141.479452054795,-1213.3698630136987 17420.27397270725,-1248.4383560598712 17949.80821917808,-1318.5753423612412 19138.630137090815,-1339.6164384606766 19762.84931506849,-1325.5890412004026 20185.424657534248,-1276.493150893956 21242.73972613191,-1543.0136984211124 21742.465753424658,-1578.0821917808219 22261.479452054795,-1662.246575446978 22771.72602739726,-1613.1506851405313 23394.19178082192,-1613.1506851405313 23723.835616438355,-1697.3150680751016 23836.05479462506,-1725.3698627001618 24120.10958914561,-1767.4520547945206 24118.35616438356,-1900.7123284535865 24518.13698630137,-1900.7123284535865 24675.945205583965,-1788.493150893956 25168.657534246577,-1746.4109586950851 25743.780821917808,-1893.6986299279617 26147.068493150684,-2005.9178081146658 26601.205479452055,-2174.246575446978 26781.80821917808,-2251.397259960436 26932.60273983054,-2574.027396842225 27144.767123392183,-2552.986301474375 27595.397260273974,-2602.082191467285 28100.383561643837,-2735.3424653353754 30237.80821917808,-3401.6438357209504 30137.86301369863,-3647.1232874622083 30250.082191885333,-3689.2054793475427 30397.369863222724,-3605.041095994923 30583.23287671233,-3689.2054793475427 30674.410959008623,-3520.876712328767 32336.657534246577,-3962.739725609348 32490.95890410959,-3703.2328766078167 34549.479452054795,-3640.109588727559 35175.452055003545,-3135.1232874622083 35366.57534246575,-3008.87671201523 35804.931506849316,-3064.986301474375 35966.24657534246,-3001.863013594118 36145.09589051547,-3071.9999998954877 36232.76712339219,-3191.232876921353 36458.9589042141,-3345.5342465753424 36637.808219178085,-3478.7945202344085 36823.67123287671,-3633.095890515471 37060.38356185286,-3801.4246571161975 37207.67123287671,-3983.7808220223205 37184.87671232877,-4138.082191362773 36925.3698630137,-4152.109588623047 36844.71232876712,-4243.287671441901 37146.30136996753,-4748.273972602739 37246.24657534246,-4811.39726016946 37162.08219188533,-5007.7808220223205 36983.232876712325,-4972.712328976148 36408.109589145606,-4853.479451636746 36364.273972707255,-5000.767123183159 36983.232876712325,-5141.041095576874 37537.31506849315,-5260.273972602739 37589.91780821918,-5112.986301056326 37361.97260273973,-5063.890410749879 37414.57534246575,-4846.46575352917 39160.98630136986,-5274.301369863014 39630.904109693554,-5393.5342462618055 39650.191780821915,-5323.397260482997 39473.09589041096,-5274.301369863014 38587.61643835616,-5049.863013489606 38620.931506849316,-4888.547944996455 38906.73972613191,-4516.821917494683 40053.47945215931,-4790.3561640700245 40595.28767133739,-4825.424657429734 41147.61643835616,-4867.506849001532 41080.98630136986,-5112.986301056326 41438.68493150685,-5281.315068388639 41414.13698640588,-5449.643835616438 41317.698630241495,-5477.69862982345 41296.657534351085,-5589.917808010154 41542.13698630137,-5610.958904109589 41529.863013803144,-5498.739726236422 41573.698630241495,-5470.684931715874 41587.726027501776,-5344.438356268895 42646.79452065246,-5758.246575028929 43288.54794520548,-5856.438356268895 44030.24657555149,-5954.630136777277 43970.63013709081,-6284.273972289203 43904.00000010451,-6445.589040782354 44642.19178092643,-6529.753424343998 44719.34246575343,-6536.767123496696 44703.561643835616,-6340.383561330299 44721.09589041096,-6291.287671023852 44796.49315078944,-6080.876711910718 45129.643835616436,-6087.890411063417 45555.726027501776,-6024.767123496696 46155.397260378486,-5989.69862982345 46574.46575342466,-5961.643835616438 47112.76712339219,-5919.56164352208 48042.08219178082,-5828.383561330299 48306.849315068495,-5505.753424762046 48878.46575342466,-5519.7808220223205 49230.904109693554,-5449.643835616438 49749.91780832369,-5400.547944996455 49970.849315068495,-5372.4931507894435 50242.6301369863,-5379.506848897019 50505.643835616436,-5358.46575352917 50745.86301369863,-5302.3561640700245 51492.82191780822,-5211.178082296293 52008.328767332314,-5225.20547924303 52623.78082191781,-5127.0136983166 53223.45205479452,-4986.739725922885 53861.698630241495,-4776.328766809751 54813.80821938711,-4797.369863222723 55227.616438460675,-4825.424657429734 55725.5890412004,-4860.4931507894435 56263.890410958906,-4867.506849001532 56839.01369863014,-4916.602739621515 57543.89041106342,-4951.671232563175 57550.904109693554,-5134.027397469298 57459.72602739726,-5414.575342256729 57359.78082191781,-5540.82191739017 56995.068493150684,-5547.835616542869 56898.6301369863,-5526.794520443433 56746.08219178082,-5498.739726236422 56740.82191791273,-5646.027397469298 56898.6301369863,-5653.041095576874 57059.94520547945,-5667.068492837148 57473.75342465754,-5688.109588936583 58401.31506849315,-5744.219177768655 58413.5890412004,-5596.931506849315 57854.24657534246,-5540.82191739017 57771.83561654287,-5379.506848897019 57733.260273972606,-5239.232876503304 57743.78082191781,-5091.94520537494 57780.602739726026,-4958.684931715874 60710.57534246575,-5112.986301056326 60686.027397364785,-5624.986301369863 60657.97260284424,-5786.301369863014 61133.15068503602,-5793.315068388639 61176.986301474375,-5660.054794729573 60978.84931517301,-5477.69862982345 61015.67123298122,-5134.027397469298 62036.16438356164,-5211.178082296293 63400.32876712329,-5267.287671128364 64068.38356174835,-5183.123287775745 64461.150684931505,-5134.027397469298 64796.05479452055,-5098.958904109589 64971.397260273974,-5112.986301056326 65185.31506849315,-5253.260273763578 65297.534246679854,-5274.301369863014 65581.58904120041,-5330.410959008622 66144.43835626889,-5435.6164383561645 66845.8082192826,-5723.178082296293 69144.54794520549,-5975.671232876713 71559.01369883916,-6010.739726236422 73251.06849315068,-6277.260273763578 74115.50684941959,-6459.616438042628 74217.20547955656,-6459.616438042628 75116.71232887164,-6466.630136777277 76661.47945205479,-6494.6849314023375 78151.8904109589,-6550.79452075697 78642.8493150685,-6691.068492837148 79317.9178084282,-6971.616438042628 80261.2602739726,-7476.60273983054 80985.42465753424,-7708.054794311523 81315.06849315068,-7743.123287357696 81632.43835626889,-7637.91780832369 83473.53424667986,-8234.082191571797 83661.1506849315,-8220.054794311523 84464.21917808219,-7827.287671337389 85249.75342476205,-7490.630137090814 85500.49315068492,-7350.356164383562 85563.61643846068,-7315.287671337389 85891.50684941959,-7132.931506431266 86010.7397260274,-7097.863013803142 86650.73972613191,-6894.465753111121 87297.75342465754,-6999.671232876713 88055.23287681684,-7111.890411063417 88172.71232897615,-7132.931506431266 88705.75342476205,-7315.287671337389 88826.7397260274,-7357.369862804674 89429.91780821918,-7560.767123183159 89584.21917808219,-7651.945205583965 89868.27397260274,-7827.287671337389 89943.67123287672,-7869.369862804674 90099.72602750178,-8009.64383519839 90376.76712339219,-8262.136986196858 90474.95890410959,-8339.28767133739 90804.60273972603,-8591.780821917808 91118.46575342465,-8739.068492837148 91346.4109589041,-8851.28767133739 91649.75342476205,-8998.575342152217 92438.79452065246,-9356.273972811765 92684.27397260274,-9468.493150684932 93241.86301380314,-9763.068492732637 94186.95890410959,-9952.438355850847 95358.24657534246,-10029.589041304915 95644.05479462506,-10127.780821604272 95940.38356164383,-10029.589041304915 96226.19178082192,-10022.575342152217 96561.09589041096,-10015.561643731104 96580.38356174834,-10071.6712327722 96636.49315068492,-10092.712328871636 96736.43835616438,-10036.60273941249 96822.35616448807,-9980.493150684932 97316.82191780822,-10050.630136672764 97493.91780832369,-10022.575342152217 97644.71232876713,-10057.643835825464 98344.32876712328,-10022.575342152217 99149.1506849315,-10099.726026979211 99313.97260284424,-10050.630136672764 99424.43835616438,-10050.630136672764 99475.28767123287,-10092.712328871636 99529.64383561644,-10099.726026979211 99585.75342465754,-10057.643835825464 99755.83561643836,-10036.60273941249 100227.5068495241,-9987.506849106045 100332.71232876713,-10036.60273941249 100813.1506849315,-10148.821917599194 100874.52054794521,-10183.890410958904 101076.16438356164,-10268.05479462506 101309.3698630137,-10303.123287357696 101519.78082202232,-10359.232876712329 101635.50684941959,-10359.232876712329 102187.83561643836,-10373.260273659065 102391.23287671233,-10450.41095848606 102594.63013719533,-10541.589040991377 102831.34246575342,-10625.753424239485 103073.31506849315,-10702.904109484529 103225.86301369863,-10773.041095785899 103402.9589042141,-10864.219177873167 103460.82191780822,-10892.273972498228 103620.38356164383,-10962.410958799597 103772.93150684932,-10997.479452159307 103893.91780832369,-11032.547945205479 103964.05479452055,-11032.547945205479 104062.24657544697,-11039.561643626592 104190.24657534246,-11039.561643626592 104348.05479472957,-11102.684931193313 104398.90410969355,-11123.726027292749 104568.98630136986,-11207.890410958904 104826.7397260274,-11327.123287253184 105072.21917808219,-11397.260273972603 105151.12328777574,-11418.301369758501 105424.65753424658,-11495.452054899033 105610.52054804972,-11614.684931193313 105782.35616438356,-11705.863013385093 106076.93150695383,-11839.123287566721 106238.24657544697,-11909.260273972603 106383.78082202232,-11972.383561852861 106441.64383561644,-11993.42465763876 106574.90410969355,-12042.520547527156 106841.42465753424,-12189.80821907357 107462.13698630137,-12365.150684826995 107462.13698630137,-12421.260273659065 107597.15068503602,-12421.260273659065 107676.05479452055,-12456.328767018775 108000.43835626889,-12547.50684941958 108163.50684931508,-12540.49315058042 108319.56164383562,-12561.534246679854 108417.75342465754,-12484.383561852861 109134.90410958904,-12589.589040886865 109129.64383561644,-12645.698630032473 109066.52054804972,-12687.780822126833 109029.6986302415,-12828.054794207012 109231.34246575342,-12856.109588727559 109252.38356164383,-12722.849315173005 109245.3698630137,-12652.712328453586 109340.05479452055,-12098.630136986301 109452.27397270725,-12098.630136986301 114682.7397260274,-13290.958903900564 114593.31506849315,-13445.260273554553 114531.94520558396,-13550.465753633682 114595.06849315068,-13585.534246679854 114828.27397260274,-13304.986301160838 115094.79452065246,-13347.068493046172 115394.63013719533,-13389.150685140532 115547.17808229629,-13501.369863013699 115915.39726027397,-14118.57534236124 116025.86301369863,-14258.849314754956 116197.6986302415,-14392.109589041096 116027.61643846068,-14574.465753320146 115787.39726037848,-14932.164383248108 115892.60273972603,-14974.246575446978 116143.34246575342,-15079.452054794521 117165.5890410959,-15486.246575028928 117623.23287671233,-15675.616438460676 117663.56164383562,-15724.712328349075 118165.04109589041,-15914.082191467285 118343.89041106342,-15703.671232981225 118549.04109599492,-15465.20547966108 118899.72602750178,-15654.575342674778 119136.43835616438,-15654.575342674778 119206.57534257027,-15612.49315058042 119443.28767123287,-15612.49315058042 119762.41095900862,-15605.479452054795 120104.3287672278,-15689.64383572095 120204.27397260274,-15886.027396842224 120305.97260273973,-15914.082191467285 120607.56164383562,-15935.12328746221 121030.13698630137,-16124.493150475908 121573.6986302415,-16243.726027501772 121791.12328767123,-16313.863013594118 121619.2876714419,-16671.561643835616 121696.43835616438,-16699.616438042627 121955.94520547945,-16320.876712328767 122108.49315078945,-16440.10958872756 122273.31506849315,-16545.315068702173 122424.1095890411,-16692.602739935053 122690.63013709082,-16727.671232981225 123150.02739726027,-16924.054794416035 123367.45205479451,-17036.273972289204 123662.02739726027,-17106.410959008623 123809.31506859766,-17169.534246575342 124051.28767133738,-17204.602739621514 124305.53424667986,-17330.849314754956 124398.46575342465,-17386.958903796054 124515.94520547945,-17443.068493255196 124605.3698631182,-17464.109588623047 124740.38356164383,-17527.232876503305 124792.98630136986,-17548.27397260274 125052.49315078945,-17639.45205437647 125336.54794531,-17716.602739621514 125631.12328767123,-17786.739725922886 125885.3698631182,-17800.76712318316 126179.94520547945,-17786.739725922886 126288.65753424658,-17646.46575352917 126332.49315068492,-17513.20547924303 126341.2602739726,-17457.09589051547 126851.50684931508,-17527.232876503305 126930.41095900862,-17562.301369549477 127719.45205489903,-17976.109588936582 127654.57534246576,-18060.27397260274 127722.95890410959,-18095.34246596245 127787.83561643836,-18039.232876503305 127968.43835616438,-17863.89041074988 128336.65753424658,-18046.246575342466 128727.67123298123,-18172.493150789443 128910.02739736479,-18284.712328976148 129265.97260284424,-18551.232876503305 128792.54794531,-19217.534246157295 128359.45205479451,-19091.287671023852 128294.57534257027,-19182.46575352917 129318.57534257027,-19561.205479556567 129388.71232876713,-19463.013698630137 128887.23287681684,-19259.616438042627 129404.49315068492,-18551.232876503305 130393.42465763875,-19098.301369863013 130295.23287671233,-19196.493150789443 130951.01369863014,-19448.986301369863 131049.20547955656,-19484.054794416035 131322.7397260274,-19771.616438042627 131450.7397261319,-19869.808218864546 131983.78082202232,-20080.21917797768 132487.01369863015,-20276.60273983054 133086.68493150684,-20508.054794311523 133288.32876712328,-20592.21917797768 133973.91780821918,-20844.7123285581 135169.75342476205,-21335.671232458662 135518.68493150684,-21482.958904005078 135869.3698630137,-21637.260274077114 136853.04109589042,-22072.10958883207 137042.4109589041,-22100.164383457133 137002.08219178082,-22296.547944891943 137089.75342465754,-22317.589041304916 137135.34246585795,-22149.260273659067 137282.6301370908,-22170.3013697585 137252.82191791272,-22345.643835511924 137333.4794521593,-22352.65753435109 137398.35616448807,-22163.287671337388 137573.6986302415,-22184.328767018775 137624.54794530998,-22219.397260378486 138143.56164394013,-22296.547944891943 138673.09589041097,-22366.684931611362 138604.71232887162,-22633.205479452055 138545.09589051548,-22857.643835825464 138629.2602739726,-22878.684931611362 138702.90410958903,-22633.205479452055 138750.24657544697,-22471.890410645367 139127.23287671234,-22528.000000104512 139532.27397270725,-22584.10958883207 139397.2602739726,-22997.91780790564 139490.19178082192,-23018.958904318613 139635.7260276063,-22556.05479462506 140126.68493150684,-22626.191780717407 140273.97260273973,-22787.506849106045 140238.90410958903,-22955.835616438355 140135.45205479453,-23025.97260242619 140095.12328777576,-23117.15068461797 140377.42465753425,-23159.23287671233 140398.46575342465,-23075.068492732637 140340.60273972602,-22969.86301369863 140391.45205479453,-22815.561643731104 140556.27397281176,-22731.397260378486 140815.7808219178,-22752.438355850845 141041.97260273973,-22934.79452033892 141019.1780821918,-23082.082191885333 140905.20547955658,-23138.191780612895 140859.61643835617,-23250.41095848606 141140.16438366615,-23292.493150371396 141168.2191781867,-23201.315068179614 141110.35616448807,-23096.10958914561 141155.94520547945,-22948.821917599194 141310.24657534246,-22857.643835825464 143121.53424657535,-23145.205479452055 143212.7123287671,-23159.23287671233 144736.43835616438,-23404.712328871636 144701.3698630137,-23559.01369883916 143212.7123287671,-23320.54794520548 142756.8219178082,-23243.397260378486 142723.5068494196,-23348.60273941249 143212.7123287671,-23432.767123392183 144540.05479452055,-23657.205479452055 145330.84931506848,-23790.465753006607 145355.3972603785,-23699.28767091934 145274.7397261319,-23678.246575237954 145322.08219178082,-23495.890410958906 145718.35616438356,-23559.01369883916 145844.60273983053,-23573.0410957859 146302.24657534246,-23636.164383352618 146318.02739736479,-23580.05479462506 146782.68493150684,-23657.205479452055 146772.16438366615,-23853.589040991377 146542.46575342465,-23811.506849106045 146540.7123287671,-23979.83561612482 147145.64383572096,-24028.931506744804 147159.67123298123,-23874.630136672764 146905.42465753425,-23839.561643626592 146936.98630136985,-23657.205479452055 147294.68493150684,-23657.205479452055 148378.30136996752,-23699.28767091934 148371.2876713374,-23895.671233085737 148096.00000020902,-23895.671233085737 148085.4794520548,-24049.97260242619 148730.7397261319,-24063.999999686464 148753.53424678437,-23923.72602729275 148478.24657534246,-23902.68493119331Z"/></svg>