<svg xmlns="http://www.w3.org/2000/svg" width="256" height="256"><path d="M143.8495222782497,2.699624179717194 144.3832245760335,2.7570629918361087 144.78768954621094,2.6948376118801356 145.05693397902138,2.7187704502808483 145.3381448310678,2.8623674812557263 145.61935568318557,3.058616756797762 145.83834115520474,3.3649570893111718 145.95321877987053,3.6425780153728344 146.0680964045363,3.829254155526055 146.23562627376924,3.9776377538387133 146.34930725651142,4.039863134293964 146.4641848811772,4.130807920202407 146.516837125887,4.231325841784965 146.69394013050876,4.355776601910888 147.0050670307166,4.499373632885765 147.23482228004815,4.662116934210321 147.2755081053793,4.7961408295824075 147.360469681955,5.226931922435716 147.6632200886976,6.792139558578317 147.81998018061813,7.256436624793199 147.9073350411124,7.797318773975953 147.9073350411124,8.070153132699836 148.42667763602694,8.17067105449637 148.7473776714096,8.223323298849552 149.0070489688312,8.266402408027895 149.21526466353794,8.266402408027895 149.34928855898136,8.299908382031399 149.6304994110278,8.453078548395093 149.9224800405293,8.58231587593012 150.21206738589834,8.644541255886093 150.58541966613345,8.716339771730159 150.79363536084017,8.768992016297316 151.04253688094937,8.792924854698029 151.15262793792073,8.778565151472156 151.4661481218331,9.05618607796177 151.6324813492851,9.194996541170916 151.7198362096367,9.266795056301728 151.81078099590178,9.343380139269598 151.84907353738572,9.391245816498975 151.8981358562534,9.434324925891294 152.02737318400239,9.568348820978079 152.11831797019613,9.649720471996984 152.18891984368864,9.7071592844012 152.3157638877331,9.793317502971862 152.46534412818335,9.879475721328546 152.69749266121946,9.979993642839782 152.8973318625323,10.051792158255894 153.12708711186386,10.104444402823052 153.4178710992278,10.161883215227268 153.75532412175485,10.200175756568553 153.81994278562937,10.386851896721774 153.93960697798954,10.76977731241703 154.01858534487593,11.028251967701062 154.03653497372997,11.100050483545129 154.0461081091188,11.363311706380918 154.05089467695583,11.47818933118935 154.05927117034975,11.564347549760011 154.08200736682684,11.679225174497118 154.09636706991006,11.736663986473383 154.10594020529888,11.78452966370276 154.1310696856945,11.875474449611202 154.1693622273211,11.97599237119376 154.17773872071498,12.014284912962998 153.52078230472887,13.234859675179578 153.21444197221547,13.967204532138634 153.33051623880485,14.637324009498345 153.38795505113774,15.025035992816683 153.50163603395126,15.460613653079099 154.09158050221566,15.6520763605701 154.9914552288356,15.604210683768674 155.070433595722,15.666436063795972 155.39831348278892,15.900977880679292 155.7082437410018,16.197745077803887 156.0540732569941,16.542377951658583 156.62008488678646,16.9635959091944 156.7110296729802,17.145485481510562 157.22079913250593,17.46139894919881 157.5857749192045,17.853897500282883 157.80595703307594,18.313407998660708 158.11708393321243,18.73462595598255 158.6280500347331,19.24678869942681 158.86618177745854,19.596208141118563 159.10311687826038,19.931267879584443 159.12345979096162,20.395564945799325 159.12585307488015,20.8837948506289 159.1091000878784,21.3576650525179 159.67391507588982,21.649645681805435 159.92879980561702,21.8171755511097 160.27582596339025,22.319765158951167 160.29497223416786,22.472935325100885 160.3679673915789,22.611745788238704 160.53190733511238,22.726623413047136 160.87893349288558,22.807995063994717 161.3863096684928,22.903726417740216 162.07796870040602,23.02817717772349 162.4788437447413,23.085615990127703 162.60568778871445,23.02817717772349 162.67748630405924,22.956378662592677 162.67748630405924,22.803208496228983 162.6583400332816,22.539947272893915 162.62004749179766,22.34369799735188 162.56500196324066,22.09000990983358 162.38191574900088,21.72623076498728 161.66991380438645,21.003459042989086 161.0141540302526,20.500869435147617 161.34083727539593,20.390778378176243 161.95710786612221,19.940841014973255 162.7133855617673,19.304227511545726 163.05921507775957,19.39038572990241 163.74489089991212,19.63450068224587 163.9112241272928,19.883402202355065 163.93396032384123,20.314193295279697 163.77002038030776,20.66839930430923 163.56300132759597,20.84071574123658 163.5187255764227,20.974739637036617 163.57975431445507,21.11355009996046 163.7209580614401,21.223641156931834 164.18166520209815,21.491688948032635 164.81827870538302,21.831535254121597 165.08393321249397,21.951199446481784 165.4369425798852,21.96555914970766 165.63199521350364,21.979918852862205 165.78995194734776,22.046930800227287 165.8785034496943,22.166594992587473 165.9503019651104,22.31497859139941 165.95149860710535,22.520801002330263 165.828244488903,22.875007011359795 165.5482302788515,23.28186526566974 165.0564104481798,23.760522035110498 164.95948245243937,23.8897593628595 164.96666230390966,24.330123590673672 165.17607464053998,24.76570125072211 165.32206495521942,25.07682815107258 165.6164388684255,25.947983471597407 165.76242918317624,26.149019314477222 165.9909877905842,26.316549183852814 166.32485088726912,26.474505917554286 166.86333975288997,26.670755193096323 166.97103752594282,26.68990146387395 166.99497036441485,26.737767140889353 167.16848344340846,26.69947459954807 167.59209468436353,26.44099994376476 167.87330553633865,26.263896939285654 168.06716152796216,26.16816558546883 168.27777050651608,26.11551334047372 168.42017089549603,26.110726773135937 168.59727390011778,26.22081783010731 168.63197651590224,26.316549183852814 168.65112278667988,26.642035787143854 168.58291419703457,27.197277639766458 168.5518015070209,28.06843296007731 168.4632500046744,28.52794345866911 168.4488903016625,28.910868874364365 168.5912906904998,29.341659966861048 168.840192210609,29.85860927764309 169.018491857297,30.32290634407195 169.14413925920385,30.5909541350301 169.44449638202792,30.997812388840764 169.53424452629807,31.21799450278351 169.78194940448367,31.433390049317154 170.4377091786175,31.744516949453647 170.98577117962716,31.988631901725782 171.18082381317427,32.0939363911454 171.26817867359722,32.204027448116776 171.39262943365182,32.3667707496553 171.4476749621375,32.79756184186669 171.53742310640763,33.54426640240824 171.57571564803422,33.874539573108386 171.77076828158133,34.41542172293307 171.80786418114167,34.769627732247905 171.88085933862405,35.01374268473402 172.12736757474337,35.31050988143066 172.41216835256063,35.88011143749311 172.46721388104632,36.559804049813685 172.59405792494812,37.15812501161463 173.35990875612464,38.728119215522966 173.51906213189238,39.067965521825904 173.55735467344763,39.37909242167709 173.36469532374772,40.19280892979771 173.1911822448968,40.90122094857002 173.11938372940935,41.652712076520686 173.35153226265945,42.279752444702055 173.66624908849542,43.87846605477684 174.17841183186835,45.47717966442366 174.659461885085,46.62116934367237 175.16803470261578,47.43967241920209 175.39539666817146,48.085859058232415 175.54617355047398,48.315614307563976 175.32120486897946,49.24420843999374 174.9717854272164,50.25417422344241 174.76715965828046,50.981732512992366 174.37585774919134,51.54654750128908 174.06712413290205,52.28846549356563 173.7799300713089,52.87721331997776 173.61718676962772,53.74836864028861 173.68060879164995,54.1504403267615 173.28930688256082,54.801413533129605 172.89800497368566,55.52897182267955 172.8992016154666,55.730007665844674 172.46841052304123,57.237776489725704 172.0651421947874,58.03713329469177 171.6858067050056,58.400912439324095 171.33638726331384,58.91307518276836 171.06953611427932,59.62627376937773 170.92474244152348,59.77944393552745 170.927135725442,60.35383205871371 171.42493876558908,60.425630574058495 171.65349737299704,60.574014172870434 171.77914477497524,60.65538582339006 172.1907895966943,60.83248882815447 172.774750855412,61.10532318687835 173.4604266777072,61.30157246242038 173.85412187057224,61.378157545388255 174.2298674345119,61.689284445453424 174.45244283237318,61.9142531271619 174.87964399902773,62.18230091812005 174.96340893367986,62.35461735483342 175.0364040910909,62.39769646422574 175.40616644541257,62.58437260437896 175.78071536749997,62.74232933829441 176.30005796234317,62.90507264004692 176.90555877575704,62.991230858403604 177.1843763439563,63.08696221243441 177.48473346678037,63.23534581074706 177.60200437522204,63.32150402910375 178.1536563020025,63.78101452798085 178.5270085822376,64.04427575131592 178.9219004169549,64.26445786497337 179.25935343948197,64.39369519300767 179.7128807285271,64.52293252075668 180.06469345399472,64.66652955144626 180.67139090926088,65.07817437337928 181.52579324271264,66.0977132920028 182.02598956684955,66.72954022780723 182.31797019613708,67.11725221084028 182.5058429782139,67.38051343396137 182.79662696557784,67.74907914643074 182.98449974765467,67.87352990684198 183.10895050770927,68.02670007299169 183.17237252966018,68.13679112989175 183.23459790961613,68.26124188987501 183.50503898435016,68.60108819639193 183.69291176635568,68.90742852890534 183.9011274611337,69.14197034557468 184.36063795979683,69.88867490590226 184.71484396925433,70.16629583224922 184.85963764186752,70.4774227323144 185.04751042394435,70.7694033618159 185.38137352062927,71.26241983426856 185.56924630256344,71.58790643734562 185.9437952246508,72.02348409760803 186.2154329413798,72.31546472710954 186.31954078873315,72.55000654427818 186.69289306889692,72.82762747055381 187.10932445823906,73.16747377664277 187.23377521829366,73.4115887292002 187.48507002225006,73.87588579541509 187.68251593964436,74.28753061706281 187.80816334162256,74.50292616359646 188.07860441642794,74.6082306528021 188.36938840386318,74.76618738650357 188.59914365312343,75.04380831306452 189.16156535728763,75.72350092538508 189.4738888992764,76.18779799202792 189.59953630132594,76.44627264759725 189.7598863190886,76.71910700610717 189.93339939801086,77.00630106755764 190.18230091804872,77.34614737386057 190.32829123279947,77.51367724345015 190.68369388403792,78.21251612676232 190.97447787147317,78.83476992675001 191.37056634825672,79.40437148259848 191.72477235764288,79.86866854881336 192.01555634500681,80.33296561524223 192.51694931106735,81.17061496176355 192.82927285305612,81.47695529406299 192.9333807004095,81.67799113744208 193.18228222051866,81.802441897568 193.828468859335,82.69753005606559 194.24609689060074,83.30063758591757 194.53329095226522,83.86545257392899 194.65893835424342,84.2340182861844 194.94972234175,84.55950488947543 195.13639848176055,84.65044967559786 195.38649664379335,84.789260138807 195.6557410766038,85.02380195569032 195.842417216757,85.23919750200999 195.9896041732887,85.45459304840098 196.13559448796815,85.71785427145075 196.2815848027189,86.07206028097956 196.63459417018146,86.33532150410065 197.07136847222483,86.59858272736439 197.3214666342576,86.8139782735414 197.4459173943122,87.0628797936506 197.75943757829592,87.70906643218164 198.07176112042734,88.13028438950349 198.6329861825253,88.69988594485268 199.0901033973412,88.97750687141362 199.17386833206467,89.28863377126481 199.31985864667277,89.41308453167603 199.40362358146757,89.48966961485789 199.383280668695,90.09756371183367 199.13198586466729,90.71024437657519 198.99317540160078,91.09316979205647 198.93214666342575,91.39951012456987 198.60666006020605,91.61011910333778 198.5037488547763,91.82551464944348 198.49417571938747,91.9834713835729 198.42237720397137,92.39032963724091 198.33023577592533,92.6009386162228 198.23809434773668,92.8881326774593 198.02389544341193,93.62526410261205 197.98320961800945,94.12306714290176 198.09928388459883,94.41026120435224 198.120823439295,94.54907166777535 197.9114111026647,94.49163285537114 197.66370622440775,94.49641942313687 197.52968232896436,94.54907166777535 197.02110951143354,94.59693734450546 196.51253669390275,94.52992539671243 196.2863713704133,94.50599255859701 195.58513920311128,94.45334031374455 194.456705869226,94.40068806896342 193.31630611596208,94.30495671500394 192.63182693573313,94.22837163203607 191.82289699530693,94.1900790906948 191.56442233988022,94.22358506441299 191.0307200419538,94.34803582439626 190.50300095364537,94.42462090736413 190.06742329338294,94.50599255859701 189.5289344277621,94.63522988634602 189.3434549296038,94.65437615690968 189.0837836321822,94.69745526608801 188.5034122993066,94.67830899552436 188.06783463904418,94.68788213091318 187.73756146813005,94.75010751065517 187.34266963334144,94.77882691682161 186.8245236804218,94.75968064604399 186.51339678035666,94.73574780785725 186.22739936054447,94.73574780785725 185.76549557810546,95.29098966026588 184.67415814378055,96.13821214217602 183.9741226184021,96.48284501631602 183.60436026400913,96.60250920867621 183.7084681113625,96.83705102534554 183.92625694152935,96.98064805632042 184.2278107062057,97.13860479052117 184.42405998174775,97.26784211827018 184.50782491632856,97.37314660719052 184.58082007366826,97.56939588273255 184.6442420956905,97.87573621524596 184.56406708680916,98.5314959893798 184.4120935624404,99.24948114354093 184.34986818248444,99.63719312685927 184.32234541817027,100.46526933799178 184.31037899900556,100.68545145186322 184.2936260120038,100.98221864877382 184.05788755305423,101.58532617841183 183.49067928126695,102.58571882668566 183.40930763046202,102.7963278049543 183.25613746424096,103.16489351770898 183.2585307481595,103.96425032238974 183.36263859551286,104.14135332736812 183.4571733074774,104.39504141502907 183.50144905865068,104.90720415847333 183.60555690593273,105.36192808937074 183.69051848250845,105.80229231697092 183.74436736907055,106.28573565446271 183.78744647846287,106.87448348087484 183.47871286203093,107.37228652109323 183.5110221939682,107.58768206698495 183.50264570057428,108.09027167525437 183.42007740777444,108.4779836582874 183.4009311369968,108.69337920460707 183.2585307481595,109.63154647249698 183.20827178736823,109.91874053444674 183.09818073039685,110.68459136533797 182.9342407868634,111.11059589021157 182.99646616681937,111.70891685201252 182.73799151132135,111.9961109137483 182.21984555840174,112.26415870442113 180.80900473054643,113.0252229679746 179.8014322308023,113.64747676817625 178.53538507570283,114.27451713614364 176.89359235644972,114.65265598428715 175.50788100891873,114.8824112333334 174.93229624380885,115.05951423809782 173.8948076959747,115.35149486738536 172.1357440682086,115.48551876275744 170.866106987267,115.51423816913785 169.5964699063967,115.53817100753857 166.7999177309391,115.52381130452667 165.64515827459192,115.54774414314136 165.3089018941311,115.52381130452667 165.27060935250452,115.85408447522681 165.13538881513753,116.13649196933952 165.0899164221833,116.2417964586878 165.1126526185891,116.3279546773298 165.15094516014435,116.40932632784943 164.8757175177159,116.48591141103127 164.57057382726876,116.53377708826065 164.1685021408672,116.57206962938795 163.7867733673095,116.60557560339146 163.5905240917675,116.62950844200614 163.46248340594207,116.80182487871951 163.3978647421389,117.10337864382382 163.30452667209795,117.42407867934912 163.2255483050689,117.89316231340106 163.15374978972412,118.37660565017961 163.0843445581552,118.84090271689377 163.07118149692425,118.95099377357984 163.05682179384104,119.06587139838827 163.36316212635444,119.0515116951624 163.40504459360918,119.0515116951624 164.39706074827515,119.03236542438476 165.49916795991248,118.90312809684974 165.4883981826714,118.97971318003158 165.44771235726893,119.21904156475196 165.35916085499372,119.79821625577529 165.29932875881363,120.09019688506282 165.19881083715975,120.46354916529793 165.19282762754173,120.73638352359386 165.14017538283193,120.96613877292543 165.07795000280464,121.34427762078363 165.05162388048538,121.78464184866912 165.34121122599706,121.82772095784746 165.83781762443448,121.92345231180694 167.44131780191836,122.40689564908476 168.18921900416956,122.64622403380514 168.4094011181836,122.71323598159816 168.80548959482454,122.86640614796185 169.0328515603802,122.97171063709618 169.35235495398192,123.16317334458718 169.7867359723207,123.42643456792224 170.2414599031468,123.713628629872 170.47001851055475,123.83329282223218 170.73567301759437,123.91466447275181 170.86969691303779,123.95774358193016 170.99893424078678,123.97688985270779 171.19518351625752,123.98167642033087 171.6881999887815,123.97688985270779 172.21232915131912,123.97688985270779 172.57610829609408,124.0008226911085 172.71970532692632,124.034328665112 172.941084082864,124.13484658669456 173.27614382147252,124.31673615901073 173.41136435883953,124.41246751318418 173.45803339378867,124.44597348675973 173.69736177850905,124.73316754849552 173.7978797000916,124.86240487624451 173.80864947747537,124.9102705534739 173.82061589664005,124.97728250098162 173.87925135096788,125.26447656250342 173.9450666568373,125.55645719179095 174.01088196249276,125.69526765514276 174.13054615485294,125.8580109569666 174.393807378188,126.12127217980238 174.44047641306582,126.1547781535919 174.4859488061627,126.15956472164294 174.6068096405178,126.16913785681778 174.94186937912636,126.1978572631982 175.5018977993007,126.2361498046108 175.90037955986014,126.26486921056328 176.03560009722716,126.2744423459521 176.74281547407588,126.33666772640734 177.02641961011219,126.355813996971 177.40455845789904,126.38453340292347 177.7216685675822,126.41803937692697 177.80663014415796,126.42761251231579 177.92031112690015,126.44675878330739 178.23502795280743,126.50898416333469 178.7220612157134,126.6382214910837 179.0008787840553,126.69566030348791 179.54894078499365,126.8153244958481 179.745190060393,126.84404390180057 179.99648486442075,126.87276330775305 180.31479161602752,126.92062898498241 180.5960024681453,126.96370809416076 180.88080324589123,127.00200063571602 181.10098535983397,127.04986631251745 181.2984312772996,127.0881588540727 181.53297309432557,127.14559766647692 181.95897761905653,127.25090215582522 182.0582988987155,127.27962156206299 182.14924368490924,127.28440812982872 182.36942579885198,127.29876783262664 182.53575902630396,127.30355440067767 182.824149729892,127.3849260511973 183.14365312349372,127.44236486360151 183.37580165660117,127.4327917282127 183.60316362208553,127.41843202498683 184.52697118710617,127.40885888959801 184.77108613952097,127.40407232218891 184.96015556345006,127.44236486360151 185.2952153020586,127.57160219113655 185.44718882642735,127.62425443591768 185.5536899575566,127.62425443591768 185.8037881195894,127.69605295154777 186.15320756128116,127.83007684663455 186.45715460987603,127.92102163304227 186.76828151008385,127.99282014860104 186.93700802131173,128.0837649345808 187.0566722136719,128.18428285637734 187.23975842791168,128.22736196555567 187.42164800037048,128.20821569470672 187.70525213626414,128.1794962883263 188.28323018536383,128.1794962883263 188.76787016442262,128.22736196555567 189.03831123908532,128.28001421012283 189.97887179110774,128.4858366208397 191.88871230117635,128.92141428110213 192.0562421704093,128.9692799583315 192.09333807011228,128.89269487514966 192.1842828562347,128.61986051663976 192.3721556383115,128.28001421012283 192.47746012758847,128.06461866401716 192.63661350342753,127.99282014860104 192.76585083117655,128.02153955483882 192.89508815892555,128.05504552862834 192.96329674849952,128.0502589605773 193.03988183168136,128.04068582540248 193.0769777312417,128.00239328398985 193.12245012433857,127.92580820059403 193.20501841713843,127.86836938847512 193.28160350017762,127.83964998223735 193.39528448299114,127.78221117011843 193.55443785883017,127.67690668048483 193.69085503804948,127.62904100375474 193.80333937893937,127.62904100375474 194.0247181347344,127.7151992223254 194.17669165910317,127.75349176388066 194.33584503487089,127.7774246020674 194.44234616614278,127.76785146667858 194.50217826232287,127.74391862827787 194.6314155900719,127.75827833150375 194.7558663501265,127.69126638349674 194.87074397479228,127.58117532652537 194.9688686124563,127.39928575442318 195.05861675672642,127.18867677565527 195.13280855598975,126.80096479262222 195.16990445569274,126.7004468708257 195.26084924181515,126.61907522030607 195.4200026176542,126.52334386627527 195.68446048277022,126.36538713235981 195.8555802778453,126.22657666943597 195.9082325225551,126.1643512891947 196.1200381429613,125.99682141989044 196.46826094272947,125.752706467333 196.61185797356168,125.64261541036163 196.76981470754848,125.32191537512162 196.92059158999362,125.02036161044526 197.02589607912796,124.86719144408157 197.13120056840492,124.80017949628854 197.28676401847315,124.7571003871102 197.42437783968737,124.73795411626124 197.58353121559776,124.71880784526964 197.7654207879139,124.70923470988082 198.11364358768208,124.66615560070248 198.37211824318007,124.67094216875351 198.62221640521287,124.65658246531366 198.83402202576173,124.61828992390106 199.03266458500832,124.59435708557166 199.1978011705367,124.52255857015555 199.37251089138257,124.50341229916394 199.5627769572353,124.53213170554437 199.73030682646822,124.59914365290945 199.8966400539202,124.70444814254304 199.8822803509083,124.74274068388432 199.80689190965006,124.83847203762983 199.8212516127333,124.89112428262493 199.98279827234822,125.04908101639774 200.05100686206487,125.20703775031318 200.14314829011087,125.32670194267337 200.17665426397173,125.49901837988602 200.17785090589533,125.63782884280987 200.2604191986952,125.73356019655536 200.45188190640016,125.8963034980939 200.60505207269253,126.03511396123172 201.07533234859676,126.36060056452276 201.1662771347905,126.45633191876753 201.50133687347034,126.74831254805507 201.57792195650956,126.86319017236423 201.6664734589274,127.12645139569929 201.7430585419666,127.24611558805948 201.81007048975962,127.30355440067767 201.87947572125722,127.34184694180499 202.01589290061915,127.37535291580849 202.22051866955508,127.41364545764905 202.7602041770282,127.49501710816868 202.91935755286727,127.54766935273584 203.18620870190182,127.68169324832189 203.5045154535086,127.89708879442759 203.58110053669043,127.9880335808353 203.60503337516246,128.0502589605773 203.61221322663278,128.18428285637734 203.65050576825934,128.24172166871023 203.74863040592336,128.2895873452977 203.97359908756053,128.36617242847953 204.4438793636074,128.5193425948432 205.03621711579035,128.67251276120692 205.96241796458688,128.87354860408672 206.4865471271245,129.00278593183575 206.68399304451881,129.06022474423995 206.82041022380943,129.11766355664417 206.88981545537834,129.14159639525886 207.00349643812052,129.1607426658225 207.10999756932108,129.16552923358825 207.28351064824338,129.14159639525886 207.58027784536796,129.10809042125535 207.7992633173871,129.08415758264067 207.973973038233,129.05065160885113 208.15586261054915,128.99799936428397 208.28509993829815,128.95013368748255 208.38322457610482,128.89748144248745 208.51246190385385,128.86876203653497 208.64887908307313,128.8448291979203 208.8762410486288,128.82089635951957 209.04736084363256,128.81610979196782 208.95162948981573,128.59592767802508 208.90615709671886,128.5193425948432 208.77213320127544,128.27044107473404 208.60938989959428,127.91144849765347 208.59024362881664,127.7391320607261 208.57588392573342,127.62425443591768 208.55913093880298,127.46151113416518 208.47297272037497,127.35620664524484 208.30663949292298,127.1216648280762 208.18458201671558,126.96370809416076 208.15346932677326,126.89190957874465 208.07209767589703,126.71480657405156 208.0529514051907,126.50898416333469 208.01705214741133,126.40846624153816 207.9452536319952,126.24572293999962 207.73703793728848,125.98246171666456 207.49411962686864,125.73356019655536 207.30146027724004,125.47508554127133 207.22367855206326,125.3123422397328 207.20931884898005,125.22139745332508 207.19256586204963,125.03472131317186 207.18179608487986,124.8049660638403 207.19017257827375,124.52255857015555 207.20692556513285,124.24493764387991 207.20572892328056,124.10134061269106 207.21889198436887,123.90030476973992 207.23085840367622,123.69448235902304 207.2260718359818,123.46951367710058 207.22966176168129,123.16317334458718 207.24641474868304,122.91905839252901 207.26915094516013,122.77546136155414 207.27752743862536,122.6988762783723 207.2811173644675,122.52655984144495 207.2906904998563,122.27765832154972 207.27513415484947,122.09576874894826 207.26556101946068,121.88515977046566 207.27393751285456,121.72720303626491 207.27752743862536,121.54052689653963 207.2906904998563,121.1576014809157 207.2978703513266,120.92784623158414 207.32060654794634,120.81296860698968 207.31940990595143,120.64543873768542 207.30983677063392,120.47790886809585 207.308640128639,120.27687302521603 207.3122300544098,119.89873417707254 207.32060654794634,119.64504608962557 207.32898304134025,119.30998635066041 207.34214610249987,119.07544453356311 207.2859039321619,118.86483555522315 207.3074434867154,118.60157433217339 207.37924200213152,118.39575192117121 207.561131574519,118.01282650576125 208.34612867640186,117.91709515173045 210.42230241392247,117.58203541326458 211.74698502327843,117.2900547835491 213.70588785221472,116.5529233588243 215.9675410878223,115.72963371552885 217.88336480750894,115.0355813996971 218.91606678757736,114.73881420285781 219.0632537442517,114.78189331203615 219.297795561349,114.79146644742497 219.73815978909187,114.83933212436904 220.10672550156124,114.8249724212145 220.98745395740357,114.79146644742497 222.13144363629564,114.84411869177815 222.39590150141166,114.8345455566033 222.45573359759175,114.8345455566033 222.9248172316437,114.69573509346549 223.6284426827216,114.63829628106127 223.6870781369781,114.61436344244659 223.87854084482572,114.57128433326824 224.05325056567162,114.42290073495558 224.17052147411326,114.36546192233739 224.31770843078763,114.30802310993317 224.59532935699195,114.28887683915555 225.03808686872463,114.34152908393668 225.25707234074378,114.33195594854786 225.29057831467597,114.30802310993317 225.35878690424994,114.26015743341705 225.52033356407887,114.1500663762317 225.66752052053923,114.00168277784772 225.92958510180804,113.77671409592526 226.07677205841108,113.61875736222379 226.17968326384084,113.47994689901464 226.36875268776996,113.04915580637531 226.49799001551895,112.46519454801421 226.49799001551895,112.23543929846868 226.43815791933886,111.94345866918114 226.43815791933886,111.65147803960829 226.50995643475497,111.37864368138369 226.53867584092143,111.26376605636129 226.5901314436363,111.02922423969194 226.57936166632388,110.41654357445114 226.7014191426026,109.87087485721736 226.72295869715612,109.76557036829702 226.85937587644673,109.38264495238778 227.08314791616027,108.9853598341799 227.2817904754782,108.21472243516631 227.32606622665145,108.08548510720334 227.44214049324086,107.86530299347456 227.7305311968289,107.35792681765338 227.88250472119768,107.0803058918057 228.22354766935288,106.68780734072162 228.49039881838743,106.34796103420472 228.78836265729296,106.03204756630248 229.17248471476918,105.59168333863097 229.5578034142403,105.2326907615504 229.6152422265019,105.18003851676926 229.95628517479975,104.75403399210964 230.0639829478526,104.65351607059841 230.203990052914,104.56735785224173 230.26142886531824,104.53863844600396 230.40622253807405,104.50991903962353 230.72811921545164,104.5003459044487 230.91838528137566,104.53385187823822 231.24028195875326,104.66308920598722 231.43653123422396,104.70616831516557 231.72133201211253,104.7157414503404 231.977413383692,104.68702204460192 232.10784735336463,104.6439429352096 232.2322981134192,104.56735785224173 232.4500869435861,104.31845633213253 232.52188545893088,104.2514443843395 232.66787577361032,104.1892190043122 232.80548959482454,104.16528616576883 232.95267655149888,104.1700727333206 233.12140306265542,104.20357870711013 233.44928294972235,104.33760260269618 233.6838247667483,104.38546827964026 233.9171699418507,104.40461455048921 234.2390666193709,104.40940111804098 234.33240468934054,104.347175738085 234.36950058904353,104.28495035812902 234.367107305125,103.95467718700093 234.42454611752922,103.81586672407708 234.67225099564348,103.55260550074202 234.96183834115513,103.33720995463632 235.0049174504048,103.32285025141046 235.0420133501078,103.3037039808468 235.13774470399593,103.2462651682286 235.8700895612403,102.53785314945628 235.8988089673354,102.51870687867866 236.07351868818128,102.36075014490586 236.2625881121104,102.20757997882747 236.6407269599686,102.0017575678253 236.6921825627548,101.94910532304415 236.71372211737963,101.90123964631405 236.76039115232876,101.28855898128724 236.78073406503,101.1497485183634 236.8321896678162,101.02051119061439 236.91954452816782,100.91999326881785 237.0715180525366,100.82904848283809 237.29768337602601,100.75724996727932 237.56812445076005,100.70459772271217 238.2681599761385,100.63758577491913 238.46440925153786,100.5945066657408 238.61757941783023,100.52749471773379 238.77673279366928,100.43176336420225 239.00289811715874,100.25466035922388 239.09743282912328,100.16850214065322 239.27214254996915,99.99139913631676 239.68498401368313,99.46966325726972 239.79268178673598,99.32127965895705 239.98175121066507,99.10588411285136 240.09782547732578,99.00057962343175 240.149281080112,98.97186021705133 240.22945608885067,98.91920797269815 240.26535534655872,98.90484826947227 241.10061140930418,98.37353925525038 241.47276704747304,98.09113176135166 241.8353495503244,97.84701680922217 241.91432791742477,97.7991511322781 242.4516201410507,98.5314959893798 243.43166987640933,100.49398874394426 244.18794757226837,102.9399248357152 245.130901407924,105.56775050030159 246.1875362264645,108.1572836230474 246.86722883907035,109.91874053444674 247.1185236430981,110.98135856246256 247.29443000579624,111.2733391917501 247.4691397266421,111.55574668564883 247.9047173868332,112.599218443101 248.07224725613747,112.71888263546118 248.10814651384553,113.23583194674251 248.474318942539,114.10698726705336 248.88596376418676,115.27969635204056 249.27487238935737,116.43325916646411 249.95935156965766,117.7256324438115 250.3027878017314,118.39096535340548 250.6210945534095,118.87919525823506 250.8053774096442,119.78864312010117 250.89751883783285,120.11891629101528 251.14881364171794,120.76510293004561 251.51618271233502,121.85165379667613 251.65379653347793,122.7084494137611 251.56524503113138,123.07222855867873 251.3618159041904,123.45994054171177 251.29360731447375,123.59875100484959 251.48148009655057,123.9864629883819 251.621487201612,124.39810781002963 251.65259989155433,124.77624665767385 251.683712581568,125.09216012557607 251.86919207972628,125.7144139259917 252.0235588878709,126.50419759528366 252.11689695791185,126.69087373543688 252.2557074210497,126.74352598000404 252.2569040629733,127.25090215582522 252.5776040985699,127.83007684663455 252.9653160817456,128.56242170402157 253.44397285118634,129.3139128321862 253.42123665470925,129.41921732132053 253.6509919040408,130.18506815249705 254.13204195725746,131.7407026531795 254.7949815829329,133.29633715386197 255.15995736963148,134.06697455259027 255.93418469427323,134.95727614367874 256,135.02907465923752 255.52971972409577,135.32105528881036 253.80176878634333,136.05340014569808 251.4970364415574,136.77138529985922 249.79541162619552,137.24046893391116 248.64304545369558,137.64254062017008 247.54811809367115,137.86750930216385 247.37699829852477,137.89622870811633 247.24536768692855,137.93930781729466 247.1280967784869,137.9536675207345 246.99646616681937,137.96324065590935 246.84927921028765,137.9536675207345 246.46755043658732,137.9440943853457 246.3060037769724,137.96324065590935 246.26172802579913,137.98717349452403 246.02718620877314,138.1020511188332 245.85247648792728,138.2839406915773 245.72084587625974,138.3940317483347 245.34031374455435,138.56634818526206 245.19312678795131,138.57592132065088 245.1045752856761,138.59028102366278 245.001664080175,138.6237869976663 244.67976740279744,138.86311538238664 244.34351102219398,139.06415122576576 244.16760465949582,139.18860198546372 244.108969205168,139.2460407980819 244.00725464173317,139.40399753178338 243.9198997812389,139.50451545336594 243.9198997812389,139.5763139689247 243.83134827889236,139.71991099989958 243.5836434007781,140.05975730598854 243.18755492399455,140.5049081014258 242.89557429470702,140.7394499188084 242.7053082288543,140.83039470471684 242.55812127217993,140.89740665250986 242.41093431557692,140.9309126262994 242.17639249855094,140.97877830352877 241.73722491258906,140.9883514389176 241.116167754311,140.94048576168822 240.22586616307987,140.950058897077 240.12295495772142,140.9261260588903 239.78430529334207,140.97399173547774 239.71250677785466,141.00749770948124 239.53660041508516,141.07450965727426 239.096236187271,141.29947833876878 238.81741861907176,141.3808499897877 238.71450741357066,141.3904231251765 237.87925135096788,141.58667240071853 237.70334498812707,141.64411121305142 237.41016771691594,141.7206962960193 237.20554194790867,141.74462913442 236.66226651466474,141.74462913442 236.5150795579904,141.77813510820954 235.6941831983995,141.98395751914038 235.6487108053026,141.99831722236627 235.561355944951,142.0078903575411 235.3280107697773,142.0749023055481 235.03483349849486,142.19935306546006 234.84337079078986,142.32380382544332 234.18521773280884,142.87904567806592 233.27816315471858,143.48215320741863 233.04242469576903,143.68318905058374 232.70616831516557,143.9703831125335 232.63317315782584,144.03739506025522 232.32683282538378,144.46818615275188 232.07793130527457,144.76016678182546 231.79911373707534,145.00906830193463 231.49157676270966,145.2148907128655 231.28814763576864,145.32498176983688 231.0093300675694,145.43028625918515 230.43733522801637,145.58824299317195 229.45489220873924,145.8036385392776 229.21915374986096,145.88501019029653 228.89845371426435,146.0573266272239 228.80990221198914,146.10997887179104 228.56100069187994,146.3397341211226 228.29893611053978,146.60778191179546 227.97584279116728,146.83753716112702 227.90165099190398,146.87104313513052 227.77002038030776,146.94762821831236 227.50675915711534,147.0768655458474 226.964680365795,147.24439541543697 226.1437840061328,147.5076566387007 225.8948824860236,147.53158947688743 225.4389619132026,147.53158947688743 225.13142493890825,147.56509545067695 225.05723313950227,147.58902828929166 224.85260737056635,147.64646710190985 224.5462670381956,147.79485070000854 224.3308714918759,147.87143578319038 224.01376138219274,147.68954621108819 223.97068227287176,147.68954621108819 223.57220051231232,147.70869248165184 223.21919114484976,147.71826561704066 223.0528579174691,147.71826561704066 222.93199708325665,147.71347904941757 222.75609072041584,147.67518650764833 222.57061122225753,147.61296112790635 222.4126544884134,147.54116261227625 222.35760895992772,147.54116261227625 222.19007909055213,147.58424172166858 221.99622309892862,147.6656133724735 221.847839500402,147.7709178616078 221.50559991032318,147.88579548663023 221.44935773984255,147.91451489236871 221.15259054293196,148.0916178973471 220.87496961651365,148.21128208970728 220.7816315464727,148.24478806371079 220.73137258568144,148.2591477664374 220.1892937943611,148.48890301576895 219.3887403474001,148.68036572375922 219.55387693285718,149.66639866859322 219.66636127374707,150.00624497511012 219.80277845296635,150.2934390365606 219.89013331346064,150.4274629319327 220.00261765420788,150.57105996312154 220.15100125273452,150.73858983242582 220.29938485133246,150.95877194615457 220.387936353679,151.13108838308193 220.5303367425163,151.4422152834324 220.69188340220256,151.79163472512414 220.8175308042521,152.126694463804 220.87975618420808,152.31337060395722 220.96711104470234,152.45696763443283 221.00420694426268,152.57184525924126 221.0173700054936,152.6867228837644 220.97907746386701,152.7345885607798 220.88214946812658,152.8303199145253 220.8438569265,152.87818559175466 220.81992408802796,153.03135575811837 220.7469289307596,153.2754707101765 220.68590019258457,153.50522595950807 220.71701288266954,153.6344632872571 220.79120468186153,153.76848718284316 221.10233158206935,154.23278424905803 221.30097414138726,154.56784398795187 221.69825925995175,155.156591814364 221.99741974085222,155.5395172296313 222.14699998130246,155.75491277616493 222.2211917805658,155.88893667132305 222.26427088988677,156.06603967630144 222.38991829179366,156.54948301307996 222.56582465456313,157.2531084645145 222.69147205661267,157.61688760893284 222.7201914627078,157.72697866590423 222.8410522970629,158.2152085707338 222.9152440962549,158.51197576807238 223.10670680410252,159.17252210961533 223.19525830644906,159.454929603728 223.40945721077378,160.20642073167866 223.5578408092291,160.7281566102978 223.6224594731036,160.91483275045098 223.7337471720699,161.29297159830918 223.78759605856067,161.60888506621143 223.9371762990109,162.0827552681004 223.9958117532674,162.30293738197184 224.1082960941573,162.637997120723 224.22437036067535,163.10708075448966 224.29497223416786,163.29854346247996 224.35839425619008,163.5043658731968 224.49720471932793,164.06439429337118 224.55584017351308,164.26543013653628 224.71499354935213,164.69622122917562 224.76884243591422,165.05042723870443 224.78080885522155,165.30890189398846 224.71858347512293,165.78277209580614 224.6886674270329,166.1561243758986 224.60011592468635,166.52469008858196 224.62524540508198,166.57734233293516 225.03449694295384,167.39584540867884 225.29656152422265,167.90800815190912 226.02411981377261,169.1860217267439 226.50995643475497,170.15769496835202 227.23751472430493,171.54101303210712 227.72574462913448,172.49832657098864 227.50915244103388,172.79509376811322 225.2618589084382,174.59962978869092 224.05325056567162,175.48993137999338 222.76087728811024,176.86846287591143 221.2100293551222,178.45281678304562 219.74653628269974,180.25256623600023 218.59776003589926,181.41091561804686 217.4190677411514,182.28207093857168 216.4126918834022,182.90432473877334 216.2152459660792,184.4599592394558 216.2331955948619,185.5848026474276 216.25234186563955,186.7718714356407 216.54910906276413,189.23695379840322 216.8506628274405,193.03748854754886 217.06246844798935,196.17269038752846 217.2407680945347,197.72832488821092 217.44898378924145,199.57115345084316 217.33530280649927,199.90142662147196 217.65839612587177,200.18862068320774 217.96353981639027,200.35615055251202 217.96473645838518,200.54761326028833 217.83669577255978,200.71992969721566 217.51599573703447,200.98319092055073 217.25871772338874,201.2464521438858 217.32453302918685,201.41398201276212 217.36641549658424,201.47620739314604 217.40590467999178,201.5336462051223 217.64642970670707,201.61980442369295 218.32133575154722,201.62937755908177 218.5463044331844,201.73468204871537 218.95794925497475,202.53882542123318 219.27027279696352,202.7255015613864 219.44737580179924,202.8595254564732 219.5658433521645,202.9265374042662 219.7118336667726,202.99354935205926 219.93201578071537,203.10842697679635 219.97629153188865,203.14193295079986 220.0492866892997,203.23287773677964 220.10911878547978,203.3764747677545 220.09475908239656,203.51528523067836 219.97868481573585,203.77375988617638 219.96432511272394,203.83119869858058 219.96432511272394,203.95564945870652 219.97988145773076,204.00830170355897 220.0827926630892,204.13275246325694 220.17014752358347,204.20455097888703 220.34725052820522,204.2907091974577 220.5087971879628,204.40558682176683 220.62606809640445,204.54918385274172 220.83308714925892,204.72150028966905 220.99343716695026,204.85552418525512 221.0676289662849,205.0134809189566 221.084381953144,205.25280930367697 221.15737711055502,205.4873511210596 221.21720920673513,205.58786904235683 221.2890077220799,205.67881382855057 221.7162088888058,206.05216610885702 221.89331189349886,206.243628816562 221.99622309892862,206.3824392799138 222.0847746013465,206.50210347227397 222.1446066975266,206.66006020604678 222.17452274561663,206.89938859076716 222.24871454487996,207.0477721890798 222.38034515640484,207.16743638144 222.52633547108428,207.2727408710736 222.95353663781015,207.50728268774296 223.0265317952212,207.5312155265716 223.33526541151048,207.7466110724633 223.37116466921853,207.76575734324095 223.21081465145588,207.9572200514452 223.09474038479516,208.04816483756764 222.03092571471308,208.47416936201327 219.52635416868566,209.38840379171646 218.72101415403026,209.6995306919956 217.85823532711328,209.747396368797 215.37998990333378,209.81919488435577 213.50724529296812,209.95800534756492 213.423480358316,210.00587102429503 212.78806349681207,210.3792233043875 211.49329693554614,210.95839799562478 208.93248321896678,211.94443094045877 207.7238748762002,212.32256978853093 207.26077445176625,211.68116971733767 206.24841538439907,210.412729278391 205.6129985228951,209.72825009823336 204.80167529876437,208.88581418408896 203.56075762398922,208.37843800826778 201.77297459005666,207.7801170464668 200.67445730426144,207.33975281879532 200.50214086719146,207.16264981410222 200.38606660060205,207.07170502769452 200.26759905016547,206.24841538439907 200.12280537740963,205.9612213224493 200.08690611970158,205.95164818706047 199.9696352111886,205.92771534865977 199.85236430281827,205.92771534865977 199.73389675223902,205.73625264116876 199.4538825421162,205.3772600640882 199.3366116336032,205.25280930367697 198.98360226621196,204.9033898621992 198.90941046694866,204.86509732064394 198.71914440109595,204.74543312828376 198.453489893985,204.63055550347534 198.3218592823888,204.58747639451096 197.85277564840817,204.46302563438502 197.54404203204757,204.34814800979058 197.3525793243426,204.21412411427585 197.20539236766822,204.07052708330096 197.14675691341174,203.96522259416665 197.1180375072453,203.9460763233177 197.1192341492402,203.90299721392537 196.96965390878998,202.67763588415704 196.41919862386177,201.72510891332655 195.11844885290654,200.7965147803975 194.42678982113597,200.30828487556795 194.10848306952917,200.30828487556795 193.53648822990482,200.43752220331695 191.74750855412,200.82523418634997 189.5325243535329,201.33739692979424 188.35024213301423,201.61023128830413 186.70964605575602,202.01230297456306 185.4244526298076,205.19537049177205 183.82095245225239,207.95243348339417 182.84688592636914,209.30703214119683 182.50225305237177,209.51285455212766 181.6681936316926,209.7330366659991 180.7515659181422,209.91971280572437 180.6594244900962,209.93885907671597 179.50825495959117,210.2930650860308 178.21229175633033,210.47495465834697 176.85769309874166,210.43666211700568 176.07748256462455,210.2595591120273 175.67541087822298,210.2356262736266 174.23345736035404,209.92928594132715 171.6367443860666,209.37883065632764 170.5992558383751,209.1825813807856 170.19359422620272,209.22566049017792 169.71493745676196,209.13950227160726 169.53304788437447,209.33096497952621 169.36192808937074,209.63251874448787 168.98737916728334,210.39358300782735 168.8617317652338,210.5754725799295 168.63436979982077,210.89138604783176 168.36033879931594,211.2168726509088 168.18443243654647,211.3700428172725 167.87689546218078,211.86305928993914 167.5346558719593,212.327356356154 167.28575435185013,212.8012265579717 167.03565618981733,213.4378400613992 167.0260830544285,213.78725950309098 167.15292709840165,214.01222818458547 167.257034945755,214.20847745991355 167.2690013649197,214.43823270945907 167.23549539105883,214.61054914638643 167.07634201521978,214.73978647413543 166.91838528137566,214.77329244792497 166.5809322588486,214.51481779264094 166.34998036766476,214.44780584463393 166.09988220556065,214.33771478766255 164.89247050464633,214.19411775690165 163.59770394338042,214.09838640294217 162.55183890215235,213.9117102632169 162.0899351195707,213.7633266644763 160.88132677680412,212.99747583329975 159.991025185573,212.4135145745107 159.13542621026895,212.19333246056794 159.03251500476787,212.16939962216725 157.61210104145243,211.85827272210207 156.1749340913492,211.43705476506554 154.57741712319802,210.8818129126569 153.9180674232934,210.49888749674767 153.55069835281893,209.97236505071947 152.9679337360248,209.64687844721445 151.8406970439918,208.80444253314138 151.49127760230007,208.45502309144962 151.37639997756295,208.3401454666412 150.97073836546193,207.89499467120393 149.55391432791728,206.6313408000943 147.24080548959483,204.43909279577034 145.24600340295046,202.88824486292495 142.44227137602257,201.11721481606546 141.14271824691957,200.2077669537714 139.64452255864134,199.58551315356974 139.55357777237626,199.54722061222847 137.1004618289924,198.53246826072876 135.02309144969084,197.78097713277808 133.08931810115018,197.20658900959182 132.02311014714957,196.9864068954351 130.7821924723744,196.74707851071474 128.79337359534804,196.59869491240207 126.74472262214161,196.44552474625235 125.592356449713,196.3593665276817 124.17912233801049,196.2971411476544 122.73836546199381,196.3689396630705 121.300001869753,196.59390834456502 119.7144513209805,196.62262775101675 119.22382813230372,196.68963969873846 118.9378307126342,196.90982181246724 118.70807546323131,197.13479049417572 118.42327468541406,198.04423835611317 117.99727016061178,199.0924966814024 117.02559691864705,200.95925808193604 116.31000504840443,202.11760746391136 115.65065534842847,202.92175083692845 114.58803732026999,203.63494942303853 113.61157751061084,204.34814800979058 112.95940766231914,204.51567787873822 112.22945608885067,204.70714058687113 110.12815287107706,205.18101078854616 108.19916609023082,205.40597947004068 106.38386029212674,205.27674214229168 105.31645569627386,205.0134809189566 104.3938447731768,204.8842435912076 103.67107305132126,204.55397042050745 103.17925322064956,204.06574051567787 102.54383635928828,203.86949124034982 101.70618701276695,203.64930912647839 100.52270815025335,203.27595684595798 98.34721313328777,202.7494343997158 97.99300712383028,202.55318512438774 97.77282500988753,202.46224033805134 97.64119439822,202.419161228873 97.34682048501394,202.3712955516436 97.17091412224445,202.35214928107996 96.26146626037834,202.37608211969467 95.85101808051157,202.37608211969467 94.78002355888788,202.23248508871978 94.45693023958668,202.11282089635958 94.00459959239384,201.9596507299959 93.25550174829038,201.8734925116392 92.59136548062001,201.83041340246086 92.07441616969531,201.96443729804693 91.26907615503993,202.2085522501051 90.21603126227025,202.4766000409919 89.74335770244751,202.59147766580034 87.8430903277677,203.04141502928863 86.2587364209188,203.11321354441944 84.81797954490212,202.9648299461068 83.87622235109876,202.42873436426183 83.76852457790326,202.3330030105163 83.69433277863995,202.28992390112398 83.54594918011331,202.14154030231205 83.47295402284492,202.09846119313372 83.11874801345876,201.7681880225049 82.95720135370118,201.6485238301447 82.57427593814857,201.3421834976313 82.29545837002065,201.10764168067666 82.2799020249425,201.06934913912139 81.69115419853037,200.54282669245126 81.35250453415104,200.28435203695324 81.1754015296006,200.1694744126441 81.10120973019464,200.1359684386406 80.7637567077389,200.00194454305452 80.13312641407204,199.83441467367894 79.7513976403717,199.76740272609987 78.97358039003048,199.65731166919983 78.90656844238009,199.6477385337397 78.95802404502365,199.48978179961026 78.94007441624095,199.24566684726682 78.975973673949,199.08292354594226 79.05016547321232,198.8818877026345 79.08367144700185,198.7382906716596 79.12196398855711,198.37451152724125 79.08726137277266,198.22612792842932 78.92571471315773,197.97722640832012 78.83955649458707,197.66609950846893 78.58108183916038,197.4698502329269 78.44825458556925,197.30232036333734 78.45902436288166,197.15393676502467 78.62894751603314,196.9481143543078 78.90178187475702,196.75665164610353 78.99870987042611,196.55082923538666 78.90656844238009,196.44552474625235 78.61937438064432,196.22055606475786 78.23405568124451,195.95250827358572 78.04498625731541,195.7083933213136 77.99831722236625,195.48342463974777 77.96241796458688,195.2440962550274 77.81882093382598,195.08613952111193 77.62376830027887,194.98083503169232 76.2619897911486,194.75586634998382 75.95804274255372,194.6314155900719 75.79769272479105,194.46867228853336 75.75102368977058,194.3107155543326 75.78452966370276,194.13839911740524 75.90898042375736,193.93736327445413 76.137539031094,193.78419310809042 76.55397042050745,193.58794383283367 77.16904436923882,193.41084082806927 77.56991941371679,193.32946917726434 77.92292878117934,193.20980498490417 78.39081577323635,192.90825121979987 78.79647738540872,192.52532580431858 79.36368565719602,191.69724959318606 79.55036179720659,191.39090926088664 79.88781481973365,191.1994465529677 80.88461754209402,190.7686554607563 81.29985228958388,190.44795542501703 81.66961464390555,190.03152403553224 81.78449226857133,189.81612848921256 81.80603182319615,189.5624404017656 81.72346353053895,189.22259409546265 81.66004150851673,188.9928388459171 81.50328141659621,188.4854626705239 81.48892171351298,188.06424471341603 81.7150870370024,187.49942972519062 81.94603892825758,186.66656694650638 82.1542546229643,186.08739225526907 82.33016098573378,185.53215040286045 82.89736925752108,184.6227025412083 83.02780322719369,184.33072191163546 83.07566890413776,183.7371875174576 83.0325897948881,183.06706804052584 82.84112708711179,182.41130826610672 82.7705252136906,182.14326047543386 82.72146289475161,181.55451264902175 82.77291849746649,181.34390367025384 83.0313931529645,180.98491109317325 83.45380775206729,180.71207673444937 84.07127498464587,180.44402894377652 84.21846194117757,180.2094871266079 84.24598470549174,180.04195725751762 84.19931567039994,179.9127199297686 84.02819587532487,179.5441542172279 83.9061383991888,179.13729596320326 83.76254136835658,178.47674962144634 83.7386085298132,178.11775704436576 83.7948507002225,177.8784286596454 84.14786006768506,177.50028981171587 84.61933698565554,176.62434792363928 84.71985490723809,176.38023297108185 85.10038703887217,175.71490006170185 85.47254267718368,175.44206570326327 85.77888300955443,175.26017613087578 85.91649683083998,175.07828655813168 86.00145840741571,174.8963969860295 86.08522334206785,174.62356262751956 86.15821849933624,174.21191780587185 86.28865246900884,173.94865658253678 86.3281416524877,173.75719387454652 86.33771478787652,173.4269207039177 86.35446777487827,173.13972664196794 86.30660209786288,172.95305050202867 86.25514649521932,172.8716788512951 85.75614681307732,172.5126862742145 85.47373931903596,172.14890712951086 85.1267131611914,171.5793055739477 84.97234635304676,171.20116672601816 84.74618102948601,170.64592487318157 84.71626498139595,170.55019351922212 84.62532019527355,170.26778602532337 84.59540414718349,169.94708599008337 84.62292691135501,169.72211730830358 84.90653104724866,169.3774844342349 85.12790980318633,168.92754707117456 85.23560757623918,168.76480376942206 85.69272479119775,168.46325000453174 85.879400931137,168.24306789058897 85.90213712782808,168.09947086011337 85.80999569956809,167.78355739221115 85.74537703569358,167.59209468422088 85.72623076498728,167.2091692687396 85.82076547695183,166.61563487456175 86.1211225997759,165.32326159721435 86.21087074404605,165.0073481293121 86.47054204153898,164.1792719181796 86.59379615959865,163.70061514873885 86.310192023705,163.67668231012416 85.214068021757,163.52351214397444 82.9595946376197,163.16930613473093 80.19894171979881,162.7720210158098 79.22726847783407,162.9443374531651 77.68719032215844,163.38948824860236 76.08488678645551,163.56659125315278 75.09167398993726,163.5043658731968 74.01469625869557,163.37034197761076 72.55239982798273,163.16930613473093 70.23809434773666,162.7528747450322 67.10887571758904,161.82428061253108 66.10249985983985,161.4461417644589 65.09732064394294,161.0680029168147 62.81891442140493,159.88572069643868 61.84245461174579,159.4022773589469 61.45593927042238,159.37355795320838 60.38135482302788,159.40706392699792 58.899912121608736,159.3496251145937 58.453564684176555,159.17730867766636 57.43402576519642,158.29179365391565 56.9027167511885,157.55466222919085 56.756726436437745,156.9467681320011 56.610736121758315,156.3675934407638 56.511414842099356,156.12826505604343 56.37858758865087,156.0708262436392 56.299609221693146,155.9990277285084 56.14643905540078,155.77884561435167 55.99207224725614,155.5969560422495 55.91788044799282,155.50601125584177 55.88198119028476,155.40070676670746 55.88676775797917,155.28104257434725 55.87958790650889,155.05128732480173 55.82334573602827,154.87418432003733 55.79941289755623,154.73537385689949 55.78146326877353,154.68272161254632 55.74795729484135,154.6492156385428 55.53854495821102,154.53433801394837 55.42486397546884,154.4625394983896 55.28126694470794,154.36202157680702 55.1783557393495,154.30936933223987 55.10536058186714,154.25671708745875 55.03116878260382,154.1897051398797 54.99167959912496,154.12747975992372 54.961763551034906,154.03174840617822 54.961763551034906,153.89772451037817 54.98210646380747,153.60095731368153 54.9593702671877,153.50522595950807 54.915094516014435,153.43342744437726 54.851672494063536,153.3807751998101 54.7667109174878,153.3472692258066 54.592001196641924,153.30897668396605 54.50943290398472,153.30419011662826 54.31677355421349,153.30897668396605 54.20428921346623,153.3233363874059 54.13608062382093,153.33290952258074 53.97932053175776,153.40949460576257 53.8835891778696,153.42864087632623 53.72563244402548,153.45736028270665 53.55092272310828,153.48607968894441 53.44442159190771,153.53394536567453 53.27449843875624,153.63924985509414 53.151244320625246,153.78284688606902 52.98850101908671,153.97909616161107 52.89276966512724,154.05089467674188 52.803021520857094,154.11312005669785 52.64506478701297,154.18491857232792 52.30521848071003,154.30936933223987 52.16880130134809,154.37638127981893 52.03358076398108,154.46732606644062 51.910326645850084,154.60613652936448 51.80861208234392,154.6731484771575 51.67458818690051,154.71622758633583 51.51064824336705,154.73537385689949 51.40295047031421,154.73537385689949 51.27849971025961,154.72580072172465 51.15404895020501,154.70186788310997 50.99609221621824,154.65878877393163 50.853691827380935,154.6157096645393 50.616756726436435,154.53912458157143 50.38460819325767,154.44339322782594 50.21827496587701,154.39074098325878 50.06031823196156,154.35723500925528 49.81620327954677,154.3285156032315 49.67619617448535,154.30936933223987 49.495503244021464,154.26150365550978 49.25737150122469,154.18491857232792 48.990520352332794,154.08440065074538 48.735635622605585,154.0126021351153 48.43168857401071,153.9408036197705 48.178000486278435,153.89293794275508 48.07508928070602,153.85464540119983 47.950638520651424,153.78284688606902 47.763962380640855,153.64882299048296 47.60480900473048,153.49086625671015 47.44565562889142,153.3472692258066 47.1788044799282,153.03614232545613 47.1165790999009,152.9691303778771 46.98016192068161,152.8925452949092 46.694164500869434,152.71544229021615 46.66065852707991,152.6962960191532 46.34474505917768,152.36602284852438 44.46960716489352,150.90133313375037 42.86012377764897,149.546734476233 41.21115120699689,148.6133537759662 39.505936465864195,147.64646710190985 38.813080792098695,147.16302376441806 37.58532617841183,146.34452068867435 37.06957350933941,145.9472355702525 36.827851840771835,145.15745190046127 36.86255445655629,144.18577865863918 37.56258998193472,142.17542022713067 37.239496662490886,141.07929622482604 36.19961483088084,139.40399753178338 32.863377147878765,135.82364489636652 30.918834022025692,134.157919338998 27.036927621932477,132.16192061021604 24.543125853146133,130.85997419747986 22.237196866293964,128.21778883016688 20.368042181627807,126.12127217980238 17.18736794869398,122.41646878447357 15.22846511975768,119.17596245535965 14.196959781684175,117.46715778852747 12.159078585861478,113.51823944064122 11.698371445132098,111.6036123628782 13.681207112540433,110.10541667459995 12.345754725800722,107.90359553488717 11.620589720240625,106.41975954976347 6.196211880410598,102.73888899283538 2.2245573359759176,100.38389768697289 0.7167885122375334,99.48880952826131 0,97.72256604909624 1.1990352075204214,97.13860479052117 4.814090458721738,95.02294186916508 6.15313277116093,93.71142232125403 7.9576687919525835,92.04091019554916 10.836789260210061,89.48488304680684 11.749827047918306,88.65202026833656 14.080885515023466,86.00504833297255 14.70672924113858,84.9663631432861 16.44544995613213,82.39597629160322 17.496101564983267,80.54836116163322 17.676794495518475,80.22766112589393 17.896976609461223,79.44266402393977 18.521623693510087,78.01148028345456 19.565095450890936,75.38365461908215 19.93964437297833,72.93293195975946 20.035375726937808,71.83202139011703 19.970757063063303,71.15711534513424 19.86545257371501,70.52528840932979 20.208888805788757,70.07056447850373 21.28107996933605,68.40005235322681 21.8016192061742,66.89228352934578 21.99667183964998,65.47545949158716 22.092403193538132,64.26924443259645 22.26471963060813,62.23973973052427 22.859450666566946,59.09496475536982 22.85705738271974,58.79819755803125 22.888170072804716,58.61630798592906 22.78286558352775,58.26210197618627 22.553110334196187,57.950975076335084 22.303012172092068,57.73557953001542 22.15582521556036,57.596769066806274 22.135482302859128,57.33350784375651 22.134285660935525,57.18033767760679 21.839911747658135,56.63945552792476 21.568274031000506,56.20387786787632 21.4222837163924,55.98848232134268 21.026195239608846,55.66778228610268 20.85866537037591,55.46674644272358 20.85746872838098,55.16997924559899 20.772507151805247,55.146046407483574 20.588224295570555,55.093394162631114 20.129910438902357,54.86363891337088 20.115550735819134,54.729615017784816 20.107174242282593,54.648243367193864 20.16820298038629,54.33711646670074 20.230428360484915,54.1983060037769 20.12632051313155,54.12172092080903 20.04255557840809,54.09778808198037 20.359665688233918,53.5951984741389 20.395564945941977,53.5808387714123 20.468560103210365,53.50904025556824 20.570274666787853,53.37501636019615 20.729428042626903,53.025596918789695 20.80361984189022,52.94422526777079 20.905334405325057,52.901146158378474 21.052521361999414,52.87721331997776 21.1853486154479,52.87721331997776 21.72862404876316,52.95379840315961 22.081633416225717,52.9633715387624 22.86064730849055,52.94901183560785 23.168184282998887,52.901146158378474 23.638464558831778,52.767122263006385 23.711459716242818,52.75276256027979 24.106351550960117,52.60437896168183 24.825533347044857,52.398556550537 25.456163640854378,52.28367892601387 25.793616663238787,52.25017295222435 26.073630873432954,52.25017295222435 26.278256642368877,52.269319222788 26.469719350073856,52.29325206140269 26.735373857113476,52.38419684781041 27.058467176485987,52.52779387828601 27.766879195258305,53.011237215563824 28.032533702297926,53.13568797547577 28.20844006513873,53.17876708486809 28.488454275190247,53.17876708486809 28.70743974728072,53.145261111149885 29.36798608903764,52.93943870014771 29.777237626909486,52.82456107541061 30.306153357141522,52.733616289430834 30.599330628423985,52.71447001843923 30.65916272460408,52.709683450887475 31.496812071125404,52.78626853406932 31.834265093581138,52.76233569545463 32.406259933134166,52.647458070646195 32.860983864174216,52.49907447211957 33.08116597797431,52.465568498330036 33.30254473384066,52.45120879531814 33.61127835012995,52.47514163371885 34.06241235539919,52.57087298767833 34.999382981579465,52.41291625376288 36.18046856017454,52.22145354598658 36.83503169231344,52.106575921249465 37.51951087261373,52.04913710884525 37.70618701276695,52.06828337990818 38.038853467456946,52.207093843046 38.41340238954434,52.298038628954444 38.91120542976273,52.465568498330036 39.43054802460595,52.60437896168183 39.76321447936728,52.72404315404202 40.34956902200353,52.771908830843444 41.47919899781239,52.83413421079942 42.76558906568442,52.886786455366575 43.43929846867229,52.98251780961135 43.83419030353224,53.04474318956733 44.21711571901352,53.0734625955198 44.49712992920769,53.04952975711908 44.77714413933053,52.901146158378474 45.03561879482854,52.915505861818325 45.4077744329974,52.95379840315961 47.49950451552483,52.78148196601828 51.70809416090401,52.50864760750838 54.99048295720135,51.891180375143776 56.44679617822486,51.41252360570302 57.176747751693334,51.345511657696015 57.71045004961978,51.30243254851767 58.38415945260765,51.12532954375327 58.902305405527265,51.00566535139308 59.318736794869395,51.02002505461895 60.10732382252304,51.01523848699587 60.41845072273086,50.96737281005179 60.47349625128788,50.95779967487695 60.502215657383,50.866854888255254 60.550081334255744,50.555727988404065 60.60871678851224,49.68457266809322 60.67333545238674,49.38301890334554 60.700858216629584,49.301647252397956 60.75949367088607,49.23463530460493 61.27404969803489,48.68896658737114 61.497821737748446,48.52622328583261 61.75270646747565,48.39219939046052 61.82570162481536,48.36826655213113 61.847241179440196,48.33954714567938 62.014771048744464,48.28689490111223 62.30675167817465,48.13372473474853 62.510180805115645,47.97098143321001 62.84883046949498,47.50189779915806 63.0953387058283,47.229063440862134 63.14559766661957,47.20034403448171 63.24731223005441,47.10461268073621 63.42202195090029,47.00409475893967 63.63622085522503,46.951442514372516 63.947347755432844,46.65467531724792 64.6162705907263,45.553764747819486 65.08655086663052,44.42413477158267 65.36297515105387,43.323224201940256 65.5855505487725,42.9115793805065 66.2018211394988,42.56215993881475 67.18067423293382,42.064356898382385 69.28197745085008,40.953873193137184 70.2620271862087,40.54222837148946 71.55200717992287,40.16887609161097 72.33700428173438,39.88646859749827 73.03703980711282,39.6710730511786 73.40081895188779,39.34558644788756 73.9321279658957,38.8908625170615 74.51967915038423,38.38827290900605 75.35972178075276,38.129798253722015 76.62217901022409,37.75644597341558 77.54837985902063,37.56019669787354 80.07090103397341,36.96666230390965 81.16582839406914,36.684254810010934 81.52960753884412,36.4880055344689 82.59581549284474,36.00934876502814 83.71467569134117,35.14298001248302 85.02858852352738,34.0372828748609 85.92367668231027,33.405455939056445 87.37998990333377,32.539087186582655 88.8374997663522,31.778022923243174 89.43701737007675,31.256287044624074 89.6069405231569,30.997812388840764 89.72899799936428,30.6866854887756 89.99704579025111,30.313333208683133 90.28543649383916,29.925621225222145 90.53433801394836,29.69586597589058 90.71981751210664,29.614494325370952 91.11351270497167,29.47568386216181 91.44498251788072,29.442177888158305 91.81713815604958,29.379952508202333 92.08757923078362,29.317727128246357 92.4597348690238,29.14541069131901 92.89411588729129,28.95873455116579 93.30935063478114,28.910868874364365 93.93160443505413,29.07839874352598 94.11828057520735,29.064039040300106 94.5323186807736,28.939588280602138 94.96909298281697,28.733765869671288 95.54707103191669,28.46093151116138 96.48523830002057,27.972701606331807 98.49918665744255,26.431426808375942 99.53308527950591,25.325729671181772 99.86694837619083,24.679543032151447 99.75207075152505,24.29183104911841 99.60727707876923,23.999850419830874 99.46009012209487,23.68872351948041 99.23033487276331,23.257932427055053 99.14537329618757,22.855860740796142 99.24708785969374,22.516014434279228 99.65992932333639,21.98470542027131 99.96985958154927,21.74059046814183 100.27978983976217,21.443823271088558 100.46407269599686,21.13269637095207 100.46287605407326,20.869435147617 100.29534618484031,20.56309481538889 100.14935587008956,20.24239477943563 100.20918796626965,19.797243983998378 100.4150103772005,19.529196193325532 100.64237234261354,19.22285586081212 100.88888057894685,18.973954340702928 101.01333133900145,18.739412523748282 101.24069330441449,18.490511003425112 101.42617280257278,18.289475160545297 101.73610306085699,18.136304994181604 102.17168072097675,18.0549333431627 102.29134491333694,18.064506478551515 102.33442402265794,18.011854233984355 102.39066619306723,17.79645868766469 102.44451507962931,17.19335115845464 102.21116990452694,15.55155843898754 102.20040012721454,13.215713404187971 102.07834265093581,11.229287811294133 102.72811921552297,11.832395340432859 103.80031037907025,13.105622347216597 104.50632911392405,13.967204532138634 105.04122805377409,14.09165529254986 105.65869528635267,14.1347344017282 106.89721967735196,14.240038890862516 108.16087354860423,14.25918516142617 109.17203597404783,14.321410541810097 109.90318418943991,14.666043415736116 110.94785258867303,15.460613653079099 111.79028850288877,15.781313688319104 112.94265467531739,15.910551016068109 113.7587644672852,16.0158555057017 114.12374025391246,16.14509283323673 114.895574294707,18.863863283731554 115.06430080593488,19.50526335471084 115.12293626012004,19.55312903165492 115.68296468043705,19.55312903165492 116.43086588268824,19.610567843845157 117.46835443045107,19.797243983998378 118.27967765465316,20.070078342508285 118.90312809684974,20.299833592053826 120.14763569732439,20.328552998006295 121.35145747253921,20.419497784414013 121.45556531989257,20.419497784414013 121.62189854734457,20.433857487639887 121.72480975270301,20.500869435147617 121.94499186664575,20.65403960151131 122.12807808088552,20.73541125231624 122.21543294130845,20.783276929260314 122.28244488903016,20.816782902835865 122.42843520378092,20.936447095196055 122.47989080642446,20.99867247543733 122.62229119540442,21.30979937528852 122.76110165847092,21.434250135699745 122.82811360626394,21.53955462483406 122.85204644473599,21.721444197150223 122.8029841258683,22.056503935830076 122.81734382895154,22.147448721809845 123.07581848437822,22.472935325100885 123.20146588642774,22.602172652849887 123.4443841968476,22.78884879300311 123.54729540227736,22.836714470232486 123.83209618009461,22.961165229930458 124.07381784873351,23.099975693068277 124.48426602845764,23.262718994820784 124.5799973823458,23.324944374848084 124.65299253975684,23.435035432033434 124.73556083241404,23.59299216552093 124.73675747440896,23.722229493269936 124.79658957058906,24.042929529009218 124.86479816016305,24.243965372316985 125.04070452300384,24.53115943383879 125.10771647065422,24.62210422024651 125.18908812145915,24.679543032151447 125.2178075276256,24.703475870766137 125.43798964156835,24.8374997663522 125.65099190396948,24.942804255486514 125.80535871211413,25.057681880223623 125.93100611409233,25.22999831743627 126.01955761658152,25.42624759276433 126.07938971276161,25.512405811334993 126.15118822803508,25.555484920513337 126.23973973038161,25.560271488279067 126.43000579623431,25.56505805590215 126.66335097133668,25.555484920513337 126.83088084071228,25.46932670215665 127.01396705495205,25.44060729591888 127.05704616420171,25.450180431307693 127.1743170727147,25.517192378672775 127.24850887197802,25.641643139083996 127.27962156206299,25.962343174324 127.34783015163697,26.09636706969609 127.39928575442318,26.139446179088406 127.51536002108388,26.187311856317784 127.6039115233591,26.20167155904438 127.90905521387758,26.196884991492624 128.00598320961802,26.230390965496127 128.08615821849935,26.292616345238123 128.2560813716508,26.541517865347316 128.39728511870715,26.857431333249544 128.5001963240656,27.0536806085776 128.54566871723378,27.111119421195795 128.6928556737655,27.235570181321716 128.74311463455678,27.254716452170673 128.85320569152816,27.33130153506722 128.8974814427014,27.379167211868644 128.92739749079146,27.41267318565817 129.09732064394294,27.7620926275639 129.28160350017762,27.929622496868163 129.75188377615316,28.283828506183 129.98642559317915,28.39391956336835 130.19823121365667,28.46093151116138 130.84920442016744,28.575809135470536 131.10528579188957,28.65718078648944 131.33982760877288,28.786418114238444 131.63539816390255,29.01138679573295 131.84122057476208,29.23635547744143 132.07815567563526,29.6910794085528 132.11166164956742,29.767664491734646 132.4419348204102,29.820316736301805 132.75425836254163,30.59574070279583 133.9437204345306,32.840640951259005 134.72632425256623,34.764841164410846 134.99197875960584,34.95630387240112 136.05938335545875,35.104687470713785 137.6042480788288,35.0999009030907 138.28035076566385,35.79395321892245 138.70396200676157,36.3300488006961 139.09885384140756,36.54544434680179 139.8288054148047,36.564590617650744 140.16506179533684,36.47843239929406 140.97518837761532,35.765233812470704 142.01028364153095,34.764841164410846 143.01665949935148,33.7261559750097 143.29308378363217,32.64439167571697 142.75339827608772,31.15576912282754 140.86629396263888,29.844249574631192 139.59905016547313,29.044892769522477 139.4961389601147,28.98266738978048 139.2675803526354,28.882149467983943 139.36331170652358,28.839070358805603 139.46622291202465,28.752912140448917 139.79769272479106,28.594955406248165 140.1279658957052,28.456144943110345 140.50131817586896,28.269468802957125 140.6461118486248,28.145018043259157 140.81124843415319,27.94398219988006 141.03741375778526,27.6041358937911 141.2839219939046,27.072826879355233 141.4694014921342,26.871791036475415 141.57231269749266,26.73298057326627 141.82121421760186,26.51758502716058 141.88224295570555,26.345268589805283 142.00549707383655,26.00542228371632 142.21131948469608,25.651216274258836 142.2735448647947,25.541125217287462 142.64570050296356,25.316156535792956 142.89460202307276,25.115120692413864 143.08008152130236,25.019389338454385 143.12076734670484,24.770487818559168 143.00469308004412,24.153020586194568 142.86229269127816,23.894545930625235 142.63612736764608,23.267505562443866 142.46620421442327,23.071256286901832 141.84873698191603,23.16220107330955 140.66884804517323,23.315371239673244 139.74384383822897,23.358450348851587 139.60383673316755,23.707869790543338 139.40998074154405,24.22481910132538 139.18620870190182,24.483293757037366 138.62737692357973,25.115120692413864 138.20615896640055,25.139053530814575 137.50253351532263,24.641250490810165 136.37769010713686,24.34448329368557 135.87151057352457,24.191313127321877 135.75782959071105,23.932838472037844 135.53166426722163,23.458968270148844 135.41678664255585,22.93723239174372 135.35934783015165,22.54952040828273 135.80569526772646,22.027784529449654 136.30948151756286,21.400744161910215 136.36452704604855,21.252360563312255 134.98360226621196,20.347699268783924 133.0665819045304,18.753772226546204 132.64177402165174,17.911336312615774 132.58313856739525,17.772525849263978 132.50057027473804,17.585849709110757 132.47304751042387,17.557130302944312 132.32107398619775,17.432679543175016 132.2385056933979,17.403960136794595 132.14277433950974,17.360881027402275 131.88669296793026,17.274722809045592 131.02271749901837,17.021034721099337 130.8336480750893,16.9635959091944 130.5835499130565,16.906157096790185 130.3346483929473,16.906157096790185 130.06540396013688,16.96838247653218 129.42400388915758,17.24600340309312 128.98004973550127,17.437466110584122 128.72875493147356,17.02582128915037 128.640203429127,16.83435858137407 128.58755118448852,16.676401847244644 128.5576351363985,16.542377951658583 128.54566871723378,15.94884355790867 128.4858366210537,15.628143522383363 128.44754407949844,15.513265897646257 128.0694052315689,14.69954938973962 127.94256118773843,14.30226427081849 127.9042686462545,14.096441859887639 127.90785857195398,13.708729876854603 127.9293981265075,13.608211955058067 128.04547239309687,13.325804461159345 128.2548847297272,13.014677561308156 128.42121795717918,12.794495447151432 128.8843183815418,12.301478974484802 129.08056765708383,12.090869995930868 129.385711347531,11.698371445346075 129.97804909978527,10.774563879968786 130.11446627900455,10.477796683129494 130.17070844941384,10.066151861481767 130.2712263710677,9.850756315090777 130.37294093450257,9.735878690353669 130.5763700615862,9.577921956366895 130.85997419747986,9.376886113273102 130.94613241590787,9.233289082298224 130.98921152522885,9.075332348810727 130.98801488323392,8.888656208657506 130.9724585382271,8.821644260650498 130.94254249013704,8.749845745519687 130.78697904006881,8.438718845169218 130.71159059888188,8.15152478371874 130.58594319697502,8.027074023307517 130.5273077426472,7.940915804950831 130.40764355028702,7.486191874124763 130.10369650169213,6.605463418425096 130.31669876416458,6.437933548835529 131.13161191406616,6.414000710648793 132.2265392742332,6.217751434892781 133.09530131069687,5.849185722423398 134.74666716526747,4.566385580250844 135.13796907435662,4.154740758603118 135.83680795774012,3.379316792037767 136.11442888401575,2.618252528698289 136.70198006843296,1.799749452954595 137.26081184675505,1.4503300115481441 138.0482022324851,1.3833180637551128 138.69319222937784,1.2923732773473928 138.8786717274648,1.2157881941655462 139.04979152253986,1.0530448926270144 139.02705532606277,0.7897836697198997 139.15030944412243,0.38771198303303683 139.39681768045574,0.11009105697137408 139.64691584241723,0.028719405952469163 139.95804274255372,0.028719405952469163 140.3301983807939,0 140.68440439018005,0.10530448913431568 140.99553129031653,0.15317016636369304 141.3066581905957,0.16752986930426492 141.53521679793232,0.21060897876790927 141.68120711254042,0.4116448216477255 141.8283940692148,0.7993568051087148 141.93250191649682,1.139203111197676 142.05934596046995,1.4359703083222706 142.2268758297029,1.6178598806384328 142.53800272991072,1.8045360205776773 142.91135501007452,1.928986780988901 143.03700241198138,2.0055718641707476 143.32778639941662,2.283192790018434 143.6209636706991,2.6373987994759194 143.8495222782497,2.699624179717194Z"/></svg>