<svg xmlns="http://www.w3.org/2000/svg" width="256" height="256"><path d="M95.55325899739296,0.30749705367093055 98.0973619798951,1.0733387726358152 99.35635935085303,1.5374852690462848 99.78859577556071,1.607107243568373 101.40440576550127,1.3344211765965355 102.08757138965093,1.2880065272321415 103.42054210861963,1.0559332791133607 104.71580092459612,0.8644728494153665 105.21765932365298,0.8876801739678825 105.84280663577294,0.9456984863433938 107.49487807090497,0.9515003176328173 108.14323270775037,0.9631039800387564 108.97869640097798,1.3982413202614703 110.14051309945907,1.3982413202614703 110.97887770820172,1.6303145683802511 112.28428972886987,1.9030006344875485 113.78406309483748,2.355543468751441 115.58553168335952,2.8545009518610036 120.11096002167574,3.115583356081086 121.89647357447606,3.3418547728239894 124.85975886130629,3.684162813972099 125.7909527693829,3.8060012694938212 126.5625963194643,3.8988305685684255 127.83029643731314,3.8930287371925476 128.8746260537612,3.8756232440159093 137.3104886228789,4.711086936897704 141.01495784597492,5.3608920317167446 142.70329072612552,7.350920134162382 144.44819146033214,9.404768380013591 145.98857764472055,11.563049587950523 147.07932191096526,12.27667482582932 148.44710361697886,13.477653884498194 148.39778805184008,13.564681352802099 148.03952497497028,14.09844982312948 147.95974979592944,14.110053485794781 147.63194633296166,14.214486447275323 147.5376665759134,14.313117577725805 147.5855316833379,14.707642099614187 147.55362161172158,14.783065905166337 147.39842262704212,14.81787689272997 147.25772822037013,14.841084217282486 147.1329888495063,14.916508022834636 146.66304052215222,15.403861843797621 146.63258090833662,15.548907623871859 146.616625872442,15.717160729017337 146.41501223822524,16.007252289165812 146.38310216652246,16.1987127186909 146.33523705909798,16.308947511806682 146.16408303861036,16.477200616692798 145.7579548544025,16.755688514435334 145.57084579810675,16.836914151363363 145.35037621248034,16.836914151363363 145.17777173410556,16.77889583898785 145.03707732752,16.697670202059825 144.800652705999,16.488804278839375 144.61209319181603,16.169703562762507 144.5497235063841,16.11748708176287 144.471398785144,16.204514550326138 144.37856948598295,16.37276765495289 144.09863113035323,17.17922219225211 144.0188559513124,17.289456984762715 143.91007161625672,17.40549360890856 143.86365696671942,17.56214305173455 143.83174689501664,17.608557701098945 143.75487263166374,17.608557701098945 143.64463783872085,17.57374671414049 143.55035808175904,17.457710089908193 143.48653793843994,17.40549360890856 143.44157374670337,17.446106427502254 143.3617985675761,17.60275586998243 143.36614994097832,18.681896473994122 143.39806001259464,18.716707460693218 143.50684434765034,18.884960565579334 143.7896836187951,19.16344846332187 143.88396337601625,19.302692412625408 143.96373855488417,19.523161998251798 143.96663947057212,20.312211041509833 143.88686429144482,20.579095277105793 143.77807995638915,20.677726407729185 143.65334058561177,20.689330070135124 143.466231529316,20.74734838173255 143.57501586437166,20.88079049966021 143.93617985675652,21.153476566026868 144.2335237059087,21.310126008507048 144.4844529053507,21.321729670912987 144.64110234783087,21.22890037183838 144.76584171878116,20.950412474182297 144.92249116126135,20.735744719585973 145.32716888766848,20.22518357381111 145.49977336587037,19.987308494662265 145.75070256548526,19.87707370128712 145.9218565858864,19.842262714588028 146.2206508929258,19.819055389689694 146.53394977779968,19.720424259066306 147.06626779067213,19.43033269891783 147.2533768469679,19.36071072439574 147.59858580363104,19.262079594291077 147.691415102965,19.192457619509625 147.80019943802068,19.070619164247265 147.98730849423,18.7109056295767 148.1599129724319,18.275768289353987 148.20487716434135,17.92765841743518 148.25274227176584,17.794216299507518 148.76765479094294,17.3996917778785 149.11141328980534,17.20823134835341 149.4247121747657,16.99936542461424 149.5494515455431,16.831112319728124 149.59731665296758,16.61644456565052 149.5799111593587,16.0652706010226 149.51609101621247,15.60692593624737 149.54655063002807,15.53730396146592 149.70320007250822,15.427069168868861 150.20795938708014,15.038346478096996 152.53014232615513,17.144411204688478 155.55724775621803,20.370229353885346 156.69730758760153,21.79167799869933 157.4747529688859,22.80119662758376 159.6663947057212,26.114042244479354 161.40694406661203,29.53712265466364 163.14314205418714,30.82512918163642 164.5761943613206,32.0377119029706 165.41891034346546,33.14586166282423 165.50593781159645,35.85531683426518 165.4914332335026,35.942344302828445 166.73447556882525,36.78941165837554 167.33496509824616,37.17813434871514 169.22491161261348,38.176049315452985 170.21557429060698,38.88387272264754 171.69794216287923,40.21249206812756 172.24331429595836,40.80427885057109 172.7683800198271,41.23361435967728 173.3500135979248,41.58172423168255 174.32036986662146,42.086483546686715 174.43640649068084,42.127096365021046 175.36905085664463,42.42879158757546 176.7455353094627,42.858127096422294 177.73909890305768,43.27005711183313 178.6021212944994,43.71099628334527 178.57021122279662,43.76321276443136 178.20904723041178,44.1519354546845 178.15683074967149,44.314386728540555 178.10316381095757,44.54645997631352 178.0494968723301,44.807542380533604 177.9610189464848,44.97579548576553 177.90880246574454,45.01640830401341 177.7652071433846,45.0686247850995 177.03417641181045,45.167255915204166 176.98050947318296,45.19626507139192 176.83836460879667,45.30069803287247 176.7846976701692,45.42833831916489 176.7846976701692,45.75324086687699 176.76729217647383,45.851871996981664 176.55262442196397,46.287009337204374 176.53666938624227,46.443658779684554 176.55552533773837,46.50747892334949 176.6265977698883,46.65832653428088 176.73393164705678,46.785966821092025 177.0370773274984,47.070256549951075 177.0747892303177,47.575015864350064 177.18357356537336,47.76647629413451 177.41419635560496,47.92892756799056 177.50412473933744,47.957936724091866 177.77100897458757,48.07977517909487 177.9856767291839,48.27123560913868 178.02193817420246,48.32925392064965 178.05965007702176,48.451092375912005 178.05965007702176,48.72377844253803 177.91750521246254,49.61726044814115 177.4722146677211,49.646269603983086 177.4011422354847,49.60565678538939 177.34022300785355,49.576647629806814 177.09654609724237,49.46641283643167 176.738283020459,49.26334874476001 176.1131357084255,48.9210407036119 175.7925845344614,48.799202248435996 175.4517269512005,48.68896745532021 175.1848427158639,48.64835463698588 175.07750883860896,48.65995829939182 174.88169703550875,48.68896745532021 174.739552171036,48.7701930925076 174.685885232495,48.85141872943563 174.70329072601743,49.08349197720859 174.72214667751354,49.12410479554293 174.93681443193697,49.553440304908484 175.09781524790583,49.75650439658015 175.27767201511142,49.94796482653751 175.7055570663304,50.20904723084404 175.77807995636755,50.23805638668598 176.0812256367227,50.45272414102294 176.259631946214,50.53394977795097 176.70637294892913,50.70220288309645 176.86882422261226,50.82404133809945 176.90363520974364,50.87625781883972 176.99356359338967,51.0271054305492 176.97615809978075,51.18955670380007 176.88622971622118,51.410026289772276 176.8325627775937,51.46804460154261 176.8151572839848,51.52026108228288 176.58308403577956,51.81035264243136 176.51201160362965,51.87997461695345 176.46124558051721,51.949596591734895 176.4235336776979,52.23388632024813 176.42498413549865,52.39633759436355 176.49750702553575,52.58779802406154 176.56857945777213,52.7386456352523 176.83836460879667,53.2492067807678 176.90943704094659,53.492883691811244 176.9108874988338,53.86420088854193 176.7687426342746,54.50820415233091 176.71652615353432,54.74027740010387 176.52071435034765,55.27404587103643 176.4133804730927,55.43649714428731 176.28864110231532,55.53512827499715 176.14794669555684,55.60475024943278 175.82594506379203,55.69757954850739 175.57646632223725,55.865832653739325 175.39951047046023,56.16752787629374 175.29072613540455,56.248753513221764 175.0078868642598,56.353186474702305 174.7018402682167,56.46922309858879 174.16807179762995,56.82313480188348 174.0621883780893,56.93336959499926 173.97225999444328,57.08421720636292 173.99111594593938,57.3743087665114 174.08104432949895,57.4961472215144 174.08249478738617,58.14015048495756 174.02882784875868,58.209772459479645 173.85042153918093,58.401232889437004 173.42398694584912,58.70292811207787 172.76257818862413,59.10325446473695 172.6915057564742,59.15547094547723 172.47828845967862,59.404949687550726 172.3883600760326,59.56740096088806 172.33614359529233,59.70664491010515 172.33759405300663,60.17079140599689 172.24911612716133,60.45508113537467 172.1432327077936,60.646541564553935 171.98078143402398,60.81479466969942 171.8212310760288,60.93663312470241 171.75015864379242,61.01785876163044 171.67908621146958,61.186111866516555 171.66168071786066,61.569032725999 171.5920587435115,61.801105974377144 171.48472486625656,61.98096274140983 171.35998549530626,62.1144048593375 170.98576738271473,62.375487263038856 170.86247846982454,62.52633487474833 170.80881153102416,62.73520079796878 170.63040522153284,63.33859124281825 170.52452180207865,63.51264617908024 170.38092647980514,63.68089928370699 170.22137612180993,63.79113407708214 169.75722962548593,63.99419816866735 169.5077508838447,64.18565859871116 169.0987217839489,64.80645453760181 169.01169431599078,65.0791406037091 168.86809899380376,65.31121385200079 168.77962106778557,65.4910706193793 168.74481008056773,65.531683437973 168.68969268413954,65.58389991871327 168.47792584523114,65.92620795960201 168.3894479194723,66.02483908970669 168.22844710350344,66.21629951975049 167.99637385547112,66.42516544297094 167.76575106506664,66.59922037923293 167.4800108783204,66.80808630245338 167.87018402680653,67.16199800548871 167.92675188094904,67.21421448648834 169.17849696298973,69.54074879905203 170.7493427611937,71.38573112168278 171.64427522425177,72.6563321547873 172.0837639378767,74.53032363334646 172.0823134801624,74.6927749072025 171.78642008881096,77.22817514298664 171.69068987387553,79.79258453435335 173.31520261079342,83.57537847868947 165.63647901357683,96.42063276215045 164.73864563500373,97.4127458981176 160.4728492430204,100.87643912611749 158.8019218564787,102.47774453830999 157.66186202518168,104.39815066623353 156.9395340403255,106.55643187408401 153.58462514720838,111.42997008457841 151.68017405500655,113.54183664254577 150.88677363791402,114.24966004887578 150.60538482448354,114.36569667302163 149.39715347646512,114.56295893383614 149.2898195992102,114.6093735838057 148.83872722326578,114.74861753224471 148.39053576283638,114.90526697472488 147.98730849423,115.06191641746443 147.53331520259763,115.24177318484293 147.14314205411148,115.42162995187563 146.76022119480194,115.65950503128383 146.31783156557552,115.86256912373358 145.92040612817212,116.05402955291285 145.5273320641709,116.25129181398673 145.16471761398532,116.50077055554151 144.7687426342962,116.72704197254377 144.67156196164646,116.79666394732521 144.38147040149798,116.97071888332785 144.18565859848422,117.05774635102658 143.73166530685185,117.20859396273606 143.4995920586466,117.26661227450639 143.26606835281356,117.31882875524666 143.19644637829145,117.4174598859565 143.29652796662913,117.5509020036248 155.65297797106703,134.25437403697404 155.77626688421657,134.45163629778855 155.89955579719322,134.60828574000936 155.96627685602738,134.78234067653074 155.98948418083924,135.13625237956606 155.93581724221178,135.34511830278652 155.91260991739992,135.39733478378614 155.9053576283962,135.69322817531048 155.91551083308784,135.7744538122385 155.97207868723035,135.83827395538472 156.19254827302964,136.064545372387 156.48263983317813,136.33723143875366 156.81624512734885,136.58671018030844 157.19046323994039,136.81298159757006 157.5762850148514,137.01024385838457 157.97516091005556,137.2249116129809 158.32327078223375,137.4511830298967 158.65252470308872,137.71226543394388 158.9730758770528,137.97914966919402 159.2834738463252,138.26343939831244 159.60547547809,138.51291813986722 159.9506844346667,138.76819871305725 160.3394071253521,139.02347928564208 160.7353821048683,139.2787598588321 161.13135708455744,139.47602211964661 161.5461880154833,139.67908621149118 161.9827758135932,139.82413199156542 162.4280663583347,139.9633759406096 162.84434774714774,140.091016226902 163.23161997994595,140.28827848771652 163.3055933277838,140.32308947528017 163.38681896462538,140.35209863138147 163.56957664751894,140.36950412464455 164.0337231437565,140.36950412464455 164.12655244300402,140.35209863138147 164.3078596680968,140.28827848771652 164.58199619252358,140.06780890209015 164.85033088557446,139.77771734194167 165.05339497776484,139.46441845724067 165.2390535761734,139.14531774090446 165.3695947782402,138.88423533694373 165.44791949948032,138.90744266149625 165.5073882693972,138.9132444931315 165.5552533768217,138.9306499863081 165.93092194730042,139.18012872838162 166.2674281569862,139.4354093010529 166.63294352268684,139.69649170501364 166.86066539748984,139.99818692756807 167.0158643820828,140.33469313768612 167.11449551261975,140.69440667201084 167.17686519796524,141.0599220380573 167.19282023385986,141.41963557238205 167.19282023385986,142.5161816700891 167.22473030538973,142.8816970358762 167.2914513642239,143.25881606372337 167.33786601393408,143.62433142942402 167.41328981948624,143.98404496409458 167.5133714078239,144.3437584990245 167.66857039241688,144.68026470853738 167.8687335690058,145.00516725624948 167.97751790406147,145.37648445298018 167.98186927737726,145.75360348117317 167.98186927737726,146.63548182402454 167.94850874804663,146.66449098021232 167.6482639832065,147.05901550184132 166.95494515445165,147.6333967907624 166.780890218449,147.8770737015465 166.6982141238067,147.98730849431644 166.70546641272395,148.12655244336062 166.72287190633287,148.17296709298438 166.74462877343046,148.21938174243522 166.90853050491435,148.56168978358335 166.93028737183903,148.69513190125164 166.92158462512103,149.0606472666929 166.84616081939598,149.18828755350404 166.6851600036,149.35073882684136 166.62424077596884,149.46097361995717 165.26806273218827,150.20940984514024 164.4413017857651,150.9810533948758 164.3557247755213,151.06808086317972 164.37458072693096,151.10869368177342 164.4108421719495,151.1841174870662 164.69658235878222,151.50902003469184 164.99537666564868,151.80491342595684 165.16072885493332,152.01377934891792 165.2013416733541,152.0369866737298 165.24630586526357,152.0485903363951 165.30287371940608,152.0485903363951 165.46387453537494,152.05439216751162 165.93672377841696,152.05439216751162 166.42117668377844,152.0369866737298 166.83455715699003,152.0311848429591 167.26969449721275,151.94995920603108 167.40893844608402,151.93255371224927 167.65696673001096,151.93835554362514 167.70773275320985,151.94995920603108 168.18493336956763,152.02538301132387 168.63457528771133,152.0311848429591 168.74045870725197,152.01958118055316 168.79267518799224,152.0079775178014 168.95512646167538,151.9905720243654 169.04650530312216,151.9905720243654 169.21620886580902,152.00217568677135 169.32354274306394,152.0079775178014 169.59912972529145,152.10080681739475 169.6542471216332,152.12401414229308 169.82395068432007,152.15302329787565 170.314205420971,152.22264527239776 170.77690145949427,152.245852597469 171.25990390714148,152.2806635845139 171.7371045235857,152.3270782338783 172.20415193551122,152.3386818965436 172.66684797377513,152.35028555894954 173.1382467590164,152.367691052472 173.59369050853599,152.40830387080632 174.0766929561832,152.46632218318183 174.29716254180957,152.47792584558778 174.34357719160624,152.47792584558778 174.3943432144593,152.47212401395254 174.47556885138735,152.43731302699408 174.54809174142446,152.3850965462538 174.590155017646,152.35028555894954 174.63802012507048,152.3270782338783 174.6931375214987,152.3038709090664 174.74680446012616,152.28646541554394 174.79902094086643,152.2806635845139 174.8526878794939,152.2806635845139 174.91505756492583,152.28646541554394 174.97452633475626,152.3038709090664 175.026742815583,152.31547457147235 175.07460792309394,152.3386818965436 175.11812165702975,152.3618892214419 175.248662859183,152.47792584558778 175.2762215573107,152.5127368325462 175.35309582075,152.88405402936337 175.36469948324242,152.95947783543423 175.4821865650161,153.09291995284318 175.51554709451963,153.12192910877155 175.55470945505323,153.14513643358345 175.5982231890755,153.15093826495934 175.6896020306087,153.16254192736525 175.82594506379203,153.14513643358345 175.9231257364418,153.1335327711775 176.08702746792568,153.07551445932071 176.1290907441472,153.0581089658847 176.20161363418433,153.0058924848851 176.23932553709008,152.97688332869734 176.28574018662738,152.95367600414482 176.43803825570532,152.94207234173888 176.5323180127536,152.95947783543423 176.94714894385234,153.08711812181312 177.38953857316523,153.25537122669922 177.8420814069104,153.39461517565695 177.98712718698465,153.43522799373193 178.07270419714197,153.4642371496603 178.36859758866635,153.47584081206625 178.8399963739076,153.4584353185438 179.32880065267133,153.43522799373193 179.41872903631736,153.42942616296122 179.46224277033963,153.41782250055527 179.6493518266354,153.35400235706325 179.69286556057122,153.34239869439796 179.73782975239425,153.330795031992 180.212129453237,153.31919136958606 180.448554074758,153.34239869439796 180.93300698020596,153.4062188380629 181.3942525609285,153.43522799373193 181.86275043048184,153.44683165613785 182.1354364970214,153.4990481371375 182.5386637658007,153.64409391721173 182.970900190249,153.77173420384997 183.41474027736263,153.84715800914276 183.48291179391106,153.8587616715487 183.71063366871408,153.89937448988303 184.32707823402959,154.27649351850832 185.18284833638114,154.89148762585017 185.7108149759378,155.39624694050852 188.34774725760101,158.3087662044857 188.94823678710836,158.906354818478 189.06862478456998,158.97597679248136 195.79584806441312,163.01985314103757 195.8582177499315,163.12428610303684 195.9524975068933,163.15329525870587 196.36152660670265,163.35055751952038 196.48191460416427,163.40277400077937 196.52397788038581,163.42017949404246 196.68207778066673,163.51300879337643 196.72414105688824,163.53041428715824 196.8590336323573,163.5652252741167 196.90689873978178,163.57682893652265 197.07660230246864,163.64064907966886 197.11866557869018,163.65805457345067 197.15927839711097,163.68126189826253 197.4595231619511,163.94814613359915 197.727857855002,164.2324358626311 197.90916508009477,164.37748164270533 198.31964463770487,164.58054573463636 198.7388269421194,164.7255915147106 199.1638110778234,164.90544828200265 199.59604750235818,165.09110688041125 199.77010243844725,165.12591786797486 200.1675278759371,165.1375215303808 200.65923307030232,165.10851237419305 201.11612727762264,165.01568307485908 201.5759224005444,164.92865560716035 202.03426706549257,164.80101532026276 202.0922853774358,164.78941165785682 202.14885323175122,164.77780799545087 202.59994560769564,164.77780799545087 202.73048680976245,164.79521348949206 202.99737104509904,164.8648354639277 203.43685975881044,164.98087208790062 203.53549088917447,164.998277581596 204.00979059010368,165.03308856890027 204.0663584442462,165.02728673726503 204.1113226360692,165.01568307485908 204.33034176406775,164.98667391893068 204.43477472563475,164.96926842540825 204.91632671556766,164.91125011337854 205.4022300787299,164.83002447645052 205.56468135258598,164.80101532026276 206.04478288445878,164.7604025019284 206.52633487430526,164.7604025019284 206.57419998172975,164.77200616433436 207.05285105597474,164.84742997023233 207.25881606368014,164.8996464509726 207.66349379008727,165.04469223104684 208.05366693857343,165.21874716730883 208.24512736818497,165.28836914174445 208.2958933912974,165.2999728041504 208.7556885142192,165.38700027219494 209.1980781432727,165.50883872745732 209.60565678536778,165.68289366337348 209.75795485444573,165.76411930004215 210.0654519082031,165.89756141771045 210.6993019670411,166.22826579619326 211.2475750157217,166.48934820041333 212.45870727942804,166.99410751515813 213.22164808261854,167.1855679451155 214.21666213384134,167.3364155560469 216.36043876333858,167.64391261023655 218.41573746699055,168.02683346945963 228.6472667934273,183.32046052040081 229.0649986400411,183.8310216661757 231.50611911869052,185.62958933944205 233.15964101170974,186.96401051569276 234.58108965626437,187.68923941606397 234.6710180399104,187.77046505325134 234.92194723943882,187.96192548277645 235.14676819864036,188.0953676007041 235.46296799911573,188.2346115491431 235.7748164263618,188.3680536668114 236.2882784878246,188.5595140965094 236.84960565662544,188.75677635758328 237.31230169506227,188.9018221376575 238.02012510182456,188.9946514367321 238.411748708025,189.09908439881784 238.7714622426091,189.1977155289225 239.10216662117836,189.29634665963235 239.38790680792462,189.32535581547427 240.0101532044431,189.57483455702905 245.47402773983964,193.63611639910772 246.2355180852294,194.01903725884952 246.36170791389398,194.07705557044696 246.4893482003593,194.10026289525882 246.6155380290239,194.10026289525882 246.6706554254521,194.09446106448814 246.75913335129738,194.09446106448814 246.89402592676643,194.07705557044696 247.04632399593083,194.0132354275601 247.11594597028002,194.430967274001 247.13625237957686,194.55280572926335 247.2885504486548,195.44628773452067 247.39443386802256,196.06708367315196 247.4611549268567,196.46160819504033 247.51337140768342,196.66467228723073 247.60910162261888,196.8619345483046 247.69757954837772,196.99537666597288 248.10660864818706,197.39570301863196 248.2516544282613,197.55235246111215 248.3749433413244,197.6799927477504 248.48952950758306,197.8076330340428 248.56205239762016,197.94107515171112 248.56495331322165,198.13833741252563 248.54319644621052,198.27177953045327 248.07614903437147,198.59668207756022 247.73384099339626,198.81715166379178 247.4234430240374,198.99700843082448 247.00716163522435,199.2116761854208 246.77798930270703,199.3393164717132 246.54881697018973,199.46695675800564 246.3268969267626,199.59459704490322 245.98748980130244,199.81506663052963 245.7873266248,199.93110325441612 244.6139062639994,200.6157193361936 244.37603118476412,200.75496328549713 244.15411114116407,200.89420723393613 243.92783972433472,201.03345118289386 243.7508838725577,201.13788414497958 243.5405674915365,201.24231710646012 243.3505575195528,201.35255189897075 243.07061916409597,201.54981416030395 242.97343849144625,201.63103979671328 242.88641102331525,201.72967092768246 242.7892303506655,201.92693318849697 242.73266249660946,202.08938446200722 242.72976158083506,202.26924122938573 242.70800471391038,202.46650349020024 242.68334693129776,202.81461336237842 242.66739189540314,202.99447012975693 242.66159006420017,203.12211041604934 242.6470854862792,203.25555253371763 242.5557066448324,203.4818239507199 242.47012963450217,203.5978605746064 242.4106608647582,203.65007705534666 241.99002810245645,207.25881606368014 242.08865923290693,207.38645635057776 242.12347022012474,207.50829480575365 242.12927205132772,207.57791677975703 242.06690236598223,207.88541383394667 241.9044510922991,208.23352370612486 241.70283745790945,208.52361526627334 241.4345027647721,208.73828302035093 241.18647448084516,208.83691415132014 240.91523887210633,208.97035626898844 240.37131719682796,209.4403045961696 239.76502583620407,210.1017133533946 239.13842806619692,211.0474118391328 238.35808176939753,211.83646088290956 238.01867464419672,212.08013779369364 237.93454809158075,212.3064092106959 237.80110597408535,212.45145499077015 237.5081134981625,212.6197080953969 236.88441664384328,212.91560148657544 236.1838455260847,213.25790952772354 235.28601214751163,213.71045236146873 234.692774907008,214.00634575299307 234.19816879695483,214.2616263255779 233.8558607558932,214.40087027488144 233.5875260628423,214.47629408017423 233.3104886229005,214.52270872979798 232.86954945156126,214.58072704191414 232.20088840524613,214.66195267884217 231.39153295243187,214.80119662754052 230.8273048679431,214.93463874520884 230.43423080394192,215.06808086287714 230.11513008777857,215.24213579913913 229.72350648157814,215.50902003473507 229.3811984406894,215.65986764558002 229.01133170141364,215.7701024386958 228.67482549172786,215.82231891943607 228.35282385996305,215.83972441321788 227.8132535580004,215.78170610084237 227.40277400039034,215.70628229554958 227.17505212576023,215.64826398317408 227.00534856307337,215.54963285306943 226.53540023563284,215.2247303053573 225.99437947586947,214.85921493965668 225.83337866007352,214.82440395269822 225.1284561688263,214.83020578346893 224.12764028631403,214.89402592713387 223.1036170789899,214.9984588886144 222.81062460323994,215.06227903210643 222.72794850868408,215.16671199358697 222.53068624769668,215.31755960469127 222.1550176773044,215.4684072161414 221.11213851857062,215.7294896201021 220.35064817318087,215.9441573749578 219.5978605747685,216.1414196357723 219.02347928558805,216.2748617534406 218.77980237506333,216.30387090928255 218.05602393249288,216.2748617534406 217.5077508837258,216.2574562596588 217.18139787855878,216.2574562596588 217.1494878070289,216.22844710347104 217.12483002441627,216.19363611651258 217.090019037112,216.1182123106146 217.0465053031762,215.89194089395815 216.99138790674797,215.54963285306943 216.95367600384222,215.19572114968827 216.94932463052646,214.83600761510417 216.93627051023333,214.4936995742154 216.88695494500809,214.26742815721315 216.7099990933175,214.04695857158677 216.56205239772822,214.14558970169142 215.2247303053573,214.92883691443814 213.17958480648346,215.752696944914 212.1163992383664,216.20523977891852 210.1524793761612,217.01749614698844 208.1624512736291,217.85876167150548 207.3559967363299,218.2997008428447 206.15066630399943,219.0829480555914 204.99320097892056,219.935817242255 204.6508929380318,220.1852959838098 204.50729761567186,220.3999637386655 204.26071978954565,220.7248662857724 203.97207868719792,221.0497688331387 203.7022935363463,221.33405856225713 203.66458163344055,221.39787870540334 203.6471761399181,221.76919590247982 203.69214033165466,222.12890943715038 203.5978605746064,222.41900099729887 203.50938264884755,222.55824494599725 203.17722781247755,222.82512918159318 202.7972078685966,223.0223914424077 202.54337775346667,223.20805004081626 202.2909980961375,223.49233976958888 202.02701477648884,223.81144048566574 201.7398241318554,224.0783247212617 201.3685069349518,224.30459613826397 200.94642371493578,224.4206327624098 200.76366603195578,224.42643459343986 200.67083673270827,224.42643459343986 200.51273683242735,224.5714803735141 200.27631221099278,224.78034629708037 199.39153295245347,225.57519717136847 199.31755960461564,225.61580998996217 198.42697851504627,226.027740005373 197.66258725396858,226.34103889033335 197.43486537933848,226.57891396948222 197.37684706722231,227.0082494789342 197.2463058651555,228.52832925411224 197.2085939623362,229.1839361800478 197.1752334330056,230.62279031803843 197.28401776806126,230.7098177863423 197.28546822577556,230.80844891670634 197.28256731017407,230.89547638475088 197.18973801092656,231.3132082311918 197.06064726674694,231.73674190900857 197.049043604341,231.8527785331544 196.99537666562708,231.945607832229 196.91415102887197,232.03843713156297 196.79376303141035,232.12546459978043 196.72994288809122,232.15447375596818 196.54573474748338,232.57220560249553 196.2846523432633,232.92611730579023 195.83501042503318,233.33224548982517 195.03725863462486,233.81959931078816 194.439670020719,234.27214214505204 194.03499229431188,234.68407216011707 193.50412473924015,235.2758589431658 192.41483093088263,236.41881968997788 191.85350376199534,237.03381379723328 191.46042969799416,237.45734747505006 191.17323905353362,237.71842987927013 190.97742725034695,237.9447012962724 190.72939896642,238.10715257012845 190.48862297149677,238.28700933716115 188.8829661861614,239.42416825294316 188.38110778710453,239.7838817878731 188.30858489706742,239.85930559316589 188.2273592601394,239.9405312303533 188.03009699932488,240.20161363405464 187.86329435215305,240.72377844275417 187.32662496587838,242.08720877501972 187.00317287639928,242.95168162434865 186.81316290441558,243.45644093909345 186.95675822668906,243.92058743524456 187.21784063082268,244.3673284378732 187.79512283560462,245.10416100065032 188.41156740092012,245.66693862777063 188.72051491247825,245.95703018791912 189.04106608644233,246.7634847248725 189.1890127820316,247.40168615702626 189.43704106595854,248.44601577373368 189.4515456440524,248.51563774816933 189.4515456440524,248.66068352824357 189.40803191003013,248.77091832084062 188.6465415646404,249.4033179221372 188.4246215211268,249.60058018295172 188.21430513993272,249.78043695058957 188.04895295073453,249.91387906791206 187.86184389443875,250.0879340039147 187.67183392245505,250.25038527777076 187.51663493786208,250.3838273956984 186.5796391985825,251.14966911440393 186.30550267415575,251.3817423621769 186.0951862930481,251.5615991297283 185.83990572011743,251.77626688406528 185.62523796569403,251.95612365170317 185.0987217839381,252.39706282269657 184.84344121100742,252.53050494036486 184.54029553065226,252.80899283836678 184.32707823402959,253.04686791777496 183.8092647990781,253.6212492069554 183.1231982594134,254.18982866458705 182.66775450989385,254.49732571851735 181.92076874259797,254.96147221492782 181.1433233613136,255.5010425166311 180.65741999815137,256 177.734747529569,255.70410660847566 176.61499410748235,255.19934729407666 174.74100262892318,254.35808176973254 171.21639017303275,251.77626688406528 166.61553802907792,249.908077236882 156.24911612734505,245.62052397780107 144.81805819952143,244.02502039698444 144.73248118927765,243.81035264238812 144.5888858670906,243.49125192665707 144.37711902809576,243.16634937894497 144.2175686700141,243.00969993646478 144.16680264707458,242.97488894950632 143.97679267509085,242.84144683183803 143.91877436314763,242.81823950702616 143.85640467762926,242.80083401324435 143.41546550620356,242.7196083763163 143.36034810977534,242.7196083763163 143.3110325445501,242.7138065451998 143.18774363157345,242.6964010517638 143.09781524792743,242.67899555772263 142.84688604831254,242.6325809086176 142.7497053756628,242.60357175242984 142.59595684887057,242.55715710271963 142.15791859295993,242.4005076599801 141.73148399962813,242.20904723054144 141.6749161453127,242.1800380743537 141.26443658770262,242.01758680101636 141.16870637294008,241.98277581353918 140.84525428328806,241.8667391896527 140.77418185105168,241.85513552724677 140.63638836006763,241.81452270891242 140.24331429597999,241.66367509720294 139.87054664127564,241.44320551183594 139.6863385004949,241.32716888794945 139.36868824221878,241.04868098994754 139.18883147484027,240.89783337849744 139.15837186102468,240.8688242228284 139.0524884415705,240.77599492323506 138.88133442108287,240.65415646831852 138.84652343386506,240.6193454807549 138.77400054382795,240.54392167520274 138.4621521167548,240.2770374401255 138.36207052841712,240.20161363405464 138.19236696573026,240.10298250386353 138.07197896826864,240.04496419183383 137.62523796563997,239.87671108720707 137.30033541836013,239.75487263168534 137.0769649170458,239.61562868264116 136.81443205502498,239.41836642208602 136.66213398594704,239.2849243045042 136.31547457165607,239.02384189993828 135.9862206508011,238.77436315812415 135.65116489891605,238.51328075416342 135.35817242307965,238.26380201234926 135.29000090661765,238.17097271301532 135.27259541283584,238.12455806391029 135.2305321366143,237.86347565934437 135.23343305230225,237.74743903519854 135.24213579902025,237.49796029364376 135.26824403943363,236.77853322464844 135.26389266611784,236.65669476938606 135.2044238962874,236.47103617071815 135.07678360982206,236.14033179197597 134.90272867373298,235.8154292451284 134.68516000362163,235.4673193726044 134.4878977426342,235.13661499386225 134.24567128991023,234.8117124467553 133.93382286275062,234.51581905523096 133.6031184842678,234.283745807458 133.44936995730268,234.21992566431177 133.34638745344995,234.19091650812402 133.25355815420244,234.16770918331216 132.9779711720614,234.0690780526023 132.92865560683614,234.0516725593392 132.79521348916785,233.9936542473095 132.7038346477211,233.95304142871584 132.66467228710104,233.92983410416332 132.62260901096596,233.90082494797556 132.2919046323967,233.59912972542114 132.02066902357143,233.28583084037433 131.71607288550197,233.00734294271825 131.3433052307112,232.8216843443097 130.96038437122874,232.63022391426586 130.87915873438718,232.607016589454 130.52959840440826,232.54319644656715 130.05094733016327,232.5315927841612 129.6651255551658,232.5083854590035 129.20387997461617,232.4271598224213 128.7411839360929,232.27051037985467 128.67301241945802,232.22989756160678 128.3132988848739,232.0036261446045 127.9434321456846,231.77155289622638 127.82304414822298,231.6845254282683 127.43722237331195,231.42344302430757 127.3603481098726,231.3886320370033 127.28057293083178,231.36542471193206 127.10941891025773,231.3306137249736 126.78741727849291,231.28419907552276 126.7134439307415,231.255189919335 126.44220832208914,231.12174780175314 126.10135073874177,230.90127821578096 125.78950231175507,230.6459976431961 125.43414015040028,230.3501042514124 125.07442661590262,230.08902184745168 124.69875804542389,229.86855226208465 124.31873810171584,229.64228084508238 123.9445199891243,229.42181125945598 123.89085305049684,229.39860393455766 123.83283473838068,229.38700027189236 123.77191551074951,229.38700027189236 123.58625691225448,229.40440576567417 123.13516453631006,229.5494515457484 122.70292811160238,229.64228084508238 122.56368416273111,229.64808267611244 122.25473665117298,229.64228084508238 122.1662587253277,229.61327168863525 121.69485994008642,229.5436497146319 121.26117305775091,229.39280210326822 120.8985586075653,229.3521892849339 120.40395249751215,229.3521892849339 119.96156286828572,229.29997280393428 119.5003172875632,229.23035082941217 119.02311667111896,229.1839361800478 118.58942978878343,229.09690871174388 118.36605928746911,229.08530504933793 117.39715347648675,229.09110688071382 116.94316018485438,229.06209772478542 116.63711358889775,228.98087208759804 116.4543559060042,228.88804278826407 116.3687788957604,228.83002447666664 116.02792131267239,228.58634756596902 115.73782975252392,228.29045417444468 115.38681896474426,227.87852415937965 115.32735019491382,227.7798930286698 115.17650258363662,227.46079231233358 114.99954673194605,227.26353005151907 114.9139697216158,227.20551173974872 114.70655425610964,227.10107877826817 114.23515547086836,226.95603299819393 113.79566675724342,226.8922128547019 113.4968724504634,226.79938355562732 113.06898739907149,226.7123560871505 112.5714803735033,226.64273411314713 112.09137884137112,226.63113045048183 112.0290091559392,226.61372495695937 111.6098268516111,226.50929199547883 111.53730396157398,226.50349016418943 111.12537394607669,226.50349016418943 111.05430151392677,226.52669748874195 110.79757048310891,226.62532861945178 110.39434321458899,226.78777989322137 109.93744900726868,226.97924032274645 109.86782703283305,227.01985314134015 109.79240322719446,227.0488622971821 109.63720424251501,227.09527694663294 109.55307769007196,227.10688060903888 109.08312936271788,227.1242861028207 108.62478469768328,227.1242861028207 108.15193545455482,227.13008793385077 108.00108784336406,227.11848427144483 107.92421357992473,227.10107877826817 107.88360076141748,227.08367328448637 107.489076239702,226.86900552963067 107.10615538021956,226.65433777555307 106.64781071527142,226.46287734559573 106.2039706281578,226.38745354030294 105.74562596312322,226.3642462154046 104.73320641829149,226.37004804626176 104.40685341312445,226.375849877897 104.27051037976821,226.3816517086677 104.03843713173589,226.41066086485546 103.56703834649461,226.45707551447921 103.09128818776466,226.50349016418943 102.63294352273006,226.52089565797124 102.18475206230067,226.52669748874195 101.69304686793545,226.52669748874195 101.2477563230211,226.53249932037718 100.77345662226479,226.53830115114786 100.30640921033928,226.53249932037718 100.24984135611034,226.52089565797124 100.17151663487024,226.50349016418943 99.835010425098,226.45127368344913 99.78859577556071,226.42806635863727 99.74508204145198,226.4164626958855 99.6841628138208,226.38745354030294 99.61309038167089,226.3990572024495 99.16634937904223,226.35264255299867 98.9995467318704,226.34684072170924 98.93862750423922,226.32943522792743 98.63258090828258,226.23080409782276 98.5716616806514,226.1959931102591 98.23370501307842,225.91750521277595 97.99002810255371,225.6796301331084 97.58244946063155,225.43595322292947 97.14296074709306,225.31411476740774 96.84851781336945,225.2560964552916 96.65125555255494,225.26770011804336 96.38727223281983,225.31411476740774 96.25673103066656,225.33152026118958 95.93182848330027,225.33152026118958 95.87090925566909,225.31991659878364 95.8114404859251,225.2967092738853 95.75197171609467,225.27350194881407 95.57646632220484,225.2038799748107 95.45462786694247,225.16906898733353 95.28637476205637,225.11685250633388 95.18049134251571,225.06463602559361 94.90925573377689,224.96600489514313 94.82367872353309,224.94859940170713 94.745354002293,224.96020306411307 94.0897470764439,225.0414287010411 93.17160728857397,224.8847792585609 91.9459704468602,224.6875169977464 90.83637022929229,224.50766023010854 89.66294986849171,224.30459613826397 89.49759767929352,223.97969359055185 89.28147946689646,223.0339951045543 88.90290998090269,221.97225999458377 88.58525972271302,221.00335418351494 88.2647085486625,220.5740186749275 88.14722146671592,220.41736923236084 88.00942797573184,220.2897289455497 87.5800924667121,219.9126099177025 86.9883056840092,219.52968905822004 86.29643731296864,219.19898467973724 85.08675550714949,218.71743268954495 83.96845254277711,218.38672831132152 83.20986311298886,218.29389901172817 82.26126371130334,218.2242770375519 80.44819146037536,218.0908349198836 79.07315746527159,218.07923125747766 78.66412836546223,217.9631946335912 78.19998186922467,217.5976792672854 77.60094279751807,217.0465053031762 77.06282295344265,216.58816063840095 76.96709273859365,216.5707551443598 76.92793037797361,216.55334965083733 76.78868642910234,216.4605203517627 76.66394705823849,216.35608739028217 76.35354908887962,216.09500498580275 75.98948418097974,215.87453540017634 75.60221194818152,215.65406581480931 75.51083310673475,215.5960475024338 75.02057836999738,215.6134529962156 74.53757592235016,215.61925482750505 74.08648354640573,215.63666032076813 73.6353911702884,215.67147130798597 73.16254192724638,215.67727313936183 72.75786420083926,215.6656694769559 72.28646541559799,215.5960475024338 71.84697670197305,215.5728401778813 71.4089384462353,215.52062369688167 70.97380110601259,215.44519989124305 70.51400598317726,215.32916326735656 70.08322001627032,215.20732481218067 69.80908349193001,215.1202973436174 69.7539660955018,215.1202973436174 69.6973982413593,215.1202973436174 69.25500861204641,215.0970900190649 68.81842081402296,214.96944973277246 68.4108421721008,214.8069984589164 68.29625600584215,214.7895929651346 68.23098540472229,214.80119662754052 68.18747167078648,214.83020578346893 68.14975976796718,214.85341310854017 68.11349832294862,214.88822409584444 68.04822772191521,214.94624240761476 67.9539479647805,215.03326987591868 67.74363158367285,215.21312664295138 67.4810987219114,215.45100172235956 67.24467410030393,215.6018493338097 67.17650258358259,215.79911159488356 67.00824947878293,216.13561780413707 66.95458254015546,216.22264527270033 66.79068080867157,216.4605203517627 66.51364336872977,216.70999909366333 66.43967002089191,216.77381923680954 66.34974163724588,216.77962106809895 66.24966004890821,216.8028283929973 66.20034448368297,216.82603571754981 66.14957846074343,216.83763937995573 65.99582993377828,216.87825219854943 65.9392620796358,216.87825219854943 65.4910706192064,216.8840540295795 65.14731212043046,216.90726135447784 65.09799655520521,216.9304686792897 64.65995829929456,217.0871181215105 64.52361526611122,217.11612727769827 64.42933550897652,217.12773094010421 63.95648626602095,217.13353277113427 63.47638473388877,217.16254192706268 63.434321457667245,217.17414558972797 62.96437313031317,217.27277672017846 62.85558879525749,217.29598404473097 62.598857764439636,217.33659686332467 62.394343214534956,217.377209681659 62.226090109648844,217.38881334406494 62.13181035268704,217.4120206688768 62.018674644142685,217.4352279940345 61.966458163315956,217.45263348721116 61.918593055891456,217.46423714987645 61.422536488037565,217.51645363087607 61.0077055571117,217.58607560487945 60.566766385686016,217.62088659235664 60.10552080496348,217.6092829299507 60.06055661314047,217.5976792672854 60.01849333691894,217.58027377410875 59.78932100440164,217.53966095577442 59.7313026924584,217.52805729336848 59.666032091424995,217.52805729336848 59.31502130364534,217.53966095577442 58.88858671014063,217.60348109892064 58.76819871267901,217.6150847610672 58.61009881239809,217.6614994109503 58.502764935143155,217.69631039799523 58.46505303232385,217.71951772254775 58.029915692101135,217.80074335973512 57.95884325986476,217.1045236155517 57.97769921127441,216.41990753351484 58.095186293221,215.73529145139153 58.13579911164179,215.00426071973092 58.277943976028084,214.70836732846593 58.69567582264189,214.35445562491188 59.08149759763936,214.34865379414117 59.43976067442273,214.38346478084028 59.654428429019056,214.54591605495568 59.82123107601797,214.8069984589164 60.086664853553835,215.2305321367332 60.389810533995444,215.48581270983675 60.57982050580624,215.5728401778813 61.122291723370346,215.4742090474308 61.69957392797936,215.2479376301692 62.434956032955746,214.7431783157702 62.88749886687382,214.25002266317196 63.26896926838261,213.76847067384423 63.525700299114014,213.28691868365195 63.84480101527734,212.64871725158466 63.99564862655455,212.3122110414666 64.15229806903473,211.92929018198416 64.38147040155202,211.459341854803 64.46559695399507,211.146042970102 64.55262442203961,210.88496056553612 64.74118393622258,210.72250929228522 65.1763212764453,210.41501223809558 65.23433958838854,210.02048771646656 65.20097905905791,209.73039615631808 65.11105067541189,209.5099265706917 64.91088749890945,209.25464599750168 64.46849786959656,208.95295077520663 63.889765207186805,208.39597497946218 63.1384280663158,207.82739552157116 62.36098268520434,207.38065451894252 61.09908439864492,206.39434321461061 60.44057655693497,206.10425165446213 60.08811531144103,205.96500770541795 59.44411204782496,205.6459069896869 59.001722418684984,205.3442117671325 58.20397062827668,204.8626597769402 57.718067264941524,204.41591877431154 57.406218837868366,204.10842172038124 57.39171425977449,203.8183301602328 57.39316471766168,203.7196990301281 57.29598404501195,203.7196990301281 57.237965732895795,203.71389719875222 57.162541927343646,203.6964917052298 57.110325446603376,203.68488804282384 57.02764935178815,203.68488804282384 56.966730124156975,203.68488804282384 56.86374762030427,203.68488804282384 56.76511648994023,203.67328438015855 56.5809083491595,203.5978605746064 56.48807904991199,203.55144592515555 56.37349288365334,203.47022028857333 56.09210407030932,203.15692140352652 55.8382739551794,202.8552261809721 55.362523796622355,202.40268334705402 55.10289185028947,202.08938446200722 54.895476384696856,201.76448191438158 54.6401958117662,201.42217387349282 54.27177953037763,201.05665850805156 54.158643821919725,200.6099175054229 54.04405765574753,200.00652705996825 53.99329163263509,198.7475296892697 54.078868642878895,197.76121838467841 54.01939987304846,197.14042244604713 53.88160638206438,196.99537666597288 53.559604750213126,196.93155652282667 52.96056567850652,196.9199528603343 51.91913697757349,196.91415102904486 50.89801468585085,196.99537666597288 50.18438944805851,196.94896201600332 49.493971534818684,196.74009609278286 48.74553530963562,196.23533677803806 48.69767020229757,196.246940440444 48.29299247571754,196.12510198552746 47.84915238869037,195.80600126919123 47.515547094519626,195.40567491592697 46.66702928125824,194.10606472689406 45.88088115316942,193.17196990330243 45.1222917232947,192.0638201434488 44.935182666998934,191.86655788263428 42.87988396334698,191.77953041407102 41.95014051307111,192.78904904382 41.30033541851144,193.63611639910772 40.031184842861855,195.09817786260186 39.35817242323093,195.5623243586665 39.08548635660491,195.75378478845096 38.54591605472875,195.8814250747434 37.97298522343551,195.8756232437133 37.243404949748545,195.81180310022128 36.651618167045655,195.78859577540942 35.967002085008794,195.7189738011467 35.383918049110356,195.53911703359526 34.847248662835675,195.2258181488943 34.51364336866493,194.95313208252762 33.89139697214645,193.91460429685026 33.375033995168614,192.99791496704043 32.76874263437185,191.9303780257805 32.23787507930014,191.0136886953655 31.70120569311191,190.07959387177385 31.338591242926316,189.4529961021125 31.218203245464696,189.2789411658505 31.1703381380402,189.24413017889208 31.08040975439417,188.93083129384527 31.05865288729658,188.88441664422152 30.838183301670195,188.67555072100106 30.47846976699963,188.41446831643515 30.349379022906465,188.3506481735483 30.268153385891985,188.3100353549546 30.21448644735097,188.27522436747742 30.054936089182856,188.17079140599688 29.94760221192792,188.1243767562867 29.90553893570639,188.1069712628507 29.851871997165375,188.1011694314748 29.627051037963852,188.07796210666294 27.676185296051806,188.01414196377607 26.817514277925863,187.98513280732897 24.872450367216786,187.93871815822394 23.1377028375289,187.95032182062985 23.00716163537563,187.7820687156573 21.54800108791525,185.96609554869556 19.917686519880817,183.9528601216974 18.82259088032032,182.71707007555136 17.617260447816946,181.02293536376553 15.927477110038529,178.5223461158044 14.733750339941096,177.11830296416704 14.291360710801124,176.82240957324788 14.018674644261557,176.81080591049613 13.189012782150462,176.85722056020631 12.407216027550318,177.06608648342677 10.8972894569775,177.73329707194117 9.39171425980691,178.30187652983219 7.762850149659672,178.82404133809945 6.1716979421588265,179.31719699035185 3.4796482641538775,180.03082222805776 2.774725772820173,180.1236515273917 2.03934366793024,179.98440757869335 1.087843350556785,179.4042244583964 1.0791406038387847,179.3346024838743 1.0457800743352559,179.26498050935223 1.0211222917226355,179.23016952213442 0.7542380563860376,178.95748345602712 0.4525428338316225,178.64998640183745 0.1943613452994789,178.33668751713645 0.13489257546904135,178.28447103639618 0.02610824041336284,177.9363611638722 0.024657782612620457,177.5650439667957 0.014504578093877821,177.211132263501 0,177.11250113339634 0.1087843350556785,177.00806817157 1.0472305321359983,176.11458616605333 4.7560511286342635,171.59495965894007 5.561055208046285,170.34756595064744 6.135436497140267,169.8718157920904 7.098540476919662,169.33804732115783 8.676638564127371,168.5954129272642 9.535309582253314,167.99782431353123 10.832018855944094,167.22618076319046 11.229444293347505,166.93028737201192 11.287462605463654,166.72722327982154 10.855226180755972,165.9091650801164 10.631855679441646,165.4392167529352 10.682621702554082,165.2651618166732 10.647810715249811,165.0504940620769 10.552080500400814,164.8648354639277 10.523071344385967,164.83002447645052 10.351917323898366,164.49351826693763 10.18076330349722,164.17441755060142 10.089384462050448,163.890127821483 10.1082404134601,163.70446922333377 10.13289819607272,163.54781978085362 10.089384462050448,163.4317831564484 9.892122201063032,163.12428610303684 9.729670927379885,162.78197806188874 9.645544374936827,162.43386818971055 9.53240866647892,162.10316381122774 9.406218837900788,161.75505393870375 9.313389538566822,161.40694406704432 9.204605203511143,161.0356268699678 9.043604387715193,160.69331882881968 8.895657691953016,160.34520895655507 8.791224730386018,160.0087027470422 8.711449551345188,159.6373855499657 8.676638564127371,159.38210497677568 8.634575287905841,159.01658961107506 8.528691868365193,158.64527241399855 8.354636932362563,158.2797570485573 8.122563684157328,157.93744900740919 8.116761852954358,157.86782703288708 8.097905901544708,157.72858308418873 8.064545372214086,157.6879702658544 7.803462967994004,157.41528419914192 7.775904269866353,157.36886954951817 7.629408031991373,157.03236333991885 7.507569576642559,156.67845163610542 7.4219925663987585,156.34194542659256 7.395884326158304,156.24911612751796 7.348019218560897,156.16789049033056 7.131901006250282,155.8661952680355 7.114495512641374,155.77336596870154 7.120297343844343,155.03073157454853 7.12174780173154,154.98431692518415 7.1449551264569635,154.8392711451099 7.1986220650844315,154.8218656513281 7.23778442579093,154.78705466436963 7.2856495332154285,154.71163085873104 7.34366784515867,154.60719789673178 7.363974254455517,154.37512464869943 7.336415556154958,154.21847520647862 7.3277128094369575,154.17206055650905 7.320460520346791,153.99800562085224 7.242135799106703,153.64409391721173 7.217478016494082,153.53385912444176 7.1986220650844315,153.4642371496603 7.031819418085512,153.14513643358345 6.833106699383806,152.8318375486231 6.615538029272449,152.46632218318183 6.440032635382621,152.1066086482519 6.281932735101702,151.78170610114498 6.089021847602965,151.3987852419219 5.87870546649532,151.0274680448454 5.687245036710872,150.31384280662078 5.542199256636634,149.9831384278786 5.346387453622866,149.62342489372676 5.109962832101859,149.29272051498458 4.931556522524092,148.96781796735894 4.6791768651949175,148.60230260191767 4.654519082582297,148.5558879519481 4.648717251379328,148.4746623155388 4.664672287187494,148.39923850946792 4.711086936897704,148.31801287305862 4.728492430506613,148.27159822343486 4.751699755232036,148.23678723587122 4.763303417637975,148.14395793679662 4.291904632396702,147.33750339984323 3.6058380927320104,146.15973166520814 3.0285558879500893,145.1792221919063 3.898830568395517,144.86592330694594 5.179584806451039,144.29734384905493 7.437947602293378,143.28202338853526 10.343214577180365,142.2841084217974 12.913425800095863,141.44284289753975 15.221104161076989,140.67700117857484 16.950049859561908,140.12582721446566 18.757320279286912,139.45281479483475 20.072885504473795,138.83201885620346 21.843894479266694,137.88632037011942 24.071797661120538,136.51708820578634 25.097271326331853,135.9949233978649 26.417187924920967,135.31030731582806 27.57610370771413,134.81134983245911 28.571117759109853,134.37041066086053 28.662496600556626,134.3123923487444 29.01640830385131,134.08031910071205 29.448644728558993,133.90046233367937 29.499410751498523,133.88885867127343 29.65025836277573,133.86565134611573 29.69812347020023,133.86565134611573 30.02592693316801,133.86565134611573 30.217387362866003,133.87725500852167 30.498776176296477,133.87725500852167 30.56404677724343,133.87725500852167 30.626416462761807,133.87145317749162 30.99048137066169,133.71480373501143 31.031094189168932,133.6915964104589 31.16163539114929,133.57555978596724 31.640286465394276,133.04759314666993 31.999999999978385,132.89674553556563 32.279938355521665,132.79231257382574 32.81225636839412,132.6414649623756 33.19372677007582,132.21212945352877 33.663675097429895,131.6203426708259 34.36134529967344,131.23742181160281 35.46804460163987,130.86030278289107 36.28610280117212,130.61662587271215 37.1273683256027,130.27431783182342 37.759767926726376,129.82757682919475 37.94832744082289,129.63031456838024 38.77508838724604,128.75423805629958 39.59749796026697,127.86075605130164 40.10660864832755,127.18194180029484 40.399601124163965,126.71199347311368 40.59541292717773,125.89973710443859 40.89420723421711,124.31003535473847 41.2104070346925,123.59641011677323 41.3815610551801,123.20768742652008 41.66294986869703,122.92919952877754 41.81234702208704,122.74934276139903 42.12129453364517,122.65651346232444 42.447647538812205,122.5114676822502 42.88568579454995,122.42444021377338 43.36868824219716,122.40703472025093 43.83428519623546,122.45925120125057 44.295530776871544,122.52307134474259 44.76257818879704,122.52307134474259 45.21802193814369,122.5114676822502 45.715528963798334,122.5114676822502 46.20578370053571,122.5114676822502 46.55244311482669,122.4708548636565 46.603209137852666,122.45925120125057 47.06735563409023,122.3490164084806 47.518448010207564,122.25618710914662 47.94198168802434,122.10533949769652 48.33360529422478,121.89067174335955 48.70492249112838,121.67600398884967 49.14005983135109,121.53095820877544 49.57229625605877,121.42652524729489 50.01033451179652,121.31629045417911 50.45707551442517,121.22346115484515 50.91977155294845,121.18284833651082 51.38971988030252,121.18284833651082 51.53331520257602,121.17124467410487 51.771190281897766,121.14223551791711 52.230985404819556,121.14223551791711 52.702384190060826,121.18865016788669 53.19989121571547,121.21185749243921 53.65968633846435,121.21185749243921 53.91351645359426,121.16544284298836 53.98458888591709,121.14223551791711 54.054210860266274,121.11322636198872 54.11803100358539,121.06681171236497 54.14849061740098,121.03780255643657 54.29643731299025,120.86954945155045 54.374762034230336,120.82313480184025 54.43278034634649,120.79412564625767 54.68370954578847,120.71870184035971 54.94044057660632,120.71870184035971 55.31610914691215,120.71290000932964 55.358172423133674,120.74190916525804 55.471308131678036,120.78832381462243 55.55253376843315,120.81153113943431 55.78025564323616,120.86954945155045 55.8861390626039,120.87535128283989 56.00072522886255,120.86954945155045 56.06019399869299,120.85794578940389 56.298069078014734,120.78832381462243 56.72885504492167,120.64907986618343 57.19880337236221,120.61426887887916 57.44393074060122,120.62007070999567 57.50484996823239,120.63167437214226 57.92838364604917,120.77091832135935 58.34901640835091,120.89275677636233 58.705829027419995,120.9507750884785 59.167074607883166,120.9507750884785 59.58915782789919,120.92176593229073 60.12002538314381,120.92176593229073 60.450729761626626,120.8811531139564 60.67119934725301,120.82313480184025 61.145499048182224,120.66648535936007 61.277490707963324,120.64327803454819 61.3398603934817,120.62007070999567 61.566131810311056,120.49823225447396 61.67201522985171,120.3996011243693 61.71842987938901,120.34738464362901 61.761943613497735,120.27776266910693 61.89248481547809,120.12691505739745 62.01722418642839,120.01668026488684 62.06073792036421,119.98186927732321 62.09990028098426,119.94125645898889 62.14776538840876,119.9122473034063 62.24639651894569,119.86003082232021 62.48862297166967,119.70338137984004 62.681533859168404,119.58734475569419 63.06735563416588,119.37847883221438 63.20369866734921,119.29725319554572 63.329888496013794,119.2160275586177 63.37195177223532,119.20442389621175 63.4241682531485,119.19282023380582 63.3284380382995,119.02456712917906 63.24721240137148,118.78089021839497 63.23560873896554,118.46178950266392 63.245761943570734,118.16589611088021 63.34149215841973,117.98603934384752 64.0058018312462,117.50448735365524 64.36696582363105,117.13317015709745 64.947148943928,116.6748254918035 65.2299882149863,116.4195449191322 65.36343033265462,116.21648082702826 65.35907895933883,115.99020940976663 65.40694406676333,115.69431601876101 65.50412473941307,115.44483727668751 65.61290907446876,115.25917867853829 65.80146858847881,114.94587979331858 65.88849605652335,114.74861753224471 65.86673918959868,114.487535128284 65.91460429702317,114.11041610043678 65.95231619975601,113.88994651420522 66.22065089289336,113.47221466776432 66.41211132259136,113.02547366539503 66.69495059382257,112.63094914350665 67.05756504400816,112.19581180328393 67.32154836365682,111.86510742480112 68.00761490340797,111.30813162905669 68.25854410302286,111.0238419002841 68.45145499043514,110.81497597671783 68.55588795217504,110.49007342935154 68.63421267341513,110.28700933742051 68.65161816702404,110.00852143976442 68.65016770913684,109.72423171064601 68.63131175772719,109.59078959323708 68.50512192906261,109.41673465697508 68.07723687793006,109.19046324031864 67.51445925115556,108.87716435527183 66.33088568583624,108.33179222201979 65.63321548359269,107.94887136279671 65.03997824308905,107.58915782786677 64.29299247570674,107.18883147486189 63.5576103708168,106.49261173041909 63.22110416095811,106.07487988397818 63.04124739366606,105.78478832382972 63.03979693586532,105.5875260630152 63.08476112768833,105.36705647738881 63.280572930875,105.33224548982518 63.52715075700121,105.32644365905448 63.88686429149887,105.3090381650133 64.31039796931564,105.33804732146042 64.69912066000106,105.41347112675321 65.68253104881794,105.9994560786854 66.1394252562247,106.15610552090621 66.45997643001584,106.27794397642793 66.77907714626562,106.35916961301014 67.77409119748845,106.52742271798272 68.51237421815277,106.56223370494116 69.07950321815659,106.5506300427946 69.55090200339787,106.53902638038865 69.95703018769218,106.3765751065326 70.27322998834047,106.1328981963537 70.33850058928742,106.01105974083197 70.47194270695573,105.7383736741195 70.52996101889897,105.36705647738881 70.51835735649303,104.97833378653048 70.57637566852273,104.67663856397607 70.63294352275167,104.21829389920084 70.60248390893608,103.73094007823786 70.54881697030862,103.37702837494318 70.48354636936166,103.08113498315946 70.39651890123066,102.94189103472046 69.94832744080128,102.09482367882755 69.91496691147066,101.83374127486682 69.86565134615896,101.52044238956066 69.87580455076416,101.27096364774651 70.00054392171445,100.64436587808517 70.07741818506734,100.29045417479048 70.25872541016014,99.9075333155674 70.32979784239652,99.5536216119269 70.4762940802715,98.97924032274646 70.69096183478138,98.52089565797124 70.85196265075022,98.26561508478122 71.275496328567,97.84788323834032 71.67437222377116,97.5461880157859 71.96301332603244,97.35472758574208 72.17042879162506,97.12265433796912 72.23424893477126,96.89058108959098 72.24875351286514,96.55407487981874 72.2081406943579,96.26978515130551 72.01377934923133,95.74181851174883 71.95431057922798,95.47493427641223 71.90934638749142,95.19644637841033 71.7976611367478,94.72069621959393 71.69757954858304,94.4422083218514 71.58154292443719,94.28555887937121 71.30740640009688,94.09990028096264 71.1710633668271,93.9548545008884 70.93318828750535,93.61254645999965 70.54881697030862,93.00915601515018 70.25292357904362,92.56241501252154 70.0121475841204,92.13307950306952 69.80473211852778,91.70954582551211 69.71625419276894,91.39624694029239 69.51173964295073,90.65361254639875 69.31157646636183,90.06182576369585 69.17233251749056,89.61508476106721 68.90109690875173,89.13933460276952 68.73284380377916,88.68098993747556 68.45435590603662,88.00217568707394 68.2759495965453,87.57284017762193 68.24839089841765,87.08548635665895 68.25709364513565,86.84180944648004 68.34847248658242,86.42987943080985 68.39923850969487,85.93672377847098 68.33976973977798,85.69884869906278 68.20922853771116,85.58861390655217 67.93654247117159,85.50738826962414 67.34910706187092,85.44356812647793 66.76167165265672,85.4087571389143 66.17568670124325,85.28691868365195 65.67963013330291,85.0490436045031 65.33297071883902,84.66612274536648 64.96310397964972,84.0685341312877 64.73538210501961,83.76683890873329 64.52941709722774,83.52896382932508 64.06236968538869,83.2968905812063 63.69685431968807,83.1750521260304 63.42851962646427,83.15764663224859 63.28347384639004,83.18085395706046 63.057202429647134,83.25627776261261 62.76420995372427,83.46514368617888 62.19563049583325,84.06273230017119 61.7967546006291,84.66612274536648 61.47620342666503,85.33333333336215 61.18466140871581,85.78587616736668 60.969993654292395,85.9135164536591 60.85105611463152,85.93092194744092 60.62043332431348,85.88450729747134 60.433324268017714,85.76847067358487 59.79222192008958,85.13607107254764 59.43976067442273,84.84017768102329 59.142416825270544,84.6197080953969 58.92774907084713,84.60230260187444 58.72323452094245,84.6197080953969 58.13289819595385,84.69513190094905 57.15674009614068,84.80536669380547 56.78832381475211,84.8111685254407 56.454718520494914,84.78796120054238 55.963013326043246,84.66612274536648 55.56558788863983,84.52107696529224 55.3248118937166,84.3644275227256 55.19282023393549,84.20777808024543 55.02891850236515,83.96990300057786 54.86356631308052,83.78424440242866 54.6576013053751,83.43613453025048 54.46904179136505,83.07061916454985 54.41972622613981,82.74571661683774 54.413924394936835,82.48463421261766 54.48934820048899,82.14812800301834 54.90417913158776,81.80581996187023 55.36397425433664,81.64336868835998 55.60184933365839,81.63176502621342 55.86873356899499,81.69558516935963 56.25165442847743,81.80001813084017 57.21620886588466,82.0436950415378 57.90082494792152,82.229353639687 58.926298612959926,82.43821956316681 59.670383464740766,82.4962378750236 60.041700661730815,82.48463421261766 60.386909618307506,82.34539026417866 60.84815519894358,82.22355180865694 61.30359894846314,82.10171335313522 61.58788867740865,81.93926207953852 61.64880790503983,81.7942162994643 61.60674462890476,81.65497235076593 61.513915329570786,81.50412473931581 61.24122926294476,81.35907895924157 60.942434955991835,81.26044782913691 60.39996373851419,81.16761852980295 59.545644093963375,80.80790499487301 58.66086483542407,80.413380473244 57.99655516277052,80.13489257550147 57.39171425977449,80.11748708197901 56.14867192462472,80.10588341957306 55.64971444108289,80.06527060097937 55.23343305226983,79.92022482090513 54.99410751523379,79.61272776732066 54.661952678863784,79.06735563398216 54.30078868639248,78.53358716365479 54.086120931882604,78.31311757768258 53.66403771195303,77.96500770576377 53.186837095508785,77.79095276950177 52.683528238564726,77.70392530180305 51.958299338193534,77.58788867731138 51.14459251206351,77.57048318413474 50.439670020816266,77.55307769009357 49.982775813668866,77.4602483907596 49.502674281536684,77.1875623246523 49.37793491067284,76.93228175146228 49.41999818689437,76.68860484128338 49.67382830202428,76.53195539871675 50.00888405408223,76.49134258012306 50.44547185201923,76.51454990502138 50.93572658867016,76.57256821679172 51.095276946838275,76.56676638576167 51.695766476259166,76.41591877431155 51.93509201346811,76.28247665664324 51.962650711595764,76.10261988935119 51.982957120806155,75.73710452390993 51.914785604171264,75.53984226309542 51.486900552952264,74.96546097356917 51.166349378988194,74.66376575101475 50.89801468585085,74.321457710126 50.4237149850081,73.53821049763866 50.19744356809228,72.7839724416849 49.930559332928595,72.04133804727253 49.910252923631745,71.47275858938151 49.92185658595123,70.81715166379178 49.85368506931634,70.57347475326705 49.83773003359463,70.39941981700507 49.5955035807842,70.18475206249519 49.12555525343012,70.18475206249519 48.762940803244526,70.18475206249519 48.06527060100099,70.19055389352525 47.609826851740785,70.19635572490112 47.295077508893236,70.17895023111932 47.03834647807538,70.16734656871337 46.6452724140742,70.16734656871337 46.23769377215204,70.2021575559312 45.74743903550112,70.39361798571564 45.226724685034604,70.69531320827005 44.90907442658557,70.95639561223078 44.42027014773539,71.449551264829 44.03879974614014,71.73384099386097 43.64427522442467,71.89629226719829 42.923397697369246,71.97171607275044 42.2373311576181,71.90209409883353 41.78478832378648,71.79185930571775 41.587526062885516,71.7164355001656 41.30613724962795,71.57719155112142 41.087118121715854,71.40313661511878 40.766566947751784,71.153657873564 40.5446469042382,70.93899011905414 40.488079049922796,70.68951137715354 40.488079049922796,70.47484362264366 40.53014232614432,70.32399601119354 40.82603571749577,70.19635572490112 41.30468679182721,70.06291360697347 41.9428882240674,69.86565134615896 42.89728945695589,69.50013598071769 43.114858127067244,69.32027921307983 43.44121113223428,68.81551989868083 43.6007614904024,68.56604115712605 44.16644003260547,68.05548001074601 44.694406672075694,67.84081225675486 45.19191369781679,67.57972985218896 45.69377209687365,67.08657420019593 45.86782703296274,66.75006799007787 45.86057474387257,66.42516544297094 45.863475659474055,65.8681896472265 45.94615175420282,65.531683437973 46.16226996642698,65.02112229185232 46.32617169791087,64.85867101834208 46.53068624781555,64.80645453760181 46.87879611999372,64.8122563683725 47.20805004076224,64.82386003077845 47.54890762402315,64.8122563683725 47.718611186796466,64.65560692589233 47.83319735296866,64.42933550889006 47.88106246039316,63.82014323266472 47.85785513549482,62.857039253144684 47.86510742449854,62.387090925444795 48.10878433502326,61.94615175445138 48.250929199496014,61.67346568747954 48.40032635305893,61.5400235700706 48.41628138878064,60.669748889625176 48.44964191828417,60.45508113537467 48.4061281842619,60.281026199112674 48.37711902824705,60.16498957522619 48.262532862074856,59.66603209151145 48.19000997203774,59.422355180813824 47.9970990843661,59.12065995851877 47.89556703831413,59.03943432133138 47.654791043390894,58.789955579776596 47.415465506354856,58.66811712451424 47.051400598282065,58.57528782518027 46.67428157008904,58.540476838221814 46.49297434499625,58.55208050036839 46.33632490251607,58.598495149992154 46.075242498382444,58.7493427611829 45.78515093823397,59.085848971214496 45.58498776181797,59.52678814255373 45.44429335514596,59.73565406577418 45.255733840962996,59.86329435267177 45.00190372583308,59.985132807847684 44.90762396887128,60.04315111970447 44.52615356727603,60.234611549402466 44.17079140609415,60.437675641333485 43.651527513341925,60.646541564553935 43.248300244735546,60.81479466969942 42.5245218021651,61.02366059326568 42.2576375668285,61.07587707400595 41.5338591243445,61.1513008795581 41.18574925207988,61.16290454170468 40.67228719061708,61.186111866516555 40.179131538364665,61.09908439881783 39.8600308222878,60.85540748829311 39.68452542839797,60.66394705859511 39.639561236488504,60.51309944688564 39.57284017765435,60.281026199112674 39.580092466658066,59.92131266418275 39.8121657148633,59.72405040336824 40.13851872003033,59.474571661554094 40.53014232614432,59.27730940073958 40.900009065420086,58.981416009733955 41.11322636204276,58.71453177448381 41.31629045423315,58.32000725259543 41.40041700658975,58.029915692446956 41.546913244551185,57.43232707836818 41.57882331608106,57.12483002443789 42.0299156921984,56.75931465873727 42.44909799652649,56.625872541068965 42.78270329069724,56.53884507337024 43.30196718336301,56.55625056654688 44.14613362348153,56.67228719103854 44.47393708636285,56.533043241735 44.486991206569535,56.37059196839767 44.766929562112814,56.48662859237061 45.187562324328105,56.63167437244484 45.25718429885019,56.649079866140205 45.323905357684346,56.660683528546144 45.770646360312995,56.69549451559106 45.8257637567412,56.707098177997 45.87798023748148,56.72450367177881 45.922944429390945,56.75351282762075 46.255099265760954,57.002991569175535 46.60465959573986,57.240866648843095 46.98467953944792,57.43232707836818 47.03544556256035,57.449732572150005 47.08476112769914,57.46713806532664 47.13987852412735,57.47293989696188 47.611277309368624,57.47293989696188 47.67074607919906,57.47293989696188 47.72586347562727,57.46713806532664 47.77953041425474,57.461336234555944 47.82884597947998,57.449732572150005 48.16970356274089,57.28728129829395 48.44384008716766,57.18865016784346 48.49750702570867,57.17124467440746 48.86012147589427,57.15964101200152 49.35762850146245,57.15964101200152 49.84498232259834,57.15383918036628 50.346840721655205,57.09582086876886 50.77327531498701,56.96818058195772 51.17360166807836,56.79992747733096 51.302692412257976,56.75931465873727 51.36361163988916,56.74771099659069 51.402774000509204,56.718701840143574 51.51155833556488,56.637476203474904 51.89592965276161,56.44021394240104 51.94524521798685,56.42280844887858 51.99601124109929,56.40540295544258 52.463058652851885,56.38799746166076 52.5167255915658,56.38219563089007 52.742997008395164,56.27776266880434 52.786510742417434,56.248753513221764 52.83147493441336,56.225546188323435 52.88369141515363,56.213942525917496 53.10416100078002,56.20814069462807 53.57265887050626,56.190735200846255 54.070165896160894,56.16752787629374 54.54736651260514,56.10370773314752 54.77798930283672,56.02828392724956 55.21602755866092,55.88323814717532 55.6569667300866,55.83102166617569 55.76430060734154,55.83102166617569 55.762850149540796,55.53512827499715 55.75704831833783,55.45970446935855 55.73384099352595,55.34366784547206 55.723687788920756,55.30305502687837 55.69757954850739,54.9723506481362 55.68887680178939,54.87371951777217 55.68887680178939,54.827304868061965 55.70918321091333,54.717070075551355 55.742543740416856,54.64164626999921 55.78170610095045,54.56622246384188 55.87163448459648,54.43278034643294 55.934004170028395,54.22391442295313 55.95576103712599,54.14849061740098 56.006527060065515,53.99764300621023 56.02103163815939,53.95703018761653 56.02973438487739,53.87580455103432 56.038437131768305,53.69594778339645 56.05584262529076,53.65533496506212 56.083401323504866,53.469676366912914 56.08775269699355,53.423261717029796 56.34738464332643,52.98812437680708 58.430242045106034,51.955398422505596 59.30776901455518,51.46804460154261 59.54274317827544,51.34040431525019 61.27313933464755,50.45272414102294 62.0636388359657,50.0640014507698 62.12165714799539,50.00598313839429 62.16081950870189,49.982775813841776 62.51908258548526,49.73329707202763 62.842534674964355,49.47221466806691 63.186293173740296,49.22853775728283 63.427069168663536,49.10089747099041 63.62723234516598,48.95585169091617 64.100081588208,48.95585169091617 64.39162360624367,49.0138700026865 64.74118393622258,49.129906627178165 65.30686247842566,49.58825129195339 65.49252107700714,49.76810805898609 65.78261263715561,50.01178497002953 65.91605475473746,50.110416100134195 66.11766838904065,50.18583990568634 66.16698395426589,50.18583990568634 66.52379657324852,50.203245399208804 66.94297887774951,50.1974435684381 67.19970990839447,50.20904723084404 67.42453086759599,50.249660049178374 67.79874898010107,50.37730033547079 68.05983138432114,50.55135527173279 68.26724684974086,50.85885232557663 68.46305865284107,51.09672740472547 68.92285377567642,51.45644093913667 69.47837911336075,51.798748980025415 69.81198440761794,52.001813072475166 70.54591605470713,52.51817604962591 71.13480192180855,52.8720877529206 71.96736469943467,53.20279213166277 72.72740458702367,53.498685522581944 73.86891487629438,54.038255824803926 73.99365424707177,54.136886955254404 74.09808720881168,54.31094189125704 74.20542108606661,54.61843894510088 74.31130450543435,54.75188106250981 74.40268334688112,54.8215030370319 74.49696310401583,54.862115855625596 74.8262170246979,54.83890853081372 74.93790227544152,54.78669205007345 75.05103798381296,54.73447556898736 75.2062369684924,54.61843894510088 75.63557247751214,54.26452724128747 75.84733931642053,54.14849061740098 76.06490798653189,54.09627413666071 76.19399873088442,54.09627413666071 76.44637838812713,54.218112592182436 76.97434502768381,54.502402320695666 77.81416009431365,54.99555797329389 78.03753059562798,55.56413743118491 78.09990028097344,56.1559242138878 78.40449641912934,56.46342126747228 78.99628320183224,57.06681171266756 79.34584353181116,57.39171425977449 79.9260266521081,57.890671743143415 80.38872269063138,58.45344936991791 80.49315565219838,58.84217206051687 80.33360529420317,59.439760674855 80.4772006163902,60.26362070533086 80.59613815605108,60.93663312470241 82.3555434683516,63.82014323266472 82.3149306499308,63.089112501263465 82.30912881872783,62.242045145370554 82.34974163714863,62.14341401526589 83.5536216117648,60.77998368222224 83.58408122558039,60.669748889625176 83.60728855039227,60.634937902147996 83.64500045321157,60.594325083813665 83.73782975254554,60.495693953709 83.81035264258266,60.40866648540509 83.82630767830436,60.333242679852944 83.85966820772144,60.217206055966464 83.88432599033406,60.17659323737277 83.91623606195039,60.14758408118501 83.98440757867174,60.08376393829816 84.0496781796187,60.014141963516714 84.08303870903576,59.97933097655826 84.34122019765437,59.70084307881572 84.46450911063101,59.561599130030906 84.55878886776571,59.416553349956665 84.58924848158131,59.38754419385537 84.87208775263962,59.09165080233101 84.9054482820567,59.056839815372555 85.0853050494352,58.84797389215211 85.12736832565673,58.81896473596436 85.17668389096843,58.79575741106602 85.51609101616924,58.569485994409575 85.55815429239077,58.54627866951124 85.86855226174964,58.33161091500137 85.91641736917414,58.30840358984367 86.18330160451073,58.16335780976944 86.25437403674711,58.11694316014568 86.322545553382,58.058924848288896 86.3704106608065,58.029915692446956 86.40522164802432,58.00670836728926 86.48499682706515,57.98350104247738 86.54301513909485,57.948690055518924 86.58217749971489,57.925482730620594 86.62859214933864,57.913879068214655 86.73737648439432,57.913879068214655 86.91143142048341,57.913879068214655 87.70048046408726,58.14015048495756 87.656966730065,57.94288822414305 87.57138971982118,57.681805819922964 87.48581270957739,57.51935454658564 87.05792765835838,57.02619889433323 86.75913335149191,56.57365606006933 86.63004260713939,56.341582812296366 86.50095186287331,55.95286012143805 86.37331157658089,55.75559786062354 86.03100353543279,55.49451545666282 85.73365968628059,55.2334330527021 85.51899193185717,54.87371951777217 85.26226090103933,54.51980781447749 85.00698032819511,54.35155470985073 84.49351826673231,54.026652162138625 84.11059740724987,53.76556975791854 83.91623606195039,53.6205239778443 83.6406490798958,53.40585622324797 83.29834103883414,53.08095367614104 83.00099718985486,52.75605112903411 82.78632943517208,52.55878886787379 82.27431783159648,52.26869730772531 82.00018130716971,51.99601124109929 81.3155652252193,51.717523343616115 81.18067264983672,51.299791496656496 81.13135708461148,51.253376847205644 81.01967183386786,51.17795304139413 80.95730214852239,51.14314205443568 80.70347203339247,51.00389810565086 80.34085758320688,50.731212038765484 80.00725228903613,50.458525972398824 79.69975523527874,50.26126371158431 79.66059287457225,50.2438582178025 79.60547547814404,50.226452724280044 79.54890762400154,50.20904723084404 79.48508748068242,50.191641736802865 79.43867283105867,50.16843441225035 79.20659958293989,50.0640014507698 79.15293264431241,50.05239778836386 79.08911250116621,50.01758680080023 78.83963375935207,50.03499229458205 78.62641646264294,50.04079412561211 78.45671289995607,50.0698032815405 78.20143232711187,50.23225455539656 77.9374490072903,50.35409301091828 77.86927749074187,50.330885685760585 77.81851146762942,50.319282023354646 77.14114767468274,50.133623425205435 77.09763394066046,50.122019762799496 69.89611095997455,48.16100081576353 66.77037439937472,46.79176865220854 66.66594143772127,46.47266793587231 66.26271416911489,46.37983863653834 66.09736197983025,45.2078687335385 66.04514549900352,45.16145408408765 65.78261263715561,44.848155198867936 65.75940531225729,44.80174054950354 65.75505393885506,44.75532590005269 65.7768108060391,44.47103617102073 65.80291904627956,44.43622518371646 65.82902728677936,44.378206871686764 65.95376665755676,44.14033179227856 65.98857764477458,44.099718973684865 66.02774000539462,44.059106155350534 66.16118212306291,43.91406037527629 66.17423624335605,43.79222192001394 66.17568670124325,43.74000543953303 66.17568670124325,43.59495965945879 66.15828120746143,43.39189556735486 66.12927205144659,43.35128274876116 65.94361345295157,43.00897470787241 65.90155017681649,42.95675822713214 65.85078415370405,42.91034357716257 65.78986492607287,42.869730759087595 65.42289910248505,42.64926117294249 65.04578007429203,42.40558426267713 64.73393164713242,42.150303689832924 64.45834466507782,41.84860846727851 64.23352370596275,41.5353095822317 64.01595503585139,41.22201069701198 63.77662949864245,40.902909980935114 63.64463783877489,40.77526969438333 63.593871815835364,40.74045870742488 63.53730396151995,40.71144955123712 63.477835191689515,40.68824222668461 63.41981687983273,40.670836732902785 63.24141057016851,40.62442208353839 63.177590427022295,40.58961109597476 62.80047139874282,40.340132354160616 62.44801015316243,40.07324811908338 62.110053485589454,39.794760221340844 62.06073792036421,39.748345571457726 61.75324086660682,39.4408485177868 61.721330795076945,39.394433868422404 61.71262804818604,39.319010062870255 61.72858308399421,39.023116671086534 61.766294986813506,38.762034267385175 61.766294986813506,38.4893482006727 61.789502311625384,38.25147312161032 61.79095276942613,38.094823679043685 61.7764481914187,37.787326625199846 61.65896110964503,37.45662224671704 61.506663040480625,37.16072885493332 61.46314930645835,37.004079412453144 61.41383374123311,36.83002447645051 61.3964282476242,36.67337503397034 61.370320007297295,36.62115855323006 61.10053485627275,36.30205783715319 60.81624512732725,35.98295712116278 60.55226180759214,35.65225274267997 60.41591877440881,35.518810624752305 60.11567400956868,35.24612455803983 59.86329435223951,34.956032997891356 59.590608285699936,34.62532861975436 59.47022028823832,34.462877345898306 59.283111231942556,34.13797479844556 59.16127277668019,33.923307043935694 59.10035354904901,33.83627957589115 59.08004713992507,33.795666757297454 59.022028827808924,33.45335871666807 59.0191279122939,33.111050675519955 58.998821502997046,32.73973347878927 58.982866467275336,32.699120660195575 58.958208684662715,32.652706010226005 58.92774907084713,32.606291361120974 58.7043785695328,32.29299247607416 58.649261173104584,32.15955035849232 58.62025201708974,31.94488260389599 58.59124286098844,31.91007161633236 58.33596228814423,31.724413018269605 58.302601758640705,31.67799836830003 58.277943976028084,31.631583718935637 58.259088024618435,31.579367238195367 58.190916508069996,31.42851962648589 57.98495150036458,31.115220741784896 57.783337865974936,30.80192185673809 57.583174689472486,30.482821140747674 57.362705103846096,30.169522255441503 57.206055661365916,29.792403227334937 57.19590245667427,29.067174326963748 57.18719970995627,28.707460792293183 57.17559604755033,28.626235155624517 57.15093826493771,28.504396700448613 57.1335327713288,28.266521621040408 57.10307315751321,28.144683165518686 57.09291995282156,27.80237512462994 57.10162269962601,27.709545825295972 57.22346115497483,27.355634122260646 57.27857855140304,26.984316924924784 57.358353730357415,26.578188741149187 57.36415556173329,26.21267337544856 57.378660139567806,25.86456350292457 57.4091197533834,25.50484996825401 57.42217387359008,25.16254192736526 57.41347112678562,24.506935001516158 57.71951772282872,24.448916689659374 57.92838364604917,24.344483727660105 58.266340313622145,24.05439216751163 58.53757592236097,23.793309763291546 58.6565134621083,23.52062369718425 58.65216208861962,23.32916326714044 58.64200888401442,23.137702837701806 58.510017224146864,22.78959296517782 58.40993563589564,22.238419001068625 58.34466503486223,21.768470673887453 58.34756595055017,20.962016136588236 58.38817876888451,20.49206780906125 58.46505303232385,20.184570755476777 58.669567582401434,19.975704832256326 59.15402048767648,19.69721693451379 60.06780890214418,19.192457619509625 60.42027014781103,19.018402683247633 60.74517269509087,18.9719880341426 61.20061644461043,18.890762397214573 61.66476294076154,18.670292811588183 62.514731211996576,18.008884054363204 63.20369866734921,17.417097271660314 63.63883600757192,17.138609373917777 63.891215665074,17.086392893177507 64.2045145499479,17.080591061542265 64.58018312042664,17.103798386354143 65.01532046064935,17.202429517063987 65.73619798744541,17.469313752400588 66.78632943518288,17.91605475502924 66.97633940708013,17.997280391957265 68.08593962464806,18.32798477035362 68.79086211589531,18.24675913377141 69.17668389080633,18.21194814646714 69.76121838450551,17.950865741987695 70.22536488074307,17.695585169057036 70.61553802922923,17.301060647428017 71.01151300874544,17.074789230771568 71.38137974793474,16.952950775249846 71.83102166625133,16.923941619062088 72.74626053843332,16.865923307205303 73.9573928020532,16.836914151363363 74.67681987130788,16.9877617622083 75.05103798381296,17.272051491586076 75.33387725495773,17.741999818767244 75.70664490974852,18.333786601470138 76.25926933183136,18.809536760027182 77.24993200973842,19.15184480091593 77.77499773360715,19.250475931885138 78.69748889496576,19.488351010947525 79.46913244487426,19.650802284544216 79.66494424814738,19.69721693451379 80.19436134524544,19.807451727283755 80.83401323537284,19.74363158361882 81.23143867277625,19.679811440472612 81.7637566856487,19.401323542730076 82.30477744541206,19.053213670724812 82.79793309757801,18.70510379854664 83.2301695222857,18.351192095251953 83.69866739183904,18.020487716769143 84.26869730761724,17.730396156620667 84.54863566307407,17.620161363504884 85.34348653788089,17.52153023340022 85.90046233345242,17.637566857286703 86.5792765841134,17.858036442653727 86.95059378110345,17.84643278024779 87.88903997827022,17.57374671414049 88.75931465871565,17.364880790920044 89.22346115486675,17.295258816397954 89.61798567675514,17.144411204688478 90.03861843888397,16.894932463133696 90.22717795306694,16.53521892846313 90.4055842624718,16.204514550326138 90.51146768201245,15.897017496395847 90.49406218840353,15.386456350620982 90.39833197364099,14.922309854210512 90.46650349010298,14.556794488423433 90.50421539292228,14.139062641723173 90.47230532130595,13.471852053468133 90.33741274592336,13.030912881869542 90.18801559236044,12.584171879240888 90.07197896847396,12.085214395871963 90.0516725591771,11.632671561867433 90.04587072797415,11.383192820312653 90.14305140062389,10.98866829842427 90.63620705278984,9.93853685094615 91.12211041612498,9.068262170500722 91.65442842899745,8.186383827649355 91.9459704468602,7.855679449166546 91.93581724225501,7.815066630572852 91.91841174864611,7.7744538122385185 91.76176230616592,7.466956758308226 91.70084307853475,7.327712809609865 91.68343758501229,7.153657873347872 91.6819871271251,7.107243223637662 91.63702293538853,6.84035898864688 91.44556250560409,6.538663766092465 91.17287643906452,6.2427703743087495 90.92194723962254,5.935273320637819 90.7594959659394,5.761218384981003 90.56223370495198,5.453721331050711 90.34321457712633,5.140422446090357 90.19381742356342,4.966367510087725 90.01831202967358,4.740096092826097 89.98495150025651,4.699483274491765 89.96029371764389,4.658870455898071 89.93708639291846,4.531230169865011 89.92113135702384,4.206327622152902 89.67890490438633,3.7421811263476106 89.65714803728874,3.5217115403754065 89.59622880965755,3.318647448271473 89.58027377393584,3.2780346299371406 89.56141782243974,3.1503943436447193 89.54111141322934,3.080772369122631 89.49904813700782,2.9647357449767866 89.47003898099297,2.8719064459021824 89.45698486078628,2.721058834192705 89.45843531858702,2.634031366493978 89.46133623427497,2.4251654432735292 89.4337775359744,1.873991478559155 89.43667845166235,1.8217749980782454 89.491795848177,1.4214486451598025 89.52515637742117,1.2183845527100532 89.57157102704493,1.1081497601129944 89.74417550541973,0.9166893301556381 89.96319463341828,0.6323996012965857 90.03136614988027,0.6556069261949178 90.08358263079344,0.6614087574843414 90.1387000271352,0.6614087574843414 90.18076330352964,0.6672105886008568 90.5781887408466,0.6672105886008568 90.62750430607184,0.6672105886008568 90.6811712446993,0.6730124198902804 90.94225364891939,0.6672105886008568 91.06409210400884,0.6614087574843414 91.49777898651726,0.6440032637889788 91.5557972984605,0.6440032637889788 91.67908621161007,0.5859849514134675 91.71389719882788,0.5627776268609515 91.84153748529322,0.5047593147448023 92.04025020399492,0.3887226905989578 92.08086302232925,0.3655153660464418 92.15918774356933,0.3307043787421707 92.24766566958753,0.30749705367093055 92.29698123463986,0.2958933912649915 92.39561236509034,0.2668842353365979 92.48263983322134,0.24367691052471982 92.5276040249579,0.2378750796675664 92.93518266705297,0.06382014349202679 93.01350738829305,0 93.69377209675477,0.052216480999633726 94.79176865200321,0.1798567676378712 95.55325899739296,0.30749705367093055Z"/></svg>