<svg xmlns="http://www.w3.org/2000/svg" width="256" height="256"><path d="M104.0756805598876,2.4872525670823586 106.74602690845882,6.307521957822874 107.79597368881826,7.12615111278459 108.6106822062507,7.747180127175515 109.45048280506701,8.412120283894733 110.03818639872978,8.870050769103571 112.097697391111,10.475943977577595 113.3130950831428,11.1126555427867 114.6531690545967,11.834052882666356 115.0001454923895,12.012833962432934 115.3169330198601,12.163386450736137 117.43564564175786,13.276847562098506 118.0425603601834,13.571679518499158 118.22251763135833,13.690866904885576 119.74607744793175,13.976289330673804 121.28963251676447,14.305622898930535 123.7027850311503,14.791781975836438 123.75610570404429,14.995655136893408 123.77649302016867,15.074067891217993 123.9172439141813,15.553953947777927 124.76018102317059,16.576456264217253 125.96538505713946,17.385675888753493 126.46056160074596,17.438996561787686 126.66247444313176,17.558183948361055 128.2989486258391,18.530502101845695 130.38982471990417,19.684737845410112 130.78267261911708,20.023480944279267 131.293531713495,21.04284675049887 131.57777794792162,21.701513886685174 131.8145844660286,22.046530005760083 131.98160363274,22.259812697429478 132.4485515847429,22.855749630530013 133.18680766670886,23.558327909231558 133.99759554642506,24.395776125371384 134.94403749107607,25.371230789309436 136.11473991318812,26.346685453060534 136.94944368292732,26.701111102420708 137.9633205963442,27.027308160410982 139.40141051070384,27.566787910397814 140.5728970602664,27.91180402914556 141.30644837701962,28.112540680263237 142.57320642308656,28.50460445188616 143.8117358776901,28.824528489530465 145.07143677586782,29.16013507799295 146.11236608957344,29.52083374811973 146.14255499994167,29.53024327845173 146.79298879706408,29.737252949915373 147.7625625043343,29.803119663688236 148.03112618784928,29.699614827792836 148.85524423580068,29.376554280209234 150.30313574440487,29.423601932617032 150.77008369640632,29.58983697187863 151.14019189686582,29.72157039895698 151.8102288825694,29.81252919411371 153.4612094248268,29.48319562604393 153.8838541706363,29.39850985137338 155.70577451736804,29.39223683084046 157.72451087750122,28.639474389371184 157.8429141364846,28.592426736963382 159.60955349146423,27.927486580103952 162.8252605462687,26.785796877091258 164.70991109655358,25.46218958418574 165.10707169711415,25.18304017874348 166.59848228436775,24.135445781013765 168.76855526030064,23.304270585173164 171.60905728575545,22.215901555101187 171.86154635468063,22.209628534755222 175.42932667644925,22.10612369918698 177.32260262956962,22.018301414249972 178.94653077163102,22.002618863291577 181.49455322340916,21.927342619373665 183.1902290356783,18.8316070784521 183.4932943311428,18.26076222687565 184.23037422184066,16.915199362805986 185.47517669674343,14.647502507738988 185.50811005355976,13.499539784380326 185.55790215260262,12.26061826614536 185.57632914982216,11.278890581861345 185.60573393269388,10.15915645033996 186.53335681630696,9.610267170067866 187.0626429079979,9.359346356135719 187.99418642942072,8.205110612571303 189.24996668988223,7.530760925099448 190.8307678171126,7.160652724780882 191.64508427072593,6.985008155234024 192.14888621726138,6.937960502639274 192.20063863511635,6.9348239924195525 192.25827200959165,6.928550972073586 193.91748589109986,7.032055807641825 194.9666485439628,7.179471786005733 195.31597736447884,7.282976621433759 195.43359649596573,7.380208436936457 196.565876668366,8.343117060135835 198.02553009021162,9.742000597146218 198.84611956412493,10.31598195898913 199.23387063430673,9.964692819568253 200.46338262206947,9.177428765915732 201.06833702168365,9.29034313237682 201.9077455567276,9.53185441574328 203.20782902342995,9.977238860119973 204.16877732767773,10.278343836866592 205.22813363860288,10.60767740498311 206.62662511198187,11.075017420664162 207.5867892886864,11.360439846312175 208.95666010678363,11.479627233119233 209.31030162878824,11.510992334755592 210.84954399613238,11.23497943957979 211.1431997611247,11.18165876649886 211.7932414944755,10.927601442627417 212.4503403756695,11.02483325784969 212.54247536200018,11.037379298541623 214.64393717789903,11.783868719851885 215.7820983069664,12.11320228806188 217.3911280256609,12.10379275749619 218.88841956948883,12.094383226883766 219.3592881592547,12.091246716757519 220.13047759803698,10.9025093610566 220.33121424906193,10.579448813472998 221.3329371856045,10.475943977577595 222.9976399598687,10.165429470685927 223.0431193573777,10.165429470685927 223.69237696323125,10.165429470685927 224.6494046297628,10.689226669387203 225.95693730807852,11.272617561515379 226.85554747263828,11.680363883956481 227.849821197474,12.044199064069293 229.1067776492971,12.367259611980058 230.42724843212312,12.740504322658557 231.93943839927275,13.207844338386346 232.737680238297,13.383488907933204 232.9858566057343,13.392898438545629 233.33949812778494,13.40544447909735 234.99400724398694,13.421127030055743 235.92633489290625,13.51208582507226 236.77711327737475,13.646955762417072 238.67979876101407,14.029610003754733 240.3817475936299,14.365216592170482 241.2987847555012,14.58790881431209 241.78768827866898,14.619273916228876 242.36755059694602,14.738461302615294 243.71036901475455,15.008201177725555 245.17394307422293,15.284214072948092 246.13332312333748,15.491223744411736 246.29014863198665,15.525725356267815 246.43521222753387,15.55081743751147 246.3422931136125,15.644912742654233 246.25917559412193,15.729598517324785 246.04706909358043,15.914652617484068 245.8157514683229,16.102843228050023 245.53385761661877,16.35376404198217 245.2304002572899,16.636049957363724 244.98536040002557,16.880697750949903 244.64661730134335,17.206894808940177 244.3788377453249,17.46095213281162 244.16908362750664,17.696190395785376 243.9855977823871,17.922019128473867 243.7793722386062,18.194895513242997 243.7052721856767,18.29526383887194 243.68723725222878,18.336038471073987 243.48650060111112,18.797105466596022 243.32967509246194,19.182896218013195 243.19794166519665,19.55300441833176 242.9991653329838,20.101893698603853 242.842731888107,20.50964002118517 242.71295877969908,20.795062446786446 242.55182056956207,21.193399238802076 242.38636965798392,21.65446623413716 241.94647410626973,22.79615593714985 241.44502454227054,24.126036250401338 240.94514323345132,25.418278441717234 240.82830822955444,25.772704091217623 240.61032077248535,26.50037445130303 240.4436936695456,27.08062883349191 240.2468776562369,27.908667519206265 239.9477329984426,29.147589037441232 239.67720899602352,30.19518343531116 239.37218338169941,31.198866690432162 239.08754508354863,32.06768000834856 238.84368141755243,32.782804328022465 238.81466869845235,32.905128224815556 238.7644845356846,33.05881722305805 238.7233178396642,33.15291252834103 238.66176382756615,33.30346501664423 238.642160638985,33.36305871002439 238.63118285333283,33.403833342273174 238.564924076022,33.6892557680614 238.51944467842029,33.761395502040024 238.43554303129298,33.99977027495307 238.32302072888393,34.32596733294334 238.2077539800268,34.62079928920378 238.12581265171087,34.82153594046167 238.08935072094994,34.884266143687654 238.10503327181485,35.01286306082671 238.18736666385567,35.119504406661406 238.33791915215886,35.34219662908344 239.07107840514047,35.91304148065989 241.62655006853123,37.302515487198065 242.43420143807518,37.83572221651177 242.5714237581432,38.03018584742369 242.60592537009276,38.155646254156075 242.61572696438333,38.425386128985906 242.63376189783125,38.96800238891203 242.6890428896301,40.92832124702666 242.74236356257154,41.90691242118443 242.73099371319373,42.46834774200824 242.84782871718411,43.41243730430993 242.93329861935044,44.40043800861275 242.93878751220063,44.42553009018357 242.96701610371073,44.56040002752838 243.0023018431568,44.76427318858535 243.03170662602778,45.04342259416782 243.08855587291384,45.43862287601047 243.1701051374114,45.755410403294846 243.2367559786348,46.07533444093915 243.25949567738817,46.3701663973398 243.26694488900227,46.611677680659525 243.29909411836883,46.84064292328731 243.31712905177002,46.9629668200804 243.33202747509168,47.04765259475095 243.34418145205873,47.12292883866887 243.34339732446875,47.33621153047847 243.3394766867525,47.60595140544852 243.35006240858633,47.88510081075057 243.37241004356883,48.09211048221421 243.38809259443377,48.33989478602011 243.42651484414628,48.63159023201409 243.43788469342988,48.904466616970176 243.44062913983123,48.98287937129476 243.48101170835514,49.10520326808785 243.50375140710926,49.221254144534974 243.50727998105387,49.34985106167403 243.5762832048595,49.98969913682243 243.61823402842316,50.70168694608966 243.81465797800624,51.391719184332956 243.85151197249206,51.47640495900351 244.01343431021905,51.67714160984076 244.58663154428504,52.244849951337706 244.90969209214907,52.53027237712593 245.09905889384294,52.821967823260124 245.36527019472743,53.35203804244758 245.44015437510814,53.606095366505976 245.55110842247743,53.94797497531442 245.53817031801387,54.6380072132773 245.41310197486618,55.14298535108089 245.4378019924784,55.28412830877166 245.4393702475649,55.93652242493916 245.46171788259414,56.57323399010153 245.49778774958347,56.92138661930269 245.50680521633078,57.3918631452502 245.5091575989138,57.6051458370598 245.50170838725296,57.890568262707816 245.4393702475649,58.5178702973045 245.47073534934148,59.013438904495665 245.54875603984843,59.52782657291168 245.55267667761066,59.62819489854062 245.66284659738997,60.07044283297802 245.98277063503429,60.66324325571862 246.2309470024716,60.992576823648186 246.53793293565235,61.37836757492514 246.73357275769217,61.579104226042816 246.8249236164803,61.713974163387626 246.9209792405272,61.92098383485127 247.07819681299546,62.21267928112567 249.42469848615795,65.13277025221996 251.0631329877234,66.65711419624316 251.17526322645503,68.78366809343242 251.1701663973772,69.44547174007212 251.15801242045688,70.96981568409532 248.88129809864256,73.12773468292094 246.12744216680989,74.77440252373724 245.77380064475926,74.90299944087629 245.19197800767083,75.11000911219972 244.89596986014226,75.22919649900678 244.66896493632586,75.36092992627208 244.06361847303353,75.72790161632419 243.3328116026342,76.04782565396849 242.5894586916846,76.43047989516594 242.33775375030268,76.56534983265097 242.30011562818015,76.57475936326338 242.00842018213942,76.63121654628361 241.3736689358819,76.80686111583047 240.7271557764757,77.0483723991502 240.5036794266039,77.16128676533086 240.3037269030762,77.24910905026786 239.9838028654319,77.46552825234393 239.86147896873229,77.60980772011422 239.73405824295483,77.71331255600963 239.6862264627701,77.91091269672063 239.6968121846039,78.32806854991436 239.79247574492666,78.45039244666073 239.8869631138878,78.68563070963448 239.90186153716272,78.95850709445034 239.87716151959722,79.22511045934088 239.82854561191596,79.49798684425022 239.61957562164022,79.73322510722399 239.43648184029306,80.0594221654012 239.38551354993533,80.11901585850094 239.1734070494866,80.33229855045076 238.93071957489946,80.48285103875396 238.7209654570812,80.58635587436893 237.9693792068808,81.27638811233182 237.9348775949305,81.30775321424859 237.70081552327161,81.53985496681568 237.22053740303355,81.92250920796639 236.78730693543693,82.22988720491877 236.28546530771285,82.51217312062748 235.69697758650685,82.82896064800534 235.58994417685378,82.88228132108627 235.3935202272707,82.9857861566545 235.46330757866633,83.11751958406002 235.54720922574688,83.27120858230252 235.65737914557295,83.44371664191007 235.75108238703754,83.60367866077897 235.81185227159236,83.71972953708588 235.87615073013853,83.81382484222864 235.93770474233006,83.90792014765184 236.0365048127323,84.02397102409896 236.15726045439217,84.11806632905477 236.31683040948943,84.25920928707271 236.48384957615406,84.42230781606784 236.6449877862918,84.55090473306669 236.71477513768744,84.59795238547449 236.84533237363712,84.67322862967283 236.9821626298868,84.73909534330548 237.08213889165063,84.79555252660613 237.29267713701216,84.92414944346477 237.46949789806084,85.03392729970614 237.5667297133766,85.08411146252061 237.70238377845158,85.17193374727067 237.79922352999571,85.32248623557388 237.67689963320262,85.87451202597221 237.51654555060884,86.32616949102203 237.48204393870603,86.3700806334438 237.33384383303255,86.63041097770795 236.89081177109867,87.17302723763407 236.87356096514725,87.21066535970988 236.79946091235726,87.3706273784853 236.73045768850488,87.40512899034137 236.37995267667398,87.66545933488594 236.19999540549907,87.79091974161832 235.85811579664386,88.01047545391411 235.21081850969514,88.65973305953473 234.981461203295,88.9200634040793 234.75955310855645,89.10198099397212 234.36239250794915,89.48463523512284 233.35518067860312,89.97393082215498 233.3167584290308,90.01784196462349 233.16032498415328,90.23739767663885 233.02388679158102,90.47890895981836 232.90548353259837,90.67650910095 232.72866277159642,90.89606481296536 232.54282454384716,91.15012213702376 232.43853558059547,91.33831274726255 232.3703164843798,91.5547319491984 232.3538498059249,91.9060210887595 232.44245621826497,92.14753237193901 232.52557373784902,92.32944996211225 232.6251579359347,92.51764057225756 232.6333912750453,92.55527869452033 232.6373119128083,92.5897803063764 232.68906433061576,92.77483440653569 232.72278181502207,92.97870756773287 232.7329754731303,93.2108093206271 232.7490500877208,93.51505080731303 232.72944689913967,94.06394008758512 232.72944689913967,94.29604184061958 232.75845961823975,94.52187057298092 232.76551676612826,94.73515326465031 232.7482659601783,94.97039152762406 232.73454372812404,95.16171864812931 232.75493104429515,95.42518550261318 232.83059935221837,95.67296980641908 232.90783591518135,95.86429692711128 232.96625341715318,96.11835425098272 233.01800583500741,96.39123063607902 233.0313360032426,96.66097051090885 233.02623917425896,96.70488165337736 232.974486756404,96.8334785705164 232.788648528608,97.19731375062922 232.74003262092674,97.52664731855879 232.74669770504434,97.60506007288338 232.7419929398316,97.9783047834684 232.8207977579278,98.45191781982258 232.947434356162,98.67461004205767 232.99605026379652,98.7404767555501 232.77375010528633,99.34268670890313 232.42520541236027,99.84452833644026 231.89239074672471,100.4341922489144 231.4756269574428,100.93603387663848 231.23725218429607,101.6448851758262 231.12786639206,101.920898071002 230.56055011447492,102.44783177996975 229.95716396994723,102.99672106024184 228.70059958194176,103.8090771949978 228.62022650871307,103.84357880699409 227.80120528979276,104.20427747702739 227.20918899464215,104.45833480089884 226.81281252162486,104.65279843181075 226.48543927227297,104.81903347074518 225.86637057683365,105.35851322073202 225.15046212985018,105.91681203128938 224.60118078580646,106.4562917812762 223.83077547456742,107.27492093637814 223.1168273464888,107.88654041987621 222.6377254175196,108.4228836595966 222.30447121163937,110.40829459895487 221.87280899917602,111.3900222833791 220.9800797911446,112.65717239312417 220.37669364656944,113.46952852802035 219.0789625625443,115.46434899785083 218.60691778146358,116.21397492938083 218.5273288358241,116.43980366160194 218.5296812185006,116.76286420965292 218.60809397282517,116.81932139267315 218.83823540672108,116.98241992152806 221.7489168472497,118.55067500801977 223.30344970178132,119.76136793488483 224.76310312353274,120.88110206659316 226.01378655496384,121.87537579156911 227.1648857884955,122.61559219234645 228.16543253372393,123.14879892166016 228.80606473646233,123.65691356987043 229.24164758673538,124.15248217706159 229.82699879776843,125.0307050254502 230.17162285302499,126.06261687236173 230.25121179866443,127.52423061301873 229.94775443942828,129.06739361826678 229.9497147582864,129.11444127067458 230.33432931829523,129.39672718633656 230.6918914779686,129.69783216280277 230.96751230946626,129.976981568245 231.09650129028344,130.09616895491186 231.23293948285425,130.18399123970866 231.30468715306196,130.21221983121876 233.21717423099184,131.1719919441517 234.7399499199753,131.37586510553584 234.86737064575274,131.4103667172517 235.16259466583153,131.49191598198294 235.4495853466128,131.5358271244047 235.64091246716478,131.56719222590087 235.83263165153585,131.59228430742493 236.0357206852358,131.6236494090613 236.23214463486562,131.64874149063212 236.3991638014835,131.6581510209174 236.57167186104434,131.66756055152982 236.68184178086963,131.65501451097808 236.83749109815793,131.60796685838332 237.17113736780905,131.52955410405875 237.35932797828153,131.48877947157627 237.5906456034923,131.46368739047284 237.76080128037594,131.45741437008013 237.87567596541544,131.46055088006617 237.99996018102064,131.45741437008013 238.1552174345826,131.43545879877578 238.29165562710736,131.43232228855604 238.49905736234263,131.46055088006617 238.6841114625019,131.4730969207581 238.9248386182784,131.52641759383903 239.03344028301794,131.52014457349307 239.16007688125214,131.5013255122682 239.2259435948848,131.52641759383903 239.78424240567583,131.6236494090613 240.47819528144768,131.73342726530268 241.58224686233785,131.88397975360587 242.36519821426955,131.9874845891741 244.2553376573104,132.3764118506708 244.4870473462921,132.35445627955337 244.67798240307317,132.3042721167389 246.53518848925097,132.1286275468649 246.77866009152228,132.08785291466285 246.91039351869412,132.0815798944571 246.93979830156584,132.06903385376515 246.96293006409158,132.06276083337244 247.20483341118367,132.01571318068423 247.4588907351946,131.9780750587019 247.74470522475443,131.93730042635963 247.98974508201877,131.9059353247233 248.04149749982625,131.90279881450357 248.30810086452985,131.85575116209577 248.5794089944929,131.81184001962725 248.74211545976317,131.82438606017897 248.99774103881455,131.8337955907914 249.2419967685824,131.99689411978653 250.5887358240604,133.12603778192036 251.13958542323735,133.5463301451936 251.8115827277523,134.0168066711411 252.27539416958294,134.35554976987004 252.98973436147918,135.0769471097497 253.12774080909045,135.31532188266274 253.29711235843155,135.57878873714662 253.25359327982815,135.95203344787186 253.2414393028611,136.202954261804 253.27005995823632,136.47583064685355 253.2661393205201,136.7894816641519 253.28574250910123,137.05294851849555 253.38022987801563,137.41364718852887 253.47667756583485,137.7022061243966 253.5166680705404,137.9280348569449 253.52921411123233,138.17581916047035 253.54803317231696,138.470651116871 253.56528397822163,138.59297501361735 253.54058396065614,138.7027528694381 253.51509981550063,138.90348952069598 253.48647916012544,139.1575468445674 253.49863313709247,139.37082953651725 253.51196330532767,139.55902014680277 253.54881729981346,139.69075357416153 253.6013538452117,139.87267116410112 253.6393840311051,140.10790942707487 253.67388564296118,140.30237305784658 253.68368723725177,140.48742715814606 253.7370079102392,140.69130031920304 253.759355545175,140.89517348040022 253.80797145285695,141.16177684515054 253.8401206821293,141.34055792496386 253.8334555980117,141.50051994401971 253.82835876902735,141.6259803507521 253.897361992833,141.8392630424215 253.9353921786337,141.9647234495745 253.9593080687494,142.15918708006578 253.93617630622367,142.37560628214186 253.9369604337669,142.58575246382523 253.9353921786337,142.726895421516 253.94833028309725,142.88372093016517 253.98047951237032,143.0687750305114 253.95734774984456,143.2224640287539 253.93931281639664,143.44515625117594 253.93460805109044,143.6803945141497 253.96754140790677,143.85290257375726 254.04556209845973,144.06932177550615 254.08829704956662,144.2324203046415 254.15730027337298,144.4112013843146 254.24708287712065,144.55548085227184 254.34823533019934,144.6997603203693 254.40469251326633,144.83776676793383 254.50506083884926,145.0196843580136 254.6266006080049,145.19219241762116 254.6932514491808,145.34274490592438 254.74421973949177,145.54034504677557 254.7312816350282,145.7630372690574 254.7614705454439,145.92927230799182 254.81518328220227,146.10805338794538 254.8473325114286,146.23665030494422 254.8390991722245,146.37779326277519 254.8390991722245,146.51893622079314 254.86340712606514,146.66007917848393 254.9382913064451,146.90159046180364 254.97788974737904,147.05214295010683 255.10374221806998,147.2466065806916 255.24606136721513,147.41284161981298 255.3503503304208,147.53516551660607 255.40445513090478,147.66376243374512 255.41700117164345,147.77981331033246 255.4228821282178,147.88331814576048 255.47933931128404,148.02132459351196 255.52364251747815,148.14364849030505 255.57735525419048,148.26910889703746 255.64322196782314,148.3851597736248 255.7522156963343,148.58275991433578 255.81063319830614,148.76467750450905 255.92511581962003,149.10969362344375 255.9933349158824,149.34806839682417 255.99843174496024,149.50175739506665 256,149.5582145782271 255.93099677619364,149.9189132482604 255.86160148861785,150.1071038584992 255.73104425266666,150.30784050947665 255.62244258797313,150.4552564876536 255.36760113641895,150.6371740778736 255.1174644500768,150.74067891358206 254.92104050049372,150.85672978974875 254.7583340352702,151.0198283187439 254.604645036794,151.1860633581457 254.4584052499794,151.37111745830498 254.36274168970266,151.57185410942265 254.27884004257464,151.81650190282187 254.20434792601375,151.98273694194327 254.0067477850698,152.16779104210255 253.81346034565894,152.29011493889564 253.58606335811766,152.46889601884916 253.50020139213223,152.60376595619397 253.4237489567125,152.80450260731166 253.37121241131504,152.99269321769066 253.26457106538686,153.12442664495595 253.08265347535382,153.2436140314826 252.83682949054625,153.33457282663932 252.5984547173995,153.4223951112959 252.3040148249107,153.58235713035174 252.04329241678144,153.73604612859424 251.76453507515754,153.90228116785585 251.42579197647535,154.11556385966546 251.2277997718525,154.2786623885204 250.97962340441518,154.46998950902562 250.69812161638993,154.63622454842744 250.48366273335893,154.83382468913842 250.30096101568915,155.0502438912145 250.019067163939,155.3074377254926 249.79363049525585,155.47053625434754 249.50938426082922,155.6806824360309 249.19181260576792,155.90964767851847 249.03145852317414,156.0382445955173 248.79661232401875,156.25152728732692 248.5860740786105,156.467946489403 248.37553583329571,156.7251403235409 248.18969760554646,156.97606113747304 247.9430894931489,157.2112994004468 247.691384551767,157.37439792944193 247.44320818432968,157.51554088713272 247.18836673277477,157.68804894674028 246.93078083481925,157.90446814848917 246.72102671700026,158.10206828952735 246.5371488081091,158.35926212380545 246.3850280647194,158.6321385085746 246.20663904867772,158.87051328195503 245.9706166581607,159.11202456513453 245.38095274559308,159.56368203018434 245.08337634293127,159.770691701648 244.91243653855042,159.95888231174658 244.5191965755659,160.43876836844672 244.28827101412674,160.68341616184594 244.21260270615676,160.73673683464645 244.1173312096524,160.83083214006965 243.96756284889244,160.9907941587983 243.64920706633464,161.27621658444633 243.2743941006631,161.7310105597626 242.97917008063106,162.11052829064687 242.62905713261853,162.6311889791284 242.39303474210152,163.0734369135658 242.09310595680998,163.56900552108414 241.7022183764552,164.08966620984611 241.32818953837366,164.5789617965511 241.02316392400428,165.05571134284457 240.64247000180444,165.4195465229574 240.17944268747175,165.89943257951734 239.5011723625641,166.4828234716455 239.14870703192256,166.38245514601655 238.79741789250093,166.30090588156574 238.15443330703934,166.1534899033888 236.535601994055,165.6641943165436 232.93018355016386,165.04943832249862 228.67197892656728,164.22767265741066 225.2037828027909,163.60978015314598 220.90519561076388,162.085436209263 218.40304462031312,161.8094233140872 216.87203559203212,161.85333445636874 215.08304860216344,161.88156304801907 213.50616811265004,161.12566409614314 213.7461111409293,160.94060999612407 213.6202586701916,158.13029688117769 213.11135989462502,154.30375446990425 212.98825187038216,153.70154451673818 212.87533750410802,153.23420450101037 212.71772786796234,152.53789924256134 212.5891309508233,152.1740640624485 212.4503403756695,151.79454633151752 212.2848894640439,151.42443813119897 212.09277821594867,151.14528872594366 211.81323674678154,150.62462803718168 211.31413956550554,149.82168143271096 210.80171221599437,149.04696342007753 210.4053357428836,148.4322074260326 210.09050853431714,147.9021372069386 209.8462528046428,147.51320994544193 209.6286574112986,147.15878429594153 209.2961873330091,146.66635219882988 209.03585698865146,146.20214869308813 208.8268869984232,145.83204049276955 208.81630127654262,145.8006753911332 208.5085312157719,145.19532892756047 208.34268824042215,144.95381764424073 208.23722308580884,144.73739844230488 207.90592919878745,144.10068687728273 207.79419102392166,143.8968137160388 207.41820186693528,143.42947370021756 206.97438567750487,142.91508603180154 206.95282216997214,142.86803837939374 206.8544141632948,142.73944146225466 206.43098528998877,142.32228560906094 206.0197103935563,141.91453928661983 205.42102901424136,141.4221071896951 204.83175716549212,140.84185280750623 204.3063917115174,140.1800491610535 201.20320695912122,136.3472337295743 199.23739920825133,133.80666048959796 199.68944873688582,131.70833518373186 200.16384590054957,129.34654302370905 200.17207923984714,129.30263188124053 198.87160370932716,128.68473937706932 194.31386236421065,126.54877594912743 191.2044045914225,125.00874945428605 184.22018056373173,124.2873521144064 181.66980572937132,124.06465989226479 179.8898362061565,122.6563668245485 174.3578163886038,118.0896080128249 173.44940462975347,117.30861697951833 173.40666967864658,117.34625510164088 170.55989463284578,119.86173626037356 166.3189408152006,123.90783438361562 165.15215903085078,125.57018477539029 161.3075816863631,131.28490631051932 161.34286742576245,133.14172033273852 161.50557389098594,135.61642685926915 161.22603242186483,139.70957263510599 161.2064292332844,139.87267116410112 161.67612163164193,142.92449556241397 156.43775757898803,143.98149949070935 154.70365951709985,144.30769654874638 152.65865488431467,144.7907191152456 150.4180104295364,145.02909388862602 148.4725899946967,145.41174812963652 146.65223790305146,149.35120490676346 146.78553958544998,149.47352880355655 147.12428268408547,149.8310909633234 147.70218468345766,150.25451983667614 147.94408803054898,150.3925262841472 148.02877380521954,150.45839299792007 148.5165011371652,150.74695193392802 149.37629698833427,151.24879356137168 150.112984815167,151.68163196547707 150.5901264252321,151.95450835029294 151.69653038879875,152.4908515900133 152.26815936782424,152.78882005635327 153.0369964239308,153.26243309270745 154.10889877554786,154.0026494934848 158.29417953762257,157.66295686516946 159.89928861864684,160.19098406478102 162.14150132860507,163.74151358050474 163.34239266103936,165.7896547234162 161.65612637928916,170.81748053080204 161.55183741603747,171.06212832438823 163.53175946273322,173.94771768343946 163.65173097684985,174.12336225298634 162.74959223843896,176.39105910805333 159.8236203107236,177.7178029113655 157.49515357110252,179.16059759079766 157.00154528262854,179.4460200167261 155.2141265477529,180.93899885887924 158.07070318784426,183.61444203666778 158.01463806850217,183.7179468720958 157.9832729667256,183.77126754531693 157.95386818385387,183.83399774868315 157.9374015054457,183.89672795204933 157.9315205488714,183.94691211472357 157.93583325040598,184.04100742014677 157.94289039829445,184.0817820522086 158.0048364742116,184.27310917271387 158.07619208060024,184.46757280348558 158.1644064292154,184.69653804625358 158.21106201808527,184.90041120731055 158.20792550791228,184.99764302286 158.1542127711532,185.22660826544103 158.04521904264203,185.39597981482888 158.02130315261977,185.43361793676445 158.00326821907836,185.44930048758263 157.98170471168584,185.49007512011184 157.83860143504276,185.67512922027112 157.72019817601335,185.85704681016395 157.6915775206849,185.91977701353014 157.63237589116983,186.1267866849938 157.5625885397742,186.33065984637793 157.51475675968294,186.43102817200688 157.39556937306284,186.60980925163324 157.21639622943115,186.7791808011613 157.1826787450716,186.80113637232543 157.11171520240785,186.845047514607 156.90627378607743,186.98932698256422 156.8509927942786,187.0395111453787 156.57654815414256,187.23711128622992 156.54283066978297,187.25906685753426 156.41697819913875,187.30297799986255 156.12998751831077,187.34688914233107 156.09313352377822,187.3562986729435 156.06255254954417,187.3688447134952 156.02961919272857,187.3876637745331 155.9829636039522,187.41902887630968 155.78457933546423,187.55703532406116 155.7363554915539,187.52880673255106 155.66892052288222,187.5162606918124 155.6352030384759,187.51312418159267 155.60383793679281,187.52567022214438 155.571688707473,187.5444892831823 155.52973788390935,187.57899089517858 155.44936481072665,187.66367666989586 155.3521329954109,187.738952913954 155.33174567923976,187.75149895478614 155.29214723830586,187.7671815054641 155.20001225197447,187.78913707662824 154.9479152468209,187.81736566827857 154.9067485508005,187.826775198891 154.66641345884238,187.88950540225719 154.42215772907457,187.93655305480522 154.18652740232994,187.98987372788613 154.15594642818863,188.00241976843785 154.08263050284913,188.0400578907006 154.02538919223892,188.08083252276245 153.99794472817857,188.10592460433327 153.98422249617178,188.12474366523094 153.95364152203192,188.17806433812493 153.94619231032434,188.2000199094293 153.95128913935545,188.26588662292173 153.97010820044008,188.32861682642812 153.98892726143126,188.36939145881712 154.01441140658673,188.41016609101916 154.04499238082005,188.44780421314172 154.13359879320683,188.5293534775458 154.2900322380844,188.67676945572276 154.3119878092478,188.78968382209038 154.30297034254795,188.8461410051106 154.18887978500567,189.05942369692022 154.14928134407177,189.1409729613243 154.1363432396082,189.28525242914134 154.15908293836233,189.50794465156335 154.21201154753217,189.69299875172266 154.29081636567437,189.93137352491613 154.30571478890258,190.0348783605311 154.27434968721948,190.31402776611358 154.26376396538566,190.33598333727772 154.0053939398854,190.5084913968853 153.89130338234386,190.54926602908733 153.61646667838946,190.6433613342301 153.5180586717121,190.68727247651165 153.39887128523222,190.76882174096247 153.37573952265973,190.79077731226684 153.2349886286471,190.95073933113574 153.17265048895905,190.99778698373046 152.9397646085683,191.1452029617672 152.7464771691582,191.2737998789063 152.55279766597647,191.40239679590513 152.5190801816629,191.4337618978219 152.48693095239057,191.47140001975748 152.4637991898648,191.50903814188004 152.42184836630116,191.62508901832715 152.4187118561749,191.65959063018323 152.43086583304847,191.71918432361014 152.46889601884916,191.81014311848645 152.47948174068298,191.84150822040323 152.48183412331272,191.9230574846671 152.46144680718834,191.9920607086597 152.43988329974908,192.0202893000296 152.41126264446734,192.0453813814602 152.3849943717686,192.05792742215212 152.35441339753527,192.0642004426383 152.15054023633883,192.05792742215212 152.02311951055992,192.0924290340082 151.9697988375732,192.08615601366225 151.91138133564812,192.07674648337698 151.68516053937495,192.0265623205625 151.4926572275081,192.04851789167992 151.23703164840992,192.0642004426383 151.03982357133034,192.03283534090846 150.8030170532241,191.9387400356255 150.5364136885665,191.81014311848645 150.31528972132443,191.71918432361014 150.0333958695743,191.6627271404497 149.80247030804165,191.68468271175405 149.62564954704044,191.78818754718208 149.336306483582,191.9512860761772 149.23240958414866,191.9983337290524 149.100284093065,192.01087976960412 148.9356173090301,191.97951466782754 148.71606159692126,191.88855587281103 148.50826779791439,191.75368593546622 148.30321844535558,191.66900016079566 148.06641192734207,191.62822552840666 147.67356402817592,191.62508901832715 147.49086231059962,191.6219525080607 147.2532716650429,191.556085794615 147.1438858726666,191.43062538755544 147.10389536796106,191.28007289939245 147.05449533273585,191.05110765676466 146.9819635350331,190.84096147508131 146.85728725565698,190.63081529349142 146.6392997985879,190.48967233566043 146.4048456631574,190.44262468311243 146.1582375508533,190.47398978484225 145.8524278089407,190.6025867018411 145.63208796933534,190.8127328835712 145.51838947561143,191.00092349380998 145.5054513710544,191.2204792061525 145.5415212380437,191.39926028596582 145.6113085893926,191.63449854893958 145.66815783632467,191.8446447303425 145.68384038718958,192.01401627968363 145.61640541851716,192.17711480867877 145.4313513182184,192.29630219539234 145.13965587213022,192.32453078690244 144.8189477069894,192.31198474635073 144.4210029787454,192.26180058353626 143.98855663869205,192.1959338699036 143.6388357544044,192.13634017647672 143.2761767656532,192.11752111557902 143.00839720963472,192.180251318805 142.89744316226546,192.30884823594405 142.7296398679641,192.66641039585113 142.67631919502338,192.78246127229824 142.56105244621298,192.9863344333552 142.55125085192242,193.017699535272 142.46734920474836,193.127477391046 142.35639515737907,193.2027536354313 142.250145875316,193.26548383879748 142.05803462722076,193.3407600828556 141.95413772769396,193.35644263367377 141.8318138309936,193.350169613468 141.68439785281737,193.32507753217763 141.55540887195343,193.262347328531 141.50444058164246,193.2027536354313 141.4566088015512,193.05220114712807 141.44053418691465,192.9737883928035 141.43230084766384,192.84205496539798 141.41230559531107,192.66013737550514 141.39191827928016,192.6036801923447 141.35388809333926,192.54722300932448 141.2554800866619,192.50958488720195 141.21901815590095,192.4907658259771 141.19471020210707,192.48135629555162 141.165697483007,192.4719467649392 141.10571172590195,192.46567374459323 140.79833372894956,192.40608005130656 140.47488111736067,192.2868926647799 140.35412547570078,192.23984501237211 140.13613801872518,192.09870205435416 139.94873153584268,192.00460674939836 139.88051243958031,191.9983337290524 139.7636774356834,192.00460674939836 139.61586939373484,192.04224487133393 139.44218514290588,192.16143225804754 139.36769302629753,192.18338782921168 139.29359297350751,192.18966084955764 139.01993246096072,192.16456876798682 138.948184790661,192.14261319696288 138.86193076095068,192.1081115848264 138.77489260369785,192.05792742215212 138.52318766226847,191.8854193626848 138.24835095836082,191.75054942533995 138.02252222590602,191.66900016079566 137.96057614998958,191.65018109971103 137.9170570712927,191.64077156928556 137.85785544177764,191.64390807922484 137.8037506413404,191.65331760983727 137.53087425624412,191.88855587281103 137.43599482351138,192.08615601366225 137.41247099730748,192.27748313430772 137.41639163493022,192.31198474635073 137.64026004857365,192.5346769685858 137.6892680200265,192.58486113111985 137.72298550433936,192.6256357636491 137.73553154507803,192.66954690593062 137.52969806497597,192.84832798588417 137.48696311386908,192.87655657725406 137.46343928752498,192.90792167903064 137.43795514241623,192.95183282149912 137.41952814510321,192.97692490274278 137.39914082902555,192.99574396396764 137.36150270690302,193.02710906555726 137.3368026893375,193.04592812678212 137.2948518658206,193.08983926920388 137.09803585241914,193.20902665577725 136.88710554323927,193.30312196087328 136.64755457882512,193.35330612354753 136.39271312727024,193.350169613468 136.13630342058138,193.34389659312205 135.8681318007913,193.38153471519786 135.81716351052705,193.4034902865022 135.7959920668134,193.4160363272409 135.75874600855525,193.45053793909696 135.7316936082665,193.48817606121952 135.71522692985835,193.52895069342156 135.70777771819752,193.62304599856432 135.70620946315776,193.8081000988638 135.75129679684767,193.9962907089624 135.76697934771184,194.09665903459134 135.76384283753958,194.13743366679338 135.70699359074774,194.29112266536305 135.58859033167087,194.4510846840917 135.42157116495952,194.60163717239493 135.27297899546843,194.7553261709646 135.1584963741538,194.92783423057216 135.13144397395857,194.95606282208226 135.100078872182,194.97801839338663 135.06753757913728,194.99056443393835 135.03107564837634,194.9968374542843 134.9906930799459,194.9968374542843 134.9463898737058,194.99370094401786 134.89698983848132,194.9842914137326 134.8421009104541,194.96547235264794 134.62176107084875,194.84628496584088 134.41514346315674,194.73023408967418 134.3684878743336,194.6925959675984 134.2042131540236,194.5451799892345 134.0066130131249,194.41031005188967 133.9779923578432,194.40090052141747 133.94897963874382,194.391490990992 133.87605577717522,194.38208146023936 133.8348890812483,194.38835448058532 133.79960334170875,194.39776401119775 133.77411919655324,194.40717354181018 133.75412394420047,194.42285609272182 133.7337366280761,194.43540213346049 133.62748734596627,194.48244978586828 133.38597606264656,194.57340858102503 133.36127604503432,194.5859546217637 133.32089347660389,194.6079101927409 133.30285854306248,194.62359274355907 133.26404422967184,194.6675038860276 133.2518902527515,194.6957324775377 133.24600929622392,194.72396106918802 133.24365691354743,194.77728174226894 133.24679342381316,194.8023738235126 133.2660045485767,194.84001194563513 133.27894265304025,194.86510402701902 133.37774272344248,194.94038027126408 133.57847937451342,195.06897718826292 133.6094524125651,195.10034228999277 133.64003338665896,195.17875504431734 133.64003338665896,195.21639316629967 133.6227825807068,195.26030430876818 133.60710002984115,195.28539639029225 133.58553652244936,195.3073519613162 133.54711427283033,195.33558055296652 133.52476663780106,195.34499008343872 133.38676019023654,195.38890122590723 133.2593394644591,195.41085679721158 133.16328384036547,195.42340283776332 133.07742187437933,195.42026632763708 133.0480170915076,195.42653934802976 133.02331707389536,195.42967585810928 132.99195197225828,195.43281236837575 132.96803608214327,195.44222189894143 132.9115788989828,195.46417746996536 132.6598739576009,195.55199975476216 132.43286903387798,195.64923157026485 132.18037996490605,195.7339173449354 132.13686088625593,195.74019036532812 131.87535435058342,195.78723801773592 131.60992717728817,195.83114916034464 131.34528413144272,195.84683171130303 131.30803807304505,195.8374221805504 131.2374665942457,195.80919358904026 131.20884593882445,195.79351103808187 131.16023003114321,195.7590094262258 131.14062684256206,195.73705385506165 131.1241601641539,195.7150982837573 131.0590775780645,195.520634653266 131.04653153737257,195.49554257174194 131.03045692278278,195.47358700043756 130.94969178582917,195.395174246113 130.73758528542643,195.2728503494601 130.70465192856412,195.2634408189879 130.67171857174853,195.25716779864192 130.61682964367384,195.2446217578098 130.58703279707723,195.2414852478705 130.47843113233768,195.2383487374638 130.22202142564956,195.2383487374638 129.9711006118109,195.23207571725806 129.71155439504324,195.2132566563604 129.46573041023566,195.191301085056 129.2214746805146,195.14425343232105 128.96820148399945,195.10034228999277 128.6945409714534,195.08152322881466 128.44126777493824,195.0783867186884 128.32012006950674,195.09720577991325 128.28248194743094,195.10975182046496 128.25346922837758,195.12543437142335 128.06449449045533,195.25716779864192 128.03391351622201,195.26657732911414 127.99941190436593,195.26971383938061 127.96334203737662,195.26971383938061 127.9304086805603,195.2634408189879 127.83278480142619,195.2289392069916 127.70928471331823,195.14738994258752 127.58931319920161,195.04388510697254 127.47914327942158,194.92783423057216 127.45522738930657,194.89960563906203 127.41680513968753,194.84628496584088 127.40425909904233,194.82119288473746 127.40112258886936,194.7929642930404 127.43876071089842,194.60163717239493 127.44856230518899,194.391490990992 127.46189247342417,194.2064368906925 127.47679089679258,194.00570023957482 127.48071153446207,193.80496358845716 127.47169406771474,193.60422693733946 127.4281749890646,193.4034902865022 127.41406069333291,193.3689886743657 127.39445750475176,193.3407600828556 127.36975748709278,193.31566800161195 127.33996064045017,193.2937124304478 127.2446891439918,193.24039175750707 127.20705102186926,193.22784571667492 127.16588432589559,193.21843618620272 127.12158111965547,193.2152996761232 127.07453346710746,193.21843618620272 126.90280953508987,193.24352826763334 126.8302777373389,193.24666477785306 126.57386803069824,193.2498012878391 126.30491228336491,193.2498012878391 126.05830417106084,193.24352826763334 125.79522938025511,193.23725524728735 125.52392125029205,193.22470920654868 125.27221630891013,193.21843618620272 125.0150224747255,193.20902665577725 124.75116355647,193.1713885335145 124.6860809703806,193.1557059826963 124.65628412373725,193.15256947261682 124.63079997858176,193.15256947261682 124.57434279542133,193.13688692179863 124.34733787165166,193.13061390145265 124.30381879304825,193.127477391046 124.10896309850492,193.1243408811067 123.99055983952152,193.1431599420044 123.67220405691698,193.20902665577725 123.15507194214634,193.3219410219579 122.8739622178927,193.33448706250962 122.33448246813956,193.40976330689492 122.14197915627197,193.4724935102611 121.91105359478681,193.59168089664755 121.72364711195104,193.7202778137866 121.47272629811238,193.92728748525022 121.15711496200265,194.24093850254857 120.92697352801326,194.5106783773784 120.78230199633114,194.74278013041285 120.645471739988,194.98742792367187 120.5364780115243,195.2383487374638 120.46551446890655,195.43594887859547 120.39729537255069,195.64923157026485 120.3529921663573,195.85310473150878 120.32515563857207,196.12284460633862 120.2977111746052,196.59645764250584 120.25419209590832,196.82228637505412 120.25693654230969,197.01047698543312 120.31496198055662,197.14534692277795 120.46708272389957,197.31471847216577 120.64311935735826,197.4778170011609 120.82738933006777,197.65346157070778 121.01793232302978,197.84478869135324 121.12339747759634,198.00788722034838 121.17750227812705,198.17098574939024 121.21200388998312,198.32781125803942 121.18651974487437,198.6383257650713 121.1241816051396,198.85160845674068 121.0387117029258,199.0648911485503 120.55020024353037,199.51341210347388 120.29379053684224,199.65141855094492 120.04796655203467,199.76433291712559 119.48613916729974,200.07484742448463 119.15758972672573,200.08739346503637 118.86550221681992,200.0842569547699 118.56949406929063,200.09366648538233 118.40012251995024,200.07798393442394 118.15429853509667,200.01211722079128 117.95630633051984,199.9337044664667 117.72577283271136,199.8364726511042 117.53679809478983,199.72983130526953 117.37644401219532,199.61064391888308 117.13493272887634,199.39108820654056 117.02045010756244,199.23739920801765 116.91028018778313,199.04293557752638 116.81814520145174,198.87356402804505 116.74326102107177,198.75751315159792 116.64210856799305,198.67596388719383 116.5574227933225,198.64773529568373 116.41863221812125,198.6195067041736 116.25906226307072,198.62577972451956 116.00343668397257,198.64773529568373 115.72899204383653,198.6979194584982 115.357315588338,198.78260523316874 114.97152483706176,198.86415449757283 114.58926265972795,198.9237481907193 114.38931013620099,198.93002121106528 114.03096384893765,198.9488402722434 113.54245238949548,198.96138631298206 113.33936335584154,198.9488402722434 112.97121547424088,198.90492912996183 112.68736130358587,198.879837048391 112.38743251829433,198.90492912996183 112.08397515910494,198.92688470112597 111.97380523927889,198.91120215016758 111.72053204276375,198.82965288557654 111.30612063615904,198.7010559684375 111.195950716379,198.6822369075398 110.92856322417892,198.71046549904992 110.57609789339642,198.7920147635942 110.08523405137126,198.90492912996183 109.84842753326429,198.93943074181792 109.6378892879495,198.93943074181792 109.52340666663561,198.90492912996183 109.43715263683183,198.82965288557654 109.36579703044319,198.71046549904992 109.31874937780171,198.53482092950304 109.2791509368678,198.30899219681456 109.27758268182804,198.10198252563134 109.2348477306744,197.87929030339626 109.17564610115934,197.73187432503235 109.04979363051513,197.5844583469956 108.86826810420624,197.45272491973031 108.70712989406995,197.39313122649037 108.51541070974633,197.3743121654057 108.30408833688831,197.3805851857517 108.09433421902405,197.40881377744876 108.03199607933527,197.41822330773402 107.93241188138906,197.47468049103466 107.78225145690567,197.600140897954 107.64542120051506,197.7444203657243 107.51172745439165,197.938883996496 107.35372575447435,198.1866683003019 107.22199232716231,198.4250430732617 107.04634775752197,198.6822369075398 106.75661263024517,199.03038953669423 106.4798156074801,199.34090404386632 106.38924887628195,199.43186283892956 106.2026265209427,199.64828204081869 106.05717086176408,199.8615647324881 105.79644845354136,200.22226340252138 105.63923088112129,200.46691119610756 105.46515456656672,200.65823831661282 105.28402110403093,200.79310825395763 105.14523052892169,200.8715210082822 104.65750319697676,201.02834651693138 104.3673760060218,201.1318513524996 104.0827377078243,201.25731175969938 103.88239312047824,201.32631498327132 103.58873735553267,201.39531820726393 103.1923608824219,201.42354679863382 102.8932162246736,201.42354679863382 102.66385891827419,201.44550236979796 102.38431744915378,201.52077861418326 102.22043479261539,201.58037230728297 102.02165846040258,201.69955969399658 101.7354519070711,201.9097058753995 101.5594152736124,202.02889326220657 101.30810239600211,202.17630924029004 101.09089906656975,202.30176964702244 100.73412103439289,202.5558269711743 100.56396535750854,202.703242949398 100.34754615552595,202.93848121237176 100.25541116919456,203.07648765979607 100.13387139999145,203.217630617814 100.03193481941624,203.31486243289606 99.94450459829758,203.39954820756662 99.7868949621519,203.50305304346202 99.69397584823054,203.54696418574358 99.50813762048126,203.57832928752015 99.3019120766076,203.5751927773939 99.18821358283697,203.5375546553181 99.134108782353,203.48423398223716 99.04746268882433,203.36818310611721 98.94160547048614,203.16744645499952 98.87495462935698,203.0325765175145 98.87809113952923,202.91025262072142 98.90710385858333,202.76910966303063 98.94905468214698,202.57778254247864 98.9627769141545,202.4303665641615 98.93650864145503,202.32686172859326 98.88397209605758,202.17944575050976 98.83143555065936,202.08221393500708 98.7459656484463,201.96616305855994 98.66363225640622,201.82502010072895 98.6306988996359,201.67133110248645 98.62756238951039,201.51450559383727 98.66363225640622,201.37336263595955 98.68245131749012,201.20399108647823 98.6777465521839,200.9530702726863 98.6671608303501,200.78997174369115 98.59619728768634,200.48886676708477 98.55503059171268,200.36967938055813 98.4664241793259,200.2253999127411 98.34723679270579,200.12503158711218 98.19982081457556,200.0842569547699 98.06691119599539,200.07484742448463 97.83324118815487,200.12189507689243 97.51841397949492,200.1720792397069 97.24357727558726,200.19403481101128 97.05969936669611,200.1720792397069 96.84641667497996,200.13757762785085 96.66998797774892,200.09680299546184 96.47081958176521,200.07171091407798 96.23087655348525,200.08739346503637 96.06699389694685,200.1187585667662 95.89291758243975,200.1595331991552 95.79411751194404,200.1720792397069 95.67179361515169,200.16894272944046 95.49575698169225,200.12816809723842 95.3436362383493,200.10307601599476 95.2581663361355,200.10621252593404 95.0887947867944,200.12503158711218 94.90687719671462,200.1595331991552 94.80101997842317,200.16894272944046 94.67987227299169,200.15326017880923 94.55009916463123,200.12189507689243 94.41875780109082,200.07171091407798 94.22782274426372,200.00898071071177 94.03963213393145,199.9148854054288 93.8718288396301,199.83333614111817 93.76989225900815,199.7894249986964 93.69108744091193,199.76746942753226 93.59542388068267,199.72355828506377 93.43036503278269,199.64828204081869 93.10377591102079,199.5071390829877 92.87951543369921,199.4193167981909 92.80619950835899,199.40363424741946 92.59918983698809,199.3659961251567 92.46902466476328,199.32835800303417 92.31690392137358,199.2907198812388 92.18203398393456,199.26562779966798 91.99070686343005,199.2342626978914 91.89504330310731,199.20289759630177 91.66411774166815,199.11507531136476 91.40496358857865,199.03038953669423 91.13365545861559,198.97079584354773 90.93723150903251,198.95197678236963 90.7129710316642,198.94256725189743 90.55261694907043,198.95197678236963 90.28601358441357,198.98334188428643 90.01313719931727,199.00843396538986 89.7237941359063,199.04293557752638 89.19764455438833,199.1244848419772 88.76755059687052,199.171532494385 88.63934574359729,199.1966245759558 88.49545833941167,199.24680873877028 88.38254397313753,199.2750373302804 88.30452328258457,199.2844468608461 88.22493433694511,199.2750373302804 88.18141525834172,199.259354779322 88.14495332753404,199.259354779322 88.09163265459333,199.2750373302804 87.98381511739701,199.30640243187003 87.69368792639605,199.37226914550268 87.47922904336505,199.41304377784493 87.20674472204038,199.49459304229575 87.01776998411813,199.55105022531598 86.92406674274699,199.5667327764146 86.73587613232125,199.5792788169663 86.60767127899982,199.57300579662035 86.51475216512593,199.54477720511022 86.44653306891027,199.5071390829877 86.36184729423972,199.4255898185836 86.27284881803457,199.30953894213647 86.20149321164594,199.2436722283636 86.17169636495586,199.2123071269142 86.16189477066456,199.15898645369307 86.13562649796656,199.11507531136476 86.09759631216586,199.08057369936847 85.96625494867219,199.00529745545057 85.78786593253702,198.92061168059305 85.50910859095985,198.78260523316874 85.36169261282964,198.6979194584982 85.2813195396002,198.63518925494506 85.20800361435344,198.5505034802745 85.12410196722614,198.41249703270998 85.08960035527659,198.30585568687528 85.05274636074404,198.1333476272677 85.0331431721629,197.99220466957692 85.01157966472435,197.9357474864165 84.9574748642864,197.81028707935695 84.88259068385969,197.68169016221788 84.73791915217757,197.50918210275054 84.5920714290871,197.36176612457356 84.38584588530692,197.18925806510623 84.23882197094832,197.07320718884606 83.81852960767507,196.84737845643798 83.6515104409637,196.70623549846678 83.37706580082765,196.51177186783528 82.91482261413097,196.32044474718984 82.72075104713088,196.23889548292595 82.59607476775479,196.17930178935885 82.44944291716781,196.07579695393082 82.26713326336315,195.87192379240645 82.17421414948926,195.72137130410326 82.13539983609785,195.53318069400467 82.14873000433303,195.37321867494884 82.18166336114936,195.21952967670634 82.30633964052545,194.9842914137326 82.39690637177034,194.74278013041285 82.40357145588793,194.6518213353496 82.24243324579766,194.50126884704642 82.02444578872857,194.33503380783154 81.7680360821339,194.22839246199686 81.38224533085695,194.06215742259505 81.0246831710901,193.91787795463782 80.77140997466843,193.8551477512716 80.50519867368973,193.80182707851785 80.24839690332345,193.79869056811117 79.88103314926603,193.83319217996726 79.72969653346632,193.93983352594216 79.6426583761193,194.05274789212282 79.58502500169072,194.2440750127683 79.50778843872774,194.52008790799084 79.45093919179568,194.70200549788365 79.35292324888995,194.84001194563513 79.26431683650317,194.91215167961374 79.1055310090419,194.94038027126408 78.93615945974827,194.93410725091812 78.54958458088059,194.81178335412503 78.35668920524357,194.75218966069812 78.02853182834772,194.70514200829032 77.68077126296492,194.6675038860276 77.30595829724666,194.65809435569557 77.09698830697165,194.67691341664 76.88056910508253,194.78982778282068 76.61514193164707,194.98115490332592 76.43244021411753,195.156799473013 76.26894962135077,195.39203773598675 76.17367812479966,195.55513626516884 76.10545902853727,195.7307808347157 76.0905606052156,195.85310473150878 76.07997488342852,196.0036572199522 76.02390976408644,196.14480017764296 75.94353669085628,196.26398756402938 75.73103812673085,196.44276864398293 75.57499674553219,196.52745441865346 75.3487759493985,196.6090036832445 75.11196943124479,196.66232435599827 74.84340574768235,196.6717338866107 74.43056259621088,196.69996247812082 74.24629262350136,196.7313275800376 73.99223529953645,196.74073711032287 73.81227802836152,196.6968259681348 73.70681287374822,196.68427992730264 73.61389375996706,196.66546086640494 73.3484665865316,196.56195603050955 73.08617592326912,196.50549884734912 72.66274704996384,196.42081307267856 72.46279452643542,196.34553682876066 72.08053234910307,196.22634944218728 71.7359082938005,196.16048272860135 71.42343346781631,196.1134350757262 71.25602223733331,196.12284460633862 70.98863474508649,196.10402554544092 70.67027896252867,196.08834299448253 70.54481855565606,196.0946160148285 70.24136119641993,196.14480017764296 70.066892818001,196.13225413695105 69.97162132149589,196.10402554544092 69.85164980738,196.05070487236 69.76421958635483,195.97856513838138 69.64424807228568,195.8186031196527 69.51212258115454,195.7088252634113 69.37137168714119,195.64609506018536 69.05732860607196,195.55827277510812 68.76288871358314,195.50495210235437 68.29907727175322,195.35439961405115 68.0575659884335,195.29794243103092 67.81566264134142,195.2728503494601 67.65962126023624,195.28225988007253 67.370278196872,195.33558055296652 67.02408588643547,195.44222189894143 66.6186919466241,195.55199975476216 66.37090764291167,195.63041250908674 66.0560804343452,195.6962792228596 65.78320404924818,195.71823479416398 65.58678009966583,195.70255224320556 65.2990052912946,195.64923157026485 64.90772564721492,195.55513626516884 64.57525556887869,195.44222189894143 64.08125521663379,195.33871706309276 63.64292791995937,195.28225988007253 63.36103406820922,195.28225988007253 63.086981491891535,195.32930753248033 62.829003530070175,195.40144726645894 62.492612814017704,195.50495210235437 62.18523481715881,195.62100297861454 61.98802673998574,195.711961773818 61.74220275513143,195.86251426193425 61.58498518271064,196.00993024015796 61.43952952348527,196.16989225888662 61.354843748814716,196.35494635918613 61.276823058261755,196.46158770516104 61.095689595725226,196.6466418051801 60.97571808165535,196.80660382395553 60.75028141297217,197.21121363627037 60.5620908025457,197.59386787760803 60.48407011199347,197.7789219777673 60.44800024500415,197.94202050676245 60.381349403875,198.04866185259715 60.15356035251534,198.20862387132584 59.99163801483507,198.27449058495847 59.85755220494003,198.33408427838538 59.59369328668454,198.4375891139536 59.330618495878824,198.5442304597883 59.173400923458026,198.59755113286926 58.89699596446387,198.65087180590345 58.608437028549396,198.66969086698808 58.297922521424034,198.64146227533774 58.00740326665145,198.56618603109268 57.83058250564951,198.47522723607617 57.628277599491355,198.32467474777295 57.41146633383134,198.09570950514518 57.27816465143281,197.91379191525235 57.0864454671092,197.58759485707512 56.8178817835475,197.21748665675656 56.541476824553335,196.80346731382926 56.31211951815392,196.4333591135107 56.26193535538619,196.31730823725053 56.15411781818989,196.12598111655834 56.01767962566511,195.80605707891402 56.001212947256214,195.62413948888099 56.037282814246254,195.51749814304628 56.128633673035125,195.3512631037847 56.20430198095762,195.26657732911414 56.405822759571805,195.0783867186884 56.70849599131144,194.85255798618687 56.980588248864485,194.68632294706546 57.05272798274963,194.61104670286713 57.11937882392552,194.50126884704642 57.1770121983541,194.29112266536305 57.25268050627732,194.10606856520377 57.35971391593038,193.8269191596213 57.41146633383134,193.38780773559057 57.4244044382949,193.21843618620272 57.44988858345039,193.02710906555726 57.41538697150084,192.8263724145798 57.341678982435724,192.66013737550514 57.23386144523942,192.58486113111985 56.866105627503856,192.43117213287738 56.59989432652515,192.34334984780014 56.45287041216582,192.27121011382152 55.95181291203246,191.95755909652317 55.58366503047853,191.72232083354942 55.17513458044817,191.48394606063638 54.910883598373594,191.3929872654329 54.73837553890624,191.34280310275864 54.508234104916845,191.28634591973844 54.059321086455334,191.20479665519412 53.45475875061279,191.07933624813458 53.16619981465158,190.99465047346402 52.830985289960715,190.85037100569375 52.61535021556811,190.74059314945237 52.38285639899571,190.59631368149513 52.18525625805029,190.43948817284596 52.109587950127796,190.3453928678434 52.08606412387716,190.18856735919422 52.122133990866466,189.90628144339203 52.12527050103945,189.57694787527552 52.10723556749806,189.26643336824364 52.089200634050144,188.97160141184298 52.02490217545724,188.74577267962187 51.943744974731295,188.6077662318704 51.79084010379836,188.47603280479203 51.617939980559385,188.41330260109868 51.28821434862451,188.3348898467741 50.84910292436009,188.28784219422607 50.491540764686725,188.3129342757969 49.975976904955836,188.2972517248385 49.50001148620561,188.30038823505822 49.264773223231856,188.27843266375388 49.05423497791708,188.2376580314116 48.85702690074401,188.16865480769945 48.708042667620774,188.08396903316913 48.60885053335344,187.99928325849856 48.54455207480728,187.89577842260317 48.44928057830291,187.67308620046154 48.335582084578995,187.44098444761406 48.1909105528034,187.17751759313018 48.02428344986366,186.93914281974975 47.85804841069554,186.8074093926714 47.569489474734326,186.5972632109413 47.15899870589186,186.33065984637793 46.902588999203736,186.20519943931836 46.63049674169742,186.12365017505448 46.21098850610763,186.0044627883409 45.95614705455273,185.94800560532067 45.684838924590395,185.88527540167408 45.23945447997929,185.8539103000377 44.76231286991419,185.84450076961224 44.421217388648984,185.84763727969175 44.02327266040498,185.81940868804142 43.686097816856,185.82568170838738 43.283056259580896,185.92918654414257 42.90902742145335,186.05151044093566 42.58283036346308,186.20519943931836 42.387974668965754,186.32752333611145 42.18959040057129,186.46239327345629 42.004536300318534,186.62862831285807 41.84339809022825,186.78545382150725 41.55993598329814,187.06460322694952 41.316464381167044,187.25593034745475 41.07064039631273,187.4033463253513 40.74836397608542,187.56644485434643 40.38100022202801,187.71699734264962 40.08734445708244,187.826775198891 39.76977280206786,187.90205144294913 39.43181383097564,187.9710546668015 39.1632501473672,188.0682864822107 38.83352451547906,188.1623817874937 38.41480040733904,188.24079454181827 38.14427640496596,188.2564770924495 37.968239771507264,188.23452152147232 37.6569411367912,188.14983574675503 37.17235031506599,187.9961467480919 37.02532640070739,187.92714352451995 36.56582766036533,187.6919052615462 36.40861008794453,187.644857608671 35.99027804362287,187.5162606918124 35.49118086239363,187.30925102020854 35.25006164284553,187.2151557152527 34.98032176792222,187.08655879811366 34.71332633944701,186.94541584023594 34.49847539264438,186.83563798418152 34.23069583662593,186.7384061689125 33.93390356146063,186.6850854958783 33.70689863769096,186.6882220059578 33.20192049993411,186.71958710773438 32.712624912855226,186.78231731110057 32.35271037050538,186.80113637232543 32.02533712124697,186.78545382150725 31.60622094933533,186.71645059760814 31.345498541252823,186.68194898561185 30.9961697207368,186.6568569043682 30.766812414337387,186.66312992457395 30.528045577372286,186.67567596526587 30.0767801762343,186.76977127040865 29.282458974926257,186.94855235036218 28.737490332370392,187.15556202182583 28.274463018130454,187.3406161219851 27.932583409228528,187.48803210002185 27.633830815298595,187.62603854777333 27.333117902463812,187.7640449955248 27.029660543227667,187.88950540225719 26.71718571719746,188.03064835994797 26.279642548066278,188.21570246024746 26.11379957266978,188.30038823505822 25.783289813191654,188.52308045719985 25.575888078049864,188.6642234148906 25.48453721926172,188.76459174051956 25.341433942572618,188.89632516792508 25.217541790739773,189.01864906471818 25.126190931951633,189.20370316487745 25.08188772580498,189.3448461225682 25.02347022383316,189.47971606005325 24.898401880638712,189.64281458890818 24.714131907975936,189.78395754673917 24.523588915013935,189.9031449332658 24.304033202857628,190.00664976902098 24.04997587889344,190.08192601321932 23.934709129989564,190.12583715554763 23.666929573971107,190.21052293021816 23.3419087072957,190.3077547457676 22.852613120309563,190.3548023981754 22.756557496309412,190.3736214592133 22.396250890187947,190.3704849491338 22.04535381453869,190.39557703051767 21.639959874680585,190.41125958133586 21.513323276446382,190.4332151525 21.25181674077389,190.4457611931919 20.967570506347272,190.48339931531447 20.704495715635026,190.5555390492931 20.40339073902862,190.61199623231332 20.045828579261773,190.70295502732984 19.752956941906188,190.8127328835712 19.291105818887644,190.95701235152842 18.798281657957627,191.06679020744264 18.41680360821526,191.12011088052355 17.958873122912948,191.13892994142125 17.549558545338613,191.12011088052355 17.030466111709863,191.04169812619898 16.70426905371959,191.00092349380998 16.239673484346422,191.00406000393622 15.950330420935442,191.03228859558655 15.50886661408803,191.09188228901345 15.27009977712293,191.09501879895274 15.009769432812046,191.09188228901345 14.671026334083102,191.0856092686675 14.28601971034939,191.09501879895274 13.95629407841451,191.09501879895274 13.748500279501098,191.0699267177091 13.437593708603387,191.0448346364187 13.049450574697422,191.06679020744264 12.684439203269742,191.10129181943893 12.335894510296962,191.12952041108926 12.119475308361109,191.1608855125854 11.797983015677048,191.19538712458169 11.31456838526598,191.31771102123457 10.97504115904053,191.45571746912626 10.821352160564341,191.54981277408208 10.704517156573973,191.65959063018323 10.601012320865522,191.78505103705584 10.559845624892581,191.8760098322593 10.51632654619497,192.07988299331626 10.454380470278547,192.2743466242282 10.397923287164845,192.3653054191045 10.275207326693607,192.49703884651 10.10269926717952,192.66641039585113 9.916861039383518,192.86087402662284 9.797673652810149,193.04592812678212 9.573021111716951,193.39094424567008 9.466379765788776,193.54776975431923 9.336998721153211,193.69832224262245 9.24329547978134,193.80182707851785 9.157041449978289,193.84887473092564 9.109601733705391,193.93669701586265 9.04451914752251,194.00256372944858 8.997471494974496,194.0370653414916 8.870050769197046,194.1092050754235 8.630891868460324,194.2440750127683 8.374482161912407,194.34757984838328 8.131010559641096,194.48558629613476 7.782465866715054,194.61731972321311 7.549579986324298,194.68318643698598 6.9477620968831095,194.9372437608574 6.707819068696617,195.04388510697254 6.526685606160088,195.14111692238177 6.362410885850083,195.2258026969121 6.21185839754688,195.28539639029225 5.932316928379735,195.39203773598675 5.6167055922707485,195.47358700043756 5.535940455268958,195.50495210235437 5.24424500922824,195.00624698489673 5.223465629285487,194.91528818969326 5.202294185617849,194.83373892528917 5.1768100404623585,194.74591664035216 5.1372115995284435,194.66436737608828 5.10192586008238,194.57340858102503 5.063111546691711,194.49499582670043 5.021160723174796,194.41344656215614 4.981954346012503,194.33503380783154 4.9274574817561865,194.17507178891591 4.8988368263817055,194.1092050754235 4.848652663660709,194.01197325992078 4.810230413994924,193.9523795667743 4.766319271619895,193.87083030223002 4.735346233614946,193.78928103777918 4.706333514514849,193.71400479358084 4.646347757503279,193.6167729781716 4.604396933892889,193.53522371362732 4.486777802406012,193.28743941010183 4.460509529707275,193.24039175750707 4.355436438959069,192.92987725033498 4.339753888047415,192.87655657725406 4.318190380608154,192.78873429264422 4.264869707667437,192.64445482454676 4.249971284345765,192.5629055599557 4.254283985880355,192.39980703096057 4.256636368510092,192.32453078690244 4.256636368510092,192.24611803257787 4.261733197494453,192.14888621730887 4.32642371990571,191.90737493398913 4.3299522937568415,191.76309546607865 4.333088803929825,191.59686042681705 4.309957041451541,191.51844767249247 4.294666554310779,191.34280310275864 4.258988751093092,191.2581173280881 4.227231585638373,191.19225061450217 4.193514101232064,190.94446631078975 4.186849017114474,190.89741865810154 4.175479167784147,190.84096147508131 4.188417272247704,190.77823127171513 4.218998246387554,190.70295502732984 4.244482391589782,190.6276787834119 4.2699665367452715,190.5586755595128 4.311917360262187,190.4802628051882 4.364453905706397,190.40498656098987 4.428360300434195,190.32971031693174 4.509125437435256,190.23561501178898 4.5796969162806445,190.15406574705773 4.640466800882198,190.06937997238717 4.762398633856928,189.88746238263457 4.800820883475974,189.83414170941342 4.973721006761684,189.62399552801048 5.031354381236992,189.56126532459754 5.089771883209537,189.5016716312174 5.135643344488689,189.45462397862264 5.197981484176735,189.40130330572867 5.26541645284914,189.3448461225682 5.350886355062937,189.27897940879535 5.4242022804499,189.23193175638755 5.607688125475953,189.14724598167027 5.819794625923955,189.05628718651354 5.933885183559702,189.0029665137598 6.023667787168606,188.95905537129127 6.56314753692102,188.65481388460535 7.230832140041598,188.1623817874937 8.374482161912407,187.4472574678198 9.402081307242618,186.7791808011613 9.698089454817925,186.44043770229212 9.863540366489538,186.06719299189405 10.141121516798568,185.69394828116882 10.568863091639178,185.27992893824154 10.908390317817894,184.88159214641286 11.628611466382681,184.20724245922142 11.915602147163925,183.95318513506956 12.341383403099684,183.68971828058568 12.561723242751766,183.47329907864983 12.644056634839318,183.3102005496547 12.691104287387333,183.0780987969474 12.695809052693544,182.65780643381436 12.649937591366925,182.3629744774137 12.642488379706089,182.07755205162547 12.811075801550684,181.68862479040922 13.078071230025897,181.40006585449476 13.42269528523571,180.91077026736914 13.815151120630256,180.45283978211356 13.86102258191014,180.05450299014467 14.093516398481803,179.52756928103673 14.398542012851907,179.10414040777744 14.514592889205554,178.8155814719097 14.752183534809047,178.55211461742584 15.209329892568114,178.05027298956153 15.364195082312431,177.77426009438574 15.288526774389208,176.95249442901735 15.129740946881922,176.3471479655848 15.003104348694457,175.94253815341017 14.99408688190039,175.56302042233898 15.091710761080506,175.18036618146868 15.07210757250009,174.89494375568046 14.932532869755592,174.64088643162205 14.54517386343888,174.2519591701254 14.248381588321056,173.89439701035855 14.175065662980101,173.47724115749196 14.262103820280391,172.9252153669534 14.43225949716474,172.31986890352087 14.525178611039374,171.63924619617043 14.656912038351413,171.19072524134032 14.901951895615742,170.688883613663 15.266963266949947,169.76674962266566 15.693920714247312,168.41491373825002 16.062852723344484,166.90311583477856 15.475933257224966,166.22249312724114 14.97252337446113,165.64537525559916 14.156246601988938,164.87693026303128 13.389761928419384,164.6103268984679 12.785591656348457,164.21826312684496 12.693456670063807,163.90147559928016 12.651505846453416,163.50313880731127 12.650721718956909,162.91347489497736 12.742856705241557,162.21716963634134 12.635039168045253,161.56163901037476 12.33315006394234,160.8841528128234 12.13202134905304,160.23803171718882 11.945398993807267,159.9526092914006 11.713297241006495,159.83028539474773 11.280850900859672,159.770691701648 10.959358608128873,159.56368203018434 10.655117121349484,159.26257705357796 10.362637547719514,159.02106577025822 10.080351632150277,158.89874187346513 9.689071988070598,158.72309730373132 9.347976506805391,158.62272897828933 8.52973941538161,158.72309730373132 7.815399223531379,158.59450038677923 7.270038517203891,158.46903997957946 7.039112955671251,158.3122144709303 6.735655596435107,157.89505861820393 6.699585729445798,157.39008048021338 6.745457190726411,157.02938181022682 6.649401566771539,156.75023240478455 6.558834835433168,156.41148930624257 6.420828387821898,156.01942553461964 6.329477529033757,155.7841872716459 5.606903997978715,155.27607262357583 5.133290961858952,154.8745993214807 4.645563629960034,154.43548789716954 4.247618901762765,154.04656063595328 3.916325014694656,153.63567780310552 3.773221738098296,153.19029335872884 3.7328391695751275,152.9080074428799 3.7716534829657973,152.644540588396 3.890840869585904,152.3277530611584 4.055115589895179,151.92627975878284 4.266437962800666,151.48403182434544 4.455804764447801,151.14215221553698 4.629096951551871,150.69363126089382 4.650660458944394,150.20433567404862 4.561661982879466,149.4798018239025 4.414638068520869,148.69253777057716 4.287217342743419,148.13737546991237 4.2699665367452715,148.062099225714 4.2213506290640295,147.4567527622815 4.246834774219519,146.50325366983475 4.0805997350514,146.06100573539734 3.754402677061126,145.52466249567698 3.7410725088259467,144.72171589167365 3.7132359809947117,144.26064889601142 3.7304867869446596,143.90622324651102 3.7371518711097176,143.4671118224803 3.8010582658375163,143.0875940914091 4.068445758084351,142.80217166562088 4.3750396275402155,142.57634293325953 4.829833602576071,142.33796816001933 5.007438491121255,142.1936886922023 5.044292485700548,142.06195526484353 5.078009970013382,141.9114027765403 5.089771883209537,141.65734545266886 5.068992503266054,141.56011363711943 5.0039099171766495,141.39387859799805 4.975289261848175,141.23078006900292 5.031354381236992,141.05513549917563 5.121529048663526,140.88890046005426 5.186611634752932,140.77912260414004 5.325402209954185,140.59720501392005 5.498302333239895,140.39019534273683 5.584556362950201,140.26473493572402 5.721778683018224,140.0765443254385 5.838613687009324,139.9354013674673 5.998183642059123,139.7409377368358 6.175788530557571,139.57156618735448 6.409066474673211,139.37082953651725 6.607450743114411,139.1889119464842 6.794857225950169,139.0383594580408 6.955995436133929,138.89407999008355 7.3884417761872765,138.5522003811349 7.670727691755783,138.35460024042388 7.967519966874336,138.14131754861427 8.137675643758685,138.01585714169494 8.377618672038652,137.84334908227433 8.583844215865573,137.72102518548124 8.764193550812118,137.61124732923986 8.915530166658568,137.49205994285344 9.013154045792676,137.31014235277368 9.023739767673232,137.15958986447046 9.030404851790822,136.95885321353975 9.028052469114348,136.7800721335862 8.98178894410958,136.5385608502665 8.839077731192098,136.12767801741873 8.69989509226596,135.88930324450567 8.665393480363141,135.8516651222429 8.394869477943324,135.57565222720734 8.181978849952076,135.42509973890412 7.987907283045466,135.31218537272346 7.784818249298054,135.21809006744047 7.505276780177645,135.06753757899708 7.2872893231085625,134.9295311313858 7.179863849683881,134.81661676520514 7.048130422418578,134.67547380737415 6.878758873077475,134.48728319708863 6.78427150411635,134.28027352576518 6.694488900461438,134.11090197628388 6.6188205925382135,133.85684465241243 6.562363409377775,133.6529714911685 6.540799901985252,133.4114602078488 6.467483976644297,133.0225329463521 6.351041036519756,132.63674219493493 6.192255208965734,132.24467842331202 5.978580453477977,131.8996623043773 5.655127841888334,131.45741437008013 5.270513281926975,131.04025851693314 5.044292485700548,130.63878521469778 4.755733549739338,130.11185150573004 4.551076260998179,129.82015605959586 4.272318919328272,129.53159712386832 3.8692773620999055,129.2932223504879 3.4779977180202266,129.0172094554523 3.365475415611185,128.87606649776154 3.2537372406986513,128.73806005001006 3.3094102962691068,128.5843710514404 3.574053342114581,128.371088359771 4.013948893828765,128.04489130164052 4.629881079095116,127.63087195885343 5.078009970013382,127.38308765518775 5.439100703678095,127.15725892296663 5.639837354842508,126.80596978340554 5.705312004610061,126.45154413404536 5.580635725280709,125.98106760809786 5.446549915385669,125.56391175490411 5.101141732539134,124.967974822084 5.007438491121255,124.13993613636966 4.972936879265176,123.70082471233893 5.2128799074509375,123.01392898431536 5.298349809665465,122.1702077476426 5.2909005980046295,121.49585806063813 5.485756292547961,120.82464488343273 5.589653192028766,120.2192984201404 5.7151135989006345,119.85859975043427 5.95623281849474,119.40380577511799 6.187158379934636,119.08701824774013 6.9156128676100295,118.6259512522181 7.327671891585723,118.27466211298417 7.694251518099896,117.92650948382976 7.780897611581824,117.78850303607827 7.969872349504074,117.45916946782154 8.180410594865585,116.98555643193474 8.277250346456446,116.62172125182192 8.362720248670245,116.03205733916083 8.46387270174896,115.71526981178299 8.37997105466839,115.26988536707913 8.292932897321364,114.84331998360013 8.24039635197063,114.50457688505813 8.105526414532344,114.1501512353708 7.9369389926877485,113.8114081368288 7.576632386613018,113.37856973300383 7.35001952656823,113.0931473072156 7.112428881010745,112.92377575782776 6.890912850044523,112.79204233060919 6.014650320467286,112.3937055386403 5.532803945095974,112.13023868415644 5.1595592346051555,111.83854323802224 4.69574779268103,111.54057477163556 4.190769654830704,111.37120322215425 3.7312709145353735,111.29279046782966 3.172187976201083,111.18614912185475 2.706024151694688,110.92895528771685 2.622122504567382,110.70312655535551 2.5350843473138305,110.3549739262011 2.5425335590214035,110.06014196980044 2.662505073091281,109.81235766627498 2.7381733810145055,109.72139887125846 2.945183052384672,109.47675107767228 3.1894387821992294,109.16310006037394 3.556802536115704,108.75221722785332 3.9418091598501466,108.31624231376189 4.248403029259274,107.86772135911873 4.437769830953146,107.51643221955764 4.587146127988218,107.14005099889312 4.7039811318851115,106.85149206283843 4.698884302947489,106.64761890178146 4.546763559464319,106.43119969970539 4.336617377875162,106.21791700789578 4.122550558568315,106.04540894856865 3.75597093210088,105.83212625661882 3.473292952807489,105.67216423803036 3.0769164796499746,105.50279268864251 2.6679939658472644,105.40869738340628 2.3688493081457103,105.40242436301358 1.9560061565800333,105.34910368997939 1.4980756713244572,105.15777656961434 1.160900827728742,104.92881132684634 0.9389927329901668,104.75003024689282 0.7127719368104769,104.527338024611 0.47949399264809917,104.28582674129127 0.30659386940912703,104.05686149866348 0.14153502150913813,103.78398511389436 0.050184162720996704,103.54874685092061 0,103.29155301664248 0.009017466700589623,103.05945126374824 0.1497683607599572,102.75834628728205 0.28463829819824327,102.51369849374261 0.4414638068474131,102.20318398666399 0.5888797849308951,101.93030760161443 0.7433529109503274,101.50687872807472 0.7786386503963906,101.04894824281915 0.678270324860922,99.86334739766511 0.6555306261067922,99.43364550391965 0.7464894211225805,99.11685797621463 1.0566118644770441,98.81261648952872 1.512974094692866,98.47700990092602 2.07519354320014,98.24177163795227 2.7291559142204407,98.0316254565026 3.4787818455634723,97.6740632969227 3.996698087877356,97.38864087113447 4.69574779268103,97.25063442338299 5.255614858558567,97.05617079261128 5.757064422511025,96.71742769406929 6.230677458631518,96.2751797596319 6.584318980588658,95.83293182519449 6.840728687230051,95.41263946206146 7.017549448278728,95.01430267009256 7.041465338395194,94.61910238820319 6.946193841843355,94.1611719029476 6.712523833909355,93.66560329561624 6.5004173334620825,93.15748864754619 6.512963374153286,92.69955816243082 6.519236394499253,92.39218016552519 6.410242666034818,91.97188780239215 6.164418681179776,91.33517623718303 5.942902650261021,90.77060440595255 5.9021280179647695,90.47890895981836 5.930748673293243,89.92688316942002 5.989166175312526,89.43758758243462 6.296544172310907,89.14275562617418 6.73643972402509,88.8165585681839 7.184568614990093,88.46840593902948 7.3735433529123435,88.3115804303803 7.6491641844099965,88.17043747268953 8.181978849952076,88.02929451499875 8.76811418852835,87.96970082143164 9.26721136980433,87.97911035218428 9.912548337942402,87.98851988260975 10.737450513390298,87.97911035218428 11.363968420537207,87.89442457751373 12.022635556770245,87.87874202655534 12.834207564123174,87.89128806710706 13.52071122814144,87.73446255845789 14.181730747097692,87.54313543809285 14.853335987981236,87.19811931887773 15.3277331515515,86.79350950656287 15.996201882215324,86.43281083685673 16.520783208600058,86.25716626698271 16.86031043482551,86.01879149406966 17.248453568732206,85.6361372528722 17.340588555063594,85.30680368480243 17.365288572722577,84.870828770711 17.418609245616558,84.57286030437105 17.581707774611694,84.09297424781111 17.69658245969721,83.65386282345322 17.86830639171479,83.24925301113836 18.236062209450356,82.4368968763824 18.48502270443091,81.97582988104732 18.760643535928565,81.68413443491313 19.606717155090838,80.98469266633784 19.859990351512508,80.26956834680414 19.772560130487335,79.59521865979966 19.543202824041185,78.92714199300093 19.339329662797265,78.51625916015315 19.106051718728363,78.03010008338747 19.16446922065344,77.85445551356018 19.35109157599269,77.7007665153177 19.516150423799203,77.58157912874432 19.717671202460124,77.43102664044112 19.974865036598757,77.16442327573753 20.14423658593913,76.84449923809322 20.264600163827367,76.4994831188781 20.46494475112595,76.27992740686274 20.641765512175358,76.1607400203361 20.844070418286048,76.06350820478667 21.134981736877,75.9694128996439 21.422756545248955,75.91922873696964 21.75444249599521,75.87531759468808 22.020653796973182,75.84395249277131 22.244522210523137,75.77181275879269 22.41546201495073,75.65889839247181 22.51308589408484,75.47384429231253 22.614238347163553,75.25428858029717 22.64325106626365,75.18528535639805 22.727936840934202,74.98454870546733 22.851828992767047,74.72735487132942 22.989443376606694,74.52975473043148 23.199589558196582,74.17532908065067 23.31995313608482,73.83031296190292 23.31877694476995,73.61703026990635 23.330538857965376,73.39747455775078 23.294468990929328,73.18732837634785 23.23840387158725,72.92386152186398 23.186651453733752,72.68235023854426 23.186651453733752,72.50356915873094 23.24663721083734,72.25264834479879 23.301526138865277,71.98290846996896 23.35523887553088,71.62848282042184 23.370921426489275,71.35560643537228 23.33798806962621,71.10782213151964 23.240756254216986,70.84121876695626 23.023160860966264,70.57461540206573 22.81811150845348,70.30801203764256 22.26490952664753,69.62738932982474 22.008499820099612,69.21650649730412 21.914796578588255,69.0565444783885 21.79521712828927,68.87462688849567 21.731310733469456,68.74289346109016 21.721509139177424,68.58920446270744 21.83089493150769,68.44178848448375 22.132391971885717,68.05599773339374 22.325679411248352,67.76430228721281 22.59541928617239,67.51651798340691 22.827913102745516,67.23423206802536 22.958078274923597,66.97703823374724 23.1298022068477,66.69788882830498 23.303486457676655,66.47206009594366 23.56812950352213,66.22427579241818 23.82453921021026,66.03294867172598 23.999007588535722,65.89494222416145 24.124860059272688,65.73811671551228 24.226012512352135,65.56874516612443 24.35500149316934,65.4025101270498 24.50045715248818,65.18295441489421 24.594160393859323,65.01358286550638 24.60474611573988,64.93203360110228 24.650225513201402,64.58701748188716 24.657674724909704,64.30159505609893 24.65179376828789,64.11026793559368 24.53652701947749,63.79034389794938 24.5549540166963,63.43278173818253 24.60474611573988,63.087765619434784 24.71609222688079,62.749022520565624 24.770197027318016,62.4541905644454 24.810579595841915,61.93666638566945 24.846649462831223,60.79497668279697 24.860763758656386,60.21472230093525 25.123054421778647,59.29886133028389 25.239497361997394,58.665286275341245 25.283408504372424,58.29204156489643 25.37279904434919,57.92193336429744 25.46807054085356,57.66160302008003 25.589218246285043,57.43263777745224 25.808773958347142,57.159761392215735 26.085570981159666,56.91511359876977 27.35938617516255,56.25644646258347 27.92905483528465,55.902020813083084 28.80727768376601,55.25589971726155 29.816057768151794,54.53450237766232 30.738583822733798,53.885244771761286 31.507420878885622,53.18893951331223 31.78853060313999,52.9631107809509 32.30566271795737,52.65573278385832 32.69733442576193,52.40481197006638 32.893758375391755,52.21348484942092 33.129780765908755,51.931198934039365 33.29562374130525,51.605001876002355 33.34933647797085,51.25684924670772 33.50459373158027,50.81460131227033 33.65357796475024,50.560543988398884 33.98212740541699,50.18416276773435 34.47299124744215,49.87992128086149 34.62864056482319,49.63527348746226 34.68941044937801,49.33103200058939 34.71254221190376,49.05188259533408 34.636873903980536,48.82291735270629 34.2930339763147,48.43712660128912 33.761787565718166,48.10152001282664 33.2399506857348,47.71886577181614 33.08194898572402,47.54322120194212 32.98432510658991,47.37384965260102 32.92982824238106,47.075881186261064 32.912577436382186,46.62108721127195 32.761240820536464,46.31998223452533 32.45778346130032,45.880870810307655 31.9277132421596,45.306889448651695 31.33295250056089,44.78622875988971 31.071838028613282,44.47257774259137 30.85698708176319,44.149517194680605 30.758579075085837,43.77940899436204 30.790336240634762,43.53476120091607 30.848753742606576,43.296386427722595 30.812683875617267,42.982735410424254 30.575093230060514,42.665947882999674 30.391607384894247,42.32406827405101 30.306137482680448,41.869274298921674 30.135981805749363,41.40193428338084 30.033261097584155,41.18551508130477 29.99954361327132,41.034962593001566 29.99954361327132,40.937730777779294 29.991310274020503,40.85304500310875 30.019930929348977,40.71503855535726 30.0744277936513,40.56762257732052 30.098343683673562,40.49861935356162 30.183029458437588,40.2571080702419 30.232821557340223,40.068917459862895 30.30221684491748,39.87131731896494 30.36377085706228,39.66117113728158 30.428853443151688,39.41965985396185 30.49511222055596,39.077780245153406 30.52059636571145,38.920954736504235 30.561763061778596,38.76099271758861 30.59979324757928,38.59789418859347 30.66291551485731,38.33129082384314 30.75661875622772,38.10859860174827 30.808371174082676,37.96118262352458 30.87855058924919,37.78240154357105 30.93853634626149,37.54402677051778 30.982839552502348,37.39661079248104 31.02400624847529,37.27428689568795 31.057723732881595,37.13941695834314 31.098890428855267,37.02022957162956 31.154563484425722,36.85713104249421 31.205531774783438,36.65639439165696 31.243561960584124,36.49643237278807 31.2482667258436,36.33019733352647 31.246698470757106,35.93186054155758 31.277279444990434,35.77817154317487 31.31570169460948,35.6683936869335 31.37176681395156,35.480203076788186 31.430184315923373,35.24182830359471 31.454100205945636,35.11636789653516 31.46978275685729,35.00345353049471 31.475271649613273,34.86858359286947 31.482720861321578,34.670983452018255 31.503500241170123,34.539250024893164 31.520751047121532,34.36360545506588 31.567406635991397,34.11268464113373 31.61170984213732,33.98095121405538 31.651308283071966,33.8335352359719 31.67992893840044,33.6892557680614 31.7179591242946,33.50733817784142 31.750892481110196,33.312874547069704 31.700708318296453,33.12782044705064 31.51800660072017,32.745166205759716 31.449003376914536,32.59461371745651 31.25924451144904,32.20568645610005 31.15221110184272,32.05199745753038 31.032239587726107,31.895171948881213 30.937752218811717,31.71952737919414 30.905602989445164,31.600339992807722 30.889920438580976,31.43096844327967 30.889136311037,31.286688975509385 30.910699818523,31.148682527757902 30.957355407392864,30.998130039454697 31.018125291900944,30.841304530805527 31.087128515753314,30.697025062988505 31.168677780250885,30.540199554339335 31.245130215670617,30.42101216753228 31.35961283698451,30.248504108064928 31.50977326151609,30.06345000804586 31.602692375390724,29.90662449939669 31.653660665701704,29.72470690936365 31.708157530004026,29.577290931139956 31.76735915951909,29.429874952963 31.841067148537462,29.260503403621897 31.91203069120121,29.08485883407504 31.98848312666768,28.906077754261723 32.0469006286395,28.774344326715994 32.11276734231888,28.61124579772086 32.1974531169427,28.470102840170295 32.265672213205086,28.344642433250957 32.32565797031013,28.184680414382065 32.409559617390705,27.93375960044992 32.446413611969994,27.78007060206721 32.45778346130032,27.613835562805612 32.47189775707875,27.4538735440302 32.46209616278817,27.265682933651195 32.367608793873785,27.096311384450303 32.24646108839556,26.939485875801132 32.12100068147623,26.792069897437226 32.01396727182317,26.660336470358875 31.76814328701633,26.359231493612253 31.653660665701704,26.23377108687987 31.50585262384587,26.145948801942858 31.35451600795341,26.08949161878242 31.126726956687232,26.026761415416228 30.874237887715328,25.964031211863084 30.607242459286855,25.92952959986679 30.123827828875058,25.938939130479216 29.98386106235967,25.948348661091643 29.823506979812628,25.964031211863084 29.468297202675522,26.00166933384541 29.34832568855891,26.026761415416228 29.12367314746571,26.045580476313916 28.81237451275037,26.08635510851596 28.61242198922268,26.117720210432747 28.42893614410388,26.105174169740813 28.272110635453977,26.0173518848038 28.108227978962333,25.898164498277172 27.984335827082752,25.79465966238177 27.837703976495778,25.656653214910712 27.72126103632377,25.543738848589832 27.54679265795084,25.352411728084583 27.4036893813092,25.214405280660266 27.31233852252106,25.10149091429265 27.22843687544049,24.935255875218004 27.19903209256877,24.816068488644635 27.163746353122708,24.69688110183758 27.102976468474417,24.568284184838735 27.08219708862514,24.483598410168185 27.117482828071203,24.361274513375093 27.1676669907922,24.26404269815282 27.199816220112016,24.201312494786627 27.460538628241263,23.87825194673565 27.549145040628044,23.7653375806952 27.687543551964197,23.57401046018995 27.883967501547282,23.37641031915178 28.078823196090614,23.197629239198253 28.20389153919159,23.09098789350377 28.30818050244329,22.996892588267528 28.491666347562816,22.85261312031029 28.571255293249006,22.793019426883394 28.66927123615474,22.711470162619513 28.810414193938993,22.607965326724113 28.93313015441023,22.51073351150184 28.98174606209147,22.46054934868737 29.095836619633744,22.338225451754063 29.295789143161436,22.363317533278146 29.322841543449425,22.363317533278146 29.375378088847626,22.363317533278146 29.559648061463662,22.363317533278146 29.716473570112832,22.385273104582502 29.74038946018183,22.391546124975207 29.881924481784445,22.43859377738301 30.091678599555973,22.51073351150184 30.30456922754722,22.598555796251897 30.551177339944775,22.702060631866875 30.76563622297578,22.811838488108247 30.964020491416978,22.93729889484063 31.153779356882474,23.053349771427968 31.343146158576346,23.156854606996205 31.54701931982027,23.232130851241283 31.78617822055699,23.272905483443328 32.008086315248825,23.33563568680952 32.1939245429981,23.439140522704925 32.37231355908652,23.55205488888559 32.59853435531295,23.63987717377586 32.84279008503403,23.693197846576368 33.06901088126119,23.69633435679609 33.30895390954043,23.677515295617976 33.55164138412828,23.627331132943716 33.7982494964791,23.53950884814692 34.030743313098235,23.464232603948577 34.25265140779007,23.40777542078814 34.2996990604783,23.379546829278027 34.324399077997064,23.36700078872631 34.40830072512437,23.33563568680952 34.63608977648403,23.24781340215294 34.86779946551318,23.156854606996205 35.122640917068075,23.075305342592113 35.39081253685816,23.012575139179184 35.671922261158535,22.978073527042678 35.96322564338089,22.974937017103382 36.222771860194534,22.952981445799022 36.484278395914494,22.918479833942943 36.73676746483966,22.877705201553947 36.98494383227697,22.818111508454212 37.23155194458105,22.758517815027314 37.40837270558299,22.71460667255881 37.60518871898517,22.717743182825267 38.168192294988216,22.758517815027314 38.60142276267829,22.77106385585946 39.100519943907535,22.81497499804754 39.888960188687975,22.981210037449348 40.30101921266367,23.037667220469576 40.958902221400194,23.172537157814386 41.492501014579,23.23840387158725 41.866529852800745,23.138035546098518 42.2997603203506,23.04394024067533 42.781606695675904,22.915343323676485 43.30148325684717,22.77733687620543 43.824888391963775,22.670695530230518 44.443565023631486,22.517006531707594 44.879932001401066,22.422911226424617 45.647200802467125,22.24726665687776 46.1364963895,22.206492024628975 46.61638244596573,22.17199041263268 47.163311407332976,22.153171351594782 48.19287087161478,22.059076046452017 49.44159398423379,21.95557121088378 50.36568829394903,21.82383778347826 51.0459189377148,21.710923417157385 52.133503840196795,21.50077723570771 52.82275195070989,21.394135889732798 54.517251571664175,21.052256281064558 54.70230567191693,21.143215076127817 54.90853121579059,21.252992931901808 54.99635350063413,21.309450115062248 55.14376947876435,21.456866093426157 55.261388610251224,21.641920193585438 55.284128309005354,21.67328529531527 55.58836979578401,21.53214233734407 55.79812391355627,21.3659072983629 56.02277645474367,21.2686754828602 56.38857195366713,21.231037360737663 57.19935983338334,21.171443667637927 57.52751721018499,21.202808769367763 57.8611634798361,21.243583401616547 58.31164475343157,21.29376756443102 59.490972578473325,21.576053479812575 60.096711105676754,21.748561539420137 60.49818440781863,21.833247314090688 60.66559563830162,21.83952033429644 60.92553391884088,21.905387048069308 61.15998805427139,22.04025698555433 61.35641200385447,22.165717392286716 61.59635503213444,22.28176826873384 61.82924091243172,22.372727063750357 62.44321277883996,22.598555796251897 62.69805423039486,22.61110183699057 63.334765795510485,22.589146265826425 63.454737309580366,22.670695530230518 63.54687229595849,22.761654325293772 63.61822790234712,22.855749630530013 63.75074545715494,23.01884815957189 63.96128370251791,23.24781340215294 64.16162828986323,23.495597705865364 64.40196338182135,23.74024549912438 64.63053656067751,23.975483762098136 64.75286045746988,24.10721718950365 64.96575108541512,24.285998269316966 65.1433559739603,24.430277737414414 65.4146641039241,24.684335061285857 65.62794679573297,24.84743359014078 65.87102633409245,25.032487690440277 66.07176298516339,25.1485385668874 66.29053456972898,25.283408504372424 66.55047285031497,25.37436729924873 66.81433176866467,25.433960992675626 67.21070824172799,25.49669119604182 67.2691257436998,25.506100726654246 67.48201637169105,25.53432931830457 67.73607369574944,25.606469052283188 67.92191192349871,25.637834153732598 68.26614391493689,25.697427847159496 68.79150936900508,25.79465966238177 69.1384858067979,25.86052637615463 69.27766844577077,25.904437518623137 69.37293994227515,25.948348661091643 69.68698302329837,26.24318061716513 72.16208161360063,28.216045515971686 74.61483256882691,28.24741061774826 76.92761675763055,27.883575437635447 78.55232902723594,28.488921901067982 79.04711350707082,28.61124579772086 79.26666921913291,28.64888391998361 79.51170907639724,28.73356969465416 79.75518067862181,28.786890367548143 80.04217135940306,28.80257291836632 80.32249695611345,28.8182554691845 80.5832193642427,28.880985672690905 80.81924175476043,28.95939842701549 80.9423497790493,29.02526514064814 80.96940217929128,29.037811181340075 80.99841489839137,29.0472207119525 81.2434547556557,29.08485883407504 81.48026127376268,29.091131854421008 81.61081850971239,29.091131854421008 81.64963282305705,29.097404874766973 81.8574266220172,29.16013507799295 82.04169659467998,29.295005015477976 82.06326010211923,29.313824076515875 82.21106814402108,29.451830524127146 82.42827147354691,29.567881400714484 82.4561080012854,29.58356395153266 82.63684940005031,29.69020529750757 82.83013683946041,29.79684664334227 83.03479412820084,29.90035147891051 83.26179905201725,30.006992824745208 83.49390080486477,30.107361150233938 83.52487384272949,30.12304370119233 83.55310243428634,30.13872625215072 83.74521368242831,30.242231087718963 83.76756131741082,30.248504108064928 83.80284705681015,30.25791363853714 83.84558200796378,30.25791363853714 83.81696135263458,30.12304370119233 84.00044719770811,29.683932277161606 84.11296950016389,29.511424217554044 84.16629017315134,29.389100320760953 84.30704106716396,29.194636689989245 84.58658253628438,28.755525265818306 84.71165087947882,28.535969553802946 84.82182079925813,28.350915453643662 84.86533987795501,28.16586135329743 84.88180655636317,27.435054482852085 84.97198122378971,27.16531460816246 85.23113537687921,26.892438222925957 85.42442281628931,26.785796877091258 85.61261342662158,26.719930163458606 85.98115337194712,26.688565061868985 86.30891868502388,26.685428551602527 86.83938096807644,26.719930163458606 87.10559226896167,26.72933969393082 87.30985749402394,26.748158755108932 87.58822277182875,26.763841305927112 87.88187853677506,26.763841305927112 88.16886921764977,26.73247620433749 88.25277086473035,26.71365714311264 88.83576969322638,26.550558614117502 89.05454127774597,26.4000061258143 89.2376350591406,26.218088535921478 89.5081590615137,26.007942354191375 89.8766990067925,25.741338989628 90.08370867825614,25.61901509283491 90.34051044862242,25.455916563979986 90.57535664782455,25.31163709588254 90.81804412250588,25.189313199089447 91.05563476806263,25.08580836352121 91.31635717619187,24.9383923851573 91.4872969806202,24.784703386914803 91.62059866297126,24.57769371545116 91.64177010668564,24.411458676189564 91.64529868063025,24.22640457589007 91.61746215279828,23.994302823322986 91.53356050571772,23.799839192411063 91.21520472311316,23.479915154906973 90.87567749688772,23.26976897317687 90.61260270617547,23.119216484873668 90.34599934142514,22.97180050669671 89.9143371288683,22.758517815027314 89.42935424341748,22.466822368893123 89.2368509315499,22.27863175860759 89.02709681368562,22.03084745480169 88.98200947999572,21.927342619373665 88.91300625619009,21.820701273398754 88.79617125224645,21.41609146103716 88.71070135003266,21.017754668928053 88.67776799321634,20.845246609460705 88.67306322791084,20.653919489095667 88.6761997380831,20.512776531124466 88.68600133237368,20.343404981923573 88.7114854775759,20.214808064784517 88.74873153583334,19.8070617422032 88.81028554797814,19.43068052153867 88.8004839536883,19.07939138211779 88.75500455617932,18.514819551027518 88.73383311255841,18.22626061515978 88.8044045914038,17.928292148819835 88.87693638915404,17.67423482476144 88.9737761407449,17.282171053138516 89.13413022333869,17.003021647556043 89.22391282708706,16.84933264903312 89.43092249845724,16.589002304955923 89.5732416476031,16.429040285900083 89.75476717381777,16.200075043272296 89.95550382493545,15.924062148236706 90.15624047595965,15.70450643608113 90.51380263567975,15.32498870515014 90.76707583214817,15.045839299567666 90.8823425810053,14.788645465429765 90.89880925941347,14.506359550048211 90.8082425282153,14.1895720223432 90.65102495574777,13.926105167859332 90.46871530198986,13.643819252477776 90.33698187467782,13.352123806343583 90.35266442554273,13.041609299124751 90.46518672804525,12.80009801580503 90.67494084586424,12.571132773177242 90.9250775321122,12.45194538665061 91.11326814249121,12.43939934609889 91.40025882336592,12.445672366304644 91.6837209302493,12.455081896730118 91.89582743065056,12.467627937609002 92.10832599491692,12.520948610362769 92.61055968631989,12.793824995459063 93.20649661923274,13.03219976865254 93.52485240174381,13.11374903310337 93.81105895507528,13.138841114674188 94.07883851109375,13.145114135020155 94.38229587032988,13.116885543369827 94.67085480624436,13.038472789045244 94.89393909225033,12.928694932803873 95.07389636342599,12.781278954907343 95.20876630086427,12.502129549465081 95.25071712442792,12.285710347389015 95.26130284630848,11.893646575766091 95.23817108373599,11.642725762114368 95.23817108373599,11.363576356718847 95.2581663361355,10.996604666339577 95.23189806343676,10.632769486226765 95.24169965772806,9.886280065243668 95.2793377797564,9.553809986720477 95.31227113657273,9.296616152769525 95.3871553169527,8.973555604858761 95.44204424507339,8.703815730028927 95.57887450132306,8.314888468345297 95.68982854869235,8.063967654553363 95.90271917673033,7.665630862584472 95.97603510193034,7.480576762565401 96.16422571230935,7.166925745267062 96.36143378943568,6.865820768707393 96.55040852735792,6.60862693442928 96.94600087292545,6.273020345966794 97.18633596497705,6.078556715054873 97.4921457067962,5.830772411529397 97.75835700777489,5.6268992501452635 98.01476671436954,5.463800721150127 98.45466226613047,5.256791049686485 98.72714658740767,5.197197356586751 98.94983880973696,5.200333866666259 99.12430718806242,5.2066068871524385 99.28191682425484,5.203470376932718 99.43011692997432,5.103102051443987 99.53832653094297,4.971368624178684 99.66261074654743,4.780041503393009 99.74141556464365,4.6263525051505106 99.81982831896823,4.472663506440636 99.88961567027037,4.249971284299027 99.91666807051236,4.021006041717977 100.00292210031614,2.4652969959182123 100.02448560770866,2.1798745701299858 100.05232213549388,1.9007251646877257 100.11152376500894,1.6498043507555786 100.24404131986424,1.248331048847392 100.4365446317311,1.0130927858736372 100.64590668577773,0.8625402975704342 100.8925147980818,0.718260829472985 101.24694044767567,0.5206606887619816 101.51197555729277,0.3826542408702862 101.77975511331123,0.260330344217409 102.02479497057556,0.1317334270783521 102.21141732586734,0 102.43371748437826,0.15055248830320306 103.0175004403248,1.0068197653407198 103.14570529364623,1.1636452739898897 104.0756805598876,2.4872525670823586Z"/></svg>