<svg xmlns="http://www.w3.org/2000/svg" width="256" height="256"><path d="M96.22738219124626,4.6377087355616755 96.52421584658912,4.64785689494811 96.95804965066225,4.632634656359921 97.82000891928124,4.729042168073735 98.04834250037237,4.769634805014595 98.35976413458276,4.8153015211572106 98.66864872907887,4.845745998409199 98.90395916951661,4.866042316728409 99.27500123878968,4.8761904761904535 99.5090431594837,4.866042316728409 99.8046082950072,4.835597839249593 100.07860859224094,4.779782963947373 100.36022000899561,4.734116247804757 100.75790099598704,4.59204201941906 101.03507259303258,4.485486348243202 101.25008671522791,4.373856597411932 101.6598186413726,4.15059709612744 101.88878648233558,3.998374708884576 102.11077746395195,3.8816708785491123 102.22938407412984,3.8360041621796683 102.35940736336228,3.790337446037053 102.22811555423607,4.8153015211572106 101.93381893860634,5.5003022642037545 101.7727169119476,6.144710371141144 101.78349933105467,6.733303602473874 101.7467122541011,7.144304048211069 101.4048461424119,7.352341311058591 100.82069273093714,7.60604529004873 100.57840543085152,7.687230563401184 99.8483722313074,7.849601109879262 99.30164015658364,8.017045735785924 99.04476487800736,8.260601555616457 98.99973242158538,8.478786977623585 99.0251028194844,8.707120558790319 99.08726029433699,8.940528219234418 99.36950597096352,9.33123234687923 99.80587681497659,9.77267727039768 100.31518755264925,10.01623309045504 100.89616966453667,10.432307615923259 101.18792924037533,10.853456220820059 101.24881819548418,11.27967890590154 101.1834894208186,11.609494078588718 101.07185966998733,12.157494672980587 101.1809523809531,12.543124721196817 101.31160993020863,12.720717506263084 101.97377731529728,13.238273623402966 102.48752787275231,13.862385411718705 102.80909766612231,14.085644913230027 103.12178782022765,14.364719290270399 103.31460284433577,14.60827511032776 103.49156136960578,14.867053168519652 103.60889945988872,15.262831375895487 103.6659828551615,15.805757891085602 103.63934393736635,16.06453594950432 103.58860314164511,16.303017689906273 103.30826024486102,16.759684851786083 103.1205193003327,17.1605371385905 102.89852831871633,17.69331549439418 102.83827362378179,17.95209355334217 102.90487091819108,18.464575590524202 103.03806550716091,18.951687230185264 103.18838511478818,19.281502403250492 103.26005648877728,19.43879887007316 102.99113027112334,19.722947326315285 102.91819037716368,19.753391804020932 102.79704672719589,19.829502997717974 102.75581983053556,19.86502155492781 102.63213914085229,20.017243942246285 102.54968534760607,20.093355135640888 102.48752787275231,20.128873692850725 102.3822407214714,20.24557752341302 102.35940736336228,20.291244239555635 102.33403696546209,20.382577671840863 102.22938407412984,20.661652048881233 102.16278677971935,20.971170903173594 101.94460135778903,21.33650463276817 101.09723006788634,22.17372776366246 100.1261780883016,23.320469748546664 100.15281700617118,23.706099796762892 100.09192805113793,23.878618502400574 99.9561964223782,24.172915117802308 99.78558049650734,24.446915415338484 99.39741340872803,24.9898419305286 98.9635796046549,25.568287002248066 98.76188494128095,25.85243545901946 98.58746345572641,26.161954313311817 98.40669937069593,26.466399088099983 98.08956939695827,26.65921411235932 97.83840245783482,26.917992170551212 97.52824934344258,27.126029433398735 97.1958971309655,27.27317774143984 97.13056835645115,27.298548139036416 96.94853575145012,27.339140775977278 96.91111441454908,27.359437094069662 96.6840493533529,27.425400128531486 96.56163718349016,27.465992765472347 96.43097963431023,27.623289232219403 96.04534958624404,28.31843813472799 95.94450225459664,29.449957881250835 94.81615380811361,30.200921659061645 94.99438085335419,32.05803478504263 95.10220504434939,32.89018383597906 95.2696496705585,33.61070313653788 95.41616371834968,34.46822258544894 95.59692780345577,34.83863039477454 99.1976215252733,36.959595658980874 104.1727565531943,42.08441603465727 104.4968633863542,42.46497200314248 104.97319260698261,42.52586095817573 105.02266488296247,42.53600911733533 105.11590109516575,42.551231356225955 105.16600763094068,42.566453594587315 105.21167434723452,42.581675833477945 105.24972994408304,42.601972151797156 105.27954016153878,42.62734254962056 105.31886427828225,42.718675982132616 105.32076705812467,42.764342698275236 105.31886427828225,42.80493533521609 105.3150587185974,42.85060205135871 105.28588276108914,42.90134284692991 105.17298449036292,43.00789851810577 105.13810019332739,43.02819483642498 104.97192408701324,43.10938010977743 104.85078043704426,43.185491303701305 104.64845151380081,43.30726921323852 104.56346068083911,43.35801000933898 104.52667360388554,43.38845448659097 104.4759328080875,43.434121202733586 104.44104851105197,43.464565680439236 104.41567811307736,43.49501015799366 104.37191417677717,43.5914176699343 104.3706456568834,43.63201030664833 104.3865021555691,43.69797334088333 104.4067984738127,43.72841781858898 104.43343739160666,43.763936375798814 104.46515038898043,43.79438085312641 104.50130320598771,43.8248253303784 104.63259501511392,43.9009365245291 104.68079877112206,43.921232842621485 104.72709974728775,43.93645508120967 105.15585947178108,43.98719587708331 105.32584113770447,44.00241811597394 105.43366532885089,44.022714434066316 105.72225360487775,44.068381150208936 105.81929537691472,44.09882562791458 105.97342054415242,44.164788662678845 106.0279668995585,44.195233139704 106.07743917546276,44.22567761740965 106.16940686792229,44.296714731375666 106.46814330310757,44.52504831276923 106.77005103810583,44.75338189378475 106.92861602497467,44.880233883279814 107.05102819491303,44.98678955438006 107.37450076812664,45.230345373983766 107.72778355886922,45.453604875721915 107.83053367028461,45.50941975102414 107.94343194093523,45.56523462632636 108.34364996779217,45.747901491350476 108.40644170259223,45.773271889173884 108.52187701303274,45.8290867644761 108.6284326842086,45.884901640005154 108.85613200535225,46.01175362950022 109.03435905074404,46.13353153933988 109.12632674297674,46.204568653532725 109.1631138199315,46.240087210742566 109.23097963431017,46.31619840413717 109.43077151791613,46.54960606503492 109.47707249400622,46.610495020068164 109.53288736930844,46.6713839750258 109.59187354442365,46.73734700956324 109.62485506176797,46.772865566470635 109.85762846249143,46.95553243157036 110.21661959276247,47.11790297804844 110.40055497745472,47.16864377361964 110.5756107229579,47.214310489762255 110.76842574699042,47.25490312670312 111.18006045297753,47.381755116198185 111.47499132855356,47.46294038955064 111.75723700510447,47.53905158294524 111.80607502106008,47.55427382183587 111.96464000792892,47.61516277656668 112.05660770038845,47.665903572440314 112.13589019382286,47.726792527473556 112.42067291023929,47.965274267573065 112.56147861850322,48.12257073454695 112.59382587582445,48.163163371260985 112.87543729257912,48.43716366857033 112.9166641890894,48.47268222555334 113.02448838023582,48.569089737796425 113.16275704870984,48.685793568131885 113.24965066151397,48.7568306820223 113.40377582882608,48.90905306934077 113.58707695357084,49.10186809382693 113.66953074681943,49.21349784443137 115.93510727912458,51.04016649293354 117.44084039442987,53.26261334911398 118.33958674000361,54.36876269758659 120.26583420056184,56.65717258792641 121.22737228093446,58.35698924700912 121.22102968145971,59.31091620793643 121.19819632327498,59.62550914195981 121.18360834448306,59.838620484462744 121.18931668408594,60.1532134182593 121.14935830731939,60.477954511442285 121.09861751152135,60.80776968405385 121.09734899162758,61.13758485696786 121.12906198900018,61.4420296315292 121.17980278487381,61.7616966452836 121.19058520398089,61.86317823672844 121.27430751704765,62.086437738466586 121.28635845597407,62.12195629537399 121.32314553307766,62.172697091020794 121.3497844507216,62.20314156849961 121.35676131014382,62.24373420521364 121.36310390961857,62.28940092135626 121.42462712452368,62.47206778615355 121.47473366044984,62.54817898030425 121.50708091777109,62.58369753698482 121.56923839254807,62.63951241258948 121.6174421486318,62.675030969799316 121.84640998974601,62.923660868831604 121.99102125761917,63.05051285832668 122.03351667410001,63.08603141553651 122.0804519102132,63.111401813586745 122.21174371934059,63.18243892777959 122.24916505624164,63.20273524587198 122.31322531093664,63.253476041670005 122.34493830831042,63.27884643949341 122.40773004311048,63.33466131479563 122.45910509893041,63.38540211066927 122.57898022892881,63.68984688575987 122.55234131113367,63.82177295445669 122.49272087607217,63.99936574005223 122.48574401672555,64.05518061535444 122.85678608592302,64.23277340042071 123.01154551310819,64.30888459434459 123.05150388994916,64.31903275327737 123.5316386701124,64.57781081222535 123.61282394331363,64.61840344841012 123.7320648135146,64.66914424451059 124.08851890392013,64.85181110930787 124.3136811853495,64.95329270075271 124.64222783814172,65.14103364550785 124.6739408355155,65.16132996360024 124.70755661265608,65.17655220249085 124.75639462861167,65.19684852081006 124.80332986472484,65.21714483890246 124.8559734403653,65.23744115722167 124.94667261285429,65.25266339588546 125.10523759972311,65.2881819530953 125.52131212526695,65.26788563500293 125.58093256032963,65.26281155504506 125.66084931378712,65.23744115722167 125.9031366136471,65.17655220249085 126.00652098508559,65.15118180466746 126.15874337255528,65.1258114063904 126.2145582478575,65.1258114063904 126.38453991378088,65.15625588409604 126.6052623755023,65.2222189188603 126.72894306533561,65.27295971420467 126.83042465693167,65.32877458996056 126.86340617412478,65.34907090835537 126.90590159060562,65.36936722644775 127.0175313413601,65.43533026090958 127.72917100257983,65.83110846828542 127.76024973993052,65.85647886633565 128.1135325306743,66.08481244727555 128.3545513106393,66.21166443677062 128.4503245627081,66.26747931184602 128.81312125266516,66.47551657469354 129.00466775680152,66.60236856418861 129.2989643725813,66.85607254317874 129.32940884998453,66.89666517981716 129.34970516822813,66.94233189618662 129.4251821020533,67.25692482998316 129.42391358215835,67.30766562608363 129.41566820276438,67.36348050115902 129.3680987067049,67.50555472977155 129.31608939101193,67.69329567399743 129.31355235129763,68.00281452859221 129.3763440860977,68.19055547259126 129.40552004360595,68.23114810953213 129.44420990040194,68.26666666674195 129.4867053168828,68.29711114376713 129.53808037262831,68.32248154204419 129.59389524808174,68.34277786013656 129.65288142319696,68.35292601929616 129.70996481846973,68.3580000990272 130.1038402457763,68.27681482567473 130.53450275018767,68.2108517911373 130.70638719587788,68.19055547259126 130.8243595461083,68.19055547259126 130.88207720132857,68.2007036319777 131.06410980632958,68.2514444276245 131.12246172157293,68.27681482567473 131.46686487290083,68.46455577012745 131.82331896338314,68.66751895331954 132.1442544968045,68.85018581811684 132.50070858736126,69.04807492180475 132.85589415794743,69.24596402549267 133.27450572320555,69.36774193525672 133.40135771270064,69.40326049223974 133.59100143699575,69.4438531291806 134.0039046628022,69.48444576559218 134.43329864724302,69.5402606408944 134.84683613307254,69.60114959592765 135.26861899806804,69.6721867101205 135.69040186313916,69.73814974458233 135.86862890845532,69.76859422228797 136.0956939696515,69.80918685877518 136.49781477642648,69.8599276545732 136.93101432047655,69.94111292769882 137.05342649026485,69.95633516636262 137.14158862303836,69.92081660937961 137.18281551954863,69.91574253017785 137.33820920683132,69.91574253017785 137.4511074773307,69.92589068911063 137.6109409840945,69.95126108716087 137.66421881975805,69.95633516636262 137.72637629453502,69.95633516636262 138.15386749913338,69.93603884827024 138.34541400327095,69.90559437101825 138.7640255686803,69.82948317686756 139.1699519349889,69.76859422228797 139.57016996184703,69.71277934653209 139.98117040780986,69.61637183481828 140.10231405785325,69.58592735703702 140.1701798722343,69.57070511867566 140.58498587780758,69.4895198453232 140.983935384844,69.42863089028997 141.06131509836038,69.43370496971855 141.1742133690866,69.4438531291806 141.23954214360094,69.4540012883402 141.30233387855222,69.46922352692839 141.41650066894655,69.50474208413823 141.47358406421935,69.51489024329783 141.53510727912445,69.51996432257519 141.9537188444582,69.4945939247518 142.3704276299495,69.42863089028997 142.79982161439028,69.36266785582814 143.2082850205644,69.29163074163529 143.49179921708588,69.23581586633307 143.55903077159388,69.22566770709786 143.75248005549827,69.1850750702326 143.93578118031863,69.12418611565302 144.30301768998248,68.92122293230969 144.47046231604034,68.84003765895723 144.87765720231954,68.71825974911758 145.30705118683593,68.61677815767274 145.36286606213815,68.59140775962251 145.68633863535058,68.39351865623703 146.01742232793274,68.19562955254911 146.09480204160033,68.15503691560825 146.13476041821565,68.12966651808729 146.04406124572668,68.01296268775182 146.41256627528546,67.85059214104692 148.6933650463312,66.98292453267382 148.93311530655248,66.89159110038858 154.5355334226022,65.1207373268862 154.62179277553446,65.0243298151724 155.99242852187749,64.35962538991579 158.98486695406615,63.61880977156702 159.62483524106878,63.532550418483545 160.36945641940483,63.57314305542441 160.94536445171244,63.60866161240742 162.43270402861774,63.61880977156702 163.71517764233727,63.68477280580202 165.371230365271,63.38540211066927 165.71943907643498,63.28392051922443 166.38858332094586,63.106327733628895 167.65900599573897,63.18751300698135 168.04590456377454,63.811624795297085 168.78418314255904,64.51692185719212 169.36009117486785,65.02940389460097 169.53451266042356,65.23744115722167 169.71781378524275,65.56218225040465 174.745592388881,68.47977800879124 176.2126356474671,69.4540012883402 177.57248897477862,70.0933353150173 178.4382538032337,70.52970615925838 179.6725236608683,70.94070660507118 179.72580149645742,70.94578068449977 179.78161637183524,70.94578068449977 179.82982012784336,70.94070660507118 179.87358406421916,70.9305584461384 179.9122739210908,70.91533620702096 179.95857489725648,70.90011396858398 180.0093156929789,70.89503988892858 180.0556166692958,70.88996580919755 180.10762598491317,70.89503988892858 180.46027451563387,71.08278083315444 180.61059412333674,71.16396610673372 180.7634507706027,71.24007730043077 180.80340914721802,71.25529953901896 180.98036767263926,71.30096625546402 181.4084931371851,71.33648481214459 181.8074426440715,71.33648481214459 182.2038551112436,71.29589217550617 184.77260789851874,71.57496655254653 184.90643674751283,71.66629998505859 185.01743223831983,71.75763341734383 185.16902036569084,71.87433724790611 185.34153907140413,71.99611515744333 185.48932163916587,72.1128189877788 185.5356226154072,72.14833754498864 185.88066002675816,72.31070809146671 186.24599375650396,72.45278232007924 186.4432486001688,72.54918983201988 186.5028690353071,72.58470838877606 186.5878598682688,72.69126405995192 191.93149992574857,76.44608294915719 197.502839304372,78.58227045202732 198.13202517234316,78.69390020285859 198.8481046528916,79.14549328576348 201.3382092066798,81.91086665660475 201.7701402309105,82.9307566520695 202.33526584411103,83.84916505624064 204.1473465140481,85.35109261163542 204.67631931024255,85.74687081901125 205.38542193151997,86.0360933549844 206.49347405983502,86.19846390168931 209.24806501164483,92.1402110893359 212.59505475447222,100.60884990802671 213.32381943412258,102.84651900279535 213.8305931321542,103.27274168742316 214.36527426787592,103.5467419847325 216.07460482639758,103.86133491875589 224.68214657350987,105.14507705259722 228.17882166401708,105.53578118024203 233.2560725434816,105.80470739812279 247.986125563649,106.59118973261417 255.92579158614538,106.93115306468778 256,106.92100490552818 252.18936623556812,113.96890144194982 250.5212625737836,117.23660869104036 247.76096328237088,122.2447252363813 240.02108914325362,124.99487636855879 233.27573460185334,131.02795698924672 230.35116198412013,130.77425301025656 219.75394678170207,132.94595907010972 219.0689460383531,136.76674099407924 218.21903770873612,138.7912987460425 218.04334770328543,139.21244735146857 215.98834547346533,142.63237698787756 212.16248947029405,150.48705217763907 213.2362915614454,154.93194588939508 213.4741390417475,155.6930578263655 215.30017343045458,166.0035875326759 214.88409890491076,169.37277637351374 207.11758584807515,181.2004558743364 199.8001288340509,192.34820871101186 195.35079530258815,197.24469550567275 187.91409741843972,202.26803428967747 180.35625588432353,209.18907883660404 170.50683315990327,218.21586640884632 167.19219067439712,218.55582974084433 165.95601803676766,218.5304593427941 165.27799415291653,218.54060750202933 164.8390862692636,218.55075566118893 163.25597344036512,218.34271839834142 162.59888013478067,218.20571824991356 162.0014072642589,218.21079232911532 161.37285565631083,218.21586640884632 159.27472375006238,218.2970516821988 158.2998662108684,218.93638570932956 155.60235865418014,220.26579455885982 154.4308805312688,220.60575789116027 153.82769932121974,220.75290619874772 152.39554035982042,220.76812843733592 151.44732173826915,220.5600911747152 150.15660274515682,220.39772062831275 149.13290718993161,220.63620236841226 148.97180516327288,220.6970913234455 147.73753530548586,221.15883256528315 137.49550567372958,226.32931965679973 127.06446657747327,230.5052871509774 125.99510430610664,230.93150983560523 123.23480501469393,231.66725137475223 120.17830632773463,232.4740300280921 120.01847282097084,232.4791041075963 119.87639859273519,232.34717803859704 119.70451414704615,232.2659927654714 118.92247163180906,232.15943709437116 118.56855458111663,232.15943709437116 118.22288290966814,232.27614092470662 117.56452108426434,232.5704375398815 117.21884941281468,232.79877112104825 116.86366384222848,233.0068083838958 116.46154303552912,233.25036420372632 116.16914919981859,233.4431792276832 115.85138496613344,233.61569793354772 115.60529210643739,233.7526980822024 115.02621277446802,233.92014270818467 114.71415688023454,233.9556612653945 114.28983697537353,233.98103166344472 113.88644764893043,234.0622169367972 113.50335464050292,234.18906892629226 113.09108567464395,234.42247658688757 112.86909469302876,234.63051384950828 112.6496407513535,234.84362519185999 112.35978395520605,235.2647737969836 112.0547049204716,235.5590704126878 111.76231108468428,235.88381150587077 111.47625984852412,236.2034785190959 111.25680590654643,236.4622565780439 110.81409246328425,237.0762202071244 110.60922650024852,237.40096129985375 110.54643476537522,237.50751697125642 110.29019374659282,237.9489618947749 110.0662999851352,238.67962935396403 110.06883702500072,239.10585203904552 110.15319359801494,239.43059313177486 110.27116594832096,239.74011198652087 110.42275407569196,240.12574203451027 110.61556909964885,240.4301868090716 110.88830087713886,240.79552053896862 111.07477330162101,241.25218770107526 111.17562063326959,241.55663247593904 111.25680590654643,241.92704028549147 111.33925969971823,242.27715177642224 111.16927803387044,242.5714483918996 110.89654625638043,242.93170804229243 110.60098112085693,243.33256032887002 110.19568901449578,244.0023388335552 109.9534017145602,244.33215400593994 109.47326693424576,244.9867102717345 109.24810465289201,245.1845993754224 108.78446063136315,245.40785887716055 108.3582379465841,245.57022942363864 107.99670977659876,245.66156285615068 107.54575095386936,245.80363708423394 107.21974134094147,245.95585947177926 106.86075021067042,246.14867449581175 106.53918041730041,246.31611912171843 106.28103661860116,246.52923046429697 105.75396660225033,246.9656013080844 105.48440612457331,247.1939348890243 105.23514196521668,247.4070462313004 104.96685000743344,247.64552797170236 104.59834497802468,247.91952826878486 104.296437242952,248.11234329319544 104.10045091918211,248.27471383944666 103.91968683415163,248.44723254508435 103.75351072798871,248.59438085312547 103.49536692929063,248.73645508128433 103.18711659489205,248.91912194608162 102.47928249351074,249.4366780632215 102.12917100242873,249.67515980362344 101.84882810564463,249.8070858725471 101.27672563302187,249.99990089680645 100.72745651850822,250.16227144351134 100.0798771122115,250.35508646746825 99.4056587879696,250.5479014911983 99.12721867102675,250.67982756065123 99.09423715375921,250.71534611763425 99.05174173727836,250.74579059488622 99.00353798127024,250.76608691320544 98.94772310596801,250.79145731102884 98.5208661613171,250.8827907435409 98.30775481888978,250.94367969857416 98.24686586393334,250.9690500966244 98.14284723254619,251.029939051582 98.10035181606534,251.0654576083382 98.07371289827138,251.1009761653212 98.03375452165604,251.18216143867366 98.0115554234188,251.22275407561452 97.80542094048931,251.51705069101624 97.77307368316806,251.56271740715886 97.31323522124963,251.35468014431135 97.27581388434858,251.33945790564755 96.8743273375955,251.18216143867366 96.82104950200757,251.16186512058127 96.38721569793444,251.08575392665742 96.31681284384028,251.0654576083382 96.257192408702,251.04008721074163 96.102432981518,250.95382785773376 96.0510579257725,250.92338338048177 95.86965958079456,250.81175362934806 95.82970120417922,250.79145731102884 95.46309895446286,250.60879044645839 95.41235815874045,250.58342004818132 95.1301124820383,250.36523462640102 95.05717258807864,250.2688271146116 95.02672811067544,250.21808631881356 94.85230662511971,249.9288637826136 94.61255636489842,249.64978940557322 94.45843119766191,249.46712254100277 94.40959318170631,249.4265299040619 94.29479213121327,249.34534463093627 93.93072692136242,249.09671473145033 93.83368514939869,249.03582577641708 93.48357365846792,248.8480848321156 93.19879094205149,248.63497348961266 93.13536494730396,248.60960309178927 93.07384173232323,248.58930677347007 93.00978147762822,248.57408453457944 92.94508696306134,248.56393637541981 92.68440612464899,248.52334373923506 92.56199395471063,248.49797334118483 92.16114166798182,248.39141766978213 91.75458104165013,248.25949160108533 91.33787225615882,248.15293592968263 91.27317774151634,248.13263961159024 91.20214062732349,248.1174173726996 90.77528368267258,248.07175065655701 90.3788712155005,248.03115801961616 89.86448639809798,247.87386155264227 89.62219909816241,247.7673058814664 89.30189782476296,247.54912045945926 89.0716614637538,247.28526832130953 89.04502254595984,247.25482384428437 88.95559189336582,247.1634904117723 88.93022149546681,247.13304593399104 88.91055943717068,247.09752737723488 88.90231405777789,246.99604578533638 88.91309647688497,246.90471235282433 88.85981864129704,246.7930826024467 88.73867499132807,246.70174916993466 88.54903126703412,246.60534165769155 88.48116545265425,246.5343045434987 88.46911451365223,246.4378970317093 88.52873494871491,246.1385263363497 88.53824884792704,245.96093355128343 88.53254050839858,245.9203409145694 88.4779941529925,245.78841484564578 88.44881819533302,245.7478222087049 88.4132996382744,245.7021554927891 88.33591992475802,245.62604429894085 88.27059115009244,245.57530350329404 88.22048461424308,245.5397849460842 88.16022991930734,245.51948862753818 88.09680392455981,245.50426638887436 87.95409543637786,245.4890441502862 87.87861850255268,245.4890441502862 87.80250730900686,245.4991923094458 87.73083593479093,245.50934046837855 86.97099251779107,245.85945195983862 86.90312670341002,245.8696001187714 86.4965660770795,245.90004459602338 86.10395916959345,245.97615579017406 85.87625984837301,245.9863039493337 85.79824587490916,245.98122986937582 85.75828749814261,245.97615579017406 85.68915316386779,245.96093355128343 85.31240275514304,245.80871116373814 84.96292552408413,245.62097021920982 84.77391605981208,245.50934046837855 84.7244437838334,245.47382191139556 84.58871215507368,245.33682176274087 84.56397601704771,245.30130320575788 84.55065655822516,245.26578464854802 84.53289727962142,245.23026609156503 84.50625836182627,245.20489569396844 84.46629998521094,245.1795252959938 84.36925821317159,245.12878449989336 84.33247113621803,245.10341410206996 84.30583221842406,245.06282146565835 84.29251275960269,245.02730290867535 84.29124423970774,244.9867102717345 84.33500817608353,244.64674694019013 84.33120261632308,244.54019126878745 84.29885535900183,244.44378375699802 84.17010058973995,244.13933898220986 84.15678113076736,244.098746345269 84.14980427142073,244.02263515164756 84.15234131113503,243.97696843550494 84.17263762945424,243.93637579901775 84.21386452604014,243.8907090826483 84.2481145632038,243.86026460494267 84.29124423970774,243.83996828685028 84.34261929537763,243.82982012791751 84.40160547049402,243.8196719687579 84.46249442545047,243.8196719687579 84.65911500916783,243.82982012791751 84.71239284475575,243.82982012791751 84.95214310497705,243.83489420711925 85.00668946038432,243.83996828685028 85.10246271245309,243.85011644600988 85.20077300438739,243.85011644600988 85.27244437837649,243.84504236627888 85.43481492493018,243.80444972986726 85.47477330162113,243.74863485456504 85.42530102571804,243.70804221762418 85.35806947128566,243.64207918316237 85.2699073386622,243.54567167137293 85.23375452173171,243.5101531141631 85.17540260648838,243.45433823863405 85.08343491402883,243.37822704523944 84.88554581041535,243.09915266797225 84.80309201724474,242.9570784398134 84.47454536445251,242.49026311877395 84.25255438283614,242.29744809481707 84.09525791586225,242.15537386643138 84.0527624993814,242.12492938887695 83.92654476990941,241.99807739938188 83.06204846142373,241.3333729742009 83.01511322531056,241.29278033801612 82.97134928901154,241.24203954191566 82.93265943221554,241.1963728255462 82.73477032852763,240.92237252846368 82.71066845059917,240.8919280511361 82.5349784450729,240.7397056636664 82.38212179773134,240.64837223138116 82.31425598342709,240.62300183333093 82.24512164907667,240.60270551493613 82.17979287448671,240.5925573557765 81.88866755859551,240.57226103723048 81.45229671473248,240.57226103723048 81.05207868795115,240.54181655997849 80.89668500074409,240.51644616192826 80.82755066646926,240.49614984383587 80.69689311736495,240.45048312769325 80.6290273029851,240.41496457048342 80.56813834795186,240.3794460135004 80.38864278281633,240.20185322790488 80.3353649472284,240.16633467092186 80.27511025229386,240.13081611416567 80.20597591801904,240.11051979561964 80.13811010363918,240.09022347730044 79.71949853830544,240.05977900004845 79.64592438439831,240.04455676115782 79.58122986968021,240.02426044306543 79.51970665485072,239.9988900450152 79.46262325950232,239.96337148780538 79.40807690409505,239.93292701055339 79.36177592785256,239.89233437361253 79.23365541853934,239.77563054327706 79.18354888261318,239.74011198652087 79.12900252728151,239.70966750881522 78.85309945005413,239.60311183763937 78.70721966205919,239.53207472344653 78.37867300926696,239.3037411422798 78.10213567224332,239.08555572049949 78.06217729547676,239.0551112432475 77.94610772508878,238.98407412905465 77.89980674892307,238.94855557184482 77.87316783112911,238.91303701463497 77.8839502502362,238.87751845765197 77.91058916803016,238.85214806005538 77.94864476495428,238.83185174150935 77.99114018143513,238.81662950284556 78.04188097715755,238.81155542341696 78.09896437243033,238.81662950284556 78.1535107279144,238.82677766200516 78.23089044150521,238.83692582124036 78.28416827709313,238.83185174150935 78.33490907296559,238.82170358234973 78.40531192706092,238.80648134345913 78.44527030382748,238.7709627864761 78.45161290330223,238.7100738317453 78.46112680251437,238.59337000140982 78.47444626133574,238.51218472805738 78.44907586343672,238.41070313661254 78.41863138595791,238.38025865883128 78.38247856902743,238.35488826123472 78.34125167244035,238.3295178632601 78.29495069620022,238.30922154486527 78.24167286061228,238.29399930627707 78.18839502502436,238.27877706715964 78.07549675444936,238.24833259013448 78.02348743875638,238.22803627173965 77.98099202227553,238.20266587376503 77.94230216540393,238.167147316782 77.90614934847343,238.12655467984115 77.83194093454439,238.02507308816948 77.7970566375833,237.9794063720269 77.71206580454599,237.908369257834 77.6625935285673,237.87792478058205 77.3797135919933,237.77136910917935 77.12410683323634,237.72570239303673 76.86723155443322,237.67496159738994 76.78477776126142,237.64451711968428 76.75052772424897,237.6242208015919 76.70359248798458,237.5836281651047 76.62684703434006,237.4719984140466 76.52029136316303,237.2588870716949 76.49872652495004,237.2132203557791 76.46320796796702,237.1218869230402 76.44037460978231,237.0812942866286 76.41500421188329,237.05084980907418 76.373777315373,237.0153312521668 76.04396214261021,236.8529607056887 75.96277686940898,236.78192359149585 75.77567018482814,236.52314553254786 75.6995589911311,236.22884891714614 75.68243397262488,236.17303404184392 75.65198949507045,236.12229324574346 75.60632277885223,236.07155245032348 75.55177642336935,236.03095981345822 75.49215598838228,235.99544125624837 75.13950745751038,235.8432188689299 74.66190971713705,235.66055200413263 74.59023834299673,235.64025568604023 74.55154848627633,235.63010752688064 74.47163173289445,235.62503344692277 74.39615479906927,235.6351816060824 74.35873346216822,235.64532976546883 74.32321490518521,235.66055200413263 74.17099251779113,235.7671076755353 74.10629800314865,235.7975521527873 74.02891828948104,235.81784847133335 73.88367276150919,235.83814478972815 73.81200138744448,235.83814478972815 73.48345473472786,235.7772558344681 73.4434963579613,235.76203359557746 73.3585055249996,235.71129280023308 73.18979237897116,235.63010752688064 73.01537089341544,235.51847777597376 72.63735196479574,235.3764035478905 72.23713393786319,235.30536643369766 72.10393934896898,235.2698478764878 72.06144393248813,235.24955155839544 72.02465685553456,235.22925523977378 71.68279074376974,235.02121797715307 71.3421931520511,234.84362519185999 70.97749368225277,234.68125464515506 70.61977107180107,234.5138100191728 70.27790496011185,234.31084683582947 69.97346018539929,234.08251325488956 69.68867746898168,233.84403151479006 69.64491353260706,233.79836479864744 69.6132005352333,233.7526980822024 69.5878301373343,233.66643872919454 69.59036717704858,233.53958673969944 69.60241811605061,233.48377186462406 69.6569644716091,233.36706803406176 69.71404786688188,233.2960309198689 69.75781180333328,233.25543828345732 69.80728407908515,233.21991972647433 69.91193697041858,233.16917893037385 69.95633516674185,233.13366037339085 69.98677964422068,233.09306773697926 70.00263614290755,233.03725286167702 70.01595560188015,232.93069719027434 70.06796491757312,232.77847480272905 70.0996779149469,232.72773400708223 70.1383677718185,232.6871413704438 70.27790496011185,232.57551161983938 70.3178633368784,232.52984490369676 70.34450225474798,232.4841781872517 70.35655319359998,232.43343739145368 70.35782171349375,232.38777067531106 70.34957633425218,232.34717803859704 70.33371983556529,232.3065854019586 70.30327535801086,232.27106684474876 70.25507160200274,232.23554828776577 70.13583073187738,232.18480749189212 70.08001585657516,232.14928893521156 70.02673802098722,232.1086962982707 69.97726574500854,232.06302958190125 69.9373073683932,232.01228878648126 69.73688122491538,231.72306625028128 69.59036717704858,231.5251771468958 69.54660324067278,231.47951043052637 69.49459392497862,231.43384371438376 69.18190377087446,231.2207323718052 69.01065358513172,231.12939893929314 68.87175065655902,231.10402854146975 68.8159357812568,231.09388038231015 68.73919032753784,231.09388038231015 68.34785193994438,231.13954709845274 68.25207868787678,231.15984341677196 67.9026014569679,231.3171398840483 67.75101332937008,231.40847331633353 67.68695307467625,231.43384371438376 67.62035578019015,231.45414003270295 67.23472573220076,231.48965858968597 67.19349883561486,231.48965858968597 67.1535404588483,231.48458450995494 66.74000297309438,231.3932510774429 66.55099350874673,231.3171398840483 66.47361379523034,231.27654724710743 66.33407660671016,231.18013973539362 65.95922897775223,231.0228432681173 65.15942718413703,230.87062088102564 64.92538526344302,230.80465784611016 64.85878796888251,230.77928744828677 64.80297309350468,230.74376889153058 64.75794063723511,230.69810217516113 64.72305634012278,230.6473613793631 64.69958872221859,230.60169466322048 64.69134334274901,230.55095386712003 64.69134334274901,230.37843516148234 64.67929240374698,230.33784252507076 64.64757940637321,230.29724988812987 64.60381547007303,230.26173133114688 64.49979683861146,230.20084237634046 64.40782914630314,230.12980526245005 64.37231058916892,230.0892126255092 64.35074575110598,230.038471829938 64.305713294684,229.68836033870477 64.20994004261523,229.3940637230006 63.98224072147158,229.15050790347252 63.76405529969128,228.98306327703656 63.630226450698366,228.84098904910454 63.57377731544867,228.80039641223928 63.50464298109825,228.76487785502945 63.079054556266684,228.67354442274421 62.67629948961984,228.6228036268706 62.27164164320618,228.52132203519892 62.13591001444646,228.4858034782159 61.77057628470066,228.34880332956124 61.433784252515636,228.18135870365458 61.26253406677291,228.06972895297451 61.21559883065973,228.0189881571765 61.06781626289798,227.7399137801361 60.77795946682613,227.49635796007877 60.43482483524197,227.3086170160041 60.070759625391126,227.1513205488034 59.67117585855726,227.07013527545092 59.255101333013435,227.05998711651816 58.86376294542115,226.9788018431657 58.46608195835411,226.91791288813246 58.05635003220943,226.89761656981324 57.65613200535248,226.80120905802383 57.30919181415908,226.65913482971374 57.19312224377109,226.5982458746805 57.127159209158044,226.57287547663026 57.01489519845491,226.54243099937827 56.66161240771114,226.4257271690428 56.29818145780777,226.28872702038814 55.97217184488105,226.11113423479262 55.62650017343138,225.96398592720516 55.413388831079665,225.87265249491992 55.11972647539858,225.6696893117278 55.0702541994955,225.64431891375318 55.02141618361551,225.62402259535835 54.97067538774187,225.60372627681232 54.769614984392184,225.64939299318178 54.71126306922446,225.6696893117278 54.62627223626276,225.7153560276436 54.55967494177667,225.76102274401305 54.466438729573404,225.84220801713866 54.22478568951087,226.12635647391005 54.16453099457632,226.20246766730466 54.115692978545106,226.2582825428337 54.08778554085619,226.2836529406571 54.00342896784197,226.34961597511895 53.91209553540552,226.40035677099257 53.87467419858009,226.42065308953863 53.78714632575288,226.4561716462948 53.74972498885183,226.47646796461402 53.652683216963716,226.50691244239528 53.522025667708185,226.53228284021867 53.4649422724354,226.53228284021867 53.21758089299445,226.52720876048764 53.01969178930771,226.5018383624374 52.873177741440905,226.4815420441182 52.811654526610226,226.47646796461402 52.76915911013056,226.47139388518542 52.64420990040231,226.4561716462948 52.408899459965745,226.43080124869823 52.29282988957657,226.4155790098832 52.24652891341206,226.4054308507236 52.179931618850354,226.38513453232878 50.78899955403692,226.08068975754063 50.45728160150732,226.00457856384358 50.232753580176656,225.95383776804556 50.07735989296958,225.92339329071794 49.97841534123904,225.91324513155834 49.64860016847625,225.84728209664286 49.576928794487145,225.83205985797906 49.442465685546765,225.79654130122287 49.37079431155884,225.77624498267684 49.317516475968546,225.76609682351724 49.26170160051629,225.74580050542485 49.190030226527185,225.72550418710566 49.11518755264949,225.7001337890554 49.027659679973496,225.6595411525682 48.93061790793416,225.59865219761056 48.897002130717965,225.56820771982933 48.8240622367583,225.4718002081155 48.80947425804198,225.4362816511325 48.792349239383356,225.40076309392265 48.7644418016968,225.34494821862043 48.70165006689556,225.22824438828496 48.669937069521794,225.16228135374755 48.642029631908485,225.1216887168823 48.59128883603485,225.05065160268944 48.56591843813584,224.99991080704262 48.53927952034187,224.95424409067317 48.492978544251784,224.87813289705176 48.462534066849756,224.8273921011781 48.4435062682731,224.79187354449755 48.42130717011146,224.7563549872877 48.38769139297087,224.7106882711451 48.318557058696065,224.63457707722122 48.28684406132229,224.60920667939783 48.255131063948525,224.58383628165 48.220246766761775,224.55339180386878 48.18853376938801,224.5280214062722 48.15364947227686,224.50772508772616 48.106079976216215,224.47728061047417 48.05660770031314,224.4519102121971 47.947514989347376,224.41639165521408 47.89677419362378,224.4062434960545 47.75469996531487,224.3859471779621 47.54349140280676,224.3757990188025 47.33164858034881,224.3656508595673 47.27075962539118,224.3656508595673 47.18513453248201,224.3656508595673 47.12678261731428,224.36057677991187 47.06462514246169,224.35550270040767 46.95109261186361,224.33520638186164 46.80521282394428,224.30476190460965 46.75700906793615,224.28953966571902 46.594638521382464,224.24894702930743 46.528041227048774,224.2337247904168 46.39928645763567,224.2286507109126 46.351716961575015,224.2286507109126 46.268628908455746,224.2337247904168 46.21979089250014,224.24894702930743 46.16017045736067,224.28446558651726 46.12528616032632,224.31491006376925 46.07898518408383,224.35550270040767 46.019999009045414,224.40116941677712 45.96164709387768,224.46713245131457 45.893781279573425,224.51279916745716 45.84304048362418,224.54324364470915 45.78722560832196,224.57368812218797 45.681304197093574,224.614280758902 45.6292948814006,224.62442891806162 45.51639661067438,224.63965115695225 45.45106783608442,224.63457707722122 45.397790000496485,224.62950299779263 45.31533620732469,224.614280758902 45.262058371736764,224.59905852001137 45.17706753877507,224.56353996302838 45.123789703187136,224.53816956550742 45.0533868491686,224.49250284906236 44.974738615530434,224.4366879735333 44.901798721569584,224.39609533712172 44.77621525197065,224.32505822270204 44.39375650364302,224.12716911924093 44.3017888113347,224.07135424371188 44.22187205795281,224.02061344829193 43.991635696943646,223.89883553807422 43.596491749665326,223.7872057876966 43.55399633318566,223.78213170773876 43.42524156392259,223.78213170773876 42.9742827412688,223.81257618521755 42.57279619451573,223.82779842388138 42.27849957896396,223.8430206629988 42.11105495267925,223.858242901587 41.88208711179187,223.88361329963723 41.44698478774817,223.94957633417468 41.08926217744769,224.04090976668672 41.030910262204344,224.07135424371188 40.9884148457235,224.0916505620311 40.95099350882245,224.11194688057714 40.29136316337248,224.37072493907147 40.16387691400555,224.40116941677712 40.059858282543985,224.42146573517195 39.98945542844983,224.43161389410471 39.9412516724417,224.43161389410471 39.884168277244534,224.43161389410471 39.80298300389208,224.42146573517195 39.389445518062544,224.3808730982311 39.32157970368268,224.37072493907147 38.91755611714088,224.32505822270204 38.49323621235549,224.27431742728206 38.10062930479264,224.2134284723244 37.97124027550767,224.18805807427418 37.93318467873476,224.17790991511458 37.87039294401031,224.16776175618182 37.723878895992286,224.13224319897196 37.66298994111026,224.12209503981236 37.613517665131575,224.10687280092174 37.51901293295775,224.08657648282934 37.12133194589071,224.02061344829193 37.01097071503,224.0155393686365 36.962132699074395,224.0155393686365 36.91012338338142,224.02061344829193 36.82893811018018,224.0358356867289 36.73062781824589,224.0662801642077 36.69320648134485,224.0815024028715 36.63231752646283,224.12716911924093 36.53210445476172,224.2286507109126 36.51878499578913,224.27431742728206 36.51371091620933,224.31491006376925 36.49912293741621,224.35550270040767 36.47628957930828,224.42653981437368 36.44077102224966,224.49250284906236 36.412863584560746,224.5280214062722 36.36339130873328,224.57368812218797 36.31962737228187,224.60920667939783 36.23971061889998,224.65487339576725 36.105247510035205,224.72591050950646 36.04309003518262,224.7462068280525 35.985372379962364,224.7512809075567 35.92448342508034,224.7563549872877 35.819196273799434,224.76650314644732 35.67965908527925,224.7614290667163 35.63589514890345,224.7512809075567 35.594668252317554,224.7411327483971 35.546464496309426,224.7208364303047 35.50396907982858,224.69546603225447 35.457668103662876,224.67009563420422 35.37901987025155,224.614280758902 35.33779297366565,224.58383628165 35.308617016006174,224.55339180386878 35.260413259998046,224.5229473266168 35.182399286458576,224.4722065305163 35.06506119617564,224.40116941677712 35.00163520142811,224.3757990188025 34.784718299391535,224.29461374567688 34.63820425152591,224.26416926812246 34.56526435764068,224.25909518846703 34.509449482187236,224.25909518846703 34.40289381108699,224.26416926812246 34.215152866558675,224.27939150655942 34.1606065110758,224.28953966571902 33.98618502552008,224.30983598403824 33.801615380804755,224.31491006376925 33.74833754521801,224.30476190460965 33.61514295632261,224.2438729495764 33.57645309944982,224.22357663148404 33.540934542467994,224.19820623320697 33.40393439381332,224.12209503981236 33.343679698727556,224.10179872141754 33.05255438283637,224.00031712974587 32.92633665328878,223.95465041337644 32.68024379366716,223.8734651402508 32.64409097666225,223.858242901587 32.56290570346101,223.8227243446796 32.425905554806334,223.75676131014217 32.283831326497435,223.68065011629392 32.24260442991035,223.65020563904193 32.210891432536584,223.61976116126067 32.18298399492328,223.58931668400868 32.134780238915155,223.54872404706782 32.05105792592402,223.50305733115204 31.856974381845344,223.38635350081657 31.801159506543122,223.36605718227054 31.740904811457355,223.34068678444712 31.449779495566172,223.23413111334688 31.34068678459923,223.18846439720426 31.29311728853976,223.16816807858262 31.21954313470941,223.1377236011038 31.182756057754663,223.127575442171 31.12694118230122,223.10220504412078 31.045755909099988,223.0616124077092 30.94998265703121,223.01594569156657 30.89099648183921,222.98042713435675 30.851038105223875,222.95505673653332 30.75526485315628,222.88401962211367 30.698181457807888,222.85357514486168 30.632852683293535,222.8028343487612 30.521222932462265,222.7064268369718 30.295426391236653,222.45272285798166 30.226292056961842,222.37153758485601 30.03981963232848,222.10261136705086 30.026500173507106,222.0366483322866 30.00810663495471,221.90472226336294 30.023963133641598,221.75249987581765 30.100074327414248,221.66624052326344 30.218046677569053,221.55461077212973 30.20092165906283,221.36179574817282 30.14891234329424,221.25524007699698 30.139398444082108,221.20449928142577 30.121004905680934,221.15883256528315 30.111491006393194,221.11316584914053 30.09436598788697,221.05735097353588 30.036014072718057,220.92542490461224 29.87998612556469,220.73260988065533 29.84827312819211,220.7123135622605 29.81782865071211,220.68694316421028 29.744888756828054,220.63620236841226 29.6637034834756,220.59053565226964 29.515920915713846,220.49412814002656 29.432198602647098,220.45860958327037 29.09413805064274,220.30638719572508 29.000901838439475,220.25057232019603 28.943818443091082,220.1947574448938 28.842971111442502,220.07297953512975 28.793498835615036,219.9917942617773 28.766859917821073,219.93090530674405 28.716119121947433,219.75838660087956 28.679332044993863,219.54527525875466 28.616540310193805,219.37783063239434 28.52457261788549,219.21546008591625 28.47700312182484,219.14949705168127 28.32034091472282,218.95160794776652 28.208076904095293,218.83490411743105 28.123086071133596,218.74864476487684 28.09264159357917,218.72327436682662 28.011456320377935,218.6674594915244 27.672127248403015,218.4949407858867 27.630900351892727,218.47971854699608 27.53512709974834,218.4492740697441 27.40066399088357,218.40360735329904 26.886279173556673,218.31734800029116 26.63194093461906,218.3071998413584 26.571051979585818,218.2970516821988 26.47781576730694,218.26660720464437 26.397899013926228,218.23616272693872 26.1238987166157,218.11438481740151 26.08838015963269,218.0788662604185 26.045250483204367,218.03319954404904 25.956454090557816,217.88605123615915 25.92474109318405,217.7794955650589 25.877805856995263,217.71860661002566 25.830236360934613,217.6475694958328 25.76110202673541,217.53086566549734 25.724949209653705,217.46997671046412 25.513740647144417,217.19597641315477 25.41352757544331,217.0741985033907 25.374837718722926,217.02345770751708 25.211198652274287,216.75960556936732 25.09576334175698,216.6581239779225 24.92705019572854,216.53127198842742 24.79512412665485,216.4856052722848 24.72852683216994,216.4653089539656 24.592795203485824,216.42979039698258 24.490679351866685,216.42471631702475 24.223021654107697,216.41456815786515 24.131688221671247,216.39934591942816 23.74859521332053,216.34860512363014 23.679460879045717,216.3283088050085 23.593835786212157,216.29279024832792 23.46127545718981,216.23190129329467 23.405460581736367,216.2014568155134 23.3122243695331,216.1354937810516 23.020464793618835,215.90716019988486 22.926594321468095,215.8259749265324 22.862534066697474,215.7600118922974 22.840969228483313,215.69404885753315 23.149853822979413,215.58241910670188 23.361062385488705,215.47586343575284 23.724493335392076,215.2373816954265 23.89574352113481,215.0597889100578 24.096803924484494,214.71475149878242 24.203359595660352,214.33926960980142 24.18306327734114,214.0551211535593 24.11392894306633,213.85215797014035 23.994688073016576,213.6847133442337 23.854516624548914,213.55786135473863 23.721956295527747,213.4868242405458 23.4200485605283,213.4157871261261 23.14604826321895,213.36504633070612 22.89297854417629,213.29908329579064 22.528913334324262,213.1671572270938 22.29740845357255,213.07582379450614 21.818542193153057,212.85763837272583 21.468430702222275,212.66989742827315 21.149397948566566,212.42126752848475 21.023180219018972,212.32486001677094 20.820851295774336,212.05085971938598 20.743471582256774,211.8834150932525 20.737128982707592,211.7058223081106 20.758059560974278,211.55867400006952 20.884277290521872,211.49271096560767 21.4443288241426,211.32526633962541 22.09888508993716,211.18319211131532 22.492760517319347,211.04111788292963 22.766760814628697,210.90411773450177 22.984946236635825,210.72652494890625 23.118140825605646,210.52356176601657 23.251969674447334,210.16837619535477 23.27480303255645,209.99078340975922 23.29636787084622,209.55441256619864 23.29763639073999,209.25504187106588 23.423854120288762,208.91000445956368 23.62174322382546,208.64615232141395 23.854516624548914,208.448263217726 24.339091224495686,208.26559635292872 25.57589812207261,208.00174421470336 25.877805856995263,207.8647440660487 26.18922749128245,207.71252167880584 26.74483920519406,207.22541003914478 26.942094048858895,206.9412615823734 27.471701105000808,206.0076309399921 27.648025370474564,205.62200089185148 28.09137307375983,204.67822209008378 28.529012437517817,203.77503592450086 28.804281254722117,203.0545166243957 28.861364649918105,202.86677567994298 28.94001288340623,202.24266389162725 28.98250829988708,201.92299687817527 28.998364798573963,201.63884842140388 29.04086021505481,201.30903324901914 29.091601010852838,201.085773747281 29.211476141001288,200.88788464381992 29.37194390763694,200.7102918585268 29.53431445426624,200.48703235678866 29.80958327147054,200.01514295601822 29.87364352608994,199.71069818115444 29.867300926689612,199.4468460430047 29.847004608447193,199.1018086315025 29.76455081512418,198.34577077448995 29.71698131906235,198.05147415855893 29.73156929785546,197.76732570208998 29.752499876122148,197.63032555366215 29.82290273029191,197.5491402803097 29.99859273581701,197.48317724584786 30.322065309030616,197.42228829081463 30.630315643428027,197.4527327680666 31.024191070885824,197.51362172309985 31.529696248948067,197.65569595171237 32.25846092859724,197.96521480600472 32.51026212782056,198.07684455638235 32.64979931618952,198.10221495443258 32.846419899906884,198.06162231771856 33.20541103017793,197.9601407260469 33.77497646301079,197.73688122483802 34.104791635697964,197.55928843924247 35.135464050345405,196.97069520813656 35.45893662363344,196.7575838660873 35.711372082653014,196.63073187659222 36.006937218176525,196.52417620518952 36.41540062442744,196.4328427729043 36.66783608344702,196.3770278976021 36.871433526736645,196.30599078340924 37.01921609442279,196.17913879391418 37.125771765523034,195.97617561072207 37.210762598484735,195.52965660732136 37.29829047131194,194.59095188543589 37.34078588779279,194.38291462236154 37.411823001834414,194.2002477577911 37.524721272485024,194.05309944974996 37.624300084238655,193.95161785830516 37.70167979783065,193.9160993010953 37.85707348496211,193.8958029830029 37.97568009521561,193.9110252215911 38.172300678857354,193.95161785830516 38.36955552252337,194.05309944974996 38.950537634409606,194.31695158789972 39.4344779744089,194.5655814874613 39.83533026121332,194.72287795420834 40.010386006716516,194.76347059084677 40.28311778405531,194.76854467035093 40.571706060156586,194.73810019332578 40.95099350882245,194.66706307913293 41.302373519648185,194.54021108963786 41.464744066201874,194.44887765712582 41.725424904614236,194.0683216886406 41.874475992270945,193.64717308321454 41.93029086764878,193.34272830888003 41.92331400830098,193.11439472741085 41.90365194985481,192.94695010127737 41.85417967402734,192.7896536345303 41.76348050146276,192.63743124721182 41.588424755959565,192.47506070050693 41.301104999753235,192.27209751731482 41.06960011892473,192.0894306522907 40.9934889253033,191.94735642443428 40.96558148753878,191.88139338967 41.078479758265,191.5718745351508 41.25416976364006,191.3638372723033 41.39560973200149,191.23698528280823 41.47235518557158,191.20654080555624 41.83832317534046,191.17609632830425 42.14657350973787,191.1304296118592 42.373004311060996,191.07461473633015 42.79478717613446,190.89194787153286 43.09669491113154,190.78539220058383 43.74046875774341,190.60779941529074 43.866686487291005,190.5316882215937 44.08487190929813,190.37439175439297 44.31764531002158,190.08009513899125 44.37472870521876,189.61327981742255 44.431812100491534,189.05005698414007 44.552955750459326,188.45131559387457 44.77938655170803,188.08598186397754 44.920192260123166,187.8728705214746 44.88530796293641,187.6039443040475 44.717863336802914,187.17264753976426 44.48635845605003,186.9240176399759 44.33350180870847,186.73627669597684 44.22821465742756,186.5586839103813 44.18064516136691,186.29990585188696 44.25802487488329,185.98023883820818 44.35633516674197,185.83816461027612 44.554224270354275,185.68086814307543 44.976007135425384,185.49820127827815 44.97093305584558,185.3510529706907 44.97093305584558,185.27494177653998 44.96966453595063,185.1480897870449 44.95634507712926,185.0719785936503 44.911946880730376,185.02123779754984 44.824419008055564,184.9299043652646 44.7673356127816,184.8436450127104 44.74577077456744,184.81320053515597 44.655705862027126,184.6914226251651 44.61130766562588,184.61531143124122 44.59037708736037,184.55949655616584 44.56881224914621,184.51382983956955 44.55549279032484,184.47323720315796 44.4920667955773,184.37175561171313 44.431812100491534,184.28549625862965 44.405173182697574,184.24490362221806 44.36267776621673,184.1840146671848 44.33477032852781,184.1434220304708 44.266904514147946,184.06223675734518 44.240265596353986,184.02671820013532 44.20728407916087,183.99119964322793 44.176839601606446,183.9455329270853 44.01320053515781,183.79331053954002 43.966265299044636,183.75271790259916 43.90410782419205,183.69690302729694 43.84004756949586,183.65631039088535 43.781695654329305,183.61571775394447 43.73095485860689,183.57005103780187 43.69543630147266,183.54468064020529 43.5197462960976,183.44827312826465 43.475348099698714,183.41782865071022 43.38528318715722,183.3772360140718 43.330736831674336,183.34679153629054 43.295852534563195,183.33156929770234 43.21466726128635,183.29097666121515 43.16012090588026,183.2605321835095 42.99013923995569,183.1844209901149 42.911491006468744,183.14890243290506 42.825231653535305,183.10323571676244 42.73326396115256,183.06264307982158 42.650810167980765,183.0321986025696 42.55503691591199,183.01190228417477 42.49541648084931,183.01190228417477 42.386323769883546,183.01190228417477 42.33812001387424,183.01697636367896 42.16686982813151,183.01190228417477 42.05397155740528,183.00175412501517 42.00957336108319,182.9966800455866 41.912531589195076,182.98145780646914 41.81422129726079,182.95608740864571 41.77679996035974,182.94593924948612 41.710836925822306,182.92564293116692 41.55734601853327,182.84445765781444 41.47489222543709,182.7937168623945 41.410197710794606,182.74805014602504 41.34994301570883,182.70238342965558 41.28334572129835,182.6567167137398 41.22879936574105,182.61104999714354 41.18884098912571,182.5907536788243 41.155859471781376,182.57045736073195 41.07594271839949,182.5197165648583 41.027104702443886,182.4791239284467 40.96938704722363,182.43853129150585 40.91103513205589,182.40808681425386 40.843169317676036,182.35734601815338 40.80891928058797,182.33197562032998 40.69158119030504,182.26601258586817 40.657331153065755,182.24571626754894 40.56409494086249,182.20004955140632 40.51589118477875,182.17975323331396 40.433437391682574,182.1391605963731 40.350983598435164,182.09349388000365 40.31229374179039,182.07319756191126 40.25521034636639,182.04782716386103 40.188613051881475,182.02245676626447 40.04653882372261,181.9463455724162 39.99579802784897,181.92604925432383 39.95774243107606,181.9159010951642 39.82581636200119,181.84993806017312 39.76746444683346,181.81949358292113 39.674228234478974,181.75860462788788 39.627292998365796,181.7281601506359 39.58796888169912,181.70278975235883 39.54357068529787,181.67741935453543 39.48395025023637,181.6317526383928 39.43194093454339,181.59623408118298 39.39451959764234,181.57593776286376 39.34695010158288,181.54041920588077 39.27083890796026,181.48460433057855 39.21629255247856,181.4592339325283 39.126227639860275,181.40849313718394 39.05709330558546,181.33238194303323 38.402537039866516,181.42878945527633 37.53106387203539,181.10912244174875 36.85557702804976,180.65752935937311 35.9073584064229,180.19578811753547 34.82848223576615,179.26723155412913 33.97730538625542,178.28793419515156 33.45848074922059,176.96867350485653 32.6536048760256,176.62871017255608 31.806233586122925,176.4257469896664 30.915098359844457,176.18219116983587 29.838759228977615,176.6642287297659 28.86643872949909,177.37459987086268 27.03406174131843,177.0295624593605 25.226420891013696,176.7707844011686 24.12344284227846,176.6084138544637 23.35218274614844,176.54245081992624 22.72553391811841,176.54752489943044 21.921926564591537,176.64393241167352 21.10119419255844,176.58304345641346 20.312809077846588,176.44096922848144 19.610049056043902,176.2380060451381 19.368396016055797,176.16696893094525 18.97705762846351,176.0451910211812 18.59015906050355,175.88789455390489 18.250829988604238,175.83207967860264 17.93560279470899,175.78133888295585 17.80240820573917,175.7407462460906 17.759912789258323,175.7305980871578 17.662871017370204,175.71030176906544 17.614033001338992,175.69507952994798 17.569634805015717,175.6849313710152 17.52587086871553,175.66463505269598 17.477032852759926,175.64433873430116 17.428829096676193,175.629116495713 17.403458698852788,175.5783756996125 17.350180863264857,175.52763490396572 17.238551112433587,175.46167186927704 17.168148258263823,175.44137555095784 17.129458401543438,175.43122739202505 17.024805510134396,175.41093107370585 16.666448639810827,175.37541251672283 16.53515683068343,175.3601902776054 16.280818591744634,175.3297458005802 16.19836479864963,175.32467172062238 16.154600862198222,175.32467172062238 16.0651702096042,175.32467172062238 15.943392299688933,175.31452356146278 15.840642188196746,175.2993013230258 15.759456914996692,175.26378276581596 15.726475397652365,175.24348644726993 15.68778554085755,175.21304197001794 15.646558644270472,175.18259749269035 15.612942867129888,175.15722709471572 15.541271492989564,175.09126405995144 15.519072394829108,175.06081958247262 15.486725137506685,175.02022694598543 15.456280660027868,174.99485654823764 15.432178782100596,174.96441207045638 15.290104553864937,174.8375600809613 15.1492988454498,174.76144888733987 15.091581190229544,174.73607848928964 15.02688667558706,174.71070809146624 14.889886526932385,174.67011545505466 14.84421981071416,174.65996729589503 14.681849264236082,174.6295228183406 14.61271492996127,174.61937465895417 14.48015460093892,174.60922649979457 14.35901095097113,174.61430057975244 14.313978494624772,174.60922649979457 14.270848818196448,174.61430057975244 14.152876468041644,174.6345968978448 14.024755958576014,174.7513007284071 13.978454982485923,174.78681928539012 13.90551508852626,174.8375600809613 13.78944551813827,174.9187453545406 13.75392696100404,174.93904167293542 13.719042663968507,174.9593379910278 13.681621326991852,174.97456022961597 13.641662950452124,174.99485654823764 13.524959120041052,175.06081958247262 13.418403448865194,175.1217085377327 13.362588573411754,175.1470789354805 13.326435756405658,175.1623011741443 13.261741241763174,175.19274565192555 13.157722610377217,175.2333382881103 13.120301273476171,175.24348644726993 13.059412318594148,175.25870868638737 12.966176106239663,175.27900500447976 12.809513899213252,175.30437540252998 12.592596997176685,175.3094494821854 12.539319161588756,175.30437540252998 12.483504286286534,175.2942272433704 12.351578217211664,175.27393092497556 12.29068926217842,175.25363460642953 12.250730885563083,175.24348644726993 12.192378970395351,175.2181160494465 12.130855755414633,175.1978197311273 11.832753580176831,175.08618998052287 11.78391556414562,175.06081958247262 11.729369208662739,175.04052326438025 11.619007977800848,174.98978246827977 11.572072741687673,174.96441207045638 11.505475447279553,174.93396759297755 11.40082255587051,174.87307863794433 11.368475298624878,174.84263416069234 11.335493781357341,174.8071156034825 11.302512264011833,174.7665229669953 11.267627966976297,174.71578217119728 11.228938110104693,174.6041524205928 11.218155690997612,174.56355978365195 11.202299192310727,174.47730043109775 11.201030672415778,174.4265596349973 11.197225112730925,174.37581883935047 11.195956592835975,174.2540409293596 11.194688072941023,174.20837421321698 11.193419553121682,174.15255933791477 11.199762152672045,174.08659630315051 11.208007531838007,173.99018879143668 11.195956592835975,173.88870719976504 11.201030672415778,173.81259600584116 11.20483623217624,173.76692928969854 11.202299192310727,173.72126257332908 11.197225112730925,173.66544769802687 11.178831574255321,173.56904018601062 11.158535255934929,173.52844754959904 11.073544422973233,173.40666963975937 11.043099945494417,173.38129924178475 10.99616470938124,173.3508547640035 10.954937812870952,173.3305584456843 10.76465982862835,173.22400277450842 10.630830979635443,173.1478915811138 10.594678162628165,173.11744710355939 10.559793865593813,173.081928546652 10.536326247461615,173.04133590971114 10.500173430531131,172.96522471631653 10.480511372159395,172.86374312456925 10.477340072346408,172.78255785151924 10.485585451739198,172.68615033927617 10.502710470245422,172.62526138424292 10.51349288935132,172.5592983497811 10.529349388040568,172.4527426783784 10.535057727566665,172.40707596223578 10.54520588672627,172.36140924609316 10.56296516525558,172.32081660968157 10.565502205196701,172.25992765464832 10.574381844385746,171.93011248173434 10.595946682599907,171.75759377632346 10.60102076217971,171.6713344233156 10.604192061842658,171.58000099103037 10.610534661317413,171.48866755851833 10.621317080423312,171.40240820543485 10.65556711758698,171.2907784548304 10.675863435981801,171.21974134063754 10.683474555275895,171.17914870422595 10.692988454488026,171.0979634308735 10.687914374908223,171.05737079393265 10.67332639611629,171.00155591863043 10.662543977009209,170.9660373616474 10.647955998218457,170.93051880443758 10.611803181286792,170.84933353131194 10.576284624152562,170.76307417875773 10.538863287327127,170.67681482544742 10.516029929218014,170.63114810930483 10.462752093554476,170.55503691591022 10.443090035258349,170.51444427896936 10.382835340172582,170.4129626872977 10.360636242012125,170.3622218918777 10.33399732421698,170.31655517550826 10.250275011150235,170.19985134517282 10.209048114564338,170.1288142312824 10.44435855507769,170.16940686746716 10.480511372159395,170.17448094742502 10.538863287327127,170.18462910658462 10.587701303207119,170.1897031860132 10.758317229077987,170.18462910658462 10.991090629801437,170.11866607212278 11.300609484170588,170.11359199216494 11.7331747684232,170.10344383323218 11.813091521729485,170.09836975372798 11.860661017790136,170.09329567407255 12.012249145312353,170.07299935567772 12.158763193103548,170.03748079877033 12.23360586690564,170.0121104007201 12.366166196003595,169.94614736618266 12.425152371119985,169.90048064981323 12.50189782468771,169.82944353592282 12.541856201454266,169.76348050115854 12.563421039744037,169.72288786474695 12.65602299192422,169.56559139769746 12.697249888510116,169.4894802038492 12.853277835664661,169.25099846374968 12.959833506916128,169.09370199692702 13.080342896860834,168.9059610524743 13.18309300827623,168.74359050576942 13.33975521537825,168.44929389029207 13.373370992518835,168.3681086167128 13.434259947552077,168.26155294583938 13.463435905060333,168.2108121497389 13.474218324167413,168.1752935927559 13.482463703560203,168.05858976242044 13.482463703560203,168.0027748868914 13.487537783140006,167.9621822507066 13.500857241961379,167.92158961376575 13.715237104283656,167.64758931668322 13.759001040583843,167.6019226003138 13.816084436007845,167.55625588417118 13.901075268818321,167.50551508807072 13.970209603091952,167.4699965310877 13.989237401593003,167.42432981494508 13.985431841832542,167.33807046239087 14.000019820700086,167.24673702987883 14.000019820700086,167.18584807484558 13.996848520887099,167.0488479261909 14.000019820700086,167.0031812100483 14.010167979859691,166.94736633474608 14.019681878996211,166.8966255386456 14.052663396340538,166.69366235575592 14.064714335266961,166.62262524156307 14.08120509390132,166.47040285401778 14.092621772955876,166.34862494395128 14.087547693376074,166.30803230731286 14.085010653661781,166.26236559117027 14.075496754374042,166.2217729544562 14.034269857788145,166.1405876813306 13.998117040782049,166.09492096496115 13.966404043408282,166.05432832832273 13.930885486425272,166.01880977133973 13.84399187354554,165.9629948960375 13.727288043210077,165.90718002073527 13.69811208570182,165.88180962268504 13.639125910509822,165.8462910654752 13.599167533894486,165.81584658845006 13.5674545365219,165.79047619039983 13.490074822854298,165.70421683731635 13.465338684978368,165.66869828056016 13.442505326792466,165.6281056436949 13.426648828106764,165.57736484782126 13.417134928894633,165.53677221140967 13.430454387791615,165.2932163913523 13.443773846688599,165.22217927715946 13.538278578862425,164.94310490034593 13.590287894555402,164.78580843337204 13.600436053715008,164.62343788689395 13.602338833557434,164.57269709102033 13.597899014000717,164.51688221594495 13.603607353527995,164.44584510152526 13.62200089192917,164.28854863455138 13.6315147911413,164.23780783890456 13.653713889302937,163.92828898438538 13.68859818648969,163.5680293345218 13.700649125416113,163.49191814059793 13.72284822357775,163.41580694697652 13.736167682550342,163.36506615110287 13.826866854963706,163.17225112714598 13.86301967204541,163.11136217211273 13.935959566005074,163.00988058044106 14.006362420250449,162.93376938704648 14.156682027650886,162.7916951586608 14.242941380583142,162.72065804446794 14.301927555698349,162.6699172485943 14.730053020244208,159.9146920369126 14.721807640851418,159.87917347970276 14.720539120956467,159.71172885356927 14.728784500349256,159.66606213742665 14.748446558645382,159.5848768640742 14.764303057332267,159.52398790904095 14.779525296071675,159.48339527262937 14.797918834624069,159.41235815843652 14.805529953918164,159.3666914422939 14.822020712552522,159.30580248726068 14.835340171525115,159.26013577089122 14.86451612903337,159.19924681631164 14.886715227195008,159.16880233860599 14.91081710519907,159.138357861354 14.971071800209229,159.06224666765695 14.997076458055718,159.0165799510607 15.012298696795126,158.9759873146491 15.009127397133359,158.93539467816188 15.000247757793094,158.89480204152346 14.97487735989408,158.84913532515404 14.924136564171663,158.7882463701208 14.893692086692846,158.7578018928688 14.8562707497918,158.70706109676834 14.801724394233311,158.66139438062572 14.767474357219681,158.62587582341587 14.728784500349256,158.59543134616388 14.665992765549197,158.54469055029026 14.607640850380283,158.5091719930804 14.57148803337537,158.4888756747612 14.494742579654064,158.45843119773605 14.402774887422538,158.4229126405262 14.343154452284248,158.4076904016356 14.257529359300648,158.38232000358533 14.18458946541541,158.35187552633334 14.105941231928467,158.31635696912352 14.058371735867818,158.29098657130012 14.02792725831339,158.2706902529809 13.966404043408282,158.21487537767868 13.90932064821111,158.16413458180506 13.869362271444555,158.1286160245952 13.83320945443846,158.0930974676122 13.805302016826335,158.06772707009122 13.749487141371715,158.02206035364617 13.5674545365219,157.8698379664033 13.499588722066427,157.81909717030285 13.4463108864785,157.78357861331983 13.350537634485331,157.72268965828658 13.287111639737796,157.68209702164816 13.145671671375185,157.60091174829572 13.059412318594148,157.56031911211096 12.999791883455856,157.5298746343297 12.947782567838487,157.50957831601048 12.754967543730373,157.46391159986788 12.712472127249525,157.45376344070826 12.673782270529138,157.44868936097726 12.44608294938549,157.40809672456567 12.398513453324838,157.39794856540604 12.255804965142886,157.37765224701124 11.967216688965994,157.3421336898014 11.89554531497689,157.3269114512132 11.826410980626468,157.31676329228043 11.740151627769821,157.30154105316296 11.614568158169702,157.27109657591097 11.460442990933194,157.23050393897012 11.402091075765462,157.21528170030632 11.294266884770263,157.1746890636679 11.22513255049545,157.1442445864159 11.168049155298279,157.11380010863465 11.131896338139784,157.08842971081125 11.076081462763135,157.03768891524004 11.021535107280254,156.99709627852602 10.957474852585245,156.93620732379523 10.896585897703222,156.86009612964452 10.873752539518499,156.8245775726615 10.843308062039682,156.75354045869548 10.804618205243687,156.67235518564547 10.780516327315233,156.63176254870461 10.723432932043634,156.54042911619254 10.679668995591044,156.49476240004995 10.594678162628165,156.4085030474201 10.518566968932305,156.31716961468123 10.476071552450277,156.27657697826965 10.259154650414889,156.0786878743549 10.228710172936074,156.05331747653148 10.174163817528804,156.0127248401199 9.925533918118468,155.83513205452437 9.284297111145284,155.0892423566714 9.701005896636586,154.79494574074042 10.107566522967101,154.43976017007859 10.488122491453488,153.87146325751874 10.701233833880815,153.49090728903354 10.991090629801437,152.96827709223822 11.528308805311873,152.1767206777134 12.278638323176388,151.1162380453834 12.99788910361343,150.2079778005987 13.223051385042787,149.84264407100412 13.589019374660452,149.38597690882187 14.377404489372307,148.56397601712067 14.712928001662373,148.21386452566063 15.333868490165127,147.37156731556456 15.6998364798584,146.711936970039 15.9751052970627,145.93052871474936 16.090540607504394,145.33178732448386 16.181239779992186,144.62141618361392 16.427332639612622,143.67256330211518 16.64171250185929,143.17022942356348 16.825013626679663,142.32285813381205 16.778712650513963,140.90718993104707 16.872583122740313,139.75029978670082 17.005777711710135,139.1820028736873 17.36223180226689,138.34477974332228 17.759912789258323,137.50755661265484 18.390367177048816,136.33037014998936 18.574302561816666,135.70625836174924 18.580645161291418,135.42210990497784 18.521024726228735,134.874109310586 18.281274466158663,133.63603389288727 18.080848322756456,132.77851444412744 17.818898964373528,132.23051384928192 17.211912194639623,131.81951340377154 16.46158267677629,131.60132798176443 15.347187949137718,131.54043902673118 13.219245825282325,131.73325405046126 12.124513156015489,131.7484762895787 11.43507259303418,132.0224765866612 11.028511966702483,132.5095882265491 10.588969823102069,133.76288588238234 10.386006639909958,134.2347752833796 9.756820772165636,134.61533125186483 8.539675932884839,135.05677617538328 7.666934245083154,135.33077647269263 6.552539517444582,135.26988751765938 5.459075367997087,134.99081314114827 4.385273276921327,134.45803478511777 3.293711907240649,133.88973787187743 2.8281651057937456,133.46351518724958 2.241474654379051,132.86477379675725 1.5552053912119093,131.9565135521994 0.7477924780746134,130.581437985846 0,129.5564739109527 0.10275011149218732,128.91713988374633 0.3564540904823254,128.5061394377823 0.9761260592413473,128.19154650375893 2.6987760765843847,127.97336108197861 4.535592884397374,127.95813884331481 6.279807739954574,127.96321292281901 7.140498488829837,127.84650909248354 7.738605619147868,127.65369406852665 8.185758882193596,127.37461969148627 8.875833704971162,126.72006342591855 9.400366681533272,126.08072939893901 9.746038352984126,125.45661761062327 9.787265249568842,125.10143203973465 9.584936326248597,124.64476487785484 9.404172241218124,124.32509786440286 8.898667063155884,123.90902333870783 8.413458203337244,123.40668946015613 7.58574897180631,121.96565085934093 7.1030771518531814,120.36224171227447 7.064387294981576,119.61635201419469 7.191873544500911,119.29668500074273 7.3092116347826686,119.00238838481172 7.653614786186171,118.62183241632651 8.282800654081713,118.45438779041986 8.971606957039938,118.44423963118464 9.681978098287935,118.55079530213366 10.735483870970056,118.4899063476297 11.363401219043894,118.5660175410243 11.951360190279111,118.75375848577944 12.35601803684399,118.93642535057673 12.680124869928282,119.1647589312898 13.205926366385343,119.42353699023779 14.674238144790767,120.02227838073013 15.951003419134247,120.33179723502249 16.861166443685757,120.7884643969023 17.14404638033537,121.1081314105811 17.285486348546762,121.4176502651759 17.467518953547795,121.82865071068625 17.751033149993667,121.96565085934093 18.66183043464387,121.99609533704657 19.330974679154753,121.98594717788697 19.77812794227609,121.6815024030988 20.468202764976866,121.08276101283329 20.83543927456627,120.53476041791215 21.34221297267468,120.45864922451756 22.11220454883414,120.66161240740723 22.90249244338842,120.72250136244047 23.387701303282668,120.67176056656683 23.5101134730698,120.66161240740723 23.814558247933576,120.32672315506464 24.018155690997553,119.91064862959642 24.245855012141202,118.3427580397398 24.224290173927038,117.9622020712546 24.16847529862482,116.96768247368887 24.07841038600771,116.7748674492027 23.47332639611623,115.56723650928525 22.705237599799197,114.20230910231831 22.513691095586033,113.90801248691658 21.818542193153057,112.58367771666367 21.314305534985767,111.57900995986272 21.092314553369395,111.06652792192459 20.8912541499441,110.60986076004478 20.66926316832773,109.9400822553596 20.48786482334978,109.45804469542956 20.206253406821947,108.72737723571113 19.963966106735146,108.11848768628602 19.5719934593466,107.44363510232347 19.4197710718013,106.83981963217572 19.24978940587791,106.0431891382223 19.322729299912,105.39370695185633 19.598632376989347,104.729002527129 20.258262722439316,104.21144640998911 20.863346712255186,103.77507556620168 21.34094445277973,103.31333432436402 21.796977355014505,102.83637084363573 22.559357811804258,102.44566671621776 23.148585303084463,102.01944403136311 23.47332639611623,101.6388880628779 24.019424210892502,100.97925771735231 24.578207224618282,100.43633120238903 24.975888211685323,99.91370100574495 25.0691244239642,99.79192309575409 25.556236063625263,99.16781130743834 26.0338338040742,98.62995887220607 26.60974183638181,98.12762499342756 27.69622912640708,97.69125414964013 28.781447896537394,97.40203161366698 29.82607403002929,97.30562410195317 30.87767702309463,96.90477181507313 31.56838610581967,96.45317873216825 32.047252366087946,95.90517813754956 32.82929488132505,95.40284425952713 33.75341162479663,94.76351023209394 34.96675090439257,94.04299093176193 35.73801100044698,93.38843466596738 36.826401070314674,92.61717456983736 37.608443585551775,92.00828502041226 39.0767553639572,91.18121004898 39.514394727715185,91.04420990024973 40.25394182654705,90.88183935384725 40.719488627918345,90.59261681787412 41.17742431007115,90.14102373519606 41.82754075623338,89.52706010581309 42.346365393268215,88.86742976028752 42.85440761119596,88.31435508616462 43.34278777067637,87.77142857142816 43.93201526195657,87.30461324993509 44.59164560733093,86.90883504255926 45.196729597146806,86.48768643766246 45.957841534117215,86.10205638944623 46.730370150142186,85.6656855456588 47.65512115356124,85.04664783707409 48.42764976958621,84.31090629785146 49.21920618403544,83.82886873769459 50.05198949514618,83.44831276920938 50.72240225955201,83.07790496011062 51.468291957858625,82.66690451391976 52.48310787381918,82.2153114312417 52.76915911013056,81.8550517810757 53.16303453743714,81.21571775417178 53.246756850503886,80.99245825243364 53.418641296345314,80.5307170108228 53.74591942916698,79.850790346978 54.12330409806603,79.06938209191522 54.39857291511911,78.55690005420391 54.69413805079384,77.83638075417436 55.08103661860258,77.17167632891775 55.47998612564018,76.26849016386409 55.65440761119591,75.5733412613555 55.69690302767793,74.96445171193038 55.993736683095214,74.01559883020484 56.085070115456055,73.64519102087922 56.14786185025611,73.09719042648736 56.05906545760956,72.47815271760021 55.84849115504775,71.53944799556352 55.86054209412539,70.94578068449977 55.984222783807475,70.13900203161357 56.36351023247334,69.28148258270251 56.53602893811102,68.5203706457321 56.70283930429704,67.58166592316616 56.768802338834476,66.9372578165312 56.72884396221914,66.21166443677062 56.40981120856343,65.55710817097606 56.33940835439367,65.01925573521454 56.35019077350075,64.71481096088003 56.70791338402806,64.44081066349507 57.620613448369475,63.831921113616296 58.38933650463398,63.304216837316815 58.80160547049296,62.619216094194655 58.69631831921205,61.787067043333835 58.24282245676718,61.04117734472478 57.618710668451435,60.371398840493256 56.99396462018822,59.82339824587456 56.654635548364524,59.62550914195981 56.475139983229,59.518953470783956 56.0895099352396,59.28554581011303 55.21930528715221,58.54473019176426 54.31611912194614,57.83943313009607 53.48650711064956,56.921024726076155 52.765353550370094,55.967097764922016 51.803815469997474,54.95228184896147 50.94439324116838,54.00850304719376 50.115415489893714,53.095168722678046 49.61942421096799,52.146315841708585 49.71519746311238,51.23298151719287 50.001248699272544,50.248610078484305 50.254318418466426,49.16275704833091 50.47504088011223,48.29001536075605 50.956444180246024,47.518755264852864 51.68013478031539,46.70182845258022 52.296001189239526,45.84938308309775 52.73744611275679,44.915752440489655 53.23914573120979,44.09882562791458 54.0516327238501,43.36308408876757 54.989068926294266,42.87597244933333 56.4313760468532,41.429859769089546 56.8398394530285,40.63830335433788 57.2521084188863,39.5828948017389 57.34788167087947,38.5731529657362 57.206441702592464,38.03022645054609 57.100520291364084,37.619226004279625 56.91277934698699,35.93970566359174 56.94576086433132,34.34644467545806 57.31172885387337,32.7734800056436 57.621881968264425,31.5100341901971 57.626956047844224,30.048699271516345 57.64154402663616,29.683365541846154 57.70940984094041,29.277439175386323 57.81977107180231,29.038957435211202 57.91808136373541,28.90703136606072 58.1058223081125,28.729438580465185 58.51682275407653,28.17128982714054 58.697586839107004,27.68925226668123 58.76545265348686,27.2427332637342 58.71661463753126,26.755621624299962 58.556781130843085,26.344621178109108 58.40773004311077,25.771250185893834 58.29102621277412,25.035508646444384 58.23647985729242,24.502730290943145 58.18827610128548,23.635062682570045 57.99292403746189,23.010950894027474 57.84006739012033,22.818135870297407 57.56987265249465,22.523839254366408 57.38910856753979,22.32595015113215 57.236251920198235,22.168653683931435 57.070710073907165,21.99106089856273 56.88360338932751,21.671393885110763 56.77197363857185,21.306060155516185 56.7732421584668,20.895059709476552 56.89565432832954,20.514503740991344 56.99777017994869,20.149170011169936 57.091006392151954,19.71787324711353 57.100520291364084,19.672206530970914 57.14301570784493,19.20031712967121 57.26542787770767,18.911094594000502 57.41574748533494,18.66246469421212 57.6815024032515,18.418908874381586 58.08996580942562,18.0434269856274 58.548535751450295,17.652722858209415 59.25890689269829,17.20112977553136 59.56906000693812,17.038759228826454 59.82847232545554,16.932203557423765 60.358079381597456,16.693721817551086 60.626371339379524,16.531351270846177 60.97394579059601,16.33346216715826 61.17564045389317,16.176165700411204 61.3475248997346,16.03409147179868 61.591080719565134,15.866646846118844 61.90059957385749,15.628165105490066 62.06994697983341,15.475942718398422 62.25959070412854,15.293275853147474 62.550081760072246,14.988831078812966 62.96488776579673,14.593052871210302 63.13360091182518,14.445904563622852 63.33466131517604,14.283534017144774 63.585828254299486,14.105941231549238 63.868073931001625,13.933422525911555 64.04630097616659,13.811644616147507 64.34567167137376,13.603607353299983 64.58732471143867,13.420940488502694 64.85625092916821,13.197680986764544 65.10741786829284,12.989643723917021 65.30974679153748,12.832347257396794 65.52158961399424,12.690273028784267 65.68649720041344,12.558346960011834 65.89516872305721,12.375680094760886 66.10130320598671,12.172716911871214 66.35373866515751,11.92408701253649 66.59729448491242,11.690679351941172 66.83260492542578,11.462345770472 67.08440612457349,11.239086269263117 67.29054060750298,11.056419404465826 67.45164263423733,10.85853030077791 67.57405480410007,10.691085674341979 67.73896239036804,10.477974332292701 67.91401813587125,10.259788910285573 68.03960160554696,10.097418363807495 68.17913879391594,9.884307021455779 68.31043060304333,9.681343838112449 68.45948169070004,9.47838065492034 68.58316238053334,9.31601010851787 68.7100143700284,9.158713641241546 68.93200535164478,8.91008374198243 69.06329716069656,8.747713195504351 69.22566770725025,8.570120409908816 69.37725583484809,8.382379465909771 69.49586244487475,8.235231158019882 69.62905703392019,8.08300877047458 69.79523314008311,7.890193746290855 69.9785342649791,7.636489767300717 70.09714087508138,7.413230266091834 70.17959466832879,7.230563401218935 70.26331698139435,7.0529706159258385 70.35782171349375,6.875377830330303 70.47325702393425,6.702859124692619 70.65148406917483,6.515118180164307 70.93753530548621,6.276636439837968 71.11703087062173,6.109191814158135 71.25403101927641,5.9671175855456084 71.37390614942485,5.84026559605054 71.599068430703,5.561191219236997 71.93015212343634,5.282116842423455 72.10013378920851,5.170487091592185 72.344958128934,4.987820226794895 72.44580546058258,4.9117090330978534 72.60944452703121,4.7747088844431795 72.86885684554863,4.576819781057701 73.34645458607318,4.267300926462903 73.51389921220549,4.165819334791238 73.78282542986061,4.033893265867586 73.93821911706767,3.9730043108343427 74.25217779099236,3.8765967985912613 74.42913631641359,3.8207819232890405 74.67966899559075,3.7598929684826268 74.93591001444639,3.714226252113183 75.40589663545002,3.6431891381471635 75.95072593040695,3.556929785139297 76.14227243454451,3.5061889894924887 77.24144492351928,3.0393736682262444 78.16809870670515,2.6841880977912704 78.59939547106399,2.506595312195735 79.03449779495647,2.3848174024316884 79.26600267586058,2.374669243196473 80.71401813594679,2.024557752265692 82.17471879490691,1.5323720331760435 82.86479361783569,1.2076309399930572 83.22315048808365,0.9945195974145122 83.41152569248382,0.9133343240620584 84.50625836182627,0.6799266633911313 85.70627818244962,0.40085228688002783 86.61326990748941,0.17251870541085518 86.83145532927088,0.13700014873028424 87.00207125514176,0.11162975068005107 87.32490956848349,0.05581487537783038 87.92618799861333,0 88.25600317137612,0.0101481592352152 88.61943412120388,0.1217779098396566 88.94544373420621,0.2537039789901381 89.10464298102252,0.33996333161995596 89.74461126802515,0.7052970612145354 89.98119022843345,0.8575194487598377 90.25392200592346,1.0604826318763385 90.65033447309673,1.4461126798657387 91.52561320053591,2.3492988454486787 91.84084039443117,2.6638917793964496 92.25057232050024,3.008929190671818 92.69328576383802,3.384411079501613 92.91844804526738,3.5467816262065206 93.38526336653362,3.8410782416082516 94.05567613101506,4.175967494177673 94.5567414895962,4.3890788365293885 95.37239978197388,4.546375303276445 95.6806501164469,4.586967940217306 95.97621525197042,4.617412417242464 96.22738219124626,4.6377087355616755Z"/></svg>