<svg xmlns="http://www.w3.org/2000/svg" width="256" height="256"><path d="M67.70558766859345,2.2985741811910345 69.4492485549868,2.959537572254335 72.04870905595018,2.5156069367101885 73.78127167644757,2.2196531791907512 75.88131021201956,1.8645086708877359 76.04285163776493,1.8941040463897765 76.25248554920645,2.140732177410971 76.47691714843573,2.3922928711995914 76.695183044316,2.6339884394533604 76.92208092485549,2.8855491332419807 77.14897880539499,3.1469749521979478 77.24516377649326,3.2308285165246513 77.5226204238921,3.457726397284653 77.61757225440876,3.5415799615378556 77.77418111753371,3.7142196535466954 78.03314065510597,3.950982659327042 78.23660886319846,4.172947977099115 78.28223506758438,4.2420038538585505 78.5128323700157,4.513294798128867 78.71136801541425,4.774720616643829 78.94566473988439,5.046011560693642 79.20215799614644,5.263044316433298 79.33533718697139,5.381425818955967 79.6090944123314,5.628053949977162 79.8754527938343,5.884547206239204 80.13687861279027,6.111445086778703 80.31075144516021,6.289017341040463 80.55244701356098,6.353140655473478 80.94335260122958,6.466589595743227 81.33672447013487,6.575105973319052 81.72393063591166,6.668824662813102 82.1049710984129,6.772408477842004 82.1900578034682,6.7921387283237 82.58712909448583,6.875992293091408 82.94720616577678,6.9845086705937325 83.21233140655106,7.063429672594015 83.322080924929,7.097957610863482 83.717919075218,7.216339114047659 84.09156069371512,7.344585741884676 84.46273603090202,7.487630057876969 84.57618497117177,7.527090559134364 84.69333333340684,7.56161849740383 85.00038535645471,7.670134874906154 85.23098265895953,7.709595376090048 85.38882466281311,7.719460501404397 85.78589595375722,7.719460501404397 85.87838150289018,7.709595376090048 86.18913294805039,7.68986512538785 86.58867052030472,7.6504046246449615 87.01780346820809,7.620809248628414 87.42104046250125,7.586281310579451 87.52832369942196,7.586281310579451 87.71329479768787,7.591213872905871 87.75152215806965,7.606011561134647 87.83414258188824,7.620809248628414 87.90936416192321,7.645472061657033 87.99445086705202,7.675067437600079 88.11529865132592,7.739190751665589 88.33479768786127,7.857572254408761 88.36562620423892,7.887167630425308 88.4235838151024,7.9414258191764695 88.56169556847428,8.094335260189109 88.58142581888247,8.128863198458575 88.63815028901735,8.217649325699705 88.72816955684007,8.355761079218576 88.90820809248555,8.622119460500963 89.1042774566474,8.888477842003853 89.31761079005423,9.164701349041595 89.56547206180403,9.391599229507593 89.85156069371511,9.61849710982659 90.13271676300577,9.850327553060014 90.40030828516377,10.08709055884036 90.68023121394633,10.289325626571744 90.89356454720617,10.45210019289873 91.22281310211946,10.585279383650175 91.27090558774209,10.585279383650175 91.59398843937986,10.600077071658449 91.63838150289017,10.600077071658449 91.71853564547206,10.59514450867052 91.88254335267466,10.570481695641902 92.77040462435096,10.540886320139862 93.90982658959537,10.210404624350957 95.12816955691358,10.17094412360807 95.6263583815029,10.289325626571744 96.6375337186898,10.210404624350957 98.50327552986512,9.539576108046809 99.39113680154142,9.154836223727246 99.6747591522158,9.011791907514452 100.02620423899451,9.169633911515017 100.37394990366089,9.342273603303354 100.67730250489046,9.480385356528222 101.03121387283237,9.64315992307571 101.39005780346821,9.825664740325399 101.72300578034682,9.983506744105462 102.04732177263969,10.17094412360807 102.38643545279383,10.368246628131022 102.71198458581532,10.570481695641902 103.03260115606936,10.772716763152783 103.3717148362235,10.97495183044316 103.69603082851637,11.162389210386772 104.0104816955684,11.359691715203729 104.30396917148363,11.576724470208376 104.50127167637407,11.852947977246117 104.75899807321773,12.227822736251332 104.92917148362235,12.508978805762496 105.0228901734104,12.622427745811741 105.05865125240848,12.64215799651394 105.17703275529865,12.701348747591522 105.30157996153785,12.730944123534568 105.34597302504817,12.735876686081491 105.73687861271677,12.814797687861272 105.81703275537215,12.834527938342967 105.85279383437023,12.839460501330896 105.89472061657032,12.844393063804318 105.93664739884393,12.854258189045165 106.06242774573825,12.873988439600362 106.10065510597302,12.88385356484121 106.23506743737957,12.918381503110677 106.62227360315636,13.021965318360081 106.66913294805038,13.036763005853848 106.81341040469778,13.08608863235209 106.97618497109826,13.169942196605293 107.15868978805395,13.288323699642469 107.438612716763,13.51522158040247 107.6630443159923,13.761849711423665 107.87761079012773,14.0380732179469 108.0761464355263,14.289633911441516 108.29811175344537,14.536262042462711 108.51267822736031,14.782890173483905 108.72847784200385,15.0492485552808 108.95290944123315,15.320539499257112 109.14774566473989,15.577032755592654 109.17487475915222,15.601695568768275 109.45726396917148,15.8137957612995 109.80377649332976,15.991368015855263 110.12932562620423,16.183737957831294 110.41664739884393,16.381040462648247 110.69287090566117,16.583275530159128 111.01225433526011,16.80030828538428 111.33163776493257,17.012408478209508 111.6090944123314,17.224508670961235 111.7546050096339,17.32809248591664 111.78420038535646,17.35275529872475 111.81626204238921,17.37248554920645 112.11468208099835,17.579653179264252 112.42789980732178,17.712832370015697 112.45872832369942,17.732562620497394 112.7633140655841,17.959460501036894 112.83360308285164,18.033448940490253 113.1357225433526,18.2504816955684 113.46127167637408,18.45764932606721 113.79052023128737,18.659884393357586 114.09510597302504,18.881849711350164 114.17279383429673,18.94597302512167 114.56246628131021,19.13341040484478 114.65125240847784,19.108747591889664 114.69687861271676,19.098882466354812 114.89788053949904,19.093949903881388 115.32084778427388,19.128477842371357 115.5687090559502,19.16793834333475 115.70558766859345,19.187668593889946 115.81163776493256,19.202466281383714 116.20624277463997,19.28631984615142 116.56755298651252,19.40963391166202 116.94366088631985,19.557610790421737 117.25441233148005,19.730250481695567 117.3259344894762,19.77957610819381 117.3875915222315,19.907822736398334 117.38882466281311,19.952215799688144 117.38019267822736,19.99167630094554 117.31236994219653,20.050867052464127 117.70574181124884,20.050867052464127 118.53564547206166,20.050867052464127 118.95368015421609,20.050867052464127 119.04739884400414,20.0459344894762 119.34335260115607,20.03606936445585 119.39391136801541,20.03606936445585 119.44570327552987,20.04100192714978 119.58874759152216,20.075529865198742 119.63314065517947,20.08539499043959 119.67753371868979,20.105125241215287 119.98581888246628,20.29749518348532 120.17818882480981,20.425741811248837 120.47784200385357,20.6033140655106 120.80092485549133,20.77595375751944 121.15853564554557,20.88447013502176 121.41872832369943,20.889402697789187 121.8873217727132,20.89433526048311 121.93788053949903,20.899267823030033 122.25479768786127,20.992986512744586 122.59761079005423,21.11136801556126 122.9835838151759,21.195221580034964 123.39175337186897,21.205086705569816 123.79375722550702,21.205086705569816 125.05772639699065,21.214951830810666 125.40177263976521,21.31360308307214 125.50905587668593,21.3678612718233 125.79391136808891,21.57996146435453 125.81980732191964,21.604624277603648 126.08863198458575,21.747668593595943 126.12685934496753,21.757533719057292 126.16631984585742,21.76739884429814 126.37348747598872,21.77233140662456 126.83591522165347,21.777263969612488 126.90990366088631,21.77233140662456 126.97526011568044,21.75260115636337 127.31190751445087,21.575028902101607 127.44508670520231,21.466512524084777 127.6485549133683,21.31360308307214 127.80763005787696,21.219884393063584 128.09001926789622,21.101502890540914 128.13934489402698,21.08177264005922 128.18250481702918,21.07190751452437 128.23183044315994,21.066974952050945 128.2700578035417,21.06204238928352 128.3082851637765,21.032447013560976 128.70905587668594,21.027514451234556 128.74974951830444,21.027514451234556 128.96554913294798,21.06204238928352 129.13078998073217,21.08177264005922 129.51676300578035,21.10643545301434 129.94219653179192,21.091637765300067 130.38119460508312,21.091637765300067 130.43175337186898,21.096570327552985 130.47368015421608,21.096570327552985 130.5994605009634,21.047244701789754 130.63645472061657,21.032447013560976 130.8115606936416,21.00778420053236 131.20493256262043,21.002851638058935 131.25549132955328,21.002851638058935 131.3035838150289,21.00778420053236 131.61680154142582,21.150828516745154 131.96701348747592,21.308670520304716 132.334489402771,21.42705202334189 132.6230443159923,21.481310212093053 133.00655105980374,21.5109055880361 133.38389210019267,21.5109055880361 133.4295183044316,21.515838150583022 133.47761078998073,21.520770713276946 133.54173410411974,21.55036608885249 133.5787283236994,21.486242774786977 133.96346820816598,21.44184971105616 134.3173795761814,21.397456647766347 134.41479768793477,21.3875915225255 134.8118689788054,21.3875915225255 135.19290944123313,21.43198458581531 135.34088631984585,21.436917148582737 135.76631984593092,21.45664739884393 136.0499421965318,21.466512524084777 136.1091329479769,21.466512524084777 136.22258188832012,21.451714836591012 136.61472061664384,21.3678612718233 137.00439306365732,21.34813102156211 137.05865125240848,21.34813102156211 137.29664739891743,21.392524085072424 137.6850867052023,21.43198458581531 138.0969556840077,21.436917148582737 138.43976878612716,21.436917148582737 139.22527938342967,21.624354528085345 139.81595375737243,21.866050096633117 141.01703275537216,22.625664740178397 142.7236994220388,23.893333333553837 144.19853564554558,25.698651252702483 145.41811175337187,26.058728323993424 150.09911368015415,27.434913295091693 153.50628131021193,28.870289017708544 156.9393448941005,30.70026974988581 158.84701348754942,32.357610790274734 160.80154142581887,33.99522158040247 163.08285163776495,35.78080924877542 163.33564547206166,35.874527938342965 165.1175337186898,36.520693641839 167.17194605009635,37.324701349188594 168.37549132947976,37.88208092500249 168.44947976885962,37.91660886349246 171.09579961471704,39.13495183059016 176.86073217733747,41.76894026982302 179.5095183044316,44.047784200532355 181.56146435460144,45.729788054170406 182.62196531791906,46.602851637764935 185.3311753371869,48.921156069437664 185.3546050097074,48.95568400770713 186.86273603082853,51.56007707165845 189.18227360315635,54.692254335627624 190.9629287090559,57.24238921016627 192.3070520231214,58.786281310285446 192.9495183044316,59.52616570334903 193.5919845857418,62.50050096361164 196.17788053949903,68.42944123314065 198.7921387283237,73.14003853601298 200.4420809248555,76.35606936430885 208.84963391144152,72.89341040499178 208.89032755298652,72.86381502897524 215.5949132947977,69.84015414272889 219.55699421965318,68.22720616585028 226.60562620423892,64.95198458581531 232.29657032755298,62.125626204312425 232.97726396917147,62.99868978812745 233.51861271683651,63.787899807468776 234.02666666674017,64.71028901756155 234.8368400770713,65.90396917185113 235.7493641618497,66.69811175344537 236.7556069364897,67.4281310212681 237.7680154143317,68.48863198487975 237.79761079005422,68.54782273610432 239.55113680161492,70.32847784229786 240.23429672454364,71.61587668615499 241.27136801548775,76.56323699429315 242.36023121394632,78.50666666674017 242.39352601156068,78.52639691722186 246.45179190766146,82.82265895961108 247.18057803475557,84.84994219653179 248.56169556847428,86.56154142618638 251.09210019267823,92.08107899814672 252.02805394990366,93.27969171520373 253.70265895953756,95.72624277471347 256,98.79922928723757 255.81009633911367,101.51707129116463 255.2366859345629,104.33356454720617 252.45965317919075,110.84947976878613 250.7147591522893,114.05564547206166 250.0328323700157,114.25788053957254 249.98227360308286,114.54396917155712 249.79606936423536,114.93857418111753 249.38666666666666,115.17533718689788 249.30774566481338,115.22959537609005 249.26581888253978,115.27398843937986 249.19552986527225,115.35290944160064 249.163468208166,115.4071676301313 249.11290944130664,115.53541425818882 248.942736030902,115.7968400774388 248.7528323700157,116.05333333370083 248.7343352601156,116.0878612719703 248.72077071290943,116.12238921046027 248.66157996146435,116.40847784200385 248.6467822736031,116.44300578049382 248.60238921001925,116.51699421972668 248.43591522157996,116.72416184978448 248.41865125248196,116.77348747628272 248.31136801548777,117.06450867081423 248.1584585741811,117.35059730257832 248.10420038535645,117.46404624284807 248.10173410404624,117.50843930635838 248.10050096346464,117.82412331435951 248.10666666666665,118.1102119461236 248.08447013494825,118.33217726441018 248.06720616570328,118.37657032792049 248.0314450867052,118.43082851667165 247.91676300578035,118.51961464391279 247.5739499036609,118.72678227367659 247.28909441240492,118.88462427745665 246.94874759159566,119.05233140691857 246.5455105973025,119.2890944124784 246.49001926782273,119.33842003875615 246.2742196531792,119.54065510626702 246.23352601156068,119.68863198502675 246.23352601156068,119.77741811204737 246.1940655106708,120.093102119534 246.0658188825398,120.43344894034325 246.05965317926425,120.55183044360093 246.05965317926425,120.74913294812389 245.9240077071291,120.98589595412473 245.94373795761078,121.26211946064797 246.16447013487476,121.6616570331963 246.15583815028901,121.94774566473988 246.17063583815028,122.50019267852136 246.60100192678226,123.12169556876827 247.25949903660887,123.70867052037822 247.47036608863198,124.29564547242916 247.3914450867787,124.95660886349246 247.03630057810818,125.30188824699563 246.28038535652823,125.70635838179689 244.28146435452794,126.48077071335045 244.12362235074787,126.574489403065 243.94358381510241,126.68793834311424 243.7795761079733,126.8408477846414 243.64269749518306,127.0677456651074 243.6155684009177,127.39822736067579 243.58350674381145,127.82736030872617 243.39483622350676,128.09865125248197 242.9718689788789,128.4735260117812 242.70057803475558,128.73495183081067 242.36146435460145,128.95691714858273 241.88670520231213,129.12955684029757 241.44647398851282,129.31206165710626 241.0752986512524,129.45017341062513 240.67699421965318,129.60308285163777 240.2047013487476,129.71653179190753 239.790366088632,129.80531791914865 239.41672447020838,129.86450867088774 238.93949903668238,129.93356454764717 238.54982658959537,129.90396917185112 238.22921001934134,129.78558766888744 237.90982658959538,129.69680154164632 237.60894026982302,129.58335260137656 237.277225433526,129.45510597309854 236.9874373797231,129.33179190758796 236.50281310219296,129.26766859359594 236.2611175337922,129.43537572261684 236.2191907514451,129.72146435489543 236.2228901734104,130.00755298665953 236.22905587668595,130.6043930639513 236.2167244702819,130.8904816959359 236.13163776493255,131.2998843932841 236.05025048169557,131.50705202348888 235.8948747591522,131.66982658981587 235.51260115614286,131.9016570328288 234.97988439306357,132.1532177268379 234.47676300578036,132.38998073261826 234.11915221587313,132.6070134876229 233.71591522157996,132.81418111790123 233.4581888246628,132.96215799636693 233.13387283251694,133.1150674376736 232.52346820809248,133.47514450896452 232.05487475929922,133.70204238943052 231.76755298651253,133.85495183073715 231.4087090558767,134.04238921001928 230.78967244708699,134.52084778427388 230.56894026982303,134.75761079005423 230.37163776493256,135.06836223536143 230.21256262042388,135.39391136838293 230.08184971112965,135.6602697498858 229.93017341040462,135.9463583818704 229.66381502897522,136.4445472064597 229.56146435460144,136.73063583822378 229.44801541433168,137.19429672454365 229.40115606936416,137.5149132950182 229.41595375722542,137.7664739885863 229.40115606936416,138.04763005809747 229.42828516385,138.29425818911866 229.5774951831178,138.66420038565045 229.70697495183043,138.8615028901734 229.9240077071291,139.09826589595374 230.0929479768786,139.2314450867052 230.43082851645116,139.52739884422465 230.6897880539499,139.79375722550702 230.8131021194605,140.03052023128737 230.78473988446657,140.30674373803112 230.5664739884393,140.4695183047991 230.3395761078998,140.64709055884035 230.28161849718333,140.84932562635123 230.26188824662813,141.0860886323521 230.26558766866694,141.2981888248833 230.27175337194248,141.5448169559045 230.28038535652823,142.04300578042032 230.30258188832013,142.2896339114415 230.34944123314065,142.5313294799893 230.45179190766146,142.8223506745208 230.51961464354528,143.05418111753372 230.67622350681725,143.32547206180402 230.8352986513259,143.5474373795761 231.05726396924499,143.78420038535646 231.36184971098265,143.96177264005922 231.66520231213872,144.0801541428759 232.0511753371869,144.29718689810105 232.35329479768785,144.44516377664027 232.48400770712908,144.66712909463283 232.52470134874758,144.85949903668237 232.54319845857418,145.05680154171984 232.50250481695568,145.24423892122243 232.4272832369942,145.50073217726396 232.22874759159566,145.75229287127308 231.8822350674374,145.95452793878397 231.6639691715571,146.13703275529866 231.48393063591166,146.28500963405838 231.27799614650894,146.47244701356098 231.05109826596944,146.65001926804325 230.69595375722542,147.01996146457503 230.5442774567944,147.1975337191308 230.47275529865126,147.39976878642116 230.48015414258188,147.60693641618496 230.5664739884393,147.82396917170414 230.61826589595375,147.99167630094553 230.67868978805396,148.19884393070933 230.55044315992293,148.8104816957889 230.48508670520232,149.04231213880183 230.39136801541426,149.31360308307214 230.1139113680154,149.52077071327696 229.70204238921002,149.6983429676122 229.44554913294797,149.77726396961248 229.05094412331405,149.8167244701349 228.70443159930278,149.80685934511453 228.44423892100193,149.78712909485333 228.10019267822736,149.77726396961248 227.77094412331405,149.83645472061656 227.5341811175337,149.97456647413543 227.35167630065155,150.16693641640546 227.1593063583815,150.3987668594184 226.96570327552988,150.6256647401784 226.79306358388854,150.81803468244843 226.6438535646207,151.03013487497967 226.54766859344895,151.51845857425462 226.70551059737602,151.7009633912838 227.0384585742546,151.78974951830443 227.47745664739884,151.75522158003497 227.67845857418112,151.79468208129236 227.8819267823471,151.91306358381502 228.02127167637408,152.10543352630557 228.08169556847426,152.26327553008562 228.0890944123314,152.4655105975965 228.0927938343702,152.67761079034824 228.01757225433525,152.9390366090837 227.71668593456292,153.08208092514948 227.3837379576843,153.21526011590095 227.0125626204974,153.33364161886462 226.66111753371868,153.29418111790122 226.2751445086705,153.1856647401049 225.94342967244702,153.07221579990863 225.5895183045051,152.9439691716306 225.23067437386925,152.85025048206307 224.87922928709057,152.83052023136088 224.61533718689788,152.86998073261827 224.28238921001926,153.0031599231492 224.11098265903303,153.15113680190893 224.0197302504817,153.30897880561548 223.9395761078998,153.46188824692214 223.8372254335995,153.62959537594304 223.71637764932564,153.79236994241703 223.60046242774567,153.94034682095625 223.33163776493257,154.27576107899807 222.9912909442703,154.76408477878755 222.83714836238207,154.97618497131876 222.46473988439305,155.42504816985084 222.1404238921002,155.7505973028723 221.8728323699422,155.98242774566475 221.5250867052758,156.224123314139 221.11075144523372,156.47568400770712 220.7346435453529,156.6976493256997 220.23398843930636,156.9837379579783 219.74196531791907,157.26982658974237 219.32393063583814,157.49179190773495 218.93179190758795,157.64963391173552 218.53718689788053,157.78774566481337 218.05626204238922,157.9554527938343 217.6628901734839,158.09356454757366 217.05741811175338,158.3500578038357 216.63815028901735,158.5572254335995 216.25587668593448,158.78905587712694 215.9266281310212,159.0307514451602 215.6787668594184,159.26258188861414 215.43707129101762,159.5042774569414 215.33965317926425,159.7509055879626 215.38157996153785,159.9383429672447 215.45556840077072,160.1257803471883 215.6195761078998,160.29842003853565 215.85510597302505,160.5943737960551 215.96485549132947,160.79167630057805 216.16585741811176,161.02350674381145 216.3643930635838,161.18134874759153 216.56416184971098,161.3194605011104 216.86381502890174,161.44770712931492 217.2066281310212,161.51183044338043 217.55314065510598,161.52169556862128 218.053795761079,161.44277456662098 218.4003082851638,161.38851637786982 218.80354527945693,161.43290944160066 219.05263969171483,161.50196531836008 219.1636223506744,161.64500963413187 219.235144508744,161.80778420060585 219.32763005787697,161.9804238921737 219.3991522158731,162.22211946086847 219.4373795761079,162.53287090595518 219.45217726396916,163.04092485571184 219.4571098265896,163.31714836252908 219.4176493256262,163.56377649355028 219.31776493256262,163.80547206180404 219.16115606936415,164.0668978808335 219.02057803468207,164.29872832384643 218.9182273603083,164.54535645486763 218.83190751445088,164.76732177286019 218.74312138728322,165.04847784237137 218.6987283236994,165.33456647420894 218.6543352601891,165.6798458574916 218.60747591529508,165.9264739885128 218.54211946050097,166.1928323700157 218.51129094412332,166.434527938784 218.47676300578036,166.67622350681725 218.41387283236995,166.90805395027115 218.31522158003497,167.208940270117 218.21410404624277,167.4752986516199 218.06859344901378,167.6578034686491 217.71591522157996,167.9290944124049 217.4347591522158,168.07707129094413 217.19183044315992,168.20531791944265 216.90450867052024,168.3582273604553 216.6307514450867,168.48154142596587 216.3631599230757,168.59005780368872 215.84894026982303,168.98959537601655 215.6417726396917,169.3102119460501 215.34335260115606,169.73441233177405 215.121387283237,170.07969171505673 214.8759922928709,170.53842003890315 214.74774566473988,170.86396917192462 214.70211946057447,171.17965317941125 214.77610789980733,171.4805394994776 214.93271676300577,171.6630443159923 215.27799614650894,171.86034682125026 215.6368400771448,172.00339113702205 216.04007707129094,172.16123314102262 216.25834296724472,172.35853564554557 216.3175337186898,172.52131021231355 216.32493256262043,172.90111753408618 216.1942196531792,173.17240847813602 215.97348747591522,173.33518304438948 215.56408477842004,173.5028901734104 215.17317919075145,173.7939113681624 214.82543352608505,174.09479768793477 214.57017341040464,174.42034682117676 214.44932562620423,174.6571098267366 214.27175337194248,175.0714450867787 214.20886319853207,175.47098265932703 214.18913294805037,175.90011560730392 214.2137957611525,176.3095183046521 214.14104046242775,176.65479768793477 213.9067437380311,177.01980732214014 213.6391522158731,177.33549132947977 213.38512524084777,177.57718689824804 212.96585741818527,177.86327553001212 212.5021965317919,178.1247013490416 212.1902119461236,178.3515992295811 211.93988439306358,178.64755298658602 211.78820809248555,178.89418111760722 211.54157996146435,179.44662813116818 208.8040077072026,175.5449710983394 205.7310211946785,172.08724470171626 204.7210789980732,169.05865125277597 200.99452793841647,163.03599229323842 199.84894026982303,160.6387668597859 199.56655105980374,160.04685934496752 199.49502890173412,160.0616570327553 199.44816955691357,160.07152215799616 199.13001926796974,160.25895953801327 199.08932562620424,160.27868978827445 199.04616570334903,160.29842003853565 199.00917148362234,160.31815028901735 198.98327552986513,160.3477456650339 198.97341040462427,160.4118689790259 199.03260115606938,160.54504816955685 199.06466281310213,160.77194605031684 199.03753371883678,160.87552986556625 198.97587668608148,160.96431599258688 198.94504816970385,160.98897880576249 198.91052023121387,161.04816955684007 198.75884393070933,161.24547206209803 198.72801541433168,161.2750674376001 198.70458574181117,161.3046628131021 198.69965317919076,161.36878612760864 198.76500963398487,161.51676300585385 198.78597302504818,161.5512909441233 198.8735260115607,161.6252793838707 199.1657803468943,161.86204238965104 199.19414258188826,161.89163776515306 199.41980732177265,162.19745664769286 199.44200385363806,162.3552986516934 199.42843930635837,162.41942196568542 199.35938342974595,162.51314065517948 199.09425818882465,162.7252408482252 199.0178034682081,162.7647013487476 198.81556840084423,162.88801541425818 198.76377649332977,162.94227360322986 198.72678227360308,162.99653179198103 198.69842003868266,163.08531791944264 198.59976878620066,162.9521387286912 198.51714836230857,162.7449710984864 198.49741811182687,162.45394990395488 198.46289017341041,162.30597302519516 198.38520231213872,162.22211946086847 198.1546050096339,161.98535645516162 197.92277456647398,161.7535260116342 197.74890173410404,161.46250481710268 197.70574181124883,161.17148362235068 197.68354527938342,161.1122928712731 197.48994219660528,160.8508670523171 197.43321772647042,160.80154142581887 197.40362235082137,160.7818111755577 197.35676300585385,160.7620809252965 197.3074373795761,160.75221580005564 197.26057803468208,160.75221580005564 197.21618497109827,160.75714836230856 197.0534104046978,160.81633911404765 196.69949903668237,160.9297880543174 196.57248554913295,160.93965317955826 196.48246628138372,160.93472061657033 196.51329479776138,160.79167630057805 196.50836223514094,160.19483622350674 196.4812331406551,159.8791522161671 196.47136801541427,159.68678227397058 196.4590366088632,159.627591522452 196.42820809248556,159.60292870920287 196.0644315992293,159.45001926819023 196.0262042389945,159.43522157996148 195.99167630057804,159.41549132970027 195.96084778420038,159.39082851645114 195.793140655106,159.15899807365872 195.73271676307928,158.97649325640904 195.6131021194605,158.8630443161393 195.29125240855134,158.64601156106116 194.95707129101763,158.43884393085634 194.60562620423892,158.2464739885863 194.3084393063584,158.06396917155712 194.19868978805394,157.98998073232426 194.13210019267822,158.06396917155712 192.96554913294798,158.33526011560693 189.94928709055876,158.39938343003996 189.67306358381504,158.4092485553543 188.57556840084422,158.43391136808893 187.4571098265896,158.3056647401049 185.98227360308286,158.14782273632483 182.8106358382238,157.98998073232426 181.5552986512524,157.91599229331192 180.36408477849355,157.94065510604653 178.94843930635838,157.89626204275672 177.66104046242774,158.0195761082673 176.762080924929,158.2662042392885 175.732408477842,158.66080924862842 175.18612716770355,158.87784200414757 173.96531791907515,159.4450867052023 172.74327552986512,159.90874759174267 171.90720616577678,160.25402697502534 171.26473988446656,160.45132947998928 169.72084778420037,160.89526011582743 169.07838150289018,161.01857418133804 167.85510597302505,161.04323699458715 166.66512524084777,161.01857418133804 165.53926782273604,160.92485549132948 164.66990366088632,160.826204239068 163.5107514450867,160.65849711004708 162.577263969245,160.48585741847927 162.09510597302506,160.2688246632541 161.18751445086704,159.6078612719703 160.95568400770713,159.43522157996148 158.3907514450867,155.7308670520966 156.5521387283237,153.37803468215444 155.9922928709056,152.78119460537715 155.57302504824307,152.31260115628987 155.0242774567209,151.94265895975806 154.6099421965318,151.77988439328408 154.00693641625847,151.62697495227144 153.49025048169557,151.46913294827087 153.2497880539499,151.40500963398486 153.05001926789623,151.35568400800113 152.1152986513259,151.1682466282045 151.00423892100193,151.07452793871047 150.03992292878254,151.04000000022052 148.0286705202312,151.2077071292414 146.8103275529865,151.331021194752 146.21842003853564,151.48393063620566 145.55745664739885,151.6417726397652 143.49317919082495,152.81572254357312 143.00115606943766,152.78119460537715 141.72362235067436,152.32246628153072 141.6447013488211,152.7368015418668 140.68161849710984,153.27445086741952 139.51506743737957,153.98473988446656 137.04015414265538,153.94034682095625 136.1522928709791,154.04886319867907 134.84516377649325,154.26589595375722 132.96339113680153,154.95645472105758 131.14574181117533,156.16493256291443 128.54874759152216,157.98504816977734 126.85811175337187,159.21818882488333 125.80007707129094,159.99260115643688 125.66073217726397,160.4315992292871 125.06142581888247,162.868285163997 124.3474373795761,163.55884393078284 123.50766859359594,163.9633140655841 123.36339113687504,163.95344894034326 118.57263969171484,162.30104046264825 116.94242774566474,160.29842003853565 115.01132947976879,159.49441233170054 114.96077071290944,159.49934489439448 113.79052023128737,158.56709055884036 110.8630443159923,153.73811175344537 110.09603082858987,152.56909441255192 109.5633140655106,151.63190751452436 103.36308285163777,151.21757225448226 101.49487475922572,151.138651252482 100.32585741811175,151.03506743745308 100.05949903660887,150.4184971099001 100.02620423899451,149.64901734111396 99.653795761079,149.4073217730807 99.28878612716763,149.6144894028445 99.17657032755298,149.4714450870727 99.0742196532527,149.3678612718233 98.82019267822736,149.13109826604295 98.54766859344895,148.8894026977892 98.28870905595019,148.65263969200885 97.99645472069007,148.3813487477385 97.81888246628131,148.20377649347677 97.57348747591521,147.97687861271677 97.31082851637765,147.7351830446835 97.06666666674016,147.51321772661743 96.81633911368016,147.27152215814314 96.54628131028545,147.03969171513023 96.30335260115606,146.79306358410903 96.01726396924498,146.5563005783287 95.76816955684008,146.3096724473075 95.51414258196175,146.07290944130665 95.27244701356098,145.82628131028545 95.03198458581531,145.59938342974596 94.79398843930636,145.35275529872476 94.56215799614644,145.12092485571182 94.33649325626205,144.86936416192322 94.09479768786127,144.62766859366945 93.87036608870548,144.39090558766858 93.64470134882109,144.14921001963532 93.3980732177999,143.90258188861412 93.16500963391137,143.66088631984584 92.91591522157997,143.40439306358383 92.64092485549133,143.13803468230142 92.38443159930279,142.91113680154143 92.35360308292513,142.89140655128023 92.17603082851637,142.81248554950045 91.79745664739885,142.67930635874902 91.41148362235067,142.58065510619352 91.00701348747592,142.4918689791729 90.59761079005423,142.40801541447868 90.21410404624278,142.29949903697636 89.99953757225434,142.2255105974495 89.84046242774566,142.17125240847784 89.7023506744473,142.10219653193892 89.66658959544922,142.08739884415112 89.56917148369585,142.02820809270605 89.36447013494826,141.82597302541566 89.1252408477842,141.54974951837792 88.98712909441232,141.36231213887532 88.94766859352244,141.30805394990367 88.85025048176907,141.20447013487475 88.78242774566473,141.12554913331547 88.74296724477485,141.0663583818704 88.57402697495183,140.7802697495918 88.43961464361878,140.54843930657887 88.33849710982659,140.3018111755577 88.16339113680154,139.9762620427567 88.15229287097908,139.94173410426674 88.05240847784201,139.77402697524585 87.98581888246628,139.63098265925353 87.9697880539499,139.51260115621636 87.97225433533362,139.44847784222435 87.99445086705202,139.38928709070578 88.00554913294798,139.2067822736766 87.9081310211946,138.984816955684 87.78605009641261,138.83190751467137 87.75522158003497,138.80724470142223 87.53078998087918,138.6740655106708 87.41980732177264,138.5704816956419 87.16701348747591,138.33371868986154 86.88092485549133,138.1364161851181 86.78104046242774,138.07722543359952 86.64539499043958,138.00323699458716 86.61086705209662,137.98843930635837 86.4000000000735,137.97857418111752 86.3580732177999,137.97857418111752 86.31984585741812,137.9933718693463 86.28531791907514,138.00816955706057 86.24955684015057,138.02789980761577 86.16447013487476,138.09202312160778 86.13857418111753,138.11668593485692 86.11884393063583,138.14628131035894 86.03375722550703,138.2153371871184 85.93387283236994,138.2597302506287 85.89934489402698,138.27452793863696 85.51953757225434,138.37811175359238 85.39499036608863,138.402774566621 85.35306358381503,138.41263969208234 85.27290944123314,138.4274373796496 84.96462427745665,138.44223506787839 84.92023121394634,138.44223506787839 84.87953757240133,138.45210019289874 84.80554913294797,138.47676300614785 84.4578034682816,138.58527938365017 84.4195761078998,138.60007707165846 84.37888246628131,138.60994219689928 84.34188824662813,138.61487475915223 84.26420038535646,138.63460500985443 84.22597302512168,138.6494026976422 84.18527938350317,138.65926782310353 84.06073217733747,138.65926782310353 83.97441233148005,138.65433526040962 83.93618497109827,138.6494026976422 83.81533718697138,138.6296724471605 83.70805395005067,138.5902119461236 83.64516377656676,138.55075144516022 83.45032755306,138.2597302506287 83.43183044315992,138.12655106009777 83.42319845857418,137.83552986534573 83.37633911368016,137.54450867081422 83.25055876693284,137.268285163997 83.10628131028545,137.03645472076357 82.96570327552986,136.8539499037344 82.88184971098266,136.72077071298295 82.86335260115607,136.686242774934 82.83622350674374,136.58265895997857 82.8288246628866,136.50867052023122 82.82635838150289,136.33109826596944 82.80292870912938,136.26204238921002 82.7856647398844,136.22751445094056 82.60685934496753,136.0104816959359 82.38982658959537,135.72932562664525 82.35283236994219,135.66520231235924 82.31830443159923,135.615876686155 82.28500963391137,135.58628131057944 82.01001926782274,135.41857418133804 81.73502890188111,135.19167630087205 81.68570327552986,135.13248554935345 79.14050096339113,135.06342967259403 77.52138728331049,135.19167630087205 75.83321772639691,135.31499036638263 67.25919075151859,135.9315606939356 67.33811175351887,136.01541425818883 66.93980732177263,136.04500963413187 66.85225433526011,136.05487475944622 65.99522158003496,136.11899807343823 65.5056647398844,138.26466281332262 64.63383429679797,138.87136801563477 62.94073217726397,139.65564547242917 62.02080924855491,139.28077071320345 59.27707129094412,138.74312138765075 57.577803468208096,138.3189210023678 56.65911368015414,138.24986512560835 55.92169556840077,136.9378034685021 55.54682080924856,136.49880539499037 53.95606936416185,136.0302119464176 53.0373795761814,135.680000000147 52.15938342974595,135.48269749562405 51.72655105973025,135.38404624284806 51.77464354535289,135.7046628133961 52.35421965325269,136.459344894468 52.51329479776136,137.3965317920545 52.81418111753372,138.531021194899 53.253179190824945,139.30050096346463 52.313526011634195,141.66813102141512 46.56092485549133,149.6736801543631 46.468439306358384,149.8019267823471 44.1193063583815,149.40238921009276 42.96631984593092,149.451714836591 38.81063583822379,149.79206165710625 36.972023121534285,149.82658959537574 35.66489402697495,149.85125240862484 34.19992292870906,149.6539499041019 28.574335260115607,148.50466281324913 27.40655105973025,148.46026974951832 26.020500963391136,148.53425818919217 22.672524084851922,148.91899807329122 22.551676300578034,149.35799614658245 16.071522157996146,147.39483622365375 13.79267822743381,146.13703275529866 12.304277456647398,144.46489402734247 10.929325626204239,144.60300578042032 10.605009633911369,144.63753371868978 10.584046242774566,144.5734104049183 10.545818882539782,144.47969171490973 10.521156069511164,144.28238921038678 10.508824662813103,144.2478612718968 10.427437379649609,144.15907514487617 10.39660886327196,144.12947976885962 10.358381502890174,144.0653564548676 10.341117533792191,143.90751445086704 10.354682080924855,143.84832369978946 10.374412331406552,143.80886319860556 10.485394990366089,143.70034682110324 10.51252408477842,143.6707514450867 10.549518304431599,143.6115606940826 10.566782273676584,143.5425048173232 10.553217726396918,143.5030443160658 10.352215799614644,143.36986512531436 10.325086705275814,143.34520231250625 10.305356454867619,143.3156069365632 10.299190751518587,143.23175337223648 10.3016570327553,143.1922928710526 10.412639691788337,143.0097880540234 10.511290944123314,142.88647398851282 10.540886319919359,142.85194605046385 10.606242774566473,142.7434296725205 10.61980732177264,142.70396917170413 10.630905587668593,142.5757225434996 10.617341040535928,142.4968015414993 10.519922928782556,142.21071290966174 10.294258188898164,141.94928709092628 10.058728323846424,141.69279383466423 9.821965317992577,141.38204238957752 9.760308285237278,141.19953757262184 9.752909441233141,141.12061657062156 9.767707129094413,141.08115606936417 9.743044315992293,141.05156069386211 9.464354527938342,140.84932562635123 9.14990366088632,140.66188824706913 8.82805394990366,140.50404624306856 8.493872832369942,140.31167630079852 8.202851637838434,140.11930635852852 7.951290944196815,139.89240847820952 7.7626204238921,139.69017341047814 7.511059730250482,139.53233140691856 7.1990751445086705,139.3350289017341 6.942581888246628,139.11799614665597 6.910520231213873,139.08840077071292 6.836531791981016,139.03414258218226 6.6022350674373795,138.84177263969173 6.576339113680154,138.7973795761814 6.535645472061657,138.78751445116106 6.4961849711717665,138.77271676315277 6.414797687934772,138.7381888246628 6.027591522157996,138.58034682088274 5.9647013487475915,138.531021194899 5.884547206165704,138.47183044315992 5.679845857491613,138.22520231213872 5.647784200385357,138.19067437386926 5.614489402697495,138.16107899836723 5.418420038609146,138.0525626207914 5.314836223580245,137.9933718693463 5.275375722543353,137.9736416185706 5.240847784200385,137.95884393085635 5.134797687934773,137.8897880540969 5.099036608936699,137.87005780383572 5.03121387283237,137.82073217733748 4.714296724543636,137.5149132950182 4.6637379577577915,137.4557225437936 4.444238921001927,137.17949903697638 4.387514450867052,137.11044315999644 4.1803468208827494,136.86381502897524 4.153217726470418,136.82435452801184 4.050867052096622,136.74543352601157 3.9892100193413236,136.686242774934 3.94111753371869,136.6270520234889 3.9189210019267824,136.59745664747234 3.8708285164511502,136.54813102148862 3.8091714836958515,136.51853564547207 3.746281310211946,136.49387283244343 3.5958381502890173,136.4396146439128 3.556377649325626,136.4198843932106 3.297418111753372,136.37549132947976 3.158073217799898,136.33603082895738 3.0532562620423893,136.32616570364303 2.648786127241131,136.31136801570827 2.598227360455287,136.30643545294083 2.552601156069364,136.29657032769998 2.51437379583458,136.29163776515307 2.472447013487476,136.27190751445087 2.3368015414258188,136.24231213894882 2.2147206165703275,136.2373795761814 2.1678612716763004,136.23244701370797 2.1148362235802445,136.22751445094056 2.024816955684008,136.1929865128916 1.9902890174145413,136.16832369964246 1.9150674373795762,136.10420038542995 1.8534104046242774,136.06967244738098 1.8176493256262043,136.05487475944622 1.7263969171483622,135.99568400792762 0,133.62312138772424 0.1553757225433526,133.51953757247483 0.48215799614643545,133.34196531821308 0.8040077072025953,133.16439306365731 1.1209248554913296,132.9966859348569 1.4526396917148363,132.8289788056155 1.6746050096339113,132.72539499066008 1.7165317919075145,132.7056647401049 1.9717919075144508,132.5626204238921 2.3109055876685933,132.37518304461 2.6253564547206167,132.19267822736032 2.9435067437379576,132.01510597309854 3.2653564547941176,131.82766859381644 3.5810404624277457,131.6352986515464 3.890558766859345,131.45772639728466 4.229672447013487,131.27028901770854 4.570019267896237,131.08285163776495 4.889402697568684,130.89541425848282 5.108901734177548,130.76716763042532 5.186589595449224,130.722774566474 5.424585741811176,130.5797302504817 5.7710982658959535,130.45148362242418 9.197996146435452,128.18250481724968 13.657032755298651,128.41926782303003 13.886396917221862,128.32061657076855 14.253872832369943,128.16770712924142 14.389518304505101,128.06905587675945 14.627514450867052,128.00986512524085 16.572177264042672,127.49687861271676 18.453949903734387,127.14666666666666 20.648940269749517,126.801387283384 22.70335260122957,126.48570327560337 23.233603082851637,126.40184971135017 24.65294797687861,126.95429672483763 26.75791907514451,127.47221579968814 28.020655106046526,127.45741811219438 29.141579961611356,127.41795761093698 29.796377649325628,127.3587668594184 30.13795761086348,127.20092485585883 30.69657032762649,126.85564547213515 31.006088632058088,126.37225433533362 31.864354528011845,126.71260115614287 32.73865125240848,127.1959922931649 33.39468208099836,127.59552986519874 33.95576107907157,127.5264739886598 34.67098265895954,127.18119460515663 35.0137957611525,127.41302504839005 35.40470134882109,127.7928323702362 35.546512524084775,128.00493256298793 36.06443159922929,129.10489402734245 36.3776493256262,129.50936416207023 36.76732177263969,129.78065510634053 37.25071290944123,129.69680154164632 38.370404624277455,129.0555684008442 41.20046242781917,131.74874759181617 41.544508670593736,132.05456647406194 41.90211946050096,132.0890944125519 42.41633911368015,131.97071290958823 42.7566859345629,131.6500963395547 42.56801541425819,127.17132947991578 42.278227360381784,124.93687861293726 41.55560693641618,119.54558766896095 42.48292870905588,117.82905587705343 43.25857418111753,116.80801541447869 44.20562620431242,115.85603082888389 45.81857418119103,114.34666666681368 46.74959537579604,113.43414258196175 47.29217726396917,112.58080924892242 47.445086705202314,111.90504816985084 45.13911368015414,112.02836223536144 40.96616570327553,112.3095183046521 38.582504816955684,112.09248554913295 36.524393063657314,111.92971098309997 36.19514450874402,111.7521387285442 34.60315992300221,110.95306358403553 32.79044315992293,109.48809248562263 32.662196531791906,109.55221579990865 32.262658959537575,109.15761079012773 31.556069364235352,108.72354527982444 30.848246628131022,107.71236994249054 30.601618497109826,106.59267822765432 30.76932562627774,105.26088632028686 30.776724470134873,104.86134874773852 30.83098265903304,104.22998073239776 30.865510597302507,103.81564547213516 31.478381502963675,102.55784200429457 31.953140655105972,101.34443159944979 32.467360308285166,100.31352601185469 32.43776493256262,99.26782273603082 32.61533718689788,97.56115606958467 33.25410404624277,96.45626204253621 33.478535645472064,95.46974951845144 33.3206936416185,92.3474373796496 31.88655105973025,91.60755298658603 31.63005780346821,91.1241618500785 30.13549132947977,88.99822736038179 29.12554913302148,87.6565703277735 28.199460501036892,86.65526011568043 27.70990366088632,86.03375722587454 26.892331406551058,85.25441233155355 26.851637764932562,84.76115606951116 27.046473988439306,84.50466281324913 27.10936416184971,84.45040462449796 27.380655105973027,84.23830443196674 27.449710982732462,84.19391136823592 27.212947976952112,84.15938342996645 26.86890173417755,83.87822736045528 26.730789980805678,83.75984585763861 26.51005780354171,83.52308285193178 26.358381502890172,83.31591522165347 26.196840077144792,83.02489402712196 26.120385356601723,82.81279383437023 26.11791907514451,82.77333333355384 26.10805394990366,82.4773795763284 26.09202312138728,82.39352601178119 25.70728323699422,82.74867052059872 25.07961464354528,82.97556840084421 24.64801541425819,83.01996146457503 23.94019267830086,82.61549132984727 23.056030828516377,82.67961464383929 22.120077071290943,82.68947976885963 21.1200000000735,82.96077071312995 21.126165703422533,82.9114450868522 15.326705202312139,79.22682080954256 15.81626204238921,77.54974951837794 16.071522157996146,76.51391136830942 16.314450867052024,75.1870520231949 16.561078998073217,73.71221579983515 16.859499036608863,72.28670520245915 16.960616570327552,71.65533718689788 17.199845857491614,70.59483622380074 17.247938342967245,70.39753371876328 17.419344894026974,69.70204238943052 17.558689788127452,68.95229287112609 17.615414258262327,67.2604238924677 17.40208092485549,66.23938342989295 17.262736030828517,65.37125240884535 17.146820809248556,64.54751445123456 17.224508670593732,63.62019267822736 17.510597302504816,62.61888246635481 17.495799614643545,61.785279383797175 17.313294797761362,60.72477842040604 17.233140655105974,60.21179190766145 16.960616570327552,59.600154142875894 16.585741811175335,58.746820809542555 16.43159922928709,58.0118689791729 16.09495183051666,57.09934489439448 15.736107899880823,56.58142581910297 15.207090558913862,55.62944123350816 14.129325626204238,54.711984586182815 13.671830443159923,53.99183044338042 13.165009633911367,53.35552986556625 13.298188824662812,53.07930635874901 13.377109826663096,52.77842003853564 13.24763005787697,52.30489402719545 13.209402697495182,52.03853564547206 13.430134874759153,51.540346821176755 13.523853564547206,50.66728323706772 13.57811175344537,50.55876685934489 13.648400770786411,50.24801541455219 13.679229287164059,50.183892100560186 13.703892100192679,50.124701349041594 13.729788053949903,50.055645472061656 13.785279383429673,49.764624277530146 13.791445086705203,49.52292870949688 13.784046242774567,49.20724470171625 13.737186897954041,48.906358381943896 13.675529865198742,48.68932562642474 13.615105973025049,48.373641618644115 13.565780346820809,48.18127167637408 13.467129094412332,47.88038535660172 13.324084778420039,47.55976878656817 13.257495183044316,47.38219653201241 14.623815028901735,47.357533719057294 16.065356454720618,47.170096339481184 17.0111753371869,47.046782273970585 18.577263969244985,47.04184971127666 19.318381502890173,46.6768400774388 20.26296724484835,45.94682080968956 20.83884393063584,45.67059730265182 21.990597302504817,45.39437379612858 22.86489402697495,45.31052023158138 26.253564547279666,44.98990366110682 26.35591522165346,44.99483622358024 26.354682080924857,44.896184971098265 26.408940269749518,44.73341040484478 26.427437379649607,44.63475915258331 26.51622350674374,44.33387283273745 26.507591522157995,44.028053950271165 26.41757225440876,43.73210019275173 26.296724470134876,43.44107899822022 26.209171483622352,43.12539499043959 26.178342967244703,42.81957610812031 26.15491329487119,42.51868978812745 26.116685934489404,42.22273603112252 26.05626204238921,41.941579961831856 25.979807321846142,41.71468208107186 25.8885549133683,41.418728323772925 25.87868978812745,41.1868978805395 25.928015414258187,40.9797302507757 25.963776493256262,40.91560693648969 26.156146435526296,40.59005780368871 26.15491329487119,40.39768786171268 26.119152215873115,40.274373796202084 26.104354528011843,40.190520231213874 26.051329479768786,39.99815028916434 26.041464354601437,39.95868978842145 25.828131021194604,39.67753371891029 25.71961464369228,39.58381502890173 25.874990366088632,39.32732177263969 25.98350674373796,39.164547206606706 26.674065510670804,38.52824662849853 26.956454720690072,38.4197302505552 27.349826589595377,38.30628131028545 27.799922928782557,38.345741811542844 28.644624277456646,38.621965318066074 30.055337186971382,39.36184971112966 30.670674373795762,39.69233140662456 32.37857418126453,40.447013487475914 34.285009633911365,41.295414258262326 34.3540655105973,41.290481695788905 34.73510597309855,41.61603082881038 35.228362235140935,41.837996146582455 35.50211946057446,41.690019267822734 36.04840077071291,40.733102119754506 36.557687861271674,39.98828516392349 37.06944123321416,40.41741811197387 37.42458574181118,41.04385356476771 37.518304431599226,41.551907514818375 38.01156069364162,42.119152215873115 38.42466281317562,42.31152215836365 38.995606936489686,42.41510597339255 40.01911368015414,42.84423892136943 40.46797687861272,42.36578034689431 41.194296724543634,41.93171483659101 42.76408477842004,41.34473988454007 44.25495183044316,40.81695568400771 45.72608863205809,40.008015414625696 46.02944123321416,39.55421965339969 46.02820809248555,39.504894027121956 46.031907514450864,39.445703275603364 46.15028901734104,39.13988439335759 46.26003853571898,38.83899807358523 46.41171483622351,38.56277456654749 46.58928709063227,38.29148362271818 46.81741811175337,38.01032755320701 46.99992292878256,37.7390366092307 47.14173410404624,37.46281310219296 47.27121387283237,37.28030828545778 47.29587668593449,37.24084778420038 47.410558766859346,36.93502890210161 47.55730250481695,36.63414258188825 47.74350674373796,36.35298651259759 47.92107899814672,36.071830443527425 48.03576107899807,35.77094412331407 48.191136801541425,35.48485549154998 48.308285163776496,35.1987668597124 48.41803468215443,34.897880539499035 48.564778420038536,34.577263969465484 48.62026974951831,34.50327552993863 48.68315992292871,34.44408477871404 49.00747591522158,34.24184971142366 49.37495183051666,34.12840077093341 49.45387283236994,34.10373795768429 49.575953757225435,34.059344894173975 49.797919075144506,33.916300578402186 49.879306358381506,33.87684007714479 50.0433140656576,33.83244701363448 50.084007707202595,33.82751445116106 50.18265895953757,33.783121387650745 50.26774566481338,33.654874759152214 50.412023121460784,33.373718689861555 50.48601156069364,33.10242774603224 50.562466281310215,32.78181117555769 50.715375722616855,32.47599229301791 50.864585741884675,32.19483622350674 51.03105973025048,31.90874759174266 51.20739884393063,31.632524085145924 51.396069364161846,31.356300578181685 51.63159922928709,31.119537572401338 51.724084778420035,31.065279383429672 51.56377649332976,30.823583815396407 51.43799614643545,30.685472061877537 51.2,30.463506744105462 50.971868978878895,30.241541426039387 50.687013487475916,30.00477842033254 50.430520231213876,29.787745664813386 50.12223506743738,29.634836223800747 49.800385356528224,29.457263969244984 49.47606936416185,29.269826589742376 49.192447013487474,29.05279383473773 48.984046242848066,28.806165703716534 48.7633140655841,28.549672447380992 48.5166859345629,28.327707129167912 48.167707129167916,28.150134874906154 47.81132947976879,28.051483622644678 47.46481695568401,27.898574181338038 47.10967244701349,27.780192678374362 46.75082851637765,27.627283237361723 46.39321772639692,27.484238921075427 46.20701348747591,27.355992293091408 45.91722543359951,27.099499036829364 45.59167630057804,26.926859345041027 45.53371868978805,26.907129094559334 45.37464354527938,26.877533719057293 44.6976493256262,26.379344894026975 44.348670520304715,25.47175337194248 43.831984585741814,24.677610790348236 43.27090558774209,24.041310212313554 43.180886319845854,23.85880539528437 42.9416570328288,23.271830443233423 42.70119460500963,22.497418112120876 42.48292870905588,21.703275529865124 42.2202697495183,20.938728323772924 42.154913294871186,20.687167630278307 42.217803468281595,20.371483622497678 42.36824662813102,19.96208092492899 43.05263969171484,18.215953757298934 45.20693641625847,15.039383430039951 48.81757225433526,11.848015414258189 52.74389210019268,8.296570327699989 59.492870905587665,6.747745664813385 60.765472061730534,6.165703275529865 61.89626204246271,5.25811175344537 62.823583815028904,4.03976878634767 63.178728323699424,2.4416184971833275 63.2354527938343,2.1210019269292752 63.20955684007707,1.5685549133682986 63.13680154142582,0.7102890175615432 63.129402697568686,0 67.70558766859345,2.2985741811910345Z"/></svg>