<svg xmlns="http://www.w3.org/2000/svg" width="256" height="256"><path d="M139.2260026228223,0.5268610466251098 139.37950537146253,0.5743973816696062 139.67363644460937,0.5743973816696062 140.0212458945042,0.5783587428642853 140.2846764178758,0.6021269105636201 140.55801034438164,0.7843495280571027 140.70061934957417,1.0814516220852048 140.71745513490242,1.263674239755774 140.8382766530815,1.3112105750363858 141.20668324967633,1.560776333783876 141.69492102425488,1.972757904169511 141.94547712349288,2.1510191606454008 142.23960819663972,2.182710050734094 142.6208892172501,2.186671412046831 142.90511688720366,2.1985554955718394 143.29729165132073,2.3570099458382185 143.86574699128687,2.559039369718299 144.74913055092279,2.911600521357342 146.66048735571886,3.6404909919805903 147.53594819278834,3.901940834784349 149.07988874142103,3.7830999970550505 149.25220795595735,3.7989454420698823 152.17668290162536,4.064356646245407 152.60450991696678,4.191120206305035 152.73523483828012,4.226772457706465 155.5695888153082,5.0507355984777345 156.05188454794717,5.1299628234338375 156.83128237473227,5.530060309999319 156.94517151065833,5.561751200265099 157.2402929240596,5.688514760088611 157.32942355232703,5.747935179071319 157.54729842122194,5.922235074175442 157.8008255415183,6.096534969161509 157.8681686827723,6.140109943247442 159.8547913515659,7.578084078343456 161.0323059841716,8.996251406993842 162.4890965852227,10.53325957337353 166.51185893848128,13.179448891086606 167.07833359764345,13.551816848758074 167.80821440863917,13.444860094907957 170.39696398793737,12.422828891392257 171.5120871809152,12.141572242615103 172.5618479130888,11.872199677303929 175.68736194226443,9.618185123766974 176.88369304088425,8.754608370576682 179.86065602310487,6.607550571066931 180.503386886519,6.144071304442122 183.13967280080266,8.021756538758755 186.1592204164416,9.935094024181675 186.21170845305323,9.966784914034251 195.22182462461214,15.675106480686548 194.81083339465798,16.122740302473613 197.8967338112375,18.13115045822164 198.40378805171213,18.519363861085026 199.74668951666013,19.54139506442364 200.91132972525028,20.678305744237843 203.62486218415836,24.112805951025617 204.0061432047097,24.592130662901376 204.35276231440915,24.60797610773912 205.0469908741805,24.635705636633134 205.5352286487,24.659473804332467 206.97518346442288,25.130875793346636 208.18934068862538,25.58247097632838 208.31313322780375,25.63000731137288 208.3626502434751,25.649814117759476 208.38344739005706,25.69338909131415 208.3913701125645,25.74488678778944 208.36066956290728,25.764693594176038 208.2715389346398,25.81619129041521 208.23588668335643,25.83203673525296 208.1982537514462,25.84392081913214 208.16062081953598,25.847882180444877 208.01900215477494,25.847882180444877 207.95859139559687,25.863727625518738 207.93086186682092,25.875611708984717 207.91699710243293,25.92710940540098 207.91996812343226,25.96276165686144 207.9377942490149,26.002375269044347 208.01504079352125,26.12913882928106 208.12397822793918,26.354936420683387 208.19330204987907,26.620347624799884 208.21409919646104,26.877836106290907 208.25569348962497,27.135324587899987 208.3378917356394,27.365083540496993 208.4696069973252,27.602765215719476 208.59934157838416,27.824601445986154 208.79939032181446,28.03059223117897 208.92318286099282,28.165278513746014 208.9598254525306,28.20093076497036 208.98557430062067,28.228660293864372 209.00934246820196,28.284119351475315 209.00141974569453,28.33165568651981 209.03410097603762,28.466341968909767 209.03410097603762,28.581221445503417 208.9568544315313,28.680255476846117 209.1866133843054,28.890207623174582 209.3569519181558,29.0961984083674 209.52134841024372,29.33784144502068 209.57680746773661,29.43687547636338 209.77685621110788,29.62305945499251 210.02741231034588,29.78547526645357 210.27400704838922,29.92808427152803 210.5691284618495,30.08653872179441 210.85731749305674,30.233109088063546 211.05637589605558,30.34402720328543 211.08410542483153,30.36383400967203 211.1514485662036,30.431177150748947 211.1682843514138,30.454945318507313 211.1900718383092,30.502481653551808 211.23562749272685,30.51436573707682 211.28712518908407,30.510404376059224 211.34456492726284,30.494558930867306 211.3980433041879,30.490597569731655 211.43369555541224,30.48267484716521 211.47429950826276,30.439099873256364 211.505000058038,30.39948626089637 211.63077327778421,30.28856814567449 211.65652212593332,30.27272270083674 211.71198118354425,30.25291589427306 211.82587031952934,30.229147727104984 211.857561209559,30.22518636555613 211.89618448178265,30.22518636555613 212.11504969105002,30.244993171942728 212.40323872225727,30.256877255821912 212.4507750573608,30.260838616780475 212.74292544982177,30.280645423167073 212.96773270091066,30.28460678447981 213.10638034484947,30.28460678447981 213.14698429764096,30.28856814567449 213.4460670722959,30.359872648123176 213.61145390463824,30.375718093315093 213.70256521347352,30.367795370630592 213.74415950663746,30.367795370630592 213.78575379980137,30.36383400967203 213.83130945421902,30.34798856442108 213.89370089396493,30.320259035940268 214.20961945394814,30.752047412535415 214.67408906100442,31.025381338805154 215.1504427517038,31.12837673151962 215.58025044773112,31.08876311892351 215.82090314389387,31.049149506563516 215.93083091868428,31.017458616297738 216.62208845751536,31.15214489886478 217.0013887975579,31.32644479420502 217.2301574099005,31.140260815162687 217.36583403295808,31.05311086752208 217.6144094515102,30.918424584955037 217.61936115307734,31.005574532772727 217.8164388754493,31.207603956475722 218.58989466029482,31.956301233662654 218.7948951051152,32.14644657384064 218.93057172805467,32.3682828038712 219.02168303688995,32.62180992416754 219.17716646615705,32.85553023807729 219.536659999872,33.33485494995305 219.7991001829892,33.798334216400775 220.14373861200275,34.562876938602535 220.23683060152393,34.78867452982778 220.35864246001643,35.537371806837626 220.4497537688517,36.00481243465711 220.60127583680605,36.230610026236526 220.67059965880497,36.47225306265369 220.73200075823743,36.614862067905236 221.07069714542948,36.614862067905236 226.80476756011282,37.240757146050136 226.90776295270922,37.25264122992932 228.54875685205778,36.48413714653287 228.67750109280328,36.42867808892193 228.71018232314637,36.41283264408418 228.7220664069075,36.47621442402546 228.83892656389187,36.55544164898156 229.13107695635284,36.42867808892193 229.794604966467,35.94935337740035 231.11373826389274,36.6901279315486 231.77429525294855,37.10210950193424 231.8158895461125,37.216988978468855 231.8832326873665,37.157568559545176 232.15755695424482,38.17959976323797 232.35364433624434,38.385590548430784 232.90031218931506,39.035253794097926 232.89635082806137,39.11448101905403 232.9577519274348,39.36404677780152 233.09144786980647,39.60568981439577 233.24296993776082,39.835448767346946 233.42420221505893,40.05332363600575 233.58067598458038,40.279121227585165 233.5905793877737,40.33854164639078 233.5965214295952,40.53660970907618 233.5945407490274,40.74656185540465 232.9943945190316,41.87951117414223 232.9240803567783,42.13699965539714 232.71016684907806,42.57274939354114 232.69630208469007,42.7351652050022 232.54478001673573,42.75893337234736 232.51209878639264,42.766856094854774 232.36156705875175,42.838160597303464 232.14567287048368,43.020383215151114 231.90601051463435,43.18279902661217 231.66139645715884,43.37294436679016 231.6118794414875,43.44028750786708 231.48808690230913,43.6660850994465 231.3484489181159,43.88395996834141 231.20187855172873,44.089950753534225 231.06719226910266,44.31574834493655 230.8879406724314,44.54946865902339 230.6542203584036,44.75942080558797 230.4016835784797,44.94560478439419 230.14320475667526,45.10009787334783 229.8659094689157,45.22290007203569 229.5757397571406,45.37343180003077 229.30042514994886,45.52396352761265 229.0508593910243,45.68241797752486 228.78940954822053,45.83691106647849 228.57054433895317,46.046863213043075 228.34375640717838,46.25285399823589 228.1615337895078,46.48261295077388 228.03080886813544,46.7084105421762 227.9892145749715,46.78763776730939 227.860470334226,47.013435358888806 227.71687098877908,47.25111703399323 227.5564358580039,47.45710781918605 227.41877855443755,47.6789440493937 227.27914057024435,47.92058708604697 227.12167646040945,48.15826876109237 226.99986460191695,48.4038731588813 226.86616865954528,48.63363211177345 226.82952606794848,48.70889797541682 226.75128918318777,48.863391064370454 226.72355965447082,48.90696603810222 226.6166029006207,49.08918865594987 226.4333899425777,49.31102488598044 226.26701276992193,49.52493839385775 226.08379981199698,49.734890540068164 225.91445161840096,49.932958602753565 225.7223255975371,50.13894938794638 225.61140748243326,50.269674309554865 225.65795347716434,50.30532656077921 228.06943214041812,52.127552737307816 234.122392136084,54.31026278821899 237.1488721338579,54.349876400756074 237.25879990870732,54.33006959460559 237.5806605105711,54.29837870433981 237.73416325909326,54.27461053699465 237.80744844234587,54.270649175799974 237.8787529448536,54.27461053699465 237.9124245155101,54.27857189830739 238.23230443680606,54.32214687209817 238.28578281373112,54.314224149354644 238.33827085028372,54.314224149354644 238.41155603347732,54.34591503944334 238.51554176638717,54.41325818069735 238.54030027422283,54.43306498690686 238.6561700908938,54.571712631022756 238.85522849395167,54.76978069370816 238.87998700178733,54.789587500094754 238.91761993369755,54.80147158356073 238.9344557190258,54.825239751319096 238.97902103313004,54.83712383496216 239.1354948026515,54.90842833741085 239.27117142553197,54.93615786630486 239.32464980245703,54.952003311378725 239.59204168708231,55.126303206305764 239.70791150375328,55.233259960332965 239.8247716607967,55.33229399167566 239.9782744093779,55.43925074552578 240.60119846652347,56.136450326119366 241.29047532466868,56.71084770778897 241.60936490553314,56.889108964264864 242.1916850098282,57.06737022097687 243.33651841220887,57.13471336205379 243.4147552969696,57.18621105829296 243.55538362147624,57.26543828366227 243.65639833338676,57.30901325739403 243.70888637011646,57.32882006360354 243.7385965794012,57.33674278611095 243.7673164484906,57.34466550861837 243.82574652698278,57.352588230948705 243.88021524422126,57.35654959249755 243.9327032808329,57.352588230948705 244.33676212871111,57.38031775984272 245.0250486466019,57.49915859757201 245.7212578869411,57.45954498479882 245.89951914335796,57.5189654037225 246.1995922582673,57.62988351876729 246.50065571354912,57.74476299530191 246.68584935215998,57.81210613643786 247.48604432540898,57.77249252384175 248.46549089544735,57.71307210509516 249.76085602540985,57.62988351876729 250.3788283809293,57.550656293634106 251.746488353831,57.94283105798731 252.69523437409407,58.2240877068235 252.736828667258,58.22804906819526 252.77050023797355,58.2240877068235 252.8002104472583,58.21616498431608 252.8279399760933,58.20428090061399 252.85963086606392,58.188435455422066 252.91806094461515,58.14882184323916 252.9457904733321,58.1329763981653 253.03690178216738,58.093362785628216 253.07057335288292,58.0854400631208 253.19634657262912,58.057710534403874 253.24586358830047,58.045826450347604 253.29835162497113,58.0339423668226 253.38451123223928,58.00621283792859 253.61129916401407,57.954715141512324 253.72320761943132,57.92302425165974 253.7568791900288,57.91114016778056 253.78956042043092,57.89925608390138 253.82323199102842,57.895294722942815 254.1787641635487,57.76060844037577 254.88190578614092,57.538772210109094 255.36420151872082,58.51722843971595 255.6523905499281,59.05201220878944 255.5939604714359,59.471916501918614 255.52760767043628,59.79674812460461 255.46620657100382,60.01066163236387 255.42065091658617,60.22061377886943 255.3889600265565,60.390952312660815 255.4176798956459,60.561290846688316 255.44838044542115,60.711822574270194 255.48502303701795,60.88612246937432 255.60980591645074,61.51201754734213 255.7920285341213,62.22506257312763 255.8247097644644,62.45878288721446 255.8257001047778,62.601391892111835 255.7811347906736,62.80738267730465 255.6949751834645,62.98168257264489 255.5672212830324,63.179750635330294 255.22555387490007,63.496659535744996 254.95321028870765,63.69868895938896 254.76900699035122,63.84129796446342 254.50953782823333,64.07105691741461 254.42040720008393,64.23743408983422 254.35504473945676,64.54245890654683 254.36692882315887,64.94651775442505 254.35999644090586,65.45753335621241 254.34117997500977,66.10719660187955 254.38376460848713,66.60236675859306 254.541228718263,67.09753691530656 254.60857185957602,67.85811827578239 254.5560838230234,68.34140434897088 254.48279863982984,68.5988928304619 254.36593848284545,68.77715408658362 254.2470976452342,68.89995628562566 254.05200060343006,69.05841073577398 253.83907743610226,69.16140612825232 253.43798960916433,69.2644015209668 253.13890683445035,69.2445947145802 252.62789123272202,69.09802434831106 252.4357652119762,69.04256529093624 251.88315531708395,68.93164717571435 251.43056979378875,68.91580173069951 251.09979612910413,68.91184036932775 250.76902246447855,68.91184036932775 250.389722124377,68.98314487177645 249.81532474264833,69.2445947145802 249.58754647056014,69.4426627772656 249.41225623502453,69.79126256770996 249.22607225610025,70.55976665075224 249.0438496384887,71.25696623169999 248.93194118307144,71.77590455575866 248.944815607146,72.0096248696684 248.99433262281735,72.18392476500864 249.38749772718884,72.92469931927495 249.547932857964,73.19407188476322 249.67568675851416,73.43175355969055 249.74699126096286,73.6813193189693 249.69648390497807,74.13291450159687 249.56575898360572,74.92122539137992 249.44889882662133,75.55504319179612 249.3270869680698,75.91156570480692 249.2122074917713,76.11359512845088 249.0725695075781,76.33146999752289 248.95669969090713,76.51369261537054 248.83092647104286,76.69987659399968 248.72595039787865,76.81079470939865 248.30109440341846,77.0049014105352 247.99210822568824,77.2306990021146 247.71283225718378,77.47234203853176 247.7831464194371,77.75359868754504 248.10797804224114,78.41118465571961 248.10995872286802,78.7795912521964 247.9445718905257,79.29060685392473 247.85346058169043,79.74616339845532 247.84058615761586,80.37998119869444 247.08693717915693,80.71273554430105 246.4729261848322,80.92664905206031 247.02355539903857,83.5134179504365 247.44841139349876,84.21061753120718 248.00399230939036,85.12569198063665 248.0653934088228,85.25245554087337 248.15848539822593,85.52182810600745 248.25850976988207,85.76743250397347 248.2852489583446,85.83081428409183 248.3407080158965,85.85062109030133 250.37585736004803,86.61912517328457 250.40655790970524,86.61120245077716 251.42660843253506,86.48047752975897 251.43255047447465,86.44482527835754 251.6702321496381,86.40125030438966 251.69895201872748,86.25467993817955 251.85146442699525,86.28637082803213 252.1089529085453,86.32202307925647 252.07528133782975,86.13187773925557 252.11192392942655,86.12395501657107 252.26542667800774,86.09226412671849 252.35158628527589,86.22298904791377 252.55064468833373,86.11603229406366 252.75663547352656,86.13980046176299 252.7734712588548,86.1001868492259 252.8002104472583,86.04868915298674 252.9190512849876,86.23487313179295 252.88240869327277,86.40917302713319 252.81704623258656,86.71419784366871 252.59421966206548,87.09448852378857 252.41793908627548,87.0033772151894 252.32385675655894,86.9598022413986 252.28226246339503,87.0033772151894 252.19016081418727,87.05487491142857 251.9009814426666,87.18956119399562 251.76728550041298,87.28463386396655 253.3825305515534,88.36608548622884 253.59347303831333,89.09101459589353 254.1203340850565,90.90135668877907 255.1681141366623,94.49827270696888 256,97.35441417106945 254.77692971285862,99.05779951028195 253.85690356168493,100.33731919522965 248.17235016267293,101.73171835653487 248.0574706863154,101.67625929892394 243.91586749550464,100.74137804310787 232.50219538325837,98.17045458915621 231.99811216384208,98.24968181446648 231.22465637893754,98.37248401321338 231.13552575078813,98.3605999293342 230.08675535886894,98.23383636927457 229.4707636838583,98.26948862049892 228.63986816089306,98.53489982467444 227.69310282131588,98.96668820126958 227.49800577951171,99.20436987649207 227.18307755984193,100.11152160365023 227.09493727200595,100.49181228394717 226.99590324066324,100.66215081773856 226.92360839772405,100.74137804310787 226.85923627741033,100.78495301683962 226.77109598945628,100.86021888042396 226.65423583253093,100.88794840931797 226.54430805768152,100.91963929940667 226.46409049235294,100.9473688281236 226.33633659192085,100.97509835701761 226.21155371242907,100.9949051631681 226.07983845074327,101.02263469206211 225.91049025714725,101.05828694310937 225.8490891577148,101.08205511086773 225.689644367194,101.16128233564675 225.3539190010013,101.3197367860902 225.22517476025575,101.45442306848017 225.1013822210774,101.60495479629816 225.03998112164493,101.71983427247861 224.93995674992976,101.91394097414641 224.87360394893014,102.03674317289331 224.80428012704928,102.14766128787907 224.74981140975177,102.24273395808612 224.67751656693062,102.36157479581541 224.63295125276738,102.48437699450328 224.63493193339423,102.61114055456291 224.64681601715537,102.7299813922922 224.65077737840906,102.81713133975573 224.65572908003523,102.91220401013986 224.70128473445288,103.01123804148257 224.77258923701962,103.11819479533268 224.8607295248556,103.23307427151313 224.9676862787057,103.32814694148406 225.07761405355515,103.43510369533418 225.17862876546567,103.52621500416946 225.26775939373312,103.62921039688393 225.35490934125568,103.74012851210581 225.4905859642542,103.88273751718027 225.54406434117925,103.9778101871512 225.37174512658393,104.22341458494013 225.2301264618229,104.32640997741849 225.08652711631694,104.42544400876119 224.8666715667952,104.57993709789191 224.32693609597746,104.81365741162458 224.16551062488887,104.8810005531147 224.02785332126348,104.91665280433904 223.89019601769712,104.98795730678772 223.8159204941901,105.0790686158001 223.79908470886184,105.1582958407562 223.7525387141898,105.25732987209891 223.67925353105522,105.34051845860385 223.5812098399079,105.46332065729172 223.5148570389083,105.52670243723298 223.20488052080563,105.76042275131982 222.9523437409408,105.94660673030313 222.68891321762823,106.13279070934546 222.42746337482447,106.29124515925767 222.23335667333376,106.39424055197213 222.03429827033492,106.46158369340323 221.81939442232127,106.54873364092578 221.6361814643963,106.57250180827094 221.43514238071157,106.58042453077836 221.27371690962298,106.57646316981979 221.016228428191,106.56854044725334 220.75973028695435,106.56457908594061 220.55175882113468,106.56854044725334 220.37547824534468,106.58834725328578 220.16453575858472,106.63588358838929 220.04866594191378,106.68738128462847 219.90902795772055,106.75076306474683 219.57033157052854,106.8735652638479 219.44356801040988,106.98448337865658 219.2682777749333,107.12709238390812 219.14448523575493,107.22612641525082 219.00979895312884,107.36081269799494 218.85926722554697,107.55491939936762 218.6968514140859,107.75694882336575 218.56414581208668,107.89955782849924 218.42648850852032,108.06989636246772 218.32349311592392,108.2323121737517 218.2383238489692,108.32738484372263 218.06006259255233,108.49376201655545 217.739192331002,108.84632316813546 217.61936115307734,109.08004348186812 217.47279078674916,109.26226609953869 217.37870845691455,109.37318421476057 217.27076136281005,109.49202505248986 217.1588529073928,109.59105908383258 216.99841777661763,109.68613175362641 216.83501162484313,109.74159081123736 216.39232950474127,109.88816117786067 216.11305353635484,109.9753111251471 216.02392290820544,110.01096337654853 215.95162806526625,110.06246107278771 215.9130047931016,110.2129928006057 215.8951786674009,110.33975636084242 215.87240084019209,110.46651992066593 215.8654684579981,110.57743803571073 215.86348777743027,110.73985384717179 215.8436809711027,111.12410588901757 215.7525696622674,111.48855112418163 215.5980765733728,111.7381168831062 215.49310050014955,111.90449405593903 215.32474264686695,112.09860075725267 215.04150531728587,112.33628243253418 214.32053756917003,112.77203217044206 214.21457115551527,112.81164578286108 213.9224207630543,113.00179112321615 213.7382174648159,113.19589782470688 213.6253186690262,113.40981133246613 213.4460670722959,113.60787939515154 213.1301485123127,113.78614065145034 212.6894470728967,113.88517468279304 212.34282796319727,113.95251782386997 211.9120299267975,114.08324274547844 211.57036251866518,114.19812222165889 211.233646812159,114.33280850422594 210.955361184027,114.4912629546694 210.76026414228187,114.6417946823103 210.6354812628491,114.85570818983345 210.56417676028235,114.9903944724005 210.49584327859685,115.1845011740683 210.4077029907609,115.34691698535228 210.20963492807547,115.51329415800801 209.96105950934628,115.65194180188779 209.6491023106758,115.85397122576788 209.44806322699108,115.94904389591589 209.18166168273825,116.04015520475119 208.93308626400903,116.1669187649879 208.73996990289078,116.29368232487043 208.62013872496613,116.4442140526294 208.60627396057814,116.6145525866569 208.59736089775728,116.83638881668746 208.6003319187566,117.00672735047885 208.51813367274215,117.18102724599618 208.31016220686345,117.29590672217662 207.88926757365698,117.3355203347137 207.65158589849352,117.2285635808636 207.5446291446434,117.12952954952088 207.42875932797244,117.01465007298627 207.25445943275028,116.911654680685 207.08808226009452,116.82450473280828 206.89100453772255,116.78092975907653 206.60875754839586,116.82846609435714 206.0927902451004,117.04237960188028 205.79766883169916,117.16914316193991 205.4550110832534,117.31571352856322 205.15097660709034,117.43059300474367 205.0301550887932,117.47812934002428 204.7459274188987,117.58904745483296 204.4874485970352,117.66431331865341 204.17252037742446,117.68015876366825 203.91305121530658,117.72769509877178 203.64962069199402,117.87030410384624 203.5515770008467,118.0208358316052 203.40797765539978,118.17532892038174 203.23466810055004,118.33378337070715 202.78208257737293,118.65069227106282 202.48696116391267,118.83687624992808 202.23640506461564,118.94779436509093 201.94326433184122,119.07851928634524 201.60357760433578,119.20528284658195 201.3441084422179,119.3003555163758 201.0588904319509,119.407312270403 200.85388998707154,119.51426902425312 200.6954355369232,119.66876211302967 200.41913058947708,119.82721656335508 200.07944386203064,119.95794148455036 199.86751103489823,120.06093687726482 199.5912060874521,120.1718549922506 199.18813757994633,120.31842535869681 198.99304053814217,120.35803897129293 198.89004514554577,120.37388441613068 198.83458608799387,120.37388441613068 198.66622823471127,120.36200033242858 198.4612277898909,120.28277310729538 198.2552370046981,120.20750724365203 198.0106229472226,120.12828001869592 197.70361745006022,120.0332073485479 197.56199878529918,119.97774829075988 197.387698890077,119.9143665108186 197.17972742425732,119.86286881457943 196.93709404746772,119.82325520198332 196.64791467594702,119.7955256730893 196.3815131316942,119.79948703463816 196.06460423139754,119.84306200819283 195.76750213736946,119.89059834347344 195.5565596506095,119.9143665108186 195.24361211156656,119.93021195601052 194.96433614312113,119.9341733172052 194.62762043655593,119.93813467851794 194.37805467757232,119.94605740108439 194.15225708611098,119.96586420705778 193.97696685069343,120.02132326466872 193.78286014926172,120.11639593487577 193.63034774099395,120.20750724365203 193.4758546520403,120.28673446884424 193.26392182496696,120.3818071386381 193.09160261043064,120.47291844747338 192.82421072580536,120.55610703397834 192.56177054280622,120.58383656287235 192.29734967912123,120.59175928537977 192.00817030760052,120.57987520132349 191.81208292548294,120.548184311648 191.19906227153066,120.3223867200686 190.96831297850218,120.26296630108588 190.70389211481717,120.19958452114462 190.4424422720134,120.19958452114462 190.26021965434285,120.19958452114462 189.99579879065783,120.24315949511248 189.80565345047984,120.27485038478798 189.54618428836196,120.33030944257601 189.34316452416846,120.36596169380034 189.2718600216017,120.38972986114551 188.98367099039444,120.47687980902222 188.85888811084362,120.53630022759174 188.69350127850132,120.61552745272492 188.53999852992013,120.72248420675213 188.12009423702708,119.81929384084766 188.09830675013168,119.77968022807447 187.978475572207,119.6053803330884 187.82398248337142,119.39146682521108 187.7180160697757,119.2607419041929 187.55659059880517,119.01513750622688 187.44567248358328,118.86064441727324 187.30504415907666,118.70218996736104 187.14758004930079,118.5278900720208 186.52366565184175,117.69600420868308 186.42364128012662,117.48209070098284 186.20081470960554,116.9393842093429 186.05424434327736,116.70170253412041 185.91163533808484,116.52740263878019 185.67692468380264,116.2184164612861 184.85692290434412,115.79058944564952 183.79725876897723,115.33899426266777 183.3268471200994,115.07358305890546 182.85346445022225,114.71309918475899 182.26520230410563,114.18623813813389 182.13843874398697,114.05947457789716 181.97899395346622,113.9485564629114 181.66406573391447,113.67522253622846 181.27288130999275,113.38208180357212 181.20553816873874,113.33058410709683 181.08570699081406,113.23947279826154 180.82920884963647,112.72449583557464 180.7212617554139,112.51850505038183 180.63609248851822,112.36005059987933 180.52814539435468,112.18575070489327 180.4162369388784,111.99560536477432 180.2954154206403,111.81734410841648 180.1637001589545,111.64304421313527 180.6182663628175,111.31425122919556 180.7014549492044,111.08053091493164 180.7212617554139,110.84284924006333 180.71829073453264,110.60120620341006 180.69848392832313,110.35560180568017 180.68164814293584,110.10207468538381 180.665802697862,109.84854756508747 180.63906350939948,109.60294316747563 180.6222277240712,109.36526149225315 180.6331214675189,109.10777301076213 180.67174473974256,108.90178222539222 178.8623929871114,108.01443730485677 178.8247600552602,108.00651458234935 178.79604018617084,108.01839866599242 178.73562942699274,108.05008955608112 178.46031481986006,108.22438945118525 178.41872052669612,108.24419625757184 178.37613589321876,108.25608034109685 178.34345466287567,108.26004170264571 178.30780241165132,108.26004170264571 178.24144961059267,108.25608034109685 178.05427529135497,108.0223600271871 178.0295167835193,107.98670777596276 177.90275322340065,107.79260107441301 177.8245163386399,107.67772159805548 177.73043400892337,107.43607856163831 177.7175595847898,107.36477405901255 177.68586869481916,107.25385594414483 177.67200393037214,107.22612641525082 177.65120678379017,107.20235824755149 177.61555453256585,107.170667357876 177.35311434944865,107.46776945190409 177.25011895685225,107.51926714814327 177.1718820720915,107.5945330117276 176.67374089449675,108.07781908479805 176.58857162760106,108.08574180730547 175.97059927190455,107.8044851581151 175.93296633999432,107.7846783519056 175.69528466477183,107.63018526312904 174.6574080164184,107.16670599632714 174.11668220522822,107.22612641525082 173.88890393314,107.27762411172611 173.78788922111144,107.29346955656386 173.2847963418905,107.37269678151996 172.2419679919109,107.55491939936762 171.73095239018258,107.63810798569548 171.3179804794835,107.68960568193467 170.8891631237696,107.76091018438335 170.48807529677265,107.84806013220104 170.06817100393863,107.92728735715714 169.7017450879116,108.03028274969452 169.12140566424338,108.20458264503476 167.80326270713107,108.61260285404863 166.88620757689765,108.80274819404953 166.78024116330192,108.82651636180789 165.7671230226661,109.04042986950813 165.80277527394946,109.09192756557022 165.81862071908236,109.123618455836 165.8324854833523,109.15134798473001 165.8443695671134,109.1830388744055 165.84932126868054,109.21472976461224 165.84535990742683,109.24642065452386 165.82951446247102,109.28603426729705 165.74632587608414,109.40091374365458 165.53736407001006,109.60294316747563 165.32741192356355,109.80893395266845 164.9461309028351,110.25656777433746 164.82629972491046,110.29618138687454 164.79956053644793,110.30806547057664 164.74014011770132,110.33579499929357 164.47670959432975,110.46255855953028 164.42917325922622,110.48236536591688 164.37866590324143,110.50217217206736 164.3222165053761,110.51405625576946 164.25487336406306,110.52197897845396 163.91518663661662,110.54178578448638 163.61808454258852,110.61309028711216 163.30216598254628,110.75173793105097 163.2754267941428,110.7675833758887 163.25165862662053,110.78342882090354 163.18530582562093,110.81908107248206 163.14173085177111,110.82304243367673 163.10607860054677,110.83096515600707 163.0644843073238,110.83888787851448 163.0407161398606,110.91019238114026 163.02586103510015,110.98149688358895 162.93078836501115,110.99734232878086 162.90503951692108,111.01318777385472 162.87037760589212,111.02111049636214 162.83373501435435,111.03695594119988 162.57723687311773,111.1835263078232 162.46334773713264,111.24690808776447 162.19793653307516,111.40536253785376 162.13059339176215,111.44893751158551 162.09097977928408,111.46874431779503 162.05037582643357,111.48855112418163 161.96223553847955,111.51628065307564 161.63047153348148,111.59154651683707 161.47300742370564,111.65492829677834 161.17689566993192,111.76584641182313 161.14025307833512,111.78169185701505 161.1065815076786,111.79357594071715 161.06399687426028,111.80149866322456 161.02240258109634,111.80942138590906 160.9907116911257,111.80942138590906 160.95208841884303,111.81338274710374 160.63121815729266,111.8292281919415 160.32025129881757,111.80942138590906 160.28856040884693,111.80546002459633 160.27964734602608,111.73415552214765 160.23508203192188,111.58758515552432 158.04444925868037,110.18922463284734 158.01671972978636,110.17734054938136 157.981067478562,110.12980421427784 157.9711640753687,110.10207468538381 157.95333794978606,110.04265426681431 157.71466593419112,110.12584285308316 157.41162179834149,110.21695416174136 157.23633156280587,110.28429730323147 156.94913287191204,110.3912540570816 156.89961585624067,110.40313814072466 156.83227271492765,110.40313814072466 156.79959148458457,110.39521541821725 156.76790059461393,110.34767908334983 156.75106480922662,110.31994955445582 156.72234494013725,110.30410410938195 156.6866926889129,110.29618138687454 156.59062967851048,110.29618138687454 156.22618444311033,110.29618138687454 155.88946873660416,110.33975636084242 155.57751153781564,110.42690630830593 155.24673787324906,110.51801761714123 154.92685795189408,110.57347667475216 154.89021536029728,110.58536075821814 154.8704085540878,110.6091289259765 154.8387176639991,110.66854934454601 154.8169301771627,110.70024023475275 154.78622962738746,110.75966065355838 154.76840350174575,110.78342882090354 154.75354839704437,110.81115834979755 154.74859669547723,110.84284924006333 154.74859669547723,110.87454012973883 154.7476063551638,110.92999918734976 154.68323423479103,110.88246285224625 154.46634970620957,110.69627887344002 154.2900691303605,110.56555395200863 154.26035892101675,110.54178578448638 154.20489986340579,110.49424944955994 154.16429591061433,110.47840400436803 154.0880397064214,110.45463583702286 153.83055122498942,110.47444264340946 153.56414968061853,110.55366986836556 152.93726426221923,110.75173793105097 152.54310881753432,111.14787405642177 151.04571426363268,112.29270745880241 150.76841897587312,112.34024379366983 149.32153177789723,112.58584819145875 148.27672274729076,112.83145258924768 147.28737277411815,113.01367520709533 146.9526377482979,113.1166705993966 146.66246803640473,113.21174326978074 146.48717780086915,113.43754086094695 146.4327090837487,113.65541572984186 146.33961709416852,113.93667237885514 146.19898876966187,114.18227677682114 146.1009450786326,114.32884714303125 145.9177321206486,114.47937887084925 145.45326251371037,114.60614243108596 144.84222254026687,114.68140829484739 144.54016874467163,114.72498326840206 144.2678251584792,114.73290599114559 144.1608684046291,114.71706054589464 143.84594018495932,114.67744693353465 142.98533445259125,114.40807436840056 142.80410217529314,114.32884714303125 142.47233817023604,114.07532002297103 141.69393068388243,113.8297156251821 140.8452090353345,113.61580211765896 139.56866037126807,113.36227499736262 138.41491390618464,113.02159792960275 137.31365547759478,112.89483436936604 136.30846005946637,113.16420693467721 135.81428024312532,113.29493185604957 135.77664731115607,113.314738662082 135.29732259945737,113.54053625348433 135.2468152434726,113.63560892363235 135.22403741632283,113.71879750996023 135.13094542680165,113.87725196028563 135.08836079338332,113.9287496565248 135.06162160486176,113.95251782386997 135.03092105520454,113.97232463025657 134.95466485101164,114.00401552052234 134.9110898772799,114.01986096536008 134.56546110783484,114.09116546798586 134.24261016571666,114.16643133174729 134.14357613437394,114.16643133174729 134.09306877833015,114.16643133174729 134.04652278359907,114.17831541544938 134.00393815023978,114.1941608606413 133.79299566342078,114.28131080816385 133.7504110298844,114.28923353067127 133.70584571583922,114.293194891984 133.3730913704687,114.28131080816385 133.1671005852759,114.28527216947658 132.9363512922474,114.33676986577478 132.89673767976936,114.35261531078962 132.6323168160253,114.53087656691133 132.44613283710103,114.73686735210416 132.39562548111624,114.79232640971509 132.3698766330852,114.81213321610169 132.34214710419118,114.8319400224883 132.31045621416152,114.84382410595427 132.2757943031916,114.85570818983345 132.23420001002765,114.85966955114618 132.0450450101631,114.84778546750312 131.7449718951947,114.78044232619008 131.4141982305101,114.73686735210416 131.0626274192435,114.7012151008798 130.9635933879008,114.70517646242867 130.77641906872213,114.7210219072664 130.43376132027637,114.76855824236993 130.2634227863079,114.80421049377136 130.16537909533767,114.81213321610169 129.98810817923422,114.80817185472992 129.94354286518904,114.80421049377136 129.8979872107124,114.79628777126395 129.584049331356,114.6893310173548 129.30180234197027,114.57049017968453 128.99182582386763,114.47937887084925 128.94726050976342,114.47145614834183 128.90467587628606,114.47145614834183 128.56597948909402,114.52295384458101 128.4827909028842,114.54672201192616 128.3273074735581,114.57049017968453 128.28967454164788,114.57445154082018 128.25204160973766,114.57445154082018 128.05001218579855,114.56652881831276 127.94107475138061,114.56256745711809 127.89650943727639,114.57049017968453 127.85095378285875,114.58633562469936 127.54295794532392,114.70517646242867 127.31617001354914,114.74875143616042 127.08938208177435,114.74875143616042 126.77148284116429,114.71706054589464 126.64273860041877,114.71706054589464 126.59421192506085,114.72498326840206 126.55360797221034,114.73686735210416 126.28621608764408,114.8873990800402 126.07824462176538,115.07754442021819 125.99406569518311,115.17261709024815 125.96930718734744,115.2082693414725 125.83858226591605,115.43010557150306 125.7157800670511,115.65986452445424 125.66230169012604,115.74305311072308 125.65140794673736,115.8024735295287 125.6266494389017,115.87377803215448 125.59297786824517,115.93319845072398 125.55039323470878,116.03223248206668 125.51672166405227,116.17088012618258 125.50780860123142,116.40460044009232 125.55930629752963,116.60662986391337 125.57317106197664,116.6620889217014 125.56029663790208,116.90373195794147 125.49196315621658,117.1493363557304 125.39094844430606,117.3870180310119 125.24932977942697,117.60885426104247 125.05324239742745,117.82276776891979 125.04234865392073,117.8504972978138 125.04730035548786,117.941608606472 125.0562134183087,117.96933813518893 125.07403954400942,118.00102902545471 125.16217983184539,118.08817897291823 125.22556161196376,118.17532892038174 125.23843603603831,118.20701981064752 125.32558598361989,118.45262420837743 125.34638313020184,118.56354232324513 125.33251836575484,118.80122399870373 125.27012692600894,119.05475111900007 125.21070650720333,119.29639415541723 125.12652758062106,119.52219174681956 125.0888946486518,119.60934169428309 125.08493328739809,119.64103258448984 125.09384635027796,119.75195069935755 121.85840454631193,120.29861855248731 121.51376611718031,120.3818071386381 121.47613318538814,120.39369122269436 121.43750991310546,120.40161394502469 121.35432132671856,120.42142075141129 121.27707478233027,120.39765258383001 121.23349980848046,120.38576850018694 121.19190551531653,120.37388441613068 121.11564931124168,120.35803897129293 121.07900671964488,120.34219352645519 121.04533514892933,120.32634808138133 121.01661527989897,120.30654127499473 120.98888575112302,120.28673446884424 120.93144601300328,120.23523677254605 120.83637334285527,120.13620274120333 120.7729915627369,120.07282096090789 120.65018936393098,119.8351392858625 120.59076894506633,119.65291666801484 120.57294281942465,119.62122577816227 120.54818431158897,119.59349624944534 120.51748376193177,119.57368944305874 120.48381219121622,119.55388263667214 120.35902931172441,119.50634630174571 120.30951229605306,119.49446221810264 120.25801459981389,119.48653949559522 120.17581635379945,119.48257813404636 120.11540559462136,119.48257813404636 120.11738627530725,119.98170965230872 119.91832787224939,120.18770043750155 120.26692766263473,120.41745939003953 120.20057486163512,120.45707300263562 120.14808682496447,120.48084116998079 119.85197507124978,120.56402975648575 119.77571886717493,120.5877979238309 119.64796496674285,120.64325698144185 119.61132237508703,120.67098651015878 119.41820601396876,120.8769772953516 119.28550041196954,121.03543174585408 119.11516187811912,121.25330661451288 119.00721478395558,121.42760650967604 118.8507410144341,121.6494427398837 118.12383122431966,123.02799645617408 117.70788829273934,123.28152357647042 117.35037543953317,123.4439393877544 117.22163119884668,123.46374619431808 116.7977655446409,123.273600853963 116.65119517831273,123.51920525192902 116.51353787468734,123.73708012058782 116.35112206340338,123.96287771216724 116.17682216818119,124.1767912199265 115.92725640913856,124.3748592826119 115.68363269203552,124.52935237132942 115.649961121379,124.54915917753894 115.38058855618588,124.68780682165483 115.10428360873975,124.83041582655221 114.86660193345824,124.9690634706681 114.61802651490612,125.13544064308772 114.36846075580445,125.30181781609764 114.16643133186534,125.42858137615727 113.91389455194145,125.59495854857688 113.88319400228424,125.61476535496348 113.63461858361407,125.78510388875488 113.47319311246643,125.87621519776724 113.36821703924318,125.93563561633674 113.10973821743873,126.10201278916956 113.0859700499755,126.12181959555616 112.93345764170775,126.23273771036484 112.68686290372345,126.40307624433332 112.4372971446218,126.54568524958486 112.27091997196605,126.64075791961483 112.01937353235559,126.80713509221154 111.7618850509236,126.98539634892354 111.69256122892467,127.02897132265531 111.4548795537022,127.19534849507492 111.36475858518034,127.25476891405764 111.16074848061437,127.46075969925045 111.07161785240595,127.62713687184716 110.06246107314189,129.60781749870117 111.69256122892467,131.04183027242541 111.77674015556597,131.2121688063939 113.31870002357182,134.3535282804663 112.60466465759094,135.6647388556798 111.26374387321079,137.6018445085659 108.97308672837218,138.267353199484 108.80769989597084,138.267353199484 108.3927473045859,138.267353199484 108.27687748791493,138.25943047691757 108.02236002736419,138.24358503172564 107.23305879756286,138.07720785930601 102.51903890570934,137.34039466593924 98.05062341146765,137.2572060796704 97.83274854251371,137.41169916862404 97.65448728609685,137.53846272862464 97.55743393538101,137.6058058697606 97.45740956372488,137.6731490114278 97.35441417112847,137.7444535138765 97.21873754818897,137.83556482265274 96.9434229411153,138.03363288533814 96.56511294132714,138.267353199484 96.19868702535916,138.4654212621694 95.90554629258476,138.61991435088694 95.65201917240648,138.75460063363107 95.41730851812427,138.87740283237795 95.1618007172601,139.01208911512208 94.87658270699313,139.15469812001948 94.42795854495166,139.37257298909145 94.18631550847547,139.49537518777933 93.91892362390922,139.61025466431394 93.65252207953833,139.74097958574532 93.34452624206253,139.86774314580495 92.7532930749466,140.11730890472953 92.36012797063414,140.27576335481882 91.90061006514497,140.4698700563686 91.49754155758019,140.5966336166053 91.32720302367073,140.65209267421625 90.84787831191304,140.81054712412845 90.36855360021437,140.9333493231705 89.85951867923094,141.01257654818562 89.4019814543096,141.04822879958704 88.75132786838806,140.9927697419761 88.08086747625701,140.85016073690164 87.45497239811212,140.56494272633952 86.90434318390572,140.2519951872966 85.36634467709456,138.86551874849877 84.83750294978357,138.42184628820152 84.2938061176531,138.07324649775717 84.23339535853407,138.03363288533814 83.65107525423898,137.66126492754861 82.99745064737716,137.31266513728136 82.4557344959916,137.07102210080515 81.73179572681744,136.82937906403382 81.16532106753719,136.61942691788244 80.36710677491503,136.47681791274894 79.67089753463488,136.38174524242385 78.92616161887874,136.3064793786034 78.36364832085219,136.24309759866213 78.05169112212269,136.21140670863247 77.01876617521832,136.0886045099446 75.95216965771645,136.00541592343964 75.45303813974925,136.00145456206786 74.71127324499243,136.068797703558 74.17450879511499,136.21536806976812 73.70508748649155,136.5639678602715 73.4307632197313,136.78580409030207 73.25349230362787,136.9482199017631 72.77515793224262,137.21363110593865 72.1334174090829,137.52657864498158 71.39264285469852,137.83556482265274 70.81923581322428,138.09305330414378 70.2636548973327,138.3861940368001 69.38324235875513,138.81005969088784 68.59493146926722,139.2101571778075 68.18988228101655,139.38841843392922 67.8937705273609,139.49933654932818 67.54517073697556,139.594409219122 67.24212660112593,139.64590691571536 66.83707741293429,139.66175236078922 66.2408925441922,139.6657137217478 65.69323435086707,139.63798419320796 65.34760558154007,139.60233194162944 65.01386089591517,139.52310471667334 64.54047822603803,139.39634115643662 63.83139456162429,139.2101571778075 63.26491990234405,139.05566408867676 62.80144063571924,138.90909372223052 62.36767157837918,138.7625233561975 61.99827464147091,138.60010754473646 61.540737416667625,138.40203948205104 61.10498767875975,138.2079327803242 60.73460040159707,138.05740105291943 60.454334092897234,137.9702511054559 59.716530559335084,137.86725571256434 59.41942846530698,137.86725571256434 58.963871921189586,137.8434875452192 58.51920912046086,137.79595121011567 58.117130953150465,137.74841487501214 57.872516895733995,137.71672398515958 57.629883518944375,137.68899445626556 57.07925430479702,137.60976723130943 56.6880698808753,137.57015361853624 56.34145077117584,137.57015361853624 56.023551530565776,137.58996042492285 55.534323415732835,137.64541948253378 55.00350100779499,137.71672398515958 54.453862133842996,137.76822168122166 54.04485158439764,137.79595121011567 53.55463312925127,137.86725571256434 52.28501684737882,138.11682147148892 51.63238258094848,138.21981686438048 51.05501417810248,138.29112136682917 50.516269047598186,138.32281225685884 50.02010855057126,138.32281225685884 49.72696781779686,138.32281225685884 49.4348174253359,138.28319864432174 49.114937504158,138.21981686438048 48.73563716417449,138.14455100038293 48.37614363034145,138.04551696904025 48.04933132691055,137.96232838288947 47.7324224266139,137.859332990234 47.49276007076457,137.76029895889133 47.12435347411069,137.56223089620593 47.090681903454175,137.5463854511911 46.76188891945544,137.3562401110131 46.4390379772192,137.1779788547143 46.167684731399234,137.04725393310582 45.93396441737143,136.97198806946244 45.6606304909246,136.92445173441797 45.365509077464324,136.90068356665958 45.04067745466027,136.89276084415218 44.71881685279649,136.9125676503617 44.4395408844691,136.96406534695504 44.08797007320252,137.07102210080515 43.99091672242764,137.098751629345 43.81859750789134,137.15024932582028 43.6373652305342,137.24136063459653 43.58685787454942,137.26909016349055 43.39374151343116,137.34435602713393 43.179828005730926,137.38793100086568 42.95601109489642,137.39189236223746 42.42122732570486,137.38396963990712 42.007265074633345,137.4037764458805 41.47347164569619,137.4473514198484 41.077335520325384,137.4433900584766 40.561368217029916,137.43942869728195 39.626486961154825,137.36812419483326 38.99464984118839,137.36020147232583 38.207329292013924,137.39981508474486 36.58713253930637,137.56619225751865 36.184064031682546,137.6018445085659 34.764906362541645,137.72068534611813 34.66092062963181,137.74049215250471 34.58763544643821,137.7523762363839 34.07364882382863,137.79991257125133 33.9627307087248,137.80783529399486 33.672560996831656,137.8236807390097 33.10707667786484,137.8514102677266 32.34154361558576,137.8910238800866 31.389826574382408,137.859332990234 30.22419602553785,137.7325694299973 29.428952753796935,137.58203770259252 28.680255476905145,137.3641628335205 27.611678278717406,137.05517665561322 27.0174740906612,136.97594943048006 26.56191754642575,136.97198806946244 26.45892215382934,136.97594943048006 25.97662642119039,137.03536984940374 25.097204222867205,137.35227874964133 24.756527155107346,137.4750809487424 24.40792736472201,137.60976723130943 24.07616335984202,137.68899445626556 23.726573229084227,137.7523762363839 23.446306920384387,137.79991257125133 23.15019516666971,137.83556482265274 22.998673098774407,137.87121707411322 22.88775498372961,137.9029079637887 22.63719888431452,137.97817382796333 22.51142566456832,138.03363288533814 22.430217758808276,138.06136241423215 22.36188427718181,138.0811692202646 22.216304251108042,138.1485123617547 22.10142477475051,138.21585550283163 22.01922652873607,138.25546911560482 21.860772078587747,138.32281225685884 21.785506214826324,138.35450314694754 21.719153413826714,138.38223267566445 21.580505769887903,138.48126670700717 21.517123989887605,138.5446484871255 21.461664932276665,138.60803026724386 21.410167236037488,138.69914157607914 21.338862733470744,138.94474597380906 21.338862733470744,139.24580942903182 21.33985307378417,139.50329791028673 21.35272749791775,139.72909550186614 21.371543963754807,139.88358859064272 21.404225194097897,140.05788848616004 21.42304166005301,140.20842021356484 21.45968425170884,140.38668146986362 21.494346162619756,140.54117455881726 21.517123989887605,140.72339717666492 21.544853518604533,141.18687644311265 21.57159270706706,141.43248084090158 21.596351214902736,141.61866482006198 21.60526427772358,141.80881016006288 21.606254618037006,141.9751873328957 21.606254618037006,142.1415645053153 21.603283597155755,142.3317098454933 21.564660324873074,142.56543015940304 21.55574726205223,142.99721853617527 21.545843858976987,143.2230161275776 21.478500717604923,143.5795386405294 21.35470817842655,144.09451560362947 21.306181503127654,144.24900869222895 21.232896319934053,144.5223426189119 21.192292367024518,144.66495162398635 21.123958885398054,144.86301968667175 21.02888621530906,145.10070136213037 20.97342715775715,145.18388994839918 20.824876110743098,145.35818984338525 20.684247786354522,145.5007988484597 20.410913859789638,145.63548513102677 20.212845797104237,145.67113738242818 19.99001922658316,145.6790601051127 19.66320692309322,145.68302146630737 19.419583205990175,145.67509874379996 19.173978808378337,145.58002607377 18.9986885727837,145.50476021000858 18.66791490809908,145.33046031449123 18.488663311427818,145.22746492195387 18.175715772325855,145.0452423045194 17.679555275357952,144.81944471294 17.169530013884017,144.57780167652282 16.309914621888403,144.26089277628523 15.751362685056543,143.98359748846664 15.393849831968422,143.82118167718266 15.063076167283802,143.67857267187208 14.837278575763415,143.58746136309583 13.897445618321186,143.23886157259244 13.521116299218923,143.1120980127099 13.30423177057841,143.04079350990705 13.185390933026197,143.00514125885977 12.828868420133446,140.57286544884693 12.607032189925796,136.9917948754949 10.912559913711217,132.4124612663855 9.938065045299043,130.38424430425087 8.802144705739236,129.2790245146434 7.675137429059302,129.03342011685447 7.325547298478598,128.83535205416908 8.434728449457817,127.05670085137223 7.956394078072573,123.6697369793338 7.5652096543279335,120.88490001785901 8.200017795175617,118.67049907709526 6.684797115632295,115.09338986529205 6.168829812336825,113.5999566725851 6.142090623933325,113.58411122739318 6.103467351650643,113.54053625348433 6.071776461680008,113.49299991873498 6.0430565925906246,113.42169541593212 6.028201487830191,113.36623635849826 6.026220807262365,113.23947279826154 6.007404341248223,113.16816829581286 5.898466906830281,112.93444798172602 5.837065807397807,112.83541395038333 5.6637562525480805,112.61357772017568 5.629094341519107,112.570002746621 5.616219917444555,112.54227321772699 5.6043358336834315,112.36401196142819 5.587500048355173,112.29270745880241 5.499359760460169,112.05106442214914 5.481533634877511,112.00352808728174 5.477572273623803,111.85299635946375 5.416171174191329,111.67473510298785 5.363683137520669,111.39743981534635 5.342885990938702,111.35386484161458 5.3131757815949205,111.30236714537541 5.079455467567118,111.12806725003517 5.058658320985151,111.10826044382566 4.89327148864284,110.90226965863285 4.867522640552767,110.8468106010219 4.861580598613176,110.62101300979666 4.871484001806476,110.56951531320331 4.899213530582432,110.51801761714123 4.933875441493348,110.47444264340946 4.995276540984851,110.4506744756511 5.025977090642059,110.44275175314368 5.056677640417326,110.43086766961868 5.087378190074534,110.42294494711126 5.212161069566337,110.41898358579851 5.0893588707604165,110.29618138687454 5.049745258164307,110.25260641296569 4.98933449904526,110.153572381623 4.839793111717782,109.92381342908502 4.660541515046523,109.70197719881834 4.503077405211629,109.49598641344843 4.346603635690162,109.2820729057482 4.1881491854828115,109.08004348186812 4.021772012945132,108.87009133553966 3.852423819290085,108.64825510545006 3.7127858350378484,108.46603248783852 3.686046646634348,108.42245751387064 3.635539290590542,108.35511437243954 3.4800558614415307,108.13723950354463 3.3216014112341807,107.93521007972359 3.1502725370703373,107.71337384927982 3.075997013563312,107.6262239018163 3.058170887862597,107.60245573447114 2.929426647117086,107.45588536802491 2.905658479594838,107.44003992301008 2.8571318042959435,107.40438767178574 2.7937500241775863,107.3489286141748 2.5867688986713415,107.170667357876 2.374836071656991,106.97656065614916 2.2431208099711992,106.82999028988002 2.19657481524013,106.76264714862602 2.058917511614747,106.5368495570466 2.0391107053462068,106.48931322194306 2.022274920017948,106.44177688701663 2.00841015562997,106.39424055197213 1.9826613075398964,106.15655887669062 1.9836516477942945,105.90303175639428 1.9985067525547286,105.73269322242581 2.022274920017948,105.48312746350123 2.036139684464955,105.43162976743915 2.0757532969430064,105.32467301358902 2.1123958885398055,105.16225720212796 2.1371543963754807,105.0592618094135 2.236188427718181,104.82554149532668 2.2629276162397396,104.74631427054766 2.2767923805686885,104.69481657430848 2.352058244389141,104.46901898272907 2.3639423281502654,104.41752128625377 2.4332661500901556,104.22341458494013 2.450101935418415,104.1481487209426 2.476841123880944,104.0768442184939 2.52734847992475,103.93423521324236 2.627372851521849,103.69259217700228 2.6986773540885935,103.45094914058512 2.6986773540885935,103.39945144428692 2.668967144685783,103.35983783174984 2.6481699981038163,103.34003102518616 2.607566045253309,103.30041741294423 2.5778558358504986,103.25684243885829 2.5540876683282505,103.23703563264878 2.5263581395522943,103.22515154900572 2.4530729564177247,103.17761521390219 2.4164303648209255,103.13800160130607 2.334232118747455,103.02312212494854 2.2609469355538563,102.93993353862068 2.2342077471503563,102.89239720375326 2.204497537688517,102.84882223002151 1.924231229047703,102.49626107838246 1.893530679272437,102.4724929108012 1.8687721714367618,102.44476338190718 1.8430233234057174,102.4011884083525 1.6806075119446593,102.17935217796776 1.5984092659302178,102.04466589540073 1.479568428318977,101.78321605259696 1.4399548157228679,101.69210474376167 1.2220799467689263,101.41877081743291 1.1309686379336417,101.3197367860902 0.14855104701405103,99.8857240122479 0,99.78272861935635 0.017826125700715005,99.75103772968086 0.04159429316393429,99.72330820078685 0.20698112550624442,99.55296966699545 0.29710209402810206,99.25586757296736 0.35652251289275133,98.98649500765619 0.38623272229556155,98.87161553106253 0.3971264656842297,98.83596328001528 0.4109912301312367,98.77258149971983 0.42287531389236077,98.6775088297489 0.43475939765348487,98.63789521732987 0.4426821201609009,98.61016568843586 0.4684309683100031,98.53886118598717 0.49120879545979534,98.49132485094268 0.5387451305633205,98.42002034825788 0.5635036383989958,98.39625218055853 0.589252486489069,98.3804067357208 0.6209433765777621,98.3605999293342 0.6655086906819775,98.33683176198903 0.8011853135624485,98.28533406551375 0.9923209941128897,98.22195228557247 1.04183800978424,98.20610684038056 1.176524292351284,98.16649322819765 1.2864520671416817,98.13084097679622 1.613264370572594,98.00011605518773 1.916308506540287,97.87335249512812 2.1718163074044545,97.73866621256107 2.4609956789251406,97.60397992981693 2.5313098411784583,97.57228904014144 2.5590393698953857,97.55248223375484 3.9851294212302752,96.85924401435594 4.3654201015862455,96.67702139650828 4.991315179731143,96.19769668480961 5.2497940014765625,95.97982181615082 5.501340441087023,95.79759919830316 5.704360205398588,95.70252652809612 6.038104891023489,95.50841982678247 6.410472848872044,95.22320181663356 6.540207429871953,95.14001323030568 6.688758476886004,95.09247689502507 9.079439993557827,94.84291113627758 9.387435830974598,94.83102705222132 9.7201901763451,94.79141344003841 10.280722793744786,94.66068851842994 10.651110070907459,94.51411815198371 11.001690541860619,94.34377961801523 12.14553360392784,93.7614595138382 13.725126403784888,93.51189375509071 13.607275906546102,90.91324077259922 14.23713234582665,90.99246799755532 14.459958916347725,91.05188841636094 14.63722983245116,91.1746906150488 14.754089989494576,91.27768600794036 14.887785931748192,91.4123722905074 14.977906900270051,91.45594726406208 15.191820408029313,91.46386998656949 15.680058182489798,91.40444956799999 16.092039752875433,91.35691323271938 16.478272475170996,91.30145417528553 16.852621113587375,91.24995647904635 17.291341872494566,91.1944974214354 17.60527975185093,91.14696108633188 17.9132755892677,91.10734747397188 17.987551112774725,91.0954633900927 18.132140798535065,91.0835793063906 18.322286138713054,91.05981113869127 18.384677578517984,91.04792705498917 18.731296688217434,90.99246799755532 18.913519305888006,90.96473846889742 19.109606687887524,90.9370089401805 19.15615268267762,90.92908621767309 19.240331609259886,90.91324077259922 19.387892316019542,90.89343396621263 19.49682975043748,90.87362716006214 19.697868834122193,90.84193626979636 19.78600912195817,90.83005218633038 19.859294305151767,90.81420674125653 19.914753362703678,90.80232265743636 20.372290587506956,90.73497951594625 20.701083571564723,90.68348181988415 21.01601179123451,90.61217731725839 21.150698073860585,90.6002932333792 21.19526338802383,90.6002932333792 21.271519592098677,90.61613867857112 21.586447811827497,90.56464098197777 22.231159355868478,90.39826380949913 22.54806825616512,90.31111386185852 23.143262784534752,90.22792527570773 23.366089355055827,90.16454349541229 23.48493019266707,90.11304579917311 23.681017574666587,90.05758674156218 23.787974328516704,90.04966401905476 23.912757208008507,90.04966401905476 24.025656003798215,90.06947082526426 24.056356553455423,90.08135490932054 24.11280595137979,90.11304579917311 24.2158013439762,90.18038894066324 24.2781927837221,90.2041571080084 24.32870013964785,90.23188663672532 24.36138136999094,90.24773208174015 24.392081919707177,90.25961616561933 24.449521657885942,90.26753888794967 24.527758542646676,90.26357752675499 24.564401134243475,90.25961616561933 24.60302440652616,90.24773208174015 24.736720348779777,90.19623438550099 25.12196273070288,90.01797312920218 25.242784249000003,89.97439815547042 25.39727733783559,89.90309365278561 25.690418070609983,89.76444600890584 26.016240033727467,89.5901461135656 26.214308096412868,89.38019396741421 26.327206892143547,89.30492810341667 26.426240923486247,89.25343040735459 26.64609647312607,89.08705323434468 26.689671446857833,89.04347826061291 26.73918846252918,88.98405784204341 26.77484071393061,88.94840559081906 26.821386708543624,88.89690789416669 27.009551368153783,88.71468527667321 27.045203619378128,88.71072391536048 27.15711207485441,88.67903302527178 27.357160818107634,88.60376716168744 27.419552257853535,88.58396035512376 27.47996301703161,88.57207627142166 27.712692990627932,88.54434674288183 27.77904579162754,88.54038538156908 27.89392526798507,88.53642402037441 28.206872807028006,88.52057857518248 28.260351184071123,88.51661721398781 28.58617314712958,88.51661721398781 28.945666680844553,88.46511951757155 29.009048460903884,88.44927407255672 29.135812021022538,88.4175831826451 29.38339709937929,88.38589229243836 29.79735935039178,88.40173773745319 29.868663853017555,88.40173773745319 29.943929716897035,88.41362182133237 30.181611392001457,88.46908087894332 30.251925554313804,88.50077176879589 30.28361644428444,88.51661721398781 30.322239716567122,88.5285012976899 30.409389664148698,88.55226946544826 30.477723145716134,88.56019218795568 30.681733250341125,88.56415354891425 30.72134686281918,88.56415354891425 30.78274796225165,88.55226946544826 31.053110867876253,88.4294672663472 31.402700998456957,88.338355957689 31.548281024589755,88.31458778998967 31.93748476770754,88.27497417739356 32.17714712355688,88.25516737142017 32.23854822298935,88.24724464885372 32.571302568359854,88.21951511995971 32.62180992434463,88.20763103631664 32.65944285619583,88.19574695226036 32.80700356295548,88.14821061751103 32.83176207079116,88.03729250234817 32.83671377229926,87.98579480587287 32.83374275135898,87.88676077453017 32.82681036922402,87.82734035578358 32.814926285462896,87.77980402068006 32.7792740341205,87.70057679554687 32.762438248792236,87.67680862820171 32.66637523844885,87.53419962312725 32.57823495049482,87.43516559178454 32.51683385106234,87.38366789530926 32.449490709749305,87.32028611536798 32.39601233282425,87.28067250283091 32.20784767333215,87.0627976337589 32.192002228317314,87.03506810504197 32.181108484810586,87.0033772151894 32.17516644298905,86.95584088008587 32.18011814455619,86.86076821005591 32.2147800554671,86.71815920462728 32.29598796128617,86.55178203220765 32.317775448063514,86.49236161322494 32.348475997838776,86.41709574964061 32.39898335382355,86.167529990657 32.40195437476384,86.09226412671849 32.57625426992699,86.0209596242698 32.69113374628452,85.95361648277968 32.737679740956565,85.91796423137825 32.764418929419094,85.88627334170276 32.780264374433926,85.85458245143698 32.79115811799968,85.81893020003555 32.83869445292612,85.58124852516724 32.90702793455258,85.31583732081464 32.91792167805931,85.2088805671416 32.92881542144798,85.16530559340984 32.93673814395539,85.13757606469292 33.01992673028326,84.90385575060608 33.02983013347656,84.86424213800998 33.0496369397451,84.75728538415986 33.054588641312236,84.70974904905634 33.06053068313377,84.66221271418893 33.06152102344719,84.60279229520621 33.06647272507336,84.49187418039755 33.072414766894894,84.44037648374515 33.08033748940231,84.37303334266824 33.088260212027784,84.32945836893649 33.12589314381995,84.22250161485024 33.13381586632737,84.19477208636944 33.15263233228248,84.10366077753416 33.1486709710878,83.83824957318154 33.15659369353619,83.76298370953818 33.16550675641606,83.73129281933143 33.166497096729486,83.69564056810708 33.35367141590816,83.2281999402876 33.448744085997156,83.00240234870817 33.484396337398586,82.88752287252773 33.53193267232502,82.72906842220232 33.56164288178686,82.65776391957655 33.57748832674267,82.61815030739365 33.58640138962254,82.58645941712787 33.61908261996563,82.47554130208307 33.647802488995985,82.34877774208246 33.68246440008399,82.28143460059235 33.72802005438357,82.16259376286304 33.7389137978903,82.1269415116387 33.76763366697968,82.05167564805437 33.79041149412947,82.00017795175616 33.80526659888991,81.96848706172649 33.82705408572627,81.93679617146071 33.8636966773821,81.87341439151945 33.895387567352735,81.78230308268417 33.82408306478599,81.80607125026543 33.650773509936265,81.83776214011802 33.406159452519795,81.86153030787638 33.3734782221767,81.86153030787638 33.29821235841528,81.85756894632753 33.18828458356585,81.84964622382012 33.112028379491,81.83380077898236 32.944660866462804,81.7902258052506 32.870385342955785,81.76249627653368 32.592099714941824,81.6317713549252 32.52871793482346,81.60008046507262 32.231615840795364,81.47727826614864 32.19497324919856,81.46143282095673 32.11970738537811,81.4337032922398 31.810721207588884,81.34259198340452 31.67009288308225,81.30693973235725 31.50371571054457,81.26732611982018 31.331396495890214,81.2435579520618 31.247217569307946,81.23959659092617 31.208594297025265,81.23959659092617 30.995671129697488,81.2435579520618 30.926347307698567,81.25148067456922 30.88475301465269,81.25148067456922 30.801564428265795,81.25940339731277 30.595573643072978,81.27128748077874 30.460887360387876,81.27128748077874 30.412360685029952,81.27128748077874 29.96571720367437,81.23167386859583 29.725064507570636,81.19998297833006 29.641875921242768,81.19206025582264 29.540861209214185,81.18017617212054 29.184338696439493,81.15244664322653 29.114024534186175,81.14452392071911 29.067478539396078,81.1366011982117 28.81791278041247,81.12075575319686 28.75453100041217,81.11679439217927 28.709965686307957,81.11283303086654 28.55349191672746,81.10491030835912 28.557453278099224,81.02964444436158 28.551511236100605,80.997953554509 28.55943395860802,80.91080360698645 28.58716348738398,80.85138318806277 28.575279403622854,80.68104465427139 28.558443618294593,80.64539240286996 28.405931210026836,80.51070612030291 28.246486419624116,80.39978800508104 28.013756445909742,80.23737219361998 27.938490582207347,80.18587449755789 27.874118461716535,80.14229952382613 27.836485529806307,80.11060863356035 27.509673226375394,79.87688831947351 27.217522833914426,79.65109072807118 26.924382101140033,79.44509994287837 26.668874300275867,79.27872277045874 26.420298881605685,79.11630695899768 26.391579012516303,79.08857743028076 26.334139274337538,79.0053888437758 26.292544981173602,78.92220025744794 26.24599898650156,78.79543669721123 26.229163201173304,78.75582308502831 26.09546725880163,78.44683690694394 26.07566045253309,78.37553240449526 26.034066159369154,78.26461428927338 25.934041787713028,78.00712580801847 25.819162311355495,77.78925093876938 25.77459699725128,77.73379188133553 25.709234536624123,77.63475784999282 25.60921016490897,77.52780109614271 25.527011918894527,77.46441931602436 25.26061037458266,77.28219669835379 24.971431003121005,77.05243774581581 24.812976552913653,76.81871743190607 24.67234822840702,76.55726758910231 24.531719903900385,76.33146999752289 24.37524613437892,76.0819042387754 24.227685427737324,75.8640293697034 24.071211658215855,75.63823177812398 23.87512427609828,75.39262738033506 23.63942328150265,75.20248204015707 23.562176737055346,75.11929345406531 21.914250455512807,72.94450612548447 20.73772616322055,71.18962309020986 19.58695071895934,69.62884675642599 18.78675574571032,68.70584958413494 16.63276556400658,69.89425796024734 14.98781030340432,70.9162891638811 13.289376665936032,71.85513178071476 11.907851928646329,72.62759722524686 10.23714781989497,73.36837177974928 9.35970630219864,72.12054298506737 7.837553240520361,70.93609596991352 7.6820698112532915,71.04305272376364 7.473108005120193,71.2173526189268 7.273059261866966,71.28865712155257 7.061126434734558,71.32827073432577 6.839290204585938,71.28469576035789 6.576850021468752,71.24112078644904 6.46791258705081,71.23319806394163 6.339168346246271,71.29657984405999 6.073757142247833,71.46295701689282 5.7816067497868655,71.52633879701116 5.452813765788128,71.5104933519373 5.21117072925291,71.48276382304329 4.5882466721073225,71.48672518423797 4.347593976003589,71.47484110053587 4.154477614826294,71.42730476566847 3.9039215155292606,71.3163866502695 3.7593318297689176,71.27281167671482 3.5355149189344144,71.25696623169999 3.3077366469052314,71.39165251426704 3.1344270920555055,71.43126612662702 2.895755076460568,71.39957523677445 2.684812589818673,71.36788434650867 2.52437745892544,71.40353659808719 2.325319055985641,71.5144547129549 2.187661752360258,71.581797854386 1.9668158625840932,71.62537282835386 1.753892695079229,71.65706371802936 1.607322328751061,71.6808318857287 1.475607067065269,71.6808318857287 1.2616935593060066,71.68479324692338 1.1844470148587,71.68479324692338 1.1240362557986816,71.70063869211529 0.9794465700383386,71.73232958202689 0.8051466748161565,71.57783649307325 0.5040832195343464,70.19136005427545 0.5308224081149334,66.68555534468481 0.6278757587127223,66.40826005686623 0.7566199995172621,66.03985346038944 0.9834079312920466,65.55260602618334 1.3062588734692508,64.93067230923313 1.6726847894372434,64.3879658178293 2.03812036503278,64.00371377592448 2.3659230088361483,63.682843514551216 2.9739919612213015,63.23520969294124 3.766264211962907,62.613275976168104 4.517932509854005,61.67047199760851 5.232958216148304,60.66032487803102 6.998734994988657,58.79452372753454 7.219580884941908,58.56080341344771 8.023737219444637,57.83191294282446 8.726878841918785,57.190172419487645 9.332967113736112,56.67123409560607 12.561476535508154,54.8846601698886 15.578053130206817,51.125328340414825 16.620881480245455,49.445711168547476 19.491878048870348,49.21991357732224 19.637458074944117,49.28725671863528 20.309899147761055,49.548706561261945 20.649585875266517,49.69527692764914 20.968475456249042,49.81807912657312 21.61813870179813,49.956726770275814 22.22323663336106,49.988417660364505 22.749107339731772,49.956726770275814 23.14623380547503,49.82600184890345 23.723602208143948,49.5328611164242 24.25739563714013,49.2159522160095 24.591140322765035,48.99411598574282 24.67630958966073,48.95450237320574 24.773362940435604,48.66136164031329 24.785247024196728,48.61778666658153 24.80109246921156,48.57025033147801 24.83179301886877,48.48706174538625 25.031841762181024,48.03942792371724 25.091262181104703,47.88097347327378 27.246242703003812,47.8770121120791 28.9436860002177,48.03942792371724 30.39552489970169,48.819816090638696 34.82036542015259,49.63585650872547 34.857008011749386,49.639817870274314 39.39573766812633,50.42812875946707 40.07114976188355,50.535085513317185 40.40192342656817,50.582621848420715 40.44846942135827,50.606390016120045 40.49699609665716,50.64996498967472 40.66535394993975,50.86387849761107 40.767359002281765,51.00252614149085 40.86738337387886,51.113444256358555 40.97830148898269,51.25605326143302 41.04069292872859,51.33924184793798 41.074364499385105,51.3867781830415 41.10011334753421,51.42639179540149 41.2783746040101,51.67199619319042 41.44475177660681,51.877986978383234 41.65668460368018,52.07209367987396 41.719076043426085,52.123591376172165 41.76166067696248,52.16716634990392 41.81910041514124,52.29789127145337 41.829994158529914,52.34938896775158 45.53683795174623,56.33847975017653 45.59130666904374,56.44147514265488 45.80422983631249,56.63162048283287 45.99833653780321,56.81780446181617 46.04389219222085,56.853456713217604 46.340003945876504,57.02379524700899 46.791599128858245,57.22186330969439 47.08771088257292,57.293167812379195 47.19565797673646,57.32485870223177 47.585852060167674,57.388240482173046 47.940393892374544,57.423892733574476 48.158268761328486,57.43577681745366 48.566288970519444,57.534810848796354 48.78515417984584,57.582347183663764 48.83467119551719,57.5902699064073 49.0525460644121,57.58630854485845 49.116918184725826,57.56650173864893 49.435807765708354,57.4516222622914 49.75469734663185,57.35654959249755 50.02406991182497,57.23374739339649 50.2736356708676,57.09113838814494 50.55192129888156,56.96041346712675 50.74701834062668,56.89307032545954 50.782670591910055,56.88514760312921 50.82228420450616,56.88118624175745 50.86090747667079,56.86137943578405 50.89358870707291,56.82968854551827 50.92825061798382,56.79007493292216 50.959941508013486,56.74253859805475 50.992622738415605,56.702924985281555 51.02431362844527,56.67123409560607 51.08373404719186,56.61181367644627 51.291705513011536,56.42166833644537 51.32042538210092,56.39790016874604 51.40955601042741,56.29886613740334 51.721513209038854,56.251329802653984 52.04238347058921,56.180025299851124 52.10873627158882,56.156257132505964 52.141417501931905,56.14041168749113 52.4088093865572,55.98987995967314 52.64054901989912,55.82746414838917 52.96439030244878,55.72050739436197 53.297144647701224,55.633357446898444 53.6289086527583,55.54620749943493 53.97156640120404,55.451134829227875 54.05574532778631,55.415482577826445 54.200335013546656,55.36398488176436 54.25183270990389,55.34813943674953 54.39642239566423,55.32833263054002 54.48951438506734,55.29664174027423 55.404588834673895,55.22533723764846 55.62543472462715,55.18968498642412 55.961160090819874,55.02726917496306 56.64053354588983,54.65886257848627 57.74377265498848,54.04485158422056 58.03988440876219,53.93789483019335 58.20824226198575,53.77151765777373 58.293411528940474,53.593256401474925 58.498411973878895,53.446686035028705 58.888606057310106,53.26446341718105 59.10747126657747,53.21692708207752 59.25503197327809,53.19712027610412 59.40061199935187,53.15354530213625 59.57392155420159,52.86436593061556 59.626409590813225,52.67422059049661 59.718511239961934,52.539534307929564 59.8234873131852,52.43257755384333 60.072062731855375,52.37315713509674 60.45136307189792,52.286007187633224 61.05348998246154,52.08001640244041 61.68829812342728,51.774991585845854 62.0299655315596,51.62049849712833 62.336971028662944,51.533348549251606 63.32037895989596,51.35508729277572 64.28596076548729,51.160980591639174 64.7920246656485,51.077792005134214 65.20697725703343,50.9391443611954 65.28818516267542,50.88368530376155 65.46644641909228,50.768805827226934 65.69224401055364,50.50339462346461 66.24584424575934,49.8497700164257 66.88857510917346,49.061459127055855 67.67391497772108,48.17807556730188 67.76403594624294,48.0750801747645 68.1552203700466,47.55614185052875 68.70188822311734,46.98174446885914 69.72292908620156,45.76560656385272 70.55085358828556,44.763382166900705 72.25423892732098,42.778740178733955 73.25943434544939,41.55864091235577 74.3181081405619,40.366271175284794 73.3941206281345,37.35563662223058 74.5785676429932,35.87408751363892 74.66274656957548,35.81466709447913 74.80436523439553,35.60471494832775 74.91429300918593,35.406646885642346 74.94400321858873,35.42249233065718 75.22030816603487,35.569062697103405 75.52632332288381,35.72751714701561 75.80857031226954,35.85428070725232 75.93830489326945,35.90973976486327 76.1234985318803,35.9850056284476 76.40475518089357,35.65621264456692 76.45526253687835,35.54925589071681 76.46516594013067,35.513603639492466 76.48002104471402,35.48191274922668 76.50180853166844,35.45418322068684 76.54637384577266,35.41060824660091 76.84050491886049,35.2719606030753 77.2306990022917,35.105583430065394 77.50106190785726,34.94316761878142 77.5783084523636,34.8758244777045 78.23292339947983,34.689640498485076 78.44980792817937,34.665872331139916 79.1222490009963,33.58442070870054 79.46886811069577,33.15659369341813 80.0303910684679,32.162292018678386 80.55527143446616,31.358135684057597 81.17918583192517,30.36383400967203 82.04969496742751,28.910014429384095 82.44087939123118,28.272235267419045 83.07667787245131,27.25020406431655 83.15986645877919,27.103633697870322 83.20245109231557,27.040251917751963 83.25989083049434,26.949140608739594 83.21730619695795,26.901604273636067 83.17571190379402,26.865952022411726 83.12916590912198,26.838222493871882 82.98754724430192,26.774840713576438 82.95288533327295,26.755033907603043 82.9063393386009,26.73126573984468 80.23242049234798,25.25763935358335 77.95364743115245,22.199468465838812 77.8615457819447,22.151932130735286 77.81698046784048,22.136086685720457 77.78429923755643,22.136086685720457 77.74963732652745,22.147970769186436 77.66149703869148,22.21135254930479 77.59910559894557,22.227197994319624 77.32379099175384,22.21135254930479 76.6404561754892,22.223236633183973 76.16311214447641,22.21531391067656 76.07695253720826,22.20739118834623 75.71943968400208,22.104395795454675 75.63823177830108,22.033091292828903 75.5491011502107,21.91425045527669 75.5144392391227,21.850868675158335 75.48571937009234,21.763718727694815 75.49166141191387,21.656761974021784 75.60951190927072,21.383428047338843 75.48076766846617,20.89618061330984 75.47581596689903,20.749610246922646 75.5352363857637,20.5158899330129 75.58178238049476,20.432701346507947 75.58970510300217,20.337628676300895 75.5659369354209,20.309899147761055 75.45402848006268,20.22274919994336 75.38767567906307,20.14748333612291 75.31637117643729,20.004874331225537 75.20050135976633,19.648351818273756 75.18465591481053,19.624583650928596 74.99451057457351,19.386901975469996 74.80931693602169,19.176949828905414 74.77465502499273,19.153181661560254 74.73702209308249,19.145258939052837 74.62907499891895,19.129413494215093 74.55777049641124,19.109606687828492 74.41813251221802,18.99868857260661 74.22303547047291,18.772890981027196 74.12994348095174,18.531247944610037 74.0843878265341,18.41636846842959 72.3413888749616,17.63994166252573 71.6738995037118,17.418105432495167 71.64815065556269,17.398298626285655 71.62339214772702,17.382453181270822 71.49464790692247,17.291341872435538 71.43423714786246,17.239844176137336 71.36986502743068,17.180423757036568 71.33619345677415,17.14873286736108 71.31539631031025,17.12892606097448 71.20447819508836,17.002162500914853 71.15000947790891,16.918973914409897 71.10148280249196,16.847669411784125 71.07870497534216,16.81201716055978 71.02918795967081,16.736751296916413 71.00244877114925,16.697137684379335 70.91727950419452,16.47134009279992 70.88162725297019,16.37230606145722 70.86380112726947,16.320808365159014 70.84597500162778,16.25346522372792 70.82616819535924,16.087088051072183 70.62710979236041,15.920710878475475 68.00369830209227,13.151719362192592 65.63975597394202,12.917999048105761 64.15028414254779,12.086113185004162 63.17380859356779,11.543406693010047 63.137166001911964,11.206690986799037 63.430306734686354,10.810554861428235 61.633829406188795,8.374317690043625 67.0024642452766,10.493645961013534 67.42038785748377,10.497607322326273 67.98785285707744,10.497607322326273 68.37012421806027,10.513452767400134 68.4176605531638,10.513452767400134 68.59394112889477,10.517414128358697 68.80191259477347,10.58475726984882 68.97918351087691,10.711520830085535 69.22379756823435,10.826400306265981 69.42681733248688,10.854129835159995 71.79868238314457,7.68107947064472 73.84373513043036,7.32851831935985 74.27750418771139,7.336441041867266 76.08388491934322,7.368131931778873 77.33666541582839,7.383977376616618 78.93903604295328,7.71673172204615 79.34507557151738,7.63750449691296 79.76894122566415,7.589968161809436 80.15814496884096,7.53054774323993 80.59884640831598,7.407745544315953 81.07718077970122,7.25721381655699 81.44261635529675,7.142334340199457 81.75655423465312,6.999725335302084 81.95066093608482,6.865039052557953 83.76694507090994,6.088612246654093 83.96105177234163,5.914312351668027 84.40175321181665,5.244842299850399 85.18610274005084,3.989090782247868 85.55252865601884,3.6167228246354286 85.94074205888222,3.3473502592652253 87.28463386432072,1.889569318018729 87.86794430881118,2.1034828257779914 88.79886420349159,2.448121254673503 89.08111119275927,2.9630982175965177 89.24847870578745,3.2641616729963854 88.91473402010352,4.123777064814912 88.94939593107347,4.151506593708926 89.16231909846027,4.361458740273509 89.2316429204592,4.298076960155152 89.65550857454693,4.7100585303637 90.37548598240836,6.088612246654093 90.67654943780822,6.924459471304544 95.33907163336355,7.934606590941063 95.72530435554104,7.68107947064472 96.48192435505831,7.7127703609105 97.31480055865042,7.744461250763077 97.39006642247088,7.685040832193573 97.56634699826088,7.542431827119112 98.12588927528812,6.825425439961844 99.12712333222184,5.078465127017576 100.50666738876664,2.923484605236524 100.78297233621277,2.9947891078622972 101.10483293807656,3.046286803924386 101.59109003196922,3.125514028880489 102.51903890570934,3.2245480602231895 104.33136167922174,3.2602003116246197 106.47544845785023,2.9670595789682834 106.96665725331003,2.8640641862538168 107.49549898068005,2.4441598935378526 108.04315717400519,2.040101045659634 108.60963183328543,1.5370081664387145 109.01864238267176,0.9982630359344228 109.21076840347659,0.3604838737922861 109.66632494777107,0.7605813607119412 110.16149510448459,1.0537220931911908 110.26449049702197,1.0735288995777887 110.21992518285872,1.263674239755774 110.32787227702227,1.1686015697258103 110.55366986848362,1.0972970672771236 110.84582026100361,1.0339152869816794 111.23304332355357,1.0735288995777887 111.65987999858159,1.121065234681314 112.11345586213116,1.109181150802132 112.62843282517223,1.0814516220852048 113.09488311279635,1.0933357059643867 113.69106798142037,1.1963310986198241 113.86833889752381,1.1765242922922552 117.10477104186229,1.0259925644742636 120.079753343338,0.8833835593998034 123.85493061812174,0.7051223029239133 126.54964661095663,0.5783587428642853 137.0878578861334,0.08714994752254772 137.40575712674348,0.05545905725676797 137.74148249305426,0 138.14455100056003,0.04753633474935191 138.4723536443634,0.14260900489737344 138.73578416773498,0.26144984244958536 138.9239488272271,0.40802020889581125 139.2260026228223,0.5268610466251098Z"/></svg>