<svg xmlns="http://www.w3.org/2000/svg" width="256" height="256"><path d="M100.78063648603357,0.07458538737658973 101.25970416868742,0.14917077552261637 101.74594352315178,0.21801882529690067 102.23648588083924,0.25244285065425426 102.37418198124274,0.2639175256878792 102.41864634708352,0.275392200806997 102.52622142552376,0.2983415508742468 102.72846257290591,0.4073509636081901 103.08561183332748,0.6311071265928893 103.44849843126586,0.8892873152769138 103.78126400732648,1.1302554906410642 104.11402958321611,1.376961003693013 104.45540116546645,1.6294038546892393 104.79390407895838,1.8646346929640423 105.14961900508625,2.1170775436182967 105.4981622593181,2.369520394101565 105.83379650388063,2.616225907409993 106.17947108943957,2.8744060960085243 106.52658000903574,3.103899596681022 106.93393097272943,3.3104437472007766 107.59229045278366,3.6259973107964467 107.97238906344346,3.861228148814771 108.33240699245246,4.084984311713977 108.77418198124701,4.337427162453724 109.21739130442077,4.561183325694902 109.66633796511135,4.761990139125309 109.98762886605284,4.865262214256948 110.1554459884196,4.922635589168593 110.60152398043726,5.066069027088904 111.05907664731757,5.2554011654856865 111.22832810414903,5.31851187808513 111.60268937703555,5.490632003760489 111.8192738683807,5.5824294038585025 112.32129090110179,5.823397579222653 112.44177498895486,5.87503361704495 112.84912595273403,6.064365755441733 113.26651725699665,6.247960555894238 113.49314208891073,6.3684446434053275 113.54190945780364,6.397131330903896 113.95356342463494,6.661048856933747 114.3924697445856,6.913491707929974 114.63774092342932,7.056925145850284 115.12684894673758,7.372478708847504 115.26597938152028,7.4528014341683715 115.38646346937335,7.52738682180144 115.77516808613738,7.779829672541187 116.13088301217977,7.992111161005219 116.50811295391019,8.198655311268496 117.02877633356091,8.45109816226472 117.48632900061219,8.657642312784477 117.91806364866683,8.875661138337856 118.36557597497821,9.08220528885761 118.47171671912473,9.133841326423429 118.75714926050065,9.294486777065163 118.83747198590702,9.340385477456142 119.02967279254925,9.437920214985475 119.09565217399259,9.472344240342828 119.15302554924621,9.506768265529196 119.22330793374167,9.541192290117113 119.59910354109289,9.753473778581144 119.68229493508666,9.799372478459166 119.92039444203438,9.9542805914131 120.01506051106178,10.005916629235399 120.4424921560643,10.252622142287349 120.84267144786197,10.476378305785005 121.24858807717645,10.677185118702454 121.64589870030122,10.906678619545938 122.04320932325498,11.153384132597887 122.470640968343,11.411564321025432 122.90094128210393,11.646795159300234 123.36996862401786,11.859076646909337 123.89636934118539,12.105782160217766 124.34388166749676,12.31806364842532 124.80000000016885,12.547557149012324 124.9147467505051,12.59919318683462 125.01658449142852,12.650829224742411 125.21595697005226,12.736889287152627 125.40672344248627,12.811474674785694 125.56450022419861,12.880322725072938 125.6147019276417,12.903272075140187 126.05073957883396,13.132765576069163 126.2515463918369,13.224562976423655 126.67610936808103,13.396683101500564 126.78081577776285,13.436844464032758 127.00313760653933,13.52864186438725 127.39327655768258,13.712236664839756 127.65575974907675,13.844195427726442 127.72317346498478,13.878619453083795 128.12335275678245,14.067951591224098 128.55078440169947,14.25728372902243 128.9696100404268,14.469565217229983 129.16611385037763,14.595786642685349 129.33679964158827,14.704796055248307 129.60215150165536,14.853966831112896 129.7584939489885,14.94002689352311 130.01237113419296,15.066248319234955 130.0826535186884,15.094935006477046 130.14146122823573,15.12935903157792 130.2131779471959,15.163783057020767 130.34657104454726,15.226893769363732 130.70945764240017,15.462124607638534 130.81272971778827,15.559659345338853 130.87153742725013,15.622770058280269 131.01927386830803,15.8121021960786 131.29179740044214,16.150605109485042 131.36638278807519,16.236665172750186 131.41084715391597,16.30551322243898 131.5083818916163,16.43747198532566 131.55571492613,16.52353204859081 131.80098610497373,16.844822949275827 131.8798744958299,16.94809502440746 131.91429852093077,16.993993724541962 132.13088301219045,17.229224563073245 132.22841775006177,17.355445988357626 132.3919318693764,17.516091438913865 132.47225459444078,17.59067682663243 132.84948453617122,17.843119677030202 133.06176602429326,17.952129089849638 133.55087404768702,18.16441057831367 133.99264903648157,18.33653070364706 134.38995965943533,18.514388166753736 134.80161362626663,18.692245629518442 135.28354997776438,18.904527117725998 135.68946660707886,19.07090990571356 136.09968623944545,19.225818018923974 136.58735992854548,19.426624831841423 137.0434782609611,19.598744957516782 137.53832362178616,19.782339757969286 137.60860600645262,19.805289108036536 137.6917974004464,19.84545047056873 137.7850291350091,19.8856118333574 138.2024204393572,20.06920663380991 138.37310623056788,20.149529358788804 138.40753025558325,20.172478709198025 138.58395338422523,20.270013446641865 138.95257731976594,20.459345585038648 139.03863738243263,20.493769609883042 139.09314208884234,20.510981622604465 139.23083818924584,20.57409233520391 139.66113850300678,20.740475122934992 139.761541909551,20.780636485723665 139.81604661596072,20.803585836047393 139.8576423129576,20.820797848255857 140.02115643218676,20.883908560855303 140.3209323175257,20.998655311277044 140.4672344241189,21.044554011753515 140.52891080242466,21.061766024132968 140.70676826544585,21.124876737074384 140.98359480063203,21.228148812206022 141.11985656665632,21.274047512084042 141.36369341112086,21.383056925159956 141.40815777696164,21.40026893788138 141.77678171233137,21.612550425490483 142.36199013904624,22.014164051752847 142.78655311529036,22.266606902492594 143.29861048875136,22.58789780343409 143.71600179309945,22.880502016706032 144.0086060064569,23.247691618123998 144.25531151959433,23.586194531530438 144.48337068588762,23.907485432215456 144.77310623057215,24.34352308392067 144.95670103102466,24.67628865989579 144.9753473779543,24.72792469720513 145.05280143443127,25.152487673620236 145.10587180646178,25.686060062769286 145.15607350981938,26.127835051307365 145.27655759767245,27.361362617593024 145.4013446886631,27.309726579770725 145.82447333044254,27.143343791783167 146.30067234433795,26.948274316297034 146.75105333949324,26.758942178498703 147.15696996872222,26.59255939016917 147.21434334389033,26.563872703012574 147.67763334845844,26.351591214805023 148.10793366221938,26.173733751441862 148.52102196342986,25.99587628842068 148.66015239812708,25.944240250854858 149.05746302116634,25.783594800469604 149.46768265361843,25.617212012225565 149.88077095482893,25.433617211773058 150.21640519956244,25.169699685999685 150.48319139409423,24.84840878505819 150.55490811305438,24.68202599732711 150.59363514129288,24.50416853422043 150.53052442860795,24.29188704609837 150.46311071287087,24.17140295798883 150.07584043048604,23.505871806209573 150.39856566580676,23.43702375592233 151.32944867790957,24.38368444645286 152.51277454075213,25.21559838621968 153.67745405657956,26.317167189362173 156.80860600637996,25.42787987468371 158.0794262663539,25.16396234865386 160.3872702824917,24.687763334929414 161.73124159580502,24.245988346134855 164.06203496201007,23.459973106331553 168.6389959660472,21.81335723892089 168.94307485452376,21.899417301331106 169.08507395806487,21.945316001807576 169.516808606205,22.461676377978723 170.37740923372687,24.274675033376948 170.4405199463263,24.303361721131996 172.12012550437314,26.667144778144213 172.1416405200612,27.26956521749501 172.02115643229362,27.653966830864967 171.79883460351715,27.866248319329 171.67404751252647,27.93509636927427 171.93222770069752,28.084267144625898 172.21766024224445,28.17606454498039 172.53321380566913,28.216225907769065 172.8846257284884,28.13590318219172 173.4339757957232,27.88919766913977 173.68498431208374,27.774450918974505 174.3619901391531,27.338413267269296 174.62160466170337,27.194979829348984 175.04760197232667,27.085970416786026 175.3272971762713,26.98843567882923 175.44634692974515,26.902375616419015 175.6026893770783,26.713043478022232 176.26965486349323,27.286777229703475 177.0800537876575,27.93509636927427 178.24329896919122,28.778484984416682 178.59327655780226,28.996503809713584 179.0235768715632,29.19731062314399 179.5714926043333,29.34648139815365 180.00609592123183,29.44401613645242 180.4923352757817,29.530076198862634 180.51958762907205,29.6103989241835 180.6386373825459,30.012012550189386 180.76916181105338,30.3390407885622 180.9570596146435,30.614432989625676 181.34432989711382,30.975885253099367 181.6900044825018,31.96844464350792 183.49152846269538,35.90999551764356 185.44509188717004,40.190049305442116 189.52147019286528,43.546391752264434 191.31582250124836,47.16665172562956 193.91770506520828,48.88211564307099 194.46131779492626,49.32962796955334 194.76396234885263,49.58207081995112 194.82850739591677,49.62796952042759 195.1655759750295,49.880412371081846 195.28175705974496,49.96073509614623 195.3520394444114,50.000896458678426 195.4438368445949,50.0410578214671 195.80385477377487,50.28776333451905 196.18969072186601,50.55741819789473 196.62859704181668,50.75822501106865 196.72039444217117,50.7869116988237 197.1908561184643,50.86723442414457 197.22528014356516,50.83854773638952 197.67135813558284,51.03361721187565 197.73446884818227,51.050829224597074 197.7861048858336,51.0623038996307 197.8391752579496,51.068041237233004 198.15329448690957,51.073778574664324 198.2063648589401,51.07951591226663 198.41864634714764,51.125414612230145 198.50040340667672,51.15410129998519 198.65961452276827,51.21721201258463 198.83030031397894,51.291797399961226 199.2692066339296,51.440968175825816 199.3165396684433,51.45818018820526 199.7382339760145,51.6073509635569 200.34495741833194,51.848319139177526 201.00905423590297,52.16387270251671 201.44509188718072,52.34173016587987 201.8581801883912,52.473688928681064 201.91698789793853,52.50237561643611 202.28561183347924,52.71465710413071 202.33007619914903,52.73760645419796 202.38458090555875,52.7720304797263 202.44482294948529,52.81792917951883 202.80914388180287,52.88103989211827 202.85217391326447,52.903989242442 204.1143881669632,53.54657104415401 205.14567458552474,54.07440609595723 206.30748543276474,54.877633347968995 208.55365307059682,59.12326311092316 209.45728372949478,59.62241147437288 212.22554908127128,60.419901389295305 213.99408337082872,61.2575526670064 215.4069027343438,63.0418646343931 217.1209323174915,64.33850291362018 217.5397579562188,64.63110712655015 217.75490811309928,64.78027790241472 219.17776781726874,66.85719408350083 219.30972658015546,67.00062752142115 219.62528014358014,67.39650380982472 219.68265351883375,67.5284625727114 219.8547736443381,67.90712684890653 219.97382339781197,68.10219632439265 220.20905423608679,68.42348722559063 220.2463469297751,68.4865979379336 220.28220528925516,68.52675930072226 220.32666965509594,68.56118332590863 220.73258628432492,69.07180636499044 220.77561631578652,69.13491707758988 220.8143433439395,69.20376512753515 220.92048408800053,69.3242492153882 221.0395338415599,69.49063200337577 221.0926042135904,69.54800537862938 221.19874495756594,69.61685342891663 221.23890632018362,69.63406544129609 221.2733303452845,69.66275212879465 221.31636037666058,69.72586284190706 221.37516808620794,69.78323621664771 221.4052891081712,69.81192290465924 221.4483191395473,69.86929627982737 221.4483191395473,69.94388166754592 221.34504706424465,70.29385925598599 221.20017929203064,70.64383684416958 221.1270282386058,70.85038099494581 221.0883012103673,70.95365307007745 221.06391752592086,71.06266248315336 220.96351411937664,71.34379202130619 220.94630210682618,71.41837740928123 220.83729269400675,71.74540564791053 220.81721201278341,71.8199910355436 220.77848498445942,71.93473778545237 220.63505154653913,72.27324069911529 220.59919318705903,72.4224114747234 220.54612281502853,72.6576423129982 220.4887494399459,72.81255042595214 220.46866875855156,72.88713581332874 220.4342447335362,73.24858807680242 220.41272971776263,73.49529359011085 220.41129538346894,73.86248319127235 220.4485880772427,74.20672344236658 220.46866875855156,74.27557149256833 220.49305244299802,74.3444195425991 220.52173913058206,74.41326759288634 220.7211116093768,74.74029583151562 220.78852532519934,74.83783056921595 220.97929179763335,75.05011205716703 221.28623935469733,75.3312415959183 221.58601523995077,75.58942178400387 221.67781264030526,75.66974450932474 221.74809502480073,75.72138054689056 221.7825190499016,75.74432989695781 221.96898251919802,75.95661138516536 221.99480053810916,75.99103541000976 222.10237561654938,76.11725683520865 222.35051546406604,76.43854773649211 222.58000896482403,76.73115194967856 222.80519946227344,77.04670551301776 222.8783505156983,77.14424025097455 222.91707754385126,77.20735096391597 223.1193186914044,77.47126848960384 223.36458987033362,77.79255939037435 223.60555804586875,78.09663827859443 223.83505154662674,78.38924249186637 224.06167637854085,78.69905871777424 224.28973554483414,78.99740026890497 224.5493500673844,79.31869116993195 224.76593455864406,79.65145674565059 224.85342895577546,79.79489018357091 224.9108023310291,79.85800089642683 225.08865979396478,80.0358583595335 224.90793366218517,80.04159569713582 224.86346929651538,80.05307037216944 224.8190049306746,80.0702823843779 224.7745405650048,80.08175705941153 224.6856118334087,80.11618108485438 224.63541013022208,80.17929179745383 224.5952487676044,80.25387718483042 224.58090542372688,80.32846257297643 224.58951143008758,80.65549081109278 224.62680412386138,80.73581353641364 224.86633796518828,81.03415508728789 224.89645898715156,81.06284177478646 225.234961900729,81.31528462578268 225.27799193201957,81.38987001341576 225.30811295398286,81.4529807260152 225.3841326761661,81.85459435202108 225.4730614076767,82.11277454036313 225.4787987451935,82.33079336625849 225.50461676393368,82.39964141620375 225.63227252368276,82.74961900498579 225.6566562081292,82.85289108037391 225.67386822067965,83.11107126845948 225.6925145676093,83.15123263124816 225.7427162709669,83.21434334359112 225.99372478732744,83.53563424453262 226.08265351883801,83.67906768245292 226.24043030046488,84.01757059611585 226.26768265375523,84.12084267124749 226.27055132242813,84.30443747195648 226.29206633820166,84.38476019702085 226.33366203519856,84.48803227266545 226.37956073524757,84.55688032243974 226.435499776122,84.61999103529567 226.47422680427496,84.6429403856194 227.2215150158398,86.80591662954318 229.41604661602057,91.98673240679734 228.49663827903686,95.19390407861 229.0632003587366,99.22725235310013 229.7559838638917,104.13267593014575 228.1495293592697,106.70874047502355 228.6558493950429,106.99560735086418 230.28812191857605,107.35132227699204 231.93330345160751,108.95203944392622 233.34468848074337,111.88955625287616 235.7988346034744,118.52191842205487 236.12012550441588,123.70847153725332 236.6364858810145,127.23119677291812 235.8476019724528,127.00744060942046 234.64132675954298,126.73778574604478 234.41183325878498,126.68614970847896 234.10345136734182,126.67467503344534 233.126669655019,126.68041237138962 232.95454952960011,126.71483639623402 232.70497534761878,126.77794710883346 232.46400717182715,126.85253249646652 232.1584939490569,127.04760197220914 231.92900044838441,127.19103541012944 231.73106230413987,127.33446884804975 231.54029583179135,127.50085163612282 231.40116539692315,127.64428507404313 231.22617660257487,127.83361721184146 230.7800986107282,128.35571492595687 230.60941281951753,128.55652173938728 230.4071716720499,128.79175257740562 230.2221425371327,128.98108471520393 229.95965934573854,129.1876288657237 229.7574181983564,129.32532496655466 229.5279246975984,129.50318242931937 229.28121918454644,129.70972657983913 229.0646346932013,129.90479605532525 228.87530255506098,130.065441505967 228.66158673255973,130.24903630667598 228.45360824757526,130.4326311071285 228.27288211579568,130.59901389485955 228.08785298087847,130.75965934575777 227.85405647706835,130.96620349627753 227.7766024205914,131.03505154656477 227.68050201718478,131.12111160897499 227.47969520409634,131.30470640968397 227.28175705976633,131.49403854773877 226.9561631557727,131.93581353653335 226.65782160481297,132.26857911233748 226.37382339773075,132.61855670077753 226.2117436128808,132.81362617652013 225.99802779046504,133.0201703270399 225.82447333049598,133.17507843999383 225.36405199477176,133.59390407872115 225.07431645017274,133.8635589424388 224.85199462148177,134.05862841792492 224.5909457643813,134.2192738682247 224.38727028253444,134.34549529376554 224.2237561633908,134.46597938127664 224.02581801906075,134.56925145700671 223.130793366438,134.95365307029118 222.90703720319684,135.0626624833671 222.58431196787615,135.09134917078018 221.7796503812287,135.16593455849875 221.35365307051987,135.16593455849875 220.88175705976207,135.11429852093292 220.4457194084843,134.83890632012591 220.2133572391389,134.58072613204035 219.67835051561065,134.13321380530152 219.30972658015546,133.7717615420843 219.1074854327733,133.46768265326577 218.9167189603393,133.14065441489296 218.74316450045572,132.82510085181025 218.44912595263358,132.30300313743834 218.3702375617774,132.08498431188497 218.34728821171015,131.82106678636808 218.34728821171015,131.52272523523735 218.43478260884154,131.2243836843631 218.61837740946504,130.93751680852247 218.8206185569327,130.51295383244934 218.99273868235156,130.22034961892092 219.11178843582542,130.03675481821193 219.36996862408196,129.66956521756342 219.5177050651399,129.46875840447498 219.6625728374394,129.27368892898883 219.82465262237486,129.06140744052482 220.00681308844815,128.83191394019428 220.178933214038,128.6081577769531 220.33384132699194,128.40161362643335 220.47010309301626,128.20654415060525 220.69385925608645,127.90246526238518 220.86741371597003,127.65002241138895 220.9893321382023,127.4377409231814 221.05387718526643,127.17956073483934 221.05818018840404,126.97875392226386 221.05818018840404,126.71483639623402 221.05100851659353,126.43944419517054 220.92909009427575,126.17552666939717 220.74692962828794,125.92882115634522 220.4830121024291,125.67064096800317 220.13877185133484,125.4583594797956 219.54495741843024,125.15428059183202 205.09834155101103,144.0530703718702 201.8036754819815,155.86051098181218 200.74370237583588,159.66436575511685 201.70040340667887,161.93061407434325 204.067055132364,166.68686687603724 205.76243836866757,170.08337068573374 206.093769610178,170.90380995046692 206.56996862415892,172.07422680389666 206.27019273890548,172.0971761542204 205.85567010323027,172.4356790679688 205.8155087406126,172.45289108009177 205.77678171237412,172.48157776759035 205.76243836866757,172.52173913037902 205.7681757061844,172.75123263096603 205.82698341564623,172.84876736900833 206.04787091004349,173.18153294472697 206.26732407006156,173.50282384601044 206.330434782832,173.56593455860988 206.67754370259914,173.82411474669544 207.02465262236632,174.04213357224882 207.36889287328955,174.22572837270133 207.4219632453201,174.23720304799144 207.86230389973542,174.37489914856593 208.29547288225476,174.50112057350833 208.75015688054765,174.61012998658424 209.1919318692567,174.7306140746938 209.62796952053446,174.83962348717125 209.76709995540264,174.88552218764772 209.80295831488272,174.91420887480433 210.3939040791144,175.06911698810023 213.9281039893854,184.1800089647129 214.8130883013537,186.14791573280857 216.36503809973695,190.62303899609324 216.7006723444705,190.7377857462585 216.78960107598107,190.66893769597127 216.83693411049478,190.66893769597127 217.03487225482482,190.67467503365907 217.174002689522,190.70336172141413 217.219901389742,190.7205737335371 217.55123263125245,190.84105782139017 217.59426266262852,190.86974450940167 217.88256387293384,191.12792469723078 218.16082474241375,191.39757956060646 218.42761093703103,191.67870909910124 218.6484984314283,191.98278798732133 218.90380995084095,192.2581801881283 219.00708202622909,192.344240251137 219.1562528016662,192.665531151822 219.58368444658325,194.21461228170332 219.7945316004116,194.86293142110313 219.86051098185493,196.03334827453287 219.86768265375096,196.14809502444166 219.82752129104776,196.2685791125512 218.03173464837096,198.43729269373532 217.2528910803782,198.78153294482956 217.0363065891185,199.40690273407662 217.22133572403573,201.4666069025268 217.33608247437198,202.89520394464054 217.69466606917274,204.243478260835 217.8108471539737,204.77131331263823 217.79076647257935,204.8860600628035 217.77929179754574,204.92622142559216 217.77498879449362,205.00080681296873 217.78359480068335,205.0753922008583 217.78933213820014,205.19587628845488 217.74486777253034,205.31062303887663 217.74486777253034,205.63191394016008 217.73913043501352,205.71223666548096 217.60717167212684,205.98762886620247 217.56987897818206,206.0507395788874 217.3102644556318,206.33760645472802 217.10085163626815,206.63594800560227 217.06786194546098,206.71627073092313 217.00475123286154,206.88265351865422 216.82832810413407,207.20394441933922 216.65190497557757,207.51376064550357 216.45683549992046,207.82357687149695 216.29905871829362,208.05880770977174 216.27467503384716,208.09323173461615 216.1584939490462,208.43747198596685 216.1068579113949,208.55795607373443 215.92900044845922,208.907933661918 215.7841326760742,209.27512326333598 215.66221425384194,209.63657552689517 215.52021515030083,209.99802779036887 215.43415508754865,210.27915732877815 215.29502465285142,210.68077095478404 215.29072164962832,210.87010309266788 215.23478260892492,211.1282832810099 215.2204392650474,211.202868668643 214.71411922918867,211.70201703269117 213.1621694309764,212.54540564774808 211.4452711789848,213.08471537407198 210.77543702389696,213.41748095038906 208.65835948019316,216.35499775874055 207.38323621716708,218.01308830118484 207.13366203510026,218.03030031390628 207.08776333496576,218.03030031390628 206.99596593469676,218.05324966371705 206.94863290018304,218.07046167643847 206.90273420004854,218.08193635147208 206.85540116553486,218.08767368881792 206.80806813110664,218.08767368881792 206.75930076212825,218.08193635147208 206.71053339323532,218.0761990137843 206.66320035872164,218.08767368881792 206.6029583147951,218.12209771426078 206.35051546405535,218.27700582695823 206.13536530717488,218.39175257712347 206.0952039445572,218.4147019274472 206.06364858821473,218.47781264038863 206.0493052445082,218.55239802802168 205.71653966844758,218.78189152835222 205.44545047086368,218.89663827903044 205.4009861050229,218.91958762918318 205.359390408026,218.94253697899396 205.32640071738982,218.971223666749 205.35221873613,219.05154639206987 205.405289108246,219.1031824296357 205.38090542379953,219.17203047983745 205.29627969542656,219.20071716707952 205.24751232644815,219.21219184211316 204.91761541923145,219.2810398924004 204.87028238471774,219.292514567434 204.82151501582484,219.30398924246765 204.67951591228373,219.31546391775774 204.20188256400908,219.30972658015546 204.01541909471268,219.27530255496907 203.9264903632021,219.26956521762324 203.699865531288,219.22940385483457 203.6554011655327,219.22366651714677 203.6109367998629,219.22366651714677 203.43738233997934,219.25809054258963 203.39291797413853,219.26382787967898 203.2322725236678,219.27530255496907 203.17920215163727,219.27530255496907 203.04580905437138,219.30398924246765 203.00134468870158,219.31546391775774 202.94540564782716,219.32120125518907 202.89663827893426,219.30398924246765 202.86364858829808,219.26956521762324 202.82492155997411,219.24087852961173 202.781891528769,219.21219184211316 202.6872254595706,219.18350515487106 202.25692514580967,219.16629314223513 202.16082474240307,219.16055580454733 202.11349170788935,219.16055580454733 202.01882563886195,219.17776781726874 201.97292693881295,219.1949798299902 201.93563424486817,219.21792917980096 201.91698789793853,219.33267592996623 201.8969072167152,219.40726131759928 201.8667861947519,219.43594800535433 201.48668758417762,219.55643209346388 201.10085163625746,219.61954280580684 201.05351860174375,219.63101748084046 200.96028686701007,219.66544150594135 200.6920663380991,219.8834603318367 200.36934110277838,220.14737785752456 200.32344240272937,220.17606454527962 199.93760645463826,220.22196324524313 199.455670103226,220.26786194512115 199.35096369362967,220.27933662041124 198.97660242057216,220.31949798319994 198.88623935468237,220.34244733335268 198.84177498901258,220.348184670442 198.69834155109226,220.36539668316345 198.4860600628847,220.39408337091848 198.39426266270118,220.40555804595212 198.3426266249644,220.41703272098573 198.29959659375928,220.43424473336518 197.90802330806585,220.54325414592816 197.48632900066562,220.6981622588821 197.26974450940597,220.77848498420295 197.21954280604837,220.78422232214723 197.16790676848254,220.7899596592366 196.97570596158383,220.78422232214723 196.924069924018,220.77848498420295 196.8222321830946,220.76701030916934 196.66158673262385,220.77848498420295 196.61568803240385,220.7899596592366 196.57122366673406,220.8014343342702 196.10076199026992,220.91044374708963 196.0017929181049,220.92765576006755 195.54137158238072,220.93913043484469 195.06373823410607,220.96781712259974 194.61909457655312,221.0366651728015 194.5215598388528,221.0424025102328 194.03101748116535,221.0481398478351 193.58493948914767,221.07108919798785 193.09726580021862,221.128462572643 192.87924697457976,221.14567458536445 192.75302554929536,221.1686239354317 192.70425818040246,221.18009861072179 192.60385477385825,221.19731062293025 192.55078440174222,221.20304796087453 192.18216046628703,221.24320932306475 192.07888839098442,221.2604213355297 191.90389959680712,221.2776333485076 191.4363065891014,221.3522187358842 190.96154190958518,221.4095921113943 190.462393545708,221.4841774987709 189.996234872467,221.55876288640394 189.55732855234535,221.63334827463547 189.00224114759374,221.7882563875894 188.80860600648683,221.99480053810916 183.57328552239545,223.102106678683 179.17991931889634,224.38727028227797 177.55768713593213,225.12738682228874 175.96414164072297,225.8445540118903 173.32066337976613,227.93294486801003 172.34244733323513,232.00071716708808 172.0139847603976,233.72765575956313 171.9623487226608,234.0948453609811 172.02259076658734,234.2382787989014 172.0914388168746,234.34728821163534 172.12155983883784,234.43334827438753 172.15454952947402,234.62268041244235 172.12442850751074,234.97839533831373 172.07852980737624,235.33411026469807 172.0154190948623,235.68982519082593 171.94370237590215,236.039802779266 171.85620797859977,236.38978036770607 171.78879426277723,236.73402061845835 171.80744060970687,237.10121021987632 171.83469296299722,237.17005826965058 171.925056028887,237.29627969510597 171.93796503821434,237.38233975811463 171.8246526222573,237.7839533841205 171.84186463489323,238.73635141199688 172.06705513242812,239.32729717639953 172.30945764242796,239.87808157767157 172.4643657553819,240.40017929204345 172.71680860612165,241.20914388148654 172.4184670552474,241.6968175707576 171.4990587181782,243.20000000024794 172.22339757976127,243.7278350514527 172.90900941293486,244.1810847152809 173.72801434345982,244.90398924257025 174.2716270731778,245.51788435704015 174.93572389083434,246.0916181087214 175.62994173036864,246.91779471080042 175.9741819812919,247.43989242517233 176.52066337985377,248.56441057821107 173.06535186035347,249.97005826991563 173.4798744958577,250.91671896018968 173.5774092336435,251.13473778574306 173.17436127317293,251.289645898697 172.2477812642077,251.57077543719177 169.26293142100056,252.56907216494616 167.79560735116127,253.17722994198476 167.77265800100852,253.25755266679266 167.7224562978219,253.36656207986857 165.94675033628295,255.1738233978355 165.6900044824056,254.95580457176916 165.61685342906625,254.8525324966375 165.56952039455254,254.72631107143863 165.38162259104791,254.03783056950664 165.3170775438128,253.91734648173906 165.25253249674864,253.83128641847392 165.12057373386196,253.71653966830866 164.96709995537273,253.61326759292052 164.83800986115895,253.53868220554395 162.56315553574282,252.4600627523832 160.69995517724348,251.55930076207267 159.7346481399543,251.04294038538856 159.2857014794347,250.7503361724586 159.0978036755881,250.61264007162762 158.88121918432844,250.44051994646523 158.62017032739897,250.08480502042286 158.19273868231096,249.5397579561547 157.76674137177312,248.94307485414973 157.00654415079546,247.77265800097646 156.95921111628178,247.68086060062197 156.7842223219335,247.3251456744941 156.6034961901539,247.0095921114114 156.33527566124292,246.61945315992617 156.07135813546955,246.37274764661774 155.70703720315197,246.18341550881942 155.52774540575157,246.12030479621995 155.09027342026562,245.86786194522375 153.56844464376013,245.56378305717465 153.0434782609718,245.56952039460597 152.00071716729113,245.5809950693831 151.3954280593529,245.6670551323063 150.80304796074202,245.70147915749266 150.15903182447983,245.75311519505848 149.5996414165051,245.99408337093558 139.86911698799122,247.26203496189467 139.1175257732888,247.1874495742616 138.37167189610318,247.0095921114114 137.65307037212241,246.8374719858215 137.26293142097919,246.8202599731001 136.78099506956693,246.74567458572352 135.78413267602076,246.8374719858215 128.80609592136864,247.2390856120839 128.12048408793856,247.2792469746161 122.00304796072278,251.24948453590832 121.65163603781802,252.19040788875105 121.54406095937779,252.7239802779001 121.2744060960876,253.21165396691464 120.69206633804565,254.07799193178235 120.47691618116518,254.32469744534725 120.24025100868216,254.6345136713406 120.15705961468838,254.46813088326755 120.03514119237063,254.41649484544527 117.3041685343679,255.95410129978 117.10049305252106,256 116.95132227708395,255.93115194971276 116.49376961020364,255.1738233978355 115.3663827880645,254.45091887063163 115.1741819812513,254.2960107576777 115.00636485897002,254.2902734199899 114.52729717631618,254.10094128219157 114.05683549985207,253.842761093764 113.84025100867788,253.89439713158632 113.34397131347362,253.9804571943385 112.76306588981086,253.98619453168433 111.84939489034397,254.3878081580322 111.66866875847889,254.53697893304184 111.34737785762289,254.8525324966375 111.03469296287112,255.0533393100679 110.4824742270489,255.34594352299789 110.44087852988103,255.56396234880773 109.32353204848181,255.0361272973465 108.82868668765673,254.8353204839161 108.29224562983477,254.44518153294382 107.93222770065479,254.12389063225882 107.55069475578676,254.07799193178235 107.12039444202583,254.07225459443652 106.50649932781239,254.1468399820696 104.44679515919123,254.45665620823394 103.98207082032943,254.41649484544527 103.86732406999317,254.26158673223483 103.76548632906976,254.03209323190433 103.74827431651931,253.84849843119534 103.49583146586507,253.750963693666 103.63496190056227,252.95921111591844 103.42985208442173,252.61497086542263 103.21613626183496,252.41416405199223 102.46741371597643,251.17489914827524 102.48462572852686,250.95688032297835 102.44303003152999,250.66427610919345 102.2709099061111,250.43478260886292 101.8965486329681,250.33724787082062 101.5723890632682,250.18233975786669 101.31851187823474,249.8610488571817 101.15786642776399,249.59713133115181 101.50640968182486,249.5512326311883 101.58386373830183,249.51680860583096 101.09905871821667,248.83980277901807 101.08471537433914,248.66768265334272 101.17651277469363,248.48982519057802 100.75481846712243,247.9333034516182 100.07207530262174,246.6424025103354 99.83684446451792,246.27521290917392 99.636037651344,246.20062752119887 99.37498879432904,246.07440609574348 99.10820259988274,245.7301658452477 98.84285073964469,245.43182429428796 98.69941730172437,245.13922008084504 98.60618556716166,244.8753025548152 98.57032720768159,244.62285970407544 98.45558045725984,244.30730614107821 98.35948005385323,244.11797400268145 98.23756163162098,243.9114298519052 98.20026893784718,243.70488570164193 98.14576423143747,243.5098162261558 98.03962348746192,243.28606006265815 98.14863290011037,243.18852532487233 98.60331689831776,242.89018377399807 98.81129538330221,242.7983863739001 99.5471089198334,242.54020618555802 99.66472433901356,242.52299417309308 100.04051994636477,242.54020618555802 100.1452263559611,242.29923801019387 100.0046615868847,241.61649484518023 99.84545047070766,241.62796952021387 99.80815777693387,241.49027342023783 99.68480502023691,241.04849843144328 99.57579560741748,240.70999551803683 99.51555356357643,240.38296727940752 99.4051098162923,240.06167637812405 99.30183774098968,239.72317346471763 99.23298969087342,239.44778126391063 99.14262662489813,239.24123711339087 99.04365755290411,239.0805916630056 99.11250560293487,238.885522187263 99.2272523533566,238.54128193651073 99.38789780374186,238.13393097256056 99.54854325421262,237.875750784475 99.68480502023691,237.65773195892163 99.80385477371077,237.43971313302626 99.9630658898878,237.2216943074729 99.44383684461629,236.9979381442317 99.1282832811061,236.8545047063114 98.84141640526548,236.682384581149 99.0809502465924,236.49878978044 99.41801882579063,236.2119229045994 99.63460331705029,236.02832810423237 99.78233975802272,235.8045719409912 99.84114746757005,235.6611385030709 99.80672344255467,235.36853428954248 99.76082474250566,235.11035410120041 99.71062303906257,234.8808606008699 99.61308830127675,234.68005378743948 99.48686687590688,234.496458986987 99.33195876295294,234.32433886131162 99.15983863744857,234.1464813985469 98.97624383699606,233.9686239357822 98.70515463924119,233.75060510963038 98.39390407895411,233.4924249215448 98.10273419997588,233.23998207106155 97.95069475578035,233.1309726580711 97.6537875392853,232.91869116986356 97.18332586299218,232.57445091876932 96.90363065904756,232.30479605539364 96.75159121476655,232.1154639178518 96.65692514582463,231.9318691171428 96.60385477379413,231.7884356792225 96.51636037657724,231.6392649036144 96.39013895137835,231.46714477819552 96.28973554466315,231.32944867770652 96.17355446003319,231.17454056500907 96.1764231287061,231.11716718949896 96.15921111615566,230.97947108926644 96.13482743170921,230.92783505170064 96.07171671910977,230.89914836394559 95.96270730620483,230.85898700115692 95.73034513677393,230.7786642760925 95.44778126407093,230.66965486361505 95.10354101314766,230.5319587627841 94.95437023771055,230.4401613624296 94.83101748101359,230.33115194986664 94.71053339324602,230.2221425371327 94.58431196787615,230.1131331240568 94.43944419549113,229.99264903620372 94.23003137612749,229.79184222337176 94.04356790683107,229.63693411041783 93.89152846272104,229.54513671006333 93.77247870933267,229.51071268513346 93.65199462139412,229.49923801009982 93.48848050207947,229.5164500223083 93.33357238912554,229.53939937237556 93.21739130441009,229.5738233978184 92.96638278804954,229.6943074853295 92.76557597496111,229.89511429850342 92.50883012108375,230.05002241145735 92.15885253272918,230.19345584937764 91.90210667868084,230.36557597505302 91.48184670565982,230.6008068133278 91.0587180637949,230.84751232637976 90.98987001350766,230.83603765134615 90.78906320050471,230.6753922007044 90.56961004040114,230.52622142569476 90.28704616778363,230.4401613624296 89.94137158239567,230.34836396233158 89.24858807715508,230.01559838661294 88.87566113864777,229.9869116988579 88.78816674160187,230.10165844902315 88.48552218741902,230.2967279245093 88.26750336186565,230.45163603746323 87.88883908567054,230.69834155077166 87.70524428521803,230.82456297656898 87.48005378759765,231.01963245205513 87.22761093694339,231.15732855203115 86.93644105787968,231.26633796510708 86.66965486334789,231.3753473780975 86.57642312878518,231.47288211562682 86.61228148826527,231.6450022413022 86.78009861071752,231.94908112977873 86.83316898266254,232.155625280384 86.82169430762892,232.37364410593736 86.79731062318247,232.4711788436377 86.71985656670549,232.58018825620064 86.61945316007578,232.63756163171072 86.49610040346431,232.63756163171072 86.3139399374765,232.54576423161274 86.09878978059604,232.4023307936924 85.92236665178308,232.2761093678951 85.82770058284116,232.10972657990752 85.73877185133057,231.926131779455 85.63119677289033,231.81138502903326 85.55230838194868,231.81138502903326 85.34432989704972,231.89744509195643 85.08614970870767,231.8744957416327 84.95132227723356,231.8228597040669 84.95849394895858,231.7482743166903 85.0115643209891,231.68516360409086 85.12774540570454,231.50156880338187 85.12487673694615,231.4155087403732 85.106230390102,231.3696100404952 85.03021066791874,231.3237113402752 84.95132227723356,231.30649932789575 84.76485880785165,231.34092335274013 84.40197220982778,231.46140744084968 84.05773195881903,231.696638278868 83.7651277454616,231.8744957416327 83.51555356356575,231.89744509195643 83.22725235326043,231.8744957416327 83.02644554025748,231.9146571044214 82.7080233080744,232.04087852987675 82.4412371136281,232.19578664283068 82.2060062753533,232.4023307936924 81.99229045285205,232.52281488146 81.76996862407556,232.61461228155798 81.61792917979454,232.76378305690963 81.5949798297273,232.8957418200528 81.63370685805127,233.06786194547166 81.61219184227772,233.20555804570418 81.49457642318308,233.4006275211903 81.33249663833313,233.67028238482246 81.19910354106723,233.87108919748343 81.04132675944038,234.04894666076112 80.83047960561203,234.26696548665646 80.65262214267634,234.43908561173336 80.42025997324544,234.496458986987 80.20510981636497,234.48498431195335 80.06024204397997,234.38171223682173 79.9827879875885,234.24975347367857 79.94549529364372,234.0259973104374 79.8924249216132,233.83666517289552 79.79202151515447,233.6817570599416 79.67297176168061,233.61864634700018 79.46355894231696,233.5899596595871 79.09350067248256,233.54406095911062 78.81380546845246,233.4924249215448 78.55705961457511,233.4580008967004 78.31035410143767,233.47521290907986 78.06077991937083,233.4924249215448 77.73805468405013,233.4981622592326 77.39094576436847,233.51537427186852 77.12129090107828,233.51537427186852 76.85593904084021,233.46373823378977 76.61783953389251,233.47521290907986 76.40268937701204,233.50963693426624 76.26355894222934,233.63585835946512 76.18036754823555,233.7735544599541 76.2506499328165,233.93419991033937 76.4356790677337,234.06042133579473 76.68812191847346,234.16369341126833 76.86454504720093,234.28417749877943 76.91331241600834,234.3759748993904 76.87458538776986,234.4562976241983 76.7153742717638,234.59399372502926 76.50309278355626,234.93823397578154 76.33957866432709,235.16772747671052 76.12155983868823,235.44885701460686 75.90927835056617,235.70703720294892 75.70703720309852,235.9709547287223 75.6424921560344,235.99964141647735 75.57077543707423,235.95948005394513 75.41730165858499,235.81604661602483 75.21936351416947,235.58655311509585 75.0529807262674,235.45459435255114 74.94827431650008,235.41443299001895 74.79193186916694,235.34558493947523 74.5925593905432,235.22510085162216 74.30712684908178,235.03003137587956 74.06185567023805,234.8808606008699 73.79076647248317,234.80053787554903 73.49529359036733,234.7833258628276 73.29448677727889,234.77185118779397 73.10085163608647,234.81201255058266 72.89574181994593,234.8349619003934 72.76378305705924,234.76037651301684 72.61891528467423,234.6398924249073 72.56297624388532,234.59399372502926 72.48121918427073,234.387449574424 72.38511878086412,234.1407440608591 72.29619004935353,233.97436127287156 72.15705961457083,233.77929179738544 71.98493948906646,233.60143433462073 71.84294038561085,233.4924249215448 71.60770954733604,233.4006275211903 71.39399372483477,233.3604661586581 71.18027790241901,233.36620349634592 70.95795607355703,233.41783953391175 70.64957418211385,233.47521290907986 70.39426266253021,233.51537427186852 70.10022411479358,233.54406095911062 69.82483191407206,233.52111160929985 69.57382339771152,233.53832362202127 69.29843119690453,233.60717167171006 69.01586732411602,233.67028238482246 68.72039444200018,233.75060510963038 68.54540564782289,233.83666517289552 68.3173464815296,233.96288659783792 68.04912595261862,234.01452263540375 67.75939040793409,234.08910802354978 67.55428059170805,234.04894666076112 67.24733303464409,233.97436127287156 66.98341550878521,233.88830121046135 66.66212460792921,233.70470640975236 66.40681308834556,233.60717167171006 66.02814881232143,233.4924249215448 65.70685791137994,233.38341550898184 65.56342447345963,233.32604213381373 65.39991035414498,233.27440609599142 65.07575078444508,233.2285073960279 64.70425818023148,233.1826086958934 64.52496638283108,233.1711340208598 64.18359480058075,233.15392200788187 63.78054684002467,233.14818467045058 63.463558942220786,233.17687135794912 63.17382339762175,233.25145674618065 62.94576423141395,233.3604661586581 62.656028686729435,233.52111160929985 62.524069923842745,233.56701030917787 62.29601075754945,233.56701030917787 62.29601075754945,232.31053339333792 61.87718511882215,232.31053339333792 61.87718511882215,231.47861945322913 61.66490363070008,231.47861945322913 61.458359480094835,231.47861945322913 61.38090542361787,230.48606006290606 61.35939040792982,230.2221425371327 61.040968175746734,230.2221425371327 61.040968175746734,229.39596593445523 61.040968175746734,228.9714029583821 60.87888839089678,228.9714029583821 60.62214253701942,228.9714029583821 60.571940833832805,228.31734648137999 60.557597489955285,228.133751680671 60.20475123267132,228.133751680671 60.20475123267132,227.22151501558332 60.20475123267132,226.88301210217688 59.78879426278791,226.88301210217688 59.78879426278791,226.13715822482027 59.78879426278791,225.62653518625143 59.590856118372386,225.62653518625143 59.3714029584398,225.62653518625143 59.3714029584398,225.0528014345702 59.3714029584398,224.37579560724436 59.15625280155934,224.37579560724436 58.952577319712496,224.37579560724436 58.952577319712496,223.72173913049872 58.952577319712496,223.1193186914044 58.767548184795295,223.1193186914044 58.535186015364395,223.1193186914044 58.535186015364395,222.36199013927066 58.535186015364395,221.8685791125683 58.38458090554806,221.8685791125683 58.11636037663708,221.8685791125683 58.11636037663708,221.00797848504644 58.11636037663708,220.19901389543236 57.87826086977486,220.19901389543236 57.698969072374474,220.19901389543236 57.698969072374474,219.59659345599607 57.698969072374474,218.94253697899396 57.508202599769476,218.94253697899396 57.28014343356167,218.94253697899396 57.28014343356167,218.18520842660374 57.28014343356167,217.69179740049984 56.862752129128076,217.69179740049984 56.862752129128076,216.7852980725015 56.862752129128076,216.43532048406144 56.44679515915917,216.43532048406144 56.38225011218052,215.44276109390935 56.369341102682206,215.1845809053108 56.02940385489656,215.1845809053108 56.02940385489656,214.08874943951415 56.02940385489656,213.5150156878329 55.851546391875374,213.5150156878329 55.61057821608376,213.5150156878329 55.61057821608376,212.74621246066553 55.61057821608376,211.83971313326566 55.193186911821144,211.83971313326566 55.193186911821144,211.33482743152967 55.193186911821144,210.17014791604421 54.77436127309384,210.17014791604421 54.77436127309384,209.91196772736018 54.77436127309384,209.39560735093258 54.77436127309384,209.3324966383331 54.60367548188318,209.3324966383331 54.35696996874574,209.3324966383331 54.35696996874574,208.48910802353268 54.35696996874574,208.081757059839 53.938144330018424,208.081757059839 53.938144330018424,207.21541909437286 53.938144330018424,206.8310174810884 53.76458987013485,206.8310174810884 53.523621694343234,206.8310174810884 53.523621694343234,206.29744509219583 53.523621694343234,205.9933662033773 53.10192738694301,205.9933662033773 53.10192738694301,205.36799641413023 53.10192738694301,204.73688928719537 52.68740475126782,204.73688928719537 52.68740475126782,204.44428507400892 52.68740475126782,203.48614970844477 52.268579112540515,203.48614970844477 52.268579112540515,202.64849843124662 51.85118780819241,202.60259973085564 51.85118780819241,201.8165844914798 51.4323621694651,201.8165844914798 51.4323621694651,200.9789332141107 51.01497086511699,200.9789332141107 51.01497086511699,200.56010757538337 50.82277005830378,200.56010757538337 50.59614522638969,200.56010757538337 50.59614522638969,200.1929179742219 50.59614522638969,199.7281936350181 50.18162259079999,199.7281936350181 50.18162259079999,199.52164948475485 50.18162259079999,199.30936799663277 49.759928283314274,199.30936799663277 49.759928283314274,198.8503809951168 49.759928283314274,198.47171671917818 49.52756611396887,198.47171671917818 49.345405647724576,198.47171671917818 49.345405647724576,198.17337516830392 49.345405647724576,197.63980277915488 48.92658000899727,197.63980277915488 48.92658000899727,197.22097714042755 48.753025549113694,197.22097714042755 48.50918870464916,197.22097714042755 48.50918870464916,196.8308381894553 48.50918870464916,196.38332586271648 48.090363065921856,196.38332586271648 48.090363065921856,195.96450022398915 47.67297176157375,195.96450022398915 47.67297176157375,195.13258628422233 47.25414612284644,195.13258628422233 47.25414612284644,192.2581801881283 47.25414612284644,191.7877185120917 46.836754818498335,191.7877185120917 46.76503809953818,189.26329000426674 46.74065441509173,188.44858807713584 46.41792917977103,188.44858807713584 46.41792917977103,187.61093679976673 46.641685343012206,187.61093679976673 47.25414612284644,187.61093679976673 47.25414612284644,187.1921111610394 46.836754818498335,187.1921111610394 46.836754818498335,186.77328552205563 46.41792917977103,186.77328552205563 46.41792917977103,185.7577767818363 46.41792917977103,185.1037203045777 46.836754818498335,185.1037203045777 46.836754818498335,184.2660690271231 47.25414612284644,184.2660690271231 47.25414612284644,183.8529807260836 46.04069923804061,183.8529807260836 45.16718960110592,183.8529807260836 45.16718960110592,183.4341550873563 44.330972658030504,183.4341550873563 44.330972658030504,182.59650381015814 45.16718960110592,182.59650381015814 45.16718960110592,181.34576423115107 45.58458090553952,181.34576423115107 45.58458090553952,180.92693859242377 46.00340654418133,180.92693859242377 46.00340654418133,180.57122366663785 46.00340654418133,180.0892873153111 46.41792917977103,180.0892873153111 46.41792917977103,179.6704616765838 46.00340654418133,179.6704616765838 46.00340654418133,179.25737337520232 45.16718960110592,179.25737337520232 45.16718960110592,178.83854773647502 44.929090094158205,178.83854773647502 44.330972658030504,178.83854773647502 44.330972658030504,178.0008964591059 43.9121470193032,178.0008964591059 43.9121470193032,177.16324518139479 43.49332138057589,177.16324518139479 43.49332138057589,176.33133124162796 43.07449574193407,176.33133124162796 43.07449574193407,175.07485432518956 42.66140744072358,175.07485432518956 42.66140744072358,174.24294038542277 42.24401613646097,174.24294038542277 42.24401613646097,172.98646346949732 42.66140744072358,172.98646346949732 42.66140744072358,171.31689825176292 42.83926490365927,171.31689825176292 43.07449574193407,171.31689825176292 43.07449574193407,168.80968175717237 42.66140744072358,168.80968175717237 42.66140744072358,167.69090094147944 42.66140744072358,165.0517256837457 42.24401613646097,165.0517256837457 42.24401613646097,164.08785298083572 42.24401613646097,162.1256835498294 42.08480502019844,162.1256835498294 41.825190497648165,162.1256835498294 41.825190497648165,159.52093231719655 41.825190497648165,158.3677274766592 41.40636485892086,158.3677274766592 41.40636485892086,155.02285970410108 41.825190497648165,155.02285970410108 41.825190497648165,154.59255939034017 41.825190497648165,152.51564320916856 42.07476467962951,152.51564320916856 42.24401613646097,152.51564320916856 42.24401613646097,150.8805020171335 42.24401613646097,150.00842671449251 42.66140744072358,150.00842671449251 42.66140744072358,148.36754818451317 42.66140744072358,146.66929627987867 42.92819363516986,146.66929627987867 43.07449574193407,146.62913491734648 43.07449574193407,140.404123711263 42.66140744072358,140.404123711263 42.66140744072358,140.18036754802182 42.66140744072358,139.56647243406485 42.24401613646097,139.56647243406485 42.24401613646097,138.72882115669574 41.97292693870609,138.72882115669574 41.825190497648165,138.72882115669574 41.825190497648165,138.39031824294733 41.825190497648165,138.14361272989538 41.825190497648165,137.89690721633048 41.76064545049854,137.89690721633048 41.40636485892086,137.89690721633048 41.40636485892086,137.6444643659327 41.40636485892086,137.05925593921782 40.987539220193554,137.05925593921782 40.987539220193554,136.89861048857608 40.987539220193554,136.22160466176322 40.56871358146624,136.14701927413014 40.56871358146624,135.38969072173992 40.15132227711814,135.38969072173992 40.15132227711814,134.9708650830126 39.9017480950513,134.9708650830126 39.73823397590764,134.9708650830126 39.73823397590764,134.77579560752648 39.73823397590764,134.5520394442853 39.541730165956814,134.5520394442853 39.31797400271564,134.5520394442853 39.31510533404273,134.2938592561997 39.31510533404273,134.13321380530152 38.900582698367536,134.13321380530152 38.900582698367536,133.8119229046165 38.900582698367536,133.3012998655347 38.48175705964022,133.3012998655347 38.48175705964022,132.88247422680737 38.064365755377615,132.8423128640187 38.064365755377615,132.4636485878236 37.738771851213016,132.4636485878236 37.64554011656481,132.0448229490963 37.2281488123022,132.0448229490963 37.2281488123022,131.8727028236774 37.2281488123022,131.62599731036897 37.004392649061025,131.62599731036897 36.809323173574896,131.62599731036897 36.809323173574896,131.43092783488285 36.809323173574896,131.24733303468682 36.75481846707968,131.21290900932948 36.58987001355682,131.21290900932948 36.3948005378997,131.21290900932948 36.3948005378997,130.99489018403258 36.3948005378997,130.79408337060215 36.171044374829506,130.79408337060215 35.97310623049948,130.7768713581372 35.97310623049948,130.59327655742823 35.97310623049948,130.37525773187485 35.7536530705669,130.37525773187485 35.558583594824285,130.37525773187485 35.558583594824285,130.18018825613225 35.558583594824285,129.95643209340403 35.33482743175409,129.95643209340403 35.13975795609698,129.95643209340403 35.13975795609698,129.76136261740493 35.13975795609698,129.5376064546767 34.9174361273205,129.5376064546767 34.72236665174888,129.5376064546767 34.72236665174888,129.3425369789341 34.72236665174888,129.1187808160349 34.495741819834784,129.1187808160349 34.303541013021565,129.1187808160349 34.303541013021565,128.9237113402068 34.303541013021565,128.70569251439696 34.08408785308898,128.6827431643297 33.886149708673464,128.66553115212122 33.886149708673464,128.28686687566963 33.46732406994615,128.28686687566963 33.46732406994615,127.86804123694233 32.63110712687074,127.86804123694233 32.63110712687074,127.44921559855699 30.56279695205986,127.4377409231814 30.392111161020182,127.74181981148696 30.231465710634925,128.11474675059273 30.056476916286652,128.56225907647664 29.91304347836634,129.00403406527118 29.85853877187113,129.18189152863434 29.712236665192414,129.8072613178814 29.527207530275213,130.7768713581372 29.451187808177448,131.14979829673004 28.17893321382429,131.01783953384333 28.11008516362254,131.00636485880972 28.199013895218627,131.56288659776953 28.140206185585807,132.72182877616564 27.62384580915818,133.86929627952813 27.599462124626232,134.05289107998064 27.28534289558075,134.07584043030437 27.270999551874215,133.81766024196233 27.526311071286873,133.3873599282014 27.798834603420957,132.7160914390763 27.80457194093777,131.33913043452836 27.632451815347906,129.90479605532525 27.39722097724409,129.53186911707442 27.347019273886485,129.49170775428573 27.23657552677334,129.4285970416863 27.149081129556457,129.41138502896487 26.968354997947852,129.4228597039985 26.88659793816229,129.39991035393126 26.939668310192804,129.32532496655466 26.93823397589909,129.26795159104455 26.945405647709617,129.1991035410138 26.926759300779974,129.13599282815787 26.79480053797878,129.09009412827984 26.768982519153127,129.02124607773612 26.768982519153127,128.95239802796186 26.801972209789305,128.8606006273509 26.74890183775879,128.79175257740562 26.69726580019297,128.7343792018955 26.662841775092097,128.67700582715486 26.595428059184055,128.59668310191947 26.555266696651863,128.54504706435367 26.45773195878056,128.4589870010885 26.338682205392193,128.39013895131424 26.251187808346295,128.32702823820182 26.183774092438256,128.26391752560238 26.05181532955157,128.15490811278295 25.970058269936995,128.08032272514987 25.90121021964975,127.98852532479539 25.836665172671104,127.94836396251968 25.779291797417486,127.84509188687508 25.706140744163623,127.8278798747521 25.63729269387638,127.75329448652059 25.588525324983475,127.67870909888752 25.501030927852085,127.61559838654455 25.436485880873438,127.56969968606808 25.205558045736243,127.52953832379237 25.063558942195137,127.5352756609672 24.955983863754902,127.55248767394511 24.898610488672272,127.58691169853303 24.845540116641757,127.63854773635532 24.805378753938577,127.68444643683179 24.749439713235148,127.78198117427563 24.66624831924137,127.86804123694233 24.59453160028121,127.93688928722958 24.498431196874602,128.00573733751682 24.4008964590033,128.0458987003055 24.306230389975894,128.06884805011626 24.152756611486655,128.05163603765132 24.079605558147296,128.0286866873276 23.98207082027599,127.98278798770605 23.900313760746908,127.95410129995099 23.824294038649143,127.94836396251968 23.72389063201943,127.86804123694233 23.686597938245644,127.83361721184146 23.610578216062386,127.76476916181069 23.587628865995136,127.67870909888752 23.524518153395693,127.62133572389038 23.454235768900233,127.61559838654455 23.329448677738576,127.64428507404313 23.263469296295234,127.60412371151092 23.09995517715157,127.6270730613217 23.061228148827595,127.5811743611017 22.999551770607354,127.52953832379237 22.986642761194528,127.44921559855699 22.924966382803298,127.44921559855699 22.785835948020598,127.46069027359061 22.698341550889207,127.44921559855699 22.60797848499941,127.44921559855699 22.58359480055296,127.39757956099118 22.493231734663162,127.39757956099118 22.431555356442924,127.3574181982025 22.309636934125166,127.27709547288163 22.190587180651306,127.23119677291812 22.151860152412823,127.17956073483934 22.108830121122224,127.09350067242913 22.08014343345267,127.03612729691903 22.068668758419044,126.96154190928597 22.103092783605412,126.88695652190937 22.164769161825653,126.8410578214329 22.18628417759919,126.75499775902269 22.156163155635927,126.67467503344534 22.110264455415933,126.57714029565953 21.98547736442526,126.27879874478528 21.952487673789083,126.1984760197209 21.85782160476168,125.96898251887741 21.771761541924,125.81981174386775 21.747377857477545,125.77965038107908 21.642671447881213,125.61326759300603 21.50067234425461,125.4583594797956 21.383056925159956,125.36656207995408 21.23532048418753,125.27476467934311 21.068937696199967,125.20591662939783 20.955625280242923,125.17722994189927 20.875302554922055,125.22886597946508 20.817929179839425,125.25755266722014 20.727566113949628,125.29197669180805 20.681667413729635,125.40098610514045 20.640071716732745,125.44688480476199 20.539668310188528,125.38377409216254 20.56405199463498,125.29771402975233 20.479426266262,125.32066337981958 20.38762886607849,125.3780367549877 20.27288211574224,125.35508740466398 20.168175705974924,125.33213805459673 20.067772299430704,125.30345136684167 19.942985208440035,125.36656207995408 19.849753473877325,125.33213805459673 19.747915732953906,125.28623935437673 19.669027342097735,125.24034065424223 19.5614522636575,125.21165396674367 19.36925145675879,125.14280591645642 19.22581801883848,125.09690721632192 19.29036306590262,125.01658449100105 19.324787091003493,124.94199910362447 19.276019722196082,124.86167637804712 19.151232631290902,124.8559390406158 19.04939489028199,124.8272523534592 18.887315105432037,124.77561631563691 18.904527117982475,124.7182429401268 18.973375168098734,124.7182429401268 19.102465262312506,124.72971761516042 19.185656656306286,124.70676826534967 19.234424025199193,124.65513222778384 19.162707306239035,124.63792021506242 19.063738233988527,124.60923352756384 19.025011205835536,124.55759748974155 19.083818915382864,124.48301210210849 19.178484984324776,124.43711340223047 19.227252353303175,124.39695203969826 19.264545047162457,124.33384132675685 19.35921111618986,124.2592559388673 19.41371582259958,124.21909457659159 19.532765576073437,124.12729717598062 19.605916629327304,124.16172120142346 19.61308830122332,124.10434782591336 19.562886598036705,124.05844912603534 19.481129538336635,124.06418646338118 19.362079784862775,124.09287315087974 19.263110712783252,123.98960107574811 19.250201703284933,123.93796503818228 19.208606006288043,123.84616763782779 19.154101299878324,123.77731958754055 19.086687584055777,123.71420887468463 19.03218287764606,123.78305692522835 18.993455849407574,123.84616763782779 18.89735544600097,123.81748095007275 18.829941730178422,123.76010757507561 18.798386373921446,123.69699686221969 18.80986104895507,123.63962348730804 18.911698789878493,123.62814881227442 18.971940833890514,123.565038099333 19.007799193370595,123.49045271169993 19.10820259982932,123.46176602420137 19.168444643755848,123.50766472442136 19.19713133133991,123.59372478683157 19.21290900942565,123.64536082491034 19.27745405648979,123.67978485009671 19.313312415969868,123.62241147458661 19.362079784862775,123.51340206202366 19.39506947566994,123.36996862410335 19.428059166306117,123.31833258628104 19.481129538336635,123.23227252335788 19.55284625729679,123.14047512300338 19.60735096370651,123.0716270732291 19.633168982617654,122.98556701030593 19.661855670116225,122.87082026014066 19.679067682666663,122.73886149725398 19.71922904528435,122.55526669654499 19.73930972659319,122.38314657086964 19.742178395437094,122.20528910810494 19.786642761106897,122.00448229467452 19.808157776880435,121.84957418172058 19.839713133137412,121.73482743181181 19.888480502030315,121.51680860625842 19.935813536544018,121.31600179282802 19.95445988347366,121.24141640545143 19.987449574280824,121.14961900509694 20.036216943088238,121.07503361737837 20.08498431198114,120.98897355419872 20.242761093778977,120.70784401630237 20.32882115644567,120.56441057838207 20.371851187821765,120.43818915258473 20.393366203595303,120.31770506498815 20.434961900592196,120.22017032703135 20.502375616329246,120.09968623917828 20.551142985222153,119.99641416379016 20.60277902295896,119.85298072586986 20.619991035509397,119.7038099508602 20.622859704182307,119.54890183756429 20.614253697992584,119.4112057370753 20.60851636047577,119.27924697418861 20.638637382439036,119.18171223674477 20.64150605111195,119.04975347385809 20.62572837302621,118.81452263558329 20.64294038549115,118.74567458529604 20.64150605111195,118.57355445962068 20.655849394989474,118.43012102170037 20.674495741919113,118.2694755716571 20.670192738696013,118.10309278332755 20.677364410592027,117.95965934540725 20.68453608248804,117.86786194530923 20.703182429503176,117.74737785754166 20.700313760659277,117.6326311072909 20.67879874497123,117.53509636933411 20.67306140753991,117.44903630658193 20.645809054249558,117.28839085628216 20.612819363527887,117.19659345592767 20.601344688579754,117.12774540538395 20.591304347925334,117.04742268057605 20.4808606006412,116.99004930540792 20.422052891179366,116.91546391768935 20.354639175271327,116.86382787986706 20.30443747208471,116.8294038545097 20.20259973116129,116.76629314216675 20.122277005840424,116.73760645441169 20.04769161829285,116.73186911698038 19.94441954290473,116.76055580473542 19.8856118333574,116.82366651707838 19.77803675491717,116.77776781694388 19.667593007633037,116.76629314216675 19.59300761999997,116.70891976665665 19.516987897816712,116.69744509162302 19.442402510183644,116.69170775453367 19.320484087865886,116.71465710460092 19.25307037204334,116.73760645441169 19.1899596593584,116.66875840412445 19.172747646807967,116.57696100402643 19.240161362716005,116.50811295408117 19.31187808167616,116.49090094110326 19.40080681318675,116.50237561613689 19.486866875853448,116.45073957857107 19.595876288672883,116.43926490353745 19.67333034514985,116.43352756610612 19.749350067247615,116.47942626632612 19.808157776880435,116.52532496620414 19.92290452713119,116.51385029117051 20.0233079337609,116.45073957857107 20.19973106231739,116.34746750318295 20.262841775173314,116.29009412818581 20.29870013465339,116.24419542805131 20.354639175271327,116.18682205305417 20.39766920664742,116.10649932747683 20.434961900592196,116.01470192737882 20.457911250659443,115.93437920239992 20.479426266262,115.84831913913477 20.49090094129562,115.75652173929325 20.489466607001912,115.63603765152567 20.469385925607575,115.54997758826053 20.432093231748294,115.44096817569758 20.390497534751404,115.3549081127744 20.3431645002377,115.29753473777727 20.255670103191804,115.21147467485409 20.18538771852536,115.10820259946597 20.22124607800544,115.05082922472532 20.31878081579125,114.95903182411435 20.400537875405828,114.8557597489827 20.432093231748294,114.79264903612678 20.453608247521835,114.68363962364931 20.440699238109005,114.55168086076263 20.430658897369092,114.47709547304407 20.40770954730184,114.40251008489804 20.36181084716734,114.3049753474542 20.291528462671884,114.20744060941192 20.18395338423165,114.0640071714916 20.153832362268385,113.98942178411501 20.138054684011657,113.91483639648195 20.146660690286875,113.78287763359526 20.163872702837313,113.72550425808517 20.193993724800578,113.67386822026286 20.234155087418266,113.59354549519847 20.275750784415155,113.50748543253178 20.29870013465339,113.45584939496597 20.317346481412045,113.34683998189004 20.310174809601524,113.18619453176127 20.28579112515507,113.12308381864887 20.22124607800544,113.04276109384097 20.2069027342989,112.99112505601866 20.146660690286875,112.92801434316274 20.077812640085128,112.91080233103976 20.00466158683126,112.91653966812912 19.91286418647677,112.95096369323 19.823935454966175,112.97965038072856 19.742178395437094,112.92227700607339 19.73930972659319,112.85342895552967 19.707754370250726,112.78458090524242 19.680502017045864,112.70425818017804 19.595876288672883,112.73868220536441 19.528462572850337,112.68130882985432 19.524159569712726,112.6009861050464 19.601613626189696,112.56656207968905 19.572926938605633,112.51492604212324 19.601613626189696,112.44034065449016 19.669027342097735,112.38870461692434 19.646077992030484,112.32559390423941 19.614522635602523,112.2739578664171 19.531331241608743,112.17068579128546 19.432362169443728,112.07888839067449 19.339130434795525,112.01004034072923 19.22008068132167,111.95266696521914 19.14692962798231,111.97561631528639 19.076647243401357,111.98709099057649 19.03074854335235,111.90103092765331 18.953294486875382,111.88955625287616 18.84285073959125,111.9584043031634 18.786911698802328,111.9928283280078 18.702285970514836,112.04446436557362 18.692245629774924,112.17068579128546 18.683639623585197,112.25100851609338 18.540206185664886,112.26822052907129 18.426893769707842,112.18789780349394 18.43693411027677,112.10757507817307 18.44554011663748,112.01004034072923 18.44410578225828,111.88381891544485 18.42259076648474,111.79775885252168 18.471358135377645,111.68874943944576 18.540206185664886,111.73464813992223 18.62913491717548,111.757597489733 18.677902286068385,111.82644554027672 18.75679067701005,111.8149708652431 18.798386373921446,111.72891080223444 18.877274764692125,111.70596145216719 19.06947557150534,111.68301210235641 19.17131331242876,111.60268937703555 19.214343343804856,111.54531600152545 19.28606006276501,111.42483191392887 19.34917077544995,111.28139847600856 19.42949350068532,111.09780367564154 19.527028238556625,110.84536082464531 19.537068579125556,110.57570596152613 19.508381891626986,110.40358583610724 19.481129538336635,110.24294038520902 19.5112505602999,110.08229493482376 19.528462572850337,110.00197220984488 19.572926938605633,109.83558942177181 19.544240251107063,109.35365307018859 19.562886598036705,109.20448229492246 19.595876288672883,108.97498879424995 19.601613626189696,108.71107126856208 19.59013895115607,108.44141640535739 19.53850291359025,108.16602420455038 19.504078888403882,107.9307933660191 19.505513222783087,107.7070372031199 19.499775885266274,107.52917973975674 19.466786194630096,107.29968623942622 19.41515015689329,107.02429403836274 19.347736441156236,106.75463917550002 19.25307037204334,106.50219632424732 19.10676826536462,106.19811743594175 18.993455849407574,105.92846257256608 18.828507395970206,105.59569699710391 18.712326311083768,105.33177947107406 18.5904078888515,105.1194979828665 18.534468848148073,104.93590318215752 18.467055132240034,104.81541909456094 18.346571044386973,104.6662483192948 18.224652622240203,104.5056028683966 18.14719856584873,104.33922008066551 18.025280143445478,104.11546391742432 17.851725683561902,103.69663827869702 17.732675930173535,103.32944867753552 17.5748991483757,102.97947108909547 17.488839085709007,102.80161362633076 17.33249663837587,102.68686687590902 17.20914388167891,102.6237561629676 17.08579112506744,102.58359480077738 17.028417749984808,102.52622142526728 16.986822052987918,102.42294935013564 16.956701031024654,102.30820259997039 16.867772299514062,102.18771851186084 16.74011653967949,102.13608247429502 16.652622142633593,102.07870909878493 16.593814433000773,101.99264903637471 16.57803675482954,101.90085163602022 16.5622590767438,101.78036754791069 16.547915732866276,101.65414612296827 16.517794710903008,101.60251008514597 16.469027342010104,101.53366203485874 16.390138951324918,101.42465262229577 16.306947557160154,101.22958314655317 16.228059166389475,101.0689376962534 16.114746750432428,100.80502017022356 16.032989690732357,100.56978933194874 15.962707306151406,100.38045719406492 15.847960555815156,100.19686239369791 15.74468848068352,100.04769161783332 15.581174361368872,99.89278350513587 15.244105782170648,99.53133124166217 15.136530703730415,99.34773644120968 14.95006723443401,99.20430300328935 14.868310174819433,99.14692962777926 14.793724787186365,99.05513222742478 14.678978036850117,98.89448677703952 14.578574630305898,98.71089197692898 14.476736889382478,98.59040788881944 14.293142088758986,98.4699238007099 14.098072613187364,98.38960107564552 13.918780815786974,98.24043030037937 13.79686239355471,98.06257283701622 13.687852980820766,97.94208874941964 13.594621246087073,97.86176602444074 13.435410129995526,97.72980726129758 13.273330345145576,97.61506051113231 13.129896907225264,97.52900044812365 13.051008516369093,97.53473778581144 13.020887494405828,97.59211116072309 12.941999103549657,97.63800986119956 12.811474675042174,97.55194979844738 12.787090990595722,97.40851636052706 12.70676826544584,97.40851636052706 12.647960555898512,97.38556701020333 12.632182877641785,97.3281936352917 12.669475571501067,97.24213357228302 12.71680860601477,97.15607350961633 12.746929627978034,97.07001344686415 11.889197669300067,96.55939040812432 10.634155087497346,95.99139399353243 10.477812640164208,95.9971313314767 9.965755266703205,96.30121021944029 9.915553563516589,96.25531151956227 10.467772299424293,95.73321380544685 10.433348274323418,95.6701030928474 10.406095921204052,95.6127297173373 10.354459883467248,95.5324069925294 10.282743164507092,95.4291349168848 10.264096817662944,95.32586284149669 10.238278798837289,95.26848946684152 10.159390407895625,95.18816674152065 10.109188704623516,95.09636934116617 10.08767368893547,95.02178395319112 10.020259973112923,94.97588525305662 9.964320932409494,94.93572389052443 9.984401613632846,94.87835051527081 9.971492604391003,94.81523980292785 9.998744957424876,94.76360376484907 10.043209323351158,94.71770506497104 10.102017032812993,94.66033168971742 10.17516808606686,94.60295831480579 10.156521739222711,94.49394890172987 10.225369789338968,94.37920215156461 10.109188704623516,94.45952487688547 10.047512326403275,94.48821156429855 10.005916629406386,94.53411026451855 9.881129538415715,94.63738233965017 9.840968175712534,94.68328104004115 9.782160466165207,94.7349170773505 9.763514119235566,94.79229045260412 9.753473778581144,94.87261317792499 9.7362617661162,94.94719856555805 9.678888390862584,95.04473330360034 9.58852532505828,95.11358135380209 9.479515912238844,95.11358135380209 9.459435230844507,95.0619453159798 9.447960555810882,94.99883460312387 9.436485880777257,94.89556252773575 9.45082922465478,94.80376512763775 9.503899596685297,94.72344240231688 9.58852532505828,94.64311967725249 9.605737337608717,94.55132227723996 9.59856566562721,94.49394890172987 9.630121022055171,94.44805020150987 9.676019722104177,94.35625280141187 9.683191394085686,94.28166741352231 9.711878081584254,94.18987001316782 9.767817122458668,94.0980726133263 9.835230838195722,94.03496190021389 9.899775885430849,94.00053787536949 9.997310623045673,93.98332586264807 10.127835051553156,93.9603765128373 10.203854773736413,93.92021515004862 10.147915732862,93.81694307491699 10.08767368893547,93.7251456745625 10.01739130444001,93.71367099952887 9.932765575981533,93.67924697459898 9.895472882122252,93.62187359943086 9.8739578665197,93.51286418635495 9.892604213449339,93.36943074843462 9.924159569706315,93.26042133595716 9.882563872709424,93.14567458519345 9.800806813094848,93.15141192288125 9.74199910354752,93.08830121028181 9.759211116097957,93.01945315973809 9.760645450562654,92.87601972181777 9.782160466165207,92.77274764668614 9.851008516452449,92.73258628389746 9.919856566568706,92.72684894646615 9.97579560744312,92.80143433444118 10.024562976336025,92.8473330343192 10.100582698348298,92.85307037200701 10.129269385932359,92.89323173479568 10.153653070378812,92.96207978499743 10.090542357779368,93.00797848496094 10.01739130444001,93.07682653524819 10.018825638819212,93.13419991015982 10.109188704623516,93.20878529804938 10.163693411033234,93.24894666083804 10.24975347378542,93.34648139836739 10.25405647692303,93.3981174359332 10.1966831018404,93.47844016151055 10.162259076739524,93.53007619907636 10.26266248328374,93.5989242493636 10.373106230396887,93.5989242493636 10.46060062761377,93.5989242493636 10.408964589876966,93.17436127269202 10.246884805027014,92.82438368425196 10.377409233619991,92.35965934564663 10.353025549173537,91.98673240679734 10.18951142985889,91.57938144310366 9.929896907223128,91.10318242920823 9.840968175712534,90.94253697907945 9.654504706501623,90.72451815301311 9.618646347021546,90.68435679048092 9.58852532505828,90.64993276563652 9.237113402068026,90.3573285521081 8.869923801077523,90.1794710893434 8.710712684900484,90.14504706390055 8.223038995971427,90.16225907636549 7.801344688571206,90.2253697894779 7.765486329091128,90.3688032273982 7.858718063653837,90.7187808155818 7.79417301667519,90.77615419083541 7.70811295383751,90.75894217837046 7.523083818920309,90.2253697894779 7.180277902376259,89.55410129983986 7.016763783061612,89.3819811741645 6.613715822505538,88.7049753473516 6.564948453783618,88.49843119683186 6.622321828780756,88.35499775891155 6.781532944872302,88.35499775891155 6.879067682658113,88.7967727477061 7.091349170780173,89.11806364839111 7.435589421874413,89.3991931871424 7.642133572394168,89.77785746308103 8.066696548638287,89.77785746308103 8.251725683555488,89.73195876260456 9.044912595340302,89.38771851210878 9.237113402068026,89.25002241127781 9.316001792924196,89.19264903628067 9.40493052443479,89.00331689796938 9.406364858813992,88.27467503359068 9.492424921651672,87.76978933219668 9.420708202691516,86.96082474249711 9.067861945407552,86.53052442873617 8.900044823040787,86.42725235334807 8.594531600185032,86.43298969043741 8.326311071359545,86.65674585367859 8.264634692968317,86.38135365287158 5.698610488573954,85.71582250083586 4.564051994624294,85.25109816223052 3.3333930972680266,84.58556701045127 2.9977588525344987,84.49376961009678 2.37095472882274,84.04051994626859 1.7341102645420523,83.50694755737602 1.191931869203277,82.91600179297336 0.7688032272528666,82.29063200372629 0.4632900044826044,81.75132227688944 0.18502913491720113,81.26364858821687 0,80.74728821144727 0.0014343344646961006,80.57516808602838 0.23809950694771617,80.55221873570466 0.5005826983418852,81.07431644982009 0.8821156432099123,81.83164500195383 1.8373823398446762,83.03074854313861 2.446974451005998,83.59874495738855 3.2028686687605434,84.20690273425615 4.3517705065877275,84.87243388629189 4.621425369877912,84.93554459863485 5.1851187808192405,84.91833258642639 5.560914388341441,85.0158673242122 5.72442850739961,84.92406992385772 5.823397579650117,84.71752577333795 5.956790676830514,84.70605109830433 6.090183774096403,84.74621246075102 6.163334827521255,84.70031376036005 5.994083370689794,84.56261766038402 5.698610488573954,84.43065889749734 5.662752129093876,84.32164948442141 5.718691169882797,84.01183325877003 5.958225011209717,83.87987449562686 6.105961452267637,83.86839982084972 6.516181084805219,83.96593455829355 6.709816225912146,83.64464365735205 6.656745853881631,83.54710891956624 6.2235768714477855,83.20286866881398 6.085880771044287,82.92173913057566 5.8865082922495615,82.92173913057566 5.684267144867416,82.82994172996469 5.228148812195334,82.45701479145737 5.239623487228959,82.17014791561675 5.42465262214616,82.12998655282807 5.553742716359933,81.91196772753118 5.668489466781675,81.44724338858387 5.80761990139339,81.18906320049831 5.806185567014188,80.92514567481042 5.718691169882797,80.68417749859134 6.57642312873175,80.29403854761908 6.553473778579007,80.15634244730109 6.3612729718512835,79.98995965905704 6.344060959215353,79.82357687106948 6.338323621698541,79.77194083350366 6.445898700138774,79.60555804577258 6.5592111160958195,79.54244733317313 6.7442402511840065,79.51949798276391 6.7671896011657635,79.55392200820675 6.537696100407773,79.72604213354015 6.553473778579007,79.82357687106948 6.582160466248562,80.00143433434714 6.784401613716201,80.1678171224202 6.907754370242175,80.1620797847324 7.031107127024629,80.1678171224202 8.8096817570655,80.24813984739909 9.717615419101067,80.08175705941153 9.888301210226237,80.08749439709933 10.03603765136965,80.09323173444515 10.09627969529618,80.10470640947878 10.271268489473467,80.09896907213296 10.605468399827792,80.0702823843779 10.85791125056754,80.04733303456713 11.236575526762653,80.00717167177847 11.292514567466082,80.00717167177847 11.780188256480631,79.93832362149122 12.24060959220483,79.85800089642683 12.471537427171038,79.82931420901376 12.55903182438792,79.81783953363816 12.903272075311174,79.78341550853729 13.271896010766373,79.71456745850652 13.339309726588919,79.6916181081828 13.809771402967538,79.58834603305115 14.301748095034204,79.47359928288589 14.452353204936024,79.41048857028645 14.380636485975868,79.30721649489833 14.155445988355488,79.03756163169363 13.908740475218046,78.72200806809796 13.806902734294626,78.52120125500953 13.852801434343633,78.45809054241009 14.00340654424545,78.34908112933418 14.24007171672847,78.25154639189033 14.337606454514283,78.21712236644748 14.379202151511173,78.20564769141386 14.508292245639453,78.19417301638023 14.703361721296568,78.22859704148111 14.810936799736801,78.25154639189033 15.277095472977813,78.37776781708922 15.740385477374923,78.49825190519876 16.19937247871992,78.6015239803304 16.557956073520696,78.68758404274061 17.042761093691347,78.75643209328433 17.561990138962873,78.76216943088664 18.066875840442368,78.67037203027567 18.183056925328806,78.6359480051748 18.29923800987327,78.60726131793271 18.775437023768703,78.51546391732174 18.960466158685904,78.49251456725449 19.016405199474825,78.48677723016515 19.459614522648586,78.39497982981065 19.905692514580753,78.29744509176835 20.11653966832361,78.22285970413529 20.297265800188697,78.16548632888167 20.409143881681047,78.125324966093 20.542536979032427,78.0851636035608 20.700313760659277,78.03926490368278 21.03021066787599,77.93025549060687 21.32998655312944,77.84419542819666 21.570954728921055,77.83272075316303 21.695741819911728,77.84419542819666 21.98547736442526,77.86714477800743 22.028507395801356,77.87288211569522 22.488928731525554,77.96467951604971 22.949350067249753,78.11385029105938 23.41550874049076,78.21712236644748 23.873061407456554,78.32613177952341 24.334917077559957,78.42940385465504 24.51277454058114,78.47530255504601 24.795338413284153,78.5441506048203 25.264365755369063,78.72200806809796 25.693231734750793,78.85396683098466 26.10345136711739,78.95723890611629 26.190945764334273,78.98018825652551 26.34872254596112,79.00313760633628 26.649932765679267,79.03756163169363 27.104616763886654,79.04329896912496 27.22796952041263,79.04903630672726 27.56073509638775,79.07198565688 28.01685342897434,79.08919766900298 28.471537427181723,79.10640968146792 28.952039444300258,79.16378305697802 29.37660242054438,79.2326311069233 29.733751680965952,79.28426714474558 29.931689825295983,79.31869116993195 30.00914388177295,79.34737785768701 30.188435679173338,79.56539668324038 30.585746302127106,79.75472882129519 31.036127297282377,79.94979829652485 31.285701479178226,80.08175705941153 31.34164052005264,80.09323173444515 31.575437023862747,80.10470640947878 31.741819811850306,80.11618108485438 31.886687584149822,80.13339309697734 32.18216046618017,80.31125056034051 32.57803675492572,80.48337068593037 32.72147019284603,80.52353204820609 32.97534737787949,80.54648139861531 33.04132675932283,80.56369341073828 33.13312415959183,80.58090542345971 33.55625280145675,80.770237561771 33.64805020181124,80.81613626173451 33.7656656208204,80.82761093651166 34.25190497545575,80.82761093651166 34.369520394464914,80.82761093651166 34.51438816684992,80.84482294948955 34.63630658899669,80.87350963690264 34.716629314232065,80.86777229930033 35.08381891539355,81.03989242497569 35.518422232292096,81.22348722568468 35.87844016147208,81.43576871355025 36.21837740934321,81.6824742266022 36.54683998218072,81.94639175237558 36.862393545519915,82.22178395318257 37.20233079339105,82.45701479145737 37.580995069586166,82.67503361701075 37.9653966831271,82.87010309275337 38.25656656219083,83.01353653067368 38.39282832812963,83.12828328118091 38.81595696999455,83.31187808154792 39.25056028689309,83.4438368444346 39.68372926941243,83.57005826997546 40.1312415957238,83.71922904498513 40.565844912622346,83.86839982084972 40.987539220193554,84.0347826085808 41.02913491719044,84.04625728361442 41.52684894685941,84.10363065886804 41.98583594811891,84.1782160465011 42.0690273421127,84.29296279666637 42.10775437026569,84.47082026002953 42.23684446447946,85.64123711345927 42.23971313315237,85.84204392629123 42.26266248321962,86.40430300293883 42.16799641419222,87.26490363046071 42.68435679079083,91.95230838195295 48.42599731065538,91.79166293131121 48.84482294938269,91.61954280589234 48.913670999755425,91.5965934555686 48.975347377890174,91.57364410575784 49.04706409685033,91.56216943072421 49.15177050661765,91.57364410575784 49.61219184234185,91.92362169419789 49.841685342928855,91.83756163178768 55.52882115655468,89.65737337522798 57.548363962472656,88.88283281011631 59.52917974006665,89.89260421350278 60.68812191846277,88.63038995971854 60.49305244289114,88.20582698330344 60.48731510537433,87.74683998204394 60.93913043482331,87.32801434331662 61.08686687596673,87.33948901843574 61.76243836857139,87.38538771831377 62.78798744961612,87.45423576885749 69.38305692519202,86.84034065438757 69.77893321385207,82.68650829204438 69.53796503823145,82.62339757970142 69.04168534302717,82.49717615398957 68.9599282833271,80.68991483653562 67.97884356795217,79.98422232196769 67.53993724800151,79.66293142068422 68.43639623500346,77.13850291337225 68.60421335737023,76.97785746273051 68.14952935916284,76.8975347379226 67.72209771407482,76.78852532493218 67.29610040353698,76.60493052447967 67.1182429404303,76.54755714896957 67.0264455402468,76.51313312412518 66.69367996418619,76.3467503363941 66.6076199015195,76.34101299844983 65.91770506503731,75.56647243385113 65.51752577323964,74.78045719404783 63.814970865125545,72.26750336168398 60.21048857018813,71.0683998204992 60.16028686700152,71.05118780811974 58.26553115207421,70.42008068118488 57.10085163616128,66.3752577319176 56.63756163159319,61.79686239350128 56.717884356914055,61.77391304317755 56.81541909461437,61.756701031054575 56.91438816686488,61.73948901833315 57.2026893770847,61.68785298076733 57.65307037206899,61.607530255189985 57.70040340658269,61.601792917758665 57.743433437958785,61.59031824272505 57.82949350079646,61.56163155556845 57.86535186027654,61.538682205415704 57.975795607389685,61.46409681726968 57.998744957456935,61.42967279268176 58.05468399824586,61.37229941717166 58.301389511554284,61.056745853576 58.43765127749309,60.84446436596689 58.47781264011078,60.58628417728287 58.43047960559707,60.39695203948454 58.41326759304663,60.31089197647587 58.38171223670417,60.150246526176105 58.314298520967114,59.794531600048245 58.294217839572774,59.43307933657455 58.301389511554284,59.232272523400624 58.35876288663692,59.12326311092316 58.40753025552982,59.05441506063592 58.459166293181134,58.99130434803647 58.65853877189036,58.85360824720551 58.717346481437694,58.830658897138264 58.80914388179219,58.796234872293866 59.36566562092299,58.62411474687499 59.750067234463934,58.52084267148687 59.81891528475118,58.51510533379907 59.899238009901055,58.503630658765445 59.991035410170056,58.51510533379907 60.118691170004624,58.503630658765445 60.23487225463458,58.39462124620249 60.52460779931911,58.09054235772594 60.7971313312822,57.803675481885314 61.07969520407071,57.51680860604469 61.38233975799707,57.22994173020407 61.68211564325052,56.93160017932982 61.75526669667537,56.88570147885335 61.795428059207566,56.868489466388404 61.83702375620446,56.85127745400896 61.88722545956206,56.84554011632116 61.93455849407576,56.83980277923181 61.98045719412477,56.828328104198185 66.94755714930514,54.69403854751649 69.99982070824936,48.57803675450894 70.65100851640757,46.93142088769673 70.64240251021783,46.59291797394832 70.7198565666948,46.54701927355734 70.8059166293615,46.45522187345932 71.03110712698188,46.13393097277431 71.06122814894515,46.09950694733146 71.32944867785613,45.89870013449951 71.46140744074282,45.824114746524465 71.66795159126256,45.72658000882414 72.06526221438732,45.9331241593439 72.4668758404787,46.11098162236509 72.8813984760684,46.32326311057264 73.10515463930957,46.41506051067065 73.40206185571913,46.575705961568865 73.47377857467929,46.61586732410106 73.89116987902739,46.793724786865766 74.29565217396267,46.983056925262545 74.68865979394981,47.16665172562956 74.84356790690374,47.218287763537354 75.0458090542859,47.26418646315889 75.49619004944117,47.304347825947566 75.81461228153876,47.34450918873624 75.91501568825396,47.350246526338545 76.06131779476169,47.470730613935125 76.4299417302169,47.717436126987074 76.84733303473598,47.99856566573835 79.78484984317296,47.28713581322614 80.03155535648139,47.50515463937797 80.21945316007151,47.700224114864106 80.55078440175292,48.0043030028277 83.34056476921748,46.66176602397908 87.47575078446005,43.678350515151116 86.19489018383166,42.15221873585 85.85495293596053,41.888301210333104 85.76315553577702,41.89977588536673 85.52505602891479,41.48668758381426 85.46337965052356,41.303092783361755 82.8471537428571,40.72362169433468 83.59731062309483,38.95652173881448 83.66472433900287,38.95652173881448 83.78233975801203,38.91636037628229 83.81389511444,38.8876736890402 83.94155087410358,38.732765576086265 83.97167189606684,38.65818018794024 84.1868220529473,38.34836396228884 84.41918422246371,38.03854773663745 84.66875840444504,37.71151949800816 84.76916181090377,37.46481398495621 84.77633348288528,37.378753921691064 84.8781712238087,37.045988346228896 85.02160466172901,36.71896010759961 85.23675481860948,36.426355894071186 85.53079336634612,36.16243836855429 85.71725683555702,36.030479605753094 85.86069027347735,35.932944867454324 86.20636485903627,35.68623935440238 86.52765575989228,35.41658449128318 86.64813984774534,35.26167637824375 86.65961452277897,35.22151501579705 86.78583594814884,34.860062752237866 86.87763334833234,34.4928731508199 86.94504706415489,34.27485432526652 86.99094576428939,34.05109816202534 87.0884805020752,33.68964589855165 87.10856118346953,33.569161810955066 87.12003585850316,33.454415060276844 87.15876288665615,33.11017480943909 87.03541013013017,32.961004033916474 85.4762886599364,28.520304795989137 85.68283281045615,26.982698341654388 84.91402958328878,25.278709098819125 83.77947108933913,23.29359031800202 78.41936351417161,18.94468848051467 82.22178395343904,16.49484536083576 83.10820259978657,15.921111609154515 85.57525773201591,14.337606454343296 86.81308830126821,10.717346481491127 99.11537427186425,0.275392200806997 99.3161810847817,0.10327207538811688 99.2702823847327,0.04016136278867305 99.51555356357643,0.06884804994527029 99.65755266711754,0.091797400354492 99.94441954295816,0.08032272532086712 100.3288211564991,0 100.37902285977121,0 100.48516360383225,0 100.53679964156905,0.011474675033624876 100.58700134475566,0.028686687755048172 100.78063648603357,0.07458538737658973Z"/></svg>