<svg xmlns="http://www.w3.org/2000/svg" width="256" height="256"><path d="M84.63186990377788,0.38918321287623575 85.49573870177329,0.5955682503124479 86.51734463534275,0.5483945271987498 87.43133551386227,0.35969963650131587 88.9209932280497,0.3361127748565989 90.56101718345522,1.3208642377816788 92.8165108029363,1.9400193488601645 97.48965771415722,3.2196065787855557 98.8820196249732,3.231400009212509 99.84539549450804,3.3139540243978765 100.10337679086396,3.3965080393196407 100.6982079513189,3.585202930280678 101.38959782564066,3.9449025662547865 101.65863546326898,4.245635048688245 101.90924586535544,4.546367531473173 102.15469664160265,4.876583590545154 102.17754641356561,4.923757313658853 102.32643847603389,5.248076657824895 102.3573962315966,5.348320818343154 102.36476712577819,5.472151840857602 102.44658405128179,5.8259547615743 102.47606762800818,5.890818630372362 102.51955590367962,6.008752937102192 102.57852305704452,6.1089970981476585 102.5984244714227,6.162067535903692 102.6109549915328,6.20924125901739 102.63233058457018,6.256414981779616 102.66476251897059,6.303588704366107 103.12396922648277,6.333072281268234 103.58317593408282,6.344865711958791 104.06818077123333,6.35076242686473 104.54139217769328,6.35076242686473 105.04040171369822,6.368452573076301 105.52761781910047,6.433316441786493 105.9713456489219,6.533560602919828 106.09812502875751,6.568940894727895 106.5197401759449,6.72225549414447 106.92661353476912,6.946330677177177 107.32980144659038,7.146818998828771 107.76247293496232,7.264753305558602 108.26221956056251,7.33551388978981 108.78776431562258,7.33551388978981 109.29635601415283,7.370894181597875 109.77104159944773,7.4534481965196395 110.06587736671165,7.459344912304258 110.5928963006959,7.482931773421767 111.07568986967843,7.482931773421767 111.23637536283863,7.482931773421767 111.72653982591352,7.536002211705007 112.20048832179026,7.500621919281866 112.65084995619665,7.400377758500003 113.13585479334716,7.288340167203319 113.62896761409606,7.205786152017951 114.12355461376914,7.176302575730899 114.76187404989552,7.188096006157852 114.92771916898147,7.188096006157852 115.12378495421198,7.170405859946281 115.22771456217251,7.152715714261918 115.37586953522262,7.099645275978677 115.77610908937126,6.881466808466984 115.87045653471998,6.816602939405319 116.0031326300766,6.622011332747531 116.2861749665621,6.327175565483616 116.49477127207568,5.991062790890621 116.69157414654998,5.678536877942343 116.7313769751306,5.637259870349659 117.01441931170396,5.424978117743904 117.06085594504803,5.401391256362791 117.10876675731629,5.383701110678428 117.16257428484195,5.366010964554725 117.22301561704181,5.354217533864168 117.28640530709279,5.348320818343154 117.65863546317699,5.354217533864168 118.12595015428893,5.436771548434461 118.3279126548647,5.454461694382428 118.70972497347148,5.454461694382428 118.7731146635197,5.448564979476489 118.83650435339496,5.436771548434461 119.10554199102329,5.354217533864168 119.15197862436735,5.336527387652597 119.23600681803757,5.277560234111947 119.5323167641378,5.000414612795999 119.83820887267412,4.7055788455320835 120.2141244759356,4.446123370603442 120.40429354582083,4.375362786723707 120.47726539821865,4.36356935603315 121.0087068688011,4.339982494564168 121.52024692491474,4.3694660709390885 122.01630810342415,4.452020085860853 122.49762749339463,4.528677385261602 123.12783894601048,4.652508407512447 123.59441654770426,4.652508407512447 123.6799189202108,4.640714977085494 123.95190491542388,4.569954392590683 124.35067029073757,4.3694660709390885 124.56074077482387,4.233841617997688 124.88432302948388,3.986179573847471 124.94918689819409,3.9449025662547865 125.2749804210207,3.655963514160414 125.39881144327292,3.596996360971235 125.45925277556066,3.5675127840691077 125.51748283968314,3.549822637857537 125.59929976501101,3.5321324922610415 125.65089602437007,3.5203390612190133 126.45727184783688,4.534574100782617 126.92606071769863,5.17141935780907 127.07126733316397,5.366010964554725 127.63366655913202,5.890818630372362 127.86879808361286,6.474593449115574 127.84742249039836,6.757635785952536 127.70074169618456,7.21757958305998 127.25553968770392,8.107983599757663 127.09927673096618,8.520753674015012 126.92163818118966,9.08094163225579 126.6076380890536,9.794444188946596 126.5906850325238,10.148247109487558 126.59805592670538,10.454876307178427 126.6076380890536,10.667158059784182 126.65112636472503,11.074031418871987 126.6570230800703,11.268623025266171 126.618694430326,11.457317915963605 126.50076012359617,11.704979960728897 126.48380706680413,11.929055143498001 126.57078361814423,12.17082047274228 126.66660524268212,12.34182521775535 126.86414520657321,12.548210255191563 127.45160547293443,12.825355875980303 127.75454922371023,12.896116460475115 127.94471829359546,12.943290182973737 128.6110471276119,12.83125259176492 128.96927258492542,12.654351131230836 129.2154604505908,12.495139816908322 129.31570461137267,12.117750034722643 129.2633712627712,11.89367485195354 129.10121159068817,11.522181784937402 129.0201317546892,11.298106601641091 129.0356106325598,11.050444557490874 129.10858248486977,10.796885797468171 129.26631962035594,10.614087621500941 129.83387847242685,10.171833970605068 130.2569677983627,9.947758787835964 130.57244206942298,9.818031050415577 131.10756898709485,9.629336159190936 132.3451421200094,9.358087253308135 132.81687934763164,9.305016815288498 133.1397245128735,9.287326668813323 133.64389367489616,9.340397107096564 134.04929285488268,9.411157691327771 134.37066384111247,9.552678859438714 134.77974846828042,9.84751462670263 134.90210531169356,9.989035795165044 134.9920302206212,10.089279956210511 135.13871101483497,10.384115723474427 135.19472981061512,11.103514995510512 134.9529644814587,11.563458792530087 134.52324135067155,12.100059888511073 133.32841940383454,12.85483945288243 132.91564932966506,13.131985073934775 132.48887455663842,13.379647118700067 131.91247063155097,13.727553324247223 131.65006679868472,13.84548763071345 131.41788363196437,13.969318653227898 130.64025429589367,14.317224858775052 130.36089740632323,14.41157230412377 130.02036209530914,14.612060626038968 129.97245128295302,14.688717925176114 130.0410005988419,14.865619385710199 130.11765789841837,15.007140553821142 130.2186391486184,15.20762887573634 130.23411802648764,15.396323766960982 130.1058644677292,15.832680702423708 129.79186437559176,16.168793477280307 129.07172801396177,16.628737273772675 128.7687842630981,16.782051872925646 128.191643248679,17.053300779072053 127.83194361270488,17.330446399860794 127.67125811945817,17.58990187531664 127.64767125816493,17.825770488776303 127.68305155014873,18.091122679401693 127.86879808361286,18.385958446665608 128.12677937996878,18.574653337626646 128.7098171097332,18.89897268179269 128.98991108854602,19.00511355783196 129.77196296121357,19.27636246397837 130.13682222329052,19.411986917183373 130.54148431386025,19.618371953740905 130.68521675031354,19.91910443678944 130.6623669783506,20.208043488268736 130.53558759851498,20.544156263125334 130.2569677983627,21.027686921350288 130.1780992307075,21.210485097053915 130.11323536182155,21.735292763135156 130.15672363749297,21.882710646767112 130.55548901271743,21.977058091852225 130.8119961303249,21.876813931333967 131.5122310775767,21.587874879503197 131.9559589072224,21.48763071845773 132.44096374437015,21.422766849747536 133.0394803519159,21.416870134226524 134.3102225088234,21.499424149148286 134.88957479158483,21.60556502518756 135.47408670018555,21.811950062623772 136.11240613631193,22.089095683676117 136.4544156262502,22.27779057490076 136.6689086469347,22.33675772835354 137.06914820099547,22.307274151539282 137.82982448053636,22.495969042763925 138.14235039383613,22.796701524933777 138.23522366052424,22.99718984658537 138.06643018385353,23.309715760324462 137.70157092177655,23.9701478790835 137.74653337637218,24.28267379194391 137.79444418855257,24.353434376175116 137.89763670700705,24.45957525221439 138.1652001659748,24.689547151031714 138.53300778554868,24.91362233380082 138.6155618002947,24.937209195445536 138.7932003500712,24.97848620303822 138.8823881697564,24.990279633728775 138.976735615193,25.00796977941314 139.0755055972278,25.031556640794253 139.18238356285957,25.05514350252684 139.2951582439259,25.07873036390795 139.41161837199513,25.090523794334903 139.5288155895704,25.09642050976805 139.63569355502784,25.09642050976805 139.73741189482178,25.084627079077492 139.83175934025834,25.07873036390795 139.92610678587067,25.061040217432776 140.01234624779673,25.037453356315268 140.09268899437478,24.99617634872258 140.16860920435738,24.949002626136092 140.24452941442783,24.895932187852853 140.31897544574983,24.84286175009682 140.3897360298053,24.777997880859417 140.45902243511233,24.70134058145867 140.52388630408612,24.624683282321524 140.58285345736317,24.536232552142348 140.6403464320675,24.441885106266422 140.70078776435662,24.341640945748164 140.75901782830337,24.241396784878432 140.8179849818454,24.147049339002507 140.87990049296943,24.05270189365379 140.9432901828433,23.96425116329888 141.00962823047632,23.875800433471177 141.08260008296202,23.781452987858856 141.16294282945492,23.675312111819583 141.24328557603434,23.56327451999569 141.3251025014501,23.457133643956418 141.4658865803186,23.262542037210764 141.5366471645498,23.174091307119458 141.6125673745324,23.085640577291752 141.6833279587636,23.008983277275927 141.75187727465246,22.920532547448225 141.8226378587093,22.83208181700545 141.89855806886627,22.725940940966172 141.98479753079096,22.6198000649269 142.07324826088225,22.50776247345448 142.16464734873406,22.41341502784216 142.25825770484036,22.319067582229838 142.43958170179553,22.1480628371289 142.5272953424687,22.071405537464546 142.70198553457257,21.906297508236094 142.79485880134857,21.82374349331433 142.89068042562147,21.741189478392567 142.99166167599859,21.664532178991816 143.09485419445173,21.593771594760607 143.20615469668172,21.540701156740973 143.32040355640862,21.49352743362727 143.42580734320546,21.46994057224616 143.53047404058415,21.464043857340222 143.63145529095993,21.475837288030778 143.72727691523284,21.499424149148286 143.82015018200883,21.534804440956353 143.90786382276985,21.570184733379495 144.08697655129617,21.61735845587812 144.19090615943108,21.623255171662734 144.30368084023377,21.623255171662734 144.42456350481197,21.623255171662734 144.54470907997202,21.623255171662734 144.66264338696547,21.623255171662734 144.78573731979816,21.611461740972178 144.90661998428848,21.593771594760607 145.0238172017759,21.58197816407005 145.13806606159065,21.570184733379495 145.2478923848951,21.55839130260107 145.36435251296572,21.540701156740973 145.48302390928944,21.523011010265797 145.60832911046447,21.50532086431783 145.73658266922428,21.475837288030778 145.8633620490599,21.452250426561797 145.98866725023356,21.42866356491708 146.11249827248577,21.410973418969114 146.22969548997318,21.387386557324394 146.33804763435478,21.375593126633838 146.4353434375519,21.3696964117279 146.5267425254037,21.3696964117279 146.62108997101603,21.3696964117279 146.713226148286,21.381489842418457 146.8820196249567,21.416870134226524 147.03017459800682,21.48763071845773 147.1510572626729,21.58197816407005 147.22034366789205,21.69401575554247 147.2579352282182,21.82964020822027 147.28225917901747,21.900400792451475 147.3286958124494,22.030128530399068 147.34859722665186,22.1303726912688 147.3427005113066,22.207029990405946 147.35670521025162,22.307274151539282 147.39355968115962,22.395724881366984 147.44957847693976,22.4841756119855 147.50486018330173,22.513659188360418 147.51149398806518,22.78490809424322 147.53434376002812,22.92642926288137 147.63606209982206,23.091537292197692 147.74146588653102,23.203574884021585 147.87414198188765,23.339199336962984 148.03851292205078,23.47482378981652 148.36725480263655,23.71658911879719 148.51762104385466,23.82862671035748 148.6657760169034,23.934767586660357 148.8080342746961,24.035011747793693 148.9517667111494,24.147049339002507 149.11097802564765,24.27088036125335 149.4168701340961,24.500852259807075 149.56723637531283,24.618786566536905 149.72202515312637,24.730824158360797 149.88271064637308,24.848758465090626 150.047818675953,24.943105910702947 150.2269314046537,25.037453356315268 150.4082554014345,25.14359423235454 150.58589395121103,25.24973510865742 150.76353250098478,25.349979269790754 150.94264522959898,25.43253328462465 151.12249504762997,25.49739715342271 151.36647164504086,25.55636430661189 151.60602570594278,25.579951168256606 151.86842953889555,25.585847883250413 152.05270189343548,25.56815773756605 152.29667849084638,25.515087299019207 152.52296494213357,25.42073985393409 152.97701202372,25.232044962709452 153.2276224258957,25.14949094813916 153.48560372225026,25.090523794334903 153.72663196198852,25.05514350252684 153.92785737314475,24.990279633728775 154.08264615095968,24.895932187852853 154.15635509277567,24.76620445016886 154.22932694517485,24.589302989898382 154.2927166351352,24.41240152997937 154.39296079609144,24.241396784878432 154.5366932325461,24.07628875512277 154.70253835163206,23.934767586660357 154.88607361675523,23.82862671035748 155.10130372685651,23.740175980529777 155.32390473114077,23.669415396034964 155.5428202883356,23.58096466620726 155.69613488731144,23.4984106512855 155.8494494862887,23.398166490152164 156.01308333720803,23.286128898943346 156.17966554571214,23.174091307119458 156.3455106647981,23.07384714651333 156.51356705205066,22.979499700637405 156.6853088864819,22.885152255288688 156.8445202008044,22.79080481002784 156.98530427976078,22.6905606486309 157.1135578385206,22.584419772591627 157.2373888608593,22.466485465861798 157.3715391348765,22.36624130472846 157.52927627027483,22.2836872900703 157.6936472105245,22.218823421096502 157.8683374027162,22.165752983076867 158.11378817896343,22.10088911410307 158.29806053350336,22.071405537464546 158.51107937526507,22.03602524565648 158.71377896525763,21.994748238063796 158.96586354626828,21.92398765383259 159.21721103786075,21.86502050064341 159.48182613898013,21.835536924004884 159.68084028197114,21.817846777529713 159.89017367672852,21.817846777529713 160.17247892388372,21.84733035443184 160.36928179853237,21.870917215812952 160.57492974611108,21.91809093892665 160.78647440921083,21.96526466116167 161.00317869806193,22.024231814965923 161.20661537747404,22.083198968155102 161.4004698945379,22.142166121695755 161.58695351724447,22.20113327550001 161.78523057072945,22.254203713519644 161.99382687606868,22.307274151539282 162.20684571791685,22.36034458982252 162.3911180724568,22.431105173702257 162.55622610221246,22.50186575766986 162.73239047306478,22.578523057334216 162.92550790062265,22.661077071992377 163.12525913294397,22.737734371656728 163.31690238175338,22.802598240718396 163.51001980922337,22.879255539855542 163.6817616436546,22.961809554777304 163.84539549457392,23.038466854178054 164.01566315008097,23.109227438409263 164.2043580411299,23.19178145333103 164.39894964761194,23.262542037210764 164.59354125391826,23.32740590618456 164.77633942962188,23.386373059461608 165.03284654714147,23.439443497481243 165.28787948591264,23.46892707438337 165.54586078226856,23.439443497481243 165.8023678997003,23.380476344555667 166.00654166861844,23.315612475494003 166.19081402315837,23.21536831471214 166.372875109356,23.09743400798231 166.5505136591325,22.944119408565733 166.66992214496224,22.826185101835904 166.80407241897944,22.702354079321456 166.9338001565756,22.572626342164675 167.0546828211538,22.437001888959667 167.1674575022201,22.301377436018267 167.27433546776402,22.171649698597882 167.40553738419783,21.988851522806385 167.49841065088597,21.86502050064341 167.5971806329194,21.741189478392567 167.7025844198041,21.611461740972178 167.81019947476756,21.481734002936715 167.9296079605973,21.3696964117279 168.04975353566948,21.2517621046466 168.17211037908402,21.133827797653165 168.36522780672976,20.99230662954222 168.5369696410731,20.844888745910264 168.6526926797242,20.721057723395816 168.76767862895713,20.597226701144972 168.87087114758737,20.41442852570495 168.90477726073485,20.225733634480306 168.90477726073485,20.160869765770112 169.1030543143077,20.154973050249097 169.31312479848324,20.12548947387418 169.49887133177026,20.084212466281496 169.70894181594718,20.037038743255664 169.9389137145009,19.98396830523603 170.17994195415127,19.936794582649537 170.42907817757717,19.895517575408324 170.68116275858782,19.854240568079245 170.87428018605917,19.824756991177118 171.4536324687314,19.989865021020645 171.80301285293777,20.243423780691877 172.2327359837263,20.691574146757294 172.6506656838229,21.145621228607325 173.07228083109817,21.61735845587812 173.6177270005364,22.27779057490076 174.09093840699498,22.843875248047475 174.62901368216376,23.25664532204122 175.18109365636545,23.586861381113202 175.94619247250316,23.80503984923997 176.60293914408354,23.80503984923997 176.73266688167965,23.775556272337845 176.8845073017327,23.746072695435714 177.0496153314005,23.71069240362765 177.21472336106828,23.657621965608012 177.36361542353657,23.586861381113202 177.50439950240508,23.510204081976056 177.64149813427068,23.427650066790687 177.7793338553787,23.339199336962984 177.8500944396099,23.292025613849287 177.9201179342472,23.244851891614267 177.98940433955423,23.19767816850057 178.05574238718862,23.144607730217327 178.11765789831404,23.091537292197692 178.22306168511088,22.991293131679434 178.32330584606848,22.90873911675767 178.42723545402902,22.826185101835904 178.5289537936472,22.737734371656728 178.62624959684427,22.666973787513392 178.7301792048048,22.602109918803198 178.84885060112853,22.560832911474115 178.97120744454307,22.53134933457199 179.10240936106337,22.50186575766986 179.24171926100772,22.478278896552354 179.40535311201492,22.460588750340783 179.58667710870512,22.437001888959667 179.7488367807895,22.395724881366984 179.89404339607913,22.348551159131965 180.0222969548403,22.319067582229838 180.15055051359872,22.28958400532771 180.27880407235853,22.24830699773503 180.41000598879097,22.189339844721584 180.5323628322055,22.1303726912688 180.6451375132718,22.06550882255861 180.7608605519229,21.988851522806385 180.87584650106797,21.906297508236094 180.99599207631587,21.811950062623772 181.10287004186117,21.711705901490436 181.1972174874735,21.611461740972178 181.2775602340529,21.50532086431783 181.3357902979983,21.410973418969114 181.3822269314316,21.322522688614203 181.43234901195433,21.239968673692438 181.4817340027953,21.163311374291688 181.53406735148465,21.092550790060482 181.59450868377374,21.009996775665925 181.66821762558973,20.933339475737966 181.71612843777012,20.87437232281239 181.83848528118463,20.78002487720007 181.928410190288,20.703367577711454 182.0271801723214,20.620813562526084 182.13405813786534,20.538259547955793 182.2387248352454,20.449808817513013 182.33307228085772,20.36135808768531 182.41046666967662,20.272907357506135 182.47975307498365,20.19035334267224 182.5497765697967,20.107799327750477 182.6161146174311,20.037038743255664 182.69203482741366,19.966278159551663 182.78785645186093,19.895517575408324 182.90210531158922,19.824756991177118 183.0178283502403,19.736306260734338 183.14460773025166,19.653752246164046 183.29276270330178,19.577094946411826 183.44755148102746,19.51223107770163 183.53895056896576,19.895517575408324 183.45565946462722,21.110240936272053 183.47261252124488,21.711705901490436 183.28539180912017,22.572626342164675 183.1586124291088,23.575067950422646 182.8107062237374,24.55392269782671 181.97926936005317,26.659050076266798 181.2775602340529,28.133228912586375 181.20606256040355,29.17105081317962 181.03137236838754,30.391670889827964 180.71442391849095,31.63587782794529 180.32966324221155,33.14543695607293 180.16160685487114,33.71741834438919 179.7304095453355,34.21863914908932 179.58667710870512,34.50168148566267 179.7281982769918,34.84369097542521 179.7488367807895,35.09724973509644 179.5041230938726,35.65743769298575 179.07587414192176,36.21762565122653 178.9188740959416,36.6598793021224 179.1628506932646,37.054959229904576 179.55866771090427,37.27313769776774 179.77463491033723,37.32031142052997 179.963329801474,37.36158842812265 180.17708573274035,37.39107200449757 180.42548486657233,37.39696872028219 180.67167273223632,37.402865435188126 180.89427373652197,37.379278573807014 181.08444280640717,37.343898281998946 181.26355553502,37.30262127466987 181.44709080014178,37.255447551556166 181.64536785371465,37.220067259748106 181.8480674437072,37.17289353689801 182.0456074077754,37.16110010594385 182.25272953419045,37.16699682172847 182.47533053856256,37.196480398366994 182.70751370519366,37.261344267077185 182.93011470956716,37.373381858813204 183.1247063158721,37.503109596321465 183.28981434554126,37.638734049262865 183.45860782238773,37.77435850211639 183.620767494295,37.90408623988825 183.76597410976035,38.05150412352021 183.88022296948725,38.20481872232171 183.9841525774478,38.34633989078413 184.07997420180857,38.49375777441608 184.1802183626783,38.61758879666693 184.2826737918025,38.74731653408732 184.37554705849064,38.87114755660176 184.4182982447439,38.88294098702872 184.51559404802885,38.88294098702872 184.61804947715308,38.88883770219826 184.72124199560756,38.88883770219826 184.82222324598334,38.89473441771927 184.91951904918042,38.91242456393084 185.01534067345196,38.9242179946214 185.19297922322983,38.94780485573891 185.34924217996758,38.983185148074185 185.49150043767378,39.03035887066067 185.73547703499543,39.10701617006142 185.82687612284724,39.130603031706144 185.92417192604435,39.16008660808106 186.02294190807777,39.18957018498319 186.11728935369007,39.22495047679126 186.19910627901794,39.25443405369338 186.3339936427183,39.33109135309413 186.4261298199869,39.39005850663478 186.50205002988162,39.43133551422746 186.58755240238816,39.46671580603553 186.67526604314918,39.51388952914923 186.9059750310318,39.643617266306016 187.0261206062811,39.70848113527981 187.16248214864066,39.76744828882046 187.27820518729175,39.8205187271037 187.34454323483826,39.88538259555029 187.35117703960168,39.96203989495104 187.32169346296317,40.06818077125392 187.27967936612805,40.18021836281421 187.22734601735084,40.3099461007618 187.1949140829518,40.37480996920839 187.16395632738912,40.445570553439595 187.1263647672387,40.516331137670804 187.08803611740515,40.58709172190201 187.0430736628109,40.651955590612204 186.99221449295788,40.7168194593224 186.9413553231927,40.775786613126655 186.8374257152322,40.89961763528963 186.78361818761866,40.958584788566675 186.72612521309006,41.01755194201946 186.66789514896757,41.08241581108113 186.60229419083922,41.14727967979132 186.53743032195328,41.2062468332441 186.4710922743189,41.271110702042165 186.40622840560872,41.335974570752356 186.34136453672278,41.400838439462554 186.2706039526673,41.471599023693756 186.1961579213453,41.536462892403954 186.03989496469543,41.666190629824335 185.95660386044338,41.73695121431915 185.8696273091005,41.80181508276574 185.7819136683395,41.860782236569996 185.69051458048907,41.919749389759176 185.43400746296808,42.06716727339113 185.35219053755236,42.108444280720214 185.27332196980925,42.14382457279188 185.12369281801068,42.220481872544106 184.97774911312717,42.30303588746587 184.8450730178598,42.391486617293566 184.71829363802144,42.48583406290589 184.59741097335672,42.58018150851821 184.50822315384727,42.680425669563675 184.42493204950733,42.78656654560295 184.3239507993073,42.8927074219937 184.2052794028957,42.99884829829657 184.07555166529824,43.09319574364529 183.93919012294003,43.19933661994817 183.86695535996037,43.24651034244679 183.78956097114283,43.29958078046643 183.71364076098314,43.352651218486066 183.63329801440372,43.405721657032906 183.55442944666063,43.45879209478894 183.46966416366013,43.51186253307218 183.38268761223077,43.55903625592228 183.2964481503047,43.6062099784209 183.12323213703715,43.70645413955423 183.03330722810952,43.75952457757387 182.94706776609834,43.81259501559351 182.86303957251462,43.86566545361315 182.78638227293814,43.9246326074174 182.71046206286766,43.97770304543704 182.6360160317214,44.04256691414723 182.56009582156307,44.10743078285742 182.48786105867129,44.178191367352234 182.41636338502192,44.243055236062425 182.3485511585512,44.313815820293634 182.28516146867733,44.378679689003825 182.2232459575519,44.44354355771402 182.1598562675023,44.5025107109032 182.09646657754055,44.57327129513441 182.03455106641513,44.64403187936561 181.9748468235442,44.71479246359682 181.84438199652993,44.86221034722878 181.77951812773185,44.93886764662953 181.72276224253355,45.01552494603028 181.66969180451392,45.09218224543103 181.62399226050013,45.162942829662235 181.59450868377374,45.233703413893444 181.58640070017537,45.36343115131383 181.60187957795534,45.48726217356468 181.6158842769869,45.605196480558114 181.65495001606286,45.72313078755155 181.70433500707955,45.85875524022934 181.72423642137124,45.92951582446055 181.74413783574806,46.01206983964592 181.76403925012625,46.088727138783064 181.7861519324953,46.171281153704825 181.81416133038536,46.23614502241502 181.86944303674872,46.37176947535642 181.89892661356023,46.44253005985124 181.9269360113638,46.51329064399457 181.97632100238053,46.64891509693597 181.99769659550716,46.71967568063997 182.0190721886338,46.79633298056793 182.03676233466962,46.878886994962485 182.07361680557761,47.06168517092972 182.09056986219392,47.14423918558788 182.10899709765064,47.2208964853401 182.12595015435483,47.29165706921984 182.15395955215703,47.42728152216124 182.1782835029563,47.56290597510264 182.20334454317512,47.70442714382866 182.21440088444612,47.78108444322941 182.22029759979142,47.85774174236656 182.2247201364761,47.934399042030904 182.2247201364761,48.01105634178313 182.2232459575519,48.081816925662864 182.22029759979142,48.20564794765011 182.21440088444612,48.30589210904704 182.18639148664394,48.40023955439576 182.12742433310328,48.488690284223466 182.0485557653602,48.5889344456204 181.95936794585072,48.69507532165968 181.90629750765535,48.75404247484885 181.851015801292,48.818906343822654 181.78762611141948,48.8778734970997 181.72276224253355,48.93684065090395 181.65789837382337,48.98991108892359 181.54512369275704,49.09015524944185 181.45519878382942,49.178605980148234 181.3844381995982,49.24936656376436 181.32104850972433,49.30833371756862 181.24955083607497,49.39678444739632 181.1957433085493,49.485235178102705 181.15667756938683,49.59727276957513 181.13235361858756,49.72700050708338 181.12129727731516,49.85672824450376 181.1308794398391,49.97466255123359 181.15520339063977,50.086700143057485 181.20016584505825,50.192841019360365 181.25102501491128,50.30487861083279 181.3225226884728,50.40512277143891 181.44561662130548,50.50536693283585 181.58197816366504,50.58792094740614 181.66084673140813,50.62330123956568 181.74708619333282,50.658681531373745 181.84438199652993,50.69995853870282 181.946837425742,50.72944211586856 182.0485557653602,50.764822407676625 182.14585156855728,50.80020270009977 182.33454645969542,50.870963283715895 182.43331644172747,50.900446860618025 182.53282351309116,50.9358271529533 182.62348551161267,50.971207444849234 182.711936241704,51.006587736657295 182.80775786615263,51.036071313559425 182.91463583169792,51.0714516058947 183.02741051276288,51.100935182269616 183.14608190917585,51.13041875917175 183.26401621590566,51.15990233607388 183.37015709212068,51.18938591262453 183.56990832461773,51.248353065901576 183.66130741238166,51.27193992728269 183.80946238551965,51.31911365039639 183.91118072504997,51.37808080384917 184.00110563406545,51.44884138755317 184.09250472191727,51.53729211825955 184.1883263463659,51.64343299429883 184.28562214947513,51.755470585507645 184.36006818079713,51.86161146181052 184.3998710092899,51.967752338377004 184.4381996590342,52.07978992967369 184.48463629246615,52.197724236403516 184.52665038930127,52.32745197443898 184.54507762475524,52.398212558582316 184.56203068128642,52.468973142286316 184.57603538031796,52.53973372678113 184.5870917215011,52.62228774170289 184.60109642053538,52.693048325846235 184.61804947715308,52.76970562533485 184.66080066331847,52.89943336275524 184.71387110142598,53.023264385269684 184.74188049940392,53.09402496914942 184.77062698662428,53.158888838211084 184.8126410834594,53.22375270692128 184.87013405816373,53.28271986037406 184.9349979268739,53.34758372882065 184.99986179575984,53.41244759788232 185.06767402223053,53.48320818176205 185.138434606286,53.55396876599326 185.21582899528065,53.62472935022447 185.2961717417722,53.68369650367725 185.3816741143666,53.7426636569543 185.4649652185308,53.79573409497394 185.5512046804555,53.842907817999766 185.63965541072253,53.89008154058625 185.80623761913878,53.972635555771625 185.88363200813342,54.0139125631007 186.03842078594698,54.07287971628988 186.18804993774555,54.11415672361896 186.33989035797433,54.125950154573125 186.51015801356925,54.13184686983053 186.69369327860315,54.125950154573125 186.78656654537917,54.11415672361896 186.8764914543068,54.09056986223785 186.96125673739516,54.06698300112034 187.10646335286052,54.00801584757969 187.24135071638375,53.95494540929645 187.37697516932516,53.90777168706143 187.5118625328484,53.89008154058625 187.66149168464696,53.90777168706143 187.7941677800036,53.960842125081065 187.89662320903855,54.043396140002834 188.00128990641863,54.13774358526368 188.1096420508881,54.243884461654424 188.2194683742818,54.350025337957305 188.27180172288325,54.40899249088288 188.32929469758759,54.467959644687134 188.38678767211618,54.526926797876314 188.45312571992767,54.57999723615955 188.5238863038939,54.63306767453066 188.59685815629035,54.68024139676568 188.67277836645005,54.72741511979151 188.74796148719022,54.774588842378 188.82977841243022,54.82765928039764 188.91528078493675,54.86893628799032 189.00667987278857,54.91611001101615 189.10029022889486,54.963283733602644 189.19979730034643,55.01045745636487 189.2941447459574,55.05173446395755 189.37743585012294,55.093011471023026 189.44967061310123,55.14018519413673 189.59340304973162,55.23453263974905 189.67448288572922,55.281706361984064 189.75261436396627,55.328880085097765 189.8285345741246,55.37015709269045 189.9044547841072,55.417330814925464 189.97890081534135,55.458607822518154 190.05629520442386,55.49988483011084 190.1314783249004,55.54705855260946 190.27889620853236,55.62371585236168 190.4100981249648,55.70037315176243 190.4653798313268,55.782927166684196 190.47348781501304,55.883171327202454 190.46685401025098,55.98931220350533 190.45506057956044,56.101349795065616 190.4285253604188,56.21928410205905 190.38208872707474,56.34901183974304 190.29068963922293,56.46694614682434 190.22582577042488,56.51411986932297 190.1499055603544,56.56129359243666 190.07177408202946,56.608467314671685 189.99437969321056,56.64974432226437 189.92583037732308,56.70281476028401 189.85949232968733,56.7499884833977 189.79462846080276,56.80305892141734 189.728290413167,56.85612935970058 189.65900400785998,56.91509651262616 189.58603215546216,56.97406366643041 189.50716358771908,57.03303081961959 189.42682084113966,57.09789468868125 189.34352973697546,57.16865527256099 189.26318699039604,57.24531257231321 189.1857926014014,57.31607315619295 189.0391118071876,57.48118118577287 188.95876906060818,57.55783848570083 188.87474086702585,57.62859906940483 188.79587229928273,57.69935965389964 188.72363753621522,57.77601695303679 188.65729948858083,57.84088082201058 188.5953839774554,57.91164140624179 188.53494264516632,57.97650527495198 188.47892384938618,58.04726585918319 188.42216796427573,58.12392315858394 188.36172663189876,58.20058045798469 188.29981112077334,58.283134472906454 188.23936978848423,58.36568848756462 188.18408808212226,58.448242502749984 188.0838439213404,58.595660386381944 188.02929930448443,58.67231768551909 187.97549177678303,58.7430782700139 187.91947298100288,58.81973556915105 187.86566545347722,58.896392869079 187.81628046246053,58.973050168567624 187.7713180081285,59.04970746770477 187.7278297323692,59.13226148289014 187.68802690370072,59.220712212717835 187.64306444919296,59.29736951238219 187.5966278158489,59.379923527040354 187.54429446715955,59.456580826792575 187.48974985021573,59.52734141067231 187.43889068045058,59.598101994903516 187.38803151050968,59.662965863613714 187.34159487716698,59.72782973258751 187.25977795183775,59.84576403966881 187.19196572536706,59.96369834639864 187.1374211084232,60.093426083819026 187.1145713363724,60.16418666831384 187.0954070115895,60.23494725254505 187.0895102963307,60.35877827470802 187.1248905883145,60.470815866004706 187.18680609943993,60.56516331161703 187.29368406498523,60.65951075722935 187.4248859814163,60.74206477215111 187.58851983224915,60.812825356294454 187.68507854611593,60.84230893266937 187.78827106465695,60.86589579405049 187.89662320903855,60.89537937068901 187.9998157275823,60.91306951690058 188.09563735203093,60.93075966311215 188.19145897630386,60.93665637828169 188.28580642191616,60.94844980923585 188.38015386735276,60.95434652449326 188.5592665959656,60.95434652449326 188.74353895050552,60.92486294759114 188.84230893253894,60.89537937068901 188.93960473573603,60.85999907888094 189.03100382358784,60.82461878707288 189.1209287326912,60.78334177948019 189.20127147927062,60.74206477215111 189.27866586808955,60.70668447972797 189.42092412579575,60.63592389584824 189.55212604231605,60.57695674204398 189.67227161738685,60.52978301980896 189.78725756661842,60.5356797347149 189.89192426399848,60.588750172734535 189.97890081534135,60.665407472662494 190.06514027726604,60.75975491801121 190.14843138169383,60.86589579405049 190.21698069740694,60.99562353182234 190.24425300587885,61.06638411596568 190.26783986725997,61.1430414154543 190.28774128163815,61.22559543037607 190.3113281429314,61.30814944494636 190.33417791489435,61.37891002917756 190.3621873128723,61.44967061340877 190.3865112636702,61.52632791280952 190.4100981249648,61.60298521221027 190.44990095354544,61.74450638067269 190.47348781501304,61.82116368007344 190.49781176581368,61.89782097947419 190.52434698477958,61.97447827922641 190.55235638275752,62.05113557836356 190.5781545123931,62.127792878291515 190.60321555252267,62.20445017778013 190.63122495041276,62.28110747718088 190.66070852713915,62.34597134562747 190.73441746895648,62.4639056526209 190.8022296954258,62.54645966754267 190.85235177586068,62.61132353625286 190.9032109458016,62.676187405226656 190.94596213205483,62.76463813540583 190.9990325700745,62.847192150327594 191.07790113781758,62.9356428801553 191.1796194776115,63.01230018008326 191.2953425162626,63.100750910262434 191.40074630305944,63.20099507078069 191.48108904963885,63.301239231914025 191.52752568289506,63.41327682338645 191.53342239824033,63.519417699425716 191.51499516278633,63.63735200677063 191.46561017176964,63.7611830289336 191.39779794529892,63.885014050920844 191.3543096696275,63.949877919631035 191.2975537844292,64.00884507317168 191.2290044686282,64.05601879619752 191.1538213479759,64.10319251878401 191.0808494955781,64.15036624154624 190.93859123787325,64.20933339482328 190.79633298008054,64.25061040241596 190.64965218586673,64.27419726353348 190.49928594456213,64.28599069422403 190.34670843500308,64.2800939793181 190.18602294184424,64.26240383284292 190.01870364400983,64.22112682551384 189.87054867095972,64.1621596722368 189.79315428196506,64.12088266499558 189.71428571422197,64.07960565766649 189.63836550423937,64.03832865007381 189.5646565624234,63.99705164274474 189.49315888877265,63.949877919631035 189.41723867879145,63.90860091256556 189.3339475744515,63.86732390497288 189.2410743077634,63.8319436126376 189.14083014698153,63.796563320829534 189.0354263601847,63.76707974392741 188.92928548388178,63.731699452119344 188.82535587592128,63.70811259065036 188.72953425173623,63.68452572900564 188.56442622189408,63.660938867888134 188.409637444167,63.666835583057676 188.24452941441135,63.68452572900564 188.15607868432005,63.70221587548082 188.06173123870772,63.725802736598325 187.96001289908955,63.743492882809896 187.84871239685955,63.7611830289336 187.73446353721914,63.79066660530852 187.62463721374036,63.82015018194704 187.52734141054188,63.85553047428232 187.44183903803534,63.896807481875 187.36149629145592,63.938084488940476 187.27525682953123,63.97346478136362 187.18533192051436,64.01474178860484 187.0939328327518,64.04422536550696 187.00179665548183,64.07960565766649 186.90892338870583,64.10908923395355 186.8101534066724,64.13267609568614 186.70327544103924,64.1621596722368 186.48657115218813,64.20933339482328 186.37821900763078,64.23881697172541 186.2765006680126,64.26240383284292 186.18067904356394,64.28599069422403 186.08927995571213,64.31547427112616 186.00304049378744,64.34495784802829 185.9175381212809,64.38033813983635 185.83719537470148,64.40982171647488 185.691988759324,64.49237573166025 185.5578384853068,64.58672317727256 185.49297461642087,64.6397936152922 185.42958492654563,64.69286405331184 185.36914359425788,64.75183120676462 185.31312479847776,64.81079836004167 185.26742525446397,64.87566222875186 185.19150504456925,64.98769982057576 185.138434606286,65.09384069661503 185.11411065548674,65.1999815729179 185.12811535451965,65.30612244895718 185.16791818301377,65.41226332526006 185.24236421424655,65.51250748639339 185.3632468789126,65.57737135510358 185.50329386836296,65.61275164691165 185.655134288416,65.6068549320057 185.8128714239022,65.55968120889202 185.96766020171577,65.49481734018181 186.11728935369007,65.41226332526006 186.1976321002695,65.37688303345199 186.2860828303608,65.3356060258593 186.38043027588526,65.30022573405124 186.47920025800653,65.27074215714912 186.57502188227943,65.24715529603161 186.66568388088882,65.21767171912947 186.83889989398065,65.18818814222735 187.00621919190291,65.18229142696994 187.16837886398594,65.21177500360847 187.32464182054795,65.2648454416281 187.46542589941646,65.34150274129244 187.56272170261218,65.42995347147162 187.6165292302271,65.53019763251709 187.63495646568109,65.63633850855636 187.6290597503358,65.75427281563766 187.6062099782836,65.88400055279445 187.5811489380689,66.00193485978788 187.55166536134115,66.11397245161177 187.51333671177395,66.23780347386261 187.47427097252225,66.36753121128301 187.44036485919904,66.49725894870339 187.4175150872347,66.58570967940977 187.39540240477913,66.66236697854693 187.36002211261962,66.73902427794768 187.31063712177863,66.83337172355999 187.27820518729175,66.92771916890871 187.26420048825884,67.03386004521158 187.25977795183775,67.14000092177807 187.25682959407723,67.24614179781734 187.25682959407723,67.35228267385662 187.2686230247678,67.45842355051096 187.31358547927553,67.55866771102923 187.39245404702,67.64711844112053 187.49122402905206,67.73556917156331 187.60252453119418,67.81222647070045 187.7278297323692,67.87119362450471 187.84723821802322,67.9124706320974 187.96001289908955,67.9360574932149 188.08163265299666,67.94195420838444 188.2194683742818,67.91836734700333 188.3632008107351,67.87709033993785 188.51651540971233,67.81812318648507 188.67277836645005,67.73556917156331 188.75164693410528,67.69429216397063 188.82683005484546,67.64711844112053 188.89980190724327,67.60584143414292 189.03395218126047,67.51739070343653 189.156309024675,67.43483668904199 189.2749804210866,67.36407610489864 189.40839360568566,67.30510895109438 189.54917768455417,67.24614179781734 189.6803796010745,67.18717464436456 189.80568480207378,67.11641406013335 189.9088773207919,67.04565347590214 189.98627170952292,66.99258303814611 190.04818722073622,66.93361588469332 190.08356751272004,66.85106186977157 190.12410743071882,66.78030128527675 190.1845487630958,66.71543741656656 190.27889620853236,66.65057354811997 190.37619201172947,66.59750310983672 190.4440042381988,66.53263924112653 190.54277422023358,66.46187865689532 190.66218270606194,66.40291150361828 190.79043626473526,66.35573778085606 190.92458653884034,66.31446077326336 191.08379785316285,66.29087391214586 191.2724927443861,66.27908048145531 191.3742110839178,66.28497719636124 191.47371815545725,66.28497719636124 191.56953977973015,66.2967706270518 191.6602017781638,66.31446077326336 191.8304694338466,66.35573778085606 191.9896807481691,66.41470493430883 192.13341318462238,66.49136223379746 192.26608927997765,66.57981296362516 192.32210807575916,66.63288340164479 192.37296724552434,66.69185055544905 192.42751186246815,66.76261113932878 192.48279356883015,66.82747500839045 192.54323490120711,66.88644216157962 192.70539457311438,67.04565347590214 192.76731008423982,67.15179435246863 192.78721149853013,67.26383194376531 192.79015985620276,67.48790712679802 192.78721149853013,67.58225457267395 192.79974201872807,67.67660201775905 192.84323029439676,67.83581333234517 192.88966692765297,68.01271479261565 192.91841341505042,68.16013267624761 192.94494863401633,68.30165384471003 192.99285944619672,68.45496844351152 193.05772331508263,68.59059289645293 193.16754963830059,68.72032063413691 193.2677937992568,68.83825494121822 193.3997328050209,68.95029253242703 193.5383056157228,69.0800202704625 193.66877044264922,69.22154143830984 193.84788317126342,69.33357903013373 194.0579536554376,69.40433961401347 194.2694983185387,69.46330676755412 194.46777537193444,69.51637720557375 194.6498364583078,69.54586078247588 194.8451651541201,69.56944764359339 195.06776615840576,69.60482793592867 195.2763624637436,69.62841479739764 195.46284608645016,69.63431151256718 195.68397291189947,69.63431151256718 195.90215137975989,69.63431151256718 196.11222186393678,69.63431151256718 196.3053392914068,69.6402082280882 196.51098723916124,69.6578983742119 196.70410466663122,69.71096881196793 196.9009075412799,69.78762611172016 197.0873911641622,69.88197355733247 197.25765881966925,69.9763210029448 197.44635371071814,70.08246187898408 197.6195697239857,70.16501589390583 197.7706730547963,70.27115677020872 197.88860736161402,70.38909107693854 198.01686092054956,70.51881881435892 198.11415672365877,70.66033998282134 198.17902059236897,70.81365458162284 198.22987976230988,70.97286589620896 198.23135394114618,71.13797392552529 198.19449947023818,71.29718523984779 198.14069194262603,71.44460312347975 198.07361680557213,71.59791772289633 198.00285622151665,71.76302575212479 197.90850877590572,71.9222370664473 197.7957340951016,72.09913852671778 197.65642419489367,72.2583498413039 197.48320818162614,72.38807757907576 197.28714239639564,72.51190860097513 197.0954991478498,72.65932648460708 196.96282305240533,72.753673930483 196.77412816144428,72.90109181411496 196.65177131802977,73.00723269015424 196.46012806922036,73.1546505737862 196.26995899933513,73.30206845741816 196.13875708290269,73.40231261802428 196.00534389821576,73.50255677942123 195.88372414430725,73.61459437063004 195.76578983731383,73.73252867762348 195.62205740077266,73.90353342272441 195.5218132399908,74.08633159816443 195.4444188509948,74.27502648938908 195.4090385589245,74.41654765750002 195.38397751870707,74.55806882596244 195.36849864101356,74.69958999407338 195.3626019256683,74.8411111627994 195.35523103148668,75.04159948445098 195.35007140555956,75.23029437541203 195.351545584308,75.43078269732723 195.35817938907147,75.60768415724624 195.356705210323,75.77868890261078 195.351545584308,75.93790021693329 195.37365826694068,76.27990970695943 195.36849864101356,76.42143087515825 195.3707099091802,76.5688487587902 195.39208550239468,76.71626664242216 195.3906113234705,76.86958124148727 195.393559681231,77.01110240968607 195.393559681231,77.17621043944173 195.39650803881577,77.3531118994486 195.41346109543346,77.50052978308057 195.4200949001969,77.68332795913567 195.38102916112229,77.86022941931829 195.25940940703669,77.98406044130552 195.13410420603876,78.09609803312941 194.99332012717025,78.24351591676137 194.83410881284772,78.38503708487231 194.6859538397976,78.50297139212935 194.57096789065116,78.65628599075512 194.4832542498023,78.80370387438707 194.41986455975405,78.9688119044942 194.36089740638914,79.3226148246837 194.19873773430612,79.71769475308095 194.09333394750928,80.00663380482385 193.89726816227878,80.34274657941684 193.82945593580806,80.50195789373936 193.81545123703876,80.57861519375518 193.75648408341024,80.89703782213661 193.60980328919644,81.31570461191497 193.58031971255792,81.3864651955311 193.4365872759289,81.77564840840733 193.340765651656,82.16483162128357 193.17049799615032,82.63067213382416 192.99728198279354,82.94909476255705 192.6479015985858,83.52697286639433 192.47984521115887,83.78642834123511 192.0471737226977,84.43506702930358 192.04569954394924,84.48813746758682 192.02211268248027,84.7299027965675 191.89828166031728,85.04832542494893 191.76118302845032,85.27829732376625 191.71474639528336,85.34905790799746 191.82088727132265,85.60851338283824 191.81499055597737,85.9151425807927 191.68968535497808,86.20408163288708 191.56806560089385,86.35149951651904 191.17077440450572,86.53429769195905 190.99608421257759,86.66402542964305 190.85235177586068,86.88220389750622 190.78896208590032,87.10627908053893 190.72557239602506,87.24780024900133 190.5582530981028,87.4659787168645 190.18086331591712,87.74312433791684 189.98184917310184,87.84926521395612 189.8860275486532,87.89643893698195 189.69291012118322,87.97309623647057 189.49610724653454,88.03796010518076 189.29856728246773,88.0910305432004 189.10544985482198,88.12051412010253 188.90569862258855,88.19127470424587 188.7000506748341,88.27382871890403 188.496613995422,88.39176302624892 188.1826139033738,88.69249550841879 188.03740728790845,88.8340166771448 187.856083291129,88.96374441456518 187.56861841813458,89.06988529060446 187.3710784539785,89.11116229819714 187.08656193848233,89.10526558293974 186.6966416362758,89.17012945138633 186.39885751133926,89.21730317423642 186.1113926383448,89.28216704294661 185.7738056848276,89.38241120407994 185.57479154183662,89.31754733501829 185.18339706088162,89.28806375873123 184.894458008963,89.20550974380947 184.50969733277145,89.19371631311891 184.11093195737126,89.19961302802486 183.82199290545262,89.22909660492698 183.62887547789475,89.2526834665717 183.52642004885843,89.28216704294661 183.13355138897924,89.38830791924948 182.5313493343427,89.60648638711265 182.0456074077754,89.71852397893655 181.56649928597156,89.76569770117156 181.31736306254567,89.83056157014536 175.33661952359716,91.25756668396632 163.27193992715638,90.77403602547776 158.54645966733534,88.12051412010253 153.6403925000638,87.02372506596863 152.42714331786067,86.39867323901765 145.44469525954514,87.00603491975706 142.62975077168076,87.01193163519021 139.30031786985302,87.08858893467882 138.94872621730292,87.04731192734974 137.71557562080946,86.92348090483529 136.95195098350806,86.75837287551897 133.1397245128735,86.89399732846037 127.3867416040485,87.7549177686074 127.39116414064532,87.99078638233067 127.43022987971992,88.75146266222303 127.41253973368272,89.10526558293974 127.28281199608797,89.46496521865024 127.10075090989037,89.80697470876424 127.34915004372235,90.148984199054 127.5857557470395,90.44381996631792 127.73907034592888,90.82120974797638 127.85479338457996,91.20449624594669 127.61081678725694,91.55829916613617 127.57027686917029,91.92979223341591 127.75749758138424,92.2600082924879 127.58428156811532,92.59022435155987 127.4390749528257,92.93223384193749 127.30934721522958,93.28603676239058 127.10222508872668,93.61035610629303 126.81181185797173,93.91108858934155 126.43884461238288,94.17054406418232 126.37545492233326,94.54793384636801 126.55530474045213,94.9076334823421 126.80370387428411,95.20836596512704 126.86856774317003,95.57985903179171 126.83466162984682,95.94545538328683 126.58552540659667,96.25798129676231 126.47275072552898,96.6589579403291 126.46537983134876,97.06583129906544 126.60911226797779,97.43732436581797 126.7779057446485,97.76754042488996 126.77422029755908,97.98571889301672 126.77274611872139,98.13313677664868 126.46537983134876,98.44566268950909 126.17644077943012,98.73460174160347 125.9862717095449,99.06481780067544 125.92730455617999,99.40682729105306 126.05850647270029,99.78421707288727 126.30911687478675,100.09674298609914 126.59510756894488,100.36799189224556 126.78969917533907,100.68641452062698 126.90099967747982,101.05790758781885 127.06979315432766,101.3881236469787 127.34472750721339,101.70654627536013 127.69853042810583,101.9424148896106 128.07297185244312,102.17828350342172 128.4503616344517,102.4377389782625 128.89408946427312,102.62643386948714 129.31717879020897,102.81512876071179 129.69162021463552,103.08048095107357 129.9621320310988,103.38711014911591 130.2031602709249,103.69963606250353 130.39185516188456,104.02985212192698 130.5613857280627,104.38955175790109 130.7567144239629,104.73745796318464 130.98226378583195,105.09715759889515 131.23729672451384,105.43327037375175 131.40387893301934,105.76348643335093 131.53876629654394,106.13497950010347 131.75325931722708,106.44750541296388 131.96848942732973,106.76592804187251 132.16308103381178,107.11383424750754 132.41663979356952,107.41456672967739 132.58027364449023,107.74478278901297 132.70705302432447,108.12217257146226 132.83235822550088,108.4700787764822 132.97609066195417,108.83567512797732 133.08002026991468,109.20127147947245 132.92670567093745,109.53738425432904 132.80287464886234,109.87349702892205 132.63776661901883,110.2214032344692 132.38568203800818,110.55161929327758 132.3222923481343,110.91131892951529 132.26332519459365,111.2769152810104 132.1601326760513,111.66609849388665 132.02229695494327,112.04348827607232 131.99133919938055,112.12014557520948 131.61247523835857,112.85723499336926 131.67733910724448,114.31372368400447 130.75818860271136,114.67932003497239 130.5820242317712,114.95056894111879 130.41175657626414,115.24540470838271 130.2554936195264,115.37513244580309 129.93264845446026,115.48717003762698 129.69014603579782,118.75984705443217 129.67908969452543,118.91316165297008 127.73612198825623,121.97945363286627 137.56889482659568,120.7352466945732 138.65831298654933,120.82959414018552 140.18703643981138,120.85318100156664 142.6887179250457,121.76127516509096 145.86188787022357,123.05855254087645 145.9650803888538,123.12341640958665 149.64610494305728,124.20251531803618 150.1635417146041,124.73321969911123 150.45616621378926,124.95729488188033 150.88441516565223,125.26392407983481 150.9905560419551,125.41134196346675 151.14239646200815,125.68848758513418 151.2831805408753,125.75924816875032 151.22863592393148,125.85359561436263 151.23011010285703,126.00101349799459 151.35836366152898,126.32533284189702 151.4129082784728,126.5435113100238 151.5426360160689,127.12728612903061 151.5721195927953,127.38084488870184 151.573593771633,127.45160547293305 151.58317593397985,127.61081678725557 151.63256092499654,127.75823467088752 151.87358916482268,128.1356244530732 152.06670659229266,128.3773897823175 152.31731699464274,128.60146496535017 152.36375362781106,128.67812226475093 152.42050951309722,128.91399087882567 152.57677246965923,129.20292993083217 152.5826691850045,129.34445109903098 152.60625604638562,129.4329018288587 152.81632653056116,129.3916248215296 152.9246786751185,129.38572810662367 153.0359791773485,129.39752153705064 153.2460496613483,129.4741788364514 153.6543971990967,129.73363431190722 154.09296540281392,130.03436679407707 154.70548670939257,130.35868613824312 155.69613488731144,130.7360759204288 156.42732759012597,130.9365642420804 156.74869857644364,130.98963468010004 157.08112590403368,131.0309116876927 157.37301331362497,131.03680840286225 157.77030451010097,131.10167227192392 157.98111208360544,131.1429492795166 158.07693370805544,131.19601971753625 158.244990095308,131.35523103185875 158.76168977743802,131.48495876901555 159.56216888555954,131.744414244735 159.96683097612927,131.96259271224667 160.2019625006101,132.1041138807091 160.45552126045706,132.22204818717532 160.72013636166432,132.32229234857226 161.00096742989393,132.4343299397811 161.27516469336288,132.56995439272248 161.5500990463365,132.72326899187544 161.78965310723842,132.88248030619798 162.03215552581298,133.01810475913936 162.27539503380572,133.1537292119929 162.47293499787256,133.30114709562486 162.63951720637667,133.47215184072581 162.8053623254626,133.63136315504832 162.90855484400498,133.79647118489186 162.91224029118365,133.9438890685238 162.90855484400498,134.01464965213992 162.853273137643,134.13848067439076 162.8024139679657,134.28589855802272 162.80978486197156,134.45100658812987 162.92919334780132,134.59842447176183 163.08987884096015,134.73404892470322 163.27193992715638,134.84608651591205 163.51296816698388,134.95812410773593 163.75768185372505,135.0878518451563 163.99428755695573,135.20578615214976 164.23236743910783,135.27654673611735 164.42695904541415,135.23526972878827 164.64956004978626,135.18219929050503 164.87363523281897,135.12323213757946 165.0837057169945,135.08195512998677 165.19500621913664,135.0878518451563 165.30778090020294,135.1291288524854 165.51342884778165,135.25295987499985 165.73308149439328,135.34141060482756 165.96673883994993,135.31192702818902 166.2217717787211,135.27654673611735 166.498180310531,135.30013359749847 166.76426959057457,135.34141060482756 167.01930252908213,135.38268761242023 167.25369696414478,135.39448104337438 167.5323167641227,135.35320403578172 167.7534435895679,135.32961717413698 167.99742018706803,135.34141060482756 168.2399226055561,135.40627447406496 168.4536785368197,135.54779564226376 168.5848804532535,135.6893168106383 168.6526926797242,135.8308379788371 168.75957064544525,135.97825586246907 168.91288524442248,136.1374671767916 169.1015801353835,136.3025752066351 169.32418113975564,136.3851292212054 169.55710139589414,136.45588980517303 169.8018150826353,136.5030635282867 169.9882987055176,136.54434053552794 170.14603584091594,136.5856175431206 170.22195605107424,136.61510111949553 170.27281522083942,136.62099783501654 170.43866033992398,136.66227484260924 170.6575758972067,136.6917584191599 170.9052379416205,136.7271387113194 171.1433178237726,136.78020914933907 171.39024277876965,136.8332795873587 171.6452757175408,136.89814345606888 171.8855668678609,136.96300732477908 172.11111622972993,137.02197447858333 172.34772193313495,137.09273506281454 172.55779241713338,137.1634956469579 172.7339567881628,137.22246280023492 172.91601787436042,137.27553323825458 173.08186299344638,137.31681024584725 173.20348274744273,137.36988068386688 173.29783019305506,137.4583314142218 173.39365181732796,137.57626572095162 173.5992997650824,137.64702630491922 173.86096650844127,137.67061316630034 174.06808863494416,137.6647164511308 174.29216381806472,137.64702630491922 174.4742249043502,137.61164601311117 174.6570230801417,137.58216243620905 174.8162343944642,137.57036900551847 174.95480720499037,137.57036900551847 175.04325793525743,137.57036900551847 175.16561477867197,137.57626572095162 175.26438476070535,137.5939558668996 175.46855852944776,137.6647164511308 175.70295296442256,137.72368360458358 175.93955866773973,137.7059934587235 176.17469019204484,137.6647164511308 176.4393052931642,137.62343944353813 176.66927719162868,137.57036900551847 176.89630073242327,137.55267885930692 177.0820472658874,137.55267885930692 177.20440410930192,137.55267885930692 181.35937715938078,137.95365550287372 182.6839268439018,137.88289491899397 185.30427972537197,137.7531671814857 186.03399824935016,137.74727046605256 186.67968857965812,137.74727046605256 187.0836135808097,137.79444418855118 187.482378956122,137.859308057525 188.07426175881645,138.12466024823826 188.2887547795023,138.18952411694843 189.1364076103847,138.37232229238847 189.68480213749558,138.50205003033605 190.32164739478563,138.60819090637534 190.8213940202966,138.69664163655452 190.91353019756795,138.74971207457415 190.93269452252798,138.8263693739749 191.04989174001537,139.19196572547003 191.0808494955781,139.27451974039178 191.1427650067035,139.35117703979253 191.24595752524587,139.40424747781216 191.64324872154614,139.52807850032661 191.84447413270377,139.5929423687732 192.03316902384054,139.69908324507608 192.29409867778122,139.9054682825123 192.5741926567698,140.29465149538854 192.69433823184198,140.5246233935908 192.8225917906018,140.61307412376996 193.75795826233443,141.06122448983538 196.84488874549976,142.31722485864324 201.00796977935548,144.47542267510298 201.35587598463903,144.69360114287826 201.49150043766693,144.79974201891756 210.51126364760037,151.75196941108854 210.09407103692195,153.66840189830398 209.70931036064252,155.4138296404185 209.65992536962582,155.9150504445914 209.1306951673871,158.25604643701837 208.90514580551806,158.73957709497972 204.8061915510436,167.82641544240505 204.68973142297438,167.96793661060386 202.10254756523352,171.70645413942242 202.01409683514223,171.81259501572532 201.59985258204856,172.59096144121418 201.6094347445725,172.95066107718827 201.7605380752074,174.13000414624395 201.85783387840448,174.46022020584314 201.8939512598943,174.91426728742957 201.9123784953483,175.12654903985958 201.56889482648583,177.8626249600687 201.60280093980904,179.6729165707177 195.71050813095184,195.83581333247696 201.04629842901053,200.240659695312 201.37430322009166,200.5767724701686 193.62380798822934,210.34173308168585 184.09987561609887,211.33238125951686 180.60975722111226,212.9952549870611 173.72755332384222,216.4271433181888 173.37227622428918,216.5155940480165 173.17473626022237,216.60404477845927 172.780393421419,216.70428893897753 172.27032754405244,216.8517068226095 171.88188142068222,216.93426083753127 171.78458561748513,216.95784769891236 171.4956465655665,217.02271156788618 171.0887732067423,217.04629842935515 170.78951490296942,217.10526558254432 170.28976827754497,217.2114064591108 169.9020592435929,217.3529276273096 169.71041599487137,217.4767586494726 169.61606854925904,217.49444879542057 169.01902612054963,217.48265536473002 168.93278665862354,217.4767586494726 168.78610586441113,217.50034551094157 168.58930298976247,217.55341594896123 168.08734509599427,217.6182798176714 167.26180494783242,217.7303174094953 167.05026028464482,217.77159441673652 166.85493158892035,217.80697470889606 165.95273414109278,217.85414843139466 164.8102455429451,218.0133597457172 163.6891325378348,218.20795135219925 162.9446722254948,218.290505367121 162.6277237756861,218.36126595126436 162.51273782654104,218.40254295885703 162.37563919467408,218.42023310454138 161.70341364531373,218.5322706963653 161.52872345329772,218.63251485688355 161.08499562347765,218.95093748579217 160.38623485515006,219.37550099082796 160.0818169253622,219.52881558962946 159.28576035374962,220.03593310958698 159.09043165802515,220.11848712415727 158.80665223194575,220.212834569506 158.44768968530195,220.3779425990859 158.29437508632472,220.50177362160036 158.00396185565762,220.91454369559412 157.9096144100453,221.0442714335417 157.79978808673812,221.16810245552895 157.70396646246658,221.2919334780434 157.58013544021574,221.40986778450963 157.4865250840216,221.53369880702408 157.38112129722472,221.65752982953853 157.2462339337015,221.77546413626834 157.1305108950504,221.91108858920975 157.02584419767172,222.02902289620317 156.96835122305524,222.08209333422283 156.849679826818,222.6540747225391 156.02561385731676,223.36757727931774 154.72391394484657,224.54692034837342 153.40526097566945,225.71446998700213 151.85516192936868,227.2063389691818 150.70309116869706,228.42695904583013 149.6969641129103,229.7183397061825 148.49771962956297,231.19251854250206 147.5232874187571,232.36006818086716 146.51421200529498,233.53941124992284 145.68130096286228,234.63030358915077 144.69360114252817,235.868613811132 143.28354908550062,237.36048279392676 142.29142672874542,238.25678352614545 141.28161422577728,239.1177039668197 140.25705993453656,240.13783572155285 138.9708388998477,241.19334776835765 137.64628921541458,241.99530105496405 136.54212926709909,242.60855945087297 136.04459390984124,243.0626065324594 134.9256921729868,243.65227806698724 132.48002948353263,254.37250656505466 132.46749896342254,254.49044087187235 132.4505459068941,254.5670981712731 132.46455060584051,254.6260653247259 132.48297784129315,254.6732390473124 132.62376192016166,254.90321094612972 132.63924079785514,254.95628138414935 132.65029713912753,255.00345510664798 132.65766803330914,255.05652554493122 132.74464458465198,255.43981204237429 132.8802690375934,255.81130510903895 132.9222831344285,255.91744598507825 132.70852720325004,256 123.9762288663989,251.70129451355572 123.43225687562123,251.4300456074093 115.2601464966594,251.23545400119087 105.20772101162049,248.0335375688805 104.68659879298151,247.79177223937262 104.59519970521757,247.68563136333333 102.32643847603389,245.1264569033068 101.58861196845594,244.48371493102294 100.67240982168194,243.79379923544965 97.55157322537052,241.14617404524395 92.01455751597845,237.51379739272826 80.28009397887463,229.25839590933865 72.33058460410919,229.3173630626157 67.35154558435195,229.28198277080762 70.41046666971508,227.11788823882688 71.65172524989616,225.96802874667335 73.57773989972205,223.92186852203753 72.46473487821427,223.24964297258794 67.43778504627666,219.97696595578273 52.78665868151456,210.1294513293437 49.777122587168144,207.959460082457 49.30096282312616,207.68821117631063 47.99778873173042,206.37324365404996 42.732759017815056,201.82097940793446 42.34504998386301,201.154650573918 42.080434882743646,200.57087575438396 41.68682913344632,199.81609619053984 41.28585249005526,199.24411480169636 40.43746256975334,197.687381950455 40.10208688440277,196.9208089556567 39.89496475789987,195.82991661704384 39.25517114293718,195.364076104679 38.92864053069239,195.1989680751869 38.44363569354325,195.10462062957458 38.262311696675944,195.423043257956 38.018335099352925,195.8240199015228 36.13580872528496,194.4972589488352 32.646427419716524,192.9994932511345 32.30368084027222,192.85207536750255 31.18772746126617,187.88114433160868 31.08379785330564,187.5037545491594 30.91721564480153,187.32685308888892 29.239600129069853,186.54848666366365 28.778919242719986,186.15930345052382 28.45902243515077,185.76422352274164 28.131754733487824,185.28069286425307 27.847238218166016,184.78536877533756 27.76026166682316,184.301838116849 27.69244944035246,183.85368775069574 27.80522412124304,183.47629796886153 28.0020269958917,183.1519786246955 28.72511171519432,182.031602708829 29.00815405176768,181.59524577345414 29.629520431188514,181.1117151149656 34.88791634034044,180.97019394711825 42.03104989172694,163.40977564870374 36.35177592480578,160.77394388954008 36.02745658090333,160.52038512925375 20.980513198501566,148.76823144628983 8.503063527980549,134.17975768198346 7.2898143456016715,132.75864928368352 1.6982540195293914,122.4393974294465 0,107.46763716769702 8.769152808024101,88.8340166771448 13.859492329747725,84.95987469512123 15.040309577639706,81.36287833414998 15.633666559170466,78.85677431240671 16.318422628639535,75.95559036279339 16.04496245450363,63.85553047428232 17.07172801408808,54.697931543240855 16.41719261067432,50.245911457380004 16.499746625508216,45.92361910946674 17.757958262306975,40.2450822315244 19.58151748283429,34.24812272572784 22.04413322890614,30.698300087782435 22.444372782966905,29.707651909951416 23.925185424049918,27.425623071328715 25.307228083099517,26.458561754615204 29.174736260183924,21.216381812311326 35.68913253796799,16.00958216295779 38.12816142265873,14.38798544300626 47.60049753543016,15.013037269342156 53.11908600910462,15.37863362083728 60.96245450774292,15.26069931401958 62.48822960333368,14.71820150207824 64.08476528306778,14.305431428084496 64.89482655362539,14.134426682719955 65.06214585163553,14.116736536859856 65.56410374531447,13.97521536839744 66.07564380160524,13.851384346498067 66.54738102913963,13.786520477700005 67.02648915094349,13.709863177772048 67.50928271983678,13.591928871042219 67.78569125164807,13.497581425429898 68.13064909934685,13.42682084119869 68.21688856127018,13.415027410508133 68.36504353432167,13.379647118700067 68.42401068786232,13.367853688273115 68.49993089784354,13.291196388520893 68.5618464089717,13.279402957566733 68.6186022942565,13.273506242660794 68.68715161014536,13.273506242660794 68.7623347307098,13.273506242660794 68.80877136405385,13.279402957566733 69.24365412076814,13.43861427215285 69.6947528447698,13.609619017253788 69.74708619337127,13.621412447944346 69.80310498915141,13.627309163377491 69.8583866955134,13.633205878634902 70.03749942421409,13.627309163377491 70.09794075641533,13.621412447944346 70.45985166073179,13.497581425429898 70.51365918825745,13.485787995002944 70.88810061268262,13.444510987410261 70.94485649788092,13.43861427215285 71.26843875245306,13.367853688273115 71.31929792230609,13.361956972488496 71.42765006686345,13.367853688273115 71.48440595197388,13.379647118700067 71.54189892659035,13.397337264560166 71.77997880865597,13.503478141214515 71.82936379967266,13.53885843302258 71.87137789650778,13.574238724830648 71.90823236741576,13.615515732423331 71.9900492928315,13.745243470107322 72.05343898288112,13.816004054074925 72.1713732896988,13.91624821520826 72.6180494771915,14.11083982133884 72.93794628467286,14.169806975143095 73.007232689892,14.169806975143095 73.07062237985375,14.169806975143095 73.42811074774912,14.169806975143095 73.48486663294742,14.181600405570048 73.69862256421376,14.234670843589685 74.18804993778399,14.29363799739394 74.2499654489094,14.29363799739394 74.70917215642297,14.27594785118237 75.16837886402438,14.216980697905322 75.49933201277813,14.211083982472175 75.5590362555612,14.216980697905322 75.62095176677448,14.228774128595878 75.6813930989771,14.24646427428024 76.13617726998031,14.435159165241279 76.51282996274645,14.706408071387685 76.96908831250087,14.948173400631964 77.34205555817759,15.042520846244283 77.86244068731052,15.0012438386516 77.99880222975796,14.98355369244003 78.47496199380132,15.0012438386516 78.76095268813518,14.995347123130585 78.83171327219065,14.989450408224647 79.28944580095575,14.859722670189186 79.65872759954166,14.60616391025435 80.03169484504265,14.358501866104133 80.08107983605936,14.340811719892562 80.53070438113683,14.193393836260604 80.57861519331722,14.175703690312638 80.66338047631635,14.116736536859856 80.94347445521844,13.80421062338437 81.15796747590294,13.503478141214515 81.19039941030196,13.468097848791373 81.46901921045423,13.261712811970238 81.87736674802689,13.09660478212671 82.21421661212591,12.960980328921703 82.32846547202855,12.907909890902067 82.51716036298959,12.778182153745284 82.89233887683292,12.530520108716388 82.96825908698987,12.501036532077865 83.04123093938907,12.483346386481369 83.11493988120505,12.477449670696751 83.19896807478739,12.483346386481369 83.68397291193654,12.6012806932112 83.76136730093118,12.6012806932112 83.82770534856556,12.583590546999629 83.88667250193048,12.536416824501005 83.70387432622685,12.182613903432836 83.56824987328545,11.811120837031774 83.50780854108422,11.746256968321582 83.41346109547189,11.48680149260213 83.39208550243312,11.445524485273049 83.33459252772879,11.362970470351284 83.30216059332976,11.327590178543218 83.2667803012581,11.298106601641091 83.22624038334718,11.268623025266171 82.75229188747043,11.127101856891624 82.46408992497132,11.056341272396812 82.41028239744429,11.038651126448846 82.36237158517604,11.009167550161795 82.32035748834093,10.979683973259666 82.28055465984816,10.95020039635754 82.1412447597281,10.785092366777615 82.115446630179,10.74381535918493 82.09628230530822,10.661261344614639 82.09996775231114,10.614087621500941 82.25917906663366,10.254387985526833 82.27908048092398,10.213110978197752 82.29898189530216,10.136453678797002 82.17515087305132,9.759063896611323 81.97466255122399,9.405260975806756 81.81176578981068,9.06325148604422 81.76385497771815,8.933523748623832 81.75943244129706,8.886350025510135 81.77933385541164,8.750725572568733 81.79628691220505,8.703551850070111 81.8198737734983,8.662274842477427 81.85083152906238,8.615101119890936 82.19873773434456,8.326162067884432 82.2510710830339,8.284885060291748 82.29750771637798,8.237711337441654 82.33583636621015,8.190537614679426 82.36384576401235,8.13746717665979 82.38227299946635,8.084396738640153 82.40438568218687,7.972359146816262 82.56801953293048,7.62445294153271 82.74713226154468,7.288340167203319 82.80609941490823,7.135025568138215 82.8119961302535,7.087851845024517 82.80757359383242,6.869673377776428 82.79651725256002,6.828396370183744 82.77661583818184,6.787119362854663 82.74713226154468,6.751739070431522 82.70880361171113,6.716358778359852 82.6623669785428,6.686875201721328 82.61003362967772,6.663288340340215 82.55106647631143,6.645598194128644 82.48915096518739,6.633804763438088 82.13977058097964,6.598424471630022 82.07638089093004,6.580734325418451 81.66361081676055,6.356659142649347 81.44248399131261,6.215137974186932 81.40415534156831,6.191551112542215 81.37172340725577,6.1561708207341495 81.34371400927921,6.120790528838215 81.2368360437339,5.85543833794922 81.25084074259108,5.6903303087207675 81.41300041458622,5.348320818343154 81.61717418350436,5.000414612795999 81.81176578981068,4.634818261828084 82.02552172107701,4.310498917662041 82.27908048092398,4.0215598656555365 82.46924955080921,3.6913438065835558 82.72133413181984,3.3906113235350226 83.00511355789924,3.0603952644630414 83.33901506423776,2.7537660667721737 83.69502925320893,2.5061040217432775 83.744414244227,2.4825171606257683 83.79822177183917,2.4648270144141975 83.85718892520408,2.4589302995082587 84.17561155384911,2.5120007375278957 84.23163034962926,2.5178974524338344 84.28396369849433,2.5178974524338344 84.33187451058686,2.5120007375278957 84.40926889940576,2.476620445104754 84.44022665496847,2.441240153033084 84.46749896352826,2.399963145704004 84.52204358047207,2.270235408283617 84.52941447465368,2.2230616851699194 84.48961164598518,1.8456719035114475 84.3407195835169,1.456488690371608 84.14170544070163,1.143962777247594 84.06873358830381,1.049615331898877 84.02598240213841,1.0083383243061932 83.97807158978229,0.972958032498127 83.54834845899376,0.7842631412734856 83.12452204355326,0.6014649652183867 82.77219330176074,0.31842262890863193 82.6977472705266,0.24766204502889605 82.70438107529004,0.0825540149217641 82.82452665036222,0 83.98249412637911,0.28893905235797623 84.63186990377788,0.38918321287623575Z"/></svg>