<svg xmlns="http://www.w3.org/2000/svg" width="256" height="256"><path d="M171.5899529584758,9.68156279796567 171.64765835171386,9.685877220018591 171.69080257102158,9.685877220018591 171.77978752321113,9.642733000518014 171.8272461643146,9.616846469164834 171.91353460280143,9.496042655154685 172.07640403050962,9.28463598118339 172.20314017453714,9.034399509314412 172.31154002532196,8.827307257138878 172.33203352952685,8.77984861564967 172.36007727203508,8.73670439679199 172.3983677665493,8.70650344319302 172.48573481058253,8.663359223692442 172.533193451686,8.646101536187945 172.63835748615512,8.63315827028634 172.93928841537797,8.70650344319302 173.01586940453504,8.723761130890386 173.37666293789383,8.7323899745462 174.05780229926356,8.73670439679199 174.10094651844267,8.741018818394883 174.43801073128188,8.81004956924864 174.77615354960216,8.874765898049477 174.81120822773843,8.874765898049477 175.04850143357623,8.948111070763286 175.36291493131264,9.047342775216016 175.6681602825241,9.172461010829055 175.93835095547172,9.323465778438177 176.24036049017562,9.465841701748584 176.56394213450127,9.582331093898679 176.59899681263653,9.590959937747362 176.88428796238364,9.63410415666933 177.22782380823793,9.698820485855906 177.28337199038523,9.716078173617563 177.33514505354162,9.73333586112206 177.5050254168126,9.741964704777875 177.60695363471189,9.741964704777875 177.66196251424623,9.741964704777875 177.7196679074843,9.750593548626558 177.77305887879803,9.763536814721032 177.97529740650154,9.8584540967351 178.02437395589092,9.88434062847402 178.179153842491,9.923170425985965 178.27622833572437,9.940428113490462 178.3193725550321,9.944742535286224 178.3646739852377,9.944742535286224 178.41105402086006,9.949056957339145 178.45258033188185,9.962000223240752 178.53509365124918,9.996515598442615 178.5717662375418,10.018087708192903 178.60304579662184,10.043974239546085 178.63055023626094,10.074175192952186 178.6677621253584,10.147520366051735 178.678008877493,10.324411664821167 178.66991933638485,10.5832769800888 178.66560491446052,10.850771139462276 178.67585166646654,10.915487468263112 178.68340190489843,11.040605704326182 178.68232329941733,11.083749923376729 178.69688447341198,11.122579720631515 178.87593298327218,11.13552298653312 178.91206626688853,11.13552298653312 179.03772380543498,11.10963645517994 179.06900336438648,11.096693189278335 179.10999037266672,11.083749923376729 179.13803411511165,11.053548969777758 179.18333554531722,11.049234548174866 179.2183902235168,11.049234548174866 179.99552547263886,11.057863392023549 180.04190550826124,11.06217781381931 180.08019600290405,11.079435501580967 180.1233402220832,11.096693189278335 180.19884260575915,11.131208564480199 180.4318213897379,11.269270065994844 180.4636402514942,11.295156597798053 180.49653771853875,11.321043129151235 180.52727797474867,11.355558504545968 180.6664180818097,11.536764225368321 180.73275231896073,11.71365552433062 180.75216721755598,11.739542056069542 180.99647135902185,11.946634308245075 181.2725943623083,12.119211185411613 181.46350753233182,12.330617859382908 181.59941182301287,12.53771011194418 181.64201673945146,12.559282221694469 181.70241864645655,12.567911065543152 181.74825937940267,12.589483175100572 181.78601057117638,12.615369706453752 181.83994084523064,12.641256237999801 181.92946510016074,12.68871487929614 181.95750884266897,12.705972567057797 182.00550678657726,12.749116786108345 182.0427186756747,12.800889849264736 182.19965577317265,13.059755164982398 182.29349445002708,13.331563745958768 182.3015839911995,13.61200117097669 182.30697701854064,13.901067440100455 182.29133723912918,14.11247411445749 182.2789332760967,14.444684602631803 182.26976512950748,14.716493183865332 182.25196813906956,15.001245030936175 182.23255324034574,15.281682455761228 182.20882391976187,15.31188340916733 182.17484784717197,15.342084362766302 182.1397931690367,15.367970894119482 181.99526003457123,15.467202598379341 181.78708917665747,15.669980428887692 181.5729859887263,15.89001594696483 181.3572648925092,16.023763026812293 181.33353557186103,16.04533513636971 181.17605917162257,16.308514873690267 180.91287943430302,16.511292704455776 180.64107085300418,16.679555159312237 180.59037639539318,16.727013800672864 180.57581522146282,16.796044551333754 180.57905103790605,16.942734896889952 180.5882191844953,16.972935850296054 180.69661903534438,17.16708483676285 180.92528339733448,17.356919401562465 181.21219245523892,17.520867434687453 181.47914731187186,17.71933084295001 181.75634892051082,17.909165407621046 182.06321217987963,18.055855752984375 182.35227844874623,18.202546098540573 182.64188402048197,18.353550865956826 182.93634331675398,18.51318447715747 183.2459030898255,18.677132510282455 183.5387444779402,18.832451699494467 183.84884355375326,18.99208531095227 184.18806497761793,19.11720354656531 184.52081476853178,19.225064094673854 184.82821733057784,19.328610220729473 185.16636014889812,19.436470768838017 185.49910993981297,19.561589004901087 185.79950156629528,19.686707240706998 186.0993538901656,19.807511054459987 186.4250927453248,19.919686024428582 186.67964363886097,20.02323215067707 187.03126902569483,20.06637636979191 187.3958376783007,20.075005213640594 188.1104138095208,20.0879484795422 188.47444315938714,20.109520589292487 188.71659008989081,20.16992249629756 188.7597343091985,20.16992249629756 189.13616762209733,20.178551340146242 189.2920261140499,20.182865761749134 189.87609098205766,20.195809027650743 190.02493853844743,20.191494605597818 190.06808275769086,20.178551340146242 190.1554498016588,20.139721542698588 190.1948189017184,20.11814943314117 190.46177375835134,19.949886977834684 190.4968284364223,19.949886977834684 190.66293368050947,19.980087931433655 190.7103923218058,20.027546572537123 190.77510865054236,20.070690792037702 190.81447775060198,20.075005213640594 190.85977918080755,20.075005213640594 190.98975114127836,20.075005213640594 191.364027243215,20.02323215067707 191.70702378626447,19.9455725561675 191.85533203991372,19.911057180579895 192.0521775401475,19.89811391467829 192.72576666308535,19.911057180579895 193.07793135272405,19.93694371231882 193.42254580386654,19.980087931433655 193.7779463098842,20.04480426042736 194.12040355019312,20.105206167046695 194.46070357941127,20.17423691790045 194.78644243476336,20.234638824905527 195.16017923389518,20.2950407319106 195.27882583681557,20.32524168550957 195.38183266025823,20.346813795002703 195.62128307712348,20.355442638915676 195.66334869082152,20.36407148276436 195.70379639636224,20.377014748601674 195.74478340464347,20.39427243636333 195.77875947736197,20.42015896752364 195.85102604459468,20.463303187024216 195.88608072272996,20.467617608819978 196.2285379629746,20.553906047371104 196.57153450589547,20.657452173683886 196.64487967860927,20.6660810173397 196.67885575126346,20.674709861188383 196.71067461295547,20.687653127089987 196.74087556649016,20.704910814594484 196.86545449949125,20.778255987436875 196.97655086404305,20.834343472453316 197.1755535753033,20.91200306715576 197.22085500557318,20.920631910811572 197.26453852749185,20.933575176906047 197.30768274680156,20.950832864410543 197.43334028534701,21.002605927566933 197.77364031462946,21.106152053622555 198.09128962874485,21.222641445579782 198.2838207071186,21.283043352391985 198.3382902839134,21.287357774637776 198.39815288811363,21.287357774637776 198.75193548590966,21.29598661848646 199.10356087274351,21.32187314983964 199.46111858972333,21.34344525958993 199.64556012698895,21.356388525491536 199.70110830926484,21.36933179094311 200.02792577003373,21.464249073600076 200.3558218362837,21.54622308990541 200.68156069163578,21.60231057485756 201.04666864698322,21.66702690391556 201.15776501153502,21.679970169817164 201.20630225811956,21.688599013665847 201.28881557748687,21.705856701170344 201.32602746652003,21.705856701170344 201.41339451048796,21.714485544826157 201.44844918862324,21.72742881092063 201.73643685207304,21.79645956177439 201.81463574951604,21.826660515180492 201.85292624403027,21.84391820287786 201.88582371126768,21.852547046533672 202.08752293616635,21.904320109882935 202.12365621978273,21.92157779738743 202.2444600336643,21.990608548241187 202.46395624906518,22.128670049755833 202.50817907378968,22.14592773726033 202.59392820953596,22.1761286908593 202.68129525356719,22.210644066446907 202.97036152249908,22.353019989821604 203.11111953771743,22.456566115877223 203.17206074746204,22.512653601086537 203.3527271654806,22.663658368245628 203.62561435225848,22.84917851124948 203.8709970991411,23.060585185477937 203.91360201570828,23.086471716831117 203.95890344591388,23.112358248377166 204.23179063262748,23.263363015793416 204.54943994674386,23.392795673652248 204.85576390337212,23.509285065416606 205.2030748683459,23.608516769869336 205.50993812765043,23.737949427728164 205.59784447435888,23.77246480273716 205.68844733483436,23.802665756336133 205.72889504037505,23.81992344422637 205.85239536789504,23.87169650699702 205.9009326145439,23.884639773091497 206.23799682738309,23.97524263324551 206.55564614162705,24.03995896230351 206.89378895994733,24.091732025459898 206.9336973627475,24.09604644706279 206.97090925178065,24.10036086930858 207.0954881849103,24.10036086930858 207.1418682205327,24.108989713157264 207.18609104538578,24.108989713157264 207.19471988917016,24.178020463818154 207.2367855028682,24.186649307666837 207.38401515103638,24.259994480509224 207.42014843465373,24.285881011926694 207.5069761758801,24.333339653030166 207.54796318416135,24.34628291893177 207.6142974212481,24.385112716379425 207.7205400611983,24.449829044987393 208.03063913701138,24.613777078048088 208.1039843096609,24.652606875495742 208.36986056074846,24.738895314111158 208.68804917766866,24.833812596318094 209.0396745645015,24.907157769160484 209.37997459378497,24.97618851982137 209.70894926551603,25.04953369253518 209.90148034388977,25.109935599540254 211.4676155024901,26.382690067092483 213.85672664303004,29.95503142057601 216.46695190725677,33.86389768383674 217.2473229728864,34.52831866018537 224.61365910595933,40.801488138178236 225.06936992165365,41.18978611156186 227.93198886845437,44.27891220945482 228.53924375430546,43.78275368815552 228.9663715248153,43.47642973159155 229.4085997721246,43.06655964845764 229.70413767387774,42.721405894831754 229.9349592468943,42.50999922021756 230.56917926977255,42.07855702778338 231.18883811865612,41.83263497835307 231.48221880944706,41.88440804112372 231.98970268829675,42.67826167533118 239.16836146766184,50.30615963743876 246.88254786844914,55.52661016614941 246.93701744524395,55.58269765090869 246.97692584804412,55.72507357460484 247.02762030559083,55.87176392022533 247.05134962617473,55.914908139083 247.14518830302916,55.96668120243226 247.193725549678,55.970995624420894 247.22985883329437,55.97962446833387 247.2719244470567,55.99688215583837 247.3150686663001,56.01413984334287 247.35551637184082,56.04002637508179 247.43587248024596,56.10905712574267 247.477938093944,56.139258079148775 247.52539673517606,56.16083018889906 247.57609119272277,56.18240229864935 247.63163937499868,56.195345564550955 247.68718755733886,56.19965998615385 247.74489295057694,56.195345564550955 247.97625382620546,56.14788692319033 248.03881294410843,56.143572501394566 248.09759694282758,56.143572501394566 248.1531451251035,56.14788692319033 248.20923261011893,56.169459032747746 248.26262358149796,56.20397440839964 248.3224861856339,56.26437631514755 248.37102343228275,56.359293597611654 248.46486210920148,56.63110217858802 248.56679032709974,56.885653072059895 248.7490746534032,57.101374168276976 249.00362554700263,57.27826546723928 249.31426392555525,57.41632696875393 249.4685045092872,57.45515676620158 249.52351338882153,57.47241445409182 249.5747471492384,57.49398656345637 249.62328439588723,57.51987309500242 249.66265349588255,57.55438847046144 249.69555096311996,57.597532689962016 249.7225161001471,57.64067690881969 249.74085239332553,57.68813555030891 249.74894193443367,57.735594191219505 249.7386951823001,57.9944595067443 249.69339375209248,58.27921135362227 249.69770817401783,58.33529883896016 249.7316842467363,58.40432958942818 249.7705140439901,58.43884496508007 249.81311896055826,58.46041707483036 249.86543132632661,58.48198918413062 249.92421532511005,58.499246872085145 250.28932328045747,58.499246872085145 250.5357846328855,58.47767476233486 250.71213662904296,58.499246872085145 250.74611270163285,58.50787571593383 251.02007849382858,58.67182374880166 251.23579959004564,58.89617368886743 251.44504905337624,59.11620920733031 251.76215906481534,59.30172934994842 252.1078521215032,59.388017788306676 252.2766538792931,59.439790851655935 252.33220206156898,59.465677382816246 252.38721094116863,59.491563914555165 252.4799710124777,59.56059466521605 252.51394708519618,59.595110040867944 252.6768165127758,59.845346512479765 252.70647816356993,59.89280515339036 252.7415328416419,59.93163495083802 252.89846993913883,60.069696452545536 252.95509672689582,60.09989740575877 253.30132908632424,60.203443532071546 253.36334890155095,60.203443532071546 253.4232115056869,60.19050026616994 253.47768108248172,60.16461373481676 253.52513972371275,60.13009835916487 253.7818478282764,59.923006106989334 253.9355491092025,59.81514555888079 254.25481633160277,59.6986561667307 254.59727357184738,59.69434174512781 254.7056734226975,59.72454269853391 255.00930086562303,59.897119575250414 255.28488456603935,60.069696452545536 255.57233292674962,60.23364448567052 255.9002289929996,60.35013387762775 256,60.40190694078414 255.5237956801008,60.75568953825871 255.25198709886726,61.01886927583642 255.10313954260604,61.269105747255374 255.00660435192032,61.44599704621768 254.95806710533577,61.601316235429685 254.95806710533577,61.77820753439199 254.97748200393102,61.95941325540721 254.9952789944975,62.30025258723734 255.00013271903381,62.49871599594992 254.8475100434602,62.7187515137699 254.6857192212974,62.87838512503484 254.49426674840473,62.951730297877226 254.3497336139393,62.973302407627514 254.17661743428937,62.9603591417902 254.02830918064012,62.94310145402854 253.8055771487317,62.88701396888352 253.70850265549828,62.80935437418108 253.57259836481825,62.73600920166014 253.44694082627078,62.6885505603638 253.35903447962662,62.68423613856804 253.13845965874464,62.74463804557311 253.013880725615,62.82229764027556 252.78899148280868,63.02076104853811 252.62827926612695,63.223538879110755 252.47673519603444,63.44788881917653 252.1984549819787,63.80598583889689 251.83442563211236,64.30645878199195 251.55290960148477,64.62572600452181 251.38518644923926,64.86301921048918 251.32316663407786,65.00970955585252 251.27247217646683,65.1607143230116 251.20074491197465,65.3376056219739 251.14088230771014,65.50155365503461 251.02007849382858,65.88985162841823 250.97369845814188,66.06674292738053 250.9283970279363,66.24363422614996 250.8944209552821,66.3730668840088 250.8593662772101,66.48955627596602 250.8097504250812,66.63624662132935 250.76013457295127,66.7613648569424 250.70350778513,66.9166840461544 250.6571277495076,67.08063207960083 250.6673745016422,67.36969834833886 250.8151434524866,67.52933195979666 251.08803063913695,67.68896557080444 251.45529580544653,67.80114054077303 251.86354798003737,67.9133155108702 251.91478174038892,68.0772635439952 251.9271857034214,68.2196394673056 251.8603121635941,68.35338654721735 251.80584258679932,68.49144804892487 251.75299091822612,68.57773648728312 251.6305691961229,68.65108165973977 251.50868677676027,68.71579798899064 251.3614571285921,68.77188547374992 251.23741749833158,68.81071527100471 251.0594475938882,68.84523064639944 250.91922888134707,68.85385949050529 250.67276752891905,68.8193441148534 250.34379285731657,68.64676723813689 250.03153657041378,68.59067975312044 249.66858582609282,68.56910764343444 249.3439255762218,68.58205090927176 249.19561732257256,68.62950955018236 248.99337879486905,68.8020864273489 248.9410664291007,69.05663732082077 248.99769321679338,69.56573910776451 249.08613886624238,69.92815054934492 249.1584054334751,70.05758320739663 249.2544013212917,70.23016008411314 249.55317503955237,70.45882444623183 249.8266015290708,70.70906091784364 250.2655939598093,70.96792623317558 250.64903820839947,71.0973588910344 250.90251049639025,71.13187426623627 251.10690623512022,71.14481753213786 251.42617345752151,71.14481753213786 251.56962798650588,71.1146165785389 251.64998409484676,71.07147235961693 251.81501073338953,71.08441562513279 251.90453498831863,71.14050311027782 251.99729505975625,71.21384828299163 252.05931487491867,71.30445114359567 252.09544815853502,71.42094053536003 252.08897652558423,71.55037319321886 252.05931487491867,71.73589333602985 252.01077762826984,71.93435674448527 251.93365733637222,72.2061653257188 251.92341058423762,72.36579893691945 251.94875781304313,72.52543254779864 252.01185623368661,72.84901419212427 252.03882137071375,73.05179202263263 252.03989997619485,73.29771407244868 252.05823626937328,73.48754863692685 252.0900551310653,73.67306877973783 252.17904008325485,73.98802158021478 252.24375641218427,74.17354172302576 252.3084727409851,74.3504330217952 252.3839751247254,74.52300989909031 252.46433123306625,74.68264350996951 252.56140572629965,74.82070501167702 252.7415328416419,75.01053957654092 252.89846993913883,75.26077604795988 252.9232778652681,75.43335292512641 252.8591008391435,75.63181633338897 252.78575566636542,75.90362491481537 252.6870632648461,76.15386138623433 252.64985137574865,76.29192288774897 252.6137180921323,76.39978343585751 252.58082062502348,76.52921609390921 252.56518084548344,76.67590643927254 252.57165247843426,76.78808140936971 252.59322458799167,76.91319964523991 252.62827926612695,77.11597747536253 252.68382744846713,77.32738414991243 252.74908308000852,77.50427544868187 252.81703522531689,77.64665137224942 252.86233665552248,77.78902729555983 252.88822318706852,78.06083587698623 252.86826898573275,78.20321180029664 252.80139544590546,78.41030405266504 252.7086353744678,78.63465399273082 252.6466155593054,78.79428760418861 252.6239648442026,78.88920488620269 252.6077857620506,79.02295196605014 252.57866341399702,79.22572979662279 252.52527244268327,79.37242014198613 252.32950554793058,79.64854314520828 252.15207494622874,79.86857866302826 252.05500045299434,79.99369689902704 251.93743245549172,80.12312955688587 251.75730534015045,80.30002085546244 251.60036824265254,80.43376793537418 251.516776317997,80.51142753007663 251.40891576988844,80.60203039023064 251.30051591897507,80.70989093833919 251.23957470922946,80.80049379875037 251.2438891311538,80.87383897165704 251.42131973285663,81.58571858891627 251.4067585587977,81.79281084128466 251.3841078436949,82.12502132945897 250.33570331607987,84.97253979978167 249.3347574296326,89.42933764743381 248.17903165664953,94.60664395664388 247.40405361855395,103.088797459964 247.06591080023367,104.4176394129184 247.3377193814029,110.13856288427408 247.06698940571474,110.34565513664249 246.79248431077852,110.34996955888828 246.04015698765613,110.26368112008 241.24791283519556,109.72437837953728 236.53440688285121,109.59494572212847 235.97407133542734,110.71669542207158 235.48923817174372,111.18696741214629 234.14421713676592,111.7737287935996 234.09567989018237,111.79530090315701 232.10295626381173,112.67112855392696 230.06600981291047,113.85328016126088 228.07328618647657,118.1763309294513 226.75415168311008,120.24293903127527 225.4819365182974,123.02142675048705 225.71599390756535,124.27260910854615 226.96016533006068,127.41350826933835 227.7340647626752,128.69489158099643 229.25381988552456,130.25671231760813 230.1630843060786,131.18862745313734 230.79784363176265,131.9307080242527 230.87550322633652,132.7461337680176 230.7908326960713,133.00931350533816 230.83829133730336,133.22503460155522 230.96179166482335,133.48389991701572 231.15054762401329,133.8031671395456 231.40509851761374,134.0275170794185 231.78638555517745,134.28638239513617 232.2162098393257,134.57113424194984 232.67623507707293,134.9378601053903 233.18533686408097,135.23124079630983 234.4521590016801,136.03803769622604 234.91218423929874,136.3055318555995 235.47305908946217,136.6593144535241 236.02854091228744,136.97858167560395 236.92108694782036,137.91912565517472 237.0882707973886,139.24796760812916 236.88225715056558,139.85198667727983 236.70266933796483,139.8692443649772 236.65197488028852,139.8821876308788 236.47400497597474,139.964161647377 236.40065980319665,140.02024913239345 236.36991954705,140.0547645075953 236.3181464838936,140.16262505570384 236.30358530996324,140.19282600930282 236.28417041123942,140.22302696270893 236.26044109065552,140.25322791611504 236.23455455910948,140.27911444785394 236.20974663304452,140.3050009794643 236.18817452342282,140.33088751081746 236.16875962482754,140.36108846422357 236.05227023293463,140.62858262378992 236.0015757752593,140.77527296915324 235.87915405309184,141.04708155032247 235.7335423131453,141.2800603344298 235.55233659238723,141.51735354001144 235.38029901809082,141.75464674597882 235.35441248660806,141.7934765432336 235.2336086727265,142.03939859304967 235.08637902449402,142.2896350644686 235.00170849422884,142.47515520747245 234.96180009142867,142.5269282702431 234.9294419269961,142.55712922384208 234.89546585434192,142.57870133359236 234.59992795258879,142.74696378870598 234.38959988371283,142.867767602459 234.33297309595585,142.9152262438196 234.28335724382592,142.9497416188286 234.2315841807981,142.98857141627627 234.06278242294397,143.12663291779091 234.03258146947357,143.15251944933695 233.98943725035872,143.20860693454628 233.8400503911641,143.46315782821102 233.6469800100508,143.69182218987967 233.46685289470855,143.8341981136401 233.20313385451786,143.99814614650793 233.16376475445927,144.0154038342053 233.11846332425367,144.024032678054 232.75227676349044,144.0801201632633 232.70212160855468,144.08874900711197 232.65843808663502,144.10600669461647 232.62068689473273,144.12326438231383 232.58563221666176,144.14052207026836 232.55435265771027,144.1620941797615 232.49449005344573,144.21386724272503 232.37098972592574,144.38212969783865 232.3564285519311,144.4123306514376 232.3451031943154,144.44684602663946 232.33809225868836,144.48136140229136 232.31436293810447,144.58922195039992 232.2275351969414,144.8480872658604 232.15365072142274,145.11989584709394 232.09486672270359,145.4046476941648 232.11751743780638,145.68508511898983 232.17414422556337,145.96120812221199 232.18654818865915,146.0000379194668 232.24856800382256,146.25890323518445 232.25234312294205,146.36676378329298 232.23724264620688,146.41853684599934 232.2162098393257,146.44873779959832 232.18762679407695,146.46599548748856 232.15257211594167,146.4832531752502 232.0215215499888,146.51345412865632 231.953569404811,146.53502623814944 231.92175054305366,146.5522839259111 231.6785250070689,146.76369060007528 231.55772119318735,146.84997903843353 231.50109440536608,146.8931232579341 231.4412318012944,146.92763863313596 231.38460501340884,146.95783958654206 231.08960641439626,147.14335972935305 230.78975409059123,147.31162218446667 230.58967277384886,147.36770966941882 230.5535394902335,147.38928177897623 230.35237956807435,147.5359721247253 230.32703233920458,147.55754423408985 230.30923534876766,147.5834307656359 230.2919776610693,147.6395182508452 230.27094485418812,147.8940691443171 230.25260856100968,148.07958928712807 230.2402045980415,148.11410466232994 230.2175538829387,148.14862003798183 230.18951014036617,148.18313541337656 230.1517589485282,148.2133363665898 230.10915403202532,148.239222898393 230.06385260181972,148.2564805860904 229.71060930682853,148.35139786810444 229.36491625020594,148.45925841621298 229.01868389071223,148.56280454271865 228.6670585038784,148.6663506685814 228.33323010741816,148.7655823730341 227.79015224769162,148.9079582965374 227.58467790360916,148.9769890471983 227.53829786785818,148.9942467351528 227.21363761805148,149.11073612711004 226.88088782713663,149.24448320657177 226.56917084316723,149.3782302864192 226.26015037277094,149.52060620979393 223.57873714679457,150.62509822223254 222.48287397807508,151.00908177356322 221.50889322865493,151.51818356069984 218.32754636212914,153.5373330211632 217.72137008175915,153.5761628188037 216.99708650121028,153.62362145971431 216.6794371870306,153.63656472542306 215.36839222483556,153.70128105467393 214.48177851931905,153.72285316397418 213.5897717865257,153.78756949303218 212.46640417797522,153.84797140003724 210.94071672491657,154.27078474836557 209.6749731929261,154.65045387790053 206.3151171192807,155.65571418607928 203.17745377480418,155.78514684374522 201.85885857424054,155.76788915624073 190.34852018277306,155.76788915624073 188.7392408049926,156.00086793996232 186.8414344610238,156.25541883362706 184.88807993477806,156.5790004779527 181.74286635199724,157.5152300357277 179.7398959736216,158.28319713793908 177.25263173417432,159.44809105757565 173.54762190664584,160.80281954207612 169.92836121492797,162.34306816880894 169.67381032132752,162.43798545146592 169.33351029204508,162.53290273367284 169.11886780137337,162.60624790632238 168.0327120819846,163.07220547421556 166.35008753136276,163.7754562476261 164.74404397002655,164.45282048987633 163.48261485989715,165.16038568553267 162.96704144000262,165.42356542285322 162.8165759753269,165.4969105957599 162.65963887782897,165.55731250270068 161.95584880148402,165.72126053582568 161.5125419486946,165.80323455213102 159.90326257091516,165.92835278819408 159.84124275575275,165.93266720979696 158.49190729891487,166.35979498062824 158.07772279424236,166.45902668463094 156.39617684922916,166.6186602958959 156.00248584856968,166.67474778084804 155.55216806028082,166.72220642220867 155.19514964597724,166.7955515946653 154.89853313867874,166.8559535016704 154.70060903289956,166.90341214277385 154.53989681628212,166.94655636227444 154.35923039813605,167.0242159569769 153.6581368354305,167.24425147498974 153.42354014329442,167.4599725712068 153.21914440469303,167.6756936674239 153.00072679470892,167.87415707575076 152.7984882670054,168.09850701581652 152.63993326135014,168.34442906563257 152.46142405416623,168.58603669365286 152.27105018681894,168.8319587430189 152.10278773170532,169.08219521469502 151.90162780954716,169.31517399860945 151.70100719000098,169.52226625097788 151.66972763104852,169.54815278271678 151.6028540912222,169.5869825797787 151.57319244049236,169.60424026773322 151.5494631199085,169.62581237722637 151.50470099244345,169.6775854401899 151.41949115943768,169.74230176924786 151.3995369581029,169.76818830060105 151.2442177687613,170.0141103504171 151.0624727452627,170.25140355638447 150.895828198435,170.48438234010607 150.8440551352776,170.6440159515639 150.7782602009977,170.91582453254023 150.70922945014294,171.18331869210658 150.63264846098588,171.43355516333267 150.52047349095298,171.69673490103895 150.44712831823918,171.99011559176563 150.4433531990564,172.03325981088045 150.45953228133496,172.3180116579513 150.46061088675273,172.35684145520608 150.45467855667107,172.3913568306008 150.3678508153794,172.64590772426556 150.36353639345404,172.74945385038546 150.34951452220093,172.82711344489505 150.30906681666025,173.00400474385734 150.29774145917415,173.03852011925207 150.28318028511418,173.0730354947111 150.26160817555677,173.1075508702987 150.23787885490862,173.13775182351193 150.18934160832404,173.18521046480828 150.16561228767588,173.20678257455856 150.1381078479082,173.22404026232022 150.0728522163668,173.25424121546916 149.7605959295283,173.37073060768356 149.4348570743058,173.49584884348945 149.39872379068842,173.5174209530469 149.2784592796107,173.62959592295118 149.25149414258456,173.6597968763573 149.18246339172978,173.77197184671164 149.05464864215688,174.03946600582793 149.03523374356263,174.0696669594269 149.01042581743337,174.09986791264015 148.9802248640273,174.11712560033752 148.9473273967899,174.13438328829204 148.92036225976275,174.15164097579654 148.88854339807074,174.17752750753544 148.86265686652467,174.1947851952971 148.82760218845368,174.2034140391458 148.7947047212163,174.2120428828016 148.75965004308102,174.2293005703061 148.71866303479976,174.24655825800346 148.59462340453925,174.31558900885722 148.55147918523153,174.3328466965546 148.50509914960915,174.34578996226332 148.14862003804612,174.4191351353629 148.01972668312172,174.44933608876897 147.66702269074148,174.539938948923 147.31431869849084,174.64779949703154 146.9702435499603,174.7384023574427 146.8629223045923,174.7815465769433 146.70436729887274,174.81606195214516 146.59381023712476,174.85057732779705 146.47624223962316,174.90235039069628 146.28802558317275,174.9584378759056 146.24649927215196,174.98000998520587 146.18447945698856,175.01021093880482 146.07554030339992,175.1612157060282 145.92076041692846,175.41576659950007 145.76328401669,175.66168864931615 145.65272695481443,175.9334972304854 145.53839477388368,176.21393465576045 145.3970974557972,176.47711439308102 145.24986780762802,176.7446085523902 145.10857048960685,176.99053060220626 144.8971638153141,177.2278238077879 144.64477013280438,177.4176583726518 144.41071274340885,177.61612178117153 144.21764236229558,177.8404717212373 144.07850225523453,178.08207934880755 143.94367657009886,178.32368697657068 143.81046879312052,178.56960902638676 143.67672171346592,178.8155310762028 143.6497565764388,178.84573202941604 143.62387004495702,178.89319067071239 143.59420839416288,178.9190772023227 143.57479349556763,178.9794791093278 143.5413567255897,179.06145312563314 143.5262562488545,179.09165407903922 143.51493089130312,179.1218550326382 143.50252692833493,179.17362809579458 143.4755617913078,179.22971558074676 143.4022166185307,179.38072034835585 143.3757907842431,179.42386456721354 143.235572071702,179.66547219523383 143.14173339484756,179.80353369694134 143.10560011123118,179.83804907195034 142.99126793023615,179.92002308889857 142.954056041203,179.93296635435016 142.91468694120766,179.94159519819883 142.87154272183565,179.95453846390757 142.83756664924576,179.95885288615335 142.75181751349945,179.99336826135522 142.53339990351537,180.06239901201613 142.50158104182336,180.07534227811058 142.3343971923194,180.17457398237045 142.03346626309656,180.38166623473884 141.80372329562536,180.6146450186533 141.61928175835976,180.8389949585262 141.41704323065625,181.0676593206449 141.32859758114395,181.1798342905492 141.2487807755416,181.54224573212963 140.95000705734626,181.80973989150309 140.53851906624786,182.06860520722077 139.1767796463775,183.22918470461153 137.87706004167057,184.13952773058332 137.14738343378056,184.48036706286348 134.32790870615796,185.5848590753021 131.63409151721137,186.29242427095843 129.37980606167855,187.0776490613172 127.37252126144284,187.73344119381716 126.8326792180953,187.91033249258658 126.32249882554189,188.06133725993854 125.79883586447491,188.62221211003867 125.45637862423028,189.07954083427606 125.30699176509995,189.30389077434182 125.2142316937266,189.45920996355383 125.12740395249823,189.54981282396503 124.9337942686454,189.7439618104318 124.81191184934502,189.7914204515353 124.73047713552408,189.83887909263876 124.63178473400475,189.89928099964382 124.60697680787551,189.92085310939413 124.56976491877806,189.96831175049758 124.49156602146365,190.12794536176253 124.49749835167391,190.37818183318146 124.54711420367526,190.61978946094462 124.64904242170212,190.83982497902176 124.73587016286521,190.98651532457794 124.76553181365935,191.1461489358429 124.7256234108592,191.31441139095648 124.62747031208042,191.41364309515205 124.50396998443185,191.55170459685957 124.19171369772191,191.728595895629 123.94309513433171,191.75016800518642 123.68099400236366,191.75448242723934 123.53484295973988,191.74585358339067 123.35633375255695,191.71133820773878 123.16488127966429,191.68113725433267 122.97612532047434,191.71996705158745 122.71132767486685,191.86665739733652 122.60724224594311,191.94000257005032 122.42873303888777,192.09963618131528 122.26802082220604,192.2851563239334 122.18227168645974,192.39733129383768 122.11863396307571,192.50087742015046 122.06470368902143,192.61305239005478 121.93095660936685,192.90643308078143 121.81123140090207,193.1005820674411 121.77617672276679,193.3508185391172 121.80098464896034,193.57516847918296 121.81123140090207,193.65714249593833 121.82471396941663,193.7650030440469 121.84305026259409,193.9289510769147 121.91046310516192,194.0842702661267 122.06362508347506,194.32587789408274 122.1515314303131,194.4984547710564 122.26478500569849,194.62357300666943 122.40176790186064,194.7055470234248 122.52257171567791,194.75300566452827 122.64013971317951,194.80046430563175 122.73613560093283,194.852237368981 122.80894147090609,194.95146907324084 122.87905082723994,195.03775751159912 122.85154638747326,195.2362209203117 122.8493891764458,195.4389987504343 122.88929757924595,195.5727458300889 122.92543086286332,195.66766311274588 122.98745067815432,195.75395155110414 123.08722168502614,195.8402399894624 123.17512803179889,195.92221400621776 123.36172677996238,196.01281686637176 123.71928449700648,196.15087836807928 123.79262966965601,196.24148122829757 123.82444853134803,196.31051197915133 123.82768434785557,196.37954273000508 123.82552713682911,196.70743879638366 123.84224552178594,196.9706185337042 123.80826944919502,197.10436561316592 123.61412046253537,197.41931841364288 123.49870967612452,197.54443664944878 123.35741235803803,197.72995679225977 123.31211092783245,197.85076060607705 123.30725720316757,197.93704904462817 123.36873771565372,198.20454320400165 123.37898446765975,198.33397586186047 123.38114167862192,198.43320756612033 123.37305213757907,198.59284117712812 123.44801521844921,198.70933056908535 123.44316149378433,198.92505166530242 123.3935456416544,199.1709737151185 123.26249507570252,199.59378706351112 123.13468032625818,200.0726878974345 123.12659078515004,200.30135225916743 123.11095100561002,200.5386454651348 123.08128935494446,200.80182520245538 122.9707322930689,201.2418962387382 122.84129963533866,201.55253461735512 122.61533178705126,201.89768837143103 122.20707961246143,202.55348050393098 121.21044814793748,203.2351591678484 120.3319239835934,203.47676679541865 119.87405595687264,203.68817347003284 119.11471769818849,204.3353367586841 118.90438962937684,204.6028309179933 118.53928167402941,205.04290195434044 117.51244925610037,205.8194979004005 116.84964618790909,206.16896607652933 115.99431204147263,206.55294962786004 114.70052476684637,207.18285522874964 113.38085096073834,207.81276082951067 112.38206228525323,208.3822645234595 110.65952933202409,209.30986523732153 110.04310629958377,209.52990075539867 109.585238272863,209.78876607111633 109.4223688452191,209.88368335332328 110.5915771867147,210.0519458084369 110.81916294316044,210.082146761843 112.51796657586999,210.53947548563033 113.72816192571214,210.7810831133935 119.98569162416497,211.04857727276695 121.51731140737058,211.06152053866856 122.2081582179415,211.07014938251726 122.80894147090609,211.0442628509069 123.55156134463341,211.12192244567365 123.74840684493151,211.2254685715364 124.49480183784262,211.7734001559278 127.43561968208634,213.878838055328 124.94619823174116,214.793495502967 121.004973803855,215.40614341660927 118.35160432032055,215.97996153216096 111.20476440264848,218.69373292276478 110.90814789534998,218.83610884633237 110.60505975523027,218.974170347847 110.29064625749287,219.12517511519897 109.98216508983815,219.28480872627102 109.6812341606153,219.39698369662534 109.44933398224623,219.51778751018549 109.11226976940704,219.60839037059665 108.77412695102247,219.69467880934064 108.4640278752104,219.80685377930925 108.19167999130062,219.96648739057417 108.01317078411569,220.21240944013306 107.84329042084474,220.45833148994913 107.63727677395842,220.67405258616623 107.54343809710399,220.73876891503133 107.4981366668974,220.76034102458877 107.15567942665479,220.8552583067957 106.8116042782518,220.8897736823833 106.47723657905104,220.94154674515394 106.15257632924433,221.0407784494138 105.81551211640513,221.19178321702293 105.6990227244479,221.24787070197507 105.66396804631262,221.27375723332827 105.63538500119243,221.29532934307855 105.77937883278877,221.70088500415955 106.59588318203573,223.25839131878263 108.0196424170032,225.78232814432965 108.86365120595255,227.2794325522048 109.4299190835224,228.39255340849212 109.43908723011263,228.66867641171427 109.43261559728941,228.95774268083804 109.40079673559738,229.28995316901234 109.34093413133286,229.56607617223452 109.20071541879175,229.84651359705956 109.08961905423995,230.10969333438013 109.09177626520213,230.1916673511355 109.18723285027818,230.4721047761534 109.36088833279723,230.7309700916782 109.38030323139247,230.76979988912586 109.39270719442496,230.81294410836927 109.40079673559738,230.86040274953703 109.37491020398704,231.1149536430089 109.29563270112827,231.37381895827653 109.16673934620185,231.62405543014552 109.02166690893156,231.8138899945594 108.92782823207713,231.88723516746606 108.86580841697801,231.92606496472087 108.65763755906524,232.01235340307912 108.49153231497807,232.0770697320728 108.45539903136172,232.09001299778154 108.1938372021995,232.25396103084225 107.9905200690139,232.41359464210717 107.95870120738617,232.42653790800878 107.92472513466768,232.4394811739104 107.88859185105133,232.44379559551328 107.62163699454698,232.44379559551328 107.24951810350821,232.37045042305664 107.06076214431826,232.36613600081083 107.01546071411266,232.35750715715503 106.97231649486825,232.34887831330633 106.82454754396055,232.29710525014994 106.79165007678743,232.28847640630127 106.75767400419653,232.28847640630127 106.69080046437024,232.2927908282899 106.65790299713285,232.30141967220288 106.62500552995974,232.31436293804018 106.31059203222334,232.44811001775906 106.27715526237297,232.45242443936198 106.21459614447103,232.46105328321065 106.04956950580066,232.46105328321065 106.00426807559508,232.45242443936198 105.96382037005438,232.42653790800878 105.93415871932453,232.39202253254976 105.91744033443199,232.34887831330633 105.91042939873964,232.30573409399864 105.91150800422173,232.1719870145369 105.90719358229738,232.13747163888502 105.8403200424701,232.00372455923042 105.79717582335626,231.94763707447115 105.76805347523737,231.91743612087217 105.48384093097135,231.7448592438985 105.20610001959186,231.5981688983423 104.87874325614672,231.48167950638506 104.55785812545952,231.38244780212523 104.22079391262032,231.30478820742277 103.83303524223439,231.2875305197254 103.78180148181855,231.27890167606958 103.61138181587134,231.27890167606958 103.52077895539486,231.2918449419712 103.41777213195222,231.2918449419712 103.37247070174662,231.28321609786536 103.3433483538859,231.2573295663193 103.15405309189111,230.99414982899876 103.03432788342634,230.73959893552689 102.92808524353943,230.450532666596 102.93347827100915,230.16146639772938 102.92916384908379,230.09243564687563 102.91783849146911,230.04497700577215 102.9011201065123,230.00183278627156 102.87577287777107,229.9586885674139 102.78301280633343,229.85945686315404 102.73932928434948,229.82494148750214 102.68378110207358,229.80768379980478 102.62176128691117,229.80768379980478 102.58886381973706,229.8119982217934 102.49394653753112,229.83788475340376 102.43947696067201,229.83788475340376 102.39525413588423,229.8206270657064 102.36613178789392,229.7774828462058 102.30950500020123,229.67393672034305 102.29710103710445,229.64373576693694 102.28901149599731,229.613534813338 102.29009010154168,229.54881848428 102.32622338515804,229.43664351437567 102.32083035768733,229.363298341469 102.30249406450987,229.32446854421423 102.26959659733677,229.294267591001 102.23022749727716,229.27269548125068 102.1148167108653,229.27269548125068 101.74485503078871,229.35035507601742 101.62512982245252,229.38487045121929 101.5631100072901,229.41075698295822 101.53344835649597,229.42801467071988 101.50648321946883,229.44527235822437 101.48383250436603,229.46684446797465 101.40024057964621,229.55744732812866 101.35116403025681,229.58333385993188 101.27781885747872,229.58333385993188 101.23737115193802,229.57901943768607 101.18074436424531,229.56607617223452 101.12843199834839,229.5358752188284 100.97257350633154,229.3978137171209 100.9456083693054,229.38055602935924 100.80053593209841,229.30721085651683 100.75523450189283,229.28563874695942 100.69213608124933,229.28563874695942 100.65114907303136,229.29858201286103 100.37556537261504,229.46253004572887 100.32217440130131,229.50567426522943 100.28010878747469,229.54881848428 100.23372875178802,229.65236461059277 100.19543825720949,229.69119440804042 99.8179263388296,229.77316842434576 99.469536768439,229.7774828462058 99.42207812727123,229.77316842434576 99.10496811589641,229.66962229809727 98.80781230585737,229.5401896404313 98.69833384946291,229.50998868721805 98.64494287814918,229.50135984317652 98.27983492280076,229.48410215547915 97.90663742634621,229.43664351437567 97.61918906563693,229.38055602935924 97.58629159859241,229.37624160737062 97.1553887087702,229.41075698295822 97.10199773745647,229.41938582687118 97.0556177018341,229.44095793617143 97.0243381428816,229.47547331182332 97.01085557436905,229.51861753106675 97.02218093185616,229.5617617499887 97.06155003191577,229.6049059694893 97.10685146212136,229.64373576693694 97.14298474573772,229.68687998579463 97.14514195676418,229.7300242052952 97.10685146212136,229.76885400255 97.07611120591042,229.7861116900545 97.04213513332051,229.79905495614895 97.00600184970516,229.8119982217934 96.9698685660878,229.81631264365345 96.86578313716305,229.80768379980478 96.65761227924827,229.76453958049706 96.5934352531247,229.76453958049706 96.53465125453411,229.78179726845158 96.40467929393473,229.88534339431436 96.3399629651339,229.96731741126257 96.31623364448573,229.9932039424229 96.28765059923697,230.0190904741618 95.97107989053839,230.17009524138518 95.70682154773675,230.3340432744459 95.49163975426022,230.41601729120126 95.45874228702282,230.42464613485706 95.39348665541715,230.42464613485706 95.35951058276295,230.420331712997 95.32661311558985,230.41601729120126 95.29371564848104,230.40307402529965 95.26459330042744,230.38581633760228 95.23708886065876,230.36424422804487 95.19771976060014,230.29952789924403 95.1556541468378,230.20029619498416 95.12868900981067,230.16146639772938 94.90703558351191,229.94143087965224 94.87737393271777,229.924173191762 94.84825158479275,229.9069155042575 94.7856924668898,229.89397223816303 94.6794498269386,229.89397223816303 94.33375677025072,229.98457509876707 94.18436991112038,230.03203373987054 94.1277431233634,230.04066258371924 94.06895912464323,230.03634816192346 94.009096520444,230.0190904741618 93.95139112720592,229.99751836466868 93.8980001558922,229.9630029890168 93.8516201203341,229.924173191762 93.81872265309671,229.88534339431436 93.80200426813988,229.84219917539238 93.79391472696746,229.80336937794473 93.80524008458315,229.7602251587013 93.84514848731901,229.70413767368487 94.08028448225993,229.50135984317652 94.1935380577096,229.1820926209038 94.20000969059612,228.9102840394774 94.19084154400689,228.6643619901114 94.1784375810387,228.6341610365124 94.14230429742234,228.59533123925763 94.09700286715245,228.56081586360574 94.01664675887588,228.53061491019963 93.95894136563781,228.51335722250226 93.90716830248243,228.48747069114907 93.86078826679476,228.4443264716485 93.71841234329047,228.1984044220253 93.70223326113948,228.06465734256358 93.6936044172908,228.03014196691169 93.60084434585316,227.78421991748138 93.54853198001952,227.51672575817219 93.52480265943764,227.24491717693866 93.51940963203222,226.97742301762946 93.47950122923005,226.85661920361932 93.42772816620324,226.78327403090552 93.3905162770415,226.74875865551078 93.34737205786338,226.7185577019118 93.29505969196545,226.69267117055864 93.10630373277549,226.6365836853493 93.0610023025699,226.63226926355355 92.93318755312657,226.63226926355355 92.89921148040709,226.64089810740225 92.69589434728678,226.6969855923544 92.65652524716187,226.70561443639593 92.52601398395153,226.77033076526106 92.33186499742044,226.83936151611482 92.29896753018305,226.84799035977065 91.97107146393307,226.95153648582627 91.92199491460798,226.97742301762946 91.84541392538662,227.03351050258163 91.77422596369928,227.07665472163217 91.69171264433194,227.1111700970912 91.36327727534143,227.19314411384656 91.00625886116644,227.2492315987987 90.91673460623636,227.24491717693866 90.87359038692865,227.24491717693866 90.83206407590686,227.23197391110133 90.76626914156165,227.20608737929814 90.54677292622405,227.00762397097128 90.43028353426683,226.8868201572183 90.12989190778454,226.7185577019118 89.83435400590385,226.57618177853712 89.70222483453416,226.5330375592937 89.66717015639888,226.52440871544502 89.63103687278252,226.5200942933921 89.42070880390658,226.5157798717892 89.08364459106738,226.52440871544502 88.73849083712004,226.4294914329809 88.37446148725371,226.37340394802877 88.04279030181993,226.31731646307662 87.76558869324526,226.31300204102368 87.7229837766781,226.30868761922792 87.68091816298006,226.30005877557213 87.64047045743936,226.28280108781047 87.35302209679438,226.1317963204585 87.26727296098481,226.0972809448066 87.1383796059298,226.06276556960475 87.09523538675067,226.05845114774468 86.74091348621411,226.07570883550633 86.39629903494303,226.08433767935503 86.05222388647677,226.13611074225426 85.9831931356873,226.149054007963 85.94921706309741,226.15336843001592 85.88396143142745,226.149054007963 85.81924510262661,226.1404251641143 85.46869832127385,226.13611074225426 85.40074617590118,226.1404251641143 85.05613172475867,226.23965686856704 84.74495404346452,226.3388885728269 84.42838333470266,226.47695007434154 84.34694862088071,226.49852218402754 84.31081533726434,226.56755293468842 84.26551390718734,226.80053171866717 84.26066018245817,227.1025412534354 84.24178458653917,227.2751181301519 84.1954045507882,227.46063827315575 84.09671214926789,227.66341610353552 84.00395207795982,227.83599298025203 83.94624668472176,228.00856985754714 83.93869644628987,228.14231693707316 83.9440894736953,228.29332170442513 83.95002180390556,228.4486408938943 83.91227061200328,228.59964566086052 83.83568962284622,228.75065042846964 83.81519611876988,228.88439750793137 83.86265475987335,229.03971669714338 83.91820294221354,229.20366473065408 83.91928154769563,229.39349929506798 83.89878804348972,229.55744732812866 83.91496712583456,229.79905495614895 83.93869644628987,230.06223469327665 84.00395207795982,230.27364136782654 84.01204161900368,230.41170286914831 83.9667401887991,230.52819226110554 83.87883384215392,230.58427974631488 83.75533351450535,230.60153743381937 83.64909087468273,230.64468165331994 83.52019751962872,230.7525422014285 83.32874504673606,230.86040274953703 83.09468765734051,230.925119078145 82.8989207625878,230.95100560969104 82.65461662105767,230.9208046564778 82.40923387417502,230.85177390543117 82.10830294501648,230.8043152645206 81.78148548411801,230.7827431547703 81.4206919508245,230.76979988912586 81.10088542561839,230.76548546688005 80.71851978257361,230.74391335732264 80.37013021211872,230.72665566962527 80.07405300756078,230.74822777918268 79.7461569413108,230.81294410836927 79.44630461763334,230.90354696858756 79.19714675143831,231.01572193874904 79.01324451691325,231.11926806480466 78.81046668646819,231.2573295663193 78.5720948751493,231.46010739702052 78.50198551887875,231.5377669915301 77.92978531116293,231.32636031717306 76.94232199322923,229.51430310907813 76.38252574861018,228.49178511275198 75.3702545046115,227.16725758204336 74.13956565069302,225.58817915767 72.70987408551429,223.651003713962 71.61724673317474,222.08486855549026 70.22314914880754,219.9621729683284 69.8666700373088,219.14243280296063 69.20063115280283,218.16305902607075 68.25145832944766,216.70046999391178 67.35783368836837,215.35005593139994 67.00189387961018,214.638176313755 66.56182284332732,213.96081207169763 66.01335195619538,213.16264401563012 65.51126110481441,212.325646162565 64.93204996134295,211.6051377011999 63.80760374737567,210.39709956225565 63.27315473156214,209.93114199423388 63.23001051219014,209.78013722720337 63.20034886152458,209.73699300795994 63.12916089977294,209.66364783524614 63.088713194232234,209.63344688164716 62.90535026238342,209.52990075539867 62.86004883217784,209.4996998017997 62.697179404598224,209.38752483183112 62.66913566202572,209.35732387868217 62.645406341441834,209.32280850303027 62.548871150947974,209.07257203161132 62.437235483720926,208.8007634503778 62.2776018723907,208.5720990883234 62.2447044052186,208.5332692910686 62.20749251618544,208.5030683376625 62.16542690235882,208.48581064990086 62.115811050229894,208.47718180605216 62.064037987201075,208.46855296201062 61.86934969786616,208.1492857397379 61.12942633790484,207.3597465273262 60.990286230716244,207.21305618196288 60.6931304207425,206.90241780353884 59.972621959312136,205.69437966459458 56.73464830509367,203.43793699816388 55.722377061159285,202.86843330440792 53.407150396009406,200.9873453450735 46.6043856267393,195.4174266408769 46.68096661589637,195.34839589002314 49.916783059152664,192.38438802812894 51.05255463079891,191.5905343939215 51.20841312275247,191.4913026899188 52.31128722722661,190.69313463365842 54.46795888665693,188.27705835615564 55.65766073222987,186.9223298721052 56.56153212538047,185.71429173316093 57.191437726397645,184.50625359421667 57.26640080726879,184.3121046077499 57.336510163539344,184.19561521579266 57.80893936425476,183.74260091380106 59.003494934621166,182.56907815025153 60.48927398475206,181.33946790181415 61.762028452497155,179.95885288615335 63.39395854537941,178.23739853801956 63.50451560712638,178.1511100996613 63.59511846760285,178.08207934880755 64.03626810936579,177.70241021972265 64.28057225076735,177.4694314358082 64.69691396653162,177.11564883807645 64.9579364929533,176.80932488125532 64.95254346554786,176.6798922233965 64.95470067644574,176.55477398778345 64.96279021761818,176.51594419052867 64.97735139154854,176.47711439308102 64.99676629020807,176.44259901781487 65.1310526726032,176.26570771865968 65.31765142089527,176.03272893474525 65.3607956400744,175.98527029364178 65.47243130736675,175.81700783852816 65.50209295816089,175.79543572916361 65.63907585419545,175.64011653956584 65.7081066050482,175.58402905480656 65.81974227234055,175.51931272574856 66.10017969735847,175.36830795858947 66.19887209900637,175.32084931748602 66.51760001860282,175.21298876937746 66.83902445190098,175.09649937742023 66.91452683557797,175.04472631426384 66.95443523837812,175.02315420451356 67.12161908794637,174.9584378759056 67.1599095825892,174.94980903205692 67.23595126900572,174.9239225002537 67.56169012422923,174.8333196400354 67.70190883677134,174.7729177330946 67.74505305601375,174.7470312012914 67.81947683420864,174.69094371633926 67.85129569596495,174.65642834088024 67.90684387817657,174.5830831682307 68.02656908664135,174.29401689949268 68.02333327019808,174.25950152390507 68.00176116051209,174.15595539778516 67.9996039496132,174.12144002219756 68.01200791258239,174.00926505222895 68.01955815094999,173.97474967683422 68.04921980174413,173.90140450412042 68.05353422366848,173.8582602850699 68.05353422366848,173.8108016439664 68.04706259071868,173.75902858061716 68.02872629753922,173.49153442124367 68.0184795455332,173.21541141840726 68.01632233450674,172.95654610294676 68.02872629753922,172.91340188344617 68.08643169090587,172.64590772426556 68.10584658943682,172.3913568306008 68.13496893748942,172.27055301684783 68.20993201836157,172.12386267148452 68.25361554034554,171.9987444356143 68.33073583224314,171.88225504365707 68.46394360928578,171.62338972819657 68.48012269137347,171.58024550888888 68.49036944350807,171.53278686759253 68.49360525988705,171.44649842942715 68.48767292974007,171.40335420992656 68.40192379399478,171.1488033164547 68.303770695216,170.86836589143678 68.26494089796122,170.58792846635455 68.26871601708073,170.54478424711115 68.2897488239619,170.43260927694968 68.28435579655647,170.3722073701375 68.26278368693475,170.31611988499245 68.24390809101577,170.29023335363928 68.21963946775563,170.26434682202893 68.20076387177235,170.23846029029002 68.18620269777769,170.2082593368839 68.17595594577168,170.1780583834778 68.18835990880416,170.00979592836418 68.19860666087446,169.9623372872607 68.19159572518312,169.70778639359597 68.16247337725811,169.41009128100927 68.16894501008032,169.3324316864997 68.1813489731128,169.29360188905204 68.30484930069709,169.05199426109604 68.31941047475604,169.01316446384126 68.34313979527562,168.87941738437954 68.3442184007567,168.83627316487895 68.34313979527562,168.54720689614092 68.32965722676205,168.47386172329854 68.27518765009582,168.3271713779352 68.29675975965324,168.06399164061466 68.37495865696765,167.87415707575076 68.38520540903795,167.83964170074177 68.40300239947587,167.6756936674239 68.40192379399478,167.63254944818047 68.39760937207144,167.5937196509257 68.39653076671793,167.51174563417032 68.40084518857799,167.4686014150555 68.46070779271393,167.3219110694993 68.61225186293503,167.05441691038297 68.71525868631439,166.79123717306243 68.80694015214236,166.5927737645427 68.8376804083533,166.33822287087796 68.84630925220299,166.29939307362318 68.86356693996363,166.2648776979713 68.94823747022885,166.10092966491058 68.96064143319704,166.0620998676558 68.96980957978626,166.02327007040103 68.9741240017106,165.8808941470263 69.27181911455448,165.38473562540557 69.52529140254525,164.31475898816882 70.04302203346626,162.77019593964022 70.21182379132043,162.13597591644054 70.55967405890618,161.41115303308683 71.24081342027593,159.47397758937885 71.26238552989763,159.3057151340724 71.36431374779592,158.95624695839356 71.40799726977987,158.83975756637204 71.46785987398012,158.69306722081583 71.52017223981277,158.4816605464588 71.53850853299222,158.4342019055482 71.60484277014226,158.252996184533 71.6862774840285,158.05021835402465 71.75638684017046,157.85175494550492 71.82218177451668,157.6446626933294 71.90361648833863,157.41599833146785 72.00284819259849,157.10535995278667 72.09560826397184,156.87238116867934 72.17272855586944,156.70843313581153 72.23043394910752,156.51428414934472 72.331283561589,156.26836209952867 72.49415298929719,155.89300739185379 72.58799166615162,155.70317282737562 72.71472781017917,155.52628152860618 72.782140652747,155.4270498244106 72.90240516382374,155.26741621314568 73.02536618873177,155.12072586758947 73.14293418610579,154.97403552222616 73.22922262459262,154.81440191076834 73.27668126582468,154.7194846287543 73.3198254850028,154.56847986114516 73.37051994267911,154.40884625007308 73.42930394139927,154.18881073206023 73.44278650991183,153.96877521359738 73.44494372080972,153.7444252735316 73.42498951947393,153.39927151964855 73.42606812488971,153.10157640712615 73.42822533585289,152.84702551365427 73.43038254681505,152.72622169945123 73.45842628932328,152.2904650853499 73.46328001398716,151.97982670654014 73.4395506934053,151.81156425142652 73.28477080693281,151.7209613912082 73.12028347100299,151.56995662385623 73.04262387642913,151.43620954439453 73.02644479414856,151.34560668379046 73.1127332326344,151.2722615108838 73.26535590820899,151.17734422867684 73.55280426891825,150.3360319535588 77.38455024053854,143.33372517035218 78.04465679496282,142.13000145346084 79.48028069022324,138.7474946648412 76.39816552802162,137.0907566459583 75.59298653639135,135.9646925235122 75.4446782827421,135.7230848955562 75.07040218093303,135.30890039081942 75.00568585194033,135.24418406221145 74.87463528598845,134.9810043248909 74.76947125158162,134.70488132166872 74.6529818596254,134.44170158434818 74.54458200890488,134.16557858112603 74.42323889228278,133.91102768765415 74.29542414264557,133.65216237193647 74.16113776031473,133.40624032250616 74.03979464369161,133.14737500704567 73.99017879156268,132.97911255193205 73.94703457225498,132.9273394885828 73.91899082981105,132.90576737902535 73.88609336257366,132.88850969132798 73.84564565703396,132.86693758196344 73.79926562134628,132.84105105022454 73.6002629101503,132.59512900040846 73.46328001398716,132.32763484142072 73.33546526454383,132.09034163545334 72.95309962149905,131.90913591450243 66.55642981585761,129.8511566567843 65.84940392300611,130.0280479557466 56.11606806169118,132.47001076479543 54.43775793312225,133.78590945184823 48.53508943794652,130.2135680983647 42.76670732503734,131.20588514109187 42.698755179857535,131.17999860928867 42.63781397004763,131.1670553438371 42.5768727604306,131.1627409215913 42.221472254412944,131.17568418749292 42.16484546659167,131.17568418749292 41.78949075923823,131.24040051629373 41.47399865595645,131.33531779869355 41.09379022393813,131.40434854935444 40.74701856176916,131.40866297121448 40.682302232839746,131.41729181506318 40.55448748339541,131.44317834680209 40.18937952804799,131.50789467566722 39.78759898627938,131.57261100466093 39.381504022715006,131.62869848967736 38.963005096053855,131.67184270872792 38.56284246257116,131.72793019368007 38.15566889339712,131.80558978863968 37.77923558049831,131.86167727359182 37.39579133197244,131.90913591450243 37.03122267942985,131.9824810873448 36.674204265126285,132.0515118380057 36.285906291935525,132.09465605731341 35.50014219896479,132.19388776157328 35.145820298427225,132.24134640267673 34.41182926854959,132.32763484142072 34.048878524164344,132.39235117028585 33.67675963318987,132.43549538952928 33.33861681486959,132.4743251865912 32.998316785587136,132.50884056224308 32.631590922082374,132.56492804700235 32.27672971887056,132.6210155321474 31.92618293751579,132.66847417350803 31.15605862395751,132.7590770338549 30.811983475426967,132.8065356747655 30.439864584452494,132.8583087379219 30.110889912721436,132.9187106447341 29.995479126245293,132.92302506697987 18.6528638871499,135.3347869226226 14.518029775409902,136.10275402521975 9.480402876000396,133.8592546243049 5.458283037097114,132.05582625986574 8.20441259194062,129.0314164909665 5.929094329526614,125.84305868907083 1.4242985377723072,120.14802174900404 0,118.58620101239234 5.717687655234874,116.64039672419277 10.566019292712882,115.23389517717882 12.777160528938015,114.24589255624741 16.470844998915073,112.83076216538477 16.532325511401233,112.82644774313898 21.348838287123936,112.53738147446525 33.12181711317142,110.58294834260987 32.84677271555892,94.87413811601735 32.635366041266174,82.78512788420471 34.55798031123667,80.58477270253327 35.56324061960829,77.05126114675456 36.70440521859567,73.03884875698817 37.647645711805886,64.18565496843183 37.57322193361099,63.275311942202855 36.76211061183474,62.28299489973284 36.707101732363675,62.25279394613387 34.89720173503804,61.31224996675595 34.83302470897674,60.57448381750065 34.067214817342794,51.84209384269729 33.769519704563216,48.99888979442751 34.18154699840214,46.06508288619659 34.7251641608692,45.055508155772046 35.51146755658048,43.601547967204596 35.39389955907787,41.41413605143476 35.90731576813883,38.38541186073974 35.94668486813416,38.37678301689105 41.38555300657073,36.871049765360084 43.832369540349745,36.59061234014929 48.712520039520776,36.89262187472463 49.81161902481112,36.96165262557839 49.887660711163356,36.88830745312174 49.95669146201711,36.875364187220136 50.29914870219745,36.845163233621165 50.64538106162587,36.80201901431346 50.983523879946155,36.7977045925177 51.330834844919956,36.793390170464775 51.680303020727344,36.7977045925177 51.83184709081984,36.80201901431346 51.866901769083704,36.81064785816214 51.900877841609315,36.819276702267985 52.243335081918225,36.87967860920877 52.597656982390504,36.89262187472463 53.29982915064141,36.901250718573316 53.652533142892054,36.90556514062624 54.01116946535296,36.909879562422 54.37897393446738,36.91419398447492 54.71927396375084,36.91419398447492 55.07089935058369,36.927137250376525 55.420367526455365,36.93576609422521 55.76552128033841,36.9400805158281 56.15327995085291,36.91850840627068 56.4687720540694,36.91850840627068 56.77994973529926,36.927137250376525 56.81608301891562,36.927137250376525 57.04097226172193,36.9400805158281 57.11485673724058,36.94870935986965 57.15099002085694,36.94870935986965 57.49021144459402,36.96165262557839 57.72534743947064,36.96596704763131 57.79869261224874,36.97459589147999 58.15409311826639,36.978910313468624 58.31103021576432,36.983224735328676 58.66319490527442,37.00911126668186 58.77375196714997,37.017740110530546 58.94255372487555,37.04794106393665 58.97599049485349,37.0565699079782 59.323301459698705,37.09108528343722 59.61290703137014,37.095399705425855 59.90359120852267,37.10402854933883 60.24766635705321,37.121286236843325 60.412692995594995,37.14285834659361 60.553990313681474,37.26797658239952 60.68180506312581,37.43623903751314 60.73627463992062,37.50958420996979 60.935277351245176,37.73824857208848 61.07765327468516,37.971227355810065 61.12295470488975,38.14811865477237 61.12511191585192,38.411298392092924 61.12834773235846,38.45875703338926 61.13859448436448,38.5019012525041 61.15585217212714,38.545045472004674 61.17850288722994,38.58818969105522 61.29499227918716,38.70467908320532 61.56410434671798,38.89019922582343 61.81272291004388,39.0800337903016 62.0403086666172,39.269868355358376 62.328296330067005,39.42087312232459 62.455032474094544,39.4683317638138 62.760817128046554,39.57187788993372 62.8217583375993,39.58913557743821 63.12808229429186,39.5977644212869 63.51044793733664,39.57619231192235 63.89173497490034,39.52441924883024 64.2773364343241,39.4683317638138 64.65376974722291,39.39498659097141 65.03074236286227,39.38204332506981 65.37751402503123,39.399301012767175 65.56087695681576,39.40792985687302 65.59916745139529,39.40792985687302 65.63799724871336,39.41224427847591 65.67197332143185,39.425187544570385 65.87313324358999,39.57187788993372 66.12175180704448,39.783284564290746 66.3595843156238,39.9946912385192 66.55750842140299,40.21472675672492 66.58555216384691,40.249242131991075 66.62168544746328,40.275128663344255 66.66590827225207,40.301015195083174 66.71444551890092,40.31827288284483 66.76298276548546,40.33553057034933 66.86059656152369,40.34415941419801 67.24404081004957,40.30964403899615 67.62370993939165,40.26218539763552 67.9780318399925,40.15432484952698 68.02656908664135,40.145696005678296 68.07510633322589,40.13275274022672 68.12148636897686,40.12843831798093 68.16570919370136,40.12843831798093 68.20615689924206,40.141381583882534 68.40300239947587,40.30964403899615 68.43482126116889,40.3484738364438 68.4563933707896,40.382989211452795 68.47203315032962,40.417504587104695 68.48551571884218,40.58576704196115 68.48659432425998,40.84463235748594 68.4968410763303,40.92229195199551 68.50924503936278,40.96112174944317 68.52650272712444,40.99995154669796 68.54915344222623,41.03878134395274 68.57827579015225,41.073296719604635 68.81017596858561,41.22861590881664 69.11110689793703,41.35804856667548 69.42012736820271,41.4745379586327 69.73885528786546,41.59102735039706 70.05434739108195,41.69457347664555 70.10881696794105,41.72477443024452 70.34611017371556,41.84126382220175 70.63787295634917,41.975010901727764 70.99057694859981,42.061299340086016 71.30067602441187,42.16484546652738 71.58812438512115,42.333107921255255 71.78928430740787,42.54020017362366 71.99961237621953,42.76023569208654 72.22342301347946,42.98890005394807 72.42727944946989,43.21756441587389 72.50871416335613,43.33405380783112 72.60794586748742,43.47642973159155 72.6543259031741,43.571347013605624 72.66672986620557,43.63606334259933 72.66025823338435,43.69646524941153 72.49037787011339,43.81726906342168 72.45640179739492,43.84315559477486 72.42620084398881,43.86904212657807 72.40247152334064,43.899243080177044 72.3830566246811,43.929444033325986 72.3717312671297,43.99847478437261 72.37280987267508,44.032990159638764 72.38197801926431,44.07181995689355 72.39869640415785,44.10633533248116 72.42620084398881,44.13653628569439 72.5017032276005,44.18830934885078 72.80371276236872,44.309113162860925 73.13969836966254,44.41697371096947 73.17798886430536,44.43423139847397 73.40773183171227,44.46011793002002 73.44494372080972,44.46011793002002 73.48107700442607,44.46443235207294 73.51505307714456,44.477375617974545 73.54579333335549,44.49463330567191 73.57491568128151,44.51620541522933 73.60349872652927,44.5464063688283 73.62722804717744,44.57660732197724 73.64664294577369,44.611122697436265 73.65904690886946,44.645638073023875 73.66659714723706,44.710354401889 73.65203597317812,44.99079182671405 73.61374547866387,45.25397156422748 73.60565593749145,45.5128368795594 73.60673454297353,46.0564540423479 73.65635039510245,46.27217513856499 73.68816925679448,46.556926985378674 73.66012551428625,46.613014470395115 73.63154246910179,46.63027215789962 73.48593072909095,46.755390393705525 73.44871883999352,46.781276925508735 73.40665322629548,46.79422019134605 73.36944133713374,46.7985346132061 73.33115084268378,46.82442114455928 73.1569560573599,47.06171435033379 73.12405859025108,47.32489408784721 73.19956097392706,47.6010170908765 73.25942357806302,47.70456321712499 73.4271467303718,47.963428532649786 73.53231076484192,48.235237113819025 73.55388287439933,48.27406691126668 73.6870906513134,48.43801494458454 73.70542694449185,48.46390147574485 73.71675230210754,48.49410242934382 73.74911046660438,48.623535087202654 73.94865248047661,48.66236488445744 74.2921883262676,48.735710057299826 74.36661210439722,48.74433890114851 74.44265379081374,48.74002447915988 74.51707756907292,48.72708121325827 74.59096204446298,48.70119468190509 74.66107140079683,48.675308150101884 74.95499139432931,48.49410242934382 75.2704834975468,48.312896708714334 75.56925721593605,48.183464050919795 75.88474931902596,48.05403139325384 76.20833096335059,47.95048526694105 76.58044985445365,47.933227579050815 76.80857491363892,47.96774295470271 77.21790569370984,48.00657275215036 77.61645041890762,48.03245928331067 77.68548116976137,48.045402549405146 77.75397261774701,48.06266023690965 77.8219247630544,48.08423234665994 77.88771969746489,48.11011887801312 78.17840387455313,48.291324599028336 78.22586251572089,48.33446881807889 78.26415301036471,48.38624188123528 78.29489326651036,48.43370052233875 78.31646537613206,48.485473585688005 78.33102655012671,48.54156107044729 78.33911609123486,48.593334133796546 78.3321051556721,48.84788502726842 78.34450911864029,48.91260135587639 78.37417076937014,48.96437441903278 78.42594383252552,49.003204216287564 78.48850295036519,49.03771959187517 78.63195747934955,49.09812149868737 78.95985354559951,49.18440993749566 79.29098542829175,49.28795606335841 79.36918432567144,49.30089932945288 79.62049940276435,49.30089932945288 79.98452875263068,49.34835797055635 80.31134621339956,49.43033198686168 80.44239677935144,49.49073389405963 80.48769820955704,49.529563691121545 80.5227528876923,49.57702233241788 80.54756081382156,49.633109817434324 80.56481850145464,49.6935117244394 80.57021152892436,49.75822805304737 80.56481850145464,49.81862996024531 80.5049558972544,49.98689241535892 80.3609620655285,50.237128886777874 80.21642893106404,50.517566312052956 80.09400720902514,50.77211720552483 79.95378849641975,51.061183474198565 79.84646725111703,51.311419946067545 79.8372991045268,51.37613627467551 79.84215282919169,51.449481447775064 79.87936471822485,51.60480063698707 79.97104618411711,51.90249574950949 80.07728882400403,52.17861875273165 80.17544192284709,52.5065148191102 80.209417995437,52.605746523370065 80.23584382972359,52.62300421106743 80.59178363848177,52.72223591532729 80.95473438286703,52.817153197534225 81.33817863145718,52.88618394819512 81.69465774295593,52.94658585539306 82.02740753393506,52.98973007444361 82.12771784354743,52.98110123059492 82.33481009591584,53.015616606246816 83.20470541647552,53.52903281498632 86.77165374242504,56.05728406284344 89.67148457832323,57.619104799262274 90.79700939777159,58.391386323976604 91.46736270426618,58.87891600136293 92.71746645690848,59.57785235317058 94.50309783084542,60.70823089734811 94.655720506419,60.79883375756641 94.71019008314953,60.71685974119679 94.92051815202548,60.4536800034905 95.10927411121543,60.199129110018625 95.16266508252916,60.121469515316186 95.26459330042744,59.96615032610418 95.4371701774654,59.685712901279125 95.59464657770387,59.409589898056964 95.75751600528248,59.1205236289332 95.92469985485172,58.84440062590391 96.05035739339817,58.559648779025935 96.06168275101386,58.50356129368804 96.07300810850097,58.197237337252645 96.05251460442463,57.899542224537356 96.05628972354414,57.843454739328045 96.10105185100919,57.68813555030891 96.20513727999823,57.433584656451295 96.36369228571779,57.17040491913074 96.49474285160538,56.88996749430569 96.68349881079533,56.65267428833831 96.82263891785534,56.553442583885584 96.86686174264413,56.51461278663079 97.0658644538401,56.2902628467579 97.2740353116896,56.07454175054081 97.4924529216094,55.85019181047504 97.68336609176151,55.63447071425795 97.89854788523806,55.40580635213926 98.10779734856864,55.155569880720314 98.26743095976929,54.90101898724844 98.34886567365552,54.80610170459147 98.34077613254738,54.77590075137824 98.51604952322376,54.74569979777927 98.50472416560808,54.6680402032697 98.53168930263521,54.59900945222307 98.53384651366167,54.56017965516115 98.53168930263521,54.52566427976642 98.49447741353777,54.47820563866295 98.56135095342935,54.387602778058906 99.21390726942174,53.17093579526596 99.3395648079682,52.97247238674624 99.54881427136306,52.67046285197803 99.78395026630398,52.48062828749986 100.17494475319745,52.26059276948701 100.53681689197303,52.09233031418053 100.92295765420161,51.86798037430763 100.95531581869847,51.84640826455734 101.15323992447765,51.665202543992145 101.43853107416045,51.389079540769984 101.90125282554509,50.979209457828944 102.23454191920149,50.711715298519756 102.57969567314883,50.38813365419413 102.82831423653903,50.14652602655957 102.8897947489609,49.91786166450517 103.17346799048636,49.48210505001808 103.43449051690904,49.03771959187517 103.67016581459049,48.71413794754954 103.93819927657593,48.377613037579465 104.17549248241473,47.89008336019314 104.27040976475024,47.48021327705923 104.48774876925225,46.6389010017483 104.78059015736794,45.94859349423936 104.91056211783874,45.61638300600076 107.15460082117269,41.6557436791979 108.49800394792888,38.28618015628701 109.76159026895617,33.911356324940215 110.32947605474766,30.740256210934785 111.05969196550679,31.58156848605284 111.11200433127513,31.65491365850949 111.2263365122702,31.767088628863824 111.3665552248123,32.0518404757418 111.47495507566039,32.319334635050986 111.59575888954195,32.57388552878002 111.6140951827204,32.62997301373217 111.6771936033649,32.83706526610057 111.7440671431912,33.07867289367084 111.81525510494384,33.35048147484008 111.9285086804568,33.59208910286038 112.04391946699623,33.83369673043064 112.14908350133878,34.07961878005383 112.28498779195554,34.32985525166565 112.37882646880998,34.44634464388004 112.49855167721046,34.53694750403405 112.57782918013453,34.58872056719044 112.61180525272543,34.618921520596544 112.72236231459998,34.735410912553775 112.74609163511957,34.765611865959876 112.87983871483844,35.04604929136354 112.95426249297006,35.253141543731935 112.99632810679567,35.53789339041704 113.0027997396179,35.71478468937934 113.02545045472068,35.76224333067568 113.18292685495916,35.98659327074145 113.35820024563554,36.20662878881859 113.53239503083084,36.43097872888436 113.61382974465279,36.50863832339393 113.65643466121996,36.53452485519714 113.74056588868034,36.58629791809637 113.80582152041458,36.625127715544025 113.83332596005367,36.651014247154365 113.8613697025619,36.68552962235623 113.93255766431353,36.75887479526291 114.06522613855134,37.00048242283318 114.15313248519551,37.24640447245636 114.18009762222265,37.29386311375271 114.33433820601786,37.54409958562168 114.42224455272633,37.811593744738 114.48210715692656,38.06614463840274 114.57163141185666,38.33363879739048 114.62825819974222,38.59250411310814 114.68919940929497,38.8686271163303 114.79544204918189,39.153378963401146 114.88820212061952,39.4165587007217 114.99929848510703,39.65816632829197 115.13628138120488,39.89114511239929 115.28189312115141,40.13275274022672 115.45069487906886,40.352788258046694 115.6076319765035,40.59439588606699 115.73328951504996,40.84894677953886 115.7413790561581,40.89209099858941 115.73436812046675,40.9438640617458 115.64861898472046,41.15958515796289 116.07790396619247,41.58239850674125 117.26221278442426,42.27270601463592 117.90829746765873,42.56608670536258 118.27232681752506,42.53588575202077 118.42602809851545,42.48411268886438 118.4632399876129,42.475483845015695 118.80407931963589,42.46254057911409 118.88066030879295,42.471169422962774 118.91679359240932,42.47979826700433 118.9545447843116,42.48842711085301 118.99067806792796,42.49705595476598 119.05593369946934,42.48842711085301 119.08990977218781,42.47979826700433 119.16001912839408,42.471169422962774 119.40755908630318,42.449597313405356 119.65563834701712,42.45391173526541 119.69824326345571,42.45822615725404 119.97544487215896,42.51862806406624 120.04932934754902,42.53588575202077 120.23592809584109,42.54882901747234 120.27421859035633,42.553143439718134 120.34324934120909,42.57040112722263 120.38261844120441,42.583344393124236 120.54117344698827,42.59197323697292 120.58162115252897,42.59197323697292 120.78763479935199,42.65668956558088 121.09503736152664,42.79043664549264 121.13009203966091,42.803379911329955 121.16191090135293,42.81200875517864 121.19804418496929,42.82063759909161 121.41430458392692,42.92849814720015 121.5895779746033,43.00615774170973 121.86408306947526,43.13990482117145 121.9266421874425,43.17010577477042 121.99783014919414,43.1959923061236 122.03504203822729,43.208935572025204 122.08465789035722,43.243450947612814 122.10730860546002,43.269337479030284 122.1526100356656,43.34268265187267 122.16986772336398,43.39877013688911 122.17633935624949,43.45485762184126 122.20114728231445,43.51525952884634 122.21139403438477,43.549774904048206 122.21624775904965,43.61017681086041 122.21409054815177,43.73960946891211 122.18119308091437,43.85609886067647 122.17418214528732,43.88629981427544 122.1677105124008,44.01573247213427 122.25885267561681,44.032990159638764 125.96871622774586,44.31774200670961 131.34340733999457,44.727612089393496 139.1654542888904,45.327316736941285 139.2005089669614,45.327316736941285 139.22423828760955,45.22808503248856 139.22046316849006,44.95627645151219 139.17516173822017,44.87861685700261 139.12554588609024,44.84410148135072 139.097502143582,44.8225293717933 139.07377282293385,44.79232841819433 139.0149888242147,44.749184199143784 138.98424856800477,44.73624093324218 138.91629642269538,44.701725558040316 138.9028138541818,44.66721018238842 138.86668057056545,44.62406596333787 138.84402985546265,44.59817943153466 138.78308864584562,44.529148681066644 138.7615165362229,44.503262149327725 138.7296976745329,44.48169003957744 138.58408593452106,44.35657180396439 138.56574964134262,44.33068527261121 138.54202032075872,44.304798740808 138.46166421241787,44.17105166134628 138.46058560700106,43.91218634562862 138.43901349731507,43.80001137591719 138.4152841767955,43.71803735896895 138.39748718635758,43.679207561714165 138.33061364659457,43.571347013605624 138.23084263952987,43.433285512090976 138.1844626037789,43.39877013688911 138.14832932016256,43.36856918348301 138.11920697223752,43.33405380783112 138.0668946063406,43.269337479030284 138.0253682953188,43.208935572025204 137.99031361718355,43.17873461842623 137.71742643046892,43.00184331965681 137.4493929684835,42.83358086454319 137.16356251593155,42.699833785081466 136.87719276070337,42.557457861513896 136.5784190424427,42.41508193801062 136.2958244063983,42.255448326745686 136.04127351286215,42.082871449836304 135.83310265501268,41.90166572882109 135.81045193990988,41.8628359315663 135.77809377547732,41.77223307115512 135.77108283985027,41.72477443024452 135.77216144539562,41.677315788755315 135.7753972617746,41.40982162976758 135.78240819753023,40.87051888922486 135.79373355495306,40.0766652550174 135.78834052754763,39.804856673655294 135.73926397815825,39.53736251447469 135.68155858492017,39.29575488651869 135.6492004204876,39.019631883489396 135.55158662451265,38.769395412070445 135.41244651745365,38.50621567474989 135.24957708974546,38.23009267152773 135.15250259651205,37.98417062171167 135.05650670863116,37.720990884391114 135.0327773880473,37.46643999091924 135.04032762647918,36.922822828130734 135.05057437848518,36.88399303087595 135.08023602927932,36.845163233621165 135.1163693128957,36.81496228002219 135.15681701843639,36.78476132661609 135.28840688706552,36.702787310053594 135.5030493778648,36.60787002765379 135.66268298900016,36.53021043314422 135.97925369776405,36.42234988503567 136.21654690353853,36.23682974222469 136.398831229842,36.01679422434042 136.49698432874933,35.887361566545884 136.51855643830675,35.8442173470453 136.5358141260041,35.770872174524364 136.5924409136968,35.51632128085962 136.69868355364903,35.2660848092478 136.77095012088074,34.99859064987432 136.774185937324,34.72678206870509 136.82757690857343,34.45065906548293 136.99044633628162,34.20473701585974 137.08859943506042,34.07961878005383 137.35016126422363,33.85958326216956 137.61711612072799,33.67406311916571 137.92236147187515,33.523058352006615 138.23785357509263,33.3720535843975 138.5317735687527,33.23830650493577 138.83971543353832,33.117502690925626 139.1530503259222,32.9837556114639 139.4771712728598,32.86295179745375 139.55429156475742,32.841379687703466 139.59258205940122,32.83706526610057 139.631411856655,32.83706526610057 140.00676656413805,32.8241220000061 140.37187451942017,32.7766633590955 140.70678152136148,32.6644883891269 140.9861403409626,32.50485477792626 141.08429343974137,32.427195183159526 141.14199883291516,32.36247885416582 141.20779376726136,32.27187599375465 141.32212594832072,32.11224238274687 141.32320455380182,32.06478374138624 141.32751897572615,31.792975160217004 141.32104734277536,31.590197329901525 141.3016324441158,31.486651203781612 141.30648616878068,31.20621377837795 141.3129578016672,30.947348463238896 141.33237270039103,30.67985430392971 141.4316044047152,30.433932254113653 141.5944738322305,30.188010204490464 141.6996378667006,29.8989439353667 141.71096322418873,29.834227606565864 141.8344635518363,29.57104786924531 141.89432615603553,29.42867194587061 141.90025848611822,29.37689888277851 141.91158384373392,29.10077587955635 141.95418876017249,28.820338454281266 141.97899668630174,28.557158716960714 141.99140064926993,27.694274332092366 141.9860076218645,27.409522485021522 141.874911257377,27.167914857451258 141.68076227071734,26.934936073536804 141.48499537596462,26.70195728955806 141.26981358255236,26.49486503718966 141.24176983997987,26.456035239742004 141.20455795081813,26.395633332994088 141.13444859461185,26.283458362832622 141.11503369588803,26.231685299676233 140.97481498334693,25.9728199844086 140.96241102031445,25.942619031002497 140.8254281242166,25.662181605920285 140.70678152136148,25.411945134115594 140.55739466216687,25.157394240643725 140.4355122428042,24.911472190827666 140.36324567557148,24.64397803145419 140.35623474000872,24.59220496874783 140.36054916193305,24.311767543279878 140.3594705563887,24.052902228205113 140.32926960298158,23.776779224982953 140.3006865576685,23.504970643749424 140.29960795218744,23.24610532828892 140.302843768695,22.96998232487389 140.30877609877666,22.689544900048837 140.3244158783167,22.585998773543185 140.3675600974958,22.460880537930144 140.3821212714905,21.356388525491536 140.37672824408506,21.08889436611806 140.36324567557148,21.041435725014587 140.25916024664673,20.752369455697952 140.14698527661284,20.49350414062319 140.05638241633125,20.24326766875421 139.96146513393043,19.98871677508947 139.91184928180152,19.824768742221643 139.91616370372586,19.49255825404733 139.9355786023211,19.380383283885866 140.07364010396432,19.11720354656531 140.09736942448393,19.056801639560234 140.18096134933234,18.77636421473518 140.2791144480468,18.530442164919126 140.3686387029769,18.254319161696966 140.38805360170073,18.224118208097995 140.49429624152336,18.11194323832227 140.66849102671867,18.008397111880907 140.71379245692424,17.999768268225093 140.86749373797892,17.99113942437641 141.03359898206608,17.999768268225093 141.08698995338082,18.008397111880907 141.14199883291516,18.02134037797538 141.193232593331,18.038598065479878 141.24069123443448,18.055855752984375 141.29246429752658,18.077427862734666 141.44508697322874,18.13782976973974 141.48499537596462,18.16371630109292 141.51573563217556,18.19391725469189 141.53676843899242,18.224118208097995 141.54701519112703,18.254319161696966 141.5491724020249,18.2888345370917 141.5642728787601,18.353550865956826 141.68723390366713,18.534756586907758 141.73145672839263,18.573586383969673 141.75842186541976,18.625359447126062 141.81612725859355,18.698704620032743 141.85603566139372,18.711647885484318 141.9239878067021,18.737534417287527 142.02645532740522,18.77636421473518 142.06528512485286,18.784993058391 142.11813679336177,18.784993058391 142.24379433190822,18.750477683124842 142.2923315784938,18.698704620032743 142.51776012410392,18.478669101569864 142.54688247202893,18.448468148163762 142.69626933115927,18.26726242759857 142.82624129163005,18.025654799578273 142.93625905076507,17.775418328159322 142.95729185758194,17.74090295250743 142.985874902895,17.706387577305566 143.1891920360153,17.49066648108848 143.2954346759665,17.378491510927017 143.42702454472322,17.132569461496697 143.55106417491947,16.91684836527961 143.76624596839602,16.670926315463554 143.9922138167477,16.4681484849552 144.01162871534297,16.44226195360202 144.04452618251506,16.360287936846657 144.06825550316424,16.304200451894506 144.11679274974878,16.21359759129046 144.1221857772185,16.179082216281465 144.12380368537583,16.144566840629572 144.13243252928882,16.1143658870306 144.1362076484726,16.079850512021604 144.14052207039595,15.81667077444389 144.12919671278127,15.657037163243247 144.1108604196018,15.622521787977092 144.05099781546687,15.493089130118262 144.02511128385652,15.428372801124556 144.01270732082304,15.393857425922691 144.01162871534297,15.359342050270799 144.01162871534297,15.096162312950243 144.0159431372673,14.798467200170665 144.0310436140025,14.660405698848889 144.05585154013175,14.61294705735968 144.1448364923213,14.500772087648246 144.20739561022424,14.431741336794488 144.26402239791693,14.354081742284917 144.42095949541488,14.134046223822038 144.42797043110622,14.099530848620175 144.4414529996198,14.065015472968282 144.45817138451233,14.034814519562179 144.57843589565334,13.85792322059988 144.58976125326905,13.827722267193776 144.67443178346994,13.573171373914775 144.6776675999132,13.314306058454271 144.66526363688072,13.13741475949197 144.65070246288607,13.098584962237185 144.6323661697076,13.025239789330506 144.61780499577725,12.951894616873856 144.59083985875012,12.826776381003656 144.58976125326905,12.56359664329736 144.5994687025988,12.472993783079055 144.6345233807351,12.352189969326066 144.70247552604246,12.201185201716946 144.78175302883795,12.101953497457087 144.8189649179997,12.071752544243854 144.97158759357228,11.963891996135311 145.25580013784028,11.774057431335695 145.34370648448345,11.739542056069542 145.43323073941457,11.705026680674807 145.7519586590743,11.571279600763054 146.05181098281705,11.446161364957145 146.37754983810385,11.316728707484053 146.68980612500565,11.200239315526826 147.0144663746848,11.092378767418284 147.33103708344765,11.001775907071396 147.65569733325438,10.919801890316034 147.98952572958603,10.820570185863305 148.30286062190564,10.717024060000552 148.5978592209172,10.630735621385139 148.866971288449,10.600534667786167 149.02552629423286,10.548761604886936 149.13500475049875,10.522875073276596 149.20403550128822,10.492674119677623 149.22992203283528,10.475416431980257 149.41652078112634,10.337354930658481 149.58963696077626,10.10869056860408 149.65543189518675,9.953371379134907 149.65651050060356,9.862768518980891 149.63709560200832,9.716078173617563 149.6166020978034,9.690191642007223 149.59071556625733,9.664305110268302 149.35773678240616,9.474470545790137 149.3162104713211,9.448584014051216 149.00611139550904,9.301893668687887 148.72082024582625,9.146574479475875 148.50402054412805,8.922224539410106 148.32982575893277,8.684931333635602 148.317421795836,8.646101536187945 148.30933225472785,8.611586160921792 148.29153526428993,8.348406423215497 148.30393922732242,8.145628593092885 148.31957900686146,8.115427639493914 148.34330832744632,8.089541108140732 148.368116253447,8.067968998390445 148.49700960843572,7.951479606433217 148.54662546056664,7.904020965072589 148.57520850581543,7.88244885577233 148.63399250453458,7.847933480120437 148.6701257882162,7.83067579242307 148.9020259665843,7.705557556810029 149.10210728338993,7.489836460592943 149.29571696724477,7.252543254625569 149.30218860006698,7.218027879359415 149.3135139576827,6.644209763229096 149.31836768234757,6.372401182252727 149.3226821042719,6.28179832164868 149.34101839745037,6.2559117902955 149.36906213989428,6.225710836696528 149.412206359202,6.178252195335899 149.43593567972158,6.1566800860356405 149.57831160328917,6.044505115681306 149.62361303349473,6.0186185843281255 149.65974631711111,5.992732052717785 149.90998278865862,5.789954222209434 150.21414953432472,5.65189272050192 150.52263070197944,5.539717750790484 150.84621234630507,5.405970670878731 151.17410841255506,5.246337059806667 151.4626353788097,5.073760182704418 151.75008373945468,4.896868883742117 152.00679184388872,4.698405475415268 152.25864622372217,4.486998801058234 152.3212053416251,4.417968050204476 152.44524497201422,4.241076751242176 152.46789568711702,4.206561376233181 152.55526273102066,4.068499874525666 152.56550948309095,4.029670077270881 152.59463183114457,3.9261239507652297 152.72028936969102,3.7147172767939347 152.96351490567577,3.5033106021797407 153.02014169336846,3.4687952269778766 153.36367753922275,2.9985232372889183 154.3069180323677,1.6308514870797222 154.04805271684288,0 157.96231200770293,1.5920216898249366 160.8103697805723,2.6965137027135775 163.36504686245885,4.892554462139225 164.9996734690438,6.618323231875915 165.6905202797433,7.235285567121071 166.1575564530533,7.653784493460769 166.44931923568691,7.916964230781325 166.6283677454838,8.059340154541761 166.81011276911,8.369978532965785 168.66046047191205,8.745333240640674 169.1582369013687,8.88339474215532 169.47480761013054,8.978312024362259 169.63228401037003,9.00851297796123 169.97366264513357,9.060286041117621 170.31180546338956,9.150888901464507 170.64671246533086,9.245806183735734 170.94278966982554,9.366609997681593 171.21459825118666,9.521929186700735 171.5581340967838,9.672933954116987 171.5899529584758,9.68156279796567Z"/></svg>