<svg xmlns="http://www.w3.org/2000/svg" width="256" height="256"><path d="M41.04183032678442,0.3470327681624547 41.73849860887054,0.5344304629701803 42.47854598692527,0.8120566774484321 42.81777051780407,1.006395027464271 43.06242861941031,1.2076740329984947 43.30795430288525,1.4957112306250442 43.56302338743294,1.7629264621101342 43.76083206528554,2.0544339873148845 43.91179131948792,2.24183168212261 44.17553622329139,2.4569919984350435 44.35512568076374,2.5784534674987505 44.44969211013972,2.68603362531884 44.55380194053675,2.8803719756449504 44.61019476536315,3.0400070488445436 44.65877935290589,3.3696881786505877 44.758551273752595,3.7514242236809996 44.85398528499727,4.247681082049886 44.968506098490884,4.570421556492681 45.07261592904304,4.8098741666799105 45.17672575944007,4.983390550761138 45.422251442915005,5.281838731329137 45.562799713969085,5.427592494060792 45.780562776042736,5.590697895045434 46.07293788321961,5.7503329683484505 46.36444540842436,5.844031815804025 46.51453708070633,5.927319680059591 46.694126538178686,6.0418404937600485 46.96654726123793,6.1737129456100694 47.18864823281019,6.364580968047708 47.56604636823857,6.746317012871272 47.792485249412856,6.971888312332004 47.91221155442891,7.12805305805682 47.932165938598246,7.148875023991431 48.07444937354485,7.336272718954293 48.20111633392415,7.527140741236795 48.322577802781005,7.731890074400932 48.39718984798765,7.953991046076615 48.403262921378776,8.15874037924075 48.424084887468524,8.366960040345072 48.42842279707055,8.443307249237387 48.43623103435421,8.467599542957048 48.45531783665486,8.50924347534339 48.47006672930176,8.530065441278001 48.49262385918061,8.550887407522884 48.51518098911117,8.568239045724159 48.58198479703415,8.623764288681864 48.79714511324316,8.772988378888295 48.990615881545445,8.929153124613112 49.16673501133618,9.088788197967842 49.36107336150715,9.255363926685819 49.53806007327,9.43235063870723 49.655183632576545,9.567693418135452 49.77143960991097,9.775913078929502 49.8469192369863,9.987603067456886 49.92673677366366,10.199293056294543 50.02043562106753,10.407512716933457 50.13842676219105,10.601851067259568 50.30587007288115,10.778837778970708 50.501943586892935,10.941943179903637 50.69628193706391,11.091167270265204 50.88714995950155,11.24733201619687 51.09536962039902,11.375734140106706 51.297516207957074,11.521487902890073 51.52308750715925,11.681122976399937 51.69573630932007,11.840758049702956 51.72436651269347,11.865050343267479 51.88139884028698,11.951808535308093 51.92824826398891,11.955278863093142 52.22062337116578,11.951808535308093 52.25966455758405,11.958749190671341 52.30130848981526,11.979571156967937 52.34034967618182,12.007333778265798 52.55984790204458,12.14961721310898 52.73683461380743,12.312722614197046 52.792359856713425,12.39254015087441 52.801035675969196,12.437654410890666 52.80190325783789,12.663225709989414 52.80624116743992,12.722221280887302 52.82532796974057,12.784687179053119 52.83920928041535,12.805509144987731 52.87304497536291,12.843682749433889 53.06738332548217,13.006788150521954 53.213137088162114,13.128249619430527 53.29295462489119,13.152541913150186 53.52980448905864,13.249711088494234 53.564507765874886,13.27053305427371 53.63304673758697,13.322587969756636 53.81176861319064,13.509985664616075 54.00350421760039,13.673091065393868 54.20391564131763,13.818844828125522 54.314098545105786,13.912543675581098 54.31670129086701,13.943776624819142 54.32884743775269,14.054827110579415 54.350536985762844,14.086060059662325 54.37916718913625,14.120763336323435 54.559624228580724,14.29775004818971 54.74181643191773,14.457385121699575 54.97693113234779,14.578846590246163 55.01770748255517,14.585787245609412 55.311817753572846,14.592727901127796 55.57990056703005,14.603138884120959 55.89049489448374,14.620490522632505 56.165518363304194,14.686426748531659 56.44140941399335,14.780125595987235 56.62620436298814,14.832180511004754 56.89862508599567,14.859943132612887 57.19794084853579,14.859943132612887 57.353238012288486,14.85647280487955 57.38100063379319,14.842591494308188 57.41483632863732,14.83565083894494 57.49899177491672,14.821769528011593 57.78616139062286,14.821769528011593 58.076801333907206,14.818299200433392 58.217349605013,14.811358545225279 58.258125955272085,14.80441788986203 58.41862861059893,14.769714612838937 58.451596723522655,14.75236297432739 58.48282967270899,14.73501133597098 58.53488458788164,14.70030805930987 58.555706554023104,14.67948609316841 58.650272983399084,14.554554296526502 58.64593507374534,14.394919223171774 58.633788926807945,14.370626929658961 58.579131265822355,14.263046771321752 58.57219061045911,14.214462183727298 58.5695878647496,14.162407268554642 58.56177962741423,14.086060059662325 58.56091204549383,13.874370070928093 58.57219061045911,13.811904172762274 58.466345616169555,12.91655963090314 58.49671098338377,12.690988331597545 58.51840053139393,11.958749190671341 58.59127741275975,11.184866117669069 58.66415429407387,10.511622547640753 58.601688395752916,9.966781101522276 58.50104889303751,9.356003429452931 58.43424508511453,8.523124785914751 59.464064824636615,8.602942322747252 60.21712593154914,8.679289531484432 61.018771626004416,8.759107068161798 61.51589606644884,8.627234616466913 61.95836284580426,8.415544627939527 62.65589870981079,8.137918413306139 63.097497907297516,7.985223995159523 63.63626627986973,7.988694323099708 64.15855059600594,8.023397599915953 66.39604436873336,8.120566774794593 67.28878616483128,8.224676605346753 67.293991656302,8.280201848304458 67.3477817354706,8.280201848304458 67.62801069565836,8.280201848304458 68.19454168968358,8.280201848304458 68.48257888731013,8.266320537526248 68.5103415087114,8.266320537526248 68.71942875152928,8.26979086515616 68.8322144012338,8.283672176037793 69.11417852536579,8.304494142179253 69.22869933880769,8.30102381423907 69.41869977942834,8.26979086515616 69.50112006186693,8.26285020979291 69.58267276233339,8.255909554584798 69.6104353838381,8.252439226644613 69.69545841198618,8.2420282438583 69.72235345157048,8.235087588288202 69.75011607297178,8.228146932924954 69.83166877348995,8.217735950138639 69.88632643447554,8.214265622198456 69.97048188075493,8.207324966835206 69.99564175644672,8.200384311627094 70.0216692141106,8.196913983997181 70.0494318355119,8.189973328478796 70.07806203888529,8.189973328478796 70.13271969987088,8.183032673115546 70.41034591440085,8.179562345485634 70.43810853590556,8.179562345485634 70.60641942841264,8.179562345485634 70.66020950747782,8.186503000900595 70.68797212903424,8.189973328478796 70.76952482944898,8.200384311627094 71.04628346205854,8.245498571281365 71.33258549579257,8.287142503667706 71.61107929224293,8.353078729566862 71.8869703429838,8.40860397236943 72.16286139372467,8.446777577022436 72.44482551785666,8.488421509046795 72.71377591307913,8.564768718301094 72.97405048920098,8.654997237764773 73.15103720096383,8.720933463870775 73.22911957385209,8.766047723525046 73.24994153994184,8.779929034406681 73.43386890701623,8.953445418487908 73.65857262445313,9.09572885333109 73.9093037993988,9.19636835630505 74.16957837552063,9.293537531131978 74.42811778785338,9.387236378690977 74.45327766349344,9.394177034054225 74.71702256729691,9.467053915213205 74.98250263504461,9.553812107253819 75.12131574220616,9.598926367425209 75.38592822793004,9.68221423152564 75.66528960635253,9.751620785209841 75.9307696739451,9.821027338894044 76.15026789980784,9.869611926333365 76.41921829513375,9.928607497076117 76.57885336848848,9.966781101522276 76.75931040793296,10.0743612594975 76.87469880334697,10.1680601070565 77.09246186542062,10.306873214321481 77.26511066752973,10.372809440375772 77.29721119858476,10.404042389303545 77.33364963924181,10.43527533854159 77.47680065621225,10.50815221970057 77.61908409105543,10.535914841360412 77.64424396674721,10.546325824456998 77.82903891579372,10.598380739681367 78.10059205688084,10.633084016497612 78.38776167263869,10.653905982483936 78.66799063282646,10.667787293055298 78.83630152538524,10.671257620995483 79.2796358867645,10.70249057007839 80.02315359250083,10.87253662637457 80.58621425884442,11.084226614901956 80.97575854115848,11.229980377685322 81.2316952076783,11.354912174172094 81.2620605748408,11.365323157320391 81.44078245044447,11.427789055641346 81.64813452947324,11.50760659231871 81.72881964801931,11.500665936903749 81.87804373832915,11.490254953807163 82.52092194135011,11.79911411752346 82.55475763629765,11.812995428249959 82.68663008814768,11.885872309564075 82.86274921804184,11.969160173664504 83.93768321737333,12.559115879592389 84.5970454769337,12.999847495158706 85.193074256201,13.329528625171598 85.47850870801463,13.551629596640433 85.80818983782068,13.853548104838344 85.89841835754291,13.943776624819142 86.13353305797297,14.061767765942665 86.66536077518194,14.235284150023892 86.90134305748069,14.356745618880751 87.36029389337554,14.714189369881232 87.75417608523992,14.988345256729572 87.79234968973779,15.01263755044923 87.80276067278267,15.619944894733527 87.81230407390713,15.821223900474598 87.81230407390713,15.84898652177246 87.94504410778099,16.11620175325755 87.97714463883601,16.17866765173364 87.98755562182917,16.359124691178117 87.97540947494349,16.44588288321873 87.84180185920094,16.678394837732437 87.83659636773022,16.90743646477137 87.861756243422,17.126067108662003 87.95545509082586,17.60150200109628 88.02486164445835,17.681319537773643 88.10034127153368,17.75072609130271 88.2460950341102,17.851365594069822 88.31897191542431,17.899950181664277 88.33285322615082,17.92077214790916 88.36755650301878,18.00406001221644 88.39271637871055,18.04223361650746 88.50463444644295,18.187987379445964 88.53933772320748,18.219220328528873 88.557556943536,18.236571966833573 88.76057111291104,18.378855401676756 88.86294577957068,18.448261955567805 88.94363089811674,18.503787198318662 89.0095671240676,18.541960802971666 89.05815171166206,18.562782768751145 90.055003338157,19.742694180762047 90.72477658076225,20.474933321584828 90.7464661287724,20.499225615252776 90.85751661453267,20.55822118568526 91.15943512283401,20.797673796027624 91.14815655792044,20.926075920092597 91.14815655792044,21.130825253411867 91.35724380073832,21.116943942530234 91.46308879497616,21.148176891613144 91.58455026388474,21.356396552717463 91.6235914502513,21.443154744758075 91.62098870454179,21.474387693840985 91.75980181175505,21.568086541089713 91.98710827500489,21.713840303821367 92.16669773247725,21.81447980664019 92.47989480569215,21.880416032539348 92.91715609357685,21.91164898177739 93.02647141554802,21.915119309252166 93.05510161892141,21.915119309252166 93.19391472623812,21.91858963719235 93.21994218379858,21.922059964615418 93.2485723872237,21.922059964615418 93.52533101978155,21.91858963719235 93.71880178803211,21.915119309252166 93.99729558448249,21.894297343317557 94.27839212674579,21.901237998680806 94.32957946010146,21.91164898177739 94.39031019447818,21.922059964615418 94.66012817167277,21.970644552209873 94.91606483819258,22.064343399613733 95.15204712054305,22.206626834456916 95.23533498490204,22.265622405354808 95.28218440860397,22.317677320372326 95.43661399043627,22.50160468760185 95.49127165142185,22.577951896494167 95.55981062313394,22.695943037617692 95.59277873610937,22.779230902183528 95.59798422768351,22.820874834104462 95.59104357232027,22.87987040500235 95.57282435199174,22.897222043151913 95.54853205816866,22.91110335408526 95.45483321076479,22.987450562822442 95.43140849896554,22.997861546125876 95.34117997924331,23.04644613372033 95.30127121090462,23.074208754863054 95.28478715436519,23.09503072110794 95.28391957254821,23.13667465318401 95.31515252163112,23.1713779302071 95.33684206964126,23.185259240778464 95.36200194528134,23.19567022392676 95.39149973062686,23.20261087929001 95.58410291690531,23.23384382837292 95.63181992252764,23.23384382837292 96.07688944769599,23.29978005442721 96.10204932338777,23.30672070984217 96.1176657980068,23.34489431428833 96.1063872329898,23.386538246467822 96.07168395622527,23.417771195395595 95.99360158333701,23.50452938743621 95.9337384308807,23.549643647452466 95.88515384328623,23.570465613387075 95.85912638567406,23.580876596535376 95.64830397906708,23.643342494856327 95.57369193386043,23.67804577151744 95.58497049882571,23.719689703748642 95.60579246491547,23.73357101463028 95.63181992252764,23.74051167004524 95.65784738013983,23.74051167004524 95.80013081513815,23.737041342105055 95.83049618230065,23.730100686896943 95.88515384328623,23.716219376170443 95.91204888287054,23.70927872075548 96.01702629523969,23.684986427087534 96.06561088273071,23.67804577151744 96.10725481496192,23.67804577151744 96.1350174363632,23.674575443939236 96.27383054367989,23.667634788575988 96.5583974135214,23.66416446079094 96.70501875807004,23.65722380542769 96.7709549840209,23.653753478004624 96.81520166196162,23.650283150064443 96.82214231732486,23.691927082450782 96.84209670149421,23.730100686896943 97.26807942446533,23.60516889041017 97.28890139055508,23.66416446079094 97.37305683683448,23.92790936469783 98.1851135142829,26.0413389229106 98.3109128927418,26.24608825607474 98.37424637298315,26.315494809603805 98.40114141246403,26.353668414049963 98.41762546900347,26.391842018651257 98.43410952543947,26.454307916817076 98.47141554806865,26.5445364364876 98.51739738979846,26.620883645535052 98.5789957061473,26.81869232333594 98.62324238413971,26.943624120132984 98.65881324282466,27.02344165681035 98.68570828235725,27.127551487052237 98.71000057618033,27.339241475579623 98.75598241791015,27.561342447255306 98.76032032756389,27.786913746664325 99.21493325380499,28.27622994966996 99.62356433831629,28.81066041284699 101.20082826966635,30.077330016433102 102.94987342120513,31.94089598167233 103.3411528673083,32.06235745052919 104.48896374795389,32.17340793613433 105.7894690466427,32.20811121300228 107.02403811943233,32.16646728077108 108.52495484173495,32.17340793613433 110.17943356389775,32.49267808299892 111.29774665935297,32.815418557286584 112.75268153982235,33.24920951748965 114.04190827354587,33.47131048916533 114.84615671376235,33.64482687324656 114.97108851030085,33.72117408213888 115.02140826178783,34.44994289548688 114.99624838599262,34.54364174289074 114.92770941428053,34.98090303067201 115.53414917669613,35.556977425718266 116.35401409147994,36.59113507484238 116.99689229444917,37.81616074655927 117.42374259928899,38.197896791537964 118.06575322038952,38.38876481413074 118.5290419658864,38.98566117531845 118.74333470022673,39.395159841801856 119.91804062045664,39.42292246309972 120.41603264276975,39.77689588678056 120.77260881210839,40.34949995424861 121.43457381732657,40.557719615146084 121.66014511663215,40.50566469981829 121.78334174932982,40.63753715166831 121.80156096965835,40.66877010075122 121.83279391879297,40.71041403298243 121.85968895837728,40.748587637428585 121.96553395266683,40.89434140021195 122.10087673219847,41.01927319669873 122.13731517285554,41.05397647351497 122.28133377164295,41.154615976333794 122.52425670935666,41.279547772820564 122.54854900312804,41.29342908339193 122.57023855113819,41.307310394118424 122.59713359072249,41.31772137726672 122.62316104833468,41.32119170500006 122.66654014435498,41.348954326349634 122.86174607644637,41.52941136579411 122.88950869784765,41.56758497024027 122.89905209897212,41.71680906060183 122.88950869784765,41.75845299283304 122.87042189559871,41.88685511710486 122.87736255096196,41.93196937691427 122.9085955001483,41.99096494765702 122.94763668656657,42.01872756895488 122.99014820061477,42.046490190614726 123.04654102554458,42.06037150118609 123.22786564680604,42.112426416358744 123.25476068633863,42.11936707187713 123.28339088971204,42.12977805471515 123.36928149983224,42.13324838265534 123.39964686709817,42.13324838265534 123.43001223426067,42.136718710078405 123.48033198574765,42.161011003798066 123.74841479904973,42.28247247286177 123.77530983858232,42.28941312822502 123.83343782730124,42.29288345595835 123.95056138650436,42.29288345595835 124.12147502482436,42.303294438796385 124.15184039209029,42.303294438796385 124.20736563494458,42.31717574952288 124.26983153321382,42.35534935412417 124.44855340886919,42.56356901491822 124.47544844835006,42.62256458560926 124.55266323931792,42.7440260543627 124.6472296686422,42.83772490176656 124.6914763465312,42.872428178789654 124.79211584935003,42.917542438443924 124.87106580410698,42.93489407695547 125.13567828983085,42.98694899228327 125.37686606370376,43.045944562870886 125.43499405237097,43.052885218079 125.7091499391676,43.052885218079 125.7664103459144,43.05635554581233 125.93905914807522,43.07370718432388 125.96682176957994,43.07370718432388 125.9928492271404,43.07717751195379 126.02321459435461,43.084118167161904 126.12125135136051,43.12923242697131 126.14814639099653,43.14311373785294 126.24184523834867,43.24028291288672 126.27221060551118,43.28192684511793 128.2234023445046,43.15699504863116 128.54874556465688,43.12576209954825 129.367742897572,43.052885218079 129.65144218549307,42.95918637083027 130.93199310001253,42.108956088780545 131.86204091873964,41.456534484479995 132.70272779956147,40.94292598759956 133.64665692896335,40.37379224796827 133.797616183114,40.273152745149446 135.13369234059118,40.63059649630506 136.3569828483121,41.18584892557184 137.22890267832028,41.879914461896746 138.1389961128263,42.889779817146064 138.7020567792216,43.604667319405586 138.86602976212666,43.816357307932975 139.89151159209842,43.78512435885006 139.9184066315793,43.78859468679025 140.03553019088585,43.781654031426996 140.06849830386128,43.77818370348682 140.3539327556749,43.7191881328992 140.6280886424715,43.68101452860817 140.86146817906078,43.701836494749635 140.891833546275,43.715717805321 141.00548677795163,43.712247477535946 141.08356915068475,43.715717805321 141.37247393017998,43.73306944383254 141.52343318433066,43.74001009919579 141.8253516926837,43.73653977125561 141.86179013334078,43.73306944383254 142.0509229919376,43.729599115892356 142.10297790716194,43.72265846052911 142.3233437149451,43.6359002684885 142.34676842679607,43.622018957917135 142.46128924034142,43.49361683364531 142.5610611611364,43.28886750032604 142.62439464137776,43.08758849510209 142.69466877687896,42.900190800242655 142.70421217805512,42.86548752342641 142.70941766952583,42.757907365089196 142.70421217805512,42.5531580320802 142.7024770141626,42.5253954106272 142.69466877687896,42.501103116752404 142.65302484475117,42.43169656322334 142.62439464137776,42.376171320265634 142.6053078390771,42.19224395303611 142.6044402571567,42.1506000208049 142.61138091251996,42.05690117340104 142.61311607641247,42.004846258383516 142.60877816675873,41.95626167063393 142.60791058483832,41.90420675561641 142.60964574873086,41.869503478593316 142.6044402571567,41.793156269856134 142.6027050933676,41.61616955783472 142.60096992947507,41.43571251839025 142.59576443800435,41.369776292439376 142.59402927411182,41.31772137726672 142.59229411032274,41.27260711761245 142.5905589464302,41.21361154671456 142.62786496905937,41.22055220207781 142.70594734184422,41.262196134309015 142.80311651692972,41.39753891409922 142.88553679936828,41.52941136579411 142.90375601969683,41.66475414542918 142.93759171459266,41.9215583939211 142.96882466372728,42.00831658596172 143.01827683324214,42.07425281175745 143.09462404223788,42.19918460839936 143.15014928509217,42.24082854063057 143.24905362407017,42.28247247286177 143.2794189912327,42.279002145076724 143.30371128505575,42.209595591547654 143.32106292341217,42.12283739950704 143.39307222280587,42.02566822431813 143.46161119451796,41.98055396450872 143.54142873119534,41.90073642767622 143.57439684422246,41.8105079080057 143.59695397415302,41.71680906060183 143.60476221138498,41.63699152392447 143.58133749953402,41.5641146428172 143.55964795152386,41.525941038371045 143.5214743471294,41.46694546747315 143.43211340922417,41.37671694780263 143.41302660707865,41.359365309653064 143.38613156744265,41.32119170500006 143.382661239761,41.11644237168079 143.42690791775343,40.890871072426904 143.5223419289464,40.73123599922731 143.52928258430964,40.68959206704781 143.5067254544308,40.63059649630506 143.4642139402792,40.571600925924294 143.4390540645874,40.51607568296659 143.42517275386092,40.49525371666999 143.38699914941475,40.387673558694765 143.38699914941475,40.27662307277936 143.45553812112684,40.17945389759045 143.65941987237056,40.016348496657514 143.70973962375413,39.960823253699814 143.77047035823426,39.81159916349338 143.78348408698864,39.76995523126217 143.78174892325126,39.73178162666088 143.78782199664238,39.62073114090061 143.78521925088117,39.59296851960275 143.80777638076,39.502739999777084 143.8763153524721,39.2945203388279 143.94572190610458,39.08283035045565 143.95786805304198,39.016894124556494 143.95613288914947,38.97525019217015 143.96480870840523,38.94054691530219 143.97782243715963,38.902373310856035 144.0038498947718,38.839907412535084 144.0125257140276,38.794793152880814 144.0159960417092,38.749678893071405 144.0168636235779,38.7080349608402 144.02553944278196,38.66292070103079 144.05243448236627,38.583103164353425 144.06631579309277,38.47899333380127 144.06631579309277,38.27424400063713 144.05503722807578,38.10766827176402 144.04809657276422,38.06602433953281 144.03248009814521,38.02438040745674 144.0125257140276,37.98620680285545 143.9917037478861,37.927211232474676 143.99083616601743,37.79880910804772 143.98042518297254,37.76063550360156 143.93878125074133,37.698169605435744 143.90754830165844,37.66346632841265 143.8763153524721,37.63223337932974 143.79129232432402,37.476068633604925 143.67503634693787,37.25396766208438 143.64293581588285,37.19497209170361 143.58307266337482,37.00410406911084 143.57786717185238,36.875701944683875 143.5657210249667,36.834058012762945 143.55357487813274,36.795884408006515 143.5483693865586,36.75424047613729 143.5475018046382,36.608486713198786 143.54576664084908,36.54949114276631 143.54316389513957,36.521728521158174 143.54403147695655,36.48702524460049 143.56485344314973,36.34127148186884 143.5804699176136,36.15040345927606 143.60042430183466,36.070585922598696 143.6238490136339,35.98729805834313 143.62905450520807,35.86236626185636 143.62645175939514,35.796430035750355 143.57613200801157,35.72355315443624 146.8451806841019,34.84556025124379 146.92326305693845,34.83514926809549 147.5383786385064,34.640810917872805 147.8029911242303,34.56099338124715 148.40856330472548,33.9849189862009 148.8545004117625,33.65523785618801 149.43751546227543,33.270031483734535 149.85048445644048,32.85359216173274 150.20619304375526,32.58637693024765 150.89678825239855,32.29139907741299 151.73226964174967,32.14217498720656 152.83236351687637,31.96518827539199 153.5576620022842,31.756968614287672 153.60190868022488,31.743087303716308 154.48510707525006,31.316236998721354 154.88159201282394,31.00737783516019 155.30583957195427,30.722810965163557 155.91574966199977,30.417422129232307 156.5725091756955,30.028745428838647 157.0791770172127,29.83093675103776 157.97972705059425,29.4144974291911 158.76575627048223,29.02929105658249 159.75219691403572,28.564267147296512 160.54863711691684,28.19988274062251 161.3077712972722,27.675863260955765 162.2838009577291,27.019971329077013 162.49809369206943,26.919331826258187 162.88243248286105,26.82910330648424 163.53138375927313,26.770107736051756 164.21070040295115,26.73887478681371 164.67485673042012,26.742345114443623 165.13988063970612,26.842984617210735 166.19052234536966,27.137962470200534 167.18130089842174,27.436410650768533 167.8345900845393,27.655041294659167 168.3195683780463,27.8944939048464 168.84011753029,28.029836684481467 169.55760777841417,28.244997000742188 170.2126321283208,28.418513384823417 170.8485696759785,28.57120780265976 171.46195009370564,28.80024942954356 171.99985088446084,28.99458777986967 172.3781166017062,29.067464661028648 172.70345982185853,29.098697610266694 173.10341508711403,29.098697610266694 173.72633890596563,28.97723614156497 174.0586227814812,28.81760106821024 174.49241374168426,28.57814845802301 175.248077594358,27.98125209688701 175.51963073549683,27.72097752076517 176.11912984244577,27.203898696254825 177.1966665875902,26.197503668325147 177.40488624848766,26.030927939607167 178.2880846434611,25.225811917521984 178.8754376036795,25.01065160136469 179.5877223602295,25.028003239876234 180.77630959123763,25.232752572885236 181.3948955004872,25.493027149007077 182.4273179857188,26.169741047182423 183.46928387217827,27.502346876874537 184.3516146852313,28.93212188170385 184.48261955516094,29.306917271215877 184.5225283234996,29.435319395435986 184.6917067980305,29.973220186191213 184.73682105783993,30.670756050146036 184.56937774720154,31.798612546674015 184.81143310299484,32.523911032081834 185.10033788259352,33.22838755155504 185.49161732859326,33.64135654546151 186.14490651471078,33.8391652232624 187.1356850677629,33.85651686177395 187.926919779225,33.65176752860981 188.73810887475304,33.398433607696084 189.61610177820404,33.07569313340842 190.61815889627312,32.607198896337394 192.10345914400844,31.902722377226173 193.29291395688526,30.955322919987537 193.70588295099856,30.62564179033663 194.81725539114225,29.181985474729107 195.45926601213938,28.352577158769126 196.1273040908521,27.471113927791627 196.68776201143447,26.489011193685034 197.05127883618806,25.815767623605005 197.26470398850455,25.506908459940423 197.9067146096568,24.274942132860282 198.29539130994704,23.77174461912815 198.60858838326536,23.514940370429372 199.0536579084337,23.407360212454147 199.4935219420279,23.4594151276268 199.89174204354603,23.789096257432846 200.89379916161514,24.788550629895852 201.80042226843955,25.652662222361805 202.41033235843335,26.058690561267014 203.07837043714605,26.33284644811535 203.7455409339901,26.45777824444699 204.54284871879162,26.509833159929915 205.8555001643661,26.55147709185085 206.69358429947843,26.731934131295326 207.24970431045878,26.94015379239965 207.7902078469235,27.276775577413805 210.15957407150094,28.88700762158417 210.76948416159817,29.13687121471285 211.593686985984,29.494314965868465 212.96186367441277,29.928105926071535 214.13743717656308,30.19879148549681 214.8878955377144,30.28554967753742 216.21095796633375,30.295960660478872 217.1652980787805,30.15367722563569 218.74082684634146,29.844818061971104 219.6804180660896,29.681712660676194 220.08124091331723,29.69212364382449 222.3100588667889,29.456141361577444 223.47522138594604,29.45267103394753 224.95444856023852,29.43184906770265 226.79632497720903,29.53248857046976 228.4612146825201,30.05650805049849 228.66769917952507,30.122444276397644 229.29843123566033,30.514591304576356 229.60729039942834,30.80262850184092 230.07665221831635,31.364821586470946 230.35167568708508,32.187289247067675 230.35688117855582,32.55167365353483 230.30222351757024,33.00628657987936 230.41847949490466,33.27350181136445 230.6631375964592,33.6066532688004 231.07090109910177,33.94327505381456 231.51250029653679,34.13067274862229 231.96190773130718,34.23131225154453 232.40958000223674,34.30765946048856 232.9257912449818,34.123732093259036 233.39081515426778,33.790580635978216 233.49839531234645,33.69688178841922 233.62853260040737,33.51989507675979 234.0883510182226,32.628020862633996 234.16383064529794,32.41286054616642 234.17163888263332,32.3052803881912 234.16730097297958,32.15605629798477 234.19593117635296,32.15952662540783 234.62798697276693,32.20811121300228 235.2040613678649,32.312221043554445 236.07164328827105,32.50308906614722 236.43082220331917,32.63496151799724 236.6746127229533,32.746012003757514 236.8446587793529,32.91605806005369 237.0407322933647,33.186743619323835 237.19776462100992,33.453958850653784 237.65671545690475,34.363184703446265 237.71657860936108,34.45688355085013 237.88575708384028,34.74839107605488 238.33429693669024,35.2724105560319 238.60671765969778,35.525744476790486 238.96069108322348,35.83113331277345 239.089960789364,35.938713470748674 239.20101127522767,36.00117936891449 239.31119417906754,36.00464969685468 239.42224466487954,36.00464969685468 239.8942092296322,35.876247572582855 240.3436166644543,35.80337069111361 240.54316050604427,35.78601905291233 240.77654004268524,35.813781674261904 241.1296458842388,35.879717900316194 241.25023977122697,35.91095084924397 241.4827517258441,35.959535436993555 241.72827740931905,35.98382773055808 241.96859760127154,35.95259478147517 242.20718262938323,35.88665855573115 242.43188634682014,35.78601905291233 242.796270753339,35.63332463497256 243.1467738491831,35.4632785783144 243.38709404118728,35.36957973091054 243.49467419931764,35.35222809270926 243.8720723346426,35.18565236399128 243.96230085436486,35.133597448508354 244.13581723844607,35.026017290688266 244.3075984586865,34.97743270309381 244.42558959986172,34.96702171979038 244.54531590487778,34.973962375153626 244.76828445852559,35.03989860125963 244.88974592727902,35.07807220570579 245.07367329440513,35.1231864655152 245.30878799483517,35.18565236399128 245.49011261625176,35.22382596848915 245.7191542431873,35.258529245150264 246.06792217519055,35.29323252201822 246.244041305033,35.310584160529764 246.47742084167396,35.317524815893016 246.59194165511585,35.33487645419771 246.6249097680913,35.34181710961268 246.84874590355608,35.32099514331608 247.07518478478207,35.26894022829856 247.41007140611055,35.18218203625795 247.7440904454152,35.088483188854084 247.97313207240242,35.08154253349083 248.1969682078672,35.08501286106904 248.43121532637687,35.10930515478869 248.65331629805254,35.15441941475324 248.87454968775612,35.22382596848915 249.28057802645446,35.379990714058835 249.13135393619632,35.511863165908856 249.04806607183733,35.612502668831105 248.9422210775478,35.813781674261904 248.88062276114724,35.88665855573115 248.8034079702311,36.0567046118722 248.72359043355374,36.41761869076115 248.71231186858844,36.972871120027925 248.62989158614988,37.58711911952033 248.56048503251736,37.76757615896481 248.51537077265627,37.85433435100543 248.25856652421604,38.20830777453113 247.74669319122813,38.749678893071405 247.55061967721633,38.93013593251588 247.33892968858552,39.2112324744172 247.28253686375913,39.377808203290314 247.2487011688633,39.634612451627106 247.2495687507837,39.898357355533996 247.3163725587067,40.15169127629259 247.54020869417147,40.50566469981829 247.6694784002603,40.67571075611447 248.1362374734905,41.140734665555584 248.43902356366053,41.39059825873598 249.04199299834278,41.925028721551016 249.41592080608953,42.32411640488613 249.53998502075933,42.51498442732377 249.66838714487602,42.9071314556059 249.69007669288618,43.1743466871427 249.65624099799032,43.27151586196963 249.5495284218321,43.458913556777354 249.15304348420648,43.81288698050991 248.69148990249872,44.159919748672365 248.49715155232772,44.3438471155399 248.3765576653913,44.60065136423868 248.35747086319407,44.781108403683156 248.46505102132443,45.05873461816141 248.62642125846824,45.232251002242634 248.84071399280856,45.402297058538814 249.32655986828772,45.62092770242945 249.57729104323337,45.69727491168375 249.81153816174302,45.77015179294615 249.92692655715703,45.85343965725343 250.04405011641188,46.030426369067996 250.0622693367404,46.12759554394663 250.02236056840172,46.22476471913554 249.80286234259069,46.47462831210909 249.4688433031826,46.83554239099804 249.21117147282197,47.17563450379725 249.12094295309973,47.345680560455406 249.01943586851564,47.60595513657725 249.0437281622353,47.86275938475891 249.13222151806502,48.03974609678032 249.2849159360565,48.22020313606966 249.84537385663887,48.67481606220734 250.19414178869386,48.92467965533602 250.38240706537027,49.105136694987344 250.48998722355233,49.28906406185488 250.50994160766996,49.46258044593611 250.4570191105769,49.63956715795752 250.32254391286224,49.75755829908105 250.0770182293873,49.944955993733636 249.8054650883002,50.0941800840952 249.47578395854586,50.229522863575134 249.36386589081346,50.25728548518327 249.00468697581704,50.36139531573543 248.69235748441912,50.475916129125615 248.41993676141158,50.61472923633888 248.19870337175973,50.71536873926113 247.7024465132874,51.04852019654195 247.44824501055672,51.31226510044884 247.35454616315286,51.489251812263404 247.35107583547122,51.58642098714205 247.42308513486492,51.680119834545906 247.54107627604017,51.739115405288665 247.89157937198766,51.73564507750361 248.1362374734905,51.66970885170788 248.4928136427257,51.496192467626656 248.83464091941744,51.458018862870226 249.0853720943631,51.52742541655443 249.31961921287274,51.66623852397455 249.6657843991665,51.943864738607935 249.8228167267083,52.110440467325915 250.03016880568538,52.46094356291143 250.09436986779542,52.66569289607557 250.1186621615668,52.87044222939484 250.11605941580558,53.845604308138185 250.03884462499286,54.137111833342935 249.80025959688118,54.76177081593193 249.72825029738405,54.848529007972544 249.31528130332242,55.216383742276456 249.1122671339474,55.46624733525 249.0020842300041,55.650174702479525 248.8476546481718,55.94862288304753 248.619480603105,56.233189753044165 248.53966306642764,56.42752810306 248.53098724727528,56.51775662288566 248.55527954099495,56.604514814926276 248.61427511163427,56.69821366233014 248.72185526976463,56.791912509578864 248.83897882896775,56.84743775253657 249.07322594752912,56.889081684922914 249.1981577440159,56.871730046411365 249.54345534838924,56.66351038530705 249.65190308844,56.61492579802286 249.91131008264145,56.48305334586257 250.13514621810623,56.41711712006684 250.36765817277507,56.36853253267923 250.53510148336176,56.31647761714459 250.7103530313355,56.29218532342493 250.94807047747506,56.21236778674756 251.54409925679408,56.066614024171045 251.6620903979693,56.0492623856595 251.90501333568304,56.0492623856595 252.13405496267026,56.09784697325396 252.4377086348124,56.174194182456546 252.75090570807902,56.28871499584673 252.8914539791848,56.358121549375795 253.000769301156,56.437939086208296 253.04154565146678,56.54204891676046 253.04328081525588,56.73291693899125 253.00770995651922,56.78497185437075 252.89752705267938,56.85437840789982 252.7743304199817,56.875200374144704 252.1843747140538,56.88214102955966 252.12971705306822,56.899492667709225 251.92236497409115,57.1285342949033 251.8442826012546,57.22917379772212 251.79396284987104,57.329813300334095 251.773140883833,57.538032961231565 251.79656559563227,57.63520213626534 251.89633751653068,57.78442622647177 252.12971705306822,58.058582113475246 252.337069132097,58.2806830849958 252.5383481375795,58.454199469077025 252.67889640868532,58.54095766111764 253.0181209395641,58.68324109611596 253.26277904117035,58.728355355925366 253.38771083765712,58.721414700562114 253.57163820478323,58.686711423901 253.850999583154,58.60689388722364 254.09739284860106,58.53748733369457 254.37154873539768,58.492373073678316 254.4990832777491,58.488902746100116 254.61186892735017,58.530546678331326 254.67780515330105,58.57219061020055 254.77410674651784,58.67283011312279 254.79666387639668,58.721414700562114 254.8105451872266,58.75611797743007 254.82008858829937,58.89493108464334 254.79232596684636,59.05109583057501 254.70383261091322,59.259315491162205 254.63702880314537,59.359954994084454 254.5988551985441,59.40506925410071 254.45917450941042,59.59940760396141 254.31342074673046,59.956851355427304 254.2422790293089,60.2552995359953 254.25876308574487,60.40105329857182 254.30908283712844,60.51210378448723 254.4270739783554,60.65785754711546 254.61013376350937,60.789729998810344 254.74634412501314,60.85566622491635 254.88428965035772,60.886899173999254 255.06301152601307,60.90772113993387 255.38488441848375,60.914661795297114 255.50808105118142,60.94936507232021 255.67899468944972,61.02571228121253 255.86205447470712,61.15411440548434 255.90977148027775,61.20616932081214 255.98264836159188,61.34151210013694 256,61.51502848421816 255.93579893788996,61.66772290236478 255.8577165651051,61.76489207734684 255.8160726328739,61.8100063373631 255.66337821493414,61.94881944442123 255.2183086897658,62.240326969781115 255.1202719327599,62.337496144970025 255.04305714179202,62.48324990754655 255.01702968417985,62.59083006572862 255.0092214469479,62.75393546666155 254.99881046385133,62.96909578297399 254.91812534530527,63.16343413298982 254.82442649790138,63.26407363591207 254.69689195554997,63.357772483315934 254.5858414697897,63.4132977261185 254.22753013666198,63.50699657372921 254.12515547000234,63.60416574855614 254.05054342489913,63.749919511339506 254.01236982034953,63.909554584849374 253.93949293903543,63.909554584849374 253.86921880348254,63.878321635559615 253.63410410305247,63.71174590689335 253.5256563630017,63.652750336150596 253.05282421643207,63.357772483315934 252.71012935787164,63.21895937594753 251.9136891549388,63.08014626888939 251.30117631908035,63.01421004278339 250.85523921204333,63.03156168129494 250.44227021787827,63.0558539750146 250.2548725231223,63.07667594094921 249.91044250066932,63.12873085648385 249.5261037099294,63.15302314999666 249.4827246139091,63.156493477626576 249.4688433031826,63.19119675464967 249.37948236538077,63.51046690115228 249.31614888519113,63.913024912272434 249.31267855750949,63.95813917223698 249.27884286266536,64.13165555631821 249.17733577797785,64.2600576804349 249.00902488536735,64.36416751098706 248.72445801547414,64.48215865211057 248.50235704390187,64.56197618894308 248.44769938291628,64.56891684415119 247.86294916851085,64.48909930747382 247.2625824796932,64.46133668617597 246.67869984715648,64.45439603060586 246.2613929434411,64.48215865211057 246.08440623167826,64.48215865211057 245.9750909097588,64.49603996283707 245.85536460474276,64.53421356728323 245.62719055962424,64.64873438098368 245.52308072922722,64.73202224508412 245.41550057104513,64.86736502471919 245.36171049197995,65.0061781320876 245.25152758814008,65.19010549916199 245.17431279717223,65.32544827864191 245.03723485374806,65.45732073080221 244.97563653739923,65.48855367972997 244.8029877352384,65.55796023362103 244.4351330010379,65.70371399604241 244.20522379207858,65.78006120508986 243.8581910239161,65.86681939713048 243.62307632348606,65.89458201863519 243.24307544234816,65.90846332920655 242.99060910350997,65.9258149677181 242.45010556714865,65.97439955531256 242.39284516040186,65.98481053840914 241.81156527367804,66.11668299031088 241.51311709305833,66.20344118235148 241.3968611157239,66.19303019904805 241.22421231356307,66.15138626712712 240.63946209926107,66.04380610884162 240.4633429693669,65.99522152124716 240.03996299231213,65.91193365714673 239.80137796420044,65.87376005249374 239.44046388520806,65.83905677567749 239.20101127522767,65.82517546510613 238.83402412284417,65.78006120508986 238.52950286878163,65.73841727306551 238.34817824752017,65.73841727306551 238.22151128708916,65.75576891121507 237.6072632873899,65.8702897247604 236.99995594310562,65.99869184918735 236.39872167231587,66.14097528403053 236.1653421356749,66.18608954383994 235.8703642827368,66.27978839108867 235.80789838446756,66.30061035733355 235.23876464473287,66.48800805219298 234.95419777478793,66.60252886553147 234.92903789909616,66.66499476385242 234.21935588825565,67.48746242444915 233.99204942510923,67.46317013057435 233.6901309167562,67.47705144130084 233.38907999037525,67.57422061648975 232.73318805859992,67.78244027738724 232.65423810384297,67.78938093280219 232.504146431561,67.88307978020606 232.00615440924787,68.15723566689925 231.59578816089578,68.30298942963091 231.45090198029138,68.35157401707023 231.37976026271465,68.40015860466468 230.72647107664883,69.18098233303022 230.44537453448896,69.50372280731787 230.19464335943988,69.82993360954572 230.04975717873205,70.01733130419831 229.92135505456363,70.07632687509619 229.73482494162462,70.13879277326201 229.61423105473986,70.23596194839921 229.5335459360904,70.3608937449377 229.37304328081527,70.56911340568003 229.18564558600752,70.75998142811767 228.97395559748014,71.04107797032925 228.12893080695287,71.97459611668626 227.637879440003,72.52984854595303 227.3108010560616,72.91852524629499 226.95509246864336,73.44254472616858 226.75901895463156,73.89368732488319 226.65577670610324,74.31706730178283 226.64189539542846,74.73697695141453 226.7069640394589,75.14300528995776 226.31568459330404,75.1950602054924 226.18554730524312,75.1950602054924 226.1543143561602,75.19853053291547 226.09878911320249,75.21935249921206 226.0727616555903,75.23323380993855 226.04846936181895,75.25058544829497 225.89577494382746,75.43104248773945 225.87755572349894,75.45186445367406 225.76737281965907,75.51433035199501 225.51490648082088,75.62538083775529 225.4463675091088,75.63926214848178 225.34486042442128,75.64273247626683 225.06116113639675,75.60455887182067 224.78874041338923,75.5247413351433 224.75750746425462,75.51780067978005 224.7262745151717,75.50738969663176 224.67421959989562,75.4796270753339 224.46860268475936,75.33387331255054 224.25430995041904,75.20894151606376 224.06257434600928,75.05277677049408 223.86389808623628,74.8862010417761 223.6513405157368,74.75432858992608 223.4413856909985,74.62245613771408 223.20974131825005,74.50793532437561 222.94252608676496,74.42117713233499 222.68051634685403,74.35871123416918 222.3812005842622,74.34482992323582 222.09229580476696,74.35524090622899 221.80772893487375,74.36912221711061 221.5179565734581,74.40382549382345 221.48498846048267,74.4107661491867 221.19868642680035,74.45241008157303 221.13795569232022,74.46282106451449 220.90457615573095,74.47670237529269 220.60786313895207,74.46976171992945 220.32416385108266,74.43505844290635 220.0491403822622,74.40035516634866 219.7810575688567,74.34482992323582 219.5112395915587,74.27889369749181 219.24662710588655,74.21642779917086 218.96119265407293,74.1574322284281 218.6913746767749,74.07067403638749 218.4926984170019,74.02903010431142 218.28621391994523,74.02555977657808 218.2549809708106,74.02555977657808 218.20205847371756,74.04291141508962 217.93484324218076,74.13313993486358 217.9088157846203,74.14008059022683 217.84808505014013,74.14702124564178 217.82032242868715,74.14702124564178 217.78995706152463,74.15396190100503 217.7162125982384,74.16090255621314 217.65461428188956,74.1678432115764 217.62598407851615,74.1678432115764 217.59648629322234,74.1678432115764 217.48196547978046,74.1713135391546 217.45420285827575,74.1782541947247 217.42557265490234,74.18866517751101 217.39954519734187,74.20254648839264 217.34141720867467,74.2233684545341 217.07506955905828,74.3066563189448 217.0056630055292,74.32053762972302 216.97095972860953,74.33441894029437 216.6976714237333,74.41423647712688 216.60136983051652,74.43158811527644 215.54986054298428,74.76126924528933 214.445428758359,75.0493064425539 213.72273301866068,75.12565365160135 211.71861878247077,76.1424596625759 211.51473703117534,76.21186621610497 210.81026051180555,76.45131882608536 209.0343203207859,77.00310092756708 208.83477647909248,77.50629844135092 208.7549589423634,77.64858187634924 208.8234979140755,77.73186974044967 208.83390889712038,77.79086531134756 208.7775160723457,77.88109383081124 208.61788099899096,78.08584316397537 208.40619101036015,78.30447380817628 208.2283367167286,78.41552429378142 208.04180660378958,78.46410888137588 207.90819898804702,78.58557035028444 207.7780616999861,78.87707787564433 207.6253672819946,79.08182720880846 207.65399748536802,79.23452162674823 207.79541333839424,79.6197279995637 207.83705727062542,80.03963764898856 207.94203468299457,80.34849681239459 208.05308516875485,80.65041532074763 208.15025434384034,80.77187678981133 208.3272410556032,80.88292727551989 208.5285200611891,80.96274481219726 208.71591775599686,81.08767660889087 208.85906877281215,81.23690069909732 208.89897754115083,81.38959511688195 208.8781555751128,81.61863674392087 208.77664849037356,81.90667394170256 208.6213513266726,82.17735950076585 208.58838321364544,82.31617260803084 208.59185354132705,82.4758076815407 208.5840453040434,82.71178996378775 208.51984424193336,83.14211059620577 208.52331456961497,83.24622042675793 208.5241821515871,83.28439403104895 208.5961914509808,83.50302467524985 208.60833759781477,83.52731696881438 208.61961616278006,83.60019385012849 208.6248216543025,83.81188383865587 208.60920517973517,83.88476072012513 208.54847444530677,84.10339136401576 208.46258383523826,84.3185516803282 208.36801740586228,84.53371199664063 208.30034601612232,84.75234264053127 208.23961528164216,84.97791393994028 208.2326746262789,85.00914688886806 208.22399880712658,85.0369095105279 208.11988897667783,85.18613360073434 207.98281103330538,85.36659064002367 207.81016223104112,85.55745866277158 207.60975080747903,85.73097504685282 207.54207941763565,85.75526734057247 207.50130306742827,85.78650028965538 207.47354044592356,85.80038160022674 207.23755816362478,85.92531339686865 207.12390493199987,85.97736831224816 207.09527472862646,85.99124962297465 207.06664452525308,86.00513093354601 206.85148420899236,86.15782535169264 206.8020320395292,86.19946928387213 206.64847003966904,86.32787140783367 206.43157455956748,86.47015484283199 206.38472513586555,86.50832844727815 206.36650591553703,86.53262074115295 206.35088944091802,86.55691303487261 206.33874329403233,86.58467565653245 206.22682522629992,86.79636564505984 206.16002141848037,87.00111497822397 206.08540937327373,87.20586431154325 206.03075171239158,87.40714331707747 205.96655065017808,87.61189265008647 205.9422583564067,87.72641346378693 205.95787483102575,87.88951886456472 205.97262372367265,87.91728148622457 205.99171052586988,87.94157378009936 206.1496104354355,88.12897147475195 206.17737305683679,88.18449671770965 206.18431371220004,88.21572966679257 206.18604887609254,88.24349228809042 206.1921219495354,88.4760042429144 206.19993018681905,88.70851619768668 206.21467907946595,88.85079963237472 206.3057751810569,89.06943027662734 206.3352729663507,89.1076038810735 206.38298997197305,89.13536650237135 206.41248775726686,89.14230715788975 206.5625794294971,89.43381468293936 206.92089076262485,89.68714860369795 207.0987450563081,89.85372433241592 207.3260515194545,90.353451518725 207.47701077360517,90.78030182356481 207.4527184798338,91.02322476133024 207.38938499969586,91.19674114541148 207.23755816362478,91.32167294174312 206.3873278816268,91.86304406007655 206.2780125596039,91.93245061396759 206.00559183659638,92.08167470417402 205.8268699609927,92.18231420694113 205.68198378028487,92.2933646927014 204.99746164508443,92.84167646624294 204.88988148695407,92.92843465828356 204.82654800681615,92.8902610538374 204.81440185987873,92.84167646624294 204.7640821084952,92.72368532511943 204.72590850399732,92.69592270382157 204.59924154372143,92.72715565290447 204.41010868502119,92.81044351716004 204.20796209756656,92.86943908790279 204.01188858350307,92.87985007099938 203.9875962897834,92.89373138177758 203.96764190556235,92.91455334755706 203.90777875310604,93.04295547198402 203.82275572485452,93.25464546051141 203.8019337587648,93.31364103120245 203.78631728419748,93.34140365255202 203.77850904696552,93.38651791236143 203.79499310340154,93.43510249980075 203.82362330677492,93.45939479367554 203.84271010907557,93.48021675992042 203.93987928410937,93.5739156073243 204.01015341966226,93.61555953924523 204.03965120495607,93.62944085012685 203.95115784912636,93.73008035294568 203.81841781535593,93.95565165204442 203.59978717131014,94.45190851056846 203.53905643693344,94.59072161793686 203.45316582681323,94.56295899632873 203.32563128451352,94.54560735797232 203.2805170246007,94.56989965169197 203.1972291602417,94.65665784373259 203.17553961223155,94.70177210385226 203.1148088778031,94.85793684947366 203.02458035808087,95.05921585485275 202.85193155597176,95.29172780967673 202.7469541435509,95.4166596061635 202.58211357877718,95.47912550448446 202.34092580480083,95.59017599024473 202.25069728507862,95.7741033572674 202.14485229078906,95.99967465672813 202.1379116354258,96.06908121025721 202.1379116354258,96.13154710842302 202.1231627427789,96.19748333452903 202.05375618919814,96.25300857748672 201.93489746610248,96.4022326678483 201.69197452838876,96.7180324867727 201.56704273179858,96.7978500236052 201.37270438162759,96.85337526640778 201.02914194114678,96.87072690486761 200.58580757987093,96.91584116472873 200.3654417720878,96.98177739047274 200.0852128117449,97.10323885938132 199.49872743355033,97.38780572937796 198.88187668814157,97.68625390979082 197.82082399953657,98.20333273440458 196.53420001157428,98.81758073425898 195.7889471419454,99.17849481314794 195.44711986525368,99.39018480152018 195.20506450946036,99.63657806707066 195.0280777976975,99.94890755821002 194.98469870167722,100.27511836043787 195.01593165086354,100.45904572746055 195.01679923273224,100.49721933211354 195.03588603498116,100.61521047339221 195.08273545868312,101.04553110565509 195.01246132323362,101.24681011139616 194.80163891652322,101.49667370436971 194.42510836301526,101.93046466457278 193.9783036740578,102.34343365884124 193.36839358396057,102.32608202032968 193.03871245430966,102.30873038181814 192.61446489517937,102.18379858533137 191.83971424020496,101.94781630308432 191.29834312187154,101.84023614474711 191.01030592434842,101.74306696992018 190.80468900926388,101.68060107159923 190.21646846712508,101.31968699250343 189.81651320186955,101.10452667639784 189.41742551843103,101.06635307174484 189.06431967682573,101.06635307174484 188.64093969966754,101.17740355766024 188.17071029880742,101.22945847288462 187.65363147424534,101.12187831485768 187.290982231619,101.12187831485768 187.22504600561643,101.14617060842221 186.72358365556997,101.43073747826371 186.2481487631874,101.61466484549322 185.8768237013053,101.74306696992018 185.44910581449335,101.69101205438554 184.85307703517435,101.59731320698168 184.20065543102893,101.52790665345262 183.66275464037713,101.61466484549322 183.03462533000308,101.68060107159923 182.45247786141056,101.77777024642616 181.78357220077743,101.88535040476337 181.24914173785896,102.02763383976169 180.8847573312884,102.0935700655057 180.51169710551375,102.08315908271939 180.27831756887278,102.0588667888446 180.07356823565695,102.03457449512493 179.8705540662819,101.94434597514413 179.32310987455733,102.05539646105954 178.73402175060158,102.16297661934505 178.67676134380307,102.17338760218307 178.74356515167432,102.97850362426826 178.8242502703238,103.25265951111659 178.8242502703238,103.58234064092264 178.76178437200286,103.80444161275345 178.5535647111571,104.0022502903992 178.21173743446536,104.17576667448043 177.8612343386213,104.30069847112235 177.57146197720564,104.21741060671164 177.34762584174086,103.90508111557227 177.43351645186107,103.48864179351877 177.64954435009392,103.16590131907599 177.71808332180598,102.92644870925074 177.65995533313878,102.56206430273187 177.41356206769171,102.29484907124677 176.94767057648534,102.18726891290957 175.8683986674484,102.09009973808264 174.9314101934615,101.91311302606123 174.4672538659925,101.57302091326203 174.06990134649817,101.04553110565509 173.84172730137965,100.70196866543282 173.69423837496234,100.5353929365597 173.3246484768176,100.50068965969174 172.8275240364766,100.56662588579775 172.32866443224307,100.74014226987897 171.9087547827665,100.94836193077646 171.4740962405913,101.25028043881923 171.1036387605779,101.64936812251632 170.7088889868448,101.91311302606123 170.1571068854148,102.21156120662923 169.99573664821926,102.27055677737198 169.24788103288088,102.54818299200537 168.0514855646408,102.80498724018703 167.0468257008105,103.06526181630886 166.2573261531892,103.39147261869185 165.94065875229268,103.85996685540088 165.83741650371263,104.53668075336938 166.13326193857114,105.34526710323962 166.30244041310203,105.91440084307776 166.5219386389648,106.03933263956452 166.06559054877945,106.37942475251887 165.5502468881099,106.5390598258736 164.38248162324325,106.65358063921207 162.56055959039037,106.64316965621892 162.27512513857675,106.63275867327746 162.01918847200523,106.4870049104941 161.79448475467174,106.42453901217314 161.6036167321307,106.41759835680989 161.37197235948568,106.47659392750093 161.06484835955848,106.59805539625437 160.77767874390406,106.75074981440098 160.6293222355146,106.92773652621554 160.45580585143338,107.17760011924081 160.35516634871797,107.34070552017373 160.25452684595086,107.43093403994769 160.08881869910158,107.48992961038016 159.74699142246155,107.59056911314728 159.3400955018428,107.71550090994432 159.24032358094436,107.74326353129389 159.07808576182842,107.83002172333451 159.0034737167252,107.89942827686357 158.874204010533,107.80225910198493 158.69895246261095,107.95495351982127 157.3351136837325,107.86472500015076 156.0632385884171,107.78143713574005 151.978662907145,107.05613865017709 150.70852297567043,106.67787293293173 150.48295167641655,106.67440260545696 144.39165901324506,106.58764441341634 140.95343186262383,106.51129720421375 139.47246952454225,106.4870049104941 137.781552361619,106.45577196125605 137.416300373128,106.4488313058928 134.8265683407674,106.39677639087527 132.09108254577856,106.34125114807271 130.9398013372962,106.35166213085903 127.69938286457928,106.37595442457868 124.89188777014502,106.36207311385219 124.06247945423675,111.90071609388009 123.96704544304379,113.10839012724058 124.00608662941035,113.26455487281025 124.1396942451529,113.58729534709792 124.38782267438906,114.00720499672963 124.62554012063204,114.33688612638053 124.93006137464289,114.73597380987077 124.63681868559732,114.91990117679003 124.3383705049259,115.01707035213408 123.97745642603695,115.11770985474605 123.82389442612507,115.18364608085206 123.67900824546895,115.27040427289268 123.56622259581614,115.19058673621531 123.38142764676964,115.1350614932576 123.1332992175852,115.0795362502999 122.52599187330091,114.83661331268961 122.23708709370224,114.71862217135923 121.76338736516048,114.29177186657112 121.41288426931641,114.04884892890912 120.88365929792037,114.13560712094973 120.85416151257485,114.14948843172795 120.57566771612449,114.22236531299035 120.29717391967411,114.26400924491128 120.01868012322375,114.27789055579291 119.73931874485297,114.30218284966772 119.4608249484026,114.30565317729763 119.18146357008354,114.30565317729763 118.90210219166104,114.25359826191811 118.62187323147329,114.19807301911555 118.4544299207832,114.17031039750742 118.17593612433282,114.17725105287066 118.01022797753525,114.19460269138222 117.9590406442313,114.21195432989376 117.93474835045991,114.22236531299035 117.71004463307473,114.34382678158865 117.46798927728142,114.44446628435576 117.21812568420445,114.53469480433655 116.9986274583417,114.60757168565067 116.80602427201153,114.7602661034353 116.67154907429686,114.94072314287978 116.56136617050872,115.14200214862085 116.4494481026729,115.34675148178499 116.36616023841734,115.41962836309911 116.33926519878132,115.4335096738256 116.08940160570435,115.50985688271791 115.89332809169257,115.52026786586622 115.6139667133735,115.5167975382363 115.3337377530306,115.46127229512346 115.05437637465982,115.38839541401619 114.77414741436864,115.31551853270207 114.57286840888614,115.24958230659608 114.38113280447638,115.18364608085206 114.14862084975583,115.14200214862085 114.09743351645186,115.14200214862085 113.94387151659168,115.14894280382896 113.89615451096935,115.16282411455546 113.80852873695662,115.20099771900162 113.77122271437915,115.22529001272127 113.67752386697529,115.28428558346403 113.54478383315315,115.3675734477196 113.34437240953933,115.5167975382363 113.15350438704998,115.69378424994744 112.95309296348788,115.86383030639875 112.79866338160387,116.0512280012582 112.69195080539392,116.25250700648215 112.6615854381797,116.2837399557202 112.48459872641685,116.4780783060463 112.28158455704181,116.64812436239419 112.25815984519085,116.65853534554249 112.23126480565826,116.66547600090574 112.20350218420526,116.6689463283288 112.09245169844499,116.6897682946254 112.0638214950716,116.69323862204847 111.88943752901824,116.6828276390553 111.84952876067956,116.66547600090574 111.70551016194385,116.60648043000785 111.67167446699631,116.59606944701468 111.63610360825965,116.59606944701468 111.36975595874668,116.59606944701468 111.3315823541971,116.60648043000785 111.29427633167134,116.6134210853711 111.17541760852399,116.64465403476427 111.09299732608541,116.6793573114771 110.93943532622524,116.76611550351771 110.9082023770389,116.7938781249707 110.7485673037876,116.96045385353355 110.71646677262915,116.97433516441518 110.6808959138925,116.98474614740834 110.57938882920497,117.01597909649126 110.33126039996883,117.11314827168017 110.30089503275461,117.12702958225154 110.27313241130162,117.14091089313317 110.10655668258363,117.2207284296554 110.08486713457347,117.24502072353019 110.06578033232455,117.27278334519004 110.05016385780894,117.30401629427294 109.99550619682336,117.42894809075972 109.96427324763702,117.46365136742082 109.8350035414965,117.55735021503153 109.81157882969725,117.56776119781784 109.62418113488953,117.63369742392385 109.59815367727735,117.63369742392385 109.56865589193183,117.63369742392385 109.4818976998912,117.6302270961388 109.39947741750434,117.61981611335248 109.37258237792004,117.59552381947769 109.3396142649446,117.57123152575804 109.14267316906412,117.4254777631298 109.10796989219617,117.40118546925501 109.08107485271529,117.3526008818674 109.0524446493419,117.26931301724984 108.98911116910052,117.21031744686908 108.80865412965605,117.10273728853187 108.47029718074937,116.88410664464124 108.0365062205463,116.50931125497408 107.77536406245234,116.33579487089284 107.70161959921782,116.27332897272703 107.55326309082837,116.113693899424 107.5723498930773,116.02346537959835 107.65737292132881,115.9609994812774 107.89422278554798,115.83259735700557 107.98531888719063,115.77013145883976 108.03910896625581,115.65908097292434 108.04171171201703,115.56538212552049 107.94107220924991,115.45780196754527 107.68166521504848,115.31551853270207 107.53244112473863,115.24958230659608 107.30513466159222,115.14894280382896 107.16371880856602,115.10382854417469 106.99627549803105,115.0691252671516 106.86960853760004,115.0240110073422 106.81928878616478,114.98236707511099 106.80974538504032,114.91990117679003 106.80974538504032,114.86437593383232 106.83750800649331,114.80538036339985 107.0335815205051,114.60063103008058 107.13942651479465,114.36811907546344 107.15504298941367,114.19460269138222 107.15244024360074,114.12519613785315 107.02577328322144,114.01761597967108 106.86787337370752,113.95515008150525 106.67179985969574,113.92391713211208 106.50782687679069,113.90656549375566 106.33691323841897,113.93085778763046 106.031524402436,113.97944237506978 105.68709438008648,114.06967089489544 105.45197967965642,114.13213679321639 105.13010678718574,114.15989941451426 104.84553991724081,114.17725105287066 104.17663425671111,114.18072138081085 104.13932823408193,114.17725105287066 103.69686145462309,114.1390774484245 103.57106207616421,114.07314122247364 103.49211212145896,114.00373466878943 103.46868740955628,113.920446804689 103.43745446042166,113.76081173117915 103.43398413274004,113.63587993469237 103.42444073166727,113.52135912130218 103.45220335306857,113.28190651132181 103.45567368075018,113.02857259040807 103.4582764265114,112.95569570893882 103.40448634744622,112.82035292945889 103.18498812163519,112.50108278295627 103.02448546630833,112.31021476036351 102.88133444949304,112.17834230851349 102.76594605407902,112.11934673777073 102.37726935368536,111.92153805981471 102.15863870979473,111.74455134831042 102.00681187372365,111.66473381163306 101.78904881165,111.5918569301638 101.55480169319205,111.57797561959244 101.36827158025302,111.58144594701551 101.09151294764347,111.6022679133121 100.77658071053604,111.64391184533646 100.56489072200866,111.68555577756767 100.39137433792743,111.75843265903691 100.04867947931528,111.89377543867198 99.08479596574406,111.9041864214583 98.877443886767,112.053410511975 99.29822111816398,113.20902962985255 99.59059622534085,114.21195432989376 99.59059622534085,114.8123210188148 99.32511615774828,115.60355573027691 98.6362561128941,116.19004110831632 98.12264761601367,116.4364343738668 96.88981370711655,117.05068237351435 94.90391869135861,118.16465755931583 94.3955156859489,118.51516065490135 93.05423403700101,119.03223947972197 91.79450508862301,119.17799324214334 91.14902413978913,119.05653177338992 90.53130581245996,118.72685064373901 89.59084701073972,117.98767084729442 87.61709814181576,116.76958583109591 87.59280584804438,116.73835288216814 86.67056626665266,116.22821471276248 84.6950822339396,115.22876034066147 82.86361679991053,114.55551677027117 81.73489272151386,114.33341579859548 81.19438918504912,114.34035645395873 80.68685376171496,114.64921561783017 80.46995828161343,115.19405706363837 80.80310973894595,116.04428734584323 81.59434445035635,117.52264693800844 81.88932230334615,118.54986393192445 81.58913895883391,119.02876915178179 80.90027891403145,119.49032273359299 79.8340207338523,119.5770809256336 78.37648310762171,119.2231075021079 77.22693706308357,119.04959111802667 77.0751102270125,119.06000210101983 76.12597560603648,119.12246799918564 74.41163373131394,119.67077977308917 73.69240831929726,120.13927400995335 72.27564704327403,121.32265574943904 70.92482199320168,122.16594537597037 70.26372456990391,122.33252110468835 69.75011607297178,122.19717832536355 69.0864159039128,121.82932359095622 67.96376489885554,121.42329525236129 66.19389778127874,121.01032625814453 65.07211435814189,120.95480101534197 64.239235714552,121.1942536251672 64.0709248219932,121.33653706032067 63.23631101461421,122.04448390742378 62.89708648373541,122.7142571498739 62.94480348940946,123.84211364640188 62.640282235295196,125.02896571331063 61.89763211137583,126.34421990480146 61.265164891399756,127.20486116984435 60.701236643135765,127.93362998288208 60.37589342298347,128.63810650251042 59.94991070006405,128.992079925881 59.41721540093469,129.3529940046148 58.8827849379645,129.68267513442086 58.396071480668375,129.90824643388157 58.074198588197696,129.98806397050723 57.60570435112667,130.0505298688799 57.29424244175258,130.10952543926066 56.85958389962911,130.21016494202777 56.36940011454792,130.4461472245851 54.98300420573892,131.11939079466512 54.46592538117686,131.33455111097757 53.92542184481555,131.42130930301818 53.30770351743467,131.46989389061264 52.700396173150374,131.54624109950495 52.165965710180195,131.82733764187168 51.62112426416514,132.17437041003413 51.554320456293866,132.2021330313837 51.18646572204167,132.75391513286542 50.899296106438946,133.3542818217865 50.7526747618386,133.89912326774981 50.652902841043606,134.4439647138683 50.31194314627228,135.3150169616975 49.86513845731483,136.00561217059933 49.3532651242235,136.37346690469641 48.84052420926347,136.6476227913896 48.2210707181452,136.8280798308341 47.679699599760056,136.9807742489807 47.13138782606338,137.2549301356739 46.56659199587899,137.55337831655217 45.84649900194189,137.98022862123685 44.88348307034279,138.4487228583079 44.808871025136156,138.184977954401 44.71951008733432,138.03575386403944 44.70389361287043,138.01146157031977 44.572021160865276,137.82753420345222 44.424532234447945,137.6505474914308 44.30914383903393,137.47356077987482 44.18421204244373,137.29310374043033 44.15297909330911,137.24451915268074 44.11914339841327,137.1924642375081 44.057545082064436,137.09876539010423 43.884896279903614,136.92871933375633 43.802475997516744,136.88013474636873 43.67754420092655,136.79684688175118 43.656722234836806,136.78296557102468 43.602064573851216,136.758673277305 43.494484415720855,136.71702934507383 43.35914163624092,136.6684447576345 43.105807715430615,136.5851568932238 43.05982587359738,136.57127558265242 43.01644677757707,136.55045361635584 42.8915149810903,136.46716575194515 42.771788676022545,136.4012295261494 42.560098687495156,136.28323838487074 42.33539497010997,136.2034208481934 42.257312597221706,136.15830658838397 42.2000521904749,136.12013298378267 42.12977805497371,136.08195937949165 42.09680994199828,136.0646077409801 42.03607920762156,136.0194934811707 42.005713840303926,135.99520118745104 41.938042450563955,135.90497266778053 41.80096450713979,135.69675300688303 41.78101012291874,135.66204972985994 41.584069027038254,135.49894432892702 41.37845211185029,135.36013122166204 41.25004998763018,135.27684335725132 41.05571163751092,135.1380302501932 40.84141890311889,135.02350943649273 40.57854158128754,134.92634026145896 40.3182670051657,134.83611174184014 40.08488746852474,134.75282387737775 39.84109694894232,134.64177339146232 39.782101378303,134.6035997871713 39.63981794335639,134.50990093961232 39.41771697178413,134.3988504536969 39.3708675480822,134.38843947091058 39.27716870067834,134.367617504614 39.234657186526725,134.36067684925075 39.19735116400097,134.34679553867937 39.17219128830919,134.32597357253792 39.13488526568002,134.24268570812723 39.02904027139047,134.04834735811139 39.01082105106194,134.0136440810883 38.98739633926269,133.98588145979042 38.816482700890965,133.8227760588058 38.609130622017325,133.7082552453122 38.49894771802232,133.64578934699122 38.17707482555164,133.28487526805057 37.21839680350286,132.3305351556038 36.56771036319826,131.4317202859596 36.5295367587521,131.3970170092985 36.4601302050679,131.33455111097757 36.40373738029321,131.27555554023482 36.303097877474386,131.16450505447455 36.25364570801124,131.10897981167196 36.20072321091818,131.0534545688694 36.0202661714737,130.87646785705485 35.964740928515994,130.82788326930523 35.89186404720188,130.75847671593132 35.706201516286676,130.58496033185008 35.52400931294968,130.42532525834022 35.42423739215468,130.3489780494479 35.20820949392184,130.19975395924146 35.01126839804136,130.03664855794656 34.972227211623085,129.9984749535004 34.82040037555201,129.80413660348455 34.77094820603715,129.71390808350375 34.75099382191952,129.64103120234478 34.749258658026996,129.61326858073664 34.74578833034537,129.56121366571912 34.74578833034537,129.50915875033962 34.74665591226578,129.48139612904177 34.73450976538009,129.42934121366227 34.72670152819986,129.40157859236442 34.714555381262464,129.3772862984896 34.67464661287207,129.30093908959728 34.663368047906786,129.27664679587764 34.63994333615925,129.1655963099622 34.63473784453338,129.13783368861266 34.59743182195592,128.94002501065663 34.5792126016274,128.88102944012073 34.54450932481115,128.79774157581343 34.481175844621504,128.69363174531298 34.45514838706103,128.64157682993348 34.44386982209575,128.61728453636897 34.40743138143869,128.56522962104117 34.38660941534894,128.54093732716638 34.37012535880952,128.52011536123177 34.25213421768599,128.36048028787704 34.18793315557594,128.29454406177103 34.02743050024909,128.11061669490348 33.894690466478664,127.91974867231072 33.81140260211968,127.83299048027011 33.661310929837704,127.66294442392221 33.484324218074846,127.5033093506192 33.30386717863037,127.34020394932429 33.12774804883964,127.1736282206063 33.07395796977446,127.11810297780374 32.88569269304633,126.95846790450072 32.840578433133494,126.92029429984771 32.82235921280497,126.90294266169815 32.791993845642466,126.86823938467506 32.76423122413775,126.81271414171735 32.724322455799076,126.73289660503998 32.6713999586543,126.6287867747981 32.659253811768615,126.60449448092331 32.61240438806668,126.52814727187585 32.59158242197694,126.50385497800106 32.572495619728,126.45180006298354 32.56729012825728,126.42403744147883 32.56989287396678,126.28522433411042 32.561217054814435,126.22622876352281 32.53345443330972,126.13947057148219 32.51870554066282,126.0804750009463 32.476194026562915,125.90695861686505 32.36340837691012,125.70914993890904 32.17687826407451,125.52175224425645 32.15865904369427,125.5044006057449 32.01811077264019,125.34823586017522 31.995553642657917,125.32394356645555 31.96345311160289,125.27882930664614 31.94089598167233,125.22677439126664 31.923544343264208,125.18513045903543 31.9079278686969,125.13654587164784 31.879297665323495,125.08102062884527 31.864548772676592,125.05672833497047 31.774320252954354,124.9664998151448 31.751763123023792,124.9456778492102 31.564365428216067,124.78604277570032 31.477607236175455,124.74786917125417 31.350072693927466,124.70275491144477 31.31710458095203,124.69234392829647 31.287606795658224,124.68193294514818 31.25897659228482,124.67499228978492 31.080254716629444,124.62640770250074 31.04815418557442,124.61599671940415 30.849477925801413,124.5708824593879 30.71934063774049,124.55006049329815 30.423495202882,124.48759459513234 30.14500140643163,124.44942099068618 29.9836311692878,124.43553967990796 29.811849948995672,124.41471771366308 29.77627909025902,124.41124738624002 29.74331097728359,124.40777705829983 29.579337994326828,124.39389574772846 29.305182107478487,124.3557221432823 29.253127192305833,124.3383705049259 29.191528875956998,124.32101886625922 29.112578921200036,124.2897859171763 29.083948717774923,124.28284526196819 29.057921260214453,124.27937493433828 29.026688311028117,124.27937493433828 28.97029548620172,124.2689639512417 29.036231712204298,124.21690903586219 29.093492118951104,124.15444313754124 29.12038715843198,124.12321018845833 29.285227723360858,123.94275314901385 29.311255180973042,123.90804987230104 29.318195836336294,123.84211364640188 29.303446943689387,123.79352905880742 29.2218942431195,123.59225005337662 29.19239645782569,123.49161055045437 29.252259610333713,123.19316236973124 29.301711779796864,122.56156273172728 29.18979371206447,122.56156273172728 29.17244207365635,122.54074076579268 29.155958017220346,122.51991879965121 29.131665723397262,122.48174519504992 28.99719052573431,122.29781782818237 28.933857045544663,122.22841127429133 28.751664842259373,122.0548948902101 28.54865067293605,121.88484883391392 28.385545271899694,121.7564467096421 28.160841554514505,121.62804458537028 27.912713125226638,121.52046442723992 27.67239293327414,121.40594361390144 27.428602413640014,121.28448214483774 27.275907995700248,121.21854591904201 27.247277792326845,121.21854591904201 27.218647588901728,121.19772395279712 27.12841906917949,121.1456690377796 27.10239161161902,121.124847071483 27.01216309189678,121.05891084573899 26.991341125755323,121.0380888794424 26.94882961165542,120.99297461963299 26.928007645617384,120.97215265369837 26.90718567952764,120.95133068740178 26.88462854959708,120.93050872146718 26.837779125895146,120.89580544475434 26.79613519366394,120.85416151257485 26.74060995080966,120.78822528646886 26.639970448042547,120.67370447292353 26.48467328434156,120.4863067781158 26.465586482040916,120.46201448455128 26.409193657162803,120.36137498162903 26.30161349903244,120.1670366316132 26.26691022226791,120.09068942251403 26.254764075330513,120.06292680106104 26.24435309228564,120.03516417971146 26.219193216593858,119.99004991959178 26.20097399626533,119.87899943383151 26.23133936353126,119.71242370511354 26.249558583859788,119.50420404437119 26.222663544275484,119.37927224788442 26.189695431300052,119.26822176212414 26.098599329657407,119.15717127620874 25.991886753499163,119.06000210101983 25.86869012074978,118.93854063211126 25.685630335595796,118.77196490360012 25.566771612448445,118.6400924516984 25.46699969160174,118.50474967190819 25.402798629543398,118.32429263246371 25.342935476983662,118.10913231635813 25.282204742555233,117.8939720000457 25.216268516604366,117.75862922041063 25.10088012119035,117.5851128363294 24.998505454634138,117.44282940133108 24.872706076123535,117.2762536726131 24.80416710441145,117.15132187612633 24.71307100282052,117.19990646372078 24.715673748581736,117.15826253148957 24.69485178249199,116.49890027203263 24.699189692042307,115.75972047584659 24.722614403893274,115.22529001272127 24.687043545208333,115.03442199028365 24.597682607458214,114.87131658919557 24.48142663007208,114.70821118841778 24.296631681025573,114.55204644269297 24.046768087896893,114.35770809231514 23.84722424620348,114.1911323637523 23.72402761350581,114.06273023968733 23.693662246343308,113.87533254482788 23.68845675476916,113.79204468026205 23.6927946644229,113.72957878209624 23.774347364889366,113.42766027374319 23.773479783072386,113.26108454518034 23.698000155893627,113.10144947187733 23.56873044975311,112.90017046613626 23.309323455551677,112.48720147217807 23.163569692923446,112.2095752575964 23.08635490205901,112.10893575477758 23.05078404327065,112.01870723515876 23.026491749499275,111.71678872665058 22.99439121844425,111.32811202641204 22.979642325797347,110.9845495858795 23.010007693063272,110.85614746160769 23.061195026367233,110.77285959735212 23.214757026227407,110.66527943932519 23.59389032544489,110.45011912306447 23.698867737814034,110.39112355232172 23.92617420096044,110.26272142804989 24.073663127429484,110.12390832083662 24.293161353343947,109.85669308935152 24.473618392788424,109.6276514623126 24.710468257007587,109.37084721413093 24.99156479927089,109.07933968871934 25.33512723980343,108.77048052520989 25.591931488140222,108.53102791486752 25.77672643718673,108.36098185872649 25.843530245109715,108.27422366668587 25.90426097948643,108.05559302274352 25.97193236927811,107.79531844662168 26.016179047218824,107.55933616406436 26.082982855141807,107.44828567845923 26.26691022226791,107.30947257109082 26.416134312526054,107.15677815294421 26.572299058199157,106.87915193846595 26.640838029911244,106.70910588201464 26.6633951598418,106.58070375805309 26.642573193803766,106.41412802933512 26.633029792627585,106.2302006621573 26.64170561183165,106.09138755473718 26.691157781294798,105.99768870733332 26.80307584902719,105.92828215364912 26.945359283973797,105.8762272386316 27.136227306463148,105.76517675287133 27.309743690544373,105.64371528380762 27.458100198933824,105.49102086581614 27.53705015369078,105.37650005232253 27.58476715931312,105.23768694526439 27.595178142357994,105.03987826746351 27.57782650394987,104.74837074210362 27.57782650394987,104.36663469691807 27.570018266666214,104.14453372539752 27.518830933362253,103.9467250474415 27.46417327242838,103.82179325095473 27.323625001270873,103.55804834740982 27.138830052276077,103.19713426846916 27.046866368661313,102.96462231369689 27.052939442104158,102.61064889032632 27.077231735927242,102.02069318419159 27.13969763414477,101.3300979754966 27.13362456070193,101.29886502641368 27.145770707639326,101.26416174970086 27.182209148296383,101.19128486843846 27.15531410871208,101.08717503804144 27.129286651099896,100.87895537693711 27.09284821044284,100.65338407783837 27.093715792363245,100.44169408931099 27.11367017663601,100.2195931176353 27.134492142674045,100.00096247374466 27.20736902398816,99.78927248501043 27.215177261220106,99.76150986355744 27.218647588901728,99.62616708392237 27.218647588901728,99.40406611224668 27.213442097379293,99.18196514072613 27.18567947597801,99.0466223612979 27.147505871428425,98.82105106168204 27.144035543746803,98.71000057592177 27.1423003799577,98.48442927682302 27.105861939300645,98.25885797751742 27.058144933678307,98.03328667795327 27.05120427831506,97.922236192193 27.069423498643587,97.87712193253873 27.15357894487127,97.80771537885452 27.332300820474934,97.62725833935833 27.55526937401931,97.47109359378865 27.615132526579046,97.43291998903223 27.708831373982907,97.3496321249318 27.787781328688155,97.259403604951 27.904904887994697,97.06159492715011 27.918786198721193,97.00954001213259 27.923124108323226,96.98177739047274 28.360385396207917,96.74579510807057 28.71696156544313,96.56533806862609 29.083948717774923,96.44734692750256 29.440524887113558,96.30159316508119 29.90728396029206,96.14889874693456 30.230892016551838,96.0239669504478 30.277741440253767,95.95109006897854 30.42523036672281,95.75328139117765 30.551897327102107,95.57282435173317 30.688975270526278,95.37154534630238 30.73061920270577,95.31949043097458 30.753176332688042,95.29866846503998 30.91281140604277,95.18067732391646 31.11929590304772,95.02451257813992 31.284136467976598,94.93428405836598 31.43162539439393,94.86834783257025 31.49062096503326,94.8509961940587 31.518383586434542,94.84058521111724 31.619023089201654,94.73300505278004 31.65893185754034,94.68095013760738 31.802950456327757,94.48314145965136 31.955644874319237,94.29921409257697 32.01724319066807,94.24715917740431 32.075371179335285,94.2020449175949 32.25669580075188,94.03546918887693 32.27578260305253,94.01464722294232 32.3582028854394,93.872363787944 32.496148410783974,93.68149576535123 32.62368295303196,93.49062774275845 32.69395708863657,93.38998824014648 32.71304389088551,93.36222561848663 32.72519003771948,93.33446299718877 32.73299827500313,93.31017070346911 32.73473343889566,93.2130015282802 32.735601020764356,93.18523890698233 32.75989331458744,93.14012464712123 32.772039461421414,93.1123620255131 32.782450444466285,93.0880697316383 32.60980164230546,92.97701924587803 26.755358843456563,90.63107773335838 24.219416890057715,88.53847014123536 20.244156530808507,85.63727619944895 18.93410783094353,84.88074476480308 15.472455968574755,82.87836569245401 15.444693347173471,82.87142503709076 11.754867439582748,82.01425409967779 10.365001203143828,82.11836393022995 7.5982824589169455,82.32311326339408 6.828737295516703,82.21553310541886 6.004534471130873,81.96566951208334 3.7531593877286595,81.31324790798963 2.404069501445405,81.16749414551653 2.3520145862210367,81.09461726425413 2.278270123038227,80.96968546756051 2.2383613546995447,80.8968085862981 2.226215207762147,80.87251629257845 2.1168998857909735,80.67817794220062 2.1056213209291177,80.65388564868782 2.055301569442138,80.58100876721856 2.04402300452857,80.53936483498735 2.0284065299612597,80.49425057517794 2.018863128888504,80.46995828145829 2.0145252192347614,80.44219565995358 2.0032466542694816,80.39361107256597 1.9963059989062326,80.36931877869118 1.7152094567463563,80.20968370533645 1.059317524815893,79.21022933308029 0.7062116832623072,78.67232854232506 0.15269441804319198,77.47506549226802 0.21255757049950352,76.91981306300124 0.8797280673435346,75.51433035199501 1.0011895361486818,75.4796270753339 1.0020571181208,75.43104248773945 0.9821027338997469,75.22976348199838 0.9829703158201529,75.17423823935094 0.983837897792271,75.12565365160135 0.9742944966160916,75.06665808106544 0.8476275363402195,74.88273071383591 0.6923303724840971,74.6953330190282 0.6463485307025719,74.63633744859571 0.5673985759456135,74.54263860119185 0.43465854217518646,74.41770680454994 0.40689592067047814,74.38647385546703 0.40082284722763517,74.2094871438076 0.4025580111201594,74.09843665804733 0.4051607568296659,73.87286535874173 0.38086846311000594,73.76875552818957 0.3721926438542327,73.73405225137333 0.31493223715913954,73.63341274876136 0.21516031626072193,73.41825243229378 0.13968068918538804,73.23432506506425 0.04077635031080034,73.02610540447706 0.01908680230064692,72.99487245523902 0,72.9775208168826 0.05899557063932921,72.73112755133212 0.1249317965384837,72.21057839908845 0.27068555916671466,71.81496104333154 0.438128869856811,71.53733482900842 0.5682661579177315,71.45751729238276 0.6064397623638896,71.426284343093 0.6298644742665672,71.3776997557054 0.6368051296298163,71.32564484017075 0.6394078753393229,71.22847566534384 0.6220562369312,71.08272190256046 0.6142479996475448,71.05842960868567 0.6116452539380384,70.90226486311599 0.6125128358584445,70.83979896495016 0.6168507454087633,70.66628258086894 0.6368051296298163,70.6246386484826 0.6515540222767207,70.60381668254799 0.7721479091614617,70.50317717993602 0.995984044626245,70.4025376771172 1.0489065418227312,70.38518603860564 1.1521487902993497,70.3400717786411 1.1764410841224333,70.32966079585478 1.243244891941994,70.27760588032014 1.401144801455911,70.11450047954236 1.4662134454863711,70.06244556431798 1.6579490498961273,69.90281049101496 1.6935199087362027,69.86463688636196 1.718679784376269,69.79523033283289 1.7100039651204957,69.58354034399524 1.7108715470926137,69.53495575671106 1.7299583492898367,69.49331182453156 1.7438396600680468,69.47248985823497 1.7872187560883537,69.41002395991401 1.9572648124879566,69.23997790377297 2.1602789818112806,69.09769446877465 2.3190464732456038,68.96929234434769 2.3554849139026612,68.93458906779 2.3901881907706186,68.84436054801606 2.449183761306524,68.7402507174639 2.614891908155808,68.55979367801942 2.778864891060856,68.38280696630828 2.9029291056789335,68.16070599483945 2.915942834485026,68.11906206260824 3.0521531960405013,67.93513469522358 3.1371762241885905,67.81714355410006 3.1545278625967135,67.77202929444579 3.171011919136142,67.5360470120436 3.1822904841014217,67.48746242444915 3.294208551833813,67.28965374649312 3.3436607212452514,67.22371752054225 3.528455670291758,67.05714179182428 3.736675331189231,66.91138802924776 3.9683197039376696,66.76910459424944 3.9917444158403472,66.75175295589302 4.0212422011341555,66.74134197289986 4.142703669939303,66.72746066201823 4.206037150128951,66.72052000665498 4.296265669954614,66.68928705757207 4.389096935386358,66.63376181461437 4.428138121752922,66.5990585381084 4.6164033984810535,66.39777953236732 4.641563274172832,66.37348723849253 4.668458313757134,66.35266527255791 4.6970885171305365,66.3318433065716 4.728321466213446,66.31796199568996 5.006815262663816,66.25202576994594 5.042386121400467,66.24508511453098 5.296587624131177,66.13403462861557 5.3295557371066105,66.11668299031088 5.502204539215719,65.9674588999493 5.523026505305467,65.95010726159289 5.549921544889769,65.91193365714673 5.521291341516366,65.90846332920655 5.4831177369667845,65.90846332920655 5.301793115601902,65.94316660622964 5.03371030229983,66.00216217661041 5.002477353061785,66.00910283197366 4.970376822006758,66.01604348733692 4.939143872923848,66.01604348733692 4.7491434323031925,65.97786988304588 4.722248392822315,65.9709292275275 4.668458313757134,65.957047916801 4.640695692252426,65.95357758917109 4.5617457374954675,65.93275562292621 4.531380370281252,65.9258149677181 4.50275016690785,65.9154039845698 4.419462302548861,65.85640841418903 4.397772754538708,65.84252710325569 4.37695078844896,65.82517546510613 4.357863986200025,65.80782382659457 4.338777184002802,65.79047218808303 4.3092793986572815,65.74882825585182 4.278046449574372,65.71065465140566 4.25809206535332,65.68983268547105 4.18608276595961,65.64818875308471 4.131425104974023,65.62389645936506 4.016036709560007,65.60307449343044 3.9856713423457926,65.59266351012701 3.925808189837769,65.56837121640734 3.89457524075486,65.55796023362103 3.806081884821722,65.52672728433127 3.8008763933509973,65.42955810934922 3.8338445062747186,65.31156696807055 3.84252032547878,65.2629823804761 3.8477258170529285,65.2213384482449 3.8381824158767492,65.06864403046026 3.8095522125033465,64.99923747672435 3.794803319856442,64.97494518284955 3.697634144770955,64.81183978176148 3.6759445967608015,64.60709044859735 3.6698715233696704,64.37457849413535 3.660328122193491,64.32599390654089 3.577040257834502,64.11083359007333 3.494619975395919,63.88526229097457 3.437359568649114,63.67704262987026 3.362747523545898,63.458411986134756 3.3089574444807175,63.309187895928325 3.3080898625603115,63.28142527426848 3.294208551833813,63.0593243025928 3.28553273257804,63.03156168129494 3.189231139464671,62.81987169276755 3.1623360998803687,62.73311350072694 3.169276755243618,62.656766291627775 3.216993760865955,62.55959711664571 3.216126178945549,62.5283641675628 3.2013772862986447,62.48324990754655 3.178820156419797,62.46242794130166 3.153660280728019,62.44160597552219 3.092929546247878,62.35831811090464 3.0885916366975588,62.13968746701401 3.103340529396175,62.11886550107939 3.114619094258031,62.09457320735974 3.12155974962128,62.045988619765275 3.1163542580988435,61.82735797587464 3.1094136027873063,61.74059978383403 3.100737783531533,61.716307489959235 3.064299342874475,61.62607897013357 3.0625641790853746,61.5289097950998 3.065166924794881,61.48379553513526 2.667814405248871,60.68909049619837 2.231420699336296,60.14424905007989 2.2357586089900385,59.66187350228237 2.251375083453925,58.80817289260273 2.092607592019602,58.22168751461503 1.6527435584254024,56.69821366233014 1.5252090160739884,56.28871499584673 1.396806891905592,55.85839436322186 0.8727874119802855,54.49802591223189 0.5491793556170846,53.856015290924496 0.2732883049279331,53.377110070912025 0.04598184178152525,53.043958613476065 0.29844818061971107,52.794095020502525 0.5691337398381376,52.80103567571064 0.8389517170327343,52.794095020502525 1.1400026434653756,52.79062469287261 1.2042037055754298,52.78368403735423 1.4931084850189613,52.76633239899782 1.76292646226527,52.76286207141961 1.9989087446157392,52.70733682846191 2.0396850949265395,52.69345551773541 2.074388371691073,52.68304453458711 2.12904603267666,52.63793027493284 2.278270123038227,52.55117208289223 2.3190464732456038,52.53035011675077 2.3572200777434738,52.506057822875974 2.4561244167214853,52.41582930325716 2.5342067895063254,52.3221304558533 2.593202360145655,52.19372833142634 2.5966726878272794,52.14861407177207 2.7120610832412955,51.93692408324468 2.8074950944342585,51.714823111569004 2.85434451813619,51.61071328101684 2.9784087327542674,51.409434275586044 3.140646551870215,51.22550690840823 3.330646992490871,51.07975314562486 3.4026562918845804,51.03810921354879 3.6264924273493637,50.95135102150818 3.7063099640267283,50.920118072270135 3.785259918783687,50.69454677301625 3.7835247548911624,50.66678415171839 3.8364472520876487,50.56961497652948 3.900648314145991,50.54879301059486 3.965716958176451,50.54879301059486 4.10800039317477,50.56267432116623 4.201699240578632,50.57655563173759 4.256356901564219,50.58696661504102 4.553937500211812,50.59043694246409 4.8254906412989325,50.58696661504102 5.107454765430927,50.58349628710084 5.1543041891328585,50.580025959677776 5.18987504786951,50.56961497652948 5.215034923561288,50.541852355179905 5.2349893077823415,50.51408973357177 5.251473364218346,50.479386456703814 5.363391431950737,50.378746953936705 5.3842133980921965,50.36139531573543 5.410240855652669,50.354454660217044 5.432797985583228,50.337103021860635 5.637547318799077,50.1635866377794 5.708689036324092,50.12541303317811 5.785036245319832,50.0941800840952 6.001064143449248,50.035184513714434 6.058324550196053,50.02824385835118 6.152890979520322,50.00048123669134 6.184123928654943,49.97618894281654 6.201475567063066,49.8061428866755 6.105173973897984,49.63609683001734 6.061794877877678,49.51810568889382 6.000196561528842,49.08431472869075 6.010607544573715,48.87262474016336 6.017548199936964,48.8448621188655 6.093895408932704,48.723400649801796 6.248324990868421,48.556824921083816 6.270014538878574,48.53600295514921 6.427914448340779,48.44924476310859 6.454809487821658,48.43536345233038 6.48343969119506,48.424952469388934 6.635266527266134,48.41801181402568 6.92417130681309,48.4145414860855 7.202665103315171,48.45618541847184 7.289423295355785,48.46312607367995 7.86463010848163,48.45618541847184 8.14572665074493,48.45271509084193 8.417279791883763,48.44924476310859 8.675819204061368,48.47353705698339 8.956915746272957,48.529062299785956 8.995089350822537,48.53947328288254 9.251893599262754,48.54294361051245 9.295272695283062,48.54294361051245 9.406323181043335,48.57070623181031 9.442761621752105,48.58458754274366 9.64751095491624,48.70604901144539 9.673538412528425,48.723400649801796 9.696095542510697,48.744222615891545 9.70650652555557,48.841391790925314 9.707374107475976,48.86915441253345 9.694360378618173,48.89691703388302 9.555547271404903,49.105136694987344 9.539063214865473,49.257831112771974 9.544268706439622,49.30641570036643 9.563355508636846,49.34458930481259 9.781118570658785,49.459110118513046 9.867009180778993,49.486872739810906 9.89737454799321,49.49034306759596 9.929475079048235,49.49381339532929 10.2071012935782,49.49034306759596 10.479522016585726,49.459110118513046 10.7849108526204,49.382762909413884 11.17098480720113,49.31335635572968 11.384409959621038,49.230068491474114 11.615186750449071,49.167602593308295 11.834684976260112,49.153721282530086 11.91363493101707,49.153721282530086 12.19473147328037,49.20230586981427 12.225096840442873,49.20924652533265 12.337882490095671,49.26130144055702 12.533088422187053,49.35152996017584 12.570394444816229,49.361940943168996 12.74217566500493,49.37235192647243 12.968614546230933,49.32376733887798 12.996377167735641,49.30988602815148 13.219345721228306,49.08431472869075 13.343409935898096,48.90385768924627 13.467474150464462,48.71298966696377 13.524734557262978,48.504770006066295 13.536880704096951,48.39371952015089 13.543821359460201,48.365956898801315 13.588935619373032,48.29308001753891 13.754643766118893,48.133444944029044 13.794552534457575,48.09527133958289 13.886516218072337,48.043216424203386 14.11035235353712,47.96339888752602 14.134644647256781,47.95298790473971 14.1797589071179,47.93563626622816 14.241357223466736,47.876640695485406 14.25610611611364,47.61636611936356 14.252635788432015,47.533078255107995 14.204051200940983,47.41508711398448 14.138114974938405,47.31444761121736 14.106882025855496,47.248511385111364 14.094735878918097,47.20339712545709 14.089530387395662,46.99517746435277 14.089530387395662,46.9500632046985 14.153731449557428,46.825131408211725 14.294279720663221,46.682847973213406 14.34199672628556,46.64467436876725 14.39578680535074,46.613441419477496 14.453914794017951,46.59608978117279 14.51464552844638,46.58914912580955 14.839121166626564,46.58220847023945 14.977934273943257,46.59261945323261 15.290263765237755,46.63773371335229 15.323231878213187,46.64120404082706 15.462044985529882,46.69672928378477 15.680675629420517,46.83554239099804 15.7067030870327,46.85289402935445 15.907982092566924,46.918830255460456 15.988667211164694,46.9292412384019 16.036384216838744,46.9292412384019 16.12921548227049,46.91188960025234 16.177800069864944,46.90147861694891 16.292320883306843,46.84248304636129 16.427663662941914,46.70019961151811 16.451088374741165,46.67937764527323 16.504878453806345,46.63426338561895 16.70008438589773,46.47115798468602 16.853646385861325,46.30111192802786 16.974240272746066,46.11718456110861 17.013281459216053,46.044307679846206 17.069674283990743,45.947138504502156 17.09483415968252,45.89161326154445 17.10350997893829,45.83261769111197 17.10177481504577,45.59663540886493 17.096569323575043,45.391886075545656 17.098304487364143,45.34677181558111 17.045381990271082,45.05526429037636 17.214560464698565,44.559007431852336 17.245793413833187,44.4618382569737 17.38460652114988,44.073161556631746 17.62232396728945,43.87882320625393 17.75072609156127,43.78859468679025 17.864379323082762,43.61507830270902 19.261186214988356,41.70639807781552 19.74529692657498,40.81799419126792 19.83031995472307,40.64100747945336 19.829452372854373,40.519546010389654 19.72881287003555,40.31132634980245 19.699315084793454,40.15863193165583 19.655935988773148,39.8740650616592 19.611689310832435,39.55826524257965 19.337533423984095,38.97872051990349 18.751048045789545,38.173604497870016 18.187987379445964,37.58364879189042 17.98931111967296,37.41013240780919 17.81839748135295,37.23314569614977 17.649219006873754,37.042277673401856 17.488716351546906,36.87917227262406 17.349903244281922,36.698715233179584 17.275291199126997,36.629308679443675 17.257939560718874,36.608486713198786 17.248396159646116,36.528669176521426 17.248396159646116,36.5009065553787 17.205884645494503,36.414148363338086 17.06273362862749,36.2198100131154 16.953418306656317,36.1018188716816 16.8232810185954,35.95259478147517 16.70181954979025,35.751315776096085 16.552595459428684,35.54656644293195 16.527435583736906,35.525744476790486 16.501408126124723,35.504922510545605 16.474513086643842,35.49104119997424 16.44848562903166,35.484100544610996 16.388622476471923,35.48063021667081 16.2159736743111,35.30017317738147 14.854737641245586,33.9085717769466 13.799758026031723,32.836240523531465 13.110030399257132,32.13870465947322 12.69098833170097,31.569570919635083 12.555645552169324,31.323177654084603 12.579937845888983,30.74710325903835 12.7768789419246,29.001528435232917 12.930440941733062,27.34965245872792 13.031948026420581,26.832573634217574 13.926424986462731,26.47512988311367 14.107749607724191,26.443896933875624 14.19971329128724,26.423074967889303 14.471266432426074,26.339787103323467 14.72807068086629,26.25302891128285 14.824372273979659,26.211384979051644 15.043002917973718,26.07257187199351 15.248619833109972,25.937229092203307 15.404784578783076,25.808826968241757 15.449898838592484,25.767183036062264 15.567022397899024,25.67001386087335 15.636428951479804,25.600607307344283 15.677205301738892,25.57631501346949 15.70063001364157,25.565904030321192 15.72492230736123,25.55896337495794 15.755287674627155,25.55896337495794 15.878484307376539,25.55896337495794 15.90884967448733,25.555493047483164 15.940950205542357,25.54508206438658 16.00775401346534,25.52078977066692 16.2688961715593,25.40626895696646 16.30012912064221,25.385446990876716 16.514421854982526,25.263985522123278 16.554330623321206,25.239693228248484 16.768623357609812,25.121702087280095 16.795518397194115,25.100880121035214 16.99592982075622,24.951656030673647 17.214560464698565,24.798961612682167 17.433191108640912,24.639326539534284 17.531227865646805,24.552568347493672 17.626661876891482,24.45539917230476 17.73250687123274,24.261060822288922 17.84702768467464,24.073663127429484 17.878260633809262,24.028548867309805 17.89214194453576,24.004256573590144 17.980635300417184,23.837680844872168 18.191457707127586,23.681516099147352 19.013925367620892,23.535762336674257 19.939635276694244,23.386538246467822 20.397718530668683,23.289369071330626 20.73520789770667,23.206081207023345 21.090916485124897,23.119323014982733 21.739000179616568,22.94233630316817 22.562335422133707,22.699413365557874 23.731835850789466,22.387083873901393 24.471015647027205,22.26909273277787 25.806224222480537,22.02269946738253 26.815221995912875,21.849183083301302 27.629013837253833,21.60626014553587 27.983854842751654,21.519501953495258 28.382942526086765,21.425803106091394 28.920843316790283,21.28351967124821 29.13426846921019,21.044067061371255 29.493447384206622,20.65886068845237 29.578470412458135,20.322238903438212 29.650479711851844,19.825982045069328 29.73376757621083,19.291551582099146 29.764132943373333,18.68424423781485 29.80577687560454,18.23310163925537 29.82399609593307,17.75766674666596 29.84134773428948,17.36204939090905 29.882991666468975,17.04277924440644 30.028745429097206,16.588166318061912 30.16495579060097,15.998210612134027 30.272535948783045,15.644237188608322 30.416554547570463,14.950171652283414 30.579659948606814,14.249165460595254 30.79655542870835,13.430168127783574 30.896327349503345,12.822860783499278 31.03600803868873,12.111443608662823 31.422081993321175,10.365868785012522 31.610347270049306,9.241482616114457 31.812493857503934,8.134448085521091 31.749160377262577,7.891525147755661 31.34139687467169,6.336818346387863 30.456463315909144,3.341925557352727 30.416554547570463,3.2482267099488644 30.562308310250405,3.282929986609974 30.749706005006416,2.8699609927035006 30.945779518966493,2.3737041341794782 31.179159055607457,1.9572648124362446 31.4134061740654,1.6831089254327696 31.666740094823993,1.4887705754169307 32.07970908898903,1.2805509143126101 32.41372812829368,1.134797151891227 32.98719977773384,0.9473994568766537 33.44094512205454,0.7738830727954263 33.484324218074846,0.7565314346458631 34.00140304263691,0.5968963611359983 34.350170974691885,0.5344304629701803 35.11104031883636,0.4442019429893825 35.89186404720188,0.39561735570519835 36.34300664581307,0.3990876831799753 36.83232284892213,0.36438440646715364 37.45784941353496,0.19780867774917538 37.86127500652381,0.12493179648677179 38.500682881966554,0.06593622574401875 39.234657186526725,0 39.64936134453257,0.020821965934611546 40.053654519390115,0.11452081333847432 41.04183032678442,0.3470327681624547Z"/></svg>