<svg xmlns="http://www.w3.org/2000/svg" width="256" height="256"><path d="M44.31129430684642,1.654209195353793 44.61172243431395,1.758060893516557 44.75266402508826,1.8099867429295482 44.8342617879936,1.847076635430563 44.865788196431545,1.9138384414239218 44.88804213179951,2.091869924146569 44.88433314268205,2.1660497091485986 45.034547206305284,2.3663351271286746 45.16436182950615,2.5443666101829314 45.32755735531682,2.7669059637520457 45.44068152688118,2.959773403828816 45.50929782759907,3.1452228652285243 45.63169447201234,3.382598176041225 45.82827090120657,3.6273914644256213 46.189897350936,3.9760364519676106 46.79817158421651,4.421115159437448 47.18205196931391,4.695580362419554 47.3786283983976,4.8365219533044055 47.75509080503901,5.162913005036283 48.15751613627638,5.496722035334686 48.50801561843237,5.778605217325462 48.74539092891345,6.008562549129492 48.9679302825931,6.238519880933521 49.16821570090479,6.461059234834245 49.33141122693653,6.698434545315336 49.45751686068834,6.958063791717073 49.522424172399305,7.2547829295144615 49.58176799993668,7.588591960144474 49.62627587056207,7.966908861620953 49.55024159138819,8.152358323020662 49.35922864625703,8.441659482914744 49.079199959543466,8.679034793285298 48.64339372514362,9.049933716084716 48.3336931246061,9.287309026897416 48.70459204740552,9.50984838013492 49.112580862595415,9.695297841534629 49.78390791286236,9.98459900142871 49.578059010598146,10.266482182645733 49.42413595763639,10.5483653643049 49.247958969306666,10.83024854552192 49.04025557253899,11.164057575820323 48.83255217588185,11.690734046527105 48.68419260665155,12.135812753554797 48.59517686540077,12.388024021279474 48.72313699354549,12.595727417936612 48.83997015433784,12.862774642241655 48.928985895699164,13.218837608129096 49.06250950790696,13.656498336921873 49.20530559329527,14.071905130899367 49.28319436697261,14.494729903111775 49.42413595763639,14.932390631904552 49.583622494550674,15.503574973015654 49.631839354404065,15.681606455406692 49.83768825666827,15.666770498494715 50.01942872872945,16.54950993542055 49.8840506220182,16.861065030129915 49.39817303315097,16.838811094872487 49.24610447469267,16.861065030129915 48.29474873771216,17.194874060759926 48.02584701868258,17.313561715834666 47.43797222604551,17.69929659554606 47.2970306356028,17.82540222929786 47.43426323692805,18.114703389523555 47.50473403225994,18.36691465691662 47.55295089211333,18.633961880890055 47.710582934303076,18.90100910552671 47.83483407344089,19.14580239501647 47.98319364267119,19.55379120954315 48.02955600802112,19.880182261606635 48.15009815782039,20.22140927091371 48.3355476192201,20.599726172279652 48.67862912292009,20.985461052101584 49.023565121013014,21.430539758797664 49.361083140760485,21.593735284939946 49.62071238683062,21.690169005199404 49.9248495034156,22.164919626493194 50.80758893967822,23.83396477909057 51.3528103563039,24.55350868910037 51.234122700897544,24.7834660209044 51.25266764714805,25.006005374805124 51.87948682656853,25.881326832390677 51.77934411741269,25.925834703458214 51.32870192632193,25.98517853088505 51.53640532308961,26.326405540192123 51.86465086965656,26.74181233339586 52.2837666524199,26.942097751707546 52.76778974689421,27.06820338579096 52.99032910046333,27.364922523588348 53.04410944426924,27.743239425396435 53.021855508901275,28.025122606281847 53.98990169729722,29.627405952885866 54.26622139489332,29.887035199287606 54.531414124584366,30.332113905983686 54.35152814713719,31.35579493346276 54.67791919909014,31.481900566882953 54.700173134458105,31.719275877695654 54.8318422520519,32.01599501549304 54.98020182117166,32.21628043413634 55.58105807610672,32.268206283549326 58.244112341917074,31.86763544659435 59.03783603659729,31.771201726777036 59.59418442079642,31.778619705011952 60.08747998811965,31.837963533102005 60.55295813623291,32.25337032630574 61.246539121867826,32.75779286109188 61.88633976369682,33.017422107493616 63.33099106800055,33.69987612533401 63.38477141202754,33.41799294378538 64.09875183819534,33.03967604308265 64.50303166415725,32.780046796680914 64.91843845758206,32.372057981380486 65.15210477905623,32.17919054207747 66.33341784806184,31.65993204993721 67.0844881668412,31.652514071702296 67.72614330328419,31.54124439486247 68.0061719898872,31.4744825885375 68.6144462233888,31.80829161927805 69.23384742446382,32.053084907994055 69.45082329419094,32.06050288667112 69.69932557246655,32.2607883049828 71.1569583391788,33.19545359054787 71.74854212093334,34.17462674629619 71.94140956078903,34.263642487878585 72.20474779597662,34.204298660120145 75.73570554102707,32.21628043413634 75.89333758332737,32.283042240461306 76.00089827093919,32.498163615795505 75.83213926106545,33.11385582697932 75.77094093880355,33.670204211178444 76.55724665513831,33.981759306993176 77.29162652228116,34.486181841779306 77.78492208949385,34.88675267807107 78.12058561462733,35.26506957987916 78.35239744137697,35.71014828657524 78.53970139739067,36.407438261769755 78.67878849344045,37.12698217177955 79.02001550241592,37.46079120274118 81.61630796201183,38.87020710937896 82.13185746470303,39.09274646283754 82.1058945402176,39.493317299571444 82.14298443238701,40.101591533183566 82.13556645404155,40.613432046536225 82.18007432466695,40.85822533536277 82.22272770089943,41.436827654708786 82.19491028157893,41.792890620596225 82.19305578696493,42.01542997416534 82.02986026104372,42.601450272520026 82.0242967770912,43.00943908748885 82.0187332932492,43.42484588146635 81.99647935799177,44.010866179157816 82.04284172334171,44.41885499445825 82.14298443238701,44.886187637074975 82.28392602316133,45.37577421528074 82.27094456075281,45.553805697671784 82.02800576642973,45.74667313808016 81.79990292879755,45.89503270664725 81.52729222065051,45.87277877138982 81.1545388032371,45.90245068565592 80.87080112729555,46.0137203620536 80.63528031120738,46.26593162944666 80.51102917206957,46.503306940259364 80.55182805368804,46.6961743802256 80.40532297918227,47.01514745405417 80.12158530335125,47.04481936787813 79.78221278876872,47.01514745405417 79.47807567218373,46.948385648060814 79.05154191085387,46.87420586305878 78.93285425555806,46.85936990647841 78.7084604072644,46.97805756155316 78.57308230044262,47.104163195526034 78.41545025825286,47.304448613837714 78.33941597907898,47.37862839784492 77.78863107872185,47.8162891269693 77.38806024209848,48.13526220035573 76.98563491086111,48.46165325275083 76.89291018016125,48.5284150590758 76.6759343103236,48.63226675757017 75.89333758332737,48.91414993845558 75.42600494048956,49.12927131367924 75.142267264548,49.1886151417693 74.92529139471034,49.285048861255 74.89005599715493,49.35922864625703 73.66979854103431,50.10844446975917 73.53627492893706,50.31614786674791 73.40831480046073,50.38290967307288 73.28777265055092,50.47934339255858 73.12457712451918,50.56094115546392 73.03927037227531,50.68704678954733 72.94654564157545,50.73897263896033 72.9168737277515,50.857660294366674 72.92243721159349,50.92442210036003 72.92614620093202,51.03569177675771 72.90760125468151,51.13954347525208 72.39761523583232,51.47335250555049 70.5672290518172,51.62913005345785 70.07022449526596,51.6588019669502 69.01501706001216,51.84425142834991 68.68306252410669,51.91843121335194 68.3956158588266,52.05937280390518 67.89675680777192,52.44510768361657 67.53142136881449,52.489615554463036 67.18092188665851,52.58604927394874 66.83784038317958,52.942112239836185 66.41130662196025,53.34268307645955 66.01259027984034,53.594894344515836 65.63798236781292,53.83226965466532 65.43769694961178,54.09189890106706 65.3412632295734,54.29960229761366 65.38948008953732,54.43312591004252 65.6713632709754,54.60373941408811 65.96251892526242,54.72242706982607 66.06451612914279,54.907876531225774 66.19247625739806,55.39746310909994 66.42799707348622,55.516150764174675 66.5114493311161,55.61258448443414 66.3556717834298,56.027991277637874 66.23698412813398,56.30245648095159 65.9143020652985,56.710445295809876 65.75110653926674,56.992328477137434 65.587911013235,57.118434111110304 65.35795368109937,57.125852089455755 65.02229015607644,57.066508261697315 64.86651260850067,57.125852089455755 64.63655527647558,57.496751012255174 64.57906594322058,57.70445440924392 64.39176198720689,57.964083654540296 64.47892323406475,58.156951094948674 65.00930869366792,58.43141629782024 65.37278963801134,58.64653767315444 65.84197677557368,58.972928725107394 66.36308976188579,59.336409669340284 66.91572915696746,59.69989061346264 67.33855392895879,60.07820751493912 67.42015169186413,60.35267271747908 67.36080786421623,60.79033344660347 67.36637134805821,61.09447056307792 67.3181544880943,61.50987735705541 67.33669943423426,62.21458530982162 67.37935281046673,62.91187528534775 67.35895336960222,62.98605506924441 67.01772636062677,63.23826633730069 66.55595720174149,63.67592706576186 66.14796838666213,64.21002151514571 65.73070709851278,64.67735415743083 65.55082112095506,64.80345979107209 65.86237621621711,68.11929616111996 66.01259027984034,68.26023775200481 67.08263367211666,69.23941090775313 67.38120730497019,69.8773570551892 67.85966691538144,70.07764247361142 69.2208659620553,70.70817064203882 69.59361937946872,71.05681563002295 69.81244974403091,71.01230775884488 70.68591670722354,71.23484711241399 70.84169425468876,71.00488978060996 71.10874147910434,70.99005382358744 72.84825742714415,71.06423360792625 74.92158240548235,71.16808530642064 76.08991401230051,71.19033924200967 77.32686191983657,71.22742913440015 78.49704802137927,71.22742913440015 78.79191266500482,71.271937004915 79.24070036170264,71.34611678947489 80.72058706345125,71.30902689741602 111.14913468991546,75.81915779832534 111.62017632187072,75.73014205674293 112.19321515759582,76.21231065671378 113.28365799073664,77.25082764011 115.0713907985193,78.32643451633886 114.1218895561528,79.3426975649198 112.53444216668183,80.17351115210103 113.34671080761255,81.8425563046984 113.07595459396897,81.93157204617027 113.04628268014501,82.07993161551111 113.45983497895583,82.59919010720922 113.83815188021124,83.05168679291397 114.30177553371051,84.95810725599245 114.45755308128626,86.5826445381855 114.62074860742855,87.49505588816153 114.85997841263418,87.85111885404898 114.90819527259809,88.14042001361145 114.82845200408569,88.89705381612225 114.96753910013547,89.51274602841144 115.0676818092913,90.00975058452052 115.21604137852161,90.69962258136957 115.42745376440675,91.37465862064344 115.13815260473373,93.11046557956578 114.95641213245148,93.67423194177876 114.93415819708352,93.95611512299578 115.07695428247183,94.11189267057154 115.28280318451498,94.20090841248553 115.81875212807067,94.28250617539088 116.16368812616359,94.3195960678919 116.3472830929493,94.34926798138423 116.55869547894497,94.54955339969592 117.71590011807915,96.11474685379892 117.73444506432966,96.18892663880095 117.74557203190311,97.3906391487816 117.78266192429358,97.44256499742085 118.02930970795519,97.58350658808462 118.29264794314278,97.71703020040295 118.75812609114551,97.96924146779601 118.8805227358904,97.99891338161997 119.11048006791549,97.96182348989271 119.30520200238519,97.90989764047971 119.63715653829067,97.37580319175909 119.83558746187782,97.14584585929184 120.36226393236353,96.41146599237007 120.43644371681287,96.27052440137467 120.56254935067521,96.06282100504914 121.7216084844234,96.42630194928205 122.2037770839521,95.61032431868118 122.33173721242844,95.43971081419345 122.56911252290953,95.24684337489043 122.70449062984186,95.15040965496259 122.84728671500909,95.03172199922463 123.02531819795281,94.85369051617037 123.19964069177908,94.70533094760329 123.27752946545641,94.62373318469795 123.48894185145208,94.51246350719491 123.78380649507763,94.46795563679058 123.98038292438238,94.42344776638626 124.06383518190172,94.38635787388525 124.1157610309831,94.34185000303879 124.13059698789507,94.26025223980183 124.13245148261962,94.17123649855105 124.21404924552495,93.89677129567949 124.3698267931007,93.63714204960935 124.58494816832436,92.96952398868093 124.90021225270387,92.73214867819985 125.32860050853719,92.5244452812111 125.56783031374282,92.39092166889277 125.84971349518091,92.16838231565526 126.46911469614541,91.32273277123045 127.68751765765202,90.61802481780101 128.4070615678829,90.61060683989771 128.66298182472502,90.69962258136957 129.16740435951115,90.81089225820939 129.65884543233093,90.85540012861372 131.94543729138934,91.2559709655687 132.24401092413234,91.31531479299554 132.57781995476236,91.33756872858457 132.86712111443535,91.30789681431847 133.7609875184925,91.17437320200014 133.92789203364168,91.10019341810349 134.7475786530284,91.21888107317822 134.67339886857906,91.04826756869049 134.65299942771455,90.8702360858573 134.66041740617055,90.71445853839208 139.42832305875706,90.93699789151906 140.96013560991864,91.19662713758919 141.8243301000413,91.1447012881762 143.1595662221192,91.20404511615571 145.01220634161282,91.901335090687 145.15500242678007,92.05711263859438 145.33303390972378,92.19063625058108 145.4350311134936,92.27223401348643 145.5704092203154,92.36124975540042 145.7317502518437,92.45768347488612 145.92647218620286,92.5615351733805 146.66827003180168,93.11788355757963 146.7239048702216,93.06595770849825 146.94088074005927,92.93243409617992 147.20050998601886,92.79149250551615 147.32476112515664,92.73956665676637 147.43046731826502,92.71731272128787 147.92005389624973,92.58378910930115 148.1240483037894,92.51702730297619 148.80279333251232,92.3241598628994 149.31463384608605,92.21289018650174 149.65586085506152,92.12387444458773 149.78752997265534,92.12387444458773 149.95814347714307,92.16096433708874 150.22704519617264,92.26481603558311 150.37911375440987,92.30932390598744 150.76299413950724,92.41317560448181 151.00964192338995,92.45026549698282 151.0689857509273,92.45026549698282 151.18952790072657,92.45768347488612 151.2599986960585,92.4354295396287 151.34715994302687,92.36866773396696 151.45472063052816,92.29448794940707 151.52704592058458,92.21289018650174 151.56228131814,92.11645646624227 151.5344638990406,91.99776881116753 151.51406445817608,91.88649913377503 151.51035546905862,91.79748339285585 151.54188187749656,91.63428786638195 151.64017009192787,91.43400244840188 151.77925718797766,91.21888107317822 151.98139710101387,90.97408778368846 152.08339430478372,90.92957991328414 152.16684656241358,90.86281810729078 152.5674173989264,90.6254427968097 152.96242475181833,90.49191918449137 153.2832523199293,90.336141636584 153.54844504973087,90.14327419717044 153.7505849627671,89.77979325238488 154.22719007845382,89.31987858800306 154.31249683069768,89.20119093325992 154.28467941159826,89.06766732060998 154.16970074553043,88.90447179479932 153.80807429569046,88.6225886135823 153.70607709203117,88.42972117350553 153.7264765326746,88.19234586269283 153.98239678951674,87.56181769459704 154.3236237984922,86.92387154705042 154.51834573285134,86.47137486101407 154.52390921680387,86.32301529178376 154.45714741058944,86.1820737014516 154.2976608737857,85.9817882828083 154.07326702549204,85.72957701541523 154.07883050933404,85.33642415780054 154.30693334696622,84.46110269944123 154.3384597554042,84.2163094103936 154.34216874452164,84.04569590590587 154.26427997073375,83.89733633700718 154.14559231554847,83.74155878909981 154.10108444470202,83.56352730670878 154.07512152021658,83.31131603931571 154.14002883159594,82.79205754684385 154.13446534775397,82.56951819371687 154.04359511177864,82.35439681838268 153.9453068972368,82.13927544282741 153.81734676876047,81.8944821541114 153.7246220380606,81.58292705862829 153.67640517809667,81.45682142531862 153.5669899959814,81.24911802799826 153.45942930825902,81.09334048042251 153.4075034590671,81.0488326100182 153.26656186840333,80.84112921302945 153.18125511615946,80.76694942880117 153.07554892316162,80.67051570887332 152.74359438725614,80.38863252699308 152.16313757307506,79.83970212180263 151.48439254435212,78.95696268520841 151.46028411437015,78.66024354741101 151.59380772657795,78.44512217207682 151.88125439185802,78.17065696920525 152.32262410998933,77.82201198122111 153.05329498779366,77.31758944643498 153.50950066283696,76.89476467422257 153.72091304894315,76.42743203160583 153.78952934966105,76.0342791738806 153.88410857508543,75.13670378081655 153.92676195098628,74.63969922360211 153.813637779643,74.10560477532363 153.80065631723448,73.96466318432824 153.91192599407432,73.76437776601655 154.33475076606564,73.45282267119666 155.087675579459,73.01516194207227 155.61435204983417,72.51073940728614 155.84430938196982,72.25852813922985 156.58610722756865,71.83570336734905 157.13503763331178,71.33869881123998 157.44102924451076,71.1087414786622 157.81192816731019,70.99005382358744 158.28296979926546,70.96779988844055 159.31406880475836,71.13841339292829 160.25244307933036,71.36837072473232 160.49538187376396,71.39804263888789 160.89409821577334,71.39062466032136 161.19452634324088,71.43513253072568 161.84730844736785,71.67992582021544 162.72633889440246,71.70959773403939 163.45144628847532,71.67992582021544 164.07641097339234,71.94697304452049 165.36157574089233,72.60717312721398 167.00651246350776,73.29704512373144 167.24203327959592,73.43056873571815 167.58882377230285,73.7495418094362 167.70194794375666,73.89790137800327 167.77798222293055,74.05367892591065 167.80023615840904,74.20945647381801 167.7538737930591,74.41715987003299 167.45900914943357,74.75096890099462 167.3607209347812,74.90674644823876 167.28468665560732,75.06994197438104 167.27355968803386,75.19604760780123 167.28468665560732,75.32957122011956 167.33104902095724,75.44084089718046 167.39781082717167,75.56694653060066 167.45900914943357,75.93784545340007 167.2865411502213,76.3977601181135 167.15116304351005,76.78349499782489 167.11592764573356,77.19890179102863 167.10294618354612,77.33242540367857 167.02691190437224,77.5401288000041 166.83218996990254,78.00004346471752 166.8989517758959,78.27450866758909 166.97127706595234,78.80118513763264 166.96200459277182,79.09048629719513 166.83404446451655,79.45396724164908 166.9582956037649,80.16609317342397 166.96571358211034,80.62600783780579 166.852589410546,80.82629325611747 166.63932253004685,81.00432473917172 166.30736799414137,81.27878994182223 166.212788768717,81.44198546840664 166.220206747173,81.61259897278384 166.3333309186268,81.68677875679104 167.6036597292148,82.12443948591543 167.89666987822636,82.30247096896969 168.2453148656578,82.54726425779623 168.55501546630586,82.7401316982046 168.6737031217122,82.84398339625683 169.05943800131305,83.21488231905626 169.51378918174234,83.53385539244267 169.7993813522979,83.57836326362076 170.2945314142351,83.58578124185567 170.52634324098474,83.54127337078813 170.9806944213035,83.51901943553071 171.57227820316857,83.52643741420776 171.95430409365198,83.57094528461208 172.41050976869525,83.70446889693041 172.6664300255374,83.77864868160083 172.91864129293046,83.82315655266837 173.2728497642039,83.74155878909981 173.93675883601486,83.96409814300054 174.4152184464261,84.05311388491455 175.10323594821904,84.19405547546779 175.68183826789667,84.52044652719967 175.92292256760575,84.49819259161063 176.85758785306027,84.69106003201901 177.27855813043763,84.81716566532866 177.57527726889822,84.92101736382304 177.97399361068653,85.21773650239417 178.03704642767298,85.4476938341982 177.97399361068653,85.6479792525099 177.8571604500047,85.90760849891163 177.6828379563995,86.15240178729603 177.26372217363618,86.48621081792605 177.08012720685048,86.67907825800282 176.9336221323447,86.85710974072546 176.77784458476893,87.12415696536212 176.69624682164252,87.36153227617481 176.60352209094268,87.53214578066255 176.395818694175,87.86595481096094 176.34574733970763,88.00689640129312 176.2789855334932,88.09591214320713 176.113935512958,88.22201777684839 175.8357613208584,88.34070543192313 175.68740175173866,88.42972117350553 175.58169555885135,88.65967850597278 175.463007903445,89.01574147186022 175.3758466564766,89.20119093325992 175.16257977597746,89.45340220032138 175.11436291590303,89.57208985605935 174.77869939076953,89.97266069279326 174.7620089393541,90.05425845569859 174.7434639931036,90.35097759349597 174.78426287472206,90.61060683989771 174.8992415407899,90.92216193460708 175.06243706682164,91.15211926718486 175.2775584420453,91.37465862064344 176.14175293205741,92.11645646624227 176.36800127507558,92.22030816440504 176.78526256322493,92.28706997039839 177.77927167621684,92.42801156139379 178.55630491959215,92.4651014538948 179.06629093844134,92.5244452812111 179.49282469955014,92.56895315238917 179.84703317104464,92.63571495838254 180.1233528684197,92.70989474261081 180.53134168338852,92.7989104841932 180.94674847692386,92.96210601000388 181.14703389523555,93.08821164408728 181.43262606579108,93.22173525640561 181.84246937548446,93.38493078188468 182.43034416812154,93.58521620019636 182.8865498431648,93.73357576942666 183.0274914338286,93.74841172678079 183.58569431275225,93.88935331700242 183.93063031084517,93.98578703715134 184.10866179378888,94.00062299417385 184.45730678133089,94.01545895108583 184.86158660718223,94.14898256340416 185.19168664847373,94.19349043380848 185.55516759281716,93.36267684662725 185.4513158943228,93.11788355757963 185.25473946534962,93.02144983809393 185.4642973567313,92.64313293628584 185.7591620002463,92.4725194317981 186.06515361166635,92.19063625058108 188.34989097600024,91.40433053457792 188.48897807205,91.37465862064344 188.5724303296799,91.36724064240852 188.65217359808176,91.37465862064344 188.77457024260556,91.37465862064344 188.83762305948147,91.35982266339985 189.00452757474122,91.31531479299554 189.128778713879,91.27080692259122 189.2697203045428,91.24113500865673 189.5701484320103,91.16695522409684 189.68141810896068,91.12986533159582 189.96701027951622,90.9963417196091 190.2711473961012,90.81831023644432 190.36758111602907,90.76638438703132 192.88969379117563,89.97266069279326 193.32920901469294,89.80946516620882 193.89668436646554,89.93557080029224 194.30467318154487,89.98749664970522 194.93520135041442,90.00975058452052 195.20410306933346,90.06909441261057 195.6343458197808,90.1877820676853 197.18284882246837,90.72929449530406 198.16573096799735,90.65511471030203 198.98170859804554,90.67736864589106 199.5065305738067,90.91474395670377 199.82921263686328,90.98892374060044 200.01280760353845,91.070521504169 200.1500402048637,91.13728330983074 200.28727280629948,91.2337170300902 200.6303543099995,91.55269010380823 201.04947009276282,91.99035083260101 203.59754569239482,92.37608571198079 203.26744565110334,93.32558695489999 202.90952819060192,94.15640054163907 202.1862752910325,95.5583984695998 201.85432075512702,96.11474685379892 200.96045435118043,97.52416276076832 200.8158037713992,97.69477626514552 200.82878523358664,98.11760103735793 200.6730076860109,98.9780865380315 200.72307904069933,99.69763044848344 200.99198075961837,100.47651818614115 201.10325043656874,100.77323732438069 200.94932738360697,101.39634751457316 201.231210564824,102.13072738182655 201.28313641401593,102.35326673539566 201.28684540335445,102.7983454428655 202.13991292568258,103.39920169746895 202.6369174822338,103.57723318096535 202.70738827756568,103.54014328846434 202.8372029005455,103.25084212857026 202.85203885745747,102.9467050117642 203.01152539437174,102.58322406797345 203.28042711340132,102.30134088598267 203.31195352183929,102.13072738182655 203.38056982244663,102.02687568377432 203.94062719587376,101.41118347148515 204.20581992567534,101.18864411758442 204.59155480538672,100.82516317379367 204.7992582021544,100.56553392739194 205.02365205044805,100.22430691841647 205.43720434947994,99.75697427579973 205.77472236911686,99.51959896498704 206.70011518150142,98.82230899056628 207.4827119086082,98.65911346464507 207.06915960979737,98.16210890787278 206.95047195439102,98.05083923103295 206.29027187180807,97.76153807158101 206.28285389335207,97.66510435098995 205.78770383141486,97.01232224697351 205.53920155324977,96.91588852748781 204.91980035217475,96.82687278557381 205.12935824355642,96.37437610020066 206.95232644911556,95.36553103029678 208.42850416185723,94.51246350719491 209.19255594282404,94.12672862748352 209.55047340321494,94.13414660649218 211.94277145538172,94.24541628288986 211.8166658215194,94.72016690418366 211.5737270271963,95.56581644827686 212.3526147650751,95.58807038342376 213.33735140499698,95.34327709437613 214.24234477662756,96.09249291898364 215.39954941576175,97.01974022598219 215.9002629616515,98.36981230441938 216.2044000782365,99.14870004218763 216.43992089432467,99.97951362936885 216.68471418326175,100.66196764754086 217.48771035112247,100.61004179857001 218.31666944357917,100.58778786298097 219.0287953754646,100.63229573338529 219.5109639749933,101.86368015718989 219.67786849036358,102.44228247697806 219.79099266170687,103.29534999963779 219.82437356486935,103.93329614641064 219.90597132777467,104.68251197035494 219.90411683338175,106.50733467085968 219.8633179517633,107.2120426239575 219.82622805948333,108.22088769386137 219.77059322106342,108.79207203497248 219.700122425621,109.65997551465473 219.5202364480633,110.76525430437592 219.43492969581942,112.41204552215801 219.68528646881956,113.30220293665555 220.35475902436198,115.48308860260558 221.18742710604667,117.88651362256688 221.80497381272878,119.58523068865661 221.66403222195444,120.3937903402488 222.3372137668354,120.5718218237452 222.4410654651087,121.34329158283639 222.47630086288518,121.70677252695873 222.68029527031433,122.41148048071977 222.7841469688087,123.16811428334113 222.83607281789008,124.31048296523173 222.89356215103453,125.17838644480344 222.95476047329643,125.69764493650155 222.87687169950854,126.12046970871396 222.77858348507723,126.58038437243255 222.91210709706397,126.8771035113353 222.82865483943408,127.3073462611194 222.4874278304586,128.2568475040386 222.03122215541535,128.88737567279762 220.81096469940525,130.0074904195413 219.39598530892548,131.00149953253322 218.8099650109024,131.26854675683825 218.52622733507138,131.43916026132598 218.40568518505103,131.92874683953175 218.8192374839724,131.96583673203278 219.6630325334516,131.7655513137211 220.38628543279992,131.93616481776667 220.76645682866933,132.01776258111414 221.38400353513035,131.65428163654965 221.8884260702481,131.37981643356756 222.51339075516512,131.22403888643393 223.19584477322658,131.0608433601811 224.2325072622299,130.69736241572716 224.90939779644935,130.43031519142212 225.27658772991023,130.17068594535198 225.7068304804681,129.77753308729513 225.83479060872338,129.5401577769246 225.93678781260374,129.24343863835344 225.9349333178792,129.00606332754074 225.8792984794593,128.75385206014766 225.98500467256767,128.52389472834363 226.24463391841672,128.29393739609748 226.5413530567668,128.15299580554424 226.74905645353448,128.09365197778578 226.97530479633159,128.04914410671824 227.6651767927385,127.96754634414451 227.86360771643618,127.9304564516435 228.03793021026246,127.88594858123918 228.18443528465767,127.85627666697307 228.5608976912991,127.77467890439935 228.99299493636042,127.76726092583283 229.27116912845997,127.81918677524583 229.62166861050542,127.9304564516435 230.4098288214542,128.14557782719876 230.9810131625653,128.33844526694392 231.26475083850684,128.49422281451967 231.5874329015634,128.60549249091736 232.01582115717565,128.76127003882473 232.5647515629188,128.96155545713643 232.91896003419225,129.13958693985907 233.13222691491245,129.29536448743482 233.31396738697362,129.65884543233093 233.53650674065327,130.42289721274506 233.6718848475856,130.79379613554445 233.9092601580667,131.06826133852658 234.1651804147983,131.35756249842066 234.30983099469006,131.6765355721387 234.4841534885163,132.1067783222544 234.68629340133148,132.63345479262958 234.83465297045123,132.8411581896183 235.11653615188933,133.09336945734302 235.56346935375208,133.45685040113375 235.9343682765515,133.84258528117675 236.3460660809694,134.1838122898206 236.8560520998186,134.35442579430833 237.23807799019147,134.36184377331702 238.45091746774557,133.9019291089352 239.55248726857036,133.67938975503446 240.45748064020094,133.78324145352886 241.58872235462863,134.45085951478887 242.10241736281637,134.86626630843475 242.3156842433155,135.02204385589997 242.95548488514447,135.7119158520858 243.31525684037047,136.09023275323068 243.7251001500638,136.54272943893545 244.02738277214533,136.8617025129851 244.10898053505068,137.0248980389063 244.1979962767436,137.42546887552967 244.3037024696309,137.92247343197033 244.35748281343683,138.9758263727207 244.14050694348862,139.05742413562604 243.88829567609557,139.19094774761274 243.3987090978898,139.4357410371025 243.89200466521302,140.71905130987795 244.61340307016843,140.91933672830018 245.00099244449382,140.85999290021013 246.40484486717907,141.11962214661187 246.27317574958528,142.25457285048861 246.67374658620864,142.42518635497635 246.97973819773924,142.50678411755007 246.7034185000326,143.5378831233746 247.58430344168121,143.6639887571264 247.54350456028382,144.13132139941152 247.82909673083935,144.16841129191255 248.23708554591872,144.33902479640028 249.04193620839345,144.5689821282043 249.21625870199864,144.96955296515927 249.5092688510102,145.24401816780977 249.8263874300037,145.39237773737167 250.18430489061566,145.47397549994542 250.44393413646472,145.47397549994542 251.6845910333393,145.60008113369722 252.26133885818186,145.60749911270588 252.3039922343038,145.87454633701094 252.40598943807365,146.4086407852894 252.40969842741217,146.6460160961021 252.31326470737378,147.43973979111394 252.19643154669197,147.654861166006 252.1222517621321,147.7661308430669 252.02210905297625,148.01092413189343 251.9887281499243,148.2260455071171 252.00356410683628,148.3150612486995 252.10185232148865,148.38924103370152 252.21497649283194,148.4485848606862 252.60256586726788,148.5969444299165 252.86775859718,148.7453039994784 253.09957042392963,148.87882761146514 253.28131089588027,148.95300739580395 253.47417833573596,149.012351223894 253.61882891562774,149.07911302988737 253.80242388252398,149.24230855569803 253.93038401077925,149.38325014669343 253.98416435458518,149.4500119526868 254.03238121465964,149.5464456725041 254.13066942909094,149.6873872634995 254.2586295576778,149.83574683239817 254.33280934201662,149.92476257353843 254.3402273204726,149.98410640129686 254.26419304140927,150.14730192710755 254.23823011670277,150.2288996906761 254.22524865451533,150.36984128100826 254.2419391060413,150.49594691509168 254.2864469766667,150.75557616071967 254.2493570844973,150.82975594539008 254.19557674069137,150.89651775171504 254.097288526039,151.0597132771941 254.05834413914505,151.15614699767463 254.0212542468651,151.39352230782413 253.8914396238853,151.60122570448127 253.84507725853538,151.6383155973139 253.87474917235934,151.74958527371155 253.98972783842714,151.9572886707003 254.0286722253211,152.13532015342295 253.9526379461472,152.14273813210002 254.19186775135285,152.77326630085904 254.2159761813348,153.2405989435863 254.1473598806169,153.35186862031557 254.06947110682904,153.60407988770865 254.34208181519713,154.63517889320156 254.43109755655846,155.1915272774007 254.47745992190838,155.34730482530804 254.63323746948416,155.59951609270112 254.68145432955862,156.0965206491418 254.6647638779221,156.3709858517923 254.6128380288407,156.51192744278768 254.45891497587897,156.7196308396659 254.38658968582254,156.83090051650572 254.3661902451791,156.96442412849245 254.38844418054705,157.09794774047916 254.35506327738457,157.31306911570283 254.28088349293523,157.48368262019056 254.2345211275853,157.66913208159028 254.21968517067333,157.86199952199865 254.2215396651768,158.1290467463037 254.26233854668473,158.32933216428376 254.3105554067592,158.42576588410108 254.36062676122657,158.52961758259545 254.49044138442744,158.64088725932473 254.70556275954056,158.84117267807858 254.89286671544374,159.00436820388924 255.33794542291358,159.2046536218693 255.40841621824546,159.35301319109962 255.63281006653912,159.5829705236774 255.97403707562512,160.64374144299427 256,161.04431227928603 255.6810269263925,162.60950573338906 255.5697572496632,163.12876422508717 255.52710387343075,163.95957781226838 254.9707554892316,164.0560115320857 255.02453583303753,164.55301608896852 254.84094086625183,164.7162116147792 254.46262396499642,164.9090790551876 254.27161101986525,165.19096223607298 254.02681773092817,165.36157574089233 253.70228117347867,165.13161840831455 253.6002839695983,165.3244858480597 253.57803003423035,165.83632636218613 253.5372311527224,166.5187803796949 253.3406547235282,167.30508609647183 253.25534797128432,168.04688394207065 253.10884289677853,170.962149475053 253.09029795074912,172.8388980245286 253.20898560593437,173.77356330987257 250.64792854411493,173.77356330987257 249.12724296063732,173.91450490042584 247.84207819302682,173.26172279607778 245.6222481400723,172.09710017892976 243.62681193541144,170.73961012148388 243.1001354651468,171.19210680685703 242.7051281123654,170.76928203497624 242.54935056478965,170.84346181997824 240.29243061944467,169.68625718073355 239.06846417420658,169.53047963326833 237.91125953507242,169.56015154676066 236.55191498301255,169.678839202167 235.89171490042958,169.9310504695601 233.25462355943625,170.19809769386512 230.18358047854653,170.5393247031722 230.21139789786704,171.18468882884318 229.00412190415494,171.85972486811704 228.23636113384958,170.70993820765995 227.99713132864397,170.76186405663077 226.60811486276015,170.9695674532879 226.3818665198525,170.5096527889061 225.43792876132798,170.57641459523106 224.67758596969972,170.66543033648185 224.71653035659367,171.1105090442833 223.7614656302746,171.61493157906943 223.71881225426324,171.51107988057507 222.1183834022732,171.60009562215745 221.59170693189805,171.52591583748705 221.51381815811015,171.90423273896351 220.7442028934119,171.83747093297015 220.4103938627819,171.7187832775638 219.95233369312461,171.79296306179208 219.5814347703252,171.88939678205153 219.2568982128757,172.1786979415035 218.59484363567873,172.53476090739093 218.37786776584107,172.42349123066163 217.54705417888093,172.79439015346105 217.38014966351065,172.6386126058853 215.92993487547545,172.8018081320276 214.00682396076047,173.5881138484729 215.03050498757634,174.25573190906968 212.13934788435486,175.17556123816493 210.64091623624523,176.08055460924282 211.40867700644003,176.67399288627456 205.60225437001515,180.04175510496168 204.72136942836653,180.39040009250365 203.0411973081957,180.5832675322488 200.78242286823672,180.82806082162804 193.01394493042397,181.6811283440667 189.5145135935904,182.08169918035847 184.98212875698152,182.55644980165226 184.14018820222685,182.60837565106524 183.63762016183364,182.51935990915123 181.2842664968924,181.21379570144998 166.79695457212608,173.1949609900844 165.92534210354745,172.76471823996872 165.15572683884918,172.66086654147432 164.24516998337663,172.6757024980547 162.87284396890823,173.1875430118495 159.5718435559934,174.75273646595252 153.804365306573,177.69025593485551 148.1240483037894,181.07285411045459 146.3975138181581,182.03719130995415 145.23660018990648,182.68997341363897 143.9718348630499,183.39468136706842 142.27868128047058,183.95102975126753 138.35827966659127,185.11565236874716 134.78281405091542,186.05773563265768 128.30320986938852,186.9998188965682 127.47981426088435,187.05916272465825 126.88637598429474,186.98498293965622 126.46355121230341,186.77727954344124 125.85342248429838,186.2431850940574 122.53387712535412,182.99411053044503 120.70534543584246,182.56386777988718 119.45912505534695,182.42292618966553 118.06825409484914,182.63804756455758 117.47667031287352,182.81607904761185 116.84985113334251,183.2834116903391 116.36211904986128,183.83976007453825 115.43116275363474,185.4865512915466 114.45755308128626,187.08141665980514 113.98094796559955,187.45973356095 113.54699622592423,187.68969089341726 112.72916410115151,187.92706620356674 111.49407068811892,188.26087523463892 110.22559637225545,188.6466101143503 109.83058901947406,188.8839854248314 109.4300181828507,189.29939221803514 108.2783770275585,191.01294524170004 106.52402512271726,192.22949370792946 105.08493730225553,193.156741014928 102.67780329317677,195.0038176510218 100.615605282412,196.46515940663042 99.79962765236382,196.72478865259 98.46624602478937,196.9399100279242 93.80590105992523,197.622364045433 93.20875379421817,197.60011011061772 92.9324340967326,197.5704381963516 91.8494092421583,197.16244938182493 86.02629615409691,194.440051287814 84.65767912896706,193.80210514104112 83.35396941532711,193.43120621824173 79.82486616489065,193.6685815287228 73.46394963888064,193.86144896835742 71.92286461475959,193.89853886052683 71.84497584097171,193.86144896835742 71.78563201321327,193.78726918412914 71.72628818556537,193.7130893991271 71.39433364965988,193.7279253560391 71.1736487908153,193.5424758946394 70.66551726635903,193.26801069243103 70.80645885702282,192.88227581260912 70.61915490100911,192.1998217944371 70.04426157078055,191.3690082072559 69.03356200604159,190.62721036165703 68.17307650525748,189.86315858080079 67.06779771531522,188.99525510122908 66.10902399976818,188.11251566496645 64.89989351144209,187.1852683579679 64.17849510670776,186.6585918880349 63.16408655274081,185.9687198914069 63.07692530588295,185.8500322364427 62.4334156749365,185.5681490544519 61.23541215429438,184.78926131668368 60.09675246118963,184.292256760243 59.23997594952297,183.91393985909812 58.64468317842991,183.46886115173882 58.338691567230924,183.3427555176554 58.338691567230924,183.51336902214314 57.25752120716009,183.51336902214314 57.25752120716009,184.0548814494303 56.71786327448694,184.0548814494303 56.71786327448694,184.58897589837198 55.64040190386516,184.58897589837198 55.64040190386516,185.13048832565914 55.10074397119201,185.13048832565914 55.10074397119201,185.6720007529463 54.019573611342246,185.6720007529463 54.019573611342246,186.21351318023343 52.93654875665741,186.21351318023343 52.93654875665741,186.7550256078522 51.31942945314141,186.7550256078522 51.31942945314141,187.28912005646228 50.23640459856711,187.28912005646228 50.23640459856711,187.02207283182562 50.123280427223825,187.08141665980514 48.789898799649386,187.57842121602476 47.58633179516527,187.6971088714311 46.07491868486819,187.6526010010268 44.55237860677658,187.15559644414395 43.47862622527226,186.50281434045914 42.96122222796708,186.1541693528066 42.703447476510945,185.94646595626 41.744673761074445,185.2862658732349 41.66307599816911,185.26401193830907 41.529552385850785,185.1898321537492 41.542533848148764,185.0488905627538 41.68347543881254,184.98212875642884 41.87634287866824,184.9747107780834 41.96350412563664,185.13048832565914 42.69973848728295,185.5310591622825 45.034547206305284,187.02207283182562 46.22698724310541,187.37071781936763 47.428699752975525,187.474569517862 48.776917337351406,187.2742840995503 49.483479785394834,186.97756496175293 49.62627587056207,186.59183008204153 50.23640459856711,186.21351318023343 50.305020899285005,186.21351318023343 50.777917025854265,186.21351318023343 50.777917025854265,185.9538839344949 50.777917025854265,185.6720007529463 51.29161203404199,185.6720007529463 51.85352390208311,185.6720007529463 51.85352390208311,185.36044565823693 51.85352390208311,185.13048832565914 52.27263968484645,185.13048832565914 52.39503632937026,185.13048832565914 52.39503632937026,185.06372651966578 52.39503632937026,184.58897589837198 53.251812841036916,184.58897589837198 53.47620668933056,184.58897589837198 53.47620668933056,184.46287026506235 53.47620668933056,184.0548814494303 54.019573611342246,184.0548814494303 54.019573611342246,183.51336902214314 55.10074397119201,183.51336902214314 55.10074397119201,182.971856594856 55.64040190386516,182.971856594856 55.64040190386516,182.43034416790044 56.17449635269632,182.43034416790044 56.17449635269632,181.8888317406133 57.25752120716009,181.8888317406133 57.25752120716009,181.7701440856491 57.25752120716009,181.34731931343669 57.799033634447234,181.34731931343669 57.799033634447234,180.81322486471606 58.88020399440754,180.81322486471606 58.88020399440754,180.27171243742893 59.42171642169469,180.27171243742893 59.42171642169469,179.7302000102523 58.88020399440754,179.7302000102523 58.88020399440754,179.18868758296514 58.338691567230924,179.18868758296514 58.338691567230924,178.6471751553464 57.799033634447234,178.6471751553464 57.799033634447234,178.11308070629417 57.25752120716009,178.11308070629417 57.25752120716009,177.57156827944917 56.71786327448694,177.57156827944917 56.71786327448694,177.030055852162 56.45081605018189,177.030055852162 52.64353860764587,179.0403280132927 52.27263968484645,179.35930108745288 51.78676209586868,179.63376628966122 51.38619125924531,179.20352353954553 51.8609418805391,178.93647631524047 52.43954419999565,178.78811674623125 56.17449635269632,176.8149344764962 56.17449635269632,176.48854342487485 55.64040190386516,176.48854342487485 55.64040190386516,176.26600407064254 55.64040190386516,175.9470309972561 55.41971704468897,175.9470309972561 55.10074397119201,175.9470309972561 55.0821990249415,175.78383547144543 51.87763233206507,177.46771658095477 51.52156936617763,177.84603348232073 51.05609121795383,178.09082677114728 50.65737487605499,177.65316604235448 51.10987156175974,177.40837275286472 51.72000028976478,177.26001318396604 55.05252711122809,175.479698354971 55.0451091327721,175.40551856996896 54.559231543904865,175.40551856996896 54.559231543904865,175.19039719507688 54.559231543904865,174.87142412135887 54.019573611342246,174.87142412135887 54.019573611342246,174.4040914783 51.1599429164482,175.9099411047551 50.79831646660823,176.29567598446647 50.299457415443015,176.54788725252277 49.93968546054865,176.11764450207545 50.39589113537086,175.8580152556737 50.980056938890485,175.71707366545206 53.47620668933056,174.3299116940717 53.47620668933056,173.78839926645296 54.5091601892164,173.78839926645296 54.559231543904865,173.75872735296062 54.559231543904865,173.2468868391658 55.10074397119201,173.2468868391658 55.10074397119201,171.62976753564982 54.559231543904865,171.62976753564982 54.559231543904865,171.08083713045934 54.559231543904865,170.5467426810755 55.64040190386516,170.5467426810755 55.64040190386516,170.00523025411997 56.17449635269632,170.00523025411997 56.17449635269632,169.47113580517828 57.25752120716009,169.4637178268328 57.25752120716009,168.92962337789112 57.799033634447234,168.92962337789112 57.799033634447234,168.38811095093558 58.88020399440754,168.38811095093558 58.88020399440754,167.84659852364842 59.42171642169469,167.84659852364842 59.42171642169469,167.30508609647183 60.497323297813,167.30508609647183 60.497323297813,166.76357366918467 61.042544714438684,166.76357366918467 61.042544714438684,166.22947921980082 61.5784936577733,166.22947921980082 61.5784936577733,165.68796679251366 62.12000608506045,165.68796679251366 62.12000608506045,165.14645436566866 62.659664017733604,165.14645436566866 62.659664017733604,164.60494193838153 59.42171642169469,164.60494193838153 59.42171642169469,165.14645436566866 58.338691567230924,165.14645436566866 58.338691567230924,165.68796679251366 57.799033634447234,165.68796679251366 57.799033634447234,166.22947921980082 56.71786327448694,166.22947921980082 56.71786327448694,166.76357366918467 56.17449635269632,166.76357366918467 56.17449635269632,167.30508609647183 55.64040190386516,167.30508609647183 55.64040190386516,167.84659852364842 55.10074397119201,167.84659852364842 55.10074397119201,168.38811095093558 54.559231543904865,168.38811095093558 54.559231543904865,168.92962337789112 54.019573611342246,168.92962337789112 54.019573611342246,169.4637178268328 51.85352390208311,169.4637178268328 51.85352390208311,170.00523025411997 51.31942945314141,170.00523025411997 51.31942945314141,170.5467426810755 50.777917025854265,170.5467426810755 50.777917025854265,171.08825510836266 51.85352390208311,171.08825510836266 51.85352390208311,171.85230688988213 51.85352390208311,173.78839926645296 50.35323775924893,173.78839926645296 48.85480611113928,173.78839926645296 47.53811493520135,173.78839926645296 47.53811493520135,173.2468868391658 46.99289351879674,173.2468868391658 46.99289351879674,172.70537441187867 45.9154321479539,172.70537441187867 45.9154321479539,172.17127996326857 45.50373434375708,172.17127996326857 44.43554544609476,172.17127996326857 44.294603855320446,172.17127996326857 44.294603855320446,172.00066645844922 44.294603855320446,171.62976753564982 44.08133697482131,171.62976753564982 43.977485276326945,171.62976753564982 43.21714248480921,171.62976753564982 43.21714248480921,171.28112254877104 43.21714248480921,171.08825510836266 42.67192106807299,171.06600117310524 42.67192106807299,170.5467426810755 41.59445969756176,170.5467426810755 41.59445969756176,170.00523025411997 40.01813927566423,170.00523025411997 38.89246104474692,170.00523025411997 38.89246104474692,170.5467426810755 37.814999674125154,170.5467426810755 37.814999674125154,171.08825510836266 37.034257441632384,171.08825510836266 36.73382931416485,171.08825510836266 36.73382931416485,171.52591583748705 35.652658954094015,171.62976753564982 35.652658954094015,173.07627333467806 35.652658954094015,173.2468868391658 35.1111465269174,173.2468868391658 35.1111465269174,174.01093862035367 35.1111465269174,174.3299116940717 34.57148859413371,174.3299116940717 34.57148859413371,176.41436363987282 34.57148859413371,177.57156827944917 34.30815035894612,177.57156827944917 34.02997616684656,177.57156827944917 34.02997616684656,178.6471751553464 32.41285686355164,178.6471751553464 32.41285686355164,179.7302000102523 32.95251479611425,179.7302000102523 32.95251479611425,180.81322486471606 33.49402722351194,180.81322486471606 33.49402722351194,181.20637772244132 33.49402722351194,181.34731931343669 34.57148859413371,181.34731931343669 34.57148859413371,181.8888317406133 35.1111465269174,181.8888317406133 35.1111465269174,183.2092319056687 35.1111465269174,183.70623646255152 35.1111465269174,184.58897589837198 34.57148859413371,184.58897589837198 34.57148859413371,185.6720007529463 34.02997616684656,185.6720007529463 34.02997616684656,186.21351318023343 34.57148859413371,186.21351318023343 34.57148859413371,187.28912005646228 35.1111465269174,187.28912005646228 35.1111465269174,188.91365733865536 35.652658954094015,188.91365733865536 35.652658954094015,189.99668219322965 36.075483726195884,189.99668219322965 36.39631129430685,189.99668219322965 36.73382931416485,189.99668219322965 36.73382931416485,190.76073397364377 36.73382931416485,190.97585534919904 36.73382931416485,191.0722890691269 37.27348724683801,191.0722890691269 37.27348724683801,192.15531392403278 36.73382931416485,192.15531392403278 36.73382931416485,192.6968263512094 36.52427142278318,192.6968263512094 36.192316886877705,192.6968263512094 36.192316886877705,193.23092079993003 36.73197481955086,193.23092079993003 36.73382931416485,194.3139456543938 37.26792376288548,194.3139456543938 37.27348724683801,194.40296139564458 37.27348724683801,194.5513209652065 37.27348724683801,194.85545808168095 37.46820918141824,194.85545808168095 37.814999674125154,194.85545808168095 37.814999674125154,195.93848293592364 38.35094861745978,195.93848293592364 38.35094861745978,196.47257738486533 36.73382931416485,196.47257738486533 36.73382931416485,195.49340422922756 36.683757959476395,195.39697050863649 36.192316886877705,195.39697050863649 36.192316886877705,194.37328948182062 36.16820845689574,194.3139456543938 35.652658954094015,194.3139456543938 35.652658954094015,193.23092079993003 35.1111465269174,193.23092079993003 35.1111465269174,192.15531392403278 34.57148859413371,192.15531392403278 34.57148859413371,191.0722890691269 34.02997616684656,191.0722890691269 34.02997616684656,189.99668219322965 33.49402722351194,189.99668219322965 33.49402722351194,188.3721449110366 32.95251479611425,188.3721449110366 32.95251479611425,186.7550256078522 32.41285686355164,186.7550256078522 32.41285686355164,185.13048832565914 31.87134443626449,185.13048832565914 31.87134443626449,183.97328368685658 31.87134443626449,183.51336902214314 31.691458458596234,183.51336902214314 31.331686503591335,183.51336902214314 31.331686503591335,182.59353969415326 31.331686503591335,182.43034416790044 31.266779191990903,182.43034416790044 30.790174076304186,182.43034416790044 30.790174076304186,181.25088559317723 30.790174076304186,180.81322486471606 30.60657910962901,180.81322486471606 30.250516143631035,180.81322486471606 30.250516143631035,179.9749932986367 30.250516143631035,179.18868758296514 29.918561607725554,179.18868758296514 29.712712705461342,179.18868758296514 29.712712705461342,178.92164035821796 29.712712705461342,177.57156827944917 29.173054772788188,177.57156827944917 29.173054772788188,175.9470309972561 28.965351376020514,175.9470309972561 28.63154234550104,175.9470309972561 28.63154234550104,174.3299116940717 29.173054772788188,174.3299116940717 29.173054772788188,173.2468868391658 29.712712705461342,173.2468868391658 29.712712705461342,172.17127996326857 30.250516143631035,172.17127996326857 30.250516143631035,171.62976753564982 30.790174076304186,171.62976753564982 30.790174076304186,171.08825510836266 32.41285686355164,171.08825510836266 32.41285686355164,170.5467426810755 33.49402722351194,170.5467426810755 33.49402722351194,170.00523025411997 35.1111465269174,170.00523025411997 35.1111465269174,169.47113580517828 36.192316886877705,169.4637178268328 36.192316886877705,168.92962337789112 37.27348724683801,168.92962337789112 37.27348724683801,168.38811095093558 38.69588461577377,168.38811095093558 38.89246104474692,168.38811095093558 38.89246104474692,168.14331766188795 38.89246104474692,167.84659852364842 39.28375940841085,167.84659852364842 39.97363140470723,167.84659852364842 39.97363140470723,167.30508609647183 40.708011271850076,167.30508609647183 41.05480176466753,167.30508609647183 41.05480176466753,167.02320291448103 41.05480176466753,166.76357366918467 41.36450236520505,166.76357366918467 42.135972124627834,166.76357366918467 42.135972124627834,166.22947921980082 42.67192106807299,166.22947921980082 42.67192106807299,165.14645436566866 43.21714248480921,165.14645436566866 43.21714248480921,162.98782263486552 42.67192106807299,162.98782263486552 42.67192106807299,160.82177292538532 42.135972124627834,160.82177292538532 42.135972124627834,159.74616604948807 41.59445969756176,159.74616604948807 41.59445969756176,159.2046536218693 40.89531522786378,159.2046536218693 40.51328933738038,159.2046536218693 40.51328933738038,157.78040175865115 40.51328933738038,157.04602189139777 39.97363140470723,156.96442412849245 39.97363140470723,156.50450946411064 39.67134878262571,156.50450946411064 39.43211897742008,156.50450946411064 39.43211897742008,156.14102851998828 39.43211897742008,155.42148460986795 38.89246104474692,155.3176329114841 38.89246104474692,154.87997218269132 38.603159885073914,154.87997218269132 38.35094861745978,154.87997218269132 38.35094861745978,154.4942373028694 38.35094861745978,153.80436530602034 37.89845193175503,153.80436530602034 37.814999674125154,153.26285287873318 37.54424346048158,153.26285287873318 37.27348724683801,153.26285287873318 37.27348724683801,152.8548640642065 37.27348724683801,152.17982802460102 36.73382931416485,152.17982802460102 36.73382931416485,151.6457335755488 36.47976355193671,151.6457335755488 36.192316886877705,151.6457335755488 36.192316886877705,151.25258071760248 36.192316886877705,150.56270872108504 35.652658954094015,150.56270872108504 35.652658954094015,150.02119629379789 35.146381924472806,150.02119629379789 34.57148859413371,150.02119629379789 34.57148859413371,149.47968386651073 34.02997616684656,149.47968386651073 34.02997616684656,148.70079612841087 34.02997616684656,147.86256456299475 33.49402722351194,147.86256456299475 33.49402722351194,147.3210521357076 32.95251479611425,147.3210521357076 32.95251479611425,146.77953970808883 32.40729337959911,146.77953970808883 31.87134443626449,146.77953970808883 31.87134443626449,146.23802728080167 31.331686503591335,146.23802728080167 31.331686503591335,145.7039328325232 30.790174076304186,145.7039328325232 30.760502162480233,145.16242040490445 30.250516143631035,145.16242040490445 30.17819085357461,144.6209079776173 29.896307672247055,144.6209079776173 29.712712705461342,144.6209079776173 29.712712705461342,144.4206225593056 29.60886100718804,144.36127873154717 29.57918909325355,144.16841129191255 29.173054772788188,144.07939555033013 29.173054772788188,143.71591460620778 29.14523735368877,143.5378831233746 28.63154234550104,143.5378831233746 28.63154234550104,142.99637069608744 28.427547938182432,142.99637069608744 28.091884412827888,142.99637069608744 28.091884412827888,142.68481560071487 28.091884412827888,142.49936613931516 27.997305187514037,142.46227624681416 27.852654607622263,142.46227624681416 27.55037198554074,142.46227624681416 27.55037198554074,142.18039306592874 27.55037198554074,141.920763819527 27.26663430970972,141.920763819527 27.008859558253587,141.920763819527 27.008859558253587,141.675970530811 27.008859558253587,141.37925139223984 26.686177495528632,141.37925139223984 25.927689198293287,141.37925139223984 25.927689198293287,140.8377389649527 25.391740254848127,140.8377389649527 25.391740254848127,140.2962265381077 24.846518838332983,140.2962265381077 24.846518838332983,139.76213208872386 24.308715400384365,139.76213208872386 24.308715400384365,139.2206196617683 23.769057467600675,139.2206196617683 23.769057467600675,138.67910723448117 23.227545040313526,138.67910723448117 23.210854588898087,138.13759480730454 22.146374680353222,138.13759480730454 22.146374680353222,137.5960823800174 21.60671674768007,137.5960823800174 21.60671674768007,137.05456995273025 21.065204320392922,137.05456995273025 21.065204320392922,136.52047550412016 20.525546387719768,136.52047550412016 20.525546387719768,135.43745064921424 19.98774294977115,135.43745064921424 19.98774294977115,134.35442579430833 19.448085017098,134.35442579430833 19.448085017098,133.2788189187427 19.98774294977115,133.2788189187427 19.98774294977115,132.74472446969048 19.98774294977115,132.41091543939208 19.98774294977115,132.33673565483218 19.98774294977115,132.19579406383681 20.525546387719768,132.19579406383681 20.525546387719768,131.65428163654965 21.065204320392922,131.65428163654965 21.065204320392922,130.5786747603208 21.297016147142557,130.5786747603208 21.60671674768007,130.5786747603208 21.60671674768007,129.49564990574652 22.146374680353222,129.49564990574652 22.146374680353222,127.87853060223051 22.68788710764037,127.87853060223051 22.68788710764037,126.23173938555378 22.68788710764037,124.63687401751628 23.227545040313526,124.63687401751628 23.10514839578972,118.69507327415907 22.68788710764037,118.69507327415907 22.68788710764037,112.27110393116263 22.68788710764037,111.12873524927203 23.227545040313526,111.12873524927203 23.09216693349174,104.11132762957544 22.68788710764037,104.11132762957544 22.68788710764037,102.72416565819508 22.68788710764037,100.32815861724245 22.146374680353222,100.32815861724245 22.146374680353222,99.24513376277869 21.60671674768007,99.24513376277869 21.60671674768007,99.00034047328893 21.60671674768007,98.1695268861077 21.367486942474446,98.1695268861077 21.065204320392922,98.1695268861077 21.065204320392922,97.5983425449966 21.065204320392922,97.08650203197554 20.78703012829336,97.08650203197554 20.525546387719768,97.08650203197554 20.525546387719768,96.6043334320047 20.525546387719768,96.00347717740125 20.202864324884274,96.00347717740125 19.98774294977115,96.00347717740125 19.98774294977115,95.61032431868118 19.98774294977115,94.92787030117239 19.448085017098,94.92787030117239 19.448085017098,94.61631520568928 19.448085017098,93.8448454465981 18.906572589810846,93.8448454465981 18.906572589810846,93.61488811435193 18.906572589810846,93.3700948249727 18.906572589810846,93.30333301897934 18.63396188144274,93.30333301897934 18.49487478539296,93.30333301897934 18.36691465724823,93.30333301897934 18.36691465724823,93.07337568717531 18.36691465724823,92.76182059169219 18.031251131893686,92.76182059169219 17.897727519685894,92.66538687220648 17.825402229850546,92.2277261430821 17.647370746906823,92.2277261430821 17.37846902776671,92.2277261430821 16.744231870000778,92.2277261430821 16.744231870000778,91.87908115542957 16.744231870000778,91.68621371579495 16.204573937106552,91.68621371579495 16.11555819574523,91.1447012881762 15.668624993771932,91.1447012881762 15.668624993771932,90.79605630129743 15.57033677911955,90.69220460280305 15.127112566484783,90.60318886088905 15.127112566484783,90.29163376617967 15.127112566484783,90.06167643360189 14.852647363502676,90.06167643360189 14.58745463381163,90.06167643360189 14.555928225373679,89.52016400664635 14.04594220652448,89.52016400664635 14.04594220652448,88.98606955770465 13.506284273851328,88.98606955770465 13.506284273851328,88.44455713041751 12.964771846564178,88.44455713041751 12.964771846564178,87.90304470346196 12.42511391378049,87.90304470346196 12.42511391378049,84.46110269944123 12.42511391378049,81.41973153281761 11.887310475721334,81.41973153281761 11.887310475721334,79.6765065952182 11.887310475721334,79.26109980201446 10.80614011576103,79.26109980201446 10.80614011576103,78.7195873743957 9.971617539462342,78.7195873743957 9.185311823238113,78.7195873743957 9.185311823238113,78.17807494710856 8.104141463277811,78.17807494710856 8.104141463277811,77.10246807121132 7.566338025108118,77.10246807121132 7.566338025108118,75.47793078968148 7.022971103317508,75.47793078968148 7.022971103317508,74.11302275322694 7.022971103317508,72.77778663125957 6.4851676651478165,72.77778663125957 6.4851676651478165,70.61915490078803 5.9455097324746635,70.61915490078803 5.9455097324746635,69.53613004632427 5.403997305187514,69.53613004632427 5.403997305187514,68.99461761903711 5.068333780164577,68.99461761903711 4.864339372514362,68.99461761903711 4.864339372514362,68.0228624411921 4.827249480344956,67.95610063486714 4.780887114995029,67.91159276413121 4.322826945227212,67.85224893681492 4.322826945227212,67.50360394949399 4.278319074601818,67.46651405699298 4.118832537687532,67.37749831552112 3.7831690126645956,67.37749831552112 3.7831690126645956,66.83598588823398 3.7831690126645956,66.29447346061521 3.2453655744949037,66.29447346061521 3.2398020906529124,65.21886658504958 2.70014415797976,65.21886658504958 2.70014415797976,64.67735415743083 2.1641952145346015,64.67735415743083 2.1641952145346015,63.59432930285653 1.624537281861449,63.59432930285653 1.624537281861449,59.277065841250234 2.1641952145346015,59.277065841250234 2.1641952145346015,58.73555341429469 2.70014415797976,58.73555341429469 2.70014415797976,58.19404098700755 3.2398020906529124,58.19404098700755 3.2453655744949037,57.652528559830934 3.7831690126645956,57.652528559830934 3.7831690126645956,57.11101613254378 4.322826945227212,57.11101613254378 4.322826945227212,56.57692168382316 4.6325275457647255,56.57692168382316 4.864339372514362,56.57692168382316 4.864339372514362,56.035409256646545 5.403997305187514,56.035409256646545 5.403997305187514,55.49389682935939 5.9455097324746635,55.49389682935939 5.9455097324746635,54.95238440174064 6.4851676651478165,54.95238440174064 6.4851676651478165,54.410871974453485 7.022971103317508,54.410871974453485 7.022971103317508,53.33526509855625 7.566338025108118,53.33526509855625 7.566338025108118,50.63512094046595 7.358634628340445,50.63512094046595 7.022971103317508,50.63512094046595 7.022971103317508,46.85195192746975 6.4851676651478165,46.85195192746975 6.4851676651478165,45.768927073227054 7.022971103317508,45.768927073227054 7.022971103317508,44.69332019732982 7.358634628340445,44.69332019732982 7.566338025108118,44.69332019732982 7.566338025108118,43.61029534286605 8.104141463277811,43.61029534286605 8.104141463277811,42.527270487960145 8.643799395950962,42.527270487960145 8.643799395950962,40.910151184775756 8.104141463277811,40.910151184775756 8.104141463277811,39.82712632986985 7.566338025108118,39.82712632986985 7.566338025108118,38.21000702668546 7.022971103317508,38.21000702668546 7.022971103317508,36.051375295882316 7.566338025108118,36.043957317205255 7.566338025108118,33.34381315944657 8.104141463277811,33.34381315944657 8.104141463277811,31.185181429085567 7.566338025108118,31.185181429085567 7.566338025108118,30.10957455241457 7.022971103317508,30.10957455241457 7.022971103317508,29.02654969828242 6.4851676651478165,29.02654969828242 6.4851676651478165,28.804010344381695 6.4851676651478165,27.94352484370812 5.9455097324746635,27.94352484370812 5.9455097324746635,27.63196974855661 5.9455097324746635,26.867917967479272 5.403997305187514,26.867917967479272 5.403997305187514,26.45992915251045 5.403997305187514,25.784893112904975 5.088733220808009,25.784893112904975 4.864339372514362,25.784893112904975 4.864339372514362,25.287888556022143 4.864339372514362,24.701868257999063 4.562056750432836,24.701868257999063 4.322826945227212,24.701868257999063 4.322826945227212,24.24937157229431 4.322826945227212,23.626261382101827 3.9982903877777214,23.626261382101827 3.7831690126645956,23.626261382101827 3.7831690126645956,23.210854588898087 3.7831690126645956,22.54323652719592 3.2453655744949037,22.54323652719592 3.2398020906529124,22.1723376043965 3.2398020906529124,22.001724099908767 2.70014415797976,22.001724099908767 2.611128416618436,21.148656577912252 2.5888744811399347,20.92611722401153 2.1641952145346015,20.92611722401153 2.1641952145346015,20.013705873924962 2.1641952145346015,19.84309236976884 1.624537281861449,19.84309236976884 1.5930108734234985,18.760067515305078 1.0830248545742993,18.760067515305078 1.0830248545742993,17.684460638634082 0.5415124272871497,17.684460638634082 0.5415124272871497,16.60143578450193 0,16.60143578450193 0,14.984316480875396 0.5415124272871497,14.984316480875396 0.5415124272871497,11.742659895608487 1.0830248545742993,11.742659895608487 1.0830248545742993,10.444513665810526 1.0830248545742993,9.413414660317608 1.0830248545742993,7.959490882943892 1.624537281861449,7.959490882943892 1.624537281861449,5.259346724853595 1.3778894981998362,5.259346724853595 1.5485030026875684,5.200002897537298 1.9231109148255165,4.992299500548551 2.217975558340517,4.851357910326918 2.592583470367929,4.754924189735851 3.002426780061285,4.717834297566445 3.523539766594467,4.725252275911897 3.9649094847257738,4.747506211832545 4.19672131147541,4.762342168744522 4.677035416500655,4.821685996392429 5.096151199263997,4.881029823819262 5.307563585370202,4.947791630144231 5.493013046769911,5.021971414704114 5.908419840305259,5.162913005036283 6.398006418289953,5.3112725739349775 6.728106459691971,5.437378208018389 7.143513253116782,5.674753518831089 7.484740262202783,5.786023195228768 7.881602109487623,5.8824569153776896 8.146794839289207,5.934382764790681 8.521402751427155,5.83794904431015 8.86819324424461,5.7711872383167915 9.163057887870147,5.60799171283773 9.389306230667255,5.496722035334686 9.771332121150657,5.392870337503531 10.13666756021862,5.3112725739349775 10.49273052610606,5.222256833126336 10.81726708355555,5.200002897537298 11.173330049332455,5.229674811029642 11.553501445201857,5.192584919191846 11.883601486603876,5.140659069778855 12.282317828502713,5.066479285218971 12.569764493782799,4.9997174792256125 12.846084191157829,4.992299500548551 13.122403888643394,5.044225349629933 13.426541005449453,5.162913005036283 13.610135972124628,5.303854596031671 13.832675325804278,5.533811927835701 14.012561303361997,5.786023195228768 14.127539969429815,6.00114457045243 14.25179110856762,6.3201176445020755 14.357497301565454,6.5871648689176565 14.429822591511341,6.646508696233953 14.617126547635584,6.802286244141318 14.787740052123315,6.898719963627021 15.052932781814363,6.869048050134677 15.30328955470397,6.817122200721686 15.562918800663562,6.831958157633662 15.944944691146961,6.8542120932227 16.295444173302947,6.958063791717073 16.612562752296448,7.150931231020088 16.98160718048187,7.403142498744765 17.239381931716927,7.55892004632052 17.44152184464261,7.647935788234527 17.576899951574934,7.699861637315909 17.79202132668806,7.870475141361495 18.047941583530196,8.16719427993264 18.246372507117346,8.352643741332347 18.339097237817203,8.404569590413729 18.422549495447072,8.367479697912714 18.68403323602066,8.02625268893725 18.958498438892228,7.692443658307238 19.240381620219786,7.328962714516491 19.451794006215454,7.032243575945348 19.72625920919756,6.5871648689176565 19.9321081112407,6.409133385421253 19.98217946581862,6.3052816875900985 19.919126649053258,6.186594031852139 19.69102381142108,6.03081648471853 19.36463275935759,5.8972928722896665 19.125402954151966,5.7340973461473865 19.03453271806611,5.526393949490249 19.14209340567794,5.348362466435992 19.321979383235657,5.185166940625321 19.60015357533522,5.140659069778855 19.907999681258737,5.125823112535269 20.251081184958736,5.192584919191846 20.599726172390188,5.192584919191846 21.048513868866948,5.170330983713344 21.465775157016292,5.162913005036283 21.78845721996232,5.140659069778855 22.107430293459284,5.118405134631963 22.439384829364762,5.162913005036283 22.801011279204733,5.229674811029642 23.27947088961598,5.2890186391196945 23.550227103259555,5.326108531178563 23.704150156221313,5.407706294526045 23.83396477909057,5.60799171283773 23.902581079808467,5.852785001222127 23.950797939882925,6.142086161116209 24.050940648928233,6.3126996659355505 24.238244605052476,6.446223277922268 24.51641879715204,6.461059234834245 24.816846924619565,6.386879450163825 25.04680425664467,6.164340097036857 25.319414965012776,5.8824569153776896 25.52340937244192,5.652499582910441 25.69587737154365,5.392870337503531 25.90543526292532,5.044225349629933 26.05750382127308,4.792014082236865 26.085321240593576,4.613982599514218 26.035249885905117,4.391443245945104 26.06492179972907,4.220829741125763 26.261498228923298,4.027962301380602 26.548944894092845,3.909274646305861 26.825264591578414,3.753497098840642 27.12940170838447,3.486449874093452 27.474337706477392,3.286164455781767 27.886035510784748,3.1229689296394865 28.145664756633803,3.071043080226495 28.518418174157755,3.100714994382058 28.84110023688271,3.071043080226495 29.219417138138116,2.8410857484224654 29.664495845497417,2.5369486319480163 30.133682982949217,2.3811710840406515 30.374767282879375,2.3366632136363306 30.47676448642814,2.3589171487832226 30.575052701080523,2.4182609765416663 30.59916113095195,2.4776048038579632 30.602870120179944,2.588874481029398 30.45265605644618,2.8262497918420983 30.38403975572829,2.9078475547474336 30.374767282879375,3.0042812742331364 30.54908977637403,3.071043080226495 30.88289880700404,3.100714994382058 31.151800525923083,2.9894453173211595 31.25379772980346,2.9894453173211595 31.39288482585324,3.1378048865514634 31.50786349192106,3.375180197032554 31.630260136334332,3.590301572256216 31.858362974077046,3.753497098840642 32.13653716617661,3.938946560240351 32.37205798193317,4.057634215315092 32.531544518736915,4.057634215315092 32.66135914182725,3.983454430313062 32.76150185098309,3.842512839980893 32.79302825942104,3.7164072063396274 32.807864216333016,3.434524025122607 32.73924791572566,3.167476800707026 32.52227204577747,2.774323942429107 32.47590968042754,2.5517845885283834 32.59645183022681,2.4256789551081908 32.94138782843027,2.2847373642233393 33.31785023518222,2.143795773227951 33.644241287135166,1.965764290836913 33.93539694164325,1.7135530234438456 34.17277225212434,1.5503574968594196 34.662358830330106,1.231384423141384 34.944242011547125,1.0310990048296984 35.335540375321585,0.778887737436631 35.44866454666487,0.6305281685379369 35.93083314619358,0.6676180610389516 36.82655404486471,1.0978608111546666 37.27348724683801,1.2165484662294073 37.63882268568489,1.3278181437324514 37.922560361736984,1.520685583035466 38.18218960758604,1.728388980024213 38.27120534916844,1.7432249369361896 38.81828126029758,1.4242518635497634 39.36164818208819,1.1201147467437045 39.69360271821474,0.897575392842981 40.14609940380896,0.7121259314432723 40.478053939714435,0.5118405131315867 40.73768318567403,0.25221126706145797 41.06221974312352,0.09643371992784856 41.212433806857284,0.05192584874977249 41.41271922516897,0.022253934925819084 41.624131611275175,0 41.779909158961466,0.014835956911976703 41.933832211812685,0.05934382742683383 42.130408640785845,0.17803148283318393 42.371492940605464,0.37831690114486943 42.642249154249036,0.6379461467728522 42.82955311037328,0.7937236943486077 42.992748636405025,0.9346652853439958 43.148526183870246,1.075606875897238 43.30801272078453,1.2165484662294073 43.50088016064023,1.3352361216357573 43.94595886788899,1.5132676051321603 44.31129430684642,1.654209195353793Z"/></svg>