<svg xmlns="http://www.w3.org/2000/svg" width="256" height="256"><path d="M119.68372008322555,3.64043647825281 120.07224051848985,3.667632908663417 120.42870801790274,3.667632908663417 120.63850905288757,3.667632908663417 120.97166532606882,3.6987145437161373 120.97457922939118,3.8230410831165016 120.99594785327282,3.9279416004641803 120.99789045550705,3.9590232351116423 120.99206264892018,3.9978752788696483 120.91435856198312,4.168824270328046 120.88813343248698,4.207676313738689 120.76963469973137,4.394166122665553 120.57537448209922,4.572885523060813 120.5510919548952,4.600081953645102 120.52972333101356,4.635048792760995 120.5141825135451,4.673900836287425 120.48310087872396,4.7826865579298525 120.46658876022522,4.817653397045746 120.44619143737384,4.844849827630035 120.42190891016983,4.8642758495090375 120.39179857649474,4.875931462624861 120.36071694161569,4.883701871388041 120.30243887638395,4.879816666745928 120.27621374694571,4.8642758495090375 120.20045226206918,4.790456966635139 120.17034192833619,4.767145740692962 120.13537508916241,4.743834514519211 120.09846564781229,4.73217890157707 120.05961360434377,4.724408492871784 120.0217328618476,4.724408492871784 119.91683234432624,4.7477197188139595 119.57784826461602,4.755490127519246 119.53996752211987,4.763260536224531 119.50402938185792,4.7710309451035 119.40981317630633,4.809882988514142 119.19029913049778,4.973061571440936 119.15144708685557,4.992487592972575 119.11065244115281,5.011913614677895 119.06694389218558,5.0157988193200085 118.9202774278733,5.019684023383181 118.61431758516056,5.0080284103831465 118.57546554157624,5.011913614677895 118.5366134980498,5.019684023383181 118.2325962574555,5.101273314962366 118.16266257910792,5.136240154078259 118.13449484755125,5.155666175957263 118.1111836214354,5.178977401899439 118.09467150293666,5.221714649720617 118.10535581496433,5.4237452762317355 118.1257531378157,5.474252932989777 118.15683477263686,5.513104976168843 118.19568681610538,5.5480718156321 118.22288324663178,5.559727428458452 118.32098465647812,5.594694267574345 118.35206629135716,5.606349880921745 118.3782914206796,5.6218906981586345 118.4006313457652,5.645201924448175 118.41908606638236,5.672398354685099 118.4501677012035,5.722906011385247 118.47056502405488,5.750102441969536 118.49387625022862,5.7734136679696055 118.54826911110774,5.816150915790785 118.60071936986841,5.870543776785681 118.64151401557118,5.9365922508964 118.70950509174243,6.1930157378813675 118.70853379071215,6.227982577344625 118.70076338194897,6.259064212049981 118.68327996241997,6.28626064263427 118.65705483298174,6.309571868576446 118.56478122960647,6.371735138102946 118.53855610028403,6.391161160155631 118.51621617519844,6.418357590566238 118.4997040566997,6.445554021150527 118.48707714255362,6.472750451561134 118.49776145458128,6.546569334029775 118.51621617519844,6.569880560377209 118.53952740131429,6.593191786319385 118.56769513287095,6.612617808198388 118.59780546660393,6.632043830077391 118.6308297036593,6.6475846473142814 118.84063073864412,6.729173938893466 118.88239668549294,6.752485164835642 118.9202774278733,6.775796390777818 119.01740753668938,6.86904129553072 119.04460396727367,6.904008134646613 119.06402998897899,6.938974973762506 119.10191073135937,7.0943831478103325 119.10385333359358,7.339151021968948 119.06597259109742,7.591689305064425 119.06111608565662,7.626656144180317 119.01643623560122,7.863653609633647 118.86005676040735,8.088995462318517 118.69396427433185,8.287140884013839 118.65414092971726,8.360959766887738 118.64151401557118,8.399811810240486 118.63277230577772,8.434778649530061 118.63374360686588,8.473630692940704 118.64248531671723,8.508597532056596 118.74252932873989,8.683431727983425 118.75612754403204,8.714513363036145 118.76584055485574,8.745594997683607 118.77263966253076,8.889347558789293 118.76778315703207,8.920429193610437 118.7570988451202,8.951510828489475 118.70173468303713,9.052526141716086 118.55021171334195,9.254556768111417 118.53272829369716,9.281753198290447 118.52204398178529,9.308949628874737 118.52204398178529,9.359457285632779 118.53078569152085,9.386653716043385 118.56866643395911,9.464357802980457 118.5764368426644,9.491554233564747 118.57935074592888,9.670273633554748 118.57255163831175,9.713010881607504 118.55992472416567,9.751862924960252 118.47639283058385,9.880074668829046 118.46765112079039,9.911156303476508 118.4822206371128,9.957778755766117 118.50747446540498,9.973319573003009 118.54147000354851,9.984975186350407 118.5764368426644,9.984975186350407 118.61140368189608,9.981089981708294 118.72018940377009,9.953893551297687 118.7570988451202,9.950008347060832 118.79692218973479,9.946123142592402 118.83577423320332,9.950008347060832 118.87171237346527,9.961663960002973 118.90182270725614,9.973319573003009 118.92610523446017,9.992745594882011 118.96204337466422,10.031597638640017 118.98632590186824,10.066564477755911 118.9921537083972,10.105416521108658 118.98535460078007,10.144268564692982 118.95330166487076,10.175350199340444 118.89988010502194,10.194776221219447 118.87074107237711,10.202546629924733 118.81731951258617,10.221972651630054 118.78041007123605,10.253054286451198 118.71047639283059,10.354069599562022 118.63957141345274,10.396806847556883 118.60946107966187,10.404577256435852 118.57740814375256,10.400692052025315 118.5443839067551,10.392921643320028 118.47445022840752,10.369610416972595 118.15586347149079,10.315217556325063 118.11409752469989,10.315217556325063 118.07718808340766,10.322987965088243 118.02473782470489,10.346299191030418 117.9402346299191,10.443429299846494 117.87418615598207,10.668771152299788 117.98588578106266,10.684311969768254 118.04610644852863,10.699852787178825 118.07718808340766,10.711508400352542 118.14129395522627,10.738704830531573 118.42491387296921,10.882457391637258 118.50164665893392,10.909653822047865 118.54147000354851,10.917424230753152 118.57935074592888,10.925194639458438 118.61431758516056,10.925194639458438 118.6483131231883,10.921309435221582 118.68036605921338,10.913539026689978 118.70950509174243,10.90188341334258 118.73670152226882,10.88634259610569 118.8833679865232,10.750360443531608 118.91833482575488,10.680426765299822 118.95330166487076,10.626033904304926 118.99603891286563,10.606607882773288 119.02517794539467,10.57552624777846 119.08928381721327,10.583296656483748 119.14270537706211,10.598837474068002 119.16407400100165,10.633804313010213 119.15921749556085,10.672656356594537 119.17378701194116,10.711508400352542 119.19709823805701,10.730934421826287 119.49820157532895,10.859146165695083 119.76628067566132,10.995128318037588 119.80027621380484,11.022324748274512 119.8284439453615,11.053406383327232 119.89740632262091,11.166077309380197 120.00619204443703,11.391419162065068 120.03241717381736,11.422500796538849 120.06544141081483,11.449697227123137 120.10235085216495,11.473008453412676 120.18685404683492,11.515745701060174 120.26941463938648,11.542942131644462 120.30632408073659,11.546827335939211 120.34129091985248,11.542942131644462 120.37431515684995,11.531286518702322 120.4053967916711,11.507975292354887 120.48310087872396,11.43804161394942 120.51903901898591,11.410845183538813 120.55789106257022,11.410845183538813 120.61616912780198,11.42638600118096 120.64627946159285,11.43804161394942 120.68027499962058,11.453582431533674 120.90561685213177,11.612875809876249 120.9473827988648,11.636187036223683 120.99206264892018,11.647842649165824 121.03479989685715,11.655613057929004 121.07656584359017,11.655613057929004 121.11638918826266,11.647842649165824 121.15426993064303,11.636187036223683 121.1872941676405,11.616761014170997 121.21740450143137,11.597334992465676 121.2416870286354,11.577908970934038 121.2611130503986,11.554597744644498 121.34075973956989,11.445812022828388 121.37184137439104,11.418615592244098 121.40972211682931,11.399189570770353 121.45343066579655,11.383648753301888 121.50005311808616,11.375878344596602 121.54473296814155,11.375878344596602 121.5855276138443,11.383648753301888 121.82932418691475,11.445812022828388 121.88274574676359,11.453582431533674 121.93616730661243,11.453582431533674 121.98861756537312,11.441926818591533 122.04106782413379,11.42638600118096 122.09060417968789,11.399189570770353 122.22852893420672,11.305944666017451 122.48786632474564,11.154421696380163 122.54420178785895,11.134995674732735 122.60345115417887,11.123340061559018 122.66755702599748,11.115569652853733 122.99488549270765,11.057291587564087 123.05413485914336,11.053406383327232 123.11144162334483,11.061176791858836 123.22022734521885,11.092258426853663 123.27364890506769,11.100028835616843 123.38340592797195,11.100028835616843 123.43779878890895,11.084488018148377 123.50287596181573,11.053406383327232 124.08274271150559,10.932965048163723 125.66402088297339,10.653230334715534 126.28856748271865,10.544444612899424 130.42339621496106,10.45508491302021 131.11690519196574,10.439544095378062 131.84926621243895,10.645459926010247 132.50489444694745,11.142766083438023 134.66895327136962,12.77843711566915 135.00987995331403,13.034860603175163 136.64555098571884,14.041128530278124 137.27398278975883,14.196536704557527 138.04033934837557,14.359715287310639 138.29384893232762,14.42187855683714 138.40651985855428,14.519008665653214 139.2573796117831,15.641832723624935 139.69640770368966,15.983730706599625 140.13737839771463,16.54708533802233 140.44333824042738,16.694723103191187 140.6900487168202,16.75300116842294 141.09508127058322,16.811279233886268 141.44377836129084,16.896753729528626 141.9469123249581,17.125980786276667 142.54037728976644,17.495075200009328 142.7938868737764,17.666024191351937 143.47574023772313,18.16333034860603 143.64183272379861,18.53242476216501 143.6272632074183,18.563506396986153 143.59618157259717,18.63732527951269 143.56412863668785,18.812159475265837 143.56024343233523,18.944256423371485 143.61657889544855,19.200679910530138 143.65543093897497,19.34831767622004 143.68165606835532,19.47652941974147 143.74187673582128,19.721297293900086 143.7933556934938,19.876705468179487 143.8108391130807,19.977720781058736 143.88368669469276,20.109817729164387 143.99635762091938,20.18752181627514 144.2314124842543,20.315733559970255 144.38293545406526,20.46337132513911 144.61896161843043,20.45948612107594 144.64518674786868,20.44394530343379 144.89578242855626,20.436174894728506 145.05119060277775,20.42063407731793 145.19105795935712,20.354585603323002 145.47273527492374,20.203062633743606 145.63591385773475,20.12924375086971 145.8544566025709,20.082621298580097 146.26628826395108,20.012687620348313 146.50911353599125,19.973835576995565 146.68200512974175,19.946639146584957 146.8422698092304,19.9039018985322 146.95396943436887,19.865049855005772 147.00350578986507,19.837853424421482 147.06566905956527,19.771804950426553 147.08995158676927,19.71741208966323 147.09092288791533,19.639708002668264 147.07732467262318,19.45710339786247 147.08800898453507,19.286154406346178 147.15794266288265,19.22010593240914 147.27158489025535,19.165713071414242 147.47652941979936,19.080238575771887 147.65233491681437,19.029730919187525 147.74460852013172,19.025845714776988 147.86796375844395,19.037501327950707 148.0224006313457,19.068582962598168 148.108846428192,19.08800898447717 148.21666084897785,19.084123780008742 148.27202501106092,19.04527173665599 148.34390129152692,18.940371219134633 148.46434262645886,18.843241110318555 148.58284135927235,18.769422227444657 148.74796254420178,18.715029366449762 148.9752469988314,18.672292118628583 149.13454037734766,18.664521710096977 149.34531271342064,18.703373753449725 149.5570563506397,18.749996205739336 149.7250914389494,18.769422227444657 149.82319284879574,18.74222579703405 149.89701173149595,18.536309966401866 150.46619416927393,17.60386092165176 151.57250610857324,16.36448073315864 153.32958977705604,15.101789318549663 153.4296337891366,15.031855640144196 153.82592463310618,14.74823572257494 155.16632013476803,14.35194487843167 156.10848219028395,13.998391282630628 156.3075989133569,13.773049430177334 156.5125434430746,13.637067277603252 156.77479473682013,13.279628477391672 156.998193987155,13.093138668464809 157.46927501479718,12.922189676774835 159.20596136042857,12.393801884699599 159.596424397985,12.191771258535844 159.99951434945592,11.978085019024691 160.56966808820627,11.67892428387118 162.13346284020298,11.076717609269409 163.0018060129608,10.79309769170015 163.77204777593016,10.695967582884077 164.69284120744865,10.730934421826287 165.53884445523667,10.800868100405438 166.9831691733317,10.983472704921764 168.12833315627324,11.033980361274548 168.97433640406126,11.04952117868512 170.64400297466747,11.39530436612824 171.7027211607048,11.659498262165858 172.10483981126126,12.048018697430159 172.55940872046259,12.689077415789937 173.1606440940341,13.536051964724004 175.09159065735554,17.258077734208637 175.37035406959978,17.81754716116291 175.7957839462721,18.668406914507514 176.00072847581612,19.080238575771887 176.09105947707297,19.227876341114424 176.4591825894859,19.814542198479305 177.17697409369458,20.9529070738616 178.76116616836896,22.84500159359874 179.9558665068646,25.160583387600287 180.12778679941115,25.704511997143992 179.79851573058255,26.761287580947098 180.48134039550166,28.191042782603937 181.1039443930127,28.86318313578486 182.34235328041765,29.449848993091845 183.33599429366402,29.473160219091913 183.76239547130868,29.50812705838149 184.2393043055956,29.640224006313456 184.34906132855778,29.78009136277703 184.52972333101357,29.99766280669872 184.74632347361552,30.21911945491516 184.803630237817,30.2579714983258 184.8657935075172,30.285167928910088 184.93572718580685,30.308479154852265 185.0066321653005,30.32401997243652 185.0755945425599,30.327905176557586 185.39612390165294,30.32401997243652 185.46022977347155,30.3317903811997 185.5262782474086,30.343445993968157 185.72539497048155,30.397838854963055 185.78464433691724,30.428920490015773 185.83709459567794,30.463887329131666 185.88080314464517,30.49885416824756 185.92062648920185,30.53770621160031 186.05175213616147,30.790244494695784 186.17510737429998,31.05055318609129 186.41599004422173,31.260354221307693 186.47815331380613,31.30309146936045 185.65546129219186,29.38768572321798 185.58455631269825,29.278900001459764 185.5437616669955,29.150688257938334 185.48839750502822,29.014706105595828 185.46022977347155,28.952542835895645 185.63409266825235,28.909805588074466 185.91674128484922,28.781593844205673 186.18870558959213,28.7038897572686 186.57431212164983,28.680578531326425 186.94340653503514,28.622300465689413 187.2853045181256,28.560137196162916 187.65828413597933,28.564022400631345 187.93899015039992,28.513514743873305 188.30711326281283,28.490203517757447 188.7208875263693,28.55236678745763 188.94720067991076,28.606759648452524 189.48238757948732,28.692234144094883 189.9262721767768,28.723315779147605 190.38861149474133,28.781593844205673 190.7101121549804,28.804905070321528 191.26375377523203,28.87095354431646 191.59108224188432,28.83598670520057 191.73094959857949,28.816560683321566 192.14763776540045,28.715545370442317 192.46913842558163,28.606759648452524 192.63523091165712,28.55236678745763 192.68379596606516,28.53682597022074 193.00044012086346,28.428040248057265 193.4404395137424,28.28817289142001 193.7425141521604,28.19881319130922 194.1203502754549,28.117223899903717 194.45350654875196,28.058945834671967 194.98577954500615,27.985126952145432 195.23443262363318,27.938504499913716 195.58410101531317,27.84137439109764 195.77059082424003,27.814177960687033 195.93765461140367,27.818063164750207 196.13385743121216,27.829718777923926 196.2591552715849,27.96570093026643 196.37668270325233,27.903537660797824 196.5884263404714,27.864685617039818 196.76714574069297,27.845259595160815 196.95363554967773,27.837489186455528 197.0556221639346,27.84137439109764 197.4363721904936,27.61603253841277 197.48979375028455,27.534443247007268 197.58595255807037,27.429542729485906 197.7510737430577,27.285790168553905 197.93270704648586,27.099300359684936 198.07257440318102,26.951662594110818 198.2211834697275,26.819565646352533 198.411558483007,26.691353902715313 198.81464843453583,26.466012050030443 199.09535444907218,26.322259489156334 199.38771607655067,26.19793294992965 199.86073970654286,26.120228862761003 200.0229469882078,26.120228862761003 200.21720720583994,26.100802841113577 200.39495530503126,26.04252477582393 200.7582219120034,25.856034966897067 200.92042919372622,25.805527310023237 201.21667602567314,25.747249244965168 201.59159824564532,25.68897117950184 201.91989801344363,25.63069311427009 202.53376030110334,25.560759436038307 202.8018394014936,25.506366574869727 203.17190511602496,25.393695648816763 203.6235601220776,25.19166502265301 203.777025694007,25.09064970919482 204.51812842427364,24.655506821814594 204.7395850723164,24.55449150876166 205.5836457179281,24.305838429960936 205.89349076505138,24.204823117023793 208.94240488084586,23.524912355311265 208.93851967655112,23.789106251175202 208.9666874080499,24.189282299439537 209.02108026892898,24.64385120887245 209.0531332048383,24.876963470031033 209.41251460745778,26.90892534628964 209.48924739342246,28.031749404087677 209.67767980458356,30.80190010781161 209.54558285665158,32.35598184886881 209.36589215522605,33.71968857658861 209.15803372235965,35.32427797399859 209.17745974412287,36.0119591444164 209.31441319761143,37.15420922426713 209.30275758461138,39.62908439695861 209.4756491782461,39.90493390593837 209.63105735229394,40.4138956761925 211.17542608252742,45.49185776521269 208.86275819155878,45.67057716537637 208.53931492920125,45.69388839137645 205.89834727055006,45.872607791771706 204.86196900948255,45.903689426245485 204.3607776479916,45.930885856829775 204.150976612891,46.711811931768914 203.70126420913044,48.91083759524906 203.17967552473024,51.19533775477683 202.97570229627436,52.85820521776593 202.90965382222154,53.744031809936956 203.09517233006025,54.793036985382145 203.13402437364456,55.193213033472794 203.4603815392087,55.997450334585686 203.56819595999454,56.15674371310194 203.82267684515054,56.93766978804108 204.5093867144223,58.03329741525483 204.7250155560519,58.41016223775067 205.48068780258305,59.264907195216345 206.12854562844416,59.90596591317086 206.37914130913174,60.119652152682015 208.036180965534,61.96512422018744 209.510616017362,63.32883094808092 210.22937882265884,64.07867538819892 211.20165121184988,65.46957854627142 211.54840570038115,65.9552290903518 211.59794205581946,66.02516276858358 211.59988465799577,66.11063726463121 211.5794873351444,66.14171889927867 211.52606577529556,66.15725971686292 211.47167291441644,66.17668573839455 211.4512755915651,66.20776737344728 211.4512755915651,66.26993064314746 211.48915633394546,66.39037197790572 211.58045863629047,66.50692810860079 211.72129729401587,66.61571383035901 212.0991334173683,66.72838475664355 212.71882351155696,67.59867053151979 216.9400980407036,73.89270158268566 221.88596318161814,74.01702812208603 229.43588653994954,73.99371689614385 232.9607381888849,73.66347452593762 233.21910427827777,73.64016329999545 235.82801900107754,73.41482144748426 237.64143813267367,72.8398112032931 237.99790563202865,72.72714027689277 238.7088980286781,72.50568362885001 239.26545355207844,72.33084943292317 239.90262706596977,72.08608155893825 240.18527568262456,71.96175501953788 240.55437009618353,71.71698714555295 240.948718337861,71.38285957105197 241.39163163412022,71.01376515766667 241.73741482144754,70.74957126145537 242.0530876750998,70.56308145252851 242.3075685601979,70.43098450477022 242.57273375732368,70.71071921810262 242.82915724454023,70.94383147908752 242.92045954688524,71.02542077049303 244.22880211263777,72.96413774269345 245.86058794068992,75.3885052586848 246.833831631027,76.7794084167573 247.5467666297949,77.71185746156532 247.67497837337422,77.9527401312555 247.84495606380233,78.20916361876151 248.10623605663338,78.51997996674137 248.27038594041676,78.73366620607885 248.51709641680958,78.97843408058482 248.85996570093033,79.35141369826488 249.04742681094535,79.56509993777603 249.12318829582188,79.6622300465921 249.15621253281935,79.75547495111343 249.1251308980561,79.80986781176095 249.05519721965064,79.92253873816128 248.84248228140132,80.22946988207798 248.74632347361552,80.37322244295208 248.74826607584973,80.4198448952417 248.7783764095248,80.52474541276305 248.8997890455449,80.69569440445304 248.99206264897808,80.85887298703246 249.08627885447177,81.00262554813814 249.13970041432063,81.05313320466462 249.26985476013417,81.13472249607011 249.4767418919703,81.2512786267652 249.55056077467052,81.29401587458638 249.66128909866293,81.3250975096391 249.90605697293734,81.3250975096391 250.13819793294988,81.3250975096391 250.35479807560972,81.35617914411287 250.38296580716639,81.44553884439735 250.41599004422173,81.5310133400397 250.58402513241566,81.98558224947261 250.66755702605536,82.14099042334676 250.72000728481606,82.19538328434166 250.82102259798478,82.24977614551022 250.97545947100232,82.3430210496842 251.12795374184358,82.4828884066688 251.22119864630702,82.65772260247985 251.36592250838507,82.92968690722276 251.4562535096419,83.2133068249657 251.493162950992,83.38814102071885 251.4543109074077,83.55909001240882 251.42322927258655,83.71449818628297 251.40865975637993,83.92818442579411 251.35523819647318,84.19626352606859 251.28141931371508,84.39829415240602 251.19983002230958,84.54981712204331 251.12212593525672,84.693569683149 251.07161827873026,84.87617428778111 251.02402452541037,84.98884521406565 250.84141992083616,85.1908758404031 250.60830765961967,85.39290646674053 250.4820385181588,85.54054423190938 250.43250216272048,85.680411588894 250.41599004422173,85.84747537594187 250.4295882593981,86.08447284162676 250.4596985931311,86.13109529351112 250.7034951663173,87.10239638167187 250.41890394742833,87.1334780167246 249.6719734106906,87.2150673080722 248.84539618466582,87.26557496465657 248.06252750755036,87.37436068641478 247.5117997905632,87.55308008663636 246.6609400373923,87.91828929595847 245.64398779803008,88.58654444449728 244.737763882834,89.14989907568841 243.76549149352718,89.60446798494765 242.9903932252328,89.9347103549223 242.22306536552793,90.27272313348645 241.1070404152312,90.53691702969775 240.42810095466476,90.58742468628212 240.50969024607025,90.97594512154642 240.8622725410147,91.52764413939015 241.40037334385576,92.25029214892385 241.69953407906718,92.6271569714197 242.71454371619515,93.48578713312222 242.81458772821782,93.575146833233 245.29820461064486,95.81302454047116 245.39047821407803,95.98785873622431 245.43904326848605,96.03448118868761 245.5196612588034,96.05390721033503 245.64204519585377,96.0616776190982 245.81590809063454,96.05390721033503 245.94217723209542,96.07721843650879 246.03833603982335,96.10830007115624 246.12672443890386,96.16269293215113 246.25590748362924,96.24039701926189 246.38314792612042,96.27924906267253 246.48416323928913,96.329756719199 246.6755095536568,96.46962407618362 246.85714285714286,96.57063938912076 246.98438329974982,96.62503225028934 247.1582461945306,96.70662154169484 247.3408507991048,96.77267001545819 247.4350670045985,96.78821083286877 247.4894598655355,96.8115220592162 251.17554749510555,99.59721357982966 253.79223262666852,102.27411937885857 254.54790487325758,104.71791291684471 254.70137044512907,105.21910427839354 254.87523333990984,105.71252523117921 255.70860967355176,108.08638509058619 255.73094959869525,108.31949735174477 255.9630905586499,110.66227557615693 256,113.42077066676504 255.73677740510843,115.25847232556517 255.61050826364755,115.65087796489264 255.45607139062997,115.85679379587219 255.27540938823208,116.07436523944652 255.07823526739335,116.2530846396681 254.85095081270583,116.43568924412654 254.71982516580414,116.64937548363768 254.59841252978404,117.1583372540076 254.6120107450183,117.66729902408804 254.67708791792506,118.2151128378686 254.6615471005724,118.45211030332193 254.5420770666707,118.97661289092873 254.35267335447938,119.49723027435658 254.23708852504612,119.75365376145733 254.10693417923258,120.01007724861599 253.97095202683218,120.23153389683243 253.891305337603,120.37140125370125 251.78066807308758,123.32415656136257 251.6786814588307,123.46790912264194 251.07453218193683,123.73598822291642 250.3227451397583,124.151705088765 249.5068522256454,124.63735563284537 248.55206325598337,125.1812842422154 247.6604088571097,125.65916437759049 246.83286032993882,126.15258533037614 245.96451715718104,126.71982516586202 245.3710521922569,127.22490173158982 244.8222670774461,127.6483890061437 244.11515988532295,128.14569516305042 243.4109665964064,128.58472325501486 242.7776782868677,129.03929216427412 242.1298204610645,129.4550090301227 241.57423623875232,129.8163330348027 240.98271387600454,130.29809837441465 240.48055121342543,130.7565524882581 239.60638023408075,131.3898407977389 239.11684448564773,131.7395091892452 238.543776843575,132.11248880727263 237.88134950144936,132.54763169482652 237.03728885589555,133.08378989543337 236.52249927917038,133.3946062437606 235.4424124691356,134.15610629682072 235.25592266020874,134.32705528816334 235.07137545340032,134.49023387114804 234.92276638691172,134.80493542353844 235.51137484639503,135.58974670277232 235.64735699867964,135.72184365070427 237.82792794160054,137.88590247506855 240.01821189540303,139.80907862968473 241.21971134145787,140.749298083198 243.36337284302863,142.43159156771875 244.18120835925998,142.97552017726244 244.55613057934792,143.4378594949954 244.57555660105325,143.7836426824385 243.64505015865316,145.12792338862667 242.7232854259886,147.08995158682717 241.1070404152312,148.5352476057209 240.1541940477455,149.1413394847332 239.27128135866528,149.7008089115138 236.94307265034396,151.0761712523494 230.8772973547801,153.94345206471576 230.72286048176252,153.99395972130012 227.32233537205386,155.140095005214 227.04357195975172,155.79280933651592 227.00471991634106,155.85885781068453 226.00136589215523,157.49064363867882 224.25302393346587,160.35792445087145 223.9208389614307,161.02229439534707 223.873245207995,161.11553929952103 225.21364070965686,165.36206765701775 225.89937927795623,167.53389689026096 226.23642075549012,168.56347604371135 226.37531681109712,168.98696331826523 228.63553444330506,172.76726715338688 229.39412059310072,174.03772897670115 230.13133811901474,175.19940507785194 231.8272298189434,176.96328785412553 233.20162085869086,178.1171935469763 233.84365087802303,178.4862879601879 234.11950038711856,178.60284409105665 234.9693888392592,178.74271144752024 235.54634168551092,178.97582370891038 235.96788635783057,179.25944362642176 236.5166714725835,179.98209163618705 236.34280857780274,180.00151765800814 235.75808532278785,179.90050234478153 235.30060251026416,179.88884673160783 234.79552594436265,179.9160431620184 234.35067004598503,179.92769877519214 233.93203927704565,179.88107632290254 233.5522605515748,179.8422242793182 233.26572673050947,179.90438754919208 233.04427008240881,179.97432122742384 232.93839826379931,180.06756613182938 232.98210681282444,179.88107632290254 232.88109149971362,179.86165030102353 232.39544095563323,179.57414517921742 231.9486424549635,179.181739539311 231.76021004386033,179.807257440376 231.35906269450783,180.33564523233545 230.80347847207986,180.8290661851211 230.266348970327,181.2253570290907 229.74767418924912,181.63718869029717 229.2659088495214,181.73820400358167 227.16304199359547,182.02570912556146 225.3855610023192,181.99074228627188 224.47545188265468,181.89361217745582 223.99854304836776,181.81590809051875 223.68287019471552,181.76540043416597 223.41187719111866,181.6954667557605 222.05885477536864,183.80901792336672 221.07686937518022,185.52239304294017 220.5280842604273,186.22561503100013 220.35519266673467,186.36548238763737 220.28137378403446,186.42376045269546 219.46450956889126,186.39267881804798 218.72243553747856,186.36159718299527 218.34362811315376,186.61025026162233 213.77074259015086,185.61952315175625 213.47546705923418,184.7997450332328 212.76933116814132,183.447693918513 212.3536143024664,183.04363266601183 212.28562322623728,183.105795935712 212.07679349228272,182.89988010490615 212.04279795419708,182.87268367432185 212.37012642096516,182.0295943300299 212.2059765370081,181.73431879911325 211.92915572694017,181.22924223332754 211.01613270401117,180.89122945482129 210.44403636320027,180.68142841972067 209.12598078645036,182.1111836213775 208.74523075989134,182.37537751747303 208.38584935727187,182.7405867263899 207.61657889544855,183.9721965063514 207.184349911217,184.62879604189018 206.9939748979375,184.7997450332328 205.2126087022507,185.56124508652448 205.02223368897117,185.69334203463015 204.7143312440242,185.8332093910937 204.3559211425508,185.94588031732036 203.88678271696915,186.0935180828366 203.45455373273762,186.2139594178264 203.07283240509045,186.2722374828845 202.65711553935765,186.3188599351741 202.25888209315386,186.39656402228485 200.68731693250976,186.07020685654703 199.4586210559864,186.05466603931015 197.6869678712391,186.0235844046048 197.2615379946247,186.01581399589952 195.25580124751482,186.36159718299527 192.92953514136983,189.47364586975178 192.7304184182969,189.44644943916748 192.49050704957907,189.33377851311454 192.3166441547983,189.20945197371415 192.11267092622666,189.14340349954554 191.93977933259194,189.1395182954824 191.8931568803023,189.1395182954824 191.51823466027227,189.1239774780139 190.96167913675615,189.1239774780139 190.5517900776102,189.12009227360338 185.28636687869079,187.0415079447078 187.04830705255648,189.4309086219306 186.7608019304609,189.8194290571949 186.79674007078074,190.14967142682218 187.75444294364937,190.68194442336585 189.21527978024312,191.4978373372472 191.53377547768284,191.72706439416893 194.10675206022066,194.4428222366085 194.301983578941,194.6060008193616 194.3214096007042,194.76917940217263 194.3388930202911,194.83522787628334 194.35637643993587,194.8857355328677 194.39134327905177,194.98286564168376 194.4748751726336,195.2043222899002 194.50110030207182,195.24317433342665 194.54966535647986,195.31699321595318 194.57200528144966,195.35196005506907 194.61959903482744,195.42189373347455 194.67302059461838,195.50348302505373 194.78180631660817,195.6278095642804 194.80220363934376,195.6472355861594 194.83522787634124,195.67831722063318 194.89836244712959,195.7365952862123 194.9576118134495,195.78710294279665 195.08388095496827,195.87646264290746 195.1081634821723,195.89200346031802 195.13341731046447,195.91142948202335 195.7880742438848,196.12900092559767 197.49756415898986,196.89050097888938 197.54224400904525,197.00317190494235 197.63354631139023,197.24016937039568 197.8248926257579,197.46162601861212 197.96184607918858,197.5704117406019 198.03177975747826,197.5898377624809 198.1376515760878,197.6053785797178 198.1745610174379,197.6131489884231 198.20855655558142,197.63646021436526 198.39018985900958,197.84237604517114 198.57667966799434,198.07548830656128 198.592220485347,198.09879953250345 198.70586271266183,198.44846792435712 198.77579639106727,198.5883352808207 198.84087356397407,198.6621541635209 198.95063058687833,198.74762865951064 198.97394181305208,198.77482508974754 198.9661714043468,198.86806999432676 198.92052025320325,198.94965928590597 198.8622421878557,199.178886342654 198.8670986932965,199.3226389037018 198.9933678348153,199.8005190389032 198.87778300526628,200.06859813940926 198.8719551987952,200.17349865675692 198.90012293029397,200.25897315239928 198.9341184684954,200.32113642209947 199.02153556631407,200.43769255262086 199.10118225554325,200.50762623102634 199.45182194842718,200.60864154448453 199.53632514309714,200.61641195301613 200.00449226753275,200.6241823617214 200.67469001836366,200.61252674854768 200.94471172093026,200.62806756595828 201.00590368948437,200.61252674854768 201.09234948627278,200.55036347884752 201.1263450244163,200.53870786607905 201.1583979602677,200.53870786607905 201.20210650923494,200.55424868348962 201.2924375104918,200.60087113577924 203.52740131434967,203.60024889590383 206.1499142523837,205.04554491497126 206.19556540346937,205.0688561413187 206.22956094161287,205.08828216279244 206.36845699721988,205.1504454326663 206.41410814830553,205.17764186290322 206.4549027940083,205.2126087020191 206.4966687408571,205.2592311543087 206.44033327774378,205.3485908545932 206.39856733089496,205.41075412429336 206.31697803948947,205.55450668539905 205.69340274089026,206.55688940803358 205.30973881106675,207.1824073089249 204.45596515457345,208.60827730651857 203.84404546903218,209.5834635987425 203.3292558924228,210.3721600824448 202.77852817537774,211.3473463750161 202.4385727945215,211.76694844498576 201.77905935566034,212.82760923343096 201.56634441729523,212.85092045937316 200.92431439807888,213.03352506423684 200.84855291314443,213.0995735380002 200.58338771607654,213.25886691634275 200.2006950873991,213.42204549950114 199.91221866421537,213.55802765149627 199.86851011524814,213.60076489966482 199.8471414912507,213.62796132990175 199.8325719750441,213.65904296495447 199.82285896404667,213.69400980407036 199.77332260855047,213.7989103215917 199.49747309951283,214.12138228268742 199.31583979602678,214.04756340021876 199.1885993535356,213.99317053922388 198.9117785433519,213.8688439998235 198.61164650711024,213.71343582594938 198.34065350351338,213.5696832648437 198.31151447086856,213.5541424474331 198.20370005008272,213.74840266506524 198.06480399447574,213.95431849546586 197.98224340203996,214.01259656110287 196.8205673005997,215.4656629887019 197.72679121585367,218.41841829694215 196.68847035255195,219.58786480679822 195.7025997480688,220.78450774764383 194.0319618764902,222.73099512837587 193.2199541667299,223.71395182936297 192.21854274489405,224.90670956574016 191.68238454417144,225.47006419675762 191.29872061434793,225.97902596695386 191.2103322153253,226.08004128006468 190.44009045241384,226.94644185087773 189.8097160461975,227.7195975169379 189.26675873791564,228.36065623529768 189.045302089815,228.6209649266932 188.87046789394606,228.73363585309352 188.79082120477477,228.78802871391474 188.3838460487775,228.92401086631514 187.88751119272737,229.00560015789432 186.94049263177064,229.19597517088437 185.97599065122702,229.3708093668112 185.67488731395508,229.4562838628588 185.33978843853964,229.6078068324382 184.7171844409707,229.90696756764962 184.12663337936897,230.10899819398705 183.7546250626034,230.1944726896294 183.51082848947505,230.25275075486115 183.40787057413002,230.35765127261408 183.31753957293105,230.48974822054606 183.26606061525854,230.67623802941503 183.0960829248304,230.95985794715796 182.95330166487076,231.00259519521072 182.80857780273482,231.02202121668446 182.5939202622513,231.06864366897406 182.21122763357386,231.24736306936933 182.01016830826669,231.391115630475 181.92663641468485,231.56594982622818 181.76151522975542,231.72912840880758 181.47109620433747,231.83402892650264 180.38906679218428,232.4362356011044 179.7227542456481,232.79755960578441 179.39348317681953,232.95685298430067 179.17688303410176,232.99181982341656 178.27940082864123,233.06175350182204 178.18809852641203,233.09283513687475 178.04628856754056,233.11226115858008 177.9957809108983,233.12780197599065 177.85397095202683,233.17830963234343 177.77141035959107,233.213276471633 177.43534018308745,233.30652137621223 177.1099543184957,233.3919958718546 176.78359715293158,233.47747036749695 176.46598169704512,233.58237088519198 176.2386972424155,233.74166426353457 175.9764459486121,233.88930202910868 175.9443930127028,233.90484284651924 175.87931583979602,233.92815407246144 175.56461428723193,233.99808775104057 175.2586544445771,234.04471020298283 175.17123734652685,234.1418403117989 175.1430696149702,234.16515153808845 174.9390963864564,234.35164134684163 174.88081832122467,234.40991941247864 174.84973668640353,234.4410010469524 174.81768375043632,234.4798530907104 174.78660211561518,234.52647554276845 174.75260657758744,234.56532758635277 174.72055364162026,234.59640922140548 174.6826728992399,234.61583524287923 174.64382085565555,234.61972044734767 174.60885401648176,234.62749085587927 174.4175077021141,234.69353933022157 174.14457209639883,234.82175107351142 173.89980422212443,234.96161843032235 173.6356103262026,235.08205976548587 173.32285137581482,235.17530466965982 173.01009242536918,235.28797559588648 172.94695785469662,235.3074016175918 172.73327161535914,235.3112868222339 172.6847065609511,235.30351641329705 172.47004902040968,235.25689396123903 172.06987297202957,235.15976385242294 171.8561867326342,235.1481082392492 171.50846094307266,235.11314139995966 171.1257683143952,235.05097813043315 171.01989649578567,235.01989649578567 170.72947747042562,234.94996281732233 170.28656417416641,234.75570259969018 169.99614514886426,234.5886388126423 169.95146529880887,234.55367197335275 169.76109028547145,234.37106736872062 169.55226055163268,234.18457755979375 169.49883899172596,234.08356224674083 165.86325901868236,230.1711614636872 165.8525747067705,230.12065380710285 165.79623924365717,229.99244206329197 165.75447329680836,229.9497048154708 165.69328132825424,229.8991971588864 165.48542289538784,229.70882214554902 165.32224431263472,229.5067915192116 165.1474101167079,229.26590884928981 165.1221562884157,229.22705680593708 165.08913205141826,229.18043435364746 165.02794008286412,229.09884506206828 164.91915436099012,228.95897770543104 164.82105295114377,228.8501919837886 164.72100893900532,228.71420983144608 164.555887754018,228.5044087961718 164.50829400075602,228.4616715485243 164.46264284955456,228.43836032223476 164.13822828610887,228.39173786994516 163.47580094398324,228.2868373524238 159.02432805700042,227.5136816865373 158.98838991673847,227.5097964818952 154.64861665477835,226.7094443854244 153.2246892595347,225.94405912801165 151.55987919442717,225.7847657493217 149.44632802670515,225.78865095361644 149.3880499612997,225.94405912801165 149.19184714149125,226.3830872198603 149.16173680781617,226.4646765110342 149.1461959904056,226.51129896332384 149.13454037734766,226.55403621114502 149.03935287065002,226.8415413333564 148.95582097712608,226.8803933768828 148.6284925104159,227.0979648206887 148.10496122383938,227.40878116901595 147.53869268949956,227.69628629082206 147.1492009530892,227.82449803445928 146.63344007533374,227.8555796693383 146.0399751104096,227.82449803445928 145.40280159663405,227.68851588229046 145.0900426461884,227.56807454730063 144.75688637294925,227.42432198625283 144.09737293408813,227.16789849909418 143.9545916741285,227.10185002509925 141.13878981955048,227.32330667296833 140.1160097737172,228.97063331877843 137.15742665917955,232.65769224914717 133.9909851117755,234.40991941247864 133.39654884582112,234.9188811823275 132.70692507328488,235.54828428768724 131.91822858969837,236.26316188851567 131.7016284469806,236.4923889454374 129.96979860679,238.32232019553223 129.26851922113795,239.3130473053404 128.53130169522393,240.23772594144313 127.75426082469534,240.8477030247502 127.15788195662252,241.28673111654095 126.83638129638342,241.60143266893135 126.47797119491,241.97829749142718 126.11858979229052,242.51057048739193 125.80194563755012,243.12054757087267 125.5795176883613,243.59842770624775 125.45324854684252,243.95975171092778 125.36971665331858,243.98694814151204 123.69130837291891,244.50368032064515 118.70367728527135,244.80284105579867 118.31709945212548,244.35215735083418 116.44928745965025,242.60381539214484 115.00884794590786,241.90059340408487 114.8718944924772,241.72187400409487 114.59895888664613,241.5509250124049 114.56302074644208,241.5237285818206 114.48143145497868,241.4615653122941 114.2211227633516,241.25953468595665 114.18421332200148,241.22068264237234 114.00840782504439,241.0186520160349 113.96275667390084,240.9564887463347 113.84328664011495,240.80496577687111 113.69273497139214,240.56796831107042 113.50430256028896,240.34262645879082 113.46933572111517,240.3620524806698 113.33918137530164,240.17944787580612 113.29353022421597,240.1056289933375 113.25662078286587,240.11339940204277 110.55251855342634,240.68840964623394 109.69194578925801,240.57962392424415 109.2888558376713,240.52911626789137 107.55119819095172,241.14297855526158 104.97433640406125,240.90986629445038 103.15314686375984,240.63401678523903 101.67288400540286,240.41256013719627 100.78997131626474,240.21829991956412 98.34714907959835,239.34801414462999 97.73037288855838,239.1304427007083 97.52737096113277,239.06050902230282 97.0368639116116,237.39764155960322 96.55024206650096,235.09760058272275 96.58520890561685,235.05874853913843 96.68331031557898,234.90722556932747 96.79695254289379,234.6236056515845 96.89116874838749,234.37106736872062 96.94653291047055,234.200118377378 96.96207372782322,233.95146529880887 96.95333201802978,233.91261325505084 96.9426477061179,233.87764641593498 96.89214004947564,233.66007497236063 96.87174272662428,233.63287854195002 96.8464888983321,233.57848568095514 96.8338619842439,233.50078159384438 96.78238302651349,233.3647994412703 96.69885113293167,233.13557238452225 96.6085201317327,232.86360807995302 96.50361961421135,232.63438102320498 96.39386259124919,232.39738355775165 96.29381857916863,232.1642712963615 96.17337724429458,231.89230699179228 96.02088297339546,231.6397687088705 95.97620312345585,231.59314625681245 95.9480353917834,231.5698350306387 95.89364253084639,231.4960161479964 95.7498899697986,231.23959266066404 95.73434915238803,231.20462582154815 95.5196916119045,231.19685541284287 95.47598306293727,231.19297020820076 95.41479109438315,231.15800336908487 94.89028850683424,230.32656963756136 94.34927380078659,229.32418691475314 94.12490324930567,228.89681443573085 93.9461838490841,228.5510312484614 93.79854608374156,228.17028122207608 93.39837003536142,227.35438830802104 93.46538981044452,227.0979648206887 93.26821568960578,226.7716076551246 92.9612845456891,226.26653108916523 92.59316143327617,225.67986523180033 91.94238970420847,224.7746126178082 91.57718049506002,224.26565084755407 90.92252356163968,223.3021201681565 90.12799927158208,222.14044406660045 87.15387533957596,219.05947701489666 87.00623757417553,218.98565813219645 86.9800124447952,218.9662321107227 86.83723118489345,218.81082393626963 86.65365527917318,218.59713769693215 86.46133766377524,218.3679106403578 86.30398688743531,218.2125024659626 85.93586377502238,217.80455600899296 85.70178021277565,217.55590293053962 85.50363479079085,217.34221669126003 85.01312774126967,216.8410253295375 84.95484967603792,216.89153298629554 84.92182543898257,216.87210696459022 84.89560030960222,216.85268094253755 84.66248804844365,216.6856171554897 84.53621890698274,216.60402786408417 84.3885811416402,216.5068977552681 84.1263298478947,216.35537478545714 84.09330561083934,216.3359487639834 83.83688212350701,216.18831099823558 83.58240123840889,216.03290282436146 83.31335083698836,215.8658390371399 83.08606638241663,215.7104308630342 82.8665523364923,215.56667830216008 82.74513970047221,215.5006298278178 82.45957718049506,215.3413364494752 82.38187309350009,215.29859920148033 82.28668558680245,215.2519767495381 82.18761287586794,215.21312470601166 82.14973213337178,215.1975838883695 82.04386031476226,215.154846640722 81.74469957960875,215.0538313274954 81.32606881061146,214.99166805779524 81.25613513232179,214.99166805779524 81.08712874292392,214.97224203591622 80.71900563051099,214.8362598836895 80.4713238530879,214.69639252687858 80.23335508643062,214.54875476153603 79.97596029806802,214.41277260913563 79.69719688576589,214.22239759597193 79.65251703571049,214.1757751436823 79.61463629327223,214.12526748715584 79.45340031263754,213.92712206505524 79.41163436584662,213.8571883866498 79.34364328967537,213.74451746042314 79.31159035376606,213.71343582594938 79.24942708418168,213.6784689866019 79.1522969753656,213.64350214731232 78.84730843362523,213.53860162979095 78.50735305276896,213.4453567254433 78.16059856435348,213.39484906891684 77.87115084002367,213.31714498192187 77.818700581263,213.29383375563233 77.66426370824543,213.18116282957936 77.41366802749997,212.99078781618408 77.36704557532615,212.97524699859983 77.14947413152024,212.93639495542075 76.80563354631133,212.90919852483648 76.49287459598146,212.8742316857206 76.27530315217557,212.84703525530998 76.18108694668186,212.82372402913623 76.12378018248037,212.8004128028467 76.0344204823117,212.75379035055707 75.89746702893892,212.695512285499 75.73040324171738,212.6488898330357 75.68086688622118,212.6411194243304 75.38753395765453,212.57895615463025 75.22144147157904,212.52844849827747 68.14842694765035,210.3527340605658 63.86401784765749,209.0356497853093 57.41943512776881,211.6076550664695 57.15621253287725,211.71255558399085 46.05132719199328,216.14168854635125 45.987221320058886,216.1921962028777 45.90563202876917,216.13780334170912 45.8356983503637,216.11449211576695 45.72982653169629,216.09118088941952 45.408325871515075,216.0018211894824 45.04214536133637,215.89692067178737 45.01009242542706,215.87749465008204 44.95278566116769,215.77647933702912 44.928503133963666,215.72597168050265 44.792520981679054,215.4967446237546 44.642940614160196,215.2519767495381 44.52347058020064,215.03052010132166 44.397201438739735,214.774096614163 44.237908060339265,214.46716547013054 44.11455282208496,214.21851239150348 43.90086658274749,214.05144860428194 43.826076398901215,213.9970557436344 43.68135253676527,213.89992563481835 43.617246664946656,213.84164756923923 43.317114628704985,213.59299449078586 43.19375939056646,213.5075199951435 42.94316370987888,213.31325977751135 42.729477470367726,213.0918031292949 42.5789258018186,212.86257607254686 42.44682885371295,212.71882351144117 42.15932373161737,212.46628522857728 42.09327525773823,212.40023675440867 41.90678544875347,212.20986174141862 41.69989831697523,212.01948672802334 41.67950099412385,211.99229029743904 41.6387063484211,211.89516018862298 41.493011185196984,211.66981833616967 41.30263617191748,211.4910989359481 41.12197416957748,211.269642288079 41.015131049764,211.12588972703122 40.81018652021998,210.92774430475697 40.78881789628044,210.90443307898846 40.772305777723815,210.8772366484042 40.759678863577726,210.85004021799358 40.74608064834348,210.64023918295086 40.757736261517195,210.56642030007694 40.773277078869874,210.4187825349081 40.682946077613025,210.19344068222324 40.58970117314959,210.0302620996438 40.772305777723815,209.9836396471805 40.82087083213185,209.9680988299436 40.80435871363312,209.89816515153814 40.785903993015964,209.8748539251907 40.72374072331578,209.81657586013264 40.69751559393544,209.79714983825363 40.51685359153754,209.71944575131656 40.24391798576437,209.6145452337952 40.213807652031385,209.60288962062148 40.13513226389036,209.54461155556342 40.111821037774504,209.5251855336844 39.95641286378457,209.33092531605226 39.76409524821296,209.14055030283066 39.72038669930362,209.10558346354108 39.69221896774695,209.08227223725154 39.61840008498884,209.0356497853093 39.37848871621314,208.94240488078796 39.35129228574464,208.9268640633774 39.25221957486803,208.83361915879817 39.04241853970952,208.64324414563447 38.80736367637462,208.4761803585866 38.692750148029546,208.39847627124428 38.6296155772412,208.390705862539 38.58202182392132,208.37905024977053 38.51500204889613,208.35962422789152 38.487805618369734,208.34796861471781 38.434384058578786,208.31688698007034 38.2236117224479,208.12651196650137 38.01381068746307,207.93613695351132 37.935135299206266,207.81181041411097 37.823435674125676,207.5709277441892 37.75253069463204,207.46991243113627 37.850632104594176,207.22902976121452 37.855488610034975,207.1824073089249 37.88365634159164,206.99980270446648 37.89919715900221,206.94929504794 37.94387700905761,206.88713177823982 38.01186808517097,206.7938868736606 38.027408902581534,206.77057564771843 38.07306005378299,206.68121594743394 38.08083046243038,206.56465981673887 38.04877752657897,206.49861134297552 38.00118377325909,206.43644807344901 37.97107343946821,206.39371082539625 37.95941782641028,206.36651439504357 37.94873351449841,206.29269551216964 37.997298568906444,206.1256317251218 38.014781988435445,206.0790092726585 38.06626094616586,206.01296079889514 38.139108527777914,205.93525671190017 38.14882153860163,205.86143782908417 38.067232247196124,205.64386638545196 38.04197841896184,205.4496061678198 38.03032280584602,205.3757872850038 38.0206097950223,205.32916483271418 38.002155074289355,205.2825423804246 37.97690124605507,205.26311635895084 37.95359001988132,205.24369033707183 37.92736489055887,205.23203472389812 37.89919715900221,205.2164939066612 37.860345115417886,205.17764186290322 37.82732087847832,205.13490461508204 37.81275136209801,205.10770818449774 37.65248668260938,204.95230001062362 37.4417143464785,204.76581020169675 37.222200300496276,204.59486121000677 36.963834211045516,204.517157122896 36.78705741305815,204.48607548842224 36.60251020624972,204.43168262742734 36.30820597653701,204.3462081315534 36.211075867720936,204.32678210990596 34.86873776394067,203.79839431794653 34.249047669694114,203.54974123937737 33.93046091271949,203.49146317391404 33.60701765036196,203.4526111305613 33.376819292467864,203.4215294955086 33.075715955195925,203.38267745209794 33.03977781493398,203.37879224768741 32.85814451139002,203.33994020410307 26.578682976430773,202.81543761666995 23.079085155845483,204.43945303613262 22.838202485923723,204.47830507965907 19.65524882007884,204.95230001062362 16.851102578558752,204.5365831449487 16.681124888130622,204.5093867143644 16.68598139351353,204.44333824036948 16.703464813100425,204.3734045621377 16.726776039216283,204.29958567949538 16.710263920717548,204.1985703660372 16.689866597866175,204.17914434450554 16.61993291957649,204.09366984851582 16.584966080344813,204.05093260086832 16.562626155317115,204.0276213745209 16.51406110090908,203.98876933116813 16.338255603951982,203.813935135415 16.20324475275553,203.60413410031438 16.018697545947095,203.40598867827168 15.877858888163786,203.1806468257605 15.797240897846443,203.0174682430074 15.764216660848978,202.9475345646019 15.746733241377873,202.92422333860185 15.716622907529102,202.92033813419133 15.684569971677691,202.92422333860185 15.651545734622331,202.93199374736503 15.620464099859081,202.9358789514282 15.559272131304954,202.9475345646019 15.501965367045575,202.96696058648092 15.443687301755931,202.9902718124231 15.413576968080841,202.9980422211284 15.348499795116176,203.00581262983368 15.178522104688046,203.0174682430074 15.05516686649163,203.0096978343021 15.0260278339047,202.9980422211284 14.91141430544384,202.9475345646019 14.88324657394507,202.92810854272292 14.741436615015708,202.862060068728 14.716182786723529,202.8465192513174 14.659847323610204,202.81543761666995 14.59671275293765,202.79601159479094 14.564659817028346,202.79601159479094 14.49861134297552,202.78047077755406 14.36748569607382,202.75715955120663 14.125631725121792,202.71053709914858 13.809958871469549,202.67168505539058 13.739053892091707,202.66002944239057 13.67106281586256,202.64448862497997 13.355389962210317,202.5939809686272 13.137818518462309,202.56289933357448 13.079540453230559,202.5551289248692 12.978525140119734,202.52793249463227 12.697819125583383,202.48908045110585 12.66285228646749,202.48908045110585 12.328724712024403,202.48519524646372 12.265590141351849,202.4735396334637 12.231594603208329,202.46965442922684 12.16943133356604,202.47742483775843 10.007315111378105,199.50524350821811 7.922902976185134,198.26197811543025 6.528114613528403,197.43054438396464 6.169704511997086,196.8127968919523 6.109483844589014,196.16396776471356 6.140565479352263,195.58507231645922 5.798667496377574,194.27187324526588 3.8026437602072316,192.63231700821896 1.9950524350821812,191.15593935427253 1.9668847035255195,191.14816894556722 1.9348317676162146,191.1442837412725 1.9037501327950705,191.1365133325672 1.817304335948764,191.08989088050916 1.6288719248455783,191.02384240616686 1.4831767616214657,190.96167913664036 1.4520951268582158,190.95002352364034 1.4248986963318206,190.9344827060561 1.2403514895812782,190.87620464099803 0.9382768512211789,190.79461534941882 0.9033100119894978,190.78295973659246 0.8712570760801931,190.77907453218194 0.8382328390827275,190.77518932788718 0.774126967264118,190.75964851030292 0.6604847399493102,190.71691126248174 0.521588684458111,190.65086278848682 0.27002170256658264,190.49545461426533 0.1398673567530421,190.38278368821236 0.08838839908052233,190.32062041851216 0.07090497949362883,190.2973091925121 0.05536416208305683,190.19240867499073 0.051478957730413825,190.1419010181169 0.03302423699746551,190.0991637704694 0.017483419586893506,190.07585254429566 0.004856505440803752,190.02923009206395 0,189.99426325294806 0.1544368730175593,189.20556676924573 0.3069311439166912,188.42464069442238 0.3321849721509766,188.38190344642751 0.38172132764717487,188.39355905942756 0.4186307689972834,188.3547070161906 0.44776980169999997,188.31585497266417 0.4788514364632499,188.273117724843 0.5177034799896799,188.234265681085 0.5429573082818594,188.21872486384808 1.7570836684827973,186.79285486642812 1.8221608413895676,185.99250276960998 1.5977902900823284,185.32036241660273 1.5977902900823284,185.2271175122551 1.5783642682612193,185.05228331644403 1.567679956291451,185.00177565957023 1.5472826334400753,184.88133432481197 1.5327131171755581,184.67153328994291 1.5696225585256667,184.62879604189018 1.618187612933704,184.54332154607414 1.6560683553140794,184.51612511548984 1.590991182407309,184.4966990937845 1.50163148229652,184.4695026635476 1.4462673202713572,184.44619143725805 1.3044573613998878,184.3801429634947 1.2539497048734227,184.36460214602624 1.5735077628783096,183.95277048447238 1.5472826334400753,183.8245587407773 1.5142583964426097,183.56813525361864 1.5317418160295033,183.5215128013869 1.559909547586165,183.4748903490973 1.5764216661427919,183.45157912315514 1.5977902900823284,183.40884187533396 1.6045893976415595,183.38164544474967 1.637613634696919,183.24954849681768 1.7279446358379749,183.105795935712 1.8377016588001396,182.86491326561656 1.9513438861149475,182.6434566175738 2.0591583069586847,182.40645915212048 2.175714437537975,182.173346890904 2.3039261811173,181.955775447156 2.40299889216759,181.7304335948764 2.4836168824849327,181.49732133348624 2.5545218618627734,181.2603238682066 2.6089147228576692,181.03109681145855 2.684676207676314,180.7824437326578 2.7410116707896375,180.62703555878366 2.750724681729139,180.59983912837305 2.8060888436964078,180.3473008451039 2.827457467693838,180.29679318857742 2.9119606623638234,180.09476256241368 3.002291663562773,179.87330591419723 3.138273815847384,179.65184926598081 3.2587151507793175,179.43039261793805 3.3704147759756977,179.27886964812708 3.392754700945501,179.23224719624272 3.426750239089021,179.16619872190043 3.4597744761443807,179.11957626995817 3.4714300891444156,179.02633136543685 3.497655218466862,179.01467575226314 3.5267942511116845,178.97582370891038 3.6083835425750816,178.7582522649308 3.7093988557437996,178.5134843907722 3.722997070920156,178.4435507125404 3.76184911450448,178.34642060372434 3.8191558787059643,178.0977675249236 3.9444537190787012,178.07445629915512 3.9735927517235234,178.01229302945492 4.0153586984565415,177.9462445552863 4.085292376804116,177.77918076806478 4.160082560592493,177.54995371131673 4.219331927028193,177.3129562458634 4.278581293348105,177.0681883717048 4.322289842315339,176.80787967990403 4.336859358695644,176.75737202355123 4.338801960814072,176.70297916238266 4.411649542426128,176.60584905356657 6.198843544699803,174.89635913863523 6.888467317236041,174.2747264419808 8.303653002744149,173.45106311916257 8.320165121242882,173.41609628004667 8.313366013567862,173.38112944093078 8.339591143006096,173.25291769746724 8.407582219119455,173.10527993206682 8.495970618142083,172.85274164885556 8.545506973696176,172.78669317503432 8.65526399665834,172.6856778618077 8.782504439149504,172.5496957094073 8.918486591549904,172.33212426565927 9.052526141716086,172.15729006990614 9.080693873272748,172.11843802632183 9.13314413203343,172.05627475662163 9.226389036496862,171.83481810875256 9.30603572566815,171.60947625629927 9.334203457224811,171.4851497168989 9.344887769194578,171.450182877783 9.364313791015688,171.36859358620381 9.39248152257235,171.21707061639285 9.39248152257235,171.18210377727695 9.496410738947656,171.17821857321377 9.529434976003015,171.17044816450849 9.59354084776373,171.15490734704002 9.621708579320392,171.14325173392422 9.920869314473904,171.0538920338134 9.977204777587227,171.03446601193443 10.15689547895486,170.98007315093952 10.467711827108406,170.88294304212346 10.753274347027666,170.7974685464811 10.903826015692584,170.75473129865992 10.981530102745444,170.7430756854862 11.049521178916695,170.61874914608583 11.08060281373784,170.57601189843834 11.240867493342257,170.3662108633956 11.341882806453082,170.2457695282321 11.37684964562687,170.19914707634774 11.446783323974442,170.12144298900543 11.467180646825819,170.10201696753168 11.473008453470571,170.04762410653677 11.493405776206158,169.99711644995241 11.561396852435305,169.81451184514663 11.609961906843342,169.72126694097267 11.69155119830674,169.4726138623456 11.74108755368715,169.3521725271821 11.759542274420099,169.3094352795346 11.764398779918796,169.25892762266076 11.809078629858403,169.16956792255 11.824619447326869,169.0996342443182 11.85570108209012,169.09574904002346 11.901352233291568,169.0996342443182 12.094641149777663,168.50131277418487 12.454022552397142,167.83694282970922 12.709474738583419,167.01327950689102 12.786207524548118,166.06917484914086 12.952300010623606,165.95650392291424 13.388414199207782,165.9448483099142 14.517066063650574,165.7311620708083 15.205718535156546,165.64957277922912 18.32456632929861,165.09787376098012 18.552822084958493,165.05902171780104 20.18266531089223,164.36357013862008 21.106372645733103,163.7691338726078 23.361733772442367,162.69293226692568 24.976036180965533,164.28586605133563 26.74186155929967,165.96427433161952 29.618855382431814,168.68780258311173 30.06856778625024,169.41433579705597 30.454174318192166,170.71976445954402 30.87474768948156,171.63278748224144 34.295670121867936,171.26757827332457 34.52586847976203,171.24426704697714 35.3407900927289,171.15879255133478 38.77725334269953,170.7275348682493 38.82484709596151,170.68479762042813 40.84612466048193,168.08171070386783 42.269080754579534,166.51208814540007 43.6483282997678,164.9890880393956 45.00523591992837,162.85222564544193 45.43163709768883,161.80322047011254 45.52488200215226,161.72940158747022 45.6054999924696,161.47297810013788 45.65795025123028,161.2748326780373 45.65892155226055,161.21266940833712 45.68806058490537,160.92904949076785 45.40735457048481,159.63527644133774 45.49088646400874,158.45028911366583 45.69583099361066,157.30415382975195 45.75799426325295,157.05161554683013 45.84638266227557,156.79907726379255 45.94157016897322,156.55042418516553 46.01344644949712,156.30954151564902 46.04647068649459,156.0803144586694 46.02801596576164,155.98318434985333 45.99013522338126,155.91325067162154 45.80753061880704,155.70733484087356 45.659892853348715,155.55969707529945 45.617155605527536,155.51695982765196 45.483116055303455,155.29938838373027 45.37724423669393,155.0585057138085 45.22183606258822,154.82927865706046 45.06934179174698,154.61559241772298 45.04991576998376,154.59228119143344 44.040733939384744,153.72588062079404 43.97371416435954,152.75069432857015 43.950402938243684,152.5020412499431 43.92223520668703,152.27281419319505 43.875612754397416,152.0397019318049 43.845502420722326,151.80270446635157 43.80762167822616,151.53851057048763 43.78819565652084,151.2898574916869 43.733802795525946,151.0489748221125 43.65512740744282,150.81197735631181 43.5045757387779,150.29913038182082 43.48806362027917,150.27581915587865 43.44726897451852,150.23308190805747 43.43172815716584,150.20977068171004 43.390933511463096,150.15926302518358 43.34819626352613,150.1009849601255 43.33071284399713,150.07767373395174 43.317114628704985,150.05047730336747 43.27243477864959,149.99219923796204 43.2646643699443,149.94946199031452 42.77027211607048,149.09471703267516 42.307932798105966,148.86160477128502 41.57751437980908,148.519706788484 41.12197416957748,148.41480627096266 41.040384878114075,148.44977311025224 40.69168778746437,148.4886251534313 40.58484466770879,148.47696954066282 40.50616927962567,148.47308433602072 40.33813419131596,148.45754351878384 40.22449196400115,148.4458879056101 40.11862014539163,148.43811749690482 39.91270431470155,148.4186914751995 39.41831206082773,148.37595422720463 39.29592812377737,148.36818381867303 39.1987980149613,148.32156136638343 39.14731905723088,148.29825014044124 39.08418448650043,148.26716850538853 39.02784902338711,148.2399720751516 38.96665705483298,148.20889044015678 38.91129289286571,148.18169400957248 38.84038791337208,148.15061237509872 38.77628204155347,148.119530740046 38.173104065805646,147.40853834368602 36.31209118088965,145.7417856761706 35.66811855943907,144.61507641396202 35.659376849645625,143.97013249136538 35.77301907696044,143.21640284695263 36.02458605879407,142.81234159427777 36.15182650140102,142.67635944205105 36.5063513985218,142.28783900678675 37.129926697121,141.73613998859565 36.315976385242294,140.69102001773467 35.87500569121731,140.17428783900684 35.570988450623,139.5448847336471 35.490370460305655,139.26903522478312 34.81920140844447,137.06612435689243 33.72648768426363,134.08228741400472 33.20295639768709,132.99054499102783 32.9377912006771,132.3999939294261 32.67845381013818,131.5335933587867 31.26132552245375,128.01748341958688 27.20711478052867,128.68185336383095 25.34124539017187,128.9033100120474 24.196081407230345,128.74401663335746 24.16694237452763,128.7401314291206 24.026103716802215,128.70127938553628 23.86778163943201,128.78286867694177 23.826986993671365,128.79840949435234 23.789106251233097,128.81783551605767 23.22283771683538,128.97712889457392 23.05383132749541,129.07037379909525 22.820719066394723,129.1947003384956 22.75369929125374,129.1519630903271 22.72941676404972,129.13642227309018 22.701249032493056,129.12476665991647 22.66919609658375,129.12476665991647 22.47396457786344,129.13253706862176 22.44482554521862,129.13642227309018 22.411801308279045,129.14419268162177 22.38071967340001,129.1558482949692 22.112640573125535,129.25686360784843 22.083501540480714,129.26851922102216 21.77365649329954,129.33845289925395 21.553171146344944,129.39284576042252 21.2374982926927,129.4433534167753 20.9257106433931,129.4705498473596 20.59546827336055,129.49386107364913 20.27202501100302,129.5327131168861 19.968979071496864,129.55213913893877 19.657191422197265,129.59487638658626 19.383284515335934,129.5987615912284 19.056927349771815,129.5987615912284 18.385758297794844,129.5987615912284 18.078827153936047,129.5987615912284 17.752469988314033,129.5715651606441 17.438739736838112,129.5327131168861 17.403772897664325,129.5327131168861 17.3697773595787,129.52882791259134 17.271675949732355,129.5016314824123 16.981256924314398,129.40061616895412 16.673354479425335,129.35010851260134 16.364480733390216,129.3267972862539 16.331456496334855,129.3267972862539 16.300374861571605,129.3345676949592 16.237240290783262,129.35010851260134 16.204216053785796,129.3617641255435 16.176048322229136,129.37730494301195 16.065319998236703,129.474435051828 13.644837686540114,129.73085853916035 13.550621480930628,123.1570927743147 13.929428905371214,121.75064879860005 13.962453142310785,121.6729447114893 14.974548876174287,119.3068552607876 15.307705149413426,118.96107207334448 15.615607594360384,118.84840114711784 18.268230866127393,118.59974806866447 19.369686300101684,118.48707714243783 19.968979071496864,118.40548785103232 20.443945303665366,118.07136027658923 20.81303971716645,118.07136027658923 20.8441213519297,118.07136027658923 20.96650528909585,118.04027864211545 20.9975869238591,118.00531180276799 20.990787816299868,117.95868935053628 20.9975869238591,117.9081816939519 21.00924253691703,117.8809852635992 21.024783354327603,117.85767403725177 21.133569076201606,117.62844698050372 21.146195990347696,117.58182452821411 21.11511435552655,117.51189084998232 21.094717032675177,117.46138319328217 21.076262312058017,117.418645945461 21.056836290236905,117.34094185852392 21.070434505471155,117.10394439307059 21.081118817440924,117.07674796266 21.12676996858448,116.9757326492018 21.51626170493694,115.98112033509888 21.58522408225425,115.74023766500343 21.63184653442807,115.52266622160279 21.78239820309299,115.29732436891791 21.970830614254066,115.1069493557542 22.019395668662103,115.04090088158559 22.153435218770394,114.81555902930597 22.177717745974412,114.76893657684268 22.183545552503375,114.69511769431615 22.179660348150733,114.644610037616 22.149550014417752,114.56690595067893 22.118468379596607,114.52416870285775 22.102927562186036,114.500857476684 22.083501540480714,114.45423502462596 22.078645034982017,114.37653093728363 22.10972666980316,114.12399265441974 22.15246391774013,113.87145437172951 22.204914176500807,113.62668649733932 22.30981469402217,113.39357423618074 22.417629114750117,113.15269156625898 22.426370824543564,113.05167625314816 22.398203092986904,113.0089390051533 22.33798242557883,112.97785737050583 22.45842376045287,112.60099254841525 22.838202485923723,112.22412772591942 23.28208708327108,111.30333429445881 23.534625366134982,110.94589549389987 23.306369610475098,110.76717609367829 23.08782686563893,110.60399751109885 22.838202485923723,110.43304851940889 22.63908576285077,110.36311484100341 22.60411892367698,110.35145922817706 22.535156546417568,110.3436888192981 22.500189707301676,110.3436888192981 22.29135997328922,110.28152554959792 22.22822540255877,110.24655871048202 22.157320423238826,110.20770666712927 21.90963864569994,110.048413288613 21.65418645951366,109.9007755230389 21.402619477622135,109.74536734899107 21.194761044755733,109.56276274453263 21.053922386972424,109.38792854872159 20.95387837494976,109.16258669609462 20.82760923343097,108.92947443487814 20.687741876793716,108.69636217389325 20.58964046688948,108.46324991250309 20.5323337026301,108.23013765169188 20.49736686351421,107.99702539030172 20.502223368897116,107.84161721642758 20.55564492874596,107.60850495503742 20.581870058184194,107.37927789828937 20.54301801459987,107.14228043283605 20.408978464549474,106.90916817144588 20.27299631209118,106.7032523408137 20.110789030368334,106.50122171447627 19.99811810414169,106.38855078824962 20.320590065411057,102.76365512740739 20.35555690464274,102.62378777053856 21.17242111978593,100.65787436810119 20.489596454808922,96.52401693683115 20.539132810247228,96.05002200592449 21.152995098022714,94.21620555159278 21.334628401508777,93.49744274612225 21.46866795167496,93.19828201114242 21.992199238135708,91.7413303789013 22.203942875354752,90.57965427734526 22.605090224823037,88.54380719650243 22.707076839079914,85.43564371438802 22.955729917591174,83.02681701603883 22.979041143707033,81.0181663657224 18.638296580716638,77.82841359226039 16.047836578591916,76.11115326804482 15.077506791577221,75.46620934562186 9.251642864731147,71.0875840401932 9.304093123491828,70.99045393137713 15.618521497624865,59.10949902093694 16.568453961846078,57.322305018894845 16.535429724906507,57.30287899701584 16.706378716364906,56.99206264868861 16.64033024242787,56.89104733580936 16.479094261793183,56.782261613645886 16.14108148305535,56.72398354858782 15.895342307808573,56.704557526882496 15.783642682612193,56.65404987035603 15.695254283589565,56.58411619171899 15.62337800306567,56.52195292219249 15.554415625806255,56.42093760896588 15.510707076896916,56.27718504786019 15.487395850781057,56.191710552217835 15.441744699637503,56.032417173701575 15.390265741964983,55.90809063430121 15.335872880970086,55.79541970824825 15.237771471065852,55.49625897326842 15.112473630693115,55.3486212076943 15.16686649168801,55.32142477711001 15.177550803599885,55.24372068999926 15.248455783093513,55.09608292465672 15.301877342884461,54.983411998603756 15.356270203821463,54.866855867908676 15.444658602844092,54.72310330680299 15.736048929292316,54.53272829363927 16.08765992320651,54.45890941076537 16.39944757250611,54.39286093700202 16.748144663155816,54.307386441301766 16.97057261234463,54.2452231714279 17.236709110500676,54.17528949302243 17.67670850349539,54.074274180143185 17.908849463507913,54.012110910443006 17.86416961345252,53.81785069281086 17.847657494953786,53.66244251853145 17.861255710188036,53.58862363606281 18.00695087341215,53.47206750536773 18.15070343457573,53.35939657931477 18.30611160856566,53.246725653030225 18.414897330439665,53.10685829604561 18.45374937402399,52.955335326582 18.417811233819936,52.78050113048149 18.325537630328878,52.60955213919677 18.24006313457073,52.45414396491737 18.113793993167725,52.275424564869475 17.937988496152737,52.104475573237394 17.806862849251036,52.0500827122425 17.620373040382066,51.952952603426425 17.243508218175695,51.735381159852096 17.31926970299434,51.70429952479938 17.532955942389705,51.587743394451664 17.78452292422334,51.43622042446701 18.014721282117435,51.30023827229819 18.273087371568195,51.21087857201372 18.320681125003862,51.20699336789265 18.180813768192923,50.896177019623316 18.14778953119546,50.830128545454706 18.137105219283583,50.71357241510699 18.137105219283583,50.55427903641705 18.156531240988905,50.394985658074475 18.210924101983803,50.25900350573197 18.2284075215128,50.161873396915894 18.116707896374315,50.084169309978826 18.014721282117435,50.053087674926104 17.239623013823053,49.61405958330902 17.3746338650195,49.47419222667177 17.5280994369489,49.25273557845533 17.665052890495353,49.011852908359884 17.75344128946009,48.79039626031713 17.817547161278696,48.56505440803752 17.909820764596077,48.33194214664736 17.992381357147632,48.09882988577825 18.033176002850386,47.95507732473046 17.976840539679166,47.70642424610341 17.90496425915527,47.60540893299259 17.872911323245965,47.57044209352933 17.75635519266668,47.47719718935537 17.72915876225607,47.453885963007934 17.703904933905996,47.4266895328289 17.915648571182935,47.41503391965519 17.942845001651435,47.4072635109499 18.081741057258423,47.364526263128724 18.655780000361425,46.929383375574815 18.968538950691293,46.83225326675874 19.003505789922976,46.81671244934817 19.108406307444334,46.78174561023227 19.146287049940497,46.770089997058555 19.186110394497195,46.76231958835327 19.266728384814538,46.76231958835327 19.408538343686008,46.75843438388484 19.464873806799332,46.76620479259012 20.31961876438079,46.74677877111638 21.886327419526186,46.4748144661419 21.98054362507778,46.43596242278915 22.03882169042532,46.40488078773643 22.346724135372277,46.268898635741294 22.34089632878542,46.05521239623014 22.220454993853487,45.85706697430324 22.15246391774013,45.767707274192446 22.01065395886866,45.67834757413956 21.86884399999719,45.65115114355527 21.890212623994618,45.50739858244958 21.985400130518585,45.30536795611214 22.33798242557883,44.932388338084735 22.592463310619053,44.652653624983905 22.58566420305982,44.6138015812259 22.553611267150515,44.283559211367034 22.556525170415,44.21362553313525 22.971270735001745,43.44046986672772 22.984868950235995,43.38219180166965 23.01497928402687,43.37053618849593 22.92659088494635,43.10634229263199 23.033434004644032,42.93927850541045 23.05577392978752,42.90431166629456 24.08243917991554,42.44585755262479 24.12614772882488,42.449742756861646 24.184425794172416,42.44585755262479 24.341776570454456,42.43420193945107 24.415595453212568,42.43420193945107 24.327207054074155,42.154467226176564 24.26018727899106,42.13504120447124 23.952284834044104,41.93689578219698 23.878465951343887,41.76594679091227 23.747340304500078,41.326918698889926 23.420983138820173,40.8024161114568 23.150961436311484,40.20020943668135 22.641999666173145,38.14882153837005 22.212684585206095,37.29796178537281 21.352111821037774,36.05858159670601 20.741163436584664,35.53019380497814 20.111760331456498,35.16886980012445 14.271326888345905,33.579821219951356 14.156713359942936,33.548739584898634 13.993534777189824,33.467150293493134 13.69631664415474,33.32339773261902 16.040066169886632,29.60137196255545 18.693660742741802,25.976476301713213 20.378868130700702,22.421514319044867 20.69648358652927,21.85815968785374 21.217100969841326,21.318116282778465 21.287034648188897,21.287034648131005 22.101956261097875,20.964562686803742 23.823101789318724,20.630435112360654 27.08473084336252,20.05931007263792 27.79183803554355,19.99326159864299 28.983624470774682,19.88059067224266 31.468212654289882,19.884475876884775 32.65999908940523,19.923327920411204 33.509887541545886,20.02434323352203 34.61717078210704,20.33904478591243 35.04454326083987,20.657631542771263 35.525337299479446,20.96844789109849 35.88569000318708,21.333657100420613 36.330545901564705,21.780455600742982 36.707410723771076,21.994141840254137 36.8132825423806,22.064075518659603 37.29893308646098,22.409858706102725 37.90113976112064,22.751756688903733 38.347938261674585,22.903279658888387 38.73937260020337,22.926590884830564 39.13857734749533,22.946016906535885 40.34978980437389,22.74398628037213 40.76453536907643,22.487562793039796 41.27932494580162,22.168976036007283 41.72515214520951,21.726062739748087 41.872789910609946,21.48518007017369 41.945637492222005,21.41524639159454 42.03111198803804,21.275379034957286 42.21177399037805,21.018955547624955 42.356497852514,20.813039717224346 42.42643153086158,20.692598382060837 42.802325051979786,20.109817729164387 43.073318055576635,19.19290950182485 43.39773261902233,18.6101288489284 44.72258730333148,16.69083789889644 45.9619674918246,16.104172041763135 48.06386304654657,15.02408523143891 49.37317691344516,14.223733134968134 49.980240093545625,13.967309647809484 50.4610341321273,13.91680199128302 52.25211333869572,14.079980573862448 53.51189085004022,14.728809700927512 53.78482645587128,14.728809700927512 53.97617277018106,14.802628583396153 54.43948338929163,15.00854441420202 54.835774233203324,15.125100544897098 55.10579593571201,15.175608201249881 55.371932433868054,15.214460245007887 55.91197583888543,15.210575040365773 56.37722906011443,15.094018909844378 56.58508749303873,15.02408523143891 56.80265893672884,14.919184713917549 56.97166532606881,14.833710218448873 57.41554992347406,14.643335204879897 57.664203001927426,14.608368365764003 57.80504165971073,14.623909183174575 58.127513621038,14.713268883285364 58.33731465608072,14.810398992101439 58.86570244798227,15.000774005496734 59.10367121458166,15.020200027375736 59.17263359184107,15.020200027375736 59.31250094859411,15.020200027375736 59.46208131617087,15.00854441420202 59.71267699685845,14.907529100917515 60.059431485331835,14.682187248637902 60.28477333784302,14.480156622300466 60.38773125313017,14.414108148131852 60.515942996767386,14.355830083073783 60.62278611646507,14.328633652489495 60.84035756021308,14.305322426547319 61.06861331598875,14.367485696015924 61.24150490962347,14.456845396126713 61.370687954348845,14.542319892000648 61.56106296762836,14.705498474580077 61.78154831469874,14.736580109632799 61.8767358212806,14.72103929199065 62.138987115084,14.623909183174575 62.34781684909646,14.5267790743585 62.474085990557356,14.480156622300466 62.70039914409881,14.460730600421464 62.98887556722466,14.468501009126749 63.85236223459957,14.561745913648075 64.28556251991927,14.569516322411255 64.40794645708542,14.569516322411255 64.84503194675774,14.60448316170083 65.21801156461147,14.66664643122733 65.4919184714149,14.736580109632799 66.0115645536967,14.841480627154159 66.26701673976719,14.864791853096335 66.43893703237164,14.872562261975304 66.64388156197356,14.88810307944377 66.95566921127316,14.977462779496664 67.5015404228195,15.195034223128884 68.01535869845654,15.32324596659242 68.48352582300792,15.338786784176675 68.82930901033525,15.292164331944958 69.30136133923926,15.206689836071025 69.87345768010806,15.035740844786309 70.15804889893916,14.891988283506942 70.3027727610751,14.81428419656987 70.5106311939994,14.69384286181162 70.58347877561145,14.651105613758864 70.79522241288839,14.565631117942823 71.13614909471703,14.5267790743585 71.56352157356565,14.484041826711003 71.644139563883,14.472386213595179 72.19875248522278,14.402452535363395 73.00104718398568,14.173225478383774 74.24625517906566,13.7497382038299 74.58523925877586,13.625411664834793 75.83336115712032,13.392299403444637 76.43653913286815,13.198039185812487 76.55503786556586,13.151416733522877 76.70073302878997,13.011549376885624 76.92413227906694,12.922189676774835 77.21066610007436,12.910534063774799 77.48748691020018,12.996008559648734 77.70602965503635,13.143646324817592 77.88669165743424,13.287398886096959 78.10134919791777,13.458347877381675 78.23733135031817,13.516625942845002 78.39565342774627,13.547707577492464 78.78805906730531,13.45057746867639 79.01728612405336,13.353447359860313 79.12995705028001,13.283513681454846 79.29410693429496,13.135875916112305 79.36015540817411,13.085368259759523 79.47671153875339,12.929960085653802 79.56607123886418,12.727929459142684 79.6398901215644,12.588062102331747 79.73022112282125,12.502587606863072 79.8351216403426,12.413227906752283 80.06531999817881,12.331638615173098 80.416930992093,12.24227891506231 80.64615804889894,12.265590141409744 80.93754837534716,12.312212593294095 81.22213959417826,12.362720250225818 81.56598017938717,12.36660545428899 81.8670835167749,12.370490658931104 82.25269004871681,12.351064637052101 82.58876022522044,12.351064637052101 83.01224749971642,12.343294228346815 83.227876341346,12.32775341087835 83.37745670886487,12.312212593294095 83.4930415382981,12.347179432757352 83.64747841137356,12.420998315283887 83.7601493375423,12.502587606863072 84.02919973907862,12.747355480848006 84.27299631209118,13.019319785590909 84.63432031688698,13.431151447202645 84.7450486409952,13.586559621076788 84.84120744872311,13.77693463441419 84.87423168572057,13.920687195346192 84.88491599763245,14.18488109138381 84.87423168572057,14.445189783184572 84.967476590184,14.507353052884755 85.15493770014115,14.530664278653248 85.54637203872782,14.55397550494279 85.84747537599976,14.561745913648075 85.94363418372767,14.612253570232435 85.9873427327528,14.689957657169506 86.04756340021876,14.8531362400963 86.10195626109787,14.99300359696513 86.21074198297188,15.288279127476528 86.24765142432199,15.47088373234022 86.27873305920103,15.579669453924753 86.35935104951837,15.805011306609623 86.55555386926895,15.925452641367874 86.8634563142159,16.003156728304948 87.08685556449288,16.038123567768203 87.4054423214096,16.069205202473558 87.54530967816264,16.092516428415735 87.7764793371449,16.123598063468457 88.1649997724092,16.224613376521386 88.40685374336122,16.2790062373426 88.65065031648957,16.403332776742964 88.78468986659787,16.550970542085505 88.900274696089,16.745230759717654 89.04888376257759,17.05993231251331 89.27811081944142,17.339667025787822 89.60349668391738,17.615516534999156 89.71519630911376,17.704876235109946 89.90945652674591,17.868054817689377 90.22998588578106,18.062315035321525 90.46115554476332,18.151674735432316 90.58645338513605,18.178871166016602 90.80013962453143,18.198297187895605 91.07696043465724,18.198297187895605 91.39651849266212,18.17110075731132 91.6199177429391,18.136133918195423 91.83457528348052,18.11282269184799 91.9686148336467,18.120593100553275 92.18618627733682,18.19441198325349 92.31439802097404,18.279886479243217 92.4192985384954,18.408098222764647 92.42706894720068,18.53242476216501 92.40472902217299,18.77330743208677 92.36879088196893,18.963682445076806 92.30954151564902,19.34831767622004 92.2755459774476,19.68244525054734 92.32022582756089,20.07485088987481 92.34936486020571,20.20694783798046 92.35130746232414,20.424519281960045 92.36879088196893,20.642090725534374 92.38821690367425,20.809154512582232 92.58830492789326,21.306460670010008 92.66309511162375,21.4579836395894 92.73885659650028,21.516261704879046 92.91563339460343,21.543458135463336 93.36146059406921,21.44632802664726 93.5100696605578,21.376394348241792 93.61982668351997,21.306460670010008 93.752894932598,21.20544535655182 94.05108436660545,21.007299934856498 94.16958309936106,20.976218299803776 94.34927380078659,20.980103504272208 94.61443899773869,20.991759117388032 94.92525534595013,21.050037182677674 95.1263146713152,21.11997086090946 95.27880894209854,21.201560152488646 95.42061890097001,21.31034587407318 95.54883064454933,21.43467241329986 95.62556343051403,21.512376500410618 95.7178370338893,21.605621404989837 95.96066230592949,21.900896935674915 96.12966869532735,22.19228726212314 96.26370824543564,22.530300040860975 96.3190724075187,22.747871484782667 96.32490021398976,22.988754154357064 96.24913872911323,23.194669985336613 96.20737278232232,23.420011837789907 96.27147865419883,23.509371537727013 96.33752712813586,23.548223581311337 96.43368593586378,23.563764398548226 96.63960176661175,23.52102715090073 96.81832116677543,23.458863881200546 97.02909350290632,23.365618976621327 97.20587030100947,23.268488867805253 97.43703995999172,23.01595058494135 97.72357378099915,22.623544945382303 97.90229318122073,22.45648115833444 98.12374982932137,22.332154618934076 98.22865034678485,22.289417370939216 98.63271159945971,22.060190314364856 98.90856110849737,21.89312652696963 99.16692719794813,21.792111214090383 99.40295336242909,21.74548876162709 99.73125313022742,21.683325491926908 99.94493936962279,21.663899470221587 100.19553505031035,21.6561290615163 100.4296186125571,21.679440287805843 100.58405548557467,21.710521922511198 100.87447451093473,21.792111214090383 101.37372327030725,22.005797453196276 101.40286230295207,22.017453066196314 101.40577620615866,21.259838217546715 101.41354661486395,19.363858493688507 101.86034511547578,15.93322305007316 101.86131641650604,15.599095475630074 101.62917545649353,15.09790411431281 101.58352430529207,14.522893870121646 101.57575389658679,14.169340273973237 101.38829278657177,13.780819838708938 101.20763078423175,12.751240685490119 101.04930870680366,11.531286518702322 99.94105416527015,9.40996494198556 99.84101015318959,8.151158731787122 99.842952755308,7.960783718449721 99.84489535754223,7.7043602311173895 99.87112048686467,7.533411239601097 100.01681565008879,7.1720872349210865 100.11491706005091,6.966171404346795 100.31500508415414,6.659240260256422 100.51703571060736,6.433898407803128 100.64039094868798,6.352309116397625 102.7879376546114,5.835576937669788 103.80197599070912,4.553459501181809 104.18563992047473,3.951252826406356 104.369215826195,3.3179645171571233 104.38184274034109,2.5720052812759846 104.48188675242164,1.6512118498732755 104.51976749480202,0.48176533961194407 104.51588229044938,0.24476787415861503 104.51005448397831,0 104.55570563512187,0.03108163464746184 104.89954622033076,0.06216326970018208 105.97769042813131,0.2331122609848979 106.77512862151129,0.37297961779583405 107.5715955138031,0.39240563950115503 108.30589913645262,0.6760255572440941 109.92894325476924,0.8858265924604983 110.28346815194791,0.9285638401079952 113.57035103428389,1.7522271629262054 114.97485240776433,2.1524032113642226 116.07242263738598,2.35831904217009 116.5697287945243,2.455449150986165 117.59445144259178,3.049885416651074 119.28548663702175,3.593814026194776 119.420497488334,3.636551274015955 119.68372008322555,3.64043647825281Z"/></svg>