<svg xmlns="http://www.w3.org/2000/svg" width="256" height="256"><path d="M158.62376151339004,0.8108786007884367 158.8061122035325,3.7246098412076565 158.58981324672382,3.8177250871800346 158.30949755809596,3.9341191448334007 158.13975622418675,3.992316173371016 158.07864934392163,4.0155949850520045 158.04761092863603,4.027234390574525 158.0185124142516,4.034993994410374 157.9865040484287,4.050513202082072 157.96031538542493,4.0621526077780326 157.93509667307404,4.081551617656723 157.87107994131264,4.12034963683597 158.13393652125205,4.190186071242986 158.23287147021693,4.225104288677749 158.29397835042425,4.248383100011856 158.35993498297117,4.279421515355253 158.53549601975726,4.310459930756464 158.60339255332093,4.318219534418873 158.63540091914382,4.325979138254722 158.85654962858115,4.395815572835179 158.97488358696222,4.45401260177749 159.22610076114785,4.609204678263221 159.44821942094902,4.783795764627643 161.0660968207814,4.826473585667001 163.55013999867484,7.30566701127866 161.04766776161347,9.53655311408533 160.44532851385566,10.075845580561229 153.53443134755238,10.27759528029331 153.47235451692342,10.27759528029331 153.27836442102716,10.409508545618374 153.05139600877078,10.595739037678758 152.85158620999763,10.805248341420128 152.7051236876538,11.014757645045872 152.57418037286604,11.232026552276212 152.4577863153861,11.453175261713543 152.35303166360214,11.666564367141586 152.3025942386113,11.763559415089702 152.27543562518585,11.7907180286308 152.24439720990026,11.810117037931358 152.01645884716436,11.980828322320042 151.7730012768146,12.163179012693753 151.54215306269808,12.353289306614247 151.3462230659007,12.555039006346329 151.19200093960538,12.76454830974082 151.03389901144996,12.981817217144599 150.86415767754076,13.191326520943784 150.5266149107391,13.606465326103907 150.37530263588224,13.823734233334246 150.34911397299408,13.843133243039496 150.1308751151108,14.079801159975085 150.02612046326902,14.20783462344004 149.89808699997752,14.42898333253049 149.70506685456076,14.646252240165524 149.48391814529688,14.805324118858248 149.32484626660414,15.007073818416888 149.280228544548,15.111828470200855 149.27440884167112,15.142866885544251 149.27440884167112,15.1777851029212 149.27925859406852,15.274780150869317 149.28992804940063,15.301938764063534 149.33745562289522,15.546366285066227 149.33066596953884,15.600683511743732 149.31029700946974,15.623962323482534 149.280228544548,15.639481530980792 149.24725022824566,15.655000738825931 149.01737196460863,15.755875588634158 148.9785739454872,15.763635192296567 148.9358961243322,15.767514994503559 148.60805286226758,15.790793805837668 148.48971890382867,15.810192815542917 148.4218223702072,15.833471626877024 148.1638155426652,15.9576252881928 147.8825299036735,16.077899147648463 147.84179198347746,16.085658751484313 147.75740629182042,16.093418355551417 147.52170832524868,16.097298157180273 147.49648961278217,16.11281736502541 147.46157139552085,16.12057696886126 147.38785515908026,16.13221637455722 147.3034694673654,16.155495186296022 147.05613209509772,16.291288253076505 147.0221838283737,16.322326668651158 146.89124051358593,16.46975914147448 146.79230556473667,16.687028048704818 146.73507848644726,16.92757576767396 146.73895828836518,17.17588309065239 146.73992823884467,17.42419041345738 146.69337061577176,17.58714209377896 146.65748244803095,17.63757951865417 146.63420363658122,17.660858330392973 146.53332878671517,17.742334170669388 145.5905369206017,20.62114719353822 144.39361802892194,21.525141040645916 142.23644816255583,24.543626932502217 139.58654345267112,25.874398990408185 138.92503722560716,26.02183146346276 138.81252296998733,26.060629482468567 138.53705703381468,25.913197009645245 138.29165956250594,25.746365527290113 138.06663105132412,25.56401483726328 138.02977293310386,25.52909661982852 137.56128685151444,25.641610875506146 135.32167119439245,26.817190856695127 134.52340194972163,27.496156192331938 133.92009275154217,30.52628149011546 132.30027545075083,31.806616123146217 132.31482470800086,31.841534340349725 132.31288480698407,31.888091963191382 132.29251584691497,31.911370774930184 132.2294690657487,31.926889982428442 131.93363416950694,31.992846614975345 131.76874258799515,32.04328404008181 131.74061402409018,32.054923445893394 131.66592783717013,32.10148106861942 131.59318155120906,32.15579829552818 131.54080422531706,32.21399532441268 131.5243150671659,32.36530759909611 131.544684027235,32.601975516205144 131.55341358155033,32.710609969849216 131.55050373011187,32.764927196757974 131.4001614057923,32.99383550985772 131.38561214865788,33.020994123398815 131.3642732380515,33.24602263446501 131.32547521893005,33.42061372106068 131.30122645694303,33.49820975930355 131.2876471501725,33.525368372844646 131.13051517249653,33.67668064747027 131.06843834180975,33.70771906269804 131.01218121399984,33.73487767623914 130.9578639872067,33.76979589344265 130.84534973152907,33.816353516689 130.8143113161857,33.827992922153705 130.78521280180124,33.83187272418726 130.7260458225529,33.86291113953065 130.70373696164046,33.88231014906246 130.68336800151354,33.90170915859427 130.6484497841944,33.94050717800477 130.581523201168,34.056901235426885 130.48743800460053,34.1500164815727 130.45154983685973,34.19269430243862 130.41566166917673,34.28192974672432 130.40499221384462,34.32848736979724 130.39335280809087,34.42548241774535 130.37880355089865,34.475919842620556 130.28762820582742,34.42548241774535 129.9180770731451,34.85226062854362 129.60963282067007,35.562264379755085 129.85891009395456,36.02784060979042 131.20035160707698,36.5787724820779 131.40210130680907,36.66412812438787 132.0189898117013,37.1568629679643 132.14993312648906,37.32757425212173 132.42248921116544,37.50604514034626 132.7551822256275,37.66511701903899 133.17032103084543,37.59528058445853 133.5621810245558,37.16462257162671 133.3002943950959,36.67964733188613 132.81919895727324,36.12483565773853 132.62423891089753,35.899807146441084 132.53112366486732,35.80281209849297 132.42539906271952,35.66701903136561 132.26729713450626,35.449750124077454 132.10240555293666,35.228601414640124 132.08397649382653,35.20144280133028 132.0597277318395,35.14324577238797 132.0548779794421,34.97253448823054 132.07039718711377,34.88717884574713 132.10725530533406,34.80182320366841 132.12471441396474,34.778544392334304 132.1935808980657,34.7087079575226 132.42248921116544,34.503078455988216 132.44285817123455,34.48367944628296 132.60386995082843,34.285809548700065 132.77361128473763,34.09181945280383 133.0015496474157,33.90558896080126 133.2585865244782,33.77755549727849 133.35849142392257,33.70771906269804 133.40698894789665,33.67280084549453 133.4719756300219,33.61848361858577 133.54957166832256,33.56028659004816 133.6252278057799,33.5059693631394 133.75617112045205,33.42061372106068 133.79884894160702,33.38569550362592 133.83279720833104,33.33913788061082 133.84928636648223,33.3158590692189 133.87935483140396,33.288700455677805 133.9540410182662,33.238263030629156 134.15676066847777,33.03651333089707 134.1810094304648,33.013234519562964 134.28673403272825,32.955037490620654 134.3138926461537,32.93951828294896 134.3410512596948,32.93175867911311 134.36917982354194,32.9239990754507 134.54571081080752,32.91623947161485 134.8706442213759,32.9123596695813 135.1849081767856,32.9239990754507 135.31100173917596,32.93175867911311 135.6175060906342,32.93175867911311 135.91916068969502,32.9239990754507 135.99093702517663,32.91623947161485 136.29938127765163,32.8968404619096 136.55835805573093,32.807605017797336 136.8163648832151,32.64853313910461 137.08407121560973,32.49722086424774 137.35468739938497,32.41962482600487 137.47690115979958,32.37306720293196 137.63015333555762,32.26831255114799 137.76497645214766,32.05104364391766 137.89107001448022,31.829894934480325 137.97933550811302,31.65142404625579 138.20921377175006,31.65142404625579 138.38962456099136,31.678582659623448 138.69418901149064,31.7096210751981 139.00457316498242,31.73289988653221 139.3188371203343,31.748419094203907 139.6379508280836,31.77945750977856 139.94639508055863,31.787217113440967 139.9735536939841,31.798856519079113 140.00265220836852,31.806616123146217 140.0336906236541,31.822135330817915 140.06375908863365,31.837654538316173 140.08897780098454,31.86093334999716 140.26453883782844,32.062683049787054 140.31109646078573,32.15579829552818 140.32370581701898,32.241153937953776 140.33728512378954,32.26831255114799 140.47889789379377,32.45842284541537 140.6922869992218,32.6524129413116 140.91925541147822,32.81536462163319 141.11906521019353,32.98995570799761 141.30238585081548,33.1955852095898 141.1151854082756,33.30809946538305 141.6050104004136,33.8978293569076 141.8057901496662,34.30132875642958 142.18989053954073,34.51083805982407 142.47214612912757,34.646631126951426 142.7320928575707,34.77078478844064 143.0764252777865,35.0113325070629 143.55267096321177,35.0501305264734 144.34609045542734,34.92985666695993 144.6894529251637,34.79018379779901 145.44310444772054,34.27029034085493 146.105580625264,33.827992922153705 146.28114166199228,33.909468762430116 147.08814046092058,34.56127548469927 147.67690040202348,36.06663862879622 150.09983669970958,34.66603013665668 151.84768746379245,34.409963209842395 154.46267395647368,34.22761251964213 155.05046394698144,34.188814500751946 155.39188651581662,33.575805797546415 156.0834612076867,32.590336110566994 156.9738757477926,31.69410186729515 159.71786565424478,30.852184851336755 160.0476488173262,31.119891183442302 160.35900292123964,31.310001477536236 158.281368994191,33.641762430093316 155.61788497753574,35.93472536381804 155.95930754625527,36.62145030334851 156.01847452556146,37.53320375371392 156.32788872845813,37.901784935974575 157.21830326867965,38.32080354334169 157.8836892975459,38.8833748211517 158.1261769174162,39.22091758824239 158.79350284729924,40.33830054037344 158.80126245113507,40.39261776745564 158.83715061887588,40.388737965595524 158.99040279463392,40.37321875775039 159.31921600717803,40.365459153914536 159.38808249122118,40.36933895589028 159.42688051040042,40.37709855978394 159.52678540984482,40.39261776745564 159.55588392417144,40.40037737111805 159.99818134281483,40.56720885364662 160.22417980453395,40.66420390159473 160.28528668474127,40.69524231716939 160.37840193077145,40.72240093030579 160.4171999499507,40.72240093030579 160.44532851385566,40.70300192100523 160.468607325421,40.67972310943988 160.54329351228324,40.58272806149176 160.60440039249056,40.49349261737949 160.63931860975188,40.48961281540375 160.6693870746158,40.48961281540375 160.80808999323943,40.47409360773205 160.8439781609802,40.4702138056985 161.14078300764365,40.427535984659144 161.45116716119324,40.396497569431375 161.7508818592373,40.35769955025213 161.92450299506442,40.31890153084163 162.1892994760206,40.23354588876291 162.2193679408267,40.23742569056521 162.35225115657343,40.24130549242532 162.38231962137954,40.24906509626117 162.47931466932764,40.276223709802274 162.51908263898636,40.276223709802274 162.58212942021046,40.276223709802274 162.64420625083943,40.26846410596642 162.79842837707696,40.27234390794216 162.8275268914614,40.28010351183582 162.85759535644092,40.29174291764741 162.88572392028806,40.30726212537692 162.966229810085,40.35381974804513 163.11657213434677,40.56332905178651 163.14955045064912,40.62152608055538 163.1728292622723,40.648684694096474 163.19998787563998,40.67196350543058 163.23296619194232,40.683602911299985 163.27079426058427,40.69136251496239 163.30959227982135,40.69524231716939 163.35033019995956,40.69524231716939 163.47836366319325,40.68748271327572 163.7693488070376,40.60212707085012 164.00310687259255,40.45081479599325 164.237834888627,40.30338232316993 164.50554122102162,40.163709454355896 164.74511898939565,39.98911836799147 164.86539284890912,39.93092133904916 165.2106952195466,39.934801141082716 165.25337304070158,39.942560744918566 165.3096301685115,39.95032034858097 165.36879714770203,39.903762725854946 165.59673551043792,39.725291837688225 165.76841674524826,39.53130174179199 165.91972902010514,39.32567224002636 165.96143689078065,39.25195600341235 165.96143689078065,39.22091758824239 165.94397778209216,39.10452353058903 166.22623337156338,39.51966233592259 166.4667810904747,39.96971935845966 166.7616460363526,40.365459153914536 167.56670493420634,41.405246067802715 167.95565507647828,42.08809120564652 168.97410307993349,44.23362166596978 169.61136054495262,45.335485410949445 169.8024407894104,45.18805293777924 170.20885004037083,44.943625417181245 170.4629770659949,44.62160185776224 170.73456320019181,44.241381269979065 171.2505768553336,43.263671186488615 171.67250531385008,42.50710981260894 171.86067570692725,41.93289912875609 171.97222001200976,41.564317946495436 172.03332689221708,41.354808643100945 172.120622435486,40.95130924357897 172.12353228686663,40.53229063626967 172.02653723891854,40.20250747353514 171.88007471645906,39.85720510283985 171.65601615569892,39.391628872573264 170.57258147017626,37.60691999032793 170.36404211703,37.19566098714355 170.24376825757435,36.695166539557825 170.36113226564936,36.40418139571348 170.57743122251586,36.12871545971427 170.8393178520336,35.85324952359943 171.20207933135953,35.678658437003754 171.6210979384376,35.670898833167904 172.02944709029916,35.690297842699714 172.4707745585209,35.74461506960847 172.95477984772418,35.79893229669067 173.5561491450025,35.88040813696709 174.05761354289427,35.961883977012256 174.61533506859593,35.985162788751055 175.02077436901905,35.981282986544066 175.43106342183958,35.977403184915204 175.8112840097962,35.91144655213705 176.1915045977528,35.81833130622248 176.58045474002475,35.70193724874256 176.95679552612125,35.53898556818972 177.29724814441914,35.341115670317755 177.66388942560522,35.09668814931506 178.03247060786586,34.724227165425546 178.78030242754585,33.959906187478765 179.80844993573805,33.956026385676466 180.69110487212373,33.95214658346948 180.8938245223353,33.95214658346948 182.58541815849262,33.94050717800477 183.46322334242308,33.93662737579778 183.715410467146,33.93662737579778 184.65141267978748,33.93274757393767 184.79011559841112,33.93274757393767 185.33425781734223,33.92886777213537 186.87356922827882,33.92110816829952 187.45650946650483,33.91722836626597 187.7504044617298,33.91722836626597 187.9977418339975,33.91334856463711 188.3110358388699,33.91334856463711 189.09863562826644,33.909468762430116 189.4080498311631,33.909468762430116 193.04439417873797,33.89006975307175 194.8543217734498,33.88231014906246 197.49937673099495,33.86679094139076 198.15312335416525,33.86679094139076 199.21909893111504,33.88231014906246 199.9882696613436,33.87455054522661 200.6536556902677,33.83187272418726 201.19294815685922,33.86679094139076 203.92335875659867,33.93662737579778 206.12320644406194,33.92886777213537 208.25418764753988,33.92110816829952 209.63054737786584,33.90558896080126 213.09618044110982,33.870670743366496 216.22912048989178,33.77367569541838 217.91004467077482,34.32072776573013 221.89169138898717,35.60882200259674 222.90722954100394,36.12095585587842 224.71036748235943,36.73784436059718 225.42813083717547,37.79315048256176 225.8558789987423,38.635067498520144 226.55618324481208,39.92704153742031 226.9722920005095,40.64092509026063 227.74728243373056,41.610875569741786 228.4029689577442,42.5885856530588 228.6250876175454,42.898969806434955 228.69395410158856,42.92612841997605 228.86854518789517,43.02312346792417 228.90637325665276,43.04640227925828 228.9509909787089,43.07356089279938 229.1556505298216,43.24815197881692 229.18862884618176,43.26755098869561 229.22354706338527,43.27919039433376 229.2574953302249,43.29082980002972 229.29241354742842,43.29082980002972 229.34479087332042,43.28694999822742 229.37970909063955,43.29470960206327 229.39134849639333,43.54301692486826 229.39425834777396,43.7758050397703 229.40880760496617,43.857280880046716 229.43208641653152,43.90771830492192 229.55430017688835,44.04739117408283 229.72210160989638,44.16378523156276 229.75895972811668,44.19482364713741 229.78999814340227,44.22586206213393 229.82685626162254,44.25302067567503 229.8763237361339,44.27629948735602 229.9325808639438,44.280179289042685 230.14984977128978,44.27629948735602 230.25460442307374,44.26466008154443 230.29146254129404,44.260780279510875 230.3234709071169,44.260780279510875 230.5349201117016,44.44701077157126 230.67459298068908,44.575044235094026 230.84724416603675,44.74575551925146 230.91514069965822,44.83499096336372 231.0451140639665,45.052259870940944 231.05869337056362,45.14537511691332 231.07324262781364,45.38592283588247 231.15956822042966,45.607071545088544 231.27499232754573,45.843739462255385 231.38071692975137,45.96789312357116 231.433094255759,46.00669114257697 231.49420113585066,46.04160935978047 231.79876558640774,46.13084480389274 232.0994502351047,46.22008024800501 232.14018815524292,46.235599455676706 232.40789448752193,46.371392523035325 232.57666587100945,46.4955461843511 232.81236383746557,46.65849786467268 233.0335125469029,46.829209149234806 233.25757110754742,46.98828102792753 233.45835085680002,47.16675191615206 233.66689020994627,47.34134300251648 233.7483660502227,47.42669864442176 233.87930936489485,47.651727155892644 234.03353149113235,47.85735665760046 234.14410584585102,48.051346753496695 234.24595064625436,48.272495462587145 234.34294569420246,48.49364417185104 234.402112673393,48.70703327745252 234.48843826612463,48.87386475980765 234.60483232360457,49.087253865582575 234.77360370697647,49.30452277281291 234.9675938028727,49.47523405737504 235.18583266075595,49.61878672839606 235.41377102349185,49.75457979517655 235.6678980491159,49.878733456665756 235.75713349322817,49.92917088154097 236.0287196274251,50.014526524024376 236.0743072999607,50.01840632565323 236.12086492303362,50.01840632565323 236.42833922508694,50.01840632565323 236.73193372504892,50.01840632565323 237.05201738327773,50.07272355256199 237.09566515485437,50.088242760407134 237.25279713264595,50.18135800637951 237.3672512891091,50.28999246013921 237.52535321726452,50.49174215992911 237.6766654921214,50.709011067159445 237.8822949937714,50.87196274782791 238.09859395063788,51.03103462634719 238.30616335330467,51.205625712769425 238.36824018404928,51.267702543514034 238.54380122071973,51.477211846908524 238.57580958654262,51.50437046044963 238.60878790284497,51.52764927178373 238.67668443640866,51.56256748898724 238.8764942352396,51.63628372560125 239.18396853723513,51.733278773549365 239.4584645229283,51.822514217661634 239.64566496541033,51.94666787915085 239.8338353584875,52.14453777667594 240.06371362206673,52.30748945740221 240.2043564415915,52.354047080243866 240.47400267488726,52.443282524356135 240.66023316694762,52.501479553298445 240.69321148325,52.51311895911003 240.76110801681367,52.5441573743378 240.87459222291298,52.62951301641652 240.91630009353065,52.67219083745587 241.0074754386019,52.79634449894509 241.0375439034658,52.86230113172325 241.0734320712066,52.90885875473835 241.09283108079623,52.932137566130265 241.1704271191547,52.998094198850616 241.37023691798566,53.19596409660696 241.57683637011513,53.370555182797936 241.79410527751892,53.54514626898892 241.9803357695793,53.76629497842625 242.18596527122932,53.979684083854295 242.31205883356185,54.06503972627989 242.57588536392294,54.200832793291625 242.8552311020135,54.31722685094499 243.15106599825526,54.402582492850264 243.42071223155102,54.50345734300537 243.49733831943,54.55777456985632 243.52740678429393,54.58493318305054 243.5506855958015,54.608211994789336 243.66125995052016,54.759524269646214 243.82712148251144,54.945754761648786 244.01238202403454,55.13974485754502 244.1375056358876,55.225100499681545 244.4255809283513,55.34537435896377 244.7185059730968,55.48504722795124 245.02695022557182,55.59368168176876 245.32957477516993,55.647998908677515 245.6758470963447,55.72171514523371 245.9910810021761,55.81483039120609 246.02987902141314,55.83422940091134 246.0638272881372,55.857508212072005 246.29564545273317,56.001060883266476 246.47120648957707,56.09805593121459 246.50321485539996,56.109695337026174 246.7796507419943,56.19117117712915 247.29566439713608,56.42007949022889 247.79615884454833,56.62958879379682 248.18704888772143,56.765381860982 248.49452318971697,56.89729512613362 248.7263413543708,56.98265076855922 249.08910283369673,57.196039873813824 249.37620817562316,57.3589915545401 249.67883272522127,57.55298165043633 250.3199699921005,57.95260124804038 250.38107687230783,58.0030386729734 250.54596845381963,58.162110551666125 251.13763824630314,58.61604737583205 251.3500574013095,58.922551727521544 251.51785883431756,59.042825586861575 251.74094744459822,59.22129647525955 252.15511629927886,59.818785970446505 252.3141881779716,59.95845883943398 252.55376594646125,60.280482398795165 252.92719688094587,60.513270513581574 253.1949032133405,60.66846259058763 253.67502870062583,60.959447734431976 253.8515596878914,61.12627921678711 254.12120592124498,61.518139210439685 254.21917091961478,61.80912435428404 254.72548506990395,62.96142552396547 254.9078357600464,64.78493242550567 254.86903774092497,66.85286684758607 256,70.79086579422177 253.82440107446595,70.95769727698159 252.5654053521572,71.05469232492972 251.3820657671324,71.06633173039442 250.56924726538497,71.22540360908714 250.18805672694887,71.36895628010816 249.04545506212008,71.91212854873325 248.3480606673153,72.3001087405257 247.7777297853804,72.55229586519081 246.46829663808083,72.93251645314743 245.12200537256098,73.25454001216173 244.63897003377934,73.3204966449399 243.08801921714678,73.56880396768706 242.69324937194014,73.66579901563519 242.3256381402168,73.84814970571982 240.98225672619319,74.87241741210974 240.58651693056487,75.31859463243983 240.02200575144903,75.95488214721072 239.75720927060848,76.38941996207609 239.73975016192,76.4398573869513 239.7048319447165,76.51357362316061 239.57097877849029,76.76576074799915 239.35370987114433,77.22357737419864 239.23731581354878,77.44472608363597 239.11413210265465,77.66587479289986 238.99870799571204,77.88702350233719 238.89201344285348,78.10817221160109 238.7833789892094,78.32932092103842 238.6737745849702,78.54658982826875 238.53798151795849,78.77161833950838 238.41673770802333,79.00828625667523 238.30034365036997,79.23719456977497 238.2072284043398,79.46222308084116 238.143211672694,79.69889099777674 238.09180429728153,79.94719832058173 238.0675555352945,80.0752317841045 238.04912647618434,80.17610663368147 238.00353880370653,80.42441395648646 237.92400286433127,80.66884147725791 237.84446692501382,80.90162959256465 237.77948024288858,81.13829750932679 237.71934331316075,81.37496542626238 237.72419306561596,81.61163334354485 237.73195266939402,81.63879195673907 237.8250679154242,81.8715800720458 237.89878415192257,82.03841155440094 237.9598910321299,82.10436818712128 237.9851097445386,82.12376719647965 238.61169775428343,93.54202424116312 238.50112339968038,94.03087928276382 237.74747187706572,95.1909400562811 237.55639163260793,95.35001193462693 236.7503627842169,95.81558816483572 235.93366448043594,96.048376279969 235.90359601557202,96.06777528967426 235.61940052514186,96.25400578173463 235.51561582377957,96.25788558371038 235.46808825028498,96.296683602774 235.44674933973639,96.31608261247925 235.39437201384442,96.35100082968275 235.1480045920562,96.49843330233263 234.9879627629418,96.6303465676577 234.96371400095478,96.64974557736295 234.90066721990414,96.68466379456646 234.84731994347484,96.71958201176996 234.82307118148782,96.73898102147521 234.74838499450996,96.78165884251457 234.72316628204345,96.80105785221983 234.69891752005643,96.82045686169381 234.67660865902835,96.84373567325918 234.61647172935832,96.94849032486971 234.54663529477787,97.1851582418053 234.5204466318897,97.23559566702738 234.50589737463966,97.2627542802216 234.4952279194232,97.37914833770152 234.49328801840642,97.41018675327618 234.4477003459286,97.51106160302659 234.37689396086867,97.62745566050651 234.35070529798048,97.67013348154588 234.34973534750102,97.71669110479222 234.39435306955716,97.80980635088024 234.41569198016356,97.8330851624456 234.42636143538002,97.98051763509548 234.438000841076,98.03095505997068 234.58834316545338,98.22494515586692 234.79009286518547,98.426694855599 234.9724435553279,98.64008396102703 235.0238509306826,98.73319920734629 235.0461597918263,98.85735286860425 235.04131003937107,98.90779029353727 234.99184256485972,98.99702573782298 234.83859038915952,99.19877543738163 234.8182214290326,99.22205424871574 234.79591256800452,99.24145325842099 234.68824806478213,99.30353008916559 234.43412103915807,99.46648176983405 234.24983044811447,99.57899602551169 234.20230287456206,99.61391424271518 233.98406401667881,99.79238513070847 233.96272510618803,99.81178414024028 233.95787535379063,99.87774077301843 233.0470918535,100.43643224931522 232.02961380052426,101.196873425055 231.33997900967097,101.93403578963412 230.50097184486197,103.19109161075264 230.39524724259851,103.2958462625366 230.08583303970184,103.33852408392285 229.77544888626787,103.37732210298647 229.46700463373503,103.41999992402582 229.1614702327563,103.45491814122933 228.85496588118244,103.48983635843284 228.54846152966638,103.53251417981907 228.2438970791671,103.57519200068499 227.93933262855222,103.61399001992206 227.63767802949138,103.66054764299497 227.3369933807944,103.70710526601006 227.03824863311422,103.74590328507368 226.70652556913166,103.80410031395817 226.38159215850547,103.87005694638945 226.34667394124415,103.8778165502253 226.07993755938682,103.98645100421626 225.78992236607976,104.09896525966263 225.66673865512786,104.141643080702 225.61048152731794,104.16880169406966 225.5513145481274,104.19596030761075 224.47757936734178,104.64213752811428 224.4339315957073,104.65765673601723 224.39028382413065,104.66929614165537 224.34469615159503,104.67705574549122 224.29813852857993,104.68093554735132 224.22539224261885,104.68481534938488 224.17398486726415,104.70809416071899 223.90239873300945,104.82448821837235 223.8112233878804,105.1077137585543 224.23024199507407,105.41033830786336 224.5270468417375,105.57716979056536 223.86069086233394,106.47728383529262 222.3912158859778,107.34635946502337 218.0662066979135,109.91478833468949 216.6015814738969,111.38135345960718 215.0225020933016,112.52589502545277 213.75865661859547,113.63939817578152 212.90316029563527,113.86830648888126 212.598595845136,113.93814292346171 212.51808995533906,113.95366213113341 212.22904471239585,114.03125816978097 211.94678912286685,114.11273400999957 211.70527145353384,114.17481084057074 211.4870325956506,114.30284430392007 211.44241487353662,114.33000291728773 211.39003754770246,114.34940192699298 211.22611591661234,114.41535855936644 211.19216764988832,114.42311816320229 210.873053942139,114.4813151921446 210.59273825351113,114.57443043805917 210.33473142596915,114.72962251471834 210.27459449629913,114.76066093011956 209.99427880767126,114.90033379910703 209.73336212874864,115.05552587593964 209.4976641621769,115.19907854678722 209.38708980751605,115.25727557572954 209.35702134265213,115.26115537753184 209.32210312544862,115.26503517956539 209.06991600072573,115.2883139908995 208.88853526112055,115.29219379310648 208.84876729146183,115.30383319857118 208.80996927222478,115.323232208103 208.71782397667405,115.3620302275135 208.4433279909809,115.4706646812732 208.28231621144482,115.55602032340973 208.25515759801937,115.56765972922132 208.16883200528773,115.59093854061324 207.99036111706317,115.6336163616526 207.9011256729509,115.66077497519369 207.60820062820542,115.76552962680422 207.3191553852622,115.87804388242404 207.04077959765112,115.99443793990396 206.78762252256436,116.14187041307416 206.53543539784144,116.304822093627 206.2648192140662,116.44061516075436 205.9864434264551,116.54149001038915 205.82543164691904,116.59580723747135 205.78760357816148,116.59968703927365 205.67314942158268,116.61520624700316 205.6372612538419,116.62296585083901 205.60331298711785,116.63072545467486 205.3676150205461,116.71220129495127 205.08341953005814,116.79367713516987 204.80019399004965,116.890672183118 204.51211869770157,117.01094604263147 204.3714758782346,117.09242188285008 204.3501369676282,117.11570069441544 204.17069612886638,117.32520999780992 204.1425675649614,117.37564742285858 204.1338380106461,117.42608484796503 204.1270483572897,117.51920009370616 204.09891979338477,117.55411831090967 204.0310232598789,117.60455573613176 203.70124009679748,117.61231534002542 203.55477757445365,117.62783454752368 203.442263318776,117.65111335885778 203.391825893843,117.67051236856304 203.34138846890997,117.69767098210413 203.26767223252722,117.73646900110994 203.00287575157105,117.848983256961 202.7438989735496,117.96537731438312 202.53438966998166,118.097290579766 202.49656160128188,118.1205693911001 202.27347299105904,118.27964126979283 202.04262477694252,118.43871314848555 201.82826572097719,118.58226581950657 201.63912537747836,118.77625591540281 201.48102344932292,118.88877017084918 201.21040726554767,119.02844303983666 201.12311172233657,119.08276026674541 200.88159405294576,119.25347155124973 200.83988618232806,119.2728705606081 200.7933285593708,119.2845099664775 200.57799955286816,119.35434640088451 200.540171484284,119.38150501442561 200.50428331642757,119.41254342976902 200.42474737711012,119.46686065650432 200.24239668696768,119.54445669509407 200.14346173811842,119.5599759028236 200.0930243131276,119.5599759028236 199.95626129552073,119.56385570445245 199.91940317730044,119.5716153082883 199.77682045681672,119.60265372386294 199.74093228907591,119.6181729313612 199.54209244078228,119.71516797930931 199.49747471884177,119.72292758314516 199.45285699672783,119.72680738517872 199.40435947275375,119.72680738517872 199.08233591350822,119.72292758314516 198.88058621377613,119.71904778134287 198.8301487889009,119.71516797930931 198.79135076966386,119.69964877181106 198.75643255246035,119.67249015826997 198.72733403801809,119.63757194106645 198.70017542465044,119.57549511032185 198.67980646458133,119.31166858001859 198.64876804929574,119.27675036264165 198.60706017862026,119.24959174927399 198.56147250602683,119.22243313573289 198.5120050315733,119.20303412602765 198.45865775525962,119.1952745221918 198.41016023128557,119.1952745221918 198.14245389894876,119.21467353207048 198.0997760777938,119.22631293770863 198.06194800915185,119.24959174927399 198.02605984141104,119.27675036264165 197.99599137648931,119.30390897618275 197.96689286210486,119.31942818368101 197.93197464490137,119.31942818368101 197.7505939052384,119.32330798565674 197.67590771826053,119.3349473913527 197.50519643387184,119.3349473913527 197.46154866229517,119.342706995362 197.368433416265,119.3465867972221 197.27046841789522,119.35434640088451 197.22100094344168,119.37374541058976 197.17444332036877,119.40090402413087 196.93098575007681,119.5599759028236 196.6884981302065,119.70352857361335 196.61284199274917,119.75396599871982 196.58277352794306,119.78888421592333 196.37617407581357,119.9673551039166 196.24717066204258,120.03331173652133 195.9988633392376,120.11478757697118 195.4944890899074,120.58036380700652 194.35867707843497,121.18173310440046 194.04926287553826,121.42616062499846 193.76215753361186,121.54255468282527 191.2819941575207,122.75305288127556 189.18593117136191,124.01010870239409 189.11027503402022,123.98295008902643 189.0743868662794,123.97907028716631 188.94441350202894,123.99070969286228 188.91531498758667,124.00234909873167 188.73684409936214,124.09158454284395 188.2615683644742,124.37868988465473 187.99968173495645,124.53776176317402 187.74652465981188,124.70071344407374 187.49821733712253,124.85978532259303 187.25281986575598,125.01497739907876 187.0239115525984,125.18568868381432 186.80373279375618,125.3486403641359 186.5408762138168,125.48831323312338 185.09177019747193,126.40006668389348 184.80563480608282,126.30307163594536 184.7493776782729,126.27591302240427 184.68051119422975,126.22159579566895 184.59903535389552,126.12072094591853 184.4244442675889,125.92285104798874 184.17613694489955,125.75989936766716 184.14897833141626,125.74825996179777 184.11987981703183,125.73662055592837 184.0907813027052,125.73274075412607 183.93752912694717,125.72498115023241 183.89776115723063,125.72498115023241 183.86672274188723,125.73274075412607 183.8376242275028,125.74050035796192 183.77360749585705,125.7521397637735 183.66012328975776,125.83361560387648 183.55051888557637,125.91121164229278 183.47971250063208,125.9500096613564 183.28960220659596,125.81421659434467 182.89677226240607,126.17115837079373 182.3817285578594,126.71045083744308 182.9520594397365,126.89280152746991 183.02674562665655,126.91996014083756 183.00637666658744,126.94323895234511 182.9365402320648,127.00919558512328 182.83663533267824,127.06351281203203 182.73188068089428,127.12558964277665 182.592207811849,127.1760270674784 182.48745316006503,127.21482508688891 182.3856083597773,127.26526251176412 182.30704237088153,127.31182013483702 182.22362662970397,127.37001716337464 182.30704237088153,127.45537280545335 182.5446802383544,127.32733934233528 183.07815300206906,128.04510269715135 183.04711458672566,128.22357358520244 183.04420473534503,128.25849180257939 182.9617589445313,128.25073219874352 182.85894419370632,128.25849180257939 182.7774683534877,128.2934100197829 182.69987231512923,128.34384744483154 182.64555508822045,128.4098040772628 182.61063687095913,128.48352031405025 182.59317776232848,128.56111635229314 182.58444820801316,128.62707298484003 182.55631964410819,128.70854882494302 182.53304083260065,128.76286605185177 182.44477533896784,128.89089951514327 182.38269850828107,128.87150050584273 182.31480197471737,128.80554387289112 182.27600395559594,128.82882268457212 182.2459354906742,128.7861448633593 182.17221925423365,128.83270248643223 182.23526603545773,128.90253892083925 182.14215078942755,128.956856147748 182.24011578785513,129.05773099790312 182.33517093478648,129.1392068381217 182.30607242040205,129.16248564968708 180.57277091356923,131.25757868513514 180.54658225068104,131.27309789298027 180.57083101266807,131.3157757138462 180.5931398736383,131.3739727427885 180.60283937849096,131.42828996969726 180.6319378929332,131.50200620590658 180.6474571005471,131.53304462148122 180.65909650630084,131.57184264066046 180.6658861595994,131.61064065955065 180.6833452682879,131.64943867896113 180.75318170286835,131.71539531133462 180.8511467011803,131.7813519442862 181.01021857981522,131.8705873883985 181.21099832906782,131.97146223797546 181.33903179241716,132.28184639152505 181.12273283543504,132.62714876227815 181.15280130035677,132.72026400819271 181.175110161327,132.7823408387639 181.22651753673952,132.86381667921376 181.27792491220984,132.92201370809823 181.3400017428388,132.97633093466013 181.38946921729234,133.01124915203707 181.44572634510226,133.03064816156888 181.57569970935273,133.06168657691228 181.63583663908057,133.08496538865109 181.66784500490346,133.11212400201873 181.7221622318122,133.16256142672052 181.8249769825794,133.2285180596721 181.9122725257905,133.2828352863496 182.00247792032445,133.34879191895433 182.10141286923152,133.41086874969892 182.20907737245395,133.4651859766077 182.31189212333675,133.51562340130945 182.40597731984641,133.55442142071996 182.5456501888339,133.5854598358899 182.69405261219453,133.6242578553004 182.7939575116389,133.6630558741328 182.8443949365141,133.70573369551903 183.0248057256976,133.79108933765554 183.1683583966608,133.88808438560366 183.25371403891296,133.9579208201841 183.2973618104318,133.98119963151822 183.3497391363238,133.98895923552752 183.43703467947708,133.99671883936338 183.51075091591764,133.96956022582228 183.58349720187874,133.95404101797712 183.64557403262336,133.95016121634828 183.68146220030633,133.9579208201841 183.79106660454553,134.00447844325703 183.89582125627166,134.07431487766405 183.96759759175328,134.11311289666986 184.07526209509132,134.12863210434156 184.17904679633799,134.1635503217185 184.29156105189998,134.19846853915325 184.37109699121743,134.21786754845382 184.49525065264885,134.21010794461796 184.5786663938264,134.21010794461796 184.65432253122594,134.23338675635677 184.72124911436796,134.24890596402847 184.80757470698396,134.25278576583077 184.90747960642832,134.27218477536258 184.96664658561886,134.31486259640192 185.02387366396607,134.37305962534424 185.089830296513,134.4855738807906 185.13832782048704,134.54765071153523 185.18294554254317,134.60584774024628 185.20040465117384,134.65628516535276 185.19846475027268,134.71448219389035 185.2275632645993,134.75716001510315 185.32261841164626,134.7881984306778 185.4613213302121,134.83087625171717 185.6233030602276,134.89295308228833 185.84736162098775,134.93951070530343 185.88906949166326,134.95502991303294 185.96569557954228,135.0015875358746 185.99188424243047,135.0209865454064 186.05881082557246,135.0442653571452 186.11021820092716,135.0481451589475 186.17229503167178,135.0287461494157 186.2217625060675,135.0054673377347 186.2828693862748,134.9860683282029 186.3449462169616,134.97830872436705 186.41478265154205,134.9705491205312 186.45455062120078,134.96666931884454 186.5311767090798,135.0015875358746 186.62623185601115,135.0209865454064 186.70285794389017,135.01710674377756 186.76881457649486,135.0093471399417 186.81634214998945,134.99382793203876 186.8541702186892,135.0015875358746 186.91139729703642,135.04038555511167 187.00645244396776,135.11798159335453 187.0869583337647,135.17617862247027 187.15776471882464,135.2072170374668 187.25378981623544,135.2304958491478 187.2780385782225,135.2460150568773 187.33720555747084,135.30809188762188 187.3905528338423,135.31197168925075 187.4322607045178,135.30809188762188 187.49724738664304,135.32361109512016 187.56805377158736,135.36240911453066 187.66795867103173,135.40896673719888 187.75331431316826,135.44388495474925 187.86679851926755,135.45940416247876 187.98125267584632,135.45164455858512 188.07339797139704,135.45164455858512 188.11898564393263,135.46328396410763 188.19561173181165,135.50208198351814 188.2615683644742,135.52148099299214 188.3343146504353,135.52924059688578 188.38960182770788,135.54863960653321 188.4516786584525,135.579678021761 188.5331544986711,135.59907703146624 188.69998598114185,135.65339425837502 188.828019444549,135.74262970242947 188.91337508662772,135.83962475037757 188.98515142216715,135.9094611847846 189.11803463785606,136.02973504429806 189.25673755636404,136.15388870561384 189.37992126725817,136.25088375356196 189.46042715705508,136.33623939564066 189.5273537401393,136.42935464195995 189.5894305708261,136.52246988770105 189.65150740157068,136.61170533198677 189.7174640341176,136.8173348337524 189.77372116204313,136.88717126815942 189.78730046864024,136.968647108378 189.78342066672232,137.04236334464514 189.8357979926143,137.1121997792256 189.9075743280959,137.20531502554485 189.96189155494685,137.32946868662938 189.97062110932,137.46526175381456 189.9492821987136,137.5738962076321 189.96868120830322,137.66701145354665 189.96189155494685,137.81444392636996 189.9395826939188,137.95023699355514 189.88817531850628,138.0627512493484 189.88138566520772,138.09766946637845 189.88138566520772,138.15974629729652 189.95898170356622,138.26062114710473 190.08701516679992,138.40029401591877 190.1403624432292,138.50116886607387 190.2111688281735,138.62920232919194 190.26548605508228,138.7106781696418 190.26548605508228,138.7960338115471 190.23541759016055,138.86199044449867 190.23444763979668,138.90078846333105 190.28779491605252,138.9589854924468 190.34502199434192,138.99002390744332 190.41582837940186,139.00166331348615 190.501184021654,139.02106232301796 190.55841109982777,139.04822093655906 190.67189530592705,139.07149974789317 190.8154479769481,139.11805737096608 190.86782530284006,139.16461499380773 190.91050312387944,139.22669182472578 190.93863168778438,139.3236868726739 190.9628804497714,139.42068192062203 190.99391886517262,139.48663855322673 191.0356267357325,139.56035478943605 191.04920604244523,139.58751340297715 191.01816762715964,139.66510944145128 191.00070851847119,139.74270547969414 191.02689718141716,139.86297933897637 191.06375529963745,139.92893597192796 191.07442475496956,140.01041181214657 191.0511459434042,140.09188765224954 190.99779866709054,140.1811230963618 190.92020262873206,140.26259893681166 190.87849475805655,140.32079596534928 190.7931391158622,140.4022718056257 190.6602559001733,140.5303052689172 190.5516214464714,140.65057912860414 190.33920229152284,140.80965100712342 190.25966635214758,140.83680962066452 190.1199934831601,140.82517021462166 189.92018368432917,140.82905001682866 189.78245071624283,140.84068942229337 189.71067438076122,140.89500664920212 189.67381626254095,140.98812189552137 189.66799655972187,141.14331397200712 189.65441725295133,141.26746763349632 189.68254581685628,141.3955010966144 189.73007339035087,141.47309713526198 189.79118027055816,141.6050104004136 189.83967779453224,141.6787266366229 189.97741076261855,141.82615910961968 190.02008858377354,141.8765965345527 190.10738412686902,141.88823594019084 190.26645600556174,141.84555811932492 190.41873823078248,141.77960148660458 190.5574411494061,141.74080346736753 190.70875342414735,141.74080346736753 190.86685535230276,141.7524428732369 191.00167846900848,141.77184188294217 191.09382376455918,141.79512069410282 191.14135133799593,141.7873610904404 191.24707594025938,141.74080346736753 191.2916936623155,141.69812564615472 191.33243158251153,141.6670872311582 191.42748672944288,141.6515680234287 191.55261034129595,141.68648624045875 191.6418457854082,141.68648624045875 191.72914132861933,141.6787266366229 191.82031667363276,141.6554478252888 191.86202454430827,141.6515680234287 191.89791271199124,141.6554478252888 191.95610974087575,141.69812564615472 191.98908805706247,141.76796208073517 192.03758558103652,141.85719752484744 192.07444369925682,141.93479356326375 192.08996290692852,142.0007501960419 192.08317325357214,142.08222603608706 192.05892449158512,142.2063796975763 192.0230363238443,142.29173533988626 191.94059053308843,142.34993236842388 191.8697841481441,142.346052566795 191.80188761458044,142.346052566795 191.720411774304,142.40036979347252 191.62729652827383,142.47796583194665 191.5293315297884,142.57884068152362 191.4517354914299,142.70687414504638 191.44203598669293,142.8659460237391 191.47501430299528,142.97458047715193 191.50799261923981,143.01725829853817 191.57976895477924,143.03665730789652 191.60789751868418,143.11813314817294 191.63602608258915,143.2345272058263 191.6738541512311,143.30048383854665 191.73205117999996,143.31988284790503 191.8125570697969,143.33152225377444 191.93089102835143,143.3780798767895 192.0598944421224,143.4673153209018 192.174348598759,143.5604305670476 192.21702641974056,143.63026700145463 192.27425349808775,143.7233822473692 192.40228696132147,143.81261769148145 192.47794309872097,143.84365610705612 192.52644062269505,143.86693491839023 192.56329874091531,143.89797333396487 192.6117962648894,143.9290117489614 192.68260264994933,143.9833289760436 192.78250754927808,144.05704521242635 192.84458438002267,144.1385210525293 192.84749423140332,144.23163629884857 192.82324546941626,144.2704343180278 192.8009366083882,144.31699194075384 192.7970568064703,144.39070817754128 192.8222755189368,144.4450254042188 192.97552769469482,144.54590025402703 192.99007695194484,144.59633767890224 192.99104690236652,144.63125589627919 192.99007695194484,145.12787054171574 192.98425724901014,145.33350004348137 192.9551587346257,145.41497588369995 192.8833823991441,145.5507689507117 192.88241244866464,145.5856871679152 192.89114200297996,145.7680378581155 192.93381982413493,146.00082597324877 192.95418878420404,146.25301309785607 192.9561286851052,146.51295982635702 192.9619483880399,146.73022873376078 192.97358779379366,146.75738734712846 192.96776809085895,146.80782477240834 192.95224888318728,146.83498338554475 192.929940022217,146.85826219728355 192.85525383523915,146.94361783918882 192.7757178959795,147.028973481441 192.7553489359104,147.05225229317978 192.6981218575632,147.1570069447903 192.69424205570309,147.19580496420082 192.70588146139906,147.25012219087833 192.7184908176901,147.28504040825527 192.74661938153727,147.32383842714546 192.76892824256532,147.34711723882643 193.00850601099717,147.52558812687752 193.06767299024554,147.56050634425446 193.33052957018492,147.6807802039414 193.6137551101934,147.80881366688604 193.63994377319722,147.832092478567 193.65934278272903,147.8592510921081 193.73790877162483,148.13471702810733 193.8358737699946,148.3830243509123 193.98233629239627,148.6158124659878 194.12006926048258,148.82532176961354 194.1404382205517,148.85248038315464 194.27817118863803,149.08526849788322 194.33830811836586,149.19390295170075 194.43627311685125,149.44221027450575 194.45664207692036,149.4848880955451 194.4799208883701,149.5198063127486 194.5875853915925,149.65171957790022 194.69330999385596,149.87286828733755 194.79321489335814,150.11341600648015 194.91930845557505,150.32292530987465 194.9493769204968,150.35396372521802 195.04249216652698,150.42380015962505 195.09098969050103,150.47035778269796 195.10941874955338,150.49363659443677 195.1229980562661,150.52079520757317 195.12784780872133,150.55183362297439 195.12590790770454,150.58287203849122 195.11232860104963,150.61391045371897 195.09001973996374,150.64106906726008 195.00660399878618,150.7225449075365 194.8552917239293,150.9436936167426 194.7641163789159,151.16096252420417 194.75441687406325,151.417029450845 194.7437474188468,151.45194766804852 194.72531835967882,151.48686588525203 194.70203954817129,151.51790430059543 194.65839177665245,151.54506291413654 194.62444350981278,151.56058212186605 194.41590415678215,151.61877915040364 194.38001598904134,151.63041855627304 194.34703767268118,151.6498175659205 194.31211945547767,151.66921657527885 194.27914113917532,151.68861558481066 194.18311604164887,151.78949043496578 194.1617771311581,151.83604805798086 194.1627470816954,151.89036528454275 194.18990569506303,151.99511993632672 194.1976652988989,152.02615835190136 194.21027465513214,152.05719676707133 194.2888406439123,152.1813504283871 194.3615869298734,152.27446567470636 194.4294834635527,152.4800951760673 194.46440168075623,152.64304685679357 194.46052187883828,152.78271972578105 194.46634158165736,152.81375814129788 194.52938836288146,152.96507041580787 194.54975732295054,152.99222902934898 194.5749760354749,153.0077482371941 194.6089243021411,153.02326744492362 194.66906123186894,153.03102704858603 194.7010695976918,153.03490685038832 194.73598781501093,153.03102704858603 194.77575578466966,153.0271472465525 194.81261390288995,153.01550784108778 194.84753212009346,153.00386843521838 195.09195964098052,152.8641955662309 195.12784780872133,152.84867635832796 195.16664582784276,152.8370369526898 195.20932364899775,152.8292773490274 195.39749404195928,152.80987833932215 195.44114181353592,152.80599853746205 195.556565920652,152.81375814129788 195.59827379121188,152.81763794298456 195.63998166182955,152.8292773490274 195.68168953250506,152.84867635832796 195.78644418428902,152.91851279313966 195.8553106683322,152.95343101034317 195.91350769704326,152.99222902934898 195.95909536957888,153.0116280388808 195.99304363641852,153.02326744492362 196.02796185362203,153.0271472465525 196.0609401699822,153.03102704858603 196.09197858526778,153.0387866524219 196.1210770996522,153.05430585992013 196.15017561409448,153.0698250677653 196.28305882978339,153.17457971954926 196.4508602626758,153.384089023175 196.4770489256796,153.4112476367161 196.6060523393928,153.628516543773 196.6409705566541,153.67895396899507 196.71662669411145,153.84578545135022 196.84078035548507,154.0746937646234 197.0192512437096,154.28032326604213 197.20548173576998,154.49759217344592 197.31993589229094,154.63726504266464 197.42372059365323,154.87393295960024 197.4460294546235,154.97480780935066 197.44796935564025,155.0058462249253 197.50519643387184,155.1687979052469 197.5284752454372,155.20371612262383 197.55660380934216,155.23475453802504 197.7030663318016,155.34338899184257 197.87959731900938,155.4714224547872 198.0318795442301,155.58005690877815 198.33838389574615,155.93699868499596 198.6031803767023,156.25514244220798 199.07554626015184,156.67416104957508 199.34713239446438,157.05438163747388 199.60416927146906,157.57039529244224 199.60901902386647,158.07864934369036 199.52657323311058,159.10679685211383 199.46643630338275,159.6616085264349 199.38496046310632,161.01177959387266 198.81365963074973,161.054457414912 197.87183771517354,161.19025048186595 196.22195194951826,161.59374988156134 194.18408599212833,162.17572016925004 192.7757178959795,162.61413778574428 191.81061716895357,162.94392094899914 189.97353096070063,163.64616509597005 188.2964865816777,164.42988508339081 186.83186135766115,165.10109081519178 185.98703449003307,165.46579219565015 184.33811867491508,166.26115158870905 183.07330324967165,166.8935593015042 182.38851821121577,167.55700542941153 182.06552470154853,168.15449492482972 181.66202530208437,168.8373400620954 181.04125699515862,170.30778498898883 180.13435329690154,171.77822991611353 179.50194558422203,172.4610750533792 178.55042416390881,173.00424732223553 178.04701986500027,173.24091523917113 177.185703839221,173.33791028711923 174.68129170120065,173.4038669194927 173.16913890368951,173.5280205808085 170.9712311171852,173.86168354603907 168.58030318537976,174.32725977613222 168.53762536416698,174.33501937996806 166.32031856813086,175.20797481150112 164.4289151331426,176.3990740004196 162.55982055912457,177.63673081217974 161.91383353979012,177.8346007099361 160.1553133204908,178.23034050539096 158.71687675942022,178.2962971381113 156.7614565927862,178.05186961716643 155.19498656853975,177.68716823711276 155.1600683511628,177.68328843490576 153.34044125165616,177.5979327930005 150.49169669341998,177.86175932330374 148.58768390219848,177.8695189271396 147.11626902482556,177.52809635842004 145.63321474169885,177.19055359150278 144.09778313268018,176.7133379554246 141.88435613850416,175.48732054947604 138.33336743318145,173.66769345014285 136.03167494531485,172.7947380186098 134.34493106155492,172.50375287476544 132.01026025738597,172.82965623563985 129.43019198202387,173.32239107944756 126.22450564733865,173.88108255539743 124.18372983851027,174.00135641508436 122.17884219742272,173.79960671512103 120.36988455313255,173.21763642743232 118.8431824984292,172.6861035648501 117.31454054276689,172.15845050407015 112.958492939417,170.50177508488508 109.42011359032753,169.29903649050186 109.3599766605997,169.27575767893651 106.96904872862083,168.7403450141473 105.15621128252836,168.40668204926357 103.74881313674338,168.3368456146831 102.01842148134898,168.2282111612125 101.08920892200604,168.14673532099388 98.16383827589085,167.91782700766288 95.52072321930468,167.6501206753839 92.6263909885329,167.64236107154807 89.93671830898947,167.77427433669968 88.4362049171743,168.08077868804227 87.20436780829104,168.37176383188662 87.16459983863231,168.38340323792949 85.78145045489217,168.84121986412896 83.52825549099963,170.0245594492116 82.67469906911401,170.691885378979 81.94529630848636,171.46008615872807 81.31288859592246,172.24380614614887 80.5068597474158,173.83452493249797 79.50393095163228,175.5028397573212 78.29537265419876,177.0120827031048 77.03831683279118,178.74247435867264 75.42916898733193,180.50002462760813 74.35737370756306,181.38073966297702 73.77831327131281,181.85795529888176 73.62021134309957,181.97046955450156 72.4456013125057,182.75806934372466 71.06245192876555,183.29348200839826 69.7568985833261,183.6465439829872 68.37956890252067,183.60386616194785 65.77719176607272,183.10725151633787 64.22042124650545,182.91326142044164 62.78780438825397,182.955939241481 61.208725007658636,183.09561211046847 59.83818498015176,183.54566913300553 58.61410747504653,184.13539902470353 57.51321368083541,184.7367683217506 56.98168081807974,185.477810488132 55.82549984653819,187.16164452045348 54.41422189889311,188.82219974144087 52.76239623233669,190.31592347984184 50.8467440353614,191.64669553757437 49.630426134092026,192.1665889946919 47.06102731400424,193.0628232377903 45.69533703889477,193.41588521237927 43.2947096021789,193.63703392164317 41.54588888761655,193.52839946782564 39.85623515236037,193.11326066249208 35.09280834762839,191.94544028548583 34.096669205316864,191.8639644452094 33.43128317627716,192.026916125531 31.721260480951877,193.09386165296027 30.76294940722449,194.12976876521958 29.484554675326134,196.48480852934202 28.05581761899257,197.56339346240946 24.78126480026417,198.18804157136876 21.320481489533204,197.60607128368005 20.035297104220668,197.2452497054287 18.260287726712328,196.74087545598286 17.910135603677443,196.64388040803476 17.830599664302174,196.60896219083125 15.03520238243747,195.74376636313406 13.2728023612202,194.9173685546739 11.549200359239991,193.40424580633643 10.42211790202507,191.8639644452094 10.296024339750334,191.54582068782395 10.202909093720141,190.482754962197 9.908044147957868,189.5904005213634 9.351292572677869,188.2712678689221 9.079706438480958,187.50694689120658 8.672327237041056,186.3546457216986 8.146614077162267,185.5980843477611 7.524875819814843,184.70185010454708 6.556865241350459,183.7086208137318 5.854621094206099,183.18096775295186 5.0951498688301635,182.7774683534299 4.578166263151078,182.53692063451857 3.7711674642227524,182.25369509451008 3.0466144560503254,182.0752242061121 2.1435905597111784,181.94331094096046 1.4006084924286093,181.94331094096046 0.6760554841983689,181.94719074276276 0.022308861085880247,181.95107054462287 0.006789653414181677,181.78423906226774 0.001939901016775875,181.26434560532365 0,180.2439577009673 0.19108024445778862,179.6503480074092 0.4481171215202962,179.14985356017036 0.7846899379002589,178.60280148968516 1.0708253293472012,178.16438387278623 1.4297070067552307,177.54749536806747 2.185298430386682,176.53486706720008 2.4394254559529323,176.19344449848052 2.752719460767534,175.78606529715626 3.606275882710955,174.81999461970864 4.105800379643752,174.40097601234152 4.606294827056032,173.99747661287736 5.007854325561232,173.6638136481671 5.400684269751102,173.31851127724056 5.939006785920959,172.86457445301681 6.3483258882041955,172.5929883188777 6.808082415536079,172.25156574981128 7.070938995475474,171.98773921950803 7.37744334699152,171.63467724491906 7.734385123382774,171.188500024589 7.78094274639787,171.12642319384437 8.195111601136325,170.63368835021015 8.595701149162045,170.14871311046954 8.847888273827147,169.78013192838233 9.119474408139686,169.45034876535874 9.480295986448864,169.1322050079733 9.813958951390383,168.86449867546307 10.482254831810716,168.39116284176532 10.9817793286857,168.1428555187869 11.422136846370147,167.921706809523 11.888683027058399,167.6384812695145 12.492962175717349,167.4095729562413 13.510440228693085,167.30093850259723 14.686990160303733,167.2931788987614 15.058481193945017,167.24274147388618 15.196214162031342,167.22334246418094 15.661790392182299,167.1147080107681 16.608462060213725,166.85088148023362 17.108956507626004,166.74224702664736 17.48141749174677,166.61809336515813 17.917895207513293,166.48618010000652 18.384441388085918,166.29219000411027 18.880086083158602,166.19519495616217 20.070215321424175,166.16415654076096 21.23706574824001,165.8072147643697 22.034365042373523,165.79945516053385 23.298210517137477,165.8421329815732 24.82006281950123,165.7334985277557 25.420462166242256,165.58218625307225 25.878278792557364,165.43087397844664 27.137274515039536,164.97305735184247 28.738662756547306,164.77518745414392 30.198438228166452,164.53851953720834 31.45743395059081,164.46868310280132 33.776585547030265,164.46868310280132 35.062739882764475,164.29409201620564 36.235410012457194,163.59960747289713 41.539099234260185,160.8177894979764 43.92129761192373,155.02912503625942 44.431491564073,153.84578545135022 44.87572888367537,152.82151774519156 45.691457236976845,151.67309637731242 46.979551473727824,150.24532927163176 48.04552705061981,149.29089799964888 49.03196668825215,148.4101829644534 49.22595678414838,148.2239524722196 51.00678586447579,146.49744061885875 53.390924143040486,144.1424008547363 56.37643171894131,141.87271673251914 58.84592563970034,140.14232507712475 60.36777794194847,138.81543282125233 61.52007911157209,137.50017997101807 61.878960788980116,137.13935839259327 62.74997631961202,136.2586433573978 63.461919971609,135.41672634120815 64.83342994947974,134.4040980405142 65.53470414620243,133.9191228007736 66.00803998024705,133.59321943972577 66.87517570878758,132.81725905614084 67.3582110475692,132.10337550312707 67.58032970737038,131.49812640410428 67.60263856839845,130.88123789921207 67.38051990859726,130.29926761152336 66.66566640527746,129.80265296591338 65.87806661593876,129.61254267205072 64.72091569385992,129.41079297226082 64.64331965550143,129.38751416057983 63.7024676904047,129.2672403012976 63.09915849216742,129.05385119569613 62.94493636592991,128.53395773875204 62.93426691065562,128.3166888315217 63.02738215668581,127.7230791379636 63.3367963596403,127.00531578326316 63.35522541875044,126.96263796187692 63.887728231985605,125.70170233855141 64.05067991259625,125.01109759721864 64.03807055630519,124.4174879038918 64.01964149731067,123.62212851060163 63.8576597671795,122.76857208877382 63.612262295812954,122.06244813976936 63.44543081340001,121.39512221000194 63.31739735005068,120.5764840051464 63.265020024158694,119.68024976193237 63.2756894794908,119.39702422192387 63.44252096190375,118.80729433039933 64.00800209144127,118.0856511738966 64.42993055001557,117.55023850928082 64.4745482720717,117.5036808862079 65.09919638085758,116.98378742926381 65.94208334758451,116.5259708028909 67.08856481427343,116.02547635542079 67.16713080316921,115.99055813804385 68.37374919958597,115.65689517333358 69.98968669840158,115.26503517956539 71.45916167487336,114.90033379910703 72.8306716528019,114.63650726863034 74.18278262125645,114.43863737087399 75.23420894101403,114.25628668067372 76.96848039838416,114.01573896205146 77.85792498795276,113.79459025261413 78.78131784441882,113.42212926855117 79.47774228874411,113.04966828425697 80.13633866431182,112.6655678946715 81.27215067578426,111.84304988801367 81.7697352718159,111.30375742119088 82.06460021752036,110.9041378238759 82.33618635171727,110.48511921674003 82.63008134705788,110.15145625185633 82.91912658988545,109.85271150417613 83.40798163154396,109.48801012371777 83.98413221641358,109.21254418737169 84.5127552277308,109.09227032808947 84.89782556814265,109.11166933779471 85.03652848659283,109.11942894163056 85.54963229023836,109.20090478167573 86.24120698210842,109.36773626443555 86.9434511292528,109.48413032168422 88.10351190271226,109.51904853906117 89.05503332314109,109.39877467943207 89.85524246871304,109.24358260294633 90.18890543359676,109.13494814912882 90.65157181236708,108.98363587427194 91.25488101060436,108.59565568247947 92.00077292926755,107.8158154972657 92.92901553813103,106.81482660220989 93.87083745370724,105.63536681933424 94.77580125106316,104.52962327249446 95.73508227527003,103.45879794343632 96.79232829790449,102.51212627511583 97.94462946752812,101.82152153378306 99.19101583371922,101.10375817914044 100.07076091855082,100.40927363577411 101.24440099878083,98.83019425529442 102.18913276573767,96.25400578173463 103.01747047521458,95.19869966011694 103.2638378970028,94.88443570459161 102.41319132655563,94.32962403027057 102.30552682327541,94.13563393437434 102.11444657893325,93.9571630461498 102.09019781694622,93.93000443295558 101.99126286792351,93.70497592171596 101.9708939078544,93.54202424116312 101.96022445263793,93.2937169181847 101.95246484880208,93.07256820915205 101.93791559155206,93.02213078387216 101.84286044462071,92.90573672639223 101.66535950687566,92.70010722485785 101.48882851955227,92.50999693076392 101.28028916646382,92.33928564660648 101.06980991241642,92.14917535233911 101.02325228951695,92.07157931409624 100.92431734049424,91.8543104068659 100.83314199548082,91.61376268772332 100.79143412486313,91.38873417659931 100.77785481809258,91.34993615742007 100.75845580850296,91.31113813835645 100.70316863123034,91.24130170360256 100.53051744582488,91.05119140973987 100.3918145273169,90.81840329460658 100.22595299532561,90.6127737930144 100.06009146333433,90.39938468764416 100.0300229984126,90.36446647044066 99.99704468211024,90.33730785689956 99.95727671245152,90.3179088471943 99.9795855735374,90.2713512241214 99.9592166134683,90.24419261092717 99.7380679042044,90.08124093025872 99.62361374756782,90.00364489201586 98.36752787663971,89.67774153096799 98.02222550588661,89.41391500026005 97.97372798191255,89.34407856585304 96.9164819593359,88.4866423420495 95.95817088560851,88.5370797669247 95.95526103422787,88.57587778610396 95.94653147985474,88.62631521103698 95.93683197500211,88.67287283405207 95.90870341109715,88.83582451443147 95.90385365869975,88.88626193965355 95.89512410438442,88.91342055284777 95.75545123533914,89.16560767768631 95.6128685148554,89.35959777358255 95.58473995095045,89.37511698125425 95.38008039983774,89.47599183117809 95.26174644128322,89.51478985006828 95.22876812498086,89.51866965227526 95.06387654346906,89.55358786947878 94.95233223838655,89.59626569051814 94.92711352586223,89.61954450185225 94.8883155067986,89.66222232323848 94.6962653117457,89.83681340942947 94.6041200162528,89.94544786307354 94.58763085804381,89.96872667481234 94.56435204659408,90.01140449585169 94.50421511686625,90.10063993996397 94.3053752685726,90.41102409328231 94.25202799214334,90.47310092385348 94.20353046816928,90.50801914123042 94.11623492507378,90.55457676412989 94.08713641068935,90.56233636796574 94.02311967904359,90.58173537749755 93.99499111513865,90.59725458516925 93.95716304638105,90.63993240655549 93.92515468061599,90.68649002928152 93.90672562144805,90.73304765252787 93.87277735472401,90.76796586973138 93.84076898890113,90.78348507722964 93.75153354478887,90.80676388891062 93.6826670607457,90.82228309664013 93.64871879390606,90.82616289861588 93.58373211178082,90.83392250245173 93.55075379547846,90.84168210634539 93.51971538013505,90.84944171018124 93.49061686575062,90.86108111564594 93.42854003512164,90.88435992738475 93.37228290731173,90.90763873871884 93.13561499026052,91.08610962711683 93.10263667395816,91.13266725018974 92.91931603339403,91.35769576108248 92.90185692470556,91.38097457276348 92.76800375853716,91.58660407435566 92.6215412361355,91.79223357612129 92.57983336557562,91.83879119896295 92.52648608914635,91.8737094163399 92.4421003974893,91.91638723761051 92.41106198208809,91.93190644510877 92.35771470577444,91.96682466231228 92.29078812263242,92.02114188922104 92.18991327276639,92.14529555071026 92.14529555071026,92.1879733717496 92.11134728398622,92.22289158895312 91.24906130766966,92.83202049018291 89.41876475294653,93.19284206843427 87.52348151604033,92.92513573592404 85.48852541003104,91.93190644510877 84.44388874368765,91.30337853434716 83.92496523710741,90.77572547339379 83.4836377689435,90.32566845103015 83.87549776265388,88.96385797789642 84.14126419408953,88.03658531968587 85.26446684932871,85.58067070540832 85.59715986373294,83.76104360613292 85.61558892284307,83.60197172744019 85.58843030947543,83.57481311407253 84.73002413507677,82.66693946516254 83.30031712837936,81.64267175877262 81.35362651600286,81.04906206521453 78.32835097050112,80.42441395648646 73.5513448590564,79.31479060801783 71.18563563960186,78.88025279315247 67.35627114661023,77.56499994291819 67.09341456667084,77.44084628177586 66.6220186337008,77.18089955315928 66.18263106643803,76.89379421111722 65.99640057437765,76.7696405499749 65.27572736818095,76.22646828117638 64.49297733118185,75.64061819162757 63.99054298286842,75.2797966133762 63.21555254970516,74.77542236416163 62.67819998407259,74.40296138004086 62.17576563575917,74.04213980161606 61.60640470430373,73.65803941179934 61.287290996554425,73.40197248498505 61.199025502863826,73.39809268318275 61.15828758284125,73.3942128811492 61.11948956354637,73.39033307952035 61.08069154442494,73.3825734756845 61.044803376684136,73.37481387179083 61.013764961282924,73.35929466394569 60.93713887340391,73.30109763523464 60.8091054101124,73.11874694497655 60.628694620986714,72.90535783977977 60.60735571043813,72.88595883007451 60.537519275857676,72.8355214051993 60.48611190050298,72.81224259346051 60.33964937804352,72.76956477242115 60.30376121030272,72.76568497056104 60.26690309208243,72.75792536672519 60.23683462733414,72.74628596108704 60.17572774706901,72.71524754551238 59.99822680932396,72.58333428036076 59.76349879328952,72.36994517493272 59.74215988268312,72.33890675958932 59.72858057597038,72.31174814604823 59.72179092261402,72.16043587119135 59.72373082357298,72.10999844648958 59.75767909035482,71.99748419086977 59.8255756239185,71.76857587777003 59.88959235556426,71.551306970135 59.96621844344327,71.30299964750344 60.00792631406096,71.16332677834254 60.05545388755554,70.9344184652428 60.12335042117703,70.70163035034075 60.156328737421575,70.62791411372675 60.18057749940861,70.57747668902498 60.20482626139564,70.38348659312875 60.2067661623546,70.13129946811677 60.16311839083576,69.99162659912929 60.04090463036332,69.76271828602955 59.842064782069684,69.56096858629746 59.610246617531494,69.39413710394234 59.351269839510024,69.23506522524961 59.324111226026744,69.21566621554436 59.30277231553597,69.19238740421025 59.28434325636801,69.16910859264489 59.27464375163102,69.07599334655688 59.27270385061424,68.82380622212304 59.25427479156191,68.74621018347548 59.102962516705034,68.5289412760717 58.948740390467535,68.31167236884136 58.82070692717602,68.08276405574162 58.67521435525384,67.87713455397599 58.60343801983005,67.78789910969029 58.50838287278309,67.68702425988205 58.29014401489982,67.54735139106802 58.19605881839015,67.45423614498002 58.14853124489557,67.3533612951718 58.14659134399442,67.12057318009632 58.13883174015858,67.06625595318755 58.126222383925324,67.01581852831235 58.10585342385622,66.96538110337933 58.06996525611542,66.91882348036422 57.99042931674015,66.724833384468 57.70235402439206,66.32909358860843 57.510303829396975,65.78592132015679 57.4482269988258,65.74324349911744 57.510303829396975,65.52597459188709 57.52582303706867,65.4755371666072 57.583050115358056,65.29318647658036 57.68489491570358,65.06815796528292 57.73824219213286,64.89744668112549 57.74697174644819,64.68793737755756 57.82844758666679,64.42023104504732 57.841056942900046,64.19132273194758 57.86336580398593,64.14476510887467 57.884704714592324,64.12536609934286 57.903133773586845,64.10208728766187 57.97006035667104,63.993452834017795 58.08548446378711,63.764544521091494 58.164050452567274,63.51623719811306 58.19896866988641,63.32612690407694 58.23291693661044,63.19421363892532 58.24358639194254,63.14765601585241 58.24940609476162,63.0972185909772 58.26201545099487,63.04678116627544 58.30857307406778,62.97694473169498 58.3279720836574,62.95366591995618 58.349310994205986,62.93426691042437 58.61895722750175,62.79459404161033 58.87502415402697,62.55404632269901 59.27173390013476,62.135027715331894 59.74021998172416,61.75092732574642 60.40851586208668,60.92064971525273 61.36197718341666,60.48223209858506 61.54335792307964,60.24556418141822 61.57051653662074,60.01665586814504 61.62289386245491,59.83818498015176 61.72958841514002,59.61315646868087 61.8653814823252,59.39976736342627 61.88187064041856,59.37648855174528 61.89447999665182,59.30665211733827 61.89932974904922,59.252334890256066 61.966256332191236,59.10102261557263 61.98274549040023,58.930311331415204 61.98274549040023,58.899272915840555 62.07974053834835,58.76347984865538 62.10592920117871,58.689763612446065 62.14860702227588,58.643205989199714 62.16994593282447,58.619927177865605 62.179645437677095,58.56560995095685 62.180615388156575,58.51129272404809 62.13114791370303,58.39877846860171 62.10592920117871,58.29402381681775 62.05258192480725,58.119432730395516 61.95461692637965,57.940961842228795 61.920668659655625,57.890524417122336 61.9167888577377,57.81680818091302 61.901269650066,57.76249095383082 61.89157014521337,57.71593333075791 61.89157014521337,57.61505848118094 61.920668659655625,57.54522204660048 61.965286381711756,57.47538561219346 62.00893415323059,57.409428979241866 62.07198093439687,57.351231950704246 62.1786754871398,57.25423690275613 62.200014397746195,57.20379947764967 62.22523311027052,57.157241854808014 62.243662169265036,57.133963043069215 62.26015132747403,57.11068423173511 62.341627167750445,57.02532858965639 62.368785781118106,57.00980938175344 62.39788429556035,57.00204977791759 62.5491965703016,56.94773255118227 62.806233447421924,56.79254047434966 63.03320185962051,56.614069586125126 63.08945898743042,56.55587255758751 63.109827947499525,56.51319473654815 63.13310675900707,56.4394784997607 63.14377621422355,56.41231988639304 63.24659096510637,56.22996919636621 63.279569281408726,56.152373158123346 63.30187814237898,56.1329741484181 63.32806680538279,56.11357513871285 63.39111358649125,56.04761850610813 63.48034903060351,55.919585042816614 63.503627842111065,55.8497486084096 63.503627842111065,55.80319098533669 63.49004853545614,55.75663336226378 63.455130318137,55.713955541397866 63.367834775041516,55.63635950280811 63.34164611203771,55.624720097285596 63.06618017586506,55.496686633820644 63.05939052250869,55.46952802027954 63.04193141387803,55.41909059557778 63.023502354767885,55.39193198221012 63.01283289955141,55.34149455733491 63.00507329571556,55.26389851868735 62.992463939482306,55.18242267864218 62.978884632711754,55.02723060175176 62.95172601934409,54.953514365542446 62.91486790112381,54.91083654427183 62.870250179009865,54.86815872305904 62.84600141702283,54.85263951538734 62.67529013263415,54.73624545790741 62.63552216297543,54.697447438901605 62.609333500029436,54.65476961780443 62.61321330206299,54.60433219258235 62.636492113512716,54.58881298508409 62.66365072688038,54.57329377758583 62.69565909270326,54.56165437154299 62.73154726044406,54.55389476788058 62.843091565642204,54.51121694684122 62.85570092193328,54.484058333300126 62.89255904003793,54.387063285352006 62.90128859435326,54.31722685094499 62.91680780202496,54.290068237403894 62.9362068116724,54.26678942601197 63.129226957089145,54.06115992430415 63.16996487722736,54.02236190489365 63.21361264874619,53.98356388606128 63.23010180695519,53.960285074322485 63.34746581497241,53.83613141283327 63.407602744642425,53.723617157213454 63.43864115998583,53.71585755355105 63.46579977346911,53.70033834605279 63.549215514646676,53.65766052478217 63.58219383100685,53.65378072280644 63.620021899648805,53.65378072280644 63.68403863135237,53.64990092094632 63.754845016296684,53.642141316937035 63.885788331084456,53.64990092094632 63.921676498825256,53.65378072280644 63.95756466656606,53.65378072280644 64.20878184075168,53.65378072280644 64.24273010747571,53.66154032664229 64.27376852287692,53.673179732511684 64.30771678960095,53.680939336347535 64.34360495734175,53.68481913832328 64.41150149096325,53.69645854384579 64.44641970816676,53.69645854384579 64.51043643981251,53.708097949715196 64.57445317145826,53.71585755355105 64.73934475297006,53.711977751517495 64.7732930197519,53.704218147681644 64.80336148467363,53.68869894000994 64.8305200980991,53.66929993047813 64.96049346234958,53.56066547683406 65.15157370674956,53.37831478663379 65.38339187134555,53.19984389858269 65.4425588505939,53.172685285041595 65.55313320525475,53.122247859992946 65.57447211586116,53.10284885063458 65.59581102646756,53.07957003895359 65.61811988737999,53.05629122761948 65.71220508394748,52.97093558530951 65.73839374683565,52.955416377464374 65.8092001318956,52.92437796246786 65.79853067656349,52.88557994305736 65.8188996366326,52.866180933352105 65.84799815101702,52.85066172568041 65.9731217628701,52.80022430097864 66.26701675815289,52.714868658842114 66.5502422981614,52.62951301641652 66.83249788780603,52.5441573743378 67.11863327919517,52.462681533887945 67.41446817549473,52.388965297620814 67.5958489150999,52.33852787257217 67.98867885923195,52.07470134209548 68.04202613560341,52.004864907688464 68.24765563725342,51.80699500993212 68.45910484178032,51.64792313141284 68.481413702924,51.62464431973185 68.59004815656809,51.49661085661378 68.74718013424403,51.271582345142896 68.97608844734377,51.09311145691836 69.20014700816174,50.93403957839907 69.44360457845369,50.782727303773456 69.65505378298059,50.61589582101363 69.85195373031526,50.43354513081336 69.94506897634545,50.25895404462238 69.98968669840158,50.04168513739204 70.16718763614664,49.847695041495804 70.34177872245324,49.66534435106428 70.50570035354338,49.463594651332194 70.67738158835373,49.26960455543596 70.7307288647252,49.18424891353069 70.73945841909834,49.15709029998959 70.79765544780939,49.013537628968564 70.96351697980067,48.81178792923648 71.1487775214972,48.610038229504404 71.33500801344195,48.408288529945764 71.37865578507642,48.400528926109914 71.43879271480425,48.38112991640466 71.46595132817191,48.3656107089064 71.70261924516531,48.210418631842536 71.93928716215872,48.07074576285506 71.99457433948915,48.03970734768511 72.22542255360565,47.880635469165824 72.43590180765307,47.70992418443026 72.65899041799155,47.53921290021501 72.91990709691417,47.38014102169573 73.16821441971916,47.24046815236137 73.28654837821585,47.17063171795436 73.31273704110404,47.131833698948554 73.43398085103918,46.91068498968466 73.59402268015357,46.70117568605892 73.76667386555904,46.499425986326834 74.0052816835114,46.35975311699248 74.25164910529962,46.21620044631834 74.53778449668874,46.08040737919097 74.78900167093218,45.94849411386591 75.06931735944443,45.80106164098478 75.3535128499324,45.65362916798801 75.6163694298718,45.49455728929529 75.86952650501638,45.31608640124419 76.08776536289965,45.14537511691332 76.28660521119328,44.95138502101709 76.45343669366403,44.74963532128501 76.49126476242162,44.70307769803866 76.61153862187729,44.699197896178546 76.64257703716287,44.699197896178546 76.86469569696405,44.62160185776224 76.93065232962658,44.598323046428135 77.02570747655793,44.559525027364515 77.05383604046287,44.54788562155293 77.1197926730676,44.536246215683526 77.16344044464425,44.524606809814124 77.18865915711076,44.54012601765927 77.22357737437208,44.54788562155293 77.33609163004971,44.598323046428135 77.36325024347518,44.60996245229754 77.39428865876076,44.62160185776224 77.44957583609119,44.64876047130334 77.48837385532825,44.679798886878 77.52038222109331,44.66815948083515 77.55045068607286,44.66815948083515 77.57954920034166,44.65264027333689 77.59991816041077,44.633241263631646 77.6493856348643,44.56340482922463 77.68430385212562,44.48968859261062 77.70855261411266,44.470289583252246 77.75705013808671,44.44313096971115 77.78808855348792,44.4353713658753 77.81524716685558,44.41985215803016 77.84434568129784,44.41209255419431 77.87538409658342,44.4082127523342 78.05094513342732,44.4082127523342 78.22747612063507,44.415972356401305 78.25948448645796,44.423731960237156 78.29634260467824,44.431491564073 78.41952631557236,44.46640978127651 78.50197210632825,44.536246215683526 78.54949967982283,44.575044235094026 78.57859819420726,44.58280383892988 78.61157651050962,44.58668364055873 78.67753314317216,44.59444324439458 78.8492143779825,44.62936146177153 78.91614096112451,44.63712106560738 78.9782177917535,44.66039987717274 79.10819115600397,44.718596905710356 79.17026798674858,44.74187571744916 79.32643001388723,44.78455353848852 79.39626644846768,44.788433340290815 79.49617134779643,44.800072745986775 79.52817971361931,44.788433340290815 79.55436837662312,44.77679393482611 79.62323486066629,44.718596905710356 79.66203287978772,44.675919084671 79.73089936383087,44.61772205613339 79.76484763067053,44.60996245229754 79.86572248053658,44.58668364055873 79.95883772656677,44.56340482922463 80.00733525054082,44.53236641382342 80.02576430959316,44.50908760214243 80.07135198218658,44.485808790981764 80.10142044699268,44.485808790981764 80.20326524733821,44.47804918714591 80.23818346459953,44.47804918714591 80.48164103494929,44.470289583252246 80.5087996484904,44.4625299794164 80.53498831132076,44.45089057360481 80.59318534014744,44.4353713658753 80.65623212125591,44.4353713658753 80.65332226987528,44.357775327458995 80.70084984331204,44.28405909124968 80.90647934496205,44.0978285991893 80.9404276118017,44.0590305797788 80.95303696803495,44.008593154903586 80.97340592810406,43.98531434351167 81.02384335297927,43.95427592799483 81.05100196640474,43.94263652212543 81.11889850002623,43.92711731445373 81.21880339941279,43.92711731445373 81.2488718642189,43.92711731445373 81.27797037860333,43.93099711666073 81.39145458470263,43.98143454153593 81.42637280196395,43.99307394740533 81.45838116784464,44.00083355124118 81.49135948408919,44.008593154903586 81.66304071895735,44.00083355124118 81.69407913430075,43.99307394740533 81.87545987396372,43.89995870108607 81.93559680369155,43.87667988975196 82.02677214876279,43.86116068202245 82.05878051458566,43.857280880046716 82.28477897630478,43.85340107818661 82.35170555950461,43.84176167254846 82.38371392526966,43.83012226650562 82.41087253869514,43.81460305900736 82.44676070637813,43.77968484180385 82.46034001314868,43.674930190019886 82.49040847795479,43.577935142071766 82.49719813142677,43.519738113129456 82.48070897321779,43.46930068825425 82.47100946836515,43.44214207471315 82.46227991404983,43.240392375154514 82.4942882798727,43.13951752517284 82.5010779332869,43.112358911978625 82.51077743802388,43.08520029843753 82.53114639809299,43.06192148675654 82.64754045563073,43.00372445821892 82.67857887103195,42.99208505234952 82.78236357227861,42.97268604264427 82.88711822406258,42.94940723131016 82.92300639180338,42.94164762747431 82.95792460918032,42.9338880238119 83.0258211426862,42.930008221604915 83.30516688077677,42.8950900044014 83.37209346380315,42.87569099469615 83.4933372737383,42.840772777492646 83.54862445106873,42.81361416429843 83.58451261880953,42.79033535261744 83.64464954859517,42.81749396615854 83.70866628024093,42.8446525795262 83.73970469552651,42.864051589231444 83.94533419717652,42.860171787024456 84.17133265889564,42.85629198516435 84.21013067813269,42.85629198516435 84.28287696409377,42.840772777492646 84.31779518129729,42.82913337202794 84.5234246829473,42.67006149333522 84.5447635935537,42.650662483629965 84.6000507708263,42.619624068402196 84.66794730438998,42.60022505869694 84.70092562069235,42.59246545486109 84.76785220383437,42.576946247015954 84.93371373582563,42.47995119906784 84.96281225015225,42.46055218953603 85.03652848659283,42.398475358964866 85.0685368524157,42.38683595332672 85.32072397713863,42.37519654728388 85.58746035899594,42.336398528393694 85.619468724761,42.32863892455784 85.78242040537165,42.2510428859681 85.83479773126363,42.23164387660973 86.10638386546054,42.220004470798145 86.14227203325916,42.21224486690448 86.17719025046267,42.21224486690448 86.40318871218179,42.091971007275376 86.6650753416417,41.940658732765385 86.93375162451579,41.79710606180217 86.96285013890022,41.78546665593277 87.0045580094601,41.75054843872926 87.01425751431273,41.70399081548291 87.04238607821767,41.69623121164706 87.07148459260212,41.6845918059511 87.17623924438608,41.630274579215786 87.4012677555679,41.451803691049065 87.50990220926978,41.3470490392651 87.56033963426061,41.31213082206159 87.6486051278934,41.26557319898868 87.67479379078158,41.25393379311928 87.9318306679019,41.24617418928343 87.96480898420427,41.25005399131698 88.26355373188446,41.34316923723155 88.2975019986085,41.354808643100945 88.32951036443137,41.36644804891254 88.38673744272076,41.38972686030446 88.41001625422831,41.405246067802715 88.44008471909223,41.420765275474416 88.5079812526559,41.424645077681404 88.54095956895826,41.424645077681404 88.63213491414511,41.405246067802715 88.66511323033185,41.393606662106755 88.72622011053916,41.393606662106755 89.05600327362058,41.38972686030446 89.38772633760313,41.38972686030446 89.42555440624508,41.38972686030446 89.54097851336115,41.393606662106755 89.77667647981725,41.405246067802715 90.1307084048857,41.420765275474416 92.42270138789968,41.87082229801148 94.47996635487922,42.16568724388939 96.81463715899038,41.82814447697213 97.0086272548866,41.80098586343103 98.20069639411113,41.424645077681404 98.8893612346584,41.31989042589744 99.0678321227673,41.3354096333957 102.76237349911104,41.707870617689906 103.29487631234619,41.32765002973329 102.35693419880354,39.92316173521331 102.24054014115018,39.717532233794564 102.34141499101621,39.48086431651209 102.58487256136598,39.255835805445905 102.90398626911528,38.95321125573216 102.94763404069194,38.910533434692795 103.68382645461814,38.572990667775535 104.47918584779269,38.47599561982742 105.5597106819347,38.677745319559506 106.48407348888026,39.0308072943219 107.3473294156763,39.63993619520482 107.72464015213666,40.524531032607264 107.74694901322253,40.70300192100523 107.79253668575815,40.73792013820874 107.87498247645624,40.7805979592481 107.93317950528292,40.80387677058221 108.2270745005079,40.896992016901464 108.2881813807152,40.91251122439972 108.4792616252308,40.97070825328422 108.50351038721784,40.98622746101373 108.59662563324802,41.05606389542075 108.62960394949258,41.075462905068186 108.88276102469497,41.20737617004637 109.14270775313811,41.3470490392651 109.3803456206688,41.525519927431816 109.41526383787232,41.564317946495436 109.49091997527185,41.700111013854055 109.50643918294355,41.74666863686915 109.59858447855207,41.979456751829005 109.73922729807684,42.19672565905934 109.90508883006811,42.41399456669438 110.08355971829265,42.58082604922295 110.10974838118082,42.662301889268115 110.24360154734923,42.70497971053872 110.53070688927565,42.82913337202794 110.8071427759856,42.95716683497257 111.08745846449784,43.10071950616704 111.36098449976934,43.217113563820405 111.64905979211743,43.345147026765034 111.94780453979763,43.449901678549 112.02055082575872,43.46542088639414 112.05546904307785,43.473180490229986 112.12627542802215,43.49645930179535 112.40562116611274,43.5973341517192 112.6956363594776,43.68656959583147 113.0195998196243,43.791324247615435 113.3086450625675,43.880559691727704 113.33871352737361,43.888319295563555 113.6432779779885,43.96591533386423 113.67722624471254,43.96979513566653 114.01185916019135,44.00083355124118 114.32224331362532,44.012472956705885 114.64523682323474,44.020232560541736 114.96241063002508,44.012472956705885 115.28152433789,43.98531434351167 115.60354789701994,43.96203553183068 115.90908229799868,43.94263652212543 116.21267679807629,43.90771830492192 116.52015110007181,43.87667988975196 116.83053525350579,43.85340107818661 117.0623534181596,43.822362662843204 117.1341297535834,43.81460305900736 117.23403465296995,43.806843455344946 117.56866756844876,43.81072325697381 117.83249409880983,43.81072325697381 117.86353251421104,43.81072325697381 117.96731721545771,43.822362662843204 118.05170290717257,43.83012226650562 118.32619889286573,43.72148781286154 124.0954643448775,40.23354588876291 125.36027977012093,39.05796590751612 125.89860228617516,38.848456603948186 125.98589782938627,38.57687046980909 126.03342540282304,38.42943799692795 125.95097961218276,38.26260651457282 125.88017322706501,38.134573051107864 125.84719491076265,38.10353463570666 125.76765897150301,38.06473661670085 125.55232996500038,38.00653958775854 125.36803937395678,37.96386176689263 125.27492412792658,37.94058295521164 125.23515615826786,37.901784935974575 125.20508769334613,37.7621120669871 125.18762858471547,37.6845160285708 125.18762858471547,37.60304018829438 125.2235167525719,37.51768454621566 125.28947338506099,37.440088507972796 125.43205610554472,37.37801167722819 125.59597773657704,37.288776233115925 125.66096441870228,37.230579204173615 125.68327327978815,37.19954078883021 125.6803634282919,37.1568629679643 125.62119644904355,37.07538712751444 125.54457036116453,37.001670891247315 125.50674229246476,36.95511326823222 125.47376397622023,36.873637427782356 125.4495152142332,36.753363568500134 125.45436496657278,36.671887728223716 125.43787580842161,36.59817149160971 125.3932580864811,36.55549367039691 125.33797090903505,36.512815849530995 125.19441823812964,36.43909961291698 125.04989561662914,36.256748922890154 124.98975868690131,36.18303268627614 124.91119269812116,36.15975387494204 124.85978532276647,36.17139328081144 124.66191542483668,36.22183070568665 124.584319386536,36.22959030934906 124.54940116921686,36.20631149801495 124.53000215962724,36.14423466744378 124.48538443757111,36.04723961949566 124.41845785454473,35.996802194389204 124.32922241043245,35.973523382708215 124.25162637201615,35.977403184915204 124.05375647420199,36.0239608079303 123.97422053494235,36.02784060979042 123.92475306048881,36.012321402118715 123.7908998942626,35.907566750276935 123.75307182556283,35.86876873109769 123.69099499493385,35.767893881116024 123.67741568816331,35.70969685240497 123.70651420260555,35.6321008141621 124.1051638496145,35.09668814931506 124.20409879857938,34.88717884574713 124.21767810523431,34.80958280733082 124.24580666913926,34.66215033468094 124.30594359892491,34.56903508870856 124.39032929063977,34.452641031055194 124.5009036452428,34.32848736979724 124.78606908626809,34.04914163141759 124.92186215333763,33.94050717800477 125.06153502244074,33.86679094139076 125.13719115984026,33.85515153552136 125.35639996820301,33.89006975307175 125.55911961835675,33.95214658346948 125.82197619829614,34.010343612585224 125.93934020631336,34.00258400874938 126.02857565042564,33.95214658346948 126.10035198596505,33.85515153552136 126.13915000508649,33.77755549727849 126.14205985652492,33.699959459035625 126.03536530383981,33.58744520341581 125.78802793157212,33.42061372106068 125.61731664712562,33.288700455677805 125.21963695053834,32.982196103988315 124.62796715811265,32.504980468257024 124.34474161804634,32.34590858973774 124.27781503507777,32.3303893818926 124.13426236399893,32.32262977805675 124.01592840550222,32.338148985901896 123.72203341021944,32.41574502414476 123.49603494850032,32.489461260411886 123.37673103952415,32.53601888365824 123.31659410979631,32.59421591219585 123.27003648683903,32.68733115851511 123.21668921040975,32.764927196757974 123.15849218164088,32.78432620646323 123.09932520239254,32.78432620646323 123.00814985737911,32.749407989259716 122.79088094991752,32.66017254497401 122.66672728854394,32.57093710086174 122.4989258556515,32.39634601467076 122.42908942107104,32.272192353181545 122.42423966867364,32.17131750319988 122.43102932203001,32.08984166292346 122.49601600415525,31.985087011139495 122.5648824881984,31.876452557726672 122.64150857607743,31.74453929240161 122.65508788279016,31.678582659623448 122.6638174371633,31.507871375234764 122.66866718956071,31.379837911943252 122.66575733806445,31.244044844931516 122.58913125018545,31.108251777804153 122.55809283484204,31.046174947232988 122.51541501380268,30.887103068540263 122.50765541002465,30.821146435762103 122.49989580607317,30.70087257630644 122.4931061527168,30.580598717024216 122.49698595463472,30.374969215258584 122.4931061527168,30.07622446775183 122.44363867826327,29.983109221606007 122.28262689866939,29.773599917864637 122.26031803769914,29.730922096825278 122.25643823578122,29.633927048877162 122.24576878044911,29.587369425804255 122.21376041462624,29.544691604764896 122.00522106159559,29.350701508868664 121.97321269577272,29.331302499510294 121.94023437941254,29.311903489805044 121.90919596412697,29.288624678124055 121.88203735064367,29.261466064756398 121.86166839057456,29.23430745156218 121.84420928200173,29.20326903621878 121.83838957906703,29.129552799604774 121.8403294800838,28.877365674997485 121.80929106468258,28.79976963675462 121.80541126276466,28.566981521447886 121.79183195610973,28.322554000849888 121.77437284742126,28.047088064503797 121.8606984401529,27.907415195516325 122.0459589817338,27.70178569375069 122.21861016702364,27.50779559785446 122.38835150093284,27.30992570032937 122.44557857928004,27.259488275049467 122.4775869450451,27.24008926551766 122.5086253603885,27.216810454010112 122.53384407285502,27.18965184064245 122.56197263675996,27.123695208268987 122.56973224059581,27.073257783162525 122.5561529339987,27.030579961949726 122.53481402339231,27.01118095259136 122.51250516230643,26.991781942943923 122.23606927571211,26.879267687266296 122.12840477243189,26.809431252859277 122.10803581236279,26.790032243154027 122.05662843695028,26.727955412640675 121.95187378516631,26.51068650500564 121.86748809345146,26.2778983901036 121.83644967816588,26.17314373808838 121.68998715576421,25.955874830684603 121.66282854233874,25.928716217316943 121.64051968125287,25.901557603775842 121.62597042411846,25.758004933159512 121.62112067172106,25.726966517584863 121.4940571588512,25.587293648597388 121.46204879302833,25.567894638892138 121.42713057582482,25.55625523336962 121.32334587452034,25.548495629533768 121.29036755821798,25.548495629533768 121.25738924191562,25.540736025524478 121.22635082657222,25.52133701599267 121.19919221308893,25.498058204311683 121.18173310451608,25.470899590944022 121.18270305493776,25.439861175774066 121.23896018274766,25.408822760199413 121.26999859814887,25.393303552701155 121.34856458692903,25.32346711829414 121.40870151665686,25.24199127784428 121.42713057582482,25.210952862674326 121.44264978343871,25.141116428036053 121.4378000310413,25.082919399151557 121.4281005263043,25.0557607857839 121.4232507739069,24.80357366117661 121.45525913967197,24.714338217064345 121.46980839686418,24.683299801836572 121.45525913967197,24.49318950762701 121.44264978343871,24.446631884554105 121.30297691445124,24.322478223238328 121.27678825144743,24.29531961004411 121.24962963807977,24.256521590864864 121.15942424343021,24.02373347555813 121.05175974026561,23.79482516245839 121.02266122582337,23.74826753938548 120.99453266191841,23.724988727877932 120.90626716834343,23.682310906838577 120.87522875294223,23.66679169934032 120.84225043669768,23.647392689635065 120.72003667628306,23.511599622623333 120.7016076171151,23.480561207279933 120.6919081123781,23.449522791705284 120.71809677526628,23.33700853608547 120.79860266506321,23.189576063435588 120.80345241746062,23.13913863856038 120.83934058520143,23.135258836353387 121.0672789478795,23.11198002501928 121.38057295275192,23.05766279811052 121.66961819569511,22.960667750162404 121.92471517179865,22.82875448501078 121.95478363660476,22.81323527728127 122.25643823578122,22.739519040898514 122.56973224059581,22.727879635029115 122.59883075498026,22.727879635029115 122.8432582758095,22.619245181385036 122.88593609690668,22.595966369704048 122.9315237695001,22.58044716220579 122.99360060012908,22.576567360172238 123.79768954761896,21.61437648452693 123.85297672500721,21.594977475226372 123.89371464514541,21.56781886168527 123.9664609311065,21.560059257849424 124.02562791029703,21.536780446110622 124.07897518672631,21.513501634776514 124.11971310686452,21.490222823442405 124.21088845187793,21.478583417573006 124.2448367187176,21.478583417573006 124.2749051835237,21.470823813737155 124.30012389599021,21.455304606007644 124.32922241043245,21.443665200369498 124.38935934010247,21.4281459926978 124.41651795352794,21.412626784794845 124.59013908935508,21.33891054858553 124.8820941836789,21.234155896801568 125.00139809265508,21.168199264023407 125.02758675560108,21.148800254318157 125.12749165498764,21.086723423920432 125.15368031799144,21.07120421607529 125.18471873327702,21.05956481037933 125.24097586108694,21.020766791200085 125.27007437547137,21.001367781494835 125.30111279081477,20.985848573996577 125.33215120621597,20.970329366267062 125.38258863109118,20.939290950750227 125.4068373930782,20.919891941218417 125.46309452088812,20.85781511047381 125.70558214075841,20.733661449158035 125.73662055615962,20.725901845322184 125.76571907048624,20.718142241486337 125.80063728780537,20.714262439857478 125.88502297952023,20.70262303398808 125.91994119672374,20.69486343015223 125.95097961218276,20.683224024282826 126.00432688843861,20.644426005045766 126.19443718241692,20.535791551459504 126.44662430713983,20.407758088283618 126.50288143489192,20.38447927660263 126.76767791579027,20.268085218949263 127.03732414914386,20.11677294443927 127.25653295744878,19.942181857901407 127.47477181533205,19.759831167874577 127.67943136656038,19.57360067581419 127.72307913807923,19.542562260586422 127.74732790006625,19.523163250938985 127.76866681067266,19.503764241407175 127.80455497841345,19.464966221996676 127.90348992726271,19.399009589623212 127.95295740171626,19.336932758878604 128.14015784431393,19.13518305914652 128.16052680438304,19.115784049614714 128.20029477398396,19.07698603020421 128.23230313980685,19.034308209164855 128.25752185233117,19.018789001666597 128.30116962385,18.979990982256094 128.36227650411513,18.91403434988263 128.4456922452927,18.778241282524014 128.50485922459885,18.68900583841175 128.53686759042174,18.642448215512278 128.57081585714576,18.59977039429948 129.64067123607128,17.086647646366682 130.07423910034154,16.729705870091056 131.65622833243313,14.964395997377531 132.97633093494917,13.334879191906996 134.09468383779097,12.504601581471121 136.19656652682664,11.224266948440363 137.7552769474107,10.867325171817855 137.78437546185293,10.859565567982006 137.8658513020137,10.871204974024847 137.9085291231687,10.882844379662995 137.95314684522484,10.882844379662995 138.25674134530243,10.882844379662995 138.33239748264415,10.871204974024847 138.36828565038496,10.867325171817855 138.49728906415595,10.789729133574989 138.74268653546468,10.681094679930913 139.01912242211682,10.54530161280355 139.22281202286567,10.362950922545465 139.42941147493735,10.180600232345194 139.61564196699774,9.971090928950703 139.66607939193077,9.843057465774818 139.76986409323524,9.660706775401104 139.93766552624328,9.451197472006616 139.95997438721355,9.427918660441254 139.98422314920057,9.404639848760265 140.01041181220438,9.389120641262007 140.10061720673832,9.361962027720907 140.12486596872535,9.3386832163868 140.25871913489374,9.264966979772792 140.3799629448289,9.175731535660525 140.5031466557808,9.047698072542453 140.5545540311355,8.997260647435992 140.78540224525202,8.81490995723572 140.80577120532112,8.79551094770391 140.82808006634917,8.77611193834554 140.86105838265155,8.764472532533953 140.93380466861262,8.760592730500402 140.9677529354523,8.760592730500402 141.00461105367256,8.764472532533953 141.0589282804657,8.791631146075053 141.10742580443974,8.826549363278561 141.11906521019353,8.706275503591643 141.14428392266004,8.655838078716435 141.24515877252608,8.492886398394855 141.34312377095367,8.411410557944997 141.4983158477285,8.329934717495139 141.6311990634174,8.27561749075982 141.70782515129642,8.267857886923972 141.85622757459922,8.252338679425714 141.88435613850416,8.240699273382873 141.9338236130155,8.205781056179363 141.9493428206294,8.182502244845256 141.987170889387,8.1398244238059 142.20928954918816,7.957473733374373 142.44401756522262,7.790642251019241 142.63315790872144,7.643209778195918 142.84557706367,7.480258097643083 142.89019478572612,7.445339880266134 142.94451201263487,7.359984238013978 142.93966226017966,7.30566701127866 142.93578245831955,7.266868992272855 143.02889770434976,7.07675869800548 143.20251884017688,6.327956927961651 143.5711000223797,5.517078326999774 143.6128078929396,5.373525656325629 143.66033546649197,5.303689221571732 143.67876452554432,5.257131598672263 143.70495318854813,5.210573975657168 143.71077289136718,5.160136550724147 143.7195024456825,4.958386850992065 143.78060932594764,4.776036160791794 143.79806843463612,4.706199726211337 143.7873989792462,4.609204678263221 143.78448912786558,4.4889308189809976 143.823287146987,4.450132799570497 143.84656595861017,4.434613592072239 143.87469452245733,4.419094384573981 143.9629600160901,4.372536761501072 144.1899284282887,4.217344684784086 144.21902694261533,4.1979456751366495 144.24909540747925,4.186306269267249 144.35288010878372,4.147508250030189 144.38973822700402,4.143628448227891 144.42659634522428,4.143628448227891 144.55947956091322,4.12422943852264 144.59148792673608,4.112590033000121 144.8902326744163,4.007835381042715 145.19091732311327,3.9302393426264084 145.49548177372816,3.879801917924642 145.52652018901372,3.8720423140887927 145.5905369206017,3.864282710021689 145.65746350368588,3.8565231061858403 145.7234201362906,3.8526433043835424 145.7796772641005,3.8410038985141415 145.8776422625281,3.689691623657267 146.0270146363682,3.4763025182292253 146.06678260602692,3.4258650933540182 146.1017008234039,3.38318727214122 146.1210998329357,3.3599084609805536 146.16959735690975,3.321110441570053 146.19578601979794,3.305591234071795 146.2180948808838,3.2861922241931043 146.2501032467067,3.2435144033271874 146.36067760130973,2.9990868825557486 146.45185294643878,2.7624189655623455 146.55660759816493,2.5257510482798744 146.5876460135083,2.471433821717997 146.60607507267628,2.417116594867052 146.6759115071411,2.1882082817673116 146.78648586180196,1.9903383836640873 150.92526455774805,2.929250447917478 150.99510099232853,2.8594140135104613 151.0271093581514,2.8167361921242224 151.06590737727282,2.7779381732918575 151.11052509932895,2.739140153881357 151.13574381179546,2.7158613425472495 151.19200093960538,2.661544115638491 151.29869549240613,2.587827879024482 151.33070385822901,2.5490298600186763 151.32973390769172,2.502472236945767 151.7613618710608,2.3666791699340317 156.72265857372258,0.8108786007884367 157.0000644107964,0.6867249394726617 158.5742940389365,0 158.62376151339004,0.8108786007884367Z"/></svg>