<svg xmlns="http://www.w3.org/2000/svg" width="256" height="256"><path d="M119.06010130208774,2.747276638206542 119.30167217888314,3.372518907418188 119.4236417883161,3.8130305064215597 119.54916391050196,4.537743136454861 119.6308717071357,5.276665818699601 119.7670513680037,5.594023636952412 120.0512523995277,5.958748294074884 120.60070772714079,6.460836783382954 121.1181904387074,6.849244859940257 121.44265328303064,7.090815736382751 121.74343270806021,7.308703194096235 122.04065962019574,7.493433864657419 122.21946943586292,7.716058005664979 122.31065060014355,8.042889192341077 122.52261720296302,8.65865809362351 122.68129611208943,9.193903369872132 122.70734787331246,9.274426995188271 122.88615768905024,9.762305432778977 123.12536022384569,10.1933436639943 123.4367971875574,10.468071327800837 123.67718389352929,10.828059300993994 123.96138492491214,11.235414112774485 124.43742165271485,11.718555866365293 124.9584568772461,12.211170987673567 125.27107801185193,12.54747554164364 125.81934916850031,12.831676573449974 126.60090200519133,12.959567037424028 126.8803663528566,23.27606448188656 126.36998866714866,23.583948932421904 125.72461549139624,23.910780119098003 125.21068529272365,24.14287762782303 124.56412794600655,24.3797118207597 124.05019774726338,24.588125910755714 123.71389319329332,24.834433471409852 123.28995998793667,25.123371186510262 122.9974697596599,25.412308902034166 122.77839813126404,25.62545967574775 122.7677405925819,25.98544764894091 122.79971320855776,26.293332099687998 123.02588986295345,26.776473853278805 123.07325670139961,27.018044730003627 123.31127506537156,27.25961560715194 123.37048361360573,27.306982445527527 123.78731179310368,27.63381363199188 124.15558896319078,27.72854730881364 125.32673404719203,27.927488031303934 125.64764437862122,27.955908134244588 125.80750745892406,27.752230728460216 125.87974188769917,27.723810625025486 126.09999768713027,27.61960358006277 126.37946203486612,27.586446793122217 126.90049725925621,27.648023683426917 126.99641510746615,27.657497051214964 127.89875338248429,27.804334250623956 129.09713439874383,27.884857876363586 129.34344195939798,27.90854129579842 129.75553345517835,27.96064481796216 130.21262344747555,28.15958554002896 130.8923375812038,28.61904387460843 131.2973240511255,28.931665008931926 131.67033790514193,29.495330388332945 131.8219117885508,29.680061058894132 132.16768971023836,29.959525406488822 132.75859102154476,30.06373245123979 133.15528829478427,30.082679186674724 133.61237828708147,30.082679186674724 134.07065245041392,30.134782709261955 134.52892661374636,30.28635659288259 134.85575779999897,30.513717418101795 135.01917339319587,30.755288294826617 135.1115387283706,31.077382797079323 135.12930129284084,31.34263709338014 134.98483243522006,31.674204963350316 134.70892060044883,32.04840298826084 134.27077734344542,32.526808058063494 133.9652612345571,32.91047945069148 133.8361865994772,33.242047320661655 133.86815921545306,33.583088558349296 134.0481532021555,33.85781622243817 135.36731965674218,34.558845433530706 136.29570969305394,35.084617341779534 136.72674792426926,35.42565857925543 136.93753035591232,35.88511691362315 136.9434512108063,36.36825866721396 136.93397784308885,36.97455420106125 136.97068714292345,37.72295025102346 137.22883641322443,38.48555635220896 137.67882137987468,39.35236949814543 137.94525984692842,39.773934361643285 138.21406665584098,40.13392233525993 138.2756435460751,40.38022989570232 138.29340611047476,40.76390128804798 138.35616717160298,41.0291555843488 138.62260563865672,41.24704304163879 138.9008858153573,41.35125008688384 139.5486273331097,41.49335060250468 139.94295626434925,41.58808427982051 140.50188495967978,41.85333857569783 140.93647570378917,42.142276291009985 141.42198579916817,42.51173763213236 142.1443300876956,43.15118995306137 143.29889677826188,43.92326942224666 143.37942040378974,44.060633253938185 143.45283900374127,44.411147859343295 143.5511251937394,44.73324236201949 143.78914355757018,45.0884936514245 144.08992298259977,45.43900825690019 144.54346046207348,45.737419339718066 145.11659920898023,46.00267363601888 145.5878992529948,46.168457570933384 146.00709577449268,46.315294770554125 146.37300460257984,46.43844855081061 146.65246895017455,46.50476212511521 147.2102134745404,46.481078705680375 147.83782408589315,46.43371186702246 148.66555959013624,46.31055808683655 149.2150149178199,46.10214399684054 149.93854337717084,45.73268265621224 150.5460230820534,45.51005851449886 151.12508268385415,45.386904734524705 152.1564955941639,45.083756967495184 152.74976524732912,44.97954992274421 153.38921756832872,44.951129819309486 153.69473367721702,44.96533987102685 154.0310382311871,45.10270370271837 154.31050257878178,45.249540902339106 154.52720586531882,45.50532183099304 154.6586488423987,45.82267964924585 154.83153780324244,46.168457570933384 155.05771445763813,46.48581538968027 155.44257002116024,46.997377246211734 155.74927030087204,47.466308948579254 155.9387376552214,47.89261049558293 156.03228716143138,48.56048291973492 156.058338922725,49.204671924452086 156.05715475168972,49.739917200418375 156.07373314526586,50.60673034684892 156.13175752253537,50.93829821660735 156.2087286351692,51.056715313075685 156.29872562848513,51.11355551966281 156.63503018252578,51.13723893909764 157.1904063648917,51.047241945569965 157.88433055026672,50.848301223503164 157.92103985010132,50.838827855573946 158.08090293040416,50.796197700915926 158.6244374031938,50.65883386901266 159.04244975365646,50.64936050150694 159.40954275284946,50.67778060444759 159.78492494851292,50.84356453978559 159.95899808032138,50.94303490081899 160.26806670224488,51.11355551966281 160.75949765244732,51.46880680906782 161.3160580058485,51.93300182722369 161.8406457432738,52.32614658728682 162.2124754261138,52.46824710318999 162.77021995047966,52.4493003679668 163.07692023033263,52.29298980034627 163.320859449128,51.89984504028314 163.35401623606853,51.582487221536255 163.2415199944942,50.88145801065546 163.19296898494218,50.41252630857027 163.27349261047007,50.12358859325811 163.37769965536222,50.02885491594228 163.53045770980637,49.948331290202646 163.7341351157319,49.90570113554463 164.12727987600678,49.929384554979464 164.39963919788394,49.99569812907231 164.83659828392268,50.1756921156336 165.14803524756383,50.341476050477524 165.6193352915078,50.715674075599786 166.3878622475873,51.42143997019816 167.18599347778388,51.99931540103422 168.08359506915502,52.51087725784801 168.5134491291939,52.776131554148826 168.59752526768642,52.88507528268794 168.62476119994471,53.01770243087365 168.63541873862687,53.3113768301857 168.8994888636807,53.69978490646067 169.32579041103727,54.09292966659438 169.5886763651264,54.35344727896589 169.98418946733062,54.65185836199551 170.29562643104236,54.822378980839325 170.63074681404774,54.88869255493218 170.95639382933567,54.846062400062415 171.34953858968112,54.69922520086517 171.79005018847275,54.36292064668335 172.0624095103499,53.97924925433769 172.27082360020478,53.150329579059346 172.4259499965077,52.709817979844225 172.55620880262288,52.330883271498465 172.77646460205398,51.790901311532274 173.02277216270812,51.24618266777793 173.22763373959833,50.734620810822975 173.51301894208703,50.24674237323227 173.83629761551617,49.84412424566342 174.2270740337911,49.65465689089059 174.61192959731318,49.58834331722124 175.27506533753586,49.683076994325326 175.64334250755238,49.782547355288145 175.99977796792206,49.8820177161098 176.26384809311705,49.953067974414296 177.28697180653288,50.332002682760056 177.33552281608488,50.42199967607599 177.34381201290824,50.78198764969264 177.35091703862577,50.995138423194476 177.38525799660158,51.19407914497895 177.5107801189286,51.388283183257606 177.80090200520544,51.587223905536156 178.15615329461045,51.72932442143932 178.57061313224963,51.857214885625126 178.88086592499667,51.866688253130846 179.1200684599333,51.861951569130945 179.35927099472875,51.79563799524984 179.59373684580663,51.70564100200449 179.84122857742545,51.587223905536156 180.08753613807957,51.62038069268845 180.34094872445124,51.76248120809755 180.59436131089348,52.00405208482237 180.82290630714795,52.330883271498465 181.03487290982625,52.79981497316016 181.33328399285588,53.16453963028263 181.89931771397454,53.52452760368754 182.43101047718793,53.71873164196619 182.77323588591085,53.82767537071706 183.21493165580833,53.91293568024484 183.57965631293078,53.96030251883217 184.1906885306368,54.01240604099591 184.67264611326294,54.11661308602921 185.3073617504038,54.25871360193238 185.6270879107977,54.37239401418907 185.99418090999072,54.50975784609234 186.33640631864304,54.66606841371287 186.4169299443121,54.827115664839226 186.3600897379367,55.07815990921093 186.28075028330292,55.3149941021476 186.2973286768085,55.570775030801535 186.53297869878048,55.82181927517324 186.84678400449215,56.0491801001807 187.34176746765922,56.28127760961155 187.93858963385964,56.409168073797346 188.33410273606387,56.48495501539592 188.86697967017136,56.54653190548887 189.26367694341087,56.60810879558182 189.44485510093685,56.65547563423974 189.55971968458172,56.802312834072225 189.4697226911952,56.977570136492446 189.20446839517672,57.223877697146584 189.05289451169725,57.46071189008325 188.99723847635713,57.67859934779674 189.0481578278385,57.9343802759566 189.1357864792251,58.08595415957723 189.30867544006884,58.23752804298611 189.60590235227494,58.43173208126477 189.7882646807656,58.573832597167936 189.93747022224514,58.74908989972933 190.04286143810194,58.97171404123096 189.98957374476177,59.16591807950961 189.816684783918,59.440645743104405 189.59287647152226,59.7059000394758 189.41643499778445,59.937997548200826 189.2992020723514,60.23167194772463 189.32288549164505,60.5016629278136 189.3702523301618,60.67692023037499 189.4330133913606,60.8569142172186 189.6544533617564,61.292689131939746 189.74681869693111,61.562680111816974 189.74681869693111,61.813724356471006 189.6828734648382,62.083715336559976 189.5194578717119,62.330022897214114 189.17367995002436,62.71369428955977 188.86934801217132,62.969475218143124 188.3222610264876,63.35788329427693 187.8900386243076,63.6326109583658 187.28137474853094,63.94523209290104 186.6952101209421,64.24364317593066 186.24167264146837,64.54205425896029 186.1623331868346,64.61784120098235 186.13628142568214,64.7220482458039 186.16470152876397,64.8688854452129 186.46548095379353,65.09624627064385 186.95572773324304,65.42307745682587 187.6129426185717,65.84937900411187 187.93858963385964,66.07200314533118 188.19910724616054,66.21410366102259 188.34239193288724,66.25673381589236 188.5460693387422,66.32778407370279 188.66803894817517,66.26147049989225 189.08723546967306,66.12410666791841 189.4957744524888,65.85885237161759 189.91497097398673,65.69780512049124 190.28087980207388,65.5793880240229 190.66691953649007,65.46097092755457 191.112167819211,65.36623725052107 191.34308115732426,65.34729051529787 191.73148923381098,65.31887041186314 191.8321437657385,65.30466036035753 192.12463399401528,65.20992668332403 192.2998912969296,65.13887642530186 192.34370562255228,65.12466637358449 192.3946249739631,65.09624627064385 192.56159307998342,64.95888243874057 192.65277424426407,64.90204223236519 192.74632375047403,64.85941207770718 192.83750491482525,64.82625529055487 192.9050026598122,64.81204523883751 193.02934061110395,64.80257187112004 193.3455142586744,64.79309850340258 193.4165645164848,64.77888845189696 193.48406226161293,64.75994171646202 193.52906075812973,64.75046834874456 193.6877396673973,64.7220482458039 194.044175127767,64.61784120098235 194.19456484042294,64.56573767818337 194.26561509816278,64.53258089124282 194.3639012882315,64.48521405286724 194.43850405900656,64.44258389820921 194.49771260724071,64.40469042705702 194.79967620330555,64.21522307299001 195.13479658624036,64.02101903471136 195.2615028794615,63.954705460618506 195.61556999804296,63.769974790057326 195.7505654878757,63.722607951399404 196.2668640286188,63.63734764208337 196.64935125007037,63.59471748721361 197.09104701989725,63.58998080349603 197.5066910285011,63.60419085493107 198.11417073338367,63.60892753871922 198.55468233231647,63.5994541712135 199.4996507620632,63.63734764208337 200.99052200659955,63.5615607004848 204.8959178481958,61.92266808543362 205.4252422693387,61.69530726000267 205.83851793608378,61.72372736294332 206.14048153200744,61.903721349928105 206.77046048528956,62.879478224686025 207.600564331462,64.28153664708286 208.57987371925515,65.44202419233137 208.81907625426234,65.60307144345774 208.88302148628466,65.69306843691483 211.01216088071476,67.54984850932658 211.4206998635305,67.89562643122586 211.54622198585753,67.9808867405419 211.8197654786288,68.18456414632628 211.9026574462272,68.26508777206591 211.99975946533124,68.36455813288757 212.07317806507103,68.46402849392096 212.11699239076432,68.70086268685763 213.37458195525804,71.49550616386325 215.240835395599,73.50859680382496 215.53806230780512,73.77858778349044 216.0247565742194,74.24278280164631 216.5197400375276,74.60277077505121 217.1959016583618,75.0101255868317 217.88982584359567,75.4174803986122 218.50204223233695,75.65431459154887 219.15452043394808,75.91956888763794 220.1196197700944,76.20376991923253 220.72828364601224,76.35534380264141 221.13208594489868,76.45481416388655 221.40207692484648,76.51639105376776 221.69456715312327,76.59217799557808 222.42283229640353,76.8005920855741 222.9782084789106,76.96637602041802 223.37964243586768,77.1037398523213 223.60226657722816,77.17479011041404 224.06409325352524,77.33110067754049 224.67867798412533,77.53004139981904 225.01024585423667,77.64372181249922 225.4957559498274,77.81897911491946 225.78587783617485,77.9184494761646 226.29270300898872,78.11739019837258 226.65032264039368,78.24528066255837 227.23293475508848,78.47737817156573 227.74804912458458,78.66684552563274 228.05711774636694,78.76631588666613 228.55210120960456,78.91788977028676 229.12879246940537,79.08841038913059 229.84758424503875,79.3157712143498 230.39111871775782,79.49102851740525 230.66821472349372,79.58576219443876 230.97728334534665,79.6994426069072 231.33016629275173,79.82259638737543 231.95304022024575,79.8604898582453 232.38526262228459,79.8604898582453 233.24023405878597,79.97890695471364 233.92823738933757,80.17784767678044 234.38651155267004,80.3436316118361 235.28766565672348,80.64677937865387 235.80159585546664,80.87414020387308 236.04198256122677,81.00676735205879 236.630515530745,81.3288618543115 237.43930429955313,81.9067372853593 238.21375211045606,82.42303582567891 238.74544487359887,82.79249716658954 239.41331729775087,83.2282720820165 239.69870250016896,83.40352938436614 240.2576311955701,83.5835233714215 241.026158151579,83.80141082885267 241.93204893956178,84.03824502178934 243.2310844878194,84.21350232420956 244.44841223951389,84.3982329949825 245.38982815650775,84.64927723963652 246.57755163408515,84.93347827073704 247.7261974697574,85.27451950863642 248.62971991581082,85.65819090147616 249.70139463891982,85.92818188135338 250.88319726160324,86.22185628038311 252.1869694937196,86.46816384131957 253.24088165228778,86.89446538832325 254.60859911649706,87.29234683238627 256,87.71391169609588 255.34041677274195,88.39125748775359 254.58017901334466,89.22491384696126 253.74178597041944,89.94488979355931 252.92470800471733,90.69802252723909 252.01289636191115,91.13379744196024 250.92937992929646,91.53167888602326 250.27571755672068,91.77324976295982 249.5273215070408,92.16639452302296 248.78958299611364,92.60216943823818 248.15013067511404,92.90531720526769 247.84579873726102,93.06162777239415 247.46212734470362,93.26530517839026 247.17674214214435,93.39793232657597 246.8380692462449,93.59213636485462 246.6604436015424,93.71529014504053 246.4472928278994,93.89528413188414 246.30874482503145,94.01370122835247 246.1263824964702,94.13211832482081 245.92388926150934,94.23632536936003 245.76284201031243,94.33105904660529 245.61126812690352,94.42105604013297 245.4691676112121,94.51578971695473 245.35667136942604,94.61526007819987 245.1387839119243,94.82841085170172 245.08549621851353,94.95156463238169 245.04878691867893,95.22629229576474 245.01563013159722,95.51996669528853 245.00970927684438,95.76627425594268 245.01089344773848,95.99363508116188 245.01918264456185,96.32520295113206 245.01207761870316,96.9314984851911 245.00023590912693,97.22517288422081 244.9445798737868,97.43832365821673 244.91142308677567,97.61358096056638 244.88418715451738,97.93093877931327 244.859319564259,98.19145639168477 244.810768554707,98.57986446795974 244.77879593866055,98.7219649838629 244.75629669033157,98.90195897049477 244.73142910007323,99.06774290533869 244.6899831163093,99.24300020818241 244.6390637648985,99.47983440111909 244.597617781064,99.6503550199629 244.6094594907814,99.7829821681486 244.64380044875722,99.90613594854625 244.72787658724974,100.10033998640142 244.71485070656766,100.2661239217394 244.65090547447474,100.35138423105545 244.5751185328056,100.4508545923006 244.56682933598222,100.7682124105534 244.5810393876996,100.95767976511449 244.59880195202868,101.12346369995842 244.6094594907814,101.28451095108477 244.6959039711327,101.45029488642277 244.7811642805899,101.57344866682041 244.84510951268282,101.72975923401745 244.8664245901177,101.89080648514381 244.88418715451738,102.004486897824 245.06299697025514,102.5255221221435 245.26904271803946,103.21234128173043 245.31877789855616,103.30707495897568 245.43956333709502,103.57232925513533 245.52245530455227,104.0175775377857 245.64560908487934,104.32072530460347 245.7995513102882,104.8512338968522 246.02335962254276,105.55226310815648 246.16901265126938,105.93593450050214 246.26848301237337,106.13013853856904 246.424793579641,106.54223003456119 246.47689710201647,106.76959085978038 246.52900062453313,106.97800494949408 246.74807225292898,107.7406110509619 246.85583181071516,108.08165228864954 246.9742489071835,108.42269352633718 247.02753660066483,108.67847445492053 247.04648333609975,108.88215186070491 247.058325045676,109.19003631152258 247.0512200199585,109.55002428464515 247.0571408747819,109.73001827148877 247.06424590049943,110.19421328964464 246.9943798135831,110.39315401142912 246.69952124337695,110.75314198504577 246.5941300276613,110.89997918445475 246.3549274926541,111.19839026748438 246.12875083847015,111.47785461529081 246.0257279645427,111.62942849891145 245.87296991009856,111.79994911754352 245.7190276846897,112.0509933619858 245.6645558202437,112.44887480626058 245.68350255567864,112.62886879282186 245.6917917524314,112.99359345022667 245.6906075815373,113.1593773850706 245.69416009436077,113.44357841666518 245.6988967782195,113.61883571943831 245.68587089767857,113.99777042827816 245.65981913645555,114.8977403614375 245.65981913645555,114.97352730324782 245.65981913645555,115.0256308256233 245.42061660151893,115.71244998478673 245.04997108957303,116.58399981493484 244.910238915811,116.6455767050278 244.1926313111423,116.84451742730634 240.80827069407727,117.7729074636181 238.7774174897159,118.13763212074058 234.7240002775342,121.60488470547459 234.10823137589887,124.76425283896745 232.98563730144963,125.75421976537214 232.2194786872995,126.49314244761689 231.42489996992637,127.53521289639707 230.9666258066645,128.1888752688317 229.04590050187753,127.19890834221526 226.06178967094607,126.05736753240167 224.38263524295448,125.16687096703038 222.3340194740523,124.31900455652884 221.48496889237433,123.78375928006847 219.68029234219688,122.6848486249129 218.3907301617273,122.04539630419563 217.32852880640633,121.55278118281677 215.31543816644464,120.56281425620033 212.63210676047217,119.61547748445365 211.48464509562342,119.08023220848736 210.17376783771894,118.30341605558449 208.31698776509543,117.10503503967786 206.9895321136854,116.31874551905753 205.37432291792788,115.49929921149665 204.33106829797129,114.97352730324782 203.7970071928991,115.0114207736942 203.49859610986945,118.73919097079971 202.56665356066367,119.5207438072084 200.9218400906479,119.76705136807428 198.37232000375522,119.54442722664324 195.7150403589352,119.61074080073608 193.6936605222207,120.48229063067245 188.78764021553758,122.64695515425478 188.10555773995057,122.30591391656714 187.68636121845265,122.20170687132209 187.23637625187297,122.08328977485375 183.3025603071243,119.07549552476979 182.95204570157802,118.77234775774026 181.26460207690425,117.5076531672467 180.28884520207575,116.612419918299 179.30716747235326,115.64613641090563 178.90099683139627,115.347725327876 177.39236302246027,114.64195943278357 177.0146124846557,114.51406896859777 175.62557994308213,114.20618451785067 175.4254550501918,114.14934431147529 174.59890371670167,114.00724379599562 173.382760136113,113.76567291912963 170.66153525912952,113.2067442237285 169.32815875289606,112.80412609566558 168.35595439089101,112.31151097435732 167.63716261532824,111.25049379007162 165.95090316168972,110.18000323792728 164.55594976522215,109.11898605364158 164.2587228531572,108.86794180926987 161.5848648149022,110.26526354724331 160.45516571459427,110.80524550742125 159.46756713004837,111.29312394501196 158.98560954735166,111.79521243382595 158.03472026271092,112.68570899919725 156.4988505215166,114.35302171768316 155.15955316053032,115.96349422965251 154.13406110511454,116.85399079481208 152.4454333094055,117.91500797945068 151.05995328079655,118.16605222368122 150.4548419177728,118.27499595243209 149.47553253005023,118.87181811898542 148.24991558153238,119.46864028483292 148.01900224341912,119.56811064607805 149.39737724638113,121.84171889841126 147.64598838961444,122.14012998122914 146.95798505906285,122.23486365826264 146.24392996742935,122.25854707769747 145.34159169234064,122.32012396779042 145.08817910582783,122.33907070322536 145.0952841316865,123.14904364306878 145.8223651039315,124.4705784396554 146.02248999703357,124.76898952296735 145.9076254133887,125.76842981708951 145.27054143438906,126.06684090011913 145.25041052798946,126.43156555745335 145.37593265031646,126.7489233759885 145.23264796358978,127.13733145233405 144.86437079350267,127.28416865174304 144.17518329205697,127.28890533595468 143.88150889288607,127.44047921936357 143.85900964448652,127.67731341230024 143.93598075726152,127.93309434067184 144.11123805996405,128.2646622104303 145.34988088902284,129.09358188570863 145.53342738861934,130.14512570241803 145.58553091099483,130.43406341794193 145.99170155188122,131.66560122107146 145.8874945069891,133.44185766809647 145.73947313640366,138.382218932826 146.06156763886813,141.1815990931963 147.57849064455692,145.30251405036492 149.98472604486406,149.71236672312807 150.06880218335658,149.9776210190054 149.9409117191708,150.2476119988826 149.6507898327528,150.4654994565961 149.22804079836084,150.4702361405254 148.3493859425658,150.45128940487874 147.76322131504753,150.30445220546974 147.01482526543822,150.30918888897557 145.4884288918908,150.48918287603092 144.18820917266848,150.61707334021673 141.9832828364281,151.19021208705288 140.9435807294361,151.34178597025004 140.6167495431835,151.29441913187443 139.8600642968214,150.32339894069293 139.3354765593961,149.93972754834726 139.05245969883677,149.83552050310223 138.5515553808463,149.65078983296453 137.5438258898302,149.65552651654093 136.50412378290878,149.80710040016157 135.82440964918055,150.05340796060395 135.34245206648384,150.61707334021673 134.6970788907314,151.03390151950293 134.27906654026876,151.59756689890398 134.12038763093062,152.01439507840192 133.92736776368724,152.20859911668057 133.8065823253601,152.21333580039814 133.4394893262377,152.23701921962123 132.66030483154663,152.36017300008947 132.26952841313053,152.31754284543143 132.13453292315663,151.87703124649866 132.0291417073704,151.10021509359578 131.89651455932585,150.7828572748489 131.53534241509743,150.39444919850334 130.22564932808706,149.55131947200172 129.9248699030575,148.69871637728855 129.82066285816538,147.99295048240785 130.01249855458522,147.72295950231887 131.2096953998095,147.15929412320017 131.8894095334672,146.7140458402675 132.0800610587812,146.37300460257984 132.01256331379426,146.0082799454574 131.7177047435881,145.84249601033113 130.96812452301413,145.7003954946397 130.60813654975038,145.38303767617515 129.95447417717457,145.1414667994503 129.0722668084855,144.75779540668117 128.05861646285769,144.17991997605685 127.47245183519827,144.08518629895278 126.90641811407963,144.09939635024665 126.35459444460777,144.25097023365552 126.06328838722509,144.35044059490068 125.80158660403006,144.22728681443246 125.7186946365728,144.03781946036545 125.60027754010447,143.71098827390108 125.39541596314368,143.54046765484551 125.10529407679626,143.50731086790498 124.86372320000085,143.5262576033399 124.56531211704181,143.60204454536196 123.89270300903108,143.83887873829863 123.53626754859081,143.98571593798997 123.35390522002957,144.05202951180047 122.92997201467294,144.13728982139884 122.82221245695733,144.13728982139884 122.64103429943137,144.1325531371872 122.30236140339076,144.00466267321315 121.72803848558992,143.66835811903132 121.17503064508278,143.28942341040323 121.00687836809776,143.1757429979348 120.87306704908853,143.09048268861875 120.64689039483402,142.692601244344 120.46097555330815,142.2805097485636 119.84757499367275,141.88262830428883 119.6817910585465,141.75000115631488 119.39522168509313,141.65526747906964 119.13470407286279,141.58421722147096 118.91207993150232,141.57000716975358 118.70129749978868,141.67895089850447 118.54853944534453,141.81157804669016 117.29094988092139,143.4362606103063 116.31164049305768,144.76726877439864 116.11980479677898,144.81937229677413 115.93744246821774,144.824108980774 115.53127182733135,144.79095219383348 114.82550593252124,144.65832504564779 114.36960011097698,144.5541180008968 114.0889515924176,144.49254111080384 113.61646737750895,144.47359437508658 113.09069546911896,144.5114878462388 112.09954437167899,144.67253509736514 111.69455790175728,144.80042556133918 111.0314221615346,144.9898929158297 110.30907787314834,145.18409695389659 109.17227374698174,145.37830099238698 108.7258412933667,145.45882461798547 108.66663274513253,145.46829798549118 107.96441936300472,145.70513217842785 107.40785900967413,146.0224899968924 107.16155144902,146.4582649118959 107.02300344615205,147.05508707844922 106.95195318820046,147.65664592850834 106.78143256935664,147.89821680495083 106.55999259896085,148.02610726913665 106.17513703543877,148.13031431438168 105.99159053584226,148.07821079172388 105.82580660092775,147.95979369525554 105.54160556926259,147.54770219954574 105.547526424086,147.18771422614083 105.51436963714545,146.7187825242674 105.32845479561958,146.43931817667269 104.79202534861803,145.87565279727167 104.21651825985249,145.33093415379966 103.90744963799956,145.10831001229803 103.44680713280832,144.98515623211213 103.14484353681407,144.9898929158297 103.26799731707055,144.66779841357697 103.45509632949052,144.30307375624275 103.51548904875995,143.8483521060161 103.63864282908702,143.3652103524253 103.4408862779849,142.84417512796463 103.24431389784746,142.4131368967493 103.11050257883825,141.84473483384247 103.39351943932698,141.3189629253113 103.70969308689745,141.04423526150475 103.5462774939123,140.5895136108546 103.74995489969668,140.48056988210374 103.92758054439918,140.3810995212821 104.53861276217579,140.5847769273488 104.89267988068669,140.6747739203824 105.34029650526641,140.65109050137104 105.68844276888332,140.3053125797541 105.42910932761767,139.87427434853876 105.198195989575,139.3058722853496 105.1626708605639,138.79904711232396 104.53979693314047,138.60957975804521 101.19688229990994,138.9411476280154 100.96123227786738,138.96483104745022 94.32276984992309,139.57586326543856 93.78041954809811,139.6279667876023 90.54644864347729,140.19163216679158 88.61032911629059,142.93417212099823 85.80621227184983,143.10942942384196 80.3235007053659,143.4552073455295 70.15384046066528,142.09104239449658 68.65941670323488,141.71210768565675 65.0808520479618,140.79319101685073 60.56205564673012,141.6079006409058 57.86333001821676,141.8542082015599 56.059837639074594,142.0199921361921 54.47186437543422,142.7636515021544 52.37469759698,143.7488817450533 52.01234128171632,143.9194023638971 51.81221638875541,144.2793903370197 51.47235932196187,144.0757129312353 51.359863080175785,144.04255614408302 51.04132109074655,143.99518930549567 50.902773087808015,144.260443601373 49.89622776782716,145.27409394721252 49.400060133766004,146.37300460257984 49.636894326702674,147.7371695538245 48.06194694360323,148.9971274601064 47.854717024783646,151.40336286062532 48.32009621383362,156.66108194360766 41.30506741904944,168.3606910749615 41.17362444204017,168.53121169387592 40.37667738273769,169.6632791361132 33.8246594351447,165.3150033535136 31.656442398880063,163.61453384851063 30.797918449484634,163.0840252563325 29.700191965152584,162.33562920637027 28.82627379321627,161.48776279586875 27.86591114085807,160.54989939162778 27.38513772919663,159.90571038712235 26.40227582858003,159.43204200124902 20.799962994592505,157.70788907638774 16.810491014644874,156.60897842123217 9.397580775656504,152.87173485662092 8.040520850129383,152.24175590362114 5.717177417491226,151.75387746603042 2.5080741031287586,150.66917686259222 2.072299188195867,150.7828572748489 1.931382843327966,150.7686472236256 1.7277054374024294,150.7686472236256 1.7277054374024294,148.8029234220395 1.7277054374024294,148.69871637728855 2.072299188195867,148.69871637728855 2.072299188195867,148.16347110132224 2.072299188195867,148.00716053370172 2.414524596918774,148.00716053370172 2.414524596918774,147.31560469032664 2.7591183476416297,147.31560469032664 2.7591183476416297,146.97456345242725 3.4506741910167076,146.97456345242725 3.4506741910167076,146.62878553073972 3.7254018548938275,146.62878553073972 3.7704003514812126,146.56247195707036 3.7964521127042463,146.4203714411672 3.7964521127042463,146.3635312348624 3.7964521127042463,146.28300760905216 4.141045863427102,146.28300760905216 4.141045863427102,145.93722968757638 5.491000763236706,145.93722968757638 6.900164211139313,145.93722968757638 6.900164211139313,145.59145176588885 7.245942132826852,145.59145176588885 7.245942132826852,145.25041052798946 7.936313805237247,145.25041052798946 7.936313805237247,144.90463260651364 8.278539214101318,144.90463260651364 8.278539214101318,144.55885468482612 8.968910886511713,144.55885468482612 8.968910886511713,144.21307676320916 9.314688808199252,144.21307676320916 9.314688808199252,143.86729884152163 9.659282558851524,143.86729884152163 9.659282558851524,143.18047968165237 10.005060480609647,143.18047968165237 10.005060480609647,142.83470176024716 10.349654231261919,142.83470176024716 10.349654231261919,142.14314591687207 10.695432152949458,142.14314591687207 10.695432152949458,141.7973679949728 11.03765756181353,141.7973679949728 11.03765756181353,141.1105488355976 11.383435483430487,141.1105488355976 11.383435483430487,140.69845733960548 11.383435483430487,140.4189929920108 11.59540208624997,140.4189929920108 11.728029234223925,140.4189929920108 11.728029234223925,140.24373568916707 11.728029234223925,140.07321507032324 12.073807155911464,140.07321507032324 12.073807155911464,139.38639591094807 12.418400906634318,139.38639591094807 12.418400906634318,138.69484006736124 12.764178828321858,138.69484006736124 12.764178828321858,138.0032842241979 13.108772579044713,138.0032842241979 13.108772579044713,137.16015449748454 13.108772579044713,136.9706871431352 13.454550500732251,136.9706871431352 13.454550500732251,136.2791312998307 13.796775909455159,136.2791312998307 13.796775909455159,135.980720216307 13.796775909455159,135.62073224339616 13.796775909455159,135.2465342182739 14.141369660319178,135.24179753455633 14.141369660319178,133.86815921552363 14.487147581865553,133.86815921552363 14.487147581865553,132.48504752863232 14.831741332658991,132.48504752863232 14.831741332658991,132.14400629115644 16.21248467747978,132.14400629115644 16.21248467747978,132.48504752863232 16.55589425716737,132.48504752863232 16.55589425716737,132.83082545053162 16.74536161158729,132.83082545053162 16.90522469174896,132.83082545053162 16.90522469174896,133.17660337221915 17.246265929577767,133.17660337221915 17.246265929577767,133.52238129390668 17.59085968030062,133.52238129390668 17.59085968030062,133.86815921552363 17.93663760198816,133.86815921552363 17.93663760198816,134.20920045349362 18.97278719608609,134.20920045349362 18.97278719608609,133.86815921552363 19.31501260487958,133.86815921552363 19.31501260487958,133.17660337221915 19.663158868496488,133.17660337221915 19.663158868496488,132.83082545053162 20.005384277289977,132.83082545053162 20.005384277289977,132.48504752863232 19.31501260487958,132.48504752863232 19.31501260487958,132.1392696069448 18.281231352711014,132.1392696069448 18.281231352711014,131.79822836925715 17.59085968030062,131.79822836925715 17.59085968030062,131.45245044756962 16.55589425716737,131.45245044756962 16.55589425716737,131.10667252567032 15.867890926756925,131.10667252567032 15.867890926756925,130.41511668229523 15.177519254417112,130.41511668229523 15.177519254417112,130.0740754446076 14.487147581865553,130.0740754446076 14.487147581865553,130.01723523823222 14.487147581865553,129.72829752292006 14.01584753792158,129.72829752292006 13.796775909455159,129.72829752292006 13.796775909455159,129.54356685235888 13.796775909455159,129.3967296529499 13.754145754726558,129.38251960123253 13.607308555176404,129.38251960123253 13.454550500732251,129.38251960123253 13.454550500732251,129.25462913704672 13.454550500732251,129.2167356663886 13.22718967551305,129.0841085182029 13.173901982102297,129.03674167975674 12.764178828321858,129.03674167975674 12.723917015522623,128.6909637580692 12.418400906634318,128.6909637580692 12.407743367952168,128.44465619741504 12.340245622965217,128.34992251995806 12.25972199736675,128.34992251995806 12.073807155911464,128.34518583645223 12.073807155911464,128.20782200447837 12.05604459137063,128.02309133370545 11.989731017418945,128.00414459827053 11.79671115017556,128.00414459827053 11.383435483430487,128.00414459827053 11.37396211571302,127.94730439210689 11.355015380278086,127.82888729563855 11.328963619196216,127.65836667658299 11.03765756181353,127.65836667658299 11.03765756181353,127.44521590286939 11.03765756181353,127.31258875489544 10.858847746146344,127.31258875489544 10.695432152949458,127.31258875489544 10.695432152949458,127.16101487176888 10.695432152949458,126.96681083349023 10.39228438599052,126.96681083349023 10.005060480609647,126.96681083349023 9.93993107748148,126.62103291180269 9.659282558851524,126.62103291180269 9.659282558851524,126.40788213801852 9.659282558851524,126.27999167383273 9.492314452901754,126.27999167383273 9.314688808199252,126.27999167383273 9.314688808199252,126.14262784171771 9.314688808199252,125.93421375214518 9.042329486251498,125.93421375214518 8.624317135788857,125.93421375214518 8.588792006848356,125.58843583052823 8.278539214101318,125.58843583052823 8.278539214101318,125.24265790884068 8.12814950151595,125.24265790884068 7.936313805237247,125.24265790884068 7.936313805237247,125.10055739293752 7.936313805237247,124.89687998715314 7.650928602748559,124.89687998715314 7.245942132826852,124.89687998715314 7.177260216875218,124.55583874946551 6.900164211139313,124.55110206525386 6.900164211139313,124.35689802697522 6.900164211139313,124.21006082777797 6.698855147143144,124.21006082777797 6.555570460416458,124.21006082777797 6.555570460416458,123.86428290587868 6.2216342484463345,123.86428290587868 5.865198788076645,123.86428290587868 5.819016120383413,123.51850498419114 5.693493998197559,123.51850498419114 5.521789208247891,123.51850498419114 5.480343224554556,123.22009390116152 5.473238198695873,123.17272706229186 5.174827115666251,123.17272706229186 5.128644447973018,122.82694914060431 4.831417535837496,122.82694914060431 4.789971552144161,122.48590790312842 4.747341397344979,122.48590790312842 4.141045863427102,122.48590790312842 4.141045863427102,122.14012998122914 3.7964521127042463,122.14012998122914 3.7964521127042463,121.7943520595416 3.4506741910167076,121.7943520595416 3.422254087864307,121.3112103059508 3.411596549182157,121.10279621637827 3.1048962693291684,121.10279621637827 3.1048962693291684,120.41597705657959 2.7591183476416297,120.40176700528572 2.7591183476416297,119.72442121320452 2.414524596918774,119.72442121320452 2.414524596918774,118.3413095267367 2.414524596918774,118.00026828876672 2.072299188195867,118.00026828876672 2.072299188195867,117.53607327068143 2.072299188195867,116.3897957766562 2.072299188195867,115.93033744250022 2.2522931747571544,115.93033744250022 2.414524596918774,115.93033744250022 2.414524596918774,115.23878159891339 2.7591183476416297,115.22930823140767 2.7591183476416297,114.8977403614375 3.1048962693291684,114.8977403614375 3.1048962693291684,114.281971459661 3.1048962693291684,114.20618451785067 3.164104817563336,114.20618451785067 3.4506741910167076,114.20618451785067 3.4506741910167076,113.89830006731533 3.4506741910167076,112.59571200616365 3.435279968475824,112.54834516729399 3.4506741910167076,112.46782154190726 3.4506741910167076,112.1362536715136 3.1048962693291684,112.1362536715136 3.1048962693291684,111.79047574982606 2.7591183476416297,111.79047574982606 2.7591183476416297,111.44469782813852 2.414524596918774,111.44469782813852 2.414524596918774,111.29312394501196 2.414524596918774,111.10365659023913 2.072299188195867,111.10365659023913 2.072299188195867,110.4121007470758 1.8627009273763315,110.4121007470758 1.7277054374024294,110.4121007470758 1.7146795567909126,110.06632282538826 1.380743344820789,110.06632282538826 1.380743344820789,109.7205449037713 1.0361495940979335,109.7205449037713 1.0361495940979335,109.37950366601308 0.6903716724103945,109.37950366601308 0.6903716724103945,109.06214584733678 0.6903716724103945,108.68794782270858 0.34577792175812105,108.68794782270858 0.34577792175812105,107.30957281974658 0,107.30957281974658 0,105.58541989509703 0.34577792175812105,105.58541989509703 0.34577792175812105,103.56759257113544 0.34577792175812105,99.72140527777333 0.6903716724103945,99.72140527777333 0.6903716724103945,99.53667460749446 0.6903716724103945,98.68407151299304 1.0361495940979335,98.68407151299304 1.0361495940979335,98.33829359109374 1.380743344820789,98.33829359109374 1.380743344820789,97.99725235340611 1.7277054374024294,97.99725235340611 1.7277054374024294,97.82673173427996 1.7277054374024294,97.65147443171857 1.8544117306941301,97.65147443171857 2.414524596918774,97.65147443171857 2.414524596918774,96.95991858813174 2.7591183476416297,96.95991858813174 2.7591183476416297,96.41993662816556 2.7591183476416297,96.26836274475667 3.1048962693291684,96.26836274475667 3.1048962693291684,95.92732150706902 3.4506741910167076,95.92732150706902 3.4506741910167076,95.49154659206556 3.4506741910167076,95.2357656634822 3.7964521127042463,95.2357656634822 3.7964521127042463,95.1078751992964 3.7964521127042463,94.88998774179467 3.990656150982898,94.88998774179467 4.141045863427102,94.88998774179467 4.141045863427102,94.72420380716248 4.141045863427102,94.20316858241948 4.486823785114641,94.20316858241948 4.486823785114641,93.51161273925615 4.831417535837496,93.51161273925615 4.831417535837496,93.16583481756861 5.521789208247891,93.16583481756861 5.521789208247891,92.82005689595165 6.073612877860915,92.7537433218588 6.209792538728919,92.7395332699297 6.209792538728919,92.47427897426412 6.62188403457989,92.47427897426412 6.900164211139313,92.47427897426412 6.900164211139313,92.29902167120865 6.900164211139313,92.1332377360824 7.154760968687398,92.1332377360824 7.590535883549708,92.1332377360824 7.590535883549708,91.78745981439486 8.278539214101318,91.78745981439486 8.278539214101318,91.44168189298965 8.968910886511713,91.44168189298965 8.968910886511713,91.0959039713021 9.314688808199252,91.0959039713021 9.314688808199252,90.75012604961458 9.659282558851524,90.75012604961458 9.659282558851524,90.4090848116446 9.854670768024278,90.4090848116446 10.005060480609647,90.4090848116446 10.005060480609647,90.06330689002765 10.135319286654234,90.06330689002765 10.695432152949458,90.06330689002765 10.695432152949458,89.7175289683401 11.03765756181353,89.7175289683401 11.03765756181353,89.37175104665258 11.383435483430487,89.37175104665258 11.383435483430487,89.02597312475328 11.728029234223925,89.02597312475328 11.728029234223925,88.3391539653781 12.073807155911464,88.3391539653781 12.073807155911464,86.9560422784162 12.418400906634318,86.9560422784162 12.418400906634318,85.8381848878257 12.418400906634318,84.54507019439149 12.764178828321858,84.54507019439149 12.764178828321858,81.78358350496164 12.418400906634318,81.78358350496164 12.418400906634318,80.54257233369117 12.418400906634318,79.71365265841281 12.073807155911464,79.71365265841281 12.073807155911464,79.30156116305592 12.073807155911464,77.98949973397502 11.728029234223925,77.98949973397502 11.728029234223925,77.2979438908117 11.518430973404389,77.2979438908117 11.383435483430487,77.2979438908117 11.383435483430487,76.81480213722088 11.383435483430487,76.26534680932548 11.2330457709157,76.26534680932548 11.03765756181353,76.26534680932548 11.011605800590496,75.37958692795408 11.006869116731762,75.232749728051 10.695432152949458,75.232749728051 10.695432152949458,74.77802807782435 10.695432152949458,74.54119388488768 10.349654231261919,74.54119388488768 10.349654231261919,73.162818882208 10.553331637258038,73.162818882208 10.695432152949458,73.162818882208 10.695432152949458,72.12548511693365 10.349654231261919,72.12548511693365 10.349654231261919,71.77970719503435 10.005060480609647,71.77970719503435 10.005060480609647,71.54760968630933 10.005060480609647,71.09288803587093 9.787173023037328,71.09288803587093 9.659282558851524,71.09288803587093 9.659282558851524,70.82763373949952 9.659282558851524,70.4013321922841 9.455605152925989,70.4013321922841 9.314688808199252,70.4013321922841 9.314688808199252,70.10292110925447 9.314688808199252,69.70977634912076 9.126405624744017,69.70977634912076 8.968910886511713,69.70977634912076 8.968910886511713,69.3782084787271 8.968910886511713,69.0229571893221 8.798390267526727,69.0229571893221 8.624317135788857,69.0229571893221 8.624317135788857,68.66296921641127 8.624317135788857,68.33140134594701 8.464454055486023,68.33140134594701 8.278539214101318,68.33140134594701 8.278539214101318,67.9429932698132 8.278539214101318,67.64458218636008 8.137622869233416,67.64458218636008 7.936313805237247,67.64458218636008 7.936313805237247,67.22775400707387 7.936313805237247,66.95302634319675 7.806054999263242,66.95302634319675 7.590535883549708,66.95302634319675 7.590535883549708,66.51251474447571 7.590535883549708,66.26147049989225 7.460277077505121,66.26147049989225 7.245942132826852,66.26147049989225 7.245942132826852,65.84937900411187 7.245942132826852,65.5746513404465 7.101473275135484,65.5746513404465 7.063579804265617,65.5746513404465 6.900164211139313,65.5746513404465 6.900164211139313,65.1862432638892 6.900164211139313,64.88309549714201 6.741485301871744,64.88309549714201 6.555570460416458,64.88309549714201 6.555570460416458,64.52310752352535 6.555570460416458,64.19153965355518 6.382681499572689,64.19153965355518 6.209792538728919,64.19153965355518 6.209792538728919,63.859971783585 6.209792538728919,63.50472049418 6.0262460392029995,63.50472049418 5.865198788076645,63.50472049418 5.865198788076645,63.239466197808596 5.865198788076645,62.81316465059317 5.521789208247891,62.81316465059317 5.521789208247891,62.671064134690006 5.521789208247891,62.121608807218095 5.174827115666251,62.102662071783165 5.174827115666251,61.43478964763117 4.831417535837496,61.43478964763117 4.831417535837496,60.74323380425609 4.486823785114641,60.74323380425609 4.486823785114641,60.05641464466916 4.141045863427102,60.05641464466916 4.141045863427102,59.151708027792246 4.141045863427102,59.0190808798183 3.6614566228715084,58.985924092666 3.931447602748731,58.72540648078857 3.996577005806315,58.60698938432024 13.41192034593307,53.789781899564865 16.394847006041015,56.3096977125522 21.843217614549122,54.03135277671318 31.333163725450927,50.06674838667099 32.35155075514919,48.821000532106424 33.92531396721337,47.0447440850814 36.18708050968799,44.927446400086396 37.50032610952183,43.757485486908664 39.58565117839979,41.74913153094686 41.22928047745087,40.21444596057607 47.2614473714067,34.75778615531518 47.434336332250474,34.59200222018893 48.17799569807162,33.862552905943986 56.83902213383624,25.374415431376043 58.24108055602133,24.057617318295247 59.61471887498344,22.769239309072667 61.081906700226114,21.03087633270576 61.61478363433362,19.46777065939432 61.82675023701194,18.113079075655396 61.92385225611598,17.492573490373065 64.14417281489726,14.233734995635063 68.28048199453622,10.183870296276833 71.88273006917355,7.569220806467736 74.5696139879695,6.735564446977746 79.39629484001884,5.390346231168039 84.2277123759975,4.49984966579674 84.78664107132805,4.315118995235554 86.14725350974922,3.8698707127263603 88.50612207139845,3.159368133916349 90.45289913726731,2.7851701088646634 95.37668200842069,2.666753012396328 99.78179799704276,3.012530934083867 101.52134514416261,2.9746374631434174 101.68120822453602,2.9699007794258483 102.47697111266207,2.955690727708484 104.83820801631126,2.4062354000248263 109.33450516914337,1.1083840230847821 112.23098734875884,0.08999699345709898 112.3967712838851,0.018946735223187374 112.43584892571964,0 113.89474755413896,0.20367740599611875 115.32641025044113,0.48314175359080785 117.45673381590647,1.1983810161183885 118.90734324764358,2.2072946782403515 118.9831301894539,2.4914957095526096 119.06010130208774,2.747276638206542Z"/></svg>