<svg xmlns="http://www.w3.org/2000/svg" width="256" height="256"><path d="M143.63280372338133,58.534774806234445 146.3126595759725,60.61889963707409 150.78531098181372,59.46105250885458 154.2196349629706,58.66923447315675 162.52625435877567,57.115478326865706 172.55843947414706,55.23304299652083 176.50445718617516,54.478574867398564 177.99098349889374,54.19471557161386 196.53894749136805,51.09467326161583 204.97255657206793,49.316817671530295 209.41159306106726,48.271020265375 215.94222436204325,47.770531506821506 220.2038487912189,47.48667221070288 222.47472315838695,47.546432062915706 223.83612728146718,47.74812156263129 224.646620271065,47.770531506821506 228.48058826114018,48.017040895474096 231.81780248328604,42.780583884451104 231.97467209417596,43.33336251318992 231.67400533985898,43.72927153126145 231.58436556231894,44.01313082715747 231.58436556231894,44.08036066028468 231.65906537691708,44.259640215364804 232.14274667716094,45.16350797334947 232.47702834798585,45.85821624992498 232.67311536170956,46.36617499006073 232.6955253060111,46.62015435996164 232.65257291255313,47.03100334108638 232.62829547288385,47.60619191434935 232.51624575070835,48.14403058036889 232.463955880523,48.68933922741414 232.33509870003786,49.1748880236936 232.17636159389153,49.488627245028155 232.17449409852378,49.951766096338226 232.1800965845157,50.30285522525014 237.1382967858572,49.80983644805628 240.25701404997784,49.511037189663625 247.3068090631847,48.94331859798291 251.10155965042608,48.65945930153035 254.9112502007207,48.360660043137685 255.77403306050383,48.11415065415117 256,48.495119709726055 250.33775404513298,52.75300914794359 249.93811003632598,52.61107949966165 249.30689660203092,52.43179994491546 248.86990268598046,52.25999037074973 248.6383332603811,52.177820574680624 248.42730628382682,52.14794064913077 247.8950701041331,52.09565077861151 247.68964561357075,52.0807108155583 247.51223355374705,52.073240833976044 247.37217140116678,52.103120759859834 247.2433142206816,52.17035059298705 246.95011744794692,52.31228024126899 246.58595585134955,52.454209889105684 246.43655622181927,52.49155979668304 246.3207715091309,52.49155979668304 246.1956493193812,52.46914985215889 245.97528486598827,52.38698005564453 245.25816664477728,52.073240833976044 244.14327191034965,51.54287214953876 243.132956916404,51.03491340940301 242.73704789833246,50.82575392866172 242.53349090336044,50.691294261739415 242.44758611644454,50.66888431788313 242.34674136658674,50.661414335855625 242.14505186698247,50.72864416898285 241.64082811747087,50.878043798513104 240.7967202113651,51.15443311304948 240.17297675842968,51.32624268688128 239.5417633241346,51.453232371776075 238.64349805247576,51.62504194560787 238.87693497344287,51.72962168631245 239.10103441746,51.87155133459439 239.20934914878873,51.968661093271464 239.269109000445,52.020950963456784 239.33820632905127,52.0807108155583 239.38676120861243,52.20023051887084 239.38676120861243,52.31975022285125 239.46706350953644,52.573729592418225 239.47826848163155,52.77541909257906 239.47826848163155,52.90240877713992 239.41103864850433,52.992048555236536 239.31206139401428,53.06674836994601 239.14772180165343,53.20867801756008 239.08982944514227,53.26096788774541 238.79663267251888,53.35060766584203 238.4940984229455,53.47759735040289 238.2513240250284,53.55976714680593 238.09445441413848,53.59711705404936 237.83113756728758,53.7315767203038 237.56782072054799,53.8884463311937 237.40348112818714,53.96314614634842 237.23727404034724,54.05278592366586 236.95528223981898,54.22459549749765 236.64341051351823,54.41881501596492 236.5761806801684,54.456164923542275 236.50521585619438,54.53833471961139 236.36141871298994,54.590624590130645 236.23629652335157,54.66532440417225 236.01219707922314,54.76990414487683 235.83665251454457,54.926773756100665 235.75821770909963,55.076173385297 235.63309551946125,55.285332866706156 235.51731080666156,55.48702236642174 235.450080973423,55.703651828745286 235.3828511402958,55.90534132846087 235.32495878378467,56.07715090229267 235.34363373757333,56.189200624579506 235.59761310747425,56.181730642997245 235.9393647597701,56.084620884320174 236.38756364802694,55.785821624814396 236.63220554120048,55.82317153239176 236.7797376752517,55.82317153239176 236.85256999470477,55.88293138460459 236.9272698093029,55.93522125434466 236.99636713790917,55.994981106223555 237.04492201747036,56.05474095832507 237.07480194335415,56.19667060593914 237.06733196188318,56.26390043906636 237.06733196188318,56.34607023513547 237.01877708232203,56.473059920475514 237.06733196188318,56.570169679486526 237.10281437409282,56.614989568646145 237.2036591238393,56.682219401439426 237.26902146159878,56.71956930868286 237.36986621145658,56.76438919795379 237.2951663968584,56.9586087159758 237.45577099837246,57.556207233540306 237.58462817885763,57.97452619591337 237.69294291018636,58.42272508428154 237.72655782669432,58.98297369460261 237.72655782669432,59.09502341655552 237.5528807576061,59.33406282351453 237.44456602627736,59.483462453044794 237.4931209057272,59.580572212501046 237.62571307683652,59.520812360288225 237.9543922615582,59.40876263866925 238.36337374731522,59.37888271278546 238.56879823754366,59.39382267572736 239.20561415794197,59.39382267572736 239.597788185278,59.483462453044794 239.88351497643046,59.4685224901029 240.17110926306194,59.57310223080748 240.72762288275885,59.74491180463927 241.07684451652565,59.93166134141297 241.54932084445178,60.178170730399486 241.96203732072163,60.35745028514567 242.31125895448844,60.46950000743251 242.68102303741165,60.51431989636951 243.132956916404,60.51431989636951 243.45976860575794,60.574079747803154 243.8930275310729,60.58901971074505 244.2422491647284,60.70853941472546 244.63255569669673,60.984928728593964 244.98364482583128,61.2538480617707 245.3347339549658,61.57505726479882 245.56070089446197,61.77674676484835 245.80907777837098,62.05313607905079 246.13962445834912,62.45651507848196 246.36559139784526,62.65820457819755 246.6139682817543,62.76278431923606 246.73722297602492,62.79266424523116 246.9837323646775,62.73290439301833 247.39271385010056,62.635794634007325 247.9062750762282,62.576034782462365 248.6028508485054,62.389285245688676 249.1537619819878,62.247355597851985 249.52165856954326,62.150245838395726 249.78871040690703,62.120365912178 250.05576224460472,62.10542594923611 250.52823857253085,62.06807604199268 250.89800265545406,62.01578617214129 250.9596300025894,62.08301600493458 251.06234224792624,62.277235523401835 251.07354721991004,62.389285245688676 251.10529464116155,62.52374491194311 251.20987438186614,62.635794634007325 251.26963423363372,62.67314454158468 251.28083920572882,62.822544170781015 251.30324915025298,63.03917363310456 251.30324915025298,63.20351322557672 251.33686406676094,63.77123181759137 251.40035890926399,64.04762113212774 251.4115638815817,64.27919055739318 251.42276885367684,64.33895040916076 251.40222640474303,64.50329000174423 251.07354721991004,64.73485942700968 250.54317853547275,65.10088851964267 250.27612669799768,65.28016807438885 250.1659444713012,65.45197764855459 250.14353452688835,65.70595701845549 250.16781196655762,66.02716622148363 250.22757181843653,66.18403583270745 250.36576647553773,66.51271501765177 250.36763397101677,66.96838388737959 250.33028406366205,67.11778351657591 250.17341445277214,67.22983323852881 249.88208517529387,67.33441297889946 250.05762973997247,67.4165827753025 250.25371675347353,67.44646270152023 250.31160910987336,67.44646270152023 250.39004391531833,67.58839234913431 250.4292613181521,67.81249179348535 250.35269400807488,68.0365912378364 250.13979953604158,68.52961001469633 250.02401482324188,68.70888956977645 249.7513604995523,68.95539895876297 249.57768343035275,69.14961847645105 249.2863541530971,69.34383799525224 248.99315738025112,69.38865788341006 248.93339752848354,69.41853780929385 248.52628353831687,69.58287740221125 248.72237055192926,69.86673669799596 248.91845756554164,70.26264571617881 249.17430443092158,70.62867480769869 249.39093389357907,71.08434367731518 249.5085861017465,71.4279628253127 249.6654557126364,71.65206226966376 249.95304999926788,71.7118221210974 250.21263185549464,71.75664201036834 250.73553055857226,71.86869173198731 250.81770035453007,71.92098160250656 250.90920762754916,71.92845158408882 251.31632161782713,71.85375176937934 251.6375308210779,71.87616171356956 251.9363300798045,71.86122175062766 252.03904232503,71.98821143563377 252.4218788755274,72.24219080553469 252.84206533326818,72.54099006426128 253.0904422171772,72.7501495453365 253.3630965408668,72.98171897126981 253.56852103120653,73.12364861888389 253.8785252623622,73.27304824841416 254.04473234997945,73.42244787827835 254.18666199792747,73.5419675815909 254.28563925241752,73.668957266597 254.33606162745772,73.77353700730158 254.4406413679397,73.87811674800615 254.58443851136673,73.99016646962512 254.74877810372757,74.10221619191196 254.90378021924974,74.2067959322826 255.0176974365704,74.25908580246792 255.1036022234863,74.34125559920491 255.29968923709865,74.49065522840124 255.3725215565517,74.59523496877189 254.9728775477447,74.78945448723914 254.63672838155205,74.95379407937737 254.21654192381126,75.11066369026727 254.7207656731002,75.77549204162686 254.99715498763658,76.1639310777822 255.0176974365704,76.6195999473987 255.04944485782192,77.10514874323292 255.09799973749438,77.36659809449345 255.1092047095895,77.56081761329466 255.09986723286212,77.67286733491363 254.86829780715144,78.3302257042457 254.75251309435174,78.8232444817735 254.39395398374626,79.48807283213128 253.97750251685224,80.30230081268719 253.7944879707027,80.54881020167372 253.6469558366515,80.66085992329269 253.4490013277827,80.7355597384474 253.25478180953806,80.81772953451652 253.2771917539509,80.96712916337891 253.66376329496111,81.55725769958377 253.04375483298378,82.0577464584712 254.75064559920662,83.00643410528156 254.84962285358537,85.12790884291938 253.71045067915455,86.83853459976639 250.657095753016,90.05809661419006 249.00622984793657,94.43550575605408 248.07995214553907,101.44234837535772 246.87168264250198,102.97369457712462 243.24127164773273,105.40890853643093 242.61566069942955,106.59663559053422 241.76968529795604,107.19423410809873 241.54371835845987,107.52291329315436 241.0189521600145,108.28485140285709 240.27382150828745,109.71908784516772 239.844297573708,110.60801564021048 239.35127879673675,111.60899315720616 238.57813571438234,113.38684874784826 237.77137771563133,114.38782626451 236.90299236952234,115.11988444866286 235.6144205658952,116.18809179945363 234.59663559047857,117.35340890869884 234.2137990400925,118.57848587004555 233.88885484610628,119.94549247889505 233.62553799914406,122.26865671624846 233.36222115229316,123.65060328881901 233.28005135622405,125.26411928665502 233.31926875894652,127.28848426528182 233.16986912941627,127.56487357970688 232.06244437634828,128.24464189300656 231.85328489516172,128.83477042954536 232.12593921885133,129.35766913273432 233.63487547598274,130.21671700144805 235.89641236642345,131.48661385195442 237.88529493295195,132.54735122082897 239.84243007834024,133.6230285522002 241.76968529795604,134.70617586604416 242.67542055119713,135.29630440191508 243.1292219255572,135.84161304929427 243.1945842635393,136.8650005108141 243.1385594025072,137.64187858390395 243.06759457842188,140.8166207090567 241.2860039976009,142.23591718809152 238.74434280222223,144.207992296533 238.6509680338354,144.2528121853587 237.3063713689535,145.34342948011704 235.99725711628125,146.2771771639855 235.45568345952623,146.6581462195604 233.79921506834359,149.51167914135107 232.46955836651492,149.57890897447828 230.27151631868858,149.58637895572662 224.90433463181267,149.63866882591194 221.5970003355506,149.60878890036207 222.5662304315174,150.74422608361218 222.71189507008955,150.97579550921157 223.02003180576614,151.476284268099 223.18623889349473,151.73773361924822 223.3113610831331,151.96930304529286 223.33190353217822,152.12617265618275 223.39539837468126,152.38762200733197 223.5391955181083,152.50714171064453 223.60082286524363,152.6341313963185 223.60269036050005,152.91052071040963 223.6848601566805,153.09727024718333 223.68672765215953,153.36618958047137 223.70727010109331,153.4558293574549 223.1544914722432,153.61269896834477 222.7847273895426,153.7172787093833 222.49900059816756,153.8442683942781 222.17032141355716,153.98619804189215 222.0694766638107,154.12065770848054 221.86591966861604,154.35969711543953 221.51856553010566,154.56885659718264 221.21229628990812,155.03946542940707 220.92656949853307,155.44284442883827 220.60162530454684,155.9582731506676 220.37752586041842,156.3467121868229 220.1534264164013,156.79491107552502 219.9722793656195,157.21323003756416 220.24493368930908,157.48214937040697 220.42421324461182,157.5792591297519 220.5698778832953,157.4522694448571 220.7921098321673,157.37756962970238 221.05916166964238,157.1908200929287 221.36543090995124,157.04889044542594 221.89766708986758,156.87708087159413 222.14604397377659,156.7799711121379 222.47285566313053,156.72021126037032 222.7193650515605,156.69033133482046 223.12834653709487,156.65298142724308 223.3972658701603,156.8247910014088 223.58028041608722,156.96672064891158 223.8081148509511,157.05636042667427 223.99112939710065,157.086240352892 224.26004872994346,157.22817000050605 224.32167607707876,157.22817000050605 224.4243883224156,157.30286981566078 224.52710056764113,157.2879298527189 224.59433040076837,157.31780977826875 224.65595774790367,157.28045987069137 224.6877051691552,157.1609401670449 224.63354780349084,157.0937103339177 224.67463270169236,156.93684072302779 224.79601990048394,156.83973096401678 225.04252928902523,156.69780131640272 225.3095811266116,156.73515122331222 225.42349834404354,156.7426212053397 225.57663296430928,156.77250113088957 225.67000773269612,156.80238105643943 225.81380487590056,156.9219007600859 225.8959746721923,157.004070556155 225.9781444682614,157.05636042667427 226.04724179686767,157.13853022274338 226.8876147123493,157.1684101490724 226.99219445305386,157.11612027888708 227.13412410100187,157.04142046373238 227.24617382295477,157.01901051943085 227.60473293356026,156.95925066766324 227.95395456732706,156.89202083453603 228.1276316365266,156.86214090865224 228.37414102506787,156.87708087159413 228.4563108213596,156.86214090865224 228.66173531169935,156.89202083453603 228.89890722351325,156.95925066766324 229.175296537827,157.04889044542594 229.25746633411873,157.086240352892 229.56747056505176,157.21323003756416 229.7318101575239,157.27298988966567 230.00819947183766,157.39250959297823 230.1426591383147,157.49708933334887 230.31633620762557,157.66142892626627 230.37983105023994,157.74359872233538 230.50308574439927,157.9154082961672 232.95510716223782,157.60166907405343 233.05408441672787,157.62407901868892 233.28938883306273,157.84070848101246 233.4257159947962,158.00504807381856 233.52469324928626,158.19179761059223 233.44812593920906,158.6250565356846 233.5751156243265,158.87156592389192 233.82909499422738,159.1404852574026 234.05506193372355,159.27494492365702 234.09801432729282,159.5065143493677 234.2847638640665,159.73808377463317 234.40801855833715,159.84266351533773 234.49018835440626,159.87254344155545 234.63211800235425,159.96965320067778 234.9215797844648,160.08170292229676 235.21290906172044,160.88099093991076 235.56213069570987,161.14244029139394 235.5845406400114,161.57569921648627 234.97013466402595,162.76342627025565 234.60597306720595,162.82318612235716 234.4210910258,162.85306604835225 234.3202462759422,162.9128258997859 234.91410980299383,163.03981558512595 236.23069403724836,164.94466086044022 236.50521585619438,165.31068995196011 236.66021797171655,165.5049094707613 236.9160648373191,165.86346858125546 237.1737791978442,166.25190761785606 237.2951663968584,166.5880567838261 237.39787864208392,166.87191607927684 237.53607329929648,167.20059526466642 237.59023066496084,167.46204461548172 237.55661574823026,167.66373411553124 237.67613545187675,167.9998832819465 237.91330736346802,168.44808216986942 238.4044586451828,169.74785894603693 238.49596591820193,170.19605783395986 238.72380035306583,170.72642651839715 239.05994951925848,171.6676441842931 239.13464933396796,171.96644344268577 239.2579040283499,172.3100625906833 239.3643512643109,172.7059716084209 239.4558585372187,172.94501101571385 239.56977575465066,173.13176055248752 239.78640521741946,173.43802979223983 239.96381727735445,173.57995944052178 240.19725419832156,173.7069491257505 240.4064136793968,173.86381873630646 240.70334544297828,173.96092849531746 240.97039728045334,173.94598853237557 241.39992121503283,173.95345851406915 241.85932507549612,173.9758684587046 242.4513211070687,173.94598853237557 243.05638960621548,173.8936986625242 243.69320552672505,173.83393881042267 244.09284953530945,173.79658890284531 244.22544170641876,173.8115288657872 244.40098627109737,173.8787586995823 244.63815818268864,174.07297821771562 244.89587254343633,174.2746677170973 245.1834668300678,174.52117710563854 245.7493179264921,175.09636567934677 246.07986460669284,175.4399848265651 246.3674588933243,175.7910739562562 246.61770327260106,176.25421280712104 246.7204155179379,176.53060212132345 246.81565778146987,176.79952145416627 246.88662260544388,177.03856086145922 247.03602223486283,177.8229089157974 247.20036182733497,178.21134795228667 247.36656891495227,178.44291737788606 247.55145095646952,178.65954684098878 247.7176580440868,178.81641645143344 247.86332268288157,179.04798587747806 248.06874717322134,179.26461533980162 248.19386936285972,179.6231744504071 248.653273223323,182.24513794682105 249.21912431974727,182.98466611233354 250.41992384120212,184.53095227704233 250.73366306309322,184.89698136923008 251.12957208105345,185.39000014575606 251.3107191317239,185.75602923838906 251.4265038445236,185.9875986636545 250.5917334150339,188.43775258634795 250.4591412439246,188.54233232705252 250.36763397101677,188.6543820486715 250.20329437854463,188.86354153041458 250.10244962879815,189.02788112221887 249.96985745757752,189.26692052951182 249.7569629856555,189.59559971456744 249.58141842119954,189.86451904741025 249.51045359711424,189.98403875105674 249.44135626861927,190.10355845436928 249.0827971579025,190.43223763864572 248.85869771388536,190.65633708299677 248.5524284734652,190.88043652734783 248.45905370507836,191.02236617518452 248.40863133026076,191.1717658048261 248.37875140426567,191.29875548938696 248.41049882551718,191.47803504524626 248.48333114485894,191.70960447017777 248.63086327891014,192.11298346960893 248.68128565406167,192.26985308049885 248.69435812152452,192.49395252518383 248.96514494973505,192.88239156133918 249.21165433827633,193.06914109811285 249.2452692548956,193.12143096863213 249.2956916299358,193.2036007643673 249.3367765279147,193.36047037559115 249.46189871755308,193.71902948653056 249.5646109627786,193.8385491898431 249.62623830991393,193.9356589488541 249.62810580539298,194.15228841117766 249.69160064789602,194.39879780016417 249.75322799503135,194.6602471513134 249.8988926336035,195.13085598420574 250.0856421703772,195.4520651876791 250.18835441571403,195.78821435364912 250.2723917071509,196.00484381597266 250.5599859937824,196.3559329452185 250.74673553055607,196.6323222597549 250.95216002111843,196.8190717965286 251.09969215516966,197.13281101864231 251.18186195123877,197.2672706852307 251.3256590946658,197.62582979583618 251.34806903907867,197.81257933260986 251.3499365344464,198.1188485725848 251.4115638815817,198.27571818314075 251.55536102478615,198.44752775697256 251.65994076549072,198.61933733080434 251.80373790869515,198.79114690497008 251.99608993179467,199.0899461640306 250.84758028041387,200.21791336603238 249.61876832844297,201.39817043810817 248.4553187144542,202.54854758507938 245.85389766719666,203.37771552824324 245.58684582949897,203.45988532431235 245.1162369969406,203.63169489814416 244.81930523347043,203.74374462009706 244.52237346988895,203.8483243604677 243.21139172173764,204.2068834714071 242.51481594957176,204.43845289667257 242.11517194087605,204.57291256326093 241.95643483472975,204.6476123780817 241.5810682657033,204.7521921187863 241.14967683575608,204.8642418407392 241.0226871508613,204.90906173001014 240.71455041507338,205.02858143321137 240.4587035496934,205.133161173582 240.08520447614603,205.27509082153 239.84056258308382,205.36473059962663 239.70236792575997,205.40208050675875 239.31206139401428,205.5440101543728 239.14772180165343,205.61870996952754 238.6154856217371,205.79051954335932 238.40632614055056,205.88015932067677 238.1710217242157,205.61123998783395 237.842342539494,205.2676208405043 237.77884769710226,205.16304109991103 237.6555930027203,205.036051414571 237.5734232065399,205.0211114516291 237.51926584087553,204.93894165556 237.08227192482508,205.10328124769822 236.46786594883963,205.2900307844719 236.11864431507283,205.40208050675875 235.40152609386186,205.76063961736423 234.97386965465012,205.9324491908621 234.52006828029005,206.20136852437275 233.53776571697173,206.94836667146754 233.12878423132605,207.20981602239414 232.94576968539914,207.4936753188467 232.6805853431805,207.6953648185623 232.37244860739258,207.9941640774002 232.19130155683342,208.31537328042833 232.1091317605417,208.4871828542601 232.25292890396875,208.70381231658368 232.3164237464718,208.8606819278075 232.43967844074243,209.0623714275231 232.62642797751613,209.2267110196613 232.38178608423127,209.36864066794325 232.01202200153068,209.72719977854874 231.58436556231894,210.22768853665698 231.4218934653258,210.4443179996484 231.4218934653258,210.61612757348018 231.50593075687397,210.72070731385085 231.64786040482198,210.82528705455542 231.81219999707153,210.96721670283736 231.9989495338452,211.07179644354193 232.20437402429627,211.1987861281028 232.3014837835299,211.33324579435723 231.9877445617501,211.40794560951196 231.84394741832304,211.4527654980037 231.55635313169157,211.4303555540361 231.34159116440182,211.4303555540361 231.24821639601498,211.42288557245385 231.12496170185565,211.42288557245385 231.00170700758503,211.4004756278184 230.84670489217416,211.35565573932664 230.74586014209373,211.33324579435723 230.6319429246618,211.25854598031563 230.540435651754,211.2137260910447 230.3443486380303,211.07179644354193 230.21175646692097,211.02697655427102 229.9951270042635,210.98215666577926 229.78970251381244,210.99709662838723 229.66644781954182,211.01950657302268 229.5245181715938,211.1016763690918 229.39005850522807,211.2137260910447 229.30975620430405,211.2809559241719 229.15848907951738,211.42288557245385 229.08565676028695,211.51999533113093 229.01469193620161,211.66192497941287 228.95493208454536,211.78144468305933 228.9119796909761,211.90096438670582 228.90264221413742,212.02048409035228 228.92505215855024,212.12506383061162 228.85221983931982,212.28193344116758 228.77191753839583,212.44627303408498 228.75137508946204,212.51350286721222 228.69161523758314,212.65543251471496 228.6692052931703,212.7151923669278 228.73270013567335,212.76748223744704 228.77378503376357,212.82724208854677 228.8055324551264,212.95423177422074 227.69997519731484,213.60412016185924 201.74739207187497,242.49800849126214 195.34561795127286,251.1631869976727 189.10631592777514,248.56363344578293 185.77843918235666,246.83059774430046 184.34046774919923,245.85203017194024 183.3021403248488,245.08262208021 181.8081440306593,243.67826556378316 181.61579200767108,242.79680775043397 181.2161479990867,242.56523832472328 180.78849155987493,241.6837805113741 179.24407289064519,241.10859193811112 178.50080973439722,240.71268292003958 177.51663967548856,240.30183393924878 176.4521673158785,239.9507448098916 175.33353759071542,239.554835792154 174.24292029584575,239.05434703360052 173.55007951441536,238.56132825607273 172.97862593188785,238.06083949796448 171.0625756847011,239.51748588424272 169.0998380532096,240.45123356811115 165.74208138190733,240.91437241975515 162.26293751203607,241.3849812519796 160.11718533428376,241.6090806966646 158.63065902156518,242.04233962197958 156.87894836662795,242.06474956594715 153.9974030143212,242.19920923253554 149.50794415028167,241.40739119694902 149.40709940042387,240.66039304985426 149.50607665480263,240.01050466143656 149.83102084878885,239.42037612556564 149.27077223846777,238.68831794141278 149.065347748128,237.91890984968254 148.93088808165095,236.54443325880555 148.5685939801987,235.132606761353 148.5387140543149,230.97929706317217 147.11381508873163,219.49793554221432 146.87104069103714,214.62750762315648 143.10430253431178,207.26957587449564 141.14903488417994,203.62422491645057 137.1563297879584,194.6453071883715 131.90119782314676,186.70471688519942 127.94957762501545,179.99667352395448 126.09702222022044,177.5091696940176 125.03254986061039,175.75372404867883 123.87283523724577,173.77417895854379 123.04179979860284,171.6900541281494 122.38070643842397,170.4799171300785 121.62810580533731,169.57604937220515 121.36852394911057,168.84399118805226 120.98195240810034,167.97000335561745 119.60747581733466,166.53576691364077 118.98373236473316,165.44514961854847 117.80907777820401,164.0706730276715 115.56061335544878,162.2704074933957 113.91348244110482,160.8436410323334 112.5968982068503,159.95471323729063 110.49409842288985,157.62407901868892 110.18222669647778,157.14600020443694 109.87782495153667,156.3840620944003 108.95714973513105,155.27103485500646 104.05310689945392,146.41910681226744 103.11562422496131,145.79162836881915 99.22749886922175,142.93809544669452 98.72140762478767,142.2583271330609 92.31963350396292,133.99652762574758 85.43231058774919,129.24561941067012 84.99344917644233,128.76754059608422 82.90932434604792,128.6704308370732 80.45356793736258,128.88706030006463 77.5103952378092,129.76104813183156 77.95672663069833,128.87212033712274 60.06612100777871,129.76104813183156 59.73744182327964,129.82827796495877 58.93068382419467,129.6415284281851 58.346157774093015,129.68634831701078 57.963321223929576,129.82827796495877 57.60476211321277,130.14948716832083 57.16029821569139,130.30635677954467 56.41516756385305,130.38105659425415 55.46274492641854,130.97118513057032 54.85767642727178,131.3446842041177 54.15176317815591,131.85264294391953 53.32259523488072,132.3979515912987 50.691294261739415,134.11604732972796 49.48489225418137,134.736055791594 43.69939160504373,133.48856888594574 43.471557170068515,134.51942632927046 42.93185100879255,135.4681139757469 42.57142440293064,135.57269371645145 41.88045111675667,136.14041230802084 40.81037627104342,137.58211873169114 39.76644636047848,139.3973242292427 38.61980420468802,140.33854189480473 36.95026334593122,141.28722954128116 34.1658277527468,142.31808698482848 33.654134021986884,142.48242657707803 32.768941217568276,142.37037685467988 32.2945973941631,142.1313374480548 31.865073459806233,142.0118177440744 31.549466742436074,142.01928772576795 31.11994280785658,141.84747815160225 30.68855137802067,141.5561488744579 30.582104141948353,141.3693993376842 30.597044104890248,140.89132052343226 30.623189040038564,140.24890211704206 30.563429188382294,140.03227265438457 30.412162063484292,139.96504282125736 29.812696050440746,139.81564319206103 30.217942545239655,139.3973242292427 30.384149633079552,139.14334485967575 30.59517660963382,138.79225573009595 30.802468595341306,138.3291168787859 29.693176347016895,133.97411768155735 29.612874046092895,133.78736814478367 29.0414204635654,133.03290001599532 26.47921681914167,127.10920470942253 25.986198041947812,125.75713806351493 25.907763236502863,125.24170934168562 25.88535329209002,124.8458003238367 25.88535329209002,124.40507141749603 25.902160750510962,123.85976277022817 17.500299091062598,120.64767073749806 15.679491107519109,119.94549247889505 15.582381348285478,119.90067259040329 15.492741570745418,117.0321997056707 15.489006579898634,116.85292014981141 15.47966910305995,116.7856903166842 15.416174260556893,116.70352052061507 15.35267941816515,116.62882070579428 15.30412453860399,116.53171094678328 15.276112107976624,116.4271312060787 15.244364686947721,116.19556178047932 15.214484760841307,115.73989291119676 15.23689470525415,115.20952422642554 15.279847098712098,114.65674559779805 15.20701477937036,112.35599130430093 16.934447994527,111.92273237965382 17.70385608603461,111.73598284288013 17.604878831544553,110.36150625200315 19.928043069120584,109.47257845662645 18.583446404238696,108.44172101408091 18.84116076498639,108.40437110650356 19.5545439955732,108.31473132874088 20.06810522170085,108.17280168123811 20.24178229078907,108.11304182902528 20.107322624423325,107.64990297771521 21.76192352012692,107.44821347799963 20.477086707123924,106.44723596100395 20.92528559538078,106.00650705399542 21.79927342748166,104.915889759571 22.563079032886055,103.90744226099307 22.79091346786127,103.48912329884263 23.009410425886486,103.12309420632094 23.179352504350547,102.75706511480107 22.83199836584017,102.17440655984453 22.699406194730848,101.92042718994362 22.634043856971367,101.76355757871978 22.5742840053151,101.56933806058646 22.540669088584522,101.41993843139012 22.495849199758837,101.30041872740972 22.436089347879943,101.17342904284885 22.370727010120465,101.01655943162503 22.346449570339885,100.86715980242869 22.342714579493098,100.73270013584032 22.314702149088355,100.56089056200852 22.282954727725517,100.41896091372658 22.241869829635306,100.2396813589804 22.219459885222463,100.0379918592648 22.213857399230562,99.91847215561835 22.2157248945983,99.73172261884464 22.230664857540194,99.44039334136637 22.225062371325674,99.1490640638881 22.22132738070151,98.93243460156457 22.230664857540194,98.73074510184898 22.2157248945983,98.5813454722074 22.15596504271941,98.23025634296155 22.109277658525986,98.11073663931508 22.043915320766505,97.95386702842518 22.006565413300454,97.86422725110774 21.931865598590978,97.7073576398839 21.879575728405655,97.3786784551622 21.868370756087923,97.22927882563194 21.83475583957997,97.05746925180014 21.819815876526764,96.97529945573103 21.80487591358487,96.78107993804295 21.896383186715287,96.42252082743747 22.00283042256498,96.27312119746195 22.122350126211455,96.22083132772188 22.260544783423985,96.19095140172678 22.445426824718627,96.17601143845094 22.57801899582795,96.17601143845094 22.729286120725952,96.14613151256715 22.598561444873056,95.88468216097267 22.544404079208686,95.7502224943843 22.454764301668625,95.61576282812987 22.352052056331782,95.4962431244834 22.187712463970936,95.3393735135935 21.999095431829506,95.21985381028095 21.868370756087923,95.11527407002163 21.776863483068816,95.01069432931705 21.67788622869007,94.83141477379168 21.595716432398333,94.66707518131952 21.431376840037487,94.4877956262394 21.130710085831844,94.51020557076356 20.971972979574204,94.52514553370546 20.800163405965034,94.4877956262394 20.61341386919134,94.41309581108467 20.512569119110925,94.29357610777214 20.456544258190128,94.16658642321127 20.422929341459554,94.03212675617766 20.351964517485552,93.92754701591832 20.258589749098704,93.91260705286513 19.623641324179466,94.05453670047919 18.816883325205808,94.24128623725288 18.391094381361793,94.36080594089935 18.08482514105294,94.45044571899598 17.851388220085827,94.51020557076356 17.733736012029713,94.5027355891813 17.554456456726967,94.49526560748772 17.276199646822857,94.40562582972504 17.078245137954056,94.27863614483024 16.854145693825625,94.10682657099845 16.708481055030838,93.8901971086749 16.641251221792306,93.76320742366879 16.480646620278243,93.5764578868951 16.29016209265777,93.47187814585659 16.122087509672756,93.38223836853915 16.03805021823591,93.31500853541193 15.985760347716651,93.26271866489267 16.39847682398651,93.06849914642541 16.620708772858514,92.95644942480645 16.863483170553,92.85186968376793 17.227644767373008,92.72487999876182 17.737471002653876,92.57548036923156 18.062415196640096,92.4186107586756 18.505011598793747,92.28415109242115 18.856100727928286,92.19451131476978 19.143695014559768,92.14969142549886 19.347252009643093,92.0899315740652 19.522796574321674,92.0077617779961 19.12688755636145,91.57450285223588 18.857968223296023,91.29064355645119 18.678688667993278,91.14124392725485 18.353744474007055,90.91714448290381 18.14085000208505,90.76027487201391 17.701988590778186,90.42412570570994 17.459214192972386,90.22990618791056 17.377044396680652,90.11038648393014 17.326622021751753,90.01327672491914 17.29300710513249,89.83399716983902 16.997942837030056,89.81905720689713 13.515063976312028,85.48646795385879 10.949125341152824,82.12497629193236 11.20497220642147,75.49163274584215 11.253527085871317,74.2217358952245 10.827738142027302,73.96775652565752 9.367356764568349,73.09376869333403 9.985497731177954,72.56340000856281 10.18158474479033,72.39906041675852 10.362731795572122,72.2870106946943 10.545746341499028,72.18990093501543 11.356239331096848,71.71929210279097 11.668111057508913,67.86478166367068 11.75961833052802,67.17754336800957 1.6564683911826406,57.541267270932345 1.1970645307193604,57.093068382230236 0.8926627856669324,56.77185917920211 0.6779008185998103,56.59257962412199 0.44259640215364804,56.41330006893056 0,56.06968092137828 0.5770560685193943,56.248960476124466 1.426766460839689,56.81667906847304 1.7815905808210137,56.921258808732375 2.3922615659596724,57.19017814202043 2.737748209102312,57.16776819738496 3.348419194240971,57.36945769676661 3.6920383419045626,57.26487795606204 4.125297267219526,56.756919216260215 4.946995229135079,56.55522971654463 5.329831779521146,56.56269969812689 5.6622459548670045,56.64486949464125 5.7481507417829025,56.66727943849753 6.248639500447706,57.85500649260083 6.9302753095603675,58.00440612224241 8.013422622959087,59.37888271278546 7.953662771080195,59.87190148997932 9.074159991722341,61.246378080522376 15.545031441042052,64.98136881599619 24.266234808262116,66.91609401719425 31.837061029067556,68.6416597363153 32.38423717192578,68.78358938493118 32.768941217568276,68.9180490511856 33.1499102725866,68.98527888431282 33.540216804443624,69.02262879189018 33.78485869772847,69.06744868038194 33.941728308618366,69.09732860626573 34.25360003503043,69.14214849553666 34.382457215292966,69.16455843939295 34.68499146486635,69.25419821715563 34.965115770026884,69.38118790205043 35.164937774374735,69.53805751294033 36.44977458737773,70.539035029936 36.511401934513046,70.59132490045526 40.272537605135184,73.2282283599224 40.34536992458824,73.28051823010772 43.008418318869765,74.53547511733824 43.785296391959626,74.28149574743733 44.10090310899586,74.16944602537312 44.38102741415639,74.07233626569423 44.68916414983298,73.97522650701717 44.93380604300652,73.8407668404288 45.116820589044735,73.71377715508875 45.404414875898844,73.60919741505204 45.818998847313814,73.53449760034256 46.20183539769988,73.47473774812974 46.72846909140169,73.39256795206063 47.100100669692644,73.32533811859948 48.459637297405116,73.02653886020681 48.63331436660465,72.98918895262945 48.72295414414471,72.96677900799399 49.03295837518904,73.14605856385329 50.132913146897394,73.35521804481719 50.756656599721516,73.48967771107164 53.35994514223546,72.13014108391572 53.59898454930579,71.49519265843992 53.602719540041264,71.26362323317448 53.44584992915136,71.10675362228459 53.339402693301665,70.97229395569622 54.02290599778207,70.60626486373108 54.355320173239235,70.07589617940512 54.398272566808494,69.99372638289076 52.390715046491316,68.8732291622486 55.658831940030915,64.85437913065616 63.407070220660046,55.35256269983337 65.2820355698679,52.573729592418225 65.74143943033118,51.90890124183782 66.32596548054416,50.033935892407335 67.24477320147071,47.68089172950407 68.04032622801533,45.91797610202649 68.40262032935628,45.36519747306505 69.6781196655206,43.363242438739775 70.70710961325494,41.899126070434036 72.72026961956402,36.35639981943613 75.66717730985287,28.221589997462832 77.25454837242924,24.307319706797575 77.46370785361579,23.79936096632789 77.88949679757111,23.082242745562162 78.25739338490396,22.350184561409293 78.58420507425792,21.722706117961 78.93529420339247,20.901008155711516 79.28638333252701,20.168949971558646 79.46192789720558,19.60870136123757 79.68976233195818,18.816883325651055 79.89705431788829,17.950365474909816 80.04832144256366,17.158547438878056 80.33591572919515,16.097810069780866 80.63097999729759,15.33587196007814 80.90363432098717,14.73080346082007 81.23791599181207,13.92404546162379 81.57593265337246,13.124757444343704 81.78135714393483,12.616798704207952 81.95316671765532,12.116309945988395 82.34907573572686,11.496301483565805 82.76552720262087,10.846413096149917 83.13902627616825,10.286164485828843 83.49385039603827,9.785675727052729 83.86548197432923,9.404706671811775 84.47615295946788,8.836988080576312 84.93929181077795,8.418669118091932 85.38562320355575,8.03023008126872 85.63960257367928,7.746370785484021 85.97948673049609,7.440101545063856 86.53786784544944,7.103952379093834 87.22510614077662,6.827563064223526 87.5930027283321,6.708043360910986 88.01692417669707,6.618403583148303 88.47446054179261,6.5362337870791904 88.88530952280604,6.371894194940965 89.10940896693447,6.21502458371713 89.25694110098569,6.073094935769125 89.41567820713202,5.878875417747109 89.57815030423643,5.580076158909203 89.94417939642419,5.497906362506156 92.32150099933065,5.169227178229705 92.92470200310967,4.952597715126978 93.25898367415721,4.750908215411392 98.66725025890068,0.044819889270931466 98.72327511993278,0 99.86618228498777,1.1578471278855738 101.6776527918039,3.764870661691548 106.44350097015717,11.107862447410461 106.57982813211328,11.914620446272806 106.60970805799707,11.981850279733958 106.6526604513437,12.071490056828774 106.83007251127871,12.40763922313273 106.88049488620761,12.512218963837308 106.93838724283007,12.609328722848316 107.08591937676998,12.803548240981643 107.30815132541936,13.020177703639124 107.62936052878142,13.35632686994308 107.6891203804377,13.445966647705763 107.85719496353401,13.647656147755283 107.89827986162423,13.69247603669228 107.96364219960633,13.789585795369355 107.99352212537882,13.849345647470871 108.26991143980388,14.230314702043955 108.3016588610554,14.27513459086964 108.4585284719453,14.42453422084515 108.5593732218031,14.551523905406015 108.61726557831425,14.626223720560738 108.67702542997053,14.768153368397432 108.69009789754467,14.857793145492245 108.74799025394452,14.969842868113018 108.91606483704085,14.984782831166225 109.68920791928393,17.06890766122668 109.61264060931802,17.20336732781505 109.55848324365365,17.63662625279608 109.53607329924081,17.688916122981404 109.53420580376176,18.25663471532998 109.55288075766175,18.495674122288996 109.58462817869066,18.66748369612079 109.60330313236803,19.10074262110182 109.65559300266466,19.421951824463882 109.69854539623392,19.631111305873038 109.7078828730726,19.77304095370973 109.78818517377398,19.944850527541526 109.84607753028514,20.0942501571831 109.92824732635425,20.30340963781308 109.9768022059154,20.5050991378626 109.99921215032825,20.64702878547667 110.03469456242657,20.818838359642402 110.04403203915393,21.132577581644824 110.14114179827627,21.26703724789926 110.1728892196391,21.319327118418517 110.249456529605,21.46872674772616 110.29054142780652,21.506076655192206 110.3409638026241,21.60318641431453 110.36710873788374,21.7002961729916 110.49783341351402,21.84222582127354 110.51277337645591,21.95427554289251 110.81157263540513,23.508031689183554 111.14772180159777,24.815278446599393 111.64821056003994,25.876015815140025 112.15803679554344,26.49602427756261 112.46057104511681,26.914343240046993 112.75563531310793,27.355072146721593 112.92744488705104,27.780861090788232 113.00774718797504,28.266409885954584 113.02268715080562,28.751958681900113 113.02642214142979,29.230037495706828 113.07124203025548,29.71558629165236 113.16461679864231,30.20113508681871 113.22624414577764,30.67921390107067 113.24678659493405,31.16476269690489 113.26546154850011,31.65031149251649 113.29534147449522,32.12839030676845 113.33269138184995,32.613939101934804 113.3756437751966,33.099487898214264 113.40739119644812,33.57756671202098 113.4316686362287,34.06311550763258 113.43540362707549,34.54866430313287 113.43727112233191,35.03421309907839 113.40925869181585,35.273252505926095 113.50636845093817,35.82603113466491 113.70619045539733,37.03616813340368 114.00125472349977,38.380764797617694 115.68200055446299,39.785121314489786 117.84269269482328,41.42104725651601 118.29089158319145,41.75719642293128 118.71854802240321,42.07840562629334 120.34140149685527,43.116733050421125 122.3004041376113,44.36421995573545 126.16985453956217,46.97871347056712 127.90289024082203,48.33078011714258 128.26331684679525,48.56981952443553 128.68723829527153,48.86861878327343 129.16531710941217,49.1524780787242 129.7218307292204,49.40645744862511 129.8600253863216,49.51850717124588 130.2746093578479,49.87706628185137 130.3605141447638,49.959236077586546 130.4875038297699,50.06381581862506 130.9319677272913,50.34767511452107 131.3465516990402,50.661414335855625 131.43619147658026,50.72864416898285 131.87505288810974,51.079733298228696 132.23361199871525,51.288892779303914 132.2989743364747,51.31130272427332 132.63885849351414,51.48311229810511 132.82560803028784,51.57275207575648 133.27193942306565,51.88649129720235 133.70519834849193,52.20770050023048 134.16273471358747,52.513969740650644 134.62213857405075,52.81276899971117 135.09834989282365,53.1190382397974 135.5614887439111,53.410367517275674 136.02276009985343,53.724106739389406 136.35890926604608,53.94073620171295 138.5308063786128,55.53184225491349 143.1752673582858,58.183685676988596 143.63280372338133,58.534774806234445Z"/></svg>