<svg xmlns="http://www.w3.org/2000/svg" width="256" height="256"><path d="M134.0574382539097,0.2894887992665296 134.58587018951025,0.42274554846673973 135.5640436530367,0.41355542764099384 136.53245261347251,0.4824813327043044 137.0315910397327,0.7030442275922408 137.2469844917706,0.7811602525911646 138.46467547382855,0.850086157175173 138.97415278578555,0.9190120620330684 139.3923032739421,0.9741527858235243 140.53762205625296,1.2544514646751384 140.66800689262024,1.2866168869832393 141.33543940260435,1.5163699024915063 142.0534175760677,1.7001723146242331 142.67087880524616,1.934520390579609 143.3555427914608,2.1734635267082068 143.9155657667622,2.504307868903168 144.61516369898595,2.761631246477842 145.1872487076689,3.0603101666385895 145.95232624931145,3.2946582423200783 146.91384261914507,3.928776565328311 147.37622056285548,4.126364158528477 147.90120620336035,4.291786329625958 148.14819069496323,4.512349224513894 148.3388856978351,4.7375071795750525 148.54968408956395,4.9213095921870815 148.6892590464852,5.040781160114436 149.16369902357826,5.371625502514813 150.12521539341188,5.918437679219074 150.62492820221084,6.116025272624655 151.29236071219387,6.368753589615277 151.97013210801174,6.7639287764264395 153.04365307290564,7.439402642089217 153.97128087302028,7.967834577758231 154.937392303301,8.482481332565222 155.84549109702897,8.928202182514315 156.85640436533382,9.479609419597214 157.5944859277226,9.787478460789123 158.5801263641846,10.421596783318051 158.88340034458702,10.554853532312848 159.56289488795272,10.66973004006698 160.23032739807164,10.66973004006698 160.8598506604969,10.894887995402026 161.7897759907666,11.455485353105255 162.41987363579804,11.965537047465135 163.42561746118548,12.843193566775188 163.71395749564834,13.16025272838201 164.11257897762366,13.60597357812569 164.52211372769867,13.941412980973176 165.67949454332157,14.73635841463178 166.2940838598062,15.099368178929426 167.00229753010936,15.581849511839145 168.06203331421077,16.312464101086963 169.13325674901807,17.139574957053668 170.15450890288383,17.64043653079322 171.3578403216084,18.1504882251531 172.14072372208975,18.490522688173808 173.10109132684585,18.940838598364596 174.307869040803,19.423319930863485 175.30155083280673,19.813900057501424 176.57265939117576,20.209075244107172 176.71682940833873,20.24583572638308 177.808156232003,20.535324526060442 178.5864445721057,20.696151636779284 179.844342331945,21.12808730614024 181.1838024123582,21.578403216536447 182.46754738651063,21.978173463315414 183.39402642154772,22.354968408680502 184.13612866163945,22.722573233630673 184.69385410678575,23.002871912482288 185.9764503158617,23.866743250930313 186.66053991953544,24.43193566908065 187.41987363579133,24.969557725369995 187.70649052277486,25.277426766288016 188.28317059156365,25.70476737499645 188.92647903505528,26.18265364732212 189.7346352671056,26.770821367091752 190.62722573228675,27.267087880452667 190.98851234924197,27.46927053430536 191.78747846060458,27.88742102232499 192.2935094772594,28.232050545587388 193.23147616307295,29.059161401554093 194.1625502584887,29.84032165414526 195.2085008615216,30.745548535384774 195.55025847215862,31.044227455271635 197.0861573807629,32.307869040567105 198.6352670878274,33.45663411810844 200.0568638712848,34.568638713373865 201.26479035031952,35.53819643875028 202.0758184950637,36.167719701311405 202.58644457209928,36.567489948090376 202.9115450890435,36.820218265080996 203.63928776566593,37.844916714247866 204.2039058012775,38.763928776280935 204.65594485922153,39.71970132100074 204.6427340608298,40.37219988483881 204.8012636415305,40.83170591585534 205.59563469265035,42.13670304407924 206.03848363011102,43.074095347558384 206.24583572653876,43.72199885094934 206.7455485353377,44.47558874188493 207.45146467541838,45.56002297501548 208.54049396899603,47.00746697312839 208.84893739224742,47.36588167697893 209.6875358988526,47.912693853888605 210.12808730609075,48.19299253274022 210.2981045376332,48.372199884905136 210.76278001149976,48.87306145864469 211.20964962659485,49.43365881655333 211.59161401487736,50.18724870748892 212.31188971849576,51.257897760031334 212.84663986209125,51.960941987144274 213.73348650195425,52.838598506659736 214.14876507748437,53.39919586443144 214.81045376214817,54.09764503157657 215.14129810454855,54.51579551987009 215.5341757610677,55.10396323943431 215.50545663412916,56.3492245832837 215.62550258473115,57.507179781445366 215.71223434808658,58.18265364738203 215.98621481901174,58.54106835123257 216.56174612285994,60.287191269232345 216.97242963808097,61.2383687533681 217.33256748989018,62.11602527267815 218.02412406663854,62.85123492257849 218.82251579552977,63.64618035616862 219.57668006886718,64.51924181510003 220.93452039065798,66.04020677755935 221.82423894314528,66.44457208478543 222.35324526128457,66.83055715097626 222.40608845485255,66.8856978745613 222.8661688684068,67.38655944830086 223.3882825962178,67.86444572076346 223.88167719702182,68.21826536471467 224.5336013785265,68.87076392848425 224.89144170018062,69.34865020094686 225.03216542211098,69.77139574948208 225.34405514066452,70.24928202153386 225.69327972423602,70.85123492237094 226.1068351521509,71.77943710509281 226.48133256749892,72.66168868437066 226.79092475582675,73.43825387699403 227.03044227449413,73.98966111407692 227.09075244106506,74.12751292351882 227.61344055134637,74.96381390010586 228.1631246409488,75.88742102210674 228.79437105105885,76.99483055692505 227.80298678920914,78.50660539896946 226.82251579545914,80.06892590463109 226.41010913269028,80.68925904629799 226.20562894881945,81.53015508312671 226.06720275697572,82.02642159682999 225.80413555421876,82.99597932227488 225.64273406089268,83.63928776542414 225.61171740373058,83.76794945445113 225.40551407231192,84.61344055145308 224.82481332568324,85.26593911522266 224.69844916708522,85.40838598511168 223.92992533027854,86.27685238373293 223.23836875353018,87.06260769656579 222.5916140148744,87.80700746688105 222.04135554273319,88.43653072944217 222.36186099936614,89.03848362986841 222.54106835153107,89.46582423878226 222.572659391095,89.73693279701355 222.5640436530134,89.79207352100941 222.51234922459253,90.14129810444504 222.24870763922831,90.66513497966695 221.77771395743636,91.49684089608076 221.67777139569029,91.51522113732142 221.51751866744172,91.68523836886601 221.2343480758278,91.98851234913151 220.5393452038468,92.74210223986168 219.84549109701186,93.56921309562297 219.19126938541945,94.43308443427641 218.90580126358304,94.77311889716017 218.68753589884912,95.03963239494435 219.2429638138414,95.37966685803353 220.04537622050404,96.01378518076787 220.4342331992518,96.29867892006659 220.8328546812271,96.63871338288189 220.88742102234076,96.66628374501677 221.66283744968223,97.06145893162251 222.02584721432225,97.32337736943889 222.21596783458688,97.55772544491496 222.51349798967007,98.21941412978418 222.55657668007788,98.2929350948153 222.87995404933727,98.8489373923453 223.38541068345546,99.63009764493647 224.20620333135875,100.38828259604529 224.3153360137252,100.64560597368843 224.95404939690664,101.20160827114996 225.8006892590546,101.82653647305857 226.23205054567137,102.30901780555745 227.00057438247805,102.86961516373998 227.2917863296348,103.16829408362685 228.32337736933536,104.3538196436495 229.01838024124788,104.97415278559029 229.99885123492834,105.6266513498392 231.08156232051212,106.40321654198324 231.15393452032876,106.453762205532 231.9862148190759,106.80758184941473 232.31131533602013,107.40493968987317 232.64388282589988,107.80930499716773 233.28374497422735,108.32395175190624 233.91728891435443,109.09132682370385 233.9396898333665,109.13268236642688 234.31820792641636,109.83113153336659 234.67834577822663,110.66283744950651 234.8638713382485,111.01665709338924 235.25674899476763,111.43940264192446 236.19758759334246,112.11947156803434 237.23205054566844,112.91441700169295 237.99712808731095,113.50717978149886 238.46697300402536,113.91614014937747 238.77541642727675,114.18265364736705 237.775416427277,115.02814474416358 237.08730614589822,115.58874210234612 236.2021826536526,116.22745548525369 235.84549109700757,116.5491097071022 235.43595634693256,116.80643308426605 235.37966685813302,116.84778862698906 234.8569787478528,117.24296381359481 234.52039058006363,117.51866743247862 233.89775990803517,117.80815623174514 233.4319356691617,118.235496840659 232.60195290056961,119.14991384272426 231.933371625509,119.97242963803843 231.33946008042014,120.49626651346576 230.9080987938034,120.76737507169705 230.08328546805916,121.26364158498949 229.51924181498742,121.56691556552887 229.2240091901267,121.75990809876123 228.78920160834792,122.23319931077673 228.4135554278539,122.76622630661896 228.10281447437896,122.94543365857847 227.75473865595242,123.42791499107736 227.37277426760144,124.11257897736047 227.01378518086977,124.62722573216746 226.71280873055395,125.13268236635412 226.65020103382795,125.23377369304082 226.23205054567137,125.93681792063306 225.8104537622137,126.26766226282801 225.42619184370764,126.49282021836848 225.25387708207646,126.6720275702595 224.66226306721114,127.39345203909241 224.241815048831,127.8070074670073 223.90120620334,128.16082711089 223.42274554854404,128.59276277977168 222.89431361280654,129.12578977602473 222.68351522107773,129.38311315325706 222.52211372775164,129.6909821941751 222.35209649620705,129.99885123495616 222.22171165997457,130.31131533591045 222.0448018380332,130.81217690965002 221.9362435381371,131.19816197563543 221.67145318783227,131.63928776561673 221.468121769039,131.93796668550357 221.1367030441683,132.44801838027428 220.85582998270945,132.7972429637784 220.69557725439245,133.05916140138933 219.94658242383548,133.81275129232492 219.94543365875793,134.13900057427819 219.7214244686374,134.61688684660385 219.26019529000453,135.33371625478424 219.00344629517406,135.83457782852378 218.5887421022501,136.4273406085351 218.07466972998188,137.01091326813153 217.67949454337614,137.49798966107753 217.4124066627793,137.81045376223724 217.04709936818963,138.52728317041763 216.84721424462896,138.84893739219766 216.59678345779344,139.1384261919435 216.252153934531,139.59793222296003 216.08328546806504,139.9333716256021 215.86674325094742,140.4296381386891 215.8207926479153,140.98104537597743 215.73061458932725,141.47271682909667 215.6088454910394,141.9735784030416 215.44744399771437,142.36415852947414 215.28259620901767,142.73176335442432 215.05226881097062,143.19126938544085 214.88110281441698,143.69672601935363 214.46812176904086,144.42734060860144 214.42963813908017,144.73980470996656 214.22860425051044,145.029293509507 213.61516369903595,145.612866168898 212.73865594487086,146.14129810429313 211.8650201033322,146.9959793219154 211.23147616313662,147.5060310166861 210.99080987932322,147.69902354950764 209.89948305565898,148.81102814449918 209.3618609993696,149.77599080970236 208.8116025272273,150.96611142996673 208.37909247560148,152.15623205023107 208.35496840897312,152.21137277422696 207.95290063183364,153.10281447433056 207.5709362434827,153.83342906385226 206.98161975877244,154.93164847777635 206.6479035036782,155.60252728285508 205.96151636991573,156.6042504305396 205.07983917290275,157.5370476736401 204.8856978747298,157.74382538746062 203.95807007461516,158.44227455460575 203.12981045370788,159.16369902323322 202.5140723721457,159.65077541631618 202.08615738076156,160.17461229153807 201.82768523831476,160.6616886846895 201.80068925899255,161.69098219382417 201.60827110850437,162.76163124636656 201.2142446869077,163.68983342901998 201.1924181504355,163.8736358411527 201.15393452033678,164.2136703044473 200.8242389430824,165.06835152206958 200.22056289483444,165.7024698445985 199.7179781734101,166.11602527285575 199.61114302119876,166.19873635830177 199.2751292360864,166.60769672576956 198.62090752435813,167.64618035600387 198.20160827112403,168.2481332564301 197.52211372775832,169.1395749568076 197.19816197596012,169.60367604799737 196.7432510051853,170.09534750132198 196.04537622051046,171.1062607696953 195.45663411827053,171.680643308466 193.9758759333882,172.65479609422104 193.10855829977604,173.47271682915658 192.63756461798408,173.88167719703517 192.19931074097053,174.25847214240025 190.66570936238438,175.08098793771444 189.59965537042604,175.86674325095814 189.23951751861574,176.18839747253276 188.01091326818636,178.03101665697753 187.1797817346537,178.8167719698104 186.56346927048426,179.66226306722317 185.59103963234554,181.293509477058 185.04192992528078,181.92762779999774 184.4830557150569,182.5066053990101 184.05514072367276,183.2969557722216 183.91441700174244,183.55887421003797 183.14072372194985,184.71682940840506 182.5565766800201,185.53934520399312 181.94485927622932,186.40321654223573 180.9195864445237,187.57955198143264 179.85468121764288,188.6731763351835 179.0080413555634,189.5600229753878 178.02010338880936,190.09304997116155 177.78288340036556,190.6398621478658 176.51924181507007,192.35841470421002 176.0545663412046,192.8454910968821 174.32107983912627,194.09534750111015 173.87421022396268,194.46754738650745 173.48535324528342,194.78920160828747 172.5381964387821,195.4187248708486 171.02067777148696,196.3790924756047 170.29293509479604,197.25674899491474 168.9465824239176,198.57093624355355 168.11889718554906,199.35669155631794 166.76967260197677,200.67547386540386 165.42791499134,202.3067202754441 164.21826536475746,203.63469270535577 163.6668581275376,204.33314187229547 162.70304422741197,205.90005743813035 162.0660539919153,206.9201608268501 161.61056863867014,207.4715680643438 160.95634692701037,208.59735784026586 160.92016082713522,208.6800689259173 160.49396898336846,209.61286616874392 159.6341183227603,210.89029293490142 158.86272257325976,211.55657667973844 158.35956346929666,212.12636415854132 157.18495117744217,212.8477886271688 156.8862722572814,213.10051694429637 156.20448018376064,213.68408960375584 155.3406088454485,214.7409534747515 154.67834577831545,216.03216542218186 153.73291211943044,217.30499712809765 153.1860999426577,219.74956921303715 152.84951177486963,220.99483055702348 152.68581275125152,221.57380815603585 152.09304997130866,223.05341757597756 151.16082711088387,224.4870763926122 150.8707639287362,225.65881677184132 150.58012636411826,226.7937966683152 150.57151062610518,226.8535324524843 150.28546812186585,228.85238368726928 149.78173463529444,230.25847214217987 149.35152211375626,231.46237794351165 148.8299827685525,232.49167145312563 148.2797242964102,233.53475014353316 146.8483630097937,235.42791499111587 145.1177484204092,237.10511200453163 143.51177484207489,238.6720275703665 143.41183228032878,238.76852383687998 141.76680068922113,239.93566915566197 140.57897759904338,240.96036760482883 139.85353245257605,241.2544514647479 139.57208500864687,241.42446869581318 138.96611143017535,241.83802412413888 138.41642734057183,242.16886846612843 137.74210224005506,242.49052268790848 136.73520964959008,243.07409534750488 135.43423319927453,243.81390005716761 134.30901780582278,244.4342331991084 132.82481332563938,245.0821367027048 131.83457782879873,245.38541068324417 130.12693854103355,246.16197587586754 128.72831705912697,247.04882251579792 128.12119471564637,247.37047673737254 127.55600229749604,247.88052843173242 127.04192992536476,248.5238368750871 126.3446295232287,249.0430786903412 125.83113153370466,249.41068351529137 124.85468121779454,250.16427340595308 124.41815048826035,250.43538196438976 123.94830557154594,250.67432510058683 123.1332567489619,251.285468121428 121.89718552552849,252.0666283742246 120.81562320502225,252.87995404912385 120.36358414707821,253.1005169440118 120.08673176339074,253.23836875324827 118.99540493972648,253.6932797240231 117.46065479606278,254.4836300975085 117.0522688110653,254.6858127512927 117.05858701892332,254.89259046518168 117.11143021249022,255.13153360131028 117.18724870760795,255.26479035009964 117.70304422749247,255.44859276264322 118.06203331422414,255.73808156238906 118.29063756465487,255.97242963786513 118.20390580123203,255.9632395172448 118.06318207923321,255.95404939662447 117.88742102236831,255.94485927620954 117.56921309595892,255.95404939662447 117.38368753586751,255.9632395172448 117.11028144741267,255.96783457789732 116.73061458935373,255.98161975848546 116.34405514076215,255.99080987910577 116.01780585873934,256 115.78862722576984,255.99080987910577 115.36358414701107,256 114.97702469841842,255.99540493934748 114.67202757039966,255.98621481893255 114.41929925334057,255.9632395172448 114.22056289485745,255.94026421596786 114.09649626648299,255.91728891428008 113.97472716833207,255.898908672834 113.6002297530536,255.82538770821373 113.40953475018173,255.7886272257324 113.0941987364651,255.70132107963383 112.79092475592573,255.6186099939824 112.47960941984356,255.5221137274689 112.26306720272594,255.44859276264322 111.99080987934971,255.33371625488908 111.82079264794207,255.25100516944306 111.638139000613,255.1499138423455 111.3417576106084,254.97530155083314 111.16197587590364,254.88799540473457 110.79494543369765,254.6995979319493 110.5094773119971,254.5525560020925 110.16714531875284,254.3825387705479 109.8839747271389,254.2492820215531 109.70074669727106,254.16197587593388 109.5272831706308,254.0976450315231 109.37334865024025,254.0333141871123 109.20103388860798,253.97357840314862 109.01091326827596,253.90924755873783 108.78518093053908,253.8357265939121 108.65077541646676,253.78058586991625 108.51924181502086,253.71625502550546 108.37105112001697,253.63813900050656 108.27857553134336,253.56921309564865 108.19643882829915,253.50947731168498 108.12923607126298,253.42676622603352 108.09649626655306,253.35784032165492 108.0746697300113,253.29810453762278 108.08213670308379,253.22917863283337 108.10224009187229,253.15106260756053 108.1470419298964,253.08213670277112 108.21596783461736,252.9718552556695 108.30269959797172,252.8615738078832 108.42389431358387,252.71453187802638 108.49971280870159,252.6226306717546 108.6094198736068,252.46180356103574 108.71797817350291,252.29638138973286 108.75761056874549,252.22286042470174 108.81217690979284,252.09419873635946 108.8345778288049,252.02527283150155 108.83342906379475,251.93796668588232 108.82538770818456,251.7587593337174 108.8345778288049,251.6300976446904 108.82768523840812,251.43251005149023 108.83859850664476,251.2165422170494 108.83859850664476,251.05112004567803 108.82309017809796,250.95921883940625 108.7972429637848,250.871912693787 108.75761056874549,250.75703618603288 108.67489948309512,250.5594485928327 108.56748994827653,250.3113153360153 108.45778288337134,250.10453762178398 108.39517518664533,250.02182653613252 108.30844342329097,249.92992533027157 108.21596783461736,249.85640436524048 108.12521539349159,249.79666858127678 107.93854106839112,249.67719701287012 107.8001148765474,249.57151062573632 107.57265939112574,249.40608845463885 107.39804709940792,249.25445146454032 107.43251005166569,249.2130959216119 107.5048822515508,249.12578977599264 107.60137851806427,249.02469844903206 107.64101091330792,248.9327972429657 107.649626651321,248.88225157921153 107.63986214816298,248.84089603648852 107.60999425614582,248.78116025273025 107.55772544511663,248.74899483042213 107.42906375643307,248.70304422745744 107.3049971280586,248.6616886843236 107.18093049968414,248.63871338284125 106.94945433655957,248.62492820204767 106.39919586441727,248.60195290035992 106.04250430790808,248.60195290035992 105.68868466402643,248.58357265932466 105.44514646758766,248.56519241801553 105.28259620918402,248.56978747825724 105.11372774271697,248.58357265932466 104.93911545086223,248.61573808163277 104.68294083863898,248.67547386539104 104.45261344052346,248.74899483042213 104.20677771392856,248.85468121755596 104.03848363006982,248.9327972429657 103.87076392874879,249.02929350927377 103.70361860996759,249.1441700170279 103.60712234352152,249.2222860425061 103.47960941984596,249.34175761022806 103.36760482485522,249.4244686958795 103.21539345201145,249.52096496239298 103.1010913267961,249.57610568638884 102.85525560027071,249.68638713349046 102.67719701325181,249.77369327958903 102.23607122340853,249.99425617468236 102.03963239514789,250.1091326824365 101.59563469274664,250.34348075791257 101.40493968987371,250.43997702442604 101.22056289486092,250.49971280838972 101.02929350945028,250.53647329114494 100.86674325097819,250.55485353218018 100.71223434804888,250.57323377342084 100.48822515792833,250.60080413555573 100.27283170588932,250.63296955758994 100.15967834581997,250.63756461783163 99.9345203906208,250.6191843767964 99.74612291783662,250.56863871345303 99.58127512927898,250.50430786904226 99.23549684093797,250.36186099915324 99.00804135551631,250.26995979288145 98.87191269389614,250.2515795516408 98.78518093047329,250.23779437077877 98.67432510049055,250.22860425015844 98.55025847211608,250.2194141295381 98.40838598510821,250.19184376788255 98.298678920203,250.16427340595308 98.24066628378716,250.13670304388665 98.08271108562523,250.03561171740537 97.96840896040987,249.92992533027157 97.85180930497096,249.78288340020936 97.79264790347757,249.67260195262844 97.78403216539601,249.5898908671824 97.8093049971704,249.47960941966997 97.8782309017544,249.34635267088058 97.9913842619607,249.15336013764824 98.11315336011054,248.99253302699785 98.17174037906622,248.9327972429657 98.236071223477,248.88684663986405 98.44686961520584,248.78116025273025 98.60827110853192,248.6938541066317 98.73118897182884,248.59735784032364 98.78403216539574,248.54221711660165 98.83457782887497,248.49626651322612 98.89718552560204,248.39058012609232 98.97415278572885,248.23434807561515 99.01033888567139,248.1378518093071 99.16599655367824,247.88971855235275 99.2165422171596,247.7932222860447 99.2464101091746,247.71510626063494 99.27053417580298,247.60482481305402 99.29350947735381,247.49913842619412 99.3032739805129,247.3566915563051 99.30786904082306,247.10396323951989 99.33831131530944,246.85582998256555 99.32222860429233,246.72257323357076 99.32969557722788,246.61229178619527 99.3549684089338,246.26306720255423 99.40436530733655,245.90465249822438 99.3957495691865,245.66111430212797 99.35726593908781,245.51407237227116 99.33199310745144,245.46812176889563 99.24985640440724,245.3532452611415 99.08156232047895,245.14646754732098 98.85870189550441,244.89373923012496 98.78747846062838,244.82021826509384 98.62722573231136,244.64101091292892 98.41412981042744,244.3882825959383 98.29982768521315,244.23664560570285 98.14302125212768,244.02986789188233 97.92992533031331,243.75875933365106 97.71568064328231,243.4968408960401 97.51924181502167,243.2808730613254 97.30097645028988,243.0557151060588 96.96266513502137,242.72946582424248 96.59161401490812,242.35726593891368 96.41700172319138,242.20103388843654 96.21826536470718,242.04020677771769 96.14244686958945,241.99425617461603 95.61860999436755,241.75990809845524 95.41929925327717,241.64962665135363 95.31016657091075,241.57151062587542 95.17633543937718,241.3968983341576 95.05456634115781,241.21309592175098 94.9017805858448,240.93279724269397 94.81275129240383,240.73520964928838 94.789775990853,240.6387133829803 94.78862722570699,240.53302699591498 94.80528431933134,240.37219988478532 94.85812751289824,240.16082711051772 94.89431361290926,239.85295807001052 94.88340034460414,239.79781734601465 94.85353245258807,239.73348650180927 94.79896611147333,239.6737507178456 94.6473291211694,239.489948305439 94.57782883397815,239.40264215961432 94.53417576103158,239.34750143561845 94.44629523259967,239.20505456620873 94.36817920739533,239.0258472140438 94.32337736930275,238.86042504294633 94.31131533605704,238.71797817346814 94.33084434237523,238.41470419272335 94.3354394026854,238.30901780586345 94.30672027574687,238.2584721424516 94.28144744404096,238.1987363580771 94.39230327402262,237.79437105105643 94.43308443420794,237.56461803554816 94.44055140728044,237.5048822515845 94.41757610566113,237.42676622610628 94.36932797254134,237.33946008041855 94.25847214249013,237.17403790891024 94.13900057442584,237.00402067784495 94.0442274554602,236.77426766233668 93.90809879384003,236.4985640434529 93.74784606545454,236.1677197012579 93.64905226878598,235.9931074092662 93.48994830554757,235.73578403189697 93.36588167717204,235.51981619766156 93.26708788057196,235.2992533025682 93.22630672025078,235.18437679481406 93.2176909821692,235.10626076933582 93.23090178056093,235.04652498537214 93.26364158540781,234.97300402034102 93.27914991381768,234.89488799527365 93.28259620911876,234.83055715113673 93.26938541065964,234.75703618610564 93.21424468700506,234.60539919559628 93.13785180934856,234.4124066628432 93.00344629527622,234.10913268230385 92.9103963239269,233.91154508910367 92.7754164274538,233.64043653066696 92.55485353249632,233.20390580126974 92.51924181502407,233.11200459479255 92.43940264220342,233.0246984491733 92.25904652496097,232.84549109700836 92.05628948884339,232.63411832253536 91.82136703048619,232.39058012637048 91.69270534180156,232.28029867885803 91.58529580698297,232.1929925327595 91.41298104535177,232.08730614562566 91.18782309015367,231.9632395172512 90.90235496845312,231.8207926478415 90.64560597355415,231.71970132115482 90.27340608843076,231.59563469271188 89.92647903508175,231.46237794351165 89.66513497987263,231.34750143575752 89.4170017231237,231.21424468676273 89.21367030446736,231.0763928773208 89.08098793794287,231.00287191249512 88.83055715110731,230.86502010325864 88.49569213100402,230.6858127513676 88.26306720273342,230.55715106254604 88.03101665713855,230.42389431355124 87.86099942559396,230.32739804703778 87.71625502582376,230.23090178031887 87.55255600234258,230.12062033321726 87.30557151060165,229.9597932220876 87.10453762203299,229.83572659371313 86.88742102244508,229.73923032719966 86.70361860997106,229.66111430220073 86.45261344052828,229.53245261317375 86.20218265369274,229.39460080393727 85.91441700170124,229.2383687532547 85.65881677194722,229.08673176343007 85.44227455489916,228.97645031564375 85.16484778874138,228.84319356664895 84.84836300981029,228.70534175741244 84.62665134977632,228.62263067176102 84.15795519820794,228.4801838023513 83.98564043657674,228.4158529579405 83.71740379090237,228.31935669122163 83.51751866747864,228.2320505455339 83.22113727747298,228.08041355509303 83.0137851809083,227.97932222861175 82.93049971278656,227.9287765652684 82.85353245259128,227.85066053958477 82.79551981631239,227.75875933372382 82.78230901778372,227.6852383686927 82.75818495115534,227.57955198135346 82.75933371623289,227.46927053425188 82.77024698453694,227.35439402649774 82.83400344627307,227.16140149305997 82.94485927625581,226.899483055449 83.02125215391231,226.70649052269596 83.1211947156584,226.4124066627769 83.17863296953547,226.2377943707852 83.2136703044005,226.0356117174118 83.23032739809331,225.8288340033859 83.21596783462404,225.6542217113942 83.20275703616385,225.5852958068102 83.14129810451539,225.4106835152978 83.07409534747921,225.2820218262708 82.95232624932831,225.0752441124503 82.91269385408467,225.01550832841815 83.11717403788701,224.8638713379773 83.51751866747864,224.56519241809042 83.55829982766289,224.5238368753674 83.65192418155098,224.40436530696076 83.6737507179558,224.35381964382282 83.67489948310181,224.2481332564836 83.63986214816832,224.05054566328343 83.60769672606564,223.90809879387373 83.55313038481289,223.66456059729802 83.50660539917352,223.5129236069941 83.43193566920074,223.25560022941943 83.38943136126431,223.12693854080325 83.28489373920804,222.80068925905542 83.21481906947803,222.6260769672691 83.11143021263625,222.3825387707619 83.02929350952357,222.19873635814986 82.95807007471602,222.0792647904279 82.88225157952981,221.9689833426416 82.81619758757118,221.89546237761047 82.59563469268325,221.65651924148187 82.39804709941461,221.43136128662613 82.33946008046,221.3440551405276 82.22573233778341,221.174037908983 82.13785180928303,221.02240091895294 82.05514072370005,220.91671453161374 81.98391728889357,220.84778862723513 81.92016082708895,220.80643308451212 81.71855255611739,220.70534175734613 81.5307294658709,220.59965537021233 81.47443997713985,220.5628948879364 81.4250430787371,220.51694428456088 81.3394600804592,220.4204480182528 81.23090178056414,220.27800114843228 81.05858701893294,220.01148765085352 80.89373923037424,219.77254451472493 80.7650775416896,219.59333716256 80.65651924179348,219.4554853531181 80.49511774839891,219.24411257864506 80.26364158527434,218.9821941410341 80.06375646178321,218.72487076387029 79.86846639860012,218.79839172890138 79.6783457783355,218.50430786877692 79.5255600230225,218.26536473285375 79.36013785178808,217.99425617462245 79.19299253300582,217.75071797784133 78.94485927625689,217.44744399750738 78.90522688108172,217.36932797250844 78.82079264788243,217.20850086137878 78.7639287766126,217.0752441125894 78.65192418148385,216.83170591580827 78.53417576110434,216.3951751864795 78.41355542789402,216.11028144718077 78.3256748994621,215.93107409522128 78.17403790922666,215.5956346925792 78.07122343492472,215.2969557722815 77.9511774842521,214.9798966108801 77.82194141302978,214.6720275701675 77.71223434819197,214.46524985634701 77.59448592760705,214.20333141873604 77.55829982773297,214.0884549109819 77.53532452611367,214.00114876488337 77.52785755310965,213.91843767923191 77.48133256753769,213.58759333703696 77.39804709934748,213.30269959773824 77.35324526146032,213.19701321060444 77.27742676620564,213.04078115992186 77.21711659963472,212.96266513492293 77.13440551405174,212.90292935068538 77.07409534754929,212.8753589888244 76.94658242387374,212.85697874778913 76.7547386559928,212.83400344610135 76.52613440549253,212.83400344610135 76.46237794375853,212.82481332568645 76.41527857551087,212.80183802379327 76.38139000579187,212.77886272231092 76.3245261343851,212.7053417572798 76.20218265362695,212.52153934514706 76.05973578408029,212.26421596770933 75.8994830556948,211.9471568063764 75.72946582428716,211.6117174035289 75.573233773672,211.27627800088683 75.45720850090986,210.9638138997271 75.3452039057811,210.69730040214836 75.24181504887086,210.4307869038849 75.15852958068065,210.23779437113183 75.00804135552274,209.97587593331545 74.81562320510302,209.65881677170864 74.64560597355843,209.34175761030724 74.52039058010644,209.0246984491797 74.32854681215703,208.60195290043907 74.1998851234724,208.27570361862277 74.12521539343221,208.0551407238033 74.10109132680384,207.70591613988836 74.11659965541912,207.60482481340708 74.14187248705656,207.49913842606787 74.17576105684404,207.38426191831374 74.22056289486814,207.2647903501125 74.27455485358105,207.1591039629787 74.42734060889406,207.03503733460423 74.77426766224306,206.7455485351323 74.92992533031838,206.58931648465514 75.02986789199602,206.48822515796843 75.12234348080656,206.3779437101821 75.19241815046811,206.28144744387404 75.24066628379332,206.20792647904835 75.30959218837732,206.04250430754004 75.38885697872769,205.81275129203178 75.4623779437588,205.5462377942476 75.48765077539623,205.43136128649346 75.51292360710215,205.26593911539598 75.52613440549388,205.11889718553917 75.53245261342035,204.96726019502984 75.54049396896313,204.77886272224458 75.53475014357544,204.6088454911793 75.53072946580404,204.44342331980792 75.54164273404068,204.29178632957246 75.55140723719978,204.20907524412644 75.59333716253003,204.0896036757198 75.6817920735692,203.88282596189927 75.74152785753287,203.721998850975 75.75358989091552,203.66226306701134 75.75244112576951,203.6209075240829 75.73808156230025,203.5841470420124 75.70706490520664,203.5336013783952 75.60080413560253,203.42791499132986 75.4238943136601,203.26249281995848 75.12234348080656,202.94543365883095 74.8828259621392,202.6927053414295 74.78288340046157,202.60080413556855 74.45778288338043,202.36645605940777 74.30614589314497,202.2745548533414 74.21079839170905,202.18265364727503 74.16025272836569,202.08156232058835 74.15508328551675,202.01263641552504 74.15393452037182,201.90235496842342 74.16484778867586,201.80126364146284 74.18897185530423,201.66800689226264 74.20620333139888,201.56691556578136 74.19529006316223,201.48879954050855 74.16255025845231,201.35554279130835 74.16025272836569,201.26364158524197 74.16886846644725,201.12119471555837 74.18207926477157,200.9925330270107 74.20218265369489,200.76278001150243 74.1998851234724,200.5835726591321 74.19126938539084,200.34003446296722 74.17690982192157,200.14704192980332 74.1315336014261,199.92188397446827 74.0844342331795,199.73808156213013 74.03388856976768,199.60941987330855 73.93509477316759,199.4118322801084 73.82998276857256,199.22802986777026 73.7398047099171,199.07639287767174 73.61688684662018,198.94773118891865 73.4480183802216,198.7960941984093 73.27857553135271,198.6536473289996 73.09994256172656,198.52498564017802 72.99999999997941,198.46984491659296 72.83285468119821,198.3779437103212 72.69672601950957,198.31820792635753 72.48363009769412,198.23090178025896 72.21367030440344,198.15738081563867 71.96783457787805,198.11143021253702 71.58472142451802,198.070074669814 71.30786904089904,198.01952900619676 70.98621481911898,197.94600804143954 70.71165996551814,197.8678920157559 70.4968408960179,197.80356117155054 70.36473291216912,197.74382538758684 70.17059161399617,197.63354394000595 69.97530155081414,197.53704767376635 69.83342906380518,197.4819069497705 69.65996553709752,197.43136128663255 69.35898908678169,197.35784032160143 69.14819069505285,197.3118897182259 68.88512349229589,197.23377369322696 68.71682940843608,197.17403790898942 68.49282021831552,197.0729465820973 68.2940838598324,196.97185525561602 68.08902929349127,196.84319356658904 67.83113153365171,196.6226306717011 67.57840321659262,196.4112578976389 67.41240666281836,196.28719126926444 67.23894313617915,196.15393452006424 66.76392877661581,195.78632969531947 66.61229178644882,195.66685812739212 66.37736932802315,195.46467547353942 66.21137277424995,195.32222860412972 65.98966111435294,195.1384261917231 65.91843767947691,195.0649052268974 65.79207352101584,194.9362435381443 65.673750718028,194.73865594494413 65.57380815621451,194.60080413550222 65.49913842617433,194.50890292943586 65.43423319936171,194.40781160226987 65.34979896609396,194.26995979330727 65.23894313611122,194.0723721996278 65.16082711090688,193.88397472704796 65.09477311894824,193.60367604799094 65.06318207924738,193.42446869603143 65.08271108556559,193.27283170559056 65.10396323956857,193.19471568052316 65.18839747269939,192.93279724298068 65.25962090750696,192.6570936240969 65.35381964386427,192.39058012624423 65.43767949452587,192.19299253304405 65.49798966109572,192.04135554260318 65.57265939120545,191.88052843167893 65.66915565771892,191.66915565768522 65.7501435956845,191.5313038482433 65.84147041935012,191.4210224006624 66.0930499712632,191.2510051693917 66.32452613445625,191.15910396325685 66.51694428487595,191.1131533601552 66.71223434812644,191.0763928774 66.80758184956238,191.05341757619152 66.8931648478392,191.007466972816 66.98334290635773,190.9293509477486 67.09534750148649,190.82366456068326 67.19643882824165,190.6674325099322 67.26766226311769,190.55255600217808 67.36415852956269,190.36875358963454 67.43882825967134,190.19414129812213 67.51809304995322,189.97817346340742 67.60252728322205,189.73923032727882 67.66973004025715,189.47731188946247 67.68925904664383,189.33026995987953 67.67260195288146,189.13268236620004 67.63871338309613,188.8615738081742 67.62665134984935,188.72372199880076 67.56519241813349,188.29638139009234 67.39287765650121,187.62550258460277 67.27512923605323,187.2900631819607 67.16312464099295,187.03273980479685 67.12062033312392,186.92705341766305 66.99655370474946,186.69730040215478 66.76163124639226,186.27914991386126 66.53417576110753,185.920735209326 66.42102240090125,185.77828834012172 66.13670304427824,185.4933946006176 66.00287191274467,185.364732911796 65.8052843193391,185.19471568073072 65.33658816770223,184.81792073516021 65.17059161406705,184.6708788053034 64.68868466396891,184.28948879928578 64.3032739804538,183.99999999981384 64.25502584719706,183.9540493966437 63.81562320510597,183.59103963214065 63.53245261342356,183.3658816772849 63.08156232048859,183.00287191271337 62.63986214817394,182.65824238945098 62.09649626649796,182.2584721424666 61.81447444002896,182.04709936799358 61.70878805282669,181.97817346361498 61.596783457766406,181.90924755855167 61.41240666288843,181.8081562320704 61.23894313611228,181.7070649051098 60.92533027001197,181.51407237194593 60.81332567488322,181.44974152753514 60.44974152784138,181.25674899478207 60.11028144742792,181.0913268234107 59.7151062607537,180.879954049417 59.616312464084075,180.82481332542113 59.36932797248223,180.6961516370104 59.06547960940408,180.5353245261546 58.81734635265515,180.42044801840046 58.538196438812605,180.30557151064633 58.14761631244855,180.14014933954886 57.76507754169575,179.97932222841916 57.241815048807204,179.73118897187567 56.984491671437944,179.6071223435012 56.59735784037499,179.41872487071595 56.3411832280148,179.28087306147944 55.91211947155204,179.05112004597117 55.80011487649283,178.96840896031975 55.70246984497029,178.91326823632386 55.46524985638846,178.79379666832804 55.1964388283818,178.6743251004007 55.06203331424099,178.61918437661024 54.954623779422406,178.58701895430212 54.75244112577513,178.53187823099097 54.55829982773912,178.46754738658018 54.41355542790151,178.42159678320465 54.25215393457435,178.35267087882605 54.12234348074371,178.28374497417357 54.0740953474859,178.24238943103973 54.01148765076097,178.16886846641944 53.82596209080651,177.9161401492234 53.74497415283985,177.80585870171097 53.48477886270827,177.53475014327427 53.265939115506185,177.29580700735107 53.105686387119626,177.0890292935306 52.81160252733752,176.73520964964786 52.4032165422031,176.23434807590831 52.19471568069782,175.96783457764482 52.01206203336875,175.75646180358262 51.81792073519579,175.55427915000382 51.57668006898058,175.32452613449556 51.31533601377146,175.10855829957544 51.03963239516153,174.90637564620204 50.93624353825129,174.8236645605506 50.73233773691923,174.61688684666163 50.54968408959016,174.42848937367097 50.36128661694185,174.25387708195316 50.282021826521955,174.11602527271666 50.210798391715464,173.97817346354864 50.1533601378384,173.80356117176237 50.06892590470758,173.56002297525512 50.0338885697741,173.39000574371053 49.96496266512162,173.08213670292946 49.94256174610956,172.90752441100622 49.9437105111871,172.80183802387242 49.95060310165235,172.70534175735895 49.98334290643075,172.49396898336525 50.024124066614995,172.24583572634242 50.085582998263455,171.84147041911635 50.128087306132485,171.5106260769214 50.161401493381184,171.22573233741724 50.194141298159586,170.91786329691007 50.20390580131868,170.67432510033436 50.248133256734484,170.19643882828257 50.26249282020482,169.98966111418818 50.25330269958449,169.87937966667576 50.21194715686254,169.70017231451084 50.107409534805214,169.51177484172558 49.973578403271645,169.30040206766338 49.81102814479955,169.11659965511984 49.63871338316835,168.95117748402234 49.50143595633369,168.8363009762682 49.395749569199886,168.75358989082218 49.302699597987505,168.6938541068585 49.188397472772145,168.60654796075994 49.12176909827475,168.5560022974166 49.00172314767275,168.42734060859502 48.919586444626404,168.33084434208155 48.853532452668844,168.22515795494775 48.57265939114152,167.802412406481 48.359563469325,167.4807581849064 48.15336013783893,167.232624928089 47.985066053979125,167.01206203326953 47.91384261917156,166.9017805856886 47.742676622686375,166.64905226869797 47.53417576104415,166.3917288911233 47.20103388855716,166.03790924744598 46.976450315966304,165.81734635235264 46.83113153358885,165.6886846637365 46.692705341745125,165.60137851811723 46.57438253882684,165.5278575530861 46.48535324524891,165.43595634701975 46.256174612279416,165.17403790920338 46.13727742675388,165.0361860999669 45.79149913841395,164.60425043060593 45.6025272832258,164.24583572648152 45.457782883388184,163.96553704742448 45.36473291217581,163.78173463508634 45.22515795525454,163.57036186081874 45.060310166558885,163.34060884531047 44.92073520963868,163.15221137252522 44.73406088453608,162.84434233201802 44.65537047679297,162.75703618591947 44.37736932802903,162.58242389420167 44.154508902918614,162.47673750706787 43.97128087311817,162.41240666265708 43.676048248121575,162.30212521535003 43.08328546811025,162.05858701877435 42.68696151635955,161.88856978722976 42.34175761055624,161.72774267657937 41.971855255589006,161.55772544503478 41.67432510057427,161.4336588166603 41.15393452037957,161.23607122346016 40.91269385416437,161.15795519798192 40.60712234360684,161.06145893167388 40.18437679500316,160.9419873635411 39.84549109712953,160.85468121744253 39.59391154507844,160.8041355540992 39.39402642158625,160.78116025241144 39.190120620391134,160.7719701317911 38.90867317632503,160.7673750718233 38.704767375061444,160.79035037323717 38.437679494601554,160.84089603685442 38.187248707629074,160.8776565189249 37.93624353832323,160.9006318208181 37.66283744979992,160.92820218247365 37.42791499144272,160.9419873635411 37.18954623792137,160.95577254460855 37.03561171746236,160.94658242391975 36.87018954622686,160.93279724292077 36.70189546236813,160.9006318208181 36.55715106266639,160.86387133806286 36.32337736931826,160.7719701317911 36.08385985078783,160.62492820193427 35.85985066053033,160.44572084997478 35.59333716254074,160.2481332567746 35.32222860430946,160.04135554254327 35.239517518658005,159.97702469813248 34.886272257382515,159.71970132096865 34.753015508387726,159.61401493362942 34.246984491662296,159.20045950598845 33.767375071788784,158.8098793793505 33.422745548526386,158.52039058008396 33.09879379665973,158.20333141847715 32.861573808215915,157.96438828234855 32.70361861005398,157.76680068914837 32.56519241821025,157.56002297532788 32.43653072959409,157.3624353819223 32.29925330269096,157.0545663409358 32.23377369333957,156.8753589887709 32.12693854105976,156.5261344055407 32.033888569847385,156.23205054562163 31.946008041347,155.92418150463513 31.84491671452336,155.4371051117576 31.815048822507286,155.326823664656 31.75933371624653,155.15221137245888 31.68121769097265,155.01895462346408 31.630672027630375,154.95462377925872 31.517518667561024,154.83515221133135 31.37162550257633,154.72027570357722 31.236645605965222,154.642159678099 31.111430212513216,154.57782883368822 30.853532452605187,154.45376220531375 30.609994256166424,154.3618609992474 30.32107983916371,154.2561746121136 30.016657093616324,154.14129810435946 29.627225732329812,154.00344629491755 29.28259620906741,153.88856978716342 29.008041355603506,153.80585870171737 28.740953475076214,153.7415278573066 28.545663411824645,153.69557725441035 28.36760482487314,153.66341183230767 28.17920735208896,153.6680068924809 27.978173463519227,153.67260195272257 27.81677197019314,153.68638713379002 27.322802986850366,153.7507179779269 27.24468696151015,153.76909821944147 27.120620333134617,153.79207352085535 26.98449167151444,153.81504882254313 26.878230901841867,153.83342906385226 26.658242389492703,153.9069500286095 26.447443997763866,153.97587593326196 26.215967834570815,154.04020677767275 25.981045376213615,154.10453762208354 25.483630097638216,154.22400918980549 25.27283170590938,154.25157955187188 25.137851809297203,154.26536473273393 24.96209075243445,154.27914991380135 24.767949454397364,154.28374497418 24.396898334284113,154.27455485355966 24.088454911032734,154.26076967256068 23.823664560590984,154.26076967256068 23.27685238368131,154.24698449149327 22.842044801831914,154.2561746121136 22.542217116662098,154.2561746121136 22.41412981044777,154.27914991380135 22.319356691550606,154.32050545652436 22.092475588804664,154.44916714534594 21.88340034462367,154.57782883368822 21.732337736995458,154.67432510020168 21.682940838592707,154.69270534144235 21.63354394025843,154.68351522082202 21.608271108620993,154.6375646181312 21.628948879948265,154.60539919582308 21.723147616375126,154.5364732909652 21.87363584146457,154.44457208469342 22.02182653646847,154.34807581817995 21.760482481326747,154.37105111986773 21.480758184945433,154.36645605962602 21.23607122356607,154.35726593900569 20.901206203325827,154.3342906375918 20.61114302124664,154.31591039607727 20.412406662900462,154.2929350948688 20.174037909242163,154.27914991380135 19.89661114301593,154.26536473273393 19.548535324520905,154.26076967256068 19.338885697938085,154.24238943125155 19.082711085577895,154.21022400894347 18.788627225795786,154.15967834580553 18.635841470482788,154.11832280267168 18.323377369323072,154.02182653636362 17.91671453187344,153.86559448568107 17.66858127519298,153.7782883400618 17.371051120041304,153.67260195272257 17.038483630093086,153.55313038472676 16.943136128656086,153.52096496241865 16.676048248128797,153.44744399759296 16.306145893160487,153.35094773114795 16.036186100006745,153.27742676611683 15.7145318782267,153.19931074063862 15.269959793218202,153.09362435371023 15.048248133252724,153.03388856954112 14.894313612862184,152.97415278578288 14.828259620903559,152.93279724285443 14.711085583062815,152.83170591589385 14.404939689898049,152.48707639263145 14.240091901202394,152.29867892005163 14.12464101090949,152.17001723150395 13.921883974791916,152.00459506040644 13.747271682937162,151.88052843203198 13.630672027566716,151.80241240634834 13.382538770817787,151.63239517521458 13.234348075814955,151.51292360708183 13.132107983982248,151.41183228032665 13.053417576102195,151.29695577257252 12.94658242389085,151.13612866171673 12.818495117744991,150.97989661103418 12.759908098790383,150.89718552558813 12.653647329186281,150.782309017834 12.252728317055885,150.3733486501608 11.968408960432875,150.1344055140322 11.740953475011219,149.93681792083206 11.543365881811052,149.77599080970236 11.419299253299645,149.66570936239535 11.076967260192328,149.3762205626495 10.720275703615743,149.114302125244 10.357840321651452,148.83859850663407 10.172314761628526,148.65479609422744 10.042504307866356,148.50775416416522 9.909821941478802,148.31935669165384 9.765077541640123,148.1677197011445 9.572659391151948,147.91499138394846 9.423319931071575,147.7036186098863 9.295232624925717,147.5519816194454 9.08443423319688,147.3681792073127 9.009764503225165,147.2992533024548 8.930499712806341,147.207352096183 8.865594485925257,147.15221137280338 8.53187823096797,146.83515221147044 8.287191269451666,146.59620907534185 7.982194141432913,146.31131533604312 7.828259620973903,146.18265364701614 7.5933371626167,145.93911545064586 7.29465824238748,145.62205628951833 6.999425617527828,145.2728317056034 6.812751292427362,145.02010338861277 6.47673750717805,144.56978747849047 6.377943710577966,144.45491097073634 6.198736358413046,144.25272831688363 6.106835152209739,144.1792073518525 5.939689833427475,144.0735209647187 5.716829408452928,143.90809879362124 5.551407237218504,143.78862722562542 5.245835726592508,143.57265939097917 5.060310166569582,143.45778288322504 4.865020103456027,143.35209649609124 4.6375646180343715,143.22802986771677 4.454336588235,143.1361286616504 4.15450890292824,142.98908673158817 3.9758759335075053,142.91097070652077 3.824238943135106,142.86961516359233 3.674899483054732,142.84204480152593 3.5192418150478812,142.8236645604907 3.403790924754977,142.8282596206639 3.3004020678447286,142.83744974128425 3.35324526141163,142.95692130928006 3.047099368246864,143.0028719126556 2.7668006892583064,143.03963239493152 2.4187248708317535,143.03044227431118 2.0545663411826784,142.87880528421266 1.74612291786283,142.5847214245675 1.3383113154041275,142.1022400918632 1.0792647904185564,141.83113153363192 0.587593337163463,141.3486502007222 0.2527283170590938,141.02240091870047 0.11889718552552822,140.8248133255003 0.02010338885697337,140.33314187217564 0,140.12636415835516 0.09707064912071459,139.6990235494413 0.16944284900474885,139.51522113730857 0.2636415852957365,139.38655944848702 0.3044227456169256,139.29925330238845 0.2780011487650032,139.19816197570177 0.3911545089028247,138.6973004019622 0.4514646755422166,138.50890292917697 0.504307869109118,138.19643882822265 0.5789775990797632,138.0034462949903 0.6875358990465026,137.6909821938306 0.7524411257895748,137.55313038459408 0.7995404939676997,137.47041929914806 0.8874210224691534,137.39689833432237 1.01493394600777,137.30959218829227 1.1792073521646527,137.16255025843546 1.2751292361382842,137.04767375068133 1.348650201033528,136.92820218268548 1.4233199311421865,136.77656519245005 1.4813325675580238,136.56519241797702 1.5140723722679519,136.3078690408132 1.5186674325781173,136.17001723137128 1.4887995404935708,135.79322228580077 1.4405514072368346,135.56806433094502 1.367030442342661,135.26938541037345 1.3153360137848291,135.05801263631125 1.2515795520497568,134.8328546810447 1.2067777139561031,134.67202757012043 1.4371051120042106,134.5571510623663 1.5778288341399678,134.49282021816092 1.7983917288909608,134.3825387706485 1.9368179208716352,134.3182079262377 2.062033314186697,134.26306720265265 2.1545089029287747,134.217116599551 2.2159678345772362,134.17576105682798 2.283744974152175,134.1160252728643 2.3584147041923615,134.05169442845352 2.4307869040774657,133.9781734634224 2.497989661113634,133.90924755876992 2.536473291211269,133.85410683525336 2.6111430213199274,133.75761056853446 2.67375071804593,133.68408960350334 2.7616312464093706,133.61516369912476 2.9017805858694135,133.48650201030318 2.963239517517875,133.44055140692765 3.0218265365409547,133.41298104527206 3.111430212520707,133.39000574358428 3.192992533026142,133.3854106836165 3.2751292360703474,133.3762205629277 3.3233773693955553,133.3854106836165 3.388282596208169,133.40838598482495 3.459506031015732,133.43595634695984 3.6134405514062706,133.52326249257908 3.744974152853225,133.6243538197451 3.931648477953692,133.75301550808734 4.118322803054159,133.86329695566826 4.295232624996595,133.95979322238716 4.480758184949979,134.04250430783318 4.736358414772468,134.13900057427819 4.951751866810398,134.20792647893066 5.116599655369108,134.25387708203232 5.274554853531042,134.29523262496076 5.41929925330125,134.30901780561737 5.669730040273733,134.34118322772005 5.834577828832443,134.37794371040678 5.9408385985050165,134.40551407233625 6.039632395173571,134.4514646752325 6.145318782307374,134.50201033884971 6.271682940904323,134.57553130388084 6.4491671453855295,134.68121769074077 6.640436530796161,134.78690407787457 6.840321654219882,134.9063756460758 7.049971280871175,135.02584721400316 7.112578977597178,135.06720275693158 7.221137277561779,135.13612866158408 7.287191269451934,135.1774842043071 7.363009764569662,135.2188397470301 7.416427340675334,135.23262492830295 7.519816197585582,135.2601952897531 7.585870189544209,135.27857553099378 7.64732912119267,135.29236071206122 7.741527857619531,135.31993107412762 7.890867317699905,135.37047673726556 7.982194141432913,135.39804709940043 8.06088454910755,135.40264215957365 8.097070649187046,135.40723721981536 8.159678345776106,135.39804709940043 8.211372774333938,135.3934520387479 8.254451464741738,135.37966685815977 8.290637564615817,135.37047673726556 8.3159103963902,135.3475014360571 8.344055140720421,135.32912119474796 8.37736932797019,135.29236071206122 8.405514072369952,135.2510051693382 8.427914991382007,135.2050545663735 8.441125789842205,135.16829408389216 8.461803561169477,135.1407237217573 8.493394600870335,135.12693854096375 8.56806433084205,135.10396323927597 8.697874784604222,135.06720275693158 8.797817346350318,135.03503733489737 9.044801838158648,134.99827685214217 9.175186674322646,134.98449167148556 9.28202182653399,134.9661114300395 9.41700172321357,134.94773118879883 9.532452613506473,134.91556576649072 9.592762780008922,134.9063756460758 9.701321079835509,134.9017805856287 9.83859850667124,134.9017805856287 9.948305571576437,134.88799540504056 10.037334865017419,134.86961516373142 10.145893164845075,134.8466398621121 10.357840321651452,134.78690407787457 10.437105112071345,134.7547386559773 10.496266513495183,134.7271682939109 10.565192418216133,134.6995979322553 10.618035611784105,134.69040781163497 10.677197013207943,134.68581275098245 10.747846065545206,134.68581275098245 10.86272257329934,134.69040781163497 10.997702469978918,134.71797817329056 11.109707064903326,134.74554853535696 11.187823090243539,134.7639287766661 11.297530155148735,134.80068925873658 11.383113153357094,134.81906949997725 11.458931648474822,134.82825962080298 11.547960942052747,134.82366456062977 11.640436530726353,134.81447444000943 11.734635267153214,134.7960941984949 11.846639862145022,134.78690407787457 12.031016657158878,134.7685238366339 12.408960367669977,134.68121769074077 12.527283170588264,134.63986214822316 12.611717403787551,134.61229178615676 12.668006892654478,134.58472142450117 12.716255025843813,134.55255600219306 12.750143595631283,134.51120045947005 12.784032165418752,134.46524985609452 12.822515795516386,134.4238943133715 12.860999425614022,134.40091901209456 12.922458357262483,134.36875358978645 13.010338885694395,134.34577828837257 13.135554279214873,134.30901780561737 13.242963813896516,134.28144744396178 13.301550832851124,134.2492820218591 13.342906375711083,134.2125215391039 13.363009764499585,134.16657093620765 13.385985066118883,134.12062033283212 13.406662837446156,134.07007466948878 13.430786904074523,134.01493394569832 13.476737507243579,133.95979322238716 13.534175761121716,133.89086731732385 13.614014933942366,133.81275129232492 13.690982194206107,133.743825387467 13.774267662259383,133.67489948308844 13.86444572091485,133.61056863847224 14.005169442844121,133.51866743240586 14.107409534813772,133.46812176906252 14.218265364797581,133.41757610544528 14.291786329691755,133.3854106836165 14.34865020103005,133.3440551406196 14.431935669151798,133.2797242964827 14.506605399191985,133.20160827079906 14.626651349795054,133.12349224580012 14.724296381386068,133.07294658218288 14.848363009760531,133.0132107982192 14.955772544580189,132.9718552552908 15.06031016663431,132.93049971256775 15.172314761627188,132.88914416984474 15.269959793218202,132.84778862691633 15.357840321718585,132.8064330841933 15.419299253367047,132.76967260184892 15.524411257962079,132.7007466970595 15.673750718042452,132.61344055116635 15.883400344693747,132.47099368155122 15.996553704763096,132.37909247548487 16.136128661684367,132.22286042500772 16.27225732344149,132.12636415828882 16.421596783453392,132.0160827111872 16.603676048243692,131.92877656488324 16.835726593975515,131.84147041919553 17.14302125221782,131.7265939114414 17.468121769162018,131.58414704162084 17.621481907013788,131.50603101655344 17.687535898972413,131.4692705338667 17.723721998847566,131.44170017241655 17.77082136702569,131.4003446294881 17.80700746696824,131.34060884525056 17.81504882251103,131.27627800104517 17.842044801901725,131.19816197563543 17.866168868530092,131.14302125184497 17.906950028714338,131.10166570912196 17.96611143027619,131.06031016639895 18.052843193630558,131.03273980474336 18.14761631252772,131.00976450285017 18.280298678915273,130.97300402077968 18.453762205693554,130.92705341740415 18.63067202763385,130.8856978746811 18.842619184440228,130.83974727171642 18.999425617525688,130.8029867892351 19.13900057444589,130.78920160796224 19.27627800114361,130.78460654799443 19.399195864440532,130.78460654799443 19.524411257892538,130.77541642710023 19.614014933940762,130.76163124630665 19.67260195289537,130.72946582420397 19.73406088454276,130.6697300402403 19.796668581269834,130.60080413538242 19.892016082705766,130.49511774845402 19.975301550827513,130.40781160262935 20.079839172883773,130.3296955769457 20.19816197587053,130.26995979318744 20.370476737502802,130.1826536470889 20.572659391149006,130.09994256143744 20.718552556064157,130.04480183805782 20.85927627799557,130.0126364157497 20.963813900051832,129.96668581264805 21.02067777152707,129.9161401493047 21.106260769735428,129.83802412382647 21.218265364727237,129.73233773669267 21.322802986783497,129.6771970131761 21.434807581843778,129.62665134955887 21.54566341189499,129.5944859277301 21.62550258471564,129.5715106260423 21.721998851228044,129.5301550833193 21.80700746696824,129.47041929928716 21.94600804134967,129.36013785156928 22.156806433078508,129.20850086147078 22.37219988511751,129.1211947156461 22.524985640429435,129.07524411227055 22.615738081557343,129.04307869016787 22.7248707639227,129.0246984489272 22.834577828896368,129.0246984489272 23.038483630091484,129.03388856954754 23.182653647391394,129.047673750615 23.340608845553326,129.05686387102992 23.44801838023497,129.06605399165025 23.54164273412306,129.05686387102992 23.61171740378461,129.04307869016787 23.708213670298083,129.02929350957973 23.787478460648433,129.02010338895943 23.892590465380408,129.0109132682706 23.986214819063086,128.99712808727165 24.080413555422545,128.98793796665132 24.20333141878687,128.95577254454864 24.244112578971116,128.93739230303407 24.295807007460475,128.89603676051647 24.354968408953855,128.85008615741484 24.42734060890743,128.8087306144864 24.502010338879145,128.7765651923837 24.595634692767234,128.7443997700756 24.663411832273702,128.71682940842004 24.727168294077245,128.7030442273526 24.78001148764415,128.7076392875258 24.83285468121105,128.71682940842004 24.89431361285951,128.7352096496607 24.970706490516008,128.7352096496607 25.029293509470616,128.7352096496607 25.134405514065648,128.72601952904037 25.225732337731255,128.71682940842004 25.307869040842863,128.7030442273526 25.373923032733018,128.68925904628514 25.424468696144835,128.675473865697 25.46927053416895,128.65249856400925 25.517518667425684,128.6249282020798 25.573808156225212,128.59276277977168 25.63526708787367,128.55140723725407 25.689833429056886,128.51005169432565 25.741527857546245,128.47329121184433 25.78977599080298,128.44112578953622 25.86444572091164,128.41815048805387 25.93509477318043,128.3997702468132 26.007466973065537,128.39058012639828 26.11487650774718,128.38139000577797 26.237794371112575,128.35381964364308 26.402642159671284,128.31246410112547 26.52785755312329,128.29867892012652 26.689259046517847,128.2802986788174 26.855829982761342,128.25272831675096 26.97989661127275,128.2251579553008 27.059161401486158,128.20218265361305 27.126364158522325,128.1746122916836 27.174612291847534,128.13325674875514 27.21711659964809,128.08730614585892 27.255600229745724,128.03676048251555 27.29178632968828,127.99080987914002 27.341183228022555,127.94026421579667 27.39747271682208,127.9126938541411 27.464101091319478,127.88512349200622 27.532452613433186,127.85295807010894 27.587018954684872,127.8070074670073 27.626651349791576,127.75646180366394 27.66513497988921,127.69672601922096 27.693854106827747,127.63699023525729 27.72027570367967,127.59563469253428 27.76737507179039,127.55887420998448 27.82021826535729,127.535898908776 27.877082136695588,127.54049396874382 27.91211947162907,127.54508902919092 27.955198162036872,127.54968408936415 27.996553704759886,127.54508902919092 28.027570361921974,127.53130384812349 28.071223434938087,127.50373348646791 28.16140149345554,127.43480758161002 28.27225732350675,127.34750143599075 28.374497415270987,127.25100516927186 28.483055715097574,127.17288914420448 28.60941987362819,127.06260769648662 28.675473865587886,127.01206203334868 28.738081562312818,126.97530155059347 28.793796668642045,126.95692130935282 28.85008615744157,126.94313612869621 28.914417001715414,126.94313612869621 29.008041355603506,126.96151637000534 29.085008615798774,126.97070649042026 29.252728317118738,127.00287191272835 29.40206777713064,127.02584721414225 29.542791499130523,127.03963239500426 29.70821367043342,127.03963239500426 29.851234922518845,127.0212521537636 30.01895462383881,127.00287191272835 30.194715680703705,126.9890867314555 30.358414704254415,126.9890867314555 30.541642734051646,126.96151637000534 30.771395749560984,126.90178058576778 30.942561746183113,126.86042504283934 31.08845491096239,126.82825962094208 31.175186674317832,126.81447443994311 31.279724296371953,126.79609419863397 31.37047673749879,126.75933371594724 31.426766226297246,126.71797817322422 31.477311889710133,126.6720275702595 31.536473291271985,126.63526708777819 31.591039632386725,126.60769672612261 31.63641585301701,126.59391154505516 31.71625502583873,126.58931648481348 31.786904078107522,126.58931648481348 31.84491671452336,126.58472142443483 31.917288914408466,126.54796094167963 31.985640436590646,126.50660539895661 32.06892590464392,126.4652498562336 32.168868466390016,126.41929925333736 32.23262492819249,126.39172889120248 32.31935669154793,126.3641585295469 32.40379092474722,126.35037334847947 32.50028719126069,126.34118322785913 32.602527283230344,126.34118322785913 32.67375071796837,126.34118322785913 32.783457782874635,126.35037334847947 32.88684663985335,126.35496840892657 32.93854106841118,126.35037334847947 32.9798966111342,126.33658816761744 33.05916140148455,126.29063756451579 33.13383113159321,126.24009190117243 33.22630672040376,126.18035611693487 33.162550258531745,126.10224009173054 33.131533601369654,125.99655370459674 33.10511200465468,125.85410683518703 33.09879379665973,125.78977599077623 33.18667432516011,125.68868466408954 33.31935669154767,125.60137851799098 33.51464675472969,125.49109707041008 33.816771970123064,125.31648477869226 33.91901206209271,125.26134405490181 34.01206203330509,125.21079839176387 34.152785755304976,125.12808730590702 34.3526708787961,124.99483055691222 34.499712808721384,124.87076392874317 34.56978747851988,124.78805284309172 34.64215967840499,124.70074669699316 34.73004020676842,124.53072946585941 34.76220562900805,124.4020677771063 34.824813325734056,124.34692705311043 34.883974727158964,124.28719126935216 34.98621481912861,124.19529006328581 35.07926479034099,124.13555427884282 35.19988512348283,124.03446295215613 35.35267087879583,123.87823090167898 35.41642734059937,123.8093049970265 35.450315910455316,123.75875933347774 35.49971280878959,123.69902354951407 35.545089029284,123.66685812720596 36.01378518092087,123.43251005172989 36.2705341758883,123.30384836290831 36.407811602586015,123.2257323376355 36.47156806445803,123.25330269956497 36.519816197577825,123.23492245825584 36.62952326261997,123.1935669153274 36.758184951236125,123.13842619181084 36.854681217681126,123.09707064908781 36.93681792072533,123.03733486505567 37.01723147629017,122.97759908068116 37.05226881101824,122.94543365857847 37.09707064911082,122.90407811585546 37.140149339518615,122.848937392065 37.16886846645715,122.79379666854844 37.1958644457109,122.7478460651729 37.240091901196244,122.66973004017397 37.28374497421129,122.5824238940754 37.33658816777819,122.5043078688026 37.36415852957071,122.4721424469738 37.40781160251728,122.45376220566467 37.49684089602673,122.4399770246657 37.61975875939213,122.4307869039769 37.705341757668954,122.44457208483892 37.794371051109934,122.4767375069416 37.867892016141056,122.5043078688026 37.93279724295367,122.51349798969682 37.98966111429196,122.49511774818227 38.13153360143679,122.4721424469738 38.504882251637724,122.32050545646446 38.636415852947735,122.237794370813 38.797817346479235,122.30212521542921 39.00114876506711,122.11372774264396 39.187823090167576,121.99425617464813 39.39747271681887,121.8518093048276 39.27685238367703,121.81045376210457 39.12521539344157,121.75531303831413 39.05169442847893,121.72774267665855 39.01838024123023,121.69557725435044 38.972429638128574,121.63584147038677 38.92992533025955,121.56691556552887 38.866168868456,121.47960941990962 38.73635841469276,121.34175761046771 38.65422171178657,121.23607122333391 38.58472142445837,121.10281447454453 38.48477886271121,120.91901206172709 38.43251005175262,120.8454910971068 38.3963239517416,120.80873061462547 38.37105112010416,120.75818495128213 38.35439402641134,120.65709362411613 38.34118322801961,120.60195290059957 38.32797242969636,120.56059735787655 38.31476163123616,120.52383687512133 38.27857553129361,120.48707639284542 38.234922458347036,120.4411257894699 38.16771970131087,120.37219988509129 38.1229178634237,120.31246410085373 38.085582998266666,120.22975301520228 38.02412406661821,120.08271108534547 37.99195864451552,119.99080987907368 37.91958644456194,119.83457782859654 37.61975875939213,119.11315335996905 37.52785755318882,118.90178058590686 37.507754164263375,118.84204480153235 37.475014359621916,118.70419299229586 37.44859276277,118.6168868466766 37.3917288914317,118.46984491661438 37.07007466972013,117.65651924192052 36.839172889202786,117.068351521877 36.435381964378536,115.85066053995708 36.18724870762961,115.30384836284198 35.953475014418416,114.77082136679432 35.91269385409723,114.67432510028085 35.898334290627965,114.57323377359417 35.87191269391298,114.39862148187635 35.85468121768139,114.28374497412221 35.846639862139675,114.18724870760875 35.692130959209294,113.87478460644903 35.6214819069405,113.66800689262854 35.59103963238566,113.56232050549472 35.68121769104112,113.51177484215138 36.348650201024164,113.27283170595432 36.493394600794375,113.23607122326757 36.715106260827255,113.15795519820018 36.836875358979235,113.11200459509853 36.93394600803148,113.09821941382567 37.01148765083399,113.1028144744782 37.06892590471106,113.08443423296364 37.16197587592343,113.05226881113485 37.69040781166092,112.88225157959026 37.77599080986928,112.8638713383496 38.18437679500369,112.7949454334917 38.55198161981692,112.74899483059546 39.2481332567385,112.64790350342948 39.621481906938364,112.55600229736311 39.765077541632095,112.51464675443468 40.00229753021286,112.43653072936728 40.19643882824887,112.32165422161314 40.276852383813704,112.25272831682372 40.55140723720914,112.00459506028021 41.033314187237735,111.55427914967859 41.64158529579587,110.99368179218078 41.76680068924787,110.89259046501478 41.615163699013486,110.75014359539965 40.99483055727704,110.16657093621407 40.65249856403278,109.78977599064358 39.85755313037418,108.8661688683688 39.20620333140824,108.080413555399 38.861573808145835,107.65766800665838 38.72774267661227,107.42791499115012 38.5353245261241,107.12004595064292 38.228029867951335,106.71108558296973 38.16886846638841,106.58701895459527 38.07466973009849,106.37564618032766 37.91097070654885,106.07237219978828 37.74152785754303,105.82423894324477 37.66800689264779,105.73693279694079 37.59908098792791,105.67719701318254 37.510051694486926,105.63584147045951 37.404939689960365,105.57610568642737 37.300402067767166,105.53015508332571 37.225732337726974,105.48420447995018 36.90522688109294,105.21309592171889 36.68753589889886,104.97415278559029 36.61746122916884,104.89144169993884 36.59563469276402,104.8363009761484 36.56576680074795,104.72601952904678 36.528431935726786,104.61114302129265 36.494543365939315,104.51005169433206 36.47156806445803,104.47788627229785 36.412406662895116,104.4227455485074 36.30557151061637,104.29408385968583 36.210224009180436,104.14704192962358 35.83572659390196,103.73808156236123 35.32222860430946,103.21883974697019 35.271682940829166,103.13153360128246 35.23434807580907,103.03503733483745 35.09592188396534,102.47903503710204 35.08788052849102,102.32739804700353 35.07926479034099,102.18035611721518 35.066053991948195,102.00114876505026 35.053991958703556,101.87248707622868 35.04078116024443,101.74842044785422 35.02469844922625,101.69787478451087 34.98161975881738,101.58299827675674 34.9419873635748,101.4635267085555 34.70189546236866,100.85238368750892 34.656519241873184,100.7742676620307 34.33601378524022,100.36530729456292 34.211947156865754,100.19529006329222 34.05514072371289,99.92877656502874 33.93509477311089,99.51062607673524 33.868466398612426,99.38655944836077 33.601378518085134,98.94083859841167 33.26995979321339,98.30672027560885 33.13497989667075,98.06777713948026 33.21941412980157,98.03101665699893 33.32280298678029,97.99885123469083 33.42044801837237,97.96668581258814 33.52900631819896,97.92992533031224 33.62665134985844,97.89775990820955 33.7122343480668,97.86559448590145 33.785755313097916,97.83802412397199 33.833429063815885,97.81504882255811 33.87823090177152,97.78288340045542 33.91671453186916,97.7461229177002 33.94313612872108,97.7093624354243 33.98276852382779,97.6726019526691 34.00976450321848,97.64503159101352 34.03848363015701,97.62665134977286 34.073520965090495,97.61746122908406 34.12636415852045,97.60827110846373 34.16599655369563,97.59908098763798 34.204480183793265,97.6036760482905 34.25272831705,97.62205628932574 34.30442274553936,97.64962665139215 34.36703044226536,97.68179207328943 34.44055140729648,97.71855255604463 34.50832854687142,97.75990809876765 34.58070074675652,97.81504882255811 34.6404365307202,97.86559448590145 34.713957495751316,97.93911545093258 34.74784606553879,97.97128087303525 34.7794371051027,97.99885123469083 34.842044801828706,98.0218265363786 34.980470993672434,98.03561171717216 35.06490522687172,98.04480183806638 35.18495117747587,98.0585870186545 35.412981045435224,98.09994256178835 35.519816197578095,98.13210798368563 35.60941987369372,98.16886846644084 35.68523836881252,98.20562894871675 35.75588742101284,98.24698449143976 35.82825962089794,98.2929350948153 35.883974727158694,98.32510051691798 35.93107409533789,98.35726593922608 35.986214819059875,98.366456059641 36.1378518092964,98.366456059641 36.306720275693905,98.3618609991939 36.3813900057341,98.366456059641 36.46065479615399,98.37105111981423 36.5393452038971,98.38943136132877 36.67547386558468,98.43078690405179 36.79551981625622,98.4629523263599 36.92245835725606,98.50430786908291 37.076392877646605,98.54566341180592 37.18954623792137,98.5732337734615 37.2584721424369,98.59161401470216 37.33658816777819,98.60080413532249 37.404939689960365,98.60080413532249 37.48707639286763,98.59620907514928 37.5628948881223,98.58242389408183 37.653072946640826,98.56404365304658 37.755887421012304,98.53187823073849 37.881102814464306,98.49052268801546 37.97645031590024,98.4675473863277 38.06318207925461,98.44916714529245 38.13268236644586,98.44457208505075 38.16886846638841,98.45835726570736 38.22056289487777,98.48592762756836 38.273980470983446,98.51809304967104 38.32280298684742,98.54566341180592 38.3589890867215,98.55944859280488 38.40379092481409,98.56404365304658 38.465249856394074,98.56863871342522 38.520390580116064,98.56404365304658 38.580700746755454,98.54566341180592 38.636415852947735,98.52268811032357 38.69557725450959,98.49511774818869 38.772544514704855,98.44916714529245 38.8701895462274,98.38943136132877 38.97817346358475,98.34348075795323 39.17231476162077,98.27914991354244 39.29638138999417,98.24238943147195 39.42159678344724,98.20562894871675 39.527857553119816,98.16427340578831 39.614589316542656,98.13210798368563 39.71568064336629,98.0907524409626 39.81906950027654,98.05399195868671 39.88799540499749,98.0172314759315 39.95634692704273,97.98506605403422 40.04422745547464,97.93452039028004 40.15048822514829,97.87478460652179 40.28029867897786,97.78747846042323 40.388856978737046,97.72774267645954 40.508328546801344,97.66341183204877 40.60941987362498,97.61286616870541 40.69098219413041,97.58989086701764 40.78288340040219,97.57610568615561 40.8408960368191,97.5715106259824 40.89373923038493,97.56232050536207 40.94428489372828,97.54853532429463 40.99483055727704,97.52096496263906 41.03963239516421,97.48879954053636 41.09592188396373,97.40608845488492 41.15508328545712,97.32797242940669 41.20907524417003,97.24526134375525 41.26479035036231,97.17633543937666 41.321079839162906,97.13957495662144 41.39000574381432,97.14417001727396 41.463526708845436,97.14876507744718 41.52843193565805,97.13957495662144 41.64388282595095,97.13957495662144 41.73463526707672,97.1257897760333 41.823664560586174,97.10740953451875 41.88512349237158,97.09362435393062 41.94256174624864,97.05686387117541 41.97645031589917,97.0201033888995 42.009190120677566,96.97874784617649 42.03331418730593,96.92820218255925 42.068351522102475,96.89603676052504 42.11372774273383,96.86846639839015 42.16944284892718,96.85927627776982 42.20907524416976,96.84089603673458 42.2670878805856,96.80413555418478 42.34175761055624,96.73061458935908 42.40896036759348,96.65709362412255 42.45950603114225,96.60654796098461 42.517518667421136,96.5697874785033 42.61229178638677,96.54221711636842 42.72429638137858,96.51464675450742 42.86674325099371,96.49167145323048 42.964388282584714,96.47788627223152 43.051120045939086,96.45491097074917 43.132682366512995,96.42274554844106 43.19931074094192,96.39058012613296 43.266513497977016,96.34462952316825 43.338885697931666,96.29867892006659 43.398047099356575,96.27110855834255 43.471568064319214,96.23894313603445 43.54394026420432,96.21137277396804 43.63067202762716,96.18839747248569 43.71453187821921,96.16542217127721 43.789201608327865,96.14704192996808 43.87593337168224,96.11947156790168 43.96036760481306,96.0919012062461 44.05916140148161,96.05973578414341 44.130384836289174,96.02757036183532 44.18552556001222,96.0229753013882 44.24583572658208,96.0229753013882 44.31935669154472,96.03676048245565 44.37736932802903,96.04135554283428 44.46180356115985,96.03216542221395 44.54336588166528,96.01378518076787 44.61803561177394,95.97702469849197 44.67834577827639,95.93566915576895 44.750717978229964,95.89890867301374 44.862722573221774,95.8483630096704 44.984491671441155,95.77943710501792 45.0867317634108,95.70132107960816 45.1240666284309,95.65077541647022 45.191269385467066,95.54968408950965 45.26593911543878,95.45778288344329 45.33371625501479,95.37966685803353 45.39402642158464,95.32452613424307 45.437105111992445,95.2969557725875 45.49971280871844,95.28776565196716 45.584147041986206,95.2969557725875 45.681792073508745,95.31993107400137 45.75186674330724,95.34750143593084 45.83342906381267,95.38885697865386 45.88282596207848,95.40723721968911 45.94428489372587,95.44399770244432 46.01780585868852,95.46697300406362 46.10224009188887,95.48075818472023 46.19356691555341,95.48994830534056 46.291211947144426,95.4715680640999 46.33486502015947,95.46237794368498 46.38770821372637,95.43021252137687 46.44572085014221,95.38426191820675 46.50086157379572,95.35669155634577 46.54049396897089,95.35209649630949 46.614014934002014,95.35669155634577 46.688684663973724,95.36128661699829 46.77771395748318,95.35669155634577 46.85525560021722,95.32452613424307 46.98391728890185,95.26938541045261 46.85755313044078,94.989086731601 46.73923032738555,94.75014359547241 46.65249856416812,94.5755313037546 46.49856404370911,94.27685238359385 46.155083285455774,93.67489948275677 45.917863296943494,93.31648477863234 45.46984491677191,92.63641585272788 45.224009190108525,92.27340608822482 45.01665709361232,92.00689259044064 44.92188397471515,91.9241815049946 44.7363584147607,91.73578403220935 44.389431361274745,91.35898908663886 44.218265364721084,91.16140149343869 43.78345778287169,90.6191843767707 43.375071797805745,90.13670304427181 43.156806433142435,89.93452039041912 42.809879379655406,89.52096496257272 42.744974152842794,89.40608845481859 42.55944859281987,89.1303848361402 42.430786904203714,88.94658242380206 42.15221137283147,88.5835726595044 41.9816197587481,88.35381964399613 41.87765651923061,88.23434807558948 41.658816772027464,88.05973578407709 41.128661688742135,87.60482481302836 41.02986789200618,87.48535324530641 40.95404939688738,87.33371625479707 40.88052843192474,87.2418150485253 40.69959793221197,87.04422745532513 40.383113153349335,86.69040781164782 40.01091326822594,86.36415852942066 39.417001723137076,85.90924755885123 38.8133256748891,85.46352670883367 37.906375646238686,84.81562320482647 35.688684663976666,83.16140149337235 33.852958070134086,81.55772544519313 32.97357840320665,80.61573808147229 33.09994256173727,80.26191843758956 32.38311315342102,79.49913842623906 31.44744399769406,78.73176335430449 30.325674899611887,77.96438828250689 29.518667432502156,77.41298104521857 28.751866743244385,76.92590465254646 28.51292360711472,76.69155657638566 28.20448018386334,76.47099368170315 27.813325674892045,76.2550258470569 26.892016082772365,75.72199885100926 26.453187823150504,75.41412981050206 25.499138426253495,74.70189546228949 25.124641010906547,74.3894313613352 25.067777139568253,74.39862148195552 24.711659965530437,74.67432510056544 24.74037909246897,74.8397472717314 24.769098219407503,75.0832854678278 24.776565192481065,75.25789776002492 24.72085008615077,75.47386559446574 24.629523262555775,75.64388282601033 24.458357265932573,75.82768523814306 24.217690982256137,76.09419873613264 23.93337162549725,76.43423319922182 23.764503159097607,76.5628948880434 23.641585295800684,76.63641585307451 23.561171740441264,76.76967260186389 23.51751866749469,76.89833429041158 23.514072372262067,77.1464675474344 23.55370476736877,77.6978747845173 23.409534750137336,77.48190695007646 23.110855830043988,76.99483055692505 22.8770821367654,76.48937392301228 22.773118897179433,76.34692705312327 22.638139000636798,76.20448018371356 22.12406662836858,75.71740379104145 21.465249856468166,74.94543365859131 20.751866743313926,74.09534750141614 20.194141298099137,73.34175761027514 19.618609994250928,72.77656519212479 18.841470419362686,71.87593337153781 18.204480183866014,71.20964962649536 17.592762780075255,70.56634118314068 16.725445146531545,69.64732912110762 16.047099368242318,68.90292935079236 15.245835726589833,68.227455485335 14.737507179776722,67.6806433082199 14.490522688174877,67.39115450895338 14.170017231540845,66.86731763332064 13.78862722572865,66.37105111995973 13.569213095918254,66.1918437680687 13.315336013782689,65.97587593314856 13.194715680776723,65.87478460625645 12.937966685809291,65.43365881648059 12.396898334287322,64.92820218277322 11.506031016654017,64.24813325666334 10.89890867317342,63.55887421013854 10.073520965028443,63.094773118674894 9.408385985132009,62.77771395754737 8.456059735918714,62.547960942039104 7.630672027568321,62.244686961499724 6.638139000572607,61.97357840326844 5.750143595701626,61.81734635279129 4.777139574955644,61.76220562900083 4.202757036184976,61.775990809794386 3.2630672027561634,61.85870189551431 2.918437679493763,60.889144170069414 2.9511774842721628,60.81562320483288 3.2245835726585286,60.080413555411845 3.5531303849038225,59.17059161379369 3.9747271683614924,58.38483630075542 4.0160827110845085,58.12291786334988 4.130384836299871,57.43825387706677 4.099942561812428,57.32797242969128 3.840896036827927,56.275703618457996 3.8121769098893936,56.10109132674019 3.805284319355674,55.85295807019667 3.8098793796658392,55.11315336005464 3.889144170084663,54.35956346939294 3.9666858127491613,54.0746697298888 4.121769098218311,53.5186674323588 4.254451464674336,53.0729465824097 4.331418724868535,52.80643308435164 4.541068351520899,52.54910970677696 5.012062033312847,52.020677771381834 5.151636990302591,51.82768523814948 5.381964388349629,51.53360137823042 5.950603101664118,50.798391729014796 6.0000000000668665,50.69270534167558 6.1309592188381075,50.375646180068756 6.179207352094844,50.24238943127938 6.9161401493386805,48.75358989064886 6.950028719126149,48.60195290041341 7.369327972496139,46.91556576658272 7.6019529006297875,45.39000574395019 7.839172889142073,44.95807007458923 8.18839747271357,44.11717403796592 8.22343480757965,43.11085582990277 8.18839747271357,42.90407811608227 8.139000574448833,42.669730039921475 7.899483055781465,42.5364732911321 7.901780585868076,42.34348075789974 7.97415278575318,41.72774267640605 7.909247558940566,41.42446869586667 7.77656519241607,40.77197013209708 7.550258472208899,39.98621481885339 7.439402642157688,39.64618035624351 7.351522113726846,39.49454336573417 7.176335439469194,39.17288914415954 7.048822515930578,38.929350947583835 6.940264215965978,38.736358414830775 6.681792073519178,37.67489948311411 6.65766800689081,37.54623779436101 6.673176335437618,37.47271682953531 6.785180930566369,37.06375646186212 6.6875358989068845,36.461803560956575 6.6369902355635375,35.96094198742244 6.820218265362909,35.69902354960607 7.00057438260537,35.602527283161066 7.536473291278403,35.32222860430946 7.876507754230638,35.14761631252317 8.221137277493039,34.96381389997961 8.412406662904742,34.858127512640394 8.550832854746332,34.74325100488626 8.726593911542755,34.568638713373865 9.141298104535178,34.196438828182 9.284319356689073,34.04939689811977 9.535324526131856,33.851809304919605 9.754164273403479,33.690982194063814 9.865020103386218,33.589890867103236 10.09994256174235,33.41527857538542 10.275703618607245,33.30959218845704 10.598506605396361,33.139574956980915 10.832280298676023,33.01091326815934 11.299827685235346,32.74899483034298 11.453762205625885,32.661688684449835 11.651349798962995,32.468696151696776 12.235496840892765,31.453187822944823 11.81906950028403,31.053417575891967 12.085008615733779,30.887995404794484 12.33601378517763,30.681217690768573 12.506605399193589,30.534175760911754 12.619758759398813,30.37794371022919 12.738081562317099,30.184951177407658 12.820218265429776,30.0011487648641 12.911545089094313,29.826536473351705 12.960941987360117,29.67030442266914 13.000574382535294,29.50488225157166 13.024698449163662,29.28891441706236 13.062033314183756,28.884549109425453 13.095921883971224,28.691556576603922 13.13440551406886,28.585870189538593 13.19356691563071,28.493968983403757 13.279149913907538,28.406662837373673 13.385985066118883,28.342331992962887 13.492245835722985,28.310166570654786 13.59678345791619,28.29638138979276 13.717403790921088,28.319356691275114 13.854681217755749,28.374497415270987 13.987363584143301,28.461803561095657 14.101665709358663,28.544514646815575 14.215967834574027,28.61344055119417 14.325674899479225,28.67777139581037 14.461803561236344,28.732912119600826 14.557151062673345,28.746697300188963 14.662837449806078,28.746697300188963 14.805284319351662,28.75129236063607 14.9253302699558,28.737507179568635 15.090752441121753,28.75129236063607 15.40493968989778,28.829408386045827 15.576105686382968,28.875358989010536 15.751866743246792,28.916714531733554 15.882251579547734,28.939689833421323 16.0063182079222,28.939689833421323 16.131533601373132,28.925904652353882 16.261344055204844,28.889144170077977 16.408385985061667,28.83859850666616 16.551981619754333,28.769672601671317 16.708213670299955,28.70534175746595 16.80011487650326,28.64560597350227 16.871912693849595,28.585870189538593 16.92877656518789,28.51234922471289 16.968408960363067,28.411257897546893 16.99597932222406,28.33314187254797 16.998851234986383,28.176909821865404 16.989086731827282,27.956346926977467 16.986789201603727,27.758759333777302 17.00574382538316,27.65766800681672 17.02871912707093,27.53819643868395 17.06490522687761,27.427914991308455 17.1361286616841,27.31303848355432 17.205628948943822,27.20735209648899 17.32050545669796,27.055715105979647 17.44686961515903,26.92705341736349 17.577828834067216,26.7983917288158 17.709362435376157,26.69730040185522 17.874210224072883,26.591614014995304 18.052843193630558,26.49052268782931 18.1740379092427,26.435381964518154 18.37277426772582,26.366456059454844 18.585295807002495,26.30212521545489 18.78518093056316,26.256174612353234 18.962090752504526,26.224009190045134 19.14761631252745,26.201033888357365 19.574956921372827,26.155083285392653 19.757036186231602,26.145893164566907 19.92073520964323,26.122917863084552 20.11028144750709,26.118322802911333 20.32567489954716,26.109132682291 20.494543365876197,26.09534750122356 20.65422171165444,26.076967260188315 20.74956921309037,26.058587018947655 20.8397472716763,26.021826536192446 20.9448592762724,25.948305571366742 21.071223434801947,25.838024124059718 21.184376794939766,25.74152785734083 21.28948879953587,25.677197012930044 21.397472716892157,25.640436530859553 21.561746122912098,25.60367604810434 21.829982768517997,25.557725445208103 22.133831131527682,25.488799540350207 22.33256748994233,25.42906375638653 22.522688110342827,25.355542791355415 22.709362435443293,25.29580700759715 22.90465249855792,25.222286042566033 23.029867892078396,25.167145318570164 23.12119471574293,25.112004594779705 23.23090178064813,25.020103388713345 23.314187248702474,24.941987363714418 23.422745548597533,24.850086157168754 23.605399195995076,24.721424468826484 23.705916140279943,24.657093624415698 23.840321654215334,24.592762779799493 23.966111430206112,24.556002297455116 24.24641010919467,24.496266513286024 24.406662837443214,24.454910970563006 24.5238368754209,24.43193566908065 24.38770821366378,24.33543940263565 24.186099942555277,24.206777713814077 23.98161975875292,24.08730614581825 23.813900057431884,23.98621481892614 23.642734060946697,23.898908673238417 23.45491097070022,23.802412406793415 23.24066628380723,23.692130959007088 23.099942561739944,23.614014934008164 22.98391728890827,23.52670878790961 22.903503733480377,23.45318782287849 22.773118897179433,23.34290637577688 22.666283745036562,23.27398047071357 22.5818495117688,23.218839747402416 22.483055715100246,23.186674325094316 22.362435381958406,23.16369902361196 22.2073520965588,23.12234348068353 22.031591039626502,23.076392877513403 21.816771970126272,23.039632395237497 21.653072946576632,23.012062033102616 21.42561746122345,22.96611143020638 21.296381390000047,22.938541068276916 21.141298104531966,22.91097070621051 21.012062033308567,22.89259046517526 20.826536473285643,22.86961516348749 20.62894887994853,22.842044801831914 20.5002871912639,22.814474439697037 20.388282596272095,22.78690407804146 20.225732337799993,22.74554853531844 20.122343480752804,22.71797817338898 19.99827685237834,22.672027570287327 19.91958644463523,22.635267087942946 19.804135554342324,22.58931648484129 19.683515221200484,22.520390580188813 19.52556002303855,22.433084434158726 19.393452039052825,22.350373348712694 19.209075244107442,22.230901780306038 19.063182079259693,22.14359563461831 18.935669155652604,22.074669729828887 18.73463526708287,21.968983342695083 18.601952900695316,21.89086731769616 18.473291212009617,21.812751292217936 18.35037334864529,21.734635267219012 18.238368753653486,21.651924181567562 18.093624353814803,21.52326249274599 17.838024124061857,21.265939115582146 17.70304422751922,21.114302125072804 17.53245261343586,20.893739230184867 17.422745548530663,20.732912119534493 17.33831131539985,20.608845490886143 17.24411257910993,20.503159104026228 17.17690982200529,20.43882825961544 17.10798391728434,20.365307294584323 17.063756461799,20.328546812239946 17.020103388852426,20.2871912691061 16.944284893734697,20.22286042510614 16.879379666922084,20.14933945986961 16.820218265360236,20.08960367590593 16.75416427346901,20.029867891942253 16.666283744969697,19.94715680649622 16.59391154508459,19.88282596188002 16.53130384835859,19.827685238089565 16.4566341183184,19.754164273469275 16.381964388346685,19.69902354974729 16.311889718548194,19.643882825956837 16.23951751866309,19.58414704199316 16.16140149345875,19.519816197582372 16.114302125279554,19.478460654859354 16.029867892012867,19.40493968982824 15.909821941408726,19.33141872479712 15.796668581270904,19.271682940764972 15.550832854677058,19.18897185531894 15.264215967830495,19.106260769462075 14.93279724296089,19.00516944256997 14.705341757606636,18.931648477744265 14.537622056285601,18.87650775395381 14.331993107405701,18.825962090610464 14.130384836297196,18.7754164270617 13.914991384258197,18.734060884338685 13.742676622626997,18.706490522683108 13.58357265938752,18.678920160548227 13.441700172311167,18.64675473844554 13.334290637561052,18.61918437658455 13.197013210794863,18.57323377361984 13.086157380813193,18.531878230691408 12.974152785820314,18.48592762779517 12.83342906375303,18.412406662764052 12.67892016082265,18.315910396045165 12.538196438893378,18.210224008911364 12.402067777136258,18.095347501157228 12.197013210795129,17.92992533005975 11.933371625499394,17.695577254515204 11.711659965533915,17.470419299043215 11.49109707064598,17.23607122349867 11.341757610633007,17.093624353678127 11.173463526774272,16.873061458790193 11.012062033448185,16.67547386538461 10.839747271816986,16.450315910528868 10.730040206774843,16.33084434212221 10.614589316550411,16.21137277440027 10.466398621616051,16.087306145957335 10.20964962664862,15.903503733208362 9.919586444638973,15.724296381248857 9.6748994831216,15.577254451186622 9.448592762777484,15.448592762844351 9.242389431358815,15.342906375710548 9.029293509543368,15.246410108991661 8.80528431942174,15.177484204613068 8.613440551473404,15.122343480822613 8.429063756459549,15.05801263620641 8.26651349798745,14.984491671175293 8.172889144236303,14.929350947795667 8.070649052266653,14.851234922385913 7.985066053990892,14.777713957560211 7.907524411255783,14.690407811461654 7.848937392301175,14.61229178646273 7.790924755885337,14.492820218056073 7.723721998986113,14.341183228026033 7.660539919652868,14.184951177548882 7.611717403789958,14.0516944282802 7.560597357906771,13.936817920526067 7.50775416433987,13.775990809875696 7.461803561168675,13.656519241674452 7.391154508902022,13.537047673747097 7.255025847212305,13.362435381755398 7.141872487074482,13.183228029795893 7.040206777712075,12.981045376217091 6.763354394025683,12.434233199102 6.422745548533607,11.75416427319753 7.08730614589127,11.933371625362449 7.623205054701246,12.080413555219268 10.838598506672042,12.93509477284155 12.716255025843813,13.440551407233626 14.72659391154115,13.964388282660947 16.67719701320634,14.483630097435743 18.110281447507624,14.869615163421159 18.867892016077665,14.970706490313269 20.86042504307311,15.443997702191828 22.36990235502983,15.917288914481215 23.782883400338267,16.068925904511257 25.49684089602994,16.349224583362872 27.112004595053058,16.52383687535457 28.65307294657476,16.762780011483166 29.437105111996722,16.896036760272548 32.94600804134673,17.488799540283875 34.29408385984042,17.801263641649005 35.982768523896794,18.242389431219465 38.04480183808242,18.858127512713146 38.91786329694536,19.046524985498397 40.344629523251704,19.414129810448568 40.95519816203339,19.50603101651493 42.10281447442872,19.93796668587589 43.27512923606072,20.195290063039735 44.89144170016031,20.705341757399616 46.28661688683533,21.10970706483111 47.28374497420861,21.367030442268838 47.84147041928646,21.578403216536447 48.52326249287571,21.757610568427477 49.895462377930365,22.13440551399798 51.168868466384936,22.52498564022509 52.30097645030085,22.805284319076705 52.63699023548276,22.947731188897247 53.02871912692436,23.113153360268612 53.65134979895176,22.488225157880713 54.188397472702334,21.946008041418146 55.25904652497193,20.507754163994033 55.76622630670536,19.79551981598688 56.92992533025473,18.343480758111575 57.4807581849358,17.736932797032804 57.748994830541704,17.424468696078506 58.46927053422859,16.647903503729033 58.626076967244515,16.560597357630478 59.322228604303035,16.17461229164506 61.40723721997209,15.448592762844351 64.02354968407248,14.616886846430537 64.86214819067766,14.41470419305715 67.13497989659318,14.060884548900532 69.59506031014796,13.665709362500198 70.49224583570773,13.532452613299988 71.19586444570074,13.431361286613294 71.99942561744197,13.316484778859161 74.34577828838862,12.944284893667296 76.03905801261608,12.691556576745146 76.77311889723346,12.562894887923573 78.32222860422948,12.328546811968197 79.41700172312638,12.158529580697495 81.08271108556131,11.910396323880095 81.7214244686743,11.818495117608316 82.16944284891541,11.72199885130026 83.84147041927577,11.386559448726661 85.76163124645564,10.913268236642686 86.29867892020621,10.720275703410328 86.78403216539895,10.476737507313922 88.76565192415777,9.860999425614823 91.5784032165862,8.592762779872245 93.13095921881484,7.912693853967776 96.92877656523389,6.543365881743918 97.01435956344332,6.529580700744951 98.23090178062807,6.235496840825897 100.15336013782502,6.502010338610072 101.02814474437275,6.603101665776068 102.00229753019627,6.704192992462762 102.99138426189089,6.410109132543709 104.53360137849013,5.946008041285481 106.61114302122364,5.275129236069812 107.93509477309003,4.870763928569847 109.40206777717879,4.470993681790878 110.2222860426107,4.199885123559595 112.86157380812604,3.437105112003676 115.42159678342584,0.7949454336586042 115.55887421026158,0.7765651923494711 116.6019529006691,0.6570936242167005 118.20735209646465,0.4595060310165342 120.07926479031826,0.25732337716384396 123.39460080417102,0.26191843761095274 125.477311889685,0.24813325654351326 126.70706490532993,0.2757036184045053 129.45491097067188,0.27110855823128344 130.64732912115977,0.2757036184045053 132.00689259042994,0.33084434219496117 132.17001723144082,0.33084434219496117 133.20562894891174,0 134.0574382539097,0.2894887992665296Z"/></svg>