<svg xmlns="http://www.w3.org/2000/svg" width="256" height="256"><path d="M71.96443782419928,2.3236437267584282 73.97826238723603,2.895617567147564 74.90771987786837,2.69304349814372 75.917611189983,2.192566388513482 76.59385109484886,1.7635860076889383 77.13901366146975,1.1677799239502549 78.0625130912647,0.7864640307126258 78.48851444131543,0.5958060837386832 78.97409639938489,0.3693997713852914 79.70097982154608,0.7626317866528223 80.14783438435009,1.1677799239502549 80.5053180345933,1.3584378703915054 80.64533246444947,1.4656829658195967 80.78236786370935,1.3941862352382624 81.18155793981428,1.5729280614252517 81.39009006912282,1.656340912260847 81.72672050643517,1.811250494565597 82.0901622173382,1.9780761981899921 82.48935229344312,2.0614890495582796 82.68596830107688,1.942327832810543 83.15367607698931,1.8589149807319993 83.31156468900251,1.5610119388626578 83.71671282594481,1.1081993159315147 84.31251890968349,1.382270114451309 84.73256219889683,1.6086764255617525 85.02450717975123,1.6682570337580567 85.28964088719249,1.7635860076889383 85.63818744617963,2.013824562326493 86.13568552627899,2.3832243349547326 86.78809318761772,2.7526241063400243 87.30346545005168,3.014778783895301 87.66988619155097,3.253101217035646 87.89927153379037,3.503339771673201 88.092908511183,3.265017338532856 88.47422440459819,3.145856121607555 88.70360974701515,3.014778783895301 88.91809993698351,2.919449810497112 89.11173691437615,2.859869201235423 89.32622710434451,2.836036958418568 89.52880117281566,2.859869201235423 89.71350105877465,2.931365931816757 89.95778155328507,3.086275514121507 90.91107128726698,3.741662205346238 92.51081062192777,4.873693765337556 92.56443316964182,5.433751483164098 92.54953801754836,5.743570647596034 92.75807014667933,6.220215513876724 92.75807014667933,6.553866921125515 92.74615402500456,6.9828473012398025 92.61805571700073,7.304582586458691 91.51879349268043,8.198291712066716 90.65487467108177,9.09200083767474 90.10673307421975,9.175413689753285 89.88032676239905,9.592477948370362 89.4483673516885,10.140619544877259 88.87341448070312,10.533851560855046 88.01247468970071,10.819838480161794 87.5656201268967,11.153489887410585 86.45146275030537,11.653966998106206 86.2518677122529,11.856541066577359 86.12079037400795,12.4165987844039 85.97481788331442,12.857495287080782 85.56371168571229,13.10773384225103 84.68787674243886,13.572462587034511 84.23804314921615,13.870365628903853 84.1605883585077,14.299346009728396 84.28570763609281,14.621081294947285 84.75341541182769,15.26455186485237 84.65212837741454,15.872274071153647 83.1328228638809,17.385621523849903 82.94812297792191,18.00525985040544 82.39998138088232,19.125375288189293 82.26592501204111,19.4113622082063 82.11101543044663,19.69734912857843 82.11697349110645,19.88800707448699 82.17059603864293,20.18591011635633 82.03058160896434,20.305071333814322 81.91737845305398,20.328903576631177 81.66713989823887,21.663509204916085 81.36625782577327,22.473805478445566 80.98196290176182,24.48763004183744 80.8062001070589,25.51241650586798 80.44275839580075,26.5014546043415 80.6870388901336,26.525286847691046 81.61649638094352,26.739777037481844 83.27879535457444,27.097260688080183 83.29071147624921,27.192589662188627 83.24900505020995,28.276956734060338 83.59457257877838,28.431866315832398 84.47934461313032,29.71880745617526 84.85470244606326,31.244071030901416 85.06919263603162,32.70975399743127 84.94109432820537,34.49717224864732 85.3045360391084,35.43854586042175 84.75341541182769,36.28459049986337 84.1695254495862,36.73740312279451 83.51711778789235,37.3332092065332 83.10601159029022,37.368957571912645 103.51832801899994,47.31891917034866 105.85984592809297,48.01005422766309 107.56980938860056,48.355621755698834 108.47841366647961,48.54627970267278 109.02655526316407,49.618730653224844 110.67395908487909,51.23932320152675 113.12868014988247,53.956198943552714 113.66192659465102,54.58775339160546 114.86545488380317,56.55391346829824 117.98152070175648,58.686899248260296 118.15728349663695,58.71073149160984 118.7352153976859,58.42474457159284 119.50380524570882,57.93618358221686 119.99832429521192,57.62636441902787 120.5971094093693,57.25696464746502 121.21376870639396,56.863732631664796 122.4083599039349,56.08918472351476 123.62082528452068,55.35038517950123 123.83233644424791,55.195475597906736 124.30898131106129,54.897572556037396 124.64561174837365,54.528172783409154 125.37547420095353,53.455721832857094 125.67337724282288,53.11015430482134 125.8282868247725,53.133986548170896 128.40216910634604,53.53913468493563 131.82507505760233,53.860869970154525 134.39597830911234,54.43284381054366 136.35320129401634,55.12397886714784 138.8704819976347,55.71978495088652 140.70854376596856,57.39995810667448 141.10773384225104,57.74552563577561 142.6210812949473,58.92522168193333 143.10964228379058,59.16354411454098 143.76502897572556,59.29462145331862 144.58128331026998,59.37803430486447 145.45116019270603,59.401866548214024 146.63979332958715,59.652105103384265 147.07473177071637,59.75935019827967 147.33092838672403,59.783182441629215 147.9982312006889,59.818930807541356 148.28123909046477,59.87851141573766 150.49465869155398,61.07012358321503 150.8878907068215,61.48718784129941 151.03982125817487,61.63018130157426 151.42411618218634,61.9757488301427 151.53434030767798,62.10682616838764 151.8679917143941,62.48814206180283 152.15993669542604,62.79796122623477 152.72595247515534,63.429515674642644 152.94937975655736,63.59634137773435 153.4498568667203,63.83466381211765 154.01289361585333,63.882328298284044 154.52528684804616,63.83466381211765 155.16577838788768,63.5725091343848 155.6513603461347,63.286522214545364 155.9343682359106,63.155444876300415 156.18758582149954,63.07203202475456 156.31568412968093,63.02436753734521 156.77743384440083,62.964786929859166 157.37323992813953,62.97670305064612 157.69497521335842,62.97670305064612 157.96308795121837,62.88137407778062 158.15076686759608,62.70263225212633 158.30269741912699,62.428561453606534 158.46356506155888,61.844671491365055 158.50527148724302,61.65401354492381 158.6035794910599,61.14162031273098 158.7227407079852,60.53389810802778 158.80913259012732,60.24791118712295 159.38408546075757,60.93904624425982 159.96499639258036,61.53485232799851 160.68592175408173,62.22598738531294 161.1655456513138,62.78604510367218 161.59452603142807,63.33418670071177 161.96392580352364,63.655921985930654 162.5299415828978,63.87041217625414 163.0185025717411,64.13256685398699 163.5308958035788,64.41855377329374 164.49014359839808,64.51388274669192 164.29650662136058,65.02627597959501 164.35310819913818,65.3480112648139 164.59738869347106,65.86040449647403 164.83869015738523,65.7293271582291 165.50301394075385,65.3956757509803 166.40268112719926,64.84753415340802 167.3112854050783,64.63304396361723 169.0003956524775,64.50196662537228 169.42937603259176,64.47813438202273 170.04007726842391,64.52579886818913 170.15923848517167,64.51388274669192 170.26052551940722,64.84753415340802 170.3528754625643,65.1096888304306 170.45416249679988,65.09777270911096 170.85633160314592,65.09777270911096 171.24956361841345,65.1335210744904 171.5861940557258,65.2169339258587 171.6755649682866,65.32417902146435 171.83941164131474,65.4552563597093 171.97048897973724,65.58633369795425 172.0002792839242,65.91998510520304 172.05985989229805,66.13447529499383 172.14625177444017,66.28938487658833 172.16114692653363,66.44429445818282 172.2415807480159,66.61112016127453 172.3875532385319,66.71836525670261 172.57523215490957,66.81369423081107 172.77780622320316,66.86135871697746 172.94463192665,66.96860381240555 173.1591221169735,67.195010123516 173.21870272534736,67.2665068542749 173.31998975958294,67.39758419198715 173.3885074590353,67.5405776527947 173.47787837159612,67.98147415476132 173.8860055389571,68.41045453505316 173.92175390398145,68.55344799515045 174.01112481654224,68.72027369770946 174.169013428733,68.863267158517 174.37158749720416,68.922847767246 174.52351804873507,68.93476388803295 174.7856727255801,69.43524099890614 174.95547745926805,69.49482160763513 175.12826122355227,69.59015057996794 175.31891917052621,69.72122791874558 175.4827658433768,69.85230525699052 175.6615076684984,70.01913096061492 175.85216561547233,70.07871156881123 176.0994251402239,70.11445993472337 176.3407266039605,70.12637605551032 176.58798612871206,70.17404054220941 176.7488537713215,70.26936951578517 177.1778341517909,70.38853073324316 177.38040822026207,70.4123629765927 177.57404519729957,70.40044685403011 177.86896920875023,70.31703400248426 178.1013335814083,70.15020829885987 178.22645285899344,70.01913096061492 178.4260478970459,69.80464077029143 178.64649614820675,69.67356343204648 178.88481858152468,69.70931179742593 179.19463774506877,69.81655689285402 179.43593920898294,69.84038913567088 179.83512928526542,69.84038913567088 180.0734517187609,69.88805362183729 180.1747387528189,69.91188586518683 180.46966276444712,69.98338259576816 180.6335094372977,70.0667954478467 180.86587381013337,70.13829217754022 181.27400097749435,70.26936951578517 181.48253310662534,70.40044685403011 181.66425396216562,70.48385970557597 181.87576512189287,70.53152419227506 182.01577955157146,70.63876928823584 182.32559871511558,70.75793050462845 182.70691460870833,70.96050457345473 182.90353061651965,71.00816906033138 183.04652407643937,71.13924639857633 183.1329159585815,71.25840761532407 183.3563432399835,71.58014290072053 183.46656736547516,71.72313635975243 183.57977052138548,71.90187818593941 183.79426071170897,72.02103940162176 184.03258314520446,72.09253613238066 184.27090557852236,72.09253613238066 184.47347964699352,72.11636837573022 184.65520050253383,72.16403286189662 184.67605371564224,72.27127795679202 184.62838922894315,72.39043917425 184.49433285992438,72.7121744594689 184.44964740364398,72.90283240644284 184.3781506737729,73.12923871755328 184.27090557852236,73.52247073353107 184.2321781832569,73.68929643715546 184.19642981805504,73.84420601821726 184.1636604834494,74.04678008651085 184.33644424773362,74.07061233057065 185.8855400654542,74.21360579066794 186.6868992482603,74.14210906008661 187.31249563600835,74.0944445739202 187.58358740428702,73.99911559981176 187.7861614725806,73.86803826156681 188.0066097235639,73.49863849018152 188.1078967577995,73.29606442117768 188.38792561733425,72.90283240644284 189.0016058834075,72.40235529556965 194.24767845090417,65.3480112648139 194.14341238607236,61.29652989432547 194.1136220818854,60.28365955303509 194.37577675873044,57.07822282145559 193.08883561785487,56.97097772656019 192.65389717672565,56.98289384912279 192.38280540862453,57.006726092472334 192.0819233363365,57.07822282145559 191.87041217660928,57.17355179538647 191.72741871668956,57.28079689099213 191.62017362143902,57.37612586332494 191.4295156748202,57.53103544598481 191.24183675844253,57.60253217621102 190.99159820309472,57.50720320210257 190.64900970512252,57.304629134341674 190.41366630204575,57.18546791688368 190.05916168204368,56.91139711836389 189.66890869737242,56.76840365808904 189.48420881123585,56.732655293419846 189.24886540815908,56.720739171389944 189.016501035501,56.68499080725345 188.79903181511392,56.6969069280404 188.34621919129495,56.78031977958625 188.17343542701073,56.89948099704424 187.50613261340098,56.494332860279506 186.27281401988435,55.266972327422685 186.72264761310706,55.064398258951535 187.08608932436522,54.8856564334748 187.43463588335234,54.55200502729139 187.60444061721788,54.32559871564826 187.61635673871507,54.18260525484072 187.61933576931133,54.00386343042937 187.5329438871692,53.67021202318058 187.47932133945517,53.49147019752628 187.49123746112994,53.37230898131124 187.5716712827898,53.1697349123074 187.71168571211325,52.87183187043805 187.83084692903856,52.645425559327606 187.89340656783114,52.33560639489568 187.90830171974702,52.16878069233666 187.85170014179187,51.58489073009519 188.11981287947427,51.29890381007819 188.48027556013616,51.01291688917336 188.71561896321293,50.86992342889852 189.07906067429354,50.655433239107715 189.29950892527685,50.51243977883287 189.48718784165453,50.381362441120615 189.83275537022297,50.20262061564388 190.29748411553916,49.88088533042499 192.01638466712524,49.67831126142115 192.17427327949358,49.6544790180716 192.4423860169984,49.821304721695995 192.58240044685456,49.76172411349969 192.77305839347338,49.46382107163035 192.91009379273328,49.09442130024506 192.8445551236996,48.39137012107828 193.0381921007371,48.284125026182885 193.44631926809808,48.20071217463703 193.95275443927596,48.057718713829495 194.37577675873044,47.855144646068595 194.51579118840903,47.42616426577675 194.31321711993786,46.758861451456724 193.90508995257687,46.36562943672189 193.25566132147927,45.936649056430035 192.7253939067743,45.47192031111386 192.1802313401534,44.780785253266735 191.6380478039512,44.30414038698604 191.45930597882958,43.910908371008254 191.48313822217912,43.12444434029563 191.48313822217912,42.778876811727194 191.26864803221076,42.07582563309311 191.2269416061715,41.69450973967792 190.9320175948984,41.372774454459034 190.72348546558987,41.02720692642329 190.38685502827752,40.66972327582495 190.02043428660065,40.193078408834005 189.76721670118928,39.95475597569366 189.51697814601903,39.54960783786353 189.2756766819273,39.406614378831634 188.831801149542,39.32320152675309 188.5666674422783,39.21595643185769 188.3223869479454,39.16829194444834 188.12577094048922,38.89422114592855 187.99469360188914,38.76314380821629 187.81893080736378,38.620150348119004 187.66402122541416,38.47715688784416 187.5329438871692,38.35799567038617 187.48230037005143,38.21500221135427 187.4733632786178,38.024344264380325 187.43165685293366,37.85751856075593 187.28568436241767,37.511951032009925 187.16950217591105,37.34512532909579 188.1376870619864,36.65399027124866 190.26769381135222,33.63921148770849 190.62517746195056,32.56676053662373 191.11671748067982,32.113947913692584 190.78902413462356,28.122047151933153 192.46621826034794,27.061512323233426 195.83550166406778,25.655409965965262 197.51269578979216,24.45188167663556 198.49875485820212,23.999069052461465 200.04487164568158,23.820327227517424 202.00805269142296,24.654455744396454 202.63960714036352,24.868945934719942 202.64258617060466,25.178765098619188 202.67535550538787,25.34559080224358 202.81834896530756,25.500500383305383 203.0090069122815,25.619661600763376 203.12221006819186,25.750738939008322 203.1371052204629,25.953313007834602 203.09241976382737,26.096306467044066 203.0387972162909,26.251216049703945 202.979216607917,26.620615821799493 202.979216607917,26.966183349835237 202.99709079060673,27.12109293142973 203.30988898456954,27.502408824844924 203.65247748254174,27.78839574592731 204.04868852822796,28.014802057037755 204.0754998019962,28.18162776012946 203.81930318616614,28.431866315832398 203.67928875648752,28.741685479021385 203.68524681714737,28.94425954802523 203.78653385138293,29.158749737816027 204.0725207715775,29.480485023034916 204.2393464752019,29.635394604629408 204.5998091558638,29.84988479548559 204.957292806107,30.100123350123145 205.5620359809242,30.100123350123145 206.26210812949472,30.00479437725765 206.7923755438446,29.93329764649875 207.32860101938698,29.861800916450107 207.72183303447693,29.706891335388306 207.66821048694047,29.945213768528653 207.6503363044283,30.040542741926842 207.6950217607087,30.266949053214848 207.7665184909349,30.40994251402239 208.03463122843974,30.743593921093616 208.43680033514093,31.160658178822874 208.74364046826634,31.518141829953905 208.916424232373,31.673051411015706 209.2679498219564,31.744548141064346 209.38115297768917,31.887541601339194 209.30071915638445,32.14969627836178 209.25007563926667,32.43568319837878 209.44669164690043,33.03148928211747 209.86971396635488,33.36514068936626 210.2748621032972,33.865617798996496 210.66511508814602,34.33034654449023 210.91535364349383,34.461423882735176 211.00770358629578,34.080107989319984 211.13878092489585,33.96094677310494 212.1188819324684,33.794121069480546 212.18442060185723,34.77124304716711 212.21421090586662,35.59345544201624 212.37209951841248,36.129680918268875 212.8010798983492,36.54674517582057 213.23601833947845,36.630158027899114 213.3730537389159,35.3670491309058 214.3293225033165,35.10489445370565 215.27665417663857,34.98573323695791 215.55072497480325,35.21213954913374 216.1524891193793,35.59345544201624 216.63509204720765,35.831777876399535 217.12067400545467,36.01051970081088 217.47815765569788,36.16542928240538 217.9130960968271,36.18926152575492 218.60423115396398,36.201177647784824 220.36185910117067,35.474294225801195 221.33898107832454,34.223101449594836 222.0152209835455,33.07915376881656 222.85828659203574,32.018618939584144 223.70135220052597,32.721670118750914 225.53345590784488,34.75932692460452 227.6962319918163,35.974771335431434 228.20564619341286,36.59440966305235 228.71208136459074,37.071054530043305 229.60876952079502,36.9638094351479 230.0109386271411,36.99955780034979 230.32671585152258,36.97572555700024 230.50843670706288,36.90422882641891 230.84506714437524,36.79698373152351 231.28298461592317,36.60632578454957 231.7357972399197,36.47524844630462 232.1260502244134,36.332254986029774 232.58184187847348,36.23692601316427 232.79335303820073,36.16542928240538 233.00784322834664,36.09393255288943 233.37426397020107,35.86752624053604 233.70791537691716,35.605371564046145 234.2441408521044,35.045313845686906 234.5211906810429,34.818907533333515 234.73270184077015,34.55675285684362 235.09018549101336,34.34226266705283 235.3106337423518,34.294598180176166 237.08017781070055,34.12777247601908 238.5011753204173,33.84178555564695 239.09400237391486,33.5915470004767 239.52596178444784,33.26981171525781 240.10389368567436,32.97190867338847 240.47329345776993,32.86466357849307 241.38189773529385,32.268857494754386 241.8168361764231,31.661135290228753 242.44541159494497,30.850839015456323 242.6747969370068,30.576768217646784 242.99355319198455,30.45760700018879 244.22091372448622,31.124909813976117 244.22091372448622,31.63730304670164 244.53966997910888,32.43568319837878 244.90013265977078,32.95999255260152 246.02322712761818,33.412805176065355 246.85437661478878,34.080107989319984 247.42932948524148,34.75932692460452 247.92980659575954,35.74836502432099 248.05492587334467,36.84464821768991 248.70435450444225,37.738357343297935 248.90394954249473,38.19116996782716 249.15418809766496,38.54865361736011 249.29122349692486,38.620150348119004 249.54742011311006,38.91805338998835 249.98533758448042,39.84751087973287 250.46794051230876,40.6935555186418 250.88202574050715,41.32510996829263 251.3467544860009,41.96858053819771 251.97235087374895,42.469057648360646 252.78860520847093,43.10061209694609 252.93457769916446,43.19594107105453 253.11034049404495,43.33893453061912 253.3873903226283,43.70833430324736 253.36653710987503,44.196895292090645 253.39930644430308,44.60204342885539 253.63762887779856,45.01910768747246 254.14108501855773,45.7698233529832 254.4270719387523,46.163055367718044 254.8858426232311,47.03293224997652 255.061605417934,47.604906090898346 255.21949403030231,48.33178951234929 255.49952288948194,49.618730653224844 256,50.27411734515983 255.9791467868916,50.40519468447016 255.80934205302606,50.57202038702917 254.81732492360115,50.92950403762751 253.58698536068076,51.34656829695484 252.83031163433265,51.787464798388775 251.90979123495637,52.08536784025812 250.7688225845968,52.46668373420601 249.44315404827822,52.9552447219839 247.9238485347446,53.324644494612144 247.0539716524861,53.55105080572259 246.82160727982802,54.03961179456587 245.77894663328533,54.71883072985041 244.49796355324716,55.064398258951535 244.0630251121179,55.21930784125629 244.24176693723953,55.695952707536975 243.5297786671718,56.053436358135315 242.54074056816557,56.494332860279506 242.177298857085,56.7445714147395 241.9240812716736,57.03055833528919 242.01643121447555,57.292713011779085 242.20411013085322,57.48337095875303 243.24974980781462,57.92426746089721 243.3838061766558,58.114925407871155 242.96078385720136,58.79414434368839 242.15644564415413,59.73551795546281 241.79300393307355,60.02150487530225 240.64905625229525,60.188330578926646 239.3323248075879,60.46240137744644 237.872599902073,60.90329787959063 236.61247003514325,61.47527172051246 235.3761724112079,62.19023901993349 234.8786743312861,62.368980846120486 233.72281052883307,62.559638792561735 233.3414946352403,62.726464495475874 232.3405404147369,63.489096283371644 231.56897153611774,64.34705704377778 230.83017199228178,65.3837596289504 230.60078665004238,65.58633369795425 230.0854143876084,65.78890776624783 228.96529895035724,66.0391463208854 228.32182837991948,66.01531407753583 227.54430144046293,65.69357879284965 226.63569716276143,65.20501780400636 225.54537202951965,64.71645681516307 224.83338375962947,64.58537947745081 224.2137454327188,64.54963111153867 223.59112807503433,64.60921172026768 223.1651267249836,64.76412130186218 222.60208997585056,65.15735331783996 222.23864826494753,65.65783042747019 221.84243721926129,66.28938487658833 221.32706495664976,67.34991970582075 220.97851839766264,68.36279004764381 220.91893778928878,68.9109316446834 221.00235064101219,69.70931179742593 221.985430679181,70.20978890705616 223.09362999511254,70.7340982612789 223.95754881635605,71.27032373628859 224.39546628808156,71.63972350820657 224.90785952009682,72.79558731154744 225.06574813228758,73.41522563810298 225.09851746671563,73.71312867997231 224.98531431080528,73.89187050491635 224.80359345526497,74.0825284513576 224.36865501413575,74.249354154982 223.92775851234668,74.23743803401749 223.32301533717435,74.14210906008661 222.6080480368655,73.89187050491635 221.9496823141567,73.53438685485071 221.43728908214143,73.61779970692926 221.03214094537668,73.89187050491635 219.28345008960366,75.47671468837152 218.13950240882536,76.57299788174043 216.76616938598528,77.81227453644959 215.86352316876605,78.56299020196033 215.32729769340122,78.81322875642032 214.53785463244748,79.01580282489147 213.57562780738706,79.03963506824101 213.20622803529153,78.90855772999608 212.381036609491,78.65831917482582 212.1248399933058,78.69406754020527 211.8537482252047,78.86089324382966 211.6601112481672,79.20646077186541 211.55584518333538,79.92142807306209 211.64819512649242,80.44573742604187 212.44657527887983,82.23315567725793 213.36411664765984,83.61542579117653 213.4266762864524,84.06823841570576 213.4802988338113,84.4733865519378 213.42071822543744,84.95003141946145 213.0632345753718,85.35517955622619 212.31847697069844,85.66499871941518 210.88556333912933,85.91523727458542 210.29273628580935,86.01056624869386 208.74364046826634,86.11781134358927 207.16475434618127,86.15355970879115 204.9721879582005,86.22505643848467 203.72397421259038,86.3442176552324 203.14008425052646,86.49912723753715 202.04380105662486,86.9519398604683 201.2096725393907,87.47624921469102 200.2206344402069,88.51295180039634 199.74994763405337,89.39474480415203 199.5056671397205,90.58635697162939 199.3179882233428,91.77796913910676 198.55237740591616,91.48006609723741 198.03700514330464,91.18216305536808 197.73612307119419,91.03916959456053 197.21777177816395,90.69360206652479 195.7908162076098,89.45432541288102 195.55547280453303,89.22791910052763 195.19203109363,89.60923499447551 194.49493797565574,88.93001605865828 192.39770056089557,91.18216305536808 191.5456978609717,92.39760746619498 190.59538715740848,93.33898107796941 189.95489561774454,93.8275420668127 189.95191658714828,94.03011613581654 190.17832289914654,94.67358670625433 191.03628365937513,95.92477948192798 188.82286405846347,97.05681104120906 186.74945888705287,97.80752670600954 186.4128284497405,97.93860404425449 186.4813461491929,98.20075872198733 186.64221379180233,98.73698419699701 186.7524379176491,99.18979682046084 186.7405217956192,99.47578374083298 186.66604603515188,99.97626085064078 186.7762701608211,100.29799613585966 186.77924919106223,100.8223054900824 186.76733306938746,101.07254404578534 186.8775571948791,101.27511811354624 187.05927805059696,101.48960830333704 187.19631344985686,101.70409849366052 187.85765820262924,102.35948518559552 188.25684827873417,102.6216398626181 187.76232922923106,103.16978145965768 187.58060837386833,103.37235552866153 187.26483114930926,103.71792305722997 186.47538808853307,104.20648404607326 185.38208392469502,104.63546442565485 183.9700235064119,105.21935438842901 183.38017548333303,105.67216701207042 183.10610468481323,106.2679730958091 182.77543230833828,107.12593385550498 182.22729071129868,107.69790769642681 181.31570740353362,108.0792235903747 180.08536784043568,108.41287499691323 178.7775734864517,108.68694579543302 176.86503595765055,108.60353294335448 175.17592571025136,108.30562990148513 173.59406055810274,107.73365606180626 172.20881141323272,106.81611469213843 171.32701840929948,106.35138594735494 170.90101705960387,106.33946982532504 170.11157399847255,106.5777922584654 169.68557264859942,106.89952754421697 169.24467614663277,107.36425628917802 168.6071636370324,108.01964298111301 167.80580445440387,108.37712663224403 166.67973095631532,108.71077803878256 166.1345683896944,109.0682616893809 165.5715316403838,109.69981613743366 164.87443852240955,110.03346754521513 164.010519701166,110.53394465484537 163.16149603166082,110.99867339980642 162.56568994792215,111.2250797126925 161.8656177995292,111.17741522581585 161.12086019485582,110.54586077687527 160.31354295174503,111.1535829824663 159.97393348383642,111.3680731722571 159.8220029323055,111.49915051121229 159.72667395908488,111.64214397024419 159.40195964326972,111.84471803924804 159.30663067004912,112.16645332446693 159.22619684856681,112.30944678474178 159.11597272307517,112.42860800095683 158.9163776850227,112.48818860915313 158.71976167738893,112.50010473171572 158.5529359739421,112.583517583084 158.44271184845044,112.72651104282616 158.36525705756443,113.02441408469551 158.26992808416622,113.1793236668227 158.1537458981923,113.2984848832153 157.88861219075105,113.5248911955687 157.70689133538832,113.62022016843419 157.49835920572465,113.63213629046409 157.09916912961972,113.54872343891824 156.9293643957542,113.62022016843419 156.8280773615186,113.77512975056138 156.75658063146997,113.94195545365308 156.66720971890916,114.10878115727748 156.4229292245763,114.51392929404221 156.28291479489772,114.78800009256202 156.25014546046967,114.9548257961864 156.31568412968093,115.74128982689903 156.83701445295227,115.92003165237577 157.65326878767425,116.40859264015366 156.26801964280426,117.51679195608517 156.08331975684527,118.08876579647432 155.8956408404676,118.18409477058276 155.77350059330115,118.3032559873305 155.6156119811104,118.47008168988951 155.57986361626365,118.72032024559245 155.54411525123933,118.98247492208233 156.24120836921358,118.99439104411223 156.9085111830009,118.82756534048785 156.92340633509437,118.92289431441873 156.9263853653355,119.24462959981518 156.78041287481952,119.45911978960598 155.54113622064307,120.48390625345895 156.26801964280426,120.73414480916189 157.53410757074897,121.23462191879213 158.4486699094654,121.90192473311214 158.97893732381527,122.40240184291994 159.2559871529313,122.72413712813884 159.24705006149767,122.97437568384177 159.80710778021205,122.97437568384177 160.5697395675751,123.09353690058951 160.95701352200527,123.20078199495221 161.4277003281588,123.7489235919918 161.61835827477762,123.96341378284798 162.00861125962646,124.55921986658667 162.51802546122303,125.39334838346569 162.55675285684362,125.7865803983781 162.932110689599,125.7389159122117 163.1704331229169,125.7865803983781 163.37002816096935,125.88190937177629 163.5904764123078,126.09639956281003 163.88837945417714,126.38238648211679 164.1267018873175,126.56112830759352 164.2607582565138,126.64454115967206 164.42758395960553,126.68028952398612 164.67782251477578,126.72795401068522 164.90124979617778,126.72795401068522 165.05913840836854,126.75178625403477 165.31235599413503,126.83519910558061 165.87539274309052,127.0139409317676 166.44736658347966,127.25226336490795 167.5496078385738,127.59783089294369 168.091791374776,127.80040496194754 168.6786603672586,127.77657271842043 168.96464728745318,128.27704982822823 169.10764074737287,128.83710754712016 169.1255149300626,129.2541718059148 169.04806013917658,129.62357157836547 168.84846510094656,130.14788093152282 168.69057648893337,130.50536458212116 168.9020876486606,131.2799124902712 169.32510996829262,132.5430213883299 169.6885516790181,133.25798868846118 170.08178369446318,133.77038192065402 169.76004840906674,133.69888519113806 169.63195010124048,133.67505294778852 169.4681034280348,133.57972397368007 169.28340354225335,133.49631112266692 169.07487141294482,133.47247887878467 168.8722973442961,133.48439500081457 168.6756813368399,133.50822724416412 168.28840738223218,133.6393045818764 168.091791374776,133.7108013124577 167.90113342780205,133.79421416453627 167.6032303859327,134.0325365976766 167.4870481997812,134.15169781406922 167.39171922620548,134.28277515231414 167.32320152675308,134.425768612589 167.25766285736427,134.5806781941835 167.2427677052708,134.92624572328464 167.236809644611,135.22414876515396 167.1742500058184,135.37905834692603 167.05806781931182,135.49821956367376 166.98061302842578,135.64121302341593 166.95975981549492,135.7961226055431 166.968696906751,135.95103218784786 166.929969511308,136.1297740122592 166.81080829456025,136.26085135050414 166.68568901697515,136.41576093263134 166.57844392207974,136.5706705144034 166.29543603230385,136.82090907010632 165.75921055693905,137.16647659814208 165.63409127935392,137.26180557100759 165.44343333237998,137.23797332765804 165.23490120307144,137.24988945022062 165.01445295226569,137.30947005823936 164.86848046174973,137.36905066696835 164.74931924482442,137.42863127463198 164.65101124100752,137.46437964001143 164.67186445393838,138.4891661038644 164.09393255271186,138.71557241621778 162.95892196318968,140.25275211226358 163.34023785696,140.53873903157034 163.45046198245166,140.68173249184517 163.50110549956943,140.84855819600227 163.49514743855448,141.0273000204136 163.45939907353016,141.194125724038 163.4087555564124,141.3490353056325 163.37896525240302,141.50394488793725 163.37300719138807,141.6707705908514 163.39683943473761,142.04017036347963 163.4266297391021,142.20699606710403 163.50706356022926,142.36190564816582 163.7662392066556,144.38764633252222 163.68580538552843,146.71129005928066 162.9291316591803,148.16505690449085 162.809970442255,148.35571485093212 162.25884981497427,148.41529545948353 161.73751949170293,148.6059534059248 161.40088905421302,148.93960481264088 161.21023110741663,149.07068215088583 161.33832941542045,149.4281658009515 161.44557451049343,149.7856494520825 161.5498405751477,150.08355249395186 161.7643307654712,150.5482812394456 161.91924034706568,150.84618428131495 162.10394023302467,151.41815812170407 162.1694789022359,151.72797728436038 162.178415993492,151.8709707451679 162.0920241113499,152.0258803262297 161.95200968202641,152.1331254211251 161.5289873623944,152.3595317334785 161.177461772811,152.56210580230479 160.99574091744827,152.65743477534784 160.85870551818837,152.77659599209557 160.76635557503133,152.91958945183774 160.65315241912097,153.03875066929572 160.47441059417693,153.09833127731446 160.31652198180862,153.20557637292012 160.06032536580096,153.44389880606047 159.70879977639515,153.56306002227552 159.50324667768288,153.6226406304718 159.4406870388903,153.96820815957295 159.3572741871669,154.5401819994294 159.29769357861545,154.93341401540718 159.29769357861545,155.36239439552145 157.65922684833407,168.315218656178 157.203435194274,173.83238299142064 154.80233667716223,178.30092861946076 154.61465776060697,180.64840458903603 155.2908976654728,187.29760048427002 144.0331417132304,190.8009402559432 143.87227407062096,191.52782367845953 143.7799241279966,191.77806223309707 143.61607745479088,191.92105569337193 143.34200665627108,192.07596527496642 143.06495682715504,192.17129424907486 142.48404589550984,192.25470710115343 141.90015593344592,192.27853934397027 141.54863034404008,192.27853934397027 140.98857262532573,192.23087485780385 140.87239043917424,192.4572811689143 140.80685176978542,192.7909325761631 140.69662764429378,193.39865478175412 140.66087927944702,193.75613843128707 140.3033956292038,194.04212535236945 138.4236274348307,195.19798915393469 136.39490771970048,196.1870272529409 135.1526520352829,196.6875043632814 131.89061372663605,198.46300649353293 130.59473549468197,198.4034258849815 130.78241441105965,197.80761980124282 129.75464891643287,198.2723485460263 129.15884283269418,198.57025158789563 129.44780878330744,199.22563827983063 130.2223566923453,200.23850862289663 128.14299345991972,201.6446109801648 127.37142458147812,202.1808364551745 127.32078106471546,201.8591011699556 127.53825028492496,201.39437242499457 127.70507598854935,201.0368887749289 127.91062908726164,200.66748900247825 127.80040496194754,200.38150208317148 126.69816370703097,199.7141992686739 126.27812041817278,199.22563827983063 126.27514138757651,198.67749668332374 126.26024623530549,198.04594223491586 125.75679009490142,197.3190588129322 125.67635627324157,197.18798147397703 125.4410128701648,197.12840086595827 125.22652268001886,197.19989759547423 125.0865082506954,197.28331044702009 124.92861963814953,197.33097493371918 124.77371005655503,197.29522656958267 124.71115041776247,197.23564596085367 124.6664649613045,197.0211557710629 124.65752787004843,196.75900109333003 124.58603114017734,196.520678659657 124.36558288919403,196.35385295709798 124.1540717294668,196.27044010501945 123.76977680545535,196.2108594970007 123.49570600693555,196.00828542799687 122.20280680522261,196.3061884698662 121.70530872512325,196.294272348369 121.10354458054718,195.98445318464732 119.96853399120255,195.55547280453303 119.57530197611258,195.32906649217963 119.39060208979846,195.22182139728423 108.84781343822003,196.50876253887006 105.64833476872086,196.98540740515074 104.57290478721741,197.25947820420322 100.37842995769708,199.9406055810273 99.90774315154353,200.23850862289663 99.52344822753207,200.17892801416764 99.12127912100846,200.33383759576213 98.73400516675588,200.417250447308 98.23948611707522,200.33383759576213 97.89093955808808,200.2623408657135 97.3368399002111,199.60695417377852 97.0955384364745,199.11839318493523 96.76486605982197,198.83240626509578 96.01117136389253,198.08169059958504 95.31407824591828,197.29522656958267 94.80168501390301,196.7947494581768 94.24460632560734,195.94870481926787 94.02117904420534,195.42439546628808 93.7262550327547,195.12649242441873 93.32408592623108,194.9834989641439 92.84446202882144,194.9358344779775 91.84350780831801,194.74517653100355 90.86340680056787,195.91295645513136 88.91809993698351,195.17415691111785 88.65892429055718,195.06691181622244 87.10387041235435,194.4472734891342 83.91928689441596,193.11266786084929 83.32050178025858,193.18416459089795 83.07622128592573,193.25566132165685 82.83194079177044,193.3867386599018 82.67703120982081,193.51781599761404 82.41189750291223,193.81571903948338 82.16761700822423,194.25661554216026 81.92333651406894,194.5545185840296 81.56883189406686,194.8285893825494 81.31263527805922,195.05499569365983 80.3116810575558,195.67463402128075 77.96420508762539,196.24660786113722 77.70205041060281,196.28235622651667 77.38925221663999,196.2585239836998 77.07943305309588,196.16319500959136 76.67130588573488,195.99636930649964 76.24530453586172,195.8295436035855 75.74780645593992,195.60313729069944 75.17583261555079,195.29331812733287 74.68429259646638,194.92391835541488 74.22850094258385,194.35194451502576 74.12423487775202,194.18511881193405 73.85016407923221,193.946796378261 72.84920985855123,193.45823538941772 72.48576814747064,193.26757744244378 72.01806037191334,193.11266786084929 71.74696860381223,192.93392603643795 66.79582004794378,188.0483161490705 66.51877021882773,187.02352968575022 68.45216096055975,186.12982056014218 69.09861056141622,185.54593059772316 69.59610864133802,185.18844694783508 68.78283333738985,184.54497637668703 67.69548723421161,183.69893173848837 67.06393278544861,183.22228687096472 66.46812670170993,182.45965508360163 65.83061419210954,182.0664230688668 64.51388274704705,182.20941652914166 62.80391928671703,182.09025531168365 61.33227826006004,182.35240998923894 60.98075267047666,182.3285777453567 60.57262550311566,182.10217143424626 60.07810645379012,182.1140875550332 59.592524495365524,182.14983592041267 59.1337538110643,182.1140875550332 58.841808829854784,181.9949263386406 58.728605674299565,181.7804361488498 58.92224265115951,181.55402983667398 59.130774780468045,181.23229455198776 59.33632787953546,180.87481090138945 59.41676170066262,180.6245723456865 59.69083249918241,179.95726953243187 59.71466474253196,179.39721181389507 59.625293829971156,179.01589591994718 59.37207624455978,178.47967044493748 58.94905392510531,177.82428375246982 58.64221379180233,177.47871622336868 58.85372495152956,176.942490748359 58.740521795796774,176.7756650447346 58.669025065570565,176.26327181254177 59.06821514167549,175.7866269462611 57.58763702358486,174.05878930377403 56.73563432383854,174.5354341700547 37.27958665970697,170.63886238293642 36.365024320812964,170.3290432185045 31.61049177257827,155.37431051684112 30.165662019689528,155.37431051684112 28.411013102901542,155.24323317912885 27.967137570693787,155.3385621521719 27.001931715214685,156.101193939535 25.875858216593446,157.94819279930246 25.143016733594866,157.6860381217472 24.92554751320781,157.60262527020134 22.1699443759164,155.1121558398185 21.520515744463673,152.7289315048638 17.966532454962426,151.29899690424608 16.783857378918704,150.0954686152715 16.18805129518002,149.08259827291573 15.848441827271408,148.5106244325266 15.732259640942365,148.2484697560367 15.931854678994824,147.4024251171278 16.030162682811707,146.34189028736267 16.048036865323866,145.5911746225622 16.02420462197432,144.19698838608096 16.009309469880854,143.56543393749553 16.098680382441657,142.86238275832875 16.12549165638746,141.8971769026721 15.964624013778016,141.0749645071127 15.866316009961134,140.97963553371451 15.714385458607769,140.83664207343966 14.805781180728713,139.6092815418258 14.674703842483767,139.46628808155097 14.370842739599475,138.96581097067778 14.195079944896563,138.7036562936552 14.031233271868425,138.50108222571671 13.941862359485187,138.39383713028863 13.786952777535564,138.17934694049785 13.685665743299989,137.97677287220424 13.649917378275667,137.8814438986285 13.5903367699018,137.63120534363583 13.429469127292355,137.17839271946173 13.325203062638085,136.72558009599788 13.265622454264216,136.52300602823698 13.203062815471656,136.403844810779 12.568529336289957,136.0106127953339 11.880373309749343,135.84378709241977 11.618218632904322,135.7961226055431 11.159447948425536,135.67696138879538 10.647054716232704,135.47438731979153 10.128703423557614,135.22414876515396 9.690785951832117,134.95007796681173 9.401820001218857,134.7475038978079 9.115833081024288,134.50918146466756 8.814951008913818,134.1993623007683 8.508110875610832,134.05636884120372 8.037424069457272,133.82996252885033 7.474387320501781,133.5678078528931 6.738566806906943,133.2699048110238 6.634300742252673,133.22224032414712 6.327460609127251,133.1030791073994 5.144785532905965,132.56685363185701 3.202457700095422,131.57781553214053 2.3683291826837016,130.11213256614337 2.240230874679885,130.02871971459751 2.1657551142125495,129.93339074173204 1.9929713499283312,129.50441036161774 1.7963553422945657,129.2065073197484 1.9244536504759466,128.87285591196692 1.8946633461114484,128.753694696107 1.7933763118758723,128.63453347935925 1.7576279468515512,128.3842949236563 1.6891102473991668,128.19363697668237 1.3316265971559569,127.5501664067773 0,125.00011636766547 0.07745479088602882,124.51155537935489 0.17278376410665408,124.27323294621453 0.2621546768450206,124.04682663386114 0.46472874513860885,123.52251728088136 1.2154444106493496,122.40240184291994 1.2928992017129426,122.211743895946 1.3524798099092468,121.63977005555687 1.4209975095391953,121.10354458054718 1.4597249049822096,120.86522214740684 1.6056973958533152,120.62689971355623 1.6563409126159752,120.30516442833735 1.6682570342907488,120.05492587334466 4.322573137524146,117.50487583476553 4.200432890180152,116.25368305855918 4.048502339004352,114.77608397177505 4.0246700956548045,113.6798007766305 4.0574394300828684,112.82184001693462 4.248097377056811,112.09495659495099 4.73963739596366,111.49915051121229 5.344380570958424,110.8795121839465 5.993809202233589,110.55777689872761 6.863686084492066,105.64833476872086 6.994763422914576,104.98103195422328 7.185421369710955,104.4328903571837 7.805059696799185,103.92049712552355 7.745479088602881,103.16978145965768 7.638233993707482,101.82325971111852 7.873577396606698,100.89380221959836 7.885493518281472,100.16691879761473 7.888472548522601,95.36472176339119 7.528009867860698,94.57825773214587 7.316498708133465,93.9943677704371 6.991784392673447,93.14832313099546 6.795168384862118,92.54060092646984 6.547908860110564,91.31324039361301 6.267880000753383,90.38378290262554 7.617380780421501,90.2050410782142 8.66302045738289,90.1335443474553 9.488211883360966,90.2527055643806 10.331277492028766,90.55060860624994 11.153489887410585,90.95575674301467 11.767170153838993,91.55156282675337 12.497032606241316,92.19503339719114 12.988572625325729,92.36185910081554 13.086880629320175,92.64784602136524 13.167314450447334,93.30323271365535 13.468196522912933,93.7679614580837 14.204017036330207,94.31610305512329 15.511811389959053,95.23364442408086 17.17708939400867,95.7460376562737 18.845346428654548,96.68741126858082 21.53541089655714,98.03393301836293 23.492633881638714,98.8799776570943 24.085460934958704,99.24937742918985 24.95533781721718,99.88093187830798 25.81031954773732,100.27416389251012 26.31377568814138,100.30991225842226 26.894686619786594,100.20266716352687 27.472618521190682,99.91668024244447 28.425908255172573,99.35662252408524 29.081294947107562,99.02297111683644 29.46558987111901,98.91572602194105 30.418879605100905,98.78464868316341 31.21428072689205,98.78464868316341 31.830940023561585,98.86806153524196 32.16757046087394,99.0110549960495 33.29066492889892,99.58302883643863 34.34524169693883,100.14308655479786 35.09595736244957,100.66739590831034 36.27267437801103,101.01296343705634 37.318314054794854,101.2512858701967 37.80687504346058,101.48960830333704 37.923057229967185,101.93050480601391 38.34310051900295,101.87092419728492 38.81676635557521,101.62068564264737 39.26064188778297,101.23936974869949 39.37384504387088,101.02487955890868 39.61514650760748,100.46482183948406 39.83559475876836,100.00009309399033 39.990504340362854,99.78560290419954 40.19009937841531,99.35662252408524 40.66674424558382,98.33183606023228 40.82165382717832,98.14117811325833 40.36884120371448,98.21267484277428 39.907091488817,98.28417157335561 39.63897875095703,98.29608769485282 39.28447413113251,98.30800381688272 38.828682477249984,98.28417157335561 38.43545046180489,98.26033933000606 37.99753299043452,98.22459096533687 37.68175576587545,98.15309423457798 37.23490120307144,98.05776526171248 37.42555915004538,96.8542369727379 37.51790909284732,95.78178602165315 37.532804244940785,95.04298647763962 37.55961551870902,94.88807689604512 37.10084483423024,94.16119347406149 36.78506760984874,93.6726324852182 36.317359834113866,92.88616845503827 35.96583424470805,92.79083948092982 36.0790374006184,92.32611073596878 36.338213047044725,91.11066632514186 36.9369981612021,90.55060860624994 37.74729443526427,89.72839621122326 37.44343333237998,89.47815765623056 37.09488677339285,89.23983522184727 36.91316591785255,89.10875788413502 36.16245025269694,88.53678404374588 36.05222612685016,88.40570670443556 36.01349873176227,88.29846160954015 35.98370842722021,87.95289408097172 35.95093909279214,87.78606837734732 35.70367956786303,87.28559126771708 35.36109106971328,86.85661088689254 34.97679614570183,86.4514627506605 34.63420764772965,86.2012241956678 34.428654548662244,86.04631461336307 34.27970302772757,85.95098563996487 34.053296715906875,85.81990830171992 33.69283403524497,85.68883096347498 33.40684711540553,85.61733423271608 33.14469243838295,85.56966974601698 32.98978285643332,85.58158586857958 32.82593618340518,85.60541811192913 32.653152419120964,85.65308259809552 32.44462028981243,85.74841157149372 32.030535061614046,85.92715339661532 31.81604487164568,85.99865012613127 31.556869225219355,86.05823073486027 31.458561221224908,86.07014685671261 28.685083901421336,83.3771033580362 28.16375357814999,82.91237461254246 27.776479623719844,83.1626131682454 26.841064072250113,82.26890404263737 26.06651616356739,81.5062722547416 25.9860823420851,81.54202062065374 25.140037703531302,81.88758814868949 24.210580212543828,82.29273628545423 23.876928805650163,81.98291712262036 23.641585402573384,81.5539367414407 23.239416296227336,81.05345963181045 22.899806828318724,80.58873088631672 22.74787627696536,80.04058928874444 23.227500174552564,79.70693788202834 22.914701980589754,79.3732864754898 22.64956827314848,79.07538343362047 21.240486885284056,78.09826145646659 21.225591733190587,77.9314357523095 21.17196918547654,77.22838457367543 21.07961924267461,76.95431377515563 20.915772569646474,76.73982358483214 20.83831777858288,76.54916563839089 17.755021295235196,72.45001978280143 16.926850838838426,71.59205902150748 15.648846789218949,70.75793050462845 14.043149393898327,69.10158959165734 13.027300020768743,66.73028137873251 14.242744431595657,62.833709590903965 14.612144203691205,62.59538715776362 14.80876021132497,61.8804198572772 14.91600530622037,60.962878488319625 15.288384108557047,58.603486396714445 15.690553215258221,56.32750715665511 15.85737891852749,55.576791490611676 15.952707892103241,55.12397886714784 16.098680382441657,54.468592175212855 16.199967416854797,54.09919240276218 17.063886238098323,54.38517932313431 17.120487816231062,54.11110852532477 17.49286661856774,51.465729512637196 17.85630832947077,51.3227360536053 18.452114413209454,50.81034282070221 18.720227151069427,50.48860753548332 18.821514185305002,50.083459399251275 18.86619964140784,49.78555635738193 18.943654432471433,49.5472339231762 19.05685758838178,49.05867293433292 19.128354318430425,48.85609886657202 19.211767169976277,48.46286685059423 19.2445365045819,47.96238974096399 19.17006074411457,47.71215118579375 19.033025345209797,47.473828752653404 18.711290059635783,47.1282612239074 18.359764470407523,46.79460981683618 17.89801475533248,46.341797192662085 17.534573044251882,45.67449437887476 17.31412479326857,45.340842972691355 17.084739451029176,45.03102380896967 16.894081504410362,44.74503688895267 16.661717131752276,44.30414038698604 16.590220401526068,44.196895292090645 15.547559754983373,44.30414038698604 14.820676332999744,44.494798333959984 14.433402378392035,42.82654129842629 14.239765401354529,42.33798031064839 13.855470477343077,41.241697116214084 13.387762701430647,40.34798799060606 13.009425838434147,38.81080829509295 12.854516256484526,36.272674377300774 8.525985058122993,34.389927153219226 4.924337281922653,32.828915214179005 5.978914050140122,32.423767076881575 6.765378080852748,31.76838038512415 7.656108175864515,31.06532920649007 8.403844811134126,30.040542741926842 8.99965089487281,28.813182209780283 9.467358670430112,28.253124490710793 9.982730933041637,27.89564084082271 11.359042986477995,27.04959620191378 11.92505876585218,26.894686620319288 13.074964507822965,26.537202969720948 13.292433728032458,26.5014546043415 14.201038005911514,26.370377266096554 14.930900458313836,26.14397095374316 15.103684222598055,26.07247422422721 15.282426047897223,25.97714525118415 15.896106313970503,25.881816277253268 16.140386808480926,25.881816277253268 16.262527055647357,25.798403425174726 16.61107361463449,25.77457118235787 16.903018595488877,25.70307445284192 17.120487816231062,25.619661600763376 17.305187702190054,25.405171410972578 17.42732794935648,25.321758558894036 17.853329299229642,25.107268369103238 18.06186142853818,25.04768776037424 18.416366048185132,24.988107151645245 18.58319175180953,24.916610422129295 18.791723880940502,24.761700840357236 19.098564014065925,24.392301067906562 19.339865478157655,24.046733539870818 19.506691181426923,23.79649498416788 19.655642702361593,23.65350152389303 20.039937626373046,23.36751460405359 20.477855097920976,23.105359926853442 21.365606162869177,22.61679893854285 21.451998045011287,22.545302207961516 22.009076733306955,21.544347987458092 22.441036143839938,21.222612702239203 22.542323178253078,21.1749482160728 23.331766239029267,22.378476505402503 24.35059464222242,21.67542532570304 25.7447808783485,20.36465194254332 26.522307817449917,19.625852397997097 27.800311867069393,18.39849186514028 28.19652291275562,18.696394907009623 29.742639700235063,19.876090953700036 51.2184699885959,2.3951404562743783 53.07142690884564,2.7168757420259593 59.84872111137316,5.052435589748905 60.07512742319386,4.778364791229111 60.664975446450285,4.194474829520329 61.63018130192939,3.4199269201273492 63.372914096687474,2.1091535364349383 64.22491679661135,1.4299346011504037 65.20799683495774,0.6434705704377778 65.36886447738962,0.5123932321928316 66.18511881211163,0 66.78688295651013,0.4408965014339334 68.51769962994857,0.9771219776865685 69.70931179742593,1.4418507224700492 70.52556613197036,1.7278376430197453 71.96443782419928,2.3236437267584282Z"/></svg>