<svg xmlns="http://www.w3.org/2000/svg" width="256" height="256"><path d="M177.8012290740574,0.16274634436243393 180.18224200052487,1.0985378258105531 182.165713074804,1.5054036870197767 184.7628734901462,2.0139860137839216 187.62280144098327,2.6039415132345147 190.61157024793388,3.241364695708058 193.10192837475668,3.7296037296037294 196.0398389490309,4.509429963874372 198.53782581055307,5.221445221243129 200.79677897859716,5.757151938768028 203.54142826880204,6.435261707786888 205.37232464515296,6.923500741985698 207.23712650995483,7.350709896366534 208.88662852299217,7.540580631489722 210.84975630430176,11.209154481679661 210.9243483789949,11.337995337793245 210.92604365331638,11.57533375735403 210.88281415554144,11.71095571095571 210.84043229497775,11.833015469177013 210.83195592296607,11.92116973904842 210.83365119728757,12.097478279498553 210.865861411417,12.178851451881863 210.88705234169885,12.226319135207952 211.07861835144666,12.619622801339936 211.24051705879992,13.00614536988278 211.41513032422122,13.385886840230203 211.52701843610777,13.813095994914177 211.66857385039202,14.118245391174757 211.71010807374444,14.199618563457019 211.7414706506626,14.24030514939606 211.81860563678745,14.301335028809849 211.86268277187472,14.335240517159745 211.90675990675834,14.375927102997737 211.96016105107014,14.403051493758493 212.00847637211274,14.423394787031151 212.32803560086393,14.41661368913887 212.39584657766477,14.409832591650774 212.458571731299,14.403051493758493 212.5170586988769,14.382708201193157 212.63064208518753,14.342021614647841 212.68573850392033,14.335240517159745 212.7459207460218,14.335240517159745 212.83492265310448,14.396270396573534 212.8756092392456,14.430175884519247 213.0324221233312,14.694638694840787 213.0570036025592,14.748887476160203 213.0748039838949,14.796355160193617 213.08582326774248,14.993006992905947 213.07310870947234,15.393091756526028 213.02733630016462,15.52193261294275 212.99851663488027,15.711803348369077 212.99173553729113,16.1186692095783 213.00190718372536,16.213604577341986 213.0324221233312,16.294977749321113 213.1002331004352,16.3560076287349 213.26128417047613,16.423818605434693 213.47319347329451,16.51197287560924 213.52659461750372,16.53909726647104 213.6495020132394,16.559440559642653 213.70968425513723,16.57300275502303 213.75969485060236,16.586564950504453 213.80716253443526,16.61368934096207 213.84106802298726,16.742530197277745 215.172706081797,16.769654588139545 215.11591438864008,16.837465564435153 214.8031362576833,17.183301547140005 214.4683195593297,17.515575333454013 214.11824539097267,17.874973511236103 213.89955499046408,18.214028395745533 213.8503920322102,18.437804619824895 213.88344988355092,18.84467048073098 213.90718372536554,18.89213816476439 214.04365331638218,19.204068658816205 214.07586353040898,19.244755244654197 214.11655011665115,19.27187963571809 214.20555202373384,19.319347319145226 214.2606484424682,19.353252807495124 214.76753549480821,19.59059122705591 215.26509853782582,19.794024157862612 215.3201949565586,19.821148548724416 215.7058698877891,20.12629794458081 215.93388429752224,20.44500953581758 216.18054672600127,20.831532104057285 216.55181182464014,21.136681500519956 217.0120788303617,21.387582114551705 217.47149819887198,21.658826022664478 217.89446916729747,21.916507734891645 218.31913541014555,22.20809493536766 218.68361941089213,22.506463233938053 218.8294130112312,22.669209578401535 218.90400508592433,22.872642509309284 218.93028183937432,22.947234583800313 218.946386946488,23.03538885336858 219.01080737454478,23.116762026055028 219.04979868616232,23.150667514404923 219.1031998305736,23.184573002956913 219.15999152372893,23.204916295623295 219.22017376562832,23.225259588895952 219.33036660329597,23.23204068638405 219.43886416613688,23.225259588895952 219.49226531054816,23.211697393818714 219.54227590611436,23.184573002956913 219.67365967365967,23.252383979353567 220.10595465151025,23.53040898475235 220.5145157873441,23.801652892561982 220.74507310870948,23.91693155329519 221.20025429126443,24.13392667958332 221.25958889595253,24.167832167933213 221.7198559016741,24.3916083914063 221.85123966952253,24.445857173331994 222.30811612629793,24.61538461558671 222.6420851876408,24.764568764568764 222.70820089001907,24.784912057841424 223.0099597373335,24.974782792661472 223.42784488239033,25.19855901684188 223.5219326128417,25.25280779806025 223.93981775799958,25.47658402224066 224.32549268912905,25.713922441397262 224.37211273584856,25.741046832259062 224.61707988980717,25.958041957839864 224.70099597372325,26.0258529348428 224.8340750158932,26.12756940009458 224.89086670904854,26.161474888444477 225.09345200264397,26.283534646968917 225.47912693367238,26.5276541640178 225.87243059970334,26.731087094925552 226.2809917357393,26.880271244008654 226.624284806103,26.9819877089573 226.81415554142828,27.02267429540157 226.9014621742905,27.02267429540157 227.26425090061454,27.14473405362287 227.3227378681924,27.15829624940743 227.47361729190015,27.23288832389846 227.56092392456029,27.266793812551498 228.85696122069862,27.578724306199124 230.80652680662786,28.100868828343646 232.71286289468108,28.887476160203434 234.27675354958185,30.128417037608994 237.61729179920945,33.891926255865755 240.16105107034406,35.34308116126298 241.05446069082433,35.47870311526884 240.64420428056792,35.67535494798118 240.21953803771984,35.88556897668016 239.8762449672551,36.082220809796674 239.52278025015403,36.35346471700004 239.45327399882802,36.414494596110686 239.1294765841231,36.63827081988691 238.66412375503126,36.814579359730764 238.48951048951048,36.87560923914456 238.35304089849544,36.93663911825521 238.30981140082153,36.96376350901596 238.1843610934536,37.05191777929155 238.01652892561984,37.153634244240195 237.94617503708255,37.20110192827361 237.90464081373014,37.22822631903436 237.51218478511416,37.452002543214775 237.29518965882446,37.56728120354379 237.21720703538887,37.63509218054673 237.13159567705023,37.750370841482024 237.11379529561347,37.824962915669914 237.10108073754543,37.87243059970333 237.04767959313415,37.94702267459854 236.9891926256573,38.01483365089415 236.58910786183515,38.27929646091255 236.21275694002966,38.57766475958399 235.86607332071983,38.85568976498276 235.530408984956,39.15405806294688 234.84043229507878,39.771137952855085 234.63021826678556,39.98135198165512 234.53443526170798,40.13731722842841 234.51833015469379,40.184784911855544 234.33015469379106,40.550964187529914 234.2801440983259,40.67302394605436 234.26573426573268,40.72049162978463 234.16317016327122,40.86967577876669 234.04534859080314,41.168044077438125 233.91396482305572,41.40538249598845 233.59101504566155,41.6969696967676 233.54439499894045,41.73765628331292 233.24433142625065,41.85293494364194 233.17652044924614,41.85971604183736 232.71031998304724,41.907183725567634 232.14579360033747,41.95465140919686 231.59652468743377,41.981775800058664 231.22780250052818,42.02924348409208 231.1676202586304,42.049586776657414 230.85653740209298,42.17164653548499 230.80483153210426,42.19198982815137 230.6556473829201,42.2665819026424 230.6098749736124,42.300487391295434 230.16486543769375,42.571731298801936 229.77749523224279,42.85653740178986 229.7334180971555,42.89044289044289 229.46641237560434,43.16846789584167 229.37401991957552,43.249841067820796 229.32231404958677,43.28374655617069 228.99343081181473,43.480398389489295 228.50264886628523,43.69739351577743 228.40178003814367,43.73808010171646 228.21190930281838,43.853358762651766 228.166984530823,43.88726425069852 227.90591226954862,44.22631913520795 227.78809069718162,44.334816698352014 227.6228014410843,44.497563043017585 227.54481881764713,44.56537401971738 227.4880271244918,44.592498410478136 227.28205128215234,44.667090485272304 227.22695486341954,44.673871582861445 226.70565797838526,44.762025852732855 226.20300911220107,44.89764780704186 225.80631489732502,44.938334392879845 225.74613265522356,44.94511549036795 225.68764568784937,44.94511549036795 225.39944903581267,44.938334392879845 225.33502860775587,44.92477219749947 225.28756092392456,44.91121000242223 225.1731299004026,44.863742318388816 225.05785123977046,44.81627463465855 225.0137741046832,44.789150243897794 224.8213604577241,44.687433778241825 224.47128628956915,44.531468531670626 224.40940877304672,44.51112523849901 224.35431235431236,44.51112523849901 223.97372324645053,44.49078194522635 223.8652256836096,44.51112523849901 223.81860563678745,44.53824962925977 223.3676626403899,44.762025852732855 222.88959525333266,45.012926467370875 222.82517482527587,45.019707565263154 222.61411315966876,45.04005085843477 222.11061665607122,45.04683195602391 222.0411104048478,45.06717524929657 221.9682136045788,45.09429963975418 221.50794659885568,45.31807586322727 221.10277601196796,45.58931977144109 220.84000847647317,45.82665818999141 220.6798050434414,46.050434414171825 220.647594829413,46.09790209820524 220.60351769442838,46.14536978193551 220.55350709896322,46.192837465564736 220.4560288196652,46.26064844226453 220.39923712650986,46.28099173553719 220.20343293070565,46.3284594195706 220.13731722822632,46.3284594195706 219.5990675990676,46.32167832137518 219.34647171010806,46.33524051675556 219.29476584032142,46.35558381002822 219.24729815639066,46.382708200788976 219.14897223988132,46.43695698271467 219.04979868616232,46.5115490572057 218.92180546726158,46.687857596948504 218.86670904852724,46.8438228435197 218.82347955075227,47.28459419398824 218.79550752278024,47.365967365967364 218.7632973088529,47.406653952209545 218.6208942572579,47.5829624922555 218.57512184784912,47.62364907849767 218.52172070353888,47.65755456644338 218.41152786617437,47.711803348065935 218.34541216359398,47.725365543446316 217.84276329730875,47.8270820086981 217.6935791481246,47.84742530166762 217.29179910998093,47.91523627897369 216.78660733216293,48.09154481901964 216.5662216572318,48.17291799079667 216.39923712650986,48.28819665213616 216.138164865436,48.56622165713075 216.10256410256412,48.6611570245913 216.32634032644137,49.074803983894896 216.5535070990627,49.69188387349996 216.5535070990627,50.00381436724864 216.54503072694996,50.49205340144745 216.52723034541216,50.932824750905525 216.3424454335566,51.529561347541076 216.2534435261708,52.3093875822159 216.3941513032422,52.7569400298694 216.70692943420215,52.98749735123476 216.96461114642776,53.11633820694416 217.2172070354899,53.129900402627676 217.39436321264608,53.07565162110617 217.9758423394787,52.85865649481804 218.59292222928588,52.32294977759628 219.56516211061665,51.63805891068514 220.32210214028396,51.27866073320619 220.8679805044452,51.13625768181328 221.65204492487325,51.122695486432896 222.50900614557187,51.15660097498488 224.8018648018648,51.57024793408639 225.86819241364697,51.80758635293985 226.7073532528078,52.139860139961186 226.80737444373807,52.24157660490983 226.9141767324596,52.48569612195871 226.9065479974571,52.702691247943704 226.74295401568128,52.8857808855788 226.52850180122908,53.028183937072754 226.27590591226954,53.190930282041464 225.6325492689129,53.52320406875966 225.23585505403688,53.71985590147199 224.51366815013284,54.16740834912549 223.74401356229643,54.45221445241654 223.0599703328997,54.865861411417 222.85399449045917,55.08285653770513 222.5997033270771,55.48294130132521 222.40898495454056,56.005085823469734 222.1945327399873,56.58826022442177 221.7656283111839,57.44945963107572 221.68595041322314,58.38525111252384 221.60372960383066,59.2193261281139 221.50286077558806,59.734689553073466 221.37995337995338,60.26361517270608 221.46217418954797,61.389277389075296 221.64526382718304,62.3047255773518 221.6910362364908,62.54206399691259 221.72155117609663,62.70481034097188 221.77156177156178,63.267641449661724 221.90972663700094,63.81012926467472 222.09281627463446,64.16274634456452 222.32761178215725,64.80695062533454 222.5412163593982,65.14600550984396 222.70650561569758,65.49184149153835 222.79296461114643,65.68849332485696 222.87009959737233,65.93261284200689 223.05064632347464,66.42763297339066 223.18457300285587,66.69887688059401 223.41173977547717,67.25492689139158 223.47276965458784,67.90591226964968 223.4507310870947,68.24496715415911 223.3693579149135,68.80779826214163 223.31934731944835,69.09260436543268 223.25577452860284,69.46556473849411 223.1811824539097,69.87921169759561 223.12608603517694,70.13011231213258 223.08116126318154,70.40135621974014 223.0565797838525,70.57088366199484 222.99554990474186,70.72684890886919 222.89807162534436,70.9370629369619 222.86077558814935,71.09302818413937 222.80567916951762,71.2896800168517 222.79720279730384,71.47955075237907 222.8802712439076,71.73045136661291 223.1218478492216,72.18478491185554 223.41936851037866,72.71371053219549 223.58296249205182,72.99173553729113 223.74825174825176,73.37825810583396 223.80504344140707,73.8393727485647 223.7762237762238,74.32083068446705 223.6821360457724,75.0328459418358 223.6287349014606,75.60923924560288 223.60415342233523,76.5789362154009 223.6516211062676,77.4536978171321 223.76350921805468,78.43017588482239 223.95761813943633,79.03369357935021 224.11443102352195,79.58296249195236 224.51960161061174,80.4170375081487 224.55350709896163,80.49162958233659 224.59927950847145,80.91883873671742 224.59758423404733,80.97308751864311 224.72727272727272,81.19008264493124 224.75609239245603,81.2307692304661 224.79508370427567,81.31892350094377 224.8094935368673,81.36639118437091 224.90188599289613,81.6037296039317 225.0459843187116,82.0309387580094 225.1909302819404,82.44458571700986 225.21127357490994,82.58020767091467 225.22144522164731,83.0006357278074 225.30536130546236,83.44818817515777 225.42742106378313,83.87539733014488 225.49184149184148,84.30260648462676 225.56473829201101,84.70947234603807 225.56982411527866,84.86543759260927 225.58084339912625,85.28586564950201 225.66984530620894,85.48929858040977 225.74782792964612,85.7334180971555 225.8029243483773,85.8554778553768 225.89023098124113,86.05212968839228 226.14621741904574,86.43865225663198 226.38270820089002,86.69633396906124 226.4903581268228,86.7912693365218 226.77346895538818,87.16422970938112 227.01674083492264,87.53719008284672 227.05234159779613,87.59821996195737 227.16846789584167,87.86268277197577 227.42784488239033,88.23564314473406 227.73129900402628,88.61538461548567 228.00678109769018,88.98834498864812 228.23310023310023,89.39521084945316 228.45687645687488,89.82242000454133 228.53316380599213,90.02585293474175 228.54757363858377,90.12756940039772 228.53146853146853,90.57512184805121 228.13901250264885,91.42954015650974 228.06950625132444,91.87031150697828 228.05340114441128,92.33820724750025 228.06187751642298,92.41958041927728 228.29667302394574,92.72472981543682 228.6899766899767,93.02987921189948 229.0324221233312,93.34180970534503 229.24941724941726,93.74867556685739 229.26213180758634,93.87751642317306 229.31383767747405,94.33184996811256 229.3918203009128,94.74549692711301 229.46810764992583,95.1455816907331 229.57830048749244,95.5524475525486 229.60542487825478,95.68806950615028 229.70120788302606,96.10171646515073 229.8130959949126,96.49502013158586 229.84361093452003,96.90188599269403 229.8698876880695,97.03750794659885 229.95210849766409,97.47149819856884 230.03178639562486,97.87836406038433 230.15977961432665,98.29879211727707 230.2614960796779,98.71243907627753 230.28099173553719,98.84127993198693 230.3572790845518,99.07183725365543 230.55477855477855,99.45835982219828 230.87264250900614,99.83132019475447 231.21932612841545,100.19071837253655 231.51599915236437,100.54333545242636 231.7965670693954,100.90273363020844 232.0669633396906,101.25535071009826 232.17715617725722,101.45878364060182 232.2839584658777,101.65543547371834 232.30514939615796,101.7096842549367 232.31786395433022,101.75715193866698 232.31108285663845,102.2453909724616 232.378046196228,102.65903793186625 232.40856113583385,103.09302818373519 232.39076075449816,103.51345624062792 232.36617927527018,103.95422759079332 232.3305785123967,104.38821784296539 232.2856537401992,105.71053189245112 232.27378681924137,106.17842763266995 232.34414070777706,106.58529349448546 232.41703750804766,106.89044289034184 232.45094299639754,107.02606484394353 232.458571731299,107.42614960816988 232.4314473406393,107.58211485474108 232.2839584658777,107.93473193493402 232.26107226107226,108.02966730209144 232.23564314493615,108.12460266985512 232.0135621953804,108.51790633588607 231.6745073108725,108.87052341618005 231.3812248357703,109.24348378893833 231.27611782157237,109.65713074834298 231.2617079889807,110.06399660914802 231.2956134775327,110.23352405140272 231.46853146853147,110.62004661994557 231.67789785971604,111.02691248176107 231.94490358136827,111.41343505000079 232.16105107014198,111.82708200900123 232.1830896376351,111.89489298559998 232.19834710753906,112.01017164663632 232.20936639118457,112.1254503072685 232.40178003814367,112.52553507119171 232.5882602247249,112.87815215118256 232.64335664345927,113.16973935165858 232.6874337784439,113.59694850603941 232.69251960171155,114.01737656293216 232.6772621318076,114.47849120596602 232.72303454141687,114.736172917789 232.8188175460903,114.76329730854977 244.89425725789204,114.58020767091467 245.03496503516712,114.60733206167542 248.30938758211485,114.729391820503 249.267217630854,121.06293706273497 249.61220597604444,125.38927738937844 249.6723882178412,127.11845730057863 249.7368086460006,129.08497563032913 249.72070353888535,130.76668785779904 250.1419792330904,132.93663911815418 250.28946810775096,133.71646535303108 250.3894892985802,134.0826446284023 250.7692307693318,138.57851239659317 250.84043229507878,139.61602034339413 250.8582326764145,139.86692095762797 251.01165501165502,141.04005085803058 251.0472557745285,141.67747404121144 251.1930493749686,143.09472345835982 251.27272727272728,143.92201737636074 252.04068658624217,150.04534859080314 247.8508158509169,150.3708412799322 239.99321890230982,150.96757787656773 240.16952744225472,151.87624496695196 240.322102140385,153.1646535282899 240.3865225684418,155.5380377198559 240.37211273585015,157.26043653326485 240.3865225684418,157.31468531448323 241.74782792974716,162.75990675990676 243.01928374665752,176.4848484846464 242.93197711379528,184.7577876671817 243.33884297530767,187.32104259356777 241.85632549289122,189.4706505616607 241.31638058910787,190.2097902097902 241.22737868202518,190.2640389910086 240.8450942997408,190.59631277833304 240.64759482951405,190.92858656464708 240.60182242000423,191.0913329097168 240.58571731299003,191.15236278882747 240.44840008486477,191.3693579151156 240.4127993219913,191.42360669603082 240.2178427632973,191.70163170142962 240.11951684678957,191.81012926457367 239.72367026912482,192.14240305149397 239.32019495665963,192.4543335449395 238.86840432315188,192.7323585503383 238.41491841501946,193.00360245814792 237.89955499056512,193.2545030724828 237.390972663801,193.46471710128284 236.90612417885146,193.6410256407225 236.42805679169317,193.85802076701063 236.03475312576327,194.17673235855054 235.97796143260794,194.2174189447927 235.90675990686094,194.2581055306307 235.6829836829837,194.43441407108085 235.64568764578868,194.46831955902655 235.57787666878576,194.54291163392176 235.53379953390058,194.59037931795518 235.50497986871727,194.63106590379317 235.4981987710271,194.7734689555903 235.49057003612563,195.20067810966796 235.47276965458784,196.1025641027662 235.4625980081536,196.1568128840856 235.15829624930637,196.52977325724808 234.84382284382284,196.86882814175752 234.47933884307784,197.06547997446984 234.42254714981988,197.09260436523059 234.33015469379106,197.1468531471563 234.28522992159355,197.180758635102 234.2072472981548,197.2553507099972 234.004662004662,197.4384403476323 233.96567069304447,197.47234583628534 233.92837465574684,197.51303242212333 233.90379317652045,197.56050010615675 233.88429752066116,197.87921169709037 233.9122695486332,198.29285865669712 233.9249841068023,198.34710743801654 233.94447976276263,198.40813731743032 234.218266582004,198.78109769028964 234.55901674093596,199.13371477017947 235.00741682559865,199.3778342869252 235.49480822208096,199.60839160829056 235.56007628744848,199.64907819473484 235.9262555626192,199.9474464928 235.96694214876032,199.98813307924425 235.99915236288976,200.02881966548645 236.02966730239459,200.2593769868518 236.02797202807307,200.4017800379416 235.92456028819666,200.64589955509152 235.6524687434789,201.00529773277256 235.35918626827876,201.2222928584544 235.31849968213604,201.24941724921516 235.21000211909302,201.29688493324858 235.03793176530553,201.33757151949075 234.78872642509006,201.41894469146987 234.36575545666298,201.4664123755033 233.90209790219896,201.60203432950914 233.40962068234796,201.76478067356845 232.88493324867065,201.92074592074593 232.37465564748396,202.04958677716263 231.87709260436534,202.19198982855556 231.36681500337914,202.36151727081028 230.87603305785123,202.54460690844536 230.36406018224358,202.74803983874685 229.8927738927739,202.9446916717623 229.3918203009128,203.15490570056235 229.2511125238398,203.20915448208385 229.11294765850482,203.26340326340326 228.6662428481605,203.56177156197364 228.42636151737165,203.73129900422836 228.36787454969274,203.7787666876555 228.24327187973657,203.93473193452985 228.13646959111767,204.17207035409064 228.0813731723833,204.36194108921381 228.0661157025804,204.50434414040464 228.06781097700292,204.91799110001136 228.11019283756661,205.1146429331279 228.13307904216995,205.2299215934569 228.16189870735326,205.34520025449325 228.18478491205764,205.4062301336039 228.20428056791692,205.6842551390027 228.1991947446493,206.091121000414 228.0661157025804,206.49120576373093 228.0483153210426,206.5386734474612 227.8592922229286,206.81669845286 227.83301546948016,206.86416613659028 227.8118245391983,206.91841491851596 227.8008052553507,206.97266369973434 227.5541428268701,207.31849968243918 227.46514091978742,207.44055944066048 227.3668150032797,207.54905700380456 227.22695486341954,207.72536554324424 227.18796355159992,207.79995761834152 227.16422970968426,208.01695274402337 227.15744861199406,208.4848484846464 227.15744861199406,208.89849544364685 227.15914388641502,208.95274422557253 227.1786395422759,209.0069930067909 227.21932612851808,209.10870947234582 227.31341385886682,209.31214240325357 227.3422335240517,209.366391184573 227.36003390558793,209.61729179910998 227.3532528078993,210.03093875851462 227.34731934742038,210.08518753942985 227.33375715193898,210.13265522346327 227.33121424040618,210.18690400538895 227.3227378681924,210.24115278630418 227.24645051927885,210.3835558381013 227.20915448188018,210.4717101079727 227.15744861199406,210.6005509643894 227.12693367248926,210.6412375502274 226.77177368086458,210.9599491417673 226.43356643356643,211.34647171031017 226.2386098751756,211.6855265948196 226.0317863955238,212.07204916275617 225.86480186480188,212.24835770290315 225.54524263625277,212.5874125874126 225.50031786395422,212.64166136863096 225.46726001281561,212.69591015055664 225.29434202161474,213.08921381628446 225.0900614536978,213.46895528733918 224.85526594617502,213.75376138992294 224.8094935368673,213.80122907365322 224.45518118245548,214.14706505635806 224.37889383354033,214.22843822864033 224.1813943633136,214.28268700995974 224.09832591670983,214.28268700995974 224.03729603729604,214.2691248148825 223.87624496715407,214.20809493546872 223.76944267853358,214.1674083489234 223.70671752489935,214.14706505635806 223.61602034339413,214.03178639532172 223.57363848283043,213.9504132229384 223.50413223150443,213.8893833441309 223.31087094723458,213.60457724094087 223.28713710531892,213.50286077558806 223.28374655657487,213.44861199406654 223.26764144945963,213.40114431003312 223.234583598321,213.35367662630284 223.1862682772784,213.30620894226945 223.1235431237452,213.26552235643146 222.8836617927527,213.17058698866776 222.80228862047045,213.13668150001473 222.7276965459794,213.1095571095571 222.64717101080737,213.0824327190995 222.56071201525904,213.0620894255237 222.4767959313414,213.04852723044647 222.2157236702691,213.03496503506608 221.97414706505614,213.04852723044647 221.90294553930917,213.0620894255237 221.6291587200678,213.2248357704924 221.46217418954797,213.40114431003312 221.43165924984106,213.44861199406654 221.29095147276965,213.88260224633964 221.13668150041892,214.2691248148825 221.00529773257045,214.70989616434056 220.96800169537548,214.80483153210426 220.75100656918838,215.21847849110472 220.72049162968358,215.39478703125172 220.7137105319934,215.91693155339624 220.791693155429,216.17461326521922 220.94087730471577,216.57469802914244 221.08328035600604,216.96800169557756 221.25958889595253,217.3748675563826 221.42318287772832,217.8292011022315 221.44437380801017,217.90379317672253 221.4528501801229,218.32422123361528 221.42996397541853,220.06018224200042 221.3621529986177,220.25683407471274 221.3375715193897,220.4195804197825 221.32824751016673,220.8603517692406 221.32316168679804,221.29434202181685 221.3248569612206,221.70120788322816 221.36978173351915,222.12841703771005 221.41724941725099,222.56240728998316 221.41894469177302,222.96927315078818 221.4121635940828,223.41004450125672 221.42318287772832,223.49141767293273 221.536766264039,223.91184572982544 221.72833227378683,224.2983682983683 221.96312778141063,224.69845306198837 222.1496079677898,225.09175672832245 222.36490781945326,225.53252807818473 222.38440347531255,225.579995761915 222.6047891502437,225.98686162302317 222.63530408995058,226.06823479540648 222.74549692731512,226.24454333555346 222.80398389499402,226.33947870291297 222.8480610300813,226.40050858232675 223.1862682772784,226.72600127145583 223.49396058486968,227.09218054682705 223.7991099810292,227.45835982209724 223.97372324645053,227.83810129244466 223.98219961856324,228.28565374009816 223.96270396280502,229.64187327813588 223.92371265098538,230.05552023713634 223.85674931139582,230.49629158730173 223.83894892985802,230.93028183957483 223.82962492063348,231.0116550118571 223.7355371901837,231.23543123543124 223.5414282687026,231.6490781944317 223.5236278873653,231.75079465968346 223.3583386310659,232.20512820522924 223.1023521934634,232.59165077346896 222.946386946488,232.9781733420118 222.9158720067811,233.3986013988035 222.90570036024582,233.8054672597096 222.89807162534436,234.24623861007706 222.9285865649502,234.40898495454056 222.93875821158653,234.72769654577732 222.93197711389635,235.15490570015817 222.9302818394738,235.22949777505337 222.75058275058274,235.48039838928722 222.64717101080737,235.62280144078116 222.55647382930215,235.72451790633608 222.40220385685035,235.8465776649616 221.96312778141063,236.09747827949855 221.4367450731087,236.2737868193424 220.8628946811791,236.3483788935303 220.2729391820301,236.3687221871061 220.21190930292101,236.3687221871061 220.15172706081796,236.37550328429106 220.03051493960584,236.4094087729441 219.52108497583254,236.59927950847145 219.02860775588047,236.80949353656416 218.54460690834432,236.99936427209155 218.08264462809916,237.20957830018426 217.58677685950414,237.44691671974505 217.1070141979233,237.6842551385985 216.6874337784439,237.97584233968078 216.27632973097624,238.32167832147624 216.12205975852444,238.5183301544917 215.86607332061877,238.9048527227314 215.78215723680373,239.33884297500452 215.7770714135361,239.76605212938534 215.663488027227,240.1864801862781 215.4965034965035,240.57978385230902 215.4075015894208,240.97986861623227 215.38037719866006,241.09514727666232 215.34647171031017,241.16295825396838 215.1922017376563,241.3663911847751 214.90570036024582,241.71222716657053 214.5327399873865,242.0038143673497 214.03517694426628,242.1733418096044 213.78427632983193,242.2954015678257 213.44691671964557,242.4445857171109 213.24009324019428,242.57342657322448 213.17652044934877,242.62089425695476 213.11972875619344,242.66836194098818 213.07310870947234,242.7293918200988 213.0570036025592,242.79042169920947 213.0451366815003,243.64484000867847 213.08243271879635,244.04492477229854 213.2333121425041,244.458571731299 213.3858868404323,244.84509429984183 213.64187327833795,245.27908455211497 213.86056367884495,245.69273151111543 214.01398601398603,246.0860351768432 214.06484424666243,246.5200254288132 214.1555414282687,246.8997668997669 214.2326764144946,247.3201949563565 214.24115278660733,247.74740411104048 214.22335240537268,248.99512608623726 214.21233312142402,249.84276329751086 214.20724729825744,250.2631913537973 214.20555202373384,250.33778342889462 214.2165713074804,250.4123755030825 214.26742954015683,250.55477855457647 214.3030303030303,250.6158084336871 214.6302182665819,250.90061453697817 215.03030303030303,251.17185844448468 215.4744649290104,251.42275905912268 215.94405594405595,251.64653528289892 216.3941513032422,251.87031150677618 216.84339902531826,252.08052553486888 217.26467471922018,252.3449883448873 217.6935791481246,252.62301334998293 217.74867556685737,252.67048103401635 217.81394363212544,252.76541640178004 217.89616444172003,252.8671328670318 217.94193685102775,252.92138164895752 217.99872854418308,252.9688493326878 218.07162534445365,253.02309811390617 218.22843822864033,253.24009323989114 218.3335452427372,253.40962068214586 218.36151727070921,253.47065056125652 218.39881330790422,253.59949141797637 218.43271879645621,253.77579995741604 218.4344140707777,254.18266581923154 218.56071201525748,254.39287984732425 218.5980080525535,254.43356643386957 218.6268277177368,254.47425301970756 218.8556897648833,254.6709048524199 218.9057003603453,254.70481034107294 218.9396058487978,254.7454969275172 219.03538885357068,254.853994490055 219.07098961644417,254.8946810766003 219.1277813095995,254.96249205319904 219.14897223988132,255.01674083512475 219.25577452850337,255.07098961634313 219.3040898495444,255.09133290961577 219.39648230557322,255.1591438862145 219.4337783429703,255.20661157024793 219.47785547795652,255.24051705859782 219.5558381013937,255.29476584052352 219.62703962724171,255.41682559874482 219.63297308761958,255.84403475282252 219.5956770502225,256 219.54058063159076,256 207.24645051917778,255.05742742096274 198.79889807162533,254.41322314059693 192.96800169537548,253.96567069294343 192.8247510065692,253.9385463024858 192.83492265310448,253.73511337157805 192.84594193685103,253.68764568754463 192.89764780683976,253.5045560502127 192.9010383555838,253.3011231190018 192.89340962068235,253.20618775154125 192.87730451366815,253.15193897032287 192.83831320194957,253.0570036025592 192.82814155541587,252.9688493326878 192.80101716465353,252.88069506271535 192.72981563890656,252.76541640178004 192.69421487603304,252.724729815841 192.6162322525959,252.67048103401635 192.55774528511907,252.6501377407437 192.44585717323093,252.6094511549057 192.34753125662218,252.5619834708723 191.91608391618496,252.35176944277958 191.64060182252106,252.2297096845583 191.30069930080035,252.06018224230357 191.243907607645,252.04662004682214 191.1938970121799,252.03305785144175 191.13880059344868,252.01271455827015 190.6556473829201,251.8025005294701 190.33184996831466,251.70078406452149 190.26827717746914,251.70078406452149 190.01907183725365,251.6872218691411 189.95719432093173,251.66687857586845 189.84869675778924,251.63975418541082 189.7885145158883,251.6329730872154 189.49523204068657,251.61262979465008 189.37910574284317,251.58550540348514 188.9434202161475,251.4905700360246 188.8764568765579,251.48378893823335 188.48654375927103,251.4770078406442 188.09747827929647,251.5109133289941 187.98728544193193,251.52447552467763 187.93388429752065,251.53803772005799 187.8313201950576,251.5515999155394 187.77452850190227,251.53803772005799 187.71519389701209,251.52447552467763 187.65840220385675,251.5109133289941 187.5380377198559,251.49735113361373 187.002331002331,251.51769442688638 186.9438440347531,251.53125662226677 186.7022674296412,251.61262979465008 186.13011231203154,251.66009747827928 185.11464293282475,251.19898283554858 183.253231616868,250.11400720511838 182.5785123966942,249.44945963117678 182.71328671328672,249.11040474666734 182.7243059971343,249.02903157428403 182.7115914389652,248.96122059768527 182.51409196873846,248.5611358340652 182.2674295403573,248.18139436301044 182.00211909302817,247.83555838131608 181.7732570459843,247.45581691056447 181.55795719432084,247.08963763499113 181.3833439288995,246.7098961646437 181.2375503284594,246.29624920564325 181.07056579783853,245.84869675798976 180.9747827931667,245.41470650571665 180.8857808857809,245.00784064390115 180.74507310870948,244.5874125876147 180.6509853782581,244.18732782369145 180.51282051282053,243.76689976720291 180.27039627039628,243.37359610076777 180.22801440983258,243.2990040259736 180.08984954449605,242.91248145773392 179.88133079042169,242.5327399873865 179.76944267853358,242.41746132635015 179.72536554354735,242.36321254513177 179.6821360459745,242.3225259588896 179.5795719432083,242.26149607947582 179.4473405383507,242.18012290749667 179.38037719855902,242.13943632095138 179.2523839796567,242.01737656273005 178.97859716041535,241.66475948284025 178.70311506675142,241.31892350074168 178.45560500105955,240.96630642085188 178.42000423818607,240.8917143460577 178.4098325917518,240.61368934065894 178.343716889173,240.1661368936117 178.22674295411673,239.84064420448266 178.01652892561984,239.39987285411516 177.97923288842483,239.35240517038488 177.8054672600143,239.1693155327498 177.75206611580353,239.12184784901953 177.62746344564528,239.04047467663622 177.43928798474252,238.89807162554644 177.29179910998093,238.71498198750717 177.07819453273999,238.32167832147624 176.9129052766411,237.93515575323653 176.7315109133291,237.5554142828891 176.55350709896322,237.17567281183435 176.44161898707353,236.74846365745353 176.3365119728772,236.3687221871061 176.2373384191566,236.04322949797705 176.2085187539733,235.95507522810564 176.018648018648,235.55499046408138 175.8482729391836,235.13456240728968 175.6278872642509,234.68700995993933 175.4481881754609,234.51070141948918 175.36596736606842,234.39542275916017 174.21826658190295,233.07310870977548 173.15532951916796,233.07310870977548 171.82877728332275,233.91396482285364 171.6066963340701,233.98855689734467 167.55159991533733,237.18245390972663 164.00508582326606,239.66433566443672 162.32591650783573,241.00021190920177 162.27251536342445,240.97986861623227 161.86734477653673,241.03411739755168 160.3788938334377,241.2375503284594 158.14282687019906,241.89531680420563 156.60690824327187,242.18690400498477 156.20851875407433,243.00063572790845 155.34986225895318,243.8889595254242 154.74549692741616,244.08561135813653 153.89277389297598,244.05848696767893 153.3986013986014,243.92286501407725 153.06463233746067,243.75333757182253 152.61284170385184,243.57024793408638 152.19326128417038,243.3600339053874 151.89319771148058,243.08200889998864 151.58889595263335,242.77685950413223 151.2684890866709,242.47849120546078 150.83704174613266,242.26827717736808 150.45136681510422,242.05128205107997 150.264886628523,241.69188387390415 150.59546514091969,240.64759482931197 151.08370417461327,240.2746344561495 151.55838101292647,240.03051493940376 151.49141767323584,239.711803348167 150.86670904852724,239.3049374866546 150.8421275694003,237.9012502645835 150.8599279509381,235.14812460267007 151.09980928162747,234.9446916717623 151.56940029667302,234.4700148336512 151.6634880271244,234.09027336330377 151.135410044602,233.55456664567782 149.84530620914467,232.84933248559508 149.60118669209578,231.79148124622878 149.59779614335173,230.62513244331427 149.6774740411104,229.30959949151872 149.10531892350073,226.84127993218902 148.21699512608603,224.52214452214452 147.0082644628099,221.94532740007494 145.43081161262978,221.94532740007494 143.12947658402203,221.93176520429037 143.02945539309175,221.93176520429037 141.74782792974716,221.57236702691247 141.6554354736173,221.51133714780184 137.10108073754543,217.8292011022315 132.8951048951049,214.52002542911634 130.74295401578075,212.52638270830192 126.84975630430176,209.18330154724106 125.08243271879635,207.76605212978953 124.58995549904641,207.63721127337283 123.47192201737656,207.52871371022874 122.91417673235856,207.63721127337283 122.52680652680652,207.6507734687532 122.46069082432719,207.67789785951396 122.41068022886205,207.73214664143964 122.36660309397686,207.7931765205503 122.33947870331873,207.86098749714904 122.32591650773469,207.93557957204425 122.21911421921527,208.3695698239132 122.01652892561826,208.74931129496792 121.80801017174758,209.12227166782725 121.58423394787032,209.49523204088868 121.3121424030515,209.90887899999018 121.25365543547362,209.95634668361942 120.99258317440136,210.14621741884363 120.91799109991032,210.18012290719355 120.8374655647383,210.21402839584658 120.6670904852723,210.26827717706496 120.58147912693367,210.28183937274846 120.05594405604353,210.40389913096976 119.8313201950576,210.51917779170296 119.78724306007138,210.56664547573638 119.45666454767469,210.91248145773392 119.14897223988133,211.22441195148258 118.77770714144455,211.52956134794525 118.69379105752847,211.6109345197223 118.45899555000568,211.9635515996121 118.31489722398813,212.1602034329307 118.27082008920557,212.19410892158373 118.03093875821149,212.35685526604723 118.00974782792964,212.40432295008063 117.82496291597305,212.80440771370073 117.71646535282899,213.1977113794285 117.60966306420852,213.4282687007939 117.3282475100657,213.80122907365322 117.0137741046832,214.1809705446069 116.95867768595042,214.22843822864033 116.89680016952744,214.26234371668707 116.41873278247019,214.4861199408675 115.98813307914321,214.68277177388296 115.93303666030938,214.6963339689602 115.87624496735614,214.6963339689602 115.82114854842128,214.6963339689602 115.49057003602458,214.70989616434056 115.4354736172918,214.71667726223285 115.32358550550474,214.73023945761324 115.25238397975775,214.73023945761324 114.9480822208095,214.71667726223285 114.43102352193262,214.62174189446915 113.91396482305574,214.5064632334328 113.44267853358762,214.3030303028282 112.94511549057003,214.1335028605735 112.4458571731299,213.99788090666868 111.91947446503006,213.85547785547786 111.37190082644628,213.75376138992294 112.47043865235788,218.03263403243193 112.67132867132867,218.1750370839259 112.71371053189235,218.2564102563092 112.74761602034329,218.3988133081063 112.77813095994914,218.43949989394432 112.92561983471074,218.8395846575644 113.07988980716253,219.26679381224835 113.16041534223352,219.49735113391685 113.17821572366869,219.57194320850894 113.18669209578458,219.66687857617157 113.17991099809282,219.79571943198204 113.12142403071861,220.20936639098247 113.10870947234584,220.34498834519044 113.11718584445858,220.47382920100088 113.20788302606485,220.81288408551032 112.63742318287773,220.948506039112 112.10425937718874,221.0773468955287 111.5549904640798,221.21974994732582 110.99639754185209,221.36215299871873 110.49205340124536,221.51133714780184 109.94447976266316,221.66730239467617 109.41640178003814,221.86395422769164 108.91714346269906,222.053824963219 108.449247721975,222.2708200887998 108.05340114431023,222.54884509450173 107.69739351557533,222.84721339256689 107.32104259387091,223.13201949585795 107.23882178427633,223.18626827707632 107.18881118881119,223.21339266814022 107.13795295623582,223.2269548635206 107.08624708624708,223.247298156187 107.02945539309175,223.247298156187 106.94384403475155,223.247298156187 106.87264250900614,223.247298156187 106.81754609027337,223.240517059002 105.34774316592498,226.549692731713 105.02055520237339,227.17355371880618 104.56876456876456,227.6821360455703 103.32951896598365,228.2585293493374 101.52235643154839,228.80779826254582 100.37041746142759,224.56961220617794 100.29158720077916,224.28480610298791 98.69548633195102,224.29158720047602 97.91735537190083,224.31193049344554 96.98410680228862,224.23733841925764 95.61347743165925,224.1220597582213 94.54799745708837,223.79656706909225 93.60288196661938,223.48463657574777 92.72133926689486,223.0981140072049 91.59059122705591,222.51493960594973 90.92011019293693,222.09451154905702 90.20894257257893,221.45708836587613 90.14197923298937,221.36893409600472 90.13435049808791,221.2672176310561 90.0690824327188,221.1858444586728 90.02246238619979,221.15193897001973 89.98177579995762,221.12481457956213 89.91566009757932,221.06378470014835 89.86056367884812,220.68404322969988 89.83767747414215,220.49417249427353 89.82665819029455,220.40601822399796 89.78258105540938,220.31786395412655 89.7291799109981,220.24327187933238 89.61390125026489,220.15511760976412 89.57321466412375,220.1279932189023 89.41470650571664,220.08052553527307 89.30451366814846,220.03983894872778 89.02140283958465,219.8635304092881 88.71455816920466,219.50413223120287 88.4602670058226,219.20576393283457 87.9245602882977,218.6361517272629 87.29561347753271,218.06653952078184 86.38525111262489,217.4019919474465 85.73002754820936,216.7645687646698 84.98495443960094,216.0254291165403 83.96100868838246,215.54397118023377 82.91587200688214,215.1913541006471 81.69442678543692,214.68277177388296 81.4723458359822,214.63530408984954 80.1924136469591,214.62174189446915 80.08222080959459,214.49290103805245 79.86183513456241,214.27590591206746 79.80504344140708,214.2420004240207 79.56685738514025,214.14706505635806 79.36003390548845,214.10637846981274 79.28544183099743,214.10637846981274 78.7471922018387,214.09959737262778 78.19029455403196,214.06569188397475 78.13011231193049,214.04534859070208 78.06993007003112,214.02500529773258 77.88344988345146,213.9504132229384 77.82411527876178,213.9436321254503 77.7656283111839,213.9436321254503 77.2061877516423,213.93685102755802 76.67471922017377,213.97075651590794 76.11951684689062,214.07247298176597 75.72875609239246,214.15384615354301 75.16338207247298,214.1741894471188 74.61919898283534,214.1741894471188 74.05975842339478,214.1674083489234 73.50625132453261,214.15384615354301 72.97732570469948,214.038567493214 72.47382920110194,213.8486967576866 72.02627675354948,213.59779614304858 71.58720067831186,213.31299004046485 71.20830684467047,212.9942784488239 70.96079677897859,212.634880271446 70.82263191364206,212.39076075470027 70.80991735547295,212.32294977739417 70.80313625788538,212.26191989828354 70.81500317874217,211.95677050242713 70.83280356007629,211.90252172050145 70.85653740199194,211.84827293928308 70.89213816486544,211.8008052555528 70.93452002542912,211.76011866900748 70.98283534647172,211.71943208286635 71.03962703962861,211.67874549702836 71.1371053189235,211.59059122675276 71.16762025852935,211.53634244523127 71.19220173765628,211.4753125661206 71.31849968223709,211.0277601184671 71.40750158931976,210.8514515789264 71.45327399872855,210.79720279710176 71.7897859717052,210.46492901038354 72.06865861411316,210.07162534404947 72.1593557959231,209.6376350920795 72.17546090273363,208.7899978808059 72.19665183301547,208.3695698239132 72.26785335876245,207.94914176742463 72.33905488450942,207.53549480842418 72.4653528289892,207.12184784932268 72.49841068043095,206.69463869433557 72.47213392667938,206.53189235027625 72.43992371275203,206.48442466624286 72.39754185218835,206.43695698251258 72.34414070777707,206.3962703962704 72.03644840008477,206.21996185622444 71.65755456674653,205.93515575353968 71.27950837041746,205.65713074783775 71.24221233312143,205.60288196631623 71.08539944913686,205.20279720269616 70.9735113371477,204.91799110001136 70.86162322525959,204.78236914580341 70.81924136469591,204.74846365775667 70.77431659259946,204.72133926669275 70.7268489086671,204.70099597372325 70.6268277177368,204.6670904854744 70.47933884297521,204.6467471918986 69.90125026488663,204.6467471918986 69.8444585717313,204.66030938727897 69.78936215299852,204.68065268085476 69.69357914822565,204.70099597372325 69.65967365967366,204.66030938727897 69.55541428268701,204.62640389892908 69.49607967799733,204.62640389892908 69.35198135198135,204.68065268085476 68.9222292859667,204.96545878343852 68.8756092392456,204.98580207640802 68.71455816910363,205.10786183493246 68.66963339700717,205.1349862256932 68.63233735970955,205.16889171404313 68.57724094097836,205.2367026913492 68.53485908041468,205.2638270818068 68.48654375927103,205.29095147256757 68.44077134986226,205.31129476584022 68.35855054046976,205.37232464495088 68.13307904237205,205.37232464495088 68.07459207469311,205.3791057427421 68.02119093028183,205.38588684033124 67.9694850604952,205.39266793822352 67.68298368298369,205.42657342677552 67.20491629582538,205.4333545240615 66.89552871381157,205.37232464495088 66.83365119728757,205.3519813516782 66.77855477855478,205.32485696091746 66.66666666666667,205.29095147256757 66.61326552245748,205.27738927718718 66.56155965246874,205.2570459845208 66.51663488027124,205.2231404959688 66.48357702903158,205.1824539094235 66.42254714992092,205.04683195582183 66.39457512194889,204.96545878343852 66.39457512194889,204.62640389892908 66.38694638704743,204.50434414040464 66.38864166136894,204.45009535918626 66.47933884307783,204.2602246236589 66.72006781107795,203.85335876244966 66.74803983904998,203.80589107882045 66.84043229517984,203.50074168255986 66.96673023955856,203.14134350518196 66.98114007215021,203.04640813741827 67.05403687221869,202.82263191354102 67.03623649088298,202.7412587415619 66.9896164441619,202.71413435070008 66.94723458359822,202.6734477642558 66.91163382072473,202.5920745918725 66.92265310457233,202.04280567896723 66.89213816486544,201.95465140939896 66.84975630430019,201.92074592074593 66.75143038779403,201.8664971394265 66.6946386946387,201.84615384625488 66.64462809917356,201.8190294553931 66.54884509440069,201.77156177176386 66.30218266592007,201.03242212363435 65.90379317652045,200.0695062510213 66.39966094511549,197.1265098535805 69.46217418944849,192.22377622357413 72.18224200042381,189.2061877516423 73.4511549058014,183.0421699513619 74.39711803358271,182.7098961646437 75.72706081796991,182.28946810785203 76.79847425312076,182.296249205037 77.7122271667742,182.4657766472917 77.90125026498768,182.53358762459777 77.90125026498768,182.76414494596312 78.39542275916017,183.17101080737444 79.60245814801374,183.76096630621876 81.04598431871159,184.73066327631992 82.0834922654115,185.17821572336712 82.77346895538818,185.26636999394586 83.37105318923501,185.30705657978385 83.41513032422124,185.25280779846443 83.6338207247314,184.8934096207834 83.96100868838246,184.5340114430013 84.27378681924137,184.16783216803427 84.67556685748609,183.82877728352483 85.09175672822141,183.51684678947302 85.456240728968,183.22525958869386 85.86310659037932,182.93367238821784 86.28607755890587,182.64208518774183 86.69463869473974,182.3572790847539 87.11760966316525,182.0724729815639 87.53719008264463,181.83513456230625 87.64568764568764,181.80122907395634 87.69908879009893,181.78766687827283 87.75079465988557,181.78088578108787 88.30684467068312,181.7673235857075 88.36024581479127,181.7673235857075 88.61623225269693,181.73341809705445 89.15872006781255,181.72663699916217 89.72070353888536,181.72663699916217 90.14706505615597,181.78766687827283 90.68955287137105,181.91650773468956 91.05912269558738,181.9300699297668 91.11591438874271,181.9300699297668 91.50667514324087,182.00466200456097 91.5617715618726,182.01822420024448 91.61686798050434,182.03178639562486 91.90336935791481,182.22165713054594 91.99915236288977,182.3979656709961 92.01186692095783,182.4725577454871 92.05933460478916,182.62174189416604 92.08306844670481,182.69633396926332 92.0974782793975,182.77092604345123 92.11866920967935,182.84551811834643 92.15766052129689,182.9133290949452 92.24496715405806,183.01504556060115 92.3670269125825,183.1167620255498 92.42042805679169,183.1642297095832 92.48484848484848,183.20491629602748 92.87730451366815,183.39478703094858 96.27463445665472,185.36130536130537 96.40093240103344,185.42911633800514 96.5289256200368,185.21212121202018 96.83407501589319,184.87306632751074 97.04428904439008,184.66285229941803 97.13837677474041,184.55435473627395 97.17906336087997,184.49332485716332 97.37825810553083,184.33057851209355 97.71985590167408,183.99830472577955 98.06653952118602,183.67281203634735 98.39542275905912,183.34053824962916 98.77601186692095,183.00826446270887 99.11676202585294,182.66920957819943 99.45327399893064,182.3572790847539 99.82284382284382,181.97075651621105 99.87031150667514,181.9504132233426 100.17461326552235,181.60457724063775 100.41618987073532,181.3808010174678 100.79508370427565,181.03496503476293 101.15363424464438,180.68912905306854 101.49353676636508,180.35007416855913 101.84022038577598,180.0110192840497 102.17757999586286,179.6923076921056 102.53019707565161,179.36003390548845 102.97266369993643,179.01419792308673 103.07777071413435,178.95994914186838 103.13286713296817,178.9396058485957 103.2388217843758,178.88535706737733 103.28883237994356,178.8514515787243 103.45073108719576,178.79720279740488 103.60923924560288,178.729391820503 103.65670692943421,178.7090485269272 103.71180334826803,178.70226742933806 103.75672812036449,178.67514303857732 104.23649078194532,178.65479974601197 104.2898919263566,178.66158084319693 104.51536342455537,178.68870523395768 104.57045984318711,178.68870523395768 104.67726213180758,178.71582962512264 105.11972875609239,178.79042169961366 105.21551176106735,177.9360033904478 104.37126509853782,177.92244119506742 103.80250052987589,177.95634668372045 102.99046408147422,178.11909302838603 101.01716465352828,174.80991735506876 97.84276329751084,168.53740199164432 94.28522992159355,162.9565585926191 92.43822843832949,161.86480186459977 90.38186056377822,160.65098537835914 86.87603305784967,159.6134774315582 86.8082220810504,159.6202585294505 86.71243907607544,159.6134774315582 86.65395210869966,159.60669633396907 86.59376986649714,159.59313413858868 86.54206399660787,159.57279084572022 86.49035812682281,159.5660097475248 86.43695698241153,159.5660097475248 86.3623649079205,159.5524475521444 86.24878152160984,159.5321042591749 86.13095994924281,159.5185420637945 86.01907183725366,159.50497986841415 85.66730239457512,159.37613901230057 85.56812884085612,159.34223352435484 85.50709896174546,159.32189023077905 85.2799321890231,159.20661157004585 85.03496503506608,159.05064632357568 84.59588895962636,158.7929646113485 84.19749947022675,158.59631277802993 84.01949565585929,158.52850180102698 83.90591226964968,158.47425301950548 83.68213604577241,158.35897435877226 83.46175037084129,158.20979020948707 83.11082856537402,157.97923288812171 82.95994914176732,157.88429752035802 82.75397329953047,157.77579995782023 82.26319135410044,157.592710319882 82.0656918838737,157.51811824508783 81.51133714780183,157.3621529982135 81.03326976054248,157.27399872864524 80.96206823479551,157.26043653326485 80.43907607543971,157.13837677504355 80.17122271667726,157.0705657977375 80.11782157246807,157.0570036023571 80.04662004662005,157.0570036023571 79.62195380377199,157.05022250476796 79.26933672388218,157.07734689562977 79.15066751440493,157.08412799311785 79.03538885357067,157.10447128639052 78.7361729179911,157.11803348146776 78.67938122483577,157.11803348146776 78.59800805255351,157.09090909101013 78.55138800603292,157.06378470014835 78.38101292656852,156.88747616010238 78.32591650793678,156.81966518309946 78.25641025641026,156.69760542457502 78.19283746556474,156.61623225289904 78.14791269346829,156.582326764246 78.12672176318645,156.47382920110192 78.08603517694426,156.3924560287186 75.66857385049308,154.83280355977314 74.01483365129833,153.00190718362433 71.74486119940823,150.3979656703898 71.593981775901,150.2759059121685 69.645263827082,149.5435473615271 66.6878575969485,148.28904428914532 63.747404111040474,147.06166560712015 62.99215935579572,146.85823267661658 62.61835134562249,146.8853570670742 59.30493748675409,147.10913329115357 56.65098537825653,146.20724729805534 55.63636363646468,145.81394363192337 54.777707141343505,145.90887899999018 54.32083068446705,145.9563466834173 53.60288196661938,146.24793388449962 53.069718160627254,146.3564314470374 49.0663276118832,146.85823267661658 47.94405594415699,147.2515363423444 47.10150455605001,147.52278025025507 45.050222504769536,147.5431235428204 41.336723882178426,147.9974570883662 33.95295613477432,146.64801864781654 28.344140707777072,146.3835558381013 23.8770926044648,146.5937698665982 15.477855477855478,146.2343716888161 15.40495867768595,146.24115278670837 11.334604789150244,146.53273998748753 5.121424030514939,146.68870523436186 4.142403051595007,146.64801864781654 3.4329307056563994,146.6005509643894 2.877728332374833,146.52595888929213 2.590379317652045,146.47849120556185 1.9766899766915556,146.0648442465614 1.710531892350074,145.59694850634256 1.2392456029830128,145.50879423576382 0.9476584022038568,145.31892350094378 0.9756304301758847,145.1765204494498 1.0985378259115992,145.081585081383 1.2977325704598432,145.040898495545 2.302182665820608,144.8713710532903 2.42085187539733,144.0305149395048 2.5157872430599704,144.00339054874405 2.556473829201102,143.97626615828642 2.5759694850603942,143.9016740837954 3.175248993531858,143.92201737636074 3.4702267430550617,143.39987285421623 3.4897223988133077,142.82347955075227 3.7084127993203113,141.92837465584947 3.75588048315321,141.81309599481312 2.6793812249368165,141.66391184583108 2.7107438016528924,141.18923500771996 3.4880271243907606,141.06039415130323 3.537190082643049,140.72133926679382 2.702267429641203,140.38228438228438 2.767535494808222,140.09069718180837 2.947234583699266,139.19559228650138 3.238821784377376,138.69379105722533 3.283746556473829,138.59207459197356 3.3939393940404403,138.2191142188111 2.5725789362153,138.15808433970042 2.2843822844833306,137.34435261677675 2.1513032423133795,136.90358126731869 2.047891502436957,136.55096418732782 1.6359398179616709,135.87285441830898 1.969908878999788,134.8353464719122 1.9182030092131463,134.8150031783364 1.916507734790599,134.4827293920224 1.8953168045087598,133.87921169749455 1.8385251113534302,133.56728120344275 1.80292434847994,133.41131595656842 1.816486543759271,133.0383555840122 1.6910362365918281,132.92307692307693 1.2121212123233045,132.71964399216918 1.5944055944055944,132.34668361961297 1.9927950837041746,132.07543971180334 2.493748675566857,131.72282263191354 2.2699724518916797,131.4787031151678 2.0724729816649368,131.32273786829347 2.0623013350286077,130.97690188589175 2.242000423919652,130.84806103018235 2.670057215511761,130.96333969051136 2.9701207884036527,130.1157024792378 3.015045560500106,130.00042381890879 2.7344776435685527,129.9326128416027 2.453062089525193,129.83767747383902 2.2877728332273786,129.75630430175886 2.161474888747616,129.69527442234505 1.884297520661157,129.6003390548845 1.9360033905488452,129.5528713712553 2.7090485273313916,128.80695062493035 3.4312354312354314,128.12205975862548 1.9910998092816274,128.24411951684678 1.7385039203221022,128.01356219517828 1.2587412587396798,127.48463657554566 0.21869040050858232,127.15914388641662 0.25429116338207247,126.97605424878152 0.39838948939962643,126.33863106560065 0.16189870735325282,126.04704386512464 0.007628734901462174,125.95888959525323 0.0534011444097026,125.72155117599559 0.10849756314406382,125.70120788302606 0,125.50455604970746 0.25429116338207247,125.49099385432707 0.2771773681875052,125.22653104491495 0.4322949777495232,125.17228226339344 1.0434414070777707,124.9281627466477 1.7529137529137528,124.59588895932323 1.900402627675355,124.62979444767313 2.1496079678908324,124.6704810341174 2.493748675566857,125.01631701621596 2.5615596524687434,125.00953591862682 3.5270184362103914,124.68404322949777 3.663488027124391,124.65013774124893 3.9516846790584523,124.54842127589609 4.058486967678923,123.91777919030437 4.285653740199194,123.95168467865427 4.419580419580419,123.75503284594194 5.77579995761814,123.53803771995695 6.047891502436957,123.50413223130391 6.1385886840432295,123.52447552457657 6.244543335452426,123.57194320860998 6.312354312352734,123.62619198952521 6.36745073118972,123.7211273572889 6.40983259175182,123.75503284594194 6.579360034006535,123.687221868939 6.842127569400296,123.57194320860998 7.153210425937699,123.40241576635526 7.661792752701843,123.17863954217486 8.068658614214206,123.00233100243204 8.024581479126933,122.83958465766543 7.942360669734443,122.60902733599693 7.896588260224624,122.38525111282698 7.821996185733595,122.1072261074282 7.805891078618352,121.9648230556311 8.41025641025641,122.00550964207537 8.881542699825564,122.04619622831756 9.430811612629794,122.27675354968291 10.091968637423182,122.5547785550817 10.180970544707954,122.43949989374221 10.393727484737623,122.10044500923279 10.495443949989404,121.89701207862817 10.544606908243273,121.74782792934298 10.599703327178148,121.56473829201101 10.633608815528044,121.41555414302896 10.665819029455394,121.21212121212122 10.698029243584836,120.94087730451366 10.748039839151023,120.70353888535706 10.815003178637964,120.40517058668563 10.887899978910117,120.01186692126097 10.921805467260013,119.93049374857452 11.092180546827047,119.68637423182878 11.226107226208272,119.51006569168179 11.297308751955253,119.45581691046341 11.399872854418309,119.41513032422124 11.778766687958644,119.23882178447842 12.075439711904394,119.1099809280617 12.347531256622165,118.9811400723523 12.594193685102775,118.85229921593557 12.684890866709049,118.79126933682493 12.80610298792117,118.77092604355227 12.943420216248535,118.77770714144455 13.284170375079466,118.86586141101282 13.821572367026912,118.9811400723523 13.881754609128382,118.98792116953726 13.933460479016071,118.9811400723523 14.04873913964823,118.81161263009758 14.125026488662852,118.7166772623339 14.173341809806493,118.70311506695353 14.23691460065201,118.6963339687581 14.348802712540122,118.70989616413848 14.41830896376351,118.6963339687581 14.482729391921348,118.64208518784287 14.653104471387335,118.4522144523155 14.688705234260826,118.39118457320485 14.939605848696758,118.07925407915303 15.106590379317652,117.8622589528649 15.134562407491773,117.80122907375426 15.225259588996998,117.64526382687991 15.33206187761747,117.48929858000558 15.387158296350252,117.44861199386445 15.445645263827082,117.44861199386445 15.515151515252562,117.46217418924482 15.805043441508124,117.53676626373586 15.877940241576605,117.54354736193127 15.938122483678075,117.5096418729751 16.007628734901463,117.4350497987872 16.066115702580387,117.23161686787945 16.091544818817546,117.1231193047354 16.098325916507736,117.04852723024436 16.080525535172036,116.91968637443392 16.057639330467648,116.66200466170152 16.00423818605637,116.38397965660589 15.984742530197076,116.22801440973154 16.39330366603094,116.22123331224346 16.84509429964133,116.21445221435117 16.956982411729957,116.2008900189708 17.112947658402202,116.1059546512071 17.229073956348262,116.05170586998874 17.914812460267004,115.69230769220664 18.334392880049517,115.46853146832937 18.530197075752668,115.14303877960451 18.668361941089213,114.91248145823914 18.752278025006877,114.86501377420574 18.851451578724305,114.81754609047546 18.90909090909091,114.77007840644204 18.9285865649502,114.72261072271176 18.901462174189447,114.66836194108922 18.814155541529313,114.5463021828679 18.757363848373984,114.45814791239023 18.74888747626125,114.38355583820234 18.760754397118035,114.1394363214566 18.778554778655824,113.80038143694716 18.792964611247477,113.56304301738638 18.83365119738861,113.22398813287695 18.831955922865014,112.98664971392245 18.853994490358126,112.83068446714915 18.892985802076712,112.38991311698375 18.894681076499257,112.30853994490359 19.160839161041253,111.99660945125595 19.571943208306845,111.33884297540871 19.760118669310625,111.06081796970679 20.31871159153991,110.3420216145468 19.50413223140496,109.75884721329162 20.517058699078973,108.82305573244977 20.288196651833015,108.6738715827604 20.20089001907184,108.63318499661926 19.870311506673563,108.33481669825098 19.943208306945717,108.26700572165223 20.30599703326976,107.79232888354112 20.3966942149755,107.77198559026846 20.910362365010446,107.358338631268 21.10786183523561,107.20237338439365 21.56982411527866,106.86331849988423 21.470650561761744,106.70735325270675 22.36829836829837,105.85971604143317 22.007204916396873,105.57490993874839 21.83259165077347,105.25619834690535 21.93600339064989,105.20873066317507 22.396270396270396,104.59843187115915 22.702267429540157,104.22547149799668 22.862470862469284,104.06272515393738 22.95994914186837,103.99491417663131 23.041322314049587,103.89997880886763 23.230345412163594,103.4931129476584 23.299851663589074,103.06590379297442 23.60161051080089,102.92350074148047 23.951684678958983,102.61835134532093 24.289891926255564,102.57088366159066 24.40856113593491,102.57088366159066 24.472981563890656,102.55732146621028 24.52044924782302,102.4759482941301 24.628946810764994,102.12333121424031 24.675566857486086,102.10298792137183 25.364695910150456,101.43844034773335 25.242636151929155,101.26891290547863 25.139224411951684,101.09260436502849 25.075651621106168,100.88239033693579 25.0519177793926,100.68573850422347 25.128205128306174,100.50264886658837 25.162110616656072,100.44161898707354 25.084127993218903,100.27209154481882 24.972239881431836,99.89913117206054 24.895952532417216,99.51938970100579 24.789150243796744,99.16677262111598 24.68065268065268,99.13286713306923 24.591650773570002,99.08539944903582 24.55944055944056,98.95655859302327 24.40686586151236,98.71243907627753 24.31955922865014,98.60394151313346 24.211061665709746,98.55647382940319 24.016105107014198,98.5361305358274 23.666030938859258,98.3733841917681 23.566009747928977,98.3733841917681 23.251536342445434,98.32591650773469 23.155753337571518,98.29879211727707 23.08455181182454,98.36660309357268 22.98876880705167,98.34625980060316 22.965034965034967,98.22420004238187 22.865861411315958,98.11570247954093 22.825174825275873,97.91905064622233 23.005721551176098,97.86480186500395 22.851451578724305,97.34265734285944 22.509853782581054,96.75270184371198 22.659885568976478,96.19665183291443 22.692943420216146,96.07459207469311 22.634456452739318,95.84403475332776 22.538673447764356,95.23373596121078 22.554778554778554,95.15914388611347 22.561559652468745,94.90824327218277 22.462386098749736,94.72515363444664 22.444585717414036,94.62343716858858 22.425090061453698,94.54206399681155 22.243695698241154,94.29116338227456 22.114007204916295,93.95210849776514 22.005509641974324,93.68764568774674 22.243695698241154,93.42996397521642 22.26488662852299,93.2943420213116 22.23606696333969,93.09769018829614 22.183513456341775,92.86713286693077 22.094511549055426,92.46704810331069 22.03178639542276,92.36533163836205 21.980080525535072,92.29752066105598 21.94447976266316,92.12799321880127 21.82750582750425,91.49735113381581 21.765628311182326,90.98198770946253 21.525746980393482,90.4462809916345 21.318923500741683,90.14113159577809 21.162958253867345,90.0529773259067 20.801864801864802,89.6935791481246 19.894892985903123,89.06293706313916 19.638906548098504,88.84594193685103 19.541428268800463,88.79169315553162 18.993854630218266,88.3644840005445 18.993854630218266,88.25598643770357 18.242000423919652,81.06124178821138 18.297096842652433,80.78321678311573 19.766899767002393,74.94469167196439 22.289468107750974,69.59440559430455 23.894892985802077,65.82411527886282 24.766264038991313,63.823691460055095 24.789150243796744,63.76944267823045 24.883237974147065,63.36935791461037 24.961220597584234,63.04386522548131 25.20534011453207,62.37931765184283 25.390125026589708,61.91820300880896 25.457088366179274,61.73511337117387 25.61559652478848,61.314685314887406 25.80207671116762,60.51451578704097 25.861411315956772,60.23649078164219 25.926679381325883,59.94490358116617 25.936003390548844,59.849968213402484 26.197075651621105,59.82962492083715 26.556473829403195,60.02627675354948 26.88281415554143,60.02627675354948 27.227802500529773,60.0194956556572 28.768806950625134,58.40559440549336 28.00678109769019,56.981563890452705 28.534859080313627,56.832379741167514 28.956134774417638,56.85950413223141 28.922229285965116,56.79847425281761 28.968001695274424,56.7374443740101 30.194532739988865,57.40877304523773 31.094723458359823,57.88344988334884 31.464293282576147,58.100445009636964 31.94405594415699,58.419156600873734 32.32464505191778,58.683619410589 32.50010595465141,58.778554778655824 32.773892773892776,58.846365755254574 33.81902945539309,58.981987709563576 34.219114219215264,58.94808222091054 34.67429540156813,58.85992795103913 35.02436956992516,58.853146852843714 35.32867132877237,58.866709048224095 35.121000211909305,58.5208730665297 35.299851663589074,58.31744013562195 35.43208306844671,58.263191354302535 35.716041534325974,58.39881330790422 35.790633608815426,58.40559440549336 35.85674931139581,58.40559440549336 36.69591015045718,57.47658402183647 36.99427844892495,57.61898707333044 37.49947022674296,57.79529561378057 38.03941513042527,57.80207671096553 38.11061665617225,57.38842975196507 38.33608815437102,56.920534011645195 38.61157024803493,56.53401144310235 38.987073532629125,55.84912057629226 38.8073744437365,55.8287772830196 38.59037931775309,55.45581691016027 37.92413646959101,55.20491629592643 38.245390972764746,54.81161262949131 38.47849120586656,54.628522991856215 38.5835982200629,54.10637846971169 38.82687009959737,53.76732358520226 39.15236278872643,53.90294553910708 39.59652468743378,54.00466200476305 39.65331638058911,53.74698029223275 39.87370205552024,53.60457724114297 39.96439923712651,53.45539309145359 40.04153422335241,53.367238821582184 40.08561135833863,53.31299004026277 40.257681712328214,53.17736808666109 40.36787454969273,53.08243271859426 40.63657554566645,52.7569400298694 41.02394575121848,52.200890019374974 41.40623013350286,51.66518330174903 41.74189446926982,51.40750158901663 41.945327399871275,50.79720279730385 42.32930705668083,50.48527230325203 43.02606484424666,50.06484424635929 43.50413223140496,50.36999364251882 44.929858020767114,50.180122907395635 45.76308539944903,50.81076499268422 46.02839584667871,50.593769866396094 46.14028395846578,50.512396694012786 46.25895316804408,50.46492901058565 46.44797626615651,50.40389913086872 46.59376986659819,50.34286925175807 46.65564738292011,50.28183937264742 46.74295401578233,50.180122907395635 46.84212756950134,50.05806314917433 46.93452002553016,49.895316804104574 47.03793176520449,49.66475948273921 47.16592498420785,49.34604789150244 47.25831744023509,49.16973935135544 47.36681500317864,48.95952532295959 47.43632125460412,48.78321678341887 47.46429328257614,48.559440559339514 47.45581691046341,48.23394787021046 47.43632125460412,47.66433566403253 47.40072049173063,47.447340538047534 47.354100445009536,47.20322102130179 47.30832803570023,47.07438016549135 47.193897012179875,46.98622589501367 47.0659037931781,46.8980716254454 47.028607755880486,46.80991735516981 46.91502436956982,46.613265522154336 46.75905912269548,46.389489298681255 46.55223564324578,46.125026488662854 46.36066963349795,45.9215935577551 46.17757999586128,45.6571307477367 46.07586353040899,45.47404111010161 46.010595465140916,45.25704598411662 45.97329942794751,45.019707565263154 45.934308116126296,44.81627463465855 45.91226954863318,44.531468531670626 45.90887899988914,44.260224623860985 45.926679381226414,43.995761813842584 45.94108921381649,43.731299003824184 45.9165077347906,43.5075227803511 45.861411316158865,43.317652044823724 45.719008264563854,42.95825386734477 45.59101504566155,42.72091544818817 45.48421275694161,42.54460690804118 45.43250688705234,42.40220385654722 45.41979232888324,42.314049586675814 45.477431659350884,42.069930069626935 45.58762449671541,41.69018859958265 45.68849332485538,41.32400932421142 45.77579995771919,41.05954651429406 45.889383344029845,40.76795931341386 45.98347107438016,40.639118457401324 46.10637847011588,40.45602881976623 46.19029455393092,40.31362576796913 46.33608815426997,40.1169739352568 46.4810341174988,39.845730027346114 46.652256834176065,39.527018435806205 46.70904852743244,39.452426361618315 46.83534647181116,39.33714770058197 46.88111888111888,39.26255562609094 47.01843610944625,39.018436109042064 47.1371053189235,38.80144098305707 47.27442254714824,38.59122695496436 47.532104259376986,38.29285865629293 47.668573850493075,38.089425725991454 47.80928162756607,37.80461962280144 47.99237126519959,37.44522144501935 48.18817546090116,37.14007204916296 48.32464505201882,36.916295825588826 48.40517058698719,36.773892774195915 48.45433354524263,36.78067387138087 48.481457936104434,36.739987285542874 48.760330578512395,36.29921593537748 48.87391396482305,36.068658614315254 49.00784064420428,35.71604153442544 49.02903157448612,35.4854842124538 49.06039415140429,35.12608603537904 49.07480398399594,34.86840432315187 49.057003602458146,34.63106590399527 49.04089849544395,34.46153846174055 48.96122059768528,34.19029455413301 48.849332485898216,33.79699088810207 48.7552447553458,33.48506039405026 48.77134986236,33.39012502628657 49.03072684900971,33.451154905397225 49.31129476584022,32.433990251868934 50.49713922441195,32.271243907809634 51.154905700360246,32.169527442456804 51.86776859504132,32.06781097659875 52.78999788100802,31.945751218377445 53.757151939071164,31.91862682791983 54.453909726637,31.925407925104786 56.49841068032991,31.932189023300207 57.93854630228371,31.945751218377445 59.17694426785336,31.9728756091382 61.38334392880005,32.08815427017454 62.66836194108763,32.1491841492852 64.18478491205764,32.169527442456804 66.12756940029668,32.19665183331861 67.49141767323586,32.189870735123186 68.76711167630363,32.22377622377623 70.68955287147053,32.18308963793823 72.09663064208519,32.1491841492852 72.85611358348736,32.15596524707643 73.6681500317864,32.19665183331861 74.90739563466836,32.359398177377905 76.74931129486689,32.603517694123646 77.46726001271456,32.72557745264809 78.93706293706293,32.86119940695709 79.64144945963127,33.01038355593915 81.61305361305361,33.49862258943063 82.90993854640323,33.89870735305072 83.88472133936942,34.102140283655324 84.01271455816911,34.129264674416085 85.08243271879635,34.3733841917681 85.74698029243484,34.51578724295892 86.40474676848417,34.658190294452886 87.62958253867345,34.92943420195938 87.77707141363715,34.97690188568966 88.04238186056368,35.058275058072965 88.70523415977961,35.15321042613979 89.4308116126298,35.24136469570806 89.98008052563611,35.302394574818706 90.67683831320196,35.390548845296394 91.40241576605213,35.4854842124538 92.48061029889317,35.65501165470852 93.43420216157594,35.797414706202474 94.00974782792964,35.88556897668016 94.26742954025787,35.926255562922336 94.77431659249841,36.095783005177054 95.18796355159992,36.25174825205139 95.88556897657911,36.489086670601715 96.58232676414336,36.70608179688984 97.22568340760105,36.90273363020845 97.76054248781521,37.092604365129546 98.15554142826713,37.22144522154627 98.46492901038356,37.282475100960056 98.95316804407713,37.2960372960373 99.17524899353185,37.2960372960373 99.80504344150812,37.37062937052833 100.1873278237925,37.418097054561734 100.50858232676414,37.47912693367239 101.31977113795296,37.63509218054673 102.12502648866285,37.811400720289534 102.74464929020488,37.91989828373674 103.30154693801005,37.960584869978916 103.51091332909515,37.97414706505616 104.01101928374656,38.06230133492756 104.57215511771071,38.1775799959639 105.11972875609239,38.27929646091255 105.42911633840934,38.3064208516733 105.97499470226742,38.31320194956559 106.53867344776435,38.27929646091255 107.26594617503709,38.170798897768485 108.13307904227099,38.00805255370919 108.86882814165646,37.79783852490916 109.3841915661108,37.621529985469486 110.03856749311295,37.33672388187529 110.89044289044288,36.98410680198548 111.64399237136614,36.65183301567147 112.26615808444095,36.35346471700004 112.96291587200677,35.980504343837566 113.42996397551957,35.749947022472206 114.06823479550752,35.390548845296394 114.73363000635727,34.97690188568966 115.37190082644628,34.60394151283033 115.98643780461963,34.1699512609614 116.16783216783217,34.054672599925055 116.88747616020343,33.68849332495801 118.04365331648164,33.14600550954083 118.48781521518899,32.69167196470237 119.2108497563043,31.864378045994137 119.58126721763085,31.430387794024156 119.83725365553651,31.09811400710387 120.17461326552235,30.609874973612385 120.35600762873648,30.311506674940947 120.58741258751364,29.85717312969831 120.86289468117755,29.219749947224766 121.07565162110616,28.833227378681926 121.9020979020979,27.46344564526383 122.15808433990252,27.02945539299071 122.33947870331873,26.839584657463337 122.68616232252596,26.222504768161407 123.13286713286713,25.408773044934588 123.43123543123386,24.676414494697358 123.59821996185475,24.242424242424242 123.90252172070353,23.855901674184537 124.42127569410401,23.29985166338698 125.03666030948862,22.655647383021158 125.53083280365955,22.187751642095005 126.07247298156389,21.75376138982189 126.96673023945752,21.028183937072754 127.7050222504768,20.46535282909024 128.77982623447272,19.7465564738292 129.24772197519678,19.454969273353182 129.93515575333757,19.054884509429964 131.25492689129052,18.336088153966834 132.59165077346896,17.61729179941312 133.14770078406443,17.285018012088646 134.22165713074804,16.708624708725754 135.3693579149135,16.084763720925267 136.21275694002966,15.637211273271772 136.90188599279665,15.271031998304725 137.4426785335876,14.986225895316805 137.78597160425446,14.78279296481324 138.21911421911423,14.613265522558525 139.45666454757364,14.192837465665784 140.08561135833705,13.955499046104999 140.64420428056792,13.670692943521262 141.11888111888112,13.39944903561058 141.2180546727012,13.318075863631455 141.5842339478703,13.06039415110115 142.9548633184997,12.32803560086392 144.17461326552237,11.643144734255918 145.46471710118178,10.924348378792788 146.28607755880483,10.49713922471509 147.68128840866376,9.75121847839016 149.14600550984397,9.032422123533307 149.92667938122483,8.71371053189235 151.36088154269973,8.015257470005016 152.3492265310447,7.5541428269711455 153.10701419802433,7.147276965155645 154.53443526180902,6.258953168347216 155.96185632559374,5.3570671751479475 157.46047891502437,4.52977325714703 158.28183937274846,4.082220809493537 159.38037719866006,3.4990464082383634 160.72049162958254,2.800593345946845 161.85971604163527,2.203856749311295 163.0701419792329,1.5596524689454703 163.66772621328022,1.2884085610347877 164.63318499682137,0.8476372112735749 165.5308328035601,0.5967365966355505 165.9360033906499,0.5763933036660309 166.3411739775376,0.5899554990464081 167.63721127367594,0.49502013168690645 168.93155329518967,0.36617927496704566 170.14706505615595,0.2102140280927079 171.36342445433354,0.06781097690188599 171.97457088376285,0.00678109748809614 174.07925407935514,0 175.4125874125874,0.020343292868473337 176.261919898383,0.07459207449102837 177.11888111888112,0.12205975852444102 177.8012290740574,0.16274634436243393Z"/></svg>