<svg xmlns="http://www.w3.org/2000/svg" width="256" height="256"><path d="M231.70095941950837,11.810177306368876 232.2112757229645,12.219818965049374 233.2996033493989,13.240451571237427 234.21261823226797,14.212482625863286 235.01107231244703,14.983164390006726 236.49862697891925,16.239861680945797 238.32986405397872,17.218835813701155 240.09514187884156,18.156151473334198 241.3379530120732,18.579679289618674 242.51133335593994,18.59356544753303 243.35491744913378,18.50330542119316 243.6621486930924,18.392216158085212 245.63745465630646,17.413242025019475 247.32462284290102,16.718934129301548 249.2096687799821,16.10100010200913 251.83241685595314,15.656643048335818 253.16028070641022,15.503895311795173 253.84590975343167,15.483066074406334 255.4393463741043,15.691358443639013 255.72921992056655,16.42732481278964 255.85940265101365,17.447957419598453 255.85593111163854,18.32278536809958 255.78650032196327,20.884781503609116 255.85940265101365,22.19702342661946 256,23.884191613007104 255.9149472826711,25.154775061860533 255.8819676576245,25.328352035790015 255.3629725056788,26.34898464290921 254.69470115594683,27.3696172495111 253.43106078584367,28.424965251002355 252.87040715994797,28.952639251851437 252.5076312846423,29.369223988764897 252.16915618527287,29.81358104243821 251.74909990836352,30.542604333148955 251.01660507848456,31.854846255745457 250.67118690026143,32.479723361891594 250.11226904431197,33.840566837809114 249.6627046818346,36.249815235433026 248.9562463979416,40.262914873199946 248.3608773773635,43.71362511440075 247.61449638936327,46.08815811796298 247.01392005956725,47.28236769880474 246.6303149471831,48.69181272690521 246.21199444001306,49.78881920193262 245.5767027155346,50.802508729991175 243.7871241142182,53.093724786067256 243.08240160016794,53.794975760225064 241.3535749398303,55.26690849956091 239.3730616672949,56.66941044860074 236.57326507781238,58.55792792474659 236.0074041426988,58.98145574165183 235.09265349009044,59.91182832150001 233.91927314643058,61.34904566584304 232.86392514493934,62.97372614202991 231.94049564353105,64.66089432841756 230.84522493813947,67.04931348937686 230.57618062844531,67.78527985914823 230.29845747015813,68.54901854423103 230.0641285554568,69.45856188762151 229.30386140964566,72.31216733933259 229.11292673821978,73.27725531407012 228.9688578498583,73.58969386766049 228.63038275069582,76.24889310763939 228.581781198099,76.83905481941348 228.15651761186834,78.30404447927485 228.0055056445497,79.98426958711914 227.98294063793884,81.51174695759514 228.10270874995018,82.56709495908638 228.34224497407632,83.54606909215212 228.9046343695044,84.38618164555697 229.63539342974752,85.14297725209643 230.34011594400468,85.69148048981705 231.07087500435125,86.13583754317999 232.46469810490154,86.66351154340832 233.46797301411047,87.14258399176407 235.44848628664587,88.21876123033377 234.61184527230577,89.28799538973938 233.61030613273266,91.1140251550637 232.6573685458598,93.00948571037364 232.33798691382955,93.64824897464105 231.42670780069977,96.24496050452264 230.35400210191904,97.62663321710478 229.6596942062011,98.64032274454257 229.0226667118799,99.47349221950755 227.50560395963277,101.19537580088802 225.70040343076616,102.91725938226847 224.280543784023,104.13229819977485 222.72529409761484,105.24319083333737 219.02810455302034,107.04839136220399 215.6850120351385,108.71473031192701 214.40227819769618,109.35349357557367 211.47577041734857,110.65184934066966 202.87329558929997,110.72822320909516 202.60598704944857,110.73516628856964 200.81640844833908,111.23506797296925 198.64148896489922,112.01963589502705 197.58961250299,112.43622063287165 194.9790148150906,113.35965013386611 194.4096823406019,113.54711326570995 192.581916805021,113.72069023963944 190.61355392066068,113.69986100297481 187.10903481702442,113.62348713454931 184.84038376786955,113.3318778180374 183.12023595633184,113.19995931785098 180.56865443936155,113.15135776566804 179.02729091086775,113.14441468619356 177.7532359223288,112.97083771226407 176.07995389354514,112.65145608023383 173.94842865379456,112.1584974742741 172.6431298097414,111.72802657923935 171.88112689439788,111.49196189479872 168.8782452453144,110.06168762920595 167.73263721727636,109.52012747106326 165.25395802966682,108.63141336402703 163.78376106038064,108.20788554805293 161.8240770247168,107.94404854778357 159.3419262975252,107.75658541583627 156.4258331355099,107.49274841494616 155.36354205506146,107.55523612576769 154.59806760003244,107.68021154679 153.92458894118604,107.81907312603704 152.8935417161484,108.08291012672024 152.09508763596932,108.20094246857845 150.6266264365259,108.31203173199677 150.12498898197316,108.41617791666484 149.4376241652124,108.58975489059432 148.7190154930409,108.71473031192701 147.79558599183952,108.81887649587087 147.09259924732163,108.85359189086368 143.6818117097108,108.90913652252111 142.41469980002557,108.85359189086368 141.11807980466887,108.98551039136046 138.74007526193844,109.3882089702561 136.56862731797716,109.98531376078044 135.58444587579697,110.30469539281069 134.44404515718375,110.76988168283823 131.8230328507451,112.39456215902511 128.80800081359,113.97064108240826 125.71312336842735,115.45645997893425 122.65990439700775,116.71315727059755 121.76424721153163,117.04642506054215 119.71603891916374,117.72684679834572 117.15577855370388,118.3586669835525 114.68057090546947,118.7266501677657 111.79572159876147,119.0599179577103 109.69023290499686,119.24043801111426 107.14559446719065,119.07380411562465 104.81098416783912,119.07380411562465 102.65515815163495,118.98354408928479 97.46173509166485,118.8932840632553 90.19233142349815,119.00437332636325 85.2002576533897,119.12240566822145 82.3865749059928,119.4765026955549 80.39911855439676,119.38624266911157 77.42748076072404,119.38624266911157 74.16770519032836,119.58064887949874 72.1472692137892,119.79588432717131 69.94110587514548,120.32355832781347 67.62385327329035,120.87900464490511 62.36620673296635,122.67726209471108 58.632566023639725,124.28111333350911 57.15021866628195,124.940705834855 55.0638234398565,125.9960538364497 51.99845408005493,122.61477438419993 53.071159778939126,122.03849883034022 54.239332813691455,121.40667864544382 54.770478353708754,121.1358985664242 55.5585178153486,120.42770451268845 56.02543987532237,120.03194901192232 56.80306471842299,119.36541343213656 57.230064074289515,119.0182594842776 57.5702749431913,118.7266501677657 57.86535579887142,118.46281316749634 58.281940536405635,118.09482998255892 58.50932637214979,117.87265145603264 59.66708478825944,116.90756348119164 59.94133640706802,116.67844187529434 60.130535308651154,116.44932027032819 60.28154727596981,116.25491405932026 60.43255924328846,116.06745092747641 59.00402074795228,115.449516900184 58.695053734254344,114.01229955584097 58.38608672065986,113.23467471253342 58.13613587830487,112.6236837644051 57.230064074289515,112.23487134311344 56.54443502737152,111.92243279014384 56.03759026349743,111.65859578925372 55.91435061190404,111.6655388687282 55.7251517103209,111.79051428975052 55.24087195305765,112.02657897450153 54.87809607754503,112.22098518509563 54.60384445873645,112.3390175270573 54.09005661590518,112.61674068586177 53.71165881273891,112.79726073833459 53.312431772804565,112.99861002809278 52.76045699560535,113.26939010752623 52.48273383731818,113.38742245010867 52.142522968416394,113.56794250247803 51.599227040120574,113.84566566138596 51.31456080277277,113.97758416115853 50.92574838127419,114.19281960924492 50.516106722697145,114.35945350369992 50.450147472603945,114.40111197744301 50.53520018993285,114.53303047762941 50.70877716386234,114.75520900446607 50.86152490092028,114.97738753130272 51.06287419067848,115.27593992625451 51.291995796161935,115.5328338477736 51.40829236869469,115.66475234754617 51.44647930306263,115.7758416109645 51.3701054344302,115.87998779563257 51.04725226302482,116.10216632246923 50.56297250576157,116.40071871742101 50.28872088695299,116.55346645427204 50.07001389969838,116.7201003493478 49.804441129689735,116.900620402131 49.60309183993154,117.03253890262779 49.36702715528398,117.21305895499715 49.177828253700845,117.32414821841547 48.87406854932425,117.45606671891227 48.62585347670855,117.53938366608804 48.408882259296696,117.58798521899521 48.16066718647408,117.66435908783457 47.91245211375492,117.70601756126726 47.68506627801076,117.76850527177841 47.494131606584865,117.83099298228957 47.29625385651218,117.96985456153661 47.1157338034186,118.1017730620334 46.82065294773847,118.2961792726275 46.47697053946156,117.71296064001751 45.996162321573436,116.76870190225497 45.82952842660114,116.88673424452702 45.77745533462921,116.92144963920946 45.187293623062054,117.26166050790432 45.317476353509164,117.3935790084011 45.06058243219699,117.58798521899521 44.71169271459873,117.51855442942342 44.65788385257713,117.57409906077048 44.446119944486625,117.51161135025932 43.97051903581638,117.36580669215856 44.0295352069524,117.150571244486 42.65827711301296,117.54632674494175 41.89974573694112,117.77544835083906 39.579021595503946,118.46281316749634 38.55144590984141,118.76136556244813 36.99619622343325,119.21266569518208 36.21683561038642,119.44178730056208 35.49475539883978,119.63619351157001 34.25888734446186,119.91391666944335 33.51597789614714,120.0944367228473 32.394670644459225,120.37910295978128 31.615310031619313,120.54573685465013 30.171149608422564,120.86511848699075 28.648879547164466,121.23310167151433 26.930467505159132,121.58719869822701 24.252174797530685,122.21207580426969 22.18660880766639,122.67726209471108 20.988927687552966,122.95498525258442 20.171380140345104,123.156334542653 18.19260263765247,123.60763467486964 17.394148557473393,123.78815472754938 16.567922161569058,123.98256093824695 16.166959351895414,124.07976404375091 15.748638844828822,124.14919483373656 15.264359087358647,124.26028409715488 15.028294402814552,124.48940570212103 14.420774994061365,125.00319354505577 14.165616842385027,125.23925822980678 13.568512052067609,125.72527375701625 12.980086110446665,126.21823236256213 12.419432484757898,126.66258941623545 9.784534020404902,128.8843746823259 8.866311828317942,129.65505644688318 8.458405939790579,129.8911211313238 7.77104112292637,130.2799335526155 6.41366918669436,131.04367223831903 5.660345119840408,131.47414313335378 4.219656236329167,132.29342645009402 2.9976743398656143,132.98773434581193 1.669810489201617,133.7445299523514 1.2185103570884237,134.0083669527242 0.8158117774685655,134.23054547956087 0.08678848696474101,134.6124148219988 0,134.57075634794535 0.05380886202159936,134.4666101640015 1.4580465810076488,133.0155066620545 2.7650811948001084,131.66854934405134 3.105292063701893,131.31445231733863 4.351574736412114,129.627284130951 6.436234193305193,126.7459063632043 7.14095670756235,125.79470454658804 7.821378445365919,124.96153507131268 9.246445401326966,123.40628538542182 9.9858833101631,122.60088822628558 10.320886869847,122.08710038293701 10.595138488655582,121.24698782942869 10.834674712678266,120.39993219654936 11.39359256883466,118.33089466762031 11.4803810557994,117.78239142969277 11.475173746478056,116.83813269161985 11.450872970231387,116.14382479590192 11.379706410920301,114.35945350369992 11.324161779159406,113.69291792381071 11.101983252529669,112.47787910630434 10.60555310719481,109.8464521815334 10.503142692576416,108.4231209954151 10.331301488386229,105.61811709671467 10.296586093496872,104.89603688547841 10.308736481775396,104.73634606946328 10.89716242329288,104.2225582264251 10.707963521709745,104.07675356842779 10.246248771057322,103.71571346255101 9.952903685219958,103.43799030405692 9.689066684743686,103.19498254076257 9.624843204389778,103.0352917248509 9.623107434650482,102.85477167175732 9.577977421532276,102.68813777699194 9.435644302806642,102.22295148655054 9.36274197375626,101.9105129336844 9.30546157235953,101.60501745925812 9.25512424991998,101.38283893273186 9.27248194731293,101.2023188800521 9.177014611651714,101.02874190612263 8.8801979862323,100.77184798460354 8.694470624231213,100.59132793182033 8.48444248567308,100.29277553686855 8.371617452825838,100.19557243146804 8.222341255039563,100.0428246938928 8.11993084042117,99.84841848360907 8.020991965281363,99.73038614102664 7.857829609891111,99.66095535135139 7.6512730108115665,99.59846764115062 7.5801064515004795,99.43183374576448 7.592256839675543,99.06385056144781 7.554069905514517,98.9180459034505 7.337098688102665,98.74446892952102 6.9899447402437005,98.6333796661027 6.653205410717045,98.52229040268436 6.493514594701922,98.43897345509475 6.186283350950199,98.1959656918004 6.019649455977896,98.05016103380309 5.953690205884693,97.92518561205657 5.939804047970334,97.7585517169808 5.925917890055976,97.64746245387286 5.905088653184438,97.55025934836888 5.84086517272707,97.39751161151787 5.795735159608864,97.24476387466684 5.820035935855532,97.15450384822351 5.88425941620944,97.02258534814057 5.991877140149179,96.89066684733339 6.207112587821737,96.60600061029596 6.535173068444998,96.08526968850752 6.766030443978129,95.70340034565574 6.866705088753768,95.48122181912946 6.988208970504406,95.22432789802421 7.125334779908696,94.86328779214743 7.172200562766196,94.75219852914294 7.177407872087541,94.55084923928128 7.160050174591133,94.12732142237604 7.0611112995547884,93.50244431664375 7.026395904872351,93.09974573671352 7.010773977115238,92.36377936756288 7.104505543037159,91.91942231419995 7.205180187916258,91.55143912957291 7.258989049730937,91.30148828690754 7.245102891816579,91.093195918606 7.1531070956339535,90.66272502326088 6.979530121704472,90.55857883890319 6.786859680746207,90.36417262799871 6.524758450112689,89.98230328545732 6.377218022169169,89.7392955215422 6.335559548426093,89.59349086344143 6.262657219375711,89.36436925785452 6.064779469096101,88.94778452063068 5.908560192559568,88.69089059952543 5.844336712205659,88.42705359884224 5.849544021423544,88.28819201959519 5.899881343863093,87.87160728247481 5.929389429431105,87.46196562410469 5.9901413704098845,87.18424246519676 6.089080245446229,86.81625928056972 6.158511035224942,86.50382072739319 6.196697969282508,86.29552835878127 6.234884903546994,85.99003288507923 6.259185680000581,85.83034206875372 6.309523002440131,85.6775943319027 6.384161101126348,85.58039122639873 6.580303081666663,85.37209885747643 6.795538529339221,85.15686341011425 6.877119707086077,85.02494490961746 6.889270095261141,84.83053869923029 6.887534325625306,84.68473404123299 6.825046614907232,84.48338475137132 6.811160456992874,84.26814930338838 6.823310845271398,84.10151540851955 6.870176628128898,83.99042614551506 6.920513950568448,83.78213377659276 6.951757805979215,83.67104451317442 6.955229345354344,83.29611824979713 6.960436654675688,83.14337051222188 6.995152049461585,82.9767366174565 7.050696681015559,82.87259043309881 7.113184391837093,82.79621656436292 7.189558260159145,82.66429806459035 7.2694036681667065,82.3935179851569 7.352720615652858,82.08802251073062 7.401322168456573,81.71309624735333 7.460338339696056,81.55340543102783 7.611350306911246,81.2270807205577 7.694667254293938,81.02573143069604 7.708553412208296,80.8590975353099 7.637386852897208,80.63691900878362 7.559277214732401,80.46334203485414 7.404793707831702,80.06064345564812 7.3718140828885605,79.85235108672582 7.380492931585035,79.36633555993019 7.335362918363369,79.07472624341828 7.239895582598694,78.80394616398483 6.922249720307742,78.33875987426767 6.764294674135374,78.19295521585651 6.620225785773903,78.0679797948342 6.5577380750558305,77.83885818914383 6.65841271993493,77.60973658355691 6.838932772821591,77.40144421463462 7.08714784554075,77.17232260935808 7.734589958401179,76.51273010852951 8.154646235413985,76.09614537109876 8.53825134759122,75.76982065990441 8.854161440246337,75.56152829139594 9.310668881680876,75.36017900122391 10.12300911956739,75.01996813221866 10.695813133534681,74.84639115828918 11.206129436990818,74.77001729017405 11.824063464076314,74.6242126317629 11.949038885409001,74.56172492125175 12.155595484281625,74.42286334231508 12.303135912121684,74.24234328953189 12.537464827133405,73.88824626261228 12.756171814077632,73.53414923558921 12.8342814523459,73.41611689373102 12.936691866964294,73.31197070875255 13.085968064647108,73.20088144595499 13.30988236101614,73.06896294587204 13.528589348063827,72.93704444506488 13.667450927207414,72.83984133987128 13.837556361761767,72.73569515561707 14.018076414648426,72.5968335766804 14.167352612124322,72.46491507618362 14.46590500738649,72.24273654934696 14.820002034099174,71.99972878636298 15.24700139006916,71.79143641754413 15.450086449566653,71.68729023287607 15.654907278699982,71.54842865362902 15.854520798822346,71.40956707500274 16.017683154212598,71.26376241659159 16.21556090449221,71.10407160057648 16.562714852351174,70.84717767905738 16.79183645793809,70.68054378398162 16.96541343186757,70.56945452087366 17.01922229388917,70.51390988952662 17.040051530657248,70.42364986308328 16.984506899103273,70.32644675726893 16.83870224100251,70.12509746751073 16.75191375403777,69.99317896773816 16.692897582798285,69.86126046724138 16.618259484008608,69.68074041445817 16.588751398440596,69.54187883521114 16.581808319483414,69.38218801950639 16.59395870776194,69.17389565058409 16.649503339315913,68.79896938658602 16.679011424987387,68.4657015969518 16.696369122276874,68.3129538597904 16.74497067508059,68.1046614908681 17.027901142585645,67.79916601716606 17.13725463626468,67.63947520115093 17.218835813804617,67.45201206930709 17.253551208590512,67.195118147788 17.300416991551472,66.81324880493621 17.343811235033844,66.6605010680852 17.397620097158903,66.56329796258122 17.65277824862832,66.25780248877571 17.852391768750685,66.03562396193905 17.97042411091927,65.88287622477765 18.036383361012476,65.73707156698727 18.090192223034077,65.54960843483305 18.124907617716513,65.2788283553996 18.13879377563087,65.11913753938447 18.19260263765247,64.92473132879037 18.258561887642212,64.51508967042025 18.2967488219067,64.19570803807963 18.32972844705676,63.92492795864617 18.38353730887144,63.709692511284 18.421724243135927,63.550001695268875 18.446025019589513,63.46668474767926 18.50330542098624,63.320880089888874 18.58141505925451,63.15424619450273 18.66820354621925,62.99455537848761 18.779292809430657,62.77237685196133 18.8660812963954,62.62657219417095 19.10388175078225,62.279418246311984 19.211499474618527,62.0850120354075 19.38854798792314,61.78645964045572 19.569068040809803,61.418476455207916 19.65064921855666,61.237956402735094 19.709665389796143,61.09215174473779 19.79471810691813,60.9532901650769 19.890185442682803,60.84220090196895 20.1054208902519,60.66862392803947 20.258168627309846,60.578363901389224 20.603586805429515,60.43255924328846 20.997606536352897,60.22426687509038 21.4124555039409,59.988202190339365 21.52701630683782,59.91182832150001 21.605125945106085,59.80073905839206 21.648520188588456,59.71047903174181 21.66414211624211,59.62021900540194 21.712743668942366,59.51607282145809 21.835983320432298,59.12031732069195 21.907149879639924,58.91202495208003 21.964430281036652,58.648187951810684 22.004352985143893,58.35657863498839 21.99567413644742,58.196887818973266 21.95922297192223,58.016367766603906 21.907149879639924,57.89139234516776 21.789117537367876,57.75947384508481 21.613804793802558,57.57895379230161 21.551317083084488,57.516466081169696 21.38989049753699,57.41231989722585 21.10522426018918,57.245686002357004 20.723354917544317,57.02350747552035 20.61573719370804,56.9332474488701 20.528948706743297,56.80132894909753 20.318920568288625,56.447231921764086 20.22345323262741,56.266711868980885 20.197416686434526,56.107021053379604 20.225189002366704,55.91261484237167 20.265111706267025,55.66266400001667 20.278997864181385,55.48214394692309 20.322392107663752,55.384940841419116 20.449103298735736,55.294680815079246 20.858744957105852,55.225250025403994 21.061830016706807,55.12110384114977 21.323931247340326,54.905868393787586 21.521808997516473,54.655917551432594 21.584296708234547,54.55871444592862 21.813418313718003,54.32264976148799 21.922771807397037,54.21850357650954 22.052954537844148,54.12130047162633 22.205702274902094,54.05186968205454 22.304641149938437,54.01715428675134 22.561535071560993,53.78108960231071 22.754205512519256,53.53808183901635 22.932989795563163,53.37144794394059 23.14822524323572,53.20481404907174 23.77136657964256,52.76045699612265 23.943207783832747,52.56605078480433 24.151500152651586,52.288327626931 24.269532494820176,52.06614910040472 24.326812896216904,51.94811675751192 24.335491744913377,51.871742889086406 24.29036173169171,51.7467674680641 24.175800928898255,51.64956436256013 24.111577448544345,51.59401973121307 23.81476082312493,51.469044309776926 23.524887276662696,51.39961352020513 23.292294131597192,51.31629657261552 23.196826796039435,51.253808861793985 23.09441638142104,51.142719598686035 23.0544936773138,51.031630335267714 23.03019290106713,50.52478557139362 23.057965216895848,49.89990846535095 23.00068481549912,49.74716072849992 22.82710784156964,49.56664067540634 22.58236430832907,49.33751907012981 22.509461979278687,49.22642980671148 22.45391734751779,49.059795911532255 22.462596196214268,48.92787741175969 22.573685459632596,48.6362680949374 22.72643319669054,48.38631725289279 22.75941282163368,48.268284910310356 22.775034749287336,48.16413872605613 22.733376275647718,48.04610638409446 22.653530867640157,47.93501712036575 22.52508390693234,47.76838322528999 22.528555446307468,47.49760314616692 22.60492931504336,47.17127843538641 22.700396650497655,46.969929145628214 22.82363630198759,46.7269213817131 22.969440960088352,46.539458250179635 23.12566023683181,46.37282435500041 23.27840797368283,46.22701969731349 23.408590704129942,46.04649964390953 23.505793809530452,45.83126419654735 23.554395362230707,45.64380106501389 23.563074210927184,45.49105332743864 23.54745228327353,45.407736380262875 23.401647625172764,45.15084245874378 23.373875309344047,45.07446859031827 23.399911855536928,44.88700545847443 23.488436112137506,44.67871308986251 23.43636302006212,44.345445299607526 23.359989151429687,44.09549445725253 23.40685493449411,43.727511272315105 23.479757263544492,43.5608773778601 23.625561921541795,43.42895887705294 23.776573889067365,43.31786961394499 23.88939892191461,43.19983727208678 23.927585856282555,43.08180492919397 23.905020849671722,42.62356171822706 23.856419296868008,42.40138319139041 23.840797369317812,42.22086313902104 23.88592738243602,42.005627690934645 23.998752415593643,41.80427840117645 24.16365054072319,41.505726006224656 24.17406515926242,41.36686442728799 24.134142455155178,41.026653557868904 24.158443231608764,40.68644268948442 24.215723633005496,40.374004136307896 24.285154422473827,40.13793945186726 24.41880869250299,39.763013187765736 24.46220293598536,39.540834661549844 24.467410245099785,39.332542292731006 24.38756483709222,39.13813608172306 24.273004034402224,38.9992745027864 24.12025629724082,38.84652676583191 24.06644743532268,38.75626673887128 24.028260501161654,38.48548666005859 24.054297047147617,38.089731159292455 24.099427060472742,37.70786181685451 24.201837475091136,37.464854052939394 24.338963284495428,37.2079601314203 24.538576804410873,36.88857849970044 24.75728379156202,36.590026104748645 25.30231548980405,36.00680747213867 25.430762450511867,35.63882428761509 25.37348204911514,35.31249957642074 25.29363664110758,34.909800996904345 25.317937417354244,34.69456554954216 25.472420924151486,34.520988575612684 25.838668339142693,34.06274536433539 26.130277655344223,33.611445231808354 26.373285418845498,33.14625894209119 26.69440282061504,32.5838695464562 27.100572939610025,31.896504729591992 27.234227209535728,31.681269281815975 27.196040275374703,31.44520459706496 27.154381801528164,31.216082991478043 27.046764077691886,30.820327491022287 27.022463301445217,30.334311964226657 27.043292538316756,30.02187341136051 27.166532189806688,29.54280096269438 27.255056446510725,29.23036241013861 27.355731091389824,28.980411567783616 27.539722683651615,28.813777672294012 28.04483167778641,28.46662372443505 28.692273790646837,28.06392514522903 29.152252771456503,27.86257585536737 29.61917483143027,27.564023460415584 29.926406075181994,27.32101569691431 30.073946503125512,27.168267959649445 30.414157372027297,26.716967827225872 30.636335898553575,26.473960063931514 30.86545750414049,26.22400922126614 30.86892904372254,26.14763535284063 31.07722141233446,26.182350747523067 31.226497609913814,26.258724615948577 31.342794182446568,26.383700037281265 31.39833881420746,26.52256161683869 31.41222497212182,26.751683222218688 31.420903820818292,27.133552565070467 31.44173305768983,27.459877275540595 31.474712682632973,28.119469776576086 31.644818117187324,27.952835881810703 31.965935518853406,27.619568091866096 32.700166118678574,26.772512459297143 32.81472692147204,26.62670780119638 32.95706003999075,25.75882293154897 33.1271654745451,24.821507271915927 33.87181069270258,24.925653456583998 34.40122046308404,25.00897040375977 35.8089297217556,25.314465877875655 35.95126284027431,25.127002746342196 39.17111570666621,25.85602603705294 39.76648472734779,24.557670271646575 42.920378343646476,25.113116588427836 43.16512187688705,24.314662508041838 43.34390615993095,23.759216191984798 43.7639624368403,22.467803505639072 43.88893785817299,22.023446452689978 44.144096009745866,21.981787978533063 44.31420144430022,21.967901820618703 44.565888056394506,21.988731057697162 44.82278197801706,21.981787978533063 45.33656982064141,21.954015662704343 45.75662609755075,21.870698715114735 46.060385801927346,21.79432484668922 46.33984473005727,21.72489405701397 46.657490592348225,21.669349425356533 46.811974099042004,21.72489405701397 46.99422992166796,21.759609451696406 47.16433535622231,21.79432484668922 47.374363494676984,21.863755636674853 47.48024544867051,21.919300267711527 47.586127402767495,22.023446452689978 47.65555819244275,22.099820321115487 47.69027358712518,22.148421873712284 47.89856595584056,22.29422653170959 48.37763840388593,22.537234295003945 48.3203580024892,22.808014374747774 48.3082076144176,22.94687595337406 48.29952876572112,23.106566769699565 48.34465877894279,23.23154219072187 48.38458148284311,23.314859138621863 48.45921958173625,23.300972980707506 48.56857307531182,23.32180221706174 48.823731226884696,23.307916059147384 49.10839746412905,23.300972980707506 49.316689832844425,23.25237142811071 49.75931111636461,23.17599755927136 50.06654236021979,23.14128216469238 50.44841170296811,23.078794454181228 50.61678136757625,23.037135980334693 50.82680950603092,22.93993287452034 51.08196765770726,22.794128216833418 51.41349967791257,22.58583584791112 51.65130013219596,22.433088111060094 51.83702749440397,22.349771163470482 52.106071803891204,22.238681900052153 52.28832762651716,22.155364952462545 52.76566430482323,21.947072583850623 53.06074516050335,21.835983320742677 53.373183713576424,21.745723293782046 53.560646845420266,21.655463267752555 53.91474387223641,21.363853951240646 54.33306437950992,21.044472319624237 54.59516561003998,20.808407635183602 54.98571380138131,20.523741397835792 55.42139200594431,20.204359765805545 55.610590907527445,20.107156659991198 55.71647286162443,20.030782791876064 55.9282367698184,19.919693528457735 56.18339492159819,19.836376580557744 56.50451232326428,19.746116554528253 56.82389395529452,19.66974268610274 57.01656439656317,19.57253958059877 56.92630436991292,19.280930264086862 57.080787876813616,19.329531816683655 57.302966403339894,19.39896260666929 57.7716242329495,19.47533647478442 57.98338814124693,19.503108790613137 58.36525748378833,19.55865342268441 58.65165949077197,19.621141133195565 58.84606570167645,19.662799606628262 59.085601925595675,19.690571922767358 59.44837780110829,19.739173475674534 59.83719022291725,19.801661185875307 60.23641726274814,19.857205817946582 61.40806183677215,20.03772587062632 61.843740041335145,20.107156659991198 62.10063396285424,20.134928975819914 62.64392989115006,20.204359765805545 62.9980269179662,20.232132081323883 63.966586432596166,20.009953554487225 64.77719090074339,19.697515001621078 64.89001593390101,19.662799606628262 65.12781638808094,19.55865342268441 65.37950300027869,19.48922263269878 65.72839271787696,19.405905685729927 65.9089127707636,19.39896260666929 66.08943282365027,19.37813336959083 66.58412719945275,19.350361053762114 66.99724039750839,19.336474896158137 67.10138658165916,19.336474896158137 67.25239854897781,19.38507644875493 67.40167474666062,19.440621080101984 67.724527918066,19.55865342268441 67.92240566844906,19.614198054031466 68.05085262915688,19.628084211945826 68.27650269526521,19.628084211945826 68.57158355094533,19.676685764542622 68.88575787365423,19.66974268610274 69.00379021592627,19.718344238699537 69.17563142011646,19.753059633588894 69.37003763091748,19.77388887004659 69.5193138286003,19.78083194952107 69.62519578259382,19.808604265039406 69.69462657226907,19.850262738472104 69.75364274330164,19.850262738472104 69.79703698678401,19.544767264770055 69.84737430922355,19.39896260666929 69.89424009218452,19.350361053762114 70.24660134926137,19.10735329015738 70.45662948771604,18.975434790384814 70.76733227104981,18.794914736980854 71.05894158725134,18.59356544753303 71.29153473242032,18.447760789121887 71.48767671296062,18.301956131331504 71.78970064759793,18.02423297283741 72.08998881239246,17.74650981496408 72.39027697739394,17.475729735530628 72.54302471445187,17.302152761601146 72.81380479367841,16.954998813742183 73.56018578157519,16.836966471159755 74.24407905906426,16.705047971387188 74.95921619155027,16.705047971387188 75.21090280374801,16.86473878698847 75.78197104797601,16.552300233811945 76.18640539712824,16.337064786449766 76.8355832796245,15.996853917341062 77.39797267515603,15.649699969482098 78.49150761091177,15.080367495510696 78.99835237478585,14.858188968674039 80.60914669285144,14.198596467845467 80.76189442990939,14.427718073225465 80.80528867339176,14.504091941650977 80.87471946306701,14.698498152658916 80.96671525914618,15.101196731864935 81.03093873950009,15.455293758887997 81.04656066715374,15.573326101366966 81.07606875282521,15.663586127810296 81.08995491063611,15.788561549142983 81.12814184500405,15.948252365158107 81.14897108187559,16.114886259613108 81.18021493707944,16.545357155372066 81.1958368647331,16.68421873430873 81.29130420039431,16.96888497165654 81.34684883205175,17.07303115560039 81.3937146150127,17.156348103190002 81.43710885849508,17.309095840661787 81.53604773363487,17.677079024978447 81.60895006268527,17.7742821307928 81.75649049062878,17.892314472651005 81.87625860253667,17.975631420240617 81.9682543989262,18.05200528866613 82.1643963792596,18.32278536809958 82.23556293867415,18.43387463120753 82.35012374146761,18.586622368368932 82.49072109024704,18.73937010594418 82.8031596433201,19.058751737870963 83.16593551883271,19.433678001662106 83.24404515710098,19.516994948837876 83.48358138112367,19.77388887004659 83.66410143401033,19.982181238968888 83.82899955924334,20.197416686331067 83.8966945791793,20.315449028913495 83.94703190151539,20.426538292331823 83.93314574370449,20.516798318361314 83.88454419100422,20.620944503236302 83.874129572465,20.773692240190787 83.87065803298641,20.912553819127453 83.90016611855442,21.072244635452957 83.94703190151539,21.190276977311164 84.09804386883404,21.252764688132697 84.12234464528763,21.69017866274537 84.10498694779122,21.88458487302909 84.11366579659115,21.974844899782802 84.20913313225236,22.259511137130612 84.3792385665998,22.57889276874702 84.55455131026856,22.814957453498035 84.71944943550157,23.05796521679239 84.795823304134,23.24542834863623 84.89649794901311,23.557866902123138 85.0336237584174,23.759216191984798 85.151656100586,23.91196392883582 85.5161677458379,24.30077635012748 85.74528935142482,24.529897956128238 86.0195409702334,24.779848798483233 86.2538698850382,24.98814116740553 86.46389802349287,25.245035088510782 86.5923449842007,25.376953588386808 86.76765772786946,25.501929009719497 87.19118554425741,25.76576601029923 87.42725022890495,25.925456826003973 87.61297759090604,26.07126148410474 87.87855036101816,26.300383090002033 88.04692002572975,26.44618774779242 88.30207817750954,26.661423195878815 88.46003322368192,26.779455537737025 88.666589822658,26.890544801155354 89.27410923141119,27.223812591099957 89.7375597518029,27.48070651292943 90.09165677861904,27.661226565298794 90.46137573308884,27.744543512888406 90.75819235850825,27.820917381313915 91.46985795172259,28.029209750236216 91.80833305078163,28.126412855740185 92.67795369027179,28.45968064599517 93.41912736884721,28.66102993544299 93.90340712611047,28.813777672294012 94.10128487639008,28.84849306697645 94.37900803488417,28.980411567783616 94.6168084890641,29.04289927829477 94.92403973281583,29.14704546223862 95.21912058849594,29.285907041796044 95.55933145739773,29.445597857500786 95.69472149716619,29.487256331657704 95.97938773430708,29.53585788384066 96.14602162927937,29.778865647445393 96.37687900460558,30.11213343739 96.6389802352391,30.431515069730626 96.92191070274417,30.68146591208562 97.07639420964486,30.79255517550395 97.15276807807038,30.848099807161383 97.18574770311697,30.910587517362156 97.14061768999878,31.021676781090864 97.08160151886274,31.084164491291638 97.03820727538037,31.14665220211317 97.02605688730877,31.313286097292394 96.99828457127313,31.403546123321885 96.9114960843084,31.56323693933701 96.88198799874039,31.611838492244182 96.84727260395448,31.66738312390162 96.87157338040808,31.82707393960636 97.01043495955166,32.11174017695417 97.1458249991132,32.40334949346608 97.4113977692253,32.79216191475774 97.89567752648856,33.458697494957335 98.15257144800765,33.798908363962575 98.24283147434753,33.88916839040591 98.53270502080976,33.979428416745776 98.60560734986014,34.02108689017847 98.76876970545732,34.17383462775372 99.04649286364102,34.39601315386616 99.20271214028102,34.507102417594865 99.38670373254281,34.7153947858964 99.53597993012217,34.909800996904345 99.72865037128734,35.138922602491256 99.81891039762722,35.28472726028164 99.88834118730247,35.55550733971509 100.03241007566395,36.069295182960204 100.08621893747862,36.249815235433026 100.2615316811474,36.784432315135824 100.315340543169,36.971895446979666 100.48718174725572,37.173244736737864 100.67811641868161,37.38848018482427 100.80482760954668,37.492626368768114 100.98534766243334,37.72174797476887 101.13983116933403,37.950869580045406 101.41061124856057,38.311909686129106 101.67791978841197,38.54797437025936 101.8358748346878,38.721551344188846 101.94522832826337,38.9506729501896 102.13963453906439,39.30476997679882 102.33404074996888,39.59637929300035 102.4572804014588,39.7768993456801 102.69508085574219,40.054622504277646 102.82005627686796,40.304573346322265 102.86518629008962,40.50592263608046 102.90510899419687,40.693385768234684 103.0266128759475,40.99193816318647 103.13249482994102,41.19328745335851 103.42236837640327,41.51961216382864 103.57685188330396,41.69318913775812 103.83201003487684,41.79733532263311 103.96392853506325,41.95702613864823 104.1704851341428,42.05422924353144 104.32323287120073,42.17920466486413 104.39960673962625,42.33195240243937 104.55409024652695,42.387497033476045 104.80230531914265,42.94988642931795 104.91513035230027,43.11652032449717 105.09738617502968,43.276211140512295 105.31088585275603,43.47061735110639 105.47751974772834,43.644194325035876 105.63026748488974,43.838600535733434 105.72747059018678,44.03994982580201 105.78995830090486,44.22046987858521 105.90278333385557,44.435705325947396 106.1249618604853,44.57456690550482 106.30374614373612,44.64399769455931 106.51551005182664,44.69954232652713 106.62312777576638,44.706485405380846 106.73074549960265,44.768973115892 106.715123571949,44.907834695449424 106.65437163097022,44.98420856356456 106.46864426886567,45.206387090401215 106.40094924903318,45.33136251142352 106.45649388079407,45.48411024868839 106.6265993151415,45.89375190736888 106.68561548627753,46.1228735129558 106.69429433507746,46.35199511833579 106.62312777576638,46.71303522410912 106.55022544671598,46.94215682969603 106.58146930191984,47.11573380362552 106.76893243376368,47.37262772483423 106.8175339865674,47.55314777823819 106.84357053255336,47.990561752126645 106.8279486048997,48.34465877904625 106.84530630239611,48.60849577941906 106.86787130900694,48.80984506886688 106.84704207213541,48.97647896394265 106.72206665090617,49.23337288546173 106.6248635454022,49.35834830648405 106.54154659801952,49.52498220197365 106.54501813739465,49.67772993851429 106.53981082817675,49.93462386034376 106.49120927557996,50.094314676358884 106.30721768311126,50.392867071621055 106.10066108423864,50.72613486156566 106.07115299867063,50.85111028289835 106.08503915648151,51.08717496733898 106.11628301189229,51.281581177933084 106.19439265016055,51.53153202070192 106.28291690686459,51.81619825763589 106.31589653180772,52.01060446833345 106.3297826897221,52.18418144226293 106.33846153841856,52.40635996878921 106.36970539382934,52.62853849531548 106.43566464381907,52.95486320640637 106.49988812427644,53.14926941710393 106.56411160463036,53.28813099635098 106.61965623618433,53.565854154948525 106.70818049299181,53.87134962865058 106.83315591432451,54.044926602580055 106.91647286160374,54.19073126068082 106.92688748014297,54.35042207700633 106.90779401290726,54.51705597177171 106.9286232497788,54.655917551432594 106.99284673013271,54.81560836734426 107.06054174996521,54.96835610429874 107.11261484224751,55.134989999064125 107.17857409234071,55.44742855224065 107.28445604633424,55.634891684084494 107.3643014543418,55.76681018396052 107.44935417156725,55.89178560529321 107.51704919139975,56.01676102693627 107.53961419811404,56.16256568472666 107.55350035592494,56.294484185223446 107.48580533609244,56.48194731706729 107.44761840193141,56.558321185182415 107.37298030314173,56.78049971201907 107.37298030314173,56.967962843552534 107.40248838870974,57.21097060746765 107.47018340843879,57.59283995021597 107.51531342166045,58.307977082391595 107.55523612576769,58.55792792474659 107.65070346132545,58.82176492574016 107.82428043525493,59.18280503151349 107.9336339288305,59.377211241797205 108.30682442288234,59.974316032321546 108.66439298907362,60.4256161645382 108.92128691059271,60.731111638964464 109.27538393740886,61.14769637577446 109.53922093767821,61.501793403107904 109.82215140518326,61.83506119305251 110.03217954363794,62.105841272382506 110.25088653078909,62.32107671984814 111.1187714004365,61.84894735096687 111.18820219000828,61.800345798059695 112.46225717865069,61.15463945524894 112.61674068555139,61.02272095475215 116.87805539552016,64.54286198593859 124.71158422906116,70.7846899688566 124.79490117634039,70.84717767905738 135.49939315857154,80.14396040313427 151.07445502926396,80.10230192908082 151.44417398373375,80.10230192908082 151.65940943161323,80.06064345564812 151.91630335282196,79.97732650805851 152.1298030307552,79.9495541922298 152.4891073668927,79.95649727098005 152.77550937377288,79.99121266566249 153.02893175570992,80.06758653408801 153.38302878252608,80.22727735010312 153.671166559249,80.36613892935017 154.26306404055546,80.59526053535093 154.66402685012565,80.66469132492271 155.08929043625287,80.76189442980593 155.47115977889774,80.80355290385938 155.78880564129216,80.8104959827131 156.03875648364715,80.74800827189156 156.26961385897334,80.65080516669798 156.52303624091041,80.67163440377644 156.8719259586121,80.74106519303785 157.1357629588815,80.7271790351235 157.3787707224862,80.64386208794772 157.76237583487037,80.4772281927685 157.88214394677826,80.4355697193358 158.06266399966492,80.44251279808606 158.37510255273799,80.17867579750633 158.53652913859585,80.04675729731993 158.75870766512213,79.89400956015852 159.01039427731988,79.72737566570352 159.29158897508563,79.56768484968839 159.7949621995846,79.26218937526212 159.95812455497486,79.15110011184379 160.05706343011465,79.04695392789995 160.25667695023702,78.67897074265214 160.41810353588798,78.33875987426767 160.46149777937035,78.15129674242382 160.4719123978061,78.0679797948342 160.48232701634535,77.65139505698961 160.53960741774208,77.39450113619473 160.63854629277841,77.19315184633308 161.1696918331061,76.39469776605054 161.8223412549775,75.40878055413108 165.09253144380892,74.92276502702508 165.62194121429386,74.84639115828918 166.2693833270508,74.85333423776366 168.76368444252094,75.15188663302582 169.10389531152617,74.99913889545059 169.84159745072648,74.83944807943546 170.7337830965171,74.7561311322597 171.04795741943292,74.74224497434533 171.24757093934835,74.7561311322597 172.3636708818184,74.32566023650074 174.13068447631704,73.40917381425653 174.73299657585235,73.08284910347602 175.5592229717567,72.39548428650835 176.49133132175803,71.07629928474775 178.27917415333513,69.78488659881587 178.940502423903,69.31275722993459 179.53760721432388,68.97948943998999 180.577333288058,68.38238464977603 181.283791571951,67.96579991193144 181.88610367148632,67.61170288521875 181.495555480145,67.18817506862389 182.3460826525029,66.11894090921828 183.09419941003551,67.02154117385851 184.31097399738462,67.22983354278081 184.41512018163886,66.60495643663468 184.42379903033535,65.57738075097214 184.5383598331288,65.6120961453442 184.88204224150917,65.51489304015061 185.09554191944244,65.48712072401152 185.31251313685428,65.5704376719115 185.49650472921954,65.63986846117291 185.5572566701983,65.26494219748524 185.59717937409863,65.10525138147011 185.6770247821062,64.84835746036485 185.52080550567314,63.57083093234733 185.2118384919752,63.30005085291388 184.18079126693752,62.168328982583276 183.6895684307171,61.19629792868164 183.5003695290305,60.85608705998677 183.1966098246539,60.460331559531014 183.1723090483038,60.18260840124384 183.20355290361107,59.974316032321546 183.51599145678762,59.016171136023885 183.63575956869548,58.6204156358785 183.94993389161132,57.926107740160575 184.25195782614514,57.42620605482983 184.3196528460811,56.9332474488701 184.3561040106063,56.78049971201907 184.45851442512122,56.78049971201907 184.6060548529613,56.176451842641015 184.468929043557,56.07924873713705 184.55398176078245,55.405770078187196 184.65465640566154,55.07250228824259 184.78310336647283,54.475397498028634 184.44462826720687,54.46151134042466 184.59911177400411,54.26016205066646 184.88898532046636,53.794975760225064 184.9427941825914,53.6561141812884 184.90460724822347,53.551967996930706 184.8351764585482,53.4478218123661 184.78657490584794,53.30896023342943 184.7969895243872,53.17009865449277 184.82823337959104,53.0173509172279 184.954944570663,52.822944706633805 184.99486727456335,52.72574160112983 184.98271688638826,52.51744923220754 184.9393226429059,52.35081533744216 184.8664203138555,52.211953758402025 185.16323693927492,52.13557988935575 184.75880259001923,51.823141336489606 184.5643963793217,50.90665491393502 184.5400956028681,50.68447638740874 184.52447367521444,49.89990846535095 184.46545750428533,49.63607146539197 184.32833169467412,49.26114520160083 184.25890090510234,48.93482049019957 184.19294165500912,48.497406516311116 184.25890090510234,48.254398752396 184.24675051703073,48.08776485763062 184.16864087876246,47.55314777823819 184.1252466352801,47.31708309348718 183.9204258060433,46.77552293462027 183.7294911346174,45.75489032812184 183.68609689113504,45.51188256420672 183.58715801599524,45.17167169582224 183.60277994375235,45.067525511154166 183.51946299616273,44.75508695797764 183.49516221991607,44.46347764177611 183.31811370640455,43.276211140512295 183.0594840152496,42.57496016531989 182.97790283750277,42.505529376368855 182.82515510044482,41.76261992774375 182.75746008071576,41.45712445331748 182.66199274505456,40.99193816318647 182.43113536972834,40.45037800473341 182.37732650770675,39.83938705650163 182.16382682987694,39.47834695072831 181.7732786385356,38.86735600228961 181.56672203945607,38.513258975990766 181.59449435528478,38.19387734365014 181.63441705928855,37.82589415871272 181.79410787540715,37.11770010508043 181.6274739803314,36.92329389469325 181.554571651281,36.6733430517175 181.40182391422306,36.34701834124737 181.29594196022953,36.03457978807084 181.26643387466152,35.88183205111636 181.25949079570435,35.680482761047784 181.28032003247242,35.35415805026727 181.32371427595479,34.86814252347165 181.34280774308704,34.69456554954216 181.32892158517268,34.472387022705504 181.3497508220442,34.361297759597555 181.40008814448376,34.14606231182154 181.4174458418767,34.048859206007194 181.495555480145,33.70170525814822 181.56672203945607,33.521185205468484 181.6483032172029,33.37538054705734 181.7802217174928,33.18097433635978 181.9503271518402,32.9726819681617 182.070095263955,32.847706546829016 182.22978607997015,32.688015730813895 182.4866800012823,32.45195104637325 182.6498423568795,32.29920330879801 182.83556971898403,32.10479709851429 182.8789639624664,32.02842322967494 183.0837847917032,32.208943282458144 183.18619520621814,32.29920330879801 186.01376411152938,31.091107570455737 186.03806488787953,31.04250601754856 185.7655490389137,30.702295149164076 185.68743940064542,30.646750517092805 185.42880970938705,30.38985659557371 185.12678577474975,30.119076516450637 184.10788893778368,29.487256331657704 183.52293453574478,29.265077804821047 181.2855273416903,27.89034817129955 182.71753737660853,27.19604027558162 183.68262535175992,26.855829406783297 183.53682069355568,26.494789300699594 183.39969488425484,25.74493677363461 184.89245685994493,25.439441299208344 184.65639217540084,24.5090687187394 185.06429806423859,24.41186561354581 185.2725904328505,24.981198087931052 185.81935790072836,25.76576601029923 185.902674848318,25.67550598364898 186.0918737499011,25.439441299208344 186.2359426382626,25.231148930286047 187.2218598500786,25.63384751021628 187.49611146888716,25.293636641417958 187.89707427866426,24.731247245576057 188.1869478251265,24.30771942929158 188.78058107606878,23.488436112551344 188.81356070101194,23.398176086108016 189.07566193164547,22.030389531129856 189.62069362988748,21.974844899782802 190.4000542427274,21.71100789909961 190.2507780452515,21.141675425024747 190.02339220930043,20.43348137139246 189.96784757774645,20.218245923409523 190.40699732168457,19.704458080681718 190.45386310485247,19.676685764542622 190.4104688613701,19.544767264770055 190.89648438816573,19.10735329015738 191.16726446759918,18.80880089489521 191.32174797449989,18.857402447802386 191.54739804040128,18.41304539443945 191.85462928435993,17.7742821307928 192.13408821228293,17.482672814591268 192.3094009559517,17.343811235033844 192.6010102722567,17.441014340537812 192.93427806220132,17.09386039267885 193.34391972057142,16.927226497810004 193.49319591815078,17.18412041901872 194.62491778827444,16.954998813742183 194.94082788072265,16.899454181670908 195.29145336816367,16.86473878698847 194.84536054506142,15.698301522389272 194.74295013044303,15.44140760128402 194.5589585380778,15.059538258432239 194.9321490320262,14.420774994061365 195.64034308565846,13.039102281789608 195.7653185068877,12.393395938978855 195.81392005958796,12.04624199111989 195.9041800860313,12.06012814872387 196.07428552048216,10.928406279117487 196.0569278231927,10.734000067799167 196.15933823781108,10.352130725257767 196.20620402066857,10.2202122254852 196.36936637626576,9.921659829809192 196.41276061974813,9.768912092647788 196.45094755390915,9.64393667162548 196.4960775671308,9.512018171749453 196.52732142254158,9.373156592192029 196.55856527774543,9.317611960844975 197.06193850224437,8.283093196328721 197.35007627886387,7.574899142386055 197.37437705531744,7.484639116046184 197.4368647658286,7.206915957759013 197.42645014739284,7.109712852668883 197.5253890226361,6.85281893083941 197.52191748305404,6.519551140894804 197.9697460757921,6.241827983021473 198.36029426713344,6.06825100909199 198.5790012542846,5.943275587759303 198.73522053082112,5.846072482255334 198.82548055726446,5.7627555343553425 198.91574058391473,5.651666271247394 198.9660779062508,5.5544631657434245 199.011207919369,5.415601586496379 199.05113062347624,5.276740007870093 199.13271180132656,5.193423059970102 199.38439841342085,5.082333796551773 199.60657693994713,4.950415296675747 199.797511611373,4.742122928167288 199.87735701938058,4.429684374887301 199.89297894693078,4.207505848464484 199.89818625625213,4.14501813795333 200.04051937477084,3.9783842424637275 200.14813709860712,3.839522663527062 200.2540190527041,3.707604163030276 200.35295792794736,3.5340271891007937 200.40329525038692,3.353507136731432 200.40676678976203,3.221588636234646 200.26443367113987,2.9646947147155527 200.19673865130736,2.79806081995017 200.14466555923198,2.5689392145701735 200.14813709860712,2.4856222670840222 200.19847442104665,2.3189883715944197 200.28526290801142,2.21484218765057 200.368579855601,2.1315252397505793 200.68448994804922,1.8676882397916061 200.78863613251036,1.7774282134517356 200.84070922458574,1.7010543449227635 200.92402617217536,1.4511035019470095 201.00040004060088,1.242811133335091 201.06115198157966,1.173380344073678 201.23125741592708,1.0761772382593284 201.51071634405702,0.9998033701441962 201.71900871266894,0.9303725801585636 201.93250839060218,0.7359663698748434 202.16857307524975,0.6665355798892109 202.34388581902198,0.5623893959453614 202.52614164144103,0.4096416583701176 203.13192528055836,0 204.17859443335314,1.464989660171748 204.33481370978623,3.693718005115917 205.24088551369812,5.20730921788446 206.54097704842994,6.0127063770207165 212.86265043894167,6.491778825376467 214.2339085331915,6.776445062413898 219.80746516596372,7.720703800486819 224.34303149474107,8.87325490748204 225.20918059454573,9.130148829001133 230.81050954345704,11.220015594905178 231.70095941950837,11.810177306368876Z"/></svg>