<svg xmlns="http://www.w3.org/2000/svg" width="256" height="256"><path d="M123.83710961431292,33.244335578644964 124.09552969997192,33.24923453768919 124.30618493580751,33.19044703003452 124.50887936316884,33.087568891419835 124.66319657083537,32.90140845080537 124.71157379060433,32.78383343556902 124.88242498479758,32.42131047162554 125.02143294560604,31.946111451562924 125.08695652184613,31.58848744666366 125.12124923457169,31.333741580160073 125.35027556647637,30.398040416583516 125.56215554205362,29.761175750178552 125.83710961431463,29.467238211832182 126.14513165955726,29.325168401666723 126.92222902636749,29.060624617439693 127.45621555423077,28.869565217489 127.94182486225323,28.644213104593753 128.33067973059403,28.3110838944776 128.80097979183142,27.914268218246555 129.19105939991505,27.394978567223937 129.71034905093651,26.865890998331874 130.1469687691749,26.54255970615817 130.50398040420276,26.464176362545604 131.55419473365865,26.331904470322588 131.9755052052568,26.29761175759703 132.3386405389987,26.366197183267147 132.38885486845373,26.4200857318776 132.49663196582063,26.532761788215723 133.20575627690513,27.10593998755679 134.47826086960725,28.25719534608615 134.89834660138848,28.63931414598753 136.87997550532225,30.5450091855742 138.78934476435634,31.358236374651188 139.54317207605325,31.789344764337795 140.994488671205,32.543784445906105 141.80097979184254,32.979791794417935 142.71953459894684,33.68524188598202 143.13962033072917,33.89099816299238 144.20391916730034,34.70422535228837 144.42865891017817,34.87078995723694 145.62033067978214,36.281690140657105 148.15676668713274,36.54133496649692 151.89161053281873,36.967544397066305 152.58848744662117,37.64849969384727 156.23331292106494,39.926515615465874 159.79730557270253,42.13104715251614 162.42620943063497,43.76240048971433 164.11328842627682,43.537048377257086 164.71708511955305,44.45805266384697 165.78138395597705,45.04592774024771 166.34537660761322,45.43294549897431 167.60379669327307,45.922841396096594 167.7813839559799,46.37844458071231 168.11757501538005,47.1916717695703 168.34231475818493,47.62278015947591 169.12982241280898,48.81812614816227 169.64482547465877,49.381506430071894 170.22535211274868,49.99387630147474 170.9491733008187,50.77281077782617 171.60808328237633,51.718309859345176 171.84935701170903,52.110226576897 173.15431720766853,53.045927740254555 174.6068585427091,53.47703612994116 175.54317207600988,53.75627679144686 178.29883649732386,51.51745254145204 179.32026944282381,50.767911818708946 180.32945499089573,51.37538273121358 180.8701775873433,51.86527862833586 182.9454990816017,52.614819350859946 184.76913655856637,53.055725658489 185.61175750161672,53.30557256565636 186.65156154340474,53.6142069812084 186.79669320278123,53.87385180639121 186.87507654639379,54.447030006243274 187.12308634423894,55.093692590590685 188.3815064301178,55.65707287198931 189.0685854257588,55.50030618476418 189.46295162294223,55.9559093691609 189.9032455604079,56.90630740979712 190.32210655244745,57.288426209625506 190.79608083291325,57.75872627064389 191.31843233321987,58.55235762405499 191.76178812011554,58.83649724438591 192.5695039805689,58.83649724438591 193.12063686483145,59.16472749545784 194.08083282319114,59.316595223346745 194.9363135334679,59.68891610552468 195.54133496641393,60.04654011042395 195.86589099832932,60.237599510374636 196.48622167798854,60.394366197088765 198.87997550530227,60.340477648697316 199.95407225981702,60.36497244326143 201.21371708521968,60.58052663821423 200.31720759355778,61.89834660140016 199.6956521740109,62.32945499108677 198.35211267622603,63.250459277384664 198.21004286613356,63.33864053872067 197.8977342316451,64.12737293323354 197.8511941214185,65.65584813232806 197.86834047774477,66.35150030638769 197.93386405405786,66.97856705441221 198.09675443985103,68.15431720765169 198.25474586667298,69.32516840162793 198.46417636269274,70.78015921644611 198.52296387027442,71.23576240062384 198.64115125545516,72.00489895925182 198.7734231476782,72.54378444564833 199.00489895914146,73.50887936334422 199.38334353966843,74.90018371109849 199.17023882434722,76.20330679751676 198.99693815074022,77.47213717099046 200.03061849374123,78.22657685255878 200.95039804066133,78.99081445185054 201.23821188007466,79.25535823629657 202.22412737303324,80.11267605626057 202.67789344774275,80.49479485594294 202.82547458675086,80.63196570750218 203.08450704235426,81.06307409667778 203.6148193509891,81.55786895313629 203.63931414591823,81.71953459874864 204.2994488672175,82.50826699348052 205.10838946741367,83.45376607478052 205.40538885511705,83.82608695652046 204.2933251685035,84.06613594618337 203.0551132885269,84.3306797307024 202.81996325790823,85.46723821217209 202.18187385190646,86.58909981636312 201.47948560947924,87.7893447641667 202.4617268831364,88.31353337423354 202.53092467867907,88.35762400490155 202.20636864676257,88.6466625841307 202.03429271289838,88.79363135341337 201.83649724450825,88.96019595858095 201.53092467867822,89.21004286596731 200.78567054518095,89.70483772198781 200.6025719536315,89.84690753215328 199.1047152481071,91.10104102907832 198.96509491749913,91.11573790562699 198.80587875093553,91.12553582356944 198.58971218625732,91.22351500335888 198.43723208827916,91.26760563402689 198.35517452551002,91.32639314168156 198.22106552367282,91.39987752624991 198.05572565846705,91.44396815691792 197.9412124924417,91.5272504591367 197.8707899572304,91.63012859753238 197.832210655405,91.7624004897554 197.88854868364706,92.03184323331865 198.01469687708305,92.3012859768819 198.05817513787966,92.4090630741028 198.08389467247858,92.50704225338126 198.07593386422448,92.59522351493628 198.10042865900644,93.04102878160955 198.09430496029242,93.12431108412034 198.0685854256935,93.2026944275139 197.97244335588326,93.4182486223937 197.8952847520865,93.60440906330017 197.71524800989405,93.9767299447481 197.60747091260015,94.14819350903291 197.52418861001638,94.28536436037314 197.4017146357358,94.48132271893006 197.28781383965486,94.65278628321485 197.18493570125918,94.79975505198654 197.0195958360534,95.12308634437925 196.9099816289993,95.2847519902836 196.9099816289993,95.42192284133183 196.90385793028528,95.58358848745519 196.90263319061546,95.84813227190122 196.95101041038444,96.17146356385592 196.98346601364065,96.35762400512739 197.07042253537986,96.53888548669764 197.19657072881586,96.79363135320122 197.29822412746873,97.06307409676448 197.32884262103886,97.13655848125981 197.30312308643994,97.19044703016226 197.22106552367197,97.24433557877272 197.08756889170613,97.27372933238105 196.93447642385541,97.30312308642739 196.85854255980146,97.34231475805117 196.77526025736367,97.42069810166375 196.66748315999678,97.52357624027842 196.4825474587601,97.70483772221367 196.3735456216504,97.78812002450545 196.23331292117217,97.92529087584569 196.1126760565788,98.03796693211082 196.0238824250794,98.15064298844894 195.97244335588155,98.25352112662561 195.96509491742586,98.34660134729785 195.95223515012526,98.45927740385497 195.89406001234198,98.60134721380143 195.8058787509341,98.71402327013956 195.7030006125373,98.8511941211878 195.63257807732597,98.98346601370281 195.5952235150974,99.0863441518065 195.56827924075566,99.22351500292773 195.56827924075566,99.3655848130932 195.56154317231622,99.47336191082509 195.61665646066947,99.68401714666068 195.6423759952684,99.81139007954746 195.61665646066947,99.88487446433481 195.597672994583,99.97305572588982 195.56582976134305,100.14451928988262 195.52602571962888,100.34047764873154 195.51316595232942,100.44825474573344 195.46785058191858,100.64421310494734 195.4488671159051,100.79118187379203 195.4923453767017,100.88916105350849 195.58726270676914,100.99203919168517 195.7262706675776,101.11941212508296 195.44641763634536,101.22229026340564 195.1739130435722,101.28107777091431 194.99510104126745,101.33006736091853 194.8426209431433,101.41824862225455 194.4611145132593,101.50642988359056 194.264543784612,101.52602571947546 194.13104715264618,101.54562155536034 194.0489895898052,101.57501530947968 193.97183098600843,101.63870177581357 193.9026331906129,101.72688303736858 193.83833435404262,101.8150642987046 193.81873851815772,101.9228413964365 193.86282914889873,102.07470912432541 193.8805878751694,102.26086956515887 193.88732394382782,102.46172688305201 193.86650336820014,102.59889773439225 193.86650336820014,102.7409675443387 193.8781383956838,102.83894672405516 193.8781383956838,102.94182486223184 193.85241886108489,103.04470300084652 193.82057562784493,103.14268217990598 193.7752602573611,103.24556031852066 193.71769748944925,103.34353949779911 193.61604409079638,103.46111451340046 193.57134109025696,103.56399265157714 193.51990202098614,103.64727495430692 193.41824862240625,103.73055725652571 193.26576852428093,103.83833435425761 193.18187385197174,103.91671769757818 193.12553582380156,104.03429271281453 193.06123698723238,104.1371708514292 193.02265768533286,104.2449479484311 192.97795468479575,104.33802816932234 192.89406001233942,104.46540110220913 192.87507654632705,104.53398652787925 192.88793631362537,104.65646050215983 192.87997550529715,104.81812614850217 192.8928352725966,104.96509491727386 192.86099203935666,105.07777097361199 192.75321494198977,105.1904470299501 192.6564605023081,105.23943661995433 192.45376607494563,105.28352725062234 192.2688303737101,105.30802204562445 192.04164115134665,105.27862829150511 191.91426821809486,105.24923453789678 191.7489283528891,105.23453766061812 191.37538273133333,105.254133496722 190.94978567063535,105.26883037356268 190.71524800988806,105.26883037356268 190.50459277412548,105.3178199635669 190.2694427435798,105.4255970605688 190.0153092468746,105.54317207617015 189.8248622169413,105.59216166551738 189.63380281699062,105.66564605045072 189.53888548699618,105.69014084501484 189.43049601968488,105.75382731178674 189.30863441534873,105.8518064913572 189.16350275575326,105.94978567063565 189.03674219237286,105.98897734240543 188.88364972452214,106.0281690142482 188.73055725667143,106.12124923462845 188.59706062470676,106.23392529096657 188.5076546235538,106.32210655230259 188.43784445814086,106.44458052658315 188.34843845691606,106.61604409064894 188.28413962049174,106.7336191060313 188.22596448263548,106.8218003676593 188.13778322115348,106.90018371127186 188.02939375406118,106.95897121848854 187.95897121870385,107.00796080849277 187.90140845086498,107.10104102887301 187.83159828545203,107.16962645432413 187.7550520515267,107.21861604410935 187.71096142078568,107.2725045927198 187.59583588496196,107.46356399267049 187.5443968158371,107.58113900805284 187.47336191068138,107.71830985917408 187.3913043479864,107.80649112051009 187.32088181270205,107.84078383345465 187.21310471533403,107.84568279257188 186.832823025194,107.84568279257188 186.58481322734883,107.88487446412266 186.36925903261505,107.94366197206934 186.15860379677946,108.00734843840323 185.98101653407264,108.07103490517513 185.80281690156625,108.1543172076859 185.65646050237513,108.19350887945569 185.46662584216725,108.20330679739814 185.301898346688,108.20330679739814 184.93998775268665,108.18371096129425 184.6031843234162,108.17881200268802 184.43906919788026,108.15921616651113 184.25413349671658,108.1102265770179 184.0961420698958,108.046540110465 183.99448867124178,107.9828536438391 183.91855480718783,107.96815676685245 183.77219840799555,107.9779546847949 183.60012247405834,108.03184323340534 183.44886711582183,108.08573178201578 183.34109001845493,108.12492345407757 183.20759338648912,108.1543172076859 183.08695652182274,108.14941824856868 182.965707287358,108.1298224126838 182.7758726271501,108.08083282311756 182.6423759951843,108.05633802840745 182.52173913059093,108.09063074113301 182.39436619733914,108.16901408474558 182.22902633198737,108.26699326402404 182.05021432953774,108.4090630739705 181.86037966940285,108.57072872023984 181.70728720155213,108.65401102253163 181.58052663817173,108.69320269452042 181.4849969382329,108.6883037354762 181.39559093700808,108.64911206363341 181.25045927748562,108.5609308022974 181.14880587890573,108.49724433552551 181.0796080833642,108.48744641758306 180.9650949174849,108.52663808935284 180.83159828544606,108.56582976119563 180.72382118807914,108.5805266382553 180.62216778942627,108.57072872023984 180.5401102266583,108.54623392552973 180.4127372934065,108.53643600758728 180.32271892238327,108.53643600758728 180.03796693225397,108.49724433552551 179.74647887339322,108.47274954096139 179.51806491128693,108.4531537048575 179.3582363749238,108.4335578691916 179.1622780160019,108.41886099191294 178.88364972458658,108.37966932058116 178.76240048997582,108.37477036124494 178.54684629531502,108.40416411507228 178.24739742812716,108.42375995124917 178.03857930197765,108.41396203330672 177.84200857333033,108.3894672383046 177.65156154325106,108.36007348462327 177.3600734844633,108.33557868969416 177.19473361925753,108.28658909968992 176.96570728735287,108.2375995103427 176.7826086957304,108.21310471541358 176.57317819971064,108.17881200268802 176.38946723828977,108.13962033062624 176.26209430503798,108.1102265770179 176.02204531544805,108.01714635634568 175.7293325169905,107.90936925912477 175.56460502151015,107.85548071051431 175.43784445812975,107.81139007984632 175.2235150031376,107.7428046541762 174.93692590332222,107.63012859761906 174.72872014704524,107.5517452540065 174.58236374785295,107.48315982855539 174.44274341709897,107.43906919766837 174.34721371723427,107.41457440288526 174.2406613596102,107.37048377243626 174.10716472764435,107.30679730544536 173.97366809567853,107.26760563411358 173.81567666885658,107.25780771609814 173.71279853038791,107.25780771609814 173.58726270682334,107.2725045927198 173.47826086964062,107.30189834654713 173.37660747106074,107.36558481339203 173.3447642376748,107.43906919766837 173.3637477036883,107.59093692599528 173.3686466626595,107.7428046541762 173.34292712806058,107.84568279257188 173.27924066143584,107.91916717684822 173.12124923461275,108.046540110465 172.92345376622265,108.22290263335603 172.72565829768652,108.39436619712983 172.59216166579256,108.50214329486172 172.4200857318565,108.55603184347218 172.09001837117037,108.61971830980607 171.81139007975392,108.67360685841652 171.61971830993298,108.70300061253586 171.41702388257164,108.74709124342287 171.31537048391874,108.77158603791398 171.22045315377832,108.81077770975676 171.08022045330006,108.903857930429 170.94549908151842,108.99693815059022 170.8120024495526,109.08022045332002 170.64115125543006,109.19289650965814 170.50091855487997,109.26148193503626 170.37415799149957,109.31537048393872 170.27924066150513,109.32026944276393 170.19044703007873,109.30067360687904 170.1004286590555,109.23698714054515 170.00673606865786,109.15370483759636 169.8860992040645,109.07042253537757 169.73974280479922,108.99693815059022 169.55603184337835,108.93325168403733 169.3466013473586,108.8401714638031 169.2014696877631,108.76668707908875 169.04898958978382,108.7323943661442 168.84568279255106,108.70789957136108 168.71218616051223,108.68340477657797 168.54807103497626,108.65401102253163 168.36436007355542,108.60992039186362 168.19840783847823,108.57562767913807 168.027556644285,108.51194121258517 167.88242498490737,108.4335578691916 167.7685241887523,108.38456827918738 167.6093080221157,108.33067973057693 167.4139620331382,108.24739742835814 167.20453153711955,108.19350887945569 167.02082057569757,108.12002449474134 166.8554807104918,108.09552969995823 166.71034905089633,108.03184323340534 166.4941824863641,107.9387630127331 166.2725045928433,107.83588487455643 166.05633802823806,107.73300673623375 165.8469075322183,107.64482547489774 165.54255970613107,107.55664421334272 165.34231475818234,107.49785670561505 165.1573790571647,107.43417023906215 165.02510716479566,107.36558481339203 164.93141457454402,107.28230251066225 164.74402939396776,107.09124311093056 164.57562767933197,106.9491733005461 164.45988977349083,106.90018371127186 164.37905695046567,106.8854868342122 164.25352112690223,106.87568891626975 164.11696264550525,106.8854868342122 163.94243723222843,106.91488058782053 163.77587262713385,106.98346601349066 163.59706062468422,107.07654623416289 163.37232088187938,107.17452541344134 163.23759951024488,107.22351500315358 163.13472137184806,107.23821187999424 163.0538885488229,107.23821187999424 162.95223515017003,107.23331292116902 162.89712186167077,107.2284139620518 162.85976729958819,107.21861604410935 162.7672994490075,107.18922229050102 162.6650336804091,107.15492957777546 162.57256582982725,107.13043478277335 162.48254745880402,107.11573790571367 162.40416411519146,107.11573790571367 162.31169626460965,107.13533374181756 162.21126760577258,107.15492957777546 162.1512553583751,107.16472749549891 162.10226576858986,107.15982853638168 162.03796693216557,107.1206368648309 161.9804041641807,107.09124311093056 161.92406613601165,107.09124311093056 161.86344151874275,107.10593998777122 161.77709736687495,107.15492957777546 161.65278628298017,107.25290875705392 161.34353949799473,107.48805878767261 161.00306184949474,107.67421922828707 160.8205756277437,107.77219840778453 160.68462951629226,107.82118799778875 160.61543172089674,107.8309859155122 160.54990814458364,107.82608695661398 160.48805878771796,107.81628903845254 160.25842008594188,107.7232088182913 160.19105940001455,107.66442131056363 160.1102265769894,107.55664421334272 160.08634415193168,107.45866503377228 160.03735456229245,107.34109001838992 159.92957746485254,107.24800979815569 159.75627679124554,107.15982853638168 159.56338028182665,107.10104102887301 159.41334966325994,107.07654623416289 159.2345376608103,107.09124311093056 159.0165339866639,107.14513165983301 158.79546846301446,107.2284139620518 158.61971830999485,107.2725045927198 158.43172075940117,107.28230251066225 158.32026944280585,107.30679730544536 158.22106552371272,107.36068585427482 158.12492345390135,107.47336191061294 158.04164115131755,107.63992651556151 158.31781996339325,107.78689528484419 158.4617268831729,107.85548071051431 158.3251684017771,108.12002449474134 158.2045315371107,108.41886099191294 158.23821188003788,108.62951622774852 158.2884262095659,108.87936313542689 158.34353949799217,109.21249234554304 158.3778322107177,109.43784445821929 158.42192284145872,109.6974892837671 158.42682180042996,109.89834660122223 158.42559706076014,110.13349663184093 158.40906307415926,110.39804041650595 158.37905695053354,110.57440293968898 158.36129822418985,110.72627066757788 158.31537048383464,110.86344151891812 158.13778322112782,111.39252908759119 157.97611757515045,111.89222290265592 157.8965094917951,112.13717085121705 157.83221065529779,112.48989589721809 157.7103490509616,113.07287201457461 157.663808940662,113.31781996313575 157.67421922847583,113.63625229670323 157.4917330068708,113.98407838358705 158.45254133502772,114.07225964492307 158.83894672395593,114.14084507037418 159.82180036748565,114.50826699321588 160.24800979805502,114.66993263955824 160.88364972449818,114.97856705445328 161.38824249853414,115.31169626456943 161.17023882438772,115.78199632602582 160.69626454392193,116.54623392531758 160.18126148207213,117.34966319645211 160.07715860386062,117.80036742224262 159.9179424372959,117.96203306785497 159.47336191065742,118.34905082658157 159.22167789358272,118.79485609303585 159.15737905701354,119.0006123700462 159.73545621561783,119.68156766711917 159.8769136559119,120.76423759946742 160.1132884262734,121.07287201487345 160.71892222909082,121.43539497859794 161.69381506436417,121.93508879366267 162.4415186774189,121.77342314783131 163.0079608084677,121.87630128593499 163.7201469688362,122.15064298861547 164.07225964489282,122.54745866506552 164.73484384575073,123.05695039829169 165.52969993890463,123.31169626486827 166.00489895904022,123.855480710601 166.5370483772893,124.05633802849414 167.22657685248893,124.29638701771906 168.5119412125635,124.83037354550935 169.02020820590087,124.90385793051568 169.98775260264438,125.25168401739951 170.93018983473337,125.5309246784672 171.9063074097495,125.76117575047968 172.70851194136023,126.26576852415063 173.09430496027105,126.48132271910343 173.54378444588073,126.78015921605602 174.02755664428898,126.97611757526994 176.1181873853313,127.45131659540554 176.27495407233744,127.37783221061821 177.25229638709638,127.14758113889773 177.80832823033018,127.45621555444977 179.66135946119635,127.99510104113828 179.88242498477163,128.12247397424406 179.9161053276988,128.1518677283634 180.866503368116,128.50949173326268 181.36680955305215,128.60747091254112 181.90630740975806,128.93080220471484 182.44213104723556,128.32823025103542 182.96203306820257,127.76974892824303 183.2253521127598,127.54439681578577 183.53643600743246,127.9363135334106 184.32578077167074,129.4794856095648 184.7330067361536,130.2731169629029 185.1579914269072,130.75321494186372 185.46111451332462,130.8952847522482 185.74770361314114,130.94917330093162 186.79791794259702,131.08144519315465 187.0894060013848,131.80649112089563 187.434782608783,131.58113900821937 187.66135946127505,131.79669320266117 189.27679118196278,132.86956521735897 190.42620943065893,133.61910594010206 191.0618493571021,134.06981016560056 192.20085731791139,134.4862216780085 192.67360685863437,133.9522351502182 193.1445192897432,133.73178199665918 193.6031843234239,133.76607470938475 194.14880587884386,134.1432945501689 194.6705450092791,134.49601959573195 195.69932639338188,135.02020820579878 196.94121249244085,135.57379056947397 197.98897734248413,136.08818126137936 198.6258420086701,136.4213104714955 200.1953459890756,137.37660747117596 200.63808940617287,137.6656460501861 200.32088181278618,138.11635027575758 199.80220453178097,138.9099816291687 198.86589099826003,139.4292712798993 198.60012247407118,139.70851194140502 198.46417636269274,139.96815676702582 198.67483159838233,140.59522351497733 198.93508879372854,141.34476423772043 200.24556031860365,142.73116962657647 200.27250459287237,143.7844458053894 200.3018983467727,144.4996938154069 200.33251684034283,145.10226576879433 200.86956521749013,146.20453153731944 201.65952235167282,146.72382118812308 202.18677281087767,147.05695039823922 202.56827924076165,148.22290263309824 203.26209430520709,149.06062461739634 204.1726883038371,150.11390079635524 204.6607470913452,150.68218003665208 205.64176362533257,151.82853643628323 207.5437844459098,154.06736068584004 208.34721371719036,155.01285976757805 209.55358236392698,156.4825474589449 210.1622780160284,157.29087568919667 210.2455603185392,157.28597672986044 211.48254745884708,157.3251684019222 213.72443355797878,157.43784445818736 213.74402939386368,159.02510716479054 213.71279853049512,160.31843233326634 213.67299448878094,161.36191059406383 213.65033680361205,162.05266380886022 213.6178812003547,163.79179424400934 213.59767299459838,164.59522351536287 213.53949785688812,166.15309246806572 213.5137783222892,167.1573790573124 213.47703613000505,168.13717085155696 213.43049601970543,170.1849357013821 213.39865278639246,170.7238211879976 213.2761788121119,172.19350887936443 213.0979791795348,174.18738518057913 212.96693202712646,175.75995101056066 212.85915492975957,177.00918554836846 213.19289650960113,183.23086344167544 212.45682792424788,187.44886711582527 211.89099816307166,191.1965707287377 211.63502755682526,192.62216778965555 211.3821187998629,194.31720759347965 211.31414574421018,194.7630128597149 211.21249234555728,195.39007960839643 211.14696876924418,195.82118799757205 211.11512553600423,196.05633802819074 210.96080832840957,196.72749540754026 210.8738518065985,197.11941212509208 210.83221065534312,197.27617881231723 210.71157379074975,197.71218616039104 210.63870177597983,197.9816289039543 210.55358236392783,198.30006123701077 210.47274954097566,198.59889773447438 210.42559706080462,198.76546233964194 210.40722596458954,198.82424984707762 210.37783221076222,198.93692590319674 210.3545621557219,199.01530924680932 210.36129822423433,199.06919779563876 210.3998775262057,199.28965094948978 210.42682180062044,199.4415186773787 210.46295162288834,199.64237599527183 210.4843845683863,199.7452541338865 210.52296387035767,199.98530312311144 210.5474586652138,200.1567666873962 210.57930189852675,200.35272504595312 210.61910594016794,200.5633802817887 210.64911206379367,200.72504592813107 210.7183098592622,201.0728720150149 210.7415799144485,201.29822412747214 210.75811390097638,201.48438456830561 210.76974892846002,202.07715860382356 210.777097366991,202.87078995723465 210.8695652175717,203.3949785673015 209.9050826701122,202.77770973700044 209.22718922246926,202.26821800377425 208.957746478979,202.1506429886109 207.96631965725078,201.83221065526243 206.53949785680913,201.30802204563358 205.9485609309054,201.09246785097278 205.6068585426626,200.98469075324087 205.32578077168753,200.92590324580522 204.94917330077593,200.8377219844692 204.62951622797664,200.76913655879906 204.4292712800279,200.72014696879484 204.02449479495763,200.60747091245673 203.49846907542258,200.44090630750816 203.0857317820959,200.30863441528513 202.61236987157565,200.1322718923941 201.70912431125646,199.75015309249272 201.06858542569606,199.50030618532537 200.74586650353976,199.28475199015355 199.84078383353335,198.89283527252874 199.124311083992,198.5890998164589 198.77770973677687,198.44213104746825 198.20453153721795,198.16778934478776 197.69503980413776,197.92284139622663 197.5627679119136,197.8542559707755 197.43049601969173,197.7905695040036 197.27495407242841,197.71218616039104 197.1671769750615,197.65339865317438 197.14880587884642,197.68769136560792 197.13104715257575,197.72198407855248 197.11022657694804,197.76117575039527 197.05511328859478,197.89344764239928 197.0410287815525,197.92774035534384 197.00489895913975,198.01592161667986 196.9730557257538,198.09430496029242 196.94733619115487,198.1530924682391 196.9295774648842,198.20208205751334 196.9124311085579,198.2412737295751 196.889773423243,198.29516227818556 196.8640538886441,198.35884874473845 196.8420085733466,198.4127372933489 196.8266993265615,198.4519289654107 196.79056950414875,198.53521126762948 196.7532149419202,198.62339252940347 196.68034292722325,198.78995713413306 196.59154929594283,199.00061237026065 196.5174525414301,199.1867728110941 196.49908144535985,199.26515615448767 196.42192284149124,199.36313533376614 196.34537660756587,199.36803429310234 196.1830985917171,199.35333741604268 195.9608083283249,199.31904470309811 195.8389467239157,199.30434782603845 195.59277403561177,199.28965094948978 195.34966319666484,199.28965094948978 194.87997550529886,199.26025719537046 194.42927127994636,199.2259644828639 193.83588487463,199.17697489315165 192.25474586673968,199.03980404159242 191.84629516244215,199.01041028820308 191.47764849985762,198.99571341092442 190.63012859783606,198.9712186161413 189.9595835885758,198.95652173930063 189.34109001846008,198.96142069819885 188.97121861613275,198.9712186161413 188.50336803445398,198.98591549320096 188.2786282916491,198.9908144522452 187.46968769145295,199.1867728110941 187.14206981025242,199.3141457441999 186.7519902022418,199.45131659532115 186.70177587278678,199.48071034936748 186.6387017759593,199.59338640570562 186.41518677297026,200.07348438466644 186.20208205772207,200.51439069229548 186.04654011031158,200.85731782013508 185.80526638097888,201.36680955292326 185.6399265157731,201.70973668098185 185.15431720767992,202.73851806523064 184.8805878752347,203.34109001869106 184.74341702396748,203.58113900791597 184.61236987148726,203.81628903853465 184.54807103506295,203.92406613597456 184.33251684025615,204.41396203309685 184.2333129210889,204.63441518716687 184.12676056346479,204.88916105367045 183.5927740356015,205.96203306829526 183.34353949801354,206.45682792431575 182.87752602580298,207.2798530313352 182.69259032463933,207.61788120056855 182.57317819978877,207.8383343541276 182.30740967559993,208.32823025124986 182.09124311092287,208.68585425636815 181.66380894068254,209.3668095531491 181.41334966327875,209.76852418893537 181.0238824250654,210.39559093695988 180.6656460504419,211.05695039836698 180.29454990822688,211.71830985948205 179.87078995721498,212.47764849972958 179.48560930817558,213.13900796113666 179.11696264551807,213.76117575048195 178.80894060020245,214.32945499099782 178.31414574410894,215.191671769787 178.0281690141638,215.73545621573874 177.82486221685807,216.137170851525 177.65584813235088,216.50459277436673 177.3435394980814,217.1022657687829 177.23453766089872,217.31781996344372 177.3845682793194,217.4011022659545 177.66993263946614,217.56766687090308 178.20943049617205,217.86650336807466 178.27985303131038,217.9350887937448 178.36313533389418,218.04776485030192 178.5866503368832,218.35639926519696 178.73055725673586,218.43968156792673 178.9050826701587,218.53276178808798 178.98897734239372,218.67973055737065 179.28169014099845,219.23331292104584 179.39314145759377,219.44886711577965 178.70483772213694,219.52235150049398 176.7207593387917,219.75750153089368 174.79424372328535,220.0024494794548 170.87078995720728,220.3894672384004 169.49295774655087,220.4923453765771 168.63502755671547,220.63441518696155 167.45376607492537,220.8597672994188 166.80771586044938,220.86956521758026 166.1053276180233,220.62951622791732 165.782608695721,220.44335578730286 165.1371708512624,220.03184323357416 165.03919167191094,220.0661359465187 164.81077770980582,220.87446417647848 164.5823637477714,221.94733619139527 164.28413962047122,222.92712798563983 163.84262094311677,224.30863441537866 163.65890998169476,224.56827924078047 162.00979791800802,226.15064298848543 160.96570728726618,227.15982853677633 159.9638701776511,228.14451928970013 159.5982853644966,228.4433557868717 159.17575015322865,228.72749540749464 158.5413349663823,229.09001837121912 158.04776485010458,229.41824862251005 156.90753214947947,230.06491120656545 156.20391916723761,230.46662584235173 155.44335578695527,230.87323943681722 154.42927127998513,231.39252908754784 153.99265156160192,231.5982853645582 153.55725658310863,231.46111451321795 150.48377219846358,230.2461726883547 149.71218616049597,229.91304347823856 149.25229638707245,228.64421310476484 147.6111451317858,227.6693202698565 146.69932639326694,227.09614206978543 145.61910594003933,226.4249846910929 142.98162890390725,224.82792406640127 140.79301898351346,223.44641763637046 137.45560318436793,221.3300673606562 134.24188609931875,219.18922229059683 133.73606858554,219.47826086960697 131.031843233425,220.92835272508893 128.37048377223522,222.41273729351545 125.68156766690531,223.79424372354626 125.2718922229368,224.06368646681753 124.51255358239612,224.56338028195526 122.73668095532899,225.89099816308362 121.750153092572,226.69932639333538 119.03061849374494,228.8940600126622 116.11390079610716,231.29454990826937 115.67728107786994,231.63747703610898 113.03306797315356,232.21555419478628 110.21004286591229,231.61788120022408 106.90569503996849,231.857930189887 105.73729332518586,232.68095529741743 104.22963870179204,233.748928352998 100.88303735464847,234.60624617296202 95.10104102886274,236.10042865925797 91.12124923461562,237.06062461739862 89.91181873859499,237.49663196569145 87.09797917942588,238.57440293943347 84.70667483167075,239.51500306212725 84.57930189841896,239.69136558501827 83.91304347825852,242.02327005517432 83.57134109001686,243.21371708554648 83.28781383963035,244.2327005511228 83.09001837109537,244.87446417657202 82.90508267000357,245.63870177615576 82.77770973675177,246.1236987141608 80.9363135333704,246.1139007962184 80.26086956528606,246.55970606245364 78.92406613601248,247.41212492351943 75.36129822411884,249.8322106553035 74.41886099210285,250.48377219876812 71.66687078994545,249.33251684023875 67.27311696262998,247.4954072260302 63.254745866484484,247.27005511335395 61.83343539503032,248.16656460537973 60.43968156764557,249.06797305601174 58.371096142046746,250.43968156810013 57.99081445197857,250.72872014732926 56.792406613643195,251.90447030013073 55.807715860427415,252.8842620943753 53.20208205753528,255.45131659558805 52.69442743421532,256 48.38579301895186,253.65339865300328 43.69871402330744,250.9687691365542 37.704837721943335,247.53459889779998 33.873239436575695,245.46723821187098 31.669320269469836,244.5511328846173 28.313533374109213,243.00306184941888 24.703612982262406,241.6558481323326 21.979791794262525,240.7054500922074 18.650949173243628,239.6521739133945 12.58297611751278,237.79056950425684 11.894672382128975,237.6338028172507 10.979179424308713,237.53582363768024 9.138395590872884,237.33986527868532 7.009185548004031,237.00673606856918 5.657072871946536,236.79608083295258 4.750153092398914,236.63441518682924 3.3398652785581486,233.56276791187256 2.6466625841301212,231.90202082077403 0.7091243110845014,231.04470300081002 0.6258420085007134,230.13349663201657 0.5376607470187029,228.8499693817752 0.5131659521625889,228.14451928970013 0.40171463556727,226.10655235759845 0.3343539497129564,224.71034905116494 0.2963870177589798,223.89222290282473 0.22902633190466623,222.77526025723992 0.16044090623454674,221.4329454992709 0.06123698714028509,219.57624004939643 0.030618493570142544,218.45927740381163 0,217.5284751990603 0.11390079600793009,215.88242498502143 0.1530924678507127,215.19657072890425 0.2082057562039691,214.34415186776548 0.2669932638586428,213.53092467868848 0.3429271279855965,212.51194121245516 0.40171463556727,211.68401714653749 0.4029393753830759,210.84139620341418 3.0900183710257854,209.6215554197257 8.633802816908794,207.14758113933118 12.459889773360807,205.4182486221245 13.718309859239666,204.70789957144322 14.53766074702954,204.18371096137636 15.209430495959607,203.78689528514533 15.848744641704183,203.40477648502494 19.780771586127887,200.7789344767415 20.676056337972856,200.27434170234056 21.092467850526795,199.96570728744553 22.28169014079113,199.08389467247943 24.518677281025745,197.447642375945 26.584813227140106,195.91426821824427 29.916105327571614,193.54807103485166 33.66993263934409,190.89283527274088 32.59277403554533,190.11390079638946 29.407838334306106,187.87997550521987 26.248622167738798,185.61665646073394 25.0244947948045,184.73484384598683 22.126148193454807,182.3441518681031 20.025107164745766,180.59032455611333 17.812614819293128,179.47336191074754 17.37293325162588,179.28720146969508 14.045927740294191,177.44029393754406 12.677893447580221,176.67605633825232 11.514390691914805,175.82363747711355 9.012859767307159,171.9289650949184 9.820575627614518,171.40477648507056 10.971218616053477,170.62094304960192 11.628903857867138,170.1653398654242 12.2437232087556,169.73913043514682 12.380281690151437,169.6509491735918 12.890998162901413,169.35701163502642 13.919779546786344,168.8524188612825 14.886711573803305,168.37232088210266 15.522351500246463,168.0587875079444 16.596448254833064,167.52969993876033 17.082669932580927,167.2847519901992 18.007348438399234,166.85854255984881 18.592161665588954,166.5842008572413 19.24188609914738,166.3245560318395 19.999387630145705,166.01592161672548 20.77526025721312,165.7219840783791 21.657072872033226,165.42804654032474 22.129822412683225,165.27127985309963 23.388242498489085,164.80587875097945 23.95468462953672,164.59522351536287 25.140232700499638,164.13962033096615 25.508879363084155,163.99265156168346 26.101041028730712,163.77709736673066 26.597672994511424,163.58113900817375 28.078383343636517,162.99816289037923 29.231475811415088,162.52296387031663 30.382118799708042,162.07225964474512 31.161665646003872,161.76852418896732 31.85303123089069,161.49418248628683 32.56276791184659,161.2296387018408 33.17452541337804,160.9748928355562 34.45315370479305,160.4605021432128 34.72443355782452,160.35762400481713 35.3343539498159,160.11757501559222 35.74402939371141,159.67666870818218 36.399265156112456,158.99081445184598 36.74709124314227,158.6282914883405 37.43294549904047,157.90324556059952 37.965707287160946,157.3251684019222 39.113900796040156,156.09063074110108 39.33619105936053,155.85548071055538 39.48254745869881,155.70361298215548 39.921616656494656,155.24800979797774 40.40171463567335,154.74831598291303 40.739742804615865,154.39559093713098 40.99020208201963,154.1163502758443 41.29332516836404,153.79301898367058 41.554194733654654,153.51377832216488 42.00734843841976,153.0238824250426 42.568279240624776,152.48499693813508 43.205756276755146,151.8187385181218 43.6472749541096,151.3484384571034 43.83466013468587,151.1769748931106 44.23943661975501,150.77526025732433 44.917330067399114,150.12859767297692 45.423147581177865,149.63870177585463 46.12186160444852,148.97244335606032 46.47152480094655,148.63931414594418 47.25107164724238,147.90447030026075 47.49969381510493,148.14941824882192 47.67360685858334,148.29638701810458 47.89528475195817,148.46785058165938 47.95835884878567,148.46785058165938 48.072872014665,148.4482547459935 48.458052663777394,148.34537660737882 48.681567666839435,148.3012859767108 48.86895284748871,148.27189222310247 49.08083282306709,148.2327005510407 49.250459277445685,148.1886099203727 49.845070422504854,147.94366197181154 50.1555419473061,147.79669320296685 50.524188609890615,147.6350275566975 51.02143294554273,147.49295774675105 51.239436619762145,147.42927128012516 51.41028781381054,147.45866503380648 51.500306184979756,147.49785670535726 51.55909369256143,147.58603796691227 51.604409063045246,147.79179424392265 51.6803429270992,147.9779546845371 51.79056950402471,148.13472137176223 51.94366197187542,148.2571953460428 52.096142069781735,148.3208818125957 52.22473974284933,148.35027556671503 52.43661971828172,148.3649724434827 52.67544396812883,148.3796693203234 52.85241886103725,148.3894672382658 53.0128597672718,148.41396203304893 53.18677281074907,148.43355786893383 53.349663196544505,148.46295162305316 53.461114513284684,148.4482547459935 53.53337415796308,148.42375995099138 53.67728107774389,148.35517452532127 53.7850581751108,148.28658910008915 53.89957134113613,148.19840783831512 54.083894672355385,148.05633802814967 54.26393141454783,147.89957134114354 54.39987752607226,147.79179424392265 54.48744641760987,147.73300673597598 54.567054500965234,147.69381506464418 54.67115737903072,147.64482547463996 54.78689528479886,147.6105327616954 54.88426209435191,147.59583588485472 55.004898958945276,147.57624004896985 55.1616656460244,147.55664421308495 55.36313533378894,147.5664421310274 55.509491732981225,147.5713410903636 55.64849969386267,147.59583588485472 55.8487446418114,147.68891610530795 56.115737905670045,147.83098591547343 56.38701775870151,147.997550520641 56.549908144494665,148.1102265767601 56.633190447005454,148.1886099203727 56.688916105303115,148.25229638714458 56.80281690145704,148.42375995099138 56.919779546894986,148.65890998161007 57.01347213714662,148.88916105354954 57.10961420702987,149.0508266994539 57.213717085095354,149.14390692005313 57.737905695016195,149.51132884289484 57.825474586626804,149.59951010423086 57.8665033680108,149.6974892838013 57.87630128595324,149.82976117602433 57.89344764235252,149.93263931442002 57.924066135922665,150.04531537046614 57.99081445197857,150.14329455025558 58.10104102875809,150.26086956519993 58.18493570121328,150.34415186792972 58.22596448259727,150.4470300062524 58.281077770950525,150.65278628304375 58.394366197233055,151.10838946722149 58.57379056955409,151.67666870795634 58.635639926638774,151.85793019018357 58.70851194118971,151.96080832850626 58.849969381629776,152.1028781387447 59.04776485001875,152.22535211302528 59.29026331902242,152.34292712796963 59.62706674829399,152.54378444586277 59.88793631351161,152.67115737926056 60.109614207032436,152.77403551758323 60.27924066133803,152.83772198442813 60.38456827929232,152.8083282305278 60.45682792411785,152.7642375994218 60.53766074714303,152.71034905081135 60.60685854253855,152.67605633808577 60.66993263936719,152.67115737926056 60.755664421289445,152.69565217418966 61.00979791792163,152.78383343552568 61.218003674197455,152.89161053303857 61.35272504590723,152.99448867143425 61.463563992631144,153.09246785071272 61.560930802184195,153.2198407838185 61.63319044700973,153.31781996360797 61.698714023249835,153.494182486499 61.74096754437663,153.63625229644546 61.80220453151692,153.78322106572813 61.930802204584516,153.9252908756746 62.04898958976527,153.97917942428504 62.225964482527694,154.04776484995517 62.371096142196166,154.08205756289973 62.646050214383045,154.14574402945263 62.79914268223376,154.17513778357196 62.96203306802692,154.15554194761407 63.04960195963753,154.1212492346695 63.10104102876237,154.08205756289973 63.181873851860544,153.98407838362127 63.247397428099504,153.87630128610837 63.330679730538435,153.78812002477235 63.42437232086307,153.70483772211557 63.51194121247368,153.63625229644546 63.55664421308609,153.59706062460268 63.65829761173896,153.55786895283288 63.713410900165215,153.55296999415367 63.796693202676,153.582363747835 63.95590936924074,153.6950398043921 64.27556644211303,153.97428046567882 64.57624004897183,154.2486221678483 64.79240661357704,154.38579301918853 65.0526638089221,154.48867115751122 65.2669932639154,154.56215554207955 65.87875076544455,154.74831598291303 66.24984690751582,154.90508266991915 66.40232700556814,155.00796080853382 66.575627679174,154.81200244946592 66.75076546232336,154.53766074707744 67.2988364973019,153.33741579927386 67.5548071035483,152.77403551758323 67.81628903856432,152.22535211302528 68.10900183709488,151.61788120022865 68.37538273115511,151.08389467243836 68.81200244946535,150.17268830364492 69.03551745260039,149.70238824240752 69.4433557869547,148.8597672995032 69.55174525412,148.6197183099863 70.15921616655163,147.33619105952593 70.27434170244835,147.08634415184756 70.44641763623956,146.71892222900584 70.9283527251066,145.75872627064618 71.18003674218018,145.249234537639 71.63992651560258,144.30373545612 71.88487446416485,143.80404164105528 72.13533374156863,143.28475199054367 72.39069197794247,142.7752602574635 72.62094304959109,142.29516227835666 72.7954684630139,141.94733619118082 72.94978567068041,141.64849969400925 73.1383955909995,141.28107777116753 73.2461726882934,141.06552357621473 73.42498469074303,140.69320269469378 73.54011022663977,140.44825474613265 73.66258420092034,140.19350887962906 73.7421922841297,140.03674219240395 73.87813839565413,139.7917942438428 74.08756889167391,139.4292712798993 74.27250459276458,139.09614207000214 74.44825474593019,138.75321494216257 74.68218003673309,138.27311696276374 74.8873239437249,137.8420085732961 75.02388242497587,137.56766687068864 75.08634415193082,137.44029393780184 75.1818738517978,137.27372933285326 75.32026944273485,137.13655848151305 75.6962645437762,136.82302510706276 76.06919779546054,136.51928965121195 76.34782608702183,136.2939375386087 76.69197795467724,136.04898959004757 76.93998775266839,135.87752602576276 77.24923453765383,135.6668707901462 77.4433557868874,135.5394978569674 78.36497244334983,135.025107164843 79.02020820575201,134.6576852420013 79.41702388241993,134.42743417028083 79.65707287200983,134.29026331915958 79.98714023269598,134.0992039195009 80.57930189834254,133.76607470938475 80.84017146356015,133.6289038580445 81.08266993270753,133.50153092464672 81.3025107165423,133.3937538272068 81.61175750152773,133.24678505814313 81.78260869572213,133.16350275592433 81.97795468462665,133.05572565841143 82.25535823637213,132.91365584802696 82.54378444580288,132.77158603808053 83.06919779561252,132.4923453765748 83.2786282914863,132.3796693202367 83.50459277403395,132.25719534595612 83.72688303742619,132.13472137167554 83.9644825474575,131.9975505207733 84.25597060624526,131.83588487450396 84.62216778934416,131.63502755661082 84.9981628905315,131.42927127981946 85.52969993876319,131.14023270080932 86.00000000000057,130.8756889161443 86.43172075941258,130.6405388857446 86.6295162278757,130.53276178808568 86.82853643608163,130.43968156763245 87.0361298224142,130.35639926541367 87.2069810166086,130.28291488084534 87.44335578689822,130.18493570112886 87.6589099816309,130.0869565216314 87.88916105327837,129.98407838323573 88.08266993264166,129.92529087601906 88.24617268830623,129.8909981630745 88.50826699333965,129.83221065534684 88.88977342315063,129.72443355812592 89.31047152480438,129.60195958384537 89.62033067980609,129.5039804042749 89.92957746479266,129.41579914293888 90.21494182486639,129.32761788116488 90.49969381506872,129.23453766100366 90.63625229646341,129.1806491123202 90.82976117582785,129.08756889172096 90.9699938763061,129.03368034311052 91.11267605634298,129.00428658899116 91.54011022665516,128.9014084508145 91.89467238212441,128.78873239454938 92.3018983466073,128.6662584202688 92.5793018983528,128.58787507687524 92.96938150643756,128.46050214325845 93.24066135946674,128.37721984103965 93.97734231476551,128.1518677283634 94.39130434790684,128.0244947947466 95.16044090631581,127.7844458055217 95.38273116970805,127.71096142095335 95.1886099204722,127.30434782612286 94.84078383351653,126.5401102268311 94.68769136566581,126.20208205759774 94.49908144527373,125.78077158614556 94.22902633198508,125.19289650974483 94.13288426210069,124.98224127383625 94.02510716480907,124.74709124329055 93.79424372328906,124.25229638705105 93.27924066143926,123.06184935697091 92.77526025734771,122.01837109639246 92.65094917337993,121.69993876326298 93.02327005511987,121.64605021421453 93.26209430496698,121.59216166560407 93.44090630741661,121.49418248632561 93.57930189835366,121.39130434771093 93.73974280480721,121.24923453776447 93.89283527265906,121.11696264576045 94.0838946723896,120.92590324580976 94.26515615439784,120.72014696901842 94.42559706063354,120.54868340502561 94.63135333749675,120.37232088213459 94.81996325788883,120.20575627689401 95.09859154930413,119.99999999995666 95.31843233313775,119.87262706699687 95.54072259652999,119.74035517477385 95.6932026945093,119.64237599505739 95.99020208221268,119.51010410283438 96.19167176975822,119.4513165951067 96.39559093693536,119.42192284149837 96.65278628299757,119.4317207592218 96.88609920392905,119.46601347216637 97.13533374159002,119.51990202077683 97.5180649112168,119.59828536438938 97.74402939383745,119.60318432350661 97.95590936926983,119.58358848754872 98.23331292101533,119.53949785666171 98.39436619719427,119.52480098011304 98.3349663196682,119.4072259644387 98.24494794864498,119.30434782604301 97.96754439682648,119.11818738520955 97.40906307410708,118.80955297009551 97.04409063075099,118.59889773447894 96.24311083895606,118.14819350912643 95.64727495415408,117.80526638084883 95.14390691978794,117.50642988367724 94.77281077771781,117.29577464806067 94.34905082670704,117.0459277406013 94.09308022046065,116.88916105337617 93.72872014704895,116.68340477665781 93.24923453774052,116.40416411515211 92.58665033680964,116.02694427458697 92.32578077166502,115.87997550508527 92.12982241274311,115.69871402351504 91.73790569511829,115.3704837722971 90.47826086964263,114.32210655238242 89.93080220453547,113.8860992038706 89.34170238824592,113.38640538880587 88.8175137783251,112.95039804029403 88.39865278628554,112.60747091245445 88.26025719534735,112.48989589721809 86.7795468462964,111.3092467853724 86.51867728115178,111.10838946747926 86.047764850043,110.74586650324378 85.46417636252308,110.28536436016783 85.32333129217342,110.1726883039027 84.71341090018318,109.3545621554895 84.28413962032978,108.81077770975676 83.63319044702855,107.99265156178156 83.38028169021217,107.68891610556574 82.84568279240335,106.9736680955482 82.527250459348,106.58175137770439 81.86956521746248,105.77832210678885 81.3882424984657,105.29332516856479 81.05572565829395,104.93570116344652 80.78873239436231,104.66135946127704 80.5523576240738,104.42131047154113 80.02571953459436,103.85303123080628 79.93570116357114,103.7501530924106 79.81383955908898,103.61298224136237 79.32945499080931,103.03490508290407 79.15248009797389,102.83894672405516 79.22290263318521,102.66748316006236 79.42620943049097,102.12859767293585 79.57624004898466,101.74157991442826 79.7752602571906,101.18799755075308 79.99632578084002,100.58052663795645 80.0771586038652,100.34047764873154 80.1990202082025,100.24249846916108 80.84996938150145,99.80159216160503 80.7421922842817,99.44886711582298 80.48132271899108,98.41518677296797 80.35333741586788,97.9938763012238 80.16044090644898,97.30802204532561 80.07470912430658,97.01898346587747 79.90630740966967,96.45070422536162 79.80220453160531,96.13227189252414 79.03796693202156,95.4562155542764 78.61175750152518,95.0936925903329 78.00183710975394,94.58909981615096 77.43172075933188,94.09430496042245 77.01775872626355,93.73668095552318 76.29638701782399,93.13900796088801 76.01653398659289,92.89895897122508 75.2008573178113,92.28169014092401 74.88854868346884,92.03184323331865 73.81383955908383,90.97366809546152 73.4813227189121,90.66013472123026 73.21800367420886,90.40048989582846 72.95345988983583,90.16044090616553 72.52051439075402,89.78812002442561 72.20085731780986,89.50398040409468 71.94121249233392,89.26393141486976 71.08879363134115,88.45070422557377 70.53643600733578,87.94611145139183 70.05878750764155,87.51500306199722 69.8120024494662,87.28965094932097 69.59399877524679,87.08389467231062 69.3821187998144,86.9320269442027 68.81077770979554,86.42253521141454 68.40722596454107,86.0698101655595 68.10287813838085,85.76117575000745 67.22473974278917,84.96754439703436 66.59399877524423,84.3943661972553 66.41028781382337,84.2229026334085 65.84751990200415,83.76729944879277 65.18126148199084,83.2333129210025 65.01530924676767,83.1059399878967 64.7060624617081,82.8462951622759 64.51867728113297,82.70422535232943 64.42498469073533,82.59644825481652 64.0753214942373,82.08205756298413 63.92039191669938,81.85180649097165 63.65707287214215,81.4500918554044 63.39620330685154,81.06797305601401 63.032455603165246,80.50459277388539 62.807715860360396,80.16166564604579 62.60992039197028,79.87262706659764 62.49601959581635,79.68156766686596 62.34721371706546,79.45131659536449 62.108389467218345,79.05939987752066 61.91426821798364,78.69687691379617 61.616044090611595,78.1677893446121 61.273116962697856,77.57501530931314 61.17330067358619,77.39375382759691 60.9173300673398,76.94794856114262 60.65033680348115,76.47764849968624 60.52969993874179,76.26699326406965 60.31781996330941,75.89467238232973 60.02388242496304,75.394978567046 59.93141457445421,75.2235150032722 59.744029393731935,74.90508266992371 59.5217391304857,74.52296387024134 59.23515003059617,74.00857317840895 58.99265156159364,73.58726270695678 58.86405388860018,73.35701163494431 58.715248009775145,73.09246785049828 58.55603184321155,72.8377219842137 58.34170238821941,72.42620943070398 58.24494794853776,72.24004898987052 58.0612369871169,71.90202082063713 57.90630740965198,71.58848744640588 57.736680955346394,71.26025719562595 57.6527862828912,71.13778322134539 57.01469687688943,70.48132271898253 56.65768524186157,70.11879975503903 55.84996938148121,69.28107777117894 55.13472137175454,68.56093080211718 54.48989589709548,67.88977342298666 54.14329454995446,67.55664421308951 53.609308022018176,66.98836497235466 53.43172075931135,66.81690140858086 53.1200244947673,66.48867115728993 53.23759951007665,66.41518677301359 53.39436619722878,66.34170238844526 53.642375995073934,66.20453153717801 53.92345376604784,66.05756276811432 54.076546233898554,65.97917942450177 54.22657685253825,65.9007960808892 54.43233312918361,65.78812002433207 54.6233925291343,65.67054500938772 54.78812002446866,65.57746478871549 54.88793631350733,65.5137783223816 54.98162890390496,65.45499081443492 55.03857930187243,65.4060012246497 55.13227189219707,65.32761788125613 55.205143906967,65.25903245587801 55.29271279857761,65.18064911226544 55.38640538882925,65.08756889159321 55.45988977347059,65.0189834659231 55.539497856679965,64.92590324546985 55.672994488645784,64.73974280463639 55.73851806488589,64.62216778947305 55.83343539502633,64.47519902019036 55.95162278013408,64.24004898957166 55.999999999974904,64.17636252301877 56.0630740968024,64.09308022028898 56.23025107169538,63.96570728740219 56.3417023882177,63.882424984672404 56.5780771586522,63.75995101039183 56.87078995710862,63.61788120022637 57.46662584205773,63.33374157982245 57.8456827923831,63.15737905715043 58.165339865328384,63.00551132882352 58.41334966317354,62.89773423160262 58.55970606243882,62.8291488059325 58.834660134844704,62.75566442136416 58.917942437210634,62.716472749594374 59.05266380899112,62.66748316002815 59.19657072877079,62.61849357031592 59.408450704203176,62.51561543170124 59.63870177585065,62.398040416464895 59.86834047762672,62.285364360199765 60.03123086341987,62.20208205746998 60.24066135943965,62.094304960249076 60.43600734849016,62.015921616855515 60.603184323311275,61.95713410890884 60.80097979177326,61.90814451934261 60.99203919172395,61.878750765296274 61.423759950989954,61.85425597051316 61.78812002454765,61.859154929630385 62.29577464786762,61.839559093964496 62.647274954052854,61.800367421902706 63.32578077156721,61.72688303740737 64.62033067978584,61.58971218606713 65.43661971836583,61.50153092451212 67.10655235768141,61.22229026322542 68.18922229024865,61.124311083946964 68.45988977340872,61.06552357621929 69.17268830379463,60.85486834038371 69.53214941823511,60.688303735435134 69.60440906306064,60.629516227707455 70.16166564611024,60.286589099648864 70.57256582974856,59.992651561813496 70.96019595834656,59.68891610552468 71.42620943048412,59.32149418268297 71.69871402333139,59.14513165979195 72.04960195957223,58.94427434189881 72.39497856704344,58.76791181900779 73.29638701782143,58.390691978150635 73.67238211878978,58.20943049621539 74.12492345375648,58.00367421920503 75.0195958358772,57.606858542754985 75.60379669319437,57.38640538897696 76.6478873240081,56.974892835467244 77.15676668707201,56.813227189124895 78.63870177593991,56.35272504582995 79.35639926515104,56.088181261383916 80.09369259039194,55.81383955921444 80.35211267605207,55.696264543978096 80.92590324570254,55.353337415700494 81.50887936313207,54.90753214924622 81.89834660134427,54.60869565207463 82.2051439069901,54.3441518678476 82.47703612989297,54.18248622172425 82.77648499700896,54.020820575673895 83.04470300060927,53.8934476422761 83.50091855480554,53.70238824254441 84.31904470307275,53.447642376040825 84.51684017153586,53.359461114704814 84.70545009192794,53.266380894324584 84.97244335585958,53.15860379659268 85.16105327625166,53.070422535037665 85.47458665033578,52.825474586476524 85.60073484384591,52.70789957153218 85.70851194121282,52.6050214329175 85.962645437991,52.36497244347358 86.0502143294556,52.2620943050779 86.30189834660217,51.982853643572206 86.43417023882519,51.81628903862363 86.71034905082787,51.38518064922902 86.93386405389106,50.94427434159997 87.03490508267139,50.66993263943049 87.26209430503485,50.033067973025524 87.42804654011202,49.592161665907476 87.51561543172149,49.39620330662056 87.64788732394564,49.07777097378308 87.80587875076758,48.76423759933282 88.05327617888733,48.37721984082522 88.39497856713012,48.04898958953429 88.76117575015603,47.82363747707704 88.9277403551776,47.73545621574103 89.43906919780012,47.54929577446956 89.19657072879646,47.309246785244646 89.0998162891148,47.19657072890652 88.9510104102909,47.05450091874106 88.49234537668318,46.6331904472159 88.05572565829993,46.21677893466196 87.72994488671362,45.913043478154144 87.49357011649812,45.668095529593 86.97060624617409,44.85486834029702 86.86650336803561,44.66380894078433 86.6625842008596,44.34537660750885 86.59706062461835,44.085731781888036 86.48438456828022,43.78199632581823 86.33925290883074,43.434170238934406 86.05143906919841,42.787507654806 85.89222290263366,42.439681567630174 85.663196570729,42.12614819339892 85.40783833435401,41.73913043467231 85.27556644212986,41.54807103472162 85.15125535838222,41.357011635208934 85.11022657692409,41.24923453755004 84.99326393141429,40.891610532650766 84.8891610533488,40.46050214347516 84.81077770973623,40.14206981034568 84.71034905082617,39.68156766690473 84.66319657072815,39.46111451334571 84.61788120024434,39.19167176978245 84.4598897734224,38.20208205781445 84.4164115126988,37.96203306785953 84.36374770368515,37.81506429901485 83.9877526027168,37.0312308636192 83.84874464183535,36.781383955721836 83.69626454385605,36.536436007160695 83.29148805878576,35.928965095094064 83.15921616663574,35.67421922859048 83.02449479485412,35.43417023863556 82.88977342321849,35.14513165940642 82.79975505204928,34.90998162878772 82.68279240661133,34.58665033683302 82.5413349663184,34.199632577887414 82.39620330679479,33.76852418871181 82.27189222297301,33.37660747086798 82.21004286596019,33.20024494797696 82.11635027556483,33.08266993252162 81.88793631353043,32.83772198396048 81.69259032455292,32.60257195363378 81.35762400489556,32.093080220334606 81.2571953460585,31.965707287228817 80.97856705449719,31.64237599527411 80.75382731169235,31.363135333768412 80.35578689528164,30.49112063674475 80.21065523583101,30.22657685229872 80.3147581138965,30.167789344571045 80.73729332516447,29.96693202711591 80.7434170238785,29.873851806735676 80.80159216173477,29.36925903233473 80.86834047771768,29.050826699497247 80.98530312315563,28.37966932036672 81.0440906307373,28.002449479582566 81.03490508266626,27.875076546184772 80.94366197182838,27.76729944896387 80.6564605021393,27.375382731120045 80.4941824862164,27.169626454620687 80.36619718309434,26.988364972612445 80.28903857929758,26.802204531778976 80.1641151256044,26.567054501160282 79.9295774648571,26.116350275369783 79.80465401101793,25.886099204087312 79.72137170858014,25.714635639802513 79.65339865285442,25.538273116911494 79.50826699325894,25.180649112012226 79.34109001836597,24.744641763500397 79.28597673001386,24.5731781997266 79.18738518064386,24.112676056212656 79.12798530319078,23.799142681981397 79.05633802823664,23.4562155541418 78.99203919166635,23.044703000413083 78.94672382118253,22.804654011188166 78.89834660141472,22.628291488224146 78.80159216173305,22.17758726272565 78.71341090017805,21.810165339883937 78.63074096753866,21.43294549909978 78.48560930808918,20.78628291497137 78.30740967551095,20.01714635634339 78.16227801591548,19.40967544398476 78.07593386404768,19.047152480041273 77.98346601346584,18.684629516316786 77.90385793025648,18.30740967545963 77.81567666870147,17.95958358857581 77.74647887330595,17.57746478867443 77.7372933251619,17.126760563613935 77.70789957133456,16.54378444581942 77.71892222901982,16.132271892309703 77.73361910593349,15.764849969467994 77.73055725664948,15.431720759351842 77.73974280472052,14.58909981615552 77.74464176361874,14.300061237145373 77.7562767912484,13.785670545093978 77.77036129829065,13.516227801749725 77.76791181873205,13.163502755675683 77.74096754446332,12.766687078787635 77.72565829767825,12.507042253385826 77.69075321493642,12.423759950948039 77.38150642987685,11.963257807872095 77.10410287813136,11.586037966868938 76.88548683404053,11.262706674695233 76.41824862223316,10.483772198343807 76.0612369872053,9.939987752392074 75.65033680342098,9.234537660754992 75.44886711580244,8.896509491813617 75.19595835884007,8.494794856246347 75.03674219234833,8.225352112464092 74.93263931413685,8.068585425457963 74.80036742198683,7.8873239436687195 74.65523576239136,7.676668708052139 74.44029393752895,7.368034292500101 74.29393753826368,7.157379056883521 74.18738518063843,7.0153092469370595 73.90018371095164,6.662584200863018 73.65339865284929,6.344151867587534 73.49663196569716,6.153092467636845 73.34782608709227,5.9032455604694825 73.19228413960994,5.653398652572118 73.14758113907054,5.560318432337886 73.01224739741751,5.2614819349472945 72.78015921622996,4.766687079218792 72.57685241892308,4.247397428196174 72.3447642375884,3.669320269299882 72.18677281076647,3.243110838949498 72.0661359461731,2.7924066134509995 72.04960195957223,2.336803429273279 72.12369871401197,1.4109001836391681 72.15860379675493,1.0042865892466757 72.20453153711014,0.43600734851183 72.94182486220618,0.40171463578627054 74.61420698100737,0.21065523583558088 75.87262706681322,0.06368646655289631 76.52357624004145,0 77.90140845069787,0.47519902006261194 77.90691977954049,0.5682792407348458 77.9963257808383,0.6613594611150789 78.23392529086962,0.8720146967316593 78.62829148812605,1.2149418250822566 78.89528475198469,1.4353949786412825 79.6044090630692,1.8763012857593346 79.86650336802961,2.0477648500441337 80.05756276797916,2.1359461113801435 80.2480097979136,2.194733619326818 80.67176974892436,2.3172075936073884 80.86282914887505,2.371096142217839 81.41518677288043,2.3955909370009527 82.12553582363473,2.4102878139876216 82.48989589711942,2.493570116498409 83.3429271280566,2.9638701777357985 84.12859767299346,3.5811390077448713 84.96387017758694,4.242498469151951 85.2767911818738,4.4923453767573145 85.79056950398079,5.060624617054159 86.17575015316619,5.565217391236109 86.71647274961491,6.2853643598598605 87.40110226584329,7.025107164879506 87.86834047764953,7.456215554055112 88.91794243723515,8.249846907685207 89.6368646664081,8.734843845471264 90.4188609920424,9.386405388935898 91.01592161666247,9.905695039666515 91.59644825489723,10.40048989612502 92.11267605634383,10.83649724434485 92.78995713418838,11.468462951705591 93.32271892223586,11.870177587491861 94.04286589100562,12.237599510333572 94.78567054509027,12.609920391781504 95.80649112079182,12.982241273740438 96.7268830373643,13.388854868132931 97.5835884874569,13.71708511942386 98.33374157992539,14.08450704226557 99.42375995109546,14.471524800773171 100.16778934484992,14.721371708670535 100.94978567063023,15.000612369884236 101.99265156155742,15.377832210741392 103.43723208819675,16.024494795088803 104.393753827401,16.293937538141055 105.37109614208696,16.60257195354709 106.4537660747272,17.004286589333365 107.63257807717768,17.337415799230513 108.93386405390874,17.55786895300854 110.03796693212108,17.85180649128191 111.09614206983221,18.09675443984305 111.68585425606615,18.25352112663018 112.78383343549146,18.963870177822486 113.38885486836448,19.296999387719637 114.30189834662613,19.733006735939465 116.7881200245217,20.933251684254056 117.79240661362238,21.403551745418444 119.0857317820982,21.893447642540725 120.32088181271774,22.290263319063772 121.33067973066105,22.79485609295372 122.37048377223009,23.446417636199353 122.48377219851263,23.52969993863714 121.56827924069236,24.303735456163345 121.09063074107114,24.700551133051395 120.64360073487406,25.10226576839966 120.2222902633489,25.499081445360712 119.88977342317715,25.77832210657441 119.63931414577338,25.993876301089212 119.42069810168142,26.09185548058667 119.22535211270505,26.1408450703719 118.99203919170057,26.170238824418234 118.63625229648851,26.18983466037613 118.36129822422863,26.2486221675928 118.19044703003424,26.317207593262918 118.08511941222594,26.42498469092182 118.06858542562506,26.596448254549617 118.09308022048118,26.72382118816641 118.14819350890744,26.86099203899565 118.25352112686173,27.076546233948456 118.50275566444968,27.54194733606862 118.67054500921407,27.85058175140166 118.8714023271072,28.320881812420048 118.96754439691745,28.717697489308094 118.9865278628568,28.88426209454867 118.99816289048759,28.98714023287135 119.01530924695987,29.104715248107695 119.50704225355037,29.232088181432488 119.78934476434007,29.359461114611282 120.01653398655753,29.47703612999363 120.33925290878683,29.7072872015681 120.54868340480661,29.942437232113797 120.74219228416992,30.34905082657929 120.98346601357564,30.66258420102955 121.17636252299454,30.902633190254466 121.62461726886256,31.32884262082385 121.7489283528292,31.461114513046866 121.91855480720778,31.64237599527411 122.08695652184358,31.828536435888577 122.24862216782206,31.965707287228817 122.37721984088853,32.127372933060165 122.55419473365095,32.32333129234708 122.86099203922377,32.64176362518456 123.0293937538607,32.82792406601803 123.2553582364802,33.009185548026274 123.43417023892984,33.097366809362285 123.60257195356449,33.19044703003452 123.83710961431292,33.244335578644964Z"/></svg>