<svg xmlns="http://www.w3.org/2000/svg" width="256" height="256"><path d="M193.01565768415492,23.05917790195196 198.11072498366485,23.915971730359196 202.93161825816958,22.99634635428008 205.03504710699448,21.408421792468893 209.10624578155776,21.888226336547177 210.5513713722231,22.5279657285097 212.40204604158274,24.16158596125439 216.1405231127812,27.965750559467647 217.81269906788933,29.18810975440663 220.97569628451117,30.690354933547322 222.8163750257876,31.90700216980049 224.01303040612973,32.08407289459333 225.1240064036311,32.19831207162918 226.0350638411708,32.23829578379175 226.49344853936867,32.209735989341276 228.43408656071108,31.8270347457307 230.38472051005155,31.39863783152708 232.68806791875303,30.713202768716172 234.23029680988606,30.878849575541572 235.3941084268059,30.661795139096853 236.28945797757657,30.393333073288158 236.89492561623257,30.279093895741617 237.33046247909135,30.164854718535537 237.80455506405826,30.07346337726434 238.2072481635799,30.02205574713433 238.69276466617376,30.033479665101773 239.05690204333195,30.079175336035274 239.57240633000518,30.113447088916217 240.3078210327214,30.181990595273913 241.23744233654327,30.496148332526797 243.15237654303345,31.598556391829227 243.9406268651681,32.204024030315 244.62891790732192,32.80949166939657 245.33148884661585,33.69484529165848 245.6227987482743,34.31744880713797 245.70990612091416,34.7686935568509 245.65992648083864,35.43699274266809 245.46429189010408,36.09386801162432 245.19725781358383,36.705047608795915 244.96163951068672,37.550417519491056 244.50896677134492,38.52145052544484 244.47755099772175,39.91516848598015 244.57608228790346,41.04042438070678 245.07445069809367,43.439447100417276 243.809251811479,44.64467041895835 243.59505335437717,45.1987304278248 243.64074902522557,46.18689930992115 243.65360093265167,46.22688302182837 243.78497598634078,46.67241581302571 244.10056171313747,47.215051904180065 244.27906042738897,47.500649846982476 244.4389952753583,47.85479129614259 244.68175352674035,48.1518131566571 244.84454435413775,48.25462841589574 246.4510327824013,48.48881872907883 247.5148851193403,48.36886759284647 248.43451049524919,48.220356662929674 249.1684972081663,48.15752511508757 249.965315468585,48.16323707436919 250.78926553365508,48.19179686856432 251.45328075058558,48.27176429229365 252.6142363880774,48.61448182374166 253.70236455015458,49.27706905087303 254.41921538667376,50.259525974198446 254.90473188935275,51.03064041985008 255.4559359190465,53.16691303209724 254.6848214733949,55.20037038493554 254.57201028598794,57.63937681646815 254.68767745290802,59.575730868753624 255.2060377190944,62.403150502327286 255.5373313327452,64.51086332046444 256,66.26443468884568 255.42594813505227,67.08695676411664 255.03610694304186,67.89234296290455 255.13035426416664,69.98291990404799 255.06752271683524,70.71405063804774 254.5106067282854,71.54799663069032 252.86984654688555,72.82176345558909 251.40330111068027,73.84420409116218 250.16095005940466,74.56962286588032 249.8824920651723,74.88378060279274 249.82537247669694,75.2607698871217 250.61790676797364,75.71772659552045 251.68747106368357,75.98047670289867 252.85556664983054,76.74587918977936 253.56956150683658,77.95110250832043 254.3763756951683,78.52801035295154 254.73194513395728,79.08207036181798 254.59485812141213,79.40765201652762 253.5595655787534,80.75567430672524 252.7698872669047,81.23547885054818 251.8931015825013,81.44682132830708 251.44899678144355,81.43539741085033 250.90493270040494,80.67570688265545 251.0420197129501,80.3101415160386 250.8306772352763,78.84788004863489 250.76356171871777,78.41948313443127 250.20378975082502,78.00251013793975 249.40982746991943,77.83686333111434 248.52732982657486,77.64265673009382 246.42818494706225,78.05391776806977 244.11769758970559,78.93927139041678 242.1070880723766,79.59614665903256 240.86759300061414,80.15020666823948 240.0336470077162,80.8642015252455 239.770896900338,81.31544627461797 239.5138587517307,81.63531597081202 239.4310353484031,82.00088133717354 239.48529895753558,82.22364773264454 240.45347598355065,82.77199578308051 242.26273895120391,82.8405392894382 244.03201820695,82.70345227646747 245.86555699965638,82.76057186536842 247.51916908848233,83.30320795652277 248.9343068951534,84.27995292116236 249.83679639432393,84.65123024646505 250.556503210186,85.04535540778772 250.6978741918732,85.45661644525296 250.73642991423665,85.88501335945658 250.39371238278864,86.97599750079158 249.94960758173087,88.20978061378311 249.47265901725083,89.00374289511429 248.96143869963453,89.62634641033843 248.46307028952944,90.2318140488242 247.38779403487834,90.72304251061458 246.53814015495604,91.10574375396982 245.8812648865956,90.98579261773746 245.20154178264076,90.92867302968766 244.71174131073462,90.99721653544955 244.14911336349897,91.45417324410364 243.89778717374773,91.81402665194958 243.78640397613992,92.02536912970847 243.7421362949204,92.27098336034831 243.78069201728385,92.45947800293837 243.8692273794675,92.63083676870492 244.03059021723598,92.82504336947011 244.2362207359686,92.96213038218549 244.520390689057,93.12777718875556 245.08016265694974,93.3162718313456 245.5028476122973,93.39623925507493 245.85127710260136,93.4476468849496 246.2839579858619,93.54475018524708 246.75091062242896,93.60186977414801 247.10505207141884,93.64756544474106 247.65340012159947,93.76180462220249 248.0460972929528,93.89317967563625 248.4702102380995,94.0474025650049 248.8157837488904,94.19020153640611 249.15421731111127,94.350136384035 249.345567932874,94.49864731471783 249.5012188115311,94.61288649166856 249.69542541272185,94.80138113366282 249.88106407562853,95.04699536481334 249.94246763316082,95.16694650053502 250.08383861484802,95.37257701926764 250.1409582034936,95.49252815524466 250.24520145253138,95.7038706332589 250.28232918509568,95.81239785118335 250.40799227992875,96.02374032894225 250.47653578620134,96.38359373678819 250.46225588914632,96.58351229683498 250.41941619764086,96.8234145687039 250.3294528456581,97.18326797689028 250.25234140110143,97.3774745779108 250.15666609026263,97.623088808806 250.04956686171172,97.80587149211442 249.80395263090165,98.05719768195078 249.65972566987153,98.31423583038784 249.44552721276972,98.55985006128303 249.19848499216053,98.89685563370476 248.99713844248484,99.14246986459995 248.73438833510662,99.42235584812074 248.54732168265613,99.66797007901593 248.41594662896702,99.93643214567578 248.291711523848,100.15348658186515 248.25029982214164,100.34769318288568 248.2345919352024,100.5533237016183 248.27600363690874,100.81607380925186 248.31027539021525,100.98172061582191 248.36882296840463,101.19306309383616 248.6729847774892,101.83280248579868 248.87861529622182,102.36401465949629 249.138509424172,102.79812353213038 249.44124324354257,103.04373776328092 249.71684525834692,103.48927055371222 249.9039119109676,103.83198808541557 250.19379382282693,104.04333056308936 250.43084011535294,104.25467304033758 250.80782939993725,104.48315139500508 251.20766651986062,104.83158088522403 251.59036776313073,105.29996151124975 251.74601864195805,105.6026953305352 251.76601049803935,105.89971719130504 251.8816776647892,106.45377720025661 251.9402252430637,106.96214153818957 252.07874024532288,107.29914711086664 252.08873617332094,107.7446799015533 251.7160308579638,107.9445984616001 251.15911486958422,107.96173433799801 250.23806150413154,107.8760549552424 249.48408293496294,107.88176691426868 248.5087659602927,107.99600609147475 247.81190697985483,108.25875619885298 247.47632939714708,108.33872362283766 247.1007681023619,108.39013125220163 246.60953964065666,108.39584321097256 246.16400684988488,108.65288135957985 245.77987761690076,108.9327673439518 245.59423895399408,109.08127827378347 245.33006085690184,109.41257188777473 245.19582982378472,109.95520797892908 245.20296977243987,110.41216468758317 245.25723338157235,110.72061046555444 245.30578503176363,111.00620840835685 245.53711936551872,111.50886078760398 245.84984911280225,112.00008924939436 246.3539294818485,112.94256246064232 246.62096355836874,113.31955174522663 247.40207393193336,114.15349773812456 248.18175631578393,115.01600352530274 248.48306214544047,115.34729713929399 248.64728096263698,115.55863961645709 248.77294405747006,115.88422127142206 248.88289926536387,116.0555800370184 248.95144277172156,116.244074679268 249.13279746531597,116.51824870435831 249.47123102753685,116.56394437554715 249.75968494976726,116.67247159347161 249.74254907328424,116.73530314114349 249.72398520691698,116.80384664716073 249.6682936080705,116.94093365987611 249.62402592702125,116.99805324843659 249.57833025608775,117.032325001658 249.49550685267505,117.10658046644616 249.43553128468653,117.1637000553471 249.36698777841394,117.26080335555947 249.2998722618554,117.35790665662297 249.19991298187455,117.44358603912325 249.16421323902424,117.46643387480279 249.0956697329219,117.50070562802419 249.04569009276125,117.53497738064979 248.96572266877655,117.609232846204 248.93145091564028,117.6435045994254 248.74010029396266,117.87769491235314 248.66441683912,117.96337429485341 248.6015852917886,118.06047759591692 248.5530336415122,118.12330914324833 248.26172373985372,118.3632114148619 247.93471409534496,118.59168976935918 247.86617058898727,118.63167348152174 247.83189883585098,118.65452131669059 247.78049120623166,118.71164090525107 247.74621945301027,118.74591265847248 247.63769223483047,118.83159204097274 247.57628867712793,118.87728771216159 247.46204949992185,118.9515431772051 247.1507477422672,119.12290194305677 247.07220830808168,119.18002153161726 246.81659814927352,119.37422813238244 246.69521902349737,119.44848359776641 246.3782053069867,119.57985865137042 246.33393762593744,119.60270648687971 246.02263586819768,119.7512174172221 245.69848220311695,119.9282881418447 245.6070908615053,119.9739838121824 245.20154178264076,120.13963061926314 244.81312858042946,120.30527742617366 244.3990115634511,120.42522856206556 243.94205485496724,120.45378835626067 243.8792233074656,120.45378835626067 243.57506149838102,120.40809268566764 243.100968913329,120.29956546714737 242.6697160198676,120.1967502076534 242.34984632375867,120.1910382491378 241.86147384156652,120.1967502076534 241.59158378570336,120.22531000210387 241.38595326680053,120.26529371426643 241.29170594567572,120.27671763197853 240.83474923719186,120.28242959066435 240.39778438470415,120.22531000210387 239.9622475220156,120.12249474286523 239.9151238613681,120.11107082515313 239.49101091639162,119.97969577146402 239.2311167883563,119.85403267646073 239.09974173483744,119.77977721116187 238.6713448206338,119.61413040459182 238.2472318754871,119.49989122764107 237.81169501262832,119.38565205009454 237.48325737840554,119.22571720229541 237.2419271168226,119.0943421486063 237.20051541511626,119.07720627186794 237.15196376483985,119.06578235415584 236.933481338596,119.05435843644374 236.8763617499504,119.05435843644374 236.67929916941674,119.10576606606305 236.63788746771039,119.11718998377516 236.59361978666115,119.14003781945469 236.52222030096053,119.19144544932936 236.34514957633792,119.24285307869333 236.26946612149527,119.25998895517637 236.23947833750103,119.40278792657757 236.24519029635707,119.73979349925465 236.23947833750103,119.9282881418447 236.20663457416387,120.04252731879544 236.1795027695125,120.08251103070266 236.1309511192361,120.21388608464711 235.6083068839077,123.25264819597967 235.15563414456588,124.74918141626432 233.71907649235484,134.44237559489312 234.34025201786497,137.481137706481 234.4502072258439,137.80100740216437 234.34739196643505,142.45625387001394 237.2919067567279,156.71330317445506 237.36616222194166,157.7928633983333 237.25192304473558,157.87854278134424 237.22050727102732,157.91281453456565 237.11769201170355,158.1698526829176 236.933481338596,158.49543433762724 236.87921772946356,158.6725050619094 236.72785081969315,159.01522259361275 236.62217958085625,159.23798898908373 236.32658571014088,159.69494569739737 236.17807477988362,160.02623931113328 236.0095719936302,160.35753292452873 235.74253791710996,160.63170694961906 235.67542240046626,160.6774026208079 235.63972265761595,160.7059624149179 235.2855812086261,160.9687125220408 234.97713543031438,161.214326752936 234.7458010966444,161.4999246957384 234.65583774466165,161.62558779099703 234.63298990923747,161.6998432557852 234.63727387854973,161.82550635044802 234.71581331265017,162.19107171732023 234.8386204281403,162.53378924902358 234.96999548182941,162.85937090373324 235.14278223722488,163.1963764764103 235.287009198255,163.5276700895504 235.5226275011521,163.82469195006493 235.77966564975938,164.12171381083476 235.93674451813047,164.39017587723927 236.00671601411707,164.76145320254196 236.03241982896927,165.13273052835532 236.05383967467947,165.4811600188296 236.05383967467947,165.85243734413228 236.04527173648052,165.93240476820208 236.00814400383106,165.9952363155335 235.90104477528018,166.15517116367306 236.00671601411707,166.50931261249272 236.01528395240115,166.5835680778767 236.16950684151445,166.94342148546727 236.38656127821451,167.20045963407455 236.59504777629004,167.3718183996709 236.9234854105128,167.50890541230117 237.3704461909986,167.6402804659903 237.8345428480525,167.76594356124892 237.8902344469841,167.78307943739148 237.94164207660342,167.80592727315613 238.33576723767075,168.0172697508299 238.41859064108345,168.07438933922018 239.2525366341516,170.3477489639274 239.31965215071017,170.90752093207544 239.32964807870826,170.9760644380927 239.4667350912534,171.31307001076976 239.58240225800327,171.64436362425033 239.69521344541022,171.97565723790115 239.82373251975642,172.1755757976926 239.95510757344553,172.341222604518 240.0921945859907,172.5754129177011 240.10790247275972,172.68965209490716 240.09933453464586,172.7753314777479 240.07505870942256,172.8381630250793 239.98366736764066,173.18659251521314 240.00508721335086,173.45505458178786 240.11932639047183,173.78634819526843 240.16787804074823,174.14048964442856 240.15931010246416,174.42608758723097 240.127894328841,174.51747892901284 239.770896900338,174.4832071755361 239.61239004199754,174.46607129939352 230.23192561065227,170.12498256845637 225.3824725418673,169.40527575267942 222.09809619963954,168.2685959402407 221.84962598948655,168.24574810507184 221.75252268884861,168.26288398146977 221.70682701808536,168.27430789918185 221.28985402159384,168.39997099418514 220.84003726159492,168.51421017088055 220.7900576216896,168.53134604787425 220.7429339611272,168.5599058419843 220.6972382901937,168.59417759520568 220.53444746288145,168.70270481338548 220.50303168908806,168.73126460783595 220.47447189489293,168.76553636105734 220.36737266634202,168.8569277025839 219.9860994126157,169.07969409771445 219.61196610762966,169.27961265776125 219.42775543452208,169.39385183471197 219.36920785624758,169.43954750590083 219.32779615454126,169.46239534106968 219.04219821173882,169.56521060056366 218.98222264375033,169.57663451827574 218.51384201746924,169.6680258598023 218.36104711806996,169.685161736796 217.91265834787018,169.685161736796 217.772715355897,169.67373781908393 217.44998968053025,169.61661823018298 217.39429808185403,169.6109062717525 217.3328945240664,169.6109062717525 216.85594595950124,169.6223301894646 216.80453832988192,169.63375410692134 216.75170271054859,169.65088998331927 216.3075979093206,169.75370524315372 215.84635723177982,169.8108248312035 215.38797253358194,169.81653679048512 215.13093438497467,169.8108248312035 215.07667077584222,169.7994009134914 214.99813134157154,169.77084111929628 214.86532829825353,169.70229761319393 214.81249267874998,169.69087369548183 214.72681329599436,169.6680258598023 214.67968963543197,169.63946606560717 214.52118277709152,169.57092255958995 214.4854830342412,169.5423627653948 214.33411612464104,169.445259464842 214.17132529715857,169.3881398762815 213.7015166812486,169.30817245221172 213.50731008022805,169.2339169871682 210.66561054925893,168.67985697770595 202.76454346163018,169.99360751476726 201.51790844138276,170.25635762240083 200.15703424392927,170.210661951212 197.97649395054773,170.87324917885405 197.21251945355127,171.08459165610228 196.87122991198748,170.94750464398268 196.56278413376089,170.83326546669147 194.5179028632105,171.38161351661677 192.22455138259224,171.57010815920682 178.97280683647514,174.67170181812614 160.56887540228763,175.48851193437082 157.06458864410203,175.73412616526602 151.024192153831,175.02013130825998 145.53928366231065,174.96872367864066 144.95666385899372,174.92873996647808 143.9142313677649,174.9344519251639 142.77326758626927,174.9801475960974 139.57314263725334,175.8312294657337 136.7842787258729,176.5338004047723 136.18023907667558,176.41384926905064 130.24694181495542,174.88304429579992 122.70572813534282,172.93526632554702 120.9293089310267,172.5754129177011 120.29956546714737,172.44974982303825 120.29813747743336,172.2498312627361 120.32098531285756,171.93567352573857 120.46949624328504,171.6729234187008 120.51233593453517,171.59866795357217 120.68369470038685,171.33020588699745 120.85505346598319,170.96464052012524 120.85648145561208,170.776145878131 120.83648959970103,170.73616216622378 120.78079800076944,170.66190670118027 120.73367434020705,170.6333469067298 120.65370691630748,170.5762273180842 120.61515119394404,170.54766752388906 120.56088758481158,170.52481968820953 120.40666469569828,170.4734120585902 120.29956546714737,170.43914030570926 120.24815783752805,170.40486855248787 120.21388608430665,170.37630875837786 120.003971596432,170.159254321848 119.88687643979789,169.98789555599635 119.70694973591749,169.66231390137182 119.67410597241009,169.5994823539553 119.40421591654693,169.25105286331078 119.16002967545086,168.95403100279626 119.10433807651928,168.89119945546486 119.06863833366897,168.86835162029598 119.02722663196262,168.85121574355762 118.88585565036054,168.794096154912 118.8330200309421,168.78267223719993 118.77875642180965,168.7769602785141 118.7259208023912,168.7769602785141 118.26753610419333,168.7769602785141 118.15615290641527,168.76553636105734 118.10188929728281,168.74268852554806 118.06333357500448,168.7198406898685 117.9590903258816,168.65129718351082 117.82771527236272,168.4913623357117 117.81200738533836,168.40568295287096 117.83342723113365,168.21718831062137 117.85913104590075,168.11437305138273 117.87769491218292,168.04011758633922 117.92910254188735,167.9258784087927 118.17471677269742,167.63456850730446 118.45031878758687,167.32041077005158 118.47602260243909,167.24615530526341 118.48887450978008,167.05766066267336 118.41033507559453,166.91486169127214 118.3846312606572,166.82347034949026 118.38177528122917,166.77777467889723 118.37177935323109,166.4293451887634 118.36463940466103,166.27512229956497 118.34036357952282,166.19515487583564 118.27324806304937,166.07520373960327 118.17757275221057,165.96096456265255 118.13330507099107,165.9266928091758 118.08903738994181,165.9038449737516 117.88340687103896,165.78960579680086 117.80058346762627,165.75533404391993 117.75488779686299,165.7496220846383 117.70633614650147,165.7439101261227 117.16084407583396,165.72677424946946 116.9766334027264,165.70392641396015 116.90808989636872,165.67536661985014 116.53681257072559,165.4583121833203 116.50254081758929,165.42404042992865 116.4768370028222,165.3840567177661 116.46255710559696,165.304089294207 116.46969705425214,165.22412186988186 116.4911168998772,165.1841381583151 116.52396066338459,165.15557836386463 116.56108839586379,165.13273052835532 116.74387107934244,164.99564351572505 116.75957896611146,164.90996413322478 116.71959525420424,164.8357086678408 116.68246752155481,164.8071488737308 116.63819984042044,164.78430103796615 116.58964819022914,164.76716516182358 116.45398916731288,164.72146949063472 116.38972963018234,164.71004557292264 116.32404210333779,164.7043336141517 116.0413001400485,164.7157575319489 115.99846044854303,164.727181449661 115.758558176589,164.86998042106222 115.60719126698885,164.9727956805562 115.47581621329974,165.052763104626 115.43012054236623,165.052763104626 115.26447373554083,165.0413391869139 115.21449409563553,165.02991526911669 115.16737043507312,165.00706743343713 115.12167476413963,164.9727956805562 115.08311904194642,164.93852392707944 115.05170326815303,164.90425217394315 115.03313940187088,164.86426846203594 115.0231434739579,164.79001299699243 115.02028749444477,164.40159979495138 115.02457146367192,164.1274257696057 115.05170326815303,164.04745834553592 115.09454295965851,163.96749092146612 115.16308646584598,163.8418278268033 115.19021827049733,163.80755607392234 115.22877399269053,163.77899627947187 115.28018162248009,163.75614844430302 115.33587322124143,163.73901256756466 115.63289508175595,163.69902885540208 116.10984364623597,163.69902885540208 116.48397695130714,163.69331689663116 116.53110061186953,163.67618102023323 116.5739403032899,163.65333318446858 116.61249602565334,163.6247733906139 116.64962375830277,163.59050163739252 116.78385479124967,163.4762624599311 116.81241458552991,163.44199070705014 116.86239422560544,163.36773524166617 116.97948938206932,163.0878492576347 116.99091329978143,162.74513172669737 116.9766334027264,162.37385440062866 116.9523575775882,162.33387068872145 116.73244716163035,162.00257707532597 116.51396473530139,161.70555521472636 116.33546602104988,161.3856855185323 116.07557189309969,161.07152778153477 115.76712611495819,160.88303313954052 115.71714647488265,160.86589726280215 115.67002281432026,160.86018530411633 115.62147116404385,160.85447334509004 115.57577549319547,160.83733746860702 115.38728085103098,160.72309829140093 115.36014904637965,160.68311457923838 115.34444115961062,160.63170694961906 115.34158518009748,160.58601127902602 115.36586100523569,160.4032285957176 115.39156482008791,160.36895684224083 115.42869255273733,160.34039704838617 115.91563704521545,160.14047848808403 116.34117797990594,160.00910343439492 116.8109865958159,159.91771209261302 117.24509546887556,159.7920489979502 117.43216212141115,159.73492940955992 117.59923691795056,159.6435380675227 117.64064861965691,159.60926631438642 117.66920841393716,159.5692826024792 117.6877722802193,159.52929889031662 117.6977682082174,159.4493314667575 117.65492851688215,159.1751574416672 117.61922877403184,159.13517372950463 117.44787000826528,158.98095084039133 117.10372448718837,158.71248877407194 116.92379778322285,158.60967351457796 116.83811840046724,158.55826588495864 116.80384664733096,158.52970609050817 116.75815097639746,158.49543433762724 116.71816726440511,158.4725865024584 116.62677592270835,158.42689083126953 116.59250416957205,158.40404299610069 116.54395251929564,158.3926190783886 116.50111282787528,158.37548320139487 116.45970112616894,158.35834732491185 116.41686143483368,158.3412114487693 116.36259782570123,158.3412114487693 116.29976627819958,158.32407557177555 116.25835457649323,158.3012277366067 115.95990472626471,158.15271680617923 115.56863554462541,157.9356623697345 115.21163811612239,157.73574380994305 114.90319233789577,157.44443390819947 114.70755774707612,157.1302761709466 114.63044630260458,156.94178152861187 114.62901831280546,156.58764007979224 114.63758625117465,156.32488997215867 114.78181321220475,155.95932460528647 114.77181728420666,155.84508542833572 114.75468140763853,155.79938975740222 114.66471805565577,155.5023678968877 114.68613790153617,155.2738895427309 114.73326156201345,155.15965036578015 114.94174806025921,154.83978066975635 114.97316383388237,154.73125345157655 114.93746409103207,154.55989468572486 114.90319233789577,154.52562293284393 114.6675740351689,154.35997612567806 114.60902645680929,154.35426416699224 114.55333485804793,154.34855220796595 114.49907124883036,154.35426416699224 114.45051959855395,154.35997612567806 114.39054403056545,154.37140004339017 114.2791608328725,154.39995983758527 114.22489722374004,154.42851963203574 114.12779392318723,154.44565550877414 114.07924227308105,154.42851963203574 114.02640665349237,154.39424787915482 113.77650845354026,154.13720973046242 113.69939700898361,153.96013900566956 113.69511303984157,153.91444333533187 113.70510896783965,153.66311714515507 113.74223670040396,153.5888616803669 113.77222448439822,153.56030188591643 113.99499087986922,153.25185610794514 114.26059696659036,152.94341032937808 114.50049923862949,152.65210042788985 114.75468140763853,152.42362207364792 114.797521099144,152.40648619725002 114.88748445112677,152.37221444377326 115.09168698014537,152.3436546499186 115.18307832184215,152.33794269063696 115.21449409563553,152.3093828966972 115.25447780754274,152.29795897872975 115.2958895092491,152.28082310224673 115.34158518009748,152.25226330813672 115.38014090246092,152.23512743114298 115.4272645629382,152.22370351368625 115.5329358017751,152.1894317608053 115.56720755491139,152.16087196635482 115.6014793081328,152.1380241308455 115.69001467040154,152.03520887160687 115.7085785366837,151.98951320050315 115.71143451602661,151.94381752956966 115.70143858811363,151.68677938096235 115.65859889660817,151.52113257413697 115.68287472174637,151.38404556201738 115.72143044419492,151.34977380854062 115.81139379600745,151.28123030243827 115.86708539485393,151.26980638472617 115.93277292169847,151.26980638472617 116.16839122451047,151.25838246675875 116.62534793307944,151.20126287870895 117.08087665176419,151.18412700171524 117.53069341167799,151.17841504319964 117.98336615101981,151.17841504319964 118.62310554298233,151.3155020556597 118.8330200309421,151.4354531916367 119.41421184454501,151.92668165317173 119.63269427070374,151.9780892830464 119.80119705704227,151.88669794126452 119.91686422379215,151.50399669765392 119.9439960284435,151.0013443184068 119.51274313472673,150.90424101819443 119.25284900677653,150.7557300875116 119.16859761364982,150.64720286924668 119.37851210169471,149.9960395598274 119.41706782388792,149.63618615172615 119.27284086285782,149.40199583854306 118.79018033952174,149.25919686714184 117.10086850784546,149.20207727909207 116.3725937536142,149.04785438997874 115.43012054236623,148.99644676001898 115.05884321680821,148.81366407679565 114.95031599845818,148.4024030387346 115.01600352530274,147.81407127698722 115.18307832184215,147.31141889765496 115.1059668772855,146.99726116040208 114.91461625560788,146.76307084755945 114.6218783642354,146.74022301205014 114.04639850948854,146.99726116040208 113.6522733484212,147.09436446069955 113.20245658859253,147.1400601318033 112.93685050187139,147.00297311917302 112.82118333486619,146.64311971132707 112.88687086171075,145.67208670596912 112.81689936580926,145.32365721575016 112.56985714520006,145.18657020286454 112.207147757841,145.07804298459962 112.00294522873727,144.97522772510564 111.60310810889901,144.44972751068966 111.5188567157723,144.3240644159417 111.28752238210234,144.20411328004982 111.023344284925,144.12985781466585 110.67634278442006,144.1984013207682 109.99519169083631,144.40403183950082 109.07699430472655,144.52969493475945 107.47907381483216,144.6382221526839 106.33953802296541,144.68962978230323 105.62982713518653,144.8781244248933 104.96009995922977,145.09517886108267 104.08902623376751,145.73491825330052 103.29363596297769,146.36323372721048 103.00232606131922,146.72308713539687 102.80669147049957,146.98583724268997 102.7038762110907,147.33997869159475 102.56964517797357,147.61986467596668 102.39400244315009,147.79122344122257 102.21121975975653,147.79122344122257 101.9213378478972,147.54560921032737 101.7456951129886,147.32284281536707 101.52578469703074,147.24858734981285 101.36442185934737,147.24858734981285 101.200203042236,147.3171308564259 101.15879134052965,147.66556034630437 101.16593128918481,148.00256591898145 100.98600458513418,148.19677252000199 100.5718875681558,148.30529973852225 100.23345400593495,148.25389210890293 99.99783570303784,148.01398983669355 99.8150530197294,147.6941201410102 99.51517517970176,147.19146776176305 99.38808409523979,146.89444590116344 99.38380012601264,146.27755434445487 99.3995080129519,145.963396607202 99.30811667117001,145.68922258211168 99.16674568956793,145.49501598109114 98.92684341752879,145.30080938007063 98.54985413319983,145.26082566790805 98.241408354803,145.38077680388508 98.10432134225783,145.59211928189933 97.81301144059937,146.01480423707667 97.58310509664344,146.19758692038508 97.3432028246894,146.35752176852466 97.09901658359334,146.39750548068724 96.27649450840751,146.47747290475704 96.10656373235496,146.51745661632378 96.01517239082841,146.5860001226815 95.79811795412834,147.0715166255307 95.57677954845647,147.55703312829482 95.29974954402326,147.83120715312978 94.3601323122033,148.01970179571984 94.18591756700873,148.05397354860077 93.79893235451145,147.64842446982135 93.59044585626569,147.0886525019286 93.63042956825804,146.40321743911773 94.03026668818141,145.49501598109114 94.09309823568306,144.6439341117102 94.0031348837003,144.1070099789863 93.71039699232782,143.8271239954655 93.3176998209745,143.78714028330296 92.24956351480836,144.20411328004982 91.04291220646817,144.95237988968145 89.42071589143558,145.8834291836429 88.55107015551711,146.3118260978465 87.83136333965503,146.2604184677165 86.91459394325929,145.99195640165246 87.03882904837833,145.73491825330052 87.83136333965503,144.91239617777424 88.09125746760523,144.49542318128272 88.72385691091257,143.7757163658462 88.83809608811865,143.33018357464886 88.74384876699385,142.41055819916556 88.79525639661317,142.03356891458125 89.26649300232228,141.3824056046513 89.42785584000563,141.0511119915112 89.54780697589753,140.8797532256595 89.74915352565836,140.65127487116223 89.95050007533405,140.47420414662474 90.19611430622925,140.26286166886584 90.28464966841288,140.13148661543207 90.31463745240713,139.81732887851965 90.3960328660207,139.41749175842602 90.41745271173089,139.1147579392257 90.40174482487674,138.8577197905333 90.26608580213072,138.68064906574045 90.04046342731681,138.38362720522596 89.82340899070186,138.0808933859405 89.52353115084445,137.71532801932364 89.14796985605928,137.3326267757982 88.68387319900535,136.9841972859197 88.21549257272427,136.67003954841147 87.94560251686111,136.4301372767128 87.69856029625191,136.19023500458854 87.46722596258195,135.95604469140545 87.16734812272453,135.69329458402723 86.90602600497522,135.4990879830067 86.62899600045687,135.32201725872454 86.37338584164871,135.21349004020428 86.14919145663393,135.1906422047801 85.66367495378472,135.16208241058496 84.90826839507233,135.16779436961124 84.37848421117386,135.15065849287285 84.02719874152689,135.11638673999192 83.63878553940071,134.94502797414023 83.3531875965983,134.81365292019578 83.2475163576763,134.65943003133782 83.0904374892201,134.39667992370426 82.86624310403508,134.12250589861395 82.61920088351098,133.8026362029306 82.60920495559802,133.6198535193668 82.54922938760951,133.3285436180488 82.52638155218533,132.86587495045356 82.56208129503563,132.45461391298832 82.53066552132735,132.15188009344752 82.39500649849622,131.9462495747149 82.21365180473157,131.60924400229317 81.8623663350846,131.30079822406657 81.46538519467435,131.0551839934267 81.14408750902165,130.91809698045597 80.964160804971,130.9009611042283 80.80708193659991,130.91238502202552 80.6285832223484,130.97521656935692 80.40581682679229,131.0608959518572 80.121646873789,131.14086337592698 79.71038583615352,131.28937430626934 78.90928360650764,131.4778689483487 78.55942612657469,131.5178526605113 78.20671266729882,131.59782008458106 77.886842971275,131.6663635905983 77.56554528562229,131.8091625619995 77.25995548690882,131.9919452455633 76.9757855337353,132.20328772306684 76.77586697377362,132.403206283369 76.56595248581384,132.60312484333068 76.34318609051307,132.8430271152847 76.03759629162938,133.0429456752464 75.70773066777771,133.1114891810934 75.52209200495614,133.08864134592454 75.31360550671037,132.99153804537173 75.05799534790222,132.8316031975726 74.76668544624376,132.5974128843895 74.5125032770645,132.35751061218014 74.22547734463318,132.06620071094727 73.88133182364139,131.68349946708133 73.43294305335648,131.39218956584844 73.05024180991613,131.24939059444725 72.55615736886796,131.16942317037746 72.14632432094649,131.16371121135117 71.81645869709483,131.1865590470307 71.33094219424561,131.37505368911008 71.02535239561726,131.59782008458106 70.84828167090953,131.84343431547626 70.73547048350258,132.04335287543796 70.60266744018458,132.36322257120642 70.58124759438927,132.85445103274145 70.65121909037586,133.40279908317743 70.76403027778282,133.82548403809943 70.79544605149108,134.20818528196537 70.82686182528447,134.61944631917527 70.69405878179623,134.99643560375955 70.52983996476995,135.28203354656196 70.26708985730662,135.54478365419553 70.02004763678254,135.73327829618978 69.68875402313174,135.7961098435212 69.51453927802226,135.7846859258091 69.1746777261725,135.7618380903849 69.12755406552499,135.74470221415723 68.98475509412378,135.68758262559675 68.58634596391441,135.4876640652946 68.23791647369548,135.21920199923056 68.03085796524884,135.04784323337887 67.92233074689881,134.83650075561997 67.83093940520203,134.65371807231156 67.7795317754976,134.33384837637286 67.77096383721353,133.93972321530552 67.7438320326473,133.45420671279675 67.71670022816619,132.99153804537173 67.64958471160762,132.62026071955836 67.54962543162677,132.36322257120642 67.43253027499267,131.96338545145326 67.1412203733342,131.57497224907178 66.90845804995024,131.31222214177865 66.59430031286759,131.11801554075814 66.34583010262949,131.03804811668834 66.02167643754875,130.99235244575485 65.62326730733938,130.96379265164484 65.17773451656761,130.95236873359227 64.82930502643379,130.9809285277874 64.59797069276384,130.99806440452576 64.29238089388014,131.0951677049935 63.9196755786081,131.25510255287773 63.59694990315626,131.47215698983314 63.31706391920989,131.75775493263555 62.9871982952731,132.12332029899704 62.74158406454814,132.52315741900554 62.60021308294606,132.80875536180795 62.62591689762805,133.048657633762 62.66018865076434,133.26000011177624 62.784423755968504,133.38566320618372 62.96720643936205,133.53988609529702 63.36561556957142,133.75694053225243 64.19527759332732,134.09394610441882 64.63367043561414,134.37954404722123 64.90784446070445,134.66514199002364 64.93497626518557,135.00785952147166 64.89499255327834,135.3848488058006 64.7136378595137,135.69329458402723 64.41661599899919,136.02458819801848 63.91396361975205,136.43584923548372 63.58267000601614,136.6757515076931 63.30992397063984,136.8413983145185 63.14427716381444,136.86995810871363 63.00290618221236,136.89851790307898 62.8786710770933,136.89280594413782 62.72159220846686,136.8185504790943 62.514533699935114,136.65861563095473 62.29033931492033,136.38444160560906 62.09898869324272,136.00174036250917 61.980465546979715,135.6418869544079 61.971897608610526,135.21920199923056 61.970469618896516,134.71083766095714 61.92762992756127,134.61944631917527 61.7205714189444,134.48807126548616 61.46353327050735,134.3738320885354 61.006576561938374,134.27101682929677 60.22832216780179,134.07681022802092 59.56716293021421,133.8768916679741 59.317264730262096,133.69982094369195 59.150189933722686,133.4484947537705 59.14162199552373,133.14004897554386 59.197313594285085,132.62026071955836 59.42864792804015,132.08904854611612 59.58572679649637,131.77489080886323 59.784217366829154,131.5235646191971 60.02411963869807,131.27223842987144 60.31971350958368,131.04947203414508 60.690990835141704,130.83241759795573 60.86520558025118,130.6896186265545 61.05512821221478,130.4325804778621 61.202211152758025,130.07843902878713 61.35072208318551,129.46725943127507 61.562064560689066,128.98174292817052 61.86765435957276,128.5590579732485 62.09898869324272,128.2734600304461 62.51167772050709,128.0278457995509 63.17426494780869,127.81650332153666 63.644073563718656,127.61087280305938 63.92538753746415,127.42237816072468 64.20527352141052,127.0967965057597 64.39805213271703,126.75979093359331 64.48087553612973,126.49132886701858 64.47944754650084,126.01723628222192 64.54370708363138,125.48602410877966 64.65794626075234,124.98908368821834 64.67222615780734,124.42359976129934 65.05207142173455,123.67533315090166 65.33195740568092,123.40115912581136 65.64611514284869,123.22980036021502 66.11735174838755,123.02988180050868 66.67141175742424,122.858523034657 67.13408042493438,122.6586044746102 67.8038076006358,122.45868591490385 68.43212307480111,122.412990243715 69.04473066211229,122.40727828528453 69.88153263460848,122.53865333897365 70.30421758995605,122.56150117439783 70.89968930069908,122.48724570935433 71.09960786057566,122.42441416168245 71.2809625543403,122.28161519028124 71.43804142279652,122.09312054803165 71.47802513478885,121.83037044039808 71.4608892582207,121.43624527958609 71.3180902868195,121.21347888445555 71.08532796343553,120.8593374350401 70.77688218520893,120.47663619194022 70.50270816011862,120.17961433142571 70.19711836140515,119.80833700561234 69.93865222308385,119.54558689797878 69.76586546768839,119.4599075154785 69.42600391575351,119.44848359776641 68.72914493531562,119.44848359776641 68.182224874849,119.4599075154785 67.76239589892946,119.51131514509783 66.68569165464947,119.64269019904229 66.00739654049374,119.77406525273139 65.29625766283061,119.8940163886233 64.73077373608184,119.89972834739423 64.37663228700684,119.80833700561234 64.05247862192611,119.66553803421114 63.935383465377114,119.5398749395483 63.926815527178164,119.24856503746426 64.10817022077258,118.90584750652694 64.42803991671128,118.54599409817033 64.93354827547155,118.15186893735834 65.54472787315383,117.78059161154498 65.94884896221924,117.45500995683534 66.05594819077015,117.32363490340157 66.0973598924765,117.16941201403293 66.04738025240097,117.00376520720752 65.8717375176626,116.78671077101815 65.46618843888317,116.59250416974228 65.0349355451664,116.48397695122202 64.42946790642529,116.43828128054386 63.73260892598741,116.39829756872176 63.32705984720798,116.39258560944013 63.21139268045812,116.32975406236406 63.09429752382401,116.2098029261317 62.86153520052516,115.86708539493904 62.668756589048414,115.53007982226197 62.28034338683713,115.07312311420367 61.81481874023943,114.74182950021242 61.549212653262956,114.57047073461608 61.315022340335204,114.39340000982324 60.87377351862036,114.50192722859884 57.13815242684991,115.42726456302333 50.9506729958654,115.31873734484353 47.947610627298026,115.63860704052688 47.91191088444773,115.66716683497735 47.739124129052264,115.72999838230876 47.30073128693567,115.77569405349762 47.23504376000601,115.79282992964018 46.846630557794725,115.79282992964018 46.69954761725148,115.79282992964018 46.24116291905361,115.80425384735227 45.79848610770987,115.88422127142206 45.51003218556455,115.79282992964018 45.13304290098024,115.58719941090756 44.77604547247723,115.39299280963169 44.41048010577526,115.18165033238347 44.04491473890305,114.95317197797132 44.010642985851874,114.92461218352085 43.937815510352145,114.82750888330848 43.46086694587211,114.74182950021242 43.32092395398405,114.7361175415266 42.815415595223776,114.7361175415266 42.74544409915207,114.7361175415266 42.53838559062032,114.77610125368916 42.1913840902005,114.8903404306399 41.95433779758938,114.85035671873268 41.585916451374274,114.75325341817985 41.418841654834864,114.70755774733146 41.370290004643564,114.69042187033776 41.27604268343365,114.67328599385472 40.96331293606501,114.6675740351689 40.503500248153124,114.64472620000005 40.437812721308575,114.63901424071844 40.37355318417803,114.62759032300633 40.102235138600854,114.49621526931722 39.82663312371141,114.39911196910487 39.760945596866854,114.37626413334021 39.406804147876976,114.17634557363387 39.355396518087424,114.14207382041246 39.065514606142976,114.02783464320638 38.77134872505649,113.9250193837124 37.49472592072971,113.21102452670637 37.214839936783335,113.37095937484595 36.86212647742236,113.61657360574114 36.55225270948174,113.85076391892423 36.230955023829026,114.0792422728257 35.883953523409204,114.29629670952576 35.53552403310515,114.50763918702933 35.324181555516475,114.61616640554958 35.238502172590636,114.64472620000005 35.19423449154138,114.65043815843053 35.084279283477336,114.69613382961937 34.648742420703655,114.86178063618942 34.224629475727184,115.00457960759064 33.82479235580381,115.19878620861117 33.44923106101864,115.38156889217494 33.36212368854901,115.41584064505588 33.269304356968,115.44440043950635 33.22503667591874,115.45011239853262 33.13650131356488,115.47867219289799 33.095089611858526,115.5015200284073 33.04796595129613,115.51294394586405 32.69382450230625,115.51865590454986 32.21116397888506,115.47867219289799 31.771343147054456,115.37585693314865 31.375789996188,115.26161775594258 30.914549318647218,115.15880249670394 30.453308640936207,115.07312311420367 30.009203839878452,114.92461218352085 29.789293423920594,114.88462847161362 29.348044602290866,114.8103730065701 28.86966804818194,114.78181321211964 28.41271133961296,114.8103730065701 28.028582106543716,114.86178063618942 27.588761274713114,114.86749259513059 27.154652401653447,114.83322084173896 26.7248274976507,114.77038929440754 26.53776084511512,114.75325341817985 26.39210589428589,114.72469362372938 26.29500259373307,114.70755774733146 26.24930692288468,114.70184578804985 26.2021832624074,114.68470991190728 26.156487591559014,114.66186207614263 26.1093639309115,114.64472620000005 26.007976661386873,114.63901424071844 25.957997021226223,114.63901424071844 25.059791491197746,114.54762289893654 25.373949228195286,113.87361175409308 25.38965711504942,113.5480300991281 25.45106067275194,113.22244844441846 25.469624539034093,112.89686678996416 25.469624539034093,112.54843729931966 25.44677670369502,112.45133399910729 25.239718195163267,112.10861646740393 24.949836283133703,111.8058826481185 24.645674474049134,111.52599666434236 24.315808850112347,111.27467047442089 24.024498948538998,111.01763232606895 23.915971730188968,110.86912139589681 23.830292347518473,110.55496365898438 23.81744044000725,110.22367004499313 23.808872501638064,109.90380034930976 23.72747708802449,109.56679477688803 23.660361571380808,109.23550116289677 23.483290846928426,108.88135971407712 23.283372286881622,108.55006610008587 23.27337635888354,108.50437042974816 23.223396719063345,108.17307681575691 23.21197280118102,107.83035928464936 23.21340079089503,107.48192979443041 23.170561099474668,107.13921226306752 23.16484914061862,106.7907827729337 23.163421150989723,106.44806524123034 23.16484914061862,106.36238585873006 23.34763182409728,106.2881303933461 23.390471515432527,106.25385863995446 23.437595176165154,106.1910270928784 23.437595176165154,105.79690193155572 23.43045522750998,105.54557574223006 23.369051669722346,105.30567347002068 23.35762775201025,104.94582006217476 23.376191618377522,104.71162974924701 23.457587031991093,104.55740686013371 23.496142754354533,104.52313510665695 23.787452656012995,104.26038499961919 23.828864357719347,104.18612953449056 23.844572244488365,104.10045015147962 23.828864357719347,103.75773262028694 23.801732553068003,103.70632499015694 23.75889286181787,103.65491736053762 23.700345283373146,103.6035097309183 23.42045929942678,103.42072704735453 23.34191986524123,103.33504766485426 23.189124965756825,103.08943343395907 23.13057738748233,102.9180746681074 22.952078673230822,102.57535713691473 22.896387074384354,102.52394950704006 22.595081244727805,102.26691135843278 22.250935723650898,102.03272104550503 21.929638037998185,101.78710681460984 21.561216691868186,101.56434041913884 21.187083386797024,101.35299794197574 20.772966369648408,101.16450329938569 20.394549095435213,100.94173690391469 20.061827492155516,100.67898679653648 19.679126248715168,100.43908452466756 19.649138464720913,100.399100812505 19.63485856766591,100.3534051421673 19.63485856766591,100.30770947097845 19.640570526521955,99.97641585758299 19.664846351660163,99.90216039245436 19.68912217688348,99.8621766802918 19.72196594013553,99.82219296812923 19.756237693271817,99.79934513270504 19.869048880678772,99.69652987321106 19.91046058238512,99.6222744084229 19.951872284091472,99.58800265520149 20.267458010888138,99.3195405888821 20.375985229153056,99.20530141167602 20.580187758341896,98.86829583925429 20.678719048523615,98.7083609911147 21.049996374251865,98.46274676047486 21.80254695345111,98.05719768195078 21.893938295147883,97.99436613410867 21.92821004828417,97.96009438122773 22.19381613517553,97.6002409733818 22.48369804711998,97.32606694829148 22.803567742973566,97.06902879993955 23.10058960348808,96.78343085713713 23.194836924612876,96.67490363861687 23.243388574889284,95.52108794969512 22.68218861728254,94.8699246400205 22.66076877157236,94.79566917523233 22.6536288230023,94.41867989064804 22.662196761371487,94.2016254541182 22.680760627653644,94.15021782424354 22.716460370503945,94.11023411208097 22.767868000123265,94.07596235894468 22.830699547710026,94.04169060606374 22.907810992181563,94.01884277055443 22.993490374937174,94.00741885284233 23.42045929942678,93.99028297644442 23.456159042277083,93.96743514067977 23.480434867415287,93.93316338754347 23.490430795498487,93.88746771695044 23.493286774841394,93.84177204576159 23.457587031991093,93.63614152702897 23.170561099474668,93.3162718313456 22.886391146386266,93.00782605303388 22.690756555566615,92.79077161633383 22.43657438655758,92.57371718014444 22.418010520275423,92.53373346798188 22.326619178493537,92.29954315479878 22.302343353355333,91.96253758237705 22.299487374012422,91.58554829779276 22.306627322582482,91.26567860210939 22.419438509989437,90.94009694739975 22.633636967091245,90.62022725137594 22.8763952184733,90.3860369379375 22.929230837806628,90.35747714408284 23.373335638864383,90.19183033717232 23.796020594211953,90.07759115971089 24.20870962156144,89.95192806504807 24.61425870042598,89.7977051761901 24.999815923124125,89.60349857491424 25.36395330028232,89.38073217944324 25.730946656698304,89.17510166071061 26.163627540043958,89.02659073028313 26.346410223522618,88.95804722392543 26.54490079368518,88.82667217023632 26.576316567393445,88.78097649938795 26.59773641310363,88.74099278748072 26.6063043513877,88.68958515760605 26.60487636167369,88.63817752798673 26.59916440281764,88.29545999679407 26.49634914340877,87.9470305064049 26.283578676020973,87.61573689300944 26.050816352637007,87.33585090914819 26.035108465782873,87.2901552382998 25.997980733218558,87.10737255473603 26.00512068178862,86.96457358333483 26.02368454815589,86.91887791265667 26.050816352637007,86.87318224155294 26.08794408520132,86.82748657061943 26.360690120577623,86.54760058658795 26.446369503503462,86.39908965641581 26.444941513704336,86.34768202705185 26.427805637136192,86.24486676730251 26.359262130863613,85.87930140068565 26.35069419257954,85.54229582800858 26.33213032629738,85.35380118575898 26.220747128689556,84.9825238604563 26.193615324038213,84.89113251867441 26.117931869195573,84.7711813826974 25.802346142398907,84.485583439895 25.638127325372633,84.39990405679892 25.34253345448702,84.26852900345027 25.312545670492767,84.22283333226143 25.288269845354563,84.16571374387117 25.101203192818982,83.82299621250827 24.971256128929,83.66877332339497 24.931272416851545,83.64592548822613 24.797041383734413,83.57738198186843 24.745633754115094,83.56024610487471 24.699938083181593,83.54882218716261 24.648530453477157,83.54882218716261 24.19871369364847,83.54311022839168 23.246244554402423,83.54882218716261 23.12343743891227,83.54311022839168 23.009198261961537,83.51455043453701 22.545101604907615,83.36603950385418 22.120988659760915,83.29749599775184 21.70401566326939,83.30320795652277 21.25134292384245,83.42315909275513 21.20136328385203,83.43458301046722 21.148527664433583,83.44029496915304 21.097120034814264,83.44029496915304 20.81866204058191,83.46314280466235 20.74583456508218,83.45743084563607 20.678719048523615,83.42315909275513 20.627311418904295,83.38317538059256 20.591611676053994,83.34319166868534 20.581615748141022,83.29178403906602 20.580187758341896,83.24037640919136 20.554483943404563,83.0061860962636 20.525924149209438,82.89765887774334 20.48879641656001,82.8519632071503 20.42168090000144,82.81769145367355 20.37741321895218,82.80626753596145 20.327433578876644,82.80055557753099 19.86190893210871,82.80055557753099 19.3735364500017,82.75485990634213 19.3278407790682,82.73201207091795 19.289285056874988,82.7091642357491 19.255013303653584,82.68060444129863 18.96798737122227,82.40071845718202 18.939427577027146,82.29219123925758 18.873740050097478,81.95518566658049 18.832328348476242,81.93233783141164 18.78092071860158,81.90948999590233 18.3696596809661,81.77240298327206 18.092629676532876,81.68101164149017 17.77133199088016,81.40112565737358 17.541425646839105,81.07554400300441 17.432898428659303,80.90418523715273 17.397198685809002,80.87562544270226 17.35293100458951,80.84706564825179 17.298667395457052,80.82421781308294 16.861702543054477,80.69855471842011 16.588956507678173,80.59573945884101 16.506133104180357,80.59002749989985 16.42188171113876,80.59002749989985 16.351910215067054,80.60145141761194 16.307642534017795,80.69855471842011 16.260518873455396,80.80708193634456 16.2019712951809,81.10410379685908 16.03204051912835,81.44110936953615 15.784998298689379,81.74955514784787 15.4208609216163,81.98945741946144 15.336609528404475,82.0180172139119 15.290913857641202,82.02372917285307 15.202378495372455,82.03515309065028 14.74256580746057,82.02372917285307 14.275613170893509,81.94376174912374 13.93003966010259,81.82381061289138 13.58875011853882,81.58962029970829 13.203192895755562,81.3554299865252 13.156069235278279,81.34400606906844 13.017554232933994,81.30973431584704 12.969002582572468,81.30973431584704 12.483486079893481,81.30402235690588 12.29927540687104,81.28117452173703 11.886586379436437,81.1212396733421 11.806618955366647,81.06983204372278 11.509597094852138,80.77852214240478 11.263982864212291,80.51577203511168 11.215431213850767,80.48721224066121 11.166879563574357,80.47007636392283 10.72991471100155,80.35583718671676 10.671367132727054,80.35583718671676 10.17157073282283,80.35583718671676 9.728893921649322,80.40153285756513 9.273365202709241,80.55575574701889 8.864960144586906,80.71569059456267 8.659329625684054,80.76709822469269 8.605066016551595,80.76709822469269 8.150965287580872,80.76709822469269 7.9210589435398155,80.75567430672524 7.872507293433635,80.73853843024222 7.829667601928158,80.7214025538443 7.791111879564718,80.69284275913849 7.758268116227555,80.66428296494335 7.725424352720163,80.63001121206241 7.698292548239048,80.59002749989985 7.5355017207565576,80.26444584493487 7.43697043057484,79.93886419022523 7.418406564292683,79.58472274132046 7.401270687724538,79.3676683046204 7.381278831643255,79.32768459271318 7.327015222510796,79.24771716864339 7.291315479660494,79.2134454155071 7.251331767668156,79.17346170359987 6.890050370108218,78.92784747270468 6.475933352959605,78.72792891291323 6.338846340414446,78.65367344761437 5.991844839994629,78.37949942252405 5.667691174828775,78.09390147972164 5.324973643550995,77.84828724882645 4.962264256191929,77.62552085386613 4.626686673313979,77.36848270500352 4.32966481279947,77.0657488859734 4.121178314553708,76.73445527206727 3.9898032608645977,76.38031382290715 3.9026958883949763,76.03188433277333 3.831296402694373,75.6834548426395 3.8113045466130893,75.3064655580552 3.817016505469138,74.60960657778755 3.8127325364122164,74.47251956507215 3.779888772904824,74.40397605871446 3.757040937480631,74.3639923471477 3.7270531534863776,74.32972059367094 3.658509647298913,74.27260100536581 3.3200760850780537,74.04983460989482 2.945942780092007,73.83278017310963 2.55752957779561,73.62143769569118 2.1705443652983405,73.41009521767694 1.7721352350889739,73.19875274042873 1.4008579093607219,73.01025809817914 1.148103730065701,72.86745912677793 1.073848264851959,72.80462757944652 1.0267246042895606,72.73608407283348 0.8796416638314327,72.4105024178685 0.7396986717731354,72.09063272244049 0.6868630523546889,72.01637725705652 0.475520574766018,71.71364343785619 0.3798452639272096,71.49658900132636 0.3612813975599379,71.15958342864927 0.364137376987962,70.80544197982962 0.3484294901338293,70.68549084359726 0.3327216033648114,70.6455071314347 0.3070177884274794,70.61123537855376 0.24561423072496055,70.53126795448397 0,70.23995805265527 0,70.18283846435014 0.008567938198957577,69.79442526230909 0.03998371190722303,69.45170773060573 0.10567123883689289,69.114702158184 0.1770707245374962,68.78340854470342 0.302733819370558,68.44069101334053 0.40126510955227573,68.10368544066345 0.42982490383251704,67.74383203273241 0.4326808832605412,67.40682646005534 0.49694042039108416,67.06982088788895 0.5483480500955186,66.72139139724443 0.5583439781787178,66.3729619071106 0.5626279472356392,66.01310849952002 0.5697678958908143,65.74464643311552 0.581191813517796,65.70466272129342 0.6654432067296228,65.52759199641545 0.9153414066817344,65.23628209518257 0.951041149532036,65.16773858856953 1.0538564090260196,64.84215693360456 1.122399915128369,64.49372744372606 1.1738075448328034,64.12816207659851 1.1995113596850207,63.76259670998166 1.2195032157663044,63.38560742539736 1.2680548661278295,63.025754017551435 1.4065698682167702,62.66590060996085 1.5922085310383387,62.35745483164913 1.7935550807140401,62.04329709448136 1.9720537949655483,61.71771543977172 2.246227820055865,61.43211749696931 2.493270040665067,61.12367171840224 2.5232578246593205,61.09511192454758 2.55752957779561,61.07226408903827 2.8059997879485947,60.86092161136448 2.8759712839351863,60.82664985788774 3.160141237193817,60.695274804198625 3.2529605684343714,60.67813892780071 3.3015122187958967,60.67242696877443 3.351491858701204,60.67242696877443 3.804164598043029,60.67242696877443 3.934111662018127,60.66100305106234 4.009795116945882,60.64957913335024 4.069770684934388,60.62673129818139 4.081194602646485,60.57532366856207 4.069770684934388,60.483932326780184 4.039782900940135,60.415388820167145 4.016935065601056,60.381117067541545 3.7384770711984743,60.08980716545751 3.642801760359666,59.99841582367562 3.602818048367328,59.94129623562583 3.454307118110073,59.61000262163457 3.3886195912655177,59.24443725476237 3.272952424515655,58.91314364136691 3.1472893296825935,58.57613806894518 2.9645066462039344,58.22770857881135 2.9273789137247355,58.11346940126481 2.9259509240107233,57.765039911130984 2.9288069033536326,57.40518650328505 2.937374841637705,57.06818093086332 2.963078656575037,56.95965371234306 2.9959224199122,56.89111020624071 3.175849123962835,56.55410463356363 3.3172201055649144,56.21138710245608 3.3643437661273126,56.148555555124666 3.647085729586817,55.8858054474911 3.9369676414461514,55.61734338142706 3.9583874871563323,55.54879987506937 3.9598154768703444,55.188946467223445 3.955531507813423,55.086131207984806 3.9069798574518977,55.06899533124643 3.8584282071754874,55.02901161908386 3.5342745421798636,54.78910934738518 3.1387213913134064,54.57205491042977 2.746024219960088,54.383560268690864 2.7588761273861966,54.332152638816204 6.8557786168868144,51.05348825527427 6.5987404684497575,50.95638495506191 6.374546083264748,50.80216206594861 6.107512006744492,50.516564123146196 5.85047385822232,50.23096618034378 5.629135452635564,49.93965627825975 5.407797046963694,49.636922459229645 5.169322764723679,49.33418863977397 4.9237085338284885,49.031454820233186 4.688090231101612,48.73443295997402 4.461039866573694,48.448835017171604 4.365364555649771,48.30032408648878 3.528562583323815,47.18078015095866 2.768872055384281,45.43292074075255 2.7131804566229256,44.039202780132115 2.910243037241705,43.01676214464413 3.0330501525616285,42.377022753277416 3.3814796426954574,41.60590830737044 9.770305623270556,44.0220669037342 16.88740635782158,45.238714139732025 21.756851282602724,45.65568713622355 23.37047965952147,45.792774149109164 29.219525528114897,46.16976343343812 33.67913740488946,45.70138280707193 38.47718284405512,44.96454011464171 39.101214348993274,44.87314877285982 43.31806797447091,44.13059412165866 45.518600123763505,44.07918649229468 46.5124809647159,44.353360517385 48.54879429689711,44.93026836176076 51.493309087189985,46.466785293952626 54.889068627280906,48.8715199720936 58.3690795602432,51.681803729524695 59.12591410858448,52.56144539310078 59.43864385603824,52.92701076022833 61.36071801109848,55.166098631714135 63.69405320379419,56.89682216501164 66.71853541798663,58.341947755762085 69.86582474766922,59.421507979640324 73.0102580979238,59.969856029480496 76.5602405269578,59.809921181936716 80.31299749546662,59.21587746082258 83.9815030706785,57.62795289875605 87.03740105866432,55.800126064990835 89.94764409582092,53.29257612710053 91.98252943828811,50.83643381882955 93.07494156959245,49.688330088593624 94.6800020080569,47.92333480241516 96.17939120776957,46.34112219903445 97.83014731716752,43.942099479409066 98.97825104740345,42.20566398742574 99.85503673163663,41.26319077592243 100.81178984002472,40.18934251107047 102.15410017128117,39.26971713533182 104.35891628963068,37.91598288636326 106.69796344118245,36.02532450526663 108.70143300994138,34.52879128464153 110.67205881527802,33.31214404864371 112.50702559786865,32.61528506803559 114.87891651275757,32.358246919683644 114.95888393682736,32.35253496074248 119.24713704792049,32.26685557764642 122.33445080961457,32.3468230017162 123.76672449276867,32.38680671362343 129.09312612603367,32.581013314643954 131.03519213717522,31.724219486236716 136.1845230458176,26.263586820109918 136.68574743543584,25.93229320662935 145.51643582688646,20.083247337950812 147.6869801921848,18.198300915284655 150.06172708658687,15.622207471292002 151.20411885779652,13.028978150390746 151.95524144745198,10.321509653049443 152.72492790321937,6.9114702158184 152.7763355330089,6.682991861406239 153.68310900132147,4.775197603571234 155.01113943535267,3.3072241773966007 156.0050202763051,2.364750966489096 156.78184668081275,1.7250115742712313 157.57723695151748,1.1309678534975562 158.3497793867129,0.6054676384857716 159.1465976471316,0.23990227212425674 159.98054364011466,0.039983712162567485 160.68882653826466,0.017135876738374432 161.65985954387799,0.011423917456752069 162.622324611037,0.005711958685818625 163.6890329274891,0 164.78287304842237,0 166.11233147208247,0.19420660102052617 167.1790397884495,0.45695670865409077 168.36712723050752,0.8739297051456141 169.1282457482462,1.2280711542206064 170.24636169423252,1.8221148753347407 171.28022624717727,2.59894127967219 172.7053599816762,4.061202746565201 173.62070138835793,5.380665242567694 174.39467181335246,6.494497219411991 174.99442749332263,8.190948999488096 175.3942646131609,9.316204893959375 176.21393070908894,11.258270905526473 176.6480395821486,12.572021441992 176.78512659469376,14.137098168719454 176.97076525743023,14.605478795085642 178.63008930519737,16.873126460511227 181.1676270269117,19.10079041488074 183.7622843372716,20.317437651133904 187.8777506930544,21.59120447603267 187.9948458496885,21.64261210565199 188.51035013636172,21.785411077053194 191.12357131308892,22.5279657285097 193.01565768415492,23.05917790195196Z"/></svg>