<svg xmlns="http://www.w3.org/2000/svg" width="256" height="256"><path d="M256,155.78521091811413 255.82848635235732,155.88684863523574 246.96694789081886,160.18104218362282 247.16387096812056,160.43513647680544 247.3353846153846,160.6892307696094 247.513250620726,160.91791563275433 247.7736972708501,161.2482382145354 248.00238213399504,161.5023325062035 248.18660049627792,161.7818362290451 248.32,162.0359305210918 248.4216377171216,162.26461538537265 248.51057071998162,162.46789081961583 248.06590570757467,162.67116625310175 247.4687841191067,162.97607940484514 247.04317617866005,162.9252605459057 246.85895781637717,162.87444168734493 246.63662531055232,162.79821340026098 246.42699751898905,162.72198511166252 246.23007444168735,162.69657568276077 246.00138957854242,162.74739454170017 245.79176178697912,162.77280397022332 245.40426799007443,162.82362282878412 245.11205955334987,162.82362282878412 244.9214888337469,162.77280397022332 244.68009925596175,162.69657568276077 244.43235732009924,162.62034739454094 244.1846153846154,162.46789081961583 244.0067493796526,162.391662531396 243.88605459094936,162.16297766825105 243.07295285359803,162.11215880969027 242.367841191067,162.06133995075083 241.7643672460362,162.06133995075083 241.56744416873448,162.1375682382134 240.41131513685505,163.0777171219667 239.68079404466502,163.66213399541584 239.26153846153846,163.99245657568238 240.33508684901386,164.7293300248139 239.62362282916274,165.64406947966546 239.40764268027937,165.9235732017498 239.17895781637716,166.2284863531146 238.96297766787242,166.48258064516128 238.85498759343074,166.63503722084369 238.70888337468983,166.83831265546547 238.55642679900745,167.0161786611855 238.36585607940447,167.29568238289124 238.16258064553992,167.54977667569523 238.0545905707196,167.70223325062034 237.94024813895783,167.93091811490117 237.8830769230769,168.18501240770516 237.81955335025455,168.6169727054719 237.80049627867288,168.8202481397151 237.83225806451614,169.17598014888338 237.87037220881535,169.40466501316422 237.92119106699752,169.63334987630915 238.01647642679902,170.0653101740759 238.11176178697912,170.49727047146402 238.17528535980148,170.8021836232074 238.19434243214042,171.13250620347395 238.17528535980148,171.4120099266942 238.1308188585608,172.02183622866647 238.0927047146402,172.47920595609224 238.01012406985754,172.70789081923718 237.78143920595534,172.98739454094292 237.3748883378476,173.44476426836871 237.86401985111664,173.62263027295285 238.39761786600496,173.9529528547339 238.8994540942928,174.23245657643963 239.21071960297766,174.48655086924362 239.45846153884017,174.76605459094935 239.71255583126552,175.1471960301553 239.94759305210917,175.57915632754342 240.13181141439205,176.0365260549692 240.32873449131515,176.62094292841834 240.54471464057715,177.23076923076923 240.8432754346218,177.688138958195 241.25617866004964,178.0438709684992 241.50392059591212,178.24714640274237 241.72625310173697,178.3996029788034 242.18997518648285,178.72992555906993 242.57746898263028,179.00942928077566 242.74263027333149,179.11106699789724 242.92049627791565,179.21270471501882 243.26352357320098,179.41598014964063 243.60019851116624,179.5938461542248 243.91781637717122,179.82253101736973 244.09568238251262,179.94957816452896 244.2608436724566,180.10203474021137 244.54034739491956,180.40694789081886 244.7245657568238,180.6356327550997 244.9341935483871,180.88972704790365 245.13746898263028,181.14382133995036 245.27086848635236,181.423325062792 245.37250620347393,181.65200992593694 245.46143920595534,181.90610421911956 245.76000000037862,182.49052109256868 245.96962779194192,182.89707196143365 246.16655086848635,183.278213400261 246.35076923076923,183.6593548390883 246.47781637754986,183.88803970223324 246.5985111662531,184.14213399541586 246.6810918114144,184.34540943003765 246.75096774193548,184.52327543424317 246.85895781637717,184.85359801488835 246.96059553349875,185.18392059629076 247.11305210955976,185.48883374689825 247.30997518610423,185.69210918114143 247.4751364764268,185.8191563283007 247.640297767128,185.97161290398307 247.95156327543424,186.12406947890818 248.256476426799,186.27652605459056 248.44704714640199,186.37816377171217 248.74560794044666,186.47980148921238 249.0568734491315,186.606848635993 249.25379652643323,186.68307692345556 249.55235732085652,186.75930521091811 249.83821339988236,186.88635235807735 250.05419354876574,187.08962779232053 250.33369727047148,187.36913151402626 250.47344913189227,187.52158809008728 250.59414392059554,187.67404466576966 250.79106699789725,187.92813895895227 250.98799007444168,188.207642680658 250.8545905707196,188.3600992563404 250.7211910669975,188.48714640236375 250.51156327543424,188.76665012406949 250.42898263027294,188.99533498835032 250.40357320099255,189.1986104229721 250.47980148883374,189.52893300323865 250.53062034777318,189.75761786638358 250.60049627791562,190.08794044665012 250.6640198518739,190.41826302805254 250.79106699789725,190.7485856086977 250.9117617866005,191.07890818896425 250.9943424317618,191.38382134070764 250.9943424317618,191.6887344920724 250.89905707233893,191.91741935521733 250.74660049627792,192.0952853598015 250.58779156327543,192.2477419358625 250.2130024817682,192.42560794158254 249.74292803970224,192.62888337468982 249.26014888375332,192.83215880931164 248.85359801488835,192.98461538499402 248.6503225810238,193.03543424355482 248.4533995037221,193.1370719606764 248.06590570757467,193.31493796526055 247.68476426799006,193.51821339988234 247.2845657568238,193.6960794056024 246.88436724565756,193.87394541018654 246.655682382134,194.00099255583126 246.29359801526698,194.12803970299052 245.93786600496279,194.25508684901388 245.6202481389578,194.3821339950372 245.29627791563274,194.4837717121588 244.99136476464662,194.56000000075727 244.68009925596175,194.6362282878412 244.29260545905709,194.71245657643965 244.0512158808933,194.7378660053414 243.78441687344912,194.76327543500042 243.52397022332505,194.71245657643965 243.2444665016193,194.61081885931804 242.99037220843672,194.45836228325703 242.81885856079404,194.3313151376123 242.6155831269295,194.05181141439206 242.54570719602978,193.87394541018654 242.4377171215881,193.51821339988234 242.3360794044665,193.2387096781766 242.19632754342433,193.03543424355482 241.98669975186104,192.9337965264332 241.7389578167558,192.83215880931164 241.4848635235732,192.75593052184908 241.19265508684865,192.70511166328828 240.90044665012408,192.65429280472748 240.70987593089973,192.6034739461667 240.51295285359802,192.55265508722727 240.30332506203473,192.47642679900744 240.05558312655086,192.42560794158254 239.7379652605459,192.34937965298408 239.52833746898264,192.34937965298408 239.31870967741935,192.34937965298408 239.06461538499403,192.32397022408233 238.81687344913152,192.34937965298408 238.63265508684864,192.34937965298408 238.35950372208436,192.37478908302174 238.11176178697912,192.47642679900744 237.94024813895783,192.57806451612902 237.82590570757466,192.73052109181143 237.75602977667495,192.9337965264332 237.64803970223326,193.0862531021156 237.51464019851116,193.21330024813895 237.1271464019851,193.5436228295414 236.72694789081885,193.84853598014888 236.46650124069478,194.02640198586892 236.21240694864807,194.2296774201121 235.97736972704715,194.432952853598 235.85667493796527,194.5854094292804 235.69786600496278,194.7886848639022 235.5517617866005,195.01736972704714 235.3993052109181,195.22064516129032 235.27861042221485,195.44933002557116 235.20873449131514,195.62719603015532 235.11344913151365,195.8812903233379 235.03722084367246,196.16079404504364 234.94828784119107,196.49111662531018 234.89746898263027,196.7706203481518 234.87205955334989,197.0755334987593 234.84665012406947,197.53290322618508 234.8402977667494,198.01568238251264 234.8402977667494,198.2189578167558 234.84665012406947,198.44764267990075 234.86570719602977,198.75255583164414 234.92287841191066,199.03205955334988 234.97369727047146,199.28615384653247 235.00545905707196,199.48942928077565 235.09439205993198,199.8705707199816 235.20238213437366,200.02302729566398 235.27225806451614,200.30253101736972 235.28496277953496,200.50580645199153 235.29766749379652,200.78531017369727 235.29766749379652,201.03940446650125 235.25955335063318,201.34431761824465 235.15156327581286,201.64923076998804 235.02451612903226,201.92873449169377 234.7323076923077,202.5131513651429 234.44009925558314,203.09756823859203 234.3066997526183,203.351662531396 234.1733002485176,203.63116625348036 234.0653101740759,203.8090322592004 233.95096774193547,203.9614888337469 233.8366253101737,204.13935483946693 233.7095781637717,204.3426302737101 233.43007444206597,204.6983622828784 233.15057071960297,205.0540942931826 232.9663523573201,205.3081885863652 232.79483871005604,205.43523573200991 232.56615384615384,205.48605459057072 232.3692307696094,205.58769230807093 232.2104218366069,205.7147394552302 232.05161290360445,205.91801488833747 231.85468982630272,206.04506203549673 231.58153846153846,206.0958808940575 231.3846153846154,206.0958808940575 231.10511166253102,206.12129032258065 230.92724565756825,206.17210918152006 230.60962779156327,206.37538461576324 230.4190570719603,206.47702233288484 230.07602977667494,206.5532506203474 229.81558312655088,206.62947890894586 229.504317617866,206.70570719602978 229.19305210955977,206.75652605459058 229.02789081885857,206.8581637720908 228.83732009925558,206.98521091925002 228.64674937965262,207.11225806489475 228.39265508684863,207.2901240694789 228.15126550868487,207.49339950410072 227.89717121625952,207.82372208436723 227.84000000037864,208.0015880900873 227.66848635235732,208.25568238326989 227.55414392097416,208.4335483874754 227.41439205955334,208.6368238220972 227.3127543428104,208.84009925634038 227.2619354842496,209.06878411948534 227.21111662568882,209.27205955410713 227.16029776750665,209.4499255586913 227.29369727047145,209.60238213437367 227.46521091811414,209.67861042183623 227.71295285397665,209.75483871043468 227.84000000037864,209.9327047146402 227.96069478908188,210.16138957929965 228.1322084371032,210.33925558350518 228.37995037220844,210.542531018127 228.5705210918114,210.69498759380937 228.7229776674938,210.79662531130958 228.78650124069478,210.9744913155151 228.8500248142744,211.25399503759948 228.96436724565757,211.43186104331951 229.01518610421837,211.60972704752504 229.04694789081887,211.8892307696094 229.0088337472769,212.14332506241337 229.0088337472769,212.3720099255583 229.09776674937964,212.60069478983914 229.19940446650125,212.75315136590015 229.25657568238213,212.9310173704843 229.2248138965389,213.1342928047275 229.11047146439847,213.36297766787243 228.99612903225807,213.5154342435548 228.79285359839352,213.66789081961582 228.55146401985112,213.8203473952982 228.37995037220844,213.89657568276075 228.21478908226447,214.02362282992001 228.20843672456576,214.2777171215881 228.20843672456576,214.48099255620988 228.12585607940446,214.68426799045307 227.87811414392058,215.04000000075726 227.70660049665653,215.24327543537908 227.57320099255583,215.39573200992555 227.44615384653247,215.59900744416873 227.42074441725208,215.82769230844957 227.33181141439206,216.0055583130337 227.3445161294109,216.20883374765552 227.38898263065158,216.38669975223968 227.24287841191068,216.58997518648286 227.0777171219667,216.74243176254387 227.12218362282877,216.94570719678703 227.2619354842496,217.07275434281038 227.40168734491314,217.19980148996964 227.35722084367245,217.40307692307692 227.1666501240695,217.60635235769874 227.0777171219667,217.78421836341877 227.1158312655087,218.03831265508686 227.17935483908832,218.2161786608069 227.21746898263027,218.44486352395182 227.14124069478908,218.80059553425602 227.1857071964084,219.0546898274386 227.24287841191068,219.23255583164413 227.26828784119107,219.46124069478907 227.2619354842496,219.74074441800934 227.19841191067,219.99483870967742 227.1666501240695,220.29975186142082 227.0777171219667,220.68089330024813 227.00148883450416,220.88416873486995 226.9379652605459,221.0620347394541 226.88714640236375,221.23990074517414 226.78550868524215,221.39235732085652 226.65210918152007,221.51940446687988 226.4361290326367,221.67186104256226 226.2709677419355,221.7989081885856 225.9533498759305,222.0021836228288 225.75007444206597,222.1546401988898 225.5404466505027,222.3070967745722 225.3117617866005,222.40873449169376 224.92426799007444,222.53578163771712 224.70193548387095,222.61200992631558 224.26997518648284,222.76446650199796 223.83166253101737,222.89151364802132 223.5458064516129,222.9931513651429 223.25359801488833,223.06937965260545 222.93598014888337,223.17101736972705 222.62471464057714,223.27265508684863 222.41508684901387,223.3488833754471 222.22451612903225,223.42511166290964 222.0339454094293,223.5013399515081 221.52575682382135,223.75543424317618 221.01756823859202,223.98411910745702 220.71265508684863,224.1873945420788 220.2298759305211,224.56853598090615 219.7661538465325,224.94967741973346 219.46124069478907,225.22918114181783 219.200794044665,225.45786600609867 218.94034739454094,225.6865508692436 218.27970223325062,226.29637717121588 217.6190570719603,226.9316129032258 217.4284863523573,227.10947890894585 217.22521091849276,227.26193548462822 216.62173697308336,227.61766749379652 216.16436724565756,227.87176178697914 215.2369230769231,228.3799503729657 214.51910669975186,228.76109181179302 213.81399503759948,229.167642680658 213.34392059629076,229.44714640274236 213.19781637717122,229.5741935483871 213.07712158846795,229.7266501244481 212.85478908188585,230.1332009933131 212.7785607944233,230.33647642755628 212.7340942931826,230.53975186217806 212.68962779156328,231.02253101812698 212.6769230773017,231.37826302729528 212.63880893300248,231.9626799007444 212.59434243214042,232.57250620385258 212.5371712158809,233.1569230773017 212.46729528573843,233.74133995075084 212.30213399541586,234.9101736976491 212.20049627829425,235.5708188596967 212.14967741973348,235.79950372284162 212.0734491322709,236.07900744454736 211.97816377171216,236.3585111662531 211.89558312655086,236.63801488909473 211.53985111700393,237.65439205993198 211.18411910669974,238.67076923114786 210.87920595571362,239.53468982630272 210.54888337468984,240.4240198511166 210.35831265508685,240.88138957892104 210.1613895785424,241.33875930634682 209.74213399541586,242.25349876006248 209.59602977667492,242.53300248176822 209.44357320137118,242.81250620347396 209.31017369727047,243.01578163809575 209.16406947890817,243.21905707233893 208.9544416873449,243.44774193548386 208.7384615392188,243.6764267997647 208.4462531021156,243.8797022343865 208.20486352395184,243.98133995037222 207.96982630310816,244.00674938003124 207.70937965260546,243.98133995037222 207.41081885893942,243.8797022343865 207.16942928077566,243.75265508722725 206.92168734491315,243.60019851116624 206.69300248176822,243.3969230769231 206.4516129032258,243.21905707233893 206.21657568276078,243.01578163809575 206.04506203473946,242.8379156335116 205.8989578167558,242.6346401988898 205.6829776674938,242.3297270471464 205.48605459057072,242.02481389578165 205.25101736972704,241.64367245657567 205.03503722084366,241.26253101774836 204.86987593089972,240.98302729604262 204.7301240694789,240.70352357433688 204.6475434243176,240.50024813971507 204.53320099255583,240.22074441687346 204.42521091811415,239.94124069516772 204.2346401988898,239.3568238217186 204.1202977667494,239.02650124145205 204.0123076923077,238.69617866080688 203.96784119144561,238.46749379652604 203.8471464019851,237.83225806451614 203.7391563275434,237.17161290398306 203.61846153846153,236.53637717197313 203.50411910669976,235.90114143996323 203.45965260545907,235.6724565756824 203.3580148887161,235.2659057079533 203.29449131513647,235.08803970223326 203.18650124069478,234.93558312768675 203.05945409429282,234.78312655162574 202.92605459057071,234.6560794044665 202.6719602981454,234.45280397022333 202.34163771712159,234.27493796563917 201.99225806451614,234.09707196105504 201.8207444172521,233.99543424393343 201.5285359801489,233.8683870967742 201.24903225806452,233.79215880931164 200.96317617866006,233.74133995075084 200.75354838709677,233.7159305222277 200.4105210918114,233.66511166366692 200.03573200992557,233.66511166366692 199.65459057109823,233.66511166366692 199.1209925562099,233.66511166366692 198.59374689864165,233.66511166366692 198.09191067035383,233.69052109219004 197.59007444206597,233.7159305222277 197.39315136476426,233.7159305222277 197.18987593089972,233.74133995075084 196.80238213399502,233.79215880931164 196.56734491315137,233.84297766787242 196.3386600496278,233.8683870967742 196.04009925558313,233.97002481389578 195.62084367245657,234.1987096781766 195.3476923076923,234.37657568276077 195.0808933010054,234.5544416873449 194.84585607940446,234.73230769306494 194.62987593089971,234.93558312768675 194.49012406985753,235.06263027333148 194.1470967745722,235.41836228363567 193.8231265508685,235.77409429280397 193.59444168772353,236.0535980156456 193.37846153884016,236.33310173735134 193.24506203511808,236.53637717197313 192.9909677419355,236.91751861080047 192.76228287841192,237.32406947966544 192.38114143996322,238.01012407023617 192.00635235769872,238.72158808970866 191.68238213399505,239.3060049631578 191.35841191067,239.89042183660692 191.13607940484513,240.2461538469111 190.913746898263,240.60188585683667 190.43732009925557,241.287940447786 189.79573200992556,242.25349876006248 189.14779156365407,243.19364764381578 188.79841191104862,243.6764267997647 188.45538461576325,244.1337965260546 188.35374689864165,244.33707196067638 188.20764267990074,244.56575682382135 187.8773200996342,244.92148883412554 187.7375682382134,245.09935483984557 187.32466501278557,245.63295285435527 186.9308188585608,246.16655086924362 186.73389578201633,246.44605459094936 186.54967741973346,246.70014888413195 186.41627791601138,246.8780148887161 186.27017369727048,247.05588089443614 186.1177171215881,247.20833746898262 185.9271464019851,247.4116129032258 185.58411910669975,247.76734491353 185.42531017369728,247.94521091811416 185.25379652643323,248.09766749417517 184.94253101774837,248.3771712158809 184.74560794044666,248.55503722160094 184.14848635273594,249.0124069478908 183.551364764268,249.4697766753166 183.13846153884018,249.80009925558312 182.71920595571362,250.1050124073265 182.36982630310817,250.3591067001305 182.02044665012406,250.6132009933131 181.48049627791562,251.01975186104218 180.94689826378456,251.4008933010054 180.70550868524217,251.6041687344913 180.2290818862347,251.07057071960298 179.73995037220843,250.6132009933131 178.78709677419354,249.77468982706 158.38332506203474,244.38789081923719 156.67454094330668,243.8797022343865 156.4585607944233,243.8288833758257 156.2552853598015,243.7780645168863 156.04565756823823,243.7272456583255 155.13727047184264,243.44774193548386 154.52109181141438,243.26987593089973 153.90491315136475,243.11741935521735 152.7741935483871,242.7870967749508 151.98650124107343,242.60923077036665 151.7006451612903,242.53300248176822 151.23057071960298,242.40595533574486 151.02094292803972,242.3297270471464 150.53816377171216,242.12645161290322 149.4328535980149,241.69449131513647 148.98183622828785,241.56744416949175 147.79394540942928,241.31334987630916 147.4953846153846,241.26253101774836 146.96813895781636,241.16089330062678 146.7585111662531,241.11007444206598 146.36466501240696,241.03384615460342 145.86918114181785,240.95761786600497 145.67225806451614,240.90679900744416 145.15136476426798,240.8305707199816 144.97349875968385,240.7797518614208 144.67493796526054,240.72893300286003 144.43354838709678,240.67811414429923 144.03334987593053,240.60188585683667 142.11493796563917,240.2461538469111 141.89260545905708,240.19533498797168 141.6829776674938,240.16992555831266 141.4987593052109,240.11910669975185 141.31454094330667,240.0936972708501 140.52684863561436,239.86501240770514 136.5883870967742,239.0519106699752 132.1290322580645,238.2388089333811 128.64158808970865,237.57816377171216 125.54163771750022,236.99374689826303 123.41995037220843,236.61260545905708 122.0033746898263,236.3585111662531 121.45707196029777,236.51096774193547 109.2287841191067,240.52565756861685 109.00645161366049,240.4494292811543 108.80317617866005,240.4240198511166 108.58719602977668,240.32238213399503 108.3458064516129,240.2969727054719 108.11076923076924,240.27156327543423 107.81856079404467,240.32238213399503 107.5644665012407,240.4240198511166 107.29131513647643,240.47483871005605 107.04992555831265,240.52565756861685 106.80853598052751,240.55106699827587 106.5862034739454,240.55106699827587 106.21776674975828,240.52565756861685 106.0399007447955,240.60188585683667 105.77310173735134,240.70352357433688 105.51900744416874,240.75434243176178 105.13786600534141,240.8305707199816 104.9155334987593,240.88138957892104 104.65508684863524,240.93220843748182 104.42640198549029,240.93220843748182 104.22947890818858,240.88138957892104 104.0452605459057,240.8051612903226 103.81657568276077,240.75434243176178 103.63235732047788,240.70352357433688 103.4417866008749,240.65270471577608 103.2131017369727,240.60188585683667 103.02888337468983,240.55106699827587 102.78749379652605,240.50024813971507 102.63503722084367,240.3986104225935 102.52069478946052,240.22074441687346 102.3936476426799,240.06828784232695 102.25389578201634,239.94124069516772 102.06332506241337,239.81419354914436 101.86004962854882,239.7379652605459 101.67583126550869,239.6871464019851 101.4789081885856,239.63632754342433 101.12317617866005,239.58550868486353 100.86908188585608,239.58550868486353 100.66580645199153,239.66173697346198 100.50064516166896,239.76337469058356 100.31007444168735,239.83960297804612 100.11315136552153,239.89042183660692 99.903523573201,239.94124069516772 99.71930521091811,239.96665012482674 99.52238213437367,240.0428784122893 99.11583126550869,240.2461538469111 98.81091811452255,240.27156327543423 98.58223325062035,240.27156327543423 98.37260545905707,240.2461538469111 98.16297766749379,240.22074441687346 97.92158808933003,240.14451612941087 97.68655086848635,240.06828784232695 97.5150372212223,239.9920595537285 97.343523573201,239.91583126626594 96.99414392059553,239.7887841191067 96.6447642683687,239.66173697346198 96.46054590646446,239.61091811490118 96.26362282878412,239.50928039740097 96.05399503759948,239.40764268027937 95.76813895819501,239.280595534256 95.44416873449131,239.20436724603618 94.98044665012407,239.02650124145205 94.77081885856079,239.07732010001286 94.35156327543424,239.0519106699752 94.16099255583127,239.0519106699752 93.88784119144563,239.02650124145205 93.65280397060195,239.02650124145205 93.43682382171858,239.0010918114144 93.18272952853599,238.97568238289125 92.88416873486995,238.9502729528536 92.45220843672456,238.92486352395184 92.26163771712159,238.8994540942928 92.08377171253744,238.84863523573202 91.90590570757466,238.79781637830712 91.70263027295286,238.72158808970866 91.51205955334987,238.67076923114786 91.16267990112304,238.51831265508685 90.78789081923719,238.36585607940447 90.4893300248139,238.2388089333811 90.17806451650766,238.11176178773638 89.98749379652605,238.06094292879698 89.68258064553991,238.03553349913793 89.49200992593694,238.03553349913793 89.04734491353,238.03553349913793 88.93300248138958,238.2133995037221 88.83771712234535,238.39126550944212 88.45657568238214,238.46749379652604 88.18977667493796,238.39126550944212 87.9483870967742,238.2133995037221 87.78957816377171,238.11176178773638 87.40208436762428,237.95930521167537 87.23057071960298,237.8576674945538 87.04,237.67980148883376 86.70332506203474,237.37488833822624 86.37935483870967,237.27325062110467 86.14431761786601,237.247841191067 85.90292803970223,237.0953846153846 85.6043672460362,237.06997518686148 85.42650124069479,237.1207940454223 85.22957816415034,237.17161290398306 84.91831265546548,237.1462034739454 84.70868486428083,237.1462034739454 84.4482382133995,237.1207940454223 84.15602977667494,237.1207940454223 83.94004962817019,237.01915632792205 83.6351364764268,236.7650620351181 83.50808933040345,236.61260545905708 83.33657568238213,236.4601488833747 83.17141439243818,236.28228287879054 82.82838709715283,235.92655086848634 82.50441687382776,235.54540942965903 82.37101737010568,235.34213399503722 82.30749379652606,235.1642679908317 82.25667493796526,234.88476426874735 82.2122084371032,234.63066997594336 82.16774193624113,234.35116625423763 82.07880893338111,233.8175682382134 81.9898759305211,233.30937965336273 81.95176178697912,233.1061042187409 81.90094292841833,232.92823821415675 81.77389578163772,232.54709677419356 81.65955335025455,232.2675930524878 81.50709677419354,231.98808933078206 81.39910670013049,231.81022332619793 81.24029776712801,231.5815384619171 81.08148883412552,231.35285359877216 80.89091811452255,231.14957816415034 80.75751861080046,231.02253101812698 80.42084367321384,230.79384615384615 80.2239205955335,230.69220843672457 79.89359801488834,230.53975186217806 79.70302729566399,230.4889330036173 79.44258064516129,230.43811414467785 79.21389578163772,230.38729528611705 78.98521091849277,230.36188585645803 78.527841191067,230.33647642755628 78.21657568276076,230.33647642755628 77.8989578167558,230.33647642755628 77.70203473945409,230.31106699789723 77.47334987630916,230.28565756899548 77.09220843672456,230.1840198518739 76.8254094292804,230.1332009933131 76.62848635273595,230.03156327581289 76.27910669975186,229.87910670013048 76.10759305210918,229.7774689830089 75.9360794044665,229.59960297842474 75.77091811414392,229.4217369727047 75.61846153846155,229.26928039815823 75.47235732009925,229.11682382209722 75.25002481427441,228.83732009925558 75.04039702271113,228.55781637754984 74.83712158808933,228.30372208436725 74.64019851116625,228.04962779156327 74.40516129070122,227.71930521091812 74.17647642679901,227.38898263065158 74.05578163771712,227.21111662606742 73.94779156327543,227.05866005038504 73.81439205955336,226.85538461576326 73.6174689830089,226.67751861155773 73.34431761824463,226.37260545981434 73.06481389578164,226.06769230807095 72.89965260583769,225.88982630348679 72.69002481427441,225.7373697278044 72.27712158808933,225.3816377175002 71.8642183626615,225.02590570719602 71.50848635235732,224.72099255658853 71.1527543428104,224.4414888337469 70.8160794044665,224.16198511204115 70.47940446650124,223.8824813903354 70.21260545905707,223.67920595571363 69.93945409505007,223.45052109256866 69.74888337506846,223.29806451688628 69.57101736972704,223.1456079412039 69.42491315136476,222.9931513651429 69.28516129032258,222.81528536055876 69.11364764305853,222.6374193548387 68.94848635235732,222.48496277915632 68.78332506203473,222.3070967745722 68.62451612903226,222.12923076998803 68.503821340329,221.951364764268 68.30689826302729,221.67186104256226 68.15444168734491,221.41776674975827 68.02739454132156,221.13826302767393 67.93846153846154,220.90957816452897 67.88129032258064,220.70630273028578 67.86858560831908,220.4013895785424 67.85588089330025,220.096476426799 67.83682382133995,219.7661538465325 67.80506203473945,219.3596029776675 67.74153846191709,218.74977667569522 67.71612903301532,218.54650124107343 67.67166253101738,218.34322580683025 67.53191066997519,218.0637220851245 67.36674938003124,217.78421836341877 67.25240694789082,217.58094292879696 67.04913151402627,217.35225806451612 66.82044665012407,217.19980148996964 66.5663523573201,217.07275434281038 66.33766749417515,217.0219354842496 66.05181141439206,216.9711166256888 65.72784119144563,216.92029776674937 65.44198511166253,216.89488833822625 65.23235732009925,216.8186600496278 64.99096774193548,216.7170223325062 64.76863523611064,216.58997518648286 64.59712158808934,216.5137468993989 64.33032258064516,216.43751861080045 64.12069478908188,216.43751861080045 63.86660049627792,216.4121091818987 63.59980148883375,216.38669975223968 63.39017369727047,216.43751861080045 63.097965260545905,216.48833746936126 62.837518610800466,216.53915632792206 62.57071960297767,216.58997518648286 62.33568238251262,216.6153846153846 62.018064516507664,216.6153846153846 61.76397022332506,216.6153846153846 61.541637717500215,216.6153846153846 61.332009925936944,216.58997518648286 60.96992555831265,216.48833746936126 60.709478908188586,216.4121091818987 60.45538461576324,216.33588089367888 60.14411910707838,216.31047146477712 59.85826302729529,216.31047146477712 59.66769230807094,216.25965260621632 59.46441687344913,216.18342431761786 59.30560794044665,216.0055583130337 59.19761786600496,215.75146402022975 59.083275434621804,215.44655086848636 59.01975186104218,215.21786600534142 58.937171215880895,215.04000000075726 58.89905707233893,214.81131513647642 58.765657568616845,214.68426799045307 58.62590570719603,214.5572208444297 58.40992555831266,214.45558312730813 58.19394540942928,214.40476426874733 58.0160794044665,214.2777171215881 57.86362282916275,214.1760794044665 57.69210918114144,214.04903225844313 57.469776675316595,213.9728039713592 57.1648635235732,213.84575682419998 56.98699751898905,213.7695285367374 56.72655086886498,213.69330024813897 56.535980148883375,213.61707196105502 56.345409429280394,213.5154342435548 56.16119106699752,213.38838709791008 55.951563275434246,213.23593052184907 55.73558312655087,213.05806451612904 55.532307692686324,212.88019851154488 55.38620347394541,212.75315136590015 55.19563275472106,212.57528536018012 55.00506203511809,212.44823821415676 54.846253102115604,212.32119106699753 54.636625310552326,212.19414392097417 54.40794044665012,212.0416873452918 54.255483870967744,211.91464019926843 54.13478908226448,211.7367741935484 53.93786600496278,211.584317617866 53.74094292879696,211.50808933040344 53.54401985111662,211.45727047184266 53.347096774193545,211.35563275472106 53.232754342810395,211.17776675013693 53.01677419392702,211.12694789157612 52.616575682382134,211.3302233258193 52.41330024851759,211.2794044672585 52.273548387096774,211.12694789157612 52.14014888337469,210.99990074441686 51.98769230807094,210.8982630272953 51.84794044665012,210.72039702271113 51.64466501278558,210.66957816415035 51.44138957816377,210.5679404466501 51.250818858939425,210.4917121595662 51.117419355217336,210.36466501240696 50.95861042221486,210.2376178663836 50.82521091849277,210.05975186179944 50.69816377171216,209.90729528611706 50.6092307696094,209.67861042183623 50.50124069478908,209.4753349883503 50.367841191067,209.29746898263028 50.24714640274237,209.0941935483871 50.14550868486352,208.91632754380294 50.050223325062035,208.7384615392188 49.94858560831908,208.53518610497562 49.719900744416876,208.25568238326989 49.56109181141439,208.10322580720887 49.370521092190046,207.92535980148884 49.21171215918756,207.77290322580646 49.033846153846156,207.6966749383439 48.779751861042186,207.5950372212223 48.627295285738434,207.44258064553992 48.379553349875934,207.16307692345555 48.20803970261188,207.03602977781082 48.0682878415697,206.832754343189 47.93488833784761,206.6040694789082 47.61727047184265,206.4516129032258 47.426699751861044,206.47702233288484 47.17895781637717,206.5532506203474 46.83593052109181,206.52784119144562 46.56277915670617,206.4007940458009 46.365856079404466,206.32456575720246 46.0418858560794,206.12129032258065 45.794143920974165,205.96883374689827 45.57181141439206,205.86719602977666 45.279602977667494,205.7401488837533 44.94928039740096,205.63851116663173 44.765062035118085,205.58769230807093 44.46014888337469,205.46064516204757 44.22511166253102,205.33359801488834 43.96466501278558,205.18114143920596 43.812208437103195,205.07950372322026 43.570818858939425,204.92704714715924 43.39295285359802,204.8 43.19602977667494,204.6729528543553 43.00545905707196,204.57131513685505 42.6560794044665,204.36803970261187 42.31940446650124,204.13935483946693 42.09707196029777,203.98689826340592 41.87473945447292,203.8598511177612 41.595235732009925,203.68198511204116 41.44913151364764,202.94511166253102 41.48724565756824,202.58937965374136 41.379255583505184,202.33528536055874 41.239503722463,202.05578163771713 41.08704714678061,201.82709677457217 40.9155334987593,201.57300248138958 40.807543424317615,201.4205459057072 40.59156327543424,201.16645161366048 40.489925558312656,201.0139950379781 40.254888337468984,200.73449131513647 40.02620347432404,200.42957816452898 39.89280397060195,200.25171215880894 39.68317617903868,199.9722084371032 39.473548387475404,199.6672952853598 39.2639205955335,199.36238213513093 38.95900744416873,199.00665012482673 38.81925558312655,198.8287841191067 38.73667493796526,198.60009925596177 38.66044665012407,198.39682382133995 38.59057071960298,198.2189578167558 38.53975186142081,198.04109181217166 38.48893300286002,197.81240694789082 38.4254094292804,197.60913151364764 38.38729528573843,197.35503722160092 38.45717121588089,197.1771712158809 38.628684863523574,197.05012407023617 38.74937965260546,196.84684863561435 38.80655086886498,196.61816377246942 38.74302729528536,196.38947890818858 38.546104218740915,196.31325062072602 38.32377171215881,196.26243176216522 38.152258064516126,196.13538461614186 37.898163771712156,195.98292804045948 37.61230769268632,195.77965260621633 37.37091811414392,195.55096774307137 37.20575682382134,195.37310173735133 36.97071960297767,195.09359801526696 36.78650124069479,194.839503722463 36.56416873449132,194.61081885931804 36.35454094292804,194.35672456613545 36.18302729566399,194.1788585615513 36.075037220843676,193.95017369727046 35.97339950410071,193.72148883412552 35.84635235769873,193.4419851124198 35.70660049665655,193.1878908192372 35.52873449169377,192.85756823897066 35.16665012406948,192.29856079442328 34.957022332506206,192.0952853598015 34.766451612903225,191.8920099255583 34.518709677797986,191.56168734529177 34.270967741935486,191.2059553349876 34.09945409467144,190.9518610429409 33.91523573238855,190.72317617866005 33.74372208436725,190.51990074555277 33.55315136476427,190.31662531093096 33.495980148883376,190.11334987668778 33.47692307692308,189.91007444206596 33.40704714678061,189.73220843748183 33.25459057147686,189.5543424317618 33.11483871005605,189.40188585607942 32.96873449131514,189.2494292815329 32.822630273331484,189.07156327581288 32.327146402363745,188.43632754380295 31.622034739454094,187.90272952891462 31.48228287841191,187.6994540942928 31.463225806451614,187.49617866004962 31.539454094292804,187.06421836228287 31.57756823859203,186.78471464057714 31.63473945447292,186.58143920633395 31.609330025192527,186.1494789085672 31.571215880893302,185.94620347432405 31.526749380031234,185.7175186111791 31.475930521470442,185.48883374689825 31.38064516129032,185.26014888375332 31.202779156327544,184.92982630310817 30.9740942931826,184.77736972742576 30.82163771712159,184.6757320103042 30.64377171215881,184.62491315174339 30.35791563275434,184.49786600572003 30.04665012444811,184.4216377171216 29.830669975564735,184.3708188585608 29.595632754721063,184.29459057109824 29.220843672456574,184.26918114143922 29.049330024813894,184.1167245668927 28.744416873449133,183.83722084367247 28.560198511544883,183.73558312655086 28.363275434243175,183.68476426799006 28.096476426799008,183.6085359805275 27.93131513685506,183.50689826340593 27.753449131513648,183.37985111738257 27.594640198511165,183.2273945417002 27.257965260545905,182.9224813899568 26.724367245657568,182.41429280397023 26.17806451650766,181.90610421911956 25.371315136476426,181.24545905707197 24.710669975186104,180.66104218362284 22.506401985490292,178.65369727047147 22.303126550868487,177.61191067073244 16.82739454094293,172.73330024927486 16.54153846153846,173.317717122724 14.889925558312655,172.58084367321385 14.610421836228287,172.53002481465305 13.829081885856079,172.4029776674938 12.984218362282878,172.27593052184906 13.47970223362925,171.66610421836228 7.826104218362283,166.15225806489477 7.222630272952854,165.56784119144564 6.612803970223325,165.00883374765553 6.453995037220844,164.85637717197315 6.301538461917091,164.70392059629077 5.698064516507662,164.14491315136476 5.386799007444169,163.84000000113588 5.005657568616844,163.4842679908317 5.774292804348853,163.0268982634059 5.227990074441688,162.51870967855524 3.900347394919573,161.22282878449775 2.185210918114144,159.5458064516129 0,157.91960297842476 0.14610421836228288,157.51305210955977 0.9210918114143921,157.2589578167558 1.7723076923076924,156.92863523611064 2.712456575682382,156.54749379728332 3.652605459057072,156.21717121701678 4.815086848635236,155.70898263065158 5.755235732009925,155.2516129032258 6.797022332506203,154.74342431837513 8.086550868486352,154.1081885863652 9.534888337847613,153.3204962786729 11.116625310173697,154.43851116663174 11.377071960297767,154.28605459094936 12.46332506203474,153.752456576061 12.571315136476427,153.29508684863524 12.62213399503722,153.11722084405108 12.749181141439205,152.81230769268632 13.022332506203474,152.10084367321383 13.365359801488834,151.44019851116624 14.743821340329003,151.00823821377813 15.02332506203474,150.88119106775477 15.27741935521734,150.6779156335116 15.798312655086848,150.19513647718406 16.12228287879054,149.78858560831907 16.611414392059555,149.12794044740738 16.71305210918114,148.975483871725 16.97985111662531,148.56893300286 17.58967741935484,147.8320595537285 17.92000000037863,147.9336972708501 19.39374689826303,148.44188585683668 19.97181141439206,148.6197518614208 20.365657568238213,148.74679900744417 20.880198511166252,148.79761786600497 21.16605459057072,148.28942928115427 21.229578164150343,148.08615384653248 21.312158809311633,147.8828784122893 21.375682382133995,147.67960297766749 21.483672456575682,147.40009925596175 21.59801488833747,147.06977667569524 21.655186104596993,146.89191066997518 21.833052109181143,146.1804466505027 21.782233250620347,145.92635235769873 21.572605459435703,145.3927543428104 21.515434243176177,145.21488833822625 21.33756823859203,144.50342431761786 21.655186104596993,144.45260545905708 21.972803970601955,144.37637717197313 22.303126550868487,144.32555831341236 22.62709677419355,144.22392059591212 22.938362282878412,144.1476923088282 22.893895781637717,143.86818858560795 22.77320099331309,142.97885856079404 24.888535980527514,142.7501736976491 25.707990074820316,142.64853598052753 27.524764267990076,142.47066997594337 28.16,142.41985111738256 28.471265508684862,142.41985111738256 28.661836228287843,142.41985111738256 28.896873449131515,142.4452605459057 29.570223325440665,142.3944416873449 30.38332506203474,141.9878908196158 30.55483871043468,141.86084367245658 31.32347394540943,141.40347394616668 32.04129032258064,140.92069479021777 32.24456575720245,140.74282878449773 32.51771712158809,140.48873449131514 32.84803970261188,140.1075930524878 33.28000000037863,139.54858560869772 33.65478908188586,139.014987594188 34.1439205955335,138.3035235735796 34.65210918152007,137.5666501244481 35.2111166256888,136.77895781637716 35.35722084367246,136.575682382134 35.693895781637714,136.1691315144049 35.97339950410071,135.78799007519893 36.16397022370369,135.58471464095578 36.42441687382776,135.30521091811414 36.78014888337469,134.974888337469 37.89181141439206,134.16178660125354 38.793846153846154,133.4757320103042 39.38461538461539,132.91672456575682 40.045260545905705,132.17985111662531 40.52803970261188,131.69707196029776 41.15692307692308,130.9856079412039 42.78312655162575,129.23235732085652 43.666104218362285,128.2922084371032 44.22511166253102,127.68238213399503 44.428387096774195,127.4536972708501 44.784119106699755,127.0979652605459 45.336774193548386,126.46272952853597 45.46382133995037,126.31027295398948 46.365856079404466,125.37012407023617 47.36952853598015,124.27751861080047 48.19533498759305,123.33736972704715 49.122779156327546,122.37181141477069 49.66908188585608,121.78739454132156 50.41866004962779,120.97429280472748 50.5901736976491,120.77101737010568 50.780744416873446,120.51692307730171 51.41598014888338,119.72923076923077 51.676426799764705,119.39890818896424 52.41330024851759,118.38253101812698 52.762679900744416,117.87434243214042 53.03583126550868,117.49320099293446 53.48684863523573,116.85796526092453 53.683771712537435,116.5784615392188 53.893399504100714,116.29895781637717 54.21101737010568,115.91781637717122 54.36347394540943,115.76535980148883 55.04317617866005,115.05389578201634 55.4433746898263,114.6981637720908 55.583126550868485,114.57111662606744 55.90709677457218,114.31702233288483 56.16119106699752,114.13915632830069 57.10769230769231,113.32605459057072 57.67940446687987,112.79245657606101 58.09230769230769,112.43672456575682 58.24476426799007,112.30967741973348 60.52526054590571,110.32774193624113 61.28119106737615,109.66709677457217 62.45002481389578,108.62531017369727 63.23136476426799,107.91384615422479 63.65697270509327,107.48188585683667 64.2477419358625,106.7704218362283 64.40655086886498,106.51632754418158 65.58808933002481,103.7721091818987 65.84853598014888,103.2131017369727 66.79503722084367,101.02789081923719 67.14441687344913,100.26560794158254 67.25875930558955,99.98610421836229 67.4048635235732,99.65578163809575 67.58908188585607,99.32545905782922 67.77330024813895,99.02054590608583 67.88129032258064,98.84267990150168 68.00198511204115,98.6394044672585 68.35136476502525,98.15662531093096 68.23702233288483,96.78451612978952 67.98292803970223,95.53945409429281 67.89399503759947,94.92962779232053 67.89399503759947,94.72635235769873 67.91305210918114,94.42143920633397 67.98928039702233,93.83702233288483 68.05915632792205,93.3034243179965 68.21796526092453,92.69359801602423 68.3577171215881,92.46491315174339 68.85320099293446,91.85508684939249 69.62818858560794,90.94034739454094 69.76158808933002,90.78789081999444 70.16178660049628,90.33052109256867 70.35235732009926,90.12724565794687 70.9240694789082,89.59364764305853 71.20357320137119,89.33955335025456 71.40049627791564,89.16168734567042 71.7181141439206,88.85677419392702 71.98491315136476,88.60267990074442 72.18183622866647,88.39940446650124 72.39781637754984,87.99285359877214 72.60744416911312,87.61171215994483 72.77895781637717,87.30679900820142 73.02034739454095,86.87483871043467 73.37607940484513,86.26501240732652 74.11295285397665,84.9691315144049 74.39880893300248,84.30848635273595 75.1293300248139,82.9871960301553 75.96784119144563,81.4880397029905 76.55861042183624,80.37002481465304 76.92704714715924,79.70937965260546 77.13032258102379,79.42987593089973 77.24466501316421,79.27741935521733 77.52416873449131,78.9979156335116 77.74650124107342,78.7946401988898 78.5024317617866,78.21022332544067 79.00426799007444,77.82908188661334 79.63315136476427,77.37171215918757 80.1985111662531,76.88893300286001 81.39910670013049,76.07583126626595 81.55791563313298,75.97419354914436 82.37101737010568,75.33895781713443 82.72039702271114,75.0594540942928 82.87285359839352,74.93240694826945 83.31116625310173,74.60208436800292 83.84476426799007,74.14471464057713 84.84843672456576,73.12833746936126 85.13429280397023,72.79801488909473 85.2994540942928,72.5693300248139 85.43285359801489,72.41687344913151 85.64248138957817,72.18818858598657 85.80764267990074,71.98491315136476 86.67156327543424,70.96853598052752 86.84942928077565,70.7652605459057 87.04,70.46034739567683 87.11622828821982,70.2824813899568 87.16704714678062,70.07920595533498 87.192456576061,69.85052109219005 87.18610421836229,69.52019851192351 87.17339950372208,68.93578163847438 87.16069478946052,68.24972704790366 87.15434243176179,67.76694789157612 87.1479900744417,67.51285359877215 87.13528536018012,67.2841687356272 87.14163771750022,66.59811414505648 87.14163771750022,66.34401985187388 87.14163771750022,66.14074441725208 87.12893300248139,65.6325558312655 87.12893300248139,65.04813895781638 87.13528536018012,64.66699751898905 87.15434243176179,64.13339950410071 87.192456576061,63.75225806527339 87.25598014888338,63.49816377209079 87.35761786600496,63.19325062034739 87.45290322618509,62.98997518610422 87.56089330062677,62.78669975299693 87.66888337506846,62.60883374727689 87.80228287879054,62.430967742692744 88.00555831265508,62.17687344951015 88.15166253101737,62.02441687382776 88.30411910707838,61.87196029776675 88.53915632792206,61.66868486352357 88.7170223325062,61.541637717500215 89.11086848635236,61.23672456575682 89.26332506203474,61.1096774201121 89.44754342431762,60.98263027295285 89.6190570719603,60.855583126929496 89.77786600496277,60.728535980906145 90.15900744454737,59.6105210929473 90.32416873449131,59.12774193548387 101.0342431765573,56.43434243289768 109.68615384653248,54.2745409436853 111.35047146401985,54.17290322656371 112.1000496281702,54.14749379652606 113.30699751861042,54.045856079404466 115.16823821377814,53.84258064591855 116.26719602977667,53.74094292879696 117.11205955334988,53.63930521167537 117.58213399579448,53.613895781637716 117.49320099293446,53.28357320137118 117.27722084367245,52.445062035118085 117.08029776674938,51.83523573276719 116.95960297766749,51.30163771787885 117.01042183622829,50.81885856079405 117.02947890818858,50.61558312730813 117.10570719678704,49.65002481389578 117.13746898263027,49.31970223362925 117.18193548424959,48.8877419358625 117.48049627791563,48.86233250733937 117.72823821339951,48.86233250733937 118.12208436724566,48.81151364877857 118.45240694826946,48.78610421874091 119.4370223325062,48.73528536018012 119.78640198511167,48.709875931278354 120.09766749379652,48.684466501619326 120.44069478983914,48.65905707271756 120.83454094330666,48.63364764305853 121.35543424317618,48.58282878411911 121.62858560831907,48.55741935559597 122.24476426799008,48.455781638474384 122.54332506203474,48.40496277991359 123.36277915632755,48.227096775329436 123.7058064516129,48.12545905782922 123.9599007447955,47.998411911048606 126.69776674937965,46.67712158808933 125.4971712158809,44.54272952891461 125.93548387096774,44.39027295323223 126.39920595533499,44.263225807208876 126.67870967779798,44.161588090087285 127.28218362282878,43.95831265584411 127.52992555869129,43.577171216638156 127.36476426799007,43.22143920633396 127.60615384653248,43.14521091925003 127.93012406985754,43.043573201749815 129.6833746898263,42.43374689864166 129.18153846153845,41.595235732009925 129.9120595537285,41.366550868864984 130.6171712158809,41.13786600572004 131.07454094330666,40.985409430037656 131.4747394544729,40.83295285435528 131.57637717159452,40.62967741973347 131.78600496315778,40.55344913264954 132.3704218366069,40.3755831269295 133.21528536018013,40.121488833746895 133.66630272990716,39.867394541700186 133.54560794044664,39.68952853598015 134.39682382133995,39.20674938003123 136.21359801526697,38.21578163771712 136.95047146439848,38.21578163771712 137.10292803970222,36.76744416911312 137.28079404466502,36.43712158884659 137.48406947928683,36.132208437103195 137.73181141439207,35.77647642679901 137.91602977667495,35.522382135130925 138.10024813895782,35.293697270850096 138.25905707196029,35.14124069478908 138.54491315212204,34.836327544560206 137.96684863523572,34.42977667569522 138.03037220843672,34.25191067111108 138.1574193548387,33.89617866080689 138.2844665012407,33.56585608054036 138.4623325065821,33.08307692307692 138.69101736972704,32.447841191067 138.5703225810238,32.269975186482846 138.65290322580645,31.76178660049628 138.71007444168734,31.355235732767184 138.7037220851245,30.89786600534141 138.79900744416872,29.754441688480803 138.93875930558954,29.11920595647088 139.0531017369727,28.611017370105678 137.47771712196672,23.097171216638152 137.3570223325062,22.919305210918115 137.13468982668135,22.563573201749815 137.00129032295928,22.28406947890819 136.11831265508684,20.962779156327542 136.24535980148883,20.352952853976646 136.21995037220844,19.920992556588526 136.17548387096775,19.717717121966718 136.07384615422478,19.31116625310174 135.9976178663836,19.031662531395998 136.5883870967742,18.523473945409428 137.09022332506203,17.608734491693767 137.52218362282878,16.770223325062034 137.83980148883376,16.236625310552327 138.176476426799,15.6013895785424 138.29717121625953,15.37270471539746 138.4115136480213,15.19483871081331 138.55761786600496,14.966153846532476 138.72277915670617,14.737468983387533 138.83712158808933,14.483374690204933 138.9705210918114,14.229280397022332 139.26908188585608,13.721091812171652 139.51047146401984,13.289131514783532 139.80903225844315,12.755533498759306 140.0377171215881,12.348982631030212 140.2854590574506,11.917022333263464 140.47602977705355,11.586699751861042 140.63483871005604,11.281786601253538 140.7745905707196,11.053101736972705 140.9079900744417,10.824416873827762 141.00962779156328,10.646550869243612 140.41250620347395,9.833449131513648 140.183821340329,9.528535980148883 139.96784119144561,9.249032258443146 141.04138957816377,8.918709677797985 141.94342431761785,8.613796526433221 142.54054590608584,8.435930521849071 142.92803970223326,8.410521091811415 143.66491315136477,8.181836228666471 143.93171215880892,8.10560794120391 144.6495285363588,7.876923076923077 144.88456575682383,7.800694789839146 145.1450124069479,7.6990570723389276 145.43086848635235,7.5974193552173395 145.63414392097417,7.521191068133408 146.82203473983273,7.114640199268426 147.05707196029778,7.013002481768208 147.87017369727047,6.65727047146402 146.14233250620347,5.46302729604262 152.81230769230768,0 154.13995037220843,0.8385111662531017 154.88317617866005,1.3466997522396722 155.64545905707197,1.9057071960297767 156.4013895785424,2.4901240706147982 156.82064516129032,2.8458560794044665 157.73538461538462,3.633548387475404 158.38967741973346,4.268784119485329 159.31712158846796,5.107295285738432 159.81260545905707,5.615483872103632 160.2890322580645,6.098263028052545 161.2418858560794,7.1908684863523575 164.0115136476427,5.488436724944386 164.25925558312656,5.46302729604262 164.56416873449132,5.46302729604262 164.85637717121588,5.539255583505181 165.6948883378476,5.996625310930957 166.74302729528537,6.733498760062471 167.5497766753166,7.013002481768208 168.64238213399503,7.470372209193984 169.7667493796526,8.003970224082321 170.98004962779157,8.385111663288278 173.1716129032258,9.223622829541378 174.57548387096773,9.655583127308129 175.69985111700393,10.214590570719603 177.40863523573202,10.722779156706173 178.4694789081886,11.103920595533499 178.65369727047147,11.154739454472923 178.83791563275435,11.256377171594512 179.04119106775477,11.43424317617866 179.29528535980148,11.561290323337905 179.53032258064516,11.713746899020288 180.01310173735135,12.145707196408406 180.58481389578165,11.815384616141875 180.8833746898263,11.612109181898699 181.334392059932,10.900645161290322 181.50590570719604,10.646550869243612 182.23642679938607,10.316228287841192 182.8780148887161,9.960496278672892 183.4624317617866,9.706401985868922 183.85627791601138,9.528535980148883 184.10401985111662,9.452307692686322 184.74560794044666,9.376079405223761 185.2474441687345,9.808039702990511 185.5777667497583,10.265409429280398 186.18759305286645,10.621141439584585 186.60684863561437,11.053101736972705 186.58779156327543,11.739156327543425 189.14143920595532,10.697369728183036 189.54799007482032,10.519503722462996 189.65598014888337,10.697369728183036 191.0725558312655,12.730124069857538 191.36476426799007,12.603076924212813 191.49816377209078,12.907990074441688 191.66332506241338,13.187493797283315 191.76496277953495,13.39076923076923 191.89836228325703,13.797320099634213 191.97459057109825,14.026004962779156 192.0508188585608,14.229280397022332 192.12069478908188,14.457965261303166 192.19692307692307,14.686650124448109 192.33667493796526,14.864516129032259 192.47642679900744,15.042382134752296 192.7940446650124,15.44893300248139 192.99732009925557,15.677617866762223 193.46104218400146,16.338263027673914 193.5817369727047,16.516129032258064 193.7405459057072,16.719404466501242 194.43930521129676,16.998908189342867 194.750570719603,17.100545906843085 195.16982630272952,17.25300248138958 195.36674938003122,17.354640198511166 195.77965260545906,17.583325062792 196.1417369727047,17.786600496277917 196.3386600496278,17.913647643437162 196.67533498759306,17.913647643437162 197.52019851116626,17.608734491693767 198.12367245695432,17.532506204231204 198.8160794044665,17.38004962854882 199.1019354842496,17.32923076998803 199.47672456575683,17.25300248138958 200.23265508722727,17.786600496277917 200.81071960297766,18.040694789081886 200.98223325099897,18.167741936241132 201.2109181141439,18.32019851230214 201.3570223325062,18.44724565794687 201.5348883378476,18.59970223400788 201.68099255583127,18.75215880969026 201.7762779160114,18.93002481427441 201.84615384615384,19.158709677419356 201.89697270471464,19.463622829162748 201.94143920595533,19.768535980527513 201.96684863523572,20.022630273710114 201.99225806451614,20.276724566892714 202.01766749379652,20.48 201.99861042183622,20.683275434621805 202.02401985111663,20.98818858598657 202.0748387096774,21.16605459057072 202.4242183622829,21.49637717235177 202.5703225810238,21.699652605459057 202.79265508684864,22.004565757202453 202.98957816415034,22.157022332884832 203.09756823859203,22.309478908567215 203.2881389578164,22.61439206031061 203.62481389616028,23.22421836266151 203.74550868486352,23.47831265546548 203.81538461614187,23.783225807208872 203.85985111700393,24.037320100391472 203.94243176216523,24.443870967741937 204.03136476426798,24.875831265508683 204.26004962817018,25.790570720360236 204.3172208440511,26.146302729528536 204.36168734529178,26.502034739832723 204.39980148883376,26.88317617866005 204.32357320099257,27.06104218438009 204.29816377171215,27.264317619001893 204.42521091811415,27.442183623586043 204.59672456575683,27.620049627791563 204.85081885856079,27.89955335101182 205.0159801488834,28.07741935559597 205.16843672456577,28.25528535980149 205.30818858560795,28.433151365521528 205.41617866004964,28.58560794044665 205.63215880931162,28.941339950750837 205.7528535980149,29.144615384994015 205.94342431761785,29.449528536737407 206.06411910707837,29.729032258443148 206.11493796563917,29.95771712158809 206.18481389578164,30.237220844429718 206.28645161290322,30.618362283635673 206.37538461576324,30.97409429356123 206.4389081885856,31.228188585607942 206.4960794044665,31.482282878790542 206.55960297804612,31.685558313033717 206.6802977667494,31.990471464777112 206.82004962779158,32.269975186482846 206.92168734491315,32.447841191067 207.06779156365405,32.70193548387097 207.18848635235733,32.87980148959101 207.30282878449773,33.13389578163772 207.4298759305211,33.46421836304014 207.4870471467806,33.71831265508685 207.50610421836228,33.946997519367685 207.4806947890819,34.175682382512626 207.46799007519894,34.42977667569522 207.49975186104217,34.633052109938404 207.56327543424317,34.91255583164414 207.63315136476427,35.14124069478908 207.69032258064516,35.39533498797168 207.703027295664,35.62401985111663 207.73478908188585,35.979751861420816 207.76019851116627,36.20843672456576 207.77925558350518,36.41171215880893 207.84277915632754,36.58957816452897 207.95712158808934,36.818263027673915 208.0905210918114,37.14858560794045 208.09687344951016,37.351861042562255 208.1413399503722,37.5297270471464 208.1858064516129,37.75841191142724 208.2493300248139,38.13955335025456 208.2937965260546,38.3682382133995 208.30650124107342,38.57151364802131 208.31920595533498,38.77478908226448 208.30650124107342,39.02888337544709 208.33826302767392,39.25756823859203 208.4399007447955,39.43543424317618 208.62411910707837,39.58789081885856 208.89091811452255,39.71493796601781 208.84009925596175,40.096079404845135 208.85280397022333,40.299354839466936 208.85915632754342,40.50263027371011 208.92267990112305,40.70590570719603 209.0052605459057,40.93459057147686 209.0624317617866,41.13786600572004 209.11960297766748,41.341141439205956 209.20218362282878,41.74769230807094 209.1704218362283,41.97637717121588 209.0624317617866,42.20506203549672 208.75116625310173,42.43374689864166 208.54153846153847,42.50997518724011 208.33826302767392,42.53538461576325 207.66491315136477,42.53538461576325 207.21389578163772,42.53538461576325 206.67394541018655,42.53538461576325 206.97250620347396,42.84029776750664 207.05508684863523,43.06898263065158 207.13766749379653,43.323076923834186 207.21389578163772,43.72962779269916 207.30918114219648,44.009131514404906 207.62044665050269,44.263225807208876 207.84277915632754,44.364863524709094 208.19215880893302,44.46650124069479 208.48436724565758,44.54272952891461 208.77022332506203,44.593548387854035 209.19583126550867,44.61895781637717 209.66590570719603,44.64436724641483 209.97717121625953,44.69518610497562 210.30114143920596,44.69518610497562 210.58699751898905,44.72059553349876 211.0380148887161,44.69518610497562 211.28575682382134,44.69518610497562 211.56526054628435,44.746004963536414 211.9591067001305,44.87305210955977 212.16238213399504,44.949280397779596 212.5308188585608,45.05091811527981 212.82302729528536,45.07632754380295 213.2994540942928,45.12714640236374 213.61707196029778,45.203374689826305 213.92198511204117,45.279602978424755 214.16337469020493,45.33042183698555 214.40476426799006,45.355831265508684 214.74779156327543,45.355831265508684 215.319503722463,45.40665012406948 216.74878411948532,45.58451612978952 218.06372208436724,45.73697270471464 219.8550868493925,46.0418858560794 221.48764268027938,46.24516129070121 221.182729528536,47.922183623586044 221.0620347394541,48.53200992555831 220.9476923076923,49.11642679900744 220.83970223325062,49.67543424393344 220.73171215880893,50.18362282878412 220.63642679900744,50.640992556209895 220.54114143958458,51.25081885931805 220.45220843672456,51.80982630310816 220.36327543424318,52.622928040838126 220.287047146402,53.63930521167537 220.2552853598015,54.045856079404466 220.12188585607942,55.79910670088775 220.08377171253744,56.205657568238216 220.1282382133995,56.688436724565754 220.2108188585608,57.01875930596818 220.3251612907012,57.50153846229572 220.49667493796525,58.136774194305644 220.72535980186746,58.924466501997955 220.87146401985112,59.43265508722727 221.15096774231412,60.44903225806451 221.58928039702232,62.02441687382776 221.7989081885856,62.913746898641655 221.9894789085672,63.98094292841833 222.0974689830089,64.41290322580645 222.2626302733315,64.99732009925559 222.42143920633396,65.7341935483871 222.7009429280397,66.80138957816378 222.77717121588088,67.0808933010054 222.99315136476426,67.86858560907633 223.17736972704714,68.5292307696094 223.45052109219006,69.21528536018012 223.55215880931163,69.46937965336272 223.8697766753166,70.56198511166254 224.20009925558313,71.75622828821982 224.574888337469,73.12833746936126 225.2418858560794,75.51682382171857 225.64208436762428,77.06679900744417 225.87712158808932,77.9561290326367 226.09310173735133,78.94709677495081 226.1693300248139,79.25200992631557 226.39801488833746,80.16674938040987 226.63940446650125,81.10689826378456 226.71563275434244,81.41181141439206 227.2619354842496,81.36099255583126 228.55781637754984,81.20853598128477 229.59325062072602,81.10689826378456 230.81925558312656,80.97985111662531 231.30838709715283,82.32655086924362 231.98808933002482,83.74947890932448 232.64238213399503,84.9183126558441 233.25856079404466,86.11255583164414 233.84297766749378,87.05270471501883 235.29766749379652,89.49200992593694 235.71057071960297,90.07642679938607 236.2949875930521,90.91493796563918 236.62531017369727,91.39771712196672 236.89846153884017,91.8042679908317 237.04456575682383,92.05836228401431 237.1462034739454,92.2108188585608 237.29230769268634,92.41409429280397 238.77240694826943,94.29439206031061 239.66808933002483,95.43781637717122 240.79880893300248,96.91156327581287 241.07831265546548,97.59761786638359 241.01478908188585,98.00416873524857 240.4875434243176,98.00416873524857 239.36317617866004,98.02957816377172 238.06094292841834,98.05498759380937 237.69885856079404,98.10580645237016 237.36218362282878,98.1312158808933 236.88575682382134,98.23285359839352 236.6570719606764,98.25826302805254 237.2541935483871,100.16397022408232 237.3367741935484,100.51970223325063 237.44476426799008,100.85002481465304 237.71791563313298,101.66312655124712 237.77508684863523,101.84099255583126 238.0228287841191,102.60327543500044 238.9439205955335,105.70322580645161 232.10243176216522,115.02848635235732 231.84833746898263,115.33339950410071 230.76843672456576,116.55305210918114 229.80923076923077,117.62024813895782 230.0188585615513,117.89975186179944 236.12982630310816,122.67672456613545 236.5999007447955,123.21032258102379 237.2732506203474,124.12506203473946 238.00377171253743,125.09062034853044 238.44843672456577,125.57339950447934 238.90580645199154,125.9545409436853 239.45210918114145,126.51354838709678 240.16357320099254,127.32665012482674 240.4557816377171,127.65697270509327 241.2942928047275,128.6479404474074 242.01210918114143,129.4356327550997 242.28526054590571,129.7405459057072 242.81885856079404,130.37578163771713 243.10471464019852,130.73151364802132 247.6530024813896,136.85518610497562 251.9789578167558,142.67394541018655 252.9635732013712,144.3001488833747 253.80208436724567,146.1296277919419 254.53895781637718,148.08615384653248 255.1170223325062,150.19513647718406 255.46004962779156,151.872158808933 255.73955335025457,153.752456576061 255.86660049627793,154.89588089443615 256,155.78521091811413Z"/></svg>