<svg xmlns="http://www.w3.org/2000/svg" width="256" height="256"><path d="M41.1450546310481,0.17294825373376752 52.00587234141197,2.3481051307010277 52.48148003781692,2.0820308953464854 53.30797313261854,3.0465499997457064 53.08513596017706,3.312624235100249 53.125047095638834,3.5986540386317203 53.18823972653058,3.6917800212436993 53.07016928441607,3.9911135362653605 53.241454573779905,4.184017357482214 53.47759545800894,4.549869431838113 53.618947395652555,4.849202946859774 53.66883631485587,5.062062335658834 53.655532603068316,5.374699562567167 53.50253991751148,5.74720349232124 53.45763989032761,5.886892466387888 53.342895376060866,6.086448143399397 53.22648789791979,6.266048252233977 53.118395239844176,6.392433514413954 53.181587870636804,6.512166920303674 53.34455834013343,6.578685479043189 53.60065479194467,6.598641046922757 53.871717919715145,6.578685479043189 54.14776993920771,6.572033623645016 54.37559600356953,6.698418885230271 54.57182575253503,6.711722597315183 55.39332995531719,6.565381767255638 56.347871276073995,6.631900326589876 57.082901352336194,6.552078055765448 57.43877564265319,6.771589299962682 57.77136843734197,7.197308077263441 58.12391679971208,7.4633823133118256 58.73089865021734,7.935664081373412 59.18488781476929,8.294864300033776 58.90717283120416,8.494419976648803 58.546309648966826,8.820360915642048 57.467046030201736,9.319250107675218 57.62170167983114,9.89130971414344 60.385547803694905,12.618570630987916 60.5368775252783,12.71834846899807 60.79796286900987,12.804822595518031 61.00084447377002,12.911252289917561 61.55960036884718,13.18397838166148 61.71259305440402,13.317015499636113 61.77079679357367,13.410141481950731 62.02523028141147,13.72943056485196 62.29961933702971,13.935638097559004 62.61890841993094,14.10858635069805 62.89662340349607,14.234971613274508 63.13442725169855,14.328097595490005 63.36225331606036,14.421223577804623 63.53520156929853,14.474438425351309 63.70981278651014,14.487742136841499 63.85615361627232,14.467786568961932 65.16656922734612,14.148497486358064 65.72532512232415,13.802600979584371 65.86834002404032,13.676215717999117 66.06623273697926,13.523223032442278 66.20259578270255,13.356926635097887 66.33895882872318,13.11080796663171 66.48696262216146,12.944511569287318 66.57343674887966,12.871341154852269 66.70979979460293,12.798170740119858 66.84616284042534,12.758259604360722 67.18041859908756,12.71834846899807 68.95812708689733,13.463356329497417 69.8261942808368,13.80925283597375 69.97087214652642,13.869119538918609 71.05678762128441,14.281534604431817 71.60390276854746,13.629652726841808 72.16265866352548,13.736082421241338 72.43039586324996,13.762689844519079 72.65489599966487,13.842512115343506 72.81952943303583,14.008808512687896 72.94425173104412,14.30149017161754 73.25522599407813,14.773771940075608 73.54125579751047,15.053149888208907 73.93038936729634,15.492172376900735 74.35111925257766,15.911239298208598 74.53570825372906,16.070883839460972 74.67040833547888,16.34360993120489 74.97971963453945,16.70946200526343 75.17428641943239,16.749373140626084 75.4503384391232,16.795936131783392 75.66652375557179,16.749373140626084 75.8910238919867,16.66289901410612 76.10554624456097,16.69615829377324 76.3682945523651,16.529861896428848 78.70974782697412,15.03319432032934 79.31007782158561,14.880201634475139 81.09610112896523,14.614127399120596 86.98133063088407,13.89572696219635 87.08443439743584,13.95559366514121 87.30394564183132,14.081978927420307 87.93753491561432,14.32144573949711 88.27345363824999,14.494393992834395 88.55116862191424,14.501045848629051 89.27289498638889,14.33474945128466 89.42588767194573,14.447831001776207 89.64041002452,14.481090281046844 89.75848046663451,14.527653272501514 89.88153980066936,14.620779254518771 89.9214509359329,14.753816372493402 89.92643982785323,14.900157202652068 89.951384287554,15.019890608541788 89.98630653099633,15.053149888208907 90.07278065751629,15.073105455394632 90.16091774830706,15.04649803181953 90.23907705486067,14.999935040662221 90.35881046094863,14.960023905596929 90.4901846148507,14.993283184867565 90.53508464233194,15.066453599996457 90.8161255536457,15.472216809417649 90.82444037361205,15.824765171589515 90.82610333768461,16.13075054240583 91.06058125784108,16.40347663414975 91.67587792801532,16.775980564597667 91.73740759493363,16.935625105552678 91.62266308086512,17.141832638557084 91.52953709825314,17.34138831527123 91.40814072838998,17.60081069493024 91.43641111574028,17.780410804062182 91.86711878486226,17.48107728904052 93.02786763842522,16.69615829377324 92.59549700523068,16.13075054240583 92.43418949980662,15.764898468347294 92.7667822944954,15.598602071002905 93.34050486543268,15.339179691443016 93.2357381351057,15.671772486131797 93.95912746345468,15.705031765699795 95.78007301447488,14.71390523713075 96.47352899130186,14.434527289592173 97.60600745721716,13.882423250408799 98.65533772455937,13.237193229208168 98.85489340137265,13.07754868726195 98.87484896895485,12.877993010845165 98.93637863597228,12.538748360163488 98.97296384348716,12.35249639493953 99.03781943835236,12.226111133354276 99.3504566653598,12.252718556632017 99.54668641422619,12.252718556632017 99.87262735302119,12.239414845141827 100.19690532784276,12.192851853687158 100.35156097747216,12.139637006140472 100.504553663029,12.053162879620508 100.59601668166754,11.97334060879608 100.64756856464605,11.833651635324154 100.73736861921202,11.427888425605602 107.02170947485652,9.472242793232057 109.4945369033676,12.365800107024443 118.89360928137164,21.21942030173889 123.16243780120213,24.87128918692609 126.31874342269954,33.09298307153362 127.5709552947028,36.35239246007838 127.36474776199574,36.53199256891296 126.82095854277871,37.09740031988389 126.57151394676212,37.11070403167144 124.1203050498067,38.9865273939144 122.95456730452165,39.971002066193186 121.487833079845,40.55636538484544 120.93074014884041,41.061906432276785 121.21344402422676,41.214899117833625 121.2782996192902,41.28141767716786 121.36809967385616,41.43441036262558 121.37807745759771,41.62731418364419 121.30657000683874,41.574099336097504 121.23506255598065,41.5474919125224 121.0820698703247,41.527536344940195 120.61477699378696,41.527536344940195 120.15579893721556,41.50758077775447 118.26500889950897,42.33241090808704 117.61146405784639,42.59183328804341 117.17077860478464,43.1306336157366 116.730093151822,43.17054475119837 116.48563744772575,44.43439737061925 116.08818905817178,44.84681243613246 115.7971703628191,45.0264125452644 115.54938873067684,45.199360798304326 115.44961089236932,45.252575645553655 115.39140715319967,45.265879357341205 115.16690701688387,45.312442348498514 114.51169921124784,45.45213132256516 112.29995712656746,45.7182055579197 110.91304517281436,45.791375973246836 109.22679970364312,46.24370217382533 105.1259305452296,48.711540710118726 105.07271569798027,48.77140741336095 104.96794896775242,48.924400098917786 103.99178911524173,51.205986670284574 104.18635590013467,53.44101025108878 105.98734588337442,60.05960686519726 106.61594626543533,62.24806745434855 107.28113185481288,62.87334190826434 108.11427680540916,63.65160904783608 108.9906588194141,64.25027607847413 109.03056995477675,64.31014278112163 109.10207740563484,64.3766613401585 109.14365150497093,64.4032687637336 109.19520338814769,64.42322433161317 109.44132205621739,64.49639474604822 109.4529628040315,64.54960959349579 109.91027789672857,64.7491652705073 110.02169648294931,64.77577269418153 110.25284847535714,64.78907640596907 110.34264852992311,64.7824245495797 113.18465396053874,65.40769900389196 128.90631536547735,67.25026308646781 129.10587104219152,67.49638175463662 129.48835275618273,67.78241155816809 129.84921593842006,68.07509321739509 130.24999025602003,68.36112302062921 130.67903496106945,68.60724168850066 131.09477595443042,68.8866196363366 131.52880955149928,69.17930129526624 131.63523924579968,69.23251614281293 131.99277650009012,69.35890140469554 132.0493172751872,69.35890140469554 132.40186563755734,69.34559769261064 132.6762546932747,69.5318496578346 132.91738446942406,69.7314053348461 132.9606215327336,69.85779059672872 132.93567707303282,69.97752400261844 132.79266217141577,70.36998350054944 132.77436956780699,70.41654649200412 132.767717711715,70.63605773630046 132.80762884717674,70.81565784513505 132.90740668548426,70.96199867489723 132.9689363525017,71.02851723393411 133.0454326952801,71.08173208138167 133.54764781526018,71.22807291094561 133.86194800634019,71.24802847872606 134.42236686539079,71.23472476693851 134.47558171244188,71.23472476693851 134.5371113794593,71.22807291094561 134.65684478564637,71.13494692833363 134.69841888498246,71.10168764866651 134.84309675057298,71.04182094572165 134.95118940884683,71.00856166605453 135.00773018394392,71.00856166605453 135.04265242738623,70.97530238668477 135.08422652672235,70.88882826016481 135.10418209440365,70.84226526871015 135.28045627568784,70.63605773630046 135.48001195240198,70.5030206186232 135.94730482903884,70.30346494161168 136.11193826240978,70.27020566194457 136.16349014548743,70.27020566194457 136.2715828038604,70.27685751833394 136.3696976782936,70.32342050949126 136.51603850805577,70.39659092422366 136.70894232887613,70.48971690683564 137.0032869520766,70.56953917756096 137.2410908003782,70.72918371891244 137.30095750332305,70.78239856576529 137.38743163004125,70.83561341331198 137.43066869344992,70.86222083658971 137.48222057642843,70.87552454837727 137.63687622605784,70.92873939592396 137.69175403718148,70.92873939592396 137.83643190277198,70.91543568403728 138.03099868776405,70.65601330418004 138.1407543099122,70.54293175368849 138.18066544527488,70.50967247402137 138.27212846381428,70.46310948286406 138.3669174103006,70.40989463601122 138.41846929347736,70.38328721243612 138.51658416800967,70.35002793306636 138.69119538522128,70.32342050949126 138.75106208816612,70.31676865310187 138.79762507942257,70.30346494161168 138.84585103465244,70.27685751833394 139.07201413513994,70.10390926460018 139.16680308152712,70.01743513837758 139.28819945158853,69.92430915546824 139.62744410217107,69.6316274961421 139.99495914030217,69.31233841324088 140.458926088893,69.09282716874628 140.82810409099756,68.97309376285656 140.94284860526432,68.93983448318944 141.43841186925147,68.7602343740575 141.57311195119956,68.72032323899221 146.81976328731594,69.10613088053384 148.72219407293576,68.99304933073613 148.06864923137232,68.56067869734336 148.01709734829467,68.53407127376825 147.97219732091256,68.49416013870297 147.9239713656827,68.46755271473138 147.53650075987025,68.1815229111999 147.1324005143234,67.87553754038359 146.73661508864373,67.56955216936903 146.31754816733587,67.24361123067315 146.28262592389356,67.10392225700298 146.33584077104376,66.91101843598437 146.40402229395497,66.82454430886969 146.49049642057403,66.75137389443464 146.95113744141625,66.51855893775601 147.3419339749773,66.25248470240146 147.37685621841965,66.21922542273434 147.40512660596818,66.17931428766906 147.44004884941052,66.10614387293664 147.44503774133085,65.97975861065754 147.40678957004076,65.8201140690087 147.36188954265864,65.74694365457364 147.05923009949186,65.54738797756212 147.01266710833454,65.52743241007904 146.9544633691649,65.50082498650394 146.76654844016574,65.46756570683682 146.38572969024708,64.94206909152591 146.2161073650549,64.4032687637336 146.17120733767283,64.07732782513685 146.2161073650549,63.74473503044806 146.34914448283132,63.458705227213954 146.46721492494584,63.33231996463749 146.5304075559367,63.338971821026874 147.0675449194582,63.37888295609216 147.4666562729856,63.365579244601975 147.52818594000303,63.352275532814424 147.73771940065697,63.3190162531473 147.8491379868777,63.31236439705529 148.0603344115051,63.27245326169263 148.16343817795772,63.252497694407786 148.22496784497514,63.239193982322874 148.72219407293576,63.11946057613579 148.77374595611252,63.11280872073762 148.8302867312096,63.10615686434824 151.22828078091572,62.973119746670974 153.59800444307328,63.75138688644096 158.67004456207718,64.18375751953637 161.04143118820818,62.18820075140369 161.11959049505916,62.48753426642536 161.60683893917908,64.33675020509321 164.72655935335985,69.53850151382748 169.6406178948866,73.07728884951435 179.187694066428,76.2568759663426 180.75420612941215,76.87549856456286 188.4304478308292,80.94643437165264 189.39995582734701,81.46527913156538 192.1455093475029,82.92203557190575 195.506359537833,84.55839212177456 200.7979109013315,83.69365085568285 202.34945628855465,84.11936963268624 202.50411193808495,84.08611035331649 203.0479011575002,83.92646581206411 204.19700926314994,83.93976952385167 205.15155058380762,83.82003611796195 205.92316586758471,83.19476166364967 206.774603421988,82.29010926189795 207.37825934434812,81.33889386928628 208.30951916937758,80.02847825841073 209.15596783186052,78.95087760351997 209.7080718710439,78.31895129380952 210.56449831746664,77.90653622799896 210.76405399418078,77.8067583899888 210.5445427497853,77.33447662153074 210.108846188743,76.76906887016332 209.8244793492841,76.46308349904965 209.83445713302564,76.0240610102587 210.14543139605965,75.26574943866565 210.50130568637664,74.54069714604586 210.53789089389153,73.92207454812298 210.3183796492978,73.35666679675556 210.0074053862638,72.55179223360872 210.2452092345654,72.37884398056879 211.44088033137245,72.42540697202347 211.73356199069858,72.37219212447678 211.82169908129111,72.29902170974437 211.86992503652098,72.28571799795681 211.92646581161807,72.27241428646663 211.98300658671516,72.26576243007725 212.04287328975914,72.25911057467907 212.16759558776744,72.25245871828969 212.6382143924503,72.15268088027955 213.191981395508,72.05955489766757 213.34996297298517,72.00634005012088 213.82058177746978,71.80678437340673 213.87379662452088,71.79348066161918 214.00018188650262,71.78682880592365 214.48909329469512,71.77352509443345 214.55727481770543,71.77352509443345 217.08165412929415,70.84891712509952 218.18586220776004,70.09060555281262 219.09550350123385,69.5318496578346 221.41866417203585,69.10613088053384 224.1708695480855,69.605020072567 224.1708695480855,69.8178794610687 224.17419547613153,71.49414714630015 224.65312910058248,73.46974834685064 225.4729703392921,76.31009081388929 225.62097413302772,79.13712956874393 225.5378259343555,79.21695183946923 225.49791479899287,79.32338153327404 225.46132959157708,79.54954463415801 225.35489989717757,79.9619596990765 225.21022203148794,80.36772290879505 225.01232931874725,80.76018240642868 224.8227514256755,81.15264190406234 224.5749697937315,81.51184212262358 224.63982538859668,81.68479037576262 227.07440464571857,83.7269101350526 227.7495680190359,83.34110249341187 228.04391264223636,83.48744332327317 228.30499798606704,83.61382858485842 229.0367021344815,83.83333982945214 229.49401722717855,84.31227345360574 229.6137506332665,85.07723688198466 229.7534396069367,85.68920762381553 229.65532473260262,87.09274921730307 229.6470099127354,88.39651297248308 229.74678775104292,89.05504670646246 230.18414727605867,90.11934364887183 231.10044042542623,92.05503371405966 231.25675903892997,92.38762650874844 231.69411856394572,93.29893076659218 231.87205570920332,94.07719790576743 231.91196684446686,94.55613153061489 231.67250003229094,95.00845773119339 232.42582271236014,96.73128840758214 233.04278234650783,98.02840030667015 233.51672707884023,98.50733393141847 235.36095412538953,99.20577879986843 237.18688856833003,99.9441348039784 237.3232516140533,99.99734965152508 237.78888152671672,99.89757181282108 237.94520014012133,99.88426810103354 239.24896389530136,99.62484572137453 240.33820529800622,99.41863818837012 241.5039430433904,99.33881591814043 242.8842031412497,99.19912694447025 243.6707851007878,99.54502345094659 244.0649075623949,99.54502345094659 244.2278780317924,99.55832716243678 244.44073742049233,99.63149757716918 244.65027088124538,99.76453469484646 244.71013758419025,99.80444583050647 245.02610073904546,99.9042236689131 245.08264151414255,99.93083109219084 245.14417118115998,99.95078666036778 245.21068974019687,99.96409037185796 245.53330475094586,99.96409037185796 246.0804198982089,99.9441348039784 246.6258720814985,99.85766067745844 246.70403138825037,99.85766067745844 246.77720180318101,99.85100882196114 246.89527224539464,99.80444583050647 246.9401722724794,99.78449026302339 247.35757622991292,99.7512309830589 247.86311727783988,99.62484572137453 247.9130061970432,99.618193865679 248.10424705389013,99.61154200928962 248.17409154077475,99.60489015389145 248.2406100997125,99.59823829750206 248.35701757795272,99.57163087422433 248.5732028944013,99.47850489161235 249.0088994554436,99.23238622344353 249.49781086363612,99.05943797040361 249.99004819987462,98.91974899633696 250.49558924770244,98.72019331962281 250.6302893295514,98.63371919310285 250.92297098887752,98.30112639841407 250.96121916036586,98.25456340695939 251.0011302956294,98.22130412758963 251.31875641455719,98.12817814527502 251.37862311760117,98.11487443319011 251.42851203680448,98.08161515382035 251.5233009833899,98.02174845117285 254.27218043149267,98.24125969546921 254.37362123377363,98.20134856040391 254.42683608102294,98.18139299252435 254.4817138921466,98.1680892807368 254.5914695143939,98.14813371285723 254.64468436144497,98.14148185706257 254.86253264206525,98.14813371285723 254.96896233626654,98.1680892807368 255.06707721069972,98.20134856040391 255.16851801327806,98.23460783937719 255.2167439684088,98.26121526334877 255.30321809492875,98.31443011020161 255.34312923029142,98.34103753407408 255.50111080796682,98.44746722787889 255.80543321500795,98.80001559044723 256,99.05943797040361 255.45787374455816,99.13260838513602 253.83648387045037,100.2900313107521 253.29103168706163,101.18803185621356 252.51775343941023,103.15032934497648 252.57096828656043,103.60930740194436 252.18516064472146,104.02837432285574 254.1757285210329,106.88867235737749 253.94956542054544,108.07270270666778 251.17407854886756,111.69796416857724 250.22120019228245,111.82434943075722 247.8980395212822,112.7755648233689 247.33762066223161,112.94186122071328 246.40802380107647,112.98842421216796 245.57487885028195,113.26115030361451 244.96789700007403,113.45405412463313 243.2733367110356,113.69352093670993 243.23841446759326,113.72678021637705 243.3764404773891,114.05937301106583 243.77222590306877,114.40526951754215 243.44961089231975,114.66469189749853 243.042184718826,114.93076613285307 242.72954749181855,115.06380325053034 242.5565992385804,115.13697366585747 242.06269893836844,115.30327006320186 241.7849839548033,115.38974418982095 241.73343207162654,115.38974418982095 241.63864312514025,115.41635161339605 241.59208013398293,115.43630718087914 241.3792207453821,115.5161294514062 241.28110587094892,115.54938873077596 240.80383521057053,115.71568512812036 240.75560925534066,115.73564069629728 240.63254992120667,115.79550739924214 240.5527276505805,115.8420703906968 240.16525704476805,116.0948409142638 238.81326733425905,116.61368567417654 238.77003027094952,116.68685608890895 238.73011913558685,116.77333021542891 238.53721531476648,117.13918228978481 238.2844447907039,117.51168621953889 237.98843720343086,117.87088643780277 237.65750737281465,118.21678294467557 237.61094438145912,118.30325707119555 237.50950357907902,118.52942017148479 237.32491457812588,118.64250172187721 236.91083654863922,118.90192410123886 236.5000844472977,119.15469462579706 236.06771381410317,119.4207688611516 235.63866910895464,119.6868430968035 235.28113185476332,119.99948032430656 234.95352795189575,120.31876940720778 234.04388665842194,121.97508152426231 234.1253718931207,122.12807421011651 234.15031635282148,122.17463720127382 234.1586311726887,122.47397071629548 234.02891998266094,122.89303763750422 234.01062737895307,123.02607475547886 233.86594951326344,123.23893414427792 233.54998635850734,123.58483065075424 233.1891231761709,123.92407530123768 232.85819334535645,124.27662366380603 232.55885983023566,124.60921645849481 232.27283002680332,124.96176482096404 232.0416780343955,125.35422431830031 231.82715568182124,125.74003196023843 231.59267776156562,126.11253589058721 231.36984058912415,126.5116472440155 231.15698120062245,126.84424003870429 231.04722557837516,127.03049200392825 231.0139662990054,127.11031427465356 231.00565147903907,127.16352912160552 230.98735887523205,127.25000324812548 230.88758103692453,127.40299593368232 230.84933286543622,127.43625521334944 230.6148549451806,127.64246274575912 230.57161788187108,127.67572202542624 230.18082134821088,127.98835925223545 229.82661002186734,128.28769276785184 229.4757246235698,128.58702628297263 229.16142443248978,128.85310051832715 229.08991698153255,128.92627093335693 229.01840953087273,128.9595302127267 228.94025022402172,129.02604877206093 228.6359278168815,129.35198971036033 228.60433150128694,129.39190084602035 228.5228462665882,129.45176754926257 228.47960920327864,129.4783749729368 228.40976471639402,129.54489353127983 228.25344610289028,129.6646269374669 228.08049784975125,129.7644047761709 228.0306089304488,129.78436034395133 227.66475685639026,129.9307011735153 227.21908251140817,130.16351612950007 227.00456015883393,130.2499902564165 226.95300827575628,130.27659767999162 226.87318600493185,130.32981252684448 226.83660079751607,130.3630718062142 226.79502669817998,130.3896792300867 226.73349703116256,130.40298294187423 226.68859700397869,130.42959036554845 226.68360811195924,130.50941263597642 226.72850813924222,130.7754868720248 226.7883748422862,130.98169440443448 226.8216341218542,131.06816853125179 226.92972678002894,131.37415390206812 226.97130087936503,131.4606280292819 226.98793051919858,131.72005040884181 226.9796156993314,131.93956165343553 226.9729638434376,132.17902846521497 226.93804159999527,132.3386730067647 226.82329708572854,132.39853971000693 226.86653414903807,132.6845695136375 226.86487118506463,132.77104364015747 226.86487118506463,132.82425848701033 226.89813046473174,132.89742890204008 227.1176417091272,133.26328097639598 227.15921580846333,133.3431032466257 227.18083434011808,133.74886645634425 227.18416026796586,134.17458523334764 227.22074547538162,134.35418534247958 227.4918086031521,134.77990411978035 227.5234049185484,134.819815255143 227.56165309003674,134.85972639090213 227.61985682900817,134.97280794069982 227.757882838804,135.36526743833346 227.772849514565,135.45174156554728 227.83936807360186,135.61803796289166 227.88759402883176,135.69786023302225 227.95577555174296,135.77103064834938 228.0871497055459,136.6557274820233 228.71741305148115,137.75993556048917 229.0865910536848,138.47168414102404 229.18803185596576,138.83088435899057 229.23958373924162,139.19008457725445 229.2429096670894,139.62910706634275 229.23126891937443,140.0548258436435 229.17971703609854,140.45393719766653 229.15643554056945,140.88630783036547 229.1098725492139,141.31867846336175 229.0716243779238,141.7177898170874 229.0516688102425,142.13020488260062 229.00843174683382,142.53596809202182 228.94191318799517,142.941731301443 228.92362058418817,143.36079822294911 228.89867612468564,143.7599095763774 228.85211313352832,144.1656727857986 228.81053903419223,144.59804341948873 228.78060568257112,144.99715477252053 228.74900936697657,145.416221694324 228.71242415965992,145.83528861563187 228.67085006032383,146.2676592483308 228.64923152866905,146.6667706023538 228.60765742933296,147.0858375232652 228.55444258208362,147.48494887728822 228.4347091760948,147.90401579849697 228.25510906696286,148.2964752961306 228.03726078634259,148.67563108227407 227.84934585734342,148.76875706488602 227.37706408888536,148.98161645338774 226.92141196016172,149.25434254513166 226.85323043725052,149.28760182410494 226.45910797564343,149.46720193323688 225.83549648560196,149.73992802527815 225.69580751173356,149.80644658372032 225.52618518664053,149.93283184629675 225.4879370150531,149.96609112527003 225.44469995174353,149.99935040463978 225.33494432949624,150.01930597251936 225.27840355439915,150.01930597251936 225.11044419327956,150.04591339609448 224.59991425323403,150.17229865837356 224.5450364421104,150.1789505140691 224.49514752290708,150.1989060816513 224.39703264847387,150.25212092919799 224.31887334182113,150.28538020817126 224.14093619656353,150.5647581560072 223.96965090729879,150.88404723890844 223.80002858210665,151.3031141598198 223.68029517591955,151.6224032430184 223.84326564531708,156.1323615391965 223.4657728234444,159.15230411497063 222.75901313473076,161.00817190903666 222.33828324944946,162.09907627571496 222.5378389262627,162.15229112286517 223.36100609301832,162.28532824093892 223.74016187896353,162.35184679957933 224.03949539418343,162.47823206185842 223.80002858210665,162.7908692883703 223.54892102211662,163.16337321871907 223.2795208584187,163.50926972529453 223.02508737038266,163.9083810786237 222.752361278837,164.29418872085915 222.49792779090006,164.6866482184928 222.21688687928892,165.01924101318158 221.94416078764414,165.35848566386326 221.6747606239462,165.70438217033958 221.4319678838234,166.08353795588832 221.19083810767404,166.45604188633624 220.94139351165745,166.81524210430274 220.89981941232136,166.8751088072476 220.6936118796143,167.14783489899153 219.7606890906114,166.8751088072476 218.64982915625177,168.94383599011272 219.50791856654882,169.07687310808734 219.33497031331063,169.4360733267477 219.12543685265672,169.83518468007688 218.95581452746455,170.22099232231236 218.69805511148164,170.59349625176907 218.37045120871318,170.95269647003295 218.0794325133605,171.2919411211111 217.6853100516543,171.5713190682532 217.29285055402065,171.84404516029446 216.90537994820824,172.16333424289834 216.84883917311114,172.2298528019352 216.78730950609372,172.3030232166676 216.7158020551365,172.37619363140004 216.4763352430597,172.77530498542305 216.3017240258481,173.18772005083713 216.196957295422,173.58017954817342 216.11214613277636,173.85290564021471 216.03398682602452,174.14558729924346 215.95250159132576,174.55135050866465 215.84108300510502,174.97041743017076 215.57999766127432,175.3495732163142 215.31558638949673,175.7220771461674 215.27567525423322,175.8484624083474 215.24407893863867,175.948240246754 215.2457419026121,176.31409232081256 215.3022826777092,176.48038871815695 215.40372348008927,176.66664068328177 215.47523093094736,176.75976666529903 215.52013095832947,176.83293708062618 215.7230125629905,177.23870028975 215.9009497082481,177.6245079316881 216.03564978999796,178.02361928571113 216.10216834903483,178.31630094464077 216.12046095264358,178.7619752898211 216.10216834903483,180.00587234195714 216.10549427688258,180.43824297505253 216.1171350246967,180.87061360775147 216.11214613277636,181.30298424114426 216.10715724095516,181.72205116235298 216.12212391671616,182.12116251597953 216.11879798867014,182.55353314907495 216.10715724095516,183.3850151357969 216.1088202049286,183.7907783452181 216.12544984456392,184.1898896992411 216.16369801605225,184.54908991720762 216.1770017278398,184.6754751794867 216.0888646373464,184.54908991720762 215.94252380758422,184.16328227556687 215.89596081622867,183.73091164197587 215.86935339265355,183.61783009207903 215.7679125903726,183.511400398076 215.28565303797475,183.31849657705737 215.0594899375864,183.2386743063321 214.68366007958807,183.48479297440178 214.57723038538677,183.4980966861893 213.27346663020674,183.64443751575325 212.7113848070836,183.84399319276477 212.05451403767236,183.9105117511078 210.88046147232185,184.16328227556687 206.53181068186518,184.82846786494443 205.66374348762835,184.91494199156352 204.94700601527225,185.101193956391 201.86387080830903,185.91272037562987 201.3250704809132,186.35174286471818 200.80955164924472,186.7841134974171 199.42762858721372,187.9681438467074 198.20867599467934,189.05239635699635 196.4193267592537,190.38276753575147 195.6410596197811,190.96147899890641 195.2253186264201,191.06125683691658 193.8284288886281,192.1721167717718 187.38610645550645,194.60004417260345 182.79965181684727,195.29183718585347 177.58792272397497,196.0834080369154 177.52805602103012,196.0834080369154 177.47317820990648,196.1100154604905 174.43993192224568,196.95480115929738 170.9743150015886,197.9193202636966 169.83684764385208,197.8461498486668 165.3352041676403,197.56012004513533 157.68723285377183,195.8306375133484 156.62958776676064,195.6044744127618 154.59910875518563,195.15880006758147 153.12572267461522,195.17875563546104 152.94778552945672,195.17875563546104 152.74157799684878,195.18540749115658 151.12351405058874,194.71977757849317 151.0087695364211,194.6865182991234 150.6362656064688,194.56013303753815 150.15733198211697,194.3805329284062 149.64846500614402,194.22754024284936 149.13294617447553,194.11445869235783 148.5874939910868,194.0013771425601 148.06698626739887,193.90825115994815 147.22220056888935,193.61556950032465 146.60025204282135,193.40271011152558 145.72387002891554,193.07676917322618 143.2344129605709,193.57565836525936 141.85914175453277,193.9348585832259 140.8779930102009,194.1078068366623 140.3059334034353,194.10115498057027 139.43287731737726,194.1078068366623 138.25383586020553,193.94816229501342 136.8635979783073,193.66878434787134 135.4700341685613,193.18319886732834 133.72724792439212,192.53796884543388 132.68623247701623,192.17876862717 132.30707669107102,192.09894635664293 130.5060867079304,191.72644242629414 125.28936872323688,190.42933052720613 125.07318340659006,189.6976263787917 125.03327227132652,189.61780410836374 125.03659819917429,189.15882605139586 125.04325005506807,188.99918151044088 125.06819451476885,188.7397591304845 124.64413870154065,188.67324057115025 124.55101271892867,188.63998129207786 124.29657923099175,188.18765509090463 123.73449740796771,187.76193631390123 123.3353860544403,187.60229177235152 122.98283769207019,187.56903249268439 122.39747437331881,187.56903249268439 121.2450403397222,187.55572878089683 119.90968026904675,187.55572878089683 118.97010562415007,187.6089436283444 118.00891244740036,187.55572878089683 117.30547868663359,187.54242506940665 116.13308908535565,188.07457354110693 114.81768458236152,187.42269166351693 114.4418547243632,187.22313598620806 113.77833209895908,186.1854464673738 113.56713567452995,185.74642397828546 113.21292434808728,185.16106065963322 112.91691676071514,184.7552974496173 113.19629470825372,184.32292681691837 111.20738979601481,182.08790323670888 111.0743526781393,181.9216068393645 110.93965259638946,181.76196229741828 110.65029686491111,181.42271764733132 110.36260409750531,181.076821140855 110.09985578970118,180.7109690664991 109.86038897752526,180.35176884853257 109.65584440879165,180.03913162102953 109.42302945260863,180.22538358625349 109.02724402692898,180.54467266915472 108.67802159240664,180.85730989596394 108.57658079012569,180.977043302151 108.47680295161993,181.1899026906527 108.42691403241662,181.28302867326468 108.37868807718674,181.46928063848864 108.20906575199459,181.8883475596974 108.08434345398629,182.14776993965376 107.90973223667557,182.34067376027588 107.61705057734943,182.5402294372874 107.14476880889137,182.7796962493642 106.68246482427396,183.03911862932057 106.36317574137273,183.17215574699784 106.25674604717145,183.2187187384525 106.03390887472996,183.27858544139735 105.5200530069358,183.39831884728707 105.29056397850142,183.44488183874176 105.12260461718358,183.4980966861893 105.13590832897114,183.5579633888368 105.19743799598857,183.6776967954204 105.46184926776614,184.04354886908243 105.71461979182874,184.40940094314098 105.96073845979932,184.77525301749688 106.17193488452581,185.14110509185278 106.46129061580592,185.48034974253446 106.50120175116858,185.51360902160684 106.54610177855068,185.54686830127397 106.99177612333453,185.76637954576856 107.10652063750216,185.80629068123034 107.2395577554768,185.83954996089744 107.20629847610704,185.89276480745295 107.1796910523337,185.9393277989076 107.15640955680459,186.02580192542757 107.13146509710381,186.0723649165849 106.91361681668178,186.47812812660078 106.73900559937105,186.86393576824153 106.59100180573455,187.243091554385 106.57270920202667,187.38943238355245 106.62093515725654,187.58233620447194 106.63257590507065,187.6288991959266 106.68579075231997,187.70872146675103 106.71406113986852,187.7552844582057 106.76893895099217,187.894973431975 106.95186498797187,188.27412921772196 107.12481324121003,188.67989242753964 107.15474659273202,188.77301840975514 107.13811695299759,189.17878161957282 107.07492432200672,189.43155214313978 107.00175390717519,189.83731535256098 106.92525756439677,190.236426706584 106.75896116705238,190.60893063633807 106.73235374347728,190.66214548388476 106.71239817589507,190.72201218682963 106.69743150003495,190.82844188122917 106.69743150003495,190.88165672778464 106.72902781553039,190.9814345666869 106.75563523920462,191.02799755754683 106.78723155460092,191.07456054870414 106.82381676211581,191.11447168446327 106.87037975327313,191.14107910803835 106.92026867257556,191.16768653131612 107.09654285366149,191.20759766667877 107.15807252067891,191.2142495224734 107.214613295776,191.23420509065033 107.30773927838798,191.32067921687295 107.51228384702247,191.51358303779244 107.55718387440457,191.56014602894976 107.58878018980089,191.60670902040442 107.60208390158844,191.6599238679511 107.5921061178469,192.53796884543388 107.58711722592656,192.97699133481956 107.58878018980089,193.03020618177152 107.62869132526266,193.14328773216394 107.8714840654846,193.5290953738047 107.90141741680834,193.5823102209549 107.90474334485435,193.72199919442681 107.8199321821096,193.82842888882635 107.7750321548266,193.86168816849346 107.61372464950166,193.9348585832259 107.5654986942718,193.95481415110544 107.46904678381205,194.0146808540503 107.54055423457102,194.06789570090314 107.74509880340374,194.3339699372489 107.96627301187178,194.7397331466701 108.16915461663193,195.13219264430373 108.19077314818757,195.17875563546104 108.22070649970956,195.2253186269157 108.5250289068498,195.56456327700266 108.5815696819469,195.6976003949773 108.59154746588668,195.78407452189373 108.608177105522,195.9237634955639 108.61981785353434,196.01688947787852 108.66970677253943,196.0434969018501 107.94465448011789,196.52243052600372 107.82824700207593,196.82176404102538 107.3127281702092,197.38717179239276 106.562731418186,197.90601655190903 105.76783463887982,198.55789842920169 104.38591157704705,199.18317288351395 103.44633693195213,199.18317288351395 101.40588013663559,199.38272856052546 101.07993919784059,200.53349963014864 100.4480128879319,200.81952943368012 94.13872757258662,203.67317561181247 93.48351976704973,204.03902768616837 92.12986709266639,204.69756141915656 89.87488794477558,205.51573969409097 86.1897597796239,206.3006586896556 85.07391095344305,206.4603032316018 85.10384430486592,206.54677735812177 85.13045172863926,206.58668849318707 85.33499629717461,206.96584427903315 85.35827779290196,207.04566655015495 85.35994075677627,207.49134089464144 85.38987410829827,207.73745956281024 85.38155928843105,207.95031895131194 85.32834444128085,208.02348936604437 85.28677034194475,208.05009678991684 85.25184809850242,208.0833560692866 85.17202582797536,208.14987462832346 85.12213690867291,208.1764820516012 84.92424419573398,208.2962154577883 84.62158475256719,208.45585999973449 84.32058827337384,208.5689415495322 84.12768445245435,208.67537124363437 84.05617700169537,208.74854165866415 83.57724337734354,209.06117888577072 82.28844629792451,209.3139494097342 80.70364163113335,209.36716425658702 79.39655194800645,209.28734198645645 78.99411466643302,209.28069013006706 78.64489223220805,208.43590443185494 77.95808811107659,208.58889711741176 75.95089059503069,210.0323498459646 74.8566603005046,209.68645333948825 72.9542295149839,209.83279416925043 71.71698431864252,209.78623117848963 60.20594769456296,206.94588871174832 57.32735705643245,205.90819919202195 56.86671603588761,205.6953398032229 56.45762689842041,205.47582855932302 56.24643047369391,205.3427914409519 56.110067427970634,205.30288030558927 55.98201920191634,205.29622845019108 55.444881838593076,204.95033194361562 55.58955970428269,204.8505541047134 55.70929311037066,204.72416884302902 55.79909316493663,204.64434657260108 55.80907094867817,204.58447986935886 55.398318847237526,204.49800574244242 55.07902976443542,204.41153161592246 54.32737004833965,197.56677190152473 54.29078484092389,197.51355705397802 54.04466617295331,197.28074209799325 53.798547504784494,196.94814930330446 53.69710670240442,196.7419417704983 53.61395850373222,196.59560094073612 53.569058476449236,196.34283041687178 53.51418066532559,196.19648958701046 53.43103246665339,196.03019318966608 53.31296202453888,195.79072637788664 53.09345078004428,195.59782255666977 53.18990269050403,195.56456327700266 53.02028036531187,195.30514089764102 52.805758012737606,195.0656740849695 52.44988372232149,194.64660716376073 52.40830962298539,194.60004417260345 52.0940094320045,194.46700705492617 51.862857439794915,194.3339699372489 51.783035168970486,194.2807550897022 51.50199425755759,193.79516960975394 51.53691650099991,193.2962804177208 51.56684985242278,192.83065050476 51.58514245622978,192.69761338708273 51.58015356440857,192.56457626940548 51.616738771626096,192.45814657500594 51.488690545770034,192.44484286321838 51.36895713958295,191.7730054177488 51.87117225976125,190.91491600774913 51.959309350254664,191.1344272522437 52.0441205129003,191.48697561421733 51.90775746697878,192.07233893277046 52.30686882070444,191.76635356195416 52.40332073116418,191.74639799447107 53.06351742852229,191.14773096403127 52.631146795526,191.06125683691658 52.552987488675015,190.6554936274954 52.50808746149115,190.4426342389937 52.88059139154258,190.4758935186608 52.91717659895835,190.37611567995683 52.957087734321,190.34285640098352 53.03025814905341,190.2763378416493 53.1017655999115,190.22977485019462 53.16662119497493,190.14995257996492 53.24478050162767,190.0701303092396 53.745332657634286,189.75749308203393 53.904977199084904,189.6311078201513 54.36561821992711,189.2652557457954 54.75308882564041,188.9792259425613 54.86617037573548,188.8794481038573 54.638344311373665,188.69319613902982 54.811292564611826,188.58011458853827 55.03745566509932,188.41381819119388 55.10064829599107,188.3739070561286 55.39998181121097,188.2475217938495 55.62947083954623,188.16104766732954 55.46317444220184,187.85506229621586 55.13557053943339,187.3162619691174 54.94931857440767,187.01027659770637 54.618388743692336,186.5113874056732 54.52692572515292,186.1322316198271 54.43546270661351,185.91272037562987 54.15275883112805,185.36061633605001 54.051318028847085,185.15440880364034 53.41107689897206,183.8240376248852 53.37449169165542,183.6577412275408 53.44599914241439,183.11894090004589 53.20819529431103,183.07902976438587 52.95376180627499,183.07902976438587 52.972054410081995,182.83291109681176 52.33347624427954,182.75308882608647 51.71485364605929,182.69987397853976 50.00200075341207,182.1344662278662 49.037481648814605,181.94821426264224 48.3091034285453,181.7952215770854 47.8168660924059,181.61562146795347 47.72540307386649,181.54910290891658 47.248132413488094,180.7309246339822 47.32795468411428,180.7109690664991 47.46764365788356,180.68436164322137 47.62562523536074,180.6644060753418 47.791921632705126,180.61784308388712 47.89668836303209,180.57793194882183 48.01974769706694,180.5114133894876 48.114536643652364,180.4715022544223 48.21098855411211,180.4648503983303 48.29579971685687,180.43824297505253 48.408881266852816,180.49145782220276 48.50533317731256,180.4715022544223 48.62839251154565,180.43824297505253 48.72318145793283,180.38502812750585 48.82628522418723,180.33181328065302 48.91275935080632,180.26529472131878 49.044133504906625,180.13890945973353 49.163866910796344,179.98591677417667 49.13892245129381,179.92605007123183 49.01586311725896,179.80631666504473 48.90278156696565,179.6599758354808 48.85954450365611,179.56019799687593 48.88615192723121,179.52028686181063 49.03415572086772,179.4537683024764 49.250341037514545,179.3606423198644 49.4765041378038,179.25421262546487 49.5895856880971,179.16108664344762 49.60621532773242,179.11452365199295 49.64945239104196,179.02139766977746 49.64945239104196,178.92827168716548 49.63282275140664,178.82184199276597 49.55300048058222,178.74201972164417 49.562978264522,178.6821530186993 49.597900507964326,178.60898260426424 49.68271167051084,178.54246404493003 49.82240064428013,178.54911590102205 50.0219563210934,178.54911590102205 50.239804601614544,178.5158566213549 50.34290836796807,178.46264177440295 50.36120097167595,178.40942692695538 50.37783061141039,178.18326382666615 50.38780839535018,178.00366371783156 50.36785282756973,177.66441906734812 50.29800834078421,177.55798937265124 50.22816385389956,177.38504111961132 50.17661197062368,177.16552987531495 50.243130529561434,176.87950007148612 49.63448571528097,176.81963336854125 49.5031115613789,176.7331592420213 49.37173740747683,176.65998882728888 49.19712619026522,176.57351470037244 48.94601863037431,176.46043315027737 48.66165179091541,176.34735160038056 48.383936807350274,176.26087747326588 48.174403346597224,176.17440334704327 47.90334021892587,176.06797365264373 47.59236595589186,175.92163282317892 47.46099180198979,175.84181055235447 47.068532304356154,175.7154252900754 46.815761780293556,175.62229930776078 46.61786906755285,175.549128892731 46.48649491365079,175.5225214691559 46.215431785979426,175.48926218978613 46.03250574880148,175.44269919833147 45.84126489195455,175.4360473429333 45.69492406229149,175.38948435147861 45.31576827634628,175.289706513072 45.01144586930516,175.18992867446713 44.627301191241386,175.0701952685774 44.289719504731394,174.92385443911257 43.967104493784156,174.78416546534328 43.800808096439766,174.7309506177966 43.626196879228154,174.69769133882332 43.42664120241489,174.67773577094374 43.270322589010284,174.63117277948908 42.904470514852626,174.50478751780471 42.65169999079003,174.43826895886696 42.304140520340255,174.35179483224786 42.25258863726262,174.36509854413455 41.991503293332805,174.40500967919982 41.454365930009544,174.43826895886696 40.96711748569136,174.4515726706545 40.56634316809138,174.45822452635005 40.47986904167054,174.4515726706545 40.42665419432209,174.4249652470794 40.38341713101255,174.3917059674123 40.18219849022584,174.20545400218833 39.95603538983747,173.99924646977865 39.90448350675983,174.0192020375591 39.8512686595105,174.01255018156618 39.79971677643286,173.9859427579911 39.68663522613956,173.89281677537912 39.55692403631005,173.80634264876002 39.44384248601675,173.87951306388894 39.398942458932005,173.92607605504622 39.295838692380244,173.99924646977865 38.94827922202958,174.1322835874559 38.77200504074541,174.19880214679014 38.5707863999587,174.25201699334565 38.3812085069861,174.2852762733101 38.29473438046613,174.27197256152257 38.02367125269566,174.01255018156618 37.74429330515708,173.77973522488756 37.57134505191892,173.57352769247788 37.493185745266175,173.45379428658816 37.19884112186748,173.57352769247788 36.28254797249989,174.00589832577154 35.394525210680854,174.43826895886696 34.87900637901236,174.57130607654423 34.504839484987485,174.55800236475667 34.06082810397884,174.47152823813758 33.645087110617865,174.37840225592208 33.588546335520775,174.34514297625498 33.19276090984113,174.11897987596572 32.160060282332466,173.61343882754318 31.298644944187647,173.24758675348463 31.212170817469442,172.98816437392475 31.09576333942749,172.81521612048834 30.77980018437403,172.53583817334626 30.036455288343724,172.7087864260888 29.145106598478673,172.5158826054667 28.313624611756723,172.3894973431876 27.038131244125253,171.77752660135673 27.199438749549312,171.56466721255765 27.154538722365444,171.47819308593856 27.054760883859693,171.38506710372306 26.96828675743885,171.3052448326013 26.85354224307298,171.2387262735644 26.737134765031026,171.18551142671157 26.68724584572859,171.172207714924 25.89068610244896,170.67997037888375 25.63126372259171,170.50702212554646 25.488248820875537,170.3673331514798 25.47161918133934,170.17442933085766 25.486585856902092,170.06134778036613 25.157318990259323,169.81522911249468 24.99767444870959,169.66223642703696 24.78148913216188,169.5491548765454 24.553663067800066,169.58241415621254 24.452222265519108,169.52254745326766 24.3807148145619,169.49594002969255 24.237699912944844,169.39616219098858 23.64734770237226,168.8972729989554 23.34468825910635,168.63119876360085 23.158436294080634,168.49816164562623 22.90067687829595,168.32521339218982 22.7859323640292,168.29860596891209 22.455002533412983,168.2520429774574 21.93782073777105,168.178872562725 21.522079744410075,168.178872562725 21.217757337071603,168.1589169948454 16.95724363710833,166.83519767218232 13.42677112158605,165.63121175501246 10.882436242117763,165.25205596916638 10.88576217016377,165.1722336987384 10.938977017313976,163.74873653737131 10.98387704449784,161.19442387426062 11.003832612377408,160.2764677606222 11.040417819594932,160.02369723675787 11.081991918931031,159.89066011878325 11.093632666844258,159.57802289227138 11.088643774824806,159.02591885269152 11.06037338727626,158.3474295515264 11.033765963701157,158.18113315418202 10.864143638509,157.60242169132442 10.830884358941,157.47603642973917 10.767691728049254,157.1833547701157 10.669576853616064,156.884021255094 10.589754582791636,156.67116186629497 10.558158267395322,156.4649543338853 10.481661924616903,155.89289472702058 10.460043392863012,155.70664276189575 10.371906302369606,155.5603019323318 10.453391536969237,155.42061295866162 10.589754582791636,155.18114614618835 10.711150952952162,154.92837562202664 10.904054773772533,154.71551623382229 11.050395603534717,154.56252354826546 11.24828831627542,154.34966415946639 11.32478465905384,154.16341219463894 11.412921749646367,153.890686102895 11.497732912292005,153.70443413767106 11.58919593083142,153.55144145241158 11.644073741955069,153.45831546950222 11.733873796521038,153.2853672164623 11.888529446150443,152.97938184505125 11.961699860882854,152.83969287157933 12.086422158891146,152.6467890503625 12.443959413280705,152.101336867172 12.690078081251281,151.68226994596327 13.34195995884129,150.63127671464758 13.526548959893564,150.3252913439304 13.631315690220529,150.158994946586 13.169011705603126,150.05921710817938 13.413467409798498,149.51376492469154 13.6529342218753,148.99492016517527 14.045393719707182,148.08361590733153 14.27155681999643,147.7709786808197 14.637408894154088,147.27208948878652 13.90404178186533,147.0392745321079 13.351937742781075,146.85967442297596 12.680100297509739,146.46721492534232 12.19451481726412,146.18783697780373 11.639084850133857,145.96832573330914 11.200062361045548,145.7421626330199 10.614699042492415,145.48274025276615 9.843083758715325,145.14349560228274 9.14630185394145,144.83085837517615 9.099738862585902,144.8042509518984 8.981668420471385,144.48496186869983 8.845305374648985,144.0925023710662 8.828675734914546,143.97276896517647 8.828675734914546,143.8131244235276 8.820360915146447,143.73995400909254 8.763820140049354,143.593613179033 8.703953436906254,143.4738797731433 8.50606072406643,143.1545906899447 8.36637175029714,142.96168686932256 8.249964272156069,142.80204232767372 8.100297514645238,142.6690052096991 7.95229372090961,142.58253108347648 7.7876602876377845,142.4627976772894 7.646308349795933,142.38297540646496 7.603071286486391,142.32310870322274 7.446752673081785,141.97721219704377 7.370256330204245,141.7710046646341 7.4301230332482255,141.69118239380967 7.441763781161454,141.25881176071425 7.433448961294234,140.93952267791215 7.441763781161454,140.70005586543886 7.49165270026565,140.4871964766398 7.548193475362742,140.22777409707993 7.606397214532399,139.90183315808667 8.14852346987511,137.8863208223718 8.585882994791737,136.17014200148031 8.742201608295463,135.57812682713254 8.918475789480516,134.99941536427494 8.965038780836066,134.89298567017278 8.971690636729841,134.83311896693056 9.024905483780925,134.46061503687912 9.084772186824907,134.08811110712503 9.142975925895442,133.68234789770383 9.186212989304105,133.3830143822857 9.227787088640202,133.0637252993845 9.279338971717843,132.6446583778784 9.309272323239833,132.49166569232153 9.365813098336925,132.39188785401402 9.407387197673023,132.2455470245492 9.417364981513686,132.15907289763277 9.424016837605702,131.9794727885008 9.425679801380905,131.81317639115642 9.39740941383236,131.5537540114974 9.382442738269605,131.5005391643472 9.340868638933507,131.4273687496148 9.212820412780086,131.26107235227042 9.093087006692127,131.12138337820377 8.96670174490863,130.95508698085936 9.207831520958875,130.60253861888575 9.39740941383236,130.2965532478712 9.688428109185041,130.0770420029801 10.192306193237664,129.67793064925445 10.31869145512028,129.5515453876692 10.496628600377898,129.0726117631191 10.68953242129739,129.11917475457378 10.789310259604903,128.87305608650408 11.077003027010699,128.58702628297263 11.33808837084139,128.25443348828384 11.625781138346307,127.8885814142253 11.84529238274178,127.00388457995666 11.99828506829862,126.53825466729324 12.184537033324336,126.17905444932673 12.295955619545078,125.98615062870459 12.3308778629874,125.89967650178815 12.337529718881175,125.8331579428504 12.317574151199848,125.24114276820525 12.33586675490773,124.93515739709157 12.36081121460851,124.80212027911693 12.483870548544239,124.6158683144877 12.567018747216434,124.42961634936287 12.683426225357506,124.18349768119405 13.880760286237114,121.95512595697747 14.841953462986808,120.11921373019628 15.048160995693852,119.1679983375846 15.118005482578496,118.8087981192216 15.495498304451141,117.05936001866301 15.889620766157346,115.0904106744028 15.690065089344078,114.77112159150157 14.677320029516743,112.71569812012667 14.486079172570694,112.2899793432224 16.54815449964113,111.90417170098694 18.690052097436872,109.66914812077745 19.809226851663738,108.46516220430142 21.97606890896202,106.12370892959329 25.463304361372998,102.39866962907895 28.310298683908957,99.35211962992797 29.058632471958713,98.54724506688025 27.83801691535177,97.94857803584571 25.44667472153944,96.84436995797458 25.255433864692513,96.75124397506524 25.00266334062992,96.65811799284974 24.73160021295856,96.55834015414574 24.335814787278913,96.39204375680134 23.72883293697189,96.1459250889299 22.563095191587717,95.64703589689672 20.353016070880773,94.69582050428505 19.22552649688581,94.39648698866867 17.42619947771863,93.93085707600525 14.346390198801407,93.13928622494332 12.967793064816414,92.78673786277146 9.651842901868397,91.93530030787258 10.361928518429822,91.37654441289455 13.057593119382384,89.16812825626016 15.14960179797481,87.46525314775097 17.649036650060992,85.40317782028406 18.836392927099936,84.41205129260709 21.1911499134965,82.3832352448073 23.351340115198365,80.54732301822435 24.80809655573698,79.30342596608831 27.107975731009898,77.34778033302092 27.994335528855494,76.6759428878487 28.809187875942126,76.06397214572047 31.152304114524583,74.31453404575662 31.48822283706113,74.0750672335807 31.734341505229946,73.88216341236384 32.10019357938761,73.61608917671194 32.16837510219968,73.46974834685064 34.641202530710764,68.65380467965798 37.147289238690725,63.75803874223561 39.156149718710076,59.8400956204053 38.642293850915905,59.71371035872093 38.20160839785415,59.60728066461876 37.64784139469734,59.467591690948595 37.340193059709335,59.3944212758197 34.398409790587955,58.66936898319992 31.96881942548554,60.08621428887148 29.913395954209754,61.077340816845805 29.412843798302262,60.89108885191921 28.288680152155067,59.80683634103555 27.051434956111045,59.88000675606532 26.876823738800315,59.800184485637374 26.62405321473772,59.64053994369116 26.07693806747468,59.13499889625981 25.998778760722814,59.07513219301759 25.34689688333105,58.68267269538395 25.441685829718228,58.40994660364003 25.343570955185918,58.18378350335078 25.431708045778446,57.81127957290287 25.84412311129165,56.08844889651411 25.531485884284198,56.08179704081857 24.161203570166425,56.08179704081857 23.66896623402703,56.12836003227324 23.416195709964438,56.14166374406079 23.085265879249103,56.14166374406079 22.805887931710526,56.11505632038657 22.468306245101413,56.07514518472655 22.35855062295324,56.03523404966126 22.33360616325246,55.9753673467164 22.345246911165688,55.92880435526173 22.499902560596848,55.54299671302626 22.797573111843306,54.791336997128745 23.278169700168593,53.540788089495415 23.19169557364863,52.95542477084316 22.84247313912629,48.41220719509706 22.65455821012713,46.10401320015517 22.11742084680387,45.66499071136422 19.616323030744248,43.862337763853674 16.418443309712504,41.587403048182416 13.737745384520938,39.66501669517863 13.325330319106852,39.16612750314546 12.631874342279866,39.16612750314546 10.275454391909859,37.15061516713321 9.97279494864395,36.63842226331249 9.493861324292105,35.886762547018485 8.908498005639853,34.94219901020147 8.471138480624107,34.26370970933372 0,28.403424666520934 1.9556456326709062,27.226046173322654 7.9206974054141766,23.56087357605054 12.222785204812666,20.20168634949562 16.669550869801654,17.713892245719148 17.639058866220328,17.121877071074 18.603577970916913,16.536513752421744 22.662873030093472,14.627431110908148 25.082485611454345,13.68286757369465 26.492679060835652,13.130763534808638 33.648413038564755,9.771576308253719 36.729885281455424,7.363604474607831 40.63452469100258,0 41.1450546310481,0.17294825373376752Z"/></svg>