<svg xmlns="http://www.w3.org/2000/svg" width="256" height="256"><path d="M218.42038271159856,0.8447939659210532 218.50906779247393,1.060563853388037 218.5300962135905,1.2068485227832868 218.5931814772672,1.4774751608920225 218.82540838993216,1.9382718697595356 218.9799215719809,2.2637552592184615 219.07134949035293,2.519753430551158 219.21580560138074,2.87815087056952 219.65374533038275,3.18900579287094 219.96368597371844,3.357233162675477 220.3312262055195,3.4559753145172705 220.84687966519226,3.4559753145172705 221.05807815657715,3.5144891823298656 221.08093513617015,3.5364318829571344 221.20619138444883,3.6388311512613325 221.2765908814863,3.785115820820068 221.29121934842584,3.9387147234670996 221.26927664801656,4.092313626659084 221.20527710521063,4.319054864058234 221.15590602928972,4.443396833153187 220.94379325861212,4.728651938255943 220.68870936635415,4.988307226595998 220.54151041777519,5.156534596400535 220.46288240802974,5.3393904331445965 220.44185398674966,5.441789701775767 220.46288240802974,5.610017071416818 220.56802451410306,5.844072542503713 220.72345197533554,6.074470896746736 220.9337361875912,6.3085263676701455 221.2089342219455,6.608409940039397 221.37167591659323,6.809551360566857 221.5554460325755,7.025321247870355 221.87178663014274,7.391032921358479 222.03452832479044,7.625088392445374 222.28138370439493,8.063942400685619 222.3792115771075,8.349197505897365 222.43589688649817,8.55399604310521 222.44869679501576,8.795365747661867 222.46332526206427,9.120849137120793 222.4697252162958,9.292733623387736 222.50812494201207,9.446332526361738 222.5858386725738,9.577988728980948 222.69189505799434,9.66941664735298 223.0731494774967,9.771815915657179 223.48914650608947,9.77913014912694 223.81371561631016,9.782787265807327 224.33028335511216,9.651131063569583 225.4393040049649,9.354904607989708 225.56913164905316,9.329304790954529 226.07107092091562,9.230562638894755 226.5656959593628,9.117192020113436 227.52660338139836,8.8465653820047 228.11997057168733,8.608852793910447 228.68408082804277,8.356511739421624 228.96750737494156,8.191941486406462 229.22076270888658,8.12977050180449 229.80041571141976,8.140741852118126 230.09664216689066,8.118799151490856 230.29504074975796,8.02371411665642 230.56292455053352,7.837201162905 231.78531581916758,6.886350811944868 233.0159356004551,5.935500460875744 233.3450761065944,5.416189884522607 233.78393011483465,5.043163977401235 240.3658259583827,3.2072913764908506 240.79279433718006,3.137806158691593 241.19507717801702,3.123177691588582 247.523717687729,3.3316333455858036 250.76758023162316,6.063499546596588 250.80323711973375,6.326811951617028 250.70083785115708,6.5791530061058525 250.62038128298968,6.740066142440627 250.61855272467673,6.780294426469825 250.61946700380597,7.025321247870355 250.65878100870594,7.208177084614417 250.72735194748498,7.328861936702013 250.93672188055692,7.566574524796265 251.04552110347413,7.789658645569525 251.05557817444057,7.837201162905 251.0884922250545,8.049313933746093 251.09672073770798,8.385768673137187 252.1600274283747,16.52651052525531 252.32551196068258,16.58136727606055 252.35476889450712,16.58136727606055 252.49922500553492,16.654509610649182 252.71773773049858,16.71668059530565 252.92253626759742,16.756908879334848 253.13373475903683,16.82639409746108 253.24710537787263,16.87393661496004 253.37327590522605,16.950736066392544 253.53510332069004,17.082392268793775 253.7892729337643,17.32010485650656 253.98675723750236,17.528560510340295 254.03612831342326,17.64924536280936 254.0425282676548,17.846729666492944 254.02789980076977,18.04055685333266 254.0141856129595,18.135641888385077 253.95750030356882,18.3038692583531 253.94927179091533,18.39895429335102 253.96755737464426,18.515982028976214 254.00687137948972,18.600095713714996 254.17509874929425,18.841465418108168 254.38721151991737,19.046263955425 254.61029564079962,19.207177091596293 254.8251512489194,19.327861944065354 255.01532131918773,19.39369004534771 255.37189020078415,19.45586102962271 255.63337404732815,19.50340354728516 255.83451546785562,19.547288947994744 255.9186291526489,19.591174348867813 255.98994292903356,19.66431668345645 256,19.79597288618465 255.99634288326513,19.93128620510278 255.9780572996452,20.000771423392493 255.90034356897448,20.176313026666794 255.80891565060244,20.282369411814862 255.73760187427226,20.333569046157695 255.61417418447002,20.381111563656656 255.48343226125252,20.41768273100547 255.41668988078644,20.450596781782885 255.37006164241672,20.476196598654578 255.30697637874002,20.53471046663066 254.6852665338102,21.86224384139255 254.83155120325995,22.886236527050308 254.92572195912862,23.57011735636411 253.70790208646767,24.61970985932952 249.3787901514975,30.02127127674912 249.3330761923115,30.087099377867993 249.24621966985805,30.21875558059619 248.72782337268865,35.21071992370909 248.04028542663997,36.329797644419266 247.08486367954325,38.47652516784905 247.06840665429078,38.53138191881777 245.69973071620697,43.26734809054348 242.74569467360666,46.40881136591546 242.3333547618033,47.17680587996804 242.21998414296746,47.38526153396526 242.17335590465223,47.56080313740305 241.83507260662122,48.833479761141724 241.90364354540026,49.71118777729524 243.41860415287928,52.358940293621735 245.00122141984465,54.458125299171094 235.60608852804373,59.446432525767094 231.90965778820802,61.74310183516352 230.16521310566966,66.53392475774896 226.69826644100226,74.17729873375976 225.32684766542178,77.34070470943203 225.3049049650125,77.3845901103051 225.21164848821854,77.3845901103051 225.17324876250228,77.39190434377485 225.09462075275684,77.41018992755825 225.05804958535353,77.4248183943343 225.02422125555586,77.43944686111034 224.95107892085824,77.46870379515288 224.85142248988723,77.49796072892293 224.80662280983043,77.50161784593028 224.77096592171984,77.50161784593028 224.73165191676537,77.48698937893627 224.69599502860027,77.46870379515288 224.5497103592595,77.36996164331107 224.47382518701073,77.33339047596226 224.4308540653214,77.33704759258815 224.24434111184243,77.35899029321543 224.00022856978913,77.43944686111034 223.76251598202182,77.57476018051892 223.60983135839504,77.65155963189693 222.97440732565494,78.08309940672191 221.62035985461964,79.00469282391198 221.3835615459816,79.16194884340288 220.80573710192485,79.24240541146128 220.23339833291593,79.44354683198874 219.36940450430023,79.76903022144766 218.72575195896113,80.098170727369 217.17879158010638,80.9502789268143 216.3202834265385,81.47690373641923 215.55594602900283,82.06935664752449 215.12897765020543,82.42043985423656 214.57035306889784,82.8812365628861 213.42567553088,83.80648709659307 212.76008028518612,84.43551117521064 212.2416839880167,85.18887722265066 211.5120891993534,85.73378761587549 210.50272498052618,86.13607045693041 210.13244191111943,86.28966935957745 210.08215655606932,86.29332647642131 208.9201077135608,86.8601795704369 208.17497017877426,87.27709087821336 207.32011914205026,87.82200127165616 206.33086906521038,88.50588210113345 205.63418832721553,88.33399761432156 204.44288255082796,88.40348283244779 203.1583202977009,88.9630216929936 201.7210734208926,89.59570288791008 200.78576581594672,89.80050142528141 198.66463810977007,90.798894293904 196.6760808851784,92.0496282170154 196.09185648672664,92.31294062219932 193.9524431968756,93.2747623234186 192.26742666122456,94.49989642960381 191.40617567016002,95.07772087360605 188.73373761620007,96.88067942379352 184.79868000946783,101.41916129183564 181.22384840106693,105.37616159908613 175.14206327095943,110.45589674389068 166.71332347624187,107.98002871437608 162.4253541046481,106.13684187977795 160.588567224554,106.13684187977795 159.49143220408965,106.13684187977795 157.11339204717862,106.84266540982802 154.0423282690621,106.74026614119684 151.07549231788968,106.79146577553968 148.23116977739028,106.75855172498024 144.7258233870066,105.6541024709916 144.14068470937113,105.47124663424755 142.90549353221948,105.10553496075941 142.83692259344045,105.08724937703052 140.7002521410316,105.27741944724434 140.49728216230017,105.2664480969307 138.34141184708767,105.16770594508891 136.30622638407178,104.88976507329244 134.54898179296134,105.08724937703052 134.01504274966868,105.35421889862235 132.95630745492056,105.86621524150573 132.00911422058633,106.21729844821782 131.92591481492227,106.27581231586692 131.76043028261438,106.34529753361169 131.66443096832376,106.38918293448475 131.27494803611341,106.5318104873631 131.1579203005427,106.5939814716381 131.04729251931255,106.65980957308395 130.86260812425553,106.89752216085122 130.6358668866384,107.14254898187029 130.53163905974878,107.19374861621313 130.202498553555,107.30346211820506 129.88981507272263,107.44608967108341 129.11999200003012,107.75328747675894 129.02764980252888,107.97271448068834 128.87679373716054,108.23602688570877 128.6783951542932,108.51031064082487 128.48273940903158,108.76630881215756 128.4159970285655,108.90527924802855 128.35656888167816,109.01133563350359 128.2852551052935,109.15030606942908 127.96525739099138,109.72081627990707 127.81622988409947,110.21452703933402 127.58674580898567,110.65703816420016 127.19086292243477,111.42868979542358 127.07840658278268,111.69200220006256 126.94766465956516,112.09794215757988 126.89555074603862,112.23325547698846 126.78766580241411,112.60993850079022 126.70446639664107,112.82936550455612 126.58652438194115,113.20604852852138 126.50698209295749,113.49130363373312 126.44389682933527,113.65953100337417 126.25646959661812,114.07644231120513 126.12847051095177,114.57015307063207 126.02332840476944,114.75666602383855 125.95201462843926,115.01266419533472 125.82950121782073,115.62705980706725 125.75544460404838,115.87940086155608 125.36687595096724,116.48648223943738 125.25899100723376,116.64008114262936 125.21419132723146,116.86316526340262 125.17122020559661,117.08259226749549 125.03224976961663,117.55801744281207 124.90882207986887,117.9785858674869 124.78722294843408,118.13218477013393 124.2569410218763,118.67343804689635 123.75774458751052,119.21469132382227 123.44597538591638,119.57308876384063 123.07294947895849,120.01559988892474 122.34518324871712,120.81285133701986 121.71158777434445,121.56256026772502 121.87524374823039,121.82952978937135 122.272040913965,122.52438196899878 122.83340833282377,123.4606038529649 123.0912350626329,123.8921436275719 123.32894765034568,124.27614088484341 123.61877415158503,124.7844801110464 123.64985964383152,125.05510674931863 123.68277369449994,125.36230455499415 123.69283076546637,125.45373247336619 123.70471639490923,125.57441732583524 123.79980143001615,126.51795344327113 123.84185827246728,126.77029449814141 123.89122934838817,127.12503482131591 123.88025799818352,127.3005764245902 123.87751516057787,127.49074649480403 123.84185827246728,127.80525853394931 123.75774458751052,128.36479739433165 123.71934486179426,128.65005249992487 123.05100677849471,129.12182055856107 122.53992471484955,129.49484646551895 121.956614595636,129.89712930657387 121.3038192584052,130.3432975479569 120.93993614333901,130.68706652119923 120.40508282080813,131.22466268111776 119.69194505750629,131.90854351075856 119.06383525829044,132.52659623889897 118.84897965011616,132.70945207564304 118.40738280437925,133.10076356605737 118.17332733340135,133.3092192198911 117.85881529414706,133.58350297500718 116.78545153245942,134.27104092143733 116.37128306228861,134.7281805132975 116.18385582957146,134.94029328381163 115.88762937410057,135.26211955642665 115.86751523200422,135.41937557591757 115.83277262302285,135.45228962680397 115.79528717649032,135.4888607940438 115.76328740506011,135.5254319613926 115.72945907526245,135.55834601217003 115.69197362872993,135.59491717919187 115.67003092832064,135.6095456462949 115.64534539036019,135.62051699644502 115.6051171062765,135.64977393054207 115.53380333000081,135.6863450975639 115.45517532014637,135.71194491481705 115.40306140667431,135.73023049860046 115.37654731034642,135.7412018489141 115.21197705727677,135.7850872494057 115.18272012345221,135.78874436641306 115.15346318957316,135.79240148303893 115.12420625563962,135.79240148303893 115.096777880128,135.79605859971932 115.07026378380012,135.81068706665886 114.99437861155133,135.83994400075588 114.90660780991418,135.84725823406217 114.87826515527334,135.84725823406217 114.84717966297237,135.85457246753194 114.82066556664446,135.8618867008382 114.76123741981164,135.9313719191279 114.73289476500732,135.97160020315712 114.6688952222014,136.04474253758227 114.62958121724692,136.10325640539486 114.60306712091904,136.16177027320745 114.47506803525269,136.19834144077424 114.44763965974109,136.20199855723666 114.42203984259692,136.2093127907064 114.29038364008669,136.205655674244 114.1111849200775,136.1727416235211 114.08192798625295,136.16908450667722 114.05632816910878,136.16177027320745 114.02889979359718,136.15811315652707 114.00055713884736,136.1507989228938 113.85244391108466,136.18005585699086 113.82318697726011,136.18371297378022 113.76467310944751,136.1946843237669 113.49496075025002,136.28245512562202 113.43644688249192,136.29342647560867 113.40627566942915,136.29342647560867 113.32033342621394,136.31902629269837 113.2910764922804,136.3263405261681 113.23164834533857,136.33365475963788 113.20056285309208,136.33731187664523 113.17313447758048,136.34462610995152 112.94547896083411,136.48725366266638 112.8686795094016,136.5238248300152 112.841251133999,136.53113906348494 112.81290847919466,136.5384532970092 112.78456582449934,136.5421104136351 112.75805172817145,136.54942464726835 112.73153763184357,136.560395997255 112.57793872903304,136.7578803009386 112.47005378529956,136.8529653361545 112.27622659840534,136.9882786553451 112.16102742120209,137.08336369039753 111.98640009711151,137.2771908774552 111.86662952404414,137.8733009050229 111.86754380322786,138.23535546183064 110.65246676806358,139.5263176691892 110.6222955550008,139.55557460328623 110.51075349458692,139.63237405466424 110.34069756641495,139.7201448564104 110.31784058682194,139.73477332318643 110.09932786191278,139.8993435761471 109.92287197950927,140.01637131177228 109.69613074189213,140.16631309779342 109.6723594831154,140.18094156489644 109.6321311990317,140.21019849882998 109.59738859005033,140.2467696660153 109.56721737698756,140.2833408334186 109.55807458515037,140.35282605154484 109.50961778841318,140.3601402850146 109.42367554519797,140.43328261943975 109.36516167738537,140.52471053781179 109.19602002839711,140.7112234915632 108.94550753205775,141.27076235172757 108.78368011659376,141.79373004487007 108.60722423408124,142.34961178857202 108.6099670716324,142.67143806140507 108.24791251487916,142.6056099602862 107.14072042339386,142.30938350470632 106.87466518098574,142.2362411697907 106.19078435150846,142.08995650061343 104.20405568533872,141.68767365955853 102.64978107301418,141.75350176084086 99.38946150386757,141.86321526283282 97.83975828740714,141.8851579632421 97.23450546778429,141.98755723176427 96.86422239848656,142.14481325141867 96.33668330937094,142.4081256565481 96.09805644247444,142.55806744256924 95.77714444898861,142.68972364518845 95.43886115101209,142.75189462946346 94.78880865133246,143.0152070344294 94.1515560603339,143.2456053888904 93.66881665127508,143.2858336729196 93.13030621211831,143.16880593729442 92.74082327979896,142.93109334952712 92.68505224964652,142.8798937154023 92.66310954918274,142.86160813161888 92.60642423979208,142.81406561411993 92.49762501698386,142.71532346206016 92.292826479885,142.57635302618917 92.18311297772958,142.50686780844438 92.11271348063761,142.48126799119123 91.92802908547161,142.43372547347428 91.85031535490988,142.4081256565481 91.63545974668111,142.31669773817606 91.52666052387289,142.26549810388772 91.30083356543948,142.18504153544788 91.2386625809465,142.17041306850834 91.14083470828842,142.1594417183582 91.11249205359309,142.1594417183582 91.05672102338615,142.16309883520208 90.84003685689893,142.12287055117287 90.64255255321534,142.1009278507091 90.37284019407235,142.0168141658068 90.00712852058422,141.8851579632421 89.44850393922212,141.69133077656588 88.77833729755514,141.4207041379122 88.62290983637718,141.36950450373283 85.82978693005713,141.43167548822584 84.46202527121154,141.51944628975397 83.29174791604954,141.5157891731281 82.70478068010111,141.32561910307774 79.41063278115683,140.59053863909415 79.0494925035873,140.51008207103575 78.00172855904383,140.1297419307716 77.56744594677669,139.97980014458696 76.90276498021201,139.74940179028943 76.53522474835646,139.61774558756125 75.48746080381298,139.24471968060334 74.50461068131364,138.93386475841092 73.73021621270254,138.65958100329482 73.20359140287964,138.42918264872483 72.40085427957321,138.01227134122084 71.60268855223987,137.60267426691414 71.18669152359263,137.35033321204386 70.82372268765567,137.09067792386728 70.16909879211192,136.69936643312602 70.06304240685486,136.62622409853736 69.6772165912704,136.3848543939807 69.16339169001958,135.94600038590394 68.43105406385962,135.41571845945518 68.22625552670627,135.24017685618085 68.16865593813189,135.18166298836826 67.98031442634,135.0170927354076 67.7014592753053,134.77938014731336 67.4399754287068,134.61846701119657 66.9133506189384,134.4356111744525 66.49278219437255,134.32589767246054 66.33095477890856,134.282012271424 65.34993321472217,134.13207048523938 64.4374825894238,134.00407139984551 63.317490589366415,133.68590224385633 62.3849258219172,133.1665916675032 61.25670530926083,132.4827108380804 60.13031335486291,131.74031614079053 58.98929293363446,131.03814972769334 58.02655695312248,130.46763951688837 57.61878843729221,130.2226126958148 56.56188170080254,129.6374740182338 55.524174827279985,129.02673552350865 55.00669280929429,128.68662366727366 54.54772465912119,128.3867400949044 54.3410975635459,128.22216984178027 54.27252662476688,128.18559867459496 54.36029742645852,127.75771601645036 54.46269669498071,127.17623445549525 54.54589610069925,126.69349504654542 54.62269555213176,126.28755508902809 54.722351983211766,125.79384432976464 54.79915143464427,125.42081842280675 54.845779672959516,125.27087663662212 54.99663573832786,125.00756423181966 55.248976793034664,124.55408175674889 55.4976607309521,124.11888486535251 55.68325940530182,123.78243012557995 55.695145034635686,123.5776315884266 55.689659359533366,123.33626188386994 55.807601374233286,122.53535331909444 55.78657295300771,121.92827194121314 55.77925871953795,121.5296462170021 55.83228691219373,121.04690680788877 55.85971528770534,120.70313783502792 55.88348654648207,120.32279769460027 55.847829658316975,119.99731430514134 55.77925871953795,119.68280226599606 55.698802151479555,119.35731887653714 55.68783080116592,119.04280683739184 55.57537446156832,118.47595374337625 55.45834672610662,117.92738623314406 55.29469075222068,117.36053313912848 54.90063642398273,116.36579738751327 54.7369804500968,116.43893972210189 54.404182827222606,116.5961957415928 53.97904300679266,116.77173734503059 52.26842665405196,117.49218934152971 52.13951328920189,117.51413204210249 51.76374454463835,117.60190284368514 50.5687816515159,118.1358418871413 49.78341583270016,118.18338440447677 48.59851001059863,118.16509882085685 48.09657073873618,118.12121341998379 46.971093063630974,118.13218477013393 46.523096263553526,118.14315612061105 46.498410725647574,118.13218477013393 46.472810908448906,118.12487053666418 46.18389868639329,118.05538531886491 45.935214748421366,117.98955721774604 45.696587881470364,117.883500832271 45.673730901877356,117.86887236549497 45.44881822268216,117.71527346262995 45.24310540634509,117.54704609287991 45.05293533613126,117.43367547388061 45.02367840230671,117.42636124041084 44.94139327571739,117.40441854016504 44.80790851489422,117.40441854016504 44.78048013943711,117.40076142315769 44.751223205503564,117.40076142315769 44.576595881412985,117.41173277363481 44.5500817850851,117.41904700694108 44.523567688757204,117.43001835725471 44.44036828309315,117.45561817450788 44.407454232533716,117.46293240797763 44.2127127663468,117.52876050909651 44.18345583241325,117.52876050909651 44.15237034016676,117.52876050909651 44.12402768547143,117.52510339225263 43.82597267157861,117.48487510805995 43.77020164142616,117.47390375790981 43.71717344877039,117.45561817450788 43.69431646917738,117.44098970751385 43.61660273850666,117.40807565662745 43.35146177528226,117.312990621793 43.08632081194887,117.21790558641362 43.06072099480471,117.20693423626348 42.9884929392908,117.17036306907815 42.80197998581186,117.11184920126556 42.5697530731469,117.09356361748216 42.47741087559115,117.08990650101975 42.44815394176659,117.08990650101975 42.42072556620049,117.09356361748216 42.22506982088434,117.16670595239776 42.118099156389064,117.11550631789144 41.69113077764618,116.93630759782776 40.356283169360026,116.74248041093355 37.99744287536163,116.34385468704949 36.256655309558155,116.37311162081954 35.752887479328265,116.36945450397567 34.54238184008257,116.2999692862309 33.72593052902033,116.44991107241553 32.79793715754422,116.2999692862309 31.841601131372773,116.50476782322077 31.234519753382486,116.83390832930559 30.78835151178147,117.18864865286154 30.449153934621233,117.45196105750051 30.036814022763373,117.87984371559061 29.896929307654165,118.04807108523167 29.00642138265609,118.80509424946108 28.392025771250534,119.2878336584109 28.18448439649153,119.49628931224464 28.061056706689286,119.63525974844259 27.92848622504984,119.78154441783785 27.635002607075624,120.13262762416846 27.153177477309512,120.69582360155816 27.04712109199796,120.83845115427303 27.249176791600146,120.99570717376393 27.401861415335933,121.16393454351397 27.380832994001377,121.90632924064036 27.38723294828742,122.06724237713863 27.347004664203723,122.20621281284613 27.27294805032238,122.40369711652971 27.22083413685032,122.53535331909444 27.008721366281705,122.80232284057728 26.814894179333,123.05832101207346 26.56438168293914,123.70563067436542 26.391582917270494,123.95065749538449 25.955471746581413,124.52482482270635 25.811015635553602,124.74425182701721 25.792730051879197,124.77716587774012 25.284390825730704,125.43910400642666 24.136970450216207,126.03521403448478 24.04737109015712,126.15955600325276 23.8078299440224,125.98401439997846 23.451261062425974,125.74264469558528 23.194348611746072,125.64755966042388 23.07549231786243,125.59270290961864 22.946578952957868,125.5232176914924 22.71435204029291,125.31841915450255 22.447382518646577,125.17213448478033 22.16212741332584,125.0404782823791 21.857672445201473,124.9380790140204 21.679388004376012,124.87590802941843 20.96076456591735,124.61990985808573 20.201912843538484,124.30905493540284 19.82065842387262,124.13717044913591 19.668888079320553,124.07499946431595 19.216319883379,123.91774344482505 18.825922671984923,123.72757337461123 18.36695452170283,123.43866115271909 18.09907072098177,123.25580531597502 17.5916457739625,122.9303219265161 16.97725016244796,122.43661116708915 16.32994050037398,121.92827194121314 15.808801365707897,121.57353161771168 15.22914836322922,121.22976264463284 14.742751837490014,120.82747980395939 14.479439432578564,120.54588181537353 14.125613388478804,120.09605645698313 13.662988121461831,119.70840208303123 13.417961300224787,119.62063128133958 13.17659159577712,119.58771723061666 12.799908572084354,119.52920336296756 12.658195298607705,119.4816608454686 11.949628931224463,119.29149077541825 11.66163098829807,119.15983457279904 11.345290390730844,119.0098927868324 10.829636931167082,118.761208848588 10.360611709918564,118.58201012852433 9.243362547357847,118.30772637340823 8.40039713996772,118.07367090248482 8.268740937511996,118.02978550161176 8.10051356770746,117.94567181692746 7.695487889319361,117.72624481261661 7.178005871333665,117.53973185935564 6.442011128547806,117.32396197188866 5.835844029686744,117.11550631789144 5.1483060834745755,116.88145084702253 4.638138298958642,116.70956636053761 4.143513260620449,116.3621402705059 4.050256783826482,116.30362640269331 2.2628409797077693,115.36009028542092 2.0863850972497495,115.22477696601233 0,114.40923993413382 0.6738237584018691,113.94112899212351 0.9737073306076358,113.73998757181404 1.4143898971608257,113.32307626398308 1.5423889829361646,113.21336276182765 2.935750458871423,112.25154106077187 3.2840908278688614,111.96262883866176 3.335290462157199,111.83462975294091 3.380090142159494,111.77977300191769 3.7330019071300296,111.49086077969858 5.011164205916529,110.75578031609645 5.815729887590402,110.36081170851129 6.093670759441377,110.2620695566695 6.165898814955281,110.22915550611006 6.277440875423655,110.15967028814731 6.550810351301532,109.99510003502317 6.833322619125604,109.79395861465919 6.917436304027873,109.72813051337684 7.097549303166279,109.6330454785424 7.906686380758753,109.31487632238975 7.879258005247144,108.90527924802855 7.8600581423890175,108.75168034538153 7.781430132589071,108.43716830623623 7.728401939987788,108.27625516973796 7.6644023971273665,107.94345754680928 7.606802808552986,107.7203734261995 7.573888757884561,107.61065992388059 7.492517910587948,107.33271905208412 7.461432418286962,107.1388918652444 7.372747337466092,106.76220884144264 7.388290083589337,106.66346668960085 7.349890357873084,106.11124206285176 7.376404454200973,105.9320433426246 7.414804179917226,105.62118842026868 7.412975621604281,105.43467546689872 7.402918550528862,105.25181963015467 7.385547246092671,104.61182420155045 7.476060885226487,104.42531124779903 7.5912600624297415,104.271712345152 7.777773015908685,104.02302840728906 8.109656359599159,103.67194520057699 8.351940343230545,103.40497567876716 8.722223412637272,102.94052185360073 9.07513517755331,102.6150384641418 9.269876643685738,102.37732587659251 9.77638731146679,101.88727223400943 10.128384797253604,101.49961785989403 10.324040542515256,101.3277333734636 10.435582602929134,101.23996257188095 10.38346868951157,101.21436275484578 10.207012806999055,101.14122042003916 9.86781522983882,101.01322133431832 9.591702916409782,100.98396440054826 9.381418704099614,100.91447918264001 7.998114299130784,100.41345418974329 7.863715259123899,100.34031185515467 7.6388025799287025,100.20865565275344 7.472403768491605,99.93071478062998 7.374575895888028,99.79174434492248 7.258462439501053,99.68203084276705 7.089320790567291,99.55768887383559 6.816865593764143,99.44431825521775 6.549896072117812,99.37117592024765 6.350583210175775,99.35289033684572 6.182355840316743,99.37849015371741 6.065328104746047,99.44066113821039 5.975728744741457,99.52111770659576 5.785558674582127,99.70031642655044 5.620074142274256,99.85025821273507 5.402475696548822,99.99288576544994 5.106249241023441,100.09162791729173 4.907850658156134,100.0769994502977 4.713109192023707,100.01117134885186 4.679280862226056,99.94534324756951 4.582367268806198,99.71860201033384 4.4287683658866905,99.42968978822373 4.451625345479698,99.0091213636034 4.447968228744817,98.84455111064273 4.489110792012231,98.37644016830545 4.568653080995898,97.69621645583553 4.494596467169049,97.42924693402571 4.327283376548231,97.08913507779074 3.8838579723893853,96.62102413561695 3.5666030956384374,96.30285497979128 3.4011185634395567,96.18582724438407 3.194491467864271,96.08708509232429 3.3398618581302957,95.85302962145538 3.5839744001836187,95.55680316571201 3.6424882678872232,95.39589002959522 3.5757458874756405,95.27154806066376 3.429461218080391,95.0886922239197 2.944893250817617,94.49989642960381 2.835179748662189,94.31704059285975 2.658723866258664,93.8050442497039 2.426496953593705,93.40276140913944 2.3615831315495632,93.29304790703851 2.2838694008788414,93.18333440504657 2.206155670262615,93.05167820264533 2.17507017807062,92.80665138108132 2.2143841829160977,92.34585467275876 2.372554481754207,92.02402840008921 2.57369590211818,91.8119156294661 2.9631788344375276,91.58517439168548 3.3499189290967237,91.40597567194878 3.924086256473079,91.153634616915 4.906936378972413,90.92689337962484 5.346704666341883,90.89397932873842 5.708759223095126,90.91957914599159 6.076299455059681,90.95249319655102 6.717209162738629,90.9780930136407 7.037206877040738,90.92323626283546 7.283147977515997,90.81352276068003 7.495260748084614,90.67820944143493 7.582117270538043,90.55021035587757 7.604059970947331,90.35638316881987 7.610459925287868,89.95775744477231 7.657088163657604,89.76027314125221 7.775030178357524,89.48598938613613 7.9450861064750065,89.3360475999515 8.371140206088672,89.06907807830517 8.554910322070949,89.01056421049257 9.127249091079864,88.85696530746407 9.38233298333783,88.73993757216586 9.540503282066949,88.59365290249812 9.653873900848268,88.35594031494882 9.686787951516694,88.08165655983274 9.641073992330679,87.93902900711787 9.5880457996749,87.8549153222156 9.42256126736703,87.70497353603098 9.14553467475427,87.3831472635794 8.937079020866038,86.86749380390665 8.884050828155766,86.67732373369283 8.899593574279011,86.62246698250613 8.984621538365,86.58223869831345 9.506674952269298,86.50178213041853 9.677645159624996,86.48349654663514 9.910786351473675,86.49081077994141 10.745523246264813,86.65903814990943 11.000607138522781,86.688295083625 11.473289476506181,86.69195220063236 12.13157048873031,86.53469618097797 12.732251912434554,86.38841151141924 13.080592281486489,86.31892629367447 13.268019514149152,86.22018414183268 13.358533153282968,86.11412775630313 13.440818279817796,85.98978578753515 13.46641809701646,85.8471582346568 13.464589538594524,85.72281626588882 13.385047249610857,85.52167484541586 13.372247341038772,85.4009899929468 13.467332376145684,85.29493360779873 13.58436011171638,85.2071628060526 13.673959471666475,85.17424875565663 13.887900800657027,85.11573488768056 14.055213891277845,85.1084206542108 14.152127484806693,85.11207777105467 14.407211377064659,85.16693452218688 14.755551746007603,85.17790587217354 15.327890515016517,85.0462496699358 16.18091299342757,84.73905186409678 17.21953414613384,84.25996957193632 17.48924650538583,84.11734201927597 17.51301776410806,84.08808508517893 17.396904307830077,84.07711373519227 16.359197434253026,83.95277176609731 12.106884950769862,83.63094549331878 12.01362847403039,79.97748587544488 11.84722966264779,73.48976078749308 12.044713966331376,73.10210641375916 12.1580845850582,72.8205084251733 12.213855615265139,72.34508324952975 12.269626645526573,72.17319876309932 12.439682573644054,72.06348526110739 12.723109120651847,71.97937157604163 13.090649352452916,71.91354347492276 13.17659159577712,71.8696580738862 13.289047935320223,71.8477153736404 13.374075899460708,71.67583088699199 13.429846929613152,71.41617559903341 13.373161620222492,71.07240662579107 13.358533153282968,70.74692323633215 13.385047249610857,70.31538346156167 13.270762351645818,69.86190098670887 13.242419696950488,69.43036121193839 31.22537696159978,59.139234719928076 29.928014799846164,55.017664159880404 29.585160105951047,54.432525482081424 29.069506646387286,53.32076199484101 28.59956714590055,52.128541938997245 29.637274019477598,51.42637552611803 30.685037964021074,50.64375254479895 32.12959907424467,49.652673909482644 32.40662566696642,49.45884672258843 32.46513953467002,49.46250383926882 34.352211769868745,49.61244562545345 34.976664452349716,49.66730237658565 36.11677059450344,49.87575803058288 37.3300190712458,49.95987171532166 38.175727316187086,49.90135784750907 38.33298333578698,49.86844379694963 38.39058292436136,49.87575803058288 38.47012521334503,49.86478668032374 38.71515203463657,49.820901279450666 38.94280755132843,49.798958579204864 39.16863450976184,49.80261569566727 39.37617588441186,49.82821551275694 39.624859822383776,49.861129563479864 39.80040142571257,49.879415147263266 39.998800008579884,49.94890036517151 40.24016971302755,50.0476425170678 40.491596488550634,50.18295583609492 40.62142413263892,50.25244105405766 42.95466460954765,49.32719052035069 44.59579574427111,48.69450932521624 45.94344326107485,49.00902136441602 45.99921429133628,49.01999271434819 48.41016849880674,49.61975985892321 49.652673909482644,50.139070435439834 49.73221619846631,50.18295583609492 49.88124370541272,50.23049835381186 54.05584245827966,51.55803172851926 54.30178355864593,51.638488296577655 55.628402654224104,52.15779887309428 56.58016728447694,52.530824780052164 56.9833644044976,52.66979521575967 57.24850536783099,52.76488025113906 58.1536417596596,53.19642002574606 58.66015242744065,53.335390461617045 59.37420446998071,53.49996071457771 60.378083013651114,53.660873851075976 60.95773601612979,53.78155870332706 61.58950293208053,53.73401618566461 61.837272590868736,53.68281655132178 63.902629266892916,53.368304512176486 65.1625059820595,53.090363640597985 66.82557981730125,52.582024414395 68.14488467935516,52.223626974376636 71.65571674489564,51.23254833906033 74.00907136373723,50.943636117168204 74.43146834661601,50.89243648266188 74.92060770996088,50.8302654981689 78.027328376188,49.919643431128975 84.90819351286706,50.46455382468078 85.95961457414542,49.9525574818519 89.44027542656865,48.284912250909535 89.50976064453138,48.24102684987298 90.95249319644203,47.31211919937663 91.85488675077399,46.69040935455581 94.14058471007476,46.67943800424217 96.32662623840451,46.672123770772416 101.60110284923249,46.56972450208675 106.39832572626746,48.884679395484554 106.46781094423021,48.93953614628979 106.63512403485102,49.041935414975455 106.91489346501494,49.15530603359329 107.78711580628412,49.5429604074907 109.0917922015075,50.09884215119265 110.19715573462535,50.54866750958305 110.65155248887986,50.59986714392588 113.04056399594103,51.25814815615001 114.05449961068685,48.79325147711253 114.29769787355646,46.24424111262782 114.5024964107098,45.51281776565157 114.8444368254757,45.11784915844788 115.77060163858437,45.03007835686523 117.56441739704361,44.85453675359093 118.35984028688029,44.7631088352189 119.06657809584159,44.686309383840886 119.41126134815865,44.36814022768824 120.33194048611051,42.37866872407633 121.88072942338721,39.0104642113052 122.9202648552772,36.71379490169078 123.28597652876532,36.5565388820364 123.33626188386994,36.5565388820364 124.42151127494596,36.54556753172276 125.41533274764993,36.53093906494672 126.65783815832583,36.44682537988097 127.74034471179618,36.333454761263134 128.00822851262623,36.318826294269115 128.30628352651905,36.29688359369634 128.52936764734682,36.22374125927119 128.546738951892,36.198141442018034 128.58513867760826,36.099399290176244 128.58148156087336,36.02259983858025 128.569595931485,35.99700002149058 128.5375961600003,35.94214327068534 128.46262526698973,35.89460075313188 128.43153977468873,35.88362940287274 128.39862572412932,35.87631516940298 128.3666259526446,35.87265805255911 128.33279762284695,35.86168670240896 128.26879808004102,35.843401118843545 128.23862686697825,35.82877265168604 128.18468439513876,35.79585860129009 128.1371418775308,35.75197320047151 128.10057071018198,35.71540203290472 128.07862800982718,35.69345933265892 128.061256705282,35.66420239856189 128.01005707104818,35.58008871365962 127.99908572084352,35.550831779944055 127.95977171594356,35.47768944535542 127.93965757384721,35.452089628265746 127.83725830527054,35.32409054232692 127.79245862532274,35.258262441044565 127.67085949388793,35.122949121799465 127.65165963102982,35.09734930470979 127.61417418449727,35.03517832043479 127.60868850934045,35.00592138633776 127.60777423015674,34.976664452622195 127.6059456718438,34.57072449510487 127.5794315755159,34.548781794477605 127.57211734204614,34.32204055707845 127.5520031999498,34.17941300436359 127.54103184979965,34.15015607059353 127.48983221545681,34.05141391858825 127.48068942367411,34.025814101335094 127.47703230693924,33.97461446731923 127.48708937790566,33.77347304684626 127.507203520002,33.751530346219 127.53280333709168,33.72593052912932 127.77051592491345,33.56867450947494 127.82902979261705,33.53941757575937 127.85737244736688,33.51747487545907 127.93782901553426,33.451646774013234 127.95611459920868,33.42238984029767 128.04571395915877,33.23587688687322 128.04571395915877,33.20296283598681 128.03382832977042,33.074963750592936 128.02285697956577,33.04570681649591 128.00548567512956,33.02010699924275 127.98354297472028,32.990850065527184 127.82354411756923,32.81165134540901 127.73577331593208,32.70559496009746 127.66537381873111,32.573938757696226 127.60228855510891,32.4239969715116 127.52640338286012,32.21188420099748 127.5209177077033,32.160684566872625 127.5209177077033,32.113142049155684 127.5254891036764,32.039999714403564 127.52000342851959,31.99977143021088 127.51817487020665,31.970514496658804 127.50537496158006,31.922971978778374 127.48617509872194,31.904686395158464 127.31154777463136,31.71451632494464 127.16434882610689,31.491432204171378 127.07383518686407,31.3890329356492 126.89555074603862,31.217148449055287 126.75749458929685,31.023321262161076 126.65875243745505,30.814865608381837 126.52801051423755,30.62469553795003 126.3634402611134,30.423554117804038 126.15955600314376,30.248012514366252 125.95567174517414,30.06515667762219 125.88710080639511,29.973728759250157 125.86972950201341,29.9261862416967 125.87430089782303,29.88961507434789 125.87155806027187,29.68847365382043 125.86150098930544,29.618988435857688 125.84321540557654,29.571445918358727 125.73898757868692,29.362990264361507 125.68138799005804,29.180134427617443 125.67773087332316,29.059449575529847 125.67315947740457,29.03019264175979 125.65853101046504,29.00093570788074 125.48664652392561,28.814422754129318 125.28001942840483,28.635224034392614 125.09167791661294,28.470653781268464 124.98470725211766,28.349968928799402 124.97465018104225,28.295112177994163 124.97190734349108,28.057399590063397 124.96093599328644,27.867229519849573 125.05876386594451,27.834315469290136 125.18950578921651,27.55271748070428 127.08663509543616,26.258098156719807 127.36366168810342,26.166670238347773 128.00914279180995,25.917986300321356 129.13370618784043,25.490103642176763 130.93209334221828,24.934221898474814 132.1846558239151,24.71479489449093 133.33390475779706,24.513653474181453 134.54806751377762,24.378340154772864 135.3169763073409,24.316169170279885 135.8975435889488,24.221084135281963 136.2751408918253,24.071142349097336 136.33274048039968,24.02359983176186 136.38119727713683,23.983371547514682 136.40131141917868,23.961428846941907 136.4826822665843,23.851715344949966 136.49548217510187,23.8224584112344 136.5018821294424,23.789544360674967 136.51559631714372,23.57011735636411 136.51559631714372,23.445775387432644 136.50828208372846,23.34703323559085 136.5055392461773,23.142234698600987 136.49548217510187,23.112977764503956 136.46348240372618,22.96303597831933 136.47445375393082,22.728980507559406 136.4781108706657,22.491267919519647 136.48633938331918,22.264526682229487 136.47993942897864,22.143841829978406 136.38211155632055,21.98658581032402 136.18919864861007,21.847615374235044 135.95514317752318,21.73058763899132 135.76405882812563,21.63184548709503 135.70188784368716,21.606245669841872 135.43766115953747,21.525789101619992 135.19263433830045,21.42338983309781 135.16977735870742,21.4087613659948 135.14783465829814,21.39047578237489 135.07652088202246,21.306362097690602 135.05000678569456,21.207619945630828 135.06189241508292,21.138134727886065 135.0957207448806,21.07230662660371 135.11400632855498,21.050363926139923 135.13777758733173,21.032078342574508 135.32886193667477,20.90773637364304 135.40108999229767,20.849222505830447 135.44223255551057,20.808994221746755 135.5190320069431,20.757794587458417 135.65617388450113,20.688309369332185 135.74394468619278,20.65173820192888 135.96428596941487,20.505453532588124 136.08588510084968,20.37014021334302 136.13982757268917,20.209227077226227 136.1142277554905,19.971514489295462 136.1014278469729,19.945914672042303 135.9697716444627,19.74111613505244 135.8289726501698,19.525346247748942 135.8079442289987,19.466832379936346 135.78874436614058,19.411975628913126 135.75125891960803,19.324204827221482 135.71925914812334,19.18523439135049 135.73663045261404,18.98775008783039 135.7485160820024,18.96215027057723 135.76588738654758,18.9328933364802 135.86005814241628,18.790265784092306 135.9112577767591,18.709809215706937 135.93594331466505,18.684209398617263 136.06759951717527,18.578153013469194 136.15719887712535,18.519639145656598 136.36108313520398,18.420896993814804 136.51193920040885,18.369697359471974 136.5512532053633,18.36238312600221 136.69662359552035,18.33312619223215 136.86759380293054,18.259983857316545 137.0504496396746,18.088099370886116 137.07056378166195,18.04055685333266 137.0733066192676,18.011299919290124 137.06050671064102,17.850386783118836 137.04313540615036,17.824786965865677 137.0221069849248,17.795530031986626 136.84473682333754,17.6017028452559 136.69205219965625,17.41153277487859 136.55856743883308,17.195762887411608 136.46713952046105,16.994621467047633 136.46713952046105,16.96536453333207 136.4735394746926,16.837365447393246 136.48816794163213,16.815422747147444 136.5411961342879,16.749594646028573 136.58416725592275,16.727651945401302 136.85387961512023,16.61793844362734 137.045878243756,16.500910708002152 137.06416382737592,16.47896800753837 137.21501989268975,16.28879793716106 137.22873408050006,16.263198120071387 137.24153398901765,16.237598303145198 137.30096213601396,16.014514182044966 137.37776158744649,15.795087178279063 137.42713266336736,15.69634502643727 137.44267540949062,15.67440232581 137.5176463025012,15.590288641071218 137.58804579964766,15.524460539625375 137.6977593017486,15.422061271321176 137.84952964624617,15.224576967583094 137.89341504701025,15.140463282680825 137.89890072216704,15.111206348638289 137.90072928048,15.081949414704743 137.91170063068463,14.972235912930783 137.923586260073,14.946636095677624 137.94004328537997,14.92103627858795 138.01227134089388,14.844236826991958 138.17227019804494,14.723551974904364 138.20335569029143,14.708923507746857 138.25821244142364,14.672352340561531 138.31581202988903,14.639438290002095 138.44655395316101,14.569953071875865 138.4767251662238,14.569953071875865 138.5050678209736,14.569953071875865 138.5361533132201,14.566295955195478 138.562667409548,14.558981721725717 138.61386704378185,14.548010371630063 138.6796951450642,14.518753437533032 138.69889500792232,14.493153620606845 138.73089477929804,14.357840301416239 138.75466603807476,14.295669316759772 139.07283519406394,14.533381904472558 139.39009007076038,14.690637924344927 139.72197341445087,14.811322776269037 140.02551410350048,14.862522410775355 140.29248362520133,14.858865294094969 140.47716802020383,14.793037192649125 140.78802294266873,14.701609274277095 140.98550724640683,14.628466939524975 141.19670573779172,14.59189577244864 141.4024185541288,14.6028671224353 141.97750016068886,14.639438290002095 142.21704130682357,14.727209091366769 142.7674373754777,15.155091749674845 143.24743394693087,15.473260905446027 143.79143006118997,15.71097349321331 144.05108534942102,15.773144477815281 144.29885500820922,15.758516010712269 144.56125313388247,15.623202691467169 145.291762201675,15.089263648392487 145.56696023597482,14.880807994558753 145.96924307681175,14.646752523471857 146.51323919117982,14.412697052221477 146.99963571691902,14.281040849983732 147.74203041404542,14.153041764044907 148.36282597979152,14.068928079142639 148.86385097257923,14.017728444963293 149.35116177744766,13.970185927300847 149.626359811693,13.98115727761448 150.0725280533485,13.995785744390519 150.32669766653174,14.02504267848755 150.91366490237118,14.138413297105384 151.2025771244813,14.178641581134581 151.51343204689172,14.266412383044209 152.29696930734002,14.566295955195478 152.9177648730861,14.877150877551394 153.444389682909,15.056349597778556 153.7826729808855,15.169720216450884 154.09992785763646,15.220919850793717 154.48118227724783,15.301376418852113 154.98312154911028,15.451318204873255 155.12392054340322,15.50983207268585 155.31500489280077,15.645145392094436 155.50517496301458,15.956000314559342 155.5472318054657,16.42411125640616 155.5472318054657,16.58136727606055 155.61123134832613,16.727651945401302 155.82242983982002,17.107992086046934 156.03362833120494,17.517589160353634 156.3655116748954,17.967414518744025 156.52459625291723,18.13198477170469 156.65076678021614,18.311183491659378 156.9058506724741,18.384325826248013 157.16002028560285,18.336783308912537 157.38584724392726,18.26729809078631 157.46996092882952,18.322154841973013 157.58333154766535,18.497696445192815 157.6537310447573,18.684209398617263 157.66744523256762,18.914607752860288 157.66744523256762,19.51803201427918 157.6391025778178,19.759401718835836 157.6391025778178,19.86180098730352 157.69578788720844,19.95688602235594 157.83658688150138,20.000771423392493 158.10538496156965,20.000771423392493 158.34492610770437,19.989800072915372 158.54241041138795,19.96785737266957 158.7828658367064,19.86180098730352 159.1924629109586,19.561917414934268 159.44663252414185,19.258376725939126 159.67245948241177,18.87437946883109 159.85622959833955,18.739066149585987 160.1954271754998,18.676895165147503 160.47702516408563,18.63300976427443 160.81622274124587,18.63300976427443 161.3666188099545,18.6549524649017 161.71313062053,18.750037499736138 161.93895757885443,18.85243676858529 162.3759830287272,19.262033842946483 162.53141048995968,19.459518146466582 162.99769287360255,19.697230734179367 163.4639752572999,19.843515403738106 163.87265805247736,19.916657738326737 164.35265462393053,19.93860043857254 164.84727966232322,19.905686388013105 165.4680752280693,19.646031099836534 165.863043835382,19.426604095907148 166.44178255867695,19.042606838635628 167.04977821590543,18.640323997744193 167.50143213260878,18.30752637497899 168.05274248039214,17.839415433023184 168.4202827122477,17.254276755224204 168.52816765598118,17.133591903136608 169.13799187157713,16.954393183018436 174.623666973899,15.326976235941787 174.94000757135723,15.275776601598954 175.70983064404973,15.213605617323955 176.28765508821547,15.25017678450928 179.40260426709608,15.875543746173975 179.74180184425632,15.948686080926095 180.32968335944295,15.985257248329402 180.64968107374509,15.937714730775946 186.67020949848882,12.858422439896948 190.91703630686968,13.030306926654347 193.38924721975837,10.61295276462537 194.8932364769238,9.362218841513965 195.52957478879313,9.022106985279 195.76545881819297,8.937993300376732 196.1357418875997,8.828279798221303 196.43196834312508,8.824622681540918 196.81962271696798,8.824622681540918 196.86259383865735,8.842908264997343 197.10213498479206,9.040392568680929 197.6168741652266,9.534103327944393 197.89207219958092,9.826672666843884 197.96978593008814,9.940043285461716 197.99081435136821,10.06804237140054 197.9624716966184,10.196041457121384 197.84910107789156,10.38986864385211 197.59493146487182,10.64586681534829 197.34076185168857,10.817751301942204 197.05002107132,11.06643524002312 196.97230734064928,11.161520274857555 196.99333576187485,11.238319726453547 197.07927800519906,11.322433411355815 197.28956221745474,11.432146913511245 197.4952750337918,11.563803115912474 197.71378775864645,11.691802201469832 197.92590052932405,11.849058221287706 198.32726909092278,12.068485225108104 199.5341176134336,12.434196898596229 199.7636016885474,12.529281933975618 199.8129727644683,12.525624816968259 199.85320104860648,12.529281933975618 199.9263433833586,12.547567517541033 200.05525674820868,12.606081385190143 200.08817079876812,12.620709852347648 200.55811029925485,12.766994521524916 200.82782265845233,12.880365140306235 200.969535931929,12.931564774649068 201.0070213784615,12.938879008282317 201.08473510902326,12.949850358268979 201.1240491139232,12.957164591738742 201.1953628902534,12.968135942052376 201.41296133597885,13.055906743580534 201.81707273518322,13.26436239741427 201.98164298825287,13.352133199323896 202.1087277948445,13.406989950129134 202.22209841362582,13.46550381794173 202.31626916949452,13.472818051411492 202.62620981283018,13.498417868501166 202.81363704549284,13.531331919060602 202.92700766427416,13.542303269537722 203.22323411974506,13.542303269537722 203.51488917946082,13.527674802380215 203.66483096548197,13.524017685754325 203.81934414758518,13.524017685754325 204.125627674077,13.520360568910453 204.41179705858147,13.498417868501166 204.73545188961845,13.483789401725126 205.04630681219234,13.480132284881254 206.63806687099492,11.768601652902337 209.87735801886149,5.427161234672756 212.3861400990445,2.7464946681682902 212.2453411047516,2.4100399283957303 213.06636381167792,0.9874215184724311 213.47870372353577,0.2047985373168355 213.5289890786949,0.14262755287834963 213.68624509834927,0.4900536425830772 213.96327169096205,0.753366047549022 214.19367004520507,0.8411368492951624 214.41949700358398,0.8850222501682327 214.60326711956625,0.8850222501682327 214.97080735136734,0.7277662302958627 215.550460353846,0.3547403233379759 215.93171477345737,0.18651295375141985 216.32759766000828,0.02194270057277332 216.6805094250333,0 217.13216334168214,0 217.38724723394012,0.032914050722921764 217.6304454968097,0.08777080169164514 217.87730087641418,0.21576988746698395 218.04644252540245,0.4059399576808086 218.3006121384767,0.6911950631105362 218.42038271159856,0.8447939659210532Z"/></svg>