<svg xmlns="http://www.w3.org/2000/svg" width="256" height="256"><path d="M103.42945875430365,0 104.29963554089893,0.34970998028430367 105.30778384328397,0.3059962324332508 105.9990074759473,0.9999519746426113 106.2981734356554,1.2349133674285753 106.75716778459027,1.3988399205672521 110.79385915763523,2.229401123793363 111.27607643502436,2.3933276766877705 112.38258066934146,2.9670706131209674 113.47405830278387,3.5517419864355046 114.55050933559586,4.152806014909205 116.11327580962748,4.972438781009706 116.40834360550508,5.092651586623023 116.58866281396577,5.109044242026457 116.76624991336897,5.032545183857077 116.9547654495721,4.950581907002757 117.30447542969354,4.666442548087916 117.62959642691341,4.404160062935756 117.9916008986078,4.201983980549542 118.22792834616678,4.180127106786863 118.47108606677659,4.169198669905523 118.98608865489116,4.22930507267147 119.93959477270666,4.338589441566293 120.55158723814311,4.4150885000613656 120.47918634372282,4.584479271803559 121.26739985378947,4.9560461256062736 121.86436571843267,5.240185484521113 121.84660700850048,5.278435013524381 122.48318845683855,5.557110153835705 122.28784264766601,5.8029999840729705 122.35614537817439,6.010640284737008 122.57198200658085,6.578919002322419 122.63755262778747,6.595311657807275 122.71268563134669,6.873986798362869 122.77142597966531,7.1526619387556165 122.78645258029573,7.551549884924526 122.77005992497372,8.469538583038512 122.89983511293963,8.819248563322814 123.1197699051766,9.070602611512212 126.06908180852824,11.147005618641122 126.87642008313723,12.070458535358622 127.85314912948841,13.135981131126428 127.90232709537302,13.786223125810428 127.84631885635616,13.900971712738805 127.97472798987475,15.398167565645233 128.61540760188046,16.715044209928127 130.27106578940348,17.67128243704538 130.34346668374235,18.190383188746186 130.8543711080264,18.758661906820134 131.38303424216124,19.693043259930437 131.63712039957096,19.89521934231665 131.61799563502862,20.135644953868976 131.60433508900837,20.381534783617703 131.59477270681862,20.62742461352928 131.59204059743544,20.87331444295231 131.59477270681862,21.119204272863886 131.60433508900837,21.36509410301973 131.5824782152457,21.45798581626685 132.41303941822753,20.72578054529849 132.45811922036307,20.703923671780082 132.77367783523033,20.4744264967834 133.06737957649776,20.22307244875685 133.4785620141582,20.05368167685181 133.86652152336433,19.900683560594473 134.21623150356723,19.693043259930437 134.27497185188585,19.64386529380156 134.32551587246203,19.59468732791695 134.40884520360083,19.578294672920634 143.88926419832615,17.698603529411574 146.15691485104134,14.452857775165052 146.89595039514197,14.726068697198553 147.2907401774804,14.873602595096644 147.43007774771746,14.92278056122552 147.3877300548837,15.163206172859269 147.37953372714125,15.370846473279038 147.3781676726125,15.889947225468381 147.32898970656507,17.201359651229183 147.34265025274817,17.469106354414897 147.33308787039556,17.60024759739809 147.31532916054482,17.676746655567474 147.30986494210416,17.791495242577273 147.3112309966329,18.02645663536324 147.32625759742615,18.124812567376722 147.35631079876842,18.190383188746186 147.39729243707345,18.255953810115646 147.49291625978518,18.3652381787662 147.51750524276818,18.436273018413488 147.45330067609032,18.53462895042697 147.29757045061262,18.64937753768104 147.23063377463302,19.2121920372329 147.1595989349043,19.6547937306829 147.12134940590104,19.988111055970887 147.07353749446375,20.130180735346883 146.99840449090453,20.29410728872983 146.97654761714185,20.381534783617703 146.95469074337916,20.64381726868844 146.9820118355825,20.71485210841715 147.05304667539266,20.824136477067704 147.08719804064685,20.89517131671499 147.10632280510777,20.993527248728473 147.13774206122304,21.676554553812224 147.29620439592105,22.365046077499493 148.0680252506657,23.48521085799969 149.89853842837155,25.151797482241196 152.55278253584558,25.293867161617193 153.51038681757302,26.02607243258555 152.8218952940486,26.424960378754463 153.0363658678449,26.534244747649286 154.284939781538,27.162629868570605 154.55678464896133,27.250057363702748 154.7152469839036,27.71451593067116 154.82589740716432,28.22815246433841 156.2903079493453,28.96582195382886 157.033441657195,29.741740972404003 161.51956499698508,34.47921836062775 161.1958100543754,36.01466374229317 161.44989621186653,36.26601779080826 161.88703368728298,36.82883228979016 161.96763090912,36.938116658929246 162.58372153830555,37.3424688234574 162.60011419362758,37.539180686995834 163.1793213483386,38.36427767194412 163.88147341796468,39.298659024973 164.32407511165894,40.10189913615861 164.6792493103025,40.77946222239457 164.8745951196379,41.14556485816373 164.93743363170557,42.194694798446676 165.0166647990953,42.62090383722605 165.03032534511556,42.948756943666254 165.09589596648502,43.691890651597376 165.10682440336635,43.741068617481986 165.15873447855273,44.04706484991524 165.2775812296373,44.52245185457922 165.49614996718267,44.99237464039542 165.81853885526363,45.587974450347026 166.19147176375793,46.26007331854943 166.4824413957236,46.81742359949777 166.69417986029958,46.83928047301618 167.15727237322778,46.99227858976206 167.52337500867125,46.83381625498263 167.81844280446742,46.735460322887725 168.1476619655992,46.93763640502967 168.17908122155166,47.01959968188399 168.22825918751766,47.29281060391749 168.45229214358514,47.56055730734747 168.6517361166696,47.79005448209988 169.00691031539458,48.11244337001799 168.9891516054624,48.95939722840326 168.98641949616064,49.30910720819903 169.94402377788805,49.30910720819903 170.61612264609047,49.314571427046815 170.59426577240922,50.04677669801517 170.56284651629394,50.22709590631301 170.52596304190084,50.5166994835871 170.4508300382602,51.21611944439998 170.43170527371785,51.363653342298065 171.59694985627215,51.407367089823424 171.79912593849554,51.42922396366753 171.91250847113943,51.44015240054887 172.0450157684071,51.456545055463764 172.21713864928822,51.456545055463764 173.97251882327203,51.45108083718594 175.1937716448432,51.505723021592644 176.7865913202985,51.53850833231808 176.87675092448814,51.82264769123292 176.96964263806095,51.95925315224967 177.76058825734793,52.314427350567534 179.22499879936606,52.59856670972664 181.67433471539638,53.008383092776896 181.9475456374299,53.095810587664765 182.50216380923933,52.07400173950374 183.42834883485148,50.45112886270618 184.41737237261273,48.66979365096633 186.1249406353221,49.54406860122926 186.61535424037226,49.79542264950008 186.69458540776196,49.79542264950008 186.73420099145682,49.81727952326276 186.82299454119914,49.87738592627298 187.1890971766426,50.074097790381366 187.62486859736745,50.238024343194354 188.0223904889262,50.396486678299475 188.41854632579336,50.582270105200834 188.7942113435894,50.80630306134972 189.15348370606347,51.046728672413515 189.48953314016467,51.248904754799725 189.86246604882183,51.51118723995189 189.89115319571675,50.06863357153358 189.7367890246864,49.39653470333117 189.7244945331949,49.057753160172474 189.728592696944,48.718971616850936 189.82694862895747,48.38019007344797 190.03595498423167,48.0578011852856 190.34468332621094,47.83376822938097 190.73400889002727,47.69169855000498 191.1547537101217,47.56602152595099 191.55090954690743,47.39116653593097 191.60281962217522,47.358381224961256 191.64789942431074,47.31466747768017 191.68478289870384,47.27095373007339 191.83231679660193,46.94856484191101 191.88559292639846,46.58792642498963 191.88559292639846,46.54421267746427 191.9347708923645,46.43492830881372 192.03859104273724,46.12346785753268 192.0563497526694,45.77375787724838 191.98258280372036,45.52240382897756 191.75308562921222,45.22733603318138 191.48260681639906,44.932268237629465 191.26950229721294,44.63173622322977 191.20939589436557,44.27656202458622 191.21349405819606,44.21099140329818 191.23261882281983,44.16181343741357 191.26403807877224,44.11809968956252 191.30365366246713,44.07985016055925 191.35283162851456,44.04706484991524 191.40474170370092,44.02520797639682 191.4621159974094,44.00335110255272 191.52085634548374,43.986958447393555 191.99624334990347,43.965101573630875 192.11782221012695,43.93778048126468 192.17246439461508,43.921387825779824 192.35551571237752,43.79024658361086 192.42518449741465,43.70828330651227 192.45523769883832,43.65910534062766 192.477094572601,43.60992737474306 192.50168355566544,43.36950176367927 192.49758539183495,43.03072022027631 192.47299640877048,42.69193867662907 192.41835422452664,42.353157133470376 192.32546251095383,42.030768245308 192.19432126837776,41.7193077945155 192.175196503754,41.681058265267964 192.10552771863544,41.57723811497666 191.91428007321198,41.276706100576966 191.7203003185682,40.98163830502505 191.52905267322618,40.68110629038109 191.33643897319257,40.38057427622566 191.14245921854877,40.08550648042948 190.96623817383716,39.85054508764352 191.00858586667093,39.82322399527732 191.34053713702306,39.62651213149462 191.65336364267,39.451657141230335 192.59457526915682,38.599239064974356 192.54539730310938,38.2823143950898 192.43201477046549,38.03642456517823 192.6382890166822,37.50093115799257 192.56452206773315,37.380718352460676 193.17241636917626,36.823368071756605 196.48236668977495,33.41915998297492 198.00551757994887,32.90005923127411 199.7882188462989,32.260745673471455 200.5299864995384,32.02032006232624 200.784072657111,31.78535866905174 202.13100250265472,31.4629697813779 202.48481064668812,31.3045074463542 202.92058206733154,31.27172213595445 203.33449661429373,31.17336620394097 204.26614585834653,30.87283418978554 205.8330104962901,29.943917054790216 206.44773507086546,29.77999050165154 206.74280286666163,29.703491443156466 207.59658699801633,29.381102555238357 208.4886206583743,29.3920309921197 211.08822258152304,29.11335585172695 213.08539442166935,28.998607264554305 213.1482329338185,29.014999919957738 213.9951867920409,29.200783346614823 214.25063900414224,28.725396342520803 215.26015336097458,29.04778523043891 217.77642595290314,29.23903287586236 218.31055330556006,29.288210841991237 218.664361449512,29.44667317685209 218.87883202338972,29.648849258912612 219.19029247442649,30.080522515806965 219.43481624964647,30.282698597867487 220.77901398613272,31.113259800849328 220.96752952233584,30.9547974660699 222.22566581830012,30.430232495765576 221.19019642379314,29.692563006519396 221.2011248606745,29.495851142736697 220.84185249820044,29.124284288689715 220.93474421177325,29.064177885598074 219.17116770988414,27.080666591716284 219.29547867957223,26.85663363556739 219.5113153078973,26.616208024503603 219.6151354581886,26.40310350523605 219.81184732213413,26.2664980442193 220.62601586979397,25.944109156301195 220.7626213308107,25.75286151055205 220.84868277125128,25.7200762001523 221.14511662165762,25.616256049535302 220.71480941937344,25.1736543560853 220.666997508099,25.108083734471567 221.27762391876243,24.8731223416856 221.69290452025336,24.5234123614013 222.94147843394646,24.08627488647339 223.13682424328184,23.955133643815888 223.40320489226448,23.572638353131833 223.55073879008117,23.0644660380681 224.44823666896121,22.70929183918028 224.91815945494025,22.168334213716797 225.65582894434928,21.632840806531135 226.04515450832844,21.518092219032795 226.1011627473453,21.223024423480883 226.03286001683693,20.807743822071387 226.03969028988777,20.397927439021135 225.9372361941252,20.152037608865292 225.90991510184043,20.048217458492562 225.61074914221376,20.004503710967203 225.62987390683753,19.878826686831793 225.718667456417,19.59468732791695 225.8907903373795,19.397975464378526 226.97953586176445,18.895267367836883 227.12433765027936,18.86794627547069 227.2445504559741,18.895267367836883 227.4549228659399,18.769590343701474 228.047790566834,18.359773960651225 228.6406582676467,17.97727866947863 228.74994263637868,17.867994300583806 230.60231268776582,17.108467937493522 230.5531347218812,17.015576224327827 230.27719169054595,17.059289971364645 230.11736330115633,16.971862476476772 231.43423994543923,16.15222971037627 233.19918250177565,14.999279619232054 233.58850806559195,14.971958527110127 233.95734281041862,15.010208056113393 234.1554207288929,14.452857775165052 234.04886846938126,14.256145911626625 234.46824723462126,14.108612013728536 235.01876724243735,14.032112955477732 236.28100170223212,14.021184518596392 236.84518225623128,13.72611672304448 237.83693790321288,13.387335179641518 238.1306396443989,13.092267383845337 242.23426769334208,12.748021622083126 242.17006312674565,12.28902727265973 242.07990352247458,11.966638384741623 242.01433290110512,11.682499025826782 241.99520813656278,11.540429346776477 242.02526133798645,11.343717482668088 242.20694660113872,10.96668641034328 242.29983831463014,10.95575797346194 242.3421860075453,10.933901099617838 242.53753181679926,10.742653454194388 242.5798795097959,10.720796580675977 242.62359325723983,10.720796580675977 242.66730700476518,10.72626079870953 242.71238680690072,10.731725017557316 242.81347484813452,10.753581891075727 243.07165916937475,10.808224075482428 243.163184828256,10.824616730723015 243.29979028927275,10.84100938620787 243.3940480574557,10.835545167848624 243.5566085559842,10.813688293841674 243.63037550493328,10.797295638601087 245.98545365286205,10.207160047008728 246.37614527145138,10.376550818425228 247.29959818800603,10.759046109353552 249.26398471726404,10.84100938620787 249.4005901782808,10.655225959306513 249.79811206992096,10.119732551876584 251.3253611240068,10.655225959306513 252.64770198664894,11.551357783657819 253.78289336769814,11.955709947860283 255.53007721426522,13.228872844862087 256,13.698795630678285 255.5423717055939,16.52926078302677 255.47816713899743,19.78047075481831 255.54920197864473,22.45793779115373 255.49592584901103,27.517804066888463 255.51368455878037,30.397447185121557 255.26779472903164,30.878298408063365 254.56017844088345,31.916499911790666 253.38946964005132,33.34812514324621 252.02478108441258,35.096675044423456 250.77210900688897,36.610263552489045 249.4306433797045,37.95446128889387 249.71341668400916,38.391598763984625 249.67243504578556,38.42984829323216 249.64784606272113,38.46809782199116 249.60549836980593,38.58284640924523 248.76947294838342,37.7358925510228 248.7284913100784,37.768677861992515 244.77239715919615,41.2111354792075 244.52787338381333,41.35866937710559 244.08663774472922,41.51713171221071 242.34765022614883,41.757557323274504 242.07990352247458,41.81766372628472 241.9610567713086,42.03623246391152 241.84494212952578,42.17830214320609 241.73702381532254,42.28212229357882 241.57309726210244,42.39687088107716 241.27256524778417,42.517083686609055 240.93788186829312,42.577190089375 240.62778747186653,42.64276071074447 240.3586747135821,42.73018820563234 239.85596661704045,42.932364288262825 239.44751628860038,43.17825411793012 239.19889434963133,43.40228707407902 239.0131109225671,43.60992737474306 238.6866238708185,43.894066733902164 238.34784232741555,44.20006296666111 237.9011424699722,44.615343567744915 237.62929760246743,44.894018708381935 237.36974722653562,45.26012134406967 237.0965363045021,45.66993772711992 236.79190612651618,46.1453247310511 236.50230254907925,46.598854861870976 236.37662552502525,46.964957497151595 236.22635951782541,47.33652435119858 235.9791036333851,47.92119572426885 235.73457985816512,48.511331316105476 235.53513588508065,48.95393300988117 235.31929925667419,49.51128329058524 235.10892684670839,50.28720230932323 234.99827642336626,50.86640946411567 234.84664436155623,51.500258803314814 234.67998569919723,52.079465957781565 234.55157656576006,52.48928234083182 234.29475829904857,53.02477574801748 234.03794003233708,53.625839776816875 233.79888047555775,54.08483412575173 233.5297677174362,54.62032753293739 233.21830726623656,55.14489250291602 233.06530914989781,55.516459357207275 231.90416273125544,58.37970982003693 229.74852855641112,64.33024370200799 228.27592168673198,68.38469378465945 227.52322559644827,69.45568059903077 226.59021029770386,70.92009114121176 226.32519570333136,71.32444330590276 225.74325643948143,72.61399885814515 225.071157571279,74.3352276666305 224.64358247821517,75.70674649540153 224.30753304411397,76.19306193637689 222.9360142155058,78.22575119646898 217.26825363800225,85.17623705283837 214.87765807020912,88.11598657408169 216.34616677613917,88.93561934018219 216.3147475200239,88.99572574327382 216.07158979941408,89.38368525247998 215.5716138121742,89.65143195599138 215.64947892487234,89.74978788800486 215.7642275121264,89.86453647525893 215.76149540290606,90.03392724667543 215.58664041280463,90.49838581445808 213.68236028631256,91.49287357025291 213.2260980465166,91.39451763848369 212.42149188104653,91.24151952230778 212.1947268157587,91.11037827932458 212.1291561945521,91.12677093480944 212.00211311580654,91.15409202717564 211.0076253596046,91.37266076447675 210.73578049209982,91.42183873060561 210.35055309203258,91.48194513337157 210.07051189694826,91.52565888122263 209.7672477736539,91.58030106562931 209.55687536352528,91.65680012339158 209.42300201172887,91.74969183712724 209.2440488577969,91.84804776914072 209.0186498471193,91.91908260854375 208.81374165559416,91.99011744867957 208.58287842655727,92.07208072528962 208.01459970864616,92.25786415219098 206.06660583462872,91.33987545407699 206.0133297047508,91.30162592507372 203.26209571987343,89.37275681535436 203.2170159177379,89.33450728610683 202.27717034594266,88.60230201513848 202.13100250265472,88.48755342788441 201.92609431112962,88.39466171447444 201.7047934642825,88.32909109310498 201.61053569626233,88.31269843819008 201.38240457636437,88.27991312722037 201.2676559891103,88.25805625345768 201.08870283509694,88.22527094305794 200.80319742157192,88.19794985069174 200.52452228109775,88.14877188480713 200.24311503148468,88.05041595303791 199.84286103062416,87.94659580217665 194.3048756410051,86.68436134287042 187.92540061160432,85.26912876657404 183.1920213872925,82.53701954623904 182.372388621192,81.53160335323717 182.41610236879876,81.17096493607153 181.6237906948202,80.16554874306968 181.1251807621905,80.05626437409343 180.75907812658417,79.18745364186405 180.69623961451646,79.17106098694916 180.45308189398807,79.11095458385752 180.17304069890375,79.10549036533543 179.57197667034862,79.25302426323351 179.25505200078976,79.62459111703623 179.00369795251893,79.70109017528704 178.55699809507558,79.5535562776332 178.30427799211316,79.56994893311807 177.8575781346698,79.37323706900968 177.59802775865657,79.29673801108457 176.97647291103036,78.88145740918652 176.55436203657,78.75031616701756 176.8781169791797,79.00167021520696 177.05023986014226,79.13281145770162 177.20733614014867,79.26395270011486 177.4300030416874,79.49891409290082 177.7660524757886,79.8267671996667 185.15640791671336,86.87560898780532 185.08947124081516,87.37831708459123 184.8613401209172,90.19785380005838 184.26847242010447,90.54209956149491 184.1345990683895,90.61313440163073 184.00209177112183,90.69509767824077 183.85865603705423,90.8153104835284 183.40649196117022,91.20326999306025 184.47474666623978,91.84258355078148 184.78620711735797,92.02836697743857 184.75068969757504,92.95728411275958 184.5635402160635,97.80951008799313 186.44049925035225,100.26840838629462 188.9881910982332,103.43765508180181 189.20402772663968,103.44858351868315 189.22861670962268,103.57972476109639 189.2655001840972,103.65075960074367 189.325606587026,103.73818709612009 189.50319368634777,103.88025677525181 189.82421651965572,104.12614660516338 189.97994674521482,104.24089519241745 190.21764024738394,104.4048217458004 190.34878148996003,104.51410611445095 190.54549335390558,104.72174641511499 190.8350969312611,105.03867108499955 190.70668779782392,105.09877748776549 190.55778784531566,105.14249123504658 190.34741543534986,105.17527654601629 190.09059716863837,105.24084716730434 189.76684222602867,105.33920309907354 189.52914872385952,105.45395168608336 189.15621581536521,105.56323605497818 188.88983516630114,105.65612776846956 188.71224806706078,105.73262682696463 188.54968756836942,105.81459010324899 188.2477894995224,105.95665978286927 188.28603902876995,105.9949093121168 188.34751148614606,106.0440872780014 188.4704564009797,106.10965789904517 188.60979397129822,106.18615695754025 188.7272746676912,106.322762418557 188.77645263365724,106.41565413204839 188.88300489333173,106.57411646658355 189.04693144655184,106.69979349071896 189.19173323514815,106.79268520412893 189.39527537214454,106.85825582549839 189.52641661472063,106.86372004410191 189.61247805507975,106.869184262624 189.7832348813507,106.82547051509864 190.00726783741817,106.7598998934849 190.31872828853633,106.67247239835277 190.90886388021013,106.53586693733601 191.37332244758565,106.43204678720755 191.44162517809403,106.44297522417031 191.49353525328038,106.51947428209543 191.51812423634485,106.6178302144346 191.55910587456844,106.7107219276003 191.63287282368034,106.79814942248817 191.76947828469707,106.85279160722057 191.89515530866964,106.88011269950533 192.0112699505339,106.869184262624 192.23120474277084,106.85279160722057 192.35141754846558,106.9839328496338 192.41152395139437,107.10414565540997 192.48392484565184,107.23528689814889 192.55086152155005,107.31178595639969 192.64648534426178,107.38828501432481 192.78445685988868,107.47571250921267 192.90466966558344,107.59046109646675 192.97980266922406,107.67788859159889 193.0453732904307,107.7762445233681 193.08498887412554,107.87460045538158 193.1806126969187,108.06584810088646 193.0699622734137,108.08770497464914 192.9729723960918,108.08770497464914 192.83773298976664,108.09863341177476 192.73664494861424,108.12049028561886 192.6492174534821,108.15873981429642 192.571352340784,108.26802418351694 192.50441566480436,108.5303066686691 192.51534410168568,108.6723763477194 192.52627253864844,108.73248275048536 192.55086152155005,108.85815977462076 192.5590578492925,108.96744414351559 192.59730737829574,109.20786975490508 192.65194956270244,109.3226183424034 192.67927065498722,109.38818896344718 192.72708256626166,109.50293755070125 192.76123393151585,109.5903650458334 192.80494767912262,109.8471833126263 192.81587611600398,109.95646768160255 192.80904584295314,110.10400157950065 192.81177795209203,110.2624639140358 192.81587611600398,110.47556843330335 192.80494767912262,110.68867295257091 192.80358162451245,110.82527841358765 192.80767978826154,110.9127059087198 192.82407244358353,111.0602398066179 192.85412564500723,111.19138104878685 192.8773485734615,111.29520119940386 192.8978393925326,111.42087822353926 192.90057150183435,111.51923415555275 192.91833021176652,111.6285185242033 192.96614212304095,111.74326711170164 193.00985587064775,111.83615882486734 193.04264118129177,111.92358632024376 193.0672301643562,112.0328706888943 193.11094391180015,112.1749403682703 193.15875582307459,112.28968895576864 193.2557457003965,112.47547238267 193.50983185796906,112.90168142120511 193.3855208884438,113.16942812439082 193.22569249905422,113.43717482830935 193.05903383653236,113.74317106082403 192.50031750097384,114.48084055031447 191.86100394341545,115.27861644240802 191.53315083697527,115.6010053305704 192.47299640877048,116.33321060153875 191.26267202424353,116.48074449943685 191.36102795609415,116.81952604283981 191.23398487743,116.86323979069087 190.85831985963392,116.9670599407379 190.33648699846853,117.03263056210737 190.14797146226542,117.05995165447356 191.13153078166744,117.81401379896033 189.43215884653765,118.46425579364433 189.50455974087652,119.46967198689046 188.9417452414875,119.6062774479072 187.67814472708255,119.92320211697754 187.7314208568791,121.60618139702959 187.70000160084524,122.01053356147632 187.68360894552325,122.39849307100816 187.70546581944876,122.73181039556334 187.72868874765877,122.9012011672241 187.7491795668927,122.9777002254749 187.78469698675704,123.0487350651222 187.83114284342133,123.10337724961032 187.87758870016702,123.16348365237627 187.88441897321786,123.21266161826087 187.8871510825196,123.34380286124407 187.95272170372624,125.44206274237993 188.02375654353636,125.47484805277968 189.35565978844969,125.98848458644693 195.50153947959328,128.3380985160979 195.48924498802035,128.73698646218537 195.48924498802035,129.0593753498592 195.50563764334234,129.3489789271333 195.5630119369694,129.7260099997838 195.92365035413502,130.7150335373008 197.79787727920342,135.04815876083353 198.21588998991467,135.60004482350405 198.2746303382333,135.7366502845208 199.08606677659137,138.92228963518716 198.93443471494422,139.2610711785901 198.78007054399527,139.5178894456273 198.65849168360896,139.7036728722844 198.36205783320258,140.0096691052876 198.2199881537452,140.2063809690703 197.72547638486455,140.84023030826944 197.24189305286524,141.31015309384136 196.96595002169283,141.53418604999027 196.6189721507917,141.73636213262074 196.37171626618854,141.8729675936375 196.1094337810364,141.97678774392878 195.74879536395215,142.1188574233048 195.47558444191867,142.20082069958914 195.21876617537004,142.2663913209586 194.90457361495007,142.3155692868432 194.3895710268355,142.3374261606059 193.871836329582,142.34835459773151 193.2967273387015,142.35381881609075 192.77216236839718,142.32649772372457 192.40879184209263,142.31010506848398 192.0563497526694,142.30464085020614 191.67795262573443,142.33196194257235 191.30365366246713,142.39753256386038 190.8350969312611,142.44671052950073 190.49221722402763,142.4904242771075 190.2627200495195,142.53413802487714 190.0523476395537,142.5942444277245 189.9184742878387,142.621565519765 189.3843469352632,142.59970864575806 188.6958554118202,142.59970864575806 188.14260329462093,142.64342239360911 187.96365014060757,142.64342239360911 186.72737071840598,142.6652792673718 185.86129209572263,142.61063708263939 185.14274737069312,142.5450664618399 184.9200804692358,142.47403162162266 184.77937684438854,142.38660412697905 184.48704115773128,142.2226775735961 184.31901644068068,142.1953564815556 184.18241097966393,142.217213355074 183.84909365478305,142.30464085020614 183.47206258237682,142.35928303461284 183.24529751708903,142.37567568985344 183.07863885464857,142.37567568985344 182.8300169155981,142.37567568985344 182.65242981627634,142.3702114715756 182.51309224612066,142.32649772372457 182.45161978866312,142.30464085020614 181.98442911198583,142.09700054954212 181.45576597793243,142.0205014912913 180.83557718475356,141.92760977755566 180.12113062363593,141.83471806438996 179.30422996691863,141.76368322441698 178.61710449784152,141.7035768218953 177.61168830483967,141.6161493265189 176.6390574224004,141.53418604999027 176.15274198109935,141.46315121058723 175.64730177533738,141.38118793348866 173.11736863730715,141.26643934647885 172.38652942094896,141.3265457495705 171.78136722856334,141.38118793348866 169.58475141541402,141.33200996760405 169.43994962681768,141.29376043884506 169.33886158558386,141.23365403559055 169.15444421329266,141.13529810382136 168.99461582390308,141.08612013769246 168.87986723656758,141.0478706086892 168.65037006205944,140.99322842444533 168.51103249190376,141.30468887572638 168.30475824568705,141.76368322441698 168.15176012942973,142.0642152385724 167.93865561016216,142.39753256386038 167.73374741863705,142.6707434858939 167.47009887895612,143.0095250288083 167.26655674195976,143.2608790773234 167.12038889867182,143.46851937798743 166.87723117814343,143.8892641981633 166.50839643339822,144.31547323620987 165.26801884744754,145.5503866042084 164.51259064786208,146.14052219531223 164.38008335083867,146.2607350010884 164.2038623059642,146.40826889898648 164.07955133643898,146.55033857836247 163.93338349315104,146.7634430978743 163.77765326759194,147.09129620407023 163.7380376838971,147.17872369944664 163.42930934208067,147.84535834912697 163.16156263848782,148.4518865959599 163.03725166888117,148.83984610549174 162.9812434298643,149.0201653135453 162.6110426305089,150.40261257944195 162.2722610872688,151.9544506165108 162.22581523044167,152.21673310166295 162.22854733982484,152.55551464474024 162.2708950325772,152.93254571714647 162.33236749003473,153.52268130906452 162.37061701920086,153.84507019698262 162.3815454560822,154.22210126906316 162.37608123764153,154.55541859435115 162.347394090828,154.8559506082623 162.2872876878992,155.12916153029582 162.18756570143842,155.48433572918364 162.02090703891656,155.92693742263364 161.88156946867946,156.2056125635149 161.71491080632046,156.4569666117043 161.4471641027276,156.77935549937814 161.22449720118888,157.05803064001518 161.01139268200276,157.3367057803265 160.8433679650336,157.56620295483464 160.63845977350846,157.97601933788488 160.29421401166482,158.80658054086672 159.91854899386877,159.63714174384856 159.24098590722568,161.47311914007653 158.4800934893624,163.61509276881918 157.99514410275293,163.41291668643296 157.93776980912588,163.38559559431104 157.67275521475338,163.30909653638594 157.3831516374793,163.30363231753813 157.16048473594057,163.37466715718543 156.95147838066637,163.49487996328727 156.77115917204284,163.63148542430403 156.50614457775177,163.79541197736128 156.2575226387013,163.95387431222213 155.95835667899317,164.14512195740133 155.6591907194479,164.35276225830964 155.33406972222804,164.5604025590551 154.73437174828308,164.88279144721747 154.4406700071785,165.0849675296037 154.16609303045342,165.27075095650503 154.08003159001285,165.30353626690479 153.7835977396065,165.46746282028772 153.0268034855737,165.69149577643662 152.9776255196891,165.7078884315958 152.47628347775765,165.75706639772466 152.08695791377846,165.78438748960232 151.70036445910108,165.76799483468744 151.593812199508,165.76253061583964 151.08154172069518,165.74067374232123 150.58429784259422,165.68603155758885 150.20999887940832,165.6313893736707 149.6321577793889,165.59313984442315 149.4900881000129,165.56581875230123 149.17179737568102,165.5330334413315 148.55024252813624,165.43467750956228 147.2565888122262,165.12321705828126 144.62556763304357,164.03037337014726 144.49579244507765,163.9757311859848 142.63112790228044,163.2216690412538 141.07382564660807,162.71349672610862 140.44544052601245,162.527713298963 140.2664873719991,162.47853533332267 140.19681858688054,162.35285830926867 140.0233296514707,162.04686207626546 139.83618016987774,161.67529522221847 139.76104716631852,161.44579804803604 139.49603257186462,160.9048404220026 139.16271524698374,160.23274155380017 139.08621618881435,159.8775673554823 138.99878869384506,159.18907583203932 139.0124492398653,157.8066285664684 139.12036755406854,155.6591907194479 139.18320606613625,155.1127688753809 139.32800785489542,154.5335617203442 139.35806105631912,154.03085362412824 139.37445371164114,153.65382255123347 139.44958671528175,153.51175287185748 139.68864627206108,153.68114364384394 139.86896548052175,153.55546661946428 140.0096691052876,153.34782631904451 140.28834424576175,153.20575663917995 140.42358365216833,153.08554383364807 140.38396806847348,152.71944119787892 140.79378445152375,152.64840635823163 140.82520370763902,152.03641389279517 140.90716698416765,151.6539186021111 141.14212837711645,150.50096851121117 141.12300361273697,150.20590071565925 140.8716495643847,149.42451747856202 140.70635695655443,149.25512670657554 140.65444688136807,149.14584233768073 140.32659377484646,148.9983084400269 140.18862225930096,148.87809563449503 140.03015992460294,148.73056173627123 139.93453610172838,148.6485984597426 139.89765262733528,148.5720994014918 139.8621352073895,148.50106456184452 139.83208200596582,148.35353066419069 139.83071595143707,148.156818800408 139.8416443883184,148.01474912054346 139.8757957535726,147.8781436595267 139.93043793789786,147.7524666353913 139.95502692096233,147.59400430061186 139.9386342656403,147.49564836884267 139.95366086627072,147.39729243707345 140.00693699614868,147.3153291604634 140.12031952879258,147.1623310440432 140.15856905779586,147.05851089342622 140.1708635493688,146.85633481128426 140.135346129423,146.4902321758408 140.02059754216893,146.30444874893945 139.98644617691474,146.1897001614411 139.92087555570814,145.77988377839085 139.7200655279321,145.02035741505628 139.7774398215591,144.83457398815494 139.82798384213532,144.75261071162632 139.81022513220313,144.4083649498641 139.63400408749152,143.94390638240716 139.6900123265084,143.93844216380364 139.66132517969487,143.8073009213904 139.5766297938645,143.6543028048888 139.5547729201018,143.57233952860443 139.588924285356,143.54501843599397 139.68454810806773,143.39202031973664 139.71186920027108,143.2171653299609 139.7405563470846,143.14613048982505 139.8129572415049,143.02591768453743 139.85257282519976,142.97673971840857 139.87989391732168,142.92209753392044 139.8471086067591,142.73084988874126 139.83481411526756,142.6379581750056 139.84437649745732,142.53413802487714 139.8635012620811,142.47403162162266 139.91950950101653,142.35381881609075 139.91404528257587,142.31010506848398 139.85940309833202,142.2445344474402 139.7651453300676,142.13525007878965 139.69274443581014,142.03142992817266 139.65722701586438,141.96039508852536 139.61761143216953,141.91121712264075 139.5233536641494,141.80739697202375 139.38811425766139,141.68718416649187 139.28156199806833,141.63800620060726 139.1394923186109,141.5942924527562 139.00561896697732,141.53965026851236 138.83486214070638,141.44129433674314 138.639516331371,141.33200996760405 138.35401091776458,141.22272559870922 138.27068158662578,141.17901185167239 138.1982806922055,141.12436966694 138.18735225532416,141.05879904557054 138.21194123830716,140.90033671079112 138.2857081872562,140.72001750241185 138.3403503716629,140.63805422563894 138.42641181210345,140.47959189110378 138.49744665191358,139.89492051778925 138.49471454261183,139.72006552752495 138.41958153905261,139.32664180020384 138.38816228301877,139.12992993642115 137.9633192993381,139.12446571757337 137.0494287650546,139.03157400408196 136.85818111971258,139.03157400408196 136.59453257986883,138.97146760156028 136.3609372415302,138.8621832324212 136.14510061312373,138.66000715027926 136.0166914798494,138.3649393542388 135.42382377903672,138.1955485828223 135.12329176479986,138.06987155868688 134.91291935483406,138.0425504663207 134.94297255617633,137.69830470488418 134.29409661634676,137.6054129913928 134.49763875342458,136.84588662781397 134.27223974258408,136.78578022529229 133.9771719467879,136.6601032011569 134.0741618241098,135.82407777965295 133.04005848429443,135.6328301339038 132.75455307076942,135.67654388175487 132.22315782733284,135.52900998377535 131.85978730102826,134.58370019362084 132.22042571819392,134.40338098475306 132.4062091450953,134.30502505298384 132.5660375345663,134.2449186502179 132.52642195087145,133.46899963164276 132.44855683817332,133.1028969961993 132.38298621672243,132.8078292004031 132.3228798139565,132.68761639478979 132.1002129124992,132.45265500151527 131.79831484365215,132.11933767671584 131.53330024919825,131.8406625363231 131.06201140869047,131.33249022150363 130.90491512860262,131.21774163433096 130.5265180015048,130.91174540157203 129.69322468938404,130.41996574174888 129.0265900396223,130.3434666834981 128.21515360110138,130.50739323688103 127.32175388605184,130.846174780284 127.04034663643876,130.8407105614362 126.66468161864269,130.7150335373008 126.36141749510408,130.46367948927426 126.08820657307058,130.17954013011513 125.75898741210163,129.91179342692942 125.55134711127475,129.7260099997838 125.44206274246136,129.5730118832822 125.29316279003451,129.1850523739946 125.16475365659736,128.86812770468003 125.05820139700428,128.6331663116498 124.86968586080117,128.42006179238223 124.69483087078115,128.217885709996 124.5951088841575,127.94467478796253 124.4311823309374,127.38186028898063 124.29730897922241,127.11411358498069 124.14021269897172,126.99936499772662 123.87929626842973,126.86822375531338 123.47494410382015,126.7206898574153 123.1593854890343,126.60594126991695 122.92169198670231,126.52397799363258 122.71268563134669,126.40922940637851 122.29194081141509,126.26715972700252 121.7113676020939,126.10869739197882 121.45318328077225,126.02673411569447 121.24827508924712,125.98848458644693 120.9299843650781,125.99394880496902 120.6526752792141,126.0540552074907 120.54475696509228,126.07591208157908 120.41634783165512,126.10869739197882 120.27017998836719,126.13601848434502 119.76200767338489,126.1961248868667 119.59534901102587,126.22891019775498 119.44235089468711,126.27262394536177 119.22378215697888,126.37644409565308 119.03253451163685,126.54583486739527 118.95466939877589,126.71522563881177 118.99565103708092,126.90100906571313 118.9970170917725,127.07586405597742 118.92188408813186,127.29443279384849 118.82762632011173,127.46928778378708 118.51070165047145,127.75889136106116 118.24022283773971,127.95013900656603 117.74161290494715,128.14685087034874 116.97798837802635,128.414597574023 116.4752802814033,128.53481037988058 116.01491987777685,128.64955896680897 115.64335302372986,128.85173504919516 115.18845683854408,129.11948175295083 114.90841564345975,129.0593753498592 114.37565434557584,128.9336983260495 113.75409949786821,129.08123222394758 113.44946931980085,129.05391113158137 113.53826286954316,128.69327271441574 113.74726922481737,128.5675956902803 114.1789424816303,128.37088382649762 115.2212421491881,127.63867855552927 116.12010608267832,126.81358157106952 116.45615551677953,126.34912300361258 116.70750956505034,125.6497030427997 116.76898202250788,125.33277837372938 116.67062609073866,125.11420963561403 116.74302698499612,124.77542809269961 116.80040127862316,124.46396764141858 116.75532147648764,124.08147235073451 116.71297378349102,123.44215879301328 116.67472425448776,122.60066915339438 116.59822519623695,122.04331887236461 116.44795918919995,121.52421812017526 116.42200415152534,121.25647141674528 116.34550509343738,120.68819269915987 115.84962726994658,120.55705145617668 115.95344742040074,119.96145164622507 115.4985512350521,118.7101456235559 114.8851927150869,116.93973884861597 114.39204700089786,115.33325862714041 114.20762962844381,114.67755241442286 114.27046814051153,113.464495920187 114.40297543769778,112.65032737269001 114.45488551296556,112.01101381488736 114.49586715127059,111.59026899495576 114.52318824347394,110.84713528710607 114.55324144497904,110.32803453540527 114.55460749942637,108.98383679875617 114.49450109666041,108.43195073632992 114.46991211359598,107.962027950758 114.38658278245718,107.3336428299181 114.26363786746069,106.907433791383 113.90846366889856,106.00037353015036 113.38389869851281,105.9675882197506 112.77327228776794,105.98398087523546 112.18177064156541,106.0222304041573 112.00145143310472,105.51952230745282 111.82796249753203,104.90752984201634 111.60392954154598,104.33378690582742 111.23509479671934,103.3392991500326 110.38267671997481,102.65627184494885 109.71604207021308,102.10438578203406 108.99066707229555,102.28470499057617 108.4169241360252,102.26831233541701 108.59587728987572,101.6453914330992 108.68876900344853,101.2956814528149 106.92655855625104,101.21371817653055 106.66291001657012,101.20825395768276 106.10009551718112,101.4923933165976 105.01271604748779,102.12077843776319 103.66988436569314,102.86391214561289 103.5155201947442,103.19722947016807 103.97178243454015,103.2628000917818 104.15483375222118,103.33383493118481 104.5195703331359,103.81468615388235 104.52503455157657,103.8857209940996 105.0113499927962,104.09882551304146 105.09877748792834,104.18078878965152 105.40340766591427,104.54689142533924 104.82693262042358,104.66710423095256 104.14527136995,105.18074076404984 103.89664943098094,105.35559575431414 103.59201925283216,105.69984151599492 103.42672664500189,105.95119556426575 103.27372852866313,106.14244321001489 102.9895891697483,106.4101899132006 102.79424336049433,106.57411646658355 102.38169486822376,107.02764659748485 102.33115084772898,107.10414565540997 102.30792791935613,107.22982267930111 102.10985000088185,107.4374629805351 101.99236930432602,107.70520968372082 101.98144086744468,107.92924263986971 101.88581704473295,108.14234715913726 101.83390696954659,108.16966825150347 101.4678043340217,108.03852700852026 100.83941921342607,107.59592531507026 100.83668710412431,107.26807220854865 100.79843757503961,107.10414565540997 100.59079727437559,106.5631880297022 100.70417980701949,106.10419368076735 100.62221653032802,105.88562494314056 100.42413861193515,105.31188200703305 100.3872551373792,104.78185281812522 100.50200372463327,104.14800347917034 100.49244134244353,103.83654302788929 100.59899360195517,103.7108660038353 101.25743192405591,102.67266449986374 101.50195569927588,102.26284811681349 102.03471699732263,101.2301108316897 102.29836553708496,100.61811836657894 102.54152325769478,99.91869840576605 100.66456422332463,99.6345590470955 100.35583588142677,99.31217015917738 100.10311577846436,99.07720876614715 100.00202773731196,99.00617392617417 99.900939696241,98.95699596053383 99.76570028991584,98.89688955727934 99.52800678758385,98.84224737336118 99.14141333290644,98.6673923830969 98.54034930451417,98.65099972761203 97.81634036104397,98.70564191234443 96.6756847615541,98.30675396593125 96.35876009199524,98.21932647104337 96.16068217360238,98.17561272319233 95.696223606064,98.15922006827743 95.39569159182714,98.1209705390299 94.97767888119732,98.02807882529423 94.65392393858762,98.14829163139609 92.79608966867839,98.73296300414067 92.72505482894968,98.77121253338821 92.50102187296363,98.90235377612713 92.29064946299785,99.00070970789635 92.20868618630637,99.02803080026254 91.98738533945924,99.08267298466924 91.88356518908651,99.10452985851335 91.79203953020529,99.13731516891309 91.6690946152902,99.17010047931284 91.62264875854451,99.18102891643845 91.53248915427346,99.18102891643845 91.47374880603626,99.17556469816063 91.41227634857871,99.18102891643845 91.30982225281615,99.20288579028255 89.62684297317121,99.78209294474931 89.40144396241216,99.98973324541335 89.18424127947695,100.11541026954876 89.02987710852801,100.39408541043004 89.17467889712435,100.46512024983306 89.25117795537516,100.64543945837517 88.98343125178232,101.25743192381164 88.7402735311725,101.22464661341188 88.44247362615599,101.1262906813984 88.18565535936308,101.11536224451706 88.05451411678699,101.1044338075543 87.80042795937726,101.03339896766273 87.38924552163542,100.9295788176157 87.28542537126269,100.91865038040866 86.94937593716149,100.80936601151384 86.51633662573839,100.66183211361576 86.21443855689137,100.54161930832814 86.00406614692558,100.44326337631465 85.85653224902748,100.350371662579 85.55053601634997,100.23015885704709 85.25000400219454,100.16458823567763 85.04646186536101,100.1099460515152 84.78554543465617,100.0607680856306 84.47135287439906,100.02798277466088 84.09568785660299,99.9842690273798 83.52331097486139,99.95694793501359 82.79110570389304,99.85312778439659 82.48374341660535,99.80394981851198 82.3170847540835,99.72745076050545 81.68050330582686,99.18102891643845 81.52204097104743,99.0171023633812 81.40182816535268,98.84771159139474 81.3171327795223,98.61821441721229 81.2870795780172,98.42696677146314 81.30074012420029,98.20839803416204 81.31303461561038,98.14829163139609 81.5602905000507,97.85322383551849 81.59580791999647,97.76579634014207 81.75290420008432,97.58001291348499 81.8171087668436,97.44340745246824 81.90453626197575,97.18112496731608 81.98240137467387,97.01173419541104 82.09168574348728,96.94616357404158 82.2965939350124,96.8587360791537 82.41817279523589,96.76584436574373 82.46735076128334,96.70027374413 82.50423423567644,96.59645359400155 82.6572323520152,96.35056376433424 82.72553508252358,96.22488674019883 82.78564148545236,96.05003174993453 82.90039007270643,95.85331988590757 83.00830838690968,95.72217864349433 83.14354779331624,95.58010896387407 83.4522761352141,95.33421913396249 83.58068526848842,95.15389992590893 83.66674670892898,94.96265228015979 83.7131925657561,94.81511838226169 83.66674670892898,94.6457276108452 83.37304496790581,94.42715887297412 83.15447623011617,94.35065981472331 82.84438183360814,94.25776810155762 82.15589031008372,94.11569842169308 81.97830321084338,94.13209107717795 81.55209417238969,93.89166546603273 81.04528791201754,93.78784531574142 80.69284582259434,93.72227469412769 80.20379827215436,93.55834814074474 79.94288184161238,93.61845454399923 79.75709841471101,93.58566923311095 79.56858287842648,93.53102704862282 79.23253344432527,93.43267111660934 78.95112619463076,93.39988580620958 78.51535477398733,93.39442158760608 78.18067139457771,93.41081424284666 78.00991456830678,93.44359955373494 77.64517798739206,93.43813533545712 77.43480557742626,93.4053500244874 77.10012219793522,93.17038863170144 76.8159828391018,92.89717770966794 76.72855534396966,92.82067865174284 76.50042422399027,92.6786089718783 76.24360595727877,92.49828976349903 76.02776932887231,92.36714852084152 75.09202192090757,92.04475963267916 75.00869258968736,91.99011744867957 75.00322837124668,91.86444042462558 75.07289715644666,91.74422761852372 75.31742093166663,91.54205153638178 75.47451721175447,91.41091029372429 75.55784654305612,91.26337639582619 75.55238232469686,90.92459485242323 75.46085666573423,90.4000298821189 75.55511443375435,90.13228317844465 75.56194470688662,89.91917865942136 75.50866857700866,89.53121915037806 75.45949061112405,89.32904306807328 75.60292634519165,88.99026152442605 75.65893458420851,88.83726340841298 75.66849696639825,88.73890747615522 75.69445200407286,88.43291124372197 75.79417399053366,88.14877188480713 75.92121706936067,87.8099903411599 75.87613726722515,87.5367794191264 75.8269593011777,87.44388770587928 75.7928079359235,87.36192442910638 75.78461160834392,87.26356849709289 75.7928079359235,87.17067678384578 75.84881617494037,87.05046397806962 75.92121706936067,86.93571539105982 76.1384197523773,86.68982556090397 76.17257111763149,86.53682744497233 76.15617846222806,86.42207885747399 76.1001702232112,86.30733026997565 76.01684089199097,86.19804590156936 75.76138867997108,85.96308450853913 75.58789974439837,85.86472857676992 74.3762093051798,85.35655626170617 73.42953346033373,84.87024082040513 72.96917305670728,84.67352895662243 72.43504570413178,84.6953858303851 71.78753581891239,84.67352895662243 71.30668459613342,84.49320974775463 71.0853837492863,84.46042443735487 70.79168200810028,84.46588865587697 70.61272885416834,84.44403178187002 69.921505221505,84.27464101045352 69.16197885817044,84.14896398631811 68.8150009871879,84.16535664147727 68.5417900651544,84.25278413636515 68.31639105455818,84.42217490835161 67.9120388899486,84.7882775435508 67.3656170458816,85.09973799458757 67.19622627422083,85.28552142197746 66.80826676493326,85.65708827578018 66.25364859312384,85.97947716394256 65.94218814200565,86.20897433820643 65.8602248653956,86.35650823610452 65.86978724774819,86.46032838672153 65.95311657888699,86.85375211404265 65.92169732301598,87.21985475005607 65.85202853781601,87.88102518129573 65.80148451723981,88.17062875832555 65.6457542915993,88.51487452000633 65.30970485749809,88.82633497128737 64.77147934117352,89.19790182509009 64.44635834395365,89.45472009220869 64.23461987929628,89.65689617451348 64.13626394736421,89.81535850937433 64.15402265729638,90.03392724667543 64.65399864461769,90.68416924135944 65.08157373760012,91.0885214055619 65.3260975128201,91.29616170671447 65.40396262559965,91.36719654644318 65.46680113766736,91.42183873060561 65.57062128804009,91.57483684710722 65.60887081712478,91.60762215750698 65.68810198459592,91.72237074476105 65.76869920651437,91.87536886150693 65.80421662637873,91.96826057467263 65.8725193568871,92.19775774942502 65.96677712507008,92.37807695772287 66.03917801940896,92.53653929274657 66.10611469522574,92.69500162760743 66.11021285905625,92.8589281804204 66.06240094778181,93.24142347167442 66.08152571224274,93.42720689857578 66.11431102296818,93.55834814074474 66.20173851793747,93.67309672824308 66.2591128115645,93.78238109689364 66.25638070242559,93.90805812102904 66.23315777405274,94.08837732957116 66.06513305692071,94.73315510597733 66.06103489309022,95.02275868292573 66.22632750092049,95.20854210982709 66.34380819739489,95.35607600796945 66.39298616344234,95.4598961580979 66.38888799953043,95.56918052699272 66.24545226554426,95.90249785203645 65.99409821727343,96.37242063817834 65.80558268098889,96.83687920514674 65.79055608035847,97.01173419541104 65.86568908383626,97.1538038750313 66.13206973290035,97.36144417569534 66.21676511873073,97.48165698122723 66.23725593780182,97.58001291348499 66.17441742573412,97.66744040812858 65.8233413910025,98.00622195153156 65.67444143841281,98.27396865545008 65.47909562915886,98.4160383345818 65.24276818168131,98.53078692208014 64.9517985496342,98.62914285409363 64.65673075391945,98.80399784411364 64.5952582964619,98.85317580999825 64.5201252929027,98.88596112039801 64.37122534031302,99.06628032926581 64.26877124455045,99.22474266404524 64.196370350293,99.37227656169905 64.17314742192015,99.49248936771949 64.17587953105907,99.55805998860042 64.19090613185233,99.64002326561759 64.21139695092342,99.72745076050545 64.18544191341167,99.79848560047843 64.13216578353371,99.85859200324438 64.05293461622541,99.91323418765108 63.98873004946612,99.96241215329141 63.93681997427975,99.978804808532 63.848026424700286,99.97334059049845 63.80431267725635,99.97334059049845 63.62262741394123,99.94601949813226 63.339854109636555,99.86952043988146 63.227837631684245,99.8367351294817 63.029759713209955,99.76023607123089 62.90408268907454,99.7329149788647 62.80709281175265,99.7329149788647 62.555738763481834,99.79848560047843 62.17870769099418,99.88044887676278 61.678731703672874,100.02251855638306 61.52846569655445,100.07169652251193 61.16782727955165,100.17005245428115 61.08996216669068,100.18644510968458 60.99843650780946,100.22469463844358 60.807188862386006,100.3285147888163 60.64736047299641,100.4268707208298 60.606378834691384,100.46512024983306 60.059956990624386,100.05530386678281 59.91652125663822,99.978804808532 59.79767450547222,99.90776996912899 59.697952518929995,99.84219934751525 59.622819515370786,99.78209294474931 59.4916782727947,99.68373701298009 59.38649206789323,99.56898842548175 58.02180351225447,99.05535189230304 57.03824419293387,99.0116381445334 56.40166274459581,99.04988767378094 55.27330163659746,98.85864002827607 51.76117523385681,98.69471347546309 51.75571101541614,98.80946206263575 51.7707376162094,98.9406033051304 51.825379800534684,99.06628032926581 51.221583662840644,98.97885283437793 51.098638748007,99.0334950182961 50.440200425824834,99.13185095030957 50.22709590672013,99.15370782439796 49.981206076808554,99.13731516891309 49.76127128465301,99.09360142155057 48.07692595031648,98.79853362551013 47.71492147854067,98.76574831511037 47.343354624737955,98.68378503850033 47.154839088453414,98.61821441721229 46.624809899708424,98.62367863524584 45.72731202074696,99.14277938719091 45.27104978103243,99.76570028975298 45.06340948020555,99.9296268426474 44.88718843549394,100.02798277466088 44.57162982054525,100.18098089116249 44.339400536816775,100.3558358811825 44.18093820203734,100.84761554076138 44.06618961478327,101.03886318626625 44.00608321201732,101.24103926857104 44.004717157325736,101.30660988969623 43.99378872044439,101.36671629270646 43.955539191441126,101.3995016034319 43.894066734065014,101.4268226957981 43.74926494522441,101.45960800619784 43.53206226220778,101.4923933165976 43.376332036648684,101.57435659369618 43.31895774310307,101.63446299646213 43.1905486096659,101.74374736486841 43.059407367089825,101.87488860752592 42.95422116218835,101.96231610290234 42.8544991755647,102.03335094263105 42.67964418554468,102.17542062168134 42.5853864173617,102.30109764581675 42.23021221879957,102.90216167461615 41.376428087444886,102.63441497110475 41.283536373872074,102.78741308711781 41.22889418954679,102.89123323773481 40.8409346801778,103.4321908631983 40.694766836971304,103.60158163510333 40.450243061751316,103.99500536275015 40.30680732768373,104.03325489199769 40.137416556104384,104.06057598379392 40.047256951670484,104.03871911003124 39.70437724459986,103.85293568312989 39.51039748995608,103.7545797511164 39.3287122268038,103.65075960074367 39.30139113451903,103.6125100720661 39.29319480693945,102.72730668459613 39.27953426075634,102.67266449986374 38.42711618401182,101.5197144089638 38.27138595845273,101.37218051106571 38.13614655204615,101.35032363754729 37.88206039463641,101.3230025451811 37.487270612216584,101.26289614241514 37.33563855056941,101.19732552080141 37.23045234550509,101.08257693354734 37.2468450008271,100.8749366328833 37.38071835270494,100.45965603171808 37.59382287180965,99.18102891643845 37.438092646331974,98.68378503850033 37.328808277437155,98.17561272319233 37.25504132848811,97.80951008799313 37.152587232725544,97.35597995709182 37.21132758104417,96.79862967614348 37.17581016117982,96.5855251571202 36.99958911646821,96.32324267196803 36.879376310692045,95.65114380384705 36.764627723437975,94.45447996509606 36.4231140708961,93.05017582592528 36.14443893042193,92.71685850112583 35.839808752436,92.33436321044178 35.86166562619868,92.22507884146553 36.061109599283135,92.1595082201775 35.46277768002977,90.93005907102675 36.632120426251724,90.31806660559027 37.33154038665749,89.56946867913706 36.01466374253744,88.77715700515849 35.211423631677526,88.01216642379038 34.78931275713577,87.65699222490257 34.44233488615322,87.72256284627203 12.028110842524853,84.40031803458893 10.937999263774033,84.42763912662943 10.607414048032075,84.37299694222273 10.39021136501544,84.34021163174155 9.528230905918324,84.34021163174155 8.617072480936601,84.31289053945679 7.756458076531075,84.29649788397192 6.2292090224452314,84.21999882572112 4.947849798026692,84.16535664147727 4.751137934162571,84.17628507844003 4.636389346989924,84.34567584985653 3.9929776256010308,84.18174929671785 3.8317831815198424,84.21453460768757 3.5572062048761746,83.95771634056896 2.5545221210132283,83.49325777335629 2.202080031590013,83.34572387537678 1.982145239353045,82.87580108931631 1.1939317292863965,82.15452425547356 1.083281305944252,82.05070410493798 0.8537841313546886,79.60819846179564 0.9862914285409363,79.51530674838567 1.293653715828624,79.17106098694916 1.5941857300654745,78.7776372588138 1.9343333279971826,78.45524837113996 2.1856873762680027,78.26946494375007 2.2007139770612687,78.2148227598319 2.169294720945993,77.70118622592038 2.1556341748443177,77.18208547446385 2.191151594708673,76.87608924146063 2.18705343087817,76.65205628555601 2.2307671784035303,76.32966739739364 2.1706607756375833,76.12749131533312 1.859200324519393,75.8488161746961 1.4521160506080544,75.58106947126612 1.0682547053138327,75.31332276775471 0.7226428887786084,75.07289715644666 0.45489618518577807,74.9144348215858 0.06420456667787258,74.71225873928101 0,74.57018905941646 0.13797151562691767,74.37894141448156 0.18031920870495663,74.22594329797995 0.34970998028430367,73.95273237594645 0.4644585675383738,73.90901862833967 0.7117144518972685,73.95273237594645 0.8811052235580387,73.9472681575872 1.0013180292527788,73.85437644393296 1.121530834947519,73.64673614318751 1.3592243371166643,73.3462041291135 1.4466518321673845,73.14402804648302 1.5614004195028777,72.83803181404977 1.49992796204534,72.76699697407679 1.3264390264726442,72.67956947918891 1.2321812584525098,72.31893106226754 1.157048254811874,72.1823256012508 0.9425776810969995,72.09489810587438 0.7349373802701159,71.96922108206466 0.6994199604057609,71.87086514996976 0.7704548002158942,71.71786703379384 0.9179886980325612,71.5266193880447 1.1939317292863965,71.35176439826895 1.4876334705538325,71.16598097087906 1.801826030892358,70.87091317508288 2.0545461336919226,70.60863068993072 2.3127304550950036,70.5375958505277 2.5818432132980016,70.50481053980225 2.9493119033516364,70.22067118088742 3.1610503680090223,70.11685103059611 3.405574143229005,70.06220884586371 4.182859216332891,69.92560338484697 4.548961851857781,69.90374651132855 5.897257752093105,69.78899792383021 6.272922769889168,69.54310809416292 6.286583316072266,69.46660903591211 6.283851206770509,69.38464575962774 6.279753042940006,69.33546779374315 6.301609916702685,69.248040298611 6.369912647211061,69.20979076936347 6.432751159278766,69.1168990556278 6.552963964973506,69.05679265286186 6.641757514634394,68.98575781345885 6.736015282817374,68.93657984732997 6.834371214668011,68.78358173082836 7.73323514823965,68.2316956687278 7.75919018575141,68.17705348399541 7.919018575141008,68.1060186445924 8.128024930496636,68.06230489674134 8.472270692340269,67.90384256196191 9.048745737749531,67.69620226154214 9.20857412713913,67.61970320329134 9.276876857647505,67.57052523716246 9.573310708053853,67.33009962552872 9.868378503850034,67.09513823274274 10.27409672306978,66.77274934458038 10.330104962086649,66.71810716058079 10.446219603950887,66.5705732626827 10.545941590493113,66.47768154902846 10.711234198323382,66.39025405414058 10.798661693374102,66.40118249077766 11.11285425379405,66.45582467551004 11.336887209780096,66.50500264139465 11.586875203603597,66.52685951515734 11.7958815588778,66.50500264139465 11.903799873081034,66.270041248283 11.873746671575926,66.12797156874416 11.965272330457148,65.95311657847986 12.138761266029844,65.76733315157851 12.347767621385472,65.68536987529416 12.622344598029139,65.66351300120579 12.823154625642339,65.67990565644637 12.991179342774364,65.57062128804009 13.170132496624884,65.42855160817555 13.17969487897748,65.29741036600659 13.075874728523328,64.93677194884094 13.002107779655706,64.59252618716016 12.967956414401517,64.29199417276045 12.984349069642104,63.860320916191796 12.988447233472607,63.55432468318858 12.992545397384532,63.25379266903315 13.112758202997849,62.822119411975955 13.114124257608017,62.65819285883728 13.134615076841953,62.39591037368512 13.103195820726677,61.969701335475705 13.07041051016408,61.78938212709644 13.075874728523328,61.412351054771634 13.048553636401401,60.96428514247385 13.067678400862322,60.66921734659624 12.687915219235757,60.50529079353899 10.775438765001255,59.46708928981169 10.524084716730433,59.22119945965584 10.421630620967871,58.6911702710737 10.283659105340954,58.17753373740645 10.112902279070015,57.84968063145479 9.865646394629698,57.571005490573505 9.502275868406565,57.27593769502159 8.961318242780235,56.90437084121888 8.382111088069214,56.6748736662222 8.427190890204741,56.26505728317195 8.551501859729985,55.811527153084874 8.776900870326198,55.516459357207275 8.981809061851324,55.28149796393277 9.536427233660753,54.456400979554445 9.793245500372244,53.99194241201607 9.895699596134806,53.483770096952334 10.230382975625844,52.58763827260103 16.056605887908816,48.80639911198308 16.70957999173173,48.76814958297982 23.355435670033778,48.38565429205149 24.30484362410019,48.298226797163615 24.763837973116473,48.369261636566634 25.135404827082034,48.38565429205149 25.81979818677595,48.54958084535301 26.53014658406305,48.718971616850936 27.24595919979082,48.790006456498226 36.513273675167156,47.58241418135442 37.04603497321391,47.352917006683434 37.65939349317911,47.30373904079883 38.22357404717829,47.27095373007339 38.80004909258755,47.18899045330049 39.793170794179325,47.17806201666342 40.29314678150063,47.172597798304174 41.742530723051196,47.46220137533399 42.15917737898944,47.702626986967736 42.32993420526038,47.76273338973368 42.67691207624292,47.94305259803153 42.92826612451374,48.17801399106176 43.183718336615065,48.54958084535301 43.35584121749617,48.85011285926417 43.52249988001803,49.18889440266713 43.56757968215356,49.27632189779928 44.29158862554233,50.39102245945169 44.69730684468066,50.95930117752564 45.104391118592,51.478401929552135 45.35301305756106,51.81718347287368 45.55928730369635,51.98111002576808 45.73824045779114,52.11225126875128 46.16581555061072,52.39092640881834 47.08517030333488,52.88270606864148 48.859675241861034,53.74058836398952 51.02623785358669,54.76786143083548 51.149182768583195,54.8388962702385 51.295350611789694,54.93725220225198 51.4210276359251,55.04653657090253 51.48250009338264,55.12849984800113 51.54397255100302,55.24324843517377 51.722925704772116,55.89895464797275 51.76800550690765,56.01916745350464 51.83767429202619,56.117523385273856 52.082198067246175,56.325163686426436 53.77337367471496,54.60393487745254 53.821185585989404,54.500114726835534 53.843042459833505,54.42361566907327 55.240516325953436,53.84440851411798 58.08327596979343,52.89363450560425 58.96574724796164,52.62588780184857 59.34960859333728,52.47835390395048 59.25671687984589,52.27071360328644 58.861927097588904,51.36911756057589 62.152752653482416,50.030384042530315 61.632285846927175,48.95939722840326 61.3044327405684,48.4621533499766 60.643262309247326,47.67530589484581 60.010779024658355,47.12888405077881 59.49304432740487,46.54421267746427 58.713027144999224,45.855721153777004 58.06005304142058,45.424047896964076 57.370195463204574,44.92133980074813 58.24583646832194,43.489714569211166 58.52997582723678,43.02525600142852 58.2895502158473,42.25480120170116 58.14201631794921,41.757557323274504 57.91115308891233,41.23299235329587 57.69668251511603,40.670177853744015 57.680289859712595,39.76311759251137 57.78820817391583,39.380622301827316 57.775913682505745,39.298659024973 57.68985224206519,39.178446219196836 57.66389720439059,39.11287559831591 57.646138494458405,38.76316561778734 57.71034306113628,38.435312511591405 57.79367239251934,38.10199518679196 57.86197512302772,37.768677861992515 57.922081525712244,37.42989631858955 57.9657952732376,37.09111477494231 57.99448242005112,36.75233323178362 57.96306316409869,36.57201402324151 57.934376017285174,36.49005074663146 57.86880539591571,36.386230596340155 57.81143110228867,36.249625135323406 57.86060906833613,35.89991515479483 58.173435574064484,34.25518540423458 59.1050848181173,30.38105453012524 61.622723464737426,28.392079017721358 63.1404101365521,27.709051712637606 64.68541790073297,27.004167533465484 68.86964317167603,25.78018260291825 73.85574249878741,24.725588444031782 74.0401598710786,24.528876580249086 74.56882300521342,24.381342682350994 74.9868357160061,24.310307842133746 75.43080346431054,24.23927300248646 75.9061904685674,24.16823816308344 76.35835454453284,24.11359597835105 76.80368834752888,24.04256113894803 76.97034700988789,24.026168483218907 77.06870294181995,24.00977582797832 77.419778976633,23.971526299300745 77.47032299729062,23.966062080452957 77.56594682000234,23.94966942545664 77.61239267674803,23.93874098833103 77.73260548236135,23.91688411456835 77.94024578310682,23.900491459083494 78.40470435056376,23.845849275165335 78.82954733440728,23.82399240132123 79.29673801108457,23.818528182799138 79.38962972449454,23.81306396443989 79.81310665364646,23.747493343151852 80.26800283883223,23.720172250785655 80.70650636869601,23.709243814148586 80.80076413679757,23.692851158419458 81.24883004901393,23.589031008046728 81.29117774184769,23.578102571165388 81.33489148945448,23.56717413428405 81.48788960579324,23.55624569740271 81.58487948311513,23.56717413428405 81.63405744899974,23.572638353131833 81.8171087668436,23.578102571165388 81.86628673272821,23.572638353131833 81.9140986441655,23.56717413428405 82.12037289030079,23.490675076033245 82.52199294560862,23.343141178135156 82.89492585434719,23.239321028006692 82.93590749248936,23.22292837284753 82.98508545853682,23.21199993596619 83.07251295350612,23.20107149908485 83.27468903589234,23.173750406718653 83.41129449690908,23.157357751233796 83.45364218974285,23.151893533200244 83.5397036301834,23.13003665935614 83.89624388351855,23.091787130108603 83.99596586997934,23.080858692982993 84.45496021899562,23.037144945701904 84.8224289092121,22.99343119833939 84.86614265665605,22.966110105973193 85.17350494394374,22.714756057783795 85.42895715604506,22.507115756794068 85.51775070578736,22.474330446150045 85.5628305079229,22.463402009268705 85.93029919797654,22.40329560674703 86.29230366975234,22.28854701924869 86.32099081656585,22.261225926882492 86.34011558102678,22.190191087235206 86.35787429095896,22.080906718584654 86.39339171090474,22.05904984506624 86.43710545834867,22.042657189581387 86.52726506261973,22.02626453409653 86.57234486475525,22.02626453409653 86.66387052363648,22.031728752700044 87.07368690668673,22.04812140810348 87.16384651112064,22.075442499981136 87.20482814926281,22.102763592103063 87.24171162381876,22.13008468471353 87.27313087977119,22.16286999511328 87.31957673651688,22.179262650598137 87.37285286639484,22.17379843223889 87.41520055922861,22.16286999511328 87.54224363797418,22.135548902991353 87.59278765855038,22.135548902991353 87.74578577488914,22.124620465865743 87.78813346788576,22.119156247832187 87.95342607571602,22.086370936862476 87.9957737685498,22.086370936862476 88.03812146146498,22.091835155465994 88.25395808987145,22.13008468471353 88.33865347570183,22.135548902991353 88.51624057502362,22.168334213716797 88.97113676020939,22.17379843223889 89.10637616661597,22.16286999511328 89.15282202336167,22.15194155823194 89.1979018254972,22.1410131213506 89.51209438583572,22.075442499981136 89.55854024266284,22.064514063099796 89.63913746466272,22.03719297122214 89.66236039303557,21.971622349934098 89.61181637237794,21.92244438404949 89.58722738947635,21.845945325798688 89.61864664542878,21.81862423343249 89.65826222912365,21.79676735991408 89.70060992212026,21.774910486069977 89.9587942433605,21.665626116930884 90.27571891300077,21.44705737962978 90.28937945902103,21.37602253998249 90.31943266044472,21.315916136890852 90.3576821895294,21.294059262883902 90.56259038105453,21.18477489423335 90.80301599244402,21.037240996579527 90.86039028607105,21.004455685609816 90.90547008820657,20.993527248728473 90.95191594495226,20.99899146733199 90.99836180177938,21.004455685609816 91.04344160383349,21.004455685609816 91.08852140596902,20.99899146733199 91.13223515349438,20.98806303045065 91.17731495562991,20.971670374965793 91.26474245068063,20.949813501447384 91.30845619820599,20.949813501447384 91.54614970045655,20.933420845962527 92.76057224881404,19.35426171652747 94.77686885342128,16.556581875148698 95.4148163563695,16.239657205264145 97.04998372482142,15.726020672085435 98.52805481294124,14.92278056122552 99.01027209033036,14.447393556805807 99.02393263651346,14.376358717158519 99.07720876622857,14.130468887246945 99.0813069301405,13.950149678867682 99.21381422724532,13.567654388183628 99.29577750385536,13.299907684509375 99.43101691026195,12.955661922828586 99.54713155212619,12.611416161066376 99.68510306783453,12.261706180537804 99.85449383941388,11.928388855982625 99.9036718053799,11.813640268809978 100.0143222288849,11.485787162044085 100.03754515725774,11.453001851644334 100.18781116429474,11.228968895495441 100.37359459135895,10.933901099617838 100.54161930832814,10.638833303577387 100.70964402546015,10.332837071144137 100.7697504282261,10.174374736608977 100.80116968434137,10.097875678358173 101.00061365742583,9.813736319443333 101.24786954178472,9.540525397409832 101.28338696173051,9.480418994562463 101.40906398586591,9.218136509491725 101.41452820430659,9.141637451240921 101.41452820430659,8.83564121823771 101.45687589714035,8.726356849342885 101.45141167869969,8.611608262333085 101.4432153511201,8.540573422441529 101.44731351486918,8.469538583038512 101.45824195175052,8.431289053790975 101.47736671637429,8.32200468514042 101.3667162928693,7.8192965883545105 101.02520264032742,6.535205255041329 100.91591827151403,5.174614862907381 100.73969722680242,3.212960442788271 100.94597147293771,2.6173606328366636 101.68773912634009,2.28950752631504 103.39803949818838,0.22403295590462388 103.43628902735449,0.10928436840628414 103.42945875430365,0Z"/></svg>