<svg xmlns="http://www.w3.org/2000/svg" width="256" height="256"><path d="M64.78378139101123,0.1737539466039736 64.96886711732643,0.3248443353614899 65.0670758697205,0.5288163600321659 65.10295983702368,0.8234426176646668 65.07085312954919,1.0274146423353427 64.89143329292075,1.518458405769128 64.6270251127921,2.0397202464816178 64.23230147245718,2.6818543979974923 64.06043615537355,3.0066987336966955 63.983002331305585,3.475078938608597 63.983002331305585,4.132322129326679 64.05099300608325,4.525157139803537 64.06421341508967,4.668693008903664 64.19264024543787,4.940655708802279 64.32295570575671,5.084191577564692 64.63646826219498,5.235281966322208 65.10862572671043,5.257945524506379 65.7639802873453,5.22017292712 66.52887537986034,5.114409655631394 67.01236462363674,5.046418980516027 67.50151975687474,5.023755422444427 68.39861893945411,5.099300616766899 69.67344409364583,5.152182252342346 71.29199988189224,5.2428364856418845 72.16076961671324,5.295718121892757 72.65747926927094,5.378817835197193 73.78876855436253,5.703662170896396 74.59899076347105,5.930297754088956 75.32800188857034,6.043615545797807 76.02301767644965,6.1040517010306425 76.3044235251883,6.096497181373254 77.09953669543232,5.884970637833185 77.62646442583157,5.6507805349832365 78.09862189034702,5.348599757805917 78.85218520371369,4.8348924366382455 79.19024994830674,4.661138489696558 79.58686221849973,4.5780387760544095 79.92681559306342,4.570484256059307 80.52739988781451,4.63092041196757 82.01564021596722,4.744238203000994 82.283825655812,4.782010800387373 82.71443326345009,4.89532859175851 82.93918021655945,5.016200902449325 83.12237731290402,5.2428364856418845 83.25458140296834,5.545017262819203 83.29046537015894,5.741434768282774 83.29235400001701,6.360905361952192 83.25080414313965,6.829285566864093 83.08271608588471,7.373210965760753 82.87685543135598,7.871809248401644 82.68610381557916,8.14377194751226 82.43113878474082,8.37040753070482 81.8135568211546,8.899223890736986 81.72856847765439,8.96721456551464 81.44149673911643,9.49603092588452 81.39616962252295,9.707557470212585 81.41883318081969,10.039956325569177 81.51704193355147,10.349691621953601 81.57558945903882,10.478118451964093 81.73423436711602,10.71230855470147 81.93254050232507,10.908726059827329 82.15917608517992,11.173134240406267 82.31782099336968,11.407324342468218 82.39714344740828,11.633959925660779 82.39903207726634,11.830377430336352 82.29515743507294,12.125003688306565 82.14217841645737,12.502729659918929 82.2328326497569,12.74447428163827 82.38014577857315,12.948446306308945 82.64077669909825,13.14486381211023 83.04116622889478,13.333726797916412 83.38867412289073,13.462153627814331 83.8155044708127,13.499926224862996 84.06858087168041,13.49237170554332 84.3216572726607,13.416826511558561 84.71071502353401,13.175081889501506 84.85047363291801,13.031546020626521 85.17342933864657,12.827573995618131 85.36418095442339,12.782246879362361 85.71735473788095,12.850237554140016 86.35193437007715,13.107091214723852 86.60878803088613,13.175081889501506 86.99973441139235,13.356390355988012 87.14704754032117,13.477262666678826 87.35479682482054,13.703898249533673 87.52099625232998,13.990969988521924 87.53610529119447,14.293150765811813 87.52099625232998,14.459350192758398 87.45300557732719,14.859739723230359 87.34157641570154,15.184584058591847 87.06961371614064,15.660518782710854 86.9827367426698,16.02313571545872 86.97518222323755,16.204444181945227 87.06772508628258,16.65016082878553 87.16026794955275,16.801251217205333 87.76462950401995,17.549148640772668 88.12346917693912,17.896656534656042 88.64284238790613,18.115737598191213 89.65892525154338,18.213946350697857 90.22173694924581,18.281937025813225 90.99796382102178,18.349927701041164 91.84595862717897,18.349927701041164 92.56930386281664,18.448136453547807 93.12456104119939,18.606781361624996 93.51173016198949,18.810753386295673 94.08398500909479,19.22625195484413 94.40882934456884,19.77773187339818 94.72800779069387,20.434975063778552 94.87343228965206,20.737155841293582 95.12084280105816,21.062000177105357 95.39091687087357,21.318853837689193 95.86118570553096,21.613480095209123 96.1425915542696,21.84011567806397 96.51654026627841,22.074305780913917 97.06046566528764,22.474695310935594 97.45330067598964,22.875084840394415 97.82158349819912,23.275474370866377 97.97456251658956,23.8798359248833 98.15964824279219,24.295334493544328 98.42027916320471,24.582406232645152 98.95287278306557,24.997904800855896 99.19839466472618,25.088559034155434 99.62522501276072,25.179213267454973 100.26169327481499,25.209431344846248 100.68474636302084,25.247203942570337 101.02469973747196,25.307640098028315 102.06533478915145,25.6475934722543 102.83211851152454,25.87422905544686 103.19851270398854,25.9422197298868 103.52524566943323,25.934665210679697 103.95207601746777,25.889338094311356 107.11553102972131,25.609820875318206 107.80299229794323,25.572048277931827 108.26759524302645,26.108419157959098 108.5811077994647,26.387936376614533 108.96072240093513,26.841207542324227 109.36488919067293,27.67220468032171 109.63496326048835,27.98949449602581 110.1675568803492,28.223684598425475 111.16475344529327,28.185912001827095 112.10717974446611,27.974385457161315 112.79841827274188,27.830849587948617 113.84094195416687,27.853513146132787 114.99300616769713,27.94416737977004 115.79567385737342,28.155693923985535 116.63611414421092,28.556083453444355 117.25936199737131,29.19066308564055 117.8240623249318,29.62127069350379 118.50585770357954,29.915896951474004 119.54838138534224,30.22563224830871 120.11308171279015,30.338950039342134 120.60223684614073,30.376722636728513 121.3369138608142,30.248295806830594 122.443650957751,29.802579159990294 123.46917697079114,28.94891846392121 124.6061321451192,27.93661286011265 125.60332871017584,27.302033227578736 127.21621860896063,26.4257089736632 127.85079824138198,26.146191754557478 128.4041667896815,26.108419157959098 128.90465370218047,26.191518871601247 129.5600082630405,26.418154454456094 129.91695930598902,26.561690323218507 130.36834184217838,26.644790037536083 130.68752028807825,26.576799362420715 131.24088883649037,26.26706406592372 132.03600200684696,25.6249299141827 132.757458612514,24.967686723126906 133.38826098510665,24.48419747935051 133.95296131266713,24.257561896495663 134.4005665890278,23.962935638975733 134.86705816396903,23.653200342478737 135.32032933012903,23.570100628386307 135.83214802143863,23.615427745092358 136.38929382967945,23.758963614192485 137.3109452004136,23.910054003062573 137.99274057906135,24.106471507738146 138.72741759395996,24.30288901353943 139.39788119345934,24.446424882301844 140.19677162353204,24.537079115601383 140.72936524339292,24.52952459639428 141.41682651184,24.559742674123267 142.34414377203578,24.74860565992945 142.92395313846075,24.93746864573563 143.69640275040803,25.35296721473437 144.5727270046613,25.791129341129285 144.99955735269583,26.047983002050835 145.18464307856073,26.30483666263467 145.29229498047027,26.773216867546573 145.43583084968296,27.883731223861776 145.43016496022133,28.291675273540843 145.59636438773077,28.707173842539582 145.90043379476617,29.18310856677116 146.15917608532064,29.379526071446733 146.9920618527259,29.659043290890168 147.76262283481512,29.719479446010432 148.933573346926,29.666597810434986 149.60592557628345,29.477734824628804 150.11585563796012,29.21332664450015 150.41992504522065,28.775164516979522 150.52568831715956,27.94416737977004 150.68055596563318,27.445569097129148 150.9732935935202,26.99229793108174 151.43034201917115,26.644790037536083 152.219789299841,26.236845987857016 152.91291645774967,25.64003895270948 153.21509723526472,25.186767786662077 153.7533567445872,24.32555257161103 154.28028447498644,24.0309263140911 154.82987576368242,23.789181692034045 155.65520701165545,23.494555434063834 156.497535928351,23.335910525648927 157.00746599014028,23.275474370866377 157.43429633794966,23.34346504564403 157.7836928616911,23.539882550319604 158.0839850092355,23.638091303614242 158.30117744280005,23.69097293907712 158.83565969263154,23.494555434063834 159.32859208569823,23.215038214958113 159.89895830272033,22.776876088225485 160.31445687149395,22.512467907646545 160.57886505173516,22.42181367468472 160.74695310899008,22.406704635482512 160.9811432115023,22.414259155477616 161.2795467290761,22.512467907646545 161.6516068110017,22.739103490839106 162.11243249648135,23.048838787673816 162.3390680793362,23.230147254160322 162.56003777272943,23.47944639519934 162.77534157666105,23.706081978391897 162.95853867278046,23.81939976942532 163.14929028844472,23.90249948306747 163.57423200650862,24.061144391482376 164.05016673085277,24.189571222055722 164.78862100535494,24.272670935810442 165.55351609787,24.340661610588096 166.14087998361464,24.408652285703464 166.37318145615623,24.408652285703464 167.037979166194,23.736300056120886 167.2646147491614,23.630536783619142 167.43648006624503,23.600318706227863 167.62723168190928,23.645645822483637 167.7348835838188,23.706081978391897 168.06161654937608,24.250007377288558 168.35624280712113,25.043231917899664 168.69997344140097,25.579602797138932 168.95304984238123,25.821347419195988 169.15324460722323,25.912001652157812 169.5838522148613,25.972437808066076 170.19010239929915,25.866674535902042 170.8549001093369,25.730693186346734 171.12119691932364,25.662702511231366 171.5027001507647,25.541830200540552 171.9144214597096,25.360521733603765 172.17316375026408,25.194322306319467 172.25059757455716,25.390739811332754 172.19960456827692,25.466285005767794 172.1486115623344,26.244400507514406 172.4489037095411,26.4559270517299 172.7284209286468,26.546581284354012 173.12881045844335,26.75055330902469 173.24023962018157,26.863871101183822 173.75961283114856,26.841207542324227 173.93147814811962,26.90919821710188 174.12222976389643,27.03762504812551 173.93147814811962,27.150942839158933 173.77849912961662,27.150942839158933 173.64818366941034,27.58910496656699 174.08634579648069,27.702422758050698 174.3658630155864,27.77796795237317 174.5660577804284,27.86862218499728 174.70392776017948,27.94416737977004 174.67748694205403,28.21613007921837 174.62649393599895,28.389884026160058 174.77947295438938,28.374774987633273 174.96267005062137,28.450320181280322 174.9494496417275,28.639183167086504 175.57269749477533,29.341753474398068 176.20727712719668,29.65148877157049 176.51323516420268,29.477734824628804 176.64543925415444,29.432407707697607 176.80597279220228,29.49284386360587 177.28757340589547,29.598607135319618 177.5330952874435,29.681706849412052 177.81261250654921,29.7648065630542 177.92970755774905,29.666597810434986 178.08457520599754,29.689261368281443 178.57373033923557,30.044323782047346 178.66249594267703,30.036769262502528 178.9174609734028,30.27851388422187 178.92501549283506,30.210523209444215 179.14787381608636,30.172750612057836 179.42739103519207,30.27851388422187 179.7503467410332,30.338950039342134 180.0789683362234,30.45226783150127 180.77965001356432,30.58069466139919 180.817422610613,30.739339569476382 181.11960338812804,30.988638711078256 181.57287455383772,31.381473721667685 182.45486469766516,31.804526809535815 182.59462330704918,31.73653613475816 183.0460058432385,32.031162392728376 183.77690559830842,32.031162392728376 183.96199132428592,32.189807300355284 184.0148729604242,32.212470858539454 184.55502109971732,32.20491633967006 185.06306253153596,32.36356124729697 184.9214152921813,32.59019683015182 184.5474665802851,32.8017233748176 184.6853365599236,33.03591347687955 184.84398146800078,33.23988550188794 185.1990438813164,33.46652108440507 185.14616224540325,33.79136542010428 185.09705786898107,33.95001032818147 185.1234986871065,34.13131879466797 185.09705786898107,34.66013515515042 185.15371676483548,35.07563372369888 185.11405553770362,35.392923539853264 185.0592852719324,35.8461947057881 185.07817157040046,35.97462153579859 185.1329418365094,36.16348452160477 185.25192551734213,36.26924779410652 185.7826305074575,36.86605482891634 185.88650514976348,36.9189364648295 186.07159087574095,37.10779945063568 186.8175996696754,37.04736329585313 187.37474547791618,37.03980877585803 187.54283353517113,37.02469973733125 187.6958125537867,37.062472334717626 187.83368253331264,37.13801752836467 188.0074364802543,37.236226281659306 188.17741316759245,37.946351107840265 188.25484699177298,38.29385900172364 188.40027149073117,38.30141352126846 188.94608551971103,38.263640924332364 189.86584826058714,38.27874996319686 190.46832118553402,38.34674063797451 190.73272936543754,38.46005842900794 190.90459468252115,38.56582170117197 191.74881222918734,38.66403045401633 192.25118777131922,38.66403045401633 192.50426417241206,38.633812375949624 192.7101248269408,38.70935757072238 193.04818957153387,38.95110219277944 193.19361407049206,39.706554136004165 193.04630094156323,40.44689704036439 192.98019889653108,40.688641661633454 193.3994747250208,41.32322129416736 194.0926018829295,42.45639920900445 194.3286806151872,42.55460796162367 194.7838404109801,42.85678873880099 194.75173370339306,43.47625933213269 195.10868474667933,43.59713164316122 195.29943636234356,43.67267683793397 195.4165314135434,43.7859946289674 195.5619559125016,43.929530498517806 195.72437808040746,44.050402809546334 195.7848142357529,44.28459291127057 195.92646147510752,44.62454628583427 195.97367722155906,44.82851831050495 196.08510638329727,45.198689762910206 196.2683034794167,45.57641573452257 196.5988137045775,46.15055921114822 196.96331926718344,46.61893941606012 197.18995485015085,46.936229232552215 197.26361141461527,47.17041933461417 197.27116593404753,47.32150972303397 197.61300793846928,47.797444447828404 197.69421902225338,47.865435122268345 197.66966683409856,48.33381532718025 197.62056245790154,48.58311446889469 197.60545341903705,48.81730457061893 197.64700327580184,49.02883111528471 197.72443709998237,49.21013958109579 197.79053914501452,49.34612093098881 197.83208900200447,49.53498391679499 197.84530941089832,49.74651046112306 197.529908224602,50.660607312762686 197.60167615920835,50.675716351289466 197.59034438005997,50.86457933709565 197.23150470702822,51.476495410769964 196.98031693590602,51.9071030186332 196.91799215058995,52.06574792704811 196.9595420075799,52.63233688446665 197.0199781629253,53.33490719144051 197.040753091364,53.75796027930864 197.06341664966072,54.31699471785779 197.08041431838328,55.231091568709424 197.20695251887344,55.69191725441422 197.52046507531168,56.114970342282355 196.95198748814764,56.52291439162371 196.58370466571301,56.87042228550708 195.99634077985579,57.22548469927298 195.63372384710794,57.535219995432264 195.60728302909507,57.59565615134053 194.9613716177505,57.83740077339758 194.54209578926077,58.07159087512182 194.35512143331266,58.48708944445828 194.14170625935168,58.88747897414224 194.08693599346788,58.96302416823957 194.07371558434886,59.13677811518126 194.09826777250368,59.41629533462469 195.69038274284978,60.25484699149156 195.88868887805884,60.315283146611826 196.18709239563262,60.50414613241801 196.18709239563262,60.602354885374936 196.24563992111996,60.94986277914574 196.86888777428035,60.85165402630138 197.77354147629197,60.75344527413245 198.49499808229672,60.723227196403464 199.27877947316722,60.97252633732991 200.18721043489498,61.304925192686504 201.52058311468662,61.72042376123496 202.34402573280155,61.811077994196786 203.6377371855739,61.99994098000297 203.87381591783162,61.9546138637472 204.73691976296587,62.03015905773196 205.21285448731004,61.60710596952611 206.68976303620178,60.18685631671391 207.03160504062356,59.86956650055952 207.57741906949084,59.43895889269629 208.09112639088366,59.212323309954016 208.6935993158305,59.068787440403604 209.28096320157516,59.05367840187682 209.9873107683777,59.2349868676879 210.47835453158638,59.454067931560786 210.7540944908634,59.63537639782215 210.9524006258473,59.93755717499947 211.82683625012993,61.65243308611959 212.01003334636192,61.856405111240555 212.33110042223242,62.08304069398283 212.9316847170961,62.34744887388634 213.31885383811132,62.46832118491487 213.93454717195206,62.45321214638809 214.4067046364675,62.4229940686591 214.9298551069255,62.24924012171741 216.18201670282048,61.75819635862134 216.2500073777107,61.886623188969544 216.39920913649757,62.105704252167 216.45586803223944,62.37766695161533 216.45586803223944,62.73272936549381 216.41431817536207,63.276654764390464 216.4841974803355,63.88857083806478 216.6107356806005,64.20586065455689 216.9091391983994,64.52315047026099 217.26797887120603,64.91598548107555 217.57582553818267,65.36170212780328 217.7023637386728,65.67899194361995 217.6721456609438,65.93584560420379 217.57015964872105,66.35889869240964 217.4776167854509,66.66107947003724 217.28308791007052,66.93304216948557 217.2037654560319,67.15212323268302 217.1980995665703,67.59028536020365 217.04323191809667,68.05111104545817 217.0319001389483,68.27774662865072 217.128220261822,68.4590550944618 217.30008557890565,68.67813615799697 217.4360669286861,68.93498981925623 217.45873048698283,69.16917992176847 217.3227491370898,69.9246318649932 217.24153805319315,70.74051996300048 217.1886564171674,71.21645468779491 217.28686517001177,71.3750995955344 217.48705993474118,71.57151710099795 217.7722430434211,71.71505297009809 218.05364889215974,71.79059816419542 218.35016377987543,71.92657951408843 218.59757429128155,72.17587865580288 218.716557972452,72.4402868352561 218.7864372770877,72.75002213209082 218.79021453680383,73.10508454585673 218.59001977184928,73.6187918670244 218.81854398478734,73.71700061964361 219.66465016108646,74.12494466864725 220.3105615725436,74.49511612093994 220.8998140882589,74.79729689856754 221.55894590883503,75.15235931165802 222.26151621592146,75.59052143917864 223.46835069522297,76.08156520182443 224.29934783277017,76.42907309604551 224.6090831294923,76.5877180041227 225.18889249591726,76.9201168586913 225.08312922397837,76.95788945573997 225.03969073713037,77.06365272824172 224.56753327261492,77.2525157140479 224.24835482671506,77.4489332193989 224.05571458108017,77.69823236043791 223.51934370161575,78.41591170627626 223.1850562165137,78.94472806698386 223.30592852754222,79.75306164578403 223.4419098772101,80.13834213705378 224.03682828261213,80.7729217695877 224.41644288419513,81.58880986827039 224.48632218883085,82.57089739401225 224.45799274084735,83.17525894881717 224.24835482671506,83.71918434771383 224.2238026384477,83.88538377578614 223.88762652382525,84.23289166955693 224.23513441770862,84.45952725207407 224.24457756688636,84.51996340798233 224.33712043004397,85.78912267271244 224.39377932567325,86.06863989136788 224.4749904095699,86.20462124092319 224.72240092108856,86.43125682377803 224.73373270012436,86.6881104850373 224.72995544052083,86.85430991243416 224.69596010296314,87.16404520926888 224.72617818069213,87.24714492291102 224.77528255700173,87.38312627280403 224.86782542004676,87.51155310270197 225.02835895809457,87.73063416668741 224.86782542004676,88.5616313038969 224.96036828309178,89.05267506733068 224.89615486803027,89.15088381983733 225.16434030776247,89.71747277725588 225.13223360028798,90.26139817615254 225.0491338864207,90.35960692865918 225.43441437746532,91.51544840168043 225.62138873341343,91.66653879043795 225.63838640213598,91.88561985442341 225.47218697462654,92.56552660287538 226.40139286479297,93.1925517157519 225.7592587131645,93.59294124554843 225.9688966272968,95.05096349608472 226.09543482778693,96.05571458102389 225.17567208691082,97.22666509279708 224.325788650783,98.31451589070296 223.67421134986427,98.88110484812151 222.80733024490132,99.20594918382072 222.67701478480762,99.02464071767193 221.83090860828335,99.21350370347811 221.90078791303165,99.74232006351028 222.2690707353537,99.99161920477444 222.97730693212688,100.3693451763868 222.40882934496284,101.54029568827255 221.8686812054446,102.38640186479681 220.5088677076401,102.22775695671962 220.21613007964052,102.68102812310474 219.79685425126337,102.9454363032334 219.65520701190871,102.83967303118193 219.4153510198223,102.9152182251667 219.04329093778412,103.20228996347952 218.80721220552638,103.47425266337814 218.65045592730726,103.6631156491843 218.0102104055369,103.93507834863264 217.9818809575534,104.45634018968285 218.18018709264987,105.21934665188954 218.2236255793853,105.42331867656021 217.7930179717472,106.31475196967796 217.7571340045566,106.54138755253281 217.36429899407975,107.4857024815637 217.01679110019637,108.23359990580647 217.13577478125427,108.36202673581697 217.2490925726254,108.55844424116796 217.63248443392453,109.21568743154833 217.6457048428184,109.30634166484788 217.73824770586342,109.35922330109875 218.2311800990427,109.78983090862427 218.14052586563056,110.14489332171475 218.61834921972022,110.31864726865643 218.7618850889329,110.49995573548065 219.38135568237718,110.98344497858162 219.9347242307893,110.99855401778383 221.3096467674583,111.03632661483249 221.3398648451873,111.10431728961015 221.82335408885112,111.68601528589319 222.0178829642315,112.02596866090717 221.3681942931708,112.52456694309778 220.58252427221709,113.16670109461366 219.47012128570609,113.99769823261113 219.61743441463491,114.26966093205947 219.75341576441537,114.3678696842284 220.05937380142137,114.65494142321664 220.21801870949858,115.67480154600717 219.99516038624728,116.21872694524154 219.75719302424406,116.52846224241397 219.31714226742824,117.80517602612603 219.26426063117736,117.99403901193222 219.3209195269192,118.96857201869211 219.20571310569002,119.63336972861731 219.42290553925454,119.82978723374316 219.21137899515162,120.17729512796424 218.8600938416647,120.52480302218534 218.70711482304912,120.65322985208326 218.69200578418463,121.04606486256012 218.886534659565,121.95260719454235 218.97907752261003,122.42854191911165 219.12072476196465,122.82137692925079 219.38135568237718,123.23687549824953 219.47767580513835,123.35019328928296 219.66842742091515,123.59193791134001 220.02915572369238,123.95455484408788 220.26523445595012,124.13586331023667 220.9149231271234,124.62690707367045 221.14533596980692,124.98196948676093 221.666597810632,125.4956768079286 222.3616135985113,126.16047451852923 222.8111075048426,126.60619116458152 222.95842063365885,126.7874996311806 223.1246200611683,127.00658069437806 223.3361466052712,127.33897955007237 223.52312096110674,127.52028801588344 223.7063180574513,127.55050609361243 223.8857378938546,127.76203263760279 224.64307846704997,128.35883967275032 224.62985805793096,128.46460294491436 224.4995425977247,129.3560362380321 224.40511110482163,129.86218904033038 224.3616726180862,130.25502405080724 224.3843361764955,130.4741051140047 224.3805589166668,130.6176409835551 224.39000206606968,130.72340425571915 224.4957653380086,131.05580311028774 224.782837076434,131.81880957316986 224.41644288419513,131.96989996158965 223.4607961757907,132.377844010931 222.96597515309108,132.52893439968852 221.69303862875742,133.05019624017586 221.71192492722548,133.39014961473956 221.51928468181575,133.8056481834006 221.26809691069352,134.16071059682878 220.73361466097458,135.12768908404385 220.05559654181783,135.80004131396416 219.45312361698353,136.26086699888094 219.31903089706114,136.38929382990457 219.4455690975513,136.6839200874245 219.4304600586868,136.76701980151694 219.82707232899236,137.5073627057646 220.31811609197584,138.35346888161345 220.89225956882663,139.16180246108905 221.24732198214227,139.60751910747905 221.70437040779322,139.9852450790914 222.0367692628121,140.43096172548144 222.42016112399864,140.88423289186656 220.933809425704,141.68501195134706 220.03293298352108,142.47068197230078 219.23970844302255,142.89373506095689 219.39268746152555,143.39233334359778 219.5135597725541,143.61141440679523 219.62498893406718,143.76250479521505 219.89506300377,144.21577596160017 219.94416738019217,144.35931183036257 219.93661286075994,144.4877386610485 219.86862218575715,144.91079174891664 220.59763331108158,145.0996547347228 221.30209224802604,145.5680349396347 221.36063977373854,145.9004337949913 221.31531265714506,146.02130610601984 221.30209224802604,146.2479416884244 221.1585563790385,146.37636851911031 220.6391831680715,147.0411662286978 220.26145719645913,147.28291085075483 220.20857556020826,147.3584560455276 219.60232537577042,147.38111960326148 219.3303626763221,147.46421931724134 218.85253932223245,147.76640009453124 217.38129666291488,147.98548115772869 216.4483135128072,148.83158733459067 215.77784991319524,149.17909522847404 215.43034201931187,149.51904860303773 214.8939711397349,150.0478649627322 215.09038864497333,150.31227314331113 215.09605453443493,150.6673355564016 215.19237465730865,151.04506152801397 217.22831764418672,151.7854044327119 217.7816861927114,152.1329123265953 217.87045179592775,152.22356655978226 218.52958361650388,152.65417416697008 218.380381857717,153.00168206085345 218.716557972452,153.2509812021176 219.9536105294825,154.0366512235216 220.10281228826938,154.13485997569055 219.95172189962443,154.5125859473029 219.8044087706956,154.9734116325574 219.8346268484246,155.06406586619465 220.60896509011738,155.72130905691273 220.1405848854306,156.54475167491512 220.26523445595012,156.86959601061432 220.77705314748488,157.95744680840764 220.8582642314941,158.199191430127 220.99046832155844,158.5315902854836 220.29356390382105,158.78088942674773 219.57210729804143,159.29459674791542 218.8506506923744,159.74031339464315 218.90353232828755,159.80074954987597 218.98852067190032,160.39000206615412 217.48705993474118,161.1001268926728 217.79112934188913,162.04444182170369 218.12541682676607,162.72434857060594 218.0630920415626,163.04163838631004 217.99510136678495,163.17006521699597 217.6457048428184,163.6233363825931 217.1848791574513,163.84997196544793 216.67683772563268,164.17481630114713 216.07625343076901,164.67341458378803 215.39823531194997,165.15690382722673 215.36235134442165,165.2551125804088 215.32835600697652,165.59506595463478 215.32835600697652,165.8594741345383 215.3604627145636,166.1616549120533 215.46056009715343,166.36562693683655 215.8042907312081,166.88688877721134 215.92516304223665,167.15129695779027 214.82786909459014,168.14093900307697 214.43881134382943,168.7377460382245 215.16404520932517,169.59140673440615 215.91571989294633,169.71983356430405 215.97993330812042,169.8255968364681 214.94496414578998,171.03431994607794 214.37837518837145,172.3488063267261 213.89677457456568,173.35355741166526 213.7910113026268,173.59530203372233 213.63425502440765,173.84460117431107 213.2414200139308,174.37341753468095 213.29052439012784,174.4489627294537 213.28296987069558,174.65293475378667 212.48785670045157,175.59724968281756 211.77017735450065,176.2091657571673 211.75129105580746,176.42824682081505 211.2300292149824,177.41033434644433 209.49437837553617,179.9939799926106 209.18653170867208,180.4850237552564 209.11098651423703,180.4925782752515 208.96367338530823,180.43969663900063 208.09679228045783,180.3641514449033 207.88337710649685,180.34904240570108 207.11092749466215,180.25083365319446 206.56322483571165,180.06952518659537 205.8908726063542,179.75223537055356 205.5849145693482,179.59359046247636 205.07309587781344,179.56337238474737 204.7161448345272,179.5331543073561 204.55749992645,179.50293622917684 203.61507362738973,179.45760911258336 202.61032254290083,179.4198365158724 202.06450851380842,179.36695487962152 201.6301236464542,179.3896184378057 201.18251837009353,179.4198365158724 200.7915719895873,179.4047274766702 200.50638888090742,179.3896184378057 200.34207808336862,179.41228199632758 200.0757812733819,179.4047274766702 199.3241065897607,179.33673680155482 197.7810959957242,179.17053737460824 197.26361141461527,179.079883140971 196.77823354120596,179.01189246619333 196.45905509508094,178.95145631107306 196.2683034794167,178.92123823289378 195.04258270153457,178.8910201551648 194.2096969341293,178.83813851925163 193.4448018416143,178.83813851925163 193.01041697426007,178.80792044152264 192.17564257710933,178.70971168935372 191.93389795516484,178.67193909196735 191.4069702247656,178.61905745571647 191.21810723895942,178.5888393783252 190.8762652347628,178.52084870354753 190.47020981516692,178.490630625706 189.50134269798122,178.46041254763927 188.54380735994388,178.38486735365453 187.9205595067835,178.30932215888177 187.36719095848395,178.33198571774136 187.25576179685828,178.32443119774626 186.88370171470754,178.33954023661076 186.47386903550813,178.38486735365453 186.13769292088568,178.43019446991028 185.96771623354758,178.490630625706 185.8374007733413,178.5888393783252 185.1480508752613,178.92879275255117 183.6352583589538,179.0949921798355 182.18667925770782,178.86835659731835 181.856169032547,178.81547496106748 180.62667099494874,178.63416649458097 179.90899164888526,178.5661758194656 179.4651636323533,178.55862130014592 179.1403192966541,178.55862130014592 178.30365626953272,178.5737303394607 177.38955941845595,178.5963938971946 177.0873786409409,178.60394841718968 177.07415823204704,178.3773128336594 176.65110514372864,178.33954023661076 175.92587127845803,178.2564405229686 175.47637737212676,178.23377696478443 174.82291144123735,178.15067725080456 174.50751025494105,178.12045917307557 174.11278661449356,177.9618142649984 173.71995160412928,177.81827839623597 173.44421164485223,177.79561483771408 173.04759937454668,177.76539676032283 172.78130256455998,177.69740608520746 172.44512644993753,177.4934340604242 172.12028211423834,177.4329979046285 171.82187859666456,177.38011626871534 170.4658423585762,176.90418154493406 169.81426505754487,176.67754596140378 168.84539794035916,176.25449287387337 168.69053029199807,176.15628412091644 167.7726561810926,175.7105674741887 166.8887774074071,175.25729630859158 166.64892141543325,175.2346327500697 166.3637383069785,175.15153303642754 164.8717207189971,174.66804379265116 164.6564169152906,174.67559831230855 164.4732198190586,174.584944079009 164.06149850988857,174.46407176798047 163.63844542168272,174.35075397694706 163.43069613729594,174.23743618478792 163.15117891841535,174.04857319898173 162.47504942922922,173.55752943633595 161.2663263199571,171.90308968033608 160.73750995981234,171.18541033449773 160.6015286100319,171.02676542608285 160.50520848715817,170.89078407652752 160.36356124780355,170.71703012958585 159.99905568519762,171.30628264552627 159.8914037832881,171.49514563133246 159.81963584868174,171.70667217566051 159.71576120648834,171.92575323885796 159.40224865005007,172.40924248263437 159.14539498935366,172.6736506624253 158.83188243302797,172.96072240107586 158.38994304612893,173.35355741166526 158.23696402762593,173.45932068337902 157.78558149166173,174.05612771897685 157.3625284033433,174.70581639003754 156.75627821913062,175.5292590080399 156.4295452534608,175.99008469329442 155.9063947830028,176.5113465344572 154.91675273715327,176.95706318084723 154.01398766499972,177.28946203575353 154.0876442295767,177.37256174984597 154.2425118778252,177.51609761860837 154.35582966942147,177.60675185190792 154.9243072565855,177.9315961872694 157.0716794052018,179.16298285461312 157.68170684935578,179.3896184378057 158.1236462362548,177.81072387624087 158.17086198270636,177.1685897250627 158.68079204427048,177.3272346328022 159.4494643965016,177.86360551249174 160.72428955069336,178.5963938971946 161.10957004173795,178.81547496106748 161.71204296657226,179.12521025756448 161.91790362110098,179.22341901052138 162.20308672955574,179.47271815144785 162.75078938850623,179.26874612677716 162.99442264019623,179.31407324337064 163.16062206770567,179.39717295746308 163.3136010860961,179.525599787361 163.42503024772174,179.59359046247636 163.61200460366987,179.6691356569114 163.8329742970631,179.73712633202678 164.2088116388174,179.91088027896848 164.3617906573204,180.0241980700019 164.62619883744907,180.27349721171635 164.77351196649045,180.34904240570108 164.96426358204212,180.41703308047875 165.5648478769058,180.53035087230018 165.65361348034725,180.24327913353707 165.72349278498297,180.14507038103042 166.54693540309793,180.56056895002916 167.4742526636314,180.89296780493547 167.92941245931175,181.37645704837416 168.23537049631776,181.6257561900886 168.93038628397193,182.12435447239176 168.3222474697886,183.09888747881396 167.99173724462779,183.7108035531637 165.86702865430823,184.53424617150378 165.32310325518642,184.82887242879858 165.7763744210087,185.50877917837624 165.93879658891458,185.73541476078083 166.43550624169742,186.23401304375943 166.69235990228125,186.4228760295656 167.23439667143242,186.7023932479959 167.3382713137384,186.77038392311127 168.3864608849627,187.07256470073887 168.7887390446173,187.36719095859652 170.19199102915724,188.1528609796628 170.1277776139831,188.31906040660937 170.0786732377861,188.53058695127515 170.533833033579,189.25582081665831 171.03054268624925,189.80730073521238 171.85209667439355,190.95558768891397 171.97674624502565,191.09156903846926 172.08628677679323,191.2879865435951 171.56124767625204,191.4768495294013 171.09664473116882,191.54484020417897 170.7566913567177,191.54484020417897 170.46206509897263,191.507067607468 169.83881724569966,191.4919585682658 169.66128603915442,191.45418597121713 169.31566677524168,191.37864077689466 168.9266090242558,191.25021394620876 168.70563933086257,191.1822232714311 168.3184702099599,191.12934163585564 168.2259273469149,191.12934163585564 168.03328710139257,191.1822232714311 167.89919438169534,191.24265942733936 168.16549119156946,191.58261280156535 168.09938914642473,191.59016732077245 168.19193200946975,191.70348511259385 168.60931920810143,192.1038746427281 168.8680614986559,192.48915513320986 169.41387552763575,193.96228642294838 169.51397291011304,193.96984094226804 168.59232153937887,194.8083925987972 168.39590403414044,194.30223979717434 168.12016407486342,194.0453861362528 167.71033139588914,193.93206834488166 167.10030395151003,193.8716321897614 166.94165904343285,194.18136748659612 166.89822055681,194.27202171910764 166.7055803111751,194.6573022107151 166.63192374682328,194.8235016376617 167.3193850150452,195.19367309040467 168.26181131421805,195.68471685305045 168.47900374800773,195.88868887772114 167.53091155914814,197.02942131255332 167.2683920089901,196.97653967630245 166.96054534212604,196.8858854426652 166.63192374682328,196.78767669049628 166.52804910462987,196.51571399104793 165.77826305086677,195.6771623340685 165.48552542286717,195.56384454202194 165.01714521818042,195.40519963394473 164.0936052174756,195.29188184291132 163.3419305340796,195.1483459733609 162.83766636197709,194.9897010652837 161.9783397764464,194.49110278298053 161.20400153464104,193.9018502674904 160.80550063459,193.63744208691145 160.70351462225466,193.9018502674904 160.622303538358,194.43822114717995 160.6109717593222,195.05013722085425 160.6714079146676,195.54873550349515 160.7903915958381,195.9491250336294 160.97547732181556,196.40239619922653 161.10768141199247,196.97653967630245 161.18700386591848,197.3844837253061 161.3192079560954,198.07949951329797 161.491073273179,198.7971788595866 161.7063770768855,199.46197656917408 161.8895741731175,199.82459350225966 162.08221441875236,200.05122908545223 162.18797769069124,200.18721043500753 162.47316079925858,200.5498273677554 162.669578304497,200.83689910606822 162.7243485703808,200.93510785857487 162.8225573231126,201.19951603881609 162.8395549917226,201.46392421894475 162.81689143342584,201.76610499623465 162.7847847258388,201.93985894351405 162.7186826809192,202.06073125420485 162.52037654571012,202.26470327887554 162.20119809981026,202.43845722581722 161.4646324550536,202.55932953684575 161.09068374326992,202.55932953684575 159.9008469325784,202.39313010877345 159.7365361350396,202.31758491512642 159.5684480775595,202.28736683728485 159.39847139044653,202.27225779842036 159.30026263771475,202.28736683728485 159.11139965190856,202.33269395365318 158.95275474383138,202.41579366729533 158.75444860884744,202.61221117264634 158.49192905846428,202.87661935254985 158.58636055136736,203.08059137722051 158.7431168295865,203.24679080529282 159.14161772963755,203.6018532183833 159.27948770938863,203.70761649054734 159.4494643965016,203.8964794763535 159.583557116424,204.05512438398043 159.6912090184461,204.2137692920576 159.77808599202953,204.3799687201299 159.8517425562688,204.62926786071864 159.89329241325873,204.85590344424892 159.82907899797206,205.3393926880253 159.7875291410947,205.5282556738315 159.6968749080203,205.73978221737156 159.6421046421365,205.85310000919299 159.55522766866565,206.08729011125493 159.4815711040887,206.42724348615636 159.47590521451448,206.9787234043727 159.36825331271754,207.36400389564244 159.1170655417079,207.93814737260578 159.00752500971515,208.26299170796727 159.00752500971515,208.51229084934403 159.07173842488925,208.77669902913496 159.27004455998576,209.45660577837492 159.29459674814055,210.07607637170662 159.33425797515986,210.45380234331898 159.48723699366286,210.9372915870954 159.75164517390408,211.405671791557 159.90462419229453,211.71540708872942 160.21058222941312,211.94204267124655 160.5146516364485,212.14601469591724 161.1964470152088,212.49352258980062 161.38908726084367,212.62950393969362 161.59117065554372,212.8410304840217 161.63083188256303,212.90902115879936 161.7403724143306,213.1432112608613 161.76114734299443,213.4680555965605 161.73659515472704,213.6267005046377 161.66860447972425,213.94399032101722 161.49296190303707,214.14040782614308 161.36642370254694,214.24617109830712 161.15867441804755,214.35948889001597 160.94714787394463,214.4199250452488 160.5675332724742,214.45769764263517 160.45988137067727,214.45014312264007 160.3805589165261,214.4199250452488 160.13314840512,214.2914982145629 159.97450349715538,214.19328946205624 159.8026381799592,214.04219907363643 159.58544574628206,214.01198099624517 158.76389175802518,213.9742083988588 158.5636969931832,213.9590993599943 157.98577625650373,213.89110868521664 157.8044677901298,213.86089060703736 157.36063977359782,213.75512733521103 157.1245610413401,213.70980021827984 156.94702983456972,213.6871366600957 156.72606014117648,213.6720276212312 156.46354059101847,213.67958214088858 156.13303036585765,213.74757281566622 155.83462684828388,213.86844512669475 155.45123498698476,214.14796234580047 155.1773836575658,214.3821524478624 154.84876206226303,214.71455130321903 154.74866467989833,214.8807507305033 154.71655797231128,215.084722755174 154.73922153060803,215.2207041047293 154.93563903584646,215.69663882952372 155.0470681974721,215.8779472957851 155.16416324867194,215.95349248976984 155.47578717513957,216.0214831648852 155.67975919981023,216.03659220386228 155.978162717384,216.11969191750444 156.67695576497945,216.35388201956638 157.24165609253993,216.63339923900983 157.37386018249168,216.74671703004324 157.51361879198825,216.99601617175767 157.65148877173934,217.41906925962581 157.84035175754553,218.1367486061396 157.89889928303288,218.52202909707162 157.90456517271963,218.99796382085293 157.7383657452102,219.5343347008802 157.5853867265946,219.70808864782188 157.3625284033433,219.8591790362417 157.0320181781825,219.95738778874832 156.77327588762805,220.0253784642014 156.59385605111217,220.0404875030659 156.34077965013188,219.9800513472702 155.3379171956136,219.60987989520268 154.90542095811747,219.45878950678286 154.2670640660926,219.23970844290997 154.06498067139253,219.19438132665422 153.46439637641632,219.17927228778973 153.33785817581358,219.23215392359032 153.258535721775,219.41346238985167 153.1980995664296,219.80629740032853 153.26986750103595,220.14625077455452 153.54749609005844,220.74305781003974 153.7193614071421,221.06034762585642 154.0328739636929,221.49850975326447 154.36338418885373,221.88379024419652 154.77321686816572,222.4050520853593 154.95074807459838,222.7223419010634 154.99985245102056,222.84321421209194 155.10939298278814,223.3342579755257 155.17927228742386,223.62888423338336 155.3492489746494,223.840410777036 155.7364180955521,223.99905568545088 156.0272670936936,224.05949184057116 156.60329920040246,224.1954731908019 156.87526189996336,224.3692271377436 156.9281435361017,224.452326851048 157.14722459963684,224.80738926458878 157.31342402714628,225.17000619767435 157.38330333189458,225.2682149498433 157.49850975312376,225.38153274121444 157.69681588822027,225.4646324551943 157.87623572473612,225.51751409144518 158.13686664514867,225.5628412078135 158.3219523713513,225.65349544100047 158.64679670682534,225.83480390726183 158.80733024487319,225.91790362090399 158.99241597085066,225.96323073749747 159.20583114481164,225.97833977681225 159.54578451926278,226.00855785454124 159.7233157259206,226.06899400999922 160.25402071603597,226.28052055365185 160.89615486777697,226.65824652526422 161.27199220964386,226.81689143367913 161.37208959200856,226.89999114732126 161.53073450019832,227.10396317165424 161.5836161361115,227.3003806774555 161.6100569542369,227.43636202734854 161.6213887332727,227.95762386806103 161.73470652486898,228.4637766700216 161.8404697968079,228.67530321389938 161.94623306885933,228.80373004390987 162.03499867230082,228.87172071902523 162.1162097560849,228.96992947153188 162.14831646367196,229.1361288996042 162.1294301652039,229.21922861324632 162.05766223059757,229.39298256018802 162.05199634102337,229.53651842895042 162.03499867230082,229.79337208987198 161.84613568649465,230.18620710034884 161.78758816078215,230.3524065280834 161.8839082835433,230.82078673299532 161.97078525712672,231.01720423767088 162.10865523665265,231.21362174347217 162.14831646367196,231.34960309302747 162.12187564577167,231.51580252031178 162.01988963343632,231.74243810350433 161.97078525712672,231.86331041453286 161.97456251673026,232.04461888034393 162.11243249648135,232.256145424672 162.34851122873908,232.5809897600335 162.45616313053603,232.78496178470417 162.5392628444033,233.04181544562573 162.4901584680937,233.2231239122248 162.36173163763294,233.34399622325333 162.05766223059757,233.45731401428674 161.7139315965429,233.50264113088022 161.24366276166035,233.49508661167312 161.00191813982843,233.5101956505376 160.82249830342514,233.60084988383716 160.63930120708056,233.77460383066628 160.47121314971307,234.30342019114872 160.37867028666804,234.6509280845818 160.2766842743327,234.80201847378962 160.11992799611357,234.93799982334494 159.91595597144288,235.06642665324284 159.58544574628206,235.24018060018454 159.094401983186,235.36105291121305 158.6845693039866,235.40638002780653 158.14253253472285,235.23262608131515 157.9612240683489,235.20240800313587 157.65337740170997,235.18729896427138 156.68262165455363,235.23262608131515 156.21235281989624,235.29306223643542 155.74774987481302,235.39127098894204 154.9280845164142,235.70100628611448 154.603240180715,235.9200873497622 154.10086463847057,236.22982264614663 153.5002803436069,236.52444890377913 153.01867972980114,236.62265765673607 152.6352878686146,236.65287573446506 152.22167792981162,236.65287573446506 151.74952046529617,236.68309381185634 151.10927494330065,236.82662968140673 150.45014312294964,236.94750199243526 149.7683477443019,237.10614690006219 148.963791424655,237.28745536666125 148.2706642667463,237.5216454687232 147.5246554728119,237.77849912998246 146.7352081920295,238.06557086840786 146.00053117724343,238.2997609704698 145.36028565547306,238.39796972297646 144.703042464755,238.54150559252687 144.53684303724555,238.57172366991816 144.289432525952,238.6397143446958 144.10623542960744,238.73036857833304 144.0042494172721,238.7908047334533 143.86637943785874,238.93434060266603 143.74928438643377,239.08543099142352 143.630300705601,239.28940301643192 143.46410127797898,239.64446542963498 143.23368843518287,240.09773659523208 142.9107327294543,240.65677103378124 142.5311181279839,241.30645970484193 142.3177029540229,241.6841856764543 142.10239915031642,241.9939209729513 141.86065452837195,242.24322011387775 141.63213031554648,242.4698556970703 141.49992622548214,242.56806444957695 141.28839968137922,242.71160031878964 141.00321657281188,242.8022545524269 140.37996871976407,242.99111753823308 139.84926372953612,243.24041667915952 139.60940773756226,243.36128898985032 139.339333667972,243.55015197565652 139.12969575361456,243.7390149614627 138.9295009887726,243.95809602533558 138.7217517042732,244.2073951667123 138.6254315817372,244.34337651626763 138.40823914783493,244.74376604640187 138.06450851378025,245.47655443110472 137.88886593686794,245.79384424714652 137.68867117202598,246.26222445205843 137.431817511217,246.7532682154922 137.018207572414,247.50872015871693 136.71791542486963,247.97710036351626 136.37040753098626,248.49836220400363 136.23064892160224,248.70988874833168 135.87936376789017,249.08761471994404 135.1654616815428,249.43512261371484 134.30235783652114,249.7901850272556 133.5714580814512,250.0848112852258 132.91232626110022,250.39454658161026 132.54404343855302,250.6060731256006 132.2834125181405,250.87048130584182 132.13987664904036,251.08200784971962 131.71115767114776,251.63348776827365 131.50340838687353,251.89034142919522 131.21633664833556,252.14719509011675 130.95381709806497,252.3436125949049 130.80272670953258,252.44937586740664 130.51565497099463,252.64579337241992 130.15681529807546,252.94041963005242 129.8791867088278,253.26526396608935 129.44480184147358,253.81674388430568 129.18794818088975,254.11892466193328 129.00852834437387,254.35311476399525 128.74789742396135,254.7610588133366 128.68368400878722,254.904594682887 128.65913182051986,254.99524891618654 128.63457963236505,255.214329979384 128.63457963236505,255.51651075656133 128.65913182051986,255.74314633941617 128.46082568542337,255.7053737423675 127.69970785262446,255.6978192231604 127.42585652331806,255.7053737423675 127.22943901807963,255.7355918204342 127.10101218761886,255.80358249487415 126.98769439613515,255.89423672817367 126.84415852703502,255.96978192260872 126.66662732026464,256 126.38899873112956,255.96978192260872 126.15103136912634,255.9093457673759 125.84318470226226,255.84135509192282 125.5844424117078,255.87157316998952 125.32192286132464,255.90179124783106 125.22371410881799,255.90179124783106 125.10473042776009,255.87157316998952 125.01785345428925,255.82624605305833 124.8780948446801,255.72803730088938 124.64201611242238,255.44852008144596 124.54380735980317,255.35031132927702 124.43426682814815,255.28987517370646 124.1962994659198,255.14633930460636 124.0508749669616,255.01035795505103 123.87334376019122,254.82149496924487 123.67503762509473,254.36822380285975 123.6070469502045,254.2397969729618 123.51450408727204,254.17180629773387 123.41251807493671,254.11892466193328 123.36152506865646,254.0735975448895 123.3275297314365,253.9753887923829 123.29920028334043,253.85451648135435 123.15944167395642,253.68831705440778 123.03101484349565,253.56744474337924 122.88747897428296,253.45412695189552 122.59662997614143,253.33325464052928 122.26611975098062,253.22749136870297 121.93938678553592,253.09906453812962 121.6239855992396,252.887537994477 121.18015758259507,252.5400301007062 120.91763803243705,252.3662761537645 120.51913713227344,252.14719509011675 120.25095169242866,251.97344114328763 119.76746244876483,251.58816065168017 119.49927700892006,251.35397054961823 119.24808923779784,251.17266208301913 118.94024257093376,250.97624457800586 118.77970903299851,250.84781774731994 118.67961165052122,250.65895476151377 118.60595508628197,250.613627645258 118.4076489510729,250.52297341162074 118.25466993245732,250.50030985343656 118.06580694665114,250.48520081457207 117.76740342907738,250.39454658161026 117.46522265178749,250.3038923484233 117.3009118541361,250.2887833098965 117.21025762106171,250.2963378287659 117.07994216074287,250.33411042581454 116.68899578012407,250.46253725683817 116.49635553471434,250.49275533422946 116.34337651609877,250.47764629570267 116.17339982898578,250.43231917899664 116.00153451178957,250.38699206206542 115.83533508439271,250.37188302353866 115.63325168946753,250.33411042581454 115.56337238471923,250.273674271032 115.48404993068064,250.1150293626171 115.35940036004855,249.9941570519263 115.16676011463882,249.86573022157808 115.04777643358094,249.7901850272556 114.87968837610086,249.75241242986922 114.5926166379006,249.75996694907633 113.99203234292438,249.75241242986922 113.74084457180216,249.75996694907633 113.61997226077362,249.7901850272556 113.52554076787054,249.85062118237587 113.45377283326418,249.88083926044257 113.3329005224608,249.90350281828904 113.1289284979027,249.91861185715354 112.70587540947172,249.90350281828904 112.19594534779502,249.8128485853272 111.83899430462134,249.70708531361345 111.5047068197444,249.5937675214543 110.91734293399975,249.31425030302404 110.81157966183571,249.25381414722835 110.71714816893262,249.1480508750643 110.61516215659728,249.04984212289537 110.51506477423257,249.0045150058516 110.31864726899414,248.9742969281226 110.1392274323657,248.92896981186686 110.01457786173363,248.8685336562963 109.5801929943794,248.56635287878126 109.45932068357602,248.46058960661725 109.366777820531,248.30949921819743 109.24212824978635,248.11308171307158 109.04004485497373,247.8940006491987 108.8681795378901,247.73535574145922 108.47156726769713,247.47094756133055 108.01263021230068,247.15365774483845 107.69534039603371,246.9496857201678 107.38749372916963,246.7608227343616 106.80201847339562,246.37554224387983 106.6074895977901,246.21689733580266 106.52061262431927,246.07336146625224 106.39596305368718,245.8618349222619 106.30908608021635,245.74851713055304 106.05978693906475,245.5143270284911 105.67261781804952,245.1743736542651 104.82462301189233,244.43403074990488 104.44311978045127,244.13184997193954 104.08805736713565,243.9127689084044 102.84533892053098,243.21019860143053 102.18431847020933,242.92312686345542 101.48552542272647,242.68138224139838 100.67908047344665,242.41697406081943 100.86983208899832,241.90326673965177 101.03792014636582,240.99672440800722 101.1021335616525,240.5207896838882 98.26163425512752,240.58122583900848 92.86959601024847,240.92873373322956 91.01685011948983,241.0647150827849 90.70333756305158,241.11004219904066 88.64661964773482,241.41222297700597 86.52379968716077,241.72951279271007 85.45861244732649,241.8730486622605 84.23289166955693,242.00903001181578 83.54165314128117,242.08457520613825 82.37447988911154,242.22811107501326 82.32159825297323,242.13745684238913 82.11951485816063,241.8806031814676 81.6983503999254,241.3668958602999 81.3886151030907,241.042051524263 81.17708855910034,240.8380794995923 80.96178475516874,240.66432555265064 80.65204945855916,240.36214477581103 80.34420279169508,240.05996399852114 80.1307876177341,239.87110101271494 80.00613804710203,239.78800129839738 79.71340041910244,239.49337504110258 79.36778115507713,239.16853070506568 79.08826393597141,238.88145896675286 78.80496945726213,238.63215982582642 78.44990704394651,238.26198837308343 77.87576356709572,237.65007229940912 77.6000236078187,237.43099123621167 77.20529996759635,237.14391949711083 76.78035824953244,236.83418420095157 76.5612771858847,236.64532121514537 76.06267890346895,236.32047687910847 75.54708295210551,235.9276418686316 75.23923628524143,235.68589724691228 74.81429456717753,234.9833269396007 74.6424292500939,234.6509280845818 74.41768229709712,234.32608374922032 73.99840646849482,233.63106796156615 73.42992888121822,232.70941659105713 72.47805943275506,231.1758491460858 72.4062914981487,231.03986779619277 72.05122908505822,230.5034969161655 71.82081624226211,230.12577094455312 71.58851476960794,229.732935934414 71.13146634395699,229.04547466596694 70.73296544390594,228.49399474741287 70.60831587338643,228.3202408004712 70.44022781590635,228.07094165954473 70.21925812251312,227.72343376532365 70.13238114904229,227.55723433803936 70.075722253413,227.36081683257578 70.0473928054295,226.80933691402174 69.96995898124896,226.47693805945315 69.79620503430728,226.1898663203523 69.49591288687546,225.63838640213598 69.29571812203348,225.33620562462096 69.10118924654053,224.86782541970905 69.00298049403389,224.4825449292273 68.77256765123778,223.89329241294914 68.74990409294104,223.76486558293865 68.73668368404718,223.49290288315262 68.7026883464895,222.96408652278274 68.64980671057633,222.58636055117037 68.62903178202508,222.3899430464948 68.56104110713486,222.03488063261634 68.48360728306689,221.71003629725485 68.41939386778022,221.46829167519778 68.32873963470583,221.19632897574945 68.14931979807737,220.96969339323232 68.0038952991192,220.79593944629062 67.96612270195796,220.66751261571727 68.00767255872275,220.42576799366023 68.10965857105808,220.08581461943425 67.78481423558402,220.07070558090746 49.99580960238722,220.53153126616198 47.004219907217305,219.02818189891963 46.632159825291694,218.85442795197795 45.97302800471555,218.95263670459715 45.51220231934847,219.13394517074596 45.31956207382616,219.17927228778973 45.057042523668144,219.12639065187656 44.788857083710795,219.0508454571038 44.40546522263681,218.85442795197795 44.02585062116639,218.67311948549144 43.70478354529588,218.559801694458 43.6311269807189,218.50692005820713 43.49325700119296,218.34072063081027 43.37993920959668,218.1367486061396 43.20240800316401,217.72880455646052 43.124974178758336,217.607932245432 42.91911352445474,217.3435240655285 42.734027798139536,217.1017794439217 42.46584235829476,216.86003482220238 42.3732994953623,216.77693510810994 42.354413196669114,216.65606279753172 42.42240387167191,216.45964529173042 42.543276182475296,216.23300970887558 42.57160563045879,216.15746451489082 42.492283176420194,216.11213739784705 42.33552689820107,216.05170124272678 41.70472452560842,215.76462950396368 41.5290819486961,215.65886623224992 41.255230619277135,215.33402189688843 40.99082243926105,214.99406852187445 40.637648655690924,214.4425886033204 40.554548941936204,214.2839436956935 40.51111045542592,214.14796234580047 40.43367663102025,213.89866320408603 40.36946321607129,213.8004544519171 40.28447487223337,213.70980021827984 40.19004337933028,213.6569185823667 40.03517573096921,213.6267005046377 39.81231740771791,213.60403694679124 39.66122701929811,213.57381886872454 39.51202526028608,213.51338271360427 39.38548705990851,213.452946557696 39.28161241771511,213.43028299984957 38.741464278196865,213.3774013635987 38.422285832184414,213.30185616927622 38.14087998344578,213.21120193597667 37.8840263226368,213.09788414460553 37.71216100555317,212.99967539198633 37.547850207901796,212.863694042431 37.423200637269716,212.74282173106477 37.181456015550374,212.40286835650107 37.096467671825025,212.2442234487616 36.93593413400234,211.84383391907764 36.81317319311575,211.5718712196293 36.64130787603212,211.35279015598155 36.51099241593843,211.2092542865437 36.38823147505184,211.11860005324417 36.212588898364665,211.02039130073754 36.07283028898066,210.9599551455047 35.749874583139515,210.85419187300295 34.95476141289549,209.91743146329173 34.36928615678376,209.3432879865535 33.87446513408414,208.64827219889932 33.545843538781384,207.73417534759741 32.07460087935123,207.43199457042007 30.814884764023997,207.19780446824555 30.076430489634397,207.07693215687934 26.795880425955886,206.51034319946078 24.712721692513703,206.10995366977681 23.35668545442532,205.86820904805748 23.03184111895126,205.82288193135142 22.801428276155146,205.79266385328472 22.661669666771143,205.77755481442023 21.581373387847215,205.61890990668076 20.85047363277729,205.5055921149719 19.407560421218065,205.2411839350684 19.352790155334272,204.59904978332736 19.075161566424327,203.19390916904194 18.510461238638705,202.22693068148916 18.344261811129265,201.94741346238342 18.208280461461385,201.56968749077106 18.051524183242254,201.13907988358326 18.134623896884403,200.2778646678568 18.10251718929735,199.17490483119897 18.642665328703032,199.1371322338126 18.59922684196761,198.71407914594445 18.53690205665157,198.39678932911465 18.444359193719112,198.10216307148215 18.542567946225756,197.65644642475442 18.623779030234985,197.2107297783644 18.56712013438056,196.51571399104793 18.795644347206036,196.05488830568086 19.13182046194104,195.1332369344964 19.32823796717947,194.73284740503757 19.664414082027044,194.3173488361514 20.028919644520403,194.15870392807423 20.164900994300854,194.12093133068785 20.491633959970688,194.06804969443698 20.657833387254986,194.10582229182336 21.10921592333176,193.77342343714218 21.19987015674387,193.75075987873288 21.466166966618015,193.50901525701354 21.73246377660473,192.9348717795999 21.630477764269394,192.37583734217645 21.06577743670891,192.08121108420622 21.381178622892662,191.22755038847487 21.74379555564053,189.99616372101855 21.90810635351705,189.8828459293097 22.18384631256893,189.69398294350353 23.439785168292612,188.87809484504595 23.536105291053765,188.90075840289242 23.945937970253176,188.09997934341192 24.246230117572434,187.525835866336 24.52385870670752,186.97435594811967 24.80148729595518,186.5135302621897 24.950689054742064,186.4153215100208 25.00923658022941,186.24912208273648 25.40773748039302,185.51633369724564 25.66647977083492,185.03284445380697 26.36149555871424,184.03564788852518 26.605128810404214,183.70324903395658 26.625903738730322,183.27264142609334 26.680674004614115,182.86469737708973 26.82232124396875,182.5398530413905 26.96963437289757,182.27544486081158 27.434237317980777,181.4142296454228 27.74586124467355,180.60589606628494 25.964883288408686,180.53790539150728 24.070587540885256,180.44725115820773 23.17915424776751,180.41703308047875 22.0270900343498,180.37170596422297 21.239531383538026,180.3641514449033 20.63894708878694,180.3792604837678 20.23478029904914,180.3792604837678 19.779620503256243,180.3641514449033 19.50576917394985,180.40947856160935 19.116711423076545,180.6663322221932 18.553899725486698,180.6889957802648 18.140289786458588,180.7041048191293 17.947649541048854,180.71921385810634 17.649246023475087,180.7872045332217 17.50759878412045,180.7872045332217 16.81824888581532,180.61345058594233 16.516068108638,180.56056895002916 16.448077433635202,181.06672175187717 16.410304836473966,181.3084663739342 16.304541564535075,181.6257561900886 16.172337474358176,181.82217369510187 15.987251748268118,182.08658187500538 15.726620827855589,182.38120813331332 15.47921031644949,182.61539823537527 15.207247616888589,182.7438250660612 14.980612034033744,182.78915218231697 14.704872074756718,182.7664886241328 14.42724348550906,182.7287160271967 14.066515182619254,182.69094342981032 13.803995632348661,182.77404314345247 13.794552483170923,182.47941688548224 13.634018945123097,182.5700711191195 13.15619559114603,182.2603358222848 12.976775754517586,182.33588101626955 12.285537226466962,181.87505533135274 11.870038657693364,181.66352878713727 11.463983238322644,181.39156608723866 11.150470681884382,181.14982146596958 10.655649658959616,180.6663322221932 10.036179065515341,180.9760675190279 9.371381355590154,181.35379349064027 8.835010475900598,181.64086522861538 7.909581845337738,182.109245433865 6.62153628213958,182.19234514750713 6.139935668333817,181.71641042338814 5.9397409034918365,181.47466580133107 5.78865051473432,181.26313925700302 5.633782866485822,181.11960338812804 5.512910555457295,180.9836220378973 5.367486056386535,180.74187741651568 5.303272641325004,180.62855962480683 5.233393336464146,180.41703308047875 5.114409655518823,180.1903974979616 4.848112845419536,179.8504441230602 4.680024788164606,179.62380854054308 4.377844010762145,179.11010121869998 4.287189777687749,178.96656534993755 4.19653554438821,178.7248207278805 4.202201434187538,178.51329418355243 4.171983356233406,178.02980493977606 4.143653908362479,177.9467052261339 3.9491250330946834,177.58408829338603 3.849027650504836,177.4405524246236 3.697937261972462,177.28190751654643 3.4070882638309428,176.76820019504103 3.340986218686208,176.59444624809936 3.2767728035121064,176.39047422342867 3.2767728035121064,176.2091657571673 3.2843273229443537,176.08073892659397 3.337208958970084,175.98253017397474 3.391979224853877,175.91453949885937 3.552512762789131,175.77855814930408 3.7432643785659456,175.61991324133945 3.8962433969563817,175.48393189178415 4.0246702273045845,175.29506890597796 4.192758284784658,175.0684333227854 4.374066751158591,174.88712485652403 4.4949390619619765,174.79647062333706 4.549709327845769,174.19210906853215 4.6328090417130605,173.44421164451452 4.2531944401300645,172.51500575434812 4.200312804216905,172.09195266614228 4.183315135381777,172.0390710302291 4.060554194832902,171.7368902530518 3.9491250330946834,171.45737303394608 3.849027650504836,171.2534010092754 3.7961460144791053,171.06453802346923 3.7734824561823634,170.9134476350494 3.7413757485953125,170.73969368810774 3.724378079872756,170.6112668574218 3.578953580914568,170.1504411721673 3.5015197567340333,170.06734145818743 3.339097588828146,169.8407058753326 3.171009531573216,169.5309705784979 3.042582701225012,169.21368076279379 2.8669401243126926,169.0097087381231 2.717738365525809,168.83595479118142 2.515654970825766,168.57910113059756 2.6214182427646566,168.60176468866916 2.608197833758224,168.53377401355382 2.4835482631261443,168.11072092534798 2.3985599196259337,167.876530823286 2.162481187368207,167.20417859370343 2.0227225777590614,166.9397704134622 1.9131820459914761,166.6526986751494 1.8489686309299453,166.39584501456554 1.8395254816396365,166.19187298989488 1.873520818972178,166.03322808147996 2.075604213897363,165.59506595463478 2.1454835186456505,165.39864844928377 2.1643698171136974,165.32310325484872 2.334346504451832,165.1946764249508 2.9859238053705868,164.66586006458093 3.1898958300412628,164.4392244817261 3.380647445705506,163.89529908237913 3.8943547672108907,162.25596836535632 4.060554194832902,161.8631333552172 4.234308141549446,161.71204296679738 4.4458346857649405,161.57606161690438 6.727299554303613,160.48065629900339 7.2712249535379865,160.16336648296155 7.346770147635317,160.0727122493243 7.512969575257328,159.85363118612685 7.809484462860461,159.1737244372246 8.013456487531137,158.68268067390338 8.22498303163406,158.13875527500673 8.406291498007995,157.80635641965014 9.465812848493243,156.32567061126738 10.436568595424445,155.04895682733016 10.748192522117217,154.56546758355378 10.821849086469056,154.2406232481923 10.78407648930782,153.66647977077864 10.729306223424027,152.79015551720082 10.646206509781878,151.6494230828189 10.402573258091904,150.95440729471443 8.944551007668183,147.72107297827546 8.801015138342914,147.42644672030525 8.617818042110919,147.10915690381316 8.3911824591435,146.81453064584295 7.760380086550854,146.17995101398446 7.375099595506244,145.85510667794753 7.239118245838364,145.6209165758856 7.1390208632485175,145.43205359007942 7.099359636229219,145.1223182932447 7.02759170162287,143.57364180940885 6.936937468435903,141.39038569337683 6.921828429571408,140.62737923128273 6.8576150143973065,139.3582199665526 6.836840086071198,138.82184908686307 6.759406261890663,138.4667866737726 6.528993419207122,138.26281464898932 5.835866261185865,137.82465252158127 5.450585770253826,137.64334405531991 5.121964174951071,137.4922536669001 4.866999144000154,137.41670847257762 3.9189069554782656,137.3487177978 3.6412783662306074,137.3487177978 3.308879511099157,137.28828164189173 3.0388054413963177,137.1447457731293 2.6742998789029584,136.90300115107226 2.170035706800454,136.58571133458014 1.8489686309299453,136.3515212325182 1.739428099049789,136.44972998468714 1.6393307165725128,136.45728450468224 1.4202496530373425,136.47994806241613 1.2993773421213863,136.502611620938 1.1482869535890121,136.41195738763847 1.025526012702423,136.30619411581213 0.8838787733477871,136.17021276625684 0.5854752557740204,135.89825006613307 0.4381621269577699,135.77737775544227 0.26251955004545,135.64895092554434 0.06421341494895948,135.5356331333852 0,135.28633399245876 0.02455218792966137,135.1125800455171 0.04910437608446496,134.71974503504023 0.06421341494895948,134.49310945184766 0.10387464196825759,134.34957358263497 0.1435358689875557,134.2589193497857 0.28896036817088655,134.00962020807125 0.35883967280660256,133.85852981965147 0.40983267897427156,133.70743943123165 0.45138253585163146,133.40525865360405 0.568477587051464,132.9973146042627 0.649688670948122,132.76312450220075 0.6742408592154967,132.62714315264543 0.7497860534253982,132.43828016683926 0.8404402867249364,132.21919910319153 0.9367604093735179,131.90190928681199 1.0481895709991649,131.4410836015575 1.067075869579783,131.2295570572294 1.0727417591539685,130.9500398381237 1.0406350515669176,130.6554135804912 1.008528343979867,130.4438870366134 0.9367604093735179,130.26257857001434 0.9424262990602744,130.17192433716508 1.170950511885754,129.99817038988567 1.3125977512403901,129.86218904033038 1.233275297201794,129.25782748552547 1.212500368650543,129.05385546085478 1.0727417591539685,128.29084899797266 1.0614099801181687,128.04154985704622 1.0859621683855434,127.89045946862642 1.1992799596441102,127.64116032691197 1.2861569331149536,127.52028801588344 1.4939062176143243,127.32387051120787 1.932068344572094,127.06701685017374 2.753622332941555,126.6288547227657 3.291881842376601,126.28890134887742 3.996340779546229,125.69964883259928 4.640363561145308,125.14061439517585 4.914214890451699,124.83087909834113 4.955764747441631,124.79310650095475 5.337267978657546,124.80066102049958 5.505356036025048,124.3927169708205 5.601676158898771,124.09809071352572 5.639448756060007,124.00743648033875 5.694219021831229,123.90167320817471 5.7074394308376615,123.81101897453746 6.045504175430726,123.75058281975491 6.629090801571827,123.70525570304886 6.940714728377169,123.72791926089532 7.269336323567353,123.04801251244335 6.698970106320115,122.87425856550166 6.306135095843257,122.76849529333764 5.56956945131172,122.70050461855998 5.932186384059589,122.41343288024716 6.736742703481351,121.90728007761116 7.541299023015684,121.40868179530798 7.443090270509041,121.18960073211052 7.273113583170906,120.78165668276917 8.257089739221112,120.53235754105472 8.470504913182097,120.46436686627708 8.953994156958492,120.31327647785727 9.09753002605862,120.2755038804709 10.04562221480565,120.07908637534503 10.13816507785068,119.65603328680147 10.17971493472804,119.53516097611066 10.287366836637561,119.42184318473953 10.412016407269642,119.00634461574079 10.57443857517553,118.40198306127357 10.66887006807862,118.40198306127357 11.311004219707065,118.40953758093096 11.947472481873897,118.40953758093096 12.083453831654348,118.38687402240907 11.936140702838097,117.84294862351241 12.956000826078906,117.88827573976819 13.10520258486579,117.88827573976819 14.13450585750948,117.88827573976819 14.140171747196236,117.76740342873966 14.102399149922428,117.46522265190005 14.053294773725392,117.2159235101856 14.024965325741894,117.05727860244613 13.945642871703297,116.80797946084427 13.830436450361526,116.4302534892319 13.77188892476161,116.28671762035691 13.673680172142396,116.1356272315994 13.524478413468083,115.93920972658611 12.976775754517586,114.97223123903332 13.135420662594779,114.57939622889417 13.630241685406974,113.42355475519749 13.601912237536046,113.18936465313554 13.452710478749164,112.46413078730208 13.233629415326565,111.08165373187626 13.054209578810692,110.2279930353569 13.005105202501085,109.55564080644974 13.06176409824294,109.18546935381934 13.161861480607644,108.73975270742933 13.224186265923684,108.34691769729018 13.447044589287549,107.4857024815637 13.379053914284754,107.47059344303693 12.956000826078906,107.15330362654483 12.733142502827612,106.86623188823201 12.43851624508254,106.45828783922838 12.425295836076108,106.37518812558622 12.400743647921304,106.2543158145577 12.332752972918508,106.21654321717132 12.211880662115123,106.13344350352916 12.610381562053595,105.52152742940457 12.816242216694903,105.24956472961853 13.161861480607644,104.90961135505482 13.326172278259023,104.61498509742232 14.306371174818246,101.26833298882421 15.235577064759516,97.9518989579551 15.94759052124882,95.52689822054144 16.089237760603456,94.99808186050927 16.193112402909428,94.68079204412975 16.304541564535075,94.46926549980168 16.463186472499697,94.2804025139955 16.661492607596188,94.07643048932484 17.924985982752112,92.89792545823197 18.240387169048436,92.54286304502892 18.37070262914213,92.27845486490027 19.16959305932742,90.09519874886824 19.79661817209137,88.28211408479117 20.059137722249393,87.57198925861022 20.30843686362612,86.84675539277677 20.62006079009375,86.06108537216078 20.75415351001614,85.8571133474901 20.85991678218017,85.75890459487088 22.739103490839106,84.54262696571621 25.056452326680954,83.03172307926677 27.432348688347858,81.50571015395282 29.679818219216276,79.99480626750336 29.931005990338498,79.617080295891 30.15386431370236,78.97494614482541 31.030188567730473,76.82946262572948 31.42868946789409,75.93047481340463 31.593000265545466,75.68117567202789 32.446660961276834,74.73686074299698 33.277658098936605,73.8983090857924 35.725322394984715,73.05220290960585 36.88116386811855,72.64425885992678 38.5714875909713,72.05500634477436 40.239147755639884,71.48086286736071 41.717944934502285,70.94449198767116 41.92380558903102,70.77829256038686 42.061675568669536,70.61964765230967 42.18632513941418,70.4081211083193 42.431847020849645,70.01528609784245 42.67736890239768,69.54690589338084 42.83223655087132,69.3127157908686 43.04942898443586,69.15407088290398 43.45548440391915,68.91988078005403 44.4224628912468,68.36840086183769 44.90217487541965,68.07377460352977 45.1892466136199,67.87735709851648 45.43099123545181,67.65072151532392 45.66518133796404,67.43164045212646 45.78605364876743,67.24277746632028 45.840823914651224,66.76684274220128 45.86915336263472,66.20025378478273 45.92203499854788,65.10484846688173 45.935255407554315,64.83288576709569 45.91070321939951,64.349396523657 45.85215569391217,63.17844601188382 45.77849912933518,62.15858588808016 45.735060642712334,61.3426977896226 45.687844896260785,60.859208546296486 45.61985422125799,60.23973795262707 45.62363148108668,60.01310236943451 45.70673119472883,59.129223596199296 45.740726532173944,58.69106146879124 45.780387759193246,58.46442588559868 45.840823914651224,58.268008380923106 46.0051347123026,57.9658276032955 46.256322483424825,57.4974473983836 46.411190131898465,57.142384984955406 46.49240121568255,56.76465901334305 46.5131761442338,56.409596600590284 46.48106943664675,55.714580812823534 46.445185469231006,55.17820993324655 46.280874671579625,55.04978310222292 45.905037329825326,54.74004780572592 45.38755274882896,54.1432407709161 44.955056511332806,53.508661138382195 44.475344527385104,52.88919054505049 44.14294567225365,52.33015610717676 44.02773925102445,51.98264821340596 43.91064419993719,51.45383185258579 43.833210375531515,50.77392510379611 43.727447103592624,49.905155369537965 43.69911765560913,49.731401422258564 43.5914657536996,49.34612093098881 43.35349839158381,48.83996812947853 43.055094874010045,48.190279458417834 42.89644996593285,47.835217044539355 42.64903945463933,47.35172780110067 42.4771741375557,47.00421990732987 42.13533213313394,46.460294508320644 41.9049192904504,46.165668250012715 41.45920264394781,45.62929737077344 41.17401953538048,45.25157139916108 40.50922182545529,44.39791070331714 40.333579248542975,44.17127512023715 39.88786260215296,43.71044943453236 39.638563460776226,43.47625933213269 39.37037802093145,43.20429663268436 38.879334257947946,42.69058931151669 38.671584973448574,42.448844689459634 38.4959423967614,42.252427184333776 38.15598902231027,41.79915601839894 37.912355770620294,41.3912119693953 37.56862513634047,40.76418685606849 37.37220763110204,40.31847020934077 37.19845368416036,39.6461179800959 36.95104317275426,38.218313807288595 36.94537728329265,37.8783604327249 37.00959069835418,37.379762150421726 37.08135863296053,37.077581373244406 37.13612889884432,36.835836751525065 37.181456015550374,36.66963732424077 37.55351609747598,36.49588337729908 37.746156343110854,36.352347507410954 38.04078260085593,36.11060288569161 38.201316138791185,35.95195797761442 38.36184967683901,35.77820403067273 38.51860595505814,35.56667748679495 38.64325552569022,35.36270546246199 38.76412783671875,35.12851535994975 38.896331926670506,34.856552659825994 39.094638061879564,34.32773629979383 39.18718092481202,34.123764275460864 39.30427597601185,33.84424705601744 39.36848939118595,33.655384070211255 39.76699029112443,33.06613155494625 40.14660489270742,32.49198807798289 40.37890636513646,32.159589222626295 40.64142591540705,31.8271903680577 40.76418685618106,31.698763537371786 41.06636763347095,31.426800837923455 41.29678047626707,31.154838138475125 41.48564346207325,30.913093516755783 41.665063298589125,30.58069466139919 42.022014341875376,29.89323339295212 42.16555021086293,29.58349809611741 42.35819045649781,29.092454333471622 42.584826039352656,28.608965089357515 42.67925753225575,28.337002390246898 42.78879806402333,28.110366807054337 42.86245462860031,27.98949449602581 42.99277008869401,27.84595862681311 43.16085814617408,27.6797591991911 43.291173606267776,27.54377784963579 43.42526632619016,27.43801457747176 43.6707882077382,27.27181515018746 44.0201847315922,27.052734086990004 44.19771593813744,26.90919821710188 44.39413344337587,26.659899076513145 44.641543954894544,26.342609259683336 45.062708413129755,25.821347419195988 45.276123587090744,25.541830200540552 45.41965945641601,25.31519461734799 45.532977247787144,24.967686723126906 45.66706996770954,24.574851712650048 45.73128338288364,24.333107090930707 45.738837902315886,24.098916988868755 45.80682857731868,24.098916988868755 45.81816035635448,23.71363649726129 45.882373771528584,23.577655147705983 46.037241419889654,23.07905686506509 45.93336677769625,22.716439932317222 45.757724201009076,22.16496001376317 45.810605836922235,21.507716823495375 46.17700002961137,20.684274205492994 46.239324814814836,20.027031014774913 46.27143152251446,19.656859562707368 46.39041520334721,19.211142915979636 46.460294508320644,18.848525983231767 46.5131761442338,18.825862425160167 46.55661463085665,17.828665859878388 46.6925959806371,17.11098651404004 47.03066072523017,16.317761973428937 47.1723079645848,16.15911706501403 47.46693422255502,15.743618496353003 47.70867884438693,15.381001563605134 48.443355859285546,14.889957800621634 48.96084044028191,14.383804999111351 49.62374952057418,13.651016613620513 50.188449848022096,13.386608433829572 50.7134889484507,13.703898249533673 51.13654203665655,13.953197391248116 52.21872694543854,13.416826511558561 53.09505119946665,12.759583320502765 54.003482161194384,12.381857348890401 54.04692064792981,11.830377430336352 53.98837312244246,11.218461356662036 53.961932304317024,10.848289904256779 54.020479830029515,10.085283441824949 54.37931950294869,9.307167940078338 54.52285537216139,9.292058901213844 54.738159176093006,9.118304954272157 55.30663676325704,8.831233215959331 55.695694514017774,8.400625608096096 56.568241508442334,7.539410393045051 56.66833889091961,7.441201640538408 57.32935934124124,6.617759022536028 57.958273083975826,6.1040517010306425 58.49653259352344,5.688553132031902 58.74394310504211,5.484581107698939 59.17266208270957,5.250391005186702 60.60046625551688,2.6214182428772275 60.828990468342354,2.2663558296741777 60.99896715545535,1.9188479359033748 61.14439165475125,1.609112639068666 61.3181456014678,1.3522589784848305 61.535338035257475,0.9518694483505835 61.926284415763696,0.309735296159282 62.11703603142794,0.09820875261921436 62.71384306657548,0.27951721843029304 62.9291468705071,0.29462625729478753 63.16900286236837,0.25685366024612233 63.63360580745158,0.09065423262411154 64.08876560324448,0 64.379614601386,0.02266355784645733 64.56470032758862,0.060436155232835846 64.78378139101123,0.1737539466039736Z"/></svg>