<svg xmlns="http://www.w3.org/2000/svg" width="256" height="256"><path d="M163.1295194652609,0 164.08440056769604,0.06940878154163448 164.2073970111339,0.06940878154163448 164.1471746860703,0.28580086472408683 164.05633083987968,0.4981100782931475 163.9828391890897,0.8084081593591156 163.94609336360344,1.122789110220994 163.5919044353181,4.511570788281699 163.5439307187306,4.56056522242561 164.4835010605119,13.122342546425473 165.29701280673473,17.976874371950203 171.67598602884937,22.210810035099634 175.29136696376096,24.505382689259655 180.13875376779686,31.262531697983345 180.20101752748465,31.282946045563587 184.31501889907167,33.97355704054142 190.06369914340314,37.58281367115461 190.16321908732448,37.676719669464006 190.19435096725962,37.70529975602767 190.37705937695293,37.89719462201649 190.56334029751233,38.09725522741461 195.9277204508755,42.784389403900796 197.780322482801,44.082741902326276 195.32958007034057,47.55318097028207 191.34572016386178,52.52611601106647 190.01317363344322,54.38382162991743 183.05086043270012,63.14565955907206 182.90336677237283,63.32938868607745 182.87784883805057,63.43962616241453 182.66145675498885,63.313057207928075 182.51906668140452,63.272228513375985 182.3639176407803,63.26814564358008 182.1531395032098,63.2803942521769 181.84896572613803,63.32938868607745 181.39831900599023,63.43146042337027 181.18652015116848,63.45187477095051 180.97063842667248,63.41104607603338 180.70933477926278,63.313057207928075 180.2168386468867,63.14565955907206 180.0009569223907,63.09258225537559 179.77078515479542,63.05583643001102 179.5406133873218,63.05583643001102 179.25277108803436,63.096665125171505 179.17978979587,63.08033364696129 179.0470965374502,62.99459338787869 178.7878343247882,62.60263791667426 178.67453469627057,62.49240044039802 178.45405974371806,62.333168530160386 178.09885009806075,62.15352227234251 177.66963844262278,61.982041753933935 177.38485829557487,61.83914132148063 177.17918374499067,61.70848949780667 176.90410041292662,61.500263153850995 176.77140715450682,61.455351589259635 176.41619750866698,61.3614455911936 176.0482288957872,61.29611967926536 175.825712508428,61.30428541824879 175.32147812626235,61.39002567751391 175.03669797927623,61.455351589259635 174.82694055907865,61.451268719889605 174.68455048549433,61.410440025094154 174.61718313888105,61.394108546944786 174.46611696774852,61.36552846038112 173.89145308678997,61.37369419936454 173.75671839350164,61.394108546944786 173.52552590859523,61.47984880645327 173.3872187045026,61.48801454525418 173.3254653035013,61.44718585027621 173.2621808263788,61.34919698259679 173.10907322044147,61.18996507235915 173.04476802594604,61.16955072477891 172.89063970257305,61.17363359457482 172.7569257267803,61.19813081134257 172.38334316822775,61.30020254863539 172.0214988595247,61.44718585027621 171.32179710038244,61.67582654205548 170.6215849826136,61.87180427765769 170.0928533833769,62.00653897070169 169.8754405829432,62.047367665862176 169.51053412218224,62.124942186143876 169.2247332577015,62.227013923436694 169.15736591108825,62.26375974861875 168.8792204269653,62.45973748422096 168.73376820144472,62.52506339614921 168.4459259021573,62.508731918182356 168.30966013287235,62.46382035383436 168.045294333283,62.2923398349999 167.7737835120841,62.145356533359084 167.50074161482675,62.08003062143084 167.2343343804925,62.06369914364651 167.1506355559723,62.06369914364651 166.83064065949847,62.11677644697794 166.69284381415315,62.18618522851957 166.59842745721815,62.28825696581239 166.446340568591,62.561809221513776 166.30752300587278,62.73328974034823 166.15849826942525,62.89660451977338 166.0227428588258,62.978261909668475 165.88749780697367,62.99051051808277 165.66957464779267,62.94559895391729 165.44246503231614,62.888438780789954 165.30109567622642,62.88027304198905 165.22760402531478,62.90068738956929 165.1587056026421,62.941516084486416 165.00151512721118,63.10483086415493 164.82901389124714,63.370217380872894 164.611090732127,63.58252659444196 164.5457648201978,63.627438158972474 163.85729095215868,64.06430519470742 163.35662908079826,64.36643753703332 163.15758919307726,64.45217779629844 162.8136074384613,64.54608379460784 162.45839779256062,64.70939857427634 162.10114671203482,64.91762491823201 161.71021195820427,65.09318830661901 161.18045964177622,65.3340776063867 160.96559863465413,65.46064656087316 160.61089934756063,65.6647900354588 160.42819093780648,65.8117733369171 160.34806462403162,65.91792794400583 160.2204749524156,66.13023715757488 160.10819604145433,66.24455750303864 159.963764533185,66.29355193700003 159.8106569272458,66.32213202338119 159.46055086827153,66.3262148931771 159.09156153801692,66.41603802187309 158.7307379467486,66.50177828119907 158.45565461462277,66.60385001849188 158.41176376770855,66.6528444522099 158.25100078135068,66.86923653520985 157.93559911311587,67.19178322505515 157.66766080272222,67.40000956943669 157.23742843009478,67.64498173893945 156.47342147639625,67.95527982006627 156.26366405632035,68.04102007957475 156.02940941923333,68.07776590493933 155.81607948829136,68.05326868811072 155.74871214167808,68.0451029491273 155.32409371460082,68.00835712339769 155.03472033931484,68.00835712339769 154.88161273337562,68.0124399931936 154.73973301847775,68.05326868811072 154.28806558095704,68.29007511850838 153.84558459979266,68.461555637282 153.5352865184225,68.53504728801114 153.23162310009806,68.62078754715459 152.77995566251553,68.79226806598905 152.36962727853853,68.96374858476266 152.07208816432995,69.15564345081232 151.8541650052098,69.3148753608066 151.62195180286864,69.4536929236465 151.32747484077981,69.53535031360244 150.6027655060607,69.63742205089525 149.82702030257445,69.72316230997787 149.3773942998604,69.78440535253607 149.10026953304958,69.85789700326522 148.9578794595261,69.9273057845635 148.8420280377596,70.13961499837592 148.7930336037982,70.34375847296155 148.69453437731062,70.67447090160776 148.5501028690413,70.89086298479022 148.00963302007582,71.28690132536467 147.8896987288176,71.39305593221005 147.60900145126234,71.61353088482336 147.2119423931334,71.87891740154133 147.0042264078024,71.97282339985072 146.6918868916265,72.3117015678454 146.64493389247085,72.3688617406077 146.39536849479086,72.62608251876811 146.05700068566424,72.88330329668517 145.34249852461355,73.26301015929278 144.67239756928714,73.65496563067971 144.4080317696997,73.7937831933371 144.26870384829405,73.85094336628192 144.00229661402065,74.01834101550298 143.6578045006574,74.19798727289499 143.26176615996124,74.44295944264111 142.95861310014075,74.60627422206626 142.8881836014686,74.64710291722675 142.78407042937002,74.74917465451956 142.55287794440179,75.12888151712717 142.40130141452195,75.49633977150299 142.3216854594944,75.60657724777923 142.25635954756615,75.65148881218808 141.86593515242114,76.0393614137791 141.82510645762568,76.08019010869623 141.96239294416284,76.20675906300016 142.12723879989073,76.36190810344188 145.11232675708004,79.14234222748075 145.82938071150124,79.78335273780132 145.85489864582445,79.80784995481244 146.01668234943355,82.72710164114368 146.04526243587554,86.34452401074029 146.19837004181477,90.42331063326547 146.21112900897637,90.46822219761347 158.15046012011726,96.4373773945583 160.29753911407167,98.03786223506631 164.5100397122071,101.1775888743759 165.7400041465247,102.09623451001126 168.61587534474984,101.66345034364636 172.31597582161447,101.1612573961657 184.7794453038148,99.35662908088952 184.81261861837416,99.36887768948634 192.2051641918673,99.28313743016037 192.55629096809375,99.26680595219352 192.93548747213657,99.2994689079447 193.14167238158976,99.30355177774061 193.6459067636946,99.24639160479579 194.07103554951917,99.22189438760216 194.21342562316434,99.2545573435967 194.27722045897235,99.29130316896128 194.31498700170985,99.3443804722927 194.4507424123093,99.49544664354691 194.52168226966697,99.52402673011058 194.93660388176227,99.52810959948062 195.14993381270426,99.56077255547515 195.47401157860895,99.67917577073482 195.87872601697498,99.72817020469621 196.5850624391021,99.84249055058585 196.9433342369999,99.92006507068503 197.29905424140452,100.07521411149179 197.5430056935952,100.14054002323752 196.4916667994792,104.71335385425995 196.6172150362885,105.69324253202764 196.83003460854403,107.39579911025436 197.03213664844466,108.5879970015911 197.22811438404685,109.38415655271844 197.24342514457993,109.44539959509413 197.24444586201466,111.20511634583978 197.02601234414624,112.36056841223784 195.83381445268782,117.5907242309393 196.0318336229142,119.74239645288938 196.10532527382585,120.52222452586734 196.23699781493454,121.90223441400539 196.1987209134488,121.95122884796679 196.43858949602608,123.58437664465187 196.45543133267938,123.81710020580117 196.47278352802013,124.09881820091186 196.45032774587463,124.31521028366845 196.36152533437,124.54385097544771 196.33651775873327,124.61734262635939 196.36662892123465,124.65408845172395 196.4641074303493,124.67450279906085 196.38040860576916,124.85823192630959 196.29619942256343,125.20935870253605 196.2380185322457,125.49924243644764 196.24873606466144,125.77279469214903 196.2604743144501,125.87894929923777 196.3069169549193,125.9851039057181 196.4288926810441,126.15250155493916 196.53249549433548,126.2627390312154 196.55801342865772,126.29131911759656 196.6172150362885,126.36072789913818 196.66110588332538,126.417888072083 196.79277842443216,126.6383630246355 196.95864499753299,126.81800928221001 197.15564345056896,126.96090971429828 197.36438015333277,127.07931292955794 197.50319771599015,127.18138466685076 197.52463278082166,127.45085405354716 197.66804357171807,127.73665491784537 197.83186871013388,128.04695299915468 198.01253568508133,128.5124001212708 198.03090859779402,128.56547742460222 198.09521379234934,128.87169263648067 198.11562813974706,129.14932776179543 198.12940782434245,129.3902170621107 198.038563978091,129.72092949100028 197.9145468172802,130.2925312195967 197.8905599590164,130.54158625853032 197.95690658825674,130.82738712319357 197.9900799029986,130.99886764166297 198.0053906634718,131.32958007067424 198.0043699460979,131.39082311304992 198.0104942503963,131.5704693704419 197.99365241374298,131.67662397734813 197.97630021840322,131.7133698027127 198.0115149677084,131.80319293140872 198.12940782434245,132.06857944873508 198.22280346396536,132.19923127240904 198.24832139828857,132.47686639790635 198.3672349722347,132.66876126371264 198.4590995357374,132.89331908587852 198.56525414252192,133.1505398637956 198.68467807515452,133.39142916374578 198.88422832156198,133.64048420267943 198.94291957050535,133.75480454856907 198.945981722685,133.80379898271298 198.9332227555234,133.9099535891933 198.87351078920707,134.06510263000007 198.6923334554515,134.35090349454163 198.47083778552607,134.67345018420443 198.25597677852468,134.975582526652 198.2120859314888,135.0286598302268 197.9732380662236,135.2654662603811 197.5940415622416,135.58393008103886 197.3705044575095,135.76357633843088 196.79584057655094,136.14328320146436 196.19106553321268,136.56790162841995 195.9665077110468,136.747547886177 195.61844308687924,137.0660117062872 195.3571394394695,137.27015518087285 195.1295194652457,137.53145882840332 194.99886764157174,137.80092821491718 194.94527997943214,138.0908119490113 194.9228241972876,138.37252994387865 194.92180347985482,138.52359611476783 195.21730115931751,138.92780019450822 195.5990494568535,139.32792140469607 195.757771008283,139.51981627111076 196.36356676911586,140.23023556236456 196.59118674327883,140.51195355747527 196.94792746517712,140.86716320307175 197.02192947465454,140.94065485422678 197.28833670911047,141.2223728489116 197.58485510588525,141.47959362682866 197.7364316357033,141.65107414548058 197.86095915526232,141.92054353199447 197.93343008874024,142.0307810082707 198.08755841205237,142.3084161335855 198.17125723657261,142.60646560648053 198.30803336460488,143.26789046438134 198.40551187371952,143.6761774135526 198.3968357760496,143.70475750011627 198.35957959193775,143.83540932379026 198.2631218001352,144.10079584050823 198.18401620373325,144.41109392218257 198.0457089997015,144.96228130319875 197.91556753465315,145.53388303240357 197.72367266854266,146.05240745785107 197.64456707220157,146.2320537154256 197.432768217318,146.59134623069633 197.105117940609,146.90164431176228 196.8366692715289,147.09353917793362 196.7616465445588,147.142533611895 196.51769509248885,147.30176552195013 196.02826111216885,147.57531777825992 195.65723034704956,147.75088116628189 195.08358718346392,148.0611792475304 194.6319197459432,148.310234286464 194.22924674238294,148.57153793399448 193.92201081307167,148.75526706118237 193.43819077836454,148.95532766639798 192.96508827595054,149.17580261876793 192.64101051004585,149.30237157319357 191.91425974052194,149.5310122646078 191.20128865559244,149.80864739010508 190.40308766990177,150.13119407976788 190.09585174071123,150.2781773814087 189.668681520079,150.53131528995573 189.623769955731,150.63338702724855 189.62887354253576,150.78445319868527 189.36042487351648,155.3041897259504 189.09299692174847,159.81167764480122 190.33878247546812,160.04031833615463 190.4168673544363,160.05664981412147 208.02628347225405,163.30253106033726 208.28248353279818,163.3066139295248 208.62289277666972,163.34335975488935 208.90001754341972,163.41685140580103 209.04444905168904,163.47809444835923 209.28840050381888,163.61282914140324 209.49509577183588,163.77614392125426 209.6364651279874,163.99253600437586 209.6563691167595,164.04969617695565 209.6563691167595,164.09460774166868 211.6870863302001,169.7452991179557 211.88510550054818,170.00251989611613 212.10558045316148,170.1984976316575 212.57766223814076,170.5128785825802 212.7828264300385,170.7456021437295 212.9425686989626,170.97832570445294 213.12629782608968,171.30903813352504 213.2120380853548,171.52951308589502 213.6167525237208,171.87655699293396 213.9454235178037,172.0398717723591 214.4021945422499,172.1827722048124 214.77067351381612,172.26851246407753 215.11414490980644,172.37058420137035 215.80568093002614,172.6155563705689 216.1864085100675,172.7584568030222 216.57377075309375,172.95851740799446 216.7064640116343,173.0320090587236 216.96776765904403,173.23206966412172 217.0341142883452,173.30147844523748 217.29082470757578,173.4974561808397 217.31889443539217,173.50970478961904 217.41177971626777,173.5464506149836 217.57254270250397,173.65260522146394 217.76494792736176,173.75059408956923 218.03696910718628,173.91390886899438 218.24468509257716,174.08130651821546 218.44270426304692,174.22012408087284 218.61826765106983,174.0568093014477 218.83210794069734,173.8322514792818 219.19956619501232,173.4607103554751 219.4797531138811,173.20757244692808 220.2330425351021,172.56656193697256 220.3039823925206,172.5094017638452 220.8612940781394,172.03170603337566 220.9654072501172,171.92555142665196 221.1021833780896,171.81939681998912 221.55078866355333,171.4805186519336 221.77891899634002,171.32945248092275 222.3173474105606,171.02732013841435 222.69705427328987,170.84359101122644 223.0354220824764,170.75376788271294 223.17321892776087,170.7211049265359 223.46871660728442,170.6435304064367 223.75655890638933,170.57003875528167 223.89588682779402,170.53737579934798 224.0949267156367,170.54145866914388 224.30264270096674,170.5863702334919 224.4363566767595,170.63128179783988 224.649176249015,170.75785075190046 224.94161177635894,170.97424283508292 225.12993413166419,171.12939187570717 225.33662939974298,171.27637517734797 225.61273344912004,171.41110987081785 225.83320840167252,171.52951308589502 225.9669223774653,171.6152533454035 226.0108132245012,171.66424777936487 226.06440088657993,171.77040238584522 226.0205100396058,171.90105420951917 225.97559847513517,172.11744629288415 225.99244031178944,172.63597071833166 226.04602797392806,172.91768871301647 226.07409770162275,173.01567758093927 226.08226344060617,173.24023540310515 226.11645747259925,173.45662748604425 226.219549927265,173.6811853080276 226.44308703193627,174.03231208425404 226.6217125721987,174.32219581816565 226.70643211415174,174.4324332944419 226.77482017813793,174.44876477240874 226.92180347990043,174.4120189472267 227.77052997542938,174.19970973365764 228.14360217529642,174.1017208657957 228.42736160496855,173.995566259072 228.49728074495422,173.97923478092264 228.71979713225258,173.95065469435897 229.18524425436865,173.75875982855266 229.54810928038378,173.71384826420467 230.01253568506706,173.62810800469617 230.34222739658276,173.6036107879284 230.67191910797771,173.5995279181325 231.13940766477882,173.55869922333707 231.89422816212004,173.47295896407192 232.37243425127605,173.41988166049714 232.68426340870562,173.42396453011054 233.51972057844733,173.44437887769078 233.9749605267733,173.44029600789486 234.0892808726021,173.4607103554751 234.12245418722225,173.46479322502768 234.25412672833093,173.5056219198231 234.52308575609658,173.61585939609935 234.93800736813103,173.8404172180827 235.2988309594602,174.0159806062872 235.37181225162647,174.04864356246426 235.40345449024713,174.04456069266834 235.77499561393213,173.9629033031383 235.9924084143668,173.93432321657463 236.3057686478548,173.94248895537552 236.53696113282302,173.99148338951946 237.1417361763438,174.19970973365764 238.12417664778718,175.0244493709836 238.20787547230645,175.16734980288933 238.18235753798325,175.2367585846135 238.13489418014208,175.36332753867407 238.2527870367761,175.68995709813277 238.52378749928855,176.60451986397223 239.20562670440458,178.56838008966855 239.23624822553157,178.58062869808285 236.2450359642264,181.6713609032485 236.20114511712964,182.34911723893367 236.08325226061822,182.9574647932597 235.8734948404197,183.83119886436455 235.654040605301,184.41913207117116 235.64995773580927,184.52120380846398 235.53104416186315,184.92949075763525 235.46878040205368,185.1377171020168 235.46061466307026,185.38268927115453 235.42488955513946,185.4561809220662 235.43815888086584,185.71340170016578 235.40804771836446,185.7868933511383 235.4003923380675,186.0114511730608 235.38559193622086,186.1176057797845 235.35037718679402,186.1666002139284 235.31158992662273,186.27683769002215 235.24218114526363,186.47689829499438 235.14266120146397,186.66879316140907 235.11663290839346,186.71778759494458 234.9936364649556,186.9995055900553 234.90687548825576,187.2730578461217 234.6675172643659,187.87323966134264 234.57616305942798,188.1263775696463 234.40519289946252,188.5101673018673 234.1857386643438,188.95928294619907 234.1836972295371,189.00011164111618 234.150523914916,189.05318894450846 234.11837131772958,189.11034911739245 233.96220155961265,189.4451444154695 233.89024098482025,189.64112215107173 233.71569831404955,190.15148083753581 233.6396548697664,190.36787292071827 233.46868470980093,190.72716543592816 233.22116074692667,191.31101577312137 233.00527902249152,191.89486611049713 232.86901325320562,192.250075756337 232.7888869394317,192.43788775313828 232.76132757042254,192.49913079527062 232.7174367233258,192.60936827154686 232.613323551347,192.85842331066303 232.49798248820707,193.1891357395526 232.40458684858413,193.40552782273502 232.33109519767245,193.5647597327293 232.16829077669138,193.9444665953369 232.07285370238247,194.1935216345139 231.9340361396034,194.5650627583206 231.83961978272922,194.81411779725426 231.7691902838755,194.92027240409962 231.61914483005506,195.0182612718399 231.45429897432717,195.07950431397222 230.73418286772633,195.24690196319327 229.99007990286168,195.38163665666315 229.3148753606697,195.52861995830398 228.4993221797001,195.67560325994478 228.18341015277977,195.72459769390616 228.03489577501776,195.7327634328896 227.83330409398613,195.76950925825417 227.40766494941425,195.85933238695017 227.11318798732447,195.89607821231476 226.89934769763423,195.92057542944755 226.75236439599436,195.93282403786185 226.53495159556067,195.93282403786185 226.38082327218765,195.9573212550555 225.77553787004126,196.0471443837515 225.73266774037828,196.01448142775695 225.66172788295975,195.98998421062413 225.44227364784103,195.97773560220983 225.22945407558552,195.98998421062413 224.93957034161213,196.01448142775695 224.58078818502884,196.05122725330403 224.36337538459512,196.05122725330403 224.2306821261753,196.02673003617124 223.88823144749705,195.93690690747525 223.5544568666104,195.8634152567461 223.26865600219048,195.80625508380126 223.06400216885754,195.74501204142558 222.84046506418628,195.69601760752502 222.5709956777941,195.64294030413276 222.4168673544211,195.61844308699997 222.339803192765,195.60619447858568 222.11932824021252,195.57353152265196 222.04940910016694,195.56536578366854 221.90599830927053,195.55720004486764 221.61203170586722,195.50820561072373 221.38798424250948,195.44287969879548 221.22313838684244,195.3938852648341 220.80056139438932,195.2632334411601 220.64643307107715,195.20607326839783 220.4310617053893,195.1080844005359 219.95795920303712,194.83044927503857 219.74105676128988,194.67121736480095 219.4838359833728,194.43032806485073 219.3128658233465,194.26701328542558 219.13730243520286,194.10778137518795 218.96378048180506,193.89547216161887 218.84843941866419,193.78115181572926 218.70502862782863,193.70766016481758 218.48659510996114,193.43410790887282 218.42024848078165,193.3810306055414 218.07677708479133,193.17688713095578 217.80271447009926,192.9686607870001 217.73330568874016,192.9278320918396 217.52558970334928,192.85025757167958 217.29184542494872,192.79718026816565 217.13771710163655,192.80942887676247 216.97950590889354,192.83800896332613 216.6089855025206,192.92374922240873 216.23693402002743,193.01765522071813 216.0838264140882,193.0584839156961 215.6030685314381,193.1973014783535 215.4438366213231,193.25037878168493 214.92888470668083,193.49535095143105 214.8038468284363,193.593339819293 214.76608028563794,193.64233425288933 214.72116872128996,193.65049999187275 214.4685411714294,193.74440599018214 213.9311334745827,194.0424554632597 213.71525175020838,194.17310728711618 213.41209869044778,194.3690850227184 212.96910735071958,194.59364284464093 212.53224031498462,194.7814548410772 212.2275561792264,194.87944370918248 211.47375639925812,195.14891309569637 211.240522479544,195.2673163107735 210.93430726766556,195.45512830757482 210.7066872935026,195.57353152265196 210.39843064687827,195.74909491067393 209.95952217651916,195.93690690747525 209.58593961802745,196.13288464307743 209.2164399290883,196.29211655307174 208.76477249150673,196.50034289708822 208.45447441013656,196.61058037336448 208.08548507988388,196.8106409787626 207.76191767266658,197.01478445334823 207.69455032605237,197.04744740909942 207.3929283423521,197.1862649717568 206.94228162220432,197.35366262097787 206.56359547684795,197.49248018363525 206.21042726581481,197.58638618194465 205.79295386028718,197.62313200730924 205.6449498412126,197.6762093110057 205.50255976762827,197.77419817874596 205.31015454283133,197.98242452288414 204.90339866971945,198.3090540819778 204.42059935244515,198.66426372800015 204.1980829650869,198.8275785074253 204.06079647836722,198.9214845057347 203.8525701342899,199.17053954466834 203.73008404959936,199.39509736683422 203.42437919640736,199.99527918217683 203.14572335353714,200.39948326197805 203.0012918452678,200.55054943323228 202.85481890231247,200.71386421265743 202.55064512511998,200.96700212138697 202.50062997384651,201.0282451635193 202.443980159649,201.07315672786729 202.3903924976311,201.1752284651601 202.34854308534105,201.40386915693938 202.34343949841556,201.57943254514387 201.7993971387057,202.89411652117116 201.74376804182026,202.94311095531506 201.2869970174349,202.98802251966308 200.94658777356338,203.0002711282599 200.70773990841985,203.02068547541427 200.08816446292983,203.041099822812 199.86462735832035,203.08601138752502 199.65333886206338,203.11867434333703 199.36141369340592,203.13500582112138 199.20422321797497,203.15133729908823 199.1271590563189,203.15950303825417 198.91280840806576,203.20441460284553 198.6280282610787,203.29423773154153 198.3820353740813,203.34731503469044 198.04162613020978,203.4167238164146 197.7272451793479,203.45755251096668 197.5792411602733,203.46571825013262 197.36080764246668,203.45755251096668 196.85810433636038,203.35548077367386 196.70907959991288,203.3309835569061 196.50799827738518,203.25340903638104 196.08848343717256,203.1309229516905 195.75011562798602,203.05743130096135 195.24945375656475,202.98802251966308 194.78349627582304,202.92269660773482 194.42828663004403,202.82470773981206 194.00366820296676,202.66547582981778 193.63620994865175,202.50624391958013 193.34734693211308,202.44500087720445 193.26262739016005,202.44908374663532 193.1013540452374,202.49807818077923 192.8742444297609,202.6368957434366 192.64305194485348,202.78796191463 192.46748855664902,202.87778504338684 192.4067558729598,202.91044799913803 192.07145021595286,203.11867434333703 191.77084894968635,203.33914929570702 191.47024768341987,203.56778998742544 191.3084639797499,203.68211033313256 190.71236503395986,204.1312259774643 190.5689542430026,204.2251319757737 190.35358287731475,204.3231208432706 190.2081306516725,204.38028101639796 189.952440949754,204.43744118934276 189.8422034734787,204.461938405928 189.80239549599534,204.61300457736473 189.7916779635178,204.79265083493925 189.7830018658479,205.02537439608855 189.74778711660355,205.2540150876853 189.72635205171122,205.43366134525982 189.66204685721675,205.6092247332818 189.59365879322962,205.78070525193374 189.55538189174575,205.88277698922656 189.36808025381345,206.1849093314916 189.12719095374155,206.53195323834802 188.97816621729405,206.76467679949732 188.80158211177746,207.0423119248121 188.6219358541421,207.311781311326 188.45300712892248,207.51592478591164 188.14781263447782,207.830305736591 187.74769142428997,208.2018468603977 187.61908103524016,208.31616720646983 187.60070812252746,208.3978245961824 187.62469498085213,208.51622781125957 187.82985917274985,208.85510597931508 188.15087478653575,209.11640962678467 188.17690307960626,209.22256423332587 188.14117797149387,209.38587901311604 187.9263169645524,209.9493150031549 187.89722651942392,210.07588395703297 187.87375001978575,210.35351908253028 187.84057670516557,210.47192229778994 187.80434123842568,210.52499960136473 187.82118307520162,210.6964801197733 187.83445240092706,210.79446898787862 187.8558874657595,211.1660101116853 187.86609463948878,211.22317028438675 187.88650898694735,211.4028165418396 187.87375001978575,211.80702062158 187.82373486851228,212.03566131335927 187.60070812252746,212.35820800302204 187.47669096183836,212.50927417427627 187.26795425901372,212.73791486562965 187.08626656657165,212.88081529808295 186.70094575829128,213.16661616238116 186.48455367529135,213.2931851168068 186.26816159223057,213.58715172014925 187.15363391318397,214.45680292182323 187.2092630100095,215.293791167746 186.93724183012415,217.93949059837584 185.61132996269043,221.0179741951272 185.03768679910482,222.19792347829303 184.12159295690176,223.74941388483967 183.59694422727753,224.78237986618214 182.86049664264903,226.10931245098877 182.85284126241288,226.1542240157018 182.17967815490593,227.0565381731878 181.33452417018222,228.15074719684512 181.2207141830399,228.25281893413793 180.1999968101117,229.46951404266832 180.01473660692525,229.6001658665248 179.91521666306477,229.66957464782308 178.47243265649163,230.40857402606645 175.70781965191566,231.28639096654132 175.23369643212968,231.58035757024882 175.15203904229543,231.62935200378433 175.06323663084973,231.6742635684974 175.08824420648742,231.7763353057902 175.30973987641283,232.2744453837183 175.33423709342395,232.32343981743634 175.44141241752055,232.5439147702322 175.5470566657403,232.8705443294475 175.62616226202152,233.08693641244747 175.69608140206614,233.19309101935366 175.77416628109515,233.41764884151954 175.86398940991282,233.64628953287294 175.93033603915316,234.00149917871278 175.97422688618906,234.23013987006618 176.05231176527892,234.56901803787832 176.0992647644336,234.77724438189483 176.1232516226366,235.15286837549743 176.13907274191698,235.3406803720554 176.21817833837974,235.7734645382378 176.330457249341,236.41447504837583 176.36822379213933,236.59820417538123 176.42691504114356,237.02690547213274 176.44630867116834,237.22288320749158 176.46008835576373,237.52501555 176.54480789765591,237.71282754680132 176.54174574559798,237.83939650067936 176.55756686481752,238.14969458235373 176.59584376630232,238.3579209261269 176.66474218903582,238.67638474678466 176.68515653643354,238.90094256876804 176.6698457759613,239.64402481638143 176.66014896085764,239.9584057672433 176.5565461474446,240.74231670940878 176.53919395210482,241.07711200766838 176.52337283282444,241.38741008934275 176.498875615935,241.72628825678987 176.49019951826511,242.1509066841105 176.45243297546676,242.8694917145911 176.3789413245551,243.07363518917674 176.3360711948921,243.1797897960221 176.23450981634565,243.47783926891714 176.0405735154294,243.77588874162964 175.87878981194197,243.96778360804433 175.6276933381408,244.38015342640313 175.27197333361545,244.92317506904428 175.2035852696283,245.03749541487306 174.9575923827526,245.36820784376263 174.75191783210852,245.56418557936485 174.49826956493493,245.76424618415456 174.08538938758548,246.03371557066845 173.94044752062968,246.1317044385304 173.23666289205653,246.53590851833164 172.7079312928189,246.74821773171817 172.44203441723195,246.8421237302101 172.30525828925957,246.8625380776078 172.03221639194047,246.8992839031549 171.64179199685722,246.92378111974014 171.3621154367348,246.94011259770699 170.5338032884819,247.05851581314917 169.98159518972776,247.08709589971284 169.70344970572648,247.10342737774053 169.29669383249293,247.16467041987286 169.03998341332317,247.20958198422088 168.63628969220937,247.3320680689114 168.49951356429688,247.3688138944585 168.1866636894345,247.5076314571159 167.72734087161587,247.91183553709965 167.5604535811421,248.1118961418894 167.41704279024572,248.31195674722665 167.35069616106622,248.41402848451946 167.18176743578576,248.64266917593372 167.08530964404406,248.65900065371804 167.03070126459144,248.66308352351396 166.9429195705814,248.66308352351396 166.5586194796131,248.67124926249738 166.4208226342678,248.69166360983425 165.88239422004818,248.88355847606644 165.60424873592527,249.01829316929295 165.34804867538114,249.21835377432603 164.9372099327167,249.52456898620449 164.69887242613797,249.73279533034267 164.33804883480786,250.03084480305517 163.82871086577754,250.43096601324302 163.35203585255925,250.7453469641049 162.91108594751512,250.9454075693205 162.40378941316982,251.19446260825416 161.7979936522761,251.46801486432057 161.519848168214,251.57825234059683 161.3402019105178,251.65582686075683 160.98039903662146,251.76606433703307 160.69051530270985,251.9130476386739 160.4251287856877,252.0110365065967 160.14341079075953,252.1580198082375 159.455447281405,252.4683178896685 158.78942919563113,252.76636736256353 158.2479386292319,252.99909092371283 157.9815313949585,253.12157700822087 157.82740307158645,253.17057144236477 157.2741742554584,253.37879778632043 157.0761550851712,253.43595795908274 156.9444825441243,253.49311813202755 156.80923749208964,253.52986395739214 156.54078882300954,253.64418430328178 156.27846445816698,253.7625875183589 156.01869188675676,253.8850736034145 155.6190810352554,254.04838838283965 154.94591792780923,254.28927768278984 154.2441747339211,254.50158689654143 154.09821214965322,254.54649846113278 153.68073874406477,254.68123315399427 153.01216886479682,254.9098738457127 152.87284094345296,254.95886827949158 152.74320983703024,254.99561410485614 152.3517647245123,255.06502288658032 151.79853590838522,255.24058627460226 151.50610038104128,255.32224366431484 151.23867242933412,255.37123809845878 150.8166057956283,255.4896413135359 150.3685108689737,255.61212739840897 149.7938469880151,255.75502783061893 149.06811693580235,255.9428398270552 148.74352881127203,255.97958565241976 148.50621202206528,256 148.23214940737418,255.96733704418799 147.95502464062417,255.9142597404915 147.7212803622236,255.85301669835917 147.53295800691836,255.77544217783412 147.4441555954736,255.7141991357018 147.3135037717388,255.68970191850815 146.64493389247085,255.43656401020448 146.24991626914766,255.3018293167346 146.01566163206064,255.17526036267404 145.52214478224985,254.97519975745843 145.26849651513805,254.80780210841988 145.0051514329226,254.67306741519337 144.4830544966698,254.40359802867948 144.22175084913937,254.24436611844186 144.09007830803162,254.16270872872929 143.99259979897784,254.0647198608065 143.83081609530788,253.86874212544765 143.6981228368272,253.721758823746 143.61034114281622,253.60743847791719 143.57206424133142,253.5543611743424 143.41793591795746,253.3828806557513 143.27554584443493,253.26039457087825 143.12447967324158,253.1297427472043 142.92237763352347,252.96642796777914 142.51562176028992,252.63163266933702 142.0787547247375,252.32541745745857 141.80162995792665,252.11719111325954 141.50307012634516,251.79464442341424 141.297395575761,251.57825234059683 141.00444968966974,251.23529130317127 140.89625364813935,251.0270649592156 140.778360791627,250.7861756590829 140.65536434818915,250.4677118386076 140.55482368689488,250.1900767131103 140.5053188943687,249.92877306576236 140.50021530744323,249.81853558948612 140.48286311210344,249.7654582861547 140.22717341018588,249.38166855375118 140.18124112840317,249.32042551161885 140.14806781384385,249.27959681645837 139.96076617591152,249.0142102997404 139.62137764941292,248.45077430970153 139.4708218368461,248.22213361816563 139.22329787391007,247.89958692850283 139.0176233233259,247.67911197595035 138.9461731071601,247.61786893339215 138.7063045245828,247.4055597198231 138.25259565237707,247.04626720479573 138.0341621345096,246.87886955557465 137.87135771346672,246.76454920968501 137.84277762708555,246.74821773171817 137.51512735031477,246.48691408418773 136.96700212111318,246.06637852678466 136.84298496024158,245.95205818095587 136.64394507258143,245.6785059248286 136.5229900638286,245.41720227748067 136.4265322721477,245.20081019454156 136.2320856126049,244.82518620112148 136.0253903445261,244.54755107562417 135.7845010445759,244.3148275146574 135.73397553461595,244.265833080696 135.55534999435352,244.10251830108834 135.4150013555759,244.02902665017666 135.05775027505103,243.7228114382982 134.83421317031892,243.571745267044 134.3202819730496,243.2900272723592 133.93802331688798,243.1348782314916 133.5348399546422,243.0123921470444 133.25975662257628,242.85316023680676 132.55086840707858,242.84907736701086 132.3518285193576,242.82866301961315 131.83381445265738,242.83274588922652 131.65314747758828,242.8204972806297 130.92843814286914,242.69392832656914 130.4747292705427,242.55919363328178 130.14197540702895,242.46120476541984 129.70970159953396,242.36321589767957 129.3988931594764,242.31830433314906 129.3197875631353,242.3060557249781 128.98499226481485,242.25297842140333 128.50984832765596,242.13457520596114 128.11993429119738,242.0488349468177 127.72491666793502,241.99575764330373 127.64581107147224,241.99984051309966 127.55088435585077,242.0243377296849 127.30897433846678,241.88960303682342 127.0956444075248,241.75895121296693 126.80167780406065,241.62421651949705 126.49750402692804,241.47723321785622 126.43217811512149,241.42823878389484 126.28876732422508,241.20776383134236 126.17444697839723,241.0403661823038 126.1433150985828,240.99137174834243 125.91620548304545,240.60758201636477 125.7278831277402,240.4320186281603 125.35532128662047,240.22787515357467 125.01389132537695,240.08497472112137 124.73268368913523,239.97473724502763 124.58365895268771,239.92574281106624 124.52088483425263,239.87674837710486 124.3825776302817,239.70526785851376 124.27131943657169,239.5868646434366 124.10341142872501,239.41946699421555 123.96408350732031,239.32556099590616 123.8946747259612,239.29289803991162 123.73084958760623,239.24390360619358 123.57467982960905,239.21124065001652 123.49200172234103,239.17449482446943 123.28224430220429,239.1704119552819 122.81016251722406,239.09283743475686 122.41769668739497,239.00709717543089 122.06197668286866,238.88461109074035 121.63735825573053,238.72129631095015 121.23162310005242,238.61922457365733 120.62276518710077,238.61105883485644 120.25887944359103,238.59472735688956 120.03074911074158,238.52940144514386 119.897035134888,238.44366118563536 119.70309883403164,238.31300936177888 119.56734342343219,238.24360058041978 119.2075405495349,238.06395432302776 118.85641377318771,237.8843080652099 118.51192165982445,237.73324189395566 118.29450885939076,237.63525302609372 118.08373072194193,237.5740099839614 117.88775298633972,237.54542989758025 117.69534776148191,237.55767850593372 117.54989553583965,237.55767850593372 117.44578236386182,237.55359563656367 117.08648984852931,237.38211511791175 116.88949139561596,237.22288320749158 116.57255865126092,237.04731981946964 116.14896094155657,236.87175643144766 115.38240219442667,236.66353008730948 114.72506020638261,236.52062965485618 114.28513101852982,236.44305513469615 113.98759190432031,236.369563483967 113.92124527520167,236.35731487543103 113.77273089731894,236.32465191925397 113.62166472612557,236.25932600769076 113.42466627315042,236.10417696670146 113.36291287214911,235.98985662099435 113.36597502420706,235.76529879925434 113.36291287214911,235.70813862630953 113.25573754793082,235.54482384664104 113.09497456175546,235.4631664565634 112.8877689351119,235.36517758906652 112.85102310956479,235.3039345463258 112.81376692545291,235.1324540279172 112.82142230574988,234.9487249009118 112.82856732736037,234.54452082092806 112.79233186062142,234.42611760585092 112.72802666612695,234.36895743272356 112.58359515785762,234.30771439059123 112.33760227104275,234.24238847884553 111.9456467997775,234.1852283059007 111.7175164669889,234.1933940447016 111.43324667868923,234.24647134803303 111.2158338781947,234.25055421764642 111.01015932748882,234.24238847884553 110.79938119004,234.1484824803536 110.51255960818634,234.07907369881198 110.22573802639353,234.0627422208451 109.78376740391562,233.98516770068508 109.35863861809104,233.96475335334821 109.05038197152757,233.88309596339226 108.53134718739359,233.68711822779008 108.30117541973745,233.5809636209447 107.84644583015879,233.37682014635905 107.56370711779684,233.27474840906623 106.7292706654889,233.10326789059684 106.0014991785911,232.94811884960754 105.796845345319,232.84196424312722 105.32068069084706,232.52350042265195 105.19002886705236,232.45409164129282 105.1440965852706,232.4500087719228 105.11806829226093,232.26219677512148 105.0731567278521,231.9396500854587 105.09816430348883,231.57219183120458 105.16961451959286,231.32313679190588 105.35793687489905,230.94342992929828 105.51512735032999,230.55964019732065 105.54625923026514,230.37182820051936 105.5518731757554,230.3024194189777 105.48960941600679,229.67365751725396 105.55391461050127,229.04081274609933 105.62995805478441,228.48554249528723 105.65547598910761,228.29773049885097 105.63965486988806,228.23240458674022 105.59015007724021,228.1752444139779 105.52074129594193,228.1303328494474 105.4253042215123,228.11400137148055 105.28852809353994,228.11808424127645 105.20482926896078,228.1344157190608 104.85625428610486,228.23648745635361 104.34028165408967,228.44063093093925 103.88657278182309,228.6406915359115 103.45378861576238,228.86116648870734 102.64997368458049,229.24495622068497 102.22535525744237,229.46543117323745 101.83799301441708,229.62058021410505 101.02448126813248,229.90229820897238 100.31814484606618,230.14727037835348 100.2441428365289,230.17176759530375 99.85678059350265,230.27792220220996 99.47554265471398,230.35957959192254 98.72429466829968,230.51881150216016 98.02306183309801,230.6290489784364 97.31060110673332,230.78419801906065 97.01714486201647,230.84135819200546 96.77523484463153,230.85768967015485 93.23130412582586,231.47012009391176 93.1210666495496,231.4619543549283 85.24061817185762,232.60515781236452 84.86499417862005,232.63373789874566 84.8445798311615,232.47042311932051 84.7506738328521,232.11521347348068 84.71954195303863,231.88657278212727 84.67769254080942,231.698760785326 84.58684869455797,231.58444043943635 84.43374108861875,231.48236870214353 84.22398366842116,231.3762140956632 83.58909746245983,231.1434905345139 83.52581298533829,231.11491044813275 83.37729860757725,231.0332530581768 83.07975949336867,231.10674470914932 82.78834468345757,231.10674470914932 75.61525334514492,227.26476451738682 75.15542016864077,227.0687867817846 74.88339898875542,226.9667150444918 74.71089775273056,226.9054720019336 74.4337729859796,226.89322339376264 73.69324253192117,226.8728090461824 72.92362163273332,226.8728090461824 72.57045342170018,226.90138913256354 72.25709318821123,226.9503835664641 72.1800290265542,226.9626321748784 71.80287395731902,227.0442895647735 71.44562287679416,227.17085851907743 71.1246072629474,227.25659877834255 70.6642637277568,227.342339037486 69.83237906882034,227.48115660050843 69.1413534074088,227.55056538186756 68.91016092237973,227.60364268501647 68.76572941417123,227.60364268501647 68.63711902512145,227.64855424936445 68.37071179084803,227.7547088564532 67.83126265925453,227.93435511384519 67.69856940077483,227.9547694612429 67.00703338055514,228.02826111215458 66.64212691973333,228.02826111215458 66.239453916174,228.01192963418774 65.72246056672503,227.94252085307198 65.59436053648339,227.92618937486176 65.36623020357311,227.86086346311603 65.46881229955238,227.67713433592812 65.56322865660908,227.4239964273811 65.6178370359999,227.1586099104806 65.61885775343367,227.10553260714917 65.65509322011273,226.6400854850331 65.57700834114361,226.50126792237572 65.56833224347372,226.0276550612762 65.5183170921394,225.62753385108834 65.28406245517502,225.10900942564083 65.175866413522,225.00285481891714 65.04929745933974,224.91711455965202 64.78850417049576,224.72521969360236 64.71654359570432,224.619065086757 64.6491762491519,224.41492161217136 64.59558858701233,223.99846892401666 64.50678617556854,223.17372928662985 64.43278416609112,222.9614200730608 64.2796765601519,222.6470391220164 63.98009601113664,221.92028835279572 63.87547248047234,221.61407314091727 63.870879252294166,221.20986906093353 63.95457807681343,220.90365384905508 64.18474984440874,220.18506881881783 64.19342594207863,220.05033412534794 64.18474984440874,220.0217540389668 64.2454825281588,219.86660499834255 64.25722077788664,219.81761056438117 64.23374427830929,219.70737308810493 64.11176855224437,219.49914674408842 64.0005103585952,219.33991483409415 63.71266805942946,219.02553388323227 63.67541187537747,218.97245657947497 63.62896923491019,218.93162788492288 63.5799748009488,218.97653944927086 63.515669606454324,219.02961675241977 63.4406468795441,219.08269405593373 63.23088945940736,219.20109727125424 62.83485111871123,219.34399770328164 62.24742827071274,219.45831804917128 61.28438142923333,219.56855552526503 60.692365352934985,219.6992073491215 60.4269788360345,219.7931133476134 60.175372003607706,220.00542256099996 59.96357314878595,220.21364890513814 59.82118307514079,220.43004098813807 59.288878965158744,221.0628857592927 58.93928326493084,221.58957592372363 58.66164813955522,221.92028835279572 58.428414219780294,222.1407633053482 58.269182309603494,222.25916652042537 57.90325513140874,222.39798408308275 57.056570070564824,222.55313312388952 55.84906141839079,222.87567981379567 55.39739398087007,222.9410057257239 54.29501921810764,223.04716033220424 53.889284062430484,223.06757467978449 53.495797515104876,223.1165691139284 52.203569320977806,223.26763528493925 51.54775840887145,223.26763528493925 50.826111226212184,223.27580102392267 50.29023460542394,223.24313806780646 50.0136201973604,223.23905519837558 49.6058436068756,223.27171815437012 49.01433788926372,223.30438111048633 48.61268560301648,223.36970702223206 48.4544744102725,223.39420423924318 47.756814085877046,223.61467919161313 47.628203696827256,223.6432592781768 47.227061769266484,223.7820768408342 46.81367123323057,224.01888327153605 46.38139742579644,224.41492161217136 45.97668298742947,224.929363168188 45.764884132546875,225.43972185465208 45.60616258105654,225.94599767156362 45.31729956451787,226.46860496656367 45.125915057093835,226.67683131039766 44.99832538547781,226.75848870029276 44.43744118905378,226.92180348014378 44.0439546418508,226.97896365302776 43.38763337099715,227.0606210428012 43.24320186272686,227.1014497375358 42.97883606313941,227.27293025637024 42.72212564384798,227.4852394699393 42.367426356816274,227.7955375513703 42.06274222105805,228.10991850229303 41.624854467950186,228.52637119044772 40.34589559967118,229.53892282439247 39.69212612231069,230.00028707689518 39.28945311875136,230.21667915983426 39.02712875384703,230.33916524470732 38.628028261033066,230.47389993781218 38.35957959195295,230.49839715457992 37.684885408508265,230.3432481141382 37.05050956117257,230.1431875091051 36.37173250823522,229.87371812240872 35.810848311872974,229.62874595308847 35.149423454093835,229.15105022237557 35.02132342379135,229.05306135469615 34.626305800468145,228.7468461428177 34.403789413169804,228.45287953953607 34.24813001379826,228.02826111215458 34.187397330109036,227.7179630309061 34.236391764070426,227.30967608173484 34.301717675876986,227.20760434444202 34.53393087827899,227.00346086985635 34.67223808224992,226.89730626295017 35.33876652689369,226.53801374774028 35.60211160904832,226.34611888175147 35.78635109480102,226.14197540716583 36.60496642795026,225.12942377322108 37.01631552917947,224.62314795630954 37.505239150812066,224.12095500882887 37.70632047333976,223.9127286646907 37.925774708458476,223.61059632236478 38.202899475208476,223.10840337494497 38.39785649343776,222.79402242402224 38.49329356786738,222.58579607988406 38.71785138985074,222.30407808477338 38.89035262587561,222.2305864338617 39.130221208514676,222.16934339172937 39.52268703846545,222.03869156805538 40.0590740179392,221.83454809346975 40.45919522812705,221.58549305453613 41.011403326881194,221.0547200204918 41.2864866588245,220.66276454910485 41.478381524934996,220.25447759993358 41.494202644215385,220.14424012365734 41.54013492599715,219.8421077815748 41.440614982197495,219.63796430698918 41.33241894060627,219.53180969990044 40.42806334825274,219.12352275072917 40.31170156767809,219.02553388323227 40.15451109224715,218.8173075388507 39.789094272738865,218.41718632866286 39.39764916022091,218.11913685576783 38.9898725697361,217.94357346756337 38.18503692118224,217.6414411254808 37.00100476864639,217.09025374385624 35.92976188575827,216.67788392549747 35.631202054176775,216.52681775424324 35.5393374905524,216.40433166918766 35.50463309999452,216.2165196725689 35.56281399019154,216.09403358787833 35.66743752085489,215.6571665525693 35.74348096513804,215.55101194548055 35.93741726605523,215.33870273209402 36.17167190314225,214.82834404562993 36.25639144509528,214.71810656935367 36.497280745045494,214.51396309476803 36.90352625953175,214.30573675056903 37.418478174234856,213.88520119298346 37.66906428922788,213.5585716337681 38.07275801022002,212.86448382005528 38.253424985169374,212.42353391476777 38.29935726695019,212.22347330997806 38.274860049999916,211.9172580980996 38.08194446663817,211.7253632316849 37.71601728838163,211.4518109759835 37.33937257771124,211.1496786336576 37.07602749549577,210.96186663709966 36.820337793577266,210.76588890149745 36.63813974250959,210.684231511359 36.450838104577265,210.65973429440874 36.177285848632515,210.66381716420463 35.76389531265839,210.76588890149745 35.062662477394944,211.03944115719887 34.64110620243645,211.23950176241445 34.222612079475056,211.36607071647504 33.68112151313666,211.4354794979558 33.00795840575137,211.53755123524863 32.30366341837103,211.7212803624974 31.73002025478445,211.96625253200014 31.340106218386723,212.21530757075126 31.0201113219129,212.52152278262972 30.634790513693353,212.9461412100112 30.126473261914285,213.60348319811612 29.803416213382516,213.91786414879547 29.564568348117323,214.11792475413276 29.26192564704412,214.36697979312723 28.85414905655931,214.65278065742544 27.628777850359036,215.50610038131506 27.499146744057995,215.5673434234474 26.547327793802474,216.28184558449712 26.415655252694737,216.29409419309394 26.15282052910394,216.09403358787833 25.88284078402623,215.9388845472541 25.224478078487557,215.51834898966854 24.827419020357656,215.38361429625948 24.701360424861864,215.38361429625948 24.43240139703445,215.39586290503883 24.139455511064906,215.44894020818774 23.429546578193357,215.54284620667966 22.70840975415876,215.7061609861048 22.013811581941976,215.81639846256357 21.618793958557934,215.8368128099613 21.48712141744925,215.83272994059124 20.597566227004133,215.5469290762322 20.22755617931767,215.3509513406908 19.931037782421196,215.16313934388953 19.587566386429913,214.85284126239767 19.447217747653237,214.6364491796411 18.972073810616013,213.5544887639722 18.824069791541426,212.99921851316012 18.65207891414219,212.64400886732025 18.54082072049302,212.27655061330947 18.353519082560698,211.87642940293912 17.970239709026167,211.31299341332613 17.567566705405053,210.5984912522764 17.35474713315048,210.28411030141453 17.11947177869053,209.9370663943756 16.530517854571816,209.3246359706187 16.168673545807938,208.91226615219904 15.915025278696124,208.74078563342545 15.50112438391291,208.24267555555818 15.427122374375617,208.15285242643628 15.4250809396906,208.00995199459138 15.36383789725407,207.6914881739336 15.393949059755451,207.5526706112762 15.475096090903241,207.29136696374576 15.49755187316755,207.25462113838117 15.277076920616015,207.18112948746952 14.874914275621473,207.09947209775694 14.601872378363186,207.0259804470278 13.914929586443362,206.81775410264623 13.635253026261042,206.72793097413276 13.232069663893574,206.62177636704402 12.954944897203463,206.54011897733145 12.54257507854143,206.39721854506067 12.011802044557939,206.16857785352477 11.878088068765187,206.09916907240898 11.200331733080038,205.68679925344182 10.876253967175343,205.4377442146907 10.573100907475563,205.18868917575708 10.32404586842215,204.9967943095249 10.193394044687343,204.85389387731493 9.936683625394956,204.57625875200017 9.757547726446061,204.26187780113827 9.62383375065331,203.80867928755816 9.599336533703033,203.59228720443656 9.57892218618363,202.5348240061438 9.584536131734735,202.1183713179891 9.575860034064846,201.69375289060764 9.552383534548337,201.608012631525 9.66262101082458,201.58759828394477 9.727946922631144,201.56310106711618 9.519210219867333,201.47327793805513 9.451842873254073,201.43653211269057 9.415097047828658,201.38345480935914 9.343646831784525,201.22830576867406 9.243106170490261,201.07315672786729 9.072646369210304,200.86493038409415 8.899124415813466,200.7056984738565 8.626592877241642,200.33824021960237 8.475526706109111,200.1830911786131 8.345895599686393,200.08510231111617 7.994768823459941,199.9462847484588 7.786032120635289,199.83196440238663 7.6512974274696095,199.672732492149 7.431843192229212,199.46450614837585 7.36549656304972,199.35835154128713 7.332323248429554,199.25627980399432 7.273631999424394,198.93781598370157 7.264955901755455,198.61935216365217 7.297108499002693,198.4070429500831 7.188912457472306,198.14165643275675 6.962313200743091,197.8844356550222 6.81992312715877,197.73336948358548 6.754597215291367,197.7007065280168 6.344779190121543,197.57413757371287 6.081434107906074,197.47206583642006 5.893111752539986,197.3250825344142 5.687437201894959,197.21892792793386 5.549129997863191,197.15360201600564 5.201575732441986,197.03519880068512 5.061227093664362,196.95762428040342 5.00968086633149,196.90454697682864 4.881580836029003,196.7493979362044 4.720817849792815,196.3860225513811 4.438589496117335,195.90016108211066 4.398781518573136,195.8470837787184 4.169630468350761,195.58169726145286 3.965486993765125,195.4306310905637 3.823096920302484,195.36530517845293 3.548013588237501,195.2550677021767 3.407664949459877,195.21423900744207 3.141257715125623,195.03867561942013 2.9871293918134683,194.88352657837 2.788089504092474,194.76920623290624 2.5482209215760316,194.57322849730403 2.2154670579406064,194.45074241243097 1.9403837258756236,194.3119248497736 1.8801614009337007,194.25884754644215 1.6265131337002094,194.04653833262972 1.201894706562088,193.8097319021104 0.8497472129627067,193.581091210757 0.5522080987541433,193.32795330220998 0.3827690148480661,193.17280426158572 0.10156137860635354,192.92374922240873 0.05664981413667429,192.87067191907732 0,192.8135117461325 0.2021020397789394,192.32356740706612 0.3307124287678896,191.94794341407191 0.4052247969916465,191.7846286342209 0.6966396070234803,191.24977273098904 0.8849619623287288,190.91497743254692 1.0350074160873806,190.69450248017696 1.348367649638121,190.20864101048062 1.3815409642582865,190.1433150985524 1.3208082805082206,190.1433150985524 1.249868423150552,190.13923222936486 0.92374922243916,190.049409100243 0.6236583147982762,189.93100588498334 0.5629256311090497,189.90650866821557 0.8880241144475134,189.55129902237573 2.621202213618717,187.53844436308304 3.072869651140386,186.98725698145847 3.22699797445159,186.83619081038677 3.542399642747236,186.58713577127062 4.034895775124241,186.2605062122378 4.251287858185965,186.12168864933705 4.948948182581423,185.71340170016578 5.162788472270716,185.60316422388954 5.673657517420317,185.2765346646742 5.747149168211257,185.23162310026535 5.960479099153246,185.14996571018776 6.068675140744472,185.11730275443657 6.369276407011931,185.03156249492807 10.903813336305243,184.23540294416577 11.313121002849442,184.17824277122097 11.589225052226514,184.16191129343665 12.267491746476447,184.1496626846573 12.964131353499928,184.1496626846573 13.636273743573131,184.1496626846573 13.771518795546003,184.1537455544532 14.329851198477828,184.1496626846573 14.396197827778998,184.1537455544532 15.022407936008644,184.16191129343665 15.704247141125617,184.16191129343665 16.392721009165673,184.16191129343665 16.80560118651512,184.13333120687295 17.078643083773407,184.0965853815084 17.417010892899096,184.01901086098334 17.753847625965395,183.90469051545873 18.453039026482035,183.63113825939232 18.672493261600753,183.54948086967974 19.15937544854833,183.3902489594421 19.846318240468158,183.12894531172913 20.18366533222092,183.0268735744363 20.526116010838322,182.95338192370716 20.800178625469538,182.9329675761269 21.206934498581415,182.9574647932597 21.89949123611318,183.0268735744363 22.375655890705854,183.07586800858022 22.586434028093844,183.10036522534799 22.801295035096178,183.11261383394478 23.007990303174022,183.12486244229825 23.289708298102198,183.15344252886192 24.00778296995717,183.22693417959107 24.35227508332043,183.26368000513816 24.711057239843843,183.27184574418243 24.852426595994395,183.25551426615473 25.408717564240252,183.11669670331483 25.549066203017876,183.05545366099997 25.900192979366008,182.9125532287292 26.111991834187766,182.85947592539776 26.17731774611601,182.84722731698346 26.540182772131136,182.78598427448608 26.821390408373798,182.7737356662543 27.51700929808424,182.76556992708836 28.19986922051235,182.76148705771834 28.617342626039974,182.76556992708836 28.887322371179476,182.790067144282 29.150667453516625,182.8186472304198 29.56048547862561,182.90030462055825 29.98510390576373,182.94929905427628 30.256104368337002,182.98604487982337 30.60518970993928,183.02279070500543 30.967034018521588,183.03503931341973 31.247220937450262,183.00237635785106 31.523324986827333,182.94521618490626 31.6667357776629,182.90438748974577 31.806063699066648,182.84722731698346 32.34959570015185,182.54509497453589 33.123299468831405,182.04290202705522 33.31825648712153,181.9081673340112 33.5943605364986,181.77343264054133 33.75257172924163,181.69994098962968 33.94548731272506,181.60195212213276 34.297634806385275,181.5162118628068 34.56965598627063,181.46313455947538 34.994274413530434,181.44272021189514 35.68172756413672,181.4345544729117 36.36560820393776,181.4345544729117 36.400822953364624,181.4345544729117 36.47125245203583,181.43047160329832 37.47972121648886,181.414140125514 37.81145436269052,181.44680308144768 38.22535525747374,181.49988038483994 38.506052535028985,181.57337203575162 38.77348048667628,181.6550294254642 39.17615349029549,181.81426133570181 39.49818982157601,181.9081673340112 39.84727516299577,181.9816589849229 39.91106999880378,181.98982472372379 40.18002902657035,181.9979904627072 40.52656257474031,181.94899602874582 40.65925583328181,181.92041594218216 41.22371254045026,181.7489354237736 41.93004896251655,181.5692891659557 42.06988724260771,181.55704055772392 42.34956380272919,181.57337203575162 42.61495031975136,181.6713609032485 42.87370217378865,181.83059281348616 43.240139710669865,182.15313950333146 43.564217476513726,182.41036028124853 43.740801582031246,182.5777579306521 43.871453405766054,182.6879954069892 44.143474585650466,182.89622175076235 44.53594041554135,183.14119392050847 44.80387872593499,183.25551426615473 45.2116553164198,183.36575174243097 45.349452161825944,183.39433182899464 45.90727420613119,183.443326262591 45.97157940056483,183.44740913238692 46.59625843285771,183.51681791350268 47.27809763791289,183.59439243402772 47.98545477735212,183.6801326933537 48.70914339481904,183.77812156103312 49.39761726285909,183.88427616793933 50.08864292427063,184.00676225275154 50.23205371522788,184.03942520856359 50.790896476846164,184.137414076243 51.07567662389217,184.1904913798178 51.44721774763803,184.23948581353582 52.21632828813941,184.3742205070057 52.902760721494445,184.51712093921563 53.16151257553174,184.57019824260792 53.56061306828582,184.6926843272376 53.69330632682827,184.77434171719355 53.790784835880174,184.88049632367387 54.05310920072366,185.2030430137017 54.28532240312566,185.47659526946393 54.420057096291345,185.57866700675675 54.618076266639406,185.6929873528289 54.681360743882635,185.72156743921005 54.87835919673609,185.74198178672944 55.29991547175543,185.70115309181233 55.71738887728306,185.6848216138455 55.9924722092872,185.70931883061323 56.613578730713996,185.84405352402226 56.67431141440322,185.85630213225406 58.881102374672984,186.95051115609388 61.58294126087566,187.46903558172392 64.07655380287835,187.47720132070734 68.94231351962696,188.71431077645295 69.05255099590322,188.65306773432062 76.30576864793179,184.41096633237026 76.30168577843912,184.24765155251924 76.25422242059796,184.14557981522643 76.16644072658698,184.03942520856359 75.78009920093366,183.78628730001654 75.71171113694747,183.72504425770168 75.63668840997641,183.60664104262455 75.51573340134526,183.29226009170182 75.49889156469195,183.23509991881784 75.3937576752195,182.85131018641434 75.37334332776095,182.68391253719327 75.3758951212541,182.62675236424846 75.40906843587332,182.56550932211613 75.5371684661758,182.47976906260763 75.55145850933691,182.42669175945872 75.50501586886868,182.25521124062428 75.52645093370018,182.14497376434804 75.59534935637282,181.593786382906 75.60045294329831,181.46721742866288 75.55452066151653,181.30390264923773 75.63158482323345,181.02626752374044 75.68415176781757,180.809875440558 75.68925535468222,180.4873287508952 75.65199917063117,180.27501953732613 75.6795585396394,180.1157876270885 75.60708760616055,179.94838997786744 75.56421747649851,179.88714693549176 75.43050350070577,179.80548954559666 75.37232261038801,179.75241224226522 75.30087239428305,179.64625763535904 75.23248433029686,179.4176169438231 74.95842171572649,179.13998181850832 74.9410695203867,179.03382721160213 74.96556673727613,178.5275513947514 74.92320696629962,178.29891070339804 74.91759302074851,178.01310983867396 74.96658745470991,177.78446914713803 74.97015996545431,177.73547471317664 74.98291893261592,177.63748584567972 75.05590022484112,177.531331238591 75.07376277886736,177.4292595012982 74.99567789977752,177.2128674185416 74.96811853083014,176.90665220666315 74.97628426975272,176.79233186077352 75.02987193177061,176.6861772538673 75.30189311165597,176.39221065040317 75.36926045826924,176.22889587097802 75.37334332776095,176.1799014370166 75.29525844879278,175.95942648464666 75.28147876425825,175.85327187755792 75.37895727331205,175.63279692518796 75.36160507797227,175.52255944891172 75.42693098990051,175.42457058117145 75.43458637019748,175.36741040804412 75.35190826292946,175.240841453801 75.15542016864077,175.06119519616564 75.05794165952614,174.93870911171848 74.91657230343547,174.84888598259658 74.87166073896675,174.7917258098343 74.86298464129686,174.68557120298894 74.89309580379823,174.5753337268952 74.86400535866979,174.5222564235638 74.60423278725956,174.13846669116026 74.5312514950952,174.09763799636482 74.37712317178304,174.08130651821546 74.22197413109797,174.04047782323747 74.07856334026239,173.93024034696123 74.00762348278305,173.820002870685 74.00354061329134,173.71384826420467 74.06580437310079,173.61177652691185 74.21329803342807,173.46479322502768 74.52461683223106,173.2157381859115 74.55472799473243,173.10550070963527 74.54860369043497,172.99526323335903 74.5118578650704,172.93810306041422 74.29903829281488,172.84419706228735 74.01629958045294,172.82378271495045 76.16644072658698,170.43530406205517 83.7217907209405,168.04274254015488 86.34605508673884,161.83269804307733 88.57887434001923,155.47158737517145 87.70105739936183,155.07963190396703 85.49988038458139,154.11199183418776 84.91858184075963,153.94459418496672 84.069855345109,153.72411923259673 82.92256901793773,153.45873271563542 82.71791518466564,153.43423549850263 80.1824532303111,152.7605620326134 79.83336788883145,152.666656034304 79.54552558960486,152.5278384716466 78.88103857982958,152.26653482393363 78.66056362727613,152.18487743422105 78.6100381173162,152.1644630866408 78.43345401186046,152.0133969153866 78.41865360989121,151.96031961205517 78.4365161639184,151.85824787476236 78.50643530402482,151.7520932682212 78.56002296604271,151.58877848824847 79.31535382200956,149.49834930879578 79.30055342016294,149.37586322392272 79.42661201565873,149.29420583421012 79.50622797074713,149.24929426949708 80.19317076272779,148.86958740688948 80.41364571527933,148.7266869746187 80.90256933691288,148.36739445940884 81.33739493778027,148.08975933391153 81.47876429399167,148.03668203076262 81.63136154124443,148.01626768299985 82.19581824841288,147.836621425547 86.40525669436867,143.49653115573474 84.47559050084796,140.44254477593364 84.47303870747648,140.39355034215475 84.51182596770859,140.3363901694533 84.56745506441149,140.23431843216048 84.58684869455797,140.12816382507174 84.53428174979227,139.9240203504861 84.48630803338538,139.81378287420986 84.30513069956895,139.5320648792817 84.01932983514907,139.24218114561344 83.74016363365226,139.05028627919876 83.54010302855929,138.88288863034273 83.55082056097503,138.77265115388397 83.52938549626522,138.71957385055254 83.39669223772371,138.61341924364635 83.31605556526334,138.5848391574477 83.25430216413939,138.5644248099283 83.03893079851238,138.55625907088404 82.83223553043359,138.59300489649198 82.43874898316884,138.4092757690607 82.13661664078305,138.3521155962984 81.89062375396819,138.31128690138127 81.7257778982403,138.27045820658583 81.52367585833967,138.24596098945304 81.38332721956205,138.20513229447508 81.32565668805245,138.14797212171277 81.31289772089085,138.0867290792154 81.35883000267356,137.8540055182486 81.37567183926508,137.6253648268952 81.35985072004554,137.51104448082307 81.32208417730803,137.4620500472267 81.25165467845432,137.40897274353026 81.11028532230375,137.36814404897817 80.67392864537696,137.3763097879616 80.39884531343272,137.28240378946967 80.11202373157906,137.21707787772394 79.96606114725127,137.21707787772394 79.81958820429692,137.25382370308853 79.74762762950549,137.3028181370499 79.71037144533277,137.35181257095047 79.62820369687289,137.59270187071817 79.46846142794878,137.87441986564633 79.31739525681625,138.02548603708306 79.17857769415886,138.10714342679563 78.94075054614493,138.20513229447508 78.54930543362602,138.28678968461352 78.47836557620846,138.27045820658583 78.40589464273056,138.22146377268527 78.28238784060625,138.00915455887286 78.16602606015327,137.89075134361318 78.03027064961466,137.858088387862 77.89961882575818,137.858088387862 77.69802714466665,137.82134256249742 77.43161991027061,137.7029393469944 77.24023540284563,137.67844213004412 76.81306518233697,137.7151879554087 76.7426356835441,137.71110508622118 76.5456372306298,137.59270187071817 76.41294397214914,137.50696161163555 76.42876509136772,137.35181257095047 76.41702684164085,137.1966635299612 76.49970494878718,137.09459179266838 76.5349196981532,136.9884371859447 76.46959378628581,136.8741168402984 76.40528859185217,136.82103953690614 76.27055389856577,136.75571362522126 76.05416181550405,136.7271335386576 75.90768887254968,136.75979649440876 75.47643578242574,136.91494553521554 75.325369611355,136.9884371859447 75.11255003903769,137.0619288370997 75.06100381170576,137.11092327063523 74.84359101127207,137.15583483534826 74.61035709155797,137.14766909636484 74.47153952877986,137.09867466246428 74.39294429112427,136.9884371859447 74.26280282601509,136.91494553521554 74.20155978370023,136.70671919125985 74.20258050113401,136.65364188792844 74.0954051769157,136.5474872808397 74.03773464528443,136.4454155435469 73.90708282154962,136.3515095452375 73.70089791221812,136.24535493875717 73.6345512829778,136.22494059117693 73.41407633042532,136.2126919825801 72.98333359904962,136.29026650310516 72.26627964462841,136.41683545716575 71.8651377170068,136.4780784994806 71.71764405667952,136.46991276049718 71.63802810165102,136.42908406576257 71.52676990794195,136.31884658948633 71.36855871513808,136.14736607065186 71.21749254388388,136.05754294195586 71.08173713328443,136.02487998614384 70.87606258270024,136.03304572512727 70.7403071721008,136.02896285557472 70.44480949257725,135.92280824885103 70.20494090993913,135.91055964031506 70.11307634637559,135.91464250968508 69.93189901274168,135.93913972687872 69.59914514910625,136.00854850799448 69.27608810063627,136.10245450630387 68.88004975987835,136.2045262435967 68.80604775034107,136.19636050479576 68.73970112110072,136.1677804182321 68.55137876579548,136.04529433335904 68.13951930581896,135.747244860464 67.92006507070025,135.624758775956 67.84095947423842,135.60842729780663 67.49595700218775,135.59617868939233 67.32294540747642,135.61251016742003 66.97488078330791,135.60842729780663 66.37878183751785,135.6410902539837 66.10676065763249,135.69825042668515 65.26671025977345,135.98813416041423 64.93191496139217,136.14736607065186 64.83545716965045,136.2045262435967 64.77778663814085,136.10245450630387 64.67061131398434,135.99221703021013 64.5894642828356,135.8819795539339 64.53689733806802,135.76765920786175 64.484330393424,135.71049903509945 64.2796765601519,135.6002615588232 64.12452751940597,135.55943286384525 63.8249469705124,135.47369260476262 63.692253712031736,135.42061530137036 63.578954083575866,135.314460694525 63.53710467128581,135.20014034863536 63.550884355820344,134.8980080063703 63.58201623575549,134.68569879280125 63.50188992198063,134.42439514527078 63.461061227002666,134.18758871487313 63.47841342234244,134.13451141117665 63.54118754077753,134.02835680445298 63.66877721239355,133.9140364588067 64.05716017279367,133.69356150643674 64.11176855224437,133.64456707247533 64.27355225585349,133.38326342476236 64.35367856962836,133.1627884723924 64.35469928700128,133.09746256046415 64.25517934314078,132.93823065022653 64.12248608472096,132.83207604350284 64.07859523762421,132.77491587080138 64.09033348741288,132.72183856704407 64.21588172434389,132.56668952641982 64.47055070888948,132.22781135872935 64.56904993537704,132.121656751884 64.62774118431946,132.01141927579025 64.73797866053677,131.83993875713833 64.86863048427156,131.73378415029293 65.01306199253996,131.6684582383647 65.16616959847919,131.63987815198357 65.24629591225404,131.6357952825527 65.64641712244189,131.71745267226527 65.87352673791746,131.6684582383647 66.01183394195112,131.59496658763555 66.09093953841295,131.55005502328754 66.17208656956073,131.5704693704419 66.23332961187559,131.4234860688011 66.25374395945488,131.30099998411058 66.2578268288867,130.89271303493928 66.32723561018499,130.71306677736476 66.48238465093091,130.48850895519888 66.66968628886322,130.15371365675676 66.74930224389078,130.04755905003307 67.12135372644478,129.62294062289496 67.274461332384,129.38205132294476 67.40970638423616,129.20648793474027 67.62048452168499,129.05133889429854 67.76899889944603,128.96559863479004 68.26915041224167,128.86760976711062 68.43705842002753,128.80636672455242 68.52484011422102,128.7614551602044 68.64120189461316,128.65530055348074 68.76777084885626,128.414411253348 68.82646209786046,128.21843351798915 68.84789716269195,128.0347043907404 68.82646209786046,127.83872665513819 68.83922106502206,127.59375448563543 69.04183346348651,127.04664997380677 69.07143426730238,126.98540693124855 69.21382434094754,126.76901484830945 69.56954434535217,126.4546338976301 69.95588587094466,125.9401923413701 70.12073172667255,125.71971738900014 70.23198992032172,125.59723130412708 70.82502671405383,125.0378781837016 71.57168147228995,124.53160236685089 71.79215642484243,124.36420471762983 72.01058994264906,124.16414411259676 72.21422305854824,123.94366915986174 72.44745697826232,123.64970255658011 72.63373789882172,123.42106186522672 72.81542559126378,123.22916699881202 72.9430152628798,123.05360361079006 73.13337905287007,122.82088004964075 73.5350313391173,122.22069823448066 73.72437441179548,121.96347745674612 73.88922026752337,121.65726224486767 74.00354061329134,121.2938868600444 74.04334859083554,121.04483182111076 74.05814899274299,120.22825792276822 74.06019042748885,119.8444681901822 74.06478365566703,119.19529194106072 74.06478365566703,118.55836430053604 74.06223186235638,117.90510518161865 73.94791151646675,117.27634328007741 73.92953860381488,117.18652015113805 73.71467759675267,116.18621712560761 73.37937193974575,115.17366549184537 73.2864866588093,114.99401923427085 72.60362673632034,114.00188194790636 72.48573387974713,113.78957273433728 72.38213106645577,113.68341812724856 71.71407154587428,113.40170013232039 71.06540565531758,113.16489370198356 70.99701759133139,113.14039648497246 70.91127733200638,113.10773352885623 70.46930670952752,112.92400440203336 70.17534010612421,112.82601553411057 69.96558268604831,112.69128084088405 69.83391014494057,112.55654614777922 69.79104001527664,112.49530310509932 69.68488540849306,112.32790545606078 69.57771008427476,112.03802172233169 69.50830130291564,111.93186711548633 69.42715427176785,111.76446946626527 69.13778089654272,111.59707181722672 69.0224398335235,111.48275147115457 68.80196488084934,111.2622765187846 68.4217476594954,110.96014417627619 67.84606306110307,110.66617757281203 67.70571442232449,110.6498460950277 67.57097972915881,110.6049345306797 67.15248560619646,110.31505079658558 66.87536083944741,110.15990175614385 66.34356708815278,109.98433836793937 66.21597741653581,109.93942680334801 66.02255147442676,109.79244350188971 65.84035342335908,109.5760514187681 65.64794819850128,109.38415655271844 65.5780290584557,109.16776446959683 65.531076059301,108.96770386438122 65.28712460723202,108.42059935237005 65.00336517761882,107.9755665778342 64.78952488792953,107.76734023406105 64.52720052302614,107.62443980160775 64.21894387640184,107.49787084754718 63.60038914840736,107.35497041509387 63.461061227002666,107.31414172029842 63.18393646025267,107.22023572198903 62.785856684810675,107.21615285243648 62.01623578568367,106.96709781350285 61.553850815747204,106.82828025084545 61.12361844305798,106.77520294727066 61.090445128437814,106.77112007790063 60.973572989176695,106.64863399302757 60.93937895718361,106.61597103727638 60.73931835208968,106.44857338823785 60.70614503746952,106.41591043206078 60.59999043074583,106.29342434737025 60.175372003607706,105.93413183197785 59.86252212874438,105.72182261840878 59.78239581496952,105.6769110542433 59.63694358932725,105.6279166200994 59.412385767283055,105.489099057442 59.12964705504279,105.25637549629269 58.89641313526881,105.09306071686754 58.840784038564955,105.03590054392274 58.819348973672625,105.0154861963425 58.74738839882035,104.90524872006624 58.68665571519196,104.79092837454165 58.66930351985218,104.72560246243088 58.6514409657651,104.66027655068515 58.636130205232014,104.61944785576803 58.595301510254046,104.56228768282321 58.566721423812055,104.49287890164662 58.44270426300128,104.28873542706098 58.3962616225321,104.16624934224876 58.233967560237474,103.98252021518253 58.16404842025273,103.94577438963543 57.879268273205774,103.90494569471831 57.81088020921958,103.90086282510492 57.40106218392808,103.86411699974035 57.099440200227804,103.86003413037031 56.84119870493782,103.85595126075692 56.53498349306032,103.81512256577895 56.09760609882048,103.7089679591161 55.28205291772919,103.42724996400541 55.11516562737711,103.3619240524422 54.73392768846676,103.0924546657458 54.52110811621123,102.98221718946957 54.45578220440467,102.96180284225436 54.13323551449852,102.9128084083538 53.72699000007311,102.90872553855789 53.496818232476855,102.9128084083538 53.34575206134527,102.93730562512155 52.92623722101096,103.10062040472923 52.75067383286826,103.13736623027633 52.61491842226691,103.13328336072377 52.54091641279141,103.0924546657458 52.36637374202069,102.90055979957447 52.201527886292794,102.83523388782874 51.89429195704236,102.69233345555796 51.43956236740286,102.44327841680685 51.344125292972286,102.39020111311038 51.26195754457324,102.36162102672922 51.10221527558831,102.30854372358033 50.66228608797794,102.21872059464096 50.390775266657364,102.17380903011045 50.24277124758278,102.12889746576245 50.13457520611323,102.0186599894862 50.040669207803845,101.85126234026514 49.98401939354549,101.70836190817687 49.98197795879963,101.6471188656795 49.97942616536826,101.53279852015491 49.977384730682296,101.33273791481763 49.971260426383886,101.21433469974048 49.971260426383886,101.01835696413826 49.96768791563948,100.8958708792652 49.96462576351974,100.64273297071819 49.96564648083278,100.53249549444193 49.987081545664275,100.29568906410512 49.9753432958756,100.04255115537558 49.94421141600224,99.96905950464642 49.8630643848535,99.86290489792273 49.5803256725524,99.66692716232052 49.512958325999975,99.61384985880657 49.481826446065774,99.5648554250277 49.475702141948936,99.45461794875146 49.49815792403167,99.33621473330928 49.59869858532594,99.22189438760216 49.803862777223664,99.09940830315497 50.11007798910307,98.85851900302225 50.182038563893556,98.79727596046403 50.284620659872836,98.67478987595601 50.32749078953582,98.56455239967977 50.34892585436731,98.49514361819898 50.37342307131759,98.37265753332592 50.38209916898748,98.26242005723219 50.383119886360404,98.20117701467399 50.38209916898748,97.91129328100574 50.387202755852115,97.79289006550272 50.4173139183535,97.65407250302783 50.49641951487711,97.55200076573502 50.64085102308561,97.38052024696141 50.686272946180914,97.32744294362998 50.728632717096595,97.27028277068517 50.85622238871357,97.02939347073496 50.872043507993,96.97631616716018 50.88276104046959,96.77217269257453 50.83478732388112,96.44146026374581 50.79651042239632,96.26589687554132 50.77507535756482,96.21690244194497 50.73322594533561,96.09849922650278 50.70209406540046,95.99642748920996 50.655141066244816,95.8086154927737 50.64238209908416,95.75962105887314 50.632685284042296,95.68204653834809 50.627071338551076,95.59630627902212 50.61839524088119,95.47382019433158 50.59593945861593,94.78789811984552 50.54388287259659,94.35103108411059 50.48212947159433,94.28162230281231 50.42752109214362,94.26937369421549 50.39485813614908,94.26120795523207 50.319835409238856,94.26937369421549 50.07894610928865,94.28162230281231 50.00851661049577,94.29387091140912 49.888582319176706,94.31836812817689 49.66810736662422,94.38777690965767 49.17561123418637,94.70215786058039 48.85357490308837,94.85322403140873 48.56573260386179,94.9879587248786 48.343216216624285,95.04920176701093 48.0446563849829,95.05328463680685 47.83234717141289,94.93488142130381 47.633307283752735,94.82872681464097 47.55011881779825,94.78381525029296 47.19235737858693,94.67357777401672 46.89073539488665,94.51434586377908 46.68097797481075,94.40410838768537 46.15888103849715,94.16730195692267 45.78070525182726,94.00807004668503 45.55920958190185,93.96315848233704 45.409674486828706,93.95499274335361 45.24993221790461,93.959075612967 45.018739732936375,93.9100811790056 44.95443453850274,93.86925248421016 44.8549145945814,93.7467663993371 44.840114192673944,93.61611457572397 44.83807275792809,93.4609655350389 44.83807275792809,93.42013684012176 44.83909347536281,92.76279485201685 44.79928549775682,92.49740833469049 44.8023476498756,92.37900511961334 44.832458812376984,92.2687676433371 44.90084687636317,92.15036442825995 45.06058914528727,91.94622095367431 45.28310553252477,91.57059696007171 45.415798791005436,91.41544791962998 45.54083666924998,91.30521044335374 45.57298926643637,91.25621600939235 45.593403613894935,91.15006140248614 45.57758249461455,90.85609479902199 45.54747133211317,90.43555924143642 45.56788567957173,90.27224446182875 45.669447058178086,90.0599352484422 45.80214031665875,89.88845472979027 46.01189773679454,89.72513995000008 46.114990191522075,89.61490247372384 46.17572287515046,89.50874786681763 46.18133682070157,89.2637756974974 46.09100333319742,89.04738361431494 46.02618778007732,88.93714613822121 45.83735506602477,88.72075405485624 45.713337905214,88.62276518735933 45.45764820329549,88.43495319055803 45.44386851888264,88.21447823818806 45.46632430096538,88.10424076191183 45.57860321204832,87.82252276680113 45.625556211203964,87.50814181612176 45.79244350167677,87.03452895502225 45.986379802472285,86.70789939556356 46.188481842312065,86.48742444319359 46.48806239126648,86.20162357871286 46.56665762910363,86.08730323282323 46.55900224868499,86.03830879886183 46.49265561944466,85.89949123620444 46.38854244740599,85.76067367336454 45.8858391412997,85.7443421955802 45.358128259495835,85.7443421955802 44.658936858979196,85.7443421955802 44.43744118905378,85.6994306312322 44.16490965048195,85.57694454635914 43.98169088204135,85.42996124471831 43.85103905830654,85.27481220403324 43.6433230729765,85.05433725129824 43.51062981443499,84.96043125317136 43.45295928292539,84.91143681945333 43.29883095961229,84.83386229874574 43.2268703848218,84.79711647338117 43.09315640890737,84.79711647338117 42.961483867799636,84.91551968864084 42.78949299052208,85.10741455505554 42.62975072159798,85.20132055330409 42.407234334420366,85.36871820234263 42.28525860823472,85.31564089882869 42.24800242412284,85.37688394132606 41.90861389768506,85.40138115833717 41.52227237203174,85.39321541935375 41.14205515055516,85.33197237679553 40.82971563443914,85.22581777013268 40.545956204765105,85.07475159887848 40.41020079416566,84.97267986158566 40.05448078976103,84.65013317192287 39.83400583720759,84.42557534957447 39.79164606629191,84.37249804642556 39.65997352506345,84.13977448545879 39.58699223295992,83.86213935996147 39.551777483533066,83.5845042346467 39.489513723845285,83.31911771732034 39.42520852935081,83.15172006846431 39.273631999410135,82.93124511572931 39.210347522288586,82.87816781239788 39.069998883511914,82.80059329187281 38.924546657868696,82.7352673801271 38.65150476067125,82.653609990232 38.30241941912981,82.58420120887288 37.805840417139414,82.44538364639801 37.599655507807924,82.33106330056921 37.42919570652797,82.19632860709935 37.11583547310081,81.91461061241452 36.850448956078644,81.76762731053034 36.79890272874577,81.69413565980119 36.71979713240468,81.58389818334243 36.64885727492533,81.29401444961334 36.637119025136656,81.26135149349713 36.8126824132803,81.26135149349713 37.027033061656056,81.25726862406626 37.344986523323186,81.19194271232053 37.65630532206628,81.09395384445858 37.81247508012429,81.06537375789492 37.94925120809666,81.02454506334283 38.09062056418638,80.92247332605001 38.27894291949163,80.74282706823213 38.501969665537274,80.61625811417156 38.980175754693285,80.36312020562453 39.26036267356207,80.17122533939235 39.729382306422565,79.88950734452501 40.088164463067656,79.6486180445748 40.368351381875605,79.45264030879008 40.69140843040737,79.27707692076811 40.8337985039318,79.2158338782099 41.062949554214065,79.10151353256363 41.57330824067815,78.92186727474575 41.783065660754055,78.85245849363 42.0530454059544,78.80754692903864 42.33221160738942,78.79529832068518 42.87472289116158,78.79529832068518 43.15950303820854,78.83204414623226 43.25289867783147,78.86062423261342 43.31720387232595,78.88512144938117 43.86737053627339,79.0851820547793 44.01792634884114,79.10967927154705 44.32005869122788,79.08109918498339 44.81306518235219,78.91370153576233 45.03711264564813,78.85654136300002 45.587279309718205,78.81571266826542 46.31147828587159,78.77080110385657 46.39007352346538,78.76263536487315 46.477855217537204,78.74630388672378 46.84276167841986,78.54624328175154 47.04792587031759,78.38292850190051 47.24798647541151,78.17470215812736 47.468461427963994,77.83990685968524 47.71802682570578,77.51327730022655 47.71802682570578,77.42753704090057 47.64657660960081,77.20297921891722 47.43426739609259,76.80694087816025 47.38425224469742,76.67220618511625 47.36383789723981,76.43948262414946 47.405687309528915,76.25983636614906 47.473054656142175,76.10060445609395 47.54552558962008,75.91687532890604 47.89920415933969,75.54533420509934 48.365671998889546,75.22687038480659 48.54633897377615,75.15337873389493 48.71781949248893,75.08396995277917 48.93063906474445,75.02272691022095 49.328718840125596,75.02680977983435 49.783958788451564,75.09213569176259 49.97023970901096,75.19012455962454 50.06312498994742,75.28403055775141 50.23307443253901,75.33710786108283 50.32647007216289,75.35752220848056 50.39383741883699,75.3779365560608 50.60563627371959,75.39018516465762 50.76639925989493,75.41059951223787 51.36147748831206,75.46775968493932 51.99585333558692,75.43917959837565 52.24541873326786,75.4228481204088 52.315848232060745,75.41059951223787 52.85427664621952,75.22687038480659 53.13599464120853,75.15746160369083 53.40240187548195,75.07988708316577 53.82957209611323,74.9859810850389 54.09189646089494,74.84716352201647 54.28991563130384,74.7287603067568 54.607358734222714,74.48378813755824 54.70381652596537,74.36946779172945 54.87937991410902,73.93668362554706 54.944705826037264,73.82236327990078 55.03554967216703,73.65904850023227 55.18763656073333,73.27117589827621 55.2988947543825,73.10786111885106 55.412704741524834,72.9935407727789 55.61684821611047,72.87922042707179 55.75260362670991,72.82614312374037 56.01492799149162,72.70773990866321 56.22672684637421,72.5076793034476 56.239996172222284,72.40560756615479 56.22060254219748,72.35661313243676 56.16599416268499,71.862585923757 56.26245195448754,71.57678505945879 56.37779301762843,71.31548141192833 56.4400567773162,71.05826063401128 56.58755043770432,70.51115612218261 56.78148673862152,70.13144925914914 56.937656496618686,69.9763002185249 57.125978851984776,69.82523404727068 57.480167780330014,69.47410727122674 57.57101162652062,69.38020127291736 58.075246008868824,68.89025693366847 58.31817674350405,68.6248704169505 58.45342179547787,68.54321302705542 58.66317921555377,68.4819699844972 59.01634742658692,68.38398111681778 59.409833973911574,68.31865520507205 59.7675954131229,68.27374364072405 60.170778775429525,68.18392051160218 60.61836334345853,68.04918581855817 60.89242595802891,67.93486547266853 61.233855919334225,67.78788217084521 61.553850815747204,67.53882713209408 61.95193059112835,67.16728600828739 62.18108164135073,66.94681105591742 62.273966922287194,66.8447393186246 62.554664199843394,66.38745793530943 62.602637916370064,66.29355193700003 62.81239533656765,65.91384507420992 63.107893015969516,65.36674056238125 63.227827307287626,65.1544313489947 63.450343694647756,64.72981292185658 63.57436085551937,64.4480949267459 63.73920671118643,64.16229406244769 63.93977767496682,63.74992424366302 64.0561394554198,63.57844372525444 64.47667501306715,63.01500773521557 64.62978261900447,62.851692955425385 64.78595237712332,62.72920687073484 65.39634136607543,62.41890878948635 65.92915583480288,62.28825696581239 66.60691217036731,62.145356533359084 66.87842299162703,62.11677644697794 67.28109599518636,62.10861070799451 67.76032280177614,62.092279230210174 67.95630053737835,62.01878757929851 68.28905440095293,61.90446723340887 68.35131816070155,61.85547279944748 68.51208114705942,61.64316358587842 68.54933733111046,61.53292610960218 68.51718473380238,61.37777706916045 68.3911261382448,61.22262802853621 68.40031259466295,61.185882202928276 68.23138386950417,60.777595253757006 67.57097972915881,59.916109790883944 67.39643705838809,59.597645970834556 67.32498684228311,59.389419626453005 67.28875137548333,59.230187716215376 67.28211671262014,58.84231511462435 67.30967608162835,58.72799476891723 67.55311717507172,58.282961994198864 67.67917577062835,58.058404172458864 67.94558300502345,57.72360887401674 68.51820545117532,57.17242149239217 68.7932887831804,56.83762619413257 68.86831151015052,56.625316980563504 68.8780083251325,56.51507950446978 68.83615891284244,56.35993046384554 68.68764453508234,56.09046107733166 68.60190427575543,55.92714629748063 68.62538077539361,55.8209916910003 68.75246008826232,55.65767691096676 68.88668442280239,55.55560517367394 69.29446101334803,55.29838439575688 69.4470582606008,55.24122422281206 70.22127238796682,54.767611361895064 70.55402625148056,54.51447345334804 70.89953908221675,54.22867258886731 70.97252037438112,54.17151241628753 71.22310648943498,53.98370041972959 71.55994322256306,53.83671711784541 71.89831103162697,53.6978995550055 72.23769955824727,53.58766207872925 72.63169646413671,53.38760147375701 72.90780051345294,53.20795521593913 73.10888183598063,53.06505478409422 73.52176201333008,52.68126505150819 73.77132741095018,52.46079009913823 74.19645619677476,52.19132071280686 74.85226710894194,51.86877402296156 76.34200411466979,51.24409499060784 78.19715793996674,50.36627804988961 78.7621250058825,50.21521187869624 79.04384300081067,50.13355448898366 79.46539927583001,50.07231144642545 79.88287268135763,49.99473692632627 80.15438350255653,49.89674805822097 80.43712221491846,49.741599017779244 80.84591952271631,49.60278145493933 81.55123522746958,49.325146329624545 81.981467600097,49.18224589717124 82.26828918189078,49.043428334513855 82.96288735422924,48.61064416857482 83.13947145968497,48.443246519353764 83.21143203447642,48.28401460911613 83.20377665417945,48.07170539554707 83.18795553496085,47.524600883718406 83.26144718587157,47.25921436657456 83.27879938108967,47.20613706324313 83.35382210806168,46.985662110873164 83.50131576838801,46.695778376779046 83.89327123959244,46.10784517015494 84.1040493771021,45.830210044475116 84.15763703924073,45.72405543781226 84.16274062610536,45.572989266558054 84.10098722498331,45.42600596491724 83.91878917391564,45.27493979366302 83.70137637348193,45.1769509259836 83.63400902686868,45.12795649183969 83.46916317120066,44.98097319038139 83.30891054359105,44.764581107198936 83.26144718587157,44.66250936990612 83.22419100163802,44.45428302595045 83.23694996879962,44.29913398508285 83.33544919528718,44.13581920547518 84.73128020276647,42.784389403900796 84.9614519704226,42.56391445110495 85.33401381148056,41.91882107159686 85.51774293860763,41.62893733750274 85.6805473596505,41.3268049954202 85.74791470626377,41.22473325812738 85.92654024652525,41.05325273911041 86.21336182825817,40.853192134320686 86.43077462869188,40.6776287461162 86.82477153470299,40.40815935978484 87.33972344934526,40.09786127811048 87.43924339314492,40.04070110516566 88.04146664323338,39.656911373188024 88.25020334605803,39.56300537487863 88.43750498386868,39.52217667971814 88.76617597795155,39.48951372414948 89.15915216658973,39.42418781222124 89.67155228773883,39.264955901983605 89.89662046846951,39.21596146783969 90.13393725773614,39.18738138145854 90.90662030898193,39.15063555609397 90.9739876555952,39.15063555609397 91.38635747425818,39.17104990349169 91.68287587109381,39.248624424016754 91.90743369319885,39.31803320513251 92.00389148487876,39.39560772565757 92.0411476689916,39.403773464641 92.18915168806619,39.44051929000557 92.89344667544746,39.436436420574694 93.20170332201094,39.29761885773479 93.41248145958144,39.1751327732876 93.59110699984387,39.05264668841454 94.28876732424028,38.497376437602455 94.54905025427517,38.30139870200024 94.7598283917858,38.06459227123755 95.61314811555376,37.07653785448643 95.95457807679823,36.753991164397775 96.32662955935223,36.37020143242013 96.69919140034933,35.986411700016625 97.0227588076284,35.582207620458746 97.53413821146542,34.90853415414363 97.59180874297407,34.82687676424853 97.97508811650955,34.32876668656378 98.13687182017951,34.06746303885081 98.51555796553586,33.422369659281884 98.6921420709916,33.120237316834306 98.98100508753026,32.748696193027605 99.6158912934916,32.005613945596735 99.92210650537005,31.69531586434825 100.14768504478718,31.519752476326282 100.32018628093371,31.385017782856405 100.8228895869782,31.017559528845617 101.114304397011,30.74809014233174 101.59251048616701,30.360217540497352 101.99722492453303,29.98051067788975 102.01661855467951,29.935599113176714 102.32385448387005,29.51914642502202 102.47032742688523,29.384411732160537 103.24301047819186,28.551506355790305 104.00854850788801,27.673689414767875 104.05141863755098,27.620612111618968 104.16012503782963,27.530788982862127 104.347426675761,27.249070987812274 104.75214111406618,27.130667772735123 105.04202484797779,27.118419164138306 105.62791662016024,27.122502033690857 105.97649160295342,27.15516498950288 106.27300999978905,27.33072837752485 106.51083714762143,27.42871724556931 106.86706751077335,27.494043157315033 106.99567789976231,27.440965853801092 107.12530900612418,27.37972281166876 107.4065166423659,27.224573770983675 108.03578890277612,26.77954099626531 108.27157461592253,26.5835632606631 108.49409100328076,26.27734804878465 108.51858822023199,26.07728744362989 108.5155260681132,25.938469880789977 108.46806271027204,25.49343710625413 108.40937146138951,25.150476069011102 108.44152405851507,25.04023859291738 108.54002328506348,24.958581203022284 108.77529863946259,24.897338160464077 108.95953812527613,24.82792937934832 109.55461635369325,24.54212851480675 110.34567231771258,23.995024002795567 110.87950750381486,23.52957688092284 111.08518205439904,23.42342227401663 111.53276662242806,23.20294732164666 112.16101816546535,22.94164367393369 113.047000845167,22.602765506243216 113.91052774266424,22.484362290801027 115.50641935529828,21.892346214624364 115.85754613152474,21.626959697906397 116.22500438583972,21.377904658729403 116.40669207816009,21.226838487536032 116.72158338770843,21.022695012950397 117.13548428249165,20.85938023328189 117.42996124464227,20.753225626619038 117.90306374687185,20.740977017839704 118.68646433059517,20.740977017839704 118.9120428700123,20.769557104403372 119.20141624523744,20.84304875513252 119.41729796961175,20.936954753441913 119.48262388154,20.985949187585824 119.59184064038247,21.07168944685095 119.65716655231071,21.14109822802755 119.78373550649296,21.22275561792264 120.08433677282031,21.31257874704452 120.84732300908412,21.300330138447702 121.0723911898148,21.271750051884034 121.41688330317805,21.165595445160342 121.5546801485842,21.096186663862067 122.29674167864214,20.66340249767968 122.50394730534656,20.54499928223749 122.72238082315319,20.42251319754695 122.92805537385905,20.275529896088653 123.14291638079959,20.140795202862133 123.34859093150546,19.86724294691738 123.4868981354764,19.614105038431195 123.67419977340872,19.09558061274032 123.84210778131623,18.53214462294481 123.97888390928766,18.201432194298597 124.11719111325954,17.956460024552477 124.31316884886175,17.650244812674025 124.41064735797734,17.47876429426545 124.74646337366976,16.878582478862 124.97255227177335,16.596864483994665 125.088914052348,16.278400663519395 125.24712524509103,15.739461890491638 125.3456244715786,15.420998070198888 125.41554361168502,15.073954163585826 125.49975279489075,14.7636560822765 125.59723130400539,14.555429738138312 125.69266837843502,14.392114958287285 125.82536163697652,14.224717309248744 126.06420950212004,14.00832522630965 126.23109679259379,13.853176185624566 126.58222356894193,13.58370679892817 126.69348176253025,13.469386453281894 126.8690451506739,13.289740195464015 127.14821135216975,13.05701663449723 127.32887832717805,12.90595046342554 127.4631026617181,12.807961595563595 127.64376963672639,12.644646816138446 128.0193936300248,12.358845951414358 128.3674582541933,12.089376565082999 128.73134399758135,11.88115022094481 129.44941866943634,11.615763704226843 129.60354699274848,11.566769270265452 129.94701838873883,11.570852139635486 130.1567758088746,11.63617805138121 130.22516387286174,11.660675268574844 130.62018149618495,11.889315959928236 130.84627039428855,11.893398829541628 131.0631728360358,11.877067351513938 131.27088882142667,11.803575700784789 131.53117175152428,11.579017878618911 131.6929554551933,11.415703098828724 131.9859013411619,11.01966475825427 132.36509784526652,10.697118068591484 132.6248704166767,10.529720419370424 132.6901963284833,10.501140332989275 132.75450152297776,10.480725985409032 132.99539082304966,10.28066538037595 133.1367601791403,10.199007990298337 133.25312195965319,10.035693210873188 133.3592765664377,9.949952951364702 133.68233361496948,9.688649303834248 133.900767132836,9.602909044508282 134.7035613465841,9.447760003884039 135.08224749194048,9.40284843935352 135.45889220255097,9.313025310840038 136.20503660216147,9.080301749690735 136.90626943736314,8.863909666508283 136.9756782187831,8.855743927524857 137.20176711688666,8.835329580127134 137.44469785158273,8.782252276795708 137.65445527171948,8.708760626066558 137.6626210107029,8.659766191922648 137.6156680115482,8.541362976845498 137.68864930371257,8.496451412497498 137.89738600647638,8.463788456320438 138.03722428656755,8.455622717337013 138.17246933848054,8.455622717337013 138.3092454664529,8.484202803718162 138.36691599808418,8.51278289028183 138.48378813722363,8.58627454101098 138.6593515254281,8.610771758143773 138.82521809852892,8.565860193613256 139.0788663656417,8.484202803718162 139.26310585145427,8.316805154679619 139.3891644470109,8.153490375254469 139.57748680231617,7.871772379961256 139.6387298447527,7.814612207198957 139.91789604618677,7.630883080011046 140.20165547586174,7.316502129331686 140.26238815955097,7.202181783442051 140.28943716999441,7.0960271767792 140.39865392883686,6.553005534138052 140.48184239473053,6.365193537701786 140.62984641386595,6.177381541143841 140.72834564029267,6.026315369889632 140.9809731900924,5.748680244574847 141.02027080901098,5.720100158011179 141.21318639243356,5.638442768298604 141.6658745473272,5.434299293712969 141.84654152233549,5.352641903757036 142.16041211457176,5.168912776751642 142.8881836014686,4.609559656387002 143.27350440968908,4.278847227314915 143.7348686622526,3.9277204510884616 144.0997751231353,3.552096458094251 144.3917002917319,3.270378462983556 144.5565461474598,3.196886812254406 144.68617725388253,3.1805553342875554 145.2521650371712,3.1805553342875554 145.54460056445427,3.3112071579006828 145.81866317920716,3.4990191543369487 146.0978293806422,3.621505239210009 146.42241750523334,4.029792188381279 146.41782427705516,4.299261574712639 146.33310473510213,4.589145308806759 146.23256407380788,4.891277651071821 146.1942871723221,5.132166951022031 146.23052263912285,5.340393295403576 146.3132007462692,5.4424650326963935 146.4530390263594,5.5404539001933015 146.8929682140924,5.7568459833757535 147.62329149442252,5.9895695445250565 147.92389276087152,5.997735283325964 148.84560054856485,6.067144064806759 149.8321238894999,5.899746415829056 150.2914467073176,5.871166329265388 150.87580740325814,5.748680244574847 152.35788902874987,5.458796510480727 152.72738871774985,5.328144686624241 152.90601425801228,5.2383215581107585 153.33522591332857,4.960686432613455 153.83946029561594,4.527902266431069 154.04615556357305,4.311510183491975 154.28653450489765,3.9807977544198874 154.5927497167761,3.629670978193434 154.86885376621402,3.421444634237765 155.29500326935067,3.1152294223593127 155.99827753929915,2.73552255975171 156.2014002965109,2.629367952662982 156.3790051194004,2.555876301933832 156.70971754829094,2.4129758698455666 156.88017734956898,2.3313184797679547 157.71614487793633,1.9883574425249269 158.42043986525772,1.5269931900222307 158.840975422964,1.3350983237900547 159.48402736784792,1.1146233712375684 159.88108642591698,0.914562766265325 160.25058611491698,0.6981706830828726 160.61447185842673,0.5185244254475135 161.45758440840456,0.2327235609667847 161.9363008563687,0.09390599830939221 162.2496610897968,0.03674582554709334 162.66101019108686,0.004082869613391698 163.1295194652609,0Z"/></svg>