<svg xmlns="http://www.w3.org/2000/svg" width="256" height="256"><path d="M47.59574790533007,0.12747623893130616 49.89309142867905,1.6793608872036299 52.39134858955669,2.859901708280588 54.48500725279153,3.696810929503412 55.68910346617528,4.17346121412049 58.26911169332409,5.293035138399847 59.29723527261352,5.6754638554415315 60.07594881904608,5.985840784765641 62.450886574705436,6.473575959724571 63.28918140680805,6.645391760353644 63.757518023751324,6.922514018899962 63.89607915302448,6.922514018899962 64.04849639530755,6.922514018899962 64.09560717917783,6.928056463657944 64.38797116202679,6.97239602535571 64.44755244753165,6.983480915697562 64.50713373311912,7.0001082512929305 64.92004589843572,7.155296715748513 65.23180843930032,7.243975838565924 65.35097101039266,7.28831540026369 65.40778107339464,7.3104851806996285 65.52278681069137,7.3215700710414815 65.95925436798441,7.338197406719439 66.24746151687258,7.349282297061291 66.70332763218127,7.338197406719439 67.1688930264565,7.338197406719439 67.60813180625242,7.332654961135567 67.7660914937064,7.316027625705377 67.81735911153747,7.3104851806996285 68.13189287490495,7.299400290605543 68.18038927023315,7.299400290605543 68.22472883151796,7.304942735363524 68.27183961547084,7.316027625705377 68.3189503995063,7.32711251604723 68.40762952232372,7.32711251604723 68.45751152877946,7.332654961135567 68.54064820626077,7.304942735363524 68.96464526183664,7.199636277446279 69.38864231749508,7.099872264204428 69.5687717854676,7.038905367159059 70.00523934276065,6.916971573316091 70.35302777723628,6.889259347544048 70.45279179023036,6.889259347544048 70.91697157337804,6.889259347544048 71.39223624678496,6.878174457202196 71.86472969760644,6.878174457202196 72.34415120489157,6.850462231677919 72.80417415399587,6.795037779968656 73.26419710318275,6.772867998954594 73.3196215549746,6.761783108612742 73.68819415884121,6.645391760353644 73.99579986582762,6.429236398604927 74.19532789189839,6.21308103685621 74.26045162273935,6.152114140058609 74.32557535341515,6.102232133602861 75.38418238106209,6.218623481861959 75.87468877868906,6.32392994010956 77.60116044943263,6.706358657151245 80.87951676803557,7.388079413175187 81.83420294872764,7.665201671721505 82.44110069502666,7.715083678425019 82.70852367444127,7.814847691336516 83.10342289286977,7.970036156205043 83.46645305156544,8.14739440134433 83.84749615706663,8.335837537321005 84.25070904325152,8.491026002024354 84.63729459392364,8.635129576633616 85.02803697855653,8.834657602704377 85.3896815258769,9.072982745136798 85.719457013547,9.300222997227369 86.03814761095786,9.53300569407592 86.39979215827822,9.776873281596679 86.7725215961056,10.00411353368725 86.87367122039242,10.081707766162806 87.00668990449465,10.247981121455775 87.03440213034928,10.303405572917272 87.13139492084049,10.691376734964706 87.24778626942995,11.035008335396961 87.34062222604297,11.350927710057174 87.42930134886038,11.716729091420904 87.5401502522789,11.916257117491662 88.24404078898655,12.054818246764823 90.28643183439033,12.542553422219285 92.52696529481989,13.096797939311921 93.34586156874167,13.396089978624532 93.92366147781074,13.712009353284747 94.4349520448287,13.429344649154558 94.92822966504114,13.689839572270685 96.3082985126844,14.32167832183888 97.50269544693644,14.981229297426882 97.72300764256335,15.103163090774318 98.01675723653986,15.252809110389329 98.1289917514163,15.330403342864887 98.01675723653986,15.6463227175251 98.0236852930861,15.812596073065835 98.04446946239449,15.995496763706404 98.4795514083948,16.117430557384196 99.0933772109923,16.605165732343128 99.57556994086289,16.959882223365003 100.0716187836608,17.30351382371467 100.24343458395953,17.508584295121533 100.46374677950384,18.035116586442125 100.69237264296973,18.539479096831247 100.85033233017596,18.86094091707533 101.02353374176741,19.210114962513334 101.5362099200781,19.941717724993026 102.18467600507647,20.86730606903326 102.78048886103365,21.560111715399053 103.1518326875683,21.82614908352093 103.78367143688872,22.075559116130027 104.31158933950205,22.358223819682095 105.0237935438835,22.884756111002687 105.42977765265385,23.05102946604789 106.19602069753442,23.522137305659218 107.30866656576306,23.67178332527423 107.45831258529549,23.777089783769597 107.55253415311866,23.84359912532518 107.64814133239972,23.993245145187956 107.86152547148038,24.104094048771664 108.18991534785776,24.137348719549454 108.95477278136302,24.536404771690975 109.06562168478155,24.63062633984449 109.16538569785821,25.074021953683776 109.52148780009024,25.639351361118262 109.76258416502553,25.87767650330292 110.24754811748159,26.171426097196836 110.53436965515962,26.321072117142204 111.33109614848028,26.764467730651134 111.80636082180463,26.952910866627807 111.97817662218593,27.00833531792413 112.03914351898354,27.01942020826598 112.1998744289404,27.04713243428579 113.26540951313358,27.285457576470446 113.4552382602378,27.230033125174128 113.57578644262287,27.18015111847061 114.64547836069424,26.692415943263914 116.4897269912374,25.84442183244254 119.50066033042573,24.486522765235225 121.9157808135743,23.389118621391805 123.53556041486011,22.574379181183044 123.92214596544964,22.37485115536005 124.17709844339484,22.352681374676344 124.7798393556505,22.341596484251905 125.55855290216564,22.557751845752854 128.28820714892947,23.721665331729977 130.68808590785798,24.730390353003752 132.5392625949474,25.57284201873679 134.23386520604072,26.376496568603702 134.3641126674749,26.431921020395553 136.19173396267044,27.191236008812464 136.26517136110263,27.39076403521358 136.42451665976677,27.58474961570047 136.5755482906745,27.706683409873794 136.73905042321684,27.795362532691204 137.16027625620723,27.994890558761963 137.52330641490292,28.166706358812913 137.56626036506017,28.194418584832725 137.6064430925494,28.222130810852534 137.7560891121644,28.377319275225528 137.99441425443166,28.704323540475357 138.01935525770082,28.737578211583507 138.2424386759958,29.03132780572519 138.47383576171677,29.330619845037806 138.70384723639282,29.607742103584123 138.92693065444,29.96800103936398 139.10151767740678,30.267293078841767 139.1638701854971,30.278377969183623 139.22206585987442,30.28392041402419 139.76106865266442,30.28392041402419 140.3125419471716,30.289462859608065 140.74762389317192,30.311632640044003 140.790577843164,30.31717508504975 141.07047132437836,30.428023988881222 141.15360800185968,30.45573621432291 141.27969862949826,30.494533330436806 141.41133170239033,30.544415337388088 142.71796315135364,30.511160666114762 142.96044512758166,30.505618221026424 145.18435125241587,30.28392041402419 149.34257074198595,29.94583125892804 152.2717530149031,29.58557232281783 155.73162441268872,29.28073783833429 156.1306804649954,29.14217670906113 156.46045595266554,29.103379592947235 156.86505445014316,28.975903354015927 157.26965294770338,28.798545108381106 157.70334928232836,28.6101019726522 158.1827707896135,28.454913507701086 158.60261101122856,28.327437269017544 158.84647859883194,28.227673255610515 159.2829461559598,28.055857455559565 159.72772738092664,27.92838121638049 159.78176622142576,27.917296326286404 159.9757518023256,27.917296326286404 160.4163761934968,27.906211435944552 160.87501353130838,27.84524453914695 161.34196453695893,27.77319275192491 161.50546666950126,27.75656541632954 161.664811968248,27.717768300215646 164.0120374980527,27.119184221425243 166.4992097685059,26.603736820446503 168.3282166749116,26.24902032992016 171.3904176318484,26.05503474893774 173.93578557659634,25.91647361966458 177.18781528071997,25.777912490391422 179.97150836781773,25.63380891553439 182.09426486819993,25.445365779805485 183.4784905496388,25.384398883007883 184.67288748397343,25.312347096116195 187.3956136742736,24.935460824410615 188.76182640882433,24.774729914123395 189.38258026805067,24.80244213989544 189.80519171225123,24.95763060509432 190.0947844724321,25.212583082956932 190.65734265736373,25.517417567192705 191.33767780201237,25.689233367574012 192.14548918567488,25.76682760004957 192.6429236398481,25.705860703169378 193.94401264380565,25.500790231845105 194.75875208376664,25.373313992913797 195.6081318062111,25.31788954087418 196.2482842234531,25.323431986210284 197.01314165704093,25.439823335047503 197.33876031099805,25.56729957389622 197.49256316440866,25.6615211415542 197.68793435660123,26.04949230335387 197.9941544522949,26.19913832296888 198.35025655452694,26.448548355743156 198.39598172718706,26.48180302709907 198.44170689984722,26.503972807535007 198.4985169629318,26.503972807535007 198.69388815520696,26.487345472104817 198.80889389250368,26.4762605815152 199.23704778195773,26.376496568603702 199.28000173194982,26.36541167826185 199.5515815453252,26.354326787919995 200.06564333492864,26.354326787919995 200.17233540455155,26.321072117142204 200.21944618850443,26.298902336128144 200.3843339322569,26.182510987869044 200.43837277275603,26.154798761849236 200.87484032988388,26.02732252291793 201.31546472105512,25.905388729322727 201.74777544438737,25.76682760004957 202.1606876095388,25.655978696465866 202.57775660865101,25.650436251460114 202.62071055880827,25.644893805876244 202.7038472362896,25.67814847723216 202.7883695252288,25.694775812827526 202.87704864788103,25.728030483935672 203.0294658901641,25.76682760004957 203.1486284612564,25.783454935149404 203.26501980984588,25.811167161169212 203.3620126003371,25.83887938718902 203.8275779947775,25.91647361966458 203.93011323043962,25.949728290442373 203.9772240143925,25.971898071373843 204.144882980813,26.06611963927959 204.25157505027076,26.110459200647004 204.66310160429464,26.2102232135585 205.08709865978793,26.28227500102831 205.55682088802394,26.376496568603702 205.99467405652712,26.49843036244667 206.4283703911521,26.609279266030374 206.75676026752947,26.697958388847784 207.1211760375179,26.919656195354484 207.53131698016642,27.09701444074154 207.9428435341903,27.263287796034508 208.40840892846552,27.318712247743772 208.86427504377423,27.318712247743772 209.3326116607175,27.318712247743772 209.37833683337763,27.30762735715415 209.42129078353491,27.291000022054316 209.5044274610162,27.268830241040256 209.58894974995545,27.263287796034508 210.02680291845863,27.263287796034508 210.4785121998891,27.263287796034508 210.6752690035396,27.257745350698404 210.7223797873273,27.24111801559857 210.76810495998743,27.230033125174128 211.05492649766546,27.080387105559115 211.0992660589503,27.063759769963745 211.32927753354372,26.997250427830043 211.3777739288719,26.99170798249394 211.63411201794466,26.997250427830043 212.1093766913516,27.02496265384985 212.5486154711475,27.05821732462764 212.98508302835796,27.130269111767095 213.45341964530124,27.1967784539008 213.57673905035435,27.218948234832272 214.07417350452758,27.24666046035655 214.5383532875101,27.24666046035655 214.86674316405265,27.268830241040256 214.91801078180112,27.285457576470446 215.32260927927874,27.45727337701693 215.47086968760104,27.53486760924472 215.80341639777401,27.75656541632954 215.8726969624106,27.784277642266762 215.97246097548728,27.811989867791038 216.12764944027322,27.83970209356308 216.60152850238742,27.884041655178258 217.0047413885723,27.922838771539922 217.43705211190456,27.922838771539922 217.89014700471037,27.917296326286404 218.35432678769288,27.950550997064198 218.40975123948473,27.956093442400302 218.4651756911114,27.956093442400302 218.6744029963139,27.939466106722346 219.09840005197233,27.806447423033056 219.4697438783418,27.618004287056383 219.59999133994117,27.562579835016763 219.6581870142359,27.551494944922677 219.7163826886132,27.540410054580825 219.88404165486855,27.518240274144887 219.943622940456,27.518240274144887 219.98519127923797,27.52932516448674 220.2858689298433,27.568122280600633 220.7209508758436,27.701140964289923 220.9828314100047,27.751022970993436 221.4345406914352,27.767650306671396 221.8737794713137,27.811989867791038 222.31994630757328,27.850786983904936 222.7065318582454,27.900668990608448 223.16932602993515,27.93392366196436 223.52127129828898,27.98380566842011 224.00623525074502,27.945008552306216 224.0491892008197,27.92838121638049 224.40113446917354,27.739938080651584 224.58680638239957,27.629089177398235 224.63530277781035,27.61246184172028 224.68795600676896,27.60691939663194 224.74060923589278,27.60691939663194 224.92350992661594,27.58474961570047 224.81958907966106,27.46835826735878 224.7946480763093,27.435103596085458 224.71982506658438,27.263287796034508 224.71428262141345,27.18569356355895 224.71843945520905,27.11364177666726 224.78356318605003,27.11364177666726 224.83621641517385,27.11364177666726 224.89025525550778,27.10255688632541 225.31009547728803,27.063759769963745 225.7604191474258,27.052674879539307 225.85325510403882,27.052674879539307 225.94747667186198,27.05821732462764 226.40472839846342,27.1358115571032 226.8481240121375,27.15798133753914 226.90493407513952,27.146896447197285 226.96035852693137,27.130269111767095 227.1294031047272,27.09701444074154 227.53400160203964,27.036047544191703 227.64346489416545,27.013877763508 227.69611812328924,26.99170798249394 227.79865335903398,26.947368421374293 228.19216696608714,26.803264847012798 228.25451947434266,26.792179956423176 228.30855831467662,26.758925285645386 228.36259715509314,26.73121305937781 228.7464114831798,26.520600143212963 229.10944164195806,26.293359891122396 229.40734806981277,26.038407413012017 229.5278962522804,25.949728290442373 229.92972352717257,25.73911537402976 230.22901556648517,25.62826647077641 230.4922817120216,25.556214683554366 230.53385005088614,25.539587347959 230.5684903332044,25.511875122186957 230.58650328000994,25.473078005825293 230.730606854454,25.201498192284724 230.73614929962494,25.157158630917316 230.77494641573884,25.024139947228026 230.94399099353467,24.70267812698394 231.07562406626158,24.475437874893373 231.1074931259944,24.44218320411558 231.31810604248963,24.214942952025012 231.62571174955863,23.92673580338461 231.72131892867452,23.815886899553135 231.87096494828953,23.594189092798672 231.9000627854369,23.56093442202088 232.02061096790453,23.45562796352551 232.06910736315015,23.433458183089574 232.1425447616649,23.40020351173366 232.39056918306386,23.32260927958846 232.8048669595906,23.21176037625252 233.23163523783452,23.100911472503636 233.3701963671077,23.056571911383994 233.70689991115887,22.94018056254677 233.8745588775794,22.862586330071213 234.2556019830806,22.65197341390637 234.57567819178416,22.496784948955252 234.6906839290809,22.441360497493754 234.82370261318312,22.358223819682095 234.99136157960365,22.28617203254264 235.03431552959574,22.297256922636727 235.0814263135486,22.302799368220597 235.18396154921075,22.31388425856245 235.61904349512847,22.430275606821546 235.91279308918757,22.53558206506915 235.96960315218956,22.546666955411002 236.16358873325458,22.574379181183044 236.2522678559068,22.56329429108896 236.34510381251982,22.530039620311165 236.47396566274386,22.502327394291356 236.7788001471448,22.39702093579599 236.96862889424904,22.336054038998387 237.31503171743194,22.2640022521067 237.35798566758922,22.252917361764847 237.59215397597825,22.186408019631145 237.63926475993114,22.158695793363567 237.73210071654415,22.064474225705585 237.93439996528295,21.85940375438131 238.04247764611603,21.643248392632593 238.1685682737546,21.29961679195257 238.326527961126,20.994782307881977 238.37225313378613,20.92827296583086 238.39857974843062,20.895018294474948 238.43044880808085,20.861763623449388 238.47063153557008,20.828508952671598 238.51358548572736,20.800796726899556 238.55653943571943,20.78416939097383 238.64521855853684,20.739829830101954 238.82119119263118,20.69549026840419 239.08999978350369,20.623438481264735 239.550022732608,20.49596224208566 240.01281690438034,20.451622681213784 240.46452618589342,20.351858667724166 240.5116369698463,20.34077377738231 240.98551603204308,20.34077377738231 241.10052176925723,20.368486003154356 241.51343393440865,20.54030180370084 241.56193032973684,20.55692913913103 241.67000801048732,20.58464136490307 241.91248998671534,20.59018381048694 242.10231873381957,20.55692913913103 242.26443525506917,20.55138669412528 242.32817337453483,20.55138669412528 242.6205373573012,20.7287449397601 242.9503128449713,20.983697417540125 243.2745458874705,21.249734785496823 243.5821515945395,21.521314599037392 243.8842148562724,21.787351967159267 244.00891987270083,21.96471021279409 244.05741626786386,22.031219554432262 244.25417307143172,22.230747580998553 244.55207949945162,22.50786983954487 244.59641906073642,22.53558206506915 244.66431401408028,22.59654896186675 245.0037887809647,22.83487410429917 245.0467427308742,22.85150143972936 245.20608802953834,22.91246833677473 245.3723613847487,23.023317240275844 245.87949511788847,23.53322219600107 245.93491956951516,23.58310420245682 245.990344021307,23.64407109925442 246.0332979712991,23.721665331729977 246.2840936153661,24.03204226154962 246.49054969790052,24.32024941043779 246.63188204992431,24.50315010091318 246.89237697279268,24.796899695137455 247.01431076655305,24.902206153054703 247.30390352673396,25.151616186076744 247.44939271247077,25.301262205774343 247.5907250643294,25.439823335047503 247.6738617418933,25.539587347959 247.73067180489528,25.667063586807718 247.74314230652988,25.71140314800995 247.75145597436884,25.80008227082736 247.75699841953977,25.84442183244254 247.83736387451822,25.960813180784225 248.01887895378346,26.287817445786292 248.05351923610175,26.354326787919995 248.20177964450662,26.48180302709907 248.53016952088402,26.686873498505932 248.89181406820435,26.908571305012632 249.32551040282934,27.063759769963745 249.38370607720665,27.080387105559115 249.43497369495515,27.10809933108339 249.68854056152503,27.340882028510066 249.74257940202415,27.401848925307664 249.6303448872303,27.52378271890287 249.5250384289827,27.667886293759896 249.66359955825587,27.690056074195837 249.70655350833053,27.690056074195837 249.75504990365872,27.690056074195837 249.82987291346623,27.662343848176025 249.92132325878651,27.629089177398235 249.96981965394954,27.629089177398235 250.02662971711672,27.629089177398235 250.07235488969425,27.6457165129936 250.15410595588284,27.690056074195837 250.20814479629936,27.7454805259051 250.2885102512778,27.884041655178258 250.40767282261788,28.24430059128847 250.50605122423667,28.593474636974243 250.57117495499506,28.69878109546961 250.612743293777,28.732035766247403 250.99794323315638,28.92047890197631 251.1406611963903,28.964818463674074 251.1836151463824,28.964818463674074 251.37344389348664,28.953733573332222 251.42194028881482,28.942648682660014 251.47182229527058,28.926021347312414 251.51893307922344,28.903851566876476 251.56327264059087,28.876139340856664 251.60761220204085,28.848427114836856 251.79744094914508,28.787460218039254 251.84732295560084,28.787460218039254 251.89997618472464,28.787460218039254 251.94431574609206,28.815172444059066 251.98726969616672,28.848427114836856 252.08564809803326,28.914936457218328 252.13830132715705,28.92047890197631 252.3322869080569,28.964818463674074 252.37108402425338,28.981445799021678 252.76044079751097,29.20868605086448 252.92117170746783,29.30845006427151 252.97659615925969,29.330619845037806 253.01816449795902,29.336162289795787 253.0791313949218,29.34170473513189 253.3410119291655,29.36387451556783 253.83567516075325,29.485808309410796 254.2721427178811,29.640996774114146 254.65041460087943,29.80727012965488 255.06471237740618,29.995713265383788 255.4346705925655,30.184156401112695 255.25731234717847,30.33380242047994 255.05085626439626,30.45573621432291 254.94970664010947,30.55550022772994 254.91922319158678,30.60538223393792 254.88735413193655,30.71623113776939 254.82223040117816,31.07649007354925 254.7584922816299,31.553140358166328 254.76542033817614,31.819177726370793 254.77373400584995,32.31245534666583 254.7806620623136,32.77802074094105 254.86934118513102,33.088397670512926 254.98434692242773,33.293468141919796 255.0120591481998,33.404317045173144 255.04254259672248,33.50962350366851 255.04392820793262,33.69806663939742 255.07164043386985,33.95856156226578 255.09519582584628,34.0416982403252 255.11320877256918,34.0804953564391 255.19080300496216,34.246768711401714 255.3501483036263,34.52943341503637 255.51503604754393,34.834267899602494 255.78384463825128,35.13910238416862 255.91824893364625,35.294290848541614 255.9778302193163,35.35525774558698 255.9958431661218,35.399597307036984 256,35.44393686815663 255.991686332161,35.53815843631014 255.96813094018458,35.58249799742979 255.9113208771826,35.6545497848996 255.8725237609861,35.68780445567739 255.82956981091144,35.72105912670295 255.52750654917853,35.97046915980758 255.49286626686023,36.00372383058537 255.45684037316664,36.03697850136316 255.41942886826288,36.07023317271907 255.3681612504318,36.109030289080735 255.24207062279322,36.21433674699798 255.1741756694494,36.26976119878984 255.01067353690706,36.31964320549335 254.89705341090306,36.35289787627114 254.4855268569618,36.46374677977226 254.3940765116415,36.474831670114106 254.37190673104038,36.50808634122225 254.32756716967296,36.52471367690021 254.27491394054917,36.53579856724207 254.2278031565963,36.5524259023419 254.10171252895773,36.59676546403966 253.99779168200286,36.61893524447561 253.81627660257243,36.81292082578838 253.67078741683562,37.073415748408976 253.64307519098097,37.189807097246195 253.62506224417547,37.394877568322705 253.6652449716647,37.7606789499342 253.7885643767178,38.120937886044416 253.91742622702444,38.43685726070463 253.94098161908346,38.492281712166125 253.95345212055287,38.708437073914844 253.9520665093427,39.068696010272824 253.94790967538194,39.113035571392466 253.87862911074535,39.32364848780508 253.8675442204035,39.36798804950284 253.85923055272968,39.600770746351394 253.95068089804997,39.99428435348717 253.98393556899296,40.06079369586864 254.16822187092626,40.35454328976256 254.3067830001994,40.66492021941702 254.39269090034878,40.96421225839928 254.40100456818774,41.136028058697995 254.41763190361794,41.32447119467467 254.41901751499327,41.668102795106925 254.41901751499327,41.73461213724063 254.4301024053351,41.812206369716186 254.4384160730089,42.16692286073806 254.4993829699717,42.471757345221604 254.62824482011314,42.80984650064811 254.6573426572605,42.881898287787564 254.6795124380268,43.03708675273868 254.74879300266338,43.44722769497429 254.80006062049443,43.790859295902074 254.85548507212113,44.14557578692395 254.9815756997597,44.50029227761547 255.11736560652997,44.83283898770588 255.25869795830602,45.14321591727775 255.29472385191704,45.220810149753305 255.30857996492693,45.26514971145107 255.31273679872254,45.603238866794996 255.2891814067461,45.769512221840195 255.19773106150842,46.12422871253172 255.01760159337073,46.44569053252803 254.80975989946097,46.73944012675231 254.78343328498167,46.7726947975301 254.6614994912213,47.10524150811604 254.62824482011314,47.404533547346055 254.62824482011314,47.74262270244221 254.60607503942944,47.88672627729924 254.58529087003845,48.14167875507926 254.57559159107194,48.1860183162815 254.55896425547655,48.22481543264316 254.49384052480076,48.280239884352426 254.42455996016417,48.33566433589651 254.39269090034878,48.3689190066743 254.26937149537824,48.44651323914986 254.22918876788904,48.47422546516967 253.9077269478927,48.568447033240595 253.86615860911076,48.585074368423015 253.8273614929143,48.60724414910672 253.71651258949575,48.695923272171896 253.5349975102305,48.97304553071822 253.4948147827413,49.03955487235639 253.46156011171573,49.11714910507971 253.44354716491023,49.15594622119361 253.415834938973,49.494035376537525 253.41029249380207,49.57717205401883 253.3687241551027,49.64368139615254 253.2412479161714,49.74898785464791 253.17612418533042,49.798869861103654 253.15534001602205,50.081534564903485 253.1484119595584,50.408538829657786 253.1137716772401,50.52493017824724 253.07220333837557,50.60806685597631 253.02786377709074,50.68566108820411 253.0043083851143,50.77988265635762 252.96966810279602,50.99049557252247 252.94888393332246,51.21219337985505 252.9419558769414,51.256532940726935 252.78538180086272,51.522570309179166 252.7576695749255,51.56136742554082 252.7327285717389,51.70547099981973 252.73827101690983,51.77752278728954 252.79646669120456,51.866201909859186 252.99876593994338,52.15995150400087 253.2495615838452,52.437073762547186 253.50451406170782,52.73082335627593 253.7456104266431,53.002403169981676 253.99363484804206,53.27398298327448 254.06291541267865,53.43471389298358 254.1488233129932,53.800515274347305 254.16406503713065,53.8393123904612 254.18346359531148,53.87810950682287 254.20701898712272,53.91136417760065 254.2319599903919,53.988958410076215 254.2638290502073,54.01667063609602 254.30401177769653,54.06655264255177 254.42317434878888,54.304877784736426 254.61161748460037,54.85912230182906 254.71138149767702,55.14732945071723 255.05501309835705,55.79579553621115 254.41486068103248,56.36666738840362 253.7622377621559,56.865487454034756 253.245404749967,57.26454350617628 252.56784082782127,57.28671328710775 252.2671631772985,57.29225573219609 251.84732295560084,57.3809348550135 251.8944337395537,57.65805711355981 251.78912728130612,57.829872913610764 251.66857909883848,58.00168871423984 251.4150122322686,58.140249843513 250.8150425425158,58.50050877929286 250.60581523731332,58.69449436060563 250.00445993626784,58.88847994109252 249.56937799043268,59.03812596070753 249.51533914993357,59.071380632063445 249.40449024651505,59.13234752886105 249.25484422690005,59.248738877698266 249.16339388157976,59.39838489731328 249.105198207285,59.548030916680524 248.67288748395276,60.47916170547874 248.5523393015677,60.662062395871544 248.49275801589766,60.86713286727841 248.43456234160294,61.29390114543974 248.36112494308816,61.53776873320827 248.24196237199584,61.787178765487006 248.13665591374823,62.28599883128332 248.00502284093872,62.88458290957819 247.97592500379136,63.183874948560444 247.8941739375202,63.62727056239973 247.73344302756334,64.8355236094965 247.73482863877348,65.09047608760687 247.91772932949664,66.30427158020493 248.05490484739448,67.08575634914037 248.13388469108017,67.85615622773395 248.14219835883657,68.52124964857548 248.129727857202,68.88150858468569 248.39992205928465,68.95910281716124 248.82114789227504,69.2583948561435 249.5735348242283,69.71841780533039 249.98090454429138,69.98999761887096 250.47695338725447,70.33362921955097 251.32217627565558,70.87124640096566 252.08841932053613,71.27584489844328 252.32813007426128,71.38669380169664 252.42650847604523,71.41440602771644 252.49024659551088,71.56405204733146 253.9035701140145,76.34718222951054 254.55480742159835,78.83019766608555 254.65595704605036,79.21816882813297 254.3331096148439,80.98620883790626 254.03243196432115,82.78196107336898 253.415834938973,85.56981099401459 253.19275152084322,86.70601225421966 253.03340622226168,87.67594015913177 252.68700339907878,88.9839572193878 252.42650847604523,90.10353114391494 252.1964970014518,91.2120201781002 252.02468120107048,91.7773495855347 251.80714022811162,92.71956526467476 251.57435753093273,93.44562558214871 251.5078481888816,93.95553053754357 251.48013596310955,94.58736928711177 251.45103812596219,95.34668427585903 251.3845287838285,96.06720214799687 251.33603238866547,97.03713005290898 251.20301370456323,97.89066660923164 251.08800796726652,98.68323626850894 250.95221806049622,99.22085344992361 250.37857498538796,99.83606486430938 250.03771460737596,100.21849358085552 249.1786356057998,100.44573383269834 248.54125441122585,100.59537985231334 247.97453939241606,100.7339409815865 246.67483599983382,101.12191214363393 245.063370066387,101.39903440218025 242.93091428695564,101.79254800931602 241.75037346546574,101.98099114504494 239.88256944294616,102.47981121092384 238.5676243260613,102.86778237272351 237.5325726904734,103.15044707652333 236.96447206037084,103.28900820579649 236.42546926749824,103.42202688981614 235.69386650493598,103.57721535468467 234.21541925559137,103.81554049686932 232.90185975016442,104.04832319380046 232.56515620594806,104.29773322657473 232.42382385408942,104.5637705947792 232.40165407340572,104.6025677108931 232.3517720668674,104.67461949852809 232.1688713763094,104.97391153784069 231.99982679851357,105.2842884671648 231.8474095563131,105.43947693211592 231.69083548023443,105.57803806138908 231.34166143446606,105.83299053892134 230.9924873886977,106.07685812644209 230.6724111801593,106.31518326887452 230.62945723000203,106.34843794014785 230.2872112407799,106.53688107562898 230.22347312131424,106.57567819199065 229.88122713200954,106.76966377280789 229.8313451255538,106.80291844383345 229.414276126359,106.98581913480437 229.3075840567361,107.02461625091827 229.256316438905,107.04124358651364 229.2078200438246,107.04678603135422 229.0110632401741,107.04678603135422 228.96256684484592,107.04678603135422 228.92376972873203,107.05787092169606 228.88635822374567,107.07449825737402 228.8212344929873,107.11329537373568 228.71038558965137,107.22414427698904 228.52332806505,107.37933274194015 228.45127627791055,107.44584208399127 228.20186624521887,107.65091255490259 227.87347636884147,107.86706791689907 227.52430232299054,108.08876572340577 227.37049946957993,108.15527506553948 226.96035852693137,108.29383619481264 226.5266621922238,108.42685487924523 226.37978739519423,108.46010955010561 226.0901946351785,108.50999155680913 224.66162939220706,109.08086340924936 222.5665851176795,108.37697287254171 221.53430470459446,107.86152547181074 219.6055337851121,106.96364935412068 217.51187512171208,105.96600922318875 216.85232414645444,105.66671718420649 216.75948818984142,105.67225962896447 216.5793587217863,105.66671718420649 216.53640477162904,105.65563229378205 216.49345082163694,105.6445474034402 216.45326809414772,105.62237762250872 216.31332135349925,105.57803806138908 216.26482495825363,105.56695317071687 216.20801489525164,105.55586828037502 216.12764944027322,105.55032583536926 215.9752321982379,105.54478339003316 215.9170365238606,105.51152871925538 215.84498473655597,105.46164671279962 215.53599341835942,105.2787460218287 215.22561648870496,105.0681331054161 215.07735608038266,104.92957197614292 215.05518629978155,104.89077485978127 215.013617960917,104.77438351143958 215.01500357229233,104.55822815002122 215.01084673841413,104.51388858832345 214.95957912050048,104.30327567191084 214.93740933981678,104.1924267686575 214.84041654932557,103.91530451011117 214.78222087503084,103.85988005807155 214.71986836685792,103.81554049686932 214.35268137436663,103.59938513545096 214.10742817547055,103.43311178015799 213.94531165422097,103.28900820579649 213.90928576060995,103.26129597977669 213.86771742191058,103.23912619884521 213.77765268780044,103.20032908273132 213.71945701350572,103.18924419238947 213.65849011670812,103.18370174763149 213.53655632286515,103.17815930204762 213.36612613385915,103.14490463126982 213.28576067888073,103.16707441170576 213.23310744975691,103.17815930204762 213.1665981077058,103.21695641816152 213.11948732375294,103.26129597977669 213.0612916494582,103.31672043132077 212.9989391412853,103.36660243777652 212.91441685251124,103.41094199947429 212.81326722805926,103.47190889627188 212.72320249411428,103.51624845739153 212.49734785331646,103.59384268986709 212.34354499990584,103.6215549158869 212.29227738199216,103.6215549158869 212.08443568808244,103.61047002554504 212.02485440257757,103.59384268986709 211.98328606371302,103.57721535468467 211.94448894759913,103.5605880190893 211.90569183132007,103.5328757930695 211.8336400441806,103.47745134127764 211.58561562278166,103.28346576054298 211.54266167262438,103.26683842486503 211.49416527746138,103.25021108943483 211.05076966370467,103.18370174763149 210.62538699683608,103.18370174763149 210.22910216719742,103.20032908273132 209.78016410835238,103.28900820579649 209.34369655105937,103.4608240061778 209.24531814927542,103.52733334798116 209.09428651836768,103.6492671419067 208.81854987111407,103.83216783229952 208.50263049645386,104.08157786507378 208.4638333802574,104.10374764584009 208.09941761026897,104.27556344589104 207.79181190319997,104.38641234939215 206.34939054754898,103.41094199947429 204.11162830970488,102.03087315174845 202.67197817663936,101.02769057605855 201.29883738554233,100.12427201328013 200.57416267936114,99.69750373503622 199.75110957156116,99.19314122415156 199.25506072876325,98.79962761734615 199.16361038336038,98.8273398430356 199.0167355864134,98.89939163025764 198.5941241420477,99.20976855958176 198.10223213312798,99.58665483128733 197.88607677154442,99.77509796701624 197.73365952926136,99.84160730914995 197.61449695816904,99.88040442551161 197.23622507517072,99.86377708983365 196.6819805580781,99.71967351580251 195.598432527162,99.45363614735028 194.80170603384133,99.27627790196323 194.49410032685492,99.19314122415156 194.31535647009255,99.11000454667025 194.02299248740877,98.92156141069358 193.85671913228097,98.83842473346004 193.7167723917151,98.8273398430356 193.46874797031614,98.83288228812394 193.22903721659097,98.8495096238019 192.76762865611136,98.79408517176228 192.31591937484603,98.72203338487058 191.97228777408344,98.69986360418689 191.1991166727392,98.6776938234206 190.86518435127348,98.66106648807299 190.80698867697876,98.66106648807299 190.62131676367014,98.63335426205317 190.1072549740667,98.48370824243817 188.52488687776724,98.00705795782109 187.33326116610067,97.65234146679921 186.4880382774518,97.4029314342727 185.81185996659877,97.17569118218213 185.59570460509784,97.10918184004844 185.46545714341588,97.08146961402862 185.11074065264177,97.0648422788462 184.97772196845696,97.05929983359269 184.57728030477494,96.98724804645323 184.11032929920697,96.88748403321138 183.6544631838983,96.80988980106618 183.21106757022417,96.7433804586847 183.06557838448737,96.70458334232305 182.98936976330452,96.65470133586729 182.78429929198026,96.35540929688504 182.44482452526103,95.82333456022835 182.2730087249623,95.53512741158794 181.95431812763405,94.94208577813365 181.71876420786967,94.33795925458526 181.49429517844715,93.87239386031003 181.36681893951584,93.57864426608576 181.31555132176737,93.52321981462426 181.28922470712288,93.55647448540205 181.25874125876538,93.6285262725415 181.20331680697353,93.79479962758671 181.1506635778497,94.04975210569708 180.99131827918558,94.36012903502119 180.7737773063093,94.66496351958732 180.7155816320146,94.74255775206288 180.72666652235645,94.9531706684755 180.78763341915405,96.83760202650787 180.71281040934653,98.54467513923576 180.89016865489876,99.99125332876496 181.39868799924866,101.54868042179527 181.41392972355132,101.59856242849878 181.77834549353972,102.87332481797702 182.3616878477797,104.27002100105047 183.03786615863274,104.94065686648479 183.84983437609085,105.62237762250872 184.936153629675,106.54242352071732 185.75227868101132,107.26848383835645 186.86631016036753,108.23841174326856 186.49358072262274,108.80928359579138 185.6719132260329,110.25031934056258 185.2077334430504,110.94866743168636 184.4830587368692,112.02390179509385 183.33715819786275,113.60904111364843 181.77973110474986,115.65420338221578 180.7377514126157,116.82365931319866 179.57660914930662,118.364459070551 178.8644049448426,119.38426898224922 177.65892312016612,121.14122410110252 176.5268786940044,122.68756630403874 175.60267596175242,124.1396869384085 175.5749637358978,124.17848405477017 175.43917382929268,125.26480330851949 175.42393210499006,125.62506224429936 175.36157959681714,126.32341033624901 175.17036523842017,127.81432808714561 175.18699257393297,129.6765896642465 175.07198683663623,131.18413475090367 174.882158089532,134.42646517589557 167.61185563656937,134.77563922191172 166.00870337087892,134.77009677632785 162.6998636038359,134.73684210555004 159.97020935715466,134.68141765351044 159.92309857320177,134.67587520875244 159.68477343101713,134.67587520875244 157.74630323232046,135.33542618376234 156.3537638831252,135.8176189137155 153.32066076341835,136.91502305780668 152.46850981830582,136.54922167644295 151.13693736599078,136.07811383658387 147.97497239605988,135.13035571260323 146.16536404766984,134.59273853094078 144.51510099802653,135.18023771938934 142.29119487319232,135.80653402362142 139.59618090882938,136.5713914568789 137.21708631920924,137.2586546584867 135.41024919348723,137.75747472353973 134.11608824607595,138.1953278920429 131.99194613431843,138.95464288054242 129.66411916252935,139.72504275938377 126.7099958864256,140.8501591291644 125.12347095633052,141.33789430420592 124.04130853662456,141.71478057566372 121.48069886773916,142.51843512528288 120.47058823533784,142.81772716451292 119.06834960709347,143.2278681075744 118.22589794111266,143.49944792053685 118.00420013419303,143.6768061659239 117.73539154356827,143.94838597938187 117.51923618173697,144.23105068301655 117.38621749763473,144.44720604501302 117.24765636836158,144.88505921326845 117.10078157133204,145.62774686608998 117.01903050514345,146.16536404775243 116.98300461153244,146.3704345191593 116.98854705670335,146.5256229841104 117.03011539548531,146.71960856484506 117.20747364087237,147.51217822470048 117.43887072684113,148.49319101995442 117.67165342402004,149.35781246612342 117.85316850328527,150.07833033875679 117.86841022750532,150.27785836457977 117.85593972595333,150.4552166102146 117.80744333062513,150.62148996550758 118.01805624720294,150.88752733371203 118.09565047951331,150.99283379162927 118.26053822343096,151.3364653923093 118.38801446227967,151.65238476721728 118.44066769140348,151.91287969008565 118.44482452536425,152.23988395508772 118.4378964689006,152.6001428914457 118.41849791071976,152.95485938213722 118.40464179787504,153.30957587340686 118.36168784771777,153.65320747359135 118.2840936153248,153.991296629183 118.20234254913623,154.31830089418509 118.0776375327078,154.65084760477103 118.04576847305756,154.71735694690474 117.99727207772936,154.80049362413828 117.9598605729082,154.86700296651975 117.91690662275093,154.90580008263365 117.9155210114582,154.9833943150266 117.83238433397689,155.3547381412309 117.81714260967426,155.40462014768664 117.79220160648768,155.46004459972627 117.56496135439711,155.6706575161389 117.23241464422412,155.8868128778876 117.10770962779569,155.94777977468522 117.21301608604328,156.44105739498025 117.67442464652291,157.89317802976294 117.99172963255845,159.0626339608284 118.16077421035428,159.74989716161033 118.37277273805962,160.6588581699726 118.48085041889269,161.16876312561524 118.49609214319533,161.23527246750118 118.67760722246058,162.0444694627042 118.83418129853925,162.6763082122724 118.92147480998133,162.9866851415965 119.16672800887741,163.5630994396206 119.61982290151806,164.54411223487458 120.06737534915295,165.52512503021111 120.26551776393097,166.07936954730377 120.41654939483873,166.56710472226268 120.53155513213544,167.06038234255772 120.7186126567368,167.852952001835 120.97079391193135,168.9614410360203 121.08995648310628,169.54894022389072 121.14953776869373,169.8593171534626 121.31303990131865,170.51886812880284 121.46961397739732,171.2283011108466 121.45021541921649,171.41674424682324 121.39894780138542,171.98207365400998 121.3407521270907,172.42546926784925 121.22020394462304,172.9741713396058 120.98742124744413,174.054948148019 120.79482127783703,175.04150338836132 120.58975080643017,176.1222801965268 120.43871917552242,177.1032929920285 120.24196237195454,178.16190001951028 120.08538829587587,179.04869124694108 119.95791205702716,179.83571846113003 119.85399121007228,180.45092987535062 119.78609625664585,181.02734417312695 119.77639697759673,181.12156574095013 119.72512935984825,181.64255558676942 119.73067180493658,182.1302907622239 119.85260559877955,182.72333239518267 119.70295957916454,183.1667280087742 119.81796531646127,183.9426703331168 120.02857823287387,184.003637229997 119.9551408343591,184.19762281073167 119.79440992448482,184.45257528859426 119.6572344065044,184.64656086990706 119.49650349646494,184.77957955359634 119.25125029765145,185.00127736059858 118.94364459066504,185.29502695457506 118.53488925930922,185.71071034239455 118.13444759570979,186.08759661385236 117.82961311130884,186.4146008791022 117.4942951784678,186.71943536342056 117.26566931524968,186.95221806076464 117.06337006642828,187.19608564803764 116.72943774496255,187.70044815867453 116.46894282192902,188.06070709494992 116.22230401182279,188.4265084760659 116.10868388573621,188.5872393863531 116.03663209859675,188.6870033992646 115.80662062400332,188.95858321247482 115.58215159449821,189.21907813592128 115.3978652925649,189.43523349733965 115.1304423131503,189.74561042699412 114.87964666908329,190.02827513079396 114.77156898833282,190.23334560170528 114.65517763966078,190.48829807981565 114.4459503344583,191.1035094937059 114.1785273550437,191.90716404332505 113.92911732235201,192.5112905671212 113.7531446880925,192.94360129061863 113.65476628630857,193.30940267198235 113.55638788452463,193.67520405309833 113.50927710073692,194.01883565369576 113.47463681841865,194.31812769300836 113.43861092472503,194.51765571907913 113.35824546974659,194.73935352608135 113.2044426161708,194.9610513329184 112.9591894174399,195.17720669466712 112.91762107857537,195.19383402976695 112.79568728481499,195.2437160362227 112.63357076356539,195.3157678239403 112.33566433571069,195.42107428185753 112.2178873757459,195.45987139797143 111.60960401831933,195.6538569792842 111.20639113205185,195.7813332182155 110.8932429799771,195.9309792378305 110.7311264587275,196.14713459957923 110.62443438910458,196.4464266385615 110.48587325983142,196.97295892963433 110.33345601771354,197.61034012445603 110.19628049965053,198.09253285416145 110.02723592201986,198.59135291971 109.88313234757577,198.9516118558202 109.822165450613,199.25090389480246 109.82632228449118,199.35066790796174 108.98525622980311,199.27861612082228 107.41812985780628,199.25644634038633 105.43532009782479,199.3118707920956 105.01270865354165,199.3118707920956 104.9586698132077,199.328498127278 104.53882959142744,199.4615168117106 104.16194331988704,199.62779016650805 103.81692610791428,199.78297863145917 103.65203836416181,199.82177574782082 103.38461538458203,199.82177574782082 103.12966290671942,199.84394552825677 103.04652622923811,199.86057286393472 102.98971616623612,199.87165775427658 102.94676221607885,199.87165775427658 102.90242265479402,199.88274264437067 102.85531187084115,199.88274264437067 102.3883608651906,199.87165775427658 102.32323713434964,199.86057286393472 102.20407456325731,199.8328606379149 102.16250622447537,199.82177574782082 102.076598324326,199.8051484118951 101.98653359021586,199.78852107646492 101.9006256900665,199.7663512957812 101.70941133166954,199.7053843989836 101.66784299297018,199.68321461854765 101.63320271065189,199.65550239228008 101.34360995047099,199.3672952436397 101.32005455849455,199.328498127278 101.07341574847092,199.02366364295966 100.96533806747267,198.93498452014225 100.82400571569664,198.8906449590226 100.73255537037636,198.8851025136865 100.63279135729968,198.8906449590226 100.58845179601487,198.89618740427613 100.5413410119794,198.90727229461797 100.23096408232493,198.98486652659798 99.79033969131888,199.0790880947515 99.44947931330691,199.0735456494154 98.98668514145197,199.02920608829575 98.53081902614328,198.91281473945855 98.094351469098,198.7409989394076 97.71330836359682,198.56364069402053 97.59137456975385,198.52484357765888 97.16460629159252,198.43062200950536 97.04960055421321,198.4250795647474 96.80019052160411,198.4250795647474 96.52445387426793,198.33085799659386 96.41083374826394,198.23663642901846 96.17527982849957,198.13132997027535 96.09352876222842,198.09807529974532 95.93556907485701,198.05373573804755 95.89400073615765,198.03710840261735 95.51711446445206,197.86529260207087 95.13607135895089,197.67130702158397 94.75364264215696,197.49394877594915 94.37121392536305,197.30550564022025 94.0414384378581,197.06718049770524 93.99294204244732,197.0062136006599 93.94583125849445,196.90644958750062 93.66593777744525,196.7401762324554 93.56755937566132,196.7401762324554 93.52460542550405,196.72909134211355 93.39574357528001,196.69029422624743 93.35278962528791,196.6625820003102 93.0534975860579,196.42979930288354 92.7292645435587,196.18038927035704 92.41750200269409,195.92543679224664 92.17502002646607,195.67602675972014 92.00320422616736,195.5097534044272 91.94223732920457,195.443244062789 91.91868193722813,195.40998939151567 91.83831648224971,195.32685271428213 91.79951936613581,195.29914048826234 91.44341726398638,195.09961246219157 91.39769209116106,195.03864556539398 91.37967914443813,194.9998484490323 91.3741366993498,194.95550888733453 91.3644374201355,194.8668297647649 91.32979713781721,194.7781506419475 91.29654246679165,194.73935352608135 91.04020437763631,194.43451904151522 90.77416700943184,194.14631189262707 90.67717421894064,194.0243780987841 90.57048214948288,193.7805105115111 90.5968087639622,193.50893069780534 90.63006343498776,193.43687891091366 90.64391954791508,193.38145445887403 90.6674749398915,193.34265734276013 90.75061161762058,193.15975665236735 91.06653099228079,192.37827188318414 91.59583450602167,191.30857996536054 90.44854835572251,190.21117582126934 90.79495117890541,187.67273593315025 90.7810950658955,186.7970295961439 90.81434973692106,186.52544978260332 90.5095152525201,186.3203793115268 90.26287644241388,186.1374786205559 89.91785923060631,185.87698369768754 89.61441035741551,185.62203121957714 89.3511442117965,185.3504514066147 89.13360323892023,185.3504514066147 89.04908094998102,185.33936651627283 89.00612699998892,185.3282816258484 88.81629825288469,185.30056939991118 88.64586806379612,185.30611184491693 88.30362207449141,185.40033341307046 87.87823940762283,185.48901253588787 87.45285674083681,185.5776916584575 87.02747407388563,185.64974344559695 86.96373595441997,185.6552858906027 86.63396046683245,185.6386585552551 86.59100651667518,185.627573665161 86.50509861660841,185.61648877481917 86.42057632783437,185.6109463292353 86.33605403881256,185.59431899405286 86.27093030805418,185.59431899405286 86.16562384988917,185.58877654879936 85.9951936608006,185.56106432277954 85.93145554133494,185.5555218776912 85.4866743163681,185.54997943268546 85.38136785828567,185.5444369871016 84.93520102194351,185.47238519996213 84.53060252446589,185.47238519996213 84.48903418560135,185.483470090304 84.44608023569185,185.49455498064583 83.66736668901153,185.38370607714472 76.08945852906247,185.93795059423735 71.22596289157458,183.82627898460996 71.20794994476908,183.78748186824828 64.57502868646296,181.5926735803137 60.71887245879095,180.45092987535062 58.779016648966724,181.29338154133143 53.97925913102709,183.0725064411162 51.36322501034985,183.4771049385938 51.33412717320249,183.3995107064486 51.23436316004322,183.2443222414975 50.953084067701305,182.95611509260934 50.923986230553936,182.92840286658952 50.88380350306472,182.8618935244558 50.87271861272287,182.77875684722227 44.19822901563481,183.9925523393248 39.80445560638294,184.33618394000482 38.22901556654712,184.4137781722326 38.04334365332109,184.41932061781648 37.95466453050368,184.36943861136072 37.86875663035432,184.33618394000482 37.8285739028651,184.32509904966295 37.732966723749215,184.30847171423278 37.268786940601544,184.30847171423278 36.836476217269286,184.31955660457461 36.406936716522495,184.30847171423278 35.95245621250653,184.2696745978711 35.89841737209,184.26413215286536 35.44116564557117,184.2475048171874 35.31368940663986,184.2475048171874 35.18205633374777,184.29184437888517 35.03241031413276,184.30847171423278 34.98529953026247,184.31401415932112 34.89800601882038,184.32509904966295 34.730347052399864,184.34172638534093 34.268938491920245,184.35281127568277 33.867111216945496,184.3583537209363 33.589988958399175,184.3749810561187 33.400160211294946,184.38606594646058 33.15352140127131,184.40823572714427 33.09116889309839,184.41932061781648 32.91519625883889,184.4359479529163 32.75723657146749,184.44149039850018 32.57849271470511,184.44149039850018 32.520297040575564,184.44703284350592 32.46902942257932,184.45257528859426 32.42607547258723,184.46920262427224 31.873216566787324,184.51908463097575 31.342527441753717,184.53016952106984 30.958713113501886,184.53016952106984 29.796185238900083,184.59667886312096 29.72274784038531,184.5689666374315 29.492736365791867,184.4858299598676 29.23362705413365,184.36389616577685 29.074281755386927,184.2863019333013 28.863668838974313,184.19762281073167 28.690467427382867,184.11448613325035 28.46461278658503,184.003637229997 28.341293381531916,183.92604299752145 28.13622291029023,183.7597696422285 27.95332221964966,183.62675095820885 27.834159648392156,183.5546991708216 27.81060425641572,183.52144450004383 27.79536253219567,183.45493515766236 27.80229058874192,183.4050531512066 27.811989867708448,183.32745891873105 27.82168914675757,183.2166100154777 27.809218645288166,183.08359133154065 27.74548052573992,182.98936976338712 27.70806902075358,182.96165753786286 27.649873346458854,182.91731797649544 27.527939552698474,182.8397237437721 27.390764034718046,182.7732144016384 27.225876290965576,182.72333239518267 27.049903656706075,182.6734503887269 27.004178484045934,182.65682305329673 26.955682088800327,182.64573816295487 26.776938232037953,182.60139860158745 26.63699149155465,182.54597415004338 26.589880707601775,182.51826192402356 26.516443309004416,182.46837991732005 26.364026066886527,182.36861590440856 26.265647665102584,182.30764900736318 26.167269263236054,182.2799367818389 26.109073588941328,182.2743943365854 25.777912489978476,182.31873389770504 25.624109636485272,182.32427634304113 25.460607503942942,182.3021065626052 25.421810387746458,182.29102167226335 25.342830544143347,182.26885189149706 25.058780229050782,182.2300547751354 24.747017688186176,182.22451233012964 24.511463768504395,182.21896988454577 24.173374612995296,182.19680010386207 23.832514234983325,182.17463032342613 23.570633700739645,182.14137565256576 23.23393015652328,182.10257853620408 22.574379181183044,182.06378142017277 22.244603693512925,182.03606919415296 21.903743315500954,182.03052674881687 21.60583688756366,182.01389941371704 21.378596635555684,181.98618718769723 21.004481586518153,181.9806447423611 20.911645629905138,181.96955985201927 20.832665786219437,181.95293251658907 20.750914719948273,181.94184762599946 20.300591049810507,181.89750806487982 20.159258698034474,181.88642317478573 19.707549416603975,181.83654116808222 19.605014180941836,181.8309987227461 19.14222000916949,181.74786204551256 19.054926497727397,181.73123470958683 18.711294897047374,181.64255558676942 18.33025179154619,181.57050379987774 18.00463313783685,181.4929095674022 17.67070081628854,181.42640022526848 17.515512351420014,181.3931455544907 17.245318149337354,181.31555132176737 17.099828963600537,181.26012687022327 16.93216999734519,181.24349953487567 16.638420403120918,181.26012687022327 16.29894563640168,181.32109376735124 16.007967265010635,181.37651821856497 15.682348611136122,181.44302756094643 15.435709801112488,181.48182467706033 15.269436446067285,181.49845201240794 15.179371711874555,181.49845201240794 15.132260927921681,181.4929095674022 14.911948732377358,181.45411245104052 14.733204875614984,181.42640022526848 14.638983307791824,181.40423044458478 14.39095888639287,181.33217865769308 14.184502803693274,181.27675420565348 14.001602113052705,181.22687219894996 13.80623092077755,181.16590530240012 13.638571954357028,181.09939596001865 13.57899066876957,181.08276862458845 13.494468379912943,181.05505639914676 13.383619476494415,181.00517439244325 13.276927407036672,180.9442074953153 13.23120223437653,180.92203771463159 13.149451168105367,180.93866505030954 13.087098660015034,180.96083483074548 13.013661261335082,180.9885470567653 12.884799411193633,181.05505639914676 12.703284331763205,181.13265063129197 12.552252700855462,181.1991599731779 12.374894455468407,181.2878390959953 12.21000671155076,181.40423044458478 12.063131914603801,181.4929095674022 11.955054233770737,181.57604624513127 11.817878715707721,181.67581025804276 11.711186646249978,181.7146073744044 11.605880187919787,181.75340449027055 11.47009028131468,181.80882894231016 11.4008097166781,181.84762605842405 11.253934919565964,181.91413540022742 11.051635670827151,181.98618718769723 10.917231375432188,182.02498430405888 10.803611249428197,182.06932386493077 10.75372924297245,182.10257853620408 10.644265950846654,182.19125765877374 10.537573881223732,182.3131914526993 10.394855918154967,182.47946480799226 10.356058801958483,182.50163458867596 10.342202688948579,182.54043170478985 10.306176795337556,182.5626014852258 10.260451622677415,182.5903137112456 10.106648769266798,182.70116261449897 9.993028643180217,182.77875684722227 9.957002749651785,182.80646907299433 9.8212128428815,182.8618935244558 9.699279049121122,182.89514819581174 9.63831215232352,182.9006906405697 9.575959644150599,182.9006906405697 9.513607135895088,182.9006906405697 9.34871939206003,182.87297841479767 9.15750503366307,182.83418129893155 9.01894390438991,182.77875684722227 8.733507978169794,182.44621013663635 8.533979951933855,182.25222455590168 8.258243304680269,182.07486631051464 7.856416029953286,181.91967784531576 7.458745588774142,181.65364047711128 7.399164303269273,181.5372491287696 7.314642014330057,181.37097577380698 7.221806057717041,181.22687219894996 7.1317413236894875,181.11602329594436 7.009807529929107,180.96083483074548 6.905886682974239,180.78901903069453 6.829678061874001,180.65600034642713 6.650934205111626,180.17935006181006 6.5705687501331935,179.7304120032128 6.5608694710840725,179.63064799005352 6.504059408164666,179.39786529262685 6.434778843528087,179.21496460223403 6.217237870486639,178.5609560722299 6.027409123382411,178.21732447130213 5.945658057111247,177.7850137478047 5.952586113574905,177.5411461606143 5.992768841064121,177.1476325534785 6.003853731405974,176.7264067205707 6.034337179846069,176.3328931135175 6.082833575174264,176.07239819007103 6.042650847685048,175.11909762083687 6.099460910687043,175.00270627199967 6.20061053497386,174.78655091074648 6.254649375390391,174.66461711665573 6.336400441744145,174.45954664524888 6.393210504663551,174.28773084519793 6.420922730518182,174.12699993548884 6.44586373386994,173.97181147028994 6.45417740154374,173.7944532249029 6.42785078698184,173.62817986960994 6.382125614404287,173.52841585669842 6.350256554588872,173.4785338499949 6.276819156074097,173.3510576110636 6.208924202812838,173.21803892737432 6.134101193005332,173.05730801741745 6.091147242848064,172.8910346621245 6.098075299311722,172.77464331328727 6.114702634824501,172.7247613068315 6.149342917142791,172.64162462959797 6.214466647901175,172.50306350032483 6.2740479335712225,172.3478750353737 6.3267011626124345,172.18160168008075 6.408452228883598,172.00424343469368 6.487432072651887,171.81025785395903 6.5539414146204145,171.66061183401365 6.585810474435831,171.5553053760964 6.605209032451484,171.33360756925936 6.5996665872805576,171.17287665905474 6.587196085645973,171.03431552978157 6.559483859791341,170.90683929109804 6.510987464628324,170.7849054970073 6.450020567665546,170.6297170325517 6.413994674054524,170.49115590327855 6.40983784017633,170.31379765764373 6.441706899991745,170.12535452166705 6.468033514471056,169.95353872136835 6.459719846714667,169.8038927020011 6.440321288699013,169.74846824996146 6.397367338541745,169.6542466823861 6.366883890266828,169.5932797855885 6.254649375390391,169.3660395334979 6.211695425315712,169.28844530102236 6.153499751020986,169.20530862345845 5.962285392706615,168.97252592636215 5.940115611940321,168.91710147432252 5.917945831256616,168.87276191320288 5.884691160231057,168.82842235200064 5.825109874643599,168.73974322893548 5.76552858913873,168.67877633213786 5.679620688989371,168.55684253854267 5.621425014694644,168.4570785253834 5.541059559716213,168.34068717654617 5.4939487757633385,168.2464656088882 5.401112819150322,168.10790447961503 5.356773257700322,168.04693758256968 5.2417675204036005,167.91946134363837 5.086579055617662,167.6312541947502 4.992357487794503,167.41509883324923 4.862110026195145,167.07700967765757 4.715235229248186,166.74446296764975 4.539262594988685,166.40637381230582 4.366061183397236,166.0682846568793 4.251055446100514,165.885383965991 4.061226699078875,165.56392214599467 3.9392929052359067,165.35885167491816 3.789646885620895,165.0263049643322 3.7439217130433415,164.8766589447172 3.7286799887407054,164.76026759612776 3.7148238758959784,164.4277208863677 3.6940397064224157,164.08963173069344 3.6497001450550046,163.75154257510175 3.6455433112593987,163.41345341975781 3.641386477381204,163.07536426416615 3.621987919200373,162.73727510907 3.6206023079076415,162.38810106338423 3.6122886402338406,162.2938794952307 3.7051245968468574,161.9835025659066 3.753620992009874,161.59553140377656 3.7522353807171425,161.11888111891173 3.7106670420177834,160.6699430600667 3.6829548160805627,160.1932927756974 3.6136742514439835,159.8108640586557 3.5125246270745776,159.43397778695012 3.408603780119708,159.16794041874564 3.396133278485124,159.12914330287953 3.1785923056088534,158.70237502447043 2.7060988547873817,157.6770226680968 2.4636168785593537,157.07289614454842 2.271016908787074,156.38563294294062 2.0659464374627987,155.7537941933724 1.8885881919931555,155.17183745050775 1.8705752451876447,155.12195544429977 1.7597263419342954,154.68964472088493 1.6765896642052225,154.2407066619573 1.5754400398358164,153.70308948029486 1.4964601961501158,153.19318452489998 1.428565242888857,152.67219467858513 1.3385005087787147,152.14011994192845 1.2525926086293562,151.7576912253823 1.13481564882976,151.3253805022152 1.000411353352207,150.83210288167243 0.9006473402755327,150.42750438419478 0.8784775595918273,150.37762237773904 0.825824330468027,150.05061811248922 0.8022689384915899,149.9951936611929 0.6928056463657943,149.72915629307101 0.6678646431792147,149.67373184103138 0.539002792872588,149.34118513069322 0.2951352053518284,148.78139816859485 0.11639134858945345,148.3490874450974 0.008313667838978401,148.00545584466516 0,147.6950789148455 0.059581285587458316,147.11312217198082 0.10530645824760075,146.66972655863708 0.12609062763857457,146.4979107580906 0.14548918573681682,146.3538071837291 0.21615536174871672,146.34272229338725 0.3034488731908068,146.37597696449538 0.34363160068002285,146.39814674493132 0.491892008919714,146.4812834226604 0.7205178723856039,146.56996254523006 1.044750914719618,146.64201433269986 1.4701335816708045,146.67526900347764 1.9093723614667182,146.780575461973 2.3250557492861947,146.8692545847904 2.767065751584983,146.96901859794968 3.213232587927143,147.05769772051934 3.63030158712194,147.18517395936806 3.785490051825289,147.24059841091213 3.989174911774244,147.26276819159585 4.4478122496684,147.26276819159585 4.899521531181486,147.26276819159585 5.033925826493862,147.27939552702603 5.319361752796569,147.2184286304762 5.7599861439678035,147.17963151411453 6.0565069605297746,147.08540994645656 6.46387668067545,146.97456104270768 6.688345710097968,146.95793370760785 7.140054991528466,146.90250925556822 7.594535495544426,146.89696681047988 7.9159973153755665,146.95239126202395 8.100283617308868,147.01335815882157 8.509038948664687,147.1907164044564 8.604646127863166,147.23505596615416 8.937192838118747,147.36253220500288 9.124250362637511,147.4179566562992 9.546861807003236,147.4900084439342 9.595358202166253,147.50109333427602 9.97640130766744,147.5676026759142 10.397627140657843,147.68953646975717 10.82439541881917,147.80038537358865 11.244235640599431,147.88906449615828 11.665461473589835,147.9999133996594 12.093615363043895,148.07750763213497 12.523154863708099,148.07750763213497 12.979020979016791,148.15510186428017 13.02197492917406,148.1606443093685 13.27554179574394,148.1661867547046 13.354521639347052,148.20498387106628 13.407174868470852,148.2216112061661 13.450128818628121,148.2271536515022 13.49169715732748,148.2437809868498 13.635800731771566,148.27149321262186 13.904609322561493,148.32137521957313 14.353547381406528,148.3878845612113 14.444997726726813,148.39896945155314 14.582173244789828,148.42113923248462 15.04496741647959,148.50427591004853 15.230639329705623,148.5597003617578 15.276364502365766,148.58187014252408 15.610296823914078,148.7869406136006 15.815367295238355,148.92550174287373 15.861092467898496,148.94212907830394 15.910974474436834,148.9476715238878 15.96085648105776,148.9532139686458 16.207495291081393,148.99755353034357 16.64950529346277,149.0973175435028 16.9972937279384,149.18599666632022 17.090129684551414,149.20816644675617 17.53213968701538,149.31347290525153 17.97414968931417,149.43540669884675 18.414774080485405,149.5739678281199 18.787503518147613,149.7568685185127 18.94269198293355,149.85663253191973 18.982874710422767,149.87325986710215 19.251683301295284,149.91759942879992 19.340362423947514,149.95085409957773 19.646582519641196,150.16700946132642 19.855809824843668,150.41087704901236 19.873822771649177,150.4496741648785 19.9278616121483,150.54943817828553 19.98190045248224,150.61040507516572 20.015155123672976,150.6325748558494 20.186970923889106,150.75450864919685 20.332460109625924,150.8986122240539 20.785555002266562,150.95403667576315 22.21134902248737,151.0260884629852 23.481954577922235,151.28104094051744 26.24209227304356,151.3032107215315 28.567148022247164,151.1923618179478 30.227110351022198,151.04271579808503 32.633917166496964,150.7877633204702 36.039749723948624,150.3000281452635 40.43352313328308,149.57951027337342 43.60795860484856,149.07514776248877 44.84392387796514,148.87561973666575 46.156097772264545,148.39896945155314 47.65255796833207,147.78375803766292 48.90930741092221,147.25722574659008 50.01779644510748,146.88588191989027 50.90181644987023,146.6808114490615 51.75258178352484,146.60321721658596 52.80980319987904,146.4979107580906 53.8171426097775,146.45911364172892 55.12654528132626,146.47019853207078 55.880317824572245,146.5644201002243 57.69131178425502,146.80274524265673 61.063889670846294,147.06878261086118 62.57559159113387,147.26831063693194 63.30996557619902,147.3791595401853 63.44298426030125,147.3459048694075 63.84342592390068,147.20734374013435 64.23555391974372,147.0743250561147 64.70111931426672,146.96901859794968 65.11264586804282,146.8692545847904 65.3218731732453,146.80274524265673 65.29416094747324,146.5034532034267 65.18054082138667,145.9048691246363 65.09601853253004,144.53034272224656 65.06830630667541,142.41867111237138 65.08077680839259,139.85251899831508 64.96992790489146,137.1311784195554 64.81751066269099,135.70677001046215 64.5985840784394,133.8334235424413 64.8133538288128,133.07965099952565 64.76347182235705,131.5443936869313 64.5154474009581,130.46361687851805 64.50851934449443,130.042391045858 64.52098984612901,129.95925436788116 64.5985840784394,129.4659767478339 64.75515815451807,128.87847755996347 64.8313667756183,128.5293035142777 64.82305310786191,128.25772370048938 64.58472796559467,126.60607503955332 64.40736972004244,125.39782199220878 64.22031219560627,123.99004091904125 64.07759423253749,123.0977072466047 63.99445755480843,122.55454761985392 63.8309554222661,121.97813332207758 63.74643313349206,121.70101106353125 63.60925761551163,121.37954924328717 63.45268353943296,121.02483275276083 63.32382168912634,120.78096516532266 62.71969516557795,119.56716967239426 62.48137002314553,119.09051938802494 61.911883781915435,118.37000151563934 60.932256597871614,117.36681893994944 60.71194440232729,117.08969668140313 60.41265236309727,116.50219749295456 60.35168546629967,116.36363636368141 60.1729416095373,115.9091558599958 59.934616467104874,115.62094871110763 59.40392734198867,115.12212864555909 58.37857498544989,114.34064387637588 57.853428305504615,113.89170581777861 57.422503193382504,113.47602242995913 57.22713200110735,113.0769663772395 56.96802268936654,112.53934919582481 56.87795795542158,112.24559960160055 56.86410184241167,111.63593063329418 56.90428456990089,111.34218103882213 56.91675507161806,111.24241702591064 56.8959709021445,110.63274805727391 56.77680833096958,109.72378704891163 56.63547597919355,108.64855268608228 56.45396089976312,107.46246941917369 56.312628547904495,106.72532421160565 55.78332503408103,104.59148282079902 55.353785533416826,103.00634350199667 55.339929420406925,102.8456125919572 55.4272229319316,102.62945723053885 55.76115525339733,102.13063716465994 56.55926735809331,101.15516681498985 57.17170754948067,100.21849358085552 57.99060382348504,99.25965056628527 58.68895191502176,98.3617744485126 58.8482972136033,98.10127952539648 58.93420511375266,97.84632704778164 59.1337331399886,97.04267249791472 59.31524821925385,95.85104678624815 59.38175756138756,95.34114183027516 59.45380934852701,94.80352464886047 59.49953452118715,94.39892615138285 59.72400355069226,93.80588451792856 60.19234016755295,92.8082443872444 60.63712139251979,91.72746757883118 60.947498322174255,90.89055835843423 61.370109766374796,89.83195133070471 61.87031544313349,88.52393427011833 62.33172400353052,87.50412435899824 62.82084478986477,86.63396046699762 63.43744181513033,85.55872610392049 64.08313667762583,84.42806728905153 64.84799411113109,83.14776245423718 65.72785728209823,81.65130225825224 66.33475502831467,80.57052545008678 66.56060966894732,80.0938751654697 66.93472471806744,79.61722488085262 67.51113901584378,78.56416029788109 67.70789581941168,78.25378336855697 67.75362099207182,78.18173158133493 67.8450713373095,77.89352443244675 67.86446989549034,77.33373747034838 67.91989434711702,76.30838511339664 67.96561951977716,74.90614648556522 67.96423390848443,74.06369481950182 67.92266556986766,73.81982723181589 67.74530732423284,73.49282296681382 67.57349152393412,73.38751650831846 67.19521964118357,73.2157007082675 66.773993808028,73.09930935943028 66.35415358633033,72.99954534651879 66.06456082614942,72.97737556608286 65.8622615774106,72.93857844972119 65.45073502355191,72.78893243010617 65.03782285823532,72.63374396515506 64.65123730756319,72.4508432744319 64.60412652361032,72.42313104899021 64.48634956381073,72.32336703583096 64.24941003275363,72.04070233170076 64.21892658423094,72.00190521558687 64.19537119225451,71.96865054480908 64.177358245449,71.61947649879295 64.12886185028599,71.54742471165349 63.819870531924245,71.28138734369679 63.49425187821491,71.05968953669456 63.16586200175494,70.82690683951566 62.901210244843206,70.53869969037972 62.67535560412795,70.25603498707542 62.54095130881558,70.15627097391615 62.46889952151095,70.1063889674604 62.18069237262278,69.79046959280019 62.01026218369938,69.66299335362112 61.96730823354211,69.62419623750722 61.92019744958924,69.60756890182927 61.6818723072394,69.60756890182927 61.63476152336912,69.61311134716537 61.54885362330235,69.62419623750722 61.522527008575274,69.59094156639908 61.960380177078456,69.34153153387257 63.04531381928729,68.54341942934177 63.77553097063942,67.98363246666526 64.18844313579085,67.64000086623301 65.14590053906838,66.98044989097535 66.25577518454638,66.17679534135621 66.76429452897887,65.78882417897842 66.98876355840139,65.50615947542636 67.1688930264565,65.17361276508818 67.22985992350186,64.97408473876966 67.24510164763932,64.34778843478534 67.22570308945849,63.06194115521301 67.33378077045673,62.75156422531078 67.60813180625242,62.04767368860313 67.97809002141175,61.3992076039351 68.62517049519998,60.56229838271228 69.34707397871314,59.62008270381998 70.47773279349953,59.719846716731475 70.6038234211381,59.70876182638962 70.85739028770799,59.41501223241311 70.93775574268642,59.28199354847606 71.13728376892236,58.949446838385654 71.03474853317763,58.79425837351713 69.93318755545602,57.840957804200386 69.06025244103512,57.21466149947276 67.64554331132135,56.14496958164916 66.68670029666849,55.413366818921695 66.53705427713606,55.29697547033224 66.48162982526163,54.06101019746343 66.4760873800907,52.77516291764334 66.57585139324996,52.719738466181845 66.69917079822049,52.608889562928496 66.7088700773522,52.536837775458686 66.74628158217337,52.17657883918329 66.84050315007912,51.83848968408714 66.97906427935227,51.49485808315935 67.0026196714113,51.417263850683796 67.08437073768246,51.06254736015745 67.15919374748997,50.724458204318 67.20630453144284,50.59143952062871 67.36842105277502,50.26443525537888 67.53885124161583,49.93188854504071 67.68018359363963,49.61596917013273 67.83952889213859,49.27233757003083 68.0155015263155,48.95641819512285 68.15406265558866,48.62387148453691 68.20810149600518,48.51302258153133 68.3840741302647,48.208188096717436 68.54896187401715,47.88672627729924 68.70692156147115,47.56526445705516 68.87596613910182,47.243802637389194 69.06163805232785,46.91679837238713 69.2348394639193,46.611963887821 69.4412955465363,46.29050206757692 69.68100630017886,45.985667583258554 69.92625949899235,45.647578428162404 70.10916018971551,45.46467773752183 70.48327523867046,45.17647058863366 70.51791552098875,45.14321591727775 70.71605793593196,44.91597566543495 70.74654138428946,44.63885340688863 70.06066379438732,43.15347810124555 68.87873736168727,41.02517915519688 68.25105544616245,40.110675702324386 67.77579077267293,39.61739808178159 67.63030158693611,39.51209162378175 67.32823832512062,39.29593626236339 66.90562688092008,39.11857801672857 66.38602264614573,38.90242265497985 65.95648314531635,38.51999393793817 65.8622615774106,38.40360258959648 64.76624304485992,37.40042001341104 63.67438134618743,36.668817250931355 62.51046786029289,35.97046915980758 62.22087510011199,35.804195804514606 60.310117127435134,34.712334105924704 58.53099222756777,33.653727077947416 56.94308168609737,32.53415315342029 55.26233518801396,31.27047565486203 54.46837991727875,30.549957782476426 53.63147069655146,29.95137370393379 53.10632401660619,29.552317651544502 53.01071683732512,29.552317651544502 52.464785987988876,29.557860096880606 51.734568836719326,29.4913507547469 51.47823074764658,29.463638528727092 51.07640347267183,29.463638528727092 50.22286691634917,29.485808309410796 49.07558076596741,29.546775206456164 48.07378380148765,29.56894498722246 48.06547013356608,29.424841412613198 48.030829851247795,29.086752257021512 48.02805862866233,28.737578211583507 48.01143129314955,28.393946610655718 47.953235618854826,28.011517894109566 47.92968022687839,27.939466106722346 47.9005823898962,27.906211435944552 47.88949749938917,27.656801403418044 47.74955075890587,27.24666046035655 47.14403862398216,25.994067852140137 46.18935244320751,24.586286778642254 45.50763168718357,23.721665331729977 45.231895040012574,23.49442507963941 44.87025049252704,23.32260927958846 44.42962610152098,23.2450150471129 43.943276537689606,23.200675485910665 43.59410249192125,23.19513304065715 43.22414427692709,23.25055749211865 42.904068068140916,23.40020351173366 42.068544458706356,23.982160254598337 40.759141786992416,24.75256013343969 40.31990300727909,24.91883348873266 39.47468011863023,25.029682391986007 38.73476368831157,24.96317305010007 38.18329039388698,24.763645023781542 37.60133365085712,24.397843642417815 36.61200718792936,23.71058044163589 36.929312173964895,23.2616423824605 36.929312173964895,23.11199636284549 37.0041351837724,22.884756111002687 37.03323302091976,22.552209400747106 37.03184740954444,22.491242503949504 37.026304964373516,22.44690294225174 37.0124488514462,22.40810582613784 36.77689493168183,22.25845980652283 36.71454242350891,22.23629002608689 36.65911797188223,22.203035354978745 36.61062157655404,22.158695793363567 36.575981294235746,22.11435623249169 36.538569789497174,21.92037065117891 36.52332806511195,21.560111715399053 36.48314533762273,21.360583688997938 36.38892376971698,21.21648011471903 36.35151226481323,21.166598108015517 36.33072809558743,21.116716101559767 36.33072809558743,21.06129164952015 36.36952521170133,20.911645629905138 36.39169499230245,20.861763623449388 36.47621728115907,20.58464136490307 36.53995540062473,20.346316222718414 36.5482690684637,20.10799108053376 36.52332806511195,19.731104808828178 36.452661889182636,19.50940700174336 36.43880577633791,19.44289765994001 36.43880577633791,19.09372361392388 36.433263331166984,18.72792223280792 36.3196432050804,18.400917967558087 36.190781354938956,18.062828812214168 36.027279222314036,17.730282102206353 35.86931953494264,17.419905172304123 35.711359847653824,17.103985797891674 35.50490376503682,16.699387300414053 35.319231851810784,16.483231938747924 35.25410812096981,16.405637706272366 35.19868366934314,16.30587369336087 35.17928511116231,16.255991686657353 35.168200220903046,16.206109680201607 35.03933837059642,16.045378769914386 34.716490939389956,15.807053627481965 34.43244062437998,15.535473814519518 34.171945701346445,15.20292710393358 33.91837883477656,14.892550174609472 33.64957024398663,14.57663079970149 33.36690554035198,14.260711424793511 33.07869839146381,13.972504276153108 32.77802074094105,13.717551798042729 32.218233778677494,13.340665526584914 31.887072679632052,13.102340384152493 31.71110004553773,12.9194396936771 32.146181991372856,11.661304639876818 32.606204940642336,10.159301998638364 32.99417610252459,9.122864751592546 33.458355885589675,8.540908008480102 33.76873281516155,7.8979843685700555 34.18580181427376,6.628764424675687 34.56268808597934,5.431596267673005 34.68046504577894,4.943861092961842 34.64305354095777,4.688908614851463 34.64721037475338,4.627941718053862 34.64721037475338,4.251055446596047 34.6569096538025,4.212258330234385 34.672151378105134,4.17346121412049 34.733118274902736,3.8353720587765707 34.73173266361,3.491740457848781 34.7095628829263,3.2423304253222733 34.64028231828972,2.9097837147363363 34.64721037475338,2.8654441538644586 34.662452098973425,2.8266470375027963 34.69709238129171,2.7490528050272385 34.90354846399131,2.455303210802964 34.961744138286036,2.3832514236635105 34.98529953026247,2.3444543073018482 35.057351317401924,2.178180952256646 35.13910238367309,1.8456342422488317 35.194526835382355,1.612851544822158 35.22223906140216,1.5740544287082625 35.40236852929209,1.2969321701619447 35.611595834494565,0.9588430145702594 35.651778561983775,0.8091969952030145 35.73907207342587,0.5708718530183589 35.76124185410957,0.5376171816624453 35.797267747720596,0.43785316875094865 35.8194375284043,0.3491740461813047 35.94414254475014,0.3547164910218756 37.153781203304824,0.39905605238928643 38.60867306067299,0.42122583340334735 41.059819437515166,0.42676827816132934 45.10303318970595,0.5431596267507828 45.70023165695585,0.4323107237452 47.387906211420336,0 47.59574790533007,0.12747623893130616Z"/></svg>