<svg xmlns="http://www.w3.org/2000/svg" width="256" height="256"><path d="M146.16677143401768,5.559995262832812 147.76045016563432,7.397778931784901 151.37537997149647,6.962432546423781 152.11313661359608,6.866034418406467 155.15434207616894,6.862924801415503 159.58088192867393,6.527086161387019 159.73325316350167,6.56129194861198 162.248933346678,7.161448036857368 164.87733714750283,8.131648552541549 166.87604349822792,8.800216215514881 169.02245665817844,9.157822174943481 171.17353424373124,9.136054855728712 172.18804680219696,9.083191365816578 174.22329115311032,8.650954597863453 175.14762481740166,8.380417915618287 177.67496606446787,7.341805825206161 179.17846590204914,6.440016884110912 181.07144527345963,5.70925688062325 182.34250123745633,5.1557450478910365 184.33732056688478,4.518273555151701 185.44434423216387,4.2010926173470216 187.75168007384104,3.6351423164656054 190.41040264073322,3.2961940594461567 192.88254818538735,3.252659420877609 193.16396852726305,3.2402209528674164 192.97428188803406,4.369011937361264 192.9268602281689,4.686192875304955 192.72318031222568,5.743462667987221 193.02792278188116,5.973574328515794 193.01703912229695,6.502209224903265 192.95329197298594,6.679457395983072 192.8654452916822,6.894020971695837 192.90120588761116,7.245407696864489 193.08700550558987,7.47551935771742 193.68716159383527,7.805138763532293 193.67472312573238,8.116100467262372 193.76645682824008,8.358650596403518 194.02144542529877,8.641625746705214 194.17848108568245,8.753571960001706 194.7825241952708,8.831312385934226 195.3220427511498,9.44079732538419 195.38812211323878,9.670908985912764 195.4114442409722,10.112474605302149 195.76671798753017,10.84945384304976 195.88566083916058,11.169744397984415 195.45653368801308,11.259923291927127 195.1510138141446,11.291019462485481 194.9885363238993,11.480706101714492 194.91390551500407,11.726365847522244 194.99631036658522,12.273658446318867 195.03129355820852,12.799183725437352 195.25907300614446,13.178557004219732 194.92090215338433,14.916832928024533 195.16578449502543,15.706675655359922 195.13779794173607,15.855937273289369 194.7731953440662,16.235310551608382 194.58739572613385,16.82613778897355 194.59439236446775,16.903878214906072 195.2901691765638,17.385868855456007 195.3834576876365,17.50403430301245 195.35080670874484,17.634638218393732 195.11369840965065,18.564413712778354 195.71774151919266,19.005979331889716 195.7433958597504,19.236090992881657 195.74184105118542,20.237387678799838 195.93385990323873,20.666514829761997 196.75168918409517,21.0365592573398 197.5151001667062,21.378617131442887 197.7312185507986,21.468796025570946 198.43710161826587,22.08139058182653 198.51406464003173,22.628683180437804 198.17433897861395,23.912955016843025 198.19999331917168,24.00313391078574 198.3228231921914,24.093312804867463 198.92064706756614,24.258122507937077 199.24093762240813,24.57219382875079 199.441507921314,24.904922851834648 199.70971239078122,25.016869065177477 200.76464997073185,25.449105833362285 200.8727091627317,25.514407791006594 201.2303151220213,25.856465665156016 201.44565610185438,26.011946517021055 202.1429877224691,26.568567966558884 202.96625883309446,27.134518267440303 203.6620356451905,27.134518267440303 203.9893228383664,27.193600991288026 204.2443114354251,27.349081843153066 204.4503235641926,27.604070440119056 204.6952059058337,27.97100525061322 205.04814743956734,28.44677665708856 205.4873808461324,28.897671127543507 206.09608838118405,29.11534432038625 206.73045025674705,29.286373257206105 207.07017591807218,29.093577001032468 208.12044907246684,29.998475558933333 208.4407396272625,30.402725773689763 208.87453120396594,30.953127989338338 209.18549290769602,31.47243403438222 209.3635184830815,31.665230290880217 209.69935712311,32.2529479109764 209.93257840090754,32.40220952876684 210.39280172242806,32.48927880557957 210.47987099947247,32.49549803979319 211.3210224081087,32.26538637898659 211.57134657956504,32.24050944264185 211.7493721550432,32.32135948556533 211.86520538963632,32.604334636006044 211.76958466569297,33.154736851608284 211.6102167925313,33.48746587455313 211.8224481553271,33.81397566370139 212.99788339542678,34.74064154081703 213.18834743896147,35.011178223062196 213.31506433323148,35.47451116157367 213.52418607903627,35.61444392815954 213.90122714476266,35.91296716387942 214.123564762976,36.00625567495211 214.82478340484099,36.34520393211057 215.22125957714317,36.48824631578007 215.78371155871864,36.58775406078835 216.41224290238304,36.65927525264627 216.87907416015418,36.681042571861035 217.2079161618024,36.69037142320462 217.83644750546682,36.64372716764511 218.10542937919334,36.54110980527517 218.32387997611005,36.41050588984755 218.43388267880457,36.26746350617805 218.51512142390405,36.15551729269621 218.6791537225753,36.11198265431301 218.9057670641679,36.07777686676369 219.697164600208,36.76811184913714 219.95798372916528,37.318514064600365 220.36806447600492,38.0492740685514 220.3152009863252,38.61522436910846 220.22618819867878,39.32110743676108 220.21996896455786,39.64139799137138 220.26700192224703,40.25399254795132 220.58845858352433,41.469852809582264 221.13264156505198,42.65772651759948 221.15635239491505,43.425801925905446 221.39540420470388,44.18765809995146 221.61618701430592,44.65099103869463 222.46161414632206,46.42658236685436 222.65946353032032,46.973874965511975 222.94321608502037,47.54604450032898 223.00035529803444,47.56159258560816 223.48040242816774,47.412330967817724 223.69146768462085,47.48696177648126 223.9157488134825,47.77304654419095 223.91885843047348,48.009377438794125 224.2002787723492,48.799220166268526 224.9209325206973,50.02440927896503 225.52264341741503,51.106556007945706 226.0279561859764,51.999016097836375 226.3260907194276,52.409485546713746 227.04829927634145,53.277068700120665 227.23759721348569,53.86478632021685 227.26947078811872,54.455613557118646 227.20416883033542,54.91272726178721 227.22049431978198,55.78963926612069 227.15441495778495,56.21565680027723 226.92313719058936,56.6447839513784 226.77853999840121,57.27292659291316 226.37040276225548,59.06406600635207 226.4127712943887,59.26308149692467 226.36029650688425,59.35326039086738 226.38828306017362,59.39057579550034 226.10764012260356,59.723304818445186 225.9366111855513,60.99513818665487 225.90007318531812,61.819186701493244 225.50281960884857,62.84536032375616 225.39864743809898,63.1998566661938 225.18835958595153,63.3895433052838 224.77672403063883,63.82799930758955 224.40473609255173,64.22603028845673 224.15557802739167,64.5432112262614 224.04557532469715,64.67070552483708 223.89864591973028,65.01898263301476 224.0688974524769,65.23043659145854 224.4389418799157,65.43256169888309 224.44632722042562,66.02649855305387 224.40745700745936,66.34989872479414 224.19367083614495,66.6888469818136 223.96317047325502,67.17705685676249 224.27840790041137,67.30455115519915 224.39424113505012,67.39162043247525 224.3339923049068,67.54399166707131 224.15130230401098,67.91714571159375 224.33166009212883,68.63235763012659 224.45138034806416,69.16099252651405 224.07395058020884,69.33513108078824 223.7917528340738,69.64298316724934 223.0664346601234,69.77669669989962 222.79978499912852,69.85443712583213 222.50786969975192,70.25557772364392 222.11333703814438,70.49501823570144 221.45254341771795,70.60696444899793 220.75210218006595,70.33020853263183 220.7684276695118,70.83085687559091 221.44671288581935,72.04360752009188 222.58638752994375,72.9609445463273 222.7282638072706,73.16617927069647 222.78695782884967,73.70725263509414 222.64080582809652,73.8347469335308 222.4557836143771,73.88761042344294 221.9357001649349,73.75389689060731 221.82880707927768,73.96224123210646 221.8680659943736,74.18302404189383 222.23500080472877,74.48776651154931 222.31312993279096,74.70233008693772 222.5879423384624,75.39577468625579 222.99219255335785,75.5077208998303 223.28721746977175,75.55436515538982 224.44244019908265,75.07859374845111 225.1459910538183,74.80494744935399 225.10595473441745,75.14078608924346 226.47885065638502,75.2838284729593 226.95734297809236,75.32736311166686 227.29551383080613,75.0848129825257 227.70287366269253,75.04438796122615 227.99828728123612,75.11590915308406 228.5793969651273,75.32425349439787 229.88038299306314,75.00707255659319 230.1240992284072,75.1127995359541 230.72075699744,75.04127834423518 231.24822578739142,74.98219562057281 231.36405902198453,75.01951102488141 231.4748391289847,75.13767647243785 231.60544304455135,75.36467851616081 231.65169859793485,75.50150166561669 231.6785190448816,75.63210558132234 231.69018010877147,75.77825758184379 231.76675442836134,75.91197111449405 231.8701491948516,75.89953264648386 232.19043974964723,75.87776532713008 232.4007276017947,75.73472294341425 232.60557362417248,75.55747477219543 232.71713113534005,75.48284396353189 232.95112981739692,75.3833362182456 233.2348823721433,75.30559579231307 233.77051390672568,75.23718421758514 233.76157375774343,72.92051952470338 234.4281979101148,72.44474811808902 234.72400023083364,71.55850726227295 235.2728476378709,71.17913398381494 235.3770198086212,71.59582266690592 235.54921485206174,71.92544207272078 235.66971251230348,72.05915560523205 237.0865317748773,72.42609041567988 237.3251948825365,72.55980394846915 237.64820635223975,72.76503867283834 237.76637179970353,72.77125790691294 239.17891533885108,72.99515033369127 239.52291672360246,73.23770046250806 240.5141071542421,73.464702506231 241.062954561372,73.69792378402857 241.36847443533316,73.9342546788171 241.6343466919297,74.03376242410339 241.83880401213224,74.22655868046238 241.9414213744095,74.44112225585079 241.9783480766811,74.57483578864007 242.01255386413774,74.77074166199002 242.17969577984633,74.94798983302348 242.2259513333225,75.10968991900947 242.21701118434027,75.49839204867206 242.5104812921892,75.54503630404622 242.77479874035976,75.56058438946441 243.60545519144873,75.60100941076398 243.8157430435962,75.2776092390237 244.35953732299419,74.92933213066067 244.61141630301626,74.82982438551338 244.89400275128025,74.85470132199714 245.09457305018614,74.82982438551338 245.75653277704788,74.32295680847969 245.8708112031694,74.00577587081402 245.94971773544387,73.86584310408915 246.50011995104683,73.79743152931488 247.13098350758116,73.9280354448815 247.7560165320323,74.18613365897747 248.4817234081587,74.29497025519032 248.05143015052954,74.70854932115132 247.8873978518112,75.16877264253283 248.0121712354336,75.33669196268609 248.389601003336,75.25895153675357 248.6465331110893,75.23407460031615 249.12813504969492,75.8031345182812 249.8184700320213,75.82179222055134 249.91953258573432,75.89331341240926 250.5309610356936,75.82490183763498 250.6343558021375,75.8684364759255 250.8014977178924,75.93995766778343 251.01839350624414,76.02702694505953 251.13927986856922,76.01147885964134 251.22868135839232,75.93062881671786 251.33479703983585,75.86532685911989 252.04651063920173,76.3255501806404 252.62917513156594,76.44060601102053 253.10533524040264,76.55877145843796 253.68644492429456,76.33487903152063 253.8512546272715,76.40018098930395 254.07553575608682,76.59297724580193 254.29282024661381,76.78266388503094 254.4665700985274,76.8324177576741 254.6115559928452,76.9194870348112 254.77325607878484,77.04387171611788 254.80396354707452,77.10606405677122 254.8016313342502,77.19313333404733 254.77403348304418,77.37660073920173 254.7137846529928,77.52897197407582 254.69551565285232,77.59116431472916 254.69473824859298,77.65335665556785 254.62904758872637,77.76841248594798 254.5326494605237,77.85859138007604 254.36084311930549,78.00785299786646 254.09341605400496,78.34369163761693 254.11051894775645,78.44630899998687 254.15949541609393,78.51472057490015 254.18048533104937,78.58002253268347 254.152110075584,78.81013419321205 254.39310539602116,79.06512279036339 254.382610438521,79.22682287630303 254.3320791616178,79.49114032465894 254.17893052257708,79.75856738982047 254.06815041562322,79.97002134826425 253.9709748832076,80.13172143406489 253.7956702226834,80.29031190319891 253.60831579623238,80.40847735057 253.4901503487686,80.50798509571729 253.40696809302082,80.62926016021835 253.53834941284748,81.03972960923473 253.5325188809011,81.10192194988808 253.195902836614,81.34136246176024 253.11583019794986,81.39733556833897 253.09717249572606,81.53726833492483 253.08978715521613,81.82646271944014 253.09872730419838,81.88243582629691 253.2367165602749,81.8886550603715 253.5309640724288,82.00682050778894 253.75252428629085,82.10321863580626 253.79022839291446,82.19339753002699 253.84697890379886,82.40174187152614 253.9254967339907,82.47015344611508 254.10624322428382,82.50746885074803 254.98587614375663,82.75934783063038 255.11142693163765,83.03299413000552 255.3077215070709,83.09829608764983 255.37069125212258,83.84460417688004 255.1316394423801,84.13068894412636 255.00064682463747,84.40744486035346 255.0282446758435,84.63444690421542 255.0982110592284,84.86455856488301 255.63461999811716,85.97158223034744 255.8328580842451,86.29498240208771 255.9599636806911,86.44424402001715 255.84996097799657,87.53260998307243 256,87.91198326139144 255.86939608447898,88.69871637206023 254.50816122635496,90.03585169805322 253.8252115845841,90.80081748918288 253.8633043932447,90.86300983002157 253.53990422136542,91.11488880990392 253.35060628421974,91.44139859891318 253.25770647523038,91.58133136549904 253.04353160178627,92.26233749680692 252.6326734507329,92.58884728563083 251.86459804251962,93.29783997008907 251.7040640630153,93.62124014210737 251.5979483815718,93.5652670352506 251.40476342312877,93.85446141990492 250.74707941973966,94.72515419016379 249.96267852208052,94.97392355324054 249.52033549857083,95.50566806675798 249.22336707150788,95.64560083334383 248.709891558178,95.90680866443077 247.8761254900517,96.38879930530507 247.3443809767196,96.78061105177328 247.09833252864317,96.89877649946872 246.73411863310298,96.79926875418244 246.2074272474565,97.26571130977754 246.0678831829069,97.69483846087871 245.66363296810488,97.86275778075395 245.48988311605302,98.08975982447691 245.45567732868903,98.21414450620063 245.06775260323943,98.47224272020391 244.94453402822907,98.50022927349329 244.78905317636404,98.62772357206896 244.6502865159818,98.92624680778884 244.73035915473935,99.37092204403018 244.29579017377512,99.61658178983792 244.24525889687337,100.00528391950053 244.1173758962607,100.07991472858109 243.95917412948876,100.12344936687163 243.675421574788,100.14210706928077 243.55958834014857,100.3255744745742 243.48962195685561,100.74848239160076 243.38855940314335,100.80445549817951 243.16661048706038,100.75781124262 243.17593933826424,100.98792290333391 242.33439922745205,101.29577499007303 241.83219607592795,101.18382877663753 241.62696135151245,101.38595388420109 241.6335692877167,101.68758673672659 241.40851075459574,101.84306758859162 241.35875688209086,102.20689278190949 241.30084026467992,102.58937567749747 241.80304341620328,102.90344699835754 242.29047588684722,102.85991235978898 242.27842612082696,103.4072049584466 242.1509318222513,103.8083455562584 242.01993920455502,103.85809942890154 241.85668431014304,103.87675713098633 241.60402792586237,103.95760717404883 241.44776966969167,103.9918129614128 241.2405914345815,104.02290913178581 241.1165954552191,104.0446764511396 240.97549658219793,104.10064955771833 240.75704598528122,104.16906113263163 240.54675813313304,104.21881500513577 240.24862359968253,104.35252853778603 239.90112389585684,104.50489977266011 239.6550754476885,104.61373636887296 239.53846480878897,104.79409415703641 239.35499740358824,104.87183458296893 239.28075529682266,104.71013449689028 239.21584204116903,104.62306522007754 239.0844607213894,104.49557092150187 238.8994385076693,104.33698045250685 238.58458978259696,103.97626487613363 238.36613918572658,103.57512427846083 238.2063826104816,103.4072049584466 237.83711558730212,103.0620374671672 237.6303260543216,103.10557210587476 237.38816462749548,103.17398368064903 237.15183373266063,103.15532597823989 237.01617668940764,103.02783167994224 236.73669985818097,102.62669108199142 236.78878594355575,102.52096410263053 236.63408249595005,102.37170248484009 236.6609029429431,102.14781005838611 236.54584711251664,102.0576311643044 236.32195468583097,102.01720614281948 236.05025189719683,101.92080801452414 236.20923106822883,101.62850401315688 236.08134806761618,101.58807899144028 235.66232717179355,101.51655779958237 235.07538695600303,101.4761327782828 234.54131022984663,101.38906350114571 234.44296859108832,101.59118860870927 234.3574541225162,101.92391763160778 233.6935508850525,102.19134469695466 233.40435650058353,102.61736223092586 232.93558173221044,102.85058350872342 232.44581704883555,102.68266418857017 230.7712882742491,101.84617720567526 230.5641100391389,101.871054141881 229.88271520584038,102.46188137906083 229.69769299221366,102.58315644342288 229.38245556501096,102.64534878435424 229.14495856374077,102.95320087100067 228.58250658216534,103.09935287166114 227.80743453557176,102.67644495449557 227.22282653260555,102.7355276784823 226.89748285003162,102.69821227384934 226.3334760598912,102.84747389177879 226.256901740394,102.95320087100067 225.98053452615756,103.03716053086879 225.77024667401008,103.2672721918144 225.74653584410066,103.37921840515723 225.7383730994241,103.44762997988516 225.72943295044186,103.54091849109686 225.7181605886346,103.62798776804861 225.7442036313227,103.7212762791213 225.7842399507243,103.83322249241779 225.90085058962308,103.96382640812344 225.77685461021437,103.97626487613363 225.70105769493088,103.96071679113247 225.61943024774735,103.94516870585329 225.5378028005182,103.92651100349048 225.44762390643646,103.90474368427572 225.37649141670823,103.88919559927456 225.31468777809116,103.8736475140417 225.1261672452055,103.80523593926743 225.0359883511238,103.73371474740951 224.94775296764405,103.70572819398113 224.87117864814684,103.69328972569292 224.76273075392464,103.69950895976753 224.66827613641664,103.75548206648527 224.59636624242904,103.77724938570005 224.4327226458411,103.80523593926743 224.26208241096555,103.8270032583432 224.1066015591005,103.85498981163256 223.8539451748198,103.91096291835031 223.63121885447683,103.94205908876965 223.3875026192247,103.96071679113247 222.89268480811788,104.03534759998135 222.80872514811077,104.04778606799155 222.70183206245355,104.06333415327073 222.664516658053,104.13485534526765 222.62720125355833,104.28722657986371 222.65713131754234,104.42094011251397 222.70455297736117,104.73501143337403 222.70999480722278,104.8562864978751 222.73642655203986,104.93091730653863 222.74458929671715,105.01176734974014 222.76169219046793,105.16413858433619 222.78190470121038,105.30096173425545 222.79823019070255,105.52485416070942 222.7605260840326,105.89489858828722 222.67267940272885,105.97574863116436 222.51059061465955,106.08769484446086 222.3065219965867,106.2182987601665 222.2315024855618,106.29603918609902 222.15104114472163,106.37688922911518 222.01149708017203,106.48883544245801 221.88205927099511,106.57901433653973 221.73862818519598,106.61322012376469 221.57537329069206,106.62876820904387 221.4432145666524,106.65986437941687 221.24303296987614,106.73449518840476 221.08871822435376,106.8091259970683 220.94140011725798,106.92107221064282 220.80107864840343,106.91174335948457 220.67630526482807,106.84022216762666 220.60867109422045,106.78113944377894 220.51343907249873,106.72516633706118 220.41237651874084,106.70961825192101 220.2514538371076,106.72205672025557 220.06332200635018,106.79668752891911 219.9711996015738,106.8433317847103 219.86586132448156,106.93972991277396 219.71621100451515,107.05167612607045 219.60426479121864,107.12008770079838 219.475604386254,107.16362233936694 219.33683772596444,107.17606080751614 219.25715378942994,107.23825314849384 219.15686863997772,107.36263782980052 219.02393251163238,107.50257059638638 218.91781683018814,107.64872259718585 218.77866146776896,107.74201110825854 218.50307165793083,107.81664191738544 218.37246774231787,107.81664191738544 218.10853899623064,108.00010932253986 217.9584999742272,108.12138438704092 217.84033452676343,108.27686523890596 217.64792697267313,108.45100379285579 217.48583818455748,108.57538847430149 217.14844473601033,108.88635017803156 216.8297089896407,108.90811749724634 216.54595643503333,108.88635017803156 216.1922374969933,108.82415783723921 215.95823881493715,108.78373281593964 215.6255097919923,108.76818473066048 215.19094081098316,108.65623851736399 214.93828442670247,108.55051153814209 214.35523123220858,108.42612685651105 213.5879332282546,108.27997485571157 213.1650253111817,108.20223442977905 213.04996948080156,108.21467289806726 212.9302492248655,108.23333060033741 212.76466211762923,108.30796140913996 212.58585913798444,108.40124992021265 212.39384028597746,108.49764804836897 212.2298079872135,108.60959426180447 212.1870507529506,108.62514234708365 212.06966270983884,108.74019817723209 211.94683283686547,108.89567902909712 211.73460147402335,109.02006371082085 211.41664313195935,109.05115988096217 210.9921804063678,109.06981758332499 210.6773316813411,108.98274830637324 209.73200810200163,109.20664073282721 209.55009550531955,109.17243494560225 209.48401614332323,109.12579068990372 209.40938533438168,109.06670796638036 209.34563818516335,109.0231733276728 209.2577915038596,108.96098098701945 209.13029720528394,108.90500788044072 209.0618856304633,108.87702132715135 208.95304903420413,108.84281553960203 208.8620927358631,108.8334866885828 208.81311626747924,108.83037707131382 208.76180758641013,108.83037707131382 208.68795418177424,108.83659630552742 208.6078815430174,108.85525400779757 208.5363603511595,108.88013094395697 208.50448677652716,108.89878864636611 208.4096434569358,108.95476175308387 208.32957081817898,109.00762524253263 208.22928566872605,109.08225605152053 208.10256877445602,109.17554456268589 208.02016392301388,109.25639460547036 207.97429707166737,109.30925809519715 207.93698166721975,109.36834081876685 207.9315398374045,109.44297162789375 207.98595813555724,109.5424793729947 207.88800519892862,109.6357678842064 207.60969447413652,109.62332941591819 207.54050549501025,109.62643903304816 207.1448067269674,109.58290439447961 206.74288872489626,109.57357554327504 206.48090348950367,109.56113707526485 206.25156923304908,109.56735630920043 205.940607529319,109.62021979892722 205.5223640377557,109.72594677833446 204.8219228001037,109.84722184265019 204.15413254134336,109.99026422622701 203.5135514316594,110.183060482725 203.0867564933362,110.36341827074943 201.60113695371942,110.76455886874659 200.82140048161625,110.88583393320131 199.18885153703334,110.93247818876083 199.09323081318266,110.87961469912672 199.02637404683438,110.79876465611056 198.94085957835495,110.70547614489887 198.85923213107944,110.61529725095615 198.711525321854,110.50646065446527 197.56796365638664,110.16751239744582 196.63741075797438,109.69796022485974 196.0263710101911,109.2408465203302 193.87140640329534,107.34708974452134 192.7978111211209,106.59767203862452 192.70918703560417,106.52615084690562 192.61123409892917,106.38932769731072 192.60423746054892,106.2120795260919 192.58713456684376,106.14677756816957 192.5202778005418,106.05037944015226 192.40988639571762,105.92599475852121 192.32126231015457,105.8420350985141 191.5656253701368,105.36004445791782 190.91338319651663,104.72568258216945 189.1160245490031,103.37299917089727 189.07482212325888,103.30458759603032 188.04709369243096,102.33749669747611 186.9633921548853,101.65338094936261 186.42776062025658,100.77024971081553 185.88746466002556,100.11101089872241 184.77111214358825,99.01953531867618 183.5093850307498,97.85964816394834 183.1152410712256,97.5984403328614 182.4000291526464,96.63134943412184 182.34094642893768,96.00631640971707 182.2359968539751,94.63808491330472 176.0260916304391,94.85575810586944 175.28289315852425,94.62564644501651 173.58115523490773,93.16412643743881 172.9118101675824,93.30094958721905 172.38706229253788,93.64300746118312 171.52803058602987,94.42041172050833 169.8325118963953,95.01123895773448 168.51869869818205,95.52743538597275 165.31035131990063,97.08846313869773 163.90791403607795,96.79615913705246 162.44172960303698,96.49141666739698 160.80373882859246,96.16490687852674 160.07919805890137,96.03741258009008 158.8975435847271,95.60517581190527 158.68298000915334,95.58962772662609 157.91801421797734,95.60517581190527 156.85452519126682,95.60517581190527 155.09603675671954,95.86016440887126 153.05457317168523,95.78864321705967 152.13568133711652,95.65492968454842 150.8024330323738,94.64430414742566 149.31992310988701,94.29602703920163 149.28105289692076,94.32090397550004 147.28856578027026,93.69898056803989 146.82911986300908,93.66788439766688 143.9231827416515,93.77361137688877 143.48939116494805,93.65544592933233 142.50675218111465,92.33074907153487 141.54899013367233,89.78397271784651 141.35619387731336,89.14339160830157 141.45259200556237,88.23538343340974 140.78791136379297,86.77386342583203 140.61532761817645,85.97158223034744 140.55702229872705,85.07601252360482 140.14266582850672,84.02185234795985 141.3359813666636,82.13431480636461 141.47746894181444,81.67409148470509 141.46192085662793,80.09129641276532 141.5723122614521,78.54892636212512 141.3554164731467,76.56810030931818 141.22325774896876,76.15763086044082 140.94883404542696,74.87335902408194 139.67000403888335,74.18924327596844 138.15173352042123,73.38696208029849 136.59537019320587,71.96275747721474 136.82237223692883,71.51497262370441 136.58681874639962,71.45278028305107 136.43755712860917,71.23821670761633 135.50156240038166,71.02676274889453 134.4404055863564,71.22577823932811 134.383655075472,71.59271304963693 133.98173707335454,72.20841722302248 133.93353800932272,72.30170573423419 133.08772217513058,74.01821433882422 132.57774498101324,75.13456685516886 131.91461914780885,75.88709417833466 131.6969459551978,76.05190388135794 131.91695136058684,77.59116431472916 131.33778518738956,79.31700177052376 130.80915029104844,80.2094618599974 130.6039155666329,80.46756007423238 129.83817237115124,79.96380211418965 129.24889994258277,79.36364602608327 129.0125690477479,79.36986526015788 127.90476797820949,80.56706781951867 126.44324797067813,81.73006459142283 125.49792439133869,82.33954953073379 124.6000224718181,82.7406901285456 122.09833556535594,83.63315021829725 119.4753735943464,84.35147175377472 118.64044141983113,84.56603532948749 118.43054226985967,85.29990495024413 117.97187375681146,86.96355006506104 117.89646554370326,87.3771291312074 118.12035797038892,87.7565024095264 118.39555907819003,88.02081985788232 118.33803116295364,88.2447122844753 118.14212528960368,88.95059535194258 117.7106659256782,89.8772612290582 117.20613056142248,90.69820012695196 116.7497942611986,91.44139859891318 116.72491732485385,91.56578328021986 116.76067792078281,91.79900455801743 116.40073974880792,92.26544711361254 115.34891178584826,93.37869001315157 114.49843152619283,94.3115751243418 114.1563736520434,94.68161955159525 112.36756645138247,95.50255844948899 111.60415546867878,95.73888934455553 110.11853592910833,96.82725530761081 108.51008651665718,97.71038654615789 108.63291638958422,98.13640408026811 108.16491902542413,98.64949089142273 107.86717319410258,98.65571012535833 107.20871178645413,99.12526229803709 106.71506008182897,99.56993753446376 106.43674935699055,99.64145872613634 105.97186160986774,99.6570068112765 105.20456360591378,99.55127983205462 104.44737185737738,99.42067591667333 103.42974968187436,99.16257770239201 102.66867091204132,99.47664902325207 102.11049465379949,99.55438944918458 102.4331174214658,99.03508340381634 101.90603733359697,99.04752187210455 101.54998618282603,99.17190655359659 100.6808482209468,99.24031812832453 99.60647553451304,99.22477004332337 99.15558106410442,99.355373958751 98.69458033837093,99.66322604549012 98.31054263421794,99.42378553347895 97.88763471719136,99.23720851151892 97.78113033366381,99.20922195809054 96.93842411650897,98.6650389765629 96.78294326464393,98.3758445921866 96.60414028499913,98.20170603791242 96.42766951817865,98.06177327118753 96.1307010910701,97.93427897261186 96.00864862235603,97.75081156745746 95.86405143016788,97.64197497124461 95.64637823755683,97.41808254451261 95.00501972361354,96.9267630527581 94.93894036152456,96.7401860303347 94.64819116853694,96.69976100903514 94.452285295187,96.57848594453408 93.84202295166305,96.39190892211067 93.46031746033438,96.9454207548429 93.18511635253326,96.75573411561388 93.12059179900926,96.48519743332238 92.93945660654016,96.12448185694915 92.67747137114756,95.97832985628868 91.99724264423803,95.74821819543575 91.62175638698395,95.60517581190527 91.32478795992172,95.49322959856244 90.91898293655397,95.49944883268337 90.77827276566245,94.57278295556775 90.1944421668629,94.77490806280694 89.43025377999255,93.98506533547156 89.47612063129274,93.6523363123877 89.2001421192323,93.13303026715847 88.75857649988926,93.04596099020672 88.75235726581465,92.7163415840675 87.80858849499387,92.986878266359 87.3258204500456,92.43958566784039 86.64170470179309,92.03844506988958 86.77153121310039,91.45072745007143 86.34084925343423,91.52224864192934 85.90006103839684,91.26104081056438 85.4647146531284,91.32012353441212 84.77437967084762,91.0184906818866 84.02884898615477,90.73240591431593 83.10917974737306,91.15220421453688 82.56110974454879,91.74614106856866 82.15763693395901,93.01175520284275 81.63133425048854,93.40045733250535 80.83294007606888,93.5341708650166 77.93399959304523,92.91846669163105 76.98167937537187,92.59506651970544 76.24003571197562,91.85186804792956 76.554107032743,91.46938515220255 75.87387830583346,91.47871400322178 74.54140740535007,91.425850513634 71.54762360273509,90.72618668024133 70.662937555623,91.39164472627003 70.03324010552326,91.8021141752864 68.75829712027628,90.9780656604017 68.27630647944832,90.58625391365547 65.70154357256327,88.88218377721464 61.32631240108107,86.11462461387792 60.513924950132576,85.67927822870216 59.74740435048427,85.2408222263964 59.299619497066615,84.99205286359769 58.806745196608105,84.58158341458132 58.65515136608603,84.45408911614466 58.089201065250954,84.33903328576453 57.95859714973066,84.31726596641074 57.777461957307885,84.2675120939066 57.57922387117996,84.17733319982489 57.40974974260073,84.06538698648205 57.25971072064364,83.93789268776737 57.038150506643284,83.75753489960394 56.93320093163439,83.67668485681946 56.78704893088125,83.63625983510286 56.65644501536095,83.65802715445665 56.49008050381902,83.73576758038917 56.37036024788294,83.80417915525612 56.2024409278687,83.91612536873795 56.06561777822747,84.00319464555069 55.8494993941814,84.06849660333401 55.572743477815294,84.08093507148321 55.20736347593245,83.9720984753167 54.547347259811694,84.57847379763669 54.33511589696958,84.81480469237887 53.53361210565164,85.30612418431873 53.03218635838689,85.43983771683 52.15993877937768,85.42428963155082 51.7346986495268,85.48337235539854 50.61679132461717,85.13509524717452 50.462087877011456,85.12887601309991 50.27551085481974,85.20972605611607 49.99720012998132,85.36831652497207 49.66991293680542,85.56422239827569 49.47789408470576,85.59531856869503 49.13816842342698,85.65129167527377 48.788336506730644,85.85030716584637 48.476597398694906,86.07108997549473 48.332777610719745,86.33851704065626 48.11510441815503,86.43802478594256 46.49654875019363,86.84849423481992 45.55200257511352,86.68057491475935 45.220050956381655,86.6650268296655 44.83134882671906,86.7894115109722 44.06716043980239,86.92001542663151 41.972833365226656,86.83916538361535 41.6020115334822,87.04129049099356 41.28094357438089,86.85471346889453 41.39755421327967,86.76142495768282 41.42320855388374,86.68990376582491 41.43176000068998,86.56240946724924 41.46441097962797,86.42247670066338 41.50872302236317,86.3012016361623 41.54992544810741,86.22346121022979 41.6719779168678,86.15815925258549 42.02569685486077,86.08663806072757 42.471149495407765,86.00889763479505 42.92670839137233,85.99645916650684 43.50121013901365,85.8347590805672 43.55951545846304,85.73836095254988 43.60615971406889,85.61397627105785 43.59994047999429,85.50203005748334 43.66368762925895,85.33722035455273 43.765527587184216,85.21283567310704 43.925672864605204,85.08845099180036 44.306600951674554,84.80858545816525 45.30945244625039,84.27684094492584 44.88654452913115,83.67668485681946 44.88498972065884,83.57717711153316 44.937853210339284,83.48077898323783 45.07545376414717,83.34084621665197 45.22393797767828,83.1946942159915 45.28457550990565,83.00811719356811 45.185067764712024,82.79355361813336 45.03736095548658,82.58520927668054 44.96350755085068,82.45771497810487 44.87177384820397,82.25248025359669 44.99849074252032,82.00682050778894 43.14438158398339,80.48310815951156 42.54189328300636,79.62485385717021 43.293643201773826,79.24237096158221 43.45067886220385,79.07445164156796 43.59994047999429,78.847449597845 43.67301648032452,78.62977640532662 43.65746839518435,78.41210321248388 44.75516320930519,77.59427393172011 45.232489424577196,77.37038150512713 46.00134223700348,76.71736192710863 46.443685260605854,76.30689247823126 46.314636153511536,76.0425750301997 46.79351717730219,75.64454404933252 47.56470220255279,75.15633417438363 47.90287305531291,75.01640140793678 48.212279950570675,74.88579749237014 48.70515425093651,74.70854932115132 49.10318523175735,74.4939857456239 49.006787103554686,74.3353952766289 48.849751443217336,74.17369519068926 48.79066871946228,74.04931050938256 48.768901400247515,73.95602199817087 48.71215088927044,73.88450080617395 48.53956714374658,73.79743152931488 48.44316901554392,73.73212957157789 48.11976884366464,73.65749876245098 47.07182790214061,73.11642539819233 47.005748540051634,72.19908837195692 46.28820440874082,71.99385364758774 46.25399862128417,71.69844002913685 46.055760535156246,71.48387645360943 45.61652712863751,71.15736666460018 44.948736869877166,71.16669551580475 44.109140269805955,71.07340700459305 43.786517502185994,71.44656104897646 43.27109847825339,71.90678437063599 43.094627711432906,71.98141517929953 42.94225647660517,72.00007288170868 42.818649199372466,72.01251134985789 42.538783665969056,72.03427866907265 42.35609366507397,72.05604598842643 42.19206136631002,72.10579986106958 42.04590936555688,72.13067679708996 41.78547893872928,72.15866335051835 41.21175459534729,72.17110181880656 40.35350029305227,72.13067679708996 39.99900395075364,72.06537483944567 39.76811488582673,72.5722424166647 39.68881965128289,72.58779050161952 39.607192204053746,72.59090011861048 39.5255647568246,72.58157126754492 39.457153182096654,72.5722424166647 39.367751692181585,72.53803662911538 39.248031436245505,72.42609041567988 39.10032462702005,72.13067679708996 39.06845105243406,71.84770164678827 39.049793350117575,71.25065517581187 39.05290296715488,70.94902232296201 38.564693092298654,70.98633772745595 38.41698628307321,71.00810504667072 38.09436351540691,71.0298723660245 37.92411198266103,70.99566657866053 37.56106419355616,70.80597993943152 36.89249653049016,70.47014129921769 36.242586569694296,70.17161806363681 35.52970686389309,69.69273703989249 34.69866171072079,69.69273703989249 34.42734762416996,69.5621331245112 34.23610617637596,69.45018691116837 34.033981068997754,69.2915964422197 33.775105450642464,69.1920886969334 33.55354523668844,69.16721176058866 33.26979268208108,69.13611559035466 32.80801455199558,69.09569056891608 32.38121961362605,69.09258095164711 31.84869769598829,69.20763678221257 31.53073935397062,69.25428103758674 31.154475692457225,69.33824069759386 30.374739220307717,69.59011967780057 29.601999386538473,70.15606997868198 28.58981904089707,70.87439151415946 28.293628018094168,70.85884342888028 27.98422112288274,70.82774725859994 27.680256057486588,70.78110300294776 27.286889502314377,70.85573381207466 26.943276819692638,70.95835117402757 26.31746639088952,71.14803781339559 26.090464347166563,71.23821670761633 25.470873152484383,71.55539764546734 25.08294842708111,71.96586709415936 24.768099702054403,72.1897595209377 23.965041102171476,72.54425586323632 23.868642974015152,72.5722424166647 23.75669676071866,72.2830480321494 23.591109653482395,71.93477092392537 23.559236078896397,71.81971509335989 23.54057837657992,71.72953619941718 23.51803365305949,71.58649381556233 23.526585099958403,71.47454760226584 23.549129823478836,71.36882062304394 23.616763994040127,71.25065517581187 23.688285185898046,71.10450317482704 23.790125143823307,70.97078964217677 23.933167527539144,70.81841840758072 24.042781528103998,70.68470487493045 24.177272465013594,70.50123746977604 24.29388310391237,70.36752393712577 24.37240093405788,70.22759117049357 24.506114466661813,70.09076802075967 24.564419786111202,69.99126027561238 24.61650587148599,69.8575467429621 24.658485701489553,69.75181976374022 24.70746216982704,69.55591389025125 24.73078429765313,69.42530997473096 24.738558340200047,69.3164733783791 24.701242935752436,69.12056750507548 24.63283136093182,69.00551167464901 24.612618850189367,68.94642895112565 24.555868339304965,68.83137312056017 24.52477216888562,68.76607116277685 24.447809147212425,68.65412494948036 24.414380764154114,68.58882299183605 24.3133182103955,68.45510945904678 24.20759123108094,68.35249209695486 24.122854166907167,68.29029975630152 24.01868199611125,68.20944971310001 23.834437186651183,68.12238043624095 23.646305355894484,68.04464001030843 23.415416290828563,67.96068035016229 23.201630119514135,67.88915915844338 22.90310688393326,67.82696681751202 22.71031062766695,67.80208988135263 22.456099434821272,67.77099371079427 22.220545944292073,67.71813022129916 22.03085930497039,67.69014366787079 21.800747644210134,67.64660902948758 21.496005174554654,67.54399166707131 21.34130172694894,67.4538127731286 21.22935551365245,67.3791819641407 21.141508832302367,67.27345498505782 21.09330976827054,67.18016647389247 21.072319853222425,67.07754911147619 21.09641938530784,66.94383557896494 21.15705691748887,66.82877974853847 21.293880067176442,66.63287387523485 21.600177345304232,66.38410451215812 21.866827006252773,66.34678910798853 22.236871433737903,66.37788527808351 22.594477392981158,66.44318723600584 23.057032927325984,66.23484289450668 23.642418334597856,65.96741582920615 23.913732421056014,65.63779642339128 24.192043145894434,65.29884816637183 24.45169616850905,64.86661139800167 24.693468893159185,64.19493411789837 24.88004591544357,63.60099726386659 24.85905600039545,63.367775986069034 24.782092978722257,63.14388355947605 24.39028123202236,62.929319983763286 23.89896174017517,62.72719487652408 23.128554119137565,62.195450363006636 22.22831998683899,61.900036744555734 21.230132917911774,61.86894057399738 20.26692904056152,61.94357138312429 19.281957843996498,61.906255978630334 18.754877756220353,61.60773274291045 18.725336394365993,61.48645767840939 18.770425841360517,61.28744218825382 18.91035860808539,61.11330363402596 19.053400991801226,60.86764388821821 19.507405079200804,60.478941758555614 20.182191976295073,60.17730890584477 21.27677717342495,59.8197029464625 22.534617265059453,59.337712305866226 23.677401526221153,59.11381987899522 24.15783735853046,59.219546858217115 24.590074126668934,59.30972575229884 24.89481659632441,59.53672779602179 24.931354596512694,59.769949073819355 25.046410426892823,60.566011035507366 24.971779617997605,60.765026525801936 25.267970640800506,61.17860559194829 25.509743365450642,61.18482482588388 25.987069580676312,61.069768995457416 26.416974136083144,60.80856116437049 26.98059222409391,60.07469154347483 27.05522303298913,59.89744337239502 26.86164937241716,59.59581051986952 26.422415965944758,59.281739199009465 26.03371383628216,58.62561000418534 25.397797152107813,58.20892132109436 24.81552136191958,58.06587893737852 24.384061997994095,57.8171095744408 24.415158168320765,57.611874850071615 24.566751998889178,57.440845913112746 25.243093704548436,57.04592454937555 26.041487878829077,56.489303099513364 26.934725372793725,55.79585850019529 27.237913033976888,55.34185441293472 27.27211882134086,54.943823431928536 27.2208101402254,53.80570359636912 27.433041503067514,53.36724759406337 27.745558015269904,52.91946274069206 27.49367903529488,51.96481031047241 27.313321247131434,50.817361623569404 27.031123500996387,49.27810119019819 26.96815375594471,48.22394101450689 27.0295686924314,46.89613453957946 27.449366992513344,45.789110874254035 27.14928894836748,44.62611410225721 26.88497150024325,44.20631580217527 26.494714562015666,43.671461671713196 25.902332516409867,43.310746095478976 25.27030285357848,43.124169073194594 24.908809873038603,43.080634434811394 24.460247615361627,43.065086349671226 24.026456038658168,43.06197673240224 23.626870249411354,43.09618252004423 23.12622190635959,43.17703256282871 22.54705573316232,43.24233452075104 21.672475941421474,43.11484022217537 21.583851855858402,43.05886711559663 21.45169313177312,42.897167029656984 21.3646238547287,42.704370773297995 21.267448322313047,42.54888992143296 21.095641981002178,42.25347630298206 21.024120789144263,42.010926173840915 21.017124150810336,41.98915885462615 20.992247214511927,41.451195107173106 21.108857853410708,41.149562254647606 21.79763802717283,40.49343305982348 21.526323940668338,39.18739390406448 21.472683046821235,38.57479934766988 21.489785940480054,37.816052790753844 21.736223090686142,37.287417894181026 21.864494793521136,36.82719457266051 22.009869390014945,36.49446554990101 22.11637377349616,36.136859590333394 22.14358292261888,35.773034397154554 22.096161262753707,35.52737465116145 21.937570793851368,35.188426394002995 21.55508789826337,34.70643575345306 21.180379045268626,34.37681634731383 20.75125189412112,34.04719694149895 19.70875278236603,33.44704085325357 19.202662609545328,33.27601191610935 18.802299415992852,33.2386965116154 18.52165647842279,33.22003880953061 18.32341839224853,33.19516187318587 18.059100944170638,33.18894263897225 17.839872942948258,33.216929192539645 17.58177472889863,33.266683064904775 17.34466642975811,33.328875405697126 17.015047023850563,33.39106774667483 16.52761455320733,33.537219747196275 15.894030081857293,33.65538519456737 15.054433481786083,33.56520630048565 13.80048041149454,33.93836034500808 12.738546193256322,34.17158162280564 11.682053804833382,34.3799259644438 11.432507037589994,34.39547404972298 10.936523120140519,34.3737067303692 10.331702606385516,34.31151438966952 9.680237837071003,34.215116261374185 8.678163746847162,33.55276783247545 6.956213312395516,32.73493855166535 6.045872924725711,32.06948050582199 4.0106285738586855,29.998475558933333 3.0031126537732318,29.109125086311646 2.2163795432897966,28.76084797808762 0,28.499640146861683 1.0246188137442713,26.612102605266443 1.7926942219575648,25.781834856168125 3.1632579311478852,24.92669017091041 3.6965572531376436,24.796086255529122 4.494951427371946,24.861388213312438 8.312783744917983,25.79738294130829 9.667021964662474,26.13011196439215 11.06868184427214,26.217181241529243 12.992757386102,26.039933070449436 14.087342583231875,25.756957920008727 16.146686466137982,25.03863638434591 17.12155140733178,24.621947701254932 18.65692481949904,23.555349057553435 19.980844273129847,22.358146498192635 21.111967470448008,21.027230406135224 22.038633347563643,19.677656611993022 22.464650881673847,19.083719757822234 23.347004716007948,18.60172911722596 24.328088891276344,18.129067327417232 25.426561109702845,17.768351751044005 26.692175243884265,17.656405537747514 27.840401334953917,17.62219975038354 29.088135171170855,17.77768060224858 31.173910798940355,18.175711583115753 32.2778248471358,18.209917370479726 33.32421098023385,17.926942220039017 34.43278945403158,17.49781506889151 35.37422601202805,16.866562810412123 35.5009429063444,16.776383916330403 35.965053249161535,16.393901020742405 36.82408495566954,15.688017953275127 38.11379862189004,14.279361435285198 39.121314541975494,12.892472236510038 40.08996024909469,11.682831209231718 40.89379625323694,10.345695883099706 41.53981919278252,9.070752897806386 42.04668676981621,8.442610256271628 42.631294772875094,7.826906082886072 43.31541052103493,7.292051952563011 45.121320615493694,6.343618756093599 46.22989908929142,5.97668394578478 46.26177266392376,5.967355094441193 47.24907607322042,5.734133816643634 48.451720462442836,5.488474070835883 50.607462473505265,5.382747091613993 52.92723678333165,5.388966325688595 55.04566338999281,5.603529901216012 57.3903146361176,5.786997306555769 58.13506791655114,5.852299264292749 59.521957115187284,5.939368541151823 60.64997069551448,5.995341647869574 62.10293925614694,6.262768713031105 64.01924075542988,6.691895864271286 64.06743981950804,6.710553566541428 66.90341055748003,7.67453484796566 70.39473308610948,9.002341323078442 71.61992219880598,9.425249240105012 72.84355650298384,9.851266774076208 74.29341544667167,10.317709329671326 75.90031005069685,10.479409415796315 77.53596861231706,10.383011287454643 80.10528968938684,9.935226434268678 82.17318501914552,9.54030507034613 84.0443970713876,9.279097239398212 85.39630307830778,9.512318517195771 87.24108338573281,10.211982350588448 90.08716037907601,11.670392740943504 91.86119689885611,12.653031724637877 93.0918278413679,13.035514620364886 94.28047895387613,13.30605130265639 95.45980121527245,13.579697601892523 96.9858457763278,13.57347836781792 99.2690820859659,13.362024409374142 100.72749247645997,13.430435983963074 100.75547902988835,13.433545601232058 102.01098690860587,13.725849602552985 103.57823389540546,13.921755475995608 104.73112441198474,13.868891986268821 106.1405583341413,13.551711048603153 106.65830957085188,13.39312057974715 108.15636757861787,12.401152744894535 109.672305884302,11.446500314350521 111.44945202107307,10.746836480957844 111.48365780857606,10.740617246883243 113.39995930772,10.367463202453486 115.16155735935088,10.100036137013934 116.37353059963887,10.000528391866647 118.38078839721652,9.94766490241788 119.0711233794973,9.86992447648536 119.47459619013341,9.68023783725635 120.2372297684851,9.244891451756219 120.74409734561145,8.697598853422965 121.47097032803417,7.519053996100621 121.96850905404864,6.340509138963624 122.29190922592792,5.793216540630371 122.55078484428321,5.314335516839713 123.09963225132046,4.782591003507616 124.11336740548052,4.275723426288577 125.43495464633335,3.6382519337345904 126.11207375620559,3.3459479320893064 127.28595418778664,2.8079841846362705 128.6300861521599,2.1798415431015123 130.1024898194145,1.6170008594890812 130.87600705739672,1.3526834111331671 132.00479804189058,1.0012966861035262 133.63812439073283,0.5348541305084086 134.9604890358913,0.21145395844377948 135.71534857169607,0.10261736227726276 136.17323968039227,0.06841157491329104 137.02371994014038,0 138.2535734783465,0.03731540435493559 138.40749952173923,0.07774042593251959 140.16132353073053,0.7991715786789751 141.61817911270595,1.623220093563683 143.21574486561923,2.683599503329587 143.8648774222021,3.178028612214075 144.4937974679962,3.7781847003204523 145.4764364517369,4.760823684153837 146.16677143401768,5.559995262832812Z"/></svg>