<svg xmlns="http://www.w3.org/2000/svg" width="256" height="256"><path d="M201.5335127634412,22.62056119997273 203.99750412106553,27.474636095039898 204.44095104172825,28.34722519727331 207.5897817969179,35.50436313169817 208.812240982706,40.01989252826593 210.43821302513592,42.208517652755994 214.1055905827845,46.49040297270345 216.63454929833918,48.14498449374371 223.15572236147074,52.341041377575976 230.2127271204042,56.08411484747279 230.1143820371927,56.36544138868049 229.74305484414737,56.53709826140824 228.66423908292876,57.099751343397315 227.98297587013647,57.38584613070849 226.15316129152438,58.53976177393643 225.1279883029666,59.03565940543211 224.60288516162692,59.46003334054408 222.08942324706422,61.76309638011493 221.39683544900237,62.69767268581458 220.97067342175367,63.72761392076006 220.8097451037002,63.994635722662586 215.76196019631783,72.31522579330392 214.31479739616165,74.3035845663138 214.08353744284176,74.88054238803436 213.90592026225374,75.60054760337498 213.71221024986747,76.29194333982105 213.5870437803256,76.99287556911355 213.34207511850786,77.77009974181692 213.265783175238,78.34705756332431 213.07326522446752,78.97646609601995 212.9260456149829,79.82044571900356 212.87121078070743,80.49276846975678 212.7824021904134,81.12217700245242 212.5606787301531,81.90416942175663 212.44743287675806,82.39529880707778 212.29842517492247,82.74814904495341 212.0308073423547,83.28696089450668 211.77212997203918,83.78285852642867 211.43477653501236,84.24537843306844 211.13318494649712,84.67928886088472 210.09072706445534,86.26234668511496 205.72360933905793,90.39641636455731 201.8899391862319,93.19060878930719 201.85358130698404,93.28597371855302 201.81245518134847,93.3384244298123 201.74987194650646,93.39087514078739 201.66761969509324,93.43855760537477 201.3535114596238,93.62928746372432 201.2575504996417,93.67696992831172 201.21344421989835,93.69604291421773 201.17649030991308,93.71511590005268 201.14251655389566,93.73418888567447 200.88264712182223,93.96306471569393 200.83734878046533,93.98690594812973 200.6764204624829,94.05842964493976 200.64900304534515,94.08227087716241 200.5822475949228,94.16809931349076 200.55483017778505,94.19670879245635 200.4475446325345,94.27300073565407 200.40403438352743,94.29207372156007 200.1513173212143,94.35406092545263 200.10601897985626,94.36836566497095 200.0648928542207,94.3874386508059 200.03151512893848,94.41127988302854 199.92482561449523,94.4923400725429 199.84734160946968,94.54479078394428 199.5451539901471,94.74505713521131 199.32760274546825,94.90717751473738 199.16727045829205,95.01207893668753 199.11899196289622,95.04068841572418 199.08263408364945,95.05976140134597 199.0438920811722,95.06929789426344 198.99144137019712,95.08360263378177 198.9550834908782,95.09790737280272 198.91634148847197,95.11221211232105 198.78640677240028,95.14082159128664 198.7452806466937,95.15035808420411 198.70892276751795,95.16466282329613 198.66481648770247,95.18850405573193 198.61355783834208,95.23618652031931 198.5414381105826,95.36016092817546 198.5152127551317,95.38877040714105 198.4627620440134,95.4316846249855 198.37872170017812,95.47936708964393 198.260111569517,95.53181780061901 193.17239259804268,99.15091686273071 190.65297037554868,104.76314294487946 189.79885822848496,107.28554532162335 188.29149631671504,111.92504912590516 187.62394181249272,113.46996097846548 187.52798085258166,113.59870363285144 187.29552883764708,113.90387140628177 186.60890134765975,114.58573064973932 185.6355830392697,115.66812259587303 185.3864421618006,115.8493159614472 184.7606098140911,116.24984866412338 184.64140365262264,116.34998183954373 184.34279221807307,116.54071169810643 184.25338759697172,116.59793065561131 184.3004740307518,116.6599178595749 184.68670199398068,116.61700364151731 185.05385697130356,116.73620980298578 185.1665067938191,116.79819700687834 185.5139927545008,116.9793903720262 185.73929239974836,117.03184108300127 186.10883150022846,117.10336478030867 186.47896663165912,117.14151075155227 186.87651918015646,117.20826620204566 187.2716876053534,117.30839937789234 187.64897510640222,117.4085325534548 188.0250705459063,117.51343397568915 188.41904690948743,117.59926241180435 188.7903741026038,117.66601786229775 189.20044329791324,117.72800506597714 189.56402209046314,117.7947605166837 189.93773340673783,117.82336999522298 190.35555100254274,117.83290648814045 190.75429561265477,117.84721122744561 190.81151457023068,117.85197947425961 190.8687335276645,117.86628421328057 190.9265485159778,117.88535719932868 191.08390064918615,117.94734440329229 191.31873678720797,118.09039179719656 191.37297559074605,118.11423302934814 191.42781042509372,118.1285377686533 191.48145319768238,118.13330601525415 191.53390390865744,118.1285377686533 191.6602624398862,118.1046965362175 191.92549614908248,118.02840459323295 192.3099360198183,117.93303966377397 192.6013950846087,117.93780791058796 192.85292008537823,117.97595388183156 192.9190795049233,117.98072212864557 192.98643098622293,117.98072212864557 193.05497452899624,117.97118563572809 193.31365189945387,117.89489369231721 193.69272749299466,117.83290648814045 194.07657133278104,117.78999227029601 194.4413421869456,117.74230980570862 194.81743762630867,117.7041638337545 195.2465798076651,117.68509084791954 195.29366624137413,117.68985909473355 195.39260735539406,117.72323681958946 195.72400048434633,117.91873492468196 195.89744544928297,118.03317283962063 195.93499539007448,118.06655056476076 195.968969146093,118.1046965362175 195.99877068646012,118.14284250817163 196.02380398036848,118.18575672622923 196.08877133836882,118.35741359867276 196.1686394665527,118.47185151375355 196.3516209244068,118.61966715404552 196.69016642297726,118.83423824454665 196.95361203982367,119.08218706040107 197.13778555929136,119.35874535529213 197.17771962345435,119.40165957334973 197.27248852182177,119.46841502377207 197.31361464759945,119.50179274869903 197.34997252670522,119.53993872065315 197.4161319463913,119.64007189628667 197.53533810785976,119.90709369776289 197.60745783547713,120.19318848557143 197.72368384290888,120.46021028704764 197.83752572711128,120.7558415675605 197.94004302597415,121.06100934070663 198.06640155713075,121.33756763538453 198.21123704338598,121.62843066929655 198.27978058615818,121.72379559875553 198.547398418656,121.98604915370196 198.58137217467453,122.00035389322028 198.68150535030804,122.06710934371367 199.02124291056424,122.2244614766389 199.15773396537458,122.25307095539134 199.30614563640282,122.2673756946965 199.36992093293057,122.2673756946965 199.49627946394503,122.25783920177902 199.8574741331945,122.12909654760622 199.92124942972336,122.10525531517042 200.05893254614728,122.07187759003031 200.1197276884962,122.06234109711284 200.17754267673735,122.06710934371367 200.22999338778348,122.08141408316094 200.28125203721603,122.10048706906694 200.34383527198585,122.11956005468875 200.40522644514212,122.14816953322803 200.5101278672355,122.2101567375469 200.78251394618982,122.44380081395404 200.98993266714498,122.6965178764093 201.01615802266804,122.72035910834774 201.27245126982524,122.84433351641705 201.33265038136682,122.86817474885285 201.4363597418444,122.88247948808696 201.86967413878227,122.86340650203884 201.93881371243398,122.84433351641705 202.0234500870766,122.79665105197176 202.18735855909577,122.63453067201938 202.41504232750054,122.40088659589644 202.7351108710434,122.21969323053543 202.78875364370418,122.20062024462942 210.31721877124545,127.35509466659713 220.30550304083067,128.74265438594801 222.60558592622272,129.05735865229582 225.57799156243902,130.22557903454472 227.09429393638902,130.60227050457195 227.35416336831923,130.56889277943182 227.51151550152866,130.58796576526677 227.62297326243174,130.70717192673524 227.77913333402537,130.86452406015783 227.9692671615676,131.03618093238822 228.09681775433884,131.09816813628078 230.86061260791428,132.46188662383534 233.29778257920822,133.4775231195467 238.81523976270532,136.3575439804118 239.27775966927402,136.60072454987852 241.54386879879075,140.02909375349859 242.4313586709224,140.92552408809675 244.85362787189067,142.28924257529604 244.8297866395981,143.30964731746616 245.58495767249974,144.10117622947467 245.63264013708712,144.04872551828646 245.67257420117906,144.0153477933595 245.71906460415178,143.99150656092368 245.76257485308776,143.9867383143939 245.8025089171797,143.99627480731138 245.84125091965694,144.0201160397472 245.8728405524461,144.04395727218298 245.9240992019486,144.10117622947467 245.95270868062997,144.1297857082982 245.97654991292367,144.16316343365145 245.99502686795128,144.22515063733084 246.00396733013358,144.2632966092139 245.9813181593824,144.334820306095 245.94138409529046,144.4111122492927 245.89370163077413,144.48263594610273 245.87105246002406,144.52078191805685 245.85257550499645,144.56369613611446 245.8376747348129,144.60661035417206 245.82515808792976,144.65906106514714 245.80370097879438,144.74965774807632 245.78999227029655,144.78780371931992 245.76019072992943,144.84979092363878 245.75125026774936,144.88316864856574 245.77985974657173,144.92131462051987 245.93244363318033,145.2217141471362 245.94496028013452,145.2646283651938 245.9699935740429,145.2932378441594 246.00277526851778,145.32661556951265 246.05880216440798,145.37429803395796 246.10529256730962,145.40290751249722 246.15655121681323,145.42674874493304 246.2674129469778,145.45535822389863 246.32403587360426,145.47443120980464 246.4015198786298,145.5221136739657 246.4414539427917,145.5697961388373 246.47006342147418,145.61747860321154 246.527282378908,145.77483073642097 246.5314545945594,145.82251320129257 246.52370619406395,145.87019566545362 246.50880542388037,145.9131098837244 246.49271259208214,145.9512558556785 250.05518872756738,148.57855965408834 252.66222747888284,152.33593786371662 253.83581213861098,153.84747199092368 254.49859839630463,155.78338005338478 255.79734952557465,157.03742887224624 255.80628998761372,157.12325730836145 256,159.0782383562312 252.8350764130121,161.73891988049166 252.0936140887493,162.9882004527523 249.05743315614734,166.11140188287095 247.2913938739209,167.78982463634702 246.38006276956548,168.71963269615634 244.74515026495436,170.2120938374574 242.49632602892274,171.89051659093346 240.67545191242078,172.6391312848844 239.08285759520203,173.37820948613103 235.82793335630544,175.4380919564483 231.54306788232017,178.5612933867801 226.69435726459125,181.11707348887728 226.3617720740942,181.2887303613208 226.035743222549,181.4699237264687 225.7132905557779,181.6415805989122 225.38666567342423,181.8132374717821 225.0445439898676,181.95151661915656 224.67798504335207,182.05641804089356 224.31083006602918,182.1422464772219 223.9544036433095,182.2328431601511 223.8304292353823,182.28529387112619 223.75413729197143,182.32343984258293 223.45671791910758,182.51416970114565 223.4281084404262,182.5427791796849 223.36075695912547,182.6429123555316 223.27075630735888,182.92423889652613 223.17956359376444,183.22463842335563 223.10684783533972,183.52026970386848 223.02817176862843,183.8254374772988 222.9345949318757,184.10199577169251 222.7879713533405,184.3690175736661 222.63538746658983,184.6312711287546 222.48041945675186,184.90306117704483 222.3218752619988,185.17008297880525 222.18836436108305,185.3798858229187 222.15081442022048,185.44187302688232 221.95710440783424,185.71366307488833 221.0320645948389,186.7054583381639 221.00345511608646,186.72453132399886 220.30550304083067,187.51129198990392 220.0617264405555,187.76400905228812 219.86444024325522,187.9881166357778 219.60814699609801,188.2503701910795 219.37092673484682,188.51739199262676 219.20046192387585,188.79395028702044 219.03178520539797,189.16587351094418 218.96562578578298,189.30892090484843 218.95728135448016,189.37567635534185 218.67476275187096,190.03369436657675 218.4947614479825,190.31025266097043 218.25694515585292,190.56296972321255 217.97085036839962,190.7823090605277 217.4284623337181,191.1399275449331 217.0809763730375,191.37833986787004 216.7394507203593,191.77410432373222 216.49984633587871,191.96483418250807 216.13567151252147,192.21278299814932 216.01467725863097,192.47026830670808 215.876994142136,192.58947446817655 215.83109976996954,192.6133157008255 215.49732251792886,192.78020432688135 215.19573092934257,192.99000717085272 215.13851197190877,193.04722612842863 215.1444722799822,193.17596878281458 215.10096203097515,193.29517494428305 215.0634120901126,193.40484461283404 214.61221676902548,193.86259627308613 214.31837358093463,194.13915456726667 213.89101949207017,194.44909058743994 212.11842387110397,195.22631476021436 211.10099928297169,195.53148253364472 209.53463032120493,195.99877068653007 204.15128006935987,197.52937779957207 187.59056408728156,202.42636691290997 183.94941188522714,203.1797498532486 180.30706762155802,203.83299961809584 177.20532330014842,204.41472568620406 175.4380919564494,204.4004209464726 173.0521806345869,204.24306881376052 171.11925272637566,203.77578066059095 169.59937416765266,203.18451809956525 168.59565828808815,202.58371904590626 167.48704098650242,202.18318634344325 166.3068999878935,201.3439749665631 164.16238114307572,199.93257401498957 162.4994551906605,199.0027659552513 160.7059984913685,198.3447479440164 159.31486258703143,197.80593609446314 158.64611602126436,197.49600007421878 158.61095020356012,197.53891429270269 158.3695577265154,197.77255836910984 158.19134451511894,197.88699628397748 158.15081442022077,197.9060692700256 157.99107816385302,197.94898348787004 157.95233616137577,197.9537517342577 157.55478361287953,197.9585199810717 157.3574974156481,197.96328822717518 157.31756335155617,197.97282472009266 156.95636868237776,198.11587211399694 156.63749220037855,198.31137021866311 156.34245695074407,198.52594130937743 156.03371299254073,198.7262076608576 155.7124523873832,198.88355979378284 155.35244977981947,199.01707069476961 154.9936392338005,199.1124356238023 154.9537051696364,199.1172038706163 154.55734468282478,199.1172038706163 154.3689989477046,199.0981308847103 154.33264106838567,199.0885943917928 154.1889976438872,199.03137543428795 153.84627992966648,198.86448680794788 153.56137720368466,198.64037922474242 153.30746807975683,198.42103988742727 152.99633999832412,198.2112370430296 152.68401985534777,198.02050718496426 152.37110368149303,197.8583868054382 152.0575914767599,197.7010346720156 151.74527133378467,197.53891429270269 151.42997103662842,197.37202566664683 151.11765089358101,197.18129580829728 150.80652281221936,196.9762612102873 150.49777885394607,196.766458366387 150.3785726924765,196.65202045102203 149.809959302414,196.6663251907535 149.34386321093018,196.69970291589362 148.91650912206572,196.80937258444462 148.56902316138513,196.89996926687644 148.13749685686926,197.10500386467325 147.72504353818834,197.4864635813013 147.34119969833094,198.0014341991293 147.191595965688,198.22077353616024 146.93887890337595,198.36382092985136 146.36490123583312,198.46872235201465 145.51794145867066,198.6451474708459 144.88495674120205,198.77389012523184 144.59766989206304,198.9598517371937 144.36164169235545,199.2268735391673 144.2263426991598,199.4557493691157 144.0201160397483,199.70369818504116 143.75547836128828,199.9278057684598 143.53792711660833,200.12330387333913 142.9204392002727,200.7956266238792 142.60633096480328,201.04357543973362 142.37805116559116,201.0960261507087 141.99420732559275,201.110330890227 141.8016893748911,201.2056958192597 141.7700997420309,201.44410814219663 141.79632509755396,201.75881240854443 141.86904085604974,202.04490719606878 141.91374316660043,202.28808776539339 141.92268362871056,202.7124617002922 141.8028814365058,202.93180103760736 141.42499790465075,203.4753811336904 141.0989690529623,203.847304357401 140.60307142125347,204.38611620716742 139.98379541249693,204.55777307989518 138.97411922478793,204.70558871990292 138.20762360654567,204.76757592379548 136.96013112684918,204.95353753575733 136.30151708466593,205.08704843674414 135.95403112398424,205.273010048706 135.7942948676165,205.46373990677134 135.6494593814323,205.60678730088878 135.55290239064283,205.86904085604834 135.51416038823663,206.19804986141713 135.4015105655779,206.70825223264427 135.30435754398107,207.19938161803648 135.1654823658703,207.48547640534767 134.89548041014422,207.77157119294304 134.51044450867212,208.10534844491264 134.41031133296755,208.20071337415848 134.23150209076485,208.52495413370798 134.1194482991277,209.09237546201368 133.970440597291,209.34986077099873 133.68076962485156,209.82191717034283 133.357720927272,210.0507930003623 132.84692252537963,210.19860864037005 132.01545954906598,210.34642428059095 131.40035575588868,210.4847034281786 131.09161179768535,210.65159205423444 130.55578010188455,210.8756996377241 130.5140579453706,210.89477262355908 130.03782933030405,211.02828352454586 129.79405273010104,211.03782001746333 129.61285936474002,211.02351527773186 129.36908276446593,211.02351527773186 129.24570438741713,211.08550248162442 128.8231185450114,211.5098764165232 128.6931838289397,211.60047309945242 128.41543347271818,211.73875224654267 127.88198590014677,211.78166646460028 127.45820799619742,211.82934892947188 127.08926492638145,211.81027594356587 126.64462594410294,211.70537452140255 126.0718403383191,211.45265745916046 125.32680182914116,211.3048418187264 124.90063980189137,211.50033992360574 124.60977676783726,211.77212997189596 124.26944317691583,212.20604039971224 124.19195917189028,212.49213518702342 124.15798541587175,212.78776646753627 124.09063393471313,212.94988684706234 123.97559998889605,213.09293424075344 123.4993713738295,213.1358484590242 122.60830531678164,213.1167754734024 121.66180839479304,213.20737215583424 121.19094405692152,213.41240675391526 120.85597474326617,213.6031366119806 120.35232871099083,214.07996125785448 120.23073842636293,214.21824040515793 120.12464494258495,214.39943377051893 120.02689589025296,214.5234081783751 119.81828510768314,214.6616873256785 119.42192462080048,214.7761252410435 119.14238617215692,214.9144043881338 118.97847770013777,214.99069633154465 118.58092515156937,215.2386451471859 118.31092319584329,215.42937500589073 118.01946413105287,215.5628859064512 117.66601786229886,215.63917784986208 117.30601525473513,215.73454277889476 116.97223800262341,215.92050439085662 116.40720079726286,216.25904988964024 115.95838959926301,216.58805889522216 115.6562019800104,216.80739823211098 115.31467632747538,217.10302951262383 115.03334978626769,217.32236884993898 114.93321661063418,217.47972098286422 114.9123555325193,217.71813330580116 114.83963977388143,217.92316790381113 114.73116216694511,218.0709835441031 114.56129338685366,218.22356743071168 114.36460322050063,218.5144304646237 114.24718515138201,218.72900155512482 114.08864095663006,218.99125511049758 113.8633413115246,219.239203926352 113.70837330154563,219.45854326345398 113.51704741238875,219.6969555863909 113.11353455588903,219.86861245883446 112.74459148607306,220.12132952100552 112.03233467129894,220.77457928592378 111.1674939698452,221.55657170501485 110.57205919331018,222.03339635088872 109.92596179815108,222.26227218112135 109.40264674937555,222.25273568820387 108.80721197284053,222.12876128013457 108.23979064417956,221.87127597136265 107.81362861700083,221.6233271557214 107.49773228903834,221.57087644474632 107.19375657743583,221.666241373779 107.01256321186166,221.83789824622255 106.76223027277787,222.30041815279125 106.6048781396395,222.55313521503336 106.39149911061092,222.85353474186286 106.16977565035063,223.06333758604737 105.88248880128155,223.1920802404333 105.41639270979884,223.3351276343376 104.55512819326019,223.5353939857467 104.06638293116842,223.63075891485045 103.89770621269052,223.78334280167218 103.85777214859858,223.93592668799656 103.84406344002971,224.14572953218106 103.82141426935071,224.43659256609308 103.56988926865223,224.64162716388992 103.16399228892314,224.913417211967 102.74855881613448,225.12798830268127 102.46127196699545,225.21381673929383 102.34385389794902,225.20904849247984 102.15491213202039,225.1756707673397 101.96775845858815,225.08030583830705 101.59881538877107,224.98970915537785 101.27397859876949,225.00401389489616 100.45860845446727,225.15182953490392 100.04019482764188,225.17090252095204 99.7028413906861,225.1184518097638 99.39290537079704,225.0087821412128 98.9899885450336,224.8323570224526 98.65382716976357,224.7083826143833 98.27117539137872,224.72268735390162 97.97614014174427,224.9229537050976 97.73117147999761,225.1756707673397 97.5291170362375,225.49991152639186 97.44388463078754,225.87183475052873 97.43256004551908,226.3105134244485 97.44865287738838,226.69197314107655 97.60242882561165,226.9685314359676 97.75739683544961,227.2307849912693 97.77646982142667,227.39767361696988 97.65785969062344,227.55979399670912 97.57381934678817,227.68376840477845 97.49156709544599,227.82204755208187 97.34136733192466,228.036618642583 97.28116822038419,228.22258025454488 97.31752609963097,228.41807835942421 97.4391163843288,228.71847788604055 97.47249410961102,228.90920774481643 97.42421561414524,228.99026793433077 97.37414902647059,229.13331532823503 97.28772455926385,229.22391201088 97.17626679829083,229.333581679431 97.01533848037944,229.39080063679378 96.93666241381025,229.4194101155462 96.88003948704167,229.4289466087479 94.06915819961515,229.50523855215877 91.84655931903552,229.5290797840972 90.37138307086319,229.11901058871672 86.57645492051444,227.6694636652601 84.89445598219432,226.8731665068639 84.24657049475529,225.96719967934825 76.32949328068473,225.46176555514825 76.061875448188,225.44269256924224 67.78360356501008,224.26016744754608 64.76470752589212,223.82625701972978 60.48878251401809,223.28267692336252 49.95513005578565,223.17300725481152 48.80121441284191,223.2445309514084 47.72120658986652,223.91208545605815 40.59446622647401,224.5176527561048 39.58896225462957,225.44746081541678 37.13152723581495,227.7266826230492 30.718235748811242,233.86818406162058 30.68426199279384,233.90633003350365 27.921063170024638,235.83746984900864 25.50475427698769,237.9402665373835 24.03434627527411,239.42795943258108 23.817391061472545,239.53762910113207 23.763152258004393,239.56147033356788 21.79863471693295,240.53896085746723 16.955884407276336,242.1315551748281 16.85217504679877,242.13632342100263 16.834890153456893,241.96466654877224 16.752041871166362,241.6499622824244 16.73594903943806,241.58797507853188 16.63223967888944,241.25896607266574 16.53866284213669,241.1016139394563 16.463562960411554,240.98240777798785 16.27462119448403,240.72492246921593 16.235879192006777,240.69631299067666 16.19832925121526,240.66770351185318 16.061242165455468,240.5723385828205 16.014751762553818,240.53896085746723 15.963493113051321,240.51035137850164 15.91759874088596,240.49127839287985 15.703623681050056,240.40068170995065 15.662497555414486,240.38160872432886 15.590973858462352,240.35299924578956 15.06229453249179,240.1670376338277 14.791100515008916,240.12889166187358 14.224871248033681,239.18001061672666 14.347653594346205,238.0737774383703 14.444806616014061,236.78158264783895 14.478780371961523,236.58608454295958 14.465071663463702,236.4668783814911 14.38103131962843,236.40965942434153 14.237387895058923,236.32859923440085 14.118777764326742,236.27138027682494 14.041293759372238,236.23323430536817 13.968578000947522,236.1998565800149 13.901226519646784,236.1760153475791 13.832682976802413,236.1617106084871 13.652681672985024,236.09972340416823 13.5221509262481,236.05204093993612 13.379699563222227,235.99005373561724 13.191353828102043,235.87561582096276 13.047710403532536,235.7564096594943 12.967246244541318,235.69919070170522 12.918371718339246,235.6753494694826 12.740158506943883,235.60859401898918 12.61737616070241,235.56567980114474 12.503534276498911,235.53707032217915 12.352142451364012,235.50846084363988 12.104789666316936,235.49415610412157 11.72273391888154,235.4893878575207 11.475977164641806,235.46077837876828 11.218491855798858,235.413095914323 10.869813833574634,235.35587695703128 10.685044283298506,235.3463404641138 10.398949495703125,235.30819449215969 10.033582610802263,235.25097553458377 9.85775352263627,235.20806131673933 9.782653640911132,235.18422008430355 9.670003818323428,235.14130586603278 9.563910334757484,235.09362340165856 9.46258509736829,235.0554774299176 9.38867727732889,235.01733145824767 9.224768805309743,234.9267347753185 9.131191968556994,234.8742840643434 8.9327137097131,234.76461439579242 8.71754658819035,234.612030509397 8.44396844762021,234.34977695402424 8.210324371143118,234.1113646310873 8.122707842532625,234.03507268796065 8.033899252239724,233.9730854835707 7.943898600331029,233.92540301940966 7.905156597783834,233.89202529405637 7.794890898495441,233.8157333506455 7.654823658769988,233.7299049145303 7.315086098513795,233.56301628819023 7.266211572311723,233.53440680965096 7.017666725649962,233.38182292304236 6.928858135355951,233.33414045817076 6.779850433520363,233.2626167615739 6.655279994785812,233.19586131086734 6.263687754361887,232.93837600230862 5.565139648227703,233.06711865669456 5.277852799017636,233.06711865669456 5.027519860004901,233.0480456708596 4.620430818590075,232.9908267132837 4.25506393361816,232.93837600230862 4.080426907208956,232.895461784251 3.9439358521865633,232.8573158122969 3.8336701528271178,232.81916984084015 3.7764511953933044,232.81440159423929 3.666185495963917,232.77148737596855 3.5988340147342313,232.73334140472494 3.434925542715084,232.63320822887826 3.365189938398134,232.5616845319972 3.163731525374314,232.31850396253046 3.106512567940501,232.1659200757087 3.0838633971904392,232.0848598861233 2.975385790253021,231.79399685199814 2.931279510581849,231.7177049088004 2.7852519627119205,231.42684187467526 2.6362442608763326,231.21227078396095 2.595118135240763,231.16458831972884 2.4365739404166447,231.02630917221225 2.25538057498457,230.89756651782628 2.1916052786699907,230.868957039287 1.6641180141009568,230.69253192002947 1.4364342457672308,230.64008120926755 1.128882349178577,230.5542527729392 1.0227888654005861,230.50180206196413 0.6890116132888691,230.36829116097732 0.6151037931784173,230.34921817535553 0.5990109613801738,230.2157072741556 0.5912625608847233,230.1537200704762 0.5715935442424257,229.99159969095012 0.26284958603908737,228.7947698294514 2.6362442608763326,228.61357646430355 3.141678385644752,228.47052907018613 3.5326745951902825,228.21781200794402 3.99638656323158,227.80774281256353 4.309898767893657,227.38813712426557 4.526257951029983,226.99237266833237 4.463674716187984,226.1865390166634 4.320031291618477,225.55236223779323 3.600026076348916,224.4270560731756 2.886577200031173,223.3732736060075 2.137962506009179,221.63763189523974 2.7900202091706596,221.29431814985526 5.054937277071597,220.3883513229791 5.5752721719525224,220.0355010848903 5.657524423295825,220.0164280988422 5.7052068878821025,220.00212335953705 5.770174245882419,219.97828212759862 5.806532125130302,219.96397738786715 5.875075667974673,219.9401361556445 6.01871909254418,219.89245369127028 6.21898544381121,219.81139350125855 6.331635266398915,219.75894279028347 6.372761392105537,219.73986980466168 6.431172411225088,219.7112603258382 6.599849129702973,219.6063589034617 6.9074010262905166,219.40132430587806 7.197668029467352,219.18198496856292 7.253694925428586,219.14383899731934 7.3311789303120385,219.07708354682592 7.836017024131011,218.74330629464316 8.80099090121828,217.69429207379167 9.567486519531595,215.9967963342675 10.16888160414003,212.08206599185607 10.31848533678296,211.43835271992634 10.539016735428577,211.10457546767253 11.407433621726383,209.76469821255375 11.681011762296523,209.14005792667214 11.851476573196436,208.2770053177825 11.868761466609364,207.84309488975308 11.905119345857248,206.65103327506836 11.90750346915767,206.43646218435407 11.83478771059085,206.12652616482026 11.848496419230777,205.81659014478907 11.906311407471932,205.52572711109022 11.973662888701618,205.1681086266848 11.978431135160356,205.10135317597826 12.018961230058526,204.97737876819315 12.03266993862851,204.93923279666535 12.162604654629144,204.63406502330605 12.170949086002988,204.57684606573014 12.160220531469717,204.47671288988346 12.143531668794187,204.4194939325207 12.048762770426753,204.25737355278147 12.021345353360058,204.20969108840725 12.017173137708662,204.12863089839553 12.066047663910735,203.9379010403302 12.082736526445268,203.8854503293551 12.083928588059953,203.82823137156603 12.070219879491079,203.75670767496916 12.037438185228245,203.69472047057926 11.952205779708345,203.5850508022414 11.920020116040806,203.54213658397066 11.863397189414336,203.4753811336904 11.835979772205535,203.43723516180734 11.801409985379678,203.33710198617382 11.790085400039063,203.2751147822813 11.772204475819903,203.1511403746383 11.75611164402166,203.06531193809678 11.745979120295729,203.02239772025234 11.741210873838101,202.98425174858244 11.778760814770612,202.85074084738247 11.84492023431567,202.72199819299652 11.906311407471932,202.59802378514036 11.921212177655491,202.56464606028447 11.945053409949185,202.49789060979106 11.972470827156876,202.35007496928594 11.973662888701618,202.28331951900572 11.974854950315192,202.21179582198252 11.97604701200204,202.17364985052578 11.984987474041123,202.05921193537392 11.990947782185598,201.9972247314814 11.999888244224682,201.9543105134238 12.01121282963524,201.9113962953662 12.03505406185788,201.87325032341207 12.060087355765148,201.84940909147363 12.087504772904007,201.82556785903785 12.191214133452629,201.78742188708372 12.303863956040333,201.73497117610864 12.371215437200076,201.70159345096852 12.564925449586342,201.57761904318343 12.839695651770056,201.36781619878576 12.878437654247309,201.33443847364563 12.897510640082263,201.2915242553749 12.904663009770372,201.23430529822528 12.895126516923947,201.200927572872 12.834927405311317,201.1437086155803 12.56969369604397,200.94344226388694 12.514858861767364,200.80516311679668 12.499958091584915,200.7574806523514 12.472540674447167,200.65734747678894 12.451083565382842,200.56675079385974 12.443931195765787,200.52383657580214 12.433798672040966,200.45231287870791 12.446315318924103,200.37602093551018 12.474924797676536,200.26635126703025 12.479693044136384,200.22343704897264 12.487441444630726,200.17098633792654 12.489825567860095,200.12807211965577 12.537508032518536,199.9707199865174 12.551216741016358,199.91350102894148 12.560157203126492,199.85628207136554 12.64360151615442,199.71800292406212 12.672210994977906,199.67508870600452 12.702608566152367,199.63217448773378 12.831351220538314,199.46528586210422 12.932676457715463,199.33654320764722 13.103737299493769,199.05521666643955 13.261089432561098,198.792963111351 13.287314788155214,198.74528064647942 13.32009648248799,198.7023664284218 13.402348733972287,198.58792851348312 13.424997904580245,198.55931903451753 13.452415321789045,198.52594130937743 13.477448615697424,198.50210007736794 13.594866684673926,198.3590526835347 13.637184871994123,198.282760740337 13.649701518948312,198.2446147683829 13.657449919443762,198.20646879692612 13.66460228913187,198.15878633205455 13.69738398353459,198.05865315642103 13.73493392446932,197.96328822717518 13.7635434031507,197.91560576301413 13.783808450600342,197.87745979106 13.846391685371287,197.79163135473163 13.922683628711109,197.71057116493307 13.99122717155548,197.6438157147239 14.053810406397478,197.56275552471217 14.072287361425092,197.5150730602669 14.096128593647734,197.42447637762191 14.10745317905829,197.36725741983284 14.118777764326742,197.30527021615345 14.190897492015168,197.10500386467325 14.21116253953586,197.03348016786322 14.223679186418996,196.9762612102873 14.2314275869855,196.9333469922297 14.1962617693523,196.82367732389187 14.634940443556271,195.90817400367192 15.529582685306089,193.65279342868845 16.072566750794973,191.9123834712488 16.1834284810317,191.0731720944397 16.177468172887227,190.90151522199616 16.12501746191215,189.27077493289434 16.167335649162407,188.34096687358237 16.014751762553818,188.11685929016375 16.028460471051638,187.73063132693485 16.11965318464607,185.07471804927522 16.412304311051166,183.69669482291286 16.411112249365427,183.63947586533695 16.338396490940713,183.4535142533751 16.241243469272856,183.21510193043812 16.22336254512364,183.1531147265456 16.204885590024976,183.11973700140547 16.19475306644226,183.0100673326413 16.204885590024976,182.9099341570078 16.31217113541765,182.599998137474 16.339588552484347,182.53324268676744 16.412304311051166,182.35204932161957 16.43972172811786,182.28529387112619 16.46475502202624,182.21377017403194 16.478463730595113,182.1565512167402 16.47488754575106,182.09456401256347 16.455814559917215,182.02304031575343 16.413496372594796,181.92767538672075 16.369986123658805,181.7512502674632 16.387271017142787,181.56528865592767 16.448662190227996,181.37932704375265 16.093427829051954,181.12184173498073 14.733881557575103,180.25878912616218 13.43393836669038,179.68659955125563 12.577442096610472,179.50540618561038 10.896039189026645,179.0810322509958 9.64020227795631,178.87122940659813 8.712778341802663,178.78540097048293 8.297344869156095,178.75202324512966 7.8461495478558305,178.72818201269385 7.218529107795387,178.70910902707206 6.648723655905046,178.55175689386263 5.7999757862495365,178.0701640016721 5.205137040521869,177.7316185028885 4.550099183252625,177.30247632188622 3.324063812620459,175.75756446889957 0.6204680704444986,172.0192592453194 0.47384449190933237,171.8189928943366 0.15794816394683345,171.21342559407674 0,170.28361753426742 0.07748400495561594,169.3490412286388 0.37907559354078824,167.7373739255851 0.8040455591048328,166.36411894511306 1.891205751698393,163.04541940983086 2.6690259553512146,161.0475241439035 4.283673412441646,158.37253788033786 4.410031943527172,156.9754416680695 4.352812986093359,155.3923838436261 4.113804632349075,154.94416867678885 3.9636048688277503,154.57701369946597 3.896253387669117,154.02389711018122 3.8974454492127495,153.71872933675087 3.9177104966623895,153.27051416941626 4.01665161068122,152.95580990349478 4.058969798073579,152.62203265109883 4.098903862165517,152.29302364544586 4.201421160957349,151.7303705634568 4.342680462368539,150.93884165144826 4.438641422279605,150.4477122661271 4.542350782899279,150.09963027463917 4.635331588773633,149.80876724072715 4.868975665251836,149.37008856631002 6.49017946115198,145.20740940804419 8.347411456830748,141.42618996598011 8.944038294980443,139.5093548895671 9.271259208211394,138.70828948442792 9.342782905091367,138.49848664045658 9.40894232477853,138.24576957828552 9.441127988303965,137.9549065443735 9.44232004991865,137.41132644800624 9.425035156504611,137.02033023824754 9.322517857643946,136.94403829504984 9.109734859421618,136.8152956406639 8.769997299236476,136.64840701432382 8.658539538334509,136.54350559237366 8.477346172832492,136.3718487199301 8.314033731619578,136.10005867185305 8.09648248693962,135.6136975330617 7.9987334346065255,135.32760274525316 7.915289121507544,135.04150795787095 7.851513825121912,134.7554131703466 7.83005671612864,134.3310392354478 7.794890898495441,133.99249373687735 7.775221881853144,133.70639894956616 7.642307011744746,133.33924397195906 7.325218622238616,132.74798141100442 6.913957365172393,132.2616202724262 6.410311332968105,131.8610875699632 6.424020041608031,131.77525913363485 6.461569982400658,131.5368468106979 6.788790895630498,131.26028851623317 7.089786453408329,130.95988898897735 7.247734617355162,130.79776860945128 7.3526360394474155,130.61657524430342 7.543961928533259,130.44491837185987 7.754956834403504,129.99193495792443 8.07144919303124,129.42451362961873 8.372444750739128,129.0621268983993 8.635294336777104,128.77126386448728 8.80635517848436,128.49470557002255 8.898739953622425,128.19907428958075 8.939866079329047,127.92728424150368 8.941058140944842,127.68887191856673 8.929733555604226,127.38847239173724 8.970263650504616,127.08330461830691 9.141324492281814,126.83535580245248 9.298676625349142,126.57787049360954 9.482254114010587,126.33468992435597 9.828548013076494,126.17256954461674 10.4436518062538,125.90554774306948 10.76968065794112,125.84356053875061 11.097497601979413,125.78157333507122 11.733462473413702,125.81018281361048 12.67876733378762,126.01044916509068 13.380891624836911,126.33468992435597 14.0013596952803,126.66846717611242 14.978850219321757,127.19774253317453 15.38236307589253,127.32648518777364 15.70481574266474,127.35509466659713 15.971241513688877,127.20251077977538 16.468331206870293,126.80197807731237 17.46847090159076,126.16303305191242 18.314834648087952,125.70051314505949 18.705830857633483,125.51455153331078 19.09980722135672,125.08064110577871 19.89848850319658,123.94103020206909 20.69716978496428,123.02075863546143 21.18591504705606,122.7394320944669 21.683600771115874,122.93969844544972 22.323141827465268,123.94579844817255 23.356063216589565,125.82925579944545 23.772092720043474,126.32992167754196 24.293619676468033,126.36806764949608 24.815742663770983,126.11058234065314 25.804557773151945,125.4859420543452 26.575821637781896,125.37150413969073 27.03953360589425,125.4477960831016 27.502053512391914,125.78157333507122 27.57715339418699,126.55879750756142 27.5497359769793,127.47906907416908 27.353045810556324,128.21814727520254 26.85714817891854,128.96676196936664 26.861916425377277,129.62954822720238 27.230859495121084,129.839351071529 27.733313465640745,129.83458282499922 28.175568324688772,129.67246244547314 28.555835979844243,129.453123108158 28.856831537481078,129.22424727813853 28.949216312690197,129.14795533472767 29.445709975206373,128.58530225252542 29.921938590272912,127.99880793810055 30.099555770789884,127.8509922980928 30.32187526192858,127.72701789002349 30.60558592622354,127.66503068613093 30.947111578830707,127.71271315100253 31.286849139015846,127.77470035468193 31.643275561806576,127.84622405149196 31.99672183056059,127.92251599511599 32.34182366808286,127.99880793810055 32.6779850433529,128.09417286734637 33.20308818462151,128.28967097243887 33.72699926434649,128.49470557002255 34.207996125871766,128.67589893545463 34.69078107981907,128.85232405442795 34.93038546429965,128.93815249082735 35.17297000295903,129.02398092715572 35.32197770479462,129.08119988444741 35.45548860563931,129.1717965669503 35.54310513424758,129.30053922133624 35.56813842815596,129.44358661524052 35.57529079791512,129.66292595255567 35.53654879536682,129.88226528937344 35.39290537079731,130.258956759898 35.316613427528544,130.51167382206907 35.21946040586069,130.75962263792348 34.98283617541682,131.1220093687166 34.73190720545464,131.47009136020452 34.49945519059112,131.8181733519056 34.27296348387208,132.16148709657955 34.258062713688524,132.3712899409772 34.385613306388734,132.5810927853038 34.56561461027718,132.7622861507359 34.780781731726655,132.91487003734449 34.94409417293957,133.0102349665903 35.12051929184185,133.08652690978803 35.3040967805033,133.1389776207631 35.48946236165782,133.19142833173817 35.71655009918532,133.24387904271325 35.94304180604535,133.29632975411462 36.183242221333266,133.38215819022983 36.425826759921605,133.46798662662923 36.92172439177255,133.5252055841341 37.37530383601797,133.5252055841341 37.83186343444221,133.48705961246418 38.215707274370686,133.44414539419344 38.59895508356287,133.40599942266562 39.128230440411826,133.44891364051006 39.64916136602905,133.59672928101517 39.83929519357237,133.67778947052952 39.9877068645995,133.7874591390805 40.10572096445328,133.92573828638396 40.21419857146065,134.05924918715758 40.3268483939773,134.20706482759164 40.43890218575766,134.3548804678836 40.53307505331775,134.46931838275123 40.63022807498561,134.57898805130222 40.83287854941096,134.7840226488859 40.89903796909812,134.91276530327184 40.92049507809028,135.06534919009357 40.905594307906725,135.2465425554546 40.790560362160704,135.36574871692306 40.66062564616007,135.50879611061418 40.48896877357442,135.69475772257604 40.40314033738928,135.79965914495253 40.34532534900491,135.94747478503132 40.2881063915711,136.028534974972 40.23565568045392,136.19542360088573 40.25770882039664,136.36708047332928 40.33400076380751,136.49105488139858 40.455591048363246,136.59595630334874 40.606982873499256,136.6913212323814 40.76671912979595,136.7676131757923 41.00811160684066,136.86297810525127 41.23519934436705,136.90112407677907 41.43784981886344,136.89158758407476 41.62798364640565,136.87251459816875 41.73765331495554,136.83913687281546 41.83540236736079,136.77714966870977 42.017787794549655,136.66271175384213 42.155470910974685,136.56734682480948 42.27408104156476,136.45767715625848 42.36288963185877,136.3289345018725 42.44692997569405,136.20496009359005 42.578056753380416,136.05237620698145 42.70441528446594,135.8902558274554 42.78785959749387,135.71859895501186 42.84805870903545,135.53740558965083 42.923158590761695,135.30852975963137 42.96428471646831,135.0748856832242 42.95534425442813,134.75064492374577 42.939251422558826,134.4264041644805 42.938059360944145,134.29289326370684 42.941635545929195,134.15461411640342 43.0077949654032,133.89712880763153 43.171703437422345,133.65394823852006 43.44170539321948,133.38692643661753 43.60680592685331,133.29156150758485 43.79932387762489,133.23434254979577 44.4102554551508,133.17235534611638 45.02059100179832,133.1151363883273 45.517680695192894,133.0531491846479 46.01655848086739,132.99116198075535 46.31397785380228,132.99593022685883 46.61258928820974,132.99593022685883 46.88259124393583,132.95301600880123 47.15259319973296,132.91010179074362 47.467893496746015,132.87195581928688 47.779021578249775,132.80996861532327 48.02399023999643,132.72414017878177 48.26299859374071,132.62400700314825 48.575318736788105,132.50003259536314 48.88883094145019,132.3712899409772 49.08492507713687,132.3045344904838 49.28757555163327,132.25208377950872 49.51406725835231,132.20916956145115 49.742943088371774,132.20916956145115 50.06003147787791,132.28069325804802 50.36639131292293,132.3998994195165 50.50288236773327,132.46665487000988 50.6214924983944,132.54771505995055 50.70493681156444,132.62877524953595 50.81877869569577,132.7575179039219 51.01666092373343,132.90533354435595 51.15792022500252,133.0531491846479 51.38381590105632,133.28202501466737 51.467856244821654,133.38692643661753 51.56620132803203,133.48229136565018 51.666334503665546,133.57765629489603 51.78375257271199,133.69209421004786 51.902362703373115,133.8065321249155 52.55263231432573,133.92573828638396 52.735017741301434,133.892360561457 52.89415796686184,133.80176387859885 53.36502230459125,133.45368188711092 53.593898134681766,133.28679326119715 53.67734244763975,133.1628188531989 53.70893208049883,133.01500321290695 53.73277331272148,132.87195581928688 53.725024912226026,132.72414017878177 53.64873296895726,132.47142311682387 53.557540255362824,132.21870605436862 53.51522206811257,132.12810937143942 53.516414129656205,132.00890320997095 53.630256013929646,131.89446529510332 53.75899866831559,131.84201458412824 53.85734375152708,131.8324780911397 53.97118563565842,131.8038686121741 54.0427093326816,131.8038686121741 54.32641999683446,131.82294159822223 54.41105637147818,131.8372463375274 54.638740140023955,131.89923354141996 54.92245080417681,131.9421477596907 55.16384328122152,131.9421477596907 55.33371206131409,131.96598899191335 55.547687121221045,132.0279761958059 55.789079598052595,132.05181742802856 55.987557856897595,132.05181742802856 56.15742663706233,132.07089041407664 56.412527822532695,132.1376458643569 56.52636970673508,132.15671885047607 56.70398688739416,132.22824254707294 57.07889026514144,132.390362926599 57.21776544325221,132.48572785584483 57.33399145075613,132.60016577120982 57.44604524246433,132.7146036858643 57.55869506512309,132.84334634025024 57.65882824068555,132.92440653026196 57.69995436639217,133.01977145929462 57.81260418912087,133.2200378104906 57.91094927226242,133.3678534509957 58.016446725090965,133.506132598086 58.15114968755033,133.6301070061553 58.27750821870691,133.70639894956616 58.40625087309286,133.7874591390805 58.60353707032318,133.911433547363 58.76386935749827,133.99726198347818 58.930161952888895,134.07355392688908 59.06844110012126,134.15461411640342 59.21268055549812,134.2309060598143 59.504735651095864,134.3262709890601 59.80871136284047,134.3977946859412 60.113879136128695,134.46455013643458 60.41845087875169,134.53607383303148 60.75342019240704,134.64097525519477 61.08481332136044,134.75064492374577 61.35123909217142,134.83647336028727 61.60872440094221,134.9413747823085 61.84356053903731,135.0558126971761 62.07601255389972,135.1702506122569 62.40263743632333,135.33237099206715 62.72747422632491,135.48972312477923 62.97840319621604,135.62800227208265 63.20847108785019,135.79489089842272 63.32231297205147,135.9140970598912 63.40635331588785,136.047607960878 63.446287379979786,136.15727762935794 63.48979762905788,136.26694729790893 63.631056930255916,136.4242994309052 63.74370675284362,136.60072454987852 63.898674762752634,136.7103942184295 64.04470231062145,136.8009909009324 64.20741872095597,136.86774635163897 64.50960634027854,136.93927004823584 64.83623122270215,137.02033023824754 65.12351807191222,137.1061586745759 65.31245983784085,137.15384113895013 65.50080557295993,137.20152360360856 65.75709882004608,137.24443782166617 65.9621334178429,137.2730473004186 66.16836007711231,137.29688853264125 66.45207074140727,137.32072976507703 66.53372696208422,137.29688853264125 66.62372761399291,137.2730473004186 66.79359639401332,137.2158283431269 66.95214058876861,137.18245061798677 67.07849911992407,137.15384113895013 67.2221425444947,137.11569516728022 67.36220978429009,137.07278094922262 67.61850303137625,136.96311128067163 67.84737886139571,136.82006388676737 67.98863816280691,136.7056259721129 68.11857287880754,136.5816515638304 68.21870605437,136.48151838841005 68.3045344906273,136.3718487199301 68.30572655224198,136.16204587553244 68.40824385110487,136.0142302355247 68.50599290358006,135.8616463489161 68.54831109082922,135.75197668036512 68.59360943218834,135.6375387652133 68.67466962205795,135.48018663207492 68.76586233551028,135.32760274525316 68.88745262027918,135.1702506122569 69.00844687409861,135.01289847890536 69.09725546446367,134.86031459229676 69.15209029881022,134.6981942127707 69.17354740773355,134.5885245442197 69.22599811884963,134.2976615100945 69.22719018039326,134.13077288439393 69.04599681503224,133.5633515556619 68.96195647119697,133.30109800028916 68.8624193263708,133.08175866318717 68.73844491844358,132.87195581928688 68.5697681999657,132.60016577120982 68.40109148148781,132.32360747631876 68.35817726328811,132.20916956145115 68.3462566472112,131.99936671705348 68.3319519078361,131.88969704850248 66.73578140570223,130.92174301773375 65.51093809668475,129.71537666353075 65.94365646274424,127.30264395533784 66.27206943758988,125.18077428134117 64.95007310704665,111.24318988244761 65.89835812145728,105.46407517445617 65.53835551375144,101.36815146647058 68.41122400521263,98.20203581779695 70.48958343034435,96.08016614358714 79.48428434394779,85.59002393436174 80.55296758151263,83.91636942720231 81.86304329605112,82.0853627869045 84.93677416958668,77.6127476088917 87.23804911666446,67.9570485299456 92.59278988982814,58.28704471148117 94.99419801268152,52.32673663805765 95.43764493327319,51.940508675112966 95.8542704677476,51.649645641200955 96.37281726999333,51.42076981118149 98.09534630321274,50.47665701213805 90.71410078508393,46.47132998679744 90.58893431561421,46.395038043599726 90.58774225399952,46.35689207171666 90.56390102170583,46.22814941754387 90.55019231306589,46.190003445589745 90.53529154288346,46.151857474132996 90.51681458785473,46.1089432560754 90.45899959961358,45.99450534092356 90.42264172029464,45.91821339772584 90.38687987185409,45.841921454101815 90.34396565372545,45.7894707433399 90.31654823658769,45.7656295109041 90.23668010854482,45.69887406069491 90.1842293973577,45.63688685651815 90.16038816513505,45.59874088484824 90.14429533326576,45.565363159494964 90.14191121010744,45.46522998386145 90.14667945656618,45.264963632878626 90.14191121010744,45.15052571751363 90.13297074792625,45.107611499456034 90.04893040409098,44.916881641390695 89.91303538008798,44.63078685358215 89.80515380388796,44.330387326752664 89.78786891054608,44.2922413550117 89.76283561656665,44.25409538334179 89.53157566331672,43.9918418281822 89.5017741229507,43.94892760991145 89.41892584073011,43.7629659983759 89.41296553265668,43.715283533788515 89.41415759427026,43.67236931573091 89.4242901179962,43.62945509746016 89.4403829498655,43.58654087940256 89.46184005900086,43.54839490744845 89.51667489313427,43.47687121085157 89.57806606629052,43.41488400688797 89.65555007138714,43.300446091594026 89.71515315212137,43.095411494010364 89.71515315212137,43.05249727595277 89.70680872067648,43.0143513042118 89.67045084156958,42.94282760718861 89.58819859001534,42.84746267815594 89.5566089572262,42.818853199545615 89.48150907557212,42.72825651668747 89.46184005900086,42.699647038077146 89.45528372004905,42.632891587654804 89.46303212047344,42.599513862514684 89.55184071076746,42.38494277151617 89.56912560418039,42.26096836373107 89.57389385063912,42.1656034346984 89.57687400467584,42.065470258851725 89.5679335425657,41.76983897833887 89.53395978654719,41.45513471199105 89.45409165836331,41.178576417597355 89.41177347111194,40.887713383685345 89.41415759427026,40.72559300415927 89.43144248775536,40.40135224482293 89.3426338975324,40.08664797875932 89.326541065662,40.05327025340605 89.27528241616061,39.95313707777253 89.24905706063754,39.92929584533673 89.18408970263722,39.81485793046911 89.16144053195822,39.75287072629234 89.12925486836173,39.69565176900064 89.00289633720516,39.52876314266057 88.96892258125769,39.46200769238033 88.78534509259624,39.194985890904114 88.75673561377276,39.17114465825516 88.52547566052392,39.07101148262164 88.42295836173321,39.04240200408237 88.38540842079847,39.013792525543096 88.31805693963985,38.9470370750497 88.29302364573147,38.91842759601305 88.27037447498141,38.889818117260624 88.19646665486984,38.76584370961762 88.11302234184302,38.627564562101036 87.95149799312429,38.417761718200744 87.91931232945676,38.365311006941454 87.89070285077538,38.27948257082626 87.87818620375013,38.07921621941713 87.8889147582823,37.979083043570455 87.90321949765962,37.945705318430335 88.00573679659244,37.754975460364996 88.15653259077901,37.46888067255645 88.29302364573147,37.18755413156192 88.32044106279817,37.111262188151045 88.4801773191659,36.8966910976499 88.71799361129551,36.57245033859777 88.82527915668818,36.53907261324449 89.02018123061808,36.51046313470521 89.15071197742606,36.372183987330736 89.20137459605016,36.238673086415 89.28303081679705,35.91920057346634 89.37064734540533,35.76661668685775 89.60786760665653,35.59019156781336 89.8331672519041,35.46144891342741 90.17767305847693,35.31840152002051 90.4363504288635,35.17535412611624 90.71648490831441,35.02277023950765 91.02284474328839,34.83680862733263 91.26185309703267,34.69852948024236 91.49668923519661,34.54594559363377 91.73152537328949,34.40289819951634 91.96040120323791,34.226473080898266 92.1052366894221,34.06435270094589 92.24411186753287,33.84024511752727 92.39550369266887,33.59229630188601 92.54629948699754,33.339579239217585 92.69769131191929,33.172690613588045 92.9116663717563,32.99626549454366 93.13398586289499,32.87705933307519 93.34557679957258,32.81984037528611 93.61259860126195,32.82460862210011 93.80273242880416,32.86275459334371 94.31531892304754,33.02010672676629 94.52929398288344,33.148849381152246 94.69260642409525,33.291896775056514 94.84399824916021,33.415871182628464 95.08121851048246,33.53030909799345 95.34168397336212,33.54461383701441 95.66771282490733,33.49216312603934 96.05036460322113,33.382493457488344 96.42288385781009,33.29666502115999 97.05288842117096,33.03917971260125 97.4504409696683,32.853218100426226 97.80269517680763,32.68632947472563 97.98627266546909,32.528977341374095 98.1340883058321,32.37639345455235 98.30514914739614,32.185663596487004 98.553693994059,32.00447023084177 98.85886176748934,31.785130894023997 99.09488996712585,31.608705774979608 99.33389832087013,31.44181714863954 99.53774085698234,31.31307449425359 99.78747776532761,31.22247781175071 100.12363914059875,31.141417621810046 100.31377296821202,31.093735157364762 100.62370898795899,30.98406548881377 100.93662516181372,30.860091080815508 101.30914441640269,30.674129468853643 101.5702059100897,30.492936103705777 101.93140057926811,30.264060273473156 102.38617208527032,29.977965485877775 102.93273233560437,29.625115248073207 103.18604542872376,29.486836100982938 103.34101343863277,29.405775910758067 103.54127978997086,29.324715721243713 103.81366586885525,29.281801503186117 104.14267487457928,29.281801503186117 104.41982919992243,29.29610624220707 104.72380491173809,29.339020460690982 104.94374027971845,29.37716643221879 105.15235106228829,29.37716643221879 105.39016735434683,29.35332519978299 105.60891066064147,29.348556953608462 105.88368086275524,29.35332519978299 106.1673915270502,29.339020460690982 106.50593702562065,29.310410981725393 106.79978021371149,29.23888728512852 107.0173314583204,29.138754109281848 107.20090894698184,28.933719511698182 107.34514840235869,28.695307188761245 107.69382642472502,28.089739888501413 107.84998649617766,27.86563230458543 108.08005438781181,27.6462929676966 108.31131434120275,27.426953630665665 108.54734254076821,27.22668727918548 108.76966203190692,27.06456689965941 109.01105450895162,26.911983012837663 109.1523138102207,26.773703865534237 109.22383750717283,26.559132775246255 109.23635415405597,26.306415712577834 109.24350652381513,26.087076375689005 109.27867234144833,25.834359313517954 109.37999757862548,25.619788222732602 109.48132281587368,25.500582061264133 109.55880682082818,25.41475362514894 109.82225243767239,25.190646041304003 110.04636002123424,25.038062154695414 110.24960652653797,24.923624239827788 110.5249727596012,24.799649831758472 110.85636588841248,24.699516656338115 111.21875261927664,24.62799295910177 111.54597353250759,24.60415172687913 111.9310094341218,24.623224712714084 112.35359527652753,24.647065944936728 112.7070415453526,24.651834191750726 113.10578615532141,24.66613893098484 113.4669808247141,24.68998016342064 113.79956601514007,24.742430874182556 114.0707600324098,24.818722817806588 114.34076198820694,24.85210054273355 114.55712117120115,24.823491063981116 114.81579854158772,24.751967367384243 115.02738947819427,24.632761205915774 115.16984084122014,24.5135550444473 115.28725891019553,24.465872579575706 115.42374996514798,24.446799593953905 115.52090298667484,24.384812389777146 115.57096957449049,24.256069735391197 115.56202911245141,24.103485848995764 115.48990938469193,23.869841772233354 115.46368402931097,23.578978738534495 115.4458031049486,23.31195693656091 115.46845227569978,23.13076357119989 115.46726021408398,22.92096072729959 115.40586904085666,22.7397673614412 115.35341832988158,22.568110488997657 115.37606750048954,22.42029484898991 115.46070387513215,22.253406222649843 115.50242603171718,22.086517597020297 115.49586969276535,21.91486072429254 115.48990938469193,21.747972098236684 115.49825381606577,21.600156458157887 115.56202911245141,21.40942659945307 115.66454641124213,21.218696741387728 115.77362004898688,20.994589157898055 115.82487869848939,20.789554559888078 115.84573977674637,20.598824701822736 115.8511040540835,20.265047449639965 115.90117064175816,20.007562140797017 115.9411047058501,19.9312701975993 116.03110535775879,19.907428965234555 116.38097544173868,19.754845078625966 116.72488521757634,19.645175410074973 117.10574890339704,19.53550574131082 117.18084878519323,19.530737494923134 117.56826880996576,19.53550574131082 117.63979250677579,19.545042234228298 117.71191223453528,19.549810480829144 117.74946217532678,19.545042234228298 117.82575411866661,19.530737494923134 118.20602177375103,19.473518537631428 118.58688545971384,19.463982044713948 118.97847770013777,19.44490905880794 119.0261601646541,19.449677305195628 119.1686115276811,19.48782327665238 119.26338042611846,19.5259692486065 119.58106484636089,19.69285787466236 119.62576715691156,19.71193086056837 119.67225755981322,19.721467353272686 119.71934399366431,19.726235599589323 120.02570382856723,19.731003846190166 120.39226277508277,19.79299105008272 120.79458357003887,19.85497825397527 121.17604328673796,19.959879676209628 121.54856254132694,19.950343183505307 121.78101455626151,19.955111429608785 121.82094862035345,19.959879676209628 121.8596906228307,19.969416169127108 122.00571817055963,20.017098633714493 122.33234305305318,20.17445076671077 122.66433221274288,20.360412378885794 122.79307486712882,20.493923279588376 123.03565940564721,20.713262616477206 123.10837516414188,20.74187209551385 123.15426953630724,20.756176834961117 123.20195200096568,20.756176834961117 123.3008931149845,20.7609450813488 123.69546550937409,20.69895787745625 124.05844827104558,20.608361194527056 124.14964098464002,20.570215222786093 124.22831705113815,20.522532758411863 124.31295342585182,20.46054555451931 124.36719222924891,20.431936075482668 124.72957896011307,20.317498160615038 124.765936839432,20.30796166791072 124.9805079300042,20.231669724499845 125.12474738537993,20.160146027618765 125.1682576343881,20.15060953448813 125.39296124868511,20.088622330595577 125.43051118961984,20.0790858376781 125.57177049088781,20.0790858376781 125.62183707870457,20.083854083994733 125.8304478612744,20.145841288171496 125.88826284965876,20.17445076671077 125.93594531417399,20.207828492064046 125.97707143995167,20.24597446373396 126.03429039738437,20.327034653532518 126.07839667712992,20.46054555451931 126.08435698520334,20.756176834961117 126.11058234072419,21.056576361861662 126.1683973290375,21.35220764230347 126.27091462797145,21.62399769016737 126.28045112088893,21.66214366212149 126.29833204503703,21.809959302129236 126.45568417817653,22.081749350206298 126.50694282760908,22.129431815077893 126.56416178518388,22.15804129361717 126.62793708156951,22.177114279452127 126.71674567179247,22.210492004592243 126.76681225968028,22.248637976546366 126.80674632377222,22.291552194603963 126.82045503227005,22.32492991995724 126.83058755599487,22.59671996775009 126.82343518630675,22.89711949486379 126.69826871683591,23.249969732668358 126.43839928476359,23.474077316300136 126.39429300509131,23.53606452026374 126.38177635806608,23.58374698485113 126.39071682024726,23.626661203121884 126.40919377527487,23.67434366735401 126.4455516545938,23.717257885624765 126.49681030388314,23.76017210368236 126.55581735381004,23.79831807563648 126.61959265019567,23.82215930778807 126.68575206980955,23.841232293694077 126.75071942781099,23.84600054001071 126.81330266258193,23.836464047093234 126.97840319621577,23.784013336118157 127.36045894372221,23.683880160271485 127.47787701283971,23.683880160271485 127.54701658649142,23.698184900002964 127.57920225001685,23.717257885624765 127.61198394449174,23.736330871672877 127.8569526062384,23.979511440997502 127.88675414660551,24.0224256590551 127.9332445495782,24.13209532760609 127.9767547985131,24.20361902441612 128.00715236968867,24.227460256638764 128.03933803335622,24.24653324247372 128.07569591253304,24.26083798199204 128.1120537917809,24.265606228308673 128.1496037326435,24.27037447469636 128.2217234603319,24.27037447469636 128.25808133965086,24.26083798199204 128.49589763178045,24.170241299062845 128.78795272730716,23.989047933701823 129.1378228112171,23.82215930778807 129.16941244400624,23.793549828822478 129.19563779960038,23.76494035049636 129.2671614964104,23.67434366735401 129.410804921122,23.55990575269954 129.47577227898023,23.540832766580376 129.54669994505284,23.540832766580376 129.77676783675915,23.588515231238816 129.89180178257624,23.598051724156292 129.93173584666928,23.593283477768605 129.9716699107601,23.578978738534495 130.00921985155162,23.564673998803016 130.04319360757015,23.54560101318122 130.08551179496249,23.502686795123623 130.08312767166208,23.455004330252024 130.04319360757015,23.40732186609095 129.9931270197534,23.364407647820194 129.94961677081739,23.3167251829486 129.93710012393424,23.26904271871647 129.9520008941167,23.221360254129085 129.98657068094366,23.183214282174962 130.03782933030405,23.159373050236532 130.09683638023094,23.149836557248 130.57306499543958,23.111690585364933 130.60942287454537,23.116458831894725 130.92710729485884,23.17844603585833 131.33956061353865,23.230896746833405 131.74307347011052,23.249969732668358 131.8020805200374,23.259506225798994 131.92307477399896,23.292883950725955 132.2514877488446,23.435931344417067 132.60195386349085,23.550369259497852 132.65440457453698,23.55513750588554 133.03944047608013,23.550369259497852 133.4566620412198,23.459772577066023 133.4989802285411,23.41685835879527 133.55023887797253,23.302420443643435 133.59672928101628,23.2547379792692 133.65573633094317,23.207055514397606 133.96030807349402,23.02586214924974 134.00560641478208,23.011557409731417 134.07534201924113,23.011557409731417 134.1254086070579,23.03539864195406 134.2857408942341,23.116458831894725 134.3155424346001,23.135531817800732 134.48779533792205,23.28811570462248 134.5456103263053,23.321493429762597 134.6081935610052,23.33579816878355 134.6528958715559,23.340566415597554 134.7339560614255,23.340566415597554 134.78819486489365,23.31195693656091 134.88057963996067,23.211823761211605 134.90561293386904,23.187982528775805 134.93541447423615,23.168909543154008 134.96819616871105,23.149836557248 135.0367397115554,23.121227078282413 135.16905855071437,23.08308110682566 135.57793568462228,22.997252670426253 135.70548627732248,22.997252670426253 135.74899652625848,23.021093902862052 135.78535440550635,23.054471627789017 135.8056194529549,23.097385845846613 135.81157976110046,23.17844603585833 135.77164569700852,23.302420443643435 135.77045363532392,23.373944140737674 135.77939409743294,23.40732186609095 135.79310280607285,23.44069959123107 135.85568604077275,23.55513750588554 135.88787170437035,23.602819970757135 135.93674623064237,23.62189295659209 135.996945342255,23.62189295659209 136.10184676420403,23.593283477768605 136.13820464345304,23.588515231238816 136.2067481862974,23.588515231238816 136.26813935945367,23.60758821707377 136.3164178548484,23.64573418902789 136.41893515378231,23.755403857578884 136.44694860165637,23.803086321739958 136.46542555668398,23.850768786611553 136.47794220370812,23.90321949758663 136.48271045016796,23.979511440997502 136.4767501420235,24.29898395366195 136.59416821106993,24.61845646639745 136.726487050371,24.89978300739199 136.9356938638192,25.190646041304003 136.9678795272736,25.219255520056436 137.01794611509035,25.228792013258126 137.13178799929162,25.228792013258126 137.2319211749973,25.214487273739802 137.42026691004642,25.214487273739802 137.476889836815,25.224023766444123 137.90543598722311,25.24309675227908 138.27795524181207,25.328925188607432 138.63259357225184,25.438594857158424 138.99438427223757,25.56733751154437 139.3013401380189,25.729457891283595 139.6154483734883,25.920187749633147 139.64763403722802,25.953565474986423 139.69531650167218,26.01555267866582 139.76922432178264,26.16336831888672 139.77399256824137,26.201514290840844 139.77280050662557,26.34932993084859 139.7805489071932,26.39701239550703 139.79902586214976,26.44469486009442 139.83180755655357,26.482840831835382 139.87650986710426,26.511450310374656 139.92657645492102,26.520986803292136 140.10896188203884,26.520986803292136 140.17810145568944,26.511450310374656 140.21505536567471,26.50668206427118 140.5625413263553,26.358866423979222 140.5988992056032,26.344561684531953 140.63525708492213,26.335025191543426 140.70916490503146,26.330256945013634 140.7467148458241,26.330256945013634 140.78307272507197,26.33979343793111 140.94638516628268,26.39701239550703 140.99406763087117,26.406548888424506 141.04413421868793,26.416085381128827 141.25274500125775,26.42085362794283 141.66400625839503,26.50191381745718 141.95904150795843,26.50191381745718 141.99897557205037,26.497145571353702 142.03652551298399,26.482840831835382 142.07169133054614,26.46853609231706 142.2963949449153,26.29211097327267 142.58546988647524,26.11091760791165 142.62540395056718,26.096612868606485 142.80898143922863,26.025089171583296 143.03904933093273,25.929724242550627 143.10759287370715,25.88681002449303 143.21130223418473,25.80574983448131 143.37163452143088,25.595946990581012 143.51408588431573,25.319388695689952 143.60170241299397,25.03329390837878 143.63031189181746,24.751967367384243 143.62137142963627,24.699516656338115 143.60766272106738,24.651834191750726 143.5862056120741,24.608919973479974 143.3942836920388,24.322825185884593 143.28878623913923,24.012889166137622 143.28640211590985,23.922292483208427 143.40918446222238,23.631429449296412 143.56415247213138,23.321493429762597 143.63031189181746,23.016325656332263 143.66547770945064,22.649170679009373 143.6726300790688,22.329698166060716 143.66249755534287,22.02453039263038 143.0366652076334,20.79432280648892 142.10387699414264,19.139741285164448 140.53035566283097,16.3503171070154 139.6279650204425,14.628980135481738 139.4688247950242,14.180764968147132 139.50041442767125,14.156923735711333 139.5391564301485,14.128314257172057 139.66789908453444,14.066327053279505 140.04041833912342,13.899438426939437 140.39922888514351,13.789768758388444 140.7687679857668,13.732549801238841 141.14903564078128,13.694403829355773 141.52751520344145,13.589502407405623 141.57758179125932,13.565661175182981 141.6812911517369,13.4941374783019 141.90897492014057,13.25572515536496 142.0967246244534,12.983935107074743 142.2940108217559,12.712145059068733 142.59500637939271,12.535719940024345 142.93772409361458,12.411745532168188 143.3114354098893,12.316380602709202 143.68395466447825,12.216247427075688 143.94024791156443,12.082736526586263 144.27283310206144,11.958762118303792 144.61376272393233,11.78233699947256 144.96124868461402,11.615448373416703 145.29621799826828,11.462864486808112 145.62403494230657,11.30551235359868 153.5226352012074,8.306285330838806 156.45510677340283,7.672108552252859 160.81089991346073,6.995017554685632 163.56217812015302,5.984149305788265 168.01989252819544,4.5632118611551515 172.2469430138674,3.3091630420805282 173.6809931364752,2.503329390837878 174.8921277369238,1.7404099571554579 177.17671382146594,0.305167773146127 177.47830540991123,0.18119336536102257 177.72923437980234,0.09536492924582872 178.09281317228118,0 178.40811346943633,0 179.31169617336735,0.6198720397070984 180.4519031077422,1.3303407619881296 181.42283729297506,2.1409426598316235 183.35516917037785,3.5141976398773496 184.6902781787537,4.391554988427397 186.4116151503584,5.631299067557384 187.66804809223606,6.5754118666008265 189.10150218396547,7.595816608841985 190.52661184424997,8.673440308161696 195.01412779273167,13.155591979802496 195.37532246204995,13.513210464207909 198.64753159428952,17.928606684644787 199.94270653864447,19.94080669058783 201.5335127634412,22.62056119997273Z"/></svg>