<svg xmlns="http://www.w3.org/2000/svg" width="256" height="256"><path d="M112.8227165841002,8.113491951378503 114.53670340266628,8.504728073178208 117.85056650459163,7.801434568833378 117.97399218589928,7.726913403010941 118.04036259932593,7.726913403010941 118.15563752802959,7.717598257187706 118.1928981111143,7.708283111433875 118.23598066022578,7.694310392733726 118.57132590736369,7.540610487517903 118.84728710032093,7.349649999703177 119.16167326944333,7.181977375995413 119.4795526182928,7.032935044003523 119.76948652995019,6.837316983450687 120.00120078050733,6.618411057888644 120.25853168202632,6.408820278566256 120.56709588505255,6.245805227804811 120.63579508498707,6.22251736376725 120.68935717307158,6.217859790543319 120.74175486793689,6.217859790543319 120.89661916609433,6.22717493629715 120.94668807452116,6.245805227804811 120.97812669150974,6.259777946366155 121.00956530835953,6.278408238082026 121.03867513884025,6.3016961023972 121.24943031159007,6.543889892205013 121.37518477926679,6.818686691665412 121.55683012139708,7.060880481265015 121.75827014839308,7.195950094973176 121.90032612106961,7.237868250796012 121.95272381600431,7.242525823742331 122.32649403937677,7.242525823742331 122.64903096103376,7.2611561153193955 122.68396275761063,7.2658136878492945 122.93197851337578,7.344992426965067 123.22889878427914,7.549925633271734 123.43383199079402,7.787461850341439 123.60150461443237,8.062258650010046 123.74123180067043,8.337055449678655 123.87397262773193,8.574591666262537 124.06609750883528,8.872676330662738 124.2721951087082,9.114870120262342 124.55514266091141,9.333776045407964 124.77987055222258,9.575969835007568 124.96966664702629,9.818163624398961 125.07329764346825,10.09296042406757 125.12220215867586,10.24666032921399 125.30268310765634,10.451593535590058 125.4424102939638,10.52611470169011 125.4785064837599,10.53077227491404 125.53323296513305,10.53077227491404 125.90351000877844,10.52145712916021 126.20159467290102,10.540087420459663 126.5637209640812,10.661184315120657 126.92468286211155,10.735705481428917 127.28098718712617,10.833514511635933 127.63146954611406,10.945296260751306 127.89578680694842,11.140914321373545 128.14263816942494,11.364477819673697 128.3918183182705,11.583383744749916 128.64449164684316,11.802289670311959 128.8925074025389,12.021195595388178 129.10093378878088,12.268046958003504 129.26977080570788,12.510240747603108 129.47936158503026,12.74311939144888 129.51429338160713,12.76640725548644 129.549225178184,12.780379974047785 129.58415697483028,12.789695119801614 129.6214175577762,12.794352693025546 129.67497964586073,12.799010265763656 129.85895377449887,12.794352693025546 130.04409229635627,12.794352693025546 130.266491401229,12.808325411517487 130.58669953651693,12.943395025017438 130.8917705599549,13.143670658794205 130.95115461413556,13.180931241809528 131.02684017338544,13.232164543177985 131.06759393605844,13.288055417770375 131.16423857325444,13.441755322986197 131.195677190243,13.469700759831271 131.4937618542962,13.68394911237759 131.81979195568027,13.879567173346846 132.15863038247588,14.051897369445701 132.48349609064073,14.20559727459212 132.53589378550603,14.228885139115505 132.5789763346175,14.238200284869336 132.62089449057913,14.252173003222468 132.662812646402,14.252173003222468 132.90034886312466,14.266145721992022 133.1076108561474,14.322036596515007 133.14952901210904,14.322036596515007 133.19261156115112,14.317379023568689 133.2322009306743,14.303406304799136 133.27062590690886,14.289433586515406 133.30439331019707,14.266145721992022 133.3335031406778,14.233542711923016 133.35911979157024,14.200939701645803 133.53028559472747,13.926142901977194 133.56405299808512,13.851621735877144 133.58501207603123,13.735182413954258 133.60131358116985,13.62340066497769 133.61761508616965,13.590797654978088 133.63740977089654,13.562852217438982 133.92035732316916,13.348603865100872 134.1066602383152,13.278740272016543 134.50488271922205,13.213534251670325 134.87166658334854,13.106410075501268 135.03817481369825,13.055176773924602 135.0882437220557,13.050519201186493 135.38982156583597,12.999285899332213 135.42358896919362,12.980655607824552 135.74030392489325,12.82229813007883 136.01742951106974,12.60339220500261 136.2305134701886,12.435719581503056 136.59962612068418,12.305307540602408 136.9594236254259,12.24941666642644 137.31805673694836,12.17023792738007 137.64758001799015,12.025853168334498 137.94799346855118,11.839550252910863 138.23559859377013,11.629959473796685 138.52786129165776,11.438998985773747 138.76889068810755,11.220093060697527 138.78286340673827,11.187490050420314 138.78984976598426,11.145571894597477 138.80848005749192,11.005844708151207 138.82128838297282,10.94995383355882 138.85389139304183,10.89406295896643 139.005262511611,10.717075189713047 139.1228662267531,10.656526742382548 139.24046994182584,10.595978294982649 139.59677426690985,10.53542984744394 140.00431189363997,10.498169264636827 140.41068512715083,10.484196545867274 140.81240078778478,10.474881400113443 141.01151202827293,10.484196545867274 141.0592521504001,10.493511691621105 141.1069922723191,10.512141983336976 141.19548615691107,10.568032857512945 141.33172016356087,10.623923732313544 141.37946028568805,10.628581305259862 141.77069640727956,10.633238877859165 142.1561105627749,10.637896451083096 142.25042641353244,10.633238877859165 142.6323473894395,10.60063586779016 142.8256366638315,10.614608586559713 142.87337678588926,10.628581305259862 143.01077518568889,10.684472179435831 143.05385773480035,10.707760043959215 143.1400228330927,10.754335773005982 143.1854341685732,10.768308491289712 143.3228325684422,10.81488422033648 143.7129042969533,10.8800902406827 143.85146708997212,10.926665969035435 143.97838595093748,10.982556843627824 144.0156465338834,11.010502280889316 144.0400987914872,11.043105290958321 144.05407151011795,11.080365874251259 144.06105786950272,11.154887040351309 143.9923586694988,11.429683840019916 143.9958518491565,11.490232287142204 144.0156465338834,11.550780734889122 144.12277071005244,11.695165494142904 144.3789372182828,11.904756273465292 144.42201976739426,11.928044137988676 144.4639379233559,11.937359283534297 144.5081848656866,11.946674429288128 144.6944877806938,11.983935012303451 144.73407715014758,12.002565303880516 144.7713377331629,12.0305107409338 144.8027763500821,12.058456178195293 144.82489982124744,12.095716761488228 144.84003693309742,12.132977344503553 144.84935207885124,12.17023792738007 144.86216040433217,12.32393783211007 144.87729751618215,12.361198415403006 145.03449060070864,12.61270735054823 145.23709502085447,12.854901140147835 145.43154868846568,13.106410075501268 145.67956444416143,13.329973573593211 145.88566204403435,13.437097749762266 145.93340216602272,13.441755322986197 145.98230668123034,13.441755322986197 146.23265122329514,13.45107046853182 146.2792269521337,13.469700759831271 146.52025634844466,13.60011280073192 146.59943508742163,13.632715810800924 146.64018885002525,13.660661247854208 146.8800538532558,13.88422474615436 146.99299999545158,14.17299426459252 147.01046589380942,14.452448636999236 147.21307031388585,14.69464242680705 147.44827774423948,14.829712040307001 147.76033512692342,15.006699809560384 148.04211828597678,15.206975443128943 148.32855901790708,15.388620785398048 148.39376503825332,15.416566222451332 148.44150516017228,15.435196513958994 148.48924528216068,15.444511659712825 148.87931701067174,15.48177224279755 149.15178502404072,15.491087388551382 149.18904560698664,15.519032826021084 149.2123334713018,15.556293408897602 149.21466225780966,15.61218428348999 149.20651150520567,15.668075157804767 149.15644259684822,15.835747781512529 149.18205924760184,15.891638655896708 149.20884029171353,15.914926520211882 149.24959405431713,15.938214384943475 149.29500538986704,15.956844676242927 149.3404167254864,15.966159821996758 149.389321240694,15.97081739501248 149.73631041995478,15.97081739501248 149.78405054194317,15.961502249258649 149.83179066393154,15.942871957681584 149.87836639277012,15.919584093435812 149.90747622325082,15.90095380165054 150.139190473808,15.668075157804767 150.22768435853877,15.621499429243821 150.26727372799255,15.602869137666756 150.31268506347308,15.593553991912925 150.3580963990924,15.588896419174816 150.40467212779217,15.588896419174816 150.64337273773407,15.602869137666756 150.69111285972247,15.61218428348999 150.737688588561,15.62615700219014 150.78426431726078,15.644787293767205 151.10214366624905,15.817117489796656 151.14755500166018,15.83109020856621 151.19645951686778,15.845062927335762 151.24652842536403,15.854378073089594 151.64125772661322,15.868350791789743 151.69016224182081,15.863693218843425 151.73557357737076,15.849720500073872 151.78098491299008,15.83109020856621 152.0848915431394,15.640129720543273 152.21064601081613,15.546978263143771 152.25023538033932,15.523690398620387 152.3748254547274,15.47245709725193 152.4190723970581,15.467799524027999 152.46564812582724,15.463141951498098 152.8557198542689,15.48177224279755 153.24579158278,15.48177224279755 153.34243621997598,15.477114669990039 153.73367234156748,15.48642981574387 154.0247706463747,15.48177224279755 154.06785319548615,15.47245709725193 154.1016205988438,15.453826805744269 154.13888118192853,15.435196513958994 154.14586754117448,15.369990493820984 154.17497737165522,15.244236026144266 154.20641598864378,15.225605734428395 154.24600535816697,15.206975443128943 154.56039152728937,15.062590684152774 154.586008178043,15.002042236336454 154.57902181879703,14.936836216406654 154.5534051679046,14.876287768659736 154.52895291030077,14.783136311260234 154.54059684256248,14.680669708106901 154.55689834756228,14.648066698037896 154.57902181879703,14.61546368776068 154.63141951359293,14.559572813168293 154.6628581305815,14.536284948644909 154.7024474999659,14.512997084329735 154.74203686941968,14.499024365837794 154.84217468634276,14.438475918437893 154.90970949305802,14.391900189668739 154.96327158114255,14.345324461038391 155.15190328265763,14.093815525476748 155.38128874691512,13.846964163069632 155.65724993980297,13.660661247854208 155.9460194581023,13.474358333055202 156.2208162578403,13.353261437908385 156.2673919866789,13.348603865100872 156.60273723381678,13.357919011132315 156.74945077950903,13.381206875378087 156.79835529457785,13.381206875378087 157.04986423000068,13.367234156886147 157.09876874527768,13.353261437908385 157.1476732603465,13.334631146608933 157.17911187726568,13.32065842783938 157.48884047358055,13.139013085570273 157.79973346311465,12.934079879263606 157.84747358510305,12.920107160494053 158.0954893407988,12.859558713371767 158.1269279577874,12.8409284217947 158.39240961177157,12.635995215071615 158.62179507595965,12.445034727256887 158.65206929959018,12.426404435749227 158.68350791657878,12.412431716979674 158.73241243178637,12.39845899821012 158.78364573336304,12.38914385245629 158.8337146417899,12.38914385245629 158.88494794343595,12.38914385245629 159.03864784844356,12.412431716979674 159.0724152518012,12.426404435749227 159.1050182618702,12.445034727256887 159.16673110248934,12.496268028625344 159.36118477010058,12.68257094384077 159.6848860850462,12.836270848848383 159.78036632909235,12.850243567617936 159.82810645101134,12.850243567617936 159.92475108820733,12.8409284217947 159.97016242382665,12.831613276040871 160.13434186773793,12.771064828293953 160.3020144912375,12.710516381171665 160.65133245700613,12.617364923772163 161.0204451075017,12.500925601849277 161.3592835342973,12.379828706702458 161.9729187609003,12.035168314157731 162.28963371653055,11.88612598195763 162.4526487671532,11.834892680103351 162.8159394515526,11.81160481606579 163.11285972245597,11.848865398664694 163.1664218106099,11.848865398664694 163.32245050198657,11.839550252910863 163.37251941034398,11.82557753434952 163.4214239255516,11.81160481606579 163.72998812871666,11.639274619342306 163.97567509790454,11.434341412966235 164.11423789113158,11.285299080766134 164.14218332832368,11.262011216520364 164.37506197216945,11.150229467127376 164.736023870061,11.103653738774641 165.8538413605207,11.052420436920363 166.2287759771818,11.038447718428422 166.60254620055426,11.019817426643147 166.9751520307075,10.996529562605586 167.34892225407995,10.977899271028521 167.72385687074106,11.010502280889316 168.1325588905516,11.071050728497427 168.5051647207048,11.085023447197576 168.80208499160818,11.122284030074093 168.8800993372965,11.131599175827924 169.25503395388822,11.182832477404592 169.62880417733007,11.196805196174145 169.68120187212597,11.182832477404592 169.73127078062222,11.168859758843249 169.95832745830245,11.057078009727874 170.34956357996333,11.24803849775081 170.63367552552458,11.429683840019916 170.89799278622013,11.615986754818922 171.15066611479278,11.839550252910863 171.17278958602756,11.867495690380565 171.19141987753522,11.895441127711461 171.21354334863116,11.983935012303451 171.21005016897348,12.044483459911563 171.10409038609305,12.193525791903454 170.9247738303318,12.435719581503056 170.89449960656245,12.68257094384077 171.17744715890447,12.980655607824552 171.9983443783914,13.75381270546192 172.43499183560223,14.55491524036078 172.63060989643267,15.099851266751678 172.62013035745963,15.146426995798445 172.31389494080244,16.41328681818064 170.2913439190019,19.93441191333693 172.98342104185903,22.30511650740928 173.65294714291562,23.241288655808095 174.8953547078328,25.02513906766671 175.83734882218897,26.00788694490408 178.0578466913972,26.776386469317515 179.3410080188486,27.125704435086174 181.06023460710944,27.50762541113205 182.24325811784703,27.81502522107787 184.00149187881215,28.224891633968817 185.61068330785582,28.853663972630017 187.1342918352168,29.943536025758828 187.19076490627998,29.985454181581666 189.18537049081903,31.4712199294565 190.02548019856206,31.899716633924513 191.27953169560215,32.547119263885165 195.2832977799206,33.97233656401308 196.9739967343103,34.56384831938134 198.2449319330986,34.77343909891194 198.74445662414777,34.85727541104343 200.90789922547393,35.11809949194249 215.63048708933533,38.75566390860524 215.69278212656408,38.77895177312863 219.9498037360648,40.520884029164414 228.0056582232997,43.203646006198305 230.128929258634,44.11653029028194 230.3903355362804,44.20036660192762 232.25976884982174,44.90831767901056 233.72341112632301,45.54640516342558 235.22664277234747,46.22641080338584 237.10946660784055,47.46066761576843 237.3900853736747,47.64697053098386 240.83319612307326,49.272463464957944 242.19728277926106,50.073565999648594 244.1674361061963,50.33904765356337 245.2200475763792,50.38096580938621 247.59016997418894,50.213293186094866 249.73381789071988,50.14808716554044 251.00766407255625,50.00835997930238 252.00496686489518,49.93849638642626 253.20487407737883,49.96644182347954 253.86450283600368,49.89192065737949 254.02926447652456,49.989729687794714 254.34073966259888,50.17137503027203 254.91420332306907,50.6743929009789 255.4870847869297,51.28919252045412 255.903355362804,51.97385573370771 256,52.737697685313634 255.62157220375062,53.36647002355841 254.91594991296733,53.85085760275762 254.07816899180156,54.40976634826509 253.74981010384022,54.66127528368793 253.73991276147677,54.940729655886436 253.80453658514398,55.434432381117084 254.09738147984945,56.035259282239174 254.13405986618574,56.70129220349928 254.07351141878584,57.292803958867545 253.92039371045726,58.15445494137451 253.76203623271152,58.85309087291183 253.4138826600927,59.640220689041136 253.30035432128727,60.38077477619308 253.2892925856352,60.9257108030004 253.4825818600272,61.787361785021545 253.56408938537322,62.35558567614404 253.50645192102138,62.8586035466427 253.42261560930632,63.19860636665753 253.15014759600786,64.06957249491833 253.1111404231626,64.62848124000938 252.95103635551862,65.2665687242162 252.58483468800173,66.09561669616834 252.22969475627576,66.70575874332188 251.9583911360566,67.36713409156626 251.70571780762276,67.83754895227352 251.35931082476336,68.55481517511029 251.05889737427174,69.17892994075576 250.90112209299681,69.60276907241627 250.8242721405277,69.80770227920875 250.46272804602654,70.3945564615613 250.20015737509044,70.7252441358223 249.26864279970735,71.13976812193718 248.58397958673137,71.51703152517554 247.96859777043832,71.85703434498215 247.20417362194516,72.20635231075082 246.47759225314636,72.64882173412718 245.768476782636,73.32416980141873 244.91963412581813,73.89239369226361 244.21051865530777,74.29294495960893 243.51188272377044,74.64692049839331 242.95646715826769,75.03349904696908 242.35098268426867,75.3967897315073 241.81012203386746,75.82528643632233 241.36183064453377,76.32364673387467 240.8954911602326,76.83132217738904 240.419254333568,77.43680665152687 239.8225028087132,78.00037296984183 239.4021568565022,78.41489695595672 238.9748245451146,78.6803786098715 238.29598329823477,78.82942094179398 237.8942676376008,78.9551754095401 236.5464824863434,79.71435978840792 235.8286340666888,80.27326853349896 234.82958468459043,80.98121961079012 234.1216336073687,81.58204651191221 233.00789149310688,82.2434218604342 232.15963103289866,82.83027604327256 231.44178261324407,83.29137575774018 231.00222417305457,83.79439362844705 230.36821206525386,84.20891761477013 229.4029300863743,84.57686587211586 228.44405227033937,84.66535975649964 227.44791387128907,84.93084141041442 226.45061107901955,85.33139267775974 225.92197655748964,85.79249239292139 225.48358251044996,86.28619511766621 225.0364555142661,86.85907658152682 224.95087261265277,86.97085833064219 224.58583533842452,87.45058833689508 224.07292012535422,87.94894863465562 223.5716488444762,88.55443310879345 223.273564180423,88.9037510745621 222.73270353002178,89.2949871963618 222.03290320533463,89.65362030767609 221.61430384302187,90.09143215831435 221.1759097959128,90.51527129018305 220.62049423041003,90.91582255752839 220.0150097563416,91.39089499097376 219.76175423122766,92.00103703764147 219.69480162105367,92.59720636602546 219.85083031243036,93.32844530763178 219.99055749887663,93.88269648012353 220.35035500347954,94.50215367261447 220.57275410849104,95.06106241770551 220.83124940302105,95.73175291218955 220.99775763337078,96.17422233535771 221.20152644673584,96.78902195524937 221.38608277205302,97.20820351389413 221.58985158541807,97.67861837480962 222.05269788999212,98.60081780443888 222.69078537412955,99.8164443252444 222.8666087503025,100.08658355189729 223.5716488444762,101.33947065578755 224.12706441004835,102.44797300042401 224.209736328683,102.62496077016323 224.26096963025967,103.53784505396925 224.28076431498656,103.88716301973791 224.071755732135,105.32635303842717 223.88487062051814,105.70827401426483 223.60541624783383,106.01567382421065 223.49305230224763,106.02498896996448 223.04767189582319,106.07156469880304 222.3222549202436,106.01567382421065 221.6154682362411,105.82937090941165 221.15029314508976,105.89923450228777 220.81320130812193,106.40225237327225 220.1797713970013,106.95184597260946 219.76932278708432,107.2313003452244 219.15510536401052,107.24061549097823 218.3190710325348,107.21267005350852 218.05882914810653,107.0869155858318 217.8917387210778,106.70965218321807 217.76190887720318,106.42554023751802 217.50224918924573,106.13211314613355 216.66679705451844,105.71293158748877 215.4948352792952,105.42881964206633 214.14705012803776,104.8792260425209 213.6644091386674,104.6416898254512 213.36690667122383,104.43209904633702 212.99546523422043,104.26442642283746 212.45576897717618,104.09209622611398 211.87939433359065,104.02223263323786 210.9123657650894,104.07812350734443 210.26030556225183,103.98031447713741 209.62804004421056,103.98962962296065 209.05050100747303,104.14332952769064 208.7343682485218,104.4926474934593 208.62666187574422,104.76278672059802 208.50964035714122,105.05621381177428 208.54515435039713,105.74087702454204 208.9882059702443,107.21267005350852 209.74797254586053,108.53542075069132 210.19335295221558,108.99652046564475 210.65736365000888,109.37844144169063 210.82328968374898,109.6718685328669 211.00901040228538,110.09105009151168 210.97116762266154,110.41708019317338 210.6538704703512,110.98996165703397 210.17239387420005,111.57681583945592 209.53896396300894,112.17764274036979 209.12851535316136,112.43380924873895 208.57950395043378,112.61079701799234 207.78946315104818,112.71792119416139 206.1884224746085,112.71326362135387 204.5023810932345,112.72723633991522 202.9211351015217,112.92751197348377 202.35232901385902,113.21628149192195 202.11945037001323,113.59354489495209 202.0251345192546,114.18039907758225 202.7115443219911,115.12122879851096 203.45268060603138,116.38343104836325 204.0826173376331,117.21713659312292 204.62114920152644,117.76673019266833 205.04848151298344,118.15796631425984 206.05044187819928,118.67961447675198 207.0361007382765,119.1686596289669 208.0398076932518,119.42482613685024 209.06272713627493,119.48071701144262 209.8638296711738,119.2292080760892 210.9810649650933,118.82399923572814 211.558604001692,118.47468126995949 211.74490691676863,118.04152699233694 212.14836916723144,116.89110649208584 212.52155719399428,116.44397949569375 213.15440490871458,116.19247056054853 214.15927625683966,116.17849784157076 216.1125458821655,116.00151007252559 217.13546532518865,116.05740094711798 217.82420391436253,116.25767658089475 218.38136606976352,116.63493998350847 218.62181326960368,117.13795785442356 218.80578739824185,117.92508767041406 219.0258577166067,119.06153545258964 219.08058419791047,119.56455332308829 219.0747622318143,119.82537740447317 218.90592521502614,120.39825886826438 218.32722178506938,121.47881577584756 217.96218451091053,122.24731530053862 217.63499001623782,123.01581482495205 217.5127287282188,123.53746298723598 217.42656362999585,124.59938960331151 217.46906398249772,125.89885243597092 217.30080916231915,126.6766671063464 217.10402670826946,127.13776682129983 216.87813442373906,128.00873294935244 216.7948803085653,128.66079315184297 216.68892052561438,129.21038675118018 216.43624719704172,129.92765297422517 216.10031975329417,130.533137448363 215.53034927255106,131.30629454579216 215.22236726599562,131.62766707471573 214.4986968802449,132.38219388056783 214.16276943656678,132.80137543949022 213.95608964008423,133.13672068648933 213.29587868478148,133.9704262314572 212.60714009560652,134.94385896287133 212.11401956726417,135.67044033173954 211.8479557167398,136.15017033813123 211.65233765583994,136.49948830389988 211.3030196900702,137.0211364657674 210.92983166330842,137.34716656722088 210.54732849079176,137.6173057943596 209.80619220682198,137.82689657347376 209.19313917682857,138.0178570614967 208.7023474349236,138.33457201719636 208.39378323189737,138.6186839626188 208.20340494048403,139.1263594061332 208.2057337269919,139.60143183978678 208.1568292117843,140.1230800018625 207.87621044588073,140.80774321504668 207.3999736192866,141.61350332275305 207.01281287382253,142.35405740990498 206.7904137689498,143.02940547740477 206.77935203343654,143.06200848719615 206.43760262352347,143.63488995105675 206.0393801425472,144.0168109268944 205.54625961427317,144.32886830985595 204.97628913339125,144.7946255975475 204.33994823908267,145.28832832229233 203.8602182327604,145.56778269518486 203.45617378582676,145.92175823389985 203.09230090481668,146.56916086344407 202.48565203753012,147.57985417815115 202.12294354967094,148.3856142858575 202.05831972607314,148.79082312573274 202.0984912920671,149.46151362021678 202.17650563775544,150.00179207400836 202.372123698587,150.41631606012325 202.45887099341846,150.7330310156147 202.5135974747916,151.33851548975252 202.5415429119837,152.31660579369654 202.41928162396468,153.35058697244116 202.3278767562552,153.9281260091093 202.05075117007874,154.52429533749327 201.61992567896405,155.17635553998383 201.30379291994342,155.7119764211761 200.92128974742673,156.18239128146698 200.399059388672,156.6714364336819 200.06313194492446,156.9788362436277 199.6858685418943,157.34678450069583 199.37672214211966,157.69610246646448 198.34914512615018,158.35282024217898 197.50496004220926,158.7533715095243 197.058415242635,159.00488044487773 196.73820710734705,159.15858035009356 196.33416266027464,159.37282870243166 195.47484046455313,159.88050414594605 195.05100133268442,160.12269793554563 194.7313753940766,160.31365842356857 194.3808930350182,160.52324920289098 194.2062340521328,160.66763396186715 194.12530872346687,160.76544299228237 194.06184929301892,160.90051260571292 194.05136975397537,161.0122943551059 194.0694178488745,161.17530940579795 194.10376744884175,161.36626989340445 194.09852767935521,161.63175154752744 194.0938701064783,162.13942699104183 194.05136975397537,162.48408738428057 194.00595841842653,162.91258408867918 193.96811563880158,163.19203846136352 193.91164256773948,163.4621776880164 193.8312994355422,163.75094720645458 193.72883283225005,164.06766216215422 193.56407119172917,164.41698012792287 193.43715233090262,164.63588605320732 193.26598652767598,164.92465557143726 193.05581355153578,165.19013722535203 192.82293490769,165.5720582013979 192.60810435874228,165.8654852925742 192.46371959955897,166.1356245197129 192.36998594547939,166.43370918390488 192.2902250098928,166.68521811905012 192.25529321331592,166.96001491892693 192.30128674554487,167.30001773894176 192.37988328791224,167.5282388095636 192.58947406723462,167.84029619273335 192.86659965341107,168.29673833467106 193.15245818873177,168.94879853716162 193.3224595987392,169.35400737773088 193.41037128679096,169.68469505192246 193.4406455105603,169.98743728892197 193.4441386901486,170.18771292249053 193.3672887376795,170.56031875278256 193.25725357853176,170.83045797943547 193.0721150566744,171.20772138274322 192.92773029749,171.52443633823466 192.77985235857852,171.75731498208043 192.42587681993297,172.06471479202625 192.08412741008928,172.30690858162586 191.7412136070253,172.52581450649387 191.24285330926583,172.74937800479404 190.5395598048516,173.01020208569307 190.36722960833632,173.0707505335094 190.0231514120542,173.12664140761598 189.80599207666802,173.17787470960906 189.5189691481281,173.30828674988507 188.7487230336082,173.81130462086955 188.36621986116094,174.14664986786866 187.9097777192243,174.5192556981607 187.4533355772161,174.83597065365214 186.7913780320834,175.2691249312747 186.61788344241938,175.37624910744375 185.50297693500775,175.967760862812 184.61570930202475,176.3357091198801 184.2832750378655,176.43817572344986 183.90601163483538,176.55461504537274 183.63994778424157,176.64776650284165 183.4507338861169,176.750233105995 183.12237499836374,176.95516631278747 182.59374047683386,177.18804495663326 182.05171543321342,177.3510600071171 181.66921226069672,177.38366301718608 181.18598907478616,177.31379942430996 180.76564312257514,177.27188126848714 180.23118663501955,177.20667524814093 179.8562520184268,177.21599039368652 179.54477683221367,177.29051155978658 179.1820683444922,177.48147204780952 178.93347039211852,177.60722651527803 178.31517759270798,177.80284457624728 177.82147486775494,177.90531117967822 177.1903737429329,177.95654448104668 176.0842001846655,177.96120205427061 175.33898852435902,177.99846263686953 174.72651769104462,178.0822989487234 174.40747394897593,178.18010797934684 174.36788457952215,178.1940806981164 174.05466280361898,178.38969875866923 173.76123571230391,178.63189254826884 173.38746548893144,179.01847109733043 173.0672573536435,179.49820110330572 172.67019926588645,180.51820956335018 172.31855251367935,181.11437889194238 172.03560496147614,182.09712676890214 171.7351915109151,183.01001105277757 171.5302583042614,183.37330173682994 171.39402429761162,183.54563193334522 171.1623100470545,183.73659242136816 170.9049791456049,183.98810135672161 170.50442787812077,184.39331019708266 170.01771151255252,184.78454631867413 169.32839072676904,185.1944127317733 168.6658509849584,185.650854873711 168.29091636843611,186.03277584954867 168.17680583288228,186.14921517147155 168.13139449747118,186.3355180868952 168.11509299233256,186.6103148863556 168.14653160918232,186.95963285212426 168.3468072428897,187.37881441125487 168.67982370358916,187.8445716989464 169.00352501860417,188.30567141383042 169.20147186580368,188.6549893795991 169.27249985217665,188.93910132481332 169.2631847064228,189.2697889990743 169.13859463196533,189.63307968361252 168.8707841915427,189.97774007636548 168.41783522926266,190.3456883339194 167.5724857521719,190.81144562161094 167.03919365776508,191.03500911942527 166.4872712717812,191.23994232600955 166.15425481108176,191.39829980375526 165.54993473037138,191.75693291527776 164.83150411410716,192.05501757946976 164.17711512490055,192.32981437913836 163.35505351205558,192.56269302298415 162.0742209709038,192.8235171042996 160.82016947379432,193.03310788389962 160.2915349522644,193.12625934129912 159.88399732553432,193.16351992431444 159.30645828879682,193.1542047783524 158.1362431035412,193.1216017682834 157.63904719886108,193.13091691403721 157.1639747654157,193.1868077886296 155.67005826514506,193.45694701576832 154.63141951359293,193.6665377950907 153.70106933149847,193.7503741067364 152.61469045795795,193.91338915770604 152.18270057362403,194.03448605215883 151.72392964517846,194.25804955025077 151.34084427605217,194.55613421465097 151.16269211351013,194.7843552852728 151.0648830830949,194.91010975315774 150.98104677131045,195.12901567851156 150.97056723240678,195.32929131208013 151.21159662871776,195.91614549443267 151.57721609962502,196.35395734486272 152.6577730070694,197.24355376442298 153.65915117553683,198.0027381432908 153.7953851821866,198.13315018398322 154.50333625947775,198.90164970881307 154.6500498051006,199.21836466430452 154.60347407640083,199.5071341825345 154.30306062583978,199.9589187518729 154.07251076836306,200.2616609888724 153.7185352297175,200.61563652737917 152.1768786074585,201.77537217386993 151.21159662871776,202.53455655252952 149.82713309105463,203.35428937921367 149.1913743933557,203.72223763628176 148.56143766175288,203.99237686314285 148.2389007400959,204.14607676815046 147.78944495740413,204.43950385911853 146.8160122261288,204.99375503167968 145.6574409730655,205.60855465157132 144.68866581459767,205.92061203404705 143.63838313085324,206.13486038638516 142.73015641985472,206.2373269899549 141.19548615691107,206.36773903023092 139.78540596842493,206.42828747756144 138.1866940784931,206.4469177692773 137.07819173371783,206.44226019633098 135.37352006076677,206.4748632066082 135.2896837490517,206.43294505078535 132.4054817449524,205.01704289620307 131.24225291894277,203.9458011343737 129.2674420191306,202.8326412167215 128.90415133480062,202.26907489861475 128.7341499247238,202.02688110901514 127.67455209522554,201.15125740822444 127.30427505158016,200.95098177465587 126.75933902491165,200.6575546834102 126.30755445585085,200.22440040557944 126.22954011016252,200.15453681249514 124.86487125722628,198.9109648545669 123.30924191633653,197.71396862506083 122.41498792396877,196.94081152770107 120.89778355931355,195.31066102078069 120.6288087257411,194.9240824717191 120.43202627162201,194.6539432450662 120.16188704483032,194.2999677060736 119.8870902450229,193.86681342865927 119.60181390631183,193.49886517159115 119.47489504541588,192.83283225012283 119.20009824567788,190.6577457163951 119.1931118863625,190.60185484201094 119.11975511362049,190.587882123519 114.1221794166902,189.57718880902013 108.57966769309142,188.99499219940571 107.09739512508249,187.43936285837714 101.75050146238354,181.608081616479 101.55255461504524,181.52424530483333 101.09494807995769,181.43575142038014 99.20513788507985,181.97602987375532 98.8721214243804,182.0552086128711 98.89773807527283,181.98534501971736 98.90821761431529,181.9294541454026 98.91520397349186,181.88287841635582 98.90588882773802,181.77575424018676 98.90006686164189,181.73849365737965 98.90239564814975,181.63136948121058 98.94198501760353,181.4543817119572 98.96177970226101,181.41246355585676 98.98506756671499,181.37520297263322 99.02698572253783,181.32862724421108 99.06890387843006,181.28670908818003 99.19349395295696,181.179584912011 99.28315223076818,181.10972131871844 99.3041113087143,181.0305425800885 99.27500147823358,181.01191228830322 99.23657650206843,180.97930927844243 99.18534320035296,180.9327335496733 99.1387674715838,180.87684267487268 99.11082203439172,180.83492451904985 99.081712203911,180.77903364445746 99.05609555301855,180.68588218684974 99.03280768870339,180.52286713657412 99.02349254294955,180.38313995012786 99.02931450904569,180.2713582011513 99.04212283438781,180.20615218059686 99.1585621563107,179.9173826624363 99.24938482741054,179.7636827572205 99.48342786447554,179.52148896762088 99.52883920009488,179.47491323926815 99.55096267119082,179.44231022899092 99.55562024406774,179.33518605282188 99.52651041358702,179.19545886637562 99.51253769495626,179.13025284602938 99.47294832550249,179.05573167992932 99.43568774255657,179.0091559515766 99.38561883406032,178.95326507698422 99.307604488372,178.87874391088417 99.2715082986453,178.84614090060694 99.24239846816458,178.8275106093075 99.07589023774544,178.66449555833785 98.98972513959191,178.5620289551845 98.94780698363027,178.48285021606873 98.93383426499952,178.436274487716 98.90705322102666,178.4036714774388 98.90588882773802,178.36641089414584 98.90705322102666,178.32449273832302 98.93266987178029,178.259286718185 98.95945091582256,178.18476555229316 98.98856074630328,178.13353225030008 99.02465693623817,178.0729838029696 99.05725994630718,178.0124353558473 99.10034249534925,177.94722933550108 99.1632197291876,177.8401051591238 99.19000077322987,177.78887185775534 99.21445303083368,177.7376385561787 99.27383708501435,177.63517195253954 99.31109766802967,177.54667806815576 99.37863247481435,177.27188126848714 99.38329004769126,177.21133282087902 99.3565090035796,177.05763291594081 99.2878098036451,176.81078155332548 99.23191892919151,176.67105436729565 99.1911651664491,176.58721805523354 93.4949535379815,176.59187562824928 92.16172330196446,177.96585962680052 91.31986700453139,178.7390167244379 90.30568051058306,179.48888595755187 89.23793192855018,179.94067052695968 88.4158703157052,180.29930363848217 87.64271321827606,180.7930063630188 86.5435260191852,181.64534219970253 85.5549561761293,182.36260842281692 85.12878825789153,182.68398095125468 85.01584211555694,182.77247483570787 84.96344442076104,182.8097354189314 84.90289597329173,182.8423384292086 84.85632024459198,182.88425658482325 84.83652555979569,182.91220202236235 84.7643331802729,183.1497382389462 84.76084000068461,183.2009715408005 84.78994983116533,183.4198774658767 84.79926497684977,183.46645319443766 84.83885434623414,183.73659242136816 84.84816949212679,183.78316815041492 84.86214221068812,183.8390590245215 84.8772793226075,183.91358019062156 84.87495053603024,183.95084077391448 84.86563539027641,183.98810135672161 84.84816949212679,184.02536194001453 84.83186798698817,184.05796495008354 84.80275815650745,184.08591038713683 84.74104531588833,184.14180126193742 84.53960528889233,184.32810417673642 84.36145312641972,184.4771465087283 84.29974028580058,184.52372223777508 84.18446535702752,184.67276456969756 84.23802744511205,184.8963280677895 84.25200016374279,184.94290379641987 84.25898652305817,185.11057641991943 84.23919183833128,185.21304302328096 84.16583506551986,185.34811263698913 83.9900116894163,185.51112768768115 83.88754508626297,185.5856488533648 83.67329673385545,185.75797904988008 83.62555661193647,185.80455477892684 83.59178920844003,185.84647293474967 83.52891197460167,185.95359711084933 83.51028168309401,186.00017283947966 83.5021309305594,186.04209099530252 83.50096653734018,186.08400915133356 83.52541879494399,186.21907876497232 83.53589833391705,186.27031206661837 83.55685741193257,186.32154536819505 83.57898088302852,186.36346352401787 83.6954202049514,186.47990284594076 83.80137998790123,186.59168459484795 83.84446253701269,186.6382603238947 83.87939433358956,186.68017847971754 83.9096685572895,186.72209663554037 83.97021700468942,186.85250867623282 84.06919042832386,187.08538732007858 84.08083436058556,187.1226479028857 84.08898511305075,187.1552509129547 84.10062904531244,187.18785392323193 84.11343737065457,187.26237508933198 84.11343737065457,187.3974447025543 84.0622040691473,187.58840519057725 83.98651850975861,187.85854441771596 83.89103826585125,188.18923209190754 83.7839140896822,188.4873167556831 83.6511732626207,188.7807438472758 83.56966573727469,188.9577316165986 83.54055590679395,189.01828006372088 83.50911729001359,189.0741709385215 83.39733554089821,189.30239200914332 83.27041668000227,189.52129793442776 83.106237236091,189.7728068700588 83.01890774464883,189.89856133773552 82.97349640902951,189.9544522123279 82.9327426463565,190.01965823239652 82.90013963621809,190.06157638842757 82.8768517719029,190.09883697130408 82.84541315491433,190.13143998158128 82.71383672114148,190.2851398865195 82.6626034194954,190.33637318788794 82.05013258618102,190.92788494353383 81.0976589329212,191.5519997089711 80.16730875068795,191.9478934033007 78.67572103692518,192.46022642003902 77.17365378405054,192.86543526040006 75.2232951418422,193.242698663222 73.76198165177938,193.48955002583733 73.62109007225268,193.5128378900831 73.38238946231077,193.59201662899065 72.99348212701892,193.22872594445246 72.43224459542002,193.05173817519906 71.71497837230564,192.8514625416305 71.40408538284093,192.7909140943 70.96627353241088,192.87475040615388 70.46907762773075,193.0843411854763 70.10928012298903,193.03776545642953 69.75181140468577,192.92132613450661 69.37804118131331,192.65118690785374 69.23831399500584,192.32049923338454 69.28372533062517,192.01775699666265 69.81585303174336,191.54734213595538 70.43763901088097,191.17939387888725 70.82421755959555,190.77884261154193 71.15956280673346,190.443497364057 71.27716652194499,190.2618520219961 71.2212756473526,189.94513706650469 70.96510913912225,189.43280405004398 70.69264112582269,189.02759520947473 70.40154282101548,188.79471656562893 70.05106046202759,188.67361967117617 69.59112514043218,188.571153067537 69.20803977130589,188.54786520343004 69.12653224595988,188.46868646438367 69.07879212404089,188.3615622880064 69.0473535070523,188.2963562678684 69.03221639520234,188.2637532575912 69.01940806979081,188.1799169459455 69.02988760876387,188.00292917669213 69.00776413759853,187.70018693969263 68.91927025300654,187.38812955680046 68.75974838197219,187.1273054759014 68.66543253114524,186.93168741486275 68.63865148717238,186.86182382198663 68.62351437532242,186.58702702231804 68.63399391436486,186.52182100197183 68.64913102607603,186.38209381531735 68.62933634134914,186.2842847849021 68.53618488388024,186.11195458887266 68.47447204319171,186.05140614105633 68.38597815859973,185.99551526694978 68.0343314063232,185.86044565344983 67.94467312851198,185.83715778892645 67.53829989493171,185.7672941956339 67.17850239032879,185.72071846700356 66.84199274990225,185.7300336128268 66.68130648557926,185.75797904988008 66.29123475713759,185.88373351755678 65.9407523982191,185.99551526694978 65.59958518491565,186.10729701564873 65.3760216868237,186.19579090051832 65.31314445298536,186.22839391079555 65.03485447358965,186.44729983587177 64.9964294973551,186.46593012717122 64.95334694824363,186.47990284594076 64.91142879242079,186.4938755644327 64.87183942289761,186.49853313724023 64.83225005344383,186.49853313724023 64.77170160611333,186.4892179916946 64.7379342027557,186.47524527292504 64.69601604679406,186.45661498141737 64.65991985706737,186.4286695443641 64.62964563336742,186.35880595100215 64.62149488083281,186.31688779517933 64.61800170110571,186.26565449339444 64.64361835192875,186.10729701564873 64.65526228419044,186.0653788598259 64.68087893494408,185.99551526694978 64.73327662994818,185.88373351755678 64.78450993145545,185.7998972057029 64.9719772397513,185.54373069754195 65.15595136838945,185.26893389787335 65.25376039880467,185.13852185738912 65.33293913771224,185.05002797279712 65.60424275779256,184.86838263031981 65.79636763896532,184.78454631867413 66.1258909200071,184.63084641366652 66.18411058096854,184.60290097640504 66.2306863098071,184.57495553935175 66.27726203850685,184.54235252928274 66.283084004603,184.50509194598982 66.23301509617615,184.42591320735986 66.12356213356864,184.37002233255927 65.90116302876532,184.28152844789787 65.53205037826977,184.165089125975 65.49478979525446,184.15111640748304 65.21300663620107,184.13714368871348 64.81594854837462,184.1697466987825 64.76122206714027,184.17906184453634 64.71464633830172,184.1930345635141 64.60402898247497,184.27221330214405 64.39443820301378,184.48180408195225 64.18717620999104,184.63084641366652 63.858817322237904,184.77523117312853 63.47806073948066,184.8963280677895 63.433813797149966,184.90564321354336 63.372100956530836,184.91495835936658 63.28942903796559,184.9196159321047 63.24751088214275,184.91495835936658 63.20559272618111,184.90098564059704 63.17648289570039,184.87769777607366 63.14271549234275,184.8357796202508 63.06935871953133,184.6541342779817 62.99367316028145,184.3513920412598 62.94942621795076,184.03933465829826 62.96922090267765,183.76453785883788 62.99367316028145,183.67604397424589 63.00648148569297,183.63878339095294 63.03326252973524,183.559604652323 63.04257767548907,183.51768649629196 63.064701146654414,183.45248047594572 63.16251017706964,183.17768367627713 63.18463364830439,183.13110794723036 62.91216563500484,182.9075444491384 62.1075699205177,182.71658396153188 61.24475454506911,182.72589910728573 60.129265840978455,182.82370813749273 59.08829830298785,182.8423384292086 56.80026562727254,182.8702838663313 54.54832914128392,182.75384454440842 54.141955907773045,182.75384454440842 53.669212260696725,182.71192638858557 52.983384654570926,182.60945978536284 52.33132445187216,182.46041745316273 51.65481199143079,182.27411453794733 51.09706763942017,182.10178434164024 50.354184765552155,181.89219356210964 49.26431271235394,181.49629986778004 48.601772970612714,181.19355763057234 47.966014273052565,180.74643063459666 47.423407032753104,180.50423684499705 46.4464811218895,180.09437043148148 45.80606485131362,179.60998285249048 45.77462623432504,179.55409197789808 45.75599594281738,179.52614654084482 45.67448841754076,179.4329950831677 45.43695220081807,179.21408915788328 45.406677977048716,179.17682857507614 45.381061326225684,179.13491041925332 45.202909163683664,178.8368257550613 45.16448418744911,178.75298944320744 45.09578498751461,178.58065924648395 45.05736001128006,178.53874109066112 44.947907048741946,178.36641089414584 44.91413964538431,178.30586244681535 44.867563916545755,178.24997157222296 44.84427605216118,178.21271098941585 44.81400182846123,178.16613526057728 44.791878357365285,178.12887467777017 44.76742609976147,178.09161409447725 44.71852158455386,178.02640807433923 44.6311920931117,177.91928389817016 44.399477842485155,177.69572040014765 44.344751361111996,177.63982952555526 44.163106018912295,177.48147204780952 41.59329018407419,175.71159435444284 37.95805455364169,172.80061130637068 37.21517167977367,173.4340412175618 36.13577916554851,174.36089822041498 34.96439958700428,175.3017279413437 34.015419113332754,175.95378814404245 32.890615263627076,176.7269452414716 31.879921949267022,175.94447299828863 32.34800802346643,175.41816726326658 32.026635494959265,175.1526856093518 31.38738361760262,174.64501016583742 31.891565881528717,173.57842597702378 31.91368935262466,173.54116539373084 31.78444170535966,173.50390481092373 31.73903036974033,173.4945896651005 31.60745393596747,173.499247237908 31.435123739591003,173.53650782120096 31.32101320403717,173.5551381125004 31.21039584821043,173.5597956852385 30.820324119907564,173.5597956852385 30.727172662299854,173.57376840379985 30.600253801403905,173.5923986953075 30.476828120096243,173.60637141407707 30.20785328652378,173.5830835495537 29.796822480066588,173.48061694660856 29.72812328020149,173.4619866551009 29.371818955048052,173.4340412175618 29.338051551690416,173.44335636331562 29.287982643263575,173.43869879057752 29.24373570093288,173.42472607180795 29.19483118579467,173.39678063475466 29.13078955873708,173.34088975995408 28.866472297902728,173.2244504380312 28.692977708237628,173.15458684515508 28.356468067880485,173.01951723165513 28.01180767498874,172.8332143164397 27.68927075333175,172.66554169314836 27.345774753659235,172.53512965224772 27.086115065701797,172.4373206220407 26.941730306517417,172.36745702874816 26.606385059379505,172.16252382216388 26.563302510268038,172.14855110388015 26.365355663068534,172.09266022907954 25.85069386016938,171.99485119866432 25.489731962139025,171.94361789687943 25.435005480974077,171.93430275133383 25.20096244383967,171.87841187674144 25.129934457397308,171.85512401242624 25.07753676253201,171.83183614818049 24.938973969513178,171.76663012783428 24.88657627464788,171.73402711776527 24.849315691563152,171.71073925303367 24.768972559505762,171.6595059516652 24.623423407102155,171.54306662974233 24.522121197029247,171.4732030363804 24.456915176683026,171.42662730781944 24.37191447174872,171.3893667247347 24.304379665033448,171.37073643301883 24.04471997707601,171.34744856870367 23.644168709730682,171.2915576943889 23.27622045238496,171.19840623692 23.187726567792968,171.1704607994503 23.145808411831325,171.15183050815082 22.841901781612595,170.91429429108112 22.811627557912644,170.89566399957346 22.769709402089806,170.86771856272838 22.73361321222431,170.844430698205 22.44717248029401,170.66744292895163 22.336555124467267,170.59757933558967 21.993059124794755,170.49045515962885 21.52730183710321,170.40196127503685 21.055722583315518,170.30415224441342 20.67845918028537,170.23428865125967 20.397840414520616,170.18771292249053 20.315168495955366,170.17374020372097 20.100920143547853,170.11319175639048 19.977494462309593,169.89894340405237 19.887836184498372,169.66140718746848 19.609546205033272,169.02331970326168 19.29399564262225,168.07783240910902 18.754881582119285,166.54549093260383 18.420700728200604,165.64657936749796 18.406728009569857,165.59068849290557 18.386933324842968,165.3019189744674 18.417207548542915,165.1435614969299 18.480084782381276,164.78958595821493 18.60933242971568,164.43561041963875 18.664058911019435,164.25862264996894 18.789813378696152,163.92327740317805 18.884129229523094,163.59724730165516 18.981938259938318,163.3084777832864 19.028513988638068,163.12217486820978 19.105363941107175,162.77751447524864 19.14146013097267,162.64710243455622 19.1589260291917,162.60518427873336 19.18337828679551,162.50737524831814 19.2031729715224,162.45148437400337 19.226460835906977,162.38627835365716 19.302146395226256,162.0695633981657 19.333585012076032,161.96243922178843 19.358037269679837,161.8879180556884 19.240433554537724,161.81339688958835 18.999404158157347,161.6550394118426 18.52666051115043,161.41750319539753 18.084191087912867,161.19393969737501 17.718571617005598,160.99366406332064 16.86157820772256,160.4953037658377 16.461026940238426,160.2670826945218 15.434032120947974,160.07612220649887 14.876287768937349,160.00625861362275 14.055390549311598,159.60570734627743 13.288055417839777,158.09199616127992 12.625515676167959,157.0719877010272 10.988378809862775,155.84238846145215 10.786938783005585,155.56759166178352 9.579463014665254,155.7026612754223 7.050400942500165,155.17635553998383 6.255120373766852,155.4371796212993 5.125658951114856,155.94019749207558 4.226747385870174,156.2522548747595 3.680646965982434,156.49910623716661 2.928448946360589,156.65280614238245 2.3823485265422524,156.69938187073518 1.174872758201922,156.4339002168204 0.8325411517486366,156.23362458304362 0.1921248811727623,155.7958127328218 0,155.1297798115617 0.2747967997380115,153.87689270753262 0.29808466419199203,153.77908367690918 0.604320080918586,152.52619657322714 0.5787034300261479,151.70646374702883 0.5787034300261479,151.0683762626138 0.7766502772256512,150.4023433411455 1.3728196054708288,149.54534993186246 1.686041381512796,149.2519228408944 2.927284553210763,148.09684476741936 4.495722219442638,145.68887959005406 4.67736756164234,144.2543471439641 4.722778897261669,142.9548843113047 4.767025839661769,142.01405458989018 5.247920239064483,141.6926820616606 5.565799587983365,141.51569429240723 5.8371032079942875,141.32007623116036 6.163133309447772,141.15240360786902 6.5112868819277985,140.9940461301233 7.538281701287655,140.46774039510126 7.73040658252982,140.35595864570826 8.405754649751964,140.43513738482403 16.358560336946287,140.50500097770015 16.72417980778415,140.29075262536205 17.17479998362572,140.13239514761634 17.529939915559925,139.98801038864016 17.706927684813312,139.9460922328173 19.87968543196377,138.81895959660378 20.204551140128622,138.683889982965 20.41297752637059,138.5907385255655 20.465375221235888,138.5907385255655 20.885721173308106,138.5581355152883 21.00332488845022,138.55347794248078 21.374766325384225,138.586080952758 21.421342054222784,138.5907385255655 21.784632738552787,138.62334153563452 21.819564535199056,138.62799910837265 21.945319002875774,138.6512869726878 22.053607572194654,138.683889982965 22.13511509761008,138.71183542043474 22.27484228391754,138.74909600331125 22.38778842618274,138.7630687220808 22.455323232898014,138.7630687220808 22.886148724012692,138.6745748372112 23.080602391623913,138.60471124433508 23.14115083895441,138.5907385255655 23.193548533958516,138.5814233798117 23.25991894738516,138.57676580679598 23.394988560746302,138.586080952758 23.753621672268793,138.63265668138837 23.83396480453439,138.63265668138837 23.939924587414815,138.6186839626188 23.977185170360734,138.609368816865 24.19958427523345,138.53950522398887 24.238009251468,138.52087493220358 24.498833332575266,138.31128415267298 24.527943163055987,138.28799628835782 24.58732721723666,138.26470842432025 24.73054758327121,138.17621453924244 24.897055813551535,138.09237822759675 24.993700450747532,138.05511764451202 25.071714796435867,138.0178570614967 25.13109885061654,137.98991162444344 25.193976084454896,137.9526510411505 25.37329264021614,137.79429356340478 25.408224436793006,137.7384026890206 25.556102375704477,137.46360588914376 25.575897060361964,137.43566045188228 25.628294755296665,137.37511200475998 25.65973337214644,137.34250899448278 25.967133182092265,137.10497277762127 26.282683744503284,136.8627789880217 26.333917046079954,136.82551840521455 26.474808625606645,136.76031238486834 26.54350782554115,136.69976393746845 26.597069913625674,136.64387306294546 26.642481249245005,136.60661248006895 26.73563270671391,136.54140645951452 26.80316751356799,136.50880344972313 26.93357955405222,136.47154286643018 27.346939146809063,136.4109944190997 27.723038156619985,136.30852781566875 27.98269784450802,136.24332179560014 28.097972773281082,136.23866422258442 28.21208330869611,136.25263694135396 28.777978413241335,136.13154004641535 29.16572135531395,136.12688247367726 29.513874927863377,136.1408551923774 29.731616459789773,136.16414305648436 30.034358696928084,136.18277334799203 30.374361516804104,136.18277334799203 30.568815184415325,136.18743092100775 30.77025521141132,136.22003393128497 31.11375121101443,136.19208849374584 31.623755441036675,136.1082521821002 34.20405081484783,134.6923500273097 35.971599721706646,136.24797936833824 36.45249412124817,135.79619479941624 36.694687910847776,135.38167081309317 36.77153786331688,135.17208003397897 36.84955220900521,134.98111954595603 36.921744588528,134.78550148491738 36.94852563257026,134.55728041408733 36.9298953410626,134.343032061541 36.85653856825118,134.20330487530296 36.74708560564367,134.07289283509635 36.65509854139399,133.979741377211 36.527015287209416,133.8260414722728 36.50489181611347,133.74220516062712 36.383794921313665,133.45343564218896 36.25687606034832,133.17398126978225 36.21728669089454,133.07617223936703 36.22660183664836,132.77808757496683 36.28249271124076,132.66164825304395 36.3931100670675,132.39150902632164 36.403589606040555,132.2238364026139 36.27899953151366,131.93040931143761 36.225437443429136,131.77670940670762 36.2638624198025,131.4739671694999 36.31509572130976,131.30629454579216 36.310438148432844,131.0221826005779 36.302287395967646,130.7473858009093 36.31160254172148,130.4446435639098 36.32091768747531,130.38875268938682 36.47345319912488,130.09066802519482 36.48742591775563,130.04409229614805 36.49906984994792,129.94628326594105 36.627153104132496,129.65285617455658 36.734277280301555,129.35011393783466 36.809962839482026,129.0613444191883 36.82859313098969,128.9681929617888 36.81927798523586,128.6887385893127 36.825099951401405,128.41394178922766 36.879826432705165,128.22763887442864 36.972977890174064,128.07393896942102 36.98578621565499,128.04133595914382 36.99510136140882,128.00873294935244 36.998594540997104,127.97147236605949 36.95784077832409,127.68270284762133 36.882155219074214,127.4637969223369 36.87516885989765,127.39859090219889 36.8774976461973,127.11913652979217 36.82859313098969,126.83036701135401 36.82742873777046,126.76050341799207 36.80763405304357,126.69063982490773 36.81811359201663,126.46241875407769 36.96249835133982,126.18762195440908 37.007909686750935,126.13173107981669 37.027704371477824,126.1037856424858 37.062636168124094,126.01994933084012 37.059142988466405,125.9221403004943 37.04866344949335,125.88487971720137 37.0265399782586,125.84761913439425 36.955511991885636,125.76378282254038 36.91010065633571,125.72652223924743 36.82393555811277,125.67063136507147 36.60386523967852,125.55884961574789 36.50489181611347,125.51693145992505 36.46879562624797,125.4983011686256 36.438521402686824,125.4750133041022 36.40475399919038,125.41912242950983 36.40242521275192,125.35857398217932 36.40824717891747,125.32131339930281 36.41989111104036,125.2887103890256 36.438521402686824,125.26076495155588 36.47927516522103,125.20953164997923 36.514206961797896,125.19090135867977 36.550303151593994,125.18158621292594 36.64927657522844,125.17692863991022 36.69818109043606,125.15829834861077 36.74475681920521,125.12569533833356 37.04400587661643,124.92541970476499 37.40846095423507,124.781034945303 37.75079256061895,124.6273350403648 37.81134100808825,124.58541688454196 37.89750610631119,124.52021086419573 37.932437902888054,124.49692300008877 38.257303611052905,124.34322309515056 38.57634735312161,124.18952318993475 38.618265508944454,124.15226260712762 38.84765097313254,123.89609609875848 39.09450233560906,123.69116289238241 39.39025821329319,123.48622968565931 39.41936804377391,123.46759939435987 39.45080666076249,123.4210236653131 39.44614908788557,123.36979036373643 39.32155901335868,123.08102084529827 39.31573704726254,123.04376026249115 39.316901440481764,122.97855424214494 39.36813474219724,122.81553919117528 39.38909382007396,122.75033317124549 39.404230931923934,122.71773016096826 39.43450515562388,122.68978472349856 39.47525891836629,122.65718171342955 39.79197387392714,122.46156365287672 40.12615472784583,122.31252132088483 40.51971963594518,122.22402743580702 40.744447527256355,122.1541638429309 40.86903760171384,122.08895782258467 40.91910651014068,122.05169723970816 41.02157311350223,121.96786092764607 41.15431394056372,121.83744888743945 41.16712226590583,121.80484587716224 41.21951996070173,121.78621558558518 41.18458816412486,121.72566713804648 40.96335345254078,121.46950063009373 40.877188354317845,121.19936140323263 40.87835274746767,120.99908576945587 40.9156133305524,120.92456460335582 40.72348844931023,120.86867372876343 40.335745507307024,120.73360411554108 39.9759480025653,120.56593149204154 39.68601409097732,120.39360129531805 39.3704635285663,120.15606507866477 39.085187189855226,119.93715915338034 38.79176009860955,119.72291080125044 38.484360288802534,119.51797759473556 38.182782444952856,119.3177019609588 37.919629577407136,119.12208389992014 37.60990098109225,118.94509613066676 37.480653333827256,118.87523253751301 37.2850352729274,118.76810836134396 36.926402161404916,118.57714787359865 36.579412982074714,118.40947524982147 36.26502681288292,118.26043291762137 35.93899671149884,118.13002087720655 35.56755527456483,117.97632097240715 35.17981233256162,117.86919679623809 35.136729783519556,117.86453922329177 35.03077000056973,117.86453922329177 34.99933138358114,117.83659378596087 35.525637118742,117.67357873526883 36.16372460281001,117.63631815239232 36.94852563257026,117.41275465436978 37.3292822152581,117.17056086470078 37.89051974692641,116.79795503447814 38.455250458321814,116.47658250576276 38.90470624087475,116.16918269581693 39.32970976596269,115.95959191670275 39.64409593515448,115.87575560484888 40.22512815148028,115.65684967970326 40.61985745286827,115.43794375421061 40.99595646260979,115.45657404571827 41.67246892305116,115.65219210675693 42.13240424457716,115.74068599134893 42.18480193944246,115.75000113717216 42.47822903075753,115.79191929320321 43.208303579144626,115.84781016751798 43.81611683965149,115.8524677403255 44.535711849134934,115.92233133340982 44.926947970726424,115.72205569963305 44.93276993689197,115.44260132743455 44.97585248600344,114.66478665657324 44.94441386901486,113.55162673933746 44.44954675084259,113.22093906514587 44.136324974939434,112.82970294327677 43.87782968020122,112.07517613721646 43.46330569422515,111.68859758857128 43.172207389417935,111.3625674869096 42.850834860910766,111.02256466689477 42.679669057614724,110.7291375757185 42.42583133582283,110.45434077604989 42.481722210345815,110.29132572549665 42.513160827265,110.22611970494222 42.711107674603305,109.97926834260451 42.96261660995674,109.72310183423535 43.25487930798318,109.49953833614342 43.292139890998506,109.49022319038959 43.346866372302266,109.47159289909013 43.74043128033222,109.38309901422053 44.0944068191166,109.30392027559057 44.14214694103558,109.28063241106719 44.27954534083518,109.1921385261976 44.36571043912752,109.11295978756765 44.56132849988857,108.8335054146751 44.70105568619603,108.54007832370704 44.818659401338145,108.26528152403843 44.869892703053615,107.9858271511459 44.85475559120364,107.8973332664845 44.86407073695747,107.39897296900156 44.99681156401896,106.5699249967718 44.92112600463028,105.89457692975787 45.17030615361466,104.67429283572841 45.41482872958332,102.45728814638606 45.838667861382625,101.01344055454227 46.37661752866636,99.68137471181386 46.90059447731935,99.03862965459132 47.35237904638015,98.34465129606971 47.59457283597975,97.82766070680151 48.0079324288754,97.1010793379333 48.331633743751624,96.8914885584027 48.86376144493921,95.83421951534288 49.091982515908064,95.41038038347418 49.81739949148765,94.06899939520014 49.11876355995033,91.29774353336605 48.67396535027431,89.91910196179907 48.52375862499379,89.8725262327523 47.981151384763734,89.57909914157604 46.59435906066216,88.80128447113115 45.779283807201956,88.36813019371682 45.63024147514066,86.92428260187303 45.70243385473285,85.02399286823034 45.81654439028668,83.7478178998861 45.831681502067255,82.97466080224874 45.66168009205984,82.55082167038003 45.123730424776106,82.3598611823571 44.1957090291201,81.68917068808126 44.05365305630478,81.54944350212082 44.16776359178921,81.41437388862087 44.28769609343919,81.11163165148255 44.34708014755045,80.80888941448305 44.3610528662506,80.77628640448344 44.40180662885421,80.7017652383834 44.47632779495426,80.62258649926763 44.63235648633093,80.45025630296055 44.90366010641125,80.2220352319223 45.009619889361076,80.16614435732991 45.123730424776106,80.12422620150707 45.47304839054476,80.03573231712329 45.858462546109514,79.93326571348413 46.20894490516681,79.80751124580742 46.50470078285094,79.58394774771548 46.76901804354649,79.37901454140881 47.05429438225756,79.17873890756265 47.29998135158425,78.96449055529393 47.58060011734901,78.75024220274761 47.8751916018139,78.57325443370244 47.93574004928321,78.50804841335622 48.11505660504446,78.24256675923323 48.30019512690185,77.9631123865489 48.53540255711667,77.73954888845697 48.78807588568934,77.52530053639647 49.039584821042766,77.27844917357292 49.25849074625779,77.04557052972716 49.47041031215745,76.77077373005855 49.51349286133832,76.7195404286901 49.54609587147673,76.68227984539716 49.58568524093051,76.65899198135959 49.63458975613812,76.64036168978252 49.73705635936086,76.63104654382049 49.784796481418645,76.62638897108238 50.132950053968074,76.7241980014282 50.181854569175684,76.7241980014282 50.228430297875434,76.7195404286901 50.428705931582805,76.6636495538895 50.74425649406323,76.49597693038994 50.83857234475136,76.4540587745671 50.88514807358992,76.44008605579755 51.296178879908304,76.41214061874427 51.473166649300495,76.40748304593676 51.53022191704271,76.41679819169059 51.56981128649649,76.44008605579755 51.58844157800415,76.47268906586656 51.59309915081166,76.5099496491595 51.58960597122338,76.63104654382049 51.59426354410029,76.66830712711342 51.609400655950274,76.70556770971233 51.65714077793866,76.78008887581238 51.67460667615769,76.81734945910532 51.6792642490346,76.85926761492816 51.67227788978863,76.89652819773526 51.65131881177311,76.9337887810282 51.522071164508105,77.06885839445876 51.49645451368507,77.10611897747407 51.47665982888878,77.1480371330887 51.46501589669649,77.18995528911975 51.463851503546664,77.2318734451508 51.47665982888878,77.26913402802731 51.503440872931044,77.30639461104263 51.54070145601577,77.33899762131985 51.58494839834646,77.35762791289692 51.79686796417671,77.39488849549582 51.85159444554987,77.41351878700348 51.89584138794997,77.43680665152687 51.92029364541497,77.4740672348198 51.92728000473035,77.52064296317253 51.84926565904201,77.79078219031125 51.84227929979605,77.83270034634229 51.86207398445353,77.86530335641129 51.906320926784225,77.87927607469503 51.9575542284997,77.88393364791895 52.009951923295596,77.87461850216512 52.35111913659906,77.7535216070183 52.515298580510326,77.66502772256513 52.7807802344251,77.45543694324273 52.828520356413485,77.42283393296552 52.88091805127878,77.40420364124965 52.94030210545946,77.3902309226883 53.00201494621739,77.38557334995019 53.28729128485906,77.39954606871974 53.33503140684744,77.39488849549582 53.37811395588951,77.37625820419636 53.41304575253578,77.35762791289692 53.44099118972787,77.33434004837353 53.46195026774339,77.30639461104263 53.52832068117004,77.08283111295069 53.55626611843152,77.05488567548099 53.771678864058266,76.89652819773526 54.03832491119228,76.6962525639585 54.067434741673,76.65433440813567 54.070927921330686,76.60775867950531 54.04880445023474,76.51926479491333 54.05229762982302,76.47268906586656 54.09188699934621,76.40282547299044 54.33524518216504,76.1792619748985 54.61702834121842,75.99295905961367 56.01779338388134,75.96501362235217 57.174035850645005,75.85788944618312 57.43369553846364,75.83460158207616 58.1300026836319,75.65295623987646 58.15911251411262,75.43870788753834 57.52684699607135,74.92637487080003 57.6013681621714,73.70609077718699 57.66890296881727,72.8025216391348 57.665409789090184,72.03867968704304 57.62116284675948,71.27949530838345 57.14376162694506,70.32003529566946 57.11465179646433,66.93863738716765 56.6174558917842,64.68902968733987 56.58368848842657,63.10079733645051 56.71177174261115,61.15858944684617 57.684040080597846,59.64487826184865 59.01028395729952,57.96349445335158 60.18282792906298,57.306776677637096 62.20188577120583,56.48704385116117 63.81922795271472,56.18430161423107 64.44334271822139,55.98868355319241 64.84505837885534,55.751147336816736 65.23396571407778,55.27141733014743 65.89068348972286,54.712508585264594 66.68363527215652,54.419081494088324 67.54761504068554,54.07907867407349 68.26255247729206,53.785651582619614 70.90223190528388,53.01715205778976 72.28553104979719,52.58865535311354 73.116907808396,52.276597970429606 73.8155437399333,51.99248602500716 73.85396871609846,51.97851330623761 74.00533983452881,51.91330728589139 74.69582501353152,51.56398932012273 75.51322905349959,51.14015018867044 75.82761522269138,50.78151707693974 76.64385486937081,49.87794793909576 77.08050232658164,49.62643900367292 77.80242612250353,49.46808152551078 79.22647902955103,49.22123016338128 80.17429511007272,48.48999122177496 80.78327276366001,47.79135529023764 81.210605075117,47.362858585145 82.00355685748127,46.97628003677743 82.40410812482659,46.60833177943171 82.70568596860687,46.072710898239414 82.82561847018744,45.38339011245593 82.50075276202259,44.66146631660344 82.0897219556348,44.037351551374385 81.60067680362808,43.329400473875026 81.56690940027045,43.07789153852159 81.61581391547806,42.905561342006315 82.71616550757993,42.239528420538 83.96788821825095,41.78308627860029 85.21961092892198,41.19623209645596 85.9345483655979,40.59074762231814 87.4191497201147,39.519505860488785 88.64991335277021,38.65785487839823 89.66177106028009,37.81017661493843 90.46636677490604,37.10222553736966 91.3687715198084,36.2685199924018 92.18617555956827,35.74221425737976 92.88248270480594,35.16933279351915 93.4786520329817,34.45206657068239 93.4902959651046,34.35425754005895 93.5228989753818,34.11206375045935 93.41926797880103,32.211774016608445 93.53454290743528,30.88436574689575 93.53570730072391,29.49175145676743 93.48214521256999,27.987355417593147 93.4215967651701,26.627344137117415 93.14912875193994,25.830899175164873 93.13282724680133,25.672541697419152 92.69268661000223,24.275269834344517 92.2804914103952,23.525400601230533 92.08021577668784,22.873340398739984 90.5897924560055,20.470032794182206 89.24841146752325,17.382061976787263 91.3932237772734,14.17299426459252 94.82701938084872,11.154887040351309 95.10414496702519,10.707760043959215 95.3381880040208,10.619266159506031 95.59551890547037,10.414332952991154 95.73408169862802,10.125563434344784 95.83072633582401,9.836793915906624 95.85168541383953,9.780903041522444 95.91689143397754,9.31980332663841 95.94833005096612,9.03103380820025 95.96579594918515,8.975142933885474 95.98675502720067,8.742264290039703 96.0077141050774,8.686373415447314 96.02401561014659,8.653770405170098 96.23244199638856,8.425549334548258 96.44901913516513,8.169382826179103 96.68306217223014,7.931846609317607 96.91826960258376,7.7036255384875565 97.1336823480717,7.470746894641785 97.54471315452889,6.953756305373573 97.69957745268633,6.781426108858298 97.9161545913935,6.525259600489141 97.98252500488954,6.408820278566256 98.11526583188163,6.152653770197099 98.12690976414332,6.120050760128095 98.13040294380102,6.064159885813319 98.14554005565098,5.775390367375158 98.17697867250077,5.4866208489369965 98.1862938182546,5.197851330498835 98.20375971661242,4.909081812338287 98.25266423182003,4.620312293691916 98.2712945233277,4.536475982046245 98.28643163517768,4.420036660123358 98.35047326216586,4.131267141685197 98.3725967333312,3.9309915079084297 98.41451488922345,3.642221989886688 98.44246032662375,3.469891793440816 98.45177547230817,3.381397908571213 98.48088530278889,3.092628390133052 98.52862542477727,2.803858871972504 98.55657086196938,2.515089353534343 98.57054358060012,0.9594600127139858 98.54725571621555,0.8150752534602037 98.53095421114634,0.7545268059214963 98.5053375603927,0.6986359315373174 98.4773921230618,0.6101420469453271 98.42615882148515,0.5263057350914458 98.40752852997748,0.4983602979687596 98.19910214373552,0.2375362166532847 98.17814306572,0.20493320637607004 98.15252641489695,0.14904233220010088 98.13622490989715,0.09315145767711548 98.07451206920862,0 101.84831049286817,2.5197469262724517 104.42627708010207,4.741409188838734 108.1348694834154,6.194571926436354 110.72564439619961,7.58718621656467 112.8227165841002,8.113491951378503Z"/></svg>