<svg xmlns="http://www.w3.org/2000/svg" width="256" height="256"><path d="M51.850975344612266,5.986425755122069 57.462211141760726,7.249057644486256 57.57296832510633,6.8503317843265545 57.5591236770334,6.78941533361438 57.75433321253458,6.794953193190136 58.13367656521064,6.761726038128692 58.73038089012302,6.711885305247701 59.327085214870365,6.66758243219003 60.28098145572366,6.700809586921393 62.257997176969695,6.722961023821571 64.9023249273758,6.756188178883017 66.29232757732748,6.783877474863829 67.96337657980925,6.778339615288072 71.35946871169605,6.800491051940688 71.75265671219748,6.783877474863829 72.14169131840906,6.783877474863829 73.9110373210368,6.806028911268883 76.342157493744,6.861407502900425 78.73589711701737,6.905710376288178 78.731743722645,6.966626826752792 79.65102834364608,6.9777025450791 81.99215830486949,7.0164675593862205 82.1859833756624,7.022005418714415 82.70792660170717,7.033081137040724 83.10942139111836,7.038618996286399 84.54649584395686,7.055232573445779 86.81978703051416,7.060770433021536 89.49457300623509,7.099535446751012 90.90118923359373,7.143838320138766 92.53901108109656,7.165989756791382 96.0735496919797,7.160451897793269 100.05388596549673,7.210292630426697 103.13570458979201,7.254595503236808 106.29228431278989,7.293360517543928 111.88829099723966,7.332125531603486 119.5042318113674,7.177065475365252 130.13830586933165,7.105073305831645 131.12127587087403,7.027543277712529 131.17942339208713,7.0164675593862205 132.1845448301171,7.010929700305587 132.289764154217,6.999853981979278 132.33683595710383,6.9887782634054085 132.37836990091,6.972164686328549 132.43374849245902,6.961088967672159 132.49466494333623,6.961088967672159 132.54035228143226,6.961088967672159 132.58188622515593,6.9832404046548575 132.620651239298,7.010929700305587 132.91000438057281,7.298898376872123 132.95015385950566,7.332125531603486 132.99168780331186,7.354276968256102 133.03599067653457,7.37642840490872 133.1024449864099,7.381966263989353 133.61885035345654,7.37642840490872 133.86113169184452,7.370890545910607 134.0328053258198,7.337663391179243 134.1407935795013,7.304436235870236 134.24878183326533,7.293360517543928 134.68073484799135,7.293360517543928 135.11822572188052,7.287822658463294 135.59448160982924,7.260133362812565 136.05550838516183,7.221368348505444 136.51099730133126,7.19921691210039 136.93325906252178,7.149376179384441 136.9789464006178,7.143838320138766 137.47181586622102,7.1272247424842625 137.83593010619842,7.132762602060019 138.296956881531,7.1826033344458855 138.35510440274413,7.210292630426697 138.4617081915523,7.237981925829866 138.6306128960285,7.265671221563116 139.06395037562785,7.260133362812565 139.5000567846437,7.260133362812565 139.97908160225654,7.260133362812565 140.34181137744315,7.271209081138872 140.7834556457872,7.348739109505551 140.8942128290503,7.359814827584298 141.3870822944885,7.381966263989353 141.8522624643585,7.398579841891418 142.33405621138786,7.409655560217726 142.7646247613231,7.415193419215839 143.1965777760491,7.409655560217726 143.57453666393437,7.337663391179243 143.79743549525134,7.315511954444106 145.9655073576262,7.071846151347844 148.12250350175725,9.143005477954892 149.32698786974328,10.964961142632605 150.93850488613862,12.869984694757632 151.48675294329087,13.855723626211672 151.69303819720088,15.506005656831608 151.75810804228541,17.34457489858618 151.74011000000516,17.798679350129863 151.18632408368975,19.277287746692018 150.17151139204177,20.850039748945278 149.12347154541484,21.940998003921603 148.92549308033207,23.38084138667176 148.922724150833,24.26136099353075 149.030712404432,25.0311234172917 149.10962689750696,25.357857107835272 149.5761915320852,25.994710911515476 150.28088411051405,26.736784039295614 151.50059759119875,27.351486406570764 153.56760352392857,28.409217506568165 155.4712426112628,29.671849395684788 155.58199979444336,29.743841565218396 156.04441103456674,29.38941857844645 159.52357105381833,26.62602685595001 161.19600452109088,25.391084262566636 163.2200920452237,24.42195890901466 165.24141063977498,22.52247321621783 165.30509602015124,22.51139749789152 165.74397135891374,22.38956459646717 166.22299617652658,22.36741315973203 166.66048705033322,22.36187530073392 167.12843614970228,22.3231102864268 167.16858562863513,22.31203456810049 167.23780886817457,22.273269554040933 167.35687284009987,22.184663807347945 167.6545327702019,21.90777084919024 167.96326841846525,21.66964290533965 168.32046033448867,21.464742115972864 168.7205706591091,21.315219918567703 169.1400634906355,21.16015986232947 169.20790226538412,21.13247056634866 169.67169797029828,21.06601625639081 169.8890589424521,21.060478397062614 169.96105111165562,21.060478397062614 170.03165881598582,21.06601625639081 170.09395973157132,21.08262983371523 170.15626064707428,21.11031912944848 170.2157926331607,21.143546284757488 170.51899042226088,21.420439242915194 170.63943885905948,21.51458284835873 170.99939970474702,21.769324370111384 171.3842809165037,22.01299017353773 171.6750185226518,22.262193835714623 171.98098524141608,22.500321779812772 172.33817715743953,22.69414685052317 172.73551855239583,22.893509780396716 173.09824832749993,23.103948428514055 173.47897614496677,23.31438707638383 173.58696439864826,23.364227809017258 173.62711387758114,23.37530352759113 173.67557014534125,23.386379245917436 174.03553099086375,23.48606071068917 174.11859887831108,23.502674288096113 174.5062490198144,23.497136429098 174.9714291894368,23.474984992362863 175.16248533056563,23.45837141503844 175.6359722890153,23.447295696712132 175.68581302148368,23.452833555462682 176.11776603637475,23.55251502048198 176.16345337438827,23.563590738808287 176.20775624761097,23.569128598136484 176.7144703610396,23.558052879810173 177.21287768580598,23.55251502048198 177.6891335737547,23.61896933052235 178.10031961670143,23.75187795052057 178.48658529333142,23.895862288680057 178.8493150684355,24.067535922985396 179.18989340696947,24.28905028951156 179.54293192870307,24.516102515283404 179.87520347840982,24.72654116315318 180.30438756363677,24.925904092944208 180.34730597206868,24.936979811270515 180.38883991579235,24.94251767059871 180.84155990246273,24.986820543656382 180.89555402922096,24.99235840323214 181.76776684741773,24.975744825330075 182.2426382707407,25.00897198055656 182.63997966569704,25.014509839637192 183.04562784939807,25.06435057202306 183.47896532883237,25.191721332775607 184.5159294572155,25.02004769896539 184.875890302738,24.682238289765426 185.5778139517503,23.530363583829363 185.82286421963735,23.192554175207043 186.36557441762648,23.087334850859552 188.23044849090115,22.93781265345439 190.90108107233223,22.69968470935624 192.195555651637,22.44494318785115 192.87117446954178,22.317572427098604 193.69769994964255,22.300958850021743 194.27502176740137,22.372951018812667 194.4896138100561,22.4726324835844 196.6853749681642,24.853911924153284 198.3522705762736,24.804071191519856 198.6693130133642,24.770844036705974 205.08492285387825,24.34996674022374 211.5822161171314,24.37765603620455 212.13738649815508,24.183830965164073 212.41012606194042,23.663272204075145 213.7267520779803,21.891157271535736 214.4895921777873,21.409363524506364 214.6474211638547,20.68390397388561 216.22432656056282,18.36907884385222 218.07674045072042,16.868319010885006 223.94825562837207,15.733057882273366 228.69696986085927,16.303457375995723 229.18014807276197,16.292381657669413 231.12809003340143,16.259154502938053 231.17377737149744,15.600149262275146 231.0076415966028,15.051901205287926 231.0076415966028,14.614410331316229 231.2263870335474,14.254449485546168 231.72756328781287,13.689587851152007 232.31180742952563,13.124726216510284 233.19371150125792,12.964128300696293 234.75123439089504,12.493410271828191 235.16518936350585,12.482334553501882 237.97842181830563,13.080423342874969 239.940208426853,13.385005597013487 242.76866999435143,12.316198778442217 243.01925812148417,12.310660919609145 245.30085609670368,12.670621765214165 246.74485287349611,13.357316301032677 247.5949142551228,13.772655738269236 248.4823561859357,14.21568447148661 249.36702918733212,14.5645695986828 250.03434121640967,14.81931112018789 252.01827926160965,15.411862050562863 252.84065134733805,16.037640136411884 254.5975371669312,17.94266368828935 254.39817423697514,20.218723804263185 254.3095684904472,21.414901383587 254.35802475804226,21.525658566685042 254.38294512427646,21.581037158646666 255.12363378743086,21.835778680151755 255.61373432337,22.52247321621783 255.75910312648531,22.910123357473577 255.80755939399788,24.22259597922363 255.7231070418423,25.396622122142393 255.87816709841061,25.817499418129504 255.9986155351267,26.238376714941822 256,26.537421109504585 255.82555743627813,27.25180494179903 255.78263902776368,27.87758302723545 255.69403328123573,28.542126126648906 255.5722003795638,28.985154859866277 255.18593470301633,29.616470804465852 253.1618471788835,31.15599565149262 251.92552012062683,33.23823069725118 251.40634582408111,34.11321244453441 251.1308373307967,35.04357278402683 251.24574790834964,37.76819949254623 251.32189347192553,39.26895932567849 251.04223158410372,40.08302462282719 250.79995024571573,40.95246851135987 250.73626486533945,41.063225694457905 250.8054881048789,41.15736930014901 251.07268980950107,41.43426225830672 251.25820809154925,41.749920230771544 251.34958276765877,42.12649465370098 251.5157185425534,42.3203197244939 251.7496930922792,42.59721268265161 252.03350837430833,42.87964350013751 252.32424598037392,43.11777144423566 252.64544181183686,43.33928581043174 253.02340069980465,43.53864874022277 253.4041285172715,43.6992466562018 253.74332239093218,43.9650638960332 254.00083284201884,44.24195685419091 254.23757632124367,44.55761482665574 254.3538713636699,44.718212742469724 254.47431980046852,45.43259657426905 254.0894385886293,48.26798046580397 254.08113179988456,49.20387866412946 253.84161939107815,49.3755522984348 253.4982721229626,49.580453087306466 253.45535371453067,49.59706666496097 253.23522381271277,49.65244525659251 253.11615984078747,49.66905883399945 252.6426728823378,49.74105100303793 252.1678014590148,49.757664580444875 251.74000183866116,49.80196745408019 251.30943328880844,49.86288390479237 250.88163366837227,49.95702751073103 250.4538340480186,50.13977686295007 250.11464017427542,50.36129122939372 249.90697045565713,50.65479776520593 249.89312580774924,50.693562779265484 249.88897241337688,50.82647139901615 249.88897241337688,51.16981866721422 249.803135596348,51.3470301606002 249.62453963833627,51.64053669641241 249.60238820176616,51.68483956922252 249.45840386352415,51.81774818922074 249.0998274826274,52.00603540093302 249.0541401446139,52.02264897833996 248.83539470766934,52.138944020766196 248.49620083392614,52.38814768294309 248.19992536861486,52.65396492277449 247.8801140019427,52.90316858519895 247.55891817047979,53.146834388625294 247.3650930998519,53.44034092443751 247.3498639870707,53.484643797247614 247.34709505757164,53.700620304940706 247.4204716914009,54.04396757313879 247.42600955056406,54.176876192641885 247.42600955056406,54.22117906619468 247.41078043794792,54.30424695364199 247.25295145171552,54.55898847539464 247.0355904796442,54.85249501062921 246.60917532408135,55.43950808225363 246.37381630956477,55.727476758737645 246.09138549224392,55.9988318573196 245.45314722369042,56.40309557622985 245.11118442036565,56.62460994325114 244.791373053776,56.86827574609984 244.6321596027528,57.12855512685061 244.35942003904998,57.39991022576264 243.94961846097658,57.59927315555367 243.54673920685713,57.787560367018386 243.256001600709,58.053377606849786 243.04556295250916,58.34688414290956 242.86558252978915,58.69576926985819 242.70913800843005,59.03911653830382 242.51669740242792,59.338160932866586 242.3062587543106,59.63720532767691 242.25226462738732,59.742424652024404 242.2162685428268,59.79780324365594 241.96844934527567,60.04700690591536 241.65832923213904,60.32389986407307 241.34405572463004,60.60079282223077 241.0242443580404,60.87214792106029 240.7196621040669,61.14904087921799 240.4081575261395,61.4259338373757 240.05096561011607,61.65852392247574 239.67854458131143,61.85234899293857 239.31719927099815,62.03509834565274 238.93924038303035,62.27322628950333 238.90047536888827,62.311991303810444 238.72326387574986,62.62764927602771 238.6692697488266,62.993147980878405 238.72326387574986,63.353108826153345 238.75925996022784,63.71306967167585 238.76064442501863,63.77952398171621 238.63742705872096,64.09518195393348 238.6069688333236,64.13948482723872 238.43114180481095,64.29454488372451 238.07948774795065,64.52159710949635 237.71122011360092,64.70988432096107 237.33879908496132,64.90924725124722 236.90546160544451,65.0421558710804 236.47212412584517,65.06430730748545 235.9972527026047,65.10307232179258 235.5888355893221,65.25813237852593 235.25794850432362,65.47410888588894 234.947828391187,65.75100184404666 234.65570632041315,66.04450837936373 234.37604443259133,66.33801491517595 234.1545300661477,66.65367288764078 234.01608358706883,66.97486871885616 233.98839429133557,67.06347446530158 233.96485838980965,67.11331519793501 233.8997885446426,67.20192094438043 233.62151112161158,67.4843517621139 233.3280045859644,67.7280175649626 233.0026553601291,67.99383480479399 232.70914882448193,68.2873413406062 232.6786905991671,68.33164421391145 232.6551546977237,68.3759470872992 232.63992558494252,68.42578781968506 232.63300326098857,68.60853717206915 232.63854112031675,68.6528400454569 232.6510013032688,68.69714291851457 232.85590209238805,69.00726303198128 233.08295431799485,69.32292100419855 233.22832312102764,69.63857897666338 233.27677938878776,69.99853982193832 233.27401045912364,70.04284269549112 233.14110183920795,70.36403852678902 232.9957330362577,70.68523435825195 232.9209719375551,71.05073306285509 232.93620105017126,71.41069390870767 233.01650000803699,71.77619261355836 233.1978648957128,72.09185058577563 233.3778453184328,72.39089498058595 233.41799479736565,72.48503858627706 233.42630158611038,72.5293414596648 233.5564412764445,72.80069655874188 233.72949937529307,73.11635453071158 233.90394193893243,73.43201250292884 234.01885251656788,73.74767047539368 234.0534641363376,74.1131691799968 234.021621446232,74.47313002601443 233.85548567133736,74.79432585731233 233.62704898077473,75.10998382977715 233.4166103326574,75.42564180199442 233.28923957190486,75.74683763320981 233.2837017127417,75.88528411228866 233.38753657205083,76.24524495814124 233.62428005127566,76.47783504266363 233.8817905022798,76.78241729680215 234.09638254493456,77.08146169161247 234.3455862072765,77.39158180507918 234.54079574277768,77.71277763604701 234.6820111513556,78.0228977494312 234.80522851773577,78.33855572189603 234.91044784191823,78.69851656750104 235.0336652082159,79.01971239871642 235.1513447154329,79.379673244569 235.15826703946937,79.7451719494197 235.2025699126921,80.10513279469464 235.31748049032754,80.42079076715946 235.45869589907048,80.74198659837484 235.59714237814933,81.0576445705921 235.72728206840094,81.37330254305694 235.82973246291928,81.73326338890952 235.86157515318996,82.09876209376021 235.90864695607675,82.45872293903514 235.98202358990602,82.82422164388583 236.06786040693493,83.18972034873653 236.12047006898487,83.54968119401147 236.12739239302135,83.91517989886216 236.11908560419408,84.27514074471475 236.07478273097138,84.64063944956544 236.02494199842047,85.00613815441613 235.99586823797895,85.36609899969108 235.98202358990602,85.72052198621546 236.12600792814803,86.0361799586803 236.24507190015586,86.35183793089755 236.41536106950537,86.66749590336238 236.66594919655557,86.96654029792514 236.95807126749446,87.25450897440916 237.2557311974315,87.53693979156498 237.51324164851815,87.83598418670539 237.73060262075447,88.14610429959446 237.91196750826526,88.46176227181172 238.06010524096214,88.77742024427654 238.16670902977035,88.92140458235352 238.2220876214844,89.05985106143237 238.40345250899517,89.39766047063233 238.56405042472664,89.71331844309717 238.68865225598014,90.02897641498434 238.73710852357522,90.12312002075797 238.84094338288435,91.05348036025038 237.7015288601479,96.06524290306993 237.18789242276537,98.5849688224701 234.542180207651,98.42990876548919 234.36358424947423,98.65696099126102 232.02383875304162,101.75262426338168 231.92415728810482,101.88553288362745 229.36981974909997,102.40055378563575 232.20520364071743,104.02314652060495 231.88539227396276,106.87514398929926 231.73033221739445,107.87749649783015 230.63798949746229,110.85132686852646 228.96970942472714,113.10523554784767 228.39377207159407,113.97467943662791 226.0706401526509,115.12101628356587 224.51727065738615,116.37257245427365 225.25657485566725,117.6905829353519 226.2132400261021,119.6122200645538 227.88705795816546,121.91596947650844 229.592718580582,122.8463298157533 229.34628384765657,123.02907916838494 228.9932453260055,123.26166925298985 228.5917505366768,123.41119145039501 228.19164021213894,123.54410007072332 227.79014542281027,123.7102358454529 227.63231643666037,123.79884159189832 227.54786408442226,123.85975804285806 227.17544305578267,124.02589381791772 226.72964539314876,124.12557528268945 226.28107880093327,124.15880243775091 225.83251220863528,124.19756745205802 225.4324018841799,124.36370322654004 225.07936336244632,124.59075545255945 224.7692432493922,124.81780767808372 224.46189206575463,125.044859903608 224.11023800889433,125.27744998870804 223.75581502245245,125.48788863657782 223.41800561350007,125.68725156686396 223.09404085245555,125.9530688064478 222.82960807741495,126.24103748317938 222.51810349948752,126.51793044133709 222.65239658427652,126.58438475088234 222.69808392237255,126.59546046920865 222.74100233080446,126.61761190610882 223.08434959900254,126.8557398499594 223.12865247222527,126.87789128694212 223.17295534553048,126.88896700526841 223.4387725853619,126.89450486426654 223.5716812052776,126.88896700526841 223.6173685433736,126.88896700526841 223.70735875485738,126.90004272334717 224.11577586805748,127.06064063907864 224.5241929813401,127.2323142734665 224.56988031943612,127.24338999179281 224.74986074223864,127.24338999179281 225.1998117992449,127.29323072417867 225.60545998302848,127.39845004794851 225.65114732112448,127.41506362535546 225.6968346592205,127.43167720325752 225.742521997234,127.45382863966258 225.78405594104018,127.4759800763152 225.82005202568322,127.50366937204845 225.929424744073,127.64765371070305 226.14955464572586,127.95223596426393 226.17724394162414,127.98546311957294 226.20770216693896,128.0186902743043 226.24369825149947,128.04637957028513 226.28246326564155,128.06853100669016 226.45275243499105,128.096220302671 226.49705530821376,128.096220302671 226.5427426463098,128.10729602074971 226.6784201958896,128.16821247170947 226.99823156247922,128.42295399321455 227.21420806992475,128.71646052902676 227.4481826194855,129.03765636024215 227.73338236647047,129.30347360007354 228.07396070500442,129.5582151218262 228.17364217002373,129.6634344458436 228.3646983109875,129.96247884073645 228.61528643812022,130.20614464358516 228.96832495985382,130.41104543270438 229.00985890357748,130.43319686935698 229.33105473504042,130.5993326441691 229.69516897501782,130.79869557420767 229.99005997545578,131.03682351805827 230.25172382083227,131.33586791311615 230.45108675078836,131.65152588558098 230.63522056796322,131.97272171687888 230.79858741319376,132.2883796893437 230.9259581739463,132.60403766156097 230.9494940753897,132.9639985068359 230.9647231881709,133.32395935293604 231.02979303325543,133.47901940909176 231.2402316814553,133.6949959165373 231.6043459215152,133.91097242398283 231.96846016149257,134.12694893142836 232.33257440146997,134.3096982835649 232.73960704987928,134.42599332599113 233.13002612088164,134.54228836866494 233.5799771778879,134.56997766464573 234.0299282348942,134.5755155233963 234.4784948271922,134.62535625578215 234.92844588419848,134.63643197410846 235.37701247641397,134.64196983368421 235.82834799821103,134.70842414372459 236.23676511149364,134.84133276322768 236.64518222469374,135.02961997469242 237.0009896759264,135.2234450457329 237.40802232450073,135.41173225744518 237.45509412738755,135.42834583452202 237.4993970006928,135.43388369385022 237.7250647615913,135.43942155284833 238.1722468889335,135.4061943978694 238.26223710041728,135.40065653911887 238.3037710440584,135.4172701161957 238.47959807248856,135.52802729978887 238.54051452328324,135.56125445460276 238.69972797430646,135.7993823987009 238.82848319976725,136.14826752564954 238.91985787604182,136.49715265334086 239.06384221428382,136.81281062531056 239.17044600309202,137.17277147116314 239.22582459480608,137.52719445768753 239.31304587654324,137.88715530296247 239.44041663729578,138.2028132754273 239.6107058066453,138.51847124789214 239.7214629899084,138.87843209316705 239.73807656739785,139.23839293901963 239.77407265195836,139.59281592521396 239.85160268016,139.95277677106654 239.9969714831928,140.2684347432838 240.11188206082824,140.62839558880628 240.1423402863081,140.98835643465887 240.11188206082824,141.3483172799338 239.976204511496,141.66397525239864 239.87236965218685,141.9851710838616 239.88344537043065,142.2676019010999 240.07588597626773,142.57772201448412 240.34031875130833,142.8823042681275 240.62967189258316,143.17027294461153 240.99378613256053,143.40840088895723 241.298368386534,143.68529384711493 241.4561973726839,143.96218680527264 241.11285010456834,144.12278472108665 238.10302364939406,145.83398320241875 237.20035260588247,146.35454196342516 237.0023741407172,146.67019993564242 236.80993353479758,146.99139576743545 236.7697840558647,147.06892579547204 236.56211433724644,147.373508049363 236.35859801308303,147.69470388115602 236.1772331254072,148.0158997123714 236.03878664632836,148.3370955441644 235.91695374473898,148.6582913753798 235.77158494170618,148.97948720717284 235.59298898369445,149.30068303814065 235.4047017721472,149.61634101060548 235.046125391333,150.26427053294208 234.89660319392783,150.58546636415744 234.70139365842664,150.90112433637472 234.66678203865692,150.93988935068182 234.48818608072773,151.26108518214477 234.34973960164888,151.54351599938312 234.2985144043897,151.59889459134473 234.1531456012744,151.84809825352164 234.12268737587704,151.9034768449056 233.96485838980965,152.21359695837234 233.79180029096108,152.5347927895877 233.63674023431025,152.84491290305442 233.46229767075343,153.17718445234854 233.25462795213514,153.49838028414158 233.0635718110063,153.6922053546044 232.9846573180139,153.79188681987125 232.7866788528486,154.09646907351464 232.54024412008826,154.37889989124812 232.2785802745467,154.65579284940583 232.00999410513373,154.9548372439686 231.75248365404704,155.2261923427981 231.62095949892213,155.34802524480008 231.45343925923672,155.5030853009558 231.41744317467624,155.53077459668907 231.29284134358778,155.63045606170834 231.30253259704077,155.69691037174871 231.3592956534631,155.8575082874802 231.42021210434032,156.21746913333277 231.43959461132886,156.56635426052895 231.47697516076266,156.91523938747758 231.54758286509286,157.23643521927062 231.5918857383156,157.60747178287187 231.6043459215152,157.97297048772256 231.59742359747872,158.02281122010842 231.4811285550525,158.36615848855405 231.39529173802362,158.70396789717637 231.2969947378776,159.0362394472957 231.25684525894476,159.1082316163342 231.06025125865278,159.42388958879903 230.9951814134857,159.55126034955157 230.96610765287917,159.72847184268997 229.54426231273933,161.35106457757666 228.6305155508189,161.87716119791128 227.42187778854304,162.6801507764036 226.47767280130776,163.33915601706647 226.11632749074693,163.63820041162924 225.84774132141646,163.86525263740108 225.5514658561052,164.114456299578 225.32856702487075,164.39688711731145 225.11812837658837,164.69593151187422 224.94091688336746,165.01158948433903 224.79970147470704,165.3272474565563 224.68202196757252,165.6816704430807 224.60864533374325,166.03055557027687 224.46742992491778,166.3462135427417 224.32206112188499,166.66187151495896 224.19884375558732,166.9775294874238 224.06455067088083,167.29318745964108 223.8873391776599,167.60884543177582 223.6810539237499,167.90788982666865 223.45815509243292,168.21247208080717 223.2560232329778,168.52259219369625 223.00820403542664,168.84932588423982 222.868373091557,169.0099237999713 222.4710316966007,169.2148245890905 222.4350356120402,169.25912746239575 222.06815244248125,169.55817185728858 221.6278926390105,169.8406026744444 221.38007344145933,169.9347462804656 221.33161717386426,170.01227630883227 221.33577056823663,171.3967410996208 221.26793179348797,171.6182554658169 221.06718439874112,171.9117620016291 220.9052020183839,172.2606471288253 220.90243308863728,172.36586645317277 220.95365828589647,172.5541536646375 220.97996311700396,172.61507011534968 221.14194549744371,172.7756680308336 221.41606952601984,173.0636367073176 221.46314132898917,173.15778031333878 221.47975490639612,173.27961321476315 221.47837044160534,173.34606752505107 221.3966870189488,173.52881687694003 221.21809106093707,173.8389369903242 220.9868854408754,174.16567068119787 220.7487574969423,174.4536393576819 220.56877707413977,174.78591090697603 220.57293046842963,175.11818245709534 220.58262172196515,175.17356104847934 220.60061976424538,175.2289396401934 220.6615362151226,175.32862110496512 220.74598856727818,175.42276471123387 221.03811063813458,175.66089265508447 221.32331038503702,175.94332347248783 221.52544224449213,176.27559502211204 221.69157801938675,176.60232871265563 221.88401862538888,176.91798668512044 222.08199709055415,177.22256893925896 222.26751537235478,177.5326890519005 222.45303365432045,177.84280916528468 222.7271576829791,178.125239982523 222.87529541551095,178.22492144729475 222.88360220433822,178.40213294068073 222.8808332746741,178.74548020912636 222.79084306335537,179.005759589382 222.580404415073,179.31587970251863 222.30074252741625,179.59277266067633 222.01831171009536,179.84751418218144 221.77741483641566,180.1299449999149 221.5974344137782,180.45667869045846 221.4354520331734,180.79448809932836 221.3773045119603,181.14891108585275 221.37453558229618,181.51440979070344 221.37592004708696,181.5753262414156 221.36622879363398,181.63070483304716 221.32054145562049,181.752537734554 221.24578035675285,181.86883277689773 220.95227382110568,182.15126359413608 220.6380003136792,182.4447701299483 220.28911518631796,182.7327388064323 219.97761060839056,182.9930181869355 219.706255509396,183.25329756768627 219.42936255123828,183.44712263823163 219.05832598738948,183.66309914567717 219.00156293104968,183.70186415998427 218.9475688041264,183.74062917404385 218.90188146603037,183.7849320471015 218.86311645197082,183.8347727799825 218.8285048322011,183.890151371449 218.8049689306752,183.94552996308053 218.79389321243139,184.31102866768367 218.8478873391071,184.46608872416948 218.90880378998432,184.63776235847482 219.08463081833193,184.98110962642534 219.3130675089771,185.31338117654465 219.54565759366452,185.60688771202678 219.64949245297367,185.77302348708645 219.83916412931168,186.10529503671066 219.87100681958236,186.2160522198087 219.88069807303535,186.4209530091755 219.87931360824456,186.47079374156135 219.84747091813895,186.57601306557876 219.7907078617166,186.67569453068057 219.526275086676,186.96920106591514 219.2341530157371,187.2128668693415 218.9475688041264,187.50083554557793 218.7039030008651,187.79434208163772 218.50454007107408,188.11553791285309 218.48100416963067,188.17091650456715 218.4740818455942,188.5031880543564 218.4768507751758,188.5585666458229 218.48654202879382,188.60840737820877 218.64852440931608,188.90191391426853 218.89080574770406,189.15111757644544 218.92957076176364,189.1843447311768 218.9683357759057,189.25633690079292 219.25491998768146,189.5498434360275 219.53873526971057,189.7990470986995 219.61764976286804,189.92088000020638 219.65364584734604,190.1368565076519 219.64949245297367,190.19223509903588 219.51796829784877,190.4580523388673 219.47504988933431,190.5743473815411 219.45566738234578,190.9121567901634 219.48474114295234,191.056141128818 219.65364584734604,191.3939505376879 219.67718174878945,191.43825341074557 219.77132535456306,191.91450929869433 219.71317783334993,192.01419076396118 219.47089649496195,192.3464623133378 219.1497006635815,192.58459025743596 219.09709100144903,192.63443098982182 219.0555570577254,192.68980958178346 219.0195609731649,192.74518817316743 218.9932561421399,192.79502890580088 218.9697202406965,192.90024822965324 218.99464060701322,193.22698192044436 219.09709100144903,193.57032918864243 219.12062690297498,193.6035563433738 219.14693173391743,193.6367834986003 219.15246959308058,193.76415425935284 219.15662298753546,194.13519082328418 219.16631424098847,194.19610727399635 219.18292781847794,194.25702372470852 219.38644414280637,194.5726816969258 219.63010994598514,194.88280181030999 219.6827196079526,194.96586969775728 219.70071765023283,195.1873840644485 219.68548853753416,195.53073133215145 219.62734101632105,195.8630028822708 219.49304793161457,196.1454336994266 219.3310655510923,196.5053945452792 219.14277833954506,196.82659037649455 218.9572600575794,197.14778620828758 218.8852678885409,197.49113347590801 218.87834556458697,197.75141285698888 218.8866523532492,198.82021967556014 218.9212639730189,199.16910480250877 218.96695131127996,199.5124520709544 218.9807959590228,199.8557993388224 219.10262886061219,200.2600630574851 219.12062690297498,200.48711528325694 219.12339583247402,200.5369560156428 219.19123460730518,200.70862965003067 219.3324500158831,201.07412835488137 219.4778188189159,201.40086204542493 219.55257991761846,201.76082289069987 219.55811777678161,202.0930944408192 219.49443239640536,202.4419795680154 219.47228095975274,202.79640255453978 219.48474114295234,203.1452876814884 219.60380511487764,203.4941728091797 219.72286908688545,203.66584644332002 220.0066843689971,203.9316636831514 220.22958320039658,204.26393523244553 220.40264129924515,204.58513106423857 220.45386649650433,204.93955405043286 220.45109756684022,205.00600836047323 220.40541022874422,205.10015196649442 220.15759103119305,205.38258278340268 220.0496027775941,205.63178644582715 220.03852705926778,205.98620943259908 220.03991152414108,206.3240188412214 220.092521186026,206.54553320799513 220.21020069324302,206.8611911802124 220.30988215826233,207.20453844832795 220.31265108776137,207.56449929393298 220.2143540876154,207.8856951253959 220.14651531286674,208.23458025292217 220.17282014389173,208.37302673200105 220.33341805970574,208.68314684464255 220.541087778324,208.97665338070232 220.72383713062558,209.2923113529196 220.8692059337409,209.60243146580865 220.94119810277937,209.75749152278956 220.9162777366277,210.0343844809473 220.95781168026883,210.4663374952607 220.98411651137633,211.0921155809447 221.23055124405417,212.45996679407872 221.43960542754576,212.8531547949102 221.74557214631002,213.18542634469947 221.8687895126077,213.52877361240243 221.83971575216617,213.76690155650059 221.6846556954328,214.0991731066199 221.6625042587802,214.3483767687968 221.709576061667,214.89662482578402 221.80095073785904,215.22335851657516 221.9158613154945,215.62762223523785 221.4091472020659,216.93455699815482 220.44971310204943,219.9194630866823 220.3957189752912,219.99699311504898 220.3846432569649,220.03575812910856 220.3707986089745,220.07452314341566 220.32926466525083,220.14097745370358 220.07867653820063,220.45663542592087 219.83501073493935,220.7612176797293 219.58165367822502,221.06579993362027 219.32968108638403,221.35376861035184 219.07217063521486,221.62512370926387 218.77589517006862,221.86878951236014 218.72190104314535,221.9297059634024 218.6097593950915,222.2841289495967 218.5959147472661,222.35612111896526 218.56822545145033,222.41149971010168 218.4505459441508,222.66624123160676 217.55341275980234,225.15827785502614 216.96086182926234,226.5981212377763 216.40984484261102,227.35680794288083 215.83944534880612,227.8829045637931 215.3465758832029,228.34254687383975 215.188746897053,228.37577402906626 214.77340745981644,228.46437977551167 214.49513003695046,228.52529622647143 214.07286827567745,228.65266698722397 213.67414241593033,228.7744998889784 213.23942047162274,228.9184842268078 212.81992764001382,229.04585498756035 212.76316458359148,229.0624685654624 212.59149094961623,229.1399985938291 212.5084230620864,229.18983932621495 212.3007533434681,229.15107431190782 211.96294393459823,229.15661217090593 211.49084144102187,229.1399985938291 211.24717563776056,229.15661217090593 210.98689625709233,229.09015786119565 210.57017235498245,228.98493853684818 210.13683487546564,228.88525707207643 209.71734204385672,228.76896202940264 209.2936958178754,228.65266698722397 209.18847649385802,228.6305155503238 209.13309790214396,228.61390197291684 208.6706866620206,228.51422050814512 208.21519774585116,228.50314478957122 208.11690074570515,228.508682649147 208.06706001323678,228.51422050814512 208.02275714001405,228.51422050814512 207.8732349426089,228.53637194488024 207.626800209766,228.55298552245222 205.7328523760498,228.89633279015518 202.8337831040561,229.42796727006555 201.23749520027692,229.7270116646283 200.7806218193167,229.81007955248822 199.7450421558894,230.02605605943862 198.6845421262279,230.34171403190345 197.9881563362962,230.56876625742774 197.75279732186218,230.61306913106304 197.58250815267772,230.64629628579442 197.1145590533912,230.50231194788248 196.70891086960762,230.38601690553878 196.60922940467086,230.37494118721247 196.51923919335212,230.36386546880362 196.39325289739034,230.29187329927004 194.90356878241937,229.83223098922335 193.50941273817784,229.45565656604634 192.07787614450248,229.0292414101534 190.47189698710525,228.4976069308207 182.45584584852216,225.90035098305384 181.20567414252264,225.65114732087693 180.6588105499961,225.55146585585763 180.23516432409735,225.45732224983647 179.91396849255187,225.36871650363858 179.7187589570507,225.296724334105 179.49309119615216,225.23027002455973 179.07359836454324,225.09736140456152 178.75794039232596,224.9810663618877 178.19307875768425,224.83154416448255 177.5811453201557,224.6044919387107 177.2557960942379,224.504810473939 176.90829543174996,224.42174258682175 176.50403171292223,224.31098540314608 176.0720786981137,224.18915250147415 175.8547177259599,224.08947103670243 175.71073338771788,224.03963030431655 175.32031431679803,223.8734945292569 159.36574206783348,217.13391992802838 159.3352838423536,217.07854133606676 159.26329167315006,217.03977632200719 159.22037326471815,217.02316274460026 158.82303186976185,216.86810268819698 158.51291175654268,216.66320189883018 158.41184582689763,216.6078233073637 158.01450443194133,216.4195360956514 157.61854750169329,216.2367867435149 157.24058861380803,216.02634809539754 156.85016954288818,215.865750179336 156.438983500024,215.70515226360453 156.00841495017127,215.55563006619937 155.59307551293472,215.40057000996111 155.20819430093044,215.2455099533103 154.79008593419482,215.0793741784982 154.38859114478365,214.91323840319097 154.25706698965874,214.88001124870715 151.11294744977795,213.22419135851146 146.75049889400327,210.78753332705372 146.8598716124756,210.64908684797487 146.6909669080819,210.62693541132225 146.17594600582603,210.51064036889602 145.7578376390079,210.3998831855504 145.5210941599481,210.26143670647156 145.45879324419758,210.21713383283625 141.26386492827336,207.00517551828935 141.32755030848458,206.98302408163676 141.54629574551169,206.93318334925087 142.13192435193272,206.8168883070722 142.4988075214917,206.75043399711436 142.4614269721404,206.67844182799334 142.32574942264313,206.44031388364763 142.79369852192966,206.2741781090831 143.41393874828543,206.0415880240656 143.7282122557119,205.87545224900592 144.07571291819983,205.69824075586752 144.99361307449263,205.21090914959245 145.39372339911304,205.01154621980143 145.40203018777524,204.95062976908926 144.69872207405467,204.1531780493475 144.3110719326339,203.7323007530303 143.8832723122802,203.33357489320068 143.45270376234498,202.9846897660045 142.93906732496245,202.57488818776605 142.76600922611388,202.3866009765489 142.3035979859905,201.8272772009878 142.10561952099027,201.63898998952308 141.96301964745652,201.5448463835019 141.7885770838997,201.4562406368089 141.5338355623946,201.29564272107743 141.21402419563992,201.06859049530559 140.9758962516243,200.89137900216718 140.68515864564122,200.69755393162183 140.45118409591544,200.49265314258514 140.05522716574993,200.1160787196557 138.89781460073323,198.96974187271775 137.90653781061116,197.97292722318494 136.9830997950727,197.03149116561377 136.53314873806642,196.56077313666316 136.46807889289934,196.45555381289333 136.4362362026287,196.33372091089132 136.43346727312962,196.26172874185283 136.447311920955,196.17312299515984 136.4833080055155,196.09559296679316 133.81682881845677,193.48726130119513 132.64972499990455,192.36861374999043 131.68752197030653,191.5545484531718 131.28048932173218,191.20012546664742 130.9509867015245,190.87339177610386 130.61594622215367,190.51343093082892 130.02893315085933,189.98733430991666 129.10272620590433,189.1123525621383 128.77322358569666,188.7911567308404 128.26789393697632,188.29828726556727 127.99653883798177,188.0324700254883 127.726568203778,187.77772850373566 127.12571048457578,187.196253291687 126.48054989206832,186.55939948825434 125.47404398924758,185.59027413470236 125.44773915814007,185.49059266968305 124.82473000228524,184.7872845559625 124.1186529590656,184.10059001956634 123.42642056367133,183.47481193421243 122.36730499863557,182.4835351442554 121.87858892748723,182.11249857982895 121.53247272979009,181.81345418526618 121.44109805368056,181.73592415689953 121.08113720799302,181.45349333966118 120.82778015127873,181.23197897296996 120.4802794887908,180.93847243765288 120.18123509398048,180.60620088786362 119.99017895285166,180.38468652133747 119.38655230406786,179.6481512523904 119.16780686712328,179.53185620996416 118.91168088082739,179.36018257615396 118.5724870070842,179.1220546320558 118.43127159850629,179.0168353077083 118.25544456999363,178.89500240628396 117.76257510463795,178.52950370168082 117.52721609003886,178.36890578594935 117.22263383606538,178.09201282779165 116.90420693418402,177.8095820100582 116.80590993403803,177.72651412294096 116.22443472190685,177.25579609374276 115.25946276272724,176.46942009282245 114.76936222678809,176.07623209232102 114.67383415622368,175.99870206395434 114.4412440713712,175.8159527117353 114.30418205708314,175.72734696479475 114.06882304273161,175.55567333073697 113.8030058028177,175.38399969692676 113.77254757742034,175.3452346828672 113.29906061897067,174.907743808978 113.2699868583641,174.87451665366902 113.12046466095894,174.7305323158396 113.00970747769586,174.63638870957087 112.64974663217336,174.36503361098892 112.19287325113062,174.01061062446453 112.13887912428987,173.96630775107678 112.09734518064873,173.94969417375233 111.33588954571505,173.5122032995331 111.03961408040378,173.329453947149 110.95100833379331,173.26299963710863 110.86240258726536,173.21315890472277 110.77656577023647,173.15224245401058 110.44290975557392,172.94180380589324 110.11756052982113,172.73690301677402 109.55685228946925,172.36586645317277 109.01275762668936,172.08897349501507 108.44097366809369,171.78439124087654 108.3316009496214,171.73455050849068 108.02286530127556,171.55180115577653 107.18111070855865,171.07554526782778 106.97620991943943,170.9592502256491 106.86406827146807,170.90387163401758 106.45011329902229,170.67128154891753 106.21336981979746,170.57713794347399 105.86863808680859,170.36116143602845 105.52667528356635,170.16179850623743 104.58247029616604,169.60801258992203 104.09098529560116,169.35880892716747 103.92623398533227,169.25358960339764 103.6327274496851,169.07084025068346 103.30322482947743,168.8437880251592 103.26307535054457,168.80502301085207 102.92249701201058,168.6056600813086 102.53761580025389,168.3675321369629 101.72770389756008,167.86358695303335 101.31790231948668,167.5036261077584 101.05346954444606,167.2433467272552 100.72673585390248,166.96645376909748 100.4816855858504,166.8058558532835 100.34877696593469,166.72278796567116 100.2546333602436,166.65079579663265 100.16741207842392,166.59541720467104 100.02758113447176,166.47358430349425 99.92097734558104,166.38497855680126 99.83929392300703,166.29637281010827 99.51117576750764,165.9585634012384 99.19551779520785,165.65398114734745 98.86601517500017,165.3272474565563 98.69434154094239,165.1666495410724 98.61542704794996,165.0448166390704 98.46036699138165,164.88421872333893 98.20562546987657,164.6793179342197 97.91073446943861,164.40796283563776 97.42340286299851,163.99816125739932 97.38602231372975,163.9593962430922 97.1603545527487,163.73788187664854 96.85438783398443,163.46652677781904 96.41274356580541,163.06226305890877 96.10123898787799,162.78537010075107 95.82849942409264,162.55278001565102 95.60283166311159,162.37556852276018 95.37854836708637,162.14851629674078 95.06981271865801,161.8826990569094 94.85798960566736,161.69441184569223 94.69739168993588,161.55596536661338 94.58248111238296,161.58365466209906 94.45649481642121,161.6556468313851 94.37065799939232,161.72210114117792 94.34158423878576,161.68887398644654 94.28482118228091,161.52827607071507 94.18375525255334,161.3344509996746 94.07161360449948,161.13508807013113 93.99408357629784,161.0132551687068 93.85009923805583,160.84158153431892 93.72965080125722,160.67544575950683 93.62996933623793,160.53699928042798 93.51782768818406,160.38747708277523 93.48460053320514,160.34317420971757 93.44306658948148,160.29333347733171 93.40153264584035,160.24349274494583 93.3558453076618,160.19365201255997 93.30877350485751,160.14381127992655 93.26308616676148,160.09397054754066 93.21462989900137,160.04966767390536 93.1647891666155,160.0053648008477 93.11633289885538,159.9555240684618 93.08033681429488,159.92229691315282 93.04434072973437,159.89460761766713 93.00419125080151,159.86138046244065 92.96542623665943,159.83369116645983 92.92527675772656,159.8060018707266 92.88235834929463,159.7783125753234 92.83943994069767,159.7506232793426 92.79513706747497,159.72847184268997 92.72591382793553,159.68970682863042 92.68022648983951,159.66755539164774 92.63592361645176,159.64540395499512 92.58885181356494,159.6232525183425 92.54178001076066,159.60110108193743 92.49332374300054,159.58448750428295 92.44486747532294,159.567873926876 92.39502674285455,159.55126034955157 92.3451860104687,159.5346467716495 92.29534527791778,159.52357105357075 92.24273561586782,159.50695747591627 92.17351237632839,159.5014196171657 92.09182895375439,159.4737303211849 92.0752153761824,159.40727601089696 92.03783482683112,159.2909809687183 91.98799409444524,159.2134509406817 91.95338247467554,159.14145877106557 91.92430871406897,159.06946660202706 91.91323299574266,159.0307015879675 91.90215727733384,158.9919365736604 91.88139030547201,158.88117939056235 91.87723691118217,158.80364936219567 91.87723691118217,158.759346489138 91.88139030547201,158.68181646077133 91.90077281262556,158.5599835590169 91.91046406607856,158.51568068571166 91.92153978440487,158.4769156716521 91.93676889710355,158.43815065734498 91.95338247467554,158.39938564328543 91.97830284082721,158.34954491089957 92.0032232070614,158.29970417826613 92.02399017892323,158.24986344588027 92.04475715086758,158.19448485441376 92.06413965785609,158.14464412178035 92.07936877063729,158.08926553039635 92.09598234812675,158.03388693843473 92.10844253124385,157.98404620604887 92.11398039040701,157.9120540370104 92.1125959255337,157.84006186821946 92.1001357424166,157.72930468454376 92.08213770013634,157.65731251550528 92.05860179869293,157.5853203464668 92.04337268599427,157.5465553321597 91.99214748881761,157.43026028973344 91.94507568584828,157.40810885308085 91.89523495346242,157.38595741667578 91.33452671319306,157.13675375449887 90.6741370079044,156.83770935960604 90.27679561294809,156.6494221476462 89.6122525133696,156.35037775283587 89.0930782168239,156.11778766823096 88.86048813205394,156.02918192186806 88.48252924408615,155.84089471007326 88.29562649741221,155.75782682246088 88.13918197605311,155.68029679409423 87.95504815887824,155.597228906977 86.9693092278368,155.13204873735455 84.73893644979395,154.07985549635526 84.264065026636,153.8860304256449 83.7199703638561,153.65897819987305 82.77022751745768,153.21594946665567 82.65116354528483,153.1605708749416 82.59163155928093,153.138419438289 82.52517724932308,153.1107301428033 82.23997750242064,152.98335938213327 80.93304273991626,152.38527059218254 80.35433645736666,152.12499121167934 80.30034233060842,152.10283977494421 80.21035211912465,152.06407476096717 78.85357662415188,151.45491025269013 78.44792844053336,150.9897300830677 77.98690166520078,150.46917132197876 77.73216014369568,150.1756647862491 77.56187097434618,149.9818397152086 77.37496822767224,149.7769389265845 76.53875149403596,148.81335143211317 76.45845253617023,148.71920782609197 76.40445840924696,148.6582913753798 76.29370122598388,148.53645847395546 76.2064799441642,148.44231486793427 76.04865095809683,148.26510337504342 75.85897928175879,148.0491268676804 75.54193684466821,147.68916602182782 75.47825146429194,147.61717385278934 75.11552168902283,147.2073722745509 75.08783239320707,147.17414511957196 75.03660719594788,147.11876652810548 75.00199557617817,147.0744636545527 74.92169661831244,146.97478218978094 73.85704319427857,145.6069309766469 72.91422267166907,144.38860196083553 71.7249674163817,142.8823042681275 71.24455813414312,142.27867761942622 70.82091190799679,141.68612668880368 70.47202678071808,141.2486358151621 69.7714875966616,140.3958055042839 69.69811096274981,140.34596477165047 69.39075977919475,140.08014753181908 68.6209973554338,139.48205874186834 68.17381522809163,139.16086291065295 68.1018230588881,139.11656003751278 68.01183284748686,139.06118144588123 67.4414333537645,138.5960012762588 66.99009783188491,138.2305025714081 66.0015899712619,137.47735372530167 65.07676749109767,136.7574320339266 63.8515161511673,135.82153383510598 62.71902395230228,134.9687035242278 59.818570215600296,132.71479484465902 58.5517849321113,131.74013163202642 58.02568831152914,131.36355720909697 55.87699895639037,129.64682086851917 54.582524376838045,128.6444683596582 54.46899826407591,128.55586261321278 53.71446495301364,127.99100097832348 52.91839769831023,127.40952576627483 52.57781935977625,127.12709494911901 52.48229128921184,127.04956492075233 51.72360458402476,126.47362756803186 50.83616265296427,125.7869330316357 49.889188736229954,125.044859903608 48.913141058641514,124.27509748009462 47.64358684548842,123.30043426729696 46.83644387245871,122.67465618219063 46.08883288535038,122.12640812462577 44.930035855460375,121.20712350345967 44.315333488432785,120.74194333383724 43.765700966407216,120.33214175592887 43.10946465565597,119.82265871267113 41.997739428735294,118.96982840154539 41.032767469473164,118.23883099209156 39.78813362255427,117.2973949345204 39.173431255361635,116.85436620130302 37.89972364783618,115.83540011536519 37.221335900514845,115.3369927910114 36.065307800041374,114.4287838881716 35.042188319648645,113.67009718248939 34.268272501597856,113.08308411144262 32.26772087890842,111.54355926392071 27.654684196001014,108.0048672585827 25.809192629962418,106.59825103114154 25.741353855213777,106.54287243967505 25.698435446616813,106.51518314402432 25.656901502893156,106.4874938480435 24.80268672697663,105.79526145264924 24.115992190745516,105.42422488847035 22.973808738344975,104.78183322595707 19.9778269311611,103.11493761776515 19.385276000621086,102.79374178597213 19.235753803215925,102.71067389885489 18.400921534370436,102.25103158823059 18.18909842146231,102.13473654588687 17.6325435754828,101.8190785736696 17.404106885085213,101.69170781291706 17.167363405777852,101.55879919283632 15.94764992509315,100.86656679744205 14.167228204139093,99.85867642958296 13.249328047846294,99.33811766857654 12.876907019206698,99.12767902045921 9.655257450959253,97.34448836951097 7.034465601996554,95.61113845152624 4.343066048703639,93.82794780115564 2.4131221304269395,92.49332374300054 0,90.82642813447853 0.6548518460429777,89.51395551297605 0.8057585082389281,89.12076751247463 0.8528303111257385,88.69989021590987 0.721306156083348,87.48709905942667 0.9372826633638391,86.63426874805337 1.425998734594713,85.85896846529431 1.5879811151169718,84.95629742170019 2.1486893553038087,82.6802373054788 2.2829824400102967,82.40334434732108 3.0596671878077064,81.25146964163258 3.4293192867832047,80.46509364021713 3.4043989206315315,79.6288769067459 3.465315371343707,78.89234163821143 3.264567976679369,77.65186118558239 3.5483832588735393,76.78795515604783 3.9180353580140785,76.040344169022 4.183852597845478,75.25396816785413 4.33199033037733,74.58942506819311 4.344450513576948,74.079942025513 4.794401570583222,72.68993937514871 5.584930966123476,71.27224742962882 5.785678360705294,70.7129236539852 5.931047163820611,69.83240404687865 5.908895727167994,69.27308027181269 5.975350037043323,69.07371734193914 6.144254741602045,68.77467294688125 6.770032826955943,67.93291835408182 7.121686883816231,67.05793660655102 7.334894461597666,66.12757626697609 7.2089081656359095,65.61809322380087 7.224137278417103,65.22490522321692 7.34043232076082,64.9258608284066 7.797305701721037,64.25577986966495 8.014666673957358,63.79613755937072 8.043740434646438,63.33649524849884 7.950981293581085,62.43382420498723 8.100503490986247,62.057249782057795 8.270792660170716,61.8080461198809 9.170694774183266,59.18863873570899 9.472508098657686,58.49086848073896 9.501581859264245,57.970309719732555 9.425436295688355,57.172857999990796 9.473892563448475,56.884889323754344 10.042907592380043,55.483810955311306 10.11213083191947,55.417356645270935 10.202121043320725,54.13811117858233 10.45270917045345,53.45695450151437 10.809901086476893,51.4522494846176 10.833436987920297,50.27822334202893 10.89850683316988,49.93487607383085 11.016186340304385,49.61921810136602 11.707034270907863,48.456267677598774 11.772104116074924,48.179374719441064 12.359117187369264,46.73953133669091 12.885213807868908,44.5133119533505 13.218869822448946,43.40020226114392 13.774040203555149,42.32585758382209 14.207377683071961,41.01338496207204 14.745934486771223,40.00549459421295 15.194501078904187,38.51581047932448 15.514312445576339,37.950948844682756 15.73028895293935,37.09811853355702 15.805050051641931,36.15668247598585 15.922729558941478,35.79118377138272 17.32103899755538,33.3102228660421 18.29431774556224,31.07292776437539 18.82318329564346,28.95192770455727 18.813492042107942,27.944037337193297 18.896559929472733,27.523160040711062 19.06131123965909,27.052442011512877 19.228831479344503,26.5817239831399 19.784001860368186,25.440924995200064 20.332249917520446,23.607893612443604 20.719900058941235,22.86028262508771 20.679750580008367,22.2677316949603 20.53576624176636,21.630877891032533 20.532997312184783,21.387212087606187 20.600836087015942,21.1490841437556 20.95249014387623,20.362708142917793 21.561654651740668,19.39358278936582 21.72779042663529,18.9727054925535 22.159743441361314,17.361188475993124 22.41033156849404,16.812940419253465 22.676148808325436,15.91026937565934 22.671995414035592,15.450627064869984 22.72183614642146,15.256801994077069 23.263161879619776,14.337517373158521 23.512365541961714,13.617595682113524 23.88201764110225,12.95859044145062 24.482875360387,11.164324072671196 24.610246121139543,9.990297930082518 24.874678896180153,8.99348328054973 24.91482837511302,7.85822215218565 25.074041825971182,6.612203840475968 25.406313375842952,5.526783444745317 26.14284864445993,3.5331541460098244 26.290986377074308,2.8575353279399778 26.044551644313948,0.26581723974887844 26.044551644313948,0 31.540876863744437,1.234942593300854 31.853765906462645,1.301396902846101 32.18465299154363,1.3623133540533994 33.048559020995675,1.5782898610038083 33.31852965511692,1.6225927346391236 33.729715698063636,1.7222741996584188 38.51027262057393,2.8187703139629394 41.60316696319552,3.450086258562512 42.68166503521979,3.6605249067623697 42.7065854015365,3.6992899208219283 51.850975344612266,5.986425755122069Z"/></svg>