<svg xmlns="http://www.w3.org/2000/svg" width="256" height="256"><path d="M161.5561510097002,29.020985328560233 161.7378293053039,29.027777041055224 163.17937017496254,29.007401904582295 165.10991430782693,28.959859920760717 166.83161329703054,28.91231793724275 167.95054784731437,28.91231793724275 168.36823813463593,28.8987345129612 168.48199931045116,28.93269307280484 168.7248030139556,29.041360464729546 169.25795240508964,29.204361552566002 169.49566232470357,29.224736688431705 169.7418618844049,29.251903536691195 169.9286339640003,29.306237232400537 170.0559785637935,29.34019579254779 170.11540604379817,29.360570928008674 170.17143766770715,29.38773777626816 170.21897965152874,29.421696336415415 170.62818029886412,29.659406255826916 170.76571246674195,29.73411508760437 170.80985859467023,29.76807364775162 170.8726819305682,29.788448783920938 171.2598095138382,29.924283023497903 171.37866447364516,29.958241583645158 171.4313002416609,29.971825007623096 171.8948345848068,30.08049239924419 172.43647361602828,30.15520123102164 172.98150850314303,30.202743215146832 173.20733292677625,30.223118350911328 173.64539835006474,30.223118350911328 173.97140052553524,30.182368078673903 173.95611917345886,30.42007799869263 173.93065025370262,31.33695911689981 173.95102538956831,31.432043084846576 173.9425357495821,31.622211020740114 173.94762953347262,31.98896346784082 173.93574403759314,32.389674475088775 173.8898999815664,32.80396890661828 173.82537871767119,33.17751306591037 173.69803411787802,33.564640649484 173.49428275820895,33.95855994484419 173.35335473443786,34.33889581632765 173.2548749105978,34.73281511138423 173.1546971587605,35.11994269465425 173.11055103083223,35.50707027822788 173.10036346294999,35.907781285475835 173.08338418287636,36.097949221369376 172.84907011925694,36.49186851642595 172.59777677566507,36.858620964133884 172.56891199971196,36.94691321999048 172.55363064773678,37.39516621136362 172.55532857573402,37.63287613067392 172.59947470376352,37.707584962754986 173.09187382286257,38.013212002460996 173.58257501416676,38.12867110586865 174.0630886373863,38.257713633962666 174.53511262051845,38.48184012929503 174.58774838853415,38.52259040163366 174.77961425232374,38.75350860915739 174.96299047592467,38.936884832859555 175.1327832756489,39.32401241612957 175.06316822766075,39.446263232032216 175.03090759571316,39.49380521585379 174.9833656118916,39.58209747160918 174.93412569997156,39.66359801557801 174.83225002003581,39.76547369531134 174.6454779403392,40.07110073491614 174.5249250527374,40.48539516654686 174.49436234868583,40.72989679804853 174.3160799088742,41.10344095723941 174.1921311651767,41.52452710035307 174.02913007744147,41.87090441199289 174.02743214944422,41.93202982009601 174.03592178943043,42.23765685909359 174.08516170135047,42.312365691174655 174.12251611718858,42.346324251018295 174.16496431711963,42.38028281116555 174.29230891691282,42.46857506692094 174.70999920423438,42.679118138882586 175.1090122835863,42.96437004211567 175.36539941127108,43.20207996213439 175.4095455390982,43.236038521573214 175.45878545122062,43.26320536993391 175.5114212189327,43.28358050539479 175.5623590589512,43.29037221788978 175.61499482676447,43.31074735365428 175.67442230666796,43.31753906554204 175.7321518586754,43.32433077773342 175.78139177049422,43.331122489519984 175.86968402635082,43.37187276185861 175.90364258639687,43.41262303348881 175.92741357825705,43.460165017614 175.9376011463417,43.52129042541352 175.95118457021843,43.657124664990484 175.94439285833067,43.847292600884025 175.9291115062543,43.9355848563358 175.8934550183122,43.98991855255117 175.55556734696222,44.349879287865306 175.2244713875,44.64192290318856 175.11071021168476,44.743798583630316 175.05467858777575,44.77775714306914 174.99864696386678,44.81171570291278 174.77282254013235,44.981508502637 174.68453028427575,45.083384183078756 174.57925874854794,45.253176982802984 174.57416496455622,45.307510678107505 174.56397739647156,45.701429973872514 174.56907118046328,45.79651394141447 174.58435253243846,45.85084763742742 174.65057172443213,45.97989016552144 174.6862282123742,46.01384872526388 174.73207226819855,46.054598997298896 175.07505372374266,46.380601172769396 175.29069057929124,46.61831109207969 175.35860769928212,46.82885416414255 175.35521184318642,46.971480115506075 175.33313877922228,47.052980659474905 175.27710715531327,47.134481203443734 175.1973045394429,47.25673201934638 175.18541904346222,47.304274003167954 175.1039184996958,47.569150770838945 175.071657867647,47.616692754964134 174.77961425232374,47.969861778390516 174.4366327966784,48.26869710580394 174.29061098901676,48.411323057268675 173.86273313361053,48.662616400961724 173.45862627026688,48.91390974455357 173.02395670307408,49.171994800134385 172.59607884766783,49.436871567805376 172.25988910431508,49.74249860741018 172.18178441644193,49.851165999031274 172.15971135247779,49.90549969463941 172.15801342437933,49.96662510304615 172.16480513636833,50.170376462310394 172.20725333629937,50.31300241438235 172.23781604035094,50.353752686012555 172.27856631218356,50.435253229981384 172.29045180816425,50.51675377425383 172.2921497361615,50.9106730690068 172.28705595227095,50.99217361327924 172.24800360823318,51.07367415724807 172.2123471202911,51.11442442887827 172.15971135247779,51.1551747011157 171.71485421720033,51.39967633231376 171.1986841060387,51.52871886010416 171.12737113015453,51.54909399627348 171.0815270741278,51.576260843925745 170.99153689027395,51.61701111616317 170.75892075475298,51.78001220410083 170.70968084283294,51.86151274806966 170.494043987082,52.15355636339291 170.2461464994846,52.370891147242325 170.19181280357287,52.40484970668115 169.88958162016496,52.62218449022694 169.85392513222288,52.6561430503742 169.79279972422094,52.7240601706687 169.73676810031196,52.79876900244616 169.69262197248486,52.84631098626773 169.41076592484146,53.19948000969411 169.2189000613555,53.58660759296413 169.19682699729015,53.67489984871952 169.1509829412634,53.85148436063512 169.03891969344542,54.26577879186102 169.01175284559073,54.584989255140144 168.88610617379481,54.78874061501162 168.71631337407058,54.93136656708357 168.46841588647322,55.04682567049123 168.201841190805,55.12832621446006 168.072798663217,55.15549306211232 168.00997532711662,55.18265991037181 167.8554638793676,55.28453559020634 167.83339081540345,55.338869285814475 167.8198073914255,55.39999469422122 167.8079218954448,55.48149523758283 167.82150531942276,55.88220624513439 167.92847478324902,56.28970896487734 167.90640171928484,56.47308518827589 167.84018252739241,56.602127716268704 167.79773432746134,56.64287798800011 167.75358819963427,56.67004483565237 167.69755657572526,56.697211683608245 167.2560952963411,56.92812989173921 166.8944366329285,57.2541320669061 166.8502905050002,57.34242432266149 166.76709203313533,57.5597591065109 166.7569044653543,57.64805136267111 166.75860239314912,58.069137505683564 166.7823733851105,58.211763457148294 166.95556204082922,58.60568275291331 166.9589578968237,58.660016448521446 167.00819780874372,59.06751916826439 167.0353646566996,59.12185286387253 167.06253150465548,59.19656169564998 167.0913962806086,59.26447881564088 167.18478232045692,59.393521343734896 167.32740827232647,59.61085612717949 167.5209720641133,59.807815774960794 167.68906693573905,59.909691454390504 167.81301567943655,60.03873398248453 167.8164115355322,60.154193086499404 167.79773432746134,60.276443902098436 167.74000477565633,60.37152786974159 167.5871912558033,60.45302841371042 167.4462632320322,60.507362109925786 167.33419998421422,60.52773724548788 167.07611492863342,60.52773724548788 166.73652932918498,60.54811238165719 166.56164274546902,60.57527922930945 166.39354787384326,60.63640463741258 166.29337012190476,60.75865545301161 166.2271509300123,60.86732284493632 166.22035921802333,60.9827819490524 166.3392141779315,61.08465762848211 166.3918499457448,61.18653330882267 166.3918499457448,61.39028466808692 166.3867561618543,61.580452603980454 166.39864165773378,61.750245403704675 166.39354787384326,61.95399676357615 166.3392141779315,62.178123258908506 166.25261985007214,62.37508290689222 166.19319237006746,62.599209402325776 166.05566020239206,62.85729445780539 166.02849335433498,63.027087257529615 165.98774308240115,63.21725519342315 165.97076380252994,63.380256281259605 166.00302443437633,63.55684079287159 166.0947125462274,63.72663359259581 166.1371607461585,63.869259544364155 166.15923381012263,64.06621919204426 166.18470273008126,64.2495954154428 166.17960894608953,64.426179927662 166.15923381012263,64.54843074326104 165.97415965842322,64.75218210303132 165.75342901878173,64.8812246305181 165.65325126714686,64.92197490275554 165.13877908378007,65.06460085422026 165.01313241198412,65.13251797421115 164.89767330817165,65.24797707822603 164.82466240439146,65.34985275806056 164.7873079883509,65.41776987795025 164.72788050844744,65.54681240543705 164.65147374857153,65.68264664501402 164.57676491679408,65.7573554773987 164.37301355702382,65.85243944473824 164.00795903761673,65.98827368461882 163.74647812604144,66.11731621240924 163.60894595826483,66.35502613242795 163.56649775833375,66.45690181185768 163.5715915424267,66.5859443399517 163.6276231663357,66.74215371559677 163.76006155001937,66.9323216511867 163.8772185819303,67.15644814722748 163.94513570171878,67.27190725063514 163.99267768564155,67.46886689861884 164.04701138165453,67.63865969834306 164.06738651762143,67.78807736199917 164.0622927335285,67.95787016172339 164.0622927335285,68.14124638542556 164.0504072375478,68.31103918514978 164.06399066152574,68.480831984874 164.09794922147057,68.56233252884283 164.14039742140164,68.62345793664234 164.2473668852279,68.6981667684198 164.54790014084097,68.79325073636656 164.80428726852574,68.82720929641262 165.03011169205774,68.89512641579628 165.15745629185093,68.96304353609078 165.20669620377095,68.97662696006873 165.35102008343532,69.07171092801549 165.49704189129938,69.1735866074452 165.5225108111568,69.29583742334785 165.47157297123954,69.37733796731668 165.3934682833664,69.45204679909413 165.2219775556449,69.63542302279629 165.1167060198159,69.79842411063275 165.04878889992622,69.96821691035697 165.00294484400067,70.13121799799102 164.94861114808893,70.27384395006297 164.89257952417992,70.43005332580925 164.7380680765321,70.57267927717278 164.57676491679408,70.742472076897 164.4205555410478,70.89188974116034 164.28641922926568,71.02093226884955 164.12681399742368,71.2246836281138 164.01305282160845,71.36730958018575 163.96041705379517,71.48276868389702 163.85005173387322,71.69331175565625 163.77024911810403,71.87668797935842 163.7040299261104,72.08723105071283 163.64969623029984,72.24344042645912 163.57668532631723,72.47435863398286 163.54272676647358,72.61019287386344 163.49688271044684,72.78677738577903 163.43745523064456,73.04486244125864 163.406892526593,73.16032154537473 163.35086090268402,73.42519831304573 163.32369405482933,73.6221579604222 163.30841270275295,73.81232589591092 163.23200594297825,74.14511978357281 163.1980473830334,74.30812087110564 163.1131509831713,74.57978935096801 162.99769187935883,74.81070755849176 162.9484519674388,74.92616666250663 162.90260791141208,75.10275117411861 162.8805348474479,75.28612739751716 162.8839307034424,75.41516992561118 162.89921205551877,75.51025389315313 162.92468097537622,75.7343803888903 162.91788926338725,75.92454832478384 162.9127954794967,76.16225824409413 162.77865916771458,76.37959302763994 162.68527312776507,76.53580240338623 162.642824927834,76.67842835545818 162.65131456792142,76.95009683491573 162.6665959198966,77.1945984664174 162.77696123961613,77.4187249624582 162.82450322353893,77.57493433820447 162.84148250351134,77.70397686559006 162.84657628750307,77.88056137750567 162.8228052956429,77.96885363326105 162.73451303968508,78.16581328124477 162.5052927600574,78.3967314884649 162.3490833844123,78.55294086421117 162.20136364855102,78.70915023995745 162.0842066167413,78.82460934407354 161.93648688108246,78.97402700762845 161.78367336122943,79.1370280954649 161.66991218551541,79.245695487086 161.51709866566242,79.36794630339345 161.3829623538803,79.4630302709354 161.27599289005403,79.53094739062269 161.08752288246134,79.61923964637808 160.91433422664144,79.69394847876275 160.83792746676554,79.76186559814641 160.75133313890618,79.91807497419632 160.69020773100547,80.12861804555074 160.68171809101926,80.49537049325866 160.69020773100547,80.71270527710809 160.68171809101926,80.93004006035027 160.62568646711026,81.13379141991813 160.47966465944864,81.55487756363901 160.40325789957274,81.7925874829493 159.98217175615545,82.7366354498208 159.83275409239815,82.96755365704091 159.69182606862705,83.19847186486827 159.5339187648835,83.42259836060543 159.24017722136063,83.8844347756529 159.1383015415261,84.04743586348937 159.00756108583963,84.37343803865626 158.98548802177427,84.55002255087547 158.9379460379527,84.76735733442128 158.86663306206853,84.95073355812343 158.8004138700749,85.14090149401697 158.70702783022656,85.3106942937412 158.63911071033687,85.48048709346541 158.42007799869262,85.7861141327666 158.31310853486636,85.98307378014307 158.21462871102634,86.28190910796133 158.21462871102634,86.47886875564141 158.2214204230153,86.77091237096467 158.2129307830291,87.02220571496133 158.11954474318077,87.21916536233782 157.99389807138485,87.4161250097143 157.7629798638611,87.60629294591145 157.57450985606602,87.68779348988028 157.40981084043472,87.77608574563567 157.23492425661757,87.83041944154742 157.0141936170773,87.84400286552535 156.82062982529047,87.86437800108745 156.69498315359576,87.90512827302126 156.65762873755523,88.12246305687067 156.67800387352213,88.26508900833541 156.75950441749094,88.41450667219392 156.8817552331912,88.57750776013158 157.0141936170773,88.71334199970855 157.15851749674167,88.82200939163326 157.27907038454586,88.94426020723229 157.28246624064155,89.05971931165199 157.2315284006231,89.20234526331913 157.14832992885943,89.446846894922 157.0956941608437,89.6641816783666 157.09229830495042,89.87472475012584 157.09909001693939,90.09885124545819 157.12965272078856,90.30260260502605 157.16870506482633,90.44522855709802 157.43188390439886,90.74406388491626 157.5456450803153,90.86631470051529 157.62884355207896,90.95460695627068 157.9922001433876,91.28740084352775 158.29273339889946,91.5386941872208 158.44554691865127,91.71527869913639 158.58987079841685,91.91903005890666 158.69004855035536,92.12957313036229 158.7528718862533,92.38086647395413 158.79192423008868,92.59140954571338 158.79701801418162,92.80874432925917 158.70193404623484,93.06682938473878 158.66457963029552,93.39962327229946 158.64590242232583,93.50829066392055 158.50837025454922,93.83429283939105 158.41838007069538,93.96333536718146 158.20444114304286,94.1127530313436 157.95484572754947,94.26217069499971 157.81731355967165,94.3504629507551 157.6390311199612,94.45233863079204 157.4777279602232,94.60175629444815 157.29774759261673,94.7240071103508 157.18908020069202,94.81909107829756 157.17040299282357,94.95492531787453 157.19926776867547,95.10434298142944 157.26888281666362,95.24696893350139 157.35547714442177,95.37601146088699 157.49131138420114,95.60013795662415 157.5694160720743,95.74955562017907 157.63733319206517,95.90576499592535 157.727323375919,96.0891412196275 157.7629798638611,96.19780861155222 157.8393866236358,96.421935107593 157.90390788763222,96.57814448333929 157.92088716750342,96.66643673909468 157.9446581594648,96.86339638647115 157.96673122342895,97.29806595386637 157.94635608756326,97.59010956918962 157.94975194345653,97.84819462527646 157.9565436554455,98.10627968085727 158.00238771137106,98.35078131235895 158.09237789522487,98.56811609620836 158.2655665510448,98.78545087975415 158.44724484664852,98.98920223922082 158.62892314235341,99.20653702307023 158.77494495021745,99.3627463985129 158.83946621411266,99.50537235028123 158.9532273899279,99.77024911795223 159.04151964568328,99.99437561328459 159.08226991761708,100.17775183729036 159.08226991761708,100.37471148507166 159.0347279336943,100.56487942086399 158.8734247740575,100.69392194835079 158.61533971837548,100.84333961190569 158.47610962260163,100.93163186836951 158.2536810549629,101.10142466809374 158.08388825523866,101.27800917930091 157.9769187915136,101.4953439628467 157.90051203153652,101.59042793109708 157.7952404957075,101.71947045878629 157.6016767041231,101.78738757847357 157.2722786725569,101.80776271464288 157.14493407276373,101.80776271464288 156.91741172113328,101.80776271464288 156.72045207345317,101.84172127479013 156.44199188210786,101.97076380217572 156.2144695303762,102.08622290629181 156.01920781059215,102.22205714586877 155.89016528300414,102.37826652191868 155.79847717095066,102.6091847294424 155.72546626717045,102.88085320859635 155.67283049915474,103.0913962806592 155.62868437122643,103.28835592833929 155.57095481942142,103.53285755953735 155.51322526751517,103.75019234338676 154.67784469287201,103.87244315898579 153.093677871445,104.05581938268796 151.65383492968243,104.21202875843423 150.53999416359275,104.27315416653737 149.77592656483375,104.13052821507263 149.60443583701107,104.07619451916088 149.55010214120054,104.02865253503569 149.49067466119584,103.99469397488843 149.42275754140738,103.96073541534841 149.3718197014901,103.94715199106686 148.84376409444897,103.88602658296374 148.2817499271594,103.80452603960212 147.7146419760805,103.78415090353401 147.6025787282625,103.77735919134264 147.549942960348,103.77056747955608 147.02528320930136,103.77056747955608 146.46496697021144,103.70944207175657 145.9012548750258,103.68906693558725 145.3494282759221,103.61435810380979 144.81288302879355,103.53285755953735 144.51404770148133,103.44456530408557 144.0182527261854,103.26798079216998 143.51566603900173,103.08460456846782 143.25927891141814,102.99631231271243 143.15061151949345,102.95556204098102 142.9994959278401,102.94877032889084 139.81588093301093,102.133764890417 139.54591038144943,102.0454726342568 139.16387658206995,101.83492956229514 138.64261268681537,101.42742684346304 138.41339240728888,101.27121746781796 138.36075663927318,101.27121746781796 138.31321465535038,101.30517602725678 138.20454726352688,101.32555116312248 138.13832807173563,101.33234287561747 138.0279627518137,101.29838431547022 137.87345130406464,101.24405061976087 137.81911760825412,101.21688377150139 137.76478391244356,101.19650863563568 137.71893985631561,101.16255007589325 137.49820921667413,101.09463295559874 136.98883081750145,100.94521529234746 136.46417106635363,100.78900591629755 135.93781338730975,100.6260048283599 135.47088318806814,100.46979545261361 134.9513172208108,100.30000265288939 134.45382431782124,100.1709601255038 134.36043827787174,100.15058498903088 134.23988539006754,100.04870930960115 132.74061496850265,99.49858063839348 130.80837290764103,98.65640835166013 127.94906216018394,97.25731568223617 126.09152893140337,96.31326771566829 124.69583211756907,95.47109542913736 123.8927121747723,94.97530045394264 123.64481468717494,94.88700819758002 123.55991828731283,94.85984134992776 123.59048099126319,94.92775846981745 123.64821054327062,95.09755126954167 123.65330432716115,95.28092749334503 123.90629559875023,95.71559706033543 124.12872416638896,96.08234950814456 124.35285066202493,96.44910195524527 124.38511129407374,96.48985222748269 124.42076778201583,96.57814448333929 124.53452895783106,96.82264611484096 124.72809274941547,97.2029819859196 124.74846788538237,97.25052396974118 124.83845806933742,97.49502560154646 124.94372960516642,97.79386092936471 125.06937627686115,98.19457193661266 125.2120022287307,98.5749078076913 125.21539808462398,98.71753375945966 125.18313745267638,99.15220332715847 125.05579285288322,99.58008118205869 124.95221924515265,100.00795903756614 124.80789536528584,100.39508662113977 124.62791499757817,100.80258934027549 124.43774706188705,101.21009205961363 124.41737192592014,101.26442575532296 124.37492372598909,101.6108030672664 124.19154750228692,102.0183057859973 123.99798371060132,102.48014220134839 124.00986920668322,102.69747698489418 124.03533812654065,103.1321465522894 124.05231740661428,103.56681611998822 124.0574111905048,103.99469397488843 124.06590083059221,104.40219669463139 124.11004695852051,104.8300745495316 124.21701642224556,105.25795240473543 124.33587138215373,105.6858302606477 124.41397607002686,106.11370811585154 124.38850714996703,106.5347942592688 124.38680922196978,106.95588040197765 124.40039264604893,107.08492293007167 124.57358130166642,107.54675934511914 124.58546679764711,107.98142891281796 124.61263364570421,108.19876369636376 124.7213010374265,108.6673918235014 124.7331865336096,109.10206139059301 124.75865545336583,109.53673095798821 124.86053113340277,109.93065025375323 124.87071870118382,110.35852810895706 124.8503435652169,110.42644522884675 124.8299684293512,110.4739872123647 124.60584193381644,110.84073966017384 124.40888228593393,111.11240813932778 124.31719417408286,111.25503409139974 124.06590083059221,111.61499482691629 123.78064892695431,111.95458042636473 123.4376674716126,112.287374313723 123.31202079971547,112.38924999315272 123.26447881579269,112.43000026549134 123.01318547230204,112.59300135302419 122.9113097923663,113.04125434409373 122.67869365674412,113.21783885631294 122.4443795931247,113.49629904796187 122.26949300950996,113.76117581522803 122.03687687388776,113.91059347918775 121.91802191397962,114.19584538231963 121.91802191397962,114.52184755779014 121.97744939388309,114.67805693353642 122.06404372184365,115.09914307725731 121.94858461792997,115.6221049004079 121.89085506602373,115.82585625997577 121.89085506602373,116.2129838435494 121.91971984197686,116.5186108828506 121.91971984197686,116.91253017790717 121.89255299402097,117.30644947367217 121.86199029007062,117.95845382420836 121.51221712273993,119.14021171049136 121.40864351480695,119.61563154951676 121.18791287526666,120.64797177184003 119.86692489331102,122.97752898446116 118.50858249551726,125.11012654849135 118.10787148816809,126.65184516998728 118.2487995119392,128.62144164739547 118.49669699953655,133.2330140876017 119.85673732542877,136.5473695381173 120.13689544487254,137.32162470465732 122.50720292902265,140.5273127635518 123.14732178408417,141.32194306656478 123.32390629579736,141.93319714516716 123.38163584770359,142.23882418477197 123.38163584770359,142.7617860083274 123.3256042236934,143.11495503175377 123.26617674389112,143.76695938228994 123.35446899964651,144.16087867775136 123.6193457672163,144.86042501281756 123.70594009517686,145.25434430787413 123.9402541587963,145.68901387526932 124.11514074251224,146.1508502903168 124.26116255017386,146.50401931374319 124.61433157360024,146.95906401761133 124.87581248517554,147.196773936618 124.96410474113334,147.196773936618 125.43273286837218,147.6586103519691 126.16453983508238,148.3785318232046 126.98463905775036,149.22749582182573 127.48043403294508,149.9270421564871 127.9796248642355,150.51792109932498 128.3582628075193,150.9525906667202 128.44825299137315,151.14955031440027 128.50428461528213,151.5163027621082 128.5348473192325,151.93059719343532 128.88631841466164,153.37044013509671 129.12063247828107,154.2261958456056 129.3838113178536,155.05478470805735 129.52983312581884,155.46907913928325 129.70641763743083,155.77470617929288 129.85243944509244,155.99204096243386 130.2922027964794,156.31804313790437 130.4093598281879,156.47425251365064 130.4093598281879,157.01758947266694 130.43822460414103,157.71713580803677 130.40426604419616,158.1857639348708 129.66227150950255,158.46422412682332 123.66858567913633,160.82773989868087 122.93168492833321,161.2556177538847 122.311941209441,161.62237020169385 121.90274056210563,161.7582044412708 121.25922585115083,161.92799724099504 120.93831745957085,162.0842066167413 120.23537526871257,162.2607911282521 119.76844506947097,162.3898336560425 119.3592444221356,162.45095906384202 119.00777332680767,162.75658610344684 118.68686493522769,163.06221314335525 118.10107977617912,163.456132438513 117.98562067236665,163.74138434225213 117.92619319256438,164.2235958931653 117.83959886460383,164.59034834087322 117.57642002503128,164.9638924998617 117.31493911345598,165.2898946753322 117.02289549793032,165.4461040510785 116.08563924355383,165.6634388349279 115.5015520124013,165.8128564984828 115.35553020463847,165.8807736187773 115.15177884507061,166.0573581302881 114.68315071773056,166.4716525619188 114.33167962240262,166.6006950893044 113.98190645486952,166.6889873450598 113.35706895208679,166.67540392108185 109.4756055501887,168.54312471804826 109.1496033747182,168.63820868599504 108.79813227928906,168.76725121408907 108.50608866376339,168.89629374147466 108.38893163205489,168.96421086146555 108.0680232404749,169.48717268461616 107.89313665686016,169.83354999625595 107.71825007314422,170.38367866705883 107.6010930412333,170.92701562637873 107.36677897761388,171.36168519377395 107.01700581028318,171.92539728855476 106.72496219465631,172.75398615171497 106.66723264275008,173.32448995868717 106.81325445051291,173.65049213375283 107.07643329008546,173.73878438991304 107.04926644212958,174.17345395730825 106.96097418637419,174.47908099660944 106.79967102653498,174.90695885181327 106.61120101884109,175.32804499523056 106.27501127548834,175.4502958111332 105.923540179958,175.52500464260703 105.2800254690032,175.62688032294759 104.75366778995932,175.64725545850968 104.2222163268225,175.74233942645645 103.79773432751196,175.9053405142929 103.05234393662143,176.2109675539989 102.56843445740739,176.46905260947852 102.1303690341189,176.7814713609711 101.41554134727993,177.3859337276857 101.07935160382597,177.71872761534758 100.69901573254492,177.92247897521906 100.42225346899444,177.99039609510874 100.26095030925643,177.99718780699652 99.99777146968388,178.11264691070778 99.7651553340617,178.29602313440992 99.3984028866574,178.60165017411595 99.06391107120068,179.0838617249279 98.90260791146267,179.45061417273703 98.948451967287,180.24524447504157 98.948451967287,181.04666649014473 98.9925980952153,181.5288780410579 99.02146287126962,182.0518398642085 99.16918260692849,182.3303000555538 99.29992306271613,182.7038442151495 99.29992306271613,182.88722043885167 99.32199612668029,183.1860557666699 99.26256864687801,183.6003501978958 99.26426657497646,183.82447669322815 99.41028838263809,184.1029368851807 99.6157376703044,184.299896532962 99.67346722221063,184.7141909641879 99.70402992605979,185.21677765086557 99.52744541434659,185.41373729884927 99.26426657497646,185.78728145814136 98.94505611139373,186.06574164948668 98.59358501586338,186.33061841715767 98.27267662448581,186.61587032089676 98.12665481662177,186.90112222412984 97.74631894523952,187.18637412827377 97.33881622600259,187.60066855949964 97.13336693833628,187.87912875114858 97.10280423428472,188.18475579044977 96.9007508027141,188.47000769388526 96.8124585467563,188.73488446125262 96.69530151504779,189.12880375701764 96.69530151504779,189.5498899003337 96.63757196314155,189.8555169397361 96.40325789942092,190.3173533550872 96.2572360917593,190.7316477863131 96.08234950794215,191.0780250978517 95.93802562827777,191.3157350169596 95.93802562827777,191.7571962967486 95.90916085232465,192.25978298383106 95.67484678870522,192.803119943151 95.58825246074467,193.04082986215766 95.5899503888431,194.37200541199556 95.4727933569322,195.11230201899556 95.39468866905905,195.4586793306354 94.78003873405737,196.4366858566421 94.02955455927632,196.97323110407424 93.20096569672333,197.29923327954475 94.58477701437452,198.52174143745793 95.06698856569251,198.6847425253956 95.00756108568783,199.14657894074668 93.75449022372308,199.72387445980902 91.8562067229075,200.5796301703179 90.86461677251805,201.18409253743732 90.55219802092428,201.76138805649967 90.86631470051529,202.1892659118047 92.48953386577763,202.6443106146608 92.49802350576384,202.71901944643827 92.64404531352668,203.22160613412797 92.64404531352668,203.70381768493993 92.52688828181817,204.00944472494956 92.49972143386229,204.26752978012556 92.55745098586974,204.62069880355193 92.90892208119766,205.14366062670254 93.25869524852835,205.73453956984403 93.69845859981409,206.25750139269104 94.01936699139407,206.60387870463447 94.1093571751467,207.06571511998555 94.04992969534443,207.60905207859702 94.1093571751467,207.91467911860664 94.16708672705293,208.24068129407715 94.25707691090678,208.39009895763206 94.37253601471924,208.56668346944645 94.51855782248208,208.76364311722776 94.69514233419527,209.00135303623443 95.22150001334035,209.50393972392416 95.60013795672536,209.91823415515006 95.92274427630258,210.18311092282104 95.95330698035416,210.32573687418457 95.95330698035416,210.74003130581528 95.80728517238892,211.16111744882772 95.58825246074467,211.81312179976874 95.51524155686326,212.40400074321386 95.45751200505822,212.89979571840857 95.29790677321625,213.3072984377467 95.22489586933483,213.49067466144885 95.22829172532931,213.9864696366436 94.32329610279922,216.1869843209683 93.31642480043459,218.02753826987762 91.9088424907208,219.71188284314192 89.71681744628111,221.9327726635347 87.64534528974681,223.69861778046422 85.34974663737414,225.1248772985525 82.80625049760651,226.15721752087575 78.22863661704152,228.02493831784219 75.0620009020836,228.96219457191506 72.10251240299164,229.7160746025894 68.37725837694101,230.42920436163354 64.98310031045384,231.47512800823836 60.19664128632926,233.16626429339038 56.9603905234844,234.01522829201147 57.221871435059704,234.87098400272276 57.327142970888715,235.08831878596496 57.5512694666259,235.08831878596496 57.86708407401174,235.11548563392083 58.01650173787026,235.21736131405896 58.20497174546294,235.35998726582733 58.337410129247836,235.5976971851376 58.38155625717613,235.78786512103116 58.50550500107602,236.1274507204796 58.76189212855839,236.39232748815058 59.39861512752422,236.86095561528822 59.74838829495611,237.09187382311558 60.29681903826775,237.33637545471845 60.588862653591,237.41787599858608 60.943729605014624,237.40429257430452 61.40386809226727,237.28883347089686 62.22906109892698,237.15979094249923 63.215557265324705,237.15299923061147 63.74870665655996,237.28883347089686 64.1001777518879,237.48579311827336 64.26657469561763,237.66237762978415 64.4227840713639,237.92046268566855 64.48730533525912,238.17854774084458 64.48051362327014,238.524925052788 64.3412835275975,238.89167750019232 64.23431406367003,239.17692940332418 63.969437296100246,239.46897301925466 63.51269466484209,239.60480725893285 61.33595097247878,239.9647679944494 60.3273817420157,240.80014856878896 59.70254423923298,241.77815509550408 58.452869233060305,245.37097073736498 57.65314514635922,246.05693364845322 53.19778208159566,249.37128909896882 48.48603188924854,253.03202186112424 44.83378876718054,255.9592497280662 44.32950415199961,256 40.58387499008329,254.28848857877986 38.82482158504157,253.4327328683722 37.48006261122573,253.14068925304895 36.822964476394205,253.00485501306716 34.36776059228077,252.10834903072566 31.66805507656445,251.1846762002259 30.58817287041961,250.6617143770753 25.901891597929907,248.06728039708682 24.87294723170233,247.48998487802444 25.883214390061447,246.79043854295824 29.10078794473423,244.34542222713188 30.59666251040582,243.21799803716547 31.360730109164813,242.11774069495252 31.569575252724402,241.49969490385516 31.707107420602224,241.04465020029062 31.724086700473443,240.56243864947865 31.323375693225486,239.90364258604265 30.39800493472848,238.92563606003594 26.6336985648425,235.8218236811784 25.326294006966002,234.8574005784412 22.940705170840697,234.00164486803354 19.97951874354908,233.64168413241578 17.315469715977258,233.2681399728201 15.418884142956504,233.34964051709255 12.267529780074964,234.08993712378893 7.116016236543304,235.5161966414724 3.7048788900837053,235.66561430543211 0,235.71994800134388 0.29543947162134887,235.40752924995252 0.5280556072435315,235.03398509035682 0.6146499352040886,234.5110232672062 0.6723794869079149,234.1171039714412 0.7606717428657143,233.6620592685851 0.8761308466781845,233.3564322291827 0.9627251744363328,233.1119305970738 0.9915899503894503,232.54821850229303 0.9915899503894503,232.10675722301005 1.078184278248803,231.82829703166473 1.1953413100585155,231.50229485629544 1.5451144774904106,231.14912583276785 1.837158093117275,230.82312365739853 2.1292017085417307,230.4631629217808 2.682726235642691,229.9605762346983 3.0630621070249457,229.54628180286517 3.355105722550606,229.24065476356398 3.4994296024173983,228.90786087630693 3.9357970976074417,228.07927201375392 4.170111161226867,227.57668532646903 4.198975937281189,227.3389754064503 4.489321624809606,226.9925980955189 4.606478656518115,226.6869710558129 4.664208208424349,226.4900114078292 4.752500464382149,226.26588491249683 5.015679303853487,225.87875732922683 5.277160215428787,225.21996126649924 5.5097763511521745,224.7649165626311 5.6557981588138,224.47966465939803 6.005571326448104,224.1197039241851 6.209322686015964,223.8344520206484 6.2670522379222,223.57636696456157 6.441938821638147,223.24357307760812 6.645690181206008,222.829278646281 6.761149285119682,222.46252619857307 6.761149285119682,222.1568991589683 6.820576764921955,222.0686069035165 6.995463348739108,221.9395643754225 7.374101292022916,221.6067704881654 7.812166715311406,221.2807683126949 8.13477303488863,221.08380866491362 8.57283845817712,220.6695142333841 8.951476401460928,220.18730268257212 9.21295731303623,219.86130050710162 9.330114344947145,219.5760486032613 9.447271376655653,219.37908895558124 9.533865704616211,219.22967129202632 9.649324808327476,218.96479452435534 9.854774095993784,218.78821001243975 10.031358607706974,218.63879234888483 10.257183031441391,218.4282492775304 10.695248454729882,218.0954553895649 11.16217865397149,217.8373703343889 11.365930013640554,217.57249356641432 11.51195182130218,217.3347836470028 11.715703180971245,217.09028201519752 11.948319316795837,216.78465497559273 12.153768604259735,216.45865280012222 12.29979041212377,216.17340089699036 12.386384739983123,215.91531584110592 12.619000875605305,215.41272915412463 12.793887459220048,215.05956013069826 12.909346563133724,214.4347226274095 13.05536837079535,213.95251107649634 13.143660626753148,213.47709123747092 13.141962698755906,213.01525482181623 13.19969225066214,212.60096039059033 13.228557026615258,212.09837370360904 13.228557026615258,211.8402886477246 13.344016130326525,211.31053511309108 13.490037938190559,211.00490807308145 13.48664208209487,209.58544026779177 13.340620274433244,209.02172817240375 13.10630621081382,208.62780887694237 13.019711882853262,208.27463985351596 12.562969251696313,206.38654392108867 12.386384739983123,205.69378929821383 12.209800228269932,205.08253521859942 11.975486164650508,204.64107393972125 11.506858037310455,204.07736184423203 11.038229910071603,203.77173480493084 10.80391584645218,203.37781550987427 10.511872231027724,202.85485368631885 10.275860239309852,202.50847637508383 9.98211869578695,201.63234552881048 9.98211869578695,201.19767596141526 9.910805720105186,200.75621468213228 9.875149232061895,200.41662908268384 9.788554904202542,200.09062690731454 9.769877696131674,199.84612527540807 9.759690128249424,199.47937282770013 9.194280105167769,198.3044066536085 8.465868994350862,197.43506751952654 7.498050035922802,196.57931180841044 6.255166741840299,195.83901520171403 6.019154750324837,195.75072294626224 6.019154750324837,194.78629984352506 6.087071870113321,194.03241981254712 6.121030430058165,192.91178733477207 6.15498899000301,192.15790730369292 6.222906109993902,191.533069800809 6.292521157779628,190.80635661778692 6.32478178972723,189.79439153193658 6.32138593383395,188.2866314698795 6.3893030536224344,187.47841774359702 6.494574589451451,186.86037195280326 6.63210675722807,186.31024328159558 6.876608388830949,185.89594884976245 6.978484068665481,185.68540577840804 7.048099116552412,185.50202955500947 7.222985700268359,185.21677765086557 7.256944260314408,184.517231316103 7.290902820259252,184.1233120207428 7.465789403873995,183.75655957364208 7.464091475876753,183.47130766980177 7.533706523966092,182.61555195969774 7.565967155711285,182.2487995121922 7.705197251485147,181.93638076080083 7.983657443032869,181.62396200900466 8.190804658797623,181.28437640955622 8.435306290299296,181.0534582020325 8.504921338186227,180.71387260258405 8.504921338186227,180.32674501901042 8.258721778586107,179.464197596715 7.980261587038385,178.76465126134516 7.874990051209368,178.323189982467 7.664446979551333,177.75268617549483 7.628790491609247,177.33839174426893 7.453903907994504,176.8697636167265 7.245058764232508,175.95967421030585 6.998859204632388,175.17862733127083 6.788316133075558,174.68283235648093 6.752659645032267,174.16666224481327 6.683044597246541,173.82707664536483 6.8324622610038555,173.3788236542953 6.667763245170157,171.46356087320368 6.567585493332866,169.4532141247725 6.457220173613327,169.20192078148426 6.4317512535534895,168.8895020296881 6.499668373544382,168.4480407504051 6.6049399093734,168.02695460708904 6.674554957159126,167.72132756778785 6.813785052932987,167.48361764776914 6.883400100819917,167.2730745764147 6.986973708752896,167.11686520066843 7.054890828541381,166.64823707312596 7.051494972648101,164.7261825805514 6.981879924862374,164.21001246918735 6.947921364715121,163.68705064603677 6.944525508821841,163.34746504658833 6.876608388830949,163.06221314335525 6.876608388830949,162.7497943919639 7.014140556607567,162.46454248781995 7.3282572361985805,162.23362428029623 7.396174355987065,161.79216300141806 7.396174355987065,161.16732549812932 7.567665083809732,160.72586421894755 7.637280131696663,159.91765049195664 7.774812299372077,159.10943676557298 7.844427347360212,158.5117661103413 7.84272941936297,158.09747167911542 7.948000955090783,157.80542806348853 8.017616002977713,157.30963308829382 7.87668797920661,156.63725360189193 7.980261587038385,155.54378797136434 7.978563659142346,155.02082614821373 7.873292123414534,154.53182288490677 7.94290717120026,153.9816942141039 7.9768657311451046,153.6964423102636 8.010824290988744,153.49269095069573 8.184012946808654,153.46552410243626 8.603401162026275,153.36364842300654 8.915819913518842,153.0444379596262 9.053352081396666,152.4739341523504 9.158623617225683,152.24301594452305 9.192582177069323,152.0596397208209 9.505000928663094,151.61817844194275 9.783461120312019,151.17671716265977 9.888732656039833,150.65375533950916 10.09418194370614,150.0560846839739 10.408298623094744,149.17316212550915 10.442257183039588,148.8879102223773 10.788634494477,148.07290478349861 10.963521078294152,147.71294404828566 11.101053245969565,147.18998222513505 11.413471997462132,146.5651447218463 11.691932189111059,146.12368344266454 11.797203724940076,145.70938901143865 12.006048868499663,145.29509457980794 12.213196084163213,144.79929960501804 12.386384739983123,144.06579470980458 12.489958347713692,143.6039582944535 12.664844931429641,142.97912079177198 12.87199214709319,142.4289921203619 13.148754410744875,141.54606956189716 13.321943066362376,140.9008569228439 13.495131722182286,140.45260393177438 13.634361817854943,140.19451887629475 13.878863449559026,139.86851670052064 14.155625713210709,139.55609794902807 14.400127344611178,138.9584272941 14.641233120320777,138.30642294315902 14.780463215993434,137.6340434564535 14.953651871813344,137.13824848125878 15.05892340764236,136.7239540500329 15.232112063259862,136.18061709071296 15.230414135363823,135.00565091662136 15.125142599433602,134.20422890182184 14.948558087720413,133.0292627277302 14.80763006394931,132.56063460049137 14.561430504349188,131.67092032993645 14.388241848731688,130.91024858737435 14.213355264914536,130.33974478009856 14.002812193256501,129.4839890696909 13.861884169485398,128.85915156640215 13.651341097928569,128.18677208000025 13.54776748999559,127.60947656053308 13.440798026270535,126.90993022617532 13.440798026270535,126.44130209863286 13.544371634001106,125.87079829166068 13.544371634001106,125.30029448468851 13.821133897652789,124.89279176494556 14.099594089099307,124.24757912589232 14.585201496411784,123.36465656742756 14.861963759962263,122.65831852057481 15.106465391463939,122.18969039333595 15.315310535225933,121.56485289075565 15.384925583112864,121.23205900309375 15.418884142956504,120.55288780419687 15.452842702901348,119.8533414695355 15.381529727017176,118.88891836679831 15.379831799019934,118.42029023996427 15.692250550512501,118.03316265639064 16.006367230002308,117.59170137680405 16.77213275685975,116.76990422613882 17.432626747685763,116.11789987560263 18.232350834386846,115.64927174806017 18.721354097592602,115.33685299687122 19.139044384914186,115.16026848505682 19.55673467223577,114.84105802167649 19.79953837594261,114.7935160375513 20.42607380682378,114.5558061179374 20.740190486414793,114.32488791041365 21.191839333580017,114.19584538231963 21.50765394106707,113.93096861495226 21.784416204617546,113.82909293491531 22.237762979881218,113.46234048781461 22.58583821931587,113.14992173601843 23.071445626527144,112.73562730509614 23.5604488897329,112.23983232959782 23.767596105497653,111.66932852262563 23.801554665341293,111.43841031510189 23.871169713228223,111.20070039508317 24.081712784886257,111.017324171381 24.742206775813475,110.44682036440884 25.404398694940348,109.97819223716998 25.986787997792018,109.5163558221225 26.2312896294961,109.23110391868703 26.27543575732319,109.04093598279348 26.343352877314086,108.9051017429129 26.526729101016244,108.75568407966162 27.616798875245742,107.88634494456758 28.68819144140437,106.84042129856999 29.909001671522724,105.78091422818964 31.600137956775963,104.07619451916088 31.966890404079077,103.68906693558725 32.29289257965079,103.38343989628606 32.58833205106973,103.07102114448988 33.03318918634719,102.62955986561172 33.50181731358604,102.15414002587788 33.92799724099503,101.6990953230218 34.29814554429263,101.31196773944815 34.58679330392501,100.9520070038304 34.74979439166027,100.65317167672059 34.899212055316376,100.36112806099251 35.052025575169374,100.16416841300881 35.40519459849455,99.89249993385488 35.93494813363412,99.60045631822801 36.350940492958465,99.34237126264719 36.880694028098034,98.99599395110857 37.34083251535067,98.65640835166013 37.823044066567455,98.32361446430187 38.26280741785319,98.02477913688844 38.639747433342166,97.8346112009949 39.00649988074648,97.61048470566254 39.08120871252394,97.54935929786303 39.19666781633641,97.45427532991627 39.38004404003856,97.30485766595655 39.666993871774906,97.03998089869037 40.04053803106699,96.67322845118485 40.54482264614672,96.19780861155222 40.889502029688096,95.84463958812583 41.42604727681663,95.36242803690905 41.99824901178605,94.83946621375844 42.46857506722455,94.35725466254166 43.0017244581562,93.86145968775175 43.41262303348881,93.44716525642465 44.04085639246843,92.88345316103663 44.568911999711965,92.3469079142117 44.991696071025274,91.98015546640256 45.47051176614637,91.68132013929275 45.670867269922155,91.54548589941217 45.82707664566844,91.43002679529609 45.96460881334385,91.32815111586638 46.141193325057046,91.17194174012009 46.22948558091364,91.02252407616037 46.39078874065165,90.72368874874694 46.6420820843447,90.2958108935431 46.90356299592,89.77964078187546 47.112408139479584,89.31780436682799 47.465577162905966,88.61146632027884 47.720266362492296,88.06133764876755 47.951184570218444,87.45008356986155 48.102300161871796,87.07653941026585 48.355291433460884,86.47207704375366 48.628657841118084,85.77932242057521 48.69148117691484,85.52802907688216 48.66601225715862,85.39219483700158 48.55394900913822,85.18844347743372 48.38585413741124,84.75377391044333 48.17700899385166,84.12214469567164 47.89515294620824,83.36826466459249 47.59801554669086,82.56684265009658 47.38747247503282,82.06425596281167 47.20919003532239,81.35791791595891 47.0767516515375,80.61082959676753 46.90016713982431,79.81619929436178 46.839041732024796,79.28644575942462 46.867906507977914,78.97402700762845 46.98506353968642,78.69556681597952 47.114106067578035,78.5461491524246 47.28050301120656,78.36956464050901 47.62857825064122,78.02997904106057 47.96816385008966,77.66322659365625 48.22964476166496,77.28968243436417 48.76958586488919,76.55617753985915 49.100681824250216,76.09434112450806 49.693258695287746,75.26575226195507 49.87493699109387,75.02125062984616 50.075292494667245,74.80391584630037 50.76804711754206,73.98891040752291 51.18913326095934,73.42519831304573 51.270633804725755,73.32332263260396 51.43363489246101,73.11277956124954 51.70360544402252,72.76640224960973 51.78680391588739,72.61698458605481 51.86490860376053,72.45398349811715 51.92263815566677,72.29777412277569 51.93452365184987,72.15514817100734 51.96678428359506,71.84952113140254 51.97866977957576,71.51672724374066 52.04149311547372,71.23147534060878 52.27071339510142,70.29421908582748 52.457485474899265,69.53354734336658 52.49144403484411,69.3297959834951 52.5593611546326,69.09887777597136 52.63237205861521,68.92229326375215 52.77499801038356,68.6574164966884 52.927811530034155,68.41291486457949 53.245324065518446,68.03937070528741 53.613774440920004,67.7609105139421 53.941474544488955,67.59790942610564 54.430477807694714,67.44849176255073 54.674979439196385,67.40094977872916 54.939856206867375,67.37378293077329 55.238691534280804,67.33303265843465 55.64619425372013,67.24474040267926 56.34743851658117,67.08173931504521 56.45271005241018,67.04098904280778 56.59703393207457,66.98665534750326 57.063964131316176,66.74894542748453 57.72106226635012,66.3618178439109 57.901042633956585,66.23956702831187 58.067439577787525,66.09014936475697 58.18459660949603,65.89318971697567 58.28817021732781,65.7098134932735 58.37136868929388,65.50606213380685 59.228822327799996,61.240867004532014 59.2610829597476,60.91486482875789 59.27466638372553,60.561695805635125 59.160905207910304,59.9164831668855 58.899424296335006,58.92489321619243 58.60568275291331,57.64125965017612 58.490223649100834,57.05038070733824 58.50210914498033,56.80587907553295 58.31533706538489,56.493460324040385 58.27628472134712,56.384792932419295 58.833205104442555,55.95691507691185 59.140530071943395,55.73278858157949 59.682169103063664,55.3117024378586 60.09646353449197,55.019658822535355 60.67375905345311,54.59178096763513 60.88260419721511,54.44915501556317 61.028626004876735,54.29294563951328 61.347836468358274,53.89223463226532 61.47687899624988,53.72923354503609 61.63988008398513,53.52548218516461 61.78759981974521,53.34889767324902 61.962486403359954,53.158729737659094 62.1696336191247,52.988936937934874 62.375082906791015,52.8327275622898 62.61449075430096,52.6561430503742 62.76051256206379,52.51351709890946 62.8895550898542,52.34372429918524 62.89125301795264,52.24864033093486 63.1187753695831,51.85472103557467 63.247817897272306,51.63738625202887 63.54155944089641,50.68654657397805 64.14262595181894,48.40453134538091 64.42787785545684,47.630276178942076 64.75897381491907,47.616692754964134 64.81840129472134,47.60990104246915 64.88801634270948,47.589525906907056 65.2751439260807,47.28389886699864 65.61812538142243,46.95110498004519 65.94582548489018,46.59114424412382 66.22088982044342,46.22439179702312 66.47727694802698,45.816889077280166 66.5214230760565,45.715013397850456 66.53670442813288,45.667471414028874 66.55877749189462,45.619929429903685 66.62329875578982,45.54522059812623 66.67593452380552,45.497678614304654 67.20738598694234,45.477303477831725 67.53508609030888,45.477303477831725 67.74562916206813,45.46372005385379 68.28557026508994,45.402594646054276 68.87814713622868,45.31430239060249 69.4299737353324,45.19205157469985 69.52335977507951,45.17167643853054 69.78993447074774,45.15809301485621 69.96312312636525,45.14450959087827 70.04971745422459,45.12413445440534 70.29082322993419,45.03584219895357 70.74926378908839,44.73700687113533 71.16525614841272,44.431379831834136 71.26203804435674,44.3770461361248 71.32825723614798,44.24800360813198 71.35542408410386,44.193669912422635 71.51672724394307,43.806542328849005 71.63388427565158,43.37187276185861 71.66274905160469,42.94399490594635 71.78669779540337,42.509325339158366 71.92422996318,42.11540604349456 72.07194969894006,41.721486748033165 72.30286790656501,41.35473430062885 72.54567161017064,40.981190141640376 72.86318414565494,40.621229406123824 73.20956145709235,40.28843551876555 73.58310561668804,39.9692250548792 73.95834770387616,39.67718143955595 74.33868357535962,39.3851378242327 74.74279043870327,39.0795107846279 75.11293874200086,38.794258880787595 75.83286021303397,38.183004802185216 76.21998779630398,37.870586050389036 76.63937601172402,37.61929270669599 77.16403576266946,37.38837449917225 77.71246650587989,37.266123683269605 78.25410553689895,37.137081155479194 78.77027564806058,36.967288355754974 79.25588305537306,36.82466240439145 79.78733451850987,36.688828164409664 80.32557769353444,36.559785636720456 80.86042501276695,36.40357626067056 81.3256572839101,36.220200037272015 81.7722123471848,36.002865253422605 82.20518398658278,35.76515533370749 82.64324940987127,35.50707027822788 83.11697132100063,35.25577693453483 83.56522431237379,35.0044835912466 83.98631045558865,34.73281511138423 84.03385243951143,34.6988565518442 84.5432308386841,34.53585546370413 85.16806834166923,33.965351656731954 86.4381184836064,32.532300427160735 87.86777385728433,30.691746477846564 88.86106173567103,29.584697424049462 89.73889051024526,28.620274321312273 90.1786538616322,27.99543681873196 90.72029289265126,26.77292866051516 91.48945427540197,24.59278911175255 91.91733213070701,23.180113018654257 92.46236701782176,22.140981083836003 92.86986973715989,21.264850237562637 93.60846841596025,19.66879791975014 94.38951529479287,18.446289761836955 95.19433316548567,17.542992067607713 97.37277478594743,15.138726023512744 98.58509537607958,13.719258217919462 100.29660679719852,11.939829676708422 101.9215238904581,10.0245668956168 103.96582919913773,7.362215796244629 111.02411588367359,0 111.54877563482144,0.1222508155990303 139.77173480508264,11.715703180971245 140.10113283644642,11.783620300658525 140.38298888398865,12.170747884232158 140.56127132369906,12.39487437986813 140.74804340349692,12.754835115182273 140.9280237711034,13.175921258599546 141.07913936285794,13.576632266151115 141.2862865786227,13.956968137229758 141.57493433805266,14.316928872847514 141.6122887540932,14.398429416816345 141.63096596196166,14.575013928023512 141.63096596196166,14.629347624340081 141.61908046608218,14.683681319948219 141.56644469806645,14.792348711872924 141.53757992211334,14.846682408189492 141.51380893025316,14.901016103494017 141.49682965017954,14.955349799709381 141.48494415430002,15.233809991054695 141.5953094740196,15.586979014885891 141.61398668198925,15.634520998606265 141.6360597459534,15.926564614334334 141.51041307415747,16.177857957926182 141.49003793819057,16.23219165363552 141.47645451431382,16.632902661187092 141.59191361812628,17.067572228582303 141.71076857793324,17.271323587745346 142.02148940142857,17.60411747540723 142.36956464086322,17.94370307485567 142.84838033598433,18.20178813033528 143.11155917565807,18.385164354341054 143.14721566360015,18.41912291388108 143.19985143141346,18.507415169940085 143.2049452155064,18.59570742610029 143.21003899949812,18.704374817721384 143.14721566360015,19.139044384711777 143.13533016751825,19.23412835296216 143.15400737558912,19.36317088044895 143.19985143141346,19.492213408542973 143.4222799991534,19.68917305622307 143.66678163065507,19.797840447844163 143.9622211023776,19.93367468742113 144.0573050700208,19.988008383332883 144.2186082297588,20.076300639493088 144.3272756215823,20.15100947127054 144.7585493328818,20.320802270994765 145.4139495398173,20.497386782505544 146.2781948904136,20.701138142073404 147.28846204877271,20.90488950194488 147.9676332476696,21.0339320300389 148.56190804670436,21.129015997985668 149.14090149396637,21.264850237562637 149.5365187172226,21.41426790111754 149.83195818874273,21.59085241303314 150.08834531632633,21.8149789083655 150.2649298280395,22.079855676036487 150.50773353154392,22.317565596055214 150.84562120309633,22.568858939039835 151.19709229852546,22.80656885905856 151.61478258584705,23.105404186471986 152.05794179302606,23.411031226177993 152.57580983218494,23.737033401648496 153.01896903946516,24.00191016921828 153.470617886934,24.280370360563595 153.7320987984081,24.42978802452332 154.44183270115414,24.76937362397176 154.86461677246746,25.06141723929501 155.11081633216878,25.23121003901923 155.7475393311346,25.693046454370318 156.81214018530426,26.474093332696917 157.57960364015895,26.99705515615113 158.59496458240858,27.615100946944885 159.55089804485593,28.20597989008638 159.81237895643125,28.36218926583266 160.61380097123077,28.66781630513385 161.22165919414226,28.8987345129612 161.5561510097002,29.020985328560233Z"/></svg>