<svg xmlns="http://www.w3.org/2000/svg" width="256" height="256"><path d="M216.68085275562916,1.0177408935049446 221.51639417589453,8.050330467320801 220.60551607613178,10.375868408903772 218.68961884418457,11.500472096454219 210.23728072355016,11.515738210008449 207.23748943994434,13.09832529933281 206.87110271828257,14.660557571014554 207.37615663668439,16.212612433230458 209.05924563939402,19.45920588373871 210.68381454057547,21.224986333818137 211.3567957064056,21.91705014132567 212.51956467731083,23.12307310020486 214.371853103414,24.42069273957532 215.581692590568,25.117845251398723 216.9836306714469,25.814997763525437 219.4020374695622,26.700432341026392 221.1818118571548,27.428117079958255 222.1804701088307,27.881011777643785 223.90045221892987,29.01070416928262 225.81253292252646,29.550106842612756 226.27814938130498,29.63661481878816 228.879749540327,27.652020076226034 230.4063608805844,26.51215027565215 231.50297669341182,25.138200069572132 232.20267355769647,23.937265815312124 232.71536053279956,22.665089698430943 232.89346518908712,22.634557471322484 234.1147542613689,22.939879739449797 234.84625552857557,23.22993589425036 235.6184664314466,23.60650002446805 236.3766833971078,23.95253192833556 236.56114893405555,24.120459176067186 236.81049545296426,24.82778909712895 237.22776921937714,26.04398946463988 237.55471848133976,26.842916066192913 238.06486110428494,28.094737364976513 238.31166327088405,29.122655667416506 238.61825771505244,29.748566316922048 238.75438055963454,30.038622471495128 239.23526313181563,31.09707300074027 239.798837151594,33.55491725863054 239.96167569455477,35.67181831719665 239.90315559317824,37.03050241017741 240.01765144362173,37.59025990122599 240.30516324603687,38.07877553033585 240.41584256820553,38.50113800091292 240.5735924066988,38.77592804238673 240.7351587735427,39.05580678825225 240.90817472543856,39.33059682957441 241.04556974606172,39.62574168823588 241.17278735774983,39.936152660906544 241.2987327933969,40.24656363334972 241.40050688267158,40.562063310412086 241.57861153911077,40.85720816983183 241.6129602941907,40.88774039640949 241.64858122553923,40.923361327833824 241.68674650896983,40.953893554411486 241.9348208518375,41.162530437428344 242.15617949617481,41.41187695671619 242.26431446603388,41.696844406670095 242.24904835263132,42.007255379113275 242.22869353476122,42.30748894262141 242.21724394970929,42.622988619911254 242.18035084231974,42.87233513889579 242.5492819162911,43.890076032400735 248.38602594054197,49.792973214577756 256,57.685553843556946 252.9289668540005,60.402922029366806 250.22050390100878,63.70549122871452 250.15689509516474,63.77164438671652 248.98140436316652,63.3543706206828 248.48016697319116,63.115201510405825 246.71947522735178,62.30609750014523 245.65084728924742,61.888823733656544 245.3137206181981,61.78196093983853 244.82011628484818,61.68527555525886 244.31633454256323,61.670009441704636 243.9461312925508,61.78704964468518 243.61409332612064,61.93462207401592 242.99072702877305,62.22976693343566 242.37753814043631,62.45875863432262 241.80887541619043,62.79970183334347 241.44376087064552,62.98289519455349 241.2033195846308,63.043959647784654 240.88527555541052,63.02869353445791 239.74667793072604,62.59615365494579 239.3981016747006,62.382428067082266 239.147482979675,62.17379118406541 238.4655965810267,61.60894498801851 238.10811509233474,61.45119514975273 237.66539780350843,61.42066292287175 237.19850916861304,61.466461263306954 236.99241663767828,61.517348307527236 236.58786463251008,61.62421110157274 236.11715946926404,61.74125130432581 235.75967798049624,61.81249316694698 234.98746707747353,61.85829150730636 234.67196740056283,61.85829150730636 234.29031456549848,61.85829150730636 233.59825075783928,61.8532028024597 233.28147890473588,61.81758187126285 232.86547731459154,61.73616259970663 232.68482830599442,61.70563037312896 232.33625204989315,61.64456591921535 231.738329274959,61.54279183001652 231.3248720369726,61.40539680962083 231.24599711772598,61.135695472462885 231.179843959724,60.99321174744802 231.11877950603787,60.774397455496114 231.0348158823237,60.52505093651157 231.00555583163543,60.382567211269226 230.8796103960642,60.179019032871544 230.82109029468768,60.011091785367405 230.69514485911643,59.79736619780719 230.57937683255608,59.58872931456285 230.42417134622073,59.30885056869734 230.2651493316106,59.166366843909955 230.11121602146798,59.095124981364606 229.93056701287085,59.04932664123271 229.6087064552999,59.04423793638605 229.4089748050254,59.04423793638605 229.01968891318393,59.10021368545299 228.6240421409097,59.18163295700922 228.01085325249716,59.31902797763239 227.23864234955028,59.4920439294524 226.45370968543457,59.67523729066242 225.08612035978732,60.06706753473766 224.61795954877505,60.20446255536083 224.36734085382525,60.4080107337585 224.25284500323014,60.5606718679359 224.0785568752174,60.891437658021694 223.82030512349053,61.34942106055389 223.60912388816408,61.60894498801851 223.34959996032032,61.82775928042538 222.89797743875167,62.18396859300046 222.46543755908792,62.57071013245651 222.17665358048004,62.68775033520958 221.72503105898724,62.79461312925508 221.47441236411328,62.78952442440842 221.07876559161159,62.73863738018814 220.80906425483278,62.70301644876381 220.33199821100234,62.57071013245651 219.96433931322366,62.54017790587884 219.67555533476747,62.54017790587884 219.1386970133678,62.6623068127203 218.94659841971873,62.733548675341474 218.6858023158339,62.83023406045193 218.24308502708342,62.94727426312917 217.8868757143567,62.98798389871771 217.42507578392883,63.00325001249942 217.38436614818863,63.00833871658781 216.9098444566678,63.06940317027394 216.35263131747382,63.166088555384384 216.21014759238315,63.23224171338638 216.01677682254137,63.512120459251896 215.98624459581205,63.68513641107191 215.90864185275814,63.83779754494599 215.67456144717616,64.06678924613627 215.47101326839933,64.19400685782438 215.17459623316603,64.37211151418775 214.96595934999752,64.51968394382179 214.7242458877901,64.72832082676283 214.4532723748944,64.96240123204147 213.82736172538887,65.37967499853016 213.44062018585697,65.54251354141512 212.70148586202484,65.63919892652558 211.8440391591711,65.6086666996446 211.32880783198587,65.50689261021827 211.12907618148387,65.42038463457367 210.75123987477016,65.0641753214678 210.54260299167748,64.93186900546381 210.35940963077076,64.78429657613307 210.03118819261542,64.52986135275684 209.46125329232848,64.18891815297772 209.07069522452178,64.09732147271393 208.5821795955636,63.97519256564499 208.15854494864215,63.85306365827274 207.0186751479166,63.6647815928985 206.43220195795857,63.60371713951569 206.1039805198032,63.56300750347218 205.4081001838692,63.58336232156976 203.78353128261193,63.598628434896504 201.90961586244595,63.578273617026404 200.7519355961599,63.863241067435276 200.3512001192665,64.06678924613627 200.1832728718382,64.51968394382179 200.00771256770858,64.79956268915652 199.6502310789408,65.11506236621887 199.0523083040825,65.70535208430009 198.5141778064901,66.13280325972381 197.57785618454136,66.44830293678618 196.86925408736272,66.65693982003052 196.0677831338034,66.75362520483766 194.8503105898723,67.11492322180443 193.4801769120671,67.26758435598182 192.90388113104407,67.34391492291887 191.91158375995258,67.56272921532575 191.17753814043633,67.79172091628853 189.4295681559174,68.48378472379606 189.2463747950107,68.56011529073311 188.67516771853104,68.80946180979348 188.10650499428516,68.88579237650303 187.17908860507876,68.85526015015286 186.9081150922589,68.81963921872853 186.67276251056006,68.7076877205188 186.23258957411917,68.38201063459722 185.61558415743178,67.7764548027343 185.4794613129255,67.50675346580384 185.29881230432838,67.01314913260559 185.1843164538849,66.89610892985253 184.7912140336928,66.70273816016241 184.49861352681012,66.67729463767313 184.1538537991353,66.67729463767313 183.6373502957574,66.70782686447828 182.9923570044228,66.84522188510145 181.92245689012572,67.14545544883707 180.52942404214085,67.65432589558954 179.17073994931172,68.48378472379606 178.88450032301347,68.68733290242123 178.14918252745613,69.21146946272793 177.83749937889607,69.328509665481 177.62377379118422,69.37430800561289 177.4367639020027,69.4150176411256 177.07292153257467,69.43028375467983 176.56277890970532,69.43028375467983 176.1505938478358,69.43537245922319 175.70024350245987,69.46081598171247 175.44326392684988,69.51170302623606 174.66978084778611,69.64400934224005 174.10620682808357,69.74578343196968 173.59351985290465,69.84755752116853 173.29710281767132,69.92897679272474 172.881101227527,70.05619440441286 172.1750434825821,70.30554092294244 171.69161655816728,70.50908910209839 171.35194553496,70.67192764498336 170.9677483477377,70.91109675480536 170.31384982358495,71.491209064179 170.1293842866372,71.72528946960931 170.01361626007682,72.07132137355265 170.01107190776725,72.27995825679699 169.91693087511803,72.76338518106019 169.8164289618844,73.10432838008103 169.73373751436296,73.34858619452221 169.30119763454752,74.07118222936569 169.13454256331192,74.23402077225066 168.84194205642925,74.52407692674791 168.57732942411798,74.72253640082972 168.26819062764002,74.95661680633586 167.98195100134174,75.24667296090894 167.66136262003934,75.53164041131781 167.5074293098209,75.71992247646456 167.34586294290116,75.94891417780649 167.25299408644466,76.07104308495126 167.11687124186255,76.18808328770433 166.82299855893882,76.33056701287084 166.7352184067982,76.37127664845939 166.24670277791583,76.45778462455897 166.09022511553943,76.41707498881877 165.93501962927994,76.3407444218059 165.9032152263579,76.24405903677128 165.87141082343587,76.20334940118272 165.84215077282343,75.93873676864396 165.84469512498137,75.81660786157502 165.74928191621527,75.42477761757561 165.6118868955921,75.30264871020337 165.42487700641058,75.17543109851525 165.08775033543705,74.96679421527091 164.87911345226854,74.84466530820197 164.3486160115291,74.56987526718312 164.04074939131968,74.42230283754907 163.33850817472543,74.00502907106039 163.1731252795309,73.88290016376396 162.96576057247924,73.7658599610109 162.82327684738857,73.68444068945468 162.35384386033525,73.45036028394854 161.8258907717537,73.29769915030194 161.47477016357033,73.21627987874571 160.93536748993688,73.11959449363526 160.60969040409114,73.08397356221093 160.38324305528627,73.07888485781923 160.15552353044038,73.07888485781923 159.92398747701634,73.0890622670576 159.65046961196273,73.1501267206679 159.413844854147,73.2620782188776 159.2535506634958,73.3740297170115 159.01438155352213,73.59793271381007 158.85281518660238,73.79639218804353 158.78793420479312,74.09153704700832 158.84136560155048,74.24928688527409 158.97494409382298,74.51389951781286 159.02710331461512,74.62585101625007 159.0487303086021,74.94643939740081 159.0550911891865,75.02276996456534 158.95713362826248,75.40951150402138 158.55130944690154,75.79116433908574 158.34903344431746,75.90311583721963 158.04625552849973,76.05068826700533 157.60226606370819,76.25932515002219 157.35037519264154,76.41707498881877 157.09085126479778,76.671510212195 156.79952293403198,77.04807434241269 156.49165631374674,77.64854146965644 156.36698305421658,77.93859762422952 156.20923321572332,78.27445211916198 156.0616607862409,78.5950405007677 155.9077274760983,78.86983054208986 155.69272971226954,79.22095115027324 155.55915122007283,79.45503155555188 155.37214133081548,79.86212791310552 155.33015951903423,80.0860309099041 155.29581076380262,80.46259504012178 155.28563335486757,80.81371564883595 155.3174377577896,81.23607811918554 155.3517865130212,81.39382795790628 155.35941956964666,81.53631168292115 155.3377925756597,81.68388411270685 155.02356507486587,82.0095611982493 154.7805794366174,82.43701237390052 154.62028524581453,82.87972966219603 154.4192814193473,83.18505193055081 154.3098742732197,83.3886001089485 154.047805993218,83.76007553530529 153.71831237886994,84.01451075868152 153.33411519157184,84.48267156984545 153.16618794414353,84.84396958681222 153.08476867266313,85.09840481018846 152.90793619249246,85.46479153192607 152.6229687423111,86.13141181724764 152.57971475433712,86.44182278946333 152.5453659991055,86.84383044239779 152.43977538140436,87.22548327746213 152.29093077572927,87.55116036345954 152.0784773642101,88.0193211746993 152.0339512001951,88.28902251155394 152.04667296128807,88.35517566963176 152.14844705063857,88.83860259389496 152.497023306664,89.5917308553161 152.63696267952093,89.81563385181136 152.86086567616786,90.17693186877813 153.15601053520848,90.50260895477554 153.34556477662377,90.7316006556625 153.8289917010386,91.15905183085874 154.09487650954262,91.37277741894975 154.35567261350326,91.66792227761123 154.3912935447001,91.72898673152483 154.5337772697908,91.97324454596601 154.67880534719106,92.43122794773993 154.7309645679832,93.14364657364835 154.6622670576716,94.06470208204284 154.4523579983104,94.90433831933608 153.9663867216618,96.18160314060896 153.76029419072702,96.57852208922755 153.480415445089,97.00597326442379 153.21834716493564,97.43851314393591 152.6191522138846,98.37992347050381 151.60650002484718,99.38748695530118 149.98447547582367,100.55280027813687 148.04440689757988,101.63160562532794 146.456731103788,102.75620931257508 145.58910699215085,103.41774089327747 145.37919793271382,103.59584554971666 145.0636982558031,103.7637727969175 144.76600904445291,103.92152263571407 143.9327336878199,104.10471599646912 142.79668041544502,104.32353028864851 142.24073945236793,104.38459474233464 140.99655121005813,104.56269939847053 140.687412413656,104.61358644322159 139.51955473843492,104.72553794135548 139.14171843172122,104.74080405490972 138.7969587040464,104.76115887255233 138.40640063616388,104.81713462184676 136.96375291962062,105.02577150486361 136.46124335352837,105.10210207233146 135.4969338567808,105.24967450166218 134.49318690063737,105.41760174886302 133.79857874082026,105.590617701138 133.13450280773245,105.78907717499233 131.37762759039535,106.34374596210418 130.93872682999552,106.49131839188988 130.5507131144226,106.65924563916654 130.02021567368314,106.9085921579236 129.67927247428315,107.13249515449468 129.17803508438362,107.49888187645978 128.7315012672825,107.88053471152412 128.27479004124635,108.39958256721165 127.93766337042447,108.781235402276 127.66668985745295,109.0967350788834 127.32320230581921,109.49365402772946 127.26595438055956,109.55980718550397 126.82705362023555,110.01779058773286 126.22658649306763,110.44524176323242 125.69990558075466,110.81162848474254 125.53579486167698,110.96937832300833 125.0396461760175,111.33576504504924 124.49006609352482,111.55966804131702 123.77255876360384,111.77848233326893 123.6466133280326,111.80901456037739 122.77135615961835,111.98711921651326 121.79686925408737,112.1957560997576 121.64929682460497,112.22628832686607 120.87581374554122,112.4858122543307 119.18636386224718,113.13207772170632 117.06310192317248,113.98189136801044 115.42962778909705,114.58744719957005 114.05949411129185,115.13702728213855 112.31406847885503,115.71205088666554 111.3701138001292,115.97666351897682 110.89304775629876,116.03263926849873 110.3650946678689,115.97157481488844 109.83841375540426,115.85962331645123 109.13617253888586,115.69169606902292 108.7545197038215,115.58483327497741 107.56503503461342,115.3253093475128 106.71013268399344,115.019987079158 106.06132286445987,114.72993092458492 105.65931521144958,114.50602792824131 105.25985191082472,114.2108830688974 104.99523927851344,113.78343189370115 104.83112855943577,113.1982308799358 104.8336729115937,112.72498136460766 104.91254783084034,112.12451423713644 104.91763653530786,111.61564379038396 104.76243104912417,111.24925706864636 104.57669333605953,110.9744670276275 104.46983054224151,110.87778164251705 104.1441534562441,110.73529791750218 103.95078268655399,110.70476569069704 103.63528300949163,110.69967698660865 103.0220941211549,110.70476569069704 102.4470705163246,110.67932216866272 102.10867166923421,110.69967698660865 101.48912190031308,110.73529791750218 100.82377379126004,110.75056403082893 99.98540973023535,110.76583014461065 99.37985389852408,110.79636237118831 98.87861650854872,110.87778164251705 97.93084530139642,111.27978929567898 97.05049942851464,111.59528897251387 96.46911494309994,111.64617601749242 96.0251254783084,111.62073249500314 95.4590071063721,111.53422451905523 94.68297967499876,111.46298265673735 93.12838046016995,111.45280524772649 92.19841971880564,111.49351488331503 92.14371614570392,111.49351488331503 91.48600109327636,111.5800228594146 91.157779655121,111.66144213074334 90.33340953145783,111.94640958100055 89.54593251503255,112.31279630251068 88.86150176415047,112.68427172863998 87.86284351247457,113.27456144694868 87.19622322730467,113.63585946437041 86.34259305280156,113.99715748148884 85.34775132932465,114.37372161200985 83.5209064255591,114.99963226151539 82.96369328628933,115.1421159866819 82.16985538943129,115.34057546053623 80.85824181285096,115.68151866008787 79.3278139442429,115.82400238502692 78.200665904762,115.78838145413337 78.0683595886822,115.78838145413337 77.49969686436047,115.71205088666554 76.75674601202604,115.48814789032193 76.21225463407673,115.31004323395857 75.50492471301496,115.0606967148982 74.78741738309397,114.87750335437062 72.95548377478507,114.65360035787536 71.94792029021518,114.49076181476292 70.55870397058092,114.50093922369797 69.8844506286339,114.6027133128968 69.07789097060706,114.79608408258692 68.16828504696119,114.95383392138349 66.51191174285772,115.08105153307162 64.87080455200517,115.15229339569278 63.92048899277076,115.12176116858433 63.210614719475224,115.17264821333539 62.453669929930925,115.22353525801064 61.217114744398245,115.22353525801064 60.151031158451815,115.3863738011231 59.36864284649406,115.67134125138031 58.2593052726495,116.30234060497423 57.61940068578244,116.79085623408409 57.28354619100163,117.15215425127835 57.03928837656045,117.55416190421279 56.85863936796332,117.9917904881166 56.745415693485064,118.4752174126073 56.686895592108534,119.11130547104788 56.601659792277495,119.961119117352 56.309059285394824,121.39613377734563 55.848531531083836,122.5105600556577 55.52412662135496,123.07031754693377 55.141201610173724,123.59954281132886 54.76718183173483,123.90486507968365 54.68957908860508,123.96592953306647 52.865278536997465,125.08544451630104 50.56772846998588,126.22022561255906 49.05129453866351,126.52554788015557 48.21165830144611,126.57643492513414 47.25752621378522,126.48483824487035 46.5832728718382,126.35762063318222 45.75381404370749,126.04212095589239 44.77423843370898,125.56887144056424 43.914247378697304,125.11088803825953 43.372300352830095,124.66308204519318 42.64715996628365,124.02699398675259 42.49195447994832,123.81326839941987 42.25024101781672,123.52830094916266 41.84823336488227,123.20262386293776 41.15362520506514,122.66322118938014 40.375053421458034,122.1390846295284 39.31405854005496,121.63021418277593 37.581354668938616,120.83637628561459 36.99742583121433,120.61247328927098 35.65146349955403,120.17993340953139 34.904696118868955,120.134135069172 34.29532375888287,120.18502211384725 34.110858221935096,120.200288227174 33.37681260257049,120.41401381503752 32.602057347389845,120.8770859216581 31.79676986540406,121.45210952641256 31.70135665663797,121.52335138903373 30.192555781941063,122.86168066368943 30.134035680564526,122.91256770866799 28.785528996746304,124.00663916888249 27.977697162450927,124.9226059731886 26.982855439049843,126.11845152282942 26.392565720816975,126.63749937851695 25.508403319584556,127.42115986681907 24.321463002534415,128.2251751724605 23.095085225860956,128.77475525525648 22.775769020599608,128.88161804899866 22.081160860782482,129.12587586343986 21.165194056552203,129.29889181503236 19.81668737273398,129.2480047705846 18.978323311633453,129.0546340005912 18.324424787556527,128.90706157103298 18.18830194305024,128.86635193552024 17.182010634597226,128.57629578094716 16.48867465097281,128.34730407983272 15.077831337351581,128.0470705163246 13.735685533966109,127.6297967500634 12.782825622497931,127.237966506064 11.662038463449784,126.73927346824658 10.207941161930421,125.97087909327121 9.841554440268641,125.74697609670012 8.710589872285444,125.23810564994764 7.816250062193802,124.94296079083121 6.9257267803769755,124.8818963371451 6.386324106819355,124.94804949567788 5.4767181831734835,125.24828305918601 4.717229041395418,125.52816180474821 3.848332753565572,125.84875018642975 2.942543358346171,126.32708840630124 2.024032202109614,126.73927346824658 0.8536301744272723,127.03441832690804 0.10431844166008443,127.14636982526942 0,127.17690205237787 0.71114644933658,126.6527654918437 1.3306962182577151,126.01158872931471 1.6716394175818714,125.619758485012 1.9400685782438005,125.22283953669672 2.2034090345140327,124.7699448390112 2.485832132385827,124.26107439225872 2.6334045620198716,123.87942155719438 2.73645082741142,123.30948665675578 2.7771604631516174,122.86168066368943 2.812781394500118,122.23577001418388 2.9323659494111216,121.69127863600708 3.073577498536588,121.36051284592129 3.4030711126571584,121.06536798650154 3.871231923669433,120.8312875812229 4.279600457188292,120.72951349202405 4.542940913382696,120.68880385628385 4.887700641057497,120.63282810721691 5.371127565472345,120.5921184711734 6.016120856731104,120.51578790423636 6.405406748496745,120.50561049552879 6.662386324106744,120.49034438174708 6.92191025210216,120.45472345055023 7.152174129105998,120.373304178994 7.317557024376379,120.2409978632175 7.583441832804546,119.92549818615515 7.745008199572628,119.6507081449088 7.923112856011821,119.15710381117978 7.9879938378969335,118.13427421358644 8.088495751130548,117.4472991101673 8.115211449585052,116.79594493862744 8.055419172167465,116.31251801390928 8.0376087064553,115.64589772889103 8.064324404909804,115.26933359837003 8.255150822441982,114.846971127338 8.425622422179888,114.53147145027563 8.658430651493315,114.13455250218784 8.959936391194155,113.7732544847661 9.186383739999005,113.33053719601563 9.265258659245639,112.9641504745055 9.280524772724041,112.73515877361854 9.102420116284849,111.99729662544831 9.093514883542507,111.63090990371072 9.131680167048943,111.34594245398429 9.317417880113595,111.12203945695823 9.649455846543756,110.943934800974 9.98785469363415,110.73529791750218 10.326253540724544,110.51139492123441 10.809680465139392,109.93128261163328 11.295651741788003,109.28501714448512 11.645500173930328,108.62857426817443 11.889757988371516,108.17567957048891 12.023336480644039,107.8449137800998 11.968632907618149,107.64645430609382 11.732008149878249,107.40728519574101 11.340177905878845,107.2139144260509 10.72190031315042,107.02054365658827 10.136699299309248,106.81699547743231 9.761407344905127,106.5574715499677 9.64436714207623,106.25723798645957 9.66344978382945,106.03333498943351 9.693982010710425,105.85523033344928 9.809750037346612,105.38706952228536 9.864453610296675,104.939263529219 9.8695423147642,104.08944988291489 9.82756050290712,103.56531332306317 9.825016150749187,103.44318441553926 9.818655270088954,103.08697510296419 9.875903195348606,102.64934651883289 10.061640908413258,102.23716145666008 10.185041991750733,102.0997664360369 10.58068876410078,101.90639566657427 11.449585051930626,101.6366943296438 12.527118222928987,101.4433235599537 13.203915917109775,101.23468667670936 13.507966009044377,101.05658202027016 13.926511951498286,100.72581622995688 14.451920687770214,100.06937335387367 15.091825274561447,99.20938229863451 15.468389405158277,98.82772946357017 15.940366744521194,98.4460766285058 16.834706554688665,97.85069820610873 17.757034239427522,97.44360184855509 18.332057844257815,97.18916662517886 18.576315658774828,96.97035233322694 18.77095860458182,96.67011876949134 18.926164090917155,96.23249018505672 18.943974556629318,96.07982905141012 19.067375639815136,95.04173333995925 19.073736520399542,94.79238682074723 19.099180042737167,94.01381503751925 18.982139839984097,93.01134025711357 18.91089797751458,92.37016349450877 18.726432440566807,91.75951895810249 18.32696913979029,90.46698802335122 17.703602842670165,88.78262684482802 17.580201759256862,88.53836903038683 17.277423843363316,87.95825672101319 17.23035332711454,87.62749093062408 17.268518610620976,87.2560155045706 17.366476171545,86.7929433981775 17.5827461114148,86.23827461106565 17.840997863217506,85.48005764525281 18.268449038413756,84.82870347348548 18.830750882151065,84.18243800610983 18.970690254932165,83.98397853210386 19.250569000721853,83.58197087909357 19.516453809225847,83.1646971126049 19.810326492073745,82.88990707113108 20.21106196889132,82.67618148379835 20.649962729291154,82.54896387211024 21.3140386622273,82.41156885141123 21.681697560005965,82.35050439780093 22.04172340108334,82.23346419504787 22.362311782613222,81.96885156273659 22.417015355563287,81.87216617762613 22.54168861509347,81.6584405902934 22.59512001200248,81.36838443572032 22.55186602402852,80.85442528412119 22.427192764498336,80.3659096554663 22.168941012771455,79.6891119612855 21.74785071815961,78.9919594491588 21.47687720526392,78.52888734253821 21.331849127863638,78.14214580338547 21.18554887449813,77.50605774494488 21.13211747758912,77.1345823185881 20.95655717345952,76.65624409841328 20.744103761864533,76.14737365166081 20.672861899319187,75.76572081659646 20.680494956020475,75.470575957935 20.716115887293146,75.24158425651724 20.83824479451374,75.0125925554028 21.73640113310768,73.81674700598946 21.901784028378064,73.56231178261322 22.308880385704214,72.97202206430453 22.534055558316354,72.6056353424911 22.752869850419916,72.28504696088538 23.046742533571127,71.97972469298556 23.517447696741336,71.61333797124794 23.971614570392088,71.32837052129405 24.33036823535258,71.18079809173582 24.70057148551666,71.0535804800477 24.769268995752416,71.0332256618743 25.06186950255926,70.94162898138302 25.36846394687928,70.81441136969491 25.7081349699349,70.66683894013669 26.166118372012125,70.49891169316334 26.617740893580773,70.30554092294244 27.02992595537445,70.09690404015306 27.495542414152958,69.94424290597566 28.012045917682546,69.63892063792417 28.63032351041097,69.37939670992876 29.379635243329815,69.20129205379288 30.019539830045222,69.14022759987927 30.452079709784822,69.18602594023865 30.71033146158753,69.2623565071757 30.766307210654475,69.2827113253491 31.010565025095662,69.36921930099372 31.337514287134127,69.50152561730101 31.66700790140635,69.64400934224005 31.951975351739392,69.73560602303463 32.261114147989865,69.82211399867924 32.73690801570342,69.89335586130042 33.024419818118574,69.94933161036735 33.18216965661184,69.96459772392159 33.26740545644287,69.96968642846494 33.824618595636835,70.0053073594343 34.32840033792178,70.01039606405348 34.91996223234736,69.95442031498654 35.552233762361475,69.87808974774619 35.871549967698655,69.78649306725491 36.134890423893054,69.66436416041346 36.610684291682446,69.43537245922319 37.05212940416439,69.14531630472594 37.489757988447344,68.81455051410934 38.01262237240968,68.36165581642382 38.34593251503255,68.03089002611054 38.65634348762739,67.73065646260241 39.004919743577,67.35918103624562 39.26953237588829,66.93172986104938 39.37766734589901,66.60605277505196 39.418376981563384,66.4228594142969 39.44382050390101,66.32617402941393 38.71740794116185,65.55777965496935 38.518948467004215,65.26263479600458 38.3357551060975,64.99293345914994 37.98336232179724,64.66725637315253 37.469403170577245,64.34157928715511 37.33582467830472,64.23471649333709 36.85748645828157,63.69531382000696 36.56870247982537,62.977806490010146 36.164150474657156,62.1992347063272 35.94915271082841,61.75142871326086 35.54587288192872,61.00847786077477 35.18203051234905,60.49451870993391 34.93141181732346,59.99073696726982 34.75839586542762,59.558197087985185 34.46579535854495,58.84068975798837 34.393281319882725,58.35726283342187 34.32840033792178,57.87383590893119 34.39837002435024,57.181772101196174 34.50141628989345,56.652546836801086 34.46579535854495,55.98083784716365 34.472156239129355,55.10049197405439 34.66807136112906,54.22523480601927 34.92632311285593,53.57896933864364 35.119693882621874,53.029389255847654 35.203657506336036,50.286577547776005 35.45045967316264,50.113561595955986 37.88413258460468,48.6480147093847 38.17037221090295,48.413934303651075 38.53294240421408,48.164587785121505 38.83063161564011,47.95595090187716 39.292431546067974,47.73204790507859 39.774586294365946,47.548854544323525 40.125706902700976,47.38601600121108 40.511176266040145,47.17229041380253 41.520011926651094,46.87714555445861 42.414351736894396,46.84152462326176 42.97156487608835,46.12401729326495 43.68652785377557,46.3733638125528 43.8404611639182,46.403896039130466 44.36459772407324,46.47004919713246 44.65974258311385,46.56164587785121 44.91926651095761,46.72957312512788 45.25512100589007,46.82116980561915 45.49047358743726,46.95347612185062 45.742364458579736,47.1824678228134 45.94209610893008,47.38092729681939 46.379724693213035,47.67607215601165 46.613805098795,47.71678179197933 46.992913581473935,47.75240272294869 47.24734880485017,47.670983451619946 47.41400387623743,47.52341102183425 47.555215425135415,47.467435272767304 47.749858371018234,47.45216915966804 47.845271579784324,47.45725786405974 47.90124732900293,47.45725786405974 48.09589027480992,47.46234656860309 48.29307757300233,47.467435272767304 48.497897927744376,47.48270138654902 48.60348854544551,47.50305620419164 48.7192565720817,47.52849972668091 48.836296774834764,47.59465288445542 49.16833474141658,47.83891069912409 49.23830442776922,47.93559608393124 49.3070019380808,48.08825721810863 49.343895045470354,48.14932167133979 49.4125925559336,48.28671669196296 49.418953436366344,48.332515032322334 49.40623167527336,48.434289121748655 49.39223773791184,48.48008746210804 49.36552203945734,48.52079709769658 49.32481240371714,48.586950255698575 49.22685484279312,48.72943398094092 49.12253640113303,48.846474183693985 49.088187646053065,48.887183819206705 49.06783282818297,48.9329821593386 49.03221189683447,49.03984495315662 49.013129255157075,49.0805545891243 49.2395766038861,49.79806191889363 49.36170551110669,49.78788450995858 49.66193907469065,49.599602444887644 49.84640461171425,49.43676390200268 50.024509268001786,49.13653033849455 50.146638175222385,48.8006758435621 50.18353128261194,48.39866819032433 50.256045321274165,47.88470903925599 50.36290811509218,47.61500770232552 50.56772846998588,47.37074988788434 50.91503254981861,47.12140336912728 51.51549967706236,46.755016647617154 52.36404114702211,46.27667842744235 52.90089946827014,45.940823932509886 53.11080852763136,45.78307409424411 53.25202007652934,45.579525915315635 53.45047955083864,45.258937533937406 53.6603886100482,45.05030065069306 53.92245689020155,44.87219599448135 54.30029319683944,44.704268747053035 54.782447945137406,44.56687372642987 55.87397505349728,44.21066441385479 56.56603886100482,43.9460517812402 57.188132982235544,43.65090692212376 57.62957809471749,43.355762063158984 57.9870595835611,43.024996272618225 58.4195994633007,42.67387566435902 58.64986334053202,42.55683546190926 59.003528300949164,42.460150076798804 59.313939273544,42.42961785022114 59.939849923125365,42.40926303204773 60.20319037924394,42.38890821417763 60.40164985340158,42.37873080524258 60.859633255478805,42.2362470804552 61.16368334748923,42.00216667502489 61.31125577704745,41.76299756467209 61.56696317654057,41.31010286721405 61.956249068230385,40.80632112485327 62.42949858378601,40.37886994965702 62.800974009915315,40.07354768175719 63.20807036724146,39.773314117794094 63.81871490342026,39.54941112152632 64.42935943952322,39.452725736415864 65.29189484676867,39.33059682957441 65.58703970580927,39.25935496695324 65.96233166028922,39.08125031028656 66.3350792625354,38.75557322428915 67.86041842667595,36.73535755083349 67.9443820503901,36.57251900772105 68.43544203158207,35.62093127267306 68.52067783141311,35.453004025244745 68.53848829697361,35.26981066448968 68.52703871207333,34.99502062316752 68.5804701088307,34.65407742369171 68.9990160512846,33.7584654372557 69.3030661432192,33.01042588045374 69.58167271289201,32.21658798397485 69.74323907966009,31.901088306685004 69.99131342245192,31.697540128287326 70.26101475923073,31.585588629622645 70.6210406003081,31.45328231384614 71.03322566225343,31.265000248244416 71.29656611837201,30.9851215023789 71.39834020779833,30.72559757491428 71.54591263728072,30.125130447594703 71.76981563392764,29.49921979816499 71.93138200069572,28.908930080083778 72.02170650499428,28.618873925283214 72.12856929881231,28.23722109021886 72.31939571634449,27.763971574890714 72.57128658756278,27.336520399466984 72.83081051540654,27.076996471471567 72.95166724651025,26.995577199915346 73.0279978134473,26.94977885978345 73.19338070864185,26.837827361649563 73.58139442429061,26.53759379814143 73.875267107366,26.323868210277908 74.23910947671818,26.084699100455904 74.6767380609253,25.74884460552344 75.02913084537722,25.484231973212157 75.43877155501296,25.22470804521674 75.66267455150822,24.843055210152386 75.65631367099965,24.685305371886603 75.4553098444566,24.196789742776748 75.1996024450393,23.64720966051156 74.99605426626249,23.32153257451415 74.77215126969139,23.026387715549372 74.71871987278239,22.797396014207447 74.80650002492301,22.502251155318497 75.06347960045719,22.263082045420663 75.33445311335288,22.079888684210633 75.57489439944342,21.85598568786703 75.65122496660796,21.779655120702504 75.7606321125839,21.63208269137177 75.95273070623296,21.342026536571204 76.10157531190806,21.08759131319497 76.25805297420861,20.75682552310917 76.43488545453093,20.23268896280247 76.50485514088356,19.89683446787001 76.54429260050688,19.622044426851158 76.66896586011289,19.433762361249435 76.83816528358226,19.194593251427428 77.33940267355761,18.74678725805777 77.64090841325846,18.50761814800828 78.15232321232052,18.288803856056372 78.49708293999532,18.156497539976556 78.85583660487998,17.963126770058963 79.20314068478855,17.622183571038114 80.8976792725501,16.48231376993344 81.1801023704219,16.273676886916583 82.52352034984843,15.08292004136414 83.01839685939103,14.808130000345288 83.11253789196442,14.77250906892096 83.29318690063738,14.7165333200815 83.9648958902748,14.563872185676619 84.72438503212871,14.538428663414823 85.56656562142821,14.528251254479773 86.33623217221715,14.563872185676619 86.94178800392842,14.477364209956182 87.4735576206331,14.222928986579946 88.05239775381405,13.846364855907288 88.35517566970759,13.647905381597997 89.73548675644784,12.991462505287307 90.47462108035582,12.508035581024114 91.07890473587437,11.938100680585517 91.73534761218507,11.347810962276823 92.00759330127346,10.869472742329497 92.16152661141608,10.523440838689472 92.38288525567758,10.314803955672613 92.62205436565125,10.177408935049446 93.00243502459871,10.177408935049446 93.2403319584555,10.253739502062317 93.69831536060855,10.487819907265143 94.67280226606371,10.50308602059189 94.86871738806342,10.671013268323517 94.96921930129702,10.818585697881733 95.0112011131541,10.884738855656245 95.10661432192019,11.047577398768691 95.12951349209987,11.098464443747249 95.28344680224251,11.393609302408716 95.32288426179,11.429230233833046 95.33815037534423,11.48520598289999 95.39158177210157,11.586980072553795 95.55569249117924,11.749818615211275 95.59004124633503,11.805794364505703 95.76941807881529,12.080584405827866 95.98187149033444,12.365551855781767 96.20323013467177,12.614898375069616 96.44748794911295,12.889688416088468 96.50982457884014,12.971107687644691 96.57470556080108,13.052526959200915 96.61668737265815,13.103414003876162 96.69174576355414,13.281518660087873 96.80878596630721,13.459623316451237 97.18916662525469,13.932872832082692 97.92830094923848,14.574049594611669 99.47653928348288,15.484927694526077 101.60743427925885,16.131193161901717 102.21680663924494,16.258410773589834 103.70779704822968,16.573910450424712 105.29674501821428,16.80799085593085 106.5587437261604,17.001361625620962 107.66808130000497,17.30159518958406 109.31173284301545,17.902062316600322 110.21752223823485,18.21247328934681 111.44390001490831,18.466908512723048 112.30643542215375,18.52288426178999 113.30891020225613,18.487263330365664 116.58476370322516,18.61956964636965 117.80605277550693,21.367470059060484 118.97645480296178,23.687919296024276 119.44334343785718,25.107667842463673 124.14785071808379,24.751458529661114 126.05611489340555,24.675127962951553 126.45176166583143,24.649684440462273 126.71382994583313,24.639507031754707 127.00515827659892,24.59370869139533 127.4720469114943,24.46140237508803 127.62598022163694,24.40542662602109 127.84606668993321,24.374894399443424 128.1170402028289,24.41051533064027 128.5063260945187,24.542821646644256 128.67170898971327,24.644595736070578 128.81037618652914,24.781990756693745 128.94777120707647,24.87867614134923 129.19457337375144,25.010982457884012 129.4693634150736,25.117845251398723 129.861193659073,25.19926452318243 130.1576106943063,25.316304725935495 130.52654176812604,25.489320677528028 130.8394970928788,25.63180440254289 131.19316205337176,25.794642945655337 131.57481488843612,26.00836853321555 131.94756249068232,26.206828007752325 132.23252994086369,26.339134323832138 132.59382795805794,26.481618049074484 132.92332157233017,26.557948615784046 133.24136560155046,26.583392138273325 133.58230880095044,26.598658251751726 135.2844804454133,26.751319385474158 135.91420762319365,26.86327088413884 136.30222133891823,26.92433533729417 136.50704169366028,26.9599562687185 137.0846096506485,27.082085176090747 138.95343636634698,27.372141330891314 140.4469711276413,27.443383193209176 142.05754609161286,27.524802464537917 143.16052278494885,27.504447646667817 143.297917805572,27.331431694847804 143.5409034438205,27.214391492094734 143.8106047805993,27.03119813111219 144.11974357707726,26.797117725606054 144.32583610801203,26.73605327245072 144.60189832537523,26.720787158896492 144.89831536060856,26.715698454504796 144.99627292153258,26.725875863439846 145.28632907625732,26.725875863439846 145.3601152910364,26.720787158896492 149.80255429118552,24.40033792162939 152.36471699050838,23.062008646518734 155.52861899319188,21.067236495552354 157.4470605774487,19.505004223870607 158.77521244347264,18.63992446454306 160.50918849085753,18.166674948911606 161.45314316958337,17.708691546682726 162.98229886199871,16.935208467618967 163.77995328735904,16.533200814911996 166.12075734234458,15.897112756471406 168.62058341209192,14.797952591410239 170.10139641206578,15.708830690869682 173.15334691646376,17.469522436860718 175.35675595097777,18.604303533346215 176.12896685384882,18.889270983072635 177.50800576454802,19.398141429825106 177.68102171644387,18.92489191449696 178.8247080456717,17.30159518958406 179.41499776375292,16.82834567380095 181.16678427677414,15.8360483025578 182.8969437956567,14.981145952165301 184.3116036376286,14.711444615234836 185.57487452169158,14.563872185676619 188.07851711978958,14.691089797364738 189.73234607173512,15.143984495277747 192.24489390257546,15.713919395716344 193.25627391542017,15.820782189231053 193.3822193509914,15.820782189231053 195.09456840431346,15.388242309718935 195.65941460028455,15.24066988008489 196.1008597127665,15.088008746210804 196.48760125229836,14.747065546659165 197.0168265170726,14.197485464393978 197.65037022312777,13.2967847736421 197.9735029568156,12.513124285339984 198.07146051789127,12.238334244093648 198.24065994143646,12.02460865676092 198.47982905148595,11.810883068897398 199.7494608159817,11.174795010456808 200.66542762013617,10.518352134373602 201.15903195348605,10.09598966326574 204.00234557479132,8.141927148039557 206.55433086517914,4.819003130670085 206.75279033948843,4.661253291873508 206.93725587636038,4.518769567161954 207.24003379225394,4.325398797396015 207.33799135317796,4.259245638939055 207.40032798298097,4.208358594642946 207.58861004820355,4.040431346987147 207.73491030179653,3.938657257788308 207.86085573729196,3.8826815087213635 208.07839785327863,3.877592803874701 208.22851463499478,3.908125030907332 208.33028872434528,3.933568553169128 208.43460716608118,3.9641007802775867 208.52238731799434,4.004810415562819 208.8086269442926,4.086229687119042 209.16356408090246,4.1218506185433705 209.33021915228971,4.116761913924191 209.46506982060328,4.096407096054092 209.5617552055621,4.060786164857246 209.62027530693862,4.020076529344531 209.70296675446008,3.8216170550352393 209.86198876907022,3.511206082592059 209.97902897182328,3.4246981064166557 210.07189782843145,3.358544948414662 210.2843512399506,3.2211499277914943 210.53751428720994,3.063400089449883 210.61002832579635,3.0176017490905056 210.76396163593898,2.9361824777617653 210.9662376385231,2.829319684019574 211.09218307409432,2.773343934649319 211.21812850966555,2.727545594289941 211.50945684043134,2.651215027352898 211.64049098054593,2.6206828007752323 211.76134771157382,2.5901505736667736 211.8911096754957,2.554529642697411 212.05649257069027,2.498553893175501 212.164627540701,2.442578144108557 212.3185608508436,2.371336281487383 212.42160711623515,2.325537941355488 212.49920985944073,2.2746508969077235 212.59462306820683,2.1881429207323206 212.64932664115688,2.1067236491760974 212.67222581126074,1.984594742334642 212.65441534562441,1.811578790514629 212.6098891816094,1.684361178826511 212.57681260249467,1.597853202423625 212.55772996081726,1.5164339310948847 212.55645778462457,1.4299259554502748 212.7358346171048,1.1551359141281121 212.84905829158305,1.0584505290934871 212.98390895989664,0.9617651439830346 213.09840481049176,0.8854345772734742 214.34259305272573,0 215.0219350992161,0 215.65039010087958,0.1628385426574807 216.08038562838544,0.3663867215859524 216.68085275562916,1.0177408935049446Z"/></svg>