<svg xmlns="http://www.w3.org/2000/svg" width="256" height="256"><path d="M225.08533681335683,4.959571634734047 225.42458528982806,5.262656567525856 225.4693592003121,5.365980976880055 225.43836187770088,5.627736146361288 225.209326104315,6.0616986639450365 225.16971841407795,6.2407943068051175 225.18521707543488,6.674756824388866 225.12666657697534,6.936511993870099 225.09394718088,7.460022333551072 224.89246458323979,7.818213617936867 224.58421342958508,8.073080493994901 224.33967899484225,8.341723957207265 224.3362348477714,8.42438348423899 224.44472547726997,8.679250359989094 224.5549381803553,8.941005529470328 224.77019736586837,9.381856341503712 224.9475709346285,9.547175396080384 225.0147318006112,9.62983492311211 225.09911340122966,9.988026207805836 225.231713059711,10.42887701983922 225.29198563144936,10.518424840910008 225.40392040812145,10.58730778037683 225.74144681080062,10.683743895589323 226.31489728111006,10.945499065070557 226.77641297474742,11.06260006229759 227.34469722450189,11.06260006229759 227.46179822152362,11.06948835572079 228.0369707652145,11.186589352947824 228.37449716820163,11.310578643905988 228.60181086800077,11.434567934556222 229.38879845013386,11.951189979787557 229.45940346298215,12.040737800858347 229.48523456534636,12.21294514926879 229.4835124917596,12.474700319057956 229.523120181894,12.646907667468401 229.59372519484495,12.729567194500127 230.06212918241872,13.053317010024983 230.2739442210662,13.197971182587114 230.39793351202437,13.404620000269073 230.50814621480177,13.521720997496107 230.77851175180615,13.521720997496107 231.7222080210954,13.494167821647792 232.29738056488893,13.494167821647792 232.52469426468807,13.43906147015645 232.87427518196128,13.266854121746006 233.09814473489487,13.149753124826901 233.55277213480107,12.970657482685326 234.0315085632795,12.715790606627293 234.38281155403678,12.509141788945332 234.7151717365716,12.268051501170708 235.15257840153413,11.91674850990018 235.5107696861252,11.54478063764155 235.80180010493885,11.103929825608166 235.88618170576262,11.028158592410215 235.98261782076983,10.855951243999769 236.08249808284788,10.738850247080666 236.62322915685667,10.525313134743783 237.0847448506993,10.525313134743783 237.66163946777166,10.394435550259775 237.7735742443411,10.346217492499562 238.02499697302034,10.249781377697644 238.89636615587455,10.077574029287199 239.27694439586165,9.974249619933001 240.08804100687485,9.705606156617993 240.3429078827276,9.595393453840595 241.1970563306381,9.051218232555657 242.03570611749961,8.582814244776602 242.38700910825693,8.431271778380696 242.7848080829824,8.272841017843087 243.15677595554897,8.128186844870381 243.61484750252606,8.059303906122064 244.5189360816809,7.845766793682539 251.08348020298442,9.223425580966103 253.35489512841556,9.409409517557314 253.54087906469883,9.42318610543015 256,9.62983492311211 255.967280603802,9.726271038324603 255.87084448869217,10.022467677385281 255.6142555395606,10.415100431966385 255.14068533143188,11.296802056033153 255.00808567325848,11.641216752854044 254.76699538538122,12.150950503943674 254.66883719678725,12.419593967258683 254.5310713180589,12.681349137355777 254.4690766727338,12.853556485766223 254.42774690911529,13.073981891321019 254.19526698865855,13.494167821647792 253.96106499492296,13.91435375207721 253.90079242287666,14.093449393910856 253.81468874867144,14.444752385181383 253.81296667518734,14.616959733591829 253.84913021835354,14.789167082002272 253.89734827590846,14.940709548090247 254.22626431147506,15.457331593321584 254.27448236892732,15.553767708842008 254.34680945536238,15.725975057252453 254.4070820272034,15.90507069939403 254.4070820272034,16.084166341638248 254.46563252566293,16.09105463567731 254.41224824775833,16.256373690048694 254.3261445735531,16.44924592047368 254.03511415463683,17.00030943548975 253.99206231753422,17.193181665298873 254.01789341989843,17.379165601582155 254.04372452205735,17.468713422960874 254.3192562796167,18.274643813213828 254.532793391543,19.273446434097053 254.72566562176272,19.84517483123031 254.93575858692608,20.230919291361776 255.08902312690876,20.602887164236268 255.12690874355903,20.94730186105716 255.13207496401137,21.12639750330138 255.08730105352728,21.271051675966152 254.5913438901052,22.097646948438936 254.53968168547942,22.187194769201792 254.00411683202557,23.055119805703654 253.4289442883347,24.067699013843857 253.20507473529847,24.536103001622912 253.0414777544112,25.004506989094036 252.93126505132585,26.03775107955671 252.76766807033593,26.499266773912563 252.44736240239516,26.981447349256523 252.207994188002,27.16054299170603 252.06334001533722,27.20876104885038 251.78608618449906,27.20187275511925 251.25396547791075,27.33963863364232 250.8630547969164,27.105436639906756 250.2758277388368,27.057218582146547 249.87286254355635,27.119213227779593 248.7690134402454,27.525622569925602 247.41201953477108,27.821819209294212 246.51481924955266,27.966473381958984 246.04124904142395,28.104239260482053 245.72266544696726,28.29711149121497 245.47813101222442,28.434877369430108 245.2422069449021,28.64152618803586 244.67908891549732,29.14437164539436 244.2830120141533,29.729876629989878 244.07291904919518,29.922748859799 243.0878930161848,30.9146631869511 242.57127097095346,31.396843762602987 241.9616569575805,31.775699929003327 241.3485987972393,32.11322633168251 241.0231269088462,32.34054003199488 240.90430383834035,32.53341226170136 240.56505536207442,32.78827913745146 240.39284801366398,32.97426307373474 240.00365940625636,33.731975407151275 239.78667814715655,34.43458138835796 239.66957715023744,34.634341912206146 239.51286846318396,34.96498002146213 239.28383268979806,35.37138936360814 239.15123303162466,35.59870306381786 238.88603371507259,36.046442169685015 238.48479059317359,36.52862274472105 238.23681201146255,36.78348962077908 238.1248772350984,36.87992573599157 237.88550902070526,36.98325014462726 237.41021673909242,37.1416809054728 236.66111477360963,37.26567019612304 236.16171346311668,37.348329723770625 235.78630144368455,37.52053707218107 235.6295927565284,37.70652100815642 235.54004493545762,37.89939323817084 235.4487750408001,38.19558987795002 235.38505832178558,38.47112163499616 235.3041208681353,38.65710557127944 234.82366236607015,39.1392861466234 234.49130218353537,39.683461367908336 234.44652827294865,40.048540946435836 234.4671931547579,40.13808876750662 234.58601622526376,40.317184409750844 234.92354262814823,40.55138640379434 235.53660078838678,40.69604057676705 236.02050343742013,41.0266786857151 236.50957230700843,41.543300730946434 236.60428634863416,41.72928466722971 236.61461878943615,41.908380309371296 236.50957230700843,42.00481642427585 236.16171346311668,42.12880571554195 235.94817635108774,42.25279500619218 234.90459981972043,42.86585316632808 234.54985268209757,43.093166866640445 234.22954701415676,43.36869862368658 233.84035840664652,43.83021431773451 233.73358985063206,44.40883100859889 233.12053169018822,44.99433599257854 232.93799190107842,45.14587845969295 232.82605712440636,45.180319929169755 232.512639750402,45.23542628076374 232.0115163665276,45.18720822300353 231.88236085521976,45.214761398749204 231.65160300834975,45.3525272775802 231.48800602735983,45.52473462599065 231.42601138182943,45.7176068561077 231.4535645575751,46.07579814080143 231.5809979955015,46.57175530432615 231.3399077076242,46.909281707107986 230.93522043896232,47.41901545850555 230.7509585760605,47.76343015532644 230.75612479661544,48.300717082264384 230.7526806495446,48.76223277631231 231.08848497894496,49.230636764091365 231.682600330961,50.133003269146236 232.32321166704784,51.06292295097322 232.59874342460722,51.43489082353978 232.66246014341644,51.62776305396476 232.60907586540918,51.71731087503555 232.50230730939472,51.78619381439973 232.24227421329493,51.85507675325069 231.1022615668178,52.13060851122062 229.97258136134792,52.316592447606546 229.61094592958335,52.357922210917124 229.11498876616125,52.37169879848203 228.72752223223776,52.289039271758234 228.1265185862853,52.165049980492135 227.5702888510222,52.15816168706893 226.62487050814622,52.220156332394055 226.2804558113253,52.28215097771917 225.09566925426145,52.48879979601699 224.60487831139434,52.66100714442744 224.28112849628005,52.895209138163 224.00387466544188,53.184517483081976 223.61813020489984,53.632256589154416 223.29954661044314,54.07999569502158 222.9775188689156,54.51395821291326 222.76914797733897,54.89970267376323 222.72781821361784,54.98236220038438 222.1784767721885,55.95361164552194 222.03554467300785,56.13270728807409 221.92877611709602,56.2153668153111 221.67907546190085,56.318691224357366 221.44142932109446,56.360020987667944 221.08496010978217,56.29802634234283 220.25319861695974,56.31180293021566 219.87606452394087,56.34624439979511 218.79115822895506,56.401350751697024 218.67750137900416,56.408239045428154 217.83368537189563,56.4426805150076 217.47032786664693,56.49089857276781 216.85038141247196,56.649329333305424 216.25454398697184,56.649329333305424 215.64492997359886,56.55978151213199 215.07492365025763,56.566669805965766 214.8235009215784,56.60111127585314 214.34304241951324,56.77331862426359 213.97279662053344,56.86975473947608 213.9090799017242,56.89041962108005 213.59394045392781,56.96619085468858 213.65421302587146,57.28305237566115 213.87119428497127,57.834115890164 214.18288958549152,58.784700453594944 214.2138869082054,59.29443420509515 214.29999058241063,59.845497719905936 214.55313538467664,60.4792207616458 215.65698448788496,68.43520025841367 215.6655948554081,69.22046576726794 215.78613999919278,76.28785534582734 216.7780543261396,77.93415759673384 218.17121177488272,77.91349271502723 219.57814581119078,77.81705660022531 220.38407620175167,77.77572683650416 220.96958118655246,77.77572683650416 222.4075125455744,77.76195024832339 222.86041787189387,77.96859906631329 222.99129545678846,78.04437029951123 223.1996663483651,78.23724253024415 223.35465296183185,78.4094498786546 223.51480579595622,78.69186992984244 223.74211949575536,79.15338562378773 224.1313081032656,80.07641701085714 224.26046361457344,80.44149658938464 224.27079605537543,81.00633669237618 224.2949050841529,81.33697480163217 224.38789705229453,81.67450120400342 224.57732513564866,82.08779884059906 224.70303649988566,82.34955400977238 224.956181302049,82.79729311625539 225.16283012014154,83.00394193383471 225.51413311089885,83.29325027947219 225.88782305694951,83.76854256098237 226.10480431604933,83.92697332151998 226.23568190084126,84.0096328485517 226.63175880208263,84.25072313673691 227.3205881957244,84.62269100899555 227.9370905030338,84.9946588815621 228.32800118392552,85.21508428742483 228.57253561866835,85.38040334241207 228.7929610246337,85.52505751497421 229.05988241466991,85.78681268455809 229.44734894859343,86.2483283778875 229.7900415719302,86.72362065980826 229.8606465847785,86.90960459609154 229.8933659810791,87.20580123515222 229.8985322014288,87.70864669281865 229.8675348787149,88.19771556230431 229.37846600933187,89.29295429809211 229.25964293882603,89.64425728864413 229.27858574735646,89.80957634332344 229.42151784643448,90.44329938506331 229.5971693417105,91.05635754550714 229.7728208371918,91.45587859381936 229.8864776871427,91.95183575744674 229.8968101279447,92.38579827533842 229.9036984218811,93.29505307484293 229.934695744595,93.59813800835325 230.01046697810085,93.81167512007427 230.15339907717888,94.05276540825946 230.20333920821793,94.11476005358458 230.03285393318893,94.87247238628261 229.8795893932063,95.43731248896623 229.8244830416123,95.82994524354733 229.7004937508594,96.79430639454318 229.64538739926542,97.68289631275165 229.605779709131,98.23395982745978 229.6763847219793,98.5094915849165 229.70738204479582,98.63348087556673 229.64883154623362,98.7574701665249 229.31474929031737,99.21209756612319 229.06160448825665,100.26600653890833 229.01166435721763,100.47265535679558 228.8893971398462,100.74818711425229 228.81707005351382,101.23725598404589 228.7688519959589,101.51967603523373 228.81534797992708,101.88475561396652 228.7447429670788,102.17406395929606 228.61214330880276,102.50470206824413 228.3796633885513,102.93177629230203 228.26772861198185,103.26241440125008 228.1196302923489,103.9374672067111 227.9577553849457,104.38520631288618 227.9215918417795,104.46786584012321 227.74077412594855,104.78472736089049 227.57373299788776,105.23246646665501 227.4652423683892,105.42533869677206 226.94345410270554,106.46547108168437 226.7144183294223,106.92698677501379 226.41649961656958,107.37472588118888 225.66567557750002,108.38041679580324 224.82530371725707,109.35166624063287 224.33967899484225,110.03360734054351 224.2053572630821,110.33669227395119 224.04176028198953,110.8739792005812 223.8178907291586,111.40437783368537 223.65945996862098,111.95544134849615 223.66290411548655,112.28607945775214 223.70767802607327,112.51339315765392 223.89193988887246,113.38131819353993 223.97976563656178,113.57419042396492 224.14680676462254,113.98059976641885 224.26046361457344,114.62809939633948 224.28457264345354,114.73831209880895 224.52049671067323,115.73022642596105 224.69098198559956,116.28128994107976 225.30231807245664,116.50171534694249 225.3832555261069,116.59815146174441 225.13872109136406,117.19054474058427 225.10772376875283,117.52807114326346 225.36259064429765,118.43732594276797 225.55546287451736,119.39479880034061 225.6846183858252,120.38671312677421 225.70011704718212,120.47626094825557 225.76038961922842,121.36485086574554 225.7293922964119,121.9916856140622 225.75177925170524,122.27410566555798 225.84132707298133,122.55652571705374 225.9601501432819,122.77695112291647 226.17540932879496,122.96293505919975 226.52499024606814,123.16958387749757 227.01578118914057,123.45889222241655 227.69255606839363,124.00995573722733 227.79415840385315,124.10639185274776 227.96119953181127,124.2923757887231 228.2401754362362,124.85032759757296 228.40377241722612,125.06386471001248 228.64486270510338,125.37383793694599 229.0409396064474,125.99378439142889 229.55239543112378,126.78593819411694 229.81242852722357,127.08902312690874 230.11379138694184,127.35766659053168 230.5890836686573,127.70208128735257 230.84050639733655,127.97072475066759 231.15736791841178,128.43224044502344 231.24002744554616,128.9075327262257 231.23830537206206,129.3139420683717 231.15736791841178,129.7616811745468 231.1453134039204,129.98899487414064 231.12120437524558,130.32652127753835 231.13325888953167,130.5951647407507 231.10742778737276,130.85691991064252 231.12120437524558,131.2082229008866 231.15392377134094,131.29088242822627 231.51211505603465,131.69729177037226 231.77903644607085,132.055483055066 232.34732069592795,132.3930094584637 232.24916250743664,133.01984420636978 232.259494948136,133.19205155478022 232.25260665419958,133.28159937595365 232.1423939512169,133.8051097149161 231.94779964771837,134.17707758789325 231.71704180074573,134.5490454604598 231.6051070241763,134.73502939643515 231.43978796970228,135.08633238729513 231.3571284425679,135.348087556879 231.23658329868059,135.79582666264352 231.1711445062846,135.96803401105396 231.0850408320794,136.15401794764517 230.88700238130474,136.61553364138516 230.7457923556082,136.87728881055847 230.73718198818764,137.0426078655457 230.76645723741743,137.46968208898775 230.89733482220936,137.88986801962247 230.95416324718482,137.97252754634624 231.0660980236516,138.05518707399384 231.6653795962226,138.31694224316715 231.94952172099718,138.5649208253914 232.06834479150305,138.7302398797628 232.57980061617943,139.14353751563993 232.70206783355084,139.1917555730922 232.93110360693672,139.2399736308524 233.41156210920715,139.3777395096834 233.78008583460021,139.51550538861707 234.13827711929395,139.5843883276733 234.4930242571221,139.76348397022545 234.99070349392565,139.99079766981933 235.27656769238965,140.2318879580045 235.66920044676544,140.75539829696697 235.93612183680165,141.00337687898596 236.06011112755453,141.07225981773428 236.2908689744245,141.20313740283413 236.4045258243754,141.2238022844381 236.73171978645792,141.1618076394209 237.18806925964293,141.024041760282 237.41021673909242,140.98960029101048 237.86484413899862,140.97582370313765 238.37285581670682,141.01026517240916 239.19428486872727,141.10670128762166 239.54386578600048,141.27202034219832 240.25680420852237,141.40978622113195 240.98007507174358,141.6853179781781 241.45364527987232,141.7817540936985 242.7038706292295,142.08483902649033 242.9466829905909,142.18127514201075 243.1481655882311,142.33970590224044 243.6234578697413,142.87010453565253 244.15557857632956,143.46938610760768 244.2830120141533,143.73802957153853 244.52754644889612,144.25465161676988 244.72214075259993,144.50263019807034 244.84268589648724,144.57840143157622 245.26631597357692,144.89526295265145 245.69683434460305,145.39122011586824 246.196235655096,145.7976294586301 246.77829649272329,146.14893244928479 247.00561019252243,146.3004749156807 246.9901115311655,146.54845349728907 246.90745200403111,146.8446501369656 246.64225268747904,147.94677716627925 246.56303730721024,148.4082928606351 246.62503195253535,148.58050020904557 246.77140819878687,148.8422553785268 246.8471794319848,149.11089884214974 246.89539748953976,149.1935583690788 247.09515801369588,149.35887742375812 247.34658074237512,149.81350482335642 248.152511132936,150.7158713287192 248.36088202451265,150.9018552650025 249.60249700655194,151.5975729530939 251.0145972635176,152.12108329205637 253.24984864598784,152.72036486431944 253.93006767210645,153.1956571462402 253.15685667784618,154.07735877020434 252.76422392336772,154.4768798183113 252.24587980475494,155.11749115419283 251.22813437554655,156.10251718720323 249.3510742778727,157.95546825640756 248.29372115863256,158.8784996437849 247.6031696916093,159.3813451011434 247.38274428554132,159.67754174051203 246.87817675480136,160.3663711341538 246.33916775427664,161.24118446407886 245.75366276957848,161.95067873932462 245.3317547659729,162.2606519666687 244.46555180346837,162.6877261907266 243.38925587590307,163.1285770021441 242.3095158013696,163.3765555843684 241.00762824748927,163.94139568674407 240.10698381519998,164.210039150367 239.8796701152982,164.2582572078193 239.22011597088618,164.40979967483105 238.78615345289188,164.56823043536866 238.36941166984124,164.84376219282538 238.0370514874091,165.19506518306946 237.7442989951113,165.71857552275046 237.25006390517333,166.93091525535468 236.91942579622528,167.28221824600936 236.0893863767843,167.9779359336902 235.65370178530586,168.26035598487803 235.21629512034335,168.4807813910487 234.34148179041827,168.76320144223655 232.98965410539628,168.935408790647 231.88752707556944,168.935408790647 230.72512747379892,168.79764291181598 229.5868369009085,168.57032921253005 228.44854632781283,168.27413257316144 227.29475709346283,167.97104763965115 226.13580163886584,167.6059680608157 223.82650109647648,166.8207025525773 223.5871328822886,166.7173781430178 222.88969312112366,166.41429321012336 222.18019884577527,166.0009955739383 221.81511926714512,165.67035746499022 221.7031844905757,165.5050384103109 221.4810370111262,165.16062371349003 221.14523268172584,164.85065048624858 220.91964105530815,164.7128846077255 220.24458824964185,164.49245920155485 219.7744621883787,164.47179431984824 219.5437043415087,164.48557090813165 218.40885791548385,164.63711337452756 217.4978810423926,164.9057568381505 216.43708377618427,165.36038423805672 215.97040186199195,165.55325646807114 215.30223735015943,165.91144775276484 214.64268320574743,166.26275074341953 213.5543327637934,167.03423966440096 213.14275720109245,167.37176606708013 212.39365523560966,168.101925224751 211.74098938513407,168.83208438170337 211.51711983220048,169.18338737256332 211.14515195963392,169.8997699420534 210.8782305694951,170.953678914428 210.71118944153696,171.4840775476348 210.44082390463518,172.71019386780395 210.30478009939094,173.58500719772903 210.382273406073,174.43915564605012 210.39777206753257,175.14176162756473 210.28067107051083,175.6652719665272 209.9155914918807,176.21633548133798 209.72099718817688,176.39543112419807 209.28359052321437,176.71918093869647 208.40016682586878,177.24269127837746 207.76816585720243,177.74553673573595 207.20504782800293,178.2966002504441 206.57821307968626,179.02675940780702 206.2424087502859,179.56404633495026 205.75850610125255,180.6455084825573 205.33143187719463,181.3618910523553 204.66843358581443,182.24359267570358 204.2138061861135,182.77399130911567 203.8332279461264,183.1390708876432 203.4647042204254,183.5041504664786 202.39529658679655,184.28941597533287 201.7581293976779,184.57183602682866 201.0934090329162,184.81981460843704 199.52460008879441,185.27444200834327 198.20893594704125,185.69462793836212 197.76808513500788,185.94260651966258 197.37373030714795,186.28013292295762 197.18430222389645,186.46611685934354 196.05806616529216,187.56135559513135 195.412288608753,187.90577029195222 193.22697735742443,188.66348262465027 192.35216402760202,189.02167390965192 191.9044249216322,189.11811002424855 191.4377430074399,189.14566320030215 190.98311560773897,189.06300367337306 190.52504406086453,188.8356899730607 190.17546314359134,188.49816357038154 189.76044343392215,187.83688735217748 189.32992506289605,187.52691412524396 188.61354249361122,187.1893877221542 188.1503047262845,187.0447335499 187.45458703870628,186.9827389045749 187.0223465942987,187.0309569616166 186.58666200271765,187.18249942842309 185.9512168870831,187.5406907131168 184.86975473916814,187.92643517324828 183.98633104182255,188.10553081610834 182.54151138855627,188.1606371675997 180.6179553068116,188.1606371675997 179.54854767318275,188.20196693132084 178.48258418662473,188.32595622197107 176.2903846412571,189.3454237245609 174.9540556176947,190.20646046661315 174.6699134927148,190.40622099076927 173.35252727747755,191.34991726016113 172.12296680972435,192.49337405370915 170.946790620081,193.67816061056772 169.2884338548884,195.06270769189035 167.6851834412898,196.20616448513042 166.67088215904963,196.8605524092954 165.9235022669483,197.22563198741233 165.0142474674438,197.43228080571015 164.1067147412181,197.55627009636038 163.1440756636037,197.88001991147465 162.396695771605,198.25198778445179 161.7027001574083,198.9063757082062 160.9535981919255,199.43677434100243 160.09944974380969,199.9671729741066 159.29868557359845,200.73866189539598 159.05415113885562,201.22084247073994 158.84061402682667,201.420602995204 158.6167444738931,201.53081569767346 157.71265589473825,202.17142703386295 157.17364689431622,202.41940561577928 156.69146631876697,202.7362671365466 155.52217842306004,203.89350051796742 154.02741863875474,205.71201011728436 153.16982604377336,206.5799351534783 152.73241937891348,207.15166354989304 152.37422809401446,207.4823016588411 151.16016628782344,208.61198186451625 150.24574526766133,209.29392296432428 149.57758075582882,209.83809818540394 148.6097754577621,210.47870952159343 147.96055375435736,211.0091081546976 146.7396036541273,211.9114746600604 145.8665123975837,212.68985187477296 145.66330772656204,212.85517092945227 145.23967764947233,213.2202505082877 143.6398713827393,214.79078152527777 142.78916708148907,215.52782897667976 142.18299721518693,216.12711054925074 141.47866916008556,216.67128576991982 139.24341777771798,218.48290707571093 138.8576733172786,218.86865153594505 138.00696901623363,219.55748092958683 137.24753460974355,220.32208155642655 136.4261055577231,221.02468753794116 135.27920461730952,222.09926139233028 133.27298900853313,223.91777099103138 131.66629444765837,225.1989936637183 130.96713261321463,225.69495082703773 129.34666146467234,226.83151932613612 128.66816451183252,227.2585935506046 128.1859839362833,227.53412530765073 126.90303919062546,228.14718346809454 126.07988806522353,228.45026840160486 125.02597909305425,228.76024162853838 123.4192845323848,229.05643826759905 122.49625314480217,229.13220950110494 122.34126653123276,229.1459860892857 120.77934588125267,229.15976267715854 119.50845564998357,229.1046563253593 118.32711323978528,228.92556068311507 117.35241964778216,228.725800158651 115.8611040105477,228.1334068802217 113.45364527987232,226.87973738389633 111.23905877921135,225.5227434786273 111.01863337324598,225.39186589352744 109.55314883827309,224.33795692166606 108.66455892047519,223.76622852463547 107.82590913371631,223.17383524620618 106.87532457049066,222.65032490683313 106.15721992772174,222.16125603734747 103.78592474000726,220.97646948018095 102.89905689579612,220.6733845472865 101.94330611211814,220.44607084707678 101.38707637664976,220.3978527896245 100.3607205801235,220.40474108407415 99.6650028925453,220.4805123172721 98.93312166180091,220.6940494289931 98.4492190128702,220.90758654143264 98.19090799025453,221.07290559539345 97.2523779414176,221.80995304679544 96.99923313925426,222.07170821627668 96.98890069824698,222.1337028616018 96.17780408723378,223.3873723579272 95.80755828815133,223.8351114644102 95.37531784364111,225.6742859450232 95.75589608362819,227.38258284125482 96.99062277173108,230.64074587348838 97.33331539506787,231.34335185469507 98.00664612735271,232.60390964536745 98.20296250454062,233.11364339655972 98.51465780526617,233.9057971988372 98.5404889074251,234.68417441426828 98.54909927494826,234.98037105332895 98.53360061348867,235.19390816504998 98.38378022037159,235.62098238951845 97.47108127379623,237.3912739310752 97.21277025118056,237.7425769216272 96.99923313925426,237.92856085821842 96.07620175187691,238.5898370758066 95.05156802862948,238.95491665464203 94.16297811083157,238.8033741881435 93.27094404606547,238.60361366367945 92.39440864275895,238.23164579111287 91.5850341051272,237.56348127948564 91.09940938260975,236.90220506158954 90.86865153573976,236.37180642848537 90.97714216523833,235.46943992271198 90.96680972443635,234.7461690595934 90.42091242997523,233.11364339655972 89.48927067517737,231.99773977844947 88.8762125146309,231.42601138234267 87.62426509168696,230.6476341672195 87.21441160257274,230.5167565825302 83.90975258647364,229.47662419792584 80.25379057982254,229.27686367376972 77.31765528942444,229.31819343769615 75.00491060016952,229.32508173152993 70.58090381960781,229.79348571900107 69.78530586995156,229.7728208369865 67.92030028676908,230.09657065251136 64.7930148394301,230.70962881285254 62.8987340069152,230.99204886404038 60.272571943655905,230.97138398243644 58.78297837990556,230.799176634026 56.44956880894402,230.26188970647218 53.73385892461394,229.40085296441995 52.097889114714704,228.69135868907156 50.88727145528663,228.19540152554683 46.18428877030001,224.99923313925424 45.11143698960029,224.33106862762702 44.007587886289336,223.91777099103138 42.34406490064443,223.55957970633764 39.73856771919439,223.47692017961384 38.155982187405044,223.37359577005435 36.83170767802607,223.1256171887539 35.505711095265646,222.5814419677769 34.295093436042855,221.77551157690806 32.4955266451537,220.06032638725324 30.506531771013055,218.07649773325699 29.71610004170647,217.42210980919467 28.843008785368152,217.31878540025102 27.959585088022568,217.53232251197204 27.337916560158217,218.04205626378018 26.566427639382063,219.0408588843555 25.292093261042123,221.4862032319891 24.868463184157715,222.09926139233028 24.14691439411266,223.43559041568741 23.034454923381183,225.38497760010424 21.708458340620755,227.1346042596464 20.434123962588746,228.7809065105529 18.22814782924565,231.6464367882054 17.40844085081193,232.3008247119598 15.047478104104723,234.18132895690977 12.099288299317898,235.5796526254894 10.110293425177252,236.50957230700843 8.367555059263545,237.15018364289 6.757416351728523,237.65302910055644 5.186885334122617,238.05943844270243 3.2202774153779736,238.02499697281505 1.9235560817446757,237.63236421854188 1.146900940618854,236.81265724051875 0.5734504702067833,235.41433357122062 0.09299196814164054,233.97468013861194 0.42535215057380027,231.73598460927616 0.3358043295030122,230.35143752815884 0,229.28375196780877 1.0229116496606896,229.3113051436571 2.641660724616233,229.32508173152993 4.770143551071983,229.02888509216132 6.561099974437972,228.76712992257745 8.358944691843023,228.19540152554683 9.752102140483526,227.38258284125482 10.943776991483809,225.7844986478006 11.186589352742537,225.04745119670653 11.735930794274502,223.40803724024966 11.76003982294932,222.1405911557435 11.481063918524399,219.350832111289 10.916223815738137,217.84918403335521 10.227394422096355,216.7883867674548 9.583338939143934,215.6793714433836 9.24064631590979,214.8596644650525 9.35430316575804,212.3178840022064 9.526510514168486,212.09057030261255 10.19295295251691,211.20198038471202 11.518949535174697,210.2858372908605 12.591801315771772,209.9414225940396 13.625045406234443,209.63144936741404 15.056088471525246,209.4248005488083 17.42393951216887,209.087274146437 18.644889612501572,208.64642333440364 19.84000861036742,208.1298012891723 20.683824617681246,207.51674312872848 21.28999448398337,206.9174615561575 21.419149995291207,206.66948297424116 21.634409180804262,205.6293505899447 21.565526241542727,204.74764896628852 21.37093193773628,203.74884634571322 21.07301322498621,202.6260544340771 20.928359052424078,202.01988456715912 20.40312663977222,200.75932677741054 20.218864777075687,199.74674756824388 20.361796876153715,198.61706736287667 21.55863794760631,197.2669617514414 22.2681322229547,196.46791965502223 22.56432886232331,195.88930296415785 22.84502684033498,194.99382475252617 22.808863297066143,193.49217667428445 22.42828505707906,192.27983694126962 22.07698206632175,191.2810343203864 21.8806656890312,190.50265710598174 21.861722880808692,189.13188661212138 21.915107158713287,187.7817810008914 21.99260046549799,187.12739307713701 22.05803925789396,186.61765932573945 22.102813168480672,186.21813827732458 22.19924928379581,185.61196841071452 22.393843587294327,184.90936242919992 22.779588047836366,184.34452232651628 23.21871678618036,183.95877786638482 23.881715077560575,183.53859193636598 24.375950167498555,183.30438994221984 24.896016359800743,183.1046294177558 25.257651791360033,182.97375183337442 25.645118325283537,182.9186454814725 26.10663401902353,182.8566508361474 26.971114908043965,182.8084327786951 28.27128038854283,182.8084327786951 29.740209070586573,182.7533264275117 31.402009982644728,182.62244884241184 32.30954270876778,182.51223613932652 33.34106472584899,182.32625220304323 33.950678739221964,182.14026826706788 34.91159574335225,181.61675792800276 35.68997295806482,180.9623700036325 36.59578361070376,180.08755667370744 37.396547781017624,179.1645252863301 37.7547390656087,178.81322229567542 37.91316982624896,178.5652437137591 38.3109688008718,178.07617484427342 38.68121459995426,177.56644109287586 39.030795517330105,176.93271805103336 39.09106808917112,176.31277159655048 38.937803549188466,175.73415490599402 38.465955414441204,174.9006713399954 37.909725679075464,174.54936834913545 37.184732742267485,174.26006000349795 36.43390870330059,174.22561853422644 35.62625623915296,174.49426199723354 34.842712803885426,174.8317884006312 33.571822572718986,175.4792880302439 32.700453389659486,175.89258566653163 32.21655074062613,176.04412813292754 31.58971599251476,176.09923448482945 30.864723055706783,176.00968666334808 30.23788830739012,175.80992613919196 29.9830214318453,175.6859368482338 29.13576127766591,175.34841044586256 28.14556902430585,174.8800064580835 27.179485799620604,174.29450147307742 26.254732338656513,173.73654966484344 25.39025144973872,173.09593832865392 24.90118258015041,172.71708216194565 24.4155578577356,172.28311964395132 24.276069905420496,171.88359859533116 24.436222739544853,171.58051366243672 24.873629404507383,171.4220829018991 25.400583890540705,171.4220829018991 26.02569656527062,171.20854578956224 26.385609923448452,170.8503545048685 26.394220290971617,170.485274926341 26.316726984186918,169.95487629323682 25.868987878217116,169.5278020693842 25.40575011109566,169.23160543032353 24.846076228761714,168.89407902702848 24.07286523429617,168.51522286062814 23.371981326265658,168.12947840049668 22.68142985913977,167.59219147294286 22.16136366704287,167.00668648896323 21.636131254288365,166.20764439223612 21.25555301430128,165.43615547125466 20.756151704013632,164.9264217200624 20.10176378005394,164.47179431984824 18.904922708601344,164.0033903323771 18.076605362644457,163.6520873418251 17.150129828196263,163.4178853477816 15.729419203810087,162.98392282978728 15.009592487659713,162.6670613088147 14.734060729997713,162.370864669754 14.575629969460103,162.10910949986223 14.558409234619058,161.8266894486744 14.558409234619058,161.50293963325217 14.558409234619058,161.1171951731207 14.613515586213044,160.80033365173753 14.820164404202936,160.46280724936628 15.069865059398081,160.18038719787052 15.490050989622212,159.8428607944728 15.87062922971194,159.50533439210156 16.25981783691426,159.1195899312516 16.483687389847837,158.68562741335992 16.56118069663254,158.25855318919938 16.557736549766975,157.5077291505404 16.514684712664362,157.13576127766592 16.449245920268392,156.70868705350537 16.44580177319754,156.29538941762823 16.437191405879663,154.91773063034466 16.4733549491485,154.56642763938206 16.514684712664362,153.83626848242972 16.56979106405306,153.45052402157972 16.68000376713839,153.07855614901317 16.857377335898505,152.6928116888817 16.97964455326992,152.47238628271106 17.429105732621185,152.010870589279 17.935395337050537,151.55624318906484 18.550175570773185,151.0878392015937 19.080574203877354,150.70898303529603 19.660912968020558,150.30257369315 20.148259764022118,149.98571217176686 20.683824617681246,149.76528676590414 21.245220573396654,149.71018041431014 21.668850650486352,149.72395700218297 22.044262670021123,149.83416970496037 22.676263638687455,150.1992492834879 24.090085969137213,150.4058981017857 24.954566858362938,150.2268024595415 25.426414992904913,149.9030526444272 26.280563441020725,149.1453403113186 26.745523281626284,148.6011650903416 27.155376770945786,147.94677716627925 27.155376770945786,147.13395848198724 26.542318610501958,146.53467690941625 23.671622112499833,145.50832111309526 22.507500437347865,145.0674703010619 22.226802459438836,144.5232950803928 22.23196867978851,143.84135398017423 22.783032194701935,142.93209918066972 23.781834815482515,142.41547713543838 25.4367474337069,142.04350926287182 26.919452703623477,141.74042432966945 28.124904142496593,141.60265845083845 28.958387708905793,141.61643503901922 30.442815052101192,141.9608497358401 32.502414939090116,142.52568983883165 33.604541968814324,142.45680689946747 34.0436707073636,142.26393466873455 35.15268603102423,140.74162170878623 36.0533304633135,139.61882979725274 37.487817675572515,138.0138573102727 38.01993838216079,137.45590550111493 38.99807612102948,136.4295497051019 39.72995735177387,135.72694372358725 40.53588774233476,135.2378748541016 41.29704422230893,134.90723674484562 42.30273513712857,134.1081946481185 42.741863875575206,133.67423213053476 43.0656136904842,133.1438334974306 43.280872875997254,131.7110683582451 43.141384923887436,130.4160690986091 42.66953678924282,129.79612264433152 42.09092009848108,129.072851780905 41.36248301480754,128.25314480216335 40.49628005240564,127.51609735106929 39.20989115967697,126.43463520284641 39.02562929677515,125.88357168803563 39.368321920214576,124.95365200692716 40.36368039392431,123.81019521337915 41.38831411696646,123.35556781378087 42.657482274751445,123.0662594684513 43.506464502414936,122.87338723812897 44.35372465659433,122.54274912918092 44.97022696390373,122.16389296247264 45.76582491355998,121.63349432967641 45.94664262939095,121.31663280829325 45.95353092332737,120.85511711496383 45.87775969023206,120.31783018771796 45.70210819464812,119.75987837876548 45.874315543058565,119.1192670428839 46.19117706423643,118.36844300360907 46.53731383454142,117.7898263127447 47.13142918655746,116.9632310402719 47.82198065368335,115.63379031074855 48.22150170199558,114.33879105080464 48.305883302614056,112.90602591223504 47.9373595770157,112.31363263318988 47.40868301739563,111.91411158549352 46.861063649450415,111.7625691183791 46.19978743165695,111.85211693986047 45.28708848508159,112.10009552146886 45.13554601837775,112.12076040307282 44.500100902948496,112.28607945775214 44.23490158619112,112.38251557296464 43.60978891156385,112.52716974552676 41.5966850085431,112.94735567595617 39.940050316834615,113.05756837873358 38.197311950920906,113.02312690915413 36.87131536826312,113.0437917907581 36.19454048890743,113.03001520288527 35.97239300945795,112.96113226352108 35.3335037468552,112.4720633937275 34.83754658343312,111.68679788518115 34.45352419658047,110.7706547919455 34.19349110037805,110.15070833766791 34.08327839739536,109.48943211987444 34.2503195253535,108.91081542890741 34.65328472073658,108.21509774122657 35.53498634449542,107.20251853277843 36.366747837317874,106.50680084499494 37.381049119558035,105.95573732987623 38.91886074076067,105.41845040334886 40.29996367511509,104.9431581214281 41.73100674030324,104.26121702182539 43.67694977734128,103.44839833753336 44.868624628341564,102.81467529517764 45.404189482103334,102.42204254059654 45.7727132074964,102.02252149248959 45.81059882424934,101.60922385630452 45.53678914017409,101.12704328096056 44.9065102450945,100.62419782360206 44.21423670438187,100.24534165658586 42.788359859543384,99.749384493677 41.772336504024395,99.5496239691103 40.89580110061523,99.19832097855829 40.27413257275088,98.7643584606666 40.0709279017292,98.199518357983 39.948660684357776,97.63467825499144 39.93832824335051,96.79430639454318 39.952104831223345,96.73231174952599 40.026153991039834,95.89882818332208 40.033042284976254,95.30643490448222 39.74545601313081,94.59005233478683 39.05490454600493,93.70835071143857 38.357464785045266,92.97819155376772 37.32249862109849,92.08271334244397 36.13943413751873,91.23545318836722 35.57631610811393,90.91859166698407 34.65328472073658,90.24353886121513 33.93345800427828,89.47893823437539 33.146470422145185,88.6454546677609 32.886437325942765,88.10127944709183 32.74694937393559,87.35734370154813 32.66428984649329,86.73050895384732 32.69184302223896,86.06923273605385 32.93121123663213,85.67659998147275 33.56321220529846,85.32529699051015 34.12288608763241,85.16686622997254 34.70322485177561,85.21508428742483 35.10963419392162,85.27707893274994 35.60042513699403,85.52505751497421 35.86734652703022,85.71104145125749 36.75077022447845,86.13122738137898 37.32594276796405,86.12433908692934 37.83567651925897,86.0003497962791 38.39879454866377,85.7523712146707 38.88269719759448,85.2426374631705 38.92574903469709,84.9464408238019 38.973967092354656,84.30582948792032 38.8740868302766,83.72721279705594 38.70876777580257,83.08660146117437 38.155982187405044,82.21867642528836 37.98205276540785,81.43341091684466 37.86150762162318,80.77902299237175 37.734074183696805,79.77333207806532 37.554978541349946,78.90540704156346 37.537757806611545,78.02370541780462 37.64969258297569,76.79758909732755 37.72546381637893,75.5232547189876 37.825344078456986,74.31091498638335 37.79606882922721,73.41543677475168 37.83567651925897,72.57506491430343 37.711687228506094,71.92067699054901 37.284613004345545,70.91498607593465 36.89886854400879,69.73019951835757 36.850650486453866,69.06892330046146 37.0572993045464,68.4558651404282 37.31561032716207,67.93924309519687 37.728907963244495,67.53283375305087 37.968276177637655,67.29174346486566 38.71910021660455,66.74067995005488 39.97104763965114,65.85897832629604 41.09211747770049,64.94972352689418 41.732728813787354,64.24022925123786 42.13913815613864,63.67538914824631 42.259683300025955,63.35163933374789 42.31306757793055,62.75235776086897 42.469776264984056,61.822438079349915 42.82107925594665,60.89251839824144 43.118997968491435,60.127917771401705 43.750998937157775,59.2186629718972 44.15224205895411,58.65382286890565 44.65680958989936,57.951216887391034 45.03910990326791,57.3243821393823 45.23198213369289,56.621776157867686 45.28020019114517,56.07071264274897 45.2698677501379,55.65052671273013 45.29397677901801,55.24411737058412 45.352527277477556,54.906590967186425 45.34563898354114,54.56217627036553 45.34563898354114,54.22464986799428 45.202706884360474,54.01111275586268 44.98744769884741,53.77691076151126 44.66714203070134,53.37738971350696 44.4415504043863,52.97098037136095 44.43982833079955,52.48191150156735 44.5724279890756,52.07550215942135 44.75496777839067,51.545103526625105 45.19754066380551,51.02848148139377 45.688331606775286,50.746061429898 46.366828559512435,50.44986479052939 47.40696094391153,50.09167350614359 48.360989654105396,49.56816316646262 49.14625516285703,49.08598259111866 49.64910062021553,48.700238130987195 49.917744083735826,48.23183414279756 50.127837048796565,47.75654186159531 50.16227851847866,47.260584697967936 49.95218555352056,46.63374995006185 49.511334741487175,46.01380349516838 49.165197971182174,45.407633629174185 48.91033109563736,44.98744769915535 48.750178261513,44.42949588989492 48.53319700251584,43.59601232399894 48.39543112389013,42.6798692300448 48.242166583702186,41.75683784266746 48.18361608524264,41.41242314584657 48.08717997023543,41.16444456423817 47.873642858103835,40.95090745251715 47.522339867346524,40.15186535579004 47.393184356038695,39.704126249614944 47.331189710610936,39.47681255002109 47.37251947422944,38.870642683616325 47.58433451287693,38.402238695529334 48.090624117100994,37.685856126141886 48.73467960015606,36.80415450269098 49.7541471027459,35.8811231150057 50.325875499571225,35.3438361881704 50.72367447429671,35.164740545310316 51.250628960535316,34.96498002146213 51.79824832837789,34.75833120316431 52.271818536506615,34.55168238548235 52.47330113414684,34.455246269961926 52.640342262104966,34.13838474929728 52.70061483415127,33.88351787323925 52.58179176364541,33.40822559162642 52.342423549457536,31.74125845942388 52.30109378573639,31.135088593121754 52.22704462602254,30.384264553744284 52.121998143389526,29.598999045300584 52.28215097741124,29.220142878592316 52.299371712354926,29.171924820832103 52.80566131657899,28.84128671188405 53.24823420199384,28.59330813027565 53.79068734958938,28.324664666652712 54.55528797642912,28.035356321733737 55.81584576679358,27.773601151534 56.73198886043979,27.601393803123553 57.59646974935759,27.325862046077415 57.97015969540825,27.167431285231874 58.26635633467422,26.767910237124926 58.64865664824805,26.092857431458626 58.80708740878566,25.348921685914927 58.84669509881742,24.846076228556427 58.85013924588827,24.453443474283254 58.74853691032611,23.84727360798113 58.40067806643437,22.99312516007061 58.21469413015109,22.366290412061872 60.09003215444348,22.318072354301663 60.25707328250426,22.311184060159956 61.74494477256522,22.13897671174951 69.242852722356,21.28482826383899 69.39783933602806,21.36059949703694 69.47533264281276,21.257275087990674 69.726755371492,21.057514563526627 69.93340418948189,20.912860391169783 69.98851054097324,20.871530627243345 70.0367285986308,20.843977451805603 70.12972056677245,20.809535981918227 70.17277240387506,20.78198280648049 70.6893944491064,20.616663752109105 70.8994874140645,20.53400422487209 71.20085027378278,20.389350051899385 71.30245260934494,20.34802028858881 71.35755896083629,20.3342437003054 71.63309071829299,20.327355406574267 71.69164121675254,20.327355406574267 71.76569037667169,20.3342437003054 71.93617565159802,20.34113199413917 71.99644822343903,20.34113199413917 72.6008960163597,20.416903227645058 72.65255822088284,20.430679815825822 72.9900846237673,20.437568109659598 73.0503571958136,20.437568109659598 73.16229197217775,20.472009579546974 73.23806320547834,20.396238345938446 73.24839564638297,20.306690524559727 73.26733845470812,20.224030997528 76.0002690739819,19.79006847932839 78.60404418205047,19.431877194634666 82.83517873249511,19.183898613026265 87.23679855776346,19.21834008291364 91.85884378909981,19.252781552801018 92.40474108356092,19.25966984622422 92.93513971666509,19.28033472823876 94.37307107599496,19.328552785998973 96.3017933780893,19.41810060676183 97.85854780771973,19.5489781918617 99.06055509972728,19.707408952296664 100.30733630221891,20.010493885191117 100.87045433141843,20.203366115924034 101.60405763564692,20.506451048715846 102.1775081058537,20.747541336593113 102.78884419271078,20.954190154890934 103.87375048779924,21.22283361851387 103.99085148461569,21.22283361851387 104.57119024886154,21.236610206386707 105.17908218875041,21.2021687361914 105.65781861722881,21.160838973188756 106.3896998479732,21.029961387780954 107.72775094522501,20.892195509565816 107.85001816259643,20.885307215116182 108.93148031051138,20.83020086393277 109.60825518986707,20.71998816115537 110.22992371752613,20.6993232788329 110.8309273634786,20.664881809253455 111.42504271549463,20.67865839712629 112.28091323709454,20.651105221380618 112.3807934991726,20.64421692795742 112.70798746125509,20.602887164236268 113.77567302139985,20.589110576055504 114.13214223250682,20.54089251829529 114.37151044689999,20.465121285097336 114.75036661330033,20.28602564326369 114.98801275420938,20.148259764022118 115.33242745103027,19.9416109464428 115.66478763356508,19.69363236442383 116.14007991497262,19.48698354653658 116.26751335300163,19.4456537825075 116.33295214519232,19.424988901211464 116.74797185496413,19.314776198126136 117.31797817810006,19.294111316111596 118.17557077328674,19.245893258351384 118.52170754348909,19.12190396770115 119.22775767197191,18.75682438886572 119.67549677794172,18.419297986186532 120.02335562162817,18.21264916788871 120.67429939861965,17.93711741084257 121.01699202205909,17.7924632381778 121.87286254355635,17.330947544437805 122.91299492795544,16.883208438365358 123.17991631799163,16.766107441446255 123.93074035726646,16.4354693324982 124.4439182553243,16.166825869285837 125.18613192707596,15.753528232690194 125.7010318988232,15.505549651081795 125.9472884069475,15.374672065981926 126.34508738177561,15.216241305752247 126.96847798302143,15.0164807812882 127.83468094552597,14.747837318281123 128.2135371121316,14.582518263704452 128.67505280576896,14.37586944540663 129.42071062438617,14.093449393910856 130.65888145955992,13.866135694316998 131.18928009256146,13.721481521652224 131.54747137725516,13.59749223069406 131.9108288824012,13.50794440952063 132.39128738446635,13.41839658814191 133.50202478181637,12.764008664079574 133.7293384816155,12.6193544914148 134.35789530331365,12.102732446183463 134.75741635172852,11.682546516164619 135.16554776746128,11.351908407216564 135.50651831721132,11.20036594082066 135.73210994373164,11.117706413481002 136.18329319646438,11.007493710395673 136.85145770839955,10.986828829099638 137.19070618487075,10.952387359212262 137.30264096113225,10.924834183363947 137.64705565795316,10.821509774112393 139.12631678090153,9.967361326509801 139.92191473055777,9.430074398955993 139.99079766981933,9.347414871616335 140.51430800898706,8.479489836140909 140.6021337566764,8.300394193280827 140.89316417569535,7.880208263261984 141.25652168073873,7.466910627282202 141.72492566841515,6.860740760672146 141.78519824025616,6.784969527474194 141.9522393682143,6.6058738852299745 142.82360855117113,5.737948849446616 143.13530385179405,5.393534152625726 143.66570248489822,4.876912107394389 145.37399938112983,3.1479503288402992 145.67880638791897,2.817312220200175 146.42102005946535,2.280025293364872 146.49334714579774,2.2249189414629553 147.23900496441496,2.293801881237708 148.03115876720565,1.839174481331488 148.4961186078112,1.5429778419628783 148.83364501079834,1.3018875540856112 149.1901142219053,1.0952387360957203 149.42259414236204,0.9712494454454866 149.78078542705578,0.8748133299250629 150.39556566077843,0.8472601541793916 151.11022615678442,0.8885899182084729 151.35992681197956,0.9368079755581105 151.60273917313566,1.019467502589837 152.06769901384385,1.1985631451419876 152.36906187356215,1.460318314623221 152.65492607192348,1.7289617782461595 152.94251234376893,2.424679465619072 152.95628893164175,2.5968868140295176 152.9545668582603,3.4854767322379905 153.01656150358542,4.374066649727958 153.07683407573435,5.269544861667562 153.09577688395686,5.8826030221113905 153.1646598232184,6.137469897758851 153.19737921951904,6.323453834042131 153.21976617481238,7.039836403532228 153.21976617481238,7.942202908587101 153.2438752034872,8.114410256997546 153.25420764449447,8.451936659984662 153.18188055816208,9.416297811391088 153.09405481037012,10.001802795678671 153.26626215878056,11.165924470933284 153.04411467933107,11.751429455939371 152.43794481302896,13.087758479193853 152.28812441980924,13.542385879408005 151.2342154475373,16.4354693324982 150.9638499105329,17.103633844536017 150.93629673488988,17.49626659880919 155.16570921174778,17.820016413615537 155.2793660618013,17.7924632381778 156.19378708175813,17.764910062432126 156.55025629296776,17.723580298403046 157.20120007006187,17.70980371053021 157.6127756326602,17.75802176798249 158.81822707153333,17.826904707757244 160.0529537596362,18.019776938079588 160.71767412460318,18.0542184073511 161.27734800693713,18.129989640549052 162.4518021229937,18.329750165013103 163.09757967953288,18.384856516299156 163.5883706226053,18.391744810748794 163.70891576649262,18.391744810748794 164.94192038100877,18.405521398621627 165.3896594870812,18.391744810748794 165.98894105934426,18.315973577140266 166.36607515236315,18.309085283409136 167.29255068681132,18.260867225648923 169.07145259589123,18.095548170969607 172.23317951280967,18.095548170969607 172.44671662473598,18.260867225648923 172.66886410418545,18.260867225648923 173.34563898354114,18.302196988959498 174.91272585397354,18.32286187097404 175.4035167969433,18.398633104171992 176.81217290704342,18.805042446318 177.20308358783248,18.818819034190835 178.54285675846575,18.770600976738553 183.55581267079646,18.942808325149 183.8003471055393,18.98413808917808 184.56839187944988,19.108127379828314 185.71529281986344,18.929031737276166 187.2978783516528,18.123101347125854 190.65936579272733,14.616959733591829 190.74202531986168,14.575629969870677 191.57034266581857,13.955683515387786 191.9388663913143,13.700816639637683 192.26433827981003,13.432173176014745 192.7344643410732,13.09464677333556 193.19081381425823,12.791561839825244 193.53006229072946,12.52980667034401 193.8589783261934,12.274939794593909 194.3256602403857,11.930525097773018 194.78028764008664,11.586110400952126 194.99382475221825,11.393238171245645 195.50355850351315,10.959275653251323 196.01673640167365,10.525313134743783 196.1114504432994,10.435765313980925 196.27849157136015,10.167121850357987 196.4265898908905,9.988026207805836 196.69523335451345,9.705606156617993 197.23079820796727,9.21653728723497 197.5924336398345,8.982335293499409 197.82146941311774,8.810127945088963 198.17621655074063,8.569037656903765 198.98214694140415,8.066192199545265 199.70025158427572,7.611564799639045 200.1789880127541,7.370474512480283 200.41663415356052,7.218932045365873 201.25700601390614,6.840075879273468 202.97046913048743,5.903267903407427 203.6747971855888,5.648401028375829 203.80223062330987,5.593294676473912 204.54961051541122,5.317762919427773 204.88713691839834,5.159332158582233 205.2780475991874,5.0422311613551996 206.1253077533668,4.897576988998356 206.72114517886692,4.842470637199082 207.08450268411562,4.801140874196437 207.3497020006677,4.766699404309061 208.11774677457828,4.752922816436225 208.19524008136298,4.759811110475287 208.41222134036013,4.801140874196437 208.88406947500476,4.987124810171787 209.3455851688474,5.111114101129952 209.57806508899623,5.124890688694856 209.69344401243123,5.111114101129952 209.93797844717406,5.035342867931999 210.3013359523201,4.88380040112552 210.6543610165615,4.684039876661473 210.7766282339329,4.615156937913156 210.8954513045414,4.539385704304629 211.24847636857754,4.332736886417382 211.9665810114491,3.974545601313081 212.44187329306192,3.726567020012614 212.79834250427155,3.5543596716021684 213.1548117155838,3.3683757350109564 213.64043643799863,3.0721790956423467 214.1863337325624,2.679546341369175 214.29482436206095,2.631328283608963 214.49975110656675,2.5073389929587293 214.8372775094512,2.2662487054920364 215.18513635334295,1.997605241869098 215.43139286146726,1.8253978934586526 215.7981945135815,1.5774193118502546 216.3802553512088,1.226116320579728 217.56159776130448,0.530398633104172 218.16604555422512,0.17909564255215044 218.4536318260706,0 218.55179001466453,0.11710099722703364 218.62239502761545,0.2204254058627266 218.72744151004318,0.3099732276520197 219.61775350132518,0.9161430939541442 220.06549260739763,1.2054514388731181 220.6647741796607,1.7427383658110644 220.79220761748442,1.9218340086711456 220.96441496589486,2.1904774721914406 221.24855709087475,2.6382165780585987 221.36910223476207,2.9068600416815373 221.53097714216523,3.0928439776568877 222.07687443662635,3.4579235560817447 222.42989950086778,3.6301309044921903 223.2358298915313,4.12608806811956 223.46658773850393,4.2225241833320535 223.81272450860365,4.339625179840581 224.0538147964809,4.401619825473629 224.38961912588127,4.539385704304629 224.63070941355326,4.649598407082027 225.08533681335683,4.959571634734047Z"/></svg>