<svg xmlns="http://www.w3.org/2000/svg" width="256" height="256"><path d="M176.97199451183297,3.258552108193011 179.07647608170623,3.618645728492918 179.28234927884853,3.423840983070351 179.39524748359605,3.211326714968792 179.30227249155453,2.839426746186901 179.39672327712333,2.5678807374347095 179.82691709032,2.083820460317066 179.88447303797116,1.953950629830105 179.90439625058917,1.558437964875926 179.92284366967996,1.4167617858190176 180.03574187442885,1.275085607641751 180.35303748287663,1.2042475179813508 180.63343825296832,1.0330554690829292 180.87620628829077,0.802831678742198 180.9891044930383,0.4486412318476228 181.06510785978023,0.04722539260847003 182.33355239646133,0.5489951919652855 184.47861828833567,1.310504651768238 185.82159039805552,1.664695098662813 187.52096664469693,1.8535966703281912 189.76195911601917,2.0129823712724146 191.5926809864989,2.302237902175814 191.64949903729845,2.260915683500461 191.71812343622815,2.1782712458858624 192.22653430645764,1.6765014468809036 192.67886502247526,1.434471308322082 193.00649118561526,1.2514729111176055 193.50383360421435,0.8854761163567965 193.61009073826514,1.269182433092885 193.67723934375553,1.617469705438594 193.71265838832045,1.7768554063828175 193.8189155223726,2.2195934645612154 193.87204408926604,2.408495036226594 193.9214831724293,2.680041045242678 193.95985380422607,2.892555313080345 193.9849422941895,3.2821648043652996 194.0129823711195,3.506485420421057 194.0203613387558,3.6599679474321634 194.0513530028283,3.9138044339451836 194.08824784100983,4.102706005610561 194.13473533711857,4.332929795951293 194.18269862684252,4.486412322874435 194.27862520602656,4.6339916756005675 194.37160019833198,4.864215465413515 194.48597419660678,5.283340827419623 194.55607438923826,5.472242399085002 194.7243148514354,5.820529671430711 194.98626820234836,6.186526466279484 195.17959715441958,6.410847082335242 195.3670229323818,6.646974046345198 195.42531677688453,6.735521658508662 195.4673768923235,6.812262921574394 195.61716993525258,7.054293060133216 195.73006814008806,7.243194631798595 195.89609491190635,7.485224770093524 195.94996137565,7.5796755559262134 195.9934972847042,7.668223167210036 196.13738715370016,7.910253305768858 196.23183793935692,8.093251703149262 196.45468276197337,8.547796109897607 196.5225692642274,8.718988159059922 196.6015242179359,8.907889730461408 196.7328698419501,9.244370654852919 196.79337737648123,9.41556270375134 196.8907797492791,9.663496016507171 196.9343156583333,9.757946802075969 197.08410870143828,10.076718204052378 197.17265631298602,10.271522949386982 197.30400193691227,10.548972132863968 197.39992851618288,10.731970530068445 197.5393910045984,11.033032409453826 198.07510405499428,15.306930464578558 200.39947886043086,33.89602573378631 203.86095257862232,61.570105957166646 203.7000910841508,61.859361488421904 203.46765360360718,62.26077732766106 203.38869864981072,62.520516988986834 203.35623119229894,63.730667680901306 203.37320281777448,64.12618034620733 203.4801978485889,64.19111526131887 204.02181407318176,64.33279144037579 204.24465889562228,64.40362952968432 204.69625171505223,64.70469140915768 205.09250227703393,64.86998028438687 205.6127194954815,65.16513898983914 205.72414190678973,65.19465485994454 206.2923224146974,65.33633103873755 209.87776278917877,66.77670552152054 210.34632723408424,66.96560709265813 210.85400020746215,67.21354040550193 210.9344309546979,67.29618484311652 210.91598353560713,67.45557054406075 210.84957282688035,67.76253559746722 210.52932563146464,68.3115307894325 209.94269770446624,69.17929738355012 209.50881440736345,70.02935445525264 209.32655390683465,70.54883377676067 209.14724499318442,70.90892739785225 208.9332549318195,71.51105115706284 208.8749610874047,71.77669399179395 208.86094104898368,72.60313836670844 208.86684422309273,73.15213355893762 208.96941187314943,73.48271130939601 209.24907474656544,73.98448110840097 209.31917493911035,74.0612223717306 209.76486458443125,74.3977032961221 210.27696493830297,74.79911913536125 210.58024050815516,75.20053497521616 210.64665121688193,75.42485559127192 210.66657442949858,76.00926982762758 210.65255439099099,76.9596808596237 210.6127079658415,77.59132048893969 210.55367622466446,77.83925380178349 210.4562738518652,78.00454267701268 210.18841732675526,78.27018551174379 209.6497526892169,78.61256960980452 208.95022655729503,79.00808227537446 208.62997936187932,79.34456319976597 208.49863373795307,79.68694729756281 208.48461369953205,80.06475044062968 208.51265377646342,80.25955518622817 208.6211246008037,80.53110119524426 208.80338510133254,80.78493768228506 209.1752850702024,81.15093447660605 210.31976295059354,82.0541201157298 210.78242422138996,82.43192325879666 211.29673826564056,82.98682162469507 211.37569321943838,83.06946606204578 211.92468841149025,83.75423425878299 212.71423794857506,84.69283894203323 213.13041172326274,85.16509287119668 213.6395604901679,85.66095949626852 214.60177786994228,86.61137052747296 214.969988354994,87.00098001875791 215.3987063746634,87.53226568874791 216.09528091953075,88.41774180510471 216.98370862303003,89.43899092570567 217.0781594086868,89.54524805975645 217.93043017076818,90.50746543979471 218.2477257790414,90.9029781047489 218.6793953858533,91.44016694875998 219.0291584517249,91.7648415249334 219.77222049270236,92.3079335431415 220.36475159398574,92.79199381973136 220.45625079267595,92.96318586924554 220.47174662462422,93.02812078435707 220.49166983724226,93.12847474385899 220.5566047525297,93.60072867275854 220.5610321331115,93.93720959688615 220.5610321331115,94.04346673093693 220.57505217162048,94.86991110611531 220.62006387411398,95.80261261543244 220.74255473687666,96.9006029996269 220.9093194054572,97.89823942431944 221.01926602323817,98.6715552323405 221.00672177825643,98.88997267472702 221.0037701912899,99.41535517052002 221.00229439767466,99.72232022392649 221.14618426667062,100.14144558593259 221.17570013721584,100.22409002319533 221.18676858858234,100.27131541615566 221.35943643127192,100.57828046956213 221.6132729180488,101.00921217978633 221.8073397667957,101.4873692823551 222.0109992735578,101.80023751031044 222.31648853370086,102.47910253302658 222.36076233951871,102.67390727844914 222.3238675013372,103.01629137650987 222.14455858777492,103.45312626101905 224.98988850842272,104.87579122138693 225.16329424778797,104.91711344006228 225.3876148639317,104.97024200695573 225.57651643542115,105.18275627479339 225.77501066483643,105.50743085096681 226.1011610344505,105.9855879535356 226.29153839937925,106.31616570390602 226.4435451326858,106.57000219041905 226.66638995530363,107.14261007917237 226.8346304174994,107.60305765950197 226.97704449279215,107.95724810586876 227.14307126460903,108.1933750704065 227.3297591458076,108.33505124919952 227.4293752089857,108.34685759715371 227.64853054769605,108.3586639453718 228.14734875991175,108.59479090964565 228.24917851337938,108.65972582510905 229.32798358171806,109.25594640994669 229.67774664768038,109.45075115589705 230.59790391201577,109.8521669951362 230.97423126137946,110.05287491475578 231.22954354168363,110.2240669636542 231.95858554406277,110.76715898221416 233.1702120299443,111.74118270985477 233.82472645937267,112.25475885769357 234.1929369443364,112.57353025931812 234.29698038800834,112.67388421934783 235.19278705905595,113.58887620589799 235.40972870756337,113.77187460363025 235.98381238975736,114.23822535824483 236.50034012429745,114.76951102770705 236.79107144907996,115.01744434055084 237.50166603254428,115.4896982694504 238.5989185199751,116.4755283453091 239.58770018332817,117.4554552472347 240.5750060529794,118.2464805780227 240.65543680021375,118.3291250156373 241.57633196122484,119.22050430592721 242.1747662365293,119.76359632395938 242.51715033485394,120.04694868145745 242.7768899956519,120.29488199394939 243.2506197179028,120.89110257887499 243.35540105833834,121.0563914541042 246.58517519283774,122.33147706174594 248.43434448240822,123.35862935628 249.02908927389453,123.87810867831581 249.20692239392952,124.10242929445954 250.2916306364666,125.49557838410627 251.66559441034826,126.9772750855646 255.23553895279204,126.31021641080267 255.3329413255913,126.38105450046307 255.64728534689795,126.52273067890422 255.9107144915141,126.74114812102687 256,126.95366238886453 255.9926210323637,127.17207983098717 255.9151418720959,127.32556235764642 255.61039050871642,127.72697819741336 255.04368579424806,128.577035268852 254.83043362964816,128.9961606308581 254.7219628053051,129.31493203248266 254.6968743155176,129.39167329581227 254.5906171814682,129.77537961316412 254.6134919810514,130.5664049436882 254.62456043250586,130.8733699973586 254.52051698883392,131.1035937876993 254.26520470870568,131.34562392625813 253.2609272133164,131.97136038155304 252.84622923215457,132.17206830117263 252.22418226050326,132.37867939534107 251.2044089330791,132.78009523458022 250.61335362549752,132.98080315446367 250.20455881835818,133.20512377025554 249.81199774010668,133.34679994931247 249.2083981874568,133.45896025703246 248.59889546069786,133.54750786893203 248.19157644717373,133.665571350937 247.37472472983458,133.88398879297168 244.6924699940371,135.15317122641642 242.5385493410872,136.05635686527629 241.5903519997338,136.52270761989087 240.97568399562948,136.91231711091194 240.61485247830203,137.23108851253647 240.01789399652483,137.78598687931452 239.7271626715664,137.99259797260333 239.32796052253016,138.2523376336652 238.75830422109524,138.5415931648325 238.26760287310492,138.70097886577673 237.77837731890713,138.9016867856602 237.29136545482157,139.1142010538497 236.9290581438789,139.38574706277785 236.82353890667972,139.46839149986465 236.32398279770177,139.8816136875858 235.84287410790253,140.24761048243457 234.7234847174748,140.9323786789079 234.50285358514924,141.01502311652249 233.91327407092038,141.38692308530437 233.71920722208552,141.53450243803053 233.53547092802944,141.77062940292012 233.50152767681448,141.92411192931547 233.6254943331058,142.16023889394117 233.84022229132094,142.54984838522614 233.90072982593867,142.77416900128188 233.88670978751765,142.9335547019622 233.77823896317736,143.2405197556326 233.38051260757905,143.72458003248633 232.5525924388734,144.5215085375593 232.16741032817023,145.00556881467693 231.98514982755347,145.3302433902346 231.63317307130163,145.97368936829648 231.59332664615354,146.1389782432618 231.60291930399276,146.69977978344517 231.65530997429852,146.93000357378588 231.75861552120682,147.23106545378704 232.0109762143685,147.69151303385274 232.96581462659455,148.93708277103724 233.21005845526832,149.52740018194177 233.19677631343365,149.58052874918707 233.37903681405177,149.80484936524283 233.42552431024848,150.02916998103467 233.3716578465914,150.1885556819789 233.1392203658718,150.49552073564925 233.04919696070888,150.56635882504577 232.56808827082168,150.73164770027498 232.2847359135875,150.83790483432574 231.59185085253833,150.86151753049805 231.0096503061217,150.87332387871612 230.6170892277822,150.91464609739148 229.6371623257673,151.12125719155992 228.86679810445165,151.3101587629614 227.9842735752346,151.75879999507293 227.75847716547565,151.93589521825632 227.5371081363892,152.17202218279405 226.92908120315616,152.9866602101062 226.76084074113632,153.23459352233425 226.47084731302948,153.83081410752376 226.23250665846473,154.244036294981 226.05319774481453,154.651355308769 225.73147475578222,155.26528541610972 225.5580690163304,155.57225046951618 225.1308267902762,156.3632758000403 224.82755122033603,156.91227099226947 224.75818892455612,157.04804399677752 224.35234570455788,157.70919949734244 224.2180484935771,157.8567788500686 223.88673284670693,158.17555025169312 223.31117337116297,158.71273909570422 222.84851210036655,159.07283271600414 222.35485916540966,159.2853469841057 221.95860860342796,159.45063585933488 221.31147314172387,159.6454406046695 220.72853469845566,159.77531043550832 220.21126906715057,159.84024535061985 219.64235066230336,159.93469613618865 219.13172610187092,160.0763723146298 218.8284505321067,160.16491992652936 218.6329078896566,160.28298340879823 218.28166903034435,160.66668972553433 217.5526270277013,161.37507061897162 217.42128140377505,161.51084362347967 216.90918104990334,162.01851659650572 216.63689714403566,162.23693403862833 216.41110073445265,162.4612546546841 216.13069996418503,163.01024984726513 215.91744779949576,163.80127517778925 215.82742439442077,164.17317514657114 215.66065972584025,164.550978289638 215.5211972374261,164.96420047709523 215.60015219122255,165.6784845445536 215.62819226815253,165.74932263359827 215.60900695229813,165.8969019863244 215.30277979539142,166.18615751784355 214.92350085897323,166.35734956674196 214.72722031984748,166.4340908300716 214.4320616143952,166.5993797050369 214.2675106360176,166.76466858052999 214.10664914154611,167.00079554453995 213.88675590598416,167.5615970852511 213.75541028214587,167.79772404961292 213.66095949631318,167.96301292449027 213.40712300962423,168.58874938013702 213.26766052129668,168.75403825527826 212.80868873440772,169.10822870138117 212.52238479003108,169.27942075054347 212.14310585361287,169.48012867069085 211.52548626236606,169.61590167493497 211.14030415183882,169.72806198327075 210.73298513822672,169.82841594277264 209.95450405268434,170.09405877811952 209.85267429921532,170.11176830000682 209.49184278179993,170.13538099644302 208.57463710460704,170.17670321538225 207.71424947821367,170.09405877811952 207.48181199775797,170.06454290739836 207.17558484085126,170.04683338489528 207.07818246796404,170.01731751417412 206.94314736021826,169.98780164371686 206.6974277379306,169.91106038038726 206.56313052694983,169.7752873761431 206.29379820822464,169.63361119743806 205.63559429506608,169.53916041160537 205.06003481952214,169.53325723732038 204.75233186908815,169.62180484921996 204.50439855642028,169.72215880872187 204.24318310227096,169.82841594277264 203.5687454601366,170.28886352319023 203.05738300294055,170.8260523672013 202.952601662505,171.09169520219632 202.85519928970575,171.32191899227314 202.79469175508942,171.58165865359894 202.82420762563325,171.91813957772655 202.896521508645,172.11294432306116 203.2034865622274,172.6855522117265 203.30679210913567,173.01022678763604 203.30679210913567,173.134193443926 202.9459605916323,173.60644737282553 202.6271891897439,174.0905076499432 202.33793365840066,174.39156952906467 202.0412991595091,174.62769649369037 201.5137029734252,174.91695202485766 201.38678473008073,174.94056472155773 201.27314862865754,174.95237106977584 200.22607312097767,175.01730598497534 199.43062040969446,175.0763377258019 199.10668373054995,175.1589821631526 198.3938754568827,175.40101230171143 197.95704057281338,175.44233452065066 197.73936102745435,175.40691547626028 196.94390831634846,175.11765994447725 196.850933324131,175.08224090008687 196.7158982163866,175.0409186814115 196.3041518222807,174.98779011425418 195.51976756245332,174.98779011425418 195.11613803283532,175.00549963640537 194.72579064478674,175.07043455186877 194.4225150750225,175.1707885113707 193.68461831139183,175.4305281724326 193.35330266443506,175.5958170473099 193.14742946738073,175.68436465920948 192.68034081600254,175.9382011457225 192.27523549285726,176.22155350322058 191.75649406793693,176.5698407755663 191.07836694216036,176.97715978900246 190.6732616189271,177.25460897230352 189.98185235149316,177.62060576715228 189.6593914656986,177.8036041642688 189.3871075599189,178.0633438253307 189.18271015648114,178.21092317805682 188.98495382382814,178.26995491861948 188.75915741415716,178.31127713755873 188.30904038834245,178.45295331626377 187.84933070460053,178.54740410183257 187.5394140637877,178.55330727585365 187.28557757709873,178.55330727585365 186.87899646033824,178.55921045040253 186.35730344845138,178.52969457968138 185.86955368786744,178.45885649028486 185.73820806385322,178.4293406195637 184.48673515264764,178.16369778483258 183.8425512779967,178.0574406507818 183.43892174838007,178.03382795460954 182.97626047749569,178.02792478032455 182.66044066266176,178.09876286972104 182.3571650928975,178.20502000350794 182.14834030879004,178.26405174495025 181.76315819808687,178.37030887900104 181.30344851434634,178.20502000350794 181.0909342465073,178.14598826259342 180.97656024805795,178.08695652150297 180.16266011785993,177.57338037392805 179.85643296086522,177.3844788022627 179.3428568133783,176.99486931124162 179.1473141711041,176.90041852540892 178.69719714520144,176.7410328244647 178.02423529677029,176.62887251639285 177.5416508134438,176.58755029806935 176.95207129930427,176.61116299424162 176.8266288493977,176.62887251639285 176.32190746307435,176.71742012829242 175.64599402758867,176.93583757041506 175.1781674794468,177.11293279351048 174.51627408255808,177.4317041954869 174.13551935252465,177.67963750771494 173.52232714185962,178.18140730733566 173.05081110989963,178.64775806168635 172.81689783582868,178.99014216001098 172.3896556097745,179.7457484458808 172.3571881520868,179.82248970973822 172.1358191229976,180.67254678117683 171.98455028654126,181.19202610268488 171.80302768260017,181.55211972351256 171.55066698943847,181.87679429968597 171.08505413167413,182.3785640987789 170.5065430689011,182.85081802767846 170.09184508774067,183.13417038491264 169.02853585135023,183.77171318842562 168.01835518202645,184.35022425111208 167.90988435768477,184.4092559925544 167.2317572319082,184.7575432649001 166.78164020618146,184.9523480102347 166.23707239453407,185.20028132307849 165.71537938264856,185.4659241578096 165.39660798075874,185.67843842564727 164.77308521549082,186.25104631404875 164.2078562945511,186.72330024294828 163.88613330569473,187.04207164510063 163.64336527037227,187.29590813161366 163.28253375304485,187.57926048858394 163.1091280135037,187.82129062714276 163.03828992419514,187.99838585032614 163.00287087954086,188.18728742199153 163.019842505103,188.78350800709308 162.9482665190322,189.19673019490216 162.8110177209969,189.5391142929629 162.60809611099847,189.85788569511524 162.16683384634732,190.4127840611016 161.7196684076751,190.8319094231077 161.60381861578648,190.93226338260962 160.3951437168701,191.94760932980523 160.00184474185497,192.2309616870394 159.06766743909992,192.84489179411625 158.25007782499438,193.35846794160318 157.70403421990906,193.65952982107652 156.90562992174867,194.11997740175798 156.35663472951947,194.3974265847072 155.66891494590365,194.69848846444444 155.21141895236468,194.97003447337255 155.03284793556608,195.08219478118053 154.65578268943875,195.282902701064 153.86032997815695,195.7020280630701 153.17777547179858,196.2333137325323 152.9010641854371,196.4812470453761 152.4598019208739,196.92988827775153 152.19489698272912,197.25456285339715 151.66877659017388,197.90981517941321 151.45995180606639,198.28761832248009 151.41051272290315,198.32303736713436 151.3190135242143,198.68313098805 150.88144074337995,199.6748642384576 150.3021917840165,200.66659748860127 150.23430528176382,200.77875779684905 150.00850887200488,201.29233394389618 149.98194458860215,201.3513656853385 149.69933012813297,201.92397357373997 149.2565920699532,202.73270842676715 149.09425478186648,202.90390047566555 148.56149331861312,203.60637819516973 147.86049139316398,204.56269240057117 147.566808481151,204.8814638025476 147.30485513006352,205.14120346299373 147.08348610097292,205.28878281571986 146.90565298093793,205.40684629798872 146.50792662542898,205.68429548128978 145.8888312406549,205.9499383160209 145.24095788227513,206.08571132079283 144.4654283836993,206.20967797708278 143.06047294565855,206.4753208120778 141.69979131361157,206.87673665131695 140.97148720782013,207.1010572673727 140.31844857200701,207.30766836127725 139.79675556012012,207.51427945509383 139.18061176248852,207.84485720528832 139.06181038363195,207.90979212039986 138.4921540820211,208.24036987024252 137.9771021410069,208.65359205796366 136.98979627135705,209.4741332594728 136.7603103778679,209.56268087110848 136.03200627207647,209.73387292000692 135.78407295958453,209.75158244250997 134.46102406239476,209.88145227273304 133.58218901691063,209.98180623249885 132.67678968784784,209.96999988428075 132.22003159116048,209.8519364020119 131.90126018927202,209.69255070106766 131.48508641467228,209.40919834383348 131.1183517230599,209.2321031206501 130.73759699302647,209.11994281293008 130.47490574517394,209.07271741970587 130.03659506757734,209.0313952012944 129.30902885872547,209.0432015495125 128.6980503383527,209.15536185732046 127.99409682584766,209.39148882159432 127.86275120200936,209.45052056277274 126.4437757255476,210.24154589329683 125.73022955511675,210.58392999197332 123.9459951806578,211.21556962146525 123.28779126749924,211.5166315009386 122.65024846381033,211.84130607711202 122.05328998194516,212.20139969741192 121.54414121495203,212.64413775559032 121.19142656202453,213.04555359509337 120.83871190892111,213.62996783232867 120.76861171655213,213.75983766255175 120.02923915930624,214.99360105125425 119.16885153291288,216.21555809200254 118.86114858248027,216.6878120206382 118.57484463810223,217.01248659672368 118.23541212683213,217.27222625725776 117.53145861432849,217.73267383793922 116.96844338385421,217.99241349864926 116.36927121161018,218.1931214185327 115.51478675932451,218.44105473084875 115.34802209074535,218.4764737757669 114.83592173678566,218.54140869061453 113.59625517388615,218.6417626504683 112.14333644629737,218.68308486940757 110.69484509937972,218.78934200319443 109.99827055442303,218.9015023115302 108.97111825944916,219.12582292758594 107.3167537153892,219.57446415969747 106.4777650952291,219.80468795030208 105.64172806212352,220.0644276108362 104.68541385628225,220.4245212314 104.4035372926633,220.57210058412613 104.1659345348622,220.74919580757341 103.76156710821667,221.18603069146684 103.53577069854568,221.52841479014333 103.4929726862551,221.6582846201025 103.45755364168879,221.86489571427094 103.4457472934707,222.60869565209862 103.4737873704007,223.0809495804704 103.53577069854568,223.68897651387798 103.48411792509154,224.07858600516295 103.36900602996515,224.30290662095481 103.13730644627309,224.62167802284324 102.72556005216718,225.04080338458547 102.39645809549994,225.30054304591124 101.62019070033641,225.84363506359156 101.28666136308739,226.07385885366838 100.63436062403788,226.44575882297806 100.53253087056888,226.49888738960763 100.2595090681135,226.6995953094911 99.26925161132115,227.07739845229406 98.29817947038319,227.34304128755295 97.16034266086471,227.67952221141667 96.37374471083443,227.97468091686895 95.42333367919016,228.38790310494193 94.42717304828876,228.74209355095687 92.43042440590419,229.415055399476 91.45344909094516,229.64527919008063 90.49713488519185,229.80466489076096 89.49359528674212,229.90501885052677 88.32624260659044,229.9522442434871 86.47264593643818,230.0230823331475 84.48032467463538,230.07621090004093 83.88853147011564,230.1175331187163 82.507188728687,230.33004738655396 81.90801655653092,230.43630452060472 80.84101783640895,230.77278544473236 80.71557538650377,230.8141076636716 80.5148674668842,230.86723623056506 78.98151799197171,231.2450393736319 78.57124739148104,231.30997428874343 76.57892612967824,231.56381077552035 75.81889246305069,231.64645521313494 74.6205481189145,231.8589694809726 72.6193720960361,232.31941706130223 70.66394567241484,232.70902655232328 69.12174143642676,233.0277979545636 68.80149424101104,233.15766778452277 67.25486262435321,233.46463283819313 66.60551347244619,233.60630901725003 65.01460804997052,233.8188232850877 63.68934546248984,233.9309835930716 62.77435347567578,233.97230581201083 60.45145446376645,234.20252960182378 59.09372441859807,234.29698038765648 58.22005465045937,234.40323752170724 57.4998674092438,234.43275339216453 56.00193697898559,234.43865656671338 53.92401969260164,234.3501089545499 52.69615947800818,234.24385182076304 51.91103732141719,234.22023912459073 50.641854888060415,234.1671105574334 49.83902320914228,234.17301373136652 47.94410432022671,234.16120738314842 47.70650156224967,234.16120738314842 46.10526558525909,234.20252960182378 45.70237395222878,234.23794864674196 44.85379267405352,234.43275339216453 43.54623960898795,234.86958827658572 41.434379071389024,235.69603265185208 40.15339028990212,236.17418975442084 39.26938996689666,236.62873416108124 38.58757335730193,236.96521508494496 38.38834123120961,237.11869761195607 37.734564698632845,237.82707850486557 37.51024408240116,238.1576562549721 37.16933577769176,238.98410063050235 37.0645544372562,239.77512596102645 36.90516873631198,240.5130227246571 36.89188659447866,240.99708300177477 36.81071795047929,241.28633853267814 36.65428383667755,241.5755940644612 36.40782631762491,241.90026864028275 35.50906805952276,242.75622888627026 35.36739188090567,242.8979050644475 34.56751178904207,243.70663991773858 33.98457334586181,243.29932090395056 32.06899334738864,242.78574475663956 30.858842655034355,242.33710352452803 29.79479552187894,241.74088293907465 29.616224505080318,241.58149723813042 28.925553134322016,240.80818143010939 28.710087279341863,240.4185719390883 28.53889523017955,240.2768957602953 28.497573011416232,240.20605767125065 28.432638096304697,239.97583388090993 28.30719564639952,239.75151326485417 28.254067079506076,239.603933912128 28.3219535817601,239.2084212462942 28.54922578495834,238.26391338928678 28.62006387417892,238.01007690224597 28.633346015924275,237.7975626344083 28.438541270413744,237.66769280418524 27.939723058199412,237.3666309247119 27.511742935205664,237.0183436518384 27.14279455339033,236.59331511616307 26.779749345684046,236.321769107147 26.676443798775754,236.25683419177156 26.509679130195224,236.04431992419777 26.300116449324115,235.6015818660194 26.190907728306776,235.37135807541475 25.734887528383027,234.85778192836764 25.327568514946865,234.40323752170724 25.154900672257288,234.2674645174631 24.946813784825476,234.18482007958463 23.87538768412172,233.92508041913848 23.46954446412485,233.84243598126 22.84971118276306,233.60630901725003 22.238732662388905,233.4882455348932 21.939146576354858,233.34656935618816 21.23519306376324,233.26392491857354 20.799833973309113,233.23440904838017 20.41022448202416,233.24621539659827 20.219847117007447,233.27573126679164 19.828761832371157,233.3937947493244 19.54836106210354,233.44692331595394 19.450958689304294,233.42921379380275 19.253202356651276,233.317053485467 19.146945222776424,233.2580217449043 18.918197226050918,233.0455074767148 18.581716301835336,232.5968662446033 18.336734576221993,232.39025515043483 17.910230246931434,232.19545040510025 17.606216780227637,232.04196787808914 17.29925172655728,231.98293613726256 16.983431911899284,231.86487265490572 16.571685517617446,231.74680917263686 16.375404978491687,231.70548695369763 16.270623638056133,231.66416473502227 15.832312960547483,231.30997428874343 15.730483207078489,231.16829811021432 15.486977275168334,230.95578384184887 14.973401127593426,230.731463226057 14.877474548321441,230.6606251363966 14.828773361921817,230.58978704752786 14.716613053849956,230.22969342643628 14.691524563886514,229.86369663220327 14.69890353152282,229.72202045314637 14.81991860075825,229.4976998373545 14.989634856481267,229.10218717204845 15.063424532844332,228.94280147084035 15.119504686880262,228.7952221181142 15.222810233788556,228.41151580111423 15.293648323009135,228.1871951849705 15.435324501626223,227.88613330532124 15.531251080986173,227.7267476046409 15.729007413727155,227.40797620275245 15.895772082131757,227.08920480051216 15.990222867876481,226.64056356840064 15.996126041985526,226.56382230498303 15.987271280997888,226.4162429522569 16.071391511963817,225.87905410859767 15.584379647879617,225.58979857681464 15.35563165115411,225.2828335231443 15.048666597483756,224.93454625079858 15.020626520553755,224.86370816140206 15.008820172335664,224.56264628228058 15.03095707515662,224.33832566587296 15.020626520553755,224.1081018758841 15.041287629847448,223.81884634410105 15.051618184626243,223.62404159876644 15.12098048031956,223.24033528141462 15.122456273846822,222.8920480090689 15.051618184626243,222.48472899589663 14.780072175610158,222.0892163300628 14.564606320630004,221.85899253998596 14.157287307017913,221.5638338345337 13.89902343974718,221.33361004419297 13.67617861713072,221.07387038374685 13.23786793962207,220.39500536120661 12.898435428351965,219.86371969121663 12.691824334447416,219.5980768564855 12.55162394935759,219.41507845875324 12.312545397941253,218.9369213559206 12.169393425796905,218.77753565524026 12.082321607776452,218.69489121736174 11.50233475156275,218.2226372887261 11.081733596205307,217.97470397649806 10.782147510171258,217.79760875305075 10.597673319263592,217.63822305210653 10.495843565970524,217.44932148070507 10.419102302464971,217.20729134214622 10.399916986610574,216.9652612035874 10.426481270189242,216.42807235957633 10.374828496647131,215.66656289977337 10.36154635490178,215.5898216360919 10.25086184035718,214.73976456474122 10.08557296530391,213.91922336323208 9.8671555233572,213.14000438092606 9.893719806759938,212.85074884975876 10.103282487631047,212.34307587611696 10.033920191937728,212.26043143885423 9.510013489759958,212.07152986745274 9.363909930561086,211.59927593855318 9.161726217414248,210.74921886658677 9.141065107944625,210.65476808128187 9.043662735145379,210.09986971511958 8.900510762913065,209.75158244250997 8.825245293022737,209.58629356728076 8.667335385605776,208.84249362962902 8.62896475389698,208.64768888403054 8.626013166930422,208.36433652653247 8.761786171438464,207.8920825978968 8.953639329894473,207.43753819150032 9.093839715072264,206.97709061134663 9.208951610198646,206.71735095037272 9.625125384798377,206.1329367134013 10.345312626101904,205.30058916420185 10.988758603987844,204.43872574436918 11.244070884292018,204.05501942701736 11.44035142332981,203.6595067620632 11.887516862089992,202.7681274711575 11.980491854307456,202.6028385961922 12.123643826539768,202.21913227919222 12.278602146902207,201.94758627044004 12.309593810974695,201.8767481811315 12.448318402449296,201.49304186377967 12.57523664579377,200.9145308013571 12.671163225153721,200.63117844412292 12.870395351246035,200.26518164936212 12.984031452845159,199.98182929212794 13.044538987462872,199.73389597954804 13.00469256231478,199.42102775168067 13.046014781078098,199.17899761338575 13.107998109223074,198.75987225137965 13.212779449658628,198.52374528701782 13.255577461949207,198.3466500639224 13.472519110368657,197.44346442479863 13.758823054657356,197.0538549337776 13.809000034672204,196.9475977997268 13.782435751093535,196.84134066593992 13.721928216475822,196.6052137015781 13.755871467602832,196.1329597730304 13.803096860563159,195.3714503126117 13.90935399443801,194.54500593743333 13.956579387398337,194.20852501304182 14.087925011236631,193.72446473618805 14.234028570523467,193.07511558445697 14.191230558232888,193.02198701756353 14.068739695558161,192.8153759233951 14.003804780182735,192.63237752627856 13.977240496692032,192.3726378652167 13.971337322582986,191.59341888291067 13.962482561507382,191.22151891412878 13.865080188708134,190.7964903781016 13.714549248839514,190.45410627977697 13.564018309146824,189.92872378398397 13.441527446472097,189.38563176630365 13.425293717496295,189.24395558751064 13.527123470965291,188.94289370812524 13.946248832619544,188.00428902487502 13.972813116110247,187.5851636631328 13.968385735616428,187.1542319529086 13.940345658510498,186.90039546639557 13.879838123892783,186.74100976545137 13.58615521196778,186.33369075166334 13.25410166833398,185.93817808670914 13.025353671608475,185.71385747056544 12.836452100119025,185.58989081436346 12.626889419247917,185.44821463530653 12.291884288559595,185.25931306390504 11.76355020580004,184.9405416620166 11.17323279489551,184.62177026039205 10.833800283713368,184.41515916622362 10.721639975641507,184.344321077091 10.535689991118616,184.20854807258294 10.215442795702907,183.80122905914678 9.914380916141598,183.553295746303 9.737285692870238,183.37620052347145 9.520344044362822,182.99249420585573 9.41261111696071,182.76817359006387 9.250273828874,182.41398314316928 9.170580978401889,182.12472761226587 9.149919869020229,181.84137525476783 9.141065107944625,181.35731497765016 9.030380593400027,181.04444674995872 8.696851256151001,180.25342141969853 8.50204651064047,179.85790875421657 8.364797712517204,179.61587861592162 8.231976295151648,179.4682992631955 8.053405278353027,179.30301038770241 7.941244970193202,179.23807547259088 7.5531112725234735,179.06098024940746 6.320823677436193,179.07278659788946 5.819053877991414,179.07278659788946 5.128382507233113,179.1082056426317 3.922659195636536,179.19085007989443 2.7287422319941586,179.20855960213362 1.8786851602036698,177.7977009899838 1.775379613383341,171.74104435427927 1.7680006456590702,171.06808250576012 0.8220169947725234,164.24991640963688 0.6050753461771442,163.70682439195656 0.5312856698140779,163.2345704633209 0.5047213863233739,162.7977355790756 0.23760275797703787,161.98309755185144 0.051652773454146456,161.51084362347967 0,161.23929761455153 0.2700702156647512,161.17436269908816 0.3246745760854562,161.15665317693694 0.6419701843586774,161.07400873932235 1.0537165784645877,160.92642938659623 1.2691824334447415,160.89691351587507 1.757670091056205,160.89101034185398 2.2801009997067148,160.96775160527156 2.7907255601391343,160.96775160527156 3.322011229865248,160.83197860076353 3.633403664205352,160.79065638182428 4.356542492475438,160.76114051136702 4.453944865274686,160.7552373374339 5.383694787449322,160.7080119442097 5.706893569919552,160.67849607375243 6.419701843586774,160.66668972553433 6.725191103817833,160.71981829242776 6.928850610579896,160.68439924803738 7.142840672032788,160.5958516364017 7.234339870635027,160.52501354709318 7.356830733397717,160.37153102008207 7.82760886859408,159.53918347061872 7.863027913336317,159.46834538183796 8.041598930134937,159.13776763137955 8.317572319732806,158.76586766259766 8.590594122188186,158.38216134550973 8.921171872382688,157.99845502824584 9.158774630183798,157.7505217160178 9.436223813396891,157.54981379639824 9.856824968578405,157.40223444367209 10.872170915334198,157.2251392202248 11.167329620786465,157.17201065333137 11.977540267340897,157.1188820864379 12.454221576558341,157.12478526010713 12.969273517572544,157.23104239442182 13.301327061206344,157.30188048329055 13.726355597057605,157.29007413533634 14.036272237870449,157.25465509094596 15.004392791665914,157.09526938991377 15.981368106712914,156.85914242511214 16.204212929329373,156.80011068446152 16.295712128019577,156.74107894337106 16.341461727364678,156.66433768004143 16.286857366943973,156.49904880481225 16.050730402494196,156.1802774029238 15.501735210352983,155.38334889785082 14.992586443447825,154.61003309009365 14.704806705631865,154.2086172505906 14.707758292774352,153.81310458502068 14.703330912104605,153.35265700460312 14.861240819609531,153.05749829915086 15.208052298427978,152.62066341499354 15.414663392332528,152.33140788373828 15.305454671227226,151.90637934779906 15.281841974791044,151.5994142941287 15.334970541860416,151.4341254191634 15.475170926950243,151.28654606643727 15.672927259603261,151.1684825841684 15.783611774147861,151.1448698877322 16.213067690580907,151.18619210667146 16.481662112454504,151.13896671371114 16.577588691902417,151.10945084334182 16.734022805616192,150.97958101250302 17.25940530140919,150.47781121376195 17.35090450009939,149.98194458842622 17.684433837348415,149.5864319228563 17.958931433331056,149.35030495884632 18.262944899858926,149.155500212896 19.15727577737929,148.63011771736686 19.340274174759696,148.52386058358 19.63838446735445,148.4176034492653 19.728407872429425,148.3349590119146 19.71955311135382,148.18147648525536 19.63838446735445,148.02209078431113 19.219259105524266,147.57935272613273 18.804561124363833,147.29600036889855 18.279178628746763,147.17203371234473 17.989923097403544,146.97132579246124 17.88809334393455,146.81784326571403 17.870383821607412,146.7411020023844 17.908754453316206,146.42823377469298 18.19358260416561,145.9618830198145 18.605328998271517,145.54866083235726 18.674691293964838,145.38927513141303 18.72929565456147,145.1531481674031 18.80751271150632,144.8993116802743 18.884253974835946,144.73402280539696 19.01855118590469,144.57463710471663 19.340274174759696,144.4270577519905 19.768254297753444,144.3562196623301 20.41022448202416,144.24996252854322 20.817543495548282,144.11418952377127 21.02267879592557,144.02564191248746 21.118605375109595,143.94299747487287 21.331119643035226,143.72458003248633 21.67497953497508,143.31135784529297 21.902251738173323,142.92765152820502 22.01588783968448,142.73284678234265 22.212168378810237,142.38455950999693 22.34646558979102,142.10120715249886 22.44681954964479,141.93001510360045 22.63276953416768,141.32789134474172 22.96629887132874,140.67854219239487 23.113878224054872,140.51915649145064 23.404609548837392,140.300739049328 23.506439302306386,140.13545017471458 23.785364278870812,139.9406454287642 24.310746774575847,139.6513898975969 24.833177683226356,139.3267153216874 25.275915741404752,138.91349313396626 26.120069639086196,138.06343606199985 26.300116449324115,137.89814718729843 26.63954896059422,137.39637738802958 27.122133444096637,136.96544567806927 27.32431715733144,136.7883504543581 27.533879838202548,136.670286972617 27.80690164065793,136.50499809712392 28.212744860654794,136.38693461511895 28.981633288357948,136.262967958829 30.14455858783987,136.00913147205208 31.090542238814383,135.66084419970636 31.435877924193534,135.60771563254903 31.939123516989646,135.64903785148826 32.274128647765934,135.84974577110785 32.730148847689684,135.73168228910288 32.96775160549079,135.737585463036 33.09171826178074,135.69626324462453 33.296853562158034,135.5427807177014 33.57135115814067,135.12955853024414 33.7115515432305,134.73404586441032 33.80600232906319,133.84856974805354 33.94620271406505,133.44715390881439 34.13805587269699,133.04573806931134 34.63097091080227,132.17797147572148 35.08994269769258,131.43417153754197 35.13421650359838,131.35743027447623 35.55924503944965,130.64904938130283 35.59761567107048,130.52508272501288 35.59318829048869,130.37160019826567 35.56072083288895,130.0764414928134 35.42937520905065,129.75767009066107 35.249328398636806,129.4270923408184 35.084039523583535,128.9371288894158 34.9010411262911,128.08116864351626 34.66491416184132,127.39049727302185 34.64277725902036,127.31375600942833 34.62064035602348,127.1543703084841 34.65753519420501,126.9890814337827 34.90694430040014,126.5168275049711 34.980733976763204,126.35153862974191 35.02648357602035,126.20986245121279 34.97630659609346,126.20395927701578 34.97630659609346,126.05047675026856 34.92465382272728,125.89699422360931 34.86267049449434,125.74941487088319 34.821348275818984,125.66677043300469 34.5394717120241,125.2240323748263 34.49814949326079,125.09416254486712 34.4671578291883,124.94658319214098 34.468633622715565,124.79900383941485 34.54242329907863,124.49794195941372 34.59407607262074,124.34445943301836 34.79478399224031,123.98436581210271 34.99401611850856,123.62427219127501 35.02943516316283,123.43537062013742 35.08256373005627,123.2877912674113 35.20062721223718,123.06347065082774 35.284747443291074,122.8332468607509 35.49135853719562,122.39641197685748 35.604994638706785,122.10125327140521 36.010837858703646,121.34564698527149 36.230731094265586,121.00916606087998 36.31337553179222,120.75532957436695 36.34141560881019,120.67268513675236 37.17376315818557,120.73762005212778 38.15073847323257,120.59594387342274 38.686451523628435,120.47788039141776 39.19560029053359,120.32439786440665 39.78149032085634,120.105980422284 39.828715713728705,120.09417407406592 40.01909307874541,119.993820114564 40.25964742368901,119.78130584672634 41.22924377118767,119.07882812722217 41.52735406360649,118.90763607832373 41.85793181371303,118.69512181048607 41.95238259945775,118.64199324359262 42.049784972257,118.58886467669919 42.448249224617555,118.35864088635846 42.93821267575628,118.11070757351466 43.31306423168066,117.8037425198443 43.544763815372725,117.48497111821975 43.667254678135414,117.33148859094474 43.816309824476775,117.1661997163313 44.18673399981937,116.84152514015788 44.37858715827537,116.7234616581529 44.47746532460189,116.67033309125947 44.57044031681935,116.64672039473531 44.72539863718179,116.61130134981715 45.0264605167431,116.581785479096 45.28472438401383,116.52865691220255 45.59316523129941,116.52865691220255 45.900130284881804,116.46962517128803 46.61146276502176,116.44010930091873 47.3124646904709,116.41649660413069 47.60024442828685,116.44601247458796 48.19498921986113,116.45191564913682 48.58607450449742,116.50504421603026 48.969780821673325,116.51094739022727 49.56304981954442,116.56407595685683 49.67225854073769,116.56407595685683 49.76670932630648,116.56407595685683 50.17993151393965,116.56407595685683 50.767297337789664,116.54046326042064 51.17609214484105,116.45781882306994 51.28825245300087,116.42830295270063 51.899230973199096,116.26891725140456 52.20029285276041,116.15675694368456 52.42756505595865,116.09772520224224 52.47774203588554,116.07411250580606 52.57662020221205,116.02688711310962 52.96918128046356,115.81437284500807 53.259912605334044,115.59005222895232 53.74544867580302,115.22995860838851 54.561562496378535,114.65144754543817 54.75489144844977,114.5333840636971 55.16221046206186,114.25003170619902 55.30683822764551,114.13787139839106 55.464748135238395,113.996195219686 55.99898539201903,113.62429525090411 56.16722585403886,113.51213494256837 56.42548972130959,113.36455558984223 56.57749645470547,113.27010480400953 56.685229382107586,113.2051698891619 57.05565355753814,112.98084927310614 57.44969042931692,112.75652865643464 57.643019381300185,112.65617469693272 58.14331338704177,112.46727312553124 58.44880264718487,112.46727312553124 58.727727623925226,112.52040169242468 59.06420854805285,112.61485247825736 59.4818581162678,112.66798104515081 59.59549421795489,112.67978739310502 60.41751121255148,112.72701278597737 60.8174512584393,112.73881913454731 61.238052413796744,112.70340008954119 61.704403168411325,112.63256200040857 62.02022298315728,112.53811121492774 62.643007851661565,112.40824138408892 62.797966172024005,112.44956360276427 62.88798957718694,112.47317629946436 63.31154231951094,112.56762708503315 64.02435059335409,112.63256200040857 64.6412322875734,112.63256200040857 65.04707550757027,112.58533660727232 65.3776532576768,112.52630486662169 65.71560997541964,112.4967889959885 66.02109923565071,112.43775725454618 66.72948012873614,112.32559694673822 67.15450866449945,112.17211442007897 68.18313675300058,111.7234731873517 68.29677285468767,111.65853827224016 68.7852605121232,111.4460240044025 69.18520055801103,111.23941291049795 70.17840960194586,110.79077167838643 70.48685044914347,110.64909549959343 70.99599921604865,110.34803362020804 71.11849007881133,110.19455109319694 71.24835990921032,110.0469717404708 71.34133490142779,109.98203682535927 71.59517138802877,109.45665432956628 71.62911463924375,109.37400989221557 71.99215984695003,108.69514486949943 72.2356657788602,108.21698776693064 72.49688123327341,107.90411953897532 72.765475655147,107.60305765950197 73.15213355928947,107.30199578011658 73.75573311193936,107.02454659681553 74.54528264911212,106.72938789136326 74.70614414349565,106.65264662776976 75.33335639258172,106.4224228376929 75.44256511368702,106.37519744482054 76.35017813286477,106.05052286864712 76.94787451149357,105.89704034225177 77.01428522013236,105.8793308197487 77.18695306282194,105.82029907830639 77.44521693009267,105.74946098952563 77.81711689896252,105.66091337736218 78.92691363146305,105.30672293134724 79.07154139713465,105.27130388634112 79.29733780689361,105.18275627479339 79.47590882369222,105.13553088209696 80.03966195101809,104.86398487316885 80.37614287523367,104.71050234589384 80.92366227384763,104.46256903331394 81.18340193464562,104.33860237737585 81.36049715791698,104.25595793976125 81.71468760454766,104.08476589059893 82.02017686460279,103.94899288609089 82.66509863601598,103.66564052885671 82.94549940619564,103.54167387230287 83.27312556924765,103.45312626101905 83.9150957536943,102.92184059120497 84.2825683418944,102.4672961845446 84.70021791010936,102.0127517781481 84.72678219368802,101.69988355045666 84.75924965137574,101.47556293413702 84.89649844923511,101.16269470670947 84.93634487455914,100.93837409012592 84.95405439688628,100.53695825088677 85.07506946603374,100.14734875960181 85.10753692372145,100.07060749653608 85.15033493592406,99.36222660336269 85.2506888958658,99.11429329051889 85.40417142270098,98.87226315196007 85.52518649184844,98.55939492426863 85.5842182329389,98.48855683522397 85.61963727768114,98.45904096450282 85.65210473519292,98.38820287510632 85.73179758566503,98.23472034871095 85.78345035911917,98.00449655837022 85.84100630677032,97.77427276776561 85.96497296297231,97.53224262920678 86.23356738502184,97.20756805329725 86.51396815511353,96.8769903034546 86.88881971103791,96.38112367838276 87.13675302370578,96.07415862471241 87.44076649023364,95.94428879413749 87.72854622813757,95.76719357104206 88.24064658200929,95.49564756202597 88.75127114244171,95.25952059766416 89.78137502455807,94.65149366434453 89.97913135721109,94.53933335600877 90.47352218875567,94.32091591415002 90.79229359064412,94.12020799426655 91.06826698041792,93.91359690071387 91.20256419131073,93.86046833382042 93.18750648547721,92.63851129307211 86.50658918747723,88.74241638101424 89.76956867633999,86.44017847857454 88.27016245264248,86.23947055895496 85.18280239361178,85.53108966604545 82.38174627878182,85.21231826406904 82.958781547941,84.76958020589065 83.66273506053261,84.35635801790562 84.15122271796815,83.95494217840258 84.46704253280207,83.54171999120922 84.75334647709077,83.07536923659464 85.08540002072456,82.1662804234498 85.20641509004795,81.7176391913383 85.33923650741352,81.48151222697648 85.42335673864334,81.39886778971373 85.53256545957271,81.32212652576837 85.93398129889982,80.8498725971327 86.13764080566189,80.50158532505088 86.3265423772393,79.73417269078703 86.30883285500013,79.68694729756281 86.37967094413276,79.5865933380609 86.42542054356582,79.49804572616132 86.91833558158314,79.03759814609562 87.1411804041996,78.78376165896684 87.53521727597837,78.26428233745882 87.7462557504647,77.89828554261004 88.17718746042502,77.08364751564976 88.31591205189962,76.91835864068446 88.40888704411708,76.8711332475482 89.14383222069321,76.5818777166448 89.70020638047073,76.41068566713062 90.24329839859087,76.19226822535984 91.06531539318746,75.696401600288 91.2645475194557,75.59604764017034 92.29317560786889,75.18282545271309 93.30999734815194,74.8109254839312 94.38289924247093,74.36228425120395 95.41005153744482,73.94906206401059 96.02840902545528,73.66570970651253 96.87551451001531,73.12852086250143 96.90060299997876,73.16393990715571 96.99652957925073,73.20526212583106 97.39204224455678,73.03407007666874 97.67982198237273,72.84516850526727 97.95727116549786,72.63265423742959 98.1240358340784,72.49097805890047 98.3070342314588,72.34339870617434 98.50479056411181,72.23714157238746 98.70992586448911,72.1072717416366 98.97704449283545,71.87704795129586 99.05083416919851,71.80030668796624 99.13052701967062,71.72946859856974 99.32385597174185,71.60550194254367 99.52013651086762,71.54056702716825 99.92302814398587,71.48153528634168 100.02190631013646,71.49924480875679 100.33329874447656,71.62321146478284 100.43660429129689,71.62911463906782 100.54138563173245,71.61140511656475 100.72733561625535,71.49334163455978 100.98412368991085,71.28082736672211 101.07857447574354,71.20408610330452 101.1804042290366,71.19227975508643 101.49474825034326,71.27492419217324 101.6984077571933,71.31624641111249 102.00537281086365,71.32214958539747 102.30053151631591,71.34576228183364 102.49090888124466,71.31624641111249 102.6916168009522,71.19227975508643 102.9705417776046,71.03289405387831 103.11664533680346,70.88531470115218 103.27012786363865,70.65509091081145 103.41180404225572,70.5016083841522 103.70843854123525,70.489802036198 103.91062225447006,70.489802036198 104.10542700006856,70.49570520986722 104.40944046668439,70.49570520986722 104.61309997353442,70.489802036198 104.71640552035474,70.489802036198 104.81823527373578,70.48389886164914 104.9126860594805,70.46618933967386 105.11339397918805,70.37764172759836 105.30081975715022,70.31860998694772 105.49857608989122,70.31270681275072 105.68895345490792,70.30680363872963 106.07265977190791,70.30090046453263 106.26303713692461,70.15922428600351 106.44234605048686,70.01164493327737 107.02749818404598,69.79322749124269 107.32708427008004,69.75190527256734 107.60453345320516,69.6279386160135 107.89378898454838,69.4626497407843 108.59183932303095,68.94907359347329 109.55110511575081,68.22298317814868 109.84995330493327,68.0340816067472 110.54283836598246,67.65037528965925 110.83061810388638,67.45557054406075 111.02616074624851,67.22534675345612 111.28885199401306,67.00102613766427 111.38625436681231,66.94789757077082 111.48070515255704,66.90657535183158 111.67255831118898,66.81212456599889 111.86588726317224,66.66454521327275 112.05995411209507,66.43432142293202 112.1167721629826,66.28674207020589 112.1558806912791,65.98568019073254 112.20974715502413,65.83810083800641 112.5314701439671,65.53703895862103 112.72184750898381,65.44849134698535 113.52836867163212,65.10610724839682 113.63019842501316,65.04707550721841 113.91945395635638,64.92310885128032 114.52600509614875,64.6161437972581 114.83149435620388,64.4331453998777 115.52142783028651,63.94318194909083 115.80625598113592,63.736570854922384 116.00106072664644,63.64212006935359 116.30581208993794,63.57718515424205 116.61203924684605,63.63621689533251 116.94630648076937,63.77198989984055 117.13815963931333,63.78379624805864 117.34255704292562,63.7011518107959 118.21696470774137,63.09902805167328 118.50326865203006,62.86290108678368 118.72463768111926,62.61496777455563 119.02643745753217,62.30800272079731 119.14081145580695,62.219455108985706 119.61749276520032,61.90658688155816 120.01669491432452,61.71768530989278 120.2365881497985,61.69407261319271 120.86158670859366,61.69407261319271 121.21946663895454,61.77081387713808 121.67696263249351,61.90658688155816 121.78690925018651,61.92429640353344 121.99720982790922,61.912490055315345 122.21267568288937,61.81803926948266 122.31967071352786,61.747201180613935 122.5034070076719,61.570105957166646 122.82365420308622,61.345785340847 123.31730713795652,61.05652980967971 123.75709360925632,60.76137110422744 124.3562657811485,60.513437791383645 124.75841951741516,60.29502034987676 125.82172875380695,59.42725375540727 126.4017156099327,58.94319347881741 126.511662227803,58.89596808594505 126.7964903784751,58.801517300112366 126.88134850629262,58.71887286223387 126.9971982982706,58.31745702299472 127.09829015480004,58.13445862587821 127.17355562469037,58.04000784004552 127.48937543961225,57.821590397922876 127.96015357472065,57.62678565250031 128.78807374351425,57.33162694704804 129.16366319620226,57.219466638800256 129.28762985249222,57.1781444201249 129.74291215565233,56.97743650050533 130.2195934650457,56.64685875004693 130.50589740924644,56.32218417448926 130.7966287342049,56.009315946270036 131.3625955519096,55.554771540137445 131.65037528972556,55.31274140157862 131.72047548218387,55.25370966066409 131.87174431881476,55.017582696126354 132.12705659894164,54.7932620800706 132.23700321672396,54.72242399067409 132.5439682704823,54.53352241900871 133.1114108816263,54.19113832086001 133.67959138970988,53.955011356322274 134.28909411646745,53.766109784920786 134.750279593738,53.62443360647963 135.4593983834991,53.37650029363583 136.68504490788962,53.06363206629625 137.12409348233783,52.862924146324815 137.72621724146046,52.47331465539172 137.83468806562618,52.38476704322826 138.20880172478692,52.060092467318725 138.25971660147746,51.9833512039891 138.46706559205768,51.688192498536836 138.8433929415093,51.204132221419194 139.2300508456518,50.88536081979464 139.5274232414829,50.649233855432826 140.2579410373893,50.182883100554356 140.564168194296,50.005787877370956 141.06372430327534,49.42727681503638 141.1367760828734,49.344632377421775 141.3212502737811,49.08489271635989 141.5514740641218,48.6185419620092 141.98757105142752,47.81571028326701 142.1167029850629,47.644518233752834 142.40595851640612,47.42610079198205 142.88559141276605,47.18407065342323 143.99833973232109,46.81807385857446 144.55028651142885,46.5819468945645 145.03360889160695,46.30449771099955 145.13248705793484,46.24546597017299 145.42174258927668,46.08017709494379 145.6194989219297,46.00933900554728 145.81504156429182,45.86175965282115 146.0268179354538,45.73779299688306 147.03109543084312,45.17108828241471 147.65756978316418,44.810994661850906 148.10473522183776,44.592577219464374 149.19460874180822,43.978647112387556 150.1907693727096,43.311588438065435 150.27931698425732,43.24075034875689 151.01868954141526,42.53236945549553 152.31148467138414,41.564248901875985 152.3749437930564,41.493410812215586 153.05528460903452,41.23957432570257 153.67733158086452,40.926706097747235 154.9620098463455,40.41903312419341 159.16211822493122,38.4945983647326 163.43158889921028,36.19826363657787 169.26244912541978,31.847624318123515 169.25949753845322,31.753173532290827 169.2499048804367,31.54065926445316 169.22334059703533,31.398983085660145 169.12741401767536,30.920825982827473 169.0366527157488,30.613860929421012 168.84258586708987,29.816932424348035 168.68688964987584,29.433226107611947 168.65220850189723,29.203002317007325 168.64482953434887,29.043616616326993 168.63745056671257,28.648103951020957 168.6418779472064,28.530040468752087 168.57841882553416,28.45920237935558 168.48396803987603,28.406073812726028 168.28104642987896,28.347042071635574 167.863396861664,28.358848419589773 167.45460205452466,28.38836429031093 167.06056518274588,28.44739603113749 166.756551716218,28.500524598294824 166.456965630096,28.52413729481897 166.25551981362483,28.55955633920935 165.48515559257035,28.583169035645533 165.288137156593,28.53594364303706 165.08373975306594,28.406073812726028 164.9523941290517,28.258494459999895 164.88450762679906,28.034173843416355 164.94353936797748,27.93381988391444 166.47541304918678,24.82875030238068 167.51215800217582,22.384836221147957 164.93542250348958,17.207752527515222 162.86045680416015,16.245535148092692 162.6995953098646,16.198309754868472 162.481177867654,16.09795579536656 162.27087729001926,15.956279616573543 161.65768507944355,15.625701866203114 160.65635917128333,15.088513022455919 160.26084650588933,14.881901928551368 159.74062928761768,14.681194009195684 159.63879953414866,14.63987179025644 159.33331027400558,14.480486089312215 158.91861229284652,14.338809910607164 158.6168125165202,14.19713373207804 158.21023139984766,13.990522638261455 158.07519629210327,13.795717892838889 158.18661870332352,13.571397276255345 158.42348356444896,12.91614495023928 158.6168125165202,12.538341807172417 158.82637519739131,12.172345012851428 159.04700632989417,11.865379959181071 159.378321976675,11.3990292043026 159.55836878691292,11.109773673135308 159.77604833218535,10.649326092453846 159.90149078208916,10.489940391773516 160.6718550032316,10.070815029767406 161.2134712277365,9.78746267253323 161.35957478693402,9.533626185756319 161.43188866985915,9.173532565192518 161.19797539578823,9.002340516294097 160.4770502576345,8.642246895730297 160.11695663715727,8.412023105389565 159.8660717373469,8.063735833043857 159.52516343263753,7.089712104523596 159.2204120691701,6.4580724749437115 158.9510797504435,5.767401104537267 158.88024166122432,5.259728131247335 158.97174085991452,4.793377376544791 159.42333367916714,4.297510751209057 160.41654272310336,3.966933000838627 161.19207222167918,3.9019980859909853 161.6252176218424,3.766225081219051 162.1683096398746,3.4710663757667852 162.63908777507095,2.981102924891953 163.08182583325072,2.514752170013481 163.41609306717405,2.3553664690692577 163.72379601760804,1.9834665005512597 164.05068428398437,1.3990522638437384 164.42037056256333,0.8854761163567965 164.80260108621198,0.5135761474869419 165.00183321221633,0.3718999685179979 165.34126572348782,0.212514267837667 165.78474167851644,0 168.5120081168074,0.8559602456356415 171.53369536396292,1.6351792282055506 173.94956936800176,2.6387188263034327 176.97199451183297,3.258552108193011Z"/></svg>