<svg xmlns="http://www.w3.org/2000/svg" width="256" height="256"><path d="M249.60813565826282,1.7130933252018843 249.93893459333592,2.063080133401835 250.39253591734501,4.215191998657602 250.34111241699722,4.568248866671304 250.3871633127853,4.936656033570771 250.5729019259818,5.651979948581954 250.63507063540325,6.090998488910321 250.62816300098243,6.155469743077699 250.575204470865,6.655889477759693 250.8039239200816,7.288321780727436 250.9965701676989,7.5922576931392936 251.04492360832444,7.7334804405003155 251.46552179022777,9.326841436168234 251.456311611061,9.609286930615793 251.6504928884937,10.146547382010608 251.73645456071685,10.349171323725256 251.8078334492593,10.518024608540836 251.95673134588023,10.680737773866156 252.3182308780844,11.423692226514886 252.46022114023873,11.795169453045114 252.48554913294734,11.988583215364256 252.4579185954928,12.185067037771637 252.29597294509804,12.467512532036206 252.29520543021323,12.501283189072518 252.29213537049097,12.697767011205412 252.39728491597825,13.06617417810488 252.28829779583813,13.465281941769433 252.58379104405955,13.55431367389785 253.70282781291337,13.895090303022528 255.76590794617798,14.49989206821548 256,14.579713621085634 255.98771976111098,14.788477682244794 255.6331278631904,21.109730650324323 255.5510037656658,22.644760511452365 255.50572038476253,23.485956875259035 255.3714052719138,25.75780106986578 255.3399371597607,26.783201017053564 255.29235123401997,27.120907586364492 255.13961576283774,29.441872736573078 255.16110618098503,29.537044587825775 255.00530064998904,31.547933705995003 254.85640275350536,33.890389273893405 254.79116398436167,35.76926582409712 254.75969587220854,36.407838246189144 254.68754946878127,37.737174106109016 254.6614539611421,38.182332765744654 254.50564843019185,39.201592593625165 254.4450147506773,39.99673806164375 254.38821864581556,40.51557815465927 254.20171251777998,42.019907418564756 254.045906986784,43.43520495047906 253.61149353608477,47.183747871490986 253.49866884129185,48.147746624325144 253.3912167510129,49.07490466030924 252.62216679058776,54.57952174236014 251.98359436835847,56.60883121858842 251.7326169861098,57.382486268596956 251.50159499201,57.54826949373602 250.95435684647214,57.695632360267076 250.46084474611945,57.833785047814345 250.08936751972647,57.76931379382996 250.008778452063,57.757033554757946 249.8345525627792,57.723262897996115 249.69179478574006,57.664931763319 249.55671215791506,57.600460509014376 249.37788117909363,57.56668985211531 249.14762669992442,57.56668985211531 248.91967476554692,57.56361979230156 248.62878660686314,57.55747967285705 248.41081236658297,57.5605497326708 248.0984337898434,57.54212937415427 247.81215072083452,57.468447941048865 247.53891540546223,57.41011680618875 247.24035209747282,57.39169644799246 246.95023145371962,57.394766507623224 246.70692922073084,57.36713597003142 246.45748686829754,57.29959465609604 246.1773439186874,57.213632983918615 245.9348092006292,57.11846113252868 245.67615666898337,57.07241023687783 245.435156980832,57.05091981886778 245.12584846386045,57.066270117250326 244.93473724605852,57.12153119247967 244.7175305207089,57.15223178942775 244.46808816827559,57.155301849378745 244.17720000959181,57.16451202845401 243.97764612769092,57.146091669983235 243.77732473076796,57.05705993817505 243.639939558197,56.98030844511865 243.3736118772913,56.8053150409958 243.1917108387476,56.636461756180225 243.03590530784314,56.522869546411 242.89161250089708,56.464538411871125 242.68361595471424,56.40620727701101 242.56234859568514,56.335595903399124 242.41498572901682,56.163672559090024 242.31520878804352,56.016309692284494 242.18473124984763,55.81061569103058 242.08725685371175,55.61720192829971 241.9560118005853,55.41764804653605 241.81248650856983,55.2426546424132 241.66972873143916,55.10450195486593 241.52159834988606,55.006260043799486 241.34123234115776,54.938718729818355 241.15702875786815,54.86503729643846 240.97666274913985,54.72995466879644 240.81087952418378,54.634782817269254 240.6366536349,54.53040078675829 240.49926846232904,54.42908881601534 240.30738972968803,54.33084690481165 240.11934857169985,54.24488523267998 239.9765907946607,54.15278344078356 239.83229798771464,54.06068164916162 239.69951790468133,54.01156069355977 239.52375698558217,53.9716499172162 239.35797376058034,53.940949320085124 239.1614899384017,53.88875830485252 239.01566210154877,53.8242870505479 238.937375578677,53.71376490059243 238.87213680953332,53.59710263132969 238.78540762237958,53.483510421423226 238.68716571131313,53.41289904781134 238.51831242658903,53.366848152160486 238.36711198522218,53.35763797276498 238.14376514047382,53.372988271467754 237.9710742810969,53.40982898813483 237.7968483918131,53.46509006322693 237.60573717410267,53.57254215336865 237.3823903293543,53.68920442276863 237.1766963279174,53.79051639364883 236.92802149041464,53.95629961865066 236.72616506367632,54.10366248531895 236.56728947309531,54.18962415763362 236.15359892547556,54.40145827842354 235.7153479001235,54.64706305615828 235.03609718662008,54.95406902838389 234.5686805939066,55.15976302991229 234.432830451151,55.21195404500765 234.2939102487647,55.264145060423246 234.1949008227219,55.30098577695308 234.08668121746663,55.3101959560741 233.91782793274257,55.3869474491305 233.7750701557034,55.46983906163142 233.3682872424587,55.697023481307106 233.23397212961,55.69088336186259 233.1257525244005,55.67553306315982 232.95613172474583,55.583431271400634 232.83639939557784,55.52510013667777 232.64068308832978,55.44834864362137 232.4940877365463,55.39308756857501 232.36207516853503,55.38387738963698 232.16635886119548,55.35317679223143 232.01746096466604,55.31633607551861 231.76801861223274,55.248794761720475 231.51550620007717,55.21195404500765 231.29599692993585,55.11985225352296 231.16398436187885,54.9847696256522 231.09107044347527,54.815916340836615 230.9820833233352,54.62250257851748 230.88767898692154,54.39838821879278 230.80939246395826,54.14357326166253 230.83395294178206,53.9716499172162 230.8209051879625,53.88568824517601 230.7126855827072,53.83349722980616 230.50775909629238,53.78130621439057 230.13397932506194,53.70762478128516 229.92368023408739,53.68306430332412 229.62511692614373,53.590962511885174 229.0402705490082,53.495790660312245 228.7524524500467,53.495790660312245 228.32955172335167,53.630873288228756 228.13460293098842,53.72911519929521 227.92507135489868,53.827357110498895 227.8275969587628,53.93480920050337 227.74086777160906,54.054541529717106 227.65720864413183,54.180413978375356 227.55589667334314,54.28479600888632 227.46686494135196,54.40759839786805 227.3793682393134,54.51505048805552 227.20053726049198,54.6071522798147 226.97181781113818,54.699254071573876 226.69935001078795,54.83433669917015 226.59343295041586,54.91722831167107 226.55045211425852,55.03082052144029 226.5604298084016,55.122922313062226 226.56273235314754,55.2150241048214 226.49212097953566,55.380807329685986 226.39234403856233,55.4636989421869 226.29256709763476,55.55273067426957 226.1989302760602,55.65404264514977 226.1283189024483,55.767634854918995 226.02854196147499,55.87201688542995 225.88808672918177,55.96411867714338 225.75530664623994,56.102271364599154 225.73535125804528,56.261914470156476 225.49818914445524,56.59348092002289 225.29633271771692,56.80224498131929 224.99009426042187,57.029429400720495 224.6953685270853,57.136881490862216 224.4466936896283,57.25047370063144 224.278607919789,57.39169644799246 223.882570215618,57.55747967285705 223.53411843714193,57.69870242021807 223.29081620415312,57.760103614434456 223.14882594204454,57.766243733878966 222.9009186194266,57.766243733878966 222.21245772671068,57.922816779942764 222.12496102467213,58.0425491091565 222.0413018971949,58.19912215476282 221.9538051951106,58.32806466323482 221.62223874510696,58.75173290486041 221.5109490802209,58.85304487569486 221.34670088503447,59.06794905634428 221.26994939197806,59.19689156449605 221.2806946010517,59.32276401315429 221.22927110065817,59.494687357737874 221.15098457774064,59.678890940844504 221.03508982327122,59.91221547996471 220.94145300169666,60.01659751047566 220.74189911975,60.30825318413574 220.25222459405018,60.48017652844484 219.8700021586293,60.535437603353955 219.2283596767235,60.535437603353955 218.81466912910375,60.6398196341394 218.37718561872802,60.71350106742779 218.19221452046207,60.756481903585126 218.0133835416864,60.7165711271958 217.79847936108274,60.67973041052873 217.576667546104,60.64902981312318 217.2873144173271,60.65209987307417 217.01331158707,60.70429088816953 216.42769769504966,60.811742978631486 215.55963830862748,60.94989566604151 214.85198954260173,61.22006092141706 214.4705346221114,61.45645552003078 213.94248434988336,61.83407286586827 213.49272060057282,62.24853092855584 213.0015110450576,62.690619528514965 212.90787422348305,62.85333269374879 212.7060177967447,62.95771472425975 212.49341616102424,63.13577818833359 212.10121603146027,63.49497517565457 211.5931211474269,63.986184731398524 210.9522461804974,64.57256613839519 210.58230398387408,65.03614515622712 210.4664092293589,65.14359724668907 210.1901038544016,65.39841220363633 209.80711390405017,65.79137984790212 209.43717170747254,66.35934089670248 209.12863070543156,66.77993907865157 208.72108027725633,67.18211690231286 208.28282925190427,67.59964502449394 207.7785719425237,68.02638332593328 207.3894418727735,68.26277792440976 206.93584054876442,68.5421533591808 206.5904588300106,68.70486652450613 205.8613196459748,68.91670064520456 205.40541577721976,69.1131844674747 204.8090566761715,69.43554073840308 204.2288153886651,69.8438586813259 203.91336675224903,70.2091957884116 203.56261242893552,70.63286402989996 203.3008898376132,70.97978077860638 202.99081380566534,71.286786750832 202.62163912406405,71.88237833681244 202.13273211329476,72.71129446186733 202.04753795600215,72.90777828413746 202.02220996329353,72.95075912029479 201.9915093661625,72.99373995645213 201.83877389488873,73.17180342020573 201.67759575951604,73.30688604812225 200.80109370881195,73.51872016891217 199.73117789555994,73.77660518571892 196.91056052573717,73.40512795918869 195.32026958965426,73.20557407724205 192.57103110832819,72.60998249117011 190.63919602809855,73.75511476757164 189.72431823086623,76.0576595592637 188.66898520134072,77.40848583687338 183.62717962246566,79.05403784809414 182.12975799293525,79.4592857313862 180.98539323146431,79.72945098703623 179.94924807520286,79.97505576477097 179.16638284607333,80.13469887046553 178.0972345477519,80.48161561908046 177.3972609310775,80.69651979954689 177.1624013624164,80.76713117329602 177.09562756336584,80.78555153135508 176.88379344257592,80.84081260640143 176.65814405294435,80.91142398001332 176.43709975294192,80.96975511487344 176.21528793805467,81.04036648843957 176.02340920541366,81.14167845918253 175.83767059221717,81.252200609138 175.8092725397863,81.27676108709903 175.7655241886984,81.3228119827499 175.65500203874294,81.49473532733347 175.63120907584968,81.51622574548077 175.58285563522415,81.54692634261183 175.5605977022378,81.55920658136361 171.91643681191982,83.907802269164 171.6286187129583,84.09200585222487 171.4336699206408,84.22094836083411 170.87875662579728,84.69373755792431 170.42515530183394,85.13275609811544 169.8901973953223,85.63010577330391 169.30151344353396,86.01079317863493 168.63377545389753,86.39148058442342 168.12798311470158,86.64015542178892 167.56385964069128,86.82435900530727 167.08646535388044,86.95023145378254 166.10020866815142,87.13136497753288 165.39486244691736,87.16820569392547 165.0510157580704,87.11908473859812 164.89444271223536,87.10066438012734 163.2711486340467,86.20727700090507 162.1682296788262,83.81570047740482 160.46664907776577,83.21089871216611 157.21161825724377,80.7210802771877 151.56961600266763,78.18214088688192 149.45357733910262,78.94658575795242 149.22869546444738,79.02640731050234 148.69066749816776,79.31806298416241 148.16568728566196,79.79699230101735 147.67140767033297,80.3004820955131 147.16254527136903,80.8776533232515 146.7841604106467,81.44561437186887 146.4441512963611,82.1087472717847 146.17321852591775,82.72582927591242 146.00590027100904,83.24466936911094 145.85930491927132,84.01525435916848 145.76029549327433,85.09591538140262 145.81402153836805,86.04456383580849 145.76566809774252,87.51819250230841 145.64977334322734,88.02475235657217 145.5492288873692,88.55894274819897 145.30592665433466,89.10541337885205 144.2421509606187,90.53913126896265 143.39097690262318,91.73031444142676 142.28345285777354,93.00745928579379 142.17676828242514,93.10877125667399 141.79838342170285,93.45875806505693 141.35782985160483,93.81488499288437 140.67090398865855,94.23241311506546 139.96095267788684,94.64073105812551 139.27479433000835,94.89554601498128 138.68841292301167,94.99992804562947 138.05521310529636,94.98150768711295 137.3928477202196,94.77274362609103 136.3544000191665,94.44424723571814 135.5584870361716,94.26618377182729 135.24534094454722,94.21092269691817 134.91684455426582,94.1802220997871 134.3235555128941,94.15873168163982 133.6373971650156,94.23241311506546 133.3250185882303,94.2753939512228 132.65114047919508,94.34600532483468 131.92890892953434,94.26925383177827 131.30875686568436,94.09733048714895 130.66481183889542,93.91005684399983 129.5764756674471,93.44954788566142 129.197323291657,93.3144652580194 128.69460101213755,93.13640179412855 128.2617225913452,92.992108987274 127.6784112440708,92.80483534421639 127.33456455522386,92.66361259703835 127.06363178468902,92.58686110398195 124.58686110380468,92.5623006260209 122.85074233086885,92.53467008842911 121.88981363775696,92.10793178726425 121.09313313983151,91.89609766647433 120.62341400232633,91.83469647180047 120.15369486482115,91.89609766647433 117.72681265442345,92.85088624005022 117.27858393492832,92.98903892732301 116.8694984769377,92.88158683727278 115.9285251720662,92.48554913296451 115.21243374184998,92.10486172749624 114.62144724531568,92.08951142879347 113.8454896505612,92.31976590796268 112.96822008492653,92.55309044689989 112.00959393665207,92.92149761366211 110.68409565152226,93.33595567616668 109.37011009039665,93.79032451492334 105.25930012229576,95.77358309550077 104.77116062645703,96.00997769411448 103.99520303170256,96.04067829152004 103.48403808794693,95.93322620105809 103.07572014484111,95.6906914831371 102.03573741392687,94.91703643312856 101.43323819347985,94.89554601498128 99.30722183581751,95.19334180794863 98.30791739617742,94.99378792618496 97.12057179859488,93.8179550523779 96.17345837432462,93.51401913996604 95.26011560690769,93.52936943866881 92.81251049343052,93.5447197371886 92.17470558604033,93.11798143593225 91.81167102388355,92.06802101064618 90.84460221141863,91.03034082470661 88.90585949676816,89.82073729400048 87.71007123494942,87.7423068620331 87.45755882279386,87.30328832184199 84.45350538456628,87.48442184540934 82.64370517829632,89.54136185922943 82.47254934882629,89.73784568149956 82.26915789218107,89.94046962321421 81.92684623314952,90.2689660135871 81.62137529078504,90.53606120946914 81.34430240089718,90.83385700243647 81.03576139876469,91.09174201906025 80.90298131582287,91.26673542332033 80.69268222480258,91.47856954411026 80.45398508139716,91.71189408295596 80.1653994675051,92.02811023443984 79.95356534666942,92.28906531069437 79.76322164388955,92.55616050657639 79.67725997171213,92.75264432884653 79.57134291124855,93.0135994052383 79.52682704527582,93.03201976361758 79.44240040291379,93.0688604803304 79.46465833590014,93.17017245102761 79.39404696228826,93.24999400389777 79.35567121576005,93.34823591510145 79.30117765569001,93.4679682441322 79.21675101337371,93.59691075246695 79.07169069145137,93.66752212607885 78.93277048906502,93.71664308168069 78.83683112274453,93.78725445529258 78.78540762239673,93.8947065454343 78.74319430116996,94.0297891733508 78.70865612934033,94.1034706067307 78.57971362095982,94.30609454817086 78.45230614248621,94.47494783298644 78.30571079079422,94.74511308849924 78.26272995463688,94.74818314831299 78.23126184248376,94.75739332757125 77.99947233354493,94.82493464136938 77.88895018345221,94.86177535808221 77.86208716088247,94.86791547752672 77.83445662338217,94.87405559697123 77.60343462928239,94.89554601498128 77.48753987481298,94.93238673164835 77.35475979177966,94.97536756766844 77.32022161990427,94.9784376274822 77.28798599282058,94.98457774678945 77.25575036573689,94.98457774678945 77.19741923101402,94.98150768711295 77.16825366365259,94.9784376274822 77.14062312615229,94.97229750803768 77.11376010358255,94.9600172692859 77.08612956608225,94.94159691076938 77.0584990286277,94.92317655257308 77.03470606573445,94.89861607461204 76.95411699802523,94.80037416368283 76.93262657996944,94.78195380521205 76.90806610223714,94.76967356646027 76.88120307962166,94.76660350650928 76.84973496746852,94.76660350650928 76.71234979489756,94.79423404423832 76.47442016642272,94.85870529826846 76.22728035882685,94.88633583572302 76.10601299979774,94.88633583572302 75.92641450604576,94.92624661220384 75.64550404145932,95.05825918016936 75.34233564384078,95.21790228590966 74.96932338758667,95.33763461507765 74.53107236223462,95.5095579594325 73.97308900776032,95.64771064684253 73.57858633340467,95.6692010649898 73.50797495979278,95.6692010649898 73.34142421986039,95.6692010649898 72.81183891781696,95.63543040809074 72.2584606528803,95.50341784012522 71.85551531433418,95.35605497331969 71.46715275942304,95.23325258442945 69.6941932698659,94.83414482062766 68.62274242679854,94.94773703035112 67.4469095531287,95.90559566346629 65.23800158296545,97.62175904829893 64.51423500344359,97.36387403153793 63.102775046182096,97.37615427042695 62.80804931284551,97.41606504709077 61.775741731236906,97.36387403153793 61.539347132623185,97.35159379278615 58.89602571171495,96.76521238592673 58.33266975268096,96.63933993726847 56.59348092002289,96.25251241230995 55.59187393563684,96.34461420379465 53.313889621768574,96.55337826495382 52.85414817831498,96.65162017602026 52.339913174837086,96.94941596926209 51.88170676129037,97.2779123593605 51.14796248767116,97.68009018315904 49.802508814438184,98.06077758849005 47.790852181429884,98.58882786076386 45.91581320601623,97.88885424418096 45.72546950332785,97.81824287056907 44.6770441080859,97.95025543853458 44.629458182390934,98.02700693159099 44.537356390723254,98.17743985816452 44.476722711208694,98.31252248580655 44.45139471850008,98.4690955317331 44.45292974836121,98.65636917474498 44.37541074041999,98.87741347465592 44.30940445634574,99.03705658021323 44.27256373972441,99.19055956632604 44.265656105303584,99.24889070118616 44.27793634419261,99.44537452345628 44.29405415773446,99.49756553855165 44.30786942653035,99.54054637470898 44.39076103903127,99.72782001772086 44.16818170912196,99.86597270540537 43.60712829487966,100.05017628851199 43.406806898048195,100.14534814003918 43.2072530160558,100.23437987203036 43.00539658931746,100.31727148453126 42.792027438666416,100.39402297758767 42.703763221605804,100.41244333578396 42.49192910081588,100.47077447064407 42.26397716639262,100.5321756649977 42.02911759764003,100.58129662059955 41.778907730321905,100.59971697879584 41.52486028825947,100.59971697879584 41.47420430288799,100.5782265607858 40.17633655530423,100.91900319004772 39.63523852921085,100.98654450402884 39.3834936320316,101.25056963995988 39.206197683025565,101.36109178991535 39.08646535394907,101.4716139401453 39.056532271611324,101.57599597051902 39.081092749343625,101.67730794153645 39.10795577195911,101.82160074825376 39.1263761302469,101.93212289848371 39.145564003511005,102.07948576501477 39.139423884066495,102.31588036376573 39.127143645223214,102.4233324539532 39.08186026427419,102.55534502191871 39.01969155489851,102.62288633599134 38.964430479943644,102.64437675386414 38.93756745732816,102.6535869331224 38.71882570211741,102.68121747057695 38.419494879197444,102.69656776927974 38.23068620627869,102.76103902340137 38.06950807095174,102.88691147192236 37.9681961000258,102.9790132635443 37.826973352802014,103.05576475660071 37.69496078479075,103.07418511511723 37.49924447749693,103.10181565270904 37.33576379724104,103.16628690683066 37.22907922189265,103.23996834011906 37.14004748994722,103.37812102752909 37.07250617605759,103.50706353600108 37.0134075264499,103.6145156261428 36.92974839897268,103.74959825405932 36.888302592767964,103.83248986642299 36.77394286811393,103.78643897077214 36.725589427488394,103.78336891082114 36.59127431463969,103.94301201637846 36.513755306606974,104.02590362887938 36.39555800730012,104.12721559989681 36.29501355139623,104.18554673443668 36.10006475903297,104.26229822749309 35.958842011900686,104.32983954161146 35.85522749618305,104.40045091522336 35.75007795074153,104.50790300522783 35.67255894270881,104.60921497624527 35.648765979861324,104.65526587189612 35.6172978677082,104.68596646930168 35.59503993472185,104.6982467081907 35.56817691219785,104.70745688744896 35.454584702428626,104.72587724564525 35.43155925451171,104.73201736495253 35.39164847816813,104.7535077830998 35.347132612195416,104.7934185594434 35.33101479865357,104.81797903740443 35.32026958957992,104.91008082898063 35.29494159687131,104.98683232203702 35.2696136041627,105.0236730386126 35.20360732017994,105.08507423324072 35.030148945826724,105.232437099909 34.93804715420479,105.28155805523636 34.717770369132914,105.39208020546631 34.509773822950066,105.5302328929221 34.321732664916134,105.66531552051838 34.29333461248527,105.67759575954464 34.264936560054394,105.68987599847941 34.234235962877584,105.69908617769192 34.20353536560928,105.7052262971822 34.17053222364077,105.7052262971822 34.13599405181114,105.7052262971822 33.886551699377826,105.69294605824741 33.856618617040084,105.69601611792392 33.82591801977178,105.7021562372312 33.67318254858954,105.76355743172206 33.648622070811484,105.77276761098032 33.51814453266135,105.80039814843488 33.45597582323992,105.78811790968311 33.36003645691942,105.75434725260104 33.19578826187021,105.66531552051838 33.12210682849032,105.61005444560926 33.067613268420274,105.65610534158034 33.038447701058836,105.67452569977664 32.97320893191515,105.7021562372312 32.94481087948428,105.71750653593396 32.82431103543148,105.83109874565744 32.796680497885426,105.86793946223302 32.77826013955189,105.88328976079856 32.75369966181959,105.89864005963858 32.72913918399579,105.90785023871385 32.7022761614718,105.90785023871385 32.57717122774412,105.90785023871385 32.30854100204671,105.92320053741662 32.06140119440509,105.9139903582041 32.03070059722828,105.90785023871385 31.951646559380187,105.88942988024307 31.691458997873234,105.83723886514771 31.65231573641447,105.83723886514771 31.49037008611121,105.83723886514771 31.33763461492897,105.85872928329499 31.30156141319246,105.85872928329499 31.26395318159482,105.85258916380474 31.048281486060585,105.77276761098032 31.012208284324075,105.76355743172206 30.973832537795875,105.75741731227755 30.78962895446051,105.74513707352577 30.755090782630877,105.74820713315653 30.66605905068545,105.76662749153581 30.4388746312385,105.84337898459222 30.40817403397019,105.85258916380474 30.377473436793377,105.85258916380474 30.34907538436251,105.84644904436023 30.29688436903841,105.82802868588944 30.270788861399232,105.82495862621293 30.24546086869062,105.82188856658217 30.172546950332784,105.82188856658217 30.13263617389771,105.82802868588944 30.09809800202233,105.83723886514771 30.067397404845515,105.84951910403673 30.042836927021717,105.855659223344 29.623006260048946,105.94776101510318 29.114911376015563,106.21178615117145 28.956803300273627,106.38370949575503 28.84014103091939,106.52186218316507 28.817115582956724,106.58019331775068 28.79869522457744,106.62931427335253 28.721943731521037,106.73676636381448 28.589931163509775,106.90868970812359 28.481711558300248,107.06526275405014 28.26680737774232,107.32007771086015 28.12251457075054,107.61480344433397 28.026575204430035,107.9586501332724 27.87307221831723,108.10294294012695 27.70652147838484,108.24723574698149 27.535365648960557,108.39459861364978 27.39951550615923,108.5542417192071 27.289760871088575,108.70160458587539 27.255990214189506,108.73537524277445 27.17616866141085,108.78756625819005 27.0449236082844,108.86124769143271 27.00347780203394,108.87352793032173 26.92135370450934,108.89501834846902 26.707217038790482,108.96562972194366 26.49077782837143,109.07615187217363 26.29045643153997,109.20202432069462 26.089367519732196,109.32482670958487 25.867555704753446,109.47832969569767 25.809992084961145,109.55508118875407 25.770081308663308,109.59192190542115 25.745520830793765,109.60727220412392 25.71942532315459,109.62262250255222 25.68949224090834,109.63797280125499 25.658024128755216,109.65025304000677 25.415489410651237,109.6932338761641 25.350250641599043,109.70551411505312 25.132276401273113,109.80375602611957 24.928884944719396,109.92962847477781 24.73930875687008,110.06471110269433 24.528242150964974,110.18444343190806 24.30336027626397,110.25505480533697 24.062360588158363,110.31645600001083 23.789892787762387,110.30724582061532 23.525100136763548,110.28882546241903 23.24802724673844,110.28882546241903 23.013935192916417,110.34101647751439 22.77447053458044,110.3471565969589 22.744537452334193,110.34408653746539 22.57414913774898,110.28882546241903 22.326241815131052,110.25812486501347 22.29323867316255,110.26119492496447 22.262538075894238,110.26733504440898 22.24028014290788,110.27654522348425 22.21341712038389,110.29189552204978 22.112872664434256,110.35943683598516 21.92713405123776,110.4760991054309 21.74216295297183,110.59583143464464 21.563331974150415,110.73091406224091 21.312354591855982,110.91204758608276 20.90940925330987,111.21598349854037 20.752068692589994,111.40018708173848 20.771256565854095,111.65193197891773 20.80809728247542,112.00805890674519 20.79428201372527,112.1431415346617 20.727508214766196,112.2168229680416 20.67454968460303,115.38819466104063 19.779627275565378,115.83335332067627 17.134003309865452,116.95699517906775 14.793082771645189,118.16659870977388 13.74926246607812,117.44206461532144 13.343247067809754,117.23944067346956 11.693089967097109,116.27851198044915 10.482718921643396,115.67064015557969 9.554025855615183,115.2500419736306 6.020387115298432,113.46940733463057 5.384117237860858,112.91679658453299 4.397093037201275,112.39488643184094 3.8322020482604082,112.05410980271627 3.7132372340687327,111.93437747350254 3.6157628378413547,111.82999544299157 3.598877509368946,111.79929484558603 3.586597270479922,111.76552418868695 3.578154606289465,111.72868347197414 3.578154606289465,111.54754994840678 3.628810591660943,111.36334636520866 3.7055620847173447,111.24975415543943 3.7523804954817503,111.06248051242756 3.767730794138778,110.86906674978819 3.799198906291903,110.68179310691355 3.8536924663619483,110.50065958307171 3.8782529440942497,110.44846856797633 3.8889981531678934,110.41469791107727 3.8859280934456373,110.38092725413246 3.869810279903793,110.3502266569099 3.7961288465696468,110.23356438750992 3.7761734583292346,110.21821408880713 3.7708008538610343,109.33096682902938 4.028685870484797,108.80598661638635 4.766267718756821,107.8020770872086 5.196843594848985,107.29551723321934 6.477058498984024,107.03149209696808 6.83318542676573,106.03372268723486 6.9176120691735195,105.79732808862113 7.00127119655925,105.76662749153581 7.184707264964051,105.67759575954464 7.434149617397358,105.51488259435656 7.630633439667495,105.35216942884826 7.814069508026548,105.18331614416992 7.943012016361304,104.97455208301075 8.015158419834322,104.78420838050536 8.125680569881288,103.92152159836841 8.131820689280053,102.85621087483705 8.167126376085998,102.79480968048343 8.191686853864047,102.76103902340137 8.299138944188757,102.61367615677882 8.359005108727002,102.44175281214949 8.39661334032464,102.25754922908861 8.436524116759717,102.0180845705239 8.446501810857049,101.73256901644558 8.446501810857049,101.50538459690713 8.45264193030156,101.33039119296727 8.448804355648742,101.1676780275962 8.405056004652339,101.04794569824523 8.361307653518695,100.94970378717878 8.360540138588131,100.86988223462886 8.401985944838588,100.7593600844904 8.519415729260631,100.6089271580541 8.62226272995621,100.50454512754314 8.82642170148624,100.40937327629044 9.024440553571756,100.33262178323405 9.195596383041785,100.25587029017764 9.369054757349254,100.16683855818647 9.494927206007501,100.05324634846299 9.52332525843837,99.96114455670381 9.564771064688827,99.89053318309192 9.541745616726159,99.80150145128374 9.537908042073338,99.6940493608218 9.535605497281647,99.58966733017358 9.518720168809239,99.51291583711718 9.463459093854377,99.4423044635053 9.384405055960535,99.38090326915167 9.306886048065063,99.3471326122526 9.177176024708249,99.29187153734348 9.07049144935985,99.23661046229712 8.978389657692167,99.18441944688153 8.973784568154532,99.11687813308339 9.031348187946833,99.03091646076872 9.068956419498722,98.93267454970228 9.049768546234622,98.80987216085778 8.995274986164576,98.66864941349677 9.009090254960476,98.52742666627299 9.052071091026313,98.36778356071567 9.042860911859545,98.01165663302545 9.048233516373493,97.87350394547818 9.05514115074857,97.76298179565995 9.023673038595446,97.64938958575348 9.0405583671136,97.48974648019617 8.97301705317822,97.24107164283068 8.976854627876786,97.09063871634864 8.923128582783052,96.96476626769038 8.769625596670249,96.86959441643769 8.665243566022047,96.74986208708671 8.656800901831591,96.60556928036941 8.699781737897428,96.42750581629556 8.764252992064806,96.29242318869929 8.753507783082657,96.2126016356919 8.60460988650749,96.21567169564288 8.455711990023817,96.26172259129373 8.29146379483737,96.27093277068924 8.212409757035022,96.20953157601538 8.231597630299122,96.13278008295899 8.357470078865875,96.00076751499347 8.451874415370996,95.8626148274462 8.543976206992932,95.73367231929443 8.693641618452915,95.59858969124068 8.84560957475034,95.49113760119045 9.090446837554515,95.32842443586513 9.204806562208553,95.21176216628216 9.209411651791937,95.10738013590844 9.151080517069072,94.9569472093349 9.176408509777685,94.86791547752672 9.22936704003235,94.7850238650258 9.237042189292243,94.71134243160016 9.25239248794927,94.62845081909926 9.31839877193203,94.61003046090296 9.393615235127303,94.62538075942274 9.470366728183706,94.62845081909926 9.534837982351084,94.56090950530111 9.573213728879283,94.45345741483916 9.624637229227073,94.34600532483468 9.725181685176707,94.23855323437273 9.852589163650334,94.16180174131632 10.006859664693703,94.07277000950815 10.114311754926918,93.98066821774897 10.148082411871735,93.84865564978345 10.100496486176766,93.73506343987698 10.060585709833184,93.621471230245 10.036025232100883,93.5170891995968 10.00762717957852,93.3942868107523 9.956971194161294,93.30832513843764 9.900175089299557,93.25613412334228 9.844914014298947,93.15175209283132 9.811143357399878,93.05658024125839 9.73515937927404,92.9153574942176 9.66608303547753,92.75264432884653 9.725949200061525,92.60221140236449 9.826493655965411,92.43028805791815 9.950063559786217,92.27678507180535 10.014534813953595,92.11407190670876 10.03449020214826,91.96363898013523 10.075936008398717,91.81627611346693 10.16420022541358,91.64435276915783 10.259372076849266,91.51848032049959 10.349938838610072,91.46628930508399 10.516489578542465,91.40181805105385 10.630849303287999,91.38646775253407 10.774374595257724,91.42023840943314 10.886431775120071,91.38953781202758 10.841148394216793,91.37418751346206 10.628546758404813,91.24831506494105 10.415177607708015,91.10095219831851 10.246324323029677,90.9535893316502 10.084378672634921,90.80315640530542 9.94469095527227,90.65272347886912 9.794258028881721,90.47773007460903 9.64536013239805,90.29966661067243 9.514882594156418,90.1338833856706 9.369822272325566,89.9650301011295 9.209411651791937,89.83915765233401 9.038255822367656,89.72249538293403 8.854052238940795,89.6027630537203 8.66984865565118,89.49531096357858 8.477202408033863,89.37250857455109 8.28762622018455,89.26198642459562 8.0988175472658,89.14225409538189 7.903101239971974,89.05322236343646 7.2729714820704086,89.20672534954926 7.114095891352161,89.37557863436484 6.964430479892177,89.47382054556853 6.117093996549499,89.51987144121938 5.895282181616496,89.40934929126391 5.727196411868723,89.28654690255665 5.542992828487611,89.1514642745029 5.38641978265255,89.02252176630539 5.328856162860249,88.6203439425526 5.330391192721377,88.58657328565353 5.325786103137993,88.55587268852247 5.315808409132155,88.52517209129991 5.30045811042938,88.49754155384535 5.280502722280463,88.4699110163908 5.10474180322705,88.33175832879778 5.063295996885097,88.31640803027798 5.0164775861206925,88.30412779120597 4.968891660425723,88.29798767176146 4.919003189984809,88.29184755231695 4.8691147194524005,88.29184755231695 4.5889717698422805,88.30105773157521 4.337994387502098,88.30719785088247 4.193701580556062,88.30412779120597 4.0701316767352544,88.26728707467615 3.946561772960195,88.23351641777707 3.851389921524509,88.18746552180599 3.8275969587227716,88.17825534268496 3.638020770827711,88.04010265527494 3.4737725757785056,87.88352960939413 3.3302472836715387,87.71160626490204 3.302616746171234,87.68704578712399 3.043196699640595,87.52740268156668 2.972585326028705,87.50591226355664 2.7001175256784777,87.44144100925202 2.4376274195170775,87.41995059124197 2.1805099176866354,87.42302065105572 1.9141822367809205,87.4353008898075 1.6478545558752051,87.50591226355664 1.2495143069124783,87.30942844114925 1.014654738159888,87.19890629133103 0.530352816973991,86.84584942313433 0.18036600863679744,86.5818242872033 0,86.38534046479592 0.018420358287789044,86.2809584344222 0.21720672534961788,85.15424651626273 1.2456767322596582,82.62758736470873 1.362339001751137,82.24689995937771 2.048497349629624,81.51929580515727 3.1675341183919663,80.66581920227858 3.680234092008732,80.18995994537464 4.612764732644018,78.08389897581547 5.030292854916592,76.96639723700575 6.050320197636176,74.34456623406182 6.055692802104376,74.31693569660726 6.247571534745382,73.07356150927653 3.7232149282118123,70.53769217864726 2.403856762480766,68.9474012426101 2.1651596191211024,68.6127647327927 1.425275226011639,67.49526299384574 1.792147362821241,67.12992588676002 2.1122010888664375,66.82598997448541 2.5972705250286463,66.47600316610246 3.3079893506851823,66.00321396887503 4.354112201043942,64.96860384242898 4.5958794042173565,64.58484637714697 4.7378696663259525,64.15810807570763 4.85376442084112,63.765140431304594 4.942028637855983,63.40287338416987 5.1154870121634515,63.01911591888786 5.5598781569600195,62.577027318928735 5.873791763560703,62.41124409388116 6.0295972944652,62.33142254105675 6.46861583474782,62.205550092398504 7.542369222606885,61.99064591193207 8.2438778691424,61.92003453832018 8.45954956463089,61.886263881421115 8.74583263373127,61.84021298531279 9.482646967118477,61.77267167151465 10.284700069557879,61.692850118781735 10.34226368935018,61.68363993970647 10.97162593236693,61.579257909195505 11.78212169913403,61.47794593817807 12.520471062290872,61.42268486313171 13.238865037253047,61.41347468414793 13.858249586218212,61.40426450493541 14.643417360230952,61.318302832620745 15.4669608806804,61.22006092141706 15.78778212165616,61.16479984650795 16.18688988554945,61.09418847289606 16.94365960717707,60.8915645311814 17.569951790471563,60.71964118687231 18.227712085919183,60.53850766330495 18.900822680115322,60.34509390084856 19.577770848827043,60.182380735477494 20.284652099876507,60.050368167374735 20.927829611689155,59.94291607705002 21.564867004011543,59.82625380765004 22.201904396379682,59.68810112024001 22.80670616166413,59.546878372878986 23.309428441183563,59.3810951480144 23.7246540186187,59.178471206299754 24.066198162719687,58.978917324215864 24.406974791935863,58.810064039720515 24.77691698842197,58.68419159106227 25.22591322284767,58.598229918747606 25.70253999472793,58.58594967999582 26.05175928808881,58.595159858933854 26.235195356493612,58.62279039652565 26.47619504473646,58.65656105360772 26.886815532542464,58.74866284504666 27.320461468356882,58.88681553277692 27.790948120792628,59.03110833963146 28.171635526352382,59.12935025069791 28.268342407557704,59.153910728338715 28.741899119715704,59.25829275912416 29.14637948816869,59.28285323681071 29.679802364864937,59.27364305755245 30.150289017346427,59.215311922829585 30.599285251680634,59.13242031032867 31.1204278895336,59.09250953398509 31.603962295788936,59.09250953398509 32.13431511280867,59.0710191158378 32.65162017605457,59.01575804092869 33.155109970458824,58.95742690634306 33.597198570463696,58.908305950603975 34.00474899863894,58.85918499513937 34.472165591306684,58.797783800785744 34.77610150381003,58.78550356175948 34.88048353441249,58.77936344231497 35.2396805218707,58.78857362157323 35.6280430767361,58.84383469661959 36.00259036289709,58.905235890973216 36.47230950035652,58.92365624916951 36.92207324966704,58.871465234074144 37.33576379724104,58.782433502082974 37.74101168057884,58.650420934117456 38.510061641049745,58.49691794800465 38.546902357671065,58.493847888236644 39.04655457746824,58.447796992265566 39.64751876809987,58.493847888236644 40.22776005565202,58.68726165055579 40.9791571726742,58.74866284504666 41.68680593860848,58.650420934117456 42.58710095220582,58.487707768792134 43.23104597899478,58.340344902123846 43.48739596571167,58.180701796566524 43.57182260807371,57.922816779942764 43.82817259492784,57.61581080771715 44.48977046502828,56.780754563172 44.7783560789661,56.470678531315635 45.04468375982607,56.18516297710007 45.537428345248166,55.942628258996095 46.28805794738553,55.890437243626245 47.42628258941197,56.016309692284494 48.15542177344779,56.016309692284494 48.8538603602153,55.89350730357724 49.27062096751157,55.819825870014355 49.9567793154358,55.62641210769521 50.42726596787155,55.334756434035135 50.59842179743307,55.20581392556314 50.96222387447467,55.11064207431044 51.1088192262124,55.11985225352296 51.4565034897579,55.14134267139576 51.80035017865058,55.26721512019125 52.20866812171064,55.491329479778706 52.89712901442657,55.81061569103058 53.41366656269615,56.228143813257404 54.29630873284477,56.80224498131929 55.09145420095485,57.25047370063144 55.62948216728022,57.37941620910344 56.208955939810316,57.394766507623224 56.70246804016298,57.34564555215862 57.3164799846142,57.11539107298941 57.675676972163906,56.91583719081403 58.00877845202869,56.68558271164483 58.149233684321906,56.59041086052937 58.37488307386198,56.439977933910086 58.6903317103238,56.261914470156476 59.073321660720985,56.07771088663812 59.397212961373256,55.942628258996095 59.67658839609856,55.813685750569846 59.92296068880961,55.66939294385254 60.143237473881484,55.47904924088968 60.312858273536136,55.261075000609495 60.448708416291716,54.99704986440398 60.57458086485846,54.72074448958392 60.688173074627684,54.40452833810005 60.76108699298552,54.04533135073333 60.81788309784726,53.68306430332412 60.894634590903664,53.41596910762509 60.97445614368232,53.136593672991275 61.03048473365924,52.89098889511929 61.10109610727113,52.66994459520835 61.2200609214628,52.45811047423544 61.37049384785335,52.31995778682541 61.48178351283089,52.2616266519653 61.606888446467075,52.19408533816716 61.87858873188674,52.092773367149725 62.20555009230701,52.02830211311959 62.548629266269124,52.00067157552779 62.633055908676916,51.99453145608328 63.023721008288256,51.997601515897024 63.45506439935673,52.037512292240606 63.915573357695145,52.062072770201645 64.31468112154269,52.06514282969517 64.67618065383834,52.0804931282607 65.12440937333348,52.117333845110764 65.40685486768955,52.17873503946439 65.49895665935722,52.19715539793517 65.89269181873657,52.3107476074299 66.34245556809283,52.445830235483655 66.68399971219382,52.5624925047464 67.19362962604258,52.70371525210742 67.53210371046706,52.792746983915606 67.66948888303801,52.82651764081467 68.05017628859777,52.924759551881124 68.48305470939013,53.01072122433303 68.90442040636128,53.096682896464706 69.24903461013878,53.15501403105033 69.43707576808121,53.182644568642125 69.68498309065339,53.2164152255412 70.06720552607428,53.22255534498571 70.52617945455155,53.19492480766839 71.002038711547,53.1243134340565 71.47559542375075,53.05370206049036 72.34442232510347,52.84800805882472 72.58158443864775,52.746696088264756 72.67829131985307,52.70678531160094 72.9177559782348,52.54407214655011 73.0658863597879,52.38135898117904 73.1833161442557,52.19715539793517 73.35754203340223,52.0037416352043 73.4573189744213,51.850238649091494 73.67452569972517,51.672175185475126 73.94085338067663,51.49718178121503 74.21869378554081,51.34367879510223 74.57328568346139,51.17789557005465 75.039167246268,51.03974288250738 75.51042141368006,50.94764109088545 76.03923920079292,50.88009977695007 76.492840524802,50.86781953819828 76.99940037892851,50.86474947824729 77.25268030601464,50.88623989639458 77.49137744942004,50.90466025491111 77.83675916817386,50.97834168801651 78.2473796560256,51.150265032462855 78.59045883003347,51.355959033991255 78.91435013068575,51.662965006216865 79.18835296094285,51.93313026159241 79.43319022374702,52.233996114373504 79.64886191928126,52.537932026922604 79.88218645817273,52.823447581321155 80.12932626586009,53.11510325484399 80.41023673040077,53.38219845054303 80.71724270262638,53.61859304933974 81.01887607029228,53.808936752119614 81.32511452763308,53.94708943952964 81.62291032064617,54.0576115896681 81.99054997247784,54.15892356022807 82.33516417625533,54.23567505328447 82.75115726862103,54.28172594939279 82.86244693355282,54.303216367219854 83.16945290577841,54.34926726319093 83.51406710955592,54.36154750194272 83.89628954502255,54.37996786027625 84.20713309185523,54.40145827842354 84.46655313838586,54.41680857698908 84.7474636029723,54.4352289355056 84.99153335089166,54.462859472960155 85.26937375575584,54.511980428562005 85.57561221305087,54.594872041062914 85.68229678839927,54.628642697961986 85.89489842421126,54.69618401162288 86.18578658289502,54.7790756241238 86.51121291340841,54.85275705768668 86.86043220686079,54.98169956583845 87.11447964883173,55.13213249245773 87.2817979036947,55.264145060423246 87.45372124814104,55.39308756857501 87.66171779432389,55.491329479778706 87.93725565439637,55.52510013667777 88.2204686637745,55.52203007704701 88.52286954646246,55.512819897788745 88.75389154056224,55.49439953959245 89.05245484850589,55.47597918121317 89.35869330589243,55.45755882274239 90.01875614608599,55.371597150564966 90.22214760277696,55.331686374221384 90.42016645481672,55.26721512019125 90.60129997838409,55.1659031493568 90.72179982248264,55.058451058894846 90.84153215169637,54.9356486701876 90.97661477947564,54.812846281297354 91.17847120616823,54.71153431032566 91.45784664089354,54.628642697961986 91.54994843256121,54.61329239912197 91.82471877770314,54.570311563101875 92.3650492888202,54.52426066731378 92.86009641907975,54.508910368611005 93.27225193679263,54.49970018962723 93.70896793223781,54.487419950600966 94.0673974048112,54.493560070045476 94.39666131002316,54.53347084638906 94.78348883502744,54.59794210055644 95.036001247183,54.65320317574003 95.32842443577364,54.705394191018385 95.6054973256615,54.71460437009366 95.80351617774701,54.680833713057346 96.00921017913818,54.58259180212814 96.1504329264077,54.45671935333265 96.24099968816851,54.29400618814458 96.29319070344687,54.15585350073455 96.40831794303146,54.01463075351077 96.57870625766243,53.90717866304882 96.86422181183224,53.81814693110339 97.11519919408093,53.78130621439057 97.69544048163307,53.69227448244514 98.06001007365099,53.64622358679429 98.38850646388664,53.624733168784246 98.82215239965531,53.615522989388744 99.23737797709045,53.60324275063696 99.60118005422355,53.5940325713787 99.89820833235181,53.5756122131824 100.3464370518012,53.551051735221364 100.72712445736096,53.52342119776681 101.07480872086072,53.50807089933851 101.24749958023762,53.50500083957051 102.03880747364913,53.44973976452415 102.90456431537109,53.37605833109851 103.87547070248883,53.311587077114126 104.65219581221962,53.29009665910408 105.35830954833851,53.28088647970858 106.05751565012808,53.30851701716313 106.49269661575788,53.363778092209486 106.73676636363149,53.379128390912264 107.369198666462,53.498860720126 107.87268846086624,53.60324275063696 108.59722255536443,53.66464394499059 109.10071234976868,53.64929364642505 109.6302976519036,53.63701340753603 110.399347612283,53.38526851021953 110.67795553207775,53.173434389521105 110.91204758594552,53.00151104493752 111.15995490847195,52.74976614775827 111.34953109632126,52.553282325488134 111.56443527692494,52.40591945895709 111.86760367445197,52.313817667380896 112.10937087757964,52.28311706997535 112.59597534355723,52.28004701043608 114.05195116683717,52.1848751589089 114.50171491614769,52.12654402432328 114.80334828385935,52.08663324770521 115.18250065955797,52.04058235205436 115.50869450504769,51.97918115770074 115.9477130453303,51.89935960469334 116.3330055405192,51.8072578130714 116.68145731899526,51.709015901867716 117.07672750818998,51.589283572928466 117.3783608759474,51.463411124132975 117.47737030199015,51.411220108900366 117.7759336100253,51.25157700348029 117.98700021593041,51.02746264361836 118.11364017938197,50.74501714930804 118.1512484109796,50.407310579859875 118.17504137387284,50.12179502564431 118.1704362842437,49.49550284225832 118.17120379917428,49.21612740767026 118.17350634396597,48.964382510353765 118.17350634396597,48.703427433779005 118.2111145755636,48.42098193946869 118.35617489744021,47.816180174138495 118.63938790690982,47.35567121580008 118.89573789362672,47.22365864769732 119.17971841798115,47.125416736630875 119.37389969541384,47.119276617186365 119.59878157011485,47.12234667700012 120.07847840171736,47.05173530338823 120.48909888947762,46.97498381033182 120.82296788431871,46.84911136167358 121.02098673640424,46.6618377186617 121.10234331899827,46.53903532963422 121.25891636483333,46.296500611575986 121.31801501448676,46.167558103241234 121.39016141795977,45.986424579811114 121.37020602981086,45.57810663661381 121.41779195550583,45.26803060471169 121.5229415009931,44.99172522961715 121.58894778497586,44.77682104915072 121.96963519053561,44.39920370331322 122.16918907252801,44.27947137409949 122.5598541721851,44.07991749233583 122.90984098047655,43.87115343117667 123.3373467968007,43.68694984765832 123.87997985275521,43.39529417413548 124.3995874607013,43.20188041163335 124.91766003883203,42.94706545454885 125.36742378818828,42.80584270732507 125.92694217256945,42.80891276727606 126.57088719926692,42.82119300602785 126.79883913364444,42.81505288658334 127.1664787853846,42.851893603433396 127.59705466143102,42.836543304730625 127.73904492358535,42.833473245054115 127.98388218652677,42.836543304730625 128.16885328474694,42.842683424037894 128.53419039164967,42.80891276727606 129.08833617151691,42.630849303202226 130.0684527378929,42.34533374898666 131.08233996116797,42.18262058393582 132.52373300072148,41.95236610476662 132.67416592715776,41.92780562680558 134.1700525267813,41.74360204356171 135.50399347610156,41.194061353140626 136.60691243132206,40.65680090174581 137.27848799556557,40.23006260058096 138.46276353347162,39.48096802825898 139.82894010987556,38.6336315448248 140.61794545849537,38.041110018383634 141.11299258866342,37.48849926842328 141.37855275463858,37.25824478925408 141.55891876336688,37.12930228110231 141.63183268177045,37.08325138526847 141.89969539249154,36.908257981008376 142.18521094670712,36.70256397952573 142.46381886650184,36.49072985869006 142.70558606958377,36.25433526007634 142.8713692945856,36.06092149761995 143.09164607965747,35.821456839192486 143.3587412755395,35.520590986548626 143.57671551581967,35.330247283906 143.71103062866837,35.207444894741265 143.86453361478118,35.06622214765473 144.14390904946075,34.878948504505615 144.53303911930246,34.68246468237272 144.8853284723856,34.53203175593642 145.1002326529435,34.403089247784656 145.32511452759877,34.17590482810897 145.48092005850327,34.01933178250265 145.56150912621248,33.92722999074347 145.7157796273016,33.7338162281041 145.89154054640076,33.51277192805591 146.14635550330226,33.199625836385785 146.32748902700686,32.95402105865105 146.45105893078193,32.736046818370866 146.55697599119978,32.48123186142361 146.63142493941874,32.247907322715136 146.72122418629473,32.03607320178798 146.80258076893452,31.870289976923388 146.87472717240752,31.790468423915993 146.95454872518619,31.67687621414677 147.10114407696966,31.517233108589455 147.2439018540088,31.397500779650205 147.50178687067833,31.167246300480997 147.71822608114314,30.943131940756306 147.89552203005766,30.749718178025432 148.10735615089334,30.464202623947113 148.30691003288572,30.233948144777905 148.44506272034153,30.126496054453195 148.5977981915695,29.96992300870963 148.96006523874996,29.69975775319684 149.14733888185333,29.561605065741066 149.44052958528306,29.37126136296119 149.68613436306353,29.20854819745288 150.05454152973425,29.0673254502291 150.24795529228214,29.02127455457825 150.63171275756415,28.932242822632823 150.9816995658556,28.849351210086162 151.25109730648356,28.763389537954485 151.47828172597627,28.701988343463615 151.61720192836262,28.668217686381556 151.91269517662977,28.57918595443613 152.23658647737352,28.453313505777885 152.3778092245973,28.391912311424257 152.52824215098784,28.348931475266923 152.79687237668526,28.241479385125203 153.03403449018379,28.13402729466325 153.49147338879996,27.80860096437859 153.7186578082469,27.532295589101057 153.8076895401923,27.38186266293925 153.84913534653427,27.24985009483649 153.87599836901254,27.130117765622753 153.94737725760072,26.835392032148928 153.9542848919758,26.565226776773383 153.97270525030933,26.20909984894593 154.00954596693066,25.831482502971188 154.05866692248676,25.34027294763895 154.07401722109805,25.21747055851997 154.12697575135272,24.85520351138525 154.18914446068266,24.37013407522304 154.25361571485,23.888134699057574 154.2904564316086,23.43376586016367 154.28585134193372,23.286402993358138 154.2766411628127,23.080708991829738 154.2497781401972,22.739932362705062 154.24363802075268,22.42678627103494 154.24670808047495,22.04302880575293 154.27203607318356,21.610150384869073 154.3058067301741,21.17420190444595 154.33420478260498,21.048329455970695 154.36030029024417,20.854915693194076 154.3894658576056,20.593960617076796 154.46544983573145,20.31765524179926 154.5905547694134,20.032139687720942 154.71412467318842,19.765044491838914 154.82848439784246,19.6054013862816 154.9152135849962,19.42426786285148 155.1032547429844,19.175593025211494 155.3718849686818,18.926918187845995 155.5944642985911,18.770345141782197 155.91221547979887,18.58614155867557 156.03962295831823,18.52167030455394 156.1294222051485,18.481759528027368 156.4748039239023,18.337466721035586 156.6966157388353,18.187033794736532 156.84014103085076,18.07344158496731 157.08497829374645,17.89537812116795 157.23771376488293,17.790996090519748 157.29834744439748,17.754155373989917 157.3259779818978,17.738805075287143 157.708967932295,17.5177607753762 158.02211402396512,17.373467968201428 158.28383661528744,17.262945818245957 158.64687117739848,17.14321348903222 158.93622430626687,17.0633919364823 159.0613292399488,17.02348115995573 159.08358717293515,17.017341040373974 159.408245988518,16.912959009863016 159.6576883409513,16.839277576620365 160.0967068812339,16.725685366851142 160.58561389200318,16.618233276526432 160.88340968506202,16.55069196259105 161.08987120138374,16.495430887681934 161.5150744729162,16.384908737726462 161.84280334826707,16.29587700591828 162.15134435035378,16.206845273927105 162.48751588994082,16.114743482213676 162.70856018994328,16.056412347353568 162.79298683235106,16.02878180989901 162.94955987818614,15.979660854297165 163.23200537267942,15.881418943230718 163.4208140455067,15.841508166887136 163.6740939725928,15.74940637512796 163.9051159666926,15.684935120960581 164.143813110098,15.638884225309729 164.27736070806188,15.626603986420706 164.4761470750322,15.61125368771793 164.66802580767322,15.583623150263373 164.83304151779024,15.571342911328601 164.86220708515165,15.568272851560598 164.88523253306857,15.568272851560598 165.00496486219083,15.559062672302334 165.26591993867407,15.577483030818861 165.34113640177787,15.589763269707886 165.37183699900044,15.592833329475889 165.8415561365971,15.706425538970626 166.26752692296864,15.761686614016984 166.88844650179493,15.813877629432579 167.43798719207877,15.823087808645095 168.037416352895,15.681865061467063 168.64375314799486,15.546782433413311 169.32837646605796,15.460820761235887 169.8372388650219,15.448540522346862 170.39445470465714,15.50687165720697 170.93094764107562,15.583623150263373 171.2563739716348,15.641954284940491 171.74911855705687,15.694145300218844 172.21193006027846,15.773966852906007 172.77451850433616,15.936680018139832 173.28798599283775,16.077902765500856 173.61417983832746,16.102463243278905 174.19672367067128,15.964310555731632 174.5474779938933,15.85071834596241 175.02794234042636,15.608183627904179 175.6864701508503,15.202935744749366 176.1277912359246,14.905139951507536 176.68654210537522,14.509102247473743 177.05111169739314,14.331038783399901 177.40647111024427,14.226656752888942 177.86851509848955,14.171395677842584 179.87019403740052,13.873599885012482 179.91777996304975,13.864389705616977 180.24090374886296,13.815268750152374 180.5824478929182,13.802988511263349 180.90480416375507,13.79684839195608 181.27090878567986,13.815268750152374 181.63547837769778,13.839829228113413 181.94248434992338,13.86745976556797 182.29093612839944,13.879740004319752 182.60177967527787,13.89816036279053 182.77447053465477,13.919650780663334 183.05307845449528,13.959561557144157 183.2426546422531,14.01789269172978 183.47137409160692,14.033242990432557 183.7545871009393,14.039383109877068 183.96872376656665,14.051663348903334 184.17748782768007,14.063943587838107 184.53207972560065,14.057803468347847 184.8567385413207,14.051663348903334 185.24740364088632,14.039383109877068 185.5782025759594,14.011752572285268 185.94430719783844,13.974911855846933 186.29429400617562,13.956491497376154 186.6627011728921,13.916580721169815 186.92902885384356,13.76307773505701 187.26673542320026,13.511332837740516 187.5238529250307,13.235027462600227 187.6481903437363,13.026263401441065 187.75564243396954,12.771448444631053 187.83623150172448,12.467512532036206 187.87614227806807,12.301729307034378 187.9490561965174,12.046914350224364 187.9897344878373,11.92411196119688 188.04422804790735,11.798239512538633 188.07032355554654,11.614035929477753 188.0611133764255,11.429832345959397 188.0089223611014,11.211858105816457 187.965174010105,11.043004821000878 187.96824406978152,10.880291655812801 188.13249226487648,10.511884489096323 188.34893147538702,10.25399947247256 188.65900750728912,10.023744993303353 188.81327800828674,9.943923440295958 188.95833833016334,9.882522246079574 189.1049336819011,9.836471350245732 189.44954788572431,9.787350394506646 189.80567481350602,9.729019259966769 190.0389993523975,9.70138872237497 190.32067733191448,9.698318662561219 190.6276833041401,9.747439618163064 190.75432326768316,9.784280334875884 191.04367639655155,9.925503082236906 191.26165063683172,10.103566545853274 191.45352936947273,10.349171323725256 191.59782217641876,10.622406639051794 191.70297172190604,10.877221595861808 191.77818818505557,11.110546134982007 191.8779651260289,11.389921569615815 192.0138152688302,11.647806586376822 192.27170028545396,11.75832873619505 192.6285947281205,11.835080229251453 192.83428872951166,11.878061065546028 193.12824694791766,11.838150289202446 193.44906818893918,11.739908377998757 193.704650660817,11.64166646693231 194.03928717049718,11.491233540313024 194.28489194827765,11.37457127091304 194.56273235314183,11.26404912109481 194.77303144416211,11.184227568087415 195.04933681911942,11.076775478082938 195.35941285106728,10.95090302942469 195.58199218097658,10.852661118221 195.87902045910488,10.754419207154553 196.132300386191,10.643897057199082 196.46923944066285,10.475043772383502 196.72789197226294,10.36452162242803 196.98884704870045,10.278559950113367 197.03413042960372,10.25706953196608 197.32348355838062,10.125056964000562 197.49463938794213,10.008394694600579 197.71261362826806,9.897872544645107 197.9520782865583,9.79963063357866 198.33813829658624,9.673758184920413 199.00203871152414,9.49569472084657 199.3236274674762,9.440433645937455 199.6375410740769,9.366752212694804 199.92382414313153,9.274650420935627 200.30834912338983,8.860192358385309 200.5148106396658,8.534766027826164 200.50713549040591,8.356702564026806 200.48948264695719,8.114167845831332 200.53016093827708,7.942244501522235 200.64452066297687,7.7948816347167 200.83870194036382,7.598397812583806 200.95306166501786,7.478665483370071 201.07509653897753,7.414194229385683 201.24318230886257,7.389633751424645 201.44196867578714,7.377353512672863 201.73515937930836,7.355863094525575 201.98997433620985,7.343582855773793 202.21639124072624,7.276041541792664 202.45969347371505,7.1655193916999504 202.70529825149552,6.999736166698122 202.81812294628844,6.9014942556316745 202.9509030293675,6.790972105676203 203.0383997313603,6.729570911322576 203.12512891851404,6.665099657017956 203.20264792654675,6.619048761367105 203.35845345740552,6.5545775070624845 203.53574940641155,6.511596670905153 203.72379056439974,6.502386491646889 204.04000671574636,6.487036193081356 204.06686973836185,6.487036193081356 204.2257453289886,6.483966133450595 204.36466553137492,6.487036193081356 204.5788021970023,6.505456551597883 204.76530832512935,6.539227208359709 204.91420622170452,6.60369846266433 205.15750845473906,6.763341568221646 205.35475979184827,6.944475091789007 205.53819586020734,7.082627779199036 205.80375602618247,7.26990142221091 205.93269853451724,7.322092437626505 206.27577770852508,7.294461900171949 206.55131556859757,7.30674213892373 206.89285971269857,7.414194229385683 207.11467152767733,7.579977454387512 207.34339097689391,7.776461276657648 207.57825054569224,7.95759480022501 207.95510037659918,8.243110354303331 208.6650516873709,8.648358237732628 209.18005420577936,8.786510925142657 209.8961456359956,8.86633247782982 210.17935864532797,8.890892955653618 210.4518264456782,8.930803731997198 210.6905235890836,9.0075552250536 210.90235770991927,9.139567793293601 210.9837142926048,9.151848032228374 211.15640515198172,9.133427673711846 211.31374571270158,9.090446837554515 211.40584750441502,9.038255822459151 211.43117549712363,9.022905523619134 211.54016261726372,8.936943851441711 211.61921665506605,8.82642170148624 211.69596814812246,8.706689372272505 211.75967188735927,8.54397620722167 211.80342023840143,8.365912743147826 211.84102847004482,8.212409757035022 211.8701940373605,8.046626532033194 211.89091694048574,7.905403784809414 211.87633415685076,7.7918115750401915 211.94387547069465,7.659799007074675 212.0728179790294,7.527786439109158 212.30000239847635,7.346652915267312 212.49571870581593,7.22078046688355 212.68375986375835,7.128678675124372 212.8940589547329,7.024296644476171 213.12277840408672,6.926054733592713 213.2962367783942,6.855443359980823 213.44283213013193,6.760271508545137 213.59249754154615,6.631329000118887 213.68306430339845,6.517736790349664 213.73832537835332,6.3611637445603515 213.74830307245065,6.259851773588658 213.73295277383937,6.066438011269515 213.70532223638483,5.8300434126557965 213.69764708703343,5.701100904183799 213.7260451394643,5.5598781569600195 213.76979349050646,5.430935648808253 213.84040486411834,5.317343438901789 213.95783464854037,5.2129614083908296 214.1059650300935,5.142350034778939 214.25870050132147,5.1147194971871395 214.303983882179,5.1147194971871395 214.4321588755832,5.111649437693621 214.62710766794646,5.136209915334427 214.81975391551802,5.173050632047247 215.0454033051496,5.24980212510365 215.26875014994374,5.348044036307339 215.44911615858052,5.434005708439015 215.77531000407023,5.5752284555255525 216.03012496106325,5.661190127977459 216.2688221044229,5.780922457191195 216.45763077734165,5.866884129185627 216.71091070447352,5.949775741686541 216.90892955655903,6.001966756964895 217.24279855130865,5.983546398768601 217.43083970934256,5.940565562611268 217.6917947856886,5.863814069554866 217.92972441420918,5.783992516684713 218.21447245344845,5.676540426542992 218.47696255970135,5.5844386349210575 218.75173290484327,5.4923368430246375 219.08560189959286,5.409445230660966 219.45017149161077,5.409445230660966 219.6213273211723,5.4524260668182984 219.857721919786,5.5383877390872165 220.0434605329825,5.645839829137442 220.2867627659713,5.863814069554866 220.4310555729631,6.032667354370446 220.55846305139096,6.158539803028693 220.69431319405504,6.244501475023125 220.89923968051565,6.312042789141497 221.02050703954475,6.333533206968552 221.17861511528668,6.355023625115839 221.49406375170275,6.299762550206725 221.72662077566366,6.207660758447547 221.94996762050354,6.121699086315872 222.41661669828645,5.906794905712199 222.6322883937292,5.8300434126557965 222.82263209655483,5.747151800109135 223.0544216055394,5.664260187608221 223.49113760107608,5.541457798626483 224.27323531527506,5.157700333344472 224.5518432350698,4.998057227924399 224.9448108795186,4.7770129280134555 225.4206701364683,4.4730770152813655 225.6186889885538,4.252032715370422 225.66473988438764,4.242822536112159 226.15211186534154,4.046338713842022 226.2856594632597,3.994147698746659 226.62029597293986,3.79152375703201 228.24742762573558,3.33715491813811 228.96044899622956,3.257333365267957 229.54145779871226,2.9718178110523934 229.6918907251028,2.898136377946985 229.8085529945028,2.793754347298783 230.29362243071074,2.36087592655217 230.54843738761227,2.130621447382964 231.25378360875484,1.989398700021942 232.13719329383403,2.0845705515491226 232.26767083202992,2.1214112679874586 232.41580121362878,2.1643921041447913 233.76739500635202,2.551219629377795 235.1481543665282,2.7415633318831873 237.00554049844737,3.063919602811571 238.4254431199908,3.229702827950642 238.60580912862758,3.2450531263789326 239.01489458661823,3.2849639028597566 239.17991029673524,3.1652315738290113 239.34492600676074,3.045499244615277 239.45468064187716,2.85515554165241 239.74556880051517,2.345525627712153 240.2268006619788,2.066150193078344 241.58530208912288,1.9249274459918064 241.80174129949617,1.9341376249755848 243.0067397404817,1.9863286403454332 243.82184059674069,1.7499340417317149 244.709855371449,1.292495143069811 244.90787422353452,1.1881131125588515 245.72758016933113,0.6754131389420858 246.41220348739427,0.3438466889384288 246.9978173794146,0.17192334462933048 247.99328424440188,0 248.26958961935918,0.29165567366007533 249.39399899268122,1.4859089055261967 249.60813565826282,1.7130933252018843Z"/></svg>