<svg xmlns="http://www.w3.org/2000/svg" width="256" height="256"><path d="M144.909586185705,5.8092237722784175 146.01852334376707,5.842575265888149 147.35447805395492,5.827415496036793 148.18978136769547,5.74858469332479 148.63093066774047,5.7091692917203 149.21912973446715,5.6636899826180285 149.64284529928702,5.630338489008296 151.72276571049576,5.566667456192829 151.94599332027164,6.148802614834386 152.13132150555464,6.594499846033588 152.2662434564275,6.87040765554819 152.48416514674184,7.47983039989508 152.56034298979085,7.676907406742859 152.68844304431715,8.013454295572526 152.8552005116874,8.541014283164854 153.0617523746358,9.277779093458935 153.13262429826847,10.026671719697356 153.04697159911885,10.384442286282777 152.89802686121703,10.924130089548363 152.5811876732574,11.63967122235777 152.45157164180088,11.942866617577705 152.10100196607783,12.961603145652225 151.99071464106657,13.219319231318092 151.79250065139564,13.680176232052395 151.51431887628206,14.520027476947153 151.44534192386953,15.029395740826285 151.50332804325052,15.581211360216926 151.65113579837507,15.869246985766223 152.28443518018588,16.985006040220764 152.55390008764243,17.370064192014542 153.25124949664826,17.997678660210166 153.63024374067248,18.27358646990549 154.3560177180261,18.664708529603665 155.01812066229243,18.934552431394586 156.47156358817318,19.741052182724793 157.05028779879925,20.22313286107931 157.35613615372733,20.908354454321543 157.68472416329695,21.796716962225595 158.13610630793062,23.170192102526723 158.34834308458457,24.607338275914394 158.55641092455497,25.159153895305035 159.0923087855603,26.31129639696007 159.4936636899827,26.969230404722868 160.00606390794889,27.417959589648373 160.5855461070185,27.742378662624063 161.93741857545538,28.26084278840497 164.04765852618613,28.788402776042478 166.3455006277092,28.909680933949733 167.07923348414218,28.940000473652447 167.97820783096856,29.10978989484007 168.7498401118033,29.28564322424835 169.30771963909834,29.576710803478772 169.6075040860769,29.776819764504648 169.63933960262014,29.804107349893723 169.99445720918115,30.119430561103172 170.32607717270295,30.56209583794356 170.8623540279982,31.465618115698966 171.46192292204492,32.29334154464939 172.07361963194703,32.93914773655821 172.65954473316435,33.50005921762473 172.859653694054,33.96091621835903 173.21022336977776,35.70428974087366 173.35651514797138,36.189402373406274 173.6369708885498,36.82308074937076 173.83821683208186,37.10505246697048 174.32143449321364,37.41431176995927 175.50503351730345,38.40272875842144 176.17168439254328,39.027311272619684 176.37444631309663,39.21832437142753 177.1468365824194,39.836842977811735 178.42670014449155,40.80100433452077 179.0706113650899,40.95563398603775 179.376459720018,41.03143283484274 179.6125731340907,41.113295591552124 180.37624653575574,41.82580477049969 180.41452495444815,41.8591562639287 180.7253002345027,42.129000165719624 181.3612525759765,42.47767487004183 181.498448492358,42.55650567302491 181.92557500532962,42.83847739048909 183.0587677950093,43.21747163451401 183.47604045763626,43.390293009879734 184.00852737053575,43.73290380629754 184.26434848525255,43.96939621479499 184.35985503474683,44.13918563584707 184.42996896984627,44.38174195224892 184.45119264755684,44.58185091300372 184.35985503474683,45.03967595969546 184.13814340199227,45.397446526235704 184.17073690693323,45.52782054608991 184.2908780822891,45.737025368656134 184.83283985128995,47.07108510789492 185.1015467703036,47.47736693744446 185.30013975417268,47.9533837078494 185.6476774759435,48.22929151740918 186.7164412440486,49.399625743093665 187.3660373783525,50.18490181680366 187.6154155909209,50.633631001729164 187.95802638747423,51.409811213356654 188.08347348229168,51.57960063454428 188.3969017220551,51.80699718095923 188.92294573280685,52.0525854512681 189.04536087358102,52.14354406987926 189.39972049179022,52.5134424520024 190.11677760148606,53.13499301229363 190.38927446298445,53.483667716615834 190.5052467016109,53.56856242736777 191.01650993675534,53.795958973782724 191.28104791908473,53.971812302874746 191.52587820077,54.16282540195367 191.88023781888813,54.526659876307946 192.29675249311668,54.826823317349785 192.8459151527088,55.14517848255662 193.17033422554894,55.484757325248125 193.48527844233365,55.706089963713495 193.66302674278134,55.96986995732894 193.72897174124168,56.13359547088324 194.2250752066703,56.67025132042253 194.28609328000348,56.86732832731549 194.20915744842125,57.261482341191765 194.24667787857973,57.35244095966738 194.3346045431935,57.44036762432634 194.52069071700973,57.537390150887084 194.90688585167112,57.604093137609574 195.02475306160807,57.64654049312108 195.56671483051852,58.125589217568574 195.76379183745664,58.39846507326652 195.93054930478243,58.77745931729144 196.07229315204776,59.68704550295124 196.0427316010138,59.92050595727059 196.09995973186156,60.014496529653236 196.13179524835897,60.04178411517785 196.2026671720375,60.099391240405176 196.5520998649833,60.21460549040803 196.86780207025606,60.317691924873166 197.17213444825325,60.369235142196096 197.36049458748846,60.438970083096685 198.2223274984011,60.8209962808479 199.19482672856907,61.30004500547612 199.3778809484331,61.3758438542811 200.05817561645782,61.52744155189107 201.25124949664826,61.79425349963943 201.670038136341,61.91249970382039 202.48222280128638,62.291493947845304 202.95217566387728,62.60378520496702 203.2151976691854,62.858469336771044 204.06566075277732,64.0378994243573 204.42494729611295,64.41386171438485 204.6633346756046,64.90200630064376 205.034370040505,65.45382192003441 205.43345097946326,65.86313570358132 205.898476916927,66.14813937495252 206.9596608001968,66.87277636957334 207.61911078475495,67.379112679681 208.05798611933582,67.76417083165549 208.46957386839205,68.06736622687544 209.12788687021816,68.90115356373025 209.3098041073953,69.21344482058089 209.71494895421205,70.04116824953131 209.89951915105289,70.64755903997118 209.9328706445271,70.89314731009932 209.85328185332634,71.3843238504008 209.88056943885164,71.53288959414893 209.9756969941019,71.69964706156507 210.3698510078885,72.09683302921283 210.5688229860009,72.33938934547913 211.03043797522395,73.28839093247235 211.23168391880048,73.70073666979074 211.35637302512987,74.00090011110366 211.6868560058744,74.78920813872067 211.6535045124454,75.16820238274559 211.70845867778382,75.44714214648347 212.05106947442755,76.16874718706174 212.18599142525522,76.7630101616928 212.38079446668405,77.15110026761951 212.71696236113343,77.5634460049379 213.10884240950108,77.85148163062273 213.4696449298128,78.1789326571892 213.76526044010706,78.5245754077851 214.43077433261482,79.51905630433238 214.5141530663003,79.82831560732117 214.5171850202525,80.1042234170165 214.43949120027187,80.78944501025873 214.1018073288012,82.39638060474367 213.79709595660515,83.03005898070815 213.74403676248684,83.23319989577658 213.81566667456238,83.61522609352781 214.28827249686145,84.29438377904636 214.97690503825473,84.82194376650314 215.51318189359517,85.27976881351114 216.55693204159533,86.25302603212195 216.80555226567498,86.61382855229814 217.56467773645687,87.58405381691158 217.75227988729438,87.87208944241569 218.10663950541252,88.50273586451834 218.25785820882362,88.899921832392 218.3166023166023,89.19705331957199 218.30940142596583,89.54269607003235 217.95314683658242,89.87014709700543 217.62266385583857,89.96716962356616 217.47637207759908,90.07025605776022 217.35547291375582,90.26126915688432 217.40474216552354,90.54324087448404 217.61622095368944,91.05564109222502 217.6154629651562,91.37702821133885 217.50820759409717,91.72267096193477 217.51919842717388,91.99251486354497 217.60106118397363,92.24719899566526 217.90956249856472,92.5867778380405 218.2752919440029,92.96577208206543 218.37231447047327,93.10827391804469 218.49056067465494,94.18764952489212 218.39353814818455,94.65153847966899 218.1494658550325,95.43681455337897 217.94518795750307,95.78245730379416 217.72688727294474,96.06139706726096 217.32856432247453,96.42826349561263 217.2944548405123,96.74661866068391 217.17999857881676,97.13470876633953 217.54231707605942,98.30807494588586 217.59651325295496,99.25404457915278 217.7022526470379,99.84830755360314 217.86256721230563,100.17879053448321 217.88189591875022,100.60932799555998 217.82201482819497,100.83369258806792 217.71817040528697,101.02773764118939 217.4661392330104,101.28848568089782 217.23722670966453,101.60987280001167 217.08221806385833,101.74024681986589 217.0162730653987,101.87365279389819 217.00793519198427,101.91610014909344 216.94881208991708,102.21929554431338 216.88589904540825,102.99244380207904 216.98595352583013,103.39266172372417 217.13717222919607,104.00208446834213 217.17355567666834,104.38714262013592 217.2808110476815,104.74491318654061 217.31757348935264,105.01475708833154 217.1496790392496,105.36949570055815 217.0295378638937,105.71210649724704 217.03219082364706,105.76061776039187 217.04735059340805,106.03349361622534 217.09472487391116,106.20631499145553 217.27929507070613,106.43371153787048 217.61773693062037,106.7732903805168 217.98043442215152,107.0673899139705 218.50723642139204,107.4281924341015 218.89267356756537,107.64346116470766 219.52294099533364,107.90420920468716 219.814766563278,108.0800625339599 220.6072435275341,108.83198711410535 220.8335030911718,109.20491745022586 221.1166117914584,109.53843238483225 222.14671814671814,110.38434753749587 222.3820735723028,110.69360684080092 223.22192481706273,112.01553876391466 223.37541748584692,112.47639576464897 223.5997820783097,112.79778288344656 224.02311864888551,113.25560793031902 224.90617523755395,113.94689343133011 225.0668687969753,114.25008882655004 225.23135229888143,115.25972949267761 225.3416396238934,115.56595684189492 225.54061160200646,115.96011085577119 225.8798114503636,116.26937015889553 226.62529312836062,116.53921406041538 227.50531776303166,116.73325911340132 227.70466873534357,116.88485681101128 227.92638036809817,116.98187933743648 228.38610038614556,117.00310301519224 229.06715304261246,117.2638510550362 229.33661795016008,117.40635289097028 229.57197337565435,117.63071748338785 229.791790037234,117.77018736518903 230.2769026695407,118.00061586546582 230.45730392974176,118.16737333279161 231.48096738285307,119.34680342037787 231.77430892772833,119.79250065112528 232.00928535897862,119.91984271738873 233.14778406803018,120.39889144156515 233.47334012364686,120.47772224454823 234.38595826325889,120.57171281693087 235.26332993817655,120.56868086302386 235.89435535447805,120.5292654615549 236.59852665987634,120.40798730364764 237.07302745339555,120.28974109933115 237.39100362413245,120.28974109933115 237.99133050666723,120.3806997179875 238.23502380557596,120.44740270484552 238.52533339649904,120.6202240800757 238.69474382362336,120.78698154767257 239.06881114243077,121.35395693677903 239.2397375464867,121.73598313453024 239.54748087267942,122.72440012317313 239.6683800364782,123.10642632092436 239.78662624061397,123.27924769615453 240.0060639079044,123.439941255847 240.2387663737809,123.50664424256948 240.53362389558708,123.48542056494927 241.74337352251462,123.29137551209887 243.48485207380912,122.81839069542023 244.53656110097828,122.6607290900414 245.47836179742538,122.59402610318338 245.97181230314513,122.49093966885378 247.3642371556934,122.08768979303055 247.65454674661646,122.02705071407692 247.9285595850013,121.99369922064791 248.2116682852879,122.00582703632116 248.4167041713054,122.07859393121913 248.69715991192902,122.22715967496725 248.94350617054522,122.41514082004879 249.2720941801148,122.9790842551127 249.30771963900798,123.17009735392054 249.31075159296017,123.4369093016689 249.2228249283464,124.08271549375844 249.22737285931987,124.34952744150681 249.75758580671146,125.64417177896038 250.10095459175213,126.07167728626567 250.339341971289,126.42338394476597 250.48563374943743,126.7902503729821 250.479190847289,126.98429542578732 250.47540090489395,127.1177013996841 250.62131368879835,127.48456782803575 250.87182888409882,127.9181372431099 250.9419428192886,128.31532321098356 250.9718833645207,128.72463699444012 251.0158466968283,129.3279958308374 251.1443257455979,129.57661605487257 251.1803301987351,129.72821375248256 251.11741715422627,130.20726247711076 251.19624795698417,130.62567212233355 251.47291375516753,130.9076438399333 251.91065210697113,131.19264751157556 251.93149679043768,131.21993509710018 252.0641447758464,131.3836606103834 252.3438425278916,131.57164175560047 252.40751356093298,131.70807968335907 252.40751356093298,131.98701944691624 252.36355022862608,132.3842054148351 252.3135229884148,132.8329345997606 252.16344126773575,133.25740815288776 251.8238624251346,135.29791316271795 251.92581187673213,135.889144183442 251.98872492123957,136.0922850983749 252.09901224634186,136.24085084180675 252.1626832792477,136.32574555269423 252.6523438425279,136.6835161189634 252.8683705616221,136.78357059938597 253.47476135206196,137.3444820804525 253.7173176682379,137.65374138357683 254.22744392074063,138.4450813650557 254.33090934935944,138.687637681322 254.59696330866493,139.64876708430472 254.60189023379206,139.7973328277366 254.64092664097183,139.86403581473016 254.61705000355306,139.89435535429735 254.55565293606622,139.9731861570997 254.42224696212426,140.03079328205595 254.3532700097569,140.04292109800028 253.73702536897238,140.16419925608827 253.60437738356367,140.23999810489323 253.55131818940018,140.30973304592936 253.53047350593363,140.39462775636505 253.56079304550082,140.50984200668415 253.74119430565668,140.90702797428673 253.81168723499943,141.13442452070169 253.8188881256366,141.26479854069143 253.75787005234858,141.47703531725503 253.6259800554279,141.7347514033727 253.5202406614353,141.84390174547116 253.28715920126962,141.9803396733653 253.12911860151124,142.13193737097527 253.0176942938131,142.2926309305322 252.97714190965723,142.44119667409961 253.0248951844044,142.84747850378469 253.1973375654809,143.12035435948263 253.4080583651136,143.4508373403627 253.53843238510333,143.69945756439787 253.7021578984769,144.0117488215196 253.84541772276353,144.3998389272204 253.80562332709573,144.50292536154998 253.72451855891956,144.5908520262993 253.68055522661268,144.6363313355823 253.61877916479145,144.76670535557204 253.6339389346428,144.86979178990165 253.77151384513348,145.0153255796072 253.98829855271572,145.1669232772172 254.14709714096216,145.27607361945118 254.5169955231312,145.60958855437383 255.03508065475773,145.99464670630314 255.09875168775392,146.12805268015475 255.04303953383638,146.3190657791433 254.7648577587228,146.86784944435584 254.55830589577369,147.27413127390537 254.45976739228274,147.7228604589664 254.45976739228274,148.02908780818373 254.50107776488144,148.3292512494063 254.57877158490655,148.53239216415847 254.76864770116305,148.72643721700888 255.44932136347697,149.01750479642 255.79420612558482,149.1205912307496 255.89729255991443,149.14787881640976 255.99431508633964,149.25096525073934 256,149.3692114549203 255.94769879432457,149.45410616567224 255.87606888224903,149.56932041581064 255.67899187531089,149.76639742279397 255.0813179524836,150.64566406893178 254.67806807684107,151.39758864907722 254.58218253310207,151.63408105712287 254.49956178790535,151.67349645877252 254.45976739228274,151.64924082697422 253.8897600493596,151.32482175399852 253.51607172470585,151.16716014848416 253.33339649908586,151.15503233281092 252.5901887865078,151.20051164204872 252.38136295805006,151.24295899728915 251.68742449728563,151.4703555437041 251.47670369760777,151.515834853213 251.20079588791245,151.57344197816923 250.95217566387728,151.58860174802058 250.40831892370153,151.50370703726864 250.1168723500012,151.5006750834068 249.9315441647182,151.60679347159825 249.82580477059005,151.8190302484329 249.69808371039883,151.97669185399246 249.6988416988417,152.19802449245785 249.66473221687946,152.25563161741408 249.5533079091813,152.2829192029387 249.46272828481418,152.26472747936106 248.98102660070367,152.12828955160242 248.8229860009453,152.17073690679769 248.71648861841948,152.3193026505458 248.7092877277378,152.3920695451727 248.6979179003719,152.51637965725806 248.74263922116683,152.62856195353461 248.92455645834397,152.89840585532554 248.94274818205716,152.97117275008796 248.86581235047493,153.06819527651317 248.7092877277378,153.10154677021325 248.40495534974062,153.09851481621587 248.0884951559798,153.01968401336833 248.03050903668918,152.99846033561258 247.81827225999004,152.9196295330813 247.39758864912238,152.8044152828977 247.22514626813623,152.82867091442495 247.0026766468484,152.9256934409857 246.79915673785223,153.0863870003619 246.6236824028235,153.2986237771062 246.4353222635883,153.3804865338156 246.35194352985764,153.48660492214256 246.24847810123885,153.7473529620317 246.22763341786265,153.89895065964168 246.27462870412174,153.97474950844665 246.3924959139683,154.0717720348267 246.39931781036074,154.19001823887209 246.51642703176515,154.2870407652973 246.52590188786507,154.3446478905246 246.45768292398577,154.459862140663 246.3864320060639,154.46895800260998 246.35573347229789,154.47502191037884 246.20413577468793,154.43863846290725 246.00592178510806,154.32948812067326 245.7826941753322,154.3052324891912 245.5878911339034,154.30826444305305 245.44425231546313,154.33858398262024 245.08155482388682,154.4901816802302 244.89092071918677,154.51746926589036 244.7120354359611,154.51443731171224 244.5191273658435,154.46289409470558 244.31863941066396,154.35071179829347 244.10261269156976,154.08693180467804 243.99611530899875,153.88682284365217 243.90629367320932,153.78676836336513 243.7687187625838,153.7140014685575 243.27867920505957,153.56240377094755 243.2457067058746,153.55330790904577 243.27109932022427,153.45022147471616 243.41246417320036,153.31681550068387 243.44429968974364,153.14702607949624 243.19795343112744,152.99239642770817 243.04294478527606,152.98633251980377 242.6631925527631,153.04697159889295 242.01852334367672,153.4593173364824 241.94310348911577,153.7140014685575 241.8438069972264,153.84437548841174 241.5193879242959,154.27188099558148 241.29919226851743,154.41135087738266 241.15290049032382,154.4507662788516 240.80801572830632,154.41741478528704 240.6173816235166,154.32039225899737 240.4915555345455,154.22640168634368 240.36686642821613,154.132411113961 239.93860293251313,153.7079375606531 239.76995049387688,153.3198474547264 239.67141199043039,153.16824975711646 239.57666342942417,153.10761067811765 239.4735769950494,153.07729113859565 239.33297013056134,153.07729113859565 239.1715185826067,153.13793021741375 238.95132292678304,153.35623090201727 238.7898713788736,153.641234573524 238.72316839192592,153.7018736526132 238.58635146978705,153.71096951456013 238.45521946144478,153.7230973302334 237.86891536584787,153.6139469879994 237.6930620366655,153.52905227724744 237.57708979799386,153.4077741193402 237.5300945116896,153.28649596111669 237.4937110642632,152.77106378919763 237.38797167018026,152.5497311508226 237.36333704431863,152.4557405781689 237.32202667171993,152.29201506488567 237.16853400288912,152.20105644622933 237.14314138854016,152.1858966765135 236.89755311845718,152.1404173672757 236.5716180685513,152.07674633414396 236.41433545732542,152.08281024204837 236.288888362508,152.12828955160242 235.87047871710448,152.83170286828678 235.67681265840775,153.0045242436525 235.53847975933866,153.22585688202753 235.4566170026293,153.42899779696043 235.43766729042804,153.57453158680153 235.49565340980902,153.7898003173625 235.51611909894118,153.8231518108367 235.8238624251346,154.32342421276886 235.87767960778544,154.46592604870295 235.88336452144722,154.58720420679091 235.77118222517066,154.76608948992552 235.56463036222155,154.9146552334929 235.26408792666462,155.13295591809646 235.02494255873006,155.53923774782672 234.73084302536674,155.88791245214892 234.7118933131655,155.98190302480262 234.74448681810645,156.03647819585186 234.82066466115546,156.06073382751464 234.9294360092358,156.04860601170583 235.60518274628703,155.85152900467733 235.6608949001587,155.8333372810997 236.07172466068172,155.8151455573413 236.57730298221097,155.89700831409587 236.99836558736783,156.01828647200313 237.1541322216169,156.1335007224126 237.18748371509108,156.30632209750723 237.13821446345818,156.63983703242988 237.14389937707338,156.87632944061107 237.27199943150865,157.18862069764242 237.36257905582988,157.30080299391898 237.54298031598645,157.41298529019554 237.6032404007857,157.4342089679513 237.87763223346116,157.5372954022809 238.27254423573441,157.73740436317124 238.5492100339178,157.92235355421022 239.23443162711555,158.4590094037495 239.2670251320558,158.55299997613213 239.2518653622948,158.66518227240869 239.23367363858162,158.798588246441 239.1286922329867,158.96231375972422 238.7527299429147,159.2988606483732 238.7167254897768,159.3928512210269 238.72657934012145,159.48380983941217 238.79138735580455,159.61721581344446 238.9426060591705,159.7900371888102 239.19122628325152,160.00530591937118 239.37276452613875,160.1629675249307 239.47206101811847,160.33578889998017 239.48001989719782,160.53286590700867 239.48380983968323,160.94217969042006 239.4417414785513,161.24537508563998 239.35684676788972,161.41516450714386 239.26437217234763,161.51521898756644 239.19615320842314,161.5455385269981 239.0600942748182,161.54250657295552 238.86642821612077,161.45457990834174 238.75727787388746,161.3393656583389 238.50297273610158,160.8299973943242 238.30362176383554,160.3236610841714 238.2342658170879,160.27514982089102 237.99739441457234,160.27211786716472 237.7582490465933,160.37217234745177 237.53805339081484,160.60866475581366 237.25683966174765,161.7183599023638 237.14086742312048,162.067034606686 237.1503422792218,162.70980884459746 237.31406779264057,163.37683871399096 237.41829120974742,163.76492882009836 237.4357249449274,164.34100007083552 237.25191273666567,164.82914465723 237.2886751782909,164.95648672322235 237.56913091882416,165.21117085516192 237.57633180950583,165.323353151574 237.57216287277637,165.62958050052023 237.58429068858516,165.90852026425813 237.5255465808065,166.28145060037863 237.37508586597377,166.481559561269 237.1503422792218,166.5876779494604 236.9737309615062,166.67257266021235 236.88011938318687,166.74837150901735 236.77362200061586,166.88784139081852 236.64703792311155,166.9697041475279 236.3696141365305,167.00305564095692 236.23961911078476,167.06066276618424 236.16230428509402,167.17284506214455 236.14487054977852,167.33657057569883 236.29343629343558,167.42146528631525 236.5200748513632,167.48816827330882 236.56593315493538,167.62763815497445 236.47080559968512,167.80045953034016 236.4533718644148,167.94902527408829 236.54129852911896,168.121846649454 236.70350806547125,168.27041239288587 236.93962147949878,168.36137101154222 237.30307695951868,168.39169055106422 237.3261956084042,168.41291422881997 237.5270625577374,168.5857356039146 237.76544993722908,168.77674870299353 237.72717151858257,169.50744960538321 237.72110761067816,169.61356799375537 237.51266077646446,170.55953762688674 237.46187554776512,171.1416727857994 237.3443873321174,171.9754601226542 237.31785773508082,172.3089750573058 237.35120922850984,172.8425989528025 237.31634175805954,173.11244285472895 237.23447900135017,173.32771158519958 237.3004239998105,173.67638628965733 237.43724092194867,173.8795272044547 237.50697586284926,174.046284671916 237.55548712603928,174.264585356384 237.78856858615978,174.51623753459725 238.03718881024014,174.68905890978226 238.19864035819475,174.7133145413095 238.49349788000094,174.7133145413095 238.60947011871775,174.71028258753802 238.72468436885543,174.7375701729271 238.81526399326847,174.8194329298172 238.9035696520811,175.01954189070753 238.920245398773,175.1862993578526 238.81526399326847,175.34092900950512 238.72013643797303,175.47433498353743 238.64471658345724,175.88061681308696 238.6208399459933,176.12317312917256 238.72809531705238,176.32328208992735 239.32311628021668,177.10552620977552 239.47016604685317,177.27531563096312 239.7445578795272,177.38446597319714 239.95982661013267,177.5572873484273 240.2524101665206,177.95447331634614 240.47904872449269,178.2910202049951 240.5400667977348,178.5275126131763 240.5855461070185,178.79735651510273 240.68863254139328,178.9610820285667 240.97401520714405,179.23698983808129 241.06307885453506,179.3855555816939 241.14190965729227,179.67662316124057 241.12978184148346,179.85550844437515 241.03389629769998,180.03742568137156 241.09264040552384,180.12535234616607 241.2196034772722,180.30120567525807 241.48376246540275,180.69839164313174 241.76725015993338,181.0561622094009 242.04960087168746,181.58978610494282 242.15534026576972,181.78686311179058 242.34104744534193,181.95968448715632 242.35090129568658,182.10825023090445 242.36113414032042,182.284103560132 242.2663855793149,182.52362792240092 242.24743586711296,183.0239003243331 242.35620721510293,183.18459388389002 242.2345500628154,183.6848662858222 242.18149086865262,183.90923087833013 242.15913020825514,185.03711774863865 242.07878342847667,185.36153682161435 242.0287561882654,185.8345216380219 241.97152805741763,186.05888623052982 241.91050998412962,186.1468128951888 241.69031432835115,186.30144254679615 241.6535518867259,186.44697633636616 241.68159746073857,186.64405334339466 241.70623208659947,186.87751379771402 241.72214984484924,187.04427126499462 241.80060165336238,187.21406068636296 241.89042328924148,187.36262643006592 242.00412156244894,187.49906435782452 242.12653670322382,187.6597579172459 242.2512258095532,187.75678044367112 242.33725750290168,187.8386432003805 242.42632115024753,187.98417699008607 242.62908307080087,188.40865054348433 242.67266740886302,188.6633346756046 242.61922922045622,189.7275505126007 242.61392330108504,190.000426368389 242.6677404837366,190.2187270530377 242.6067224104034,190.38851647422533 242.39600161077072,190.50069877050188 241.88739133528927,190.69171186944527 241.45003197763933,190.97368358690943 241.27834758514123,191.07980197541713 241.19837979960678,191.2283677191201 241.0933983940119,191.6437454103455 240.97742615534025,191.87720586466486 240.78413909088755,192.1440178126843 240.62837245659333,192.22588056943886 240.56242745813228,192.30167941824382 240.4456972309733,192.5169481488048 240.41120875476705,192.78376009659834 240.4885235805933,193.06573181419807 240.83833526778312,193.74792145344293 240.8701707843264,193.86010374953875 240.82696544050756,193.93590259834374 240.54082478622357,193.93893455225077 240.41765165691547,194.0086694932869 240.3573915721155,194.1390435131411 240.29296255067644,194.3512802897047 240.25165217807773,194.53926143492177 239.7460738565485,194.89703200119095 239.34017102115263,195.25177061368862 239.24466447170352,195.41246417297447 239.2310206789186,195.58225359429764 239.28597484425705,195.75204301580152 239.24618044863445,195.8278418646065 238.98240045483757,195.99156737788974 238.93047824336168,196.09768576639743 239.00930904611886,196.2796030032583 239.0657791884786,196.37662552981905 239.03015372954025,196.48577587205304 238.88765189383204,196.5918942604252 238.4290688585619,196.79200322131553 238.33848923419546,196.84961034654287 238.34076319970407,196.9739204584475 238.44915555345003,197.1528057417628 238.53973517781716,197.34381884070618 238.5564109245091,197.60153492664313 238.45142951895937,197.77738825578032 238.20887320282858,197.97446526276363 237.84503872851948,198.13515882204948 237.5755738209726,198.28978847383755 236.891868204842,198.67787857949318 236.60989648724228,198.8658597245747 236.30215316104886,199.10538408679847 235.87616363076486,199.5632091336709 235.72267096197996,199.93310751574887 235.65520998649833,200.19385555559285 235.71471208281025,200.33938934529843 235.80946064381646,200.4758272733281 235.8602458725158,200.5880095693336 235.77610915038747,200.9366842740624 235.78634199497685,201.08221806376798 235.2261885022614,201.09131392544384 234.06495013861496,201.10950564915706 227.31127271004573,201.23684771528497 224.80612075704101,201.30355070214299 221.3565151479262,201.33993414961455 221.27882132790108,201.33993414961455 220.96653007082455,201.30658265618555 220.46019376080795,201.2914228863342 219.95234147381387,201.27323116275653 219.61617357936376,201.27019920857845 219.52938389748206,201.27019920857845 218.83468744818438,201.33387024171017 218.45569320415947,201.38844541289492 218.281355851908,201.37934955094798 218.17485846938146,201.3611578273703 217.92927019925403,201.29748679423858 217.76554468579008,201.27929507066094 217.53132624302788,201.27929507066094 217.2258568822986,201.34903001156152 213.93239690172206,201.41876495228138 209.929080702132,204.0626287986896 208.27969775209039,203.92922282465727 207.68770874292346,203.90193523913265 207.1192173768861,203.86858374570363 206.60643816476556,203.86251983793477 206.15429803164383,203.84736006794787 205.47172939810977,203.82916834450577 204.79674064954656,203.82916834450577 204.37492005590096,203.841296160179 201.04697159911885,203.99895776555786 200.8173010872849,204.00198971973595 200.66077646445746,204.0171494894066 199.45974370518766,204.135395693452 198.86851268450877,204.19300281867933 198.28410356022235,204.2233223580658 197.715991188429,204.27789752943127 197.41052182769974,204.29912120687078 197.3146362840066,204.3142809765866 197.1880522065016,204.32337683853353 197.12438117346022,204.41130350314734 196.95383376364973,204.61141246390213 196.8136058933605,204.80848947106617 196.79314020422834,204.83274510241267 196.7836653481277,205.0055664777784 196.7271952057673,205.4573276167013 196.63017267925244,205.92424852538517 196.5888623066989,206.1182935781904 196.57446052538077,206.3972333417927 196.5737025368927,206.5730866710203 196.59682118577825,206.78532344790014 196.57294454844984,206.78532344790014 195.55648198592985,206.87931402014723 193.03541227472127,206.8611222967051 191.30909349314257,206.84293057294676 185.85726129284413,207.0733590732687 185.6059881090556,207.50996044234023 185.51881943297505,207.6433664161015 185.00376625534517,208.24066134472992 184.5053888244976,208.66513489817336 184.16694696453817,208.88949949068132 183.80690243271448,209.04109718829127 183.48968425042045,209.18359902399945 183.28616434142424,209.24120614891052 182.93711064263212,209.3048771819067 182.65817087902977,209.34126062951384 182.37203022479096,209.3564203993652 182.08209962815707,209.3837079848898 181.81415069763145,209.3806760307117 181.5837221972643,209.3806760307117 181.28886467536773,209.39886775456043 182.25302603221232,210.91787668456712 181.03834948006727,211.60309827780935 180.41452495444815,210.98457967142517 180.35957078901865,210.94819622426985 179.9938413435346,210.73595944739 179.832768789824,210.6540966906806 179.51706658455126,210.52372267069086 179.31051472155767,210.46308359173722 179.06871639386978,210.41457232845687 178.74619229220528,210.3266456639786 178.1993035980766,210.2053675057551 177.90293009924912,210.1993035978507 177.65885780609707,210.2114314136595 177.5936707961248,210.2144633675665 177.1468365824194,210.25084681517365 176.98576402870881,210.23568704532227 176.88229860009002,210.22052727547091 176.7352488334535,210.22355922964903 176.48094369566692,210.31148589412726 176.1462917781936,210.4721794536842 175.90297747352963,210.5692019802449 175.6399554682215,210.65712864472317 175.3659426297463,210.7268635857593 174.99377028211384,210.8299500200889 174.9581448231755,210.89058909904253 174.844446549968,210.9209086385645 174.61856598052918,211.00883530322346 174.5082786555631,211.03005898097922 174.4048132269443,211.02702702680114 174.35819693488406,211.01489921112787 174.09669090650686,210.87846128336926 173.88255915863277,210.76324703305013 173.69685197910576,210.69654404605657 173.53388445412986,210.6662245064894 173.27389440277324,210.63893692110034 172.95288627803964,210.55101025635102 172.88201435445217,210.5388824405422 172.85017883795408,210.56313807229535 172.76907406973274,210.6450008290499 172.51742189165503,210.97851576352076 172.08006253409545,211.37266977739702 171.56576734495363,211.7456001136531 171.02001563351257,212.0821470021665 170.48184380704237,212.41869389081546 166.6142075467229,215.41123244181694 166.53007082454934,215.4263922116683 166.50278323902475,215.42942416539458 166.29054646237077,215.36272117853656 166.14122273017978,215.33240163910492 165.82021460553585,215.31724186925356 165.65080417841153,215.27479451405833 165.59206007058697,215.25357083630257 165.42681858019282,215.19293175734893 165.13764597204698,215.1292607242172 165.03076959523125,215.0898453228386 164.6589762417983,214.94431153317822 164.50889452116445,214.84425705257493 164.40770305800982,214.80180969747005 164.03098277944903,214.5046782101545 163.8816590473484,214.4349432692991 163.59059146793726,214.19541890703016 163.54056422772598,214.15297155151865 163.4405097472582,214.07717270271368 163.3245375085866,213.92254305124186 163.27451026842047,213.90435132766422 163.23244190728855,213.86493592601454 163.1869625980959,213.79216903138766 163.14792619091617,213.75578558378055 162.90006395527868,213.39498306346883 162.82691806627224,213.240353411997 162.72193666063214,213.08572376034448 162.67266740886373,213.05540422095802 162.64727479451406,213.0159888194439 162.58208778454178,212.8916787074941 162.45891465523368,212.74311296379113 162.342184428074,212.63396262155715 162.01700736670062,212.32470331843282 161.9605372243861,212.24890446962783 161.62512731837884,211.85475045575154 161.56335125664796,211.77895160694658 161.38673993897754,211.50607575142934 161.34391358931236,211.46362839605337 161.26356680966944,211.38479759320583 161.1347087666113,211.21804012588004 160.9869010114409,211.08463415202846 160.47601677054047,210.68138427620522 160.26112703413318,210.5419143945396 159.93291801885277,210.3721249730809 159.6285856408556,210.17504796636865 159.4618281734846,210.0113224529047 159.32501125139163,209.8748845251461 159.04834545325343,209.58078499160203 158.91190752540444,209.45041097174783 158.5674017575858,209.17147120814548 158.3498590615155,208.9258829378818 158.2448776559206,208.7500296089253 158.14709714096216,208.33768387129066 158.02240803472316,208.1224151407297 157.75749105814972,207.9253381337012 157.7021578984769,207.88895468636517 157.67108037046688,207.87076296251644 157.44861074922426,207.7464528505666 153.4388516474406,207.4978326263959 153.3369021957979,207.4917687184915 153.2152450435111,207.47357699491386 152.8305658858258,207.85257123893876 152.58042968476934,208.0587441077335 152.2647274794966,208.29826846982172 152.2037094061634,208.3467797331021 151.88232228727475,208.56508041770562 151.65985266598764,208.75306156265162 151.27517350830234,209.1745031620525 151.12168083951744,209.3837079848898 150.89542127578937,209.61110453130476 150.79688277238807,209.71419096563434 150.44138617144753,210.03557808443193 150.0415472440464,210.42063623636125 149.71030627476864,210.70867186200093 149.54165383613235,210.89968496098948 149.45827510244618,211.04825070442135 149.38588720183813,211.24835966531168 149.3415448752872,211.3211265603452 148.88599379401444,211.81230310037557 148.72226828055048,211.98512447574132 148.63093066774047,212.124594357678 148.58241940455048,212.276192055288 148.56801762323235,212.33379918019904 148.43612762631167,212.5460359570789 148.34327403652557,212.640026529326 147.99838927450807,212.83710353644486 147.8232939337234,212.92503020110382 147.73119833242532,213.0099249115395 147.57315773266694,213.2646090436146 147.46097543648074,213.39801501737585 147.35106710571353,213.67695478124926 147.3036928252111,213.78913707720955 147.20515432176393,213.95589454467088 147.08652912333895,214.0832366107988 146.9322784660208,214.1741952292744 146.81782220432527,214.20754672288416 146.50249899329654,214.21361063078854 146.08105739398601,214.21664258451486 145.97607598834594,214.29244143331982 145.38257100224808,214.76542625004365 145.1726081910138,214.9261198092843 144.9611294028472,215.11713290854397 144.84364118728982,215.2050595730222 144.55598455602973,215.4172963495858 144.36989838225867,215.50825496824214 144.24672525295057,215.54767036957554 144.0003789943344,215.57192600137387 143.7839732809058,215.56889404719576 143.66421109979393,215.5507023236181 143.52966814321024,215.52644669181979 143.18099343866214,215.4839993367149 143.1544638415804,215.48096738271752 143.1347561409363,215.49915910629517 143.0297747353414,215.57798990927824 142.9369211455101,215.68107634360786 142.86225927948237,215.81145036346206 142.85088945211643,215.8629935807398 142.87325011251392,215.96001610702947 143.0528933842721,216.41480919985938 143.115048440247,216.6058222989383 143.08851884312077,216.83625079926026 143.04114456261695,216.96359286538816 142.97406258142453,217.0606153917682 142.8596063197742,217.1455101023846 142.67617310566615,217.2546604446186 142.36767179098467,217.41232205013296 142.28656702276334,217.50024871492747 142.2399507307483,217.58211147163684 142.08153113674587,218.03084065656236 141.885970106829,218.47047397954088 141.69950493876874,218.92829902623265 141.55851908003666,219.44979510610128 141.54108534476632,219.50133832337903 141.34817727455766,219.9379396923602 141.33150152786573,220.03193026501393 141.32960655660042,220.1895918705283 141.3432503494305,220.26842267310474 141.44519980107322,220.4048606009989 141.4895421276693,220.49278726574823 141.50773385133732,220.67167254874727 141.46983442693482,220.83236610816866 141.2231091740746,221.28109529309415 141.2018854964092,221.32051069469864 141.0461188620698,221.71466470830384 140.92597768671317,221.9269014851385 140.72662671435677,222.13610630770472 140.5674491318663,222.56057986096747 140.50226212189403,222.68792192709537 140.2998791955847,222.81526399304258 140.2130895137482,222.93654215113054 140.16306227358209,223.00021318426226 139.90458819906672,223.56415661932616 139.70296326124546,223.83400052111708 139.6290593837058,223.96740649483314 139.56121941398015,224.16448350186164 139.482767605467,224.28879361394698 139.39900987753748,224.36459246275197 139.22997844470308,224.34640073885805 139.02153161048867,224.34943269290062 138.97074638178933,224.37672027842524 138.9430798020207,224.4252315417056 138.8490892295025,224.6768837196026 138.77215339792028,224.79512992378355 138.68081578515543,224.8739607266311 138.56711751194797,224.93156785154218 138.38671625174692,224.9831110688651 138.21503185920434,224.99827083871645 138.11308240760613,225.04375014781874 138.02818769689935,225.13774072033692 137.9376080725774,225.40758462212784 137.92017433739744,225.44700002346124 137.84778643678868,225.5743420894536 137.67382807878124,225.81993035958178 137.57983750621787,225.9381765637627 137.53284221995878,225.97759196509614 137.47902503730725,226.0079115046633 137.35888386195134,226.04429495213486 137.16104886657033,226.05642276780813 136.9200085273698,226.09280621541524 136.7119406874008,226.19892460360668 136.590283535114,226.24440391302522 136.33749437434938,226.2959471300319 136.1142667645735,226.37174597883686 135.99185162375346,226.3929696565926 135.80576544993724,226.39600161063518 135.4877892792455,226.33536253168154 135.36082620745196,226.32929862373197 135.0690006395528,226.3869057486882 134.75898334798558,226.3778098868768 134.2408982164035,226.38084184078383 134.1859440509747,226.3838737947812 133.7273610157046,226.41116138048653 133.56704645048202,226.4232891961598 133.3460928062155,226.4627045974932 133.15849065542247,226.5385034462982 133.05805718075658,226.61430229510316 132.9977970959566,226.69919700585513 132.90304853495107,226.92659355227008 132.82838666892263,227.05999952612166 132.63699457564488,227.26920434868788 132.58204041030646,227.29042802644364 132.5191273657983,227.29042802644364 132.36449771423614,227.26314044091902 132.19811924106403,227.1994694077873 131.9938413435346,227.10244688136208 131.88734396100878,227.06909538793306 131.832768789824,227.06909538793306 131.7762986474643,227.07819124988004 131.66563232820903,227.1327664210648 131.49015799327066,227.28133216449666 131.46059644219082,227.31771561196825 131.38745055309474,227.40564227658203 131.32870644531604,227.448089631958 131.21008124689106,227.49053698733397 131.00618234365083,227.49053698733397 130.843972807163,227.4784091716607 130.54911528535678,227.36925882924598 130.42973209844376,227.35713101330165 130.37894686974442,227.37532273719557 130.31375985977212,227.46628135580673 130.15723523703502,227.79676433641575 129.88852831802134,228.25458938315265 129.78354691238127,228.4637942061255 129.7047161096241,228.6699670747847 129.69524125352345,228.72454224596945 129.6580998176542,228.82762868029906 129.63422318023544,228.82459672639203 129.59594476158892,228.8185328183521 129.47921453442996,228.81550086449025 129.03882322291747,228.8124689104477 128.49534547698576,228.78214937088052 128.24862022408036,228.7336381077357 128.0413103726439,228.67906293668648 127.93973991524521,228.563848686277 127.9469408058365,228.0726721462466 127.86318307790701,228.0029372053912 127.74872681621147,227.96048985001522 127.14650496245588,227.6481985927128 126.9475329843428,227.51176066508972 126.42300495061302,227.26617239478085 126.04893763175971,227.1236705589823 125.51303977070849,226.92659355227008 124.81682734448059,226.6658455124261 124.47649051330033,226.5779188476316 124.15169244617097,226.4627045974932 123.71850202525049,226.35658620912105 123.5164980931852,226.3020110380718 122.66679299808135,226.15344529436888 122.02136580055209,226.038231044366 121.5699836559184,225.9381765637627 121.36722173536508,225.88966530048233 120.74567117516492,225.64407703048974 120.53116043309129,225.57737404363172 120.10933983940119,225.47125565512403 119.88838619513466,225.3681692207944 119.79136366870947,225.3044981876627 119.49574815832484,225.08316554915214 119.13570362650117,224.79512992378355 118.86282777084841,224.51922211408825 118.64680105170903,224.13719591633702 118.68394248762347,223.8370324748434 118.68659544737682,223.59144420485077 118.7286638084184,223.4337825993364 118.86434374777933,223.02446881560877 119.04739796764267,222.60605917038598 119.43435109083799,221.78439964920443 119.5757159438141,221.1992325365203 119.58935973664418,221.04460288486777 119.55032332946443,220.956676220254 119.43852002747708,220.78688679906637 119.30397707084823,220.5625222066488 119.16564417182433,220.3169339363851 119.15541132719046,219.9379396923602 119.05990477769619,219.49527441533908 118.90906506857426,219.3406447638673 118.42660539597573,218.94952270398838 118.33034085794822,218.7918610983385 118.31593907667457,218.55840064401914 118.31518108818722,218.40073903850478 118.28827249690593,218.32190823579276 118.07603572025268,218.18850226207672 117.82552052490703,218.01264893266844 117.794821991141,217.86711514296286 117.78421015230761,217.49721676074935 117.73494090063025,217.39413032641977 117.6015349266883,217.32742733956175 117.21382381509599,217.2091811353808 116.15415590875713,216.91508160210782 115.2093232584482,216.5694388515119 114.99519151052894,216.4663524171823 114.8060733827605,216.3268825352456 114.5445673543833,216.12980552853335 114.36757704242366,216.00852737030985 114.09735414647908,215.8326740412178 113.8756425137238,215.75081128450844 113.56145628538266,215.7053319750899 113.03238032076976,215.5840538170471 112.66248193855485,215.4839993367149 112.50823128128259,215.4597437050973 112.27325484994196,215.43852002734155 111.07714901579932,215.19293175734893 110.66859322074046,215.04133405973897 110.22895989767156,214.8260653289973 109.98261363905536,214.62292441406439 109.86095648672335,214.3621763742204 109.8753582679963,214.12871591990105 109.92197456005584,213.90435132766422 110.00459530529916,213.57083639274157 110.01028021891436,213.41620674122458 110.01444915555345,213.11301134600464 110.00232133974465,213.03114858915973 109.99284648364403,212.67640997693312 109.98412961603145,212.63699457541898 109.96101096714594,212.47023710827392 109.84996565364663,212.2246488381006 109.81092924655725,212.1003387258797 109.75900703508066,212.02150792321288 109.71390672008687,211.8304948242243 109.72413956463036,211.43330885635066 109.79728545372717,211.04521875051432 109.8950659686856,210.73899140143254 109.8920340147334,210.69957600009914 109.9348603643534,210.47521140754603 109.94433522045331,210.34786934173437 109.96025297870307,209.96887509770946 109.94850415709311,209.72631878144315 109.89013904355846,209.56562522188622 109.75104815600132,209.3200369518936 109.5892176137575,209.04716109619568 109.45732761688129,208.68029466802474 109.3402183954783,208.42864248981147 109.25911362725697,208.25278916071943 109.23523698983821,208.21034180534346 108.95819219750118,207.84347537699182 108.68001042234171,207.38868228416192 108.38249994078215,206.96117677685663 108.17746405476467,206.71862046072584 107.95006750834972,206.52457540787546 107.7522325130139,206.41239311164406 107.52559395504181,206.32749840089213 107.37702821138404,206.28505104551616 107.17199232536656,206.24866759836084 106.97718928393775,206.1849965652291 106.69597555487125,206.0303669135766 106.57772935078067,205.82116209105556 106.48677073217021,205.65440462359425 106.42082573370917,205.47855129445705 106.30561148357077,205.2147713006157 106.22640168656956,204.97827889225377 106.19380818153896,204.7993936091192 106.21048392832051,204.54470947717962 106.29537863893692,204.38401591748718 106.38216832081793,204.2415140819597 106.56105360404356,204.1262998318213 106.77215339791957,203.92922282465727 106.95028069265716,203.72304995599808 107.06094701191243,203.51081317943448 107.11893313120306,203.1136272116512 107.18336215273249,202.59213113182773 107.22543051377407,202.04334746661516 107.2307364332356,201.72499230140835 107.21178672103436,201.59158632764712 107.1363668664741,201.45514839975297 107.11817514271502,201.4278608140928 106.94573276168438,201.37934955094798 106.67285690598574,201.4005732285682 106.34161593670797,201.37934955094798 105.89895065968615,201.31567851808734 105.35926285619537,201.2186559915266 105.01741004813007,201.13072932677727 104.83700878797421,201.0428026621635 104.59596844872918,200.95790795154707 104.2359239169055,200.80327830007528 103.60641447758012,200.59407347723797 103.41085344766326,200.5425302602313 103.20505957315773,200.50311485871717 102.94696449297676,200.4909870429084 102.59942677120591,200.49401899708647 102.25681597465257,200.53949830618876 101.57007840443423,200.64864864842275 100.84923135229884,200.8002463460327 100.63168865622782,200.83359783959727 100.47023710827392,200.84875760931308 100.15377691455829,200.8760451948377 99.60082431252593,200.866949333207 99.45529052282036,200.85482151735303 98.78750266480328,200.75779899079228 98.16860506431058,200.6304569248451 98.04846388895469,200.59407347723797 97.93173366179501,200.57891370752216 97.61034654290707,200.4970509508128 97.00471374095524,200.30300589796238 96.74244972409,200.21204727948677 96.36421346850794,200.0331619963522 95.72674515005804,199.67539142976676 95.27953194215381,199.402515574114 95.0710851079401,199.29336523188 94.66252931283606,199.0629367314225 94.369945756494,198.92043489562394 93.65857356041406,198.6020797306882 92.43934907738588,198.0987753745779 91.93945566951702,197.85318710458532 91.67794964113982,197.7228130847311 91.28076367340171,197.57121538712113 91.15038965345714,197.53483193951402 90.95634460056156,197.50451240008238 90.72667408863728,197.5075443539894 90.67171992329885,197.52270412384075 90.58114029902136,197.6045668804146 90.46137811781983,197.80467584130494 90.35374375260712,197.94414572324166 90.20783096861305,198.10483928261786 90.03842054148802,198.24127721055717 89.79359025989382,198.35345950678857 89.43657768197646,198.50202525040115 89.24025866357155,198.5626643293548 88.8730132411114,198.6293673162128 88.70549778525309,198.64149513215713 88.42580003316199,198.63846317815975 88.14193334443252,198.5929838690575 88.0824312481206,198.58691996110792 87.57685292659065,198.5323447897876 87.41540137863674,198.48080157278093 87.05611483530112,198.32920387517098 86.93066774048368,198.24734111846158 86.88556742548991,198.20186180917858 86.79801975507498,198.0593599732445 86.76315228462538,197.8865385980143 86.74458156666816,197.643982281748 86.76618423857688,197.44084136713138 86.7771750716536,197.346850794568 86.86623871904463,196.99817608997472 86.87192363265983,196.9769524123545 86.89238932183717,196.78593931341115 86.80901058819687,196.4888078260956 86.67067768912777,196.19774024654893 86.60814363881849,196.07949404263906 86.51263708936939,195.91273657517772 86.50543619868773,195.67321221281844 86.48307553829027,195.58831750238275 86.41258260890163,195.46703934415925 86.27803965227349,195.2638984295426 86.05064310585783,195.03346992894956 85.73304592941012,194.84852073791058 85.53179998578842,194.68479522462735 85.38399223061799,194.58474074402406 85.33320700191865,194.49984603358837 85.29985550848964,194.36644005955606 85.3324490134306,193.99957363120438 85.3722434090984,193.4629177816651 85.37451737451738,193.41440651852028 85.3919511097877,193.18700997210533 85.44425231541796,192.9171660703144 85.54203283037639,192.3501906813435 85.57614231233863,192.05305919407314 85.58031124902361,191.76502356865936 85.57803728360393,191.58917023929627 85.53975886495742,191.17682450184233 85.518156193048,191.01006703438102 85.41355378169712,190.61288106677844 85.3991520003783,190.5643698036336 85.22974157329986,190.08835303304795 85.20738091290238,190.000426368389 85.09292465120686,189.5486652294661 85.02773764127976,189.23334201857293 84.97316247009499,189.05445673530278 84.89357367884905,188.820996281119 84.79010825023094,188.62088732022863 84.60440107065803,188.40865054348433 84.58052443328516,188.39349077381368 84.54641495132293,188.3601392803847 84.46985811412026,188.27827652363013 84.36601369116707,188.19641376692073 84.25951630859606,188.07210365469984 84.16059881090555,188.0114645756107 83.99952625719497,187.95385745065443 83.52654144065187,187.8356112466542 83.31998957770347,187.78103607546942 82.32891962953313,187.46874481830253 82.21976928725395,187.4050737851708 82.03861003861005,187.24134827188757 81.89724518558874,187.062462988753 81.7763460217448,186.8199066724867 81.72783475855478,186.67134092891928 81.72935073548571,186.52277518517116 81.78278892389322,186.4045289809902 81.85972475542957,186.2832508229474 82.12691569746785,185.89819267115362 82.15950920245399,185.86180922354652 82.42973209844375,185.52829428889495 82.76968993537929,185.26754624891544 83.07023237089105,185.07956510401462 83.35334107113248,184.9188715444577 83.4344458393531,184.82488097207505 83.47234526375631,184.72785844564984 83.45983845370348,184.57929270176618 83.37949167401538,184.44891868177643 83.07515929601819,184.16694696431225 83.03915484292618,184.12146765520998 82.96373498827487,184.02444512864926 83.03536490044075,184.0365729443225 83.05204064713196,183.94864627984427 83.27678423383945,183.83949593761028 83.41511713290855,183.7546012268583 83.39389345524314,183.52720468044336 83.37153279484568,182.59639481702783 83.19037354624624,182.07793069120171 83.01793116517042,181.88691759225836 82.90991780562332,181.81111874345336 82.67759433403606,181.6716488616522 82.29935807854436,181.42909254552143 82.1326006111734,181.3381339270458 81.81689840594582,181.21079186091788 81.62057938749574,181.16531255181562 81.08164957244641,181.18653622943583 80.52073809129024,181.28962266376544 79.95793163891324,181.35329369671643 79.61683681929081,181.38664519032616 79.37769145135626,181.38967714405248 79.12187033663945,181.3805812823766 78.78380747096921,181.3199422031519 78.72506336310018,181.3108463415212 78.55565293602103,181.27143093987152 78.2418457019684,181.13802496615546 77.96934884055966,181.01977876197452 77.66956439353595,180.9257881895467 77.45581163986071,180.86211715659567 77.38835066446947,180.8105739391372 77.07189047066348,180.66807210360975 76.91688182485728,180.58620934690038 76.55683729303361,180.3406210765915 76.43593812919038,180.22237487254608 76.380225975318,180.13748016197485 76.32944074661795,179.9555629246622 76.32565080417841,179.75242201004554 76.31617594807778,179.50683373973666 76.26425373669156,179.39161948959827 76.20247767487031,179.30066087094195 76.05391193121254,179.19757443661234 75.94627756590947,179.14299926542756 75.79771182225099,179.10661581822708 75.69386739938888,179.1035838642297 75.59191794783652,179.10964777199857 75.48314659971102,179.14299926542756 75.15152663618922,179.3703958118425 74.77177440367625,179.62507994391763 74.6057749248378,179.71907051661654 74.55461070184997,179.74939005586745 74.30030556410925,179.8858279837616 74.09868062628799,180.04955349736107 73.99673117469047,180.12535234616607 73.946703934434,180.1405121158367 73.55975081128456,180.12838429989236 72.93478930293264,180.0010422340807 72.68389511334297,179.9464670630315 72.33067247791175,179.8100291349566 72.07257739777594,179.64327166781155 71.86109860960934,179.4401307527431 71.41426439585949,179.0217211075203 71.11637492010108,178.69123812677577 71.03223819788236,178.5457043370702 70.99016983684078,178.30314802066835 71.02011038207357,178.10910296781796 71.08681336902195,177.83016320439634 71.12660776464458,177.72101286198162 71.19027879764076,177.6179264275165 71.37939692540849,177.4208494206687 71.49309519861667,177.3602103417151 71.6155103394819,177.31473103229655 71.73489352634975,177.26318781515434 71.9073359073359,177.15403747292035 72.28860411682497,176.83871426202714 72.4000284245676,176.5324869126291 72.55882701285992,176.12317312917256 72.66305042996677,175.86242508919307 72.74415519814293,175.71082739158308 72.76575787005164,175.66838003634265 72.94615913020822,175.31667337797788 73.10647369543075,174.9164554561972 73.31150958149341,174.51623753459725 73.50782859985314,174.1281474286254 73.61129402851641,173.8704313427788 73.62872776369709,173.78250467802948 73.62569580974488,173.7067058292245 73.6018191724165,173.61877916474626 73.46045431935002,173.44292583533797 73.23305777293507,173.2852642298236 73.11064263211503,173.22159319682743 72.84837861524979,173.12760262430925 72.71459364715416,173.1033469928272 72.57891370783842,173.10031503878463 72.28254020891987,173.11244285472895 72.15292417746406,173.1366984862562 71.96266906700872,173.19127365744097 71.58140085747448,173.31255181534823 71.31041997299596,173.3489352628198 71.23879006092113,173.3549991707242 70.75064547457114,173.40047848009755 70.47739062462989,173.40957434190895 70.20565175166402,173.43079801952916 69.99568894047421,173.43989388147614 69.65080417845672,173.47930928280954 69.43705142478149,173.50962882251227 69.10239950730748,173.57633180923474 68.77949641148861,173.7006419213201 68.55702679015562,173.77340881621805 68.50396759603731,173.78250467802948 68.23677665395456,173.8158561714585 68.00483217665649,173.82495203340545 67.66676931098556,173.82192007936288 67.44278371276754,173.79766444788083 67.15285311608848,173.74308927669608 66.86254352512022,173.7006419213201 66.28002937205392,173.60058744085234 65.68879835137574,173.5217566381855 65.10059928464837,173.47627732890254 65.04867707326213,173.47627732890254 64.63405737025369,173.47930928280954 64.53779283231583,173.4823412368521 64.00757988487979,173.57026790146588 63.45045834620905,173.65516261221782 62.89561077300174,173.72186559907584 62.29414690764384,173.8006964018782 61.71769666248194,173.87346329668583 61.42776606580288,173.8764952506832 61.156785181325056,173.86133548087702 60.594736717436106,173.83101594117431 60.54698344268896,173.83101594117431 60.07551460312197,173.82495203340545 59.796574839564805,173.81888812550105 59.57183125281285,173.78250467802948 59.39711490631665,173.76734490817813 59.357320510739925,173.75824904654743 58.71113532463226,173.65213065803974 58.47653788762601,173.60665134893745 57.87242106260511,173.44898974324238 57.5138925078479,173.35803112490228 56.59937939692541,173.00935642012828 55.931591539043865,172.64552194595473 55.30776701328848,172.31503896507465 54.79498780112277,172.10583414250843 54.39287490825751,171.9815240305586 53.9452827060182,171.87540564223164 53.58751213970456,171.76928725372395 52.871592012696304,171.60859369448326 52.24435653883506,171.48428358239792 51.885069995544626,171.44790013492633 51.29383897482057,171.40545277941484 50.83752990501457,171.4569959968733 50.549115285356784,171.52976289150018 50.029135182509414,171.6480090958167 49.83281616414969,171.71774403671725 49.64142407087192,171.82992633294865 49.23627922400929,172.1028021886466 48.97212023592392,172.26955965597236 48.610559727169324,172.5424355114896 48.34753772181603,172.76983205790455 48.19821398962503,172.9517492952172 48.165620484638886,172.9972286043195 47.92458014548352,173.3549991707242 47.831726555652935,173.57633180923474 47.717270293958116,173.7127697371289 47.56301963663927,173.96138996116406 47.27991093639783,174.07963616534502 47.01309898855911,174.15543501415002 46.947153990098776,174.17059478400137 46.70156571997063,174.2069782312922 46.30021081554824,174.22213800100803 46.05992846483644,174.1827225996746 45.82381505080892,174.10085984310078 45.488405144846865,174.03112490206465 45.044223890894834,173.72186559907584 44.717530852500175,173.2792003219192 44.60307459080395,173.13063457848733 44.579955941964315,172.99419665041248 44.463225714804636,172.8304711369937 44.243030058980274,172.69100125519253 44.14449155558039,172.5727550511923 44.086505436198685,172.43934907716 43.99365184641258,172.27562356387676 43.86858374588436,172.1573773596958 43.81059762654855,172.13008977417118 43.71281711159012,172.11493000431983 43.59836084993977,172.10886609641543 43.55098656943666,172.09067437283778 43.318663097804205,171.9512044910366 43.2136816922093,171.86630978014912 43.15834853262684,171.82386242504424 42.60350095937436,171.38726105597271 42.07025605798612,170.97491531833805 41.56846767889713,170.56560153479114 41.325532368477155,170.3685245278982 41.24518558878905,170.28362981732698 41.08866096596158,170.17144752091488 40.56868086320457,169.8379325862633 40.043394840940856,169.4922898358481 39.50370703744937,169.12542340749647 39.18194092427221,168.89499490703895 38.97349409005851,168.81616410437212 38.761257313403846,168.7646208870492 38.411445626214736,168.70094985418854 38.06580287561883,168.6524385910889 37.84257526588815,168.5857356039146 37.45865409673608,168.40078641287565 37.29720254878147,168.30679584049298 37.09444062822814,168.2279650375099 36.79010825023095,168.1430703268935 36.476301016223495,168.08849515584427 36.25837932590917,167.9823767675173 35.99232536660367,167.91870573438558 35.73385129217868,167.7762038988581 35.52957339460336,167.71556481972377 35.23244190728853,167.65795769467715 35.03384892341948,167.5730629839252 34.87315536395291,167.54577539826505 34.71587275268257,167.55183930616946 34.184143828315605,167.59428666154542 33.96622213800128,167.62763815497445 33.64521401331288,167.7125328657264 33.383707984980155,167.7762038988581 33.12371793353388,167.8550347013894 32.85425302603217,167.90960987257415 32.58024018760215,167.93992941214134 32.031835516543275,167.97934481347474 31.8768268706919,167.97328090557033 31.67254897320765,167.99753653736866 31.37276452622912,168.04301584647092 30.989601345474746,168.1733898664607 30.678826065329133,168.25222066930823 30.466589288675177,168.2976999784105 29.940545277968592,168.3280195181132 29.73550939195111,168.34924319586895 29.413743278818426,168.34924319586895 29.20302247918646,168.34621124169087 28.87481346377052,168.31892365616625 28.661818698672988,168.29466802450347 28.459814766608414,168.24009285345426 28.35710732643248,168.1946135440809 28.268422673330647,168.11275078750705 28.19755074974317,167.99147262928355 28.18011701447214,167.90960987257415 28.17670606627662,167.79136366852873 28.20854158277471,167.63370206301437 28.297605230120567,167.42752919435517 28.310491034417414,167.4002416085595 28.365824194090234,167.24258000304513 28.459056778075183,167.0515669042373 28.478006490276428,167.00911954872578 28.5265177535568,166.8484259893044 28.528791718975768,166.61496553498503 28.411303503328043,166.21474761347545 28.365066205602183,166.10256531724406 28.247577989909278,165.98431911306312 28.14828149797475,165.92671198783577 28.04974299457345,165.90245635635372 27.944761588933368,165.89032854049975 27.591159959303297,165.78421015217276 27.54113271909201,165.7690503823214 27.026079541462146,165.39308809247458 26.657318142025897,165.1171802827793 26.479190847289008,164.99893407859832 26.170689532697903,164.79579316366542 25.845512471324522,164.61690788053085 25.7128644859158,164.55930075561977 25.12239145372427,164.3046166234995 24.8976478670182,164.20759409711948 24.35606509226141,164.00445318218658 23.806902432669304,163.81040812920062 23.581400857474478,163.716417556818 23.28957528962047,163.57391572115498 22.8851884312007,163.33135940488867 22.62368240286869,163.13428239786018 22.46602079735432,162.96146102276555 22.33109884643627,162.78560769340243 22.044200203709405,162.39751758743057 21.9820451477345,162.31262287699488 21.915342160740934,162.1974086268113 21.70727432081643,161.8244782906908 21.663310988509544,161.53947461909368 21.99341497501007,160.84212520999748 22.124546983487868,160.4146197026922 22.145770661108084,160.3448847617916 22.239003245228574,159.93860293224208 22.266669824997212,159.75971764910747 22.33488878887652,159.2988606483732 22.245067153087792,158.90773858867502 22.13326385105526,158.64699054883104 22.084752587820073,158.49842480494738 21.978255205249777,158.2892199822456 21.877063742094418,158.15278205435146 21.636402397138593,157.9253855079365 21.22216168841936,157.63128597466354 20.87879290333278,157.4372409216776 20.735154084892518,157.38266575049283 20.514200440625988,157.31596276377036 20.37169860487262,157.29170713197203 19.770234739559893,157.24319586869166 19.352204088445585,157.225004145114 18.67418338583983,157.15830115825597 17.360210341805434,156.76111519033714 16.2387663737357,156.4185043937838 15.5345950683374,156.2638747422668 14.642063623658716,156.21839543289346 14.088732027382335,156.0971172749862 13.677902266859322,155.8909444061463 13.223488168273445,155.39067200394305 12.520074851408374,154.7691214439229 12.198687732475243,154.09299571258242 12.033446242080378,152.57398678248538 11.784068029511982,151.92211668262698 11.79998578776103,151.90695691309188 11.571073264324799,151.41578037265487 11.24968614539096,150.77300613474344 11.164791434730086,150.38188407490972 11.176540256294858,149.88767558088193 11.459648956626651,148.9902172108954 11.368311343771467,148.27164412417895 11.485799559419192,147.63796574821447 11.60973067721534,146.37667290405437 11.513845133477036,145.74905843612981 11.527109932017908,145.7066110806183 11.385745078996612,144.9213350071794 11.23073643319042,144.23308146003015 10.803230925930313,143.47812492588733 10.570907454343038,143.11125849753566 10.517848260224728,142.9657247078301 10.350711798609034,142.5169955229046 10.310159414544252,141.9409242720319 10.320013264798542,141.7226235875639 10.200630077930692,141.44671577800412 10.039936518464126,141.18293578398206 9.78904232900999,140.94644337562016 8.982921571923807,140.5068100526416 8.42996896989145,140.1672312099501 7.837600966435322,139.86706776877273 6.973873084347712,139.40317881399585 6.949238458486092,139.36073145875542 6.179880143070327,138.92716204368128 6.113935144609991,138.88471468816977 5.9176161262050835,138.71492526684662 5.571594381455512,138.469336996854 5.18312528132997,138.19342918715867 5.010682900253452,138.03576758177985 4.842788450194887,137.8932657458006 4.705971528057417,137.75985977208452 4.48198592988387,137.62038989014783 4.381931449460586,137.5597508111942 4.015444015489195,137.30506667925462 3.896060828576166,137.25958736997163 3.7937323827346177,137.2535234619317 3.3749437430419027,137.25655541597425 3.146789208183375,137.26868323164751 2.8121372907100777,137.31113058715903 2.3933486510173627,137.31416254102086 2.226970177934897,137.2929388632651 2.012459435818205,137.25049150806987 1.6364971457447792,137.21714001446014 1.0380652343835468,137.08373404074408 0.5332449013430609,136.9078807113358 0.4612359949783263,136.87149726404493 0.1910130990789184,136.68654807282525 0.03031953952199351,136.5501101449311 0,136.4743112961261 0.006442902149129553,136.40154440149922 0.06063907908916665,136.23781888808045 0.2107207996778549,136.0468057890919 0.3729303361205202,135.86488855195995 0.414240708764416,135.77089797926104 0.43735935769511564,135.6405239592713 0.4475922021934292,135.592012696262 0.49610346542861883,135.31610488643113 0.554089584809611,135.103868109732 0.6018428595115711,134.58540398404145 0.6469431745505365,134.33071985196634 0.7106142075467229,134.06693985826055 0.7742852405880889,133.80922377214287 0.8099106995264312,133.54544377852744 0.8656228533529147,133.2513442449834 0.9126181396120047,133.1058104552778 0.9315678518132506,133.06033114617554 0.9690882819710116,132.9238932182362 1.013430608522633,132.56612265196705 1.1699552313501043,132.06585024962826 1.2139185636577008,131.78387853216407 1.293886349101073,131.56860980155793 1.3473245375085865,131.2775422222823 1.3893928985953525,131.1835516496286 1.7414785513396818,130.65599166203629 1.9673591207340597,130.23151810859284 2.018144349432693,130.14965535188344 2.065897624225012,129.9889617925976 2.182627851339508,129.81007650932747 2.3050429921602626,129.64331904204687 2.455882701281474,129.34921950845762 2.5570741644361275,129.14911054783838 2.7731008835303315,128.84894710652546 2.9455432645616693,128.65793400758207 3.155506075796654,128.33351493474194 3.4496056091599914,127.83021057863165 3.5822535945687126,127.64222943341458 3.8460335883648766,127.36935357789736 4.195087287157007,126.94488002445391 4.384963403413491,126.71445152417712 4.469479119831048,126.5598218725246 4.55285785347135,126.37184072744304 4.744249946749114,126.1323163652193 5.085344766370835,125.6775232723894 5.217234763247033,125.55018120657775 5.3665584954380305,125.47135040359467 6.247341118506763,125.10448397537854 6.7942298126799,124.7649051330033 7.487031290712272,124.05239595405573 8.4091242864249,122.88812563645635 9.384276476346901,121.72991922662584 9.424070871923632,121.68443991752358 9.811023995118255,121.25390245617572 10.360565648954386,120.92645142947373 11.132197929743237,120.81730108719456 12.063007793159501,120.60809626440245 12.490513300328546,120.35947604036727 13.406921382381505,119.87739536201276 13.510386811000307,119.47414548618953 13.5422223274984,119.11940687396292 13.54449629296255,118.98903285397317 13.777198758839031,118.42508941890927 13.87043134282398,118.10976620769982 14.050074614491793,117.9278489707034 14.137243290662703,117.80353885861804 14.278987137928024,117.51247127907136 14.474169173555676,117.20018002204002 14.610228107160623,116.95459175191186 14.691332875381955,116.5968211856427 14.745529052277519,116.40277613265677 14.833455716891299,116.17537958624182 14.827391808986901,116.05713338206085 14.815263993177398,115.99346234906467 14.770163678139138,115.39010351253182 14.821706895326527,115.16877087402126 14.816021981711334,114.92924651193306 14.750834971693868,114.82312812369643 14.491981903024849,114.50477295862515 14.310443660136912,114.28040836611721 13.925764502496799,113.72859274672658 13.805244332896875,113.58912286506094 13.52137764412221,113.24348011464576 13.317857735035648,112.95847644300348 13.116990785747621,112.7007603571569 12.936210531302557,112.46729990270201 12.896795130014324,112.36724542241497 12.898311106900064,112.31873415913459 12.954023260771727,112.14591278390441 13.133666532529897,111.53649003928645 13.228036099246923,111.24845441391787 13.290949143755059,110.95435488064489 13.31330980415253,110.85126844631529 13.322026671765103,110.56929672871557 13.361442073098514,110.42376293901 13.49522704123931,110.10843972793609 13.603240400831593,109.90833076722647 13.692304048177448,109.74460525376253 13.804486344363646,109.63242295753115 14.011038207402406,109.42625008869123 14.160361939502337,109.3049719305129 14.371082739226079,109.0927351539493 14.414667077243765,108.98964871961971 14.43210081246891,108.94113745633935 14.482128052725379,108.71980481769324 14.511689603714144,108.41964137665141 14.557926901530363,107.85872989531381 14.668972214984485,107.43122438800853 14.680342042350413,107.27659473649153 14.712935547291375,107.08861359159071 14.799346234929057,106.73993888695226 14.867944193097568,106.47009498529687 14.883861951346613,106.06987706369692 14.956628846199399,105.32704834531772 15.011583011583012,104.95714996310421 15.058578297842102,104.6782101996826 15.126797261766587,104.3659189425157 15.163559703482184,104.12639458029196 15.18250941568343,103.75346424417143 15.183267404172186,103.51697183580953 15.149915910652107,103.17132908521361 15.138167089132514,102.78323897955799 15.073738067603099,102.64073714357873 14.992633299382472,102.54371461728907 14.770921666627189,102.3678612880615 14.593552360423526,102.19503991269579 14.321813487457659,101.86152497804422 14.192197456001843,101.68567164881665 14.073951251910541,101.51588222731277 13.965558898074235,101.31274131256059 13.936376341284317,101.20965487823099 13.929175450693023,101.15507970718177 13.893170997465475,100.97619442391165 13.716180685505838,100.60932799555998 13.551697183599025,100.32129237032694 13.433071985263698,100.03628869868467 13.317099746548305,99.67851813227996 13.227278110758872,99.52692043467 13.134424520927588,99.39654641468024 13.117748774234967,99.31771561196824 13.127981618779165,99.2813321646774 13.163607077717508,99.23282090139702 13.22083520856527,99.18734159211402 13.364095032852575,99.11760665121345 13.774924793329701,99.01148826288647 14.04135774687922,98.92052964423013 14.738328161641045,98.51121586077358 15.223061799748915,98.23530805125897 15.627448658123505,97.95940024156366 15.906767415969163,97.79264277410233 16.292962550631263,97.49854324064863 16.90011132955918,97.04981405590385 16.981216097780514,97.00433474648531 17.149489542128286,96.91640808187154 17.455716891299712,96.7253949830637 17.770282113840395,96.55863751560237 17.913541938081817,96.46767889694603 18.113650898972153,96.30698533752465 18.32133974465263,96.19177108725071 18.435796006393332,96.10687637676985 18.60179548523107,95.94315086321555 18.843593812964144,95.60357202052404 18.89021010497921,95.54596489561297 19.030816969467278,95.35495179666958 19.2885330554494,95.1002676645493 19.35940497903688,94.98202146054906 19.48333609683303,94.639410663815 19.54208020465689,94.39079043964429 19.611815145557475,94.11791458399153 19.577705663595236,93.82684700471593 19.539806239192743,93.61461022788126 19.510244688248452,93.27199943146346 19.48409408536626,92.88997323326043 19.512518653668128,92.74140748982857 19.608025203162406,92.52310680517985 19.770234739559893,92.2259753179095 19.903640713456664,91.95006750834972 20.046900537743262,91.72267096193477 20.166662718855136,91.50133832328868 20.383826420636236,91.19814292806873 20.49752469384371,90.97681028955819 20.589620295186947,90.6827107562852 20.71923632664347,90.31584432806909 20.761304687685055,90.14302295270336 20.770021555342808,89.97626548524204 20.726437217234764,89.82163583390577 20.62069782315181,89.61243101106848 20.51571641755691,89.3274273394262 20.37094061633939,89.13035033271396 20.259895302840793,89.02423194420626 20.18182248861684,88.95146504957938 19.884691001254712,88.74226022674209 19.728924366961177,88.63614183855064 19.43558282208589,88.43603287766031 19.38707155894106,88.40268138405058 19.10964777222446,88.18438069944705 18.91181277684345,87.9569841530321 18.813274273396974,87.81145036332653 18.666224506760482,87.45367979705736 18.614681289527915,87.31724186916321 18.585877726982023,87.14745244797558 18.591562640642394,87.05346187527668 18.618471232013345,86.9655352106629 18.716251746926595,86.56834924319587 18.725726603027216,86.5259018878199 18.83563493379444,86.0589809791812 18.895895018595112,85.89222351171988 18.971314873155364,85.59509202440434 19.13504038657413,85.1493947935214 19.196437454151347,84.99779709591142 19.33704431863941,84.68550583874453 19.41246417320037,84.44598147665633 19.43861477603809,84.28831987114195 19.28625908994007,83.6273539093366 19.43709879910717,82.54191439444924 19.398820380460652,81.99313072923668 19.410948196224975,81.94765141981816 19.76075988345927,81.56865717579323 19.76151787194732,80.83492431954171 20.13748016202004,79.85863514684317 20.278845015041334,79.02181585612651 20.37094061633939,78.16377288747337 20.279603003529385,77.46945543241972 20.1128455362036,76.77210602359459 20.246251510055192,75.72304995617878 20.37018262785134,75.05905204051159 20.59530520880214,74.42840561854449 20.820806784042148,73.71589643977764 21.200180022265204,72.87301324084032 21.20700191865836,72.83056588573542 21.22784660212491,72.30300589800757 21.210412866854586,72.23630291114954 21.033043560650924,71.88762820637554 20.96634057370254,71.85730866712461 20.653291328183133,71.79666958785474 20.5505838880072,71.79363763399289 19.97110168893828,71.78150981831963 19.602340289456855,71.66629556786498 19.16990785702442,71.35097235683625 19.13200843262193,71.33581258712043 18.33384655470545,70.78096501400348 18.17656394348029,70.54447260564159 18.072340526373438,70.1412227301346 18.009806476109326,69.77738825578032 18.0185233437219,69.38626619581107 17.993130729371522,69.32562711685745 17.926048748134637,68.71317241864871 18.083710353649003,68.07646208850613 18.19740862685648,67.49735888359088 18.215600350569677,67.17900371865512 18.164815121960697,66.73330648763664 18.16216216216216,65.8904232889704 18.163678139183443,65.85100788763698 18.175047966459008,65.44169410422562 18.18376483416265,65.31738399214026 18.18755477651183,65.04147618258048 18.165573110358388,64.76556837288516 18.14018049600801,64.64429021479718 18.10266006585025,64.44721320781386 18.023071274605016,64.2501362009209 17.888907312265374,63.968164483456725 17.82599426775724,63.91358931213642 17.780893952673093,63.86204609512975 17.67439657014727,63.740767937041774 17.56865717601914,63.60129805528579 17.464433758912286,63.44666840349772 17.3405026412065,63.28294289021449 17.234763247033186,63.034322666043785 17.186251983797995,62.64926451425001 17.176019139254503,62.57346566544503 17.137740720607987,62.45218750735705 17.126749887486085,62.29452590184268 17.130539829926335,62.255110500238196 17.171850202524343,62.058033493525954 17.19193689750355,61.87308430230626 17.292749366414178,61.71542269679189 17.390529881373315,61.48196224247254 17.446242035199795,61.40009948576316 17.55994030840586,61.2818532815822 17.65582585219005,61.087808228867345 17.677428524099472,60.97259397845787 17.764218205935997,60.7361015702315 17.781651941206324,60.69365421503625 17.82675225624529,60.572376056812736 17.854797830303134,60.29343629339111 17.88398038704787,59.899282279514836 17.900656133784967,59.52028803548992 17.875263519434593,59.356562522206694 17.794158751259147,59.12007011370925 17.77672501598882,58.91996115281891 17.781651941206324,58.72288414610667 17.78316791813724,58.64102138935211 17.778240992964214,58.48942369174214 17.733898666414003,58.331762086227776 17.667953667998848,57.94064002625852 17.634602174480182,57.822393822348644 17.58192197456001,57.70111566417031 17.516734964632906,57.543454058655946 17.418196461141953,57.34334509790114 17.368927209508367,57.14020418310379 17.284790487244475,56.85520051164223 17.265082786554473,56.736954307461275 17.22187744273634,56.61870810314478 17.158585403984176,56.49742994523753 17.10022029044952,56.3367363856806 17.048677073216243,55.93651846389993 17.030485349548933,55.78492076628996 16.99144894236919,55.66061065420461 16.974773195632093,55.54236445015919 16.974773195632093,55.27858445627267 16.957339460452125,55.163370206134275 16.90390127204461,54.79953573182517 16.89442641594399,54.757088376449204 16.837198285096225,54.56304332373434 16.811047682213328,54.362934362708465 16.860316933981746,53.971812302874746 16.851600066323993,53.5624985194182 16.812563659234605,53.210791861098606 16.80725773977308,53.15924864364014 16.791339981524736,52.74690290632175 16.77125328663589,52.671104057516764 16.744344695264942,52.595305208711785 16.6101807329253,52.39822820168329 16.5870620839946,52.358812800349874 16.539308809246755,52.23753464230708 16.474121799320354,51.9585948785692 16.441528294289032,51.879764076037915 16.32479806713006,51.81912499690357 16.25961105720225,51.51592960168363 16.24445128744125,51.46741833858398 15.940876897977292,51.00352938380712 15.90979937001243,50.98230570605137 15.620626761731057,50.35772319203384 17.130539829926335,50.13942250724959 17.19648482838667,50.148518369196545 30.94677499585475,49.93931354663033 32.243693298953204,50.063623658444605 33.13736172636396,50.306179974710915 33.15555345003198,50.360755145760145 41.99066726678607,52.68626382736812 46.49387687429015,53.941492763443115 50.02837719406654,54.95719733733954 51.23964279792501,55.06331572584723 60.67243053746121,54.77831205420495 67.4007153516356,52.707487504988336 68.01354904422318,52.410356017672804 69.81604566880641,51.53412132544201 70.17684818911813,51.01565719948038 70.18404907979978,50.97017789037811 70.23104436601369,50.90953881124376 70.79195584717057,50.61543927783524 70.88253547153771,50.55480019874608 71.51772982456865,50.23947698785289 72.31020678877958,50.04239998082439 73.24177464059213,49.93324963859039 77.74346827107563,49.19345287443447 81.44586304095506,48.95089655816816 83.04976668166852,48.20806783996968 83.05279863562072,48.17774830026697 95.27384702849344,44.57578700523486 99.26768837198286,43.0901295683861 99.93547622999994,42.32607717243186 100.0018002227043,42.19570315257765 101.14408887415023,40.349243195597886 102.58843593817437,38.1450126724845 103.35779425350049,36.86856005847303 104.41632517706137,34.737096430122065 104.9673828078736,33.22415140792941 105.34561906345566,31.78397328063472 105.62455882701282,30.756140890929498 106.92981500343464,27.55742947140436 108.86912855011015,22.791197858501803 109.59149157922235,21.102399507036406 110.53026032167136,19.49243195855409 111.16128573797286,18.792050595686398 111.70248951844044,18.32816164095472 112.17471634649549,17.773314067521518 112.6283724566385,17.351872468391704 112.89556339863088,17.29426534320956 113.28175853333745,17.24272212588663 113.69524125352346,17.075964658560846 114.02572423431319,16.77580121724793 114.3713669849091,16.508989269635105 114.62567212260464,16.34526375617116 115.09941492763649,16.02690859128059 115.3139256697546,15.875310893670623 115.57088376720279,15.61153089964856 115.70770068934097,15.393230215316105 115.68306606347934,15.117322405620785 115.20667029869485,14.768647701117859 114.70147097140962,14.383589549053003 114.25160480379722,13.962147949652113 114.18300684567389,13.87725323921643 114.14245446147287,13.846933699513718 114.10266006585024,13.810550252042146 114.05604377388036,13.749911172952979 114.00412156240448,13.686240140092332 113.96925409195347,13.640760830718982 113.94234550067289,13.59528152161671 113.86578866333467,13.41336428430403 113.840396048985,13.343629343403446 113.81424544614728,13.261766586694064 113.80060165340757,13.201127507740436 113.79377975701512,13.13139256683985 113.78165194120632,12.997986592807539 113.77861998725342,12.934315559946892 113.77710401023285,12.834261079388774 113.7752090390579,12.731174645059177 113.77141909661765,12.540161546251335 113.79377975701512,12.421915342070381 113.80628656706794,12.385531894463272 113.82447829073595,12.349148447262777 113.85176587630575,12.303669137753888 113.8923182604616,12.255157874609058 113.92794371935476,12.215742473275647 113.95485231072571,12.179359025804075 113.9866878272238,12.124783854619306 113.99616268332443,12.091432361325833 114.00412156240448,12.021697420289708 114.01208044157347,11.973186157009339 113.99616268332443,11.909515124013152 113.98213989625033,11.873131676677119 113.9438614776038,11.821588459399372 113.90255110500509,11.7761091502971 113.84115403751824,11.73062984087857 113.78506288944773,11.712438117300913 113.73162470094915,11.709406163122816 113.65127792126175,11.700310301492117 113.57093114148329,11.700310301492117 113.45344292592593,11.703342255218416 113.40000473742805,11.706374209396515 113.32382689442422,11.712438117300913 113.22756235639672,11.718502025069773 113.16010138096027,11.718502025069773 113.10438922708862,11.718502025069773 113.0464031077528,11.715470071162754 112.96946727626093,11.712438117300913 112.90731222019565,11.709406163122816 112.83833526778312,11.709406163122816 112.63481535878621,11.703342255218416 112.2357344197835,11.58509605130854 112.0595020963571,11.357699504893588 112.04964824596726,11.16971835985723 112.17850628893574,10.927162043590922 112.31380723405263,10.724021128658027 112.33503091176321,10.420825733438091 112.30092142975579,10.220716772818832 112.2008669493332,10.020607811792956 111.95110974252079,9.832626666892136 111.76350759177292,9.796243219420564 111.55695572873486,9.85991425255229 111.30833550470041,9.896297699843142 111.0680531539879,9.72044437061558 110.97823151810881,9.365705758208255 110.8577113485089,8.998839330037315 110.64206362370389,8.580429684498265 110.50069877063743,8.413672217353199 110.22100101854703,8.071061420483595 111.02295283890376,7.491958215839417 111.50200156335055,7.058388800494191 113.20558069024398,5.363526541259933 113.9908567638629,4.420588862035576 114.661676575787,3.6383447426392213 115.34045526683563,2.9258355636916553 116.25686334893307,2.228486154595445 117.08799772607972,1.6827344432447415 118.02676646848356,1.1460785937054565 118.9067911031553,0.7094772247694685 119.56245114527394,0.4244735531271906 120.35379112684315,0.20314091461663797 121.13755122353115,0.1030864343295983 121.7886633346756,0.04851126309965071 122.50003553071038,0 123.83523225241017,0.16372551328322604 124.48710235213302,0.36383447417356285 125.15451121590539,0.7852760735744523 125.65137266977757,1.2097496267016428 126.03453585048678,1.6039036405779177 126.81109505649454,2.5620010895180925 127.17038159982945,2.9379633795004527 128.12014117540107,3.6171210648834666 129.36058933609465,4.081010019615147 130.5066679299808,4.375109552933305 131.92486439112207,4.629793685008409 133.56780443901528,4.86628609305406 139.2076177843056,5.293791600494887 139.34519269488595,5.302887462170767 140.81152142501836,5.354430679448515 141.02300021318356,5.37868631097575 142.8103370680058,5.581827225863466 143.74190491981904,5.678849752424204 144.909586185705,5.8092237722784175Z"/></svg>