<svg xmlns="http://www.w3.org/2000/svg" width="256" height="256"><path d="M200.95216048201138,15.086411614376095 203.455606061721,17.488306491848718 205.1069087898226,18.43022605131624 208.8103206421199,20.48282575849898 211.95544892181854,22.684562729242636 213.61116689785626,24.336846623727705 213.74166200352323,24.423189249916707 213.7764934039665,24.45066190368285 214.10616524980352,24.666518469564732 214.8547950665246,25.192423557006226 217.77768920022314,27.303893236611824 218.0401511609276,27.523674467442756 219.35589504582708,28.52838866428219 224.21953593899292,31.197160750219926 227.66686341088032,33.02212989690756 228.37575599623494,33.66577492942869 230.2885395187745,32.99073257860173 246.2197352383748,31.652421870800776 248.3101098446249,31.49935994229081 251.10152770644845,33.48524034715258 251.15892592961868,33.48524034715258 256,37.22152126730166 253.9042289796058,39.544922848074016 253.6775795856111,39.878519358626164 252.95936592128027,42.29611289542715 251.8320059482626,43.587327625243034 251.08288554843756,43.09281985610736 250.6374360899954,42.94368259272189 250.02224487762388,43.132066504662184 249.43599806827206,43.171313152983075 248.54264623592618,43.18701181236992 248.42981212194513,43.12814183953768 248.13644342574645,43.281203768047654 247.7837141739624,42.92013460349543 247.51732754860132,42.50804479641845 247.34120821420282,42.27648957120822 246.9698368044079,42.005687697618605 246.43559180413973,41.95074238991087 246.06863564239785,42.060633005501785 245.7590777037668,42.27256490625916 245.59816644559265,42.460948818199455 245.53537180827922,42.60223675209619 245.5388058900073,42.87696329057638 245.61582743739552,43.20271047152283 245.76104003612437,43.43034103160856 245.8822140628151,43.614800279009174 245.89987505455952,43.80318419071554 245.8547414089914,43.97586944332747 245.70952881026167,44.43113056390832 245.67126332809124,44.6469871297902 245.66537633095913,45.32987881063223 245.51476731791075,45.63992733242577 245.37298880085152,45.836160574030245 245.12622549953392,46.05986646916693 244.6694926296995,46.3502916668585 244.42223874533636,46.49550426570429 243.79282062289002,46.90366940824159 243.36895682096588,47.11952597412347 242.80184275272805,47.33145787488085 242.35246862951323,47.515917121872086 241.7976191388775,47.95940424801515 241.1794844278225,48.48923400023025 240.61040802711108,48.9444951208111 240.4799129214441,49.08185839016815 240.36756939062553,49.305564285538765 240.37198463856166,49.51357152134709 240.388173880994,49.717654092791186 240.36756939062553,49.980606636541175 240.34205906927545,50.15329188932855 240.2606222740096,50.278881163663 240.11246617659822,50.47118974055234 239.99423564853151,50.6046283447849 239.89366611215075,50.64387499333972 239.85834412866194,50.65957365249263 239.30496638733734,50.80478625127994 239.79456832519898,56.75457813661046 237.78661168048126,60.43591374928574 244.83285680333523,65.85980054735022 246.15792176726939,66.87628873880287 248.86495933526152,69.02700506678785 247.62721816384135,69.8197873628699 245.34306323150685,71.36610530647918 243.6024743784752,72.42184014631123 241.81331779820493,73.34806104662584 240.893474478184,73.94853476622792 240.27092451913626,74.46659052400524 239.7739638348305,74.72954306752129 238.00982699274786,75.2005028474305 236.81918179931273,75.58512000097527 235.45192668849208,76.1110250885922 234.63706815267105,76.4603202585312 233.39343998400273,77.05294464829365 232.04875169590812,77.69266501586574 230.74527238854952,78.3912553560946 229.55560836132335,78.96033175663061 228.91686915990078,79.32140092112434 227.2616417669671,81.10712341966652 226.86034478788596,81.73506979303475 226.2348513302717,82.23350222653465 225.3817273123963,82.84182527562547 224.4353925048757,83.48939497286173 223.3703365859505,82.80650329219515 222.86013015783644,82.46505745156945 222.44853093363045,82.15500893000983 222.2262967874549,81.98624834234695 221.03712334333184,80.95013682661688 220.69273400425752,80.6911089476405 220.38366664878896,80.4399303983283 220.00101182760176,79.66677142652365 219.57027986233845,79.17226365756343 218.73677916856496,78.9171604435361 218.56360333290843,78.89753711925869 218.40956023818953,78.82296848744899 218.24570548150828,78.64635856994649 218.1235502885501,78.27744007590553 217.86746590825717,77.84180227942664 217.72225330952836,77.7593843181867 217.4475267712821,77.69266501586574 216.7759185018314,77.55137708196901 215.87667967217985,77.52782909315191 215.1236346075227,77.44933579621771 213.3281004468418,77.19423258219038 212.25077995043327,77.10396529105233 211.56052952314803,77.13143794481847 211.49577255341856,77.13143794481847 211.25293391687455,77.13536260994297 210.95564055590137,77.19030791741677 210.89186475232233,77.19815724708096 210.60585480268384,77.20993124151875 210.59555255755808,77.26095188427742 210.570042236091,77.28449987350389 210.43709421496246,77.33552051608712 210.25901254814792,77.3433698457513 210.20553898981072,77.35906850507966 210.15648067940958,77.38261649430612 209.90922679504644,77.54745241701995 209.68012448547321,77.71621300503372 209.45249392515356,77.8731995983173 209.21505170292912,78.03411085631599 208.99772338779368,78.21857010330723 208.81473588993904,78.43835133390424 208.66559862631965,78.60711192197648 208.64499413595118,78.6345845755087 208.61899323143857,78.65420789961067 208.59348291008848,78.67383122388807 208.5812183324882,78.70522854277873 208.5792560000137,78.74839985587322 208.53363177134062,78.99172907546277 208.50910261614007,79.03490038861575 208.48015821300342,79.06237304232342 208.44827031124268,79.07414703676119 208.4011743333161,79.07807170171024 208.34328552704278,79.09377036086316 208.31483170701014,79.10554435565184 208.04304866732946,79.25860628392788 207.88066565990178,79.39596955293405 207.8659481668984,79.42344220670019 207.8566270878637,79.45091486064177 207.84975892434906,79.47838751458336 207.82375801989494,79.72956606389556 207.78794545330214,80.49880037075116 207.75605755148294,80.64008830488181 207.73545306111447,80.67148562336308 207.70552749182826,80.69895827712924 207.66971492529393,80.72643093107082 207.41363054488312,80.90696551352238 207.18894348324602,81.07572610118525 206.93580260157626,81.22486336474617 206.90538644912755,81.25233601851231 206.88036671088148,81.27980867245391 206.86074338666253,81.31120599111061 206.75183393757206,81.44856926011678 206.69198279894118,81.49958990287546 206.4918248925046,81.65657649650993 206.47122040213614,81.68404915027607 206.3858589420382,81.79786443040666 206.35495220642701,81.8253370841728 206.10867948821343,82.00194700149987 205.849651609354,82.1432349353966 205.52243267897856,82.30414619357074 205.2428003096337,82.45328345713166 204.97592310105162,82.61027005059069 204.75810420292913,82.77118130876482 204.50398215505135,82.9242432372748 204.22631211818103,83.05768184150735 203.89271560739496,83.12832580854344 203.588063499804,83.15187379718509 203.26329748494862,83.16364779197376 202.95864537741616,83.16757245651344 202.72905248468047,83.16757245651344 202.68097534054584,83.17149712163794 202.3483599959678,83.19504511045504 202.04517963768888,83.19504511045504 201.99955540901584,83.20681910506826 201.90634461925373,83.23429175883442 201.64878848964787,83.35595636845373 201.57471044094126,83.37950435762171 201.54380370538948,83.37950435762171 201.216584775014,83.37165502795754 201.0277102799697,83.34025770930083 200.97718022031503,83.32063438502341 200.70834067925844,83.24999041798732 200.39780157441936,83.24214108849858 200.3516867627008,83.23429175883442 200.30410020155324,83.2185930996815 200.0573369002941,83.12832580854344 200.0180902519147,83.12440114341895 199.64083184493012,83.11655181375477 199.3194999118028,83.10477781949243 199.2042128823602,83.10870248426603 199.16741914955935,83.10870248426603 199.0334899621643,83.10085315460185 198.71362977834903,83.08907915998861 198.3957319269498,83.08122983032445 198.23825475067915,83.07338050083571 197.9100546540372,83.03413385228089 197.58823213786528,83.0262845226167 197.4891343507956,83.0302091877412 197.38856481441485,83.03805851722994 197.24040871706194,83.04198318194507 197.18693515872565,83.05375717638286 197.13051810170498,83.07338050083571 196.8327341575702,83.16757245651344 196.76503368927513,83.18327111601725 196.73020228883186,83.18327111601725 196.41034210507505,83.17542178635307 196.0821420084331,83.20681910506826 195.7755275684261,83.2735384071553 195.73088450601958,83.2774630719289 195.69310960695225,83.2735384071553 195.65484412483937,83.25391508311182 195.62099389072108,83.22644242934568 195.58714365648584,83.18719578079086 195.50472569501196,83.0969284896528 195.47480012566726,83.08122983032445 195.44193105781548,83.06160650604703 195.1681856856603,82.92816790181448 194.98323585550656,82.80650329219515 194.9493856212713,82.79472929758192 194.91749771956907,82.79080463280832 194.88659098395786,82.79080463280832 194.54808864219015,82.779030638429 193.75138168127603,82.75940731397615 193.55612960593805,82.75548264920255 193.49971254897676,82.74763331953837 193.44918248920513,82.72800999567033 193.40699234226017,82.70053734172873 193.3648021953737,82.64166736907195 193.1940792751184,82.41796147387679 193.14354921546467,82.39833814959937 193.08516982602885,82.3944134847088 192.85852043197661,82.40226281437297 192.8163302850892,82.41011214403716 192.43171313154446,82.50037943517522 192.389522984541,82.50430410012427 192.34733283759604,82.50430410012427 192.12607985774548,82.51215342978844 191.76697302555084,82.57887273170005 191.48390657459487,82.6730646879626 191.1733674697558,82.82612661647256 190.85939428313017,82.93601723147866 190.59496999006814,83.06160650604703 190.43651164753194,83.10085315460185 190.37616992573766,83.0969284896528 190.31533762089873,83.08122983032445 190.23929723966003,83.04590784689412 190.18386134896525,83.02235985807702 190.12401021021742,83.0105858634638 189.9665330338883,82.97526388003348 189.87185049475568,83.0105858634638 189.84290609161903,83.0262845226167 189.7379213074191,83.06553117117153 189.69278766185008,83.06160650604703 189.59418045788536,83.05375717638286 189.50244141743528,83.04590784689412 189.16737315739564,83.03805851722994 188.97163049889517,83.03805851722994 188.64539273472775,83.12832580854344 188.60565550336042,83.15187379718509 188.37802494304165,83.37950435762171 188.33779712851273,83.40305234667274 188.08367508063589,83.55611427518271 188.00763469951323,83.58358692894885 187.97574679781098,83.58358692894885 187.6504901997931,83.57181293433561 187.45425695818864,83.56003893972238 187.4101044788276,83.54041561562042 187.38214124189898,83.52079229175239 187.27225062665897,83.47762097842396 187.20847482307903,83.48154564319756 187.17119050723358,83.49331963781079 187.13194385885237,83.5090182969637 186.87193481378586,83.68955287941526 186.70415539221403,83.90540944529714 186.59426477691554,84.01137539576355 186.2277991981607,84.00352606609937 185.91480717780067,84.00352606609937 185.604268073021,83.98782740671254 185.5880788305886,83.94858075839164 185.26478456498677,83.94465609326714 185.04058808651214,83.94858075839164 184.83061851793687,84.01137539576355 184.72563373373697,84.05454670885806 184.6824624205255,84.05847137357318 184.63732877495647,84.06239603834679 184.40184888503111,84.05062204373355 184.35622465635808,84.02707405491647 184.25369278761974,83.96035475277094 184.23603179593383,83.93288209882935 184.2227860521255,83.90540944529714 184.11338601993012,83.68170354975108 184.09180036335545,83.65815556052462 184.06432770952992,83.65030623086044 184.0280245597746,83.64638156632076 183.73514644667995,83.62675824204335 183.69982446324963,83.61105958289043 183.66891772763842,83.59143625861303 183.63948274139776,83.56003893972238 183.48298673127576,83.40305234667274 183.20384494503583,83.24999041798732 183.16165479809086,83.23429175883442 183.12191756666596,83.22644242934568 183.079727419721,83.22644242934568 182.95119464652856,83.23036709388536 182.90998566573313,83.24606575321371 182.87073901752922,83.26568907731568 182.7598672359642,83.30493572587051 182.71963942137774,83.30101106109689 182.67843044069835,83.29316173125727 182.64654253887915,83.29316173125727 182.61661696959294,83.30886039076107 182.5876725664563,83.34025770930083 182.52095326425228,83.39912768189913 182.4777819511578,83.42267567095014 182.30166261681777,83.51686762662789 182.25652897124874,83.53256628595624 182.03723832369727,83.60713491776593 181.95187686359932,83.63460757170752 181.81304184516418,83.65423089598494 181.5731467073027,83.64245690119625 181.498087492389,83.6228335770943 181.14830173928752,83.567888269562 180.91723709723976,83.57181293433561 180.8441402147421,83.59143625861303 180.72689085288252,83.63853223642265 180.47669346983773,83.78766950021749 180.17940010886545,83.94465609326714 180.05086733555694,84.00352606609937 179.97482695449278,84.01530006030323 179.92086281299308,84.01530006030323 179.80066995251033,84.03492338440519 179.7422905631915,84.0820193626242 179.70304391481304,84.10949201656578 179.66085376792563,84.12126601076965 179.610323708154,84.12126601076965 179.29242585681325,84.11341668110546 179.15751550320925,84.11734134605452 179.08981503479816,84.14873866453578 179.04762488791167,84.18013598342642 178.95392351504555,84.23508129113416 178.92645086116244,84.24293062079835 178.72972703645488,84.3174992523741 178.49424714652858,84.38029388992148 178.4324336754232,84.39206788418382 178.13317798197727,84.45878718644629 177.91192500206733,84.58045179629954 177.88199943278113,84.61577377972986 177.82411062644934,84.66679442248855 177.79124155848058,84.67856841710179 177.7480702453861,84.69426707625469 177.64946304147983,84.72173973002083 177.61365047482855,84.7570617136266 177.53957242618134,84.90619897718751 177.5322136795627,84.94937029045747 177.50326927642604,85.2083981692584 177.46843787604124,85.42033007042515 177.45175805050485,85.45957671874605 177.43017239392745,85.49882336694998 177.40171857389572,85.5302206856067 177.26239297235654,85.67543328427703 177.20695708160326,85.70290593804317 177.16771043339844,85.69898127326957 176.9891381834223,85.6911319436054 176.91064488678052,85.68720727889027 176.87286998783105,85.69898127326957 176.8316610070923,85.71467993283186 176.7389408003766,85.73822792164894 176.68644840824834,85.73822792164894 176.3636447258081,85.73037859198477 176.1060885962022,85.72252926249604 176.05899261827562,85.70683060316767 176.01238722333608,85.6911319436054 175.76169925718636,85.54591934499354 175.7141126960973,85.47135071300839 175.71852794403338,85.43995339446863 175.72245260886547,85.37323409220615 175.68664004233113,85.3261381141626 175.65965797155204,85.3025901253455 175.42123458306017,85.12205554289395 175.36530810914442,85.10243221879199 175.33145787502704,85.08280889492394 175.26866323765424,85.00824026293881 175.1842829438237,84.9218976367498 175.01650352225187,84.81593168604947 174.80359045511102,84.82378101594757 174.691737507338,84.82378101594757 174.61324421069622,84.82770568048724 174.45184236953503,84.85125366965524 174.34391408659408,84.86302766409301 174.16779475225408,84.88265098819498 173.82095249771817,84.97684294439905 173.65758832408244,85.06318557064654 173.4015039438471,85.18485018026587 173.36029496311016,85.19662417487909 173.04337827786046,85.23587082319999 172.73578267170393,85.23587082319999 172.5886077405006,85.22409682882069 172.55966333736393,85.20447350454327 172.5135485255284,85.1534528617846 172.30456012321963,84.94544562556689 172.18632959515296,84.88265098819498 172.15149819488605,84.87872632359682 172.12549729031406,84.86302766409301 171.97636002663617,84.79630836218142 171.82918509543282,84.77668503790402 171.4990226664333,84.77276037313041 171.4548701870723,84.78060970279459 171.12863242296334,84.86302766409301 170.82643323089246,84.9179729716253 170.5114788781173,84.98076760899721 170.3706815272067,84.96899361473487 170.2612814950716,84.93759629607815 170.23282767503895,84.92582230128949 169.9762527116411,84.79238369705692 169.69858267482925,84.65109576316019 169.42483730267406,84.52550648841637 169.1893574127487,84.44701319206699 169.14324260097166,84.44701319206699 169.0441448140199,84.45093785678212 168.58839311033594,84.52550648841637 168.24694727000173,84.58437646119012 167.8373103781524,84.65109576316019 167.4948833715526,84.72566439514533 167.43503223280476,84.7374383893492 167.17600435394533,84.79630836218142 166.83750201211916,84.89050031785916 166.6378346887866,84.93367163095367 166.3228803360105,85.00431559798976 166.27872785665042,85.0357129168804 166.0741547022787,85.17307618600353 165.7685214285373,85.34576143844001 165.5708164375623,85.47527537813289 165.469265735032,85.60086465246734 165.2377105099972,85.79317322935668 165.13665039051241,85.85989253161917 165.02038219492024,85.914837838976 164.8692825988839,85.9580091524214 164.8290547843559,85.9580091524214 164.49693002294032,85.96978314668374 164.44934346190882,85.98155714129697 164.14420077109781,86.06397510294629 164.11329403560268,86.06397510294629 163.79932084909493,86.06005043782179 163.47406425101855,86.05612577322363 163.43923285069224,86.05612577322363 163.37545704711232,86.04435177866888 163.31903999015103,86.02472845439146 163.2694910966459,86.00118046557438 163.22828211590897,85.97763247634792 163.19443188173219,85.95408448753082 163.16744981101158,85.92661183358923 163.16450631244598,85.66758395461285 163.17088389273965,85.40463141086286 163.11741033440245,85.17307618600353 163.08110718470562,85.11028154845617 163.05854036197957,85.07888422979946 163.0310677080974,85.05533624098236 163.00016097254377,85.0357129168804 162.96827307084152,85.02001425755203 162.90449726726158,85.00431559798976 162.73328376396168,85.00039093327463 162.69354653253677,85.00039093327463 162.66558329566664,85.00824026293881 162.64792230386374,85.0317882517559 162.62535548113772,85.0514115760333 162.46689713848363,85.11813087835428 162.42078232676505,85.12990487255813 162.1853024367812,85.31043945483424 162.09552572874716,85.36146009794382 161.72219198665314,85.34576143844001 161.65743501686518,85.34576143844001 161.57599822159935,85.35753543305324 161.43618203701465,85.40855607563647 161.1884375694305,85.62048797656931 161.07216937383834,85.71075526770736 161.04224380443517,85.73037859198477 160.84846347835077,85.77354990507926 160.7837065086213,85.77354990507926 160.6880428033976,85.78139923474345 160.57079344148045,85.85204320195498 160.55362303284005,85.87559119100601 160.53498087488762,85.9187625041005 160.62328583360963,86.05612577322363 160.70030738099788,86.14639306436169 160.77781951143163,86.29553032798108 160.8062733314643,86.35047563563033 160.82687782183277,86.53885954757062 160.80872624692586,87.31986784909793 160.80038633415768,87.37481315680566 160.74691277582045,87.48862843693625 160.6129835884254,87.69663567292002 160.45550641203783,87.90856757391133 160.2744812467162,88.14012279894612 160.04537893714297,88.31673271627318 159.82510712344194,88.50119196361531 159.7961627203053,88.52473995266632 159.76623715090213,88.54436327653437 159.73434924919988,88.55613727097214 159.70246134743917,88.56398660063633 159.67057344561994,88.56398660063633 159.3526755942198,88.56006193609664 159.2942962048434,88.55613727097214 159.24180381271418,88.53651394687019 159.20255716439328,88.51296595787765 159.17361276125663,88.48941796906055 159.13976252707985,88.44624665573212 158.99062526351895,88.36775335903187 158.71687989148072,88.25393807890127 158.68499198977847,88.24216408446348 158.45785201250433,88.2343147547993 158.1355389131699,88.23039009025962 157.79948948692135,88.21861609547095 157.7685827514262,88.21469143087279 157.5738212590762,88.12834880433289 157.52868761350717,88.10087615056675 157.38347501477836,87.97136221128325 157.35060594675204,87.93604022785293 157.16222203481175,87.84577293653942 156.84873943140616,87.76335497489009 156.54408732375674,87.72018366197105 156.50925592343043,87.71625899719743 156.44449895370096,87.70056033769363 156.22324597379193,87.58674505773848 155.93085844374278,87.43760779417757 155.6806610606971,87.35911449724337 155.64877315893636,87.3512651675792 155.5491847888815,87.34341583791502 155.45842691463852,87.33949117337534 155.30732731860306,87.3512651675792 155.2774017491999,87.36303916219242 155.0399595268585,87.53179974985531 154.83293345702427,87.71625899719743 154.72598634029134,87.80260162344491 154.60873697849115,87.86539626081684 154.57096207948138,87.87717025502069 154.45763738245572,87.94781422205678 154.40514499026804,88.03023218353066 154.3815970012755,88.09302682090257 154.35069026578128,88.2343147547993 154.34627501784428,88.27356140335412 154.27857454943316,88.45802065016991 154.06369914987627,88.62285657346857 153.83803092203112,88.80339115568619 153.60990977866592,88.98000107307173 153.43477161059243,89.10951501235523 153.19831055445906,89.19585763889513 152.96381183068323,89.23510428692362 152.64149873140636,89.29789892429552 152.35352644929424,89.4195635340903 152.0851774914577,89.53730347899449 151.79278996140854,89.63934476492123 151.4999118483139,89.70213940229314 151.42485263340018,89.72568739093478 151.15699425861007,89.8787493196202 151.11578527787313,89.90229730843728 150.8999287121658,89.96509194580919 150.68505331255133,89.96901661075825 150.62127750902988,89.96509194580919 150.55848287171645,89.95331795137142 150.2396038541092,89.87482465484659 150.2052630368869,89.86697532500696 149.99872755004063,89.85912599534278 149.67984853243152,89.85520133056917 149.63569605307143,89.85912599534278 149.56161800436666,89.90229730843728 149.45957671873143,89.97294127564882 149.21183225126518,90.1299278689324 149.18386901433564,90.14955119297588 149.05092099309013,90.19664717084399 149.08428064416287,90.23196915427431 149.09948872038723,90.27514046771971 149.1200932107557,90.31831178087269 149.28443855059945,90.54594234095842 149.4183677379945,90.70685359895712 149.49342695296667,90.93840882416737 149.48852112186808,91.20921069775697 149.48312470772396,91.44469058768233 149.4811623753664,91.69194447210397 149.47380362880622,92.17075358150191 149.45025563975523,93.15584445423937 149.45025563975523,93.21471442689617 149.48214354157352,93.47766697058766 149.46987896397414,93.99179806364985 149.34527085549684,94.21157929407141 149.32810044685644,94.47845650271198 149.29915604371976,94.59619644761618 149.20545467085364,94.82775167265096 149.16522685632472,94.91016963430029 149.05631740729274,95.14957418899925 148.96997478098675,95.26338946912985 148.9464267919942,95.30656078222435 148.9361245467524,95.43215005679272 148.92974696645786,95.6911779357691 148.9268034677753,95.72649991919943 148.87627340812062,95.85601385889231 148.7084939865488,96.07579508931387 148.67856841714564,96.1150417378687 148.56965896811366,96.34659696290348 148.42052170443577,96.56245352878535 148.27972435364305,96.79400875382015 148.13647408727178,97.00201598962848 147.96869466569996,97.19432456669327 147.94220317802487,97.22572188517454 147.84408655722265,97.39448247283741 147.72683719536397,97.61426370366834 147.5840775121552,97.86151758803149 147.43690258095185,98.08129881845305 147.30542630901837,98.30500471399911 147.11360831535,98.50123795560359 147.08319216290133,98.52478594483004 147.05817242471372,98.61505323590961 146.99783070280336,98.7013958621571 146.82661719950346,98.90155376865214 146.61566646483715,99.16843097711725 146.44494354469975,99.36858888349533 146.22516231398578,99.63939075708494 146.12949860876208,99.76890469636845 146.09123312659074,99.83562399868941 146.02353265829566,100.12604919597162 145.90824562885305,100.35367975640824 145.74144737348925,100.5381390036334 145.55208229528245,100.7500709043908 145.4009826993055,100.98162612942558 145.26312884707835,101.18963336564327 145.24448668906743,101.21710601958488 145.22927861290157,101.24850333806614 145.21995753386688,101.27990065695678 145.20867412247463,101.51538054653125 145.19395662947124,101.75086043669054 145.18169205187098,102.00988831566693 145.1650122262761,102.24144354070171 145.1066328368988,102.35918348578136 144.67884437026044,102.26499152951881 144.20101642683568,102.1590255790524 143.8080593606397,101.80188107927378 142.5992625922392,101.65274381588831 142.2126831063369,101.67236714016572 142.12290639830283,101.64881915111471 141.7289681657234,101.76263443130378 140.86259840403966,101.93139501896665 138.84433951419618,101.66451781050154 138.70010808155843,101.53107920603506 137.8082279984661,101.24457867335101 137.0223138658402,101.0601194263013 136.60237472880664,100.79324221748529 136.2368903163174,100.63625562443565 135.91801129871106,100.63233095931115 134.88533386476755,100.63233095931115 133.66181960336368,100.73829690995301 133.36060157750174,100.87958484408367 132.55898878554657,101.39371593691193 131.46842254538822,101.93139501896665 130.31604283406597,102.2178955516507 128.48371494052577,102.32778616689072 128.449864706349,102.33563549673035 122.97741018116287,103.18728776529373 120.65351801740347,103.67002153964073 118.75937665287482,104.06641268738935 116.58756525141827,104.38823520373764 115.6893075879729,104.44710517639442 115.3910330607926,104.36861187963567 115.30469043442815,104.34506389046769 114.61444000702595,104.18807729741805 114.34658163223585,103.96437140204743 114.09981833091823,103.94474807777002 113.82509179273046,103.99969338547776 113.50719394127273,104.06641268738935 113.20597591541079,104.4942011543795 113.08823597050568,104.64333841799889 113.06812206324122,104.67081107170655 112.88268164986651,104.7453797033408 112.60059636506008,104.87096897808463 112.3464743171823,104.97693492855105 112.0432939589034,105.07505154935328 112.00306614437358,105.07897621430233 111.8764957035396,105.10644886824392 111.58018350877533,105.19279149425748 111.27553140112592,105.24381213701615 111.00914477564785,105.25166146685578 110.96695462876137,105.25166146685578 110.8899330814901,105.2320381428123 110.71381374709252,105.2281134776878 110.37629257147344,105.2320381428123 110.34244233729667,105.2320381428123 110.30662977070385,105.22418881291419 110.2870064465434,105.17709283510456 110.2953463593116,105.12999685688557 110.30319568897578,105.07505154935328 110.2963275255781,105.0004829177775 110.27572303520964,104.9808595935001 110.25217504627558,104.96516093411326 110.21783422887783,104.94946227460944 110.18938040890366,104.94161294494528 110.08635795700283,104.94161294494528 109.7507991138592,104.95338693973395 109.44320350764418,104.97693492855105 109.3568608814561,104.98870892316427 109.04092536241352,105.03188023608332 108.69849835581371,105.05150356053619 108.35999601398753,105.07112688463815 108.32074936566663,105.07505154935328 108.14266769902754,105.14962018133842 108.10685513231776,105.16531884049134 108.02639950325992,105.17709283510456 107.70555815323662,105.18101749999514 107.58732762516993,105.16924350544039 107.27973201901341,105.14569551621392 106.93730501235513,105.14962018133842 106.8529247184652,105.14569551621392 106.5541596081224,105.09075020885707 106.3785308568864,105.02010624164554 106.3221137999836,104.9808595935001 106.29709406162056,104.96516093411326 106.30837747301281,104.74145503880112 106.27060257400395,104.7022083902463 106.13667338660981,104.67473573648016 106.09546440587104,104.67081107170655 105.81239795497447,104.59624243995533 105.52884092079753,104.50597514864184 105.41453505756293,104.47457783010208 105.08437262856341,104.34506389046769 104.85674206824375,104.17630330280481 104.67866040154618,104.08211134689314 104.64284783495336,104.06248802284966 104.45053925818098,104.00361805036832 104.4112926098016,103.99184405581357 104.3720459615392,103.98791939086452 104.33721456109501,103.98007006120034 104.3053266593352,103.97614539642673 104.23860735718968,103.95259740725875 104.20868178790347,103.94082341282096 104.1036970035866,103.85055612168291 103.91727542406235,103.75636416565429 103.82308346809221,103.69356952845781 103.59250940932392,103.528733605744 103.45563672318785,103.4502403088098 103.19317476254187,103.32857569901502 103.15490928048747,103.31287703986212 103.09015231069952,103.30502771019793 102.9626007037151,103.28540438609598 101.13027281023246,101.73516177736218 100.92569965586071,101.52322987637088 100.89086825541652,101.53107920603506 100.75595790181437,101.55070253031246 100.72407000005364,101.55070253031246 100.40519098244638,101.5467778654219 100.08729313104715,101.52715454114448 99.77037644585593,101.46435990377257 99.45345976066471,101.38979127196288 99.17480855758636,101.29167465116065 98.88634569248627,101.15431138221295 98.67882903943106,101.07189342056364 98.64890347014487,101.07581808568814 98.6096568217655,101.08759207989199 98.48112404857305,101.14646205254878 98.40704599980889,101.17393470649037 98.31677870867082,101.1935580303584 98.28341905759807,101.1935580303584 97.96552120619883,101.18963336564327 97.64664218859157,101.21710601958488 97.61475428688932,101.21710601958488 97.29587526928206,101.21318135446037 97.1570402508469,101.21318135446037 97.07265995689849,101.21318135446037 96.75279977314169,101.2720513272926 96.46384632482155,101.36231861837217 96.17783637518212,101.47220923343676 96.11798523655123,101.50753121686708 95.95658339527216,101.55855185997665 95.92469549351236,101.5624765245748 95.82903178834714,101.57425051936349 95.79812505267748,101.58209984885222 95.51702093413755,101.70376445847154 95.43705588812524,101.72731244763952 95.22806748593437,101.790107084836 95.16331051608702,101.80580574439827 94.87533823409095,101.89214837041183 94.58491303651633,101.99811432087824 94.29497842204573,102.10800493646916 94.1973523843475,102.11977893084847 93.27309381639046,102.40627946359099 92.39347831089843,102.48869742488942 91.67428348041805,102.70847865566186 91.20921069781546,102.45730010658359 89.85863541241422,101.65666848077888 89.30820116977218,101.43296258523283 89.20959396586592,101.39371593691193 88.65081981033963,100.89528350323658 88.47911572393481,100.73829690995301 88.42662333180562,100.54206366834853 88.43152916284572,100.49104302541441 88.47666280841474,100.45179637721048 88.56545835024077,100.33798109690444 88.57772292784105,100.30265911347412 88.6331588186528,100.04755589962224 88.64542339625308,99.80422667979877 88.65278214281324,99.54912346594689 88.65915972310691,99.27832159235727 88.66602788662155,99.03891703765831 88.67829246422183,98.98789639489962 88.69399112355018,98.95649907600898 88.71361444765306,98.92510175770316 88.73716243664468,98.89370443881252 88.91524410345922,98.67392320839096 88.93143334589159,98.63860122478519 88.94271675722537,98.60720390624545 88.96773649558841,98.34817602709361 88.97362349277807,98.11269613734369 88.96332124759384,97.86936691752022 88.93682975997723,97.6260376982231 88.94615083895344,97.41410579711483 88.95841541655372,97.37485914873545 88.9760764083566,97.33953716548058 88.99619031562106,97.31206451153898 89.04377687665166,97.25319453894068 89.07468361226285,97.22964655012359 89.27827560042749,97.04911196767203 89.4637160138022,96.85287872606756 89.54907747384165,96.72728945149919 89.59421111941069,96.49180956151534 89.60009811660034,96.22885701782383 89.60549453080294,95.98945246312486 89.60451336453643,95.93058249064353 89.52749181720759,95.93058249064353 89.38963796503802,95.88741117737358 89.24835003102433,95.81676721033749 89.13110066922414,95.73042458432393 88.99030331831445,95.64015729301043 88.85441179856184,95.54989000187237 88.64346106377764,95.41645139746437 88.55172202338694,95.38897874369823 88.334884291414,95.34188276583012 88.26718382300199,95.34580743060373 88.05623308833566,95.34580743060373 87.89335949780396,95.33795810111499 87.76384555828652,95.31441011188853 87.59508497056515,95.26338946912985 87.38511540198898,95.204519496707 87.12069110898635,95.11425220556893 86.88324888664586,95.06715622752539 86.60116360183852,94.90232030481155 86.36372137949712,94.71786105741094 86.2351886061877,94.61581977189358 86.11548632892503,94.52555248075554 86.05171052528753,94.49023049732521 85.9491786565492,94.47453183799685 85.76717232501953,94.48238116766103 85.66611220553474,94.4863058325516 85.38402692072833,94.50592915647812 85.23930490510351,94.52162781580648 85.10733805006603,94.53340181024426 84.9488797075289,94.55302513469712 84.83702675975587,94.55694979941225 84.7197773978972,94.55694979941225 84.65158634649721,94.56087446418586 84.51177016185494,94.49023049732521 84.38814321958564,94.41566186534007 84.16100324248696,94.36464122258138 83.9996014012088,94.36464122258138 83.89559778327539,94.4038878711362 83.8421242248797,94.48238116766103 83.82544439934331,94.56087446418586 83.78423541860639,94.64721709037485 83.73076186026915,94.66291574987866 83.60321025316777,94.65114175549935 83.43444966538793,94.60404577728035 83.3019922273634,94.54517580503294 83.10968365059102,94.47845650271198 82.70200909109926,94.34501789830398 82.20602957300244,94.11738733839368 82.032363154124,94.05459270102178 81.8709613129628,94.00357205820461 81.69287964614827,93.93292809099307 81.62714151021078,93.85051012975312 81.57464911808158,93.73277018467347 81.5363836360272,93.59933158044092 81.505476900416,93.50513962452926 81.36124546783672,93.30105705308516 81.2680346780746,93.23041308604907 81.09927409041264,93.2421870806623 81.00017630334298,93.28928305864738 80.86968119767602,93.31675571258897 80.59397349316325,93.31675571258897 80.45906313956017,93.29320772342099 80.33151153251727,93.25396107504162 80.21867741859471,93.22648842150939 80.0921069778183,93.2225637563849 79.97142353417307,93.2225637563849 79.87919391061898,93.26965973460389 79.6957158297782,93.45411898141968 79.62360011342915,93.52868761358027 79.5166529968132,93.58363292105408 79.25958745036982,93.57970825616351 79.00154073760147,93.5640095970106 78.82934606809354,93.5640095970106 78.50556121938769,93.51691361879159 78.34072529643994,93.47374230587255 78.19158803287903,93.43057099277804 78.09101849649825,93.37955034978543 77.98407137994079,93.32460504231163 77.84082111351195,93.27750906426807 77.71425067273464,93.24611174537743 77.58571789936674,93.2421870806623 77.51556451549315,93.26965973460389 77.47582728412672,93.32068037718713 77.2030630782956,93.6268042343825 77.0352836567247,93.78771549238121 76.97543251797686,93.82303747598698 76.89203339035343,93.8544347942928 76.78753918914057,93.85051012975312 76.71444230664291,93.8701334537966 76.62466559860886,93.94470208543086 76.26997401446727,94.26652460177915 76.1483094046725,94.32146990948688 76.05264569933183,94.3410932337643 75.81716580946495,94.30577125033398 75.74210659449277,94.25082594262624 75.64938638789313,94.12131200293337 75.55568501508549,94.05459270102178 75.46443655768093,94.03496937674436 75.32216745751768,94.03889404145949 75.18725710391462,94.06244203068594 75.0454785867969,94.0899146844521 74.92185164464458,94.11346267326918 74.75946863715839,94.13308599754659 74.61523720463758,94.14093532703532 74.46217527612762,94.13701066226172 74.32039675912688,94.1487846566995 74.1810711575877,94.152709321824 74.07853928884937,94.18410664030527 73.92694910965143,94.23120261834883 73.75132035847392,94.23120261834883 73.57961627207,94.29792192061132 73.38583594592711,94.37249055224557 73.22639643712348,94.39603854141355 73.00759637279297,94.38426454685879 72.72649225419458,94.36071655780778 72.54939175364655,94.4038878711362 72.42527422827324,94.47453183799685 72.34579976548191,94.56872379385003 72.28202396190197,94.67861440926549 72.2089270794043,94.7845803597319 72.09167771760413,94.9258682934532 71.9405781215696,95.00828625510252 71.7296273867854,95.07108089247444 71.38180396604147,95.18489617242957 71.2253079559204,95.23199215064858 71.0928505177789,95.28693745835632 70.95058141761565,95.30263611750922 70.76759391987797,95.29478678802049 70.64936339181128,95.27516346374308 70.5536996864697,95.2476908098015 70.46196064601962,95.19667016721826 70.42614807942772,95.12995086472185 70.43645032467043,95.02398491425544 70.44135615576903,94.91801896396447 70.4653947278071,94.82382700787736 70.49286738157323,94.73748438151291 70.47962163776494,94.64329242583517 70.46097947987099,94.58834711812744 70.19459285439292,94.4706071730478 70.10825022802847,94.43528518944203 70.04251209209097,94.41566186534007 69.8683550902264,94.41958653028912 69.7452187311196,94.46275784338361 69.65740435544221,94.50592915647812 69.51562583838297,94.55694979941225 69.40524463998047,94.58049778846326 69.33263834064529,94.592271783018 69.14916025974512,94.61189510694453 68.79446867548656,94.6275937662729 68.63699149915745,94.65114175549935 68.50649639349048,94.66684041465227 68.33773580565216,94.69823773354291 68.04044244467987,94.75318304101671 67.88100293587624,94.77673103006774 67.71616701287,94.76888170040355 67.4787247905286,94.7649570354545 67.21822516229867,94.7806556949583 66.98863226962143,94.82382700787736 66.74186896830382,94.87877231576054 66.59567520330849,94.90232030481155 66.44457560727305,94.96903960672314 66.32536391299833,95.04360823870829 66.15954682390104,95.14957418899925 66.02807055196756,95.204519496707 65.83330905973361,95.28301279323182 65.6346229025506,95.36150608993208 65.48891972065928,95.43999938663235 65.30985688775368,95.53419134271947 65.07928282880995,95.69902726543329 64.90561641004848,95.84423986427907 64.81780203437292,95.94628115003036 64.69760917388926,96.09149374864222 64.58771855859077,96.24848034210125 64.48567727295644,96.37799428138474 64.4444682922195,96.44078891875667 64.38461715353014,96.52320688023053 64.24921621682306,96.633097495646 64.06279463735729,96.70374146268209 63.91071387505534,96.73513878116336 63.74097212106748,96.73121411644824 63.53787071600686,96.68411813840468 63.165518140062375,96.62917283069694 62.92807591772097,96.5820768526534 62.76863640891734,96.55067953417213 62.58515832801716,96.52320688023053 62.30258246010673,96.49965889141345 62.0906505591739,96.44471358370572 61.83015093100245,96.38584361104893 61.69867465906898,96.35837095745823 61.592708708602565,96.34659696290348 61.244885287858644,96.31127497947315 60.98046099485602,96.30735031434865 60.719961366566686,96.26417900125416 60.495764888033584,96.24848034210125 60.33141954818984,96.24063101243706 60.20239619183582,96.29950098468449 59.97819971336119,96.41724092993957 59.76626781242745,96.61739883625917 59.61614938254155,96.75476210526533 59.46799328518866,96.87642671506009 59.261457798341475,97.11190660504394 59.04952589740865,97.30029051715968 58.94454111320965,97.36308515435614 58.83857516274233,97.39840713796191 58.7836298550346,97.40625646745065 58.66441816075988,97.44157845088097 58.54618763269319,97.44550311600547 58.41765485950074,97.45727711020932 58.2665552634653,97.47297576953768 58.14685298608658,97.52792107742086 57.995753390051135,97.61426370366834 57.90941076368669,97.66135968147798 57.78087799043576,97.69275700036862 57.67589320617737,97.70453099474793 57.533624106072615,97.72022965413476 57.421771158299585,97.72415431902533 57.18923476699829,97.72022965413476 56.92382930772824,97.72022965413476 56.74182297625706,97.72415431902533 56.53774040487145,97.72807898379894 56.237503545275096,97.72022965413476 56.1006308591975,97.73200364868951 55.89998236965693,97.68883233524411 55.748882773622405,97.62996236299671 55.608085422828765,97.57894172023802 55.50310063862794,97.53184574219446 55.3848701104452,97.4651264398735 55.13859739229007,97.32383850597677 54.840322865051284,97.1433039238761 54.54842591810524,96.98631733030012 54.33404110165327,96.91959802833004 54.029879577224825,96.78615942392204 53.636431927749385,96.64094682531018 53.175774393141374,96.49573422628895 53.05656269880818,96.46041224285862 52.91969001278906,96.42901492431888 52.75289175742527,96.38976827599798 52.67145496215941,96.35444629256766 52.533601109990755,96.30735031434865 52.325103290786004,96.2210076883351 52.10139739535691,96.12681573224799 52.00573369001625,96.0875690839271 51.84138835017251,96.03654844110994 51.731497734874004,96.01692511706645 51.60345554472709,95.99337712783999 51.38465548033902,95.94628115003036 51.16928949773568,95.90703450147554 51.05547421754661,95.89526050703776 50.92350736262517,95.88741117737358 50.78565351034138,95.89526050703776 50.622289336704746,95.89133584232263 50.49768122834439,95.88741117737358 50.319599561529856,95.85993852378287 50.085100837870996,95.8049932158997 49.921736664235276,95.77752056236749 49.74757966225283,95.70295193038234 49.38749166390863,95.5616639964856 49.2466943131159,95.55773933153655 49.1137462918704,95.5616639964856 48.949400952085135,95.55381466682142 48.7938861081136,95.53419134271947 48.70018473524746,95.4988693591137 48.64082417960271,95.43999938663235 48.58391653953833,95.39290340882273 48.50689499226706,95.35758142521696 48.4288922786708,95.3104854471734 48.32488866062043,95.18097150783142 48.293981925067726,95.10640287590476 48.29005726029412,95.01221091981765 48.28171734746745,94.87877231576054 48.16741148429133,94.76888170040355 47.990310983684815,94.60012111274068 47.91328943635506,94.54910046957262 47.77347325171188,94.43528518944203 47.55320143801086,94.25475060716592 47.43497090994417,94.152709321824 47.365798692279505,94.05066803589727 47.28141839844624,93.74846884382639 47.23628475287813,93.68959887157898 47.13228113476927,93.61895490471834 46.936047893164805,93.47766697058766 46.826647861028796,93.29320772342099 46.76924963785949,93.16761844867716 46.68683167632713,93.1048238114807 46.586262140063326,93.05772783343714 46.39591589564851,93.05380316872201 46.20458848508415,93.05380316872201 45.992656584209804,92.98315920186137 45.87933188718323,92.89289191054787 45.82782066120357,92.78692596025691 45.81751841607782,92.6534873558489 45.83616057397176,92.52397341650692 45.88963413230898,92.4023088065367 45.91220095521046,92.31989084506282 45.929861946837896,92.2100002298228 45.93918302581411,92.09618494951677 45.91220095521046,92.021616317941 45.87638838850068,91.8999517079123 45.87197314056458,91.78221176300809 45.8729543067726,91.6409238292868 45.89257763093305,91.47216324127304 45.901898709909254,91.40151927423695 45.95733460066252,91.3308753073763 46.037790229779745,91.2445326811873 46.13737859983462,91.0522241044734 46.3699149911944,90.81281954942354 46.52542983522442,90.63620963209648 46.58282805827676,90.49884636291488 46.643660363232634,90.40072974211263 46.69713392162833,90.28691446198205 46.71675724573029,90.13777719859658 46.744720482658934,89.99648926469985 46.89680124490239,89.81203001729924 47.02974926603094,89.69821473716864 47.15484795761227,89.58047479243989 47.328023793269736,89.46665951213384 47.482066888046205,89.36461822655801 47.58214584114752,89.29397425969736 47.65622388985321,89.2194056277707 47.65916738847727,89.12913833663265 47.66211088710134,89.01924772121718 47.64248756294089,88.84656246883918 47.62433598815096,88.74059651813883 47.6086373288226,88.65425389177439 47.6002974160535,88.5875345898628 47.601769165307964,88.52081528754182 47.62924181924956,88.45409598563023 47.728339606142846,88.24216408446348 47.824984477692446,88.0420061781439 47.86619345842847,87.90856757391133 47.85343829772418,87.73980698624845 47.73226427097494,87.6024437168914 47.61893957394836,87.37088849168116 47.57773059321142,87.18642924486537 47.586070505979606,87.08438795893863 47.59342925253978,86.91955203622481 47.59833508357989,86.80966142080935 47.67584721401365,86.77041477242997 47.75090642898584,86.75079144856193 47.88140153465282,86.71546946489768 48.01533072198847,86.61342817920487 48.118843756994224,86.4407429267684 48.17869489562511,86.31907831679817 48.25375411059729,86.10714641604079 48.3155675817027,86.02080378961786 48.36904114003992,85.93053649847981 48.435760442126956,85.83241987767758 48.68890132379672,85.64403596579577 48.80124485467376,85.5773166634748 48.91015430370576,85.52237135576706 48.987175851035516,85.48312470779706 49.392888078052756,85.3967820811987 49.74071149879667,85.38108342187033 49.91928374865674,85.3418367736664 50.17978337694607,85.22802149336036 50.29310807391325,85.18485018026587 50.44617000236474,85.11028154845617 50.52319154975297,85.04356224636913 50.56685344595149,84.96114428489525 50.59236376741855,84.82770568048724 50.65417723852396,84.53728048320505 50.6684041484818,84.45093785678212 50.69931088409298,84.41561587317635 50.87837371705706,84.3174992523741 50.972075089923194,84.27825260422867 51.09766436449157,84.23900595567385 51.21981955739035,84.20760863736803 51.331181922000894,84.1683619888132 51.51416941979706,84.10556735144128 51.693232252761135,83.99175207148615 51.85169059541523,83.86616279674232 51.88652199574154,83.66208022564912 51.83501076987885,83.56003893972238 51.71776140796078,83.54041561562042 51.56764297813427,83.52471695629205 51.45775236283577,83.50116896747497 51.32382317549921,83.4462236595918 51.16438366669558,83.39520301700855 50.99464191264923,83.3912783520595 50.85139164627797,83.39520301700855 50.690970971324795,83.41875100582564 50.40103635691268,83.4501483247163 49.93400124183556,83.50116896747497 49.52976076413035,83.54826494551853 49.143671861215076,83.54434028039402 48.81449059848207,83.54041561562042 48.53387706292919,83.46977164875977 48.40730662209431,83.42267567095014 48.224809707460636,83.35988103357823 48.07567244378184,83.29708639620632 47.97902757229164,83.24606575321371 47.829890308673164,83.13225047308312 47.65818622226925,82.9634898852448 47.50806779244092,82.74370865482324 47.38345968408148,82.49253010551104 47.35549644709436,82.42581080354097 47.34960944984623,82.35909150127848 47.371195106481196,82.29237219913296 47.405045340599486,82.22172823227231 47.47617989068111,82.11183761691534 47.5242570348742,82.04904297971886 47.589014004603676,81.95092635891663 47.61893957394836,81.82926174906338 47.62188307257242,81.70759713909317 47.574787094645835,81.60948051829092 47.52229470251664,81.52706255681706 47.428593329650504,81.43287060096387 47.361874027446504,81.33082931521258 47.24020941771022,81.10712341966652 47.130318802411715,80.94621216184328 47.01012594187049,80.68718428269145 46.96695462883447,80.51842369485313 46.901707075884026,80.30256712914668 46.847252351397266,80.12988187676868 46.78249538166779,79.92972397003972 46.66328368739399,79.68247008567657 46.48618318678656,79.44699019586817 46.30221452278237,79.24290762442408 46.15994542261913,79.14871566874633 46.04711130881353,79.12516767951988 45.915144453776044,79.12516767951988 45.756686111180436,79.12909234429348 45.41033443969006,79.16441432789925 44.95458273612217,79.24290762442408 44.4370175613319,79.39989421805853 44.046022827434996,79.41559287721145 43.71880389706046,79.42344220670019 43.32977149557868,79.38812022326987 43.16542615573494,79.3567229047301 42.76805384154438,79.3567229047301 42.58212284506566,79.3567229047301 42.300037560259234,79.36457223445277 41.89677824882054,79.3567229047301 41.49646243594742,79.31747625640922 40.85674206825746,79.19973631132957 40.3141571552805,79.13301700941798 39.204458173948744,78.99172907546277 38.15608208073535,78.89753711925869 37.50458771855095,78.84259181155096 37.34122354491432,78.81904382273387 37.13125397639754,78.7562491855374 36.93551131789708,78.63850924028232 36.65686011481965,78.4854473119478 36.50134527084719,78.43442666918911 36.3831147427805,78.4148033449117 36.07846263518956,78.4148033449117 35.80079259837772,78.4148033449117 35.60455935677325,78.46582398784582 35.15567581660303,78.7562491855374 35.069333190297066,78.84259181155096 34.874081114959104,79.08592103137443 34.78234207439205,79.3567229047301 34.36681818535307,79.99251860741163 34.31334462701585,80.15735453053483 34.05824141287156,80.61261565111568 33.34002774865769,81.42894593601481 32.48003556726762,82.04904297971886 31.835899951759433,82.3080708585198 31.024966080770486,82.29237219913296 29.817150478694984,82.30414619357074 28.981687452621525,82.45328345713166 27.530052047794904,82.73978398987418 26.63620963234503,83.04590784689412 26.17604268072407,83.2578397476515 25.738933135050114,83.63853223642265 25.704101734723803,83.67777888480202 19.349088205304607,79.8276826846978 18.631855707240277,79.4901615091966 16.101918639854667,78.0458848506953 12.851805575780656,76.13849774253379 12.08747709973125,75.83629855028747 11.546363936065411,75.66753796244915 10.060878297062015,75.29077013856856 9.447649417047138,75.22012617153247 8.262400637756148,75.04744091915447 7.7119663951140955,75.023892929928 6.906428938327752,74.9336256389654 5.94733896992743,74.78448837522903 3.026407168703398,74.46659052400524 2.308684087476572,74.34100124943686 2.053090290345234,74.29390527121787 2.271399771571723,73.26956775010102 2.282683183022462,73.19499911846677 2.271399771571723,73.16360179981005 2.227247292210718,73.10080716243813 2.1512069111474683,72.99484121197172 1.9780310753730428,72.79860797036726 1.9505584216068994,72.77505998131623 1.881386203941324,72.7318886680463 1.8475359697060714,72.7083406792292 1.7744390872093205,72.6612447010102 1.70036103850272,72.62592271757988 1.4329932468166315,72.48855944857371 1.345669454361125,72.42576481143573 1.2519680814949914,72.370819503728 1.0091294449509793,72.21383291044442 0.9659581318564784,72.18636025650284 0.7878764650419412,72.10394229508744 0.7393087377448352,72.0764696413213 0.7034961712105018,72.05292165209482 0.6583625255829919,72.02937366310229 0.6220593759446473,72.00190100933615 0.5936055559110855,71.98620235018323 0.5082440958140556,71.94303103708873 0.47831852641089206,71.93125704230006 0.22812114336519468,71.78604444345427 0,71.60550986135361 0.09958837017274985,71.52309189993821 0.3282000966419557,71.35433131227533 0.5759445641091151,71.16202273521054 0.8384065248135739,71.02465946626286 0.9061069931086335,70.96971415855512 0.9330890638877299,70.93831684001537 0.9546747204057394,70.90691952135866 1.0925285726913607,70.47913105454396 1.210759100758053,70.24757582950916 1.414351088864207,70.05526725279526 1.4565412358676497,70.02779459885367 1.732248940263446,69.92575331333632 1.989314486764386,69.8001640385925 2.2517764474112765,69.61962945614094 2.278758518190373,69.59215680237479 2.3229109975504647,69.5254375004632 2.4524249369518456,69.30958093458132 2.693301241021331,69.12512168759008 2.892968564353877,68.92103911608751 3.1191273753030275,68.74442919858501 3.3452861863106595,68.57959327587118 3.533670098250949,68.38336003426672 3.6519006263176417,68.16357880361123 3.7912262278568143,67.93987290806517 3.8702101075441306,67.68084502926423 3.879531186520343,67.5434817601411 3.8147742168493504,67.28445388116472 3.8157553830573727,67.23735790312116 3.8550020313197844,67.17456326574926 4.036027196758389,66.90376139256902 4.185164460319303,66.69967882124189 4.220977026913032,66.64473351376809 4.278865833184523,66.49167158525812 4.317621898460801,66.25226703055915 4.327924143586554,66.16592440396077 4.3323393915226545,66.10705443153792 4.365208459491402,65.96576649764118 4.42702193059681,65.65571797608156 4.445173505503705,65.44771073986387 4.469212077600253,65.11411422890234 4.490797734118263,65.01992227322461 4.569781613864061,64.87470967420337 4.638953831529636,64.76874372373696 4.682125144741101,64.71772308115372 4.895038211881036,64.56466115264375 5.15308492453243,64.43907187789993 5.478341522492751,64.30170860871831 5.537702078078102,64.27031129023705 5.803598120452157,63.92886544961135 5.87767616915693,63.67768690065004 5.93899905715924,63.51285097758532 5.952735384130035,63.379412373352764 5.951754217863531,63.29306974710528 5.943414305095341,63.23419977433153 5.94733896992743,63.167480472361454 6.011114773507365,62.95554857125318 6.1376852143422465,62.63765072002939 6.234330085773966,62.429643483811695 6.273576734094859,62.35115018711142 6.308408134538134,62.296204879579136 6.520340035412478,62.10389630292372 6.683213625944187,61.99008102273465 6.752876426713773,61.9469097094647 6.828916807893987,61.907663061319255 7.101681013724199,61.83309442933411 7.1747778961642945,61.805621775567964 7.229232620767103,61.77814912162638 7.268479269029514,61.75067646786023 7.29300842422916,61.71927914937896 7.32097166115871,61.66433384149578 7.405351955107114,61.47987459467999 7.4897322489385525,61.224771380594184 7.508374406890978,61.12273009490138 7.495619246186687,60.879400875077906 7.502977992805336,60.79698291360403 7.511317905573526,60.76166093017371 7.5275071480058955,60.73418827658301 7.563810297701808,60.68316763347344 7.61728385603994,60.62429766122603 7.659474002926419,60.58505101267121 7.722268640239848,60.54580436464272 8.019562001270618,60.443763078949914 8.31783652850941,60.30247514505318 8.511126271489811,60.110166567988394 8.685283273413777,59.86683734874974 8.87464835156209,59.64313145320369 8.950688732742304,59.56856282121854 9.259265505106848,59.34878159079698 9.532029710937973,59.14862368424346 9.746905110552435,58.97593843180697 10.020650482590668,58.779705190202506 10.256130372457548,58.603095272524556 10.459722360622184,58.43041002014655 10.70893857745986,58.20277945965144 10.819810358966384,58.081114850032115 10.937059720883536,57.853484289537 11.015553017466841,57.62192906450221 11.031742260016173,57.58660708107189 11.058724330619825,57.55128509746612 11.106801474812919,57.50418911977346 11.163709114878214,57.46494247145257 11.208842760447244,57.4413944822261 11.243674160890517,57.425695822897744 11.289298389622038,57.41392182869389 11.380546846851153,57.398223169307045 11.691576534794235,57.398223169307045 11.855921874637978,57.425695822897744 11.901055520265487,57.43746981751097 11.967284239306995,57.44531914699971 12.281748008978157,57.32757920209551 12.352882559002207,57.143119955104275 12.370543550745696,57.07247598824363 12.506435070615273,56.81737277415782 12.645270089050435,56.558344895005995 12.714932889820021,56.46022827420376 12.84886207715659,56.32286500525608 13.132909694437538,56.13055642854218 13.407636232625313,55.965720505477464 13.465034455794619,55.918624527433906 13.519489180340774,55.85975455501105 13.55677349630319,55.80480924730332 13.655380700209436,55.57325402226853 13.675985190577906,55.530082709174025 13.714250672632295,55.47906206618141 13.990939543353077,55.298527484139235 14.07188575551492,55.263205500708914 14.22004185292538,55.1572395502425 14.28627057190932,55.10229424253477 14.343668795078628,55.063047593979945 14.47514506695362,54.96100630863803 14.550694865029824,54.89428700614162 14.726323616265823,54.7843963909016 14.7954958339314,54.749074407646724 15.137922840472713,54.68627977009936 15.238982959898102,54.66273178110683 15.35377940623763,54.627409797676506 15.505369585377082,54.54891650115168 15.785983120929954,54.407628567254946 15.829154434024455,54.388005242977535 15.875759828963998,54.35660792443778 15.934139218282844,54.28596395722625 15.959158956587414,54.24279264413175 15.973385866662221,54.1682240124975 15.997915021862779,53.952367446674096 16.014594847398246,53.87387415009079 16.057766160494573,53.79538085321508 16.201507009968932,53.62662026537675 16.256452317734237,53.56382562818028 16.4855546271914,53.39114037580228 16.74507308921331,53.22630445250363 17.02764895718223,53.085016518782346 17.08750009581311,53.045769870227524 17.183163801153768,52.98689989798011 17.25233601876086,52.92802992532332 17.383812290694337,52.73572134849246 17.532949554255254,52.496316793968944 17.654614164166986,52.26868623364928 17.78314693730095,52.04890500287682 17.983795426841517,51.691760503273656 18.088780211098996,51.46412994318792 18.174141671197855,51.24434871235699 18.192293246046265,51.17762941044539 18.199651992606434,51.134458097350894 18.195727327774346,51.09521144879607 18.185425082648592,51.05204013570157 18.174141671197855,51.01279348732219 18.185425082648592,50.93822485574643 18.308561441755398,50.6948956360984 18.48664310845297,50.41624443284461 18.577400982753517,50.231785185853376 18.660800110376936,49.960983312263764 18.681404600745406,49.80399671921411 18.681404600745406,49.67055811498156 18.677970519017325,49.58421548838318 18.752048567723012,49.309488950078446 18.837410027820958,49.11718037359847 18.858014518189425,49.066159730781315 18.87371317751687,49.01121442313206 18.88058134103242,48.93272112637331 18.8796001748244,48.89347447805242 18.894317667886252,48.83460450557108 18.917865656995755,48.80320718691436 18.971339215216005,48.76003587381986 19.0596441739965,48.71293989560086 19.43003441746645,48.57557662677014 19.732724192641346,48.48923400023025 20.070245368259513,48.36364472566187 20.270893857800083,48.27730209947287 20.578489463956604,48.17133614900646 20.88608507017161,48.05359620392681 21.151490529441652,47.912308270030074 21.426217067687908,47.71215036347655 21.725472761193206,47.464896479113406 21.97468897803088,47.2137179298012 22.185639712697203,47.009635358532556 22.32643706360689,46.88797074891323 22.57418153107405,46.71528549612585 22.659542991171993,46.71136083152769 26.64553071126276,45.400522777492874 28.262492622142062,44.59596648703152 28.30713568460708,44.57634316275411 28.485707934408662,44.48607587161605 29.695976452004224,43.26158044394569 31.684800355723993,41.53080325293579 33.95914362586222,39.94131399617353 33.987106862789936,39.909916677341364 39.26578106195014,34.85494837384418 41.288455199905165,32.97895858381305 42.11606889625505,32.21364894167259 47.98197107091662,31.715216508172688 48.87090765544335,31.16576343132928 49.8206765447505,31.10689345908187 58.49075174199841,31.197160750219926 62.01019493017455,31.644572541136597 64.49499835193265,32.00171704091521 71.30870708354381,32.975033919214894 71.52897889724483,32.99073257860173 78.04539426794219,33.40674705045231 78.57865810188535,34.152433368841706 79.96308362140488,34.80785239562518 83.08662624464401,36.00095050458035 84.30081942707166,36.338471680081554 86.13020382192931,36.31884835621352 88.443793740446,36.256053718841606 88.49039913538554,36.2482043889435 88.55515610511502,36.224656399950966 88.68761354313955,36.177560422082855 88.77935258358964,36.0872931309448 88.85048713378823,36.01272449919358 88.8916961144082,35.89498455411394 88.93143334589159,35.82826525220235 88.90396069200848,35.67127865856788 88.8038817387902,35.42402477438018 88.77395616944644,35.26311351620603 88.82350506295064,35.11005158769606 88.94713200521994,34.93344167036901 89.014832473515,34.81962639023841 89.08400469118058,34.71758510448713 89.18163072899577,34.58414650007912 89.16593206955045,34.4467832312484 89.03838046256602,34.23092666542501 88.91181002178962,34.003296104929895 88.89856427792284,33.68932291842123 88.90788535684057,33.32825375410294 88.97803874071417,33.02212989690756 89.14434641303244,32.75525268844244 89.34597606872255,32.54724545240019 89.58881470520808,32.382409529510916 89.90376905804173,32.37063553489768 90.18045792864555,32.47267682064897 90.5120921069571,32.617889419260834 90.7671953211014,32.70815671039889 91.04486535797172,32.75132802366883 91.38925469704604,32.73562936416503 92.06037238321636,32.613964754545705 92.32774017490244,32.602190759932476 92.63141111634475,32.67675939191762 92.78545421094395,32.75525268844244 92.94096905491641,32.782725342208586 93.0376139264066,32.78665000733309 93.27407498254,32.716006040063064 93.61601140609426,32.53939612256056 93.9500984998674,32.31569022718995 94.1571245697601,32.146929639351626 94.17576672771253,31.907525084652654 94.18705013910478,31.734839832040723 94.21991920707353,31.609250557706275 94.35875422550869,31.48366128296245 94.76103237085634,31.405167986379144 95.469924956094,31.240332063314426 95.85356094354678,31.12259211823478 96.0900219996226,31.01662616776837 96.27251891425628,30.843940915156438 96.44814766549227,30.596687030793287 96.57766160495122,30.388679794751035 96.78370650863592,30.00798730597988 96.93284377237228,29.866699372083147 97.18304115530101,29.788206075558325 97.44305020048542,29.831377388652825 97.79381711979492,30.035459959746024 98.26085223487203,30.247391860678853 98.7509447557792,30.34943314643014 99.18167672104252,30.35728247609432 99.71346880579063,30.168898563978583 100.2035613266978,29.776432080769645 100.915397410618,29.132787048423953 101.50164421991136,28.595107966369227 101.80531516135275,28.387100730385455 102.13743992270983,28.245812796488718 102.29491709909742,28.04957955488425 102.42246870619789,27.86904497260814 102.60790911945654,27.66496240133949 102.7384042251226,27.449105835457612 102.8350490966722,27.272495918130556 102.99694152093831,27.033091363431584 103.13675770558058,26.907502088863207 103.22604383051062,26.785837479009956 103.28589496931694,26.617076890996184 103.30306537784037,26.420843649391717 103.38548333931425,26.29132971010821 103.61703856452449,26.110795127656655 103.8981426830635,25.867465908008633 104.14686831673959,25.686931325907967 104.51627739411848,25.416129452552283 104.98135017672107,25.137478249298493 105.25607671496732,24.984416320788522 105.55238890973159,24.9059230242637 105.84330469041022,24.843128386891788 106.08319982827167,24.733237771827213 106.30543397438873,24.57625117825123 106.63265290482268,24.372168607158027 106.76756325842574,24.309373969786115 106.99764673420698,24.19555868983097 107.32388449837441,24.101366733568415 107.49558858477832,23.987551453437824 107.57604421377675,23.88551016786198 107.66336800634923,23.736372904301067 107.76344695950993,23.622557624170476 108.17798968245786,23.230091140961537 108.45369738685366,23.073104547911893 108.84125803908097,22.90434395983964 109.62030400819222,22.82977532826387 110.35372574874741,22.84547398741678 110.74570164885233,22.810152003811012 110.84038418792649,22.692412058906815 110.89582007862127,22.558973454674256 110.92378331554991,22.315644235026234 110.98755911912984,22.080164345276316 111.26768207146173,21.723019845497703 111.50708662627767,21.499313949951645 111.85785354564565,21.3384026917775 112.47108242565962,21.460067301747713 112.94253278855496,21.66807453778997 113.3085077841482,21.754417164154418 113.6121787255896,21.770115823541257 113.96098331248307,21.730869174986434 114.40005519057307,21.695547191556113 114.62866691704227,21.58173191160097 114.73561403377519,21.507163279615824 115.08343745451911,21.157868109501386 115.18498815699094,21.106847466742707 115.38563664658999,21.106847466742707 115.5347739101509,21.118621461531387 115.73542239969147,21.110772131867208 116.1273982997964,21.00088151645174 116.16173911707719,20.985182857123384 116.60277332758322,20.800723610073664 116.85689537546101,20.663360340950536 117.36317713880054,20.549545060586016 118.0475405689546,20.427880450791246 118.46797028909218,20.306215841171923 118.73386633146623,20.11783192923163 118.97228972007414,19.729290110913265 119.09493549607785,19.517358209804993 119.18716511951408,19.05032309502029 119.33434005071743,18.7834458861458 119.41675801224979,18.70495258944553 119.73367469738253,18.43022605131624 119.95590884349959,18.194746161332393 120.07021470673419,17.95926627158248 120.150179752688,17.555025793760308 120.2428999594046,17.135086656609783 120.27478786110684,16.864284783429543 120.35426232395665,16.64842821772311 120.47347401823137,16.53068827246802 120.60495029010636,16.37370167941837 120.8909602397458,16.220639750908404 121.4330545697357,16.110749135492938 122.4598450063726,15.957687206982971 123.09073487813097,15.906666564224292 123.92178265638438,15.785001954604967 124.43149850139258,15.643714020474304 124.83966364392988,15.200226894506686 125.10801260188339,14.894103037662198 125.41904228982646,14.446691246979455 125.51764949367423,14.266156664527898 125.51029074711407,13.916861494413462 125.47349701431322,13.716703588035386 125.41364587562386,13.481223698110025 125.39206021904737,13.222195819133644 125.41806112361844,13.025962577529175 125.57651946615648,12.947469281004352 125.89245498519725,12.93569528639112 126.08034831403353,12.892523973296619 126.33888560984741,12.688441402027971 126.8471297055445,12.135063660820334 127.02619253850858,11.974152402646189 127.24401143668955,11.789693155654952 127.41375319073589,11.585610584327823 127.52511555528794,11.397226672446015 127.71938646447637,11.177445441615081 127.95584752060975,11.024383513105114 128.4768467771281,10.918417562638702 129.1739653678695,10.77320496396836 129.64639689709165,10.68686233760391 129.85440413319148,10.569122392699711 129.97754049229826,10.388587810482083 130.293476011223,9.964724008382502 130.63295951919872,9.650750821873835 130.98814168650281,9.481990234035509 131.2741516361413,9.40742160245974 131.62589972171733,9.317154311321683 132.00953570917102,9.28968165755554 132.47755199028072,9.277907662766863 132.57566861108387,9.372099619029417 132.8297906590192,9.54478487140742 133.08587503925457,9.713545459421193 133.34294058575642,9.870532052704768 133.60245904783773,10.007895321827895 133.8595245942802,10.141333925885005 134.11757130704854,10.270847865577883 134.37512743665442,10.40428646981044 134.63219298309778,10.561273062860087 134.8882773633916,10.733958315647465 135.09726576570037,10.914492898099022 135.3317644894771,11.098952144914811 135.6138497742826,11.236315414271868 135.73208030229083,11.28341139225694 135.762005871694,11.29126072192112 135.91703013256154,11.306959381307959 136.24326789667046,11.306959381307959 136.27613696469862,11.30303471618346 136.57146799331244,11.224541419658635 136.8677801880767,11.114650804243169 137.1322044811387,10.985136864959667 137.3863265290165,10.820300941836466 137.62916516550203,10.643691024333963 137.8916271262065,10.482779766335263 138.18892048717876,10.365039821255618 138.22178955514752,10.357190491591439 138.38417256257614,10.35326582705176 138.71139149295067,10.34934116192726 138.7432793947114,10.345416497153654 138.8747556665864,10.310094513898777 138.90811531765823,10.294395854394974 139.05479966575848,10.200203898541792 139.2534858229415,10.007895321827895 139.28243022613665,9.972573338046681 139.8328644687787,10.227676552483382 140.97788543354076,10.671163678275553 142.45404999350947,11.212767425045405 143.82277685364306,11.97807706753676 145.58789486187527,13.139777857659768 146.55924940787585,13.83051886822446 147.47173398127816,14.160190714061486 148.29787592843297,14.654698482787783 149.54886284366145,15.141356922083828 151.1398238499697,15.525974075804033 153.10362801538488,15.65548801491209 154.55820691871952,15.667262009700767 157.11120139199366,15.188452900068901 160.10915474060593,14.650773818072656 163.10612692301018,14.0306767747195 176.73697846801906,10.000045991988271 181.16792506338948,8.740228581063029 182.45717746078932,8.355611427576752 183.29460281933547,8.10443287826455 184.75359697060713,7.464712510633983 185.10534505618313,7.209609296255763 185.3472025265191,6.981978736345472 185.7185739361971,6.605210912289447 185.7494806717498,6.514943621151391 185.7852932384011,6.416827000349157 185.780387407361,6.310861049882744 185.8274833852876,6.263765071839189 186.07571843597572,6.091079819402704 186.35044497416348,5.953716550279576 186.38821987317326,5.934093225826718 186.50154457019892,5.835976605024484 186.6011329403132,5.624044704267104 186.9008792169225,5.419962133173903 187.09809362467652,5.262975539539436 187.3791977433334,4.937228358651464 187.6652076929719,4.740995117046996 188.11163831762207,4.446645254640293 188.34711820748896,4.266110672188736 188.5428608659894,4.058103436146481 188.69101696345928,3.830472876060744 188.92355335470208,3.2888691292908927 188.93042151815823,3.2339238215831596 188.98487624270348,3.116183876503514 189.12371126113865,2.810060019483579 189.26401802894432,2.582429459397842 189.45927010428227,2.3626482289178012 189.67022083900707,2.1467916630944037 189.83260384649236,1.9623324160446853 190.03325233609232,1.7543251798854667 190.60772515077244,1.1067554824152743 190.63127313976497,1.0910568230869169 191.3926581171903,0.2747265381292918 191.55209762599395,0.05102064281716182 191.58300436154664,0 192.58477505993744,0.23155522485934463 193.57869642866407,0.8241796146218037 193.970672328769,1.5188452897261762 193.96331358220885,2.4686141794426963 193.9976543995481,3.3438144369401437 194.49657741632748,5.616195374778371 195.78681097981837,9.191565036753307 196.75473144403242,11.051856166871257 198.51837770295256,13.029887242419747 200.95216048201138,15.086411614376095Z"/></svg>